<?xml version="1.0" encoding="utf-8"?>
<!-- Generator: Adobe Illustrator 17.1.0, SVG Export Plug-In . SVG Version: 6.00 Build 0)  -->
<!DOCTYPE svg PUBLIC "-//W3C//DTD SVG 1.1//EN" "http://www.w3.org/Graphics/SVG/1.1/DTD/svg11.dtd">
<svg version="1.1" id="Layer_1" xmlns="http://www.w3.org/2000/svg" xmlns:xlink="http://www.w3.org/1999/xlink" x="0px" y="0px"
	 viewBox="0 0 1224 1224" enable-background="new 0 0 1224 1224" xml:space="preserve">
<g>
	<g>
		<path fill="#7BBCEB" d="M366.7,417.5c4.1,1.7,5.9,5.9,5,11.8c-0.2,1.7,2.5,4.8,2,8.3c-0.2,1.4,2.1,2.2,3.3,3c6.4,4.4,14-0.8,20,6
			c6.2,2.4,9.2,7.8,15.7,9.8c3.7,1.2,4.7,1.8,5,4.2c0.7,5,4.2,0.7,6,2.3c1.1,1,12.2-1.3,16,4.5c1.9,2.9,6.2,4.3,7.5,7.3
			c1.2,2.9,3.2,3.3,6.5,4.2c8.7,2.4-1.7,6-5,5.3c-0.1,0.4-8.3-3.1-9.7-3.3c-2.3-0.4-5.7-6.7-8.7-7.3c-3.4-0.7-6.4-2.2-10-1.3
			c-6.9,1.7-18.2-7.6-25-9.3c-4.4-1.1-7.4-6.5-11.7-8c-3.9-1.4-9.4-1.6-13.7-2.7c-4.8-1.2-9.9-5.1-12.7-10.5
			c-1.1-2.2-7.1-11.2-9.7-11.7c-3.9-0.7-7.8-1.1-11.4-3.4c-3.4-2.1-8.2-7.6-12.4-6.1c-4.2,1.5-8.2,2.2-16,4.1
			c-3.3,4.9-11.5,11.8-17.5,9.6c-1.8-3.8-11.5-11.3-10.3-10.2c0-3.8,4.2-7.8,8.8-8.4c11.6-1.6,18.1-18.6,35.1-10.1
			c5.3,2.6,11.3,10.3,17.2,11c3.5,0.4,7-0.5,10.3,0c4.1,0.6,7.3-1.3,10.8-0.7L366.7,417.5z"/>
		<path fill="none" stroke="#7BBCEB" stroke-width="5" stroke-linecap="round" stroke-linejoin="round" d="M287.8,427
			c-3.2,2.2-7.1,8.9-12.2,9.7c-2.5,0.4-4.7,13.6-5.2,16.3c-1.3,6.4-9.4,4.3-13.1,9.5c-1.6,2.3,2.2,3.7-1.4,5.3
			c-2.4,1.1-4.5-2.3-4.2,2c0.3,4.5-10.2,7.8-12.3,10.6c-3,3.9-7.9,4-12.2,4.8c-5.3,1-5.8,6.3-10.4,7.4c-8.2,2.1-12.4,0.6-18,7.2
			c-4.4,5.1-5.5,8.6-10.5,12.9c-1.7,1.5-2.9,2.7-4.2,5.5c-1.7,3.7,0.3,0-0.7,3.4"/>
		<path fill="none" stroke="#7BBCEB" stroke-width="5" stroke-linecap="round" stroke-linejoin="round" d="M451.9,482.2
			c12.3-0.5,21.7,4.1,32.1-3.4c5.5-3.9,9.8,2.1,15.3,1.2c4.3-0.7,8.3-11.5,13.4-11c2.5,0.3,10.8-2.5,13.3-4.4
			c5.4-3.9,5.2-2.5,11-3.8c2.5-0.6,4.2-4.2,6.9-4.3c3.7,0,6.6,3.8,10,0.8c6.5-5.7,12.4,4.1,17.6,2.4c0.9-0.3,2.6,3.5,3,4
			c0.3,0.5,7.6,0,7.2,0c3.5-0.2,8.7-6.2,8.7-8.3c0.2-5.1,20.2-8.6,24.7-10.2c5.6-2,9,2.4,12.6,6.7c3.6,4.3,8.4,3.5,10.8,6.2
			c4.9,5.5,4.7,0.8,10.1-1c3.3-1.1,6.9-1.5,10.3-2.4c5.8-1.4,3.6,2.2,5.4,2.5c2.3,0.3,10.5-4.9,12.6-6.1c3.5-1.9,13.4,2.7,17.2,4
			c2.2,0.8,5.5,3.3,7.7,2.8c1.5-0.3,1.6,2,3,2c1.7-0.1,2.4-1.8,4.3-1.9c1.3-0.1,6.5,2.5,6.9,4.3c-0.1-0.3,10,6.5,6.2,5.4
			c-0.8-0.3-1.1,6.6,2.9,3c2.5-2.2,6.9,3.9,6,4.7c0.3-0.7,0.8-1.2,1.5-1.5c-0.2,0,6.1,1.5,6.1,1.5c0.1,1.6,2.3,2.3,2.6,4.4
			c0.6,4.1,4.8,3,5,3.4c0.6,1.6-0.4,5.3,3,5c-0.3,0,3.7-5.9,4.9-3.5c0.8,1.5-1.6,4.1-0.7,5.2c-1-1.2,6,1.8,4.2,1.7
			c2.6,0.1,3.6-3.3,7.1-2.5c3.4,0.8,3.2,1.9,4.9,4c0.5,0.6,6.1,7.4,5.6,7.7c2.5-1.1,4.4,7.5,6.8,7.9c1,0.1,9.9,3.6,10.5,4.6
			c3.2,5.6,4.6,3.3,7.9,0.2c3.2-3,3.7,7,3.3,8.6c-0.5,2.2,5.7,4.4,7.5,5.2c2,0.9,0,3.8,1.6,4.8c4.7,2.7,1.9,2.2,3.5,5
			c1.1,0.6,2.2,0.7,3.3,0.2c1.3,0.7-2.1,4.7-1.6,6c1.8,4.3-1.3,2.8-1.7,5c-0.3,1.9,11.4,1.9,12.1,2.6c1.7,1.9,6.6,3.9,9.1,3.6
			c3.7-0.5,0.3-3.3,3.8-6.3c10.3-8.7,19.2,8.1,28.3,9.1c1.4,0.1,2.6-0.3,3.7-1.1c2.4,0.8,2,3.8,5.1,3c2.4-0.6,5.8,3.9,7.9,1.3
			c1.7-2.1,11.7,1.8,12.2,1.1c1.2-1.8,10.7,0.7,13.3,2c-0.2-0.1,10.1-1.3,9.8-1.1c1.9-1.2,7.5,9.7,8.5,10c1.5,0.8,1.9,2.1,1.3,4
			c0.6,4.6,2.4,3.4,5.5,5.2c1,0.6,5.5,6.8,5.4,7.3c-0.8,2.7,6.6,14.1,7.6,17.8c1,3.4,3.6,16.7,6.5,18.3c1.2,0.7,6.9,14,6.7,16.1
			c-0.4,3.7,7.5,7.2,8.5,8.3c1.9,2,4.2,11.7,4.6,15.3c0,0.2,4.7,11.5,4.9,11.5c2.3,0-0.1,12,2.3,13"/>
	</g>
	<g>
		<path fill="none" stroke="#7BBCEB" stroke-width="5" stroke-linecap="round" stroke-linejoin="round" d="M867.9,839.8
			c6.6-3.3,19.7-6,28.4-7.6c3.4-0.6,6.8,2.1,9.2-1.1c4.2-5.7,6.8-3.3,12-1.6c0.4-0.6,0.6-1.2,0.7-1.9c1.9-0.1,10.6,2.8,12.2,4.6
			c0.9,1,5.5,3,5.9,0.4c0.5-2.9,11.6,6.7,10.4,7.1"/>
		<path fill="none" stroke="#7BBCEB" stroke-width="5" stroke-linecap="round" stroke-linejoin="round" d="M322.5,880.2
			c9.8-0.6,25.6,12.2,31.4,0.1c2.3-4.9,6.3-9.1,8.6-13.7c2.6-5.3,2.1-12.5,6.7-16.9c4-3.8,3.2-11.4,3.2-16.3
			c0-7.6,4.9-13.3,7.9-19.5c6.5-13.3,10-3.4,20.3-3.8c12.7-0.5,26.2,6.1,38.6,4.8c2.9-0.3,9.1,5.2,10.9,4.3c2.2-1,2-4.3,3.8-5.7
			c2.8-2.1,4.7,3.8,7.3,1.6c2.3-2,3.5-8.3,8.4-7.2c4.7,1,3.5,2.1,9.2-0.4c3-1.3,5.3,2.7,8.4,2.7c5.3,0.1,5.1-10.5,8.4-9.7
			c2.4,0.5,3.8,7.6,8.6,5.9c3-1.1,3.1-3.7,6.8-4.3c2.6-0.4,5.4-0.9,7.7-2.3c8.2-5-2.2-6,2.1-12c2.2-3.1,5.1-3.3,9-3.2
			c6.7,0,1.7-3.5,4.6-6.6c2.5-2.7,4.1,3.6,6.4-2c2-4.9,7.2-3.8,11.2-2.5c4.3,1.5,5.7-2.5,8.3-1c2.4,1.4,2.6,6.2,4.8,6.3
			c7.2,0.5,2.8-8.2,5.7-8.8c5.3-1,8.2,10.7,13.7,11.5c10.9,1.6-0.2,14.7,5.4,20c4,3.8,6.3,0.1,9.8-0.8c3.2-0.8,6.5-0.8,9.6-1.9
			c2.1-0.7,3.9,3,6.2,3c5.3-0.1,7.7,3.6,12.6-1c4.9-4.5,8.8-7.1,15.7-7.1c3.5,0,5.4-1.3,9-1.1c2.1,0.2,0.6-5,3.7-3.8
			c1.1,0.4,1.4,2.8,2.6,3.6c0.6,0.9,1.2,1.9,1.7,2.9c2,3,1.7-0.8,3.3-0.8c1.3,0,3.7,1.7,5.5,1c2.4-0.9,3.9,1.5,5.7-0.6
			c2.5-2.8,6-3.2,8.7-6.1c5.5-5.9,13.1-3.7,16.7-12.1c1.4-3.2,0.6-4.4,2.4-6.8c1.3-1.8,8,1.3,10.7,0.5c4.7-1.4,6.6,4,7.6,7
			c1.4,3.7,11,6.6,13.1,2.7c4.8-8.7,10.3-1.8,16.5-5.3c6.4-3.5,12.1,5.3,19.7,6.4c4.4,0.6,8.2,1.2,12.4,2c3.6,0.7,8.8-3.9,11.8-2.8
			c2,0.2,2.4,2.2,3.6,6.5c2.8,1.1,11.6,11.9,12.3,14.6c3,0.9,13.8,1,14.8,2.4c2.8,3.9,5.3,10.8,8.9,13.7c2.1,1.7,2.2,12,6.9,9.5
			c3.7-2,6.5,4.4,7.9,6.7c0.9,1.5,15.5,2.8,17.1,6.2c1.2,1.8,1.1,2.6,1.1,4c0,0.7,0.4,6,0.6,6.8c1.2,4.5,10.2,5,11.6,9.4
			c1.2,3.8,5.9,24.9,2.4,26.6c-2.8,1.4-0.7,16.4-5.3,18.7c-3,1.5-7.5,15.7-8.1,18.8c-0.8,3.9-1.6,11.8-0.3,15.5"/>
	</g>
</g>
<path fill="none" stroke="#585858" stroke-width="5" stroke-linecap="round" stroke-linejoin="round" stroke-miterlimit="10" d="
	M634.3,1120c-7.8,8.6-20-5.3-27.1-1.6c-3,1.5-9.9-1.3-14.2,0.5c-2.8,1.2-10.3,0.4-11.5,1.5c-7.1,6.7-17.3-1.8-17.2,9.7
	c0,16,0,31.9,0.4,47.9c0.3,12.4,1.6,13.9-10.1,13.8c-3.7,0-1.6-2.8-7.3-2.9c-13-0.2-25.9-0.4-38.9-0.6c0-1.8,0.1-3.5,0.1-5.3
	c-4.1,0.1-57.9,2.8-58,0.6c-0.2-4.7,0-17.4,0-23.1c-7,0-11.3,0.9-12.2,0c-0.6-0.6-0.2-4.7-0.2-5.4c-0.2-6.1-0.5-12.1-0.7-18.2
	c0-0.9-4.3-0.3-5.1-0.3c-2,0-1.2-5.2-1.2-6.7c-0.2-3.8-0.3-7.6-0.5-11.4c-0.1-2.5-7.4-1.2-9.6-1.1c0.2-6.1,0.4-12.2,0.7-18.3
	c-9.1-0.1-2.7-6.1-7.5-6.2c-2.4,0-14.4,1.4-15.8-0.3c-1.8-2.1-0.2-13.2-0.3-15.8c-0.2-9.9-0.4-19.8-0.6-29.7c3.6,0,7.1,0.1,10.7,0.1
	c-0.9-19.7-0.7-39.4-0.8-59.1c0-2.5-9.6,0.4-11.1-1c-1.5-1.4-0.2-11-0.2-13.2c3.8,0.1,7.6,0.2,11.4,0.3c0-4,0.1-8.1,0.1-12.1
	c-12.1,0-24.3,0-36.4,0.1c0-3.5-2.2-22.1,0.2-24.1c1.3-1.1,9.9,0,11.6,0c0-7.8,0-18.5,0-24.2c-5.7,0.3-51.1-0.6-61.5-0.6
	c-0.1-38.5,0-76.1,0-82.2c-8,0-16,0-24-0.1c0.1-16.7,0.3-33.3,0.4-50c-29.7,0.1-59.7,1.3-89.4-0.5c-7.4-0.5-9.7,1.6-9.5-5.9
	c0.2-10.7,0.4-21.5,0.4-32.2c-4.1,0-8.2,0.1-12.3,0.1c0.1-11.6,1.3-25.2-8.7-31.5c-2.8-1.8-8.3-8.4-10.2-11.1
	c-1.7-2.4,1.2-9.3,0.9-13.9c-0.3-4.5,0.3-25.7,5-25.9c4.8-0.2,9.6-0.4,14.4-0.6c4.3-0.2,2.4-9.2,2.4-12.2c4.3,0,13.3-0.2,15.1-0.3
	c5-0.1,2.5-18,2.6-22.7c0-3.4,16.4-1.9,19.7-2c6.6-0.1,4.9-1.3,4.9-7.6c0-20.6,0-41.3-0.1-61.9c0-8,0-16.1,0-24.1
	c0-5,0.6-6.6-4.4-6.6c-25.8,0-58.4,0-72,0c0-71.1-0.1-118.4,0-150.7c0-4.5,5.4-11.1,5.6-15.6c0.2-3.7,6-7.1,5.9-11.1
	c0-1.5-4.6-2.4-5.5-4.1c-1.6-3-0.7-6.8-0.4-10c0.3-3.5-1.3-6.8,0.1-10.2c1.6-3.6,4.6-6.2,6.2-9.8c2.9-6.5-1.5-6.8-5.4-10.4
	c-5.3-4.9-0.3-11,3.5-14.6c6-5.6,8.1-11.9,13.2-17.8c4.8-5.6,3.3-7.9-3.3-8.8c-5-0.7-6.5-9.4-1.4-10.4c7.4-1.5,8-7.1,11-13.3
	c4.2-8.3,13.2-13.5,17.9-21.8c3.6-6.4,8.8-13.3,14.7-17.5c6.5-4.5,11-5.2,18.4-8.2c5.2-2.1,14.6-7.6,20.2-3.6c2.1,1.5,0,4.1-0.4,5.7
	c-1.1,4.3,5.2,0.3,6.7,2.7c7.5,12.3,16.6-6.1,24.9-6.1c5.3,0,11.8-4,14.9,1.9c3.3,6.2,12-2.1,16.3-1.4c4.4,0.8,6.2-1.6,9.3-3.9
	c1.9-1.4,1.8,5,7.1-0.2c3.3-3.3,11.2-4.9,14.3-1.6c3.3,3.4,13-6.4,14.2-9.6c2.8-7.4,12.2-10.2,14.6-16.9c2.5-6.9,1.3-8.5,8-13.3
	c4.5-3.2,7-5.2,7.4,1.2c0.4,6.2,9.8-9.9,10.8-11.3c3.9-5,6.8-9.1,12.7-11.7c4.3-1.9,12-4,15.2-7.1c6.3-6.1,17.8,2.5,23.9-5.2
	c2.3-2.9,6,0,8.4-2.8c3.1-3.4,6.2-1.9,9.8-4c6.5-3.7,14.7-1.7,20.4-5.6c5.5-3.7,5.1-12.5,3.9-18.1c-1.8-8.9,7.4-2.5,9.1-8.8
	c1.8-6.7,1.8-8.7,9-11.8c7.1-3.1,23.4-26.2,31.4-22c12.4,6.4,9.6,17.3,9.2,27.2c-0.2,4.8,3.7,13.2,5.8,17.6
	c3.1,6.3,11.6-0.3,14.8,5.6c6.1,11.5,30.8-11,24.1,13.3c-2.5,9.2,6.1,6,11.8,6.1c6.2,0.1,10.5-1.1,16.1,2.9
	c7.3,5.2,25.7,16.2,28.3,2.3c1-5.4-2.2-12.9-3.3-18.3c-0.1-3.3,1.9-9.1,4.2-11c4.5-4,11.5,3.3,11.5,7.7c0,3.5-3.2,5-0.9,8.6
	c2,3.1,5.1,4.1,7.8,6.4c5.3,4.7,0.6,13.3,3,18.9c1.6,3.7,15.9,7,19.3,7.6c8.3,1.5,5.3,7,2.1,12.4c-3.3,5.6,0.9,8.2,5.1,11.3
	c3.1,2.2,8.3,6.8,10.3,10c3.1,5-11.6,9.6-4.6,17.4c3.3,3.7,11.2,6.1,14.1,0.5c5.1-10,6.6,7,8.5,7.5c0.7,0.2,7.8-3.8,8.2-4.5
	c2.9-4.3-7.7-12.6,0.5-15.8c3.7-1.4,10.5-17.7,13.9-20.8c5.3,3,3.8,11.1,8.4,14.8c5.9,4.9,10.9,0.9,17.1,3.7c3.6,1.7,11,4,14.5,1.6
	c4.5-3.2,10.5,10.2,12.8,12.3c2.1,1.9,6-0.1,7.3,2.3c1.1,2.1,1.1,4.7,2.4,6.7c2.2,3.5,7.1-3.7,10.6,2.8c5.2,9.8,6.7-1.5,12.4,2.6
	c2.2,1.6,11,19.7,14.8,11c2.8-6.3,7.4-4.3,9.9,1.3c2.9,6.7,7.9,11.6,11,17.8c1.4,2.9-0.3,6.7,2.2,9.2c3.5,3.3,6-0.1,9.6,1.1
	c5,1.6,8.5,10.9,8.6,15.7c0.1,4.6-1.4,12.9,4.9,14.1c1.9,0.4,9.9,4.2,10.9,5.8c2.6,4.5-1.3,10.9-3.8,14.6c-2,3,1.6,3.1,3.3,3.7
	c5.2,1.8,4.1,6.7,5,10.6c0.5,2.1,3.1,3.4,2.4,5.8c-0.8,3.1-3.5,5.5-4.2,8.9c-0.6,3.1,0.2,5.4,0.9,8.4c0.9,4-2.9,7-1.6,11.2
	c1.3,4.5-3.8,11.4-5.2,15.6c-1,3.1-0.7,6.9-2.9,9.5c-1.9,2.2-3.7,1.9-3.9,5.4c-0.5,6.8,7.6,9.6,2.5,15.7c-2.5,3-8.4,11.3-9.1,14.9
	c-1.5,7.9,10.5,5.2,12.2,9.6c1,2.6-0.8,4.3-1.9,6.3c-2,3.7,2.7,8.2,4.7,10.8c2.7,3.6,3.1,13.9,7.5,14.7c6.4,1.1,10.7-0.3,15.6,5.4
	c2.2,2.6,1.8,5.1,2.2,8.2c0.3,2.5,3.3,2.3,4.4,4.1c1.5,2.5,5.5,2.9,7.6,1c3.5-3.1,7.1,2.2,9.3,3.9c5.5,4.5,12.5,2.5,15.3,10.1
	c2.4,6.7-2.6,13.5,1.1,20.1c2.5,4.5,9.3,2.1,12.1,6.6c3.2,5.3,17.3-5.7,23.4-3.6c8.4,2.9,16.2,9.5,20.5,17.2
	c4,7.1,15.7-0.5,16.6,4.6c1.6,9.4-1.9,11.1,8.3,15.6c7.2,3.2,6.3,8.5-0.9,9.5c-8.4,1.2-8.6,7.9-11.6,14.4
	c-4.7,10.3,1.9,17.8,0.4,27.9c-0.5,3.3-11.2,15.3-2.8,18c3.1,0.9,15.7-3,16.8-2.1c2,1.6-4.9,12.8-5.2,14.7
	c-1.2,5.7,4.8,14.7,0.4,18.8c-3.9,3.6-9.7,3.3-12.1,8.5c-3.9,8.4,0.6,12.8,8.5,16.6c8.8,4.2,16.4,32.9,1.7,34.5
	c-15.6,1.7-9.9,22.7-21.2,22.9c-9.1,0.2-5.8,5.4-12.8,7.4c-8.1,2.3-12.2,4.6-14.6,13.4c-1.8,6.5-7.9,14.4-11.8,20.3
	c-2.4,3.5-0.3,7.8-1.3,11.5c-1.2,4.5-5.2,4.4-6.9,8.2c-1.6,3.4-12.8,2.8-11.3,7c2,5.6,11.1,7.3,10.9,13.9c0,2.8,0.2,3.9,1.8,6.1
	c1.9,2.6-1.8,8.5-2,11.4c-0.2,3.7,2.9,4.2,1.5,8.5c-1.3,3.9-2.8,8.3-2.4,12.5c1.5,17.4-17.8,5.5-25.2,14.4
	c-2.6,3.1,5.1,9.1-2.2,11.4c-5.1,1.6-11.8,0.8-11.8,6.2c0.1,4.5-6,9.5-3.2,13.1c4,5.2,0.5,12.1-1.9,17.5c-1.6,3.6-5.7,6.7-10,7.3
	c-10.2,1.4-12.2,1.1-17.6,10.3c-3.6,6.1-10,10.1-13.2,16.3c-3.8,7.2,2.2,15.3-1,22.7c-3.7,8.5-11.1,4.8-18.2,7.7
	c-3.6,1.5-7.1,1.1-10.7,1.9c-5.2,1.2-5.3,6.2-10.4,3.3c-1-0.6-21.5-11.1-19.3-5.9c2.5,6,1.2,8.2,0,15.5c-1,6.2-6,11.2-7.4,17.8
	c-1.6,7.4-1,16.5-5.5,23.1c-3.4,5-4.7,6.2-7,11.9c-1.7,4.3-0.6,10.1-1,15.1c-0.4,5.4,5.8,10.7,4.3,15.8c-1.2,3.9-5.6,11.7-8.1,15.1
	c-2.7,3.7,1.9,9,2,13.6c0.1,3.9-7,4.7-9.2,8.6c-1.9,3.4-10.1,6.1-13.5,8.1c-5.3,3.1-6.6-7-7.7-9.9c-0.6-1.5-13.1-6.2-14.8-6
	c-6.1,0.5-9,8.6-13.3,11.8c-6.1,4.6-9.6,6-13,13c-1.3,2.6-1.3,7.9-4.5,7.8c-18.6-0.3-37.2-0.7-55.7-1c-10-0.2-19.9,0.2-29.8,0.2
	C650.4,1119.6,637.3,1116.7,634.3,1120"/>
<text transform="matrix(1 0 0 1 440.1921 435.4202)" fill="#7BBCEB" font-family="'Verdana'" font-size="24" letter-spacing="4">TUOLUMNE RIVER</text>
<text transform="matrix(1 0 0 1 550.769 759.851)" fill="#7BBCEB" font-family="'Verdana'" font-size="24" letter-spacing="4">MERCED RIVER</text>
<text transform="matrix(1 0 0 1 351.2205 789.9243)" fill="#585858" font-family="'Verdana'" font-size="24" letter-spacing="4">YOSEMITE</text>
<text transform="matrix(1 0 0 1 395.5847 844.9635)" fill="#585858" font-family="'Verdana'" font-size="24" letter-spacing="4">VALLEY</text>
<g>
	<path fill="#FF3838" stroke="#FF3838" stroke-miterlimit="10" d="M976.3,420.7c0,7-6.7,15.4-10.1,23.1c-5.2,11.9-7.9,21.9-7.9,21.9
		s-2.7-10-7.9-21.9c-3.3-7.6-10.1-16-10.1-23.1c0-14.9,10.5-18,18-18C965.8,402.7,976.3,405.8,976.3,420.7z"/>
	<circle fill="#FFFFFF" stroke="#FF3838" stroke-miterlimit="10" cx="958.3" cy="420.7" r="9"/>
</g>
</svg>
