<?xml version="1.0" encoding="utf-8"?>
<!-- Generator: Adobe Illustrator 17.1.0, SVG Export Plug-In . SVG Version: 6.00 Build 0)  -->
<!DOCTYPE svg PUBLIC "-//W3C//DTD SVG 1.1//EN" "http://www.w3.org/Graphics/SVG/1.1/DTD/svg11.dtd">
<svg version="1.1" xmlns="http://www.w3.org/2000/svg" xmlns:xlink="http://www.w3.org/1999/xlink" x="0px" y="0px"
	 viewBox="0 0 216 144" enable-background="new 0 0 216 144" xml:space="preserve">
<g id="Photo_Icon" display="none">
	<path display="inline" fill="none" stroke="#231F20" stroke-miterlimit="10" d="M184.7,114.3c1.5-4.1-0.5-8.8-3.4-12
		c-2.9-3.3-6.7-5.6-9.9-8.6c-1.4-1.3-2.8-2.8-4.6-3.6c-2-1-4.4-1-6.6-1c-4.3,0-8.6,0-13,0c-4.7,0-9.8-0.1-13.7-2.7
		c-6.4-4.3-7.7-14.1-14.6-17.6c-6.5-3.3-14.4,0.6-21.7-0.2c3.9,1.6,8.4,1.8,12.3,0.4c-11,0.8-22.7-1.9-32.5,3.1
		c-3.4,1.7-6.2,4.3-9.4,6.4c-4.6,3.1-9.7,5.4-14.1,8.8c-4.4,3.4-8.1,8.3-8,13.9c0.1,6.2,4.8,11.4,9.9,15
		c14.2,10,32.4,12.4,49.8,13.5c23.2,1.4,47,1,68.8-7C178.5,120.9,183.1,118.6,184.7,114.3z"/>
	<path display="inline" fill="none" stroke="#231F20" stroke-miterlimit="10" d="M68,85.7c1.3-1.3,2.9-2.4,4.7-3
		c-0.4,0.7,0.3,1.6,1.1,1.8c0.8,0.1,1.6-0.2,2.3-0.5c1.5-0.6,3.2-0.9,4.8-0.9c1.3,1.1,3.3,1.2,4.7,0.3c0.1,0.3,0.2,0.6,0.3,1
		c2-1,3.9-2.1,5.8-3.2c-0.1,0.3,0.2,0.7,0.6,0.7s0.7-0.2,0.9-0.5"/>
	<path display="inline" fill="none" stroke="#231F20" stroke-miterlimit="10" d="M72,103.5c-0.4,0.1-0.3,0.7,0.1,0.9
		c0.4,0.1,0.8-0.1,1.1-0.3c2.1-1.2,4.2-2.4,6.3-3.6c-0.4,0.7,0.3,1.7,1.2,1.8c0.8,0.1,1.6-0.3,2.3-0.8s1.4-1,2.2-1.1
		c0,0.6,0,1.3,0.1,1.9c0,0.2,0.1,0.3,0.2,0.5c0.3,0.2,0.7,0,1-0.1c2.4-1.3,5.1-1.6,7.8-1.9c2-0.2,3.9-0.4,5.9-0.6"/>
	<path display="inline" fill="none" stroke="#231F20" stroke-miterlimit="10" d="M116.3,107.5c-0.1,0.9-0.1,1.9-0.1,2.8
		c0,0.3,0,0.6,0.2,0.8c0.4,0.4,1,0.2,1.5-0.1c1.8-1,3.6-2,5.4-3c-0.1,0.5,0.5,1,1,1.1c0.5,0.1,1.1-0.2,1.6-0.4
		c1.2-0.5,2.4-1.1,3.6-1.6c0.2,0.8,0.4,1.7,0.6,2.5c1.9-0.6,3.8-1.3,5.6-2.1c0.2,0.7,0.3,1.5,0.2,2.2c2.1-0.4,4.1-1.1,6-2
		c-0.3,0.5,0.1,1.2,0.6,1.5c0.5,0.3,1.2,0.2,1.7,0.1c2.5-0.3,4.9-0.8,7.3-1.5"/>
	<path display="inline" fill="none" stroke="#231F20" stroke-miterlimit="10" d="M110.4,89.5c0.1,0.8,0.2,1.6,0.2,2.3
		c0,0.3,0.1,0.7,0.5,0.8c0.2,0.1,0.5-0.1,0.7-0.2c1-0.7,1.8-1.8,2.6-2.8c1.1-1.3,2.5-2.5,4-3.4c0,0.9,0,1.9,0.8,2.3
		c0.4,0.2,0.9,0,1.3-0.1c0.8-0.2,1.6-0.5,2.4-0.7c-0.2,0.8,0.8,1.4,1.7,1.5s1.8,0,2.4,0.6"/>
	<path display="inline" fill="none" stroke="#231F20" stroke-miterlimit="10" d="M62.6,77.2c16.9-17.4,32.3-36.2,45.9-56.2
		c2,3.4,4.2,6.7,6.6,9.8c4.9,6.5,10.4,12.4,16,18.3c2.5,2.7,5,5.3,7.5,8c0.8,0.9,2.7,3.7,3.8,4c1,0.2,2.8-1.3,3.6-1.8
		c5-3.4,8.4-8.4,12.3-12.8c5.1-5.7,11.4-10.5,15-17.3c2.1,3.2,4.1,6.5,5.8,10c1.1,2.3,2.2,4.6,3.5,6.8c1.2,1.9,2.5,3.7,3.9,5.4
		c6.6,8.5,13.2,16.9,19.9,25.3"/>
	<path display="inline" fill="none" stroke="#231F20" stroke-miterlimit="10" d="M78.2,58c-3.5-4.6-7-9.1-10.5-13.7
		c-4.3-5.6-8.8-11.4-14.7-15.4c-5.7,10-11.8,19.8-18.1,29.4c-1.5,2.2-3,4.5-4.7,6.6c-6.3,7.8-15,13.6-20.4,22"/>
	<path display="inline" fill="none" stroke="#231F20" stroke-miterlimit="10" d="M45.7,47.3c1.7,1.7,3.8,3,6,3.8
		c1.5-2.2,3.5-4.1,5.8-5.4c1.1,1.9,2.4,3.6,4,5.1c0.2,0.2,0.4,0.3,0.6,0.3c0.2,0,0.4-0.1,0.5-0.2c2-1.4,3.7-3.2,5.2-5.2
		c-0.5,0.2-0.9,0.4-1.4,0.6"/>
	<path display="inline" fill="none" stroke="#231F20" stroke-miterlimit="10" d="M98.4,39c3.4,2.3,6.5,4.9,9.2,8
		c0.5-1.1,0.8-2.4,0.9-3.6c0.7,0.9,1.3,1.9,2,2.8c0.3,0.4,0.6,0.8,1,1c0.7,0.3,1.5-0.2,2.1-0.7c3-2.5,5.4-5.7,6.9-9.2
		c-0.4,0.7-0.9,1.5-1.3,2.2"/>
	<path display="inline" fill="none" stroke="#231F20" stroke-miterlimit="10" d="M158.3,47.2c0.6,0.7,1.2,1.3,1.8,2
		c1.2-2.4,3-4.5,5.1-6.1c1.3,1.6,2.6,3.2,3.9,4.8c1.6,1.9,3.2,3.9,5.4,5.1c0.2-2.7,0.8-5.3,1.9-7.8c0.6,1,1.4,1.8,2.4,2.6
		c0.6-1,1.2-1.9,1.8-2.9"/>
	<path display="inline" fill="none" stroke="#231F20" stroke-miterlimit="10" d="M143.5,63c5.9,6.6,12.5,12.4,19.7,17.5"/>
</g>
<g id="Stats_Icon">
	
		<rect x="27" y="26.8" fill="none" stroke="#585858" stroke-width="5" stroke-linecap="round" stroke-linejoin="round" stroke-miterlimit="10" width="45.2" height="27.5"/>
	
		<line fill="none" stroke="#585858" stroke-width="5" stroke-linecap="round" stroke-linejoin="round" stroke-miterlimit="10" x1="87" y1="31.7" x2="188.8" y2="31.7"/>
	<path fill="none" stroke="#585858" stroke-width="5" stroke-linecap="round" stroke-linejoin="round" stroke-miterlimit="10" d="
		M172.2,41"/>
	<path fill="none" stroke="#585858" stroke-width="5" stroke-linecap="round" stroke-linejoin="round" stroke-miterlimit="10" d="
		M87,41"/>
	
		<line fill="none" stroke="#585858" stroke-width="5" stroke-linecap="round" stroke-linejoin="round" stroke-miterlimit="10" x1="87" y1="49.2" x2="143.8" y2="49.2"/>
	
		<line fill="none" stroke="#585858" stroke-width="5" stroke-linecap="round" stroke-linejoin="round" stroke-miterlimit="10" x1="27" y1="117" x2="189.3" y2="117"/>
	
		<rect x="36" y="81.2" fill="none" stroke="#585858" stroke-width="5" stroke-linecap="round" stroke-linejoin="round" stroke-miterlimit="10" width="18" height="26.8"/>
	
		<rect x="78" y="68.3" fill="none" stroke="#585858" stroke-width="5" stroke-linecap="round" stroke-linejoin="round" stroke-miterlimit="10" width="18.2" height="39.7"/>
	
		<rect x="120" y="90.2" fill="none" stroke="#585858" stroke-width="5" stroke-linecap="round" stroke-linejoin="round" stroke-miterlimit="10" width="18" height="17.8"/>
	
		<rect x="161.8" y="54" fill="none" stroke="#585858" stroke-width="5" stroke-linecap="round" stroke-linejoin="round" stroke-miterlimit="10" width="18" height="54"/>
</g>
</svg>
