<?xml version="1.0" encoding="utf-8"?>
<!-- Generator: Adobe Illustrator 17.1.0, SVG Export Plug-In . SVG Version: 6.00 Build 0)  -->
<!DOCTYPE svg PUBLIC "-//W3C//DTD SVG 1.1//EN" "http://www.w3.org/Graphics/SVG/1.1/DTD/svg11.dtd">
<svg version="1.1" id="Layer_1" xmlns="http://www.w3.org/2000/svg" xmlns:xlink="http://www.w3.org/1999/xlink" x="0px" y="0px"
	 viewBox="0 0 360 360" enable-background="new 0 0 360 360" xml:space="preserve">
<path fill="none" stroke="#E1E1E1" stroke-miterlimit="10" d="M273.6,369.4c0.8-4,1.9-7.7,2.8-12c0.5-2.2,2.7-3.7,2.9-5.9
	c0.1-1,0.1-2.1,0.3-3.1c0.4-1.9,1.6-3.5,2.6-5.1c2-3.4-0.3-9.5,3.2-11.2c1-0.4,2-0.2,2.6-1c3.5-4.5,5.1-10.4,4.4-16
	c-0.2-1.5-0.5-3-0.3-4.4c0.3-1.9,1.4-3.9,0.6-5.6c-0.4-0.8-1.2-1.5-1.2-2.4c0-0.7,0.5-1.2,0.8-1.8c0.5-1,0.6-2.3,0.1-3.4
	c-0.3-0.6-0.8-1.2-0.9-1.9c-0.1-0.7,0.2-1.3,0.5-1.9c2.4-5.4,4.9-10.8,7.3-16.2c3.3-7.2,6.6-14.5,8.5-22.2c1.1-4.2,1.7-8.5,3.6-12.4
	c0.8-1.7,1.9-3.4,2.5-5.2c0.8-2.4,0.8-5,1.2-7.6c0.4-2.5,2.8-7.9,4.3-10.6c1.6-2.9,2.4-6.7,3.7-9.7c3.7-8.5,7.3-17,10.9-25.6
	c0.7-1.6,1.3-3.2,1.9-4.8c2.1-5.7,3.3-11.7,5.1-17.5c2.8-8.9,6.9-17.3,11-25.7c2.2-4.5,4.4-8.9,6.6-13.4c2.8-5.8,5.7-11.6,8.5-17.4
	c0.8-1.6,1.6-3.3,2.4-4.9"/>
<path fill="none" stroke="#E1E1E1" stroke-miterlimit="10" d="M284.6,370.4c0.2-1.7,0.6-3.4,1-5.1c0.3-1.4,0.6-2.8,0.9-4.2
	c0.7-3.1,1.4-6.3,2.5-9.3c0.5-1.3,1.1-2.5,1.6-3.7c4.1-9.1,7.2-18.8,9.1-28.6c0.9-4.7,1.6-9.5,2.3-14.2c0.4-2.9,0.8-5.8,1.2-8.7
	c1.4-9.8,2.8-19.9,7-28.9c1.6-3.5,3.7-6.8,5.5-10.2c2.1-4,3.8-8.1,5.4-12.3c2.8-6.9,5.6-13.8,8.4-20.7c4.1-10.1,9.2-20.9,15-30.2
	c0.9-1.4,1.8-2.9,2.6-4.4c5.5-10.8,3.4-24.2,9-35c0.7-1.4,1.5-2.7,2.1-4.2c0.5-1.5,0.7-3,1.1-4.5c0.7-2.8,2-5.4,3.3-7.9
	c2.2-4.4,4.4-8.9,6.7-13.3"/>
<path fill="none" stroke="#E1E1E1" stroke-miterlimit="10" d="M353.6,370.3c0.1-3,0.8-5.9,3.4-7.7c1.1-0.8,1.7-2.2,1.9-3.6
	c0.2-1.5-0.6-2.9-0.8-4.3c-0.3-2.4,1-4.8,2.4-6.8c2.9-4.5,6-8.9,8.7-13.5"/>
<path fill="none" stroke="#E1E1E1" stroke-miterlimit="10" d="M304.2,371c2-8.8,7.7-16.9,8.3-26c0.6-9.2-1.2-18.5-0.2-27.6
	c0.8-7.3,3.4-14.4,3.5-21.8c0.1-3.9-0.6-7.8-0.1-11.7c0.5-4.1,2.3-8,4.1-11.8c7.9-16.8,16.1-34,29.5-46.8c5.7-5.5,6.9-14.3,9.5-21.8
	c5-14.4,6.6-29.8,11-44.4"/>
<path fill="none" stroke="#E1E1E1" stroke-miterlimit="10" d="M238.8,371c-0.1-5-0.2-10-1.3-14.8c-0.3-1.4-0.7-2.9-0.3-4.2
	c0.3-1.1,1.1-2,1.3-3.2c0.2-1.5-0.7-2.8-1-4.3c-0.5-2.3,0.5-4.6,1.1-6.9c0.6-2.3,1-6.2-1.4-6.5c-6.5-0.8-12.2,4.9-18.3,7.4
	c-4.6,1.9-9.3,3.8-13.4,6.6c-2.6,1.8-6.5,2.4-10,3.6c-6.7,2.4-11.5,8.9-17.3,13.1c-2.6,1.8-5.2,3.6-7.8,5.3
	c-2.1,1.4-4.2,2.8-6.3,4.2"/>
<path fill="none" stroke="#E1E1E1" stroke-miterlimit="10" d="M193.7,368c5.5-5,12.7-8.3,19.7-9.1c1.8-0.2,3.7-0.3,5.2,0.7
	c1.3,0.9,2,2.4,2.6,3.9c0.9,2.3,1.5,4.7,2,7.1"/>
<path fill="none" stroke="#E1E1E1" stroke-miterlimit="10" d="M219.5-11.2c5,10.6,10.1,21.2,15.1,31.8c2.3,4.9,5,14.5,9.3,17.7
	c7.2,5.3,7.6,8.5,11.2,8c2.4-0.3,5.1-12.8,9.2-20.3c6.8-12.3,9.1-23.3,11.4-39"/>
<path fill="none" stroke="#E1E1E1" stroke-miterlimit="10" d="M197.2-12c0.7,1.9,1.2,3.8,1.5,5.8c0.4,3.5,0,7.3,1.4,10.5
	c2.5,5.8,9.6,7.8,14.1,12.2c6.6,6.5,6.7,16.9,9.5,25.8c3.2,10.2,7.1,23.1,17.1,27c5.1,2,8.3,5.9,13.6,7.2c3.5,0.8,5.8-4.3,9.3-4.9
	c3.5-0.6,5.3,3.6,8.8,4.3c3.2,0.6,7-2.9,10-9.4c1.2-2.5-0.4-5.5,0.9-7.9c1.3-2.4,3-4.7,3.5-7.4c0.5-2.8-0.4-5.8,0.4-8.6
	c0.2-0.7,0.5-1.4,0.4-2.1c-0.1-0.8-0.5-1.4-0.8-2.1c-1.8-3.9-0.3-8.5-1.6-12.6c-0.4-1.3-1.1-2.5-1.3-3.8c-0.2-1.1,0.1-2.3,0.3-3.4
	c0.4-2.1,0.8-4.3,1.2-6.4c0.6-3.3,4.4-5.1,4.9-8.4c0.5-3.5-2.8-6.3-2.5-9.9c0.2-2.8,0.5-5.6,0.7-8.5"/>
<path fill="none" stroke="#E1E1E1" stroke-miterlimit="10" d="M134.2-12.5c-0.1,2.4-1,4.7-2.7,6.3c-0.9,0.9-2.1,1.5-3,2.4
	c-1.4,1.3-2.4,3.1-3.5,4.7c-3.1,4.4-8,8.4-7.6,13.8c0.4,6.8,2.5,13.2,7.3,18.1c2.2,2.2,4.8,4.1,7.3,5.9c2.8,2,5.7,4.1,8.5,6.1
	c4,2.9,8.3,6.1,10,10.8c0.3,0.9,0.6,1.9,1.3,2.7c1.1,1.2,2.9,1.3,4.4,0.8c1.5-0.4,2.8-1.3,4.3-1.9c3-1.3,6.5-1.3,9.6-2.2
	c5.1-1.4,9.4-4.8,13.2-8.3c1-1,2.1-2,3.4-2.6c2.3-1,5.1-0.3,6.7,1.5c2.6,2.9,1.8,7.3,0.8,11.1c-1.6,6.3-3.3,12.7-6.6,18.3
	c-1.5,2.6-3.5,5.1-4.2,8c-0.4,1.8-0.4,3.7-0.5,5.6c-0.3,4.3-4.3,7.3-6.7,10c-4.9,5.6-9.9,11.3-13,18.1c-1.7,3.7-1.6,7.9-3.2,11.6
	c-0.7,1.6-1.8,3.1-2.3,4.8c-0.5,1.6-0.5,3.3-0.6,4.9c-0.3,6.3-1.4,12.7-4.6,18.2c-0.9,1.6-2,3-2.9,4.6c-2.3,3.9-3.4,8.4-4.5,12.7
	c-2.3,9-4.6,18.2-3.7,27.4c0.5,4.8,1.8,9.4,1.9,14.2c0.1,2.8-0.2,5.7,0.3,8.4c0.9,4.6,4.1,8.4,7.1,12c1,1.1,2,2.3,3.3,2.9
	c1.5,0.7,3.2,0.7,4.9,1c5.4,0.9,8.4,9.6,13.8,8.6c4.8-0.9,5.9-7.6,9.6-10.7c1.4-1.2,2.9-2.4,4.3-3.6c2.6-2.2,8.9-6.9,9.2-3.5
	c2.4,23.1-9.3,36.2-16.9,44.1c-3.2,3.3,2.2,6.8,0.9,14.1c-0.3,1.8,2.7,2.3,3.4,4c0.7,1.7,1.1,3.4,1.7,5.1c0.1,0.3,0.2,0.5,0.4,0.7
	c0.2,0.2,0.6,0.3,0.9,0.4c2,0.7,0.4,4.6,2.4,5.6c1.8,0.9,4-2,5.8-1c0.4,0.2,0.9,1.1,1.3,1.2c2.7,1.3,5.7,0.8,8.5,1.9
	c2.7,1.1,6,1.8,8.5,0.2c1.8-1.1,2.7-3.2,4.4-4.4c1.8-1.2,4.2-1.4,5.7-2.9c2.1-2.1,1.4-5.5,1-8.5c-0.8-5.9,0-11.9,2.3-17.4
	c0.4-0.9,0.8-1.7,1.4-2.4c1.2-1.4,3-2,4.8-2.5c5.5-1.4,11.8-1.7,16.2,1.9c0.6,0.5,1.2,1.1,2,1.1c1.4,0.1,2.3-1.3,2.9-2.6
	c0.7-1.2,2.1-1.3,3.2-2.1c2.3-1.8,2.4-5.1,4.7-6.9c8.2-6.1,15.8-13,22.7-20.5c1.4-1.5,1.9-4,3.8-4.8c1.1-0.5,1.9-2,2-3.2
	c0.1-1.2-0.4-2.4-0.3-3.6c0.2-2.5,2.5-4.3,3.6-6.6c0.9-1.9,0.9-4,1.4-6.1c0.8-3.3,2.8-6.2,4.7-8.9c2.7-3.9,5.4-7.7,8.8-11
	c1.5-1.5,3.2-2.9,4.5-4.6c5.4-6.9,4.4-18.2,11.8-23c0.5-0.3,1-0.6,1.4-1c0.5-0.6,0.6-1.4,0.7-2.2c1-7.2,2-14.5,3.1-21.7
	c0.9-6.7,2-13.6,6-19c4.9-6.5,13.2-9.4,19.5-14.5c7.3-6,11.7-14.8,15.8-23.3"/>
<path fill="none" stroke="#E1E1E1" stroke-miterlimit="10" d="M144.3-11.7c0,0.6-0.1,1.2-0.2,1.8c-0.6,3.8-3.3,7.2-6.9,8.6
	c-0.6,0.2-1.2,0.4-1.6,0.9c-0.5,0.6-0.6,1.4-0.9,2.1c-0.9,1.9-3.7,2.3-4.5,4.2c-0.3,0.8-0.3,1.7-0.6,2.5c-0.7,1.6-2.8,2.4-3.4,4.1
	c-0.6,1.9,1.1,3.6,1.7,5.5c0.5,1.7,0.1,3.6,0.7,5.3c1.1,3.1,4.9,4.1,8.1,4.6c0.4,0.1,0.9,0.1,1.3,0c0.8-0.2,1.1-1.1,1.4-1.8
	c1.9-4.3,5.6-7.9,9.9-9.8c0.8-0.3,1.6-0.6,2.4-0.6c1.4,0.1,2.6,1.2,3.3,2.5c1.5,2.5,1.8,5.7,0.8,8.4c-0.6,1.5-1.5,2.8-2.5,4.1
	c-1.2,1.7-2.6,3.5-4.5,4.2c-0.3,0.1-0.6,0.2-0.9,0.4c-1.1,0.8-0.3,2.5,0.6,3.6c1.7,2.2,2.7,5.4,5.2,6.5c2.4,1,4.6-2.2,6.9-3.7
	c3.1-2,7.2-2.3,10.6-0.8c2.4,1,4.5,2.9,7.1,3.3c3.1,0.4,6.1-1.6,9.1-2.4c5-1.2,10.6,1.2,13.2,5.6c1.1,1.9,1.7,4.1,1.9,6.4
	c0.9,7.5-1.4,14.9-3.7,22c-0.9,2.8-1.8,5.6-3.8,7.7c-0.9,1-2.1,1.7-2.7,2.9c-0.3,0.5-0.4,1-0.6,1.5c-1.3,4.3-1.9,8.9-4.4,12.7
	c-3.5,5.2-6.5,10.5-10.5,15.4c-1.2,1.5-2.6,3.1-2.9,5c-0.2,0.9-0.1,1.8-0.2,2.7c-0.2,2.2-1.4,4.1-2.3,6.1c-3,7-2.3,14.9-2.2,22.6
	c0,1.3,0,2.6-0.2,3.9c-0.6,4.6-3.2,8.6-5.8,12.5c-0.6,1-1.3,2-2.1,2.8c-0.7,0.7-1.4,1.3-2,2c-0.9,1.1-1.4,2.4-1.9,3.6
	c-1.2,3.2-2.5,6.5-2.2,9.9c0.2,1.8,0.7,3.5,1,5.3c0.6,3.2,0.3,6.6-0.9,9.7c-0.4,0.9-0.8,1.9-0.8,2.9c0,1.2,0.7,2.2,1.1,3.3
	c0.9,2.4-3.6,6-3.3,8.6c0.6,4.7,6.4,10,11,11.3c2.8,0.8,6.4-0.2,8.5-2.2c4.9-4.7,5.4-12.5,9.1-18.2c2.2-3.4,6.6-3.7,9.4-6.6
	c2.5-2.5,0.6-7.3,3.2-9.8c0.6-0.5,1.2-1,1.6-1.6c0.5-0.7,0.7-1.5,1-2.2c3.6-9.8,18.8-9.1,23.4-18.5c1.8-3.7-4.1-8.9-1.4-12
	c4.2-4.6,13.3-1.8,18.4,1.6c3.1,2.1,5.7,5.3,5.9,9c0.2,3.2-1.3,6.2-2.2,9.3c-0.9,3.4-1.1,6.9-1.6,10.3c-0.7,5.3-2.1,10.5-3.6,15.7
	c-1.7,5.8-6.7,9.3-10.1,14.2c-0.7,1.1,0.4,3.9,0.2,5.2c-0.9,6.6-3.1,12.9-3.1,19.5c0,6-0.8,11.8-1.5,17.7c-0.1,1.1,1.4,1.6,2.5,1.6
	c1.1,0,2-0.5,3-0.9c7.7-2.8,17.2,4.4,24.3,0.4c2.8-1.5,1.6-6.1,3-9c1.6-3.2,5.4-4.5,8.4-6.5c6.8-4.3,10.4-12,15.5-18.3
	c1-1.2,2.6,1.4,4-1.4c4.6-9.6,2.4-21.5,7.4-31c1.4-2.7,3.1-5.3,5.7-6.8c2.4-1.4,5.2-1.6,7.6-2.9c2.1-1.1,3.7-2.8,5.3-4.5
	c0.6-0.6,1.2-1.3,1.6-2.1c0.6-1.3,0.4-2.7,0.8-4c0.4-1.4,1.2-2.6,2-3.8c1.6-2.4,3.2-4.9,3.5-7.7c0.5-4.2-1.5-8.3-1.8-12.5
	c-0.2-3.8,1.1-7.5,2.3-11.1c3.8-10.9,8-22.2,16.6-30c7.5-6.7,17.9-10.2,23.7-18.5c1.3-1.8,1.8-4.5,2.4-6.6c0.2-0.8,0.4-1.6,0.2-2.4
	c-0.2-1-0.8-1.7-1.3-2.6c-2.7-4.4-2.4-9.9-1.9-15c0.3-3.5,0.8-6.9,1.5-10.3c0.6-2.6,1.3-5.1,1.5-7.8c0.3-2.7,0-5.5-0.1-8.2
	c-0.1-5.7,0.9-11.4,1.7-17.1c1.6-11.8,2.4-23.7,2.4-35.6"/>
<path fill="none" stroke="#E1E1E1" stroke-miterlimit="10" d="M151.8-12c-0.7,5.3-1.5,10.6,0.9,15c4.1,7.5,12.9,11.9,13.8,20.3
	c0.2,2.1,0.3,4.4,1.9,5.7c0.8,0.7,1.7,1.1,2.7,1.2c12.1,1.4,17.6,7.7,23.2,8.3c1.5,0.2,2,0.7,3.4,1.3c0.8,0.3,0.7,1.6,1.5,1.8
	c4.1,1.3,9.5,13.2,10.2,16.2c0.2,0.7,0.9,1.2,1.2,1.9c0.6,1.2,0.5,2.7,0.7,4c0.3,1.7,1.2,3.3,1.3,5.1c0.1,1.6-0.2,5.4-0.7,6.9
	c-3.1,8.2-6.9,13.9-10.9,21.6c-2.9,5.7-4.8,11.6-8.5,16.8c-0.8,1.1-2.1,1.6-3.3,2.5c-2.3,1.6-1.6,5.3-1.3,8.1c0.1,1.5,0.5,3,0.2,4.5
	c-0.2,0.9-0.6,1.8-0.6,2.7c0,1,0.4,2,0.6,3c0.7,2.5-2.8,6.2-0.7,7.6c2.9,1.9,4.8,2.5,6,6.7c0.2,0.6,2.7,0.3,3.3,0.3
	c5.2-0.8,7.7,3.9,11.9,2c1.9-0.8,3.4-0.8,5-2c1.4-1.1,1.5-3.1,3.3-3.3c1.7-0.2,3.5,0.3,5.2,0c1.4-0.3,2.6-1,3.9-1.6
	c2.4-1.1,5-1.7,7.6-1.6c1.8,0,3.8,0.3,5.4-0.7c0.7-0.4,1.2-1.1,1.7-1.7c1.6-1.8,3.4-3.3,5.2-4.8c1.5-1.3,3.1-2.6,4.6-3.9
	c0.8-0.7,1.6-1.3,2.4-2c2.1-1.7,3.8-4,6.2-5.2c2-1.1,4.2,0.9,6.5,1.2c0.4,0.1,0.8-0.2,1.2-0.4c1.3-0.9,3.2-1.2,4.8-0.8
	c1.5,0.4,3.1,1.1,4.6,0.9c1.3-0.1,2.4-0.8,3.6-1.3c3.8-1.6,8.5-0.8,11.6,1.9c0.9,0.8,1.9,1.7,3,1.6c0.8-0.1,1.3-0.7,1.9-1.2
	c1.9-1.7,4.4-2.8,6.9-3.1c0.8-0.1,1.6-0.1,2.2-0.6c0.9-0.6,1.2-1.9,1.6-2.9c1.3-3.4,4.8-5.5,6.5-8.7c0.6-1.2,0.9-2.4,1.3-3.7
	c1.5-5.8,3.1-12.5,8.5-15.2c3-1.5,6.6-1.4,9.9-2.2c5.5-1.4,10.1-5.7,11.8-11.1c1.9-5.9-4.5-12-4.7-18.2c-0.1-5.7,2.9-11,4.1-16.7
	c0.8-3.8,0.8-7.8,1.9-11.5c1.8-6.1,6.5-11.4,6.9-17.8c0.1-1.3,0-2.6-0.2-3.9c-0.4-3.3-1-6.5-1.7-9.7c-1.2-5.8-2.4-11.7-3.6-17.5"/>
<path fill="none" stroke="#E1E1E1" stroke-miterlimit="10" d="M176.4-12.1c-0.5,1.3-1.1,2.6-2.2,3.4c-1,0.9-2.3,1.4-3.4,2.2
	c-1.7,1.1-3,2.7-4.4,4.2c-0.6,0.7-2.2,1.3-1.9,2.2c0.3,1,1.6,1.3,2.4,1.9c0.8,0.6,1.9-0.7,2.9-1.1c2-0.8,4.3,1.2,4.6,3.4
	s-3.9,4.3-2.5,5.9c0.8,0.9,1.9,1,1.7,2.1s-1,2.3-0.5,3.4c0.7,1.3,2.6,1,4,0.5c2.5-0.8,5.2-1.4,7.8-0.9c2.6,0.5,5.1,2.3,5.6,4.9
	c0.2,1,0.1,2.1,0.7,2.9c0.4,0.5,1,0.8,1.5,1.1c2.2,1.1,4.3,2.2,6.5,3.3c2.1,1.1,4.2,2.1,6,3.6c5.6,4.6,7.5,12.2,9.8,19.1
	c1.8,5.5,4.2,11,8.1,15.2c0.7,0.7,1.4,1.4,2,2.2c3.1,4,2.7,9.7,2.1,14.8c-0.4,3-0.7,6.1-1.1,9.1c-0.4,3.3-1.3,6.6-3.4,9.3
	c-0.6,0.8-1.4,1.6-1.3,2.6c0.2,3-0.3,5.7-0.6,8.7c-0.4,4.4-0.2,8.5-0.1,12.8c0,1.3,2.3,0.8,3.1-0.1c0.8-1,1-2.3,1.8-3.3
	c1.4-2,4.8-2.1,6.4-0.3c0.7,0.8,1.2,2,2.3,2.4c0.6,0.2,1.2,0,1.8-0.1c6.6-1.9,12.7-6.3,19.6-6.3c2.2,0,4.4,0.5,6.6,0.3
	c1.6-0.1,3.2-0.7,4.8-1.1c10.2-3.1,22.2,0.1,31.6-4.8c6.9-3.6,7.2-16.9,1.3-22c-3.8-3.3-6.6-8.4-3.6-12.4c0.5-0.6,1-1.2,1.5-1.9
	c0.4-0.7,0.7-1.5,0.9-2.4c2.7-8.7,6.1-17.2,10.3-25.3c4.4-8.4,9.6-16.6,16.9-22.7c3.2-2.8,6.9-5.3,8.7-9.1
	c2.8-6.3-0.7-13.5-1.4-20.3c-0.4-3.9,0.1-7.9,1.6-11.5"/>
<path fill="none" stroke="#E1E1E1" stroke-miterlimit="10" d="M100-12.1c2.1,6,4.8,11.8,6,18c1.8,8.7-3.2,18.2-0.1,26.4
	c0.4,1.1,1.4,2.1,2.3,2.9c1.5,1.4,3.2,2.9,3.7,5c0.3,1,0.3,2.1,0.7,3c1,2.5,4,3.6,5.2,6.1c0.5,1,0.6,2.2,1,3.2
	c1.3,3.6,5.5,5,9.2,6.1c2.9,0.8,5.8,1.6,8.7,2.4c1.1,0.3,2.2,0.6,3.2,1.2c3.3,1.9,4.3,6.8,2.1,9.9c-0.6,0.8-1.4,1.5-1.6,2.4
	c-0.4,1.6,0.9,3.2,2.4,3.8c2.1,0.9,4.6,0.6,6.7-0.3s3.9-2.4,5.7-3.8c5.1-4.2,10.3-8.4,15.4-12.6c1.7-1.4,3.4-2.8,4.9-4.5
	c1.9-2.2,3.6-4.9,6.2-6.1c1.6-0.7,3.5-0.8,4.6-2.1c1.3-1.3,1.7-3.8,3.6-3.9c1.3-0.1,2.3,1.3,2.6,2.6c0.4,2.4-0.9,4.8-2.1,6.9
	c-1,1.8-2,3.5-3,5.3c-1.6,2.9-3.3,5.8-5.9,7.9c-2.1,1.7-4.9,3.1-5.2,5.8c-0.1,1,0.2,2.1-0.4,2.9c-0.4,0.6-1.2,0.9-1.5,1.6
	c-0.2,0.5,0,1.1,0.1,1.7c1.2,4.7-0.5,10-4.3,13c-1.9,1.5-2.9,3.4-4.2,5.3c-0.7,1-1.7,3.4-2.6,4.2c-3.7,3.1-8,5.6-9.7,10.1
	c-1.9,5.2-1.3,11.2-4,15.9c-0.7,1.3-1.7,2.4-2.1,3.8c-0.5,1.7-0.2,3.5-0.1,5.2c0.3,6.1-2.6,11.8-5.2,17.3
	c-6.4,13.3-11.8,27.4-13.6,42.1c-0.1,1.3-0.3,2.6,0,3.8c0.2,1,0.7,2,1.1,2.9c4.4,9.9,5.3,21.2,2.7,31.7c-0.2,0.8-0.4,1.7-0.3,2.5
	c0.2,1.2,1,2.1,1.6,3.1c1.1,1.9-0.7,5.1,1.1,6.5c2.8,2.3,7.3,0.3,9.6,3.1c2.3,2.8,1.1,9.1,4.4,10.5c1.8,0.7,3.5-2,5.5-1.8
	c2.7,0.4,4.4,3,5.5,5.5c1.7,3.9,2.9,8.1,3.4,12.4c0.2,1.9,0.5,4.1,2.2,5.1c0.7,0.4,1.5,0.5,2.2,0.8c2.5,1.1,2.8,4.4,3.6,7
	c1.6,5.6,6.2,10.2,6.6,16c0.1,1.1,0,2.2,0.6,3.1c0.4,0.7,1.2,1.1,1.8,1.6c1.6,1.3,2.2,2.2,2.6,4.3c0.1,0.4,0.8,1.9,1.1,2.1
	c0.3,0.2,1.9-0.4,2.1-0.8c0.5-1.5,1.5-1.4,2.8-2.2c0.9-0.5,1.8-1.1,2.8-1.1c1,0,1.5,1.2,2.3,1.9c6,5.8,21.3,0.8,28.5-5.5
	c2-1.7,3.6-4,6-5.1c1.7-0.8,3.8-1.2,4.8-2.8c1.1-1.8,0.1-4.2-0.5-6.2c-1.7-5.3-0.9-11.4,2.2-16c0.3-0.5,0.8-1,1.4-1.2
	c0.8-0.1,1.5,0.4,2,1c2.4,2.4,3.2,6.1,5.6,8.5c1.4,1.4,3.6-1.1,5.3-2.1c3.2-1.9,7.3-1.3,10.9-2.2c5.5-1.3,9.5-5.9,13.1-10.2
	c3.6-4.3,7.2-8.6,10.8-13c3-3.7,6.1-7.3,8.4-11.5c3.8-6.9,5.5-15.1,11-20.8c0.8-0.8,2.1-1.8,2.8-1.1c1.6,1.7-1.5,4.1-2.7,6.2
	c-1.6,2.7-1.1,6.2-0.9,9.3c0.5,8.1-1.6,16.3-5.9,23.1c-0.8,1.3-1.8,2.6-2.3,4.1c-0.4,1.2-0.5,2.6-0.9,3.8
	c-1.7,6.3-8.6,9.7-12.1,15.1c-3.1,4.8-3.3,11.2-0.7,16.2c1.2,2.2,2.8,4.1,3.4,6.5c0.9,3.6-0.8,7.3-2.8,10.4c-2.1,3.1-4.6,6-5.6,9.5
	c-0.5,1.8-0.6,3.6-0.8,5.5c-0.9,7.2-4.1,14.4-10.1,18.6c-0.4,0.3-0.9,0.6-1,1.1c-0.1,0.5,0.1,1,0.3,1.4c1.6,4-2.6,8-1.9,12.3"/>
<path fill="none" stroke="#E1E1E1" stroke-miterlimit="10" d="M81.5-11.3c1.3,7.6,1.8,15.4,2.2,23.1c0.2,3.4,0.4,6.7,0.2,10.1
	c-0.2,3.2-0.9,6.4-0.6,9.6c0.3,2.8,1.4,5.5,2.5,8.1c2,5,4.1,9.9,7.1,14.4c2.3,3.4,2.6,7.8,5.2,11.1c2.1,2.7,7.4,2,7.9,5.3
	c0.5,3.4-3,5.9-6,7.5c-1.4,0.8-2.8,1.5-4.3,2.3c-0.9,0.5-1.9,1.1-2,2.1c-0.2,1.2,1.1,2.2,1.5,3.3c0.9,2.1-0.8,4.3-1.4,6.5
	c-0.5,2.1-1.1,8.7,0.9,9.5c1.6,0.7,3.8-0.2,5.6-0.1c0.7,0,1.4,0.1,2.1,0c1.3-0.1,2.6-0.5,3.9-0.9c3.2-1,6.5-2,9.7-3
	c0.4-0.1,0.7-0.5,1.1-0.7c2.5-2,9.7-0.3,12.8-1.2c3.1-0.9,6.3-2,9.1-3.5c2.4-1.3,4.8-2.6,7.3-3.6c2.8-1.2,5.8-2.1,8.5-3.5
	s5.3-3.3,6.8-5.9c2.2-3.9,2.2-9.3,5.9-11.8c1.3-0.9,3-1.2,4.3-2.2c1.4-1.1,2.8-4.3,4.2-3.3c1.9,1.4,0.5,5.3-1.5,6.4
	c-0.4,0.2-1,0.4-1.3,0.8c-0.3,0.3-0.3,0.8-0.5,1.2c-0.9,2.1-4.4,2.1-5.2,4.2c-0.5,1.2,0,2.7-0.5,3.8c-0.2,0.4-0.6,0.8-0.6,1.3
	c-0.1,0.5,0.3,1,0.5,1.5c0.7,1.2,1.6,2.9,0.7,4c-1.4,1.9-4.2,2-6.3,3c-0.2,0.1-0.5,0.2-0.6,0.4c-0.2,0.3-0.2,0.7-0.2,1.1
	c-0.1,1.5-1.4,2.6-2.5,3.6c-1.9,1.5-2.3,6-4.2,7.4c-2.5,2-3,5.9-3.6,9c-0.4,1.8-0.5,3.8-1.5,5.4s-3,1-4.8,1.7
	c-1.4,0.5-2.6,2.3-2.2,3.7c0.4,1.8,3.1,2.3,3.2,4.2c0.1,1.9-1,3.8-2.7,4.6c-1.3,0.6-3.4,1.5-2.7,2.8c0.2,0.4,0.7,0.6,0.9,1.1
	c0.2,0.3,0.2,0.7,0.2,1.1c-0.3,6.1-2.9,11.7-5.6,17.1c-7.5,15-15.9,30.2-16.3,46.9c0,1.6,0,3.3,0.5,4.9c0.4,1.1,0.9,2.1,1.4,3.1
	c2.5,5.6,2.1,12.1,1.1,18.2c-1.2,7.2-3.1,14.3-5.6,21.1c-0.3,0.7-0.6,1.5-0.4,2.2c0.4,1.4,2.1,1.9,3.4,2.3c3.5,1.3,6,4.3,7.5,7.7
	c1.5,3.4-0.8,9.4,2.6,10.7c2.4,0.9,5.4-3.2,7.4-1.6c2.2,1.8,2.1,5.2,3.2,7.9c1.3,3.3,1.1,7.2,2.7,10.4c0.6,1.3,2.8,0.3,4-0.5
	s2-2.1,3.3-2.8c1.3-0.7,3.2-0.6,3.8,0.7c0.3,0.6,0.2,1.4,0.3,2.1c0.2,2,1.8,3.5,3.1,4.9c3.6,3.9,6.2,8.7,7.6,13.8
	c1.2,4.3,1.5,8.9,0.2,13.1c-1.3,4.2-5.9,7.4-10,8.9c-4.1,1.6-7.2,0.9-10-2.5c-0.4-0.5-1.4-0.8-2.1-1c-0.4-0.1-0.8,0.1-1.2,0.1
	c-4-0.1-8.1,1-10.5,5c-0.6,0.9-1.2,2-0.7,3c0.3,0.5,0.8,0.9,1.1,1.4c0.5,0.9-1,1.6-0.8,2.7c0.2,0.9,1.9,0.1,2.7,0.5
	c0.8,0.5,1.3,1.6,0.8,2.4c-0.4,0.6-1.2,0.8-1.9,1.1c-0.7,0.3-1.6,1.2-1,1.7c3.6,2.9,9.1,1.7,13.8,1.5c5.6-0.1,11.4-1.2,16.9,0.2
	c3.3,0.9,6.7,3.2,7.2,6.6c0.1,0.8,0.1,1.8,0.7,2.4c0.7,0.6,1.7,0.3,2.4-0.2c0.7-0.5,1-1.3,1.5-2.1c2.5-4.1,8.4-3.3,12.1-6.3
	c1.6-1.3-1.1-4-1.1-6c0-3,3-5,5.5-6.6c1.4-0.9,3.9-3.2,5.3-4c12.2-6.8,15.9,0,23.8-2.4c8.2-2.5,12.6-9.6,20-14c3.8-2.3,7.9-2.5,12-3
	c2-0.2,3,0.3,5,0c3.1-0.5,5-2,8-2c2,0,5-1,7,0c4,2,2.2,8.1,0,11c-4.7,6.3-3.2,14.5-8,20c-5,5.7-19.5-3-19,7c0.3,7,4,13,7,19
	c1.4,2.8,1.6,6.1,2.1,9.2"/>
<path fill="none" stroke="#E1E1E1" stroke-miterlimit="10" d="M9.4-11.3c-0.2,0.9-0.2,1.9,0,2.9c0.9,6,4.2,12,2.3,17.8
	c-1.2,3.7-4.5,6.5-6,10.1c-1.4,3.5-1,7.7,1.1,10.9c1.7,2.5,2.8,5,2.5,7.9c-0.3,2.5-0.5,5.1,1.2,7c3.7,4.2,11.3,0.1,16.9,0.8
	c1.2,0.2,2.4,0.3,3.5,0.7c1.8,0.6,3.4,1.8,5.2,2.3c1.8,0.5,4.1,0.2,5.1-1.5c0.4-0.7,0.5-1.5,0.8-2.2c1-2.8,4.2-4,6.8-5.5
	c6.2-3.5,10.5-10,17.2-12.4c0.8-0.3,1.7-0.5,2.5-0.2c0.6,0.3,1,0.8,1.4,1.4c2.8,4.3,4,9.4,5.6,14.3c1.8,5.4,4.3,10.6,6,16
	s2.7,11.3,1.6,16.9c-0.9,4.3-2.9,8.3-4,12.5c-0.6,2.4-0.9,4.8-0.8,7.2c0,1.4-0.7,2-1.5,3.5c-0.6,1.2-2.8,1.6-2.9,3
	c-0.4,4.7,6.2,7.2,10,9.9c3.2,2.2,6.7,3.9,10.5,4.4c6.4,0.7,12.6-2.2,18.4-5c9.9-4.8,19.8-9.6,30.1-13.7c0.9-0.4,2.2-0.6,2.7,0.2
	c0.3,0.5,0.2,1,0,1.5c-0.8,3.3-2.6,6.4-5,8.7c-1.1,1.1-2.5,2.2-2.8,3.7c-0.2,1.3,0.3,2.7-0.3,3.8c-1.1,2.2-5.1,1.7-5.8,4
	c-0.6,1.9,1.5,3.4,2.2,5.2c0.9,2.3-2.1,3.2-3.7,5.1c-4.3,4.9-2.5,12.6-5.9,18.1c-8.6,14-17.1,29.4-15.6,45.8
	c1.1,11.7,7.2,23.9,2.5,34.7c-1.5,3.4-4,6.3-6,9.5c-4.9,8.1-7.2,18.1-10.6,24.7c-1,1.9,3.8,0.5,6.4,0.8c4.8,0.5,1.2,13.1,6,12.8
	c3.8-0.2,7.5-1.7,10,1.2s3.1,6.9,3.6,10.6c0.3,1.8,2,3,3.1,4.4c0.3,0.4,0.6,0.8,0.7,1.3c0.4,1.7-2.8,1.8-3.2,3.5
	c-0.3,1,0.4,1.9,0.1,2.9c-1.2,4.3-2.5,8.7-4.4,12.8c-1.9,4.2-5,8.3-9.4,9.4c-0.6,0.1-1.2,0.3-1.5,0.7c-0.3,0.4-0.2,1-0.3,1.4
	c-0.3,1.1-1.4,1.8-2.4,2.4c-3.5,2-7,4.1-10.5,6.1c-0.5,0.3-1,0.6-1.4,1.1c-0.4,0.5-0.5,1.1-0.8,1.6c-1.1,3-3.3,5.7-3.3,8.9
	c0,2.7,1.8,5.4,4.4,6.2c3.9,1.3,7.9-1.2,11.9-1.7c2.7-0.3,5.5,0.3,7.9-0.8c0.8-0.4,1.4-0.9,2.2-1.2c1.9-0.8,4.2-0.4,6.1,0.7
	c1.8,1,3.3,2.6,4.7,4.2c4.9,5.6,9.7,11.7,11.9,18.9"/>
<path fill="none" stroke="#E1E1E1" stroke-miterlimit="10" d="M-5.3-12.5c0.2,3.1,0.6,6.2,1.3,9.2C-3.2,1-1.8,5.2-2.2,9.5
	c-0.5,5.8-3.9,10.8-6,16.2S-10.5,38-6,41.6c0.8,0.6,1.6,1.1,2.3,1.8c1,1.1,1.3,2.7,1.8,4.2c1.8,5.2,6.5,9.3,11.9,10.4
	c2.6,0.5,5.1,0.3,7.7,0.6c1.1,0.1,2.1,0.2,3.2,0.6c1.1,0.4,2.1,1,3.2,1.5c2.4,1,5.1,1.1,7.7,1.1c3.4,0,6.8-0.1,10.2-0.4
	c1.2-0.1,2.4-0.2,3.5-0.7c1.1-0.5,2-1.5,2.9-2.4c5.6-6.1,11.5-11.9,17.6-17.5c1.4-1.3,3.7-3.5,5-2.1c3.1,3.4,1.9,9.1,3.9,13.3
	c0.4,0.8,0.8,1.5,1.1,2.4c0.8,2,0.9,4.3,0.8,6.5c-0.6,11.3-7.8,21.6-17.3,27.7c-1.1,0.7-2.2,1.3-3,2.2c-1.6,1.6-2.2,3.9-2.8,6.1
	c-0.7,2.6,1.4,5.1,3.8,6.3s5.2,2,6.8,4.1c1.5,2,1.7,4.7,2.9,6.9c1.3,2.4,3.8,4.1,6.2,5.4c9.8,5.4,21.3,7.7,32.4,6.6
	c1.1-0.1,2.2-0.3,3.2-0.7c1.2-0.6,2.1-1.6,3-2.6c4.4-4.9,13.4-16.2,16.1-10.2c1.5,3.3-4.1,6.1-5.3,9.5c-0.7,2.2-1.2,4.4-1.9,6.6
	c-2.4,7.8-7.3,14.6-10.9,21.9c-2.6,5.4-4.6,11.1-6.5,16.8c-3.6,10.7-7.1,22.8-2.1,32.9c1.2,2.4,2.9,4.8,2.6,7.5
	c-0.2,1.2-0.7,2.4-0.6,3.7c0.1,1,0.8,1.8,1.3,2.7c1.7,2.9,2.1,6.6,1,9.9c-1.7,4.9-6.3,8.1-9.2,12.4c-3.1,4.5-4.4,10.1-7.7,14.5
	c-2.8,3.7-6.8,6.2-9.6,9.9c-1.2,1.5-2.1,3.2-2.7,5.1c-1.9,6.3,1.4,15.6,8,15.9c4.3,0.3,8.6,0.8,11.4,4c0.8,0.9,1.5,2,2.5,2.7
	c2.1,1.5,4.9,1.1,7.3,1.9c3.7,1.3,5.9,5.5,5.7,9.4s-2.3,7.6-5,10.4c-2.7,2.9-6,5.2-9,7.7c-4.9,4-9.2,8.7-13.2,13.7
	c-2.4,3-4.6,6.2-6.5,9.5c-0.4,0.7-0.8,1.5-1,2.3c-0.6,2.8,0,5.8,1.1,8.5c1.5,3.8,6.3,5.1,8.8,8.3c0.3,0.4,0.7,0.9,1.2,1.1
	c0.8,0.3,1.6,0,2.4-0.3c2.5-0.8,5.3-0.5,7.5,0.7c0.8,0.4,1.5,1,2.4,1.2c2.7,0.6,5-2,7.6-2.5c3.7-0.8,6.9,2.3,9.4,5.1
	c1.2,1.4,2.5,2.8,3.7,4.2"/>
<path fill="none" stroke="#E1E1E1" stroke-miterlimit="10" d="M41.1,99.2c1.5-4.8,1.9-9.9,0.5-14.7c-0.3-1-0.6-1.9-1.2-2.7
	c-2-3.1-6.2-3.7-9.3-5.7c-2.8-1.8-4.7-4.8-7.4-6.8c-2.9-2-6.6-2.8-9.5-4.7c-0.7-0.5-1.4-1.4-0.9-2.1c0.3-0.3,0.8-0.4,1.3-0.4
	c2.3,0,4.6,0.1,6.9,0.1c1.4,0,3,0.1,3.9,1.3c0.6,0.7,0.7,1.7,1.3,2.4c1.1,1.2,2.9,0.9,4.5,0.8c2.8-0.1,5.4,1,8.1,1.7
	s5.7,0.9,8.1-0.6c0.9-0.6,1.6-1.3,2.3-2.1c3.1-2.9,7.1-4.5,10.6-6.8c3.4-2.3,6.4-5.4,8.5-9c0.3-0.6,0.8-1.2,1.4-1.3
	c0.5-0.1,1,0.2,1.3,0.6c1,1.2,0.7,3.1,0.2,4.6c-2.5,8.4-6.7,16.3-12.3,23.1c-1.1,1.4-2.4,2.7-3.8,3.9c-2.1,1.7-4.5,3-6.7,4.6
	c-1.2,0.9-2.4,2-2.9,3.5c-0.7,2.3,2.4,4.5,1.5,6.7c-0.7,2-2,4.4-0.7,6c1.3,1.6,3.4,2.5,5,3.8c3.4,2.9,4.3,7.9,7.5,11.1
	c1.6,1.7,3.7,2.7,5.8,3.8c2.5,1.2,4.9,2.5,7.4,3.7c2.4,1.2,4.8,2.4,7.3,3.5c3.9,1.7,8,3.1,12.1,4.1c3.6,0.9,8,2.1,9.1,5.6
	c0.6,1.9,0,4-0.6,5.9c-3.3,11-6.6,22.1-10,33.1c-0.9,2.9-1.7,5.8-1.7,8.8c0,2.1,0.4,4.1,0.9,6.1c0.4,2,0.8,3.9,1.2,5.9
	c0.8,3.6,1.5,7.3,3.1,10.7c1.2,2.6,2.8,5,3.7,7.7c0.9,2.7,1,5.9-0.7,8.2c-0.9,1.2-2.3,2.1-3.3,3.2c-1.1,1.3-1.8,2.9-2.5,4.5
	c-4.8,11-16.7,24.9-19,26.9c-2.4,2-1.7,7.9-2.3,11c-0.8,4,1.1,8.1,2.9,11.8c1.8,3.7,1.8,9.1,5.4,11c3.9,2.1,8.8,1,12.9,2.6
	c3.6,1.4,8,3.8,7.7,7.7c-0.1,1.8-1.2,3.3-2.3,4.7c-9.7,12.2-24.8,20.9-28.8,36c-0.2,0.7-0.4,1.4-0.9,2c-1.1,1.1-3,0.5-4.3-0.4
	c-6.3-4.6-7.2-13.9-12.8-19.4c-3.6-3.5-8.7-5-13.1-7.5c-5.7-3.2-10.3-8.1-15.9-11.7c-6.6-4.3-14.3-6.5-21.2-10.3
	c-1.6-0.9-3.1-1.8-4.2-3.2c-3.4-4.2-1.9-10.4-0.1-15.5c0.5-1.4,1-2.9,2.2-3.8c1.8-1.4,4.4-0.9,6.6-0.4c3.5,0.7,7.1,0.9,10.7,1.1
	c13.8,0.5,29.1-1.6,38.4-11.8c3.3-3.7,5.7-8.1,8-12.5c1.7-3.2,3.4-6.5,4.7-9.9c1.2-3.2,2-6.6,2.9-9.9c3.1-11.4,7.1-22.6,11.9-33.4
	c0.9-2,0.1-3.8-0.1-6c-0.1-1.8,0.6-3.1,0.4-4.8c-0.6-5,2.7-9.7,2.6-14.7c-0.1-6.5,0.5-13.5-1.7-19.6c-2.2-6.1-5.7-11.7-9.7-16.9
	c-0.7-0.9-1.4-1.8-2.4-2.5c-1.2-0.8-2.7-1-4.2-1.3c-6.7-1.4-13.1-5.5-20-4.8c-1.2,0.1-2.5,0.4-3.4-0.4c-0.5-0.4-0.7-0.9-1-1.5
	c-2.4-5.8-3.2-12.3-1.8-18.5C39.8,104.1,40.6,100.8,41.1,99.2z"/>
<path fill="none" stroke="#E1E1E1" stroke-miterlimit="10" d="M-12.2,69.9c2.8,1.6,5.4,3.6,8,5.7c9.9,7.8,18.5,14,26.2,23.9
	c4.6,6,2.8,14.3,4.1,21.7c0.9,5,2.1,10.6,6.3,13.3c1.9,1.3,4.2,1.8,6.5,2.2c5.5,1.1,11,1.9,16.6,2.5c2.3,0.2,4.7,0.4,6.8,1.4
	c1.6,0.7,2.9,1.8,4.2,3c8.7,8.4,10,21.6,10.9,33.6c0.3,3.7,0.5,7.4-0.2,11.1c-0.8,4.2-2.8,8.1-4.9,11.9c-3.9,7.2-7.7,14.5-11.6,21.7
	c-3.1,5.8-6.3,11.8-7.5,18.2c-0.8,3.9-0.9,8.1-2.9,11.6c-1,1.7-2.4,3.2-3.8,4.6c-2.5,2.6-5.2,5-8.5,6.7c-5.9,3-12.9,2.7-19.4,1.5
	c-6.5-1.1-12.9-3-19.5-3c-5.1,0-10.2,1.2-14.7,3.3"/>
<path fill="none" stroke="#E1E1E1" stroke-miterlimit="10" d="M342.4,128.5c-0.2,0.3-0.5,0.7-0.6,1.1c-0.3,0.6-0.3,1.3-0.4,1.9
	c-0.2,1.6-1.3,3.3-0.6,4.7c0.5,1,2-0.6,2.5-1.6c1.8-3.3,5.4-7.6,3.3-10.6c-0.5-0.7-1.5,0.6-2,1.3
	C343.9,126.4,343.2,127.4,342.4,128.5z"/>
<path fill="none" stroke="#E1E1E1" stroke-miterlimit="10" d="M85.6,145.4c0.8,0,1.4-2.6,1.5-2.9c0.3-0.8,1.4-1.1,1.9-1.8
	c0.6-1,0.1-2.3-0.7-3.2c-2.2-2.8-7.8-7-9.4-3.9c-0.9,1.7,1.6,3.4,2.1,5.3c0.1,0.3,1.8,2.8,2.6,3.9C84.2,143.6,84.5,145.3,85.6,145.4
	z"/>
<path fill="none" stroke="#E1E1E1" stroke-miterlimit="10" d="M90.8,221.1c-0.3-0.4-1-0.4-1-0.9c0-0.5,0.2-1.1,0.1-1.6
	c-0.1-0.5-0.4-0.9-0.7-1.2c-1.3-1.6-2.5-3.3-3.8-4.9c-0.5-0.7-1.4-1.5-2.2-1c-0.4,0.2-0.5,0.7-0.6,1.1c-0.4,1.5-0.8,2.9-1.2,4.4
	c-0.6,2.1-1.1,4.1-1.5,6.2c-0.6,2.7-0.9,5.5-1,8.3c0,0.7,0,1.5,0.6,2c0.7,0.5,1.7,0,2.1-0.7c0.5-0.7,0.6-1.5,0.9-2.3
	c0.1-0.2,0.2-0.4,0.3-0.5c0.2-0.1,0.5-0.2,0.7-0.2c1.5-0.4,1.8-2.3,2.4-3.7c0.3-0.7,0.8-1.4,1.3-2C88.6,223,91.8,222.3,90.8,221.1z"
	/>
<path fill="none" stroke="#E1E1E1" stroke-miterlimit="10" d="M68.3,291.2c-0.3-1-0.2-2-0.3-3c-0.5-4.6-4.7-7.7-8.6-10.3
	c-1.6-1.1-3.4-2.2-5.3-2.2c-2.6-0.1-4.8,1.7-7,3.1c-5.1,3.1-11.2,4.1-17.2,4.3c-6,0.2-12-0.3-17.9,0c-2.4,0.1-5.4,0.9-5.8,3.3
	c-0.3,2.3,2.3,4,4.6,4.4s4.9,0.3,6.7,1.9c0.9,0.8,1.5,2,2.5,2.8c1.6,1.3,3.9,1.3,6,1.7c2.1,0.4,3,2.2,4.5,3.7c0.6,0.6,2.2-0.7,2.5,0
	c0.2,0.3-0.4,0.7-0.4,1.1c0.1,0.4,0.5,0.2,0.8,0.4c0.8,0.5-1.8,2.1-1,2.6c4.6,2.9,13.6,3.5,18.9,9.4c1.3,1.4,3.2,2.3,3.9,4.1
	c0.4,0.9,0.5,1.9,0.6,2.8c0.5,4.1,1.2,10.2,5.3,10.6c1,0.1,1.9-0.9,2.5-1.7c1.1-1.4,1.5-3.1,2.3-4.8c3.2-7.4,12.1-10.6,16.4-17.4
	c0.6-0.9,1-2,0.6-2.9c-0.3-0.6-0.9-0.9-1.5-1.2c-4.5-2.6-8.5-6.1-11.7-10.2C69,292.8,68.5,292.1,68.3,291.2z"/>
<path fill="none" stroke="#E1E1E1" stroke-miterlimit="10" d="M55.7,306.4c1.7,1.7,3.4,3.6,5.7,4.1c3.7,0.8,7-2.3,9.5-5.2
	c0.4-0.4,0.8-0.9,0.8-1.5c0-0.5-0.3-0.9-0.7-1.3c-2.9-3.4-6.4-6.1-9.9-8.9c-4.2-3.2-8.7-6.6-14-7.2c-2.2-0.3-4.5-0.1-6.7,0.2
	c-3.9,0.4-9-1.7-11.6,1.2c-1.1,1.1,1.7,2.5,3,3.2c3,1.5,5.1,4.2,7,6.9c0.6,0.9,2-0.1,3.1-0.3c0.7-0.1,1.3,0.2,2,0.5
	C48.3,300.1,52.3,303,55.7,306.4z"/>
<path fill="none" stroke="#E1E1E1" stroke-miterlimit="10" d="M-12.6,332.9c4.2,2.2,5.4,7.7,8.7,11.1c1.8,1.9,4.3,3.2,5.9,5.3
	c2.3,3,3,7.7,6.6,8.8c1,0.3,2,0.2,3,0.6c1.5,0.6,2.3,2,3.2,3.3c2,3,4.6,5.7,7.5,7.8"/>
<path fill="none" stroke="#E1E1E1" stroke-miterlimit="10" d="M-12.9,323.6c0.9,1.8,3.1,2.3,5.1,2.4s4.1,0,5.7,1.2
	c1.2,0.9,1.8,2.3,2.8,3.3c1.5,1.4,3.7,1.9,5.5,2.9c1.4,0.8,2.5,1.9,3.6,3c5.9,5.9,11.3,12.6,18.5,16.9c0.9,0.6,1.9,1.1,2.7,1.8
	c0.8,0.7,1.4,1.6,1.9,2.5c2.9,4.4,5.8,8.7,8.6,13.1"/>
<path fill="none" stroke="#E1E1E1" stroke-miterlimit="10" d="M-12.4,311.3c1.1,0.8,2.2,1.6,3.3,2.3c1.1,0.8,2.3,1.6,3.5,2.1
	c2.1,0.7,4.5,0.5,6.6,1.4c2.1,0.9,3.5,2.9,5.3,4.4c1.3,1.1,2.9,1.9,4.4,2.7c9,5.3,15.9,13.8,25.2,18.5c1.5,0.8,3.1,1.5,4.3,2.7
	c0.9,1,1.4,2.3,2.1,3.6c4.3,8.2,14.5,12.7,17,21.6"/>
<path fill="none" stroke="#E1E1E1" stroke-miterlimit="10" d="M-14.9,299.6c4.4,2.3,8.8,4.7,13.2,7c2,1,4.1,2.1,6.3,2
	c0.7,0,1.4-0.2,2,0.1c0.7,0.3,1.1,1,1.6,1.6c2.5,3.4,7.4,1.9,11.1,3.7c2.5,1.2,2.6,4.9,4.6,6.8c2.7,2.5,6.1,4.2,9.3,6.1
	c2,1.2,3.9,2.5,5.9,3.9c1.4,1,2.9,2,4.3,3c1.8,1.2,3.7,2.5,4.8,4.4c1.9,3,1.7,7,4.1,9.6c1.5,1.6,3.9,2.5,4.6,4.5
	c0.3,0.9,0.3,1.8,0.5,2.7c0.6,2.2,3.1,2.6,5.3,3.1c5.8,1.5,7.8,9.1,9.9,14.7"/>
<path fill="none" stroke="#E1E1E1" stroke-miterlimit="10" d="M-13,93.7c3.2,4,6.5,8,9.7,12c3.5,4.3,7.1,8.8,8.7,14.2
	c1,3.2,1.2,6.6,2.7,9.6c2.6,5.2,8.4,7.7,13.5,10.5c5,2.7,9.8,5.9,14.2,9.5c3.2,2.6,7,3.3,11.2,3.8c3.5,0.4,7.5-0.3,10,2.2
	c4.9,4.8,5.5,32.7,2.2,48.9c-0.9,4.4-2.1,8.8-4.8,12.4c-2.1,2.8-4.9,5-6.7,8c-2.7,4.6-2.4,10.3-4,15.3c-2.7,8.5-11.2,14.8-20.1,14.9
	c-4.7,0-9.3-1.5-13.9-1.9c-8.5-0.7-17.5,2.1-25.4-1.3"/>
<path fill="none" stroke="#E1E1E1" stroke-miterlimit="10" d="M-12.8,248.5c0.2-0.4,0.2-0.9,0.6-1.1c1.6-0.5,3.2-0.1,4.7-0.9
	c7.8-4,16.1-6.9,24.6-8.8c1.1-0.2,2.2-0.5,3.1-1.1c2.1-1.5,2.2-4.5,3.4-6.7c2.4-4.7,9-6,11.4-10.7c1.2-2.4,1.1-5.2,1.6-7.8
	c1.4-7.7,7.5-13.6,9.8-21c1.7-5.6,1.2-11.6,0.6-17.4c-0.1-0.8-0.2-1.8-1-2.3c-0.5-0.3-1.1-0.3-1.7-0.2c-3.3,0.3-6.6,0-9.8-0.6
	c-1.1-0.2-2.3-0.5-3.3-1.1c-1.5-0.8-2.7-2.1-3.8-3.4c-5.5-6.3-11.1-12.6-16.6-18.8c-0.9-1-1.8-2-3-2.7c-1.3-0.8-2.9-1.1-4-2.2
	c-1-1-1.3-2.4-1.8-3.6c-1.7-4.2-5.7-7.3-10.2-8c-1.7-0.3-3.5-0.2-5.2-0.7"/>
<path fill="none" stroke="#E1E1E1" stroke-miterlimit="10" d="M-13.1,238.2c2.1-0.5,3.9,0.5,6.1,0c2.9-0.7,6.2-2.9,8.4-4.8
	c2.3-2,3.4-5,4.5-7.9c0.9-2.5,1.8-5,2.7-7.6c1.3-3.5,2.8-7.4,6.1-9.1c1.6-0.8,3.4-1,5.1-1.6c3.5-1.1,6.4-3.6,8.2-6.7
	c0.5-0.8,0.8-1.8,0.9-2.7c0.1-1.7-0.6-3.2-1-4.9c-0.8-3.2,2.6-6.4,1.6-9.5c-1.5-4.9-5.8,5.8-24.8-24c-0.3-0.5-0.6-1.1-0.7-1.7
	c-0.1-0.5-0.1-1.1-0.3-1.6c-0.3-0.5-0.9-0.8-1.4-1.1c-5.4-2.8-5.4-10.3-9.9-14.4c-1.8-1.6-4.8,0.2-7.2,0.8"/>
<path fill="none" stroke="#D6D6D6" stroke-miterlimit="10" d="M339.4,322.7c0-2.7,1-5.5,1.8-8.1c0.9-3.6,0.9-7.3,1.9-10.9
	c1-3.6,3.1-6.9,5-10.2c0.8-1.4,1.6-3,1.4-4.7c-0.1-1-0.5-1.9-0.6-2.9c-0.4-3.1,1.9-6.4,3.9-8.8"/>
<path fill="none" stroke="#D6D6D6" stroke-miterlimit="10" d="M356.7,270.3c2,0.1,4.5,0.4,6.3,1.3c0.4,0.2,0.9,0.5,1.4,0.3
	c0.4-0.1,0.7-0.5,1-0.8c1.2-1.7,2.5-3.3,3.7-5"/>
<path fill="#EAEAEA" stroke="#D6D6D6" stroke-miterlimit="10" d="M361.6,251c-0.2-0.2-0.4-0.3-0.7-0.3c-0.5,0.1-0.7,0.7-1,1.2
	c-0.3,0.5-0.9,0.6-1.5,0.8c-0.3,0.1-0.7,0.4-0.6,0.7c0,0.1,0.1,0.1,0.1,0.2c0.8,0.7,2.1,1.9,2.7,1.1c0.1-0.2,0.2-0.4,0.4-0.5
	c0.6-0.3,1-0.9,1.1-1.5C362.3,252.1,362.1,251.5,361.6,251z"/>
<path fill="#EAEAEA" stroke="#D6D6D6" stroke-miterlimit="10" d="M357.7,259.9c0.6,0.2,1.4-0.1,1.7-0.7c0.3-0.6,0.3-1.5-0.2-1.9
	c-0.4-0.2-0.9,0-1.2,0.2c-0.3,0.3-0.6,0.7-0.8,1c-0.1,0.2-0.2,0.4-0.2,0.6C357.1,259.6,357.4,259.8,357.7,259.9z"/>
<path fill="#EAEAEA" stroke="#D6D6D6" stroke-miterlimit="10" d="M352.2,274.8c-0.1,0.4-0.2,0.8-0.2,1.2c0,0.5,0.4,1,0.8,1.2
	s1,0.2,1.4-0.1c0.6-0.4,0.7-1.2,0.7-1.9s-0.1-1.4,0.1-2.1c0.2-0.6,0.5-1.1,0.9-1.5c0.1-0.1,0.1-0.1,0.2-0.2c0.4-0.9,0.6-2.2,0-3.1
	c-0.2-0.3-0.6-0.1-0.9,0c-0.7,0.3-1.2,1-1.5,1.6c-0.3,0.7-0.5,1.4-0.7,2.2c-0.2,0.6-0.6,1.2-0.7,1.8
	C352.2,274.1,352.2,274.4,352.2,274.8z"/>
<path fill="#EAEAEA" stroke="#D6D6D6" stroke-miterlimit="10" d="M247,347.1c0.3,0.7,1.5,0.6,2.2,0.6c0.8,0.1,1.6,0.1,2.3-0.2
	c0.2-0.1,0.4-0.3,0.7-0.4c0.6-0.3,1.4-0.3,1.8-0.7c0.7-0.6,0.5-1.7,0.2-2.6c-0.1-0.3-0.2-0.6-0.3-0.9c-0.1-0.3-0.2-0.5-0.3-0.7
	c-0.1-0.2-0.3-0.4-0.4-0.6c-0.3-0.3-0.6-0.7-0.8-1c-0.4-0.5-1.1-1.1-1.7-1c-0.3,0.1-0.5,0.3-0.7,0.4c-0.5,0.4-0.9,0.8-1.4,1.2
	c-0.1,0.1-0.3,0.2-0.4,0.4c-0.1,0.1-0.1,0.3-0.1,0.4C247.8,343.7,246.4,345.4,247,347.1z"/>
<path fill="#EAEAEA" stroke="#D6D6D6" stroke-miterlimit="10" d="M256.9,325.9c-0.1-0.5-0.7-0.7-1.2-0.8c-0.7-0.1-1.4,0-1.9,0.5
	c-0.6,0.6-0.3,1.8,0.4,2.2c0.2,0.1,0.5,0.2,0.7,0.1c0.4-0.1,0.6-0.5,0.9-0.7C256.3,326.7,256.9,326.4,256.9,325.9z"/>
<path fill="#EAEAEA" stroke="#D6D6D6" stroke-miterlimit="10" d="M244.2,233.4c0.5-0.3,0.9-0.9,0.9-1.5s-0.2-1.2-0.6-1.7
	c-0.5-0.5-1.2-0.7-1.8-0.4s-1.2,1.2-0.7,1.6c0.2,0.2,0.4,0.4,0.5,0.6c0.2,0.5,0.6,1,1.1,1.3c0.1,0,0.1,0.1,0.2,0.1
	C244,233.5,244.1,233.5,244.2,233.4z"/>
<path fill="#EAEAEA" stroke="#D6D6D6" stroke-miterlimit="10" d="M265.1,227.5c-0.1,0.4,0.1,0.8-0.2,1.2c-0.3,0.4-0.7,0.7-1.2,0.9
	c-1.3,0.6-2.8,1-4.3,1.1c-1,0.1-2.2,0.1-2.7,0.9c-0.4,0.6-0.2,1.4-0.2,2.2c-0.1,0.7-0.7,1.6-1.4,1.3c-0.2-0.1-0.3-0.3-0.5-0.4
	c-0.8-0.7-2.4-0.2-2.6,0.9c-0.1,0.3,0,0.7-0.1,1c-0.2,1.3-1.7,2.3-1.6,3.6c0.1,0.9,0.9,1.6,1.2,2.5c0.2,0.7,0.1,1.4,0,2.1
	c-0.3,1.9-0.7,4-1.9,5.5c-0.9,1.1-2.1,1.8-3.3,2.4c-1.2,0.6-2.4,1.2-3.7,1.2s-2.7-0.4-3.5-1.5c-0.8-1.2-0.5-3.1,0.7-3.9
	c0.3-0.2,0.6-0.4,0.8-0.7c0.3-0.5,0.2-1.1,0.5-1.6c0.4-0.6,1.3-0.7,1.7-1.3c0.4-0.6,0.1-1.5,0.3-2.3c0.2-1.1,1.3-1.6,2.3-2.2
	c0.9-0.5,2-1.4,1.7-2.5c-0.1-0.3-0.2-0.6-0.4-0.9c-0.3-0.8-0.7-1.8-0.2-2.4c0.5-0.5,1.6,0.1,2.1-0.5c0.4-0.6-0.1-1.9,0.6-2
	c1.2-0.3,3.3,1.4,3.6,0.2c0.3-1.2-1.7-2.2-1.7-3.6c0-0.8,0.5-1.5,1-2.2c0.8-1.1,1.7-2.2,2.7-3.2c0.3-0.3,0.6-0.6,0.8-1
	c0.2-0.5,0-1.2,0.1-1.7c0.3-1.3,2.1-2,2.2-3.3c0.1-0.9-0.7-1.7-1.6-1.9c-0.9-0.2-2,0.7-2.7,0.1c-1.2-1.3,2.5-2,3.6-3.4
	c1.5-1.8,0.6-4.7,1.8-6.7c0.2-0.4,0.5-0.8,1-0.9c0.5-0.1,1,0.1,1.4,0.3c0.4,0.2,1,0.4,1.4,0.2c0.4-0.2,0.5-1,0-1.1
	c-1-0.2-1.5-1.2-2.1-2c-1-1.4-1.9-2.9-2.9-4.3c-0.2-0.2-0.3-0.5-0.4-0.7c-0.1-0.8,0.8-1.4,1.6-1.7s1.8-0.7,1.9-1.5
	c0.1-0.5-0.3-1.1-0.1-1.6c0.3-0.7,1.4-0.7,1.9-1.4c0.3-0.4,0.2-1,0.2-1.5c0-1.5,1.3-3.5,2.6-2.8c1.1,0.7-0.8,2.4-0.6,3.7
	c0.1,0.7,0.9,1.2,1.6,1.3c0.7,0.1,1.7-1,2.2-0.5c1.5,1.8,3.6,3.3,5.3,5c1.7,1.6,2.5,4.5,1.4,6.5c-0.5,1-1.6,2.3-0.8,3.1
	c0.3,0.3,0.6,0.3,0.9,0.5c1,0.6,1.8,2,1.3,3c-0.8,1.7-3.5,2.5-3.2,4.3c0.2,1.2,1.2,2.1,1.2,3.3c0,1.1-0.9,2.1-1.8,2.8
	c-1.5,1.3-3,2.6-4.5,3.9c-0.3,0.3-0.6,0.6-0.9,0.8C266.6,225.1,265.6,226,265.1,227.5z"/>
<path fill="none" stroke="#D6D6D6" stroke-miterlimit="10" d="M238.8,252.2c-1.5,0.2-3.5,0.2-5.1,0.2c-0.5,0-1,0-1.4,0.3
	c-0.3,0.2-0.5,0.5-0.8,0.8c-0.9,0.7-2.2,0.5-3.3,0.8c-1.7,0.4-2.8,2-3.6,3.5c-0.3,0.5-0.6,1.1-1,1.5c-1.6,1.5-4.2,0.5-6.2,1.3
	c-1.9,0.7-2.8,2.8-3.3,4.8c-0.5,2.2-0.7,4.5-0.5,6.8c0,0.5,0.1,1.1-0.4,1.3c-0.3,0.2-0.7,0.1-1.1,0.1c-1.6-0.1-3.2,1-3.5,2.6
	c-0.1,0.5-0.1,1.1-0.4,1.5c-0.2,0.4-0.6,0.6-1,0.8c-1,0.5-2.2,0.7-3,1.4c-0.9,0.9-1.1,2.3-1.7,3.4c-0.7,1.2-1.8,2-2.5,3.1
	c-1,1.6-0.9,4.2-2.7,4.7c-0.6,0.2-1.2,0.1-1.8,0.1c-1.9,0.3-3.2,2.2-4.1,3.9c-0.5,1-1,1.9-1.2,3c-0.2,0.9-0.1,1.8-0.3,2.6
	c-0.2,1.1-0.6,2.1-1,3.1c-3.9,9.1-7.7,18.3-11.6,27.4c-1.1,2.6-2.4,6.3-5.2,6.2c-1.3-0.1-2.4-1.2-3.3-2.2c-0.7-0.7-1.2-1.6-2-2.2
	c-0.8-0.6-1.7-1-2.6-1.4c-1.9-0.8-3.8-1.6-5.8-1.8c-4.2-0.6-8.4,1.3-11.5,4.2c-0.4,0.4-0.8,0.8-1.3,0.9c-0.6,0.1-1.1-0.2-1.7-0.4
	c-1.3-0.5-2.9,0.5-4.2-0.1c-1.3-0.7-0.6-1.6,0.3-3.3"/>
<path fill="#EAEAEA" stroke="#D6D6D6" stroke-miterlimit="10" d="M332.8,369.8c0.8-0.9,1.4-2.1,1.5-3.4c0.1-1.2-0.2-3.6-1.4-3.3
	c-1.4,0.4-2.3,2-3.7,1.5c-0.4-0.2-0.8-0.5-1-0.9c-0.3-0.8,0.4-1.7,1.1-2.3c1.2-1.1,2.4-2.1,3.9-2.5c0.6-0.1,1.3-0.2,1.8-0.5
	c0.9-0.7,0.8-2.1,1-3.2c0.7-3,4.3-4.3,5.6-7c0.9-1.9,0.6-4.1,0.3-6.2c-0.2-1.3-0.4-2.6-0.7-3.9c-0.1-0.5-0.2-1.1,0-1.5
	c0.1-0.3,0.3-0.6,0.5-0.9c0.5-1.6-1.9-2.8-1.7-4.5c0.2-1.7,3-2.1,3.2-3.8c0-0.4-0.1-0.8-0.3-1.2c-0.3-0.8-0.7-1.6-1.3-2.2
	c-0.9-0.9-2.3-1.2-3.5-0.8c-1.2,0.4-2.1,1.5-2.3,2.8c-0.1,0.8,0,1.6-0.4,2.3c-0.2,0.2-0.4,0.4-0.7,0.6c-1.1,1-1.5,2.6-1.5,4.1
	c0.1,1.5,0.5,3,0.8,4.4c0.6,2.8,0.7,5.7,0.3,8.5c-0.1,0.6-0.2,1.2,0.1,1.7c0.5,0.9,1.8,1,2.6,0.4c0.8-0.6,1.2-1.6,1.3-2.6
	c0.1-0.6,0.1-1.3,0.5-1.9c0.4-0.5,1.4-0.6,1.6,0c0.1,0.3,0,0.6-0.1,1c-0.6,1.7-1.2,3.4-2.4,4.8c-0.8,0.9-1.8,1.6-2.7,2.3
	c-2,1.7-3.7,3.7-5.3,5.9c-0.8,1.1-1.6,2.2-2.9,2.7c-0.3,0.1-0.7,0.2-1,0.4c-0.3,0.2-0.5,0.4-0.6,0.6c-0.8,1.1-0.7,2.7,0.1,3.8
	c0.8,1,2.2,1.8,2,3.1c-0.1,0.5-0.4,0.9-0.6,1.3c-0.1,0.3-0.2,0.6-0.3,0.9"/>
<path fill="#FFFFFF" stroke="#D6D6D6" stroke-miterlimit="10" d="M336.3,335.4c-0.6,0.7-0.2,1.8,0.2,2.6c0.1,0.3,0.3,0.6,0.5,0.7
	c0.4,0.2,0.9-0.1,1.2-0.4c0.6-0.6,1.1-1.4,1.3-2.3c0.1-0.2,0.1-0.4,0-0.5c-0.1-0.1-0.1-0.1-0.2-0.1c-0.5-0.3-1-0.5-1.5-0.5
	C337.2,334.8,336.7,335,336.3,335.4z"/>
<path fill="none" stroke="#D6D6D6" stroke-miterlimit="10" d="M32.8,19.1c1.2-0.1,2.3-0.5,3.4-1c1.2-0.5,2.5-1.1,3.7-1.6
	c0.4-0.2,0.9-0.4,1.3-0.7c0.9-0.8,1.2-2.2,0.6-3.2"/>
<path fill="#EAEAEA" stroke="#D6D6D6" stroke-miterlimit="10" d="M26.9,22.5c0.9,0.1,1.8-0.3,2.7-0.5c0.6-0.1,1.1,0,1.7-0.1
	c0.6-0.1,1.1-0.4,1.3-0.9c0.2-0.5,0-1-0.1-1.5c-0.1-0.3-0.4-2.1-0.6-2.5c-0.4-0.7-1.4-0.7-2.2-0.7c-0.3,0-0.6,0.1-0.9,0.1
	c-0.7,0.1-1.5,0.3-2.2,0.4c-0.7,0.1-1.7,0-2.2,0.5c-0.8,0.9,1.6,2,1.5,3.3C25.8,21.3,26.5,22.4,26.9,22.5z"/>
<path fill="#EAEAEA" stroke="#D6D6D6" stroke-miterlimit="10" d="M41.3,12.8c0.7-0.3,1.3-0.8,1.9-1.3c1-0.8,1.9-1.6,2.9-2.4
	c1.4-1.2,2.8-2.4,4.2-3.8c1.9-1.9,3.6-4.4,3.3-7.1c-0.1-0.9-0.5-1.8-0.5-2.8s0.5-1.7,1.1-2.4c0.7-0.9,0.4-2.3-0.4-3.1
	c-0.3-0.3-0.7-0.4-1-0.6c-4.3-1.6-9.1-0.5-13.5,0.8c-0.2,0.1-0.4,0.1-0.6,0.3c-0.1,0.1-0.2,0.3-0.2,0.5C38-7,39.4-4.5,38.1-2.8
	c-0.7,0.9-1.9,1.2-2.7,2c-1.1,0.9-1.5,2.4-1.9,3.7c-0.2,0.7-0.4,1.5-0.3,2.2c0.1,0.5,0.3,1,0.5,1.4c1.4,2.1,1.5,4.3,2.1,6
	C36.5,14.3,39.5,13.6,41.3,12.8z"/>
<path fill="none" stroke="#D6D6D6" stroke-miterlimit="10" d="M264.1,60.8c0,0.3,0,0.6,0.1,1c0.6,2.6,4.4,4.4,7,4.9
	c1.1,0.2,2.4,0.5,2.8,1.5c0.2,0.5,0.1,1.1,0,1.7c-0.7,3.8-2.3,7.4-4.7,10.4c-1,1.3-2.2,2.6-2.8,4.2c-0.9,2.6,1.7,5.5,0.9,8.2
	c-0.3,1,0.4,2.2,1.4,2.2s1.8-0.9,2.6-1.6c0.8-0.7,1.9-1.2,2.8-0.6c0.7,0.5,0.9,1.5,1.5,2.2c0.8,0.8,2.1,0.7,3.1,0.4
	c1.1-0.3,2.2-0.7,3.2-0.5c0.8,0.2,1.6,0.8,2.4,1c2.1,0.4,5-2.2,6.2-0.4c0.9,1.3-1.7,2.6-1.7,4.2c0,0.5,0.2,1.1,0.4,1.6
	c0.4,1.2,0.3,2.6,0.4,3.9c0.3,3.3,1.9,6.3,3.3,9.3c1.4,3,2.6,6.3,1.8,9.5c-0.5,1.8-1.5,3.5-2.1,5.3c-0.2,0.6-0.3,1.3,0,1.9
	c0.2,0.4,0.6,0.6,0.9,1c1.2,1.5-0.5,3.7,0.1,5.6c0.1,0.5,0.5,0.9,0.7,1.4c1.8,3.2,0.4,7.2-1,10.6c-0.4,0.9-0.9,1.8-1.8,2.2
	c-1,0.5-1.3,0.3-1.9,0.5"/>
<path fill="none" stroke="#4E9BD7" stroke-miterlimit="10" d="M254.2-12c-0.2,0.3-0.5,0.7-0.8,1c-0.6,0.6-0.8,1.6-0.8,2.4
	c0,1.2,1,2.1,2.1,2.6c1.1,0.5,1.7,0.4,2.6,1.3c0.6,0.6,0.8,2.2,0.7,2.5c-1.3,3-3.7,4.6-3.2,7.9c0.1,0.7,0.8,2,1,2.8
	c0.3,1.8-1.7,2.8-1.4,4.6c0.3,1.2,1.7,0.4,2.6,1.3s1.4,2.3,0.8,3.4c-0.3,0.5-0.8,0.9-1.3,1.2c-1.5,1.1-2.7,2.5-3.7,4
	c-0.6,0.9-1.2,2-1.3,3.1c-0.1,1.8,0.9,3.4,1.7,5c2.2,4.4,2.9,9.6,2,14.4c-0.1,0.7-0.3,1.5,0.1,2.1c0.3,0.5,0.8,0.8,1.3,1.1
	c2.5,1.5,4.8,3.4,6.8,5.7c0.7,0.8,0.8,1.2,1,2.2c0.4,1.4-0.4,2.9-0.4,4.3c-0.5,0.6-3,1.8-3.5,2.2c-0.8,0.7-1.8,1.3-2.8,1.8
	c-0.9,0.5-1.8,0.9-2.7,1.4c-0.3,0.2-0.6,0.3-0.9,0.6c-0.4,0.5-0.3,1.2-0.2,1.8c0.6,5.6,0.9,11.4,0.2,17c-0.1,1-0.3,2-0.6,2.9
	c-0.5,1.5-1.3,2.8-1.7,4.3c-0.4,1.5-0.9,3.6,0.1,4.8c0.6,0.8,1.8,1.3,1.8,2.3c0,1.4-2.1,1.4-3.4,2.1c-2,1.1-1.8,4.2-3.4,5.8
	c-0.8,0.7-1.8,1-2.9,1.2c-3.4,0.7-6.9,0.8-10.3,0.2c-0.6-0.1-1.3-0.2-2-0.1c-1.8,0.2-3,2-3.7,3.7c-0.7,1.7-1.1,3.6-2.3,4.9
	c-0.7,0.7-1.5,1.2-2.2,1.9c-2.5,2.6-2.4,7.6-5.8,8.8c-2.8,1-5.5-1.5-8.2-2.7c-1.3-0.6-2.8-0.9-4.2-0.8c-1.4,0-3,0.7-3.1,2.1
	c0,0.6,0.3,1.1,0.6,1.6c0.6,1.1,1.3,2.3,1.9,3.4c0.9,1.7,1.9,3.6,1.4,5.4c-0.6,2-2.7,3.1-4.4,4.2c-5.2,3.2-9,8.3-14.1,11.7
	c-1.4,0.9-2.9,1.8-4,3c-0.9,1-1.6,2.1-2.2,3.3c-1.1,1.9-2.2,3.8-3.2,5.7"/>
<path fill="none" stroke="#D6D6D6" stroke-miterlimit="10" d="M168.5,198.7c1-0.8,2.1-1.8,2.3-3.1c0-0.3,0-0.6,0.1-0.9
	c0.1-0.3,0.3-0.6,0.6-0.8c0.8-0.9,1.6-1.9,2.5-2.8c0.1-0.1,0.2-0.3,0.1-0.4c-0.1-0.1-0.2,0.2-0.1,0.1"/>
<path fill="#EAEAEA" stroke="#D6D6D6" stroke-miterlimit="10" d="M183.3,167.6c-0.1-0.1-0.2-0.2-0.3-0.3c-0.6-0.7-0.8-1.6-0.6-2.5
	c0.1-0.5,0.8-1.2,1-0.8c0.3,0.6,0.2,1.4,0.9,1.7c0.2,0.1,0.4,0.1,0.5,0.2c0.6,0.3,0.7,1.2,0.3,1.7C184.6,168,183.8,168,183.3,167.6z
	"/>
<path fill="#EAEAEA" stroke="#D6D6D6" stroke-miterlimit="10" d="M166.2,197.3c-0.4,0-0.7,0-1.1,0.1c-0.9,0.4-1.1,1.6-1.1,2.6
	c0,0.9,0,1.8,0,2.7c0,0.3,0,0.6-0.1,0.9c-0.1,0.2-0.2,0.3-0.3,0.5c-0.4,0.7-0.2,1.6,0.2,2.3c0.4,0.7,0.2,1.6,0.6,2.3
	c0.6,1.1,2.7,0,3.4-1.1c0.1-0.2,0.2-0.5,0.2-0.8c-0.2-0.7-1.1-0.7-1.7-1c-0.9-0.4-1.1-1.9-0.3-2.5c0.2-0.2,0.5-0.3,0.6-0.6
	c0.1-0.3,0-0.6,0-0.9c0.1-1.2,2-1.5,2.2-2.6c0.1-0.6-0.3-1.1-0.8-1.4S166.7,197.4,166.2,197.3z"/>
<path fill="#7BBCEB" stroke="#4E9BD7" stroke-miterlimit="10" d="M179,192.9c0.7,0,1.5-0.5,2.2-0.2c0.5,0.2,0.9,0.7,1.4,0.9
	c0.9,0.3,1.8-0.6,2.3-1.4c1-1.5,2-3,3.1-4.6c0.4-0.5,0.7-1.1,1-1.7c1.4-3.4-1.4-7.5,0-10.9c0.2-0.5,0.5-1,0.6-1.6
	c0.1-1.1-0.8-2.1-1.9-2.4c-1.1-0.2-2.2,0.2-3.1,0.8c-0.5,0.3-1,0.7-1.6,0.8c-1,0-1.6-1-2-1.9c-0.7-1.5-1.3-2.9-2-4.4
	c-0.1-0.2-0.2-0.5-0.4-0.7c-0.5-0.4-1.3-0.2-1.9,0c-1.1,0.4-2.2,0.8-3.2,1.1c-0.4,0.2-0.9,0.3-1.2,0.7c-0.4,0.5-0.5,1.2-0.5,1.8
	c-0.1,1.6-0.5,3.1-1.2,4.6c-0.6,1.4-1.4,2.8-1.1,4.2c0.3,1.7,3.1,4.1,1.6,4.8c-1.1,0.5-2.5,0.3-2.9,1.5c-0.4,1.1-0.4,2.7,0.5,3.5
	c1.4,1.3,3.5,1.7,5.2,2.6c1.2,0.6,2.4,1.2,3.6,1.9C177.9,192.6,178.4,192.9,179,192.9z"/>
<path fill="#EAEAEA" stroke="#D6D6D6" stroke-miterlimit="10" d="M273.2,181.3c-0.1,0.4-0.2,0.9-0.1,1.3c0.1,0.3,0.2,0.5,0.4,0.8
	c0.4,0.6,0.5,1.9,1.2,1.8c0.2,0,0.4-0.1,0.6,0c0.9,0.4,2-0.5,2-1.5c0.1-1-0.5-1.9-1-2.8c-0.3-0.6-0.8-1.2-1.4-1.2
	C274,179.6,273.4,180.5,273.2,181.3z"/>
<path fill="#EAEAEA" stroke="#D6D6D6" stroke-miterlimit="10" d="M291.2,172.8c-0.2,0.6-0.3,1.2-0.2,1.7c0.1,0.6,0.7,1.1,1.3,1
	c0.7-0.1,1-1,1.6-1.1c0.3-0.1,0.5,0,0.8,0c0.9-0.1,1.6-0.9,2.3-1.5c1-1.1,2.3-1.9,3.7-2.5c0.4-0.2,0.8-0.3,1.1-0.5
	c0.8-0.5,1.4-1.4,1.4-2.4c0-0.2,0-0.5-0.2-0.7c0,0-0.1-0.1-0.1-0.1c-0.8-0.5-1.8-0.6-2.7-0.3c-0.9,0.3-1.7,0.8-2.5,1.2
	c-0.8,0.4-1.6,0.8-2.4,0.6c-0.2-0.1-0.4-0.2-0.6-0.2c-1-0.2-1.8,0.9-2.2,1.8C291.9,170.7,291.5,171.7,291.2,172.8z"/>
<path fill="#EAEAEA" stroke="#D6D6D6" stroke-miterlimit="10" d="M284.5,169.2c-0.9,0.4-1.9,0.7-2.8,0.6s-1.9-0.9-1.9-1.9
	c0-1.5,1.8-2.2,2.6-3.3c0.2-0.3,0.4-0.6,0.6-1c0.7-1.3,1.7-2.6,2.9-3.5c0.4-0.4,0.9-0.7,1.2-1.1c1.1-1.5,0.5-3.6,0.3-5.4
	c-0.2-1.4-0.1-2.8,0.2-4.2c0.1-0.7,1-1.8,1.4-1.2c1.3,2.3,0.4,5.2,0.5,7.8c0.1,1.2,0.1,2.5-0.1,3.7c-0.3,2.5-1.3,4.8-2.4,7.1
	c-0.3,0.6-0.5,1.2-1,1.6C285.5,168.8,285,169,284.5,169.2z"/>
<path fill="none" stroke="#D6D6D6" stroke-miterlimit="10" d="M267.8,190.8c0-0.1,0-0.3,0.1-0.4c0.9-1.5,2.8-2.2,4.4-2.9
	c0.7-0.3,2-1.6,2.4-2.3"/>
<path fill="none" stroke="#D6D6D6" stroke-miterlimit="10" d="M273.9,179.8c-0.4-1.3-0.3-2.8,0.2-4c0.6-1.2,1.1-2.4,1.7-3.5
	c0.2-0.4,0.3-0.7,0.4-1.1c0.1-0.3,0.1-0.5,0.1-0.8c0.3-1.2,2.1-1.6,3.3-1.9"/>
<path fill="#EAEAEA" stroke="#D6D6D6" stroke-miterlimit="10" d="M112.2,332.1c-0.4-0.1-0.7-0.4-1.1-0.5c-1.3-0.4-2.4,0.9-3.6,1.3
	c-0.7,0.2-1.6,0.1-2.2,0.5c-0.5,0.4-0.7,1-0.6,1.6c0.1,0.6,0.4,1.1,0.8,1.6c1.2,1.5,3,2.5,4.9,2.7c0.7,0.1,1.4,0.1,2.2-0.1
	c1.4-0.2,2.8-0.8,3.9-1.8c1.2-1,2-2.5,2.2-4c0-0.3,0.1-0.5-0.1-0.7c-0.2-0.3-0.5-0.4-0.9-0.5c-0.6-0.2-0.9-0.8-1.3-1.2
	C115.3,330.1,113.6,332.5,112.2,332.1z"/>
<path fill="#EAEAEA" stroke="#D6D6D6" stroke-miterlimit="10" d="M129.5,315.4c0.8,0.7,2.1,0.6,3.1,0.4c0.8-0.1,1.6-0.3,2.1-0.9
	c0.6-0.7,0.6-1.6,0.5-2.5c0-0.9-0.1-1.7-0.1-2.6c0-0.4,0-0.9-0.2-1.3c-0.4-0.9-1.6-1.1-2.5-1c-1,0.1-1.9,0.5-2.8,0.6
	c-0.2,0-0.4,0-0.5,0.1c-0.2,0.1-0.3,0.4-0.3,0.6c-0.3,1.5-0.3,3-0.1,4.5C128.8,314.1,129,314.9,129.5,315.4z"/>
<path fill="#EAEAEA" stroke="#D6D6D6" stroke-miterlimit="10" d="M136,327.8c0.3-0.1,0.7-0.2,0.9-0.4c0.3-0.2,0.4-0.7,0.2-0.9
	c-0.1-0.1-0.2-0.1-0.3-0.2c-0.7-0.3-1.4-0.9-0.9-1.4c0.9-1.1,2.1-0.5,3.5-0.8c1-0.2,2.5-0.8,3.5-0.4c0.1,0.1,0.3,0.1,0.3,0.3
	c0.2,0.3-0.2,0.7-0.4,0.9c-0.6,0.4-1.1,1.1-0.9,1.8c0.2,0.6,1,0.9,1.6,1.1c0.6,0.2,1.3,0.8,1.1,1.4c-0.1,0.5-0.7,0.7-1.2,0.9
	c-1,0.3-1.9,0.6-2.9,0.9c-0.6,0.2-1.2,0.4-1.8,0.3c-1.3,0-2.7,0-3.8-0.6C133.8,330.1,134.9,328.3,136,327.8z"/>
<path fill="#EAEAEA" stroke="#D6D6D6" stroke-miterlimit="10" d="M-11.8,234.3c1.3,1.1,2.9,1.8,4.5,1.8c1.5,0.1,3.2-0.5,3.6-1.9
	c0.1-0.4,0.1-0.9,0.4-1.2c0.4-0.5,1.1-0.6,1.7-0.9c1.5-0.9,1.1-3.1,1.9-4.6c0.5-0.9,1.4-1.6,1.6-2.6c0.3-1.9-2.1-3.1-2.8-5
	c-0.5-1.2-0.1-2.6-0.6-3.8c-0.7-1.8-2.9-2.6-3.5-4.4c-0.1-0.4-0.2-0.9-0.5-1.2c-0.6-0.7-1.7-0.3-2.5,0.2c-1.9,1.1-3.8,2.2-5.7,3.3
	c-0.1,5.6,0.1,11.2,0.5,16.7C-13.2,232-12.6,233.6-11.8,234.3z"/>
<path fill="none" stroke="#D6D6D6" stroke-miterlimit="10" d="M-13.2,179c1.5-1.5,3.7-3,5.4-1.9c0.5,0.3,0.9,0.9,1.4,1.2
	c0.7,0.5,1.6,0.5,2.5,0.7c0.8,0.2,1.8,0.7,1.9,1.5c0.1,0.3,0,0.7,0,1c-0.4,2.4-0.1,4.9,0.7,7.2c0.2,0.5,0.4,1,0.8,1.4
	c0.4,0.5,1,0.8,1.6,1c2.8,0.9,5.8-0.4,8.5-1.5c8.9-3.5,18.4-5.1,27.4-8.2c0.7-0.3,1.5-0.5,2.1-1c1-0.7,1.8-1.6,2.5-2.6
	c3.3-4.8,5.7-10.1,9.7-14.3c1.4-1.5,3.1-2.9,4.3-4.6c0.8-1.1,1.4-2.3,2.1-3.5c1.6-2.6,3.7-5,6.2-6.8"/>
<path fill="#EAEAEA" stroke="#D6D6D6" stroke-miterlimit="10" d="M129.4,79.9c0.6-1,2-2.4,1.3-3.4c-1-1.4-3.4-0.3-4.9,0.5
	c-0.6,0.3-1.3,0.7-1.6,1.3c-0.4,0.6-0.5,1.4,0,2c0.2,0.3,0.5,0.5,0.9,0.6c0.9,0.5,1.9,1,2.9,0.6C128.6,81.2,129,80.6,129.4,79.9z"/>
<path fill="#EAEAEA" stroke="#D6D6D6" stroke-miterlimit="10" d="M318,6.9c-0.2-0.1-0.4-0.1-0.6-0.1c-0.2,0.1-0.3,0.3-0.5,0.4
	c-0.9,1.3-1.9,2.7-2.8,4c-0.4,0.6-0.8,1.5-0.3,2c0.4,0.4,1.1,0.3,1.7,0c1.6-0.7,3.2-1.7,4.5-2.9c0.6-0.5,1.3-1.4,0.8-2
	C320.1,7.6,319,7.3,318,6.9z"/>
<path fill="none" stroke="#D6D6D6" stroke-miterlimit="10" d="M276.9,169.9c0.2,0.2,0.6,1.1,0.6,1.4c0.1,1-0.4,2.3,0.3,3
	c0.1,0.1,0.4,0.1,0.5,0.2c0.5,0.4,0.9,0.9,1.1,1.4c0.1,0.2,0.2,0.4,0.3,0.6c0.2,0.3,0.6,0.5,0.9,0.7c0.8,0.6,1.3,2.1,0.5,2.8
	c-1.2,1.1-3.1,1.2-4.7,1.4"/>
<path fill="#FFFFFF" stroke="#4E9BD7" stroke-miterlimit="10" d="M185.1,186c0.5,0,1.1,0,1.6-0.2c0.5-0.2,1.1-0.8,0.8-1.3
	c-0.6-0.9-2.3-0.6-3,0.2c-0.2,0.3-0.3,0.7-0.2,0.9C184.5,185.9,184.8,186,185.1,186z"/>
<path fill="#FFFFFF" stroke="#D6D6D6" stroke-miterlimit="10" d="M261.7,210.1c1.3-0.4,3.6-2.2,2.4-2.9c-1.1-0.7-3.5,0.9-4.4,2
	c-0.3,0.4,0.2,1,0.6,1.1C260.8,210.3,261.3,210.2,261.7,210.1z"/>
<path fill="none" d="M206.3-38.9c9.4,19.8,18.8,39.6,28.2,59.5c2.3,4.9,5,14.5,9.3,17.7"/>
<text transform="matrix(0.4289 0.9033 -0.9033 0.4289 225.5155 7.4816)"><tspan x="0" y="0" fill="#7D7D7D" font-family="'Verdana-Italic'" font-size="7">9</tspan><tspan x="4.5" y="0" fill="#7D7D7D" font-family="'Verdana-Italic'" font-size="7">0</tspan><tspan x="8.9" y="0" fill="#7D7D7D" font-family="'Verdana-Italic'" font-size="7" rotate="0">0</tspan><tspan x="13.4" y="0" fill="#7D7D7D" font-family="'Verdana-Italic'" font-size="7">0</tspan></text>
<path fill="none" d="M42,45.5c1-2.8,4.2-4,6.8-5.5c6.2-3.5,10.5-10,17.2-12.4"/>
<text transform="matrix(0.8821 -0.4711 0.4711 0.8821 46.1435 44.3635)"><tspan x="0" y="0" fill="#7D7D7D" font-family="'Verdana-Italic'" font-size="7">1</tspan><tspan x="4.7" y="0.1" fill="#7D7D7D" font-family="'Verdana-Italic'" font-size="7" rotate="-6.5">0</tspan><tspan x="9.4" y="-0.5" fill="#7D7D7D" font-family="'Verdana-Italic'" font-size="7" rotate="-12.5">6</tspan><tspan x="13.8" y="-1.5" fill="#7D7D7D" font-family="'Verdana-Italic'" font-size="7" rotate="-12.9">0</tspan><tspan x="17.9" y="-2.5" fill="#7D7D7D" font-family="'Verdana-Italic'" font-size="7" rotate="-7.5">0</tspan></text>
<path fill="none" d="M280.5,304.5c-2.7-5-2.4-11.4,0.7-16.2c3.6-5.5,10.4-8.8,12.1-15.1"/>
<text transform="matrix(6.639321e-02 -0.9978 0.9978 6.639321e-02 281.1303 298.2856)"><tspan x="0" y="0" fill="#7D7D7D" font-family="'Verdana-Italic'" font-size="7">1</tspan><tspan x="3.8" y="-0.1" fill="#7D7D7D" font-family="'Verdana-Italic'" font-size="7" rotate="15.5">0</tspan><tspan x="7.4" y="0.8" fill="#7D7D7D" font-family="'Verdana-Italic'" font-size="7" rotate="31.9">2</tspan><tspan x="10.8" y="3" fill="#7D7D7D" font-family="'Verdana-Italic'" font-size="7" rotate="41.3">0</tspan><tspan x="14.1" y="5.9" fill="#7D7D7D" font-family="'Verdana-Italic'" font-size="7" rotate="42.2">0</tspan></text>
<text transform="matrix(1 0 0 1 192.4008 174.3928)"><tspan x="0" y="0" fill="#7BBCEB" font-family="'Verdana-Italic'" font-size="8">Adair</tspan><tspan x="0" y="9.6" fill="#7BBCEB" font-family="'Verdana-Italic'" font-size="8">Lake</tspan></text>
<text transform="matrix(1 0 0 1 65.9148 301.5293)"><tspan x="0" y="0" fill="#585858" font-family="'Verdana-Italic'" font-size="8">Gray</tspan><tspan x="0" y="9.6" fill="#585858" font-family="'Verdana-Italic'" font-size="8">Peak</tspan></text>
<text transform="matrix(1 0 0 1 311.7831 133.4146)" fill="#585858" font-family="'Verdana-Italic'" font-size="8">10213 ×</text>
<text transform="matrix(1 0 0 1 29.7613 305.2889)" fill="#585858" font-family="'Verdana-Italic'" font-size="8">11573 ×</text>
<path fill="none" d="M163.3,228.3c2.8,0.8,6.4-0.2,8.5-2.2c4.9-4.7,5.4-12.5,9.1-18.2"/>
<text transform="matrix(0.7949 -0.6067 0.6067 0.7949 171.0067 230.0529)"><tspan x="0" y="0" fill="#7D7D7D" font-family="'Verdana-Italic'" font-size="7">9</tspan><tspan x="5.4" y="-0.3" fill="#7D7D7D" font-family="'Verdana-Italic'" font-size="7" rotate="-20.2">8</tspan><tspan x="9.9" y="-2.1" fill="#7D7D7D" font-family="'Verdana-Italic'" font-size="7" rotate="-30.3">0</tspan><tspan x="13.8" y="-4.4" fill="#7D7D7D" font-family="'Verdana-Italic'" font-size="7" rotate="-32.8">0</tspan></text>
<path fill="none" d="M35,219.2c1.2-2.4,1.1-5.2,1.6-7.8c1.4-7.7,7.5-13.6,9.8-21"/>
<text transform="matrix(0.1231 -0.9924 0.9924 0.1231 38.6425 215.2365)"><tspan x="0" y="0" fill="#7D7D7D" font-family="'Verdana-Italic'" font-size="7">1</tspan><tspan x="3.9" y="-0.1" fill="#7D7D7D" font-family="'Verdana-Italic'" font-size="7" rotate="11.9">0</tspan><tspan x="7.9" y="0.8" fill="#7D7D7D" font-family="'Verdana-Italic'" font-size="7" rotate="20.4">4</tspan><tspan x="11.9" y="2.3" fill="#7D7D7D" font-family="'Verdana-Italic'" font-size="7" rotate="23.7">0</tspan><tspan x="16.1" y="4.2" fill="#7D7D7D" font-family="'Verdana-Italic'" font-size="7" rotate="22.2">0</tspan></text>
<path fill="none" d="M160,128.2c1.6-3.7,1.6-7.9,3.2-11.6c3.1-6.8,8.1-12.5,13-18.1"/>
<text transform="matrix(0.2177 -0.976 0.976 0.2177 163.9984 123.363)"><tspan x="0" y="0" fill="#7D7D7D" font-family="'Verdana-Italic'" font-size="7">1</tspan><tspan x="3.9" y="-0.1" fill="#7D7D7D" font-family="'Verdana-Italic'" font-size="7" rotate="12.2">0</tspan><tspan x="8" y="0.8" fill="#7D7D7D" font-family="'Verdana-Italic'" font-size="7" rotate="18.2">0</tspan><tspan x="12.1" y="2.1" fill="#7D7D7D" font-family="'Verdana-Italic'" font-size="7" rotate="22.9">0</tspan><tspan x="16" y="3.8" fill="#7D7D7D" font-family="'Verdana-Italic'" font-size="7" rotate="26.1">0</tspan></text>
<path fill="none" d="M345.3,79c1.9-5.9-4.5-12-4.7-18.2c-0.1-5.7,2.9-11,4.1-16.7c0.8-3.8,0.8-7.8,1.9-11.5"/>
<text transform="matrix(0.2085 -0.978 0.978 0.2085 343.0819 59.1208)"><tspan x="0" y="0" fill="#7D7D7D" font-family="'Verdana-Italic'" font-size="7">9</tspan><tspan x="4.2" y="0" fill="#7D7D7D" font-family="'Verdana-Italic'" font-size="7" rotate="6.2">6</tspan><tspan x="8.6" y="0.6" fill="#7D7D7D" font-family="'Verdana-Italic'" font-size="7" rotate="5.9">0</tspan><tspan x="13.3" y="1.1" fill="#7D7D7D" font-family="'Verdana-Italic'" font-size="7" rotate="-0.9">0</tspan></text>
<path fill="none" d="M90.6,176.5c3.3-11,6.6-22.1,10-33.1"/>
<text transform="matrix(0.288 -0.9576 0.9576 0.288 94.6308 171.8293)"><tspan x="0" y="0" fill="#7D7D7D" font-family="'Verdana-Italic'" font-size="7">1</tspan><tspan x="4.5" y="0" fill="#7D7D7D" font-family="'Verdana-Italic'" font-size="7">1</tspan><tspan x="8.9" y="0" fill="#7D7D7D" font-family="'Verdana-Italic'" font-size="7">0</tspan><tspan x="13.3" y="0" fill="#7D7D7D" font-family="'Verdana-Italic'" font-size="7">0</tspan><tspan x="17.8" y="0" fill="#7D7D7D" font-family="'Verdana-Italic'" font-size="7">0</tspan></text>
<path fill="none" d="M10.6,324.2c9,5.3,15.9,13.8,25.2,18.5"/>
<text transform="matrix(0.7961 0.6052 -0.6052 0.7961 12.7665 328.6105)"><tspan x="0" y="0" fill="#7D7D7D" font-family="'Verdana-Italic'" font-size="7">1</tspan><tspan x="4.3" y="0" fill="#7D7D7D" font-family="'Verdana-Italic'" font-size="7" rotate="2.3">0</tspan><tspan x="8.8" y="0.2" fill="#7D7D7D" font-family="'Verdana-Italic'" font-size="7" rotate="2.8">6</tspan><tspan x="13.3" y="0.4" fill="#7D7D7D" font-family="'Verdana-Italic'" font-size="7" rotate="1.5">0</tspan><tspan x="17.9" y="0.6" fill="#7D7D7D" font-family="'Verdana-Italic'" font-size="7" rotate="-1.7">0</tspan></text>
<g>
	<g>
		<polyline fill="none" stroke="#7D7D7D" stroke-miterlimit="10" points="85.2,341.6 85.2,348.7 275.4,348.7 275.4,341.7 		"/>
		<line fill="none" stroke="#7D7D7D" stroke-miterlimit="10" x1="180.5" y1="341.4" x2="180.5" y2="348.7"/>
		<line fill="none" stroke="#7D7D7D" stroke-miterlimit="10" x1="161.2" y1="349.2" x2="161.2" y2="343.7"/>
		<line fill="none" stroke="#7D7D7D" stroke-miterlimit="10" x1="142.4" y1="349.2" x2="142.4" y2="343.7"/>
		<line fill="none" stroke="#7D7D7D" stroke-miterlimit="10" x1="123.3" y1="349.2" x2="123.3" y2="343.5"/>
		<line fill="none" stroke="#7D7D7D" stroke-miterlimit="10" x1="104.6" y1="349.2" x2="104.6" y2="343.7"/>
	</g>
	<text transform="matrix(1 0 0 1 83.7833 339.1469)" fill="#7D7D7D" font-family="'Verdana'" font-size="8">0</text>
	<text transform="matrix(1 0 0 1 174.2944 339.1469)" fill="#7D7D7D" font-family="'Verdana'" font-size="8">0.5</text>
	<text transform="matrix(1 0 0 1 258.3413 339.1469)" fill="#7D7D7D" font-family="'Verdana'" font-size="8">1 mi</text>
</g>
</svg>
