<?xml version="1.0" encoding="utf-8"?>
<!-- Generator: Adobe Illustrator 17.1.0, SVG Export Plug-In . SVG Version: 6.00 Build 0)  -->
<!DOCTYPE svg PUBLIC "-//W3C//DTD SVG 1.1//EN" "http://www.w3.org/Graphics/SVG/1.1/DTD/svg11.dtd">
<svg version="1.1" id="Layer_1" xmlns="http://www.w3.org/2000/svg" xmlns:xlink="http://www.w3.org/1999/xlink" x="0px" y="0px"
	 viewBox="0 0 360 360" enable-background="new 0 0 360 360" xml:space="preserve">
<path fill="none" stroke="#E1E1E1" stroke-miterlimit="10" d="M172.7,139.7c-0.7,0.7-0.8,1.9-0.3,2.8c0.5,0.9,1.8,1.7,2.6,1.1
	c1.3-1.1,2-4,0.7-5C174.8,137.9,173.4,138.9,172.7,139.7z"/>
<path fill="none" stroke="#E1E1E1" stroke-miterlimit="10" d="M-11.5,82.9c0.4,1.2,0.9,2.4,2,2.8c1.4,0.6,3-0.1,4.4,0.5
	c0.6,0.3,1,0.9,1.5,1.3c1.4,1.5,3.5,2.5,5.5,2.5s3.8-1.5,5-3.1c1.7-2.2,3.4-7.2,4-10.9c0.5-2.9,0.4-6,1-8.9c0.7-3.1,2.1-6,3.5-8.8
	c1.9-3.7,6.2-7.1,5.6-11.2c-0.2-1.3-2.4-1.2-3.7-0.8c-1.3,0.4-2.4,1.2-3.4,1.9C5.6,54.6-2.8,60.8-11,67.3"/>
<path fill="none" stroke="#E1E1E1" stroke-miterlimit="10" d="M80.2,30.8c0.7,1,2.1,1.4,3.3,1.3c1.2-0.1,2.8-1.3,2.2-2.3
	c-0.7-1.2-2.6-1.3-4-1C80.9,29,79.7,30,80.2,30.8z"/>
<path fill="none" stroke="#E1E1E1" stroke-miterlimit="10" d="M86.8,19.9c0.9-1.1,0.7-3-0.5-3.8c-1.3-0.8-3.2-0.2-3.8,1.2
	c-0.4,1.1,0.1,2.5,1.1,3.1C84.6,21,86,20.8,86.8,19.9z"/>
<path fill="none" stroke="#E1E1E1" stroke-miterlimit="10" d="M107.7,4.8c-0.5,0.3-0.9,0.6-1.2,1c-0.5,0.7-0.4,1.7,0.2,2.3
	c0.4,0.4,1.1,0.6,1.6,0.9c0.6,0.3,1.1,0.7,1.1,1.4c0,0.2,0,0.5,0.1,0.7c0.1,0.2,0.4,0.3,0.6,0.3c3.6,0.6,7.5-1.1,9.5-4.1
	c0.3-0.5,0.7-1.1,0.6-1.7c-0.1-0.7-0.7-1.3-1.4-1.7s-1.4-0.6-2-1.1c-1.2-1-1.5-2.7-2.3-4.1c-0.4-0.6-0.9-1.2-1.5-1.5
	c-0.7-0.3-1.5-0.2-2,0.4c-0.5,0.5-0.5,1.3-0.3,2c0.2,0.7,0.6,1.2,1,1.8c0.1,0.2,0.2,0.3,0.2,0.5c0,0.3-0.3,0.6-0.6,0.7
	C110.1,3.3,108.9,4.1,107.7,4.8z"/>
<path fill="none" stroke="#E1E1E1" stroke-miterlimit="10" d="M328.8,177.5c1-1.6,1.9-3.4,3.4-4.4c1.1-0.8,2.6-1.2,3.3-2.3
	c0.6-0.9,0.5-2.1,0.9-3.2c0.3-0.7,0.8-1.3,1.3-1.9c3.8-4.8,4.2-11.5,4.4-17.6c0-0.8,0-1.7-0.4-2.4c-0.9-1.6-3.1-1.6-4.9-1.3
	c-6.4,1-12.7,2.8-18.9,4.7c-1.5,0.4-3,0.9-4.4,1.3c-1.1,0.3-2.2,0.6-3.1,1.3c-1.2,0.8-2.1,2.1-3,3.2c-4.5,5.9-12.6,15.8-18.4,11.1
	c-1.9-1.6-3.6-3-6-3c-6.3,0-12.7,1-18.7,2.9c-1.4,0.5-2.9,1-4.1,1.9c-2,1.5-3.2,3.9-4.2,6.2c-1.2,2.5-2.3,4.9-3.5,7.4
	c-1.2,2.5-2.4,5.1-3.3,7.8c-0.7,2-1.2,4.2-0.8,6.3c0.4,2.1,2,4.1,4.1,4.3c0.8,0.1,1.7,0,2.4,0.4c0.6,0.4,0.9,1,1.4,1.5
	c1.7,1.3,4.4-0.6,6.2,0.5c0.5,0.3,0.9,0.8,1.3,1.3c2.6,3.5,5.9,6.6,9.9,8.5c4,1.8,8.6,2.4,12.8,1.1c1.3-0.4,2.5-1,3.8-1.1
	c0.9-0.1,1.8-0.1,2.7-0.3c1.9-0.4,3.3-2,4.9-3.1c2.4-1.7,5.3-2.6,7.8-4.1c2.5-1.6,2.4-4.9,4.3-7.2c1.7-2.1,4.7-2.3,6.5-4.2
	C321,188,325.5,183.1,328.8,177.5z"/>
<path fill="none" stroke="#E1E1E1" stroke-miterlimit="10" d="M315.8,172.6c2.8-2.8,5.4-5.9,7.7-9.1c0.5-0.7,1.1-1.5,1.2-2.5
	c0.1-0.9-0.4-2-1.3-2.2c-1-0.2-1.9,0.6-2.6,1.3c-2.5,2.3-5.7,3.8-9,4.2c-2,0.3-4.3,0.2-5.9,1.4c-1,0.8-1.6,1.9-2.5,2.8
	c-3.6,4-10.2,3.2-15,5.8c-0.4,0.2-0.9,0.5-1.4,0.6c-0.7,0.2-1.4,0-2.1-0.1c-1.9-0.1-3.7,0.6-5.6,0.7s-4.1-0.6-4.6-2.5
	c-0.2-0.6-0.1-1.3-0.5-1.8c-0.4-0.5-1-0.6-1.6-0.7c-1.8-0.3-3.7-0.7-5.6-0.3c-1.8,0.4-3.6,1.8-3.8,3.6c-0.1,0.8,0.1,1.6,0.2,2.3
	c1.1,5.2,2.2,10.3,3.3,15.5c0.2,0.9,0.4,1.9,1,2.6c0.5,0.6,1.2,1,1.9,1.4c4.3,2.3,9,4.7,13.8,4c1.8-0.3,3.6-0.9,5.4-1
	c2.3-0.1,4.6,0.8,6.8,0c3.2-1.2,4.3-5.4,7.3-7c1-0.5,2.3-0.8,2.9-1.7c0.6-0.8,0.6-1.8,0.9-2.7c0.7-2.1,3-3.2,4.9-4.3
	c1.9-1.2,3.8-3.3,3-5.4c-0.2-0.6-0.7-1.2-0.8-1.8C313.8,174.7,314.9,173.5,315.8,172.6z"/>
<path fill="none" stroke="#E1E1E1" stroke-miterlimit="10" d="M239.5,196.4c0.6,0.7,1.6,0.2,2.4-0.2c1.8-1.1,4.9-3,3.7-4.8
	c-0.3-0.5-1.2-0.7-1.8-0.6c-0.4,0.1-0.8,0.3-1.1,0.5c-1.2,0.8-2.3,2-3,3.3C239.3,195.2,239.1,195.9,239.5,196.4z"/>
<path fill="none" stroke="#E1E1E1" stroke-miterlimit="10" d="M104,187c3.3-0.1,10.6,9.5,12.6,12.1c1.9,2.6,3.4,5.7,5.8,8
	c0.3,0.3,0.6,0.6,0.8,1c0.4,1-0.6,2-1.2,3c-1.4,2.2-0.1,5.6,2.4,6.3c0.9,0.3,1.9,0.3,2.6,0.8c0.5,0.3,0.8,0.9,1.2,1.2
	c1.5,1.2,3.8-0.1,4.6-1.8c0.8-1.7,0.7-3.7,1.2-5.6c0.2-0.6,0.4-1.2,0.6-1.9c1.2-3.2,2.8-6.2,3.8-9.4c1.5-5,1.3-10.4,1.2-15.6
	c0-1.5-0.1-3.1-1-4.3c-1.1-1.5-3.2-2-5.1-2c-1.9,0-3.9,0.2-5.7-0.4c-0.9-0.3-1.7-0.8-2.5-1.2c-3.9-1.6-7.7,2.1-12,2.5
	c-0.9,0.1-2-1-2.9-0.9c-1.4,0.1-2.4,1.2-3.7,1.7c-1.3,0.5-2.7,0.5-4.1,0.6c-1.4,0.1-2.8,0.5-3.7,1.5c-0.3,0.3-0.5,0.6-0.7,0.9
	c-0.4,0.4-0.9,0.5-1.4,0.8c-2,0.9-3.8,2.3-5.1,4c-0.2,0.2-0.4,0.5-0.3,0.8c0,0.2,0.2,0.4,0.3,0.6c0.6,0.7,1.5,1.2,2.4,1.2
	c0.9,0,1.8-0.9,1.6-1.8c0-0.2-0.1-0.5,0-0.7c0.1-0.1,0.2-0.1,0.2-0.1C98.4,187.7,101.4,187.1,104,187z"/>
<path fill="none" stroke="#E1E1E1" stroke-miterlimit="10" d="M65.3,158.4c-0.1,1.4-0.1,3.3,1.3,3.8c0.9,0.3,1.9-0.2,2.4-0.9
	s1-1.9,0.5-2.7c-0.7-1-2.2-0.9-3.4-1c-0.2,0-0.3,0-0.5,0.1C65.3,157.7,65.3,158.1,65.3,158.4z"/>
<path fill="none" stroke="#E1E1E1" stroke-miterlimit="10" d="M101,153c0.7-0.6-0.5-2.1,0-2.8c0.7-0.9,2.6-0.1,3.3-1.1
	c0.5-0.8,0.4-2,0-2.8c-0.5-0.9-2-0.1-2.9,0.5c-1.1,0.6-2.3,1.3-3.1,2.3c-0.8,1-1.6,2.9-0.6,3.6C98.7,153.3,100.2,153.7,101,153z"/>
<path fill="none" stroke="#E1E1E1" stroke-miterlimit="10" d="M271.3,143.3c0.3-0.5,0.1-1.2-0.3-1.7c-0.3-0.5-0.7-0.9-1.3-0.9
	c-0.4,0-0.8,0.1-1.2,0.3c-1.6,0.9-4.3,3-3.1,4.3c1.1,1.2,3.3-0.4,4.8-1.1C270.7,144,271.1,143.7,271.3,143.3z"/>
<path fill="none" stroke="#E1E1E1" stroke-miterlimit="10" d="M-11.4,171.3c1.4-0.8,2.8-1.7,4-2.7c0.8-0.7,1.6-1.5,2.6-2
	c1.7-0.9,3.8-0.8,5.7-1c5.4-0.7,9.8-4.5,14.8-6.8c3.7-1.7,3.6-7.7,5.8-8.7c2.1-0.9,4.7-1,6.4-2.7c0.8-0.8,1.3-1.9,2-2.7
	c1.1-1.3,2.7-2.1,4.3-2.8c6-2.8,12.1-5.5,18.1-8.3c2.7-1.2,5.3-2.4,7.8-4c5-3.1,9.2-7.6,14.5-10.2c5.8-2.8,12.4-3,18.8-3.2
	c7.7-0.2,16.2-0.2,22.1,4.7c1.9,1.6,3.5,3.7,5.8,4.4c7.2,2.3,14.7-1.7,20.9-6.1c3.3-2.4,2-8.3,5.8-10c1.3-0.6,2.9-1,3.8-2.1
	c0.7-0.8,0.9-1.9,1.4-2.9c2.8-6.1,12.2-6,16-11.5c0.6-0.9,1.1-2,1.9-2.8c0.8-0.8,1.9-1.2,2.9-1.6c3.6-1.5,7.9-2.4,11.5-3.9
	c5.3-2.2,9.9-3,15.3-4.8c0.9-0.3,2.6-1.4,3.5-1.7c3.2-1.1,6.6,0,10-0.1c3.8-0.1,8,0.5,10.7,3.2c1.2,1.2,2,2.7,3.3,3.7
	c1.6,1.2,3.7,1.5,5.6,2.1c6.7,2,12.2,7.6,14,14.4c0.2,0.9,0.4,1.9,1,2.7c1,1.2,2.7,1.5,4.3,1.6c2.9,0.3,5.7,0.6,8.6,0.9
	c2.3,0.2,4.7,0.4,6.7-0.5c2.6-1.2,4.1-4.1,5.5-6.6c3.3-5.9,7.4-11.3,12.3-16c4.5-4.4,10.5-8.3,16.6-6.9c3.4,0.8,6.2,3.1,9.3,4.6
	c5.8,2.8,13,2.5,18.6-0.7c3.7-2.2,6.6-5.5,10.4-7.6c3-1.6,6.4-2.4,9-4.5c2.7-2.1,0.8-5.7,2.1-8.8c0.7-1.6,2.6-2.1,4.5-2.5
	c1.5-0.3,3.2-0.2,4.3-1.3c1.1-1.1,1.6-2.8,1.3-4.4c-0.3-1.5-1.2-2.7-2.1-3.9c-1.1-1.5-2.2-2.9-3.4-4.3c-0.2-0.2-0.4-0.4-0.5-0.7
	c-0.1-0.3-0.2-0.7-0.2-1c0-1.2,0.2-2.4-0.1-3.6c-0.1-0.5-0.6-1.2-0.9-1.7c-1.3-2.8-2.9-5.4-5.3-7.2c-5.3-3.9-12.5,2.2-18.7,0.2
	c-1.3-0.4-2.6-2.4-2.1-3.6c1.2-2.8,2.1-5.3,3.6-8c0.6-1,1.5-1.8,2.5-2.5c2.1-1.6,5-2.6,6.4-4.9c2.1-3.3,0.6-8.1,2.6-11.5
	c0.6-1,2.3-0.3,3.1,0.6c0.8,0.9,1.1,2.1,1.6,3.1c1.2,2.7,3.1,5.8,6.1,5.9c0.7,0,1.4-0.5,1.9,0c0.6,0.4,1,1,1.6,1.4
	c1.8,1.6,4.5,1.7,6.9,1.7c2.2,0,4.4,0,6.6,0.1"/>
<path fill="none" stroke="#E1E1E1" stroke-miterlimit="10" d="M333.7,51.8c-2.7,0-5.4,0.1-8.1,0.1c-2,0-4.1,0.1-6,0.8
	c-2,0.8-3.7,2.3-5.9,2.3c-0.5,0-1-0.1-1.5,0.1c-0.4,0.2-0.8,0.5-1.1,0.9c-0.8,0.9-1.5,2.2-1,3.3c0.4,0.9,1.6,1.3,2.6,1.2
	s2-1.9,2.8-1.2c1.7,1.6,1.1,4.7,3.4,5.1s4.7-0.7,7-1.4c3.4-1.2,8,0.6,10.7-1.8c2.1-1.8,4.5-3.9,4.6-6.7c0-0.5-0.1-1.1,0.1-1.6
	c0.2-0.5,0.7-0.7,1-1.1c0.9-1.2-0.4-3.1-1.9-3.2s-2.9,0.9-3.9,2c-0.3,0.4-0.7,0.8-1.1,1C335,51.8,334.3,51.8,333.7,51.8z"/>
<path fill="none" stroke="#E1E1E1" stroke-miterlimit="10" d="M206.1,67.7c2.1-0.2,4.2-0.3,6.4-0.4c3.1-0.1,6.3,0.1,8.9,1.8
	c2.4,1.6,3.9,4.3,6.1,6.1c2.3,1.8,4.7-0.4,7.6-0.2c3,0.1,3.7,4.9,6.6,5.5c1,0.2,2.1,0.3,3,0.9c0.9,0.6,1.4,1.6,1.9,2.5
	c1.1,2.1,2.2,4.2,3.3,6.2c1.3,2.4,2.7,5,5.3,5.9c4,1.4,8.1-2.1,9.9-5.8c1.8-3.8,2.5-8.2,5.1-11.5c1.5-1.9,3.5-3.3,5.2-4.9
	c6.6-6.1,9.4-15.4,15.5-22.1c1.5-1.6,3.1-3.1,4.3-4.9c1-1.5,1.6-3.3,2.2-5c1.7-4.8,3.4-9.7,5.1-14.5c0.5-1.5,1-3,2-4.3
	c0.8-1.2,2-2.1,2.8-3.3c0.7-1.1,1.1-2.4,1.7-3.6c0.6-1.2,1.4-2.4,2.2-3.5c3.8-5.4,7.7-10.7,11.6-16"/>
<path fill="none" stroke="#E1E1E1" stroke-miterlimit="10" d="M206.1,67.7c-0.9,0.1-1.9,0.2-2.8,0.3c-0.5,0.1-1.4,0.3-1.8,0.4
	c-9.8,2.1-19.7,4.3-28.7,8.7c-1.5,0.7-3.2,0.4-4.6,1.1c-3.9,2-6.3,5.5-9.5,8.4c-2,1.9-4.6,1.5-6.8,3.1c-2.1,1.6-3.7,2.7-5,5
	c-2.2,4-4.4,6.3-8.3,8.3c-2.2,1.1,2.1,2.2-4.6,11.3c-2.5,3.3-9.5,4.6-11.2,3.7c-5.5-3.1-10.8-7.9-17.1-7.7c-2.1,0.1-4.3,0.9-6.4,0.3
	c-1.2-0.3-2.2-1.1-3.3-1.5c-1.2-0.3-2.4-0.2-3.6-0.2c-4,0-7.9-1.3-11.9-1.4c-3.5,0-7.1,1-10,2.9c-1.4,0.9-2.7,2-4,3
	c-5.5,4.1-14.4,2.1-19,7.2c-1.5,1.7-2.2,3.9-4.2,4.9c-4.9,2.5-12.5,0.8-15.5,5.4c-2.2,3.3-3,7.2-6.7,8.4c-3.7,1.3-8,1.7-10.9,4.4
	c-0.7,0.6-1.2,1.4-2,1.9c-1,0.6-2.1,0.8-3.2,1.1c-6.3,1.6-11.3,8.1-15.1,9.5c-0.7,0.2-1.3,0.5-2,0.9"/>
<path fill="none" stroke="#E1E1E1" stroke-miterlimit="10" d="M-11.7,125.5c0.2-0.6,0.5-1.2,0.7-1.9c0.8-2.4,1.7-5.1,3.7-6.7
	c1.3-1,2.9-1.4,4.4-1.7c3.4-0.8,6.8-1.4,10.3-1.9c0.6-0.1,1.2-0.2,1.8,0c1.1,0.3,1.7,1.5,2.5,2.4s1.8,0.3,3,0.4
	c1.1,0,0.7,2.2,1.6,2.7c1.4,0.9,3.1-1.1,3.7-2.5c0.6-1.5-0.8-4.1,0.7-4.7c1.6-0.7,3.3,1.1,4.9,0.6s3.2-1.4,4.9-1.9
	c1.5-0.4,3.1-0.4,4.6-0.8s3-1.4,3.4-2.9c0.6-2.2-1.4-4.3-3.5-5.5c-2-1.1-4.4-2.1-5.4-4.3c-0.5-1.2-0.5-2.6-0.4-4
	c0.3-3.5-1.9-8.8,1.2-10.5c1.9-1,4.4,0.6,6.1-0.7c0.5-0.4,1-0.9,1.6-1.1c0.7-0.3,1.4-0.2,2.2-0.1c4.5,0.5,8.9,1.6,13.1,3.2
	c0.8,0.3,1.7,0.7,2,1.5c0.2,0.6,0.1,1.2-0.1,1.8c-1,3.8-6.5,6.3-5.6,10.1c0.6,2.3,4.2,2.6,5.2,4.7c0.3,0.6,0.5,1.2,1.1,1.5
	c0.7,0.3,1.6-0.1,2.4-0.3c0.8-0.1,1.5,0.1,2.3,0.3c4.9,0.9,9.1-1.2,13-4.4c0.8-0.6,3.2-3.4,4.2-3.5c0.8-0.1,1.9,0.4,2.7,0.7
	c3.3,1,7.5,2.5,8.3,3.6c0.3,0.4,4.2,0.9,4.7,0.9c5.8,0,10.6,3.5,19.3,3.9c4.6,0.2,9-1.1,13.4-2.3c1.8-0.5,3.7-1.1,5.2-2.2
	c3.1-2.4,0.4-6.8,1.6-10.6c1.2-3.9,7-3.8,10.6-5.7c8.6-4.6,15.5-12,24.7-15.5c2.3-0.9,4.7-1.2,6.9-2.2c8.4-3.8,17.9-4.3,27.1-2.7
	c0.6,0.1,1.8,0.5,2.4,0.6c2.9,0.5,5.8,0.9,8.7,1.4c3.2,0.5,6.3,1.1,9.3,2.3c3.4,1.5,7.4,0.8,10.4,2.8c0.7,0.5-0.5,2.1,0.2,2.6
	c1.9,1.5,1.9-6.8,4.1-5.6c2.6,1.4,6.9,6.4,10.9,9c1.8,1.2-0.3,4,5.5,6.2c2,0.7,4.2-0.6,5.8-1.9c2.6-2.1,4.3-5,5.9-7.9
	c1-1.8,2.1-3.5,3.1-5.3c2-3.5,4.1-7,6.1-10.5c1.5-2.6,3.1-5.3,4.1-8.1c2.5-6.5,2.5-14,6.4-19.8c2.2-3.4,5.6-5.9,7.9-9.3
	c1-1.5,1.8-3.2,2.7-4.8c1.8-3.2,4.1-6.1,6.3-9c2.5-3.1,4.9-6.3,7.4-9.4"/>
<path fill="none" stroke="#E1E1E1" stroke-miterlimit="10" d="M204.4-3.8c0.2,0.5,0.4,1,0.3,1.5c-0.2,0.7-0.9,1.1-1.5,1.6
	c-3.6,2.6-3.6,8-2.4,12.2s3.6,8.3,3.4,12.8c-0.1,1.3-0.3,2.6-0.6,3.8c-0.3,1.4-0.6,2.9-0.9,4.3c-0.4,1.7-0.7,3.3-1.4,4.9
	c-0.7,1.5-1.8,3.3-1.1,4.8c0.5,1,1.4,1.4,2.5,1.4c0.6,0,1.7,0.2,2.3,0.2c6.8-0.4,12.9-4.6,17.7-9.4c2.1-2.1,4-4.6,6.7-5.9
	c1.8-0.9,3.8-1.3,5.5-2.2c3.4-1.8,5.5-5.6,9-7.3c2.6-1.2,6.8-0.6,8.6-2.8c1-1.2,1.3-2.8,2.3-3.8c2.1-2.2,6.5-1.6,8-4.3
	c0.4-0.8,0.5-1.7,1-2.4c0.8-1.3,2.3-2,3.8-2.2c4.7-0.6,7.1-3.7,8.8-7.5"/>
<path fill="none" stroke="#E1E1E1" stroke-miterlimit="10" d="M242.9-4.3c-2.9,0.8-5.9,1.4-8.9,1.9c-3.9,0.6-7.9,1.1-11.4,2.8
	c-6.1,3-9.8,9.5-12.9,15.6c-0.3,0.5-0.6,1.1-0.5,1.7c0,0.7,0.4,1.3,0.7,1.9c1.6,3,0.1,8,3,9.6c4.1,2.3,8.5-4.1,11.9-7.4
	c1.4-1.3,2.5-2.8,3.9-4.2c6.3-6,16-7.3,22.2-13.4c1.7-1.7,3.1-3.8,5.1-5.2c2-1.4,4.4-2,6.7-2.8"/>
<path fill="none" stroke="#E1E1E1" stroke-miterlimit="10" d="M332.4,48.3c0.1,0.2,0.3,0.3,0.4,0.4c0.7,0.5,1.7,0.7,2.4,0.2
	c0.5-0.5,0.5-1.4,0.3-2.1c-0.3-1-1.5-1.5-2.4-1.1C332.1,46.2,331.8,47.5,332.4,48.3z"/>
<path fill="none" stroke="#E1E1E1" stroke-miterlimit="10" d="M188.1-4.6c-0.1,1-0.3,2.1-0.5,3.1c-1.1,6.2,1.3,12.5,3.6,18.3
	c1.5,3.8,3,7.7,4.5,11.5c0.3,0.9,0.7,1.8,0.7,2.7c0,0.9-0.4,1.8-0.8,2.6c-1.3,2.7-2.6,5.3-3.8,8c-0.2,0.4-0.4,0.8-0.7,1.1
	c-0.6,0.6-1.4,0.8-2.2,1c-1.6,0.5-3.1,1.3-3.8,2.7c-0.7,1.5-0.1,3.6,1.5,4c0.9,0.2,1.9-0.2,2.8-0.3c2.2-0.2,4.2,1.1,6.3,1.9
	c3.1,1.1,6.6,0.8,9.8,0.4c6.9-0.8,14.1-1.6,19.9-5.4c4.7-3,8.1-7.6,12.8-10.6c2.1-1.3,4.4-2.2,6.7-2.9c1.1-0.3,2.3-0.6,3-1.5
	c0.5-0.5,0.8-1.1,1-1.8c1.9-4,3.7-8.7,7.6-10.7c0.3-0.2,1.1-0.2,1.5-0.3c0.7-0.1,1.3-0.3,2-0.5c5.7-1.6,10.3-5.8,14.5-10
	c3.9-4,7.7-8.1,10.4-13"/>
<path fill="none" stroke="#E1E1E1" stroke-miterlimit="10" d="M256.1,49.4"/>
<path fill="none" stroke="#E1E1E1" stroke-miterlimit="10" d="M69.4-3.4c-1,0.4-2.1,0.8-3.1,1.2c-3.1,1.2-6.3,2.4-9.5,2
	C55-0.4,53.2-1,51.4-1.3c-2.8-0.5-6.8-1.8-8.6,0.5c-1,1.3,1.5,2.9,2.9,3.7s3,1.3,4.4,2.2c1.2,0.7,2.3,2.1,1.7,3.4
	c-0.4,1-1.7,1.7-1.4,2.7c0.2,0.6,0.7,0.9,1.1,1.4c1,1.6-1.6,3.5-1.4,5.4c0,0.6,0.4,1.2,0.4,1.9c-0.1,1.2-1.3,1.9-1.8,3
	c-0.5,1.2,0.1,2.5-0.2,3.8c-0.3,1.5-1.6,2.6-2.8,3.7c-2.9,2.6-4.9,6.1-5.9,9.9c-0.1,0.5-0.2,1,0.1,1.4c0.3,0.4,1,0.4,1.5,0.4
	c1.2-0.1,2.5-0.2,3.7-0.2c0.8-0.1,1.7,0,2.2,0.6c0.3,0.4,0.3,1,0.4,1.4c0.6,2.1,4.1,0.3,5.7,1.8c2.2,2.2-4.1,10.9,6.3,18.7
	c3.3,2.5,7.7,3.1,11.8,3.6c0.4,0.1,0.9,0.1,1.3-0.1c0.5-0.2,0.9-0.7,1.2-1.3c2.4-4.1,4.4-8.5,5.9-13.1c0.8-2.4,1.4-4.8,2.1-7.2
	c0.1-0.4,0.2-0.8,0.5-1.1c0.4-0.4,1.1-0.4,1.7-0.4c1.8,0.2,3.6,0.8,5.1,1.8c0.5,0.3,0.9,0.7,1.4,0.8c0.4,0.1,0.8,0,1.2-0.2
	c3-0.9,6.2-3,9.1-1.8c1.4,0.6,2.3,1.8,3.6,2.6c1.5,0.9,3.4,1,5,1.5c3.4,1.1,6,4.1,6.7,7.5c0.5,2.6,0,5.3-1.1,7.6
	c-0.7,1.4-1.6,3-1,4.5c0.7,1.8,3.2,2.4,4.1,4.2c1.2,2.4-2.2,4.1-3.3,6.5c-1.8,3.7-1.7,8.5-2.6,12.5c-0.1,0.6-0.2,1.3,0.2,1.7
	c0.3,0.2,0.6,0.2,0.9,0.2c2.9,0,6-0.1,8.6-1.3c2.7-1.2,4.9-3.9,4.7-6.8c-0.1-1.7-1-3.2-1.4-4.8c-0.6-2.5-0.1-5.3,1.3-7.4
	c0.2-0.3,0.4-0.5,0.7-0.7c0.9-0.4,1.8,0.7,2.7,1.2c2.4,1.6,5.2-0.9,7.5-2.6c3.5-2.6,8.1-4.3,12.3-3.1c4.7,1.4,10.2,0.3,13-3.8
	c1.8-2.6,3-6.5,6.2-6.7c1.6-0.1,3.1,1,4.7,1.4c4.5,1.1,8.8-3.1,13.4-2.7c1.5,0.2,2.9,0.8,4.4,1.2c5.9,1.4,12.4-1.9,17.8,0.7
	c1.9,0.9,3.5,2.5,5.5,3.2c2.1,0.7,7.1,0.4,9.3-0.2c6-1.6,9.5-10,12.8-8.2c1.5,0.8,1.8,4.4,3.7,5.8c0.4,0.3,1.2,0.7,1.7,0.8
	c0.8,0.3,1.8-0.8,2.4-0.3c1.7,1.4,3.5,2.6,5,1.1s1.9-3.8,2.4-5.9c0.6-2.4,1.7-4.7,3.1-6.8c0.6-0.9,1.5-1.8,2.5-1.6
	c0.7,0.1,1.3,0.8,2,0.8c0.7,0,1.2-0.5,1.6-1c3-3.3,5.9-6.9,7-11.2c0.7-2.6,0.7-5.5,2.1-7.9c0.4-0.7,0.8-1.3,1.3-1.9
	c5.6-7.3,11.3-14.6,16.9-22c2.1-2.8,4.3-5.5,6.4-8.3"/>
<path fill="none" stroke="#E1E1E1" stroke-miterlimit="10" d="M-8.6-2.9c2.4,2.7,4.2,5.2,2.5,8.5c-1.1,2.2-3,5.1-1.1,6.7
	c1.4,1.1,3.4,0.3,4.9-0.6C3,8.5,7.4,1.9,13.5,2c2.9,0,1.2,5.7-1.1,7.5s-5.4,2.7-7.2,5c-1.7,2.1,0.5,5.3-0.9,7.7
	C1.7,26.5-4.8,28-3.5,32.9c0.2,0.8,0.5,1.7,0.3,2.5c-0.7,2.2-4,1-6.3,1.2c-1.1,0.1-2,0.5-2.9,1.1"/>
<path fill="none" stroke="#E1E1E1" stroke-miterlimit="10" d="M-9.2-3.5C-9-3.3-8.8-3.1-8.6-2.9"/>
<path fill="none" stroke="#E1E1E1" stroke-miterlimit="10" d="M115.5,377.8c-0.1-1.6,0.1-3.2,0.7-4.8c0.8-1.8,2.1-3.3,2.6-5.1
	c0.3-0.9,0.3-1.9,0.6-2.8c0.8-2.5,3.5-4,4.3-6.6c0.3-1.1,0.3-2.2,0.8-3.2c0.4-0.7,1-1.3,1.4-2c1-1.5,1.1-3.4,2.1-4.8
	c1.3-2,3.8-2.7,6.1-3.4c6.3-1.7,12.6-3.4,19-5.1c1.3-0.4,2.7-0.7,3.9-1.4c1.9-1,3.4-2.5,5-4c2-1.8,4.5-2.4,6.4-4.3
	c3.8-3.7,9.9-2.6,15-1.3c3.4,0.9,6.8,1.7,10.2,2.6c2.4,0.6,4.8,1.2,6.8,2.5c2,1.3,3.6,3.1,5.3,4.7c5.4,4.9,14.4,11.9,20,7.3
	c1.8-1.5,2.4-5.7,4.5-4.8c2.5,1.1-3.5,10.8-2.7,13.4c2.3,7.3,3.1,12.8,1.9,16.6c-0.4,1.3,2.5-1.9,3.7-2.6c1.2-0.7,2.2,0.9,3.6,0.6
	c6.4-1.5-3.7-12.9-3-19.5c0.2-2.2,1-4.5,2.7-5.7c0.7-0.5,1.5-0.8,2.2-1.4c1.7-1.6,2.2-4.2,4.3-5.2c1.2-0.6,0.3-2.6-0.6-3.6
	s-2.1-1.8-2.5-3c-0.7-2,0.8-4.5-0.5-6.1c-0.5-0.6-1.3-1-1.5-1.7c-0.1-0.4,0-0.9,0-1.4c0.6-4.4-3.1-8.1-4.4-12.3
	c-0.7-2.2-0.7-4.5-0.7-6.8c0-5.1,0-10.2,0-15.2c0-1.1,0-2.3-0.3-3.4c-0.7-2.7-3.1-4.7-5.3-6.4c-1.1-0.9-2.1-1.7-3.2-2.6
	c-0.8-0.6-1.5-1.2-2.4-1.8c-3.6-2.4-7.8-3.3-12-4.4c-1.8-0.5-3.6-1.1-5-2.4c-0.6-0.6-1.1-1.3-1.8-1.4c-0.9-0.2-1.8,0.6-2.7,0.8
	c-1.6,0.4-3.2-0.8-4.6-1.7c-3.7-2.6-7.9-4.4-12.4-5.2c-0.4-0.1-0.8-0.1-1.1,0c-1.4,0.5-0.5,2.6,0,4c0.8,2.3-0.6,5.2-3,5.9
	c-2.4,0.7-3.4-2.6-5.7-3.4c-2.9-1.1-2.6,5.5-2.3,8.6c0.1,0.7,0.1,1.3,0.4,2c0.3,0.8,0.9,1.4,1.5,2.1c2.9,3.6,4,8.7,2.6,13.2
	c-0.5,1.7-1.3,3.3-1.3,5.1c-0.1,2.8,1.8,5.6,1.3,8.3c-0.6,3-3.7,4.6-5.9,6.8c-1.7,1.8-4.9,1.8-7,0.5c-2.1-1.3-3.5-3.5-4.9-5.6
	c-1.5-2.2-3.2-4.2-5.1-6c-0.5-0.5-1.1-1-1.7-1c-0.4,0-0.8,0.2-1.2,0.4c-2.1,1-4.9,2.7-6.7,1.2c-1-0.9-1.9-1.9-3.2-1.7
	c-1.3,0.2-2.5,0.9-3.7,1.5c-3.1,1.4-6.9,1.5-9.7,3.4c-1.8,1.2-3,3.1-4.8,4.3c-0.9,0.6-2,1-3,1.6c-3.2,1.9-3.5,7-6.9,8.7
	c-1.8,0.9-2.7,2.8-3,4.8c-0.6,3.9-3.5,7.4-7.2,8.9c-1.7,0.7-3.7,1.1-4.5,2.7c-0.4,0.7-0.4,1.6-0.7,2.3c-0.6,1.4-2.1,2.2-3.5,3
	c-2.8,1.7-5.1,4.2-6.7,7.2c-1,1.8-1.7,4-3.5,5.1c-2.3,1.4-5.5,0.4-7.3-1.7s-2.6-4.8-3.3-7.4c-1.3-4.7-2.5-9.5-3.8-14.2
	c-0.2-0.7-0.4-1.5-0.8-2.1c-0.3-0.5-0.7-0.9-1.1-1.3c-2.7-2.5-6.3-3.8-9.9-3.6c-4.4,0.3-8.3,2.9-12.5,4c-4.6,1.1-9.4,0.5-14-0.5
	c-2-0.5-4.1-1-5.6-2.5c-2.2-2.2-2.3-5.6-2.4-8.7c0-4.8,0.5-10.6,4.7-12.9c1.3-0.7,2.8-1,4.2-1.6c2.3-1.2,3.9-3.4,5.8-5.2
	c7.8-7,21.2-5,28.1-12.8c2.1-2.4,3.4-5.5,4.5-8.5c0.6-1.5,1.2-3.1,0.9-4.7c-0.4-2-2.1-3.4-3.5-4.8c-1.4-1.5-2.4-3.3-3.3-5.1
	c-2.2-4.4-6.3-5.6-8.8-9.8c-2.4-4.3-5-9-9.6-10.7c-2.8-1.1-6.3-0.9-8.5-2.9c-0.9-0.8-1.5-1.9-2.3-2.8c-2.6-3-6.8-3.8-10.7-3.9
	c-4.6-0.1-4.6,3.4-6.6,0.9c-0.9-1.2-2.3-2.3-3.8-2.2s-3,0.8-4.4,0.3c-1.7-0.7-2.8-3.4-4.6-2.9c-0.4,0.1-0.8,0.4-1.3,0.5
	c-2.4,0.8-4.2-3.3-6.7-2.8c-0.5,0.1-1,0.4-1.5,0.4c-0.4,0-0.7-0.2-1.1-0.4c-3.3-2-6.6-4-10-6"/>
<path fill="none" stroke="#E1E1E1" stroke-miterlimit="10" d="M-12.2,182.9c0.5-0.4,1.1-0.7,1.7-0.9c0.6-0.2,1.2-0.2,1.8-0.4
	c0.6-0.2,1.2-0.5,1.7-0.8c6.5-3.7,12.5-9,19.8-10.9c2.5-0.6,4.7-1.9,6.5-3.7c0.4-0.4,0.7-0.8,1.2-0.9c0.5-0.2,1-0.1,1.5-0.1
	c2.7,0.1,5.3-1.2,6.8-3.4c0.9-1.3,1.7-3.1,3.3-3.2c0.5,0,1.1,0.2,1.6,0.3c2.7,0.3,6-4.2,7.8-2.1c2.3,2.6,1.7,6.7,2.6,10
	c0.2,0.7,0.3,1.3,0.4,2c0.1,1.2-0.5,3,0.5,3.5c3.6,1.9,8.6-1.6,10.8-5c1.4-2.3,1.5-5.3,3.1-7.5c1.6-2.1,4.3-3,6.6-4.3
	c2.7-1.5,4.9-3.7,7-5.9c1.1-1.2,2.3-3.1,1.1-4.2c-0.4-0.4-1-0.5-1.5-0.7c-1.8-1-1.6-3.8-0.1-5.1c1.5-1.3,4-0.3,5.7-1.4
	c3.9-2.5,6.2-7.3,10.8-7c1,0.1,2.1,0.3,2.8,1.1c0.5,0.6,0.7,1.4,1.3,1.8c0.5,0.4,1.2,0.5,1.7,0.8c1.3,0.8,1.5,2.6,2.5,3.8
	c0.5,0.6,1.1,0.9,1.7,1.3c2,1.2,4.1,2.4,6.1,3.6c0.9,0.5,1.9,1.2,2,2.3c0.1,0.9-0.6,1.7-0.4,2.6c0.4,2.3,4.9,1,5.6,3.2
	c0.1,0.3,0.1,0.7,0.2,1c0.5,1,1.9,0.6,3,0.3c2.7-0.6,8.1,1.7,6.4,3.9c-2,2.5-6.4-0.2-9.7-0.2c-4.4,0-4.5-2.2-5.9-2.7
	c-1.5-0.5-2.3,3.8-8.4,3c-1.6-0.2-3.2-0.5-4.7,0c-1.6,0.5-2.7,1.8-4.2,2.5c-1.7,0.8-3.8,0.7-5.6,1.3s-4,3.2-2.4,4.4
	c0.8,0.6,2.6-0.2,2.9,0.8c0.3,1-1.5,1.4-1.7,2.4c-0.2,1,0.5,1.7,1.3,2.3c1.1,0.8-0.1,2.9-1.3,3.4c-0.6,0.2-1.2,0.3-1.7,0.7
	c-0.3,0.3-0.4,0.8-0.6,1.2c-0.7,1.4-2.3,1.9-3.8,2.3c-4.6,1.2-9.1,2.5-13.7,3.7c-3.9,1.1-7.9,2.1-11.6,3.9c-2,1-3.9,2.2-6,3.1
	c-4.9,2.2-10.5,2.7-15.2,5.4c-2.5,1.5-4.7,3.5-7.4,4.8c-2.8,1.3-6.2,2.1-9,3.2c-1.3,0.5-8.6,2.4-9,3.2c-0.6,0.9-0.4,2.2,0.2,3.1
	c0.6,0.9,8.7,1.9,9.8,2.6c0.2,0.2,1.4,2.2,2.2,2.6c2.5,1.3,4.5-0.3,9.4,0.6c3.1,0.6,6.2,1.1,9.2,1.7c1.2,0.2,2.4,0.4,3.2,1.2
	c0.4,0.4,0.6,0.8,1,1.2c0.2,0.2,0.8,0.6,1,0.9c1.3,1.1,3.1,1.2,4.6,2.2c1.8,1.2,2.6,3.4,4,5c2,2.3,5.2,3.2,8,4.5
	c3.4,1.5,6.5,3.7,9.1,6.4c2,2.1,3.7,4.4,6,6.1c2.3,1.7,5.2,0.6,8,1.3c2.3,0.6-0.7,4.5-0.5,6.8c0.1,2,1.7,3.5,3,5
	c2.7,3.4,1.6,4.9,2.4,6.7c1.4,3.3,3-1.7,5,6.1c0.4,1.4-0.5,2.9-0.9,4.4c-0.9,2.8-1.9,5.8-4,7.8c-1.4,1.3-3.3,2.3-3.8,4.1
	c-0.3,1.4,0.3,2.9-0.2,4.3c-0.9,2.4-4.3,2.1-6.6,3.3c-1.5,0.8-2.6,2.3-4.1,3.1c-1.3,0.7-2.8,0.8-4.2,1c-3.3,0.6-6.5,2-9.6,3.4
	c-4.3,1.9-8.6,3.9-13,5.8c-1,0.5-2.1,1-2.8,1.8c-0.9,1.1-1,2.7-0.9,4.2c0.1,2.8-1.7,7.9,1.1,8.4c2.6,0.4,14.1-4.6,21.1-6.9
	c2.5-0.8,5-1.6,7.2-3c0.8-0.5,1.6-1.1,2.5-1.4c0.9-0.3,1.9-0.4,2.8-0.6c3.7-0.8,6.6-3.7,10-5.4c4-2,8.7-2.3,12.4-4.8
	c1.9-1.3,3.5-3.1,5.3-4.6c1.8-1.5,4-0.9,6.3-1.2c2.4-0.3,4.6-1.6,6.9-2.1c1-0.2,2.1-0.5,3.1-0.7c3.1-0.7,6.4-1.5,8.5-3.8
	c0.4-0.4,0.7-0.8,1.2-1.1c1.1-0.6,2.4,0.1,3.7,0.4c2.3,0.5,4.7-0.5,6.9-1.5c7.3-3.7,14.1-8.5,19.3-14.9c1.9-2.4,3.7-5.1,4.2-8.2
	c0.2-1.1,0.2-2.2,0.6-3.2c0.3-1,1-1.9,1.2-2.9c0.7-2.5-0.8-5.2,0.2-7.6c0.2-0.6,0.6-1.1,0.9-1.6c0.3-0.7,0.5-1.4,0.7-2.2
	c0.6-2.7,1.2-5.5,1.8-8.2c0.2-0.9,1-1.8,1.8-1.4c2.4,1.2,2.9,6,5.6,5.9c7-0.3,0.6-21,7.3-19c3,0.9,1.2,6.1,1.5,9.2
	c0.3,3.1,1.8,6.6,4.8,7.3c1.1,0.2,2.2,0.1,3.3,0.2c3.4,0.5,5.7,3.5,7.9,6.2c4.1,4.9,9.1,9,14.6,12.2c0.6,0.3,1.2,0.7,1.9,0.7
	c0.9,0.1,1.7-0.4,2.6-0.3c0.9,0.1,1.7,0.6,2.3,1.2c6.4,5.6,10.2,13.5,13.7,21.3c1.9,4,3.7,8.2,3.9,12.6c0.1,5.4-2.3,11.1,0,15.9
	c1.4,2.9,4.2,4.9,5.7,7.7c1.1,2.1,1.5,4.5,2.2,6.7c1.3,4,3.8,7.6,7.1,10.1c1,0.8,2.1,1.4,3.4,1.6c2.7,0.4,5.2-1.7,6.7-4
	c1.5-2.3,2.6-4.9,4.7-6.7c1.2-1,2.7-1.7,3.4-3c1-1.7,0.4-3.9,0.3-5.9c-0.2-3.1,0.8-6.1,1.8-9c2.9-8.4,5.9-16.9,8.8-25.3
	c0.4-1.3,0.9-2.6,2-3.5c0.7-0.6,1.6-0.8,2.3-1.4c1.8-1.5,1.1-4.4,1.8-6.6c0.5-1.9,2-3.5,3.4-4.9c10.9-11.2,21.7-22.4,32.6-33.7
	c3.6-3.8,7.2-8.1,11.7-11c0.1-0.1,0.4-0.1,0.5-0.2c6.8-6.3,11.2-15.9,17.2-24.8c0.9-1.3,0.7-3,1.1-4.5c1.4-5.6,1.9-12.3,4.5-17.4
	c2.6-5.2,6.1-9.9,9.8-14.4"/>
<path fill="none" stroke="#E1E1E1" stroke-miterlimit="10" d="M370.1,231.2c-2.9-0.4-5.8-1-8.6-1.4c-2-0.3-3-2.7-2.8-4.7
	c0.2-2,1.6-3.6,3.1-4.9c1.9-1.5,4.5-0.7,6.6-1.8c1.4-0.7,2.3-2.9,1.8-4.4c-1.1-2.7-4.4-4.3-3.8-7.2c0.8-4.1,2.1-8.1,3.8-12"/>
<path fill="none" stroke="#E1E1E1" stroke-miterlimit="10" d="M370,255.7c-1.4,0.1-2.5,1-3.7,1.8c-3.5,2.4-8.1,1.4-12.1,2.9
	c-5.4,2-9.7,11.6-5.8,15.8c1.1,1.2,4-0.9,4.7,0.6c2.8,5.9-10.9,6.7-17.3,8.1c-26.9,5.9-50.2,26-60.1,51.6
	c-3.1,7.9-5.4,17.8-0.1,24.5c4.3,5.3,9.5,9.8,14.3,14.7c0.7,0.7,1.4,1.5,2.4,1.9c4.1,1.8,8.6,0.7,12.7-0.9c1.4-0.5,0.2-2.9,0.7-4.3
	c1.1-3,4.1-4.5,7.1-4.9c1.6-0.2,3.2-0.1,4.8,0.2c1,0.2,3.8,0.7,4.4,1.3c0.4,0.4,0.2,1,0.2,1.5c-0.1,0.9,0.1,2.1,1,2.5
	c0.4,0.2,0.9,0.3,1.3,0.5s0.7,0.6,0.9,1c0.3,0.5,1.3,0.1,1.6,0.6c0.5,0.6,0.4,1.4,0.4,2.2"/>
<path fill="none" stroke="#E1E1E1" stroke-miterlimit="10" d="M294.9,339.4c0.4-0.1,0.9-0.1,1.3-0.3c0.8-0.4,1-1.4,1.2-2.3
	c0.6-2.6,1.8-5,2.6-7.5s1-5.4-0.3-7.7c-0.2-0.3-0.4-0.5-0.4-0.9c-0.1-0.6,0.3-1.1,0.5-1.7c0.5-1.3-0.2-3.1-1.5-3.1
	c-0.7,0-1.3,0.5-1.7,1c-5.5,5.3-11.1,11.2-12.1,18.8c-0.3,2-0.2,4.1,1,5.8c1.1,1.7,3.4,2.6,5.2,1.7
	C292.2,342.3,292.9,339.8,294.9,339.4z"/>
<path fill="none" stroke="#E1E1E1" stroke-miterlimit="10" d="M334.9,274.1c1.5-1.4,4.4-0.4,5.6-2.1c0.6-0.8,0.4-1.9,0.5-2.9
	c0-1,0.5-2.2,1.5-2.3c0.5-0.1,1,0.1,1.4,0.1c1.6,0.1,1.4-1.9,1.8-3.4c0.6-2.2,4.5-2,5.3-4.1c0.5-1.3,0.6-3,1.8-3.5
	c0.5-0.2,1-0.1,1.4-0.3c1.4-0.3,2-2,1.8-3.4c-0.2-1.4-1.1-2.6-1.9-3.7c-0.8-1.1-1.9-2.3-3.3-2.1c-0.8,0.1-1.4,0.7-2.2,0.9
	c-1.6,0.5-2.3-1.3-3.3-2.5c-1.7-2.1-5.4,2.4-4.5,5.1c0.1,0.4,0.4,0.9,0.4,1.3c0,0.8-0.6,1.4-1,2c-1.3,1.8,0.1,4.6-1.3,6.3
	c-2.2,2.7-6.4,2.3-9.1,4.6c-0.5,0.4-1,0.8-1.3,1.3c-1,1.3-1.2,2.9-1.4,4.5c-0.3,2.1-0.5,4.4,0.5,6.2s3.8,2.8,5.3,1.3
	C333.9,276.6,333.9,275,334.9,274.1z"/>
<path fill="none" stroke="#E1E1E1" stroke-miterlimit="10" d="M361,210.9c-0.4-0.4-0.5-1-0.9-1.5c-0.5-0.5-1.4-0.6-2.1-0.4
	c-0.7,0.3-1.2,0.8-1.7,1.4c-0.5,0.7-0.8,1.5-1.1,2.2c-0.5,1.1-0.9,2.6-0.1,3.4c0.9,0.9,2.3,0.4,3.5,0.1c1.7-0.4,3.7,0.9,5.2,0
	c1.5-0.9-0.2-3.7-1.7-4.6C361.8,211.5,361.4,211.3,361,210.9z"/>
<path fill="none" stroke="#E1E1E1" stroke-miterlimit="10" d="M369.8,134.6c-1.2,0.9-2.5,1.8-3.7,2.7c-0.5,0.4-1,0.8-1.2,1.3
	c-0.2,0.6,0,1.3-0.2,1.9c-0.2,1.3-1.6,2.1-1.9,3.4c-0.2,0.9,0.1,1.9-0.6,2.5c-0.5,0.4-1.2,0.4-1.7,0.8c-0.4,0.3-0.5,0.8-0.6,1.3
	c-0.9,2.7-3.8,4.4-4.9,7.1c-0.9,2.2-0.7,4.9-1.4,7.1c-0.4,1.3,0.5,3.6,0.1,4.9c-2.7,8.6-6.4,16.9-11.2,24.6
	c-4.7,7.4-10.4,14.1-16.1,20.7c-1.7,2-5.6,5-7.4,6.6c-7.4,6.5-2.5,6.5-4.9,9.3c-2.5,2.9-6.2,5.1-10,4.9c-1.3-0.1-2.5-0.5-3.8-0.4
	c-1.3,0.1-2.7,1-2.6,2.3c0.1,1,1,1.8,1.4,2.7c0.6,1.6-0.7,3.3-2.2,4c-1.5,0.7-3.2,0.8-4.8,1.3c-5,1.4-8.4,6.1-10.2,11
	c-1.8,4.8-2.6,10.1-4.5,14.9c-2.8,6.9-8,13-9,20.4c-0.3,2.6-0.1,5.2-0.3,7.7c-0.4,4.5-2,8.9-4.7,12.5c-0.5,0.7-1.1,1.4-2,1.6
	c-1,0.3-2-0.2-3-0.7c-4.4-2.3-8.9-4.5-13.3-6.8c-1-0.5-2-1-2.7-1.9c-0.8-1.1-0.9-2.4-1.1-3.7c-0.8-7.9-1.6-15.7-2.4-23.6
	c-0.5-5.3-1.1-10.6-0.4-15.9c0.4-3.1,1.2-6.4,0-9.4c-0.3-0.8-0.8-1.6-0.8-2.4c0-2.1,2.4-3.2,3.4-5c1.5-2.7-0.7-6.2-3.6-7.3
	s-6.1-0.5-9.1-0.1c-3,0.4-6.4,0.6-8.9-1.2c-2.6-1.7-3.7-4.9-5-7.7c-1.4-2.8-3.7-6.2-6.8-5.6c-2.3,0.4-8,4.2-9.9,3.5
	c-0.3-0.1-0.9-0.5-1.2-0.7c-1.1-0.7-1.6-2-2-3.2c-3.7-10.7-2.1-23.1,4.2-32.5c1.4-2.2,3.3-4.3,5.9-4.7c2.8-0.4,7.5,1.9,8.2-0.8
	c0.9-3.5-3.4-6.9-4.3-10.4c-1-3.9-2.2-6.1-5.5-8.5c-3.3-2.4-7.5-3.5-8.2,0.4c-0.1,0.9,0,2-0.5,2.8c-0.6,1-1.9,1.3-3,1.3
	c-3.7-0.1-9.2-3-8-6.4c2.1-6,8.4-8.1,14.7-9.3c15-3,31.6-7.9,45.8-2.3c1.3,0.5,2.6,1.1,3.9,1c1.5-0.2,2.8-1.3,4.3-1.7
	c2.9-0.7,5.5,1.7,8.4,2.4c2.4,0.6,4.9,0.1,7.3-0.5c14-3.3,27.6-8.4,40.9-13.9c14.8-6.1,30.2-12.8,46.1-11.4c0.4,0,0.7,0.1,1.1,0.1
	c1.6,0.1,3.6-0.7,5.2-0.4c0.9,0.2,2,0.3,2.4-0.5c0.2-0.5,0.1-1,0-1.5c0-1.3,0.9-2.5,2-3.1s2.5-0.7,3.8-0.9"/>
<path fill="none" stroke="#E1E1E1" stroke-miterlimit="10" d="M248.5,270.8c-0.2-2.2-1-3.8-1.2-6c-0.3-4-0.7-8.1,0.1-12
	c0.3-1.7,0.9-3.4,1.1-5.1c0.1-1.2,0.1-2.4,0.3-3.6c0.5-2.4,3.5-3.2,4.8-5.3c1.9-3.1-1.4-7.4-3.8-10.1c-1-1.2-2.4-2.1-3.1-3.5
	s-0.7-3.4,0.6-4.2c0.7-0.4,1.6-0.2,2.5-0.2c6.1-0.3,8.8,4.5,12.2,6.9c1.3,0.9,4.9,2.4,5.2,3.9c0.2,1.1,1.3,3.1,1.6,3.9
	c0.5,1,4,3.1,0.8,3.5c-3.3,0.4,0.2,5.5-0.4,8.8c-0.4,2.2-2.1,3.9-2.5,6c-0.6,2.9,1.5,5.7,1.7,8.7c0.1,1.2,0,2.3-0.2,3.5
	c-0.5,3.5-0.9,7-1.4,10.5c-0.2,1.2-0.3,2.4-0.9,3.4c-0.8,1.4-2.2,2.3-2.8,3.8c-1.3,3.2,1.6,7.5-0.7,10c-0.7,0.8-1.8,1.1-2.7,1.6
	c-1.4,0.7-2.7,1.6-4.3,2c-1.5,0.4-3.4,0.1-4.2-1.3c-0.6-1.1-0.4-2.4-0.3-3.6c0.1-3.3-1.3-6.5-2.2-9.7s0.1-3.9,0-7.2
	C248.8,274.4,248.6,272,248.5,270.8z"/>
<path fill="none" stroke="#E1E1E1" stroke-miterlimit="10" d="M303.3,219c3.5-3.6,5.8-8.3,9.9-11.3c3.4-2.4,7.5-3.8,10.1-7
	c2.1-2.6,2.9-6,5-8.6c1.3-1.6,3.1-2.8,4.7-4.2c2.7-2.3,4.9-5,6.7-8c4.1-7.2,5.1-15.7,7.4-23.7c1.5-5.1,3.5-10,6.1-14.7
	c1.4-2.5,2.8-5.9,0.7-7.7c-1.4-1.3-3.7-0.9-5.6-0.5c-6.9,1.7-13.9,3.4-20.8,5.1c-7.5,1.8-15.5,3.9-20.6,9.7
	c-1.7,1.9-3.3,4.4-5.8,5.1c-2.4,0.7-4.9-0.6-7.4-1.1c-4.6-1-9.3,0.5-13.4,2.7c-4.1,2.1-7.9,4.9-12.2,6.8c-7.9,3.4-16.7,3.6-25.3,3.7
	c-0.9,0-1.8,0-2.6-0.4c-1.2-0.7-1.8-2.4-3.2-2.6c-0.7-0.1-1.3,0.2-2,0.2c-3.3,0.4-7.5,0.2-9.3-2.6c-0.7-1.2,0.5-2.8-0.7-3.4
	c-1.2-0.6-2.7-0.4-4-0.2c-2.7,0.5-5.5,0.9-8.2,1.4c-1.1,0.2-2.2,0.4-3.1,1.1c-0.9,0.7-1.3,2-0.7,2.9c4,5.8,10.8,2.6,14.1,2.3
	c3.2-0.3,0.3,6.4,0.4,9.6c0.1,2.8,0.2,5.5,0.6,8.3c0.8,5.6,6.4,10.2,8.6,15.4c1.2,2.8-2.1,3.9-1.5,7c0.6,3,2.8,5.8,5.8,6.5
	c3.5,0.7,6.9-1.5,10.3-2.7c3.2-1.1,6.7-1.3,10-0.6c1.7,0.4,3.4,1,4.6,2.3c1.1,1.3,0.1,3.1,0.5,4.8c0.4,1.9,2.4-1.1,4.1-0.3
	c1.4,0.7,0.1,2.4,0.7,4.2c0.4,1.1,2.5,2.8,2.6,3.9c0.1,2.5-0.7,7.2,0.6,9.3s4.6,1.9,7.1,1.4c2.4-0.5,4-2.4,4.4-4.8
	c0.4-2.4,4.1-2.5,6.5-2.1c2.4,0.4,4.9,1.1,7.2,0.3c1.1-0.4,2-1.1,2.9-1.8c1.7-1.5,2.9-3.4,4.5-5C303,219.2,303.2,219.1,303.3,219z"
	/>
<path fill="none" stroke="#E1E1E1" stroke-miterlimit="10" d="M371,285.8c-4.7,1.9-9,4.8-12.1,8.7c-4,4.9-8.7,8.3-13.8,12.3
	c-2,1.6-0.5,5.5-2.2,7.5c-3.2,3.5-2.9,9.6-7.2,11.7c-0.8,0.4-1.7,0.6-2.6,0.7c-11.7,2.5-19,14-24.9,24.4c-1.2,2.2-2.3,5.5-0.1,6.8
	c0.8,0.5,1.8,0.5,2.8,0.4c8.6-0.8,15.4-7.2,22.2-12.5c0.7-0.5,1.4-1.1,2.2-1.3c0.9-0.2,1.8-0.1,2.7,0.1c8.4,1.7,15.8,7,21.5,13.4
	c3.7,4.1,7.9,8.3,10.8,13"/>
<path fill="none" stroke="#E1E1E1" stroke-miterlimit="10" d="M369.4,304.7c-3.9,2.5-7.1,6.3-8.9,10.6c-0.3,0.8-0.6,1.6-1.2,2.2
	c-0.3,0.4-0.7,0.7-1.1,1c-2.6,2.4-3.3,6.4-2.6,9.8s2.6,6.6,4.4,9.6c1.7,2.8,3.3,5.5,5.5,7.9c1.3,1.5,2.9,2.9,3.8,4.7
	c0.2,0.4,0.4,0.9,0.6,1.4"/>
<path fill="none" stroke="#E1E1E1" stroke-miterlimit="10" d="M153.3,379.5c0.2-0.6,0.5-1.1,0.7-1.7"/>
<path fill="none" stroke="#E1E1E1" stroke-miterlimit="10" d="M162.1,377.5c-0.4,0.4-0.8,0.9-1.1,1.5"/>
<path fill="none" stroke="#E1E1E1" stroke-miterlimit="10" d="M154,377.8c0.3-0.7,0.5-1.4,0.4-2.1c-0.1-2.4-0.3-4.9,0.3-7.2
	c0.6-2.3,2.3-4.6,4.7-5c0.7-0.1,1.5-0.1,2.1-0.5c0.7-0.4,1-1.3,1.6-2c1.1-1.2,2.9-1.3,4.4-1.2c1.6,0.1,3.3,0.4,4.7-0.2
	c0.6-0.3,1.2-0.7,1.9-0.7c0.6,0,1.2,0.4,1.7,0.8c1.2,1,2.4,2,3.6,2.9c0.2,0.2,0.4,0.4,0.5,0.6c0.2,0.6-0.4,1.3-1,1.5
	c-1.1,0.4-2.3,0.4-3.3,0.7c-3.2,1.1-4.4,5.5-7.6,6.3c-0.4,0.1-0.9,0.1-1.3,0.4c-1.2,0.8-0.8,2.8-2,3.8c-0.3,0.3-0.7,0.4-1.1,0.6
	c-0.6,0.2-1.1,0.6-1.5,1"/>
<path fill="none" stroke="#E1E1E1" stroke-miterlimit="10" d="M136.2,378.6c0.2-3.7,0.4-7.3,0.2-11c-0.1-1.5-0.1-3.2,0.7-4.5
	c0.3-0.4,0.7-0.8,0.8-1.3c0.2-0.6-0.1-1.2-0.1-1.8c-0.2-2.4,2.4-4.2,4.7-4.8c4.6-1.2,10-0.1,13.9-2.9c1.2-0.9,2.2-2.1,3.3-3.3
	c2.5-2.6,6.2-4.4,9.2-6.3c3.3-2.1,7-3.5,10.8-4.1c1.9-0.3,4-0.3,5.3,1.1c0.4,0.4,0.8,1,1.3,0.9c0.7-0.1,0.8-1,1.3-1.4
	c0.8-0.6,2,0.2,2.6,1c3.5,4.3,5.5,9.7,8.1,14.6c0.6,1.1,1.3,2.3,2.4,3c1.1,0.7,2.7,0.8,3.6-0.2c0.5-0.5,0.8-1.3,1.5-1.3
	c0.2,0,0.4,0.1,0.6,0.2c3.8,2,6,6.6,5.2,10.9c-0.2,1.2-0.7,2.4-1.1,3.5c-1.1,2.9-2.3,5.8-3.4,8.7"/>
<path fill="none" stroke="#E1E1E1" stroke-miterlimit="10" d="M156.3,219.4c-0.1,2.3-1.2,4.5-2.3,6.6c-1.8,3.6-4.2,7.4-8,8.9
	c-1.7,0.7-3.7,1-5.1,2.1c-2.3,1.8-2.6,5.3-4.7,7.4c-1.7,1.7-4.4,2.3-5.9,4.2c-1.1,1.3-1.6,3.3-3.2,3.9c-0.7,0.2-1.5,0.2-2.2,0.2
	c-2.8,0.1-5.2,2-7.2,4.1c-2,2-3.1,1.8-5.6,3.1c-1,0.6-2.6-1.1-2.9-2.3c-0.2-0.8,0-1.7-0.1-2.6c-0.5-4.4-8.1-5-8.6-9.3
	c-0.1-0.5,0-1.1-0.1-1.6c-0.2-0.7-0.7-1.2-1-1.9c-0.6-1.6,0.5-3.3,1.8-4.5c1.2-1.2,2.7-2.4,2.9-4.1c0.2-1.5-0.7-3.1,0.1-4.4
	c0.3-0.4,0.7-0.8,0.6-1.2c0-0.4-0.4-0.6-0.7-0.9c-2.1-1.8-1.4-5.3,0.1-7.7c1.5-2.3,6.2-5.1,4.3-7.1c-1-1-2.5-1.1-3.1-2.3
	s-0.9-2.8-2-3.6c-1.3-1-3-0.8-4.6-1.1c-1.1-0.2-2.2-0.7-3.4-0.8c-1.1-0.1-2.2,0.2-3.2,0.4c-2.5,0.6-5,1.2-7.6,1.8
	c-1.6,0.4-3.3-0.4-4.7,0.3c-1.9,0.9-1.7,4-3.5,5.1c-1.1,0.7-2.5,0.9-3.6,1.7c-2.4,1.6-3,5.2-5.5,6.7c-2.6,1.5-6,0-8.6-1.5
	c-0.1-0.1-0.3-0.2-0.4-0.3c-0.3-0.2-0.9-0.4-1.2-0.6c-1.3-1.1,0.7-3.9-0.7-5c-2.9-2.3-7.1-2.4-9.6-5.1c-1.2-1.3-2.3-2.7-3.7-3.7
	c-1.2-0.8-2.6-1.3-3.7-2.2s-1.9-2.5-1.3-3.8c0.7-1.5,2.7-1.7,4.4-1.7c7-0.3,15.5,0.4,20.2-4.7c1.9-2.1,4.8-2.6,7.5-3.5
	c1.1-0.4,2.1-1,3.1-1.7c2.9-1.9,5.9-3.9,9.3-4.9c1.7-0.5,3.6-0.8,5-1.9c0.7-0.5,1.3-1.2,2-1.8c1.5-1.1,3.5-1.4,5.4-2
	c3.2-1,9.1-2.5,8.1-5.7c-0.6-2.2-4.8,0.2-6.6-1.1c-2.2-1.6,2.3-4.8,5-4.9s5.7-0.3,8,1.1c1.8,1.1,4.1,2.6,6.1,1.9
	c0.8-0.3,1.7-0.1,2.5,0.1c0.9,0.2,1.8,0.6,2.7,1c2.7,1.1,5.6,1.2,8.5,1.3c3.4,0.2,6.8,0.3,10.2,0.5c2.5,0.1,5,0.2,7.2-1
	c1.1-0.6,2.1-1.5,3.3-2c1.3-0.4,2.8-0.2,3.9,0.5c2.1,1.5,2.6,4.4,2.8,7c0.4,4.7,0.8,9.6-1,14c-0.2,0.5-0.5,1.1-0.6,1.7
	c-0.1,0.8,0.1,1.6,0.3,2.3c1.7,6.1,2.9,12.9,0.1,18.6c-0.3,0.6-0.7,1.3-0.7,2c0,0.7,0.3,1.3,0.6,1.9c0.3,0.9,0.5,1.8,0.5,2.7
	C156.3,218.5,156.3,219.1,156.3,219.4z"/>
<path fill="none" stroke="#E1E1E1" stroke-miterlimit="10" d="M28,378c-0.1-0.3-0.2-0.7-0.3-1c-1.2-3.8-4.9-6.3-7.2-9.6
	c-1-1.5-1.7-3.1-2.9-4.4c-0.8-1-2.5-3.8-3.7-4.4c-2.4-1.1-3.4-4.5-5.3-6.4c-0.7-0.7-1.7-1.3-2.6-1.9c-1.6-1-3.3-2-5.1-2.6
	c-1.2-0.4-2.4-0.6-3.5-1.2c-1.1-0.6-1.2-1.9-2-2.9c-0.8-0.9-2.7-1.1-3.6-0.3c-1,0.9,0,2.7-0.7,3.9c-0.6,1.2-2.1,2-3.3,1.4"/>
<path fill="none" stroke="#E1E1E1" stroke-miterlimit="10" d="M50,376.9c-10.2-5.8-19.9-13.5-25.6-23.8c-1.5-2.7-2.7-5.6-4.8-7.7
	s-7.3-1.4-8.1-4.1c-0.4-1.4-1.3-2.8-2.7-3.1c-1.4-0.3-2.9,0.1-4.4,0s-1.6-1.8-2.7-2.7c-1.1-1-3-0.1-4.1-1.1c-1.1-1-1.9-2.3-2.9-3.4
	c-0.5-0.5-1-1-1.4-1.6c-0.6-1-0.6-2.2-0.7-3.3c-0.6-4.1-3.2-7.9-2.9-12.1c0.1-2.1,1-4,0.9-6.1c-0.1-2.1-1.9-4.3-3.9-3.7"/>
<path fill="none" stroke="#E1E1E1" stroke-miterlimit="10" d="M91.5,377.7c-0.1-1.1-0.2-2.2-0.2-3.2c0-1.6,1.4-4.4,0.1-5.5
	c-1.4-1.2-4.4,1.9-6.1,2c-5.2,0.3-10,1.3-15.4,0.7c-4.3-0.5-8.5-1.9-12.6-3.3c-3.7-1.3-7.8-2.7-10-6c-1.3-2-1.8-4.4-2-6.8
	c-0.5-5.2,1.7-10.2,1.6-15.4c0-1.4-1.4-1.8-2.6-2.4c-2.9-1.4-6.1-2.3-9.3-3.1c-3.5-0.9-7.1-1.9-10.8-2c-1.4-0.1-3,0-4.1-1
	c-0.4-0.4-0.8-0.9-1.3-1.1c-0.5-0.2-1-0.1-1.5-0.1c-1.9,0.3-3.7,0.8-5.5,1.5c-1.3,0.5-3.4-0.9-4.1-2.1c-0.7-1.2-0.8-2.5-1-3.9
	c-0.5-5-0.4-10,0.1-15c0.1-1,0.2-2,0.1-3c-0.5-2.6-3-5.1-1.7-7.3c0.3-0.5,0.8-0.9,1.1-1.5c0.4-0.7,0.3-1.5,0.4-2.3
	c0.4-3.9,3.6-7.3,7.4-7.9c0.8-0.1,1.7-0.2,2.3-0.7c0.6-0.5,0.9-1.3,1.2-1.9c2.1-4,7.4-4.3,11.8-5.4c5.1-1.2,14.7-4.8,12.3-9.5
	c-2.3-4.6,0.4-6.7,2.4-11.3c0.9-1.9-3.5-2.4-5.3-3.6c-0.2-0.2-0.5-0.3-0.7-0.5c-0.9-0.6-2.1-1-2.8-1.9c-0.7-0.8,1.1-1.9,0.7-2.9
	c-0.7-2-4.8,1-6.3-0.5c-0.5-0.5,0.1-1.8-0.5-2.1c-2.5-1.2-5.7,4.2-8,2.5c-1.8-1.4-3.8-1.8-5.3-3.5c-0.9-1,0.4-2.9-0.2-4.1
	c-0.5-1-2.2-1.5-3.3-1.1c-0.5,0.2-1,0.4-1.5,0.4c-1.2-0.1-1.5-1.6-2.2-2.6c-1.2-1.5-3.5-1.2-5.3-0.8c-1.9,0.4-4.2,0.6-5.3-1
	c-0.3-0.4-0.4-0.8-0.7-1.1c-0.8-1-2.3-0.8-3.6-0.8c-2.7,0-5.2-1.1-7.7-2.1"/>
<path fill="#EAEAEA" stroke="#D6D6D6" stroke-miterlimit="10" d="M106.6,24c-0.1-0.5-0.3-1-0.7-1.3c-0.2-0.1-0.4-0.2-0.7-0.3
	c-0.9-0.2-1.8,0-2.5,0.4c-0.5,0.3-0.8,0.7-1.2,1.1c-0.7,0.8-1.4,1.6-2.1,2.4c-0.4,0.4-0.7,0.8-0.9,1.3c-0.2,0.5-0.2,1.1,0.2,1.5
	c0.1,0.1,0.3,0.2,0.4,0.3c1.1,0.8,2.4,1.1,3.7,0.9c1.3-0.1,3.2-0.5,3.4-1.8c0.2-0.9,0.2-1.8,0.4-2.7C106.7,25.5,106.7,24.7,106.6,24
	z"/>
<path fill="#EAEAEA" stroke="#D6D6D6" stroke-miterlimit="10" d="M20.2,12.1c-2.5,0.1-4.9,1.3-6.3,3.3c-2,2.8-2.4,6.9-5.3,8.8
	c-1.3,0.9-3,1.1-4.3,2c-0.2,0.1-0.4,0.3-0.5,0.5c-0.4,0.8,0.6,1.6,1.5,1.9c1.8,0.5,3.7,0.1,5.3-0.8s3-2.1,4.2-3.5
	c0.7-0.8,1.5-1.6,2.6-1.4c0.3,0,0.5,0.2,0.8,0.3c1.1,0.6,2.4,1.2,3.6,0.7c1.2-0.5,1.7-1.9,2.4-2.9c0.5-0.6,1.1-1.2,1.3-1.9
	c0.3-0.9,0.1-2-0.3-2.9c-0.5-1.2-1.3-2.3-2.4-3.2c-0.4-0.3-0.8-0.6-1.3-0.8C21.1,12.1,20.7,12.1,20.2,12.1z"/>
<path fill="#EAEAEA" stroke="#D6D6D6" stroke-miterlimit="10" d="M182.4,12.8c-1.1-3.5-2.2-6.9-3.3-10.4c-0.1-0.4-0.2-0.8-0.5-1.1
	c-0.3-0.4-0.7-0.6-1.1-0.9c-0.3-0.3-0.5-0.8-0.7-1.2c-0.5-1.2-1.3-2.2-2.1-3.1c-0.9-1.1-2-2.3-3.4-2.2c-0.7,0-1.4,0.4-2,0.9
	c-3.4,2.5-5.4,6.6-8,9.9c-1.3,1.7-2.9,3.2-3.8,5.1c-0.9,1.7-1.1,3.7-1.8,5.5c-1.4,4.1-4.6,7.7-5.2,12c-0.3,2.1,0.1,4.3,0,6.5
	c-0.1,4.4-2.1,8.6-3.7,12.8c-0.6,1.6-1.1,3.6,0.1,4.9c0.3,0.3,0.6,0.5,1,0.8c1.2,1.1,1.7,2.8,2.3,4.3c0.2,0.5,0.5,1,1,1.4
	c0.9,0.6,2.1,0.5,3.1,0.2c2.8-0.6,5.6-1.6,7.8-3.5c2.8-2.3,4.4-5.6,5.9-8.9c0.8-1.8,1.7-3.5,2.9-5c0.6-0.7,1.3-1.4,1.9-2.1
	c1.3-1.5,2.4-3.4,4-4.5c3-2,7.3-1.4,9.7-4c0.2-0.2,0.4-0.5,0.5-0.8c0.1-0.4-0.1-0.8-0.3-1.2c-0.5-1.4-0.4-2.8-0.9-4.2
	c-0.4-1.4-1.8-1.8-3.1-2.4c-1.4-0.6,0-3,0.2-4.6C183.2,15.5,182.8,14.1,182.4,12.8z"/>
<path fill="#EAEAEA" stroke="#D6D6D6" stroke-miterlimit="10" d="M186.3,116c1.4,1,3.2,1.6,4.9,1c0.4-0.1,0.4-0.6,0.1-0.9
	s-0.6-0.5-0.7-0.8c-0.2-0.5,0-1.1,0.5-1.5c0.4-0.4,1-0.5,1.5-0.8c1-0.5,2.3-1.1,3-0.3c0.2,0.2,0.3,0.5,0.5,0.7
	c0.8,1.3,2.6,1.4,4.1,1.3c1.7,0,3.3-0.1,5-0.1c0.4,0,0.8,0,0.9-0.3c0.2-0.3,0-0.7-0.1-1.1c-0.4-1.5,0.6-3,1.2-4.4
	c0.8-1.7,1.1-3.6,1.1-5.4c0-0.6-0.1-1.1,0-1.7c0.4-1.8,2.4-2.6,3.7-3.9c1.2-1.2,1.8-2.9,1.6-4.6c-0.1-1.2-0.6-2.2-1.7-2.3
	c-0.5-0.1-1.5,0.1-2,0.2c-2.5,0.6-4.8,0.4-7.4,0.8c-2.6,0.4-5.3,1.2-7,3.1c-1.3,1.4-2.1,3.3-3.5,4.6c-0.9,0.8-2,1.3-2.9,2.1
	c-0.7,0.7-1.1,1.6-1.5,2.5c-1.1,2.7-2,5.5-2.7,8.3c-0.1,0.4-0.2,0.8-0.1,1.2C184.8,114.7,185.5,115.5,186.3,116z"/>
<path fill="#EAEAEA" stroke="#D6D6D6" stroke-miterlimit="10" d="M232.5,97.9c-1.5-1.1-3.6-0.9-5.5-0.6c-1,0.1-2.2,0.5-2.4,1.5
	c-0.1,0.4,0.1,0.8,0.2,1.1c0.3,0.8,0.6,1.6,0.8,2.5c0,0.1,0.1,0.3,0,0.4c-0.1,0.1-0.2,0.2-0.3,0.2c-0.8,0.3-1.8,0.2-2.4,0.8
	c-0.6,0.6,0.3,1.8,1.1,2.2c0.8,0.4,1.7,0.3,2.6,0c1.1-0.4,2.1-1.1,3-1.8c0.5-0.5,1.1-1,1.8-1.3c0.9-0.3,1.9-0.1,2.8-0.2
	s2-0.7,1.9-1.7c-0.1-1-1.3-1.3-2.1-1.9C233.4,98.7,233,98.3,232.5,97.9z"/>
<path fill="#EAEAEA" stroke="#D6D6D6" stroke-miterlimit="10" d="M285.6,127.9c0.8-1.3,2.5-1.8,4-1.8s3.1,0.4,4.6,0.2
	c0.7-0.1,1.3-0.3,2-0.5c1.7-0.5,3.5-1,5.2-1.6c1.2-0.4,2.6-0.7,3.7,0c1,0.6,1.5,1.1,1.3,2.2c-0.3,1.1-3.3,3.1-4.3,3.7
	c-2.9,1.7-4.5,0.6-7.8,0.4c-2.5-0.2-4.9,0-7.4,0.4c-0.4,0.1-0.9,0.1-1.2-0.1c-0.1-0.1-0.2-0.2-0.2-0.3
	C285.2,129.7,285.2,128.7,285.6,127.9z"/>
<path fill="#EAEAEA" stroke="#D6D6D6" stroke-miterlimit="10" d="M242.2,135.6c2.5,0.4,5.2,0.8,7.6,0c3.4-1.2,5.8-5,5.2-8.6
	c0-0.3-0.1-0.6-0.3-0.8c-0.2-0.2-0.5-0.3-0.8-0.3c-0.8-0.1-1.6-0.3-2.4-0.2c-0.7,0.1-1.4,0.3-2.1,0.4c-0.7,0-1.5-0.2-1.8-0.9
	c-0.1-0.3-0.2-0.6-0.3-0.9c-0.3-0.6-1.1-0.7-1.8-0.8c-2.1-0.2-4.3-0.4-6.2,0.4c-2.8,1.1-4.6,4.4-4,7.4c0.1,0.5,0.3,1,0.7,1.4
	c0.5,0.5,1.2,0.5,1.8,0.9c0.5,0.3,0.9,0.7,1.3,1C239.9,135.2,241.1,135.4,242.2,135.6z"/>
<path fill="#EAEAEA" stroke="#D6D6D6" stroke-miterlimit="10" d="M160.3,148.4c1.1-0.5,2.2,0.5,3,1.5c0.4,0.5,0.8,1.1,0.8,1.7
	c0,0.5-0.3,1-0.6,1.4c-0.7,1.2-1.5,2.3-2.2,3.5c-0.4,0.6-0.7,1.1-1.2,1.6c-0.8,0.7-2,0.9-3.1,1c-6.8,0.9-13.6,1.3-20.4,1
	c-0.5,0-1.2-0.2-1.1-0.7c0.1-0.3,0.4-0.4,0.7-0.5c1.4-0.5,2.9-1,4.3-1.4c0.7-0.2,1.5-0.5,2.2-0.4c0.7,0.1,1.3,0.3,1.9,0.6
	c2.5,0.8,5.2,0.4,7.8-0.2c1.2-0.3,2.4-0.6,3.4-1.4c0.7-0.7,1.2-1.6,1.6-2.5c0.6-1.2,1.2-2.5,1.8-3.7
	C159.4,149.2,159.7,148.7,160.3,148.4z"/>
<path fill="#EAEAEA" stroke="#D6D6D6" stroke-miterlimit="10" d="M154.6,144.6c-1.1-0.3-2.4-0.2-3.4,0.3c-0.7,0.3-1.2,0.8-1.7,1.3
	c-0.3,0.3-0.6,0.5-0.8,0.9c-0.3,0.5-0.4,1.2-0.4,1.8c0.1,1.5,0.7,4.3,2.1,3.9c0.5-0.2,0.8-0.8,0.9-1.3c0.3-1.1,0.3-2.2,1.3-2.8
	c1-0.6,2.1-0.8,3-1.4c0.5-0.3,0.9-0.8,0.8-1.3c0-0.1-0.1-0.3-0.2-0.4C155.9,145,155.2,144.8,154.6,144.6z"/>
<path fill="#EAEAEA" stroke="#D6D6D6" stroke-miterlimit="10" d="M338,114.6c0.8-0.2-0.1-1.6,0-2.3c0.1-0.8,0.9-1.8,1.5-1.3
	c0.8,0.5,1.2,1.5,1.7,2.3c0.2,0.4,0.4,0.9,0.2,1.3c-0.1,0.2-0.3,0.4-0.5,0.5c-1.7,1.4-3.4,2.9-5.6,3.3c-0.9,0.2-1.9,0.1-2.6-0.4
	c-0.6-0.4-1-1-1.3-1.7c-0.1-0.3-0.2-0.6-0.2-0.9c0-0.8,0.4-1.5,1.1-1.9s1.5-0.3,2.1,0.2c0.2,0.1,0.3,0.3,0.5,0.5
	C335.2,114.6,337.6,114.7,338,114.6z"/>
<path fill="#7BBCEB" stroke="#4E9BD7" stroke-miterlimit="10" d="M181.7,179.3c-0.3-0.1-0.6,0-0.9-0.1c-0.7-0.1-1.2-0.7-1.8-1.2
	c-1.2-0.8-2.8-0.7-4.2-0.5c-0.5,0.1-1,0.1-1.4,0.5c-0.2,0.2-0.3,0.4-0.4,0.7c-0.4,1-0.8,2.2-0.7,3.3c0.1,0.6,0.3,1.2,0.5,1.8
	c0.7,1.9,1.3,3.7,2,5.6c0.2,0.6,0.4,1.2,0.9,1.7c0.3,0.3,0.6,0.5,0.8,0.9c0.2,0.4,0.1,0.8,0.2,1.3c0.1,1.7,1.7,2.7,3.4,3
	c1,0.2,2.1-0.1,3-0.5c0.8-0.4,1.5-0.8,2.3-1.1c0.2-0.1,0.3-0.2,0.4-0.3c0.1-0.2,0.1-0.4,0.1-0.7c-0.2-1.8-0.5-3.7-0.7-5.5
	c-0.4-2.8-0.8-5.6-2.3-8C182.4,179.8,182.1,179.4,181.7,179.3z"/>
<path fill="none" stroke="#D6D6D6" stroke-miterlimit="10" d="M135.2,159.1c-3.1-1.4-6.6-1.9-9.9-1.5c-0.7,0.1-1.4,0.2-2.1,0
	c-1.3-0.4-2.1-1.9-3.3-2.5c-1.1-0.5-2.4-0.2-3.6-0.1c-1.2,0.2-4.1,0.1-4.9-0.7c-1.6-1.5-3.4-1.6-5.4-2.5c-0.3-0.1-0.6-0.2-0.9-0.3
	c-1.3-0.1-1.9,1.5-2.8,2.4c-1.4,1.5-3.9,1.4-5.7,0.4c-1.7-0.9-3.1-2.5-3.7-4.3"/>
<path fill="none" stroke="#D6D6D6" stroke-miterlimit="10" d="M21,188.1c-0.1,1.8,0.7,2.7-0.1,3.7c-0.3,0.4-1,1.3-1.4,1.5
	c-1.4,0.8-2.3,0.5-3.7,1c-4.1,1.6-8.3,2.9-12.9,3.3"/>
<path fill="none" stroke="#D6D6D6" stroke-miterlimit="10" d="M31.1,181.5c2.5,0.2,3.9-0.1,5.6-2"/>
<path fill="none" stroke="#D6D6D6" stroke-miterlimit="10" d="M40.5,178.7c1.5-0.7,3.3-2,4.7-1.2c1.3,0.8,1.9,2.4,3.3,3.1
	c1.3,0.6,2.8,0.8,4.3,1c0.8,0.1,1.6,0.2,2.3-0.2c1.3-0.7,0.9-2.5,0.8-3.9"/>
<path fill="#EAEAEA" stroke="#D6D6D6" stroke-miterlimit="10" d="M23.2,181.9c-0.4,1.7-1.7,2.9-2.3,4.5c-0.1,0.4-0.2,0.9-0.1,1.3
	c0.1,0.4,0.3,0.7,0.6,0.9c0.5,0.3,1.2,0,1.6-0.4c0.4-0.5,0.7-1.1,1.1-1.5c0.7-0.6,2.2-1,2.5-0.2c0.1,0.2,0.3,0.4,0.6,0.4
	c1.4,0,3.1,0.9,4.2-0.1c0.8-0.7,0.4-2.1,0.2-3.2c-0.1-0.5-0.2-1-0.4-1.5c-0.2-0.7-0.4-1.3-0.7-2c-0.1-0.5-0.3-1-0.8-1.2
	c-0.2-0.1-0.5-0.1-0.7-0.2c-0.7-0.1-1.4-0.1-2-0.2c-1.2-0.1-2.6-0.1-3.3,0.8C23.4,180.2,23.4,181.1,23.2,181.9z"/>
<path fill="#EAEAEA" stroke="#D6D6D6" stroke-miterlimit="10" d="M36.8,178.8c-0.1,1,0.5,2,1.2,2.7c0.3,0.3,0.9,0.6,1.3,0.5
	c1.3-0.5,1.6-2.8,0.8-4C39.4,177,36.8,177.6,36.8,178.8z"/>
<path fill="#EAEAEA" stroke="#D6D6D6" stroke-miterlimit="10" d="M76.7,158.7c-0.7,2.5-3.2,4.2-4.3,6.6c-1.3,2.8-0.4,6.4-2,9
	c-1.3,2-5.2,4.1-6.4,2c-1.2-2.1-0.2-5.3-2.3-6.4c-1.9-1.1-4.6-0.2-5.7,1.7c-1.1,1.9-1.7,6,0.5,6.2c1.7,0.1,0.8-3.4,2-4.5
	c1.2-1.1,3.6,0,3.5,1.7c0,0.6-0.3,1.1-0.3,1.6c0,0.9,0.7,1.6,1.5,2c0.8,0.4,1.7,0.4,2.5,0.4c2.4,0,5.1-0.5,6.7-2.3
	c2.6-2.9,1.6-7.5,3.2-11c1.2-2.6,3.9-4.4,4.7-7.1c0.6-2.2-0.2-4.6-0.7-6.8c-0.4-1.8-0.6-3.7-0.7-5.5c0-0.7,0-1.4,0.4-1.9
	c0.7-0.9,2.2-0.7,3.3-0.4c2.2,0.6,4.4,1.2,6.6,1.8c0.3,0.1,0.6,0.2,0.8,0.3c0.8,0.6,0.7,1.8,0.9,2.8c0.2,1,1.4,2,2.1,1.2
	c0.2-0.3,0.2-0.7,0.2-1.1c0-1-0.6-2.2,0-3.1c0.4-0.6,1.3,0.3,1.9,0.6c1.2,0.6,2.6,0.1,3.8-0.3c0.8-0.3,1.8-0.8,1.9-1.7
	c0-0.3,0-0.7-0.2-1c-1-2-3.8-2.3-6-1.8c-2.2,0.6-4.3,1.8-6.6,1.7c-2-0.1-3.8-1.1-5.6-1.7c-1.9-0.6-4.3-0.6-5.5,1
	c-1,1.2-0.9,2.9-0.8,4.4c0.2,2.7,0.5,5.4,0.7,8.1C76.9,156.3,77,157.5,76.7,158.7z"/>
<path fill="none" stroke="#D6D6D6" stroke-miterlimit="10" d="M164.1,152c0.5,0.1,0.6,0.6,1,0.8c0.4,0.3,0.6,0.8,1,1.1
	s1.1,0.3,1.6,0c7.1-3.5,15.9-1.5,22.5-5.9c3.6-2.4,6.9-5.7,8.6-9.7c1.7-4.1,1.6-9-0.9-12.6c-1.1-1.6-2.7-3.5-1.7-5.1
	c0.5-0.8,1.5-1.2,2.4-1.5c4.4-1.5,10.3-2.5,12.6,1.5c1,1.6,0.9,3.7,1,5.6c0.2,3,0.8,6,1.8,8.9c0.9,2.5,2.4,5.2,5,5.6
	c2.1,0.4,4.3-0.3,6.4-1c7.5-2.8,13-0.6,21-0.3c2.3,0.1,7.6-0.5,9.3-2c2.6-2.2,2.8-5.1,5.6-7c2.8-2,8.3-2.2,11.8-2
	c11,0.7,7.7-2.2,12.8-4.5c2.9-1.3,4.9-0.4,8.5-0.5c2.4,0,4.6-4.2,7-4.7c7.1-1.5,16.2,0,17.2-0.9c1.9-1.6-0.7-6.9,1.1-8.4
	c0.4-0.4,1.5-0.6,2-0.9c4.4-2.6,10.4-5.2,14.4-5.9c7-1.2,4.9,4,10.4,2.8c2.3-0.5,4.8-1.3,8.1-0.8c0.6,0.1,1.3,0.1,1.9,0.1
	c0.6,0,1.2-0.9,1.8-1.1c4.8-1.3,9.5-3.6,12.7-7.4"/>
<path fill="#EAEAEA" stroke="#D6D6D6" stroke-miterlimit="10" d="M0.2,197.6c-0.3,0-0.7,0-0.9,0.2c-0.2,0.2-0.2,0.5-0.3,0.8
	c-0.1,0.8-0.8,1.8-0.3,2.5c0.6,0.8,1.9-0.1,2.8-0.5c0.2-0.1,0.5-0.2,0.6-0.3c0.4-0.3,0.4-0.8,0.5-1.3c0.1-0.5,0.5-1,0.2-1.4
	C2.3,196.9,1.1,197.6,0.2,197.6z"/>
<path fill="none" stroke="#D6D6D6" stroke-miterlimit="10" d="M-1.3,200.9c-1.9-0.1-3.8,0.3-5.6,1.1c-1.1,0.5-2.2,1.3-3.5,1.4
	c-0.7,0.1-1.5,0-2.2,0"/>
<path fill="none" stroke="#D6D6D6" stroke-miterlimit="10" d="M278.9,319.1c-5.1,8.1-11.5,22.2-19.3,32.1c-1.3,1.6-2.7,3.3-3.5,5.1
	c-0.8,1.7-1.2,3.5-2.4,4.9c-0.8,0.9-1.9,1.6-2.7,2.5c-2.3,2.7-1.6,7-3.7,9.9c-1.7,2.4-4.7,3.2-7.5,4.1c-0.6,0.2-1.3,0.1-1.6,0.6"/>
<path fill="none" stroke="#D6D6D6" stroke-miterlimit="10" d="M235.4,331.8c1.1,1.2,1.1,3,0.6,4.5c-0.5,1.5-1.4,2.8-2.1,4.2
	c-3.8,7.3-2.5,16-1.4,24.2c0.1,0.8,0.2,1.6,0,2.3c-0.2,0.8-0.8,1.4-1.3,2c-1,1.3-2.1,2.8-3,4.4c-0.7,1.3-0.3,2.3-0.5,3.8
	c-0.1,0.8-0.3,1.6-0.5,2.3"/>
<path fill="#EAEAEA" stroke="#D6D6D6" stroke-miterlimit="10" d="M311.2,279.6c0.6-1.5,3.7-3.4,2.2-4.1c-1.3-0.6-2.2,1.9-3.6,2.1
	c-0.8,0.1-0.5-1.5-0.1-2.1c0.4-0.7,1.1-1.2,1.4-1.9c0.4-0.8,0.4-1.7,0.5-2.6c0.4-2.7,2.8-5,5.6-5.3c0.4,0,0.9-0.1,1.3-0.3
	c0.7-0.5,0.4-1.6,0.2-2.4c-0.4-1.8,0.7-3.5,0.6-5.4c-0.2-2.8-0.9-5.9,1.4-7.6c1.3-0.9,2.8-1.3,4.2-2c1.4-0.8,2.6-2.2,2.2-3.8
	c-0.1-0.6-0.5-1.1-0.6-1.6c-0.3-1.7,1.5-3.1,3.2-3.6c1.7-0.6,3.7-0.9,4.5-2.5c0.7-1.1,0.5-2.6,0.6-3.9s1.2-2,2.3-2.8
	c1.3-1,0.5-3.9-1.1-4.1c-0.9-0.1-1.7,0.6-2.3,1.3c-1.8,2.1-3.7,4.2-5.5,6.3c-1.9,2.2-3.9,4.4-5.5,6.8c-1.2,1.8-2.3,3.7-3.6,5.4
	c-1.9,2.3-4.4,4.1-6.1,6.5c-0.9,1.2-1.6,2.6-2.3,4c-2.4,4.4-5.3,8.6-9,12c-1.7,1.6-3.6,3-4.7,5c-0.8,1.5-1.2,3.2-2.1,4.6
	c-1.1,1.6-2.7,2.6-4.2,3.9c-1.4,1.3-2.7,3-2.5,4.9c0.1,0.9,0.5,1.8,0.3,2.6c-0.2,0.6-0.7,1.2-1.1,1.7c-2,2.3-2.9,5.6-3.9,8.5
	c-0.7,2.2-2.8,4.1-2.6,6.4c0.3,3.5-0.6,6.8-2.3,11.1c-0.3,0.8,0.1,2.6,1,2.6c0.3,0,0.5-0.2,0.8-0.4c5.5-4.3,8.7-10.8,13.5-15.9
	c3.6-3.9,8-6.8,12.4-9.8c2.1-1.5,4.3-3,5.6-5.2c0.4-0.8,0.8-1.6,0.7-2.5C312.4,283.5,310.4,281.5,311.2,279.6z"/>
<path fill="#EAEAEA" stroke="#D6D6D6" stroke-miterlimit="10" d="M234.8,331.9c1.4-0.7,0.5-3.2-0.6-4.3c-1-0.9-2.8-1.5-2.7-2.9
	c0-0.3,0.1-0.6,0.3-0.9c2.1-5.4,1.9-11.7-0.7-16.9c-0.2-0.5-0.5-1-1-1.2c-0.4-0.2-0.9-0.2-1.3-0.2c-2-0.3-2.9-3.3-1.4-4.7
	c0.7-0.6,1.7-0.9,2.4-1.5c1-0.9,1.3-2.6,0.5-3.7c-0.7-1.1-2.3-0.9-3.6-1c-0.8-0.1-0.2-1.5,0.5-1.9c0.7-0.4,1.5-0.5,2.1-1.1
	c0.3-0.3,0.5-0.7,0.7-1.1c1.1-2.9,0.8-6.3-0.7-8.9c-0.5-1-1.3-1.8-2.3-2.3c-0.7-0.3-1.4-0.4-2.1-0.7c-0.8-0.3-1.5-0.7-2.2-1.1
	c-5.5-3.1-12.4-5.8-18.9-7.2c-2.4-0.5-6.7,0.8-9.1,0.8c-0.8,0-1.8-0.3-2.6-0.1c-1,0.3-2.1,1.3-2.9,1.9c-3.6,2.7-4.9,8.3-3.8,14.6
	c0.2,1.1,1.2,2,1.4,3.1c0.3,1.1,0,2.4-1,3c-1.1,0.6-2.4,0-3.6,0.2c-1.5,0.2-2.5,1.6-2.9,3s-0.3,3-0.3,4.4c0,3.6,1.2,9.4-2.2,10.6
	c-1.8,0.6-3.9,0.4-4.6,2.2c-0.7,1.8-1.5,4.5,0,5.7c0.9,0.7,2.2-0.8,3.3-1.1c1.1-0.3,2.6-0.2,3,0.9c0.3,0.8,0,1.6,0.1,2.5
	c0.2,1.8,2.2,2.8,4,3c1.8,0.2,3.7-0.1,5.4,0.6c1.1,0.5,2,1.3,3.2,1.5c1.1,0.2,2.2-0.3,3.3-0.6c3.7-1.1,7.7-0.6,11.2,0.9
	c3.5,1.5,6.6,4,9.1,6.8c1.2,1.4,2.3,2.9,4,3.5c2.8,1.1,5.8-0.5,8.2-2.3C229.2,333.7,232.1,333.3,234.8,331.9z"/>
<path fill="none" stroke="#D6D6D6" stroke-miterlimit="10" d="M171.9,320c-0.1,0.4-0.3,1.2-0.6,1.5c-1.4,1.9-4.7-0.6-7.1-0.3
	c-0.9,0.1-1.7,0.5-2.6,0.4c-0.5,0-1-0.2-1.5-0.4c-2-0.6-4.3-0.2-6,1.1c-1,0.7-1.7,1.7-2.7,2.5c-0.9,0.8-2.2,1.3-3.4,1
	c-2-0.6-2.8-3.6-4.9-3.6c-1.5,0-2.4,1.6-3.1,3c-0.6,1.4-1.7,3-3.2,2.8c-1.9-0.2-2.5-3.1-4.4-3.5c-1.3-0.3-2.6,0.9-3.1,2.1
	s-0.6,2.7-1.1,3.9c-0.4,0.9-0.9,1.6-1.4,2.4c-4.7,6.6-9.5,13.1-14.2,19.7c-3.1,4.3-7.3,7.6-11.9,10.3c-1.5,0.9-3,1.6-4.5,2.5
	c-4.5,2.9-7.7,7.3-11.6,10.9c-0.4,0.4-0.9,0.8-1.3,1.2"/>
<path fill="#EAEAEA" stroke="#D6D6D6" stroke-miterlimit="10" d="M368.9,174.5c-1,0.6-2.1,1-3.3,1.1c-1.1,0.1-2.4-0.1-3.3,0.6
	c-0.7,0.5-1,1.5-1.2,2.3c-0.6,2.6-1.3,5.3-1.9,7.9c-0.2,0.6-0.3,1.2-0.2,1.9c0,0.5,0.2,1,0.3,1.4c0.4,2.4-1,4.8-0.5,7.1
	c0.1,0.4,0.3,0.9,0.7,1.1c0.5,0.3,1.1,0,1.6-0.3c0.4-0.4,0.8-0.8,1.3-1.1c1-0.5,2.4-0.2,3.1-1c0.4-0.4,0.5-0.9,0.6-1.5
	c0.5-2.7,1.6-5.5,3.6-7.3"/>
<path fill="none" stroke="#D6D6D6" stroke-miterlimit="10" d="M336.7,226c0.4-0.4,1-1.5,1.4-2c0.7-0.8,1.6-1.2,2.5-1.8
	c3.9-2.6,4.4-7.4,6.2-10.4c0.5-0.8,1.4-1.4,2-2.2c0.5-0.6,0.8-1.3,1.2-2c2.1-3.7,7-7.3,8.9-9.6"/>
<g>
	<g>
		<path fill="none" stroke="#585858" stroke-miterlimit="10" d="M-12.7,194.2c0.6-0.2,1.3,0.1,2,0.2"/>
		<path fill="none" stroke="#585858" stroke-miterlimit="10" stroke-dasharray="4.0029,1.0007" d="M-9.8,194.2
			c1.1-0.7,1.1-2.3,1.6-3.5c0.5-1.2,1.6-2,2.7-2.7c1.3-0.9,2.7-1.9,4-2.8c0.8-0.6,1.7-1.2,2.6-1.5c1.2-0.4,2.9,0.5,3.8-0.4
			c0.4-0.5-0.6-1.4-0.3-1.9c0.6-0.9,3-0.6,2.7-1.6c-0.2-0.7-0.9-1.3-0.4-1.8c0.5-0.6,1.7-0.3,2.1-0.9c0.4-0.6-0.9-1.4-0.6-2
			c0.8-1.3,3-0.6,4.2-1.5c2.3-1.8,4.4,2.5,6.7,0.8c1.9-1.4,3.8-2.9,5.7-4.3c4.4-3.3,8.7-6.7,13.1-10c2-1.6,4.1-3.1,6.6-3.9
			c1.1-0.3,2.3-0.5,3.3-1c0.8-0.4,1.4-1.1,2.1-1.7c1.2-1,2.5-1.9,3.9-2.7c2.2-1.3,4.4-2.7,6.6-4c3.3-2,6.6-4,10.3-5.3
			c5-1.7,10.5-1.8,15.6-0.3c0.9,0.3,1.8,0.6,2.7,0.6c3.3,0.2,6.7-3,9.6-1.5c0.8,0.4,1.4,1.1,2.2,1.3c1,0.2,2.1-0.2,3,0.4
			c0.5,0.3,0.8,0.9,1.4,1c0.6,0.1,1-0.4,1.6-0.6c1.2-0.4,1.3,2,2.3,2.8c2.6,2.1,4.8-5.8,8-6.6c0.6-0.2,1.2-0.3,1.7-0.6
			c2.1-1.2,2.7-4.3,5-4.9c0.7-0.2,1.4-0.1,2-0.2c1.3-0.1,2.4-0.7,3.6-1.3c4.9-2.2,10.4-3.1,15.7-2.5c1.1,0.1,2.3,0.3,3.4,0.2
			c0.9-0.1,1.7-0.4,2.5-0.6c1.7-0.3,3.4-0.2,5,0.3c1.1,0.4,2.3,0.9,3.4,0.6c0.7-0.2,1.2-0.7,1.8-1.1c1.5-1,3.3-1.3,5-1.8
			c3.1-1,6-3,7.9-5.6c0.4-0.5,0.7-1,0.8-1.6c0.1-0.6,0.1-1.2,0.1-1.8c0.1-1.1,0-2.4,1.1-2.8c1.7-0.7,5.3,2.1,5.1,0.3
			c-0.2-1.7-2.8-2.4-2.8-3.8c0-1.1,0.9-3.1,1.4-4c0.9-2.1,2.8-4,3.9-5.4c1.2-1.5,2.4-3,4.1-3.9c0.9-0.5,2-0.7,2.9-1.3
			c1.4-1,2-2.8,3.3-3.8c0.9-0.7,2.1-0.7,3.1-1.1c3.6-1.3,7.5-2,11.3-2.3c1.1-0.1,2.9-0.1,4,0.2c1.7,0.6,1.9,2.4,3.1,3.8
			c1.1,1.4,2.9,0.6,4.6,1.2c2.6,0.9-0.4,5.2-0.2,7.9c0.1,1.6,0.7,2.5,1.5,3.9c0.3,0.4,0.6,0.9,1,1.2c0.3,0.2,0.6,0.3,0.9,0.5
			c1,0.6,1.4,1.8,1.6,2.9c0.1,1.1,0,2.3,0.1,3.4c0.1,2.6,1.2,5,2.4,7.3c1.9,3.7,3.2,7.9,5.6,11.3c0.7,1,1.9,2.2,3,2.8
			c0.9,0.5,2.6,0.6,3.6,0.7c1.6,0.2,3.1,0.7,4.7,0.9c4.4,0.5,7.8,0.1,8.8-1c0.2-0.2,0.6-0.6,0.8-0.8c2.8-2.8,4.3-7.4,8.1-8.8
			c3.1-1.2,9.2-0.2,9.6-1.8c0.3-1.6-2.7-3-2.1-4.5c0.5-1.2,3.6,1.7,12.8-10c1-1.2,2-2.4,3.3-3.3c1.3-0.9,2.8-1.3,4.3-1.8
			c4.3-1.4,9.3-2.7,13.3-0.5c0.9,0.5,1.8,1.2,2.8,1.5c1.9,0.7,4,0,6.1-0.4c2-0.4,3.8,0.5,5.7,1.3c3.1,1.2,5.6-3,8.6-4.4
			c7-3.2,13.1-2.8,20.4-7.7c3-2.1,6.2-3.8,9.4-5.2c1.3-0.6,2.7-1.2,4-1.7c2.7-1.1,5.7-2,8.6-2"/>
		<path fill="none" stroke="#585858" stroke-miterlimit="10" d="M369.5,86.4c0.7,0,1.3,0.1,2,0.2"/>
	</g>
</g>
<text transform="matrix(1 0 0 1 127.329 9.4328)"><tspan x="0" y="0" fill="#585858" font-family="'Verdana-Italic'" font-size="8">Ardeth</tspan><tspan x="0" y="9.6" fill="#585858" font-family="'Verdana-Italic'" font-size="8">Lake</tspan></text>
<text transform="matrix(1 0 0 1 196.246 14.8493)" fill="#585858" font-family="'Verdana-Italic'" font-size="8">9149 ×</text>
<text transform="matrix(1 0 0 1 250.4522 179.7625)"><tspan x="0" y="0" fill="#585858" font-family="'Verdana-Italic'" font-size="8">Andrews</tspan><tspan x="15.3" y="9.6" fill="#585858" font-family="'Verdana-Italic'" font-size="8">Peak</tspan></text>
<text transform="matrix(1 0 0 1 287.8762 184.8077)" fill="#585858" font-family="'Verdana-Italic'" font-size="8">× 8551</text>
<path fill="none" d="M323.2,201c2.1-2.6,2.9-6,5-8.6c1.3-1.6,3.1-2.8,4.7-4.2c2.7-2.3,4.9-5,6.7-8c4.1-7.2,5.1-15.7,7.4-23.7
	c1.5-5.1,3.5-10,6.1-14.7"/>
<text transform="matrix(0.7227 -0.6912 0.6912 0.7227 334.3738 190.3438)"><tspan x="0" y="0" fill="#7D7D7D" font-family="'Verdana-Italic'" font-size="7">8</tspan><tspan x="4.8" y="0" fill="#7D7D7D" font-family="'Verdana-Italic'" font-size="7" rotate="-8.5">0</tspan><tspan x="9.6" y="-0.8" fill="#7D7D7D" font-family="'Verdana-Italic'" font-size="7" rotate="-17">0</tspan><tspan x="14.2" y="-2.2" fill="#7D7D7D" font-family="'Verdana-Italic'" font-size="7" rotate="-24.3">0</tspan></text>
<path fill="none" d="M194.8,220.2c-3.7-10.7-2.1-23.1,4.2-32.5"/>
<text transform="matrix(7.046168e-02 -0.9975 0.9975 7.046168e-02 195.3308 208.044)"><tspan x="0" y="0" fill="#7D7D7D" font-family="'Verdana-Italic'" font-size="7">7</tspan><tspan x="4.2" y="0" fill="#7D7D7D" font-family="'Verdana-Italic'" font-size="7" rotate="6.6">8</tspan><tspan x="8.3" y="0.4" fill="#7D7D7D" font-family="'Verdana-Italic'" font-size="7" rotate="13.3">0</tspan><tspan x="12.3" y="1.4" fill="#7D7D7D" font-family="'Verdana-Italic'" font-size="7" rotate="20.1">0</tspan></text>
<text transform="matrix(1 0 0 1 134.4514 177.589)"><tspan x="0" y="0" fill="#7BBCEB" font-family="'Verdana-Italic'" font-size="8">Andrews</tspan><tspan x="15.7" y="9.6" fill="#7BBCEB" font-family="'Verdana-Italic'" font-size="8">Lake</tspan></text>
<text transform="matrix(1 0 0 1 100.1785 190.3515)" fill="#585858" font-family="'Verdana-Italic'" font-size="8">8148 ×</text>
<path fill="none" d="M36.2,142.7c1.6-0.5,3-1.6,4.4-2.6c2.1-1.5,4.4-2.9,6.8-4c5.8-2.8,12.3-4.4,17-8.8"/>
<text transform="matrix(0.8621 -0.5068 0.5068 0.8621 43.5321 141.1527)"><tspan x="0" y="0" fill="#7D7D7D" font-family="'Verdana-Italic'" font-size="7">7</tspan><tspan x="4.2" y="0" fill="#7D7D7D" font-family="'Verdana-Italic'" font-size="7" rotate="5.5">8</tspan><tspan x="8.5" y="0.4" fill="#7D7D7D" font-family="'Verdana-Italic'" font-size="7" rotate="8.2">0</tspan><tspan x="13" y="1.1" fill="#7D7D7D" font-family="'Verdana-Italic'" font-size="7" rotate="6.6">0</tspan></text>
<text transform="matrix(1 0 0 1 230.258 9.7243)"><tspan x="0" y="0" fill="#585858" font-family="'Verdana-Italic'" font-size="8">Mahan</tspan><tspan x="0" y="9.6" fill="#585858" font-family="'Verdana-Italic'" font-size="8">Peak</tspan></text>
<path fill="none" d="M273.9,99.4c3.3-5.9,7.4-11.3,12.3-16c4.5-4.4,10.5-8.3,16.6-6.9"/>
<text transform="matrix(0.5957 -0.8032 0.8032 0.5957 279.559 95.0554)"><tspan x="0" y="0" fill="#7D7D7D" font-family="'Verdana-Italic'" font-size="7">7</tspan><tspan x="4.3" y="0" fill="#7D7D7D" font-family="'Verdana-Italic'" font-size="7" rotate="3.7">8</tspan><tspan x="8.6" y="0.3" fill="#7D7D7D" font-family="'Verdana-Italic'" font-size="7" rotate="7.4">0</tspan><tspan x="12.8" y="0.8" fill="#7D7D7D" font-family="'Verdana-Italic'" font-size="7" rotate="12.3">0</tspan></text>
<path fill="none" d="M133,89.2c1.2-3.9,7-3.8,10.6-5.7c8.6-4.6,15.5-12,24.7-15.5"/>
<text transform="matrix(0.9514 -0.308 0.308 0.9514 139.8124 87.5697)"><tspan x="0" y="0" fill="#7D7D7D" font-family="'Verdana-Italic'" font-size="7">8</tspan><tspan x="5" y="-0.1" fill="#7D7D7D" font-family="'Verdana-Italic'" font-size="7" rotate="-12.4">2</tspan><tspan x="9.5" y="-1.2" fill="#7D7D7D" font-family="'Verdana-Italic'" font-size="7" rotate="-16.4">0</tspan><tspan x="13.8" y="-2.4" fill="#7D7D7D" font-family="'Verdana-Italic'" font-size="7" rotate="-18.2">0</tspan></text>
<text transform="matrix(0.9919 0.1271 -0.1271 0.9919 100.6772 162.6804)" fill="#585858" font-family="'Verdana-Italic'" font-size="8">Falls</text>
<text transform="matrix(0.9993 3.659266e-02 -3.659266e-02 0.9993 229.9152 145.7684)" fill="#585858" font-family="'Verdana-Italic'" font-size="8">Creek</text>
<text transform="matrix(1 0 0 1 289.5642 235.202)"><tspan x="0" y="0" fill="#585858" font-family="'Verdana-Italic'" font-size="8">Middle</tspan><tspan x="-31.5" y="9.6" fill="#585858" font-family="'Verdana-Italic'" font-size="8">Branigan Lake</tspan></text>
<text transform="matrix(1 0 0 1 187.4629 303.7903)"><tspan x="0" y="0" fill="#585858" font-family="'Verdana-Italic'" font-size="8">Branigan</tspan><tspan x="8.5" y="9.6" fill="#585858" font-family="'Verdana-Italic'" font-size="8">Lake</tspan></text>
<text transform="matrix(1 0 0 1 57.7619 312.0182)" fill="#585858" font-family="'Verdana-Italic'" font-size="8">× 7718</text>
<path fill="none" d="M138.7,284.5c7.3-3.7,14.1-8.5,19.3-14.9"/>
<text transform="matrix(0.8608 -0.509 0.509 0.8608 142.5339 285.4234)"><tspan x="0" y="0" fill="#7D7D7D" font-family="'Verdana-Italic'" font-size="7">7</tspan><tspan x="4.6" y="0" fill="#7D7D7D" font-family="'Verdana-Italic'" font-size="7" rotate="-4">6</tspan><tspan x="9.3" y="-0.3" fill="#7D7D7D" font-family="'Verdana-Italic'" font-size="7" rotate="-8.3">0</tspan><tspan x="13.9" y="-1" fill="#7D7D7D" font-family="'Verdana-Italic'" font-size="7" rotate="-13.2">0</tspan></text>
<path fill="none" d="M275.7,336.5c9.9-25.7,33.2-45.7,60.1-51.6c6.4-1.4,20.1-2.2,17.3-8.1"/>
<text transform="matrix(0.9099 -0.4149 0.4149 0.9099 318.8065 293.5472)"><tspan x="0" y="0" fill="#7D7D7D" font-family="'Verdana-Italic'" font-size="7">7</tspan><tspan x="4.3" y="0" fill="#7D7D7D" font-family="'Verdana-Italic'" font-size="7" rotate="3.1">6</tspan><tspan x="8.6" y="0.2" fill="#7D7D7D" font-family="'Verdana-Italic'" font-size="7" rotate="6.2">0</tspan><tspan x="12.9" y="0.7" fill="#7D7D7D" font-family="'Verdana-Italic'" font-size="7" rotate="9.4">0</tspan></text>
<path fill="none" d="M24.2,332.9c3.7,0.2,7.2,1.1,10.8,2c3.2,0.8,6.3,1.7,9.3,3.1"/>
<text transform="matrix(0.9886 0.1504 -0.1504 0.9886 24.8363 335.3812)"><tspan x="0" y="0" fill="#7D7D7D" font-family="'Verdana-Italic'" font-size="7">7</tspan><tspan x="4.2" y="0" fill="#7D7D7D" font-family="'Verdana-Italic'" font-size="7" rotate="5">2</tspan><tspan x="8.6" y="0.4" fill="#7D7D7D" font-family="'Verdana-Italic'" font-size="7" rotate="6.3">0</tspan><tspan x="12.9" y="0.9" fill="#7D7D7D" font-family="'Verdana-Italic'" font-size="7" rotate="9.7">0</tspan></text>
<g>
	<g>
		<polyline fill="none" stroke="#7D7D7D" stroke-miterlimit="10" points="85.2,341.6 85.2,348.7 275.4,348.7 275.4,341.7 		"/>
		<line fill="none" stroke="#7D7D7D" stroke-miterlimit="10" x1="180.5" y1="341.4" x2="180.5" y2="348.7"/>
		<line fill="none" stroke="#7D7D7D" stroke-miterlimit="10" x1="161.2" y1="349.2" x2="161.2" y2="343.7"/>
		<line fill="none" stroke="#7D7D7D" stroke-miterlimit="10" x1="142.4" y1="349.2" x2="142.4" y2="343.7"/>
		<line fill="none" stroke="#7D7D7D" stroke-miterlimit="10" x1="123.3" y1="349.2" x2="123.3" y2="343.5"/>
		<line fill="none" stroke="#7D7D7D" stroke-miterlimit="10" x1="104.6" y1="349.2" x2="104.6" y2="343.7"/>
	</g>
	<text transform="matrix(1 0 0 1 83.7836 339.1468)" fill="#7D7D7D" font-family="'Verdana'" font-size="8">0</text>
	<text transform="matrix(1 0 0 1 174.2947 339.1469)" fill="#7D7D7D" font-family="'Verdana'" font-size="8">0.5</text>
	<text transform="matrix(1 0 0 1 258.3416 339.1469)" fill="#7D7D7D" font-family="'Verdana'" font-size="8">1 mi</text>
</g>
</svg>
