<?xml version="1.0" encoding="utf-8"?>
<!-- Generator: Adobe Illustrator 17.1.0, SVG Export Plug-In . SVG Version: 6.00 Build 0)  -->
<!DOCTYPE svg PUBLIC "-//W3C//DTD SVG 1.1//EN" "http://www.w3.org/Graphics/SVG/1.1/DTD/svg11.dtd">
<svg version="1.1" id="Layer_1" xmlns="http://www.w3.org/2000/svg" xmlns:xlink="http://www.w3.org/1999/xlink" x="0px" y="0px"
	 viewBox="0 0 360 360" enable-background="new 0 0 360 360" xml:space="preserve">
<path fill="none" stroke="#E1E1E1" stroke-miterlimit="10" d="M183.2,283.4c-0.7,0.7-0.8,1.9-0.3,2.8c0.5,0.9,1.8,1.7,2.6,1.1
	c1.3-1.1,2-4,0.7-5C185.3,281.7,183.9,282.6,183.2,283.4z"/>
<path fill="none" stroke="#E1E1E1" stroke-miterlimit="10" d="M6.9,231.4c1.4,1.5,3.5,2.5,5.5,2.5s3.8-1.5,5-3.1
	c1.7-2.2,3.4-7.2,4-10.9c0.5-2.9,0.4-6,1-8.9c0.7-3.1,2.1-6,3.5-8.8c1.9-3.7,6.2-7.1,5.6-11.2c-0.2-1.3-2.4-1.2-3.7-0.8
	s-2.4,1.2-3.4,1.9c-9.2,6.8-18.4,13.6-27.3,20.8c-1.3,1.1-2.6,2.2-3.3,3.7c-0.7,1.5-0.5,3.6,0.8,4.6c0.7,0.5,1.6,0.7,2.2,1.2
	c2.3,1.7,1.4,6.1,4.1,7.2c1.4,0.6,3-0.1,4.4,0.5C5.9,230.3,6.4,230.9,6.9,231.4z"/>
<path fill="none" stroke="#E1E1E1" stroke-miterlimit="10" d="M90.8,174.5c0.7,1,2.1,1.4,3.3,1.3c1.2-0.1,2.8-1.3,2.2-2.3
	c-0.7-1.2-2.6-1.3-4-1C91.4,172.7,90.2,173.7,90.8,174.5z"/>
<path fill="none" stroke="#E1E1E1" stroke-miterlimit="10" d="M97.3,163.6c0.9-1.1,0.7-3-0.5-3.8c-1.3-0.8-3.2-0.2-3.8,1.2
	c-0.4,1.1,0.1,2.5,1.1,3.1C95.1,164.7,96.6,164.5,97.3,163.6z"/>
<path fill="none" stroke="#E1E1E1" stroke-miterlimit="10" d="M118.2,148.6c-0.5,0.3-0.9,0.6-1.2,1c-0.5,0.7-0.4,1.7,0.2,2.3
	c0.4,0.4,1.1,0.6,1.6,0.9s1.1,0.7,1.1,1.4c0,0.2,0,0.5,0.1,0.7c0.1,0.2,0.4,0.3,0.6,0.3c3.6,0.6,7.5-1.1,9.5-4.1
	c0.3-0.5,0.7-1.1,0.6-1.7c-0.1-0.7-0.7-1.3-1.4-1.7s-1.4-0.6-2-1.1c-1.2-1-1.5-2.7-2.3-4.1c-0.4-0.6-0.9-1.2-1.5-1.5
	c-0.7-0.3-1.5-0.2-2,0.4c-0.5,0.5-0.5,1.3-0.3,2c0.2,0.7,0.6,1.2,1,1.8c0.1,0.2,0.2,0.3,0.2,0.5c0,0.3-0.3,0.6-0.6,0.7
	C120.6,147.1,119.4,147.8,118.2,148.6z"/>
<path fill="none" stroke="#E1E1E1" stroke-miterlimit="10" d="M165,92.6c-0.4,0.3-0.8,0.6-1.1,1c-0.3,0.4-0.4,1.1,0,1.4
	c2.7,2.3,7.3,0.9,9.9-1.5c0.9-0.8,2.4-2.4,1.5-3.3C172.6,87.7,168,90.6,165,92.6z"/>
<path fill="none" stroke="#E1E1E1" stroke-miterlimit="10" d="M115.8,91.1c0.9-1.3,0.6-3.7-0.5-4.7c-0.6-0.6-1.5-0.7-2.2-0.9
	c-2.1-0.6-4-1.8-5.3-3.5c-0.6-0.7-1.2-1.6-2.1-2c-0.5-0.2-1.2-0.3-1.7-0.3c-4.8-0.1-9.6,0.8-14.1,2.5c-0.8,0.3-1.8,0.7-2.1,1.6
	c-0.3,0.9,0.1,1.8,0.7,2.5c2.3,2.6,6.6,2.6,9.6,0.8c1.1-0.6,2.2-1.5,3.4-1.1c0.7,0.2,1.3,0.9,1.8,1.5c1.2,1.5,2.7,2.6,2.9,4.5
	c0.1,0.5,0.8,2,1.1,2.4c0.5,0.7,1.7,0.7,2.5,0.6C112.3,94.6,114.3,93.3,115.8,91.1z"/>
<path fill="none" stroke="#E1E1E1" stroke-miterlimit="10" d="M-1.3,157.1c-0.6,0.6-0.3,1.7,0.3,2.3c1,0.9,2.9,1.7,3.8,0.7
	c0.7-0.8,0.3-2.4-0.6-2.9C1.9,157,1.4,157,1,157C0.2,156.9-0.7,156.6-1.3,157.1z"/>
<path fill="none" stroke="#E1E1E1" stroke-miterlimit="10" d="M-15.5,125.1c4.3-0.7,8.4-1.9,12.1-4.2c8.4-5.4,9.1-22,19-23
	c1.1-0.1,2-0.2,2.8-0.9c0.8-0.7,1.5-1.7,2.4-2.2c1-0.7,2.3-0.8,3.5-1.2c1.9-0.6,3.6-1.9,5.2-3.2c4.7-3.7,9.4-7.3,14.2-11
	c0.8-0.6,2.5-1,2.3-2c-0.3-1.5-3.5-0.4-4.3-1.7c-1.1-1.7,1.8-3.7,3.7-4.4c1.9-0.7,4-0.8,6-0.9c8-0.6,15.6-3.4,23.3-5.4
	c0.5-0.1,1.1-0.3,1.6-0.1c1,0.3,1.6,1.5,2.6,1.9c1.3,0.5,2.7-0.5,3.8-1.2c3.8-2.4,8.5-2.5,13-2.5c0.7,0,1.5,0,2,0.5
	c0.4,0.4,0.5,0.9,0.7,1.3c0.9,2,3.4,2.8,5.6,3.3c4.5,1,9.1,1.9,13.7,1.2c3.4-0.5,6.7-1.7,10.1-1.5c2.4,0.2,4.4,3.4,6.7,2.7
	c3.8-1.3,5.3-5.5,9.3-5.6c3.5-0.1,5.3-3.8,8.3-5.7c3-1.9,8.5,0.9,10-2.3c0.9-1.8-4.9-2.2-4.5-4.2c0.7-3.1,5.7-2.6,8.6-3.8
	c3.1-1.4,6.2-2.8,8.6-5.2c3.2-3.3,4.5-8.1,5.4-12.7c0.3-1.5,0.5-3,1.4-4.2c0.8-1.1,2.1-1.8,3.3-2.4c2.9-1.5,5.7-3,8.6-4.6
	c3.3-1.8,6.7-3.6,10.2-4.8c5.9-2.1,12.3-2.7,18-5.3c3.1-1.4,5.9-3.2,8.8-5c5.4-3.2,11.1-5.8,17-7.9c3-1,6.1-1.9,8.8-3.7
	c4.1-2.8,6.9-7.8,11.8-8.9"/>
<path fill="none" stroke="#E1E1E1" stroke-miterlimit="10" d="M-14.9,113.3c2.8-0.8,5.4-2.3,8-3.8c2-1.2,2.3-3.6,3.8-5.4
	c0.8-1,2.9,0.6,3.9-0.2c1.2-1.1,0.5-3.3,1.3-4.7c0.8-1.4,2.8-1.3,4-2.5c3.4-3.5,2-9.5,4.3-13.9c1-1.9,4.6-4.2,3.1-5.8
	c-2.5-2.5-6.3,3.2-9.5,4.7c-1.2,0.6-2.4,1.2-3.7,1.2s-2.7-0.6-3.2-1.8c-0.5-1.4,0.4-2.9,1.3-4c1.9-2.3,4.2-4.3,6.7-5.9
	c3.4-2.1,7.2-3.5,11-4.8c4.1-1.5,8.1-2.9,12.2-4.4c3.6-1.3,8.8-5.4,11.2-2.4c0.4,0.5-0.2,1.7,0.5,1.8c4.1,0.5,8.6-5,11.8-2.3
	c0.6,0.5,0.8,1.6,1.6,1.6c12.5,0.9,24.5-5.8,37-7c2.2-0.2,3.9,1.2,6.1,1.4c4.8,0.6,8.7-4.6,13.6-4.8c1.6-0.1,2.4,1.8,3.9,2.1
	c0.5,0.1,1.1-0.1,1.6-0.2c2.3-0.7,4.5-1.4,6.8-2.1c0.6-0.2,1.3-0.4,1.9-0.2c2.1,0.5,2.9,3.1,3.4,5.2c0.2,0.8,0.7,2,1.3,1.5
	c2.6-2.2,4.1-5.3,7.5-5.9c3.4-0.6,7-0.5,9.9-2.3c0.9-0.6,1.8-1.3,2.1-2.4c0.5-1.8-0.6-3.5-1.2-5.3c-1.5-4.8,1.8-9.9,6.1-12.6
	s9.4-3.6,14-5.5c8.9-3.5,16.1-10.2,24.5-14.8c9.7-5.4,20.7-7.9,31.6-10.4c1.8-0.4,3.6-0.9,4.9-2.1c2-2,2.2-5.4,4.5-7
	c1-0.7,2.2-0.9,3.2-1.7c0.8-0.7,1.3-1.7,1.8-2.5c0.5-0.7,1-1.4,1.7-1.9"/>
<path fill="none" stroke="#E1E1E1" stroke-miterlimit="10" d="M160.6,32.3c-0.5,1.6-2.1,3.2-1.5,4.7c0.6,1.5,3.1-0.1,4.4-0.9
	c5.7-3.8,13.4-6.2,16.4-12.4c0.2-0.4,0.3-0.9,0-1.2c-1.3-1.9-4.5,0.2-6.7,1.1c-2.6,1.1-5.3,2.2-7.8,3.5c-1.6,0.8-3.1,1.8-4,3.3
	C161,30.9,160.8,31.6,160.6,32.3z"/>
<path fill="none" stroke="#E1E1E1" stroke-miterlimit="10" d="M145.3-18.8c-12.5,2.6-33.2,8.2-45.8,10.9c-2.5,0.5-5,1-7.4,0.7
	c-2-0.3-3.9-1.2-5.9-1.3c-2.2-0.2-4.4,0.6-6.5,1.3C74-5.3,68.5-3.4,62.9-1.4c-3.3,1.2-6.8,2.3-10.3,1.6c-2-0.4-3.7-1.5-5.6-2.2
	C40.3-4.5,28.7,0,32.3,6.2c3.7,6.4,7.8,15,4.5,19.2C32.4,30.9,23.5,36.7,16.9,40C6.8,45.1-3.6,50-14.3,53.8"/>
<path fill="none" stroke="#E1E1E1" stroke-miterlimit="10" d="M-14.8,79.1C-9.5,73.5-3.1,69,3.7,65.4c11.5-6.1,24.1-9.6,36.7-13.1
	c5.5-1.5,11-3.1,16.6-4.6c7.1-2,14.2-4,21.6-5c5.1-0.7,10.3-1,15.3-2c7.2-1.4,14-4.5,21.2-5.8c19.1-3.3,18.1,4,21.3,2.6
	c6.4-2.9-7.4-6.4,21.3-23.2c1.7-1,13.7-8.7,14.9-10.2c1.5-2,3.6-6.1,1.3-7.2c-7.3-3.2-23.1,8-22.6,0.1c0.3-4.5,11-8,7.6-11
	c-2.6-2.2-6.5,5.7-9.4,3.8c-2.9-1.9,5.1-4.7,6.4-7.8"/>
<path fill="none" stroke="#E1E1E1" stroke-miterlimit="10" d="M-16.7,3.4c0.9,0,1.7,0.3,2.2,1c0.4,0.5,0.5,0.9,1,1.2
	c2.6,1.5,2.5,5.8,4.1,8.3c0.5,0.9,1.1,1.7,1.2,2.7c0.2,1.1,0,2.2,0.1,3.4s0.8,2.3,1.9,2.5c0.5,0.1,1.1-0.1,1.6-0.1
	c1,0.1,1.7,0.9,2.5,1.4c1.9,1.2,4.6,0.5,5.8-1.3c0.5-0.7,0.7-1.6,1.1-2.4c0.8-1.5,2.1-2.8,2.2-4.5c0-2.8-3.4-3.9-5.4-5.9
	C-0.3,8.1-1,5.3-3.2,4c-1.6-0.9-3.5-0.8-5.2-1.3s-3.5-2.8-2.2-4.1c1.5-1.4,3-2.6,4.2-4.2c0.6-0.9,1.3-1.7,1.9-2.6
	c1.8-2.4,3.7-5,4.2-8c0.1-0.9,0.1-1.9,0.1-2.9"/>
<path fill="none" stroke="#E1E1E1" stroke-miterlimit="10" d="M-14.5,46.6c3.7-1.2,7.6-3.8,11-5.4c4.9-2.2,9.7-4.8,14.3-7.6
	c1.7-1,3.5-1.9,5.2-2.7c5.5-2.6,7.7-10.2,6.1-16.1c-1.5-5.7-6.3-10-8.4-15.4c-2.2-5.9-0.5-12.9,3.6-17.6"/>
<path fill="none" stroke="#E1E1E1" stroke-miterlimit="10" d="M365.9,333.1c-0.4,1.5-0.2,3.3-1.1,4.5c-5.9,8.9-12.8,16.6-17.2,24.8"
	/>
<path fill="none" stroke="#E1E1E1" stroke-miterlimit="10" d="M366.7,269.5c-0.4,0-0.8-0.1-1.1-0.1c-15.9-1.4-31.3,5.3-46.1,11.4
	c-13.3,5.5-26.9,10.5-40.9,13.9c-2.4,0.6-4.9,1.1-7.3,0.5c-2.9-0.7-5.5-3.1-8.4-2.4c-1.5,0.4-2.8,1.5-4.3,1.7
	c-1.4,0.2-2.7-0.5-3.9-1c-14.3-5.6-30.8-0.6-45.8,2.3c-6.3,1.2-12.6,3.3-14.7,9.3c-1.2,3.5,4.3,6.4,8,6.4c1.2,0,2.5-0.3,3-1.3
	c0.5-0.8,0.3-1.8,0.5-2.8c0.6-4,4.9-2.8,8.2-0.4s4.5,4.6,5.5,8.5c0.9,3.5,5.2,6.9,4.3,10.4c-0.7,2.7-5.4,0.4-8.2,0.8
	c-2.6,0.4-4.5,2.5-5.9,4.7c-6.2,9.4-7.8,21.8-4.2,32.5c0.4,1.2,1,2.5,2,3.2c0.3,0.2,0.6,0.3,0.9,0.4"/>
<path fill="none" stroke="#E1E1E1" stroke-miterlimit="10" d="M331.8,362.8c1.7-2,3.5-4.1,5.2-6.1c5.7-6.6,11.4-13.3,16.1-20.7
	c4.8-7.6,8.5-16,11.2-24.6c0.4-1.3,0.8-2.6,1.2-3.9"/>
<path fill="none" stroke="#E1E1E1" stroke-miterlimit="10" d="M313.8,362.7c3-4,5.8-8.3,9.9-11.3c3.4-2.4,7.5-3.8,10.1-7
	c2.1-2.6,2.9-6,5-8.6c1.3-1.6,3.1-2.8,4.7-4.2c2.7-2.3,4.9-5,6.7-8c4.1-7.2,5.1-15.7,7.4-23.7c1.5-5.1,3.5-10,6.1-14.7
	c1.4-2.5,2.8-5.9,0.7-7.7c-1.4-1.3-3.7-0.9-5.6-0.5c-6.9,1.7-13.9,3.4-20.8,5.1c-7.5,1.8-15.5,3.9-20.6,9.7
	c-1.7,1.9-3.3,4.4-5.8,5.1c-2.4,0.7-4.9-0.6-7.4-1.1c-4.6-1-9.3,0.5-13.4,2.7c-4.1,2.1-7.9,4.9-12.2,6.8c-7.9,3.4-16.7,3.6-25.3,3.7
	c-0.9,0-1.8,0-2.6-0.4c-1.2-0.7-1.8-2.4-3.2-2.6c-0.7-0.1-1.3,0.2-2,0.2c-3.3,0.4-7.5,0.2-9.3-2.6c-0.7-1.2,0.5-2.8-0.7-3.4
	s-2.7-0.4-4-0.2c-2.7,0.5-5.5,0.9-8.2,1.4c-1.1,0.2-2.2,0.4-3.1,1.1s-1.3,2-0.7,2.9c4,5.8,10.8,2.6,14.1,2.3
	c3.2-0.3,0.3,6.4,0.4,9.6c0.1,2.8,0.2,5.5,0.6,8.3c0.8,5.6,6.4,10.2,8.6,15.4c1.2,2.8-2.1,3.9-1.5,7c0.6,3,2.8,5.8,5.8,6.5
	c3.5,0.7,6.9-1.5,10.3-2.7c3.2-1.1,6.7-1.3,10-0.6c1.7,0.4,3.4,1,4.6,2.3c1.1,1.3,0.1,3.1,0.5,4.8c0.4,1.9,3.7-0.7,5.4,0.1
	c1.4,0.7,1.5,2.5,1.4,4.3"/>
<path fill="none" stroke="#E1E1E1" stroke-miterlimit="10" d="M339.3,321.2c1-1.6,1.9-3.4,3.4-4.4c1.1-0.8,2.6-1.2,3.3-2.3
	c0.6-0.9,0.5-2.1,0.9-3.2c0.3-0.7,0.8-1.3,1.3-1.9c3.8-4.8,4.2-11.5,4.4-17.6c0-0.8,0-1.7-0.4-2.4c-0.9-1.6-3.1-1.6-4.9-1.3
	c-6.4,1-12.7,2.8-18.9,4.7c-1.5,0.4-3,0.9-4.4,1.3c-1.1,0.3-2.2,0.6-3.1,1.3c-1.2,0.8-2.1,2.1-3,3.2c-4.5,5.9-12.6,15.8-18.4,11.1
	c-1.9-1.6-3.6-3-6-3c-6.3,0-12.7,1-18.7,2.9c-1.4,0.5-2.9,1-4.1,1.9c-2,1.5-3.2,3.9-4.2,6.2c-1.2,2.5-2.3,4.9-3.5,7.4
	c-1.2,2.5-2.4,5.1-3.3,7.8c-0.7,2-1.2,4.2-0.8,6.3s2,4.1,4.1,4.3c0.8,0.1,1.7,0,2.4,0.4c0.6,0.4,0.9,1,1.4,1.5
	c1.7,1.3,4.4-0.6,6.2,0.5c0.5,0.3,0.9,0.8,1.3,1.3c2.6,3.5,5.9,6.6,9.9,8.5c4,1.8,8.6,2.4,12.8,1.1c1.3-0.4,2.5-1,3.8-1.1
	c0.9-0.1,1.8-0.1,2.7-0.3c1.9-0.4,3.3-2,4.9-3.1c2.4-1.7,5.3-2.6,7.8-4.1c2.5-1.6,2.4-4.9,4.3-7.2c1.7-2.1,4.7-2.3,6.5-4.2
	C331.5,331.8,336,326.9,339.3,321.2z"/>
<path fill="none" stroke="#E1E1E1" stroke-miterlimit="10" d="M326.3,316.3c2.8-2.8,5.4-5.9,7.7-9.1c0.5-0.7,1.1-1.5,1.2-2.5
	c0.1-0.9-0.4-2-1.3-2.2c-1-0.2-1.9,0.6-2.6,1.3c-2.5,2.3-5.7,3.8-9,4.2c-2,0.3-4.3,0.2-5.9,1.4c-1,0.8-1.6,1.9-2.5,2.8
	c-3.6,4-10.2,3.2-15,5.8c-0.4,0.2-0.9,0.5-1.4,0.6c-0.7,0.2-1.4,0-2.1-0.1c-1.9-0.1-3.7,0.6-5.6,0.7c-1.9,0.1-4.1-0.6-4.6-2.5
	c-0.2-0.6-0.1-1.3-0.5-1.8c-0.4-0.5-1-0.6-1.6-0.7c-1.8-0.3-3.7-0.7-5.6-0.3c-1.8,0.4-3.6,1.8-3.8,3.6c-0.1,0.8,0.1,1.6,0.2,2.3
	c1.1,5.2,2.2,10.3,3.3,15.5c0.2,0.9,0.4,1.9,1,2.6c0.5,0.6,1.2,1,1.9,1.4c4.3,2.3,9,4.7,13.8,4c1.8-0.3,3.6-0.9,5.4-1
	c2.3-0.1,4.6,0.8,6.8,0c3.2-1.2,4.3-5.4,7.3-7c1-0.5,2.3-0.8,2.9-1.7c0.6-0.8,0.6-1.8,0.9-2.7c0.7-2.1,3-3.2,4.9-4.3
	c1.9-1.2,3.8-3.3,3-5.4c-0.2-0.6-0.7-1.2-0.8-1.8C324.3,318.4,325.4,317.2,326.3,316.3z"/>
<path fill="none" stroke="#E1E1E1" stroke-miterlimit="10" d="M250,340.2c0.6,0.7,1.6,0.2,2.4-0.2c1.8-1.1,4.9-3,3.7-4.8
	c-0.3-0.5-1.2-0.7-1.8-0.6c-0.4,0.1-0.8,0.3-1.1,0.5c-1.2,0.8-2.3,2-3,3.3C249.8,338.9,249.6,339.7,250,340.2z"/>
<path fill="none" stroke="#E1E1E1" stroke-miterlimit="10" d="M115.6,362.6c1.9-2.1,5.1-4.4,3.4-6.1c-1-1-2.5-1.1-3.1-2.3
	c-0.5-1.3-0.9-2.8-2-3.6c-1.3-1-3-0.8-4.6-1.1c-1.1-0.2-2.2-0.7-3.4-0.8c-1.1-0.1-2.2,0.2-3.2,0.4c-2.5,0.6-5,1.2-7.6,1.8
	c-1.6,0.4-3.3-0.4-4.7,0.3c-1.9,0.9-1.7,4-3.5,5.1c-1.1,0.7-2.5,0.9-3.6,1.7c-1.4,0.9-2.1,2.5-3,3.9"/>
<path fill="none" stroke="#E1E1E1" stroke-miterlimit="10" d="M67.7,361.9c-1-1.4,0.7-3.9-0.7-5c-2.9-2.3-7.1-2.4-9.6-5.1
	c-1.2-1.3-2.3-2.7-3.7-3.7c-1.2-0.8-2.6-1.3-3.7-2.2c-1.1-0.9-1.9-2.5-1.3-3.8c0.7-1.5,2.7-1.7,4.4-1.7c7-0.3,15.5,0.4,20.2-4.7
	c1.9-2.1,4.8-2.6,7.5-3.5c1.1-0.4,2.1-1,3.1-1.7c2.9-1.9,5.9-3.9,9.3-4.9c1.7-0.5,3.6-0.8,5-1.9c0.7-0.5,1.3-1.2,2-1.8
	c1.5-1.1,3.5-1.4,5.4-2c3.2-1,9.1-2.5,8.1-5.7c-0.6-2.2-4.8,0.2-6.6-1.1c-2.2-1.6,2.3-4.8,5-4.9c2.7,0,5.7-0.3,8,1.1
	c1.8,1.1,4.1,2.6,6.1,1.9c0.8-0.3,1.7-0.1,2.5,0.1c0.9,0.2,1.8,0.6,2.7,1c2.7,1.1,5.6,1.2,8.5,1.3c3.4,0.2,6.8,0.3,10.2,0.5
	c2.5,0.1,5,0.2,7.2-1c1.1-0.6,2.1-1.5,3.3-2c1.3-0.4,2.8-0.2,3.9,0.5c2.1,1.5,2.6,4.4,2.8,7c0.4,4.7,0.8,9.6-1,14
	c-0.2,0.5-0.5,1.1-0.6,1.7c-0.1,0.8,0.1,1.6,0.3,2.3c1.7,6.1,2.9,12.9,0.1,18.6c-0.3,0.6-0.7,1.3-0.7,2c0,0.7,0.3,1.3,0.6,1.9
	c0.3,0.9,0.5,1.8,0.5,2.7"/>
<path fill="none" stroke="#E1E1E1" stroke-miterlimit="10" d="M114.5,330.8c3.3-0.1,10.6,9.5,12.6,12.1c1.9,2.6,3.4,5.7,5.8,8
	c0.3,0.3,0.6,0.6,0.8,1c0.4,1-0.6,2-1.2,3c-1.4,2.2-0.1,5.6,2.4,6.3c0.9,0.3,1.9,0.3,2.6,0.8c0.5,0.3,0.8,0.9,1.2,1.2
	c1.5,1.2,3.8-0.1,4.6-1.8s0.7-3.7,1.2-5.6c0.2-0.6,0.4-1.2,0.6-1.9c1.2-3.2,2.8-6.2,3.8-9.4c1.5-5,1.3-10.4,1.2-15.6
	c0-1.5-0.1-3.1-1-4.3c-1.1-1.5-3.2-2-5.1-2c-1.9,0-3.9,0.2-5.7-0.4c-0.9-0.3-1.7-0.8-2.5-1.2c-3.9-1.6-7.7,2.1-12,2.5
	c-0.9,0.1-2-1-2.9-0.9c-1.4,0.1-2.4,1.2-3.7,1.7c-1.3,0.5-2.7,0.5-4.1,0.6s-2.8,0.5-3.7,1.5c-0.3,0.3-0.5,0.6-0.7,0.9
	c-0.4,0.4-0.9,0.5-1.4,0.8c-2,0.9-3.8,2.3-5.1,4c-0.2,0.2-0.4,0.5-0.3,0.8c0,0.2,0.2,0.4,0.3,0.6c0.6,0.7,1.5,1.2,2.4,1.2
	c0.9,0,1.8-0.9,1.6-1.8c0-0.2-0.1-0.5,0-0.7c0.1-0.1,0.2-0.1,0.2-0.1C108.9,331.4,111.9,330.8,114.5,330.8z"/>
<path fill="none" stroke="#E1E1E1" stroke-miterlimit="10" d="M-14.7,339.7c3.7-4,7.5-8,11.5-11.8c1-0.9,2-1.9,3.2-2.2
	c0.6-0.2,1.2-0.2,1.8-0.4c0.6-0.2,1.2-0.5,1.7-0.8c6.5-3.7,12.5-9,19.8-10.9c2.5-0.6,4.7-1.9,6.5-3.7c0.4-0.4,0.7-0.8,1.2-0.9
	c0.5-0.2,1-0.1,1.5-0.1c2.7,0.1,5.3-1.2,6.8-3.4c0.9-1.3,1.7-3.1,3.3-3.2c0.5,0,1.1,0.2,1.6,0.3c2.7,0.3,6-4.2,7.8-2.1
	c2.3,2.6,1.7,6.7,2.6,10c0.2,0.7,0.3,1.3,0.4,2c0.1,1.2-0.5,3,0.5,3.5c3.6,1.9,8.6-1.6,10.8-5c1.4-2.3,1.5-5.3,3.1-7.5
	c1.6-2.1,4.3-3,6.6-4.3c2.7-1.5,4.9-3.7,7-5.9c1.1-1.2,2.3-3.1,1.1-4.2c-0.4-0.4-1-0.5-1.5-0.7c-1.8-1-1.6-3.8-0.1-5.1
	c1.5-1.3,4-0.3,5.7-1.4c3.9-2.5,6.2-7.3,10.8-7c1,0.1,2.1,0.3,2.8,1.1c0.5,0.6,0.7,1.4,1.3,1.8c0.5,0.4,1.2,0.5,1.7,0.8
	c1.3,0.8,1.5,2.6,2.5,3.8c0.5,0.6,1.1,0.9,1.7,1.3c2,1.2,4.1,2.4,6.1,3.6c0.9,0.5,1.9,1.2,2,2.3c0.1,0.9-0.6,1.7-0.4,2.6
	c0.4,2.3,4.9,1,5.6,3.2c0.1,0.3,0.1,0.7,0.2,1c0.5,1,1.9,0.6,3,0.3c2.7-0.6,8.1,1.7,6.4,3.9c-2,2.5-6.4-0.2-9.7-0.2
	c-4.4,0-4.5-2.2-5.9-2.7c-1.5-0.5-2.3,3.8-8.4,3c-1.6-0.2-3.2-0.5-4.7,0c-1.6,0.5-2.7,1.8-4.2,2.5c-1.7,0.8-3.8,0.7-5.6,1.3
	c-1.8,0.6-4,3.2-2.4,4.4c0.8,0.6,2.6-0.2,2.9,0.8c0.3,1-1.5,1.4-1.7,2.4c-0.2,1,0.5,1.7,1.3,2.3c1.1,0.8-0.1,2.9-1.3,3.4
	c-0.6,0.2-1.2,0.3-1.7,0.7c-0.3,0.3-0.4,0.8-0.6,1.2c-0.7,1.4-2.3,1.9-3.8,2.3c-4.6,1.2-9.1,2.5-13.7,3.7c-3.9,1.1-7.9,2.1-11.6,3.9
	c-2,1-3.9,2.2-6,3.1c-4.9,2.2-10.5,2.7-15.2,5.4c-2.5,1.5-4.7,3.5-7.4,4.8c-2.8,1.3-6.2,2.1-9,3.2c-1.3,0.5-8.6,2.4-9,3.2
	c-0.6,0.9-0.4,2.2,0.2,3.1c0.6,0.9,8.7,1.9,9.8,2.6c0.2,0.2,1.4,2.2,2.2,2.6c2.5,1.3,4.5-0.3,9.4,0.6c3.1,0.6,6.2,1.1,9.2,1.7
	c1.2,0.2,2.4,0.4,3.2,1.2c0.4,0.4,0.7,0.8,1,1.2"/>
<path fill="none" stroke="#E1E1E1" stroke-miterlimit="10" d="M75.8,302.1c-0.1,1.4-0.1,3.3,1.3,3.8c0.9,0.3,1.9-0.2,2.4-0.9
	s1-1.9,0.5-2.7c-0.7-1-2.2-0.9-3.4-1c-0.2,0-0.3,0-0.5,0.1C75.8,301.5,75.8,301.8,75.8,302.1z"/>
<path fill="none" stroke="#E1E1E1" stroke-miterlimit="10" d="M111.5,296.7c0.7-0.6-0.5-2.1,0-2.8c0.7-0.9,2.6-0.1,3.3-1.1
	c0.5-0.8,0.4-2,0-2.8c-0.5-0.9-2-0.1-2.9,0.5c-1.1,0.6-2.3,1.3-3.1,2.3c-0.8,1-1.6,2.9-0.6,3.6C109.2,297,110.7,297.4,111.5,296.7z"
	/>
<path fill="none" stroke="#E1E1E1" stroke-miterlimit="10" d="M281.8,287.1c0.3-0.5,0.1-1.2-0.3-1.7c-0.3-0.5-0.7-0.9-1.3-0.9
	c-0.4,0-0.8,0.1-1.2,0.3c-1.6,0.9-4.3,3-3.1,4.3c1.1,1.2,3.3-0.4,4.8-1.1C281.2,287.7,281.6,287.5,281.8,287.1z"/>
<path fill="none" stroke="#E1E1E1" stroke-miterlimit="10" d="M365.8,179.9c-1.3-2.8-2.9-5.4-5.3-7.2c-5.3-3.9-12.5,2.2-18.7,0.2
	c-1.3-0.4-2.6-2.4-2.1-3.6c1.2-2.8,2.1-5.3,3.6-8c0.6-1,1.5-1.8,2.5-2.5c2.1-1.6,5-2.6,6.4-4.9c2.1-3.3,0.6-8.1,2.6-11.5
	c0.6-1,2.3-0.3,3.1,0.6c0.8,0.9,1.1,2.1,1.6,3.1c1.2,2.7,3.5,4.5,6.1,5.9"/>
<path fill="none" stroke="#E1E1E1" stroke-miterlimit="10" d="M367.3,200.7c-1.9,0.4-3.8,0.9-4.5,2.5c-1.3,3.1,0.6,6.7-2.1,8.8
	c-2.7,2.1-6.1,2.9-9,4.5c-3.8,2.1-6.7,5.4-10.4,7.6c-5.6,3.3-12.8,3.6-18.6,0.7c-3.1-1.5-5.9-3.8-9.3-4.6
	c-6.1-1.4-12.1,2.5-16.6,6.9c-4.8,4.7-9,10.1-12.3,16c-1.4,2.5-2.8,5.4-5.5,6.6c-2.1,1-4.5,0.8-6.7,0.5c-2.9-0.3-5.7-0.6-8.6-0.9
	c-1.6-0.2-3.3-0.4-4.3-1.6c-0.6-0.8-0.8-1.8-1-2.7c-1.8-6.8-7.2-12.4-14-14.4c-1.9-0.6-4-0.9-5.6-2.1c-1.3-1-2.1-2.5-3.3-3.7
	c-2.7-2.7-6.8-3.2-10.7-3.2c-3.4,0.1-6.8-1-10,0.1c-0.9,0.3-2.6,1.4-3.5,1.7c-5.4,1.8-10,2.7-15.3,4.8c-3.6,1.5-7.9,2.4-11.5,3.9
	c-1,0.4-2.1,0.9-2.9,1.6c-0.8,0.8-1.3,1.8-1.9,2.8c-3.8,5.5-13.3,5.4-16,11.5c-0.4,1-0.7,2-1.4,2.9c-0.9,1.1-2.5,1.5-3.8,2.1
	c-3.7,1.7-2.4,7.6-5.8,10c-6.2,4.4-13.7,8.5-20.9,6.1c-2.3-0.8-4-2.8-5.8-4.4c-5.9-5-14.4-5-22.1-4.7c-6.4,0.2-13,0.4-18.8,3.2
	c-5.3,2.6-9.5,7-14.5,10.2c-2.5,1.6-5.1,2.8-7.8,4c-6,2.8-12.1,5.5-18.1,8.3c-1.6,0.7-3.2,1.5-4.3,2.8c-0.7,0.9-1.2,1.9-2,2.7
	c-1.7,1.6-4.3,1.7-6.4,2.7s-2.1,7-5.8,8.7c-5,2.3-9.4,6.1-14.8,6.8c-1.9,0.2-4,0.1-5.7,1c-1,0.5-1.8,1.3-2.6,2c-1.2,1-2.6,1.9-4,2.7
	c-5.2,3.1-10.4,6.3-15.6,9.4"/>
<path fill="none" stroke="#E1E1E1" stroke-miterlimit="10" d="M344.2,195.6c-2.7,0-5.4,0.1-8.1,0.1c-2,0-4.1,0.1-6,0.8
	c-2,0.8-3.7,2.3-5.9,2.3c-0.5,0-1-0.1-1.5,0.1c-0.4,0.2-0.8,0.5-1.1,0.9c-0.8,0.9-1.5,2.2-1,3.3c0.4,0.9,1.6,1.3,2.6,1.2
	c1-0.1,2-1.9,2.8-1.2c1.7,1.6,1.1,4.7,3.4,5.1c2.4,0.4,4.7-0.7,7-1.4c3.4-1.2,8,0.6,10.7-1.8c2.1-1.8,4.5-3.9,4.6-6.7
	c0-0.5-0.1-1.1,0.1-1.6c0.2-0.5,0.7-0.7,1-1.1c0.9-1.2-0.4-3.1-1.9-3.2s-2.9,0.9-3.9,2c-0.3,0.4-0.7,0.8-1.1,1
	C345.5,195.6,344.8,195.6,344.2,195.6z"/>
<path fill="none" stroke="#E1E1E1" stroke-miterlimit="10" d="M216.6,211.5c2.1-0.2,4.2-0.3,6.4-0.4c3.1-0.1,6.3,0.1,8.9,1.8
	c2.4,1.6,3.9,4.3,6.1,6.1s4.7-0.4,7.6-0.2c3,0.1,3.7,4.9,6.6,5.5c1,0.2,2.1,0.3,3,0.9c0.9,0.6,1.4,1.6,1.9,2.5
	c1.1,2.1,2.2,4.2,3.3,6.2c1.3,2.4,2.7,5,5.3,5.9c4,1.4,8.1-2.1,9.9-5.8c1.8-3.8,2.5-8.2,5.1-11.5c1.5-1.9,3.5-3.3,5.2-4.9
	c6.6-6.1,9.4-15.4,15.5-22.1c1.5-1.6,3.1-3.1,4.3-4.9c1-1.5,1.6-3.3,2.2-5c1.7-4.8,3.4-9.7,5.1-14.5c0.5-1.5,1-3,2-4.3
	c0.8-1.2,2-2.1,2.8-3.3c0.7-1.1,1.1-2.4,1.7-3.6c0.6-1.2,1.4-2.4,2.2-3.5c4.1-5.9,8.4-11.6,12.6-17.4c3.9-5.3,7.7-10.5,11.6-15.8
	c3.4-4.6,11.2-2,15-6.2c0.8-0.8,1.2-1.9,2.1-2.7c0.7-0.7,1.7-1,2.7-1.1"/>
<path fill="none" stroke="#E1E1E1" stroke-miterlimit="10" d="M216.6,211.5c-0.9,0.1-1.9,0.2-2.8,0.3c-0.5,0.1-1.4,0.3-1.8,0.4
	c-9.8,2.1-19.7,4.3-28.7,8.7c-1.5,0.7-3.2,0.4-4.6,1.1c-3.9,2-6.3,5.5-9.5,8.4c-2,1.9-4.6,1.5-6.8,3.1c-2.1,1.6-3.7,2.7-5,5
	c-2.2,4-4.4,6.3-8.3,8.3c-2.2,1.1,2.1,2.2-4.6,11.3c-2.5,3.3-9.5,4.6-11.2,3.7c-5.5-3.1-10.8-7.9-17.1-7.7c-2.1,0.1-4.3,0.9-6.4,0.3
	c-1.2-0.3-2.2-1.1-3.3-1.5c-1.2-0.3-2.4-0.2-3.6-0.2c-4,0-7.9-1.3-11.9-1.4c-3.5,0-7.1,1-10,2.9c-1.4,0.9-2.7,2-4,3
	c-5.5,4.1-14.4,2.1-19,7.2c-1.5,1.7-2.2,3.9-4.2,4.9c-4.9,2.5-12.5,0.8-15.5,5.4c-2.2,3.3-3,7.2-6.7,8.4s-8,1.7-10.9,4.4
	c-0.7,0.6-1.2,1.4-2,1.9c-1,0.6-2.1,0.8-3.2,1.1c-6.3,1.6-11.3,8.1-15.1,9.5c-1.6,0.6-3.1,1.5-4.3,2.7c-0.5,0.5-0.8,1-1.3,1.5
	c-0.4,0.4-1,0.8-1.5,1.1c-2.6,1.6-5.3,3.1-8.1,4.3"/>
<path fill="none" stroke="#E1E1E1" stroke-miterlimit="10" d="M-14.9,289.3c0.6-0.5,1.2-1,1.7-1.5c6-5.5,10-12.8,12.6-20.5
	c0.8-2.4,1.7-5.1,3.7-6.7c1.3-1,2.9-1.4,4.4-1.7c3.4-0.8,6.8-1.4,10.3-1.9c0.6-0.1,1.2-0.2,1.8,0c1.1,0.3,1.7,1.5,2.5,2.4
	s1.8,0.3,3,0.4c1.1,0,0.7,2.2,1.6,2.7c1.4,0.9,3.1-1.1,3.7-2.5s-0.8-4.1,0.7-4.7c1.6-0.7,3.3,1.1,4.9,0.6c1.7-0.5,3.2-1.4,4.9-1.9
	c1.5-0.4,3.1-0.4,4.6-0.8c1.5-0.4,3-1.4,3.4-2.9c0.6-2.2-1.4-4.3-3.5-5.5c-2-1.1-4.4-2.1-5.4-4.3c-0.5-1.2-0.5-2.6-0.4-4
	c0.3-3.5-1.9-8.8,1.2-10.5c1.9-1,4.4,0.6,6.1-0.7c0.5-0.4,1-0.9,1.6-1.1c0.7-0.3,1.4-0.2,2.2-0.1c4.5,0.5,8.9,1.6,13.1,3.2
	c0.8,0.3,1.7,0.7,2,1.5c0.2,0.6,0.1,1.2-0.1,1.8c-1,3.8-6.5,6.3-5.6,10.1c0.6,2.3,4.2,2.6,5.2,4.7c0.3,0.6,0.5,1.2,1.1,1.5
	c0.7,0.3,1.6-0.1,2.4-0.3c0.8-0.1,1.5,0.1,2.3,0.3c4.9,0.9,9.1-1.2,13-4.4c0.8-0.6,3.2-3.4,4.2-3.5c0.8-0.1,1.9,0.4,2.7,0.7
	c3.3,1,7.5,2.5,8.3,3.6c0.3,0.4,4.2,0.9,4.7,0.9c5.8,0,10.6,3.5,19.3,3.9c4.6,0.2,9-1.1,13.4-2.3c1.8-0.5,3.7-1.1,5.2-2.2
	c3.1-2.4,0.4-6.8,1.6-10.6c1.2-3.9,7-3.8,10.6-5.7c8.6-4.6,15.5-12,24.7-15.5c2.3-0.9,4.7-1.2,6.9-2.2c8.4-3.8,17.9-4.3,27.1-2.7
	c0.6,0.1,1.8,0.5,2.4,0.6c2.9,0.5,5.8,0.9,8.7,1.4c3.2,0.5,6.3,1.1,9.3,2.3c3.4,1.5,7.4,0.8,10.4,2.8c0.7,0.5-0.5,2.1,0.2,2.6
	c1.9,1.5,1.9-6.8,4.1-5.6c2.6,1.4,6.9,6.4,10.9,9c1.8,1.2-0.3,4,5.5,6.2c2,0.7,4.2-0.6,5.8-1.9c2.6-2.1,4.3-5,5.9-7.9
	c1-1.8,2.1-3.5,3.1-5.3c2-3.5,4.1-7,6.1-10.5c1.5-2.6,3.1-5.3,4.1-8.1c2.5-6.5,2.5-14,6.4-19.8c2.2-3.4,5.6-5.9,7.9-9.3
	c1-1.5,1.8-3.2,2.7-4.8c1.8-3.2,4.1-6.1,6.3-9c6.9-8.8,13.9-17.6,20.8-26.4c1-1.3,1.3-3.1,2.3-4.4c2.6-3.8,7.8-5,11.7-7.5
	c1.3-0.8,2.7-1.7,3.7-2.9c0.8-0.9,1.3-2,2.2-2.8c1.8-1.9,4.7-2.4,7.3-2.5c2.4-0.1,4.9,0.1,7.3,0.3"/>
<path fill="none" stroke="#E1E1E1" stroke-miterlimit="10" d="M366.4,10.2c-11.9,4-25,9.5-26.2,11.6c-0.8,1.5-0.8,3.1-2.5,3.2
	s-3.4-0.8-5-0.3c-0.8,0.3-1.4,0.9-2,1.4c-2.1,2-4.3,4.1-6.4,6.1c-2,1.9-3.9,3.8-6.2,5.2c-9.6,6.1-22.3,3.7-33,7.7
	c-2.4,0.9-4.7,2.1-7.3,2.2c-2.6,0.1-5.1-0.9-7.7-0.9c-3.5-0.1-6.7,1.6-9.7,3.2c-2,1-4.3,2.9-3.5,5c0.3,0.7,0.9,1.2,1.4,1.8
	c2.4,2.9,1.7,7.1,0.9,10.8s-1.2,8.1,1.6,10.6c0.6,0.6,1.4,1,1.7,1.8c0.4,0.8,0.3,1.8,0.6,2.7c0.5,1.8,2.5,2.7,4.4,3
	c1.8,0.3,3.8,0.2,5.4,1c2.7,1.2,4.1,4.4,4.2,7.4s-0.8,5.9-1.5,8.8c-0.7,3-1.1,6.2-2.7,8.9c-2.1,3.5-5.9,5.5-9.7,7.1
	c-9.2,3.9-19,6.1-28.8,8.1c-2.9,0.6-5.9,1.4-8.9,1.5c-0.6,0-1.8-0.1-2.3-0.1c-0.6,0-1.3-0.1-1.9-0.2c-1.1-0.2-2.1-0.7-3.2-1
	c-1.6-0.5-3.4-0.8-5-0.2c-1.6,0.6-2.7,2.5-2.1,4c0.5,1.3,1.9,2,2.6,3.2c0.7,1.4,0.1,3.3,0.8,4.7c0.4,0.9,1.1,1.7,0.9,2.6
	c-0.2,0.7-0.9,1.1-1.5,1.6c-3.6,2.6-3.6,8-2.4,12.2s3.6,8.3,3.4,12.8c-0.1,1.3-0.3,2.6-0.6,3.8c-0.3,1.4-0.6,2.9-0.9,4.3
	c-0.4,1.7-0.7,3.3-1.4,4.9c-0.7,1.5-1.8,3.3-1.1,4.8c0.5,1,1.4,1.4,2.5,1.4c0.6,0,1.7,0.2,2.3,0.2c6.8-0.4,12.9-4.6,17.7-9.4
	c2.1-2.1,4-4.6,6.7-5.9c1.8-0.9,3.8-1.3,5.5-2.2c3.4-1.8,5.5-5.6,9-7.3c2.6-1.2,6.8-0.6,8.6-2.8c1-1.2,1.3-2.8,2.3-3.8
	c2.1-2.2,6.5-1.6,8-4.3c0.4-0.8,0.5-1.7,1-2.4c0.8-1.3,2.3-2,3.8-2.2c5.4-0.6,7.7-4.6,9.4-9c1.7-4.2,4.6-7.8,6.5-11.9
	c0.7-1.4,1.3-2.8,2-4.2c3.5-7.5,9.2-14,14.2-20.5c1.9-2.5,4.1-4.8,5.4-7.7c0.7-1.6,1-3.2,1.4-4.9c0.8-3.3,1.8-6.6,2.7-9.9
	c0.9-3,2-6.3,4.6-8c0.7-0.4,1.4-0.8,1.9-1.4c0.7-0.8,0.7-2,0.9-3c0.5-4,2.6-7.8,5.8-10.4c1.6-1.3,3.8-2.3,5.7-1.5
	c0.5,0.2,1,0.6,1.6,0.7c1.3,0.4,2.5-1.3,3.9-1c2.3,0.4,4.2,3.2,6.4,2.4c1-0.4,1.7-1.1,2.6-1.7c2.3-1.5,4.7-0.7,7.5-0.7
	c1.9,0,4-2.9,5-1.4c2,3-1.4,7.4-0.2,10.7c0.4,1.2,1.6,1.4,3.1,1.2"/>
<path fill="none" stroke="#E1E1E1" stroke-miterlimit="10" d="M281,122.3c-0.9,2.6-2.7,4.7-4.6,6.7c-1.9,1.9-4.4,3.3-6.8,4.4
	c-7.9,3.8-16.4,6.4-25.1,7.9c-3.9,0.6-7.9,1.1-11.4,2.8c-6.1,3-9.8,9.5-12.9,15.6c-0.3,0.5-0.6,1.1-0.5,1.7c0,0.7,0.4,1.3,0.7,1.9
	c1.6,3,0.1,8,3,9.6c4.1,2.3,8.5-4.1,11.9-7.4c1.4-1.3,2.5-2.8,3.9-4.2c6.3-6,16-7.3,22.2-13.4c1.7-1.7,3.1-3.8,5.1-5.2
	c2.3-1.7,5.3-2.2,7.9-3.3c3.5-1.4,6.7-3.9,8.9-6.9c1.8-2.5,2.8-5.3,3.4-8c1.8-7.9,6.4-14.7,9.9-21.9c0.3-0.6,0.6-1.2,1.1-1.6
	c0.5-0.4,1.1-0.5,1.6-0.7c2.9-1.1,4.8-3.9,5.7-6.9c1.1-3.9,0.7-8,0.4-12c-0.2-3.2-1-6.5-0.3-9.6c1-4.6-0.3-8.3,0.4-9.8
	c1-2.1,3.3-4.6,1.2-5.6c-2.5-1.2-12.2,4.6-15.5,10s-4.1,12.4-1.9,18.4c1,2.8,2.6,5.5,2.8,8.5c0.2,2.5-0.6,4.9-1.5,7.2
	c-1.1,3.2-2.2,6.5-3.3,9.7C285.8,114.8,282.7,117.8,281,122.3z"/>
<path fill="none" stroke="#E1E1E1" stroke-miterlimit="10" d="M342.9,192.1c0.1,0.2,0.3,0.3,0.4,0.4c0.7,0.5,1.7,0.7,2.4,0.2
	c0.5-0.5,0.5-1.4,0.3-2.1c-0.3-1-1.5-1.5-2.4-1.1C342.6,189.9,342.3,191.2,342.9,192.1z"/>
<path fill="none" stroke="#E1E1E1" stroke-miterlimit="10" d="M367.5-4.1c-3.5,1.9-7.3,3-11.2,2.4c-1.6-0.3-3.1-0.9-4.7-0.9
	c-2.5,0-4.8,1.4-7,2.8C334,7.1,323.8,14.4,313.8,22c-1.2,0.9-2.3,2-3.3,3.1c-3.3,3.8-9.5-0.5-14.5,0.2c-1.8,0.3-3.4,1.1-4.9,1.9
	c-5.1,2.5-10.4,4.7-16,5.6c-11.7,1.8-24.2-1.8-35.1,2.6c-9.8,4-16,12.6-25.5,15.5c-0.6,0.2-1.7,0.8-2.2,1.2
	c-2.4,1.8-1.2,5.6-0.2,8.4c0.2,0.4,0.3,0.9,0.3,1.4c-0.2,1.2-1.7,1.7-2.6,2.6c-0.9,1-1,2.5-1,3.8c0,1.5,0.4,3.3,1.8,3.6
	c0.2,0,0.4,0,0.6,0c0.3,0,1,0.3,1.3,0.4c3.1,0.3,6.4,1,8.5,3.3c0.5,0.5,0.9,1.1,1.5,1.4c0.6,0.3,1.4,0.3,2,0.2
	c3.8-0.3,7.5-1.1,11-2.4c2.5-0.9,6.1-4.1,7.6-1.9c2.4,3.4,0.1,8.6,3.2,11.3c1.5,1.3,3.3,2.1,5,3c3.8,2.1,7.4,4.7,10.4,7.8
	c0.4,0.4,0.9,1,0.9,1.6c0,0.8-0.6,1.4-0.9,2.1c-0.3,0.8-0.2,1.7-0.2,2.5c0,0.5,0.6,1.6,0.4,2.1c-2.9,6.2-23.6,7.1-34.1,7
	c-5.6,0-11.1-0.6-16.6-0.2c-5.5,0.4-11.2,2.1-15.2,5.9c-0.4,0.4-0.9,0.9-1,1.4c-0.6,1.9,1.8,3.9,1,5.7c-0.3,0.6-0.8,1-1.1,1.7
	c-0.7,1.6,0.9,3.2,1.2,4.9c0.3,1.7-0.5,3.5,0.3,5c0.4,0.6,1,1.1,1.4,1.7c1.2,1.7,0.5,3.9,0.2,5.9c-1.1,6.2,1.3,12.5,3.6,18.3
	c1.5,3.8,3,7.7,4.5,11.5c0.3,0.9,0.7,1.8,0.7,2.7c0,0.9-0.4,1.8-0.8,2.6c-1.3,2.7-2.6,5.3-3.8,8c-0.2,0.4-0.4,0.8-0.7,1.1
	c-0.6,0.6-1.4,0.8-2.2,1c-1.6,0.5-3.1,1.3-3.8,2.7c-0.7,1.5-0.1,3.6,1.5,4c0.9,0.2,1.9-0.2,2.8-0.3c2.2-0.2,4.2,1.1,6.3,1.9
	c3.1,1.1,6.6,0.8,9.8,0.4c6.9-0.8,14.1-1.6,19.9-5.4c4.7-3,8.1-7.6,12.8-10.6c2.1-1.3,4.4-2.2,6.7-2.9c1.1-0.3,2.3-0.6,3-1.5
	c0.5-0.5,0.8-1.1,1-1.8c1.9-4,3.7-8.7,7.6-10.7c0.3-0.2,1.1-0.2,1.5-0.3c0.7-0.1,1.3-0.3,2-0.5c5.7-1.6,10.3-5.8,14.5-10
	c3.9-4,7.7-8.1,10.4-13c0.9-1.6,1.7-3.3,2.9-4.7c1.2-1.5,2.9-2.7,4.3-4.1c2.9-2.7,3.6-7.2,6.8-9.6c2.7-2,5.5-4.5,6.1-7.8
	c0.6-3.3,0.7-6.9,3-9.3c1.2-1.2,2.8-1.9,4.1-2.9c5-3.5,7.1-9.9,10.7-14.9c4.6-6.3,12.2-10.5,20-10.9c1.7-0.1,3.4,0,5,0.6
	c1.7,0.7,3,1.9,4.4,3c1,0.8,2.1,1.5,3.3,2.2"/>
<path fill="none" stroke="#E1E1E1" stroke-miterlimit="10" d="M266.6,193.1"/>
<path fill="none" stroke="#E1E1E1" stroke-miterlimit="10" d="M335.4-18.6c-6,3.5-11,8.3-12.7,14.9c-0.3,1.4-0.6,2.8-1.4,3.9
	c-0.6,0.9-1.6,1.4-2.5,2c-8.8,5.1-25.6,16.7-29.4,7.2c-0.7-1.7,2.5-2.6,3.8-3.9c1.6-1.7,3.3-3.5,3.8-5.8c0.5-2.3-0.8-5.1-3.1-5.4
	c-0.8-0.1-1.6,0.1-2.3,0.4c-5.8,2.2-9.7,7.5-13.3,12.6c-2.1,2.9-4.2,5.9-6.3,8.8c-0.5,0.8-0.6,1.8-1.4,2.3c-1.1,0.7-1.5,1.5-2.8,1.5
	c-0.9,0-2.6-0.7-3.5-0.5c-7.2,1.3-11.4,3-18.7,2.5c-3.3-0.2-6.6-0.8-9.7,0.1c-6.3,2-9.3,9.8-15.5,12.3c-5.1,2.1-12,0.4-15.5,4.6
	c-1.9,2.3-2,5.6-2.7,8.6c-1.5,6-6.2,11-12.1,12.9c-2,0.7-4.8,1.6-4.6,3.8c0,0.6,0.3,1.1,0.6,1.6c1.2,2.2,2.4,4.5,4.2,6.1
	c1.9,1.7,6.4,0.9,6.9,1.9c0.5,0.9-5.2,5-2.9,7.4c0.7,0.8,1.7,1.3,2.1,2.2c0.4,0.9,0.1,1.9-0.5,2.8c-2.2,3.3-7,3-10.8,4.1
	c-4.6,1.3-7.9,5.1-11.7,8c-12,9.4-28.3,11.3-41.3,19.3c-1.6,1-3.2,2.1-5,2.6c-1.4,0.5-2.9,0.6-4.4,0.8c-11.3,1.4-22.7,6.1-31.2,13.2
	c-1.9,1.6-4,3.2-6.3,4c-2.8,1.1-5.6,2.1-8.4,3.2c-3.1,1.2-6.3,2.4-9.5,2c-1.8-0.2-3.5-0.9-5.3-1.1c-2.8-0.5-6.8-1.8-8.6,0.5
	c-1,1.3,1.5,2.9,2.9,3.7c1.4,0.8,3,1.3,4.4,2.2c1.2,0.7,2.3,2.1,1.7,3.4c-0.4,1-1.7,1.7-1.4,2.7c0.2,0.6,0.7,0.9,1.1,1.4
	c1,1.6-1.6,3.5-1.4,5.4c0,0.6,0.4,1.2,0.4,1.9c-0.1,1.2-1.3,1.9-1.8,3c-0.5,1.2,0.1,2.5-0.2,3.8c-0.3,1.5-1.6,2.6-2.8,3.7
	c-2.9,2.6-4.9,6.1-5.9,9.9c-0.1,0.5-0.2,1,0.1,1.4c0.3,0.4,1,0.4,1.5,0.4c1.2-0.1,2.5-0.2,3.7-0.2c0.8-0.1,1.7,0,2.2,0.6
	c0.3,0.4,0.3,1,0.4,1.4c0.6,2.1,4.1,0.3,5.7,1.8c2.2,2.2-4.1,10.9,6.3,18.7c3.3,2.5,7.7,3.1,11.8,3.6c0.4,0.1,0.9,0.1,1.3-0.1
	c0.5-0.2,0.9-0.7,1.2-1.3c2.4-4.1,4.4-8.5,5.9-13.1c0.8-2.4,1.4-4.8,2.1-7.2c0.1-0.4,0.2-0.8,0.5-1.1c0.4-0.4,1.1-0.4,1.7-0.4
	c1.8,0.2,3.6,0.8,5.1,1.8c0.5,0.3,0.9,0.7,1.4,0.8c0.4,0.1,0.8,0,1.2-0.2c3-0.9,6.2-3,9.1-1.8c1.4,0.6,2.3,1.8,3.6,2.6
	c1.5,0.9,3.4,1,5,1.5c3.4,1.1,6,4.1,6.7,7.5c0.5,2.6,0,5.3-1.1,7.6c-0.7,1.4-1.6,3-1,4.5c0.7,1.8,3.2,2.4,4.1,4.2
	c1.2,2.4-2.2,4.1-3.3,6.5c-1.8,3.7-1.7,8.5-2.6,12.5c-0.1,0.6-0.2,1.3,0.2,1.7c0.3,0.2,0.6,0.2,0.9,0.2c2.9,0,6-0.1,8.6-1.3
	c2.7-1.2,4.9-3.9,4.7-6.8c-0.1-1.7-1-3.2-1.4-4.8c-0.6-2.5-0.1-5.3,1.3-7.4c0.2-0.3,0.4-0.5,0.7-0.7c0.9-0.4,1.8,0.7,2.7,1.2
	c2.4,1.6,5.2-0.9,7.5-2.6c3.5-2.6,8.1-4.3,12.3-3.1c4.7,1.4,10.2,0.3,13-3.8c1.8-2.6,3-6.5,6.2-6.7c1.6-0.1,3.1,1,4.7,1.4
	c4.5,1.1,8.8-3.1,13.4-2.7c1.5,0.2,2.9,0.8,4.4,1.2c5.9,1.4,12.4-1.9,17.8,0.7c1.9,0.9,3.5,2.5,5.5,3.2c2.1,0.7,7.1,0.4,9.3-0.2
	c6-1.6,9.5-10,12.8-8.2c1.5,0.8,1.8,4.4,3.7,5.8c0.4,0.3,1.2,0.7,1.7,0.8c0.8,0.3,1.8-0.8,2.4-0.3c1.7,1.4,3.5,2.6,5,1.1
	s1.9-3.8,2.4-5.9c0.6-2.4,1.7-4.7,3.1-6.8c0.6-0.9,1.5-1.8,2.5-1.6c0.7,0.1,1.3,0.8,2,0.8c0.7,0,1.2-0.5,1.6-1c3-3.3,5.9-6.9,7-11.2
	c0.7-2.6,0.7-5.5,2.1-7.9c0.4-0.7,0.8-1.3,1.3-1.9c5.6-7.3,11.3-14.6,16.9-22c2.1-2.8,4.3-5.5,6.4-8.3c2.6-3.4,5.3-6.8,7.9-10.3
	c1.7-2.3,5.6-2.1,5.9-5.1c0.3-3.3,1.5-7.7,4.2-9.7c2.7-1.9,6.1-3.1,8.2-5.6c2.3-2.7,3.2-6.9,6.6-7.9c1.3-0.4,2.8-0.2,4.1-0.8
	c1.1-0.6,1.8-1.9,2.8-2.8c1.5-1.3,3.5-1.6,5.5-1.8c5.1-0.5,10.2-0.8,15.3-1.2"/>
<path fill="none" stroke="#E1E1E1" stroke-miterlimit="10" d="M287.6-18.3c-2,1-3.9,2.1-5.8,3.1c-2.7,1.6-5.8,4-5.1,7
	c0.1,0.6,0.5,1.2,0.4,1.9c-0.1,0.7-0.6,1.3-1.1,1.7c-6.3,6-13,12.3-21.3,14.8c-4,1.2-8.2,1.5-12.3,2.3c-6.2,1.1-12.3,2.9-17.9,5.7
	c-1.2,0.6-3.2,2.4-4.5,2.7c-2,0.4-7,0.8-8.8,1.5c-2.6,0.9-5.4,2-7,4.3c-1.2,1.7-1.5,3.9-2.1,5.9c-1,3.2-2.9,6.1-5,8.7
	c-1.6,2-3.3,3.9-5.2,5.7c-7.7,7.5-27.7,7.1-26.8,17.8c0.3,3.8,12.3-0.8,11.1,2.9c-0.6,1.8-19.5,10.3-22.9,22
	c-0.7,2.5-3.4,4.2-5.8,5.3c-1.6,0.8-3.4,0.8-5.2,0.8c-10.8,0.4-21.6,3.3-31.2,8.3c-5.4,2.8-10.3,6.3-15.6,9.2
	c-17.3,9.5-53.1,17.9-56.6,16.4c-2-0.9,1.4-2.6,1.3-5.2c-0.2-3.8,2.5-7.3,4.3-9.4c8.8-10.2,25.8-26.6,30.2-26.3
	c2.5,0.2-1.4,4,0.5,5.5c2.8,2.2,7.1-0.2,8.9-3.2c2.8-4.7-1.7-6.8-5.6-6.1c-1.1,0.2,1.3-5.1-4.1-5.9c-2.6-0.4-5.2-0.8-7.9-0.6
	c-7.3,0.5-15.1,1.1-20.7,5.7c-0.9,0.7-2.1,2.6-2.2,3.8c-0.1,1.2,2.3,1.2,2.5,2.2c0.2,1.5-1.9,1.5-1.5,3s1.2,3,0.7,4.4
	c-0.3,0.9-1.2,1.6-2,2.2c-4.2,3.1-9.3,6.3-14.3,4.7c-0.9-0.3-1.8-0.7-2.7-0.4c-0.9,0.4-1.2,1.4-1.4,2.3c-1.1,3.8-1.5,8.2-3.8,11.4
	c-4.4,6.1-12.6,8.3-18.9,12.5c-1.9,1.3-6,2.9-4.8,4.9c3,5.2,9.6,8.6,6.9,14c-1.1,2.2-3,5.1-1.1,6.7c1.4,1.1,3.4,0.3,4.9-0.6
	c5.3-3.2,9.6-9.8,15.8-9.7c2.9,0,1.2,5.7-1.1,7.5s-5.4,2.7-7.2,5c-1.7,2.1,0.5,5.3-0.9,7.7c-2.6,4.4-9.1,5.8-7.8,10.7
	c0.2,0.8,0.5,1.7,0.3,2.5c-0.7,2.2-4,1-6.3,1.2c-2.2,0.1-4,1.8-5.6,3.4c-3.5,3.5-7,7-10.4,10.5"/>
<path fill="#EAEAEA" stroke="#D6D6D6" stroke-miterlimit="10" d="M89.1,91.1c-1,0.4-1.8,1.2-2.6,1.9c-3.9,3.5-8.9,5.9-14.1,6.8
	c-1.3,0.2-2.7,0.3-3.6-0.7c-0.2-0.3-0.4-0.6-0.7-0.9c-0.5-0.5-1.3-0.6-2-0.4c-0.9,0.2-1.7,0.9-2.4,1.5c-3.5,3.1-6.7,6.4-9.7,9.9
	c-0.7,0.8-1.4,1.7-2.3,2.2c-0.7,0.4-1.5,0.6-2.2,1.1c-1.8,1.1-2.4,3.4-3.7,5c-0.7,0.8-1.7,1.4-2.4,2.3s-1.2,2-0.8,3
	c0.3,0.8,1.2,1.3,1.5,2.2c0.2,0.6,0.1,1.3,0.5,1.7c0.4,0.3,1,0.3,1.5,0.2c4.1-0.8,8.1-1.6,12.2-2.4c1.6-0.3,3.2-0.6,4.6-1.4
	c2.4-1.3,4.1-3.9,6.8-4.5c2-0.4,4,0.4,5.9,0.1c1.8-0.3,3.4-1.5,5.2-1.8c0.8-0.1,1.6,0,2.3-0.1c1.4-0.1,2.7-0.7,4-1.3
	c1.9-0.9,3.9-1.8,5.4-3.3c1.5-1.5,2.3-3.9,1.5-5.8c-0.2-0.4-0.4-0.9-0.3-1.4c0.1-0.4,0.3-0.6,0.6-0.9c2.7-2.6,6.4-4.2,10.1-4.2
	c0.3,0,0.6,0,0.8-0.2c0.2-0.2,0.2-0.4,0.2-0.7c0.2-2,0.3-4-0.8-5.9c-0.7-1.3-2.8,0.3-4.1-0.2c-1.4-0.5-1.9-2.3-3.2-2.8
	c-0.7-0.3-1.4-0.2-2.1-0.1c-1.3,0.2-2.7,0.3-4,0.5C90.5,90.7,89.8,90.8,89.1,91.1z"/>
<path fill="#EAEAEA" stroke="#D6D6D6" stroke-miterlimit="10" d="M154.7,130.5c-1.5,0.8-2.9,1.9-3.7,3.3c-0.8,1.5-0.9,3.4,0,4.8
	c0.2,0.2,0.3,0.4,0.6,0.5c0.2,0.1,0.4,0.1,0.7,0.2c1.7,0.2,3.3-0.7,4.8-1.4c1.5-0.7,3.3-0.3,4.9-0.8c2.2-0.7,3.1-3.4,5.2-4.3
	c0.4-0.2,0.9-0.4,1.2-0.8c0.2-0.3,0.2-0.6,0.3-0.9c0.1-0.6,0.2-1.3-0.1-1.9c-0.5-1.1-1.9-1.4-3.1-1.2c-1.2,0.2-2.2,0.8-3.4,1.1
	c-1.3,0.3-2.7,0-4,0.2C156.9,129.4,155.8,129.9,154.7,130.5z"/>
<path fill="#EAEAEA" stroke="#D6D6D6" stroke-miterlimit="10" d="M117.1,167.8c-0.1-0.5-0.3-1-0.7-1.3c-0.2-0.1-0.4-0.2-0.7-0.3
	c-0.9-0.2-1.8,0-2.5,0.4c-0.5,0.3-0.8,0.7-1.2,1.1c-0.7,0.8-1.4,1.6-2.1,2.4c-0.4,0.4-0.7,0.8-0.9,1.3c-0.2,0.5-0.2,1.1,0.2,1.5
	c0.1,0.1,0.3,0.2,0.4,0.3c1.1,0.8,2.4,1.1,3.7,0.9s3.2-0.5,3.4-1.8c0.2-0.9,0.2-1.8,0.4-2.7C117.2,169.2,117.2,168.5,117.1,167.8z"
	/>
<path fill="#EAEAEA" stroke="#D6D6D6" stroke-miterlimit="10" d="M30.7,155.8c-2.5,0.1-4.9,1.3-6.3,3.3c-2,2.8-2.4,6.9-5.3,8.8
	c-1.3,0.9-3,1.1-4.3,2c-0.2,0.1-0.4,0.3-0.5,0.5c-0.4,0.8,0.6,1.6,1.5,1.9c1.8,0.5,3.7,0.1,5.3-0.8c1.6-0.9,3-2.1,4.2-3.5
	c0.7-0.8,1.5-1.6,2.6-1.4c0.3,0,0.5,0.2,0.8,0.3c1.1,0.6,2.4,1.2,3.6,0.7c1.2-0.5,1.7-1.9,2.4-2.9c0.5-0.6,1.1-1.2,1.3-1.9
	c0.3-0.9,0.1-2-0.3-2.9c-0.5-1.2-1.3-2.3-2.4-3.2c-0.4-0.3-0.8-0.6-1.3-0.8C31.6,155.9,31.2,155.8,30.7,155.8z"/>
<path fill="#7BBCEB" stroke="#4E9BD7" stroke-miterlimit="10" d="M192.9,156.5c-1.1-3.5-2.2-6.9-3.3-10.4c-0.1-0.4-0.2-0.8-0.5-1.1
	c-0.3-0.4-0.7-0.6-1.1-0.9c-0.3-0.3-0.5-0.8-0.7-1.2c-0.5-1.2-1.3-2.2-2.1-3.1c-0.9-1.1-2-2.3-3.4-2.2c-0.7,0-1.4,0.4-2,0.9
	c-3.4,2.5-5.4,6.6-8,9.9c-1.3,1.7-2.9,3.2-3.8,5.1c-0.9,1.7-1.1,3.7-1.8,5.5c-1.4,4.1-4.6,7.7-5.2,12c-0.3,2.1,0.1,4.3,0,6.5
	c-0.1,4.4-2.1,8.6-3.7,12.8c-0.6,1.6-1.1,3.6,0.1,4.9c0.3,0.3,0.6,0.5,1,0.8c1.2,1.1,1.7,2.8,2.3,4.3c0.2,0.5,0.5,1,1,1.4
	c0.9,0.6,2.1,0.5,3.1,0.2c2.8-0.6,5.6-1.6,7.8-3.5c2.8-2.3,4.4-5.6,5.9-8.9c0.8-1.8,1.7-3.5,2.9-5c0.6-0.7,1.3-1.4,1.9-2.1
	c1.3-1.5,2.4-3.4,4-4.5c3-2,7.3-1.4,9.7-4c0.2-0.2,0.4-0.5,0.5-0.8c0.1-0.4-0.1-0.8-0.3-1.2c-0.5-1.4-0.4-2.8-0.9-4.2
	c-0.4-1.4-1.8-1.8-3.1-2.4c-1.4-0.6,0-3,0.2-4.6C193.7,159.2,193.3,157.9,192.9,156.5z"/>
<path fill="#EAEAEA" stroke="#D6D6D6" stroke-miterlimit="10" d="M196.8,259.8c1.4,1,3.2,1.6,4.9,1c0.4-0.1,0.4-0.6,0.1-0.9
	c-0.2-0.3-0.6-0.5-0.7-0.8c-0.2-0.5,0-1.1,0.5-1.5c0.4-0.4,1-0.5,1.5-0.8c1-0.5,2.3-1.1,3-0.3c0.2,0.2,0.3,0.5,0.5,0.7
	c0.8,1.3,2.6,1.4,4.1,1.3c1.7,0,3.3-0.1,5-0.1c0.4,0,0.8,0,0.9-0.3c0.2-0.3,0-0.7-0.1-1.1c-0.4-1.5,0.6-3,1.2-4.4
	c0.8-1.7,1.1-3.6,1.1-5.4c0-0.6-0.1-1.1,0-1.7c0.4-1.8,2.4-2.6,3.7-3.9c1.2-1.2,1.8-2.9,1.6-4.6c-0.1-1.2-0.6-2.2-1.7-2.3
	c-0.5-0.1-1.5,0.1-2,0.2c-2.5,0.6-4.8,0.4-7.4,0.8c-2.6,0.4-5.3,1.2-7,3.1c-1.3,1.4-2.1,3.3-3.5,4.6c-0.9,0.8-2,1.3-2.9,2.1
	c-0.7,0.7-1.1,1.6-1.5,2.5c-1.1,2.7-2,5.5-2.7,8.3c-0.1,0.4-0.2,0.8-0.1,1.2C195.3,258.4,196,259.2,196.8,259.8z"/>
<path fill="#EAEAEA" stroke="#D6D6D6" stroke-miterlimit="10" d="M243,241.6c-1.5-1.1-3.6-0.9-5.5-0.6c-1,0.1-2.2,0.5-2.4,1.5
	c-0.1,0.4,0.1,0.8,0.2,1.1c0.3,0.8,0.6,1.6,0.8,2.5c0,0.1,0.1,0.3,0,0.4c-0.1,0.1-0.2,0.2-0.3,0.2c-0.8,0.3-1.8,0.2-2.4,0.8
	c-0.6,0.6,0.3,1.8,1.1,2.2c0.8,0.4,1.7,0.3,2.6,0c1.1-0.4,2.1-1.1,3-1.8c0.5-0.5,1.1-1,1.8-1.3c0.9-0.3,1.9-0.1,2.8-0.2
	s2-0.7,1.9-1.7c-0.1-1-1.3-1.3-2.1-1.9C243.9,242.5,243.5,242,243,241.6z"/>
<path fill="none" stroke="#D6D6D6" stroke-miterlimit="10" d="M162.6-18.2c-1.2,1-2.3,2-3.3,3.1c-3.2,3.6-6.7,7.1-10.7,9.9
	c-6.3,4.3-13.8,6.4-21.2,8.2c-1.7,0.4-3.6,0.8-5.2,1.6"/>
<path fill="#EAEAEA" stroke="#D6D6D6" stroke-miterlimit="10" d="M-15.1,69.8c1.6-0.3,3.3,0,4.6-1c0.6-0.5,1-1.2,1.6-1.7
	c0.7-0.6,1.6-0.8,2.5-0.9c2.3-0.5,4.7-0.9,7-1.4c0.7-0.1,1.6-0.4,1.9-1c0.1-0.3,0.2-0.6,0.3-0.8c0.4-0.8,1.3-1.1,2.2-1.3
	c1.9-0.4,3.8-1,5.3-2.3c1.4-1.2,2.6-2.4,4.2-3.2c4.7-2.2,8.8-3.4,13.3-4.9c1.1-0.4,2.2-0.7,3.3-0.8c0.8,0,1.7,0.1,2.5,0
	c1.8-0.2,3.2-1.5,4.9-1.9c2-0.5,4.2,0.1,6.2-0.5c2.4-0.7,5.5-4,5.3-5.3c-0.2-1.4-3.8,0.7-4.3-0.7c-0.7-2.3,3.6-3.3,5.5-4.8
	c0.8-0.6,2-1.1,2.5-0.4c0.3,0.3,0.3,0.8,0.3,1.3c0.2,2.7,3.1,4.8,5.8,4.3c2.6-0.5,4.2-3,5.3-5.4c0.1-0.3,0.2-0.5,0.4-0.7
	c0.3-0.3,0.6-0.4,0.9-0.5c4.6-1.7,13.5-3.8,14.4-3c1.2,1.1-1.5,3.8-0.1,4.8c1.6,1.2,3.9-0.5,5.9-0.6c1.5-0.1,2.8-0.6,4.3-1
	c1.2-0.3,2.4-0.3,3.7-0.5c3.4-0.4,6.7-1.7,9.8-3c0.4-0.2,0.8-0.3,1.2-0.6c0.4-0.3,0.6-0.8,0.9-1.2c1-1.2,2.5-1.6,4-2
	c1.3-0.3,2.5-0.7,3.8-1c0.9-0.2,1.9-0.6,2.1-1.5c0.4-1.7-2.7-2.6-2.6-4.4c0.1-1,1.1-1.6,2-1.9c0.9-0.3,2-0.6,2.5-1.5
	c0.3-0.5,0.3-1.1,0.5-1.6c0.4-1.6,1.7-2.7,2.7-3.9s2.1-2.7,1.8-4.3c-0.2-0.9-0.7-1.7-1-2.6c-0.2-0.9-0.1-2.1-0.9-2.7
	c-0.5-0.4-1.2-0.4-1.7-0.6c-2-0.6-2.7-3.2-4.3-4.5c-1.1-0.9-2.6-1.2-4-1.4c-1.1-0.2-2.2-0.4-3.3-0.5c-0.8-0.1-1.6-0.3-2.4,0
	c-0.8,0.3-1.4,0.9-2.2,1.3c-1.2,0.6-2.7,0.6-4,0.6c-2.1,0-4.2,0.2-6.2,0.5c-1.2,0.2-2.4,0.5-3.3,1.2c-0.7,0.5-1.2,1.3-1.8,1.8
	c-1.3,1.1-3,1.3-4.6,1.6c-1.3,0.2-2.6,0.4-3.9,0.6c-1.4,0.2-3.2,0.2-3.7-1.1c-0.2-0.4-0.1-1-0.5-1.3c-0.3-0.3-0.7-0.3-1.1-0.3
	c-1.6,0-4.4,1.3-6,2c-3.4,1.4-5.4,1.4-8.9,2.4C58.7,5.8,58,6,57.5,6.4c-1.6,1.1-1.7,3.4-1.9,5.3c-0.3,2.7-0.9,5.3-2.4,7.6
	s-3.8,4-6.5,4.3c-1.1,0.1-2.2,0.1-3.1,0.6c-1.5,0.9-2,2.8-2.8,4.4c-1.9,3.7-5.3,1.5-6.8,3.7c-0.9,1.3,3.3,0.7,3.8,2.3
	c0.6,1.8-3.5,2.8-2.9,7c0.1,0.8,0.1,1.7-0.2,2.5c-0.3,0.8-1.2,2-1.8,1.5c-1.3-1.1-0.9-3.4-1.9-4.8c-1-1.4-2.7-2.4-4.4-2.2
	c-0.9,0.1-1.7,0.6-2.4,1.1c-5.9,3.5-11.8,6.7-18,9.8c-1.5,0.7-3,1.5-4.6,1.9C0,51.8-1.7,52-3.4,52.6s-3.2,1.7-3.8,3.4
	c-0.2,0.7,0.1,2-0.1,2.7c-0.3,0.8-2.8,2-3.4,2.6c-2.1,2.2-0.3,1.9-2.3,4.1c-0.5,0.5-1.4,1.2-2.4,1.9"/>
<path fill="#FFFFFF" stroke="#D6D6D6" stroke-miterlimit="10" d="M68.3,104.1c-0.4,0.4-0.1,1,0.2,1.4c0.3,0.3,0.6,0.7,0.9,0.8
	c0.5,0.2,1,0.3,1.5,0.2c0.9-0.1,1.8-0.4,2.6-0.9c0.2-0.1,0.4-0.3,0.4-0.6c0-0.1-0.1-0.3-0.2-0.4c-0.2-0.3-0.5-0.5-0.7-0.8
	c-0.1-0.1-0.2-0.2-0.4-0.3c-0.1-0.1-0.3,0-0.4,0c-1.1,0.1-2.2,0.1-3.3,0.2C68.8,103.9,68.5,103.9,68.3,104.1z"/>
<path fill="#FFFFFF" stroke="#D6D6D6" stroke-miterlimit="10" d="M15.6,50.5c-0.8-0.8-1.8-1.7-2.9-1.5c-1,0.1-1.7,1.1-1.8,2.1
	c-0.1,1-0.3,2.7,0.7,2.9c0.9,0.1,1.4-1.3,2.2-1.5c0.5-0.1,1-0.1,1.5-0.4s0.8-0.8,0.6-1.2C15.8,50.7,15.7,50.6,15.6,50.5z"/>
<path fill="#FFFFFF" stroke="#D6D6D6" stroke-miterlimit="10" d="M-2.3,56.3C-2.5,56.2-2.7,56.1-3,56c-0.7-0.2-1.6,0.1-1.9,0.7
	c-0.4,0.6,0.1,1.7,0.8,1.7c0.5,0,1.4-0.4,2.1-0.7C-1.6,57.5-1.9,56.7-2.3,56.3z"/>
<path fill="#EAEAEA" stroke="#D6D6D6" stroke-miterlimit="10" d="M296.1,271.7c0.8-1.3,2.5-1.8,4-1.8s3.1,0.4,4.6,0.2
	c0.7-0.1,1.3-0.3,2-0.5c1.7-0.5,3.5-1,5.2-1.6c1.2-0.4,2.6-0.7,3.7,0c1,0.6,1.5,1.1,1.3,2.2c-0.3,1.1-3.3,3.1-4.3,3.7
	c-2.9,1.7-4.5,0.6-7.8,0.4c-2.5-0.2-4.9,0-7.4,0.4c-0.4,0.1-0.9,0.1-1.2-0.1c-0.1-0.1-0.2-0.2-0.2-0.3
	C295.7,273.4,295.7,272.4,296.1,271.7z"/>
<path fill="#EAEAEA" stroke="#D6D6D6" stroke-miterlimit="10" d="M252.7,279.4c2.5,0.4,5.2,0.8,7.6,0c3.4-1.2,5.8-5,5.2-8.6
	c0-0.3-0.1-0.6-0.3-0.8c-0.2-0.2-0.5-0.3-0.8-0.3c-0.8-0.1-1.6-0.3-2.4-0.2c-0.7,0.1-1.4,0.3-2.1,0.4c-0.7,0-1.5-0.2-1.8-0.9
	c-0.1-0.3-0.2-0.6-0.3-0.9c-0.3-0.6-1.1-0.7-1.8-0.8c-2.1-0.2-4.3-0.4-6.2,0.4c-2.8,1.1-4.6,4.4-4,7.4c0.1,0.5,0.3,1,0.7,1.4
	c0.5,0.5,1.2,0.5,1.8,0.9c0.5,0.3,0.9,0.7,1.3,1C250.4,279,251.6,279.2,252.7,279.4z"/>
<path fill="#EAEAEA" stroke="#D6D6D6" stroke-miterlimit="10" d="M170.8,292.2c1.1-0.5,2.2,0.5,3,1.5c0.4,0.5,0.8,1.1,0.8,1.7
	c0,0.5-0.3,1-0.6,1.4c-0.7,1.2-1.5,2.3-2.2,3.5c-0.4,0.6-0.7,1.1-1.2,1.6c-0.8,0.7-2,0.9-3.1,1c-6.8,0.9-13.6,1.3-20.4,1
	c-0.5,0-1.2-0.2-1.1-0.7c0.1-0.3,0.4-0.4,0.7-0.5c1.4-0.5,2.9-1,4.3-1.4c0.7-0.2,1.5-0.5,2.2-0.4c0.7,0.1,1.3,0.3,1.9,0.6
	c2.5,0.8,5.2,0.4,7.8-0.2c1.2-0.3,2.4-0.6,3.4-1.4c0.7-0.7,1.2-1.6,1.6-2.5c0.6-1.2,1.2-2.5,1.8-3.7
	C169.9,293,170.2,292.4,170.8,292.2z"/>
<path fill="#EAEAEA" stroke="#D6D6D6" stroke-miterlimit="10" d="M165.1,288.4c-1.1-0.3-2.4-0.2-3.4,0.3c-0.7,0.3-1.2,0.8-1.7,1.3
	c-0.3,0.3-0.6,0.5-0.8,0.9c-0.3,0.5-0.4,1.2-0.4,1.8c0.1,1.5,0.7,4.3,2.1,3.9c0.5-0.2,0.8-0.8,0.9-1.3c0.3-1.1,0.3-2.2,1.3-2.8
	c1-0.6,2.1-0.8,3-1.4c0.5-0.3,0.9-0.8,0.8-1.3c0-0.1-0.1-0.3-0.2-0.4C166.4,288.7,165.7,288.5,165.1,288.4z"/>
<path fill="#EAEAEA" stroke="#D6D6D6" stroke-miterlimit="10" d="M348.5,258.4c0.8-0.2-0.1-1.6,0-2.3c0.1-0.8,0.9-1.8,1.5-1.3
	c0.8,0.5,1.2,1.5,1.7,2.3c0.2,0.4,0.4,0.9,0.2,1.3c-0.1,0.2-0.3,0.4-0.5,0.5c-1.7,1.4-3.4,2.9-5.6,3.3c-0.9,0.2-1.9,0.1-2.6-0.4
	c-0.6-0.4-1-1-1.3-1.7c-0.1-0.3-0.2-0.6-0.2-0.9c0-0.8,0.4-1.5,1.1-1.9c0.7-0.4,1.5-0.3,2.1,0.2c0.2,0.1,0.3,0.3,0.5,0.5
	C345.7,258.3,348.1,258.5,348.5,258.4z"/>
<path fill="#EAEAEA" stroke="#D6D6D6" stroke-miterlimit="10" d="M192.2,323c-0.3-0.1-0.6,0-0.9-0.1c-0.7-0.1-1.2-0.7-1.8-1.2
	c-1.2-0.8-2.8-0.7-4.2-0.5c-0.5,0.1-1,0.1-1.4,0.5c-0.2,0.2-0.3,0.4-0.4,0.7c-0.4,1-0.8,2.2-0.7,3.3c0.1,0.6,0.3,1.2,0.5,1.8
	c0.7,1.9,1.3,3.7,2,5.6c0.2,0.6,0.4,1.2,0.9,1.7c0.3,0.3,0.6,0.5,0.8,0.9c0.2,0.4,0.1,0.8,0.2,1.3c0.1,1.7,1.7,2.7,3.4,3
	c1,0.2,2.1-0.1,3-0.5c0.8-0.4,1.5-0.8,2.3-1.1c0.2-0.1,0.3-0.2,0.4-0.3c0.1-0.2,0.1-0.4,0.1-0.7c-0.2-1.8-0.5-3.7-0.7-5.5
	c-0.4-2.8-0.8-5.6-2.3-8C192.9,323.5,192.6,323.2,192.2,323z"/>
<path fill="none" stroke="#D6D6D6" stroke-miterlimit="10" d="M145.7,302.9c-3.1-1.4-6.6-1.9-9.9-1.5c-0.7,0.1-1.4,0.2-2.1,0
	c-1.3-0.4-2.1-1.9-3.3-2.5c-1.1-0.5-2.4-0.2-3.6-0.1c-1.2,0.2-4.1,0.1-4.9-0.7c-1.6-1.5-3.4-1.6-5.4-2.5c-0.3-0.1-0.6-0.2-0.9-0.3
	c-1.3-0.1-1.9,1.5-2.8,2.4c-1.4,1.5-3.9,1.4-5.7,0.4c-1.7-0.9-3.1-2.5-3.7-4.3"/>
<path fill="none" stroke="#D6D6D6" stroke-miterlimit="10" d="M31.5,331.8c-0.1,1.8,0.7,2.7-0.1,3.7c-0.3,0.4-1,1.3-1.4,1.5
	c-1.4,0.8-2.3,0.5-3.7,1c-4.1,1.6-8.3,2.9-12.9,3.3"/>
<path fill="none" stroke="#D6D6D6" stroke-miterlimit="10" d="M41.6,325.2c2.5,0.2,3.9-0.1,5.6-2"/>
<path fill="none" stroke="#D6D6D6" stroke-miterlimit="10" d="M51,322.5c1.5-0.7,3.3-2,4.7-1.2c1.3,0.8,1.9,2.4,3.3,3.1
	c1.3,0.6,2.8,0.8,4.3,1c0.8,0.1,1.6,0.2,2.3-0.2c1.3-0.7,0.9-2.5,0.8-3.9"/>
<path fill="#EAEAEA" stroke="#D6D6D6" stroke-miterlimit="10" d="M33.7,325.6c-0.4,1.7-1.7,2.9-2.3,4.5c-0.1,0.4-0.2,0.9-0.1,1.3
	c0.1,0.4,0.3,0.7,0.6,0.9c0.5,0.3,1.2,0,1.6-0.4c0.4-0.5,0.7-1.1,1.1-1.5c0.7-0.6,2.2-1,2.5-0.2c0.1,0.2,0.3,0.4,0.6,0.4
	c1.4,0,3.1,0.9,4.2-0.1c0.8-0.7,0.4-2.1,0.2-3.2c-0.1-0.5-0.2-1-0.4-1.5c-0.2-0.7-0.4-1.3-0.7-2c-0.1-0.5-0.3-1-0.8-1.2
	c-0.2-0.1-0.5-0.1-0.7-0.2c-0.7-0.1-1.4-0.1-2-0.2c-1.2-0.1-2.6-0.1-3.3,0.8C33.9,323.9,33.9,324.8,33.7,325.6z"/>
<path fill="#EAEAEA" stroke="#D6D6D6" stroke-miterlimit="10" d="M47.3,322.5c-0.1,1,0.5,2,1.2,2.7c0.3,0.3,0.9,0.6,1.3,0.5
	c1.3-0.5,1.6-2.8,0.8-4C49.9,320.7,47.3,321.3,47.3,322.5z"/>
<path fill="#EAEAEA" stroke="#D6D6D6" stroke-miterlimit="10" d="M87.2,302.4c-0.7,2.5-3.2,4.2-4.3,6.6c-1.3,2.8-0.4,6.4-2,9
	c-1.3,2-5.2,4.1-6.4,2c-1.2-2.1-0.2-5.3-2.3-6.4c-1.9-1.1-4.6-0.2-5.7,1.7s-1.7,6,0.5,6.2c1.7,0.1,0.8-3.4,2-4.5
	c1.2-1.1,3.6,0,3.5,1.7c0,0.6-0.3,1.1-0.3,1.6c0,0.9,0.7,1.6,1.5,2c0.8,0.4,1.7,0.4,2.5,0.4c2.4,0,5.1-0.5,6.7-2.3
	c2.6-2.9,1.6-7.5,3.2-11c1.2-2.6,3.9-4.4,4.7-7.1c0.6-2.2-0.2-4.6-0.7-6.8c-0.4-1.8-0.6-3.7-0.7-5.5c0-0.7,0-1.4,0.4-1.9
	c0.7-0.9,2.2-0.7,3.3-0.4c2.2,0.6,4.4,1.2,6.6,1.8c0.3,0.1,0.6,0.2,0.8,0.3c0.8,0.6,0.7,1.8,0.9,2.8s1.4,2,2.1,1.2
	c0.2-0.3,0.2-0.7,0.2-1.1c0-1-0.6-2.2,0-3.1c0.4-0.6,1.3,0.3,1.9,0.6c1.2,0.6,2.6,0.1,3.8-0.3c0.8-0.3,1.8-0.8,1.9-1.7
	c0-0.3,0-0.7-0.2-1c-1-2-3.8-2.3-6-1.8s-4.3,1.8-6.6,1.7c-2-0.1-3.8-1.1-5.6-1.7s-4.3-0.6-5.5,1c-1,1.2-0.9,2.9-0.8,4.4
	c0.2,2.7,0.5,5.4,0.7,8.1C87.4,300,87.5,301.3,87.2,302.4z"/>
<path fill="none" stroke="#D6D6D6" stroke-miterlimit="10" d="M354.1,362.6c1.3-2.4,2-5.2,3.8-7.3c0.6-0.7,1.4-1.4,2-2.2
	c0.5-0.6,0.8-1.3,1.2-2c1.2-2.1,3.2-4.1,5.1-5.9"/>
<path fill="none" stroke="#D6D6D6" stroke-miterlimit="10" d="M366.9,248.4c-0.6,0-1.3,0-1.9-0.1c-3.2-0.4-5.8,0.4-8.1,0.8
	c-5.5,1.1-3.4-4-10.4-2.8c-4,0.7-10.1,3.3-14.4,5.9c-0.5,0.3-1.6,0.5-2,0.9c-1.7,1.5,0.8,6.9-1.1,8.4c-1.1,0.9-10.1-0.6-17.2,0.9
	c-2.4,0.5-4.6,4.6-7,4.7c-3.6,0.1-5.6-0.8-8.5,0.5c-5.2,2.3-1.8,5.2-12.8,4.5c-3.5-0.2-8.9-0.1-11.8,2c-2.7,2-3,4.9-5.6,7
	c-1.8,1.5-7,2.1-9.3,2c-8-0.3-13.5-2.5-21,0.3c-2,0.7-4.2,1.4-6.4,1c-2.6-0.5-4.1-3.1-5-5.6c-1-2.9-1.6-5.9-1.8-8.9
	c-0.1-1.9-0.1-3.9-1-5.6c-2.3-4-8.3-3-12.6-1.5c-0.9,0.3-1.9,0.7-2.4,1.5c-1,1.7,0.6,3.5,1.7,5.1c2.5,3.6,2.6,8.5,0.9,12.6
	c-1.7,4.1-4.9,7.3-8.6,9.7c-6.6,4.4-15.4,2.4-22.5,5.9c-0.4,0.2-1.2,0.3-1.6,0c-0.3-0.4-0.5-0.9-1-1.1c-0.4-0.2-0.5-0.8-1-0.8"/>
<path fill="#EAEAEA" stroke="#D6D6D6" stroke-miterlimit="10" d="M10.7,341.3c-0.3,0-0.7,0-0.9,0.2c-0.2,0.2-0.2,0.5-0.3,0.8
	c-0.1,0.8-0.8,1.8-0.3,2.5c0.6,0.8,1.9-0.1,2.8-0.5c0.2-0.1,0.5-0.2,0.6-0.3c0.4-0.3,0.4-0.8,0.5-1.3c0.1-0.5,0.5-1,0.2-1.4
	C12.8,340.6,11.6,341.3,10.7,341.3z"/>
<path fill="none" stroke="#D6D6D6" stroke-miterlimit="10" d="M9.2,344.6c-1.9-0.1-3.8,0.3-5.6,1.1c-1.1,0.5-2.2,1.3-3.5,1.4
	c-1.1,0.1-2.2-0.2-3.2,0.1c-1.4,0.4-2.4,1.9-3.8,2.4c-1.1,0.4-2.4,0-3.6,0.3c-0.9,0.2-1.7,0.9-2.4,1.5c-0.8,0.7-1.6,1.4-2.4,2"/>
<g>
	<g>
		<path fill="none" stroke="#585858" stroke-miterlimit="10" d="M-15.9,349.2c0.7,0,1.3-0.2,2-0.4"/>
		<path fill="none" stroke="#585858" stroke-miterlimit="10" stroke-dasharray="3.9837,0.9959" d="M-13,348.5
			c2.5-1.1,4.6-3.4,6.4-5.5c1.5-1.7,2.2-4.4,4.4-5c1-0.3,2.1,0.5,2.9,0c1.1-0.7,1.1-2.3,1.6-3.5c0.5-1.2,1.6-2,2.7-2.7
			c1.3-0.9,2.7-1.9,4-2.8c0.8-0.6,1.7-1.2,2.6-1.5c1.2-0.4,2.9,0.5,3.8-0.4c0.4-0.5-0.6-1.4-0.3-1.9c0.6-0.9,3-0.6,2.7-1.6
			c-0.2-0.7-0.9-1.3-0.4-1.8c0.5-0.6,1.7-0.3,2.1-0.9c0.4-0.6-0.9-1.4-0.6-2c0.8-1.3,3-0.6,4.2-1.5c2.3-1.8,4.4,2.5,6.7,0.8
			c1.9-1.4,3.8-2.9,5.7-4.3c4.4-3.3,8.7-6.7,13.1-10c2-1.6,4.1-3.1,6.6-3.9c1.1-0.3,2.3-0.5,3.3-1c0.8-0.4,1.4-1.1,2.1-1.7
			c1.2-1,2.5-1.9,3.9-2.7c2.2-1.3,4.4-2.7,6.6-4c3.3-2,6.6-4,10.3-5.3c5-1.7,10.5-1.8,15.6-0.3c0.9,0.3,1.8,0.6,2.7,0.6
			c3.3,0.2,6.7-3,9.6-1.5c0.8,0.4,1.4,1.1,2.2,1.3c1,0.2,2.1-0.2,3,0.4c0.5,0.3,0.8,0.9,1.4,1c0.6,0.1,1-0.4,1.6-0.6
			c1.2-0.4,1.3,2,2.3,2.8c2.6,2.1,4.8-5.8,8-6.6c0.6-0.2,1.2-0.3,1.7-0.6c2.1-1.2,2.7-4.3,5-4.9c0.7-0.2,1.4-0.1,2-0.2
			c1.3-0.1,2.4-0.7,3.6-1.3c4.9-2.2,10.4-3.1,15.7-2.5c1.1,0.1,2.3,0.3,3.4,0.2c0.9-0.1,1.7-0.4,2.5-0.6c1.7-0.3,3.4-0.2,5,0.3
			c1.1,0.4,2.3,0.9,3.4,0.6c0.7-0.2,1.2-0.7,1.8-1.1c1.5-1,3.3-1.3,5-1.8c3.1-1,6-3,7.9-5.6c0.4-0.5,0.7-1,0.8-1.6
			c0.1-0.6,0.1-1.2,0.1-1.8c0.1-1.1,0-2.4,1.1-2.8c1.7-0.7,5.3,2.1,5.1,0.3c-0.2-1.7-2.8-2.4-2.8-3.8c0-1.1,0.9-3.1,1.4-4
			c0.9-2.1,2.8-4,3.9-5.4c1.2-1.5,2.4-3,4.1-3.9c0.9-0.5,2-0.7,2.9-1.3c1.4-1,2-2.8,3.3-3.8c0.9-0.7,2.1-0.7,3.1-1.1
			c3.6-1.3,7.5-2,11.3-2.3c1.1-0.1,2.9-0.1,4,0.2c1.7,0.6,1.9,2.4,3.1,3.8c1.1,1.4,2.9,0.6,4.6,1.2c2.6,0.9-0.4,5.2-0.2,7.9
			c0.1,1.6,0.7,2.5,1.5,3.9c0.3,0.4,0.6,0.9,1,1.2c0.3,0.2,0.6,0.3,0.9,0.5c1,0.6,1.4,1.8,1.6,2.9c0.1,1.1,0,2.3,0.1,3.4
			c0.1,2.6,1.2,5,2.4,7.3c1.9,3.7,3.2,7.9,5.6,11.3c0.7,1,1.9,2.2,3,2.8c0.9,0.5,2.6,0.6,3.6,0.7c1.6,0.2,3.1,0.7,4.7,0.9
			c4.4,0.5,7.8,0.1,8.8-1c0.2-0.2,0.6-0.6,0.8-0.8c2.8-2.8,4.3-7.4,8.1-8.8c3.1-1.2,9.2-0.2,9.6-1.8c0.3-1.6-2.7-3-2.1-4.5
			c0.5-1.2,3.6,1.7,12.8-10c1-1.2,2-2.4,3.3-3.3c1.3-0.9,2.8-1.3,4.3-1.8c4.3-1.4,9.3-2.7,13.3-0.5c0.9,0.5,1.8,1.2,2.8,1.5
			c1.9,0.7,4,0,6.1-0.4c2-0.4,3.8,0.5,5.7,1.3c3.1,1.2,5.6-3,8.6-4.4c7-3.2,13.1-2.8,20.4-7.7c2.3-1.6,4.7-3,7.1-4.2"/>
		<path fill="none" stroke="#585858" stroke-miterlimit="10" d="M365.1,234.7c0.6-0.3,1.2-0.6,1.8-0.8"/>
	</g>
</g>
<text transform="matrix(1 0 0 1 24.917 8.3405)"><tspan x="0" y="0" fill="#585858" font-family="'Verdana-Italic'" font-size="8">Bearup</tspan><tspan x="0" y="9.6" fill="#585858" font-family="'Verdana-Italic'" font-size="8">Lake</tspan></text>
<text transform="matrix(1 0 0 1 27.1122 102.4094)"><tspan x="0" y="0" fill="#585858" font-family="'Verdana-Italic'" font-size="8">Miwok</tspan><tspan x="0" y="9.6" fill="#585858" font-family="'Verdana-Italic'" font-size="8">Lake</tspan></text>
<text transform="matrix(1 0 0 1 137.833 153.174)"><tspan x="0" y="0" fill="#7BBCEB" font-family="'Verdana-Italic'" font-size="8">Ardeth</tspan><tspan x="0" y="9.6" fill="#7BBCEB" font-family="'Verdana-Italic'" font-size="8">Lake</tspan></text>
<text transform="matrix(1 0 0 1 206.75 158.5905)" fill="#585858" font-family="'Verdana-Italic'" font-size="8">9149 ×</text>
<text transform="matrix(1 0 0 1 163.75 33.0072)" fill="#585858" font-family="'Verdana-Italic'" font-size="8">× 8057</text>
<path fill="none" d="M132.1,117.7c13-8,29.3-9.9,41.3-19.3"/>
<text transform="matrix(0.937 -0.3492 0.3492 0.937 145.8135 113.9675)"><tspan x="0" y="0" fill="#7D7D7D" font-family="'Verdana-Italic'" font-size="7">8</tspan><tspan x="4.4" y="0" fill="#7D7D7D" font-family="'Verdana-Italic'" font-size="7" rotate="0.4">4</tspan><tspan x="8.9" y="0" fill="#7D7D7D" font-family="'Verdana-Italic'" font-size="7" rotate="-0.2">0</tspan><tspan x="13.4" y="0" fill="#7D7D7D" font-family="'Verdana-Italic'" font-size="7" rotate="-2">0</tspan></text>
<path fill="none" d="M136.4,37.4c6.4-2.9-7.4-6.4,21.3-23.2c1.7-1,13.7-8.7,14.9-10.2"/>
<text transform="matrix(0.7986 -0.6019 0.6019 0.7986 147.3115 24.1648)"><tspan x="0" y="0" fill="#7D7D7D" font-family="'Verdana-Italic'" font-size="7">7</tspan><tspan x="4.3" y="0" fill="#7D7D7D" font-family="'Verdana-Italic'" font-size="7" rotate="3.1">6</tspan><tspan x="8.6" y="0.2" fill="#7D7D7D" font-family="'Verdana-Italic'" font-size="7" rotate="5.4">0</tspan><tspan x="13.1" y="0.7" fill="#7D7D7D" font-family="'Verdana-Italic'" font-size="7" rotate="5">0</tspan></text>
<text transform="matrix(1 0 0 1 260.9562 323.5038)"><tspan x="0" y="0" fill="#585858" font-family="'Verdana-Italic'" font-size="8">Andrews</tspan><tspan x="15.3" y="9.6" fill="#585858" font-family="'Verdana-Italic'" font-size="8">Peak</tspan></text>
<text transform="matrix(1 0 0 1 298.3802 328.5489)" fill="#585858" font-family="'Verdana-Italic'" font-size="8">× 8551</text>
<path fill="none" d="M333.7,344.7c2.1-2.6,2.9-6,5-8.6c1.3-1.6,3.1-2.8,4.7-4.2c2.7-2.3,4.9-5,6.7-8c4.1-7.2,5.1-15.7,7.4-23.7
	c1.5-5.1,3.5-10,6.1-14.7"/>
<text transform="matrix(0.7227 -0.6912 0.6912 0.7227 344.8777 334.0849)"><tspan x="0" y="0" fill="#7D7D7D" font-family="'Verdana-Italic'" font-size="7">8</tspan><tspan x="4.8" y="0" fill="#7D7D7D" font-family="'Verdana-Italic'" font-size="7" rotate="-8.5">0</tspan><tspan x="9.6" y="-0.8" fill="#7D7D7D" font-family="'Verdana-Italic'" font-size="7" rotate="-17">0</tspan><tspan x="14.2" y="-2.2" fill="#7D7D7D" font-family="'Verdana-Italic'" font-size="7" rotate="-24.3">0</tspan></text>
<text transform="matrix(1 0 0 1 144.9553 321.3302)"><tspan x="0" y="0" fill="#585858" font-family="'Verdana-Italic'" font-size="8">Andrews</tspan><tspan x="15.7" y="9.6" fill="#585858" font-family="'Verdana-Italic'" font-size="8">Lake</tspan></text>
<text transform="matrix(1 0 0 1 110.6825 334.0927)" fill="#585858" font-family="'Verdana-Italic'" font-size="8">8148 ×</text>
<path fill="none" d="M46.7,286.5c1.6-0.5,3-1.6,4.4-2.6c2.1-1.5,4.4-2.9,6.8-4c5.8-2.8,12.3-4.4,17-8.8"/>
<text transform="matrix(0.8621 -0.5068 0.5068 0.8621 54.0361 284.8939)"><tspan x="0" y="0" fill="#7D7D7D" font-family="'Verdana-Italic'" font-size="7">7</tspan><tspan x="4.2" y="0" fill="#7D7D7D" font-family="'Verdana-Italic'" font-size="7" rotate="5.5">8</tspan><tspan x="8.5" y="0.4" fill="#7D7D7D" font-family="'Verdana-Italic'" font-size="7" rotate="8.2">0</tspan><tspan x="13" y="1.1" fill="#7D7D7D" font-family="'Verdana-Italic'" font-size="7" rotate="6.6">0</tspan></text>
<text transform="matrix(1 0 0 1 240.762 153.4655)"><tspan x="0" y="0" fill="#585858" font-family="'Verdana-Italic'" font-size="8">Mahan</tspan><tspan x="0" y="9.6" fill="#585858" font-family="'Verdana-Italic'" font-size="8">Peak</tspan></text>
<text transform="matrix(1 0 0 1 294.9002 79.8403)" fill="#585858" font-family="'Verdana-Italic'" font-size="8">× 9085</text>
<path fill="none" d="M284.4,243.1c3.3-5.9,7.4-11.3,12.3-16c4.5-4.4,10.5-8.3,16.6-6.9"/>
<text transform="matrix(0.5957 -0.8032 0.8032 0.5957 290.063 238.7966)"><tspan x="0" y="0" fill="#7D7D7D" font-family="'Verdana-Italic'" font-size="7">7</tspan><tspan x="4.3" y="0" fill="#7D7D7D" font-family="'Verdana-Italic'" font-size="7" rotate="3.7">8</tspan><tspan x="8.6" y="0.3" fill="#7D7D7D" font-family="'Verdana-Italic'" font-size="7" rotate="7.4">0</tspan><tspan x="12.8" y="0.8" fill="#7D7D7D" font-family="'Verdana-Italic'" font-size="7" rotate="12.3">0</tspan></text>
<path fill="none" d="M321.7,156.4c4.1-5.9,8.4-11.6,12.6-17.4c3.9-5.3,7.7-10.5,11.6-15.8"/>
<text transform="matrix(0.5844 -0.8115 0.8115 0.5844 326.4521 154.0573)"><tspan x="0" y="0" fill="#7D7D7D" font-family="'Verdana-Italic'" font-size="7">8</tspan><tspan x="4.4" y="0" fill="#7D7D7D" font-family="'Verdana-Italic'" font-size="7" rotate="0.2">0</tspan><tspan x="8.9" y="0" fill="#7D7D7D" font-family="'Verdana-Italic'" font-size="7" rotate="0.4">0</tspan><tspan x="13.3" y="0.1" fill="#7D7D7D" font-family="'Verdana-Italic'" font-size="7" rotate="0.5">0</tspan></text>
<path fill="none" d="M240,35.4c11-4.4,23.5-0.8,35.1-2.6"/>
<text transform="matrix(1 -6.355891e-03 6.355891e-03 1 251.874 35.6272)"><tspan x="0" y="0" fill="#7D7D7D" font-family="'Verdana-Italic'" font-size="7">8</tspan><tspan x="4.4" y="0" fill="#7D7D7D" font-family="'Verdana-Italic'" font-size="7" rotate="2">6</tspan><tspan x="8.8" y="0.2" fill="#7D7D7D" font-family="'Verdana-Italic'" font-size="7" rotate="2">0</tspan><tspan x="13.4" y="0.4" fill="#7D7D7D" font-family="'Verdana-Italic'" font-size="7" rotate="0">0</tspan></text>
<path fill="none" d="M143.5,233c1.2-3.9,7-3.8,10.6-5.7c8.6-4.6,15.5-12,24.7-15.5"/>
<text transform="matrix(0.9514 -0.308 0.308 0.9514 150.3164 231.3109)"><tspan x="0" y="0" fill="#7D7D7D" font-family="'Verdana-Italic'" font-size="7">8</tspan><tspan x="5" y="-0.1" fill="#7D7D7D" font-family="'Verdana-Italic'" font-size="7" rotate="-12.4">2</tspan><tspan x="9.5" y="-1.2" fill="#7D7D7D" font-family="'Verdana-Italic'" font-size="7" rotate="-16.4">0</tspan><tspan x="13.8" y="-2.4" fill="#7D7D7D" font-family="'Verdana-Italic'" font-size="7" rotate="-18.2">0</tspan></text>
<text transform="matrix(0.9919 0.1271 -0.1271 0.9919 111.1812 306.4216)" fill="#585858" font-family="'Verdana-Italic'" font-size="8">Falls</text>
<text transform="matrix(0.9993 3.659266e-02 -3.659266e-02 0.9993 240.4192 289.5095)" fill="#585858" font-family="'Verdana-Italic'" font-size="8">Creek</text>
<g>
	<g>
		<polyline fill="none" stroke="#7D7D7D" stroke-miterlimit="10" points="85.2,341.6 85.2,348.7 275.4,348.7 275.4,341.7 		"/>
		<line fill="none" stroke="#7D7D7D" stroke-miterlimit="10" x1="180.5" y1="341.4" x2="180.5" y2="348.7"/>
		<line fill="none" stroke="#7D7D7D" stroke-miterlimit="10" x1="161.2" y1="349.2" x2="161.2" y2="343.7"/>
		<line fill="none" stroke="#7D7D7D" stroke-miterlimit="10" x1="142.4" y1="349.2" x2="142.4" y2="343.7"/>
		<line fill="none" stroke="#7D7D7D" stroke-miterlimit="10" x1="123.3" y1="349.2" x2="123.3" y2="343.5"/>
		<line fill="none" stroke="#7D7D7D" stroke-miterlimit="10" x1="104.6" y1="349.2" x2="104.6" y2="343.7"/>
	</g>
	<text transform="matrix(1 0 0 1 83.7837 339.1468)" fill="#7D7D7D" font-family="'Verdana'" font-size="8">0</text>
	<text transform="matrix(1 0 0 1 174.2948 339.1468)" fill="#7D7D7D" font-family="'Verdana'" font-size="8">0.5</text>
	<text transform="matrix(1 0 0 1 258.3417 339.1468)" fill="#7D7D7D" font-family="'Verdana'" font-size="8">1 mi</text>
</g>
</svg>
