<?xml version="1.0" encoding="utf-8"?>
<!-- Generator: Adobe Illustrator 17.1.0, SVG Export Plug-In . SVG Version: 6.00 Build 0)  -->
<!DOCTYPE svg PUBLIC "-//W3C//DTD SVG 1.1//EN" "http://www.w3.org/Graphics/SVG/1.1/DTD/svg11.dtd">
<svg version="1.1" id="Layer_1" xmlns="http://www.w3.org/2000/svg" xmlns:xlink="http://www.w3.org/1999/xlink" x="0px" y="0px"
	 viewBox="0 0 360 360" enable-background="new 0 0 360 360" xml:space="preserve">
<path fill="none" stroke="#E1E1E1" stroke-miterlimit="10" d="M284.1,373c4.8-3.5,9.5-7,15-9.1c2.3-0.9,4.7-1.2,6.9-2.2
	c11.3-5.1,24.4-3.3,36.6-1.3c3.7,0.6,7.4,1.2,10.7,2.9c1.5,0.8,2.9,1.7,4.5,2.2c1.6,0.4,2.9-1.3,4.6-1.1c1.6,0.2,0.3,3.9,1.8,4.5"/>
<path fill="none" stroke="#E1E1E1" stroke-miterlimit="10" d="M141.7,372.6c0-0.2,0.1-0.4,0.1-0.6c0.5-2.9,0.4-6,1-8.9
	c0.7-3.1,2.1-6,3.5-8.8c1.9-3.7,6.2-7.1,5.6-11.2c-0.2-1.3-2.4-1.2-3.7-0.8c-1.3,0.4-2.4,1.2-3.4,1.9c-9.2,6.8-18.4,13.6-27.3,20.8
	c-1.3,1.1-2.6,2.2-3.3,3.7c-0.5,1.1-0.6,2.6,0,3.7"/>
<path fill="none" stroke="#E1E1E1" stroke-miterlimit="10" d="M211.1,326.6c0.7,1,2.1,1.4,3.3,1.3c1.2-0.1,2.8-1.3,2.2-2.3
	c-0.7-1.2-2.6-1.3-4-1C211.7,324.8,210.5,325.9,211.1,326.6z"/>
<path fill="none" stroke="#E1E1E1" stroke-miterlimit="10" d="M217.7,315.7c0.9-1.1,0.7-3-0.5-3.8c-1.3-0.8-3.2-0.2-3.8,1.2
	c-0.4,1.1,0.1,2.5,1.1,3.1C215.5,316.9,216.9,316.6,217.7,315.7z"/>
<path fill="none" stroke="#E1E1E1" stroke-miterlimit="10" d="M238.5,300.7c-0.5,0.3-0.9,0.6-1.2,1c-0.5,0.7-0.4,1.7,0.2,2.3
	c0.4,0.4,1.1,0.6,1.6,0.9c0.6,0.3,1.1,0.7,1.1,1.4c0,0.2,0,0.5,0.1,0.7c0.1,0.2,0.4,0.3,0.6,0.3c3.6,0.6,7.5-1.1,9.5-4.1
	c0.3-0.5,0.7-1.1,0.6-1.7c-0.1-0.7-0.7-1.3-1.4-1.7c-0.7-0.4-1.4-0.6-2-1.1c-1.2-1-1.5-2.7-2.3-4.1c-0.4-0.6-0.9-1.2-1.5-1.5
	s-1.5-0.2-2,0.4c-0.5,0.5-0.5,1.3-0.3,2c0.2,0.7,0.6,1.2,1,1.8c0.1,0.2,0.2,0.3,0.2,0.5c0,0.3-0.3,0.6-0.6,0.7
	C241,299.2,239.8,300,238.5,300.7z"/>
<path fill="none" stroke="#E1E1E1" stroke-miterlimit="10" d="M366.1,308.7c-0.3,0.1-0.6,0.3-0.9,0.4c-3.4,1.6-6.1,4.4-8.8,7.1
	c-1.5,1.5-3,3.1-4.5,4.6c-1.2,1.2-2.5,2.4-4.1,2.6c-2.9,0.3-5-2.8-5.5-5.7c-0.3-1.7-0.3-3.4,0-5c0.6-3.4,2.4-6.6,4.2-9.5
	c1.4-2.3,3-4.5,5.1-6.2c2.7-2.1,6.1-3,9.4-3.9c1.7-0.4,3.3-0.9,5.1-1"/>
<path fill="none" stroke="#E1E1E1" stroke-miterlimit="10" d="M365.5,277.4c-5.8,1.2-11.7,1.9-17.6,2.6c-2.1,0.3-4.2,0.5-6.3,0.1
	c-1.1-0.2-2.1-0.7-3.2-1c-1.6-0.5-3.4-0.8-5-0.2c-1.6,0.6-2.7,2.5-2.1,4c0.5,1.3,1.9,2,2.6,3.2c0.7,1.4,0.1,3.3,0.8,4.7
	c0.4,0.9,1.1,1.7,0.9,2.6c-0.2,0.7-0.9,1.1-1.5,1.6c-3.6,2.6-3.6,8-2.4,12.2c1.3,4.2,3.6,8.3,3.4,12.8c-0.1,1.3-0.3,2.6-0.6,3.8
	c-0.3,1.4-0.6,2.9-0.9,4.3c-0.4,1.7-0.7,3.3-1.4,4.9c-0.7,1.5-1.8,3.3-1.1,4.8c1,2,3.8,1.6,5.9,0.8c3-1,5.9-2.1,8.9-3.1
	c0.8-0.3,1.7-0.6,2.4-1c0.9-0.5,1.7-1.2,2.5-1.9c2.7-2.4,5.4-4.7,8.1-7.1c0.5-0.5,1.1-1,1.8-1.2c0.7-0.3,1.5-0.3,2.2-0.6
	c1-0.3,1.8-1,2.5-1.7c0.1-0.1,0.3-0.2,0.4-0.3"/>
<path fill="none" stroke="#E1E1E1" stroke-miterlimit="10" d="M364.7,224.6c-1.4-1-4.7,1.3-6.8,1.8c-4.1,1.1-8.4,1.9-12.6,2.3
	c-0.6,0.1-1.2,0.1-1.8-0.1c-1.5-0.4-1.6-2.3-2.3-3.7c-1.2-2.4-5.6-2.8-8.1-1.7c-0.7,0.3-1.5,0.8-2.2,0.6c-1.4-0.3-1.8-2.1-1.8-3.6
	c0-1.4,0-2.9,1-3.8c0.9-0.9,2.4-1.4,2.6-2.6c0.1-0.5-0.1-0.9-0.3-1.4c-1-2.8-1.8-6.3,0.2-8.4c1.3-1.4,3.4-1.6,5.2-2.3
	c3.2-1.2,5.6-3.9,8.7-5.2c1.1-0.4,2.2-0.7,3.3-1.2c1.2-0.6,2.2-1.7,3.2-2.7c2.2-2.1,4.5-4.1,7-5.9c1.6-1.1,3.3-2.2,5.1-2.7"/>
<path fill="none" stroke="#E1E1E1" stroke-miterlimit="10" d="M365.7,334.7c-3.2,2.7-6.1,5.9-9.6,8.2c-5.8,3.7-13,4.6-19.9,5.4
	c-3.3,0.4-6.7,0.7-9.8-0.4c-2.1-0.7-4.1-2.1-6.3-1.9c-0.9,0.1-1.9,0.5-2.8,0.3c-1.6-0.4-2.2-2.5-1.5-4c0.7-1.5,2.3-2.3,3.8-2.7
	c0.8-0.2,1.7-0.4,2.2-1c0.3-0.3,0.5-0.7,0.7-1.1c1.3-2.7,2.6-5.3,3.8-8c0.4-0.8,0.8-1.7,0.8-2.6c0-0.9-0.3-1.8-0.7-2.7
	c-1.5-3.8-3-7.7-4.5-11.5c-2.3-5.9-4.7-12.1-3.6-18.3c0.3-2,1-4.3-0.2-5.9c-0.4-0.6-1.1-1.1-1.4-1.7c-0.8-1.5,0-3.4-0.3-5
	c-0.3-1.7-1.9-3.3-1.2-4.9c0.3-0.6,0.8-1,1.1-1.7c0.8-1.8-1.6-3.8-1-5.7c0.2-0.6,0.6-1,1-1.4c4-3.8,9.7-5.5,15.2-5.9
	s11.1,0.2,16.6,0.2c4.9,0,11.3-0.8,17.4-2"/>
<path fill="none" stroke="#E1E1E1" stroke-miterlimit="10" d="M256.3,372.8c0.3-1,0.7-2,1.3-2.9c0.2-0.3,0.4-0.5,0.7-0.7
	c0.9-0.4,1.8,0.7,2.7,1.2c2.4,1.6,5.2-0.9,7.5-2.6c3.5-2.6,8.1-4.3,12.3-3.1c4.7,1.4,10.2,0.3,13-3.8c1.8-2.6,3-6.5,6.2-6.7
	c1.6-0.1,3.1,1,4.7,1.4c4.5,1.1,8.8-3.1,13.4-2.7c1.5,0.2,2.9,0.8,4.4,1.2c5.9,1.4,12.4-1.9,17.8,0.7c1.9,0.9,3.5,2.5,5.5,3.2
	c2.1,0.7,4.5,0.3,6.6-0.2c4.8-1.3,8.4-7.3,12.8-8.8"/>
<path fill="none" stroke="#E1E1E1" stroke-miterlimit="10" d="M365.2,174c-3-0.2-6.1-0.7-9,0.2c-6.3,2-9.3,9.8-15.5,12.3
	c-5.1,2.1-12,0.4-15.5,4.6c-1.9,2.3-2,5.6-2.7,8.6c-1.5,6-6.2,11-12.1,12.9c-2,0.7-4.8,1.6-4.6,3.8c0,0.6,0.3,1.1,0.6,1.6
	c1.2,2.2,2.4,4.5,4.2,6.1c1.9,1.7,6.4,0.9,6.9,1.9c0.5,0.9-5.2,5-2.9,7.4c0.7,0.8,1.7,1.3,2.1,2.2c0.4,0.9,0.1,1.9-0.5,2.8
	c-2.2,3.3-7,3-10.8,4.1c-4.6,1.3-7.9,5.1-11.7,8c-12,9.4-28.3,11.3-41.3,19.3c-1.6,1-3.2,2.1-5,2.6c-1.4,0.5-2.9,0.6-4.4,0.8
	c-11.3,1.4-22.7,6.1-31.2,13.2c-1.9,1.6-4,3.2-6.3,4c-2.8,1.1-5.6,2.1-8.4,3.2c-3.1,1.2-6.3,2.4-9.5,2c-1.8-0.2-3.5-0.9-5.3-1.1
	c-2.8-0.5-6.8-1.8-8.6,0.5c-1,1.3,1.5,2.9,2.9,3.7c1.4,0.8,3,1.3,4.4,2.2c1.2,0.7,2.3,2.1,1.7,3.4c-0.4,1-1.7,1.7-1.4,2.7
	c0.2,0.6,0.7,0.9,1.1,1.4c1,1.6-1.6,3.5-1.4,5.4c0,0.6,0.4,1.2,0.4,1.9c-0.1,1.2-1.3,1.9-1.8,3c-0.5,1.2,0.1,2.5-0.2,3.8
	c-0.3,1.5-1.6,2.6-2.8,3.7c-2.9,2.6-4.9,6.1-5.9,9.9c-0.1,0.5-0.2,1,0.1,1.4c0.3,0.4,1,0.4,1.5,0.4c1.2-0.1,2.5-0.2,3.7-0.2
	c0.8-0.1,1.7,0,2.2,0.6c0.3,0.4,0.3,1,0.4,1.4c0.6,2.1,4.1,0.3,5.7,1.8c2.2,2.2-4.1,10.9,6.3,18.7c3.3,2.5,7.7,3.1,11.8,3.6
	c0.4,0.1,0.9,0.1,1.3-0.1c0.5-0.2,0.9-0.7,1.2-1.3c2.4-4.1,4.4-8.5,5.9-13.1c0.8-2.4,1.4-4.8,2.1-7.2c0.1-0.4,0.2-0.8,0.5-1.1
	c0.4-0.4,1.1-0.4,1.7-0.4c1.8,0.2,3.6,0.8,5.1,1.8c0.5,0.3,0.9,0.7,1.4,0.8c0.4,0.1,0.8,0,1.2-0.2c3-0.9,6.2-3,9.1-1.8
	c1.4,0.6,2.3,1.8,3.6,2.6c1.5,0.9,3.4,1,5,1.5c3.4,1.1,6,4.1,6.7,7.5c0.5,2.6,0,5.3-1.1,7.6c-0.7,1.4-1.6,3-1,4.5
	c0.7,1.8,3.2,2.4,4.1,4.2c0.6,1.2,0.1,2.2-0.8,3.2"/>
<path fill="none" stroke="#E1E1E1" stroke-miterlimit="10" d="M285.3,244.7c-0.4,0.3-0.8,0.6-1.1,1c-0.3,0.4-0.4,1.1,0,1.4
	c2.7,2.3,7.3,0.9,9.9-1.5c0.9-0.8,2.4-2.4,1.5-3.3C293,239.9,288.4,242.8,285.3,244.7z"/>
<path fill="none" stroke="#E1E1E1" stroke-miterlimit="10" d="M81.9,373c1.1-2.3,2.2-4.5,3.7-6.5c1.5-2,3.2-3.7,5-5.5
	c8.4-8.4,16.8-16.8,25.2-25.3c1.6-1.6,3.4-3.2,5.6-3.4c2.3-0.1,5.5,1,6.3-1.2c0.3-0.8-0.1-1.7-0.3-2.5c-1.3-4.9,5.3-6.3,7.8-10.7
	c1.4-2.4-0.8-5.6,0.9-7.7c1.9-2.3,4.9-3.2,7.2-5s4-7.5,1.1-7.5c-6.2-0.1-10.5,6.5-15.8,9.7c-1.5,0.9-3.6,1.8-4.9,0.6
	c-1.9-1.6,0-4.5,1.1-6.7c2.7-5.4-3.9-8.8-6.9-14c-1.2-2,2.8-3.6,4.8-4.9c6.3-4.2,14.4-6.4,18.9-12.5c2.3-3.2,2.7-7.6,3.8-11.4
	c0.3-0.9,0.6-1.9,1.4-2.3c0.8-0.4,1.8,0.1,2.7,0.4c4.9,1.6,10.1-1.6,14.3-4.7c0.8-0.6,1.7-1.2,2-2.2c0.5-1.4-0.3-2.9-0.7-4.4
	c-0.4-1.5,1.7-1.5,1.5-3c-0.2-1-2.6-1-2.5-2.2c0.1-1.2,1.3-3,2.2-3.8c5.6-4.6,13.4-5.3,20.7-5.7c2.7-0.2,5.3,0.2,7.9,0.6
	c5.3,0.8,3,6.1,4.1,5.9c3.8-0.7,8.3,1.4,5.6,6.1c-1.8,3.1-6.1,5.4-8.9,3.2c-2-1.5,2-5.4-0.5-5.5c-4.3-0.3-21.3,16.1-30.2,26.3
	c-1.8,2.1-4.5,5.6-4.3,9.4c0.1,2.6-3.4,4.3-1.3,5.2c3.5,1.5,39.3-6.9,56.6-16.4c5.3-2.9,10.3-6.4,15.6-9.2
	c9.6-5.1,20.3-7.9,31.2-8.3c1.8-0.1,3.6-0.1,5.2-0.8c2.4-1.1,5-2.8,5.8-5.3c3.4-11.7,22.3-20.2,22.9-22c1.2-3.6-10.7,0.9-11.1-2.9
	c-1-10.7,19.1-10.3,26.8-17.8c1.9-1.8,3.6-3.7,5.2-5.7c2.1-2.6,4-5.5,5-8.7c0.6-2,0.9-4.2,2.1-5.9c1.6-2.3,4.4-3.4,7-4.3
	c11.1-4,22.3-7.6,33.5-11"/>
<path fill="none" stroke="#E1E1E1" stroke-miterlimit="10" d="M236.2,243.2c0.9-1.3,0.6-3.7-0.5-4.7c-0.6-0.6-1.5-0.7-2.2-0.9
	c-2.1-0.6-4-1.8-5.3-3.5c-0.6-0.7-1.2-1.6-2.1-2c-0.5-0.2-1.2-0.3-1.7-0.3c-4.8-0.1-9.6,0.8-14.1,2.5c-0.8,0.3-1.8,0.7-2.1,1.6
	c-0.3,0.9,0.1,1.8,0.7,2.5c2.3,2.6,6.6,2.6,9.6,0.8c1.1-0.6,2.2-1.5,3.4-1.1c0.7,0.2,1.3,0.9,1.8,1.5c1.2,1.5,2.7,2.6,2.9,4.5
	c0.1,0.5,0.8,2,1.1,2.4c0.5,0.7,1.7,0.7,2.5,0.6C232.7,246.8,234.7,245.4,236.2,243.2z"/>
<path fill="none" stroke="#E1E1E1" stroke-miterlimit="10" d="M101.8,321.1c-0.7-2.4-0.7-5.2,0.9-7.1c0.6-0.8,1.5-1.4,2.2-2.1
	c1.9-1.9,2.8-4.6,2.9-7.3c0.1-2.7-2-5.4-1.1-7.9c0.6-1.6,2.8-2.2,3.6-3.7c0.8-1.5,1.1-3.5,0.2-5c-0.4-0.7-1.1-1.3-1.9-1.6
	c-2-0.8-4.2,0.1-6.1,1c-2.4,1.1-4.7,2.2-7.1,3.3c-0.3,0.2-0.7,0.3-1.1,0.3c-0.3,0-0.6-0.1-0.9-0.2c-2.9-0.8-6-0.6-8.7,0.6
	c-2.5,1.2-4.6,3.1-7.1,4.2c-2.7,1.1-5.7,1.2-8.3,2.3c-2.6,1.1-2,4.5-3.8,6.7c-0.6,0.8-2,0.9-2,1.9c-0.1,1,1.4,1.8,1.2,2.8
	c-0.5,2.6-4.7,2.6-7.1,3.9c-2,1.1-5.9,3.4-4.2,5c0.6,0.6,2-0.7,2.5,0c0.7,0.9,0.1,2.3,0.9,2.9s2.2-0.7,3-0.1
	c2.1,1.8-2.8,4.8-4.1,7.3c-1.2,2.4-2.4,4.9-2.7,7.5c-0.2,2.6,0.5,5.1,1.1,7.6c1.3,6.3-3.5,13.6-0.2,19.1c2.1,3.5,8.5-0.7,10.6-4.2
	c1.7-2.8,1.8-6.2,2.5-9.3c1-4.5,3.3-8.7,5.9-12.6c0.9-1.3,1.8-2.6,3-3.7c2.8-2.6,6.7-3.9,10.4-3.4c0.9,0.1,1.8,0.3,2.7,0.3
	c0.8,0,1.6-0.3,2.4-0.5c2.4-0.7,4.8-1.4,7.2-2c1.3-0.4,2.8-0.9,3.4-2.1C102.7,323.9,102.1,322.4,101.8,321.1z"/>
<path fill="none" stroke="#E1E1E1" stroke-miterlimit="10" d="M104.3,328.9c0-0.4-0.4-0.6-0.7-0.8c-1.1-0.5-2.3-0.4-3.3,0.3
	c-1,0.6-2.2,1.9-1.6,2.9c0.2,0.5,0.9,0.6,1.4,0.7c1.6,0.3,2.9-1.1,3.9-2.3C104.1,329.5,104.3,329.2,104.3,328.9z"/>
<path fill="none" stroke="#E1E1E1" stroke-miterlimit="10" d="M85.5,333.9c0.9,0.6,2.2,0.3,3.3,0.5c0.5,0.1,1,0.1,1.4-0.2
	c0.2-0.2,0.3-0.5,0.4-0.7c0.1-0.9-0.5-1.8-1.3-2.2c-0.8-0.4-1.8-0.3-2.6,0.1C85.7,331.8,84.6,333.3,85.5,333.9z"/>
<path fill="none" stroke="#E1E1E1" stroke-miterlimit="10" d="M119.1,309.2c-0.6,0.6-0.3,1.7,0.3,2.3c1,0.9,2.9,1.7,3.8,0.7
	c0.7-0.8,0.3-2.4-0.6-2.9c-0.4-0.2-0.8-0.1-1.3-0.2C120.6,309.1,119.7,308.7,119.1,309.2z"/>
<path fill="none" stroke="#E1E1E1" stroke-miterlimit="10" d="M17.8,372.6c-0.3-1-0.4-2.1-0.2-3.2c0.8-4.2,5.3-6.5,9.2-8.3
	c4-1.8,8-3.8,12-5.8c1.3-0.7,2.7-1.4,3.7-2.5c1.8-2.1,1.8-5.2,1.7-8c-0.3-7.4-0.5-14.9-0.8-22.3c-0.1-2.4-0.2-4.9-1.2-7
	c-1-2.2-3.8-2.2-5.6-3.7c-2.8-2.4,2.4-7.1,5.5-9.1c3.1-2,6.8-3.1,10.1-4.7c4.7-2.2,10.8-4.5,12-9.6c0.4-1.9,1.6-3.7,3.5-4
	c2-0.3,4,0.3,5.9,0.4c4.2,0.1,8.1-2.3,12.1-3.8c10.1-3.8,22.2-2,31.2-7.9c8.4-5.4,9.1-22,19-23c1.1-0.1,2-0.2,2.8-0.9
	s1.5-1.7,2.4-2.2c1-0.7,2.3-0.8,3.5-1.2c1.9-0.6,3.6-1.9,5.2-3.2c4.7-3.7,9.4-7.3,14.2-11c0.8-0.6,2.5-1,2.3-2
	c-0.3-1.5-3.5-0.4-4.3-1.7c-1.1-1.7,1.8-3.7,3.7-4.4c1.9-0.7,4-0.8,6-0.9c8-0.6,15.6-3.4,23.3-5.4c0.5-0.1,1.1-0.3,1.6-0.1
	c1,0.3,1.6,1.5,2.6,1.9c1.3,0.5,2.7-0.5,3.8-1.2c3.8-2.4,8.5-2.5,13-2.5c0.7,0,1.5,0,2,0.5c0.4,0.4,0.5,0.9,0.7,1.3
	c0.9,2,3.4,2.8,5.6,3.3c4.5,1,9.1,1.9,13.7,1.2c3.4-0.5,6.7-1.7,10.1-1.5c2.4,0.2,4.4,3.4,6.7,2.7c3.8-1.3,5.3-5.5,9.3-5.6
	c3.5-0.1,5.3-3.8,8.3-5.7c3-1.9,8.5,0.9,10-2.3c0.9-1.8-4.9-2.2-4.5-4.2c0.7-3.1,5.7-2.6,8.6-3.8c3.1-1.4,6.2-2.8,8.6-5.2
	c3.2-3.3,4.5-8.1,5.4-12.7c0.3-1.5,0.5-3,1.4-4.2c0.8-1.1,2.1-1.8,3.3-2.4c2.9-1.5,5.7-3,8.6-4.6c3.3-1.8,6.7-3.6,10.2-4.8
	c5.9-2.1,12.3-2.7,18-5.3c3.1-1.4,5.9-3.2,8.8-5c4.6-2.7,9.3-5,14.3-6.9"/>
<path fill="none" stroke="#E1E1E1" stroke-miterlimit="10" d="M106.8,270.7c-1.8,0.4-3.5,2.7-2.5,4.3c0.3,0.5,1,0,1.4-0.4
	s0.9-0.3,1.4-0.6c0.9-0.6,1.6-1.7,1.3-2.7C108.1,270.7,107.3,270.6,106.8,270.7z"/>
<path fill="none" stroke="#E1E1E1" stroke-miterlimit="10" d="M364.9,130.9c-2.6,1.4-5.2,2.9-6.8,5.3c-0.6,0.9-1,1.9-1.8,2.5
	c-0.9,0.8-2.2,1-3.2,1.7c-2.3,1.6-2.5,5-4.5,7c-1.3,1.3-3.1,1.7-4.9,2.1c-10.8,2.5-21.9,5-31.6,10.4c-8.4,4.6-15.6,11.3-24.5,14.8
	c-4.7,1.9-9.8,2.8-14,5.5c-4.3,2.7-7.6,7.8-6.1,12.6c0.6,1.8,1.7,3.5,1.2,5.3c-0.3,1-1.1,1.8-2.1,2.4c-2.9,1.8-6.5,1.7-9.9,2.3
	s-4.8,3.8-7.5,5.9c-0.6,0.5-1.1-0.7-1.3-1.5c-0.5-2.1-1.3-4.7-3.4-5.2c-0.6-0.2-1.3,0-1.9,0.2c-2.3,0.7-4.5,1.4-6.8,2.1
	c-0.5,0.2-1.1,0.3-1.6,0.2c-1.6-0.3-2.3-2.2-3.9-2.1c-4.9,0.2-8.8,5.4-13.6,4.8c-2.2-0.3-3.9-1.6-6.1-1.4c-12.5,1.2-24.5,7.9-37,7
	c-0.8-0.1-1-1.1-1.6-1.6c-3.2-2.7-7.7,2.9-11.8,2.3c-0.6-0.1-0.1-1.3-0.5-1.8c-2.4-3-7.6,1.1-11.2,2.4c-4.1,1.5-8.1,2.9-12.2,4.4
	c-3.8,1.3-7.6,2.7-11,4.8c-2.5,1.6-4.8,3.6-6.7,5.9c-0.9,1.1-1.8,2.6-1.3,4c0.4,1.2,1.9,1.9,3.2,1.8c1.3-0.1,2.5-0.7,3.7-1.2
	c3.2-1.6,7-7.3,9.5-4.7c1.5,1.6-2,3.9-3.1,5.8c-2.3,4.3-0.8,10.3-4.3,13.9c-1.2,1.2-3.2,1.1-4,2.5c-0.8,1.4-0.1,3.6-1.3,4.7
	c-1,0.9-3-0.7-3.9,0.2c-1.5,1.8-1.9,4.2-3.8,5.4c-3.6,2.2-7.2,4.2-11.3,4.3c-4.2,0.1-8.5-0.3-12.4,1.2c-1.8,0.7-3.5,1.9-5.5,2.2
	c-1.6,0.2-3.1-0.2-4.7-0.2c-1.6,0-3.3,0.6-4,2c-0.3,0.7-0.3,1.4-0.7,2.1c-0.6,1.1-1.9,1.6-3.2,2c-5,1.5-10,2.7-15.2,3.6
	c-2.2,0.4-3.5,2.1-5.5,3.2c-2.3,1.4-6.2-2-8,0c-1.5,1.6-2.9,3.1-3.6,5.1c-1,3,2.4,6.6,0.2,8.7c-0.9,0.9-2.2,1.3-3.3,1.9
	c-4,2.2-5.7,7.3-9.6,9.6c-0.9,0.5-1.9,0.9-2.7,1.6c-0.6,0.6-1.1,1.3-1.5,2.1c-1.7,3-3.5,6.3-3.1,9.7c0.1,0.5,0.2,0.9,0.5,1.3
	c0.6,0.7,1.8,0.6,2.5,1.2c0.4,0.3,0.6,0.8,0.8,1.3c2.3,5.6,9.6,14.5,4.3,17.6c-1.4,0.8-3,1.1-3,2.7c0,1.7,0.7,3.5-0.2,4.9
	c-0.8,1.2-2.3,1.5-3.6,1.9c-6.1,1.6-11.6,2.4-13.8,8.3c-1.6,4.2-0.7,9.2-1,13.7c0,0.2,0,0.5,0.2,0.6c0.2,0.1,0.5-0.1,0.4-0.2"/>
<path fill="none" stroke="#E1E1E1" stroke-miterlimit="10" d="M280.9,184.4c-0.5,1.6-2.1,3.2-1.5,4.7c0.6,1.5,3.1-0.1,4.4-0.9
	c5.7-3.8,13.4-6.2,16.4-12.4c0.2-0.4,0.3-0.9,0-1.2c-1.3-1.9-4.5,0.2-6.7,1.1c-2.6,1.1-5.3,2.2-7.8,3.5c-1.6,0.8-3.1,1.8-4,3.3
	C281.4,183,281.1,183.7,280.9,184.4z"/>
<path fill="none" stroke="#E1E1E1" stroke-miterlimit="10" d="M-17.9,302c0.5,0.1,0.9,0.1,1.4,0.2c1.4,0.2,3.1,0.6,3.6,1.9
	c0.3,0.9-0.1,2,0.3,2.9c0.2,0.3,0.4,0.5,0.6,0.7c1.5,1.4,3.2,2.8,4.9,4.1c0.5,0.3,1,0.7,1.5,0.7c0.4,0,0.8-0.2,1.3-0.4
	c1.9-0.9,4.3-0.6,6,0.6c0.6,0.4,1.2,1,1.9,1.3c0.7,0.3,1.9,0.4,2.1-0.3c0.2-0.5,0.3-1.3,0.4-1.8c0.9-4.4,1.9-8.9,4.5-12.6
	s8.8-1.7,11.6-5.2c1.9-2.3,1.7-5.2,4.1-7.1c11-9,30.5-17.5,29.6-19.1c-1.2-2.2-10.8,2.6-11.3-3.7c-0.2-2.7,2.3-4.7,4.5-6.2
	c5.7-3.9,11.5-7.8,18.1-9.5c6.4-1.7,13.1-1.2,19.6-0.2c2.6,0.4,5.6,0.8,7.6-1c1-0.8,1.5-2.1,2.1-3.2c5.7-11.7,16.1-20.6,27.6-26.7
	c11.5-6.1,24.1-9.6,36.7-13.1c5.5-1.5,11-3.1,16.6-4.6c7.1-2,14.2-4,21.6-5c5.1-0.7,10.3-1,15.3-2c7.2-1.4,14-4.5,21.2-5.8
	c19.1-3.3,18.1,4,21.3,2.6c6.4-2.9-7.4-6.4,21.3-23.2c1.7-1,13.7-8.7,14.9-10.2c1.5-2,3.6-6.1,1.3-7.2c-7.3-3.2-23.1,8-22.6,0.1
	c0.3-4.5,11-8,7.6-11c-2.6-2.2-6.5,5.7-9.4,3.8c-3.4-2.2,8.1-5.7,6.4-9.4c-1.2-2.6-37.5,7.9-56.3,11.8c-2.5,0.5-5,1-7.4,0.7
	c-2-0.3-3.9-1.2-5.9-1.3c-2.2-0.2-4.4,0.6-6.5,1.3c-5.5,1.9-11.1,3.9-16.6,5.8c-3.3,1.2-6.8,2.3-10.3,1.6c-2-0.4-3.7-1.5-5.6-2.2
	c-6.7-2.5-18.3,2.1-14.7,8.2c3.7,6.4,7.8,15,4.5,19.2c-4.4,5.5-13.3,11.3-19.9,14.7c-12.3,6.2-24.8,12-37.9,16
	c-7.3,2.2-14.8,3.9-22.2,5.5c-2.9,0.6-5.7,1.3-8.6,1.9c-2.1,0.5-4.3,0.9-6.4,0.3c-2.1-0.6-1.5-4-3.5-4.7c-3.7-1.4-7,4.6-10.3,2.5
	c-1.1-0.7-2.1-1.8-3.4-2.1c-2-0.5-3.9,0.8-5.5,2c-4.5,3.3-9,6.7-13.5,10c-1.7,1.3-3.7,2.6-5.8,2.2c-1.2-0.2-2.3-1-3.6-1.1
	c-1.4-0.1-2.7,0.9-3.9,1.8c-3.2,2.5-5.7,6.5-9.6,7.6c-0.7,0.2-2.4-0.2-2.9,0.2c-0.6,0.6-0.9,1.4-1.5,2.1c-1.2,1.3-3.2,1.3-4.8,0.9
	s-3.4-1-5.1-0.6c-1.7,0.4-3.3,1.8-5,1.5"/>
<path fill="none" stroke="#E1E1E1" stroke-miterlimit="10" d="M41.1,253.9c-1.1-0.6-2.4,0.2-3.5,0.7c-0.9,0.5-1.9,0.8-3,1
	c-1,0.2-2.1,0.3-3,0.6c-0.6,0.2-1.2,0.5-1.7,0.9c-2.1,1.4-4,3.7-3.9,6.2c0,1.9-0.7,4.1,0.3,5.7c0.9,1.4,3.1-1,4.4-2
	c1.3-1,3.4-0.1,4.5-1.3c0.4-0.4,0-1.2,0.3-1.6c0.4-0.5,0.8-0.8,1.2-1.3c0.6-0.7,0.8-1.6,1.3-2.4c0.4-0.8,1-1.6,1.9-1.8
	c0.5-0.1,1.1,0,1.5-0.4c0.2-0.2,0.3-0.4,0.4-0.6C42.4,256.3,42.4,254.5,41.1,253.9z"/>
<path fill="none" stroke="#E1E1E1" stroke-miterlimit="10" d="M24.6,256.5c-0.5-0.5-1.4-0.1-1.9,0.4c-1.2,1.2-1.8,3.9-0.3,4.6
	c0.5,0.2,1.3,0.3,1.7-0.1c0.8-0.7,0.4-2,0.7-3.1C25,257.6,25.1,256.9,24.6,256.5z"/>
<path fill="none" stroke="#E1E1E1" stroke-miterlimit="10" d="M84.7,242c1-1.5,3-3.4,2-4.9c-0.8-1.1-2.7,0.3-3.4,1.4
	c-0.7,1.1-1.5,2.8-0.7,3.9c0.3,0.5,1.2,0.4,1.7,0.1C84.4,242.3,84.6,242.1,84.7,242z"/>
<path fill="none" stroke="#E1E1E1" stroke-miterlimit="10" d="M261.5,142.5c0.6-0.3,1.4-1,1-1.5c-0.3-0.3-0.8-0.2-1.1-0.3
	c-0.6-0.1-1.2-0.3-1.8-0.2c-0.6,0.1-1.2,0.6-1.2,1.2c-0.1,0.7,0.6,1.3,1.2,1.4S260.9,142.9,261.5,142.5z"/>
<path fill="none" stroke="#E1E1E1" stroke-miterlimit="10" d="M98.9,210.5c0,1.3,1.8,1,2.4,0.8c1.2-0.4,1.4-1.3,0.5-2.1
	C101.4,208.9,98.9,209.6,98.9,210.5z"/>
<path fill="none" stroke="#E1E1E1" stroke-miterlimit="10" d="M108.8-10.7c-1.9,4.5-4.8,8.5-8.5,11.6c-1,0.9-2.1,1.7-2.5,3
	c-0.3,0.7-0.3,1.6-0.8,2.2c-0.5,0.6-1.2,0.8-1.9,1.2c-2.1,1.2-0.6,4.1-1.7,6.2c-1,1.9-4.3,0.9-6.1,2.1c-1.8,1.2-3.6,3-5.8,2.9
	c-0.9,0-1.8-0.4-2.7-0.7c-1.7-0.5-4.3-1.5-5.1,0c-0.9,1.7-1.6,3.5-3.6,3.5s-3.7-1.1-5.6-1.6c-3.6-0.8-7.2,0.9-10.5,2.4
	c-0.7,0.3-1.4,0.7-1.8,1.3c-0.4,0.6-0.4,1.4-0.6,2.1c-0.6,3-3.7,4.8-4.8,7.7c-0.5,1.5-0.5,3.1-0.4,4.7c0.1,2.8,1.4,5.8,0.3,8.3
	c-1.4,3.1-5.2,4.4-7.8,6.5c-0.5,0.5-1.1,0.9-1.5,1.6c-0.6,1,0.4,2.6-0.4,3.5c-1.9,2.1-5.2,1.9-7.4,3.7c-3.2,2.6-6.3,5.2-9.5,7.9
	c-4.1,3.3-6.5,8.6-6.5,13.8c0,2.6,0.5,5.4-1.1,7.4c-0.4,0.5-0.9,0.9-1.3,1.5c-0.6,0.7-0.9,1.6-1.3,2.5c-1.1,2.7-2.8,5.1-4.4,7.6
	c-0.7,1.1-1.9,3.4-2.4,4.6c-1.9,4.1-3.4,8.4-5,12.5c-0.6,1.4-1.1,2.8-1.2,4.3c-0.1,2.3,1,4.5,2.5,6.3c0.5,0.6,1,1.2,1.3,1.9
	c0.4,0.9,0.3,1.9,0.6,2.8c0.4,1.2,1.5,2.9,2.7,3.3c3.5,1.2,7.4,1.3,10.9,0.2c3.3-1,6.2-3,9.3-4.5c4.2-2,8.7-3.1,13.4-3.2
	c6.1-0.2,12.4,1.3,18.4,0c5-1.1,9.3-4,13.5-6.9c3.1-2.1,6.1-4.2,9.2-6.2c7.6-5.2,15.1-10.3,22.4-15.9c3-2.3,6-4.7,9.3-6.5
	c4.4-2.3,9.3-3.5,14.2-4.7c12.4-3,24.8-6,37.2-8.9c0.8-0.2,1.7-0.4,2.6-0.3c0.8,0.1,1.5,0.4,2.3,0.6c4.5,1.2,8.9-1.9,13.2-3.9
	c5.3-2.5,11.4-3.3,17.2-2.4c2.8,0.4,5.4,1.3,8.1,2.1c7.2,2.2,14.5,4.5,21.7,6.7c2.4,0.7,4.9,1.6,6.3,3.6c2.3,3.2,7.8,1.3,11.7,1.1
	c2.1-0.1,4.3-0.3,6.3-1c1.6-0.5,3-1.4,4.4-2.2c4.1-2.1,8.7-3.3,13.3-3.5c3.7-0.2,6.6-3.2,10.3-3.1c2.2,0.1,3.3,3,5.5,3
	s4.3-1.4,5.2-3.3c0.7-1.4,1-3.1,2.5-3.7c0.5-0.2,1.1-0.2,1.7-0.2c2.6-0.4,3.1-3.3,2.9-5.9c-0.1-1.5,1.9-2.2,3.5-2.4s2.2-1.5,3.3-2.6
	c1.9-2,5.5-1.3,7-3.6c0.6-0.9,1.1-1.9,2.1-2.4c0.7-0.4,1.6-0.4,2.5-0.4c6.3,0,12.7-0.7,18.9-2c1.6-0.3,3.2-0.7,4.6-1.7
	c1.3-1,2.2-2.5,3-3.9c1.6-2.7,3.2-5.5,3.4-8.7c0.1-1.9-0.2-4,0.6-5.7c0.7-1.5,2.2-2.4,3-3.9c0.9-1.7,0.7-4,2.1-5.3
	c1.6-1.5,3.7-2.1,5.1-3.7c3.5-3.9,9.6-4.2,12.8-8.4"/>
<path fill="none" stroke="#E1E1E1" stroke-miterlimit="10" d="M148.3-10.1c0.8,0.1,0.6,1.3,0.1,1.9c-1.7,2.1-5.8,2.3-6.3,5
	c-0.3,1.2-0.3,2.3-1.4,2.8s-2.5,0.8-2.8,2c-0.5,1.4,1.1,2.7,2.4,3.3s3,1.6,2.9,3.1c0,0.8-0.6,1.4-0.9,2.2c-0.5,1.2-0.5,2.6-0.8,3.9
	c-0.6,2.7-2.5,5.1-5,6.2c-1.1,0.5-2.2,0.7-3.3,0.8c-1,0.1-2,0.1-3,0.2c-2.6,0.1-5.2,0.2-7.9,0.3c-2.3,0.1-4.7,0.2-6.9-0.5
	c-1.3-0.4-2.6-1-3.9-0.6c-0.7,0.2-1.2,0.6-1.8,1c-2,1.1-4.4,1.1-6.5,2c-2.1,0.9-1.2,3.7-2.9,5.3c-1.5,1.4-4.4-0.3-5.4,1.6
	c-0.2,0.5-0.4,1.1-0.7,1.5c-0.8,1.1-2.4,1.1-3.7,0.8c-1.3-0.3-2.6-0.8-4-0.6c-1.2,0.2-2.1,1.1-3.2,1.6c-3.2,1.5-6.9,0.2-10.5,0.4
	c-4.3,0.3-8.2,3-10.8,6.4s-4.1,7.6-5.5,11.7c-1.3,4-2.6,8.1-3.8,12.1c-0.6,2.1-0.2,4.9-1.9,6.2c-0.5,0.4-0.9-0.7-1.4-0.3
	c-0.8,0.7-0.3,2.1-1.3,2.3c-1,0.3-2-0.1-3-0.3c-3.2-0.8-6.7-0.4-9.8,0.9c-2.5,1.1-4.9,3.5-4.4,6.2c0.4,2.2,2.6,3.6,4.6,4.4
	c2.1,0.8,4.4,1.3,6,2.8c0.3,0.3,0.6,0.7,0.7,1.1c0.4,1.3-1,2.4-2.1,3.2c-8.6,6.1-11.9,17.1-14.2,27.4c-0.1,0.5-0.2,1.1,0,1.6
	c0.3,0.6,0.9,0.9,1.5,1.1c4.1,1.6,8.4,3.1,12.8,2.8c1.7-0.1,3.3-0.6,5-0.7c2.5-0.2,5.2,0.2,7.4-1c1.3-0.7,2.2-1.8,3.4-2.7
	c1.4-1.1,3.1-1.8,4.7-2.7c2.9-1.5,5.5-3.4,8.2-5.2c7.3-5.2,14.5-10.3,21.8-15.5c2.7-1.9,5.5-4,7-7c0.9-1.8,1.3-3.9,2.1-5.8
	c0.8-1.9,2.4-3.6,4.5-3.8c2-0.1,3.8,1.3,5.8,1.7c2.6,0.5,5.1-1,7.6-2c1.7-0.6,3.5-1,5.3-1.4c6.7-1.4,13.4-2.8,20.1-4.1
	c2.5-0.5,5-1,7.2-2.2c2.2-1.2,8.2-2.5,11.2-2.7c1.6-0.1,3,0.3,4.5,0.6c2,0.5,4.1,0.9,6.2,0.8c2.4-0.1,4.9-0.9,7.2-0.3
	c0.9,0.2,1.7,0.7,2.6,1c4,1.4,8.5,0.4,12.8,0.6c0.7,0,2.1-0.2,2.8,0c2.8,0.8,9.6-0.2,10.7,0.9c1.9,1.8,4.8,1.8,7.5,2
	c8.3,0.6,16.3,4.9,24.6,3.9c3.9-0.5,7.6-2.2,11.5-2.7c2.4-0.3,4.9-0.2,7.3-0.3c2-0.1,4-0.3,5.9-0.9c3.9-1.2,7.7-4.8,13-3.8
	c4.1,0.8,9.5-1.9,11.2-5.7c0.3-0.7,0.5-1.5,0.9-2.1c1.1-1.9,1.9-3.6,3.1-5.4c2.7-4.1,9.4-3.2,12.2-7.3c1.6-2.3,3-5.3,5.7-5.7
	c1.8-0.2,3.6,0.8,5.4,0.4c2-0.4,3.2-2.4,4.1-4.1c0.4-0.8,0.9-1.6,1.6-2.1c1.4-0.9,3.3-0.5,4.9-0.3c4.6,0.3,9.3-2.8,10.8-7.2
	c0.7-2,0.7-4.1,1.6-6c0.7-1.6,2-2.9,3.2-4.2c1.9-2,3.8-3.9,5.7-5.9c0.7-0.7,1.4-1.5,2.4-1.8c2.4-0.9,5.7,0.9,7.4-1
	c0.5-0.5,0.6-1.3,0.9-1.9c1.3-3,4.7-4.3,7.8-5.4"/>
<path fill="none" stroke="#E1E1E1" stroke-miterlimit="10" d="M-16.6,168.6c0.6,0.5,1.4,0,2.1-0.3c2.3-1.3,4.8-2.1,7.4-2.2
	c0.9,0,1.8,0,2.6-0.1c2-0.3,3.7-1.4,5.4-2.6c0.6-0.4,1.3-0.9,2-1c1.8-0.5,5.1-3.4,7.6-3.1c1,0.1,1.9,0.5,2.9,0.3
	c1-0.2,1.7-1,2.4-1.7c3.5-3.8,7-7.7,10.5-11.5c1.4-1.6,3.3-3.2,5.3-2.8c1.5,0.3,2.8,1.7,4.3,1.6c1.1-0.1,1.9-1.1,2.8-1.8
	c3.5-3.2,9.4-3.3,13.1-0.3c1.8,1.5,1,3.7,1.4,6c0.6,3.5,7.3,1.3,10.2-0.9c2.9-2.1,2-6.4,3.8-9.5c3.7-6.6,12.6-8,19-12
	c3.2-2,3.9-6.6,7.4-8.1c2-0.8,4.1-0.6,5.6-2.1c3.9-3.9,7.7-7.7,11.6-11.6c0.8-0.8,1.7-1.7,2.8-2.1c1-0.4,2.2-0.3,3.3-0.4
	c3.4-0.3,6.5-2.3,9.8-3.1c1.4-0.3,2.9-0.4,4.4-0.6c6.1-0.6,12.1-1.7,18.2-2.9c2.4-0.5,4.9-0.9,7.3-1.4c3.8-0.7,7.5-1.4,11.3-2.2
	c5.7-1.1,15.3-5,16.9-4.1c0.7,0.4,2.2,2.3,2.9,2.6c2.3,1,3.3,0.1,6.7,0.3c3.4,0.2,6.1,2.2,8.9,4.3c1.7,1.3,4.6-0.2,6.7,0.2
	c0.8,0.2,1.8,0.3,2.5-0.1c1.1-0.6,1.3-2.2,2.3-2.8c1.4-0.7,2.9,0.7,4.3,1.4c2.3,1,4.9,0,7.4-0.4c7.9-1.1,16,5.3,23.3,2.4
	c1.7-0.7,3.3-1.9,5.2-1.9c1.2,0,2.4,0.4,3.5,0.2c1.3-0.2,2.3-1.3,3.5-2c4.7-3.1,11.3-0.8,16.5-2.9c0.6-0.2,1.2-0.5,1.8-0.7
	c1.3-0.3,2.6-0.1,3.9-0.1c2.6-0.1,4.9-1.4,7.2-2.7c1.1-0.6,2.2-1.3,3.3-1.9c2.4-1.4,4.8-2.8,6.4-5.1c1.1-1.6,1.6-3.5,2.2-5.4
	c0.7-2.5,10.7-3.9,12.4-5.9c1.8-2.1,5.3-2.1,8.1-2.3c3.3-0.3,6.7,0.5,10,0.8c0.7,0.1,1.4,0.1,2.1-0.1c0.9-0.3,1.5-1.1,2.3-1.6
	c0.6-0.4,1.3-0.6,2-0.8c2-0.7,4-1.6,5.8-2.7c0.5-0.3,1-0.7,1.4-1.1c2-1.9,2.2-4.9,2.2-7.6s0-5.6,1.6-7.8c1.1-1.4,2.7-2.3,4.2-3.3
	c3.9-2.6,7.1-6.1,10.3-9.6"/>
<path fill="none" stroke="#E1E1E1" stroke-miterlimit="10" d="M-16.2,183.9c0.7-0.1,1.1-0.8,1.5-1.3c2-2.9,4.7-5.6,8.2-6.5
	c2.1-0.5,4.7-0.5,5.9-2.4c0.3-0.4,0.5-0.9,0.8-1.2c0.2-0.2,0.5-0.3,0.8-0.4c1.4-0.5,3.7-1.2,5.1-1.7c5-1.8,10.1-3.2,15.3-4.2
	c4.4-0.9,9.1-1.6,12.8-4.1c2-1.4,3.8-3.3,6.2-3.9c3.9-1,7.7,2,11.7,2.3c3.2,0.2,6.2-1.4,9.1-3c7.9-4.5,15.6-9.3,23.1-14.4
	c10.8-7.4,15.9-22.4,28.2-26.7c2.9-1,4.1-4,6.9-5.3c1.8-0.9,4-0.1,5.8-0.9c1.4-0.6,2.3-2,3.6-2.8c0.9-0.5,1.9-0.6,2.9-0.7
	c10.4-1.1,20.8-2.2,31.3-3.3c8.9-0.9,17.8-1.9,26.7-2.8c3.1-0.3,6.2-0.7,9.3-0.6c2.2,0.1,4.5,0.4,6.7,0.6c8.6,1.1,17.2,2.2,25.8,3.3
	c0.9,0.1,1.4-1.2,2.3-1.4c4.1-0.7,8.4-0.1,12.5,0.4c1.3,0.2,2.7,0.4,4,0.7c0.9,0.3,1.7,0.6,2.6,0.7c2.9,0.5,5.7-0.9,8.3-2.2
	c3.2-1.6,6.5-3.1,9.9-4.5c1.2-0.5,2.6-1,3.7-0.3c0.7,0.4,1.1,1.1,1.7,1.7c1.5,1.5,3.9,1.5,5.9,0.7c2-0.7,3.7-2,5.5-2.9
	c2.5-1.2,5.5-1.9,7-4.2c0.3-0.5,0.5-1,0.9-1.4c0.5-0.5,1.2-0.8,1.9-1.1c5-2.2,5.5-9.9,10.5-11.9c4.6-1.9,11.6-4.1,17.1-6.1
	c3.3-1.2,7.3-0.1,10.9,0c1.6,0,3.3,0,4.5-1.1c1-0.9,1.3-2.5,2.5-3.3c0.8-0.6,1.9-0.7,2.8-1c1.8-0.8,3.1-2.8,5.1-3.1
	c0.7-0.1,1.4,0.1,2.1,0c2.1-0.3,3.2-2.7,3.5-4.8c0.2-2.1,0-4.4,1.1-6.3c0.3-0.5,0.7-1,1.3-1.3c0.4-0.2,0.7-0.2,1.1-0.3
	c2.1-0.3,4.1-0.7,6.2-1"/>
<path fill="none" stroke="#E1E1E1" stroke-miterlimit="10" d="M-16.8,196.3c1.2-0.3,2.2-0.9,3.1-1.7c0.5-0.5,1-1.1,1.7-1.4
	c0.4-0.2,0.9-0.2,1.3-0.3c1.8-0.3,3.6-0.9,5.1-2c0.6-0.5,1.2-1,1.7-1.5c2.2-2,6-2.9,8.5-4.5c1.6-1,2.5-3,4.2-3.9
	c1.7-0.9,3.9-1,5.4,0.3c0.5,0.4,0.8,0.9,1.4,1.2c0.7,0.4,1.5,0.2,2.3,0.1c4.4-0.9,8.7-2.1,12.9-3.8c0.8-0.3,1.7-0.7,2.3-1.3
	c0.5-0.5,0.9-1.2,1.4-1.7c1.7-1.6,4.7-1,6.3-2.7c0.9-0.9,1.2-2.4,2.2-3.3c0.6-0.5,1.4-0.7,2.2-0.9c10.5-2.6,20.6-6.4,30.6-10.3
	c1.7-0.6,3.4-1.3,4.9-2.3c0.5-0.4,1-0.8,1.6-1c0.5-0.2,1.1-0.2,1.7-0.2c3.6-0.2,8-2.7,10.9-0.5c0.3,0.2,0,0.8,0.2,1.1
	c2.4,2.6,8.6-2.1,10.6,0.8c0.4,0.5,0.5,0.9,1,1.2c2.6,1.5,2.5,5.8,4.1,8.3c0.5,0.9,1.1,1.7,1.2,2.7c0.2,1.1,0,2.2,0.1,3.4
	s0.8,2.3,1.9,2.5c0.5,0.1,1.1-0.1,1.6-0.1c1,0.1,1.7,0.9,2.5,1.4c1.9,1.2,4.6,0.5,5.8-1.3c0.5-0.7,0.7-1.6,1.1-2.4
	c0.8-1.5,2.1-2.8,2.2-4.5c0-2.8-3.4-3.9-5.4-5.9c-1.8-1.8-2.6-4.6-4.8-5.8c-1.6-0.9-3.5-0.8-5.2-1.3c-1.7-0.6-3.5-2.8-2.2-4.1
	c1.5-1.4,3-2.6,4.2-4.2c0.6-0.9,1.3-1.7,1.9-2.6c1.8-2.4,3.7-5,4.2-8c0.3-2-0.1-4,0-5.9c0.2-2,1.1-4.1,3-4.8
	c0.6-0.2,1.3-0.2,1.9-0.6c1-0.7,1.1-2.1,1.9-3c1.2-1.4,3.5-1.3,4.9-2.4c0.6-0.5,1-1.1,1.6-1.5c0.6-0.5,1.4-0.6,2.2-0.8
	c4.9-1,9.9-1.5,15-1.6c3.4,0,6.9,0.1,10.2-0.8c1.7-0.5,3.3-1.2,5.1-1.6c5.4-1.3,10.9,0.6,16.3,1.8c1.2,0.3,2.5,0.5,3.8,0.6
	c3,0.2,5.9-0.7,8.8-1.4c6.5-1.6,13.1-2.8,19.7-3.4c4.9-0.5,9.8,2.1,14.6,1.1c2.4-0.5,5.1-1.4,7.2-0.2c1.1,0.6,1.9,1.8,3.1,2
	c0.9,0.1,1.7-0.3,2.5-0.4c3.1-0.6,6,1.9,9.1,2.4c4.1,0.6,7.8-2.1,11.6-3.8c1.4-0.6,2.9-1.1,4.3-0.8c0.9,0.2,1.8,0.7,2.7,1
	c3.3,1,6.8-1.2,9.6-3.2c1.2-0.9,2.3-1.7,3.5-2.6c2.1-1.5,4.1-3,6.5-4c3.1-1.2,6.8-1.5,9-4c0.5-0.6,1-1.4,1.8-1.7
	c0.9-0.3,1.9,0.1,2.8-0.4c1.3-0.7,1-2.7,1.9-3.9c0.5-0.7,1.4-1,2.2-1.3c2.6-1.1,3.7-4.3,6.1-5.8c4.2-2.7,10-1.3,14.5-3.4
	c0.6-0.3,1.1-0.6,1.5-1c0.5-0.5,0.7-1.2,1.2-1.6c0.6-0.5,1.5-0.6,2.3-0.7c4.7-0.8,7.6-3.9,11.9-6c2-0.9,3.4-3.3,5.6-3.4
	c2.5-0.1,4.5,2,7,1.6c1.3-0.2,2.7-0.5,3.8-1.2c2.9-2,3.4-6.5,6.5-8.2"/>
<path fill="none" stroke="#E1E1E1" stroke-miterlimit="10" d="M364.6,72.7c-1.6,1.2-3.4,2.2-5.2,3c-4.7,2.1-9.9,3.4-14.4,6.1
	c-3.9,2.3-7.2,5.5-11.4,6.9c-1.2,0.4-2.4,0.6-3.4,1.4c-0.9,0.7-1.5,1.6-2.2,2.4c-2.4,2.6-6.2,3.1-9.6,4
	c-11.4,3.2-20.1,12.2-29.5,19.5c-5.9,4.6-12.8,8.7-20.2,8.4c-2.4-0.1-4.8-0.6-7.1,0c-0.9,0.3-1.8,0.7-2.6,1.1
	c-7.1,2.7-14.5-2.9-22-3.3c-4.8-0.3-9.5,1.6-14,3.4c-4.6,1.9-9.6,2.5-13.9,5.1c-5.8,3.5-13.3-3.2-19.8-1.3c-1.8,0.5-3.4,1.7-5.2,2.3
	c-2.8,1-5.8,0.6-8.8,0.1c-6.1-0.9-12.1-1.7-18.2-2.6c-3.8-0.5-7.7-1.1-11.4-0.2c-9.3,2.1-14.9,13.5-11.6,22.4
	c2.1,5.5,6.8,9.8,8.4,15.4c1.6,5.9-0.5,13.5-6.1,16.1c-1.8,0.8-3.6,1.7-5.2,2.7c-4.6,2.8-9.4,5.4-14.3,7.6c-6,2.7-13.5,8.6-18.9,4.9
	c-1.7-1.1-3.3-2-5.3-2.4s-1.9-2.3-2.6-4.2c-0.6-1.6-4,1.2-5.1-0.1c-1.5-1.8,3.9-3.9,3.2-6.1c-0.3-0.8-2,0.3-2.7-0.3
	c-1.3-1.3,1.2-4.1,0-5.5c-0.9-1-2.7,1.3-4,0.9c-1.4-0.5-0.6-3.8-2.1-4c-1.6-0.3-3.3,3.7-4.3,2.4c-1-1.3-1.8-2.3-3.2-1.5
	c-1.4,0.8-2.8,2.3-4.3,1.8c-0.9-0.3-1.4-1.2-2.3-1.5c-0.7-0.2-1.5,0.1-2.2,0.4c-7.4,3.4-14.2,7.9-20.4,13.2
	c-1.9,1.7-3.9,3.5-6.4,3.9s-3.3-2.4-5.5-3.8c-5-3.1-10.4,5.6-15.6,8.4c-3.5,1.9-7.6,3.8-11.2,2.1c-1.9-0.9-3.9-2.4-5.8-1.6
	c-0.5,0.2-1,0.6-1.5,0.8c-1.1,0.4-2.5,0.1-3.6,0.7c-1,0.5-1.4,1.7-2.3,2.4c-1.3,1.2-3.3,1.2-4.5,2.4c-0.4,0.4-0.7,0.8-1.2,1
	s-1.2,0-1.2-0.5"/>
<path fill="none" stroke="#E1E1E1" stroke-miterlimit="10" d="M-7,144.9c-0.2,0.2-0.2,0.4-0.3,0.6c-0.2,1.2,0.2,2.5,1,3.5
	c0.8,1,1.9,1.7,3,2.3c0.4,0.2,0.9,0.4,1.3,0.5c1,0.1,1.9-0.5,2.7-1.1c0.4-0.3,0.9-0.7,1-1.3c0.1-0.5-0.2-0.9-0.5-1.3
	c-0.9-1.3-2-2.4-3.3-3.2c-1.4-0.7-3.1-0.9-4.5-0.3C-6.7,144.8-6.9,144.8-7,144.9z"/>
<path fill="none" stroke="#E1E1E1" stroke-miterlimit="10" d="M-15.7,122.2c1.2-3.3,4.1-5.7,6.1-8.6c3.5-5.2,4-11.9,7.6-16.9
	c1.1-1.6,2.5-3,3.3-4.8c0.6-1.5,0.7-3.2,0.9-4.8c0.6-5.7,1.9-11.3,4-16.6c1.1-2.8,2.4-5.4,3.9-8c2-3.3,4.5-6.3,6.9-9.2
	c1.8-2.1,3.5-4.3,5.3-6.4c0.9-1,1.7-2.1,2.7-3c0.8-0.8,1.7-1.4,2.5-2.2c2.1-2.3,3.1-5.5,5.2-7.8c0.3-0.3,0.7-0.7,0.9-1.1
	c1-1.8-0.9-3.9-2.7-4.9c-1.8-1.1-4-2.4-3.8-4.5c0.1-1.1,0.9-2.4,0.2-3.3c-0.3-0.4-0.8-0.6-1.3-0.9C24.8,18,27,15.7,26.2,14
	c-1.8-3.5-6-4.9-7.2-8.7c-1.7-5.1-2.8-10.5-3.4-15.8"/>
<path fill="none" stroke="#E1E1E1" stroke-miterlimit="10" d="M-2-11.3c1.6,3.7,1.5,7.8,2,11.8C0.2,2.6,0.6,4.8,1.1,7
	c0.8,3.2,2,6.4,4.3,8.8c1.7,1.8,2.4,4.2,4,6.1c1.5,1.7,5.4-0.5,6.6,1.4c1.7,2.7-3.6,7.3-1.3,9.5c0.8,0.8,3.2,0,2.9,1.1
	c-0.7,2.7-3.3,4.3-5.4,6.1c-0.9,0.8-2.1,1.3-2.9,2.1c-0.8,0.8-1.2,1.8-1.6,2.8c-1.4,2.8-3.5,5.1-5.4,7.5C-5.2,62-10,73.7-11.3,85.8
	c-0.2,1.6-0.3,3.2-0.7,4.8c-0.8,2.9-2.8,5.4-5.4,6.8"/>
<path fill="none" stroke="#E1E1E1" stroke-miterlimit="10" d="M169.3-9.8c0.8,2.1-1.4,4.2-3.5,4.7s-4.5,0.2-6.5,1.1s-3.6,3.7-2,5.2
	c0.8,0.8,2.2,1,2.6,2.1c0.3,0.6,0.1,1.4-0.1,2.1c-0.5,1.9-1,3.7-1.5,5.6c-0.2,0.6-0.4,1.3-0.9,1.6c-0.8,0.5-1.9,0-2.7,0.5
	c-0.8,0.5-0.8,1.5-1.1,2.4c-1,3.2-5.3,3.7-8.1,5.5c-2.9,1.8-4.4,5-6.9,7.3c-2.7,2.5-6.3,3.7-9.8,4.9c-9.5,3.2-19,6.3-28.5,9.5
	c-3.1,1-6.3,2.1-9.6,2c-2.9-0.1-5.7-1.1-8.6-0.8c-3.6,0.4-6.7,2.7-8.9,5.5c-2.2,2.9-3.6,6.2-4.9,9.6c-0.6,1.5-1.2,3.4-0.3,4.7
	c1.5,2.2,4.9,0.8,7.2-0.5c7.7-4.6,16.6-7.2,25.6-7.5c2.9-0.1,5.8,0.1,8.5,1c4.8,1.6,9,5.6,14,5.3c4.5-0.2,8.5-3.9,13-3.3
	c2.1,0.3,3.9,1.4,6,1.7c4.2,0.6,8.1-2.2,12.3-3c8.4-1.7,16.5,4.8,25,4.1c1.9-0.2,3.9-0.6,5.6,0.2c0.7,0.3,1.3,0.9,2,1.2
	c2.2,1,4.7-0.4,7.1-0.8c1.8-0.3,3.6-0.1,5.4,0.1c2.2,0.2,4.3,0.5,6.5,0.8c4.4,0.5,8.7,1.2,13,2.3c4.7,1.2,9.5,3.1,14.4,2.8
	c3.9-0.3,7.6-1.9,11.2-3.6c3.4-1.6,7.1,0.3,10.9,0.5c5.7,0.3,11-2.2,16.7-3c2.8-0.4,5.7-0.3,8.3-1.5c2.6-1.2,2.1-4.3,3.4-6.8
	c1.2-2.3,4.7-2.3,5.6-4.7c0.4-1.1,0.5-2.3,1.2-3.2c0.9-1.3,2.6-1.8,4.1-2.5c4-1.9,6.7-5.6,10-8.5c2.3-2,5-3.6,7.8-4.8
	c5.3-2.1,11.5-2.8,15.4-7c3.2-3.4,4-8.6,7.3-11.9c2.1-2.1,5.1-3.3,7.1-5.5c1.1-1.2,1.8-2.6,3-3.7c1.8-1.6,4.4-2.1,6.9-2.6
	c5.3-1,10.9-2.3,15.1-5.7"/>
<path fill="none" stroke="#E1E1E1" stroke-miterlimit="10" d="M196.9-9.9c-1.4,0.8-3,1.7-3.6,3.3c-0.6,1.5,1.9,2,2,3.6
	C195.5,1.3,174.5,7.2,166,15c-8.4,7.7-10,21.9-3.4,31.3c2.8,3.9,6.6,7,10.6,9.6c0.6,0.4,1.3,0.9,2.1,1c0.9,0.1,1.7-0.1,2.5-0.4
	c5.5-1.8,10.9-3.6,16.4-5.5c4.2-1.4,8.4-2.8,12.4-4.7c3.7-1.7,7.2-3.9,10.4-6.4c0.9-0.7,1.7-1.4,2.2-2.4c0.6-1,0.6-2.3,1.1-3.4
	c1.6-4.3,7.2-5.2,11.8-5.5c1.4-0.1,3.1,0,3.8,1.3c0.4,0.8,0.3,1.7,0.8,2.4c0.7,0.8,1.9,0.5,3,0.7c1.8,0.3,3,2,4.6,3
	c5.3,3.1,13.7-4.9,18-0.4c2.9,3.1,3.9,7.5,5.9,11.2c1.2,2.3,3.4,5.1,5.9,4.3c2.1-0.7,2.6-3.4,3.3-5.5c2.1-7,8.8-11.3,15.1-15.1
	c5.6-3.4,11.3-6.8,17.6-8.3c2.2-0.5,4.6-0.8,6.3-2.3c4.7-3.8,1.5-12.1,4.9-17.1c3.2-4.8,10.2-4.3,15.9-5.1c5.1-0.7,9.9-3,13.8-6.4"
	/>
<path fill="none" stroke="#E1E1E1" stroke-miterlimit="10" d="M262.6-12.1c0.8,0.7-0.5,1.7-0.9,2.7c-0.4,1,0.2,2.2,1.2,2.7
	s2,0.6,3.1,0.8c4.5,0.9,8.4,3.8,11.2,7.5c2.8,3.6,4.6,7.9,6.3,12.2c0.4,1,0.8,2,1.7,2.7c0.9,0.7,2,0.8,3.1,0.9
	c1.6,0.1,3.1,0.3,4.7,0.1c4.7-0.5,8.7-3.4,12.5-6.3c0.7-0.5,1.4-1,1.7-1.8c0.7-1.8-1-3.5-2.4-4.9c-3.5-3.8-4.8-9.8-2.4-14.3"/>
<path fill="none" stroke="#E1E1E1" stroke-miterlimit="10" d="M188.7,28.9c1.4,0.5,2.9,1,4.4,0.7c2.9-0.7,3.8-4.2,5.8-6.4
	c1-1,2.2-1.8,3-3c0.4-0.7,0.7-1.4,1.1-2.2c0.8-1.8,2.2-3.3,3-5.1c0.9-1.8,1.7-4.4,0.2-5.7c-1.7-1.4-4.3,0.2-6.2,1.2
	c-2.7,1.4-5.4,2.9-7.7,4.9c-2.3,2-4.2,4.6-4.7,7.7c-0.4,2.4,0,4.8,0.6,7.1c0,0.2,0.1,0.4,0.3,0.5C188.5,28.9,188.6,28.9,188.7,28.9z
	"/>
<path fill="none" stroke="#D6D6D6" stroke-miterlimit="10" d="M11.1,260c0.9-2,2.2-3.9,3.8-5.4c0.9-0.8,1.8-1.4,2.6-2.3
	c0.8-0.9,1.3-2,1.2-3.1c-0.1-0.9-0.4-1.4,0.1-2.2c0.3-0.5,0.8-1.3,1-1.8c0.3-0.7-0.3-1.5-0.8-2c-0.5-0.6-1-1.5-0.5-2.1
	c0.2-0.3,0.6-0.4,0.9-0.5c1.1-0.4,2.7-1,3.3-1.7"/>
<path fill="#EAEAEA" stroke="#D6D6D6" stroke-miterlimit="10" d="M209.5,243.2c-1,0.4-1.8,1.2-2.6,1.9c-3.9,3.5-8.9,5.9-14.1,6.8
	c-1.3,0.2-2.7,0.3-3.6-0.7c-0.2-0.3-0.4-0.6-0.7-0.9c-0.5-0.5-1.3-0.6-2-0.4c-0.9,0.2-1.7,0.9-2.4,1.5c-3.5,3.1-6.7,6.4-9.7,9.9
	c-0.7,0.8-1.4,1.7-2.3,2.2c-0.7,0.4-1.5,0.6-2.2,1.1c-1.8,1.1-2.4,3.4-3.7,5c-0.7,0.8-1.7,1.4-2.4,2.3c-0.7,0.8-1.2,2-0.8,3
	c0.3,0.8,1.2,1.3,1.5,2.2c0.2,0.6,0.1,1.3,0.5,1.7c0.4,0.3,1,0.3,1.5,0.2c4.1-0.8,8.1-1.6,12.2-2.4c1.6-0.3,3.2-0.6,4.6-1.4
	c2.4-1.3,4.1-3.9,6.8-4.5c2-0.4,4,0.4,5.9,0.1c1.8-0.3,3.4-1.5,5.2-1.8c0.8-0.1,1.6,0,2.3-0.1c1.4-0.1,2.7-0.7,4-1.3
	c1.9-0.9,3.9-1.8,5.4-3.3c1.5-1.5,2.3-3.9,1.5-5.8c-0.2-0.4-0.4-0.9-0.3-1.4c0.1-0.4,0.3-0.6,0.6-0.9c2.7-2.6,6.4-4.2,10.1-4.2
	c0.3,0,0.6,0,0.8-0.2c0.2-0.2,0.2-0.4,0.2-0.7c0.2-2,0.3-4-0.8-5.9c-0.7-1.3-2.8,0.3-4.1-0.2c-1.4-0.5-1.9-2.3-3.2-2.8
	c-0.7-0.3-1.4-0.2-2.1-0.1c-1.3,0.2-2.7,0.3-4,0.5C210.9,242.8,210.2,242.9,209.5,243.2z"/>
<path fill="#EAEAEA" stroke="#D6D6D6" stroke-miterlimit="10" d="M275.1,282.6c-1.5,0.8-2.9,1.9-3.7,3.3c-0.8,1.5-0.9,3.4,0,4.8
	c0.2,0.2,0.3,0.4,0.6,0.5c0.2,0.1,0.4,0.1,0.7,0.2c1.7,0.2,3.3-0.7,4.8-1.4c1.5-0.7,3.3-0.3,4.9-0.8c2.2-0.7,3.1-3.4,5.2-4.3
	c0.4-0.2,0.9-0.4,1.2-0.8c0.2-0.3,0.2-0.6,0.3-0.9c0.1-0.6,0.2-1.3-0.1-1.9c-0.5-1.1-1.9-1.4-3.1-1.2c-1.2,0.2-2.2,0.8-3.4,1.1
	c-1.3,0.3-2.7,0-4,0.2C277.3,281.6,276.1,282,275.1,282.6z"/>
<path fill="#EAEAEA" stroke="#D6D6D6" stroke-miterlimit="10" d="M237.5,319.9c-0.1-0.5-0.3-1-0.7-1.3c-0.2-0.1-0.4-0.2-0.7-0.3
	c-0.9-0.2-1.8,0-2.5,0.4c-0.5,0.3-0.8,0.7-1.2,1.1c-0.7,0.8-1.4,1.6-2.1,2.4c-0.4,0.4-0.7,0.8-0.9,1.3c-0.2,0.5-0.2,1.1,0.2,1.5
	c0.1,0.1,0.3,0.2,0.4,0.3c1.1,0.8,2.4,1.1,3.7,0.9s3.2-0.5,3.4-1.8c0.2-0.9,0.2-1.8,0.4-2.7C237.6,321.4,237.6,320.6,237.5,319.9z"
	/>
<path fill="#EAEAEA" stroke="#D6D6D6" stroke-miterlimit="10" d="M151.1,308c-2.5,0.1-4.9,1.3-6.3,3.3c-2,2.8-2.4,6.9-5.3,8.8
	c-1.3,0.9-3,1.1-4.3,2c-0.2,0.1-0.4,0.3-0.5,0.5c-0.4,0.8,0.6,1.6,1.5,1.9c1.8,0.5,3.7,0.1,5.3-0.8c1.6-0.9,3-2.1,4.2-3.5
	c0.7-0.8,1.5-1.6,2.6-1.4c0.3,0,0.5,0.2,0.8,0.3c1.1,0.6,2.4,1.2,3.6,0.7c1.2-0.5,1.7-1.9,2.4-2.9c0.5-0.6,1.1-1.2,1.3-1.9
	c0.3-0.9,0.1-2-0.3-2.9c-0.5-1.2-1.3-2.3-2.4-3.2c-0.4-0.3-0.8-0.6-1.3-0.8C152,308,151.6,308,151.1,308z"/>
<path fill="#EAEAEA" stroke="#D6D6D6" stroke-miterlimit="10" d="M313.2,308.7c-1.1-3.5-2.2-6.9-3.3-10.4c-0.1-0.4-0.2-0.8-0.5-1.1
	c-0.3-0.4-0.7-0.6-1.1-0.9c-0.3-0.3-0.5-0.8-0.7-1.2c-0.5-1.2-1.3-2.2-2.1-3.1c-0.9-1.1-2-2.3-3.4-2.2c-0.7,0-1.4,0.4-2,0.9
	c-3.4,2.5-5.4,6.6-8,9.9c-1.3,1.7-2.9,3.2-3.8,5.1c-0.9,1.7-1.1,3.7-1.8,5.5c-1.4,4.1-4.6,7.7-5.2,12c-0.3,2.1,0.1,4.3,0,6.5
	c-0.1,4.4-2.1,8.6-3.7,12.8c-0.6,1.6-1.1,3.6,0.1,4.9c0.3,0.3,0.6,0.5,1,0.8c1.2,1.1,1.7,2.8,2.3,4.3c0.2,0.5,0.5,1,1,1.4
	c0.9,0.6,2.1,0.5,3.1,0.2c2.8-0.6,5.6-1.6,7.8-3.5c2.8-2.3,4.4-5.6,5.9-8.9c0.8-1.8,1.7-3.5,2.9-5c0.6-0.7,1.3-1.4,1.9-2.1
	c1.3-1.5,2.4-3.4,4-4.5c3-2,7.3-1.4,9.7-4c0.2-0.2,0.4-0.5,0.5-0.8c0.1-0.4-0.1-0.8-0.3-1.2c-0.5-1.4-0.4-2.8-0.9-4.2
	c-0.4-1.4-1.8-1.8-3.1-2.4c-1.4-0.6,0-3,0.2-4.6C314.1,311.3,313.7,310,313.2,308.7z"/>
<path fill="#EAEAEA" stroke="#D6D6D6" stroke-miterlimit="10" d="M74.5,362.7c1,0.1,2-0.1,2.8-0.6c0.1-0.1,0.3-0.2,0.4-0.3
	c1.2-0.8,2.3-1.7,3.5-2.5c0.2-0.1,0.4-0.3,0.5-0.5c0.2-0.5-0.3-1.1-0.6-1.5c-0.8-1.3-0.6-3-1.3-4.3c-0.7-1.1-1.5-2.1-2.2-3.2
	c-0.6-0.9-2.2-0.3-3,0.4c-0.8,0.7-1.3,1.7-1.7,2.8s-0.7,2.1-1.4,3c-0.6,0.9-1.6,1.8-1.3,2.8c0.3,1,1.5,1.3,2.2,2.1
	c0.4,0.5,0.6,1.2,1.1,1.5C73.7,362.5,74.1,362.6,74.5,362.7z"/>
<path fill="#EAEAEA" stroke="#D6D6D6" stroke-miterlimit="10" d="M13.1,266.2c-0.2,0.4-1,2.2-1.3,2.6c-2.5,2.6-4.7,4.2-5.1,7.8
	c-0.1,0.9,0,1.9-0.4,2.8c-0.5,1.3-1.3,2.3-2.6,2.8c-2.2,1-5.6,2.9-7.4,1.4c-1.4-1.2-0.5-3.6-0.8-5.4c-0.1-0.6-0.2-1.2,0-1.7
	c0.2-0.6,0.8-1.1,1.3-1.5c4-3.3,7-6.9,10.3-11c1.3-1.6,3.3-5.2,4.8-3.8c1.1,0.9,1.4,3,1.6,4.4C13.7,265.1,13.3,265.7,13.1,266.2z"/>
<path fill="none" stroke="#4E9BD7" stroke-miterlimit="10" d="M82.3,224.6c-2.5,0.5-5.2,1.1-7.1,2.8c-0.9,0.8-1.6,1.9-2.5,2.7
	c-2.2,2-5.3,2.6-8.1,3.5c-5,1.5-9.7,3.9-14.6,5.9c-0.2,0.1-0.5,0.2-0.7,0.1c-0.7-0.2-0.4-1.2-0.7-1.9c-0.4-1.1-2-0.9-3.1-0.5
	c-4.3,1.5-8.6,3-12.9,4.5c-0.4,0.1-0.8,0.3-1.2,0.3c-1.5-0.1-2.4-2.2-3.9-2.2c-0.7,0-1.2,0.5-1.9,0.5c-0.4,0-0.8-0.2-1.1-0.4
	c-2.2-1.2-4.4-2.7-6.9-2.6c-1.5,0-2.9,0.6-4.3,1.2c-2.2,1-3.3,2.3-5.7,1.9c-1.5-0.2-4.4,0.1-5.6,0.8c-0.5,0.3-0.8,0.6-1.3,0.8
	c-1,0.5-2.2,0.2-3.3,0.2c-2.2-0.1-4.3,0.6-6.5,0.6c-3,0.1-5.9-1-8.9-0.7"/>
<path fill="none" stroke="#D6D6D6" stroke-miterlimit="10" d="M365.2,84.3c-1.5,0.7-2.9,1.5-4,2.7c-0.4,0.5-0.8,1-1.3,1.5
	c-2.7,2.6-7.4,2.4-9.8,5.3c-1.6,1.9-1.9,5-4,6.1c-0.7,0.4-1.6,0.5-2.3,0.8c-2.2,0.9-3.4,3.6-5.7,4.1c-0.9,0.2-2,0.1-2.7,0.7
	c-0.5,0.5-0.5,1.2-0.9,1.8c-0.7,1.2-2.2,1.5-3.4,2.2c-1.5,0.8-2.5,2.3-3.8,3.3c-4.3,3.4-11.3,2.5-15,6.6c-0.6,0.6-1,1.3-1.6,1.8
	c-1.4,1.2-3.5,1.4-5.1,0.6c-0.5-0.2-0.9-0.5-1.4-0.6c-0.6-0.1-1.3,0.1-1.9,0.3c-1.7,0.6-3.4,1.2-5.1,1.8c-1,0.4-1.8,1.1-2.6,1.8
	c-4.4,3.9-10.5,7-14.4,11.3c-3.2,3.6-6.7,7.1-10.7,9.9c-6.3,4.3-13.8,6.4-21.2,8.2c-1.7,0.4-3.6,0.8-5.2,1.6"/>
<path fill="#7BBCEB" stroke="#4E9BD7" stroke-miterlimit="10" d="M207.4,188.7c1.5-0.1,2.8-0.6,4.3-1c1.2-0.3,2.4-0.3,3.7-0.5
	c3.4-0.4,6.7-1.7,9.8-3c0.4-0.2,0.8-0.3,1.2-0.6c0.4-0.3,0.6-0.8,0.9-1.2c1-1.2,2.5-1.6,4-2c1.3-0.3,2.5-0.7,3.8-1
	c0.9-0.2,1.9-0.6,2.1-1.5c0.4-1.7-2.7-2.6-2.6-4.4c0.1-1,1.1-1.6,2-1.9s2-0.6,2.5-1.5c0.3-0.5,0.3-1.1,0.5-1.6
	c0.4-1.6,1.7-2.7,2.7-3.9s2.1-2.7,1.8-4.3c-0.2-0.9-0.7-1.7-1-2.6c-0.2-0.9-0.1-2.1-0.9-2.7c-0.5-0.4-1.2-0.4-1.7-0.6
	c-2-0.6-2.7-3.2-4.3-4.5c-1.1-0.9-2.6-1.2-4-1.4c-1.1-0.2-2.2-0.4-3.3-0.5c-0.8-0.1-1.6-0.3-2.4,0c-0.8,0.3-1.4,0.9-2.2,1.3
	c-1.2,0.6-2.7,0.6-4,0.6c-2.1,0-4.2,0.2-6.2,0.5c-1.2,0.2-2.4,0.5-3.3,1.2c-0.7,0.5-1.2,1.3-1.8,1.8c-1.3,1.1-3,1.3-4.6,1.6
	c-1.3,0.2-2.6,0.4-3.9,0.6c-1.4,0.2-3.2,0.2-3.7-1.1c-0.2-0.4-0.1-1-0.5-1.3c-0.3-0.3-0.7-0.3-1.1-0.3c-1.6,0-4.4,1.3-6,2
	c-3.4,1.4-5.4,1.4-8.9,2.4c-0.7,0.2-1.4,0.4-1.9,0.8c-1.6,1.1-1.7,3.4-1.9,5.3c-0.3,2.7-0.9,5.3-2.4,7.6s-3.8,4-6.5,4.3
	c-1.1,0.1-2.2,0.1-3.1,0.6c-1.5,0.9-2,2.8-2.8,4.4c-1.9,3.7-5.3,1.5-6.8,3.7c-0.9,1.3,3.3,0.7,3.8,2.3c0.6,1.8-3.5,2.8-2.9,7
	c0.1,0.8,0.1,1.7-0.2,2.5c-0.3,0.8-1.2,2-1.8,1.5c-1.3-1.1-0.9-3.4-1.9-4.8c-1-1.4-2.7-2.4-4.4-2.2c-0.9,0.1-1.7,0.6-2.4,1.1
	c-5.9,3.5-11.8,6.7-18,9.8c-1.5,0.7-3,1.5-4.6,1.9c-1.7,0.5-3.4,0.6-5.1,1.2c-1.6,0.6-3.2,1.7-3.8,3.4c-0.2,0.7,0.1,2-0.1,2.7
	c-0.3,0.8-2.8,2-3.4,2.6c-2.1,2.2-0.3,1.9-2.3,4.1c-1.2,1.3-5,3.7-6.7,4.1c-1.7,0.4-3.5-0.3-3.6-2c-0.1-2,2.6-2.9,3.4-4.7
	c0.3-0.6-0.7-1.1-1.3-0.9c-0.6,0.2-1,0.8-1.5,1.2c-1.8,2.1-4.5,3.1-7.3,3.3c-1.1,0.1-1.6,1.5-2.3,2.4c-1.2,1.6-4.1,1.1-5.6,2.4
	c-0.4,0.3-0.7,0.7-0.8,1.2c-0.1,0.5,0.1,1,0.6,1.2c0.4,0.1,0.8-0.1,1.2-0.3c1.5-0.7,3.3-1.1,5-1.1c0.3,0,0.7,0,1,0.3
	c0.2,0.2,0.3,0.4,0.4,0.6c0.5,0.8,1.7,0.8,2.5,0.6s1.7-0.8,2.6-1.1c1.4-0.4,3-0.1,4.4-0.3c2.1-0.4,3.8-2,5.9-2.5
	c1.6-0.3,3.3,0,4.6-1c0.6-0.5,1-1.2,1.6-1.7c0.7-0.6,1.6-0.8,2.5-0.9c2.3-0.5,4.7-0.9,7-1.4c0.7-0.1,1.6-0.4,1.9-1
	c0.1-0.3,0.2-0.6,0.3-0.8c0.4-0.8,1.3-1.1,2.2-1.3c1.9-0.4,3.8-1,5.3-2.3c1.4-1.2,2.6-2.4,4.2-3.2c4.7-2.2,8.8-3.4,13.3-4.9
	c1.1-0.4,2.2-0.7,3.3-0.8c0.8,0,1.7,0.1,2.5,0c1.8-0.2,3.2-1.5,4.9-1.9c2-0.5,4.2,0.1,6.2-0.5c2.4-0.7,5.5-4,5.3-5.3
	c-0.2-1.4-3.8,0.7-4.3-0.7c-0.7-2.3,3.6-3.3,5.5-4.8c0.8-0.6,2-1.1,2.5-0.4c0.3,0.3,0.3,0.8,0.3,1.3c0.2,2.7,3.1,4.8,5.8,4.3
	c2.6-0.5,4.2-3,5.3-5.4c0.1-0.3,0.2-0.5,0.4-0.7c0.3-0.3,0.6-0.4,0.9-0.5c4.6-1.7,13.5-3.8,14.4-3c1.2,1.1-1.5,3.8-0.1,4.8
	C203.1,190.5,205.4,188.8,207.4,188.7z"/>
<path fill="#FFFFFF" stroke="#D6D6D6" stroke-miterlimit="10" d="M188.7,256.2c-0.4,0.4-0.1,1,0.2,1.4c0.3,0.3,0.6,0.7,0.9,0.8
	c0.5,0.2,1,0.3,1.5,0.2c0.9-0.1,1.8-0.4,2.6-0.9c0.2-0.1,0.4-0.3,0.4-0.6c0-0.1-0.1-0.3-0.2-0.4c-0.2-0.3-0.5-0.5-0.7-0.8
	c-0.1-0.1-0.2-0.2-0.4-0.3c-0.1-0.1-0.3,0-0.4,0c-1.1,0.1-2.2,0.1-3.3,0.2C189.1,256,188.9,256,188.7,256.2z"/>
<path fill="#FFFFFF" stroke="#4E9BD7" stroke-miterlimit="10" d="M136.4,202.2c-0.8-0.8-1.8-1.7-2.9-1.5c-1,0.1-1.7,1.1-1.8,2.1
	c-0.1,1-0.3,2.7,0.7,2.9c0.9,0.1,1.4-1.3,2.2-1.5c0.5-0.1,1-0.1,1.5-0.4c0.5-0.2,0.8-0.8,0.6-1.2
	C136.5,202.4,136.4,202.3,136.4,202.2z"/>
<path fill="#FFFFFF" stroke="#4E9BD7" stroke-miterlimit="10" d="M118.4,208c-0.2-0.2-0.4-0.3-0.7-0.3c-0.7-0.2-1.6,0.1-1.9,0.7
	c-0.4,0.6,0.1,1.7,0.8,1.7c0.5,0,1.4-0.4,2.1-0.7C119.1,209.1,118.8,208.3,118.4,208z"/>
<path fill="#EAEAEA" stroke="#D6D6D6" stroke-miterlimit="10" d="M256,26.1c-0.2-0.4-0.3-0.8-0.5-1.1c-0.5-0.7-1.5-0.7-2.3-0.5
	s-1.7,0.1-2.4,0.5c-1.5,0.9,0.9,3.3,2.5,3.8c0.7,0.3,1.5,0.4,2.3,0.4c1.4-0.1,4.1-0.7,3.5-1.9C258.6,26.2,256.6,27.2,256,26.1z"/>
<path fill="#EAEAEA" stroke="#D6D6D6" stroke-miterlimit="10" d="M120.9,3.7c-0.9,1.2-1.5,3.4-0.3,4.3c1.3,0.9,3.4,0.3,4.8-0.5
	c1.3-0.8,0.6-3.1-0.5-4.1S121.9,2.5,120.9,3.7z"/>
<path fill="#EAEAEA" stroke="#D6D6D6" stroke-miterlimit="10" d="M63.1-1c1.2,2.2,2.4,4.5,4.3,6.1c3.7,3.1,10.4,5,13.9,1.7
	c3.2-3,1.9-8.6,4.4-12.2c0.9-1.3,3-2.8,2.1-4.1c-5.8-8.7-25.3-9.2-31.1-0.5C54.8-6.9,61.3-4.2,63.1-1z"/>
<text transform="matrix(1 0 0 1 145.2856 160.4703)"><tspan x="0" y="0" fill="#7BBCEB" font-family="'Verdana-Italic'" font-size="8">Bearup</tspan><tspan x="0" y="9.6" fill="#7BBCEB" font-family="'Verdana-Italic'" font-size="8">Lake</tspan></text>
<text transform="matrix(1 0 0 1 147.4809 254.5392)"><tspan x="0" y="0" fill="#585858" font-family="'Verdana-Italic'" font-size="8">Miwok</tspan><tspan x="0" y="9.6" fill="#585858" font-family="'Verdana-Italic'" font-size="8">Lake</tspan></text>
<text transform="matrix(1 0 0 1 258.2017 305.3038)"><tspan x="0" y="0" fill="#585858" font-family="'Verdana-Italic'" font-size="8">Ardeth</tspan><tspan x="0" y="9.6" fill="#585858" font-family="'Verdana-Italic'" font-size="8">Lake</tspan></text>
<text transform="matrix(1 0 0 1 327.1186 310.7203)" fill="#585858" font-family="'Verdana-Italic'" font-size="8">9149 ×</text>
<text transform="matrix(1 0 0 1 192.7826 20.9294)" fill="#585858" font-family="'Verdana-Italic'" font-size="8">× 9423</text>
<text transform="matrix(1 0 0 1 57.202 148.5537)" fill="#585858" font-family="'Verdana-Italic'" font-size="8">× 8455</text>
<text transform="matrix(1 0 0 1 284.1186 185.137)" fill="#585858" font-family="'Verdana-Italic'" font-size="8">× 8057</text>
<text transform="matrix(1 0 0 1 80.2853 308.387)" fill="#585858" font-family="'Verdana-Italic'" font-size="8">× 8331</text>
<path fill="none" d="M252.5,269.8c13-8,29.3-9.9,41.3-19.3"/>
<text transform="matrix(0.937 -0.3492 0.3492 0.937 266.1821 266.0973)"><tspan x="0" y="0" fill="#7D7D7D" font-family="'Verdana-Italic'" font-size="7">8</tspan><tspan x="4.4" y="0" fill="#7D7D7D" font-family="'Verdana-Italic'" font-size="7" rotate="0.4">4</tspan><tspan x="8.9" y="0" fill="#7D7D7D" font-family="'Verdana-Italic'" font-size="7" rotate="-0.2">0</tspan><tspan x="13.4" y="0" fill="#7D7D7D" font-family="'Verdana-Italic'" font-size="7" rotate="-2">0</tspan></text>
<path fill="none" d="M256.8,189.5c6.4-2.9-7.4-6.4,21.3-23.2c1.7-1,13.7-8.7,14.9-10.2"/>
<text transform="matrix(0.7986 -0.6019 0.6019 0.7986 267.6801 176.2946)"><tspan x="0" y="0" fill="#7D7D7D" font-family="'Verdana-Italic'" font-size="7">7</tspan><tspan x="4.3" y="0" fill="#7D7D7D" font-family="'Verdana-Italic'" font-size="7" rotate="3.1">6</tspan><tspan x="8.6" y="0.2" fill="#7D7D7D" font-family="'Verdana-Italic'" font-size="7" rotate="5.4">0</tspan><tspan x="13.1" y="0.7" fill="#7D7D7D" font-family="'Verdana-Italic'" font-size="7" rotate="5">0</tspan></text>
<path fill="none" d="M56.1,130.3c5-1.1,9.3-4,13.5-6.9c3.1-2.1,6.1-4.2,9.2-6.2c7.6-5.2,15.1-10.3,22.4-15.9"/>
<text transform="matrix(0.8216 -0.57 0.57 0.8216 86.7856 114.7921)"><tspan x="0" y="0" fill="#7D7D7D" font-family="'Verdana-Italic'" font-size="7">8</tspan><tspan x="4.4" y="0" fill="#7D7D7D" font-family="'Verdana-Italic'" font-size="7" rotate="-0.5">6</tspan><tspan x="8.9" y="0" fill="#7D7D7D" font-family="'Verdana-Italic'" font-size="7" rotate="-1.1">0</tspan><tspan x="13.4" y="-0.1" fill="#7D7D7D" font-family="'Verdana-Italic'" font-size="7" rotate="-2">0</tspan></text>
<path fill="none" d="M73.6,284.7c4.2,0.1,8.1-2.3,12.1-3.8c10.1-3.8,22.2-2,31.2-7.9"/>
<text transform="matrix(0.9185 -0.3953 0.3953 0.9185 82.6318 284.9469)"><tspan x="0" y="0" fill="#7D7D7D" font-family="'Verdana-Italic'" font-size="7">8</tspan><tspan x="4.2" y="0" fill="#7D7D7D" font-family="'Verdana-Italic'" font-size="7" rotate="6.8">0</tspan><tspan x="8.3" y="0.5" fill="#7D7D7D" font-family="'Verdana-Italic'" font-size="7" rotate="12.4">0</tspan><tspan x="12.6" y="1.4" fill="#7D7D7D" font-family="'Verdana-Italic'" font-size="7" rotate="15.3">0</tspan></text>
<path fill="none" d="M277.3,45.5c2.1-7,8.8-11.3,15.1-15.1c5.6-3.4,11.3-6.8,17.6-8.3"/>
<text transform="matrix(0.8486 -0.5291 0.5291 0.8486 289.6791 35.0423)"><tspan x="0" y="0" fill="#7D7D7D" font-family="'Verdana-Italic'" font-size="7">9</tspan><tspan x="4.4" y="0" fill="#7D7D7D" font-family="'Verdana-Italic'" font-size="7" rotate="1.1">2</tspan><tspan x="8.8" y="0.1" fill="#7D7D7D" font-family="'Verdana-Italic'" font-size="7" rotate="2.8">0</tspan><tspan x="13.1" y="0.3" fill="#7D7D7D" font-family="'Verdana-Italic'" font-size="7" rotate="6.4">0</tspan></text>
<path fill="none" d="M56.6,51.9c1.4-4.1,2.9-8.2,5.5-11.7s6.5-6.2,10.8-6.4"/>
<text transform="matrix(0.3903 -0.9207 0.9207 0.3903 60.0268 49.5125)"><tspan x="0" y="0" fill="#7D7D7D" font-family="'Verdana-Italic'" font-size="7">8</tspan><tspan x="4.1" y="0" fill="#7D7D7D" font-family="'Verdana-Italic'" font-size="7" rotate="7.6">8</tspan><tspan x="8" y="0.4" fill="#7D7D7D" font-family="'Verdana-Italic'" font-size="7" rotate="19.3">0</tspan><tspan x="11.7" y="1.6" fill="#7D7D7D" font-family="'Verdana-Italic'" font-size="7" rotate="33.8">0</tspan></text>
<path fill="none" d="M42.8,191.3c6.1-5.3,13-9.8,20.4-13.2"/>
<text transform="matrix(0.7922 -0.6103 0.6103 0.7922 46.4848 191.4661)"><tspan x="0" y="0" fill="#7D7D7D" font-family="'Verdana-Italic'" font-size="7">7</tspan><tspan x="4.3" y="0" fill="#7D7D7D" font-family="'Verdana-Italic'" font-size="7" rotate="2.9">8</tspan><tspan x="8.7" y="0.2" fill="#7D7D7D" font-family="'Verdana-Italic'" font-size="7" rotate="5.8">0</tspan><tspan x="13" y="0.6" fill="#7D7D7D" font-family="'Verdana-Italic'" font-size="7" rotate="8.7">0</tspan></text>
<g>
	<g>
		<polyline fill="none" stroke="#7D7D7D" stroke-miterlimit="10" points="85.2,341.6 85.2,348.7 275.4,348.7 275.4,341.7 		"/>
		<line fill="none" stroke="#7D7D7D" stroke-miterlimit="10" x1="180.5" y1="341.4" x2="180.5" y2="348.7"/>
		<line fill="none" stroke="#7D7D7D" stroke-miterlimit="10" x1="161.2" y1="349.2" x2="161.2" y2="343.7"/>
		<line fill="none" stroke="#7D7D7D" stroke-miterlimit="10" x1="142.4" y1="349.2" x2="142.4" y2="343.7"/>
		<line fill="none" stroke="#7D7D7D" stroke-miterlimit="10" x1="123.3" y1="349.2" x2="123.3" y2="343.5"/>
		<line fill="none" stroke="#7D7D7D" stroke-miterlimit="10" x1="104.6" y1="349.2" x2="104.6" y2="343.7"/>
	</g>
	<text transform="matrix(1 0 0 1 83.7832 339.1468)" fill="#7D7D7D" font-family="'Verdana'" font-size="8">0</text>
	<text transform="matrix(1 0 0 1 174.2944 339.1468)" fill="#7D7D7D" font-family="'Verdana'" font-size="8">0.5</text>
	<text transform="matrix(1 0 0 1 258.3412 339.1468)" fill="#7D7D7D" font-family="'Verdana'" font-size="8">1 mi</text>
</g>
</svg>
