<?xml version="1.0" encoding="utf-8"?>
<!-- Generator: Adobe Illustrator 17.1.0, SVG Export Plug-In . SVG Version: 6.00 Build 0)  -->
<!DOCTYPE svg PUBLIC "-//W3C//DTD SVG 1.1//EN" "http://www.w3.org/Graphics/SVG/1.1/DTD/svg11.dtd">
<svg version="1.1" id="Layer_1" xmlns="http://www.w3.org/2000/svg" xmlns:xlink="http://www.w3.org/1999/xlink" x="0px" y="0px"
	 viewBox="0 0 360 360" enable-background="new 0 0 360 360" xml:space="preserve">
<path fill="none" stroke="#E1E1E1" stroke-miterlimit="10" d="M371.2,304.4c-0.2-0.1-0.4-0.2-0.6-0.3c-0.7-0.5-1.3-1.1-2-1.7
	c-2.2-1.7-5.3-1.1-7.9-2c-0.5-0.2-1.4-0.9-1.8-1.2c-1.9-1.4-3-4.3-2-6.5c1.3-2.7,4.8-7,7.1-8.9c3-2.4,5.1-5.9,7.9-8.4"/>
<path fill="none" stroke="#E1E1E1" stroke-miterlimit="10" d="M371.8,358.2c-0.4,0.1-0.9,0.2-1.4,0.2c-1.1,0.1-2.1,0.2-2.9,0.9
	s-1.5,1.6-2.4,2.2c-1.4,0.8-3.4,1-4.2,2.4c-0.2,0.4-0.3,0.8-0.5,1.2c-0.8,1.8-3.3,2.3-5.1,1.6c-1.8-0.8-3-2.5-3.9-4.2
	c-0.8-1.7-2.6-3.7-1.7-5.4c0.5-1,2-1.4,3-1.8c0.9-0.3,3-0.4,3.9-0.6c1.9-0.5,3.3-1.3,4.9-2.3c4.1-2.4,7.5-5.7,10.1-9.7"/>
<path fill="none" stroke="#E1E1E1" stroke-miterlimit="10" d="M313.2,375.5c-0.2-0.2-0.5-0.3-0.7-0.5c-1.6-1.2-3.1-2.5-5-3.1
	c-1.9-0.5-4.3,0.2-4.9,2.1c-0.3,0.9-0.1,1.9-0.2,2.8"/>
<path fill="none" stroke="#E1E1E1" stroke-miterlimit="10" d="M371.2,246.7c-0.9,0.3-2,0.3-3,0.5c-6.8,0.9-11.4,7.4-14,13.8
	c-2.5,6.4-4,13.4-8.4,18.7c-2.4,2.9-5.6,5.1-8.8,7c-2.6,1.5-5.6,3.1-6.6,5.9c-0.4,1.1-0.4,2.4-0.4,3.6c0,5.3-0.1,10.6,0.9,15.7
	c1.7,8.7,6.3,17.3,4.3,26c-0.4,1.6-1,3.2-0.8,4.9c0.2,2.5,2,4.6,3.3,6.7s1.9,5.6,0.7,7.8c-2.3,3.9-1.9,8.7-2.4,13.2
	c-0.3,2.1-0.9,4.3-1.9,6.1"/>
<path fill="none" stroke="#E1E1E1" stroke-miterlimit="10" d="M371.6,226.6c-9.4,5.9-2.9,12.5-9.5,16.2
	c-8.4,4.7-15.9,10.1-20.4,18.3c-0.8,1.4-3.2,4.3-4.6,5c-1.2,0.6-3.9,0.3-5.2,0.7c-8,2.2-9.5,9.4-15.5,15c-3.3,3.1-7.4,5.3-11.4,7.5
	c-6.7,3.6-19.6,9-21.4,7c-2.4-2.6,5.2-8.5,2.2-10.2c-4-2.2-20.7,9-27.8,12.4c-2.7,1.3,2.7,5.3,5.5,6.5c2.7,1.1,6.8-0.9,8.7,1.3
	c1.1,1.2-1.9,4.2-0.4,4.9c1.6,0.8,3.7,0.3,3.8,2.1c0,1.8-1.5,3.3-3.2,3.9s-3.5,0.7-5.3,1c-4.4,0.9-8.4,3.8-10.5,7.8
	c-0.3,0.5-0.5,1.1-0.3,1.7c0.2,0.6,0.9,0.8,1.5,0.9c6.4,1.3,11.7-6.4,18.2-5.8c3.4,0.3,6.3,2.9,9.7,3.4c3.8,0.5,7.5-1.8,9.8-4.9
	c2.2-3.1,1-8.6,4.3-10.6c5.6-3.3,13.6,3.9,16,9.9c0.5,1.1,0.7,2.4,1.2,3.5c0.5,1,1.1,1.9,1.8,2.7c1.8,2.3,3.5,4.6,5.3,7
	c0.7,0.9,1.4,1.8,1.6,3c0.4,1.6-0.3,3.2-0.9,4.7c-2.1,5-4.2,10-6.2,15c-0.3,0.6-0.5,1.3-1,1.8c-0.6,0.6-1.4,1-2.2,1.2
	c-6.1,2.1-13.7,1.2-17.9,5.9c-2,2.3-2.9,5.2-4.9,7.5c-0.8,0.9-1.7,1.7-2.6,2.4"/>
<path fill="none" stroke="#E1E1E1" stroke-miterlimit="10" d="M372,200.8c-1.1,0.6-1.4,2.1-2.2,3.1c-0.9,1.2-2.5,1.8-4,2.2
	c-13.4,3.7-28.3,3.6-40,11c-3.2,2-5.6,4.3-5.1,8.1c0.2,1.5,2,3.7,0.8,4.7c-0.6,0.5-3.4,1.2-4.1,1.4c-4.4,1.1-2.5,4.2-3.4,6.1
	c-3.1,6.7-12.9,6.1-18.5,10.9c-3.1,2.6-8.4,2.2-11.5,4.7c-1.1,0.9-2,2.2-3.3,2.8c-1.1,0.5-2.3,0.4-3.5,0.4c-3.1,0.1-6.2,1.3-8.5,3.4
	c-2.2,1.8-3.8,4.4-6.4,5.6c-1.6,0.8-3.3,0.9-5.1,1.2c-12.2,1.9-23.7,8.5-31.6,18.1c-3.6,4.3-6.6,9.4-11.3,12.4
	c-1.5,1-3.5,2.8-2.4,4.2c0.3,0.4,0.8,0.6,1.3,0.8c6.1,2.3,16.4-5.2,19.5,0.6c1,1.8-1.8,3.9-1.1,5.8c0.7,1.9,3.7,1.5,4.8,3.3
	c2.1,3.3-2.6,7.5-2.3,11.4c0.1,0.8,0.2,1.5-0.1,2.3c-0.2,0.6-0.7,1.1-1.1,1.6c-2,2.1-4.3,4.1-6.6,5.9c-2.3,1.7-5,3.5-6.1,6.2
	c-1.1,2.7,0.4,6.6,3.3,6.7c0.3,0,0.5,0,0.8,0.1c0.7,0.3,0.5,1.3,0.5,2.1c0,2.9,3.9,4.2,4.8,7c0.4,1.3,0.1,2.7-0.2,4
	c-0.4,1.8-0.9,3.8-2.4,4.9c-0.8,0.6-1.8,0.9-2.7,1.3c-3.6,1.8-5.3,6.8-3.4,10.5"/>
<path fill="none" stroke="#E1E1E1" stroke-miterlimit="10" d="M372,193.7c-0.9,0.1-1.9,0.1-2.8,0.3c-5.4,0.6-10.8,2.1-16.1,1
	c-2.6-0.6-5.1-1.7-7.7-1.4c-2,0.2-3.8,1.2-5.7,1.5c-2.4,0.4-4.8-0.3-7.1-0.7c-4.4-0.8-8.8-0.8-13.2,0.1c-3.5,0.7-7.5,2.6-7.7,6.2
	c-0.1,1.8,0.9,3.5,1.1,5.3c0.8,6.3-7.3,10.1-9,16.2c-0.7,2.4-0.5,5.4-2.5,6.8c-1.5,1.1-3.9,0.9-5,2.5c-0.9,1.2-0.5,2.9-1.1,4.3
	c-1,2.7-4.5,3.1-7.2,3.8c-7.2,2-11.9,8.6-17.7,13.2c-8.1,6.3-18.6,8-29.6,8.2c-6.9,0.2-13.1,5-18.2,9.7c-0.6,0.6-1.2,1.2-1.4,2
	c-0.1,0.6,0,1.1,0,1.7c0,1.3-0.7,2.4-1.3,3.4c-3.9,6.2-8.2,12-13,17.5c-2.5,2.9-5.4,6.4-4.6,10.2c0.7,3.5,4.1,5.6,7.3,7.2
	c0.9,0.5,1.9,0.9,2.9,0.7c1.8-0.3,3.5-2.4,5-1.3c0.3,0.2,0.5,0.6,0.7,0.9c1.4,2.7,2.5,6,1.3,8.8c-0.6,1.4-1.6,2.5-2.3,3.8
	c-2,3.8-0.8,8.7-2.9,12.4c-0.6,1.1-1.6,2.1-2.2,3.2c-2.5,4.2-1.1,9.6-1.5,14.5c-0.3,3.1-1.3,6-2.3,8.9c-0.3,0.8-0.6,1.6-1.1,2.3
	c-0.8,1.1-2.1,1.8-3.1,2.7c-1.6,1.4-2.6,3.5-2.8,5.6"/>
<path fill="none" stroke="#E1E1E1" stroke-miterlimit="10" d="M371.5,260.8c-0.5,0.9-1.1,1.7-1.6,2.5c-3.6,5.6-7.9,10.6-12.4,15.4
	c-1.3,1.4-2.9,5-3.8,6.7c-3.8,7.1-10.8,12.8-13.8,20.3c-0.1,0.2-0.2,0.4-0.2,0.6c0,0.4,0.1,0.7,0.3,1c0.9,1.9,3.2,4.1,3.7,6.2
	c0.3,1.1,0.4,2.2,0.7,3.2c1,3.4,4.4,5.9,7.9,6c1.6,0,3.1-0.4,4.7-0.5c2.8-0.1,4.9,1.8,7.2,3.4c0.5,0.4,1.4,0,1.8,0.6
	c0.2,0.3,0.2,0.6,0.4,0.9c0.5,1.1,2.2,1.4,2.5,2.5c0.1,0.4,0,0.8-0.1,1.2c-0.7,2.5-1.4,5.1-2.1,7.6c-0.1,0.4-0.2,0.7-0.4,1
	c-0.4,0.5-1.2,0.6-1.8,0.9c-2.4,1-2.7,5.8-5.3,5.5c-0.8-0.1-1.9-0.6-2.3,0.2c-0.2,0.4,0.2,0.9-0.2,1.2c-0.5,0.4-1.3-0.2-1.9-0.1
	c-0.6,0.2-0.7,0.9-1.2,1.3c-1.9,1.2-4.6-1.7-6.5-0.4c-1.1,0.7-1.7,2-2.3,3.2c-0.9,2.1-2.2,4.3-2,6.5c0.1,0.8,0.7,2.4,0.8,3.2
	c0.8,5.1-0.3,10.4-1.9,15.3"/>
<path fill="none" stroke="#E1E1E1" stroke-miterlimit="10" d="M252.3,376.3c-0.1-1.8-0.4-3.6-0.5-5.4c-0.3-7.7,6.1-15.2,13.8-16
	c3.1-0.4,6.3,0.2,9.4-0.2s9-3.1,6.9-5.4c-1.9-2.1-6.7,1.7-8.6-0.4c-0.8-0.9,1.4-2,1.4-3.2c-0.1-1.8-2.8-2.1-4.3-3.1
	c-0.3-0.2-0.5-0.4-0.8-0.6c-2.6-1.9-5.6-3.9-8.8-3.6c-0.9,0.1-1.9,0.4-2.8,0.2c-1.4-0.2-3.3-0.9-4.4-1.7c-2.4-1.9-6.2-1.5-6.5-4.8
	c-0.1-0.7,0.3-2.2,0.6-2.9c1.4-3.1,4.2-5.3,6.3-7.9c0.3-0.4,0.6-0.8,0.6-1.3c-0.1-0.8-0.9-1.2-1.7-1.5c-2.7-1.2-4.6-3.8-5.6-6.6
	s-1.3-5.8-1.6-8.7c-0.1-1-0.2-2.1,0.3-3c0.3-0.6,0.8-1,1.3-1.4c2.1-1.8,5.5-2.8,6.2-5.5c0.1-0.4-0.1-0.9-0.4-1.1
	c-3.6-3.1-9.6-1.8-14-0.1c-1.8,0.7-4.1,1.8-5.4,0.3c-1.3-1.5,0.2-3.8,1.8-5.1c2.8-2.2,6.1-3.4,8.9-5.6c5.2-4,15.2-9.8,23.1-14.3
	c3.1-1.8,6.2-3.5,9.6-4.3c2.5-0.5,5.1-0.5,7.6-1.2c5-1.5,9-5.9,14.1-6.1c2.2,0,4.4,0.7,6.6,0.8c2.2,0,4.7-1,5.2-3.2c0.2-1,0-2,0-3
	c0.1-4,4.4-6.7,8.4-7c4-0.3,7.9,0.9,11.9,1c4.9,0.1,9.9-1.8,13.6-5c2.9-2.6,5-5.9,7.7-8.7c4.4-4.5,10.3-7.3,16-9.9
	c1.2-0.6,2.4-1.1,3.6-1.6"/>
<path fill="none" stroke="#E1E1E1" stroke-miterlimit="10" d="M263.9,281.3c2.6-1.1,5.5-1.6,8.3-1.2c1.1,0.1,2.3,0.4,3.4,0.3
	c2.5-0.2,4.7-2,6-4.2s1.7-4.8,2.1-7.3c0.1-0.4,0.1-0.8-0.1-1.1c-0.2-0.2-0.4-0.3-0.7-0.4c-1-0.3-2.1-0.6-3.1-0.4
	c-1.4,0.2-2.6,0.9-3.8,1.7c-2.9,1.8-5.8,3.7-8.7,5.6c-2.8,1.9-5.9,3.3-8.6,5.3c-1,0.7,0.3,2.6,1.5,2.7S262.8,281.9,263.9,281.3z"/>
<path fill="none" stroke="#E1E1E1" stroke-miterlimit="10" d="M371.4,171c-0.4,0.1-0.7,0.3-1,0.6c-0.5,0.5-0.7,1.1-1.1,1.7
	c-0.9,1.1-2.3,1.4-3.7,1.7c-12.5,2.2-26,2-36.9,8.6c-3.6,2.2-7,5.2-11.1,6.2c-4.7,1.2-9.7-0.2-14.4,0.8c-2.8,0.6-5.3,2-7.7,3.4
	c-1.4,0.8-2.8,1.6-3.8,2.9c-1,1.3,0,3-0.5,4.5c-0.3,0.8-2.3,0.1-2.4,0.9c-0.1,1.6,1,2.9,0.1,4.3s-2,2.8-1.7,4.3
	c0.2,0.8,0.7,1.4,1,2.1c1.5,3.3-1.7,6.6-4.6,8.7c-3.7,2.8-7.4,5.5-11,8.3c-2,1.5-4,3-6.3,3.7c-1.5,0.5-3,0.6-4.3,1.5
	c-1.3,0.9-2,2.8-0.9,3.9c0.6,0.6,1.6,0.8,2.2,1.4c0.9,0.9,0.7,2.5,0,3.5s-2,1.6-3.1,2.2c-4.2,2-8.3,2.9-12.5,4.9
	c-3.8,1.8-8.1,3.9-12.3,3.3c-1.6-0.2-3.1-0.8-4.6-1c-3-0.4-5.9,0.6-8.7,1.9c-2.2,1-4.3,2.1-6.4,3.3c-5.8,3.5-11.3,8.9-11.4,15.6
	c0,1.6,0.3,3.1,0.2,4.7c-0.1,2-0.7,4-1.4,5.9c-2.4,6.6-5.3,12.9-8.7,19c-0.4,0.8-0.9,1.5-1.5,2.1c-0.9,0.9-2.2,1.3-3.2,2
	c-3.6,2.3-5.9,9-2.2,11.3c2.8,1.7,6.7-0.2,9.9,0.2s6.8,2.5,7.1,5.8c0.3,3.5-3.1,6.4-3.3,9.9c-0.1,2.5,1.3,5,0.7,7.4
	c-0.6,2.6-3.4,4.1-4.2,6.6c-0.6,1.8,0,3.7-0.4,5.6c-0.2,0.9-0.7,1.8-1.1,2.6c-1.6,3-3.1,6-5.1,8.7c-2.1,2.9-4.6,5.5-7.5,7.6
	c-1.3,1-2.9,2.7-1.9,4"/>
<path fill="none" stroke="#E1E1E1" stroke-miterlimit="10" d="M372.8,81.8c-7.1,0.9-15.5,0.2-21.1,4.7c-0.8,0.6-0.1,2,0.7,2.6
	c0.8,0.6,1.8,0.9,2.7,1.1c3.4,0.8,8.5-0.7,10.1,2.4c1.3,2.7,3,5.6,1.5,8.2c-0.6,1.1-2.4,0.8-3.2,1.8c-3.1,4-5.5,8.7-6.9,13.6
	c-0.3,1.2-0.6,2.4-0.5,3.7c0.1,1.6,0.9,3.2,0.7,4.8c-0.3,2.5-2.9,4.3-3.3,6.8c-0.4,2.8,3.6,7.1,1,8.3c-1.5,0.7-4.7-1-4.9,0.6
	c-0.1,1-0.5,1.8-1.4,2.1c-1,0.3-1.2,1.1-1.6,2c-2,4.8-10.4,1.4-15.5,2.1c-3.3,0.4-7.8,1.8-8.5,5c-0.8,3.5,3.1,4.9,6.9,6.7
	c0.7,0.3,1.8,1.2,1.2,1.6c-1.8,1.2-1.8,3.1-3.6,4.3c-2,1.3-3.2,1.4-4.9,3.1c-1.2,1.2-4.1-0.5-5,1c-0.3,0.6,0.5,1.5,0,2
	c-1.9,2-4.9,2.5-7.2,4.1c-2.2,1.6-4.8,2.5-7.4,2.8c-2.7,0.3-5.5-0.2-8.2,0.2s-5.5,1.9-6.2,4.6c-0.2,0.8-0.2,1.7-0.3,2.5
	c-0.7,4.4-5.1,7-9.1,9c-2.2,1.1-4.6,2.3-7,2c-1.2-0.1-2.3-0.5-3.5-0.5s-2.4,0.8-2.5,2c0,0.5,0.2,1,0.3,1.5c0.3,2.5-4.8,1.7-3.8,6.5
	c0.1,0.6,1.9,1.3,2.1,1.9c1.2,3.1-1.4,7.3-1.8,10.5c-0.1,0.6-0.7,1.1-1.2,1.3c-0.5,0.2-1,0.1-1.6,0.2c-1.1,0.1-2.1,0.8-3,1.5
	c-3,2.2-6,4.5-8.9,6.7c-6.2,4.7-17.2,5.1-19.8,12.5c-1.1,3.1,5.1-0.1,6.9,2.7c2.3,3.5-7.4,2.7-11.3,4.2c-1.5,0.6-2.9,1.6-4.2,2.5
	c-2.8,2.1-5.7,4.3-8.5,6.4c-2.7,2-5.5,4.1-8.7,5c-3.5,0.9-7.4,0.4-10.6,2.1c-1.3,0.7-2.4,1.7-3.7,2.6c-2.1,1.5-4.5,2.5-6.6,4
	c-5,3.4-8,9-10.9,14.3c-0.7,1.3-1.4,2.6-1.4,4c-0.1,1.4,0.4,2.8,0.3,4.2c-0.3,3.3-3.8,6.3-2.2,9.2c1.5,2.7,5.8,1.6,8.1-0.5
	s6.1-6.9,7.9-4.4c3.3,4.6-3.1,10.9-6,15.7c-0.7,1.1-1.4,2.2-1.6,3.5s0.4,2.8,1.6,3.2c1.4,0.5,3.1-0.5,4.3,0.4c2,1.4-0.3,5.1,1.4,6.8
	c0.5,0.4,1.2,0.7,1.4,1.3c0.2,0.6-0.2,1.2-0.5,1.8c-1,1.9,0.1,4.6,2.2,5.4c1.2,0.4,2.7,0.4,3.3,1.4c0.5,0.9,0.2,2-0.1,2.9
	c-1.3,5.2,1.6,11.5-1.8,15.7c-1.7,2.1-4.5,2.9-6.2,5c-1,1.2-1.5,2.8-2.5,4c-3.1,3.6-9.1,2.8-12.9,5.6c-0.9,0.6-1.6,1.4-2.5,2
	c-3.6,2.2-9.4,0.6-11.2,4.3"/>
<path fill="none" stroke="#E1E1E1" stroke-miterlimit="10" d="M374.7,72.8c-2.7-0.1-4.8,2.4-7.4,3.4c-4.5,1.7-9.9-1.2-14.1,1
	c-2.2,1.2-3.7,3.7-6.1,4.6c-1,0.4-2.1,0.4-3.1,0.7c-2.8,1-4.4,4-7.1,5.4c-2.1,1.1-4.7,0.8-7.1,1.1c-2.4,0.2-5.1,1.2-5.8,3.5
	c-0.9,2.7,1.4,5.4,3.8,7.1c1.3,0.9,3.7,3.1,2.2,3.8c-0.6,0.3-1.4-0.3-2-0.1s-1.2,1-0.8,1.6c0.1,0.3,0.4,0.4,0.5,0.7
	c0.3,0.6-0.2,1.2-0.8,1.4c-0.6,0.2-1.2,0.1-1.8,0c-2.7-0.4-5.5,0-8,1c-0.9,0.4-1.8,1-1.8,1.9c0,1.3,1.7,1.8,3.1,2
	c5.8,0.6,12.7,1.2,16.6,5.6c1,1.2-1.3,2.6-2.8,2.7c-1.5,0.1-3.5,0.2-4,1.6c-0.7,2,2.5,4.5,1,6.1c-0.6,0.6-2,1.4-1.3,1.9
	c1.2,0.7,3,1.1,2.7,2.5c-0.3,1.6-2.6,1.4-4.1,1c-1.9-0.4-4-0.4-5.7,0.7c-1.6,1-0.7,3.4-1.7,5c-1.3,2.3-4.9,2.1-6.5,4.4
	c-1.6,2.2-2.7,4.7-4.4,6.8c-1.8,2-4.8,2.6-7.3,3.6c-2.1,0.8,0.1,4.5-0.8,6.6c-0.9,2.3-4,2.8-6.4,2.7c-3.6-0.1-7.3-0.7-10.9-0.2
	c-4.3,0.7-8.4,3-12.8,2.9c-2.3-0.1-4.6-0.8-6.9-1s-4.9,0.4-6.2,2.3c-1.3,1.8-1.1,4.2-0.7,6.4c0.4,2.7-0.9,6.9,1.6,7.9
	c2.1,0.8,4.9-0.5,5.9,1.5c1.2,2.4-0.4,5.4-2.4,7.2c-2.1,1.8-4.6,3-6.4,5c-1.1,1.3-0.9,3.4-2.2,4.4c-1.7,1.4-4.1-0.1-6.3,0.2
	c-3.8,0.4-6.9,3.3-10.7,4.1c-3.5,0.8-7.2,0.5-10.5,1.6c-3.4,1.1-6.5,4.6-5.4,8c0.5,1.6,1.9,3.1,1.5,4.7c-0.5,2.2-1.8,4.1-3.6,5.5
	c-1.5,1.1-3.6,0.6-4.8,2c-1.2,1.4-3,2.2-4,3.7c-1.2,1.7,3.2,3.4,2.6,5.4c-1.6,5.2-9.8,5.6-10.4,11c-0.1,0.8-0.1,1.6-0.5,2.2
	c-0.3,0.5-0.8,0.8-1.3,1.1c-6.4,3.9-13.2,6.9-20.3,9c-2.7,0.8-5.5,1.5-7.7,3.2s-4.7,6-2.3,7.4c1.7,1,5.1-1.9,6.1-0.1
	c1.2,2.4-3.1,4.3-4.7,6.5c-2.7,3.8-5.5,7.6-8.4,11.3c-2.2,2.9-4.6,5.8-5.5,9.3c-0.9,3.5,0.2,7.8,3.5,9.4c0.8,0.4,1.7,0.6,2.6,0.8
	c2,0.5,4.6-0.1,6.1,1.5c1.9,2-0.1,5.5-1.6,7.8c-0.7,1-1.6,2-2,3.1c-0.8,2.2,0.4,4.6,1.3,6.8c3.5,8.5,3.1,18.5-1,26.7
	c-0.3,0.7-0.7,1.4-1.3,1.9c-0.6,0.5-1.3,0.9-2,1.2c-6.5,3.2-13.1,6.3-19.6,9.5c-5.2,2.5-12.2,1.8-17.9,2.3
	c-4.5,0.4-9.1,0.6-13.7-0.2c-5.2-0.8-11.3,1-15.5-2.1c-1.5-1.1,1.2-3.7,0.6-5.4c-0.3-1-1.2-1.7-2-2.3c-2.2-1.7-4.5-3.5-7.2-4.1
	c-3.6-0.8-7.4,0.5-10.9-0.6c-3.4-1.1-5.8-4.4-9.2-5.6c-2-0.7-4.3-0.5-6.4-0.4c-2.2,0.2-4.4,0.3-6.6,0.5c-1,0.1-2,0.1-3,0.5
	c-0.7,0.3-1.4,0.8-2.1,1.1c-2.1,0.8-4.4,0-6.6,0.5c-1.7,0.4-3.2,1.8-3.8,3.6c-0.3,1-0.3,2.2-0.9,3.1c-0.4,0.7-1,1.2-1.6,1.7
	c-1.2,1-2.2,2.2-3.1,3.5c-0.6,0.9-1.2,2-1.1,3.1c0.1,1.5,1.4,2.8,2.8,3.4c1.4,0.7,2.9,1,4.4,1.5c0.4,0.2,0.9,0.4,1,0.9
	c0.1,0.3-0.1,0.7-0.2,1c-1.2,2.6-2.4,5.3-3.6,7.9"/>
<path fill="none" stroke="#E1E1E1" stroke-miterlimit="10" d="M80.1,375.6c-0.1,0.3-0.7,0.7-0.4,0.9c2.2,1.9,5-3.1,7.5-4.7
	c2.2-1.4,4.5-2.8,7.1-2.6c0.5,0,1,0.1,1.4,0.4c0.5,0.4,0.7,1.1,1.1,1.6c0.9,1.2,2.7,1.2,4.2,0.8s3-0.9,4.4-0.5
	c0.8,0.3,1.5,0.8,2.3,1.2c3.9,2,9.4-0.3,12.5,2.8"/>
<path fill="none" stroke="#E1E1E1" stroke-miterlimit="10" d="M246.9,220c-1.6-1.9-5.3-0.8-6.2,1.5c-0.3,0.6-0.4,1.3-0.4,2
	c0,0.2,0,0.4,0.1,0.5c0.1,0.3,0.5,0.4,0.8,0.5c1.5,0.4,3.2,0.4,4.5-0.4C247,223.3,247.9,221.2,246.9,220z"/>
<path fill="none" stroke="#E1E1E1" stroke-miterlimit="10" d="M180.2,273.6c-0.6,0.4-1,1-1.3,1.6c-1.1,2.7,0.6,6.2,3.5,7
	c2.4,0.6,5-0.6,6.9-2.2c0.4-0.3,0.7-0.7,1.2-0.8c0.9-0.3,1.7-0.3,2.6-0.3c3.1,0.1,6.5,0.5,8.1-2.1c0.8-1.3,1.5-3,0.9-4.4
	c-1.6-4.1-7.6-5.4-11.6-3.8c-1.3,0.5-2.5,1.4-3.7,2.1c-1.6,1-3.4,1.8-5.3,2.4C181.1,273.2,180.6,273.4,180.2,273.6z"/>
<path fill="none" stroke="#E1E1E1" stroke-miterlimit="10" d="M18.4,377.3c0.5-3.6,7.3-5.1,6.1-8.6c-1.8-5.5-1.9-11-0.2-16.8
	c0.5-1.8,1.3-3.7,2.8-4.9c3.7-3.3,9.5-1.3,14.3-2.4c3.9-0.9,7.2-3.8,11.2-4.5c1.5-0.2,3.1-0.1,4.6,0c10.9,0.9,21.7,2.2,32.5,4.1
	c4,0.7,8.1,1.5,11.8,3.1c3.5,1.5,6.7,3.8,10.3,4.9c4.5,1.3,9.3,0.7,14,0.1c6.2-0.9,12.5-1.7,18.6-3.2c0.4-0.1,0.9-0.2,1.2-0.5
	c1.1-0.8,1-2.4,0.9-3.7c-0.3-4.3,1.3-8.5,2.6-12.6c2.3-7.4,10.5-15.3,9.2-17.1c-0.8-1.2-2.3-1.5-2.7-2.8s-0.5-2.9-1.7-3.8
	c-1.5-1.2-3.9-0.2-5.1,1.3c-1.2,1.5-1.9,3.4-3.3,4.8c-2.5,2.5-9.6,3.3-9.4-0.2c0.2-2.6,1.2-5.1,3-6.9c0.7-0.8,1.8-1.2,2.8-1.7
	c6.7-3.9,7.2-13.1,12.3-19c2.3-2.6,6.8-7.9,4.3-10.4c-2.6-2.7-6.4,4.6-9.7,2.9c-2.9-1.5-0.6-5.1,0.8-8c2.5-5.2,6-10.3,10.2-14.5
	c5.4-5.4,11.4-6.9,18.2-10.4c3-1.5,7.3-4.8,10.3-6.3c0.9-0.5,2-1.1,2.2-2.1c0.1-0.7-0.1-1.4-0.3-2.1c-0.4-2.5,1.4-4.7,2.9-6.8
	s2.6-5,1-7c-0.3-0.4-0.7-0.7-1-1.2c-0.5-0.8-0.6-1.8-0.7-2.8c-0.1-2.8-0.3-5.6-0.4-8.4c-0.1-1.3,0-2.9,1.2-3.5
	c1.7-0.8,3.2,1.3,3.9,3c0.8,2,1.5,4,2.3,6c0.3,0.7,0.6,1.6,1.3,1.9c0.4,0.2,0.8,0.2,1.2,0.2c4.5-0.2,8.2-5.3,6.9-9.6
	c-0.3-0.9-0.7-1.7-0.8-2.6c-0.2-1.9,1.3-3.7,3.1-4.6c1.8-0.9,3.8-1,5.7-1.2c6.4-0.7,12.6-2.5,18.4-5.1c4.2-2,8.5-4.6,10.6-8.8
	c1.9-3.7,1.9-8.1,1.8-12.3c0-2.3-1.7-4.4-1.7-6.7s1.2-4.7,3.3-5.4c0.9-0.3,1.9-0.2,2.7-0.6c1.8-0.8,2-3.8,0.4-4.9
	c-0.5-0.4-1.2-0.6-1.5-1.1c-0.8-1.4,1.3-2.6,2.9-2.7c5.1-0.5,10.2-0.3,15.2,0.5c1.3,0.2,2.6,0.4,3.8,0.2c2.2-0.4,2.6-3.1,4.1-4.7
	c2.4-2.6,9.1-4.5,7.1-7.4c-1-1.5-3.3-1.4-4.1-2.9c-1.5-2.8-2.4-6.5-5.3-7.7c-0.6-0.3-1.2-0.4-1.8-0.7c-0.8-0.4-1.5-1.2-1.9-2.1
	c-1-2.4,0.2-5.3,2-7.2c1.9-1.9,4.3-3,6.5-4.5c1.9-1.2,3.8-2.8,6.1-2.7c0.6,0,1.3,0.1,1.8-0.2c1.3-1-0.6-3.4,0.4-4.7
	c0.9-1.1,2.5-0.1,3.9-0.3c2.4-0.3,2.8-3.6,2.1-5.9s-1.4-5.3,0.6-6.7c1.1-0.8,2.8-0.8,3.6-1.9c0.9-1.2,0.3-2.8,0.4-4.3
	c0.3-3.4,6.8-2.3,7.8-5.6c0.6-1.8-1.6-3.5-0.7-5.2c0.8-1.7,3.2-1.3,4.6-2.5c2.1-1.9-0.9-5.6-1.7-8.4c-0.8-2.8-1.5-5.7-0.8-8.5
	c0.6-2.8,3.6-3.6,5.8-5.6c1.9-1.7,3.9-3.4,5.3-5.5c2.6-4,3.4-9.6,0.9-13.7c-1.1-1.8-3.9,1.3-5.7,2.5c-4.6,2.9-9.9,5.2-15.3,4.6
	c-1-0.1-2-0.3-2.9-0.2c-2.3,0.2-4,2.1-6.2,2.8c-2.3,0.7-5.1,0.1-7.1,1.4c-1.9,1.3-2.5,4-4.6,4.8c-3.3,1.3-6.8-4-9.9-2.4
	c-2.7,1.4-2.6,5.4-2.4,8.4s0.9,6,0.5,9c-0.7,4.4-3.8,7.9-6.8,11.2c-0.6,0.6-1.2,1.2-1.9,1.5c-2.1,0.8-5-1.9-6.7-0.3
	c-3.2,3.1-6.1,6.8-10.5,7.4c-2.3,0.3-5.1,0.3-6.1,2.3c-0.4,0.7-0.4,1.6-0.7,2.3c-0.7,2.7-3.5,4.6-6.3,4.4c-1.5-0.1-3-0.8-4.5-0.9
	c-1.5-0.1-3.3,0.7-3.5,2.2c-0.3,2.3,3.2,3.5,3.4,5.9c0.2,1.8-1.6,3-3.1,3.9c-2.8,1.7-5.3,3.7-7.7,6c-3.7,3.5-6.8,7.6-10.6,11.1
	c-3.8,3.5-9.3,3.7-13.5,6.7c-5.1,3.7-9.4,7.7-14.7,11.3c-3.2,2.2-5.8,5-8.5,7.9c-2.1,2.3-4.7,3.3-6.8,5.6c-2,2.2-3.6,5.6-6.2,7.1
	c-1.5,0.9-3.2,1.6-4.7,2.5c-3,2-4.9,5.2-6.7,8.3c-0.6,1-2.6,1.7-3.1,2.8c-0.8,1.9-0.6,4.3-1,6.3c-1.2,5.8-4.3,10.5-4.3,17
	c0,12-7.2,25.8-0.9,36.1c2.1,3.3,0.5,6.8,1.6,10.5c0.9,2.7,4.1,0.9,4.1,7c0,2.9-0.4,5.8,0,8.6c0.9,6.2,6.4,10.9,8.1,17
	c2,7.1-1.7,14.7-7.2,19.6s-16.4,12-19.5,9.9c-0.7-0.5-0.3-1.9-1.2-1.9c-4.2,0.2-6.9,4.2-10.4,6.4c-3.7,2.3-11.2,1.3-12.3-2.9
	c-0.6-2.6-1.2-5.1-3.7-6.2c-2.4-1.1-5.3-1.6-7.2-3.5c-1.1-1.1-1.7-2.6-2.9-3.6c-1.4-1.1-3.3-1.2-5-1.8c-4.6-1.5-7.4-6.4-7.9-11.2
	c-0.6-4.8,3.9-9.8,1.9-14.2c-1-2.3-4.7-2.2-7.1-1.6c-1.2,0.3-2.3,1.1-3.4,1.7c-1.9,0.9-7.8,0.9-9.9,1.1c-6.1,0.7-4.5,3.6-12.8,2.7
	c-2.3-0.3-4.3,3.4-6.1,4.9c-0.8,0.7-1.6,1.3-2.1,2.2c-1.1,2-0.1,4.5-1,6.6c-0.6,1.3-1.9,2.2-3.1,3c-3.2,2.1-6.5,4.2-8.9,7.1
	c-3.4,4-6.7,10-4.4,14.8c2.1,4.3,3.9,9.3,0.9,13.1c-0.5,0.6-1.1,1.2-1.8,1.4c-0.6,0.1-1.2,0.1-1.7,0.3c-0.7,0.3-1.2,0.9-1.6,1.6
	c-1.7,2.7-3.1,5.7-4.1,8.8c-0.4,1.3-0.8,2.7-1.8,3.7c-1.1,1.1-2.7,1.4-4.3,1.8c-3.5,0.9-6.9,2.4-9.9,4.4"/>
<path fill="none" stroke="#E1E1E1" stroke-miterlimit="10" d="M-7.5,377.1c1.1-1.2,1.8-2.8,1.8-4.5c0-1.5-0.5-3.1,0-4.5
	c0.3-0.9,1-1.7,1.7-2.4c2.1-2.2,4.2-4.5,6.2-6.7c5-5.4,10.1-10.9,15.7-15.7c2-1.7,4.1-3.3,6.7-3.6c1.4-0.2,2.8,0.1,4.2,0
	c1.3-0.1,2.5-0.4,3.7-0.7c7.5-2.1,15-4.2,22.4-6.2c1.7-0.5,3.3-0.9,4.9-1.6c1.5-0.6,3-1.4,4.4-2.3c0.5-0.3,1-0.7,1.3-1.1
	c0.7-0.8,0.9-2,1.1-3c1.1-4.6,7-11,6.5-12.7c-0.8-2.5-4.8-1.5-7.2-2.4c-0.5-0.2-0.9-0.4-1.3-0.7c-0.9-0.9-0.9-2.3-1.3-3.5
	c-0.9-2.6-3.8-4.1-4.6-6.8c-0.2-0.8-0.3-1.6-0.4-2.4c-0.3-1.8-1.2-3.5-2.1-5.1c-1.3-2.3-2.9-4.8-5.5-5c-1.1-0.1-2.1,0.3-3.1,0.6
	c-1.8,0.6-3.6,1.2-4.9,2.6c-0.9,0.9-2,1.5-3,2.2c-2.3,1.6-3.3,4.7-6.1,5.4c-0.6,0.1-1.2,0.2-1.8,0.5c-0.8,0.4-1.4,1.1-1.8,1.9
	c-1.7,3-1.6,6.9-3.5,9.8c-0.5,0.7-1.1,1.4-1.4,2.2c-0.4,0.8-0.5,1.7-0.6,2.6c-0.2,1.4-0.4,2.7-0.6,4.1c-0.6,4-1.2,8-2.8,11.7
	c-1,2.3-2.5,4.5-4.8,5.5c-0.9,0.4-1.8,0.5-2.7,1c-1.5,0.7-2.5,2.2-3.4,3.5C4,348-3.4,355.7-11.6,362.3"/>
<path fill="none" stroke="#E1E1E1" stroke-miterlimit="10" d="M371.8,67.8c-4.6,2.3-9.9,2.8-15.1,3.3c-1.4,0.1-2.8,0.2-4-0.5
	c-1.3-0.8-2-2.4-3.4-3c-1.6-0.6-3.5,0.4-5.1-0.3c-0.5-0.2-1-0.7-1.6-0.8c-1-0.3-2.1,0.4-3,0.9c-2.9,1.7-6.3,2.7-9.6,2.8
	c-1.3,0-2.6-0.1-3.8-0.6c-0.8-0.4-1.5-0.9-2.4-1.2c-1.4-0.5-2.9-0.4-4.3-0.5c-2.6-0.3-5.1-1.7-6.3-4c-1.2-2.3-0.7-5.5,1.4-7
	c2.2-1.5,5.1-1,7.7-1.7c4.4-1.2,7.1-6.1,11.5-7.5c3.2-1.1,6.9,0,10.2-1c1.4-0.4,2.6-1.1,3.9-1.6c2.3-0.8,4.8-0.7,7.3-0.7
	c3.9,0,7.7-0.4,11.5-1.1c0.7-0.1,1.4-0.3,2-0.6c2.2-1.3,2.8-4.9,5.4-5.3"/>
<path fill="none" stroke="#E1E1E1" stroke-miterlimit="10" d="M335.2,63.8c0.5,0,1,0,1.4-0.3c0.5-0.3,0.8-0.9,1.2-1.3
	c1.3-1.2,3.5-0.3,5.2-0.7c0.2-0.1,0.5-0.1,0.7-0.3c0.2-0.2,0.3-0.6,0.3-0.9c-0.1-1.9-2.2-3.1-4.1-3.3s-3.8,0.1-5.7-0.4
	c-0.6-0.2-0.6-0.7-1-1.2c-1.2-1.5-3.7,0.6-5.6,1c-1.5,0.3-3.1,0.5-4.5,1.2c-0.7,0.3-1.4,0.9-1.5,1.7c-0.1,0.8,0.5,1.4,1.2,1.9
	c1.9,1.4,4.3,2,6.7,2.3C331.4,63.7,333.3,63.8,335.2,63.8z"/>
<path fill="none" stroke="#E1E1E1" stroke-miterlimit="10" d="M361.2-7.7c0.5,2.2-0.8,4.9,0.8,6.6c0.3,0.3,0.7,0.6,1,0.9
	c0.7,1,0.1,2.3-0.7,3.2c-0.8,0.9-1.8,1.6-2.3,2.6c-0.4,1-0.3,2-0.2,3.1c0.2,1.8,0.5,3.6,0.7,5.4c0.1,0.8,0.2,1.6,0.6,2.3
	c0.4,0.7,1.1,1.2,1.9,1.1c0.4-0.1,0.8-0.3,1.2-0.5c2.9-1.8,5.7-3.7,8.6-5.5"/>
<path fill="none" stroke="#E1E1E1" stroke-miterlimit="10" d="M118.3,263.1c-0.7-0.4-1.6-0.1-2.5,0.1c-2.9,0.4-5.3-2.1-8.2-2.6
	c-4.4-0.7-7.9,3.4-12,5.1c-3,1.2-6.7,1.5-8.5,4.1c-1.2,1.7-1.2,4-0.5,6c0.7,2,2,3.7,3.2,5.3c2.3,3,4.9,6.3,8.6,7.3
	c0.7,0.2,1.5,0.3,2.2,0.1c1.4-0.4,2.2-2,2.2-3.5c0.1-1.5-1.4-3.2-0.5-4.4c0.7-1,1.8-1.4,2.7-2.2c0.8-0.8,2.4-1.3,3.1-0.4
	c0.5,0.6,0.3,1.5,0.5,2.2c0.4,2.2,3.6,2.9,5.6,1.7s2.9-3.5,3.7-5.6c1.5-3.9,3-8.4,1.2-12.2C118.9,263.8,118.7,263.4,118.3,263.1z"/>
<path fill="none" stroke="#E1E1E1" stroke-miterlimit="10" d="M-9.4,301.8c2.4-1.5,0.9-5.3,2.6-7.6c2.3-3.1,7.7,0.4,11.5,0.5
	c0.6,0,1.2,0,1.7-0.3c0.6-0.5,0.6-1.4,0.8-2.1c0.4-1.5,1.7-2.5,2.7-3.6s0.6-2.7,1.1-4.1c1.1-3,5.9-2.4,8.9-3.6
	c0.7-0.3,1.4-0.6,1.9-1.1c0.5-0.6,0.7-1.4,0.9-2.1c0.6-1.8,1.5-3.5,2.1-5.3c0.6-1.8-0.6-3.6-0.5-5.5c0.4-4.9,5.3-9.3,10.1-10.2
	c1.6-0.3,3.3,0,4.9-0.1c1.6-0.1,2.5-1.5,3.8-2.6c1.6-1.2,4.2,0.1,5.6,1.5c0.4,0.5,0.8,1.1,1.3,1.4c0.5,0.4,1.2,0.4,1.9,0.4
	c17.5,0.2,19.3-5.7,21.7-4.4c1,0.6,0.2,2.7,1.2,3.4c3.7,2.4,8.8-0.7,13.2-0.9c1-0.1,2.6,0.7,1.9,1.5c-1.2,1.2-2.9,2-4.3,3
	c-0.5,0.4-1.1,0.8-1.1,1.4c0,0.4,0.2,0.9,0.4,1.3c0.9,2.5-1.4,4.8-3.2,6.8c-2.9,3.2-8.6,8.5-5.5,11.5c0.8,0.8,2.6,0.3,2.8,1.5
	c0.2,1,1.5,1.5,2.5,1.7s2.1,0,3.1,0.4c0.9,0.3,1.6,1,2.2,1.7c1.9,1.9,3.8,3.9,5.7,5.8c0.7,0.7,1.4,1.5,2.4,1.9
	c0.7,0.3,1.4,0.4,2.2,0.5c1.3,0.2,2.6,0.3,3.9,0.5c1.4,0.2,2.9,0.4,4.3-0.1s1.7-1.9,2.2-3.3c0.3-0.9,1.9,0,2.6,0.7
	c0.7,0.7,1.4,1.6,2.3,1.6c0.4,0,0.7-0.1,1.1-0.3c2.2-0.8,4.6-1.7,5.9-3.7c1.2-1.8,1.3-4.1,2.6-5.7c1.3-1.7,3.8-2.6,4.3-4.8
	c0.2-1.1-0.2-2.3,0.1-3.3c0.2-0.9,0.9-1.6,1.5-2.4c1.7-2.6,1.4-6,1-9.1c-0.4-3.3-0.8-6.7-2.1-9.8c-1.2-3.1-3.4-5.9-6.5-7.3
	c-0.6-0.3-1.2-0.5-1.7-0.9c-0.9-0.9-0.6-2.5,0.2-3.6s1.9-1.8,2.7-2.8c2.1-2.5,2.1-6.3,1.1-9.4c-1-3.2-2.7-6-3.7-9.2
	c-1.9-5.7-1.2-12.3,1.8-17.5c2.6-4.5,2.4-9.3,2.4-14.5c0-1.8,0-3.8,1.4-4.9c0.5-0.4,1.1-0.6,1.6-0.8c2-1.1,3-3.4,3.7-5.6
	c1.4-4.5,2.3-9.1,2.5-13.8c0.1-1.2,0.1-2.5,0.6-3.7c0.4-0.9,1.1-1.5,1.8-2.2c6.5-6.2,14.7-10.3,21.6-16c1.7-1.3,1.8-3.4,2.7-5.4
	c1-2.5,2.5-4.3,4.4-6.2c3.2-3.2,7.1-5.1,10.1-8.5c3.7-4.2,9-6.5,13.9-9.2c4.9-2.7,7.1-8.3,11.8-11.4c3.2-2.1,6.8-3.4,7.8-7.1
	c1-3.7-0.6-7.9,1.1-11.3c3.9-8,12.5-12.8,18.2-19.6c0.7-0.9,1.5-1.8,2.5-2.3c0.9-0.4,1.8-0.5,2.7-0.8c4.7-1.4,7.2-6.4,9.1-10.9
	c0.4-1,0.9-2.1,0.9-3.2c0.2-3.4-5.1-4.4-6-7.7c-0.8-3,5.7-0.8,8.6-1.8c1.5-0.6,2.6-2,3.8-3.1c4.1-3.9,10.3-4.4,15.9-3.8
	c5.6,0.6,11.1,2.2,16.8,1.7c1.3-0.1,2.6-0.3,3.7-0.9c0.8-0.4,1.5-1,2.3-1.5c3.8-2.7,8.5-4,13.1-3.7c4.5,0.3,8.9,2,13.3,1.5
	c4.5-0.5,8.4-3.3,11.8-6.3c1-0.9,2-1.9,3-2.8c1.1-1,2.1-2.1,3.2-3.1c6.6-6.5,13.3-13.1,19.9-19.6c0.6-0.6,0.7-2.1-0.1-1.8"/>
<path fill="none" stroke="#E1E1E1" stroke-miterlimit="10" d="M-13,273.9c-0.7-0.3-0.3-1.4,0.3-1.8c3.8-2.9,9.1,0.9,13.8,0.5
	c0.9-0.1,1.9-0.3,2.5,0.3c0.5,0.5,0.5,1.2,0.7,1.8c0.5,1.5,2.4,2.5,3.9,1.9s0.9-2.6,1.7-4c3.1-5.5,11.4-4.3,11.6-10.6
	c0-1.4-0.1-5.2,0.3-6.5c0.4-1.3,1.2-2.4,2-3.4c1.7-2.2,3.3-4.3,5-6.5c0.7-1,1.5-2,2.6-2.6c0.9-0.5,2-0.8,3-1c3-0.7,6.4-3.6,9-2
	c1.6,0.9,1.3,3.7,3,4.3c0.9,0.3,2,0.2,3,0.2c2.2,0.1,4.3,1.3,6.5,1.7c14.1,2.4,18.3-7.4,22-4.7c2,1.4,4.1,3,8.4,3.4
	c3.4,0.3,0.2,5.1,7.1,5.9c5.8,0.7,12.6-1.3,17.5-4.3c1.1-0.7,2.2-1.4,2.9-2.5c0.5-0.7,0.8-1.5,1-2.3c1.4-3.8,2.7-7.9,2-11.9
	c-1.2-6.8-8-11.6-9.4-18.4c-1-4.8,1-9.7,2.8-14.3c1.8-4.5,3.4-9.1,5-13.6c0.4-1,0.7-2,1.1-3c2.2-6,4.3-12,6.5-18
	c1.3-3.5-2.9-7.9-0.3-10.6c1-1,2.5,0.5,3.8-0.1c1.3-0.6,2.3-1.7,3.3-2.7c3.2-3.5,6.1-7.1,9-10.8c1-1.2,2-2.5,3-3.7
	c1.3-1.7,2.7-3.3,4.1-4.8c0.4-0.4,0.9-0.9,1.4-1.2c0.5-0.3,1-0.5,1.6-0.7c5-2.2,6.6-8.8,11.2-11.6c2.3-1.4,5.4-1.8,7.2-3.9
	c0.8-0.8,1.3-1.9,2.2-2.6c0.8-0.6,1.9-0.8,2.8-1.2c4.5-1.6,7.5-6.1,12-8c2.9-1.2,6.2-1.3,9.1-2.7c2.8-1.4,1.3-5.1,3-7.7
	c2-3,2.5-5.7,1.7-11.1c-0.6-4.2,7.7-5.5,9-9.6c0.4-1.3,0.6-2.7,1.3-4c1.2-2.2,3.7-3.4,6.1-4.3s4.9-1.7,6.6-3.6
	c1.7-1.9,1.1-4.4,0.1-6.8c-0.7-1.5-1.2-3.4-2.5-4.4s-2.9-1.7-4-2.9c-1.8-1.9-2-4.8-2.2-7.4c-0.2-2.1-0.3-4.2-0.5-6.2
	c-0.1-1.3-0.2-2.6-0.3-3.9c-0.3-4-2.5-8.3-0.9-12c1-2.3,4.8-1.3,7.2-0.4s4.7,2.1,7.2,2.3c2.7,0.2,5.5-0.9,8.1,0
	c1,0.3,1.8,0.9,2.8,1.3c1.8,0.8,3.7,0.8,5.7,0.9c7.4,0.1,14.9-0.2,22.3-1.1c4.5-0.5,9-1.3,13.5-1.3c5.6,0,11.2,1,16.8,1.6
	c3.3,0.4,6.5,0.6,9.8,0.8c1.6,0.1,3.2,0.2,4.9,0.3c2.5,0.2,5.1,0.3,7.5-0.6c2.4-0.9,4.4-3.2,4.1-5.7c-0.1-0.5-0.2-1-0.1-1.5
	c0.2-0.8,1-1.2,1.7-1.6c7.2-3.5,14.7-8.3,17.1-15.9"/>
<path fill="none" stroke="#E1E1E1" stroke-miterlimit="10" d="M245.4-6c0.1-0.4-0.6-0.5-0.7-0.1c-0.6,2.5,0.4,4.8,2.1,6.7
	c0.5,0.5,0.9,1,1.4,1.6c1.3,1.5,2.7,3,4.2,4.2c6,4.6,14.2,4.5,21.8,4.2c7-0.3,14.1-0.6,21.1-0.9c2.4-0.1,4.7-0.2,7.1-0.6
	c2.4-0.4,4.8-1.1,7.1-1.9c2.7-0.9,5.4-1.8,7.9-3.2c3.7-2,6.8-5,9.8-7.9c1-1,2.1-2.1,2.1-3.4"/>
<path fill="none" stroke="#E1E1E1" stroke-miterlimit="10" d="M252.4-9.5c0,0.7,0.1,1.3,0.1,2c0.1,1.9,0.3,3.9,1.4,5.3
	c1.1,1.5,3,0.4,4.8,0.5c3.4,0.2,3.9,5.9,7,7.5c3.1,1.5,6.7,1.3,10.2,1c7.7-0.7,15.4-1.3,23.1-2c7.3-0.6,15.4-1.7,19.9-7.4
	c0.8-1,1.4-2.1,1.7-3.3"/>
<path fill="none" stroke="#E1E1E1" stroke-miterlimit="10" d="M260.9-8.1c2,4.3,4.3,8.9,8.6,11c1.7,0.9,3.7,1.2,5.7,1.4
	c3.3,0.2,6.6-0.2,9.8-1.3c2.3-0.8,4.5-2,6.8-2.6c3.2-0.9,6.5-0.8,9.7-1.4s6.6-2.2,7.8-5.3"/>
<path fill="none" stroke="#E1E1E1" stroke-miterlimit="10" d="M266.5-8.3c2.5,1.6,2.7,5.6,5.5,6.8c0.6,0.3,1.3,0.3,1.9,0.4
	c1,0.1,2,0.2,2.9,0.2c3.8-0.1,7.4-2.3,9.3-5.5"/>
<path fill="none" stroke="#E1E1E1" stroke-miterlimit="10" d="M93.4,335.5c-0.9-0.7-2.1,1.1-2.4,2.2c-0.3,1.1,0.3,3.8,1.1,3
	c0.5-0.4,0.3-1.1,0.8-1.6C93.7,338.1,94.4,336.2,93.4,335.5z"/>
<path fill="none" stroke="#E1E1E1" stroke-miterlimit="10" d="M87,320.4c-0.5,1.8,0.8,3.8,2.6,4.1c0.4,0.1,0.9,0,1.2-0.2
	c0.3-0.2,0.4-0.6,0.4-0.9c0.3-1.9-1.6-3.8-3.5-3.6c-0.2,0-0.4,0.1-0.5,0.2C87.2,320,87.1,320.2,87,320.4z"/>
<path fill="none" stroke="#E1E1E1" stroke-miterlimit="10" d="M-10.2,259c1.2,2.6,3.7,4.8,6.5,4.7c2.8-0.1,2.8-3.3,3.8-5.9
	c0.9-2.5,4.4-2.8,6.7-4.2c2.3-1.3,4.5,0,7,0.8c2.9,0.9,1-5.5,1.7-8.5c0.3-1.3,1.1-2.4,1.9-3.4c2.9-3.8,6.2-7.3,9.8-10.4
	c2.1-1.8,4.4-3.6,7.2-3.8c5.5-0.5,11.1-0.4,15.9,2.3c3,1.6,4.2,4.9,7.5,5.4c2.1,0.3,4.2,0.7,6.3,1c1,0.2,2.1,0.3,3.2,0.2
	c1.6-0.2,3-1,4.4-1.7c4.9-2.5,10.9-7.1,15.7-4.5c1.7,0.9-1.7,3.6-1.1,5.4c0.7,1.8,3.4,1,4.9-0.1c2.7-1.9,5.4-3.9,8.5-4.9
	c3.1-1,6.2,1.9,9.4,1.1c2.9-0.7-0.2-5.8-1.4-8.6c-2.6-6.1-4.6-12.5-5.7-19c-0.3-1.6-0.6-3.3-0.3-4.9c0.5-3.2,2.7-6,2.6-9.2
	c-0.2-4.3-4.6-8.6-2.4-12.3c0.7-1.2,1.9-1.9,2.9-2.9c3.1-3.3,2.7-9.6,6.7-11.6c1.4-0.7,3.4-0.8,4.2-2.3c0.8-1.5-2.2-3.1-1.5-4.7
	c0.9-2,3.7-2.4,3.8-4.5c0.1-2.2-1-4.2-2-6.1c-0.9-1.7-3.3-3.3-2.6-5c1.7-4,8.1-2.9,11.9-5c2.3-1.3,3-3.6,4-6.1
	c1.8-4.6,5.6-9.1,9.7-11.8c3.9-2.6,6.7-4.6,10-8c2.6-2.7,6.5-3.7,9.7-5.8c3.7-2.4,8.1-3.5,12.1-5.5c4-2,4.2-7.8,8.1-9.8
	c6.7-3.4,12.1-7.2,12.9-14c0.2-1.4,0.2-2.9,0.8-4.2c0.7-1.4,1.9-2.4,2.9-3.5c2.4-2.8,3.4-6.6,3.5-10.3c0-3.7-0.8-7.3-1.6-10.9
	c-1.5-6.4-2.9-12.9-4.4-19.3c-0.2-1.1-0.5-2.2-1.3-2.9c-0.6-0.5-1.4-0.8-1.6-1.6c-0.2-0.9,0.5-1.7,0.6-2.5c0-0.8-0.5-1.5-1-2.2
	c-2-2.8-4-7.5-1.5-9.8c2.1-1.9,4.1-4,3.6-6.7s-2.4-5-4.2-7.2"/>
<path fill="none" stroke="#E1E1E1" stroke-miterlimit="10" d="M-8.9,255.3c5.4-2.7,10.9-5.4,16.3-8.1c0.8-0.4,1.7-0.9,2-1.7
	c0.4-1.1-0.2-2.2-0.5-3.3c-1-3.7,1.8-7.1,4.4-9.9c3.4-3.6,6.8-7.2,10.2-10.8c1.5-1.6,3-3.2,4.7-4.6c3.7-2.9,9.2-9.8,12.4-6.4
	c1.7,1.8,1.2,4.9,3.6,5.7s5,0.7,7.4,1.6c2.3,0.9,4.2,2.7,6.5,3.3c3.1,0.7,6.6-0.7,9.3,0.9c0.8,0.5,1.6,1.3,2.6,1.4
	c1.5,0.1,2.6-1.4,3.9-1.9c1.7-0.7,3.7,0.1,5.5,0.5c4.7,0.9,9.4-1.2,14.2-1.7c1.3-0.1,2.7-0.1,3.9-0.6c2.7-1.1,3.8-4.4,3.8-7.3
	c0-5.4-2.8-10.4-4.6-15.5c-2.1-6-2.8-12.4-3.5-18.8c0-0.3-0.1-0.6-0.1-0.9c-0.4-3.4-0.4-7.5,2.5-9.2c1.3-0.8,2.9-0.9,4.2-1.5
	s0.8-2.4,1.7-3.6c1.5-1.9,4-2.3,3.9-4.7c-0.1-2.4-0.6-5.3,1.3-6.8c0.6-0.5,1.5-0.8,1.9-1.5c0.4-0.7,0.4-1.5,0.3-2.3
	c-0.4-3.3-1.5-6.6-3-9.6c-0.8-1.6-1.9-3.5-1.1-5.1c0.8-1.8,3.2-2.2,5.2-2.5c4.4-0.7,8.6-2.5,12.1-5.2c4.6-3.5,10.2-6.9,11-12.6
	c0.1-0.9,0.2-1.9,0.9-2.5c0.7-0.6,1.8-0.5,2.7-0.6c4.7-0.2,8-4.6,11.8-7.4c3.6-2.7,7.9-4.1,12.2-5.4c2-0.6,4.1-1.2,5.6-2.5
	s1.6-3.5,1.5-5.6c-0.1-2.9,4.9-2.3,7.8-2.8c4.9-0.8,8.7-5.1,10-9.9c1.3-4.8,0.4-9.9-1.2-14.6c-0.4-1.1-0.8-2.2-0.9-3.4
	c-0.1-1.6,0.5-3.2,0.8-4.8c0.9-4.9-0.7-9.9-2.2-14.6c-0.3-0.9-0.7-1.9-1.5-2.5c-0.6-0.4-1.4-0.5-2-0.9c-1-0.7-1.4-2-1.7-3.1
	c-0.7-2.9-1.5-5.9-2.2-8.8c-0.3-1.4-0.7-2.7-1-4.1c-0.2-0.8-0.4-1.6-0.4-2.5c0-1.1,0.2-2.2,0.3-3.3c0.6-4.5-0.6-9.1-3.3-12.8
	c-2.2-2.9-5.4-5.7-5-9.3"/>
<path fill="none" stroke="#E1E1E1" stroke-miterlimit="10" d="M-12.7,242.3c4-2,9.1,0.1,13.2-1.7c5.3-2.4,4.2-9.7,5.6-15.3
	c1.4-5.4,6.8-8.9,11.4-12c2.3-1.6,3-5.5,5.6-6.7c8.8-3.9,31.7-14.5,33.8-11.8c2.7,3.4-0.4,8.8,3.7,10.3c1.7,0.6,5.4,0.9,7.2,1.3
	c6.6,1.5,12.8,7,19.3,4.9c5.4-1.8,7.8-8.5,6.8-14s-4.6-10.3-7.8-14.9c-0.7-0.9-1.3-1.9-1.5-3c-0.1-0.8,0-1.6,0.1-2.4
	c0.8-5.4-1.2-12.1,2.5-16.1c4.3-4.5,7.3-2.6,9.8-14c0.5-2.1,4.2-0.4,4.4-2.5c0.2-2.1-1.1-4-2-5.9c-2.1-4.4-2.5-9.7-0.9-14.3
	c0.2-0.7,0.5-1.4,1-1.9c0.9-0.9,2.3-1.1,3.5-1.2c4.7-0.6,9.3-1.8,13.6-3.5c5.6-2.2,6.8-8,10.1-13.1c3.7-5.6,13-3.6,18.4-7.6
	c4-2.9,8.6-3.9,13-6.3c6.9-3.7,11.8-9,18.7-12.7c2.7-1.4,2.7-5.9,2.5-9c-0.4-4.9-3.6-9.1-4.8-13.9c-0.4-1.4-0.6-3.1-1.8-4
	c-0.6-0.4-1.3-0.6-1.7-1.2c-0.8-1.1,0.1-2.7-0.5-3.9c-0.4-0.8-1.4-1.1-1.9-1.9c-0.8-1.1-0.4-2.5-0.7-3.8c-0.8-2.9-5.3-3.7-6-6.7
	c-0.2-0.8,0-1.7-0.4-2.5c-0.6-1.3-2.4-1.6-3.4-2.7c-1.5-1.5-0.9-4.1-2-6c-0.5-0.8-1.3-1.5-1.5-2.4c-0.2-0.9,0.2-1.8,0.2-2.8
	c0-1.9-1.8-3.2-2.7-4.8c-1.5-2.5-1.1-5.5-0.6-8.4c0.2-1.6,0.5-3.1,0.7-4.7c0.4-2.8,1.2-6.1,3.8-7.4"/>
<path fill="none" stroke="#E1E1E1" stroke-miterlimit="10" d="M73.4,192.9c1.8,0.2,3.7,0.5,5.5,0.7c0.7,0.1,1.5,0.2,2.2,0
	c0.7-0.2,1.3-0.8,1.8-1.4c1.2-1.7,1.4-4,0.9-6s-1.6-3.8-2.7-5.6c-0.4-0.7-0.9-1.4-1.5-1.8c-1-0.6-2.3-0.6-3.4-0.1
	c-1.1,0.5-2,1.2-2.9,2c-0.7,0.6-1.3,1.2-2,1.8c-1.2,1.1-2.5,2.2-3.3,3.7c-0.7,1.5-0.9,3.4,0.2,4.7c0.6,0.7,1.4,1.2,2.3,1.5
	C71.5,192.7,72.4,192.8,73.4,192.9z"/>
<path fill="none" stroke="#E1E1E1" stroke-miterlimit="10" d="M-10.8,229.7c3.6,2.6,9.5,0.9,11.2-3.2c1.1-2.5,0.8-5.8,3-7.5
	c0.5-0.4,1.2-0.7,1.7-1.1c0.8-0.7,1.2-1.8,1.6-2.7c2-5.2,5.3-13.5,10.7-14.9c11.2-3,13.8-7.3,22.7-14.3c2.4-1.9,10.8-2.4,13.8-3.1
	c4.7-1.1,9.3-2.3,14-3.4c1.7-0.4,3.5-0.9,5-2c2.5-1.9,3.3-5.1,3.9-8.2c1.3-6-0.9-14.3,4-18.1c3.9-3,7.9-5.3,9.2-10.1
	c2.2-8.5,2.8-17.4,1.7-26.1c-0.1-0.8-0.2-1.6,0.1-2.4c0.6-1.8,3-2.3,5-2.3c4.1-0.2,8.3-0.2,12.3-1.3c4-1.1,6.6-4.4,9.5-7.3
	c9.2-8.9,21.6-14.6,34-17.5c2.8-0.7,6-1.2,7.4-3.7c0.5-0.9,0.7-1.9,1.1-2.9c0.9-2.1,2.9-3.5,4.5-5.2c1.6-1.7,1.9-4,1.7-6.3
	c-0.1-1.5-0.1-3.1-1.2-4.2c-0.8-0.9-2.1-1.4-2.8-2.4c-1.4-2-0.4-4.7-0.8-7.1c-0.4-2.3-2.1-4.2-3.7-5.8c-2.1-2.2-4.3-4.4-6.4-6.7
	c-0.7-0.8-1.5-1.6-1.9-2.6c-0.3-0.8-0.3-1.7-0.4-2.5c-0.6-3.3-3.5-5.8-4.4-9.1c-0.3-1.2-0.3-2.5-0.8-3.7c-0.6-1.3-1.8-2.2-2.5-3.4
	c-0.9-1.7-0.8-3.8-0.6-5.7c0.3-3,0.5-6.1,0.8-9.1c0.3-3.5,0.2-7.8-2.8-9.6"/>
<path fill="none" stroke="#E1E1E1" stroke-miterlimit="10" d="M-12,216.1c3.1-0.7,6.3-1.4,9.1-3.1s5-4.5,5.1-7.8
	c0-1.5-0.4-3-0.2-4.4c0.5-3.5,2.3-6.7,4.5-9.4c3.7-4.4,21.4-0.7,29.1-7.3c5-4.3,7.7-11.7,14.1-13.3c3.6-0.9,7.5,0.4,11.2-0.3
	c5-0.9,8.9-5.9,8.5-11c-0.1-1.7-0.4-3.9,1.2-4.5c0.7-0.3,1.5-0.1,2.3-0.3c1.5-0.4,2.1-2.3,2-3.9c-0.1-1.6-0.7-3.2-0.3-4.7
	c0.8-3.5,5.9-5,6.2-8.6c0.1-1-0.2-2,0.3-2.9c0.5-0.9,1.5-1.2,2.3-1.8c0.9-0.8,1.2-1.9,1.5-3c0.9-3.9,0.8-8,0.7-12
	c-0.1-5-2.7-10.6-0.3-15c2.1-4,8.8-0.5,13.3-0.8c9.6-0.8,15.2-11.5,24.2-14.8c2.2-0.8,4.5-1.1,6.5-2.3c3.7-2.2,5.7-7,9.9-8.1
	c3.4-0.9,7.3,1,10.6-0.4c3-1.3,4.4-4.9,4-8.2c-0.4-3.2-3.5-5.6-3.9-8.9c-0.4-3.4-0.8-7.1-2.7-10c-1.9-2.9-4.5-5.4-6.2-8.4
	c-1.9-3.3-2.9-7.4-5.9-9.8c-0.6-0.5-1.3-0.9-1.9-1.5c-0.5-0.6-0.9-1.3-1.3-2c-1.4-2.7-2.9-5.6-2.4-8.6c0.3-1.7,1.2-3.5,0.3-5.1
	c-0.4-0.7-1.2-1.2-1.5-2c-1.3-2.3,1.6-5.4,0.3-7.7c-0.3-0.5-0.8-0.9-1.2-1.4c-1-1.4-0.6-3.4-0.1-5.1c0.5-1.6,0.9-3.3,1.4-4.9"/>
<path fill="none" stroke="#E1E1E1" stroke-miterlimit="10" d="M-13.3,197c6.1-3.5,8.6-12.1,5.4-18.3c-0.4-0.7-0.8-1.5-0.4-2.2
	c0.2-0.5,0.7-0.7,1.2-0.9c6.3-2.7,13.4-2.4,20.2-2.1c11.7,0.4,24.8-0.2,32.8-8.6c1.6-1.6,3-3.6,5-4.4c1.7-0.7,3.7-0.5,5.4-1.1
	c3.1-1,5.2-4.1,5.8-7.4c0.6-3.2-2.1-6.9-0.5-9.8c3-5.5,9.8-7.7,13.4-12.7c0.7-1,1.4-2,2.1-3c0.9-1.3,1.9-2.7,2-4.2
	c0.1-1.6-1.1-3.2-2.6-3.3c-0.8-0.1,1.3-1.1,1.1-1.9c-0.2-0.8-0.8-1.5-1-2.4c-0.4-1.4,0.2-2.8,0.5-4.2c0.3-1.4-1.4-2.2-1.4-3.7
	c-0.1-2.3,3.6-3.1,3.8-5.3c0.2-2.3-0.8-4.7,0.3-6.8c0.3-0.6,0.7-1,1.2-1.4c5.6-4.9,15.9,0.6,21.2-4.7c0.9-0.9,1.6-2.1,2.6-2.8
	c1.1-0.9,2.5-1.2,3.9-1.7c5.1-2.1,8.1-7.4,12.6-10.6c4.9-3.6,11.2-4.4,17.1-6c0.8-0.2,1.7-0.5,2.2-1.2c1.4-2-1.9-4.1-2.7-6.4
	c-0.6-1.7,0.1-3.5,0.5-5.2s0-4-1.7-4.5c-1.6-0.5-0.5-3.5-1-5.2c-0.6-2.1-3.8-2.3-4.8-4.3c-0.5-0.9-0.3-2-0.4-3
	c-0.4-4.6-5.3-7.2-9.3-9.4c-1.2-0.6-2.4-1.3-3.3-2.3c-1.1-1.1-1.7-2.6-2.3-4c-2.7-6.4-5.4-12.8-8.1-19.2c-0.3-0.6-0.5-1.3-0.2-1.9
	c0.4-0.7,1.3-0.7,2-0.5s1.3,0.8,2.1,1c1.5,0.5,3.2-0.2,4.3-1.4c1.1-1.2,1.7-2.7,2.3-4.2c0.5-1.2,0.9-2.4,1.4-3.6"/>
<path fill="none" stroke="#E1E1E1" stroke-miterlimit="10" d="M-12.9,150.7c7.1,2,14.3,4,21.4,5.9c2.1,0.6,4.2,1.2,6.4,0.8
	c1.3-0.2,2.5-0.7,3.8-0.6c2.5,0.2,4.7,2.7,7.2,2c1-0.3,1.8-1,2.8-1.5c4-1.9,8.9,2.3,13.1,0.7c3.4-1.3,4.2-5.6,5.2-9.1
	c2.1-7.3,6.9-13.7,13.2-17.8c3.7-2.4,5-6.5,8.3-9.4c2-1.8,4.2-3.1,4.1-5.8c-0.1-3.1-1-6.1-1.5-9.1c-1-5.7-1.9-12.1,0.9-17.2
	c1-1.9,2.8-3.3,4.3-4.9c2.2-2.5,5.7-4,9.1-3.9c1.6,0.1,3.3,0.4,4.9,0.4c3.2,0,6.1-1.5,8.9-3c5.1-2.7,10.2-5.4,15.4-8.1
	c3.3-1.8,6.7-3.6,9.3-6.3c4.5-4.8,11.2-13.7,6.5-18.3c-1.2-1.1-2.9-1.5-3.3-3c-0.5-1.6-0.6-3.3-1.6-4.6c-0.6-0.8-1.4-1.3-2.2-1.8
	c-5.8-3.6-11.6-7.3-17.3-10.9c-0.4-0.3-0.5-0.4-1.1-0.3c-3.5,0.5-2.1-6.9-4.7-9.2c-0.6-0.5-1.4-1-1.9-1.6c-1.3-1.8-0.5-4.5-1.6-6.4
	c-1.2-2.1-4.2-2.4-5.8-4.1C90.1,2.8,89.6,1.8,89,1c-1.6-2.2-4.4-3.2-7-3.5c-1.9-0.2-3.9-0.2-5.6-1s-2.9-3.1-1.9-4.7"/>
<path fill="none" stroke="#E1E1E1" stroke-miterlimit="10" d="M-11.8,120.4c3.2-0.5,5.2,3.4,6.2,6.5c1.5,4.4,3.7,9.1,7.9,11.1
	c1.5,0.7,3.2,1.1,4.8,1.4c6.7,1.3,13.6,2.6,20.4,2.1c6.8-0.5,13.8-3,18.3-8.2c3.3-3.8,5.3-9.1,9.8-11.3c0.9-0.5,2-0.8,2.8-1.5
	c1.8-1.5,0.6-4.6,1.9-6.5c1.9-2.6,6.7-2.9,6.6-6.1c0-1.5-0.9-2.8-1.7-4.1c-3.4-5.6-6.2-12.4-4.6-18.8c0.5-2.1,4.1,0.1,6-1
	c0.7-0.4,1.1-1.2,1.4-2c2.3-5.8,5.2-12.6,11.3-13.6c4.6-0.8,9.4,2.3,13.9,0.8c2.1-0.7,3.7-2.3,5.7-3.1c3.4-1.5,7.4-0.8,10.9-2
	c6.7-2.2,9.5-9.9,11.4-16.7c0.2-0.8,0.5-1.7,0.4-2.5c-0.1-1-0.7-1.9-1.3-2.7c-5.2-6.9-9.7-10.1-20-16.1c-1.7-1,1.1-2.6-0.2-4
	c-1.3-1.4-3.4-1.9-5.3-2.3c-6.7-1.4-13.8,1.2-20.4-0.7C73.6,19,74,18,74.2,17.4c0.6-1.9-1.2-4.3-2.5-5.8c-0.4-0.4-0.7-0.8-1-1.3
	c-0.2-0.4-0.2-0.9-0.3-1.3c-0.2-2.9,0.9-5.7,0.9-8.6c0-2.6-0.8-5.1-2.4-7.2"/>
<path fill="none" stroke="#E1E1E1" stroke-miterlimit="10" d="M57.9-5.8c1.7,8.9,1.8,18.1,0.3,27c-0.2,1.4-0.5,2.8,0.2,4
	c0.5,1,1.6,1.6,2.6,2c6.3,2.9,13.8,2.9,20.1,0.1c0.8-0.3,1.5-0.8,2-1.5c0.4-0.7-0.7-1.3-0.6-2.1c0.4-2.2,10.7-2.5,13.1-2
	c1.3,0.2-1.7,2.6-0.9,3.6c0.7,0.8,4,3.5,7.3,5.3c4,2.2,11,6.8,12.7,14.9c0.3,1.3,0.4,2.7-0.1,3.8c-0.5,1-1.3,1.7-2.2,2.4
	c-4.8,3.8-9.9,7.7-15.9,8.6c-3.9,0.6-7.8-0.2-11.7-0.8s-7.9-1-11.7,0.1s-9.5,5-7.3,8.3c0.4,0.6,1.7,0.1,2,0.7c0.6,1.5-3,3.1-2.1,4.5
	c0.8,1.4,1.9,2.6,0.7,3.6c-1.2,1-3,1-4.6,0.9c-1.6,0-3.4,0.1-4.4,1.4c-0.7,0.9-0.7,2.1-1.2,3.1c-0.9,1.7-3.4,2.9-3.1,4.8
	c0.1,0.8,0.6,1.4,1,2.1c2.4,3.7,1.6,8.6,0.8,12.9c-0.7,3.3-1.3,6.6-2.9,9.5c-1.3,2.4-3.3,4.5-5.3,6.4c-3.9,3.8-8.4,7.5-13.8,8.6
	c-4.9,1-9.9-0.3-14.8-1.6c-2.1-0.6-4.2-1.2-5.9-2.6c-1.4-1.2-2.3-2.8-3.1-4.4c-4.8-9.7-5-29.7-5-31.7c-0.1-1.8-3.3-1.3-3.8-3.1
	s-0.2-3.6-0.6-5.4c-0.9-4.9-6.8-8.1-11.4-6.2"/>
<path fill="none" stroke="#E1E1E1" stroke-miterlimit="10" d="M-4.6-8c-1.3,0.9-0.9,2.8-0.3,4.2s1.1,3.3-0.1,4.3
	c-0.4,0.4-1.1,0.6-1.4,1c-1.1,1.7,3.8,3.3,2.6,4.8C-5,8.1-6.6,10-5,11.4c0.3,0.3,0.7,0.5,0.8,0.9c0.1,0.5-0.4,1-0.7,1.4
	c-1.2,1.3-1.5,3.3-0.8,5c0.3,0.7,0.8,1.4,1.1,2.1c0.8,2.4-1.3,5.3-0.1,7.5c0.2,0.4,0.6,0.8,0.8,1.2c0.6,1.3-0.3,2.8-0.9,4.1
	c-1,2.3-1.6,5.5,0.1,7.4c0.3,0.4,1.1,0.3,1.2,0.8c1.4,5.3-4.9,11-2.1,15.7c0.9,1.5,2.3,2.9,2.5,4.6c0.2,1.4-0.4,3.2,0.7,4
	c1.5,1.2,3.5-1.1,5.4-0.8c1.3,0.2,2.1,1.4,3.2,2c1.3,0.6,2.8,0.3,4.2,0.8c1.7,0.6,2.7,2.2,3.7,3.8c1.8,3,3.5,5.9,5.3,8.9
	c1,1.6,1.9,3.2,2.4,5c0.4,1.2,0.5,2.5,0.8,3.8c0.7,3.1,0.4,7.7,3.3,9.5c4.1,2.5,7,6.3,9.8,8.6c2.8,2.3,6-4.1,7.6-7.2
	c0.6-1.2,2.3-3,2.9-4.2c0.8-1.4,1.6-4.2,0.8-5.6c-0.5-0.7-1.3-1.1-2-1.7c-1.4-1.2-3.5-3.9-1.9-5c1.7-1.1,3.9,1.1,5.8,1.6
	c0.4,0.1,0.8,0.2,1.1,0.1c0.5-0.2,0.7-0.8,0.7-1.3c0.2-1.8-0.4-3.7-1.6-5c-0.4-0.5-0.9-0.9-1-1.5c0-0.6,0.3-1.1,0.6-1.6
	c1.1-1.8-0.4-4.7,1.2-6c1.6-1.4,4.3-0.5,5.5-2.2c1.2-1.7,1.8-3.8,2.5-5.8c1.4-3.8,3.8-7.2,6.1-10.6c0.4-0.6,0.9-1.2,1.5-1.7
	c0.6-0.5,1.4-0.7,2.2-0.8c6-1.4,12.3-0.7,18.5,0c0.9,0.1,1.9,0.2,2.7,0.6c1.2,0.6,2,1.9,3.1,2.7c1.7,1.3,4.1,1.5,6.2,1
	s4-1.6,5.9-2.6c2.1-1.2,5.5-4.1,3.6-5.7c-0.7-0.6-2.7,0.1-2.8-0.8c-0.1-1.3,0.4-2.2,1.1-3.3c0.6-1,1.8-1.5,1.3-2.5
	c-0.5-1-1.5-1.6-2.5-2.2c-3.2-1.7-6.4-3.3-9.7-5c-2.9-1.5-5.8-3-9-3.2c-3.1-0.2-5.9,1.4-8.8,2.4c-2.7,0.9-5.3,1.9-8,2.8
	c-1.4,0.5-2.4,0.5-3.5,1.5c-1.1,0.9-2.2,3-3.3,4c-2.2,2-5.7,1.7-8.5,1.3c-1.1-0.2-2.4,0.1-3.2-0.6c-0.5-0.5-0.8-1.2-1.1-1.8
	c-1.6-4.2-4.6-8.4-4.2-12.9c0.2-2.3,1.6-5,2.5-7c0.2-0.5,0.4-0.9,0.7-1.3c0.4-0.5,0.9-0.9,1.3-1.4c0.9-1.1,0.9-2.7,0.6-4
	s-0.8-2.7-1-4.1c-0.1-0.9-0.1-1.8-0.3-2.7c-0.9-3.1-5.2-4.2-6.3-7.3c-0.2-0.7-0.3-1.4-0.6-2s-1.1-1.1-1.7-0.8"/>
<path fill="none" stroke="#E1E1E1" stroke-miterlimit="10" d="M93,34.3c-0.5-0.3-0.9-0.6-1.4-0.8c-1.4-0.6-3.1-0.3-4.6,0
	c-2.2,0.5-4.4,0.9-6.6,1.4c-0.7,0.1-1.5,0.3-2.2,0.5c-0.8,0.2-1.6,0.6-1.9,1.3c-0.4,0.9,0.4,2,1.3,2.4c0.9,0.4,2,0.2,3,0.2
	c4.6-0.4,9.2,0.4,13.7,0c0.4,0,0.8-0.1,1.2-0.3c0.9-0.6,0.8-2,0.1-2.9S93.9,34.9,93,34.3z"/>
<path fill="none" stroke="#E1E1E1" stroke-miterlimit="10" d="M7.5-7.1c2,3,3.1,6.6,2.8,10.2c-0.1,1-0.2,2.1,0.2,3
	c0.3,0.6,0.9,1.1,1.5,1.4c3.4,2.2,7.7,2.8,11,5.2c4.4,3.2,6.3,9.5,4.3,14.5c-1.7,4.3-5.5,7.2-9,10.2c-3.6,3.2-6.9,6.6-9.8,10.4
	c-0.4,0.5-0.8,1.1-1,1.7c-0.4,1.6,1.1,3,2.4,4c3.1,2.2,6.6,3.8,10.3,4.6c2,0.5,4.1,0.7,5.8,1.9c1.1,0.8,2,1.8,2.9,2.9
	c1.5,1.8,3,3.6,4.4,5.5c0.9,1,1.8,2.1,3.1,2.5c2,0.6,4-0.8,5.7-2.1c2.1-1.7,2-4.9,4.2-6.5c1.2-0.9,3-0.1,4-1.1c1-1,1.6-2.5,2.2-3.8
	c0.6-1.5,1.2-3,1.3-4.6c0.1-1.6-0.4-3.3-1.7-4.3c-1.8-1.3-4.5-0.9-6.1-2.5c-0.6-0.6-0.9-1.4-1.4-2.1c-1.4-2.2-3.7-3.5-5.5-5.4
	c-1.8-1.8-3.3-4.7-2-6.9c0.4-0.6,1.3-0.4,1.8-0.8c2.8-2.1,0.5-7-0.2-10.4c-0.2-0.8-0.3-1.6,0-2.3c0.4-0.9,1.6-1.2,2-2.1
	c0.6-1.1-0.3-2.5-0.2-3.8c0.2-2,3.1-3.3,2.7-5.3C43.3,6,42.5,5.4,42,4.8c-1.1-1.2-1.8-2.7-2.5-4.2c-1.2-2.6-2.4-5.3-3.6-7.9"/>
<path fill="none" stroke="#D6D6D6" stroke-miterlimit="10" d="M110.9,321.4c0.1,2.2,1.9,4,3.7,5.3c1.8,1.3,3.9,2.4,5,4.3
	c1.1,1.7,1.4,3.9,2.8,5.2c1.2,1.1,2.9,1.4,4.5,1.9c3.9,1.1,7.4,3.4,11,5.4c5.2,2.9,10.8,5.1,16.5,6.7c6.1,1.7,12.4,2.6,18.8,2.7
	c2.4,0.1,4.9,0,7.3,0.2c3.1,0.2,6.1,0.8,9.1,1.5c2.4,0.5,4.9,1,7.3,1.5c5.2,1.1,10.3,2.1,15.4,3.5c0.7,0.2,1.4,0.2,2.2,0.2
	c10.7,0.6,21.4,3.7,31.4-0.4c5.8-2.4,11.1-6.1,17.3-6.9c1.6-0.2,3.3-0.2,4.9-0.3c6-0.3,12-1.5,17.5-3.9c1.6-0.7,3.1-1.5,4.7-2.3
	c3.2-1.7,6.4-3.3,9.7-5"/>
<path fill="none" stroke="#D6D6D6" stroke-miterlimit="10" d="M-13.2,305.5c5.4-1.5,11.2,0.4,16.8-0.4c2.5-0.3,5-1.2,7.5-0.7
	c4,0.8,6.5,4.8,10,7c1.8,1.1,3.8,1.8,5.7,2.7c1.9,1,3.7,2.4,4.4,4.3"/>
<path fill="none" stroke="#D6D6D6" stroke-miterlimit="10" d="M36.3,320.7c1.2-2.8,2.4-5.6,3.6-8.4c1.1-2.6,2.2-5.1,2.7-7.9
	c0.1-0.7,0.2-1.4,0.5-2.1c0.3-0.5,0.7-1,1-1.5c1.3-1.7,2.1-3.9,2.1-6.1c0-2.6-1-5.1-1.6-7.7c-0.6-2.6-0.8-5.5,0.6-7.6
	c1.1-1.6,3-2.7,3.9-4.4c1-1.9,0.7-4.2-0.1-6.1c-0.8-2-2-3.7-2.8-5.7c-0.7-1.8-1.1-3.6-1.6-5.5c-0.9-3.4-2.1-6.8-3.3-10.1
	c-0.7-2-1.4-4.1-2.2-6.1c-0.3-0.9-0.6-1.8-1.1-2.6c-0.6-0.9-0.8-1.9-1.1-3c-1.4-4.9-2.2-9.5-3.3-14.3c-0.2-0.9-0.5-1.9-0.9-2.7
	c-0.4-0.7-0.9-1.3-1.4-2c-0.5-0.8-0.8-1.6-1.3-2.4c-0.8-1.3-1.8-2.4-2.8-3.5c-3.8-4-7.7-8.2-12.6-10.7c-0.8-0.4-1.5-0.8-2.2-1.3
	c-0.9-0.7-1.4-1.7-2-2.7c-1.7-3-3.4-6-5-9c-1.3-2.4-2.7-4.8-4.7-6.7c-3.2-3-8-4.6-10-8.6"/>
<path fill="#EAEAEA" stroke="#D6D6D6" stroke-miterlimit="10" d="M310.4,268.5c0.5-0.6,0.9-1.3,0.8-2.1c-0.1-0.8-0.8-1.4-1.5-1.6
	c-0.8-0.2-1.6,0-2.3,0.3c-2.3,1-4.9,3.9-3.6,6.1c0.7,1.1,2.6,0.6,3.7,0C308.7,270.5,309.6,269.5,310.4,268.5z"/>
<path fill="none" stroke="#D6D6D6" stroke-miterlimit="10" d="M371.7,157.3c-2.3-1.3-4.5-3.2-6.4-5.1c-1.2-1.2-2.6-2.7-3.5-4.2
	c-1.8-3.2-4.7-5.5-7.5-7.8c-3-2.4-6.1-4.9-9.1-7.3c-2.7-2.1-4.5-4.1-7.9-3.9c-3.8,0.2-8.5,3.2-12.1,2.2c-1.9-0.6-3.3-2.2-4.9-3.5
	c-5-4.1-11.8-3.8-16.9,0.2c-1.5,1.2-3.8,2.4-4.1,4.3c-0.2,0.9-0.1,1.7-0.4,2.6c-0.5,1.3-1.1,1.5-2.4,1.8c-1.3,0.3-3.5-0.2-4.6,0.5
	c-1.9,1.3-2.6,3.9-4.9,4.1c-1.4,0.2-2.9-0.2-4.2,0.2c-1,0.3-2.3,2.2-3.2,2.8c-2.6,1.8-3.2,0.8-6.2,1.6c-0.4,0.1-2.6,1.2-3,1.2
	c-0.7-0.1-1.2-0.5-1.8-0.9c-1.7-1-3.8-1.1-5.5-0.3"/>
<path fill="none" stroke="#4E9BD7" stroke-miterlimit="10" d="M58.8,316.3c3.6-0.3,8.1,0.2,11-2c1-0.8,1.8-1.9,2.7-2.9
	c0.9-0.9,2.2-1.7,3.5-1.4c1.2,0.2,2.1,1.1,3,1.9c1.7,1.3,3.8,2,6,2.1c2.5,0,5.1-0.9,7.3,0.1c1.8,0.8,2.9,2.7,4.6,3.8
	c2.7,1.6,6.1,0.8,9.1,1.6c2.2,0.6,4.2,2.2,6.5,2.3c1.6,0.1,3.2-0.6,4.6-1.3c1.1-0.6,2.2-1.2,2.9-2.2c1.3-1.9,1.1-4.7,2.7-6.3
	c1.5-1.5,3.8-1.4,5.8-1.8c3.1-0.7,5.9-2.9,7.2-5.8c0.5-1.1,0.8-2.3,1.5-3.3c1-1.6,2.7-2.5,4.1-3.7c3-2.5,4.9-6.3,5.2-10.2
	c0.3-4.5-1.3-9-0.4-13.4"/>
<path fill="none" stroke="#4E9BD7" stroke-miterlimit="10" d="M-9.1,365.2c2.9-3.2,6-6.2,9.1-9.1c2.1-1.9,4.3-3.8,5.3-6.4
	c0.8-2.1,3-3.4,5-4.5c3.4-1.8,6.7-3.7,10.1-5.5c2.3-1.3,4.7-2.6,7.3-3.1c2-0.4,4.6-0.7,5.1-2.7c0.5-2.1-1.8-3.6-2.9-5.5
	c-0.8-1.3-0.4-2.9-0.4-4.5c0-1.4-0.4-2.9,0.3-4s2.2-1.9,3.5-1.5c1.2,0.4,2.2,1.4,3,2.5c0.7,1,1.8,1.5,2.9,0.8
	c4.4-2.8,10.6,0.2,14.9-2.8c0,0,0,0,0,0"/>
<path fill="#EAEAEA" stroke="#4E9BD7" stroke-miterlimit="10" d="M58.6,317.3c-0.1,0.4-0.3,0.9-0.6,1.2c-0.5,0.4-1.1,0.6-1.8,0.6
	c-0.5,0.1-1.1,0.1-1.6-0.1c-0.5-0.2-0.9-0.8-0.7-1.3c0.2-0.4,0.6-0.6,0.9-0.8c1.3-0.8,1.1-2.4,1.8-3.8c0.2-0.5,1.1-0.5,1.5-0.2
	c0.2,0.1,0.3,0.3,0.3,0.6C58.9,314.8,58.9,316.1,58.6,317.3z"/>
<path fill="none" stroke="#D6D6D6" stroke-miterlimit="10" d="M246.7,146.5c0.9-0.2,1.2-0.2,1.8,0.2c0.6,0.4,0.9,0.8,1.3,1.3
	c0.8,1,2.2,1.6,3.4,1.2c0.6-0.2,1.1-0.6,1.7-1c2.4-1.3,5.7-0.6,7.8-2.3c0.3-0.2,0.5-0.5,0.6-0.8c0.2-0.6-0.2-1.2-0.5-1.8
	c-0.7-1.2-1.4-2.3-2.2-3.5c-0.2-0.4-0.5-0.7-0.5-1.1c-0.1-1.2,1.2-1.8,2.3-2.3c1.8-0.8,3.4-1.9,4.7-3.3c0.6-0.6,1.2-1.3,1.2-2.2
	c0.1-1.1-0.8-2.1-1.7-2.7c-1.1-0.8-2.7-1-3.6-2c-1.4-1.4,1.2-3.7,2.9-4.9c1.7-1.2,3.4-2.4,5.1-3.6c1.3-0.9,2.5-1.8,4-2.3
	c0.7-0.2,1.4-0.4,2.1-0.8c1.7-0.9,2.4-3.1,2.5-5.1c0.1-2-0.3-4-0.1-5.9c0.3-3.1,2.2-6,4.9-7.5c0.6-0.3,1.2-0.6,1.5-1.2
	c0.5-0.9-0.2-2.1-1-2.7c-0.8-0.6-1.9-0.9-2.7-1.6c-0.8-0.7-1.2-2-0.5-2.8c1.1-1.1,3.4,0.1,4.4-1.1c0.3-0.3,0.3-0.8,0.4-1.2
	c0.1-0.8,0.5-1.6,0.4-2.4c-0.4-2.7-0.1-6.5,2.7-8.6c1.3-1,3-2.6,2.2-4.1c-0.5-0.9-1.6-1.1-2.3-1.7c-1.7-1.4-1.2-4.1-0.5-6.2
	c0.5-1.7,1.1-3.3,1.6-5c0.2-0.7,0.6-1.6,1.3-1.9c1.1-0.5,2.5,0.4,3.5-0.3c0.9-0.7,0.5-2.1,1.2-3c0.7-0.8,1.9-0.7,2.9-1
	c2.2-0.6,3.2-2.9,4.8-4.5c1.6-1.6,4-2.5,6.3-2.3c0.4,0,0.9,0.1,1.3,0c2-0.7,0-4.1,1.2-5.7c0.9-1.2,3.1-0.8,4.1-1.9
	c0.5-0.5,0.6-1.2,0.9-1.8c0.6-1.4,1.8-2.5,2.9-3.6c2.8-2.6,5.6-5.1,8.4-7.7c0.3-0.3,0.7-0.6,1.1-0.7c1.6-0.5,3.7,2.6,4.7,1.3
	c1.1-1.5,1.6-3.4,3.3-3.9c1.5-0.4,3.2-0.1,4.7-0.6c1.5-0.5,2.7-1.7,3.8-2.8c2-2.1,4-4.2,6-6.3c0.5-0.5,1-1.1,1.3-1.8
	c0.4-1,0.2-2.2,0.1-3.2c-0.4-5.1,1.5-10.3,5.1-13.9"/>
<path fill="none" stroke="#D6D6D6" stroke-miterlimit="10" d="M286.5,84.8c2.6-0.2,5.5-0.7,7-2.8c0.7-1.1,0.9-2.5,1.3-3.7
	s1.1-2.6,2.3-3.1c0.6-0.2,1.2-0.3,1.7-0.6c0.7-0.4,1-1.2,1.5-1.8c1-0.9,2.6-0.9,3.9-0.5c1.5,0.5,2.8,1.6,4.2,2.4
	c3,1.8,6.5,2.5,10,2.9c3.7,0.5,7.4,0.7,11,0.4c2.4-0.2,4.8-0.7,7.2-1.1c9.4-1.8,19.5-3,28.9-4.8c2.5-0.5,4.3-1.6,6.2-3.4"/>
<path fill="none" stroke="#D6D6D6" stroke-miterlimit="10" d="M192.2-6.8c0.3,2.6,2.5,4.9,5.2,5.2c1.1,0.1,2.3-0.1,3.4,0.2
	c2.2,0.6,3.5,2.9,4.4,5c0.6,1.2,1.1,2.5,1.4,3.9c0.2,1,0.1,2.1,0.4,3.1c1,3.6,5.5,4.7,8.2,7.2c1.7,1.6,2.8,3.8,4.1,5.8
	c4.5,7.1,11.8,11.8,19.1,15.9c3.2,1.8,6.6,3.5,10.2,4.2c1.1,0.2,2.3,0.3,3.4,0.5c5.8,1.1,10.4,5.9,16.2,7c1.6,0.3,3.2,0.3,4.8,0.6
	c3.3,0.7,11.2,7.3,11.8,7.8c0.9,0.7,2.1,1,2.8,1.8c0.5,0.6,1.3,1.2,1.2,2"/>
<path fill="#7BBCEB" stroke="#4E9BD7" stroke-miterlimit="10" d="M187,221.5c1.5-2.2,2.7-3.8,3.3-6c0.5-1.8,0-3.7-0.1-5.5
	c-0.1-1.8,0.4-4,2-4.9c1.3-0.7,3-0.4,4.4-0.8c1-0.3,2.1-0.9,2.9-0.2c0.2,0.2,0.3,0.5,0.6,0.6c0.6,0.3,1.2-0.4,1.4-1
	c0.2-0.6,0.6-1.5,1.2-1.4c0.6,0,1,0.8,0.9,1.4c-0.1,0.6-0.3,1.3-0.2,1.9c0.1,0.6,0.8,1.1,1.4,0.8c2.3-1.3,1.1-5.6,3.6-6.6
	c0.8-0.3,1.8-0.1,2.5-0.5c0.5-0.3,0.7-0.7,1.1-1.1c1.3-1.2,3.3-1.2,5.1-1.1c4.3,0.1,8.6-0.4,12.8-1.6c0.4-0.1,0.8-0.2,1.1-0.5
	c0.9-0.7-0.2-2.4,0.5-3.4c1.2-1.6,3.6-1.5,4.8-3c1.3-1.5,2.4-3.2,4.1-4.2c0.6-0.4,1.3-0.7,1.8-1.2c0.3-0.4,0.5-0.9,0.7-1.4
	c0.8-1.9,1.5-3.9,2.3-5.8c0.3-0.7,0.6-1.5,0.6-2.3c0.1-0.8-0.1-1.7-0.3-2.5c-0.7-3-1.2-5.9-1.5-8.9c-0.1-0.6-0.1-1.3,0.2-1.8
	c1-1.6,3.9,0.1,5.2-1.2c0.9-0.8,0.5-2.4-0.3-3.3c-0.8-0.9-2-1.5-2.7-2.5c-1.6-2.1,0.1-6.1,0.6-8.7c0.9-4.2-1.4-8.4-3.8-12
	c-3.2-4.9-6.6-9.7-10.7-13.9c-2.8-2.9-5.8-5.5-9.1-7.7c-1-0.7-2.1-1.4-3.3-1.6c-1.9-0.3-3.8,0.5-5.5,1.3c-1.3,0.6-2.5,1.2-3.6,2.1
	c-1.8,1.6-2.7,4-4,6c-2.6,3.9-6.8,6.5-11,8.8c-2.2,1.2-4.9,1.9-6.5,2.6c-1,0.5-1.5,2.1-2.4,3.5c-1.5,2.3-4.2,3-6.9,3.6
	c-4.2,0.9-8,3.5-10.2,7.1c-0.6,0.9-1.1,1.8-1.8,2.6c-0.8,0.8-1.9,1.2-2.9,1.7c-3.8,2-6.8,5.5-8.1,9.6c-0.3,1-0.5,2-1.1,2.9
	c-2.6,4.4-10.7,3.1-12.6,7.8c-0.5,1.3-0.5,2.8-1.4,3.8c-1.2,1.3-3.8,1.3-4.4,3c-0.3,0.8,0.1,1.6,0.3,2.5c1.5,6.5-1.6,11.3-3,12.5
	c-0.6,0.5,1.1,1.8,1,2.5c-0.1,1.9-0.9,3.8-1.7,5.6c-0.5,1.1-1.2,2.2-1.3,3.4c-0.1,1.6,0.8,3.1,1.1,4.7s-1.8,1.8-2.4,3.2
	c-0.4,1,1.4,2.5,0.5,4.8c-0.4,1-1,1.9-1.3,2.9c-0.9,3.1,1.4,6.3,1.3,9.5c0,1.6-0.6,3.3,0.1,4.8c0.4,0.8,1.1,1.3,1.5,2.1
	c2.4,4.3-0.6,7.8,0,8.7c1.7,2.4,3.5-1.2,4.4,6.5c0.3,2.9-1.1,5.8-0.6,8.7c0.2,1.3,0.8,2.5,1.3,3.7c0.8,1.9,1.7,3.8,2.7,5.6
	c1.3,2.3,3.1,6.5,4.9,6.1c1.9-0.4-0.7-4.9,0.9-6.1c0.9-0.7,1.8,0,2.5-1c0.7-1,1-2.1,1.6-3.1c1-1.7,2.8-2.9,4.2-4.3
	c1.4-1.4,1.4-3.6,2.7-5.2c2.9-3.4,5.4-5.1,9.4-6.2c2.3-0.6,4.8-0.2,6.8-1.5c1.8-1.1,2.9-3.5,5-3.9c0.5-0.1,1-0.1,1.5-0.3
	c1.1-0.5,1.3-1.9,1.9-3c0.7-1.4,2.9-1.1,3.9-2.2c1.6-1.8,0.3-4.9,1.8-6.8c0.4-0.5,0.8-1,1-1.6c0.3-1.6-1.6-2.8-1.8-4.5
	c-0.1-0.6,0.2-1.3-0.1-1.9C187.6,221.7,186.7,222,187,221.5z"/>
<g>
	<g>
		<path fill="none" stroke="#585858" stroke-miterlimit="10" d="M371.4,164.1c-0.2-0.1-0.4-0.2-0.6-0.3c-0.4-0.2-0.9-0.3-1.3-0.4"/>
		<path fill="none" stroke="#585858" stroke-miterlimit="10" stroke-dasharray="3.9768,0.9942" d="M368.6,163.7
			c-0.1,0.1-0.2,0.2-0.3,0.3c-0.5,0.6-0.3,1.7-1,2c-0.3,0.1-0.7,0-1-0.1c-2.2-0.7-5.5,0-6.6-2c-1.1-2.1-1.5-4.3-3.6-5.4
			c-2.1-1.1-6.6-1.7-7.2-4c-0.6-2.5-4.6-3.5-7.1-3.4c-0.6,0-1.3,0.1-1.9-0.1c-0.6-0.2-1.1-0.9-0.9-1.5c0.3-0.7,1.3-0.8,1.9-1.3
			c0.8-0.8-0.3-1.5-1-2.3c-1-1.1,2.1-2.6,1.6-3.9c-0.7-2.1-6.1-1.6-5.4-3.8c0.3-0.8,1.9-0.1,2.4-0.7c0.5-0.5,0.2-1.4,0.2-2.2
			c0-0.2,0-0.4-0.1-0.6c-0.3-0.5-1-0.3-1.5,0c-2.1,1-4.4,1.6-6.8,1.9c-0.5,0.1-1,0.1-1.5-0.1c-0.5-0.2-0.8-0.6-1.3-0.8
			c-0.5-0.2-1.1-0.1-1.7,0c-2.4,0.5-5,2.5-7.3,1.6c-1.8-0.7-2.5-3-4.1-4c-1.8-1.2-3.8-2-5.9-2.6c-0.7-0.2-1.5-0.5-1.7-1.1
			c-0.7-1.6,2.3-3.3,1.3-4.7c-0.9-1.4-3.3-0.6-4.6-1.7c-1-0.8-1-2.2-1.6-3.3c-0.4-0.7-1-1.3-1.1-2.1c-0.4-1.8,2.1-2.4,3.4-3.7
			c0.8-0.7-0.9-2.5-1.9-2.9c-1.1-0.4-2.3-0.6-3.5-0.6c-1.9,0-4.1,0.3-5.3-1.1c-1.4-1.6-0.4-4.1-0.7-6.3c-0.4-2.7-2.9-4.7-3.5-7.4
			c-0.5-2.8,1.1-5.4,2.8-7.7c0.5-0.6,1-1.3,1.2-2.1c0.4-1.7-0.6-3.4-2-4.3c-1.4-0.9-3.2-1.1-4.9-1.2c-0.6,0-1.2-0.1-1.7-0.4
			c-0.8-0.6-0.8-1.7-1.1-2.6c-0.3-0.7-0.9-1.3-1.7-1.6"/>
		<path fill="none" stroke="#585858" stroke-miterlimit="10" d="M281.3,75.8c-0.7-0.2-1.3-0.1-2,0.2"/>
	</g>
</g>
<path fill="none" stroke="#585858" stroke-miterlimit="10" stroke-dasharray="4,1" d="M210.6-6.5c-0.6,1.3-1.2,2.7-1.1,4.1
	c0.2,3,4.5,5.9,3,8.5C212,6.7,211,6,210.5,6.4c-1.6,1,0.6,3.8,1.7,5.5c1,1.5,2.4,2.9,2.6,4.7c0.1,1.4-0.6,2.8-0.4,4.3
	c0.1,0.8,0.6,1.6,1,2.3c1.1,1.8,2.1,3.6,3.2,5.5c0.2,0.3,0.4,0.6,0.7,0.8c0.3,0.1,0.6,0.1,0.9,0.2c0.9,0.2,1.5,1,2.1,1.7
	c3.1,3.6,7,6.3,10.8,9c1.2,0.9,2.8,1.3,3.7,2.6c0.2,0.2,0,0.7,0.2,0.8c0.8,0.4,1.3,1.2,2.2,1.1c0.7-0.1,0.7-1.6,1.3-1.2
	c0.3,0.2,0.3,0.6,0.4,0.9c0.2,2-0.5,5.4,1.4,5.9c1,0.2,1.3-2.7,2.2-2.2c0.6,0.3,0.7,1.2,1.4,1.2s1.4-0.4,2.1-0.4
	c1,0,1.4,1.2,2.3,1.6c0.3,0.2,1,0.1,1.2-0.2c0.4-0.6-0.5-1.6-0.1-2.3c0.4-0.7,1.6-0.1,2.2,0.4c0.6,0.5,1,1.2,1.5,1.8
	c1.4,1.6,3.5,2.5,5.3,3.7c4.1,2.6,7,6.9,7.8,11.6c0.1,0.6,0.2,1.2,0.6,1.7c0.3,0.4,0.7,0.6,1.2,0.9c3.6,2,6.9,4.8,8.8,8.4
	s2.2,8.3,0.1,11.8c-0.5,0.9-1.2,1.7-1.5,2.7c-0.4,1.6,0.3,3.3,0.2,5c-0.1,1.7-1.2,3.2-1.8,4.8c-1,2.7-1,5.6-0.9,8.5c0,1,0,2-0.5,2.8
	c-0.5,0.6-1.3,1-2.1,1.2c-5,1.8-10.4,4-12.8,8.8c-1.3,2.6-1.5,5.6-1.6,8.5c-0.2,4.2-0.4,8.4-0.7,12.5"/>
<path fill="none" d="M325.7,217.1c11.8-7.4,26.6-7.3,40-11"/>
<text transform="matrix(0.9459 -0.3245 0.3245 0.9459 333.4644 216.0104)"><tspan x="0" y="0" fill="#7D7D7D" font-family="'Verdana-Italic'" font-size="7">8</tspan><tspan x="4.3" y="0" fill="#7D7D7D" font-family="'Verdana-Italic'" font-size="7" rotate="4">6</tspan><tspan x="8.6" y="0.3" fill="#7D7D7D" font-family="'Verdana-Italic'" font-size="7" rotate="6.8">0</tspan><tspan x="12.9" y="0.8" fill="#7D7D7D" font-family="'Verdana-Italic'" font-size="7" rotate="8.4">0</tspan></text>
<text transform="matrix(0.6579 -0.7531 0.7531 0.6579 163.5894 206.1314)" fill="#FFFFFF" font-family="'Verdana-Italic'" font-size="8">Benson   Lake</text>
<path fill="none" d="M299.6,310.7c5.6-3.3,13.6,3.9,16,9.9c0.5,1.1,0.7,2.4,1.2,3.5c0.5,1,1.1,1.9,1.8,2.7c1.8,2.3,3.5,4.6,5.3,7"/>
<text transform="matrix(0.6256 0.7801 -0.7801 0.6256 309.4917 315.8254)"><tspan x="0" y="0" fill="#7D7D7D" font-family="'Verdana-Italic'" font-size="7">9</tspan><tspan x="3.9" y="-0.1" fill="#7D7D7D" font-family="'Verdana-Italic'" font-size="7" rotate="13.2">0</tspan><tspan x="8.1" y="1.2" fill="#7D7D7D" font-family="'Verdana-Italic'" font-size="7" rotate="15">0</tspan><tspan x="13" y="2.2" fill="#7D7D7D" font-family="'Verdana-Italic'" font-size="7" rotate="1.4">0</tspan></text>
<path fill="none" d="M32.5,338.8c7.5-2.1,15-4.2,22.4-6.2"/>
<text transform="matrix(0.9635 -0.2678 0.2678 0.9635 38.483 339.8303)"><tspan x="0" y="0" fill="#7D7D7D" font-family="'Verdana-Italic'" font-size="7">7</tspan><tspan x="4.4" y="0" fill="#7D7D7D" font-family="'Verdana-Italic'" font-size="7">4</tspan><tspan x="8.9" y="0" fill="#7D7D7D" font-family="'Verdana-Italic'" font-size="7">0</tspan><tspan x="13.3" y="0" fill="#7D7D7D" font-family="'Verdana-Italic'" font-size="7">0</tspan></text>
<path fill="none" d="M233.7,86.5c1.1-2,3.9-2,6.1-2.3c4.4-0.5,7.3-4.3,10.5-7.4"/>
<text transform="matrix(0.9724 -0.2332 0.2332 0.9724 234.7994 87.6467)"><tspan x="0" y="0" fill="#7D7D7D" font-family="'Verdana-Italic'" font-size="7">7</tspan><tspan x="4.4" y="0.4" fill="#7D7D7D" font-family="'Verdana-Italic'" font-size="7" rotate="0.1">6</tspan><tspan x="9.9" y="0.1" fill="#7D7D7D" font-family="'Verdana-Italic'" font-size="7" rotate="-23.3">0</tspan><tspan x="14.3" y="-1.9" fill="#7D7D7D" font-family="'Verdana-Italic'" font-size="7" rotate="-31.9">0</tspan></text>
<path fill="none" d="M171.1,261.2c2.2-1.7,5-2.4,7.7-3.2c7.1-2.1,14-5.1,20.3-9"/>
<text transform="matrix(0.9604 -0.2787 0.2787 0.9604 177.1646 261.1369)"><tspan x="0" y="0" fill="#7D7D7D" font-family="'Verdana-Italic'" font-size="7">7</tspan><tspan x="4.6" y="0" fill="#7D7D7D" font-family="'Verdana-Italic'" font-size="7" rotate="-3">8</tspan><tspan x="9.1" y="-0.2" fill="#7D7D7D" font-family="'Verdana-Italic'" font-size="7" rotate="-5.9">0</tspan><tspan x="13.7" y="-0.7" fill="#7D7D7D" font-family="'Verdana-Italic'" font-size="7" rotate="-8.9">0</tspan></text>
<path fill="none" d="M126.2,151.8c1.3-0.6,2.3-1.7,3.3-2.7c3.2-3.5,6.1-7.1,9-10.8c1-1.2,2-2.5,3-3.7"/>
<text transform="matrix(0.67 -0.7424 0.7424 0.67 130.2559 151.9977)"><tspan x="0" y="0" fill="#7D7D7D" font-family="'Verdana-Italic'" font-size="7">8</tspan><tspan x="4.5" y="0" fill="#7D7D7D" font-family="'Verdana-Italic'" font-size="7" rotate="-1.8">0</tspan><tspan x="9" y="-0.2" fill="#7D7D7D" font-family="'Verdana-Italic'" font-size="7" rotate="-3">0</tspan><tspan x="13.5" y="-0.4" fill="#7D7D7D" font-family="'Verdana-Italic'" font-size="7" rotate="-3.3">0</tspan></text>
<path fill="none" d="M252.5,6.4c6,4.6,14.2,4.5,21.8,4.2c7-0.3,14.1-0.6,21.1-0.9"/>
<text transform="matrix(0.9994 -3.476882e-02 3.476882e-02 0.9994 270.7749 13.322)"><tspan x="0" y="0" fill="#7D7D7D" font-family="'Verdana-Italic'" font-size="7">8</tspan><tspan x="4.5" y="0" fill="#7D7D7D" font-family="'Verdana-Italic'" font-size="7" rotate="-0.3">2</tspan><tspan x="8.9" y="0" fill="#7D7D7D" font-family="'Verdana-Italic'" font-size="7" rotate="-0.3">0</tspan><tspan x="13.4" y="-0.1" fill="#7D7D7D" font-family="'Verdana-Italic'" font-size="7" rotate="-0.3">0</tspan></text>
<path fill="none" d="M63.9,51.9c0.4-0.6,0.9-1.2,1.5-1.7c0.6-0.5,1.4-0.7,2.2-0.8c6-1.4,12.3-0.7,18.5,0c0.9,0.1,1.9,0.2,2.7,0.6"/>
<text transform="matrix(0.9794 -0.2018 0.2018 0.9794 66.4053 52.2072)"><tspan x="0" y="0" fill="#7D7D7D" font-family="'Verdana-Italic'" font-size="7">1</tspan><tspan x="4.1" y="0" fill="#7D7D7D" font-family="'Verdana-Italic'" font-size="7" rotate="7.8">0</tspan><tspan x="8.3" y="0.6" fill="#7D7D7D" font-family="'Verdana-Italic'" font-size="7" rotate="13.3">0</tspan><tspan x="12.5" y="1.6" fill="#7D7D7D" font-family="'Verdana-Italic'" font-size="7" rotate="16.6">0</tspan><tspan x="16.7" y="2.8" fill="#7D7D7D" font-family="'Verdana-Italic'" font-size="7" rotate="17.8">0</tspan></text>
<path fill="none" d="M13,173.5c11.7,0.4,24.8-0.2,32.8-8.6"/>
<text transform="matrix(0.9978 -6.576353e-02 6.576353e-02 0.9978 21.6153 176.114)"><tspan x="0" y="0" fill="#7D7D7D" font-family="'Verdana-Italic'" font-size="7">9</tspan><tspan x="4.7" y="0" fill="#7D7D7D" font-family="'Verdana-Italic'" font-size="7" rotate="-4.3">2</tspan><tspan x="9.3" y="-0.3" fill="#7D7D7D" font-family="'Verdana-Italic'" font-size="7" rotate="-9.9">0</tspan><tspan x="14" y="-1.2" fill="#7D7D7D" font-family="'Verdana-Italic'" font-size="7" rotate="-17.2">0</tspan></text>
<g>
	<g>
		<polyline fill="none" stroke="#7D7D7D" stroke-miterlimit="10" points="85.2,341.6 85.2,348.7 275.4,348.7 275.4,341.7 		"/>
		<line fill="none" stroke="#7D7D7D" stroke-miterlimit="10" x1="180.5" y1="341.4" x2="180.5" y2="348.7"/>
		<line fill="none" stroke="#7D7D7D" stroke-miterlimit="10" x1="161.2" y1="349.2" x2="161.2" y2="343.7"/>
		<line fill="none" stroke="#7D7D7D" stroke-miterlimit="10" x1="142.4" y1="349.2" x2="142.4" y2="343.7"/>
		<line fill="none" stroke="#7D7D7D" stroke-miterlimit="10" x1="123.3" y1="349.2" x2="123.3" y2="343.5"/>
		<line fill="none" stroke="#7D7D7D" stroke-miterlimit="10" x1="104.6" y1="349.2" x2="104.6" y2="343.7"/>
	</g>
	<text transform="matrix(1 0 0 1 83.7835 339.1469)" fill="#7D7D7D" font-family="'Verdana'" font-size="8">0</text>
	<text transform="matrix(1 0 0 1 174.2946 339.1469)" fill="#7D7D7D" font-family="'Verdana'" font-size="8">0.5</text>
	<text transform="matrix(1 0 0 1 258.3415 339.1469)" fill="#7D7D7D" font-family="'Verdana'" font-size="8">1 mi</text>
</g>
</svg>
