<?xml version="1.0" encoding="utf-8"?>
<!-- Generator: Adobe Illustrator 17.1.0, SVG Export Plug-In . SVG Version: 6.00 Build 0)  -->
<!DOCTYPE svg PUBLIC "-//W3C//DTD SVG 1.1//EN" "http://www.w3.org/Graphics/SVG/1.1/DTD/svg11.dtd">
<svg version="1.1" id="Layer_1" xmlns="http://www.w3.org/2000/svg" xmlns:xlink="http://www.w3.org/1999/xlink" x="0px" y="0px"
	 viewBox="0 0 360 360" enable-background="new 0 0 360 360" xml:space="preserve">
<path fill="none" stroke="#E1E1E1" stroke-miterlimit="10" d="M-13.1,248.4c4.6-2.1,8.5-5.8,10.8-10.3c1-2,1.7-4.1,3.5-5.5
	c1-0.8,2.3-1.2,3.4-1.7c4.3-1.7,8.1-4.8,10.6-8.6c0.4-0.6,0.8-1.2,1.4-1.5c0.7-0.4,1.5-0.3,2.3-0.2c3.2,0.2,6.6-0.4,9.3-2
	c2-1.2,4-2.4,5.6-4.1c1.6-1.7,2.7-4,2.4-6.3c-0.1-0.6-0.2-1.3-0.2-1.9c0.1-1.3,0.9-2.4,1.7-3.4c2.8-3.5,5.2-7.3,7.2-11.3
	c2.6-5.2,7-9.1,9.9-14.2c1.2-2,2.3-4.1,3.7-6c1.5-1.9,3.3-3.5,5.1-5.1c9.2-8.6,16.2-19.3,21.5-30.8c1.8-3.9,3.4-7.8,5.5-11.5
	c1.1-1.9,2.4-3.8,3.6-5.6c2.3-3.3,4.5-6.7,6.8-10c4.3-6.3,8.6-12.7,13.4-18.7c2.1-2.6,3.1-5.9,4.9-8.8c2.9-4.5,8.2-7.1,10.5-11.9
	c0.5-1,0.9-2.1,1.7-2.9c1-1.1,2.3-1.7,3.6-2.3c7.8-3.6,15.5-7.1,23.3-10.7c2.9-1.4,4.4-7,7.4-5.9c2.8,1,3.1,5.2,4.7,7.7
	c1,1.7,2.1,3.4,4,4c1.7,0.6,3.6-0.1,5-1.2s2.4-2.7,3.3-4.2c2.9-4.6,5.8-9.5,6-14.9c0.1-1.4-0.1-2.8,0.3-4.2c0.6-2.5,2.6-4.3,4.2-6.3
	c3.7-4.5,5.8-10.1,7.8-15.5c1.3-3.5,2.6-7,3.8-10.6c0.9-2.4,1.8-4.9,2-7.5c0.1-0.7,0.1-1.5,0.5-2.1c0.4-0.6,1-0.9,1.5-1.3
	c1.9-1.2,3.6-3,4.7-5"/>
<path fill="none" stroke="#E1E1E1" stroke-miterlimit="10" d="M-13.5,257.3c14.1-11.7,28.4-24.6,43.8-34.6c1.4-0.9,2.8-1.8,4.2-2.7
	c3.8-2.5,7.3-5.6,10.2-9.1c4.9-5.9,6.9-14.1,13.1-18.6c5.9-4.3,10.7-9.7,16.3-14.4c1.6-1.3,3.1-2.7,4.7-4c3.4-2.9,6.8-5.8,9.8-9.1
	c2.7-3,5-6.3,7.6-9.3c2.7-3.1,5.8-6,8.9-8.8c7.4-6.8,14.8-13.6,22.3-20.4c2.2-2.1,5.7-4.2,8-2.2c0.9,0.8,1.3,1.9,1.8,3
	c2.1,4.6,6.6,7.8,11.4,9.5c4.8,1.7,11.4-1.2,15,2.4c2.7,2.7,0.5,7.8,2.5,11.1c2,3.3,6.3,5.5,9.8,3.8c1-0.5,1.9-1.3,3-1.7
	c1.2-0.5,2.5-0.5,3.8-0.7c3.6-0.5,6.9-2.1,10.2-3.6c3.8-1.8,7.6-3.6,11.4-5.4c4.7-2.2,9.4-4.5,13.8-7.2c3.5-2.2,6.9-4.7,10.7-6.2
	c7.5-2.9,17.2-2.3,21.8-8.9c3-4.3,2.4-10,1.7-15.2c-1.1-8.3-2.2-16.5-3.3-24.8c-0.2-1.4-0.4-2.9-1.1-4.2c-0.7-1.2-1.9-2.1-3-2.9
	c-7.9-6.1-15.4-12.3-19.6-21.3c-4.3-9.3-1.1-21.3,0.8-31.4c0.6-3.1,1.3-6.2,1.1-9.4c-0.1-2.4-0.8-4.7-0.7-7.1
	c0.2-4.3,2.6-8.2,4.9-11.8c1.4-2.2,2.8-5.1,1.4-7.3"/>
<path fill="none" stroke="#E1E1E1" stroke-miterlimit="10" d="M-7.4,370.5c3-3.1,6.1-6.4,7.2-10.5c1.1-4,0.2-8.3,1.5-12.2
	c0.7-2.1,2-4,1.9-6.2c-0.1-2.5-1.9-4.5-2.9-6.8c-1.2-2.8-1.7-5.9-0.6-8.7c2-5.4,4.1-10.7,6.1-16.1c1.1-2.9,2.2-5.9,3.6-8.7
	c1.7-3.8,3.8-7.3,5.8-10.9c1.4-2.4,2.8-4.8,4.9-6.6c1.4-1.2,3.2-2,4.6-3.2s4.4-3.7,3-4.9c-0.4-0.4,2.6-2.4,3.3-2.9
	c2-1.4,4.1-2.6,6.3-3.6c4.5-2.1,9.2-3.4,13.4-6.1c4-2.6,7.4-6,11-9.1c3.6-3.2,8.3-4.5,12.1-7.3c1.7-1.2,3.6-2.5,5.2-3.9
	c1.6-1.5,3-3.1,4.3-4.8c3.2-3.9,6.3-8,9.8-11.6c3.4-3.5,7.1-6.7,10.8-9.9c1-0.8,1.9-1.6,3-2.3c1.4-0.9,3-1.6,4.3-2.6
	c1.5-1.3,2.5-3,3.9-4.5c1.2-1.4,2.7-2.5,4.2-3.6c4.2-3.1,8.4-6.2,12.6-9.4c1.4-1,2.8-1.6,4.4-1c1.6,0.6,3.1,3.1,4.6,2.3
	c2.5-1.4,2.6-5.3,5.1-6.8c0.8-0.5,1.6-0.9,2.5-1c1.4-0.1,2.6,1.7,3.9,1.2c1.9-0.6,1.5-3.7,1.2-5.6c-0.3-1.9-1.9-3.7-3.8-3.7
	c-1.1,0-2.2,0.5-3.4,0.4c-2.3-0.2-3.4-2.8-4-5c-0.6-2.2-1.6-4.7-3.9-5.1c-1-0.2-2,0.2-2.9,0.5c-1.8,0.6-3.7,1.3-5.5,1.9
	c-3.1,1.1-6.2,2.2-8.6,4.4c-2.7,2.5-4.5,6-7.5,8.1c-2.7,2-7.4,6.8-10.1,8.9c-3.1,2.5-6.7,4.5-10.1,6.6c-0.8,0.5-1.6,0.9-2.5,1
	c-1.5,0.1-2.9-1.2-3.3-2.6c-0.1-0.4-0.2-0.9-0.6-1.2c-0.6-0.5-1.6,0-2.3,0.4c-6.3,4-14.5,4-21.1,7.7c-1.3,0.8-2.6,1.6-3.8,2.5
	c-10,7.1-19.3,15.2-29.1,22.5c-6.4,4.8-12.4,10.1-18.6,15.2c-2.2,1.8-4.4,3.6-6,5.9c-0.7,1.1-1.3,2.2-2.1,3.2
	c-0.9,1.2-2.1,2.3-3.3,3.3c-5.6,4.9-11.1,9.9-16.7,14.8"/>
<path fill="none" stroke="#E1E1E1" stroke-miterlimit="10" d="M29.3,312.5c5.3,0.8,10.5-3,14.2-6.9c1.6-1.7,4.1-5.6,5.5-3.8
	c1.7,2.1-2.6,4.7-4.6,6.4c-1.2,1-2.4,2-3.2,3.3c-1.3,2.1-1.4,4.7-2.4,7c-1.9,4.3-6.7,6.4-11.1,8.1c-2,0.8-4.1-2.3-5.8-1
	c-0.9,0.6-1,1.9-1.5,2.9c-0.7,1.3-2.3,2.1-3.8,1.8c-0.4-0.1-0.8-0.3-1.3-0.2c-1,0.1-1.5,1.1-2.2,1.9c-1,1.1-3.1,2.4-4.1,1.4
	c-2.6-2.7,0.5-7.6,2.8-10.5s7.2-2.2,9.5-5.1c1.1-1.4,0.5-3.6,1.9-4.6C24.4,311.9,27.5,312.3,29.3,312.5z"/>
<path fill="none" stroke="#E1E1E1" stroke-miterlimit="10" d="M75.4,370.2c0.7-1.4,1.4-2.8,1.9-4.4c1-3.3,0.5-6.9,1.2-10.2
	c1-4.6,4.1-8.4,7.1-12c2.9-3.5,5.8-7,9.3-9.9c0.8-0.6,1.6-1.3,2-2.2c0.3-0.6,0.3-1.3,0.4-1.9c0.3-3.8,1.6-11.5,3.1-15
	c1.5-3.5,4.1-1,7.4-2.9c2-1.2-1.3-7.9-3.4-8.9s-3.2,2.1-5.5,2.3c-2.9,0.3-6.3,1-9.2,1.3c-3.6,0.4-7.3,0.9-10.5,2.7
	c-3.3,1.9-5.8,5.2-9.4,6.5c-1.5,0.6-3.3,0.7-4.6-0.3c-1-0.8-1.6-2.2-2.8-2.7c-1.2-0.5-2.6,0.3-3.4,1.4c-0.8,1.1-1.1,2.4-1.6,3.6
	c-1.5,3.4-4.4,6-7.3,8.4c-1.6,1.3-3.2,2.7-5.2,3.1c-0.9,0.2-1.9,0.2-2.7,0.7c-0.6,0.4-1.1,1-1.5,1.6c-3.8,5.2-7.6,6.8-12.2,11.3
	c-3.8,3.7-3.5,10.2-7.1,14c-3,3.2-7.3,5-10,8.4c-1.7,2.1-2.7,4.8-4.8,6.4"/>
<path fill="none" stroke="#E1E1E1" stroke-miterlimit="10" d="M110.3,371c2.7-4.7,5.5-9.3,9-13.5c1.2-1.5,2.5-2.9,3.9-4.1
	c0.8-0.7,1.8-1.4,2.4-2.3c0.9-1.5,1-3.3,1.3-5c0.8-4.4,3.7-8.2,7.3-10.9c3.6-2.7,7.7-4.5,11.8-6.3c6-2.6,12-5.2,18-7.7
	c3.2-1.4,3.8-5.7,6-8.3c0.4-0.5,0.8-0.9,1-1.5c0.3-0.9,0.1-1.9-0.1-2.8c-1.6-7.6-1.8-15.4-0.6-23.1c0.2-1.4,0.5-3-0.2-4.2
	c-0.6-1.1-1.9-1.7-3-2.5c-4.1-2.7-3.2-10.6-7.9-12.1c-9.3-2.9-20.1-2.1-28.6,2.7c-2.3,1.3-4.2,3.5-6.8,4.3c-2.6,0.8-6.2-1-5.6-3.6
	c0.2-0.8,0.7-1.5,1.3-2.1c4.4-4.6,10.6-6.9,15.2-11.2c3.2-3,5.6-6.8,8.2-10.3c3.3-4.5,7-8.5,10.8-12.6c4.7-5.1,9.6-10.4,15.8-13.6
	c2.6-1.4,5.4-2.3,7.9-3.8c1.9-1.1,3.7-2.5,5.5-3.9c5.1-3.9,12-6.3,15.3-11.8c0.7-1.1,1.4-1.9,2.5-2.7c1.6-1.2,3.2-2.4,5-3
	c0.6-0.2,1.2-0.3,1.7-0.6c0.7-0.3,1.4-0.8,2-1.4c8.2-7,19.2-9.5,25.5-18.2c6.3-8.7,10.5-18.7,14.6-28.7c2-4.8,4-9.6,5.9-14.4
	c0.6-1.5,1.2-2.9,2.1-4.2c3.1-4.3,8.7-5.6,13.6-7.6c5.9-2.3,11.2-5.9,15.6-10.4c0.8-0.8,1.6-1.7,2-2.8c0.4-1.2,0.4-2.5,0.4-3.7
	c0.1-4.3,1.1-8.5,3-12.4c0.4-0.8,0.8-1.6,0.8-2.4c0-1.3-1.2-2.3-1.5-3.6c-0.3-1.2-0.2-2.6-0.6-3.7c-0.4-1-1-1.8-1.5-2.7
	c-3.2-5.8-2.5-12.9-1.7-19.4c0.3-2.6,0.6-5.3,1-7.9c0.7-5.4,1.1-10.7,1.6-16.1c0.2-2-0.1-4,0.5-5.8c0.4-1.5,1.3-2.9,1.9-4.4
	c0.6-1.5,0.8-3.1,1.1-4.7c1.6-9.3,4.2-18.4,7.7-27.1c1.3-3.1,2.7-6.3,5.3-8.5"/>
<path fill="none" stroke="#E1E1E1" stroke-miterlimit="10" d="M106.8,282.8c0.1-0.2,0.2-0.4,0.2-0.7c0-0.5-0.4-1-0.8-1.2
	c-0.4-0.2-0.8-0.2-1.2-0.1c-1,0.3-1.5,1.6-1.6,2.7c0,0.2,0,0.5,0.1,0.6c0.1,0.1,0.3,0.1,0.4,0.2
	C105.1,284.4,106.3,283.8,106.8,282.8z"/>
<path fill="none" stroke="#E1E1E1" stroke-miterlimit="10" d="M119.3,370.4c4.5-7.1,9.8-13.7,15.1-20.3c1.8-2.2,3.6-4.4,5.9-6
	c4.2-2.7,9.4-2.9,14.3-3.5c7.3-0.9,14.3-3,21.2-5.6c0.3-0.1,0.8-0.2,1.1-0.4c5.6-2.7,10.4-7,15.3-10.9c1.3-1.1,2.7-2.2,3.7-3.6
	c1.1-1.5,1.7-3.3,2.3-5c2.3-6.7,4.6-13.5,6.4-20.3c0.8-3.1,1.5-6.2,2.9-9c2.3-4.7,6.3-8.4,8.5-13.2c1.9-4,2.4-8.4,3.6-12.6
	c1.2-4.2,3.4-8.5,7.4-10.4c1.4-0.7,2.9-1,4.4-1.6c3.8-1.7,6.2-5.4,9.6-7.8c4.8-3.4,11.1-3.8,16.8-5.4c5.7-1.6,10.9-4.4,15.8-7.8
	c0.8-0.6,1.7-1.2,2.2-2.1c0.5-1,0.6-2.1,0.5-3.2c-0.1-7-1.6-14-4.4-20.4c-1-2.2,0.6-4.7-0.5-6.8c-0.7-1.3-2.9-2.8-2.7-4.3
	c0.2-1.5,1.3-2.7,2.4-3.7c1.1-1,2.4-1.9,3.1-3.3c0.6-1.1,0.8-2.4,0.9-3.7c0.4-3.8,0.9-7.5,1.3-11.3c0.1-1,0.2-2,0-3
	c-0.2-0.8-0.5-1.6-0.6-2.5c-0.3-2.4,1.7-4.5,3.8-5.7c2.1-1.2,4.5-2,6.2-3.7c1.3-1.3,2.2-3.2,3.6-4.4c1.1-0.9,2.5-1.4,3.6-2.2
	c2.9-2.1,3.9-6.2,6.6-8.6c1.1-1,2.5-1.7,3.2-3c0.5-1.1,0.4-2.3,0.5-3.5c0.7-8.7,11.1-14.6,10.9-23.3c-0.1-2.7-1.2-5.4-0.9-8.1
	c0.3-2,1.4-3.9,2.1-5.8c1.7-4.3,1.8-9.2,0.3-13.5c-0.6-1.5-1.9-3-2.8-4.3c-1.9-2.8-2.2-6.5-2.1-9.9c0.1-3.1,0.4-6.1,1-9.1
	c0.3-1.8,0-4.6,0.2-6.5c0.2-2.4,2-4.1,3.1-6.2c0.9-1.8,0.8-3.9,0.9-6c0.3-9.5,4.1-18.9,10.5-26c0.6-0.6,1.1-1.2,1.5-2
	c1-2.1-0.1-4.8,1-6.8c1.4-2.6,5.4-0.5,8.1-1.7c3-1.4-2-6-2.2-9.3c-0.2-1.9,0.8-3.6,1.7-5.3c0.4-0.7,0.8-1.5,1.2-2.2"/>
<path fill="none" stroke="#E1E1E1" stroke-miterlimit="10" d="M371,247c-6-5.3-12.7-9.8-19.7-13.6c-4-2.1-8.1-4-11.9-6.4
	c-3-1.9-5.7-4.1-8.9-5.6c-6.7-3.2-15.2-3.3-20-8.9c-5.4-6.3-2.9-15.1,1.6-22.9c3.4-5.9,6.2-12.1,4.4-18.7c-0.5-1.8-1.3-3.5-1.6-5.4
	c-0.7-4.6,2.1-8.9,4.7-12.7c2.6-3.8,7-8.7,11.6-9.3c5.6-0.8,15.9,9.5,15.3,3.8c-0.6-5.5-1.2-12,0.2-17.3c1.3-5.1-10.5,4.7-14.8,1.7
	c-2.3-1.6,2-6.2,0.2-8.3c-1.3-1.5-4.7,1.8-6,0.2c-2.4-2.9,0.1-14,2.3-20.6c0.8-2.5,3-5.4,5.4-4.3c1.3,0.6,1.8,2.1,2.5,3.3
	c2.3,4.5,6.9,7.3,11.4,9.8c1.3,0.7,2.6,1.4,4,1.5c1.4,0.1,2.7-0.3,4-0.6c4.5-1.1,9.4-0.8,13.8,0.8"/>
<path fill="none" stroke="#E1E1E1" stroke-miterlimit="10" d="M252,370.6c-1-8.8-2-17.5-3-26.3c-0.3-2.8-0.7-5.7-2.3-8.1
	c-1.7-2.5-4.7-4.1-5.9-6.9c-0.9-2.1-0.7-4.6-1.5-6.8c-1.9-4.9-8.2-6-12.4-9.1c-3.7-2.8-5.8-7.5-5.4-12.1c0.6-6.7,2.7-12.9,5.6-19
	c2.2-4.5,5.2-8.6,8.4-12.6c7-8.7,14.8-17,24.6-22.4c6.1-3.4,12.9-5.7,19.2-8.7c2.5-1.2,5-2.6,7.6-3.3c5.1-1.3,10.5-0.1,15.6,1.1
	c2.4,0.6,4.9,1.2,6.6,2.9c1.1,1.1,1.8,2.5,3,3.5c1.2,1,2.7,1.4,4.2,2.1c2.8,1.2,5.1,3.2,7.5,5.1c4.5,3.7,9,7.4,13.5,11.1
	c5.1,4.2,10.3,8.5,13.4,14.2c1.3,2.4,2.5,5.3,4.9,6.5c1.2,0.7,2.7,0.8,4,1.1c3.9,0.9,7.6,2.8,10.4,5.7"/>
<path fill="none" stroke="#E1E1E1" stroke-miterlimit="10" d="M129.9,371.1c3.1-5.6,8-11.8,14.2-17.3c12.6-11.1,38.4-12.1,39.3-10.7
	c3.3,5.2-0.1,12.4,0.8,18.4c0.1,0.8,0.3,1.6,0.8,2.3c0.6,0.7,1.4,1.1,2.3,1.5c2.6,1.3,5,2.9,7.1,5"/>
<path fill="none" stroke="#E1E1E1" stroke-miterlimit="10" d="M261.6,370.3c0-1.1,0.1-2.3,0.3-3.6c1.6-13.3-5.8-24.6-7.9-38
	c-0.4-3-3.3-4.8-5-8c-5-9.5-13.7-16.8-17-27c-1.3-3.9-0.1-9.1,3-12c6.8-6.3,10.7-13.2,16-19c4.8-5.2,12.3-5,17-11
	c16.2-20.8,44.3,4.1,63,18c1.8,1.3,5.1,2.8,8,4c2.1,0.9,3,2,4,4c2,4,1.6,9.2,4,13c5.1,8.3,14.6,12.6,22.4,18.5"/>
<path fill="none" stroke="#E1E1E1" stroke-miterlimit="10" d="M140.6,371c0-0.4,0-0.9,0-1.3c0-4.3,4.5-7,8.3-8.8
	c1.8-0.9,3.8-1.7,5.8-1.4c3.2,0.6,4.9,4,6,7c0.5,1.4,1,2.9,1.5,4.6"/>
<path fill="none" stroke="#E1E1E1" stroke-miterlimit="10" d="M315.7,370.2c1.8-1.3,3.2-2.9,4.7-4.5c0.9-1,2-2,3.4-2.1
	c0.4,0,0.8,0,1.1-0.1c0.5-0.3,0.6-0.9,1-1.4c0.8-1,2.6-0.9,3-2.1c0.5-1.2-1-2.2-1.7-3.3c-0.7-1.1-0.8-2.7-1.9-3.3
	c-0.7-0.4-1.7-0.3-2.6-0.3c-2.1,0-4.1-1.1-5.3-2.8c-1.5-2-1.7-4.7-2.5-7.1c-0.4-1.1-1.1-2.3-2.2-2.4c-1-0.1-2,0.6-2.5,1.6
	c-0.5,0.9-0.7,2-1.1,2.9c-0.6,1.5-1.8,2.7-2.5,4.2c-0.5,1-0.7,2.1-0.9,3.2c-1,6.2-0.2,12.7,2.2,18.4"/>
<path fill="none" stroke="#E1E1E1" stroke-miterlimit="10" d="M307.9,370.9c0.2,0.4,0.3,0.7,0.6,1c0.3,0.2,0.6,0.3,1,0.3
	c2.2,0.2,4.3-0.7,6.1-2"/>
<path fill="none" stroke="#E1E1E1" stroke-miterlimit="10" d="M296.7,370.3c-0.4-3.8-0.9-7.6-1.6-11.6c-0.9-5.4-1.9-11-0.6-16.4
	c0.8-3.4,2.6-6.5,4-9.7c4.3-9.4,6.3-19.8,5.8-30c-0.1-1.5-0.2-3.1-1-4.5c-1.2-2.2-3.6-3.2-5.9-4.2c-8.5-3.5-16.9-7-25.4-10.5
	c-3.7-1.5-10.2-3.1-9.3-6.9c0.5-2,4.2-0.9,5.6-2.4c1.2-1.2-1-4.4,0.5-5c1.3-0.6,1.9-0.7,3-1.6c1.5-1.2,3.5,3.5,5.1,2.5
	c1.6-1,2.3-2.6,4.2-2.5c15.4,1.2,30.1,9,39.9,21c0.8,1,1.7,2.2,1.8,3.6c0.1,1.4-0.7,2.7-1.5,3.9c-4.4,7.2-7.6,15.1-9.4,23.4
	c-1.3,6-1.7,12.8,1.8,17.9c4.8,6.9,15.5,8.8,18.3,16.7c1,2.8,0.7,6,1.5,8.9c0.6,2.2,1.9,4.3,3.6,5.8c2,1.8,4.8,2.9,7.3,2
	c1.2-0.4,2.2-1.2,3.3-2c6.8-5.4,11.9-17.7,20.5-16.3"/>
<path fill="none" stroke="#E1E1E1" stroke-miterlimit="10" d="M285.5,370.5c-0.2-0.8-0.4-1.5-0.6-2.3c-2.4-7.9-6.3-15.9-4.2-23.9
	c1.5-5.7,5.9-10.9,4.9-16.6c-0.6-3.5,4.5-5.7,5.4-9.2c0.7-2.5-0.7-5.1-2.5-7c-2.9-3-6.9-4.9-11-5.3c-2.4-0.2-5.1,0.1-7.1-1.3
	c-1.1-0.7-1.8-1.9-2.9-2.6c-1.2-0.9-2.8-1.2-4.3-1.5c-6.7-1.6-16.3-2.7-18.2-9.4c-0.7-2.4,5-1.4,5.7-3.8c0.4-1.3-1.8-2.2-1.3-3.4
	s2.1-0.9,3.3-1.5c5.4-2.6,1.4-13.2,6.1-17c4-3.3,10.2-2.2,15.1-4.2c2.3-1,4.6-2.1,7-2.2c1.8-0.1,3.5,0.3,5.2,0.8
	c8.1,2.2,15.9,5.8,22.9,10.4c3.8,2.5,7.4,5.4,10.9,8.3c4,3.3,8.1,7.1,9.3,12.1c0.4,1.9,0.4,3.9-0.5,5.6c-0.8,1.4-2.2,2.7-2.2,4.3
	c0,1.1,0.8,2.2,0.5,3.4c-0.3,1.4-1.9,2-2.9,3c-2,2.1-1.1,5.5-1.3,8.5c-0.2,2.7-1.7,5.3-1.9,8c-0.5,5,2.8,9.5,6,13.4
	c2.4,3,4.9,6.1,7.3,9.1c3.5,4.3,7.4,8.9,12.9,9.8c1.4,0.2,3,0.2,4.3-0.5c1.9-0.9,3.1-2.9,4.7-4.3c3.8-3.4,9.7-3.5,14.5-1.8"/>
<path fill="none" stroke="#E1E1E1" stroke-miterlimit="10" d="M272.1,370.1c-4.3-9.5-9.5-18.7-9.2-29c0-1,0.9-1.7,1-2.7
	c1.1-8.7-6.7-14.2-10.9-20.7c-4-6.1-6.3-12.7-11-19c-4.3-5.8-3.5-16.3,3-19c0.9-0.4,2,0.2,3,0c7.5-1.5,0.8-13.4,5.5-15.2
	c7.8-3.1,15.3-6,21.5-11.8c15.9-14.9,35.2,14,51,26c2.9,2.2,5.2,3.7,8,6c2.2,1.8,2.8,5.9,2,9c-2.9,11.8-7,22.1-5,34
	c0.7,4.1,1.9,9.1,5,12c7.8,7.3,20.7,5.5,26-3c2.4-3.8-0.2-11.8,5-14c0.9-0.4,1.6-0.3,2,0"/>
<path fill="none" stroke="#E1E1E1" stroke-miterlimit="10" d="M166.5,94.2c-0.8,1-1.1,2.2-1.7,3.3c-1.4,2.3-4.1,3.3-6.2,4.8
	c-5.3,3.9-8.8,15.1-2.7,17.7c1.6,0.7,1.7-2.8,3.3-3.4c2.5-0.8,5.7-0.8,7.3,1.4c2,2.7-3.2,6-2.3,9.2c0.3,1.1,0.8,2.2,1.8,2.8
	c0.7,0.5,1.5,0.6,2.2,1.1c1,0.7,1.5,1.9,2.3,2.8c2,2.3,5.8,2.4,8.6,1s4.9-3.8,7-6c0.5-0.5,1.1-1.1,1.8-1c0.4,0,0.7,0.2,1,0.4
	c1.9,1.1,4.1,1.9,6.4,1.7s4.4-1.6,5.2-3.6c0.4-1,0.5-2.1,0.7-3.2c0.4-2.6,1.4-5,2.1-7.5c0.7-2.5,1-5.2,0.1-7.6
	c-0.9-2.4-4-2.4-5.9-4.1c-0.9-0.9,0.7-2.6,0.2-3.7c-0.7-2-3.9-1.2-6-1.4c-2.1-0.2-5.4-2.2-3.9-3.8c1.8-2,1.4-4.1,1.7-6.8
	c0.3-2.7,4.2-5.3,2.4-7.3c-1.6-1.8-4.8-0.1-6.7,1.3s-3.4,3.4-5.1,5c-2.2,2-4.9,3.5-7.8,4.3C170,92.2,167.8,92.6,166.5,94.2z"/>
<path fill="none" stroke="#E1E1E1" stroke-miterlimit="10" d="M-15.3,237.9c6.1-2.3,10.3-7.7,15.3-11.9c1.6-1.4,3.4-2.7,5.1-4
	c3.1-2.3,6.2-4.6,9.3-7c0.6-0.4,1.1-0.9,1.7-1.3c2.1-1.6,4.3-3.2,6-5.2c1.1-1.3,2.1-2.7,3.1-4.2c2.5-3.7,4.8-7.4,7.2-11.2
	c6.1-9.3,11.9-18.8,17.5-28.4c1.5-2.5,2.9-5.1,4.4-7.6c0.9-1.6,1.9-3.2,2.8-4.9c1.2-2.2,2.5-4.3,3.7-6.5
	c7.1-12.6,14.1-25.3,20.8-38.2c0.4-0.9,0.9-1.7,1.5-2.5c1.2-1.3,2.8-2.1,4.3-3c6.3-3.7,11.2-9.9,13.3-16.9c0.4-1.4,0.8-2.8,1.7-3.8
	c0.8-0.9,2-1.3,3.2-1.8c5.3-2.1,10.2-5.5,14.1-9.7c0.8-0.9,1.6-1.8,2-2.9c0.5-1.2,0.6-2.5,0.9-3.8c1.1-5,4.8-9.3,9.5-11.2
	c3.2-1.2,5.1-3.9,8.3-5.2c3.1-1.3,6.9-1.7,9.9-0.1c1.4,0.8,3.5,1.8,4.3,0.3c0.2-0.4,0.2-0.8,0.2-1.3c0.1-3.7,1.2-7.4,3.2-10.6
	c2.9-4.5,7.6-8.2,8.2-13.5c0.1-0.5,0.1-1.1,0.3-1.6c0.2-0.5,0.7-0.9,1.1-1.3c9.4-8.9,13.4-21.8,17-34.2"/>
<path fill="none" stroke="#E1E1E1" stroke-miterlimit="10" d="M-12.3,217.7c0.4,2.4,3.4,3.6,5.8,3s4.1-2.6,5.7-4.4
	c1.7-2,3.4-3.9,5.1-6c3-3.6,5.9-7.4,7.5-11.8c0.3-0.9,0.6-1.9,1.1-2.8c0.4-0.7,1-1.2,1.6-1.7c7.8-7.4,10.9-18.5,18.6-26.1
	c7.6-7.5,8.1-19.6,13.1-29.1c2.4-4.5,5.8-8.4,7.8-13.1c1.1-2.5,1.9-5.2,3.2-7.7s3.4-4.7,6.1-5.3c0.7-0.2,1.3-0.2,2-0.5
	c1.7-0.7,2.5-2.6,3.3-4.2c3.5-7.5,9.2-13.8,14.8-19.9c0.4-0.5,0.9-0.9,1.4-1.2c0.8-0.4,1.7-0.3,2.6-0.2c4.2,0.1,8.3-2.1,10.6-5.6
	c0.8-1.3,1.4-2.7,2.4-3.9c0.9-1.1,2.1-1.9,3.2-2.8c6.9-5.5,10-14.5,16.1-21c6.3-6.8,4-18.1,8.8-26c3.4-5.6,8.2-9.3,11-15.2
	c4.3-9,10.4-17.6,9-27.5"/>
<path fill="none" stroke="#E1E1E1" stroke-miterlimit="10" d="M122.3-15c-4.1,4.3-5.9,10.1-7.5,15.8c-1.1,3.6-2.1,7.2-3.2,10.8
	c-0.5,1.8-1.1,3.7-1.2,5.6c-0.2,3.6,1,7.1,1.4,10.7c0.3,2.8,0.2,5.5,0,8.3c-0.3,6.1,0.3,13.1-3.1,18.2c-3.8,5.8-6.5,15.2-13.4,16
	c-4.2,0.5-1.7-8.9-5.3-11.1c-2.3-1.4-4,3.4-4.9,6c-0.8,2.5-1.2,5.2-2.5,7.5c-1.1,1.9-2.6,3.5-4,5.2c-3.2,4.1-5.5,9.5-10.4,11.3
	c-2.1,0.8-4.5,0.8-6.4,2c-1,0.7-1.8,1.7-2.5,2.7c-2.2,2.8-4.3,5.7-6.5,8.5c-1.5,2-3.1,4-4.3,6.3c-1.6,2.9-2.5,6.2-3.6,9.3
	c-3.1,8.8-5.2,14-11.3,21.1c-5.9,6.9-5.3,18-11,25.1c-0.9,1.1-1.8,2-2.6,3.2c-0.7,1.1-1.2,2.4-1.8,3.6c-1.2,2.6-2.9,5.1-4.9,7.2
	c-1.5,1.6-3.3,3-4.7,4.8c-1.1,1.3-1.9,2.8-3.1,4.1c-4.3,4.8-11.5,5.5-18,5.8c-1.2,0.1-2.6,0-3.4-0.9"/>
<path fill="none" stroke="#E1E1E1" stroke-miterlimit="10" d="M32.3,103.8c3.2-4.2,6.5-8.5,9.7-12.7c0.4-0.5,0.7-1,1.3-1.2
	c0.9-0.3,1.9,0.3,2.4,1.1c0.4,0.9,0.4,1.9,0.3,2.8c-0.3,2.7-1.1,5.4-2.5,7.8c-1.3,2.3-3.1,4.2-4.3,6.6c-0.5,0.9-0.8,1.9-1.2,2.8
	c-1.4,3.1-3.8,5.7-5.5,8.7c-5.1,8.7-9.6,18.4-11.7,28.3c-0.2,1.1-0.5,2.3-0.9,3.4c-0.6,1.5-1.7,2.7-2.6,3.9c-3.1,4-5.4,8.4-8.5,12.4
	c-3,4-6.9,7.6-11.7,9c-0.8,0.2-1.6,0.4-2.4,0.3c-1.8-0.3-3.1-1.9-3.5-3.7c-0.4-1.7-0.2-3.5,0-5.3c0.8-7.1,0.8-14.3,0.3-21.4
	c-0.3-3.2-0.7-6.5-0.2-9.7c0.5-3.4,1.9-6.5,3.4-9.7c1.3-2.7,2.6-5.6,5.1-7.3c1.9-1.3,4.2-1.8,6.4-2.3c3-0.6,5.9-1.2,8.9-1.8
	c1.1-0.2,2.2-0.4,3.2-0.9c0.8-0.4,1.6-0.9,2.4-1.4C24.6,111,29.3,107.7,32.3,103.8z"/>
<path fill="none" stroke="#E1E1E1" stroke-miterlimit="10" d="M70.7,58.9c0.5-1.1,1.1-3.4,2.1-2.7c3.1,2.1,0.4,7.4-0.5,11.1
	c-0.4,1.7,0.4,4.3-1.2,5.1c-0.9,0.5-2-0.8-2.9-1.2c-0.4-0.2-0.8-0.3-1.1-0.6c-0.9-0.8-0.7-2.2-0.3-3.4c0.7-2.4,1.7-4.6,3-6.7
	C70.1,60,70.5,59.5,70.7,58.9z"/>
<path fill="none" stroke="#E1E1E1" stroke-miterlimit="10" d="M-13.9,122.5c4.1-1.3,7.5-4.3,11.5-5.9c3.1-1.2,6.4-1.5,9.6-2.1
	c4.3-0.9,8.5-2.5,12.6-4.1c1.1-0.4,2.2-0.9,3.1-1.7c1.1-0.9,1.7-2.3,2.5-3.4c2.5-3.4,5.6-5.7,8.7-8.6c2.5-2.2,3-6,5.2-8.4
	c0.7-0.8,1.6-1.4,2.4-2.1c3.4-2.7,6.5-5.8,9.6-9c2.2-2.3,4.5-4.6,5.9-7.4c2.5-5.1,2.1-11.7,6.3-15.5c1-0.9,3.9-3.6,3.9-4.9
	c-0.1-4.1,5.9-5.3,8.9-8.1c1.1-1,1.9-2.2,3-3.3c2.3-2.3,5.5-3.6,7.7-5.9c4.7-5,3.9-12.9,4.7-19.7c0.1-1,0.3-2.1,0.1-3.1
	c-0.2-1.1-0.9-2.1-1.5-3.1c-1.4-2.5-2.1-5.5-2-8.4c0-0.8,0.1-1.6-0.1-2.3c-0.3-0.8-1-1.3-1.6-1.9c-3-2.7-5.2-6.4-6.1-10.3"/>
<path fill="none" stroke="#E1E1E1" stroke-miterlimit="10" d="M66.1-13.7c1.3,3.8,0.6,8.2-1.7,11.4c-1.2,1.8-2.9,3.2-4,5.1
	c-1.6,2.8-2.8,7.5-0.1,9.4c2.6,1.8,6.4-1.9,9.4-0.9c1.7,0.6,2,3.1,3,4.7c0.5,0.9,1.1,1.9,0.7,2.9c-0.2,0.5-0.6,0.8-0.8,1.3
	c-0.6,0.9-0.5,2-0.7,3c-0.3,3-1.8,5.8-3.2,8.4c-1.4,2.7-2.9,5.5-5.2,7.5c-0.6,0.5-1.3,1-2.1,1.2c-0.7,0.2-1.5,0.1-2.2,0.2
	c-1.3,0.3-2.2,1.5-3,2.7c-1.4,2-3.8,3.6-4.1,6c-0.4,2.7-1.2,5.1-2,7.6c-1.4,4.2,0.2,9.4-2.5,12.9c-0.6,0.7-1.3,1.3-1.8,2.1
	c-0.6,0.9-1,1.9-1.4,3c-2,5-7.1,7.9-10.2,12.3c-0.9,1.3-1.7,2.8-2.6,4.1c-0.4,0.6,0.5,1.6,0,2c-1.2,1-2,1.9-2.7,3.3
	c-0.5,0.9-1.3,1.6-2.2,2.3c-1.8,1.4-3.5,2.8-5.3,4.2c-1,0.8-2.1,1.6-3.3,1.5c-0.8-0.1-1.6-0.5-2.4-0.5c-2.3,0.2-2,3.9-3.6,5.6
	c-1.2,1.2-3.2,1.1-4.9,1.1c-7.3,0.2-13.5,5.4-20.7,6.9"/>
<path fill="none" stroke="#E1E1E1" stroke-miterlimit="10" d="M309.5,284.7c0.5,0.1,1.1,0.1,1.4-0.3c0.1-0.2,0.2-0.5,0.2-0.7
	c0-0.4,0.1-0.9,0.1-1.3c0-0.3,0-0.5-0.1-0.7c-0.1-0.1-0.3-0.2-0.5-0.2c-0.6-0.1-1.2-0.1-1.8-0.1c-0.4,0-0.9,0-1.2,0.2
	c-0.4,0.2-0.7,0.5-0.8,0.9c-0.1,0.7,0.4,1.2,1,1.6C308.2,284.3,308.8,284.6,309.5,284.7z"/>
<path fill="none" stroke="#E1E1E1" stroke-miterlimit="10" d="M27.8,208.5c-0.2-0.1-0.5-0.1-0.7,0c-0.7,0.4-0.6,1.5,0,1.9
	c0.6,0.4,1.5,0.3,2.1-0.2c0.7-0.6,0.9-1.8,0.2-2.4c-0.6-0.7-2-0.4-2.1,0.5"/>
<path fill="none" stroke="#E1E1E1" stroke-miterlimit="10" d="M16.1,149c0.1-0.3,0.2-0.6,0.1-0.9c-0.1-0.3-0.3-0.6-0.5-0.9
	c-1.6-2.6-0.5-5.8,0.4-8.7c1.2-3.8,1.9-7.7,2.2-11.7c0.1-1.2-0.2-2.8-1.4-2.9c-0.7,0-1.3,0.6-1.7,1.2c-4.7,6.7-6,15.2-7.2,23.3
	c-0.5,3.3-3,7-1.4,10c0.6,1,2.3-0.3,2.9-1.4s0.8-2.2,1.5-3.2C12.3,151.9,15.2,151.2,16.1,149z"/>
<path fill="none" stroke="#E1E1E1" stroke-miterlimit="10" d="M-12.1,112.2c5.2-2.6,10.8-4.2,16.6-4.7c1.2-0.1,2.6-0.2,3.6-0.8
	c2.5-1.6,2.9-6.3,6-6.4c1.1,0,2.2,0.7,3.3,0.8c2.9,0,3.8-4.1,6.4-5.3c0.9-0.4,2.1-0.5,2.7-1.3c0.6-0.7,0.4-1.8,0.6-2.7
	c0.4-1.7,2.1-2.7,3-4.1c1.8-2.7,0.6-6.6,2.4-9.3c0.6-0.9,1.4-1.6,1.9-2.5c0.9-1.5,0.7-3.4,0.7-5.2c0-4.9,1.5-9.6,1.9-14.4
	c0.4-4.5-0.1-9-0.7-13.5c-1.4-12.1,7.1-28-1.7-36.3c-2.7-2.6-7,1.9-9.8,4.3c-1.3,1.2-1.5,3.3-3.2,3c-1.7-0.3-2.9-1.9-3.3-3.6
	s0-3.4,0.3-5.1c0.5-2.4,1-4.8,1.4-7.3c0.3-1.3,0.5-2.6,0.5-4c-0.1-3.4-2.3-6.4-4.3-9.2"/>
<path fill="none" stroke="#E1E1E1" stroke-miterlimit="10" d="M4.2-11.9c1.3,2.2,2.7,4.4,4,6.6c0.6,1,1.2,2,1.5,3.1
	C10-1,9.9,0.4,10,1.7c0.4,2.8,2.3,5.4,2.1,8.3c-0.1,2.4-1.7,4.4-2.1,6.7c-0.5,2.4,0.3,4.9,0.3,7.4c-0.1,2.1-0.7,4.1-1,6.2
	c-0.4,3.1-1.3,7.4,1.2,9.3c1.8,1.4,3.5-2.3,5-3.9c1.6-1.8,4.7-3.9,6.6-2.4c5,3.9-2.1,12.6-0.9,18.8c0.4,1.8,1.2,3.5,1.8,5.3
	c3,8.5,1,17.8-1,26.6c-0.5,2-0.9,4-2.2,5.6c-1,1.2-2.3,2-3.6,2.7c-2.7,1.6-5.5,3.2-8.2,4.8c-1,0.6-2,1.2-3.1,1.5
	c-1.8,0.5-3.7,0.4-5.5,0.3c-5.4-0.3-10.8,0.3-16.2,0.8"/>
<path fill="none" stroke="#E1E1E1" stroke-miterlimit="10" d="M-13.8,89.1c3.3,2.8,8.1,2.8,12.2,1.5c3.9-1.3,7.7-4,9.1-7.9
	c0.6-1.6,0.7-3.2,0.8-4.9c0.1-2.1,0.1-4.2-0.1-6.3c0-0.3-0.1-0.6-0.3-0.8c-0.3-0.3-0.8-0.2-1.2-0.2c-2.1,0.2-4-1.2-5.9-2.1
	c-6-2.5-13.5,0.7-19-2.6"/>
<path fill="#EAEAEA" stroke="#D6D6D6" stroke-miterlimit="10" d="M341.1,323.7c0.8,2.4,3.2,4.1,5.6,5.1c1.8,0.7,3.8,1.2,5.7,0.6
	c2.1-0.7,3.6-2.5,4.5-4.5c1.6-3.4,2-7.2,1.7-10.9c-0.3-3.7-1.2-7.3-2.2-10.9c-0.1-0.3-0.2-0.6-0.5-0.7c-0.2,0-0.4,0.1-0.6,0.2
	c-2.6,1.6-5.3,3.1-7.9,4.7c-0.6,0.4-1.3,0.8-1.8,1.3c-1.2,1.2-1.6,3-2.2,4.6c-0.6,1.7-1.5,3.4-2,5.1
	C340.7,320,340.5,322,341.1,323.7z"/>
<path fill="#EAEAEA" stroke="#D6D6D6" stroke-miterlimit="10" d="M349.2,244c-1.6-0.3-2.8-1.6-4.4-2c-1.7-0.4-3.7,0.5-5.3-0.4
	c-1.4-0.8-1.7-2.7-1.9-4.3c-0.1-1.2-0.3-2.4-0.4-3.6c0-0.3-0.1-0.6-0.2-0.8c-0.2-0.2-0.4-0.3-0.7-0.4c-2.5-0.7-4.1,1.3-6.2-0.2
	c-0.5-0.4-1.4-1-1.7-1.3c-0.7-0.9-1.4-1.7-2.5-1.8c-0.8,0-2.5,0.4-3.3,0.6c-1.4,0.3-2.8-0.3-4.1-0.7c-1.4-0.4-3-0.5-4,0.4
	c-1.3,1.1-1.1,3.2-0.2,4.7c0.8,1.5,2.1,2.7,2.8,4.2c0.7,1.5,0.8,3.3,1.6,4.8c1,2,3.1,3.3,5.2,4.2c2.1,0.9,4.3,1.4,6.3,2.6
	c0.6,0.3,1.1,0.7,1.7,1c0.8,0.3,1.6,0.3,2.4,0.4c2,0.1,4.3,0.4,5.5,2c0.5,0.6,0.8,1.4,1.2,2c1.9,3.3,6,5.1,7.1,8.7
	c0.4,1.2,0.3,2.5,0.7,3.7c0.7,2.7,3.1,4.6,5.4,6.3c0.6,0.5,1.3,1,2.1,1.1c2.2,0.4,3.8-2.1,6-2.8c0.8-0.3,1.7-0.4,2.2-1.1
	c0.3-0.4,0.4-0.9,0.5-1.4c0.6-2.3,3.1-4.1,3.8-6.3c0.8-2.2,0.4-4.7-0.2-6.9c-0.3-1-0.6-2.1-1.4-2.9c-1-1.1-3.2-1.5-4.2-2.6
	c-0.8-0.9-1.2-2.1-1.9-3.1c-2.7-4.3-6.2-3.3-8.4-0.8c-0.9,0.9-1.1-2.4-2.3-3C350,244.1,349.6,244.1,349.2,244z"/>
<path fill="#EAEAEA" stroke="#D6D6D6" stroke-miterlimit="10" d="M259.1,226.2c2.5-0.6,6.6-1.1,7-4.4c0.2-1.2-0.5-2.3-0.9-3.5
	c-1-2.6-1.1-5.8-3.3-7.6c-0.4-0.3-0.9-0.6-1.4-0.7c-0.5-0.1-0.9,0-1.4,0c-3.7,0.5-6.8,1.3-10.2,2.8c-0.6,0.3-1.3,0.6-1.7,1.1
	c-0.3,0.3-0.5,0.8-0.7,1.2c-1.9,3.5-6,5.2-9.8,6.6c-1.5,0.6-2.9,1.1-4.4,1.7c-1.3,0.5-2.8,1.1-3.5,2.3c-0.3,0.5-0.4,1.1-0.2,1.6
	c0.4,0.7,1.3,0.8,2.1,0.7c0.8-0.2,1.5-0.5,2.3-0.5c1.8,0.1,3,2,4.7,2.1c2.1,0.2,3.7-2.2,5.8-2.1c0.5,0,1,0.2,1.5,0.3
	c2.5,0.9,4,0.7,6.5-0.1C253.6,227.3,256.6,226.8,259.1,226.2z"/>
<path fill="none" stroke="#D6D6D6" stroke-miterlimit="10" d="M357.3,275.3c-0.1,1.7,2,3.9,2.8,5.3c0.2,0.4,1.8,3.8,1.8,4.3
	c0.2,1.8-1,3.2-1.7,4.9c-0.9,2.3-2.9,4.1-3.7,6.5c-0.5,1.6,0.1,4.6-0.7,6.1"/>
<path fill="none" stroke="#D6D6D6" stroke-miterlimit="10" d="M313.8,230.3c-0.9-0.5-2.6-0.6-2.8-1.2s-1.3-1.4-1.8-1.7
	c-2.5-1.1-3.5-0.8-6.1-0.1c-1,0.3-2.5,0.7-3.5,0.4c-1.4-0.4-2.5-2-3.2-3.2c-1-1.8-2.9-4-5-4.4c-2.4-0.4-3.8,2.3-5.7,3.9
	c-1.8,1.6-3.8,2.5-6.1,3.5c-0.5,0.2-1.5,0.1-2.1-0.3c-0.6-0.4-2.4-2.8-3.1-2.8c-3.9,0.1-5.3-0.2-8.6-2"/>
<path fill="none" stroke="#D6D6D6" stroke-miterlimit="10" d="M228.8,227.7c-1.6,1.6-4,0.8-6.3,4.1c-1.3,1.8-2.4,3-4.2,4.2
	c-1.3,0.9-4.5,1.7-5.6,2.9c-1,1-1.5,2.3-2,3.6c-1.2,2.9-2.8,5.7-4.6,8.3c-0.9,1.3-1.9,2.5-3.3,3.2c-2.4,1.3-5.1,0.3-7.8,0.1
	c-2.7-0.2-6.3-0.9-7.7,1.4c-1,1.6-0.7,5.3-0.8,7.2c-0.3,5-2.1,10.7-7,11.4c-7.3,1.1-5.5,4.5-6.8,5.5c-2.2,1.7-3.1,3.2-5.2,4.9
	c-3.5,2.7-7.9-3.7-11.4-1.1c-2,1.5,0.7,6.4-1.4,7c-2.6,0.8-0.2,3-2.1,3.3c-1.4,0.2-4.4,2.1-4.8,3.8c-0.3,1.6-0.5,3.6-1.1,5
	c-1.2,2.9-4.2,4.6-7.2,5.4c-3,0.9-6.1,1.1-9.1,2.1c-5,1.8-9.8,5.3-11.4,10.4"/>
<path fill="#EAEAEA" stroke="#D6D6D6" stroke-miterlimit="10" d="M238.1,370c0.5-1.5,0.1-2,0.8-3.9c0.8-2.5,1-4.3,1.8-6.8
	c0.6-1.8,1.2-3.7,1.2-5.6c0-2-0.1-4.5-1.4-6c-0.6-0.7-2-1.5-2.5-2.3c-1.1-1.7-1-3.3-0.8-5.3c0.2-2,0.1-4.3-1.4-5.7
	c-0.7-0.7-1.6-1-2.4-1.6c-0.7-0.5-1.2-1.1-1.9-1.5c-2.2-1.3-5-0.7-7.5-0.8c-1.9-0.1-3.7-0.6-5.6-0.8c-2.2-0.2-4.5,0-6.7,0.7
	c-1.2,0.4-2.3,0.9-3.2,1.9c-1.6,1.9-1.3,4.7-1,7.2c0.1,0.5,0.2,1,0.1,1.6c-0.1,1.4-1.2,2.6-1.3,4c-0.2,2.2,2.1,3.9,2.5,6.1
	c0.3,1.4-0.2,2.8-0.1,4.1c0.4,3,3.5,7,6.3,5.9c0.6-0.2,0.6-1.3,1.1-1.7s1.4-0.4,1.8,0.1c0.2,0.2,0.2,0.5,0.3,0.7
	c0.7,3-0.5,7.5,2.2,8.9c2.3,1.2,2.4-2.6,4-2.5c1,0,1.7,1,2.1,2"/>
<path fill="#FFFFFF" stroke="#D6D6D6" stroke-miterlimit="10" d="M212,345.8c0,0.7,0,1.5,0,2.2c0,0.9,0.2,1.3,0.9,1.9
	c0.4,0.4,1.1-1,1.1-1.6c0-0.7,0.1-1.4-0.1-2.1c-0.2-0.7-0.5-1.9-1.1-2.2C212.6,344,212,345.3,212,345.8z"/>
<path fill="none" stroke="#D6D6D6" stroke-miterlimit="10" d="M208,332.5c-3.5-4.3-7.3-8.3-11.9-11.5c-8.2-5.7-18.3-8.1-28.1-10.4
	c-1.4-0.3-2.9-0.6-4.2-0.1c-1.8,0.8-3,3-4.9,2.8c-0.9-0.1-1.7-0.7-2.6-0.7c-1.6,0-2.6,2.2-4.2,2.4c-1.9,0.2-3.6-2.4-5.4-1.6
	c-0.9,0.4-1.3,1.5-2,2.3c-2.5,2.7-8.2-1.6-11.8-0.7c-2,0.5-2.8,3.4-4.7,4.3c-1,0.5-1.6,0.7-2.7,0.9c-1,0.2-2.1-1.4-2.8-0.8
	c-1.7,1.4-4.6,2-6.2,1.2c-1-0.4-1,1.3-2,1.5c-0.9,0.2-1.8,0.3-2.7-0.1c-0.8-0.4-1.3-1.3-1.8-2.1c-1.4-2.6-2.7-5.2-4.1-7.8
	c-0.4-0.7-0.7-2.8-1.5-3.2c-1.4-0.8-5.2,2.6-6.2,3.8c-3.9,4.6-1.5,6.4-3.2,9.9c-0.8,1.7-1.1,3.1-2.6,4.4c-6.5,5.8-23.7,6.1-24.8,8.1
	c-1.7,2.9,3.1,4.3,1.8,5.7c-1.9,2.2-6.3,0.2-7.3,3c-0.4,1.1,0,3.6-0.5,4.6c-1.1,2.2-3.8,2.9-6.1,3.8c-4.3,1.6-8.3,4.1-11.6,7.3
	c-1.2,1.2-3,2.6-4.4,1.7c-1.6-1-0.9-3.6-2-5c-1.2-1.5-2.8,0-4.2,1.3c-0.2,0.2-0.5,0.3-0.7,0.5c-0.4,0.4-0.9,0.9-1.2,1.4
	c-0.4,0.7-1.6,1.3-1.2,2.1c0.1,0.1,0.2,0.2,0.1,0.2c-3-1.4-3.8,5.4-6,7.9"/>
<path fill="#EAEAEA" stroke="#D6D6D6" stroke-miterlimit="10" d="M71.9,289.6c0.6-0.5,1.1-1.1,1.7-1.5c1.1-0.6,2.6-0.5,3.2-1.6
	c0.2-0.3,0.2-0.6,0.4-0.8c0.7-1.5,2.4-2.3,3.6-3.5c0.3-0.4,0.6-0.7,0.9-1.1c0.2-0.3,0.5-0.7,0.7-1c0.5-0.7,1.3-1.5,0.9-2.3
	c-0.1-0.2-0.3-0.4-0.5-0.5c-0.9-0.4-1.8,0.6-2.6,1.2c-0.8,0.7-1.5,1.5-2.4,1.8c-0.3,0.1-0.7,0.2-0.9,0.4c-0.4,0.2-0.6,0.7-0.9,1
	c-0.7,0.9-1.8,1.3-2.8,1.8c-1.1,0.5-2.1,1.2-3,2c-0.8,0.7-1.7,1.6-1.5,2.7c0.1,0.8,0,1.7,0.5,2.4C69.5,291.4,71.1,290.2,71.9,289.6z
	"/>
<path fill="#EAEAEA" stroke="#D6D6D6" stroke-miterlimit="10" d="M97.9,271.2c0.2-0.3,0.4-0.7,0.3-1c-0.1-0.3-0.4-0.4-0.8-0.5
	c-0.9-0.2-1.7,0.2-2.6,0.6c-0.9,0.4-1.8,0.8-2.6,1.2c-0.4,0.2-0.7,0.3-1,0.5c-1.5,0.9-2.9,2.8-2.2,4.4c0.6,1.4,3.1,0.8,3.8-0.5
	c0.1-0.2,0.2-0.5,0.4-0.7c0.2-0.2,0.4-0.3,0.6-0.4C95.5,274,96.9,272.8,97.9,271.2z"/>
<path fill="#EAEAEA" stroke="#D6D6D6" stroke-miterlimit="10" d="M100.7,255c-0.4-0.3-0.1-1.2-0.6-1.5c-2.1-1-6,2.9-4.5,4.7
	c0.8,1,2.4-0.8,3.7-1c0.3,0,0.4,0.5,0.3,0.8s-0.4,0.5-0.6,0.8c-0.7,0.9-0.8,2.3-0.2,3.3c0.6,1,2.1,2.2,3,1.4
	c0.4-0.4,0.4-1.1,0.8-1.6c0.7-0.8,1.8-1.2,2.7-1.8c0.9-0.6,1.8-1.5,1.7-2.6c0-0.3-0.2-0.7-0.4-1c-0.6-0.9-1.6-1.4-2.7-1.6
	C102.9,254.8,101.6,255.6,100.7,255z"/>
<path fill="#EAEAEA" stroke="#D6D6D6" stroke-miterlimit="10" d="M123.5,240.1c0.8-0.6,1.9-0.1,2.9-0.4c0.5-0.1,0.9-0.4,1.3-0.7
	c0.8-0.6,1.7-1.1,2.3-1.9c0.5-0.6,0.9-1.3,1.4-1.9c0.5-0.5,1-0.8,1.5-1.2s1-1.3,0.6-1.8c-0.6-0.6-1.6-0.7-2.4-0.4
	c-0.5,0.2-0.9,0.7-1.3,1.1c-2,2.3-4.6,3.9-6.9,5.8c-0.4,0.4-0.9,0.8-0.9,1.3c0,0.2,0.1,0.5,0.3,0.6
	C122.7,240.9,123.1,240.4,123.5,240.1z"/>
<path fill="#EAEAEA" stroke="#D6D6D6" stroke-miterlimit="10" d="M130.1,225.8c0.9-0.8,2.3-1.5,2.4-2.7c0-0.1,0-0.2-0.1-0.3
	c-0.1-0.1-0.2-0.1-0.3-0.2c-1-0.2-2.1-0.1-3.1,0.3c-0.8,0.4-1.6,1.1-1.7,2c-0.1,0.9,0.7,1.9,1.6,1.7
	C129.4,226.5,129.8,226.1,130.1,225.8z"/>
<path fill="#EAEAEA" stroke="#4E9BD7" stroke-miterlimit="10" d="M102.8,203.7c0,0.1,0,0.3,0.1,0.4c0.1,0.2,0.4,0.3,0.6,0.4
	c0.2,0.1,0.5,0.2,0.7,0.2c0.1,0,0.2,0.1,0.3,0c0.2-0.1,0-0.4-0.1-0.5c-0.3-0.6,0.2-1.3,0.7-1.8s0.9-1.3,0.4-1.8
	c-0.5-0.6-1.5-0.1-1.9,0.5C103,201.8,102.7,202.8,102.8,203.7z"/>
<path fill="#EAEAEA" stroke="#4E9BD7" stroke-miterlimit="10" d="M81.7,222.2c0.5-0.2,0.7-0.8,0.5-1.3c-0.2-0.5-0.7-0.8-1.2-0.8
	c-0.7-0.1-1.6,0.6-1.3,1.3c0.1,0.3,0.5,0.5,0.8,0.7C80.9,222.1,81.3,222.3,81.7,222.2z"/>
<path fill="none" stroke="#4E9BD7" stroke-miterlimit="10" d="M49.3,236.3c0.4,0.1,0.7,0.3,1.1,0.3s0.8,0.3,0.7,0.7
	c0,0.2-0.1,0.3-0.2,0.4c-0.3,0.5-0.6,1-0.9,1.5c-0.1,0.2-0.3,0.4-0.2,0.7c0.1,0.5,0.7,0.6,1.1,0.4s0.7-0.6,1.1-0.9s0.9,0,1.3-0.2
	c0.6-0.3-0.2-1.7,0.4-2c1-0.6,2.3,0.2,3.5,0.4"/>
<path fill="none" stroke="#4E9BD7" stroke-miterlimit="10" d="M41.7,238.7c0.6,0.9,0.6,2.1,0,3c-0.2,0.3-0.7,0.7-0.5,1
	c0.6,0.8,1.8,1.9,2.6,1.4c0.6-0.3,0-1.5,0.4-2c0.6-0.9,2,0,2.9,0.5c0.3,0.2,0.6,0.4,0.9,0.6c0.8,0.7,1.3,1.6,2.3,1.5"/>
<path fill="none" stroke="#4E9BD7" stroke-miterlimit="10" d="M161.5,197.3c-2.8,0.8-4.5,5.2-7,4.4c-2-0.7-0.9-4.2-0.4-6.3
	c0.2-0.6,0.4-1.3,0.2-1.9c-0.1-0.5-0.4-1-0.7-1.4c-1.1-1.8-1.7-3.9-1.7-5.9c0-1.2,0.2-2.7-0.7-3.5c-1.1-1.1-2.9-0.5-4.2,0.2
	c-1.3,0.8-2.8,1.7-4.2,1.1c-0.5-0.2-1-0.6-1.6-0.7c-0.7-0.1-1.4,0.2-2,0.5c-2.9,1.5-5.9,2.9-8.8,4.4c-1.4,0.7-2.8,1.4-3.9,2.6
	c-0.6,0.7-1.1,1.5-1.9,1.7c-0.6,0.2-1.3-0.1-2-0.1c-1.7,0.1-2.9,2.2-4.6,2.3c-0.6,0-1.2-0.2-1.8-0.2c-0.6,0.1-1.2,0.5-1.7,0.9
	c-1.1,0.9-2.1,1.8-3.2,2.7c-1.7,1.4-3.8,3-6,2.8"/>
<path fill="none" stroke="#4E9BD7" stroke-miterlimit="10" d="M104.5,204.5c1,1.1-0.1,2.4-1,2.9c-0.9,0.5-2,0.8-2.8,1.5
	c-0.6,0.4-1,1.1-1.5,1.6c-1.5,1.6-3.7,2.2-5.8,2.8c-1.4,0.4-2.7,0.8-4.1,1.2c-1.5,0.4-3.3,1.3-3.1,2.8c0.1,0.5,0.3,1.1,0.1,1.5
	c-0.1,0.2-0.4,0.3-0.5,0.6c-0.4,0.6,0.3,1.5,0.3,2.3c0.1,0.9-1.2,1.7-2,1.2c-0.7-0.4-1-1.6-1.9-1.7"/>
<path fill="none" stroke="#4E9BD7" stroke-miterlimit="10" d="M62.8,231.6c-1.5,0.5-4.7,1.3-6.3,1.3c-1.1,0-2.1-0.2-3.2,0
	s-2.1,0.7-2.5,1.7c-0.2,0.4-0.2,0.9-0.5,1.3c-1.1,1.3-3.7-0.5-4.9,0.8c-0.3,0.3-0.5,0.8-0.8,1c-0.4,0.2-0.9,0.1-1.4,0
	c-1.3-0.1-1.7,1.4-2.8,2.1c-1.2,0.7-2.7,0.5-3.9,1.4c-0.9,0.7-2.4,1-2.7,2.1c-0.3,0.7,0.1,1.3,0,2.1s-0.6,1.5-1.3,1.7
	c-0.5,0.1-1.1,0.1-1.5,0.3c-0.4,0.3-0.5,0.7-0.7,1.2c-0.3,1.2-0.4,2.4-0.4,3.6c0,0.7,0,1.5-0.2,2.2c-0.3,0.8-1.1,1.5-2,1.7
	c-0.9,0.2-2.4,0.1-2.9-0.6c-0.7-1,1.3-2.5,1.1-3.7c-0.1-0.8-0.9-1.3-1.6-1.6c-0.9-0.4-2.1-0.6-2.9-0.1c-0.9,0.5-1,1.7-0.1,2.2"/>
<path fill="#EAEAEA" stroke="#4E9BD7" stroke-miterlimit="10" d="M74.2,222.1c0.3-1,0.5-2.1,1.3-2.8c0.4-0.4,0.9-0.7,1.2-1.2
	c0.3-0.5,0.4-1.2,0-1.5c-0.4-0.4-1-0.3-1.4,0c-0.4,0.3-0.7,0.7-1,1.2c-0.4,0.6-0.8,1.2-1.1,1.8c-0.3,0.5-0.6,0.9-0.7,1.5
	c-0.1,0.5,0,1.3,0.6,1.4C73.4,222.7,74.1,222.5,74.2,222.1z"/>
<path fill="#7BBCEB" stroke="#4E9BD7" stroke-miterlimit="10" d="M172.1,177.2c1.4-1.6,2.9-3.3,4.3-4.9c1.3-1.5,2.6-3,4.4-3.6
	c0.5-0.2,1-0.5,1.3-0.9c0.4-0.4,0.6-0.8,0.7-1.3c0.5-2,1.8-3.7,3.2-5.3c0.5-0.6,1-1.1,1.6-1.6c1.1-0.8,2.6-1,4-0.9
	c1.2,0.1,2.4,0.3,3.1,1.2c1.3,1.6,0,3.9-1.3,5.6c-1.3,1.6-2.5,3.3-3.8,4.9c-0.3,0.4-0.7,0.9-0.7,1.5c0,0.3,0.1,0.5,0.1,0.8
	c0,1-1.2,1.9-1.8,2.7c-1.5,2.1,1.6,4.7,0.4,6.9c-0.6,1.1-2,1.5-2.9,2.3c-0.5,0.5-0.9,1.2-1.4,1.7c-0.5,0.5-1.1,0.8-1.6,1.1
	c-1.7,0.9-3.5,1.8-5.2,2.7c-1.5,0.8-3.1,1.6-4.1,2.9c-0.7,0.8-1.1,1.8-1.8,2.7c-1.5,2.1-4.2,3.4-6.8,3.3c-1.2,0-2.5-0.5-2.2-1.6
	c1-3.7,6.3-4.6,7.5-8.2c0.8-2.4-0.3-5,0.2-7.4C169.8,179.9,171,178.5,172.1,177.2z"/>
<path fill="none" stroke="#D6D6D6" stroke-miterlimit="10" d="M218.8,250.8c-0.9,0.7-2,1-3.2,1.3c-1.4,0.3-2.9,0.7-4.3,1
	c-0.4,0.1-0.8,0.2-1.1,0.4c-0.6,0.4-0.9,1.3-1.7,1.5c-0.6,0.1-1.4-0.2-1.7,0.4"/>
<path fill="none" stroke="#D6D6D6" stroke-miterlimit="10" d="M366.2,267.3c1.1-0.3,2.2-0.6,3.3-0.9c0.6-0.2,1.2-0.3,1.8-0.1
	s0.5,0.8,0.6,1.4c0.1,0.5,1,0.2,1.5,0.2c1.1,0.1,2.2,0.9,2.4,2.1"/>
<path fill="#EAEAEA" stroke="#D6D6D6" stroke-miterlimit="10" d="M203.5,253.4c-0.4,0.7-0.4,1.6,0.2,2.2c0.5,0.6,1.5,0.7,2.2,0.4
	c0.7-0.4,1.1-1.3,1.1-2.1c0-0.8-0.3-1.6-0.5-2.4c-0.1-0.2-0.2-0.4-0.4-0.4c-0.2,0-0.3,0.1-0.4,0.2c-0.6,0.5-1.1,1.1-1.7,1.6
	C203.8,253.1,203.6,253.2,203.5,253.4z"/>
<path fill="none" stroke="#D6D6D6" stroke-miterlimit="10" d="M273.6-12.7c1.5,3.5,1.8,7.5,0.9,11.2c-0.8,3.3-0.1,7.3-2.3,9.9
	c-0.6,0.7-2.4-0.7-2.4,0.3c0.2,3.1,0.2,9-1.3,13.2c-0.4,1.2-1,2.4-1.4,3.6c-0.7,2.1-0.9,4.4-0.9,6.7c-0.2,7.2,0.6,14.4,1.5,21.6
	c0.4,3.8,0.9,7.7,1.3,11.5c0.4,3.6,0.8,7.3,2,10.8c2.1,6.4,6.4,12.2,6.2,18.9"/>
<path fill="none" stroke="#4E9BD7" stroke-miterlimit="10" d="M-10.5,287.7c3-7.2,7.2-13.9,12.5-19.7c0.5-0.5,0.9-1,1.5-1.4
	c0.5-0.3,1-0.6,1.4-0.9c0.7-0.6,1.2-1.4,1.9-2c1.5-1.3,3.7-1.4,5.7-1.7c2-0.2,4.2-0.8,5.2-2.5c0.2-0.3,0.4-0.7,0.6-1
	c0.8-0.8,2.2-0.5,2.9-1.2c0.7-0.7,0.5-1.8,0.1-2.7c-0.4-0.8-2-1.7-1.4-2.5c0.3-0.4,1.1-0.2,1.5,0c1.2,0.6,2.6,1.1,3,2.4
	c0.6,1.9,1,4,2.9,4.3c2,0.3,4-0.5,5.7-1.6c0.4-0.3,1.4-0.4,1.8-0.5c1.6-0.5,2.3-0.5,3.6-0.4c0.6,0.1,1.2,0.1,1.8,0
	c2.3-0.6,3.5-3.8,5.8-3.5c0.4,0,0.8,0.2,1.1,0.1c0.4,0,0.7-0.2,1-0.4c1.2-0.7,3.2-2,2.4-3.1c-0.8-1-1.1-2.2-0.8-3.4
	c0.1-0.5,0.3-1.1,0.7-1.5c0.7-0.7,1.9-0.7,2.9-0.9c1-0.2,1.1-1.2,1.5-2.2c0.2-0.7,1.6-0.2,2.1-0.7c0.4-0.5-0.3-0.7-0.4-1.3
	c-0.5-1.8,3.7-3.4,5.8-7.1c0.7-1.2,1.7-2,2.1-3.3c0.2-0.6,0.2-1.4,0.6-1.8c1.3-1.5,4.5,0.8,5.6-0.9c0.2-0.3,0.3-0.8,0.7-1
	c0.5-0.2,0.9,0.4,1.3,0.6c0.9,0.6,1.4-0.7,2.1-1.5c0.6-0.6,1.8,0.8,2.5,0.3c0.5-0.3-0.4-0.9-0.5-1.5c-0.2-1,1.9-1.7,2.9-2"/>
<path fill="none" stroke="#4E9BD7" stroke-miterlimit="10" d="M30,251.9c0.6,0.1,2.6,1.3,2.8,1.4c0.2,0.1,1.2,0.1,1.4,0.1
	c0.9,0,1-0.7,1.9-0.4c1,0.4,0.8,2.4,0.4,3.4"/>
<path fill="#EAEAEA" stroke="#4E9BD7" stroke-miterlimit="10" d="M35.6,246.5c0.4,1,1.7,1.3,2.6,0.8c0.9-0.5,1.3-1.7,1.1-2.7
	c-0.1-0.4-0.2-0.7-0.4-1c-0.6-0.5-1.6-0.2-2.2,0.2C35.9,244.5,35.2,245.5,35.6,246.5z"/>
<path fill="none" stroke="#4E9BD7" stroke-miterlimit="10" d="M36.6,253.5c0.3-1.1,1.1-2,2.2-2.3c0.7-0.2,1.5-0.2,2.2-0.5
	c0.5-0.3,1.4-0.9,1-1.4c-0.5-0.7-1.8-0.2-2.7-0.4"/>
<path fill="none" stroke="#4E9BD7" stroke-miterlimit="10" d="M50.6,250.6c0.3-0.3,0.5-0.1,0.9-0.1c1-0.2,1.9-0.8,2.2-1.8"/>
<path fill="none" stroke="#4E9BD7" stroke-miterlimit="10" d="M39.4,245.6c0,0.1,0.2,0.1,0.3,0.1c0.6,0,1.2,0,1.8,0
	c0.2,0,0.5,0,0.7-0.1c0.5-0.2,0.7-0.7,0.8-1.2"/>
<path fill="none" stroke="#585858" stroke-miterlimit="10" stroke-dasharray="4,1" d="M185.2,370.9c-0.6-1.4-0.9-2.9-0.7-4.6
	c0.9-9.2,8.6-15.7,14.6-22.8c8.1-9.5,11.5-22.2,12.4-34.6c0.9-12.4-0.5-24.9-1-37.4c-0.3-7.1-0.2-14.4-2.1-21.3
	c-2.3-8.5-10.1-24.4-12.2-33c-1.8-7.2,1.3-12.1,8.8-16.8c4.1-2.5,7.6-3.9,11.5-6.8c1.9-1.4,3.2-4,4.7-5.8c2.4-2.9,6.8-3.1,9.7-5.4
	c0.9-0.8,1.8-1.9,1.6-3.1c-0.2-1-1.1-2-0.7-3c0.2-0.4,0.5-0.7,0.8-1.1c0.7-1,0.5-2.3,0.7-3.4c0.4-2.3,2.5-3.9,4.1-5.7
	c4.1-4.6,5.1-11.1,7.3-16.8c1.7-4.4,4.2-8.4,5.5-12.9c0.6-2.1,0.9-4.2,1.2-6.3c0.4-2.6,0.8-5.1,1.2-7.7"/>
<path fill="none" stroke="#585858" stroke-miterlimit="10" stroke-dasharray="4,1" d="M21,367.2c10.7-11.6,21.3-23.2,32-34.8
	c0.8-0.9,1.7-1.8,2.8-2.3c1.3-0.6,2.9-0.5,4.3-0.5c5.4,0.1,10.7-0.6,15.8-2.3c2.3-0.7,4.6-1.7,6.4-3.4c1.9-1.9,2.9-4.4,4.1-6.8
	c3.2-6.7,9.4-13.4,15.9-16.9c13.8-7.5,16.2-2.2,19.6-4.8c2.4-1.9,2.6-5.5,5.2-6.8s5.6-2.2,8.6-2.7c11.2-1.9,21.7-7.7,31.1-15.6
	c1.9-1.6,3.4-3.8,4.4-6.1c0.7-1.7,0.9-3.7,2.2-5c2.2-2,7-1.9,6.5-4.8c-0.2-1.2-1.4-2-1.6-3.1c-0.1-0.8,0.3-1.6,0.7-2.3
	c7.4-11.9,26.1-10.5,35.6-20.8c3.2-3.4,7.6-4.3,11.8-6.3c2.1-1,4.1-2,6.1-3.2c3.4-2.1,6.4-5,9.7-7.3c11.6-8.4,26.9-11.2,37.4-20.9
	c4.3-3.9,9.3-6.5,13.6-10.4c1.8-1.7,3.7-3.3,5.5-5c1.5-1.4,3.1-2.8,4.4-4.4c4.4-5.5,5.5-13,9-19.2c2.1-3.7,5-6.9,7.7-10.2
	c2.3-2.9,4.4-5.9,6.3-9c4-6.6,7-13.8,9-21.2c0.6-2.3,1.2-4.8,3.1-6.2c4.1-3.1,7-7.2,11.4-9.9c5.3-3.2,10.7-6.4,16-9.6
	c1.9-1.1,3.7-2.2,5.6-3.3"/>
<path fill="none" stroke="#585858" stroke-miterlimit="10" stroke-dasharray="4,1" d="M265.3-13c-0.4,3.4-0.8,6.9-2.1,10.1
	c-0.6,1.5-1.4,2.9-2,4.4c-0.9,2.2-1.2,4.6-2,6.9c-0.9,2.8-2.4,5.4-3.6,8.1c-2.9,6.4-4.4,13.5-4.2,20.5c0,1.9,0.2,3.9,1.2,5.5
	c1.9,3.1,7.4,4.7,7.3,8.4c0,1.7,0.9,3.2,1.4,4.8c0.5,1.6,0.9,3.3,0.8,5c-0.5,8.6-1.3,16-0.2,24.2c0.4,2.5,0.7,6.3,0.4,8.8
	c-0.7,4.7-3.1,9.3-4.3,13.9c-0.5,2.1-1.1,4.2-1.6,6.4c-0.5,1.8-0.9,3.7-1.8,5.4c-1.2,2.5-3.2,4.5-4.8,6.8c-3.3,5-4.5,11.3-8.5,15.9
	c-1.1,1.2-2.3,2.3-3.3,3.6c-4.7,5.8-4.1,14.3-7.2,21.1c-1,2.3-2.5,4.4-4,6.5c-1,1.4-2.1,3-3.8,3.6c-0.9,0.3-1.9,0.4-2.7,0.9
	c-1.5,1-1.5,3.2-2.5,4.7c-1.5,2.2-4.9,2.2-7.1,3.8c-0.7,0.5-1.2,1.2-1.9,1.6c-1.6,1-3.7,0.8-5.7,0.9c-1.9,0.1-3.9,1.3-4.8,3
	c-0.9,1.8-2.7,2.9-4.2,4.3c-7.7,7.2-18,11.5-28.6,11.7c-1.9,0-3.8,0-5.5,0.6c-1.4,0.5-2.5,1.4-3.7,2.2c-14.4,10.6-32.8,22.5-41,34.5
	c-1,1.5-2.5,2.7-4,3.7c-2.5,1.7-4.9-0.8-7.8,0.1c-7.9,2.6-13.1,4-21.2,5.5c-5.8,1.1-14.8,6.9-20.1,9.5c-5.2,2.6-10.4,5.1-15,8.7
	c-1.2,0.9-2.3,1.9-3.6,2.7c-1.7,0.9-3.5,1.3-5.3,1.9c-6.4,2-4.2,3.4-18.8,8.8c-4.6,1.7-8.6,4-12.9,6.4c-7.6,4.2-16.3,6.9-22.1,13.2"
	/>
<path fill="none" stroke="#585858" stroke-miterlimit="10" stroke-dasharray="4,1" d="M186.9,184.8c1.6-0.9,2.5-2.8,2.8-4.6
	c0.4-1.8,0.3-3.7,0.6-5.6c0.4-2,1.2-4,2.4-5.7c1.1-1.6,3.7-4.1,4.8-2.6c1,1.4,1.7,3.4,3.5,3.1c0.8-0.1,1.5-0.6,2.3-0.9
	c1.7-0.6,3.5-0.3,5.3-0.3c1.8,0,3.8-0.4,4.7-2c0.3-0.6,0.5-1.3,1-1.7c0.6-0.6,1.5-0.7,2.3-0.7c1.3-0.1,2.6-0.2,3.9-0.2
	c0.9,0,1.7-0.1,2.6,0.2c1.2,0.4,2.2,1.3,2.8,2.4c1.2,1.8,1.7,4.1,1.5,6.3"/>
<text transform="matrix(1 0 0 1 270.0336 280.6237)"><tspan x="0" y="0" fill="#585858" font-family="'Verdana-Italic'" font-size="8">Fletcher</tspan><tspan x="13" y="9.6" fill="#585858" font-family="'Verdana-Italic'" font-size="8">Peak</tspan></text>
<text transform="matrix(1 0 0 1 305.7109 285.7596)" fill="#585858" font-family="'Verdana-Italic'" font-size="8">× 11410</text>
<text transform="matrix(1 0 0 1 230.5 238.7596)"><tspan x="0" y="0" fill="#585858" font-family="'Verdana-Italic'" font-size="8">Fletcher</tspan><tspan x="0" y="9.6" fill="#585858" font-family="'Verdana-Italic'" font-size="8">Lake</tspan></text>
<text transform="matrix(1 0 0 1 217.8235 317.2007)"><tspan x="0" y="0" fill="#585858" font-family="'Verdana-Italic'" font-size="8">Vogelsang</tspan><tspan x="0" y="9.6" fill="#585858" font-family="'Verdana-Italic'" font-size="8">Lake</tspan></text>
<text transform="matrix(1 0 0 1 197.6875 152.5193)"><tspan x="0" y="0" fill="#7BBCEB" font-family="'Verdana-Italic'" font-size="8">Boothe</tspan><tspan x="0" y="9.6" fill="#7BBCEB" font-family="'Verdana-Italic'" font-size="8">Lake</tspan></text>
<text transform="matrix(1 0 0 1 203.8369 120.8187)"><tspan x="0" y="0" fill="#585858" font-family="'Verdana-Italic'" font-size="8">Tuolumne</tspan><tspan x="21.8" y="9.6" fill="#585858" font-family="'Verdana-Italic'" font-size="8">Pass</tspan></text>
<text transform="matrix(1 0 0 1 255.2383 126.4603)" fill="#585858" font-family="'Verdana-Italic'" font-size="8">9992</text>
<path fill="none" d="M93.9,200.1c3.4-2.1,6.9-4.1,10.1-6.6c2.6-2.1,7.3-7,10.1-8.9"/>
<text transform="matrix(0.8483 -0.5296 0.5296 0.8483 98.1851 200.5252)"><tspan x="0" y="0" fill="#7D7D7D" font-family="'Verdana-Italic'" font-size="7">9</tspan><tspan x="4.6" y="0" fill="#7D7D7D" font-family="'Verdana-Italic'" font-size="7" rotate="-3.8">8</tspan><tspan x="9.3" y="-0.3" fill="#7D7D7D" font-family="'Verdana-Italic'" font-size="7" rotate="-10.1">0</tspan><tspan x="13.7" y="-1.1" fill="#7D7D7D" font-family="'Verdana-Italic'" font-size="7" rotate="-11.1">0</tspan></text>
<path fill="none" d="M231,277.7c2.2-4.5,5.2-8.6,8.4-12.6c7-8.7,14.8-17,24.6-22.4"/>
<text transform="matrix(0.5015 -0.8652 0.8652 0.5015 233.6182 277.9681)"><tspan x="0" y="0" fill="#7D7D7D" font-family="'Verdana-Italic'" font-size="7">1</tspan><tspan x="4.3" y="0" fill="#7D7D7D" font-family="'Verdana-Italic'" font-size="7" rotate="4.6">0</tspan><tspan x="8.5" y="0.4" fill="#7D7D7D" font-family="'Verdana-Italic'" font-size="7" rotate="7.6">4</tspan><tspan x="12.9" y="0.9" fill="#7D7D7D" font-family="'Verdana-Italic'" font-size="7" rotate="9.2">0</tspan><tspan x="17.2" y="1.6" fill="#7D7D7D" font-family="'Verdana-Italic'" font-size="7" rotate="10.8">0</tspan></text>
<text transform="matrix(1 0 0 1 317.8971 216.441)"><tspan x="0" y="0" fill="#585858" font-family="'Verdana-Italic'" font-size="8">Townsley</tspan><tspan x="0" y="9.6" fill="#585858" font-family="'Verdana-Italic'" font-size="8">Lake</tspan></text>
<text transform="matrix(1 0 0 1 27.2443 323.0207)" fill="#585858" font-family="'Verdana-Italic'" font-size="8">× 10081</text>
<text transform="matrix(1 0 0 1 10.1714 151.6614)" fill="#585858" font-family="'Verdana-Italic'" font-size="8">× 11357</text>
<path fill="none" d="M298.5,332.6c4.3-9.4,6.3-19.8,5.8-30"/>
<text transform="matrix(0.32 -0.9474 0.9474 0.32 302.6143 329.4227)"><tspan x="0" y="0" fill="#7D7D7D" font-family="'Verdana-Italic'" font-size="7">1</tspan><tspan x="4.6" y="0" fill="#7D7D7D" font-family="'Verdana-Italic'" font-size="7" rotate="-3.9">1</tspan><tspan x="9.2" y="-0.3" fill="#7D7D7D" font-family="'Verdana-Italic'" font-size="7" rotate="-7.8">2</tspan><tspan x="13.8" y="-1" fill="#7D7D7D" font-family="'Verdana-Italic'" font-size="7" rotate="-11.6">0</tspan><tspan x="18.3" y="-1.9" fill="#7D7D7D" font-family="'Verdana-Italic'" font-size="7" rotate="-15.5">0</tspan></text>
<path fill="none" d="M315.1,44.8c0.9-1.8,0.8-3.9,0.9-6c0.3-9.5,4.1-18.9,10.5-26"/>
<text transform="matrix(8.388457e-02 -0.9965 0.9965 8.388457e-02 318.4229 39.014)"><tspan x="0" y="0" fill="#7D7D7D" font-family="'Verdana-Italic'" font-size="7">1</tspan><tspan x="4.2" y="0" fill="#7D7D7D" font-family="'Verdana-Italic'" font-size="7" rotate="6.4">0</tspan><tspan x="8.3" y="0.4" fill="#7D7D7D" font-family="'Verdana-Italic'" font-size="7" rotate="12.8">2</tspan><tspan x="12.4" y="1.4" fill="#7D7D7D" font-family="'Verdana-Italic'" font-size="7" rotate="19">0</tspan><tspan x="16.3" y="2.7" fill="#7D7D7D" font-family="'Verdana-Italic'" font-size="7" rotate="25.3">0</tspan></text>
<path fill="none" d="M119.6,53.3c6.3-6.8,4-18.1,8.8-26c3.4-5.6,8.2-9.3,11-15.2"/>
<text transform="matrix(0.1668 -0.986 0.986 0.1668 126.9517 41.6961)"><tspan x="0" y="0" fill="#7D7D7D" font-family="'Verdana-Italic'" font-size="7">1</tspan><tspan x="4.3" y="0" fill="#7D7D7D" font-family="'Verdana-Italic'" font-size="7" rotate="2.9">0</tspan><tspan x="8.4" y="0.1" fill="#7D7D7D" font-family="'Verdana-Italic'" font-size="7" rotate="11.3">6</tspan><tspan x="12.2" y="0.8" fill="#7D7D7D" font-family="'Verdana-Italic'" font-size="7" rotate="23.6">0</tspan><tspan x="16.1" y="2.5" fill="#7D7D7D" font-family="'Verdana-Italic'" font-size="7" rotate="29.3">0</tspan></text>
<path fill="none" d="M142.9,246.4c3.3-4.5,7-8.5,10.8-12.6c4.7-5.1,9.6-10.4,15.8-13.6"/>
<text transform="matrix(0.6747 -0.738 0.738 0.6747 152.6724 238.6512)"><tspan x="0" y="0" fill="#7D7D7D" font-family="'Verdana-Italic'" font-size="7">1</tspan><tspan x="4.4" y="0" fill="#7D7D7D" font-family="'Verdana-Italic'" font-size="7" rotate="0.4">0</tspan><tspan x="8.8" y="0" fill="#7D7D7D" font-family="'Verdana-Italic'" font-size="7" rotate="2.3">0</tspan><tspan x="13.1" y="0.2" fill="#7D7D7D" font-family="'Verdana-Italic'" font-size="7" rotate="5.9">0</tspan><tspan x="17.3" y="0.6" fill="#7D7D7D" font-family="'Verdana-Italic'" font-size="7" rotate="11.3">0</tspan></text>
<path fill="none" d="M35,70.7c0-4.9,1.5-9.6,1.9-14.4c0.4-4.5-0.1-9-0.7-13.5c-1.4-12.1,7.1-28-1.7-36.3"/>
<text transform="matrix(0.1753 -0.9845 0.9845 0.1753 38.3076 63.741)"><tspan x="0" y="0" fill="#7D7D7D" font-family="'Verdana-Italic'" font-size="7">1</tspan><tspan x="4.6" y="0" fill="#7D7D7D" font-family="'Verdana-Italic'" font-size="7" rotate="-4.4">0</tspan><tspan x="9.4" y="-0.4" fill="#7D7D7D" font-family="'Verdana-Italic'" font-size="7" rotate="-11.1">4</tspan><tspan x="13.9" y="-1.3" fill="#7D7D7D" font-family="'Verdana-Italic'" font-size="7" rotate="-15.2">0</tspan><tspan x="18.3" y="-2.5" fill="#7D7D7D" font-family="'Verdana-Italic'" font-size="7" rotate="-16.7">0</tspan></text>
<g>
	<g>
		<polyline fill="none" stroke="#7D7D7D" stroke-miterlimit="10" points="85.2,341.6 85.2,348.7 275.4,348.7 275.4,341.7 		"/>
		<line fill="none" stroke="#7D7D7D" stroke-miterlimit="10" x1="180.5" y1="341.4" x2="180.5" y2="348.7"/>
		<line fill="none" stroke="#7D7D7D" stroke-miterlimit="10" x1="161.2" y1="349.2" x2="161.2" y2="343.7"/>
		<line fill="none" stroke="#7D7D7D" stroke-miterlimit="10" x1="142.4" y1="349.2" x2="142.4" y2="343.7"/>
		<line fill="none" stroke="#7D7D7D" stroke-miterlimit="10" x1="123.3" y1="349.2" x2="123.3" y2="343.5"/>
		<line fill="none" stroke="#7D7D7D" stroke-miterlimit="10" x1="104.6" y1="349.2" x2="104.6" y2="343.7"/>
	</g>
	<text transform="matrix(1 0 0 1 83.7834 339.1467)" fill="#7D7D7D" font-family="'Verdana'" font-size="8">0</text>
	<text transform="matrix(1 0 0 1 174.2945 339.1467)" fill="#7D7D7D" font-family="'Verdana'" font-size="8">0.5</text>
	<text transform="matrix(1 0 0 1 258.3415 339.1467)" fill="#7D7D7D" font-family="'Verdana'" font-size="8">1 mi</text>
</g>
</svg>
