<?xml version="1.0" encoding="utf-8"?>
<!-- Generator: Adobe Illustrator 17.1.0, SVG Export Plug-In . SVG Version: 6.00 Build 0)  -->
<!DOCTYPE svg PUBLIC "-//W3C//DTD SVG 1.1//EN" "http://www.w3.org/Graphics/SVG/1.1/DTD/svg11.dtd">
<svg version="1.1" id="Layer_1" xmlns="http://www.w3.org/2000/svg" xmlns:xlink="http://www.w3.org/1999/xlink" x="0px" y="0px"
	 viewBox="0 0 360 360" enable-background="new 0 0 360 360" xml:space="preserve">
<path fill="none" stroke="#E1E1E1" stroke-miterlimit="10" d="M32.8,163.9c1-0.4,1.9-0.7,2.9-0.7c3.1-0.3,6.2,0.4,7.6-2.3
	c0.6-1.3,2.1-1.9,3.4-2.4c2.7-1.1,5.5-2.2,8.4-2.5c0.9-0.1,1.9-0.2,2.5-0.8c3.7-3.7,9.6-4.2,14.9-3.6c5.3,0.6,10.6,1.8,15.8,0.6
	c1.2-0.3,2.4-0.7,3.6-0.8c1.4-0.1,2.9,0.3,4.3,0.6c8.5,2,19,4.9,26-0.3c1.3-1,2-4.9,3.4-5.8c1.1-0.8,2.3-1.2,3.4-2
	c1.1-0.8,2.7-1.3,3.7-0.4c0.4,0.4,0.7,0.9,0.9,1.4c0.6,2,0.3,4.4-0.9,6.2c-1.1,1.6-2.9,3.5-1.9,5.2c0.7,1.2,2.7,1.9,2.1,3.1
	c-0.2,0.5-0.7,0.7-1,1.1c-1,1.2,0,3.1-0.6,4.5c-0.5,1-1.8,1.5-2.5,2.4c-0.4,0.6-0.5,1.4-0.6,2.1c-0.5,4.8,0.1,9.8,1.7,14.4
	c1.5,4.6,4,8.8,6.8,12.8c1,1.4,2,2.9,2,4.6c-0.1,1.7-3,4.2-3.4,2.5c-0.3-1.2-1.2-2.1-2.2-1.4c-1,0.7-1.1,2.1-1.4,3.3
	c-0.9,3.8-5.1,10-8.1,7.6c-1.2-1,0.8-3.6-0.3-4.7c-1-1-1.8,0.4-2.8,1.4c-5.1,5.1-11.3,9.2-18.1,11.7c-3.1,1.2-6.3,2-9.6,1.8
	c-3.5-0.2-6.8-1.6-10.3-1.5c-3.5,0.1-8.7,3.1-7,6.1c1,1.7,4,3.7,2.7,5.1c-1.2,1.3-4,0.3-4.6,1.9c-0.6,1.5,0.6,3.2,1.9,4.1
	s3,1.5,3.9,2.9c2.2,3-0.4,7.7,1.5,10.9c1.4,2.5,5.2,3.4,5.7,6.2c0.2,1.1-0.1,2.3-0.3,3.4c-1.5,7.6,2.8,15.1,6.5,21.9
	c3.6,6.7,6.8,13.9,7.2,21.5c0.2,5.3-0.9,10.6-0.3,15.8c0.6,5.7,3,12.4-1,16.5c-3.7,3.8-10.5,2.7-14.5,6c-0.1,0.1-0.4,0.3-0.5,0.4
	c-2,1.9-2.4,5.5-5,6.4c-0.8,0.3-1.8,0.2-2.7,0.3c-2.5,0.2-4.9,1.5-7.3,2.4c-6.2,2.3-12.6-0.9-19.1-1.7c-1.8-0.2-4.9,4.2-6.3,5.4
	c-2.6,2.2-7.8-3.1-11.3-3.7c-4.3-0.6-6.8,3-7-1.2c-0.1-1.5-1.3-7.7-5.6-6.2c-2,0.7-2.6,4.6-4.6,3.8c-2.3-0.9-0.9-4.9,0.5-7
	c1.5-2,3.6-3.4,5.4-5.2c2.1-2.1,3.7-4.6,4.7-7.3c0.2-0.5,0.3-1.1,0.1-1.6c-0.6-1.5-2.5-1.6-2.7-3.2c-0.1-0.8-1.6,0.4-2.4,0.1
	c-1.6-0.6-2.3-2.6-4-2.9s-3.5,0-5.2-0.6c-3-1-4.7-4.1-7.1-6.2c-4.4-3.9-10.9-4.3-16.8-4.5c-1.4,0-2.8-0.1-4.2,0"/>
<path fill="none" stroke="#E1E1E1" stroke-miterlimit="10" d="M-7.2,69.8c1.7,2.6,3.2,5.4,4.9,8.1c1.5,2.4,3,5,3.3,7.8
	c0.5,5-2.7,9.6-5.8,13.5c-0.5,0.6-0.9,1.2-1.1,1.9c-0.4,1.4,0.3,3-0.4,4.3c-0.4,0.7-1.1,1.2-1.5,1.9c-0.3,0.6-0.5,1.3-0.6,1.9
	c-0.9,4.5-6.4,7.8-5.8,12.3c0.2,1.7,3.4,1.2,4.4,2.6c0.7,1-1.3,3.1-0.2,3.6c7.2,2.6,15.3,6.1,21.7,11.3c1.5,1.2,3.7,0.8,5.2,2
	c1,0.8,1.7,1.9,2.8,2.5c1.4,0.8,3.2,0.5,4.6,1.2c0.7,0.3,1.2,0.8,1.9,1c2,0.4,3.7-1.9,5.7-1.7c2.1,0.2,3.6,2,5.5,2.9
	c1.3,0.6-0.5,2.8-1.8,3.4c-1.3,0.6-3,1.3-3.3,2.7c-0.1,0.6,0,1.2,0,1.9c-0.1,1.8-1.9,3-3.5,3.8c-1.9,1-3.8,2.1-5.8,3.1
	c-1,0.6-2.1,1.1-2.8,2.1c-0.7,1-0.9,2.4-0.1,3.3c1,1.2,2.7,1.6,4.2,1c3.7-1.4,7.4-4.8,11.4-5.2c3.1-0.3,6.2,0.4,7.6-2.3
	c0.6-1.3,2.1-1.9,3.4-2.4c2.7-1.1,5.5-2.2,8.4-2.5c0.9-0.1,1.9-0.2,2.5-0.8c3.7-3.7,9.6-4.2,14.9-3.6c5.3,0.6,10.6,1.8,15.8,0.6"/>
<path fill="none" stroke="#E1E1E1" stroke-miterlimit="10" d="M-17.4,275c0.2-0.1,0.3-0.2,0.5-0.3c2.2-1.3,4-3.9,6.1-5.4
	c1.8-1.3,3.8-2.7,6.1-2.4c2.4,0.3,4.2,2.4,6.5,3.1c2.5,0.7,5.3-2.5,7.6-1.3c0.9,0.5,0.9,3.1,1.8,2.5c2.2-1.4,2.7-3.4,4.5-5.3
	c2.6-2.7,3.7-6.3,6.8-8.3c3.5-2.2,7.1-4.3,10.6-6.5c2.7-1.7,3.4-4.7,5.1-7.4c1.7-2.6,6.2-1.1,9.3-1.7c1.1-0.2,2.3-0.5,2.7-1.5
	c0.8-1.8-3-3.1-2.5-5c0.6-2.1,4.2-0.5,6.3-0.8c1.4-0.2,2.6-1,3.8-1.7c3-1.8,6.3-4.1,6.6-7.6c0.1-0.7,0-1.5,0.3-2.1
	c0.3-0.7,0.9-1.2,1.4-1.7c2.2-1.9,4.5-3.8,6.7-5.6c0.6-0.5,1.2-1.2,1-1.9c-0.1-0.6-0.7-0.9-1.2-1.1c-2.8-1.4-6.8-0.2-8.9-2.5
	c-1-1.1-1.2-2.7-2.6-3.1c-1.4-0.4-2.9-0.3-4.3-0.1c-3.4,0.4-7,0.9-9.7,3.1c-1.1,0.9-2,2.1-3.3,2.8c-2.4,1.3-5.4,0.6-8,1.2
	c-2.2,0.5-2.9,4.1-5.1,3.9c-2.7-0.2,2-5.2,1-7.7c-0.9-2.3-5.3-1.4-6.2-3.7c-0.3-0.7-0.3-1.4-0.4-2.2c-0.2-1.9-2-4.5-0.5-5.8
	c0.9-0.8,2.2-1.2,1.5-2.2c-0.2-0.3-0.5-0.6-0.8-0.9c-0.6-0.8-0.6-1.9-0.6-2.9c-0.2-3-1.1-7.4-4.1-7.8c-5.9-0.8-13.1,8.6-17.2,4.3
	c-2.3-2.4-0.8-6.7-0.1-9.9c0.4-1.9,2.8-2.8,4.8-3.2c2.2-0.5,6.6-1.6,6.9-3.8c0.5-3-5.6-2.2-8.1-3.9c-3.2-2.2,2.4-8.7-0.5-11.3
	c-0.8-0.7-1.8-0.9-2.9-0.9c-5.4-0.2-10.1,3.6-15.4,4.7c-1.7,0.3-3.4,0.4-5.1,0.3"/>
<path fill="none" stroke="#E1E1E1" stroke-miterlimit="10" d="M20.5,283.9c-1.8,1.5-3.9,2.4-6,3.4c-3.3,1.5-6.7,3-10.2,4.2
	c-4.8,1.5-11.5-1.4-14.8,2.3c-1.8,2.1,2.9,4.6,5.3,6.1c1.2,0.8,2.5,1.6,4,1.7c1.4,0.1,3.1-0.7,3.3-2.2c0.2-1-0.3-2.1,0.2-2.9
	c0.6-1,2.1-0.9,3.2-0.7c2.7,0.5,6.7-0.7,8.1,1.6c0.9,1.6,0.1,3.8,1.5,5.1s3.2,1.9,5.1,2c1.3,0.1,2.7-0.1,3.6-1.1
	c0.9-1.1,0.8-2.7,1.6-3.8c1.7-2.1,5.2-0.4,7.8-1c1.8-0.4,3.1-1.9,4.2-3.4c2.5-3.5,4.4-7.5,5.5-11.7c0.3-1,0.5-2.1,0.2-3.1
	c-0.7-2.6-3.8-3.3-6.5-3.7c-3-0.4-6.2-0.7-8.9,0.6C24.8,278.8,23,281.8,20.5,283.9z"/>
<path fill="none" stroke="#E1E1E1" stroke-miterlimit="10" d="M364.2,294.9c-3.6-1.5-7.3-2.7-11.2-3.1c-1.4-0.2-2.9-0.2-4.2,0.4
	c-1.5,0.7-2.4,2.2-3.3,3.5c-2.7,4.4-5.4,8.8-6.8,13.7c-0.8,2.9-2.8,5.3-3.2,8.3c-1.5,11.3,7.9,21.6,7.3,33
	c-0.2,4.6,1.1,9.4-0.4,13.7c-0.8,2.3-3.2-0.8-5-2.5c-1.2-1.1-3.7,1.8-4.9,0.7c-1.1-1.1,2.1-3,1.5-4.4c-1.9-4.6-10.5-3.4-11.6-8.3
	c-0.4-1.7-0.2-3.9-1.7-4.9c-0.7-0.5-1.6-0.6-2.1-1.3c-0.4-0.6-0.3-1.5-0.4-2.2c-0.2-4.2-5-7.1-5.5-11.3c-0.3-3.1,1.8-5.9,1.9-9
	c0.1-2.5-1.2-4.9-1.1-7.5c0.1-2.1,1.1-4.1,1.4-6.1c0.6-3.7-1-7.4-3.2-10.4c-5.2-7.2-16.9-16.9-23.2-10.7c-1.9,1.8-0.6,5.2-0.9,7.9
	c-0.1,1.2-0.3,2.6-1.3,3.3c-0.6,0.4-1.3,0.6-2,0.7c-2.5,0.5-5.4,0.8-7.3-0.8c-3.1-2.6,0.8-7.1,1-11.2c0.1-4-3.7-7-5.5-10.6
	c-0.6-1.2-1.2-2.4-1.3-3.7c-0.1-2.4,1.5-4.4,2.7-6.5s0.6-4.3,0.5-6.6c-0.2-3,3.9-5.9,2.4-8.6c-0.3-0.6-1.5-0.9-2-0.5
	c-1.8,1.5-0.4,5.9-2.7,6.5c-2.3,0.6-4.3-1.6-6.6-1.9c-2.3-0.3-4.9-0.9-6.1-2.9c-1.2-2,1.8-2.7,2.5-4.9c1.1-3.4-6.4-4.2-10-4.3
	c-0.7,0-1.7,0.3-2.3-0.2c-1.4-1,0-3.9-1.7-4.4c-1.6-0.5-3,1.3-3.8,2.7c-0.9,1.5-2.4,3.1-4,2.4c-1.7-0.8-1.4-3.8-3.1-4.5
	c-0.7-0.3-1.5-0.1-2.2-0.1c-2.5-0.3-3.2-3.4-4.1-5.8c-0.9-2.2-2.5-4.1-4.5-5.3c-1.5-0.9-3.3-1.5-4.4-2.9c-1.8-2.3,1.8-5.9,0.3-8.4
	c-2.8-4.8-11.2,1.7-16.6,0.4c-5.7-1.4-10.9-6.8-11-12.7c-0.1-5.1,3.5-9.9,0.7-16.4c-1.1-2.5-4.4-2.9-6.7-4.3c-1.8-1.1,2.2-4.5,0.6-6
	c-0.4-0.4-1.1-0.5-1.7-0.7c-2.1-0.9-2.1-4.1-0.8-6c1.3-1.9,3.3-3.3,4.5-5.2c0.2-0.3,0.4-0.6,0.3-1c0-0.5-0.4-0.9-0.7-1.2
	c-1.4-1.7-0.3-4.4-1.6-6.2c-0.8-1-2.7,0.1-3.9-0.4c-1.7-0.8,0.3-3.4,0.5-5.3c0.2-2.5-3.3-5.7-1.3-7.2c0.9-0.7,1.8-1.5,2-2.6
	c0.2-1.1,0.2-2.3,0.7-3.4c0.7-1.6,2.5-2.6,3.6-4c2.7-3.1,2.2-7.8,1.5-11.8c-0.1-0.7-0.2-1.3-0.6-1.9c-1.2-1.4-3.4-0.5-5.2,0
	c-3.3,0.9-6.3-1.3-9-3.5c-2.7-2.1-7.6,6.5-9.1,3.4c-2.1-4.3,7.7-7.3,7.6-12.1c0-1.7-3.2,0-4.5,1.2c-1.8,1.6-3.5,3.2-5.3,4.8
	c-1.1,1-2.3,2.1-3.8,2.3s-3.3-0.6-3.4-2c-0.1-1,0.5-2,1.2-2.8c1.1-1.4,4-2.7,3.2-4.3c-1-2.1-3.4-2.9-3.8-5.2
	c-0.1-0.5-0.2-1.1-0.1-1.6c0.3-1.5,2.1-2.2,3.6-2.6c6.3-1.7,10.7-0.2,14.5-5.4c0.6-0.8,2.4-0.7,3.3-0.3c5.9,2.6,12.7,1.1,19-0.3
	c3.8-0.9,7.7-1.8,11.3-3.4c2.3-1,4.5-2.3,6.7-3.6c9.7-5.7,19.7-11.3,30.8-13.3c11.2-2,22.8-0.3,34-2.4c4.1-0.8,8-2.1,12.1-2.6
	c4.8-0.7,9.6-0.4,14.4-0.2c6.7,0.4,13.5,0.7,20.2,1.1c13.1,0.7,27,1.7,37.3,9.7"/>
<path fill="none" stroke="#E1E1E1" stroke-miterlimit="10" d="M362.8,263.1c-0.7-1.4-1.3-2.8-2.6-3.9c-2.4-2.1-4.3-4.8-6.2-7.4
	c-0.6-0.9-0.6-1.8-0.3-2.9c1-4.2-6.2-6.5-10.5-6.9c-3.1-0.3-7.2-0.1-8-3c-0.4-1.5,0.4-3,0.8-4.5c0.4-1.5,0.3-4-1.2-4.1
	c-3.8-0.1-7,6.1-10.5,4.5c-2.4-1.1,2.2-4.4,4.4-5.7c2.3-1.2,5.6-3.9,4-5.9c-1.6-2-3.3-4.1-3.3-6.8c-0.1-2.6,0.7-5.2,1.5-7.7
	c0.4-1.4,0.9-2.9,2.2-3.7c1.2-0.8,2.9-0.7,3.9-1.8c1.7-1.7,0.2-4.5-0.1-6.8c-0.4-2.6,3.1-0.7,2.3-3.2c-0.9-2.8-9.3-3-11-0.5
	c-1.4,2.1-2,3.2-2.6,4.4c-1.2,2.3-5,0.8-6.8,2.7c-1.2,1.2-1.1,3.3-2.8,3.6s-3.4-0.3-5-0.7s-3.5-0.7-5,0.2c-2.3,1.3-2.5,4.6-4.6,6.3
	c-0.7,0.6-1.5,0.9-2.2,1.5c-0.9,0.9-1.2,2.3-1.5,3.6c-0.5,1.8-1.2,3.5-2.1,5.1c-0.8,1.4-1.9,2.7-3.5,3.3c-1.3,0.4-2.7,0.3-4-0.1
	c-4.5-1.4-7.9-5.3-12.5-6.4c-2.1-0.5-4.5-0.4-6.1-1.8c-2-1.6-3.1-4.1-5-5.9c-1.5-1.3-3.1-2.6-3.2-4.6c-0.1-0.7,0.2-1.3,0.2-2
	c-0.1-2.1-2.6-3.2-3.2-5.2c-0.3-1-0.1-2-0.2-3c-0.1-1,0.9-2.7,1-3.7c0.3-3.6,5.1-5.5,8-7.7c0.5-0.4,1-0.8,1.1-1.5
	c0.1-0.9-0.9-1.6-0.8-2.4c0-0.5,0.4-0.9,0.7-1.2c1.9-2,4.4-3.9,4.4-6.6c0-1.8-1.1-3.4-2.5-4.5c-1.4-1.1-3-1.9-4.5-2.8
	c-2-1.3-3.7-2.9-5.7-4.2c-6.9-4.6-16.2-5.2-22.6-10.6c-0.9-0.8-1.8-1.7-1.9-2.9c-0.1-0.7,0.1-1.4,0.3-2.1c0.5-2,1.5-3.7,2.8-5.3
	c0.6-0.7-0.7-1.6-1.2-2.3c-1.1-1.7,2.3-3.5,1.6-5.4c-0.8-2-4.5-0.7-5.5-2.6c-0.4-0.7-0.5-1.7-1.2-2.1c-0.5-0.3-1.1-0.2-1.7-0.2
	c-2-0.1-3.5-1.8-4.7-3.5c-1.8-2.7-3.5-5.6-6.2-7.4c-1.4-1-3.1-1.6-4.4-2.6c-2-1.6-3-4.2-3.2-6.8s1.5-3.8,0.3-6.1
	c-0.4-0.8-2.4-0.3-2.6-1.2c-0.5-3.8,6.7-3.6,9.9-5.8c3.1-2.2,5.4-5.6,8.8-7.3c5.7-2.9,12.5-1.6,18.8-1.5c12.7,0.1,24.9-5.1,37.6-6.6
	c5.4-0.6,10.8-0.5,16.2-0.5c5.2,0.1,10.3,0.1,15.5,0.2c3.1,0,6.4,0.1,9.3,1.3c2.9,1.2,2.9,5.4,5.7,6.9c1.4,0.7,2.8,0.7,3.9,1.8
	c2.2,2.1,5.4,2.9,8.4,3.5c7.6,1.7,15.3,3.4,22.9,5"/>
<path fill="none" stroke="#E1E1E1" stroke-miterlimit="10" d="M216.7,195.1c-4,1.5-5.2,3.2-3.9,5.3c1.3,2.1,4.4,3.1,6.1,1.4
	c1.6-1.6,1.5-4.8,3.7-5.4c1.2-0.3,2.4,0.5,3.4,1.3c1.7,1.3,3.3,2.8,5.1,4c0.6,0.4,1.3-0.2,1.6-0.9c0.2-0.6,0.2-1.4,0.4-2
	c0.4-1.1-3.4-3.5-2.4-4c1.2-0.5,0.7-2.5-0.1-3.6c-0.5-0.7-1.6-1.2-2.3-0.7c-0.3,0.3-0.5,0.7-0.8,1c-1.3,1.4-3.7-0.2-5.4,0.6
	c-0.5,0.3-0.9,0.7-1.3,1.1C219.8,194.1,217.9,194.6,216.7,195.1z"/>
<path fill="none" stroke="#E1E1E1" stroke-miterlimit="10" d="M301.8,252c0.5,0.6,1.3,1.1,1.3,1.8c0,0.9-0.9,1.4-1.7,1.8
	c-6.8,3-13,7.5-18.1,13c-1.7,1.8-3.9,4.2-2.8,6.5c0.4,0.9,1.8,0.3,2.8,0.3c1.6,0.1,2.7,1.7,4.2,2.1c2,0.4,3.8-1.4,5.8-1.6
	c1.4-0.2,2.9,0.5,4.3,0.4c4.5-0.3,8.1-4.1,10.4-8c1.5-2.6,2.3-5.2,3.1-8.1c1.1-3.8-2.1-7.3-3.5-11c-0.2-0.5-0.4-1.1-0.2-1.6
	c0.4-1.3,2.2-1.6,2.9-2.8c0.3-0.5,0.3-1,0.7-1.4c0.4-0.4,1-0.6,1.6-0.6c2.9-0.4,7.1,1.3,8.7-1.2c2.1-3.3-6.2-5.4-9.4-3.2
	c-0.9,0.6-1.7,1.5-2.6,2.2c-1.3,1-3,1.6-4.2,2.7c-1.3,1.1-0.4,3-1.2,4.4C302.9,249.3,300.5,250.4,301.8,252z"/>
<path fill="none" stroke="#E1E1E1" stroke-miterlimit="10" d="M241.3,215.5c-0.6,0.7,0.4,2.7,1.3,2.4c0.6-0.2,1-1,0.8-1.6
	C243.4,215.5,241.8,214.9,241.3,215.5z"/>
<path fill="none" stroke="#E1E1E1" stroke-miterlimit="10" d="M272.6,221.6c-0.2,0.2-0.4,0.5-0.3,0.8c0.2,0.7,0.6,1.3,1.4,1.3
	c0.1,0,1,0.4,1.8,0.1c0.8-0.3,0.1-1.8-0.5-2.3C274.2,221,273.2,221,272.6,221.6z"/>
<path fill="none" stroke="#E1E1E1" stroke-miterlimit="10" d="M308.7,234.5c-1.1-1.1-3.7-1.7-4.3-0.3c-0.3,0.7,1,1.2,1.7,1.5
	c0.6,0.3,1.3,0.5,2,0.3C308.6,235.9,309.1,235,308.7,234.5z"/>
<path fill="none" stroke="#E1E1E1" stroke-miterlimit="10" d="M328.1,373.5c-0.4-1-0.7-2.1-0.6-3.3c0.2-2.4,0.6-5-0.9-6.8
	c-1.7-2.1-5-2-7.2-3.7c-2-1.5-2.8-4.3-5-5.5c-0.4-0.2-0.8-0.4-1.1-0.7c-0.9-1-0.1-3-1.3-3.6c-1-0.4-1.8,0.8-2.6,1.3
	c-1.1,0.7-2.6,0.5-3.7-0.2c-1.1-0.7-1.9-1.8-2.7-2.8c-3.2-4.1-6.2-9.3-11.2-10.9c-2.5-0.8-4.7,2.7-7.4,2.5c-2.7-0.2-1.1-6.3-3.8-7.2
	c-1.6-0.5-2.6,2.3-3.8,3.5c-0.7,0.6-1.4,1.3-1.8,2.1c-0.7,1.2-0.8,2.7-1.2,4.1c-0.4,1.4-1.4,2.8-2.8,2.9c-1.5,0.1-2.3-1.5-3.5-2.3
	c-0.9-0.6-1.2,1.4-1.4,2.5c-0.3,2.1-2.6,3.3-4.7,3.6c-2.2,0.3-4.9,0.5-6.4-1c-0.4-0.4-0.2-1.3-0.7-1.4c-2.9-0.8-4.1,5.3-7.1,5.7
	c-2.3,0.3-7,1.9-5.2,3.3c1,0.7,2.6,0,3.6,0.8c1,0.8,0.5,2-0.1,3.1c-1.9,4,0.3,9-1.4,12.9"/>
<path fill="none" stroke="#E1E1E1" stroke-miterlimit="10" d="M267.3,285c-0.1-0.3-0.2-0.5-0.3-0.8c-0.5-0.7-1.7-0.5-2.3,0.2
	s-0.7,1.6-0.7,2.5c0,1.9-0.3,4.7,1.5,5.5c1.3,0.6,2.4-1.7,2.5-3.2C268.2,287.8,267.7,286.4,267.3,285z"/>
<path fill="none" stroke="#E1E1E1" stroke-miterlimit="10" d="M229.1,327.5c-0.1,0.2-0.2,0.5-0.2,0.8c-0.1,1-0.3,2.1-0.1,3.1
	s1.8,1.5,1.6,2.5c-0.2,1.3-2.3,1.2-2.9,2.3c-0.6,1.1-1.7,2.6-1,3.7c0.5,0.8,1.7,0.6,2.5,0.9c0.3,0.1,0.5,0.2,0.7,0.4
	c0.3,0.3,0.4,0.7,0.5,1.1c0.4,1.8-0.3,4.3,1.2,5.5c0.3,0.2,0.9,0.2,1.2,0c1.4-1,1.4-3.1,2.1-4.7c0.2-0.4,0.3-0.7,0.5-1.1
	c0.4-0.8,0.7-1.7,1.1-2.5c0.7-1.5,1.3-3.1,1.9-4.6c0.2-0.5,0.4-1,0.2-1.4c-0.1-0.4-0.5-0.7-0.8-1c-1.8-1.5-3.7-3.1-5.5-4.6
	c-0.4-0.4-0.9-0.7-1.4-0.9C230,326.9,229.4,327,229.1,327.5z"/>
<path fill="none" stroke="#E1E1E1" stroke-miterlimit="10" d="M227,357.2c0.8-0.1,0.5-1.7,0-2.4c-0.5-0.7-2.4-1-2.7-0.2
	c-0.3,0.7,0.7,1.5,1.3,2C225.9,356.9,226.6,357.3,227,357.2z"/>
<path fill="none" stroke="#E1E1E1" stroke-miterlimit="10" d="M227.1,345c-0.3-1.2-1.2-2.2-2.4-2.7c-0.5-0.2-1.3-0.7-1.7-0.2
	c-1.4,1.5,1.3,4.3,3.3,4.8C227.1,347,227.3,345.7,227.1,345z"/>
<path fill="none" stroke="#E1E1E1" stroke-miterlimit="10" d="M227.3,325.6c0-1.2-1.2-2-2.2-2.6c-0.3-0.2-0.6-0.3-0.9-0.3
	c-0.7,0.1-0.9,1.1-0.7,1.9c0.3,1.6,0.8,4.7,2.3,4.2C226.9,328.4,227.3,326.8,227.3,325.6z"/>
<path fill="none" stroke="#E1E1E1" stroke-miterlimit="10" d="M221.3,324.8c0-0.2,0-0.5-0.1-0.6c-0.3-0.5-1-0.3-1.4,0.1
	c-1,0.9-1.1,2.4-1,3.8c0,0.5,0,1.4,0.5,1.3c0.3,0,1.2,0.5,1.7-0.5C221.5,327.6,221.2,326.3,221.3,324.8z"/>
<path fill="none" stroke="#E1E1E1" stroke-miterlimit="10" d="M189.1,295.4c0.2-0.1,0.4-0.3,0.5-0.6c0-0.2,0-0.4-0.1-0.5
	c-0.4-0.9-1.4-1.3-2-2c-0.5-0.5-0.7-1.3-1.2-1.8c-0.9-1.2-2.6-1.4-4.1-1.3c-1.5,0.1-3,0.4-4.4,0.1c-0.3-0.1-0.7-0.1-0.8,0.1
	c0,0.1-0.1,0.1-0.1,0.2c-0.8,2.1,0.1,4.6,1.8,6c1.7,1.4,4.1,1.8,6.3,1.5C186.4,296.8,187.8,296.3,189.1,295.4z"/>
<path fill="none" stroke="#E1E1E1" stroke-miterlimit="10" d="M183.5,234.4c-3-2.2-6.4-4.4-10.1-4.1c-1.4,0.1-2.9,0.6-4.2,0.1
	c-1.3-0.6-2.1-2-3.2-2.9c-3.5-2.6-9.3,1.4-12.6-1.5c-1.2-1.1-1.6-2.9-2.2-4.4c-0.6-1.6-1.9-3.8-3.5-3.2c-2.9,1.2-2.5,5.8-1.7,8.9
	c0.8,3.1,0.7,7,3.3,8.9c1.1,0.8,1.7-1.9,1.6-3.2c-0.1-1.3,0.1-3.1,1.4-3.4c1.5-0.3,1,2.5,2.3,3.2c1.8,0.9,2.3,1.9,3.8,3.3
	c1.4,1.3,3.9,0,5.8,0.4c0.5,0.1,1.1,0.2,1.5,0.6c0.5,0.5,0.5,1.2,0.6,1.8c0.2,2.7-1,5.4-0.4,8.1c0.5,2.4,4.2-0.2,6.5,0.7
	c4.9,2-3.1,9.9-6.5,13.8c-1.2,1.3-2.4,2.7-3.2,4.3c-1.9,3.9-0.6,8.5-1.3,12.7c-0.5,3-1.9,5.9-1.5,8.8c0.7,4.6,5.4,7.4,9.5,9.5
	c3.7,1.9,7.5,3.8,11.6,4.5c4.1,0.8,8.6,0.3,11.9-2.3c1.2-0.9,2.3-2.1,3.8-2.3c1.6-0.1,3.7,1.5,4.7,0.2c1.1-1.4,0.2-3.7-0.7-5.3
	c-0.4-0.6-0.8-1.1-1.1-1.8c-0.3-0.8-0.2-1.7-0.2-2.5c0.1-6.3-4.2-13.4-0.9-18.7c1.2-1.9,3.4-3.1,5.1-4.6c1.6-1.4,3.3-3,3.7-5.1
	c0.5-2.2-0.5-4.4-1.4-6.5c-1.6-3.4-3.5-7.1-6.9-8.6c-1.8-0.8-3.9-0.8-5.5-1.8c-0.8-0.5-1.5-1.2-2.1-1.8
	C188.8,238.2,186.1,236.3,183.5,234.4z"/>
<path fill="none" stroke="#E1E1E1" stroke-miterlimit="10" d="M200.3,238.1c-1,0.6-1.8,1.8-1.2,2.8c0.4,0.7,1.4,0.9,2.2,0.7
	c0.8-0.1,1.5-0.5,1.9-1.2c0.4-0.6,0.3-1.4-0.1-2s-1.2-0.9-1.8-0.8C200.9,237.8,200.6,237.9,200.3,238.1z"/>
<path fill="none" stroke="#E1E1E1" stroke-miterlimit="10" d="M144.3,209.6c0.3-0.6,0.6-1.2,0.6-1.9c0-0.7-0.3-1.4-0.9-1.6
	c-0.6-0.2-1.3,0.2-1.7,0.7c-0.4,0.5-0.2,1.4-0.6,1.8c-1.2,1.1-3.8-0.8-4.8,0.5c-1.5,2.1,3.9,5.3,5.8,3.7
	C143.6,212.1,143.7,210.7,144.3,209.6z"/>
<path fill="none" stroke="#E1E1E1" stroke-miterlimit="10" d="M48.7,319.2c-0.4-0.7-1.7-0.4-2.1,0.4c-0.4,0.8-1.1,1.9-0.6,2.5
	c0.5,0.6,2,0.5,2.4-0.2C48.9,321.1,49.1,320,48.7,319.2z"/>
<path fill="none" stroke="#E1E1E1" stroke-miterlimit="10" d="M118.7,171.6c-4.3-1.6-5.7,2.8-10.2,2.5c-2.7-0.1-5.9-1.1-7.8,0.8
	c-1.2,1.2-1.5,3.1-1.3,4.8c0.1,1.7-0.9,3.9,0.3,5.1c1,1,3.3-0.2,3.6,1.2c0.2,1.1-1,2-2.1,2.3c-1.1,0.3-2.4,0.6-2.9,1.7
	c-0.3,0.6-0.2,1.3-0.1,2c0.2,1.3-0.1,2.8,0.6,3.9c0.5,0.7,1.7,0.3,2.6,0.2c0.9,0,2,0.3,2.1,1.2c0.1,1.1-1.3,1.6-2.2,2.2
	c-1.5,1.2-1.4,3.6-0.2,5c1.2,1.5,3,2.2,4.8,2.6c2.4,0.6,5.1,0.8,7.3-0.4c1.1-0.6,2-1.5,2.8-2.5c2.1-2.3,2.5-5.6,4-8.2
	c0.7-1.2,0.1-2.3-0.7-3.4s-1.8-2.3-1.6-3.7c0.1-0.5,0.3-1,0.5-1.4c0.9-2.3,1.2-4.8,1-7.2c-0.1-0.7-0.2-1.4-0.1-2
	c0.1-0.6,0.5-1.2,0.6-1.9c0.1-0.8-0.1-1.5-0.3-2.3C119.1,173.5,119.3,171.9,118.7,171.6z"/>
<path fill="none" stroke="#E1E1E1" stroke-miterlimit="10" d="M75.6,191.7c1.1-1.2-0.3-3.4,0.5-4.8s2-2.7,3.1-3.9
	c3.6-4,6.3-8.8,7.8-13.9c0.2-0.5,0.3-1.1-0.1-1.5c-0.3-0.4-0.9-0.4-1.4-0.3c-6.3,0.6-12.3,2.7-18.3,4.7c-2.2,0.8-4.4,1.6-6.1,3.1
	c-2,1.9-3,4.6-3.8,7.3c-0.2,0.5-0.3,1.1,0.1,1.4c0.2,0.2,0.6,0.2,0.9,0.1c2.2-0.3,4.5-0.6,6.7-0.8c0.6-0.1,1.3-0.1,1.8,0.2
	c0.6,0.3,0.9,1.1,1.2,1.7C69.5,188.1,73.3,194.3,75.6,191.7z"/>
<path fill="none" stroke="#E1E1E1" stroke-miterlimit="10" d="M238.6,182.4c0.1-1.4,0.1-2.9-0.3-4.3c-0.3-0.8-0.8-1.6-1.6-1.9
	c-1-0.3-1.9,0.3-2.8,0.8c-1.1,0.7-2.2,1.4-2.9,2.4c-0.7,1-1,2.5-0.3,3.6c0.6,0.9,2.4,1.8,1.6,2.6c-0.5,0.5-1.3,0.2-1.9,0.6
	c-0.6,0.4-0.9,1.1-0.7,1.7c0.3,0.7,1.2,0.9,2,1c1.8,0.2,3.8,0.2,5.2-1C238.3,186.6,238.5,184.4,238.6,182.4z"/>
<path fill="none" stroke="#E1E1E1" stroke-miterlimit="10" d="M228.2,174.4c-0.3,0-0.6,0-0.9,0.1c-0.7,0.2-1.1,1-1.3,1.8
	c-0.1,0.7-0.1,1.5-0.3,2.3c-0.2,0.7-0.6,1.3-1,2c-0.6,1.1-1,2.3-1.4,3.5c-0.2,0.6-0.4,1.4,0.1,1.8c0.2,0.1,0.4,0.2,0.7,0.2
	c1.5,0.2,3.7-0.3,4-1.8c0.2-1-0.3-1.9-0.4-2.9c-0.1-0.9-0.2-1.9,0.3-2.6c0.8-1,2.7-1.1,2.9-2.4c0.1-0.6-0.4-1.2-0.9-1.5
	C229.5,174.4,228.8,174.4,228.2,174.4z"/>
<path fill="none" stroke="#E1E1E1" stroke-miterlimit="10" d="M254.7,91.5c3.8,2,8.6,4,12.6,5.6c0.5,0.2,1,0.4,1.2,0.9
	c0.2,0.5,0,1-0.3,1.4c-2.7,4.9-8.8,6.7-13.4,10c-1.4,1-2.7,2.2-4.3,3c-1.6,0.7-3.6,0.9-5-0.2c-1.4-1.1-1.7-3.1-2.1-4.9
	c-1.3-5.7-10.9-9.9-8.6-15.3c1.6-3.8,8.5-0.9,12.6-1.4c0.7-0.1,1.5-0.2,2.2-0.2C251.2,90.5,253.4,90.8,254.7,91.5z"/>
<path fill="none" stroke="#E1E1E1" stroke-miterlimit="10" d="M280.6,198.1c0.2,0.4,0.5,0.7,0.8,1c0.7,0.6,1.7,1.4,2.4,0.7
	c0.9-0.8,1.2-2.1,1.2-3.4c0-0.3-0.1-0.5-0.2-0.7c-0.1-0.1-0.3-0.2-0.5-0.2c-0.9-0.2-1.9-0.3-2.7,0.2S280.2,197.3,280.6,198.1z"/>
<path fill="none" stroke="#E1E1E1" stroke-miterlimit="10" d="M294.3,185.2c0.6,0.1,1.2-0.2,1.7-0.5c2.8-1.5,5.5-3.1,8.4-4.4
	c1-0.4,2-0.8,3-1.3c1.5-0.8,2.8-2,3.8-3.4c0.1-0.2,0.3-0.4,0.3-0.6c0.1-0.5-0.3-0.9-0.8-1.1c-0.5-0.1-1-0.1-1.5,0
	c-5.1,1-9.9,3.1-14.1,6.1c-0.9,0.7-1.8,1.5-2.2,2.6C292.5,183.6,293.1,185.1,294.3,185.2z"/>
<path fill="none" stroke="#E1E1E1" stroke-miterlimit="10" d="M298.1,187.5c-0.5,0.2-1,0.4-1.5,0.7c-1.6,0.8-4.1,3.6-4.7,1.9
	c-1.1-2.9,3.9-3.5,6.5-5.2c0.6-0.4,2.6-1.5,3.2-1.8c1.5-0.5,2.3-0.1,3.8,0.4c0.3,0.1,0.5,0.2,0.7,0.4c0.5,0.6-0.2,1.5-0.9,1.8
	c-1.5,0.9-3.2,1.4-4.9,1.5C299.6,187.3,298.8,187.3,298.1,187.5z"/>
<path fill="none" stroke="#E1E1E1" stroke-miterlimit="10" d="M309.1,182.3c-0.2,0.6,1,0.9,1.6,0.9c0.7,0,1.3-0.2,1.9-0.5
	c0.6-0.2,1.2-0.5,1.8-0.7c1-0.4,2-0.8,2.8-1.5s1.9-2,1.1-2.8c-1.1-1.2-3.3-0.8-4.7,0C311.7,178.8,309.8,180.3,309.1,182.3z"/>
<path fill="none" stroke="#E1E1E1" stroke-miterlimit="10" d="M303.9,145.7c0.9-0.6,2.2-1.8,1.5-2.6c-1.4-1.8-4.4-1.2-6.6-0.7
	c-0.5,0.1-1,0.2-1.5,0.3c-1.6,0.2-3.2-0.4-4.8-0.6c-1.5-0.2-3,0.1-4.4,0.6c-0.2,0.1-0.4,0.2-0.4,0.4c-0.1,0.2,0.1,0.4,0.2,0.5
	c1,1.6,2.1,3.3,3.1,4.9c1.1,1.7,2.2,3.4,3.7,4.6c0.3,0.2,0.5,0.4,0.8,0.5c0.8,0.2,1.6-0.6,1.9-1.4c0.3-0.8,0.3-1.7,0.6-2.5
	C299,147.5,301.9,147,303.9,145.7z"/>
<path fill="none" stroke="#E1E1E1" stroke-miterlimit="10" d="M337.9,134.4c1.8,2.9,8.4-1.6,10.2,1.3c0.8,1.3-1.1,2.7-1.7,4.1
	c-0.3,0.8-0.7,1.6-1.2,2.3c-2.1,2.6-6.1,2.4-9.3,1.8c-6.4-1.2-12.8-2.6-19.1-4.3c-0.2-0.1-0.4-0.1-0.5-0.3c-0.1-0.1-0.2-0.4-0.2-0.6
	c0-0.9,0.8-1.5,1.5-2.1c3.4-2.6,6.7-5.2,10.1-7.8c0.7-0.5,1.4-1.1,2.3-1.2c0.9-0.1,1.8,0.2,2.6,0.6c2.1,0.9,4.1,1.8,6.2,2.7
	c0.5,0.2,1.1,0.5,1.2,1.1C340.1,133.1,337.3,133.5,337.9,134.4z"/>
<path fill="none" stroke="#E1E1E1" stroke-miterlimit="10" d="M322.7,115c-0.7-0.9-2.1-1.5-2.1-2.7c0-1.1,1.2-2,2.3-2.1
	c1.1-0.1,2.2,0.3,3.3,0.7c5,1.8,11.4-0.6,15.6,2.6c1.2,0.9-1.2,2.7-2.5,3.5c-2.1,1.3-4,2.9-5.7,4.7c-0.4,0.5-0.9,0.9-1.4,1.2
	c-0.8,0.5-1.9,0.4-2.8,0.4c-0.6,0-1.1,0-1.6-0.3c-0.3-0.1-0.5-0.3-0.7-0.5C325.7,121.3,323.9,116.4,322.7,115z"/>
<path fill="none" stroke="#E1E1E1" stroke-miterlimit="10" d="M364.9,148.9c-2.1,2-4.8,3.3-7.5,4.3c-8.8,3.3-18.5,3.6-27.8,2.2
	c-2.8-0.4-5.8-1.1-8.5-0.2c-1.3,0.4-2.6,1.1-3.8,1.9c-3,1.8-6,3.6-8.3,6.2c-1.7,1.8-3,4-4.6,5.9c-1.5,1.8-3.4,3.6-5.8,3.8
	c-2.4,0.2-4-1.8-4.4-4.2c-0.6-4-5.1-6.9-7.2-10.3c-1-1.5-1.9-3-3-4.4c-2.2-2.7-5-5-8.2-6.5c-3.4-1.6-7-2.3-10.4-3.8
	s-6.7-3.9-7.9-7.4c-0.1-0.3-0.2-0.5-0.1-0.8c0.1-0.4,0.4-0.6,0.8-0.8c3.2-1.9,7.2-1.9,11-2.1c11-0.5,21.9-3,32-7.4
	c1.1-0.5,2.3-1,3-2c0.7-0.9,1-2.1,1.6-3c0.7-0.9,1.7-1.6,2.5-2.4c3.3-3.1,3.5-9,0.4-12.2c-1.7-1.8-4.2-2.9-5.7-4.9
	c-1.9-2.6,0.4-6.5-1-9.4c-0.7-1.4-3.8-0.6-4.6-2c-0.2-0.3-0.3-0.7-0.1-0.9c1.9-1.9,5.4,0.2,8.1,0.3c0.4,0,0.7,0,1.1,0.2
	c0.8,0.3,1.3,1,2.1,1.1c0.5,0.1,1.3,0.5,1.7,0.7c1.4,0.8,1.5,4.6,3,5.6c1.5,0.9,3.4,0.7,5.1,0.7c5.6-0.2,11.1,1.4,16.5,3
	c2.2,0.7,4.4,1.3,6.6,2c5.6,1.7,11.1,3.3,16.7,4.9c1.3,0.4,2.7,0.8,4.1,0.9c0.7,0.1,1.4,0,2.1-0.1"/>
<path fill="none" stroke="#E1E1E1" stroke-miterlimit="10" d="M-6.6,371.3c0.6-1.4,1-2.9,1.3-4.4c0.2-1.1,0.4-2.2,1-3.1
	c1.6-2.5,6.6-1.2,7.9-3.9c0.9-1.9,1.5-3.7,3.1-5c1.6-1.3,4.1-4,2.5-5.2c-1.7-1.2-4.2,0.3-6,1.4c-2.4,1.5-4.2,4-6.9,5.1
	c-1.9,0.8-4,0.8-6.1,0.9c-2.2,0.1-4.4,0.5-6.6,1c-0.6,0.1-1.1,0.3-1.7,0.5"/>
<path fill="none" stroke="#E1E1E1" stroke-miterlimit="10" d="M-16.9,258.5c1.5-1.1,3.2-2.2,4.9-2.8c2.4-0.9,5-1.2,7.2-2.6
	c2.2-1.4,2.1-4,2-6.5c-0.2-4.5,8.5-4.4,10.4-8.5c1.5-3.3,5.1-4.4,6.5-7.7c0.5-1.2,0.3-2.6,0-4c-1.3-6.9,1.9-16.8-3.9-20.7
	C6,202.9-0.2,208.1-3.5,212c-1.3,1.5-2.1,3.4-3.6,4.7c-1.5,1.3-4.6,2-5.3,0.1c-0.3-0.9,1.4-1.7,1-2.5c-0.9-1.6-3.8,1.6-5.5,1.5"/>
<path fill="none" stroke="#E1E1E1" stroke-miterlimit="10" d="M-17.3,258.9c0.2-0.1,0.3-0.2,0.5-0.3"/>
<path fill="none" stroke="#E1E1E1" stroke-miterlimit="10" d="M-16.9,298c0.6,0.1,1.1,0.2,1.7,0.2c0.7,0,1.6-0.2,2-0.8
	c0.2-0.2,0.3-0.6,0.2-0.9c-0.1-0.2-0.4-0.4-0.6-0.5c-1-0.4-2-0.8-3-1.2c-0.3-0.1-0.6-0.2-0.8-0.3"/>
<path fill="none" stroke="#E1E1E1" stroke-miterlimit="10" d="M82.8,334.8c-2.6,1.3-3.2-4.9-5.9-5.7c-0.7-0.2-1,1-1.6,1.4
	c-4.6,3.3-7.5,10.3-13.1,10.4c-2,0.1-0.6-4.7-2.5-5.3c-3.9-1.3-5,8-9.1,8.3c-2.3,0.1-1.5-4-0.7-6.2c0.9-2.4,1.8-4.9,3.4-6.9
	c0.5-0.7,1.2-1.3,1.5-2.1c0.3-0.8,0.3-2.1-0.5-2.3c-1.3-0.3-2.9,1.2-4,0.4c-2.3-1.6,2-4.9,4.3-6.6c4.2-3.2,7.7-7.1,10.4-11.6
	c1-1.7,2.7-5.1,0.8-5.6c-1.1-0.3-1.6,2.4-2.7,2.2c-1.3-0.2-0.8-2.4-1.5-3.5c-1.9-3.4-5.5-6-5.6-9.9c0-1.3,0.3-2.6-0.3-3.7
	c-0.9-1.5-2.3-2.6-3.6-3.7c-1.5-1.3-4.3,0.7-5.8-0.5c-0.3-0.3-0.5-0.8-0.4-1.2c0.3-2.9,5.1-2.7,8-2.9c3.6-0.3,7.2-1,10.7-2.1
	c2.9-1,6.7-2.1,8.7,0.3c1.6,1.9,0.9,5,2.6,6.8c0.6,0.6,1.3,1,1.8,1.7c0.6,0.9,0.5,2,0.5,3c-0.2,3-0.4,6-0.6,9
	c-0.2,3.2-2.9,6.6-1.6,9.6c0.9,2.1,3.7-2.1,5.8-3c1.6-0.8,3.6-0.2,5,1"/>
<path fill="none" stroke="#E1E1E1" stroke-miterlimit="10" d="M-7,70.1c-1.6-1.3-3.9-2.9-5.9-2.4c-1.2,0.3-2.6,1.5-3.6,0.7
	c-0.5-0.4,0.1-1.4,0.6-1.9c0.5-0.5,1.2-0.8,1.8-1c0.6-0.2,1.2-0.5,1.5-1c0.5-0.8,0.2-1.9-0.6-2.5c-0.7-0.6-1.7-0.7-2.7-0.6
	c-0.5,0-1,0.1-1.4,0s-0.9-0.5-0.8-1"/>
<path fill="none" stroke="#E1E1E1" stroke-miterlimit="10" d="M-20.3,53.1c5.1,0.8,11-1.7,15.3,1.2c0.8,0.5,1.4,1.2,2.2,1.7
	c1,0.7,2.2,1.1,3.4,1.5c6.7,2.4,12.8,6,18.9,9.7c0.7,0.4,1.4,1.5,1.8,2.2c2.7,4.3,6.2,8.6,4.4,13.4c-0.6,1.5-1.5,2.9-1.4,4.5
	c0,0.7,0.3,1.4,0.1,2.1c-0.3,1-1.4,1.6-2.1,2.3c-1,1.1-1.3,2.7-1.8,4.2c-1.1,3.6-3.3,6.8-6.4,9c-1.5,1.1-3.2,2-4.4,3.4
	c-2.1,2.5-4.2,6.9-2.1,9.5c4.6,5.7,11.5,10.1,18.8,10.8c1.4,0.1,2.8,0,4.2-0.1c5.7-0.2,11.3,1.5,16.8,3.2c3.5,1.1,6.7,1.7,10.4,2
	c3.3,0.3,6.5-1,9.7-1.8c7.9-1.9,16.2-0.7,24,1.3c0.6,0.1,1.7,0.5,2.3,0.6c1.8,0.4,3.6,0.6,5.4,0.2c3.7-0.8,6.3-3.9,8.9-6.5
	c4.6-4.6,10.5-9.6,16-12.6c2.9-1.6,4.1-4.9,7.2-6c0.7-0.2,1.4-0.4,2-0.8c0.8-0.5,1.4-1.3,2-2.1c3.4-4.2,8.3-6.8,13.1-9.2
	c3.3-1.7,6.5-3.4,9.8-5.1c9.7-5,19-9.9,29.3-13.3c6.5-2.2,13.3-4.4,20.2-3.6c1.2,0.1,2.4,0.4,3.6,0.2c0.9-0.1,1.7-0.5,2.5-0.8
	c24.3-10.3,50.4-16.3,76.7-17.6c3.8-0.2,7.6-0.3,11.4-0.4c3.4-0.1,6.9-0.2,10.3-0.2c4.8,0,9.7,0.2,14.5,0.3
	c13.1,0.3,26.2,0.2,39.4-0.2"/>
<path fill="none" stroke="#E1E1E1" stroke-miterlimit="10" d="M-21.3,42.9c10.5,1.2,20.9,3.3,31,6.1c0.4,0.1,0.8,0.2,1.1,0.5
	c0.3,0.3,0.5,0.6,0.7,0.9c1.2,1.7,3.3,2.4,5.4,2.7c2,0.3,4.2,0.2,6.1,0.8c3.9,1.1,7,4.7,11.1,5c0.7,0,1.4,0,2.1,0.3
	c0.7,0.3,1.1,0.8,1.6,1.4c3.1,3.4,7.2,5.9,11.3,7.9c4,2,7.2,8.7,4.6,13.8c-0.8,1.6-2.3,2.7-3.5,4c-1.2,1.3-2.2,3.1-1.6,4.8
	c0.2,0.5,1.1,1.6,1.1,2.1c0,1.5-2.8,1.1-3.9,2.1c-0.9,0.8-1,2.3-0.2,3.2c0.8,0.9,2.2,0.1,3.3,0.4c2.4,0.6,0.2,3.4-0.8,4.1
	c-4.8,3.5,11.1,3.2,16.5,3.2c0.9,0,1.6,0.9,2.5,1c0.6,0,1.2-0.1,1.7-0.2c2.3-0.5,4.5-0.8,6.8-0.9c0.9-0.1,1.9-0.1,2.8,0.1
	c1.1,0.2,2.1,0.5,3.2,0.8c4.2,1.1,8.6,0.6,12.8-0.5c0.5-0.1,1.5-0.3,2-0.4c3.2-0.6,6.6-0.3,9.3-2.1c2.4-1.6,3.5-4.2,6.2-5.1
	c3.4-1.1,9-3.6,9.1-3.9c1.2-2.3,5.8-2.2,7.8-3.9c11.9-9.9,27-13.1,40.7-20.4c2.5-1.3,4.2-3.9,6.8-5.1c4.2-1.8,8.8-2.3,13-3.9
	c10.7-4,21.3-8.7,32.7-9.6c3.8-0.3,7.6-0.2,11.3-0.7c6.3-0.8,12.2-3.1,18.3-4.7c10.4-2.7,21.2-3.4,31.9-4.4c5.4-0.5,10.7-1,16.1-1.6
	c4.2-0.4,8.4-0.9,12.7-1.3c2.2-0.2,4.4-0.5,6.3-1.5s1.6-3.6,2.9-5.4c0.8-1.2,1.2,1.6,1.9,2.9c1.1,2.1,5.3,1.6,7,0
	c1.6-1.4-2.8-3-3.6-4.9c-1.2-2.7,2.3-6.1,0.7-8.6c-1.5-2.4-5.8-1-7.6-3.2c-0.4-0.4-0.6-1-1.1-1.3c-0.9-0.6-2.1,0.1-3,0.7
	c-3.1,1.8-8.2,3.4-10.2,0.5c-0.5-0.6,0.4-1.8-0.2-2.4c-4.1-3.5-14.8-5.5-16.3-0.3c-0.4,1.3,0.4,2.6-0.9,2.7s-2.4-1-3.1-2.1
	s-1.9-1.8-2.6-2.9c-0.5-0.9,0.9-2.2,0.4-3.1c-1.9-3.5-7.3,2.7-11.2,1.7c-1-0.2-0.2-2.3-1-2.8c-0.8-0.5-2.3,1-2.8,0.2
	c-0.6-0.8-0.9-0.9-1.6-1.7c-2-2.3-2.2-3.3-4.8-4.9c-1.1-0.6,0.2-2.5-0.1-3.7c-0.8-3.6-3-6.6-4.5-10"/>
<path fill="none" stroke="#E1E1E1" stroke-miterlimit="10" d="M237.8,1.8c0.1-0.4,0-0.8-0.2-1.2c-0.2-0.3-0.6-0.5-0.9-0.6
	c-1.1-0.6-2.2-1.1-3.5-1.1c-1.3,0-2.7,0.7-3.5,1.7s-1,2.5-0.6,3.8c0.3,0.9,0.3,2,0.8,2.8c0.3,0.5,1-0.5,1.3-1
	c0.8-1.1,2.3-1.5,3.6-1.9S237.6,3.2,237.8,1.8z"/>
<path fill="none" stroke="#E1E1E1" stroke-miterlimit="10" d="M208.2,0.9c0.5,0.2,0.8,0.7,1.2,1.1c0.6,0.6,1.5,1,2.4,0.7
	c0.8-0.2,1.6-1.3,1.2-2c-0.3-0.6-1.3-0.4-1.7-0.8c-0.7-0.7-0.9-1.7-1.8-1.9c-0.8-0.2-1.7-0.1-2.2,0.5s-0.5,1.7,0.1,2.1
	C207.6,0.8,207.9,0.8,208.2,0.9z"/>
<path fill="none" stroke="#E1E1E1" stroke-miterlimit="10" d="M277.6-10.1c-1,1.6-0.5,3.9,0.9,5.2c1.4,1.3,3.5,1.7,5.3,1.3
	c0.9-0.2,1.7-0.5,2.6-0.3c0.8,0.2,1.5,0.8,2.1,1.4c2.7,2.5,6.3,5,9.7,3.6c0.6-0.2,1.1-0.6,1.8-0.7c1-0.1,2,0.5,2.9,1.1
	c3.5,2.4,7.8,4.4,11.7,3c2.6-1,5.2-1.5,7.7-2.8c1.6-0.8,0.6-3.8,1.9-5c1.5-1.4,2.9,2.5,4.8,3.3c0.7,0.3,1.5,0.3,2.3,0.2
	c1.3-0.1,2.8-0.2,3.9-0.9c1.2-0.7,0.9-2.2,1.4-3.4c0.6-1.6,3.2,0.4,4.5,1.4c1.9,1.6,3.8,3.2,5.7,4.7c0.3,0.3,0.7,0.5,1.1,0.7
	c0.7,0.2,1.5,0,2.2-0.1c3.1-0.5,7-2.3,9.2-0.2c1.1,1.1-3,2.6-2.3,4c0.4,0.7,1.9-0.5,2.5,0c0.6,0.5-0.1,1.7,0.5,2.2
	c1.4,1.2,3.7,0,5.5-0.2"/>
<path fill="none" stroke="#E1E1E1" stroke-miterlimit="10" d="M-18.8,10.4c3.6-1,7.2-1.9,10.8-2.9C-7.6,7.4-7.2,7.3-6.9,7
	c0.4-0.3,0.5-0.8,0.6-1.3c0.7-3-0.7-6.5,1-9c1.1-1.6,3.6,0.9,4.6,2.5S1,2.9,2.6,3.9c2.2,1.4,5.3,0.5,7.4,1.9
	c1.3,0.9,2.1,2.6,3.6,2.8c0.7,0.1,1.5-0.1,2.2-0.2c3.1-0.4,5.9,1.5,8.6,3.1s5.8,0.3,8.8,1.2c1.9,0.6,3.3,0.6,4.9,1.7
	c3.3,2.3-5.6,7.9-3.7,11.5c0.5,1,2.2,0,3.3,0.1c6.8,0.3,13.1,3,19.5,5c0.9,0.3,0.5,1.8-0.2,2.5s-1.6,0.9-2.5,1.2
	c-4.4,1.2-8.7,2.4-13.1,3.6c-0.2,0.1-0.4,0.1-0.6,0.1c-0.4,0-0.8-0.3-1.1-0.6c-2.4-1.8-5.4-2.7-8.3-2.6c-3.8,0.2-8.2,1.8-11-0.7
	c-0.3-0.2-0.5-0.5-0.6-0.8c-0.2-0.8,0.7-1.5,1.4-2c4.1-2.6,12.3-6.5,9.7-10.5c-1-1.5-3.5,2.3-5.2,1.6c-1.2-0.4-1.9-1.7-3.2-1.4
	c-1.2,0.2-2.3,1-3.5,1.5c-2.3,1-5,1-7.5,1.1c-1.1,0-2.3,0-3.4-0.3c-1-0.3-1.8-0.8-2.8-1.2c-4.2-1.7-9.5,0-12,3.8
	c-0.6,0.9-1.2,2-2.2,2.1c-0.6,0.1-1.2-0.2-1.7-0.5c-3-1.5-6.3-2.2-9.6-2.1"/>
<path fill="none" stroke="#E1E1E1" stroke-miterlimit="10" d="M48.9-11c-0.5,1.7,1.5,3,2.9,4.2c2.4,2.1,3.2,5.3,4.4,8.2
	c1.3,2.9,5.5,2.9,6.8,5.8c1.1,2.5-5.2,3.9-4.9,6.6c0.3,2.9,5.5,1.8,8.1,0.6c2.6-1.3,4.7-3.4,7.4-4.6c3.1-1.5,6.6-1.8,10-2.1
	c0.6,0,1.3-0.1,1.8,0.3c0.4,0.3,0.5,0.8,0.7,1.2c0.7,2.4,0.7,5,0.2,7.4c-0.2,0.7-0.4,1.4-0.2,2.1c0.2,1.3,1.5,2.1,2.7,2.4
	c1.3,0.2,2.6,0,3.8,0c1.7-0.1,3.4,0.2,5,0.8c0.3,0.1,0.6,0.2,0.7,0.4c0.4,0.5-0.1,1.3-0.5,1.8c-1.5,1.7-3.1,3.5-5.2,4.5
	c-2.6,1.4-6.4,2-7.1,4.9c-0.4,1.7,0.6,3.4,0.4,5.1c-0.1,0.9-0.5,1.7-1,2.5c-3,5.6-12.4,13.8-11,15.7c1.5,2,9.6-3,14.4-4.5
	c1.6-0.5,3.7-0.9,4.7,0.5c0.4,0.5,0.5,1.1,0.8,1.6c0.9,2.1,3.3,3.1,5.6,3.2c4.4,0.1,8.3-2.7,11.9-5.2c1.6-1.1,3.3-2.1,5.3-2.1
	c1.5,0,2.9,0.6,4.3,1s3.1,0.4,4.2-0.6s-0.5-2.1-0.5-3.5c-0.1-1,3.4-0.9,9.6-6.7c1.5-1.4,3.5-2.5,4.6-4.3c0.8-1.5,1.1-3.2,1.9-4.6
	c1.9-3.8,6.3-5.5,9.4-8.3c0.8-0.7,1.5-1.5,2-2.4c0.4-0.7,0.6-1.5,0.9-2.3c1.4-3.9,4.1-7.3,7.5-9.6c0.6-0.4,1.1-0.7,1.5-1.3
	c0.3-0.5,0.3-1.3,0.8-1.7c0.6-0.6,1.7-0.2,2.5-0.4c0.9-0.3,1.4-1.1,1.8-2c1.3-2.5,2.6-5,3.9-7.4c0.4-0.8,0.9-1.6,1.7-2.1
	c0.5-0.3,1.2-0.4,1.8-0.5c3-0.7,5.5-3.2,6.1-6.2"/>
<path fill="none" stroke="#E1E1E1" stroke-miterlimit="10" d="M85.9,38.5c-0.1,0.9-0.5,1.7-1,2.5c-3,5.6-12.4,13.8-11,15.7"/>
<path fill="none" stroke="#E1E1E1" stroke-miterlimit="10" d="M98.9-12c0.2,2.1,1.5,4.1,3.3,5.2c1.2,0.7,2.7,1.1,3.5,2.4
	c1,1.7-0.1,3.8-0.4,5.7c-0.3,2.2,0.5,4.6,2.2,6.1c1.7,1.5,4.2,0.5,6.3,1.4c1.1,0.5-0.1,2.8,0.9,3.5c0.8,0.6,1.9-0.6,2.8-0.4
	c0.9,0.2,1.8,1.1,1.7,2c-0.1,0.9-1,1.4-1.7,1.8c-4.8,2.8-6.4,5.3-10.1,9.4c-0.8,0.9-4.3,2.9-4.5,4.1c-0.4,2.2-1.1,5.4,0.7,6.7
	c4.8,3.2,19.8-4.5,29.3-8c1.1-0.4,2.2-0.8,3.1-1.6c1.7-1.4,2.4-3.6,2.4-5.8s-2.5-4.6-1.2-6.3c1.6-2.1,5.3-1.5,6.6-3.8
	c0.6-1.1,1-2.4,1.8-3.3c0.7-0.9,1.7-1.5,2.5-2.3c2-2,2.8-5.2,1.9-7.9c-0.2-0.7-0.6-1.4-0.5-2.1c0.1-0.6,0.4-1,0.8-1.5
	c1-1.3,1.9-2.6,2.9-3.9"/>
<path fill="none" stroke="#E1E1E1" stroke-miterlimit="10" d="M121.3,22.9c0.1,0.2,0.3,0.4,0.4,0.5c1.5,1.1,4,0,4.2-1.9
	c0-0.2,0-0.5-0.1-0.7c-0.1-0.1-0.2-0.2-0.3-0.3c-1.5-0.9-3.7-0.1-4.2,1.6C121.2,22.4,121.2,22.7,121.3,22.9z"/>
<path fill="none" stroke="#E1E1E1" stroke-miterlimit="10" d="M123.2-9.5c2,2.5,0.9,6.4,2.8,9c0.7,0.9,2.3,0.3,3.3,0
	c0.3-0.1,0.6-0.2,0.8-0.4c0.3-0.3,0.4-0.7,0.5-1.1c1.1-3.6,3.5-6.8,6.7-8.9"/>
<path fill="none" stroke="#E1E1E1" stroke-miterlimit="10" d="M47.6,96.7c0,0.5,0.5,0.8,0.9,0.8c0.5,0,0.9-0.2,1.4-0.2
	c0.3,0,0.7,0,0.8-0.3c0.2-0.3-0.1-0.7-0.4-0.9C50,96,49.5,96,49.1,96c-0.3,0-0.6,0-0.9,0.1C47.9,96.2,47.6,96.4,47.6,96.7z"/>
<path fill="none" stroke="#D6D6D6" stroke-miterlimit="10" d="M154.8,346.3c0.5-0.9,1.1-2.4,1.5-3.4"/>
<path fill="#EAEAEA" stroke="#4E9BD7" stroke-miterlimit="10" d="M148.3,373.1c-1.3,0.9-2.7,1.4-4.1,1.1c-0.4-0.1-0.2-0.8,0-1.1
	s0.6-0.5,1-0.7"/>
<path fill="#EAEAEA" stroke="#4E9BD7" stroke-miterlimit="10" d="M164.3,373.2c1.2-0.7,2.4-1.4,3.7-2.1c0.7-0.4,1.5-1,1.4-1.9
	c-0.2-1.2-2.4-1.7-2.1-2.9c0.1-0.5,0.6-0.7,0.9-1.1c0.6-0.7,0.5-1.8,0.1-2.7c-0.5-0.8-1.2-1.4-2-2c-0.8-0.7-1.7-1.3-2.8-1.4
	c-1-0.1-1.2,1.2-2.1,1.8c-1.1,0.9-1.8-2.2-1.8-3.7c0-1.5,0.3-3-0.2-4.3c-0.2-0.5-0.5-0.9-0.9-1.2c-0.3-0.2-0.6-0.2-0.9-0.4
	c-0.9-0.5-1.1-1.8-1.3-2.9c-0.2-1.1-1-3.1-1.8-2.4c-0.9,0.8-0.1,2.4,0.2,3.5c0.3,0.9,0.9,1.8,1.2,2.7c0.3,0.9-0.8,1.7-0.6,2.7
	c0.1,0.8,1.2,1.1,1.1,1.8s-0.8,1.4-1.5,1.7c-0.4,0.2-0.9,0.3-1.4,0.2c-0.6-0.1-1.1-0.4-1.6-0.5c-1.4-0.1-2.7,1.4-4,1
	c-0.5-0.2-0.9-0.7-1.5-0.7c-0.5,0-0.9,0.2-1.3,0.5c-0.6,0.4-1.2,0.8-1.6,1.4s-0.6,1.4-0.2,2c0.6,1,2,1.1,3.2,0.9s2.6-0.3,3.3,0.6
	c0.3,0.3,0.6,1.1,1,0.8c0.9-0.7-0.8-2.2-0.6-3.3c0.1-0.8,1.7-1.2,2.4-0.8c0.4,0.2,0.6,0.7,1,0.6c0.3,0,0.6-0.2,0.9-0.3
	c0.8-0.3,1.8,0,2.3,0.7c0.5,0.7,0.5,1.7,0,2.4c-0.3,0.5-0.9,0.9-0.9,1.5c0,0.3,0.2,0.6,0.2,0.9c0.1,0.8-0.6,1.5-1.4,1.9
	c-0.8,0.3-1.7,0.4-2.3,1c-0.4,0.3-0.7,0.8-1.1,1.2c-0.8,0.9-1.7,1.9-2.8,2.6"/>
<path fill="#EAEAEA" stroke="#D6D6D6" stroke-miterlimit="10" d="M159.5,345.1c0-0.6,0-1.1-0.2-1.6c-0.1-0.2-0.2-0.4-0.3-0.6
	c-0.2-0.3-0.4-0.6-0.6-1c-0.4-0.6-0.7-1.2-1.3-1.7c-0.5-0.4-1.1-1.1-1.6-0.8c-1,0.5-0.3,2.3,0.5,3.1c0.2,0.2,0.4,0.4,0.6,0.6
	c0.2,0.2,0.3,0.5,0.4,0.8c0.2,0.6,0.6,1.2,1.1,1.6c0.3,0.3,0.9,0.6,1.2,0.3C159.5,345.7,159.5,345.4,159.5,345.1z"/>
<path fill="none" stroke="#4E9BD7" stroke-miterlimit="10" d="M167.4,366.5c1.8,0.6,4.2,0.7,5.1-1c0.5-1,0.2-2.2,0.4-3.4
	c0.5-3.2,4.3-4.8,5.6-7.8c1.3-2.9-0.2-6.3,0.7-9.4c0.2-0.5,0.4-1.1,0.3-1.7c-0.1-0.5-0.4-0.9-0.6-1.3c-0.7-1.2-1-2.5-1.1-3.8
	c0-0.2,0-0.4,0.1-0.6c0.2-0.4,0.6-0.4,1-0.5c1.7-0.2,3.8-0.6,4.6-2.1c0.2-0.4,0.3-0.9,0.5-1.4c0.7-1.5,2.5-2.2,4.1-2.6
	c1.7-0.5,3.4-1,5.2-1.5c1.1-0.3,2.3-0.7,3.1-1.5c1.1-1.2,1.4-3.3,2.9-4c0.8-0.4,1.7-0.3,2.5-0.6c0.6-0.3,1-0.8,1.5-1.2
	c2.5-2.9,4.7-6.2,6.3-9.6c0.6-1.3,1.3-2.8,2.7-3.2"/>
<path fill="#EAEAEA" stroke="#D6D6D6" stroke-miterlimit="10" d="M113.5,363.1c0.2,0.2,0.4,0.3,0.6,0.4c0.1,0.1,0.3,0.3,0.4,0.4
	c0.3,0.2,0.7,0.1,1.1-0.1s0.5-0.5,0.8-0.8c0.6-0.7,1.5-1.8,0.9-2.5c-0.6-0.7-1.8-0.3-2.7,0c-0.5,0.2-1,0.5-1.3,1
	C113.1,362.1,113.1,362.7,113.5,363.1z"/>
<path fill="#EAEAEA" stroke="#D6D6D6" stroke-miterlimit="10" d="M121.9,352c0.7-0.7,0.5-1.9-0.1-2.7c-0.4-0.5-1.2-0.3-1.7,0
	s-0.8,0.9-1.1,1.5c-0.2,0.5-0.5,0.9-0.7,1.4c-0.6,1.1-1.2,2.2-2.2,2.8c-0.2,0.1-0.5,0.3-0.4,0.6c0,0.1,0.1,0.2,0.2,0.3
	c0.8,0.7,1.6,2,2.6,1.7c0.5-0.2,0.4-1,0.2-1.4c-0.1-0.2-0.4-0.6-0.2-0.7c0.9-0.6,1.2-1.3,1.4-2.4C120,352.3,121.4,352.5,121.9,352z"
	/>
<path fill="#EAEAEA" stroke="#D6D6D6" stroke-miterlimit="10" d="M132,345.6c0.3-0.5,0.5-1.1,0.4-1.7c-0.1-0.3-0.2-0.6-0.4-0.9
	c-0.7-1.1-2.2-2.3-3.3-1.5c-0.4,0.3-0.2,0.9,0,1.3c0.3,0.4,0.6,0.7,0.9,1.1c0.5,0.7,0.6,1.6,1.3,2c0.2,0.1,0.5,0.2,0.8,0.1
	C131.8,345.9,131.9,345.8,132,345.6z"/>
<path fill="#EAEAEA" stroke="#D6D6D6" stroke-miterlimit="10" d="M112.4,331.5c-0.2-0.5-0.5-0.9-0.9-1.1c-0.9-0.5-2.1,0.2-2.5,1.1
	c-0.4,0.9-0.3,2,0,3c0,0.2,0.1,0.4,0.2,0.5c0.3,0.3,0.7,0.4,1.1,0.4c0.6,0,1.2,0,1.6-0.4c0.2-0.3,0.3-0.6,0.4-1
	C112.5,333.2,112.7,332.3,112.4,331.5z"/>
<path fill="#EAEAEA" stroke="#D6D6D6" stroke-miterlimit="10" d="M118.1,331.9c0.1,0.4,0.4,0.7,0.7,1c0.3,0.2,0.7,0.1,1.1,0.1
	c0.7,0.1-0.2,1.6,0.4,2.1c0.3,0.3,0.9,0.1,1.2-0.2c0.3-0.3,0.4-0.8,0.4-1.3c0.1-1,0.1-1.9,0-2.9c0-0.1,0-0.3-0.1-0.4
	c-0.1-0.1-0.2-0.2-0.3-0.3c-0.9-0.5-2-0.7-3-0.5c-0.3,0.1-0.7,0.1-0.8,0.4C117.7,330.4,118,331.4,118.1,331.9z"/>
<path fill="none" stroke="#D6D6D6" stroke-miterlimit="10" d="M111.2,354.5c0.6-0.5,0.9-0.8,1.5-0.8c0.4,0,0.7,0.2,1,0.4
	c0.5,0.3,1.4,0.8,1.8,1.2"/>
<path fill="none" stroke="#D6D6D6" stroke-miterlimit="10" d="M118.9,357.5c0.1-0.1-0.2-0.2-0.2-0.1s0.1,0.3,0.2,0.4
	c1.2,0.7,2.5,1.2,3.8,1.5c0.8,0.1,1.6,0.2,2.2-0.3c0.5-0.3,0.7-0.9,1-1.4c1.1-2.2,2.7-4.2,4.6-5.8c0.9-0.7,1.9-1.5,2.1-2.6
	c0.2-1.1-0.5-2.3-1.1-3.2"/>
<path fill="none" stroke="#D6D6D6" stroke-miterlimit="10" d="M120.9,335.2c-0.2,1.1,0.7,2.8,1.5,3.5c0.8,0.6,1.7,1.1,2.7,1.4
	c1.2,0.3,3,0,3.7,1.3"/>
<path fill="none" stroke="#D6D6D6" stroke-miterlimit="10" d="M117.8,331.3c-1,0.6-1.7,2.2-2.2,3.3c-0.2,0.5-0.6,0.5-1,0.5
	c-0.2,0-1.6-0.7-2.2-0.9"/>
<path fill="none" stroke="#D6D6D6" stroke-miterlimit="10" d="M139.6,306.5c0.8,4.5,3.9,8.9,6.5,12.7c1,1.5,2,3,3.1,4.4
	c0.3,0.5,0.6,0.9,0.8,1.5c0.3,1,0.1,2.1,0.1,3.1c0,1.8,0.9,3.4,1.7,5c1.1,2,2.4,4.2,3.5,6.2"/>
<path fill="#EAEAEA" stroke="#4E9BD7" stroke-miterlimit="10" d="M113.7,372c0.4-0.4,1-0.7,1.6-0.8c0.9-0.2,1.9-0.4,2.5-1.1
	c0.7-0.9-0.1-2.2-1.2-2.4s-1.8,1.3-2.9,1.3c-1.1,0-1.9,0-3,0.4c-0.9,0.3-1.4-1.3-1.6-2.2c-0.2-0.9-0.3-1.9-0.8-2.7
	c-0.2-0.3-0.4-0.5-0.5-0.8c-0.2-0.8,0.6-1.3,0.9-2c0.5-1-0.1-2.2,0.2-3.2c0.3-1.6,3.1-3.7,1.6-4.4c-1.4-0.8-3.5,1.4-3.3,3
	c0,0.2,0.1,0.5,0.1,0.7c-0.1,0.5-0.6,0.7-0.8,1.1c-0.3,0.4-0.3,1-0.4,1.5c0,1.9,0.2,3.7,0.6,5.5c0.2,0.9,0.5,2-0.1,2.8
	c-0.5,0.6-1.4,0.1-2,0.4c-1,0.5,0.3,1.4,1.8,2.4"/>
<path fill="#EAEAEA" stroke="#D6D6D6" stroke-miterlimit="10" d="M132.6,296.2c-0.4-0.5-0.5-1.2-0.3-1.8c0-0.1,0.1-0.2,0.2-0.2
	c0.2-0.1,0.4,0,0.6,0.2c0.8,0.7,1.3,1.5,1.9,2.4c0.7,1.1,1.4,2.1,1.9,3.3c0.4,0.9,0.8,1.9,1.1,2.9c0.1,0.3,0.3,0.7,0.6,0.6
	c0.1,0,0.1-0.1,0.2-0.1c0.5-0.5,0.8-1.5,1.4-1.4c1.5,0.4,0.9,3.6-0.3,4.6c-1.3,1.1-3.2-1.4-4.8-1.1c-0.4,0.1-0.8,0.3-1.2,0.3
	c-0.9-0.1-1.4-1.1-1.6-2s-0.9-1.5-1.7-1.9c-0.4-0.2,0.1-0.9,0.4-1.1c0.4-0.2,0.8-0.4,1.1-0.7c0.4-0.6,0.1-1.5,0.5-2.1
	c0.2-0.4,0.8-0.7,0.7-1.2C132.9,296.6,132.7,296.4,132.6,296.2z"/>
<path fill="#EAEAEA" stroke="#D6D6D6" stroke-miterlimit="10" d="M130.4,278.3c2.6-1.2-3-4.5-4.1-7.1c-0.4-0.9-0.5-1.8-0.9-2.6
	c-0.6-1.1-1.8-1.8-2.9-2.5c-1.1-0.6-2.2-1.2-3.3-1.9c-1-0.6-2.1-1.2-3.3-1.3c-0.7-0.1-1.6,0-2.1,0.5c-0.7,0.5-0.9,1.5-0.5,2.3
	s1.5,0.2,2.2,0.6c1.1,0.7,1.3,2.1,2,3.2c0.5,0.8,0.5,1.8,0.9,2.6c0.2,0.5,0.6,0.9,0.8,1.4c0.6,1.2,0.4,2.5,0.2,3.8
	c-0.2,1.3-0.9,3.9-1.9,3c-0.9-0.8,0.9-2.7,0.1-3.7c-1-1.4-3.4,1.4-3.1,3.1c0.1,0.6,0.5,1.2,0.7,1.8c0.2,0.6,0.2,1.4-0.4,1.7
	c-0.2,0.2-0.5,0.2-0.7,0.4c-0.5,0.4-0.3,1.2,0,1.8c0.3,0.6,0.7,1.2,0.5,1.8c-0.1,0.3-0.3,0.6-0.3,0.9c0,0.2,0.2,0.4,0.3,0.6
	c1,1.2,2.3,2.9,3.8,2.6c1.4-0.3-0.4-2.9,0.3-4.2c0.6-1.1,2.4-0.7,3.5-1.4c0.7-0.4,1-1.1,1.6-1.7c0.5-0.5,1.7,0.5,2-0.2
	C126.5,282.3,127.3,279.6,130.4,278.3z"/>
<path fill="none" stroke="#D6D6D6" stroke-miterlimit="10" d="M118.6,291.5c0.2,2.4,1.1,4.9,3,6.3c0.3,0.2,0.7,0.4,1,0.3
	c0.2-0.1,0.4-0.3,0.5-0.5c0.7-1,1.6-1.8,2.6-2.5c0.8-0.5,1.7-0.9,2.7-0.7c0.9,0.2,1.7,1.2,1.4,2.1c-0.2,0.4-0.5,0.8-0.6,1.2
	c-0.2,1.2,1.8,1.7,1.9,2.9"/>
<path fill="#EAEAEA" stroke="#D6D6D6" stroke-miterlimit="10" d="M105.4,258c-0.7,0.8-2,0.1-2.8-0.7c-1.2-1.2-1.1-2.8-1.5-4.5
	c-0.5-2.1-4.7,0-6.2-1.5c-0.7-0.6-0.2-1.9-0.6-2.7s-1.6-0.7-2.2-1.4c-1-1.3-0.5-3.2-1.5-4.5c-1.5-1.9-4.8-3.3-4.4-5.7
	c0.2-1.7,0.7-3.2,1.3-4.8c0.6-1.8,2.5-2.7,4.2-3.4c0.4-0.2,0.9-0.3,1.3-0.1c0.4,0.2,0.5,0.6,0.7,1c0.3,0.6,0.8,1,1.3,1.5
	c6,5.5,13.7,19.6,12.5,20.6c-0.4,0.4-1,0.4-1.1,1c-0.1,0.6,0.8,1.2,0.4,1.6c-0.5,0.6-1.2,0.8-1.1,1.6
	C105.6,256.6,105.9,257.4,105.4,258z"/>
<path fill="none" stroke="#D6D6D6" stroke-miterlimit="10" d="M104.8,258.7c-0.3,2.2-0.1,4.4,0.6,6.5c0.5,1.6,1.3,3,1.6,4.6
	c0.3,1.5,0,3.1,0,4.7c0,0.8-0.6,2.9,0.2,3.2c0.1,0.1-0.1-0.3-0.1-0.2c0.1,1,1.5,1.4,2,2.3c0.4,0.6,0.8,1.2,1.4,1.3
	c1.1,0.2,2.9-1.3,3.9-1.7"/>
<path fill="#7BBCEB" stroke="#4E9BD7" stroke-miterlimit="10" d="M169.7,198.8c0.5-0.3,1.3,0,1.8,0.2c1.3,0.5,1.4,3.6,0,5
	s-5.3,2.2-4,4c0.8,1.1,2.9-1.2,3.9-1.4c3.1-0.5,2.1,3.5,3.4,4.1c0.9,0.4,2.8,0.3,2.8,1.3s-0.6,1.6-1,2c-1,1-2.5-1.2-4.1-1.1
	c-1.7,0.1,2,0.2,0,0c-1.4-0.1-1.4,4.3,0.6,4.8c1.2,0.3,1.6-1.3,2.6-1.4c4-0.4,6.7-3.3,8.9-6.8c0.3-0.4,1.6-1.3,1.7-0.3
	c0.1,1.9,0.2,2.8,1.2,4.8c0.5,1.1,2.1,1.4,3.1,2s2.1,1.6,2.2,2.8c0,0.5-0.1,1-0.2,1.6c-0.3,1.3-1,2.9-2.4,3c-0.6,0-1.3-0.3-1.9,0
	c-0.5,0.3-0.6,1.1-0.2,1.7c0.3,0.5,0.9,0.8,1.5,1.1c1.9,0.8,4.4,1.4,6,0c0.4-0.4,0.8-0.9,1.4-0.9c0.5,0,0.9,0.3,1.3,0.6
	c1.4,1.3,3.1,2.6,4.2,4.1c0.8,1.1,1.2,2.5,2.4,2.9c0.7,0.2,1.4,0.3,2,0.4c3,0.7,1.7,2.3,2.6,3.7c0.9,1.3,3,0.4,3.9-0.9
	c0.8-1.2,0.2-2.3,1.2-3.4c0.9-0.9,0.4-1.9,0.9-3.1c0.4-0.9,1.8-0.9,2.8-1.2c0.6-0.2,1.2-0.5,1.4-1c0.2-0.6-0.3-1.2-0.6-1.7
	c-0.5-0.8-0.7-2-2.2-3c-1.2-0.8-0.6-2.5-1.1-3.9c-0.4-1.1-2.2,0.4-3.2,0.9c-2.9,1.5-6.4,1.1-9.6,0.7c-0.8-0.1-1.7-0.2-2.4-0.7
	c-0.7-0.5-0.4-1.5-0.9-2.1c-0.3-0.4-1,0-1.2-0.4c-0.1-0.2,0-0.5,0.1-0.7c0.3-1.6-1.1-2.9-2.5-3.7s-1.7-2.6-2.9-2.7
	c-0.8-0.1-1.7,0.2-1.9-0.6c-0.2-0.8,0-2.3,0.1-3.2c0.1-1-0.1-2-0.6-2.9c-0.3-0.5-0.6-0.9-0.8-1.4c-0.5-2,2.4-3.3,1.2-4.4
	c-0.4-0.4-0.3-1.3-0.2-1.9c0.2-1-0.7-1.9-1.4-2.7c-0.7-0.8-0.4-1.9-0.8-2.8c-0.2-0.5-1.3,0.2-1.6-0.3c-1.3-2.6-3.4-5.3-2.2-8
	c0.2-0.4,0.6-0.8,0.7-1.3c0.3-0.8-0.1-1.7-0.6-2.4c-0.9-1.6-2.2-3-2.6-4.8c-0.5-2.2,1.1-4.5,2.9-6c0.7-0.6,1.7-1.6,1.1-2.4
	c-0.2-0.3-0.7-0.5-0.9-0.8c-0.4-0.5-0.1-1.2-0.1-1.8c0-1.4-1.2-2.4-2-3.5c-1.3-1.7-1.9-3.8-2.2-5.9c-0.2-1.3,0.7-2.9-0.2-3.8
	c-0.8-0.8-3.1,0-3.1-1.1c0-1.3,2.6,0,3.7-0.8c1.1-0.9,0-3.4-1.3-4c-1.7-0.8-4.4,2-5.6,0.5c-1.3-1.5-1.6-3.6-1.8-5.6
	c-0.3-2.5,2.4-4.4,2.8-6.8c0.5-2.7-1.8-5-3.9-6.8c-0.7-0.6-1.8-1.3-2.6-0.8c-0.3,0.2-0.5,0.6-0.9,0.7c-0.9,0.4-1.8-0.7-2.8-0.5
	c-0.5,0.1-0.9,0.5-1.3,0.5c-0.7,0-1.2-0.6-1.7-1.1c-1.3-1.2-3.2-0.9-4.8-0.1c-0.9,0.5-1.8,0.8-2.5,1.6c-0.7,0.8-1.6,0.2-2.6,0.4
	c-0.4,0.1,0,0.9-0.3,1.1c-0.4,0.3-1.3-0.4-1.7,0c-1.1,1-2,2.1-3.4,2.7c-1,0.5-1.9,1.2-2.7,2c-0.5,0.4-0.9,0.8-1.1,1.4
	c-0.2,0.6,0,1.3,0.6,1.5c1.1,0.4,1.6-1.3,2.4-2.2c0.6-0.6,1.4-0.8,2.2-1.1c1.5-0.5,2.7-3.2,4.2-2.5c1.2,0.6,0.2,2.7,1.2,3.7
	s2.5,1.3,3.6,0.6c1.3-0.8,1.7-2.4,2.4-3.7c0.7-1.3,2.4-2.5,3.6-1.5c0.2,0.2,0.4,0.4,0.6,0.6c0.6,0.4,1.3,0.1,2,0
	c0.7-0.1,1.7,0.1,1.7,0.7c0,0.7-1.2,1.1-1.1,1.9c0.2,1.3,1.3,2.2,1.2,3.5s1.1,2.5,0.7,3.7c-0.4,1.6-0.9,2.4-1.5,3.9
	c-0.4,0.9-1.9-0.5-2.8-0.7c-1-0.2-2.4,1-1.6,1.6c0.8,0.6,1.7,1.2,2.6,1.9c0.9,0.6,2,0,3,0.5c0.4,0.2,0.5,1,0.2,1.4
	c-0.9,1.6-3,2-4.3,3.3c-1.1,1.1-2.3,2.3-3.4,3.4c-0.3,0.3-0.7,0.7-1.1,0.8c-0.6,0.1-1.2-0.3-1.8-0.6c-2.3-1.1-4.4,0.8-6.2,2.5
	c-0.6,0.5-1.2-0.6-1.6-1.3c-0.5-0.8-1.6,1.1-2.6,1.3c-0.7,0.1-1.3-0.5-2-0.9c-0.6-0.4-1.1,0.1-1.9,0.3c-1.3,0.3-2.5-1-3.5-0.2
	c-1,0.8-1.9,2.5-1.2,3.5c0.7,0.9,2.2,0.6,3.4,1c1.1,0.4,2.2,1.3,2.1,2.5c-0.2,2.1-5.7,3-4.1,4.4c0.4,0.4,1-0.3,1.6-0.2
	c0.5,0.1,1,0.6,0.9,1.1c-0.1,0.3-0.3,0.5-0.6,0.7c-1,0.8-2.3,1.8-2,3c0.1,0.5,0.4,0.8,0.7,1.3c1.3,2.3,0.3,5.3,1.2,7.8
	c0.3,0.7,0.7,1.3,0.8,2.1c0.2,0.9,0,1.7-0.2,2.6c-0.3,1.4-1.9,3.2-0.9,4.3c1,1,1.5,2.8,2.9,2.6c1.9-0.3,3.8-5,5.6-6.7
	c0.5-0.5,0.3-1.5,0.7-2.1c0.4-0.6,1.2-0.2,1.9-0.4c2.2-0.6,3.9-5.3,5.4-3.5c0.6,0.7-0.1,1.9,0.6,2.5c1,0.8,2.6-1.2,3.7-0.3
	c0.3,0.2,0.3,1.6,0.2,2c-0.3,1.1-2.4-0.2-3.5,0.2c-1.2,0.3-1.6,1.2-2.5,2c-1.5,1.1-3.8,0-5.3,1.1c-0.1,0.1-0.3,0.2-0.3,0.4
	c-0.1,0.5,0.6,0.8,1.1,0.8c1.2,0,2.6-0.8,3.6-0.2c0.6,0.4-0.3,1.5-1,1.9c-0.6,0.4-1.4,0.6-2.1,0.9c-2.1,0.9-5.1,2.8-4.5,5
	c0.4,1.2,2.2,1,3.3,1.5c1.4,0.6,3,0.3,4.3,1.1c0.5,0.3-0.2,1.2,0.1,1.6c0.3,0.4,0.8-0.8,1.3-0.7c0.8,0.2-0.1,1.6-0.2,2.4
	c-0.1,0.8,0.2,1.8,1,2c0.9,0.2,1-1.3,1.8-1.9c0.6-0.4,1.5,0.1,2.2,0.1c0.7,0,1.3-0.3,1.2-0.9c-0.1-0.4-0.4-0.9,0-1.1
	c0.2-0.1,0.4-0.1,0.5,0c0.4,0.2,0.5,0.8,0.7,1.2c0.1,0.3,0.6-0.2,0.7-0.4c0.2-0.3,0.3-0.7,0.5-1c0.1-0.1,0.1-0.3,0.3-0.3
	c0.1,0,0.1,0,0.2,0c1,0.1,2,0.2,3,0.2c0.1,0,0.1,0,0.2,0.1C169.2,199.4,169.6,198.8,169.7,198.8z"/>
<path fill="#EAEAEA" stroke="#D6D6D6" stroke-miterlimit="10" d="M152.7,150.8c0.1-0.2,0.1-0.5,0-0.7c-0.4-0.5-1-0.7-1.1-1.3
	c0-0.6,0.4-1.2,1-1.3c0.4-0.1,0.8,0,1.2-0.1c0.4-0.1,0.7-0.4,1-0.6c1.3-1.3,2-3,2.1-4.8c0-0.2,0-0.4-0.1-0.6
	c-0.1-0.3-0.4-0.5-0.6-0.7c-0.6-0.5-1.3-1.8-2-1.4c-1,0.5-0.3,2.3-0.7,3.3c-0.5,1-1.7,1.3-2.5,2.1c-0.9,0.9-0.6,2.5-1.3,3.5
	c-0.1,0.2-0.3,0.4-0.5,0.5c-0.6,0.4-1.3,0.2-2,0.3c-1.4,0.2-2.9,2.1-1.9,3.1c0.7,0.8,1.9-0.6,3-0.4c0.5,0.1,0.3,1.1,0.7,1.4
	C149.2,153.2,152.5,151.2,152.7,150.8z"/>
<path fill="#FFFFFF" stroke="#4E9BD7" stroke-miterlimit="10" d="M167.8,191c-0.6-0.4,0.3-1.7-0.3-2.1c-0.2-0.2-0.5-0.2-0.7-0.2
	c-1-0.1-2.4,0-3-0.9c-0.2-0.3,0.1-0.9,0-1.2c-0.4-0.8-1.7,0.2-1.9,1s0.1,1.7,0.2,2.5c0.2,1.5-0.2,3-1.1,4.2
	c-0.1,0.1-0.1,0.2-0.2,0.3c0,0.2,0.2,0.4,0.4,0.5c1.3,0.8,2.7,1.3,4.1,1.6c1,0.2,1.9,0.2,2.9,0.3c0.9,0,1.9,0.1,2.8,0.1
	c0.3,0,0.7,0,0.9-0.2c0.3-0.3,0.2-0.8,0.1-1.2c-0.3-1.1-0.6-2.2-1-3.4c0-0.2-0.1-0.3-0.2-0.5c-0.1-0.1-0.2-0.2-0.4-0.3
	C169.7,191.1,168.6,191.5,167.8,191z"/>
<path fill="#FFFFFF" stroke="#4E9BD7" stroke-miterlimit="10" d="M151.8,195.4c1.1,0.7,2.5-0.6,3.3-1.5c0.7-0.8,1-1.8,0.9-2.8
	c0-0.3-0.3-0.7-0.5-0.5c-0.6,0.7-1.2,1.5-2.1,1.9c-0.3,0.1-0.6,0.3-0.9,0.4C151.8,193.4,151,194.9,151.8,195.4z"/>
<path fill="#FFFFFF" stroke="#4E9BD7" stroke-miterlimit="10" d="M175.8,166.1c0.4-0.4,1.1-1,0.8-1.4c-0.6-0.9-2.2,0.1-2.3,1.2
	c0,0.2,0,0.3,0.1,0.4C174.7,166.7,175.4,166.5,175.8,166.1z"/>
<path fill="#FFFFFF" stroke="#4E9BD7" stroke-miterlimit="10" d="M157,194.6c-0.2,0.6-0.8,1-1,1.5c0,0.1-0.1,0.2,0,0.3
	c0,0.1,0.2,0.2,0.3,0.2c0.4,0.2,0.9,0.6,1.3,0.5c1.2-0.3,1.4-1.9,1.8-3c0.4-1.2,0.6-2.5,0.7-3.8c0.1-0.4-0.1-1-0.5-1
	c-0.1,0-0.2,0.1-0.3,0.2c-1.2,1-2.1,2.5-2.2,4.1C157.1,194,157.1,194.3,157,194.6z"/>
<path fill="#FFFFFF" stroke="#4E9BD7" stroke-miterlimit="10" d="M142.2,157.3c-0.2,0.2-0.3,0.6-0.3,0.9s0.3,0.2,0.6,0.2
	c0.6,0.1,0.7,1.1,1.2,0.7c0.5-0.3,0.5-1.1,0.1-1.5C143.4,157.1,142.5,156.8,142.2,157.3z"/>
<path fill="#FFFFFF" stroke="#4E9BD7" stroke-miterlimit="10" d="M176,156.8c0.2-1,1.2-1.7,1.4-2.6c0.1-0.3,0.1-0.6,0.2-0.8
	c0.1-0.3,0.5-0.6,0.7-0.3c0.4,0.7,0,1.6,0,2.3c0,0.5,0.1,1,0.5,1.2c0.3,0.1,0.7,0,1,0.1c0.3,0.1,0.5,0.5,0.6,0.9
	c0.2,0.3,0.5,0.4,0.8,0.6c0.5,0.3-0.1,1.2-0.6,1.5c-0.3,0.2-0.8,0.3-1,0.7c-0.2,0.3,0,0.8,0.2,1s0.7,0.3,1,0.5
	c0.3,0.2,0.2,0.7-0.1,0.9c-0.3,0.2-0.7,0.2-1,0.2c-0.9,0-1.7-0.1-2.6-0.3c-0.2,0-0.3-0.1-0.5-0.1c-0.5,0-1,0.4-1.4,0.7
	c-0.4,0.3-1.1,0.5-1.5,0.1c-0.3-0.3-0.2-0.9,0-1.3c0.2-0.4,0.6-0.7,0.7-1.2c0.2-0.8-0.3-1.8,0.3-2.4c0.3-0.3,0.8-0.4,1.1-0.8
	C176,157.5,175.9,157.2,176,156.8z"/>
<path fill="#FFFFFF" stroke="#4E9BD7" stroke-miterlimit="10" d="M171.4,141.4c-0.4-0.6-1.4-0.7-1.9-0.1c-0.5,0.5-0.1,1.9,0.6,1.6
	c0.5-0.2,1.1-0.4,1.5-0.9C171.8,141.8,171.6,141.6,171.4,141.4z"/>
<path fill="#EAEAEA" stroke="#D6D6D6" stroke-miterlimit="10" d="M130.9,122.1c-0.7,0.7-1.5,1.5-2.2,2.2c-0.2,0.2-0.5,0.5-0.5,0.8
	c0,0.5,0.5,0.9,1.1,0.9s1.3,0.1,1.8-0.1c1.2-0.5,1.7-0.3,3.4-0.7c0.3-0.1,0.8,0.2,1-0.1c0.1-0.1,0.2-0.3,0.2-0.5
	c0.5-1.9,2-3.2,3.2-4.7s3.6-3.9,2.1-5.1c-0.7-0.6-1.4-1.4-2.2-1.2c-0.3,0.1-0.5,0.3-0.7,0.6c-0.7,0.9-1.5,1.8-2.2,2.7
	c-0.3,0.4-0.7,0.9-0.8,1.4c-0.1,0.7,0.9,1.3,0.8,2c-0.3,1.1-2,1-3,1.5c-0.3,0.2-0.7,0.3-1,0.2c-0.2-0.1-0.3-0.2-0.5-0.2
	C131.3,121.8,131.1,121.9,130.9,122.1z"/>
<path fill="#EAEAEA" stroke="#D6D6D6" stroke-miterlimit="10" d="M159.6,133c-0.5,0.5-1,1.1-0.9,1.7c0,0.1,0,0.3,0.1,0.4
	c0.3,0.4,1,0.1,1.4-0.3c0.7-0.7,1.8-1.1,2.2-2c0.2-0.6-0.8-1-1.4-0.8C160.5,132.1,160.1,132.6,159.6,133z"/>
<path fill="#EAEAEA" stroke="#D6D6D6" stroke-miterlimit="10" d="M240.8,113.4c-0.1,0.7-0.2,1.5-0.6,2.1c-0.7,1-2.2-1.1-3.4-1.4
	c-0.3-0.1-0.5-0.1-0.8-0.1c-0.9-0.2-1.6-1-1.9-1.9c-0.4-0.9-0.4-1.8-0.5-2.7c0-0.4-0.1-0.9,0.2-1.3c0.1-0.1,0.2-0.3,0.4-0.4
	c0.6-0.5,1.2-1,1.9-1.3c0.2-0.1,0.4-0.2,0.7-0.2c0.4,0,0.7,0.3,0.9,0.6c0.5,0.5,0.9,1.1,1.2,1.7c0.2,0.5,0.3,1,0.5,1.4
	C239.6,111.1,240.9,112.1,240.8,113.4z"/>
<path fill="#EAEAEA" stroke="#D6D6D6" stroke-miterlimit="10" d="M266.8,114.9c-0.2-0.5-0.7-0.7-1.2-0.8c-0.7-0.1-1.4,0-2,0.3
	c-0.5,0.2-0.9,0.6-1.1,1c-0.2,0.5-0.1,1.1,0.4,1.3c0.5,0.3,1,0.1,1.6,0.2c0.6,0.1,1.2,0.4,1.7,0.2c0.4-0.2,0.5-0.7,0.6-1.1
	C266.8,115.6,266.9,115.2,266.8,114.9z"/>
<path fill="#EAEAEA" stroke="#D6D6D6" stroke-miterlimit="10" d="M273.7,109.3c-0.3-0.1-0.6-0.5-1-0.5c-0.7-0.1-1.3,0.6-2,0.6
	c-0.3,0-0.5-0.1-0.8,0c-0.5,0.2-0.3,1,0,1.4c0.3,0.4,1,1,0.6,1.4c-0.4,0.5-1.7,0.8-1.9,0.1c-0.1-0.3,0-0.6-0.3-0.7
	c-0.3-0.1-0.6-0.1-0.8-0.1c-0.6-0.1-1.4-0.4-1.7,0c-0.4,0.5,0.8,1.1,1.2,1.5c0.9,0.8,1.2,1.8,2.1,2.6c0.2,0.2,0.4,0.3,0.6,0.4
	c0.4,0.1,0.7-0.2,1-0.5c1.7-1.5,4.3-1.3,6-2.8c1.1-0.9-0.6-3-2.1-3.2C274.5,109.5,274.1,109.5,273.7,109.3z"/>
<path fill="#EAEAEA" stroke="#D6D6D6" stroke-miterlimit="10" d="M282.7,110.3c0.1-0.4-0.3-0.7-0.5-1c-0.4-0.5-0.7-1.3-1.3-1.2
	c-0.2,0-0.3,0.1-0.5,0.2c-0.4,0.2-0.7,0.5-0.8,0.9c-0.1,0.4,0.1,0.9,0.5,1.1c0.4,0.3,0.8,0.4,1.2,0.5
	C281.9,110.9,282.6,110.9,282.7,110.3z"/>
<path fill="#EAEAEA" stroke="#D6D6D6" stroke-miterlimit="10" d="M282.4,104.5c0.1-0.4-0.2-0.9-0.6-1.1c-0.4-0.2-0.8-0.3-1.3-0.3
	c-0.3,0-0.7,0-1-0.1c-0.1,0-0.2,0-0.3,0c-0.5,0.2-0.3,0.9-0.2,1.4c0.2,0.7,1.3,0.8,2.1,0.8C281.6,105.3,282.2,105,282.4,104.5z"/>
<path fill="#EAEAEA" stroke="#D6D6D6" stroke-miterlimit="10" d="M277.4,105.3c-0.2-0.2-0.4-0.3-0.7-0.3c-0.7-0.2-1.5,0.2-1.9,0.9
	c-0.3,0.7-0.3,1.8,0.4,2c0.5,0.1,0.9,0.3,1.4,0.4c0.5,0.1,0.9-0.2,1.2-0.6C278.3,106.8,278,105.8,277.4,105.3z"/>
<path fill="none" stroke="#4E9BD7" stroke-miterlimit="10" d="M209.5,237.2c-0.2,0.7,0,2,0.3,2.6c0.2,0.3,0.4,0.7,0.6,1
	c0.1,0.2,0.2,0.4,0.4,0.5c0.3,0.3,0.7,0.3,1.1,0.5c0.5,0.3,0.8,0.9,1.3,1.2c0.3,0.2,0.6,0.3,0.8,0.4c0.7,0.5,0.7,1.7,0.1,2.4
	c-0.5,0.6-1.3,0.9-2,0.8"/>
<path fill="#EAEAEA" stroke="#D6D6D6" stroke-miterlimit="10" d="M226.5,237.7c0.5-0.2,0.7-0.3,1.2-0.3c0.6,0,1.5,0.3,1.8-0.2
	c0.4-0.5-0.1-1.4-0.7-1.6c-0.4-0.1-1.2-0.6-1.2-0.7c-0.2-0.2-1.2,0.3-1.4,0.5c-0.4,0.2-1.3,1.6-1.1,2
	C225.2,237.8,226.4,237.7,226.5,237.7z"/>
<path fill="#EAEAEA" stroke="#4E9BD7" stroke-miterlimit="10" d="M239.6,267.4c-0.1-0.2-0.3-0.3-0.5-0.5c-0.9-0.6-2.6,0.1-3.1-0.9
	c-0.3-0.7,1.4-0.2,1.9-0.8c1.3-1.5-3.9-2.4-3.9-4.4c0-1.2,2.6-2,1.8-2.9c-1.1-1.3-3.8,0.6-5-0.6c-1.6-1.7,0-4.8,1.2-6.8
	c0.4-0.7,1.4-1.4,1.8-2.2c0.5-1,0.5-2,0.4-3.2c0-0.2-0.2-0.7-0.3-0.9c-0.1-0.2-0.8-0.4-1-0.5c-1-0.5-1.8,0.5-2.4,1.5
	c-0.5,0.9-0.6,2.1-0.7,3.2c-0.1,1.1,0.2,3.1-0.9,3.1c-1,0,0.1-2.3-0.6-3.1c-0.6-0.6-1.3,0.2-1.5,1.1c-0.2,0.9,0.3,1.8,0.1,2.6
	c-0.1,0.3-0.6,0.3-0.9,0.1c-0.3-0.2-0.4-0.5-0.7-0.7c-0.3-0.2-0.7-0.2-1-0.3c-1-0.1-2-0.1-3-0.2c-0.3,0-0.5,0-0.7,0.2
	c-0.2,0.2-0.2,0.4-0.2,0.6c-0.1,1.8,2.5,3.7,1.3,5c-0.7,0.8-1.9-0.8-2.9-0.7s-1.3,1.2-1.9,2c-0.5,0.7-1.6-0.7-2.2-1.4
	c-0.2-0.4-0.5-0.7-0.7-1.1c-0.5-0.7-1.1-1.5-1.4-2.3c-0.7-1.6-0.7-3.4-0.7-5.1c0-0.5,0.2-1.1,0-1.6c-0.4-0.8-1.8-0.2-2.3,0.5
	c-0.6,0.6-0.8,1.6-0.7,2.4c0,2.3,1.2,4.4,2.4,6.3c1.3,2.2,2.7,4.4,4,6.6c0.6,1,1.2,2,1.7,3c0.9,2,2.7,5.1,0.9,6.4
	c-0.9,0.6-1.9-1.5-2.9-1.2c-1.5,0.5-0.8,3.2-1.8,4.4c-1.1,1.3-2.7,2.1-4,3.2c-1.7,1.6-2.7,3.9-2.6,6.2c0,1.1,0.8,2.7,0.7,3.8
	c0,1.1-1.1,1.4-0.9,2.4c0.3,1.6,1.3,2.7,1.6,4.4c0.5,2.5,1.3,5.4,2.3,7.8c0.7,1.7-0.4,2.2-0.2,2.9c0,0.2,1.2,2.4,2.1,3.7
	c0.9,1.2,2.6,3,3.7,2c0.7-0.6,0-2.3,0.9-2.6c0.8-0.2,1.5,1.3,2,0.6c0.4-0.6-0.6-2,0.1-2.2c2.8-0.6-0.2,2.8,8.1,3.2
	c0.9,0,1.9,0.1,2.8-0.1c2-0.5,3.5-2.2,4.8-3.8c0.2-0.3,0.5-0.6,0.7-0.9c0.2-0.2,0.4-0.5,0.5-0.8c0.1-0.4,0-0.9,0-1.4
	c-0.4-3.4,2.6-6.8,1.6-10.1c-0.4-1.2-2.2-3.1-1-3.7c1.1-0.5,2.5,0.1,3.1-0.9c0.6-1,0.4-2.4-0.5-3.2c-0.2-0.2-0.5-0.4-0.6-0.6
	c-0.2-0.6,0.5-1,1-1.3c0.5-0.3,1-1.2,0.5-1.4c-0.9-0.3-1.8-1.1-1.8-2c0-1,1-1.4,1.6-2.2c0.7-0.9-1.8-1.9-1.4-3
	c0.1-0.3,0.4-0.5,0.6-0.8c0.7-0.9,0.5-2.2-0.1-3.2c-0.6-1-1.6-1.6-2.5-2.2c-0.3-0.2-0.6-0.8-0.2-0.9c0.7-0.2,1.3-0.1,2,0.1
	S239.9,268,239.6,267.4z"/>
<path fill="#FFFFFF" stroke="#D6D6D6" stroke-miterlimit="10" d="M229.1,278.2c0-0.3,0.3-0.7,0.6-0.7c0.3,0,0.7,0.2,0.9,0.5
	c0.1,0.2,0.2,0.5,0.2,0.8c0.1,0.5,0.3,1.2,0,1.6c-0.2,0.3-0.6-0.1-0.8-0.3c-0.2-0.3-0.2-0.6-0.4-0.9
	C229.5,278.8,229.2,278.6,229.1,278.2z"/>
<path fill="#FFFFFF" stroke="#D6D6D6" stroke-miterlimit="10" d="M209.2,283.4c-0.1,0-0.1,0.1-0.2,0.1c-0.1,0.1-0.1,0.2-0.1,0.2
	c-0.1,1.1,0,2.2,0.3,3.2c0,0.1,0.1,0.2,0.1,0.3c0.3,0.6,0.9,0.9,1.5,1c0.6,0.1,1.4,0.3,1.8-0.1c0.3-0.3,0.2-0.8,0.2-1.2
	c0.1-1.2-0.2-2.5-1.2-3.3C211.1,283.1,210.1,283,209.2,283.4z"/>
<path fill="#FFFFFF" stroke="#D6D6D6" stroke-miterlimit="10" d="M213.2,281.4c0.1-0.1,0.2-0.2,0.2-0.3c0.1-0.4,0.5-1.1,0.1-1.3
	c-0.2-0.1-0.4-0.1-0.6-0.2c-0.4-0.2-0.9,0.2-1,0.7c0,0.5,0.4,1.1,1,1.1C213,281.4,213.1,281.4,213.2,281.4z"/>
<path fill="#FFFFFF" stroke="#D6D6D6" stroke-miterlimit="10" d="M222.4,279.8c0.1,0.1,0.3,0.1,0.4,0.1c0.3,0,0.5-0.2,0.7-0.4
	c0.1-0.2,0.2-0.5,0.3-0.8c0.1-0.3,0.1-0.6-0.2-0.7c-0.1,0-0.2,0-0.2,0c-0.3,0-0.7,0-1,0.1c-0.3,0.1-0.6,0.4-0.7,0.7
	C221.7,279.1,222,279.5,222.4,279.8z"/>
<path fill="#FFFFFF" stroke="#D6D6D6" stroke-miterlimit="10" d="M235.8,287.1c-0.1-0.3-0.5-0.3-0.8-0.3c-0.2,0-0.3,0-0.5,0.1
	c-0.2,0.1-0.2,0.4-0.2,0.7c0,0.2,0,0.5,0.1,0.7c0.2,0.3,0.8-0.1,1.1-0.3C235.7,287.7,235.9,287.4,235.8,287.1z"/>
<path fill="#FFFFFF" stroke="#D6D6D6" stroke-miterlimit="10" d="M223.1,290.5c0.2,0.1,0.3,0.1,0.5,0c0.2-0.1,0.3-0.2,0.4-0.4
	c0.1-0.3,0.1-0.7,0-1c-0.2-0.3-0.5-0.5-0.9-0.5c-0.5,0-0.8,0.5-0.8,1C222.3,289.9,222.7,290.3,223.1,290.5z"/>
<path fill="#FFFFFF" stroke="#D6D6D6" stroke-miterlimit="10" d="M227.8,292.5c0.3-0.1,0.6-0.3,0.8-0.6c0.1-0.1,0.2-0.3,0.2-0.5
	c0-0.1-0.1-0.3-0.3-0.4c-0.3-0.2-0.6-0.4-1-0.5c-0.6,0-1,0.5-1,1.1S227.2,292.7,227.8,292.5z"/>
<path fill="#FFFFFF" stroke="#D6D6D6" stroke-miterlimit="10" d="M231.8,299.1c0-0.3,0-0.7,0.1-1c0-0.2,0-0.5-0.1-0.7
	c-0.2-0.3-0.7-0.4-1-0.4c-0.2,0-0.4,0.1-0.6,0.2c-0.3,0.3-1,0-1.3,0.4c-0.3,0.3-0.2,0.9,0,1.2c0.3,0.4,0.6,0.6,0.9,1
	c0.2,0.3,0.3,0.6,0.4,0.9c0.2,0.3,0.4,0.5,0.7,0.8c0.1,0.2,0.3,0.3,0.5,0.4s0.4,0.1,0.6,0c0.2-0.1,0.2-0.4,0.2-0.7
	C232.2,300.9,231.8,299.5,231.8,299.1z"/>
<path fill="#FFFFFF" stroke="#D6D6D6" stroke-miterlimit="10" d="M232.1,303.9c0.2-0.6,1.8-0.4,1.6,0.5c0,0.3-0.3,0.5-0.5,0.5
	c-0.3,0.1-0.5,0-0.8-0.1c-0.2-0.1-0.4-0.2-0.4-0.4S232,304.1,232.1,303.9z"/>
<path fill="#FFFFFF" stroke="#D6D6D6" stroke-miterlimit="10" d="M218.7,305.3c0.4-0.1,0.6-0.4,0.8-0.7c0.1-0.2,0.2-0.4,0.2-0.6
	c0.1-0.6-0.2-1.1-0.6-1.5c-0.2-0.2-0.4-0.3-0.7-0.2c-0.2,0.1-0.4,0.3-0.5,0.6c-0.2,0.4-0.3,0.7-0.3,1.1c0,0.4,0.1,0.8,0.4,1.1
	C218.1,305.2,218.4,305.4,218.7,305.3z"/>
<path fill="#FFFFFF" stroke="#D6D6D6" stroke-miterlimit="10" d="M220.9,298.4c0.9-0.3,0-2.1-0.7-2.8c-0.1-0.1-0.2-0.2-0.4-0.2
	c-0.2-0.1-0.5,0.1-0.6,0.2s-0.2,0.4-0.2,0.7C219,297.2,220.1,298.7,220.9,298.4z"/>
<path fill="#FFFFFF" stroke="#D6D6D6" stroke-miterlimit="10" d="M222.4,292.5c-0.1,0-0.2,0-0.3,0.1c-0.1,0.1-0.1,0.1-0.1,0.2
	c-0.2,0.6-0.1,1.3,0.4,1.8c0.1,0.1,0.3,0.3,0.5,0.3c0.2,0,0.4-0.1,0.5-0.3c0.4-0.4,0.6-0.9,0.7-1.4c0-0.1,0-0.2,0-0.3
	c0-0.1-0.2-0.2-0.3-0.2C223.4,292.5,222.9,292.4,222.4,292.5z"/>
<path fill="#FFFFFF" stroke="#D6D6D6" stroke-miterlimit="10" d="M215.4,295.5c0,0.4,0.2,0.7,0.5,0.8c0.3,0.1,0.7-0.1,0.9-0.4
	c0.1-0.2,0.1-0.6-0.1-0.8c-0.2-0.2-0.5-0.2-0.8-0.2c-0.1,0-0.2,0.1-0.3,0.1C215.5,295.2,215.4,295.3,215.4,295.5z"/>
<path fill="#FFFFFF" stroke="#D6D6D6" stroke-miterlimit="10" d="M212.9,296.4c-0.2,0.1-0.5,0.1-0.6,0.2c-0.2,0.1-0.4,0.3-0.3,0.5
	c0,0.2,0.1,0.3,0.2,0.5c0.2,0.2,0.3,0.4,0.5,0.7c0.2,0.3,0.5,0.6,0.8,0.6c0.1,0,0.3,0,0.4-0.1c0-0.1,0-0.2,0.1-0.2
	C214.4,298,213.4,296.3,212.9,296.4z"/>
<path fill="#FFFFFF" stroke="#D6D6D6" stroke-miterlimit="10" d="M213.3,293.4c-0.3,0-0.5,0.2-0.6,0.4c-0.1,0.3-0.1,0.5,0,0.8
	c0,0.1,0.1,0.3,0.3,0.4c0.1,0,0.2,0,0.2,0.1c0.1,0.1,0.3,0,0.5-0.1c0.3-0.2,0.3-0.6,0.3-0.9S213.6,293.5,213.3,293.4z"/>
<path fill="#FFFFFF" stroke="#D6D6D6" stroke-miterlimit="10" d="M210.1,290.7c-0.4,0.1-0.8,0.1-1.2,0.2c-0.1,0-0.3,0-0.4,0.1
	c-0.1,0.1-0.1,0.2-0.1,0.3c-0.1,0.7,0.6,1.2,1,1.7c0.2,0.3,0.4,0.7,0.6,1c0.2,0.3,0.5,0.7,0.9,0.7c0.1,0,0.1,0,0.2,0
	c0.1,0,0.1-0.1,0.1-0.2c0.6-1,0.7-2.2,0.4-3.3c-0.1-0.2-0.1-0.4-0.3-0.5C210.9,290.7,210.5,290.7,210.1,290.7z"/>
<path fill="#FFFFFF" stroke="#D6D6D6" stroke-miterlimit="10" d="M232.4,248c0.1-0.2,0.1-0.4,0.1-0.6c0-0.3-0.1-0.8-0.4-0.8
	c-0.2,0-0.5,0.2-0.6,0.4c-0.3,0.6-0.5,1.3-0.3,1.9c0,0.1,0.1,0.2,0.1,0.2c0,0,0.1,0,0.1-0.1C231.9,248.7,232.2,248.4,232.4,248z"/>
<path fill="#FFFFFF" stroke="#D6D6D6" stroke-miterlimit="10" d="M228,260.1c-0.6-0.2-0.8-0.9-1-1.5c-0.2-0.8-0.4-1.5-0.5-2.3
	c0-0.2-0.1-0.5,0-0.8s0.3-0.6,0.5-0.5c1.4,0.7,1.4,2.8,1.6,4.3c0,0.3,0,0.6-0.3,0.7C228.2,260.1,228.1,260.1,228,260.1z"/>
<path fill="#FFFFFF" stroke="#D6D6D6" stroke-miterlimit="10" d="M220.8,261.2c-0.4-0.3-1-0.3-1.4,0s-0.4,1.1,0.1,1.3
	c0.2,0.1,0.5,0.3,0.7,0.3c0.3,0,0.6-0.1,0.8-0.3c0.2-0.1,0.3-0.5,0.3-0.7C221.2,261.5,221,261.3,220.8,261.2z"/>
<path fill="#FFFFFF" stroke="#D6D6D6" stroke-miterlimit="10" d="M235.2,273.1c-0.2-0.7-0.7-1.4-1.5-1.4c-0.1,0-0.2,0-0.3,0.1
	c-0.1,0-0.1,0.1-0.1,0.2c-0.3,0.7-0.2,1.5,0.3,2.1c0.2,0.3,0.6,0.5,1,0.4C235.1,274.3,235.3,273.6,235.2,273.1z"/>
<path fill="#EAEAEA" stroke="#D6D6D6" stroke-miterlimit="10" d="M325.7,373.3c-0.5-1.3-2.1-1.6-3.1-2.5c-0.8-0.7-1.3-1.8-1.8-2.8
	c-0.6-1-2.2-0.7-2.7-1.8c-1.4-3.5-3.7-9.5-11-9.9c-0.3,0-0.7-0.1-1-0.2c-1.2-0.6-1.6-2.7-2.9-2.6c-0.4,0-0.8,0.3-1.1,0.2
	c-0.5-0.1-0.7-0.9-1.1-1.2c-0.3-0.2-0.6-0.2-0.9-0.2c-3.1-0.1-6.2-0.2-9.2-0.2c-0.7,0-1.4,0-2,0.3c-0.5,0.2-0.8,0.7-1.3,0.8
	c-0.9,0.3-1.9-0.3-2.9-0.3c-0.8,0-1.5,0.3-2,0.9s-0.5,1.5,0,2.1c0.4,0.5,1.1,1.1,0.7,1.6c-0.1,0.2-0.3,0.2-0.5,0.3
	c-1.2,0.4-2.6,0.1-3.4-0.8c-0.2-0.2-0.4-0.4-0.6-0.5c-0.5-0.1-0.9,0.3-1.3,0.5c-0.5,0.2-1.1,0-1.7-0.1c-1.6-0.2-3,1-4.1,2.2
	c-0.6,0.6-0.8,1.5-1.3,2.2c-2.1,2.9-5.2,5.1-6.7,8.1c-0.6,1.2-1.5,2.6-0.6,3.6"/>
<path fill="#EAEAEA" stroke="#D6D6D6" stroke-miterlimit="10" d="M335.1,268.4c0.5-0.7,0.6-1.7,0.7-2.6c0-0.2,0-0.4-0.1-0.6
	c-0.2-0.3-0.6-0.3-1-0.3c-1.5,0.1-3.6-1-4.6,0.2c-0.8,1,0.2,2.5,0.1,3.7c0,0.3,0,0.5,0.1,0.7c0.2,0.4,0.6,0.6,1,0.9
	c0.4,0.3,0.7,0.6,1.1,0.9c0.4,0.2,1.1,0.3,1.3-0.1c0.3-0.8,0.4-1.7,1-2.3C334.7,268.7,334.9,268.6,335.1,268.4z"/>
<path fill="#EAEAEA" stroke="#D6D6D6" stroke-miterlimit="10" d="M21.4,165.9c0,0.8,0.9,1.3,1.6,1.2c0.8-0.1,1.4-0.7,1.8-1.3
	c0.1-0.1,0.2-0.3,0.1-0.4c0,0-0.1-0.1-0.1-0.1c-0.6-0.3-1.3-0.7-2-0.6C22.1,164.7,21.4,165.2,21.4,165.9z"/>
<path fill="#EAEAEA" stroke="#D6D6D6" stroke-miterlimit="10" d="M40.9,153.8c-0.6-0.3-1.3-0.6-2-0.6c-0.7,0-1.5,0.3-1.8,0.9
	c-0.2,0.4-0.2,0.9-0.4,1.2c-0.3,0.5-0.9,0.7-1.4,1s-1,1-0.6,1.5c0.5,0.6,1.2,0.9,1.8,1.4c0.3,0.3,0.7,0.5,1.1,0.7
	c0.5,0.2,1,0.3,1.5,0.5c0.4,0.1,0.9,0.1,1.2-0.2c0.1-0.2,0.2-0.4,0.3-0.6c0.3-1.4,0.7-2.8,1-4.2c0.1-0.5,0.2-1-0.1-1.4
	C41.2,153.9,41,153.8,40.9,153.8z"/>
<path fill="none" stroke="#D6D6D6" stroke-miterlimit="10" d="M41.4,154.1c2.4-0.4,5.2-0.6,7.6-0.2c0.8,0.1,1.6,0.3,2.4,0.1
	c0.8-0.2,1.5-0.7,2.2-1.3c1.9-1.8,3.3-4.1,4.1-6.6c0.7-2.4,0.8-5,1.2-7.5c1.1-7.4,4.7-14.2,6-21.5c0.9-5.1,0.7-10.4,1.1-15.6
	c0.4-5.2,1.6-10.6,4.9-14.6c7-8.6,16.3-7.1,24.8-11.6"/>
<path fill="#EAEAEA" stroke="#D6D6D6" stroke-miterlimit="10" d="M6.2,216.4c-1.3-0.2-2.5-1.3-3.8-0.8c-1,0.3-1.6,1.5-2.6,1.6
	c-0.4,0-0.8-0.1-1.3-0.1c-0.4,0-0.9,0.4-0.7,0.8c0,0.1,0.1,0.2,0.2,0.3c0.7,0.6,1.6,1.2,1.8,2.1c0.2,0.8-0.3,1.7,0,2.4
	c0.1,0.2,0.2,0.4,0.4,0.5c0.2,0.1,0.4,0.1,0.6,0c1.3-0.1,2.5,0.4,3.8,0.6s2.8-0.1,3.4-1.3c0.2-0.3,0.3-0.7,0.3-1.1
	c0.2-1.4-0.1-2.8-0.8-4.1c-0.1-0.3-0.3-0.5-0.6-0.7C6.7,216.4,6.4,216.4,6.2,216.4z"/>
<path fill="none" stroke="#D6D6D6" stroke-miterlimit="10" d="M265.8,31.1c1.7,0.2,3.1,1.2,4.7,1.8c5.2,2.1,11-0.5,16.6-1.2
	c1.1-0.1,3-0.2,4,0.3c1,0.4,0.2,2,1.3,2.5c1.9,0.9,5.2,0.4,8.3,1.2c2.7,0.7,5.8,0.6,8.2-0.8c0.4-0.2,0.7-0.4,1.1-0.5
	c1-0.1,1.6,1.1,2.4,1.8c1.3,1.1,3.5,0.6,4.7-0.6c1.3-1.2,1.1-3.1,2.1-4.8c0.3-0.5,1.1-0.8,1.6-1c1.2-0.5,2.2,0.9,3,1.9
	c1.8,2.5,4.8,3.9,7.8,4.5c7.9,1.6,8-0.8,9.2,0.3c1.7,1.6,3.1,3.5,5.4,3.9c2.3,0.4,4.7,0,7.1-0.2c2.4-0.2,4.9,0,6.8,1.3
	c0.6,0.4,1.2,1,1.8,1.4c0.7,0.5,1.5,0.8,2.3,1"/>
<path fill="none" stroke="#D6D6D6" stroke-miterlimit="10" d="M221.3,19.7c1.3-0.2,2.6-0.3,3.8-0.3c0.7,0,1.4,0,2,0.4
	c0.6,0.5,0.8,1.2,1,2c0.9,3.6,2.3,7.1,3.7,10.5c0.4,1,0.8,2.1,1.5,3c0.7,1,1.7,1.7,2.7,2.4c1,0.8,2.2,1.6,3.5,1.4
	c1.5-0.2,2.5-2,2.6-3.4"/>
<path fill="none" stroke="#D6D6D6" stroke-miterlimit="10" d="M270.8,33.2c0.6-0.5,1.2-1.1,1.9-1.6c0.9-0.8,1.9-1.6,3.1-1.9
	c2-0.4,3.9,1.1,5.9,1.4c1,0.2,3.1,0.4,3.1,0.9"/>
<path fill="none" stroke="#D6D6D6" stroke-miterlimit="10" d="M291.1,32.3c1.6,0.3,3.4,0.2,5,0.5c1,0.2,2.1,0.4,3.1-0.1
	c0.9-0.5,0.4-1.6,0.7-2.6c0.4-1.2,2-1.7,1.7-2.9c-0.3-0.9,0.9-1.6,1.8-1.2c0.8,0.4,1.2,1.4,1.1,2.3c0,0.9-0.7,1.9-0.3,2.7
	c0.6,1.2,2.8,0.5,3.7-0.5c0.3-0.3,0.8-0.4,1.2-0.5c2.1-0.2,4.2-0.4,6.2-0.7c1.5-0.2,3.3-0.2,4.4,0.9c0,0.1-0.1,0.1-0.1,0"/>
<path fill="none" stroke="#D6D6D6" stroke-miterlimit="10" d="M244.4,35.3c0.5,0.9,1.2,2.2,2.1,2.2c0.5,0,1-0.2,1.4-0.4
	c3-1.1,6.2-0.3,9.4-0.3c1.4,0,2.8-0.2,4.1-0.5c0.8-0.2,1.7-0.5,2.1-1.3c0.6-1.1-0.1-2.6,0.8-3.5"/>
<path fill="#EAEAEA" stroke="#D6D6D6" stroke-miterlimit="10" d="M203.2,10.5c-0.4-0.9-1.7-1.3-2.7-1.1c-0.6,0.1-0.5,1.2-0.3,1.8
	s0.8,1,1.3,1.4c0.9,0.7,2,2,3,1.6c0.4-0.2,0.5-0.7,0.7-1c0.2-0.4,0.3-0.9,0-1.2c-0.1-0.1-0.2-0.1-0.4-0.2c-0.4-0.1-0.8-0.1-1.2-0.3
	C203.3,11.3,203.3,10.9,203.2,10.5z"/>
<path fill="#EAEAEA" stroke="#D6D6D6" stroke-miterlimit="10" d="M243.1,30.1c-0.6,0.3-1.1,0.7-1.6,1.1c-0.3,0.2-0.6,0.5-0.7,0.8
	c-0.6,1.1,0.1,2.3,0.8,3.3c0.1,0.2,0.2,0.3,0.4,0.4c0.1,0,0.2,0,0.4,0c0.6,0,1.3-0.1,1.8-0.3c0.6-0.3,1.5-1.1,1-1.5
	c-0.5-0.4-1.1-0.6-1.2-1.3c0-0.7,0.2-1.3,0.2-1.9c0-0.4-0.3-0.8-0.6-0.8C243.4,30,243.2,30.1,243.1,30.1z"/>
<path fill="#EAEAEA" stroke="#D6D6D6" stroke-miterlimit="10" d="M265.5,29.2c-0.4-0.2-0.9,0-1.2,0.3c-0.3,0.3-0.5,0.7-0.6,1.1
	c-0.1,0.3-0.2,0.6-0.1,0.8c0.1,0.4,0.6,0.5,1,0.5c0.4,0,0.8,0,1.2-0.2c0.4-0.3,0.4-0.9,0.4-1.3S266,29.4,265.5,29.2z"/>
<path fill="#EAEAEA" stroke="#D6D6D6" stroke-miterlimit="10" d="M261.9,18.9c0.8,0.4,1.8-0.2,2.4-0.9c0.4-0.4,0.8-1,0.8-1.6
	c0-0.7-0.4-1.4-1-1.7c-0.6-0.4-1.3-0.5-2-0.7c-0.2,0-0.3-0.1-0.5,0c-0.3,0.1-0.3,0.4-0.4,0.7c-0.1,0.6-0.1,1.1-0.2,1.7
	C261.1,17.4,261.1,18.5,261.9,18.9z"/>
<path fill="#EAEAEA" stroke="#D6D6D6" stroke-miterlimit="10" d="M261.9,5.3c-1.1-0.1-2.1,0.9-2.1,2c0,1.1,1.8,2.9,2.2,1.9
	c0.1-0.4,0.1-0.7,0.4-1c0.6-0.6,1.5-1.5,1.1-2.3C263.2,5.4,262.5,5.4,261.9,5.3z"/>
<path fill="none" stroke="#D6D6D6" stroke-miterlimit="10" d="M177.4,53.9c0.6-0.2,1.3,0.2,1.9,0.1c2-0.2,3.7-1.8,5.4-2.7
	c0.9-0.4,1.6-1,2.5-1.4c1.1-0.5,2.4-0.9,3-1.9c0.2-0.3,0.3-0.7,0.4-1.1c0.4-1.6,0.7-3.2,1.1-4.8"/>
<path fill="none" stroke="#D6D6D6" stroke-miterlimit="10" d="M172.2,47.8c0.2,1.4,1.4,2.7,2.8,3"/>
<path fill="none" stroke="#D6D6D6" stroke-miterlimit="10" d="M159.2,39.2c2.2,0.3,4.7,0.6,6.9,0.9"/>
<path fill="#EAEAEA" stroke="#D6D6D6" stroke-miterlimit="10" d="M167.2,26c-0.7,0-1.7,0.9-1.2,1.4c0.5,0.6,1.5,0.5,2.2,0.2
	c0.4-0.2,0.5-0.8,0.2-1.2S167.6,26,167.2,26z"/>
<path fill="#EAEAEA" stroke="#D6D6D6" stroke-miterlimit="10" d="M165.1,21.8c0.2,0.4,0.9,0.4,1.2,0.1c0.1-0.1-0.3-0.4-0.1-0.6
	c0.7-0.7,2.1-0.1,2.8-0.8c0.2-0.2,0.4-0.4,0.6-0.7c0.3-0.4,0.6-1,0.3-1.4c-0.3-0.4-1-0.4-1.4-0.1c-0.4,0.3-0.8,0.7-1.3,0.8
	c-0.2,0.1-0.5,0.1-0.7,0.1c-0.9,0.2-1.3,1.2-1.4,2.2C165,21.6,165,21.7,165.1,21.8z"/>
<path fill="#EAEAEA" stroke="#D6D6D6" stroke-miterlimit="10" d="M169.7,28.8c-0.7-0.5-1.6,0.1-2.4,0.3c-0.7,0.2-1.5-0.1-2.2,0.2
	c-0.9,0.4-1.1,1.6-0.9,2.5s0.5,1.7,0.7,2.7c0.2,0.9,0.2,1.9,0.3,2.9c0.1,1,0.5,2.1,1.3,2.8c0.8,0.7,1.9,1.1,2.9,0.8
	c0.8-0.2,1.5-0.8,2.3-0.8c0.8,0,1.4,0.6,1.7,1.3s0.3,1.5,0.3,2.2c0,0.5-0.1,0.9-0.3,1.3c-0.3,0.5-0.9,0.8-1.3,1.2s-0.6,1.6,0,1.5
	c1.1-0.1,2-0.9,2.8-1.6c0.8-0.7,0-1.7,0.2-2.7c0.2-1,1.9-1,2.1-1.9s-0.1-2.1-0.9-2.7c-1-0.7-2.3-0.7-3.5-0.7c-1,0-2.1,0.1-3.1,0.1
	c-0.6,0-1.3,0.1-1.9-0.2s-1-1-0.8-1.6c0.3-0.8,1.6-0.9,2.1-1.6c0.2-0.3,0.2-0.6,0.3-0.8c0.2-1.2,0.4-2.4,0.6-3.6
	C170.1,29.9,170.2,29.2,169.7,28.8z"/>
<path fill="#EAEAEA" stroke="#D6D6D6" stroke-miterlimit="10" d="M157.2,40.3c0.9,0.2,1.9-0.5,2-1.5c0-0.2,0-0.4-0.1-0.5
	c-0.1-0.2-0.4-0.4-0.6-0.4c-4.1-1.6-9.2-0.6-12.3,2.5c-0.3,0.3-0.6,0.6-0.7,1c-0.1,0.4-0.1,0.9,0.2,1.1c0.4,0.3,1,0.2,1.5,0
	c1.5-0.5,2.9-0.9,4.4-1.4c0.4-0.1,0.5-0.4,0.7-0.8c0.5-1.2,2.5-0.9,3.7-0.6C156.3,40,156.7,40.2,157.2,40.3z"/>
<path fill="none" stroke="#D6D6D6" stroke-miterlimit="10" d="M167.8,27.8c0.3,0.3,0.5,0.8,0.5,1.2"/>
<path fill="none" stroke="#D6D6D6" stroke-miterlimit="10" d="M165.5,22.2c-0.9,0.6-1.7,1.2-2.6,1.8c-0.2,0.2-0.5,0.3-0.5,0.6
	c-0.1,0.6,0.6,0.9,1.2,1.1c1,0.2,2,0.4,3,0.6"/>
<path fill="none" stroke="#D6D6D6" stroke-miterlimit="10" d="M170.1,18.8c1.6-1.4,4.3-1.3,5.7-2.9c1.6-1.9,0.4-5,1.4-7.3
	c0.9-2.1,3.9-2.9,5.7-1.6c1,0.7,1.6,1.8,2.4,2.7c0.8,0.9,1.9,1.8,3.1,1.7c0.3,0,0.6-0.1,0.8-0.4c0.2-0.2,0.2-0.5,0.2-0.8
	c0.1-1.9,0.3-3.8,0.4-5.7c0-0.6,0.1-1.1,0.3-1.6c0.4-0.8,1.4-1.2,2.3-1.7c1.7-0.8,3.3-1.9,4.7-3.2c0.6-0.6,1.2-1.2,2.1-1.3
	c0.9-0.1,1.8,0.7,2.7,0.6c1.1,0,1.8-1.2,1.9-2.2c0.1-1.1-0.3-2.1-0.6-3.2c-0.3-1.1-0.4-2.4,0.5-3.1"/>
<path fill="#EAEAEA" stroke="#D6D6D6" stroke-miterlimit="10" d="M220.2,32.2c1.5,0.4,1.7-3,2.2-4.5c0.2-0.6,0.4-1.2,0.3-1.9
	c-0.1-0.6-0.8-0.8-1.3-1.2c-1.3-1.1,0.6-3.7-0.3-5.2c-0.5-0.8-1.9-0.8-2.5-0.2c-0.7,0.7-0.3,1.8,0.1,2.6c0.6,1.3,1.3,2.6,1.5,4
	s-0.6,3.9-2.1,3.9c-5.4,0-7.4,0-11.4,0.8c-5.3,1-10.9,2.5-14.7,6.4c-0.7,0.7-1.4,1.6-1.5,2.6c-0.1,1,0.5,2.8,1.4,2.4
	c2-1,2.2-3.9,4-5.2c1.2-0.8,2.6-1.1,3.8-1.7C207.9,30.8,216.2,31,220.2,32.2z"/>
<path fill="none" stroke="#D6D6D6" stroke-miterlimit="10" d="M114.3,67.2c0.7-0.1,1.4-0.6,2-0.2c0.4,0.3,0.4,0.8,0.8,1.1"/>
<path fill="none" stroke="#D6D6D6" stroke-miterlimit="10" d="M120.1,68.2c0.4-1.2,2-1.7,3-0.9"/>
<path fill="none" stroke="#D6D6D6" stroke-miterlimit="10" d="M73.1,72.3c0.5-0.2,0.9,0.4,1,0.9"/>
<path fill="none" stroke="#D6D6D6" stroke-miterlimit="10" d="M85,72.7c0.5-0.4,1-0.9,1.4-1.3c0.2-0.2,0.4-0.4,0.7-0.4
	c0.4-0.1,0.7,0.2,1.1,0.4c1.9,1.1,4.8,1.3,6.8,0.5"/>
<path fill="none" stroke="#D6D6D6" stroke-miterlimit="10" d="M95.7,73c-0.2,0.5-0.6,1.7-0.2,2c1,0.9,2.2,0,3.4-0.5"/>
<path fill="none" stroke="#D6D6D6" stroke-miterlimit="10" d="M43.5,34.7c-2.5,1.9-3.2,5.4-2.6,8.5c0.7,3.1,2.7,4.6,4.5,7.2
	c0.5,0.7,0.9,1.4,1.5,1.9c1,0.9,2.5,3.3,3.6,4c2.6,1.7,3.6,3.9,5.9,6.1c1.2,1.1,2.5,1.9,3.9,2.8c1.8,1.1,3.7,2.3,5.5,3.4"/>
<path fill="#EAEAEA" stroke="#D6D6D6" stroke-miterlimit="10" d="M127.7,54.9c-0.2-0.1-0.5-0.2-0.8-0.2c-0.4,0.1-0.7,0.4-0.9,0.7
	c-0.3,0.4-0.6,0.8-0.5,1.2c0,0.8,0.5,1.5,1,2.2c0.6,0.8,2.1-0.4,2.3-1.4C129,56.5,128.5,55.4,127.7,54.9z"/>
<path fill="#EAEAEA" stroke="#D6D6D6" stroke-miterlimit="10" d="M118.6,58.1c-0.7-0.3-1.6,0.1-1.9,0.7c-0.3,0.7-0.2,1.8,0.5,2
	c0.6,0.2,1.2,0.2,1.8-0.1c0.6-0.3,0.9-1.4,0.5-2C119.3,58.4,118.9,58.3,118.6,58.1z"/>
<path fill="#EAEAEA" stroke="#D6D6D6" stroke-miterlimit="10" d="M99.7,69.9c-1.3-0.1-2.4,1.3-3.8,1.1c-0.1,0-0.3-0.1-0.4,0
	c-0.1,0.1-0.2,0.2-0.2,0.3c-0.1,0.3-0.3,0.6-0.2,1s0.2,0.7,0.6,0.8c0.1,0,0.3,0,0.5,0c1.1-0.3,2.2-0.6,3.3-1.1
	c0.8-0.4,1.6-0.8,2.4-1.3c0.7-0.5,0.7-1.3,1-2.1c0.3-0.8,1.7-0.5,2.5-0.7c0.1,0,0.2-0.1,0.3-0.1c0.2-0.2,0-0.6-0.2-0.8
	c-0.8-0.8-2.2-1.2-3-0.4c-0.2,0.2-0.3,0.4-0.4,0.7c-0.4,0.8-0.8,1.6-1.2,2.3c-0.1,0.2-0.2,0.3-0.3,0.4
	C100.2,69.9,99.9,69.9,99.7,69.9z"/>
<path fill="#EAEAEA" stroke="#D6D6D6" stroke-miterlimit="10" d="M98.7,74.4c-0.3-0.4-0.1-1,0.4-1.3c0.5-0.2,1-0.2,1.5,0
	c0.5,0.1,1,0.3,1.5,0.3c0.8,0,1.5-0.6,2-1.2s0.9-1.3,1.5-1.9c0.8-0.8,1.8-1.2,2.8-1.6c2.1-0.9,4.7-3.1,6.4-1.7
	c0.4,0.3-0.2,1-0.6,1.4c-0.4,0.3-0.9,0.5-1.4,0.7c-2,0.7-4,1.5-5.7,2.8c-1,0.8-1.9,1.8-3.1,2.3c-1.4,0.6-2.9,0.5-4.4,0.4
	C99.3,74.7,99,74.6,98.7,74.4z"/>
<path fill="#EAEAEA" stroke="#D6D6D6" stroke-miterlimit="10" d="M118.9,70.1c0.5,0.2,0.8,0.7,1.2,1.2c0.3,0.4,0.9,0.8,1.4,0.5
	c0.6-0.3,0.3-1.3-0.1-1.8s-0.6-1.2-1.2-1.7c-0.4-0.3-1-0.2-1.5-0.4c-0.5-0.2-1.1-0.4-1.5,0c-0.5,0.5-0.5,1.4-0.2,2.1
	C117.2,70.6,118.3,69.9,118.9,70.1z"/>
<path fill="#EAEAEA" stroke="#D6D6D6" stroke-miterlimit="10" d="M166.2,55.3c-0.4,2-2.1,3.3-3.9,4.2s-3.8,1.4-5.8,2
	c-2.7,0.8-5.3,1.7-7.7,2.9c-3.6,1.8-7,4.3-11,5c-2,0.4-4.1,0.3-6.1,0.1c-1.7-0.2-3.6-0.5-5-1.5c-0.6-0.4-1.1-1-1.8-1.2
	c-0.7-0.2-1.9-0.1-1.9,0.6c0,1.4,2,1.9,3.3,2.4c3.5,1.4,7.1,2.9,10.9,2.7c3.6-0.2,7-1.8,10.2-3.4c2.1-1,4.1-2.1,6.2-3.1
	c4-2,8-4.5,11.9-6.5c3.8-1.9,7.5-3.5,11.3-5.4c0.2-0.1,0.4-0.2,0.5-0.4c0.3-0.5-0.3-1.1-0.9-1.5c-0.5-0.3-0.5-0.9-0.6-1.5
	c-0.2-0.9-1.1,0.4-1.7,1.2c-0.5,0.8-1.8,1.7-2.7,1.7c-1.5,0.1-2.6-2-4-1.5C166.3,52.7,166.4,54.3,166.2,55.3z"/>
<path fill="none" stroke="#D6D6D6" stroke-miterlimit="10" d="M-9.3,18.3c2.4-1.6,5.9-3,8.7-3.7c0.7-0.2,1.4-0.3,2-0.3
	c0.7,0,1.3,0.2,2,0.4C4,14.7,4.5,14.9,5,15"/>
<path fill="none" stroke="#D6D6D6" stroke-miterlimit="10" d="M6.9,16.3c0.7,0.2,2.2-0.3,2.6,0.5c0.7,1.3-1.2,3.1-0.5,4.5
	c0.8,1.6,4,0.5,5.3-0.8"/>
<path fill="none" stroke="#D6D6D6" stroke-miterlimit="10" d="M22.5,18.4c1.4-0.1,1.7-0.4,3.1-0.2"/>
<path fill="none" stroke="#D6D6D6" stroke-miterlimit="10" d="M29.2,18.5c1.4-1.1,4.3-2.4,6.2-1.4c0.1,0.1,0.3,0.1,0.3,0.3
	c0.1,0.1,0.1,0.2,0.1,0.4c-0.1,1.8-1.5,3.2-2.8,4.4"/>
<path fill="#EAEAEA" stroke="#D6D6D6" stroke-miterlimit="10" d="M6.4,15C6,14.6,5,14.3,4.8,14.8C4.6,15.2,4.9,15.6,5,16
	c0.1,0.4,0.3,0.8,0.7,1c0.7,0.2,1.3-0.8,1-1.5C6.6,15.3,6.5,15.2,6.4,15z"/>
<path fill="#EAEAEA" stroke="#D6D6D6" stroke-miterlimit="10" d="M14.4,20c0,0.3,0,0.5,0.2,0.8c0.3,0.4,0.9,0.4,1.5,0.4
	c0.8-0.1,1.6-0.2,2.4-0.2c0.8-0.1,1.3-0.6,1.9-1c0.7-0.6,2.6-1,2-1.6c-1.1-1-3.2,0.4-4.2-0.7c-0.5-0.5-0.9-1.4-1.6-1.3
	c-0.3,0-0.5,0.2-0.7,0.4C15,17.6,14.4,18.8,14.4,20z"/>
<path fill="#EAEAEA" stroke="#D6D6D6" stroke-miterlimit="10" d="M29.3,18.7c-0.3-0.9-0.9-2-1.9-1.9c-0.7,0.1-1.2,0.7-1.5,1.4
	c-0.1,0.2-0.2,0.3-0.2,0.5c-0.1,0.6,0.7,0.9,1.3,1c0.6,0,1.3,0,1.9-0.1c0.1,0,0.3,0,0.4-0.1C29.4,19.1,29.3,18.9,29.3,18.7z"/>
<path fill="#EAEAEA" stroke="#D6D6D6" stroke-miterlimit="10" d="M43.1,34.3c-0.3-0.3-0.8-0.3-1.2-0.4c-0.9-0.1-1.9,0.2-2.6-0.3
	c-0.7-0.5,0-1.8-0.5-2.5c-0.4-0.6-1.3-0.6-2.1-0.4c-0.7,0.2-1.4,0.6-2.1,0.6c-1.7,0-3-1.3-4.5-1.9c-1-0.4-1-2-0.7-3
	c0.2-1.1,0.8-2,1.5-2.8c0.6-0.6,1.1-1.7,1.9-1.7c0.8,0.1,0.5,1.6,0.3,2.4c-0.2,0.8-0.6,1.7-0.3,2.4c0.3,0.7,0.9,1.1,1.6,1.3
	c0.7,0.2,1.4,0.1,2.2,0.1c2.4,0,4.8,0.5,7.1,1c0.8,0.2,1.7,0.4,2.3,1.1c0.3,0.4,0.5,0.8,0.6,1.3c0.4,1.2,1.4,2.5,0.9,3.6
	c-0.7,1.2-2.9,1-3.8,0C43.5,34.9,43.4,34.5,43.1,34.3z"/>
<path fill="#EAEAEA" stroke="#D6D6D6" stroke-miterlimit="10" d="M71.4,64.7c0.3,0,0.5,0.1,0.7,0.3c0.7,0.4,1.3,0.8,1.9,1.3
	c0.2,0.1,0.3,0.2,0.4,0.4c0.1,0.2,0.1,0.5,0,0.8c-0.2,1.2-0.5,2.5-0.7,3.7c-0.1,0.6-0.3,1.3-0.9,1.4c-0.3,0.1-0.7-0.1-1-0.2
	c-1-0.3-2.1,0.3-3.1-0.1C68,72,68,70.8,67.4,70.4c-0.9-0.6-2.1-1.6-1.6-2.5c0.6-1,1.9-1.4,3.1-1.7c0.4-0.1,0.9-0.2,1.2-0.5
	C70.5,65.3,70.8,64.7,71.4,64.7z"/>
<path fill="#EAEAEA" stroke="#D6D6D6" stroke-miterlimit="10" d="M74.7,72.8c0.4-0.2,0.8-0.2,1.2-0.3c0.8-0.1,1.6-0.2,2.4-0.3
	c0.5-0.1,1-0.1,1.4-0.4c0.4-0.2,0.3-1.2,0.8-1.1c1,0,3.7,0.7,5.3,1c1,0.2-1.3,1.6-2.3,1.8c-1,0.2-2.2,0.1-3.1,0.5
	c-0.3,0.2-0.7,0.4-1,0.6C77,76,72.4,78,71.6,75.5c-0.3-1,1.4-1.6,2.3-2.2C74.2,73.1,74.4,72.9,74.7,72.8z"/>
<path fill="#FFFFFF" stroke="#D6D6D6" stroke-miterlimit="10" d="M168.2,30.3c-0.3-0.1-0.7,0.1-0.9,0.3c-0.6,0.4-1.1,0.7-1.3,1.4
	c-0.2,0.7-0.2,1.9,0.5,2.1c0.2,0,0.4,0.1,0.5,0c0.3-0.2,0.1-0.7,0.3-0.9c0.6-0.6,1.3-1.1,1.4-1.9C168.7,30.9,168.6,30.5,168.2,30.3z
	"/>
<g>
	<g>
		<path fill="none" stroke="#585858" stroke-miterlimit="10" d="M85.6,123.7c0.5,0.6,0.6,0.9,1,1.6c0,0,0,0.1,0,0.1"/>
		<path fill="none" stroke="#585858" stroke-miterlimit="10" stroke-dasharray="4.0699,1.0175" d="M86.7,126.4
			c-0.2,0.5-0.5,0.9-0.9,1.3c-0.6,0.7-1.1,2.2-0.3,2.4c0.9,0.2,1.8-0.8,2.7-1.1c0.9-0.3,2.1-0.4,2.7,0.4c0.4,0.5,0.5,1.1,0.8,1.6
			c0.6,0.9,1.9,1,3,0.8c1.1-0.2,2-0.8,2.8,0c1.3,1.2,0.1,1.5-1.4,2.7c-0.6,0.4,0.8,1.6,0.9,2.2s-1.6,0.7-1.4,1.4
			c1.1,4,7.8-6.8,11.2-4.5c2,1.3,2,6.5,4.2,5.6c2.3-1,2.2-4.5,4.4-5.7s5.3-0.6,7-2.4c1-1,2-2.9,3.3-3.3c1.3-0.5,2.8-0.5,4.2-0.5
			c0.3,0,0.6,0,0.8,0.2c0.2,0.2,0.3,0.5,0.4,0.7c0.6,1.6,2.2,4.7,3.5,3.6c0.8-0.6,0-2.3,0.8-2.9c0.7-0.5,1.5,0.6,2.1,1.2
			c0.3,0.3,0.6,0.6,1,0.8"/>
		<path fill="none" stroke="#585858" stroke-miterlimit="10" d="M139.2,131c0.6,0.2,1.3,0.3,2,0.2"/>
	</g>
</g>
<g>
	<g>
		<path fill="none" stroke="#585858" stroke-miterlimit="10" d="M-37.3,130.3c0.6-0.2,1.3-0.3,1.9-0.5"/>
		<path fill="none" stroke="#585858" stroke-miterlimit="10" stroke-dasharray="3.9896,0.9974" d="M-34.4,129.6
			c2.6-0.6,5.2-1.4,7.8-2.3c1.6-0.6,3.2-1.3,4.9-1.5c1.8-0.2,3.6,0.2,5.4,0s2.3-2.5,4-3.1c1.5-0.5,3.2,1,4.3-0.3
			c0.2-0.3,0.5-0.7,0.8-0.8c1.1-0.3,1.8,2.6,2.6,1.8c0.7-0.8,1.4-1.4,2.4-1.2c3,0.7,5.4,3,6.9,5.7c0.3,0.5,2.5,0.9,3,0.8
			c5.8-0.5,9.4,1.6,15.2,0.5c1.1-0.2,2.1-0.7,3.1-0.9c2.1-0.5,6.4-1.3,8.6-1.3c2.2,0,4.3,0.9,6.4,1c3.7,0.2,7.5-0.8,11.1,0.1
			c2,0.5,4,1.6,6.1,1.6c1.9,0,3.9-1,5.8-0.6c1.7,0.4,3.2,1.8,4.9,1.5c0.8-0.1,1.5-0.7,2.2-1.2c6.8-4.8,15.3-6.5,23.6-6.8
			c1.2-0.1,2.9,0.1,2.3-1c-3.2-5.4-10.9-6.1-17.2-7c-1.6-0.2-3.6-0.6-4.3-2.1c-0.3-0.7-0.3-1.5-0.7-2.1c-0.8-1.2-2.5-1.1-3.9-1.1
			c-1.4-0.1-3.2-1.2-2.7-2.5c0.2-0.6,0.8-0.9,1.3-1.2c4.9-2.7,10.2-5.5,15.7-4.5c1.1,0.2,2.3,0.5,3.3,0.1c1.1-0.4,1.8-1.6,2.8-2.2
			c1.5-1,3.6-0.7,4.9-1.9c0.7-0.7,1-1.7,1.5-2.6c1.3-2.5,5.6-1.6,6.8-4.2c0.7-1.5,0.2-3.6,1.1-5.1c0.3-0.5,0.8-0.8,1.2-1.1
			c1.6-1,3.1-2.1,4.7-3.1c0.4-0.2,0.7-0.5,1.2-0.5c0.8-0.1,1.6,0.6,2.4,0.7c2.2,0.3,3.8-3.4,5.9-2.6c0.6,0.2,1.1,0.9,1.6,1.3
			c1.9,1.6,4.8,0.8,7.1-0.2c4.6-1.9,9.3-3.8,13.9-5.7c1.9-0.8,3.9-1.6,5.7-2.6c2.8-1.6,5.4-3.6,8.1-5.4c10-6.8,21.5-10.8,32.9-14.7
			c2.9-1,8.7-1.3,9.1-1.8c1.4-1.5-1-7.6,4.8-9.9c0.7-0.3,1.4-0.4,2-0.9c0.7-0.5,1-1.3,1.5-2c1-1.3,2.7-1.3,4.2-1.9
			c1.8-0.6,4.3-1.5,5.6,0c0.3,0.4,0.6,0.9,1,1.1c1.2,0.7,2.6-0.3,3.6-1.3c1-1,2.3-1.1,3.6-1.1c1.6,0.1,2.4-2.3,2.9-3.9
			c0.1-0.5,0.2-0.9,0.5-1.3c0.4-0.6,1-0.9,1.6-1.2c1.6-1,2.9-2.3,3.8-4c0.4-0.7,0.7-1.5,1.4-2c0.6-0.4,1.3-0.6,2-0.7
			c5.7-1,11.7-0.8,17.3,0.7c1.6,0.4,3.2,0.9,4.9,1c1.7,0.1,3.4-0.4,4.5-1.7c0.9-1.1,1.3-2.7,2.6-3.3c0.5-0.2,1.1-0.2,1.7-0.2
			c1.4,0.1,2.8,0.1,4.2,0.2c0.3,0,0.5,0,0.7,0.2c0.3,0.3,0.2,0.7,0.3,1.1c0.2,0.6,0.8,1,1.4,1.2c13.2,5.8,14.2-0.1,18.4,2.3
			c1.3,0.7,1.2,1.4,2.6,1.2s2.9-1.4,4.2-0.9c2.4,0.9,4.4,1.2,7,1.4c2.1,0.1,4.3,0.2,6.4,0.4c4.3,0.2,9.3,0.8,11.8,4.4
			c0.8,1.2,1.4,2.7,2.6,3.4c1,0.5,2.2,0.5,3.3,0.6c1.1,0.2,2.3,0.8,2.4,2c0.1,1.2-1.1,2.5-0.3,3.4c0.4,0.4,1,0.5,1.6,0.5
			c1.2,0.1,2.9-0.8,3.5,0.2c1.5,2.2-5.9,3.6-4.7,5.9c0.6,1.1,15.8-1.2,23.7-0.2c0.8,0.1,1.5,0.2,2.2,0.6c0.6,0.3,1.2,0.7,1.8,1"/>
		<path fill="none" stroke="#585858" stroke-miterlimit="10" d="M362.8,46.2c0.7,0.3,1.3,0.4,1.9,0"/>
	</g>
</g>
<path fill="none" stroke="#585858" stroke-miterlimit="10" stroke-dasharray="4,1" d="M179.4,55.6c-0.2-1.8-0.3-3.6,0.1-5.4
	c0.9-3.5,4.3-5.9,5.6-9.2c0.4-1,0.7-2.1,1.2-3.1c1.2-1.9,3.4-2.7,5.4-3.5c8.3-3.1,16.4-6.9,23.2-12.4c1.3-1,2.5-2.1,3.8-3.1
	c1.5-1.1,3.1-2.1,4.4-3.4c0.7-0.7,1.3-1.5,2.1-1.9c1.2-0.6,2.6-0.2,3.9,0.1c1.1,0.3,2.2,0.6,3.1,1.4c0.7,0.6,1.2,1.4,1.6,2.2
	c0.8,1.3,1.5,2.7,2.3,4"/>
<path fill="none" stroke="#585858" stroke-miterlimit="10" stroke-dasharray="4,1" d="M229.6-10.7c0.1,0,0-0.2-0.1-0.2
	s-0.1,0.2-0.1,0.3c0,4.1-1.6,8.2-4.3,11.3c-0.7,0.7-1.4,1.5-1.4,2.5c0,0.7,0.4,1.4,0.8,2c1.4,2.3,2.3,5,2.5,7.7"/>
<g>
	<g>
		<path fill="none" stroke="#585858" stroke-miterlimit="10" d="M33.8,184.2c0.2,0.3,0.4,0.6,0.5,0.9c1.2,2.2,1.6,5.3,5.1,4.8
			c0.1,0,0.2,0,0.3-0.1"/>
		<path fill="none" stroke="#585858" stroke-miterlimit="10" stroke-dasharray="1.0094,3.0281" d="M42.2,188
			c0.1-0.2,0.3-0.4,0.4-0.6c0.3-0.6,0.7-1,1.1-1.4"/>
		<path fill="none" stroke="#585858" stroke-miterlimit="10" stroke-dasharray="18.1685,3.0281,1.0094,3.0281" d="M44.9,185.1
			c1.3-0.8,2.6-1.6,2.7-3.5c0-0.7,0.5-1.4,1.2-1.6c1.3-0.4,2.7-0.1,3.9-0.5c0.9-0.3,1.6-1,2.5-1.1c1.6-0.1,2.8,1.9,4.5,1.8
			c0.6-0.1,1.2-0.4,1.8-0.7c1.7-0.7,3.6-0.4,5.3,0.3c1.7,0.8,3.1,1.9,4.7,2.9c0.6,0.4,1.2,0.7,1.8,0.6c0.6,0,1.1-0.4,1.6-0.8
			c3.8-3.2,5-8.8,9.8-11.2c1.7-0.9,3.8-0.9,5.5,0.1c0.5,0.3,1,0.1,1.5,0.3c1,0.5,1.4,2.2,2.5,2.2c3.4,0.1,5.8,1.2,7.8,2.9
			c1.5,1.3,2.6,5.1,4.4,5.3c1.5,0.2,6.7-3.4,8.9-5.7c2.3-2.3,4.2-5,6.7-7.1c1.8-1.6,3.8-4.9,4.2-7.3c3.4-18.5,15.5-28.9,15.2-31.4
			c-0.3-1.9-0.7-3.5,0.5-5c2.6-3.3,5.4-6.7,9.3-8.3c2.4-1,5-1.2,7.5-2.1c4.8-1.8,8.3-6,12-9.5c3.7-3.6,10.8-10.4,13.6-6
			c1,1.6,1.1,3.7,3,4.3c1.8,0.6,3.8,0.3,5.7,0.3c10.5-0.2,19.9,6.8,30.4,7.4c1.3,0.1,2.7,0.1,3.8-0.5c1.4-0.7,2.3-2.1,3.2-3.3
			c3.1-4.5,6.6-8.7,10.4-12.6c0.6-0.6,1.4-1.3,2.5-0.7c0.8,0.4,1.3,1.2,1.4,2c0.7,4.1,3.5,8,4.6,8.2c4.5,1,12.8-3.2,16.8-5.7
			c8.1-5.1,17.4-8.3,26.9-9.4c2-0.2,4.2-0.4,6.1,0.4c2.3,1,3.9,3.2,5.4,5.2c4.4,5.8,9.9,10.9,16,14.9c2.2,1.4,3.6,4,6,5.1
			c1.7,0.7,3.6,1.3,4.6,2.8c1.1,1.8,0.4,4-0.2,6c-1.4,5.1-2.1,13.8-0.6,15.7c2.7,3.6,8.9-1,13.2-2.4c1.8-0.6,3.7-1.4,4.6-3.1
			c0.8-1.5,0.6-3.6,1.8-4.8c0.8-0.9,2-1.1,3.2-1"/>
		<path fill="none" stroke="#585858" stroke-miterlimit="10" d="M354.5,128.5c0.4,0,0.8,0.1,1.1,0.1c2.6,0.2,5.2-0.2,7.8-0.6"/>
	</g>
</g>
<g>
	<g>
		<path fill="none" stroke="#585858" stroke-miterlimit="10" d="M-30.9,150.8c0.5,0.5,1,1.1,1.7,1.3c0.9,0.3,1.9-0.2,2.7-0.6
			c1.2-0.6,2.4-1.1,3.6-1.7"/>
		<path fill="none" stroke="#585858" stroke-miterlimit="10" stroke-dasharray="0.976,2.9279" d="M-20.2,148.5
			c0.7-0.3,1.5-0.7,2.2-1"/>
		<path fill="none" stroke="#585858" stroke-miterlimit="10" stroke-dasharray="17.5675,2.9279,0.976,2.9279" d="M-16.7,146.9
			c0.4-0.2,0.8-0.4,1.1-0.5c5-2.4,10.4-4.8,15.9-4c1.9,0.3,3.9,1,5.8,0.6c0.9-0.2,1.9-0.7,2.8-0.5c1.4,0.3,2.1,1.7,3,2.7
			c1.8,1.9,3.8,3.5,5.6,5.3c0.5,0.5,1,1,1.2,1.7c0.8,2-1.2,3.9-2.6,5.6c-1.6,1.8-4.4,4.2-3.4,6.4c0.8,1.6,3,1.8,4.1,3.2
			c0.7,0.9,1.3,2,2,3c2.2,3.4,5.1,6.4,8.5,8.7c2.5,1.7,5.5,3.2,6.9,5.8c0.9,1.7,1.4,4,3.2,4.6c2,0.8,4-1,5.2-2.7
			c1.2-1.7,3.8-2.2,4.6-4.1c0.5-1.2,0.3-2.5,1.6-2.8c1.2-0.3,2.6,0,3.7-0.5c0.9-0.3,1.6-1,2.5-1.1c1.6-0.1,2.8,1.9,4.5,1.8
			c0.6-0.1,1.2-0.4,1.8-0.7c1.7-0.7,3.6-0.4,5.3,0.3s3.1,1.9,4.7,2.9c0.6,0.4,1.2,0.7,1.8,0.6c0.6,0,1.1-0.4,1.6-0.8
			c2.6-2.2,4-5.5,6.1-8.1"/>
		<path fill="none" stroke="#585858" stroke-miterlimit="10" d="M81.9,173.2c2.2-2.2,5.5-3.5,8.2-2"/>
	</g>
</g>
<text transform="matrix(1 0 0 1 244.9777 265.3336)"><tspan x="0" y="0" fill="#585858" font-family="'Verdana-Italic'" font-size="8">Little Bear</tspan><tspan x="0" y="9.6" fill="#585858" font-family="'Verdana-Italic'" font-size="8">Lake</tspan></text>
<text transform="matrix(1 0 0 1 62.1869 295.4803)" fill="#585858" font-family="'Verdana-Italic'" font-size="8"> 7932</text>
<text transform="matrix(1 0 0 1 224.3952 199.8971)" fill="#585858" font-family="'Verdana-Italic'" font-size="8"> 7816</text>
<text transform="matrix(1 0 0 1 192.1041 171.2971)"><tspan x="0" y="0" fill="#7BBCEB" font-family="'Verdana-Italic'" font-size="8">Boundary</tspan><tspan x="0" y="9.6" fill="#7BBCEB" font-family="'Verdana-Italic'" font-size="8">Lake</tspan></text>
<text transform="matrix(1 0 0 1 295.5722 116.4969)"><tspan x="0" y="0" fill="#585858" font-family="'Verdana-Italic'" font-size="8">Bartlett</tspan><tspan x="11" y="9.6" fill="#585858" font-family="'Verdana-Italic'" font-size="8">Peak</tspan></text>
<text transform="matrix(1 0 0 1 328.8541 121.6971)" fill="#585858" font-family="'Verdana-Italic'" font-size="8"> 8295</text>
<text transform="matrix(1 0 0 1 120.4958 24.726)" fill="#585858" font-family="'Verdana-Italic'" font-size="8"> 7604</text>
<text transform="matrix(1 0 0 1 84.5541 192.7969)" fill="#585858" font-family="'Verdana-Italic'" font-size="8">7883 </text>
<path fill="none" d="M265.2,143.8c3.4,1.5,7.1,2.2,10.4,3.8c3.2,1.5,6,3.7,8.2,6.5c1.1,1.4,2.1,2.9,3,4.4c2.2,3.4,6.6,6.3,7.2,10.3"
	/>
<text transform="matrix(0.9301 0.3673 -0.3673 0.9301 271.106 148.4329)"><tspan x="0" y="0" fill="#7D7D7D" font-family="'Verdana-Italic'" font-size="7">8</tspan><tspan x="4" y="-0.1" fill="#7D7D7D" font-family="'Verdana-Italic'" font-size="7" rotate="10.4">0</tspan><tspan x="7.9" y="0.6" fill="#7D7D7D" font-family="'Verdana-Italic'" font-size="7" rotate="21.3">0</tspan><tspan x="11.7" y="2" fill="#7D7D7D" font-family="'Verdana-Italic'" font-size="7" rotate="32">0</tspan></text>
<path fill="none" d="M57.7,155.1c3.7-3.7,9.6-4.2,14.9-3.6c5.3,0.6,10.6,1.8,15.8,0.6"/>
<text transform="matrix(0.9999 1.236926e-02 -1.236926e-02 0.9999 67.0635 153.8216)"><tspan x="0" y="0" fill="#7D7D7D" font-family="'Verdana-Italic'" font-size="7">7</tspan><tspan x="4.2" y="0" fill="#7D7D7D" font-family="'Verdana-Italic'" font-size="7" rotate="6.2">6</tspan><tspan x="8.6" y="0.5" fill="#7D7D7D" font-family="'Verdana-Italic'" font-size="7" rotate="6.4">0</tspan><tspan x="13.2" y="1.1" fill="#7D7D7D" font-family="'Verdana-Italic'" font-size="7" rotate="1.2">0</tspan></text>
<path fill="none" d="M161,278.6c0.7-4.2-0.5-8.9,1.3-12.7c0.8-1.6,2-2.9,3.2-4.3c3.5-3.9,11.4-11.9,6.5-13.8"/>
<text transform="matrix(0.3273 -0.9449 0.9449 0.3273 163.6343 269.7449)"><tspan x="0" y="0" fill="#7D7D7D" font-family="'Verdana-Italic'" font-size="7">7</tspan><tspan x="3.5" y="0" fill="#7D7D7D" font-family="'Verdana-Italic'" font-size="7" rotate="21">6</tspan><tspan x="7.6" y="1.6" fill="#7D7D7D" font-family="'Verdana-Italic'" font-size="7" rotate="23">0</tspan><tspan x="11.8" y="3.4" fill="#7D7D7D" font-family="'Verdana-Italic'" font-size="7" rotate="19.9">0</tspan></text>
<path fill="none" d="M43.2,357.5c1.4-1.2,4.5-5.6,6.3-5.4c6.6,0.8,12.9,4,19.1,1.7"/>
<text transform="matrix(0.9792 0.2031 -0.2031 0.9792 49.6415 354.6656)"><tspan x="0" y="0" fill="#7D7D7D" font-family="'Verdana-Italic'" font-size="7">7</tspan><tspan x="4.4" y="0" fill="#7D7D7D" font-family="'Verdana-Italic'" font-size="7" rotate="1.4">6</tspan><tspan x="9.1" y="0.2" fill="#7D7D7D" font-family="'Verdana-Italic'" font-size="7" rotate="-4.1">0</tspan><tspan x="14.1" y="-0.2" fill="#7D7D7D" font-family="'Verdana-Italic'" font-size="7" rotate="-17.8">0</tspan></text>
<path fill="none" d="M7.7,117.7c-2.1-2.6-0.1-6.9,2.1-9.5c1.2-1.4,2.9-2.3,4.4-3.4c3-2.2,5.3-5.4,6.4-9"/>
<text transform="matrix(0.5029 -0.8643 0.8643 0.5029 9.4335 113.4566)"><tspan x="0" y="0" fill="#7D7D7D" font-family="'Verdana-Italic'" font-size="7">7</tspan><tspan x="3.6" y="-0.3" fill="#7D7D7D" font-family="'Verdana-Italic'" font-size="7" rotate="22.1">4</tspan><tspan x="7.6" y="1.7" fill="#7D7D7D" font-family="'Verdana-Italic'" font-size="7" rotate="20.7">0</tspan><tspan x="12.5" y="3.4" fill="#7D7D7D" font-family="'Verdana-Italic'" font-size="7" rotate="6">0</tspan></text>
<text transform="matrix(0.9865 -0.1636 0.1636 0.9865 37.4912 105.789)" fill="#585858" font-family="'Verdana-Bold'" font-size="10" letter-spacing="8">EMIGRANT WILDERNESS</text>
<text transform="matrix(0.8489 -0.5286 0.5286 0.8489 149.7725 56.6502)" fill="#585858" font-family="'Verdana-Italic'" font-size="8">Lord      Meadow</text>
<path fill="none" d="M338.8,309.5c-0.8,2.9-2.8,5.3-3.2,8.3c-1.5,11.3,7.9,21.6,7.3,33"/>
<text transform="matrix(0.2445 0.9697 -0.9697 0.2445 333.2392 324.8241)"><tspan x="0" y="0" fill="#7D7D7D" font-family="'Verdana-Italic'" font-size="7">7</tspan><tspan x="4.7" y="0" fill="#7D7D7D" font-family="'Verdana-Italic'" font-size="7" rotate="-5.3">6</tspan><tspan x="9.2" y="-0.5" fill="#7D7D7D" font-family="'Verdana-Italic'" font-size="7" rotate="-7">0</tspan><tspan x="13.5" y="-1" fill="#7D7D7D" font-family="'Verdana-Italic'" font-size="7" rotate="-5.4">0</tspan></text>
<path fill="none" d="M251.8,46.9c10.4-2.7,21.2-3.4,31.9-4.4c5.4-0.5,10.7-1,16.1-1.6"/>
<text transform="matrix(0.9947 -0.1033 0.1033 0.9947 268.7372 46.519)"><tspan x="0" y="0" fill="#7D7D7D" font-family="'Verdana-Italic'" font-size="7">7</tspan><tspan x="4.4" y="0" fill="#7D7D7D" font-family="'Verdana-Italic'" font-size="7" rotate="0.8">2</tspan><tspan x="8.9" y="0.1" fill="#7D7D7D" font-family="'Verdana-Italic'" font-size="7" rotate="1.1">0</tspan><tspan x="13.3" y="0.2" fill="#7D7D7D" font-family="'Verdana-Italic'" font-size="7" rotate="0.9">0</tspan></text>
<g>
	<g>
		<polyline fill="none" stroke="#7D7D7D" stroke-miterlimit="10" points="85.2,341.6 85.2,348.7 275.4,348.7 275.4,341.7 		"/>
		<line fill="none" stroke="#7D7D7D" stroke-miterlimit="10" x1="180.5" y1="341.4" x2="180.5" y2="348.7"/>
		<line fill="none" stroke="#7D7D7D" stroke-miterlimit="10" x1="161.2" y1="349.2" x2="161.2" y2="343.7"/>
		<line fill="none" stroke="#7D7D7D" stroke-miterlimit="10" x1="142.4" y1="349.2" x2="142.4" y2="343.7"/>
		<line fill="none" stroke="#7D7D7D" stroke-miterlimit="10" x1="123.3" y1="349.2" x2="123.3" y2="343.5"/>
		<line fill="none" stroke="#7D7D7D" stroke-miterlimit="10" x1="104.6" y1="349.2" x2="104.6" y2="343.7"/>
	</g>
	<text transform="matrix(1 0 0 1 83.7834 339.1468)" fill="#7D7D7D" font-family="'Verdana'" font-size="8">0</text>
	<text transform="matrix(1 0 0 1 174.2945 339.1468)" fill="#7D7D7D" font-family="'Verdana'" font-size="8">0.5</text>
	<text transform="matrix(1 0 0 1 258.3414 339.1468)" fill="#7D7D7D" font-family="'Verdana'" font-size="8">1 mi</text>
</g>
</svg>
