<?xml version="1.0" encoding="utf-8"?>
<!-- Generator: Adobe Illustrator 17.1.0, SVG Export Plug-In . SVG Version: 6.00 Build 0)  -->
<!DOCTYPE svg PUBLIC "-//W3C//DTD SVG 1.1//EN" "http://www.w3.org/Graphics/SVG/1.1/DTD/svg11.dtd">
<svg version="1.1" id="Layer_1" xmlns="http://www.w3.org/2000/svg" xmlns:xlink="http://www.w3.org/1999/xlink" x="0px" y="0px"
	 viewBox="0 0 360 360" enable-background="new 0 0 360 360" xml:space="preserve">
<path fill="none" stroke="#E1E1E1" stroke-miterlimit="10" d="M25.1,370.5c0.2-2.2,1.3-4.2,3-5.6c0.9-0.8,2-1.3,3-2
	c3.5-2.6,5.2-7.1,8.8-9.4c0.9-0.6,2-1,2.5-2c0.6-1.2,0.1-2.9,1.1-3.8c0.6-0.6,1.6-0.6,2.5-0.9c1.8-0.6,2.8-2.4,3.9-4
	c1.1-1.5,3.2-1.2,4.7-2.4c1.8-1.5-0.6-5,1-6.7c0.5-0.6,1.3-1,1.8-1.6c4-3.7,1.3-11.6,5.6-15c0.5-0.4,1.1-0.7,1.4-1.3
	c0.3-0.6,0.3-1.3,0.3-2c0.1-3.5,2.4-6.4,4-9.6c0.9-1.7,1.3-3.7,2.2-5.4c0.5-0.9,1-1.8,1.5-2.7c0.9-1.7,1.9-3.4,3.1-4.9
	c3-3.6,7.4-6.3,8.8-10.8c1.4-4.3,4.5-8,5.1-12.5c0.8-6.5-4-13.2-1.4-19.2c0.8-1.8,2.1-3.3,2.6-5.1c0.3-0.9,0.3-1.9,0.6-2.8
	c0.8-2.5,3.5-4,4.3-6.6c0.3-1.1,0.3-2.2,0.8-3.2c0.4-0.7,1-1.3,1.4-2c1-1.5,1.1-3.4,2.1-4.8c1.3-2,3.8-2.7,6.1-3.4
	c6.3-1.7,12.6-3.4,19-5.1c1.3-0.4,2.7-0.7,3.9-1.4c1.9-1,3.4-2.5,5-4c2-1.8,4.5-2.4,6.4-4.3c3.8-3.7,9.9-2.6,15-1.3
	c3.4,0.9,6.8,1.7,10.2,2.6c2.4,0.6,4.8,1.2,6.8,2.5c2,1.3,3.6,3.1,5.3,4.7c5.4,4.9,14.4,11.9,20,7.3c1.8-1.5,2.4-5.7,4.5-4.8
	c2.5,1.1-3.5,10.8-2.7,13.4c2.3,7.3,3.1,12.8,1.9,16.6c-0.4,1.3,2.5-1.9,3.7-2.6s2.2,0.9,3.6,0.6c6.4-1.5-3.7-12.9-3-19.5
	c0.2-2.2,1-4.5,2.7-5.7c0.7-0.5,1.5-0.8,2.2-1.4c1.7-1.6,2.2-4.2,4.3-5.2c1.2-0.6,0.3-2.6-0.6-3.6s-2.1-1.8-2.5-3
	c-0.7-2,0.8-4.5-0.5-6.1c-0.5-0.6-1.3-1-1.5-1.7c-0.1-0.4,0-0.9,0-1.4c0.6-4.4-3.1-8.1-4.4-12.3c-0.7-2.2-0.7-4.5-0.7-6.8
	c0-5.1,0-10.2,0-15.2c0-1.1,0-2.3-0.3-3.4c-0.7-2.7-3.1-4.7-5.3-6.4c-1.1-0.9-2.1-1.7-3.2-2.6c-0.8-0.6-1.5-1.2-2.4-1.8
	c-3.6-2.4-7.8-3.3-12-4.4c-1.8-0.5-3.6-1.1-5-2.4c-0.6-0.6-1.1-1.3-1.8-1.4c-0.9-0.2-1.8,0.6-2.7,0.8c-1.6,0.4-3.2-0.8-4.6-1.7
	c-3.7-2.6-7.9-4.4-12.4-5.2c-0.4-0.1-0.8-0.1-1.1,0c-1.4,0.5-0.5,2.6,0,4c0.8,2.3-0.6,5.2-3,5.9c-2.4,0.7-3.4-2.6-5.7-3.4
	c-2.9-1.1-2.6,5.5-2.3,8.6c0.1,0.7,0.1,1.3,0.4,2c0.3,0.8,0.9,1.4,1.5,2.1c2.9,3.6,4,8.7,2.6,13.2c-0.5,1.7-1.3,3.3-1.3,5.1
	c-0.1,2.8,1.8,5.6,1.3,8.3c-0.6,3-3.7,4.6-5.9,6.8c-1.7,1.8-4.9,1.8-7,0.5c-2.1-1.3-3.5-3.5-4.9-5.6c-1.5-2.2-3.2-4.2-5.1-6
	c-0.5-0.5-1.1-1-1.7-1c-0.4,0-0.8,0.2-1.2,0.4c-2.1,1-4.9,2.7-6.7,1.2c-1-0.9-1.9-1.9-3.2-1.7s-2.5,0.9-3.7,1.5
	c-3.1,1.4-6.9,1.5-9.7,3.4c-1.8,1.2-3,3.1-4.8,4.3c-0.9,0.6-2,1-3,1.6c-3.2,1.9-3.5,7-6.9,8.7c-1.8,0.9-2.7,2.8-3,4.8
	c-0.6,3.9-3.5,7.4-7.2,8.9c-1.7,0.7-3.7,1.1-4.5,2.7c-0.4,0.7-0.4,1.6-0.7,2.3c-0.6,1.4-2.1,2.2-3.5,3c-2.8,1.7-5.1,4.2-6.7,7.2
	c-1,1.8-1.7,4-3.5,5.1c-2.3,1.4-5.5,0.4-7.3-1.7c-1.8-2-2.6-4.8-3.3-7.4c-1.3-4.7-2.5-9.5-3.8-14.2c-0.2-0.7-0.4-1.5-0.8-2.1
	c-0.3-0.5-0.7-0.9-1.1-1.3c-2.7-2.5-6.3-3.8-9.9-3.6c-4.4,0.3-8.3,2.9-12.5,4c-4.6,1.1-9.4,0.5-14-0.5c-2-0.5-4.1-1-5.6-2.5
	c-2.2-2.2-2.3-5.6-2.4-8.7c0-4.8,0.5-10.6,4.7-12.9c1.3-0.7,2.8-1,4.2-1.6c2.3-1.2,3.9-3.4,5.8-5.2c7.8-7,21.2-5,28.1-12.8
	c2.1-2.4,3.4-5.5,4.5-8.5c0.6-1.5,1.2-3.1,0.9-4.7c-0.4-2-2.1-3.4-3.5-4.8c-1.4-1.5-0.6-3.6-1.5-5.4c-2.2-4.4-8.1-5.3-10.5-9.5
	c-2.4-4.3-5-9-9.6-10.7c-2.8-1.1-6.3-0.9-8.5-2.9c-0.9-0.8-1.5-1.9-2.3-2.8c-2.6-3-6.8-3.8-10.7-3.9c-4.6-0.1-9.3,0.5-13.7,1.9"/>
<path fill="none" stroke="#E1E1E1" stroke-miterlimit="10" d="M369.6,95.6c-5,3.8-10.8,9-16.2,10.8c-6.4,2.2-13.6,0.2-20.2-0.8
	c-2-0.3-3-2.7-2.8-4.7s1.6-3.6,3.1-4.9c1.9-1.5,4.5-0.7,6.6-1.8c1.4-0.7,2.3-2.9,1.8-4.4c-1.1-2.7-4.4-4.3-3.8-7.2
	c3-14.5,11.2-27.6,22-37.7c0.9-0.9,1.9-1.8,2.3-3.1c0.6-2-1-4.2-2.9-5.1s-4.7,0.7-6.3-0.7c-3-2.8-3.2-9.2-7.1-7.9
	c-1.2,0.4-2.1,1.3-2.9,2.2c-9.7,10.5-14.1,24.9-17.2,38.9c-3.4,15.3-18.6,25.1-29.5,36.4c-10.9,11.2-21.7,22.4-32.6,33.7
	c-1.4,1.4-2.8,3-3.4,4.9c-0.6,2.3,0,5.1-1.8,6.6c-0.7,0.6-1.6,0.9-2.3,1.4c-1.1,0.8-1.6,2.2-2,3.5c-2.9,8.4-5.9,16.9-8.8,25.3
	c-1,2.9-2,5.9-1.8,9c0.1,2,0.7,4.2-0.3,5.9c-0.8,1.3-2.2,2-3.4,3c-2.1,1.8-3.2,4.4-4.7,6.7c-1.5,2.3-4,4.4-6.7,4
	c-1.2-0.2-2.4-0.9-3.4-1.6c-3.3-2.5-5.9-6.1-7.1-10.1c-0.7-2.3-1.1-4.7-2.2-6.7c-1.5-2.8-4.4-4.8-5.7-7.7c-2.3-4.9,0.1-10.6,0-15.9
	c-0.1-4.4-2-8.6-3.9-12.6c-3.6-7.7-7.3-15.7-13.7-21.3c-0.7-0.6-1.4-1.2-2.3-1.2c-0.9-0.1-1.7,0.4-2.6,0.3c-0.7,0-1.3-0.4-1.9-0.7
	c-5.6-3.1-10.5-7.3-14.6-12.2c-2.2-2.6-4.5-5.7-7.9-6.2c-1.1-0.1-2.2,0-3.3-0.2c-3-0.7-4.5-4.2-4.8-7.3c-0.3-3.1,1.5-8.3-1.5-9.2
	c-6.7-2-0.3,18.6-7.3,19c-2.7,0.1-3.2-4.7-5.6-5.9c-0.8-0.4-1.6,0.6-1.8,1.4c-0.6,2.7-1.2,5.5-1.8,8.2c-0.2,0.7-0.3,1.5-0.7,2.2
	c-0.3,0.6-0.6,1.1-0.9,1.6c-1,2.3,0.5,5.1-0.2,7.6c-0.3,1-0.9,1.9-1.2,2.9c-0.3,1-0.4,2.1-0.6,3.2c-0.5,3-2.2,5.8-4.2,8.2
	c-5.1,6.4-11.9,11.2-19.3,14.9c-2.1,1.1-4.5,2.1-6.9,1.5c-1.2-0.3-2.6-1-3.7-0.4c-0.5,0.3-0.8,0.7-1.2,1.1c-2.2,2.3-5.5,3.1-8.5,3.8
	c-1,0.2-2.1,0.5-3.1,0.7c-2.4,0.5-4.5,1.8-6.9,2.1c-2.3,0.3-4.5-0.2-6.3,1.2c-1.8,1.5-3.4,3.3-5.3,4.6c-3.7,2.5-8.4,2.8-12.4,4.8
	c-3.4,1.7-6.3,4.6-10,5.4c-0.9,0.2-1.9,0.2-2.8,0.6c-0.9,0.3-1.7,0.9-2.5,1.4c-2.2,1.4-4.7,2.2-7.2,3c-7,2.3-18.6,7.3-21.1,6.9
	c-2.8-0.5-1.1-5.6-1.1-8.4c0-1.4,0-3,0.9-4.2c0.7-0.9,1.8-1.4,2.8-1.8c4.3-1.9,8.6-3.9,13-5.8c3.1-1.4,6.2-2.8,9.6-3.4
	c1.4-0.2,2.9-0.4,4.2-1c1.5-0.8,2.6-2.3,4.1-3.1c2.3-1.2,5.6-1,6.6-3.3c0.5-1.3-0.1-2.9,0.2-4.3c0.4-1.8,2.4-2.8,3.8-4.1
	c2.2-2,3.1-5,4-7.8c0.4-1.4,1.3-2.9,0.9-4.4c-2-7.8-3.6-2.9-5-6.1c-0.8-1.8,0.3-3.3-2.4-6.7c-1.2-1.5-2.9-3-3-5
	c-0.1-2.3,2.8-6.3,0.5-6.8c-2.8-0.7-5.7,0.4-8-1.3c-2.3-1.7-4-4.1-6-6.1c-2.6-2.7-5.7-4.9-9.1-6.4c-2.8-1.3-6-2.1-8-4.5
	c-1.4-1.6-2.2-3.9-4-5c-1.5-0.9-3.5-1-4.7-2.3c-0.7-0.7-1.1-1.6-1.8-2.3c-0.9-0.8-2.1-1-3.2-1.2c-3.1-0.6-6.2-1.1-9.2-1.7
	c-4.9-0.9-10.1-1.7-14.6,0.3"/>
<path fill="none" stroke="#E1E1E1" stroke-miterlimit="10" d="M367.8,116.3c-3.6,0-7.7-1.8-11-0.3c-1.5,0.7-3.1,2-2.8,3.6
	c0.3,1.2,1.6,2,1.8,3.3c0.3,1.7-1.5,3-3,4.1c-1.4,1.1-1.1,2.6-1,4.4c0.1,2.9-6.5,5.2-8,2.7c-0.7-1.2-0.8-2.7-2.2-2.6
	c-1.4,0.1-2.5,1-3.7,1.8c-3.5,2.4-8.1,1.4-12.1,2.9c-5.4,2-9.7,11.6-5.8,15.8c1.1,1.2,4-0.9,4.7,0.6c2.8,5.9-10.9,6.7-17.3,8.1
	c-26.9,5.9-50.2,26-60.1,51.6c-3.1,7.9-5.4,17.8-0.1,24.5c4.3,5.3,9.5,9.8,14.3,14.7c0.7,0.7,1.4,1.5,2.4,1.9
	c4.1,1.8,8.6,0.7,12.7-0.9c1.4-0.5,0.2-2.9,0.7-4.3c1.1-3,4.1-4.5,7.1-4.9c1.6-0.2,3.2-0.1,4.8,0.2c1,0.2,3.8,0.7,4.4,1.3
	c0.4,0.4,0.2,1,0.2,1.5c-0.1,0.9,0.1,2.1,1,2.5c0.4,0.2,0.9,0.3,1.3,0.5c0.4,0.2,0.7,0.6,0.9,1c0.3,0.5,1.3,0.1,1.6,0.6
	c0.5,0.6,0.4,1.4,0.4,2.2s0.9,1.2,0.9,1.9c0,0.4,0,0.7,0.4,0.6c0.4,0,0.6-0.4,0.9-0.5c0.9-0.4,1.9,0.3,2.8,0.8
	c0.2,0.1,0.5,0.2,0.7,0.1c0.2-0.1,0.2-0.3,0.3-0.5c0.2-0.8,0.9-1.2,1.7-1.2c0.7,0,1.3,0.4,1.9,0.6c1,0.4,2.2,0.3,3.2-0.3
	c0.9-0.6,1.8-1.8,1.4-2.8c-0.4-1.2-2-1.6-3.2-1.5c-0.7,0.1-1.4,0.4-2.2,0.4c-0.9,0-1.7-0.7-2.1-1.5c-0.7-1.5-0.1-3.4,1.1-4.5
	c1.2-1.1,2.9-2.5,4.5-2c0.7,0.2,0.7,1.4,0.4,2.1c-0.3,0.6-0.9,1.4-0.4,1.9c0.1,0.1,0.3,0.2,0.5,0.3c1.4,0.5,2.8,1.1,4.3,1.6
	c1.1,0.4,2.4,0.8,3.2,0c0.6-0.5,1.1-1.4,1.8-1.1c0.5,0.2,0.5,1,1,1.4c1,0.9,2.8-1.3,3.7-0.4c1.5,1.7,2.3,4,3.5,5.9
	c0.7,1.2,1.9,2.4,1.7,3.7c-0.8,4.2-3.5,8.5-3.1,12.8c0.1,1.3,1.6,2.2,1.5,3.6c0,0.6-0.2,1.2,0,1.8c0.1,0.5,0.5,0.9,0.7,1.4
	c0.4,1.1,0.1,2.3-0.2,3.4c-1.5,6.5,0.5,13.3-0.4,19.9c-0.5,3.9-2.1,7.7-1.6,11.6c0.1,0.6,0.2,1.3,0.1,1.9c-0.1,0.5-0.4,1-0.5,1.5
	c-0.2,0.9,0.3,1.7,0.6,2.5c1.1,3,0.6,6.6-1.3,9.1c-1.2,1.6-2.8,2.8-4,4.3c-1.2,1.5-2.1,3.6-1.4,5.4c0.2,0.5,0.5,0.9,0.6,1.4
	c0.6,2.2-2.1,4.2-1.8,6.4c0.4,3,2.3,4.8,4.4,6.9c0.8,0.8-0.1,2.2-0.5,3.2c-0.6,1.8-1.1,3.5-1.7,5.3c-0.2,0.6-0.4,1.2-0.8,1.7
	c-0.2,0.2-0.4,0.4-0.3,0.6c0,0.1,0.1,0.2,0.2,0.3c1.1,1.2,1,3.3,2.4,4.2c0.2,0.1,0.4-0.1,0.6-0.1"/>
<path fill="none" stroke="#E1E1E1" stroke-miterlimit="10" d="M266.5,215.2c0.4-0.1,0.9-0.1,1.3-0.3c0.8-0.4,1-1.4,1.2-2.3
	c0.6-2.6,1.8-5,2.6-7.5c0.8-2.5,1-5.4-0.3-7.7c-0.2-0.3-0.4-0.5-0.4-0.9c-0.1-0.6,0.3-1.1,0.5-1.7c0.5-1.3-0.2-3.1-1.5-3.1
	c-0.7,0-1.3,0.5-1.7,1C262.6,198,257,204,256,211.5c-0.3,2-0.2,4.1,1,5.8c1.1,1.7,3.4,2.6,5.2,1.7
	C263.9,218.1,264.6,215.7,266.5,215.2z"/>
<path fill="none" stroke="#E1E1E1" stroke-miterlimit="10" d="M306.6,150c1.5-1.4,4.4-0.4,5.6-2.1c0.6-0.8,0.4-1.9,0.5-2.9
	c0-1,0.5-2.2,1.5-2.3c0.5-0.1,1,0.1,1.4,0.1c1.6,0.1,1.4-1.9,1.8-3.4c0.6-2.2,4.5-2,5.3-4.1c0.5-1.3,0.6-3,1.8-3.5
	c0.5-0.2,1-0.1,1.4-0.3c1.4-0.3,2-2,1.8-3.4c-0.2-1.4-1.1-2.6-1.9-3.7c-0.8-1.1-1.9-2.3-3.3-2.1c-0.8,0.1-1.4,0.7-2.2,0.9
	c-1.6,0.5-2.3-1.3-3.3-2.5c-1.7-2.1-5.4,2.4-4.5,5.1c0.1,0.4,0.4,0.9,0.4,1.3c0,0.8-0.6,1.4-1,2c-1.3,1.8,0.1,4.6-1.3,6.3
	c-2.2,2.7-6.4,2.3-9.1,4.6c-0.5,0.4-1,0.8-1.3,1.3c-1,1.3-1.2,2.9-1.4,4.5c-0.3,2.1-0.5,4.4,0.5,6.2s3.8,2.8,5.3,1.3
	C305.6,152.4,305.6,150.8,306.6,150z"/>
<path fill="none" stroke="#E1E1E1" stroke-miterlimit="10" d="M332.7,86.8c-0.4-0.4-0.5-1-0.9-1.5c-0.5-0.5-1.4-0.6-2.1-0.4
	s-1.2,0.8-1.7,1.4c-0.5,0.7-0.8,1.5-1.1,2.2c-0.5,1.1-0.9,2.6-0.1,3.4c0.9,0.9,2.3,0.4,3.5,0.1c1.7-0.4,3.7,0.9,5.2,0
	c1.5-0.9-0.2-3.7-1.7-4.6C333.5,87.3,333,87.1,332.7,86.8z"/>
<path fill="none" stroke="#E1E1E1" stroke-miterlimit="10" d="M210.4,135.1c-0.7,5.3-0.1,10.6,0.4,15.9c0.8,7.9,1.6,15.7,2.4,23.6
	c0.1,1.3,0.3,2.7,1.1,3.7c0.7,0.9,1.7,1.4,2.7,1.9c4.4,2.3,8.9,4.5,13.3,6.8c0.9,0.5,2,1,3,0.7c0.8-0.2,1.5-0.9,2-1.6
	c2.7-3.6,4.3-8,4.7-12.5c0.2-2.6,0-5.2,0.3-7.7c1-7.4,6.2-13.5,9-20.4c1.9-4.8,2.6-10,4.5-14.9c1.8-4.8,5.2-9.5,10.2-11
	c1.6-0.5,3.3-0.6,4.8-1.3c1.5-0.7,2.7-2.5,2.2-4c-0.4-1-1.3-1.7-1.4-2.7c-0.1-1.3,1.3-2.2,2.6-2.3c1.3-0.1,2.5,0.4,3.8,0.4
	c3.8,0.2,6.9-3,9.4-5.9c4.4-5.1,8.7-10.2,13.1-15.3c5.7-6.6,11.4-13.3,16.1-20.7c4.8-7.6,8.5-16,11.2-24.6c2.9-9.3,5-19.3,11.5-26.6
	c1.9-2.1,4.2-4.1,5.4-6.7c1.2-2.6-0.6-5-2.1-7.5c-0.8-1.4,2.5-1.9,3.4-3.2c1.1-1.6-0.7-3.9-2.6-4c-1.9-0.1-3.6,1.1-5,2.4
	s-2.8,2.8-4.6,3.4c-1.5,0.5-3.2,0.3-4.8,0.1c-15.9-1.4-31.3,5.3-46.1,11.4c-13.3,5.5-26.9,10.5-40.9,13.9c-2.4,0.6-4.9,1.1-7.3,0.5
	c-2.9-0.7-5.5-3.1-8.4-2.4c-1.5,0.4-2.8,1.5-4.3,1.7c-1.4,0.2-2.7-0.5-3.9-1c-14.3-5.6-30.8-0.6-45.8,2.3
	c-6.3,1.2-12.6,3.3-14.7,9.3c-1.2,3.5,4.3,6.4,8,6.4c1.2,0,2.5-0.3,3-1.3c0.5-0.8,0.3-1.8,0.5-2.8c0.6-4,6.5-5.1,9.7-2.7
	c3.3,2.4,4.5,6.6,5.5,10.5c0.9,3.5,3.6,7.1,2.7,10.6c-0.7,2.7-5.4,0.4-8.2,0.8c-2.6,0.4-4.5,2.5-5.9,4.7c-6.2,9.4-7.8,21.8-4.2,32.5
	c0.4,1.2,1,2.5,2,3.2c3.3,2.2,7.1-2.5,11-2.5c3.1,0,5.4,2.8,6.8,5.6c1.4,2.8,2.5,6,5,7.7c2.5,1.7,5.9,1.6,8.9,1.2
	c3-0.4,6.2-1,9.1,0.1c2.9,1.1,5.1,4.6,3.6,7.3c-1,1.8-3.5,3-3.4,5c0,0.9,0.5,1.6,0.8,2.4C211.5,128.6,210.8,131.9,210.4,135.1z"/>
<path fill="none" stroke="#E1E1E1" stroke-miterlimit="10" d="M220.2,146.7c-0.2-2.2-1-3.8-1.2-6c-0.3-4-0.7-8.1,0.1-12
	c0.3-1.7,0.9-3.4,1.1-5.1c0.1-1.2,0.1-2.4,0.3-3.6c0.5-2.4,3.5-3.2,4.8-5.3c1.9-3.1-1.4-7.4-3.8-10.1c-1-1.2-2.4-2.1-3.1-3.5
	c-0.8-1.4-0.7-3.4,0.6-4.2c0.7-0.4,1.6-0.2,2.5-0.2c6.1-0.3,8.8,4.5,12.2,6.9c1.3,0.9,4.9,2.4,5.2,3.9c0.2,1.1,1.3,3.1,1.6,3.9
	c0.5,1,4,3.1,0.8,3.5c-3.3,0.4,0.2,5.5-0.4,8.8c-0.4,2.2-2.1,3.9-2.5,6c-0.6,2.9,1.5,5.7,1.7,8.7c0.1,1.2,0,2.3-0.2,3.5
	c-0.5,3.5-0.9,7-1.4,10.5c-0.2,1.2-0.3,2.4-0.9,3.4c-0.8,1.4-2.2,2.3-2.8,3.8c-1.3,3.2,1.6,7.5-0.7,10c-0.7,0.8-1.8,1.1-2.7,1.6
	c-1.4,0.7-2.7,1.6-4.3,2c-1.5,0.4-3.4,0.1-4.2-1.3c-0.6-1.1-0.4-2.4-0.3-3.6c0.1-3.3-1.3-6.5-2.2-9.7s0.1-3.9,0-7.2
	C220.4,150.2,220.3,147.9,220.2,146.7z"/>
<path fill="none" stroke="#E1E1E1" stroke-miterlimit="10" d="M311.4,55.3c4.1-7.2,5.1-15.7,7.4-23.7c1.5-5.1,3.5-10,6.1-14.7
	c1.4-2.5,2.8-5.9,0.7-7.7c-1.4-1.3-3.7-0.9-5.6-0.5c-6.9,1.7-13.9,3.4-20.8,5.1c-7.5,1.8-15.5,3.9-20.6,9.7
	c-1.7,1.9-3.3,4.4-5.8,5.1c-2.4,0.7-4.9-0.6-7.4-1.1c-4.6-1-9.3,0.5-13.4,2.7s-7.9,4.9-12.2,6.8c-7.9,3.4-16.7,3.6-25.3,3.7
	c-0.9,0-1.8,0-2.6-0.4c-1.2-0.7-1.8-2.4-3.2-2.6c-0.7-0.1-1.3,0.2-2,0.2c-3.3,0.4-7.5,0.2-9.3-2.6c-0.7-1.2,0.5-2.8-0.7-3.4
	s-2.7-0.4-4-0.2c-2.7,0.5-5.5,0.9-8.2,1.4c-1.1,0.2-2.2,0.4-3.1,1.1c-0.9,0.7-1.5,2.2-0.7,2.9c3.7,3.1,10.4-0.8,14.1,2.3
	c2.5,2.1,0.3,6.4,0.4,9.6c0.1,2.8,0.2,5.5,0.6,8.3c0.8,5.6,6.6,8.3,8.8,13.5c1.2,2.8-2.2,5.9-1.6,8.9s2.8,5.8,5.8,6.5
	c3.5,0.7,6.9-1.5,10.3-2.7c3.2-1.1,6.7-1.3,10-0.6c1.7,0.4,3.4,1,4.6,2.3c1.1,1.3,0.1,3.1,0.5,4.8c0.4,1.9,3.7-0.7,5.4,0.1
	c2.3,1.1,0.9,5.1,1.4,7.6c0.4,2.4,0.9,5,2.2,7.1c1.3,2.1,3.5,3.9,6,3.9c2.5,0,4-2.4,4.4-4.8c0.4-2.4,4.1-2.5,6.5-2.1
	s4.9,1.1,7.2,0.3c1.1-0.4,2-1.1,2.9-1.8c5.7-5,8.8-12.5,14.9-16.9c3.4-2.4,7.5-3.8,10.1-7c2.1-2.6,2.9-6,5-8.6
	c1.3-1.6,3.1-2.8,4.7-4.2C307.4,61.1,309.7,58.4,311.4,55.3z"/>
<path fill="none" stroke="#E1E1E1" stroke-miterlimit="10" d="M300.6,52.9c1-1.6,1.9-3.4,3.4-4.4c1.1-0.8,2.6-1.2,3.3-2.3
	c0.6-0.9,0.5-2.1,0.9-3.2c0.3-0.7,0.8-1.3,1.3-1.9c3.8-4.8,4.2-11.5,4.4-17.6c0-0.8,0-1.7-0.4-2.4c-0.9-1.6-3.1-1.6-4.9-1.3
	c-6.4,1-12.7,2.8-18.9,4.7c-1.5,0.4-3,0.9-4.4,1.3c-1.1,0.3-2.2,0.6-3.1,1.3c-1.2,0.8-2.1,2.1-3,3.2c-4.5,5.9-12.6,15.8-18.4,11.1
	c-1.9-1.6-3.6-3-6-3c-6.3,0-12.7,1-18.7,2.9c-1.4,0.5-2.9,1-4.1,1.9c-2,1.5-3.2,3.9-4.2,6.2c-1.2,2.5-2.3,4.9-3.5,7.4
	c-1.2,2.5-2.4,5.1-3.3,7.8c-0.7,2-1.2,4.2-0.8,6.3s2,4.1,4.1,4.3c0.8,0.1,1.7,0,2.4,0.4c0.6,0.4,0.9,1,1.4,1.5
	c1.7,1.3,4.4-0.6,6.2,0.5c0.5,0.3,0.9,0.8,1.3,1.3c2.6,3.5,5.9,6.6,9.9,8.5c4,1.8,8.6,2.4,12.8,1.1c1.3-0.4,2.5-1,3.8-1.1
	c0.9-0.1,1.8-0.1,2.7-0.3c1.9-0.4,3.3-2,4.9-3.1c2.4-1.7,5.3-2.6,7.8-4.1s2.4-4.9,4.3-7.2c1.7-2.1,4.7-2.3,6.5-4.2
	C292.8,63.5,297.3,58.6,300.6,52.9z"/>
<path fill="none" stroke="#E1E1E1" stroke-miterlimit="10" d="M287.5,48c2.8-2.8,5.4-5.9,7.7-9.1c0.5-0.7,1.1-1.5,1.2-2.5
	c0.1-0.9-0.4-2-1.3-2.2c-1-0.2-1.9,0.6-2.6,1.3c-2.5,2.3-5.7,3.8-9,4.2c-2,0.3-4.3,0.2-5.9,1.4c-1,0.8-1.6,1.9-2.5,2.8
	c-3.6,4-10.2,3.2-15,5.8c-0.4,0.2-0.9,0.5-1.4,0.6c-0.7,0.2-1.4,0-2.1-0.1c-1.9-0.1-3.7,0.6-5.6,0.7c-1.9,0.1-4.1-0.6-4.6-2.5
	c-0.2-0.6-0.1-1.3-0.5-1.8c-0.4-0.5-1-0.6-1.6-0.7c-1.8-0.3-3.7-0.7-5.6-0.3c-1.8,0.4-3.6,1.8-3.8,3.6c-0.1,0.8,0.1,1.6,0.2,2.3
	c1.1,5.2,2.2,10.3,3.3,15.5c0.2,0.9,0.4,1.9,1,2.6c0.5,0.6,1.2,1,1.9,1.4c4.3,2.3,9,4.7,13.8,4c1.8-0.3,3.6-0.9,5.4-1
	c2.3-0.1,4.6,0.8,6.8,0c3.2-1.2,4.3-5.4,7.3-7c1-0.5,2.3-0.8,2.9-1.7c0.6-0.8,0.6-1.8,0.9-2.7c0.7-2.1,3-3.2,4.9-4.3
	c1.9-1.2,3.8-3.3,3-5.4c-0.2-0.6-0.7-1.2-0.8-1.8C285.6,50.2,286.6,49,287.5,48z"/>
<path fill="none" stroke="#E1E1E1" stroke-miterlimit="10" d="M211.3,71.9c0.6,0.7,1.6,0.2,2.4-0.2c1.8-1.1,4.9-3,3.7-4.8
	c-0.3-0.5-1.2-0.7-1.8-0.6c-0.4,0.1-0.8,0.3-1.1,0.5c-1.2,0.8-2.3,2-3,3.3C211.1,70.7,210.8,71.4,211.3,71.9z"/>
<path fill="none" stroke="#E1E1E1" stroke-miterlimit="10" d="M368.3,12.4c-0.9-0.5-2-0.5-3-0.4c-1.8,0.1-3.8-0.5-5.4,0.4
	c-0.8,0.5-1.1,1.7-1.6,2.5c-0.1,0.2-0.3,0.4-0.3,0.6c0,0.4,0.3,0.7,0.6,1c1,0.7,2.6,1,2.6,2.2c0,0.5-0.3,1-0.2,1.5
	c0.1,0.7,1,1,1.7,0.9c0.7-0.1,1.4-0.5,2.1-0.7c0.7-0.2,1.6-0.1,1.9,0.6c0.1,0.2,0.1,0.4,0.3,0.5c0.2,0.1,0.5,0,0.7,0
	c0.2,0,0.4,0.1,0.6,0.2"/>
<path fill="none" stroke="#E1E1E1" stroke-miterlimit="10" d="M368.1-6.8c-1.4,0.6-2.7,1.1-3.8,1.5c-2.9,0.9-6.3,2.6-6.1,5.6
	c0.1,0.9,0.5,1.8,0.9,2.6c1,2,2.4,4.2,4.6,4.8c1.7,0.4,3.4-0.1,4.9-1"/>
<path fill="none" stroke="#E1E1E1" stroke-miterlimit="10" d="M354.6,88c-1.7-0.4-3.6,0.9-4.1,2.6c-0.5,1.5,0,3.4,1.3,4.1
	c0.6,0.3,1.3,0.4,1.9,0.3c1.7-0.2,3.2-1.5,3.4-3.2C357.4,90.2,356.3,88.4,354.6,88z"/>
<path fill="none" stroke="#E1E1E1" stroke-miterlimit="10" d="M368.8,46.1c-2.3,2.8-4.6,5.6-7.2,8c-2.1,2.1-4.5,3.9-6.3,6.3
	c-1.9,2.3-5.2,6.3-2.9,8.2c2.6,2.2,6.8,0.6,9.8,2.3c0.3,0.2,0.7,0.4,1,0.5c0.8,0.1,1.5-0.4,2.2-0.8c0.9-0.4,1.7-0.5,2.7-0.4"/>
<path fill="none" stroke="#E1E1E1" stroke-miterlimit="10" d="M369.8,154.6c-0.7,0.3-1.4,0.6-2.1,0.7c-0.9,0.2-1.8,0.1-2.7,0.2
	c-2.2,0.2-4.2,1.4-6.3,2.1c-3.6,1.3-7.4,1.6-11.1,2.4c-6.5,1.5-12.7,5-17,10.2c-4,4.9-8.7,8.3-13.8,12.3c-2,1.6-0.5,5.5-2.2,7.5
	c-3.2,3.5-2.9,9.6-7.2,11.7c-0.8,0.4-1.7,0.6-2.6,0.7c-11.7,2.5-19,14-24.9,24.4c-1.2,2.2-2.3,5.5-0.1,6.8c0.8,0.5,1.8,0.5,2.8,0.4
	c8.6-0.8,15.4-7.2,22.2-12.5c0.7-0.5,1.4-1.1,2.2-1.3c0.9-0.2,1.8-0.1,2.7,0.1c8.4,1.7,15.8,7,21.5,13.4c5.7,6.4,12.8,13,14.2,21.5
	c0.6,3.9-1.4,8.1-1.3,12c0,1.5,0.5,3.4,1.9,3.7c0.4,0.1,0.8,0.1,1,0.3c0.4,0.4,0.2,1,0,1.5c-0.5,1.8,0.1,3.6,0.6,5.4
	c1.6,6.4,0.6,13.3-2.6,19c-0.3,0.6-0.7,1.1-0.8,1.8c-0.2,1.1,0.4,2.3,0,3.3c-0.4,1-1.5,1.7-1.7,2.7c-0.1,1.2,1.1,2.3,0.9,3.5
	c-0.1,0.4-0.4,0.8-0.6,1.1c-0.3,0.6-0.4,1.3-0.5,2c-0.4,3-0.9,6-1.3,8.9c-0.3,1.9-0.6,3.9-1.2,5.8c-0.9,2.5-2.4,4.7-3.2,7.2
	c-0.2,0.8-0.4,1.6,0.1,2.3c0.2,0.3,0.5,0.5,0.7,0.7c1.8,1.5,2.5,4.1,1.9,6.4c-0.3,1.1,0.6,2,0.8,3.1c0.3,1.9-3.2,2.7-2.9,4.5
	c0.1,0.5,0.4,1,0.3,1.5c-0.1,0.4-0.4,0.6-0.7,0.9c-0.9,0.9-1.1,2.2-1.2,3.4c-0.3,2.2-0.5,4.3-0.8,6.5c-0.1,1-0.3,2.1,0,3.2
	s0.9,2,1.9,2.4"/>
<path fill="none" stroke="#E1E1E1" stroke-miterlimit="10" d="M368.8,170.3c-1.4,0.6-2.9,0.8-4.4,1.2c-6.1,1.4-11.8,3.8-17.5,6.3
	c-1.6,0.7-3.2,1.4-4.6,2.2c-4.4,2.5-8,6.5-10,11.2c-0.3,0.8-0.6,1.6-1.2,2.2c-0.3,0.4-0.7,0.7-1.1,1c-2.6,2.4-3.3,6.4-2.6,9.8
	c0.7,3.5,2.6,6.6,4.4,9.6c1.7,2.8,3.3,5.5,5.5,7.9c1.3,1.5,2.9,2.9,3.8,4.7c0.9,1.7,1.1,3.7,2.1,5.3c1.4,2.3,4.9,3,5.9,5.5
	c0.5,1.1,1.4,1.2,2.2,2.1c0.3,0.4,0.4,1,0.5,1.5c0.5,2.5,1.1,5.1,1.6,7.6c0.4,1.8,0.8,3.6,0.4,5.4c-0.3,1.5-1.2,3-0.8,4.6
	c0.5,1.9,2.8,2.9,3.3,4.8c0.5,2-0.9,4.4,0.4,5.9c0.4,0.5,1.1,0.8,1.5,1.4c0.5,0.7,0.5,1.5,0.6,2.4c0.1,3.1,0.1,6.2,0.2,9.3
	c0,1.3,0,2.7-0.7,3.8c-0.4,0.6-1,1-1.3,1.6c-0.3,0.7-0.3,1.5-0.3,2.3c0.2,4.9,0.2,9.8,0,14.6c0,0.6-0.1,1.3-0.3,1.8
	c-0.3,0.6-0.8,1-1.2,1.5c-1.4,1.9-0.6,4.5-0.3,6.8c0.5,3.6-0.4,7.2-1,10.8c-1.2,6.4-5.1,14-1.6,19.5c0.4,0.7,0.9,1.9,0.5,2.7
	c-0.3,0.7-1,1.2-1.5,1.8c-0.5,0.6-1,1.4-0.8,2.1c0.2,0.7,0.8,1.2,0.8,1.9c0.2,1.4-1.8,2-2.6,3.1c-0.7,1-0.6,2.3-0.5,3.4
	c0.2,2.4,0.2,4.9,0,7.3c-0.1,0.9-0.2,1.8-1,2.3"/>
<path fill="none" stroke="#E1E1E1" stroke-miterlimit="10" d="M368.6,180.4c-3.4,0.7-6.9,1.3-10.3,2.2c-7.9,2.1-16.5,7.8-16.1,16
	c0.1,2.7,1.2,5.2,2.3,7.7c2.6,5.8,2.6,13.7,7.7,17.4c2,1.4,5.5,1.4,5.8,3.9c0.1,0.8-0.2,1.6-0.2,2.4c0,1.4,1,2.6,1.3,4
	c0.5,2.4-1.1,5.1,0,7.3c0.4,0.9,1.2,1.5,1.7,2.3c1.3,2.1,0.9,4.8,1.5,7.2c0.4,2,1.6,3.9,2.4,5.8c2.3,4.9,3,10.5,2.9,16
	c-0.1,8.8-2.2,17.5-1.9,26.3c0,0.4,0,0.8,0.2,1.1c0.2,0.4,0.6,0.5,1,0.8c0.5,0.3,0.8,0.8,1.1,1.4"/>
<path fill="none" stroke="#E1E1E1" stroke-miterlimit="10" d="M368,192.9c-3.5,0.6-6.9,1.3-9.9,2.5c-1.4,0.6-2.9,1.2-3.9,2.3
	c-3.6,3.9,0.7,10.4,5.6,12.6c1.2,0.5,2.4,1,3.2,2c0.7,1,0.9,2.3,0.9,3.5c0.5,6.2-3.6,14.8,1.4,18.5c0.6,0.4,1.3,0,2-0.5"/>
<path fill="none" stroke="#E1E1E1" stroke-miterlimit="10" d="M312.4,260.2c-0.8-0.8-1.8-1.7-3-1.6c-0.8,0.1-1.5,0.7-1.8,1.4
	c-0.3,0.7-0.5,1.9,0.1,2.3c1.1,0.8,2.7,0.1,4-0.3c0.5-0.1,1.1-0.4,1.1-1C312.9,260.8,312.6,260.5,312.4,260.2z"/>
<path fill="none" stroke="#E1E1E1" stroke-miterlimit="10" d="M313.4,369.1c-0.2-1.1,0.1-2.3,0.9-3.1c0.3-0.4,0.8-0.7,1-1.1
	c0.5-0.9,0.2-2.1,0.1-3.2c-0.1-1.1,0-2.2-0.4-3.2c-0.4-1-1.6-0.8-2.6-1.3c-0.8-0.5,0-1.8-0.3-2.7c-0.3-0.9-1.5-1-1.8-1.8
	c-1.3-2.9-0.2-6.8,0.1-10c0.5-4.6-1.5-9.3-0.9-13.9c0.5-3.8,2.7-7.3,3.3-11.1c0.4-2.5,0.1-5,0.3-7.4c0.4-3.4,1.9-6.5,2.7-9.8
	s0.7-7.1-1.7-9.6c-0.6-0.6-1.4-1.2-1.5-2c-0.1-0.5,0.1-1,0.1-1.5c-0.1-1.8-2.4-2.4-4.1-2.9c-2.5-0.9-4.4-2.7-6.3-4.5
	c-1.7-1.6-3.4-3.3-4.1-5.5c-0.1-0.4-0.2-0.8-0.5-1.1c-0.7-0.6-1.9,0.2-2.1,1.1s0,1.9-0.2,2.8s-1.4,0.6-2.1,1.3
	c-1.2,1.3,2,3.7,0.5,4.7c-1.2,0.7-2.6-0.2-3.9-0.5c-1.8-0.4-3.6,0.3-5.4,0.8c-3.6,1.1-7.5,1.4-11.2,0.9c-0.8-0.1-1.6-0.2-2.3,0.1
	c-0.8,0.5-1.1,1.5-1.6,2.4c-0.5,0.8-1.9,1.6-2.4,0.8c-0.8-1.6-1.9-3.1-3.5-3.8c-1.7-0.7-3.5-0.9-5.3-1c-0.5,0-1-0.1-1.5,0.1
	c-0.7,0.3-1.1,1.1-1.5,1.8c-0.8,1.6-2.4,2.9-2.3,4.7c0.1,2,1.8,3.6,2.1,5.6c0.4,2.6-0.2,5.8-2.7,6.5c-1.7,0.5-3.7-0.4-5.1,0.7
	c-1,0.8-1.2,2.3-2,3.3c-0.5,0.6-1.2,0.9-1.9,1.3c-3.3,2.2-3.7,7.6-7.3,9.3c-0.6,0.3-1.2,0.4-1.6,0.9c-1.2,1.4,0.6,3.4,0.4,5.1
	c-0.1,1.3-1.2,2.2-2.3,3c-2.1,1.6-6.2,2.2-6.3,4.8c-0.1,3.8,6.5,4.1,10.2,4.5c0.9,0.1,1.8,0.2,2.5,0.6c0.9,0.6,1.5,1.6,1.9,2.6
	c1.1,2.5,2.2,4.9,3.4,7.4c0.6,1.3,1.4,1.9,2.4,2.9c0.4,0.4,0.8,0.8,0.9,1.3c0.1,0.4,0.1,0.8,0.1,1.2c0,1.3-0.2,2.6-0.8,3.6
	c-1.2,2-3.9,3.2-4,5.5c0,0.5,0.1,1.1,0.1,1.6c0.1,2.9-3.3,5.3-2.7,8.2"/>
<path fill="none" stroke="#E1E1E1" stroke-miterlimit="10" d="M304.4,367.8c1-2.2,0.4-4.8-0.1-7.2c-0.2-0.9-0.4-1.8-0.7-2.7
	c-0.1-0.5-0.3-1.1-0.3-1.6c0-0.7,0.2-1.3,0.2-2c0-0.9-0.3-1.9-0.5-2.8c-0.4-1.7-0.5-3.5-0.2-5.3c0.1-0.8,0.2-2.4-0.2-3.1
	c-1.1-1.7-0.2-4,0.1-6c0.6-3.5,0.8-10.4-2.7-10c-5.2,0.7-6.4,9-11.6,9.9c-0.8,0.1-1.7,0.2-2.5-0.2c-0.6-0.3-1.1-0.9-1.7-1.3
	c-2-1.8-5.6-4.5-7.6-2.7c-2.6,2.5,4.6,7.3,2.9,10.5c-0.1,0.2,0.1,0.1,0.4,0.1c3.1,1,4.8,4.9,3.5,7.8c-0.4,0.9-1,1.9-0.4,2.7
	c0.2,0.3,0.6,0.4,0.8,0.7c0.8,0.7,0.9,1.9,0.8,2.9c-0.2,1.3-0.6,2.6-1.4,3.7c-1.3,1.9-3.3,3.2-5.3,4.5c-1.5,1-3.1,2-4.6,2.9"/>
<path fill="none" stroke="#E1E1E1" stroke-miterlimit="10" d="M275.8,315.8c-0.4,0.7-0.7,1.4-0.8,2.2c0,0.8,0.3,1.6,1,2
	c1.1,0.6,2.4-0.1,3.6-0.6c0.8-0.3,1.8-0.7,1.9-1.6c0.1-0.5-0.2-1.1-0.6-1.5c-0.8-0.8-1.8-1.4-2.9-1.6c-0.5-0.1-1-0.1-1.5,0.2
	C276.2,315.2,276,315.5,275.8,315.8z"/>
<path fill="none" stroke="#E1E1E1" stroke-miterlimit="10" d="M271.1,302.2c0.7,0.2,1.4,0.4,2.1,0.4c1.5,0,4.3-1.4,3.4-2.6
	c-0.2-0.2-0.6,0-0.8-0.1c-0.4-0.1-0.7-0.4-1-0.5c-0.2-0.1-0.4-0.2-0.6-0.2c-1.6-0.6-3.3-1.1-5.1-1.4c-0.4-0.1-0.8-0.1-1.2-0.3
	c-0.2-0.1-0.4-0.2-0.5-0.3c-0.9-0.6-2-0.7-3.1-0.8c-0.4,0-0.8-0.1-1.2,0c-0.7,0.2-1.1,0.8-1.5,1.4c-0.3,0.5-0.7,1.1-0.4,1.6
	c0.2,0.4,0.6,0.6,1,0.7c0.6,0.2,1.3-0.2,1.9,0.1c0.4,0.2,0.4,0.7,0.7,1.1c0.3,0.4,0.5,0.8,1,1c0.4,0.1,0.8,0.1,1.2,0
	C268.3,301.9,269.8,301.9,271.1,302.2z"/>
<path fill="none" stroke="#E1E1E1" stroke-miterlimit="10" d="M269.6,291.9c0.3,0.6-0.1,1.3-0.3,1.9c-0.2,0.6-0.4,1.1-0.4,1.7
	c0,0.1,0,0.2,0,0.2c0,0.1,0.2,0.2,0.3,0.2c0.9,0.4,1.8,0.8,2.8,0.6c0.6-0.2,1.4-0.9,1.9-0.4c0.4,0.3,1,0.8,1.3,0.4
	c0.6-1.1-0.6-2.4-1.5-3.2c-0.1-0.1-0.3-0.3-0.3-0.5c0-0.1,0.1-0.2,0.2-0.3c0.9-1.2,0.4-3.1-1-3.7c-1.3-0.6-3.1,0.3-3.4,1.8
	c0,0.2,0,0.4,0,0.5C269.3,291.4,269.5,291.6,269.6,291.9z"/>
<path fill="none" stroke="#E1E1E1" stroke-miterlimit="10" d="M304.5,291.9c-1.1-0.2-2.3-0.2-3,0.6c-0.3,0.4-0.4,1-0.3,1.5
	c0,0.2,0.1,0.4,0.1,0.5c0.4,1,1.9,1.6,2.9,1.1c0.7-0.3,1.1-1,1.4-1.7s0.1-1.6-0.6-1.9C304.9,292,304.7,292,304.5,291.9z"/>
<path fill="none" stroke="#E1E1E1" stroke-miterlimit="10" d="M307,286.2c-0.5,0.1-0.8,0.5-0.9,1c-0.1,0.5,0,1,0.2,1.4
	c0.4,0.8,0.9,1.8,1.8,1.8c0.6,0,0.8-0.9,0.8-1.5c0.1-1-0.3-2.1-1.2-2.5C307.5,286.2,307.2,286.2,307,286.2z"/>
<path fill="none" stroke="#E1E1E1" stroke-miterlimit="10" d="M262.6,294.5c0.3-0.1,0.2-0.7,0-0.9c-0.6-0.7-1.6-1-2.5-1
	c-0.9,0-2.1,1.8-1.2,1.9c0.2,0,0.3,0.1,0.4,0.2c0.6,0.9,1.9,1,2.7,0.3c0.1-0.1,0.1-0.1,0.2-0.2C262.3,294.6,262.4,294.6,262.6,294.5
	z"/>
<path fill="none" stroke="#E1E1E1" stroke-miterlimit="10" d="M131.1,239.2c0.7-0.1,1.5-0.1,2.1-0.5c0.7-0.4,1-1.3,1.6-2
	c1.1-1.2,2.9-1.3,4.4-1.2c1.6,0.1,3.3,0.4,4.7-0.2c0.6-0.3,1.2-0.7,1.9-0.7c0.6,0,1.2,0.4,1.7,0.8c1.2,1,2.4,2,3.6,2.9
	c0.2,0.2,0.4,0.4,0.5,0.6c0.2,0.6-0.4,1.3-1,1.5c-1.1,0.4-2.3,0.4-3.3,0.7c-3.2,1.1-4.4,5.5-7.6,6.3c-0.4,0.1-0.9,0.1-1.3,0.4
	c-1.2,0.8-0.8,2.8-2,3.8c-0.3,0.3-0.7,0.4-1.1,0.6c-2.4,0.9-3,3.8-4.9,5.5c-1.4,1.2-4.5,2.3-5.5,0.8c-1.4-2,1.3-4.7,1.2-7.1
	c-0.1-2.4-0.3-4.9,0.3-7.2C127,241.9,128.7,239.7,131.1,239.2z"/>
<path fill="none" stroke="#E1E1E1" stroke-miterlimit="10" d="M163.3,247.7c-0.3,0.2-0.5,0.5-0.6,0.9c-0.3,0.9,0.1,1.9,0.5,2.8
	c0.4,0.9,1,2,2,2.3c0.9,0.3,1.8-0.2,2.3-1s0.5-1.7,0.3-2.6c-0.4-1.4-1.8-2.6-3.3-2.6C164,247.4,163.6,247.5,163.3,247.7z"/>
<path fill="none" stroke="#E1E1E1" stroke-miterlimit="10" d="M112.8,369.3c0.2-2.7,1-5.4,2.4-7.7c0.6-1,1.2-1.9,1.9-2.7
	c1.7-2.1,3.7-4,5.7-5.8c0.6-0.6,1.2-1.2,1.9-1.7c2.6-2.4,5.1-4.7,7.7-7.1c0.1-0.1,0.3-0.3,0.5-0.2c0.2,0.1-0.5,0.5-0.5,0.3
	c0.8-4.4,6.6-6,9.8-9c0.3-0.3,0.7-0.6,0.9-1c0.2-0.3,0.2-0.6,0.3-0.9c0.6-2.2,1.2-4.3,1.8-6.5c0.1-0.3,0.1-0.5,0.2-0.8
	c0.7-2.7,3.9-5.9,2.2-8.2c-0.7-0.9-2.7,0.2-3.2-0.8c-1.1-2.1,1.8-4.5,3.9-5.7c1.1-0.6,3.2-1.9,2.2-2.6c-0.9-0.6-2.6-0.1-2.9-1.1
	c-1.1-4.5,6.3-6.7,8.1-10.9c1.2-2.8-4.2-4.9-3.9-7.9c0.2-1.7,1.6-2.9,2.7-4.1c0.3-0.3,0.6-0.6,0.6-1.1c0-0.5-0.3-0.9-0.6-1.2
	c-1-1.1-1.5-3-2.9-3.3c-3.3-0.6-6.9,0-9.9,1.4c-2.1,1-3.4,3.3-5.3,4.7c-1.1,0.8-2.4,1.4-3.6,2.1c-2.7,1.6-4.9,4.1-6,7
	c-0.7,1.8-1.1,3.8-2.3,5.3c-1,1.3-2.5,2-3.9,2.8c-4.5,2.3-9,4.6-13.9,5.9c-2.9,0.8-6,1.1-8.8,2.4c-2.1,0.9-4.2,4.2-6.1,3
	c-1-0.7,0.6-3.1-0.5-3.7c-2.7-1.6-5.6,3-7.5,5.5c-0.8,1-3.2,1.3-4.1,2c-0.4,0.3-0.8,0.6-1.2,0.6c-0.6,0.1-1.3-0.1-1.8-0.4
	c-1.3-0.6-2.5-1.5-2.9-2.9c-0.5-1.8,0.7-3.7,2.1-5c1.4-1.4,2.4-2.9,3.4-4.5c0.4-0.7,2-1.5,2.6-2.1c3.1-3,7.4-5.2,8.9-9.3
	c0.7-1.9,0.5-4.1,1.2-6c0.7-1.9,2.3-3.4,3.7-4.9c3.7-3.9,6.8-8.2,9.3-12.9c0.6-1.2,1.2-2.4,1.6-3.7c0.5-1.6,0.6-3.3,0.7-4.9
	c0.5-6,1-12,0.8-18c-0.1-1.5-0.1-3.2,0.7-4.5c0.3-0.4,0.7-0.8,0.8-1.3c0.2-0.6-0.1-1.2-0.1-1.8c-0.2-2.4,2.4-4.2,4.7-4.8
	c4.6-1.2,10-0.1,13.9-2.9c1.2-0.9,2.2-2.1,3.3-3.3c2.5-2.6,6.2-4.4,9.2-6.3c3.3-2.1,7-3.5,10.8-4.1c1.9-0.3,4-0.3,5.3,1.1
	c0.4,0.4,0.8,1,1.3,0.9c0.7-0.1,0.8-1,1.3-1.4c0.8-0.6,2,0.2,2.6,1c3.5,4.3,5.5,9.7,8.1,14.6c0.6,1.1,1.3,2.3,2.4,3s2.7,0.8,3.6-0.2
	c0.5-0.5,0.8-1.3,1.5-1.3c0.2,0,0.4,0.1,0.6,0.2c3.8,2,6,6.6,5.2,10.9c-0.2,1.2-0.7,2.4-1.1,3.5c-1.4,3.7-2.9,7.4-4.3,11
	c-1.3,3.4-2,7-2.7,10.6c-0.5,2.5-1,5.1-2.1,7.4c-0.9,1.8-2.1,3.5-2.6,5.5c-0.2,1-0.3,2-0.5,3c-0.2,0.9-0.6,1.7-0.9,2.6
	c-1,3-1.4,6.3-1,9.4c0.1,0.6,0.2,1.2,0,1.7c-0.2,0.5-0.5,0.8-0.8,1.2c-0.6,1-0.6,2.3-0.6,3.5c0,5.9-1.5,11.9-4.2,17.1
	c-0.5,1-1.1,2.1-1.4,3.2c-0.3,1.1-0.4,2.2-0.5,3.3c-0.6,6.4-2.9,12.7-6.5,18c-1.9,2.7-2.1,5.9-3.9,8.7c-3.7,6.2-7.5,12.4-11.2,18.6"
	/>
<path fill="none" stroke="#E1E1E1" stroke-miterlimit="10" d="M98,369.7c-0.7-1.7,1.2-3.9-0.1-5.2c-0.4-0.5-1-0.6-1.6-0.8
	c-1.4-0.5-2.7-1.3-3.5-2.5c-0.8-1.2-1-2.9-0.2-4.2c0.8-1.3,2.3-1.9,3.8-2.2c1.5-0.4,3-0.6,4.4-1.3c1.9-0.9,3.3-2.5,5.1-3.6
	c2.9-1.8,8.5-1.5,10-4.5c2.3-4.8,9-6.8,10.3-12c0.6-2.2-2.6-3.8-4.4-5.1c-2-1.4-5.6-1.3-6.5-3.6c-0.5-1.3,1.2-3.5,0-4.2
	c-4-2.3-9,3-12.4,6.1c-0.6,0.5-1.2,1.1-1.9,1.4c-1.8,0.7-4-0.5-5.9,0.3c-0.7,0.3-1.3,0.9-1.8,1.5c-1.4,1.6-2.5,3.5-4.1,5
	c-1.5,1.5-3.8,1.5-5.7,2.4c-3.5,1.7-6.4,5.1-10,6.6c-6.6,2.6-13.2,5.7-17.8,11c-1.6,1.9-3,4-4.9,5.6c-1.6,1.3-3.4,2.3-5.1,3.4
	c-2.7,1.8-5,4-7.3,6.2"/>
<path fill="none" stroke="#E1E1E1" stroke-miterlimit="10" d="M87.5,43c0.8-0.3,1.7-0.1,2.5,0.1c0.9,0.2,1.8,0.6,2.7,1
	c2.7,1.1,5.6,1.2,8.5,1.3c3.4,0.2,6.8,0.3,10.2,0.5c2.5,0.1,5,0.2,7.2-1c1.1-0.6,2.1-1.5,3.3-2c1.3-0.4,2.8-0.2,3.9,0.5
	c2.1,1.5,2.6,4.4,2.8,7c0.4,4.7,0.8,9.6-1,14c-0.2,0.5-0.5,1.1-0.6,1.7c-0.1,0.8,0.1,1.6,0.3,2.3c1.7,6.1,2.9,12.9,0.1,18.6
	c-0.3,0.6-0.7,1.3-0.7,2c0,0.7,0.3,1.3,0.6,1.9c1.4,3.5-0.1,7.5-1.8,10.8c-1.8,3.6-4.2,7.4-8,8.9c-1.7,0.7-3.7,1-5.1,2.1
	c-2.3,1.8-2.6,5.3-4.7,7.4c-1.7,1.7-4.4,2.3-5.9,4.2c-1.1,1.3-1.6,3.3-3.2,3.9c-0.7,0.2-1.5,0.2-2.2,0.2c-2.8,0.1-5.2,2-7.2,4.1
	c-2,2-3.1,1.8-5.6,3.1c-1,0.6-2.6-1.1-2.9-2.3c-0.2-0.8,0-1.7-0.1-2.6c-0.5-4.4-8.1-5-8.6-9.3c-0.1-0.5,0-1.1-0.1-1.6
	c-0.2-0.7-0.7-1.2-1-1.9c-0.6-1.6,0.5-3.3,1.8-4.5c1.2-1.2,2.7-2.4,2.9-4.1c0.2-1.5-0.7-3.1,0.1-4.4c0.3-0.4,0.7-0.8,0.6-1.2
	c0-0.4-0.4-0.6-0.7-0.9c-2.1-1.8-1.4-5.3,0.1-7.7c1.5-2.3,6.2-5.1,4.3-7.1c-1-1-2.5-1.1-3.1-2.3c-0.5-1.3-0.9-2.8-2-3.6
	c-1.3-1-3-0.8-4.6-1.1c-1.1-0.2-2.2-0.7-3.4-0.8c-1.1-0.1-2.2,0.2-3.2,0.4c-2.5,0.6-5,1.2-7.6,1.8c-1.6,0.4-3.3-0.4-4.7,0.3
	c-1.9,0.9-1.7,4-3.5,5.1c-1.1,0.7-2.5,0.9-3.6,1.7c-2.4,1.6-3,5.2-5.5,6.7c-2.6,1.5-6,0-8.6-1.5c-0.6-0.3-1.2-0.7-1.5-1.2
	c-1-1.4,0.7-3.9-0.7-5c-2.9-2.3-7.1-2.4-9.6-5.1c-1.2-1.3-2.3-2.7-3.7-3.7c-1.2-0.8-2.6-1.3-3.7-2.2c-1.1-0.9-1.9-2.5-1.3-3.8
	c0.7-1.5,2.7-1.7,4.4-1.7c7-0.3,15.5,0.4,20.2-4.7c1.9-2.1,4.8-2.6,7.5-3.5c1.1-0.4,2.1-1,3.1-1.7c2.9-1.9,5.9-3.9,9.3-4.9
	c1.7-0.5,3.6-0.8,5-1.9c0.7-0.5,1.3-1.2,2-1.8c1.5-1.1,3.5-1.4,5.4-2c3.2-1,9.1-2.5,8.1-5.7c-0.6-2.2-4.8,0.2-6.6-1.1
	c-2.2-1.6,2.3-4.8,5-4.9s5.7-0.3,8,1.1C83.3,42.2,85.5,43.7,87.5,43z"/>
<path fill="none" stroke="#E1E1E1" stroke-miterlimit="10" d="M75.7,62.5C79,62.4,86.4,72,88.3,74.6s3.4,5.7,5.8,8
	c0.3,0.3,0.6,0.6,0.8,1c0.4,1-0.6,2-1.2,3c-1.4,2.2-0.1,5.6,2.4,6.3c0.9,0.3,1.9,0.3,2.6,0.8c0.5,0.3,0.8,0.9,1.2,1.2
	c1.5,1.2,3.8-0.1,4.6-1.8c0.8-1.7,0.7-3.7,1.2-5.6c0.2-0.6,0.4-1.2,0.6-1.9c1.2-3.2,2.8-6.2,3.8-9.4c1.5-5,1.3-10.4,1.2-15.6
	c0-1.5-0.1-3.1-1-4.3c-1.1-1.5-3.2-2-5.1-2c-1.9,0-3.9,0.2-5.7-0.4c-0.9-0.3-1.7-0.8-2.5-1.2c-3.9-1.6-7.7,2.1-12,2.5
	c-0.9,0.1-2-1-2.9-0.9c-1.4,0.1-2.4,1.2-3.7,1.7c-1.3,0.5-2.7,0.5-4.1,0.6c-1.4,0.1-2.8,0.5-3.7,1.5c-0.3,0.3-0.5,0.6-0.7,0.9
	c-0.4,0.4-0.9,0.5-1.4,0.8c-2,0.9-3.8,2.3-5.1,4c-0.2,0.2-0.4,0.5-0.3,0.8c0,0.2,0.2,0.4,0.3,0.6c0.6,0.7,1.5,1.2,2.4,1.2
	c0.9,0,1.8-0.9,1.6-1.8c0-0.2-0.1-0.5,0-0.7c0.1-0.1,0.2-0.1,0.2-0.1C70.2,63.2,73.2,62.6,75.7,62.5z"/>
<path fill="none" stroke="#E1E1E1" stroke-miterlimit="10" d="M175.3,368.4c-1.2-3.2,0.8-6.6,2.6-9.4c3.1-4.6,6.3-9.4,11.2-12.2
	c2.6-1.5,5.5-2.2,8.3-2.9c2.3-0.6,4.6-1.1,6.9-0.9c5.7,0.3,10.4,4.2,14.7,8c2.6,2.2,5.4,5.2,4.6,8.5c-0.4,2-2.1,3.4-3.7,4.6
	c-0.4,0.3-0.8,0.6-0.8,1.1c0,1.3,2.5,1.3,2.5,2.6"/>
<path fill="none" stroke="#E1E1E1" stroke-miterlimit="10" d="M-11.5,333c0.3-1.7-0.4-4,1-5c0.9-0.7,3.1,0.2,3.2-1
	c0.1-1.3-1.1-2.5-0.5-3.6c0.6-1.2,2.3-0.8,3.3-1.6c0.7-0.5-0.5-1.8-0.3-2.7c0.5-2.5,4.2-2.7,6.7-3.2s5-0.9,7.2-2.1
	c2.2-1.2,3.9-3.7,3.5-6.2c-0.2-1.2-0.9-2.2-1-3.4c-0.1-1.3,0.4-2.6,0.1-3.8c-0.3-1-1.1-1.7-1.7-2.6c-1.5-2.2,1.8-5.6,0-7.6
	c-1.2-1.3-3.8-0.3-4-2.1c-0.1-0.4,0-0.9-0.2-1.2c-0.4-0.8-1.7-0.8-2.4-0.2c-0.7,0.6-0.9,1.6-1,2.5c-0.2,1.7,0,3.4-0.3,5
	s-1.2,4.4-2.8,4c-0.9-0.3-1.8-2.2-2.4-1.5c-0.9,1-1.2,2.5-2.5,2.5s-2.3-2.3-3.5-1.8c-3,1.2-1.9,6.3-4.1,8.7"/>
<path fill="none" stroke="#E1E1E1" stroke-miterlimit="10" d="M-13,359.9c2.2-2.3,4.5-4.3,6.7-6.5c2.8-2.9,5.3-6.1,7.7-9.3
	c4.6-6,9.5-11.8,14.4-17.6c0.5-0.6,1-1.2,1.3-1.9c0.3-0.5,0.4-1.1,0.7-1.6c1.3-2.6,4.9-3.1,7.1-5c0.9-0.7,1.5-1.6,2.2-2.5
	c6.1-8.5,12.4-18,11.8-28.4c-0.3-3.9-2.9-6.7-5.6-9.5c-1-1.1,0.3-2.9,0.8-4.4s0.3-3.4-1.1-3.9c-1.1-0.4-2.4,0.2-3.3-0.5
	c-0.4-0.3-0.5-0.8-0.8-1.3c-1-1.5-3.1-1.5-4.9-1.6c-3,0-6-0.6-8.6-2c-4.1-2.1-7.3-6.1-11.8-7.3c-1.2-0.3-2.7-0.5-3.5-1.5
	c-0.5-0.6-0.7-1.5-0.9-2.3c-1.2-3.8-4.9-6.3-7.2-9.6c-1-1.5-1.7-3.1-2.9-4.4c-0.8-1-1.9-1.8-3.1-2.3"/>
<path fill="none" stroke="#E1E1E1" stroke-miterlimit="10" d="M-4.4,368.9c2.1-4.6,5.4-8.5,8.7-12.4c5.6-6.7,11-13.4,16.5-20.1
	c3.4-4.1,6.7-8.2,10.1-12.3c4.3-5.3,8.7-10.6,12.7-16.1c3.3-4.4,6.4-9.1,8-14.4c1.2-4.1,1.4-8.7-0.5-12.6c-0.4-0.8-0.8-1.5-1.2-2.3
	c-0.5-1.1,0.4-5.6-0.3-6.7c-4.8-7.5-1.5-9.9-3.4-12.4c-1.1-1.5-6.4,3.4-24.6-6.9c-10.2-5.8-19.9-13.5-25.6-23.8
	c-1.5-2.7-2.7-5.6-4.8-7.7c-2.2-2.1-5.7-3.3-8.3-1.7"/>
<path fill="none" stroke="#E1E1E1" stroke-miterlimit="10" d="M9.9,369.8c2.4-4.5,5-9,8.5-12.8c1.6-1.7,3.4-3.3,4.9-5.2
	c1.7-2.1,2.9-4.6,4.4-6.9c2.1-3.3,4.7-6.3,7.3-9.3c5-5.8,10.1-11.6,15.1-17.5c1.5-1.8,3.1-3.6,4-5.7c0.5-1.1,0.7-2.3,1.3-3.3
	c0.7-1.2,1.8-2.1,2.7-3.2c2.9-3.7,2.9-8.7,3.7-13.3c0.7-3.8,2.2-7.4,4.3-10.6c1.4-2.2,3.9-5.3,2.1-7.3c-0.8-0.8-2.8-0.5-3-1.6
	c-0.4-2.6,2.8-4.4,1.5-6.7c-2.5-4.4-3.5-10.5-3.7-16.2c0-1.6,1.4-4.4,0.1-5.5c-1.4-1.2-4.4,1.9-6.1,2c-5.2,0.3-10,1.3-15.4,0.7
	c-4.3-0.5-8.5-1.9-12.6-3.3c-3.7-1.3-7.8-2.7-10-6c-1.3-2-1.8-4.4-2-6.8c-0.5-5.2,1.7-10.2,1.6-15.4c0-1.4-1.4-1.8-2.6-2.4
	c-2.9-1.4-6.1-2.3-9.3-3.1c-3.5-0.9-7.1-1.9-10.8-2c-1.4-0.1-3,0-4.1-1c-0.4-0.4-0.8-0.9-1.3-1.1c-0.5-0.2-1-0.1-1.5-0.1
	c-1.9,0.3-3.7,0.8-5.5,1.5"/>
<path fill="none" stroke="#E1E1E1" stroke-miterlimit="10" d="M-14.5,78.6c2.2-2.1,5.5-2.5,8.3-3.8c2.7-1.3,4.8-3.3,7.4-4.8
	c4.7-2.7,10.3-3.2,15.2-5.4c2.1-0.9,4-2.1,6-3.1c3.7-1.8,7.6-2.9,11.6-3.9c4.6-1.2,9.1-2.5,13.7-3.7c1.5-0.4,3.1-0.9,3.8-2.3
	c0.2-0.4,0.3-0.9,0.6-1.2c0.4-0.4,1.1-0.5,1.7-0.7c1.3-0.5,2.4-2.6,1.3-3.4c-0.8-0.6-1.5-1.3-1.3-2.3c0.2-1,2-1.5,1.7-2.4
	c-0.2-1-2.1-0.2-2.9-0.8C51,39.6,53.2,37,55,36.4s3.8-0.5,5.6-1.3c1.5-0.7,2.6-2,4.2-2.5c1.5-0.5,3.1-0.2,4.7,0
	c6.1,0.8,6.9-3.5,8.4-3c1.3,0.4,1.5,2.7,5.9,2.7c3.2,0,7.7,2.7,9.7,0.2c1.7-2.2-3.7-4.5-6.4-3.9c-1.1,0.2-2.5,0.6-3-0.3
	c-0.2-0.3-0.1-0.6-0.2-1c-0.7-2.2-5.2-0.9-5.6-3.2c-0.2-0.9,0.5-1.7,0.4-2.6c-0.1-1-1.1-1.7-2-2.3c-2-1.2-4.1-2.4-6.1-3.6
	c-0.6-0.4-1.3-0.8-1.7-1.3c-1-1.2-1.1-3-2.5-3.8c-0.6-0.3-1.2-0.4-1.7-0.8c-0.6-0.5-0.8-1.3-1.3-1.8c-0.7-0.8-1.8-1-2.8-1.1
	c-4.6-0.3-6.9,4.5-10.8,7c-1.7,1.1-4.2,0-5.7,1.4s-1.6,4.2,0.1,5.1c0.5,0.3,1.1,0.4,1.5,0.7c1.2,1.1,0.1,3-1.1,4.2
	c-2.2,2.2-4.4,4.4-7,5.9c-2.3,1.3-5,2.2-6.6,4.3c-1.6,2.2-1.7,5.2-3.1,7.5c-2.2,3.5-7.2,7-10.8,5c-1.1-0.6-0.4-2.3-0.5-3.5
	c-0.1-0.7-0.3-1.4-0.4-2c-0.9-3.3-0.3-7.4-2.6-10c-1.8-2.1-5,2.4-7.8,2.1c-0.5-0.1-1.1-0.3-1.6-0.3c-1.6,0-2.4,1.8-3.3,3.2
	c-1.5,2.2-4.2,3.5-6.8,3.4c-0.5,0-1-0.1-1.5,0.1c-0.5,0.2-0.9,0.6-1.2,0.9c-1.8,1.8-4.1,3.1-6.5,3.7"/>
<path fill="none" stroke="#E1E1E1" stroke-miterlimit="10" d="M37,33.9c-0.1,1.4-0.1,3.3,1.3,3.8c0.9,0.3,1.9-0.2,2.4-0.9
	c0.5-0.8,1-1.9,0.5-2.7c-0.7-1-2.2-0.9-3.4-1c-0.2,0-0.3,0-0.5,0.1C37.1,33.2,37,33.6,37,33.9z"/>
<path fill="none" stroke="#E1E1E1" stroke-miterlimit="10" d="M72.7,28.4c0.7-0.6-0.5-2.1,0-2.8c0.7-0.9,2.6-0.1,3.3-1.1
	c0.5-0.8,0.4-2,0-2.8c-0.5-0.9-2-0.1-2.9,0.5c-1.1,0.6-2.3,1.3-3.1,2.3c-0.8,1-1.6,2.9-0.6,3.6C70.4,28.8,71.9,29.2,72.7,28.4z"/>
<path fill="none" stroke="#E1E1E1" stroke-miterlimit="10" d="M-12.1,36.4c1.9-3.3,3.8-6.6,5.7-9.9c0.3-0.5,0.6-1.1,1.2-1.4
	c0.9-0.4,2.1,0.1,3-0.3c1.5-0.6,1.4-2.7,2.2-4.1C1.6,18.3,5.2,19,8,18.2c1.6-0.5,3-1.6,4.4-2.6c2.1-1.5,4.4-2.9,6.8-4
	c5.8-2.8,12.3-4.4,17-8.8c1.9-1.8,3.6-4,6-4.9c1.3-0.5,2.9-0.7,4-1.6c0.6-0.6,1-1.4,1.7-1.9C49-6.3,50.5-5.9,51.8-6
	c1.6-0.2,3-1.1,4.4-1.8s3.2-1.1,4.6-0.3c0.6,0.4,1.1,1.1,1.7,1.4c0.7,0.3,1.5,0.3,2.3,0.2c3.3-0.3,6.7-2.6,9.7-1.4
	c2.4,0.9,4.3,1.3,6.8,1.7c0.8,0.1,1.9,1.7,2.4,2.3c2.4,3.1,5.9,5.7,9.8,5.7c1.6,0,3.1-0.3,4.6-0.7c2.2-0.5,4.5-1,6.5-2.2
	c1.9-1.1,3.6-2.8,5.7-3.5c0.8-0.2,1.6-0.3,2.2-0.8c0.4-0.3,0.7-0.7,1-1.2c1.1-1.6,2.2-3.2,3.2-4.8c0.4-0.6,0.7-1.1,1.2-1.6
	c0.4-0.5,1-0.9,1.5-1.2"/>
<path fill="none" stroke="#E1E1E1" stroke-miterlimit="10" d="M-13.9,18c2.9-0.6,5.8-1.2,8.3-2.6s4.8-3.8,5.3-6.6
	c0.1-0.5,0.1-1,0.4-1.4C0.6,6.1,2.2,6,3.6,5.9c2.9-0.3,5.5-1.6,8.1-3c2.3-1.2,4.8-2.5,6.4-4.5c0.4-0.5,0.7-1,1.2-1.4
	c1.7-1.3,4.2-0.2,6.2-1c1.9-0.8,2.8-3.3,4.8-3.9c0.7-0.2,1.5-0.1,2.2-0.1c3.5-0.1,6.8-2.9,7.3-6.4"/>
<path fill="none" stroke="#E1E1E1" stroke-miterlimit="10" d="M148,15.9c0-0.3,0-0.7,0-1c0-0.2,0-0.4-0.1-0.6
	c-0.1-0.2-0.3-0.3-0.5-0.4c-0.8-0.3-1.8,0-2.4,0.6c-0.6,0.6-1,1.4-1.2,2.3c-0.2,1-0.8,2.3-0.1,3c1.2,1.3,3.7-0.7,4.1-2.5
	C148,16.9,148,16.4,148,15.9z"/>
<path fill="none" stroke="#E1E1E1" stroke-miterlimit="10" d="M243.1,18.8c0.3-0.5,0.1-1.2-0.3-1.7c-0.3-0.5-0.7-0.9-1.3-0.9
	c-0.4,0-0.8,0.1-1.2,0.3c-1.6,0.9-4.3,3-3.1,4.3c1.1,1.2,3.3-0.4,4.8-1.1C242.4,19.5,242.8,19.2,243.1,18.8z"/>
<path fill="none" stroke="#E1E1E1" stroke-miterlimit="10" d="M345.8,12.4c0.3,0.4,0.9,0.4,1.4,0.3c1.7-0.2,3.9-1.9,3.2-3.4
	c-0.8-1.9-4.4-0.3-4.8,1.7C345.4,11.5,345.4,12,345.8,12.4z"/>
<path fill="#EAEAEA" stroke="#D6D6D6" stroke-miterlimit="10" d="M331.7,73.1c0.5,0.3,1.1,0,1.6-0.3c0.4-0.4,0.8-0.8,1.3-1.1
	c1-0.5,2.4-0.2,3.1-1c0.4-0.4,0.5-0.9,0.6-1.5c0.6-3,1.8-6,4.2-7.9c0.5-0.4,1.1-0.7,1.5-1.2c0.4-0.5,0.7-1.1,1-1.7
	c1-1.5,2.9-2.2,4-3.5c1.1-1.2,1.5-3,1.3-4.6c-0.2-1.6-0.8-3.2-1.7-4.6c-0.1-0.2-0.2-0.3-0.4-0.4c-0.5-0.3-1.1,0-1.6,0.4
	c-1,0.8-2,1.5-3,2.3c-1.7,1.3-3.6,2.6-5.7,2.8c-1.1,0.1-2.4-0.1-3.3,0.6c-0.7,0.5-1,1.5-1.2,2.3c-0.6,2.6-1.3,5.3-1.9,7.9
	c-0.2,0.6-0.3,1.2-0.2,1.9c0,0.5,0.2,1,0.3,1.4c0.4,2.4-1,4.8-0.5,7.1C331.1,72.5,331.3,72.9,331.7,73.1z"/>
<path fill="none" stroke="#D6D6D6" stroke-miterlimit="10" d="M308.7,101.9c0.7-0.8,1-2,1.8-2.7c0.8-0.7,1.7-1.2,2.5-1.8
	c3.1-2.6,3.5-7.3,6.2-10.4c0.6-0.7,1.4-1.4,2-2.2c0.5-0.6,0.8-1.3,1.2-2c2.1-3.7,7-7.3,8.9-9.6"/>
<path fill="none" stroke="#D6D6D6" stroke-miterlimit="10" d="M250.6,194.9c-5.1,8.1-11.5,22.2-19.3,32.1c-1.3,1.6-2.7,3.3-3.5,5.1
	c-0.8,1.7-1.2,3.5-2.4,4.9c-0.8,0.9-1.9,1.6-2.7,2.5c-2.3,2.7-1.6,7-3.7,9.9c-1.7,2.4-4.7,3.2-7.5,4.1c-0.6,0.2-1.3,0.1-1.6,0.6
	c-0.8,1.3,0.3,3.1,1.3,4.1"/>
<path fill="none" stroke="#D6D6D6" stroke-miterlimit="10" d="M207,207.7c1.1,1.2,1.1,3,0.6,4.5s-1.4,2.8-2.1,4.2
	c-3.8,7.3-2.5,16-1.4,24.2c0.1,0.8,0.2,1.6,0,2.3c-0.2,0.8-0.8,1.4-1.3,2c-1,1.3-2.1,2.8-3,4.4c-0.7,1.3-0.3,2.3-0.5,3.8
	c-0.6,3.9-2.4,7.1-1.9,11c0.2,1.5,0.1,4,0.4,5.1"/>
<path fill="none" stroke="#D6D6D6" stroke-miterlimit="10" d="M291.3-15.2c-1.2,2,1.5,6.2,0.1,8.2c-1.3,1.8-11.8,1.3-18.5,1.2
	c-2.4,0-4.6,4.6-7,4.7c-3.6,0.1-5.6-0.8-8.5,0.5c-5.2,2.3-1.8,5.2-12.8,4.5c-3.5-0.2-8.9-0.1-11.8,2c-2.7,2-3,4.9-5.6,7
	c-1.8,1.5-7,2.1-9.3,2c-8-0.3-13.5-2.5-21,0.3c-2,0.7-4.2,1.4-6.4,1c-2.6-0.5-4.1-3.1-5-5.6c-1-2.9-1.6-5.9-1.8-8.9
	c-0.1-1.9-0.1-3.9-1-5.6c-2.3-4-8.3-3-12.6-1.5c-0.9,0.3-1.9,0.7-2.4,1.5c-1,1.7,0.6,3.5,1.7,5.1c2.5,3.6,2.6,8.5,0.9,12.6
	c-1.7,4.1-4.9,7.3-8.6,9.7c-6.6,4.4-15.4,2.4-22.5,5.9c-0.4,0.2-1.2,0.3-1.6,0c-0.3-0.4-0.5-0.9-1-1.1c-0.4-0.2-0.5-0.8-1-0.8"/>
<path fill="#EAEAEA" stroke="#D6D6D6" stroke-miterlimit="10" d="M257.4,3.4c0.8-1.3,2.5-1.8,4-1.8c1.5,0,3.1,0.4,4.6,0.2
	c0.7-0.1,1.3-0.3,2-0.5c1.7-0.5,3.5-1,5.2-1.6c1.2-0.4,2.6-0.7,3.7,0c1,0.6,1.5,1.1,1.3,2.2c-0.3,1.1-3.3,3.1-4.3,3.7
	c-2.9,1.7-4.5,0.6-7.8,0.4c-2.5-0.2-4.9,0-7.4,0.4c-0.4,0.1-0.9,0.1-1.2-0.1c-0.1-0.1-0.2-0.2-0.2-0.3
	C256.9,5.2,256.9,4.2,257.4,3.4z"/>
<path fill="#EAEAEA" stroke="#D6D6D6" stroke-miterlimit="10" d="M214,11.1c2.5,0.4,5.2,0.8,7.6,0c3.4-1.2,5.8-5,5.2-8.6
	c0-0.3-0.1-0.6-0.3-0.8c-0.2-0.2-0.5-0.3-0.8-0.3c-0.8-0.1-1.6-0.3-2.4-0.2c-0.7,0.1-1.4,0.3-2.1,0.4c-0.7,0-1.5-0.2-1.8-0.9
	c-0.1-0.3-0.2-0.6-0.3-0.9c-0.3-0.6-1.1-0.7-1.8-0.8c-2.1-0.2-4.3-0.4-6.2,0.4c-2.8,1.1-4.6,4.4-4,7.4c0.1,0.5,0.3,1,0.7,1.4
	c0.5,0.5,1.2,0.5,1.8,0.9c0.5,0.3,0.9,0.7,1.3,1C211.7,10.7,212.8,10.9,214,11.1z"/>
<path fill="#EAEAEA" stroke="#D6D6D6" stroke-miterlimit="10" d="M282.9,155.4c0.6-1.5,3.7-3.4,2.2-4.1c-1.3-0.6-2.2,1.9-3.6,2.1
	c-0.8,0.1-0.5-1.5-0.1-2.1c0.4-0.7,1.1-1.2,1.4-1.9c0.4-0.8,0.4-1.7,0.5-2.6c0.4-2.7,2.8-5,5.6-5.3c0.4,0,0.9-0.1,1.3-0.3
	c0.7-0.5,0.4-1.6,0.2-2.4c-0.4-1.8,0.7-3.5,0.6-5.4c-0.2-2.8-0.9-5.9,1.4-7.6c1.3-0.9,2.8-1.3,4.2-2c1.4-0.8,2.6-2.2,2.2-3.8
	c-0.1-0.6-0.5-1.1-0.6-1.6c-0.3-1.7,1.5-3.1,3.2-3.6c1.7-0.6,3.7-0.9,4.5-2.5c0.7-1.1,0.5-2.6,0.6-3.9c0.2-1.3,1.2-2,2.3-2.8
	c1.3-1,0.5-3.9-1.1-4.1c-0.9-0.1-1.7,0.6-2.3,1.3c-1.8,2.1-3.7,4.2-5.5,6.3c-1.9,2.2-3.9,4.4-5.5,6.8c-1.2,1.8-2.3,3.7-3.6,5.4
	c-1.9,2.3-4.4,4.1-6.1,6.5c-0.9,1.2-1.6,2.6-2.3,4c-2.4,4.4-5.3,8.6-9,12c-1.7,1.6-3.6,3-4.7,5c-0.8,1.5-1.2,3.2-2.1,4.6
	c-1.1,1.6-2.7,2.6-4.2,3.9s-2.7,3-2.5,4.9c0.1,0.9,0.5,1.8,0.3,2.6c-0.2,0.6-0.7,1.2-1.1,1.7c-2,2.3-2.9,5.6-3.9,8.5
	c-0.7,2.2-2.8,4.1-2.6,6.4c0.3,3.5-0.6,6.8-2.3,11.1c-0.3,0.8,0.1,2.6,1,2.6c0.3,0,0.5-0.2,0.8-0.4c5.5-4.3,8.7-10.8,13.5-15.9
	c3.6-3.9,8-6.8,12.4-9.8c2.1-1.5,4.3-3,5.6-5.2c0.4-0.8,0.8-1.6,0.7-2.5C284.1,159.3,282,157.3,282.9,155.4z"/>
<path fill="#7BBCEB" stroke="#4E9BD7" stroke-miterlimit="10" d="M206.4,207.7c1.4-0.7,0.5-3.2-0.6-4.3c-1-0.9-2.8-1.5-2.7-2.9
	c0-0.3,0.1-0.6,0.3-0.9c2.1-5.4,1.9-11.7-0.7-16.9c-0.2-0.5-0.5-1-1-1.2c-0.4-0.2-0.9-0.2-1.3-0.2c-2-0.3-2.9-3.3-1.4-4.7
	c0.7-0.6,1.7-0.9,2.4-1.5c1-0.9,1.3-2.6,0.5-3.7c-0.7-1.1-2.3-0.9-3.6-1c-0.8-0.1-0.2-1.5,0.5-1.9c0.7-0.4,1.5-0.5,2.1-1.1
	c0.3-0.3,0.5-0.7,0.7-1.1c1.1-2.9,0.8-6.3-0.7-8.9c-0.5-1-1.3-1.8-2.3-2.3c-0.7-0.3-1.4-0.4-2.1-0.7c-0.8-0.3-1.5-0.7-2.2-1.1
	c-5.5-3.1-12.4-5.8-18.9-7.2c-2.4-0.5-6.7,0.8-9.1,0.8c-0.8,0-1.8-0.3-2.6-0.1c-1,0.3-2.1,1.3-2.9,1.9c-3.6,2.7-4.9,8.3-3.8,14.6
	c0.2,1.1,1.2,2,1.4,3.1c0.3,1.1,0,2.4-1,3c-1.1,0.6-2.4,0-3.6,0.2c-1.5,0.2-2.5,1.6-2.9,3c-0.4,1.4-0.3,3-0.3,4.4
	c0,3.6,1.2,9.4-2.2,10.6c-1.8,0.6-3.9,0.4-4.6,2.2c-0.7,1.8-1.5,4.5,0,5.7c0.9,0.7,2.2-0.8,3.3-1.1c1.1-0.3,2.6-0.2,3,0.9
	c0.3,0.8,0,1.6,0.1,2.5c0.2,1.8,2.2,2.8,4,3c1.8,0.2,3.7-0.1,5.4,0.6c1.1,0.5,2,1.3,3.2,1.5c1.1,0.2,2.2-0.3,3.3-0.6
	c3.7-1.1,7.7-0.6,11.2,0.9c3.5,1.5,6.6,4,9.1,6.8c1.2,1.4,2.3,2.9,4,3.5c2.8,1.1,5.8-0.5,8.2-2.3
	C200.9,209.5,203.8,209.1,206.4,207.7z"/>
<path fill="#EAEAEA" stroke="#D6D6D6" stroke-miterlimit="10" d="M132,23.9c1.1-0.5,2.2,0.5,3,1.5c0.4,0.5,0.8,1.1,0.8,1.7
	c0,0.5-0.3,1-0.6,1.4c-0.7,1.2-1.5,2.3-2.2,3.5c-0.4,0.6-0.7,1.1-1.2,1.6c-0.8,0.7-2,0.9-3.1,1c-6.8,0.9-13.6,1.3-20.4,1
	c-0.5,0-1.2-0.2-1.1-0.7c0.1-0.3,0.4-0.4,0.7-0.5c1.4-0.5,2.9-1,4.3-1.4c0.7-0.2,1.5-0.5,2.2-0.4c0.7,0.1,1.3,0.3,1.9,0.6
	c2.5,0.8,5.2,0.4,7.8-0.2c1.2-0.3,2.4-0.6,3.4-1.4c0.7-0.7,1.2-1.6,1.6-2.5c0.6-1.2,1.2-2.5,1.8-3.7C131.2,24.7,131.5,24.2,132,23.9
	z"/>
<path fill="#EAEAEA" stroke="#D6D6D6" stroke-miterlimit="10" d="M126.4,20.1c-1.1-0.3-2.4-0.2-3.4,0.3c-0.7,0.3-1.2,0.8-1.7,1.3
	c-0.3,0.3-0.6,0.5-0.8,0.9c-0.3,0.5-0.4,1.2-0.4,1.8c0.1,1.5,0.7,4.3,2.1,3.9c0.5-0.2,0.8-0.8,0.9-1.3c0.3-1.1,0.3-2.2,1.3-2.8
	c1-0.6,2.1-0.8,3-1.4c0.5-0.3,0.9-0.8,0.8-1.3c0-0.1-0.1-0.3-0.2-0.4C127.6,20.5,127,20.2,126.4,20.1z"/>
<path fill="#EAEAEA" stroke="#D6D6D6" stroke-miterlimit="10" d="M357.5,5.6c-0.7-0.2-1.3-0.6-1.9-0.8c-0.7-0.2-1.6-0.4-2,0.2
	c-0.5,0.7,0,1.7,0.6,2.3s2.8,1.7,3.1,1.9c0.8,0.7,2.1,0.6,2.8-0.2c0.6-0.8,0.4-2.2-0.5-2.7C358.9,5.8,358.1,5.8,357.5,5.6z"/>
<path fill="#EAEAEA" stroke="#D6D6D6" stroke-miterlimit="10" d="M153.4,54.8c-0.3-0.1-0.6,0-0.9-0.1c-0.7-0.1-1.2-0.7-1.8-1.2
	c-1.2-0.8-2.8-0.7-4.2-0.5c-0.5,0.1-1,0.1-1.4,0.5c-0.2,0.2-0.3,0.4-0.4,0.7c-0.4,1-0.8,2.2-0.7,3.3c0.1,0.6,0.3,1.2,0.5,1.8
	c0.7,1.9,1.3,3.7,2,5.6c0.2,0.6,0.4,1.2,0.9,1.7c0.3,0.3,0.6,0.5,0.8,0.9c0.2,0.4,0.1,0.8,0.2,1.3c0.1,1.7,1.7,2.7,3.4,3
	c1,0.2,2.1-0.1,3-0.5c0.8-0.4,1.5-0.8,2.3-1.1c0.2-0.1,0.3-0.2,0.4-0.3c0.1-0.2,0.1-0.4,0.1-0.7c-0.2-1.8-0.5-3.7-0.7-5.5
	c-0.4-2.8-0.8-5.6-2.3-8C154.1,55.3,153.9,54.9,153.4,54.8z"/>
<path fill="#EAEAEA" stroke="#D6D6D6" stroke-miterlimit="10" d="M263.1,285.9c-0.9-0.4-1.5-0.8-2.4-1.2c-0.5-0.3-1.3-0.5-1.8-0.1
	c-0.4,0.3-0.7,0.8-0.9,1.2c-0.4,1.2-1.2,1.3-2.1,2.2c-0.3,0.3-0.6,0.8-0.6,1.2c0,0.3,0.2,0.6,0.4,0.8c0.6,0.5,1.5,0.4,2.2,0.2
	c0.7-0.2,1.5-0.5,2.3-0.3c0.2,0.1,0.5,0.2,0.7,0.3c0.6,0.3,1.1,0.9,1.8,1c0.4,0.1,0.6,0.4,0.8,0.7c0.2,0.4,0.5,0.8,0.8,1.2
	c0.3,0.3,0.7,0.7,1.1,0.7c1,0.2,1.8-0.9,2.2-1.8c0.1-0.2,0.2-0.5,0.2-0.7c-0.1-0.2-0.2-0.4-0.4-0.5c-0.6-0.6-1.3-0.8-1.5-1.6
	c-0.1-0.4-0.6-1.2-0.8-1.6C264.8,286.7,264.1,286.4,263.1,285.9z"/>
<path fill="#EAEAEA" stroke="#D6D6D6" stroke-miterlimit="10" d="M200,273.9c-0.2-0.9,1-1.7,1.1-2.6s-0.4-2-1.3-2.3
	c-1.5-0.5-2.7,1.2-3.4,2.6c-0.5,1-0.9,2-1.4,3c-0.4,0.8-0.7,1.7-0.3,2.4c0.3,0.5,0.9,0.8,1.2,1.4c0.3,0.5,0.1,1.2,0,1.8
	c-0.3,1.4-1.6,2.9-0.9,4.2c0.6,1.2,2.7,0,3.7-0.9c1-0.8,1.3-2.5,2.4-3.2c1.1-0.6,1.8,1.7,1.4,2.8c-0.4,1.2-1.4,2-2.1,3
	c-1.8,2.5-1.8,5.9-3,8.7c-0.9,2.1-2.4,3.8-3.8,5.6c-2.5,3.2-4.8,6.5-6.4,10.2c-0.8,1.9-1.5,3.9-3,5.4c-1.1,1.2-2.7,1.9-3.9,3.1
	c-1.5,1.5-2.4,3.5-3.3,5.4c-0.9,2-1.8,4-2.6,6c-0.7,1.6-2.2,3.5-0.7,4.5c1.5,1,3-0.9,4.3,0.4c0.7,0.6,0.9,1.6,1.6,2.2
	c1.2,0.9,2.9,0.3,4.1-0.6c1.9-1.4,4.6-3,3.6-5.2c-1-2.4-5.2-0.8-2.5-6.7c1.1-2.3,1.9-4.7,3.5-6.8c1.6-2,3.3-4,4.2-6.4
	c0.4-1.1,0.7-2.3,1-3.4c0.7-2.6,1.9-5.1,3.5-7.4c1.2-1.7,2.6-3.3,3.5-5.2c1.5-3.2,1.9-6.5,3.7-9.7c2.4-4.3,5.3-2.1,6.3-4.4
	c0.3-0.8,0.3-1.8,0.5-2.6c0.5-3.4,2.9-6.3,3-9.7c0-1-0.2-2.1,0.4-3c0.4-0.6,1-1,1.5-1.6c1-1.3,0.6-3.3-0.5-4.5s-2.8-3.2-4.2-2.4
	c-1.2,0.6,0.1,2.7,0.3,4.1c0.4,3.5-1.6,7.1-4.8,8.5c-1.3,0.6-2.7,0.9-3.7,1.8c-0.5,0.4-0.8,1-1.3,1.3S200.1,274.6,200,273.9z"/>
<path fill="none" stroke="#4E9BD7" stroke-miterlimit="10" d="M143.5,195.9c-0.1,0.4-0.3,1.2-0.6,1.5c-1.4,1.9-4.7-0.6-7.1-0.3
	c-0.9,0.1-1.7,0.5-2.6,0.4c-0.5,0-1-0.2-1.5-0.4c-2-0.6-4.3-0.2-6,1.1c-1,0.7-1.7,1.7-2.7,2.5c-0.9,0.8-2.2,1.3-3.4,1
	c-2-0.6-2.8-3.6-4.9-3.6c-1.5,0-2.4,1.6-3.1,3c-0.6,1.4-1.7,3-3.2,2.8c-1.9-0.2-2.5-3.1-4.4-3.5c-1.3-0.3-2.6,0.9-3.1,2.1
	c-0.5,1.3-0.6,2.7-1.1,3.9c-0.4,0.9-0.9,1.6-1.4,2.4c-4.7,6.6-9.5,13.1-14.2,19.7c-3.1,4.3-7.3,7.6-11.9,10.3
	c-1.5,0.9-3,1.6-4.5,2.5c-4.5,2.9-7.7,7.3-11.6,10.9c-2.4,2.3-5.1,4.3-7.7,6.3c-2.8,2.1-5.6,4.2-8.4,6.3c-2.1,1.5-4.1,3.1-6.3,4.5
	c-8.8,5.7-19.1,8.9-27.5,15.2c-0.7,0.6-1.5,1.2-1.9,2c-0.4,0.8-0.4,1.7-0.4,2.6c0.1,3.4,0.8,6.8,2.1,10c1,2.5,4,6,1.9,7.7
	c-3,2.4-7.7,0.3-11.4,1.2c-0.7,0.2-1.3,0.4-1.8,0.8c-0.5,0.5-0.8,1.1-1.1,1.8c-2.3,5-6.2,9.3-11.1,11.9"/>
<path fill="none" stroke="#D6D6D6" stroke-miterlimit="10" d="M107,34.6c-3.1-1.4-6.6-1.9-9.9-1.5c-0.7,0.1-1.4,0.2-2.1,0
	c-1.3-0.4-2.1-1.9-3.3-2.5c-1.1-0.5-2.4-0.2-3.6-0.1s-4.1,0.1-4.9-0.7c-1.6-1.5-3.4-1.6-5.4-2.5c-0.3-0.1-0.6-0.2-0.9-0.3
	c-1.3-0.1-1.9,1.5-2.8,2.4c-1.4,1.5-3.9,1.4-5.7,0.4c-1.7-0.9-3.1-2.5-3.7-4.3"/>
<path fill="none" stroke="#D6D6D6" stroke-miterlimit="10" d="M2.9,56.9c2.5,0.2,3.9-0.1,5.6-2"/>
<path fill="none" stroke="#D6D6D6" stroke-miterlimit="10" d="M12.2,54.2c1.5-0.7,3.3-2,4.7-1.2c1.3,0.8,1.9,2.4,3.3,3.1
	c1.3,0.6,2.8,0.8,4.3,1c0.8,0.1,1.6,0.2,2.3-0.2c1.3-0.7,0.9-2.5,0.8-3.9"/>
<path fill="#EAEAEA" stroke="#D6D6D6" stroke-miterlimit="10" d="M-5,57.4c-0.4,1.7-1.7,2.9-2.3,4.5c-0.1,0.4-0.2,0.9-0.1,1.3
	c0.1,0.4,0.3,0.7,0.6,0.9c0.5,0.3,1.2,0,1.6-0.4c0.4-0.5,0.7-1.1,1.1-1.5c0.7-0.6,2.2-1,2.5-0.2c0.1,0.2,0.3,0.4,0.6,0.4
	c1.4,0,3.1,0.9,4.2-0.1c0.8-0.7,0.4-2.1,0.2-3.2c-0.1-0.5-0.2-1-0.4-1.5c-0.2-0.7-0.4-1.3-0.7-2c-0.1-0.5-0.3-1-0.8-1.2
	c-0.2-0.1-0.5-0.1-0.7-0.2c-0.7-0.1-1.4-0.1-2-0.2c-1.2-0.1-2.6-0.1-3.3,0.8C-4.8,55.7-4.8,56.6-5,57.4z"/>
<path fill="#EAEAEA" stroke="#D6D6D6" stroke-miterlimit="10" d="M8.5,54.3c-0.1,1,0.5,2,1.2,2.7c0.3,0.3,0.9,0.6,1.3,0.5
	c1.3-0.5,1.6-2.8,0.8-4C11.1,52.5,8.6,53,8.5,54.3z"/>
<path fill="#EAEAEA" stroke="#D6D6D6" stroke-miterlimit="10" d="M48.4,34.2c-0.7,2.5-3.2,4.2-4.3,6.6c-1.3,2.8-0.4,6.4-2,9
	c-1.3,2-5.2,4.1-6.4,2c-1.2-2.1-0.2-5.3-2.3-6.4c-1.9-1.1-4.6-0.2-5.7,1.7c-1.1,1.9-1.7,6,0.5,6.2c1.7,0.1,0.8-3.4,2-4.5
	c1.2-1.1,3.6,0,3.5,1.7c0,0.6-0.3,1.1-0.3,1.6c0,0.9,0.7,1.6,1.5,2c0.8,0.4,1.7,0.4,2.5,0.4c2.4,0,5.1-0.5,6.7-2.3
	c2.6-2.9,1.6-7.5,3.2-11c1.2-2.6,3.9-4.4,4.7-7.1c0.6-2.2-0.2-4.6-0.7-6.8c-0.4-1.8-0.6-3.7-0.7-5.5c0-0.7,0-1.4,0.4-1.9
	c0.7-0.9,2.2-0.7,3.3-0.4c2.2,0.6,4.4,1.2,6.6,1.8c0.3,0.1,0.6,0.2,0.8,0.3c0.8,0.6,0.7,1.8,0.9,2.8c0.2,1,1.4,2,2.1,1.2
	c0.2-0.3,0.2-0.7,0.2-1.1c0-1-0.6-2.2,0-3.1c0.4-0.6,1.3,0.3,1.9,0.6c1.2,0.6,2.6,0.1,3.8-0.3c0.8-0.3,1.8-0.8,1.9-1.7
	c0-0.3,0-0.7-0.2-1c-1-2-3.8-2.3-6-1.8s-4.3,1.8-6.6,1.7c-2-0.1-3.8-1.1-5.6-1.7c-1.9-0.6-4.3-0.6-5.5,1c-1,1.2-0.9,2.9-0.8,4.4
	c0.2,2.7,0.5,5.4,0.7,8.1C48.6,31.8,48.7,33,48.4,34.2z"/>
<g>
	<g>
		<path fill="none" stroke="#585858" stroke-miterlimit="10" d="M150.5-13.3c0.2,0.6,0.7,1.1,1.2,1.6"/>
		<path fill="none" stroke="#585858" stroke-miterlimit="10" stroke-dasharray="3.9608,0.9902" d="M152.4-11c0.4,0.5,0.8,1,0.8,1.6
			c0.2,1.8-3.4-0.9-5.1-0.3c-1,0.4-1,1.7-1.1,2.8c-0.1,0.6,0,1.2-0.1,1.8c-0.1,0.6-0.5,1.1-0.8,1.6c-1.9,2.7-4.8,4.7-7.9,5.6
			c-1.7,0.5-3.6,0.8-5,1.8c-0.6,0.4-1.1,0.9-1.8,1.1c-1.1,0.4-2.3-0.2-3.4-0.6c-1.6-0.5-3.3-0.6-5-0.3c-0.9,0.2-1.7,0.5-2.5,0.6
			c-1.1,0.1-2.3-0.1-3.4-0.2c-5.3-0.6-10.8,0.3-15.7,2.5c-1.2,0.5-2.3,1.1-3.6,1.3c-0.7,0.1-1.4,0-2,0.2c-2.3,0.6-3,3.7-5,4.9
			c-0.5,0.3-1.1,0.5-1.7,0.6c-3.1,0.9-5.4,8.7-8,6.6c-1-0.8-1-3.2-2.3-2.8c-0.5,0.2-1,0.6-1.6,0.6c-0.6-0.1-0.9-0.7-1.4-1
			c-0.9-0.6-2-0.1-3-0.4c-0.8-0.2-1.5-0.9-2.2-1.3c-3-1.5-6.3,1.7-9.6,1.5c-0.9-0.1-1.8-0.4-2.7-0.6c-5.1-1.5-10.6-1.4-15.6,0.3
			c-3.7,1.2-7,3.3-10.3,5.3c-2.2,1.3-4.4,2.7-6.6,4c-1.3,0.8-2.7,1.6-3.9,2.7c-0.7,0.6-1.3,1.3-2.1,1.7c-1,0.6-2.2,0.7-3.3,1
			c-2.5,0.7-4.6,2.3-6.6,3.9c-4.4,3.3-8.7,6.7-13.1,10c-1.9,1.4-3.8,2.9-5.7,4.3c-1.6,1.3-3.3,2.5-4.9,3.8"/>
		<path fill="none" stroke="#585858" stroke-miterlimit="10" d="M-14.2,53.7c-0.5,0.4-1.1,0.8-1.6,1.2"/>
	</g>
</g>
<g>
	<g>
		<path fill="none" stroke="#585858" stroke-miterlimit="10" d="M254.4-13.7c-0.4,0.5-0.9,1-1.4,1.4"/>
		<path fill="none" stroke="#585858" stroke-miterlimit="10" stroke-dasharray="4.0719,1.018" d="M252.2-11.7
			c-3.6,2.7-8.6,3.9-10.6,7.9c-0.8,1.5,2.5,2.9,2.1,4.5c-0.8,3.2-6.5,0.6-9.6,1.8c-4.7,1.8-5.8,8.6-10.5,10.3
			c-3.6,1.3-6.9-0.1-10.7-0.1c-0.9,0-2.3-0.1-3.1-0.3c-1-0.2-1.7-1-2.4-1.7c-5.2-5.5-10-12-10.4-19.5c0-0.9,0-1.8-0.1-2.6"/>
		<path fill="none" stroke="#585858" stroke-miterlimit="10" d="M196.9-11.8c-0.1-0.7-0.2-1.3-0.5-1.9"/>
	</g>
</g>
<text transform="matrix(1 0 0 1 296.6425 135.507)"><tspan x="0" y="0" fill="#585858" font-family="'Verdana-Italic'" font-size="8">Middle</tspan><tspan x="0" y="9.6" fill="#585858" font-family="'Verdana-Italic'" font-size="8">Branigan Lake</tspan></text>
<text transform="matrix(1 0 0 1 222.2031 55.253)"><tspan x="0" y="0" fill="#585858" font-family="'Verdana-Italic'" font-size="8">Andrews</tspan><tspan x="15.3" y="9.6" fill="#585858" font-family="'Verdana-Italic'" font-size="8">Peak</tspan></text>
<text transform="matrix(1 0 0 1 259.627 60.2981)" fill="#585858" font-family="'Verdana-Italic'" font-size="8">× 8551</text>
<text transform="matrix(1 0 0 1 159.1304 179.6141)"><tspan x="0" y="0" fill="#FFFFFF" font-family="'Verdana-Italic'" font-size="8">Branigan</tspan><tspan x="8.5" y="9.6" fill="#FFFFFF" font-family="'Verdana-Italic'" font-size="8">Lake</tspan></text>
<path fill="none" d="M330.2,170.5c4.3-5.2,10.4-8.7,17-10.2c3.7-0.8,7.5-1.1,11.1-2.4c2.1-0.8,4.1-1.9,6.3-2.1"/>
<text transform="matrix(0.8537 -0.5208 0.5208 0.8537 336.9112 167.5002)"><tspan x="0" y="0" fill="#7D7D7D" font-family="'Verdana-Italic'" font-size="7">7</tspan><tspan x="4.1" y="0" fill="#7D7D7D" font-family="'Verdana-Italic'" font-size="7" rotate="8">8</tspan><tspan x="8.2" y="0.5" fill="#7D7D7D" font-family="'Verdana-Italic'" font-size="7" rotate="15.8">0</tspan><tspan x="12.2" y="1.7" fill="#7D7D7D" font-family="'Verdana-Italic'" font-size="7" rotate="21.5">0</tspan></text>
<path fill="none" d="M294.9,76.5c2.1-2.6,2.9-6,5-8.6c1.3-1.6,3.1-2.8,4.7-4.2c2.7-2.3,4.9-5,6.7-8c4.1-7.2,5.1-15.7,7.4-23.7
	c1.5-5.1,3.5-10,6.1-14.7"/>
<text transform="matrix(0.7227 -0.6912 0.6912 0.7227 306.1246 65.8342)"><tspan x="0" y="0" fill="#7D7D7D" font-family="'Verdana-Italic'" font-size="7">8</tspan><tspan x="4.8" y="0" fill="#7D7D7D" font-family="'Verdana-Italic'" font-size="7" rotate="-8.5">0</tspan><tspan x="9.6" y="-0.8" fill="#7D7D7D" font-family="'Verdana-Italic'" font-size="7" rotate="-17">0</tspan><tspan x="14.2" y="-2.2" fill="#7D7D7D" font-family="'Verdana-Italic'" font-size="7" rotate="-24.3">0</tspan></text>
<text transform="matrix(1 0 0 1 130.4157 248.7954)" fill="#585858" font-family="'Verdana-Italic'" font-size="8">× 7842</text>
<path fill="none" d="M166.5,95.7c-3.7-10.7-2.1-23.1,4.2-32.5"/>
<text transform="matrix(7.046168e-02 -0.9975 0.9975 7.046168e-02 167.0816 83.5344)"><tspan x="0" y="0" fill="#7D7D7D" font-family="'Verdana-Italic'" font-size="7">7</tspan><tspan x="4.2" y="0" fill="#7D7D7D" font-family="'Verdana-Italic'" font-size="7" rotate="6.6">8</tspan><tspan x="8.3" y="0.4" fill="#7D7D7D" font-family="'Verdana-Italic'" font-size="7" rotate="13.3">0</tspan><tspan x="12.3" y="1.4" fill="#7D7D7D" font-family="'Verdana-Italic'" font-size="7" rotate="20.1">0</tspan></text>
<path fill="none" d="M247.4,212.4c-3.1,7.9-5.4,17.8-0.1,24.5c4.3,5.3,9.5,9.8,14.3,14.7c0.7,0.7,1.4,1.5,2.4,1.9"/>
<text transform="matrix(0.657 0.7539 -0.7539 0.657 245.4351 238.6174)"><tspan x="0" y="0" fill="#7D7D7D" font-family="'Verdana-Italic'" font-size="7">7</tspan><tspan x="4.6" y="0" fill="#7D7D7D" font-family="'Verdana-Italic'" font-size="7" rotate="-3.2">6</tspan><tspan x="9.1" y="-0.3" fill="#7D7D7D" font-family="'Verdana-Italic'" font-size="7" rotate="-4.8">0</tspan><tspan x="13.5" y="-0.7" fill="#7D7D7D" font-family="'Verdana-Italic'" font-size="7" rotate="-4.9">0</tspan></text>
<text transform="matrix(1 0 0 1 106.2021 53.0794)"><tspan x="0" y="0" fill="#585858" font-family="'Verdana-Italic'" font-size="8">Andrews</tspan><tspan x="15.7" y="9.6" fill="#585858" font-family="'Verdana-Italic'" font-size="8">Lake</tspan></text>
<text transform="matrix(1 0 0 1 29.4293 187.8419)" fill="#585858" font-family="'Verdana-Italic'" font-size="8">× 7718</text>
<text transform="matrix(1 0 0 1 71.9293 65.8419)" fill="#585858" font-family="'Verdana-Italic'" font-size="8">8148 ×</text>
<path fill="none" d="M99.8,224.2c1.3-2,3.8-2.7,6.1-3.4c6.3-1.7,12.6-3.4,19-5.1c1.3-0.4,2.7-0.7,3.9-1.4"/>
<text transform="matrix(0.9657 -0.2596 0.2596 0.9657 106.2195 223.4293)"><tspan x="0" y="0" fill="#7D7D7D" font-family="'Verdana-Italic'" font-size="7">7</tspan><tspan x="4.4" y="0" fill="#7D7D7D" font-family="'Verdana-Italic'" font-size="7">4</tspan><tspan x="8.9" y="0" fill="#7D7D7D" font-family="'Verdana-Italic'" font-size="7">0</tspan><tspan x="13.3" y="0" fill="#7D7D7D" font-family="'Verdana-Italic'" font-size="7">0</tspan></text>
<path fill="none" d="M8,18.2c1.6-0.5,3-1.6,4.4-2.6c2.1-1.5,4.4-2.9,6.8-4c5.8-2.8,12.3-4.4,17-8.8"/>
<text transform="matrix(0.8621 -0.5068 0.5068 0.8621 15.2829 16.6431)"><tspan x="0" y="0" fill="#7D7D7D" font-family="'Verdana-Italic'" font-size="7">7</tspan><tspan x="4.2" y="0" fill="#7D7D7D" font-family="'Verdana-Italic'" font-size="7" rotate="5.5">8</tspan><tspan x="8.5" y="0.4" fill="#7D7D7D" font-family="'Verdana-Italic'" font-size="7" rotate="8.2">0</tspan><tspan x="13" y="1.1" fill="#7D7D7D" font-family="'Verdana-Italic'" font-size="7" rotate="6.6">0</tspan></text>
<path fill="none" d="M352,345c-3.4-5.6,0.5-13.1,1.6-19.5c0.7-3.6,1.5-7.2,1-10.8"/>
<text transform="matrix(0.1395 -0.9902 0.9902 0.1395 352.9861 339.7984)"><tspan x="0" y="0" fill="#7D7D7D" font-family="'Verdana-Italic'" font-size="7">8</tspan><tspan x="4.2" y="0" fill="#7D7D7D" font-family="'Verdana-Italic'" font-size="7" rotate="6.9">0</tspan><tspan x="8.6" y="0.6" fill="#7D7D7D" font-family="'Verdana-Italic'" font-size="7" rotate="6.9">0</tspan><tspan x="13.2" y="1.1" fill="#7D7D7D" font-family="'Verdana-Italic'" font-size="7" rotate="2.8">0</tspan></text>
<path fill="none" d="M20.8,336.5c3.4-4.1,6.7-8.2,10.1-12.3c4.3-5.3,8.7-10.6,12.7-16.1"/>
<text transform="matrix(0.633 -0.7741 0.7741 0.633 28.5964 330.9498)"><tspan x="0" y="0" fill="#7D7D7D" font-family="'Verdana-Italic'" font-size="7">7</tspan><tspan x="4.5" y="0" fill="#7D7D7D" font-family="'Verdana-Italic'" font-size="7" rotate="0">0</tspan><tspan x="8.9" y="0" fill="#7D7D7D" font-family="'Verdana-Italic'" font-size="7" rotate="-0.1">0</tspan><tspan x="13.4" y="0" fill="#7D7D7D" font-family="'Verdana-Italic'" font-size="7" rotate="-0.6">0</tspan></text>
<path fill="none" d="M110.4,160.4c7.3-3.7,14.1-8.5,19.3-14.9"/>
<text transform="matrix(0.8608 -0.509 0.509 0.8608 114.2014 161.2471)"><tspan x="0" y="0" fill="#7D7D7D" font-family="'Verdana-Italic'" font-size="7">7</tspan><tspan x="4.6" y="0" fill="#7D7D7D" font-family="'Verdana-Italic'" font-size="7" rotate="-4">6</tspan><tspan x="9.3" y="-0.3" fill="#7D7D7D" font-family="'Verdana-Italic'" font-size="7" rotate="-8.3">0</tspan><tspan x="13.9" y="-1" fill="#7D7D7D" font-family="'Verdana-Italic'" font-size="7" rotate="-13.2">0</tspan></text>
<g>
	<g>
		<polyline fill="none" stroke="#7D7D7D" stroke-miterlimit="10" points="85.2,341.6 85.2,348.7 275.4,348.7 275.4,341.7 		"/>
		<line fill="none" stroke="#7D7D7D" stroke-miterlimit="10" x1="180.5" y1="341.4" x2="180.5" y2="348.7"/>
		<line fill="none" stroke="#7D7D7D" stroke-miterlimit="10" x1="161.2" y1="349.2" x2="161.2" y2="343.7"/>
		<line fill="none" stroke="#7D7D7D" stroke-miterlimit="10" x1="142.4" y1="349.2" x2="142.4" y2="343.7"/>
		<line fill="none" stroke="#7D7D7D" stroke-miterlimit="10" x1="123.3" y1="349.2" x2="123.3" y2="343.5"/>
		<line fill="none" stroke="#7D7D7D" stroke-miterlimit="10" x1="104.6" y1="349.2" x2="104.6" y2="343.7"/>
	</g>
	<text transform="matrix(1 0 0 1 83.7836 339.1468)" fill="#7D7D7D" font-family="'Verdana'" font-size="8">0</text>
	<text transform="matrix(1 0 0 1 174.2947 339.1468)" fill="#7D7D7D" font-family="'Verdana'" font-size="8">0.5</text>
	<text transform="matrix(1 0 0 1 258.3416 339.1468)" fill="#7D7D7D" font-family="'Verdana'" font-size="8">1 mi</text>
</g>
</svg>
