<?xml version="1.0" encoding="utf-8"?>
<!-- Generator: Adobe Illustrator 17.1.0, SVG Export Plug-In . SVG Version: 6.00 Build 0)  -->
<!DOCTYPE svg PUBLIC "-//W3C//DTD SVG 1.1//EN" "http://www.w3.org/Graphics/SVG/1.1/DTD/svg11.dtd">
<svg version="1.1" id="Layer_1" xmlns="http://www.w3.org/2000/svg" xmlns:xlink="http://www.w3.org/1999/xlink" x="0px" y="0px"
	 viewBox="0 0 360 360" enable-background="new 0 0 360 360" xml:space="preserve">
<path fill="none" stroke="#E1E1E1" stroke-miterlimit="10" d="M369.3,251.9c-0.9,0.6-1.7,1.2-2.3,2c-5.3,6.3-10,13.1-14.6,20
	c-11.4,17.2-21.5,35.3-30.3,53.9c-3.4,7.3-8.1,14.4-12.1,21.3c-3.1,5.3-6.3,10.5-9.6,15.7c-1.7,2.8-3.4,5.5-5.2,8.3"/>
<path fill="none" stroke="#E1E1E1" stroke-miterlimit="10" d="M368.8,313.2c-0.5,1-0.9,2-1.4,3c-0.9,2-1.8,4-2.2,6.2
	c-0.3,1.8-0.5,3.6-1.8,5.6c-4.5,7.2-7.9,15.3-8.7,23.7c-0.8,7.9,0.9,16.4-3.1,23.2"/>
<path fill="none" stroke="#E1E1E1" stroke-miterlimit="10" d="M367.6,290.2c-0.1-0.9-0.3-1.6-1.1-2c-2-0.8-3.1,2.8-4.2,4.6
	c-7.7,11.2-16.3,21.9-25.6,32c-2.8,3-5.1,7.8-7.1,11.4c-7,12.6-13.9,25.2-21,37.7"/>
<path fill="none" stroke="#E1E1E1" stroke-miterlimit="10" d="M368.7,229.7c-1.4,1.9-2.9,3.7-4.6,5.3c-1.5,1.4-3.2,2.7-4.9,4
	c-7,5.8-11.6,13.9-15.8,22c-10.9,21.2-19.4,43.6-32.3,63.6c-4.7,7.3-7.3,17.1-12.1,24.3c-1.5,2.3-3.2,4.5-4.7,6.8
	c-3.6,5.4-6.5,11.4-8.5,17.6"/>
<path fill="none" stroke="#E1E1E1" stroke-miterlimit="10" d="M259.8,193.6c-0.1,1.5,1.5,4.1,3,3.8c4-0.9,4.2-7.2,4.1-11.3
	c0-1.5-0.5-3.4-2-3.6c-1.3-0.2-2.4,0.9-3,2C260.7,186.6,259.9,191.8,259.8,193.6z"/>
<path fill="none" stroke="#E1E1E1" stroke-miterlimit="10" d="M369.4,206.9c-3.8,3-8,5.5-11.4,9c-3.5,3.5-6.1,7.9-8.7,12.2
	c-18.4,31.5-36.1,64.6-50.3,98.2c-1.6,3.8-4,7.3-5.7,11c-5.3,12.1-10.6,24.2-15,36.7"/>
<path fill="none" stroke="#E1E1E1" stroke-miterlimit="10" d="M269.8,252.7c-0.5,0.1-1,0.3-1.3,0.7c-0.4,0.5-0.3,1.3-0.2,1.9
	c0.8,3.6,2.3,7,3,10.5c0.7,3.6,0.7,7.6-1.4,10.6c-0.2,0.2-0.3,0.4-0.3,0.7c0,0.3,0.2,0.6,0.3,0.8c2.8,3.9,5.6,7.8,8.5,11.6
	c0.4,0.6,0.9,1.2,1.6,1.4c1.4,0.4,2.6-1.1,3.2-2.4c5.6-10.2,11.1-20.5,16.7-30.7c1.7-3.2,5.3-7.3,3.2-10.3c-0.7-1-2.5,0-3.5,0.7
	c-1,0.8-1.8,1.8-2.9,2.4c-1.7,0.9-3.8,0.6-5.7,0.4C284,250.2,276.7,250.8,269.8,252.7z"/>
<path fill="none" stroke="#E1E1E1" stroke-miterlimit="10" d="M293.1,263c0.1-1.7,0.2-3.4,0.1-5.1c0-0.5,0-1-0.3-1.5
	c-0.7-1.4-3.9-2.6-4.1-1.1c-0.2,1.2-0.6,6.3,0.8,6.9c2.6,1.2,0.7,2.3,0.2,4.1c-0.3,1,2.2-0.3,2.8-1.2
	C293,264.5,293.1,263.8,293.1,263z"/>
<path fill="none" stroke="#E1E1E1" stroke-miterlimit="10" d="M318.1,142c-1.2,0.6-3.1-1.4-2.5-2.6c0.4-0.7,1.7-0.3,2.3,0.3
	S318.9,141.6,318.1,142z"/>
<path fill="none" stroke="#E1E1E1" stroke-miterlimit="10" d="M320.5,123.7c-0.7-0.9-2.4,0-2.9,1s-0.2,3,0.9,2.9
	C320,127.4,321.5,124.9,320.5,123.7z"/>
<path fill="none" stroke="#E1E1E1" stroke-miterlimit="10" d="M360-10.1c-1,0.8-2.1,2.5-3.2,2.9c-0.7,0.3-1.5,0.3-2.2,0.5
	c-3.7,0.9-5.5,5.1-8.6,7.3c-3.4,2.3-7.8,2.1-11.9,2.2c-4.8,0.2-9.5,1.1-13.9,2.8c-0.9,0.3-1.9,0.7-2.8,0.8c-1.2,0.1-2.3-0.2-3.5-0.2
	c-4.8,0-8.1,4.5-10.6,8.6c-3.1,4.9-6.1,9.8-9.2,14.7c-1.8,2.9-3.7,6-4.1,9.4c-0.1,1-0.1,2.1-0.5,3.1c-0.7,1.8-2.8,3.1-3.1,5
	c-0.1,0.7,0,1.4-0.2,2c-0.3,0.8-1.1,1.3-1.8,1.9c-11.3,9.3-10,18.3-13.4,20.3c-2.4,1.5-4.9-2.6-7.1-4.4c-4.1-3.5-6.7-2.8-12.2-2.7
	c-0.7,0-2.1,0.5-2.5,0c-0.3-0.4-0.4-0.9-0.6-1.3c-1.7-3.7-6.7-2.9-10.6-4c-2.3-0.6-4.7,0.3-7.1-0.2c-2.1-0.4-3.6,1.2-5.6,0.3
	c-2.3-0.9-1.8-5.1-4.3-5.1c-2.5,0-2.4,3.4-4.3,5.1c-0.4,0.4-0.6-0.9-0.7-1.4c-0.5-1.5-2.2-1.5-3.5-0.6c-1.4,0.8-1.9,2.4-2.8,3.8
	c-0.8,1.4-2.6,4.5-3.2,3c-1.2-3,3-7.5-1-15.2c-0.3-0.6-2-2.6-2.5-3c-1.3-1-3.8-0.3-5.2,0.7c-1.4,1-2.3,2.5-3.3,3.8
	c-3.1,4.2-7.6,12-12.2,9.6c-3.1-1.6,1.2-6.7,2.3-10c2-6,1.4-12.5,0.2-18.7s-3.1-12.3-3.7-18.6c-0.2-2.4-0.2-4.9-0.4-7.3
	c-0.5-5.9-2.2-11.6-4.9-16.8"/>
<path fill="none" stroke="#E1E1E1" stroke-miterlimit="10" d="M319.1-9.5c-1.8,1.6-3.7,2.9-6.1,3c-1,0-2,1.5-3,1.6
	c-2.9,0.5-4.4,2.9-7.4,3c-0.6,0-1.3-0.2-1.9-0.1c-1.1,0.1-1.9,0.8-3,1.1c-2.4,0.8-5-0.7-7.5-0.5c-2.3,0.2-4.4,1.8-5.7,3.7
	s-1.9,4.3-2.6,6.5c-4.9,16.9-1.1,27.5-3.2,29.2c-1.9,1.5-2.9,2.5-2.9,5.7c0,2.1-3.7,1.7-4.4,3.6c-0.7,2,0,6.2-2.1,5.8
	c-1.6-0.3-2.5-1.1-3.9-1.9c-2.1-1.2-1.5-3.2-4-3.4s-4.9,0.7-7.1,1.6c-1.3,0.5-2.7,2.3-3.8,1.5c-0.8-0.6,0-2-0.6-2.8
	c-1.1-1.7-4.4,1.1-5.9-0.2c-1.2-1.1-2-2.4-3.6-2.3c-1.6,0.1-3.6,0.3-4.5-1c-0.3-0.5-0.4-1-0.7-1.5c-0.9-1.4-2.9-1.5-4.2-2.5
	c-0.8-0.6-1.2-1.6-1.9-2.3s-1.7-0.2-2.6-0.6c-2.3-1.1-0.9-7.5-1.9-9.8c-1-2.3-3-0.9-4.7-2.8c-3.4-3.6,5.5-11.7,1.5-14.6
	c-1.4-1-3.4-0.1-5.1-0.2c-0.3,0-0.6,0-0.8-0.2c-0.8-0.5-0.2-1.8,0.5-2.5c4.6-4.8,7.7-11,8.8-17.6"/>
<path fill="none" stroke="#E1E1E1" stroke-miterlimit="10" d="M144.3,375.1c0.7-3.4,1.3-6.9,1.7-10.5c0.1-1,0.2-2-0.1-3
	c-0.3-1.4-1.3-2.5-2-3.7c-2.5-3.9-3.1-9-1.6-13.4c0.5-1.5,1.3-2.9,1.6-4.4c0.3-1.3,0.3-2.7,0.3-4.1c0.3-4.6,5.5-8.9,3.8-13.2
	c-1.1-2.7-5.5-2-8.4-2.7c-2.1-0.5-4.3-1.1-6.5-0.5c-2.1,0.5-4,2.1-6.2,2.3c-0.7,0-1.4-0.1-2,0.2c-1.1,0.5-1.3,1.9-1.6,3.1
	c-0.8,3-3.3,5.6-6.3,6.5c-3,0.9-6.5,0.2-8.9-1.9c-1-0.9-2.4-2.5-3.5-1.8c-4.7,3.3-9.1,7.3-14.8,8.3c-5.7,1-11.6,0.5-17.3,0
	c-2.1-0.2-4.4-0.4-6.2-1.6c-1.3-0.9-3-2.4-4.2-1.3c-1.2,1.2-1.8,3-1.6,4.7c0.1,0.7,0.3,1.5,0,2.2c-0.3,0.8-1.1,1.4-1.8,1.7
	c-2.4,1.2-3.9,2.3-8.7-1.5c-2-1.6-2.9-5.9-3-8.8c-0.2-9.2,3.4-17.9,3-26.7c-0.5-10.8,13.3-25.4,5-32.2c-1.2-1-3.9,2-4.8,0.7
	c-1.7-2.5-1.2-5.5-2.4-8.3c-0.7-1.6-1-3.3-1.1-5c-0.7-9.3,1.9-18.9,7.2-26.6c1.2-1.7,2.5-3.4,3.7-5.1c3.3-4.8,5.4-10.3,7.4-15.7
	c2.3-6.2,4.4-12.5,5-19c0.7-7.9,1.5-15.5,4.5-23c0.7-1.6,1.3-3.3,2.5-4.6c2.1-2.4,5.4-3.4,8.6-3.3c3.2,0.2,6.2,1.4,9,2.9
	c0.7,0.4,1.4,0.8,1.8,1.4c0.4,0.6,0.6,1.3,0.7,2c1.5,9.4-5.4,26.8-3.8,28.2c1.5,1.2,3.4-3.4,5.2-2.6c4.1,1.9-0.6,9.2,1,13.5
	c0.3,0.7,1.5,0.2,1.9-0.5c0.4-0.6,0.4-1.4,0.6-2.2c0.7-3.2,4.7-2.8,7.5-4.5c1.7-1.1,2.8-2.7,4.7-3c4.1-0.6,8.6-1.2,12.3,0.7
	c1.4,0.7,2.6,1.8,4.1,2.3c1.4,0.4,3,0.3,4.1,1.3c1.3,1.1,1.3,3.1,1.6,4.7c0.3,1.7,1.8,2.2,3.4,3c0.6,0.3,0,1.7,0.6,2
	c3.4,1.5,6.7-3.3,10.1-5c2.2-1.1,4.9-2.1,6.8-0.6c0.7,0.6,1.2,1.4,1.9,2c1.7,1.6,0.8,4.5,3.1,4.5c2.7,0,5.2-0.3,7.9-0.2
	c0.9,0,1.9,0,2.8,0.4c0.8,0.4,1.5,1,2.2,1.5c3,2.2,7.2,2.5,10.4,0.7c1.6-0.8,2.9-2.1,4.6-2.8s3,0.6,4.7,1.2c1.4,0.5,1.6-2.4,2.3-3.8
	c1.1-2.1,3.6-3,5.9-3.4c2.3-0.4,4.7-0.4,6.9-1.4c3.1-1.4,5-4.5,6.6-7.5c2.2-4.3,4-9.7,1.4-13.8c-0.7-1.1-1.7-1.9-2.6-2.8
	c-2.1-1.9-4.2-3.8-6.3-5.7c-1-0.9-2.1-1.9-2.8-3c-0.7-1.1-1-2.4-1.6-3.6c-0.8-1.7-2-3.2-3-4.8c-3.5-6.1-3-13.8-0.3-20.3
	c2.7-6.5,7.2-12,11.7-17.3c1-1.2,2.7-4.2,3.7-2.9c1.7,2.2-1.5,8.5,1.1,7.7c2.6-0.8,3.2-4.7,5.9-4.4c0.6,0.1,1.2,0.2,1.6-0.1
	c0.3-0.2,0.5-0.5,0.6-0.8c1.3-2.7,2-5.7,4-7.9c2-2.2,6-2.9,7.7-0.5c1.3,1.9,0.2,4.4,0.3,6.7c0.4,7.5,3.8,15.3,2.6,23
	c-0.3,2-0.2,4.5-0.2,6.6c-0.1,2.8,0.3,4.9,0.1,7.6c-0.1,1.5-0.6,3-1,4.4c-0.9,3.1-0.4,6.5-0.8,9.7c-0.4,3.1-1.5,6.2-0.2,9
	c0.8,1.7,2.2,3.2,2.3,5.1c0.1,1.1-0.2,2.1-0.4,3.2c-0.5,2.9,0.1,6,1.7,8.5c1.3,2.1,1.6,4.7,3.3,6.5c0.3,0.3,1.4,0.1,1.8,0
	c2-0.5,5.7-2,6.9-0.3c1.2,1.7,0.5,4.3,1.7,6c1.9,2.6,6.6,0.8,9.1-1.3c2.5-2,3.7-5.5,3.1-8.7c-0.3-1.5-1-2.9-1.1-4.4
	c-0.1-1.5,0.7-3.3,2.2-3.6c0.8-0.2,1.6,0.2,2.5,0.1c3-0.2,1.3-5.3,3.5-7.4c0.9-0.9,1,2.8,2.3,2.6c3.5-0.6,6.8,1.1,9.6,4.3
	c2.8,3.1,9-12.6,10.2-20.3c1.7-11,2.1-22.3,1.3-33.4c-0.1-1.6-0.4-3.3-1.6-4.3c-1-0.7-2.3-0.7-3.2-1.5c-1.1-0.9-1.2-2.4-1.3-3.8
	c-0.7-13.6-1.3-27.7,4.2-40.1c2.2-4.8,5.2-9.2,7.2-14.2c1.7-4.2,1.2-12.2,2.6-13.3c5.2-4.1,10,16,7.9,25c-0.4,1.7-1,3.4-0.8,5.2
	c0.2,1.7,1.5,3.5,3.3,3.6c0.9,0,1.7-0.4,2.5-0.5c3.6-0.6,6.3,3.2,8.7,6c3.7,4.4,6.6,5.9,9.8,8.5c1.1,0.9,8.1-0.4,9.5,0.2
	c3,1.2,4.5,4.5,5.6,7.6c1.9,5.5,3.4,11.2,4.4,17c0.6,3.2,1,6.4,2.6,9.3c1.6,2.9,4.3,5,6.2,7.6s1.1,6.2,1.3,9.4
	c0.3,4.7-1.4,9.5,1.2,13.4c0.3,0.4,0.6,0.9,0.8,1.4"/>
<path fill="none" stroke="#E1E1E1" stroke-miterlimit="10" d="M127.5-8.9c1.2,6.4,2.2,12.9,2.1,19.4c-0.1,5.9-2.1,14-2,19.8
	c0,0.9,1.6,0,2.2,0.7c3.7,4.5,0.2,29.4-2.5,44.4c-2.7,15.1-8.2,29.8-17.4,42.1c-2.8,3.7-6,7.5-6.7,12.1c-0.7,4.5,1.2,9,3,13.2
	c1,2.2,0.6,6,2.9,6.7c2.2,0.6,5,0.7,4.8,3c-0.1,1.3-1,2.4-1.3,3.6c-0.3,1.3,0.6,3,1.8,2.6c0.9-0.2,1.8-1.8,2.4-1.1
	c1.2,1.4-0.9,5.3,1,5.5c1.2,0.1,1.7-1.7,2.9-1.5c1.1,0.2,1.1,1.9,2.1,2.4c2,1,3.9-2.7,6.1-2.1c0.8,0.2,1.5,0.7,2.3,0.8
	c1.3,0.1,2.4-0.8,3.5-1.5c3.8-2.2,8.9-1.7,12.1,1.3c0.6,0.5,1.1,1.1,1.9,1.2c1.4,0.1,2.1-1.8,3.1-2.8c1.5-1.5,4.1-1.1,5.9,0.1
	s1.3,5.5,2.6,8c2.4,4.8,4.2,10,5.2,15.2c0.5,2.6,0.8,5.3,2.5,7.4c1.6,2,4.3,3,5.5,5.2c0.5,0.8,0.7,1.7,1,2.6c2.1,5,9.3,6.7,13.8,3.7
	c2.7-1.8,4.4-4.6,5.8-7.5c0.6-1.2,1.2-2.4,1.5-3.7c0.5-2,0.3-4.1-0.1-6.1c-1.8-8.1-7.6-14.6-13.5-20.5c-0.6-0.6-1.3-1.3-2-1.8
	c-1.1-0.7-2.4-1.2-3.6-1.6c-3.8-1.3-7.7-2.7-11.5-4c-1.6-0.6-3.4-1.2-4.3-2.7c-1.8-2.9,0.8-6.5,3.3-8.9c2.2-2.2,4.5-4.4,6.7-6.5
	c2.2-2.1,4.3-4.2,5.8-6.9c1.1-2,1.7-4.1,2.4-6.3c2-6.4,4.8-12.5,8.2-18.2c1.9-3.2,4.1-6.4,7.3-8.3c1.9-1.1,4.2-1.8,5.9-3.2
	c1-0.9,1.9-2.1,3.2-2.5c0.9-0.3,1.8-0.1,2.8-0.1c2-0.2,3.3-3.5,5.2-2.8c2.9,1.1-3.4,6.4-1.7,8.9c0.7,1,1.9,1.4,1.8,2.6
	c-0.2,1.2-1.3,2.8-0.3,3.5c0.3,0.2,0.8,0.3,1.2,0.1c2.8-1.4,3.2-5.4,4.8-8.1c0.6-1.1,1.3-2.2,2.3-3c1-0.8,2.5-1.1,3.6-0.5
	s0.7,1.9,0.6,3.2c-0.1,0.7,1.4,0.4,1.9-0.2c0.5-0.6,0.6-1.3,0.9-2c1.3-3.3,5.7-4.4,9-3.2c3.3,1.2,5.8,4,8.1,6.6
	c1.7,1.9,3.3,3.9,5.1,5.8c0.7,0.8,2.3,2.4,3.1,3.1c4.4,4.1,7.5,7.5,8.7,13.4c1.1,5.9-2.2,12.7,0.7,17.9c1.1,2,3.7,4.1,5.8,3.4
	c2.3-0.8,3.6-3.1,6-3.2s4.9,0.2,7.1-0.8c2.4-1.1,3.9-3.7,4.4-6.3c0.5-2.6,0.2-5.3-0.1-7.9c-1-9.3-1.3-18.6-1.1-28
	c0.1-2.3,0.5-5.1,2.6-6.1c0.9-0.4,2-0.3,3-0.7c3.3-1.1,3.5-5.5,4.3-8.9c1.6-6.6,7.6-11.4,8.9-18.1c0.8-4-0.3-8-0.4-12
	c-0.2-6,1.8-12.1,5.5-16.8c0.6-0.7,1.2-1.5,2.1-1.8c1.9-0.7,4,0.7,4.9,2.5c0.8,1.8,0.7,3.9,0.6,5.9c-0.3,5.8-0.1,12.2,3.4,16.9
	c1.8,2.5,4.4,4.3,6.6,6.5c2.2,2.2,4.1,5.1,3.7,8.2c-0.1,1.2-0.6,2.4-0.5,3.6c0.1,1.2,1.2,2.5,2.3,2.2c0.6-0.1,1-0.6,1.6-0.8
	c1.2-0.3,2.2,0.9,2.8,1.9c2.3,3.6,4.7,7.1,7,10.7c0.6,1,1.3,2,2.3,2.5c1.7,0.9,3.7,0.2,5.7,0c5.7-0.5,10.7,3.4,14.6,7.6
	c1.6,1.8,3.2,3.7,4.4,5.8"/>
<path fill="none" stroke="#E1E1E1" stroke-miterlimit="10" d="M122.7,374.5c-0.9-3.5-2.2-6.8-4.5-9.4c-0.9-1-2.3,1.1-3.5,1.7
	c-1.7,0.8-3.6-0.7-4.7-2.3c-1.1-1.6-2.2-3.5-4.1-3.7c-1.8-0.2-3.4,1.3-5.2,1.6c-2.8,0.5-5.4-1.9-8.2-1.8c-1.9,0.1-3.9,1.4-5.7,0.6
	c-0.6-0.3-1-0.7-1.6-0.9c-1.9-0.8-3.8,1-5.4,2.3c-2.9,2.5-6.8,3.7-10.6,3.5c-0.6,0-1.3-0.1-1.9-0.4c-1-0.4-1.6-1.3-2.5-2
	c-1-0.8-2.3-1.3-3.5-1.8c-6.9-2.8-12.6-8-19.2-11.5c-0.4-0.2-0.9-0.5-1.4-0.5c-0.8,0-1.4,0.5-2,0.9c-3.3,2-7.5,0.9-11.1-0.3
	c-0.6-0.2-1.3-0.5-1.8-1c-0.5-0.6-0.6-1.3-0.6-2.1c-0.2-6.9,3.4-13.5,3-20.4c-0.2-3.3,0.4-7.7,0.1-11c-0.5-4.4-0.8-10.2-0.3-15
	c0.8-7.5-2.2-15.1-3.4-22.6c-0.4-2.2-0.6-4.4-0.5-6.6c0.2-6,2.9-11.6,5.4-17c3.8-7.9,7.8-16.1,14.5-21.7c5.6-4.7,13.3-7.8,15.9-14.6
	c1.3-3.4,1.1-7.1,0.6-10.7c-1.2-9.1-4-17.8-6.9-26.5c-3.4-10.3-9.1-28.8-10.6-30.7c-0.5-0.6-1.6,0.8-2.3,0.5c-2.2-0.9-4.1-2-6.5-1.7
	c-3,0.3-5.9,0.7-8.9,1c-1.4,0.2-2.9,0.3-3.9-0.6c-1.5-1.3-1.1-3.7-0.5-5.5c1.1-3.9,2.3-7.7,3.4-11.6c0.6-2.1,1.3-4.3,2.8-6
	s4.2-0.2,6-1.6c1.5-1.1-1.7-4.1-0.4-5.4c1.6-1.6,5.2,1,6.8-0.6c7-7.2-2.1-20.3-3.3-30.3c-2.2-18.6,5.2-38,19.1-50.5
	c0.7-0.6,1.5-1.2,2.3-0.9c0.6,0.2,1,0.8,1.3,1.4c2.1,4,3.1,8.9,6.8,11.5c5,3.5,11.8,1,17.3-1.6c1.9-0.9,3.8-1.8,5.2-3.3
	c2-2,3-4.7,3.8-7.3c4.9-14.9,8.3-30.2,10.1-45.8c0.1-0.6,0.1-1.1,0.2-1.7"/>
<path fill="none" stroke="#E1E1E1" stroke-miterlimit="10" d="M53.4,372.8c-2.3-2.2-4.5-4.5-6.8-6.7c-2.9-2.9-6.2-5.9-10.3-6.4
	c-3.8-0.5-8.3,1.3-11.2-1.2c-0.9-0.8-1.5-1.8-2.3-2.8c-1.5-2-3.6-3.6-5.3-5.5c-1.7-1.9-3.1-4.3-2.9-6.9c0.7-6.9-3.9-14-5.4-20.7
	c-0.5-2.1-0.7-4.2-0.9-6.4c-0.4-3.5-0.8-7.1-1.2-10.6c-1.2-11.1-2.5-22.1-0.1-33c0.7-3.4,1.5-6.7,2.6-10c2.2-6.6,5.9-12.7,10.2-18.2
	c2.7-3.4,5.7-6.5,8.8-9.6c4.1-4.2,8.4-8.4,13.2-11.7c3.2-2.2,7-4.5,7.5-8.4c0.2-1.9-0.4-3.7-1.1-5.5c-2.3-6.3-4.8-12.9-9.6-17.6
	c-5.1-5-12.4-7.5-17.3-12.8c-3.4-3.6-5.4-8.3-7.1-13c-1.9-5.2-3.6-10.9-2.2-16.2c0.8-2.8,2.4-5.4,3.9-7.9
	c5.5-9.3,9.7-19.3,12.4-29.8c0.9-3.6,0.4-7.6-0.5-11.2c-0.6-2.7-1.6-5.3-2.3-7.9C19,70.3,26,44.3,42.9,28c3.3-3.1,6.9-6,9.5-9.7
	c1.9-2.7,4.8-8.3,7.3-6.1c4.5,3.9,2.7,11.7,4.9,17.2c1.5,3.8,4.6,8.2,8.5,7.1c5.2-1.5,3.8-10.3,8.4-13.3c0.9-0.6,1.9-0.9,2.6-1.6
	c0.6-0.6,1.1-1.3,1.5-2.1c3-5.8,5.3-11.9,6.7-18.3c0.9-4,1.4-8.1,2.4-12"/>
<path fill="none" stroke="#E1E1E1" stroke-miterlimit="10" d="M32.5,373.1c-6.4-2.1-12.6-4.6-18.7-7.4c-1.2-0.6-2.4-1.1-3.5-2
	c-3.2-2.6-4.1-7.1-5.8-10.9c-1-2.2-2.2-4.3-3.6-6.2c-2.3-3.2-5.1-6.3-8.8-7.3c-1.5-0.4-3-0.4-4.4-0.8c-0.3-0.1-0.7-0.2-1-0.3"/>
<path fill="none" stroke="#E1E1E1" stroke-miterlimit="10" d="M156.2,374.5c3.2-13.4,5.4-27,5.2-40.6c0-1.9-0.1-3.9,0.4-5.8
	c0.3-1.1,0.7-2.1,0.8-3.2c0.2-2.5-1.2-4.9-2.6-7c-1.7-2.5-3.5-5.2-6.4-6.2c-1-0.4-2.3-0.2-3.2-0.8c-1.6-1.3-3.8-0.8-5.6-2
	c-1-0.7-3.1-0.7-4-1.5c-1.1-1-2.2-1.9-3.7-1.8c-2.6,0-5.2,0.4-7.7-0.1c-2.8-0.6-6.2-3.4-8.3-1.5c-0.7,0.7-0.9,1.9-1.8,2.2
	c-0.7,0.3-2.4,0-3,0.5c-4.4,3.6-9.4,4.6-13.5,8.5c-2.5,2.4-3.1,6.1-6.4,7.5c-5.1,2.2-11,2.4-16.3,0.8c-1.8-0.6-3.7-1.5-4.3-3.3
	c-0.2-0.6-0.3-1.3-0.3-1.9c-0.4-4.4-0.7-8.9-1.1-13.3c-1.3-15.6,8.2-31,14.2-45.4c1.5-3.7,3.2-7.4,4.9-11c1.1-2.3,2.2-4.6,3.8-6.4
	c1.6-1.8,3.8-3.2,6.1-3.9c1.5-0.5,3.1-0.6,4.6-0.3c1.1,0.3,2.1,0.8,3,1.4c5.5,2.9,11.4,4.8,17.3,6.6c1.4,0.4,2.8,0.9,4.2,0.7
	c2.1-0.3,3.8-1.8,5.4-3.2c7.5-6.5,16.1-11.5,25.2-15.2c0.9-0.4,2.6-1.2,3.5-1.5c4.7-1.4,9.6,1.5,14.5,1.6c3.5,0.1,6.9-0.9,10.3-1.8
	c2-0.6,4-1.1,6-1.7c1.9-0.5,3.9-1.1,5.1-2.6c0.8-0.9,1.2-1.9,1.9-2.9c1.6-2.3,4.7-3.4,7.5-2.8c2.7,0.6,3,4.4,5.4,5.8
	c1,0.6,2.3-0.2,3.1,0.5c0.5,0.4,0.9,0.9,1.3,1.4c1.4,1.3,3.7,1.4,5.2,0.4c1.4-1,2.2-2.8,3.9-3.3c2.4-0.7,4.3,2,4.9,4.4
	c0.1,0.6,0.2,1.2,0.6,1.7c1,1.3,2.8,1.9,4.4,2.4c7.4,2.1,5,7.8,15.7,6c3.5-0.6,7.2-3.1,7.5-6.7c0.1-1.2-0.2-2.6,0.5-3.6
	c1.1-1.5,3.8,0.9,5.2-0.3c1.5-1.3,2.2-3.3,4.2-2.7c1.9,0.6,3.4,2.1,5.4,2.7c1.6,0.5,3.3,0.4,4.9,0.2c4.9-0.5,10.5-1.3,13.1-5.5
	c2.2-3.5,1.5-8.4,4-11.8c0.6-0.9,1.4-2.1,0.7-2.8c-0.2-0.2-0.4-0.3-0.7-0.4c-1.4-0.8-1.9-2.8-1.5-4.4c0.4-1.6,1.4-3,2.3-4.4
	c5.5-8.6,8-18.9,8.3-29.1s-1.3-20.4-3.3-30.4c-0.6-3-1.3-6-1.7-9.1c-0.8-5.3-1.1-10.7-1.4-16.1c-0.1-2.7-1.4-6.1,0.6-8.1
	c1.1-1.1,2.7,1,3.2,2.5c0.5,1.4,0.7,3.1,1.9,4c1.6,1.3,3.9,0.4,5.9,0c3.9-0.7,7.9,0.6,11.1,2.9c3.2,2.3,5.7,5.4,8,8.6
	c6.5,9.2,11.6,19.2,16.7,29.3c1,2,2.1,4.1,3.1,6.1c1.9,3.8,4.2,7.6,5.8,11.7c1.6,4.3,0.6,12.1,3.8,15.4c2.2,2.3,3.6,4.4,4.4,6.3"/>
<path fill="none" stroke="#E1E1E1" stroke-miterlimit="10" d="M161.9,302.7"/>
<path fill="none" stroke="#E1E1E1" stroke-miterlimit="10" d="M179.2,375c-0.6-4.8-0.8-9.7-0.5-14.6c0.4-7.3,2-14.5,4.3-21.5
	c1.1-3.3,2.4-6.6,3.8-9.8c1.3-3,2.6-5.9,4-8.9c2.7-5.8,5.3-11.7,8-17.5c1.2-2.6,2.4-5.2,3.7-7.7c1.5-2.9,3.3-5.7,5.1-8.4
	c4.7-6.8,10.3-12.9,16.6-18.2c1.8-1.5,3.6-2.9,5.7-3.9c6-2.8,15.5-1.7,18.7,4.1c1.2,2.2,5,1.5,6.4,3.6c0.4,0.6,0.5,1.2,0.6,1.9
	c0.7,3.7,1.2,7.5,1.1,11.2c-0.1,2.9-0.6,5.7-0.9,8.6c-0.3,3.3-0.4,6.6-0.4,9.9c-0.1,7.3-0.5,19.1-0.3,19.4c0.6,0.8,1.2-0.7,1.7-1.5
	c0.1-0.2,0.6-0.2,0.8,0c0.7,0.5-0.1,1.8-0.1,2.7s0.9,2.1,1.6,1.6c0.4-0.3,1.5-1.8,1.7-2.2c1.1-2.2,1.3-4.6,2-7
	c0.2-0.7,0.5-1.6,1.3-1.8c0.9-0.2,1.9,0.7,2.8,0.4c0.7-0.3,0.9-1.3,1.6-1.7c0.7-0.5,1,0.2,1.5,0.9s0.7,1.6,0.9,2.5
	c0.1,0.7,0.3,1.5,0.4,2.2c0.1,0.5,0.8,1.1,1.2,1.3c0.4,0.2,1.1,0.3,1.4-0.1c0.7-1.1,0.7-2.6,1.1-3.9c0.1-0.2,0.1-0.5,0.3-0.7
	c0.3-0.3,0.9-0.3,1.3,0c0.8,0.5,1.2,1.5,1.3,2.4s-0.1,1.9-0.2,2.8c-0.2,1.7,0,3.4,0.6,5c1.5,4.4-1.5,9-1.3,13.7c0,0.5,0.1,1,0.3,1.5
	c0.2,0.4,0.8,0.8,1.3,0.7c0.7-0.2,0.9-1.1,1-1.9c0.4-4,1.7-7.9,2.5-11.9c0.2-1-0.1-3,0.2-3.9c10.1-28,29.1-53.2,42.3-80.6
	c8.1-16.7,17.9-33.1,32-45.1c2-1.7,4.3-3.9,3.8-6.5c-0.2-1.2-1-2.1-1.7-3c-4.5-6-6.7-13.4-9.6-20.4s-8.6-11.8-13.3-17.7
	c-6-7.5-6.4-18.2-9.2-27.3c-0.3-0.9-0.6-1.8-1.2-2.5c-1-1-2.5-1.1-3.9-1.2c-3.5-0.2-8,0.3-8.9,3.7c-0.5,2.1,0.7,4.2,1.4,6.3
	c0.7,2.3,0.6,4.8-0.3,7c-0.4,1.1-1,2.4-0.3,3.3c0.2,0.3,0.6,0.6,0.9,0.9c1.9,1.7,1,4.8,1.7,7.3c0.5,1.8,1.8,3.3,2.7,4.9
	c2.4,3.9,2.8,8.7,3.2,13.2c0.7,8.3,1.3,17.1-2.6,24.4c-1.3,2.5-3.2,4.9-3,7.7c0.1,1,0.4,2.1,0.3,3.1c-0.2,1.7-1.5,3-2.5,4.3
	c-3.7,5.2-2.7,12.3-4.5,18.5c-1,3.3-2.7,6.3-4.7,9.1c-1.1,1.5-2.3,3-3.9,4c-4.5,2.7-10.2,0.2-15.4,0.1c-4.3,0-8.3,1.7-12.4,3.1
	c-8.4,3-27,10.3-25.8,3.7c0.1-0.5-0.5-1-1-1.2c-7-2.4-14.2-4.1-21.5-5c-1.1-0.1-2.2-0.2-3.1,0.2c-0.8,0.3-1.4,1-2.2,1.4
	c-1.9,1.2-4.3,1.1-6.4,0.3c-2-0.8-3.7-2.3-5.3-3.9c-0.9-0.9-1.8-1.8-2.9-2.3c-2.2-1-4.7-0.2-7,0.4c-4.6,1.3-9.4,2-14.1,2.2
	c-6.2,0.2-12.7,0.5-17.7,4.2c-0.8,0.6-2.5,1.4-3.4,1.8c-7.5,3.2-11.5,11.9-19,15.1c-1.8,0.8-3.8,1.2-5.8,1.6
	c-3.8,0.7-8.1,4.3-11.3,2.2c-1.2-0.8-1.7-2.4-3.1-2.5c-1.4-0.1-2.8,0.4-4.2,0.9c-7.9,3.1-15.6,7.2-21,13.8
	c-2.6,3.2-4.5,6.8-6.4,10.4c-3.5,6.7-9.8,14.3-7.8,21.6c0.8,2.8,2.7,5.3,2.6,8.2c-0.1,1.1-0.2,2.5,0.8,3.1c0.3,0.2,0.7,0.3,1.1,0.3
	c2.1,0.3,4.2,0.4,6.2-0.2c2-0.6,3.9-1.8,4.9-3.6c1.1-2.1,0-4.7,0.9-6.9c1.1-2.6,5.3-6.5,7.6-5c1,0.7,2,1.8,2.7,0.7
	c0.3-0.4,0.3-1,0.5-1.4c0.2-0.5,0.6-0.8,1-1.1c2.8-2.2,5.8-4,9.1-5.3c0.6-0.3,1.3-0.5,2-0.6c1.6-0.2,3.3,0.4,4.9,0.7
	c4.4,0.8,8.9-0.7,13.2-1.9c3-0.9,6.7-1.5,9,0.7c0.5,0.5,0.9,1.2,1.4,1.8c2.3,3.4,5.7,6.1,9.5,7.6c1.6,0.6,5.3-1.3,7.5,0
	c0.5,0.3-0.2,1.4,0.3,1.8c2.1,1.8,5.9-1.4,8.2,0c3,1.8-0.1,6.8-1.1,10.1c-0.9,3.1-1.1,6.3-1.3,9.4c-0.5,8.1-1,16.2-1.4,24.3
	c-0.5,8.9-1.1,17.9-4,26.4"/>
<path fill="none" stroke="#E1E1E1" stroke-miterlimit="10" d="M54-10.3c-0.5,0.7-1,1.5-1.3,2.3c-0.3,0.8-0.5,1.7-1,2.4
	c-1,1.3-3.1,1.4-4.5,0.6S45.4-8,44-8.8c-4.9-2.7-11,2.8-15.1,6.7c-1.1,1-2.1,2.6-1.4,3.9c0.4,0.6,1.1,1,1.4,1.7
	c0.9,1.7-1,3.4-2.3,4.6c-2.1,1.9-3.5,4.6-4,7.4c-0.1,0.8-0.2,1.8-0.8,2.4c-1,1.2-2.9,0.8-4.5,1c-4,0.6-5.9,5.1-7.1,8.9
	c-1.3,4.2-2.6,8.7-1.6,13c0.4,1.8,1.3,3.6,1.5,5.5c0.2,2.2-0.4,4.4-1,6.5c-2.1,7.4-3.5,15-2.8,22.7s6.2,13.4,9,20.5
	c3.8,9.8,3.8,21.1-0.1,30.9c-2.9,7.4-7.9,13.8-12.2,20.5c-2,3.1-3.9,6.3-5.6,9.6c-1.3,2.4-2.5,5-2.6,7.8c-0.1,4.3,2.5,8.8,0.6,12.7
	c-0.7,1.4-1.9,2.5-2.6,3.9c-0.7,1.4-1.1,2.9-1,4.5c0.3,6.1-3,12.8-1.4,13.2c2,0.5,3.4-3.8,5.4-3.1c1.9,0.6,3.6,3.7,5.1,5.1
	c1.9,1.8,4.5,3.7,4.9,6.2c0.2,1.4-0.4,2.4,0.8,3.2c0.7,0.4,1.4,1.2,2.1,1.6c1.3,0.8,0.9,3-0.4,4s-2.9,1.1-4.4,1.7
	c-5,1.8-7.7,7-10.8,11.3c-1.7,2.3-4.1,4.5-6.7,5.6"/>
<path fill="none" stroke="#E1E1E1" stroke-miterlimit="10" d="M84.7-8.6c-1,1.7-2.1,3.3-3.5,4.8c-1.4,1.4-3.3,2.2-5.1,3
	C74.3,0,71.4,1.5,70,0.1c-0.8-0.8-1.7-2.7-2-3.8c-0.4-1.2-0.2-3.6-0.6-5.7"/>
<path fill="none" stroke="#E1E1E1" stroke-miterlimit="10" d="M120.2,275.2c0.2-1.5-1.5-2.7-3-2.6s-2.8,0.9-4.1,1.7
	c-2.4,1.5-5.1,5.3-7.6,3.9c-1.3-0.7-2.2-2.1-3.6-1.5s-2.1,2.1-2.4,3.6c-0.3,1.5-0.3,3-0.6,4.4c-0.7,3.2-3,5.7-4.8,8.4
	c-1.8,2.7-3.2,6.1-2,9.1c0.6,1.5,1.8,3.3,0.7,4.4c-0.3,0.4-0.8,0.5-1.2,0.9c-1.4,1.4-1.2,3.7-1.2,5.7c0,2.1,4.4,0.3,5.3-1.6
	s-1.2-4-0.7-6c0.9-3.4,6.2-3.9,7.4-7.2c0.4-1.2,0.6-2.4,0.8-3.6c0.6-2.8,0.9-8.8,3.7-7.8c0.9,0.3,0.1,2.2,1,2.6
	c1.3,0.5,2.3-1.1,2.8-2.4c0.5-1.3,2.4-3,3-1.8c0.3,0.5-0.2,1.3,0.2,1.7c1.5,1.7,4.8-0.3,6.2-2.1c1.4-1.8,1.5-4.5,0.3-6.5
	c-0.3-0.5-0.6-0.9-0.7-1.4C119.8,276.3,120.1,275.7,120.2,275.2z"/>
<path fill="none" stroke="#E1E1E1" stroke-miterlimit="10" d="M110.8,290.1c-0.1,0.1-0.2,0.2-0.2,0.3c-0.4,0.6-0.7,1.3-0.6,2
	s1,1.4,1.5,1c0.6-0.5,1-1.3,1.1-2c0.1-0.8-0.6-1.6-1.4-1.5C111,289.9,110.9,290,110.8,290.1z"/>
<path fill="none" stroke="#E1E1E1" stroke-miterlimit="10" d="M163.5,256.3c-3.1,1-5.7,3.2-8.3,5.2c-5.2,4.1-10.8,7.6-16.4,11.2
	c-2.3,1.5-4.7,3-7.4,3.9c-1,0.3-2.1,0.6-2.8,1.4c-0.4,0.5-0.6,1.1-0.7,1.6c-0.5,1.6-1.7,3.2-1.4,4.8c0.2,1.1,0.7,2.3,0,3.3
	c-0.2,0.3-0.6,0.6-0.5,1c0.1,0.4,0.5,0.6,0.8,0.8c1.4,0.6,2.8,2.4,4.1,1.8c0.6-0.3-0.6-1-0.7-1.6c-0.6-2.1,3.3-3.3,3.9-5.4
	c0.5-1.7-2-4.5-0.4-5.2c2.7-1,5,2.6,7.8,2.8c4.7,0.4,9.5,0.7,14.2,1.1c1.7,0.1,3.3,0.9,4.9,1.5c6.6,2.5,14.4-1.9,20.6-5.2
	c11-5.9,18.9-16.2,26.4-26.1c1-1.4,3.8-2.9,2.8-4.3c-1.4-2-4.2-1.9-5.5-4c-1.3-2-2.6-4.3-4.8-5c-1.5-0.4-3.1-0.1-4.6,0.4
	C183.9,243.5,175,252.6,163.5,256.3z"/>
<path fill="none" stroke="#E1E1E1" stroke-miterlimit="10" d="M142.2-9.7c1.4,4.9,0.4,10.1,0.4,15.2c0,0.6,0,1.2,0.3,1.7
	c0.7,1.2,2.4,1.2,3.7,0.7c1.3-0.5,2.4-1.4,3.7-1.6c2.2-0.3,4.4,1.5,5.2,3.6s0.6,4.5,0.2,6.7c-0.9,6-2.3,11.9-2.9,17.9
	c-1.7,16,2.6,32.1,1,48.1c-1,10.1-8.5,26.3,1,29.8c0.7,0.3,1.4-1,2.1-0.7c1.4,0.5,1,3.2,2.2,4c1.5,0.9,3.1-1.4,4.8-1.6
	c2-0.3,3.2-0.7,4.2-2.5c1-1.8,1.8-4,3.7-4.6c0.8-0.3,1.8-0.3,2.5-0.8c0.5-0.3,0.7-0.8,1-1.3c2.1-3.5,4.3-7,6.6-10.5
	c2-2.9,4-5.8,6.9-7.9c2.9-2,6.5-1,10-1.7c4.4-1,7.8-4.4,11.6-6.8c3.3-2,6.2-8.2,9.4-6c1.3,0.9,0.4,4.1,1.9,4.2
	c1.1,0.1,1.8-1.4,2.8-1.2c1.1,0.3,1.2,1.5,1.9,2.4c0.6,0.8,1.6-0.9,2-1.8c0.9-2.2,3.2-4.2,5.5-3.8c1.5,0.3,2.6,1.4,3.6,2.4
	c2.4,2.5,3.4,7.1,6.8,7.8c1.7,0.4,3.5-0.3,5,0.7c0.3,0.2,1.1,0.5,1.5,0.6c5.1,0.5,10.5,0.4,14.7,3.3c1.8,1.2,4.2,4,6,2.6
	c2-1.6,2.3-4.7,3.8-6.9c2-2.9,3.9-5.8,5.9-8.8c1.5-2.3,3.6-4.8,6.3-4.5c0.6,0.1,1.3,0.3,1.9,0.2c1.8-0.3,2.2-2.6,3-4.2
	c0.7-1.5,2-2.7,2.9-4.2c1.4-2.4,1.5-5.3,1.8-8.1c0.8-9.8,3.5-19.4,7.9-28.2c0.6-1.1,1.1-2.2,2.1-3.1c1.6-1.5,3.9-1.9,6-1.8
	c2.2,0,4.4,0.5,6.1,1.8c3.3,2.5,3.6,7.2,4.7,11.2c1.8,7,6.4,12.9,10.8,18.6c1.3,1.7,2.6,3.3,3.9,5c0.7,0.9,1.4,1.8,2.1,2.7
	c2.3,3,4.6,5.9,6.9,8.9c2.1,2.7,4.2,5.4,6.4,8.1c1.1,1.4,2.2,2.9,3.7,3.9c3.5,2.6,8.5,2.8,11.8,5.7c0.2,0.1,0.3,0.3,0.5,0.5"/>
<path fill="none" stroke="#E1E1E1" stroke-miterlimit="10" d="M108.2-8.7c-0.1,0.4-0.1,0.8-0.1,1.3c-0.6,6.3-1.1,12.6-1.7,18.8
	c-0.7,7.4-1.4,14.9-3.6,21.9s-6,13.9-11.9,18.4c-7.7,5.8-18.6,7-27.3,3C62.7,54.4,62,54,61.2,54c-0.8,0-1.6,0.5-2.2,0.9
	c-4.5,3.2-7.5,8.2-9.3,13.4c-1.8,5.2-2.4,10.8-3.1,16.3c-1.1,9.1-2.1,18.6,0.7,27.3c0.3,1.1,0.7,2.1,1.5,2.9
	c0.9,1.1,2.3,1.7,3.6,2.3c3.9,1.7,7.8,3.4,12,3.5c4.2,0.1,8.3-1.5,12.3-3c3.6-1.4,7.2-2.8,10.8-4.3c2.5-1,4.9-1.9,7.1-3.5
	c2.6-1.9,4.5-4.5,6.4-7c2.8-3.8,5.6-7.8,7.1-12.3c1.1-3.2,1.6-6.5,2.1-9.8c2.8-19.7,5.6-39.5,8.4-59.2c0.6-4.3,1.2-8.7,0.9-13
	c-0.2-2.7-0.7-5.3-1.2-8c-0.6-3.1-1.2-6.2-1.9-9.3"/>
<path fill="none" stroke="#E1E1E1" stroke-miterlimit="10" d="M52,97.8c-0.9,1.5-1.7,3.3-1.1,4.9c0.5,1.2,1.6,2,2.7,2.7
	c3.6,2.3,7.4,4.7,11.6,5.3c7.1,1.1,13.9-2.8,19.4-7.4c4.2-3.5,7.9-7.5,10.6-12.3c2.6-4.6,4.1-9.8,5.5-15c2.5-9.9,4.5-19.9,5.8-30
	c0.2-1.2,0.1-2.8-1-3.3c-0.7-0.4-1.6-0.1-2.3,0.4c-2.1,1.2-3.3,3.4-4.7,5.4C92,57.3,80.3,62,69.5,60.1c-0.9-0.2-1.8-0.3-2.6,0.1
	c-0.6,0.3-0.9,0.8-1.3,1.4c-2,3-4,6.1-6.1,9.1c-2.7,4.1-5.6,8.8-4.7,13.7c0.3,1.3,0.8,2.6,0.9,3.9C56.2,91.7,53.8,94.8,52,97.8z"/>
<path fill="none" stroke="#E1E1E1" stroke-miterlimit="10" d="M81.3,63.2c-2.5,0.8-5.1,2-6.5,4.3c-0.8,1.3-1,2.7-1.5,4.1
	c-1.5,4.5-5.4,8-6.9,12.5c-1.3,3.7-1.2,8.1-4,10.7c-1.3,1.2-2.9,1.8-4.4,2.7c-1.5,0.9-4.2,2.8-2.9,4c3.4,3.3,9.2,2.1,13.8,3.1
	c3.7,0.8,7.9,0.8,11.2-1.2c2.1-1.3,3.7-3.9,2.5-6c-0.4-0.7-1-1.2-1.3-1.9c-0.4-1.2,0.3-2.4,0.9-3.5C88.4,81.7,95.9,61,94,58.3
	C93.7,57.8,88.2,61,81.3,63.2z"/>
<path fill="none" stroke="#E1E1E1" stroke-miterlimit="10" d="M70,101.7c1.3,0.1,2.7,0.3,4-0.1c1.8-0.5,3.4-1.7,4.8-3
	c0.2-0.2,0.4-0.3,0.5-0.6c0.2-0.4-0.1-0.9-0.5-1.1c-0.4-0.2-0.8-0.3-1.3-0.4c-0.5-0.1-1.3,0.2-1.6-0.2c-0.6-0.8-0.4-2-1.3-2.4
	c-0.2-0.1-0.4-0.2-0.7-0.1c-0.3,0.1-0.5,0.3-0.7,0.4c-1.9,1.8-3.8,3.9-4.2,6.4c0,0.3,0,0.6,0.1,0.8C69.5,101.7,69.8,101.7,70,101.7z
	"/>
<path fill="none" stroke="#E1E1E1" stroke-miterlimit="10" d="M188.2,373.7c1.2-7.2,3.3-14.2,6.2-20.8c1.8-4.1,3.9-8,5.9-12
	c3.6-6.9,7.3-13.9,10.9-20.8c1.1-2.1,2.2-4.2,3.5-6.1c1.2-1.8,2.5-3.5,3.9-5.2c3.7-4.7,8.4-14.5,11.2-14c1.2,0.2-0.4,2.8,0.5,3.5
	c0.8,0.5,2-1.1,2.8-0.6c2.6,1.7,1.4,6.1,2.1,9.1c0.4,1.8,0.9,3.6,2.1,4.9c1.2,1.3,3.1,0.2,4.9,0.7c4.4,1.4,0.4,9.1,0.3,13.7
	c-0.1,2.5,0.1,5,0.3,7.5c0.2,2.6,0.3,5.2,0.5,7.8c0.2,3.2,0.4,6.5,1.7,9.4c0.2,0.5,0.5,1.1,1,1.4c1.3,0.8,2.9-0.6,3.6-1.9s2-4,3.2-3
	c1.4,1.1-0.6,4.3,0.9,5.2c5.1,3.2,6-15.1,11.8-13.2c1.8,0.6-0.6,4,0.6,5.5c0.3,0.4,1.1-0.3,1.6,0c2.1,1.3,0.5,4.9,0.5,7.5
	c-0.1,3.8-0.2,9.3,3.3,10.7c0.8,0.3,1.9-1.1,2.6-0.6c3.2,2.4,0.1,8-0.2,12"/>
<path fill="none" stroke="#E1E1E1" stroke-miterlimit="10" d="M202.8,372.7c2.9-5,1.6-12.1,5.9-16.1c1-1,2.3-1.6,3.3-2.5
	c4.5-3.8,3.5-15.4,9.4-14.8c3.1,0.3-1.4,6.8,0.8,9c1.7,1.7,4.8,0.3,7,1.3c1.7,0.7,2.5,2.6,3.4,4.2c1.1,1.9,2.6,3.5,4.1,5
	c3.1,3.3,6.7,6.9,11.2,7.2c3.8,0.2,6.9-5.2,10.4-3.9c3.6,1.3,1.5,7.6,0.9,11.5"/>
<path fill="none" stroke="#E1E1E1" stroke-miterlimit="10" d="M165.2,274.5c2.2-0.1,4.2-0.9,6.3-1.3c2.1-0.5,4.2,1.3,6.3,0.6
	c1.1-0.4,0-2.4,0.4-3.4c2-4.8,7.5-7.4,10.4-11.8c1.1-1.6,2.1-3.3,3.4-4.7c1.7-1.9,5.4-4.6,3.6-6.3c-2.8-2.5-7.3,1.6-10.3,3.9
	c-3,2.2-5.7,5-8.8,7.1c-3.8,2.6-8.3,4.1-12.1,6.6c-3.8,2.5-9.1,6.9-7.2,11.1c0.6,1.3,2.4-0.6,3.6-1.3
	C162.1,274.2,163.7,274.5,165.2,274.5z"/>
<path fill="none" stroke="#D6D6D6" stroke-miterlimit="10" d="M267.4,161.3c-2.5,0.5-6.1,2.3-7,4.7c-0.8,2.2-0.8,5-2.7,6.3
	c-1,0.7-2.5,0.8-3.3,1.8c-1,1.3,0.3,3.5-0.6,4.9c-0.2,0.4-1.4,2.5-1.8,2.8c-0.6,0.5-0.9,3.7-0.8,5.6c0.1,1.9-0.6,3.4-0.2,5.2
	c0.1,0.4,0.9,2,1.1,2.4c1.3,2.1,1.8,3.2,3.9,4.3c0.7,0.4,1.3,0.6,1.9,1.1c1.4,1.1,2,3.1,1.4,4.8"/>
<path fill="none" stroke="#D6D6D6" stroke-miterlimit="10" d="M276.1,169.4c-0.2-1.8-0.4-3.1,0.8-4.5c0.4-0.5,0.9-0.8,1.2-1.3
	c0.6-0.8,0.7-1.8,1.2-2.6c0.7-1.1,1.9-1.8,2.2-3"/>
<path fill="#EAEAEA" stroke="#D6D6D6" stroke-miterlimit="10" d="M259.2,205.2c-0.3,0.4-0.4,0.8-0.4,1.3c-0.2,1.4,0,3.1,1,4.2
	c0.7,0.7,1.8-0.3,2.3-1c0.9-1.1,2.7-1.9,2.6-3.3c-0.1-1.1-1.6-1.5-2.6-1.8S259.8,204.3,259.2,205.2z"/>
<path fill="#EAEAEA" stroke="#D6D6D6" stroke-miterlimit="10" d="M277.3,170.4c-0.2-0.2-0.4-0.3-0.7-0.4c-1.3-0.6-3-2.8-4-1.7
	c-1.3,1.3,0.2,3.8,1.2,5.3c0.9,1.4,3.5-0.4,3.7-2.1C277.6,171.1,277.5,170.7,277.3,170.4z"/>
<path fill="#EAEAEA" stroke="#D6D6D6" stroke-miterlimit="10" d="M284.4,159.7c0.2,0.7,0.9,1.2,1.6,1.2c0.7,0.1,1.4-0.3,1.8-0.9
	c0.3-0.6,0.3-1.2,0.2-1.9c-0.2-1.5,0.3-3-0.2-4.5c-0.3-0.7-0.6-1.5-1.1-2.1c-0.5-0.6-1.5-1.4-2.1-0.9c-1.8,1.8-2.4,4.7-3.5,7.4
	c-0.3,0.8,1.5-0.6,2.3-0.4C284.2,157.9,284.1,159,284.4,159.7z"/>
<path fill="none" stroke="#D6D6D6" stroke-miterlimit="10" d="M272.9,168c0.1-1.1,0.7-1.6,0.1-2.6c-0.6-0.9-2.2-0.2-3-0.9
	c-2.2-1.8-4.5-6.8-4.5-9.4c0-1,1.6,0.7,2.6,0.9c1.4,0.3,1.5-2.4,1.2-3.8c-0.3-1.4-1.1-2.6-1.6-3.9c-1.6-3.6-1.6-7.7-1.5-11.6
	c0-1.6,0-3.2,0-4.8c0-0.6,0-1.3,0.2-1.8c0.3-0.7,0.9-1.3,1.5-1.8c2.7-2.6,5.5-5.6,5.9-9.3c0.3-2.9-1-5.8-1.8-8.6
	c-0.8-2.8-1-5.8-1.3-8.7c-0.3-3.4,0.6-6.8,0.3-10.2c-0.7-9.1-0.9-18.1-0.2-27.1c0.3-3.6-0.3-7.2-0.9-10.8
	c-0.9-5.6-4.7-11.2-3.5-16.8c0.9-4-0.6-7.7-2-11.6c-1.4-4-2.8-8-4.3-11.9c-0.7-1.8-0.8-4.6-1.9-6.2c-1.1-1.6-3.4-1.9-5.3-2
	c-1.3-0.1-6,1.1-6.6,0c-0.6-1-0.4-2.8-0.2-3.9c0.3-1.4,0.6-2.7,0.9-4c0.4-1.4,0.7-2.9,1.1-4.3c0.1-0.3,0.2-0.7,0.3-1
	c0.2-0.5,0.6-1,0.6-1.6"/>
<path fill="none" stroke="#D6D6D6" stroke-miterlimit="10" d="M262.2,19.5c-0.9,0.8-2.8,2.2-3.9,2.8c-1.3,0.7-2.7,1.4-3.5,2.6
	c-0.3,0.5-0.5,1-0.7,1.5c-0.6,1.1-1.9,1.7-2.5,2.8c-1.2,2.4,0.1,5.4,0.1,8.1c0.2,6.2,0.4,12.5-0.7,18.6c-0.3,1.6-0.7,3.3-1,4.9
	c-1,4.6-2.1,9.1-3.7,13.5c-1.2,3.2-2.8,6.5-2.2,9.9"/>
<path fill="none" stroke="#D6D6D6" stroke-miterlimit="10" d="M266.5,32.6c3.8,1,7.8,2.3,11.8,3.9c1.4,0.6,2.9,1.9,4.4,2.5
	c3.4,1.4,6.9,1.6,10,3.7"/>
<path fill="none" stroke="#D6D6D6" stroke-miterlimit="10" d="M266.4,38.1c4.6,2.4,10,5.4,14.6,7.8c1,0.5,2.1,1.1,2.8,2
	c0.7,0.9,1,1.9,1.3,3c1.4,5,2.7,10,3.1,15.1"/>
<path fill="none" stroke="#4E9BD7" stroke-miterlimit="10" d="M161.6,160.8c-1.9-1.6-4.7-3.4-5.6-5.8c-0.2-0.5-0.2-1-0.5-1.5
	c-0.4-0.8-1.7-1-1.8-1.8c-0.5-2.8,0-7,1.3-10.2c0.3-0.7,0.6-1.5,0.8-2.3c0.2-1,0-2-0.1-3.1c-1-7.7,0.2-16.8,4.4-23.5
	c2.6-4.1,5.1-7.1,6.4-11.9c0.5-1.8,0.6-3.7,1.2-5.5c0.6-1.7,1.5-3.2,2.1-4.8c0.6-1.7,0.8-3.5,1-5.3c1.7-10.5,7.6-19.8,13.4-28.7
	c5.2-8.1,10.5-16.2,15.7-24.3c5-7.8,10.1-15.6,16.8-22c2.2-2.1,4.5-4,6.4-6.4c2.8-3.7,4.2-8.3,5.5-12.8"/>
<path fill="none" stroke="#D6D6D6" stroke-miterlimit="10" d="M367.4,285.9c-0.5,1.9-0.9,3.7-1.4,5.6c-0.6,2.4-1.2,4.7-1.8,7.1
	c-0.6,2.5-1.3,5.1-2.6,7.3c-0.9,1.5-2.1,2.9-3.2,4.3c-3.5,4.5-4.6,10.3-7.3,15.4c-1.1,2.1-3.5,3.2-5.2,4.9c-0.8,0.8-1.6,1.7-2.1,2.7
	c-0.8,1.5-0.8,3.4-1.5,4.9c-0.8,1.9-2.6,3.2-3.2,5.2c-0.3,0.8-0.3,1.7-0.4,2.5c-0.2,1.8-0.8,3.5-1.4,5.2c-2.8,8-5.9,16-9.2,23.9"/>
<path fill="#7BBCEB" stroke="#4E9BD7" stroke-miterlimit="10" d="M172.9,192.7c1.2,0.7,2.9,1.3,3.1,2.7c0.1,0.8-0.4,1.6-0.3,2.5
	c0.1,0.6,0.6,1.1,1.1,1.6c0.8,0.7,1.6,1.5,2.6,1.9c1.1,0.4,2.4,0.2,3.6,0c2.4-0.4,5-1,6.2-3c0.7-1.2,0.8-2.7,0.8-4.1
	c0.1-3.6,0.2-7.3,0.3-10.9c0-1,0-1.9-0.1-2.9c-0.4-2.3-2-4.2-3.5-6c-0.6-0.8-1.3-1.5-1.9-2.3c-1.1-1.3-2.1-2.6-3.3-3.7
	c-3.6-3.5-7.2-4.8-11.9-6.3c-2.2-0.7-6.1-2.7-7.8-1.3c-1.4,1.1-0.7,3.5-0.3,5.3c0.6,2.9,1.6,5.6,3,8.2c1.2,2.3,2.6,4.5,2.8,7.1
	c0.1,1.4-0.3,2.8,0,4.1c0.3,1.4,1.2,2.6,2.1,3.7C170.4,190.6,171.5,191.9,172.9,192.7z"/>
<path fill="none" stroke="#D6D6D6" stroke-miterlimit="10" d="M232.7,279.3c-0.7,2.6-1.4,5.3-2,7.9c-0.7,2.8-1.4,5.5-1.9,8.3
	c-0.6,3.4-0.8,6.8-1.1,10.2c-1.7,18.7-6.6,37.1-14.6,54.1c-0.4,0.8-0.8,1.7-0.8,2.6c-0.1,2.4,2.2,4.2,4.5,5.1c0.4,0.1,0.7,0.3,1,0.6
	c0.3,0.3,0.3,0.8,0.3,1.3c0.1,1.6,0.1,3.2,0.2,4.8"/>
<path fill="none" stroke="#D6D6D6" stroke-miterlimit="10" d="M255.2,374.1c0.5-10.5,6.7-19.8,8.6-30.1c0.3-1.5,0.5-2.9,0.7-4.4
	c0.8-5.8,1.5-11.6,2.3-17.4"/>
<path fill="#FFFFFF" stroke="#4E9BD7" stroke-miterlimit="10" d="M182.9,197.5c-0.5,0.5-1.4,0.5-2.1,0.4c-0.7-0.1-1.5,0.2-2-0.2
	c-0.4-0.3-0.3-0.9-0.3-1.4c0-0.5,0.3-1,0.8-1.2c0.5-0.2,1.2,0,1.7-0.2c0.2-0.1,0.4-0.3,0.5-0.4c1-0.9,2.5-1.3,3.7-0.8
	c0.8,0.4,1.3,1.1,1.6,1.9c0.3,0.6,0.4,1.6-0.2,1.9c-1,0.6-2.3-1.2-3.3-0.5C183.2,197.2,183.1,197.4,182.9,197.5z"/>
<path fill="none" stroke="#585858" stroke-miterlimit="10" stroke-dasharray="4,1" d="M-12.3,40.2c4.4-6.6,7.4-14.4,10-21.9
	c0.6-1.6,1.1-3.1,1.8-4.6c1.3-2.4,3.2-4.4,5.1-6.2C10.5,1.8,16.8-3.4,23.2-8.6"/>
<text transform="matrix(1 0 0 1 320.8468 123.0568)"><tspan x="0" y="0" fill="#585858" font-family="'Verdana-Italic'" font-size="8">Unicorn</tspan><tspan x="0" y="9.6" fill="#585858" font-family="'Verdana-Italic'" font-size="8">Peak</tspan></text>
<text transform="matrix(1 0 0 1 294.0466 261.8574)" fill="#585858" font-family="'Verdana-Italic'" font-size="8">Cockscomb</text>
<text transform="matrix(1 0 0 1 293.2468 273.0572)" fill="#585858" font-family="'Verdana-Italic'" font-size="8">11065</text>
<text transform="matrix(1 0 0 1 290.246 127.8572)" fill="#585858" font-family="'Verdana-Italic'" font-size="8">10823</text>
<path fill="none" d="M311.2,324.7c12.9-20,21.4-42.5,32.3-63.6"/>
<text transform="matrix(0.435 -0.9004 0.9004 0.435 327.4631 300.475)"><tspan x="0" y="0" fill="#7D7D7D" font-family="'Verdana-Italic'" font-size="7">1</tspan><tspan x="4.5" y="0" fill="#7D7D7D" font-family="'Verdana-Italic'" font-size="7" rotate="-0.4">0</tspan><tspan x="8.9" y="0" fill="#7D7D7D" font-family="'Verdana-Italic'" font-size="7" rotate="-0.7">2</tspan><tspan x="13.4" y="-0.1" fill="#7D7D7D" font-family="'Verdana-Italic'" font-size="7" rotate="-0.8">0</tspan><tspan x="17.8" y="-0.2" fill="#7D7D7D" font-family="'Verdana-Italic'" font-size="7" rotate="-0.8">0</tspan></text>
<path fill="none" d="M335.7,151.1c4.7,5.9,10.4,10.7,13.3,17.7s5.1,14.3,9.6,20.4"/>
<text transform="matrix(0.6337 0.7736 -0.7736 0.6337 340.3313 160.3041)"><tspan x="0" y="0" fill="#7D7D7D" font-family="'Verdana-Italic'" font-size="7">1</tspan><tspan x="4.2" y="0" fill="#7D7D7D" font-family="'Verdana-Italic'" font-size="7" rotate="5.7">0</tspan><tspan x="8.3" y="0.3" fill="#7D7D7D" font-family="'Verdana-Italic'" font-size="7" rotate="14.5">6</tspan><tspan x="12.4" y="1.5" fill="#7D7D7D" font-family="'Verdana-Italic'" font-size="7" rotate="18">0</tspan><tspan x="16.7" y="2.9" fill="#7D7D7D" font-family="'Verdana-Italic'" font-size="7" rotate="17.8">0</tspan></text>
<text transform="matrix(1 0 0 1 76.906 96.3851)"><tspan x="0" y="0" fill="#585858" font-family="'Verdana-Italic'" font-size="8">Cathedral</tspan><tspan x="0" y="9.6" fill="#585858" font-family="'Verdana-Italic'" font-size="8">Peak</tspan></text>
<text transform="matrix(1 0 0 1 77.9207 285.4305)"><tspan x="0" y="0" fill="#585858" font-family="'Verdana-Italic'" font-size="8">Echo</tspan><tspan x="-4.1" y="9.6" fill="#585858" font-family="'Verdana-Italic'" font-size="8">Peaks</tspan></text>
<text transform="matrix(1 0 0 1 48.2468 100.8405)" fill="#585858" font-family="'Verdana-Italic'" font-size="8">10911</text>
<path fill="none" d="M107.9,237.8c1.1,0.3,2.1,0.8,3,1.4c5.5,2.9,11.4,4.8,17.3,6.6c1.4,0.4,2.8,0.9,4.2,0.7"/>
<text transform="matrix(0.8918 0.4525 -0.4525 0.8918 108.5828 240.8505)"><tspan x="0" y="0" fill="#7D7D7D" font-family="'Verdana-Italic'" font-size="7">1</tspan><tspan x="4.6" y="0" fill="#7D7D7D" font-family="'Verdana-Italic'" font-size="7" rotate="-4.2">0</tspan><tspan x="9.2" y="-0.4" fill="#7D7D7D" font-family="'Verdana-Italic'" font-size="7" rotate="-7.1">4</tspan><tspan x="13.7" y="-0.9" fill="#7D7D7D" font-family="'Verdana-Italic'" font-size="7" rotate="-8.9">0</tspan><tspan x="18.1" y="-1.6" fill="#7D7D7D" font-family="'Verdana-Italic'" font-size="7" rotate="-9.5">0</tspan></text>
<path fill="none" d="M110.1,80.8c2.8-19.7,5.6-39.5,8.4-59.2"/>
<text transform="matrix(0.1411 -0.99 0.99 0.1411 114.363 68.7265)"><tspan x="0" y="0" fill="#7D7D7D" font-family="'Verdana-Italic'" font-size="7">1</tspan><tspan x="4.4" y="0" fill="#7D7D7D" font-family="'Verdana-Italic'" font-size="7">0</tspan><tspan x="8.9" y="0" fill="#7D7D7D" font-family="'Verdana-Italic'" font-size="7">2</tspan><tspan x="13.4" y="0" fill="#7D7D7D" font-family="'Verdana-Italic'" font-size="7">0</tspan><tspan x="17.8" y="0" fill="#7D7D7D" font-family="'Verdana-Italic'" font-size="7">0</tspan></text>
<text transform="matrix(0.819 0.5738 -0.5738 0.819 76.3364 191.951)" fill="#585858" font-family="'Verdana-Italic'" font-size="10" letter-spacing="4">CATHEDRAL</text>
<text transform="matrix(0.9798 0.2002 -0.2002 0.9798 212.6158 252.0498)" fill="#585858" font-family="'Verdana-Italic'" font-size="10" letter-spacing="4">RANGE</text>
<text transform="matrix(1 0 0 1 135.0679 173.6792)"><tspan x="0" y="0" fill="#7BBCEB" font-family="'Verdana-Italic'" font-size="8">Budd</tspan><tspan x="1.8" y="9.6" fill="#7BBCEB" font-family="'Verdana-Italic'" font-size="8">Lake</tspan></text>
<path fill="none" d="M170.6,139.8c2.2-2.1,4.3-4.2,5.8-6.9c1.1-2,1.7-4.1,2.4-6.3c2-6.4,4.8-12.5,8.2-18.2"/>
<text transform="matrix(0.4851 -0.8745 0.8745 0.4851 177.4958 136.2518)"><tspan x="0" y="0" fill="#7D7D7D" font-family="'Verdana-Italic'" font-size="7">1</tspan><tspan x="4.9" y="-0.1" fill="#7D7D7D" font-family="'Verdana-Italic'" font-size="7" rotate="-10.8">0</tspan><tspan x="9.3" y="-1" fill="#7D7D7D" font-family="'Verdana-Italic'" font-size="7" rotate="-9.9">0</tspan><tspan x="13.5" y="-1.8" fill="#7D7D7D" font-family="'Verdana-Italic'" font-size="7" rotate="-7.1">0</tspan><tspan x="17.8" y="-2.3" fill="#7D7D7D" font-family="'Verdana-Italic'" font-size="7" rotate="-4.2">0</tspan></text>
<path fill="none" d="M290,38.8c0.4-3.4,2.3-6.4,4.1-9.4c3.1-4.9,6.1-9.8,9.2-14.7c2.5-4,5.9-8.6,10.6-8.6"/>
<text transform="matrix(0.5292 -0.8485 0.8485 0.5292 296.321 30.6356)"><tspan x="0" y="0" fill="#7D7D7D" font-family="'Verdana-Italic'" font-size="7">9</tspan><tspan x="4.4" y="0" fill="#7D7D7D" font-family="'Verdana-Italic'" font-size="7">6</tspan><tspan x="8.9" y="0" fill="#7D7D7D" font-family="'Verdana-Italic'" font-size="7" rotate="0">0</tspan><tspan x="13.3" y="0" fill="#7D7D7D" font-family="'Verdana-Italic'" font-size="7" rotate="0">0</tspan></text>
<path fill="none" d="M157.2,276.2c-1.9-4.2,3.3-8.6,7.2-11.1c3.8-2.5,8.3-4.1,12.1-6.6c3.1-2.1,5.8-4.8,8.8-7.1"/>
<text transform="matrix(0.8238 -0.5669 0.5669 0.8238 163.2444 268.9467)"><tspan x="0" y="0" fill="#7D7D7D" font-family="'Verdana-Italic'" font-size="7">1</tspan><tspan x="4.1" y="0" fill="#7D7D7D" font-family="'Verdana-Italic'" font-size="7" rotate="6.8">1</tspan><tspan x="8.5" y="0.6" fill="#7D7D7D" font-family="'Verdana-Italic'" font-size="7" rotate="8">0</tspan><tspan x="13.1" y="1.2" fill="#7D7D7D" font-family="'Verdana-Italic'" font-size="7" rotate="3.3">0</tspan><tspan x="17.9" y="1.5" fill="#7D7D7D" font-family="'Verdana-Italic'" font-size="7" rotate="-4.3">0</tspan></text>
<path fill="none" d="M25.5,93C19,70.3,26,44.3,42.9,28c3.3-3.1,6.9-6,9.5-9.7"/>
<text transform="matrix(0.455 -0.8905 0.8905 0.455 31.7746 47.995)"><tspan x="0" y="0" fill="#7D7D7D" font-family="'Verdana-Italic'" font-size="7">9</tspan><tspan x="4.3" y="0" fill="#7D7D7D" font-family="'Verdana-Italic'" font-size="7" rotate="3.9">8</tspan><tspan x="8.5" y="0.3" fill="#7D7D7D" font-family="'Verdana-Italic'" font-size="7" rotate="7.8">0</tspan><tspan x="12.8" y="0.8" fill="#7D7D7D" font-family="'Verdana-Italic'" font-size="7" rotate="11.8">0</tspan></text>
<path fill="none" d="M50,340.6c-2-1.6-2.9-5.9-3-8.8c-0.2-9.2,3.4-17.9,3-26.7"/>
<text transform="matrix(2.224043e-02 -0.9998 0.9998 2.224043e-02 49.4909 332.3851)"><tspan x="0" y="0" fill="#7D7D7D" font-family="'Verdana-Italic'" font-size="7">1</tspan><tspan x="4.2" y="0" fill="#7D7D7D" font-family="'Verdana-Italic'" font-size="7" rotate="5.7">0</tspan><tspan x="8.5" y="0.4" fill="#7D7D7D" font-family="'Verdana-Italic'" font-size="7" rotate="8.8">2</tspan><tspan x="12.9" y="1.1" fill="#7D7D7D" font-family="'Verdana-Italic'" font-size="7" rotate="9.1">0</tspan><tspan x="17.4" y="1.9" fill="#7D7D7D" font-family="'Verdana-Italic'" font-size="7" rotate="6.7">0</tspan></text>
<path fill="none" d="M43,150.7c1.5,2,7.1,20.5,10.6,30.7c2.9,8.7,5.7,17.4,6.9,26.5"/>
<text transform="matrix(0.3186 0.9479 -0.9479 0.3186 43.5935 159.0253)"><tspan x="0" y="0" fill="#7D7D7D" font-family="'Verdana-Italic'" font-size="7">1</tspan><tspan x="4.4" y="0" fill="#7D7D7D" font-family="'Verdana-Italic'" font-size="7" rotate="0.4">0</tspan><tspan x="8.9" y="0" fill="#7D7D7D" font-family="'Verdana-Italic'" font-size="7" rotate="0.6">0</tspan><tspan x="13.3" y="0.1" fill="#7D7D7D" font-family="'Verdana-Italic'" font-size="7" rotate="0.6">0</tspan><tspan x="17.8" y="0.1" fill="#7D7D7D" font-family="'Verdana-Italic'" font-size="7" rotate="0.5">0</tspan></text>
<g>
	<g>
		<polyline fill="none" stroke="#7D7D7D" stroke-miterlimit="10" points="85.2,341.6 85.2,348.7 275.4,348.7 275.4,341.7 		"/>
		<line fill="none" stroke="#7D7D7D" stroke-miterlimit="10" x1="180.5" y1="341.4" x2="180.5" y2="348.7"/>
		<line fill="none" stroke="#7D7D7D" stroke-miterlimit="10" x1="161.2" y1="349.2" x2="161.2" y2="343.7"/>
		<line fill="none" stroke="#7D7D7D" stroke-miterlimit="10" x1="142.4" y1="349.2" x2="142.4" y2="343.7"/>
		<line fill="none" stroke="#7D7D7D" stroke-miterlimit="10" x1="123.3" y1="349.2" x2="123.3" y2="343.5"/>
		<line fill="none" stroke="#7D7D7D" stroke-miterlimit="10" x1="104.6" y1="349.2" x2="104.6" y2="343.7"/>
	</g>
	<text transform="matrix(1 0 0 1 83.7835 339.1468)" fill="#7D7D7D" font-family="'Verdana'" font-size="8">0</text>
	<text transform="matrix(1 0 0 1 174.2946 339.1468)" fill="#7D7D7D" font-family="'Verdana'" font-size="8">0.5</text>
	<text transform="matrix(1 0 0 1 258.3416 339.1468)" fill="#7D7D7D" font-family="'Verdana'" font-size="8">1 mi</text>
</g>
</svg>
