<?xml version="1.0" encoding="utf-8"?>
<!-- Generator: Adobe Illustrator 17.1.0, SVG Export Plug-In . SVG Version: 6.00 Build 0)  -->
<!DOCTYPE svg PUBLIC "-//W3C//DTD SVG 1.1//EN" "http://www.w3.org/Graphics/SVG/1.1/DTD/svg11.dtd">
<svg version="1.1" id="Layer_1" xmlns="http://www.w3.org/2000/svg" xmlns:xlink="http://www.w3.org/1999/xlink" x="0px" y="0px"
	 viewBox="0 0 360 360" enable-background="new 0 0 360 360" xml:space="preserve">
<path fill="none" stroke="#E1E1E1" stroke-miterlimit="10" d="M370.2,3.4c-0.8-0.2-1.5-0.4-2.3-0.6c-1.2-0.3-2.4-0.6-3.6-0.4
	c-1.8,0.4-3.2,2.1-5.1,2.4c-1,0.1-2.1-0.2-3-0.6c-6.1-2.6-10.2-8.5-13.4-14.4c-0.3-0.6-0.6-1.2-1-1.8"/>
<path fill="none" stroke="#E1E1E1" stroke-miterlimit="10" d="M111.1-11.7c1,2.4,2.4,4.6,3.7,6.9c3.3,5.7,6.6,11.4,9.9,17
	c2.1,3.6,4.3,7.4,7.9,9.6c3.5,2.3,8.7,2.5,11.5-0.7c0.5-0.5,0.9-1.2,1.5-1.4c3.5-1.5,4.2,9.3,7.3,7c18.6-13.5,36-47.6,55.6-35.6
	c6.1,3.7,3,13.9,4.1,21s4,14.4,10,18.2c7.8,5,19.2,3.8,24.5-3.4c5.1-6.9,8.8-23.8,14-21.4c4.9,2.2,0.9,10.8,4.6,14.7s9.1,9,14,11.1
	c2.9,1.3,5.7-0.2,8.7-1.3c2.1-0.8,4-2.8,6.3-2.5c2.1,0.3,4.3,5,6.3,5.4c2.1,0.4,3.2-3.6,4.8-5c8.9-7.4,18.7-16.7,17.6-28.3
	c-0.2-1.8-0.6-3.6,0-5.3c0.6-1.7,3-3,4.2-1.7c6,7,5.2,12.3,6.9,16.4c2.3,5.5,10.1,7.3,15.5,9.6c3.3,1.4,6.6,2.8,9.9,4.2
	c2.4,1,3.6,3,5.4,4.9c3.6,3.6,5.2,8.2,5.2,13.3c0,1.3,0,2.6-0.5,3.8c-0.5,1.3-1.5,2.3-2.5,3.3c-4.2,4.3-8.1,9.9-6.9,15.8
	c0.4,2,4.3,13.4,5.1,15.3c3.7,8.7-2.7,14.7-0.5,17.2c1.3,1.5,3,1,4.3-0.3c0.7-0.7,1.2-1.5,1.7-2.3"/>
<path fill="none" stroke="#E1E1E1" stroke-miterlimit="10" d="M96.5-11.3c-0.7,12.8,1.4,27.7,9.6,45.1c5.6,12.1,14.2,24.1,12.4,37.3
	c-0.4,2.7-1.2,5.5-0.4,8.1c0.9,3,3.7,5.5,3.4,8.6c-0.2,2.8-3,4.7-4,7.4c-2.4,6.3,5.2,11.5,11.4,13.9c1.9,0.8,4,1.5,5.9,0.8
	c3-1.1,4-5.2,6.9-6.4c1.4-0.6,2.9-0.4,4.4-0.2c7.7,0.9,15.6,4.9,23,2.8c5-1.4,12.5-4.5,12.1-9.7c-0.6-7.4-1.2-10.7,2-17.3
	c2.5-5.3-12.6-4.8-13-10.7c-0.3-4.3,5.3-6.2,8-9.5c3.3-3.9,2.4-9.8,0.7-14.6s-4-9.8-3-14.8s10.1-10.5,11.3-5.5
	c1.2,5.1-3.9,15.6,1.3,15.1c6.5-0.7,5.7-18.1,11.7-15.4c1.7,0.8-1,5.2,0.8,5.7c2.3,0.6,4.6-1.4,6.4,0.2s2.8,3.8,4.2,5.8
	c7.8,10.6,24.4,7.4,36.3,13.2c0.8,0.4,1.7,0.9,2.2,1.7c1,1.4,0.7,3.3,0.5,4.9c-1,9.6,4.5,19.4,13,24c8.5,4.5,19.5,3.7,27.4-1.8
	c4.3-3,10.9-12.9,15-16.2c5.2-4.1,16.7,0.1,23.5,0.2c4.7,0.1,5.1-5.6,7.8-2c3.6,4.7-2.8,13.7-2.6,19.7c0.4,12.7,1,26.1,7.8,36.8
	c5.9,9.4,18.3,15.6,28.4,12.3"/>
<path fill="none" stroke="#E1E1E1" stroke-miterlimit="10" d="M87.6-11.1c-0.2,0.6-0.3,1.1-0.4,1.7c-2,8.1-5.6,16.4-3.9,24.6
	c0.4,2.1,1.2,4.2,1,6.3c-0.4,4.7-5.2,7.8-7,12.1c-1,2.4-1.1,5-1.6,7.6c-1.4,7.1-6.1,13.6-12.9,16.2c-7.4,2.8-15.7,0.6-23.6,0.1
	C29.1,56.8,19,58,9.2,56.3c-1.5-0.3-3.5-0.9-5.1-0.6c-1.1,0.2-2.2,0.7-3.3,0.7c-2.2,0.1-4.2-1.3-6.4-1.3c-0.6,0-1.3,0.1-1.9,0.2
	c-2.2,0.4-4.4,0.7-6.6,1.1"/>
<path fill="none" stroke="#E1E1E1" stroke-miterlimit="10" d="M67.8-10.6C64-7.7,60-4.8,57.7-1.8c-4.4,5.9-7.2,12.9-10.9,19.2
	c-6.5,11.2-9.1,15.8-26.8,18c-2.8,0.4-5.5-0.9-8.2-1.5c-2.2-0.5-4.5-0.4-6.6,0.1c-2.1,0.6-4.2,1.6-6.3,1c-0.8-0.2-1.4-0.7-2.2-0.9
	c-1.7-0.7-3.6-0.6-5.4-0.3c-3.2,0.4-6.4,1.2-9.4,2.5"/>
<path fill="none" stroke="#E1E1E1" stroke-miterlimit="10" d="M98.8,88.5c-0.6-5.6-4.1-10.8-3.6-16.4c0.2-2,0.9-4.1,0.4-6
	c-0.7-3-3.6-4.7-6.3-6.2c-0.9-0.5-1.9-1-2.9-0.9c-1.5,0.1-2.6,1.4-3.6,2.6c-5.5,6.8-11,13.6-16.4,20.3c-1.1,1.4-2.3,2.8-2.8,4.6
	c-0.5,1.7-0.1,3.8,1.3,4.9c0.5,0.4,1.2,0.6,1.8,0.8c6.6,2.2,13.3,4.4,19.9,6.6c1.2,0.4,2.4,0.8,3.4,1.6c0.7,0.5,1.2,1.2,1.8,1.8
	c2.6,2.8,7.7,6.7,10.5,4c1.5-1.4-1.4-3.8-2.3-5.7C98.1,96.8,99.2,92.5,98.8,88.5z"/>
<path fill="none" stroke="#E1E1E1" stroke-miterlimit="10" d="M371.2,201c-1.5-0.6-2.9-1.4-4.3-2.2c-6-3.4-12-6.9-18-10.3
	c-10.3-5.9-20.7-11.9-29.5-19.9c-5.4-4.9-10.4-10.6-17.3-12.8c-1.7-0.5-3.5-0.8-5.2-1.5c-3.6-1.3-6.4-4.1-9.4-6.4
	c-5.2-4-11.4-10.6-17.6-8.5c-7.7,2.5-3.4,15.8-1.3,23.6c1.2,4.4,8.9,1.4,13.2,2.6c6.2,1.8,9.4,8.6,15,11.9c3.5,2.1,7.8,2.6,11.3,4.8
	c5.7,3.6,8.5,11.1,14.9,13.2c1.2,0.4,2.4,0.6,3.5,1.1c1.9,1,3.1,3.1,4.9,4.4c3.1,2.2,7.3,1.5,11,2.3c3.9,0.9,7.2,3.4,10.3,5.9
	c3.1,2.4,6.2,4.9,8.9,7.7c1.5,1.5,2.8,3.1,4.2,4.7c1.6,1.9,3.2,3.8,4.8,5.7c0.6,0.7,1.1,1.3,1.7,2"/>
<path fill="none" stroke="#E1E1E1" stroke-miterlimit="10" d="M209.6,265.1c-1,1.6-2.6,2.7-3.8,4.2c-0.7,0.9-1.7,1.6-2.5,2.3
	c-2.1,1.8-3.9,4-5.4,6.2c-6.1,8.9-12.8,17.4-20.2,25.3c-0.8,0.9-1.7,1.8-2.8,2.2c-1.4,0.6-3.1,0.4-4.6-0.2c-3.5-1.3-6.3-4.2-8.8-6.9
	c-3.6-3.9-7.3-7.9-10.9-11.8c-2.5-2.7-2.6-6.8-5-9.6c-1.3-1.6-4.4-0.8-6.4-1c-0.8-0.1-1.7-0.2-2.5-0.5c-1.7-0.7-2.9-2.3-4.5-3.2
	c-1.7-1-4.9-0.7-5.1-2.7c-0.1-0.9-0.3-2.1-1.2-2.2c-0.9-0.2-1.8,0.2-2.7,0.3c-3.6,0.5-6.8-2.3-10.4-2.2c-1.8,0-4,0.7-5.1-0.7
	c-0.6-0.7-0.6-1.7-0.5-2.6c0.5-2.9,2.6-5.2,5-7c2.1-1.6,4.4-2.9,6.9-3.8c1.5-0.6,3.1-1.1,4-2.5c0.5-0.8,0.6-1.7,1.1-2.4
	c1-1.6,3.3-2.1,4.2-3.8c1.1-2.1,0-4.7,1.1-6.7c0.4-0.6,0.7-2.1,0.7-2.8c0.2-3.5-1.4-6.3-0.1-9.5c1.1-2.6,2.4-5.1,3.6-7.5
	c0.9-1.9,2.1-3.9,4.1-4.4c1.1-0.3,2.2,0,3.3,0.2c0.7,0.2,1.5,1.1,1.8,1.8c0.8,1.9,1.9,2.6,2.2,4.6c0.9,6.3,4.1,12.1,7.3,17.7
	c0.7,1.3,1.8,2.8,3.3,2.7c2.4-0.1,4.4-4.1,6.8-3.7c0.6,0.1,1.1,0.5,1.6,0.4c0.4,0,0.8-0.2,1.1-0.2c0.3,0.1,0.6,0.4,0.9,0.5
	c1.8,1.2,4-1.6,6.2-1.2c1.1,0.2,1.9,1.2,3,1.5c1.4,0.4,2.8-0.6,4.2-1.3c3-1.5,6.7-1.5,9.8,0c0.3,0.1,0.6,0.3,0.9,0.3
	c0.9-0.1,1.4-1.3,2.4-1.2c1.1,0.1,3.3-0.7,4.4-1.1c4.2-2,7.9-6.1,8.1-10.7c0.1-1.3-0.2-2.5,0-3.8c0.5-2.5,2.7-4.2,5.1-5.2
	c2.3-1,4.9-1.5,7-2.7c0.7-0.4,1.4-0.9,1.9-1.7c0.5-0.7,0.6-1.6,1-2.4c1.4-2.9,5.5-3.5,7.4-6.2c1.4-2,1.2-4.7,1.7-7.2
	c0.4-2.4,2.1-5.2,4.6-4.9c3.5,0.3,4.1,5.9,7.4,7.1c1.3,0.5,2.7,0.1,4.1,0.2c3.3,0.2,5.9,3,6.9,6.2c1,3.1,0.6,6.5-0.1,9.7
	c-1.5,7-4.2,13.8-8,19.9c-0.8,1.3-2.3,2.5-2.4,4.1c-0.3,4.4-2.3,9.3-6.7,9.4c-1.4,0-2.8-0.3-4.1,0.1c-1.6,0.5-2.7,2-3.7,3.4
	c-2.2,2.9-5,5.3-8.1,7.2c-2,1.2-4.2,2.2-6,3.7C210.7,260,210.8,263.1,209.6,265.1z"/>
<path fill="none" stroke="#E1E1E1" stroke-miterlimit="10" d="M23.5,370.4c-4.2-1.8-8.4-3.6-12.6-5.4c-0.5-0.2-1.1-0.5-1.4-0.9
	c-0.3-0.5-0.4-1.1-0.4-1.6c0.1-3.2,2.4-6,4.7-8.2c2.3-2.2,4.8-4.3,7.4-6.1c1.6-1.1,3.2-2.2,4.3-3.8c0.8-1.3,1.1-2.8,1.6-4.2
	c1.4-5,4.2-10,8.9-12.2c1.9-0.9,4-1.3,5.9-2.4c5.5-3.3,8.9-8.7,13.3-13.4c6.7-7,2.9-19.1,3.6-28.7c0.3-4.1,0.4-8.4-1.4-12.2
	c-1.4-2.9,0-7.2-2.6-9.5c-3-2.6-3.9-7.4-4.2-11.4c-0.2-1.8,0-3.8,1.4-4.9c1-0.8,2.4-0.8,3.7-1c3.9-0.4,7.6-2,10.6-4.5
	c2.2-1.8,4.1-4.2,6.7-5.2c5.2-2,13.9,4.4,16.6-0.5c0.3-0.5-0.1-1.7-0.3-2.2c-2-4.3,2.4-8,5.2-11.8c5.3-7.3,6.2-16.7,6.6-25.7
	c0.2-4.1-8.2-3.3-10.7,0c-1.2,1.5-1.7,3.5-3.1,4.8c-2.4,2.2-6.6,1.3-8.8-1.2c-2.2-2.4-3.1-5.8-3.7-9c-2-9.4-3.1-20.7,4.2-27
	c5.4-4.6,13.2-4.5,20.1-6.2c6.9-1.7,18.1-10.4,12.3-14.5c-1.5-1-4.2,1.7-5.5,0.4c-4.9-5.2-4.1-14.6-1.5-21.3
	c4-10.2,20.3,7.9,31.1,6.1c2.7-0.5,5.3-1.9,8-1.6c4.2,0.6,6.9,5.3,11.1,6.2c3,0.7,6.1-0.8,8.9-2.2c17.4-9.2,33.4-19.6,49.1-31.7
	c0.9-0.7,3.4-1.6,3.8-2.7c2.3-6-2.3-4.6-2.7-8c-0.2-1.5-1.2-10.1-0.5-11.5c3-6,7-3.8,10-9.8c1.8-3.6,0.8-11.3,7.8-8
	c3.8,1.8,4.7,7.7,3.7,11.8c-1.6,6.3-1,12.9,0.7,19.2c0.7,2.6-0.1,6.1,2.6,6c2-0.1,3.4-1.8,5.3-2.4c2.7-0.9,5.5,0.7,8.2,1.6
	c13,4.2,32.9-11.1,39.9,0.7c8.6,14.5,19,27,33.5,35.6c15.8,9.4,31.2,33.3,47.2,35.8"/>
<path fill="none" stroke="#E1E1E1" stroke-miterlimit="10" d="M186.4,371c-3.5-4.4-7.8-8.2-12.4-11.4c-6.1-4.2-12.8-7.5-19.5-10.7
	c-2.1-1-4.3-2.1-6.4-3.1c-6.4-3.1-16.4-2.1-19.6-8.5c-0.6-1.1-1.1-2.4-2.3-2.3s-2.2,0.9-3.1,1.8c-3.2,2.8-6.4,5.6-9.5,8.5
	c-3.4,3.1-6.9,6.2-9.2,10.2c-1.3,2.4-2.4,7.6-4.8,6.4c-3.7-1.8-2.3-7.8-4.3-11.4c-0.8-1.4-1.9-2.9-3.5-2.7c-0.4,0.1-0.9,0.3-1.3,0.5
	c-3.9,1.9-8,3.5-12.2,4.6c-6.1,1.7-12.6,2.7-17.8,6.3c-4.3,3-7.6,7.8-11.5,11.3"/>
<path fill="none" stroke="#E1E1E1" stroke-miterlimit="10" d="M322.7,370.7c-5.1-4.5-10.8-8.2-16.6-11.9c-3.7-2.4-7.5-4.8-11.2-7.2
	c-2.2-1.4-4.5-2.8-7.1-3.4c-2.1-0.5-4.4-0.3-6.5-0.6c-2.8-0.3-5.2-4-7.8-3.1c-4.5,1.7-7.6,7.1-11.5,4.3c-1.6-1.2-2.9-3-4.8-3.6
	c-3.3-0.9-6.2,2.3-8,5.2c-4.5,6.8-9,13.6-13.5,20.4"/>
<path fill="none" stroke="#E1E1E1" stroke-miterlimit="10" d="M353.1,371.1c-4.5-8-11.8-14.7-18.8-20.9c-2.1-1.9-4.3-3.8-7-4.8
	c-2.3-0.9-4.9-1-7.1-2.1c-6.6-3.2-6.9-12.3-9-19.3c-2.5-8.6-9-16.2-9.2-25.2c-0.1-7.2,0.5-21.1,7.6-19.8c0.7,0.1,0.6,1.2,1.3,1.2
	c0.7,0,1.3-0.5,1.4-1.2c0.1-0.7-0.3-1.4-0.6-2.1c-1.8-3.6-1-6.5,1.1-9.9c0.5-0.9,0.6-3,0.8-4c1.3-6.4,2.7-12.8,2-19.3
	c-0.1-0.6-0.1-1.2-0.5-1.6c-0.6-0.7-1.7-0.5-2.6-0.4c-3.3,0.3-6.5-1.6-9-3.8c-2.6-2.1-5-4.6-8.1-5.9c-0.6-0.2-1.3-0.4-1.9-0.2
	c-0.5,0.2-0.9,0.7-1.2,1.1c-2,3.1-2.3,7.1-4.5,10.1c-1.4,1.9-3.5,3.2-5.5,4.4c-1.7,1.1-3.5,2.2-5.2,3.2c-2.2,1.4-4.4,2.7-6.6,4.1
	c-0.5,0.3-1,0.6-1.4,1.2c-0.3,0.5-0.4,1-0.5,1.5c-1,4.7-5.7,7.2-9.4,10.2c-4.1,3.4-3.3,5.2-6.8,9.2c-0.7,0.8-1.5,1.6-2.5,1.8
	c-1.3,0.2-2.5-0.8-3.8-1c-1.5-0.2-3,0.6-4.5,1c-2,0.5-4.2,0.2-6-0.8c-2.2-1.3-4.2-3.7-6.7-3.2c-1.4,0.3-2,1.2-3,2.2
	c-4.2,4.2-7.2,12.2-12.3,17.8c-1.3,1.5-2.8,2.9-3.6,4.7c-1.1,2.5-1,5.5-2.2,7.9c-1,1.8-2.6,3.2-4.1,4.6c-2.7,2.5-5.2,5.3-7.3,8.4
	c-0.6,0.9-1.1,1.8-1.4,2.8c-0.4,2,0.6,4.1,1.2,6.1c1.8,5.4,1,11.7-2.1,16.5c-1,1.6-2.6,3.2-4.5,3c-1.8-0.2-3-1.8-4.1-3.2
	c-4-5.3-9.1-9.6-14.2-13.8c-0.9-0.8-1.9-1.6-2.8-2.4c-2-1.6-3.9-3.2-5.9-4.8c-7.1-5.7-14.4-11.2-22-16.3c-3.7-2.5-7.8-6.2-12.2-5.5
	c-3.2,0.5-5.7-3.7-8.9-3.4c-0.9,0.1-1.8,0.6-2.7,0.7c-0.6,0.1-1.3,0-1.9-0.1c-2.6-0.4-5.2-0.8-7.8-1.2c-0.7-0.1-1.4-0.2-2.1-0.1
	c-0.9,0.2-1.7,0.8-2.5,1.4c-3,2.1-7.2,5-10.2,3c-5.2-3.4-2.7-12.1-3.6-18.2c-0.5-3.3-1.2-6.7-2.9-9.6c-1.1-2-1.5-4.3-2.7-6.3
	c-1.2-2-1.1-3.5-1.5-5.8c-0.3-1.6-2.5-3-2.9-4.5s-0.2-3.3,0.9-4.5c1.6-1.7,4.3-1.4,6.6-1.2c0.9,0.1,1.8,0.1,2.5-0.2
	c0.9-0.4,1.4-1.3,2.2-1.7c1.4-0.8,3.2-0.5,4.7-0.9c2.9-0.8,4.4-4.1,7.1-5.5c1.4-0.7,2.9-0.9,4.3-1.5c1.4-0.7,2.2-2.1,2.2-3.6
	c0-0.9,0.6-2.7,0.7-3.7c0-0.2,0-0.4,0-0.7c0-8.6,8.3-15.9,7.2-24.5c-0.3-2.3-1-4.6-1-7c0.1-5.3,3.6-9.7,7-13.8
	c2.4-2.9,5-5.9,8.4-7.5c3.4-1.6,8-1.4,10.5,1.5c1.2,1.4,1.7,3.2,2.3,4.9c3.1,8.5,9.6,15.7,17.7,19.7c1.2,0.6,2.4,1.1,3.7,1.2
	c2,0.2,4-0.6,5.9-1.4c5.6-2.4,11.2-4.8,16.9-7.2c14.8-6.3,31.6-14.8,34.8-30.6c0.6-2.8,0.7-5.6,1.6-8.3c1.2-3.4,3.6-6.1,5.8-9
	c7.8-10,13-22,15.2-34.5c0.7-3.8,2.2-8.8,6.1-8.8c2,0,3.6,1.5,5.3,2.6c2.9,1.9,6.4,2.7,9.8,3.6c7.4,2.2,14.4,5.7,21.2,9.3
	c13.7,7.3,27.1,15.4,38.4,26c4.9,4.5,9.4,9.5,14.9,13.1c9.1,5.9,20.7,8,29,14.9"/>
<path fill="none" stroke="#E1E1E1" stroke-miterlimit="10" d="M372.6,341.5c-1.4,1-2.8,2.2-4.5,2.1c-3.1-0.2-4.1-4.3-6.2-6.7
	c-2.1-2.5-5.7-3.1-8.2-5.1c-4.4-3.5-4.8-10.3-2.9-15.6s5.7-9.7,8.4-14.7c1.7-3,3-6.3,3.9-9.6c0.7-2.7,1.2-5.6,1.6-8.4
	c0.2-1.5-0.3-3.3,0.7-4.4c0.7-0.7,1.3-1.3,1.6-2.2s0.2-1.8,0.2-2.8c-0.1-2-0.2-3.9-0.3-5.9c-0.1-1.4-0.2-2.9-0.3-4.3
	c0-0.3-0.2-0.5-0.5-0.7c-1.6-1-0.5-4.9-0.4-6.7s0.7-3.8,1.9-5.2c0.5-0.6,1.2-1.2,1.9-1.7c0.7-0.6,1.4-1.2,2.2-1.7"/>
<path fill="none" stroke="#E1E1E1" stroke-miterlimit="10" d="M-10.7,356.3c1.2-2.8,2.5-5.6,4.7-7.6c2.7-2.4,6.6-3.3,9.1-5.9
	c0.4-0.4,0.8-0.9,1.3-1.1s0.8,0.2,1.4,0.2c6.9-0.6,9.7-9.6,14.5-14.7c1.3-1.4,2.6-3.1,4.5-3.3c1-0.1,2.1,0.1,2.8-0.5
	c0.6-0.4,0.7-1.2,1-1.8c0.6-1.5,1.9-2.8,3.4-3.4c1.1-0.5,2.5-0.7,3.2-1.6c0.5-0.6,0.6-1.5,0.8-2.2c0.4-1.5,1.3-2.8,2.4-3.8
	c1-0.8,2.2-1.5,2.6-2.7c0.3-0.8,0.2-1.6,0.1-2.4c-0.6-6.6,0.5-13.5,3.3-19.5c0.5-1.2,1.1-2.4,1.1-3.7c-0.1-1.8-1.6-3.3-2-5.1
	c-0.5-2.1,0.5-4.3-0.1-6.4c-0.2-0.8-0.7-1.4-1-2.2c-0.9-2.1,0.8-4.4,0.1-6.6c-1.1-3.5-3.1-7.1-5-10.2c-2.1-3.3-6.9-3.6-10.5-2.2
	c-1.7,0.7-3.3,1.6-4.6,3c-1,1.1-1.8,2.6-3.3,3.2c-2.4,1-4.9-1.2-6.2-3.5c-3.8-6.7-2.6-15.7,2.3-21.6c1-1.2,2.1-2.3,2.6-3.7
	c0.4-1.1,0.4-2.2,1-3.2c0.7-1.2,2.1-1.8,3.2-2.6c2.5-1.8,2.8-5.1,3.7-8.1c0.1-0.3,0.5-0.6,0.7-0.8c13.9-13.2,23.4-19.1,35.4-34
	c1.6-2,3.2-4.1,4.4-6.4c1.3-2.6,1.9-5.5,2.6-8.4c1.2-5.3,2.4-10.7,3.6-16c1.2-5.2,2.4-10.5,2.3-15.8c-0.1-5.3-1.6-10.8-5.3-14.7
	c-7.5-8.1-21.2-7-29.9-13.8c-3-2.3-5.8-1.9-8.3-7.2c-2.5-5.3-4.8-10.9-3.4-16.7c0.2-0.6,0.3-1.4-0.2-1.7c-0.2-0.1-0.4-0.2-0.6-0.2
	c-2.1-0.5-4.5-0.1-6.4,0.9c-1.6,0.9-2.9,2.2-4.5,3c-2.4,1.3-5.4,1.2-8,0.4s-5-2.3-7.2-4c-0.8-0.6-1.7-1.2-2.7-1.5
	c-2.5-0.6-4.7,1.5-6.5,3.2c-2.8,2.6-6.1,4.7-9.6,6.1"/>
<path fill="none" stroke="#E1E1E1" stroke-miterlimit="10" d="M146.8,243.3c-0.9-0.5-1.9-1-2.9-0.9c-1.5,0.2-2.6,1.5-3.5,2.8
	c-0.8,1.2-1.6,2.4-2.4,3.7c-0.5,0.8-0.9,1.6-0.9,2.5c0,1.8,2,3,3.8,3.1s3.6-0.3,5.4,0c6.2,1,7.9,10.1,13.9,12.2
	c0.8,0.3,1.7,0.4,2.3,1c0.8,0.6,1.1,1.7,1.7,2.5c1.6,2.4,5.2,2.8,7.9,1.7c2.7-1.1,4.7-3.4,6.6-5.7c3.7-4.3,7.4-8.7,11.2-13
	c0.6-0.7,1.6-2.2,0.7-2.6c-4.2-2.3-9.3,3-14.1,2.9c-5.1-0.2-9.8-3.9-14.8-3.2c-2.1,0.3-4.3,1.3-6.1,0.3c-0.7-0.4-1.2-1-1.7-1.6
	C151.8,246.6,149.4,244.7,146.8,243.3z"/>
<path fill="none" stroke="#E1E1E1" stroke-miterlimit="10" d="M-11.5,101.3c3.7-1,7.6-1.6,11.3-0.7c1.1,0.3,2.1,0.7,2.8,1.5
	c1.1,1.4,0.6,3.5,0.7,5.3c0.2,3.7,3,6.9,6.3,8.6c3.3,1.7,7.2,1.7,10.8,2.5c0.9,0.2,2.7,0.8,3.6,1.1c4.3,1.5,9.5,1.1,14,1.6
	c1.7,0.2,3.5,0.4,4.9,1.3c2,1.3,2.8,3.8,4.4,5.6c1.3,1.6,3.2,2.7,4.1,4.5c0.8,1.7,0.7,3.6,0.5,5.5c-0.1,0.7,0.4,2.7-0.2,3.1
	c-1,0.7-2.7,0-3.4,1c-0.8,1.1,0.6,2.4,1.8,2.9c1.8,0.9,5-0.5,4.8,1.5c-0.3,2.6-5.2,3.9-7.8,3.9c-1.1,0-2.2-0.4-3.3-0.9
	c-5.7-2.3-11.3-6.4-13.4-12.2c-1.9-5.4-7-9.4-12.6-8.5s-10,6.7-9.3,12.4c0.3,2.8,1.7,5.4,1.6,8.2c-0.1,3.1-2.1,5.9-2.9,8.9
	c-1.1,4.1,0.1,8.8,3.1,11.8c3,3,10.8,2.1,11.2,4.2c0.2,1.1-4.2,9.9-5.5,15.8c-2.6,11.9-5.9,23.6-9.7,35.1c-2.5,7.5-5.2,15-9.1,21.9
	c-0.7,1.3-1.5,2.6-2.7,3.4c-1.9,1.3-4.2,1.1-6.6,0.9"/>
<path fill="none" stroke="#4E9BD7" stroke-miterlimit="10" d="M162.4,98.4c0-0.6,0.9-0.9,1.3-1.4c0.6-0.8,1.6-1.4,1.7-2.2
	c0.1-1.7-0.6-3.6-1.8-4.9c-1.1-1.3-3.2-1.8-4.5-2.9c-3.4-2.9-6.4-6.3-10-9.4c-9.5-8.3-11.2-22.2-13.6-34.6c-1.1-5.8-1.4-12.3,0.1-18
	c1.9-7.4,5.8-12.7,7.5-20.2c1.2-5.2-0.1-10.6-0.5-15.8"/>
<path fill="none" stroke="#4E9BD7" stroke-miterlimit="10" d="M191.8,154.3c-0.8-2.8-1.1-5.3-2.2-7.6c-0.9-1.8-3.2-4.3-4.9-5.2
	c-2.9-1.6-6.4-0.5-7.5-3.6c-1-2.7-0.2-6.2-0.6-9c-0.3-2.2-2-4.2-1.9-6.4c0.2-3.3,3.9-5.2,5.1-8.2c0.9-2.3,0.2-4.9-0.5-7.3
	c-1.1-3.4-2.8-7.3-6.3-8.2c-2.2-0.5-4.5,0.3-6.6,1.2c-0.6,0.2-1.3,0.5-2,0.5"/>
<path fill="none" stroke="#4E9BD7" stroke-miterlimit="10" d="M197.8,165.7c0.2-0.5-1.4-2.6-3.2-4.6"/>
<path fill="#7BBCEB" stroke="#4E9BD7" stroke-miterlimit="10" d="M190.5,182.7c0.5-0.3,1-0.8,1.6-1c1.2-0.6,2.8-1.2,3.9-0.5
	c1,0.6,1.2,2.1,1.8,3.2c0.1,0.3,0.3,0.5,0.5,0.7c0.5,0.3,1.1,0.3,1.6,0c0.5-0.3,0.8-0.8,1.1-1.3c0.8-1.2,1.4-2.4,1.4-3.9
	c0-0.4-0.5-1.7-0.8-1.9c-1.6-1.5-3.8-3.8-3.4-4.8c0.6-1.6,3.5-0.4,4.9-1.3c1.2-0.7,1.9-2,1.7-3.4c-0.2-1.3-1.2-2.5-2.4-2.9
	c-0.7-0.2-1.5-0.2-2.2-0.1c-1.7,0.1-3.4,0.2-5.1,0.3c-0.9,0-1.7,0.1-2.6,0.3c-1.7,0.5-3.2,1.9-5,2.2c-1.1,0.2-2.3,0-3.5,0
	c-1.2,0-2.4,0.2-3.2,1.1c-0.5,0.5-0.7,1.2-0.9,1.9c-0.3,1.2-0.2,2.6-1,3.5c-0.5,0.5-1.4-1-2.1-1.3c-2.5-1.1-5.7-2-8.2-4.2
	c-0.6-0.5-1.4-0.8-2.1-1.2c-1.2-0.6-2.6-0.6-3.9-0.1s-2.3,1.3-3.2,2.3c-0.9,1-1.8,2.1-1.8,3.5c-0.1,1.4,0.7,2.7,0.4,4
	c-0.3,1.5-2.1,1.8-2.2,3.9c-0.1,0.9-0.1,2-0.8,2.5c-0.2,0.2-0.5,0.3-0.6,0.5c-0.1,0.2,0,2.3,0.1,2.6c0.6,1.8,3.7,2.8,6.4,4.1
	c1.4,0.7,2.8,1.4,4.3,2.1c0.5,0.3,1.1,0.5,1.7,0.4c0.9-0.1,1.5-1.1,2-1.9c1.1-1.8,2.7-3.5,4.8-3.8c2.2-0.3,4.6,1.1,6.6,0
	c0.7-0.4,1.1-0.9,1.7-1.4C184.5,184.6,187.9,184.4,190.5,182.7z"/>
<path fill="#EAEAEA" stroke="#D6D6D6" stroke-miterlimit="10" d="M231,3c0.5-0.4,0.6-1.4,1.3-1.3c0.4,0.1,0.5,0.5,0.5,0.8
	c0,0.4-0.2,0.7-0.1,1.1c0,0.9,1,1.5,1.9,1.5c0.9,0,1.7-0.5,2.5-0.9s1.6-0.8,2.5-0.7c0.1,0,0.3,0.1,0.4,0.2c0.2,0.2,0.2,0.5,0.2,0.8
	c-0.1,1.1,0.2,2.2,0.8,3.1c0.4,0.6,0.9,1.1,1.1,1.8c0.2,0.6,0,1.3-0.1,1.9c-0.2,0.8-0.4,1.6-0.8,2.2c-0.3,0.6-0.8,1-1.3,1.5
	c-1.2,1.1-2.4,2.3-3.8,3.1c-1.4,0.8-3.2,1.1-4.7,0.6c-0.6-0.2-1.2-0.6-1.8-0.8c-0.5-0.2-0.9-0.3-1.4-0.4c-1.5-0.5-2.6-1.6-3.4-3
	c-0.8-1.3-1.3-2.8-1.6-4.3c-0.2-0.7-0.3-1.5-0.1-2.3s0.7-1.5,1.5-1.6c0.7-0.1,1.4,0.2,2,0.1c1.6-0.2,2-2.5,3.5-3
	C230.3,3.3,230.7,3.3,231,3z"/>
<path fill="none" stroke="#D6D6D6" stroke-miterlimit="10" d="M242.1,8.9c1.8-0.8,3.8-3.2,4-3.7c0.8-1.6,1-4.4,1-4.7
	c0.2-3.7,0.2-7.4,0.1-11.2"/>
<path fill="#EAEAEA" stroke="#D6D6D6" stroke-miterlimit="10" d="M225.9,0.2c0.1,0.3,0.7,0.5,1,0.5c1,0.1,2.2-0.4,2.6-1.3
	c0.2-0.4,0-0.9-0.4-1.2s-0.8-0.4-1.2-0.5c-0.4-0.1-0.8-0.2-1.2-0.1C225.8-2,225.5-0.7,225.9,0.2z"/>
<path fill="#EAEAEA" stroke="#D6D6D6" stroke-miterlimit="10" d="M153.8,43c-0.1-0.4-0.7-0.5-1.1-0.5c-0.3,0-0.5,0.1-0.7,0.3
	c-1.9,1.8-2.3,4.1-2.6,6.7c-0.1,1-0.3,2-0.2,3.1c0,0.5,0,1.8,0.2,2.2c0.3,0.4,0.9,0.9,1.2,0.6c0.7-0.7,0.8-2.7,1.3-3.5
	c0.3-0.5,0.7-0.9,0.7-1.5c0-0.7-0.2-0.9-0.6-1.5c-0.4-0.6-0.5-2,0.2-2.2c0.8-0.2,1.3-0.3,1.5-1.1C154,44.8,154,43.8,153.8,43z"/>
<path fill="#EAEAEA" stroke="#4E9BD7" stroke-miterlimit="10" d="M164.7,101.5c0.3-0.6-0.4-1.5-1.1-2.2s-1.6-0.9-2.5-1.2
	c-2.7-0.9-6-2.3-7.4-1c-0.4,0.4,0.1,1,0.4,1.4c2.3,2.6,5.8,4.4,9.2,3.7C163.7,102.2,164.3,102.1,164.7,101.5z"/>
<path fill="#EAEAEA" stroke="#4E9BD7" stroke-miterlimit="10" d="M193.5,155.2c0.9,0.9,1.7,1.7,1.7,3c0,1-0.3,2.4-1.2,2.9
	c-0.9,0.5-2.3,0.1-3-0.6c-0.8-0.9-0.7-2.2-0.3-3.4c0.1-0.4,0.2-0.8,0.4-1.2c0.3-0.7,0.4-1.6,1.2-1.5
	C192.6,154.4,193.2,155,193.5,155.2z"/>
<path fill="#EAEAEA" stroke="#D6D6D6" stroke-miterlimit="10" d="M306.2,96.2c-0.7,0.4-1.4,0.8-2.1,1.2c-0.4,0.2-0.3,0.2-0.7,0.5
	c-1,0.8-1.5,2.2-1.3,3.5c0.1,0.4,0.2,0.7,0.5,1c0.6,0.5,0.9,0.5,1.6,0.7c0.7,0.3,1.1,1,1.5,1.6c0.4,0.6,1.3,1.5,1.8,1
	c1.4-1.3,1.4-3.6,2.1-5.4c0.3-0.7,0.6-1.5,0.5-2.3c-0.1-1.1-0.1-2.5-1-3.2C308.3,94.1,307.2,95.6,306.2,96.2z"/>
<path fill="#EAEAEA" stroke="#D6D6D6" stroke-miterlimit="10" d="M315.1,113.1c-0.4,0.4-1,0.5-1.6,0.5c-1-0.1-2.2-0.3-2.6-1.2
	c-0.4-0.8,0.6-1.8,1.4-2.2c0.8-0.4,2-0.9,2.7-0.4C316.1,110.4,316,112.2,315.1,113.1z"/>
<path fill="#EAEAEA" stroke="#D6D6D6" stroke-miterlimit="10" d="M320.8,97.4c-0.2,0.6-0.2,1.2-0.2,1.8c0,1.3-0.2,2.6-0.2,3.9
	c0,0.4,0,0.9-0.1,1.3c-0.4,1-1.9,1.3-2.7,0.6c-0.5-0.4-0.8-0.9-0.9-1.5c-0.2-1.5,1.2-2.8,1.5-4.3c0.1-0.9,0.3-2.3,0.2-3.2
	c-0.1-0.9,0-2,0.8-2.5c1-0.7,2.6,0.1,2.6,1.3C321.7,95.5,321.1,96.7,320.8,97.4z"/>
<path fill="#EAEAEA" stroke="#D6D6D6" stroke-miterlimit="10" d="M100.5,163.2c-0.5,1-1.5,1.9-1.3,2.9c0.2,0.8,1,1.3,1.5,1.9
	c0.2,0.2,0.4,0.5,0.6,0.7c0.8,0.9,2.4,0.7,3.2-0.2c0.6-0.8,0.6-1.9,0.9-2.8c0.2-0.5,0.5-0.9,0.7-1.4s0.3-1.1,0-1.6
	c-0.2-0.4-0.7-0.6-0.9-1c-0.2-0.3-0.3-0.7-0.5-1c-0.5-0.8-1.7-1.2-2.5-0.7C101.3,160.8,101.1,162.2,100.5,163.2z"/>
<path fill="#EAEAEA" stroke="#D6D6D6" stroke-miterlimit="10" d="M123.6,94.1c-0.4,0.2-0.6,0.4-0.9,0.7c-0.7,0.6-1.4,1.4-1.4,2.3
	c0,0.5,0.1,0.9,0.3,1.3c0.5,1,1.2,1.9,2,2.6c1,0.8,2.2,1.4,2.7,2.6c0.1,0.2,0.2,0.5,0.4,0.7c0.4,0.4,1.1,0.2,1.4-0.2
	c0.4-0.4,0.5-1,0.6-1.5c0.1-0.8,0.2-1.6,0-2.3c-0.1-0.4-0.3-0.7-0.4-1.1c-0.3-0.8-0.7-1.6-1-2.3c-0.3-0.8-0.7-1.6-1.3-2.2
	C125.3,94.1,124.4,93.8,123.6,94.1z"/>
<path fill="#FFFFFF" stroke="#4E9BD7" stroke-miterlimit="10" d="M165.9,181c-0.2-0.6-1.3-0.3-1.6,0.3c-0.4,0.5-0.8,1.3-0.4,1.8
	c0.4,0.6,1.4,1.3,2.1,0.9C166.7,183.4,166.2,181.9,165.9,181z"/>
<path fill="none" stroke="#D6D6D6" stroke-miterlimit="10" d="M357-9.6c1.2,3.6,1.6,7.4,1.4,11.2c-0.1,1.9-0.5,3.8-0.2,5.7
	c0.2,1.6,0.9,3.1,1.6,4.6c1.2,2.7,2.4,5.4,3.8,8c2,3.7,4.5,7.2,6.6,11c0.1,0.2,0.2,0.4,0.3,0.6"/>
<path fill="none" stroke="#D6D6D6" stroke-miterlimit="10" d="M258,371.4c2.1-6.3,5.1-12.3,6.5-18.7c1.8-8.3,1.1-17,2.8-25.3
	c1.6-8,4.6-15.7,7.5-23.3c3.2-8.2,1.2-13.9-2-20.7c-0.8-1.8,0.5-4.3,0.7-4.5c1.8-2.7,2.3-4.1,4.4-6.6c1.8-2,3.7-4.1,4.2-6.8"/>
<path fill="none" stroke="#D6D6D6" stroke-miterlimit="10" d="M17.3,124.8c-5.4-2.2-11.4-3.5-17.1-5.7c-2.4-0.9-5.3-1-7.2,0.6
	c-0.9,0.8-1.7,2-2.9,2.2c-0.9,0.2-1.8-0.4-2.8-0.4"/>
<path fill="#EAEAEA" stroke="#D6D6D6" stroke-miterlimit="10" d="M52,217.3c1.3-0.1,2.7-0.5,4-0.5c0.4,0,0.8,0,1.1-0.2
	c0.6-0.4,0.7-1.2,0.7-1.9c0-0.4,0-0.8-0.2-1.1c-0.2-0.3-0.6-0.4-0.9-0.5c-0.8-0.3-1.4-0.9-2.2-1.4c-1.8-1.1-3.8-1.5-5.9-1.9
	c-0.5-0.1-1-0.1-1.3,0.2c-0.3,0.4-0.1,0.9,0,1.4c0.2,0.6,0.5,1.1,0.7,1.7c0.2,0.5,0.4,1,0.7,1.5c0.2,0.4,0.5,0.9,0.8,1.3
	c0.2,0.2,0.4,0.4,0.6,0.6C50.6,217,51.3,217.4,52,217.3z"/>
<path fill="#EAEAEA" stroke="#D6D6D6" stroke-miterlimit="10" d="M3.7,321.1c-1-0.6-1.1-2.1-0.6-3.2s1.3-1.9,2-2.9
	c0.3-0.4,0.6-0.9,1.1-1c0.5-0.1,0.9,0.2,1.3,0.4c0.9,0.6,2,1.4,1.9,2.5c0,0.3-0.1,0.7-0.2,1c-0.3,0.8-0.2,1.7-0.8,2.3
	c-0.6,0.6-1.5,0.7-2.3,0.9C5.3,321.4,4.4,321.5,3.7,321.1z"/>
<path fill="none" stroke="#D6D6D6" stroke-linejoin="round" stroke-miterlimit="10" d="M-11.9,281.2c6.9-3.1,16-1.2,23.4,0.4"/>
<path fill="#EAEAEA" stroke="#D6D6D6" stroke-miterlimit="10" d="M25.1,124.5c-0.6,0.2-1,0.7-1.6,0.6c-0.4-0.1-0.8-0.4-1.1-0.7
	c-0.9-0.8-2.1-1.3-3.3-1.1c-1.2,0.3-2.1,1.6-1.6,2.7c0.5,1.1,1.8,1.3,3,1.5c4.3,0.8,8.4,2.7,11.8,5.5c0.7,0.6,1.4,1.2,2.2,1.6
	c1,0.5,2.1,0.8,3.2,0.7c1,0,2.1-0.2,2.9-0.9c0.8-0.7,1.2-1.8,0.8-2.8c-0.6-1.4-2.6-1.6-3.8-2.6c-0.8-0.7-1.3-1.8-2.3-2.3
	c-1.4-0.8-3.3,0-4.9-0.5C28.5,125.9,26.9,123.8,25.1,124.5z"/>
<path fill="#EAEAEA" stroke="#D6D6D6" stroke-miterlimit="10" d="M22,270.4c2.1-1.5,2.7-5,5.2-5.6c2.1-0.5,4.1,1.5,4.4,3.6
	c0.1,0.8,0,1.7,0.2,2.5c0.2,0.6,0.5,1.2,0.6,1.8c0.4,1.6-0.1,3.2-0.6,4.7c-0.9,3-1.3,6.2-1.3,9.4c0,1.8,0.1,3.7-1.1,5
	c-1,1-2.5,1.3-3.9,1.2c-1.4-0.1-2.8-0.5-4.2-0.7c-0.8-0.1-1.6,0-2.3-0.3c-1.5-0.6-1.6-3-2.2-4.5c-0.8-1.9-2.2-3-3.7-4.4
	c-0.4-0.4-0.9-0.7-1.2-1.2c-0.3-0.5-0.3-1.2,0.2-1.6c0.3-0.2,0.8-0.2,1.1-0.3c1.9-0.2,3.2-2.1,3.9-3.8c0.8-1.7,1.4-3.7,3-4.8
	C20.8,271.1,21.4,270.8,22,270.4z"/>
<g>
	<g>
		<path fill="none" stroke="#585858" stroke-miterlimit="10" d="M297.8,371.2c0.2-0.6,0.4-1.3,0.5-1.9"/>
		<path fill="none" stroke="#585858" stroke-miterlimit="10" stroke-dasharray="3.9922,0.998" d="M298.5,368.3
			c0.2-1.6,0.1-3.2-0.6-4.8c-1.4-3-4.7-4.7-7.4-6.7c-2.7-2-5.1-5.4-3.8-8.5c0.4-1.1,1.3-2,1.4-3.1c0.2-2.3-2.5-3.6-4.4-5
			c-4-3-4.8-8.6-4.9-13.6c-0.1-5,0.2-10.4-2.7-14.5c-1.5-2.2-3.7-3.7-5.1-5.9c-1.5-2.2-1.3-8.1-2-10.7c-1.6-6.7-5.8-9.9-5.6-16.8
			c0-1.6,1.1-3.2,2.5-3.9c1.6-0.8,3.2-1.8,4.8-2.8s2.6-2.6,3.2-4.2c1.1-2.6,2.8-4.2,4.8-5c4.7-1.8,9.9-3.1,13-7.1
			c3.1-4,4.1-9.7,2-14.3c-0.7-1.6-1.8-3.1-2.4-4.8c-1.2-3.4-0.3-7.3-1.8-10.6c-1.1-2.3-3.2-3.9-4.6-6.1c-1.6-2.5-1.3-5.7-1.3-8.7
			c0-2.5-2.3-7.3-2.8-9.8c-0.8-3.9-7.8-18.9-10.1-20.9c-2.6-2.3-10.4-4.7-11.1-4.9c-4.3-1.2-8.8,0.2-12.6-0.9
			c-0.7-0.2,0.6-8,1.3-11.9c0.1-0.3,0.1-0.7,0-0.9c-0.1-0.3-0.3-0.5-0.6-0.6c-0.8-0.6-1.6-1.3-2.4-1.9c-0.3-0.2-0.6-0.5-0.9-0.6
			c-0.5-0.2-1-0.2-1.5-0.3c-1.9-0.2-3.8-0.7-5.6-1.6c-0.4-0.2-0.9-0.4-1.2-0.8c-0.2-0.3-0.3-0.6-0.5-1c-0.4-1.1,0-3-1.1-3.2
			c-0.8-0.1-1,1.2-1.5,1.9c-0.1,0.2-0.3,0.3-0.5,0.3c-0.2,0-0.4-0.2-0.5-0.4c-0.6-0.8-0.3-2.2-1.1-2.8c-0.3-0.3-0.7,0.5-1.1,0.7
			c-0.7,0.3-1.3-0.4-1.7-1.1c-0.8-1.4-1.7-2.8-3-3.8c-1.3-1-3-1.6-4.5-1.2c-1.6,0.4-2.8,2.1-2.4,3.6c0.1,0.7,0.5,1.3,0.4,2
			c-0.3,1.2-2,1.2-3.3,1.5c-1.2,0.3-1.6,1.9-2.7,2.5c-2.4,1.4-5.9-0.6-7.9,1.4c-0.8,0.8-1.3,1.7-2,2.5c-0.7,0.8-2.2,0.9-3.2,1.1
			c-4.8,1-8.6,5.1-13.5,5.5c-2.4,0.2-4.8,0-7,1c-0.6,0.3-1.2,0.7-1.9,0.8c-0.8,0.2-1.5-0.1-2.3-0.3c-4.4-1.4-8.3-4.1-11.3-7.7
			c-0.7-0.8-1.4-1.8-2.4-2.2c-0.8-0.4-1.8-0.4-2.7-0.6c-1.9-0.6-3-2.6-4-4.4c-1.8-3.4-3.6-6.8-5.4-10.2c-0.3-0.5-0.5-1-1-1.3
			c-1.1-0.7-2.6,0-4-0.2c-1.9-0.3-2.8-2.4-4.4-3.4c-1.5-1-3.5-0.8-5.3-0.9c-1.8-0.1-3.2-1.2-4.6-2.3c-1.4-1-2.6-2.1-3.4-3.7
			c-1-2-2.2-3.9-3.7-5.6c-0.5-0.6-1-1.2-1.7-1.5c-0.7-0.4-1.6-0.5-2.4-0.8c-3.5-1.5-4.3-6.9-8-7.8c-0.4-0.1-0.9-0.2-1.2-0.5
			c-0.5-0.6,0.2-1.4,0.5-2.1c0.6-1,0.5-2.4-0.2-3.3c-0.6-0.8-1.4-1.2-2-2c-0.4-0.7-0.6-1.4-0.7-2.2c-0.4-2.4-0.8-5-0.4-7.4
			c0.4-2.4,2-6.8,4.2-5.7c0.8,0.4,0.7,1.7,1.5,2.1c0.6,0.3,1-0.6,1.6-0.9c0.7-0.3,1.5,0.4,1.9,1s0.7,1.5,1.4,1.8
			c0.7,0.3,1.5,0,2.2-0.4c1-0.5,1.8-1.7,2.8-2.2c1.6-0.8,3.8-1,4.2-2.7c0.7-3-3.3-5.6-2.9-8.6c0.2-1.6,1.5-2.8,2.1-4.2
			c0.6-1.5,0.4-3.2,0.5-4.8c0-2.7,2.2-4.7,2.8-7.3c0.5-2.2-1.2-4.4-1.8-6.6c-0.1-0.3-0.2-0.6-0.1-1c0.2-0.7,1-1.1,1.7-0.9
			s1.3,0.6,2,0.9c1.9,1,5.2,1.8,6.2,0c1.1-1.9-0.2-4.6,0.9-6.5c0.5-0.7,1.1-1.4,1.6-2.1c2.1-3,1.7-7,1.9-10.7
			c0.5-8.3,4.6-16.4,3.4-24.6c-0.2-1.2-0.5-2.4-0.5-3.6c-0.1-2.2,0.5-4.3,0.8-6.4c0.6-4.3,0.1-8.6-0.4-12.9c0-0.3-0.1-0.5-0.1-0.8"
			/>
		<path fill="none" stroke="#585858" stroke-miterlimit="10" d="M144.9-10.3c-0.1-0.7-0.2-1.3-0.3-2"/>
	</g>
</g>
<g>
	<g>
		<path fill="none" stroke="#585858" stroke-miterlimit="10" d="M-12.1,138.7c0.6-0.2,1.3-0.4,1.9-0.6"/>
		<path fill="none" stroke="#585858" stroke-miterlimit="10" stroke-dasharray="4.0103,1.0026" d="M-9.2,137.8
			c0.3-0.1,0.6-0.3,0.9-0.4c0.6-0.3,1.2-0.7,1.7-1.3c0.6-0.7,0.8-1.6,1-2.5c1-4.5,2-9,3.1-13.4c0.1-0.6,0.3-1.3,0.8-1.8
			c0.5-0.6,1.4-0.7,2.1-0.8c3.3-0.4,6.6-0.1,9.8,0.7c2.7,0.7,5.3,1.9,8,1.9c2.2,0.1,4.4-0.8,6.6-1.2c5.6-1.2,10.6-5.5,15.9-6.4
			c2.8-0.5,4.6,2,7.5,2.2c2.1,0.1,4.4-0.8,6.4,0c1,0.4,1.9,0.9,2.8,1.5c2,1.3,3.7,4.3,6,4c1.3-0.2-1.1-3-0.1-3.9
			c1.5-1.2,3.6,2.3,5.5,2.1c0.9-0.1,2.6-0.7,3.5-0.7c0.7,0,2,0.2,2.6,0.3c1,0.2,2.1,0.4,3.1,0.3c1.3-0.1,2.5-0.5,3.8-0.3
			c1.1,0.2,2,0.9,3.1,1.4c3.4,1.4,7.2-0.3,10.8-0.4c0.6,0,1.3,0,1.9,0.3c0.4,0.2,0.8,0.6,1,1c1.3,1.8,2.2,3.9,2.4,6.1
			c0.1,0.6,0.1,1.3,0.6,1.8c0.9,0.9,2.3,0.2,3.3-0.6c1.2-0.9,2.3-1.7,3.5-2.6c0.6-0.4,1.3-0.9,2-1c2.2-0.2,3.1,3,5.1,3.9
			c1.5,0.6,3.1-0.1,4.7-0.5c0.7-0.2,1.5-0.2,2.2-0.1"/>
		<path fill="none" stroke="#585858" stroke-miterlimit="10" d="M123,127.4c0.7,0.1,1.4,0.4,1.9,0.6"/>
	</g>
</g>
<text transform="matrix(1 0 0 1 108.186 166.1762)"><tspan x="0" y="0" fill="#7BBCEB" font-family="'Verdana-Italic'" font-size="8">Buena Vista</tspan><tspan x="29.1" y="9.6" fill="#7BBCEB" font-family="'Verdana-Italic'" font-size="8">Lake</tspan></text>
<line fill="none" x1="225.9" y1="98.5" x2="347.2" y2="181.8"/>
<text transform="matrix(0.8269 0.568 -0.5662 0.8243 287.883 141.0354)" fill="#585858" font-family="'Verdana-Italic'" font-size="8">B</text>
<text transform="matrix(0.8269 0.568 -0.5662 0.8243 292.414 144.1481)" fill="#585858" font-family="'Verdana-Italic'" font-size="8">u</text>
<text transform="matrix(0.8269 0.568 -0.5662 0.8243 296.5946 147.0196)" fill="#585858" font-family="'Verdana-Italic'" font-size="8">e</text>
<text transform="matrix(0.8269 0.568 -0.5662 0.8243 300.5446 149.7334)" fill="#585858" font-family="'Verdana-Italic'" font-size="8">n</text>
<text transform="matrix(0.8269 0.568 -0.5662 0.8243 304.741 152.6153)" fill="#585858" font-family="'Verdana-Italic'" font-size="8">a</text>
<text transform="matrix(0.8269 0.568 -0.5662 0.8243 308.6969 155.3329)" fill="#585858" font-family="'Verdana-Italic'" font-size="8"> </text>
<text transform="matrix(0.8269 0.568 -0.5662 0.8243 311.0342 156.9381)" fill="#585858" font-family="'Verdana-Italic'" font-size="8">V</text>
<text transform="matrix(0.8269 0.568 -0.5662 0.8243 315.5464 160.0376)" fill="#585858" font-family="'Verdana-Italic'" font-size="8">i</text>
<text transform="matrix(0.8269 0.568 -0.5662 0.8243 317.363 161.2838)" fill="#585858" font-family="'Verdana-Italic'" font-size="8">s</text>
<text transform="matrix(0.8269 0.568 -0.5662 0.8243 320.7991 163.6452)" fill="#585858" font-family="'Verdana-Italic'" font-size="8">t</text>
<text transform="matrix(0.8269 0.568 -0.5662 0.8243 323.4196 165.4452)" fill="#585858" font-family="'Verdana-Italic'" font-size="8">a</text>
<text transform="matrix(0.8269 0.568 -0.5662 0.8243 327.3952 168.1761)" fill="#585858" font-family="'Verdana-Italic'" font-size="8"> </text>
<text transform="matrix(0.8269 0.568 -0.5662 0.8243 329.7197 169.7728)" fill="#585858" font-family="'Verdana-Italic'" font-size="8">C</text>
<text transform="matrix(0.8269 0.568 -0.5662 0.8243 334.3388 172.9463)" fill="#585858" font-family="'Verdana-Italic'" font-size="8">r</text>
<text transform="matrix(0.8269 0.568 -0.5662 0.8243 337.1632 174.886)" fill="#585858" font-family="'Verdana-Italic'" font-size="8">e</text>
<text transform="matrix(0.8269 0.568 -0.5662 0.8243 341.123 177.6054)" fill="#585858" font-family="'Verdana-Italic'" font-size="8">s</text>
<text transform="matrix(0.827 0.568 -0.5661 0.8243 344.5602 179.9659)" fill="#585858" font-family="'Verdana-Italic'" font-size="8">t</text>
<text transform="matrix(1.0159 0 0 1 193.9697 7.5761)"><tspan x="0" y="0" fill="#585858" font-family="'Verdana-Italic'" font-size="8">Windy</tspan><tspan x="6.2" y="9.6" fill="#585858" font-family="'Verdana-Italic'" font-size="8">Lake</tspan></text>
<path fill="none" d="M263.7,79.1c8.5,4.5,19.5,3.7,27.4-1.8c4.3-3,10.9-12.9,15-16.2"/>
<text transform="matrix(0.9658 -0.2595 0.2595 0.9658 281.4429 84.1548)"><tspan x="0" y="0" fill="#7D7D7D" font-family="'Verdana-Italic'" font-size="7">8</tspan><tspan x="4.9" y="0" fill="#7D7D7D" font-family="'Verdana-Italic'" font-size="7" rotate="-9.4">8</tspan><tspan x="9.7" y="-0.9" fill="#7D7D7D" font-family="'Verdana-Italic'" font-size="7" rotate="-19.1">0</tspan><tspan x="14.4" y="-2.7" fill="#7D7D7D" font-family="'Verdana-Italic'" font-size="7" rotate="-31.7">0</tspan></text>
<path fill="none" d="M78.4,198.2c-2.2-2.4-3.1-5.8-3.7-9c-2-9.4-3.1-20.7,4.2-27"/>
<text transform="matrix(-2.090377e-03 -1 1 -2.090377e-03 75.7042 179.4448)"><tspan x="0" y="0" fill="#7D7D7D" font-family="'Verdana-Italic'" font-size="7">9</tspan><tspan x="4.1" y="0" fill="#7D7D7D" font-family="'Verdana-Italic'" font-size="7" rotate="8.4">0</tspan><tspan x="8" y="0.4" fill="#7D7D7D" font-family="'Verdana-Italic'" font-size="7" rotate="20.4">0</tspan><tspan x="11.6" y="1.7" fill="#7D7D7D" font-family="'Verdana-Italic'" font-size="7" rotate="36.5">0</tspan></text>
<path fill="none" d="M177.6,303.1c7.4-7.9,14.1-16.4,20.2-25.3"/>
<text transform="matrix(0.6595 -0.7517 0.7517 0.6595 182.4928 301.5452)"><tspan x="0" y="0" fill="#7D7D7D" font-family="'Verdana-Italic'" font-size="7">9</tspan><tspan x="4.5" y="0" fill="#7D7D7D" font-family="'Verdana-Italic'" font-size="7" rotate="-1.2">4</tspan><tspan x="9" y="-0.1" fill="#7D7D7D" font-family="'Verdana-Italic'" font-size="7" rotate="-2.5">0</tspan><tspan x="13.5" y="-0.3" fill="#7D7D7D" font-family="'Verdana-Italic'" font-size="7" rotate="-3.7">0</tspan></text>
<text transform="matrix(1 0 0 1 168.4234 259.5102)" fill="#585858" font-family="'Verdana-Italic'" font-size="8">× 9709</text>
<text transform="matrix(1 0 0 1 119.0712 255.1805)"><tspan x="0" y="0" fill="#585858" font-family="'Verdana-Italic'" font-size="8">Buena Vista</tspan><tspan x="28.7" y="9.6" fill="#585858" font-family="'Verdana-Italic'" font-size="8">Peak</tspan></text>
<text transform="matrix(1 0 0 1 44.9278 136.878)"><tspan x="0" y="0" fill="#585858" font-family="'Verdana-Italic'" font-size="8">Chilnualna Lakes</tspan><tspan x="0" y="9.6" fill="#585858" font-family="'Verdana-Italic'" font-size="8">(north)</tspan></text>
<text transform="matrix(1 0 0 1 36.2603 273.5431)"><tspan x="0" y="0" fill="#585858" font-family="'Verdana-Italic'" font-size="8">Chilnualna Lakes</tspan><tspan x="0" y="9.6" fill="#585858" font-family="'Verdana-Italic'" font-size="8">(east)</tspan></text>
<path fill="none" d="M302,298.8c0.2,9,6.7,16.6,9.2,25.2c2.1,7.1,2.3,16.1,9,19.3"/>
<text transform="matrix(0.4434 0.8963 -0.8963 0.4434 303.9306 313.6609)"><tspan x="0" y="0" fill="#7D7D7D" font-family="'Verdana-Italic'" font-size="7">9</tspan><tspan x="4.4" y="0" fill="#7D7D7D" font-family="'Verdana-Italic'" font-size="7" rotate="2">2</tspan><tspan x="8.6" y="0.1" fill="#7D7D7D" font-family="'Verdana-Italic'" font-size="7" rotate="7.6">0</tspan><tspan x="12.7" y="0.7" fill="#7D7D7D" font-family="'Verdana-Italic'" font-size="7" rotate="13.3">0</tspan></text>
<path fill="none" d="M5.8,341.8c6.9-0.6,9.7-9.6,14.5-14.7c1.3-1.4,2.6-3.1,4.5-3.3"/>
<text transform="matrix(0.654 -0.7565 0.7565 0.654 12.9516 341.2635)"><tspan x="0" y="0" fill="#7D7D7D" font-family="'Verdana-Italic'" font-size="7">8</tspan><tspan x="4.8" y="-0.1" fill="#7D7D7D" font-family="'Verdana-Italic'" font-size="7" rotate="-7.2">8</tspan><tspan x="9.1" y="-0.7" fill="#7D7D7D" font-family="'Verdana-Italic'" font-size="7" rotate="-6.6">0</tspan><tspan x="13.2" y="-1.2" fill="#7D7D7D" font-family="'Verdana-Italic'" font-size="7" rotate="2.1">0</tspan></text>
<path fill="none" d="M172,208.5c5.6-2.4,11.2-4.8,16.9-7.2c14.8-6.3,31.6-14.8,34.8-30.6"/>
<text transform="matrix(0.9204 -0.3909 0.3909 0.9204 182.4237 206.849)"><tspan x="0" y="0" fill="#7D7D7D" font-family="'Verdana-Italic'" font-size="7">9</tspan><tspan x="4.5" y="0" fill="#7D7D7D" font-family="'Verdana-Italic'" font-size="7" rotate="0">2</tspan><tspan x="8.9" y="0" fill="#7D7D7D" font-family="'Verdana-Italic'" font-size="7" rotate="-0.7">0</tspan><tspan x="13.5" y="0" fill="#7D7D7D" font-family="'Verdana-Italic'" font-size="7" rotate="-2.2">0</tspan></text>
<path fill="none" d="M20,35.5c17.7-2.2,20.3-6.8,26.8-18c3.7-6.4,6.4-13.4,10.9-19.2"/>
<text transform="matrix(0.8854 -0.4648 0.4648 0.8854 34.0419 34.9271)"><tspan x="0" y="0" fill="#7D7D7D" font-family="'Verdana-Italic'" font-size="7">9</tspan><tspan x="5.1" y="-0.1" fill="#7D7D7D" font-family="'Verdana-Italic'" font-size="7" rotate="-13.3">2</tspan><tspan x="9.9" y="-1.3" fill="#7D7D7D" font-family="'Verdana-Italic'" font-size="7" rotate="-24.7">0</tspan><tspan x="14.1" y="-3.3" fill="#7D7D7D" font-family="'Verdana-Italic'" font-size="7" rotate="-30.5">0</tspan></text>
<text transform="matrix(1 0 0 1 262.7956 175.4098)"><tspan x="0" y="0" fill="#585858" font-family="'Verdana-Italic'" font-size="8">Buena Vista</tspan><tspan x="0" y="9.6" fill="#585858" font-family="'Verdana-Italic'" font-size="8">Pass</tspan></text>
<g>
	<g>
		<polyline fill="none" stroke="#7D7D7D" stroke-miterlimit="10" points="85.2,341.6 85.2,348.7 275.4,348.7 275.4,341.7 		"/>
		<line fill="none" stroke="#7D7D7D" stroke-miterlimit="10" x1="180.5" y1="341.4" x2="180.5" y2="348.7"/>
		<line fill="none" stroke="#7D7D7D" stroke-miterlimit="10" x1="161.2" y1="349.2" x2="161.2" y2="343.7"/>
		<line fill="none" stroke="#7D7D7D" stroke-miterlimit="10" x1="142.4" y1="349.2" x2="142.4" y2="343.7"/>
		<line fill="none" stroke="#7D7D7D" stroke-miterlimit="10" x1="123.3" y1="349.2" x2="123.3" y2="343.5"/>
		<line fill="none" stroke="#7D7D7D" stroke-miterlimit="10" x1="104.6" y1="349.2" x2="104.6" y2="343.7"/>
	</g>
	<text transform="matrix(1 0 0 1 83.7833 339.1468)" fill="#7D7D7D" font-family="'Verdana'" font-size="8">0</text>
	<text transform="matrix(1 0 0 1 174.2944 339.1468)" fill="#7D7D7D" font-family="'Verdana'" font-size="8">0.5</text>
	<text transform="matrix(1 0 0 1 258.3413 339.1468)" fill="#7D7D7D" font-family="'Verdana'" font-size="8">1 mi</text>
</g>
</svg>
