<?xml version="1.0" encoding="utf-8"?>
<!-- Generator: Adobe Illustrator 17.1.0, SVG Export Plug-In . SVG Version: 6.00 Build 0)  -->
<!DOCTYPE svg PUBLIC "-//W3C//DTD SVG 1.1//EN" "http://www.w3.org/Graphics/SVG/1.1/DTD/svg11.dtd">
<svg version="1.1" id="Layer_1" xmlns="http://www.w3.org/2000/svg" xmlns:xlink="http://www.w3.org/1999/xlink" x="0px" y="0px"
	 viewBox="0 0 360 360" enable-background="new 0 0 360 360" xml:space="preserve">
<path fill="none" stroke="#E1E1E1" stroke-miterlimit="10" d="M348,362c0.7-3.7,1.2-7.4,1-11.2c-0.5-10.8,13.3-25.4,5-32.2
	c-1.2-1-3.9,2-4.8,0.7c-1.7-2.5-1.2-5.5-2.4-8.3c-0.7-1.6-1-3.3-1.1-5c-0.7-9.3,1.9-18.9,7.2-26.6c1.2-1.7,2.5-3.4,3.7-5.1
	c2.1-3.1,3.8-6.5,5.2-10"/>
<path fill="none" stroke="#E1E1E1" stroke-miterlimit="10" d="M327.3,361.8c-0.5-4.4-0.8-10.2-0.3-15c0.8-7.5-2.2-15.1-3.4-22.6
	c-0.4-2.2-0.6-4.4-0.5-6.6c0.2-6,2.9-11.6,5.4-17c3.8-7.9,7.8-16.1,14.5-21.7c5.6-4.7,13.3-7.8,15.9-14.6c1.3-3.4,1.1-7.1,0.6-10.7
	c-1.2-9.1-4-17.8-6.9-26.5c-3.4-10.3-9.1-28.8-10.6-30.7c-0.5-0.6-1.6,0.8-2.3,0.5c-2.2-0.9-4.1-2-6.5-1.7c-3,0.3-5.9,0.7-8.9,1
	c-1.4,0.2-2.9,0.3-3.9-0.6c-1.5-1.3-1.1-3.7-0.5-5.5c1.1-3.9,2.3-7.7,3.4-11.6c0.6-2.1,1.3-4.3,2.8-6c1.5-1.7,4.2-0.2,6-1.6
	c1.5-1.1-1.7-4.1-0.4-5.4c1.6-1.6,5.2,1,6.8-0.6c7-7.2-2.1-20.3-3.3-30.3c-2.2-18.6,5.2-38,19.1-50.5c0.7-0.6,1.5-1.2,2.3-0.9
	c0.6,0.2,1,0.8,1.3,1.4c1.3,2.4,2.1,5.2,3.4,7.5"/>
<path fill="none" stroke="#E1E1E1" stroke-miterlimit="10" d="M307.4,362.6c0-0.2,0-0.4-0.1-0.7c-0.4-3.5-0.8-7.1-1.2-10.6
	c-1.2-11.1-2.5-22.1-0.1-33c0.7-3.4,1.5-6.7,2.6-10c2.2-6.6,5.9-12.7,10.2-18.2c2.7-3.4,5.7-6.5,8.8-9.6c4.1-4.2,8.4-8.4,13.2-11.7
	c3.2-2.2,7-4.5,7.5-8.4c0.2-1.9-0.4-3.7-1.1-5.5c-2.3-6.3-4.8-12.9-9.6-17.6c-5.1-5-12.4-7.5-17.3-12.8c-3.4-3.6-5.4-8.3-7.1-13
	c-1.9-5.2-3.6-10.9-2.2-16.2c0.8-2.8,2.4-5.4,3.9-7.9c5.5-9.3,9.7-19.3,12.4-29.8c0.9-3.6,0.4-7.6-0.5-11.2
	c-0.6-2.7-1.6-5.3-2.3-7.9C318,116,325,90,342,73.7c3.3-3.1,6.9-6,9.5-9.7c1.9-2.7,4.8-8.3,7.3-6.1c1.4,1.3,2.2,2.9,2.7,4.8"/>
<path fill="none" stroke="#E1E1E1" stroke-miterlimit="10" d="M174.1,362.1c-0.2-0.2-0.4-0.4-0.6-0.6c-0.7-0.9-1.1-2.2-0.4-3.1
	c0.9-1.4,3.1-0.9,4.8-0.7c4.7,0.8,8.6-2.7,12.9-4c1.8-0.5,3.2-1.4,5-2.1c1.1-0.4,2.1-0.8,3.3-0.7s3,0.6,3.3,1.7
	c0.9,3.3,1.7,6.6,2.4,9.9"/>
<path fill="none" stroke="#E1E1E1" stroke-miterlimit="10" d="M246.1,363.7c-0.1-4.5-0.1-8.1-0.1-9.8c0.3-6.5,0.1-17.1,1.2-23.5
	c0.9-5.9,2.6-11.6,3.4-17.5c1.1-8.1,0.7-16.4-1.3-24.3c-0.4-1.4-0.8-2.9-2-3.8s-2.3,0.3-3.8,0.5c-2.7,0.2-4.6-0.9-7.1-1.8
	c-2.2-0.7-2.1-4.2-3.1-6.3c-0.4-0.8-0.8-1.6-1.6-1.9c-0.5-0.2-1-0.2-1.5-0.2c-3.3,0.1-6.6,0.2-9.5,1.6c-1.2,0.6-2.6,1.3-3.6,0.5
	c-0.4-0.3-0.6-0.8-0.8-1.2c-1.4-3.4-2.2-7-2.5-10.7c-0.3-4.6,0.1-9.5-2.2-13.5c-2.7-4.6-9.1-6.7-13.9-4.5c-1.5,0.7-2.8,1.7-4.4,2.2
	c-4.3,1.5-9-1.2-13.5-0.6c-2.1,0.2-4.1,1.2-6.1,0.9c-2.8-0.3-4.9-2.7-6.8-4.8c-7.2-8.1-21.3-11.3-24.2-21.7c-0.7-2.5-1.5-7.8-4-7.2
	c-3.1,0.7-2.9,5.5-3.3,8.6c-1.3,8-1.7,16.3-5.2,23.5c-1.2,2.6-2.8,5-3.9,7.6c-0.7,1.7-1.2,3.6-1.8,5.3c-1.7,4.5-4.6,8.4-7.5,12.2
	c-3.8,4.9-7.7,9.7-11.3,14.7c-4.2,5.8-8.7,11.6-11.6,18.3c-0.4,0.9-1,2.9-1.3,3.8c-0.4,1.4-1.3,2.6-2.2,3.8c-2.1,2.9-4.1,5.9-5.9,9
	c-0.5,0.9-1.1,1.9-1.4,2.9c-0.3,1.1-0.3,2.3-1.1,3.1c-0.4,0.4-0.9,0.7-1.4,1.1c-0.5,0.5-0.9,1.1-1.3,1.7c-3.6,5.9-7.4,12.1-7.7,19
	c-0.1,3,1.5,8.6-1.4,8.6c-3.8,0-4.9-6.4-8.7-6.4c-2,0-4.3,0.9-5.7-0.4c-0.7-0.7-1-1.7-1.2-2.7c-2-8.2-7-15.6-13.9-20.6
	c-2.1-1.5-4.6-3-5.5-5.5c-0.4-1.2-0.5-2.6-0.9-3.8c-0.5-1.2-1.7-2.3-2.9-2c-0.5,0.1-0.9,0.4-1.3,0.7c-4.3,3.3-8.4,6.9-11.5,11.3
	s-5,9.8-4.7,15.2c0.2,2.8,1,5.6,1.1,8.4c0.1,2.7-0.4,5.3-1,8"/>
<path fill="none" stroke="#E1E1E1" stroke-miterlimit="10" d="M42.8,360.7c-0.7-0.5-1.4-1.1-2.1-1.7c-1.5-1.3-3.1-2.8-4.3-4.3
	c-4.2-5.2-7.3-11.3-9.6-17.6c-0.3-0.9-0.9-2-1.9-1.9c-0.7,0-1.2,0.7-1.6,1.3c-1.7,2.9-2.7,6.2-3,9.6c-0.2,2.9,0.1,5.9,0.7,8.7
	c0.3,1.6,0.7,3.2,0.5,4.7c-0.1,1.1-0.6,2.1-1,3.1"/>
<path fill="none" stroke="#E1E1E1" stroke-miterlimit="10" d="M230.4,363.3c0.2-3.6,0.4-7.2,0.7-10.8c0.3-3.9,0.6-7.6,0.8-11.5
	c0.1-1.8,0.1-3.5,0-5.3c-0.2-9.6-0.4-19.1-0.6-28.7c0-1.2-0.1-2.5-0.5-3.6s-1.5-2.1-2.7-2.1c-1.4,0-2.5,1.1-3.4,2.1
	c-2.4,2.6-4.8,5.2-7.2,7.8c-3.9,4.2-10.1,12.3-14.3,8.5c-1.4-1.3-0.9-4.3-2.8-4.8c-1.2-0.3-2.8,0.3-3.7-0.7
	c-1.2-1.2,0.4-3.1,0.6-4.8c0.1-1-0.2-1.9-0.6-2.9c-3.6-9.6-4.6-20.2-2.9-30.3c0.6-3.7,1.4-8.2-1.3-10.8c-1.6-1.5-4-2-6.1-1.7
	c-2.2,0.3-4,1.9-6.2,2.2c-2.9,0.3-6.2-1-9,0c-2.4,0.9-5,2.3-7.2,1c-0.7-0.4-1.3-1.1-1.8-1.7c-2.1-2.6-4.2-5.2-6.3-7.9
	c-3.4-4.3-6.8-8.6-11.4-11.6c-1.3-0.8-2.7-1.6-4.2-1.5c-2.4,0.1-4.2,2.3-4.5,4.7c-0.3,2.3,0.6,4.7,1.9,6.6c0.5,0.7,1,1.5,1.2,2.3
	c0.1,0.9-0.2,1.9-0.6,2.8c-1.8,4.4-3.6,8.7-5.4,13.1c-0.6,1.4-1.2,2.9-2.1,4c-0.8,1-1.9,1.8-2.8,2.8c-1.7,1.7-2.9,3.7-4.5,5.4
	c-3.5,3.8-8.4,6-12.3,9.4c-3.4,2.9-5.5,6.9-8.4,10.3c-0.7,0.8-2.3,2.2-3,3c-3.1,3.5-5.4,7.7-7.8,11.6c-0.8,1.3-1.5,2.5-2.1,3.9
	c-0.5,1.3-0.8,2.7-1.2,4.1c-0.6,2.2-1.4,4.3-2.1,6.4c-2.2,6.2-4.8,12.7-7,18.9c-1.1,3.1-2.2,6.2-3.3,9.3"/>
<path fill="none" stroke="#E1E1E1" stroke-miterlimit="10" d="M361.3,31.2c-3.8-0.2-8.1,2.7-9.6,6.5c-0.3,0.8-0.5,1.7-1,2.4
	c-1,1.3-3.1,1.4-4.5,0.6c-1.5-0.8-1.7-3-3.2-3.8c-4.9-2.7-11,2.8-15.1,6.7c-1.1,1-2.1,2.6-1.4,3.9c0.4,0.6,1.1,1,1.4,1.7
	c0.9,1.7-1,3.4-2.3,4.6c-2.1,1.9-3.5,4.6-4,7.4c-0.1,0.8-0.2,1.8-0.8,2.4c-1,1.2-2.9,0.8-4.5,1c-4,0.6-5.9,5.1-7.1,8.9
	c-1.3,4.2-2.6,8.7-1.6,13c0.4,1.8,1.3,3.6,1.5,5.5c0.2,2.2-0.4,4.4-1,6.5c-2.1,7.4-3.5,15-2.8,22.7c0.7,7.6,6.2,13.4,9,20.5
	c3.8,9.8,3.8,21.1-0.1,30.9c-2.9,7.4-7.9,13.8-12.2,20.5c-2,3.1-3.9,6.3-5.6,9.6c-1.3,2.4-2.5,5-2.6,7.8c-0.1,4.3,2.5,8.8,0.6,12.7
	c-0.7,1.4-1.9,2.5-2.6,3.9c-0.7,1.4-1.1,2.9-1,4.5c0.3,6.1-3,12.8-1.4,13.2c2,0.5,3.4-3.8,5.4-3.1c1.9,0.6,3.6,3.7,5.1,5.1
	c1.9,1.8,4.5,3.7,4.9,6.2c0.2,1.4-0.4,2.4,0.8,3.2c0.7,0.4,1.4,1.2,2.1,1.6c1.3,0.8,0.9,3-0.4,4c-1.2,1-2.9,1.1-4.4,1.7
	c-5,1.8-7.7,7-10.8,11.3c-3.2,4.3-8.8,8.1-13.5,5.6c-3.6-2-4.6-6.8-7.6-9.5c-2-1.8-4.9-2.6-7.4-1.8c-2.5,0.8-1.7,3.2-3.8,4.8
	c-2,1.5-7.9-1.4-8.2-3.8c-0.6-5.9-3.7-7.6-6.7-12.7c-1.6-2.8,4.9-7.3,6.5-11.1c0.9-2.2,0.1-5,1.5-7c2-2.9,6.1,0.2,9.9,2.8
	c1,0.7-0.2-2.5,0.9-2.9c1.2-0.4,2.4,0,3.6,0.3c1.2,0.2,2.6,0.2,3.4-0.7c0.5-0.7,0.6-1.6,0.5-2.5c-0.2-3.8-3.2-7-3.2-10.8
	c0-3.3-2.4-5.8-4.3-8.6c-2.2-3.3,0.9-8.5-1.9-11.3c-1.7-1.7-4.4,2.1-5.7,4.1c-0.7,1.1-1.2,2.3-1.9,3.4c-0.8,1.3-2,2.3-3.1,3.3
	c-9.4,8.5-19.1,17.3-31.3,20.9c-5.5,1.6-11.2,2.1-17,2.6c-5.1,0.4-10.2,0.7-15.2,0c-8.1-1.2-15.9-5.2-21.5-11.2
	c-7.9-8.4-11.9-20.6-21.9-26.3c-0.6-0.3-1.2-0.6-1.8-0.7c-1.4-0.2-2.8,0.6-3.9,1.6c-7.3,6-9,16.3-10.3,25.7
	c-0.6,4.2-1.1,8.4-1.7,12.6c-0.3,2.1-0.6,4.3-1.8,6c-0.9,1.2-2.1,2.2-3.2,3.2c-1.1,1-2.1,2.2-3.1,3.4c-13.3,16-24.8,33.2-35.1,51.3
	c-2,3.5-4.3,10.6-7,13.3c-0.7,0.7-1.5,1.4-2.2,2.1c-4.4,4.3-6.8,10.6-6.5,16.7c0.1,1.6,0.5,4.5-1.1,4.3c-1.3-0.1-1.6-2-2.3-3.1
	c-2.9-4.2-5.7-8.4-8.6-12.6c-1.3-1.9-2.5-3.7-4.1-5.3c-1.5-1.6-3.4-2.9-4.7-4.6c-1.5-2.1-2.3-4.1-3.3-5.9c-0.7-1.2-1.3-2.6-2.6-3.3
	c-1.9-1.1-4.6-1-5.8-2.9c-0.8-1.3-0.5-3-0.9-4.5c-0.3-1.3-1-2.5-1.2-3.8c-0.2-1.3,0.1-2.8-0.9-3.8c-0.7-0.6-1.8-0.7-2.6-0.3
	c-0.9,0.4-1.5,1.1-2.2,1.7c-2.6,2.7-5.1,5.7-6,9.3c-0.3,1.1-0.7,2.1-1.4,3c-1,1-1.8,3.9-2.6,5c-3.8,5.1-12.1,13.3-12.2,21.1
	c-0.1,6.5,2.6,13.7-1,19.1c-2.6,3.9-7.8,5.5-10.3,9.5c-1.3,2.1-1.9,4.8-4,6.2c-0.4,0.3-0.9,0.5-1.4,0.6"/>
<path fill="none" stroke="#E1E1E1" stroke-miterlimit="10" d="M-10.4,345.8c2.3-6.1,2.9-13.5,4.9-19.9c1.8-5.5,4.8-10.6,7.8-15.5
	c0.1-0.2,0.1-0.4,0.3-0.5c1.1-0.6,2.4-1.5,2.8-2.6c0.5-1.1,0.5-2.3,0.8-3.5c2-10.6,15.5-16,17.5-26.5c0.4-2.1,0.3-4.3,0.2-6.5
	c-0.1-2.6-0.3-5.3-0.4-7.9c-0.1-1.6-0.2-3.3,0.5-4.8c0.8-1.8,2.7-2.9,3.5-4.7c0.7-1.5,0.6-3.3,1.4-4.8c0.8-1.5,2.3-0.9,4-0.8
	c1.1,0.1,1-2.4,2.1-2.5c2.4-0.3,0.9,4.7,2.1,6.9c0.4,0.8,1.1,1.3,1.5,2.1c1.6,2.5,0.8,5.8,1.2,8.8c0.4,2.8,1.8,5.3,2.8,7.9
	c1.6,4.6,1.6,9.6,1.5,14.6c-0.1,4.5-0.1,9.1-1.7,13.2c-0.2,0.6-0.4,1.4,0.2,1.7c0.2,0.1,0.6,0.1,0.8,0c4.8-0.7,11.4,0.8,12.8,5.5
	c0.3,0.9-0.4,2.7-0.1,3.6c0.4,1.3,1.3,2.4,1.5,3.7c0.1,0.3,0.1,0.7,0.2,1c0.4,0.9,1.2,1.5,1.8,2.2c0.5,0.5,1.2-0.4,1.5-1
	c1.3-2.2,3-4.1,5.1-5.5c2.4-1.7,5.1-3.5,7.2-5.5c1.3-1.2,2.3-2.9,3.1-4.5c6.4-11.5,12.9-23,19.3-34.4c2.5-4.5,5.1-9.1,8.8-12.8
	c4.2-4.3,9.8-7.3,13-12.4c1.9-3,2.7-6.4,3.7-9.7c4.1-13.8,10.1-27.1,18-39.1c2.3-3.6,8.2-9.7,10.2-6c1.2,2.1,3.3,2.6,5.3,3.9
	c2.6,1.8,2,5.8,3.1,8.7c0.9,2.4,3,4.1,5,5.6c7.4,5.6,13.2,12.3,16.8,20.9c2.4,5.7,10.6,6.5,16.8,6.6c6.2,0.2,12.3-1.5,18.1-3.6
	c5.4-2,10.8-4.4,15.2-8.2c6.1-5.3,9.8-12.7,14.2-19.5c6.6-10.2,14.9-19.2,24.6-26.6c2.8-2.1,1.3-6.4,2-9.8c0.2-0.8,0.3-1.6,0.7-2.3
	c0.4-0.6,1-1,1.4-1.6c1.6-2.2,0-5.5,1.1-8c0.7-1.6,3-3.4,1.9-4.8c-3.7-4.1-8.9-6.6-12.4-10.8c-0.4-0.5-0.8-0.9-1.3-1.2
	c-0.6-0.3-1.4-0.3-2.1-0.3c-3.9-0.1-7.8-1.4-11-3.7c-0.7-0.5-1.4-1.2-1.7-2c-0.2-0.7,0-1.4-0.1-2.1c-0.1-2.7-2.7-4.7-5.3-5.4
	c-2.6-0.7-5.5-0.6-8,0.5c-1.5,0.6-3.2,1.5-4.5,0.6c-0.5-0.3-0.8-0.8-1.2-1.2c-1.1-0.9-2.8-0.7-4.1,0.1c-1.2,0.8-2.2,1.9-3.3,2.9
	c-2.1,1.9-4.7,3.1-7.3,4.3c-3.2,1.4-6.4,2.9-9.8,3.3c-1.9,0.2-3.8,0.2-5.7,0.1c-3.5-0.1-7.1-0.2-10.6-0.4c-1.1,0-2.2-0.1-3.3,0.2
	c-0.8,0.2-1.5,0.7-2.3,1.1c-5.3,2.9-11.2,4.7-17.3,5.1c-1.3,0.1-2.8-0.1-3.3-1.2c-3.6-8.7,0.6-18.9,0.6-28.3c0-2.5-0.1-5.1-0.9-7.4
	c-0.5-1.3-1.2-2.5-1.6-3.9c-0.6-1.8-0.7-3.7-0.8-5.6c-0.4-4.6-1.1-9.2-2.3-13.7c-0.2-0.7-0.4-1.5-1.1-1.9c-0.5-0.3-1.1-0.2-1.7-0.2
	c-4,0.4-8.1,1.5-11.8-0.1c-3-1.3-5-4.4-5.9-7.5s-0.9-6.5-0.8-9.8c0.1-7.4,0.2-14.8,0.2-22.2c0.1-4.8,0.1-9.7,1.2-14.4
	c0.8-3.5,2.2-6.9,3.7-10.3c0.9-2,1.8-4.1,2.2-6.3c0.9-5.3-1.6-10.7-0.3-15.9"/>
<path fill="none" stroke="#E1E1E1" stroke-miterlimit="10" d="M159.7,350.5c-0.9,0.2-1.6-0.5-2.2-1.2c-0.6-0.7-1.2-1.5-1.7-2.3
	c-0.6-1-1-2.1-1.2-3.3c-0.6-2.3-0.8-4.7-1-7.1c-0.1-1.3-0.3-2.6-0.4-3.9c-0.1-0.7-0.1-1.4,0-2.1s0.7-1.3,1.4-1.4
	c0.7-0.1,1.4,0.2,1.8,0.8c0.4,0.5,0.7,1.2,0.9,1.8c1.1,3.1,2.1,6.2,3.2,9.3c0.2,0.6,0.4,1.2,0.5,1.8c0.4,1.7,0.2,3.5,0,5.2
	C160.9,349.1,160.7,350.3,159.7,350.5z"/>
<path fill="none" stroke="#E1E1E1" stroke-miterlimit="10" d="M40.2,361.8c-3-3.6-5.9-7.3-7.6-6.3c-1.5,0.9-0.7,3.8-1.9,7.2"/>
<path fill="none" stroke="#E1E1E1" stroke-miterlimit="10" d="M215.7,364c-0.7-5.3-1.4-10.5-0.4-14.9c0.3-1.1,0.4-2.8,0.1-3.9
	c-0.3-1.1-0.9-2.2-1.2-3.3c-0.3-1.3-0.2-2.7-0.6-3.9c-0.3-1-0.8-1.9-1.3-2.9c-0.5-0.8-1-1.6-1.9-1.8c-0.8-0.1-1.6,0.4-2.2,1
	c-3,2.7-5.7,5.9-9.6,7.2c-0.6,0.2-1.9,0.6-2.5,0.9c-3.6,1.5-7.3,0.7-10.8,2.4c-0.7,0.3-1.3,0.8-2,0.9c-0.9,0.1-1.7-0.5-2.6-0.7
	c-1-0.3-2.1-0.3-3.1-0.8c-2.3-1.1-2.4-4.3-3.9-6.4c-0.5-0.8-1.3-1.4-1.9-2.2c-1.8-2.2-2.1-5.3-2.3-8.1c-0.4-6.3-0.5-12.7-0.3-19
	c0.3-9.9,9.3-21.8,2.9-29.3c-2-2.3-6.1-0.2-9,0.9c-0.7,0.3-1.4,0.6-2.2,0.4c-0.6-0.1-1-0.5-1.5-0.9c-5.2-4.3-10.6-9.1-12.7-15.5
	c-0.7-2-1.8-5.8-3.6-4.8c-2.7,1.6,0.6,6.1,0.7,9.2c0.1,2.8-1.3,5.3-2.7,7.7c-1.8,3.1-3.5,6.2-5.5,9.2c-5.2,7.7-11.9,14.3-19.7,19.5
	c-2,1.3-5.9,4-7.8,5.4c-4.3,3.2-8.3,6.7-11.6,10.8c-3.3,4.2-5.6,9.3-5.5,14.6c0,0.8,0.1,1.7,0.8,2.2c1,0.8,2.4,0.2,3.5-0.3
	c21.8-8.8,24.8-14.4,26.9-13.5c3.1,1.4,5.2,12.5,7.8,18.8c1.9,4.6,3.9,9.3,4.2,14.3c0.1,2.2,0,4.4-0.1,6.5"/>
<path fill="none" stroke="#E1E1E1" stroke-miterlimit="10" d="M362.5,100.4c-0.7-0.3-1.5-0.7-2.3-0.7c-0.8,0-1.6,0.5-2.2,0.9
	c-4.5,3.2-7.5,8.2-9.3,13.4s-2.4,10.8-3.1,16.3c-1.1,9.1-2.1,18.6,0.7,27.3c0.3,1.1,0.7,2.1,1.5,2.9c0.9,1.1,2.3,1.7,3.6,2.3
	c3.4,1.5,6.9,3,10.6,3.4"/>
<path fill="none" stroke="#E1E1E1" stroke-miterlimit="10" d="M361.3,112.3c-0.9,1.3-1.8,2.7-2.7,4c-2.7,4.1-5.6,8.8-4.7,13.7
	c0.3,1.3,0.8,2.6,0.9,3.9c0.3,3.5-2,6.6-3.9,9.5c-0.9,1.5-1.7,3.3-1.1,4.9c0.5,1.2,1.6,2,2.7,2.7c2.9,1.9,5.9,3.7,9.2,4.7"/>
<path fill="none" stroke="#E1E1E1" stroke-miterlimit="10" d="M361.4,140.5c-1.3,1.2-2.9,1.8-4.4,2.7c-1.5,0.9-4.2,2.8-2.9,4
	c2,2,5,2.3,8,2.5"/>
<path fill="none" stroke="#E1E1E1" stroke-miterlimit="10" d="M143.5,277.4c-1.5,3.4-2.6,7-2.7,10.7c0,1,0,1.9-0.2,2.9
	c-0.4,2-1.8,3.9-1.3,5.8c0.1,0.5,0.4,1,0.7,1.5c1.9,3.3,4.9,5.9,8.3,7.5c1.5,0.7,3.5,1,4.5-0.2c0.5-0.6,0.6-1.5,0.6-2.3
	c0.1-2.7,0.2-5.5,0.3-8.2c0.1-3.7,0.3-7.4-0.6-11c-0.4-1.9-1.2-3.7-2.5-5.1c-1.4-1.4-2-3-3-4.7C146.6,272.7,144.2,275.8,143.5,277.4
	z"/>
<path fill="none" stroke="#E1E1E1" stroke-miterlimit="10" d="M206.4-9.5c-0.1,4.2-0.1,8.3-0.2,12.5c0,0.7,0,1.4-0.3,2
	c-0.5,1-1.5,1.5-2.5,2c-2.3,1.1-5,2.3-7.4,1.2c-0.9-0.4-1.7-1.1-2.6-1.3c-1.7-0.4-3.6,0.8-5.2,0c-0.8-0.4-1.3-1.2-1.9-1.8
	c-1.6-1.3-4-0.8-6-1c-2.1-0.1-4.1-1-6.2-1.2c-2.4-0.2-4.9,0.5-6.8,1.9c-2,1.4-4.4,3.7-6.4,2.3c-0.7-0.5-1.1-1.4-1.8-1.8
	c-1.5-0.9-3.4,0.3-4.1,1.9c-0.6,1.6-0.5,3.4-0.7,5.1c-0.7,4.8-4.6,8.6-6.1,13.2c-1.5,4.5-0.6,9.8-3,13.8c-1.2,2-3.1,3.5-4.2,5.5
	c-1.9,3.3-1.7,7.3-1.3,11.1c0.3,3.2,0.8,6.8,3.5,8.6c3.5,2.3,8,0,12.1-0.4c1.5-0.1,3,0,4.4-0.4c2.3-0.6,4.2-2.5,4.9-4.8
	c1-3.5-1-7.2-1-10.9c0-4.7-0.7-11.8,3.6-13.4c3.9-1.5,6.1,6.4,6.2,10.6c0.1,2-0.6,4-0.3,5.9c0.2,1.2,0.6,2.3,1,3.5
	c1.4,5,3.6,15.1-1.6,15.4c-4,0.3-6.8-5.1-10.1-2.8c-0.6,0.4-1.2,1-1.4,1.7c-0.2,0.6-0.2,1.3-0.1,2c0.9,9.7,3.2,19.3,6.6,28.4
	c0.8,2.1,1.7,4.2,3.4,5.6c1.7,1.4,4.5,1.7,6.1,0.1c1.5-1.6,1.2-4.3,2.7-5.9c0.7-0.8,1.7-1.2,2.7-1.7c4.9-2.9,6.2-9.4,6.6-15.1
	c0.1-1.1,0.2-2.4,1-3.2c0.8-0.8,2.1-0.9,3.1-1.4c1.7-0.7,3-2.3,4.1-3.8c5.2-6.8,10.4-13.5,15.5-20.3c1.9-2.4,3.7-4.9,5.2-7.5
	c5.2-9.1,5.8-20.4,11.8-29c1.8-2.6,3.9-4.8,5.8-7.3c4.2-5.9,6.4-13,7.7-20.2"/>
<path fill="none" stroke="#E1E1E1" stroke-miterlimit="10" d="M178.7,42.1c0.2,1,0.9,1.8,1.3,2.8c0.4,1.1,0.4,2.4,0.7,3.5
	s1.2,2.3,2.4,2.3c1,0,1.8-0.8,2.5-1.6c3-3.8,4.4-8.6,5.6-13.3c0.7-2.6,1.3-5.3,1.2-8.1c-0.1-2.7-0.5-5.8-2.7-7.5
	c-1.3-1.1-3.4-0.4-4.9,0.6s-2.4,2.4-3.4,3.9c-1.7,2.5-3.4,5.1-3.3,8.1c0.1,1.8,0.8,3.6,0.8,5.4C178.9,39.5,178.4,40.8,178.7,42.1z"
	/>
<path fill="none" stroke="#E1E1E1" stroke-miterlimit="10" d="M-10.3,320.3c2-2.9,2.2-6.6,2.8-10.1c1.3-7.9,4.7-15.5,9.9-21.7
	c4.2-5.1,9.6-9.3,12.6-15.2c3.2-6.5,3.2-14.2,6.2-20.7c1.4-3,3.4-5.6,5.4-8.2c2.4-3.1,4.8-6.3,7.2-9.4c1.7-2.2,4.4-5.8,6.7-4.3
	c4.1,2.7,2.7,14.1,7.4,12.7c1.4-0.4,1.6-2.5,3.1-2.4c1.5,0.2,2.7,1.1,3.8,2c3.2,2.5,7.1,5.6,9.2,8.9c0.8,1.2-0.7,3,0.3,4
	c0.9,0.9,3.8-0.9,4.8-0.7c5.4,0.8,10.6-4.2,14.9-8.8c5.2-5.5,9.4-12.1,15.6-16.5c5.6-4.1,13.2-6.9,15.2-13.5
	c0.4-1.3,0.6-2.8,1.1-4.1c0.6-1.5,1.6-2.7,2.5-3.9c9.1-11.9,18.8-27.9,13.5-41.9c-3-7.9-10.8-13.1-16.2-19.6
	c-2.2-2.6-4.4-5.4-5.2-8.7c-0.8-3.4,0.4-6.8,1.2-10.2c5.6-22.2,24.6-21.9,37.7-20.6c4.3,0.4,0.6-9.2-0.1-13.5
	c-0.2-1.2,0.4-2.8-0.5-3.5c-2.5-1.9-6-1.2-8.7-2.8c-0.8-0.5-1.7-1-2.3-1.7c-0.5-0.7-0.7-1.5-0.9-2.3c-2.4-8.7-4.9-17.4-5.2-26.4
	c-0.3-8.6,1.4-17.1,0.7-25.7c-0.3-4.1-1.2-8.3-0.9-12.4c0.7-9.6,7.8-18.7,5.5-28.1"/>
<path fill="none" stroke="#E1E1E1" stroke-miterlimit="10" d="M-13.2,292.8c9.2-10,18.7-20.2,23.7-32.9c2-5.1,3.3-10.5,6.4-15.1
	c1.6-2.3,3.6-4.3,5.6-6.3c1.4-1.4,2.8-2.8,4.3-4.2c2.6-2.6,5.3-5.2,8.2-7.5c5-3.9,10.8-6.7,16.1-10.1c2.4-1.5,4.9-3.3,7.7-3.7
	c2.8-0.4,5.6,0.5,8.3,1.5c2.2,0.8,5.7,0.2,6.7,2.3c1.1,2.3,6,0.8,5.7-1.4c-0.5-3.8,2.4-6.8,5.7-8.7c5.3-3,15.7-8.2,15.8-9.1
	c0.4-3.3-6.5-2.5-2-8.8c1.9-2.7,4.3-5.1,7-7c1.8-1.3,3.7-2.6,5.5-3.9c0.6-0.4,1.2-0.9,1.5-1.6c0.8-1.8-1.1-3.6-2.6-4.8
	c-6-4.7-10.1-11.5-14-18.1c-0.6-1-1.2-2.1-1.4-3.2c-0.1-0.9,0-1.8,0.2-2.6c1.7-6.7,7.2-11.7,9.8-18.1c2.7-6.7,2.2-14.6,6.1-20.7
	c0.3-0.4,0.6-1.1,0.9-1.4c0.8-0.8,0.5-1.1,0.5-2.2c-0.1-3.1,1.6-6,3.3-8.7c1.7-2.8,3.9-5.3,6.4-7.5c0.4-0.3,0.8-0.7,0.9-1.1
	c0.1-0.4,0.1-0.7,0-1.1c-0.4-2.5-0.9-5.3-3.1-6.6c-0.5-0.3-1.1-0.5-1.5-1c-0.4-0.5-0.5-1.3-0.5-2c0-8.4,4.7-16,8.4-23.5
	c0.5-1,1-2,1.3-3.1c1.2-3.6,0.9-7.6,0.6-11.4c-0.7-7.8,4.6-19.1-2-23.3c-1.7-1.1-4.1-0.9-4.5-2.8c-0.5-2,0.4-4,1.7-5.5
	c1.3-1.5,3-2.7,4.5-4c1.5-1.3,2.8-2.7,3.9-4.4c1.7-2.7,2.5-5.9,2.4-9.1"/>
<path fill="none" stroke="#E1E1E1" stroke-miterlimit="10" d="M-11.3,274.2c8.5-11.8,17.1-23.5,25.6-35.3c1-1.4,2-2.8,3.3-3.9
	c1.2-1,2.6-1.8,3.7-3c1.3-1.3,2.1-3.1,3-4.7c3.7-6.6,9.6-11.6,15.4-16.5c5.4-4.6,10.5-9.5,16.2-13.7c5.6-4.1,6.4-1.8,9.6-3.4
	c1-0.5,1-3.1,1.9-3.8c5.5-3.6,9.5-7.2,13.2-13c0.5-0.9,0.5-2,1-2.8c1.4-2.3,5-3.2,5.4-5.9c0.1-1.3-0.6-2.5-1.1-3.7
	c-2.7-5.9,0-11.7,3.2-17.3s9-14.3,9.8-17.1c4.6-15.8,10.1-32.5,11.8-43.4c0.2-1.1-0.3-2.4,0.3-3.4s1.4-2,1.2-3.2
	c-0.1-0.7-0.6-1.2-1-1.8c-1-1.6-1-3.5-1-5.4c0-3.5,0.1-7,1.1-10.4c0.4-1.3,0.9-2.6,1.1-3.9c0.5-3.3-1.1-6.6-1.4-9.9
	c-0.3-4.1,1.3-8.1,1.5-12.1c0.1-2.2-0.3-4.4-0.1-6.6c0.3-3.6,2.1-7,3.4-10.4c1.2-3.4,1.9-7,2.1-10.6c0.1-3.1-0.2-6.3,0-9.5
	s1.1-6.4,3.3-8.7"/>
<path fill="none" stroke="#E1E1E1" stroke-miterlimit="10" d="M-13,252.7c2.9-1.8,5.4-4.2,7.8-6.5c7.3-7.2,13.7-15.3,20.2-23.3
	c6.1-7.7,12.3-15.3,18.4-23c2-2.5,4.1-5.1,6.7-7c1.5-1.1,3.3-2.1,4.3-3.7c0.7-1.1,1-2.5,1.4-3.7c1-2.6,2.8-4.6,5.1-6.3
	c0.8-0.6,2.2-0.5,2.8-1.2c0.7-0.8,0.5-2.7,1-3.7c2.9-4.8,5-9.6,9.6-12.9c0.5-0.4,1.1-0.8,1.4-1.3c0.7-1.5-0.7-3-1.4-4.5
	c-2.7-5.6,4.8-11.6,3.7-17.7c-0.2-1.2-0.8-2.4-0.8-3.7c0.1-2.9,3.3-5.6,2-8.2c-0.3-0.7-0.9-1.2-1.4-1.8c-2.3-3.3,1.3-7.4,3.1-11
	c2.6-5.1,1.7-11.1,1.1-16.8s-0.4-12.1,3.7-16.1c0.8-0.8,1.7-1.5,1.9-2.5c0.3-1.9-0.1-3.4,0.4-5.2c3-11.6,13.3-22,15.5-34.4
	c0.7-4,0.6-8.3,2.5-11.9c0.8-1.5,2-2.8,2.8-4.3c1.1-1.9,1.6-4,2.2-6.1c1-3.7,2-7.3,2.9-11c1.2-4.5,2.4-9.1,2.4-13.8"/>
<path fill="none" stroke="#E1E1E1" stroke-miterlimit="10" d="M-12,227.7c7.6-7.6,15.2-15.2,22.8-22.8c0.9-0.9,1.9-1.9,2.5-3.1
	c1.3-2.7,0.3-6.2,1.6-8.9c0.2-0.5,0.5-0.9,0.6-1.5c0.1-0.7-0.2-1.4-0.4-2.2c-0.6-2.5,3.1-4.9,2.1-7.3c-1.2-2.7-9-3.5-13.7-4.2
	c-0.6-0.1-1.3-0.2-1.9,0c-0.7,0.2-1.3,0.6-1.8,1c-4.2,3-8.4,6-12.6,9"/>
<path fill="none" stroke="#E1E1E1" stroke-miterlimit="10" d="M-12,174.7c3.8-1.4,5.5-5.5,8.2-8.5c2.5-2.7,5.8-4.3,9.1-5.9
	c9.8-4.8,19.5-9.6,29.3-14.4c1.4-0.7,2.9-1.4,4-2.5c2.1-2.1,2.8-5.3,3-8.3c0.1-1.4,0.1-2.8,0.8-4c0.6-1.1,1.6-1.9,2.4-2.9
	c3-3.5,2.9-8.6,2.7-13.3c-0.3-5.8-0.6-11.6-0.8-17.5c-0.1-1.1-0.2-2.4-1-3.1c-0.5-0.5-1.2-0.6-1.9-0.7c-3.2-0.3-6.2,1.6-8.8,3.4
	c-3.1,2.1-6.2,4.2-8.8,6.8c-5.5,5.5-8.6,12.9-13.5,18.9c-2.3,2.8-4.9,5.2-7.2,7.9c-3.3,3.8-5.9,8.1-9.1,12c-3.2,3.9-7,7.5-11.7,9.3"
	/>
<path fill="none" stroke="#E1E1E1" stroke-miterlimit="10" d="M-11.7,128.3c-0.2,0.1-0.6,0.5-0.8,0.2c-3.9-7,9.3-12.2,13.2-19.1
	c3.3-5.8,7.3-11.1,12.1-15.8c1.5-1.5,3.2-3.1,3.7-5.2c0.5-2.1-0.7-4.8-2.8-4.8c-0.6,0-1.2,0.2-1.5,0.7c-0.2,0.4-0.1,0.8-0.1,1.2
	c0,1.5-1.1,2.9-2.4,3.6s-2.9,0.9-4.4,1.1c-0.8,0.1-1.5,0.2-2.2,0.6c-0.7,0.3-1.3,0.9-1.8,1.4c-3.1,3-6.3,6.1-8.3,10
	c-1.6,2.9-2.5,6.3-4.9,8.6"/>
<path fill="none" stroke="#E1E1E1" stroke-miterlimit="10" d="M-9.6,74.5c-0.4-5.4,1.3-10.7,3-15.9c2.3-7.1,4.6-14.2,6.9-21.2
	c0.5-1.7,1.1-3.4,2-4.9c1.9-3.3,5.1-5.6,7.9-8.2c7.2-6.5,12.3-15,17.4-23.4c1.7-2.8,3.4-5.7,5.1-8.5"/>
<path fill="none" stroke="#E1E1E1" stroke-miterlimit="10" d="M-10.6,35c1.5-2.3,3.1-4.5,4.8-6.7c1.2-1.5,2.4-3,3.1-4.7
	c0.5-1.2,0.7-2.5,1.3-3.6C1.2,15.1,8.8,16,13,12.3c1.4-1.3,2.4-3,3.3-4.7c1.7-3.3,3.5-6.5,5.2-9.8c0.9-1.7,1.9-3.6,1.9-5.5"/>
<path fill="none" stroke="#E1E1E1" stroke-miterlimit="10" d="M287.1,235.6c0-0.1-0.1-0.2-0.2-0.3c-0.5-0.3-1.2-0.1-1.6,0.3
	s-0.6,1-0.8,1.5c-0.5,1.7-1.8,4-0.5,5.3c0.4,0.4,1.1,0,1.6-0.3c0.6-0.4,1-1.1,1.2-1.8c0.2-0.6,0.2-1.2,0.3-1.8
	c0-0.9,0.1-1.8,0.1-2.7C287.1,235.7,287.1,235.6,287.1,235.6z"/>
<path fill="none" stroke="#E1E1E1" stroke-miterlimit="10" d="M283.8,234.8c0-0.6-0.1-1.3-0.1-1.9c0.1-1.3,1.7-3.2,0.5-3.8
	c-0.7-0.5-1.4,0.9-1.8,1.7c-1.2,2.6-3.4,5.4-2.5,8.1c0.2,0.6,1.2,0.3,1.8,0c0.5-0.4,0.8-0.9,1.2-1.5
	C283.3,236.5,283.8,235.7,283.8,234.8z"/>
<path fill="none" stroke="#D6D6D6" stroke-miterlimit="10" d="M30.8,172.8c1.4,1.4,3.7,1.2,5.6,0.6c1.8-0.7,3.6-1.7,5.5-2
	c3-0.4,6,1.2,8.4,3.1c5.4,4.3,9.3,10.2,13.1,16.1c2,3.1,4,6.2,6,9.3c3.7,5.7,7.6,12.4,5.9,19c-0.8,2.8-2.5,5.3-3.6,8.1
	c-2.3,5.9-1.3,12.5-2.4,18.7c-1.4,7.8-5.9,14.6-10.8,20.7c-1,1.3-2.1,2.5-2.8,4c-1.3,2.6-1.5,5.7-1.5,8.6c0.2,9.6,2.4,19,4.7,28.3
	c2.4,10,4.9,19.9,7.3,29.9"/>
<path fill="none" stroke="#D6D6D6" stroke-miterlimit="10" d="M276.1,363.4c-0.2-1.2-0.6-2.4-1.1-3.5c-1.3-2.8-2.7-4.5-1.5-7.3
	c0.7-1.7,0.5-4.3,0.2-6.1c-0.1-0.4-0.2-0.9-0.1-1.3c0.1-0.4,0.3-0.8,0.5-1.2c1.7-3.4,0.3-8,2.7-10.9c0.4-0.5,1-1.1,0.7-1.7"/>
<path fill="none" stroke="#D6D6D6" stroke-miterlimit="10" d="M101.3,362.4c3.1-5.7,7-10.9,10.8-16.2c1.3-1.8,2.5-3.7,3-5.8
	c0.2-1.3,0.2-2.6,0.7-3.8c0.8-2,3.2-3.4,3.1-5.6"/>
<path fill="none" stroke="#4E9BD7" stroke-miterlimit="10" d="M-11.1,205.3c5.4-2.6,11.3-5.8,12.8-11.6c0.2-0.9,0.4-1.9,0.9-2.6
	c0.4-0.5,1-0.9,1.5-1.2c7.3-4.5,14.5-8.9,21.8-13.4c1.8-1.1,3.7-2.3,5.2-3.8c1.4-1.3,2.4-2.9,3.8-4.3c3.4-3.5,8-5.3,12.6-7.1
	c3.6-1.4,7.4-2.8,11.2-2.5c5.7,0.5,10.3,4.7,15.6,6.8c1.9,0.8,3.9,1.3,6,1.8c5,1.3,10.1,2.5,15.1,3.8c1.4,0.4,2.9,0.7,4.2,1.5
	c1.4,0.8,2.5,2,3.9,2.8c4.5,2.6,11,0.3,12.9-4.5c0.2-0.5,0.3-1,0.7-1.4c0.8-1,2.5-1.3,3.9-1.2c7.1,0.7,14.3-0.5,20.6-4
	c0.3-0.2,1.7-0.4,2.5-0.2"/>
<path fill="none" stroke="#D6D6D6" stroke-miterlimit="10" d="M193.4,160.4c0-0.7-0.2-1.4-0.2-2.1c-0.1-0.7,0.1-1.5,0.6-2
	c0.5-0.5,1.3-0.5,2.1-0.4c1.2,0,2.5,0.1,3.7,0.1"/>
<path fill="none" stroke="#D6D6D6" stroke-miterlimit="10" d="M202.9,162c-0.5,2.6,0.2,5.4,2,7.3c0.4,0.4,0.9,0.9,1,1.4
	c0.2,1.6-2.4,2.1-2.9,3.6c-0.5,1.5,2.1,1.9,2.6,3.4c0.4,1.2-1.2,2.3-1.3,3.6s0.4,2.7,1.5,3.3c1.6,0.8,3.7-0.2,5.2,0.7
	c1.9,1.1,2.2,5.8,4.2,4.9c1-0.5,1.9,0.8,3.1,0.7c0.3,0,0.6-0.2,0.8-0.4c2.2-1.9-0.1-6,1.9-8.2c0.3-0.4,0.8-0.6,1.1-1
	c0.4-0.5,0.4-1.3,0.8-1.8c1.7-2.4,4.5-4.6,7-5.6c1.3-0.5,3.3-0.1,3.7-1.4c0.2-0.6,0.1-1.3,0.5-1.6c0.6-0.4,1.5,0.1,2.1-0.3
	c0.8-0.4,0.5-1.6,1-2.3c1-1.5,3.2,0.2,5,0c2.4-0.3,3-3.7,5.2-4.7c0.6-0.3,1.3-0.3,2-0.6c2.2-0.9,2.8-4,4.8-5.3
	c1-0.7,2.2-0.8,3.2-1.4c1.1-0.7,1.9-1.8,2.9-2.7c2.8-2.7,6.7-3.9,10.4-5c1.4-0.4,2.9-0.8,4.3-0.5c2,0.4,3.6,1.9,5.6,1.9
	c1.3,0,3-0.6,3.8,0.4c0.4,0.5,0.4,1.1,0.4,1.7c0,2.3,0.1,4.5,0.1,6.8c0,1.9,0.1,3.8-0.6,5.6c-0.3,0.7-0.2,1.3,0.2,1.9
	c0.3,0.4,0.5,0.7,1,0.9c1.5,0.6,2.1,2.5,2.5,4.1c0.2,0.9,0.4,1.9,0.1,2.7c-0.2,0.6-0.7,1-0.9,1.6c-0.5,1-0.4,2.1-0.2,3.2
	c0.4,3.2,0.8,6.3,1.2,9.5c0.1,0.6,0.1,1.2,0.1,1.7c-0.1,0.7-0.4,1.3-0.6,2c-1.7,4.5-1.7,9.4-2.5,14.1c-0.6,3.5-1.2,7.2-2.6,10.5
	c-0.5,1.1-1.4,2-1.9,3.1c-0.6,1.4-1.3,2.7-1.9,4.1c-0.3,0.7,0.2,1.3,0.3,2c0.1,0.8-0.3,1.6-0.5,2.4c-0.2,0.9-0.1,1.9-0.1,2.9
	c0,2-1,3.8-1.7,5.6"/>
<path fill="none" stroke="#D6D6D6" stroke-miterlimit="10" d="M255.5,255.6c-2.2,0.1-4.3-0.3-6.5-0.2c-1.1,0.1-2.3,0.1-3.4,0.4
	c-2.1,0.5-4.1,1.6-6.2,2c-2.6,0.5-5.6-0.1-7.7,1.6c-1.1,0.8-1.7,2.1-2.7,3.1c-1.9,2-5,2.7-6.9,4.7c-1.5,1.6-2.2,3.7-2.8,5.8
	c-1.2,3.9-1.6,6.8-2.8,10.8c-0.5,1.5-1,3.7-1.2,5.3c-0.2,1.8,0.4,4.3,0.2,6.1c-0.1,1.8-1.3,3.2-1.9,4.8c-3,8.5-7.3,16.6-12.2,24.1
	c-0.6,0.9-1.1,1.4-1,2.5c0.1,1.1,1.2,1.8,2.3,2.1"/>
<path fill="#EAEAEA" stroke="#D6D6D6" stroke-miterlimit="10" d="M285.6,275.4c0.4,0,0.8-0.3,1.2-0.6c0.5-0.4,1.1-1.1,0.7-1.6
	c-0.4-0.4-1.1-0.4-1.7-0.3c-0.6,0.2-1.1,0.6-1.1,1.2C284.5,274.7,285,275.4,285.6,275.4z"/>
<path fill="none" stroke="#D6D6D6" stroke-miterlimit="10" d="M181.5,341c-0.9-1.6-1.8-3.4-1.2-5.1c0.5-1.4,1.9-2.3,2.8-3.6
	c2.3-3.1,1.1-8,3.8-10.7c1.3-1.3,3.3-1.8,4.5-3.2c0.6-0.7,1-1.6,1.6-2.4c0.7-0.9,1.7-1.6,2.7-2.1c3.2-1.9,6.7-3.2,10.3-3.9
	c1.2-0.2,3-0.8,4.2-1.6"/>
<path fill="#EAEAEA" stroke="#D6D6D6" stroke-miterlimit="10" d="M276.5,240.5c-0.1-1.2,2.2-2.2,1.5-3.2c-0.9-1.4-3.3-0.3-4.4,0.9
	c-1.2,1.2-1.9,2.8-3.1,3.9c-0.2,0.2-0.4,0.4-0.7,0.4c-0.4,0.1-1.9-0.2-2.2-0.3c-2-0.7-2.3,2.6-3.4,3.1c-1,0.5-1.7-1.4-2.8-1.2
	c-1.1,0.2-2,1-2.2,2c-0.2,0.7-0.1,1.5-0.2,2.3s-0.7,2.1-1.3,1.7c-0.9-0.7-2-2.5-2.6-1.6c-1.1,1.6,0.6,5.2,0.7,8
	c0,0.5-0.3,1.2-0.4,1.7c-0.3,1.1-1.3,1.9-1.9,2.8c-1,1.5-1.2,3.5-0.5,5.2s1.9,3.1,3.5,4c0.9,0.5,2,0.9,2.9,0.4c1.8-1,1.1-4.4,3-5.1
	c0.5-0.2,1.2-0.1,1.7-0.4c0.5-0.2,0.8-0.8,1.3-1.1c1-0.8,2.4-0.6,3.5,0s2.1,2.4,3.2,1.8c0.9-0.4,0.7-1.8,1.4-2.6
	c0.7-0.7,2.1-1.8,2.6-0.9c0.9,1.5-0.8,3.4-1.2,5c-0.1,0.3-0.1,0.7,0,1c0.2,0.4,0.9,0.5,1.2,0.8c0.4,0.4,0.3,1.2,0.8,1.6
	c0.3,0.2,0.7,0.2,1.1,0.1c2.1-0.4,4.6-1,5.4-3c0.2-0.5,0.3-1,0.3-1.6c0.1-0.7,0.2-1.3,0.2-2c0.1-1.2,0.2-2.5-0.6-3.3
	c-0.6-0.6-2-0.7-1.9-1.5c0.1-1.1-0.2-2.7-0.4-4.2c-0.2-1.3,2.5-0.6,3.1-1.8s0.5-2.5,0-3.7c-0.3-0.6-0.6-1.1-1.2-1.5
	c-1-0.6-2.3-0.3-3.4-0.5c-1.1-0.2-1.4-1.2-1.7-2.3c-0.2-0.5-1.5,0-1.6-0.6c-0.3-0.9,1.2-1.2,1.8-2
	C278.7,242.1,276.6,241.6,276.5,240.5z"/>
<path fill="#EAEAEA" stroke="#D6D6D6" stroke-miterlimit="10" d="M287.5,262.6c0.3,0.1,0.6,0.1,0.9,0.1c0.5,0,0.9-0.1,1.3-0.4
	c0.4-0.3,0.8-1,0.4-1.2c-0.2-0.1-0.3-0.2-0.4-0.3c-0.5-0.8-1.8-0.9-2.5-0.2C286.7,261.1,286.7,262.3,287.5,262.6z"/>
<path fill="#EAEAEA" stroke="#D6D6D6" stroke-miterlimit="10" d="M293,250.5c0.7,0.7,2,0,2.8-0.4c0.2-0.1,0.4-0.2,0.4-0.4
	c0.1-0.1,0.1-0.3,0-0.4c0-0.6-0.2-1.4-0.8-1.6c-0.3-0.1-0.6,0.1-0.9-0.1c-0.2-0.1-0.3-0.3-0.4-0.4c-0.4-0.7-0.6-1.6-1.2-2.1
	c-0.4-0.3-1.1,0.1-1.5,0.5c-0.4,0.4-0.5,1.1-0.2,1.6c0.2,0.4,0.5,0.7,0.8,1.1C292.6,248.9,292.4,249.9,293,250.5z"/>
<path fill="#EAEAEA" stroke="#D6D6D6" stroke-miterlimit="10" d="M283.1,243.4c-0.3-0.6-1-0.8-1.6-1c-0.5-0.1-1-0.3-1.4,0
	c-0.4,0.2-0.5,0.7-0.4,1.1c0.1,0.7,0.6,1.4,1.3,1.7c0.5,0.2,1.2,0.1,1.7-0.2C283.1,244.6,283.3,244,283.1,243.4z"/>
<path fill="#EAEAEA" stroke="#D6D6D6" stroke-miterlimit="10" d="M218.6,199.4c-0.6-0.4-1.5-0.1-2.1-0.6c-0.1-0.1-0.3-0.3-0.4-0.4
	c-0.6-0.5-1.4-0.2-2.1,0.1c-0.5,0.2-1,0.4-1.6,0.6c-0.4,0.2-0.8,0.3-1.1,0.7c-0.5,0.5-0.6,1.2-0.3,1.8c0.3,0.6,1,0.9,1.6,0.9
	c0.6-0.1,1.2-0.5,1.8-0.4c0.7,0.2,1,0.9,1.2,1.6c0.3,0.6,1,1.5,1.5,1.1c1.3-0.9,2.1-2.7,1.8-4.3C219.1,200,218.9,199.6,218.6,199.4z
	"/>
<path fill="#EAEAEA" stroke="#D6D6D6" stroke-miterlimit="10" d="M210.6,195.7c0.7-1.1,0-2.7-1.2-3.1c-1.2-0.4-2.7,0.7-2.7,2
	c0,0.6,0.2,1.2,0.6,1.6c0.1,0.2,0.3,0.3,0.4,0.4c0.3,0.1,0.6,0,0.8,0c0.5-0.1,1.1,0,1.5-0.3C210.3,196.1,210.5,195.9,210.6,195.7z"
	/>
<path fill="#EAEAEA" stroke="#D6D6D6" stroke-miterlimit="10" d="M199.4,155.8c-0.1,0.1-0.2,0.2-0.3,0.4c-0.5,1.4,0.5,2.8,1.5,3.9
	c0.6,0.7,0.9,2.1,1.9,2.1c1.1,0.1,1.5-1.7,1.6-2.9c0.1-0.3,0.1-0.7-0.1-1c-0.1-0.2-0.2-0.4-0.4-0.6c-1-1.2-2.4-1.9-4-2.1
	C199.6,155.7,199.5,155.7,199.4,155.8z"/>
<path fill="#7BBCEB" stroke="#4E9BD7" stroke-miterlimit="10" d="M168.4,189.2c-0.7-0.5-1.4-0.9-1.9-1.6c-0.4-0.7-0.4-1.5-0.9-2.1
	c-0.5-0.7-1.4-0.9-2.1-1.2c-2.8-1.3-4.2-4.3-6.2-6.7c-0.3-0.4-0.6-0.8-1.1-1c-0.6-0.3-1.3-0.3-2-0.3c-2.7-0.2-4.8-2.2-6.8-4
	c-2.3-2-6.2-4-3.6-7.8c1.5-2.2,3.9-3.2,5.8-4.5c0.3-0.2,0.7-0.2,1-0.1c0.4,0.1,0.7,0.4,1,0.8c1.8,2.2,3.6,4.4,5.4,6.6
	c0.6,0.8,1.3,1.6,1.4,2.6c0.1,0.5,0,0.9,0.1,1.4c0.4,1.7,2.8,2,4.3,1.2c2.8-1.4,4.1-4.8,6.4-6.9c2.2-2.1,5.2-2.9,8.1-3.7
	c2.6-0.7,5.5-3.5,7.9-2.2c1.9,1,1.4,4,2.1,5.9c0.5,1.4,1.6,3.9,2.9,3.1c2.2-1.4,1.1-5.3,2.6-7.5c0.5-0.6,1.6,0.1,1.9,0.7
	c0.4,0.7,0.3,1.5,0.4,2.3c0.2,5.8,3.1,11.2,3.1,16.9c0,1.2-0.1,2.5,0,3.7c0.1,0.8,0.3,1.6,0.5,2.5c0.2,1.4,0.1,2.8,0,4.2
	c-0.2,2.7-0.3,5.5-0.5,8.2c-0.1,0.8-0.1,1.6-0.5,2.3c-0.8,1.6-2.8,2.2-4.6,2.5c-2,0.4-4.2,0.8-6.1-0.1c-1.5-0.7-3.1-2.3-4.6-1.5
	c-0.3,0.2-0.5,0.4-0.8,0.6c-1.3,0.8-3,0-4.1-1.1C173.8,198.4,172.8,192.3,168.4,189.2z"/>
<path fill="none" stroke="#D6D6D6" stroke-miterlimit="10" d="M-10.5,118.2c2.7-1.7,2.9-5.4,4.7-8c0.9-1.3,2.2-2.3,3.3-3.3
	c3.2-3,5.8-10.7,7.1-10.9c1.5-0.3,1.9,3.8,3,2.9c2.4-2,2.1-6.1,4.9-7.4c0.7-0.3,1.5-0.6,2-1.3c0.3-0.4,0.3-1,0.3-1.5
	c-0.2-3.4-2.6-7-1-10.1c1.4-2.8,5.5-3.4,7.2-6.1c2.2-3.6-0.9-8.6,1-12.4c0.9-1.7,2.7-2.9,3.6-4.6c1.2-2.4,0.4-5.4,1.4-8
	c0.8-1.9,2.5-3.3,3.4-5.2c0.8-1.7,0.9-3.6,1.3-5.4c1-4.8,4.3-8.8,7.5-12.5c0.7-0.8,1.4-1.7,2.3-2.2c1-0.6,2.2-0.9,3.4-1.3
	c8.5-2.5,16-8,20.9-15.4c0.8-1.3,1.6-2.6,2.2-4c1.5-3.7,1.6-7.9,1.9-11.9"/>
<path fill="#EAEAEA" stroke="#D6D6D6" stroke-miterlimit="10" d="M166.1,50.3c0.3,1.5,1.1,2.9,1.2,4.4c0.1,1.1-0.2,2.1-0.4,3.2
	c-0.3,1.3-0.6,2.5-0.9,3.8c-0.1,0.2-0.1,0.5-0.3,0.6c-0.1,0.1-0.3,0.2-0.5,0.3c-0.9,0.5-0.8,2.1,0.2,2.4c0.9,0.3,1.8-0.4,2.6-0.9
	c0.8-0.5,1.5,0.1,2.4,0.5c1,0.5,1.3-1.7,1.6-2.7c0.5-1.9,0.6-3.6,0.2-5.5c-0.4-2-1.2-4-1.1-6c0-2.1,1.6-4.3,0.7-6.2
	c-0.6-1.4-2.6-2.1-3.9-1.4c-1.4,0.8-1.9,2.6-2,4.2C165.8,48,165.8,49.2,166.1,50.3z"/>
<path fill="none" stroke="#D6D6D6" stroke-miterlimit="10" d="M25.5,55.7c2.9-1,6.9-0.5,9.9,0.4c3,0.9,5.8,2.2,8.7,3.2
	c2.8,0.9,5.8,1.4,8.7,1.4c1.5,0,3.1-0.1,4.6,0.3c1.4,0.3,2.6,0.9,3.9,1.5c2.3,1.1,4.7,2.3,6.7,3.9c2,1.7,3.5,4,3.7,6.6
	c0,0.7,0,1.4,0.3,1.9c0.3,0.5,0.7,0.9,1.2,1.2c2.5,1.8,5,3.6,7.9,4.5c1.7,0.5,3.5,0.7,5.2,0.7c3,0.1,6-0.1,9-0.5
	c1.1-0.2,2.1-0.4,3.2-0.3c0.8,0.1,1.7,0.3,2.5,0.5c3.4,0.8,7,0.9,10.4,0.5c0.5-0.1,1.1-0.2,1.6-0.1c0.4,0.1,0.8,0.3,1.3,0.4
	c1.2,0.1,2.5,0.6,3.3,1.6c0.8,1,1.3,2.1,2.3,2.9c1.6,1.3,3.9,1.3,5.7,2.1c2.5,1.1,3.9,3.7,6,5.4c1.9,1.7,4.3,2.6,6.7,3.5
	c2.4,1,5,1.9,7.6,1.7c0.8-0.1,1.6-0.3,2.1-1c0.3-0.5,0.3-1.1,0.3-1.7c0.1-4.2-0.1-9.2,3-12c1.5-1.4,4.1-1.9,4.3-3.9
	c0.1-0.9-0.2-1.8-0.4-2.7c-0.5-3.3,0.6-6.2,0.6-9.5c0-3.3,4.4-0.6,8.7-4.3"/>
<path fill="none" stroke="#D6D6D6" stroke-miterlimit="10" d="M252.2,38.9c0.9-1.6,2.5-2.8,4.2-3.3c0.4-0.1,0.8-0.2,1.2-0.5
	c0.7-0.5,0.7-1.6,1-2.4c0.5-1.3,1.7-2,2.6-3.1c0.6-0.7,1-1.5,1.4-2.2c1.8-2.9,4.4-5,7.1-7.1c0.9-0.7,1.9-1.5,3-1.9
	c0.6-0.2,1.2-0.3,1.8-0.6c2.6-1.3,2.3-5.4,4.2-7.6c0.9-1.1,2.4-1.6,3.4-2.6c3.3-3.1,2.2-9.1,5.6-12.1c1-0.9,2.5-1.6,2.4-3"/>
<path fill="none" stroke="#585858" stroke-miterlimit="10" stroke-dasharray="4,1" d="M256,363.8c1.1-3.4,2.1-6.8,3.1-10.4
	c2.5-9.1,5.5-18.4,8.3-27.4c2.8-8.9,5.8-18.1,12.2-24.8c1.4-1.5,3-2.9,4.1-4.7c1.7-2.9,1.7-6.3,2.2-9.6c0.4-3,3.5-8.8,4.4-11.6
	c2.3-7.4,2.3-12,5.5-19c1.3-2.9,2.8-6.5,1.1-9.2c-0.6-1-1.6-1.7-2.2-2.7c-1.2-2.1-0.6-4.6-0.5-7c0.3-3.8-0.7-7.5-1.7-11.2
	c-2.1-7.2-4.7-14.5-4.6-22c0.1-8.8,3.7-17.2,7.4-25.3c1.3-3,0.9-6.8,0.1-9.9c-1.4-5.1-2.7-10.3-4.1-15.4c-0.4-1.6-0.9-3.2-1.9-4.4
	c-1.1-1.2-4.3-1.5-5.1-3c-4.7-9.4-9.1-10.6-11.5-16c-2.7-6.1,4-14.3,4.3-21c0.2-5.2-2.8-11.1,0.5-15.2c0.9-1.1,2.2-1.9,3.3-2.8
	c1.2-1,3.1-1.5,4.1-2.8c5.3-7.1,8.7-15.9,11.7-24.2c0.6-1.6,1.1-3.1,1.8-4.6c1.3-2.4,3.2-4.4,5.1-6.2c5.9-5.7,12.2-10.9,18.5-16.1
	c1.1-0.9,2.2-1.8,3.3-2.7c4.3-3.5,8.5-7,12.3-11.1c3.9-4.1,9.9-6.4,13.8-10.3c1.4-1.4,2.4-3.1,3.7-4.6c1.9-2.2,4.4-3.7,6.7-5.5"/>
<path fill="none" stroke="#585858" stroke-miterlimit="10" stroke-dasharray="4,1" d="M-10.9,127.9c9.4-22.7,34-37.4,40.3-61.2
	c0.8-3.2,1.5-6.7,4.2-8.6c1.2-0.8,2.6-1.2,3.7-2.1c1.5-1.1,2.2-2.9,3-4.6c2-4,4.9-7.4,8.5-10.1c2.2-1.7,4.7-3.1,6.3-5.4
	c1.8-2.6,1.9-6,2.9-9c1.7-5.2,5.6-9.4,9.9-12.8s9-6.3,13-10c4.5-4.2,8-9.4,10.2-15.1"/>
<path fill="none" stroke="#585858" stroke-miterlimit="10" stroke-dasharray="4,1" d="M205.8,192.5c5.7-0.1,8.3-8.4,13.9-9
	c1-0.1,2,0.1,3-0.1c3.1-0.6,4.3-4.4,6.9-6.1c1.5-0.9,3.4-1.1,4.8-2.2c0.8-0.6,1.4-1.4,2.2-2c1.2-0.9,2.7-1.1,4.1-1.5
	c6.6-1.5,12.6-5.2,16.9-10.4c0.7-0.8,1.3-1.7,2.2-2.3c1.6-1.3,5-2.5,4-4.3c-1-1.8-1.4-4,0.1-5.5c1.4-1.5,3.6-2.1,5.6-2.5
	c0.6-0.1,1.2-0.3,1.6-0.7c0.3-0.4,0.4-1,0.4-1.5c0.1-2.6-0.5-5.1-0.8-7.7c-0.2-2.6,0-5.4,1.7-7.3"/>
<g>
	<path fill="none" stroke="#585858" stroke-width="2" stroke-miterlimit="10" d="M-12.2,117.4c3.5-6.2,7.1-12.2,10.8-18.2
		c4.3-7,8.9-13.8,12.5-21.1c5.4-10.8,9.6-22.1,14.2-33.3c8.1-20,19-38.6,31.9-56"/>
	<g>
		<path fill="none" stroke="#FFFFFF" stroke-miterlimit="10" d="M-12.2,117.4c0.7-1.2,1.3-2.3,2-3.5"/>
		<path fill="none" stroke="#FFFFFF" stroke-miterlimit="10" stroke-dasharray="8.1488,8.1488" d="M-6.1,106.9
			c1.5-2.6,3.1-5.1,4.7-7.7c4.3-7,8.9-13.8,12.5-21.1c5.4-10.8,9.6-22.1,14.2-33.3c7.1-17.5,16.3-34,27.2-49.4"/>
		<path fill="none" stroke="#FFFFFF" stroke-miterlimit="10" d="M54.8-7.9c0.8-1.1,1.6-2.2,2.4-3.2"/>
	</g>
</g>
<text transform="matrix(1 0 0 1 274.1927 317.6561)"><tspan x="0" y="0" fill="#585858" font-family="'Verdana-Italic'" font-size="8">Cathedral</tspan><tspan x="0" y="9.6" fill="#585858" font-family="'Verdana-Italic'" font-size="8">Pass</tspan></text>
<text transform="matrix(1 0 0 1 113.141 24.974)"><tspan x="0" y="0" fill="#585858" font-family="'Verdana-Italic'" font-size="8">Medlicott</tspan><tspan x="12.7" y="9.6" fill="#585858" font-family="'Verdana-Italic'" font-size="8">Dome</tspan></text>
<text transform="matrix(1 0 0 1 152.3282 147.1107)"><tspan x="0" y="0" fill="#7BBCEB" font-family="'Verdana-Italic'" font-size="8">Cathedral Lakes</tspan><tspan x="0" y="9.6" fill="#7BBCEB" font-family="'Verdana-Italic'" font-size="8">(lower)</tspan></text>
<text transform="matrix(1 0 0 1 184.9056 241.4289)"><tspan x="0" y="0" fill="#585858" font-family="'Verdana-Italic'" font-size="8">Cathedral Lakes</tspan><tspan x="34" y="9.6" fill="#585858" font-family="'Verdana-Italic'" font-size="8">(upper)</tspan></text>
<text transform="matrix(1 0 0 1 114.2836 284.2924)" fill="#585858" font-family="'Verdana-Italic'" font-size="8">10450 ×</text>
<path fill="none" d="M111.8,128.2c5.6-22.2,24.6-21.9,37.7-20.6"/>
<text transform="matrix(0.7635 -0.6458 0.6458 0.7635 120.3451 116.7172)"><tspan x="0" y="0" fill="#7D7D7D" font-family="'Verdana-Italic'" font-size="7">9</tspan><tspan x="4" y="0" fill="#7D7D7D" font-family="'Verdana-Italic'" font-size="7" rotate="11.2">2</tspan><tspan x="7.9" y="0.7" fill="#7D7D7D" font-family="'Verdana-Italic'" font-size="7" rotate="21.2">0</tspan><tspan x="11.8" y="2.2" fill="#7D7D7D" font-family="'Verdana-Italic'" font-size="7" rotate="29.4">0</tspan></text>
<path fill="none" d="M243.9,200c6.6-10.2,14.9-19.2,24.6-26.6"/>
<text transform="matrix(0.6297 -0.7768 0.7768 0.6297 251.1147 194.1649)"><tspan x="0" y="0" fill="#7D7D7D" font-family="'Verdana-Italic'" font-size="7">9</tspan><tspan x="4.3" y="0" fill="#7D7D7D" font-family="'Verdana-Italic'" font-size="7" rotate="2.4">4</tspan><tspan x="8.7" y="0.2" fill="#7D7D7D" font-family="'Verdana-Italic'" font-size="7" rotate="4.9">0</tspan><tspan x="13" y="0.5" fill="#7D7D7D" font-family="'Verdana-Italic'" font-size="7" rotate="7.3">0</tspan></text>
<path fill="none" d="M313.2,211.6c1.7,4.7,3.8,9.3,7.1,13c4.9,5.3,12.2,7.7,17.3,12.8"/>
<text transform="matrix(0.5575 0.8302 -0.8302 0.5575 314.6205 221.1391)"><tspan x="0" y="0" fill="#7D7D7D" font-family="'Verdana-Italic'" font-size="7">9</tspan><tspan x="4.9" y="0" fill="#7D7D7D" font-family="'Verdana-Italic'" font-size="7" rotate="-10.8">8</tspan><tspan x="9.7" y="-1" fill="#7D7D7D" font-family="'Verdana-Italic'" font-size="7" rotate="-19.8">0</tspan><tspan x="14" y="-2.6" fill="#7D7D7D" font-family="'Verdana-Italic'" font-size="7" rotate="-23.9">0</tspan></text>
<path fill="none" d="M78,72.5c3-11.6,13.3-22,15.5-34.4"/>
<text transform="matrix(0.4946 -0.8691 0.8691 0.4946 85.0331 62.5302)"><tspan x="0" y="0" fill="#7D7D7D" font-family="'Verdana-Italic'" font-size="7">8</tspan><tspan x="4.4" y="0" fill="#7D7D7D" font-family="'Verdana-Italic'" font-size="7" rotate="0.2">6</tspan><tspan x="9" y="0" fill="#7D7D7D" font-family="'Verdana-Italic'" font-size="7" rotate="-1.3">0</tspan><tspan x="13.5" y="-0.1" fill="#7D7D7D" font-family="'Verdana-Italic'" font-size="7" rotate="-4.7">0</tspan></text>
<path fill="none" d="M326.6,47.4c-0.7-1.3,0.3-2.9,1.4-3.9c4-3.9,10.2-9.4,15.1-6.7c1.5,0.8,1.7,2.9,3.2,3.8"/>
<text transform="matrix(0.731 -0.6824 0.6824 0.731 329.2963 45.7572)"><tspan x="0" y="0" fill="#7D7D7D" font-family="'Verdana-Italic'" font-size="7">9</tspan><tspan x="4.2" y="0" fill="#7D7D7D" font-family="'Verdana-Italic'" font-size="7" rotate="5.7">6</tspan><tspan x="8.1" y="0.2" fill="#7D7D7D" font-family="'Verdana-Italic'" font-size="7" rotate="18.1">0</tspan><tspan x="11.4" y="0.8" fill="#7D7D7D" font-family="'Verdana-Italic'" font-size="7" rotate="47.4">0</tspan></text>
<path fill="none" d="M40.9,329.4c6.9,4.9,11.9,12.4,13.9,20.6"/>
<text transform="matrix(0.7112 0.703 -0.703 0.7112 41.703 333.1479)"><tspan x="0" y="0" fill="#7D7D7D" font-family="'Verdana-Italic'" font-size="7">9</tspan><tspan x="4.1" y="0" fill="#7D7D7D" font-family="'Verdana-Italic'" font-size="7" rotate="7.1">8</tspan><tspan x="8.3" y="0.5" fill="#7D7D7D" font-family="'Verdana-Italic'" font-size="7" rotate="14">0</tspan><tspan x="12.3" y="1.5" fill="#7D7D7D" font-family="'Verdana-Italic'" font-size="7" rotate="21.1">0</tspan></text>
<path fill="none" d="M323.6,324.2c1.2,7.5,4.2,15.1,3.4,22.6"/>
<text transform="matrix(0.2034 0.9791 -0.9791 0.2034 321.1273 325.0678)"><tspan x="0" y="0" fill="#7D7D7D" font-family="'Verdana-Italic'" font-size="7">1</tspan><tspan x="4.5" y="0" fill="#7D7D7D" font-family="'Verdana-Italic'" font-size="7" rotate="-1.7">0</tspan><tspan x="8.9" y="-0.2" fill="#7D7D7D" font-family="'Verdana-Italic'" font-size="7" rotate="-0.3">0</tspan><tspan x="13.2" y="-0.2" fill="#7D7D7D" font-family="'Verdana-Italic'" font-size="7" rotate="4">0</tspan><tspan x="17.3" y="0" fill="#7D7D7D" font-family="'Verdana-Italic'" font-size="7" rotate="11.7">0</tspan></text>
<path fill="none" d="M35,226.9c5-3.9,10.8-6.7,16.1-10.1c2.4-1.5,4.9-3.3,7.7-3.7"/>
<text transform="matrix(0.8565 -0.5162 0.5162 0.8565 41.0273 225.705)"><tspan x="0" y="0" fill="#7D7D7D" font-family="'Verdana-Italic'" font-size="7">9</tspan><tspan x="4.4" y="0" fill="#7D7D7D" font-family="'Verdana-Italic'" font-size="7" rotate="0.9">0</tspan><tspan x="8.9" y="0.1" fill="#7D7D7D" font-family="'Verdana-Italic'" font-size="7" rotate="-0.2">0</tspan><tspan x="13.4" y="0" fill="#7D7D7D" font-family="'Verdana-Italic'" font-size="7" rotate="-0.7">0</tspan></text>
<g>
	<g>
		<polyline fill="none" stroke="#7D7D7D" stroke-miterlimit="10" points="85.2,341.6 85.2,348.7 275.4,348.7 275.4,341.7 		"/>
		<line fill="none" stroke="#7D7D7D" stroke-miterlimit="10" x1="180.5" y1="341.4" x2="180.5" y2="348.7"/>
		<line fill="none" stroke="#7D7D7D" stroke-miterlimit="10" x1="161.2" y1="349.2" x2="161.2" y2="343.7"/>
		<line fill="none" stroke="#7D7D7D" stroke-miterlimit="10" x1="142.4" y1="349.2" x2="142.4" y2="343.7"/>
		<line fill="none" stroke="#7D7D7D" stroke-miterlimit="10" x1="123.3" y1="349.2" x2="123.3" y2="343.5"/>
		<line fill="none" stroke="#7D7D7D" stroke-miterlimit="10" x1="104.6" y1="349.2" x2="104.6" y2="343.7"/>
	</g>
	<text transform="matrix(1 0 0 1 83.7834 339.1469)" fill="#7D7D7D" font-family="'Verdana'" font-size="8">0</text>
	<text transform="matrix(1 0 0 1 174.2945 339.1469)" fill="#7D7D7D" font-family="'Verdana'" font-size="8">0.5</text>
	<text transform="matrix(1 0 0 1 258.3414 339.1469)" fill="#7D7D7D" font-family="'Verdana'" font-size="8">1 mi</text>
</g>
</svg>
