<?xml version="1.0" encoding="utf-8"?>
<!-- Generator: Adobe Illustrator 17.1.0, SVG Export Plug-In . SVG Version: 6.00 Build 0)  -->
<!DOCTYPE svg PUBLIC "-//W3C//DTD SVG 1.1//EN" "http://www.w3.org/Graphics/SVG/1.1/DTD/svg11.dtd">
<svg version="1.1" id="Layer_1" xmlns="http://www.w3.org/2000/svg" xmlns:xlink="http://www.w3.org/1999/xlink" x="0px" y="0px"
	 viewBox="0 0 360 360" enable-background="new 0 0 360 360" xml:space="preserve">
<path fill="none" stroke="#E1E1E1" stroke-miterlimit="10" d="M133.4-2.4c3,3.1,5.6,6.8,9.5,8.8c3.9,2,8.4,1.9,12.7,2.7
	c1.1,0.2,2.3,0.5,3.2,1.3c0.9,0.8,1.3,1.9,2.3,2.6c0.6,0.5,1.4,0.6,2.2,0.8c5,1.1,10,2.2,15,3.2c1,0.2,2.1,0.5,3.2,0.4
	c0.5,0,1.1-0.2,1.6-0.2c2.1-0.2,3.9,1.4,6,1.7c3.8,0.6,7.8,1.5,11.6,0.9c2.2-0.3,4.6-1.7,6.6-0.7c0.8,0.3,1.4,1,2.2,1.3
	c1.8,0.8,3.9,0,5.9,0.5c1.7,0.4,3.1,1.8,4.9,2.1c2.3,0.3,4.4-1.4,6.4-2.7c2-1.2,5.1-1.8,6.4,0.1c0.5,0.7,0.6,1.6,1.3,2
	c0.5,0.3,1,0.3,1.6,0.2c1.9-0.1,3.9-0.2,5.8-0.2c1.1,0,2.1-0.1,3.1-0.5c1.8-0.7,3-2.4,4.4-3.6c1.4-1.3,3.3-0.9,5.2-0.9
	c2.7-0.1,4.1-4,4.3-6.8c0-1.1-0.3-2.3-0.6-3.4c-0.8-3-1.1-6.2-1.5-9.3c0-0.4-0.1-0.8-0.1-1.1"/>
<path fill="none" stroke="#E1E1E1" stroke-miterlimit="10" d="M199,362.5c0.4-0.7,0.7-1.6,0.9-2.4c2.7-8,5.5-16,8.2-24
	c0.7-2.2,1.5-4.5,1-6.8c-0.7-3.3-4-5.5-7.3-6.6c-3.3-1.1-6.8-1.5-9.8-3.1c-2.3-1.2-4.3-3.2-6.9-3.9c-2.6-0.7-3.5,2.3-5.9,3.4
	c-7.8,3.6-7.4-15.3-7-23.8c0.3-6.7,1.3-13.5,0.8-20.2c-0.2-2.9,2-7.8-0.5-9.2c-3.5-1.9-8.5,4.4-11.5,1.8c-2.1-1.8-1.5-6.4-4.2-7
	c-3.4-0.9-6.3-2.4-8.1-5.4c-1.2-1.9-2.3-3.8-3.5-5.7c-1.3-2.1-2.6-4.4-2.2-6.8c0.3-1.9,1.7-3.4,2.6-5.1c1-1.7,2.3-4.8,0.4-5.4
	c-3.5-1.1-5.9,4.1-8.5,6.8c-2.5,2.6-6.8,7.1-9.5,4.7c-1.5-1.4,0.4-5-1.3-6.2c-2.8-2-6.7-2.8-6.3-6.1c0.2-1.8,1-4.1-0.5-5.1
	c-0.9-0.6-2.1-0.2-3.1-0.3c-2.7-0.2-4.2-3.1-5.2-5.7c-1.7-4.3-3.3-9.4-0.8-13.2c0.9-1.5,2.3-2.6,3.7-3.6c3.1-2.4,6.2-4.7,9.3-7.1
	c0.7-0.5,1.5-1.1,2.4-1.3c2-0.3,3.6,1.4,5.3,2.5c1.8,1.1,4.1,1.5,6.2,1c1.7-0.4,3.2-1.3,4.9-1.7c3-0.7,6.2,0.5,8.6,2.4
	c2.4,2,4,4.7,5.3,7.5c0.8,1.8,1.6,3.6,2.7,5.1c1.2,1.6,2.8,2.9,4.4,4.1c6.6,5.1,17.2,17.2,22,10.4c1-1.4,0.5-3.6,1.9-4.5
	c1.5-1,3.3-1.2,5.1-1.3c3.5-0.3,7-0.5,10.6-0.5c0.9,0,1.8,0,2.5-0.6c0.4-0.3,0.7-0.9,1.1-1.2c1.8-1.7,4.8,0,7.1-0.9
	c2.4-1,2.7-4.3,4.6-6.1c0.7-0.6,1.5-1.1,2.3-1.5c1.6-0.9,3-2.1,4.3-3.3c5.7-5.2,9.1-6.8,11.8-14c2.3-6.2-4.5-13.1-4.5-19.7
	c0-1.8,0.4-3.9-0.7-5.3c-0.4-0.5-1.1-0.9-1.6-1.4c-0.7-0.7-1.2-1.6-1.6-2.4c-2.5-4.9-5.1-9.9-6-15.4c-0.5-3.1-0.5-6.3-1.2-9.4
	c-0.7-3.1-2.4-6.2-5.2-7.5c-1.6-0.8-3.5-1-4.7-2.2c-1.3-1.3-1.5-3.5-2.6-5c-1.7-2.3-5.1-2.5-7.9-3.3c-4.3-1.2-7.9-4.1-11.3-7
	c-4-3.5-8-7.1-12.9-9.3c-2.1-0.9-4.3-1.5-6.6-1.8c-1.5-0.2-3.2-0.3-4.1-1.6c-0.5-0.7-0.5-1.6-0.6-2.4c-0.1-1.6,0.7-3.6-0.3-4.8
	c-1.4-1.9-4.6-2.3-6-4.1c-1.5-1.9-2.3-4.8-0.8-6.7c0.6-0.7,1.4-1.2,2.1-1.8c2.6-2.2,5.3-7.3,2.5-9.2c-1.9-1.3-4.5,3.3-6.6,2.3
	c-3.3-1.6-1.4-7.2-2.1-10.8c-0.4-2.2-0.9-4.5-1.9-6.5c-0.7-1.5-1.7-2.8-2.7-4.1c-4.4-5.9-8.8-11.7-13.2-17.6c-0.4-0.5-0.8-1.1-1-1.7
	c-0.2-0.6-0.2-1.2-0.3-1.9c-0.1-2-0.6-4.1-1.3-6c-0.1-0.3-0.2-0.5-0.4-0.7c-0.4-0.3-1-0.2-1.5-0.1c-2,0.5-3.9,1.1-5.9,1.6
	c-2.4,0.7-5.6,1.1-7-1c-1.6-2.4,1.9-7.3-0.7-8.4c-1.7-0.7-3.2,2.6-13.1,2.7c-3.9,0-8.5-1.8-10.3-5.2C89.3,4.3,89-0.5,89.4-3.3"/>
<path fill="none" stroke="#E1E1E1" stroke-miterlimit="10" d="M212.8,363.5c0.5-1.2,0.9-2.4,1.1-3.7c0.3-1.6,0.3-3.2,0.7-4.7
	c1.8-5.7,8.8-7.5,13.2-11.5c6.6-6,6.8-16.2,6.4-25.2c-0.1-2.5-0.3-5.2-2-7.1c-3.8-4.2-11-0.6-16.3-2.8c-2-0.8-3.6-2.5-5.3-4
	c-5.7-5.1-15.3-3.2-20.9-8.5c-6.4-6-2-17.5-3.1-26.3c-0.2-1.4-0.4-2.9-1.3-4c-0.5-0.6-1.1-1.1-1.5-1.7c-0.5-0.9-0.4-2-0.5-3.1
	c-0.3-4.1-3.3-7.4-5.8-10.6c-2.5-3.2-7.4-9.8-3.5-11.2c9.8-3.6,19.9,14.4,29.4,10c4-1.8,2.1-8.4,2.3-12.8s2-9.4,6.2-10.7
	c3.6-1.1,7.9,1.2,11.2-0.8c1.5-0.9,2.4-2.6,3.3-4.1c5.2-8.7,13.9-14.8,22.7-19.9c1.2-0.7,1.8-1.9,2.9-2.7c2.7-1.8,2-2.6,0.3-7.8
	c-0.6-2-3-4-4.7-5.2c-3.1-2.1-5.2-5.5-5.5-9.2c-0.2-1.6,0-3.2-0.1-4.8c-0.1-2.9-0.9-5.6-1.7-8.4c-0.2-0.5-0.3-1.1-0.6-1.6
	c-0.4-0.6-0.9-1-1.4-1.4c-3.5-2.9-6.6-6.4-9-10.3c-0.9-1.4-1.7-2.9-1.9-4.5c-0.2-1.6,0.1-3.2,0.3-4.8c0.9-5.9,0.8-12-0.2-17.9
	c-0.4-2.2-1-4.7-2.9-6c-1.6-1.1-2.8-2.2-3.9-3.8c-2.4-3.3-4.8-5.8-8.2-7.9c-1.2-0.7-2.7,0.8-4.2,0.7c-1.4-0.1-2.9-0.9-3.4-2.2
	c-0.8-2.1,1.8-5.8-0.3-6.7c-3-1.3-7,3.4-9.6,1.5c-2-1.5-0.2-4.9,0.4-7.3c0.3-1.1,0.5-2.7-0.6-3.2c-0.4-0.2-0.8-0.1-1.2-0.1
	c-1.8,0.2-3.9,1.6-5.3,0.5c-1.2-1,0.1-3.1,0.7-4.5c2.4-5.4-0.2-12.5-1-18.4c-0.1-0.7-0.2-1.4-0.7-1.9c-1.2-1.2-4.1-0.2-4.6-1.8
	c-0.6-1.8-0.2-4.2,1.5-5.2c4.9-3,10.6,3.2,14.6,7.4c11,11.3,24.8,19.9,39.7,24.9c2.7,0.9,5.5,1.7,8.3,2.3c3,0.6,6.3,1,8.7,3
	c0.8,0.7,1.5,1.5,2.5,1.9c0.7,0.3,1.6,0.3,2.4,0.4c2.5,0.1,5,0.1,7.6,0.2c3,0.1,6.4,0,8.3-2.3c1.9-2.3,1.5-5.7,0.6-8.6
	s-2.1-5.8-1.3-8.7c0.3-1.3,1.1-2.5,1.3-3.9c0.6-3.8-3-6.9-3.7-10.6c-0.6-3.1,0.8-6.4-0.1-9.5c-0.5-2.1-2-3.9-2-6c0-1.7,1-3.1,2-4.5
	c0.6-0.8,1.2-1.7,1.7-2.5c2.3-3.2,4.5-7.8,2-10.8c-1.7-2-4.9-2.5-6.2-4.8c-1.1-2-0.1-4.5-0.7-6.7c-0.6-2.5-3.2-4.5-2.8-7
	c0.2-1.3,1.1-2.4,0.9-3.7c-0.2-1-0.9-1.7-1.5-2.4c-1.8-2.2-2.5-4.9-3-7.7"/>
<path fill="none" stroke="#E1E1E1" stroke-miterlimit="10" d="M339.5,362.8c0.7-4.9,1.9-9.7,4-14.2c2.1-4.4,9.3-12,4.7-13.7
	c-2.7-1-5.7,0.8-7.7-1.4s-3.2-5-5.4-6.8c-2.9-2.3-7.1-2.7-9.7-5.3c-1.4-1.4-2.1-3.2-3.4-4.7c-1.3-1.5-3.4-0.6-5.1-1.5
	c-7.7-4.5-5.2-17.2-5.9-26.1c-0.3-4.1,0.3-8.2,0-12.3c-0.7-9.2-6.2-17.3-8.9-26.1c-3-9.8-2.5-20.6,1.4-30.1c0.5-1.2,1-2.3,1.8-3.3
	c3.8-4.9,11.3-4,17.4-5.7c8.2-2.3,13.8-9.7,18.7-16.7c1.7-2.4,1.4-3.8,2.2-6.7c0.7-2.4,2.9-4.4,4.7-6.1c1.7-1.7,3.6-3.2,5-5.2
	c1.3-2,2.1-4.5,1.4-6.8c-0.2-0.7-0.6-1.4-0.6-2.2c0.1-1.2,1.2-2,2.3-2.4c1.1-0.4,2.3-0.5,3.3-1c0.9-0.5,1.6-1.2,2.2-2.1"/>
<path fill="none" stroke="#E1E1E1" stroke-miterlimit="10" d="M361.7,320.8c-0.9,0-1.7-0.1-2.4-0.4c-8-2.6-14.1-9.1-20.1-15.1
	c-1.1-1.1-2.2-2.2-3.5-3c-3.2-2.1-7.7-3-9-6.6c-0.5-1.4-0.4-2.9-0.3-4.3c0.1-6.3-1.4-12.5-4.4-18c-0.9-1.6-1.9-3.1-2.3-4.9
	c-0.5-1.8-0.3-3.6-0.3-5.5c0.1-6.8-1.2-13.6-3.9-19.8c-0.3-0.8-1.1-1.6-0.9-2.4c0.4-1.5,2.8-4.1,4.4-5.8c0.9-0.9,2.6,0.2,3.8,0.3
	c4.2,0.2,8-2.9,10.4-6.4c2.4-3.5,3.7-7.6,5.9-11.3c2.8-4.7,6.9-8.6,11.7-11.1c1.5-0.8,3.1-1.4,4.3-2.6c2-1.9,1.1-5,1.6-7.7
	c0.5-2.5,3.2-3.9,5.4-5.5"/>
<path fill="none" stroke="#E1E1E1" stroke-miterlimit="10" d="M361.3,305.1c-2.5-2.5-6.3-6.7-11-7c-1.1-0.1-2.8-0.9-3.6-1.6
	c-0.3-0.3-0.5-0.7-0.6-1.1c-2.1-5.4-2-16.1-2.9-16.9c-1.8-1.4-3.5,2.8-5.2,4.2c-0.3,0.3-0.7,0.5-1.1,0.5c-1,0-1.3-1.3-1.3-2.3
	c0-5.1-0.4-10.5-3.3-14.6c-2-2.8-5.3-5.4-5.1-8.8c0.1-1.2,0.6-2.4,1.1-3.5c0.9-1.9,1.8-3.9,2.7-5.8c0.7-1.5,1.5-3.1,2.9-4
	c1.7-1,3.9-0.7,5.9-1c4.2-0.7,7.2-4.6,9-8.5c1.8-3.9,3-8.2,5.6-11.6c1.1-1.3,2.4-2.5,4-3c0.6-0.2,1.2-0.3,1.8-0.5
	c0.7-0.3,1.2-0.8,1.7-1.3"/>
<path fill="none" stroke="#E1E1E1" stroke-miterlimit="10" d="M231.2,363.6c-1.2-3.7,0.6-8.6,4.4-9.4c1.3-0.3,2.7,0,4-0.5
	c2.7-1,3.2-4.5,3.9-7.4c2.1-8.2,8.9-14.1,13.2-21.4c4.6-7.9,6-17.5,3.8-26.3c-0.2-1-0.5-2-1.3-2.6c-1-0.8-2.5-0.9-3.1-2
	c-0.4-0.9,0-1.9-0.1-2.8c-0.1-2.3-2.7-3.5-5-3.8s-4.7,0-6.6-1.3c-2-1.3-3.9-4.3-6-3.1c-1.8,1,0.8,4,0.3,5.9
	c-0.7,2.6-2.7,3.7-4.7,1.8c-0.6-0.5-4.7-1.6-5.3-2.1c-0.9-0.7-0.6-1.1-1.7-1.4c-1.6-0.5-2.7-3.4-4-4.5c-3.9-3.1-9.5-4-13.4-7.1
	c-1.6-1.3-1.8-0.8-2.8-2.6c-2.3-4.1,0.7-11.8,2.8-13.3c0.9-0.6,2.2-0.6,3.1-1.2c2.1-1.5,2-4.6,2.6-7.2c0.9-4.6,4.5-8.3,8.4-10.9
	c3.9-2.6,8.3-4.4,12.3-7c5.2-3.4,9.4-8,13.6-12.5c3.2-3.5,6.4-7,9.6-10.4c2.1-2.3,4.3-4.7,5.7-7.6c2.1-4.5,2-9.9-0.4-14.2
	c-2-3.8-5.5-7.6-8.3-10.9c-3-3.6-6-7.4-6.9-12c-0.6-3.1-0.2-6.3-0.5-9.4s-1.8-6.5-4.8-7.6c-0.7-0.3-1.5-0.4-2.2-0.9
	c-1.7-1.2-1.3-3.8-0.8-5.8c0.9-3.2,1.9-6.5,1.7-9.8c-0.2-4.3-2.4-8.3-2.4-12.6c0-3.2,4.7-5.7,3.6-8.8c-0.7-1.9-4.5,0.5-6-0.8
	c-2.2-1.8-3.6-5.4-2.8-8.2c0.7-2.2,4.3-1.5,6.6-1c0.7,0.1,1.3,0.3,1.9,0.7c0.8,0.6,1.2,1.5,1.6,2.3c3.7,6.9,11,10.8,18,14.4
	c4.5,2.3,9.6,4.7,14.3,3c2.1-0.7,4-1.8,5.9-3c2.4-1.4,0.7-5.4,1.6-8.1c0.9-2.6,3.7-3.8,5.8-5.5c4.6-3.7,6.1-10.6,3.5-15.9
	c-0.4-0.8-0.9-1.6-1.1-2.5c-1-3.7,2.9-6.9,4.2-10.5c1.2-3.1,0.4-6.6-0.3-9.8c-0.9-3.9-1.8-7.9-2.7-11.8c-0.1-0.5-0.2-1-0.6-1.4
	c-0.5-0.4-1.2-0.5-1.8-0.6c-3-0.6-5-4.3-3.8-7.2c1.6-3.8,2-8.9,3-12.9c0.7-2.7,1.1-6-1-7.7c-0.4-0.4-0.9-0.6-1.3-1.1
	c-0.4-0.5-0.5-1.3-0.5-1.9c-0.3-3.9-1.4-8-4.1-10.9c-0.7-0.8-1.5-1.5-2.2-2.3c-2.2-2.7-2.7-6.4-4.7-9.2c-0.5-0.7-1.1-1.3-1.6-1.9"/>
<path fill="none" stroke="#E1E1E1" stroke-miterlimit="10" d="M361.3,120c-2.9-3.9-6.1-7.3-8.2-11.6c-0.5-1.1-1.8-5-2.3-6.2
	c-1.1-2.3,0.2-3.6-1.3-5.7c-1.9-2.5-2.2-5.2-2.9-8.1c-1.4-5.5-2.6-8.8-3.2-14.4c-0.5-4.5-2-11.8-2.3-16.3
	c-0.8-9.8-3.6-17.8-9.9-25.3c-0.5-0.6-1.1-1.2-1.8-1.5c-0.8-0.3-1.6-0.2-2.5-0.2c-4.4,0.3-8.8,0.1-13.1-0.6c-2.4-0.4-4.9-1-7-2.3
	c-5.9-3.7-7.1-11.9-5.3-18.6c1.2-4.5,3.5-8.7,5.7-12.9"/>
<path fill="none" stroke="#E1E1E1" stroke-miterlimit="10" d="M330.6,362.7c0.8-2.7,1.9-5.4,2.5-8.2c0.7-3.5,1.2-8.6-2-10
	c-2.6-1.1-6.1,1.5-8.4-0.2c-2.2-1.6-1.6-5.3-3.4-7.3c-1.8-2-4.9-3.2-7.3-2c-1.2,0.6-2.3,1.7-3.6,1.4c-1-0.3-1.6-1.3-2-2.3
	c-7-15.8-13.5-32.4-13.4-49.7c0-4.7,0.3-10.2-3.3-13.4c-4-3.6-11.9-2-14.2-6.8c-1.5-3.1-2.9-5.3-1.5-8.3c1.7-3.6,7.2-8.5,6.6-12.4
	c-0.4-2.3-2.2-4.4-2-6.7c0.1-1.5,1-2.8,1.8-4c2.1-3.1,4.2-6.1,6.3-9.2c1-1.4,1.9-2.8,2.3-4.5c0.6-2.6-0.3-5.3-0.1-7.9
	c0.6-6,6.9-9.6,12.8-11.1c5.9-1.4,12.3-1.9,16.9-5.8c1.8-1.5,2.7-3.9,4.5-5.3c1.1-0.8,1.6-2.6,1.8-4c0.2-1.4,0.1-2.9,0.6-4.2
	c0.6-1.5,2-2.5,3.1-3.7c4.3-4.3,5.8-11,3.8-16.7c-0.3-0.9-0.8-1.9-0.7-2.9c0.2-1.6,1.7-2.8,2.6-4.1c1.5-2.1,1.6-4.9,2.4-7.4
	c1-3,3-5.6,5.3-7.9c2.6-2.7,6.4-5.3,9.9-4c0.8,0.3,1.5,0.8,2.3,1.3c1.8,1,3.7,1.6,5.7,1.8"/>
<path fill="none" stroke="#E1E1E1" stroke-miterlimit="10" d="M292.4,188.4c-4.9,2.9-8.1,8.1-11.7,12.5c-3.6,4.4-6.2,10.2-4.9,15.8
	c0.4,1.8,1.3,3.6,1.2,5.4c-0.2,3.1-2.8,5.4-5,7.6c-7.2,7.3-11.3,17.5-11.1,27.8c0,1.7,0.2,3.5,0.7,5.2c0.7,2.6,2.2,5.2,1.9,7.9
	c-0.1,0.8-0.4,1.7-1.1,2.1c-0.6,0.3-1.4,0.2-2.1,0.1c-4.9-1-9.5-3.1-14-5.3c-2.4-1.1-4.8-2.3-7.2-3.4c-4.1-1.9-8.1-3.8-12.2-5.8
	c-0.4-0.2-0.8-0.4-1.1-0.7c-0.4-0.4-0.5-0.9-0.6-1.4c-1.1-5,2.2-10.5,7.1-12c1.1-0.3,2.2-0.5,3.2-1.1c0.6-0.5,1.1-1.1,1.8-1.5
	c0.6-0.4,1.3-0.5,2-0.7c2.1-0.7,3.9-2.1,5.7-3.5c4.6-3.6,9.4-7.5,11.7-12.8c0.7-1.6,1.2-3.3,2.3-4.6c0.4-0.4,0.9-0.8,1.2-1.3
	c0.5-0.6,0.9-1.4,1.3-2.1c2-3.8,4.3-7.4,6.8-10.9c1.7-2.3,3.6-4.5,4.8-7.1s1.6-5.7,0.5-8.3c-0.6-1.3-0.9-3.1-1.2-4.4
	c-1.9-10.5-15.2-17.6-15.6-28.2c-0.2-5.5,2.4-10.9,1.5-16.3c-0.4-2.7-1.8-5.2-2.5-7.9c-0.7-2.7-1.8-7.9,1-7.9
	c2.3,0,10.3,8.2,16.6,9.7c4.1,1,8.3,0.9,12.4,0.2c6.7-1.1,13.2-3.8,18.3-8.2c1-0.8,1.9-1.7,2.4-2.9c0.5-1,0.6-2.2,0.6-3.3
	c0.7-11.1,0.9-22.2,2.6-33.1c1.2-7.7,3.2-15.5,1.7-23.1c-1.1-5.4-3.9-10.4-4-15.9c0-0.8,0.5-3.8,0.9-4.5c1-2.1,3.5,0,5.8,0.2
	c3.3,0.4,6.2-0.8,8.4,1.8c2.4,2.9,1.8,7.3,1.9,11.1c0,0.7,0,1.4,0.3,2.1c0.3,0.8,0.9,1.4,1.5,2c3.7,3.8,7.3,8.2,8.3,13.5
	c0.4,2.2,0.4,4.5,0.4,6.8c0.2,7.6,1.6,15.1,4.2,22.3c2.3,6.2,9.9,13.3,6.3,18.9c-3.6,5.5-12.5,4.1-18.7,6.1
	c-1.3,0.4-2.7,0.9-3.8,1.7c-1.4,1.1-2.3,2.7-3.2,4.2c-1.1,1.9-2.2,3.9-3.3,5.8c-2,3.6-4.1,7.2-6.1,10.8c-0.8,1.4-1.6,2.9-2.1,4.5
	c-1.5,4.7-0.2,9.7,0.1,14.6c0.1,2.4,0,4.9-0.4,7.3c-0.4,2.5-1.1,5.1-2.8,7.1c-1.6,2-4.2,2.7-6.8,2.6
	C297,187.4,293.7,187.6,292.4,188.4z"/>
<path fill="none" stroke="#E1E1E1" stroke-miterlimit="10" d="M250.2,248.5c0.6,0,1.2,0,1.7-0.3c0.4-0.3,0.7-0.7,1-1.2
	c1.6-2.8,4.8-6,3.4-8.8c-1-2.2-5-1-6.8,0.6c-0.8,0.7-1.4,1.6-1.9,2.5c-0.6,1-1.3,2.1-1.5,3.3s0.1,2.6,1.1,3.3
	C248,248.5,249.1,248.5,250.2,248.5z"/>
<path fill="none" stroke="#E1E1E1" stroke-miterlimit="10" d="M321.1,362.5c0-0.2,0-0.5,0-0.7c-0.1-2.3-0.5-4.8-2-6.6
	c-2-2.3-5.2-2.7-8.2-3c-3.7-0.4-7.6-0.8-10.6-2.9c-2.4-1.7-4-4.4-5.5-6.9c-1.8-3.1-3.6-6.2-5.4-9.2c-3-5.2-6.1-10.5-8-16.3
	c-0.7-2.1-1.2-4.2-1.6-6.3c-1-4.7-1.9-9.6-1.1-14.4c0.5-2.8,1.5-5.4,1.8-8.2c0.3-2.8-0.2-5.9-2.3-7.8c-1-0.9-2.2-1.4-3.5-1.9
	c-2.7-1.1-5.4-2.3-8.1-3.4c-0.9-0.4-3-0.5-2.6,0.5c1.7,3.9,4.5,7,5.1,11.2c0.4,2.5,0.7,5,1.1,7.5c0.7,5.2,1.5,10.4,1.5,15.6
	c0,2.9-0.2,5.8-0.6,8.7c-0.4,2.9-0.9,5.7-1.8,8.5c-0.8,2.5-2,5-3.2,7.4c-1.9,3.9-3.8,7.9-5.7,11.8c-1.9,4-4.1,8.3-8.1,10.4
	c-1,0.5-2.5,1.4-1.9,2.5c1.3,2.5,4.3,3.3,6.8,4.6"/>
<path fill="none" stroke="#E1E1E1" stroke-miterlimit="10" d="M293.9,356.4c1.2-0.7,0.4-2.8-0.4-3.9s-2-2-2.8-3.2
	c-0.8-1.2-1.1-2.8-2.1-3.9c-0.7-0.8-1.5-1.3-2.4-1.8c-2.6-1.7-4.8-4-6.4-6.7c-0.4-0.7-0.8-1.4-1.4-1.8c-1.3-0.8-3.1,0.1-3.9,1.4
	c-0.8,1.3-0.9,2.9-1.3,4.4c-0.9,3.5-3.2,6.5-4.1,9.9c-0.1,0.5-0.2,1-0.1,1.5c0.1,0.3,0.2,0.6,0.3,0.8c0.7,1.5,1.7,2.8,3,3.7
	c2.7,1.8,6.1,1.5,9.3,1.1c0.6-0.1,1.3-0.1,1.9-0.2C286.9,357.2,290.8,358.1,293.9,356.4z"/>
<path fill="none" stroke="#E1E1E1" stroke-miterlimit="10" d="M158.7-2c1.3,1.1,2.5,2.2,4.2,2.4c2.5,0.3,5-0.4,7.5-1
	c0.6-0.1,1.2-0.3,1.7-0.6c0.5-0.3,0.8-0.8,1.3-1.2"/>
<path fill="none" stroke="#E1E1E1" stroke-miterlimit="10" d="M179.3,362.7c-0.2-0.4-0.5-0.8-0.7-1.2c-0.5-0.8-1-1.5-1.7-2
	c-2.1-1.2-4.6,0.4-7,0.4c-3.4-0.1-5.7-3.7-6.4-7c-0.6-3.4-0.2-6.9-1.2-10.2c-1-3.3-4.5-3.7-7.7-5c-4.1-1.7-0.2-8.9,2-12.8
	c2.2-3.9,5-7.7,5.7-12.1c0.7-4.3-0.6-8.7-1.9-12.9c-0.9-2.8,0-5.6-1-8.4c-0.6-1.8-2.2-2.8-4.1-3.2c-3.7-0.9-1.7-7.3-4.5-9.9
	c-1.9-1.8-5-1.1-6.9-3c-2.6-2.7-5-5.7-7.2-8.8c-0.6-0.9-1.3-1.9-2.4-1.9c-1.1,0-2,1-2.7,1.9c-3.6,4.4-8.7,7.6-14.2,9
	c-1,0.2-2,0.4-2.9,1c-1.7,1.1-2.3,3.2-3.1,5c-0.9,1.8-3.1,4.2-4.7,2.9c-2-1.8-1.6-5.2-1.1-7.8c0.3-1.6,1-3.2,1-4.8
	c0-1.2-0.4-2.4-0.8-3.6c-3.7-11.6-7.5-23.2-11.2-34.7c-0.5-1.6-1.1-3.3-2.2-4.6c-1.1-1.3-3-2.1-4.6-1.5c-0.8,0.3-1.4,0.9-2.1,1.3
	c-3.8,2.2-8.4-0.6-11.9-3.3c-0.7-0.6-1.5-1.1-2-1.9c-0.7-0.9-0.9-2.1-1.2-3.2c-1.5-6.5-2.8-13-4.1-19.6c-1.1-5.8-1.8-10.2,5-14.5
	c2.3-1.4-0.6-5.9,1-8.1c0.8-1.2,2.6-1.4,4.1-1c0.8,0.2,1.5,0.5,2.2,0.9c0.6,0.4,1.2,0.8,1.9,1.2c1.3,0.7,2.8,1.1,4.2,1.4
	c3.4,0.8,6.7,1.6,10.1,2.5c3.5,0.9,7.1,1.7,10.7,2.3c5.4,0.9,11,1,16.4,0.6c1.4-0.1,2.9-0.3,4.3,0.1c2.4,0.6,5,2.8,7.1,1.4
	c1.2-0.8,1.6-2.3,2.5-3.4c1.4-1.5,3.6-1.8,5.7-1.6c4.6,0.4,8.8,2.6,12.2,5.6c1.6,1.4,5,4,6.7,5.4c15.5,13.5,15,8.3,16.8,9.8
	c4.1,3.3,7.1,6.7,12.2,5.4c0.7-0.2,1.5-0.4,2.2-0.2c0.4,0.1,0.8,0.5,1.1,0.7c1.3,0.8,3.1,0.6,4.6,0.3c4.1-0.7,8.3-1.4,11.4-4.1
	c1-0.9,1.9-2,2.7-3.1c3.5-4.5,6.4-8.2,11.4-11.5c1-0.6,1.2-4.6,1.5-5.8c0.7-3-0.2-7.1-2.3-9.3s-5-3.9-6.4-6.7
	c-0.8-1.6-1.1-3.5-1.3-5.3c-0.4-3.4-0.7-6.8-2.2-9.9c-0.6-1.2-1.4-2.3-1.9-3.6c-0.7-1.7-1-3.6-1.5-5.3c-0.6-1.8-1.6-3.5-3.4-4.2
	c-1.2-0.4-2.5-0.3-3.8-0.7c-3.2-0.9-2.7-5.8-5.2-8c-3.3-2.9-8.7-1.1-13.1-1.6c-3.3-0.4-6.7-0.8-10-0.2c-2.5,0.4-5.1,1.5-7.6,0.8
	c-3.7-1-5.5-5.1-7.7-8.3c-0.2-0.3-0.5-0.7-0.9-0.9c-0.5-0.2-1,0-1.5,0.1c-2.8,0.7-6.6,1.4-8.4-0.8c-2.8-3.6,2.6-9.3,0.9-13.5
	c-1.4-3.5-8.4-1.8-10.3-5.1c-1.5-2.7,2.9-5.3,4.3-8.1c1.3-2.5,1-6.3,1.3-9.1c0.1-1,0.2-2.1,0-3.1c-0.2-0.9-0.6-1.7-1-2.6
	c-3.1-6.7-6.3-13.4-9.4-20.1c-0.7-1.6-1.5-3.2-2.9-4.2c-0.7-0.5-1.4-0.8-2-1.3c-0.6-0.6-0.9-1.5-1.2-2.3c-1.6-3.4-5.8-4.8-9.5-5
	c-3.8-0.1-8.7,3.2-11.3,0.5c-0.9-0.9-1.3-2.2-2.5-2.5c-1.2-0.3-2.6-0.2-3.8-0.7c-2.4-0.9-3.6-3.9-3.1-6.5c0.5-3.1,2.8-6.5,0.9-9
	c-0.7-0.9-1.9-1.4-3-2c-4.8-2.5-7.9-7.2-10.5-11.8c-1-1.8-1.9-3.6-3.3-5.1c-1.4-1.5-3.3-2.6-5.3-2.4c-1.5,0.1-2.8,0.8-4.1,1.4
	c-1.3,0.6-2.8,1.1-4.2,0.8c-1.4-0.3-1.9-1.7-2.3-3.1c-0.9-3.2-2-6.3-2.9-9.4"/>
<path fill="none" stroke="#E1E1E1" stroke-miterlimit="10" d="M179.2,323.2c-0.5-0.7-1.9,0-2.5,0.7c-0.6,0.7-1.1,1.9-0.4,2.5
	c0.6,0.6,1.7-0.1,2.2-0.8C179.1,325,179.7,323.9,179.2,323.2z"/>
<path fill="none" stroke="#E1E1E1" stroke-miterlimit="10" d="M84.2,241.8c0.3-0.6,0.6-1.1,1.2-0.9c0.6,0.1,1.4,0.8,1.8,0.4
	c1.7-1.7-1.3-4.5-2.9-6.2c-1.4-1.4-2.8-2.9-4.5-3.8c-1.8-1-3.9-1.4-6-1.7c-0.8-0.1-1.8-0.2-2.2,0.5c-0.2,0.4-0.2,0.8-0.1,1.3
	c0.3,1.2,1,2.2,1.8,3.2c0.9,1.2,1.8,2.4,3,3.3c0.4,0.3,0.9,0.6,1.3,0.9c1,0.6,1.9,1.3,2.9,1.9C81.6,241.4,83.6,243.1,84.2,241.8z"/>
<path fill="none" stroke="#E1E1E1" stroke-miterlimit="10" d="M138.6,363c0.9-4-0.2-8.7-1.6-12.7c-2.8-8.1-6.3-15.9-10.4-23.4
	c-1-1.8-2.1-3.7-3.7-5c-1.2-1-2.6-1.7-3.7-2.7c-3.4-3.2,0.1-9.1-2.2-13.2c-2.5-4.5-9,3.9-13.9,5.6c-0.9,0.3-2,0.5-2.9,0.2
	c-0.8-0.2-1.5-0.8-2.2-1.4c-6.1-5.3-10.5-12.5-12.3-20.4c-0.6-2.5-1.1-5.4-3.4-6.7c-0.9-0.5-1.9-0.7-2.7-1.1c-3.2-1.7-3.3-6-4-9.5
	s-5.6-8.4-7.3-5.2c-2.2,3.9-5.9,7.6-9.9,5.6c-1.4-0.7-2.5-1.8-3.6-3c-4.7-4.9-7.4-13.5-14.1-14.7c-4-0.7-1.3,7.2-1.8,11.3
	c-0.5,3.9-4.7,6.9-8.6,6c-3.8-0.9-6.4-5.5-5-9.2c0.8-2.1,2.5-3.8,3.5-5.8c2-4.1,1-8.9-0.4-13.3c-2.2-7.2-5.2-14.1-8.7-20.8
	c-1.1-2.1-2.3-5-0.5-6.6c2.6-2.4,6.6-3.2,10.1-2.2c3.6,1,8,3.7,10.4,0.9c2.1-2.4,0.4-7.1,3.1-8.8c2.1-1.3,4.8,0.5,7.2,0.3
	c3-0.2,5.1-3.3,5.2-6.3s-2-5.5-2.4-8.5c-1-6.2,1.6-12.6,2.4-18.8c0.3-2.1,0.5-4.3-0.6-6.1c-1.7-2.8-8.6-5.7-5.8-7.3
	c1.3-0.8,2.9-0.7,3.7-2c0.8-1.3,1.7-2.8,3.2-3c0.9-0.1,1.7,0.3,2.5,0.7c10.5,5,21.3,9.3,32.4,12.9c1.8,0.6,3.7,1.2,5.6,1.1
	c1.8,0,3.6-0.7,5.3-1.3c3.4-1.3,6.6-3,9.7-4.9c1.3-0.8,2.8-1.6,4.2-0.9c0.6,0.3,1,0.9,1.6,1.1c1.7,0.5,2.6-1.8,3.7-3.2
	c0.4-0.4,0.8-0.9,1-1.4c0.1-0.4,0-0.9-0.1-1.4c-0.7-2.7-1.4-5.5-2.8-7.9s-3.8-4.4-6.6-4.8c-1.1-0.1-2.2,0-3.3-0.3
	c-2.8-0.7-4.3-3.7-5.7-6.2c-2.3-4.3-4.7-9.3-9.2-11.2c-3.2-1.3-6.4-2.5-9.2-4.6c-3-2.2-6.3-5.1-6.1-8.8c0.1-2.4,1.6-4.5,3.1-6.5
	c4.1-5.4,8.8-11.2,15.4-12.7c1.3-0.3,2.7-0.5,3.8-1.2c1.9-1.4,2.1-4.2,2.5-6.5c0.6-3.4,2-6.8,4.1-9.5c1.5-2,3.9-1.6,6.4-2
	c1.8-0.3,1.3-3.6,0.8-5.3c-0.5-1.8-2-3.3-3.9-3.4c-1.1,0-2.1,0.4-3.1,0.9c-3.7,1.6-7.8,2.6-11.8,2.2c-3-0.4-5.9-1.6-8.2-3.6
	c-1.8-1.5-3.4-3.5-5.7-4.2c-0.9-0.3-1.8-0.3-2.7-0.5c-3.7-0.9-8.9-4.4-7.6-7.9c0.1-0.3-0.1-0.4-0.1-0.7c0-0.3,0.4-0.6,0.2-0.9
	c-1.1-2.1-0.4-4.7,0.6-6.8s2.4-4.2,2.5-6.6c0.2-2.5-1-5.3,0.5-7.3c1.8-2.5,2-6,0.6-8.7s-4.4-4.5-7.5-4.5c-2.1,0-4-1-5.8-2
	c-1.6-0.9-3.2-1.7-4.8-2.6c-1.2-0.7-1.3-2.1-2.3-3.2c-1.4-1.5-4.2,0.8-6-0.2C48.1,9,47,7.1,46.2,5.3c-1.2-2.5-2.2-5-3.2-7.6"/>
<path fill="none" stroke="#E1E1E1" stroke-miterlimit="10" d="M-3,119.7c0.7,0.4,1.4,0.8,2.2,1.1c1.5,0.6,3.2,0.7,4.7,1.5
	c2.5,1.3,1.3,5.1,3.3,7.1c2.8,2.9,7.8-1.5,11.8-2.2c1.7-0.3,3.3,0.2,4.4,1.5c1.3,1.6,3.7-1.7,3.8-3.7c0.1-2.1-0.6-4.3,0.4-6.1
	c1.5-3,5.9-2.9,8.9-1.5c0.6,0.3,1.2,0.6,1.9,0.5c0.7-0.1,1.2-0.6,1.7-1.1c2.8-2.7,8.6-1.2,10.3-4.6c1.2-2.5-3-5.4-1.3-7.6
	c0.6-0.8,1.6-1.3,1.9-2.3c0.3-0.9-0.2-1.9-0.3-2.8c-0.2-1.9,0.9-3.6,1.8-5.2s1.5-3.8,0.5-5.3c-2-2.8-6.7-0.4-9.8-1.8
	c-3.2-1.4-3.2-5.9-5.2-8.8c-1.6-2.4-4.1-5.2-6.9-4.7c-2.3,0.4-1.5,4.3-3.6,5.1c-3,1.1-5.5-3.4-8.3-5c-0.8-0.5-1.5-0.9-2.1-1.5
	c-1.7-1.7-2-4.7-0.7-6.8c1.3-2.1,4.1-3,6.4-2.2c1.7,0.6,3.3,2,5,1.4c1.3-0.5,1.8-2,2.5-3.2s2.4-2.2,3.4-1.2c0.4,0.4,0.5,1,0.7,1.5
	c1.2,3.2,5.7,5.4,8.7,3.9c2.1-1.1-0.4-4.6-0.1-7c0.3-3.7,5.1-5.3,6.9-8.6c0.7-1.3,0.9-2.8,1.1-4.3c0.6-5.5,1.1-11,1.3-16.5
	c0-1,0.1-2.1-0.4-3.1c-0.3-0.5-0.7-1-1.2-1.4c-2.7-2.3-6.1-3.7-9.6-3.9c-2.8-0.2-6.5,1.3-8.3-0.8c-1.8-2.2-1.3-5.6-2-8.4
	c-0.2-1-0.5-2-1.1-2.7c-1.4-1.6-4-1.2-6-1.9c-4-1.5-4.7-6.7-6.6-10.5"/>
<path fill="none" stroke="#E1E1E1" stroke-miterlimit="10" d="M-2.2,189.4c1.1,0.6,2.1,1.4,3.1,2c4.3,2.5,9.6,2.5,14.7,2.4
	c0.6,0,1.3-0.1,1.7-0.6c0.2-0.3,0.3-0.8,0.3-1.2c0-1.8-0.9-3.9-0.1-5.5c1-2,4.3,0.4,6.4-0.1c3-0.6,5.2-3.1,6.9-5.7
	c3.2-4.7-5.6-10.5-11.2-11.3c-0.9-0.1-1.6-0.7-2.4-1.1c-1.3-0.6-1.3-1.9-2.2-3c-3-3.7-6-7.3-9.4-10.4c-2.2-2-4.8-4.2-4.9-7.2
	c-0.1-1.4,0.2-3.4-1.1-3.9c-0.5-0.2-1-0.1-1.5-0.1"/>
<path fill="none" stroke="#E1E1E1" stroke-miterlimit="10" d="M55.2,362.8c0.1-1.3,0.2-2.5,0.5-3.5c0.5-1.8,1.5-3.3,3.3-3.7
	c2.6-0.5,2.2-4.6,1.2-7.1c-1-2.5-3-5.7-1.1-7.6c2.5-2.6,6.5,1.8,10.1,1.7c1.6-0.1,2.7,1.7,4,2.6c0.3,0.2,0.7,0.4,1.1,0.5
	c0.8,0.2,1.6-0.3,2.3-0.8c2.4-1.6,4.7-3.2,7.1-4.8c0.9-0.6,2.1-1.3,3.2-1c2.5,0.8,1.6,5.6,4.1,6.2c1.5,0.3,2.7-1.1,3.5-2.4
	c1.5-2.4,3-4.7,4.5-7.1c0.7-1.1,1.4-2.3,1.6-3.6c0.2-1.3-0.4-2.8-1.6-3.3c-2.2-0.9-4,1.7-5.7,3.4c-1.4,1.4-3.4,2.3-5.3,2
	c-1.9-0.3-3.7-2-3.7-4c0-1.7,1.1-3.2,1.3-4.8c0.4-2.7-1.6-5.3-1-7.9c0.3-1.4,1.3-2.8,0.6-4.1c-0.9-1.6-3.5-1-4.8-2.3
	c-1.2-1.1-1.4-3.4-3-3.4c-0.7,0-1.2,0.5-1.9,0.7c-1.6,0.5-3.1-0.9-4.3-2.1c-1.2-1.2-3.1-2.3-4.4-1.2c-0.6,0.5-0.9,1.3-1.4,1.9
	c-1.7,1.8-4.9,0.4-6.2-1.7c-0.6-1-1.1-2.3-2.1-2.9c-1.4-0.9-3.3-0.4-4.8,0.4c-1.5,0.8-2.9,2.7-4.5,2.2c-3.8-1.3-5.7-5.8-7.6-9.3
	c-0.5-0.9-0.9-1.8-1.5-2.5c-2.3-2.6-6.4-1.6-9.9-2c-6.1-0.6-10.8-5.4-14.9-9.9c-0.5-0.5-0.9-1-1.4-1.5c-1.6-1.8-3.2-3.5-4.9-5.2
	c-3.5-3.5-7.4-7-8.9-11.7c-0.4-1.3-0.9-2.5-1.5-3.7"/>
<path fill="none" stroke="#E1E1E1" stroke-miterlimit="10" d="M34.5,362.5c4-1.7,7.9-8.4,10.9-5.3c1.2,1.2,1.7,3,1.9,5"/>
<path fill="none" stroke="#E1E1E1" stroke-miterlimit="10" d="M-5,345.4c2.5,1.7,5.3,7.1,6.4,4.2c1.3-3.2,4.2-6.3,7.5-8.3
	c5.3-3.1-7.6-5.6-15.1-3.8"/>
<path fill="none" stroke="#E1E1E1" stroke-miterlimit="10" d="M352.8,361.7c0-1.5-0.5-3.2-1.9-3.8c-0.9-0.4-2.1-0.5-2.3-1.4
	c-0.1-0.4,0-0.8,0.1-1.1c1.8-5.1,5.4-10.5,10.7-11.5c0.9-0.2,1.6-0.3,2.3-0.5"/>
<path fill="none" stroke="#E1E1E1" stroke-miterlimit="10" d="M-2.2,181.2c0.6,0.5,1.2,0.9,1.8,1.4c1.3,1,2.6,2,4,2.6
	c2.4,1.1,5.2,1.4,7.7,0.7c0.8-0.2,1.7-0.6,2-1.3c0.4-0.8-0.2-1.7-0.8-2.4c-0.6-0.8-0.5-1.9-0.4-2.9c0-1.3,0.5-2.5,0.7-3.8
	c0.2-1.3,0-2.8-1-3.6c-0.5-0.4-1.2-0.6-1.8-0.9c-0.6-0.2-1.2-0.4-1.9-0.4c-1-0.1-2,0.3-2.9,0.7c-1.3,0.5-2.2,1.9-3.6,2
	c-1.9,0.2-3.7-0.8-5.6-0.9"/>
<path fill="none" stroke="#E1E1E1" stroke-miterlimit="10" d="M70.9,116.3c0,0.4,0.2,0.7,0.5,1c1.2,1.2,4.5,0.6,4.1-1
	c-0.2-0.6-0.8-1.1-1.4-1.4c-0.6-0.3-1.4-0.2-2,0S70.9,115.6,70.9,116.3z"/>
<path fill="none" stroke="#E1E1E1" stroke-miterlimit="10" d="M175.8,55.3c2.3-0.6,5.2-0.3,6.9-1.9c0.4-0.4-0.2-1.2-0.8-1.5
	s-1.1-0.5-1.5-1c-0.2-0.2-0.3-0.5-0.5-0.8c-1.1-1.9-3.5-2.4-5.2-3.7c-1.1-0.8-1.9-1.8-2.6-3c-0.3-0.5-0.5-0.9-0.8-1.4
	c-1.1-1.6-3.1-2.4-5-2.2c-0.1,0-0.3,0-0.4,0.1c-0.2,0.1-0.2,0.4-0.3,0.6c-0.2,0.9-0.3,1.9-0.2,2.8c0.5,2.8,3.9,4.5,4.1,7.4
	c0,0.6,0,1.3,0.5,1.6c0.5,0.3,1.2,0,1.8,0.1c1.5,0.2,1.5,2.9,3,3.1C175.1,55.5,175.4,55.4,175.8,55.3z"/>
<path fill="none" stroke="#E1E1E1" stroke-miterlimit="10" d="M256.8,30.5c-0.4,1.7-2.3,3-2,4.7c0.2,0.9,1,1.7,1.9,1.9
	c0.9,0.3,1.9,0.2,2.9,0.1c1.1-0.1,2.2-0.2,3.2-0.3c0.8-0.1,1.9-0.4,1.9-1.2c0-0.2-0.1-0.3-0.1-0.5c-1-2.6-2.5-5-4.5-7
	c-0.6-0.6-1.6-1.3-2.4-0.9C256.7,27.9,257,29.4,256.8,30.5z"/>
<path fill="none" stroke="#E1E1E1" stroke-miterlimit="10" d="M288.2-2.9c0.9,2.4,1.9,4.7,4,5.9c0.8,0.5,1.5-0.7,1.8-1.6
	c0.6-1.7,1.2-3.3,1.7-5"/>
<path fill="none" stroke="#E1E1E1" stroke-miterlimit="10" d="M322.8-2.9c-1.5,3.2-2.6,6.7-3.1,10.2c-0.1,0.7-0.2,1.5,0.1,2.1
	c0.6,1.4,2.5,1.5,4,1.6c7.6,0.5,14.8,5.9,17.3,13.1c1.5,4.2,1.6,9,4.3,12.5c1.9,2.4,4.7,4,6.7,6.3c1.6,1.8,2.6,4.1,3.5,6.3
	c1.6,3.7,3.2,7.5,3.6,11.5c0.4,4.2-0.5,8.4-0.6,12.5c0,1.5,0.1,3.1,0.9,4.3c0.6,0.8,1.5,1.4,2.5,1.5"/>
<path fill="none" stroke="#E1E1E1" stroke-miterlimit="10" d="M265.7,151.7c0.5,1.8,0.1,3.7,0.2,5.5c0.1,1.4,0.6,2.8,1,4.2
	c1.6,4.7,3.7,9.3,6.3,13.6c1.1,1.9,2.3,3.7,2.7,5.8c0.3,1.5,0.3,3.2,1.5,4c1.2,0.8,2.9,0.2,4.3-0.4c3.6-1.7,7.2-3.4,10.8-5.2
	c1.3-0.6,2.6-1.2,3.4-2.4c1.2-1.6,1.2-3.8,1.1-5.8c-0.2-3.3-0.3-6.5-0.5-9.8c-0.3-5.2-0.3-11.1,3.3-14.8c1.2-1.2,3.7-3.9,2-4.3
	c-1.9-0.5-7.7,1.9-11.6,2.9c-4.4,1-8.9,1.3-13.3,1.5c-1.5,0.1-3.1,0.1-4.5-0.4c-1.4-0.5-2.4-1.6-3.7-2.3c-1.3-0.7-3-1.1-4.1-0.1
	c-1.1,0.9-1.1,2.7-0.6,4.1C264.5,149.1,265.3,150.3,265.7,151.7z"/>
<path fill="none" stroke="#E1E1E1" stroke-miterlimit="10" d="M283.3,173c1.1,0.4,2.3-0.2,3.1-1.1c2-2.2,2-5.5,2-8.5
	c0-1.4-0.1-2.9-0.1-4.3c0-0.9-0.1-1.9-0.7-2.6c-0.6-0.6-1.5-0.7-2.4-0.8c-2.9-0.3-5.8-0.6-8.7-0.8c-0.2,0-0.5,0-0.6,0.1
	c-0.2,0.1-0.2,0.3-0.3,0.5c-0.5,1.3-0.9,2.8-0.1,3.9c0.4,0.5,0.9,0.7,1.3,1.1c0.6,0.5,1.1,1.1,1.6,1.7c0.3,0.4,0.6,0.8,0.8,1.2
	c0.7,1.1,1,2.4,1.4,3.6c0.3,1,0.6,2,0.8,3C281.7,171.2,282.1,172.6,283.3,173z"/>
<path fill="none" stroke="#E1E1E1" stroke-miterlimit="10" d="M325.7,121.2c1.5-0.1,3.1,0,4.6-0.5c1.5-0.5,2.8-1.7,2.9-3.3
	c0-0.9-0.4-1.7-0.7-2.6c-2.5-6.4-0.3-14.1-3.7-20c-0.7-1.1-1.5-2.2-2-3.4c-0.5-1.4-0.5-2.9-0.4-4.4c0.2-3.7,0.8-7.4,0-11
	c-0.8-3.6-4.7-10.5-7-7.7c-2,2.5,2.3,6.1,2.2,9.3c0,2.2-0.6,4.3-1.2,6.4c-2.1,8-4.1,16.1-4.4,24.4c-0.1,4.5,0.2,9.1-1.3,13.3
	c-0.2,0.6-0.5,1.3-0.3,2c0.3,1,1.6,1.3,2.6,1s1.7-1,2.6-1.6C321.4,121.8,323.6,121.3,325.7,121.2z"/>
<path fill="none" stroke="#E1E1E1" stroke-miterlimit="10" d="M317.2,60.1c-0.1-0.1-0.2-0.2-0.3-0.2c-0.3-0.2-0.5-0.7-0.8-0.6
	c-0.7,0.3-0.6,1.4-0.6,2.1c0,0.7,1.1,0.9,1.7,0.5C317.7,61.5,317.7,60.5,317.2,60.1z"/>
<path fill="none" stroke="#D6D6D6" stroke-miterlimit="10" d="M20.5,173.4c-1.9-1.7-3.8-3.3-5.4-5.3c-1.2-1.5-2.2-3.3-3.4-4.8
	c-3.3-4.3-8-7.4-12.9-9.8c-0.7-0.4-1.5-0.7-2.2-1.1"/>
<path fill="#EAEAEA" stroke="#D6D6D6" stroke-miterlimit="10" d="M103.9,341.3c-0.1,0.1-0.1,0.2-0.1,0.2c-0.1,0.5-0.2,1,0.1,1.5
	c0.1,0.1,0.2,0.3,0.4,0.4c0.6,0.5,1.1,1.3,1.8,1.2c0.3,0,0.6-0.3,0.8-0.6c0.2-0.2,0.4-0.5,0.4-0.8c0-0.3-0.3-0.5-0.5-0.8
	c-0.2-0.3-0.3-0.6-0.6-0.9c-0.5-0.5-1.3-0.5-2-0.4C104.1,341.2,104,341.3,103.9,341.3z"/>
<path fill="#EAEAEA" stroke="#D6D6D6" stroke-miterlimit="10" d="M69.5,326.1c-0.1-0.4,0-0.9-0.3-1.2c-0.4-0.4-1-0.2-1.3,0.2
	s-0.3,1-0.3,1.5c0,0.5,0,1.1,0.2,1.6c0.2,0.5,0.4,0.8,0.7,1.2c0,0.1,0.1,0.1,0.2,0.2c0.3,0.2,0.6-0.2,0.7-0.5
	c0.2-0.4,0.4-0.8,0.5-1.2c0.1-0.1,0.1-0.2,0.1-0.4C70,327.1,69.6,326.6,69.5,326.1z"/>
<path fill="#EAEAEA" stroke="#D6D6D6" stroke-miterlimit="10" d="M183.3,344c0.3,0.3,0.8,0.3,1.2,0.3c0.6-0.1,1.2-0.4,1.7-0.7
	c1-0.5,0.5-2.5-0.4-2.4c-0.4,0-0.8,0.1-1.1,0.2c-0.6,0.2-1.1,0.5-1.5,1S182.9,343.6,183.3,344z"/>
<path fill="#EAEAEA" stroke="#D6D6D6" stroke-miterlimit="10" d="M188.7,321.3c-0.5,0.5-0.4,1.5,0.1,1.9c0.6,0.5,1.4,0.5,2,0.1
	c0.2-0.1,0.4-0.3,0.5-0.6c0.3-0.6-0.3-1.3-0.9-1.6C189.9,320.9,189.2,320.9,188.7,321.3z"/>
<path fill="#EAEAEA" stroke="#D6D6D6" stroke-miterlimit="10" d="M225.5,318.2c0.6,0.1,1.3-0.1,1.8-0.4c0.1-0.1,0.2-0.1,0.3-0.2
	c0.2-0.3,0-0.6-0.2-0.9c-0.4-0.5-1.2-0.8-1.8-0.8c-0.3,0-0.6,0.1-0.9,0.3c-0.2,0.2-0.3,0.6-0.2,0.8
	C224.6,317.3,225,318.2,225.5,318.2z"/>
<path fill="#EAEAEA" stroke="#D6D6D6" stroke-miterlimit="10" d="M148.5,323.9c-0.3,0-0.6,0.2-0.7,0.5c-0.2,0.3-0.2,0.6-0.2,0.9
	c0,0.5,0.1,1.1,0.6,1.1c0.1,0,0.1,0.1,0.2,0.2c0,0.1,0.2-0.1,0.2-0.1c0.5-0.6,1.2-1.6,0.7-2.3C149.1,324,148.8,323.9,148.5,323.9z"
	/>
<path fill="#EAEAEA" stroke="#D6D6D6" stroke-miterlimit="10" d="M152.8,316.3c-0.2-0.5-0.9-0.8-1.5-0.5c-0.5,0.2-0.9,0.8-0.9,1.4
	c-0.1,0.7,0.3,1.7,1,1.5c0.4-0.1,0.6-0.5,0.9-0.7C152.7,317.5,153,316.9,152.8,316.3z"/>
<path fill="#EAEAEA" stroke="#D6D6D6" stroke-miterlimit="10" d="M148.3,299.7c-0.9,0.3-1.2,1.4-1.5,2.3c-0.2,0.6-0.4,1.3-0.5,1.9
	c-0.1,0.5-0.3,1-0.3,1.5c-0.1,1.1,0.4,2.2,1.2,3c0.5,0.5,1.2,0.8,1.8,1.1c0.5,0.3,1.1,0.5,1.6,0.8c0.5,0.3,1.1,0.5,1.7,0.5
	c0.9,0,1.7-0.7,2.1-1.5c0.4-0.8,0.4-1.7,0.4-2.6c0-1.2-0.1-2.3-0.7-3.4c-0.6-1.2-1.8-2-2.9-2.7c-0.5-0.4-1.1-0.7-1.8-0.8
	C149,299.5,148.6,299.6,148.3,299.7z"/>
<path fill="#EAEAEA" stroke="#D6D6D6" stroke-miterlimit="10" d="M139.6,297.2c-0.4,0-0.6,0.3-0.8,0.7s-0.2,0.7-0.2,1.1
	c0,0.2,0,0.5,0.1,0.6c0.1,0.1,0.1,0.1,0.2,0.2c0.3,0.2,0.7,0.3,1,0.1c0.2-0.1,0.4-0.4,0.5-0.7c0.1-0.4,0.2-0.9,0.1-1.3
	C140.4,297.4,140,297.1,139.6,297.2z"/>
<path fill="#EAEAEA" stroke="#D6D6D6" stroke-miterlimit="10" d="M137.3,293.5c-0.7-0.2-1.6-0.1-2,0.5c-0.3,0.6,0.5,1.4,1.2,1.5
	s1.4-0.6,1.4-1.3c0-0.1,0-0.2-0.1-0.3C137.7,293.6,137.5,293.5,137.3,293.5z"/>
<path fill="none" stroke="#D6D6D6" stroke-miterlimit="10" d="M2.8,339.8c1.9,0.2,3.7,0.4,5.6,0.6c1.8,0.2,3.8,0.5,5.1,1.7
	c2.4,2.2,2.1,6.9,5.1,8.2c1.8,0.8,3.9-0.1,5.2-1.5c1.4-1.4,2.2-3.1,3.4-4.6c2.2-2.8,5.4-4.7,8.8-5.2c1.3-0.2,2.7-0.3,4-0.4
	c1.8-0.2,3.6-0.6,5.3-1.2c0.6-0.2,1.2-0.4,1.6-0.9c0.7-0.8,0.8-2,0.8-3c-0.1-3.6-0.5-7.2-1.3-10.8c-0.3-1.3-0.6-2.6-0.5-3.8
	s0.9-2.6,2.1-3c1.4-0.4,2.9,0.4,3.9,1.4c1,1,1.8,2.1,2.4,3.4c0.9,2,1.3,4.3,2.8,5.9c0.9,0.9,2,1.4,3.1,1.9c2.5,1.3,4.9,3,7.2,4.7
	c1.4,1,2.8,2,4.2,3c0.6,0.5,1.3,1,1.7,1.7c0.3,0.5,0.4,1.2,0.5,1.8c0.4,2.5,0.8,5,1.2,7.5c0.5,3,1.1,6.6,2.8,9.1"/>
<path fill="#EAEAEA" stroke="#D6D6D6" stroke-miterlimit="10" d="M93,235.2c-0.3-0.4-1.5-1-1.6-1.1c-0.1-0.1-0.3-0.1-0.5-0.2
	c-0.4-0.1-0.9-0.1-1.3,0s-0.8,0.4-1,0.8c-0.1,0.4,0.1,0.9,0.3,1.3c0.1,0.1,0.7,0.7,0.9,0.9c0.2,0.1,0.5,0.3,0.7,0.4
	c0.6,0.3,1.2,0.6,1.8,0.3c0.5-0.3,0.7-0.9,0.7-1.5C93.1,235.7,93.1,235.4,93,235.2z"/>
<path fill="#EAEAEA" stroke="#D6D6D6" stroke-miterlimit="10" d="M-3.1,339.2c-0.3,0.4-0.4,0.9-0.4,1.4c0,1.3,0.6,2.4,1.2,3.5
	c0.5,0.8,0.9,1.6,1.6,2.3c0.5,0.5,1.2,1,1.9,0.9c1-0.1,1.5-1.2,1.5-2.2c0-1-0.3-1.9-0.3-2.9c0-1.1,0.4-2.3-0.3-3.1
	c-0.3-0.3-0.7-0.5-1.2-0.7c-0.7-0.2-1.5-0.4-2.2-0.3S-2.7,338.6-3.1,339.2z"/>
<path fill="#EAEAEA" stroke="#D6D6D6" stroke-miterlimit="10" d="M278.1,254.2c-0.5-0.1-1.1,0.1-1.4,0.6c-0.3,0.5-0.2,1.1,0.1,1.5
	c0.1,0.1,0.2,0.2,0.4,0.2c0.1,0,0.1,0,0.2-0.1c0.7-0.3,1.1-1.2,1-1.9c0-0.1,0-0.2-0.1-0.2C278.2,254.2,278.2,254.2,278.1,254.2z"/>
<path fill="#EAEAEA" stroke="#D6D6D6" stroke-miterlimit="10" d="M286.5,242.9c0.1,0,0.3-0.1,0.4-0.2c0.5-0.3,0.9-0.7,1.1-1.3
	c0.2-0.5,0.1-1.2-0.4-1.5c-0.1-0.1-0.1-0.1-0.2-0.1c-0.1,0-0.2,0-0.3,0.1c-0.7,0.3-1.3,0.7-1.7,1.3c-0.1,0.1-0.2,0.3-0.2,0.5
	c0,0.3,0.2,0.6,0.5,0.8C285.9,242.7,286.2,242.9,286.5,242.9z"/>
<path fill="#EAEAEA" stroke="#D6D6D6" stroke-miterlimit="10" d="M307.9,225.1c-0.4,0-0.8,0.3-1.1,0.6c-0.1,0.1-0.3,0.3-0.4,0.4
	c-0.1,0.3,0.1,0.6,0.3,0.8c0.5,0.6,1.3,0.9,2,1.1c0.3,0.1,0.7,0.2,1.1,0.2c0.2,0,0.3,0,0.5-0.1c0.1-0.1,0.2-0.2,0.2-0.3
	c0.3-0.7,0.1-1.6-0.5-2.1c-0.4-0.3-0.9-0.4-1.4-0.5C308.4,225.1,308.1,225,307.9,225.1z"/>
<path fill="#EAEAEA" stroke="#D6D6D6" stroke-miterlimit="10" d="M312.4,236.7c0.4,0.5,1.1,0.8,1.8,0.7c0.2,0,0.4-0.1,0.5-0.2
	c0.2-0.2,0.2-0.4,0.2-0.7c0-0.3,0-0.8-0.2-1c-0.2-0.2-0.5-0.2-0.8-0.2c-0.3,0-0.6,0-0.9,0.1c-0.2,0.1-0.4,0.3-0.6,0.5
	c0,0.1-0.1,0.1-0.1,0.2C312.2,236.3,312.3,236.5,312.4,236.7z"/>
<path fill="#EAEAEA" stroke="#D6D6D6" stroke-miterlimit="10" d="M319.8,240.1c-0.2-0.1-0.3-0.2-0.5-0.2c-0.3,0-0.5,0.2-0.7,0.4
	c-0.1,0.2-0.2,0.5-0.2,0.8c0,0.5,1.1,1.4,1.7,1.1c0.2-0.1,0.5-0.1,0.7-0.3c0.3-0.3,0.2-0.8,0-1.1
	C320.6,240.5,320.2,240.3,319.8,240.1z"/>
<path fill="#EAEAEA" stroke="#D6D6D6" stroke-miterlimit="10" d="M342.4,245.7c-0.1-0.3-0.2-0.7-0.5-0.8c-0.2,0-0.5,0.1-0.7,0.3
	c-0.4,0.3-0.7,0.7-0.9,1.1c-0.3,0.7-0.2,1.6,0.3,2.2c0.2,0.2,0.4,0.3,0.7,0.3c0.4,0,0.8,0.3,1,0c0.1-0.1,0.1-0.2,0.2-0.4
	C342.6,247.6,342.5,246.6,342.4,245.7z"/>
<path fill="#EAEAEA" stroke="#D6D6D6" stroke-miterlimit="10" d="M338.1,251.4c0.5-0.1,1-0.3,1.5-0.4c0.5-0.1,1.1-0.1,1.5,0.2
	c0.4,0.2,0.6,0.7,0.7,1.1c0.1,0.4,0,0.9-0.1,1.3c-0.1,0.5-0.3,1-0.7,1.4c-0.1,0.1-0.2,0.2-0.3,0.2c-0.2,0-0.4-0.2-0.6-0.3
	c-0.4-0.4-0.8-0.7-1.3-0.9c-0.4-0.2-1,0-1.3-0.3c-0.3-0.2-0.2-0.7-0.2-1.1c-0.1-0.3-0.1-0.6,0.1-0.8
	C337.7,251.5,337.9,251.5,338.1,251.4z"/>
<path fill="#EAEAEA" stroke="#D6D6D6" stroke-miterlimit="10" d="M351.9,275.5c0.1-0.3-0.1-0.6-0.3-0.8c-0.1-0.1-0.1-0.1-0.2-0.2
	c-0.2-0.2-0.6-0.1-0.8,0.1c-0.2,0.2-0.3,0.6-0.2,0.8s0.3,0.7,0.6,0.6C351.4,276,351.8,275.8,351.9,275.5z"/>
<path fill="#EAEAEA" stroke="#D6D6D6" stroke-miterlimit="10" d="M353.7,269.8c0.3-0.2,0.6-0.4,0.6-0.7c0.1-0.4-0.4-0.8-0.8-0.9
	c-0.1,0-0.2-0.1-0.4,0c-0.3,0.1-0.5,0.4-0.6,0.7c-0.1,0.2-0.1,0.4,0,0.7c0.1,0.3,0.4,0.3,0.7,0.4
	C353.4,269.9,353.6,269.9,353.7,269.8z"/>
<path fill="#EAEAEA" stroke="#D6D6D6" stroke-miterlimit="10" d="M354.7,277.2c0.3,0.3,0.8,0.4,1.2,0.4c0.1,0,0.3,0,0.4,0
	c0.2-0.1,0.4-0.2,0.6-0.4c0.2-0.2,0.4-0.4,0.5-0.6s0.1-0.5,0-0.7c-0.1-0.1-0.1-0.2-0.2-0.2c-0.2-0.2-0.5-0.4-0.8-0.5
	c-0.4-0.1-0.7,0.1-1,0.2c-0.4,0.2-0.7,0.4-0.8,0.8C354.4,276.6,354.5,277,354.7,277.2z"/>
<path fill="#EAEAEA" stroke="#D6D6D6" stroke-miterlimit="10" d="M84,362.9c0.8-1.2,1.2-2.7,1.1-4.1c0-0.2-0.1-0.5-0.2-0.7
	c-0.4-0.4-1.1-0.2-1.5,0.1c-0.5,0.3-1.1,1.1-1.5,0.7c-0.2-0.3-0.4-0.5-0.7-0.6c-1-0.5-0.9-2.1-2-2.2c-1.1-0.1-2.1,1.5-1.8,2.5
	c0.3,1,1.1,1.9,1.5,2.9c0.1,0.4,0.2,0.8,0.2,1.3"/>
<path fill="#EAEAEA" stroke="#D6D6D6" stroke-miterlimit="10" d="M95.1,362.5c0.6-1,1.3-2,2.4-2.4c0.6-0.3,1.3-0.3,1.9-0.7
	c0.9-0.7,1-2.1,0.9-3.2c0-0.6-0.1-1.3-0.4-1.8s-0.8-1-1.5-1c-0.5,0-0.9,0.3-1.3,0.6c-0.7,0.5-1.4,0.9-1.9,1.6
	c-1.6,1.9-1.2,4.9-2.6,6.9"/>
<path fill="none" stroke="#4E9BD7" stroke-miterlimit="10" d="M146.3,163.1c0.5-0.1,2.1,0.2,2.6-0.2s0.8-1.2,1.2-1.7
	c1.2-1.3,3.4-1.3,4.2-2.8c0.3-0.6,0.3-1.4,0.8-2c0.4-0.5,1.1-0.7,1.7-0.8c3.4-0.7,6.3-1,9.7-0.4"/>
<path fill="none" stroke="#4E9BD7" stroke-miterlimit="10" d="M105.4,150.1c1.7-0.8,3.3-1.5,5.3-1.6c0.5,0,1.2-0.5,1.6-0.2
	c0.9,0.5,1.4,1.6,2.2,2.2c1.9,1.6,2.1,4.4,3.1,6.7c0.2,0.5,0.5,1,0.9,1.3c0.7,0.5,1.7,0.1,2.7,0.1c2.3,0,4.6-0.5,6.8-1.7
	c1-0.6,2.3-0.6,3.5-0.5c1.2,0.1,1.4,0.7,1.9,1.7c0.8,1.4,1.6,3.3,2.7,4.8"/>
<path fill="none" stroke="#4E9BD7" stroke-miterlimit="10" d="M21.8,98.8c0.3-0.3,1.1-0.7,1.5-0.5"/>
<path fill="none" stroke="#4E9BD7" stroke-miterlimit="10" d="M22.2,98.7"/>
<path fill="none" stroke="#4E9BD7" stroke-miterlimit="10" d="M33.1,105.6c-0.3,1.5,0.9,2.8,1.5,4.2c0.8,2.2,1.7,3.9,3.4,5.3
	c1,0.8,1.7,2.2,2.6,3.1c2.5,2.4,5.5,4,8.6,5.5c1.1,0.5,2.4,1,3.4,1.7c0.6,0.4,1.6,0.8,2,1.4c0.6,1,0.7,1.9,0.6,3.1
	c-0.1,1.8-0.4,3.5-0.2,5.4c0.1,0.9,0.3,1.7,0.8,2.4s1.4,1.2,2.3,0.9"/>
<path fill="#EAEAEA" stroke="#D6D6D6" stroke-miterlimit="10" d="M122.2,118.2c-0.6,0.3-1.3,0.8-1.1,1.5c0,0.2,0.1,0.4,0.3,0.6
	c0.8,1.3,1.6,2.6,2.4,3.9c0.3,0.5,0.6,1,0.9,1.5c0.3,0.6,0.7,1.6,1.4,1.4c2.1-0.7,2-4.1,2.2-6.4c0.1-1.2-0.1-2.4-1-3.2
	c-0.7-0.6-1.7-0.7-2.6-0.5C123.8,117.3,123,117.8,122.2,118.2z"/>
<path fill="#EAEAEA" stroke="#4E9BD7" stroke-miterlimit="10" d="M139.3,162.4c-0.2,0.4-0.4,0.7-0.8,0.8c-0.6,0.1-1.1-0.4-1.7-0.4
	c-0.9-0.1-1.5,0.9-1.4,1.8c0.1,0.9,0.7,1.6,1.3,2.2c0.5,0.5,1.4,1.1,2,0.6c0.2-0.2,0.3-0.4,0.4-0.7c0.5-1,1.9-1.4,2.9-0.8
	c0.4,0.2,0.7,0.5,1,0.8c1.2,0.9,2.8,1,4.1,0.3c0.4-0.2,0.9-0.6,1-1c0.3-0.7-0.3-1.2-0.8-1.8c-0.8-1.1-2.1-1.6-2.9-2.6
	c-0.7-0.9-0.8-2.4-1.9-2.8c-0.3-0.1-0.6-0.1-0.9-0.3c-0.3-0.2-0.5-0.4-0.8-0.7c-0.6-0.6-1.6-0.7-2.4-0.7c-0.6,0-1.3,0-1.8,0.3
	c-0.5,0.3-1,0.9-0.8,1.5c0.2,0.7,0.9,1,1.6,1c0.7,0,1.5-0.4,2,0C140.1,160.4,139.6,161.6,139.3,162.4z"/>
<path fill="none" stroke="#4E9BD7" stroke-miterlimit="10" d="M139.9,157.3c3.6-1.4,7.5-3,11.1-4.4c0.7-0.3,1.4-0.6,2.1-1
	c0.6-0.4,1.1-0.9,1.9-1.1c1-0.2,1.9,0.6,2.9,0.9c1.1,0.4,2.4,0.3,3.5,0.6c1.1,0.4,1.6,1.5,2.4,2.3"/>
<path fill="#7BBCEB" stroke="#4E9BD7" stroke-miterlimit="10" d="M164,186.3c0.3,1,1,1.8,1.8,2.5c1.9,1.8,3.8,3.6,5.8,5.3
	c0.9,0.8,1.9,1.6,3.1,1.9c2.2,0.6,4.7-0.6,6.6,0.7c0.6,0.4,1,1,1.5,1.6c1.3,1.6,3.1,2.7,5,3.3c4,1.2,8.6,0,11.4-3
	c0.1-0.2,0.3-0.3,0.5-0.4c0.3-0.1,0.5,0.1,0.8,0.2c1.8,1,3.4,3.1,5.2,2.1c1.3-0.8,3.4-5.1,4.8-7.6c0.4-0.7,0.8-1.4,1.3-2
	c0.8-0.9,1.8-1.4,2.7-2.2c0.9-0.8,1.5-2,1.2-3.1c-0.3-0.9-1.3-1.5-1.7-2.4c-0.2-0.5-0.3-1-0.4-1.5c-0.8-3.5-4.8-5.4-6.1-8.8
	c-0.3-0.7-0.4-1.5-0.9-2c-0.8-0.9-2.1-1.1-3.2-1.6c-1-0.5-1.9-1.9-1.1-2.6c0.4-0.4,1.1-0.4,1.6-0.5c1.4-0.4,2.2-2.1,1.7-3.5
	c-0.4-1.4-1.8-2.4-3.2-2.6c-1.4-0.2-3.2-0.2-4.2,0.9c-0.9,1.1,0.6,2.7,0.5,4.1c-0.1,1.8-2,4.3-3.7,3.6c-2.1-0.9,0-4.5,0.5-6.7
	c0.4-1.6,0.5-3.4-0.5-4.7c-1.1-1.3-3.2-1.8-3.5-3.4c-0.1-0.5,0-0.9-0.1-1.4c-0.3-0.8-1.3-1.2-2.2-1.2c-0.9,0-1.8,0.2-2.7-0.1
	c-1.3-0.4-2.2-1.8-3.5-2.2c-1-0.3-2.1,0-3-0.5c-0.5-0.3-0.8-0.7-1.3-1c-0.7-0.5-1.5-0.6-2.3-0.7c-1.4-0.2-2.8-0.4-4.1,0.1
	c-1.4,0.5-2.3,1.8-3.2,3.1c-0.9,1.4-1.7,2.8-2.5,4.3c-0.4,0.9-0.9,1.9-0.6,2.8c0.5,1.3,2.3,1.8,2.8,3c0.8,1.8-1.3,3.6-1.6,5.6
	c-0.2,1.1,0.2,2.3-0.1,3.5c-0.4,1.5-1.9,2.9-1.5,4.4c0.2,0.6,0.6,1.1,0.7,1.6c0.1,0.7-0.3,1.4-0.6,2.1c-1.1,2.2-1.8,4.7-2.1,7.1
	C163.8,184.9,163.8,185.6,164,186.3z"/>
<path fill="#EAEAEA" stroke="#4E9BD7" stroke-miterlimit="10" d="M77.9,150.6c3.5,3.7,6.1,7.9,11.9,8.4c1.3,0.1,2.7,0.2,4,0.3
	c2,0.1,4.3,0,5.6-1.4c0.6-0.7,1.1-1.6,1.9-1.9c0.5-0.1,1-0.1,1.4-0.2c0.9-0.3,1.4-1.2,1.8-2c0.6-1.2,1.2-2.6,0.9-3.9
	c-0.2-0.9-0.8-1.6-1.4-2.3c-1.9-2.2-4-4.1-6.1-6.1c-3.3-3-6.6-6.1-9.9-9.1c-1.6-1.5-3.3-3-5.2-4.1c-2-1.2-4.2-1.8-6.5-2.3
	c-3-0.6-6.1-0.9-9.2-0.8c-0.3,0-0.7,0-1,0.2c-0.5,0.4-0.5,1.2-0.8,1.7c-0.4,0.7-1.3,0.9-2,1.1c-4.3,1.3-6.8,6.5-5.1,10.6
	c1,2.4,3.1,4.2,5.1,5.9c1.3,1,2.6,2.1,3.8,3.1c0.6,0.5,1.2,1,2,1.3c0.7,0.3,1.5,0.3,2.2,0.3C73.3,149.4,76.5,149.1,77.9,150.6z"/>
<path fill="#EAEAEA" stroke="#4E9BD7" stroke-miterlimit="10" d="M29.8,94.1c0.7-0.8,1.3-1.8,2.3-2.1c1-0.2,2,0.5,2.8,1.1
	c0.3,0.3,0.6,0.5,0.8,0.9c0.1,0.3,0.1,0.7,0,1c-0.3,2-0.6,4-0.9,6.1c-0.2,1.3,0.6,2.7,0.2,3.9c-0.3,0.9-1.9,0.3-2.9-0.1
	c-1.6-0.5-3-1.4-4.4-2.2c-1-0.6-1.9-1.1-2.9-1.7c-0.6-0.4-1.3-0.8-1.6-1.5c-0.2-0.6,0-1.3,0.4-1.8c0.4-0.5,1-0.9,1.5-1.2
	C26.8,95.8,28.6,95.3,29.8,94.1z"/>
<path fill="#EAEAEA" stroke="#4E9BD7" stroke-miterlimit="10" d="M19,108.9c0-2.5,0.9-4.6,2.2-6.7c0.4-0.6,0.7-1.2,0.8-1.8
	c0.1-0.7-0.2-1.4-0.8-1.7c-0.4-0.2-0.8-0.1-1.2-0.1C13.4,98.9,6.9,99,0.3,98.2c-0.8-0.1-1.7-0.2-2.5,0.1s-1.6,0.8-1.5,1.6
	c0.1,0.8,1,1.3,1.3,2.1c0.5,1,0,2.1,0.4,3.2c0.3,1,1.2,1.6,2,2.2c5,3.4,10,6.9,15,10.3c1,0.7,2.3,1.3,3.2,0.7
	c0.3-0.2,0.6-0.6,0.7-0.9C20.1,114.7,19,111.7,19,108.9z"/>
<path fill="#EAEAEA" stroke="#D6D6D6" stroke-miterlimit="10" d="M231.1,73.4c-1-0.4-2-1-2.9-1.6c-1.7-1.1-3.4-2.2-5.1-3.3
	c-0.4-0.3-0.9-0.6-1.4-0.7c-1.4-0.4-3.1,0.3-4.5-0.1c-1.2-0.3-1.7-1.2-2.4-2.2c-1.7-2.7-4.1-5.1-6.8-6.7c-0.7-0.4-1.5-0.8-2-1.5
	c-1-1.2-1-2.9-0.6-4.4c0.4-1.5,1.1-2.9,1.4-4.4c0.4-2,0.2-4.3,1.4-6c2-3,6.8-2.5,9.2-5.2c1.2-1.4,1.8-3.5,3.6-3.8
	c0.9-0.1,1.8,0.3,2.7,0.8c1.2,0.7,2.3,1.3,3.5,2c1.7,1,3.5,1.9,5.3,2.5c1.4,0.4,2.8,0.5,4.2,0.8c2.9,0.7,6,0.9,8.5,2.2
	c1.2,0.7,2,1.9,3.1,2.7c1.4,1.1,3.1,1.7,4.9,2c2.4,0.4,5.2,0.4,6.4,2.5c0.7,1.2,0.9,3.6,0.9,5c0,3.1,0.4,5.2,0.6,8.3
	c0.2,3.1-0.5,6.5-2.9,8.4c-2.1,1.6-5,1.8-7.3,3.1c-1.1,0.6-2,1.3-3.1,1.8c-3.7,1.8-7.6,0.2-10.7-0.9C235,73.8,232.9,74,231.1,73.4z"
	/>
<path fill="#EAEAEA" stroke="#D6D6D6" stroke-miterlimit="10" d="M244.5,7.7c1.1-1.4,2.2-3.2,1.5-4.8c-0.2-0.5-0.6-1-1.1-1.2
	c-0.7-0.2-1.3,0.1-2,0.4c-1.7,0.8-3.4,1.8-4.5,3.4c-0.8,1.2-1.1,2.6-1.2,4c-0.1,1-0.3,2.2,0.2,3c0.3,0.5,1.2,0,1.6-0.4
	c0.5-0.4,0.9-0.5,1.5-0.5c0.5,0,1.3,0.2,1.6-0.2c0.5-0.7,0.5-1.8,1.1-2.4C243.8,8.6,244.1,8.3,244.5,7.7z"/>
<path fill="#EAEAEA" stroke="#D6D6D6" stroke-miterlimit="10" d="M209.8,31.1c-0.2-0.1-0.3-0.1-0.4-0.2c-1.2-0.7-2.6-0.6-3.9-0.6
	c-0.4,0-0.9,0-1.3,0.2c-0.4,0.2-0.7,0.6-0.7,1c0.1,0.6,0.7,0.9,1.2,0.9c0.6,0,1.1-0.3,1.5-0.6c0.3-0.1,0.6-0.3,0.9-0.1
	c0.2,0.1,0.3,0.3,0.4,0.4c0.7,0.9,1.8,1.4,2.9,1.3c0.5,0,1-0.1,1.5-0.1c0.3,0,0.7-0.1,0.9-0.3c0.5-0.4,0.8-1.4,0.3-1.8
	c-0.8-0.6-2,0-3,0C210.2,31.2,210,31.2,209.8,31.1z"/>
<path fill="#EAEAEA" stroke="#D6D6D6" stroke-miterlimit="10" d="M191.3,35c0.3,0.3,0.7,0.5,1,0.7c0.7,0.4,1.7,0.3,2.4,0
	c0.6-0.2,0.4-1.3-0.1-1.7c-0.4-0.5-1.1-0.6-1.8-0.6c-0.6,0-1.3-0.1-1.6,0.4C191.1,34.1,191,34.7,191.3,35z"/>
<path fill="#EAEAEA" stroke="#D6D6D6" stroke-miterlimit="10" d="M175.8,20.4c-0.4,0.2-1.1,0.6-1.2,0.2c-0.1-0.2,0-0.5-0.2-0.6
	c-0.4-0.5-1.3-0.5-1.7,0c-0.5,0.5-0.6,1.2-0.4,1.8c0.1,0.6,0.3,1.4,0.8,1.8c0.4,0.3,0.9,0.5,1.3,0.4c0.9-0.3,1.4-1.4,2.3-1.8
	c0.4-0.1,0.8-0.2,1.1-0.5c0.3-0.2,0.8-0.7,0.5-1C177.9,19.8,176.7,20,175.8,20.4z"/>
<path fill="#EAEAEA" stroke="#D6D6D6" stroke-miterlimit="10" d="M225,1.1c-0.1-0.4-0.5-0.6-1-0.7c-1.8-0.3-3.5,0.9-4.9,2
	c-0.5,0.3-0.9,0.7-1.2,1.2c-0.5,1,0.1,2.9,1.2,2.6c1-0.3,1.2-1.7,1.7-2.5c0.5-0.7,1-1.3,1.8-1.5c0.5-0.1,1,0,1.5-0.1
	S225.1,1.6,225,1.1z"/>
<path fill="#EAEAEA" stroke="#D6D6D6" stroke-miterlimit="10" d="M204.5-1.5c-0.7,0-1.7,0-1.9,0.7c-0.2,0.6,0.6,1.1,1.2,1.3
	s1.3,0,1.7-0.4c0.1-0.1,0.3-0.3,0.3-0.5C205.9-1.1,205.1-1.5,204.5-1.5z"/>
<path fill="#EAEAEA" stroke="#D6D6D6" stroke-miterlimit="10" d="M186.8-0.5c0.5,0,0.9-0.5,1.2-1c0.1-0.2,0.2-0.5,0-0.7
	c-0.1-0.2-0.4-0.3-0.7-0.4c-0.7-0.1-1.6-0.9-2.1-0.4c-0.4,0.4,0.1,1.1,0.4,1.6S186.3-0.5,186.8-0.5z"/>
<path fill="none" stroke="#D6D6D6" stroke-miterlimit="10" d="M222.6-2.8c0.9,0.7,1.2,1.9,0.7,2.9"/>
<path fill="#EAEAEA" stroke="#D6D6D6" stroke-miterlimit="10" d="M39.2,57.5c0.1,0.2,0.3,0.3,0.5,0.4c0.5,0.1,1-0.2,1.2-0.7
	c0.2-0.4,0.3-1,0.3-1.5c0-0.3,0-0.6,0.1-1c0-0.4,0-0.9-0.2-1.2c-0.2-0.4-0.9-0.7-1.1-0.4c-0.2,0.4-0.5,0.7-0.7,1.1
	c-0.1,0.2-0.1,0.4-0.1,0.5c0,0.8,0,1.6-0.1,2.5C39.2,57.4,39.2,57.5,39.2,57.5z"/>
<path fill="#FFFFFF" stroke="#4E9BD7" stroke-miterlimit="10" d="M69.2,140.5c0.1-0.9,0.1-1.8,0.5-2.6c0.7-1.3,1-2.7,1.1-4.1
	c0-0.1,0-0.3,0-0.4c-0.2-0.4-0.8-0.3-1.3,0c-0.8,0.4-1.8,0.6-2.3,1.3c-0.4,0.5-0.4,1.3-0.6,2c-0.4,1.4-1,3.2,0,4.3
	C67.3,141.6,69.1,141.5,69.2,140.5z"/>
<path fill="#FFFFFF" stroke="#4E9BD7" stroke-miterlimit="10" d="M85.5,137.7c-0.5,0.8-0.4,1.9-0.3,2.8c0.2,1.4,1.7,2.1,3.1,2.4
	c1.3,0.4,3.1,1.5,4,0.5c0.2-0.3,0.1-0.7-0.1-1c-0.5-1.2-1.8-1.8-3-2.4c-0.3-0.2-0.6-0.3-0.9-0.5c-0.5-0.3-0.8-0.8-1.2-1.3
	C86.7,137.8,85.8,137.2,85.5,137.7z"/>
<path fill="#FFFFFF" stroke="#4E9BD7" stroke-miterlimit="10" d="M208.2,177.7c-0.2-0.7-1.2-0.9-2-1c-0.4,0-0.7,0-1.1-0.1
	c-0.2,0-0.4,0-0.6,0.1c-0.1,0.1-0.1,0.1-0.2,0.2c-0.4,0.6-0.2,1.5,0.4,1.9c0.2,0.1,0.4,0.2,0.7,0.3c0.6,0.2,1.3,0.3,1.9,0.1
	C207.9,179,208.4,178.3,208.2,177.7z"/>
<path fill="none" stroke="#585858" stroke-miterlimit="10" stroke-dasharray="4,1" d="M-3,91.5c4.4,0.1,8.9-0.8,13-2.5
	c2.2-1,4.5-2.2,7-2.1c1.3,0.1,2.5,0.5,3.8,0.7c3,0.5,6.1-0.6,9.1-0.1c3.8,0.6,7.1,3.6,8.3,7.2c1.2,3.7,2.3,6.9,0.5,10.3
	c-0.4,0.8-2.6,0.6-2.8,1.5c-0.5,3.9,3,9.6,6.6,11.1c2.2,0.9,6.5-0.1,8.4,1.3c1.9,1.4,1.5,2.7,3.5,4s4.9,1.7,6.5,0
	c0.6-0.7,1-1.6,1.8-2.1c0.6-0.3,1.2-0.4,1.9-0.5c3.7-0.3,7.9,1,11-0.9c1.3-0.8,0.6-3,0.7-4.6c0.1-1.6,0.7-3.4,2.3-3.7
	c0.9-0.2,1.9,0.2,2.5-0.5c0.4-0.4,0.4-1,0.8-1.3c0.9-0.6,1.7,0.7,2.3,1.5c1.7,2,5.1,1,7.5,2.3c1.4,0.7,2.3,2.1,3.6,2.9
	c1.1,0.6,2.5,0.4,3.7,0.7c6.4,1.5,10.4,0.1,13.3,2.8c1.4,1.3-0.9,2.4,0.4,3.2c1.2,0.9,1.3,2.3,2.4,3.3c1.2,1.1,2.3,1.3,3.8,1.8
	c0.8,0.3,1.9,1.2,2.5,1.8c0.9,0.9,0.9,2.3,1.4,3.5c1.3,3.4,6.1,5.5,5.6,9.1c-0.1,1-0.1,2.1-0.5,3.1s-0.4,1.9,0.4,2.5
	c0.5,0.4,2.1,0.7,2.8,0.8c1.9,0,3.7-0.6,5,0.8c1.2,1.2,0.4,2.8,2,3.5c0.7,0.3,1.4,0,2.1,0.1c2.3,0.4,4.7-1,6.1,0.9
	c1,1.3,2,3.2,3.5,3.7c1.5,0.5,3.2,0.5,4.8,0.8c2,0.5,3.8,1.7,5.9,2c2,0.4,4.6-0.6,4.9-2.6"/>
<g>
	<g>
		<path fill="none" stroke="#585858" stroke-miterlimit="10" d="M226.4,363.6c1.3-1.7,4.2-2.4,8.3-2.8"/>
		<path fill="none" stroke="#585858" stroke-miterlimit="10" stroke-dasharray="1.0042,3.0125" d="M237.8,360.5
			c0.8-0.1,1.6-0.1,2.5-0.2"/>
		<path fill="none" stroke="#585858" stroke-miterlimit="10" stroke-dasharray="18.075,3.0125,1.0042,3.0125" d="M241.8,360.3
			c5-0.3,10.7-0.5,16.7-1.3c7-1,16.1-7.4,21.2-12.5c1-1-1.5-7.2-1.5-9.2c0-16-2.7-28.3-2.7-44.3c0-2.8,1.9-5.2,1-7.5
			c-2.9-7.6-12.9-12.5-18-19.5c-5.2-7.3-8.1-18.3-5-27c2.5-7.2,10.4-9.8,13-16c4.8-11.7,7-13.4,12-26c0.6-1.6-0.1-3-0.1-4.7
			c0.1-2.7,0.2-5.5,0.7-8.2c0.6-3.1,1.8-6,3.1-8.8c1.8-3.8,3.9-8,2.4-11.9c-0.2-0.7-0.6-1.3-0.6-2c0-1,0.8-1.9,1.5-2.6
			c1.9-2,3.7-4,5.6-6c3.7-4,7.5-8,11.9-11.2c1.1-0.8,2.2-1.5,3.1-2.4c1-1,1.7-2.1,2.5-3.3c3.8-6.3,6.9-13.4,13-17.5
			c0.8-0.5,1.7-1.1,2.1-1.9c0.4-0.8,0.5-1.7,0.5-2.6c0.1-7.1-0.2-14.3-1-21.4c-0.6-5.8,1.5-11.2,1.2-17c-0.1-1-0.1-1.9-0.5-2.8
			c-0.5-1.2-1.4-2.1-2.2-3c-2.6-2.9-4.3-6.6-5.1-10.4c-1-4.9-0.6-10.7-4.5-13.8c-1.4-1.1-3.2-1.7-4.8-2.5c-4.1-2.1-7.2-6-8.2-10.5
			c-0.3-1.4-0.4-2.8-0.7-4.1c-0.3-2-0.9-4-1.4-6.1c-0.9-4-1.5-8.1-2-12.2c-0.1-1.2-0.3-2.4-0.4-3.5"/>
		<path fill="none" stroke="#585858" stroke-miterlimit="10" d="M294.3,4.9c-0.3-2.3-0.6-4.5-0.9-6.8c-0.1-0.7-0.2-1.4-0.3-2.2"/>
	</g>
</g>
<text transform="matrix(1 0 0 1 316.506 249.218)"><tspan x="0" y="0" fill="#585858" font-family="'Verdana-Italic'" font-size="8">Gale</tspan><tspan x="0" y="9.6" fill="#585858" font-family="'Verdana-Italic'" font-size="8">Lake</tspan></text>
<text transform="matrix(1 0 0 1 283.4354 343.3121)"><tspan x="0" y="0" fill="#585858" font-family="'Verdana-Italic'" font-size="8">Sing</tspan><tspan x="0" y="9.6" fill="#585858" font-family="'Verdana-Italic'" font-size="8">Peak</tspan></text>
<text transform="matrix(1 0 0 1 248.9969 242.7978)" fill="#585858" font-family="'Verdana-Italic'" font-size="8">× 10448</text>
<path fill="none" d="M94.5,233.4c3.7,11.6,7.5,23.2,11.2,34.7"/>
<text transform="matrix(0.3081 0.9513 -0.9513 0.3081 96.63 248.248)"><tspan x="0" y="0" fill="#7D7D7D" font-family="'Verdana-Italic'" font-size="7">9</tspan><tspan x="4.4" y="0" fill="#7D7D7D" font-family="'Verdana-Italic'" font-size="7">4</tspan><tspan x="8.9" y="0" fill="#7D7D7D" font-family="'Verdana-Italic'" font-size="7">0</tspan><tspan x="13.3" y="0" fill="#7D7D7D" font-family="'Verdana-Italic'" font-size="7">0</tspan></text>
<text transform="matrix(1 0 0 1 219.1443 53.0074)"><tspan x="0" y="0" fill="#585858" font-family="'Verdana-Italic'" font-size="8">Breeze</tspan><tspan x="4.3" y="9.6" fill="#585858" font-family="'Verdana-Italic'" font-size="8">Lake</tspan></text>
<text transform="matrix(1 0 0 1 42.5054 97.9351)"><tspan x="0" y="0" fill="#585858" font-family="'Verdana-Italic'" font-size="8">Chain Lakes</tspan><tspan x="0" y="9.6" fill="#585858" font-family="'Verdana-Italic'" font-size="8">(lower)</tspan></text>
<text transform="matrix(1 0 0 1 111.3843 177.6107)"><tspan x="0" y="0" fill="#7BBCEB" font-family="'Verdana-Italic'" font-size="8">Chain Lakes</tspan><tspan x="17.1" y="9.6" fill="#7BBCEB" font-family="'Verdana-Italic'" font-size="8">(Upper)</tspan></text>
<text transform="matrix(1 0 0 1 28.8779 159.7709)"><tspan x="0" y="0" fill="#585858" font-family="'Verdana-Italic'" font-size="8">Chain Lakes</tspan><tspan x="15.3" y="9.6" fill="#585858" font-family="'Verdana-Italic'" font-size="8">(Middle)</tspan></text>
<text transform="matrix(1 0 0 1 261.3082 157.1738)"><tspan x="0" y="0" fill="#585858" font-family="'Verdana-Italic'" font-size="8">Gale</tspan><tspan x="-1.1" y="9.6" fill="#585858" font-family="'Verdana-Italic'" font-size="8">Peak</tspan></text>
<text transform="matrix(1 0 0 1 133.6653 217.8032)" fill="#585858" font-family="'Verdana-Italic'" font-size="8">× 9866</text>
<path fill="none" d="M82.1,61.8c2.3,0.7,3.9,2.7,5.7,4.2c2.3,1.9,5.2,3.2,8.2,3.6c4,0.5,8.1-0.6,11.8-2.2"/>
<text transform="matrix(0.7611 0.6486 -0.6486 0.7611 84.3859 66.438)"><tspan x="0" y="0" fill="#7D7D7D" font-family="'Verdana-Italic'" font-size="7">9</tspan><tspan x="5.2" y="-0.1" fill="#7D7D7D" font-family="'Verdana-Italic'" font-size="7" rotate="-16.3">2</tspan><tspan x="10.1" y="-1.7" fill="#7D7D7D" font-family="'Verdana-Italic'" font-size="7" rotate="-32.4">0</tspan><tspan x="14.4" y="-4.5" fill="#7D7D7D" font-family="'Verdana-Italic'" font-size="7" rotate="-47.1">0</tspan></text>
<path fill="none" d="M158,122.8c2.2,3.2,4,7.3,7.7,8.3c2.5,0.6,5.1-0.4,7.6-0.8c3.3-0.6,6.7-0.2,10,0.2c4.4,0.5,9.8-1.4,13.1,1.6"/>
<text transform="matrix(0.9953 -9.715089e-02 9.715089e-02 0.9953 166.362 133.956)"><tspan x="0" y="0" fill="#7D7D7D" font-family="'Verdana-Italic'" font-size="7">9</tspan><tspan x="4.7" y="-0.2" fill="#7D7D7D" font-family="'Verdana-Italic'" font-size="7" rotate="-6">4</tspan><tspan x="8.6" y="-0.7" fill="#7D7D7D" font-family="'Verdana-Italic'" font-size="7" rotate="6.1">0</tspan><tspan x="12.8" y="-0.2" fill="#7D7D7D" font-family="'Verdana-Italic'" font-size="7" rotate="11.9">0</tspan></text>
<path fill="none" d="M142.9,6.3c3.9,2,8.4,1.9,12.7,2.7c1.1,0.2,2.3,0.5,3.2,1.3c0.9,0.8,1.3,1.9,2.3,2.6c0.6,0.5,1.4,0.6,2.2,0.8
	c5,1.1,10,2.2,15,3.2"/>
<text transform="matrix(0.9637 0.2671 -0.2671 0.9637 159.6169 15.4023)"><tspan x="0" y="0" fill="#7D7D7D" font-family="'Verdana-Italic'" font-size="7">9</tspan><tspan x="4.6" y="-0.1" fill="#7D7D7D" font-family="'Verdana-Italic'" font-size="7" rotate="-3.3">6</tspan><tspan x="9" y="-0.4" fill="#7D7D7D" font-family="'Verdana-Italic'" font-size="7" rotate="-3.3">0</tspan><tspan x="13.5" y="-0.6" fill="#7D7D7D" font-family="'Verdana-Italic'" font-size="7" rotate="-3.3">0</tspan></text>
<path fill="none" d="M206.9,273c1,1.7,1.2,1.3,2.8,2.6c3.9,3.1,9.5,4,13.4,7.1c1.3,1.1,2.4,4,4,4.5c1.1,0.3,0.8,0.8,1.7,1.4
	c0.6,0.5,4.7,1.5,5.3,2.1"/>
<text transform="matrix(0.8594 0.5112 -0.5112 0.8594 208.2858 277.8047)"><tspan x="0" y="0" fill="#7D7D7D" font-family="'Verdana-Italic'" font-size="7">1</tspan><tspan x="4.8" y="-0.1" fill="#7D7D7D" font-family="'Verdana-Italic'" font-size="7" rotate="-7.7">0</tspan><tspan x="9.1" y="-0.7" fill="#7D7D7D" font-family="'Verdana-Italic'" font-size="7" rotate="-4.8">0</tspan><tspan x="12.8" y="-1.4" fill="#7D7D7D" font-family="'Verdana-Italic'" font-size="7" rotate="13.8">0</tspan><tspan x="16.8" y="0.2" fill="#7D7D7D" font-family="'Verdana-Italic'" font-size="7" rotate="15">0</tspan></text>
<path fill="none" d="M85.8,290c1.8,7.9,6.2,15.1,12.3,20.4"/>
<text transform="matrix(0.348 0.9375 -0.9375 0.348 84.0885 293.5049)"><tspan x="0" y="0" fill="#7D7D7D" font-family="'Verdana-Italic'" font-size="7">9</tspan><tspan x="4.8" y="0" fill="#7D7D7D" font-family="'Verdana-Italic'" font-size="7" rotate="-6.6">2</tspan><tspan x="9.5" y="-0.6" fill="#7D7D7D" font-family="'Verdana-Italic'" font-size="7" rotate="-13.2">0</tspan><tspan x="14.1" y="-1.7" fill="#7D7D7D" font-family="'Verdana-Italic'" font-size="7" rotate="-19.7">0</tspan></text>
<path fill="none" d="M335.7,302.3c1.3,0.8,2.4,1.9,3.5,3c6,6,12,12.5,20.1,15.1"/>
<text transform="matrix(0.706 0.7083 -0.7083 0.706 338.0963 307.8271)"><tspan x="0" y="0" fill="#7D7D7D" font-family="'Verdana-Italic'" font-size="7">9</tspan><tspan x="4.5" y="0" fill="#7D7D7D" font-family="'Verdana-Italic'" font-size="7" rotate="-1.5">6</tspan><tspan x="9.1" y="-0.1" fill="#7D7D7D" font-family="'Verdana-Italic'" font-size="7" rotate="-4.8">0</tspan><tspan x="13.8" y="-0.5" fill="#7D7D7D" font-family="'Verdana-Italic'" font-size="7" rotate="-10.3">0</tspan></text>
<path fill="none" d="M331.1,32.5c6.3,7.6,9.1,15.5,9.9,25.3c0.4,4.5,1.8,11.8,2.3,16.3"/>
<text transform="matrix(0.3803 0.9249 -0.9249 0.3803 334.4547 42.1958)"><tspan x="0" y="0" fill="#7D7D7D" font-family="'Verdana-Italic'" font-size="7">1</tspan><tspan x="4.2" y="0" fill="#7D7D7D" font-family="'Verdana-Italic'" font-size="7" rotate="6.2">0</tspan><tspan x="8.4" y="0.4" fill="#7D7D7D" font-family="'Verdana-Italic'" font-size="7" rotate="11.7">0</tspan><tspan x="12.5" y="1.3" fill="#7D7D7D" font-family="'Verdana-Italic'" font-size="7" rotate="16.3">0</tspan><tspan x="16.8" y="2.6" fill="#7D7D7D" font-family="'Verdana-Italic'" font-size="7" rotate="14.8">0</tspan></text>
<g>
	<g>
		<polyline fill="none" stroke="#7D7D7D" stroke-miterlimit="10" points="85.2,341.6 85.2,348.7 275.4,348.7 275.4,341.7 		"/>
		<line fill="none" stroke="#7D7D7D" stroke-miterlimit="10" x1="180.5" y1="341.4" x2="180.5" y2="348.7"/>
		<line fill="none" stroke="#7D7D7D" stroke-miterlimit="10" x1="161.2" y1="349.2" x2="161.2" y2="343.7"/>
		<line fill="none" stroke="#7D7D7D" stroke-miterlimit="10" x1="142.4" y1="349.2" x2="142.4" y2="343.7"/>
		<line fill="none" stroke="#7D7D7D" stroke-miterlimit="10" x1="123.3" y1="349.2" x2="123.3" y2="343.5"/>
		<line fill="none" stroke="#7D7D7D" stroke-miterlimit="10" x1="104.6" y1="349.2" x2="104.6" y2="343.7"/>
	</g>
	<text transform="matrix(1 0 0 1 83.7835 339.1467)" fill="#7D7D7D" font-family="'Verdana'" font-size="8">0</text>
	<text transform="matrix(1 0 0 1 174.2946 339.1467)" fill="#7D7D7D" font-family="'Verdana'" font-size="8">0.5</text>
	<text transform="matrix(1 0 0 1 258.3415 339.1467)" fill="#7D7D7D" font-family="'Verdana'" font-size="8">1 mi</text>
</g>
</svg>
