<?xml version="1.0" encoding="utf-8"?>
<!-- Generator: Adobe Illustrator 17.1.0, SVG Export Plug-In . SVG Version: 6.00 Build 0)  -->
<!DOCTYPE svg PUBLIC "-//W3C//DTD SVG 1.1//EN" "http://www.w3.org/Graphics/SVG/1.1/DTD/svg11.dtd">
<svg version="1.1" id="Layer_1" xmlns="http://www.w3.org/2000/svg" xmlns:xlink="http://www.w3.org/1999/xlink" x="0px" y="0px"
	 viewBox="0 0 360 360" enable-background="new 0 0 360 360" xml:space="preserve">
<path fill="none" stroke="#E1E1E1" stroke-miterlimit="10" d="M190.6-2.5c0.5,0.3,1,0.7,1.5,1.1c2.8,2.3,4.9,5.3,6.1,8.7
	c0.5,1.3,0.9,2.8,2,3.6c0.5,0.4,1.2,0.5,1.7,0.9c1.7,1,2.2,3.2,3.2,4.9c3.2,4.8,11,4.1,15,8.2c0.7,0.7,1.3,1.6,2,2.4
	c1.5,1.7,3.4,2.8,5.1,4.3c4.1,3.4,6.9,8.4,11.7,10.8c3.9,2,8.4,1.9,12.7,2.7c1.1,0.2,2.3,0.5,3.2,1.3c0.9,0.8,1.3,1.9,2.3,2.6
	c0.6,0.5,1.4,0.6,2.2,0.8c5,1.1,10,2.2,15,3.2c1,0.2,2.1,0.5,3.2,0.4c0.5,0,1.1-0.2,1.6-0.2c2.1-0.2,3.9,1.4,6,1.7
	c3.8,0.6,7.8,1.5,11.6,0.9c2.2-0.3,4.6-1.7,6.6-0.7c0.8,0.3,1.4,1,2.2,1.3c1.8,0.8,3.9,0,5.9,0.5c1.7,0.4,3.1,1.8,4.9,2.1
	c2.3,0.3,4.4-1.4,6.4-2.7c2-1.2,5.1-1.8,6.4,0.1c0.5,0.7,0.6,1.6,1.3,2c0.5,0.3,1,0.3,1.6,0.2c1.9-0.1,3.9-0.2,5.8-0.2
	c1.1,0,2.1-0.1,3.1-0.5c1.8-0.7,3-2.4,4.4-3.6c1.4-1.3,3.3-0.9,5.2-0.9c2.7-0.1,4.1-4,4.3-6.8c0-1.1-0.3-2.3-0.6-3.4
	c-0.8-3-1.1-6.2-1.5-9.3c-0.6-4.6,2.7-10.6-0.5-14c-1.7-1.8-5-0.4-7-1.7c-3.2-2-5.1-5.5-7.6-8.3c-1.1-1.2-2.2-2.3-3.1-3.6
	c-0.8-1.2-1.4-2.7-2-4.1c-0.6-1.5-1-3.1-1.3-4.7"/>
<path fill="none" stroke="#E1E1E1" stroke-miterlimit="10" d="M182.3-2c0.5-0.9,1-1.6,1.9-1.9c2.2-0.6,4.4,0.2,6.4,1.4"/>
<path fill="none" stroke="#E1E1E1" stroke-miterlimit="10" d="M303.5,362.3c-1.4-1.6-3.5-2.7-5.6-3.4c-3.3-1.1-6.8-1.5-9.8-3.1
	c-2.3-1.2-4.3-3.2-6.9-3.9s-3.5,2.3-5.9,3.4c-7.8,3.6-7.4-15.3-7-23.8c0.3-6.7,1.3-13.5,0.8-20.2c-0.2-2.9,2-7.8-0.5-9.2
	c-3.5-1.9-8.5,4.4-11.5,1.8c-2.1-1.8-1.5-6.4-4.2-7c-3.4-0.9-6.3-2.4-8.1-5.4c-1.2-1.9-2.3-3.8-3.5-5.7c-1.3-2.1-2.6-4.4-2.2-6.8
	c0.3-1.9,1.7-3.4,2.6-5.1c1-1.7,2.3-4.8,0.4-5.4c-3.5-1.1-5.9,4.1-8.5,6.8s-6.8,7.1-9.5,4.7c-1.5-1.4,0.4-5-1.3-6.2
	c-2.8-2-6.7-2.8-6.3-6.1c0.2-1.8,1-4.1-0.5-5.1c-0.9-0.6-2.1-0.2-3.1-0.3c-2.7-0.2-4.2-3.1-5.2-5.7c-1.7-4.3-3.3-9.4-0.8-13.2
	c0.9-1.5,2.3-2.6,3.7-3.6c3.1-2.4,6.2-4.7,9.3-7.1c0.7-0.5,1.5-1.1,2.4-1.3c2-0.3,3.6,1.4,5.3,2.5c1.8,1.1,4.1,1.5,6.2,1
	c1.7-0.4,3.2-1.3,4.9-1.7c3-0.7,6.2,0.5,8.6,2.4s4,4.7,5.3,7.5c0.8,1.8,1.6,3.6,2.7,5.1c1.2,1.6,2.8,2.9,4.4,4.1
	c6.6,5.1,17.2,17.2,22,10.4c1-1.4,0.5-3.6,1.9-4.5s3.3-1.2,5.1-1.3c3.5-0.3,7-0.5,10.6-0.5c0.9,0,1.8,0,2.5-0.6
	c0.4-0.3,0.7-0.9,1.1-1.2c1.8-1.7,4.8,0,7.1-0.9c2.4-1,2.7-4.3,4.6-6.1c0.7-0.6,1.5-1.1,2.3-1.5c1.6-0.9,3-2.1,4.3-3.3
	c5.7-5.2,9.1-6.8,11.8-14c2.3-6.2-4.5-13.1-4.5-19.7c0-1.8,0.4-3.9-0.7-5.3c-0.4-0.5-1.1-0.9-1.6-1.4c-0.7-0.7-1.2-1.6-1.6-2.4
	c-2.5-4.9-5.1-9.9-6-15.4c-0.5-3.1-0.5-6.3-1.2-9.4s-2.4-6.2-5.2-7.5c-1.6-0.8-3.5-1-4.7-2.2c-1.3-1.3-1.5-3.5-2.6-5
	c-1.7-2.3-5.1-2.5-7.9-3.3c-4.3-1.2-7.9-4.1-11.3-7c-4-3.5-8-7.1-12.9-9.3c-2.1-0.9-4.3-1.5-6.6-1.8c-1.5-0.2-3.2-0.3-4.1-1.6
	c-0.5-0.7-0.5-1.6-0.6-2.4c-0.1-1.6,0.7-3.6-0.3-4.8c-1.4-1.9-4.6-2.3-6-4.1c-1.5-1.9-2.3-4.8-0.8-6.7c0.6-0.7,1.4-1.2,2.1-1.8
	c2.6-2.2,5.3-7.3,2.5-9.2c-1.9-1.3-4.5,3.3-6.6,2.3c-3.3-1.6-1.4-7.2-2.1-10.8c-0.4-2.2-0.9-4.5-1.9-6.5c-0.7-1.5-1.7-2.8-2.7-4.1
	c-4.4-5.9-8.8-11.7-13.2-17.6c-0.4-0.5-0.8-1.1-1-1.7c-0.2-0.6-0.2-1.2-0.3-1.9c-0.1-2-0.6-4.1-1.3-6c-0.1-0.3-0.2-0.5-0.4-0.7
	c-0.4-0.3-1-0.2-1.5-0.1c-2,0.5-3.9,1.1-5.9,1.6c-2.4,0.7-5.6,1.1-7-1c-1.6-2.4,1.9-7.3-0.7-8.4c-1.7-0.7-3.2,2.6-13.1,2.7
	c-3.9,0-8.5-1.8-10.3-5.2c-10.3-19-3.3-19.4-5.4-23.2c-2.3-4.2-8.2,6.2-12.7,4.7c-2.6-0.9-3.1-4.4-3-7.1c0.4-7,2.3-13.8,4.2-20.5
	c0.4-1.3,0.8-2.8,1.8-3.7s2.4,0.2,3.7-0.2c1.3-0.4,1.8-1.7,2.4-2.9"/>
<path fill="none" stroke="#E1E1E1" stroke-miterlimit="10" d="M360,6.6c-3.1-3.5-8-5.5-12.4-7.4c-0.3-0.1-0.6-0.3-0.9-0.4"/>
<path fill="none" stroke="#E1E1E1" stroke-miterlimit="10" d="M361.1,8.1c-0.3-0.5-0.7-1-1.1-1.4"/>
<path fill="none" stroke="#E1E1E1" stroke-miterlimit="10" d="M361,16.1c0.7-0.9,1.5-1.7,1.8-2.8c0.3-1,0-2.1-0.4-3
	c-0.3-0.8-0.7-1.5-1.2-2.2"/>
<path fill="none" stroke="#E1E1E1" stroke-miterlimit="10" d="M360.9,37.1c-0.8-2.1-1.2-4.5-1.6-6.8c-0.7-4.9-1.3-10.4,1.6-14.3"/>
<path fill="none" stroke="#E1E1E1" stroke-miterlimit="10" d="M330.4,362.3c0.1-2.6,0-5.3-0.1-7.9c-0.1-2.5-0.3-5.2-2-7.1
	c-3.8-4.2-11-0.6-16.3-2.8c-2-0.8-3.6-2.5-5.3-4c-5.7-5.1-15.3-3.2-20.9-8.5c-6.4-6-2-17.5-3.1-26.3c-0.2-1.4-0.4-2.9-1.3-4
	c-0.5-0.6-1.1-1.1-1.5-1.7c-0.5-0.9-0.4-2-0.5-3.1c-0.3-4.1-3.3-7.4-5.8-10.6c-2.5-3.2-7.4-9.8-3.5-11.2c9.8-3.6,19.9,14.4,29.4,10
	c4-1.8,2.1-8.4,2.3-12.8c0.3-4.4,2-9.4,6.2-10.7c3.6-1.1,7.9,1.2,11.2-0.8c1.5-0.9,2.4-2.6,3.3-4.1c5.2-8.7,13.9-14.8,22.7-19.9
	c1.2-0.7,1.8-1.9,2.9-2.7c2.7-1.8,2-2.6,0.3-7.8c-0.6-2-3-4-4.7-5.2c-3.1-2.1-5.2-5.5-5.5-9.2c-0.2-1.6,0-3.2-0.1-4.8
	c-0.1-2.9-0.9-5.6-1.7-8.4c-0.2-0.5-0.3-1.1-0.6-1.6c-0.4-0.6-0.9-1-1.4-1.4c-3.5-2.9-6.6-6.4-9-10.3c-0.9-1.4-1.7-2.9-1.9-4.5
	c-0.2-1.6,0.1-3.2,0.3-4.8c0.9-5.9,0.8-12-0.2-17.9c-0.4-2.2-1-4.7-2.9-6c-1.6-1.1-2.8-2.2-3.9-3.8c-2.4-3.3-4.8-5.8-8.2-7.9
	c-1.2-0.7-2.7,0.8-4.2,0.7c-1.4-0.1-2.9-0.9-3.4-2.2c-0.8-2.1,1.8-5.8-0.3-6.7c-3-1.3-7,3.4-9.6,1.5c-2-1.5-0.2-4.9,0.4-7.3
	c0.3-1.1,0.5-2.7-0.6-3.2c-0.4-0.2-0.8-0.1-1.2-0.1c-1.8,0.2-3.9,1.6-5.3,0.5c-1.2-1,0.1-3.1,0.7-4.5c2.4-5.4-0.2-12.5-1-18.4
	c-0.1-0.7-0.2-1.4-0.7-1.9c-1.2-1.2-4.1-0.2-4.6-1.8c-0.6-1.8-0.2-4.2,1.5-5.2c4.9-3,10.6,3.2,14.6,7.4c11,11.3,24.8,19.9,39.7,24.9
	c2.7,0.9,5.5,1.7,8.3,2.3c3,0.6,6.3,1,8.7,3c0.8,0.7,1.5,1.5,2.5,1.9c0.7,0.3,1.6,0.3,2.4,0.4c1.8,0,3.7,0.1,5.5,0.1"/>
<path fill="none" stroke="#E1E1E1" stroke-miterlimit="10" d="M351.9,362.5c0.3-0.5,0.6-1,0.9-1.5c4.6-7.9,6-17.5,3.8-26.3
	c-0.2-1-0.5-2-1.3-2.6c-1-0.8-2.5-0.9-3.1-2c-0.4-0.9,0-1.9-0.1-2.8c-0.1-2.3-2.7-3.5-5-3.8c-2.3-0.3-4.7,0-6.6-1.3
	c-2-1.3-3.9-4.3-6-3.1c-1.8,1,0.8,4,0.3,5.9c-0.7,2.6-2.7,3.7-4.7,1.8c-0.6-0.5-4.7-1.6-5.3-2.1c-0.9-0.7-0.6-1.1-1.7-1.4
	c-1.6-0.5-2.7-3.4-4-4.5c-3.9-3.1-9.5-4-13.4-7.1c-1.6-1.3-1.8-0.8-2.8-2.6c-2.3-4.1,0.7-11.8,2.8-13.3c0.9-0.6,2.2-0.6,3.1-1.2
	c2.1-1.5,2-4.6,2.6-7.2c0.9-4.6,4.5-8.3,8.4-10.9s8.3-4.4,12.3-7c5.2-3.4,9.4-8,13.6-12.5c3.2-3.5,6.4-7,9.6-10.4
	c2.1-2.3,4.3-4.7,5.7-7.6c2.1-4.5,2-9.9-0.4-14.2c-2-3.8-5.5-7.6-8.3-10.9c-3-3.6-6-7.4-6.9-12c-0.6-3.1-0.2-6.3-0.5-9.4
	c-0.4-3.1-1.8-6.5-4.8-7.6c-0.7-0.3-1.5-0.4-2.2-0.9c-1.7-1.2-1.3-3.8-0.8-5.8c0.9-3.2,1.9-6.5,1.7-9.8c-0.2-4.3-2.4-8.3-2.4-12.6
	c0-3.2,4.7-5.7,3.6-8.8c-0.7-1.9-4.5,0.5-6-0.8c-2.2-1.8-3.6-5.4-2.8-8.2c0.7-2.2,4.3-1.5,6.6-1c0.7,0.1,1.3,0.3,1.9,0.7
	c0.8,0.6,1.2,1.5,1.6,2.3c3.7,6.9,11,10.8,18,14.4c0.7,0.4,1.5,0.8,2.3,1.1"/>
<path fill="none" stroke="#E1E1E1" stroke-miterlimit="10" d="M361.8,209.7c-4.1-5.1-8.6-10-8.8-16.1c-0.2-5.5,2.4-10.9,1.5-16.3
	c-0.4-2.7-1.8-5.2-2.5-7.9c-0.7-2.7-1.8-7.9,1-7.9c1.4,0,5,3.1,8.9,5.8"/>
<path fill="none" stroke="#E1E1E1" stroke-miterlimit="10" d="M361.6,274.7c-3.1,5.8-4.7,12.3-4.5,18.9c0,1.7,0.2,3.5,0.7,5.2
	c0.7,2.6,2.2,5.2,1.9,7.9c-0.1,0.8-0.4,1.7-1.1,2.1c-0.6,0.3-1.4,0.2-2.1,0.1c-4.9-1-9.5-3.1-14-5.3c-2.4-1.1-4.8-2.3-7.2-3.4
	c-4.1-1.9-8.1-3.8-12.2-5.8c-0.4-0.2-0.8-0.4-1.1-0.7c-0.4-0.4-0.5-0.9-0.6-1.4c-1.1-5,2.2-10.5,7.1-12c1.1-0.3,2.2-0.5,3.2-1.1
	c0.6-0.5,1.1-1.1,1.8-1.5c0.6-0.4,1.3-0.5,2-0.7c2.1-0.7,3.9-2.1,5.7-3.5c4.6-3.6,9.4-7.5,11.7-12.8c0.7-1.6,1.2-3.3,2.3-4.6
	c0.4-0.4,0.9-0.8,1.2-1.3c0.5-0.6,0.9-1.4,1.3-2.1c1.1-2.1,2.3-4.2,3.6-6.2"/>
<path fill="none" stroke="#E1E1E1" stroke-miterlimit="10" d="M346.3,284.5c0.6,0,1.2,0,1.7-0.3c0.4-0.3,0.7-0.7,1-1.2
	c1.6-2.8,4.8-6,3.4-8.8c-1-2.2-5-1-6.8,0.6c-0.8,0.7-1.4,1.6-1.9,2.5c-0.6,1-1.3,2.1-1.5,3.3c-0.2,1.2,0.1,2.6,1.1,3.3
	C344.1,284.5,345.2,284.5,346.3,284.5z"/>
<path fill="none" stroke="#E1E1E1" stroke-miterlimit="10" d="M206.9-2.7c0.8,1.2,1.6,2.4,2.5,3.6c2,3,4.1,6,7,8.1
	c1.6,1.2,3.5,0.7,5.4,0.9c6.3,0.4,9.3,8.5,14.2,12.6c1.1,0.9,2.3,1.9,3.7,2.4c1.4,0.5,2.8,0.5,4.2,1c3,1.1,3.6,5.4,6.4,6.9
	c0.8,0.4,1.9-0.6,2.6-0.2c2.2,1.3,3.6,3.6,6.1,3.8c2.5,0.3,5-0.4,7.5-1c0.6-0.1,1.2-0.3,1.7-0.6c0.5-0.3,0.8-0.8,1.3-1.2
	c1.4-1.1,4.5,1.6,5.3-0.1c1.1-2.3-1.4-2.9,3.7-7.4c4-3.5,6.6-10.1,8.8-15.1c1.6-3.7,1.4-8,1.1-12c0-0.5-0.1-1-0.1-1.6"/>
<path fill="none" stroke="#E1E1E1" stroke-miterlimit="10" d="M251.6,362.9c0.4-0.7,0.7-1.4,1.1-1.9c2.2-3.9,5-7.7,5.7-12.1
	c0.7-4.3-0.6-8.7-1.9-12.9c-0.9-2.8,0-5.6-1-8.4c-0.6-1.8-2.2-2.8-4.1-3.2c-3.7-0.9-1.7-7.3-4.5-9.9c-1.9-1.8-5-1.1-6.9-3
	c-2.6-2.7-5-5.7-7.2-8.8c-0.6-0.9-1.3-1.9-2.4-1.9c-1.1,0-2,1-2.7,1.9c-3.6,4.4-8.7,7.6-14.2,9c-1,0.2-2,0.4-2.9,1
	c-1.7,1.1-2.3,3.2-3.1,5c-0.9,1.8-3.1,4.2-4.7,2.9c-2-1.8-1.6-5.2-1.1-7.8c0.3-1.6,1-3.2,1-4.8c0-1.2-0.4-2.4-0.8-3.6
	c-3.7-11.6-7.5-23.2-11.2-34.7c-0.5-1.6-1.1-3.3-2.2-4.6c-1.1-1.3-3-2.1-4.6-1.5c-0.8,0.3-1.4,0.9-2.1,1.3
	c-3.8,2.2-8.4-0.6-11.9-3.3c-0.7-0.6-1.5-1.1-2-1.9c-0.7-0.9-0.9-2.1-1.2-3.2c-1.5-6.5-2.8-13-4.1-19.6c-1.1-5.8-1.8-10.2,5-14.5
	c2.3-1.4-0.6-5.9,1-8.1c0.8-1.2,2.6-1.4,4.1-1c0.8,0.2,1.5,0.5,2.2,0.9c0.6,0.4,1.2,0.8,1.9,1.2c1.3,0.7,2.8,1.1,4.2,1.4
	c3.4,0.8,6.7,1.6,10.1,2.5c3.5,0.9,7.1,1.7,10.7,2.3c5.4,0.9,11,1,16.4,0.6c1.4-0.1,2.9-0.3,4.3,0.1c2.4,0.6,5,2.8,7.1,1.4
	c1.2-0.8,1.6-2.3,2.5-3.4c1.4-1.5,3.6-1.8,5.7-1.6c4.6,0.4,8.8,2.6,12.2,5.6c1.6,1.4,5,4,6.7,5.4c15.5,13.5,15,8.3,16.8,9.8
	c4.1,3.3,7.1,6.7,12.2,5.4c0.7-0.2,1.5-0.4,2.2-0.2c0.4,0.1,0.8,0.5,1.1,0.7c1.3,0.8,3.1,0.6,4.6,0.3c4.1-0.7,8.3-1.4,11.4-4.1
	c1-0.9,1.9-2,2.7-3.1c3.5-4.5,6.4-8.2,11.4-11.5c1-0.6,1.2-4.6,1.5-5.8c0.7-3-0.2-7.1-2.3-9.3s-5-3.9-6.4-6.7
	c-0.8-1.6-1.1-3.5-1.3-5.3c-0.4-3.4-0.7-6.8-2.2-9.9c-0.6-1.2-1.4-2.3-1.9-3.6c-0.7-1.7-1-3.6-1.5-5.3c-0.6-1.8-1.6-3.5-3.4-4.2
	c-1.2-0.4-2.5-0.3-3.8-0.7c-3.2-0.9-2.7-5.8-5.2-8c-3.3-2.9-8.7-1.1-13.1-1.6c-3.3-0.4-6.7-0.8-10-0.2c-2.5,0.4-5.1,1.5-7.6,0.8
	c-3.7-1-5.5-5.1-7.7-8.3c-0.2-0.3-0.5-0.7-0.9-0.9c-0.5-0.2-1,0-1.5,0.1c-2.8,0.7-6.6,1.4-8.4-0.8c-2.8-3.6,2.6-9.3,0.9-13.5
	c-1.4-3.5-8.4-1.8-10.3-5.1c-1.5-2.7,2.9-5.3,4.3-8.1c1.3-2.5,1-6.3,1.3-9.1c0.1-1,0.2-2.1,0-3.1c-0.2-0.9-0.6-1.7-1-2.6
	c-3.1-6.7-6.3-13.4-9.4-20.1c-0.7-1.6-1.5-3.2-2.9-4.2c-0.7-0.5-1.4-0.8-2-1.3c-0.6-0.6-0.9-1.5-1.2-2.3c-1.6-3.4-5.8-4.8-9.5-5
	c-3.8-0.1-8.7,3.2-11.3,0.5c-0.9-0.9-1.3-2.2-2.5-2.5c-1.2-0.3-2.6-0.2-3.8-0.7c-2.4-0.9-3.6-3.9-3.1-6.5c0.5-3.1,2.8-6.5,0.9-9
	c-0.7-0.9-1.9-1.4-3-2c-4.8-2.5-7.9-7.2-10.5-11.8c-1-1.8-1.9-3.6-3.3-5.1c-1.4-1.5-3.3-2.6-5.3-2.4c-1.5,0.1-2.8,0.8-4.1,1.4
	c-1.3,0.6-2.8,1.1-4.2,0.8c-1.4-0.3-1.9-1.7-2.3-3.1c-2.1-7.2-5.2-14.2-4.3-21.7c0.9-7.8,1.8-15.6,3.6-23.1"/>
<path fill="none" stroke="#E1E1E1" stroke-miterlimit="10" d="M275.3,359.3c-0.5-0.7-1.9,0-2.5,0.7c-0.6,0.7-1.1,1.9-0.4,2.5
	c0.6,0.6,1.7-0.1,2.2-0.8C275.1,361,275.8,359.9,275.3,359.3z"/>
<path fill="none" stroke="#E1E1E1" stroke-miterlimit="10" d="M180.3,277.8c0.3-0.6,0.6-1.1,1.2-0.9s1.4,0.8,1.8,0.4
	c1.7-1.7-1.3-4.5-2.9-6.2c-1.4-1.4-2.8-2.9-4.5-3.8c-1.8-1-3.9-1.4-6-1.7c-0.8-0.1-1.8-0.2-2.2,0.5c-0.2,0.4-0.2,0.8-0.1,1.3
	c0.3,1.2,1,2.2,1.8,3.2c0.9,1.2,1.8,2.4,3,3.3c0.4,0.3,0.9,0.6,1.3,0.9c1,0.6,1.9,1.3,2.9,1.9C177.6,277.4,179.7,279.1,180.3,277.8z
	"/>
<path fill="none" stroke="#E1E1E1" stroke-miterlimit="10" d="M222.4,362.3c-0.9-1.6-1.9-3.1-3.3-4.3c-1.2-1-2.6-1.7-3.7-2.7
	c-3.4-3.2,0.1-9.1-2.2-13.2c-2.5-4.5-9,3.9-13.9,5.6c-0.9,0.3-2,0.5-2.9,0.2c-0.8-0.2-1.5-0.8-2.2-1.4c-6.1-5.3-10.5-12.5-12.3-20.4
	c-0.6-2.5-1.1-5.4-3.4-6.7c-0.9-0.5-1.9-0.7-2.7-1.1c-3.2-1.7-3.3-6-4-9.5c-0.7-3.5-5.6-8.4-7.3-5.2c-2.2,3.9-5.9,7.6-9.9,5.6
	c-1.4-0.7-2.5-1.8-3.6-3c-4.7-4.9-7.4-13.5-14.1-14.7c-4-0.7-1.3,7.2-1.8,11.3c-0.5,3.9-4.7,6.9-8.6,6c-3.8-0.9-6.4-5.5-5-9.2
	c0.8-2.1,2.5-3.8,3.5-5.8c2-4.1,1-8.9-0.4-13.3c-2.2-7.2-5.2-14.1-8.7-20.8c-1.1-2.1-2.3-5-0.5-6.6c2.6-2.4,6.6-3.2,10.1-2.2
	c3.6,1,8,3.7,10.4,0.9c2.1-2.4,0.4-7.1,3.1-8.8c2.1-1.3,4.8,0.5,7.2,0.3c3-0.2,5.1-3.3,5.2-6.3c0.1-3-2-5.5-2.4-8.5
	c-1-6.2,1.6-12.6,2.4-18.8c0.3-2.1,0.5-4.3-0.6-6.1c-1.7-2.8-8.6-5.7-5.8-7.3c1.3-0.8,2.9-0.7,3.7-2c0.8-1.3,1.7-2.8,3.2-3
	c0.9-0.1,1.7,0.3,2.5,0.7c10.5,5,21.3,9.3,32.4,12.9c1.8,0.6,3.7,1.2,5.6,1.1c1.8,0,3.6-0.7,5.3-1.3c3.4-1.3,6.6-3,9.7-4.9
	c1.3-0.8,2.8-1.6,4.2-0.9c0.6,0.3,1,0.9,1.6,1.1c1.7,0.5,2.6-1.8,3.7-3.2c0.4-0.4,0.8-0.9,1-1.4c0.1-0.4,0-0.9-0.1-1.4
	c-0.7-2.7-1.4-5.5-2.8-7.9s-3.8-4.4-6.6-4.8c-1.1-0.1-2.2,0-3.3-0.3c-2.8-0.7-4.3-3.7-5.7-6.2c-2.3-4.3-4.7-9.3-9.2-11.2
	c-3.2-1.3-6.4-2.5-9.2-4.6c-3-2.2-6.3-5.1-6.1-8.8c0.1-2.4,1.6-4.5,3.1-6.5c4.1-5.4,8.8-11.2,15.4-12.7c1.3-0.3,2.7-0.5,3.8-1.2
	c1.9-1.4,2.1-4.2,2.5-6.5c0.6-3.4,2-6.8,4.1-9.5c1.5-2,3.9-1.6,6.4-2c1.8-0.3,1.3-3.6,0.8-5.3c-0.5-1.8-2-3.3-3.9-3.4
	c-1.1,0-2.1,0.4-3.1,0.9c-3.7,1.6-7.8,2.6-11.8,2.2c-3-0.4-5.9-1.6-8.2-3.6c-1.8-1.5-3.4-3.5-5.7-4.2c-0.9-0.3-1.8-0.3-2.7-0.5
	c-3.7-0.9-8.9-4.4-7.6-7.9c0.1-0.3-0.1-0.4-0.1-0.7c0-0.3,0.4-0.6,0.2-0.9c-1.1-2.1-0.4-4.7,0.6-6.8c1-2.1,2.4-4.2,2.5-6.6
	c0.2-2.5-1-5.3,0.5-7.3c1.8-2.5,2-6,0.6-8.7c-1.4-2.7-4.4-4.5-7.5-4.5c-2.1,0-4-1-5.8-2c-1.6-0.9-3.2-1.7-4.8-2.6
	c-1.2-0.7-1.3-2.1-2.3-3.2c-1.4-1.5-4.2,0.8-6-0.2c-1.8-0.9-2.8-2.8-3.7-4.6c-1.8-3.9-3.4-7.9-4.6-12c-0.8-2.4-1.4-5-1-7.5
	c0.2-1.3,0.6-2.5,1.1-3.7c1.4-3.9,2.9-7.8,5.7-10.8c1.8-1.8,0.9-4.8,0.2-7.3c-0.3-0.8-0.5-1.7-0.7-2.5"/>
<path fill="none" stroke="#E1E1E1" stroke-miterlimit="10" d="M181.3,362.5c0.1-0.3,0.2-0.6,0.2-1c0.4-2.7-1.6-5.3-1-7.9
	c0.3-1.4,1.3-2.8,0.6-4.1c-0.9-1.6-3.5-1-4.8-2.3c-1.2-1.1-1.4-3.4-3-3.4c-0.7,0-1.2,0.5-1.9,0.7c-1.6,0.5-3.1-0.9-4.3-2.1
	c-1.2-1.2-3.1-2.3-4.4-1.2c-0.6,0.5-0.9,1.3-1.4,1.9c-1.7,1.8-4.9,0.4-6.2-1.7c-0.6-1-1.1-2.3-2.1-2.9c-1.4-0.9-3.3-0.4-4.8,0.4
	c-1.5,0.8-2.9,2.7-4.5,2.2c-3.8-1.3-5.7-5.8-7.6-9.3c-0.5-0.9-0.9-1.8-1.5-2.5c-2.3-2.6-6.4-1.6-9.9-2c-6.1-0.6-10.8-5.4-14.9-9.9
	c-0.5-0.5-0.9-1-1.4-1.5c-1.6-1.8-3.2-3.5-4.9-5.2c-3.5-3.5-7.4-7-8.9-11.7c-2-6.1-6.1-11.4-9.2-17.1c-0.4-0.7-0.8-1.4-1.4-1.9
	c-1.2-0.9-2.8-0.8-4-1.6c-1.2-0.8-1.6-2.6-0.9-3.9c0.5-0.9,1.4-1.5,2.1-2.2c2-2.1,2.4-5.2,2.1-8.1c-0.3-2.9-1-5.7-0.9-8.5
	c0.2-4.7,2.9-9.3,1.4-13.7c-1.7-4.9-7.3-5.6-7.7-10.7c-0.1-1.9,1.7-1.9,2-3.8c0.2-1.3,0.3-2,1.4-2.7c1.1-0.7,2.4-0.7,3.7-0.8
	c3.7-0.1,7.5-0.2,10.7,1.5c1.1,0.6,2.1,1.4,3.1,2c4.3,2.5,9.6,2.5,14.7,2.4c0.6,0,1.3-0.1,1.7-0.6c0.2-0.3,0.3-0.8,0.3-1.2
	c0-1.8-0.9-3.9-0.1-5.5c1-2,4.3,0.4,6.4-0.1c3-0.6,5.2-3.1,6.9-5.7c3.2-4.7-5.6-10.5-11.2-11.3c-0.9-0.1-1.6-0.7-2.4-1.1
	c-1.3-0.6-1.3-1.9-2.2-3c-3-3.7-6-7.3-9.4-10.4c-2.2-2-4.8-4.2-4.9-7.2c-0.1-1.4,0.2-3.4-1.1-3.9c-0.5-0.2-1-0.1-1.5-0.1
	c-1.8,0-3.5-1.3-4-3c-0.2-0.8-0.1-1.7-0.4-2.5c-0.2-0.9-0.8-1.6-1.3-2.4c-3.6-5.3-8.4-11.9-6.4-18.1c0.8-2.3,4.6-1.6,6.7-0.5
	c2.2,1.1,4,2.8,6.3,3.7c1.5,0.6,3.2,0.7,4.7,1.5c2.5,1.3,1.3,5.1,3.3,7.1c2.8,2.9,7.8-1.5,11.8-2.2c1.7-0.3,3.3,0.2,4.4,1.5
	c1.3,1.6,3.7-1.7,3.8-3.7c0.1-2.1-0.6-4.3,0.4-6.1c1.5-3,5.9-2.9,8.9-1.5c0.6,0.3,1.2,0.6,1.9,0.5c0.7-0.1,1.2-0.6,1.7-1.1
	c2.8-2.7,8.6-1.2,10.3-4.6c1.2-2.5-3-5.4-1.3-7.6c0.6-0.8,1.6-1.3,1.9-2.3c0.3-0.9-0.2-1.9-0.3-2.8c-0.2-1.9,0.9-3.6,1.8-5.2
	c0.9-1.6,1.5-3.8,0.5-5.3c-2-2.8-6.7-0.4-9.8-1.8c-3.2-1.4-3.2-5.9-5.2-8.8c-1.6-2.4-4.1-5.2-6.9-4.7c-2.3,0.4-1.5,4.3-3.6,5.1
	c-3,1.1-5.5-3.4-8.3-5c-0.8-0.5-1.5-0.9-2.1-1.5c-1.7-1.7-2-4.7-0.7-6.8c1.3-2.1,4.1-3,6.4-2.2c1.7,0.6,3.3,2,5,1.4
	c1.3-0.5,1.8-2,2.5-3.2c0.7-1.2,2.4-2.2,3.4-1.2c0.4,0.4,0.5,1,0.7,1.5c1.2,3.2,5.7,5.4,8.7,3.9c2.1-1.1-0.4-4.6-0.1-7
	c0.3-3.7,5.1-5.3,6.9-8.6c0.7-1.3,0.9-2.8,1.1-4.3c0.6-5.5,1.1-11,1.3-16.5c0-1,0.1-2.1-0.4-3.1c-0.3-0.5-0.7-1-1.2-1.4
	c-2.7-2.3-6.1-3.7-9.6-3.9c-2.8-0.2-6.5,1.3-8.3-0.8c-1.8-2.2-1.3-5.6-2-8.4c-0.2-1-0.5-2-1.1-2.7c-1.4-1.6-4-1.2-6-1.9
	c-4-1.5-4.7-6.7-6.6-10.5c-1.2-2.4-3.1-4.8-2.4-7.4c0.9-3.5,6.3-3.7,8.2-6.8c1.4-2.2,2.7-7.6,1.3-10.4c-0.5-1.1-2.4,0.5-3.6,0.6
	c-0.3,0-0.7,0-0.9-0.2c-0.1-0.2-0.1-0.4-0.1-0.7c0.3-3.6,1.2-7.1,2.6-10.4"/>
<path fill="none" stroke="#E1E1E1" stroke-miterlimit="10" d="M90.4,362.8c0.6-0.8,0.8-1.7,0.2-2.5c-1.7-2.2-5,2.1-7.8,2.5
	c-3,0.5-5.7-1.7-7.5-4.1c-6.5-8.9-4.5-22.7,4-29.6c2.6-2.1,5.7-3.7,7.3-6.6c1.6-3,1.2-6.7,0.7-10.1c-0.6-4.2-1.3-8.7-3.8-12.1
	c-2-2.6-4.8-4.3-7.3-6.4c-5.9-5-9.8-12.3-10.5-20c-0.4-3.8-0.5-8.4-3.8-10.2c-1-0.5-2.1-0.7-2.8-1.6c-0.9-1.2-0.4-2.9,0.3-4.3
	c1.9-4.2,4.2-8.2,6.9-12c1.7-2.4,3.5-5.6,1.7-7.9c-0.7-0.9-1.8-1.3-2.8-1.8c-5.9-2.4-12.1-4.8-18.4-4.1c-2.8,0.3-4,2.2-6.7,1.7
	s-4.8-1.4-4.5-6c0-0.5,0.1-1.3-0.4-1.2c-0.5,0.1-0.8,0.5-1.2,0.7c-1.4,0.9-3.4,0-4.2-1.5c-0.8-1.5-0.7-3.3-0.6-5
	c0.2-3.5,3.1-7.9,0.7-10.4c-0.9-0.9-3.9,1.3-3.8,0c0.2-2.4,1.6-5.6-0.3-10.8c-0.2-0.5-0.3-1-0.2-1.5c0.4-1.8,3-1.2,4.8-1.4
	c2.3-0.2,1.5-3.8,3.4-5.1c1.1-0.7,2.6,0,3.1-1.2c0.5-1.2,0.2-2.6,0-3.8c-0.2-1.3-0.3-2.7,0.5-3.7c0.5-0.6,1.2-1,1.8-1.3
	c1.8-1,3.9-1.9,5.8-1.4c0.9,0.3,1.8,0.9,2.7,0.9c2.3,0.1,3.3-3,5.3-4.2c1.1-0.7,2.5-0.8,3.8-0.9c5.9-0.3,13.7,2.8,17,3.2
	c1.5,0.2-2.2-3.4-1.1-4.5c1.8-1.8,8.6,0.8,7.3-1.4c-2.6-4.5-5.8-8.8-9.5-12.8c-2-2.2-3.8-6.1-6.5-7.3c-4.4-1.9-8.2-3-6.4-8.5
	c0.4-1.4,0.9-2.8,1.1-4.2c0.2-1.4-0.1-3.1-1.3-4c-0.6-0.4-1.3-0.6-1.9-1c-1.3-1.2,0.2-2-0.1-3.8c-0.3-2.3-1-4.9-2-7
	c-1.6-3.5-7.2-2.2-9.6-5.2c-1.2-1.4-2-3.3-1.8-5.1c0.1-1,0.5-1.9,0.7-2.9c1.1-5-3.2-10.3-1.2-15c3.6-8.2,7-12.5,19.3-11.7
	c3.3,0.2,3.2-6.3,3.9-9.5c0.7-3.2,0.6-6.9-1.5-9.5c-1.2-1.5-3.1-2.5-3.7-4.3c-0.3-0.9-0.3-1.9-0.3-2.9c0.1-2.7,0.4-5.6,2.2-7.6
	c2.1-2.4,5.7-2.9,8.9-2.8c3.2,0.1,6.5,0.7,9.6-0.2c1-0.3,3.1-0.7,3.9-1.4c2.8-2.4,1.1-8.8-2-10.8c-3.6-2.4-8.3,8.6-11.3,5.5
	c-1.3-1.4-1.2-3.6-2.8-4.7c-1-0.7-2.2-1.1-2.9-2.2c-0.5-0.8-0.6-1.8-0.6-2.7c-0.1-2.1-0.2-4.3-0.3-6.4c-0.1-2.1-0.2-4.5,1.2-6.1
	c1.8-2.2,5.1-2.2,7.4-3.8c2.3-1.6,3.4-4.9,2.3-7.5c-0.6-1.6-1.9-3-1.9-4.6c0-1.2,0.7-2.4,0.4-3.6c-0.2-1-0.9-1.5-1.8-1.9"/>
<path fill="none" stroke="#E1E1E1" stroke-miterlimit="10" d="M4.2,362c0.2-1.3,0.6-2.6,1-3.8c3.2-8.1,12.8-12.4,21.5-11.6
	c1.2,0.1,2.6,0.2,3.3-0.7c0.3-0.3,0.4-0.7,0.6-1.1c0.6-1.7,4.1-3,3.4-4.7c-1.3-3.3-4.3-6.8-6.6-9.5c-0.5-0.5-1.1-1-1.5-1.5
	c-2-2.2-1.8-5.5-1.6-8.5c0.3-3.6,2.1-7.4,0.3-10.5c-0.4-0.7-0.9-1.3-1.2-1.9c-1.1-2.2-0.1-5,1.5-6.8c1.6-1.9,5.8-2.3,5.7-4.7
	c-0.1-1.4-2.6-0.9-3.9-1.3s-2.8-1.1-3.1-2.5c-0.2-0.7,0.1-1.5-0.1-2.3c-0.2-0.9-0.9-1.7-1.6-2.3c-1.9-1.9-3.8-3.8-5.7-5.7
	c-0.4-0.4-0.9-0.8-1.4-0.9c-0.7-0.1-1.3,0.4-1.8,0.8c-2,1.7-3.9,3.4-6.3,4.6c-3.9,2-6.7,2-9.5,1.8"/>
<path fill="none" stroke="#E1E1E1" stroke-miterlimit="10" d="M13.3,324.2c-0.5,0.2-0.1,1.1,0.4,1.3c0.5,0.2,1.1,0.1,1.6,0
	s1.2,0.3,1.6,0c0.4-0.2,0.3-1,0-1.3C16.2,323.4,14.5,323.8,13.3,324.2z"/>
<path fill="none" stroke="#E1E1E1" stroke-miterlimit="10" d="M19.5,197.6c-0.1-2.6-0.1-5.5,1.4-7.6c0.4-0.6,1-1.1,1.2-1.8
	c0.2-0.7,0.1-1.4,0-2.1c-0.3-2-1.2-4.5-3.2-4.6c-1.1-0.1-2.1,0.7-3,1.4c-0.9,0.8-1.8,1.5-2.7,2.3c-1.6,1.4-2.2,3.2-2.3,5.3
	c-0.1,3.8-0.7,7.6-2.1,11.1c-1.8,4.6-3.6,12.4-6.7,13.2c-0.8,0.2-1.6-1.1-2.2-0.6c-1.5,1.2-2.2,4.2-0.9,5.6c2.9,2.8,8.1-2,10.6-5.3
	c2.1-2.7,2.2-8.2,5.6-8.7c1.4-0.2,3.7,0.5,3.9,1.9c0.3,2-2.3,3.5-2.1,5.5c0.2,1.7-0.7,3.5-0.1,5.1c0.5,1.3,2.8-0.5,3.7-1.6
	c0.9-1.1,1.3-2.5,1.7-3.9c1-3.4,1.7-9.9,1.2-10.4c-0.9-0.8-2.6-0.1-3.2-1.2C19.6,200.2,19.6,198.9,19.5,197.6z"/>
<path fill="none" stroke="#E1E1E1" stroke-miterlimit="10" d="M1.2-2.4c-0.7,1.2-1,2.5-1.6,3.7C-0.7,2-1,2.7-1.5,3.2"/>
<path fill="none" stroke="#E1E1E1" stroke-miterlimit="10" d="M-2.6,132.6c1.2-1.2,2.5-2.5,4.1-3.1c1.4-0.5,2.9-0.6,4.4-0.6
	c5.1,0,13.5,3.4,15.1,1.6c1.8-2.1-1.7-15.7-2.6-23.5c-0.2-1.5-0.3-3.2,0.6-4.4c0.5-0.6,1.1-1,1.6-1.6c1.1-1.6,0.3-3.8-0.2-5.7
	C19,90,20.5,84.6,22,79.4c1.1-3.7,2.2-7.5,4.7-10.5s6.9-1.5,10.3-3.5c1.4-0.8-1.9-2.1-2.7-3.5c-0.6-1,1.8-2.1,1.4-3.2
	c-0.9-2.2-4.4-2-6.6-2.9c-0.7-0.3-1.4-0.6-2-1.2c-0.6-0.6-0.9-1.3-1.2-2c-1.4-3.2-3.9-6.1-4.3-9.5c-0.5-4.5,6.5-10.1,3.3-13.4
	c-1.6-1.7-4.5,1.5-6.8,2.3c-3,1-6.5,2-9.1,0.2c-2.4-1.6-3-4.8-3.6-7.7c-0.8-4.1-2.1-8-3.8-11.9C1,11.3,0.4,10,0.4,8.5
	c0-2.3,1.6-4.3,2.9-6.2c0.8-1.1,1.7-2.7,2-4"/>
<path fill="none" stroke="#E1E1E1" stroke-miterlimit="10" d="M108.6,218.1c-0.6-0.8-0.5-1.9-0.4-2.9c0-1.3,0.5-2.5,0.7-3.8
	c0.2-1.3,0-2.8-1-3.6c-0.5-0.4-1.2-0.6-1.8-0.9c-0.6-0.2-1.2-0.4-1.9-0.4c-1-0.1-2,0.3-2.9,0.7c-1.3,0.5-2.2,1.9-3.6,2
	c-1.9,0.2-3.7-0.8-5.6-0.9c-1.6-0.1-3.4,0.1-4.1,1.5c-0.4,0.8-0.2,1.9,0.3,2.7c0.5,0.8,1.3,1.4,2,1.9c1.8,1.4,3.6,2.8,5.4,4.1
	c1.3,1,2.6,2,4,2.6c2.4,1.1,5.2,1.4,7.7,0.7c0.8-0.2,1.7-0.6,2-1.3C109.9,219.7,109.2,218.9,108.6,218.1z"/>
<path fill="none" stroke="#E1E1E1" stroke-miterlimit="10" d="M167,152.3c0,0.4,0.2,0.7,0.5,1c1.2,1.2,4.5,0.6,4.1-1
	c-0.2-0.6-0.8-1.1-1.4-1.4c-0.6-0.3-1.4-0.2-2,0C167.5,151,166.9,151.6,167,152.3z"/>
<path fill="none" stroke="#E1E1E1" stroke-miterlimit="10" d="M182.4,15.4c-0.2,0.5-0.3,1.1-0.1,1.6c0.2,0.6,0.9,1,1.6,1.1
	c0.7,0.1,1.3-0.1,2-0.3c1.6-0.4,3.6-0.1,4.7-1.3c0.7-0.8-0.5-2.1-1.2-2.9c-0.9-1.1-1.9-2.3-3.4-2.3c-1,0-1.9,0.7-2.4,1.5
	C183,13.5,182.7,14.5,182.4,15.4z"/>
<path fill="none" stroke="#E1E1E1" stroke-miterlimit="10" d="M271.9,91.3c2.3-0.6,5.2-0.3,6.9-1.9c0.4-0.4-0.2-1.2-0.8-1.5
	s-1.1-0.5-1.5-1c-0.2-0.2-0.3-0.5-0.5-0.8c-1.1-1.9-3.5-2.4-5.2-3.7c-1.1-0.8-1.9-1.8-2.6-3c-0.3-0.5-0.5-0.9-0.8-1.4
	c-1.1-1.6-3.1-2.4-5-2.2c-0.1,0-0.3,0-0.4,0.1c-0.2,0.1-0.2,0.4-0.3,0.6c-0.2,0.9-0.3,1.9-0.2,2.8c0.5,2.8,3.9,4.5,4.1,7.4
	c0,0.6,0,1.3,0.5,1.6c0.5,0.3,1.2,0,1.8,0.1c1.5,0.2,1.5,2.9,3,3.1C271.2,91.5,271.5,91.4,271.9,91.3z"/>
<path fill="none" stroke="#E1E1E1" stroke-miterlimit="10" d="M352.8,66.5c-0.4,1.7-2.3,3-2,4.7c0.2,0.9,1,1.7,1.9,1.9
	c0.9,0.3,1.9,0.2,2.9,0.1c1.1-0.1,2.2-0.2,3.2-0.3c0.8-0.1,1.9-0.4,1.9-1.2c0-0.2-0.1-0.3-0.1-0.5c-1-2.6-2.5-5-4.5-7
	c-0.6-0.6-1.6-1.3-2.4-0.9C352.8,63.9,353.1,65.4,352.8,66.5z"/>
<path fill="none" stroke="#E1E1E1" stroke-miterlimit="10" d="M362.7,179.1c-0.7-0.1-1.4,0.1-2,0.6c-1.1,0.9-1.1,2.7-0.6,4.1
	c0.4,1.1,1,2.1,1.5,3.2"/>
<path fill="none" stroke="#D6D6D6" stroke-miterlimit="10" d="M116.6,209.5c-1.9-1.7-3.8-3.3-5.4-5.3c-1.2-1.5-2.2-3.3-3.4-4.8
	c-3.3-4.3-8-7.4-12.9-9.8c-1.9-0.9-3.8-1.8-5.4-3.1c-2.2-1.8-3.7-4.4-5.4-6.8c-5.2-7.5-12.3-13.5-19.4-19.4c-1.5-1.2-3.1-2.5-5-2.7
	c-1.8-0.2-3.1,1-4.8,0.6c-2.6-0.7-5.7-3.7-7.4-4"/>
<path fill="#EAEAEA" stroke="#D6D6D6" stroke-miterlimit="10" d="M284.8,357.4c-0.5,0.5-0.4,1.5,0.1,1.9c0.6,0.5,1.4,0.5,2,0.1
	c0.2-0.1,0.4-0.3,0.5-0.6c0.3-0.6-0.3-1.3-0.9-1.6C286,356.9,285.2,356.9,284.8,357.4z"/>
<path fill="#EAEAEA" stroke="#D6D6D6" stroke-miterlimit="10" d="M321.5,354.3c0.6,0.1,1.3-0.1,1.8-0.4c0.1-0.1,0.2-0.1,0.3-0.2
	c0.2-0.3,0-0.6-0.2-0.9c-0.4-0.5-1.2-0.8-1.8-0.8c-0.3,0-0.6,0.1-0.9,0.3c-0.2,0.2-0.3,0.6-0.2,0.8
	C320.7,353.3,321.1,354.2,321.5,354.3z"/>
<path fill="#EAEAEA" stroke="#D6D6D6" stroke-miterlimit="10" d="M244.6,360c-0.3,0-0.6,0.2-0.7,0.5c-0.2,0.3-0.2,0.6-0.2,0.9
	c0,0.5,0.1,1.1,0.6,1.1c0.1,0,0.1,0.1,0.2,0.2c0,0.1,0.2-0.1,0.2-0.1c0.5-0.6,1.2-1.6,0.7-2.3C245.2,360,244.9,360,244.6,360z"/>
<path fill="#EAEAEA" stroke="#D6D6D6" stroke-miterlimit="10" d="M248.9,352.3c-0.2-0.5-0.9-0.8-1.5-0.5c-0.5,0.2-0.9,0.8-0.9,1.4
	c-0.1,0.7,0.3,1.7,1,1.5c0.4-0.1,0.6-0.5,0.9-0.7C248.8,353.5,249.1,352.9,248.9,352.3z"/>
<path fill="#EAEAEA" stroke="#D6D6D6" stroke-miterlimit="10" d="M244.4,335.7c-0.9,0.3-1.2,1.4-1.5,2.3c-0.2,0.6-0.4,1.3-0.5,1.9
	c-0.1,0.5-0.3,1-0.3,1.5c-0.1,1.1,0.4,2.2,1.2,3c0.5,0.5,1.2,0.8,1.8,1.1c0.5,0.3,1.1,0.5,1.6,0.8c0.5,0.3,1.1,0.5,1.7,0.5
	c0.9,0,1.7-0.7,2.1-1.5s0.4-1.7,0.4-2.6c0-1.2-0.1-2.3-0.7-3.4c-0.6-1.2-1.8-2-2.9-2.7c-0.5-0.4-1.1-0.7-1.8-0.8
	C245.1,335.6,244.7,335.6,244.4,335.7z"/>
<path fill="#EAEAEA" stroke="#D6D6D6" stroke-miterlimit="10" d="M235.7,333.2c-0.4,0-0.6,0.3-0.8,0.7c-0.1,0.3-0.2,0.7-0.2,1.1
	c0,0.2,0,0.5,0.1,0.6c0.1,0.1,0.1,0.1,0.2,0.2c0.3,0.2,0.7,0.3,1,0.1c0.2-0.1,0.4-0.4,0.5-0.7c0.1-0.4,0.2-0.9,0.1-1.3
	S236.1,333.1,235.7,333.2z"/>
<path fill="#EAEAEA" stroke="#D6D6D6" stroke-miterlimit="10" d="M233.3,329.5c-0.7-0.2-1.6-0.1-2,0.5c-0.3,0.6,0.5,1.4,1.2,1.5
	c0.7,0,1.4-0.6,1.4-1.3c0-0.1,0-0.2-0.1-0.3C233.8,329.7,233.6,329.6,233.3,329.5z"/>
<path fill="none" stroke="#D6D6D6" stroke-miterlimit="10" d="M143.4,362.9c-0.2-1.4-0.5-2.8-0.8-4.2c-0.3-1.3-0.6-2.6-0.5-3.8
	c0.2-1.3,0.9-2.6,2.1-3c1.4-0.4,2.9,0.4,3.9,1.4c1,1,1.8,2.1,2.4,3.4c0.9,2,1.3,4.3,2.8,5.9"/>
<path fill="none" stroke="#D6D6D6" stroke-miterlimit="10" d="M73.9,362.1c-1.3-0.8-2.9-1.3-4.4-1.7c-3.7-1-7.4-1.9-11.1-2.9
	c-0.4-0.1-0.9-0.2-1.3-0.5c-0.5-0.4-0.7-1-0.8-1.5c-0.6-2-1.3-3.9-1.9-5.9c-1-3-2.6-6.5-5.7-6.5c-0.9,0-1.8,0.3-2.7,0.2
	c-2.7-0.3-4.9-4.1-7.4-2.9c-0.4,0.2-0.9,0.6-1.3,0.4c-0.4-0.1-0.6-0.6-1-0.9c-0.8-0.7-2.1,0.3-3.1,0.1c-0.6-0.1-1.1-0.6-1.6-1
	c-1.3-1.4-2.3-3-3.7-4.4c-1.4-1.3-3.2-2.3-5.1-2.1c-1.9,0.3-3.5,1.7-5.3,2.5c-3.4,1.4-7.2,0.2-10.8-0.4c-2.8-0.5-5.6-0.6-8.4-0.4"/>
<path fill="#EAEAEA" stroke="#D6D6D6" stroke-miterlimit="10" d="M189.1,271.2c-0.3-0.4-1.5-1-1.6-1.1c-0.1-0.1-0.3-0.1-0.5-0.2
	c-0.4-0.1-0.9-0.1-1.3,0s-0.8,0.4-1,0.8c-0.1,0.4,0.1,0.9,0.3,1.3c0.1,0.1,0.7,0.7,0.9,0.9c0.2,0.1,0.5,0.3,0.7,0.4
	c0.6,0.3,1.2,0.6,1.8,0.3c0.5-0.3,0.7-0.9,0.7-1.5C189.2,271.7,189.2,271.4,189.1,271.2z"/>
<path fill="none" stroke="#D6D6D6" stroke-miterlimit="10" d="M242.3,199.1c0.5-0.1,2.1,0.2,2.6-0.2c0.5-0.5,0.8-1.2,1.2-1.7
	c1.2-1.3,3.4-1.3,4.2-2.8c0.3-0.6,0.3-1.4,0.8-2c0.4-0.5,1.1-0.7,1.7-0.8c3.4-0.7,6.3-1,9.7-0.4"/>
<path fill="none" stroke="#D6D6D6" stroke-miterlimit="10" d="M201.5,186.1c1.7-0.8,3.3-1.5,5.3-1.6c0.5,0,1.2-0.5,1.6-0.2
	c0.9,0.5,1.4,1.6,2.2,2.2c1.9,1.6,2.1,4.4,3.1,6.7c0.2,0.5,0.5,1,0.9,1.3c0.7,0.5,1.7,0.1,2.7,0.1c2.3,0,4.6-0.5,6.8-1.7
	c1-0.6,2.3-0.6,3.5-0.5s1.4,0.7,1.9,1.7c0.8,1.4,1.6,3.3,2.7,4.8"/>
<path fill="none" stroke="#4E9BD7" stroke-miterlimit="10" d="M117.9,134.9c0.3-0.3,1.1-0.7,1.5-0.5"/>
<path fill="none" stroke="#4E9BD7" stroke-miterlimit="10" d="M118.3,134.8"/>
<path fill="none" stroke="#4E9BD7" stroke-miterlimit="10" d="M129.2,141.7c-0.3,1.5,0.9,2.8,1.5,4.2c0.8,2.2,1.7,3.9,3.4,5.3
	c1,0.8,1.7,2.2,2.6,3.1c2.5,2.4,5.5,4,8.6,5.5c1.1,0.5,2.4,1,3.4,1.7c0.6,0.4,1.6,0.8,2,1.4c0.6,1,0.7,1.9,0.6,3.1
	c-0.1,1.8-0.4,3.5-0.2,5.4c0.1,0.9,0.3,1.7,0.8,2.4s1.4,1.2,2.3,0.9"/>
<path fill="#EAEAEA" stroke="#D6D6D6" stroke-miterlimit="10" d="M218.3,154.3c-0.6,0.3-1.3,0.8-1.1,1.5c0,0.2,0.1,0.4,0.3,0.6
	c0.8,1.3,1.6,2.6,2.4,3.9c0.3,0.5,0.6,1,0.9,1.5c0.3,0.6,0.7,1.6,1.4,1.4c2.1-0.7,2-4.1,2.2-6.4c0.1-1.2-0.1-2.4-1-3.2
	c-0.7-0.6-1.7-0.7-2.6-0.5C219.9,153.4,219.1,153.8,218.3,154.3z"/>
<path fill="#EAEAEA" stroke="#D6D6D6" stroke-miterlimit="10" d="M235.4,198.4c-0.2,0.4-0.4,0.7-0.8,0.8c-0.6,0.1-1.1-0.4-1.7-0.4
	c-0.9-0.1-1.5,0.9-1.4,1.8s0.7,1.6,1.3,2.2c0.5,0.5,1.4,1.1,2,0.6c0.2-0.2,0.3-0.4,0.4-0.7c0.5-1,1.9-1.4,2.9-0.8
	c0.4,0.2,0.7,0.5,1,0.8c1.2,0.9,2.8,1,4.1,0.3c0.4-0.2,0.9-0.6,1-1c0.3-0.7-0.3-1.2-0.8-1.8c-0.8-1.1-2.1-1.6-2.9-2.6
	c-0.7-0.9-0.8-2.4-1.9-2.8c-0.3-0.1-0.6-0.1-0.9-0.3c-0.3-0.2-0.5-0.4-0.8-0.7c-0.6-0.6-1.6-0.7-2.4-0.7c-0.6,0-1.3,0-1.8,0.3
	c-0.5,0.3-1,0.9-0.8,1.5c0.2,0.7,0.9,1,1.6,1s1.5-0.4,2,0C236.2,196.4,235.7,197.6,235.4,198.4z"/>
<path fill="none" stroke="#D6D6D6" stroke-miterlimit="10" d="M235.9,193.3c3.6-1.4,7.5-3,11.1-4.4c0.7-0.3,1.4-0.6,2.1-1
	c0.6-0.4,1.1-0.9,1.9-1.1c1-0.2,1.9,0.6,2.9,0.9c1.1,0.4,2.4,0.3,3.5,0.6c1.1,0.4,1.6,1.5,2.4,2.3"/>
<path fill="#EAEAEA" stroke="#D6D6D6" stroke-miterlimit="10" d="M260,222.3c0.3,1,1,1.8,1.8,2.5c1.9,1.8,3.8,3.6,5.8,5.3
	c0.9,0.8,1.9,1.6,3.1,1.9c2.2,0.6,4.7-0.6,6.6,0.7c0.6,0.4,1,1,1.5,1.6c1.3,1.6,3.1,2.7,5,3.3c4,1.2,8.6,0,11.4-3
	c0.1-0.2,0.3-0.3,0.5-0.4c0.3-0.1,0.5,0.1,0.8,0.2c1.8,1,3.4,3.1,5.2,2.1c1.3-0.8,3.4-5.1,4.8-7.6c0.4-0.7,0.8-1.4,1.3-2
	c0.8-0.9,1.8-1.4,2.7-2.2s1.5-2,1.2-3.1c-0.3-0.9-1.3-1.5-1.7-2.4c-0.2-0.5-0.3-1-0.4-1.5c-0.8-3.5-4.8-5.4-6.1-8.8
	c-0.3-0.7-0.4-1.5-0.9-2c-0.8-0.9-2.1-1.1-3.2-1.6c-1-0.5-1.9-1.9-1.1-2.6c0.4-0.4,1.1-0.4,1.6-0.5c1.4-0.4,2.2-2.1,1.7-3.5
	s-1.8-2.4-3.2-2.6s-3.2-0.2-4.2,0.9c-0.9,1.1,0.6,2.7,0.5,4.1c-0.1,1.8-2,4.3-3.7,3.6c-2.1-0.9,0-4.5,0.5-6.7
	c0.4-1.6,0.5-3.4-0.5-4.7c-1.1-1.3-3.2-1.8-3.5-3.4c-0.1-0.5,0-0.9-0.1-1.4c-0.3-0.8-1.3-1.2-2.2-1.2c-0.9,0-1.8,0.2-2.7-0.1
	c-1.3-0.4-2.2-1.8-3.5-2.2c-1-0.3-2.1,0-3-0.5c-0.5-0.3-0.8-0.7-1.3-1c-0.7-0.5-1.5-0.6-2.3-0.7c-1.4-0.2-2.8-0.4-4.1,0.1
	c-1.4,0.5-2.3,1.8-3.2,3.1c-0.9,1.4-1.7,2.8-2.5,4.3c-0.4,0.9-0.9,1.9-0.6,2.8c0.5,1.3,2.3,1.8,2.8,3c0.8,1.8-1.3,3.6-1.6,5.6
	c-0.2,1.1,0.2,2.3-0.1,3.5c-0.4,1.5-1.9,2.9-1.5,4.4c0.2,0.6,0.6,1.1,0.7,1.6c0.1,0.7-0.3,1.4-0.6,2.1c-1.1,2.2-1.8,4.7-2.1,7.1
	C259.9,221,259.9,221.6,260,222.3z"/>
<path fill="#7BBCEB" stroke="#4E9BD7" stroke-miterlimit="10" d="M174,186.6c3.5,3.7,6.1,7.9,11.9,8.4c1.3,0.1,2.7,0.2,4,0.3
	c2,0.1,4.3,0,5.6-1.4c0.6-0.7,1.1-1.6,1.9-1.9c0.5-0.1,1-0.1,1.4-0.2c0.9-0.3,1.4-1.2,1.8-2c0.6-1.2,1.2-2.6,0.9-3.9
	c-0.2-0.9-0.8-1.6-1.4-2.3c-1.9-2.2-4-4.1-6.1-6.1c-3.3-3-6.6-6.1-9.9-9.1c-1.6-1.5-3.3-3-5.2-4.1c-2-1.2-4.2-1.8-6.5-2.3
	c-3-0.6-6.1-0.9-9.2-0.8c-0.3,0-0.7,0-1,0.2c-0.5,0.4-0.5,1.2-0.8,1.7c-0.4,0.7-1.3,0.9-2,1.1c-4.3,1.3-6.8,6.5-5.1,10.6
	c1,2.4,3.1,4.2,5.1,5.9c1.3,1,2.6,2.1,3.8,3.1c0.6,0.5,1.2,1,2,1.3c0.7,0.3,1.5,0.3,2.2,0.3C169.4,185.5,172.6,185.1,174,186.6z"/>
<path fill="#EAEAEA" stroke="#4E9BD7" stroke-miterlimit="10" d="M125.9,130.1c0.7-0.8,1.3-1.8,2.3-2.1c1-0.2,2,0.5,2.8,1.1
	c0.3,0.3,0.6,0.5,0.8,0.9c0.1,0.3,0.1,0.7,0,1c-0.3,2-0.6,4-0.9,6.1c-0.2,1.3,0.6,2.7,0.2,3.9c-0.3,0.9-1.9,0.3-2.9-0.1
	c-1.6-0.5-3-1.4-4.4-2.2c-1-0.6-1.9-1.1-2.9-1.7c-0.6-0.4-1.3-0.8-1.6-1.5c-0.2-0.6,0-1.3,0.4-1.8c0.4-0.5,1-0.9,1.5-1.2
	C122.9,131.8,124.7,131.4,125.9,130.1z"/>
<path fill="#EAEAEA" stroke="#4E9BD7" stroke-miterlimit="10" d="M115.1,144.9c0-2.5,0.9-4.6,2.2-6.7c0.4-0.6,0.7-1.2,0.8-1.8
	c0.1-0.7-0.2-1.4-0.8-1.7c-0.4-0.2-0.8-0.1-1.2-0.1c-6.6,0.4-13.1,0.5-19.7-0.3c-0.8-0.1-1.7-0.2-2.5,0.1c-0.8,0.3-1.6,0.8-1.5,1.6
	c0.1,0.8,1,1.3,1.3,2.1c0.5,1,0,2.1,0.4,3.2c0.3,1,1.2,1.6,2,2.2c5,3.4,10,6.9,15,10.3c1,0.7,2.3,1.3,3.2,0.7
	c0.3-0.2,0.6-0.6,0.7-0.9C116.2,150.8,115.1,147.7,115.1,144.9z"/>
<path fill="#EAEAEA" stroke="#D6D6D6" stroke-miterlimit="10" d="M327.2,109.4c-1-0.4-2-1-2.9-1.6c-1.7-1.1-3.4-2.2-5.1-3.3
	c-0.4-0.3-0.9-0.6-1.4-0.7c-1.4-0.4-3.1,0.3-4.5-0.1c-1.2-0.3-1.7-1.2-2.4-2.2c-1.7-2.7-4.1-5.1-6.8-6.7c-0.7-0.4-1.5-0.8-2-1.5
	c-1-1.2-1-2.9-0.6-4.4c0.4-1.5,1.1-2.9,1.4-4.4c0.4-2,0.2-4.3,1.4-6c2-3,6.8-2.5,9.2-5.2c1.2-1.4,1.8-3.5,3.6-3.8
	c0.9-0.1,1.8,0.3,2.7,0.8c1.2,0.7,2.3,1.3,3.5,2c1.7,1,3.5,1.9,5.3,2.5c1.4,0.4,2.8,0.5,4.2,0.8c2.9,0.7,6,0.9,8.5,2.2
	c1.2,0.7,2,1.9,3.1,2.7c1.4,1.1,3.1,1.7,4.9,2c2.4,0.4,5.2,0.4,6.4,2.5c0.7,1.2,0.9,3.6,0.9,5c0,3.1,0.4,5.2,0.6,8.3
	c0.2,3.1-0.5,6.5-2.9,8.4c-2.1,1.6-5,1.8-7.3,3.1c-1.1,0.6-2,1.3-3.1,1.8c-3.7,1.8-7.6,0.2-10.7-0.9
	C331.1,109.8,329,110.1,327.2,109.4z"/>
<path fill="#EAEAEA" stroke="#D6D6D6" stroke-miterlimit="10" d="M340.6,43.8c1.1-1.4,2.2-3.2,1.5-4.8c-0.2-0.5-0.6-1-1.1-1.2
	c-0.7-0.2-1.3,0.1-2,0.4c-1.7,0.8-3.4,1.8-4.5,3.4c-0.8,1.2-1.1,2.6-1.2,4c-0.1,1-0.3,2.2,0.2,3c0.3,0.5,1.2,0,1.6-0.4
	c0.5-0.4,0.9-0.5,1.5-0.5c0.5,0,1.3,0.2,1.6-0.2c0.5-0.7,0.5-1.8,1.1-2.4C339.9,44.6,340.2,44.3,340.6,43.8z"/>
<path fill="#EAEAEA" stroke="#D6D6D6" stroke-miterlimit="10" d="M305.9,67.2c-0.2-0.1-0.3-0.1-0.4-0.2c-1.2-0.7-2.6-0.6-3.9-0.6
	c-0.4,0-0.9,0-1.3,0.2c-0.4,0.2-0.7,0.6-0.7,1c0.1,0.6,0.7,0.9,1.2,0.9c0.6,0,1.1-0.3,1.5-0.6c0.3-0.1,0.6-0.3,0.9-0.1
	c0.2,0.1,0.3,0.3,0.4,0.4c0.7,0.9,1.8,1.4,2.9,1.3c0.5,0,1-0.1,1.5-0.1c0.3,0,0.7-0.1,0.9-0.3c0.5-0.4,0.8-1.4,0.3-1.8
	c-0.8-0.6-2,0-3,0C306.3,67.2,306.1,67.2,305.9,67.2z"/>
<path fill="#EAEAEA" stroke="#D6D6D6" stroke-miterlimit="10" d="M287.3,71c0.3,0.3,0.7,0.5,1,0.7c0.7,0.4,1.7,0.3,2.4,0
	c0.6-0.2,0.4-1.3-0.1-1.7c-0.4-0.5-1.1-0.6-1.8-0.6c-0.6,0-1.3-0.1-1.6,0.4C287.2,70.2,287.1,70.7,287.3,71z"/>
<path fill="#EAEAEA" stroke="#D6D6D6" stroke-miterlimit="10" d="M271.9,56.4c-0.4,0.2-1.1,0.6-1.2,0.2c-0.1-0.2,0-0.5-0.2-0.6
	c-0.4-0.5-1.3-0.5-1.7,0c-0.5,0.5-0.6,1.2-0.4,1.8c0.1,0.6,0.3,1.4,0.8,1.8c0.4,0.3,0.9,0.5,1.3,0.4c0.9-0.3,1.4-1.4,2.3-1.8
	c0.4-0.1,0.8-0.2,1.1-0.5c0.3-0.2,0.8-0.7,0.5-1C274,55.9,272.7,56,271.9,56.4z"/>
<path fill="#EAEAEA" stroke="#D6D6D6" stroke-miterlimit="10" d="M321,37.2c-0.1-0.4-0.5-0.6-1-0.7c-1.8-0.3-3.5,0.9-4.9,2
	c-0.5,0.3-0.9,0.7-1.2,1.2c-0.5,1,0.1,2.9,1.2,2.6c1-0.3,1.2-1.7,1.7-2.5c0.5-0.7,1-1.3,1.8-1.5c0.5-0.1,1,0,1.5-0.1
	C320.6,38.1,321.1,37.7,321,37.2z"/>
<path fill="#EAEAEA" stroke="#D6D6D6" stroke-miterlimit="10" d="M300.6,34.5c-0.7,0-1.7,0-1.9,0.7c-0.2,0.6,0.6,1.1,1.2,1.3
	c0.6,0.2,1.3,0,1.7-0.4c0.1-0.1,0.3-0.3,0.3-0.5C302,34.9,301.2,34.5,300.6,34.5z"/>
<path fill="#EAEAEA" stroke="#D6D6D6" stroke-miterlimit="10" d="M282.9,35.5c0.5,0,0.9-0.5,1.2-1c0.1-0.2,0.2-0.5,0-0.7
	c-0.1-0.2-0.4-0.3-0.7-0.4c-0.7-0.1-1.6-0.9-2.1-0.4c-0.4,0.4,0.1,1.1,0.4,1.6C281.9,35.1,282.4,35.5,282.9,35.5z"/>
<path fill="#EAEAEA" stroke="#D6D6D6" stroke-miterlimit="10" d="M313.5,32c-0.1-0.2-0.2-0.3-0.4-0.4c-0.4-0.3-1-0.2-1.3,0.1
	s-0.7,1-0.3,1.3c0.2,0.2,0.4,0.6,0.8,0.7C312.9,33.9,313.7,32.7,313.5,32z"/>
<path fill="none" stroke="#D6D6D6" stroke-miterlimit="10" d="M313.3,32.7c1.3-0.5,2.9-0.5,4.2-0.1c0.4,0.1,0.8,0.3,1.1,0.6
	c0.9,0.7,1.2,1.9,0.7,2.9"/>
<path fill="none" stroke="#D6D6D6" stroke-miterlimit="10" d="M311.1,32.5c-0.9,0-2.1,0-2.6,0.7c-0.5,0.8-0.9,1.7-1.7,2.1
	c-1.3,0.7-2.8-0.5-3.9-1.5c-1.3-1.1-2.8-2.1-4.5-2.5c-1.1-0.3-2.3-0.3-3.4-0.3c-2.9,0-7.4,0.7-10.2,0.4c-10-1.2-9.9,1.9-11.8,0.6
	c-0.9-0.7-0.4-2.2-1-3.2s-2.2-0.7-2.7-1.7c-0.7-1.4-0.5-3-1.9-3.6c-1.4-0.6-3.1-0.8-4.1-1.9c-0.8-0.9-0.9-2.2-0.4-3.3
	c0.4-0.8,1.2-1.4,1.3-2.3c0-0.4-0.1-0.8-0.2-1.2c-0.2-0.5-0.3-1-0.5-1.6c-0.6-1.7-1.1-3.8-0.1-5.3c0.7-1,2.4-1.1,3.4-1.7
	s1.5-1.9,1.4-3.1c0-0.7,0-1.5-0.4-2.1C266.9,0,266-1,265.1-2.1"/>
<path fill="none" stroke="#4E9BD7" stroke-miterlimit="10" d="M92.4,135.2c-2.2-0.3-4.9-0.4-7.1-0.7c-3.4-0.4-6.4-0.7-9.7,0.2
	c-1.3,0.4-3.1,0.8-4.4,1c-2.7,0.2-5.4-1.5-8.1-1.3c-2.7,0.3-4.8,2.4-6.6,4.5c-1.4,1.5-2.8,3.2-3.3,5.2c-0.1,0.6-0.2,1.2-0.4,1.8
	c-0.2,0.7-0.6,1.3-0.9,2c-0.8,1.5-1.6,2.9-2.4,4.4c-0.5,0.9-1.2,2-2.2,2c-0.6,0-1.1-0.3-1.6-0.7c-2.8-1.9-5.1-4.6-7.4-7.1
	c-2-2.1-3.8-3.7-5.3-6.1c-1.3-2-2.9-4-4.7-5.6c-0.9-0.8-2-1.5-3-2.1c-1.6-1-3.1-1.7-4.2-3.2c-1.5-2-2-4.6-3.5-6.6
	c-1.7-2.3-4.2-4.2-6.2-6.1c-1.1-1-2.3-1.5-3.4-2.5c-0.6-0.5-1.2-1.1-1.8-1.6c-1-0.8-2.1-1.4-3.1-2c-1.7-1-3.5-2-5.2-3"/>
<path fill="#EAEAEA" stroke="#D6D6D6" stroke-miterlimit="10" d="M5.5,76.8c-0.8-0.2-1.8,0-2.3-0.6c-0.5-0.6-0.5-1.6-1.1-2.1
	c-0.4-0.3-1-0.5-1.4-0.4c-0.7,0.2-1,1-1.4,1.5c-0.4,0.4-0.9,0.7-1.3,1.1s-0.7,1-0.5,1.5c0.2,0.4,0.7,0.6,1.2,0.6
	c0.5,0,0.9-0.2,1.3-0.4c0.6-0.2,1.2-1,1.7-0.7c0.9,0.4,1,1.8,1.9,2.3C3.9,80,4.4,80.1,4.9,80c0.6-0.2,1-0.8,1.3-1.4
	c0.2-0.5,0.4-1.1,0-1.4C6,76.9,5.8,76.9,5.5,76.8z"/>
<path fill="#EAEAEA" stroke="#D6D6D6" stroke-miterlimit="10" d="M32.4,175.5c-0.6,0.1-1.5-0.2-1.9,0.2c-0.7,0.7,0.6,1.9,0.1,2.8
	c-0.3,0.5-0.9,0.7-1.4,1s-1.1,0.6-1.2,1.2c-0.1,1.1,1,1.7,1.7,2.6c0.4,0.5,1.4,0.6,1.8,0.2c0.4-0.5,0.4-1.3,1-1.6
	c0.2-0.1,0.5-0.1,0.7-0.2c1.4-0.5,1.8-2.3,1.8-3.7c0-0.7,0-1.6-0.6-2C33.9,175.4,33.1,175.4,32.4,175.5z"/>
<path fill="#EAEAEA" stroke="#D6D6D6" stroke-miterlimit="10" d="M94.3,108.6c1-2.2,1.4-4.8,1-7.2c0-0.2-0.1-0.3-0.2-0.4
	c-0.2-0.2-0.5-0.1-0.7,0c-0.8,0.3-1.7,0.6-2.5,0.8c-1.1,0.4-2.3,0.8-2.9,1.8c-0.6,0.9-0.6,2-0.5,3.1c0,0.5,0,1,0.3,1.4
	c0.4,0.5,1,0.6,1.7,0.7c1,0.1,2,0.2,3,0.4c0.1,0,0.3,0,0.4,0C94.1,109,94.2,108.8,94.3,108.6z"/>
<path fill="#EAEAEA" stroke="#D6D6D6" stroke-miterlimit="10" d="M135.3,93.6c0.1,0.2,0.3,0.3,0.5,0.4c0.5,0.1,1-0.2,1.2-0.7
	c0.2-0.4,0.3-1,0.3-1.5c0-0.3,0-0.6,0.1-1c0-0.4,0-0.9-0.2-1.2c-0.2-0.4-0.9-0.7-1.1-0.4c-0.2,0.4-0.5,0.7-0.7,1.1
	c-0.1,0.2-0.1,0.4-0.1,0.5c0,0.8,0,1.6-0.1,2.5C135.3,93.4,135.3,93.5,135.3,93.6z"/>
<path fill="#EAEAEA" stroke="#D6D6D6" stroke-miterlimit="10" d="M83.6,76.7c0.8-0.5,0.8-1.7,0.4-2.6c-0.8-2-3.4-4.9-5.1-3.5
	c-0.9,0.8-0.1,2.5,0.2,3.7c0.1,0.4,0.2,0.8,0.4,1.2c0.5,0.7,1.5,1,2.3,1.2C82.5,76.9,83.2,77,83.6,76.7z"/>
<path fill="#EAEAEA" stroke="#D6D6D6" stroke-miterlimit="10" d="M82.6,38.9c-0.2-0.4-0.7-0.6-1.1-0.8c-0.9-0.4-2-0.8-2.9-0.2
	c-0.4,0.3-0.7,0.8-0.8,1.3c-0.4,1.4,0,2.9,0.5,4.2c0.1,0.3,0.2,0.5,0.4,0.8c0.5,0.7,1.4,1.1,2.2,1.3c0.7,0.3,1.6,0.5,2.3,0.1
	c0.9-0.6,0.7-2-0.1-2.8c-0.3-0.2-0.6-0.4-0.7-0.8C81.8,41.1,83.1,39.9,82.6,38.9z"/>
<path fill="#EAEAEA" stroke="#D6D6D6" stroke-miterlimit="10" d="M75.2,28.5c-0.4,0.4-0.5,1.1-0.2,1.7c0.3,0.5,0.9,0.9,1.4,0.8
	c1.2-0.1,1.8-1.4,2.5-2.4c0.3-0.5,0.8-0.9,0.8-1.5c0.1-0.6-0.4-1.3-1-1.1c-0.1,0-0.3,0.1-0.4,0.2c-0.9,0.6-1.8,1.2-2.7,1.9
	C75.6,28.2,75.3,28.3,75.2,28.5z"/>
<path fill="#EAEAEA" stroke="#D6D6D6" stroke-miterlimit="10" d="M83.3,204.6c-0.4-0.5-1.3-0.2-1.9-0.2c-0.8,0-1.6-0.5-2.4-0.5
	c-1.2,0.1-2.1,1.6-1.5,2.6c0.5,0.8,1.5,1.1,2.4,1.1c0.3,0,0.3,0.2,0.5,0.4c0.8,0.7,2-0.5,2.9-1.1c0.4-0.3,0.2-1,0.2-1.5
	C83.5,205.1,83.5,204.8,83.3,204.6z"/>
<path fill="#FFFFFF" stroke="#4E9BD7" stroke-miterlimit="10" d="M165.3,176.5c0.1-0.9,0.1-1.8,0.5-2.6c0.7-1.3,1-2.7,1.1-4.1
	c0-0.1,0-0.3,0-0.4c-0.2-0.4-0.8-0.3-1.3,0c-0.8,0.4-1.8,0.6-2.3,1.3c-0.4,0.5-0.4,1.3-0.6,2c-0.4,1.4-1,3.2,0,4.3
	C163.4,177.6,165.2,177.5,165.3,176.5z"/>
<path fill="#FFFFFF" stroke="#4E9BD7" stroke-miterlimit="10" d="M181.6,173.7c-0.5,0.8-0.4,1.9-0.3,2.8c0.2,1.4,1.7,2.1,3.1,2.4
	c1.3,0.4,3.1,1.5,4,0.5c0.2-0.3,0.1-0.7-0.1-1c-0.5-1.2-1.8-1.8-3-2.4c-0.3-0.2-0.6-0.3-0.9-0.5c-0.5-0.3-0.8-0.8-1.2-1.3
	C182.8,173.8,181.9,173.2,181.6,173.7z"/>
<path fill="#FFFFFF" stroke="#D6D6D6" stroke-miterlimit="10" d="M304.3,213.7c-0.2-0.7-1.2-0.9-2-1c-0.4,0-0.7,0-1.1-0.1
	c-0.2,0-0.4,0-0.6,0.1c-0.1,0.1-0.1,0.1-0.2,0.2c-0.4,0.6-0.2,1.5,0.4,1.9c0.2,0.1,0.4,0.2,0.7,0.3c0.6,0.2,1.3,0.3,1.9,0.1
	S304.5,214.4,304.3,213.7z"/>
<path fill="none" stroke="#585858" stroke-miterlimit="10" stroke-dasharray="4,1" d="M362.6,2.1c-0.5,0.4-1,0.7-1.5,0.9
	c-1,0.3-1.6-1.4-2.6-1.1c-0.6,0.2,1.4,3.7-3.5,3.3c-1-0.1-2.1-0.7-2.7,0c-0.5,0.6-0.1,1.5-0.3,2.3c-0.2,0.9-1.2,1.5-2.2,1.6
	c-1,0-1.8-1-2.8-0.7c-1.1,0.4-0.9,2.4-1.9,3.1c-2.4,1.7-4.9-3.3-7.8-3.5c-1.9-0.1-2.8,1.8-3.6,3.5c-0.5,1.2-2-1.1-3.2-1.7
	c-0.9-0.5-2.1-0.1-2.8,0.6c-0.7,0.7-1.1,1.7-1.5,2.7"/>
<path fill="none" stroke="#585858" stroke-miterlimit="10" stroke-dasharray="4,1" d="M308.4-2.7c0.6,0.4,1.1,0.8,1.6,1.2
	c2.8,2.8,3.7,7.1,6.8,9.6c2.8,2.2,6.8,2.9,9.8,4.7c0.4,0.2,0.8,0.5,1.1,0.9c0.3,0.4,0.5,0.9,0.9,1.3c0.7,0.8,1.9,0.9,2.8,1.4
	c1.6,0.9,2.2,3.1,3.9,3.8c0.8,0.3,1.9,0.3,2.4,1.1c0.3,0.4,0.3,0.9,0.3,1.4c0,1.5-1.4,3.9,0,4.5c3.8,1.7,6,3.1,6.5,5.8"/>
<path fill="none" stroke="#585858" stroke-miterlimit="10" stroke-dasharray="4,1" d="M1.6-1.4C0.9,1.5-0.2,3.8-1.5,5"/>
<path fill="none" stroke="#585858" stroke-miterlimit="10" stroke-dasharray="4,1" d="M-2.5,144.3c4.2-3.2,9.2-5.5,14-7.8
	c1.9-0.9,4-1.8,6.1-1.7c1.8,0.1,3.5,0.9,5.3,1.2c1.8,0.3,4.4,0.1,4.8-1.6c0.6-2.7-1.9-5.1-3.5-7.3c-6-8-6.1-9.9-10.5-14.5
	c-0.7-0.7-11.1-8.3-12-8.8c-0.8-0.4-2.9-0.3-3.8-0.6"/>
<path fill="none" stroke="#585858" stroke-miterlimit="10" stroke-dasharray="4,1" d="M28.5,132.4c0.5,1.8,2.8,2.7,4.4,1.9
	c0.5-0.3,1-0.7,1.5-0.8c0.9-0.2,1.8,0.5,2.6,0.8c3.3,1.1,6.5-1.8,9.8-2.8c3.7-1.2,8.5-0.2,10.3-3.6c0.3-0.6,0.5-1.4,0.9-1.9
	c1.4-2,4.4-0.9,6.7-0.2c3.3,0.9,6.9,0.5,9.9-1.1c0.8-0.4,1.7-1,2.6-1.1c1-0.1,2,0.4,2.9,0.9c8,3.8,17.7,4,25.9,0.5
	c2.2-1,4.5-2.2,7-2.1c1.3,0.1,2.5,0.5,3.8,0.7c3,0.5,6.1-0.6,9.1-0.1c3.8,0.6,7.1,3.6,8.3,7.2c1.2,3.7,2.3,6.9,0.5,10.3
	c-0.4,0.8-2.6,0.6-2.8,1.5c-0.5,3.9,3,9.6,6.6,11.1c2.2,0.9,6.5-0.1,8.4,1.3c1.9,1.4,1.5,2.7,3.5,4c2,1.3,4.9,1.7,6.5,0
	c0.6-0.7,1-1.6,1.8-2.1c0.6-0.3,1.2-0.4,1.9-0.5c3.7-0.3,7.9,1,11-0.9c1.3-0.8,0.6-3,0.7-4.6c0.1-1.6,0.7-3.4,2.3-3.7
	c0.9-0.2,1.9,0.2,2.5-0.5c0.4-0.4,0.4-1,0.8-1.3c0.9-0.6,1.7,0.7,2.3,1.5c1.7,2,5.1,1,7.5,2.3c1.4,0.7,2.3,2.1,3.6,2.9
	c1.1,0.6,2.5,0.4,3.7,0.7c6.4,1.5,10.4,0.1,13.3,2.8c1.4,1.3-0.9,2.4,0.4,3.2c1.2,0.9,1.3,2.3,2.4,3.3c1.2,1.1,2.3,1.3,3.8,1.8
	c0.8,0.3,1.9,1.2,2.5,1.8c0.9,0.9,0.9,2.3,1.4,3.5c1.3,3.4,6.1,5.5,5.6,9.1c-0.1,1-0.1,2.1-0.5,3.1c-0.3,1-0.4,1.9,0.4,2.5
	c0.5,0.4,2.1,0.7,2.8,0.8c1.9,0,3.7-0.6,5,0.8c1.2,1.2,0.4,2.8,2,3.5c0.7,0.3,1.4,0,2.1,0.1c2.3,0.4,4.7-1,6.1,0.9
	c1,1.3,2,3.2,3.5,3.7c1.5,0.5,3.2,0.5,4.8,0.8c2,0.5,3.8,1.7,5.9,2s4.6-0.6,4.9-2.6"/>
<g>
	<g>
		<path fill="none" stroke="#585858" stroke-miterlimit="10" d="M362,309.5c-2.3-2-4.6-4-6.5-6.2"/>
		<path fill="none" stroke="#585858" stroke-miterlimit="10" stroke-dasharray="1.2565,3.7696" d="M353.3,300.2
			c-0.5-0.9-1.1-1.8-1.5-2.8"/>
		<path fill="none" stroke="#585858" stroke-miterlimit="10" stroke-dasharray="22.6176,3.7696,1.2565,3.7696" d="M351,295.8
			c-2.8-6.5-3.8-14.3-1.5-20.7c1-2.8,2.7-4.8,4.7-6.7"/>
		<path fill="none" stroke="#585858" stroke-miterlimit="10" d="M355.6,267c2.3-2.1,4.7-4,6.2-6.5"/>
	</g>
</g>
<path fill="none" d="M75.2,358.9c-6.5-8.9-4.5-22.7,4-29.6c2.6-2.1,5.7-3.7,7.3-6.6"/>
<text transform="matrix(0.4314 -0.9021 0.9021 0.4314 75.0017 339.5649)"><tspan x="0" y="0" fill="#7D7D7D" font-family="'Verdana-Italic'" font-size="7">8</tspan><tspan x="3.9" y="-0.1" fill="#7D7D7D" font-family="'Verdana-Italic'" font-size="7" rotate="11.8">8</tspan><tspan x="7.8" y="0.7" fill="#7D7D7D" font-family="'Verdana-Italic'" font-size="7" rotate="24.4">0</tspan><tspan x="11.7" y="2.6" fill="#7D7D7D" font-family="'Verdana-Italic'" font-size="7" rotate="27.6">0</tspan></text>
<path fill="none" d="M190.6,269.5c3.7,11.6,7.5,23.2,11.2,34.7"/>
<text transform="matrix(0.3081 0.9513 -0.9513 0.3081 192.7068 284.2768)"><tspan x="0" y="0" fill="#7D7D7D" font-family="'Verdana-Italic'" font-size="7">9</tspan><tspan x="4.4" y="0" fill="#7D7D7D" font-family="'Verdana-Italic'" font-size="7">4</tspan><tspan x="8.9" y="0" fill="#7D7D7D" font-family="'Verdana-Italic'" font-size="7">0</tspan><tspan x="13.3" y="0" fill="#7D7D7D" font-family="'Verdana-Italic'" font-size="7">0</tspan></text>
<text transform="matrix(1 0 0 1 315.2211 89.0362)"><tspan x="0" y="0" fill="#585858" font-family="'Verdana-Italic'" font-size="8">Breeze</tspan><tspan x="4.3" y="9.6" fill="#585858" font-family="'Verdana-Italic'" font-size="8">Lake</tspan></text>
<text transform="matrix(1 0 0 1 138.5823 133.9639)"><tspan x="0" y="0" fill="#585858" font-family="'Verdana-Italic'" font-size="8">Chain Lakes</tspan><tspan x="0" y="9.6" fill="#585858" font-family="'Verdana-Italic'" font-size="8">(lower)</tspan></text>
<text transform="matrix(1 0 0 1 207.4612 213.6395)"><tspan x="0" y="0" fill="#585858" font-family="'Verdana-Italic'" font-size="8">Chain Lakes</tspan><tspan x="17.1" y="9.6" fill="#585858" font-family="'Verdana-Italic'" font-size="8">(Upper)</tspan></text>
<text transform="matrix(1 0 0 1 124.9547 195.7997)"><tspan x="0" y="0" fill="#7BBCEB" font-family="'Verdana-Italic'" font-size="8">Chain Lakes</tspan><tspan x="15.3" y="9.6" fill="#7BBCEB" font-family="'Verdana-Italic'" font-size="8">(Middle)</tspan></text>
<text transform="matrix(1 0 0 1 229.7422 253.832)" fill="#585858" font-family="'Verdana-Italic'" font-size="8">× 9866</text>
<text transform="matrix(1 0 0 1 93.1588 175.9154)" fill="#585858" font-family="'Verdana-Italic'" font-size="8">× 9133</text>
<text transform="matrix(1 0 0 1 183.2422 15.7487)" fill="#585858" font-family="'Verdana-Italic'" font-size="8">× 9857</text>
<path fill="none" d="M178.2,97.9c2.3,0.7,3.9,2.7,5.7,4.2c2.3,1.9,5.2,3.2,8.2,3.6c4,0.5,8.1-0.6,11.8-2.2"/>
<text transform="matrix(0.7611 0.6486 -0.6486 0.7611 180.4627 102.4668)"><tspan x="0" y="0" fill="#7D7D7D" font-family="'Verdana-Italic'" font-size="7">9</tspan><tspan x="5.2" y="-0.1" fill="#7D7D7D" font-family="'Verdana-Italic'" font-size="7" rotate="-16.3">2</tspan><tspan x="10.1" y="-1.7" fill="#7D7D7D" font-family="'Verdana-Italic'" font-size="7" rotate="-32.4">0</tspan><tspan x="14.4" y="-4.5" fill="#7D7D7D" font-family="'Verdana-Italic'" font-size="7" rotate="-47.1">0</tspan></text>
<path fill="none" d="M254,158.8c2.2,3.2,4,7.3,7.7,8.3c2.5,0.6,5.1-0.4,7.6-0.8c3.3-0.6,6.7-0.2,10,0.2c4.4,0.5,9.8-1.4,13.1,1.6"/>
<text transform="matrix(0.9953 -9.715089e-02 9.715089e-02 0.9953 262.4388 169.9848)"><tspan x="0" y="0" fill="#7D7D7D" font-family="'Verdana-Italic'" font-size="7">9</tspan><tspan x="4.7" y="-0.2" fill="#7D7D7D" font-family="'Verdana-Italic'" font-size="7" rotate="-6">4</tspan><tspan x="8.6" y="-0.7" fill="#7D7D7D" font-family="'Verdana-Italic'" font-size="7" rotate="6.1">0</tspan><tspan x="12.8" y="-0.2" fill="#7D7D7D" font-family="'Verdana-Italic'" font-size="7" rotate="11.9">0</tspan></text>
<path fill="none" d="M239,42.4c3.9,2,8.4,1.9,12.7,2.7c1.1,0.2,2.3,0.5,3.2,1.3c0.9,0.8,1.3,1.9,2.3,2.6c0.6,0.5,1.4,0.6,2.2,0.8
	c5,1.1,10,2.2,15,3.2"/>
<text transform="matrix(0.9637 0.2671 -0.2671 0.9637 255.6936 51.4311)"><tspan x="0" y="0" fill="#7D7D7D" font-family="'Verdana-Italic'" font-size="7">9</tspan><tspan x="4.6" y="-0.1" fill="#7D7D7D" font-family="'Verdana-Italic'" font-size="7" rotate="-3.3">6</tspan><tspan x="9" y="-0.4" fill="#7D7D7D" font-family="'Verdana-Italic'" font-size="7" rotate="-3.3">0</tspan><tspan x="13.5" y="-0.6" fill="#7D7D7D" font-family="'Verdana-Italic'" font-size="7" rotate="-3.3">0</tspan></text>
<path fill="none" d="M20.4,95.2C19,90,20.5,84.6,22,79.4c1.1-3.7,2.2-7.5,4.7-10.5"/>
<text transform="matrix(0.1801 -0.9836 0.9836 0.1801 22.4031 88.7094)"><tspan x="0" y="0" fill="#7D7D7D" font-family="'Verdana-Italic'" font-size="7">8</tspan><tspan x="4.2" y="0" fill="#7D7D7D" font-family="'Verdana-Italic'" font-size="7" rotate="4.8">6</tspan><tspan x="8.6" y="0.4" fill="#7D7D7D" font-family="'Verdana-Italic'" font-size="7" rotate="6.4">0</tspan><tspan x="12.7" y="0.8" fill="#7D7D7D" font-family="'Verdana-Italic'" font-size="7" rotate="12.9">0</tspan></text>
<path fill="none" d="M303,309c1,1.7,1.2,1.3,2.8,2.6c3.9,3.1,9.5,4,13.4,7.1c1.3,1.1,2.4,4,4,4.5c1.1,0.3,0.8,0.8,1.7,1.4
	c0.6,0.5,4.7,1.5,5.3,2.1"/>
<text transform="matrix(0.8594 0.5112 -0.5112 0.8594 304.3626 313.8335)"><tspan x="0" y="0" fill="#7D7D7D" font-family="'Verdana-Italic'" font-size="7">1</tspan><tspan x="4.8" y="-0.1" fill="#7D7D7D" font-family="'Verdana-Italic'" font-size="7" rotate="-7.7">0</tspan><tspan x="9.1" y="-0.7" fill="#7D7D7D" font-family="'Verdana-Italic'" font-size="7" rotate="-4.8">0</tspan><tspan x="12.8" y="-1.4" fill="#7D7D7D" font-family="'Verdana-Italic'" font-size="7" rotate="13.8">0</tspan><tspan x="16.8" y="0.2" fill="#7D7D7D" font-family="'Verdana-Italic'" font-size="7" rotate="15">0</tspan></text>
<g>
	<g>
		<polyline fill="none" stroke="#7D7D7D" stroke-miterlimit="10" points="85.2,341.6 85.2,348.7 275.4,348.7 275.4,341.7 		"/>
		<line fill="none" stroke="#7D7D7D" stroke-miterlimit="10" x1="180.5" y1="341.4" x2="180.5" y2="348.7"/>
		<line fill="none" stroke="#7D7D7D" stroke-miterlimit="10" x1="161.2" y1="349.2" x2="161.2" y2="343.7"/>
		<line fill="none" stroke="#7D7D7D" stroke-miterlimit="10" x1="142.4" y1="349.2" x2="142.4" y2="343.7"/>
		<line fill="none" stroke="#7D7D7D" stroke-miterlimit="10" x1="123.3" y1="349.2" x2="123.3" y2="343.5"/>
		<line fill="none" stroke="#7D7D7D" stroke-miterlimit="10" x1="104.6" y1="349.2" x2="104.6" y2="343.7"/>
	</g>
	<text transform="matrix(1 0 0 1 83.7836 339.1468)" fill="#7D7D7D" font-family="'Verdana'" font-size="8">0</text>
	<text transform="matrix(1 0 0 1 174.2947 339.1468)" fill="#7D7D7D" font-family="'Verdana'" font-size="8">0.5</text>
	<text transform="matrix(1 0 0 1 258.3416 339.1468)" fill="#7D7D7D" font-family="'Verdana'" font-size="8">1 mi</text>
</g>
</svg>
