<?xml version="1.0" encoding="utf-8"?>
<!-- Generator: Adobe Illustrator 17.1.0, SVG Export Plug-In . SVG Version: 6.00 Build 0)  -->
<!DOCTYPE svg PUBLIC "-//W3C//DTD SVG 1.1//EN" "http://www.w3.org/Graphics/SVG/1.1/DTD/svg11.dtd">
<svg version="1.1" id="Layer_1" xmlns="http://www.w3.org/2000/svg" xmlns:xlink="http://www.w3.org/1999/xlink" x="0px" y="0px"
	 viewBox="0 0 360 360" enable-background="new 0 0 360 360" xml:space="preserve">
<path fill="none" stroke="#E1E1E1" stroke-miterlimit="10" d="M361.9,186.5c-1.4-1-2.7-2.1-4.1-3.3c-4-3.5-8-7.1-12.9-9.3
	c-2.1-0.9-4.3-1.5-6.6-1.8c-1.5-0.2-3.2-0.3-4.1-1.6c-0.5-0.7-0.5-1.6-0.6-2.4c-0.1-1.6,0.7-3.6-0.3-4.8c-1.4-1.9-4.6-2.3-6-4.1
	c-1.5-1.9-2.3-4.8-0.8-6.7c0.6-0.7,1.4-1.2,2.1-1.8c2.6-2.2,5.3-7.3,2.5-9.2c-1.9-1.3-4.5,3.3-6.6,2.3c-3.3-1.6-1.4-7.2-2.1-10.8
	c-0.4-2.2-0.9-4.5-1.9-6.5c-0.7-1.5-1.7-2.8-2.7-4.1c-4.4-5.9-8.8-11.7-13.2-17.6c-0.4-0.5-0.8-1.1-1-1.7c-0.2-0.6-0.2-1.2-0.3-1.9
	c-0.1-2-0.6-4.1-1.3-6c-0.1-0.3-0.2-0.5-0.4-0.7c-0.4-0.3-1-0.2-1.5-0.1c-2,0.5-3.9,1.1-5.9,1.6c-2.4,0.7-5.6,1.1-7-1
	c-1.6-2.4,1.9-7.3-0.7-8.4c-1.7-0.7-3.2,2.6-13.1,2.7c-3.9,0-8.5-1.8-10.3-5.2c-10.3-19-3.3-19.4-5.4-23.2
	c-2.3-4.2-8.2,6.2-12.7,4.7c-2.6-0.9-3.1-4.4-3-7.1c0.4-7,2.3-13.8,4.2-20.5c0.4-1.3,0.8-2.8,1.8-3.7s2.4,0.2,3.7-0.2
	c2.2-0.6,2.2-4.2,4.4-4.8c2.8-0.7,5.7,0.6,7.9,2.4c2.8,2.3,4.9,5.3,6.1,8.7c0.5,1.3,0.9,2.8,2,3.6c0.5,0.4,1.2,0.5,1.7,0.9
	c1.7,1,2.2,3.2,3.2,4.9c3.2,4.8,11,4.1,15,8.2c0.7,0.7,1.3,1.6,2,2.4c1.5,1.7,3.4,2.8,5.1,4.3c4.1,3.4,6.9,8.4,11.7,10.8
	c3.9,2,8.4,1.9,12.7,2.7c1.1,0.2,2.3,0.5,3.2,1.3c0.9,0.8,1.3,1.9,2.3,2.6c0.6,0.5,1.4,0.6,2.2,0.8c5,1.1,10,2.2,15,3.2
	c1,0.2,2.1,0.5,3.2,0.4c0.5,0,1.1-0.2,1.6-0.2c2.1-0.2,3.9,1.4,6,1.7c1.6,0.3,3.1,0.5,4.7,0.8"/>
<path fill="none" stroke="#E1E1E1" stroke-miterlimit="10" d="M340.4,363.4c0.4-6.4,1.2-12.7,0.8-19.1c-0.2-2.9,2-7.8-0.5-9.2
	c-3.5-1.9-8.5,4.4-11.5,1.8c-2.1-1.8-1.5-6.4-4.2-7c-3.4-0.9-6.3-2.4-8.1-5.4c-1.2-1.9-2.3-3.8-3.5-5.7c-1.3-2.1-2.6-4.4-2.2-6.8
	c0.3-1.9,1.7-3.4,2.6-5.1c1-1.7,2.3-4.8,0.4-5.4c-3.5-1.1-5.9,4.1-8.5,6.8s-6.8,7.1-9.5,4.7c-1.5-1.4,0.4-5-1.3-6.2
	c-2.8-2-6.7-2.8-6.3-6.1c0.2-1.8,1-4.1-0.5-5.1c-0.9-0.6-2.1-0.2-3.1-0.3c-2.7-0.2-4.2-3.1-5.2-5.7c-1.7-4.3-3.3-9.4-0.8-13.2
	c0.9-1.5,2.3-2.6,3.7-3.6c3.1-2.4,6.2-4.7,9.3-7.1c0.7-0.5,1.5-1.1,2.4-1.3c2-0.3,3.6,1.4,5.3,2.5c1.8,1.1,4.1,1.5,6.2,1
	c1.7-0.4,3.2-1.3,4.9-1.7c3-0.7,6.2,0.5,8.6,2.4c2.4,2,4,4.7,5.3,7.5c0.8,1.8,1.6,3.6,2.7,5.1c1.2,1.6,2.8,2.9,4.4,4.1
	c6.6,5.1,17.2,17.2,22,10.4c1-1.4,0.5-3.6,1.9-4.5c1.5-1,3.3-1.2,5.1-1.3c0.5,0,1-0.1,1.4-0.1"/>
<path fill="none" stroke="#E1E1E1" stroke-miterlimit="10" d="M361.8,156.6c-1.8,0.2-3.9,1.6-5.3,0.5c-1.2-1,0.1-3.1,0.7-4.5
	c2.4-5.4-0.2-12.5-1-18.4c-0.1-0.7-0.2-1.4-0.7-1.9c-1.2-1.2-4.1-0.2-4.6-1.8c-0.6-1.8-0.2-4.2,1.5-5.2c3.1-1.9,6.6-0.1,9.7,2.6"/>
<path fill="none" stroke="#E1E1E1" stroke-miterlimit="10" d="M356,362.7c-3.5-6.4-0.2-16.1-1.1-23.8c-0.2-1.4-0.4-2.9-1.3-4
	c-0.5-0.6-1.1-1.1-1.5-1.7c-0.5-0.9-0.4-2-0.5-3.1c-0.3-4.1-3.3-7.4-5.8-10.6c-2.5-3.2-7.4-9.8-3.5-11.2c6.1-2.2,12.4,3.9,18.5,7.8"
	/>
<path fill="none" stroke="#E1E1E1" stroke-miterlimit="10" d="M266-3.1c3.1,4.7,6,9.7,6.7,15.2c0.4,3,0.1,6.1,0.9,9.1
	c0.7,2.4,2.1,4.5,3.5,6.6c1.4,2.1,2.8,4.1,4.3,6.2c2,3,4.1,6,7,8.1c1.6,1.2,3.5,0.7,5.4,0.9c6.3,0.4,9.3,8.5,14.2,12.6
	c1.1,0.9,2.3,1.9,3.7,2.4c1.4,0.5,2.8,0.5,4.2,1c3,1.1,3.6,5.4,6.4,6.9c0.8,0.4,1.9-0.6,2.6-0.2c2.2,1.3,3.6,3.6,6.1,3.8
	c2.5,0.3,5-0.4,7.5-1c0.6-0.1,1.2-0.3,1.7-0.6c0.5-0.3,0.8-0.8,1.3-1.2c1.4-1.1,4.5,1.6,5.3-0.1c1.1-2.3-1.4-2.9,3.7-7.4
	c4-3.5,6.6-10.1,8.8-15.1c1.6-3.7,1.4-8,1.1-12c-0.1-1.5-0.3-3.2,0.6-4.4c0.3-0.5,0.8-0.9,1.3-1.2"/>
<path fill="none" stroke="#E1E1E1" stroke-miterlimit="10" d="M365.3,201.9c-0.2-0.3-0.5-0.6-0.7-0.8c-3.3-2.9-8.7-1.1-13.1-1.6
	c-3.3-0.4-6.7-0.8-10-0.2c-2.5,0.4-5.1,1.5-7.6,0.8c-3.7-1-5.5-5.1-7.7-8.3c-0.2-0.3-0.5-0.7-0.9-0.9c-0.5-0.2-1,0-1.5,0.1
	c-2.8,0.7-6.6,1.4-8.4-0.8c-2.8-3.6,2.6-9.3,0.9-13.5c-1.4-3.5-8.4-1.8-10.3-5.1c-1.5-2.7,2.9-5.3,4.3-8.1c1.3-2.5,1-6.3,1.3-9.1
	c0.1-1,0.2-2.1,0-3.1c-0.2-0.9-0.6-1.7-1-2.6c-3.1-6.7-6.3-13.4-9.4-20.1c-0.7-1.6-1.5-3.2-2.9-4.2c-0.7-0.5-1.4-0.8-2-1.3
	c-0.6-0.6-0.9-1.5-1.2-2.3c-1.6-3.4-5.8-4.8-9.5-5c-3.8-0.1-8.7,3.2-11.3,0.5c-0.9-0.9-1.3-2.2-2.5-2.5c-1.2-0.3-2.6-0.2-3.8-0.7
	c-2.4-0.9-3.6-3.9-3.1-6.5c0.5-3.1,2.8-6.5,0.9-9c-0.7-0.9-1.9-1.4-3-2c-4.8-2.5-7.9-7.2-10.5-11.8c-1-1.8-1.9-3.6-3.3-5.1
	c-1.4-1.5-3.3-2.6-5.3-2.4c-1.5,0.1-2.8,0.8-4.1,1.4c-1.3,0.6-2.8,1.1-4.2,0.8s-1.9-1.7-2.3-3.1c-2.1-7.2-5.2-14.2-4.3-21.7
	c1.3-11.1,2.6-22.3,6.6-32.7c1.7-4.3,7.1-6.6,7.8-11.2c0.4-2.6-4-3.6-6.6-4.4c-1-0.3-2.1-0.6-2.6-1.4c-0.4-0.6-0.3-1.4-0.3-2.2
	c0.1-1.8,0.3-3.6,0.4-5.4"/>
<path fill="none" stroke="#E1E1E1" stroke-miterlimit="10" d="M327.9,362.3c-0.1-0.6-0.2-1.2-0.4-1.8c-0.6-1.8-2.2-2.8-4.1-3.2
	c-3.7-0.9-1.7-7.3-4.5-9.9c-1.9-1.8-5-1.1-6.9-3c-2.6-2.7-5-5.7-7.2-8.8c-0.6-0.9-1.3-1.9-2.4-1.9c-1.1,0-2,1-2.7,1.9
	c-3.6,4.4-8.7,7.6-14.2,9c-1,0.2-2,0.4-2.9,1c-1.7,1.1-2.3,3.2-3.1,5c-0.9,1.8-3.1,4.2-4.7,2.9c-2-1.8-1.6-5.2-1.1-7.8
	c0.3-1.6,1-3.2,1-4.8c0-1.2-0.4-2.4-0.8-3.6c-3.7-11.6-7.5-23.2-11.2-34.7c-0.5-1.6-1.1-3.3-2.2-4.6s-3-2.1-4.6-1.5
	c-0.8,0.3-1.4,0.9-2.1,1.3c-3.8,2.2-8.4-0.6-11.9-3.3c-0.7-0.6-1.5-1.1-2-1.9c-0.7-0.9-0.9-2.1-1.2-3.2c-1.5-6.5-2.8-13-4.1-19.6
	c-1.1-5.8-1.8-10.2,5-14.5c2.3-1.4-0.6-5.9,1-8.1c0.8-1.2,2.6-1.4,4.1-1c0.8,0.2,1.5,0.5,2.2,0.9c0.6,0.4,1.2,0.8,1.9,1.2
	c1.3,0.7,2.8,1.1,4.2,1.4c3.4,0.8,6.7,1.6,10.1,2.5c3.5,0.9,7.1,1.7,10.7,2.3c5.4,0.9,11,1,16.4,0.6c1.4-0.1,2.9-0.3,4.3,0.1
	c2.4,0.6,5,2.8,7.1,1.4c1.2-0.8,1.6-2.3,2.5-3.4c1.4-1.5,3.6-1.8,5.7-1.6c4.6,0.4,8.8,2.6,12.2,5.6c1.6,1.4,5,4,6.7,5.4
	c15.5,13.5,15,8.3,16.8,9.8c4.1,3.3,7.1,6.7,12.2,5.4c0.7-0.2,1.5-0.4,2.2-0.2c0.4,0.1,0.8,0.5,1.1,0.7c0.6,0.4,1.4,0.5,2.1,0.6"/>
<path fill="none" stroke="#E1E1E1" stroke-miterlimit="10" d="M252.3,310.9c0.3-0.6,0.6-1.1,1.2-0.9c0.6,0.1,1.4,0.8,1.8,0.4
	c1.7-1.7-1.3-4.5-2.9-6.2c-1.4-1.4-2.8-2.9-4.5-3.8c-1.8-1-3.9-1.4-6-1.7c-0.8-0.1-1.8-0.2-2.2,0.5c-0.2,0.4-0.2,0.8-0.1,1.3
	c0.3,1.2,1,2.2,1.8,3.2c0.9,1.2,1.8,2.4,3,3.3c0.4,0.3,0.9,0.6,1.3,0.9c1,0.6,1.9,1.3,2.9,1.9C249.7,310.4,251.8,312.1,252.3,310.9z
	"/>
<path fill="none" stroke="#E1E1E1" stroke-miterlimit="10" d="M255,362.6c-0.4-1.2-0.7-2.3-1-3.5c-0.6-2.5-1.1-5.4-3.4-6.7
	c-0.9-0.5-1.9-0.7-2.7-1.1c-3.2-1.7-3.3-6-4-9.5c-0.7-3.5-5.6-8.4-7.3-5.2c-2.2,3.9-5.9,7.6-9.9,5.6c-1.4-0.7-2.5-1.8-3.6-3
	c-4.7-4.9-7.4-13.5-14.1-14.7c-4-0.7-1.3,7.2-1.8,11.3c-0.5,3.9-4.7,6.9-8.6,6c-3.8-0.9-6.4-5.5-5-9.2c0.8-2.1,2.5-3.8,3.5-5.8
	c2-4.1,1-8.9-0.4-13.3c-2.2-7.2-5.2-14.1-8.7-20.8c-1.1-2.1-2.3-5-0.5-6.6c2.6-2.4,6.6-3.2,10.1-2.2c3.6,1,8,3.7,10.4,0.9
	c2.1-2.4,0.4-7.1,3.1-8.8c2.1-1.3,4.8,0.5,7.2,0.3c3-0.2,5.1-3.3,5.2-6.3c0.1-3-2-5.5-2.4-8.5c-1-6.2,1.6-12.6,2.4-18.8
	c0.3-2.1,0.5-4.3-0.6-6.1c-1.7-2.8-8.6-5.7-5.8-7.3c1.3-0.8,2.9-0.7,3.7-2c0.8-1.3,1.7-2.8,3.2-3c0.9-0.1,1.7,0.3,2.5,0.7
	c10.5,5,21.3,9.3,32.4,12.9c1.8,0.6,3.7,1.2,5.6,1.1c1.8,0,3.6-0.7,5.3-1.3c3.4-1.3,6.6-3,9.7-4.9c1.3-0.8,2.8-1.6,4.2-0.9
	c0.6,0.3,1,0.9,1.6,1.1c1.7,0.5,2.6-1.8,3.7-3.2c0.4-0.4,0.8-0.9,1-1.4c0.1-0.4,0-0.9-0.1-1.4c-0.7-2.7-1.4-5.5-2.8-7.9
	c-1.5-2.4-3.8-4.4-6.6-4.8c-1.1-0.1-2.2,0-3.3-0.3c-2.8-0.7-4.3-3.7-5.7-6.2c-2.3-4.3-4.7-9.3-9.2-11.2c-3.2-1.3-6.4-2.5-9.2-4.6
	c-3-2.2-6.3-5.1-6.1-8.8c0.1-2.4,1.6-4.5,3.1-6.5c4.1-5.4,8.8-11.2,15.4-12.7c1.3-0.3,2.7-0.5,3.8-1.2c1.9-1.4,2.1-4.2,2.5-6.5
	c0.6-3.4,2-6.8,4.1-9.5c1.5-2,3.9-1.6,6.4-2c1.8-0.3,1.3-3.6,0.8-5.3c-0.5-1.8-2-3.3-3.9-3.4c-1.1,0-2.1,0.4-3.1,0.9
	c-3.7,1.6-7.8,2.6-11.8,2.2c-3-0.4-5.9-1.6-8.2-3.6c-1.8-1.5-3.4-3.5-5.7-4.2c-0.9-0.3-1.8-0.3-2.7-0.5c-3.7-0.9-8.9-4.4-7.6-7.9
	c0.1-0.3-0.1-0.4-0.1-0.7c0-0.3,0.4-0.6,0.2-0.9c-1.1-2.1-0.4-4.7,0.6-6.8c1-2.1,2.4-4.2,2.5-6.6c0.2-2.5-1-5.3,0.5-7.3
	c1.8-2.5,2-6,0.6-8.7c-1.4-2.7-4.4-4.5-7.5-4.5c-2.1,0-4-1-5.8-2c-1.6-0.9-3.2-1.7-4.8-2.6c-1.2-0.7-1.3-2.1-2.3-3.2
	c-1.4-1.5-4.2,0.8-6-0.2c-1.8-0.9-2.8-2.8-3.7-4.6c-1.8-3.9-3.4-7.9-4.6-12c-0.8-2.4-1.4-5-1-7.5c0.2-1.3,0.6-2.5,1.1-3.7
	c1.4-3.9,2.9-7.8,5.7-10.8c1.8-1.8,0.9-4.8,0.2-7.3c-1.1-3.7-1.8-7.8-0.1-11.3c0.8-1.6,2.1-3,3.1-4.6c3.5-6,1.3-13.6-1.1-20.1"/>
<path fill="none" stroke="#E1E1E1" stroke-miterlimit="10" d="M206.6,362.3c-2.3-2.6-6.4-1.6-9.9-2c-6.1-0.6-10.8-5.4-14.9-9.9
	c-0.5-0.5-0.9-1-1.4-1.5c-1.6-1.8-3.2-3.5-4.9-5.2c-3.5-3.5-7.4-7-8.9-11.7c-2-6.1-6.1-11.4-9.2-17.1c-0.4-0.7-0.8-1.4-1.4-1.9
	c-1.2-0.9-2.8-0.8-4-1.6c-1.2-0.8-1.6-2.6-0.9-3.9c0.5-0.9,1.4-1.5,2.1-2.2c2-2.1,2.4-5.2,2.1-8.1c-0.3-2.9-1-5.7-0.9-8.5
	c0.2-4.7,2.9-9.3,1.4-13.7c-1.7-4.9-7.3-5.6-7.7-10.7c-0.1-1.9,1.7-1.9,2-3.8c0.2-1.3,0.3-2,1.4-2.7s2.4-0.7,3.7-0.8
	c3.7-0.1,7.5-0.2,10.7,1.5c1.1,0.6,2.1,1.4,3.1,2c4.3,2.5,9.6,2.5,14.7,2.4c0.6,0,1.3-0.1,1.7-0.6c0.2-0.3,0.3-0.8,0.3-1.2
	c0-1.8-0.9-3.9-0.1-5.5c1-2,4.3,0.4,6.4-0.1c3-0.6,5.2-3.1,6.9-5.7c3.2-4.7-5.6-10.5-11.2-11.3c-0.9-0.1-1.6-0.7-2.4-1.1
	c-1.3-0.6-1.3-1.9-2.2-3c-3-3.7-6-7.3-9.4-10.4c-2.2-2-4.8-4.2-4.9-7.2c-0.1-1.4,0.2-3.4-1.1-3.9c-0.5-0.2-1-0.1-1.5-0.1
	c-1.8,0-3.5-1.3-4-3c-0.2-0.8-0.1-1.7-0.4-2.5c-0.2-0.9-0.8-1.6-1.3-2.4c-3.6-5.3-8.4-11.9-6.4-18.1c0.8-2.3,4.6-1.6,6.7-0.5
	c2.2,1.1,4,2.8,6.3,3.7c1.5,0.6,3.2,0.7,4.7,1.5c2.5,1.3,1.3,5.1,3.3,7.1c2.8,2.9,7.8-1.5,11.8-2.2c1.7-0.3,3.3,0.2,4.4,1.5
	c1.3,1.6,3.7-1.7,3.8-3.7s-0.6-4.3,0.4-6.1c1.5-3,5.9-2.9,8.9-1.5c0.6,0.3,1.2,0.6,1.9,0.5c0.7-0.1,1.2-0.6,1.7-1.1
	c2.8-2.7,8.6-1.2,10.3-4.6c1.2-2.5-3-5.4-1.3-7.6c0.6-0.8,1.6-1.3,1.9-2.3c0.3-0.9-0.2-1.9-0.3-2.8c-0.2-1.9,0.9-3.6,1.8-5.2
	c0.9-1.6,1.5-3.8,0.5-5.3c-2-2.8-6.7-0.4-9.8-1.8c-3.2-1.4-3.2-5.9-5.2-8.8c-1.6-2.4-4.1-5.2-6.9-4.7c-2.3,0.4-1.5,4.3-3.6,5.1
	c-3,1.1-5.5-3.4-8.3-5c-0.8-0.5-1.5-0.9-2.1-1.5c-1.7-1.7-2-4.7-0.7-6.8c1.3-2.1,4.1-3,6.4-2.2c1.7,0.6,3.3,2,5,1.4
	c1.3-0.5,1.8-2,2.5-3.2s2.4-2.2,3.4-1.2c0.4,0.4,0.5,1,0.7,1.5c1.2,3.2,5.7,5.4,8.7,3.9c2.1-1.1-0.4-4.6-0.1-7
	c0.3-3.7,5.1-5.3,6.9-8.6c0.7-1.3,0.9-2.8,1.1-4.3c0.6-5.5,1.1-11,1.3-16.5c0-1,0.1-2.1-0.4-3.1c-0.3-0.5-0.7-1-1.2-1.4
	c-2.7-2.3-6.1-3.7-9.6-3.9c-2.8-0.2-6.5,1.3-8.3-0.8c-1.8-2.2-1.3-5.6-2-8.4c-0.2-1-0.5-2-1.1-2.7c-1.4-1.6-4-1.2-6-1.9
	c-4-1.5-4.7-6.7-6.6-10.5c-1.2-2.4-3.1-4.8-2.4-7.4c0.9-3.5,6.3-3.7,8.2-6.8c1.4-2.2,2.7-7.6,1.3-10.4c-0.5-1.1-2.4,0.5-3.6,0.6
	c-0.3,0-0.7,0-0.9-0.2c-0.1-0.2-0.1-0.4-0.1-0.7c0.7-7.2,3.6-14.2,8.3-19.7c1.1-1.3,2.3-2.6,2.9-4.2c1.3-3.8-1.7-7.8-1.9-11.8
	c-0.1-1.5-0.8-2.4-1.9-3.5c-1.4-1.3-3-2.5-4.6-3.6"/>
<path fill="none" stroke="#E1E1E1" stroke-miterlimit="10" d="M150.3,363c0.3-0.3,0.6-0.6,1-0.8c2.6-2.1,5.7-3.7,7.3-6.6
	c1.6-3,1.2-6.7,0.7-10.1c-0.6-4.2-1.3-8.7-3.8-12.1c-2-2.6-4.8-4.3-7.3-6.4c-5.9-5-9.8-12.3-10.5-20c-0.4-3.8-0.5-8.4-3.8-10.2
	c-1-0.5-2.1-0.7-2.8-1.6c-0.9-1.2-0.4-2.9,0.3-4.3c1.9-4.2,4.2-8.2,6.9-12c1.7-2.4,3.5-5.6,1.7-7.9c-0.7-0.9-1.8-1.3-2.8-1.8
	c-5.9-2.4-12.1-4.8-18.4-4.1c-2.8,0.3-4,2.2-6.7,1.7c-2.7-0.5-4.8-1.4-4.5-6c0-0.5,0.1-1.3-0.4-1.2c-0.5,0.1-0.8,0.5-1.2,0.7
	c-1.4,0.9-3.4,0-4.2-1.5c-0.8-1.5-0.7-3.3-0.6-5c0.2-3.5,3.1-7.9,0.7-10.4c-0.9-0.9-3.9,1.3-3.8,0c0.2-2.4,1.6-5.6-0.3-10.8
	c-0.2-0.5-0.3-1-0.2-1.5c0.4-1.8,3-1.2,4.8-1.4c2.3-0.2,1.5-3.8,3.4-5.1c1.1-0.7,2.6,0,3.1-1.2c0.5-1.2,0.2-2.6,0-3.8
	c-0.2-1.3-0.3-2.7,0.5-3.7c0.5-0.6,1.2-1,1.8-1.3c1.8-1,3.9-1.9,5.8-1.4c0.9,0.3,1.8,0.9,2.7,0.9c2.3,0.1,3.3-3,5.3-4.2
	c1.1-0.7,2.5-0.8,3.8-0.9c5.9-0.3,13.7,2.8,17,3.2c1.5,0.2-2.2-3.4-1.1-4.5c1.8-1.8,8.6,0.8,7.3-1.4c-2.6-4.5-5.8-8.8-9.5-12.8
	c-2-2.2-3.8-6.1-6.5-7.3c-4.4-1.9-8.2-3-6.4-8.5c0.4-1.4,0.9-2.8,1.1-4.2s-0.1-3.1-1.3-4c-0.6-0.4-1.3-0.6-1.9-1
	c-1.3-1.2,0.2-2-0.1-3.8c-0.3-2.3-1-4.9-2-7c-1.6-3.5-7.2-2.2-9.6-5.2c-1.2-1.4-2-3.3-1.8-5.1c0.1-1,0.5-1.9,0.7-2.9
	c1.1-5-3.2-10.3-1.2-15c3.6-8.2,7-12.5,19.3-11.7c3.3,0.2,3.2-6.3,3.9-9.5c0.7-3.2,0.6-6.9-1.5-9.5c-1.2-1.5-3.1-2.5-3.7-4.3
	c-0.3-0.9-0.3-1.9-0.3-2.9c0.1-2.7,0.4-5.6,2.2-7.6c2.1-2.4,5.7-2.9,8.9-2.8s6.5,0.7,9.6-0.2c1-0.3,3.1-0.7,3.9-1.4
	c2.8-2.4,1.1-8.8-2-10.8c-3.6-2.4-8.3,8.6-11.3,5.5c-1.3-1.4-1.2-3.6-2.8-4.7c-1-0.7-2.2-1.1-2.9-2.2c-0.5-0.8-0.6-1.8-0.6-2.7
	c-0.1-2.1-0.2-4.3-0.3-6.4c-0.1-2.1-0.2-4.5,1.2-6.1c1.8-2.2,5.1-2.2,7.4-3.8c2.3-1.6,3.4-4.9,2.3-7.5c-0.6-1.6-1.9-3-1.9-4.6
	c0-1.2,0.7-2.4,0.4-3.6c-0.7-2.8-5-2-7.5-3.4c-2.4-1.3-2.9-4.4-4.3-6.8c-2.4-4.1-8.4-1.2-12.4-3.7c-1.9-1.2-0.5-5.1-2.7-5.4
	c-1.8-0.3-3.3,1.5-3.7,3.3c-0.5,1.8-0.5,3.7-1.4,5.3c-1.2,1.9-3.6,2.8-5.8,2.7c-2.3-0.1-4.4-1.1-6.3-2.2c-4-2.2-4.4-7.7-8.1-10.2
	c-2.5-1.7-6.5,4.6-8.8,2.6C80,11.2,89,4.1,94.3,1.9s10.7,2.3,16.4,1.9c1.3-0.1,1.3-2.2,1.8-3.4c0.6-1.4,1.4-2.6,2.4-3.8"/>
<path fill="none" stroke="#E1E1E1" stroke-miterlimit="10" d="M97.9,362.1c-2-2.2-1.8-5.5-1.6-8.5c0.3-3.6,2.1-7.4,0.3-10.5
	c-0.4-0.7-0.9-1.3-1.2-1.9c-1.1-2.2-0.1-5,1.5-6.8c1.6-1.9,5.8-2.3,5.7-4.7c-0.1-1.4-2.6-0.9-3.9-1.3c-1.3-0.3-2.8-1.1-3.1-2.5
	c-0.2-0.7,0.1-1.5-0.1-2.3c-0.2-0.9-0.9-1.7-1.6-2.3c-1.9-1.9-3.8-3.8-5.7-5.7c-0.4-0.4-0.9-0.8-1.4-0.9c-0.7-0.1-1.3,0.4-1.8,0.8
	c-2,1.7-3.9,3.4-6.3,4.6c-8.1,4.1-11.5-0.2-20,2.9c-1.7,0.6-3.9,1.1-5.4,0s-2.1-3.2-1.3-4.9c0.3-0.7,0.9-1.2,1.3-1.8
	c1.8-2.5,2.2-5.8,2.5-9c0.1-1.4,0.1-3-1-3.8c-1.1-0.8-2.8-0.4-3.5-1.5c-0.3-0.5-0.3-1.1-0.5-1.7c-0.4-1.1-1.7-1.7-2.9-1.8
	c-1.2-0.1-2.4,0.1-3.6,0c-2.3-0.2-4.2-1.6-6.1-3c-0.6-0.4-1.2-0.9-1.5-1.6c-0.3-0.6-0.2-1.4-0.3-2.1c-0.4-2.3-3-3.6-5.3-3.4
	s-4.3,1.6-6.2,3c-1.9,1.4-4,4.5-6,3.4c-3-1.7-1.7-6.7-1.9-10.2c0-0.6-0.1-1.3-0.4-1.9c-0.7-1.2-2.2-1.4-3.4-2
	c-5.2-2.5-4.3-11.8-9.8-13.5c-0.7-0.2-1.4-0.3-1.9-0.8c-0.4-0.4-0.6-0.9-1-1.4c-0.9-1.1-2.3-1.2-3.7-1.4"/>
<path fill="none" stroke="#E1E1E1" stroke-miterlimit="10" d="M61,362.2c0.3-1.1,0.8-2.2,1.3-3.1c0.3-0.6,0.7-1.3,0.8-2
	c0-0.6,0.1-1.2-0.3-1.6c-1.4-1.8-2.3-4.1-2.4-6.4c0-2.3-0.6-5.2-2.8-5.7c-1.8-0.4-3.5,0.9-4.8,2.2c-1.5,1.3-3,2.6-4.8,3.4
	c-1.8,0.7-4,0.9-5.7-0.2c-1.8-1.1-2.8-3.3-4.7-4.2c-1.2-0.5-2.5-0.4-3.7-0.6c-4.4-0.6-7.9-4.4-8.9-8.7c-0.2-0.8-0.4-1.8-1.1-2.2
	c-0.5-0.2-1-0.2-1.6-0.1c-4.6,0.6-9.3,0.9-14,0.8c-0.9,0-1.8-0.1-2.6-0.5c-1.3-0.7-1.9-2.4-1.8-3.9c0.1-1.5,2.3-2.9,1.5-4.3
	c-1.2-2.2-4.7-1.8-6.2-3.8c-0.4-0.5-0.6-1.1-0.8-1.8"/>
<path fill="none" stroke="#E1E1E1" stroke-miterlimit="10" d="M85.4,357.3c-0.5,0.2-0.1,1.1,0.4,1.3c0.5,0.2,1.1,0.1,1.6,0
	c0.5-0.1,1.2,0.3,1.6,0c0.4-0.2,0.3-1,0-1.3C88.2,356.4,86.5,356.8,85.4,357.3z"/>
<path fill="none" stroke="#E1E1E1" stroke-miterlimit="10" d="M33,246c0-1.9-0.3-3.9-1.3-5.6c-1-1.7-2.8-2.9-4.7-3
	c-1.8,0-3.4,1-4.6,2.4c-1.1,1.4-1.7,3.1-2.1,4.8c-0.4,2-0.5,4.2,0.7,5.8c0.6,0.8,1.5,1.3,2.4,1.8c1.8,0.9,4,1.5,5.9,0.7
	C31.9,251.8,32.9,248.7,33,246z"/>
<path fill="none" stroke="#E1E1E1" stroke-miterlimit="10" d="M91.6,230.6c-0.1-2.6-0.1-5.5,1.4-7.6c0.4-0.6,1-1.1,1.2-1.8
	c0.2-0.7,0.1-1.4,0-2.1c-0.3-2-1.2-4.5-3.2-4.6c-1.1-0.1-2.1,0.7-3,1.4c-0.9,0.8-1.8,1.5-2.7,2.3c-1.6,1.4-2.2,3.2-2.3,5.3
	c-0.1,3.8-0.7,7.6-2.1,11.1c-1.8,4.6-3.6,12.4-6.7,13.2c-0.8,0.2-1.6-1.1-2.2-0.6c-1.5,1.2-2.2,4.2-0.9,5.6c2.9,2.8,8.1-2,10.6-5.3
	c2.1-2.7,2.2-8.2,5.6-8.7c1.4-0.2,3.7,0.5,3.9,1.9c0.3,2-2.3,3.5-2.1,5.5c0.2,1.7-0.7,3.5-0.1,5.1c0.5,1.3,2.8-0.5,3.7-1.6
	s1.3-2.5,1.7-3.9c1-3.4,1.7-9.9,1.2-10.4c-0.9-0.8-2.6-0.1-3.2-1.2C91.7,233.2,91.6,231.9,91.6,230.6z"/>
<path fill="none" stroke="#E1E1E1" stroke-miterlimit="10" d="M-1.6,199.4c1.9-0.7,3.9-1.3,5.8-1.8c0.7-0.2,1.4-0.4,2.1-0.2
	c1,0.2,1.7,1.1,2.5,1.8c2.1,1.9,5.5,2.4,8,1c4-2.1,5.6-7.6,9.9-8.9c4.4-1.3,9.3,2.5,13.5,0.7c1.7-0.8,3-2.4,4.9-2.7
	c1.5-0.3,3,0.3,4.4-0.2c2.5-0.9,2.8-4.3,4.8-6c0.7-0.6,1.6-0.9,2.3-1.5c1.4-0.9,2.2-2.4,3.1-3.8c2.8-4.4,6.1-8.5,9.7-12.3
	c1.2-1.2,2.5-2.5,4.1-3.1c1.4-0.5,2.9-0.6,4.4-0.6c5.1,0,13.5,3.4,15.1,1.6c1.8-2.1-1.7-15.7-2.6-23.5c-0.2-1.5-0.3-3.2,0.6-4.4
	c0.5-0.6,1.1-1,1.6-1.6c1.1-1.6,0.3-3.8-0.2-5.7c-1.4-5.2,0.1-10.7,1.6-15.8c1.1-3.7,2.2-7.5,4.7-10.5c2.5-3,6.9-1.5,10.3-3.5
	c1.4-0.8-1.9-2.1-2.7-3.5c-0.6-1,1.8-2.1,1.4-3.2c-0.9-2.2-4.4-2-6.6-2.9c-0.7-0.3-1.4-0.6-2-1.2c-0.6-0.6-0.9-1.3-1.2-2
	c-1.4-3.2-3.9-6.1-4.3-9.5C93,71.6,100,66,96.9,62.7c-1.6-1.7-4.5,1.5-6.8,2.3c-3,1-6.5,2-9.1,0.2c-2.4-1.6-3-4.8-3.6-7.7
	c-0.8-4.1-2.1-8-3.8-11.9c-0.6-1.3-1.2-2.7-1.2-4.1c0-2.3,1.6-4.3,2.9-6.2c1.3-1.9,3.1-5.1,1.2-6.5c-1.1-0.8-2.6,0.7-3.3,1.9
	c-0.7,1.2-1,2.5-1.6,3.7c-2.2,4.9-7.9,7-13.2,8.1c-1.7,0.4-3.5,0.6-5-0.1c-2.5-1.2-3.1-4.5-3.3-7.4c-0.2-3-0.4-5.9,0.1-8.9
	c0.9-4.6,3.7-8.8,3.9-13.5c0.1-2.5-0.5-4.9-0.6-7.4S54,0.1,56-1.4c0.5-0.4,1.1-0.7,1.7-0.9"/>
<path fill="none" stroke="#E1E1E1" stroke-miterlimit="10" d="M-1.8,162.5c4.9-4.6,9.4-9.6,14.4-14.1c2.3-2.1,5.1-4.2,8.2-4.2
	c3.8,0.1,7.1,5.5,10.6,4c1.6-0.7,0.4-3.3-0.5-4.8c-0.9-1.4-2.1-2.7-2.7-4.3c-0.6-1.6-0.2-3.7,1.4-4.4c0.6-0.3,1.4-0.2,1.9-0.6
	c1.7-1.1,0.2-4,1.3-5.7c0.6-1,2-1.4,2.4-2.5c0.4-0.9-0.1-2-0.5-2.9c-1.7-4.6,2.8-8.2,5.1-12.5c2.6-5-1.6-11.8,1.8-16.3
	c0.7-0.9,1.5-2,1-3c-0.5-0.8-1.6-0.9-2.5-1c-2.5-0.4-4.5-2.3-5.8-4.4c-1.2-2.2-0.5-5.4-2.4-7.1c-2.8-2.5-6.5,3-9.1,5.6
	c-1.1,1.1-3.1,2-4,0.8c-1.1-1.5,1-3.2,1.8-4.8c1-1.9,0.1-4.3-1.7-5.5s-4.2,0.7-6.1-0.4c-4.1-2.3-1.6-9.2-2.3-13.7
	c-0.4-2.6-0.8-5.6,0.7-7.7c1.6-2.3,4.8-2.8,7.3-4.1c0.7-0.4,1.4-0.8,1.8-1.5c0.5-0.7,0.6-1.5,0.7-2.4c0.2-1.9,0.5-3.9-0.3-5.6
	s-2.7-2.5-4.5-2.3c-2.2,0.2-4.4-1.7-6-3.3c-2-2.1-2.2-5.2-2.3-8c-0.1-2.9,0-5.9,1.2-8.5c0.6-1.3,1.4-2.5,2.1-3.8
	c1.3-2.6,1.7-5.6,2.1-8.6c0.1-0.9,0.1-1.9-0.6-2.4c-0.7-0.5-1.8,0-2.2,0.7c-0.5,0.7-0.6,1.6-0.7,2.5C9.4,10,7.3,13.9,5.3,17.8
	C3.1,21.9,0.9,26-1.7,29.9"/>
<path fill="none" stroke="#E1E1E1" stroke-miterlimit="10" d="M180.7,251.2c-0.6-0.8-0.5-1.9-0.4-2.9c0-1.3,0.5-2.5,0.7-3.8
	c0.2-1.3,0-2.8-1-3.6c-0.5-0.4-1.2-0.6-1.8-0.9c-0.6-0.2-1.2-0.4-1.9-0.4c-1-0.1-2,0.3-2.9,0.7c-1.3,0.5-2.2,1.9-3.6,2
	c-1.9,0.2-3.7-0.8-5.6-0.9c-1.6-0.1-3.4,0.1-4.1,1.5c-0.4,0.8-0.2,1.9,0.3,2.7c0.5,0.8,1.3,1.4,2,1.9c1.8,1.4,3.6,2.8,5.4,4.1
	c1.3,1,2.6,2,4,2.6c2.4,1.1,5.2,1.4,7.7,0.7c0.8-0.2,1.7-0.6,2-1.3C181.9,252.7,181.3,251.9,180.7,251.2z"/>
<path fill="none" stroke="#E1E1E1" stroke-miterlimit="10" d="M239.1,185.3c0,0.4,0.2,0.7,0.5,1c1.2,1.2,4.5,0.6,4.1-1
	c-0.2-0.6-0.8-1.1-1.4-1.4c-0.6-0.3-1.4-0.2-2,0C239.6,184.1,239,184.7,239.1,185.3z"/>
<path fill="none" stroke="#E1E1E1" stroke-miterlimit="10" d="M254.5,48.5c-0.2,0.5-0.3,1.1-0.1,1.6c0.2,0.6,0.9,1,1.6,1.1
	c0.7,0.1,1.3-0.1,2-0.3c1.6-0.4,3.6-0.1,4.7-1.3c0.7-0.8-0.5-2.1-1.2-2.9c-0.9-1.1-1.9-2.3-3.4-2.3c-1,0-1.9,0.7-2.4,1.5
	S254.7,47.5,254.5,48.5z"/>
<path fill="none" stroke="#E1E1E1" stroke-miterlimit="10" d="M343.9,124.4c2.3-0.6,5.2-0.3,6.9-1.9c0.4-0.4-0.2-1.2-0.8-1.5
	s-1.1-0.5-1.5-1c-0.2-0.2-0.3-0.5-0.5-0.8c-1.1-1.9-3.5-2.4-5.2-3.7c-1.1-0.8-1.9-1.8-2.6-3c-0.3-0.5-0.5-0.9-0.8-1.4
	c-1.1-1.6-3.1-2.4-5-2.2c-0.1,0-0.3,0-0.4,0.1c-0.2,0.1-0.2,0.4-0.3,0.6c-0.2,0.9-0.3,1.9-0.2,2.8c0.5,2.8,3.9,4.5,4.1,7.4
	c0,0.6,0,1.3,0.5,1.6c0.5,0.3,1.2,0,1.8,0.1c1.5,0.2,1.5,2.9,3,3.1C343.2,124.6,343.6,124.5,343.9,124.4z"/>
<path fill="none" stroke="#D6D6D6" stroke-miterlimit="10" d="M188.6,242.5c-1.9-1.7-3.8-3.3-5.4-5.3c-1.2-1.5-2.2-3.3-3.4-4.8
	c-3.3-4.3-8-7.4-12.9-9.8c-1.9-0.9-3.8-1.8-5.4-3.1c-2.2-1.8-3.7-4.4-5.4-6.8c-5.2-7.5-12.3-13.5-19.4-19.4c-1.5-1.2-3.1-2.5-5-2.7
	c-1.8-0.2-3.1,1-4.8,0.6c-2.6-0.7-5.7-3.7-7.4-4"/>
<path fill="#EAEAEA" stroke="#D6D6D6" stroke-miterlimit="10" d="M261.1,304.2c-0.3-0.4-1.5-1-1.6-1.1c-0.1-0.1-0.3-0.1-0.5-0.2
	c-0.4-0.1-0.9-0.1-1.3,0c-0.4,0.1-0.8,0.4-1,0.8c-0.1,0.4,0.1,0.9,0.3,1.3c0.1,0.1,0.7,0.7,0.9,0.9c0.2,0.1,0.5,0.3,0.7,0.4
	c0.6,0.3,1.2,0.6,1.8,0.3c0.5-0.3,0.7-0.9,0.7-1.5C261.3,304.8,261.3,304.5,261.1,304.2z"/>
<path fill="none" stroke="#D6D6D6" stroke-miterlimit="10" d="M314.4,232.1c0.5-0.1,2.1,0.2,2.6-0.2c0.5-0.5,0.8-1.2,1.2-1.7
	c1.2-1.3,3.4-1.3,4.2-2.8c0.3-0.6,0.3-1.4,0.8-2c0.4-0.5,1.1-0.7,1.7-0.8c3.4-0.7,6.3-1,9.7-0.4"/>
<path fill="none" stroke="#D6D6D6" stroke-miterlimit="10" d="M273.5,219.1c1.7-0.8,3.3-1.5,5.3-1.6c0.5,0,1.2-0.5,1.6-0.2
	c0.9,0.5,1.4,1.6,2.2,2.2c1.9,1.6,2.1,4.4,3.1,6.7c0.2,0.5,0.5,1,0.9,1.3c0.7,0.5,1.7,0.1,2.7,0.1c2.3,0,4.6-0.5,6.8-1.7
	c1-0.6,2.3-0.6,3.5-0.5c1.2,0.1,1.4,0.7,1.9,1.7c0.8,1.4,1.6,3.3,2.7,4.8"/>
<path fill="none" stroke="#D6D6D6" stroke-miterlimit="10" d="M190,167.9c0.3-0.3,1.1-0.7,1.5-0.5"/>
<path fill="none" stroke="#4E9BD7" stroke-miterlimit="10" d="M190.4,167.8"/>
<path fill="none" stroke="#D6D6D6" stroke-miterlimit="10" d="M201.3,174.7c-0.3,1.5,0.9,2.8,1.5,4.2c0.8,2.2,1.7,3.9,3.4,5.3
	c1,0.8,1.7,2.2,2.6,3.1c2.5,2.4,5.5,4,8.6,5.5c1.1,0.5,2.4,1,3.4,1.7c0.6,0.4,1.6,0.8,2,1.4c0.6,1,0.7,1.9,0.6,3.1
	c-0.1,1.8-0.4,3.5-0.2,5.4c0.1,0.9,0.3,1.7,0.8,2.4s1.4,1.2,2.3,0.9"/>
<path fill="#EAEAEA" stroke="#D6D6D6" stroke-miterlimit="10" d="M290.3,187.3c-0.6,0.3-1.3,0.8-1.1,1.5c0,0.2,0.1,0.4,0.3,0.6
	c0.8,1.3,1.6,2.6,2.4,3.9c0.3,0.5,0.6,1,0.9,1.5c0.3,0.6,0.7,1.6,1.4,1.4c2.1-0.7,2-4.1,2.2-6.4c0.1-1.2-0.1-2.4-1-3.2
	c-0.7-0.6-1.7-0.7-2.6-0.5C291.9,186.4,291.1,186.8,290.3,187.3z"/>
<path fill="#EAEAEA" stroke="#D6D6D6" stroke-miterlimit="10" d="M307.4,231.4c-0.2,0.4-0.4,0.7-0.8,0.8c-0.6,0.1-1.1-0.4-1.7-0.4
	c-0.9-0.1-1.5,0.9-1.4,1.8c0.1,0.9,0.7,1.6,1.3,2.2c0.5,0.5,1.4,1.1,2,0.6c0.2-0.2,0.3-0.4,0.4-0.7c0.5-1,1.9-1.4,2.9-0.8
	c0.4,0.2,0.7,0.5,1,0.8c1.2,0.9,2.8,1,4.1,0.3c0.4-0.2,0.9-0.6,1-1c0.3-0.7-0.3-1.2-0.8-1.8c-0.8-1.1-2.1-1.6-2.9-2.6
	c-0.7-0.9-0.8-2.4-1.9-2.8c-0.3-0.1-0.6-0.1-0.9-0.3c-0.3-0.2-0.5-0.4-0.8-0.7c-0.6-0.6-1.6-0.7-2.4-0.7c-0.6,0-1.3,0-1.8,0.3
	c-0.5,0.3-1,0.9-0.8,1.5c0.2,0.7,0.9,1,1.6,1c0.7,0,1.5-0.4,2,0C308.2,229.5,307.8,230.7,307.4,231.4z"/>
<path fill="none" stroke="#D6D6D6" stroke-miterlimit="10" d="M308,226.4c3.6-1.4,7.5-3,11.1-4.4c0.7-0.3,1.4-0.6,2.1-1
	c0.6-0.4,1.1-0.9,1.9-1.1c1-0.2,1.9,0.6,2.9,0.9c1.1,0.4,2.4,0.3,3.5,0.6c1.1,0.4,1.6,1.5,2.4,2.3"/>
<path fill="#EAEAEA" stroke="#D6D6D6" stroke-miterlimit="10" d="M362.1,225.3c-1-0.7-2.1-1.3-2.3-2.4c-0.1-0.5,0-0.9-0.1-1.4
	c-0.3-0.8-1.3-1.2-2.2-1.2c-0.9,0-1.8,0.2-2.7-0.1c-1.3-0.4-2.2-1.8-3.5-2.2c-1-0.3-2.1,0-3-0.5c-0.5-0.3-0.8-0.7-1.3-1
	c-0.7-0.5-1.5-0.6-2.3-0.7c-1.4-0.2-2.8-0.4-4.1,0.1c-1.4,0.5-2.3,1.8-3.2,3.1c-0.9,1.4-1.7,2.8-2.5,4.3c-0.4,0.9-0.9,1.9-0.6,2.8
	c0.5,1.3,2.3,1.8,2.8,3c0.8,1.8-1.3,3.6-1.6,5.6c-0.2,1.1,0.2,2.3-0.1,3.5c-0.4,1.5-1.9,2.9-1.5,4.4c0.2,0.6,0.6,1.1,0.7,1.6
	c0.1,0.7-0.3,1.4-0.6,2.1c-1.1,2.2-1.8,4.7-2.1,7.1c-0.1,0.7-0.1,1.3,0.1,2c0.3,1,1,1.8,1.8,2.5c1.9,1.8,3.8,3.6,5.8,5.3
	c0.9,0.8,1.9,1.6,3.1,1.9c2.2,0.6,4.7-0.6,6.6,0.7c0.6,0.4,1,1,1.5,1.6c1.3,1.6,3.1,2.7,5,3.3c2,0.6,4.1,0.6,6.1,0.1"/>
<path fill="#EAEAEA" stroke="#D6D6D6" stroke-miterlimit="10" d="M246.1,219.6c3.5,3.7,6.1,7.9,11.9,8.4c1.3,0.1,2.7,0.2,4,0.3
	c2,0.1,4.3,0,5.6-1.4c0.6-0.7,1.1-1.6,1.9-1.9c0.5-0.1,1-0.1,1.4-0.2c0.9-0.3,1.4-1.2,1.8-2c0.6-1.2,1.2-2.6,0.9-3.9
	c-0.2-0.9-0.8-1.6-1.4-2.3c-1.9-2.2-4-4.1-6.1-6.1c-3.3-3-6.6-6.1-9.9-9.1c-1.6-1.5-3.3-3-5.2-4.1c-2-1.2-4.2-1.8-6.5-2.3
	c-3-0.6-6.1-0.9-9.2-0.8c-0.3,0-0.7,0-1,0.2c-0.5,0.4-0.5,1.2-0.8,1.7c-0.4,0.7-1.3,0.9-2,1.1c-4.3,1.3-6.8,6.5-5.1,10.6
	c1,2.4,3.1,4.2,5.1,5.9c1.3,1,2.6,2.1,3.8,3.1c0.6,0.5,1.2,1,2,1.3c0.7,0.3,1.5,0.3,2.2,0.3C241.5,218.5,244.7,218.2,246.1,219.6z"
	/>
<path fill="#EAEAEA" stroke="#D6D6D6" stroke-miterlimit="10" d="M198,163.1c0.7-0.8,1.3-1.8,2.3-2.1c1-0.2,2,0.5,2.8,1.1
	c0.3,0.3,0.6,0.5,0.8,0.9c0.1,0.3,0.1,0.7,0,1c-0.3,2-0.6,4-0.9,6.1c-0.2,1.3,0.6,2.7,0.2,3.9c-0.3,0.9-1.9,0.3-2.9-0.1
	c-1.6-0.5-3-1.4-4.4-2.2c-1-0.6-1.9-1.1-2.9-1.7c-0.6-0.4-1.3-0.8-1.6-1.5c-0.2-0.6,0-1.3,0.4-1.8c0.4-0.5,1-0.9,1.5-1.2
	C195,164.9,196.8,164.4,198,163.1z"/>
<path fill="#7BBCEB" stroke="#4E9BD7" stroke-miterlimit="10" d="M187.1,178c0-2.5,0.9-4.6,2.2-6.7c0.4-0.6,0.7-1.2,0.8-1.8
	s-0.2-1.4-0.8-1.7c-0.4-0.2-0.8-0.1-1.2-0.1c-6.6,0.4-13.1,0.5-19.7-0.3c-0.8-0.1-1.7-0.2-2.5,0.1c-0.8,0.3-1.6,0.8-1.5,1.6
	c0.1,0.8,1,1.3,1.3,2.1c0.5,1,0,2.1,0.4,3.2c0.3,1,1.2,1.6,2,2.2c5,3.4,10,6.9,15,10.3c1,0.7,2.3,1.3,3.2,0.7
	c0.3-0.2,0.6-0.6,0.7-0.9C188.2,183.8,187.1,180.7,187.1,178z"/>
<path fill="#EAEAEA" stroke="#D6D6D6" stroke-miterlimit="10" d="M359.4,104c0.3,0.3,0.7,0.5,1,0.7c0.7,0.4,1.7,0.3,2.4,0
	c0.6-0.2,0.4-1.3-0.1-1.7c-0.4-0.5-1.1-0.6-1.8-0.6c-0.6,0-1.3-0.1-1.6,0.4C359.2,103.2,359.2,103.7,359.4,104z"/>
<path fill="#EAEAEA" stroke="#D6D6D6" stroke-miterlimit="10" d="M344,89.5c-0.4,0.2-1.1,0.6-1.2,0.2c-0.1-0.2,0-0.5-0.2-0.6
	c-0.4-0.5-1.3-0.5-1.7,0c-0.5,0.5-0.6,1.2-0.4,1.8c0.1,0.6,0.3,1.4,0.8,1.8c0.4,0.3,0.9,0.5,1.3,0.4c0.9-0.3,1.4-1.4,2.3-1.8
	c0.4-0.1,0.8-0.2,1.1-0.5s0.8-0.7,0.5-1C346.1,88.9,344.8,89.1,344,89.5z"/>
<path fill="#EAEAEA" stroke="#D6D6D6" stroke-miterlimit="10" d="M355,68.5c0.5,0,0.9-0.5,1.2-1c0.1-0.2,0.2-0.5,0-0.7
	c-0.1-0.2-0.4-0.3-0.7-0.4c-0.7-0.1-1.6-0.9-2.1-0.4c-0.4,0.4,0.1,1.1,0.4,1.6C353.9,68.2,354.4,68.5,355,68.5z"/>
<path fill="#EAEAEA" stroke="#D6D6D6" stroke-miterlimit="10" d="M286-2.9c-0.5,1.1-1.1,2.4-0.7,3.5c0.4,1.3,1.8,2,3.1,2.3
	c1.3,0.3,2.7,0.3,4,0.9s2.1,2.1,1.5,3.3c-0.3,0.6-0.9,0.9-1.5,1.3c-1.6,1-3.3,2.3-3.4,4.2c-0.1,1.5,1,2.9,0.9,4.4
	c0,0.9-0.4,1.9-0.1,2.8c0.3,0.8,1.2,1.3,2,1.6c1.9,0.9,3.8,1.8,5.7,2.7c1.8,0.8,3.7,1.7,5.6,1.4c2.1-0.3,3.8-2,4.4-4
	c0.5-1.4,0.5-3,1.2-4.3c0.4-0.8,1.1-1.5,1.8-2.2c2-1.8,4.1-5,6.7-4.5c1.4,0.3,0,2.6-0.4,4c-0.6,2,0.3,4.3,1.7,5.9
	c1.4,1.6,3.3,2.7,5.1,3.8c0.6,0.4,1.2,0.7,1.8,0.7c1.3-0.1,1.8-1.9,1.4-3.1c-0.4-1.3-1.2-2.4-1.4-3.7c-0.1-0.8,0-1.7,0.5-2.5
	c0.2-0.4,0.5-0.7,0.7-1.1c0.6-1.4-0.4-3-1.5-4s-2.6-1.7-3.5-2.9c-0.7-1-1-2.3-1.3-3.5c-0.4-1.5-0.8-3-1.7-4.2
	c-0.9-1.2-2.3-2.2-3.8-2.3c-1,0-2,0.3-3,0.7c-5.1,1.9-10.5,5.1-15.9,4.1c-1.3-0.2-0.6-2.4,0.1-3.5c0.4-0.6,0.8-1.3,1.2-1.9"/>
<path fill="none" stroke="#D6D6D6" stroke-miterlimit="10" d="M362.4,64.4c-2,0.2-4,0.3-5.5,0.1c-10-1.2-9.9,1.9-11.8,0.6
	c-0.9-0.7-0.4-2.2-1-3.2c-0.6-1-2.2-0.7-2.7-1.7c-0.7-1.4-0.5-3-1.9-3.6c-1.4-0.6-3.1-0.8-4.1-1.9c-0.8-0.9-0.9-2.2-0.4-3.3
	c0.4-0.8,1.2-1.4,1.3-2.3c0-0.4-0.1-0.8-0.2-1.2c-0.2-0.5-0.3-1-0.5-1.6c-0.6-1.7-1.1-3.8-0.1-5.3c0.7-1,2.4-1.1,3.4-1.7
	s1.5-1.9,1.4-3.1c0-0.7,0-1.5-0.4-2.1c-1.6-2.3-3.7-4.4-5.3-6.7c-0.3-0.4-0.5-0.7-0.9-1c-1.2-0.8-2.7-0.2-4.2-0.2
	c-1.1,0-2.4-1-3.2-1.8"/>
<path fill="none" stroke="#4E9BD7" stroke-miterlimit="10" d="M164.5,168.2c-2.2-0.3-4.9-0.4-7.1-0.7c-3.4-0.4-6.4-0.7-9.7,0.2
	c-1.3,0.4-3.1,0.8-4.4,1c-2.7,0.2-5.4-1.5-8.1-1.3c-2.7,0.3-4.8,2.4-6.6,4.5c-1.4,1.5-2.8,3.2-3.3,5.2c-0.1,0.6-0.2,1.2-0.4,1.8
	c-0.2,0.7-0.6,1.3-0.9,2c-0.8,1.5-1.6,2.9-2.4,4.4c-0.5,0.9-1.2,2-2.2,2c-0.6,0-1.1-0.3-1.6-0.7c-2.8-1.9-5.1-4.6-7.4-7.1
	c-2-2.1-3.8-3.7-5.3-6.1c-1.3-2-2.9-4-4.7-5.6c-0.9-0.8-2-1.5-3-2.1c-1.6-1-3.1-1.7-4.2-3.2c-1.5-2-2-4.6-3.5-6.6
	c-1.7-2.3-4.2-4.2-6.2-6.1c-1.1-1-2.3-1.5-3.4-2.5c-0.6-0.5-1.2-1.1-1.8-1.6c-1-0.8-2.1-1.4-3.1-2c-3.8-2.2-7.5-4.4-11.6-6
	c-0.8-0.3-1.6-0.6-2.1-1.3c-0.2-0.3-0.3-0.7-0.6-0.9c-0.4-0.4-1-0.4-1.5-0.3c-1.4,0-2.8,0.1-4.1-0.4c-0.6-0.2-1.2-0.6-1.7-1
	c-2.5-2-4.4-4.8-5.2-7.9c-0.1-0.3-0.2-0.7-0.4-0.9c-0.2-0.2-0.5-0.3-0.8-0.3c-3.2-0.5-6.2,2.2-9.4,1.6c-3.4-0.6-3.9-4.8-7.3-4.5
	c-2.8,0.2-7.8-0.3-10.6,0.2c-1.3,0.2-2.6,0.5-3.7-0.1c-0.5-0.3-0.9-1.6-1.3-2.1c-2.5-2.9-5.4-4.6-8.5-6.9c-0.4-0.3-0.8-0.6-1.3-0.6
	c-0.5,0-0.9,0.3-1.3,0.6c-1.8,1.4-3.1,3.2-4.6,5"/>
<path fill="#EAEAEA" stroke="#D6D6D6" stroke-miterlimit="10" d="M77.6,109.8c-0.8-0.2-1.8,0-2.3-0.6c-0.5-0.6-0.5-1.6-1.1-2.1
	c-0.4-0.3-1-0.5-1.4-0.4c-0.7,0.2-1,1-1.4,1.5c-0.4,0.4-0.9,0.7-1.3,1.1c-0.4,0.4-0.7,1-0.5,1.5c0.2,0.4,0.7,0.6,1.2,0.6
	s0.9-0.2,1.3-0.4c0.6-0.2,1.2-1,1.7-0.7c0.9,0.4,1,1.8,1.9,2.3c0.4,0.2,0.9,0.4,1.4,0.2c0.6-0.2,1-0.8,1.3-1.4
	c0.2-0.5,0.4-1.1,0-1.4C78.1,110,77.8,109.9,77.6,109.8z"/>
<path fill="#EAEAEA" stroke="#D6D6D6" stroke-miterlimit="10" d="M104.5,208.5c-0.6,0.1-1.5-0.2-1.9,0.2c-0.7,0.7,0.6,1.9,0.1,2.8
	c-0.3,0.5-0.9,0.7-1.4,1c-0.5,0.2-1.1,0.6-1.2,1.2c-0.1,1.1,1,1.7,1.7,2.6c0.4,0.5,1.4,0.6,1.8,0.2c0.4-0.5,0.4-1.3,1-1.6
	c0.2-0.1,0.5-0.1,0.7-0.2c1.4-0.5,1.8-2.3,1.8-3.7c0-0.7,0-1.6-0.6-2C105.9,208.4,105.2,208.5,104.5,208.5z"/>
<path fill="#EAEAEA" stroke="#D6D6D6" stroke-miterlimit="10" d="M166.4,141.7c1-2.2,1.4-4.8,1-7.2c0-0.2-0.1-0.3-0.2-0.4
	c-0.2-0.2-0.5-0.1-0.7,0c-0.8,0.3-1.7,0.6-2.5,0.8c-1.1,0.4-2.3,0.8-2.9,1.8c-0.6,0.9-0.6,2-0.5,3.1c0,0.5,0,1,0.3,1.4
	c0.4,0.5,1,0.6,1.7,0.7c1,0.1,2,0.2,3,0.4c0.1,0,0.3,0,0.4,0C166.2,142,166.3,141.8,166.4,141.7z"/>
<path fill="#EAEAEA" stroke="#D6D6D6" stroke-miterlimit="10" d="M207.4,126.6c0.1,0.2,0.3,0.3,0.5,0.4c0.5,0.1,1-0.2,1.2-0.7
	c0.2-0.4,0.3-1,0.3-1.5c0-0.3,0-0.6,0.1-1c0-0.4,0-0.9-0.2-1.2c-0.2-0.4-0.9-0.7-1.1-0.4c-0.2,0.4-0.5,0.7-0.7,1.1
	c-0.1,0.2-0.1,0.4-0.1,0.5c0,0.8,0,1.6-0.1,2.5C207.3,126.4,207.3,126.5,207.4,126.6z"/>
<path fill="#EAEAEA" stroke="#D6D6D6" stroke-miterlimit="10" d="M155.7,109.8c0.8-0.5,0.8-1.7,0.4-2.6c-0.8-2-3.4-4.9-5.1-3.5
	c-0.9,0.8-0.1,2.5,0.2,3.7c0.1,0.4,0.2,0.8,0.4,1.2c0.5,0.7,1.5,1,2.3,1.2C154.6,109.9,155.2,110,155.7,109.8z"/>
<path fill="#EAEAEA" stroke="#D6D6D6" stroke-miterlimit="10" d="M154.7,71.9c-0.2-0.4-0.7-0.6-1.1-0.8c-0.9-0.4-2-0.8-2.9-0.2
	c-0.4,0.3-0.7,0.8-0.8,1.3c-0.4,1.4,0,2.9,0.5,4.2c0.1,0.3,0.2,0.5,0.4,0.8c0.5,0.7,1.4,1.1,2.2,1.3c0.7,0.3,1.6,0.5,2.3,0.1
	c0.9-0.6,0.7-2-0.1-2.8c-0.3-0.2-0.6-0.4-0.7-0.8C153.8,74.1,155.1,72.9,154.7,71.9z"/>
<path fill="#EAEAEA" stroke="#D6D6D6" stroke-miterlimit="10" d="M147.2,61.6c-0.4,0.4-0.5,1.1-0.2,1.7c0.3,0.5,0.9,0.9,1.4,0.8
	c1.2-0.1,1.8-1.4,2.5-2.4c0.3-0.5,0.8-0.9,0.8-1.5c0.1-0.6-0.4-1.3-1-1.1c-0.1,0-0.3,0.1-0.4,0.2c-0.9,0.6-1.8,1.2-2.7,1.9
	C147.6,61.2,147.4,61.4,147.2,61.6z"/>
<path fill="none" stroke="#D6D6D6" stroke-miterlimit="10" d="M16.2-3.2C13.2,1.9,11.3,7,9.2,12.5c-2,5.4-3.6,12.2-6.9,17.1
	c-1.1,1.6-2.5,3.4-2,5.3c0.1,0.5,0.4,1,0.5,1.5c0.8,2.4-0.8,5.2-3.1,6"/>
<path fill="#EAEAEA" stroke="#D6D6D6" stroke-miterlimit="10" d="M58.1,208.7c-0.3,0.2-0.6,0.4-0.7,0.7c-0.4,0.8,0.1,2.3,1,2.1
	c0.6-0.1,0.9-0.8,1.4-1c0.6-0.2,1.2-0.3,1.7-0.7c0.5-0.4,0.8-1.1,0.5-1.6c-0.4-0.7-1.5-0.6-2.3-0.3
	C59.1,208.2,58.6,208.4,58.1,208.7z"/>
<path fill="#EAEAEA" stroke="#D6D6D6" stroke-miterlimit="10" d="M155.4,237.6c-0.4-0.5-1.3-0.2-1.9-0.2c-0.8,0-1.6-0.5-2.4-0.5
	c-1.2,0.1-2.1,1.6-1.5,2.6c0.5,0.8,1.5,1.1,2.4,1.1c0.3,0,0.3,0.2,0.5,0.4c0.8,0.7,2-0.5,2.9-1.1c0.4-0.3,0.2-1,0.2-1.5
	C155.6,238.2,155.5,237.9,155.4,237.6z"/>
<path fill="#FFFFFF" stroke="#D6D6D6" stroke-miterlimit="10" d="M237.4,209.6c0.1-0.9,0.1-1.8,0.5-2.6c0.7-1.3,1-2.7,1.1-4.1
	c0-0.1,0-0.3,0-0.4c-0.2-0.4-0.8-0.3-1.3,0c-0.8,0.4-1.8,0.6-2.3,1.3c-0.4,0.5-0.4,1.3-0.6,2c-0.4,1.4-1,3.2,0,4.3
	C235.4,210.6,237.3,210.5,237.4,209.6z"/>
<path fill="#FFFFFF" stroke="#D6D6D6" stroke-miterlimit="10" d="M253.7,206.7c-0.5,0.8-0.4,1.9-0.3,2.8c0.2,1.4,1.7,2.1,3.1,2.4
	c1.3,0.4,3.1,1.5,4,0.5c0.2-0.3,0.1-0.7-0.1-1c-0.5-1.2-1.8-1.8-3-2.4c-0.3-0.2-0.6-0.3-0.9-0.5c-0.5-0.3-0.8-0.8-1.2-1.3
	C254.8,206.9,254,206.2,253.7,206.7z"/>
<path fill="none" stroke="#585858" stroke-miterlimit="10" stroke-dasharray="4,1" d="M321.7-2.1c1.2,0.8,2.6,1.4,3.9,1.9
	c3.2,1.1,6.6,1.5,10,1.5c1.2,0,2.4-0.1,3.5,0.2c3.5,0.8,5.8,4.1,8.2,6.8c3.6,4.1,8.4,7.3,13.6,9.1c0.3,0.1,0.7,0.2,1,0.4"/>
<path fill="none" stroke="#585858" stroke-miterlimit="10" stroke-dasharray="4,1" d="M74.2-4c-0.4,2.9,0.8,6.1-0.8,8.6
	c-0.6,0.9-1.4,1.8-1.6,2.9c-0.3,1.5,0.5,3,1.1,4.5c4,8.9,1.4,25.5-3.6,27c-4.4,1.3-9.2,10.8-6.6,11.2c4.3,0.8,3.9,6.8,5.8,10.8
	c0.8,1.7,1.9,3.2,2.5,4.9c1.7,4.8-0.3,10-2.2,14.6c-0.7,1.7-1.4,3.4-2.7,4.8c-1.1,1.2-2.6,2-3.6,3.3c-0.7,0.9-1,6.6-1.9,7.3
	c-3.9,3.1-5,15.5-7.1,23"/>
<path fill="none" stroke="#585858" stroke-miterlimit="10" stroke-dasharray="4,1" d="M-1.3,237.2c1-3.5,1.9-6.9,2.9-10.4
	c0.2-0.8,0.5-1.7,1-2.4c0.8-1,2-1.5,3.2-2c4.5-1.9,8.7-4.9,11.9-8.6c2.6-2.9,4.8-6.3,8.2-8c1.8-0.9,3.8-1.3,5.8-1.8
	c4.3-1.1,8.4-2.7,12.2-4.9c0.6-0.3,1.1-0.7,1.4-1.2c0.6-1.1,0-2.5,0.5-3.7c0.8-2.2,3.9-1.9,6.3-2.1c5.8-0.5,9.2-6.6,13.2-10.9
	c4.9-5.4,11.7-8.6,18.3-11.7c1.9-0.9,4-1.8,6.1-1.7c1.8,0.1,3.5,0.9,5.3,1.2s4.4,0.1,4.8-1.6c0.6-2.7-1.9-5.1-3.5-7.3
	c-6-8-6.1-9.9-10.5-14.5c-0.7-0.7-11.1-8.3-12-8.8c-0.8-0.4-2.9-0.3-3.8-0.6c-4.1-1.3-6.2-5.9-7.8-9.1c-0.3-0.7-1.8,0.1-2.2-0.5
	c-1.1-1.5,2.5-5.8,0.8-5.4c-3.2,0.7-4.6-0.4-7.2-1.8c-1.1-0.6-3.7,1.1-4.8,1.7c-1.2,0.5-2.8,0.7-3.5-0.4c-2.1-2.9-3.7-6.1-5.2-9.3
	c-0.5-1.1-1.1-2.3-2-3.2c-1.4-1.4-5-0.6-5.8-2.5c-1.6-3.6-4.3-7.1-7.5-10.7c-1.1-1.3-2.4-2.5-4-3.1s-3.6-0.3-4.7,1
	c-1,1.3-1.1,3.2-2.3,4.3c-1.1,1-2.8,0.9-4.3,1c-1.5,0-3.3,0.5-3.8,1.9c-0.2,0.5-0.1,1.1-0.3,1.7c-0.2,0.7-0.6,1.3-1.1,1.9
	c-1.6,2-3.8,4.3-6.3,3.7c-0.3-0.1-0.6-0.2-0.8-0.3"/>
<path fill="none" stroke="#585858" stroke-miterlimit="10" stroke-dasharray="4,1" d="M100.6,165.4c0.5,1.8,2.8,2.7,4.4,1.9
	c0.5-0.3,1-0.7,1.5-0.8c0.9-0.2,1.8,0.5,2.6,0.8c3.3,1.1,6.5-1.8,9.8-2.8c3.7-1.2,8.5-0.2,10.3-3.6c0.3-0.6,0.5-1.4,0.9-1.9
	c1.4-2,4.4-0.9,6.7-0.2c3.3,0.9,6.9,0.5,9.9-1.1c0.8-0.4,1.7-1,2.6-1.1c1-0.1,2,0.4,2.9,0.9c8,3.8,17.7,4,25.9,0.5
	c2.2-1,4.5-2.2,7-2.1c1.3,0.1,2.5,0.5,3.8,0.7c3,0.5,6.1-0.6,9.1-0.1c3.8,0.6,7.1,3.6,8.3,7.2c1.2,3.7,2.3,6.9,0.5,10.3
	c-0.4,0.8-2.6,0.6-2.8,1.5c-0.5,3.9,3,9.6,6.6,11.1c2.2,0.9,6.5-0.1,8.4,1.3c1.9,1.4,1.5,2.7,3.5,4c2,1.3,4.9,1.7,6.5,0
	c0.6-0.7,1-1.6,1.8-2.1c0.6-0.3,1.2-0.4,1.9-0.5c3.7-0.3,7.9,1,11-0.9c1.3-0.8,0.6-3,0.7-4.6c0.1-1.6,0.7-3.4,2.3-3.7
	c0.9-0.2,1.9,0.2,2.5-0.5c0.4-0.4,0.4-1,0.8-1.3c0.9-0.6,1.7,0.7,2.3,1.5c1.7,2,5.1,1,7.5,2.3c1.4,0.7,2.3,2.1,3.6,2.9
	c1.1,0.6,2.5,0.4,3.7,0.7c6.4,1.5,10.4,0.1,13.3,2.8c1.4,1.3-0.9,2.4,0.4,3.2c1.2,0.9,1.3,2.3,2.4,3.3c1.2,1.1,2.3,1.3,3.8,1.8
	c0.8,0.3,1.9,1.2,2.5,1.8c0.9,0.9,0.9,2.3,1.4,3.5c1.3,3.4,6.1,5.5,5.6,9.1c-0.1,1-0.1,2.1-0.5,3.1c-0.3,1-0.4,1.9,0.4,2.5
	c0.5,0.4,2.1,0.7,2.8,0.8c1.9,0,3.7-0.6,5,0.8c1.2,1.2,0.4,2.8,2,3.5c0.7,0.3,1.4,0,2.1,0.1c2.3,0.4,4.7-1,6.1,0.9
	c1,1.3,2,3.2,3.5,3.7c1.5,0.5,3.2,0.5,4.8,0.8c2,0.5,3.8,1.7,5.9,2s4.6-0.6,4.9-2.6"/>
<path fill="none" d="M262.6,302.5c3.7,11.6,7.5,23.2,11.2,34.7"/>
<text transform="matrix(0.3081 0.9514 -0.9514 0.3081 262.6878 310.8931)"><tspan x="0" y="0" fill="#7D7D7D" font-family="'Verdana-Italic'" font-size="7">9</tspan><tspan x="4.5" y="0" fill="#7D7D7D" font-family="'Verdana-Italic'" font-size="7" rotate="0">4</tspan><tspan x="8.9" y="0" fill="#7D7D7D" font-family="'Verdana-Italic'" font-size="7" rotate="0">0</tspan><tspan x="13.3" y="0" fill="#7D7D7D" font-family="'Verdana-Italic'" font-size="7" rotate="0">0</tspan></text>
<text transform="matrix(1 0 0 1 210.6398 166.9903)"><tspan x="0" y="0" fill="#7BBCEB" font-family="'Verdana-Italic'" font-size="8">Chain Lakes</tspan><tspan x="0" y="9.6" fill="#7BBCEB" font-family="'Verdana-Italic'" font-size="8">(lower)</tspan></text>
<text transform="matrix(1 0 0 1 279.5187 246.6659)"><tspan x="0" y="0" fill="#585858" font-family="'Verdana-Italic'" font-size="8">Chain Lakes</tspan><tspan x="17.1" y="9.6" fill="#585858" font-family="'Verdana-Italic'" font-size="8">(Upper)</tspan></text>
<text transform="matrix(1 0 0 1 197.0123 228.8261)"><tspan x="0" y="0" fill="#585858" font-family="'Verdana-Italic'" font-size="8">Chain Lakes</tspan><tspan x="15.3" y="9.6" fill="#585858" font-family="'Verdana-Italic'" font-size="8">(Middle)</tspan></text>
<text transform="matrix(1 0 0 1 301.7997 286.8584)" fill="#585858" font-family="'Verdana-Italic'" font-size="8">× 9866</text>
<text transform="matrix(1 0 0 1 165.2164 208.9418)" fill="#585858" font-family="'Verdana-Italic'" font-size="8">× 9133</text>
<text transform="matrix(1 0 0 1 255.2997 48.7751)" fill="#585858" font-family="'Verdana-Italic'" font-size="8">× 9857</text>
<path fill="none" d="M53.5,42.4c-2.5-1.2-3.1-4.5-3.3-7.4c-0.2-3-0.4-5.9,0.1-8.9c0.9-4.6,3.7-8.8,3.9-13.5c0.1-2.5-0.5-4.9-0.6-7.4
	"/>
<text transform="matrix(-1.384397e-02 -0.9999 0.9999 -1.384397e-02 52.5642 32.9541)"><tspan x="0" y="0" fill="#7D7D7D" font-family="'Verdana-Italic'" font-size="7">8</tspan><tspan x="4" y="-0.1" fill="#7D7D7D" font-family="'Verdana-Italic'" font-size="7" rotate="11">6</tspan><tspan x="7.9" y="0.7" fill="#7D7D7D" font-family="'Verdana-Italic'" font-size="7" rotate="20.9">0</tspan><tspan x="12.1" y="2.4" fill="#7D7D7D" font-family="'Verdana-Italic'" font-size="7" rotate="19.7">0</tspan></text>
<path fill="none" d="M53.4,323.1c1.5,1,3.7,0.6,5.4,0c8.5-3.1,12,1.1,20-2.9c2.3-1.2,4.3-2.9,6.3-4.6"/>
<text transform="matrix(0.9895 -0.1444 0.1444 0.9895 61.0022 324.8325)"><tspan x="0" y="0" fill="#7D7D7D" font-family="'Verdana-Italic'" font-size="7">8</tspan><tspan x="4" y="0" fill="#7D7D7D" font-family="'Verdana-Italic'" font-size="7" rotate="10.9">6</tspan><tspan x="8.5" y="1" fill="#7D7D7D" font-family="'Verdana-Italic'" font-size="7" rotate="6.4">0</tspan><tspan x="13.7" y="1.5" fill="#7D7D7D" font-family="'Verdana-Italic'" font-size="7" rotate="-9.6">0</tspan></text>
<path fill="none" d="M250.3,130.9c2.3,0.7,3.9,2.7,5.7,4.2c2.3,1.9,5.2,3.2,8.2,3.6c4,0.5,8.1-0.6,11.8-2.2"/>
<text transform="matrix(0.7611 0.6486 -0.6486 0.7611 252.5203 135.4931)"><tspan x="0" y="0" fill="#7D7D7D" font-family="'Verdana-Italic'" font-size="7">9</tspan><tspan x="5.2" y="-0.1" fill="#7D7D7D" font-family="'Verdana-Italic'" font-size="7" rotate="-16.3">2</tspan><tspan x="10.1" y="-1.7" fill="#7D7D7D" font-family="'Verdana-Italic'" font-size="7" rotate="-32.4">0</tspan><tspan x="14.4" y="-4.5" fill="#7D7D7D" font-family="'Verdana-Italic'" font-size="7" rotate="-47.1">0</tspan></text>
<path fill="none" d="M326.1,191.8c2.2,3.2,4,7.3,7.7,8.3c2.5,0.6,5.1-0.4,7.6-0.8c3.3-0.6,6.7-0.2,10,0.2c4.4,0.5,9.8-1.4,13.1,1.6"
	/>
<text transform="matrix(0.9953 -9.715089e-02 9.715089e-02 0.9953 334.4964 203.0112)"><tspan x="0" y="0" fill="#7D7D7D" font-family="'Verdana-Italic'" font-size="7">9</tspan><tspan x="4.7" y="-0.2" fill="#7D7D7D" font-family="'Verdana-Italic'" font-size="7" rotate="-6">4</tspan><tspan x="8.6" y="-0.7" fill="#7D7D7D" font-family="'Verdana-Italic'" font-size="7" rotate="6.1">0</tspan><tspan x="12.8" y="-0.2" fill="#7D7D7D" font-family="'Verdana-Italic'" font-size="7" rotate="11.9">0</tspan></text>
<path fill="none" d="M311,75.4c3.9,2,8.4,1.9,12.7,2.7c1.1,0.2,2.3,0.5,3.2,1.3c0.9,0.8,1.3,1.9,2.3,2.6c0.6,0.5,1.4,0.6,2.2,0.8
	c5,1.1,10,2.2,15,3.2"/>
<text transform="matrix(0.9637 0.2671 -0.2671 0.9637 327.7513 84.4575)"><tspan x="0" y="0" fill="#7D7D7D" font-family="'Verdana-Italic'" font-size="7">9</tspan><tspan x="4.6" y="-0.1" fill="#7D7D7D" font-family="'Verdana-Italic'" font-size="7" rotate="-3.3">6</tspan><tspan x="9" y="-0.4" fill="#7D7D7D" font-family="'Verdana-Italic'" font-size="7" rotate="-3.3">0</tspan><tspan x="13.5" y="-0.6" fill="#7D7D7D" font-family="'Verdana-Italic'" font-size="7" rotate="-3.3">0</tspan></text>
<path fill="none" d="M92.4,128.3c-1.4-5.2,0.1-10.7,1.6-15.8c1.1-3.7,2.2-7.5,4.7-10.5"/>
<text transform="matrix(0.1801 -0.9836 0.9836 0.1801 94.4607 121.7358)"><tspan x="0" y="0" fill="#7D7D7D" font-family="'Verdana-Italic'" font-size="7">8</tspan><tspan x="4.2" y="0" fill="#7D7D7D" font-family="'Verdana-Italic'" font-size="7" rotate="4.8">6</tspan><tspan x="8.6" y="0.4" fill="#7D7D7D" font-family="'Verdana-Italic'" font-size="7" rotate="6.4">0</tspan><tspan x="12.7" y="0.8" fill="#7D7D7D" font-family="'Verdana-Italic'" font-size="7" rotate="12.9">0</tspan></text>
<g>
	<g>
		<polyline fill="none" stroke="#7D7D7D" stroke-miterlimit="10" points="85.2,341.6 85.2,348.7 275.4,348.7 275.4,341.7 		"/>
		<line fill="none" stroke="#7D7D7D" stroke-miterlimit="10" x1="180.5" y1="341.4" x2="180.5" y2="348.7"/>
		<line fill="none" stroke="#7D7D7D" stroke-miterlimit="10" x1="161.2" y1="349.2" x2="161.2" y2="343.7"/>
		<line fill="none" stroke="#7D7D7D" stroke-miterlimit="10" x1="142.4" y1="349.2" x2="142.4" y2="343.7"/>
		<line fill="none" stroke="#7D7D7D" stroke-miterlimit="10" x1="123.3" y1="349.2" x2="123.3" y2="343.5"/>
		<line fill="none" stroke="#7D7D7D" stroke-miterlimit="10" x1="104.6" y1="349.2" x2="104.6" y2="343.7"/>
	</g>
	<text transform="matrix(1 0 0 1 83.7834 339.1468)" fill="#7D7D7D" font-family="'Verdana'" font-size="8">0</text>
	<text transform="matrix(1 0 0 1 174.2945 339.1468)" fill="#7D7D7D" font-family="'Verdana'" font-size="8">0.5</text>
	<text transform="matrix(1 0 0 1 258.3414 339.1468)" fill="#7D7D7D" font-family="'Verdana'" font-size="8">1 mi</text>
</g>
</svg>
