<?xml version="1.0" encoding="utf-8"?>
<!-- Generator: Adobe Illustrator 17.1.0, SVG Export Plug-In . SVG Version: 6.00 Build 0)  -->
<!DOCTYPE svg PUBLIC "-//W3C//DTD SVG 1.1//EN" "http://www.w3.org/Graphics/SVG/1.1/DTD/svg11.dtd">
<svg version="1.1" id="Layer_1" xmlns="http://www.w3.org/2000/svg" xmlns:xlink="http://www.w3.org/1999/xlink" x="0px" y="0px"
	 viewBox="0 0 360 360" enable-background="new 0 0 360 360" xml:space="preserve">
<path fill="none" stroke="#E1E1E1" stroke-miterlimit="10" d="M313.9-2.2c-2.4,3-4.9,6.1-7.3,9.1c-1.1,1.4-2.3,2.8-2.8,4.6
	s-0.1,3.8,1.3,4.9c0.5,0.4,1.2,0.6,1.8,0.8c6.6,2.2,13.3,4.4,19.9,6.6c1.2,0.4,2.4,0.8,3.4,1.6c0.7,0.5,1.2,1.2,1.8,1.8
	c2.6,2.8,7.7,6.7,10.5,4c1.5-1.4-1.4-3.8-2.3-5.7c-1.8-3.6-0.8-8-1.2-12c-0.6-5.6-4.1-10.8-3.6-16.4"/>
<path fill="none" stroke="#E1E1E1" stroke-miterlimit="10" d="M361,175.9c-3.9,1.4-7.1,4.3-10.2,7.1c-1.7,1.5-3.5,3.6-2.7,5.7
	c0.6,1.8,2.8,2.5,4.7,2.5c1.9,0.1,3.9-0.2,5.6,0.6c1.5,0.7,2.9,1.8,4.5,1.6"/>
<path fill="none" stroke="#E1E1E1" stroke-miterlimit="10" d="M361.8,117.4c-2.7,3.4-5.1,7.2-5.1,11.4c0,2.4,0.7,4.6,1,7
	c1.1,8.5-5.1,16.1-5.1,24.7c0,0.2,0.1,0.5,0,0.7c-1,2.2-1.4,5.3-3.3,6.8c-1,0.9-2.5,0.8-3.8,1.3c-1.4,0.5-2.4,1.7-3.3,2.9
	c-0.4,0.6-0.8,1.1-1.4,1.5c-0.6,0.4-1.2,0.7-1.9,0.9c-3.2,1.1-6.4,2.2-9.5,3.4c-0.5,0.2-1,0.4-1.5,0.3c-0.6,0-1.2-0.3-1.8-0.5
	c-1.8-0.6-4,0.1-5.1,1.7c-1.1,1.5-0.9,3.6-0.1,5.4c0.3,0.7,0.2,2.3,0.6,3c1.7,3,1.4,4.1,2.5,6.1c1.2,2,1.6,4.3,2.7,6.3
	c1.7,2.9,2.4,6.3,2.9,9.6c0.9,6.2-1.6,14.8,3.6,18.2c3,2,7.2-1,10.2-3c0.8-0.5,1.6-1.2,2.5-1.4c0.7-0.1,1.4,0,2.1,0.1
	c2.6,0.4,5.2,0.8,7.8,1.2c0.6,0.1,1.3,0.2,1.9,0.1c0.9-0.1,1.8-0.6,2.7-0.7c0.8-0.1,1.6,0.1,2.3,0.5"/>
<path fill="none" stroke="#E1E1E1" stroke-miterlimit="10" d="M362.2,262.9c-2.7,2.4-5.5,4.8-8.2,7.3c-3.4,3.1-6.9,6.2-9.2,10.2
	c-1.3,2.4-2.4,7.6-4.8,6.4c-3.7-1.8-2.3-7.8-4.3-11.4c-0.8-1.4-1.9-2.9-3.5-2.7c-0.4,0.1-0.9,0.3-1.3,0.5c-3.9,1.9-8,3.5-12.2,4.6
	c-6.1,1.7-12.6,2.7-17.8,6.3c-7.1,4.9-11.4,14.5-19.9,15.9c-4.4,0.7-8.7-1.1-12.8-2.8c-5.6-2.4-11.2-4.8-16.8-7.2
	c-0.5-0.2-1.1-0.5-1.4-0.9c-0.3-0.5-0.4-1.1-0.4-1.6c0.1-3.2,2.4-6,4.7-8.2c2.3-2.2,4.8-4.3,7.4-6.1c1.6-1.1,3.2-2.2,4.3-3.8
	c0.8-1.3,1.1-2.8,1.6-4.2c1.4-5,4.2-10,8.9-12.2c1.9-0.9,4-1.3,5.9-2.4c5.5-3.3,8.9-8.7,13.3-13.4c6.7-7,2.9-19.1,3.6-28.7
	c0.3-4.1,0.4-8.4-1.4-12.2c-1.4-2.9-1-6-2.8-9c-0.7-1.2-1.2-3.9-1.8-5.1c-0.9-2.1-2.3-4.1-2.4-6.4s1-4.9,3.2-5.6
	c0.8-0.3,1.7-0.3,2.5-0.3c5.2-0.3,10.4-2.5,14.2-6.1c1-1,2-2,3.2-2.7c4.7-2.6,13.6,3.7,16-1.2c0.5-1,0.2-1.8,0.3-2.9
	c0.6-6.3,1.5-7.4,4.3-11.3c5.3-7.3,6.2-16.7,6.6-25.7c0.2-4.1-8.2-3.3-10.7,0c-1.2,1.5-1.7,3.5-3.1,4.8c-2.4,2.2-6.6,1.3-8.8-1.2
	s-3.1-5.8-3.7-9c-2-9.4-3.1-20.7,4.2-27c5.4-4.6,13.2-4.5,20.1-6.2c6.9-1.7,18.1-10.4,12.3-14.5c-1.5-1-5.8,2.2-5.5,0.4
	c0.8-4.6-3.1-12.8-0.4-19.4c2.5-6.3,9.1-2.6,16.4,0.8"/>
<path fill="none" stroke="#E1E1E1" stroke-miterlimit="10" d="M356.2-2.1c-0.1,0.4-0.2,0.8-0.3,1.3c-0.3,1.1-0.5,2.3-0.3,3.4
	c0.2,1,0.7,2,1.2,2.9c1.9,3.3,4.2,6.8,3.6,10.5c-0.4,2.6-2.1,4.7-3.3,7.1c-1.2,2.3-1.5,4.6,0.6,6.2c1,0.7,2.4,1.5,4.1,2.2"/>
<path fill="none" stroke="#E1E1E1" stroke-miterlimit="10" d="M198.9,360.6c-0.5-0.3-1.2-0.4-1.7-0.7c-1.8-0.9-2.7-3.4-1.6-5.2
	c0.5-0.8,1.3-1.5,2-2c3.1-2.4,6.2-4.8,9.3-7.2c0.6-0.4,1.1-0.9,1.6-1.4c0.4-0.5,0.7-1.1,1-1.7c2.6-4.2,8.4-1.4,13-3.3
	c3.5-1.4,2.9-7.1,5.4-10c1.2-1.4,2.7-2.7,4.5-3.2c1.8-0.5,3.1,1.8,5,1.6c3.2-0.4,4.4-8.1,7.4-7c1.5,0.6,2.3,2.3,3.8,2.9
	c0.5,0.2,1.1,0.4,1.6,0.3c0.4-0.1,0.6-0.4,0.9-0.6c1.8-1.6,3.6-3.2,4.4-5.4c0.8-2.2,0.3-5.1-1.7-6.3c-1.9-1-4.3-0.4-6.1-1.5
	c-0.5-0.3-1-0.8-1.4-1.3c-1.1-1.2-1.8-2.8-3.2-3.6c-0.9-0.5-3.6,0.3-4.2-0.6c-0.5-0.8-0.8-1.6-1.7-1.5c-0.9,0.1-1.7,0.6-2.6,0.6
	c-0.6,0-1.2-0.1-1.8-0.3c-1.8-0.5-3.6-1-5.4-1.5c-0.5-0.1-1-0.3-1.3-0.7c-0.4-0.5-0.3-1.2-0.3-1.8c0.1-1.8-0.6-3.6-1.9-5
	c-0.7-0.7-1.6-1.4-1.8-2.4c-0.4-1.8,1.6-3.1,3-4.3c3.1-2.5,4.3-6.6,6.5-9.9c3.4-5,10.6-6.3,14.6-10.8c4.6-5.3,9.7-9.6,14.5-14.7
	c1.3-1.4,2.6-3.1,4.5-3.3c1-0.1,2.1,0.1,2.8-0.5c0.6-0.4,0.7-1.2,1-1.8c0.6-1.5,1.9-2.8,3.4-3.4c1.1-0.5,2.5-0.7,3.2-1.6
	c0.5-0.6,0.6-1.5,0.8-2.2c0.4-1.5,1.3-2.8,2.4-3.8c1-0.8,2.2-1.5,2.6-2.7c0.3-0.8,0.2-1.6,0.1-2.4c-0.6-6.6,0.5-13.5,3.3-19.5
	c0.5-1.2,1.1-2.4,1.1-3.7c-0.1-1.8-1.6-3.3-2-5.1c-0.5-2.1,0.5-4.3-0.1-6.4c-0.2-0.8-0.7-1.4-1-2.2c-0.9-2.1-0.1-3.8-0.8-6.1
	c-0.2-0.8-0.3-2.5-0.5-3.3c-1-3-2.5-5.9-4.8-8c-3.5-3.2-9.4-3-12.7,0.3c-1.3,1.3-2.2,2.9-3.5,4.1c-1.4,1.2-3.5,1.8-4.9,0.6
	c-0.4-0.3-0.7-0.8-1-1.3c-4.1-6.8-3.5-16.2,1.3-22.5c0.9-1.2,2-2.3,2.4-3.7c0.4-1.3,0.3-2.9,1.2-4c1-1.2,2.9-1.3,4.1-2.4
	c1.3-1.1,2.5-3.1,1.9-4.6c-1-2.5,9.8-11,11.3-12.3c5.4-4.5,13-12.2,25.1-27.1c1.6-2,5.5-5.2,6.7-7.6c1.3-2.6,0.9-9,1.9-11.8
	c1.8-5.4,5-5.7,3.2-10.9c-1.7-5,1.1-11,1-16.3c-0.1-5.3-7.3-10.3-10.9-14.2c-7.5-8.1-15.5-6.7-24.2-13.5c-3-2.3-3.9-1.1-5.9-4.1
	c-0.7-1-1.2-3.5-1.7-4.6c-0.2-0.4-0.5-0.8-0.8-1.2c-1.5-2.5-2.1-5.5-2.7-8.3c-0.5-2.7,0.5-6.2-1.6-8c-2.9-2.6-7.8,1-10.9,3.4
	c-1.3,1-2.5,2.2-4.1,2.2c-0.9,0-1.8-0.3-2.6-0.7c-2.5-1.3-4.6-3.3-7-4.7s-5.5-2.2-8-0.8c-2.2,1.2-3.3,3.7-5.4,5
	c-1.4,0.8-3,1.1-4.4,2c-1.7,1.1-2.8,2.9-4.1,4.3c-4.9,5.4-13,6-20.3,6.2c-3.5,0.1-7,0.2-10.5,0.3c-3.5,0.1-7.4,0.1-10.3-1.8
	c-3.3-2.3-4.6-6.5-5.7-10.4c-1-3.6-1.9-7.4-2.1-11.2"/>
<path fill="none" stroke="#E1E1E1" stroke-miterlimit="10" d="M353.4,362.4c-1.4-2.2-3.3-4.2-5.1-6c-0.7-0.7-1.3-1.4-2.2-1.7
	c-1.1-0.5-2.3-0.4-3.4-0.5c-2.6-0.3-5-1.8-6.3-4c-0.6-0.9-1-2-1.8-2.8c-1.6-1.5-4.1-1.3-6.1-2.2c-3.3-1.5-4.3-5.7-4.1-9.3
	s1-7.3-0.2-10.8c-1.4-4.1-5.6-7.7-4.5-11.9c0.2-0.8,0.6-1.6,0.8-2.4c0.6-3.4-0.1-7.5-2.6-9.9c-1.6-1.6-4.4,1.4-6.5,2.1
	c-1.2,0.4-2.4,0.8-3.5,1.4c-1,0.7-1.9,1.6-2.8,2.5c-4.6,5-9.3,9.9-13.9,14.9c-2.3,2.4-4.6,4.9-5.6,8.1c-1.5,4.8,0.2,10.5-2.6,14.7
	c-0.9,1.4-2.3,2.5-3.5,3.7c-4,3.9-6.8,8.9-9,14.1"/>
<path fill="none" stroke="#E1E1E1" stroke-miterlimit="10" d="M101.5-1.7c0.8,2.6,1.4,5.3,3.5,6.4c1.9,1,5.6,2,7.8,1.8
	c3-0.3,5-1.3,8.1-1c2.1,0.1,3.8,1.7,5.9,2c1.8,0.3,3.6-0.5,5.4-0.5c2.1-0.1,4.2,0.6,6.3,1.2c4.3,1.2,8.9,1.5,13.4,1
	c0.7-0.1,1.5-0.2,2.2,0c1.6,0.5,2.4,2.3,3,3.9c2.1,5.1,5.4,9.7,9.7,13.2c6.4,5.3,16,4,24.3,5.3c3.2,0.5,6.4,0.9,9.6,1.4
	c2.6,0.3,5.2,0.7,7.8,0.6c5.5-0.3,10.7-2.6,15.8-4.6c5.2-2,10.8-3.6,16.1-2.3c1.1,0.3,2.1,0.7,2.8,1.5c1.1,1.4,0.6,3.5,0.7,5.3
	c0.2,3.7,3,6.9,6.3,8.6c3.3,1.7,7.2,1.7,10.8,2.5c0.9,0.2,2.7,0.8,3.6,1.1c4.3,1.5,9.5,1.1,14,1.6c1.7,0.2,3.5,0.4,4.9,1.3
	c2,1.3,2.8,3.8,4.4,5.6c1.3,1.6,3.2,2.7,4.1,4.5c0.8,1.7,0.7,3.6,0.5,5.5c-0.1,0.7,0.4,2.7-0.2,3.1c-1,0.7-2.7,0-3.4,1
	c-0.8,1.1,0.6,2.4,1.8,2.9c1.8,0.9,5-0.5,4.8,1.5c-0.3,2.6-5.2,3.9-7.8,3.9c-1.1,0-2.2-0.4-3.3-0.9c-5.7-2.3-11.3-6.4-13.4-12.2
	c-1.9-5.4-7-9.4-12.6-8.5c-5.6,0.9-10,6.7-9.3,12.4c0.3,2.8,1.7,5.4,1.6,8.2c-0.1,3.1-2.1,5.9-2.9,8.9c-1.1,4.1,0.1,8.8,3.1,11.8
	c3,3,10.8,2.1,11.2,4.2c0.2,1.1-4.2,9.9-5.5,15.8c-2.6,11.9-5.9,23.6-9.7,35.1c-2.5,7.5-5.2,15-9.1,21.9c-0.7,1.3-1.5,2.6-2.7,3.4
	c-2.9,2-6.8,0.5-10.3,0.7c-5.1,0.3-9.3,4.5-11,9.3c-1.6,4.8-1.1,10.1,0,15.1c0.2,1.1,0.6,2.3,1.4,3.1c0.8,0.8,2,1.1,3.1,1.5
	c4.7,1.9,7.6,7.3,6.5,12.2c-0.9,4.2-4.2,7.4-7.3,10.3s-6.4,6.2-7.2,10.3c-0.9,4.2,1.9,9.4,6.2,9.3c1.7-0.1,3.2-0.9,4.8-1.1
	s3.7,0.3,4.2,1.8c0.3,1-0.1,2-0.5,2.9c-2.7,6.4-5.4,12.9-10.1,18.1c-2.5,2.7-5.5,5.1-7.1,8.5c-1.3,2.8-1.4,6-1.5,9.1
	c-0.2,6.7-0.4,13.3-0.7,20c-0.1,3-0.2,6.1,0.8,9c0.6,1.9,1.7,3.7,1.8,5.6c0.1,2-1.6,3.2-3.5,3.8c-4.4,1.4-6.8,7.5-9.9,11
	c-1.3,1.4-0.5,3.8-2,5.1c-1.7,1.4-4.4-1.4-6.5-0.7c-1.6,0.6-2.9,1.7-4.4,2.4c-3.1,1.5-6.9,1.5-9.9,3.4c-2,1.2-3.4,3.1-5.2,4.5
	c-1.9,1.4-4.6,2.1-6.4,0.6c-0.9-0.7-1.4-1.9-2.2-2.8c-1.5-1.7-4.1-2.2-6.4-1.8c-2.3,0.4-4.4,1.6-6.4,2.7c-0.5,0.3-1.1,0.6-1.4,1.2
	c-0.3,0.6-0.3,1.3-0.3,1.9c-0.1,3-1.1,5.9-2.6,8.5"/>
<path fill="none" stroke="#E1E1E1" stroke-miterlimit="10" d="M113.6,362.1c4.3-2.2,7.7-6.2,9.1-10.8c1.1-3.6,1.3-8,4.3-10.3
	c1-0.8,2.3-1.2,3.4-1.9c2.3-1.4,3.7-3.7,5.5-5.8c4.1-4.9,9.7-8.3,15.1-11.6c2.7-1.6,5.4-3.3,8.5-3.8c10-1.5,12.5,4.7,14.1,3.1
	c1.6-1.6-1.1-7.6,4.7-12c1.2-0.9,2.5-1.7,3.3-2.9c1.2-1.6,1.3-3.8,1.4-5.7c0.2-3.9,0.3-7.7,0.5-11.6c0.1-1.3,0.1-2.7-0.5-3.8
	c-0.6-1.1-1.8-1.9-2.5-3c-1.2-2.1-0.2-5-1.3-7.2c-1.3-2.5-4.7-3-6.5-5.2c-2.7-3.2-1-8.7-4.1-11.5c-1.1-1-2.9-1.9-2.8-3.4
	c0.1-0.6,0.5-1.2,0.6-1.8c0.2-0.9-0.1-1.8-0.4-2.6c-1.1-2.9-2.3-5.9-4.4-8.2c-0.6-0.7-1.3-1.3-1.6-2.2c-0.3-1.1,0.1-2.3,0.5-3.3
	c1.5-4.2,0.2-8.8,0.3-13.2c0.1-4.5,2-9.6,3.4-13.8c0.4-1.3,0.9-2.7,1.9-3.6c2.7-2.5,6.6,2.6,10.1,1.5c2.6-0.8,3-1.5,5.3-3
	c5.7-3.7,5.3-13.6,11-21.3c0.9-1.2,6-6.3,5.8-7.8c-0.1-1.2-0.9-2.1-1.2-3.2c-0.8-2.4,0.4-5.1-0.5-7.5c-1.5-3.8-6.8-3.6-10.8-2.8
	c-7.4,1.5-14.9,3-22.3,4.5c-4.2,0.9-8.7,1.7-12.8,0.4c-1.8-0.6-3.6-1.6-5.5-1.5c-1.3,0.1-2.4,0.6-3.7,0.7c-3.2,0.3-6.3-2.3-7-5.5
	c-0.7-3.2,0.5-6.5,2.7-9c1.3-1.4,2.9-2.6,4-4.2c2.2-3.1,2.2-7.2,2.4-10.9c0.5-9.2,2.6-18.3,6.3-26.8c1.8-4.1,4.1-8.2,4.8-12.7
	c0.3-1.6,0.4-3.3,1.5-4.5c0.7-0.8,1.8-1.3,2.9-1.6c3.4-1.1,7.1-1.4,10.7-0.9c0.8,0.1,1.7,0.2,2.3-0.2c1-0.6,1.1-2,1-3.1
	c-0.3-3.7-1.9-7.3-4.4-10c-2.5-2.7-5.8-4.6-7.8-7.6s-2.1-8,1.2-9.5c1.6-0.8,3.5-0.5,5.2-0.6c1.8-0.1,3.8-1,4-2.8
	c0.3-2.1-2-3.5-4-4.3c-3.6-1.5-7.3-3-10.9-4.4c-1.2-0.5-2.3-0.9-3.5-1.4c-3.4-1.4-6.9-2.8-9.4-5.5c-3.1-3.4-0.8-9.1-3.5-12.8
	c-1.5-2.1-5.3-1-7.8-0.9c-5.2,0.2-10.3,0.4-15.5,0.6c-0.7,0-1.4,0.1-2,0.3c-0.6,0.2-1.2,0.6-1.8,1c-4.7,3.3-9,7.1-12.8,11.4
	c-1.1,1.3-2.3,2.6-3.6,3.7c-2.4,2-5.4,3.1-8.3,4.2c-1.8,0.7-3.6,1.4-5.5,1.3c-4-0.1-7.2-3.2-10.7-5.2c-0.4-0.2-0.8-0.4-1.2-0.4
	c-0.6,0.1-1,0.5-1.4,0.9c-2.5,2.3-6.3,1.9-9.6,1.4c-2.7-0.4-5.4-0.8-8.1-1.2c-1.9-0.3-3.9-0.6-5.1-2.1c-1.4-1.7-1.2-4.2-1.7-6.4
	c-0.2-0.8-0.5-1.5-0.4-2.3c0.3-1.8,2.6-2.5,3.5-4.2c1-1.9-0.4-4.2-2.3-5.2c-1.8-1-4-1.3-6-2c-2-0.7-5.2-2.7-4-4.4
	c2.4-3.1,8-2.2,10.1-5.6c1.2-1.9,1.5-4.1,2.1-6.2C49,2.9,50.6-0.2,52.7-3"/>
<path fill="none" stroke="#E1E1E1" stroke-miterlimit="10" d="M16.6-3.8C16.1,0.1,14,4,10.5,5.8c-1.6,0.8-3.4,1.2-5,2
	c-3.5,1.9-5.4,5.8-7,9.4c-0.7,1.6-1.4,3.3-1.3,5c0.1,2.3,1.6,4.3,3,6.1c2.1,2.8,4.4,5.6,7.6,7c1.5,0.7,3.2,0.9,4.6,1.9
	c1,0.8,1.7,1.9,2.4,3c5.6,9.2,11.4,19.6,9.3,30.2c-0.5,2.6-1.4,5.6,0.2,7.6c0.5,0.6,1.2,1.1,1.7,1.7c2,2.5,1.4,6.5,4,8.3
	c0.9,0.6,0.8,0.2,2,0.1c13.4-1.2,26.7-4.8,38.9-10.6c0.5-0.2,1-0.5,1.5-0.3c0.5,0.2,0.7,0.6,1,1c1.8,2.5,5.3,3.1,8.3,2.7
	c3-0.4,5.9-1.7,8.8-2.4c7.8-1.8,15.8,0.8,23.4,3.3c1,0.3,2,0.7,2.7,1.4c0.6,0.6,0.9,1.4,1.1,2.2c2.9,8.4,5,17.6,2.2,26.1
	c-1.6,4.8-4.6,9.1-5,14.1c-0.2,2.6,0.3,5.3-0.7,7.7c-0.8,1.9-2.5,3.2-4.2,4.4c-4.1,3.1-8.8,6.5-14,5.8c-2.1-0.3-4-1.1-6-1.7
	c-6.5-2-13.9-0.6-19.4,3.4c-6.4,4.7-9.7,12.4-12.7,19.8c-1.7,4.2-3.4,8.3-5.2,12.5c-1.1,2.7-2.2,5.9-0.9,8.5
	c1.3,2.5,4.6,3.9,5.1,6.7c0.5,2.6-1.4,5.5,0,7.7c1.2,1.8,3.9,1.7,5.9,2.5c3.1,1.2,4.9,4.5,7.8,6.1c2.5,1.3,5.5,1.3,8.3,1
	c8-0.6,16.2-2.1,23.8,0.1c3.7,1.1,7.2,3,10.6,5c3.1,1.8,6.2,3.5,9.4,5.3c0.8,0.5,1.6,0.9,2.2,1.7c1.8,2.6-1,6.2-0.1,9.2
	c0.3,1.1,1.2,2,1.5,3.1c0.9,3.1-2,6.4-1,9.5c0.5,1.7,2.2,2.9,2.3,4.7c0.1,1.6-1,2.9-2.1,4.1c-5.6,6-9.1,15.1-16.7,18
	c-5.9,2.2-8.8,7.2-14.3,10.3c-2.5,1.4-5.4,2.1-5.4,4.9c0,2.8,1.8,5.3,3.5,7.6c2.1,2.8,4.4,5.7,7.8,6.6c2.2,0.6,4.5,0.1,6.8-0.4
	c6.1-1.3,13.4-2.4,17.9,2c1.2,1.1,2,2.6,2.2,4.2c0.2,2-0.8,3.8-1.5,5.7c-1.5,4,2.2,10.2-1.4,12.5c-2.8,1.9-20.4,2.6-29.8,6.6
	c-3.9,1.6-8.2,4.3-8.3,8.5c-0.1,2.4,1.3,4.6,1.5,7c0.2,1.7-0.3,3.5-0.7,5.2c-1.2,4.2-2.7,8.3-4.6,12.2"/>
<path fill="none" stroke="#E1E1E1" stroke-miterlimit="10" d="M-2.3,107.6c1-0.1,1.9-0.1,2.5,0.7c0.4,0.5,0.4,1.1,0.6,1.6
	c0.9,3.4,4.7,4.9,7.4,7.1c4.1,3.2,6.7,8.8,11.8,10.2c3.7,1,7.7-0.5,11.5,0.2c4.8,0.9,9.3,1.6,13.8,3.3c2.2,0.8-0.9,4.4-1.9,6.5
	c-1.5,3.3-0.7,7.2-1.8,10.6c-1.6,4.6-6.4,7.1-9.6,10.8c-2,2.3-3.3,5.1-4,8c-0.2,1.2-0.4,2.4-1,3.4c-0.5,0.9-1.3,1.6-2.1,2.2
	c-2.3,1.8-4.8,3.3-6.7,5.6c-1.9,2.2-2.9,5.5-1.7,8.1c0.6,1.1,1.5,2,2.2,3.1c3.7,5.4,0.9,13.1,3.4,19.2c1.3,3.2,3.9,5.6,6.1,8.1
	c3.1,3.5,5.7,7.5,7.7,11.8c0.1,0.3,0.3,0.7,0.3,1c-0.1,0.5-0.5,0.9-0.8,1.2c-2,1.7-3.9,3.3-5.9,5c-1.7,1.4-3.5,3.6-2.4,5.5
	c0.3,0.5,0.7,0.8,1.2,1.2c2,1.6,3.6,5.6,6.1,4.9c0.4-0.1,4.7-1.3,5.1-1.1c9.3,3.3,12.6-7.1,14.3-1c1.5,5.2,9.2,9.2,16.1,14.3
	c2.1,1.6-4.3,3.4-4.8,6c-0.5,2.6,2.7,4.8,2.1,7.4c-1,3.8-7.9,2.8-9.6,6.4c-0.7,1.5-1,3.2-0.9,4.8c0.2,5.1,2.8,9.8,4.8,14.5
	c0.3,0.8,0.6,1.7,0.3,2.5c-0.2,0.4-0.5,0.7-0.7,1.1c-0.7,1.2-0.1,2.8,0.5,4.1c1,2.1,3.9,4.2,3,6.4c-0.7,1.9-1.4,3.9-3.4,4.4
	c-4.5,1.1-9.1,5.2-12.4,9.1c-2.6,3.1-5.8-5.9-9.8-6.4s-8.1,0.3-12,1.6c-0.8,0.3-1.7,0.6-2.5,0.4c-0.6-0.1-1.2-0.4-1.7-0.6
	c-3.2-1.6-6.8-3.5-10.1-2.3c-0.8,0.3-1.6,0.8-2.5,0.8c-1.8,0-3-1.7-4.6-2.3c-2.5-1-5.7,0.6-7.9-1"/>
<path fill="none" stroke="#D6D6D6" stroke-miterlimit="10" d="M93.7,248.5c3,2,7.5,2.7,11.1,2.6c12.2-0.2,24.4-4.3,36.4-2
	c3,0.6,6.1,1.5,9.2,1.4c9.5-0.3,15.7-10,24.4-13.7c9.4-4,18.6,2,29.7-6.2c2.4-1.8,4.5-3.9,6.5-6.1c3.3-3.7,6.6-7.4,9.8-11.1
	c1.6-1.9,3.3-3.7,5.3-5.1c7.1-4.9,17.6-2.7,25.8-1"/>
<path fill="none" stroke="#D6D6D6" stroke-miterlimit="10" d="M35.4,275.5c0.8,0.6,0.9,1.7,1.3,2.4c1.7,2.6,3.5,5.1,5.2,7.7
	c0.6,0.8,1.1,1.7,1.9,2.2c0.6,0.4,1.2,0.7,1.8,1.1c1.1,0.8,1.7,2.2,2.2,3.5c1.8,4.8,4.2,10.6,7.7,14.4c2.4,2.5,4,3.5,7.2,4.8
	c1.3,0.5,3.1,2.2,4.4,2.5c0.9,0.2,3.9,0.8,4.9,0.9c4.4,0.5,6.6,0.2,11,0.8c5.8,0.7,11.2,0.7,17.1,1.4c0.8,0.1,1.7,0.2,2.5,0.1
	c0.8-0.1,1.6-0.3,2.4-0.5c1.7-0.5,3.3-1,5-1.5"/>
<path fill="#EAEAEA" stroke="#D6D6D6" stroke-miterlimit="10" d="M340.7,88.3c-0.5,1-1.5,1.9-1.3,2.9c0.2,0.8,1,1.3,1.5,1.9
	c0.2,0.2,0.4,0.5,0.6,0.7c0.8,0.9,2.4,0.7,3.2-0.2c0.6-0.8,0.6-1.9,0.9-2.8c0.2-0.5,0.5-0.9,0.7-1.4c0.2-0.5,0.3-1.1,0-1.6
	c-0.2-0.4-0.7-0.6-0.9-1c-0.2-0.3-0.3-0.7-0.5-1c-0.5-0.8-1.7-1.2-2.5-0.7C341.5,85.9,341.3,87.3,340.7,88.3z"/>
<path fill="none" stroke="#D6D6D6" stroke-miterlimit="10" d="M308.6,335.2c-1.2,3.8,1,7.6,2.7,11.2c2.5,5.3,4.1,11.1,5.4,16.8"/>
<path fill="#EAEAEA" stroke="#D6D6D6" stroke-miterlimit="10" d="M292.4,143.1c1.3-0.1,2.7-0.5,4-0.5c0.4,0,0.8,0,1.1-0.2
	c0.6-0.4,0.7-1.2,0.7-1.9c0-0.4,0-0.8-0.2-1.1c-0.2-0.3-0.6-0.4-0.9-0.5c-0.8-0.3-1.4-0.9-2.2-1.4c-1.8-1.1-3.8-1.5-5.9-1.9
	c-0.5-0.1-1-0.1-1.3,0.2c-0.3,0.4-0.1,0.9,0,1.4c0.2,0.6,0.5,1.1,0.7,1.7c0.2,0.5,0.4,1,0.7,1.5c0.2,0.4,0.5,0.9,0.8,1.3
	c0.2,0.2,0.4,0.4,0.6,0.6C291,142.7,291.7,143.1,292.4,143.1z"/>
<path fill="#EAEAEA" stroke="#D6D6D6" stroke-miterlimit="10" d="M244.1,246.8c-1-0.6-1.1-2.1-0.6-3.2c0.5-1.1,1.3-1.9,2-2.9
	c0.3-0.4,0.6-0.9,1.1-1c0.5-0.1,0.9,0.2,1.3,0.4c0.9,0.6,2,1.4,1.9,2.5c0,0.3-0.1,0.7-0.2,1c-0.3,0.8-0.2,1.7-0.8,2.3
	c-0.6,0.6-1.5,0.7-2.3,0.9S244.8,247.3,244.1,246.8z"/>
<path fill="none" stroke="#4E9BD7" stroke-miterlimit="10" d="M-1.6,265.8c9.4,3.9,18.2,9.3,27.3,9.8c3.6,0.2,10,1.6,11.2-1.8
	c0.4-1.2,2.8-5.2,5.9-7.4c1.3-0.9,4.8-1.4,6.3-2c5-1.9,6.9-4.1,13.4-4.3c2,0,3.9-0.6,5.7-1.3c3.8-1.4,6.7-4.6,10.4-6.3
	c2.9-1.4,6.2-1.7,9.4-2.5c4.5-1.1,8.8-2.9,13-4.7c3.1-1.4,6.3-2.7,8.9-4.9c3.2-2.6,5.4-6.3,7.5-9.9c1.8-3,3.9-5.8,5.7-8.8
	c1.9-3.1,4.4-5.2,6.6-8.1c1.1-1.5,3-3.6,4.2-5c2.3-2.5,4.2-4.4,6.9-6.4c2.5-1.9,5.1-3.8,8.1-4.9c3.4-1.3,7.2-1.3,10.7-2.5
	c2-0.7,3.9-1.8,5.7-2.8c2.2-1.3,4.7-2.9,6.9-4.1"/>
<path fill="none" stroke="#D6D6D6" stroke-miterlimit="10" d="M257.8,50.6c-5.4-2.2-11.4-3.5-17.1-5.7c-2.4-0.9-5.3-1-7.2,0.6
	c-0.9,0.8-1.7,2-2.9,2.2c-0.9,0.2-1.8-0.4-2.8-0.4c-1.5-0.1-2.7,1.1-3.7,2.1c-4.9,5-9.4,10.4-13.4,16.2c-1,1.4-2.3,3.8-4,3.1
	c-0.6-0.3-2.1-1.3-2.5-1.9c-2.1-2.7-3.9-5.1-6.7-7c-1.2-0.8-2.5-1.6-4-1.8c-2.8-0.4-5.5,1.2-8.3,1.7c-6.6,1.3-12.9-3.6-19.7-3.9
	c-7.4-0.3-13.3,5.8-18.6,11c-4.5,4.5-9.1,9.2-15.1,11.4c-6.6,2.5-15,4.6-21,9.5c-5.8,4.7-8.3,12.3-10.6,19.4
	c-1.5,4.7-5.7,10.8-10.4,12.7c-8.5,3.6-10.9,6.4-17.2,8c-4.9,1.2-7.9,0.1-12.6-0.1c-3.2-0.1-6.5,0.6-9.5,1.4c-3,0.7-6.1,2.9-8.6,4.7
	c-5.7,4.2-11.7,6.8-18.5,9.3c-3.5,1.3-6.8,3.2-10.2,4.8c-2,0.9-4,1.9-6.1,2.7c-3.2,1.3-6.5,2.3-9.8,3"/>
<path fill="none" stroke="#D6D6D6" stroke-miterlimit="10" d="M216.8,121.5c-4.1-0.8-8.2-1.6-12.3-2.4c-0.6-0.1-1.3-0.3-1.8-0.6
	c-0.7-0.5-1-1.4-1.3-2.2c-1-2.7-2-5.5-3-8.2c-0.4-1-0.8-2.1-1.5-3c-1.3-1.7-4.4-4.2-6.4-5c-5.2-2.2-8.9-2.9-12.9-6.9
	c-0.6-0.6-1.3-2.2-2-2.5c-0.6-0.2-1.2-0.3-1.8-0.5c-2.4-0.6-4.3-2.2-6.2-3.7c-1.1-0.9-2.2-1.9-2.6-3.2c-0.2-0.6-0.3-1.3-0.7-1.7
	c-0.2-0.2-0.5-0.2-0.7-0.3c-2.4-0.6-5.1-0.3-7.3,0.9c-1.1,0.6-2.1,1.4-3.3,1.5c-0.6,0-1.3-0.2-1.9-0.3c-5.6-1.7-11.2-3.3-16.8-5
	c-0.8-0.2-1.4-0.4-2-0.3"/>
<path fill="#EAEAEA" stroke="#D6D6D6" stroke-miterlimit="10" d="M265.5,50.2c-0.6,0.2-1,0.7-1.6,0.6c-0.4-0.1-0.8-0.4-1.1-0.7
	c-0.9-0.8-2.1-1.3-3.3-1.1c-1.2,0.3-2.1,1.6-1.6,2.7c0.5,1.1,1.8,1.3,3,1.5c4.3,0.8,8.4,2.7,11.8,5.5c0.7,0.6,1.4,1.2,2.2,1.6
	c1,0.5,2.1,0.8,3.2,0.7c1,0,2.1-0.2,2.9-0.9c0.8-0.7,1.2-1.8,0.8-2.8c-0.6-1.4-2.6-1.6-3.8-2.6c-0.8-0.7-1.3-1.8-2.3-2.3
	c-1.4-0.8-3.3,0-4.9-0.5C268.9,51.7,267.3,49.6,265.5,50.2z"/>
<path fill="#EAEAEA" stroke="#D6D6D6" stroke-miterlimit="10" d="M237.3,118c0.1,2.4,2.7,4.4,2.4,6.8c-0.2,1.3-1.1,2.3-2.3,2.9
	c-1.2,0.6-2.5,0.7-3.8,0.7c-1.4,0-3-0.1-4-1.1c-0.4-0.4-0.6-0.9-1.1-1.1c-0.7-0.3-1.5,0-2.3-0.1c-2.3-0.2-2.9-4-5.2-4.4
	c-0.9-0.1-1.7,0.2-2.6,0.2c-0.9,0-2.2-0.9-1.6-1.5c0.8-1,0.8-2.2,0.7-3.4c-0.2-2.8,1-5.7,3.5-7c1-0.5,2.2-0.8,3-1.6
	c0.8-0.8,1.2-2,2.3-2.3c0.6-0.2,1.3,0,1.9,0.4c2.7,1.6,3.4,5.8,6.4,6.7c0.7,0.2,1.6,0.2,2.2,0.7C237.9,114.8,237.2,116.6,237.3,118z
	"/>
<path fill="#7BBCEB" stroke="#4E9BD7" stroke-miterlimit="10" d="M179.5,172.2c-0.6,0-1.1-0.2-1.7-0.3c-1.1-0.1-2.2,0.3-3.2,0.8
	c-0.6,0.3-1.3,0.6-1.7,1.2c-0.2,0.4-0.3,0.8-0.4,1.2c-0.5,3.3-0.2,6.8-0.4,10.1c0,0.7,0.1,2.3,0.4,3c0.7,1.6,2.1,0.9,3.8,0.7
	c2.9-0.3,5.7-1.5,7.9-3.3c0.6-0.5,1.1-1,1.5-1.6c0.6-1,0.8-2.3,1-3.4c0.2-1.3,0.3-2.7-0.1-4c-0.2-0.7-0.6-1.3-1-2
	c-0.8-1.4-2-2.9-3.6-2.9C181.3,171.7,180.4,172.2,179.5,172.2z"/>
<path fill="#EAEAEA" stroke="#D6D6D6" stroke-miterlimit="10" d="M262.4,196.2c2.1-1.5,2.7-5,5.2-5.6c2.1-0.5,4.1,1.5,4.4,3.6
	c0.1,0.8,0,1.7,0.2,2.5c0.2,0.6,0.5,1.2,0.6,1.8c0.4,1.6-0.1,3.2-0.6,4.7c-0.9,3-1.3,6.2-1.3,9.4c0,1.8,0.1,3.7-1.1,5
	c-1,1-2.5,1.3-3.9,1.2c-1.4-0.1-2.8-0.5-4.2-0.7c-0.8-0.1-1.6,0-2.3-0.3c-1.5-0.6-1.6-3-2.2-4.5c-0.8-1.9-2.2-3-3.7-4.4
	c-0.4-0.4-0.9-0.7-1.2-1.2s-0.3-1.2,0.2-1.6c0.3-0.2,0.8-0.2,1.1-0.3c1.9-0.2,3.2-2.1,3.9-3.8c0.8-1.7,1.4-3.7,3-4.8
	C261.2,196.9,261.9,196.6,262.4,196.2z"/>
<g>
	<g>
		<path fill="none" stroke="#585858" stroke-miterlimit="10" d="M360.1,20.5c-0.6,0.3-1.3,0.6-1.9,0.4"/>
		<path fill="none" stroke="#585858" stroke-miterlimit="10" stroke-dasharray="3.9167,0.9792" d="M357.3,20.5
			c-0.4-0.4-0.6-0.9-0.9-1.4c-0.4-0.7-1.2-1.3-1.9-1c-0.6,0.2-1,1.2-1.6,0.9c-0.8-0.4-0.7-1.7-1.5-2.1c-2.2-1.1-3.8,3.3-4.2,5.7
			s0,5,0.4,7.4c0.1,0.8,0.3,1.6,0.7,2.2c0.5,0.8,1.4,1.3,2,2c0.7,0.9,0.8,2.3,0.2,3.3c-0.4,0.7-1,1.5-0.5,2.1
			c0.3,0.4,0.7,0.4,1.2,0.5c3.7,0.9,4.5,6.3,8,7.8c0.2,0.1,0.5,0.2,0.7,0.3"/>
		<path fill="none" stroke="#585858" stroke-miterlimit="10" d="M360.3,48.3c0.4,0.1,0.8,0.2,1.1,0.4c0.2,0.1,0.4,0.3,0.6,0.4"/>
	</g>
</g>
<g>
	<g>
		<path fill="none" stroke="#585858" stroke-miterlimit="10" d="M361.3,52.4c-0.3,0-0.6,0.1-0.9,0.2c-0.4,0.1-0.7,0.2-1.1,0.3"/>
		<path fill="none" stroke="#585858" stroke-miterlimit="10" stroke-dasharray="4.0109,1.0027" d="M358.4,53.2
			c-0.9,0.2-1.8,0.3-2.6-0.1c-2-0.9-2.9-4.1-5.1-3.9c-0.7,0.1-1.4,0.5-2,1c-1.2,0.9-2.3,1.7-3.5,2.6c-1,0.7-2.5,1.5-3.3,0.6
			c-0.4-0.5-0.5-1.2-0.6-1.8c-0.2-2.2-1.1-4.3-2.4-6.1c-0.3-0.4-0.6-0.8-1-1c-0.6-0.3-1.2-0.4-1.9-0.3c-3.7,0.1-7.4,1.9-10.8,0.4
			c-1-0.4-2-1.2-3.1-1.4c-1.3-0.2-2.5,0.2-3.8,0.3c-2.1,0.1-3.4-0.2-5.5,0c-0.9,0.1-2.6,0.5-3.5,0.7c-1.9,0.3-4-3.3-5.5-2.1
			c-1.1,0.9,1.4,3.7,0.1,3.9c-2.4,0.4-4-2.6-6-4c-0.9-0.6-1.8-1.2-2.8-1.5c-2-0.7-4.3,0.1-6.4,0c-2.9-0.1-4.7-2.6-7.5-2.2
			c-5.3,0.9-10.3,5.2-15.9,6.4c-2.2,0.5-4.3,1.3-6.6,1.2c-2.8-0.1-5.4-1.2-8-1.9c-3.2-0.9-6.6-1.1-9.8-0.7c-0.8,0.1-1.6,0.2-2.1,0.8
			c-0.5,0.5-0.6,1.1-0.8,1.8c-1,4.5-2,9-3.1,13.4c-0.2,0.9-0.4,1.8-1,2.5c-0.4,0.6-1.1,1-1.7,1.3c-3,1.6-6.5,1.9-9.8,2.8
			s-6.7,2.6-8.1,5.7c-0.3,0.8-0.5,1.7-1.1,2.4c-1,1.4-3,1.6-4.8,1.5c-5.8-0.5-11.2-4.2-13.7-9.4c-0.5-1-0.9-2.1-1.8-2.8
			c-1.1-0.8-2.7-0.8-4.1-0.6c-2,0.2-3.9,0.3-5.9,0.5c-0.9,0.1-1.9,0.2-2.7,0.6c-0.6,0.4-1.1,0.9-1.5,1.5c-2.9,3.5-5.6,7.1-8.2,10.9
			c-0.5,0.7-1,1.5-1.1,2.4c-0.1,1.1,0.4,2.1,0.9,3.1c1.7,3.9,2,8.7-0.1,12.4c-1.2,2-3,3.6-5,4.8c-2.1,1.4-4.4,2.5-6.8,3.4
			c-3.1,1.1-7,1.8-8.9,4.5c-1.9,2.7-1.5,6.4-0.6,9.6c0.3,1.3-0.1,2.3,0.5,3.6c1.4,2.9,2.7,5.9,4.1,8.8c0.3,0.6,0.6,1.2,1.1,1.7
			c0.5,0.4,1.1,0.6,1.5,1c0.4,0.4,0.6,1,0.8,1.6c2.1,7-0.8,14.7,0.8,21.8c0.4,2,1.2,3.8,1.6,5.8c0.4,2-0.7,3.8-0.5,5.8
			c0.2,2,4,2,5.6,3.2c1.7,1.3,2,3.5,2,5.7c0,2.1-0.3,6,0.3,6.9c0.8,1,2.4,3.8,3.2,6c1,2.9-1,6-3.6,7.5s-5.7,1.8-8.7,2.4
			c-6.9,1.3-14,4.6-16.8,11c-1.4,3.2-1.9,7.2-4.8,9.1c-2.7,1.8-6.6,1-9.2,3c-2.8,2.2-3.5,7.2-7,7.7c-3.2,0.5-6-4.8-9.2-5.3
			c-3.5-0.6-3.8,4.1-6,6.8c-3.2,3.9-9,7.5-13.3,10c-0.7,0.4-1.4,0.8-2.2,0.9c-1.1,0.2-2.3-0.3-3.4,0.1c-1,0.4-1.7,1.6-2.8,1.8
			c-1,0.2-1.9-0.4-2.7-1.1s-1.4-1.5-2.4-1.8c-1-0.3-1.8,0.3-2.3,1.2c-2,4-7.3,5.8-10.1,9.3c-1,1.2-2.1,2.5-3.6,2.4
			c-1.3-0.1-2.3-1.4-2.7-2.7s-0.4-2.7-0.9-3.9c-1.3-3.2-4.9-4.5-8.2-5.5c-2.1-0.7-4.3-1.3-6.5-1.4c-2.2-0.1-4.6,0.5-6.2,2
			c-1,1-1.8,2.3-2.9,3.1c-3.4,2.5-8.6-0.1-12.2,2c-1.2,0.7-2.1,1.9-3.2,2.9c-2.7,2.3-6.5,3-10,2.5c-3-0.4-5.8-1.6-8.6-2.8"/>
		<path fill="none" stroke="#585858" stroke-miterlimit="10" d="M-0.6,249.2c-0.3-0.1-0.7-0.3-1-0.5c-0.3-0.1-0.6-0.3-0.8-0.4"/>
	</g>
</g>
<path fill="none" d="M318.6,123.3c-2.2-2.4-3.1-5.8-3.7-9c-2-9.4-3.1-20.7,4.2-27"/>
<text transform="matrix(-2.090377e-03 -1 1 -2.090377e-03 315.9092 104.5731)"><tspan x="0" y="0" fill="#7D7D7D" font-family="'Verdana-Italic'" font-size="7">9</tspan><tspan x="4.1" y="0" fill="#7D7D7D" font-family="'Verdana-Italic'" font-size="7" rotate="8.4">0</tspan><tspan x="8" y="0.4" fill="#7D7D7D" font-family="'Verdana-Italic'" font-size="7" rotate="20.4">0</tspan><tspan x="11.6" y="1.7" fill="#7D7D7D" font-family="'Verdana-Italic'" font-size="7" rotate="36.5">0</tspan></text>
<path fill="none" d="M285.5,329.8c1-3.2,3.3-5.7,5.6-8.1c4.6-5,9.3-9.9,13.9-14.9"/>
<text transform="matrix(0.6831 -0.7304 0.7304 0.6831 291.5098 324.9775)"><tspan x="0" y="0" fill="#7D7D7D" font-family="'Verdana-Italic'" font-size="7">8</tspan><tspan x="4.4" y="0" fill="#7D7D7D" font-family="'Verdana-Italic'" font-size="7">8</tspan><tspan x="8.9" y="0" fill="#7D7D7D" font-family="'Verdana-Italic'" font-size="7">0</tspan><tspan x="13.4" y="0" fill="#7D7D7D" font-family="'Verdana-Italic'" font-size="7" rotate="0">0</tspan></text>
<text transform="matrix(1 0 0 1 284.3669 60.6388)"><tspan x="0" y="0" fill="#585858" font-family="'Verdana-Italic'" font-size="8">Chilnualna Lakes</tspan><tspan x="0" y="9.6" fill="#585858" font-family="'Verdana-Italic'" font-size="8">(north)</tspan></text>
<text transform="matrix(1 0 0 1 190.3669 175.3047)"><tspan x="0" y="0" fill="#7BBCEB" font-family="'Verdana-Italic'" font-size="8">Chilnualna Lakes</tspan><tspan x="0" y="9.6" fill="#7BBCEB" font-family="'Verdana-Italic'" font-size="8">(west)</tspan></text>
<text transform="matrix(1 0 0 1 275.6995 197.3039)"><tspan x="0" y="0" fill="#585858" font-family="'Verdana-Italic'" font-size="8">Chilnualna Lakes</tspan><tspan x="0" y="9.6" fill="#585858" font-family="'Verdana-Italic'" font-size="8">(east)</tspan></text>
<text transform="matrix(1 0 0 1 243.3669 112.2999)"><tspan x="0" y="0" fill="#585858" font-family="'Verdana-Italic'" font-size="8">Chilnualna Lakes</tspan><tspan x="0" y="9.6" fill="#585858" font-family="'Verdana-Italic'" font-size="8">(middle)</tspan></text>
<path fill="none" d="M86.4,339.2c0.1-4.2,4.4-6.9,8.3-8.5c9.4-4,27-4.7,29.8-6.6"/>
<text transform="matrix(0.9581 -0.2864 0.2864 0.9581 96.885 332.5151)"><tspan x="0" y="0" fill="#7D7D7D" font-family="'Verdana-Italic'" font-size="7">8</tspan><tspan x="4.3" y="0" fill="#7D7D7D" font-family="'Verdana-Italic'" font-size="7" rotate="4.1">2</tspan><tspan x="8.6" y="0.3" fill="#7D7D7D" font-family="'Verdana-Italic'" font-size="7" rotate="6.4">0</tspan><tspan x="13" y="0.8" fill="#7D7D7D" font-family="'Verdana-Italic'" font-size="7" rotate="7.7">0</tspan></text>
<path fill="none" d="M237.9,173.2c3.9-6.9,6.6-14.4,9.1-21.9c3.8-11.5,7-23.3,9.7-35.1"/>
<text transform="matrix(0.3147 -0.9492 0.9492 0.3147 248.3713 155.0381)"><tspan x="0" y="0" fill="#7D7D7D" font-family="'Verdana-Italic'" font-size="7">8</tspan><tspan x="4.5" y="0" fill="#7D7D7D" font-family="'Verdana-Italic'" font-size="7" rotate="-0.7">6</tspan><tspan x="9" y="-0.1" fill="#7D7D7D" font-family="'Verdana-Italic'" font-size="7" rotate="-1.4">0</tspan><tspan x="13.5" y="-0.2" fill="#7D7D7D" font-family="'Verdana-Italic'" font-size="7" rotate="-2.1">0</tspan></text>
<path fill="none" d="M141,147.1c2.2-3.1,2.2-7.2,2.4-10.9c0.5-9.2,2.6-18.3,6.3-26.8"/>
<text transform="matrix(7.020233e-02 -0.9975 0.9975 7.020233e-02 145.6164 141.6812)"><tspan x="0" y="0" fill="#7D7D7D" font-family="'Verdana-Italic'" font-size="7">8</tspan><tspan x="4.5" y="-0.1" fill="#7D7D7D" font-family="'Verdana-Italic'" font-size="7" rotate="0">4</tspan><tspan x="8.7" y="-0.1" fill="#7D7D7D" font-family="'Verdana-Italic'" font-size="7" rotate="3.2">0</tspan><tspan x="13" y="0.2" fill="#7D7D7D" font-family="'Verdana-Italic'" font-size="7" rotate="6.4">0</tspan></text>
<path fill="none" d="M14.8,40.3c5.6,9.2,11.4,19.6,9.3,30.2"/>
<text transform="matrix(0.4477 0.8942 -0.8942 0.4477 16.6037 48.4946)"><tspan x="0" y="0" fill="#7D7D7D" font-family="'Verdana-Italic'" font-size="7">8</tspan><tspan x="4.2" y="0" fill="#7D7D7D" font-family="'Verdana-Italic'" font-size="7" rotate="4.2">2</tspan><tspan x="8.4" y="0.3" fill="#7D7D7D" font-family="'Verdana-Italic'" font-size="7" rotate="10.1">0</tspan><tspan x="12.5" y="0.9" fill="#7D7D7D" font-family="'Verdana-Italic'" font-size="7" rotate="17.9">0</tspan></text>
<g>
	<g>
		<polyline fill="none" stroke="#7D7D7D" stroke-miterlimit="10" points="85.2,341.6 85.2,348.7 275.4,348.7 275.4,341.7 		"/>
		<line fill="none" stroke="#7D7D7D" stroke-miterlimit="10" x1="180.5" y1="341.4" x2="180.5" y2="348.7"/>
		<line fill="none" stroke="#7D7D7D" stroke-miterlimit="10" x1="161.2" y1="349.2" x2="161.2" y2="343.7"/>
		<line fill="none" stroke="#7D7D7D" stroke-miterlimit="10" x1="142.4" y1="349.2" x2="142.4" y2="343.7"/>
		<line fill="none" stroke="#7D7D7D" stroke-miterlimit="10" x1="123.3" y1="349.2" x2="123.3" y2="343.5"/>
		<line fill="none" stroke="#7D7D7D" stroke-miterlimit="10" x1="104.6" y1="349.2" x2="104.6" y2="343.7"/>
	</g>
	<text transform="matrix(1 0 0 1 83.7833 339.1468)" fill="#7D7D7D" font-family="'Verdana'" font-size="8">0</text>
	<text transform="matrix(1 0 0 1 174.2945 339.1468)" fill="#7D7D7D" font-family="'Verdana'" font-size="8">0.5</text>
	<text transform="matrix(1 0 0 1 258.3414 339.1468)" fill="#7D7D7D" font-family="'Verdana'" font-size="8">1 mi</text>
</g>
</svg>
