<?xml version="1.0" encoding="utf-8"?>
<!-- Generator: Adobe Illustrator 17.1.0, SVG Export Plug-In . SVG Version: 6.00 Build 0)  -->
<!DOCTYPE svg PUBLIC "-//W3C//DTD SVG 1.1//EN" "http://www.w3.org/Graphics/SVG/1.1/DTD/svg11.dtd">
<svg version="1.1" id="Layer_1" xmlns="http://www.w3.org/2000/svg" xmlns:xlink="http://www.w3.org/1999/xlink" x="0px" y="0px"
	 viewBox="0 0 360 360" enable-background="new 0 0 360 360" xml:space="preserve">
<path fill="none" stroke="#E1E1E1" stroke-miterlimit="10" d="M369.2,345c-3.7,3.8-6.8,8-8.2,13.1c-0.7,2.7-0.9,5.4-1.9,8
	c-0.9,2.2-2.3,4.2-3.7,6.1"/>
<path fill="none" stroke="#E1E1E1" stroke-miterlimit="10" d="M338.6,371.2c1.9-2.3,3.7-4.5,5.6-6.8c1.3-1.6,2.7-3.5,2.2-5.5
	c-0.3-1.3-1.4-2.3-2.2-3.5c-2.9-4.7,0.5-10.6,3.8-15c4.8-6.4,9.6-12.8,14.7-19c2.3-2.7,4.6-5.4,7-7.9"/>
<path fill="none" stroke="#E1E1E1" stroke-miterlimit="10" d="M301.4,370.7c0.5-2,0.9-4.1,1.8-5.9c1-1.9-2.6-1.6-4.3-2.9
	c-0.8-0.7,0.8-2.4,0.1-3.2c-1-1-3.2,0.1-3.9-1.1c-1.8-2.9-3.3-6.1-6.7-5.8c-3.4,0.3-5.8,6-8.9,4.6c-2.8-1.2-4.9-4.3-4.9-7.3
	c0-1.1,1-1.9,0.8-2.9c-0.4-1.4-2.2-1.7-3.6-1.5c-1.4,0.2-3.3,0.5-4-0.8c-0.5-0.9-0.3-2.2-1.2-2.7c-0.5-0.3-1.2-0.2-1.8-0.1
	c-4.4,1.1-11.7-1.1-13.1,3.2c-0.7,2.1,2.2,3.8,2.4,6c0,0.6,0,1.2-0.3,1.7c-0.3,0.4-0.7,0.7-1.1,0.9c-3.5,1.9-7.4,3.1-11.4,3.3
	c-3.3,0.2-6.6-0.3-9.9-0.7c-2-0.3-4-0.5-6-0.8c-3.2-0.4-6.6-0.9-9.4-2.6c-0.7-0.4-1.4-1-1.7-1.7c-0.2-0.6-0.3-1.2-0.5-1.8
	c-1.1-2.7-5.9-1.8-7.3-4.4c-0.4-0.7-0.4-1.5-1-2.1c-1.1-1.3-3.2-0.4-4.5,0.6c-1.7,1.2-3.4,2.3-4.6,4c-1.2,1.6-1.9,3.9-1.1,5.8
	c0.4,1.1,1.3,2.1,1.2,3.3c-0.2,1.7-2.3,2.5-3.1,4.1c-0.3,0.7-0.4,1.5-0.4,2.2c-0.1,2.5-0.2,4.9-0.3,7.4c0,1.2-0.1,2.4,0.5,3.5"/>
<path fill="none" stroke="#E1E1E1" stroke-miterlimit="10" d="M234.6,371.9c-0.8-1.4-2-2.4-3.5-2.8c-5.1-1.4-10.1-2.9-15.2-4.3
	c-1.2-0.4-2.5-0.7-3.4-1.6s-0.3-2.2-0.5-3.5c-0.1-0.5-1.1-0.3-1.2-0.8c-0.3-1.4,0-3-1.2-3.7c-1.2-0.7-2.8-0.8-4.2-0.8
	c-0.6,0-1.2,0-1.7,0.4c-1,0.7-0.7,2.2-0.5,3.5c0.5,3-2.3,5.8-1.6,8.7c0.2,0.8,1.7-0.1,2.5,0.3c1.9,0.9,2.4,2.8,2.3,5.1"/>
<path fill="none" stroke="#E1E1E1" stroke-miterlimit="10" d="M368.8,278.2c-4.1,0.9-9.1,4.8-12.7,7.1c-0.9,0.6-1.8,1.2-2.6,1.9
	c-0.8,0.7-1.4,1.6-2.1,2.4c-1,1.2-2.1,2.3-3.1,3.5c-2.2,2.3-4.5,4.7-6.7,7c-1.6,1.7-3.3,3.4-5.5,4.1c-1.8,0.6-3.8,0.4-5.6,0.9
	c-1.8,0.6-4.6,3.4-2.9,4.2c1.1,0.5,1.8,1.2,2.6,2.1c1.6,2,5-1.3,7.2,0.1c1.2,0.8,1.6,2.4,3,2.2s2.5-1.2,3.4-2.2s1.7-2.3,2.8-3.1
	c0.6-0.4,1.3-0.8,1.8-1.2c2.4-2,2.2-5.8,4.3-8c1.3-1.4,3.3-1.9,4.9-3c2.8-1.9,4.3-5.3,7.1-7.2c1.6-1.1,3.6-1.6,5.2-2.7"/>
<path fill="none" stroke="#E1E1E1" stroke-miterlimit="10" d="M370.4,197.2c-1,0.2-2.1,0.2-3.1,0.1c-2.2-0.1-4.3-0.8-6.4-0.9
	c-2.2-0.1-4.6,0.6-5.7,2.4c-0.6,0.9-0.7,2-1.3,3c-0.5,0.9-1.7,1.7-2.7,1.2c-0.7-0.4-1-1.2-1.3-1.9c-0.5-1.1-1.2-2.1-2.2-2.7
	s-2,0.3-3.2,0.7c-2.7,0.9-1.8-5.4-4.1-7.1c-0.7-0.6-1.7-0.8-2.4-1.3c-1.1-1-1.2-2.7-1.2-4.1c0-2.3,0.7-4.8-0.1-7
	c-2.7-7.6-3.9-15-5.4-23c-1.3-7-8-11.5-10.4-18.2c-0.8-2,3.1-1.3,5-2.3c3.1-1.6,4.5-5.2,8-5.5c8-0.8,15.5,2.6,23.5,3.6
	c3.8,0.5,7.6,0.1,11.3-0.4"/>
<path fill="none" stroke="#E1E1E1" stroke-miterlimit="10" d="M182.1,371.8c0-1.7,0-3.5,0-5.2c0-5.3,0.1-10.7,0.3-16
	c0.2-4.9,0.5-9.8,0.9-14.6c0.1-1.3,0.3-2.7,0.9-3.9c1.8-3.5,6.5-4,10.4-3.6c5.2,0.6,10,5.8,15,4.2c1.2-0.4,0.6-2.9,1.7-3.2
	c2.7-0.8,5.7,0,8.2,1.2c1.1,0.6,0.5,2.9,1.6,3.3c2.2,0.9,4.4,2,6.8,1.6c1.4-0.2,2.4-1.5,3.7-2.2c2.3-1.2,5-0.2,7.6,0
	c2.6,0.2,3.3-2.5,5.5-3.9c6.4-4.1,14.3-0.9,21.6-3.2c3.6-1.1,3.9-6.5,7-8.7c3.1-2.2,7.1,0.9,10.5-0.7c3-1.4,0.6-9.5,3.8-8.9
	c2,0.4,2.5,5.7,4.1,4.4c4.1-3,8.3-7.5,7.7-12.6c-0.2-1.4,0.1-4.2,1.1-3.2c1.5,1.4,3.8,3.4,3.9,5.4c0.1,2.4-3.8,3.9-2.7,6
	c0.7,1.3,2.8-2.3,4-1.5c0.9,0.6,0.4,3.9,1.3,4.3c2.4,1.3,5.2-5.5,6.9-8.6c0.6-1.2,0.7-2.6,1.6-3.5c0.8-0.9,2-1.2,3.1-1.8
	c5.9-3.1,12.2-15.4,14.8-13c1.8,1.7-2.1,7.3,0.3,7.3c1.6,0,0.6-3,1.7-4.2c1.7-2,4-3.2,6.3-4.4c4.4-2.3,8.8-4.6,13.2-6.9
	c1.9-1,3.8-2,5.7-2.8c2.7-1.2,5.6-2,8.6-2.6"/>
<path fill="none" stroke="#E1E1E1" stroke-miterlimit="10" d="M290.1,141c2.3-0.6,4.5-1.6,6.5-3c0.5-0.3,1-0.7,1.6-0.5
	c0.7,0.2,1,1,1,1.7c0,0.7-0.6,1.8,0.1,2.1c1.3,0.7,3.2,0.4,3.8,1.8c0.3,0.7,0.9,2.3,1.3,1.7c1.2-1.5,2.4-3.2,2.2-5.1
	c-0.1-0.9-0.9-1.5-1.4-2.1c-1.8-2-2.2-4.9-3-7.4c-0.3-1-0.8-2.1-1.7-2.5c-0.6-0.3-1.2-0.3-1.9-0.4c-2.3-0.3-3.3-2.9-5.4-3.8
	c-1.5-0.7-3.1,0.8-4.7,1.2c-2.2,0.6-4.7,1.4-5.7,3.4c-0.5,1.1-0.5,2.4-0.4,3.6c0.1,2.5-1.4,5.9,0.4,7.6c0.3,0.3,1,0.3,1.3,0
	c0.8-0.7,1.5-3.1,2.1-2.1c1,1.5,0.3,3.8,2,4.1C288.8,141.3,289.5,141.1,290.1,141z"/>
<path fill="none" stroke="#E1E1E1" stroke-miterlimit="10" d="M369.2,71.6c-10.2-0.4-20.4-1.1-30.2-4.1c-6.1-1.8-9.2-9-15.4-10.5
	c-2.1-0.5-5,2.7-6.5,1.2c-2.8-2.7-0.4-7.7-0.6-11.6c-0.1-1.6-0.4-3.6-2-4.1c-1.7-0.6-3.4,1.2-5.2,1.1c-2-0.1-3.1-2.5-3.2-4.6
	c-0.2-6.3,4.7-11.5,9.6-15.5c7.8-6.4,16.7-12.1,21.4-21c0.7-1.2,1.2-2.5,2.2-3.6c0.6-0.7,1.4-1.2,2.1-1.9c2.6-2.4,3.9-6.1,3.4-9.5"
	/>
<path fill="none" stroke="#E1E1E1" stroke-miterlimit="10" d="M155.6,136.2c1.3-0.4,2.7,0.6,3.7-0.3c1-0.9,0.2-2.4,0.6-3.7
	c0.7-2.2,3-3,4.3-5c1.2-2,4.8-1.9,5.3-4.2c0.2-1,0-2,0-3c0-3.6,5.3-8.9,7.3-5.9c0.6,0.8-1.3,2.3-0.6,2.9c0.7,0.7,0.7,0.9,1.3,1.8
	c1.3,2,1.9-3.9,3.5-5.6c0.5-0.6,1.7,0.3,2.1,0.9c2.3,3.4-2.9,7.6-2.4,11.7c0.3,2.7,2.9,4.6,4.5,6.8c3.1,4.3,2.6,10.5,0.3,15.3
	s-6.1,8.8-9.5,12.9c-1.5,1.8-2.9,3.7-3.6,6c-0.6,1.8-1.1,3.1-1.8,4.9c-0.7,1.8-2.6,3.8-4.5,3.9c-1.2,0-1.5-0.2-2.6-0.7
	c-5.1-2.4-11-3-16.5-1.6c-2,0.5-4.7,1.4-6.7,1c-0.9-0.2-1.8-0.4-2.6-0.3c-2.1,0.3-4.4,3.6-5.9,2c-0.9-1-1.4-2.4-2.7-3
	c-0.6-0.3-1.2-0.5-1.7-0.9c-0.3-0.3-0.6-0.7-0.8-1.1c-2.2-4-4.4-8.4-3.8-12.9c0.1-0.6,0.2-1.1,0.6-1.5c0.4-0.5,1-0.7,1.6-0.8
	c4.9-1.4,9.9,3.9,14.7,2.1c1.3-0.5-0.7-3,0.1-4.1c1.3-1.9,4.5-1.4,5.8-3.3c0.5-0.8,1-1.7,1.7-2.4s1.7-0.2,2.7-0.5
	c2.4-0.9,2.4-4.5,4.7-5.6c0.7-0.3,1.5-0.7,1.7-1.4C156.8,138.9,154.2,136.6,155.6,136.2z"/>
<path fill="none" stroke="#E1E1E1" stroke-miterlimit="10" d="M157.7,189.3c0.3-0.9,1.5-1.3,2.3-1.9c0.8-0.7,1.7-1.4,2.7-1.7
	c1-0.3,2.5-0.2,2.9,0.8c0.9,1.9,0.8,4.3-0.1,6.2c-1,2-3,3.2-4.2,5c-0.1,0.2-0.3,0.5-0.5,0.6c-0.6,0.2-1-0.6-1.2-1.3
	C159.2,195.3,157.1,191.1,157.7,189.3z"/>
<path fill="none" stroke="#E1E1E1" stroke-miterlimit="10" d="M187.5,83.1c-0.2,0.6,1.1,1.2,1.6,0.9c0.5-0.3,1.3-1.7,0.8-2.1
	c-0.2-0.2-0.6-0.1-0.9,0C188.6,82,187.7,82.6,187.5,83.1z"/>
<path fill="none" stroke="#E1E1E1" stroke-miterlimit="10" d="M196.7,74.4c-1.7-0.8-4.2,2.2-2.8,3.5c0.8,0.7,1.7-0.1,2.3-1
	C196.9,76,197.7,74.8,196.7,74.4z"/>
<path fill="none" stroke="#E1E1E1" stroke-miterlimit="10" d="M368.8,139.8c-4.5-0.4-10.2,4-13.3,0.7c-1-1.1-0.5-2.9-1.9-3.4
	c-1.4-0.5-2.9-0.2-4.3,0.1c-2,0.4-4,0.8-6,1.2c-0.9,0.2-1.9,0.4-2.3,1.2c-0.2,0.4-0.2,1-0.2,1.4c0.1,4.9,0.2,9.9,0.3,14.8
	c0.1,2.8,0.1,5.6,0.5,8.3c0.4,3.2,1.2,6.3,2.1,9.4c0.4,1.3,0.8,2.5,1.6,3.5c2.6,3.2,7.7,2.4,11.4,0.6c0.8-0.4,1.5-0.8,2.4-0.8
	c0.8-0.1,1.5,0.2,2.3,0.3c2.6,0.6,5.4,0.3,7.9-0.8"/>
<path fill="none" stroke="#E1E1E1" stroke-miterlimit="10" d="M355.5,155c-1.3-1.1-1.9-2.6-2.6-4.1c-0.7-1.5-1.8-2.9-3.4-3.4
	c-0.3-0.1-0.7-0.1-1,0.1c-0.2,0.2-0.3,0.5-0.3,0.8c-0.6,3.8,0.4,7.7,1.8,11.3c0.3,0.8,1,1.9,1.9,1.6c0.6-0.2,0.9-1.1,1.6-1.1
	c0.7,0,1,0.9,1.5,1.5c0.7,0.7,2.5,0.2,2.4-0.9c-0.2-1.6,0.4-3.3-0.5-4.6C356.5,155.7,356,155.4,355.5,155z"/>
<path fill="none" stroke="#E1E1E1" stroke-miterlimit="10" d="M118,290.9c1.1-1.2,2.6-3.4,1.3-4.3c-1.5-1-3.2,1.3-4.4,2.7
	c-0.4,0.5-0.8,0.9-1,1.5c-0.4,0.8-0.5,2.1,0.2,2.6C115,294,117.3,291.7,118,290.9z"/>
<path fill="none" stroke="#E1E1E1" stroke-miterlimit="10" d="M49.2,370.8c0.1-0.3,0.2-0.6,0.2-0.9c0-1.4-1.5-1.7-2.8-2.4
	c-0.8-0.4,0.1-2.1-0.6-2.6c-0.7-0.4-2.1-0.8-1.5-1.3c1.7-1.4,5.5-3.2,4-4.8c-0.7-0.7-2.2,0.6-3,0c-2.1-1.5-2.3-4.7-4.3-6.3
	c-1.2-1-2.6-1.8-3.9-2.6c-4.1-2.5-8.1-5.4-11.7-8.6c-0.6-0.5-1.1-1-1.5-1.6c-0.3-0.6-0.5-1.2-0.7-1.8c-0.9-2.3-2.7-4.3-4.9-5.4
	c-1-0.5-2.2-0.9-3.1-1.5c-1.5-1-2.5-2.5-3.7-3.7c-1.2-1.3-3-2.3-4.7-1.9c-0.7,0.2-1.3,0.6-1.6,1.2c-0.3,0.7-0.2,1.4-0.1,2.1
	c0.4,1.6,1.1,3.1,2.1,4.3c1.3,1.7,3.1,3.1,3.2,5.2c0,0.7-0.1,1.5,0,2.2c0.3,1.2,1.4,1.9,2.6,2.3c1.2,0.3,2.4,0.4,3.5,0.7
	c2.4,0.7,4.2,2.7,5.9,4.5c1.7,1.9,2,5.1,4.3,6.3c1,0.5,2.6-1.1,3.4-0.3c1.8,1.9,2.1,4.8,2.5,7.4c0.3,2.2-0.4,4.7,0.8,6.6
	c1.1,1.7,3.3,2.2,5.1,3"/>
<path fill="none" stroke="#E1E1E1" stroke-miterlimit="10" d="M38.8,370.6c1.3,0.5,2.5,1.3,3.9,1.8s2.8,0.8,4.2,0.4
	c1.1-0.3,2-1.1,2.4-2"/>
<path fill="none" stroke="#E1E1E1" stroke-miterlimit="10" d="M-12.5,285.1c0.6,0.7,0.9,1.5,1.2,2.3c1.4,4,0.7,9.7,4.2,12
	c2.4,1.6,3.7-4.6,6.5-5.1c0.9-0.2,1.7,0.1,2.6,0.3c4.4,1.3,8.8,2.6,13.1,3.9c1.1,0.3,2.3,0.7,3.5,0.5c3.3-0.5,4.6-4.5,6.6-7.3
	c1.9-2.6,5.8-4.8,7.9-6c7.7-4.1,15.4-8.1,23.1-12.1c1-0.5,2.2-1.3,2.4-2.4c0.1-0.5,0-1.1,0-1.6c0.1-2.4,3.1-3.3,5.4-4.3
	c3.4-1.4,6-4.2,8.4-7c2.7-3.1,5.4-6.2,8-9.3c2.1-2.5,4.2-5,6.4-7.4c3.2-3.8,6.5-7.4,10.8-9.8c0.6-0.3,1.3-0.7,2-0.6
	c0.5,0.1,0.9,0.4,1.4,0.4c0.7,0,1.4-0.5,2-1c1.5-1.1,3.6-0.1,5.3-1c4.1-2.1,5-6.8,9.6-6.8c4.9,0,10.9-0.1,15.1-0.6
	c2.2-0.3,4.4-0.5,6.1-2.1c0.6-0.6,1-0.4,1.7-0.9c1.2-0.8,3.5-0.7,4.9-1.2c1-0.4,2.4-0.8,3.2-1.4c0.7-0.5,2-1.9,2.9-2.2
	c0.8-0.2,1.5-1,2.3-1.1c0.8-0.1,1.5,0.6,1.6,1.4c0.2,0.8,0,1.6-0.1,2.4c-0.1,1.3,0.2,2.7,1.2,3.6c0.3,0.2,0.8,0.6,1.2,0.6
	c5.2-0.5,7.3-7.2,12.6-9.9c1.8-0.9,4.2-3.8,5.2-2.2c2.2,3.8,7.6,10.1,10.6,7.2c1-1-2.1-3.2-1.1-4c1.6-1.3,4.1,1.9,4.1-1.7
	c0-1.2-1.4-3.4,1.4-6.4c2.3-2.5-3.8-6.5-3.7-9.9c0-0.5-0.2-0.6,0.2-1.5c0.5-1.3,3-2,3-3c0-7-0.3-13.2,5-19c1-1-1-1.6-1-3
	c0-3.4,2.6-6.1,2.5-8.5c-0.1-2.5-2.9-4.7-1.5-7.5c2-4,7.9-9.5,5.1-10.3c-1.7-0.5-2.1,2.3-3.1,1.3s-2-3-1-5c3-6,13.2-17.2,10.7-19.5
	c-1.3-1.2-14.9,17.7-14.7,13.2c0.2-2.9,0.5-4.4-1.3-6.3c-0.9-0.9,3.5-7.5,3.4-22.4c0-2.2,3.3-3.2,2-5c-0.8-1.1-2.2-2-2-3
	c0.5-2.2,4.4-3.8,3.7-4.9c-1.7-2.7-4.9,2.5-7.6,3.7c-1.1,0.5-1.7,1-1.7-0.9c0-1.1,0.9-2.3,1.9-2.7c2.4-0.8,6.7-2.5,5.2-4.6
	c-1.6-2.2-5,2.9-7.7,2.5c-1.2-0.2,0.4-2.2,1.6-2.7c7.1-3,13.8-6.8,20-11.3c0.6-0.4,1.3-0.9,1.7-1.6c0.3-0.5,0.4-1,0.7-1.4
	c0.8-1.2,2.3-1.6,3.5-2.2c1.3-0.6,3.6-2.3,2.4-3.1c-1.7-1.1-4.3,3.2-5.7,1.8c-1.3-1.3,2.4-2.7,4.2-3.2c1.8-0.5,3.6-0.7,5.4-1.4
	c1.9-0.8,5.9-3.4,7.8-2.7c2,0.7,2.1,3.6,3.1,5.4c0.2,0.3,0.4,0.7,0.8,0.9c0.8,0.4,1.7-0.2,2.1-1c0.5-0.7,0.8-1.6,1.5-2
	c1.2-0.7,2.7,0.2,3.9,1c7.1,5.2,14.6,18.3,22.4,14.1c2.1-1.2,3.1-2,5.5-2.8c1.5-0.5-0.8-3.1-0.5-4.6c0.4-1.9,3-2.4,4.2-4
	c0.8-1,0.9-2.3,1.2-3.5c0.5-2.1,1.7-4.1,3.4-5.6c1.1-0.9,0.9-3.2,1.6-4.5c0.5-1,1.1-2.1,1.3-3.2c0.3-1.7-0.1-3.4,0.5-5
	c0.8-2,2.9-3.1,4.1-4.9c1.3-1.9,1.3-4.4,2.3-6.5c1-2.1,3.2-2.1,5.5-2.1c1,0,0.5-2,0-2.9s-1.3-1.6-1.7-2.6c-0.6-1.6,0.2-3.5,1.3-4.8
	c1.4-1.7,3.6-3.2,3.7-5.5c0.1-1.2-0.4-2.4-0.3-3.6c0.1-1.4,1-2.7,1.9-3.8c5.9-7.4,11.9-14.7,18.2-21.8"/>
<path fill="none" stroke="#E1E1E1" stroke-miterlimit="10" d="M-13.2,277.1c1.2-0.4,2.5-0.8,3.7-0.3c2.1,0.8,2.7,4.2,3.2,5.7
	c1.7,5.3,8.9,7,14.4,5.6s11.3-5.8,14.8-8.2c13.1-9,29.2-13.2,41.9-22.8c9.1-6.9,16-16.2,23.2-25c2.7-3.3,5.6-6.7,9.2-8.9
	c2.5-1.6,5.4-2.7,8.2-3.7c2.8-1,5.4-3.4,8.3-3.1c1.6,0.2,3.1,1.5,4.4,0.5c0.5-0.4,0.8-1.1,1.2-1.6c1.4-2.1,4.1-3,6.5-3.7
	c3.2-0.9,6.4-1.9,9.5-2.8c1.7-0.5,3.6-1.1,4.9-2.3c1.3-1.2,0.7-3.1,1.1-4.9c0.2-0.9,1.8-0.1,2.5-0.6c0.6-0.4,1.2-2,0.5-2.3
	c-5.3-2.5-8-6.9-10.8-11.6c-0.2-0.4-0.6-0.6-1-0.7c-1.3-0.4-2.2,1.1-3.1,2c-1.5,1.3-4.8,1.6-5.3-0.3c-0.5-1.7-2-2.9-3.8-2.7
	c-1.8,0.2-4.3,1.8-5.3,0.3c-1.2-1.8,0.2-4.3,0.2-6.4c0-0.6,0-1.2,0.3-1.8c0.3-0.6,0.8-1.1,1.1-1.7c0.9-1.5,1.3-4.4-0.4-4.8
	c-3.6-0.9-5.3-3.1-8.6-4.8c-2-1-3.4,2.8-5.1,4.3c-1.6,1.5-4.8,3.9-6,2c-0.9-1.4-0.8-3.5,0-5c0.5-1,2.5-0.4,3.1-1.3
	c1.3-1.9-0.5-5.3,1.7-6.2c2.5-1,6.6,3.5,7.8,1.1c2-3.9,1.2-8.8,4.6-11.7s7.7-4.2,11.9-5.5c0.7-0.2,1.6,0.3,2.2-0.2
	c1.4-1,2.5-2.1,4-1.4s3.7,3.1,4.7,1.8c1.3-1.8,2-3.2,3.5-4.9c0.3-0.4,0.3-1.3-0.1-1.5c-1.2-0.5-2.5-0.7-2.4-1.9
	c0.1-1.3,1.1-2.2,2.1-3.1c5.3-5.1,9.7-11.2,12.7-17.9c0.5-1.1,0.9-2.2,1-3.3c0.1-1-0.2-2,0.2-3c0.6-1.6,3.7-3.2,2.4-4.2
	c-1.9-1.5-4.3,2.2-6.3,3.6c-2,1.4-4.6,2.4-6.8,1.4c-1.4-0.7-2.3-2-3.4-3s-2.6-0.5-4.1-0.8c-2.2-0.5-0.4-4.4,0.8-6.3
	c1.2-1.8,3-3.3,4.4-5c2.6-3,5-6.2,8.8-7.5c2.1-0.7,5.7-3.5,7.4-5c2.1-1.9,3.8-4.2,5.8-6.1c0.6-0.5,1.2-1.1,1.9-1.4
	c0.8-0.3,1.6-0.3,2.4-0.5c1.2-0.2,2.3-0.8,3.4-1.3c9.3-4.4,18.3-9.8,28.4-11.8c5-1,10.8-8.7,14.8-5.5c0.6,0.5-0.3,1.9,0.3,2.4
	c3.4,3.1,9.2-1.9,12-5.6c0.7-0.9,1.4-2,2.4-2.6c0.8-0.4,1.6-0.5,2.4-1c1.5-1,2.3-3.5,4-3.2c0.9,0.2,1.4,1,2.1,1.5
	c1.4,1,3.3,0.6,5,0.3c3.3-0.6,6.8-0.7,10.1-0.2c0.8,0.1,1.6,0.3,2.3,0c0.7-0.2,1.2-0.8,1.7-1.2c2.1-1.6,4.9-2.3,7.5-1.6
	c1.3,0.3,2.9,0.8,3.7-0.2c0.7-0.9,0.1-2.1,0.2-3.2c0.2-3,4.6-4.1,5.1-7.1c0.3-1.6-0.8-3.4-0.1-4.9c0.5-1,1.7-1.9,1.3-2.9
	c-0.2-0.4-0.5-0.6-0.7-1c-0.3-0.6,0.1-1.4,0.5-2c1.9-2.8,3.8-5.5,5.7-8.3c1.1-1.6,2.2-3.2,3.3-4.8c5.7-8.1,11.6-16.1,17.7-23.9"/>
<path fill="none" stroke="#E1E1E1" stroke-miterlimit="10" d="M-12.3,265.5c0.5-0.1,1-0.1,1.5-0.1c4.6,0.1,9.1,3.1,10.7,7.5
	c0.4,1,1.1,1.9,2,2.3c2.3,1.1,4.4,1.8,7,1.9c7.4,0.3,11.2-9,18.3-11.4c10.2-3.4,19.4-9.2,27.5-16.3c5.8-5.1,13.2-9.7,17.1-16.8
	c1.2-2.2,2.1-4.7,3.4-6.9c3-5,10.3-5.9,14.2-10c1.9-2,2.1-5.3,4.2-7.1c3.1-2.8,7.7-4,11.7-2.8c0.5,0.1,1.1,0.3,1.6,0.2
	c0.5-0.2,0.9-0.6,1.2-1.1c1-1.3,2.9-2.5,2.7-4c-0.3-1.5-2.9,0-4.3,0.4c-3.8,0.9-7-2.7-9-6c-3.8-6.1-6.8-12.6-9.2-19.4
	c-1.2-3.6-2.3-7.6-0.9-11.1c0.7-2,2.2-3.6,3.6-5.2c4.5-5.1,7.1-15.7,14-15.1c1.1,0.1,0.1,2.7,1.1,3c10.8,4,25.8-13.7,23.9-25.1
	c-0.2-1.3-2.6-0.7-3.8-1.3c-1.2-0.6-0.8-2-1.4-3.2c-1.2-2.7-5.9-0.5-8.8-0.8c-1.4-0.1-3.2-0.5-3.6-1.9c-0.2-0.6,0-1.3,0.2-1.9
	c1-3,3-5.7,5.7-7.4c0.7-0.5,1.5-0.9,2.1-1.5c1.6-1.6,1.8-4.1,1.1-6.2s-3.8-3.4-3.5-5.5c0.3-2.4,3.9-2.8,5.8-4.2
	c0.8-0.6,1.8-1.2,2.8-0.9c0.6,0.2,1.1,0.8,1.8,1c0.7,0.1,1.3-0.3,1.9-0.7c6.5-4.6,12.7-9.7,18.6-15.1c3.2-3,3.9-10.2,8.2-10.7
	c1.5-0.2,2.4,3.7,3.6,2.7c1.7-1.3,1.3-3.1,2.8-4.6c1.7-1.7-1.6-5.4,0.1-7.1c2.7-2.8,9.1,4.2,11.6,1.2c1.6-2,2.1-4.5,4.6-4
	c2.5,0.5,4.5,2.4,6.9,3c5,1.3,9.6-2.7,14.4-4.6c4.8-1.9,10.5-1.8,14.8-4.8c1.5-1.1,3-2.5,4.9-2.3c1.4,0.2,2.8,1.3,4,0.6
	c1.1-0.6,0.9-2.2,0.9-3.4c-0.4-7.9,14.5-18.4,7.6-22.2c-2.6-1.4-4.7,7.3-7,5.4c-2.4-1.9,0.4-9.5,1.2-14.2c0.2-1.2,0.5-2.5,1.3-3.4
	c1.3-1.4,4.7-1.9,4-3.6c-1.7-4.3-11-4.3-12.9-0.1c-1.9,4.1,2.7,12.5-1.8,13.2c-4.2,0.7-5.1-6.7-7.7-10.1c-0.3-0.4-0.7-0.9-1.2-0.9
	c-0.9-0.1-1.5,0.9-1.6,1.7s0.2,1.8,0.1,2.6c-0.4,2.5-3.6,3.1-6.1,3.7c-4.2,1.1-7.8,4.1-9.6,8c-0.3,0.7-0.6,1.4-1.2,1.8
	c-0.7,0.4-1.5,0.2-2.2,0.2c-3-0.2-6,1.6-7.3,4.3c-0.5,1-0.7,2.2-1.2,3.3c-1.4,3.5-4.5,6.1-7.5,8.4c-2.9,2.3-5.8,4.6-8.6,6.8
	c-4.9,3.9-9.8,7.8-15.7,9.9c-7.8,2.8-16.8,2.3-24,6.4c-0.4,0.2-0.8,0.4-1.2,0.4c-0.6,0-1-0.4-1.5-0.7c-1.1-0.6-2.4-0.5-3.6-1
	c-1.2-0.4-0.2-2.5-1.4-2.9c-1.6-0.5-13.8,9-20.7,13.5c-1.8,1.1-3.7,2.3-5.8,2.3c-1.2,0-2.3-0.3-3.5-0.3c-1.7,0.1-3.2,1.2-4.8,1.9
	c-1.6,0.7-3.2,0-5,0c-1.3,0-2.3,1.5-3.6,1.8s-2.8-0.1-3.3-1.3c-0.2-0.5-0.2-1.1-0.4-1.6c-0.5-1.1-1.9-1.6-3.1-1.3
	c-1.2,0.3-2.2,1-3.1,1.8c-1.7,1.4-3.4,2.8-5.2,4.1c-1.6,1.3-3.2,2.6-4,4.4c-0.9,1.9-0.8,4-1.2,6c-2.2,10.3-16.4,14.2-19.2,24.3
	c-0.7,2.4-0.7,5.2-2.2,7.2c-1.1,1.5-3,2.4-3.7,4.1c-0.6,1.6,0,3.3-0.1,5c-0.1,2.4-1.7,4.5-3.5,6.1c-1.8,1.6-4,2.7-5.8,4.2
	c-4.1,3.3-6.8,8.2-9.1,13c-1.4,2.9-2.8,6-5.2,8.2c-3,2.8-9.4,1.1-11,4.9c-0.8,1.9-0.7,4-2.4,5.1s-3.9,2.1-4.4,4.2"/>
<path fill="none" stroke="#E1E1E1" stroke-miterlimit="10" d="M-13.2,259.3c3.2,0.7,6.5,2,9.7,2.5c3,0.5,4.1,1,7.6,1.4
	c15.2,1.7,19.4-7.4,28.4-12.4s16.6-12.2,21-22c0.9-2,3.3-1.9,4-4c1.7-4.8-6.7-2.8-7.2-5.8c-0.1-0.6-0.1-1.1-0.2-1.6
	c-0.1-4.5,5-7,9.2-8.5c0.8-0.3,1.5-0.5,2.3-0.5c1.4,0.1,2.6,1.1,3.9,0.9c3.5-0.3,3.2-6.6,6.6-7.6c0.7-0.2,1.5-0.2,2.2-0.5
	c0.7-0.4,1-1.8,0.2-1.8c-1.8,0.1-3.5-0.7-3.9-2.4c-0.4-1.7,0.4-3.5,1.1-5.1c0.6-1.4,1.3-2.9,2.4-3.9c1.2-1,2.7,0,4.2-0.3
	c4.2-0.9,2.6-8.4,2.4-12.7c-0.1-2.5-0.5-5.4,1.2-7.3c0.5-0.6,1.3-1.1,1.7-1.7c0.9-1.4,0.3-3.4,1.2-4.9c0.6-1,1.9-1.7,2.1-2.8
	c0.1-0.7-0.2-1.3-0.3-2c-0.5-2.5,1.7-4.7,3.6-6.5c3.1-2.8,9.7-7.8,6.4-10.4c-3.1-2.5-8-2.1-9.2-5.9c-1.2-3.8-0.1-8.1,2.1-11.4
	s7.7-4.6,8.4-8.5c0.9-5.2-5.5-10.4-4.9-15.6c0.8-6.9,7.1-11.6,12.9-15.4c5.6-3.7,16.6-4.4,16.8-11.1c0.1-4.7-11,5.4-13.4,1.4
	c-0.8-1.3-1.2-2.9-2.7-3s-2.9,0.7-4.2,1.4c-5.9,3.4-11.8,6.8-17.1,11c-2.9,2.3-5.7,4.9-9.2,6.2s-6.6-2.4-10.3-1.8
	c-3.2,0.5-3,6.4-6.2,6.7c-1.2,0.1-2.4-0.2-3.6-0.3c-4.5-0.1-8,4.3-9.1,8.7c-0.3,1.3-0.6,2.6-1.1,3.8c-0.7,1.5-1.9,2.6-3,3.8
	c-4.1,4.5-6.9,10.1-8.2,16.1c-0.9,4.1-1.3,8.8-4.7,11.2c-1.9,1.3-4.5,1.7-6.2,3.3c-1.5,1.4-1.9,3.6-2.9,5.4
	c-0.9,1.8-2.9,2.1-4.9,2.7c-5.3,1.7-4.5,10.2-6.6,15.4c-1.5,3.6-4.4,7.7-8.2,7c-1.4-0.2-2.7-1.1-4-0.6c-0.6,0.2-1.1,0.7-1.6,1.2
	c-3.1,3-6.1,6-9.2,8.9"/>
<path fill="none" stroke="#E1E1E1" stroke-miterlimit="10" d="M-14.8,251.1c3.2-1.1,6.6-1.3,9.8-0.1c0.5,0.2,0.9,0.4,1.4,0.3
	c0.7-0.1,1.3-0.7,1.8-1.3c1.2-1.3,2.7-2.3,4.4-2.6c1.7-0.2,2.7,1.8,4.4,2.1c2.3,0.5,4.3-2.4,6.7-1.9c0.4,0.1,0.9,0.2,1.3,0
	c0.4-0.1,0.6-0.5,0.8-0.8c1.1-1.7,2.1-4,4.1-4.3c1-0.2,2,0.2,3,0.2c2.3,0,4.1-1.9,5.5-3.7c1.4-1.8,2.7-3.9,4.8-4.8
	c1.8-0.8,4.3-0.7,5.2-2.5c0.5-1,0.3-2.3,1.1-3.1c0.3-0.4,0.8-0.6,1-1.1c0.2-0.4,0-0.9-0.1-1.3c-0.5-2,0.4-4.1,1.2-5.9
	c0.6-1.3,1.2-2.7,1.9-4c1.8-3.6,5.5-6,7.4-9.5c0.3-0.5,0.5-1.1,0.9-1.5c0.3-0.4,0.8-0.8,1.2-1.1c2.5-2.3,0.5-5.8,0.2-9.2
	c-0.1-1.5,2-2.9,1.3-4.2c-0.5-1-2.3-0.7-2.9-1.5c-1.1-1.6,0.6-3.9,1.8-5.4c1.9-2.4,5.1-3.8,5.8-6.8c0.3-1.1,0.1-2.3,0.5-3.4
	c0.4-1.3,1.5-2.3,2.5-3.2c3.5-3,7-6.1,10.5-9.1c0.6-0.6,1.3-1.2,1.5-2c0.2-0.7,0-1.3,0.1-2c0-1.1,1.2-1.8,1.5-2.8
	c0.4-1.6-3,0.3-4.6-0.4c-1.3-0.5-1.2-2.5-0.6-3.8c0.5-1.3,0-2.6,0-4.1c0.1-1.6,1.5-2.9,1.2-4.5s-0.9-3.2-0.9-4.8
	c0-2.9,2-5.4,3.9-7.7c2.3-2.7,7-4.6,7-8.2c0-2-2.7-3.3-2.7-5.3c0-1.1,0.4-2.1,0.8-3.1c1-2.3,1.6-4.9,3-7c1.6-2.6,2.8-12.7,0.3-10.4
	c-2.7,2.4-4.8,4.9-7,3.5c-1.7-1.1-1.8,1.8,0,3.8c1.4,1.6-2.2,5.5-3.2,6.8c-1.9,2.5-4.3,5.1-7.4,5.5c-4.9,0.7-10-4-14.3-1.6
	c-3.5,2-3.3,7.1-5.3,10.6c-1.6,2.9-4.7,4.8-5.8,7.8c-0.7,1.9-0.6,4.1-1.8,5.8c-1.4,2-4.4,2.7-5.7,4.8c-0.6,0.9-0.8,2-1.6,2.8
	c-0.7,0.6-1.6,0.9-2.4,1.2c-3,1.4-4.6,4.6-5.9,7.6c-1.8,3.9-3.5,7.7-5.3,11.6c-1.2,2.6-3.1,5.7-5.9,5.5c-0.7,0-1.4-0.3-2.1-0.1
	c-0.8,0.3-1.3,1.1-1.8,1.8c-1.6,1.8-4.3,2-6.5,2.7c-2.3,0.8-4.3,2.3-6.3,3.8c-3.3,2.5-6.5,4.9-9.8,7.4"/>
<path fill="none" stroke="#E1E1E1" stroke-miterlimit="10" d="M-11.9,306.6c1.1,1.2,2.6,2.4,4.2,2.1c0.7-0.2,1.3-0.6,1.9-1
	c4.9-3.1,11.2-3.5,17-2.3c5.7,1.2,10.7,8.4,16.2,6.5c7.7-2.6,7.1-14.9,13.4-19.9c4.2-3.4,11.8-7.1,17.2-11.2
	c3.3-2.6,6.1-5.7,8.8-8.8c3.6-4.1,7.3-8.2,10.9-12.4c3.5-3.9,6.9-7.8,10.2-11.9c1.4-1.8,3.7-3.8,5.6-2.6c0.7,0.4,1.1,1.1,1.7,1.6
	c1.5,1.2,3.8,0.5,5.5-0.4c3.8-1.9,7.1-4.6,9.9-7.8c3.8-4.4,7.5-10.5,13.4-10.3c2.6,0.1,4.9,1.5,7.1,2.9c1.1,0.7,2.2,1.4,2.9,2.4
	c1.3,1.9,1.2,4.9,3.2,6c1.5,0.8,3.3,0.1,5,0.1s1.6,1.9,2.8,3c2.3,2.2,4.2-1.2,6.6-4.7c0.6-0.9,1.8-2.8,2.6-3.4
	c5.7-4.6,13.6-5.5,20.7-7.4c1.5-0.4,3-0.8,4.5-0.5c3.1,0.6,5,3.7,7,6.1c2,2.5,8.1,5.5,8.9,2.4c1.1-3.9,2.1-3.5,5.3-6
	c2.9-2.2,3.8-5.7,5.9-8.7c1.7-2.5,1.8-5.8,2.3-8.9c1.3-7.3,6-13.6,10.3-19.7c1.7-2.4,1.5-4.9,0.2-7.5c-1.9-3.6-0.6-8.5-3.9-10.9
	c-0.9-0.7-2-1.3-2.5-2.3c-0.3-0.7-0.3-1.4-0.3-2.2c-0.1-10.9-0.2-21.9-0.4-32.8c0-1.4,0-2.8,0.6-4.1c0.9-1.7,2.7-2.6,4.3-3.8
	c8.6-6.2,9-19.7,17.5-26c4.8-3.5,11.1-4,17-4.3c0.9,0,1.8-0.1,2.6,0.1c1,0.2,2,0.7,3,1c2.3,0.6,4.8,0,7.1-0.6
	c4.3-1.1,8.6-2.3,12.9-3.4c4.6-1.2,9.9-1.8,13-5.3c11.4-12.9,12.7-6.3,14.3-7.9c2.3-2.2-5.8-8.4-5.7-20.4c0-2.9,0.3-6.1,0.7-9
	c0.1-0.6,0.1-1.2,0-1.7c-0.1-0.5-0.4-0.9-0.5-1.3c-0.1-0.4,0-0.9,0.1-1.3c1.3-5.7,2.6-11.5,5.1-16.9c0.7-1.5,1.6-3.1,1.7-4.8
	c0.1-1,0-2.1,0.2-3.1c0.3-1.1,0.9-2.1,1.6-3c2.4-3.4,4.9-6.8,8.1-9.4c0.8-0.7,1.7-1.3,2.2-2.3c0.4-0.7,0.5-1.5,0.6-2.3
	c0.8-4,3.4-7.5,6.9-9.5c1.2-0.7,2.5-1.2,3.6-2c2.2-1.6,3.4-4.5,3.1-7.2"/>
<path fill="none" stroke="#E1E1E1" stroke-miterlimit="10" d="M-13.5,319.1c2.7-1.1,5.9-6.1,9.3-6c1.3,0,2.5,0.6,3.7,0.4
	c1.2-0.2,2.1-1.1,3.2-1.6c3-1.6,6.7-0.3,9.9,0.9c5.9,2.3,12.2,10,17.6,6.9c2.8-1.6,4.5-4.1,7-6.1c2-1.6,3.2-4,4.5-6.3
	c3.8-6.8,8.9-12.9,15.3-17.3c3.3-2.3,9-5.9,12.6-9.7c1.9-2,3.4-4.3,5.1-6.5c4-5.1,12.2-12,14.8-11.3c1.8,0.5-3,5.4-1.2,6
	c5.2,1.7,16.5-16.7,25-23.7c3-2.4,6.6-4.5,10.4-3.8c4.8,0.8,10.7,2.7,12.6,7.2c0.4,1-1.6,1.9-1.4,3c0.7,3.3,6.5,1.1,9.9,1.5
	c4.1,0.5,6.8,4.7,10.7,6.1c1,0.4,1.5-1.5,1.3-2.6c-0.2-1-0.9-1.9-1.2-2.9c-0.7-2.7,1.7-5.2,3.8-7.1c1.4-1.2,2.9-2.4,4.3-3.7
	c1.5-1.3,3.2-2.6,5.2-2.4c1.6,0.2,2.8,1.3,4,2.3c1,0.9,2.1,2.2,1.5,3.4c-0.4,0.9-2.1,2.1-1.2,2.4c0.9,0.4,2,0.2,2.3,1.1
	c0.3,0.9-1.4,1.6-1,2.4c0.7,1.3,2.8,0.4,3.6,1.6c0.2,0.3,0.5,0.7,0.6,1.1c0.1,0.7-0.5,2.2-0.2,2.8c0.3,0.6,1.2,0.6,1.7,1.1
	c4.6,3.6,12.2,2.1,18,4c2.1,0.7,3.6,0.3,6,0.2c1.6,0,0.5-3.7,0.6-5.7c0.4-6.8,5.4-10.1,8.6-18.4c0.8-2,1.4,3.4,4.8-2
	c2.4-3.8,4.1-13.2,4.9-19.1c0.3-2.2,1.8-4.1,3-7c1.7-4.1,4-7.9,8-9c13.1-3.7,28.4-3.9,36-15c2.5-3.7,6.5-5.9,6-10
	c-0.4-3,1.5-4.9,2-8c0.2-1-2-2-3-2c-7,0-14-10.5-16.3-12c-2.4-1.5-3.7-0.1-4.7,0c-9.2,1-15.6,10.1-25,6c-2.9-1.3-7.3,3.7-9.6,2.1
	c-3.4-2.4,4.5-12.8,2.5-18.9c-0.9-2.9-2.7-6-0.7-8.3c0.6-0.7,1.4-1.3,1.9-2.1c0.5-0.9,0.5-2.1,0.7-3.1c0.9-4,5.4-5.9,8.2-8.9
	c2.2-2.4,3.5-5.5,5.4-8.1s6.6-6.3,8.4-3.6c1,1.5,1.6,3.4,3.4,3.8c1.8,0.4,3.7,0,5.5-0.5c4.6-1.1,9.2-2.2,13.7-3.4
	c3.5-0.9,6.9-1.7,10.5-2.3c7.5-1.2,15.2-0.9,22.7,0.7c4.8,1,9.4,2.6,14.1,3.9c17.1,4.7,35.2,5.7,52.7,3"/>
<path fill="none" stroke="#E1E1E1" stroke-miterlimit="10" d="M7.7,371.4c0.7-2.3,1.1-4.7,1.1-7.1c0-2.9-0.6-6.1-2.9-7.8
	c-0.9-0.7-2-1-2.9-1.7c-1.1-0.8-2-1.9-2.8-3c-2.3-3.1-3.2-10.3-6.9-9.3c-1.8,0.5,1.1,4.5-0.4,5.7c-1.6,1.2-3.5-0.1-4.9-2.1"/>
<path fill="none" stroke="#E1E1E1" stroke-miterlimit="10" d="M113.8,370.3c-0.1-0.2-0.2-0.4-0.3-0.7c-0.7-1.8,2.5-3.6,1.9-5.4
	c-0.6-1.8-3.5,0.7-4.3,2.4c-0.9,1.7-2.2,3.7-4,3.4c-1.6-0.3-1.2-2.9-2.5-3.9c-4.7-3.6-10.3,1.1-15.2,6.5"/>
<path fill="none" stroke="#E1E1E1" stroke-miterlimit="10" d="M19.7,371.4c1-7.1-1.4-14.7-6.7-19.5c-1.2-1.1-2.4-2-3.5-3.1
	c-1.1-1-2-2.2-3-3.4c-5.4-6.7-16.8-11.5-16.1-20.1c0.4-6.1,9.6-8.6,15.7-8.6c5.1,0,9.5,3.2,13.6,6.2c1,0.7,2,1.5,3,2.2
	c5.7,4.2,9.9,14.8,18,8.9c1.5-1.1,1.5-2.9,0.8-4.6c-0.3-0.7,2.7-1.8,2.6-2.8c-0.1-0.8-4.7-1.5-3.8-1.7c4.2-0.7,16.8-7.5,19.6-18.9
	c1-4.1,3-8.3,6.5-10.7c2-1.4,5.7-1.8,7.5-3.9c0.9-1.1,1.3-2.4,2.1-3.6c2.8-3.8,8.9-3,12.6-5.9c1.5-1.2,2.4-2.8,3.5-4.4
	c3.1-4.6,7.1-8.6,11.8-11.7c1.9-1.3,4-2.5,5.1-4.5c0.7-1.4,0.8-2.9,1.6-4.3c1-1.8,2.9-2.9,4.5-4c1.6-1.2,3.5-2.1,5.5-2.3
	c7.9-1,5.5,8.5,10.2,9.8c2,0.6,4-0.9,6-1.3c5-1.1,7.1,5.6,11.3,8.6c2.3,1.7,6.5,3.1,8.6,1.1c0.2-0.2,0.8-0.5,0.9-0.2
	c0.2,0.3,0.1,0.6,0.1,1c0,1.3,1.2,2.4,2.6,2.6c2.2,0.4,6.7,2,8.7,1c3.4-1.8,2-10,4.8-8.2c2.4,1.5-1.7,7.2,0.9,8.6
	c0.9,0.5,1.7-1.6,2.7-1.5c4,0.2,8,0.4,11.8,1.7c3.8,1.3,5.9,5.2,7,9c0.8,3,1.3,6.1,0.4,9.1c-0.9,2.9-3.2,5.6-6.3,6
	c-3.1,0.4-7.5-0.7-8.5,2.3c-0.2,0.7-0.1,1.5-0.4,2.2c-1.1,2.5-5.1,0.4-7.8,1.1c-1,0.3-1.9,1-2.7,1.7c-5,4.4-15.9,10.8-15,13.2
	c0.8,2,13.1,2.9,19,0.4c2.7-1.2,5-3.3,7.7-4.6c2.7-1.3,5.3,1.8,8.2,1c1.8-0.5,2.5-2.9,4.4-2.6c1.9,0.3,3.5,1.4,5.3,2.1
	c2.4,1.1,5.1,1.5,7.7,1.9c6,1,12,1.9,18,2.9c3.9,0.6,7.9,1.3,11.8,0.6c9.5-1.6,21.1-9.6,23.6-11.4c1.1-0.8-0.2-2.6,0.7-3.7
	c4.4-6,13.4-6.7,20-10.1c5.1-2.6,10.9-6.2,11.1-11.9c0.1-2.7-0.9-6.1,1.4-7.5c0.8-0.5,1.8-0.5,2.7-0.8c2.8-0.7,6.7-4.9,4.3-6.5
	c-1.4-0.9-3.2,0.8-4.8,0.5c-1.6-0.3-3.4-3.8-2.6-5.2c0.6-1.2,3.5,1.3,3.7,0c0.5-4.3-12.5-15.8-13.5-15.7c-2.5,0.4,4.2,7,1.7,7.3
	c-0.3,0-11.6-3.7-17.1-4.9c-1.5-0.3-2.9-0.9-4.4-0.9c-1.6,0-3.1,0.4-4.6,0.9c-6.4,2.1-12.6,5.3-16.6,10.7c-1.7,2.4-3,5.1-4.8,7.4
	s-4.5,4.3-7.4,4.2c-3.5-0.1-6.3-3.1-7.6-6.3c-2.2-5.6-1-12,1.5-17.6c2.4-5.5,5.9-10.5,8.3-16c3.1-6.9,4.6-14.8,9.9-20.2
	c2.3-2.4,5.2-4.1,8.2-5.5c7.5-3.5,16-4.9,24.2-4c1.8,0.2,3.7,0.5,5.4-0.1c1.6-0.6,2.8-1.9,4.3-2.7c1.8-1,4-1.1,6-1.5
	c5.2-1,9.9-3.9,13.3-7.9c1.8-2.2,3.3-5.1,2.9-8c-0.8-5.3-7.3-8.1-8.7-13.3c-0.7-2.8,0.1-6-1.5-8.3c-5-7.3-14-7.8-22.2-11.2
	c-3.5-1.5-4.3-6.4-7.2-8.9c-1.7-1.5-4.1,1.5-6.3,0.9c-1.7-0.5,0.4-4.3-1.2-5.1c-1.6-0.9-3.4-1.3-5.2-0.8
	c-8.3,2.1-10.6,18.9-18.7,16.3c-5.8-1.9-5.2-11.4-3.7-17.3c1.5-5.9,5.9-15.6,11.6-13.4c1.7,0.7-0.5,4,0.7,5.4
	c1.3,1.5,4.6,1.2,5.9-0.3c1.7-1.8,2.1-4.9,4.6-5.2s3.1,3.9,5.7,4c8.2,0.3,12.1-10.8,20.3-10.6c8.3,0.2,16.5,2.4,23.9,6.3
	c1.8,1,3.6,2,5.6,2.5c2.8,0.7,5.6,0.1,8.5-0.3c16.3-1.9,32.9,4.5,49.1,1.6"/>
<path fill="none" stroke="#E1E1E1" stroke-miterlimit="10" d="M169.6,371.8c-0.2-0.6-0.8-0.8-1.2-1.3c-0.6-0.7-0.5-1.8-0.7-2.7
	c-0.6-2.9-4-4.3-5.4-6.9c-1.5-2.9,1.2-8.3-1.8-9.7c-3.8-1.8-9.4,0.7-11.4-3c-0.8-1.4-0.8-3.1-0.8-4.7c-0.1-3.5-0.1-7-0.2-10.6
	c0-1.4-0.1-2.8,0.2-4.1c0.2-1,0.6-2,1-2.9c1.1-2.5,4.8-5.2,3.2-7.4c-1.7-2.3-5.7,0.5-8.4-0.5s-2.1-5.2-4.7-6.4
	c-2.4-1.1-5-0.1-7.6,0.4c-3.7,0.8-6.9,3.3-8.8,6.6c-4.3,7.7-13,10.4-20.7,14c-15.4,7.1-25.9,21.1-37.7,33.4c-1.5,1.6-1.2,3.8-0.8,6"
	/>
<path fill="none" stroke="#E1E1E1" stroke-miterlimit="10" d="M146.3,279.5c-7.7-1.3-6.6-1.7-11.7-6.8c-2.5-2.5-5.9-1.5-10-1
	c-1,0.1-1.1-0.6-2-1c-2.6-1.1-0.5-3.9,0-7c0.2-1,0.1-3.1-2-4c-2.9-1.2-6.1,0-8,3c-9.4,14.8-12.6,35.9-30,40c-1,0.2-3.9-0.9-5,0
	c-10.2,8.2-16.1,17.9-23,28c-2,3-1,7-1,10c0,2,0.7,4.5,2,5c1.8,0.8,5,1,7-1c2-2-0.2-4.2,2-6c2.8-2.3,6.1-2.8,9-4
	c8.3-3.4,14-11,20-18c5-6,8.1-12.6,12-18c0.8-1.1,0.2-2.9,1-4c3.9-5.4,6.5-11.7,14.5-10.8c5,0.5,7.9,4.8,10.5,5.8
	c0.9,0.4,1.1-0.4,2,0c3.9,1.6,2.8,4.8,8,2.5c0.9-0.4,1.9,1.7,3,2.5c1.8,1.3,5.2-0.9,6-2c1.3-1.8,3-4,5-4c1,0,1.8,2.3,3,3
	c4.5,2.4,10.4-2.9,11.2-7.8c0.3-1.7-2.4-2.7-4.1-3.2c-0.7-0.2-1.5-0.2-2.2-0.5c-0.9-0.3-1.6-0.9-2.5-1.3c-2.2-1.2-5.5,1.5-7.3-0.3
	C153.5,278.5,149.3,280,146.3,279.5z"/>
<path fill="none" stroke="#E1E1E1" stroke-miterlimit="10" d="M118.1,290.7c1.1-1.2,2.6-3.4,1.3-4.3c-1.5-1-3.2,1.3-4.4,2.7
	c-0.4,0.5-0.8,0.9-1,1.5c-0.4,0.8-0.5,2.1,0.2,2.6C115.1,293.8,117.3,291.5,118.1,290.7z"/>
<path fill="none" stroke="#E1E1E1" stroke-miterlimit="10" d="M159.5,204.5c0.3-1.2-0.2-3.4-1.4-2.9c-1.7,0.7-2,4.1-0.7,5.5
	c0.3,0.3,0.9,0.8,1.3,0.5C159.5,207.1,159.2,205.5,159.5,204.5z"/>
<path fill="none" stroke="#E1E1E1" stroke-miterlimit="10" d="M120.3,154.4c-0.8,0.3-1.9,1.4-1.3,2c0.4,0.5,1.3,0.2,1.8,0
	c0.6-0.3,1-0.9,0.8-1.5c-0.2-0.6-1-0.9-1.5-0.5"/>
<path fill="none" stroke="#E1E1E1" stroke-miterlimit="10" d="M359.2-9c-2.3,1-3.6,3.5-4.8,5.7c-3.5,6.5-7.7,12.6-12.5,18.2
	c-0.5,0.6-1.1,1.2-1.8,1.4c-0.5,0.1-1.1,0.1-1.6,0.2c-1.3,0.4-1.7,1.9-2.2,3.2c-1.6,3.8-5.3,6-8.8,8.2c-1.5,0.9-3.1,1.9-4,3.4
	s-1,3.7,0.3,4.9c0.6,0.6,1.5,0.9,2.2,1.5c0.7,0.7,1,1.7,1.3,2.7c0.6,2.1-0.3,5.5,1.7,6.3c3.1,1.2,5.8,3.9,8.9,2.9
	c0.4-0.1,0.7-0.3,1.1-0.3c0.7,0,1.3,0.7,1.4,1.5c0.2,1.3-0.4,2.7-0.2,4c0.3,2.7,3.4,4,6.1,4.3c5.3,0.6,10.7-0.8,15.9-2.2
	c2.2-0.6,4.3-1.1,6.5-1.7"/>
<path fill="none" stroke="#E1E1E1" stroke-miterlimit="10" d="M364.4-11c0.4,1,0.8,2,0.7,3.1s-0.8,2.2-1.8,2.4c-0.3,0.1-0.7,0-1,0.1
	c-0.7,0.2-1.1,1-1.4,1.7c-2.2,5.8-4.4,11.5-6.6,17.3c-1.3,3.3-2.6,6.7-5.2,9c-1.8,1.6-2.2,3.8-3.8,5.7c-1.1,1.2-2.1,2.6-3.7,2.6
	c-1,0-1.7-0.9-2.3-0.2c-0.6,0.7-0.7,1.8-0.9,2.7c-0.3,1.1-0.8,2.1-1.5,2.8c-0.8,0.8-1.8,1.4-2.3,2.4c-0.5,1,0,2.6,1.1,2.6
	c0.6,0,1-0.4,1.4-0.8c1.3-1.3,2.2-3.6,4-3.8c1.1-0.1,1.5,1.7,1.9,2.8c0.3,0.7,0.6,1.4,0.9,2c1.4,3.1,0.1,6.4,1.2,9.6
	c1.3,3.8,7.4,3.2,11.3,3.4c0.9,0,1.9,0,2.7-0.3c1.1-0.4,2-1.1,2.9-1.8c2.3-1.9,4.6-3.8,6.9-5.6"/>
<path fill="none" stroke="#E1E1E1" stroke-miterlimit="10" d="M369.8,6.8c0.1-0.4-0.4-0.5-0.8-0.4c-1.7,0.3-3.1,1.6-4.1,3.1
	s-1.5,3.2-2.1,4.8c-2.7,6.4-7.8,11.6-10.4,18c-0.5,1.2-0.5,2.7,0.6,3.5c0.8,0.6-0.6,1.7-0.8,2.6c-0.1,0.4-0.1,0.8,0,1.1
	c0.4,1.4,1.9,2.4,3.4,2.5c1.5,0.2,3-0.3,4.4-0.8c3.3-1.2,6.5-2.8,9.5-4.8"/>
<path fill="none" stroke="#E1E1E1" stroke-miterlimit="10" d="M103.4,95.8c-1.2,0.3-2,2.3-1,2.8c1.3,0.7,3.7-1.4,2.9-2.6
	C104.9,95.6,104,95.7,103.4,95.8z"/>
<path fill="none" stroke="#E1E1E1" stroke-miterlimit="10" d="M97.2,123.4c0.1-0.4-0.1-0.9-0.5-1.2c-0.7-0.7-2.1-1.7-2.8-0.9
	c-0.7,0.8,0.6,2.2,1.6,2.6C96.1,124.2,97,124.1,97.2,123.4z"/>
<path fill="none" stroke="#E1E1E1" stroke-miterlimit="10" d="M-14.3,190.6c1.9,1.7,5.2,1.5,6.9-0.4c0.7-0.8,1.1-1.7,1.9-2.5
	c1.5-1.5,3.8-1.8,5.6-2.8c2.6-1.5,4.1-4.6,7-5.4c1.6-0.4,3.2-0.1,4.8-0.3c4.5-0.4,7.9-4.3,9.7-8.4c1.1-2.5,2.2-7.1,4.7-6.1
	c2.1,0.8,3.2,4.2,5.5,3.9c3.6-0.6,5.5-5.1,6.2-8.7c0.2-0.8,0.3-1.5,0.6-2.2c0.3-0.6,0.8-1.1,1.3-1.6c2.1-2,4.7-3.8,5.7-6.6
	c0.3-0.8,0.5-1.7,0.9-2.5c0.5-0.9,1.3-1.6,2.1-2.3c2.4-2.1,4.9-4.2,7.8-5.5c1.2-0.5,2.4-0.8,3.4-1.6c1.1-0.9,1.6-2.2,2.7-3.2
	c1-0.9,3-1.2,3.6,0.1c0.6,1.1-0.4,2.4-1.2,3.2c-2.1,2.2-4.3,4.8-4.4,7.9c0,1.3,0.3,2.6,0.1,3.8c-0.2,1.1-0.7,2.1-1.3,3.1
	c-1,1.8-2,3.5-3,5.3c-1.2,2.2-2.5,4.7-1.6,7c0.3,0.9,1,1.7,1.2,2.6c0.4,2.1-1.5,3.8-3.1,5.1c-1.6,1.3-3.4,3.3-2.6,5.3
	c0.2,0.5,0.6,1,0.7,1.5c0.1,0.7-0.2,1.4-0.6,2.1c-1.6,2.9-3.2,5.7-4.8,8.6c-0.4,0.7-0.8,1.4-1,2.1c-0.1,0.5-0.2,1-0.3,1.6
	c-0.4,1.5-1.7,2.6-2.8,3.7c-3.7,3.4-6.7,7.6-8.8,12.2c-0.8,1.7-2.2,5.2-2.9,6.9c-0.3,0.7-0.5,1.4-0.8,2.1c-1.5,3.7-3.6,7.1-6.1,10.2
	c-1.8,2.2-5.3,6.5-8.1,7.4s-5.1-4.7-7.3-3c-2,1.5-11.1,9.3-18.8,10"/>
<path fill="none" stroke="#E1E1E1" stroke-miterlimit="10" d="M213-10.3c-4.9,3.9-9.9,7.8-14.8,11.7c-4.7,3.7-9.3,7.4-13.6,11.5
	c-2.8,2.7-5.4,5.6-8,8.4c-2,2.2-4,4.4-6,6.7c-4.1,4.5-8.2,9-13.2,12.3c-1.7,1.1-3.6,2.1-5.1,3.5c-3,2.7-6.3,9.2-9.4,6.7
	c-3.5-2.8-7-4.9-11.5-4.8c-1.7,0-3.4,0.1-5.1,0.6c-2,0.6-3.9,1.8-5.6,3c-6.7,4.4-13.4,8.9-20.1,13.3c-3.4,2.3-7.3,4.7-11.4,4.1
	c-1.5-0.2-3-0.9-4.4-1.6c-2.9-1.3-6.1-3.1-6.6-6.2c-0.5-2.7,1.3-5.3,1.4-8c0-0.6-0.1-1.3-0.5-1.7c-1-1-2.6,0-3.6,1
	c-3.7,3.5-7.4,7.1-11.1,10.6c-3,2.9-4.7,6.8-7.8,9.6c-2.5,2.3-6.4,1.1-9.3,2.7c-1.3,0.7,1.1,2.6,2.1,3.7c1.9,2.2,1.4,5.6,0.7,8.4
	c-0.5,2.2-1,4.5-2.2,6.5c-1.1,1.7-2.6,3.1-4.1,4.5c-1.8,1.7-3.6,3.3-5.4,5c-3.2,2.9-7.5,4.3-10.7,7.3c-4.6,4.4-3.6,12.2-4.2,18.4
	c-0.1,1.1-0.2,2.2-0.7,3.2c-0.4,0.9-1.2,1.5-1.9,2.1c-3,2.5-6.4,4.6-8.7,7.8c-3.1,4.2-4,9.9-7.6,13.7c-2.4,2.6-5.8,3.9-9,5.3
	c-2.2,0.9-5.3-0.2-6.7,1.6c-1,1.3,2.1,3.3,1.3,4.7c-0.9,1.5-3.4,1-4.8,2"/>
<path fill="none" stroke="#E1E1E1" stroke-miterlimit="10" d="M206.1-11.6C202-4.1,193.7,0,187.2,5.5c-2.9,2.4-5.5,5.2-8.1,7.9
	c-5.5,5.8-11.1,11.7-16.6,17.5c-2.2,2.3-4.4,4.6-7,6.2c-1.1,0.7-2.3,1.3-3.4,2c-2.1,1.5-4.5,3.8-6.7,2.6c-1.4-0.8-2-3-3.7-3.1
	c-0.8-0.1-1.6,0.5-2.4,0.4c-0.8,0-1.4-0.6-2.2-1c-2.6-1.4-5.7-0.1-8.4,0.9c-5,2-11.8,7.6-15.7,3.8c-1.6-1.6,0.3-4.5,0.5-6.8
	c0-0.6,0.1-1.1-0.2-1.6c-0.7-1.3-2.6-1-3.9-0.4c-2.1,1-4,2.3-5.7,4c-3.2,3.3-5.3,7.5-7.9,11.3c-2.6,3.8-6.2,7.3-10.8,8
	c-0.5,0.1-1,0.1-1.4-0.2c-0.6-0.4-0.7-1.1-0.7-1.8c-0.1-3.3,0.9-6.6,2.7-9.3c1.1-1.6,2.4-3,3.2-4.7c2-4.1,4.8-9.5,2.3-13.3
	c-1.8-2.7-4.7,4.1-7.4,5.8c-1.7,1.1-3.7,1.2-5.7,1.7c-6.5,1.8-10.5,8.2-13.4,14.2c-2.9,6.1-5.7,12.7-11.4,16.4
	c-3.8,2.4-8.2,4.6-12.7,4.1c-1.2-0.1-2.9-0.2-3.3,1c-0.5,1.3,0.2,2.8,1.1,3.9c1.3,1.6,4.4-0.9,6.1,0.2c7.2,4.6,0.6,18-6.9,22
	c-0.7,0.4-1.5,0.8-2.2,1.3c-0.9,0.8-1.3,2-2.1,2.9c-2.6,2.8-7.8,1.5-10.5,4.2c-0.8,0.8-1.2,1.8-1.8,2.8c-1.4,2.5-3.7,4.7-4.1,7.6
	c-0.4,2.6,0.9,5.2,0.8,7.9c-0.2,5-4.8,8.4-7.7,12.4c-3.9,5.4-5.1,12.7-10,17.2c-0.7,0.6-1.5,1.2-2.4,1.4c-1,0.2-1.9-0.1-2.9-0.3
	c-3.3-0.9-6.6-1.8-10-2.8"/>
<path fill="none" stroke="#E1E1E1" stroke-miterlimit="10" d="M201.2-10.9c-2,0.9-2.9,3.2-4.4,4.8c-2.3,2.6-5.8,3.6-8.5,5.6
	c-3.5,2.5-5.7,6.5-8.4,9.9c-2.7,3.3-5.9,6.1-9.1,8.9c-1.4,1.2-2.8,2.5-4.2,3.7c-3.7,3.2-7.6,6.6-12.3,7.9c-1.2,0.3-2.5,0.5-3.6,1.1
	c-0.7,0.3-1.3,0.8-1.9,1.1c-3.7,2.2-8.6,1.9-12.1-0.6c-0.9-0.7-2-1.5-3.1-1.2c-1.5,0.5-2.5,3.8-3.6,2.6c-0.7-0.7-0.4-2.2-1.3-2.7
	c-0.8-0.4-2,0.7-2.6,0c-1.5-1.8-2.2-4-3.2-6.1c-0.8-1.8-0.4-3.9,0.4-5.8c0.8-1.8,2-3.4,2.9-5.2c2.5-5.1,1.9-11.2,1.2-16.8
	c-0.3-2.3-0.5-4.7-0.8-7"/>
<path fill="none" stroke="#E1E1E1" stroke-miterlimit="10" d="M138.6-10.7c-1.4,2.2,0.7,5,0.6,7.6c0,1.1-0.5,2.2-1,3.2
	c-0.6,1.4-1.2,2.7-1.8,4.1c-1.3,2.9-2.6,6-2.4,9.2c0.2,2.6,1.3,5,2.5,7.3c0.8,1.6,1.7,3.3,3.3,4c2,0.9,4.4,0,6.4-1
	c1.6-0.7,3.1-1.5,4.7-2.2c0.9-0.4,1.8-0.8,2.7-0.8s1.1,1.3,2,1.6c1.9,0.6,3.8,0.3,5.7-0.1c0.9-0.2,1.6-0.8,2.2-1.3
	c5.5-4.7,11.1-9.5,15.4-15.5c1.5-2.1,2.9-4.4,4.7-6.3c1.6-1.7,3.6-3,5.2-4.8s2.9-4,2.7-6.3"/>
<path fill="none" stroke="#E1E1E1" stroke-miterlimit="10" d="M183-11.3c0.1,2.5-2.7,3.9-4.5,5.6c-2.6,2.4-3.6,5.9-4.9,9.2
	c-1.5,3.7-3.8,7.5-7.5,9c-3.6,1.5-7.8,0.4-11.6,1.6c-1.7,0.5-3.3,1.5-5.1,1.4c-1.6-0.1-3.2-1.2-4.8-0.9c-2.2,0.3-4.4,2.9-6.2,1.6
	c-0.5-0.3-0.8-0.8-0.9-1.4c-0.8-2.9,1.8-5.5,4-7.5c1.8-1.6,3.6-3.4,4.6-5.6c1.1-2.2,1.5-4.8,0.6-7.1c-0.9-2.2-3-4.4-2.2-6.6"/>
<path fill="none" stroke="#E1E1E1" stroke-miterlimit="10" d="M157.2-11.3c-1.3,1.1-2.1,2.8-2,4.5c0.2,2.2,1.6,4.1,1.5,6.3
	c0,0.7-0.2,1.4,0,2.1c0.3,0.9,1.4,1.4,2.4,1.4s1.9-0.5,2.8-1c3.8-2,7.7-4.6,9-8.7c0.4-1.3,0.6-2.8,1.5-3.8c0.3-0.3,0.6-0.9,0.2-1"/>
<path fill="none" stroke="#E1E1E1" stroke-miterlimit="10" d="M63.2,27.3c0.7,0,1.3-0.4,1.8-0.8c0.6-0.5,1-1.2,1.3-1.9
	c0.4-1.2,0.2-2.6-0.4-3.8c-0.6-1.2-1.4-2.2-2.3-3.1c-0.2-0.2-0.4-0.4-0.6-0.5c-0.6-0.3-1.2,0.1-1.6,0.6c-0.4,0.5-0.4,1.1-0.5,1.7
	c-0.2,1.7-0.5,3.3-0.2,5C60.9,25.8,61.8,27.3,63.2,27.3z"/>
<path fill="none" stroke="#E1E1E1" stroke-miterlimit="10" d="M18.6,73.3c-0.1-0.2-0.2-0.5-0.5-0.5c-0.2,0-0.3,0.1-0.4,0.2
	c-1.3,1-2.2,3.9-0.6,4.3C18.6,77.6,19.2,74.7,18.6,73.3z"/>
<path fill="none" stroke="#E1E1E1" stroke-miterlimit="10" d="M-13.7,116.3c3.6-0.5,7.1-2.1,9.9-4.4c1.3-1.1,2.6-2.8,2.1-4.5
	c-0.3-0.8-0.9-1.3-1.4-2s0-1.6-0.5-2.3c-0.7-1-2.3,0.8-3.3,1.4c-2.4,1.5-4.7,2.9-7.1,4.4c-0.2,0.1-0.4,0.4-0.2,0.5"/>
<path fill="none" stroke="#E1E1E1" stroke-miterlimit="10" d="M-13.5,128.8c4.5,0.2,8.8,3.2,10.6,7.4c0.3,0.7,0.6,1.5,1.3,1.8
	c1.6,0.7,2.7-1.9,4.4-2.4c0.8-0.3,1.6-0.1,2.4-0.2c2.5-0.5,0.3-3,0.1-5.5c-0.3-3.2,4.8-4.2,5.9-7.1c2-5.3,2.1-11.3,4.9-16.3
	c1.9-3.5,5-6.3,8-9c0.7-0.6,1.4-1.3,2.3-1.7c1.3-0.6,2.7-0.6,4.1-0.8c5.9-0.9,11-6,11.9-11.9c0.1-0.8,0.2-1.8-0.3-2.5
	c-0.9-1.3-2.8-1.1-4.2-1.9c-0.9-0.5-1.5-1.4-2-2.3c-1.1-1.8-2.3-3.7-3.4-5.5c-0.6-1-1.2-2.1-0.9-3.2c0.8-2.9,6.1-1.4,7.4-4.1
	c0.4-0.9,0.3-2.2,1.1-2.7c1-0.7,2.2,0.3,3.3,0.6c2.5,0.8,4.9-1.3,6.6-3.2c1.6-1.8,0.7-4,1.3-6.3c1.2-4.6,9.8-1.9,12.4-5.8
	c1-1.5,1.6-3.3,2.3-4.9c3.5-8.8,10.7-15.7,14.2-24.5c3.7-9.1,3.4-19.7,8.9-27.8"/>
<path fill="none" stroke="#E1E1E1" stroke-miterlimit="10" d="M72.9-11.6c-1.4,2.4-0.7,5.3-0.6,8.1s-0.7,6.1-3.4,6.8
	c-4.1,1-7.4-5.4-11.3-4.1c-0.7,0.2-1.3,0.7-2,0.8c-0.9,0.2-1.8-0.1-2.7-0.4c-2-0.7-3.9-1.4-5.9-2c-0.9-0.3-1.9-0.6-2.8-0.3
	c-0.5,0.2-0.9,0.6-1.3,1c-1.4,1.5-2.5,3.1-3.4,4.9c-0.7,1.4-1.3,2.9-2,4.3c-1.9,3.4-5,5.9-8,8.4c-3.2,2.7-7.2,5.5-11.2,4.5
	c-0.5-0.1-1-0.3-1.6-0.3c-1.3,0.2-1.9,1.7-1.9,3c-0.1,1.3,0.1,2.7-0.8,3.7c-0.7,0.9-1.9,1.1-2.7,1.8c-0.9,0.8-1.5,2.1-2.6,2.6
	c-0.6,0.3-1.3,0.4-2,0.5c-1.6,0.4-3,1.5-4.2,2.7c-5,5.3-6.4,13.8-12.6,17.6c-1.5,0.9-3.3,1.5-4.3,3"/>
<path fill="none" stroke="#E1E1E1" stroke-miterlimit="10" d="M-14.4,70.8c1.2-1.4,2.5-2.6,4.1-3.5c1.2-0.7,2.9-1.2,3.9-0.3
	c0.9,0.9,0.7,2.4,0.1,3.5c-0.6,1.1-1.5,2-1.9,3.2c-0.5,1.7,0.1,3.5-0.4,5.2c-0.3,1.1-1.1,2.1-1.4,3.2c-0.3,1.1-0.2,2.3-0.1,3.5
	c0.2,2.2,0.4,4.4-0.3,6.5c-0.7,2.1-2.4,4-4.5,4.2"/>
<path fill="none" stroke="#E1E1E1" stroke-miterlimit="10" d="M-13,39.8c1.9-3.3,3.8-6.7,5.7-10c0.9-1.5,1.7-3,3-4.2
	c2.2-2.1,5.6-3.2,6.4-6.1c0.3-1,0.2-2.1,0.8-2.9c0.5-0.6,1.2-1,1.9-1.3c4.3-2.1,8.3-4.9,11.8-8.2c2.3-2.2,4.3-4.5,6.3-6.9
	c2.8-3.3,5.8-7.2,5.3-11.5"/>
<path fill="none" stroke="#E1E1E1" stroke-miterlimit="10" d="M-11.3,18.2c-0.6-4.4,4-7.9,4.7-12.3c0.1-0.8,0.1-1.7,0.4-2.6
	c0.7-2.2,3-3.5,4.7-5.1c1.8-1.6,3.1-3.7,4.3-5.8c0.7-1.2,1.5-2.7,1-4"/>
<path fill="#EAEAEA" stroke="#D6D6D6" stroke-miterlimit="10" d="M317.6,352.6c-0.9-0.8,0.4-2.6-0.4-3.6c-0.4-0.5-1.2-0.7-1.3-1.3
	c-0.1-0.6,0.4-1.1,0.7-1.6c0.5-1-0.6-1.8-1.2-2.8c-0.3-0.5,0.2-1.2,0-1.7c-0.2-0.6-0.6-1.1-1.2-1.1c-0.7,0-1.1,0.6-1.5,1.1
	c-0.8,0.9-1.8,1.5-2.8,2c-0.7,0.4-1.5,0.8-2.2,0.5c-0.7-0.3-1-1.2-0.8-1.9c0.2-0.7,0.7-1.3,1.2-1.9c0.2-0.2,0.4-0.4,0.5-0.7
	c0-0.2-0.1-0.4-0.1-0.6c-0.4-0.9-0.7-1.8-1.1-2.7c-0.2-0.5-0.4-1-0.4-1.5c0-0.5,0.4-1,0.9-1.1c0.3,0,0.6,0.1,0.9,0.2
	c1.9,0.9,4,2,4.9,3.9c0.1,0.3,0.3,0.6,0.6,0.7c0.4,0.2,0.8-0.1,1.1-0.4c0.7-0.5,1.5-0.8,2.3-0.7c0.8,0.1,1.5,0.9,1.3,1.7
	c-0.1,0.4-0.5,0.8-0.7,1.2c-0.5,1.1,0,2.3,0.7,3.3s1.4,2,1.4,3.2c0,0.6-0.2,1.1-0.3,1.7c-0.2,0.9-0.1,1.8-0.4,2.6
	C319.3,352.2,318.2,353.2,317.6,352.6z"/>
<path fill="#EAEAEA" stroke="#D6D6D6" stroke-miterlimit="10" d="M363.3,243.6c-0.7,0.4-1.6,0.3-2.4,0.2c-0.9-0.1-1.9-0.2-2.8-0.3
	c-0.7-0.1-1.5-0.2-2.1-0.5c-1-0.5-1.9-1.5-3-1.2c-0.6,0.2-1.1,0.7-1.6,1.1c-0.5,0.4-1.2,0.7-1.8,0.4c-0.2-0.2-0.3-0.4-0.5-0.6
	c-0.9-0.9-2.8-0.1-3.7-1.1c-0.2-0.2-0.3-0.4-0.5-0.5c-0.3-0.1-0.7,0.1-1,0.4c-2.1,1.9-4.3,3.7-6.4,5.5c-0.8,0.6-1.6,1.3-2.5,1.8
	c-1.1,0.6-2.4,0.8-3.4,1.6c-0.2,0.2-0.5,0.4-0.5,0.7c0,0.3,0.1,0.5,0.2,0.8c1.5,3.1,3.9,5.7,6.7,7.6c0.5,0.4,1.1,0.7,1.8,0.7
	c0.9-0.1,1.5-0.8,2.1-1.5c0.5-0.6,0.9-1.4,1.6-1.9c0.8-0.6,1.9,0.2,2.7,0.7c1.2,0.8,2.4,1.6,3.7,2.4c1,0.7,2,1.3,2.8,2.2
	c0.6,0.7,1.1,1.5,1.9,1.9c1,0.4,2.2,0.1,3-0.6c0.8-0.7,1.4-1.6,2-2.5c0.6-0.9,1.2-1.7,1.9-2.5c0.4-0.5,1.1-1.1,1.7-0.8
	c0.3,0.1,0.4,0.4,0.6,0.6c1,1.1,3.1,0.6,3.6-0.8c0.2-0.5,0.1-1.1,0.3-1.7c0.1-0.6,0.4-1.1,1-1.2c0.3,0,0.6,0,0.7-0.2
	c0.1-0.1,0.1-0.2,0-0.4c-0.2-2.5,0.5-5.3-0.5-7.5c-0.4-0.8-1.9-0.3-2.4-1c-0.6-0.8,0.2-2.3-0.6-2.9c-0.4-0.3-0.9-0.1-1.3,0.1
	C364,243,363.7,243.4,363.3,243.6z"/>
<path fill="none" stroke="#D6D6D6" stroke-miterlimit="10" d="M306.8,334c-1.4-0.3-2.2-2.1-3.7-2.3c-0.6-0.1-1.1,0.1-1.7,0
	c-1.5-0.4-1.5-2.8-3-3.5c-0.5-0.2-1.1-0.2-1.5-0.5c-0.4-0.3-0.5-0.7-0.7-1.1c-0.3-0.8-0.6-1.7-1-2.5c-0.2-0.6-0.5-1.2-0.3-1.8
	c0.2-0.6,0.7-1,1.1-1.5c1.3-1.6,0.6-4,1-6c0.4-2.1,1.8-3.7,3.2-5.3c1.6-1.8,3.2-3.7,5.3-5c1.2-0.8,2.6-1.4,3.7-2.3
	c1.1-0.9,2.1-2.2,2-3.7c0-1.2-0.7-2.4-0.2-3.5c0.3-0.7,1-1.1,1.7-1.4c2.1-0.9,4.8-1.4,5.4-3.5c0.2-0.7,0.1-1.4,0.3-2
	c0.5-1.8,2.8-0.9,4.4-1.7c2.6-1.3,2.2-5.7,4.9-6.8c0.7-0.3,1.5-0.5,2-1c0.5-0.6,0.6-1.4,0.7-2.2c0.2-1.4,0.6-2.9,1.1-4.2
	c0.1-0.3,0.3-0.7,0.6-0.9c0.5-0.4,1.3-0.3,1.9-0.2c1.2,0.1,2.4-0.1,3.6-0.5c5.2-1.5,10-4.8,13.2-9.1"/>
<path fill="none" stroke="#D6D6D6" stroke-miterlimit="10" d="M331.2,250.3c-1.1-0.5-2.4,0.1-3.4,0.7c-0.9,0.5-1.8,1.1-2.6,1.7
	c-1,0.7-2.1,1.5-3.3,1.3c-0.7-0.1-1.4-0.6-2.2-0.5c-0.6,0.1-1,0.7-1.3,1.2c-0.8,1.5-1.3,3.3-2.7,4.4c-0.8,0.7-2,1.1-2.3,2.1
	c-0.2,0.7,0.2,1.6-0.1,2.2c-0.2,0.3-0.4,0.6-0.7,0.8c-0.9,0.7-1.9,2.2-3,1.7c-0.8-0.3-0.8-1.5-1.5-2c-0.1-0.1-0.3-0.2-0.4-0.2
	c-0.2,0-0.3,0.1-0.5,0.2c-2.7,1.4-5.4,2.9-7.6,5c-0.8,0.8-0.1,2.3-1.1,2.9c-0.5,0.3-1,0-1.5-0.2c-1.1-0.6-2.3-1.3-2.8-2.5
	c-0.1-0.2-0.2-0.5-0.4-0.6c-0.4-0.3-0.9,0-1.3,0.3c-1.4,1-2.7,2-4.1,3c-1,0.8-2.2,1.6-3.5,1.4c-0.3,0-0.6-0.1-0.7,0.1
	c-0.2,0.2-0.1,0.5,0,0.7c0.7,2,0.1,4.4-1.4,5.8c-1.1,1-2.5,1.6-3.5,2.6c-0.7,0.7-1.1,1.6-1.8,2.3c-1,1.2-2.2,2.8-3.7,2.6
	c-0.7-0.1-0.1-1.3-0.2-2c-0.2-1.4-1.9-1.8-3.2-2c-0.3,0-0.7-0.1-1,0.1c-0.3,0.2-0.4,0.5-0.6,0.8c-0.5,0.7-1.5,0.8-2,1.4
	c-0.6,0.8,0,2.2-0.8,2.8c-0.8,0.7-2.1,0.4-3.1,0.1c-0.8-0.3-1.7-0.5-2.5-0.8c-0.8-0.2-1.8-0.5-2.4,0.1c-1.1,0.9-0.4,3.2-1.7,3.7
	c-0.7,0.3-1.5-0.2-2.3-0.4c-1.7-0.3-3.1,1.2-4.5,2.2c-1.3,1-2.9,1.6-4.4,2.2c-1.2,0.4-2.3,0.9-3.6,1s-2.2-0.8-3.4-1.1
	c-0.5-0.1-1.2,0-1.6-0.2c-0.9-0.4-2.1,0.1-2.9-0.4c-0.7-0.4-0.8-1.3-1.3-1.8c-2-2.1-4.4-3.8-5.7-6.3c-0.2-0.3-0.3-0.7-0.6-0.8
	c-0.2-0.1-0.4-0.1-0.6-0.1c-0.7-0.1-1.5-0.2-2.2-0.3"/>
<path fill="none" stroke="#D6D6D6" stroke-miterlimit="10" d="M206.5,276c-1-1-2.2-2.9-2.5-4.5c-0.6-3-1.2-6.3,0.1-9
	c0.3-0.5,0-1.4,0-2c0-1.2-0.6-1.7-1.3-2.7c-0.9-1.2-1-2.8-1.2-4.2c-0.2-1.5-0.7-3.1-2-3.8c-0.4-0.2-0.9-0.4-1.3-0.7
	c-0.4-0.3-0.7-0.7-0.9-1.2c-0.7-1.2-1.5-2.3-2.2-3.5c-0.4-0.7-0.9-1.5-0.7-2.2c0.2-0.7,0.9-1.3,0.9-2.1c0.1-0.8-0.5-1.5-0.3-2.2
	c0.1-0.3,0.3-0.5,0.4-0.8c0.7-1.4-0.9-1.9-2.1-3c-2-1.9-4.9-4.9-4.7-7.6c0.2-2.4,2.3-4.4,1.9-6.8c-0.3-1.7-1.4-3.6-3.2-3.7
	c-0.8-0.1-1.7,0.2-2.4-0.2c-1-0.6-1-2.4-2.2-2.7c-0.9-0.2-2.2,0.7-2.7-0.1c-0.2-0.3-0.1-0.6-0.1-0.9c0.1-0.9,0.2-1.7,0.3-2.6
	c0.1-0.8,0.2-1.7-0.1-2.4c-0.3-0.8-1.2-0.9-2-1.1c-0.5-0.2-0.8-0.8-1-1.3c-0.1-0.1-0.1-0.2-0.1-0.3c0-0.1,0.1-0.1,0.1-0.2
	c0.5-0.6,0.8-1.4,0.9-2.1c0.1-0.9-0.1-1.9-0.8-2.5c-0.2-0.1-0.4-0.3-0.3-0.5"/>
<path fill="#EAEAEA" stroke="#D6D6D6" stroke-miterlimit="10" d="M174.1,314.3c-0.4,0.1-0.8,0.1-1.2,0c-0.6-0.2-1.3-0.4-1.7-0.9
	c-0.4-0.4-0.3-1.1,0.1-1.6c0.5-0.7,1.6-0.4,2.4-0.8c0.3-0.1,0.5-0.3,0.7-0.5c0.9-0.7,2.2-1.6,3.3-1.1c0.3,0.2,0.2,0.6,0.2,1
	c0,0.8,0,1.6-0.5,2.2c-0.1,0.2-0.3,0.3-0.5,0.5C175.9,313.7,175,314.1,174.1,314.3z"/>
<path fill="#EAEAEA" stroke="#D6D6D6" stroke-miterlimit="10" d="M188.3,306.9c0,0.1,0,0.3,0,0.4c0.1,0.5,0.9,0.6,1.3,0.3
	c0.4-0.3,0.6-0.9,0.8-1.4c0.1-0.5,0.3-1,0.4-1.5c0.2-0.7,0.8-1.8,0.2-2.2c-0.9-0.5-1.8,1-2.5,1.7c-0.1,0.1-0.2,0.2-0.2,0.4
	c0,0.1,0,0.2,0.1,0.3C188.5,305.6,188.4,306.3,188.3,306.9z"/>
<path fill="#EAEAEA" stroke="#D6D6D6" stroke-miterlimit="10" d="M192.2,306.4c0,0.3,0.1,1.1,0.2,1.2c0.4,0.4,1,0.8,1.4,0.5
	c0.4-0.3,0.4-0.9,0.3-1.4c-0.1-0.3-0.1-0.6-0.2-0.9c-0.1-0.6-0.2-1.2,0.1-1.7c0.1-0.3,0.4-0.5,0.5-0.8c0.1-0.3,0.1-0.7-0.2-0.8
	c-0.6-0.2-1.2-0.4-1.6,0c-0.1,0.1-0.2,0.5-0.2,0.6C192.1,304.6,192,305.2,192.2,306.4z"/>
<path fill="none" stroke="#D6D6D6" stroke-miterlimit="10" d="M177.6,309.2c0.3-0.4,0.6-0.8,1-1.1c0.5-0.4,1-0.7,1.6-0.9
	c2.3-1,5.4-2.2,7.9-2.5"/>
<path fill="none" stroke="#D6D6D6" stroke-miterlimit="10" d="M191.4,302.9c0.3,0,0.6,0,0.9,0.1"/>
<path fill="none" stroke="#D6D6D6" stroke-miterlimit="10" d="M194.4,302.6c1.7-1.6,4.7-2,6.6-3.4c0.7-0.5,1.3-1.3,2.1-1.7
	c0.6-0.3,1.3-0.4,2-0.6c2.7-0.7,5-2.8,5.9-5.4c0.3-0.8,0.5-1.7,0.6-2.6c0.4-2,1.1-4.6,0.8-6.3"/>
<path fill="#EAEAEA" stroke="#D6D6D6" stroke-miterlimit="10" d="M272.2,220.5c0.7-0.1,1.2-1.1,1.8-0.9c0.8,0.3-0.1,1.7-0.3,2.5
	c-0.1,0.5-0.2,1-0.6,1.2c-0.3,0.2-0.7,0.2-1.1,0.3c-1,0.1-1.8,0.6-2.6,1.2c-0.4,0.3-0.8,0.6-1.3,0.8s-1.1,0-1.3-0.5
	c-0.3-0.6,0.3-1.2,0.8-1.7c0.7-0.7,1.4-1.3,2.2-2c0.3-0.3,0.7-0.6,1.1-0.7C271.3,220.5,271.8,220.5,272.2,220.5z"/>
<path fill="none" stroke="#D6D6D6" stroke-miterlimit="10" d="M184.2,192.4c0.5,0.7,0.4,0.6,0.9,1c0.5,0.5,0.6,1.2,0.7,1.9
	c0.1,1.2,0.2,2.4,0.5,3.6s1.1,2.2,2.3,2.6c0.8,0.3,1.6,0.2,2.5,0.3c2,0.3,3.9,1.9,5.9,1.4c1.6-0.4,2.6-2,3.5-3.4
	c0.4-0.6,0.8-1.2,1.4-1.5c0.6-0.4,1.3,0.3,2,0.1c2.3-0.6,1.6-4.5,2.4-6.8c0.4-1,0.7-2.1,1.6-2.8c1.5-1.3,3.4-2.3,5.4-2.3
	c1.4-0.1,2.3,1.6,3.5,2.4c0.4,0.3,1,0.6,1.5,0.4c0.4-0.2,0.6-0.5,0.8-0.9c0.5-0.9,1.3-1.6,2.2-2.1c1.4-0.7,3.1-0.8,4.7-1.1
	c1.9-0.3,3.7-1,5.3-2c0.5-0.3,1.1-0.7,1.7-0.8c1.6-0.3,3.1,1.1,4.7,1.3c2.6,0.3,4.7-2.6,7.3-2.5c1,0,2.2,0.5,3.1-0.1
	c0.3-0.2,0.7-0.6,1-0.4c0.3,0.1,0.3,0.5,0.5,0.7c0.4,0.7,1.4,0.8,2.1,0.4c0.7-0.4,1.1-1.2,1.4-1.9c0.9-2.1-0.4-4.9,1-6.8
	c1.6-2.1,5.5,0.2,7.6,1.8c0.8,0.6,1.5,1.1,2.4,1.3c1.2,0.2,2.5,0.1,3.7,0c2-0.1,4,0.1,6,0.3c0.4,0,0.9,0.1,1.3,0.2
	c0.8,0.3,1.4,0.9,2,1.5c0.7,0.7,1.4,1.4,2,2.1c0.4,0.4,0.9,0.9,1.5,1.1c0.3,0.1,0.6,0.2,1,0.2c1.4,0.3,2.6,1.3,3.3,2.5
	c0.2,0.4,0.4,0.8,0.5,1.3c0.1,0.6,0,1.2-0.1,1.9c-0.3,2-0.6,4-0.9,6c-0.1,0.9-0.3,1.9-0.7,2.8c-0.4,0.8-1,1.5-1.6,2.1
	c-1.2,1.4-2.3,3-2.7,4.8c-0.1,0.5-0.2,1-0.3,1.4c-0.1,0.5-0.3,1-0.4,1.4c-1.5,4.5-2.9,9.1-4.4,13.6"/>
<path fill="none" stroke="#D6D6D6" stroke-miterlimit="10" d="M183.2,158.7c-0.2-1.4-0.4-2.8,0.3-4c0.5-0.8,1.2-1.3,2-1.9"/>
<path fill="none" stroke="#D6D6D6" stroke-miterlimit="10" d="M189.6,132.6c-0.1,0.1-0.2,0.3-0.1,0.4c1.1,0.8,2.7,0.8,3.3,2
	c0.1,0.2,0.2,0.3,0.1,0.5c0,0.1-0.1,0.3-0.2,0.4c-0.4,0.6-0.6,1.2-0.8,1.8c-0.2,0.8-0.3,1.8-1,2.3"/>
<path fill="#7BBCEB" stroke="#4E9BD7" stroke-miterlimit="10" d="M170.6,208.8c-2.9-1.1-5.8,0.6-8.1-1.4c-1.2-1.1-1.8-2.8-1.3-4.3
	c0.4-1.6,0.8-3,1.9-4.2c1.1-1.2,2.3-2.4,3.1-3.8c0.5-0.8,0.9-1.6,1.4-2.4c0.5-0.7,1-1.2,1.4-2c0.5-1.1,0.7-2.5,0.6-3.7
	c-0.1-0.6-0.1-1.2-0.4-1.8c-0.2-0.5-0.6-0.9-0.9-1.4c-0.9-1.2-1.7-2.6-1.7-4.1c0-0.5,0-1,0.3-1.5c0.8-1.2,3.2-0.9,3.4-2.3
	c0-0.4-0.1-0.8,0-1.2c0.2-0.7,1-0.9,1.7-0.9c0.2,0,0.3,0,0.5-0.1c0.2-0.1,0.2-0.4,0.2-0.6c0.4-3.8,2.6-7.2,4.9-10.3
	c0.8-1.1,1.7-2.2,2.9-3s2.5-1.7,3.8-1.2c0.3,0.1,1,0.5,1.2,0.6c0.8,0.3,1.3-0.3,2-0.8c0.6-0.4,1.3-0.8,2-0.8c0.7,0,1.5,0.4,1.8,1.1
	c0.3,0.9,0.1,1.9-0.2,2.8c-1.2,3.6,1.9,7.2,0.8,10.8c-0.5,1.6-1.8,2.8-2.5,4.4c-1.1,2.5-0.3,5.4-0.4,8.1c0,0.7-0.3,1.7-1,1.6
	c-1.2-0.3-1.4-2-1.8-3.2c-0.4-1.2-1.2-3.5-2.3-2.8c-0.8,0.6,0.3,2,0.6,2.9c0.7,2.5,0.7,5,0.1,7.5c-0.4,1.7-1.4,3.7-2.6,5
	c-2.3,2.7-7.2,3.2-8.7,6.5c-0.8,1.8,0.2,3.8-0.5,5.7c-0.1,0.3-0.6,0.9-1,1C171.3,209.1,171,208.9,170.6,208.8z"/>
<path fill="#EAEAEA" stroke="#D6D6D6" stroke-miterlimit="10" d="M188.5,148.8c-0.7,0.9-0.8,2.1-1.2,3.2c-0.1,0.4-0.3,0.9-0.7,1.2
	s-0.9,0.4-1.3,0c-0.4-0.4-0.2-1.1,0-1.6c0.9-2.3,1.8-4.5,2.7-6.8c0.3-0.9,0.7-1.7,1.1-2.5c0.4-0.7,0.8-1.4,1.5-1.9
	c0.1-0.1,0.2-0.1,0.3-0.1c0.2,0,0.3,0.2,0.3,0.4c0.2,1,0.4,2,0,2.9c-0.2,0.6-0.6,1.1-0.9,1.7c-0.4,0.8-0.4,1.8-0.9,2.5
	C189.1,148.1,188.8,148.4,188.5,148.8z"/>
<path fill="#EAEAEA" stroke="#D6D6D6" stroke-miterlimit="10" d="M189.3,132.7c0.1,0,0.1,0,0.2,0c0.1,0,0.2-0.1,0.2-0.2
	c1-1.2,1.4-3.8-0.1-4.3c-0.6-0.2-1.1-0.7-1.6-0.5c-0.4,0.1-0.4,0.6-0.5,1c0,0.8,0,1.6,0.2,2.3S188.6,132.5,189.3,132.7z"/>
<path fill="none" stroke="#D6D6D6" stroke-miterlimit="10" d="M369.2,98.2c-1,0-2.1-0.1-3.1-0.3c-0.6-0.1-0.7-0.6-0.7-1.1
	c0.1-2.6-5.4-0.2-6.4,2.2c-0.4,0.9,0.1,2.8-2.8,2.1c-1.1-0.3-1.1-2.4-2.1-3.1c-1.9-1.5-3.6-1.6-5.9-0.6c-1.2,0.5-2.2,3.4-3.2,2.5
	c-1.8-1.7-3.5-2.3-5.4-1.9c-0.4,0.1,0.1-1-0.2-1.3c-1.7-1.6-5.2,1-6.9-0.5c-1.3-1.1-2.3-2.6-4-2.4s-3.2,1.1-4.7,1.9
	c-1,0.6-2.2,1.1-3.3,0.7c-0.5-0.2-0.9-0.5-1.3-0.9c-2.5-2.3-5.1-4.5-7.6-6.8c-0.5-0.5-1-0.9-1.7-1.2c-0.6-0.2-1.3-0.2-1.8-0.5
	c-0.8-0.5-1.2-1.5-1.6-2.3c-1.1-2.5-2.9-4.6-4.7-6.7c-0.9-1-1.8-2.1-3-2.8c-0.7-0.4-1.6-0.7-2.3-1c-2.1-1-3.8-2.7-5.7-4
	c-1.1-0.8-2.4-1.5-3.6-2.2c-1.3-0.7-2.7-1.5-4.1-1.5c-2.7,0-4.7,2.5-6,4.9s-3,6.9-5.4,5.7c-2.5-1.2-5.1-3.2-5.3-5.9
	c-0.1-1.2,0.7-2.3,0.9-3.4c0.7-3.4-4.3-6.4-3.1-9.7c0.8-2.2,0-5.3,0.2-7.6c0.1-1.7,1.1-3.3,1.3-4.9c0.4-2.8-1.2-5.5-2.8-7.8
	c-2.1-3.2-4.2-6.4-6.3-9.5c-1.4-2.1-2.5-5.1-4.6-6.5c-2-1.4-4.4-0.5-6.6,0.6c-1.1,0.6-2.8,0.9-4.1,1c-3.8,0.4-2.7-7.7-6.5-7.1
	c-1.8,0.3-3.4,3.7-4.2,5.3c-0.7,1.7-3.6,2.6-5.4,2.1c-0.8-0.3-2.6-1.1-3.3-1.5"/>
<path fill="#EAEAEA" stroke="#D6D6D6" stroke-miterlimit="10" d="M219.2,288.7c-0.1,0-0.2,0-0.4,0c-0.8-0.2-1.1-1.2-1.7-1.6
	c-0.4-0.3-0.9-0.3-1.1-0.7c-0.1-0.2-0.2-0.4-0.3-0.6c-0.3-0.9-1.1-2.2-0.4-2.9c0.5-0.5,1.4,0.5,1.9,1c0.5,0.5,1.2,1.1,1.9,0.9
	c0.7-0.2,1.2-1,1.9-1.1c0.3,0,0.5,0.1,0.8,0.3c0.7,0.5,1.2,1.2,1.3,2.1c0.1,0.8-0.2,1.7-0.8,2.4c-0.1,0.1-0.2,0.2-0.3,0.2
	c-0.1,0.1-0.3,0.1-0.5,0C220.7,288.7,220,288.7,219.2,288.7z"/>
<path fill="#EAEAEA" stroke="#D6D6D6" stroke-miterlimit="10" d="M210.2,276.8c0.1,0.5,0.3,1,0.4,1.4c0.3,0.8,0.5,1.8,0,2.5
	c-0.1,0.2-0.3,0.3-0.5,0.4c-0.2,0-0.4-0.1-0.5-0.2c-0.5-0.3-1-0.7-1.3-1.2c-0.3-0.5-0.3-1-0.5-1.5c-0.2-0.5-0.9-0.4-1.2-0.9
	c-0.1-0.3-0.2-0.5-0.2-0.8c-0.1-0.4,0.5-0.7,1-0.6c0.7,0.1,1.4,0.7,2.2,0.5c0.2,0,0.5-0.1,0.6,0
	C210.1,276.6,210.1,276.7,210.2,276.8z"/>
<path fill="none" stroke="#D6D6D6" stroke-miterlimit="10" d="M215.2,282.8c-0.1-0.4-0.4-1.2-0.8-1.3c-0.4-0.1-0.9,0-1.2,0.3
	c-0.1,0.1-0.2,0.2-0.3,0.3c-0.3,0.3-0.8,0.3-1.1,0.1c-0.4-0.1-0.7-0.4-0.9-0.8c-0.1-0.2-0.3-0.4-0.6-0.3"/>
<path fill="#EAEAEA" stroke="#D6D6D6" stroke-miterlimit="10" d="M167,49.4c-0.5-0.2-1.1-0.6-1-1.1c0-0.2,0.2-0.4,0.3-0.6
	c0.5-0.6,1.2-1.2,1.9-1.6c0.8-0.3,1.7-0.3,2.4,0.2c0.7,0.6,0.8,1.5,0.9,2.4c0,0.3,0,0.6-0.2,0.8c-0.1,0.1-0.4,0.2-0.6,0.2
	C169.5,49.9,168.2,49.8,167,49.4z"/>
<path fill="none" stroke="#D6D6D6" stroke-miterlimit="10" d="M102-11.1c-4.2,11.5-7.1,23.5-10.6,35.3c-0.8,2.8-1.7,5.6-3.1,8.1
	c-0.6,1.2-1.4,2.3-2.1,3.5c-2.3,3.6-4.6,7.3-6.7,11c-2.2,3.9-4.4,7.9-5.3,12.3c-0.2,1.3-0.4,2.6-1.1,3.6c-0.6,0.9-1.8,1.2-2.3,2.2
	c-2.6,4.2-3.1,8.2-5.2,11.4c-1,1.6-0.9,4.7-0.5,6.5c0.2,0.9-0.1,1.7,0.3,2.6c0.6,1.4,1.3,2.8,1.9,4.2c1.9,4,4,8.4,8,10.4
	c1.5,0.8,3.2,1.2,4.9,1.2"/>
<path fill="none" stroke="#D6D6D6" stroke-miterlimit="10" d="M42,177c-0.4-0.9,1.1-2.3,1.2-3.9s0-1.6,0.8-2.9c0.9-1.7,3-2.4,4.1-4
	c0.5-0.7,0.8-1.6,1.2-2.4c1.1-2.4,3.2-4.1,4.7-6.3c2.1-2.9,3.2-6.5,4.2-10c0.4-1.4,0.8-2.8,1-4.3c0.1-1,0-2.1,0.4-3.1
	c0.9-2.4,4-3.5,5-5.9c0.4-0.9,0.5-2,1-2.9c0.9-1.5,3.1-1.9,3.7-3.6c0.7-1.8-1-4,0-5.7c0.4-0.6,1-1,1.6-1.5c2.5-2.2,2.3-6.1,4-9
	c1.4-2.4,4.1-4.1,4.7-6.8c0.3-1.2,0.1-2.6,0.7-3.7c0.4-0.8,1.1-1.4,1.7-2.1c1.5-1.6,2.2-3.8,3.4-5.6c0.5-0.7,2.2-1.7,2.7-2.4
	c3.8-4.8,8.2-9,13.3-12.3c2.1-1.4,4.3-2.8,6.9-2.9c1.5-0.1,3.1,0.3,4.6-0.2c2.5-0.8,3-2,5.5-2.6c1.2-0.3,3.2-1.9,4.4-1.9
	c3.4-0.1,6-3.6,9.4-3.9c4.1-0.4,9.3-1.9,13.2-5c2.4-1.9,4.4-4.5,7.1-5.8c2.8-1.3,6.7-1.4,8-4.2c0.3-0.7,0.4-1.5,0.8-2.2
	c0.7-1.2,3.4-2.2,4.8-1.7"/>
<path fill="none" stroke="#D6D6D6" stroke-miterlimit="10" d="M171.5,49.2c1.8-0.8,3.9-2,4.1-3.9c0.4-2.7-2.9-5.2-1.8-7.7
	c0.7-1.4,2.9-1,3.8,0.2c0.9,1.2,0.9,2.9,1.3,4.3c0.4,2,1.4,3.9,2.3,5.7c0.4,0.7,0.9,1.6,1.7,1.7c1.5,0.2,1.4-2.1,1.6-3.6
	c0.1-0.9,1.8-0.4,2.2,0.4c0.4,0.8,0.3,1.8,0.6,2.7c0.8,2.5,5.7,2.6,7.1,0.4c0.1-0.2,0.2-0.4,0.2-0.6c0-0.3-0.1-0.6-0.2-0.8
	c-0.5-1.1-1.8-2-1.7-3.3c0.4-2.9,5.9,1,8-1c1.1-1.1-0.4-2-0.2-3.5c0.1-0.6-0.5-1.8-0.8-2.4c-0.7-1.4-1.9-1.9-2.9-3.1
	c-0.8-0.8-2.3-1.5-2.2-2.6c0.2-1.7,2.8-2.8,4.5-2.7c1.7,0.1,3.5,1.3,5,0.5c1.8-0.9-2.1-3.8-0.1-4.5c2.5-0.9,5.8-2.7,6.9-2.1
	c1.7,0.8,1.8,3.9,2.3,5.7c0.5,1.8,1.9,3.8,3.8,3.4c1.5-0.3,2.2-2.1,2.7-3.6c0.8-2.8,1.7-5.6,2.5-8.4c1.1-3.8,2.2-7.6,3-11.5
	c0.1-0.7,0.9-1.3,0.7-1.9c-0.3-0.8-0.8-2.8-1-3.6c-0.5-1.8,1.5-2.8,3.4-3.1s3.2,0.7,4.4-0.7c1.5-1.7,0.7-4.9,2.6-6.2
	c1.2-0.9,2.9-0.6,4.3-1c2.3-0.7,3.7-3.7,2.7-5.9"/>
<path fill="none" stroke="#4E9BD7" stroke-miterlimit="10" d="M166.6,179.3c-1,0.3-2,0.3-2.9,0.7c-0.8,0.3-1.4,0.9-2,1.4
	c-1.4,1.3-2.2,3.2-3.9,4.1c-4,2-7.4,4.5-9.7,8.3c-1.5,2.5-3.3,6-6.1,5.8c-4.9-0.4-8.5,0.9-10.4,1.6c-1.5,0.6-2.1-2.4-4.6-1.6
	c-1.5,0.5-2.7,1.5-4.1,2.3s-3.2,1.2-4.4,0.1c-0.6-0.5-0.9-1.3-1.4-1.8c-1.1-1.1-3-1.1-4.5-0.5c-1.5,0.6-2.8,1.6-4.2,2.3
	c-3.7,1.6-8,0.5-11.9-0.6c-2.8-0.8-5.8-1.7-7.6-4c-2-2.4-2.3-6-4.8-7.9c-0.9-0.7-2-1.1-3-1.7c-3.8-2.3-5-7.2-4.9-11.6
	c0.2-4.4,1.4-8.7,1.1-13.1c-0.1-1.6-0.6-3.5-2-4.1c-1.2-0.5-2.7,0-3.9,0.6c-4.3,1.9-8.5,3.8-12.8,5.8c-2.5,1.1-5,2.2-7.3,3.7
	c-7.1,4.5-12.6,10.9-17.1,18.1c-0.4,0.7-1.1,1.3-1.8,1.6c-2.6,1.3-5.4-2.7-8.2-2c-3.5,0.9-3,7-6.1,8.6c-2.6,1.4-6.3-3.6-8.4-1.5
	C7.5,196,5,198,1.9,199.8c-4.5,2.7-7.9,3.9-9,5.3c-3.1,4-4,5.3-7.7,9.6"/>
<text transform="matrix(1 0 0 1 325.2339 227.3532)"><tspan x="0" y="0" fill="#585858" font-family="'Verdana-Italic'" font-size="8">Tallulah</tspan><tspan x="0" y="9.6" fill="#585858" font-family="'Verdana-Italic'" font-size="8">Lake</tspan></text>
<text transform="matrix(1 0 0 1 315.2621 323.6297)"><tspan x="0" y="0" fill="#585858" font-family="'Verdana-Italic'" font-size="8">Shamrock</tspan><tspan x="0" y="9.6" fill="#585858" font-family="'Verdana-Italic'" font-size="8">Lake</tspan></text>
<text transform="matrix(1 0 0 1 193.0018 182.5042)"><tspan x="0" y="0" fill="#7BBCEB" font-family="'Verdana-Italic'" font-size="8">Doe</tspan><tspan x="0" y="9.6" fill="#7BBCEB" font-family="'Verdana-Italic'" font-size="8">Lake</tspan></text>
<text transform="matrix(1 0 0 1 319.859 158.664)" fill="#585858" font-family="'Verdana-Italic'" font-size="8">10458 </text>
<path fill="none" d="M335.4,287.1c1.7-2,4-3.2,6.3-4.4c4.4-2.3,8.8-4.6,13.2-6.9c1.9-1,3.8-2,5.7-2.8"/>
<text transform="matrix(0.8684 -0.4958 0.4958 0.8684 338.9364 287.1524)"><tspan x="0" y="0" fill="#7D7D7D" font-family="'Verdana-Italic'" font-size="7">1</tspan><tspan x="4.3" y="0" fill="#7D7D7D" font-family="'Verdana-Italic'" font-size="7" rotate="2.1">0</tspan><tspan x="8.8" y="0.2" fill="#7D7D7D" font-family="'Verdana-Italic'" font-size="7" rotate="2.1">0</tspan><tspan x="13.2" y="0.4" fill="#7D7D7D" font-family="'Verdana-Italic'" font-size="7" rotate="2.1">0</tspan><tspan x="17.7" y="0.5" fill="#7D7D7D" font-family="'Verdana-Italic'" font-size="7" rotate="2.1">0</tspan></text>
<path fill="none" d="M226.5,210c1.7-4.1,4-7.9,8-9c13.1-3.7,28.4-3.9,36-15"/>
<text transform="matrix(0.9783 -0.2072 0.2072 0.9783 240.2675 202.2061)"><tspan x="0" y="0" fill="#7D7D7D" font-family="'Verdana-Italic'" font-size="7">9</tspan><tspan x="4.4" y="0" fill="#7D7D7D" font-family="'Verdana-Italic'" font-size="7" rotate="0">6</tspan><tspan x="9" y="0" fill="#7D7D7D" font-family="'Verdana-Italic'" font-size="7" rotate="-1.6">0</tspan><tspan x="13.6" y="-0.1" fill="#7D7D7D" font-family="'Verdana-Italic'" font-size="7" rotate="-4.9">0</tspan></text>
<text transform="matrix(1 0 0 1 75.3277 323.8824)" fill="#585858" font-family="'Verdana-Italic'" font-size="8"> 10184</text>
<path fill="none" d="M201.9,315.6c1.2,0.6,2.6,0.8,3.9,1c4.7,0.6,9.5,1.3,14.2,1.9c1.5,0.2,3,0.4,4.5,0.8c1.1,0.3,2.2,0.8,3.4,1.2"
	/>
<text transform="matrix(0.991 0.1338 -0.1338 0.991 205.9287 319.1301)"><tspan x="0" y="0" fill="#7D7D7D" font-family="'Verdana-Italic'" font-size="7">9</tspan><tspan x="4.4" y="0" fill="#7D7D7D" font-family="'Verdana-Italic'" font-size="7">8</tspan><tspan x="8.9" y="0" fill="#7D7D7D" font-family="'Verdana-Italic'" font-size="7">0</tspan><tspan x="13.3" y="0" fill="#7D7D7D" font-family="'Verdana-Italic'" font-size="7" rotate="1.2">0</tspan></text>
<text transform="matrix(0.5745 -0.8185 0.8185 0.5745 32.6427 183.109)" fill="#585858" font-family="'Verdana-Italic'" font-size="8">Piute</text>
<text transform="matrix(0.9585 -0.285 0.285 0.9585 120.3927 69.4191)" fill="#585858" font-family="'Verdana-Italic'" font-size="8">Creek</text>
<path fill="none" d="M137.6,173.9c0.9-0.1,1.8,0.2,2.6,0.3c2,0.4,4.7-0.5,6.7-1c5.4-1.4,11.4-0.9,16.5,1.6"/>
<text transform="matrix(0.9816 -0.1908 0.1908 0.9816 141.9115 177.0133)"><tspan x="0" y="0" fill="#7D7D7D" font-family="'Verdana-Italic'" font-size="7">9</tspan><tspan x="4.5" y="-0.2" fill="#7D7D7D" font-family="'Verdana-Italic'" font-size="7" rotate="-1.3">2</tspan><tspan x="8.5" y="-0.3" fill="#7D7D7D" font-family="'Verdana-Italic'" font-size="7" rotate="9.3">0</tspan><tspan x="12.4" y="0.3" fill="#7D7D7D" font-family="'Verdana-Italic'" font-size="7" rotate="19.7">0</tspan></text>
<path fill="none" d="M299.4,48.2c1.3-5.7,2.6-11.5,5.1-16.9c0.7-1.5,1.6-3.1,1.7-4.8"/>
<text transform="matrix(0.2333 -0.9724 0.9724 0.2333 302.391 46.3551)"><tspan x="0" y="0" fill="#7D7D7D" font-family="'Verdana-Italic'" font-size="7">9</tspan><tspan x="4.3" y="0" fill="#7D7D7D" font-family="'Verdana-Italic'" font-size="7" rotate="2.4">4</tspan><tspan x="8.6" y="0.2" fill="#7D7D7D" font-family="'Verdana-Italic'" font-size="7" rotate="6.5">0</tspan><tspan x="12.8" y="0.6" fill="#7D7D7D" font-family="'Verdana-Italic'" font-size="7" rotate="11.8">0</tspan></text>
<path fill="none" d="M129.8,87.7c6.5-4.6,12.7-9.7,18.6-15.1c3.2-3,3.9-10.2,8.2-10.7"/>
<text transform="matrix(0.7813 -0.6242 0.6242 0.7813 137.9979 84.8102)"><tspan x="0" y="0" fill="#7D7D7D" font-family="'Verdana-Italic'" font-size="7">8</tspan><tspan x="4.5" y="0" fill="#7D7D7D" font-family="'Verdana-Italic'" font-size="7" rotate="-1.3">8</tspan><tspan x="9" y="-0.1" fill="#7D7D7D" font-family="'Verdana-Italic'" font-size="7" rotate="-2.6">0</tspan><tspan x="13.5" y="-0.3" fill="#7D7D7D" font-family="'Verdana-Italic'" font-size="7" rotate="-3.8">0</tspan></text>
<path fill="none" d="M22.6,228.8c2.5-3.1,4.6-6.5,6.1-10.2c0.3-0.7,0.5-1.4,0.8-2.1c0.7-1.7,2.2-5.2,2.9-6.9c2-4.6,5.1-8.7,8.8-12.2
	"/>
<text transform="matrix(0.3859 -0.9225 0.9225 0.3859 30.1908 221.6198)"><tspan x="0" y="0" fill="#7D7D7D" font-family="'Verdana-Italic'" font-size="7">8</tspan><tspan x="4.5" y="-0.1" fill="#7D7D7D" font-family="'Verdana-Italic'" font-size="7" rotate="-0.1">2</tspan><tspan x="8.9" y="-0.1" fill="#7D7D7D" font-family="'Verdana-Italic'" font-size="7" rotate="0.8">0</tspan><tspan x="13" y="-0.1" fill="#7D7D7D" font-family="'Verdana-Italic'" font-size="7" rotate="7.1">0</tspan></text>
<path fill="none" d="M65.9,41.2c3.5-8.8,10.7-15.7,14.2-24.5c3.7-9.1,3.4-19.7,8.9-27.8"/>
<text transform="matrix(0.5561 -0.8311 0.8311 0.5561 72.5677 34.0529)"><tspan x="0" y="0" fill="#7D7D7D" font-family="'Verdana-Italic'" font-size="7">9</tspan><tspan x="4.5" y="0" fill="#7D7D7D" font-family="'Verdana-Italic'" font-size="7" rotate="0">4</tspan><tspan x="9" y="0" fill="#7D7D7D" font-family="'Verdana-Italic'" font-size="7" rotate="-2.3">0</tspan><tspan x="13.7" y="-0.1" fill="#7D7D7D" font-family="'Verdana-Italic'" font-size="7" rotate="-7">0</tspan></text>
<path fill="none" d="M29.8,137c3.4-2.4,3.8-7.1,4.7-11.2c1.3-5.9,4.1-11.6,8.2-16.1c1.1-1.2,2.3-2.4,3-3.8"/>
<text transform="matrix(0.1899 -0.9818 0.9818 0.1899 36.1527 130.7067)"><tspan x="0" y="0" fill="#7D7D7D" font-family="'Verdana-Italic'" font-size="7">8</tspan><tspan x="4.2" y="-0.1" fill="#7D7D7D" font-family="'Verdana-Italic'" font-size="7" rotate="4.5">6</tspan><tspan x="8.4" y="0.2" fill="#7D7D7D" font-family="'Verdana-Italic'" font-size="7" rotate="11.8">0</tspan><tspan x="12.4" y="1.1" fill="#7D7D7D" font-family="'Verdana-Italic'" font-size="7" rotate="19">0</tspan></text>
<g>
	<g>
		<polyline fill="none" stroke="#7D7D7D" stroke-miterlimit="10" points="85.2,341.6 85.2,348.7 275.4,348.7 275.4,341.7 		"/>
		<line fill="none" stroke="#7D7D7D" stroke-miterlimit="10" x1="180.5" y1="341.4" x2="180.5" y2="348.7"/>
		<line fill="none" stroke="#7D7D7D" stroke-miterlimit="10" x1="161.2" y1="349.2" x2="161.2" y2="343.7"/>
		<line fill="none" stroke="#7D7D7D" stroke-miterlimit="10" x1="142.4" y1="349.2" x2="142.4" y2="343.7"/>
		<line fill="none" stroke="#7D7D7D" stroke-miterlimit="10" x1="123.3" y1="349.2" x2="123.3" y2="343.5"/>
		<line fill="none" stroke="#7D7D7D" stroke-miterlimit="10" x1="104.6" y1="349.2" x2="104.6" y2="343.7"/>
	</g>
	<text transform="matrix(1 0 0 1 83.7836 339.1467)" fill="#7D7D7D" font-family="'Verdana'" font-size="8">0</text>
	<text transform="matrix(1 0 0 1 174.2947 339.1467)" fill="#7D7D7D" font-family="'Verdana'" font-size="8">0.5</text>
	<text transform="matrix(1 0 0 1 258.3416 339.1468)" fill="#7D7D7D" font-family="'Verdana'" font-size="8">1 mi</text>
</g>
</svg>
