<?xml version="1.0" encoding="utf-8"?>
<!-- Generator: Adobe Illustrator 17.1.0, SVG Export Plug-In . SVG Version: 6.00 Build 0)  -->
<!DOCTYPE svg PUBLIC "-//W3C//DTD SVG 1.1//EN" "http://www.w3.org/Graphics/SVG/1.1/DTD/svg11.dtd">
<svg version="1.1" id="Layer_1" xmlns="http://www.w3.org/2000/svg" xmlns:xlink="http://www.w3.org/1999/xlink" x="0px" y="0px"
	 viewBox="0 0 360 360" enable-background="new 0 0 360 360" xml:space="preserve">
<path fill="none" stroke="#E1E1E1" stroke-miterlimit="10" d="M-11.4,291.1c3.7-3.1,7.6-5.8,11.9-8.1c1.9-1,3.9-2,5.4-3.5
	c0.7-0.7,1.3-1.4,2.1-1.8c0.8-0.4,1.6,0.3,2.5,0.4c4.7,0.6,6.7-6.8,9.3-10.8c0.6-1,1.3-2.1,1.6-3.2c0.4-1.1,0.5-2.3,0.7-3.4
	c0.6-2.6,1.9-5.1,3.3-7.4c3.1-5.2,6.7-10.1,11.3-14.1c3.1-2.7,6.7-5,9-8.4c1-1.4,1.9-3.1,3.6-3.4c0.9-0.2,1.8,0.1,2.7,0
	c1.7-0.3,2.7-2,3.4-3.5c0.9-1.9,0.2-4.6,1.7-5.9c1-0.8,2.8,1.8,3.7,0.9c1.2-1.1-1.1-3.4-0.8-5c0.3-1.4,1.1-2.7,0.7-4.1
	c-0.2-0.7-0.5-1.3-0.4-2c0-0.4,0.3-0.9,0.5-1.3c0.7-1.4,1.5-2.9,2.2-4.3c0.7-1.4,1.8-3,3.3-3c1.4,0,3.2,2,4,0.8
	c1-1.4,0.2-3.5,0.3-5.2c0-0.6,0.1-1.3,0.3-1.9c0.2-0.5,0.6-1,1-1.4c2.2-2.4,4.4-4.8,6.6-7.2c2.5-2.7,3.8-5.9,7.3-7.1
	c0.6-0.2,1.4-0.4,1.7-1c0.4-0.6,0.3-1.3,0.3-2c0.2-2.8,2.8-4.7,5.1-6.3c13.6-9.4,23.8-25.2,39.9-29.4c4.6-1.2,7.4-3.9,8.8-6.8
	c0.8-1.7,3,0.1,5-2.8c1.1-1.6,1.7-3.5,3.2-4.8c1.2-1,2.7-1.5,4.2-1.9c8.1-2.4,16.3-4.8,24.4-7.2c3.6-1.1,7.3-2.2,10.5-4.1
	c2.6-1.6,4.9-3.6,7.2-5.7c4-3.6,8-7.2,11.9-10.8c2.9-2.6,5.9-8.4,9.5-6.9c2.9,1.2-3.3,5.1-3.7,8.2c-0.3,2.3,1.8,4,3.7,5.2
	c10.2,6.2,18.5-2.1,19.3,1.6c0.7,3-6.5,4.8-5.2,7.5c1.9,3.7,7.3-5,11.4-4.3c0.9,0.2,2.1-0.4,2.9-0.9c7.1-4.7,14.3-9.4,21.4-14
	c1.9-1.3,3.9-2.5,5.3-4.3c3.2-4,3.7-10,7.9-12.9c2.6-1.8,6.2-1.8,8.8-0.1s4,5,3.5,8.1c-0.5,2.5-2.1,5.2-0.8,7.4
	c0.9,1.4,2.6,1.9,4.3,2.3c2.6,0.6,5.2,1.3,7.8,1.9c2,0.5,4.1,1,5.7,2.2c1.1,0.8,2.1,2,3.5,2.3c0.9,0.1,1.8-0.2,2.7-0.3
	c2.6-0.2,5.6,1.4,7.6-0.3c0.5-0.5,0.9-1.1,1.4-1.6c2-1.9,5.6-0.4,6.8,2.1c0.4,0.9,0.7,1.9,1.3,2.7c2.2,3,7.4,1.9,9.8,4.7
	c0.9,1.1,1.2,2.5,1.4,3.9c0.4,2.4,0.8,4.9,0.7,7.4c-0.1,2.8-0.9,5.5-1.1,8.3c-0.4,4.9,3,9.1,3.9,14c1.2,6.4-4.2,12.8-5.9,19.1
	c-0.7,2.7-1.4,5.4-3.1,7.5c-2.1,2.7-4.7,5-6.3,8.1c-3.3,6.5-11.4,9.1-18,12.3c-3.9,1.9-5.6,5.8-9,8.5c-2.3,1.9-5.7,2.8-5,5.6
	c0.2,0.9,0.7,1.8,0.7,2.7c0,1-0.6,1.9-1.1,2.8c-6.6,10.6-13.3,21.2-19.9,31.7c-1,1.6-2,3.2-3.2,4.6c-1.2,1.4-2.6,2.7-3.9,4
	c-2.1,2-4.3,4-6.4,6c-4.8,4.5-9.7,9-15.6,12c-5,2.5-10.6,3.8-16.2,4.4c-3.7,0.4-7.3,0.6-11,0.5c-1.7,0-3.5-0.1-4.8,0.9
	c-1.3,0.9-0.1,3.2-1.3,4.3c-2,1.7-5,0.7-6.8,2.5c-5,5-9.6,10.5-13.7,16.3c-3,4.3-6.7,7.9-9.7,12.1c-0.9,1.3-1.8,2.5-2.8,3.8
	c-1.7,2.3-3.3,4.6-5.3,6.6c-1.3,1.4-2.8,2.7-4.1,4.1c-4.7,5.3-7.6,12.8-14,15.7c-2.1,0.9-6.8,1.6-5.6,3.6c0.4,0.7,2,0.7,1.6,1.4
	c-2.4,4.2-9.2,2.8-13.8,4.1c-3.6,1.1-7.3,2.2-10.5,4.4c-3,2.1-5.4,5-8.6,6.8c-1.3,0.7-2.8,1.4-3.1,2.8c-0.1,0.5,0,1.1,0,1.7
	c0,3.2-4,5.2-4.5,8.3"/>
<path fill="none" stroke="#E1E1E1" stroke-miterlimit="10" d="M-11.2,275.6c2.5-2.2,5.4-4.1,8.4-5.6c0.9-0.5,1.9-0.9,2.7-1.6
	c1.1-0.9,1.8-2.2,2.5-3.5c3.7-6.5,8.7-12.2,14.5-16.9c0.7-0.5,1.4-1.1,1.7-1.9c0.2-0.6,0.1-1.2,0.2-1.9c0.2-2.7,3.7-2.9,5.8-4.7
	c1.6-1.4,2.1-3.6,3.8-4.9c3.2-2.3,6.4-4.7,9.6-7c1.6-1.2,3.3-2.4,4.6-3.9c0.9-1,1.6-2.2,2.6-3c0.8-0.7,1.9-1.3,2.4-2.3
	c0.5-1-0.6-1.4-1.3-2.4c-1.1-1.5,3.3-2.7,2.8-4.5c-0.2-0.8-0.5-1.5,0-2.1s1.3-1.1,1.6-1.8c0.2-0.5,0.2-1.2,0.3-1.7
	c0.2-1.2,1.1-2.1,1.8-3.2s-0.2-2.4,0.4-3.4c0.7-1.2,2.3-1.4,2.6-2.7c0.3-1.4,0.5-3,1.7-3.7c0.7-0.4,1.5-0.4,2.2-0.8
	c0.8-0.5,1.1-1.6,1.4-2.6c0.7-2.8,2.2-6,5.1-6.2c0.5,0,1,0,1.5-0.1c1.3-0.4,1.7-2.1,2.2-3.4s1.8-1,3.2-1.4c3.2-1,2.5-6.5,5.6-7.7
	c4.7-1.8,8.1-4.5,12.6-6.7c3.4-1.7,6.3-4,9.3-6.4c5.8-4.6,11.6-9.3,17.4-13.9c1.8-1.4,3.6-2.8,5.7-3.7c1.4-0.6,2.9-0.9,4.2-1.5
	c1.4-0.7,2.7-1.7,3.8-2.8c2.3-2.2,3.8-4.4,6-6.6c0.5-0.5,0.4-2.6,1.2-2.7c2.9-0.2,5.1-1.2,6.7-3.9c3.1-5.2,11.3-4,17.4-5.1
	c7-1.3,13.5-4.5,19.9-7.6c3-1.5,6.1-3,8.9-4.9c6.7-4.4,11.8-10.7,16.7-17.1c2.3-3.1,2.7-7.3,5.5-10c2.9-2.9,7.4-4.4,8.1-8.4
	c0.7-3.8,1.2-7.3,1.8-11.1c0.4-2.6,0.7-5.3,0.3-8c-0.4-2.7-1.6-5.5-0.5-8c0.4-0.9,1.1-1.7,1.4-2.7c0.3-1.1,0.1-2.2,0.1-3.3
	c0-1.7,0.5-3.3,1.1-4.9c0.9-2.8,1.9-5.6,2.8-8.4c0.3-1,0.7-2,1.3-2.8c0.7-1,1.8-1.6,2.8-2.3c3.6-2.2,7.1-4.4,10.7-6.6
	c1.7-1.1,3.5-2.2,4.5-4c1-1.9,1-4.1,1.3-6.3c0.3-2.1,1.4-4.4,3.4-5.1c1.9-0.6,4.2,0.4,5.7-0.9c0.9-0.9,0.9-2.3,0.8-3.5
	c-0.4-3.1-1.4-6.2-2.9-8.9"/>
<path fill="none" stroke="#E1E1E1" stroke-miterlimit="10" d="M-11.6,269.7c6.7-7.7,13-15.6,18.8-23.9c1-1.4,2-2.8,3.1-4.1
	c1-1.1,2.1-2.1,3.1-3.1c2.6-2.4,5.2-4.7,7.8-7.1c0.6-0.5,1.2-1.1,1.4-1.8c0.2-0.6,0.1-1.3,0.2-2c0.3-2.1,2.4-3.5,4.3-4.5
	c4.2-2.3,9.1-5.2,9.7-10c0.1-1.2,0-1.6,1-2.2c3-1.8,5.3-5.1,7.1-8.1c2.3-3.7-1-9.4,1.8-12.7c2.4-2.9,6.9-4,7-7.7
	c0-0.8-0.1-1.6,0.2-2.3c0.3-0.7,0.9-1.2,1.5-1.7c1.9-1.5,4.5-1.7,6.3-3.2c2.4-2,4.2-4.3,7.1-5.3c3.7-1.3,7.3-3,10.6-5
	c5.3-3.2,10.4-6.3,14.8-10.7c4.6-4.5,9.5-8.8,15.4-11.3c2.2-1,4.6-1.7,6.7-3.1c2-1.4,1.7-4.3,3.4-6.1c1-1.1,3.4,0.1,4.7-0.6
	c4.8-2.4,9.8-4.7,11.7-9.7c0.2-0.6,0.4-1.2,1-1.6c1-0.7,2.3,0.1,3.5-0.2c1.1-0.3,1.8-1.4,2.5-2.3c2.5-3,7-3.2,10.9-3.6
	c4.8-0.4,9.5-1.3,14-2.7c1.8-0.5,3.6-1.2,4.9-2.5c1-1,1.6-2.4,2.7-3.4c2.1-1.9,5.3-1.6,8.1-2.5c3.2-1,5.6-3.6,7.9-6.2
	c1.7-1.9,3.4-3.8,5.1-5.7c4.6-5.1,9.3-10.4,11.8-16.9c1-2.6,1.6-5.3,2.7-7.8c1.2-3,3.1-5.6,4.3-8.6s1.9-6.4,0.7-9.3
	c-0.4-0.9,0-0.8-0.4-1.6c-1.1-2.7,2-6,3.2-8.7c1.2-2.7,1.7-5.8,0.6-8.6c-0.2-0.5-0.5-1-0.5-1.6c0-0.5,0.3-1,0.6-1.5
	c2.6-4.2,6.2-7.7,9.2-11.7c3-3.9,5.4-8.7,5-13.6c-0.2-1.8-0.7-3.6-0.9-5.5c-0.2-1.8,0.2-3.8,1.5-5.2c0.4-0.4,0.9-0.7,1.2-1.2
	c0.4-0.7,0.5-1.5,0.5-2.3c0-1.9-0.1-3.9-0.5-5.7"/>
<path fill="none" stroke="#E1E1E1" stroke-miterlimit="10" d="M-11.3,251c4.1-4.1,8.2-8.2,12.2-12.3c0.5-0.5,1.1-1.1,1.2-1.9
	c0.1-0.6-0.1-1.2,0.1-1.8c0.2-0.8,1-1.4,1.7-1.9c5.8-3.8,11.5-7.6,17.3-11.3c3.7-2.4,7.8-6.3,8.3-10.7c0.8-7.5,11.8-10.8,12.4-18.3
	c0.1-1.7-0.3-3.4-0.3-5.1s0.6-3.6,2.1-4.3c0.4-0.2,0.9-0.3,1.1-0.7c0.4-0.6,0-1.4-0.3-2.1c-0.9-2.2,0.5-5,2.8-5.6
	c1.3-0.3,2-1,2.9-1.9c2.4-2.6,6.8-1.6,9.8-3.6c6.7-4.6,13.3-9.3,20-13.9c11.8-8.2,23.1-15.6,35.1-23.5c2.2-1.4,4.4-2.9,6.8-4
	c3.6-1.7,8.4-0.1,11.6-2.5c1.7-1.4,0.4-4.6,1.6-6.5c0.7-1.1,2.3,1,3.6,0.8c0.7-0.1,1.1-0.7,1.6-1.3c5.5-7,17.8-4,24.1-10.3
	c1.8-1.8,2.9-4.3,4.2-6.5c2.4-4.2,5.6-8.1,9.7-10.8c4.4-2.9,10.2-5.2,11.3-10.3c0.2-0.9,0.2-1.8,0.5-2.6c0.7-1.7,2.4-2.8,4.1-3.5
	c1.7-0.7,3.6-1.2,4.9-2.5c1.4-1.2,0.6-3.1,0.8-4.9c0.6-4.2,5.1-6.9,6.5-10.9c1.3-4,2.1-8.3,3.9-12.1c0.8-1.8,1.9-3.6,2.4-5.5
	s-1.4-3.6-1.2-5.6c0.4-2.8,3-4.6,4.6-7c2.3-3.5,6.9-5,9.5-8.3c2.1-2.8,2.6-6.4,2.8-9.9c0.5-8.4-0.1-16.9-1.9-25.1"/>
<path fill="none" stroke="#E1E1E1" stroke-miterlimit="10" d="M-13.3,236.2c2.8,0.1,4.7-2.7,7.3-3.9c1.1-0.6,2.4-0.8,3.6-1.3
	c0.7-0.4,1.3-0.8,2-1.3c4.5-3.6,9.1-7.1,13.6-10.7c2.5-2,6.6-3.1,8.1-5.9c3.2-5.7,4.4-12.3,7.8-17.8c3.4-5.6,6.8-11.7,6.5-18.2
	c-0.1-1.1-0.2-2.3,0-3.4c0.4-1.9,1.9-3.5,3.6-4.4s7.1,0.3,9-0.2c5.3-1.4,6.5-2.7,11.1-4.4c3.4-1.3,6.4-3.2,9.4-5.3
	c4.7-3.2,12.7-8.1,17-11.6c12-9.7,23.2-15,36.2-23.4c1.9-1.3,3.9-2.5,6.2-3.1c0.7-0.2,1.4-0.3,1.9-0.7c1.1-0.7,1.4-2.1,1.9-3.2
	c0.5-1.2,1.5-2.4,2.8-2.2c0.7,0.1,1.3,0.7,2,0.8c1.9,0.4,2.9-2.2,4.6-3.3c0.8-0.6,1.9-0.8,2.9-1c4.8-1.2,8.9-4.3,12.8-7.3
	c1.5-1.1,2.3-2.7,3.3-4.3c4-6.9,12.7-9.5,18.2-15.3c2.8-3,5.5-6.4,6.1-10.5c0.3-1.9,0.1-3.8,0.4-5.6s1.3-3.8,3-4.5
	c0.9-0.4,1.9-0.3,2.9-0.6c3.3-1.1,2.4-5.8,4-8.9c1.6-3.1,4.4-4.6,5.9-7.7c0.3-0.7,0.6-1.4,0.9-2c0.4-0.9,0.9-1.9,1-2.9
	c0.1-1.1-0.1-2.2,0-3.2c0.2-1.6,1.3-3,2.3-4.3c3.2-4,6.4-8.1,9.6-12.1c2.9-3.6,5.7-7.2,7.8-11.3c2.1-4.1,3.4-8.7,2.9-13.3
	c-0.6-5.1-3.4-9.6-6-13.9"/>
<path fill="none" stroke="#E1E1E1" stroke-miterlimit="10" d="M-13.2,227.6c2.3-1.2,4.9-2,7.5-2.2c1.1-0.1,2.3-0.1,3.3-0.7
	c0.5-0.3,1-0.6,1.4-1c4-3.3,7.3-7.9,11.2-11.3c2.7-2.3,5.1-5.8,5.9-9.3c0.4-2,0.4-4.2,1.6-5.8c1-1.4,2.7-2.1,4.2-3
	c1.5-0.9,3-2.2,3.1-3.9c0.1-2.3-2.3-4-2.9-6.2c-0.6-2,0.5-4.2,0.3-6.3c-0.2-2.4-1.7-4.3-2.8-6.5c-1.1-2.1-1.6-5,0.2-6.6
	c1.3-1.3,3.6-1.4,4.5-3c0.6-1.1,0.3-2.4,0.3-3.6c0-1.2-0.9-3.4,0.3-3.6c0.7-0.1,2.9,3.7,3.5,4.1c5.3,3.4,9,4.7,15.2,5.8
	c1.1,0.2,4.4,0.2,5.5,0c1.7-0.4,4.4-2.3,5.8-3.5c2.6-2.3,4.4-5,7.6-6.4c1.8-0.7,3.7-1.2,5.5-1.8c5.4-1.8,15.5-7.5,21.2-11.1
	c14.4-9.1,22.5-14.8,37-23.8c0.8-0.5,1.7-1,2.3-1.8c0.6-0.7,1.1-1.6,1.4-2.5c0.5-1.6-0.8-3.7,0.3-4.9c1.4-1.5,3.6,1.7,5.6,2.1
	c2.6,0.5,5.2-0.9,7.5-2.3c5.3-3.3,10.9-6.8,13.9-12.3c0.6-1.1,1.1-2.3,2-3.1c0.8-0.8,2-1.2,3-1.7c9.5-4.2,16.2-13.8,16.9-24.1
	c0.2-2.8,0-6,1.9-8.1c1-1.1,2.5-1.8,3.7-2.7c2.5-1.9,3.8-4.9,5-7.7c1.2-2.7,2.3-5.5,3.5-8.2c4.5-10.6,11.7-20.4,18.5-29.7
	c2-2.7,4.1-5.5,4.7-8.8c0.3-1.6,0.2-3.3,0-4.9c-0.7-5.2-2.6-10.1-5.5-14.5"/>
<path fill="none" stroke="#E1E1E1" stroke-miterlimit="10" d="M91.6-16.2c0,3.1,3.3,4.1,6,5.6c1.3,0.7-0.7,2.7-1.8,3.7
	s-2.3,2.7-1.3,3.8c0.3,0.4,0.9,0.6,1.4,0.7c3,0.7,6.6-0.5,8.9,1.5c1.6,1.4,1.8,3.8,1.9,6c0.1,1.2,0.1,2.4-0.3,3.5
	c-0.4,1.1-1.2,1.9-1.9,2.8c-4.7,5.4-9.1,11.1-13.2,17c-1,1.5-2,3-2.8,4.6c-1.6,3.2-2.5,6.9-4.8,9.6c-0.7,0.9-1.6,1.6-2,2.7
	c-0.3,0.8-0.3,1.8-0.3,2.7c0,4.9,3.2,11.5-0.3,15c-0.6,0.6-1.7,0.3-2.5,0.1c-1.5-0.3-2.7-2-4.2-1.7c-1.3,0.3-1.8,1.9-2.4,3.2
	c-1.5,3.2-5.1,4.6-8.2,6.2c-5.7,3-10.7,7.5-14.2,13c-0.4,0.6-0.8,1.3-0.6,2c0.2,0.7,0.9,1.1,1.1,1.7c0.5,1.1-0.5,2.6,0.2,3.7
	c1,1.5,3.6,0,4.9,1.2c0.4,0.4,0.6,1,0.7,1.6c0.4,2.4-0.4,5-2,6.8c-1.2,1.4-3.7,2.9-2.8,4.4c0.4,0.6,1.4,0.6,1.9,1.2
	c3.2,5-0.3,12-3.5,17c-0.8,1.3-1.9,2.5-3.4,2.7c-0.8,0.1-1.6-0.1-2.4-0.2c-4-0.5-8.4,1.9-11.7-0.4c-0.7-0.5-1.2-1.1-2-1.4
	c-1.3-0.4-2.7,0.3-3.5,1.4c-0.8,1.1-1,2.5-1.3,3.8c-0.2,1.1-0.4,2.4,0,3.5c0.4,1.1,1.9,0.7,2.7,1.6c1.5,1.7,0,4.6,1.4,6.4
	c1.5,1.8,3.4,3.1,4.7,5c1.6,2.3,2.3,5.5,5,6.5c1.6,0.6,3.6,0.2,5,1.2c0.4,0.3,0.7,0.7,1.1,0.9c1.6,1.1,3.8-0.6,4.4-2.5
	c0.6-1.9,0.3-4,1.1-5.8c0.8-1.8,2.5-3,4.3-3.9c5.5-2.7,11.8-2.8,17.9-2.8c4.7,0,9.7-0.8,14-2.8c15.3-7.3,32.8-17.9,39.3-28.9
	c0.6-1-0.4-5,3.1-4c2.2,0.7,4.1,1.2,6.1-0.1c8.3-5.5,16.1-11.8,23.2-18.8c1.8-1.7,3.5-3.5,5-5.4c5-6.6,0.3-16.6,4.7-23.7
	c1-1.6,3-2.2,3.9-4c2.7-5.7,9.3-13.7,4.8-18.1c-1.4-1.3-3.4-1.8-3.6-3.7c-0.2-1.9,0.5-3.8,0.8-5.7c0.5-3.7-2.2-6.8-2.8-10.5
	c-0.4-2.3,1.5-4.4,2.3-6.6c1.2-3.6,2.4-7.9,0-10.8c-0.9-1.1-2.2-1.9-2.8-3.1c-0.8-1.6-0.2-3.6-1-5.2c-0.7-1.2-2.1-1.9-2.6-3.2
	s1.4-3.1,2.1-1.9"/>
<path fill="none" stroke="#E1E1E1" stroke-miterlimit="10" d="M-9.4,194.4c1.4-2.5,2.3-5.5,3.8-8c1.8-2.9,2.4-6.4,3.6-9.6
	s3.9-9.2,6.7-7.2c5.4,3.8,0.3,13.2-1,19.6c-0.2,0.9-0.4,1.7-0.8,2.5c-0.3,0.5-0.7,1-0.9,1.5c-0.8,1.6-0.2,3.6,0.8,5.2
	c0.9,1.6,2.2,3,2.8,4.7c0.9,2.6,0.1,5.6-1.2,8c-1.2,2.5-3.8,0.6-7,2.9c-0.9,0.6-2.4,0.9-3.3,1.5c-0.3,0.2-0.5,0.3-0.8,0.4
	c-0.3,0.1-0.7,0-1,0.1c-0.4,0-0.8,0.2-1.1,0.3c-1,0.4-2,0.7-3,1.1"/>
<path fill="none" stroke="#E1E1E1" stroke-miterlimit="10" d="M-9.9,161.5c2-5.2,4.1-10.1,8.7-12.7c5.9-3.3-3.6,1.6,0,0
	c6.1-2.8,8.8-10,9.1-13.5c0.3-3.2-0.9-6.8-0.1-9.8c0.5-1.9-0.6-3.8,0.4-7c1.2-4.2,6.3-4.2,7.8-7.3c1.9-3.9,4.6-5.9,8.1-8.2
	c2.8-1.9,6.8-4.7,6.9-8.4c0.1-3.5-9.7-5.4-9.6-8.7c0.1-2.9,5.1-3,6.7-5.5c5.7-8.5,17.2-25.1,14.5-28.2c-1.3-1.4-3.6-1-3.9-2.7
	c-0.3-2.2,3.2-3.2,3.2-5.2c-0.1-6.5,0.8-7.3,3.4-11.5c0.7-1.2-0.6-3.5-0.2-4.4c2.7-6.5,9.4,1.6,15,1c3.6-0.4,0-6,0-9
	c0-2,0.9-4.1,2-5c4.8-4.3,16.4-4.7,15-11c-1-4.4-8-3-10-6s1-9.1-3-10c-2.4-0.5-4.6-1.6-6.8-2.7"/>
<path fill="none" stroke="#E1E1E1" stroke-miterlimit="10" d="M2.8,0.4C-1.6-0.4-6.6,1.2-9.6,4.4C-10.3,5.2-8.5,5.8-8,6.6
	c0.5,0.9-0.3,2-1.2,2.4s-2,0.7-2.6,1.5c-1.5,2,1.2,4.7,0.7,7.2c-0.4,1.8-3.5,4.5-1.7,5.1c4.3,1.7,8.2-9.1,12.1-6.7
	c1.2,0.8-1.9,3.4-0.8,4.4c1.4,1.2,3.9-0.1,5.3,1.1c0.4,0.3,0.8,0.8,1.3,0.8c0.3,0,0.6-0.1,0.8-0.2c2-1,3.6-4.2,5.7-3.5
	c3.2,0.9-3.7,6.8-1.9,9.5c0.9,1.3,3.5,1.5,4.1,0.1c0.3-0.6,0.1-1.3,0.4-1.8c0.3-0.6,0.9-0.9,1.3-1.3c0.8-0.8,0.1-2.1,0.3-3.2
	c0.2-0.9,2-0.7,2.2-1.6c1-3.2-0.5-7.2-3.1-9.4c-1.9-1.6-5.5,0.9-7.1-0.9C6.6,8.5,6.3,7.3,4.6,6.4c-1.4-0.7,1.1-3,0.6-4.5
	C4.9,1,3.8,0.5,2.8,0.4z"/>
<path fill="none" stroke="#E1E1E1" stroke-miterlimit="10" d="M50,5.5c-0.1-0.2-0.3-0.2-0.5-0.3c-1-0.2-2-0.5-3-0.4
	s-2.1,0.5-2.6,1.3c-0.6,1,0,2.5,1,3s3.8-0.2,3.9-0.3c0.7-0.7,1.2-1.7,1.3-2.7C50.1,5.9,50.1,5.7,50,5.5z"/>
<path fill="none" stroke="#E1E1E1" stroke-miterlimit="10" d="M10.2-1c-0.5,0.2-0.4,1.1-0.1,1.6s0.8,0.9,1.3,1.2
	c0.5,0.3,0.9,1.1,1.4,0.9c0.7-0.2,1.1-0.9,1.6-1.5c0.2-0.2,0.1-0.6-0.1-0.9C13.7-0.9,11.6-1.6,10.2-1z"/>
<path fill="none" stroke="#E1E1E1" stroke-miterlimit="10" d="M-10.6,75.5c1.4,0.2,2.8,0.4,4.2,0.4c2,0,1.3-3.9,2.9-5
	c1.2-0.8,2.9,2.1,4.1,1.2c3.6-2.5,6.7-5.8,7-10.2c0.2-3-6.1-4.5-5.1-7.3c0.9-2.5,4.2-3.3,5.7-5.5c0.3-0.4,0.6-0.9,0.5-1.4
	c-0.1-0.6-0.7-1.1-1.3-1.4c-5.7-2.7-12,2-18.3,2.6"/>
<path fill="none" stroke="#E1E1E1" stroke-miterlimit="10" d="M191.3,4.4C191,4,190.5,3.9,190,3.9c-0.6,0-1.3,0-1.7,0.5
	c-0.2,0.2-0.3,0.5-0.3,0.8c-0.3,1.4-1.3,3.4-0.2,4.3c1.7,1.3,3.8-2.3,3.6-4.4C191.4,4.8,191.4,4.6,191.3,4.4z"/>
<path fill="none" stroke="#E1E1E1" stroke-miterlimit="10" d="M116.9-14.1c1,2.8,4,4.2,6.3,5.9c2.4,1.7,2.1,4.6,2.9,7.4
	c0.3,1.1,2.7,0.5,3.1,1.6c0.7,2,1,4,1.1,6.2c0,1-0.3,2-0.7,3c-4.4,11-10.9,21-19.1,29.5c-2.1,2.2-4.4,4.4-6.1,7
	c-1.6,2.6-2.6,5.8-1.8,8.8c0.3,1.3,0.9,2.4,1.2,3.7c0.3,1.5,0,3.1-0.4,4.7c-1.3,6.5-3.1,13.6-8.3,17.6c-0.7,0.5-1.4,1-1.7,1.8
	c-0.3,0.9,0,1.8-0.1,2.7c-0.1,0.8-0.5,1.5-1,2.1c-4.3,6.4-9.8,12.2-11.5,19.7c-0.3,1.1-0.4,2.4,0.1,3.4c0.4,0.7,1.2,1.3,1.4,2.1
	c0.2,0.9-0.2,1.7-0.5,2.6c-2,4.9-1.5,12,3.1,14.6c2.5,1.5,5.7-1,8-2.8c5.9-4.4,11.9-8.8,17.8-13.2c5.1-3.8,8.9-7.9,12.1-13.3
	c0.5-0.8-0.8-3.8,0.1-4.1c2.2-0.6,3.8,2.7,6,2.1c2.2-0.6,4-2.3,5.7-3.8c6.4-6,12.9-12,19.3-18c1.6-1.4,3.2-3.1,3.3-5.2
	c0.1-1.7-0.9-3.3-1.7-4.9c-1.8-3.9-1.9-8.4-2-12.7c-0.1-4.6-0.2-9.2-0.2-13.8c0-2.7-0.1-5.5-1.2-8c-0.8-1.9-2.2-3.6-2.9-5.6
	c-1.5-4.4,0.7-9,2.2-13.3c0.8-2.2,1.4-4.4,2.1-6.7c0.3-1.2,0.7-2.4,1-3.6c1-3.6,2.1-7.7,0.4-11.1c-1.4-2.9-4.6-5.5-3.6-8.5"/>
<path fill="none" stroke="#E1E1E1" stroke-miterlimit="10" d="M132.3,78.3c0.5-6.5,0.5-13,0.2-19.4c0-0.8-0.1-1.6-0.5-2.3
	c-0.6-1.1-2-1.6-3.2-1.6c-1.3,0-2.4,0.6-3.5,1.2c-4.9,2.9-8.4,7.7-10.4,13.1c-2,5.3-2.5,11.1-2.5,16.7c0,1.6,0.1,3.3,0.9,4.6
	c0.8,1.4,2.5,2.4,4,1.8c1.8-0.7,2.2-3,3.6-4.4c2.3-2.2,6.3-1.1,8.8-3C131.8,83.5,132.1,80.7,132.3,78.3z"/>
<path fill="none" stroke="#E1E1E1" stroke-miterlimit="10" d="M111.5,100.4c-0.4,0-1,0.1-1,0.5c0,0.8,1.4,1.1,2.2,0.9
	c0.8-0.2,1.3-1.3,0.7-1.9c-0.6-0.6-1.7-0.2-2.3,0.4"/>
<path fill="none" stroke="#E1E1E1" stroke-miterlimit="10" d="M137.5,84.5c-0.8-0.5-1.9-0.4-2.8,0.1s-1.5,1.2-2.1,1.9
	c-0.3,0.3-0.5,0.8-0.3,1.1c0.2,0.3,0.6,0.2,0.9,0.1c1.4-0.4,2.8-1,4.1-1.7c0.3-0.2,0.6-0.4,0.6-0.8
	C138.1,84.9,137.8,84.7,137.5,84.5z"/>
<path fill="none" stroke="#E1E1E1" stroke-miterlimit="10" d="M295.1,25.6c-4,1.4-5.5,6.6-9.2,8.6c-2.1,1.1-4.3,2-6.2,3.4
	c-2.2,1.6-3.8,3.9-5.4,6.2c-2.4,3.5-4.9,7.3-4.8,11.6c0,1.1,0.2,2.3-0.2,3.3c-0.2,0.6-0.7,1.1-0.9,1.8c-0.9,2.1,1,4.6,3.2,5.1
	c2.2,0.5,4.6-0.6,6.3-2.1s3.1-3.4,4.8-4.9c1.5-1.4,3.3-2.6,4.8-4c3.5-3.3,5.7-7.7,8.7-11.5c1.5-1.9,3.3-3.7,4.2-6
	C302,32.7,299.5,24.1,295.1,25.6z"/>
<path fill="none" stroke="#E1E1E1" stroke-miterlimit="10" d="M329.1-0.4c1-0.4,1.8-1,2.5-1.8c0.7-0.8,1.3-1.9,1.1-3
	c-0.2-1.3-1.4-2.2-2.7-2.5c-1.3-0.3-2.6,0.1-3.9,0.5c-1,0.3-2.1,0.8-2.3,1.9c-0.2,0.9,0.4,1.8,0.1,2.6c-0.2,0.4-0.6,0.7-0.9,0.9
	c-1.7,1.4-3.2,4.8-1.3,6c1.8,1.2,4.4-1.1,5.5-3c0.2-0.3,0.3-0.5,0.5-0.8C328.1-0.1,328.6-0.2,329.1-0.4z"/>
<path fill="none" stroke="#E1E1E1" stroke-miterlimit="10" d="M341.2-15.7c-2.4,5.4-4.8,11-8.8,15.3c-0.7,0.8-1.6,1.8-1.2,2.8
	c0.4,1.4,2.5,0.3,3.9,0.9c1.7,0.7,0.6,3.8-0.5,5.2c-0.5,0.6-1.1,1.1-1,1.9c0.2,1.5,3.5,2.1,2.5,3.3c-2.4,3-6.3,4.7-8.3,8
	c-0.5,0.9-1,1.8-1.5,2.7c-2.1,4.2-3.8,8.6-4.4,13.2c-0.4,2.9,0.6,8.9,3.1,7.4c2-1.2,1.3-4.5,1.9-6.8c0.2-0.7,0.7-1.5,1.3-1.3
	c0.5,0.1,0.6,0.8,0.9,1.2c0.7,0.9,2.1,0.4,3.1-0.1c2.2-1.1,3.7-2.9,4.3-5.3c0.4-1.7,1.6-3,2.7-4.4c1-1.4,3.5-3.2,4.4-1.7
	c1.3,2.1-1.7,4.6-2.1,7.1c-0.5,2.8-1,7,1.5,8.1c1,0.5,2.2,0.9,2,2c-0.2,1.1-1.1,2-2.1,2.5c-1,0.5-2.1,0.9-3,1.6
	c-1.1,0.9-1.7,2.2-2.7,3.2c-1.9,2-4.9,2.7-6.6,4.8c-1.2,1.5-1.9,3.7-3.8,4.1c-0.6,0.1-1.1,0-1.7,0.1c-2.4,0.4-3.2,3.5-3.4,6
	c-0.2,2.5-0.4,5-0.6,7.5c-0.1,0.9-0.2,1.9-0.7,2.6c-0.6,0.9-1.7,1.2-2.5,1.9c-1.7,1.5-1.5,4.7,0.4,6c0.8,0.5,1.7,0.7,2.6,1.1
	c2.4,0.9,3.3,3.8,5.5,5.2c3.9,2.5,10.1,0.9,14.7,0.9c1.1,0,2.3,0,3.2,0.5c1.8,1,2.1,3.4,3,5.3c0.9,1.9,2.7,1.6,4.8,1.7
	c3.5,0.2,1.6,10.9,1.8,16.7c0,0.9-0.4,1.8-0.3,2.7c0.1,1.2,0.7,2.2,1.3,3.3c1.8,3.8,2.3,8.1,1.8,12.2c-0.2,1.5-0.5,3.2,0,4.6
	c0.3,0.7,0.7,1.3,1,2c0.3,0.9,0.3,1.8,0.2,2.8c-0.1,2.9-0.3,5.9-0.4,8.8c-0.2,4.8-0.5,9.8-3.1,13.8c-2.4,3.8-6.7,6.4-8.7,10.5
	c-0.7,1.5-1.1,3.1-1.8,4.5c-2.3,5-7.8,7.6-12.4,10.6c-10.3,6.6-17.8,16.7-25,26.6c-1.4,1.9-2.9,4-3,6.4c0,0.9,0.1,1.9-0.1,2.8
	c-0.2,0.8-0.6,1.5-1,2.2c-6.6,10.8-10.4,23.9-19.7,32.4c-3.7,3.4-8.9,5.6-13,8.5c-8.8,6.4-18.7,11.3-29.1,14.3
	c-4.9,1.5-9.1,7.9-13.9,6.2c-1.5-0.5,1.4-3.1,1.2-4.7c-0.2-1.9-2.7-2.8-4.5-2.1c-1.8,0.7-3,2.4-4.2,3.9c-3.4,4.3-7.5,7.9-12.3,10.7
	c-2.3,1.3-4.9,2.7-5.8,5.2c-0.4,1.2-0.5,2.6-1.5,3.3c-0.9,0.6-2.4,0.4-3,1.3c-1.1,1.4,1.1,3.4,0.6,5.1c-0.2,0.8-1,1.3-1.3,2
	c-0.7,1.5,0.3,3.2,0.3,4.9c0,2.4-2.2,4.1-4.2,5.4c-5,3.3-9.9,6.6-14.9,9.8c-4.3,2.8-8.6,5.7-13,8.5c-3.8,2.4-7.8,4.8-12.1,6.1
	c-2.5,0.7-5,1.1-7.4,2c-7.5,2.8-12.1,10.1-16.2,17"/>
<path fill="none" stroke="#E1E1E1" stroke-miterlimit="10" d="M349.2-5.8c-0.3,1.4-2,2.3-1.7,3.7c0.2,0.9,1.2,1.5,1.6,2.4
	c0.3,0.8,0,1.6,0.1,2.4c0,0.8,0.7,1.7,1.5,1.5c0.1-0.1,0.3-0.2,0.4-0.3c1-0.8,1.8-2,2.2-3.3c0.1-0.2,0.1-0.5,0.3-0.7
	c0.3-0.5,0.9-0.6,1.4-0.9c1.2-0.9,1.2-2.7,1.1-4.2c-0.1-0.8-0.2-1.6-0.6-2.2c-0.7-1-2-1.2-3.1-1.4c-1-0.2-2.3-0.2-2.8,0.7
	C349-7.5,349.4-6.6,349.2-5.8z"/>
<path fill="none" stroke="#E1E1E1" stroke-miterlimit="10" d="M372,60.1c-1.3,0.1-2.6,0.2-3.9,0.4c-0.6,0.1-1.3,0.1-1.7,0.6
	c-0.3,0.4-0.4,0.9-0.6,1.4c-0.5,1.5-2.1,2.3-3.6,2.8c-1.5,0.4-3.1,0.5-4.6,1.2c-1.8,0.8-3.2,2.4-4.5,4c-1.8,2.1-3.7,4.8-2.9,7.4
	c0.7,2.1,2.9,3.3,4.4,4.9c2.1,2.2,3,5.4,2.4,8.4c-0.2,0.8-0.4,1.6-0.1,2.3c0.3,0.7,1,1,1.7,1.3c1.9,1,3.8,2.5,4.6,4.5
	c1.4,3.4-1.5,9.5,2,10.8c1.6,0.6,3.5-0.4,5,0.3s2.6,3,1.5,4.3c-0.8,0.9-2.1,1.1-3.2,1.6s-2.2,1.4-2.2,2.6c0.1,1.4,1.6,2.2,2.9,2.7
	c1,0.4,2.7,0.5,2.7-0.6"/>
<path fill="none" stroke="#E1E1E1" stroke-miterlimit="10" d="M-9.2,313.1c2.5-4.1,5.2-8.3,9.4-10.6c2.5-1.4,5.5-1.9,8.3-2.4
	c3.5-0.6,7.4-1.1,10.4,0.9c1.1,0.7,2,1.7,2.8,2.7c3,3.3,6.5,6.1,10.3,8.5c0.3,0.2,0.6,0.4,1,0.3c0.4-0.1,0.6-0.5,0.7-0.9
	c0.8-2.8-1-5.6-2.9-7.8c-1.9-2.2-4-4.6-4-7.5c0.1-4.5,5.2-7,8.2-10.4c2-2.3,3.1-5.3,3.1-8.4c0-3.7-1.7-7.3-1.8-11.1
	c0-1.1,0.1-2.1-0.2-3.1c-0.5-1.7-2.9-4.1-1.3-4.8c2.3-1,4.7-1.1,7.1-1.9c1.8-0.7,4.3,0.8,5.7-0.5c1.8-1.6,1.9-4.4,4-5.6
	c2.1-1.2,4.5-2.3,5.7-4.4c1.5-2.8,0.5-9.3,3.6-8.6c1.9,0.4,2.7,2.9,4.5,3.8c4.3,2.3,9.5,2,14.3,1.5c2.8-0.3,6.1-0.9,7.3-3.4
	c0.7-1.4,0.4-3.1,0.3-4.7c-0.4-3.9-0.2-7.8,0.6-11.6c1.2-6.3-1.1-12.1-2.8-18.3c-0.2-0.8-0.5-1.6-0.4-2.5c0.1-1.2,1-2.2,1.4-3.3
	c0.5-1.2,0.6-2.5,0.9-3.8c1.3-5.5,5.6-9.7,9.6-13.6c1-0.9,2.2-1.9,3.5-1.8c0.9,0.1,1.6,0.7,2.5,0.8c1.6,0.2,2.9-1.5,3.4-3.1
	c0.5-1.6,0.5-3.4,1.4-4.7c1.3-2,4.4-3.2,4.3-5.6c-0.1-1.1-0.8-2-0.9-3c-0.2-1.8,1.4-3.3,2.9-4.4c12.4-9.1,26.3-16.2,41-20.9
	c3.5-1.1,7.7-2.8,8.4-6.4c0.5-2.4-0.9-5-0.2-7.3c1-3.7,5.7-4.7,9.4-5.3c5.6-1,11-3,16-5.8c2.2-1.2,4.5-2.7,7.1-2.5
	c0.8,0.1,1.6,0.3,2.4,0.3c1.7,0.1,2.6-3,4.3-2.4c1.8,0.6,0.2,3.7,1.8,4.8c2.2,1.4,5.7,2.2,8.2,2.8c7.2,1.7,15.9-0.2,23.2-1.6
	c7-1.4,13.4-7.6,13-2.6c-0.3,4.1-0.8,5.2,4.7,6.6c2.3,0.6,0.3,4.9,2.5,5.6s3.5-1.7,5.3-3.2c3-2.4,8.1-2.8,9.6-6.4c0.8-1.9,1-4,2-5.8
	c2.4-4.6,8.1-6.6,10.6-11.2c0.4-0.7,1.5-0.5,2.2-0.1c0.7,0.4,1.2,1,2,1.4c2.5,1.1,7.2-2.3,7.8,0.3c0.4,1.9,1.2,3.8,3.1,4.1
	s3.9-0.2,5.9-0.2c2.7,0,5.4,1.1,8,0.5c2.7-0.6,7.2-4.3,8-1.6c1,3.4,3.4,5.4,6.3,7.3c1.2,0.8-1.1,2.7-0.2,3.8c0.4,0.5,1,0.9,1.6,1.2
	c2.7,1.6,6.2,2.3,6.8,5.5c0.8,3.9-3.5,6.4-2.4,10.3c0.3,1,0.8,2,1.1,3c0.5,1.5,0.5,3.2,0.5,4.8c0,2.6,0.1,5.2-0.7,7.6
	c-1.1,3.4-3.7,6.1-6.3,8.7c-2.4,2.4-4.8,4.9-7.2,7.3c-1.8,1.8-3.6,3.6-5.5,5.2c-1.8,1.5-3.8,2.8-5.7,4c-1.2,0.8-2.5,1.6-3.9,1.8
	c-1.1,0.1-2.3-0.1-3.3,0.3c-1.4,0.6-2,2.3-3.1,3.4c-0.9,0.9-2.2,1.4-3.3,2.1s-0.6,2.3-1.4,3.3c0,0-0.8,0.1-0.8,0.1
	c-2.1-0.5-4.2,0.4-6,1.6c-1.8,1.2-3.4,2.7-5.3,3.6c-0.8,0.4-1.6,0.7-2.3,1.1c-2.9,1.6-6,5.9-4.3,8.8c1.1,1.9,5.5-0.9,6.3,1.2
	c1.2,3.2-2,6.2-3.2,9.3c-0.9,2.4-3.1,4-5.2,5.4c-2.8,2-5.6,3.9-8.4,5.9c-1.9,1.3-3.8,2.7-5.9,3.6c-1.3,0.6-3,0.7-4,1.7
	c-7.2,7.5-0.2,8.1-2.2,12.4c-1.3,2.8-4.9,3.6-7.3,5.5c-2,1.6-4.5,2.5-7,2.7c-8.9,0.5-19.8,8.2-22.6,5c-2-2.4-1-6.5-3.9-7.8
	c-2.8-1.3-5.4,1.9-8.5,1.9c-2,0-3.8-1-5.2,0.3s-2,3.4-3,5.1c-2,3.7-5.5,6.4-8.1,9.7c-2.6,3.3-5.8,10.6-1.7,11.7
	c2.7,0.7,5.1-4.5,7.7-3.5c5.2,2-9.6,21.5-17.3,30.5c-2.7,3.2-5.5,6.3-8.2,9.5c-3.5,4-7,8-10.9,11.6c-7.5,6.7-16.6,11.5-26,15.1
	c-3.5,1.3-7,2.5-10,4.7c-3,2.2-6.2,5.9-5,9.4c0.3,0.9,2.1,1.6,1.5,2.3c-1.8,2.2-4.5,2.6-6.5,4.7c-2.3,2.6-6,3.2-9,5
	c-3,1.8-5.3,6-2.9,8.5"/>
<path fill="none" stroke="#E1E1E1" stroke-miterlimit="10" d="M222.5,242.8c-0.1-0.5-0.5-0.8-1-1c-1.2-0.5-3-1-3.8,0
	c-0.7,0.8,0.4,2.2,1.4,2.7c1,0.5,2.2,0.2,3-0.6C222.3,243.6,222.5,243.2,222.5,242.8z"/>
<path fill="none" stroke="#E1E1E1" stroke-miterlimit="10" d="M154.6,266.7c-1.1-0.1-1.8,1.1-2.1,2.1c-0.3,1.1-1.2,2.6-0.4,3.4
	c1.2,1.2,2.7-1.8,3.4-3.3c0.1-0.3,0.2-0.6,0.3-0.9C155.8,267.4,155.3,266.7,154.6,266.7z"/>
<path fill="none" stroke="#E1E1E1" stroke-miterlimit="10" d="M197.1,216.5c0.2,0.2,0.4,0.3,0.6,0.3c1,0.3,1.6-0.3,1.4-1.6
	c-0.1-0.6-0.6-1.4-1.3-1.3C196.9,214.1,196.5,215.8,197.1,216.5z"/>
<path fill="none" stroke="#E1E1E1" stroke-miterlimit="10" d="M230.6,207.9c-0.4-0.6-0.8-1.2-0.7-1.9c0.2-1.3,1.8-1.7,3.1-1.5
	c1.5,0.2,2.9,1,4,2c0.2,0.2,0.4,0.4,0.6,0.4c0.9,0,0.4-1.8,1.1-2.2c0.2-0.1,0.4-0.1,0.6-0.1c1.1,0.1,2,1,2.2,2.1
	c0.2,1-0.4,2.2-1.3,2.7c-1.1,0.6-2.4,0.3-3.6,0.4c-1.4,0.1-2.8,0.6-4,0.1C231.8,209.5,231.2,208.7,230.6,207.9z"/>
<path fill="none" stroke="#E1E1E1" stroke-miterlimit="10" d="M249.6,176.3c0.2-0.8,0.2-1.7,0-2.5c-0.4-1.7-1.8-3.2-3.5-3.3
	c-1.7,0-2.1,1.8-2.3,3.5c-0.2,2.4-4.2,2-6.6,1.7c-0.6-0.1-1.2-0.2-1.7,0.1c-0.6,0.3-0.9,0.9-1.3,1.3c-1.6,2-4.7,2.2-6.6,3.9
	c-2.3,2.1-2.1,5.7-1.7,8.7c0.1,1.3,0.3,2.6,0.8,3.8c0.5,1.3,1.3,2.4,2.3,3.3c1.1,0.9,2.5,1.5,3.9,1.7c4.3,0.6,8.3-2.4,11.3-5.6
	c2-2.1,3.9-4.5,4.3-7.4c0.3-2.3-0.4-4.7,0.1-6.9C249,178,249.4,177.2,249.6,176.3z"/>
<path fill="none" stroke="#E1E1E1" stroke-miterlimit="10" d="M-11.7,333.3c2.3,0.9,4.5,1.8,6.8,2.7c1.4,0.6,2.8,1.1,4.3,1.1
	c3.5-0.1,7-3.4,10-1.5c1.9,1.2,2.2,3.8,1.9,6s-0.8,4.5,0.1,6.5c0.2,0.4,0.4,0.7,0.7,0.9c0.7,0.3,1.4-0.2,2-0.6
	c6.9-5.4,12.5-11.9,17.6-19c4.8-6.5,9.2-13.5,12.8-20.8c0.8-1.6,1.6-3.2,2.4-4.8c0.7-1.4,1.4-2.9,2.7-3.8c0.8-0.6,1.8-0.9,2.7-1.3
	c1.9-0.8,3.7-2,5.4-3.1c10.4-7,20.8-13.9,31.1-20.9c2.1-1.4,4.3-2.9,5.9-4.9c3.4-4.2,6.2-8.4,9.9-12.3c1.2-1.3-2.3-2.5-2.9-4.2
	c-0.4-1.3,0.6-2.5,0.7-3.8c0.1-1.5-1.1-2.8-1.8-4.2c-0.6-1.4-0.7-3-0.8-4.6c-0.2-5.3-0.4-10.6-0.6-15.9c-0.1-2.6-0.1-5.4,1.4-7.4
	c1.6-2.1,0.9-5.7,1.3-8.3c0.8-5,1.6-10.1,4.3-14.4c4-6.2,11.4-9.6,14.9-16.1c1.1-2.1,1.8-4.4,3-6.5c3.3-6,11-9.3,17.7-7.7
	c1.2,0.3,2.4,0.8,3.6,1c4,0.7,8.4-1.6,10.1-5.2c0.6-1.3,1-2.8,1.6-4.1c3-6.6,11.7-8.4,19-7.6c1.7,0.2,3.6,0.5,5.2-0.3
	c1.7-0.8,2.6-2.5,3.4-4.2c1.6-3,3.1-6,4.7-9c0.6-1.2,1.3-2.5,1.3-3.8c0-0.8-0.2-1.6,0-2.4c0.4-1.2,3.8-1.4,7.3-2.7
	c2.1-0.8,0.7,2.7,5.5,3.1c6.2,0.6,13.7-3.3,17-1c0.7,0.5-0.7,2.5,0.1,2.8c15.5,6.4,19.4-2.9,20.2-0.7c0.8,2.1,0,5.4,3.3,6.9
	c2.5,1.1,5,2.7,7.7,2.4c5.9-0.5,10.6-5.4,14.5-9.8c1.5-1.7,2.9-3.6,4.7-5.1c3.1-2.7,7.2-3.9,11.1-5c3.7-1.1,7.4-2.2,11.1-3.3
	c3-0.9,7.8-3.8,9.2-1c1.4,2.7-2.3,5.2-3.6,8c-1.3,2.8-0.9,4.9,1.2,7.2c0.5,0.5-1.5,1.6-1,2.6c0.6,1,1.8,2.2,1,3
	c-0.8,0.9-2.4,0-3.3-0.9s-1.6-2-2.7-2.4c-2.3-0.8-4.4,1.7-5,4c-0.6,2.3-0.4,5-1.7,7c-1.6,2.4-4.9,3.2-6.3,5.7
	c-0.5,0.9-0.8,1.9-1.3,2.8c-1.6,2.5-5.1,2.8-8,3.5c-2.8,0.6-5.5,1.9-7.7,3.7c-4.9,3.8-7.7,9.7-10.3,15.3c-1.6,3.4-2.4,6.6-2.9,10.3
	c-0.1,0.8-0.2,2.6,0.2,3.2c1.4,2.3,7.2-0.5,6.3,2c-0.7,2.1-5.5,2.6-4.6,4.7c0.4,0.9,2.3,0.1,2.9,0.9c1.9,3.1-3.3,6.7-6.8,7.9
	c-0.7,0.2-1.4,0.4-1.9,0.8c-0.6,0.5-0.7,1.2-1.2,1.8c-4,5.3-10.2,15-13.6,12.8c-2.2-1.4-2.9-4.5-5.4-5.1s-5.2,0-7.6,1
	c-2,0.9-4.9,1.7-5.8-0.2c-0.3-0.6-0.2-1.3-0.2-1.9c0.1-1.3,0.2-2.7,0.2-4c0.1-1.1,0.1-2.2-0.3-3.1c-1-2.3-4.8-2.4-6-0.2
	c-0.8,1.4-0.5,3.5-1.8,4.5c-0.5,0.4-1.1,0.5-1.7,0.7c-2.6,1-2.7,4.2-3.2,7c-0.3,1.5-2.9,1-4.2,0.2c-1.3-0.8-2.2-2.1-3.3-3.1
	c-3.2-2.8-7.9-2.9-12.2-2.9c-3.5,0-6.2,1.9-9.1,3.9c-1.6,1.1-4.1,0.2-6.1,0.2c-0.5,0-1.1,0-1.4,0.4c-0.2,0.3-0.2,0.6-0.2,1
	c0,1.8-0.8,3.7-0.1,5.3c2.3,5.1,7.8,8,10.3,13.1c0.3,0.7,0.7,1.4,1.3,1.8c1.1,0.6,3.5,0.3,3.2,1.5c-0.9,5.2-0.5,11.2-4.1,15
	c-1.2,1.2-3.3,2.7-4.7,1.7c-1-0.7-1.3-2.2-2.5-1.8c-1.2,0.4-1.9,1.5-2.6,2.6c-1.7,2.9-3.5,5.7-5.2,8.6c-1.3,2.1-2.9,6.6-0.4,6.8
	c2,0.1,4.1-0.2,5.3,1.4s1.4,3.7,1.3,5.7c-0.3,3.4-1.8,6.6-3.5,9.6c-7,12.3-17.8,21.9-28.5,31.3c-1.4,1.3-2.9,2.5-4.3,3.8
	c-5.1,4.5-10.2,8.9-15.3,13.4c-2.5,2.2-2.9,6.4-5.9,7.9c-2,1-4.2,0.6-5.9,2.1c-4,3.6-8.1,7.1-12.1,10.7c-1,0.9-2,1.7-3.2,2.2
	c-0.9,0.3-1.9,0.4-2.8,0.8c-3.1,1.2-4.3,4.8-5.2,8"/>
<path fill="none" stroke="#E1E1E1" stroke-miterlimit="10" d="M137.4,200.9c-0.1,1,0.6,2,0.5,3c0,0.6-0.4,1.2-0.6,1.8
	c-0.9,1.9-1.2,4-1.1,6c0.1,0.7,0.2,1.5,0.8,1.9c0.8,0.5,1.8,0,2.5-0.6s1.4-1.3,2.4-1.3c0.8,0,1.5,0.5,2.2,0.8c1,0.4,2.1,0.2,3-0.4
	c0.8-0.6,0.2-2.1,1-2.8c1-0.8,2.5,2.8,3.4,1.9c0.9-0.9,0.5-2.4,1.2-3.5c1-1.6,1.2-3.6,1.2-5.5c0-0.4,0-0.8-0.2-1.2
	c-0.2-0.4-0.5-0.8-0.9-1.1c-0.6-0.6-1.2-1.2-1.8-1.8c-1-0.9-2-1.9-3.2-2.5c-1.2-0.6-2.8-0.6-3.9,0.2c-0.3,0.2-0.6,0.5-0.9,0.8
	c-0.9,0.8-2.2,1.1-3.3,1.6C138.6,198.8,137.5,199.7,137.4,200.9z"/>
<path fill="none" stroke="#E1E1E1" stroke-miterlimit="10" d="M-2.2,366.7c10.1-5.9,17.8-15.1,25.2-24.1c3.5-4.2,6.9-8.4,10.4-12.6
	c3.7-4.5,7.5-9.1,10.5-14.2c1.5-2.6,2.8-5.4,4.6-7.8c6.4-8.8,17.7-12.3,26.6-18.6c3-2.1,5.7-4.5,8.6-6.6c8.1-5.9,17.8-9.5,25.1-16.5
	c0.8-0.8,1.7-1.7,2.7-2.1c2.2-1,5.4-1,7,0.9c0.8,1-0.3,3.1,0.8,3.7c1.8,0.9,4.4-3,5.9-1.5c2.4,2.4,0,7.3-2.1,10
	c-2.3,3-6.2,4.5-9.2,6.8c-3.4,2.5-9.5,5.9-7.7,9.7c1.4,2.9,4.5,6,7.5,5.1c1.2-0.3,2-1.5,3.2-2c3.5-1.5,7.7,0.7,10.4,3.3
	c3.3,3.2,0.2,9.6-2.3,13.5c-2.9,4.3-8.6,6.3-10.8,11c-0.5,1-0.8,2.1-1.4,3.1c-0.8,1.5-2.1,2.6-3.4,3.7c-3.1,2.6-6.1,5.3-9.2,7.9
	c-2.5,2.2-5.1,4.4-8,6c-1.8,1-3.8,1.8-5.4,3.2s-0.7,3.8-1.7,5.6c-3.4,6.3-13.3,6.2-15.9,12.8"/>
<path fill="none" stroke="#E1E1E1" stroke-miterlimit="10" d="M11.7,367.4c2.1-0.6,3.5-2.7,4.3-4.8c0.8-2.1,1.1-4.3,2.1-6.3
	c1.7-3.4,5.1-5.6,7.9-8.2c7.7-6.8,12.3-16.7,20.6-22.7c1-0.7,2.1-1.4,2.7-2.5c0.3-0.5,0.5-1.2,0.8-1.7c0.5-0.9,1.1-1.7,1.8-2.4
	c3.2-3.6,6.4-7.3,10-10.5c1.2-1.1,2.6-2.2,4.3-2.1s1,2,1.9,3.4c0.7,1.1,2.6-1.9,3.7-1.2c1.3,1,2.3,2.4,3.8,1.7
	c1.5-0.7,2.3-2.3,3.1-3.8c2.2-3.9,4.7-12,8.8-10.2c0.8,0.4-0.3,2,0.2,2.8c0.6,1.2,2.4-0.7,2.8-2s1.1-2.9,2.4-2.7
	c1.3,0.2,1.5,2.1,0.9,3.3s-2.9,2.4-2.1,3.4c0.7,0.8,1.4,1.3,2.3,1.9c1.4,1,3.9-0.5,4.6,1c0.2,0.4,0.3,0.9,0.6,1.2
	c0.5,0.4,1.2,0.1,1.9,0.1c0.7,0,1.4,0.4,1.9,0.9c2.1,1.9,2.7,5,3.2,7.9c0.2,1,0.3,2,0.5,3c0.1,0.7,0.2,1.4,0.2,2.1
	c0.1,4.7-4.2,8.2-8,10.9c-4.5,3.2-9.1,6.5-13.6,9.7c-1.8,1.3-3.6,2.6-4.8,4.5c-0.8,1.3-1.3,2.8-2.2,4c-2,2.8-5.8,4.2-7.1,7.4
	c-0.3,0.7-0.5,1.5-0.9,2.2c-0.6,0.9-1.6,1.4-2.4,2.1c-3,2.1-4.6,5.9-4.3,9.5"/>
<path fill="none" stroke="#E1E1E1" stroke-miterlimit="10" d="M57.9,322c0.9-1-2.1-2.1-3.2-1.3c-0.6,0.4,0.1,1.5,0.9,1.5
	C56.3,322.3,57.4,322.5,57.9,322z"/>
<path fill="none" stroke="#E1E1E1" stroke-miterlimit="10" d="M94.3,310.1c-0.1-1-1.7-1.4-2.3-0.7c-0.5,0.5-0.1,1.4,0.5,1.7
	c0.6,0.3,1.6,0.6,2,0C94.5,311,94.3,310.4,94.3,310.1z"/>
<path fill="none" stroke="#E1E1E1" stroke-miterlimit="10" d="M146.4,368.1c9.7-5.4,19-11.7,28.2-17.9c3.6-2.5,7.3-4.9,10.9-7.4
	c5-3.4,9.9-6.7,14.9-10.1c8-5.4,16-10.9,22.1-18.3c1-1.2,1.9-2.5,3.3-3.2c1.2-0.6,2.7-0.8,4-1.3c1.2-0.5,2.2-1.5,3.2-2.4
	c11.8-10.6,26.2-18.4,41.6-22.4c0.8-0.2,1.7-0.4,2.2-1.1c0.4-0.6,0.4-1.3,0.7-2c0.4-1.4,1.6-2.4,2.6-3.3
	c6.6-5.6,13.1-11.2,19.7-16.8c4.9-4.2,13.3-10,10.2-15.6c-0.5-0.8-0.3-1.7,0.3-2.4c3.3-3.6,3.6-8.9,5.6-13.3c1.5-3.2,4-6,5.2-9.3
	c0.6-1.6,0.9-3.3,1.9-4.6c0.8-1.1,2-1.9,3.1-2.7c4.2-2.7,8.6-5.3,13-7.6c1.7-0.9,3.4-1.8,4.3-3.5c0.4-0.9,0.6-2,1.4-2.6
	c0.8-0.6,1.9-0.6,2.9-0.8c1.6-0.4,2.9-1.5,4.1-2.7c1.4-1.3,2.7-2.5,4.1-3.8c0.5-0.4,1-0.9,1.2-1.5c0.5-1.1,0.1-2.3,0.3-3.5
	c0.4-2.7,3.6-4.2,4.4-6.9c0.3-1,0.3-2.1,0.4-3.2c0.2-1.2,0.7-2.3,1.4-3.3c0.5-0.6,1-1.2,1.4-1.9c0.4-0.7,0.5-1.6,0.8-2.4
	c1.1-4.3,4.2-7.8,7.2-11.2"/>
<path fill="none" stroke="#E1E1E1" stroke-miterlimit="10" d="M166.6,366.5c3.4-1.8,6.8-3.5,10.2-5.3c4.4-2.3,8.8-4.5,12.7-7.5
	c2.7-2.1,5.3-4.5,8.3-6.1c2.6-1.4,5.4-2.2,8-3.5c2.6-1.4,4.8-3.3,7-5.3c5-4.4,10-8.8,13.9-14.2c1.9-2.7,3.8-5.8,7-6.4
	c0.8-0.1,1.6-0.1,2.4-0.3c2.7-0.6,4.7-2.7,7.3-3.7c6.2-2.4,11.2-7.3,16-11.8c2-1.9,3.7-4.1,5.9-5.7s5.2-0.6,7.7-1.5
	c3.2-1.2,5.6-3.8,9-3.6c3.4,0.2,7.4,0.5,9.8-2c0.6-0.6,1.2-1.3,1.9-1.1c0.4,0.1,0.7,0.4,1,0.7c1.5,1.5,4.3,3.3,5.9,1.9
	c0.8-0.7,0.7-2.2,1.7-2.5c2.2-0.7,4.5,4.3,6,2.5c1.6-1.9,3.6-4.7,2.7-7c-0.8-2.2-2.1-4.6,0-5.5c0.5-0.2,1.1-0.3,1.5-0.8
	c0.3-0.4,0.3-1,0.3-1.6c-0.2-4.8,3.7-8.7,6.6-12.5c3-3.9,5.3-8.4,7.6-12.8c1.5-2.9,3-5.8,4.4-8.7c0.1-0.3,0.3-0.5,0.3-0.9
	c0.1-0.9-0.7-1.6-1.2-2.4c-1.7-2.6-0.1-5.9,1.5-8.6c0.6-1,1.2-2,2.2-2.7c1.1-0.8,2.5-1,3.7-1.5c3.9-1.7,5.7-6.2,9.1-8.7
	c3.4-2.4,8.3-2.9,10.5-6.4c0.4-0.6,0.7-1.4,1.2-1.9c0.6-0.7,1.3-1.1,2-1.6c4.6-3.1,7.6-9,13.1-9.7"/>
<path fill="none" stroke="#E1E1E1" stroke-miterlimit="10" d="M193,366.3c6.2-5.6,15.7-6.3,22-11.8c2.9-2.5,5-6,8.1-8.3
	c1.6-1.2,3.4-2.1,4.6-3.7c1.3-1.7,1.7-4,2.7-5.9c2.8-5.8,9.8-7.8,15.7-10.4c1.2-0.5,2.4-1.1,3.5-1.9c1.1-0.9,2-2,2.9-3.1
	c1.6-2.1,3-4.4,5.1-6c4.3-3.5,10.9-4.1,13.6-8.9c0.8-1.4,1.1-2.9,1.9-4.3c1.7-2.7,5.2-3.9,8.4-3.6c3.2,0.2,6.2,1.6,9.1,3
	c2.2,1,4.9,4.8,6.7,3.1c1.5-1.4,2-3.6,3.9-2.9c1.9,0.7,3.1,2.5,4.4,4.1c1.3,1.6,3.2,3.1,5.2,2.6c1.1-0.3,1.8-1.4,2.9-1.6
	c7.1-1,6.2,3.5,8.5,1.9c1.8-1.3,6.2-2.3,9.9-2.9c2.3-0.3-3.7-3.2-6-3c-1.4,0.1-3.3,0.4-3.9-0.9c-0.6-1.2,0.7-2.4,1.2-3.7
	c0.4-1.3,0-2.8,0.7-3.9c0.4-0.7,1.2-1.1,1.7-1.7c1.3-1.4,1.2-3.4,1.5-5.3c0.4-3,4.2-4.9,4.1-7.9c-0.3-4.2-4.3-7.9-1.9-11.4
	c0.7-1,1.7-1.9,2.3-3c0.9-1.5,1.1-3.3,1.7-4.9c1.5-4.2,5.4-7.2,7.6-11.1c0.9-1.7,1.5-3.5,2.3-5.2c1.2-2.5,2.8-4.8,4.5-7
	c1.7-2.2,3.3-4.5,5-6.7c0.8-1.1,1.6-2.2,2.4-3.2c0.8-1,1.5-2,2.2-3.1c0.9-1.4,1.6-2.9,2.5-4.2c3.5-5,9.6-7.3,15.4-9.3"/>
<path fill="none" stroke="#E1E1E1" stroke-miterlimit="10" d="M370.7,222.2c0.4-0.3-0.5-0.6-0.9-0.2c-1.8,1.6-2.3,4.1-2.9,6.4
	c-1.4,5.4-4,10.5-7.6,14.8c-4.3,5.2-10.1,9.4-12.9,15.6c-0.4,0.8-0.7,1.7-1.2,2.3c-0.5,0.6-1.2,1.1-1.8,1.6
	c-2.7,2.5-2.6,6.7-2.3,10.3c0.2,3.1,0.4,6.1,0.6,9.2c0,0.7,0.1,1.4,0.6,1.8c0.4,0.3,0.9,0.4,1.4,0.4c2,0.1,4-0.6,5.6-1.8
	c0.9-0.7,1.7-1.5,2.7-1.8c1.8-0.6,4,0.3,5.4-1c0.7-0.6,0.9-1.5,1.1-2.3c0.9-3.8,1.1-7.8,0.7-11.6c-0.3-2.8-0.9-5.8,0.6-8.2
	c0.2-0.2,0.3-0.5,0.6-0.6c0.5-0.3,1-0.4,1.6-0.4c4.1-0.3,8-1.9,11.2-4.4"/>
<path fill="none" stroke="#E1E1E1" stroke-miterlimit="10" d="M218.3,366.1c8.1-1.9,15.6-6.1,21.4-12.1c2.2-2.3,2.1-5.6,3.4-8.6
	c1.9-4.2,12.4-3.7,11.2-8.2c-0.2-0.8-2-0.1-2.5-0.8c-1.9-3.4,6.2-5.1,6.9-8.9c0.3-1.7-0.9-3.5,0.5-4.5c2-1.3,4.9,0,7-1
	c1.8-0.9,3.1-3.6,5.1-3.1c0.8,0.2,1.6,1.1,2.4,0.7c0.3-0.1,0.5-0.4,0.7-0.6c1.8-2.4,3.2-5.7,6.2-6c1.1-0.1,2.2,0.3,3.3,0.7
	c1.3,0.5,2.7,1,4,1.6c0.5,0.2,1,0.4,1.6,0.4c0.5,0,1.1-0.2,1.6-0.4c1.9-0.7,3.7-1.6,5.7-1.7c2-0.1,4.2,0.8,4.9,2.7
	c0.2,0.7,0.3,1.4,0.6,2c0.9,1.8,3.6,1.7,5.6,1.2c3.9-0.9,8.8-2,11.5,0.9c0.9,1,0.5,2.7,1.1,3.8c0.2,0.4,1-0.1,1.4,0.2
	c2.7,2.3-4.7,5.6-5.1,9.2c-0.1,1.1,0.2,2.2,0.2,3.3c0,1.2-0.4,2.3-0.7,3.4c-1.3,4-3,8.5-6.9,10c-2.6,1-6.1,0.6-7.8,2.8
	c-0.6,0.8-0.9,1.7-1.6,2.4c-0.8,0.8-2,1.1-3.2,1.3c-7.8,1.8-15.1,6-20.6,11.9"/>
<path fill="none" stroke="#E1E1E1" stroke-miterlimit="10" d="M316.6,367.9c1.8-1.7,3.5-3.4,5.1-5.2c5.4-6,9.9-12.6,14.5-19.3
	c2.8-4.1,5.6-8.1,8.3-12.2c2.7-4,5.6-8.5,5-13.3c-0.1-0.7-0.3-1.5-0.1-2.2c0.1-0.7,0.6-1.3,0.9-1.9c1-1.8,1.3-4,2-5.9
	c0.7-2,2.2-3.9,4.2-4.2c1.1-0.2,2.3,0.1,3.4,0.1c2.7-0.2,4.6-2.6,6.6-4.5s5-3.6,7.2-2.1"/>
<path fill="none" stroke="#E1E1E1" stroke-miterlimit="10" d="M373.2,316.4c-1.6-1.1-4-0.3-5.3,1.1c-1.4,1.4-2.2,3.3-3.3,4.9
	c-1.2,1.6-3.1,2.9-5,2.5c-0.6-0.1-1.2-0.4-1.8-0.1c-0.4,0.2-0.6,0.7-0.7,1.2c-0.9,2.6-1.9,5.1-3.2,7.4c-2.2,4-4.9,7.8-7.6,11.5
	c-5.5,7.5-11,15-16.5,22.5"/>
<path fill="none" stroke="#D6D6D6" stroke-miterlimit="10" d="M52.9,8C51,11.5,50,15.5,47,17.5c-7.1,4.9-15.1,4.9-22,10
	c-8.1,5.9-13,14-20,21c-2,2-4.8,2.2-7,4c-2.1,1.8-5.7,2.6-9,2.9"/>
<path fill="none" stroke="#D6D6D6" stroke-miterlimit="10" d="M338.6,368c1.6-5.8,6-10.8,11.5-13.2c0.9-0.4,1.9-0.7,2.4-1.5
	c1.1-1.5,0.1-3.7,0.6-5.6c0.7-2.6,3.8-3.5,6-5c2.6-1.8,4-4.7,6-7.1s5.1-4.5,8.1-3.4"/>
<path fill="none" stroke="#4E9BD7" stroke-miterlimit="10" d="M126.6,205.3c-2.6,2.1-2.5,5.4-2.6,8.4c-0.1,3.2-0.1,6.4-0.2,9.6
	c0,0.4,0,0.7,0.1,1.1c0.4,1.1,1.9,1.3,3,1.1c1.1-0.1,2.3-0.4,3.4-0.3c1.1,0.1,2.3,0.6,2.8,1.6c0.4,0.8,0.6,1.3,1.3,1.8"/>
<path fill="none" stroke="#4E9BD7" stroke-miterlimit="10" d="M136,232.8c-0.4,0.5-0.8,1-1.2,1.5c-0.4,0.5-0.9,1.2-0.6,1.8
	c0.3,0.6,1.3,0.8,1.5,1.4c0.1,0.5-0.3,1-0.6,1.3c-0.9,0.8-1.9,1.8-1.7,3c0.2,1.3,1.6,1.8,2.8,2.2"/>
<path fill="none" stroke="#4E9BD7" stroke-miterlimit="10" d="M137.6,246.1c-0.2,2.1,0.4,5-0.5,6.8c-0.6,1.1-1.6,1.9-2.6,2.7
	c-5.7,4.7-10.3,10.7-13,17.5"/>
<path fill="none" stroke="#4E9BD7" stroke-miterlimit="10" d="M121.1,274.6c-1,1.8-4.3,3.5-6.7,4.2c-2.3,0.7-3.2,1.4-5.1,0
	c-0.6-0.5-2.8-1.2-3.5-1.3c-0.6-0.1-1.1,0.3-1.6,0.6c-2.1,1.5-3.1,4.4-5.3,5.9c-2.3,1.5-4.5,2.5-5.6,5c-1.2,2.5-0.1,4.8-0.6,7.5
	c-0.5,2.9-3.7,4.5-5.6,6.8c-0.6,0.8-1.3,1.7-1.2,2.7c0.1,0.6,0.4,1.2,0.6,1.8c0.4,1.3,0,2.8-1,3.8c-0.6,0.5-1.3,0.9-1.8,1.4
	c-1.7,1.6-1.7,4.4-3.4,5.9c-0.4,0.3-0.9,0.6-1.3,0.9c-0.8,0.5-1.5,1.3-2.1,2c-4.2,4.8-8.1,9.8-11.9,15"/>
<path fill="none" stroke="#D6D6D6" stroke-miterlimit="10" d="M283.8-14.8c-0.7,0.4-1,1.2-1,2c-0.2,5.7-2.8,12.2-2.3,18
	c0.3,3.7-1.9,5-1.4,7.9c0.3,1.4,1.6,2.2,1.2,3.6c-0.4,1.4-2.1,2.1-3.5,2c-1.5-0.1-2.9-0.7-4.3-0.9c-1.5-0.2-3.2,0-4,1.3
	c-0.3,0.5-0.5,1.1-0.7,1.6c-1.1,2.5-4,3.8-5.6,6c-0.4,0.6-0.7,1.2-1.3,1.6c-0.5,0.3-1,0.3-1.6,0.4c-2.6,0.5-4.6,2.7-6.3,4.8
	c-0.9,1.1-1.8,2.2-2.2,3.5c-0.3,1.1-0.3,2.3-0.3,3.4c-0.1,2.9-0.9,5.8-2.3,8.4c-0.8,1.5-1.9,2.9-3.5,3.3"/>
<path fill="#EAEAEA" stroke="#D6D6D6" stroke-miterlimit="10" d="M259.6,37.9c-0.3-0.4-0.8-0.7-1.4-0.6c-0.5,0.1-1,0.3-1.4,0.7
	c-0.9,0.8-1.5,1.9-2.1,3c-0.4,0.7-0.7,1.4-1.1,2.1c-0.2,0.4-0.4,0.9-0.5,1.3c0,0.7,0.4,1.9,1.1,1.7c1.1-0.4,1.4-2,2.3-2.8
	c0.7-0.7,1.5-1.2,2.1-1.9c0.6-0.7,1.1-1.6,1.2-2.5C259.8,38.5,259.7,38.2,259.6,37.9z"/>
<path fill="none" stroke="#D6D6D6" stroke-miterlimit="10" d="M280.7,6.7c2.1,0.1,4.2-0.2,6.2-0.9c0.6-0.2,1.2-0.5,1.6-1.1
	c0.2-0.4,0.2-0.8,0.3-1.3c0.6-2.3,3.3-3.2,5.6-3.7c2.1-0.4,4.1-0.9,6.2-1.3c2-0.4,4.4-1.2,5-3.2c0.2-0.7,0.2-1.6,0.3-2.3
	c0.4-1.6,1.8-2.8,3.4-2.9c0.9,0,1.9,0.2,2.7,0c0.8-0.2,1.5-0.9,2-1.6c1-1.1,1.9-2.2,2.9-3.4"/>
<path fill="none" stroke="#D6D6D6" stroke-miterlimit="10" d="M245,51c0.3,0.6-2.5,6.3-4.3,9.9c-0.3,0.7-0.7,1.3-1.3,1.8
	c-0.9,0.8-2.2,0.9-3.3,1.5c-3.4,1.9-3.2,7.2-6.2,9.7c-1,0.8-2.2,1.2-3.3,1.9c-2.6,1.5-4.2,4.3-5.5,7c-0.8,1.7-1.4,3.4-2.6,4.8
	c-1.8,2-4.7,3-6.2,5.3c-1.2,1.9-1.2,4.3-1.9,6.4c-1.8,5.9-8.2,9.3-10.3,15.1c-1.8,4.9-0.3,10.7-3,15.2c-0.6,0.9-1.3,1.8-1.7,2.9
	c-0.5,1.4-0.1,3,0.1,4.5c0.3,3.8-0.4,7.5-0.9,11.2c-0.4,3.7-1.8,6.9,1.2,9.1"/>
<path fill="#EAEAEA" stroke="#D6D6D6" stroke-miterlimit="10" d="M252.3,29.1c-0.1,0.6-0.3,1.3-0.6,1.9c-0.4,0.6-0.6,1.2-1.1,1.7
	c-1.8,1.7-3.1,4-3.4,6.5c-0.3,2.5-0.2,5-0.4,7.5c-0.1,1.7-0.6,3.7-2.2,4.5c-1.2,0.6-2.7,0.2-4-0.1c-0.5-0.1-0.6,0.1-0.8-0.4
	c-0.1-0.3,0-0.6,0-0.9c0.2-1.3,0.9-3.6-1.7-3.7c-0.4,0-0.9,0-1.3-0.1c-1.1-0.2-1.4-1.7-1-2.8c0.4-1.1,1.1-2,1.4-3
	c0.1-0.5,0.1-1,0.3-1.4c0.6-1.8,3.1-2.2,4.2-3.8c1.3-1.8,0.3-4.4,0.7-6.6c0.5-2.6,3.2-4.5,5.8-4.1c0.9,0.1,1.8,0.5,2.7,0.7
	c0.9,0.1,1.6-1.2,2.5-0.9C255,24.5,252.6,27.3,252.3,29.1z"/>
<path fill="#7BBCEB" stroke="#4E9BD7" stroke-miterlimit="10" d="M195.4,200.2c0.3-0.9,0.5-1.9,0.8-2.8c0.6-2.3,2.1-4.3,2.6-6.6
	c0.8-3.5,4-4,5.9-5.1c1.7-0.9-1.1-3.2-1-5.1c0-0.7,0.6-2.2,1.1-2.7c1.4-1.5,3.8-0.1,5.8-0.2c3.2-0.2,5-4.3,8.2-4.6
	c0.8-0.1,1.8,0,2.3-0.7c0.2-0.4,0.2-0.8,0.2-1.3c0-1-1-2.6-0.1-2.9c2.1-0.6,4.1-1,5.5-2.8c1.7-2.1,5.3-0.3,7.9-0.9
	c3.7-0.9,5.9-5.5,4.4-9c-1-2.3-3.4-4.4-2.8-6.9c0.6-2.2,3.5-3.6,3.3-5.9c-0.2-1.8-2.4-2.7-4.3-2.6s-3.6,0.9-5.5,0.8
	c-0.8-0.1-1.6-0.3-2.4-0.4c-2-0.3-4,0.3-5.9,0.9c-0.6,0.2-1.2,0.4-1.7,0.8c-0.7,0.6-0.9,1.7-1.5,2.4c-1.3,1.7-3.2,2.2-5.3,2.3
	c-3.8,0.3-8,1-11.3,2.9c-0.5,0.3-0.9,0.6-1.3,1c-0.7,0.8-0.9,1.8-1.4,2.8c-0.6,1.3-1.7,2.4-2.8,3.4c-1.7,1.6-3.6,3.3-5.9,3.9
	c-1.9,0.4-3.8,0.1-5.6-0.5c-3-1-5.9-3.9-8.7-5.3c-2.2-1-4-0.2-6.5,0c-0.5,0-1.2,0.6-1.6,0.9c-0.3,0.2-0.5,0.5-0.7,0.8
	c-0.6,0.6-1.4,0.8-2.2,1c-6,2-8.8,9.3-14.6,12c-0.5,0.2-1,0.4-1.5,0.3c-0.6-0.1-1-0.6-1.6-0.6c-0.6-0.1-1.1,0.2-1.6,0.5
	c-4.2,2.4-8.4,4.9-12.6,7.3c-0.5,0.3-1,0.6-1.4,1.1c-1.3,1.7,0.1,4.4-1.1,6.1c-0.4,0.5-1,0.9-1.5,1.2c-0.9,0.5-1.8,1.1-2.8,1.2
	c-1.3,0.1-2.8-0.6-4,0c-1.3,0.7-1.5,2.5-1.1,3.9c0.4,1.4,1.3,2.7,1.5,4.2c0.1,0.9,0,1.8,0.3,2.6c0.5,1.5,2.3,2.3,2.6,3.9
	c0.2,0.9-0.2,1.9,0.1,2.8c0.6,1.3,2.4,1.5,3.8,1.3c1.6-0.1,3.5-0.7,3.8-2.3c0.1-0.5,0-1,0-1.4c0.3-1.6,2.3-2,3.3-3.2
	c1.2-1.6,0.8-4.4,2.6-5.1c0.8-0.3,1.7,0,2.5-0.2c0.5-0.1,0.9-0.3,1.3-0.5c2.9-1.3,6.7-1.3,9.4,0.4c1.6,0.9,3.5,0.9,5.1,1.8
	c1.4,0.8,3.2,1.4,4.6,2.9c0.3,0.4,0.7,0.8,0.8,1.2c0.1,0.4,0.1,0.7,0.1,1.1c0,2-0.3,4.4,0.1,6.1c0.3,1.4,4.9,1,4.5-0.2
	c-0.2-0.6-1.9-1.1-1.3-1.4c2-0.8,3.4-0.2,5.1-1.9c1.5-1.6,5.7-0.9,7.6-1.2c1.1-0.2,2.3-0.4,3.3-0.9c0.8-0.4,1.5-1.1,2.4-1.2
	c0.8-0.2,1.6,0.1,2.3,0.3c2.6,0.7,5.6,3.6,7.9,2.2C195.3,201.5,195.3,200.6,195.4,200.2z"/>
<path fill="#EAEAEA" stroke="#4E9BD7" stroke-miterlimit="10" d="M135.4,233c0.2,0.1,0.5,0,0.7-0.1c0.6-0.4,1.2-0.9,1.4-1.6
	c0.3-0.9-0.2-1.8-0.7-2.5c-0.1-0.1-0.1-0.2-0.3-0.3c-0.3-0.2-0.7,0.1-1,0.1c-0.2,0.1-0.5,0-0.7,0.1c-0.5,0.1-0.9,0.6-1,1.1
	s0.4,0.9,0.8,1.2c0.4,0.4,0.4,1.1,0.7,1.7C135.3,232.8,135.3,232.9,135.4,233z"/>
<path fill="#EAEAEA" stroke="#D6D6D6" stroke-miterlimit="10" d="M144.8,234.3c0.4-0.2,0.8-0.6,0.8-1c0-0.5-0.6-0.7-1.1-0.9
	c-0.5-0.1-1.2-0.3-1.5,0.1c-0.3,0.3-0.2,0.9,0,1.3s0.2,1.1,0.6,1.3C144,235.3,144.3,234.6,144.8,234.3z"/>
<path fill="#EAEAEA" stroke="#4E9BD7" stroke-miterlimit="10" d="M139.7,241.4c-0.3,0-0.5,0.2-0.7,0.4c-0.6,0.5-1.1,1-1.7,1.5
	c-0.6,0.5-1.3,1.3-1,2.1c0.2,0.6,1,0.8,1.6,0.7s1.1-0.6,1.6-1.1c0.5-0.6,1-1.2,1.2-1.9c0.1-0.4,0.1-0.8,0-1.1
	C140.5,241.6,140.1,241.3,139.7,241.4z"/>
<path fill="#EAEAEA" stroke="#4E9BD7" stroke-miterlimit="10" d="M121.3,274.1c0-0.4,0.3-0.8,0.1-1.1c-0.1-0.1-0.2-0.1-0.4-0.1
	c-0.5,0-1.2,0.1-1.5,0.5c-0.4,0.5,0.7,1,1.3,1.1c0.1,0,0.2,0,0.3-0.1C121.2,274.4,121.3,274.2,121.3,274.1z"/>
<path fill="#EAEAEA" stroke="#D6D6D6" stroke-miterlimit="10" d="M61.6,351.3c-0.8,0-1.6,0-2.1,0.5c-0.2,0.2-0.4,0.5-0.5,0.7
	c-0.4,0.7-0.8,1.4-1.2,2c-0.2,0.3-0.4,0.6-0.4,1c-0.2,0.8,0,1.7,0.6,2.2s1.5,0.7,2.3,0.4c0.6-0.2,1-0.7,1.4-1.2
	c0.7-0.8,1.2-1.8,1.5-2.7c0.2-0.5,0.3-1,0.3-1.5c0-0.5-0.3-1-0.7-1.3C62.4,351.3,62,351.3,61.6,351.3z"/>
<path fill="#EAEAEA" stroke="#4E9BD7" stroke-miterlimit="10" d="M64.7,336.8c-0.3,0-0.5,0.2-0.7,0.4c-1.9,1.8-3,4.2-4.3,6.5
	c-3.3,5.8-11.9,15-10.6,16.9c0.7,1,5.1-4.9,7.1-7.9c2.2-3.3,4.7-6.4,7.3-9.4c0.8-0.9,1.6-1.8,2.1-2.9c0.4-1.1,0.4-2.5-0.4-3.3
	C65.1,336.9,64.9,336.8,64.7,336.8z"/>
<text transform="matrix(1 0 0 1 91.8024 68.6097)"><tspan x="0" y="0" fill="#585858" font-family="'Verdana-Italic'" font-size="8">Nance</tspan><tspan x="5.7" y="9.6" fill="#585858" font-family="'Verdana-Italic'" font-size="8">Peak</tspan></text>
<text transform="matrix(0.8984 -0.4392 0.4392 0.8984 166.9371 187.3042)" fill="#FFFFFF" font-family="'Verdana-Italic'" font-size="8">Edith   Lake</text>
<text transform="matrix(1 0 0 1 121.067 73.943)" fill="#585858" font-family="'Verdana-Italic'" font-size="8">× 8464</text>
<text transform="matrix(1 0 0 1 216.6004 297.943)" fill="#585858" font-family="'Verdana-Italic'" font-size="8">× 7054</text>
<text transform="matrix(1 0 0 1 253.2671 53.4764)" fill="#585858" font-family="'Verdana-Italic'" font-size="8">7174 ×</text>
<text transform="matrix(1 0 0 1 63.9337 232.343)" fill="#585858" font-family="'Verdana-Italic'" font-size="8">× 6790</text>
<path fill="none" d="M253.9,174.5c2.6-5.6,5.4-11.5,10.3-15.3c2.3-1.8,4.9-3,7.7-3.7c2.9-0.7,6.4-0.9,8-3.5"/>
<text transform="matrix(0.5318 -0.8469 0.8469 0.5318 259.3428 169.2479)"><tspan x="0" y="0" fill="#7D7D7D" font-family="'Verdana-Italic'" font-size="7">6</tspan><tspan x="4.1" y="0" fill="#7D7D7D" font-family="'Verdana-Italic'" font-size="7" rotate="8.2">4</tspan><tspan x="8" y="0.5" fill="#7D7D7D" font-family="'Verdana-Italic'" font-size="7" rotate="19.5">0</tspan><tspan x="11.7" y="1.7" fill="#7D7D7D" font-family="'Verdana-Italic'" font-size="7" rotate="32.6">0</tspan></text>
<path fill="none" d="M25.9,348.2c7.7-6.8,12.3-16.7,20.6-22.7"/>
<text transform="matrix(0.6248 -0.7808 0.7808 0.6248 32.8145 344.699)"><tspan x="0" y="0" fill="#7D7D7D" font-family="'Verdana-Italic'" font-size="7">6</tspan><tspan x="4.5" y="0" fill="#7D7D7D" font-family="'Verdana-Italic'" font-size="7" rotate="-1.1">0</tspan><tspan x="8.9" y="-0.1" fill="#7D7D7D" font-family="'Verdana-Italic'" font-size="7" rotate="-0.1">0</tspan><tspan x="13.2" y="-0.1" fill="#7D7D7D" font-family="'Verdana-Italic'" font-size="7" rotate="3.3">0</tspan></text>
<path fill="none" d="M113.9,159.8c12.4-9.1,26.3-16.2,41-20.9"/>
<text transform="matrix(0.8681 -0.4965 0.4965 0.8681 126.8721 154.2708)"><tspan x="0" y="0" fill="#7D7D7D" font-family="'Verdana-Italic'" font-size="7">6</tspan><tspan x="4.4" y="0" fill="#7D7D7D" font-family="'Verdana-Italic'" font-size="7" rotate="1.7">6</tspan><tspan x="8.7" y="0.1" fill="#7D7D7D" font-family="'Verdana-Italic'" font-size="7" rotate="3.5">0</tspan><tspan x="13.1" y="0.4" fill="#7D7D7D" font-family="'Verdana-Italic'" font-size="7" rotate="5.2">0</tspan></text>
<path fill="none" d="M336.2,343.4c2.8-4.1,5.6-8.1,8.3-12.2c2.7-4,5.6-8.5,5-13.3"/>
<text transform="matrix(0.5647 -0.8253 0.8253 0.5647 341.4697 340.1492)"><tspan x="0" y="0" fill="#7D7D7D" font-family="'Verdana-Italic'" font-size="7">7</tspan><tspan x="4.4" y="0" fill="#7D7D7D" font-family="'Verdana-Italic'" font-size="7">6</tspan><tspan x="8.9" y="0" fill="#7D7D7D" font-family="'Verdana-Italic'" font-size="7" rotate="-1.2">0</tspan><tspan x="13.7" y="0" fill="#7D7D7D" font-family="'Verdana-Italic'" font-size="7" rotate="-8.2">0</tspan></text>
<path fill="none" d="M54.9,142.2c5.5-2.7,11.8-2.8,17.9-2.8c4.7,0,9.7-0.8,14-2.8"/>
<text transform="matrix(0.9938 -0.1113 0.1113 0.9938 62.2095 142.5164)"><tspan x="0" y="0" fill="#7D7D7D" font-family="'Verdana-Italic'" font-size="7">8</tspan><tspan x="4.2" y="0" fill="#7D7D7D" font-family="'Verdana-Italic'" font-size="7" rotate="4.4">0</tspan><tspan x="8.6" y="0.4" fill="#7D7D7D" font-family="'Verdana-Italic'" font-size="7" rotate="6">0</tspan><tspan x="13.3" y="0.9" fill="#7D7D7D" font-family="'Verdana-Italic'" font-size="7" rotate="-0.1">0</tspan></text>
<path fill="none" d="M110.5,39.4c8.2-8.5,14.7-18.6,19.1-29.5"/>
<text transform="matrix(0.6299 -0.7767 0.7767 0.6299 116.2549 36.9554)"><tspan x="0" y="0" fill="#7D7D7D" font-family="'Verdana-Italic'" font-size="7">8</tspan><tspan x="4.6" y="0" fill="#7D7D7D" font-family="'Verdana-Italic'" font-size="7" rotate="-2.8">2</tspan><tspan x="9.1" y="-0.2" fill="#7D7D7D" font-family="'Verdana-Italic'" font-size="7" rotate="-5.5">0</tspan><tspan x="13.7" y="-0.7" fill="#7D7D7D" font-family="'Verdana-Italic'" font-size="7" rotate="-8.3">0</tspan></text>
<path fill="none" d="M322,37.6c0.6-4.6,2.3-9,4.4-13.2c0.5-0.9,0.9-1.8,1.5-2.7c2-3.3,5.9-5,8.3-8"/>
<text transform="matrix(0.2774 -0.9608 0.9608 0.2774 324.8359 35.6136)"><tspan x="0" y="0" fill="#7D7D7D" font-family="'Verdana-Italic'" font-size="7">7</tspan><tspan x="4.2" y="0" fill="#7D7D7D" font-family="'Verdana-Italic'" font-size="7" rotate="5.9">0</tspan><tspan x="8.4" y="0.4" fill="#7D7D7D" font-family="'Verdana-Italic'" font-size="7" rotate="10.1">0</tspan><tspan x="12.4" y="0.9" fill="#7D7D7D" font-family="'Verdana-Italic'" font-size="7" rotate="22.4">0</tspan></text>
<path fill="none" d="M322.9,216.8c0.8-1.1,2-1.9,3.1-2.7c4.2-2.7,8.6-5.3,13-7.6c1.7-0.9,3.4-1.8,4.3-3.5"/>
<text transform="matrix(0.8442 -0.5361 0.5361 0.8442 326.8789 216.6239)"><tspan x="0" y="0" fill="#7D7D7D" font-family="'Verdana-Italic'" font-size="7">7</tspan><tspan x="4.4" y="0" fill="#7D7D7D" font-family="'Verdana-Italic'" font-size="7" rotate="1.6">2</tspan><tspan x="8.8" y="0.1" fill="#7D7D7D" font-family="'Verdana-Italic'" font-size="7" rotate="3.2">0</tspan><tspan x="13.1" y="0.4" fill="#7D7D7D" font-family="'Verdana-Italic'" font-size="7" rotate="4.8">0</tspan></text>
<g>
	<g>
		<polyline fill="none" stroke="#7D7D7D" stroke-miterlimit="10" points="85.2,341.6 85.2,348.7 275.4,348.7 275.4,341.7 		"/>
		<line fill="none" stroke="#7D7D7D" stroke-miterlimit="10" x1="180.5" y1="341.4" x2="180.5" y2="348.7"/>
		<line fill="none" stroke="#7D7D7D" stroke-miterlimit="10" x1="161.2" y1="349.2" x2="161.2" y2="343.7"/>
		<line fill="none" stroke="#7D7D7D" stroke-miterlimit="10" x1="142.4" y1="349.2" x2="142.4" y2="343.7"/>
		<line fill="none" stroke="#7D7D7D" stroke-miterlimit="10" x1="123.3" y1="349.2" x2="123.3" y2="343.5"/>
		<line fill="none" stroke="#7D7D7D" stroke-miterlimit="10" x1="104.6" y1="349.2" x2="104.6" y2="343.7"/>
	</g>
	<text transform="matrix(1 0 0 1 83.7835 339.1468)" fill="#7D7D7D" font-family="'Verdana'" font-size="8">0</text>
	<text transform="matrix(1 0 0 1 174.2946 339.1468)" fill="#7D7D7D" font-family="'Verdana'" font-size="8">0.5</text>
	<text transform="matrix(1 0 0 1 258.3415 339.1468)" fill="#7D7D7D" font-family="'Verdana'" font-size="8">1 mi</text>
</g>
</svg>
