<?xml version="1.0" encoding="utf-8"?>
<!-- Generator: Adobe Illustrator 17.1.0, SVG Export Plug-In . SVG Version: 6.00 Build 0)  -->
<!DOCTYPE svg PUBLIC "-//W3C//DTD SVG 1.1//EN" "http://www.w3.org/Graphics/SVG/1.1/DTD/svg11.dtd">
<svg version="1.1" id="Layer_1" xmlns="http://www.w3.org/2000/svg" xmlns:xlink="http://www.w3.org/1999/xlink" x="0px" y="0px"
	 viewBox="0 0 360 360" enable-background="new 0 0 360 360" xml:space="preserve">
<path fill="none" stroke="#E1E1E1" stroke-miterlimit="10" d="M-11.2,319.6c10.9,5.1,21.6,13.1,17.4,22.1c-0.8,1.7-5,0-5.4,1.9
	c-0.5,2,4.1,2.5,4.4,4.6C6,354,1.7,361.3,0.7,367"/>
<path fill="none" stroke="#E1E1E1" stroke-miterlimit="10" d="M-10.3,209.7c0.4,0,0.7-0.1,1.1-0.1c2.7-0.3,5.5-0.6,8.2-0.3
	c10,1,26.7,15,18.3,20.6c-5.5,3.7-12.7-2.3-27.1,2.9"/>
<path fill="none" stroke="#E1E1E1" stroke-miterlimit="10" d="M132.2,366.9c0.8-0.6,1.6-1.2,2.3-1.8c1-0.8,2.1-1.6,3.4-1.6
	c0.8,0,1.6,0.3,2.4,0.6c0.4,0.2,0.8,0.5,1.2,0.5c0.8,0,0.8-0.7,1.5-1.1c2.5-1.3,5.1-2.5,7.6-3.8c0.4-0.2,0.9-0.4,1.4-0.2
	c0.4,0.2,0.6,0.6,0.8,1c1.1,1.9,3.8,2,5.9,1.6c2.9-0.5,5.1-3,8-3.5c2.5-0.4,5.2,0.3,7.1-1.3c1.6-1.3,3.7-4.1,5.2-2.7
	c0.5,0.5,0.4,1.6,1.1,1.9c2.1,0.8,4.1-3.6,6.2-2.6c2.4,1.2-0.5,5.3-0.8,8c-0.3,2.7,0.4,5.9,2.9,6.9"/>
<path fill="none" stroke="#E1E1E1" stroke-miterlimit="10" d="M113.6,366.3c0.5-0.8,1.1-1.5,2-1.7c0.8-0.1,1.5,0.2,2.3,0.3
	c1.9,0.4,4-0.2,5.7-1.2c1.7-1,3.1-2.4,4.5-3.8c4.2-4.2,8.5-8.3,12.8-12.4c4.2-3.9,7.4-9.3,12.4-12.2c1.7-1,3.6-1.8,5.4-2.6
	c2.6-1.1,5.9,0.8,8-1c2.2-1.8,2.5-4.8,4.8-6.5c0.9-0.7,2.2-0.5,2.8-1.4c0.7-0.9,1.3-2.1,2.4-2.4c0.6-0.2,1.3,0,1.9-0.3
	c1.3-0.6,1.3-2.4,1.8-3.7c0.6-1.6,2.7-1.5,4.2-2.4c0.4-0.2,0.1-1.2,0.5-1.3c1.1-0.2,1.5,1.7,2.6,2c1.1,0.3,1.6-1.1,2.7-1.2
	c1.7-0.1,2.8,0.4,4.3,1.2c3.2,1.7,0.7,7.4,2.6,10.5c0.6,1,1.3,1.9,2.4,2.4c0.9,0.4,2.1,0.3,2.7,1c0.5,0.6,0.5,1.4,0.4,2.2
	c-0.1,2-0.2,4.1-0.3,6.1c-0.1,1.1-0.1,2.2-0.5,3.2c-0.4,1-1.1,1.9-1.6,2.9c-1.2,2.1-2.1,5-0.9,7.2c0.9,1.7,3.6,1,5.4,0.3
	s4.3-2.7,5.5-1.2c0.8,1,1.7,1.6,2.3,2.6c0.5,0.8-0.2,1.9,0.3,2.7c0.5,0.8,1.9,1.5,2.4,0.8c0.9-1.1,0.7-2.7,1.1-4
	c0.1-0.4,0.2-0.8,0.5-1.1c0.3-0.3,0.7-0.4,1.2-0.5c2.7-0.7,6.1-4.1,8-2.1c2.5,2.6-3.4,6.3-4.8,9.6c-1.5,3.3-1.9,7.6,0.7,10.1"/>
<path fill="none" stroke="#E1E1E1" stroke-miterlimit="10" d="M90.5,367c-0.1-1.4-0.1-2.8,0.1-4.3c0.2-1.1,0.4-2.1,0.6-3.1
	c0.4-2.2,0.3-4.4-0.1-6.6c-0.2-1.3-0.6-2.6-0.4-4c0.1-0.7,0.3-1.3,0.5-2c1.7-5.3-3.7-12.7,0.4-16.4c0.7-0.7,1.7-0.8,2-1.7
	c0.3-0.9,0.9-2.1,1.9-2c0.4,0.1,0.7,0.3,1,0.5c2,1.6,4.1,3.1,6.3,4.5c2,1.3,4.2,2.6,6.6,2.8c3,0.3,5.9-1,8.6-2.2
	c1.4-0.6,2.8-1.3,4.3-1.9c0.6-0.3,1.2-0.6,1.7-1c0.5-0.4,0.9-0.9,1.4-1.3c1.6-1.3,3.8-1.1,5.7-1.5c3.9-0.7,7.1-3.3,10.1-5.9
	c4.7-4,11.5-5.4,16.5-8.9c5.4-3.7,10.2-8.2,15.1-12.5c3.7-3.2,7.5-6.2,11.8-8.4c4.3-2.2,9.2-3.5,14-3c0.5,0.1,1.1,0.1,1.5,0.4
	c0.6,0.4,0.9,1,1.3,1.6c1.7,2.8,4.5,4.5,6.7,7c1.4,1.6,1.8,3.7,2.7,5.6c1,2,2,4.1,3.6,5.6c3,2.9,7.6-0.3,11.5,1.2
	c2.4,0.9,3.5,3.6,4.5,5.8c1.2,2.6-0.8,5.9,0.4,8.5c1.2,2.6,4.2,2.9,7,3.4c2.4,0.4,4.5,2.6,6.9,3.2c1.3,0.3,2.9,0.5,3.6,1.7
	c1,1.5-0.2,3.6,0.4,5.3c0.3,0.8,1,1.5,1.6,2.1c2.9,3,4.9,6.9,5.3,11.1c0.1,1,0.2,2.1,0.4,3.1c1.7,6.4,11.2,7.8,13.4,14"/>
<path fill="none" stroke="#E1E1E1" stroke-miterlimit="10" d="M-10.2,260.2c2.2-0.2,4.4-0.8,6.4-2c1.2-0.7,3.1-1.8,5-3
	c4.3-2.6,5.9-7.1,10-10c2.9-2.1,6.7-1.4,10-4c4.6-3.6,12.3-0.6,17-4c7.5-5.4-2.4-13.4-7-19c-1.8-2.2-4.7-4.2-7-7
	c-0.9-1.1-3.1-1.9-4-3c-2.3-2.8-3.7-5.2-6-8c-0.9-1.1-3.6-1.8-3.7-3.1c-0.5-4.9-2.9-10.2-7-13.1s-8.9-5.7-10-10.6
	c-0.5-2.1-0.2-4.2-0.6-6.3c-0.4-2.3-1.7-4.2-3.5-5.7"/>
<path fill="none" stroke="#E1E1E1" stroke-miterlimit="10" d="M44.6,367.3c0.4-5.8,1.6-11.9-0.6-17.3c-1.6-4-7,5.6-11,4.3
	c-2.9-0.9,1.6-5.1,1.2-8.1c-0.5-4.1,1.3-8.2-2-12c-3.7-4.3-6.9-8.2-12-11C9.6,317.4-0.7,312-11,306.2"/>
<path fill="none" stroke="#E1E1E1" stroke-miterlimit="10" d="M-10.4,297.5c3.9,1.9,8.1,3.3,12.1,4.8c19.3,7.4,37.3,18.2,53,31.7
	c2.5,2.2,5,4.4,6.7,7.2c4.1,6.6,3.5,15.1,2.1,22.7c-0.2,0.9-0.3,1.8-0.5,2.7"/>
<path fill="none" stroke="#E1E1E1" stroke-miterlimit="10" d="M-10.5,138c0.6,0.1,1.2,0.2,1.7,0.3c2.1,0.3,4.2,0.8,5.9,2
	c4.2,3.2,3.4,9.8,5.9,14.6c3.5,6.7,12.8,8.5,16.5,15c1.6,2.8,1.9,6,2.5,9.2c3,15.3,13.5,29,27.5,36c3.3,1.6,3.6,7.2,3.9,10.8
	c0.3,3.6,0.1,7.4,1.1,10.9c1.1,3.5,3.4,7.5,1.4,10.6c-1.4,2.1-4.2,2.7-6.6,3.3c-8.8,2.1-16.9,7.2-22.7,14.2c-0.8,1-1.6,2-2.7,2.7
	c-0.7,0.5-1.5,0.8-2.3,1c-10.2,3.5-21.7,6.8-32.3,5.4"/>
<path fill="none" stroke="#E1E1E1" stroke-miterlimit="10" d="M42.7,290.4c-0.4-0.5-0.4-1.1-0.8-1.6c-0.5-0.6-1.5-0.6-2.3-0.6
	c-0.8-0.1-1.8-0.6-1.6-1.4c0-0.2,0.2-0.4,0.3-0.5c0.2-0.1,0.4-0.2,0.6-0.2c1.5-0.3,3-0.3,4.5-0.7c0.9-0.2,1.8-0.7,2.7-1
	c3-1.1,6.3-2.3,9.4-1.6c0.9,0.2,0.6,1.6,0.1,2.3s-1.3,1.3-1.6,2.1c-0.2,0.7,0,1.5-0.2,2.2c-0.1,0.3-0.3,0.6-0.5,0.9
	c-0.6,0.9-1.2,1.9-1.8,2.8c-0.2,0.4-0.5,0.7-0.8,0.9c-1.2,0.7-2.7,0-3.9-0.7c-1-0.6-1.6-1.7-2.7-2.1C43.7,291,43.1,290.8,42.7,290.4
	z"/>
<path fill="none" stroke="#E1E1E1" stroke-miterlimit="10" d="M59.8,279c0.2,0.6,0.8,0.9,1.5,0.9c0.6,0,1.2-0.3,1.7-0.6
	c0.8-0.5,1.6-1.2,2.2-2c0.4-0.5,0.7-1.2,0.4-1.7c-0.4-0.7-1.5-0.6-2.2-0.3c-1.1,0.4-2.2,1-3,1.9C59.9,277.7,59.6,278.4,59.8,279z"/>
<path fill="none" stroke="#E1E1E1" stroke-miterlimit="10" d="M20.5,289.1c0.9,0.5,2,0.1,3.1,0c2.7-0.3,3.5,2.8,5.3,4.8
	c2.9,3,7.1,3.6,10.7,5.7c0.7,0.4,1.7-0.1,2.4,0.3c4.3,2,6.8,6.6,10.2,9.8c0.3,0.3,0.6,0.6,1,0.7c1,0.3,1.9-0.8,2.4-1.8
	c1.1-2,2.2-4,3.2-5.9c0.4-0.7,0.8-1.4,0.9-2.2c0.2-0.8,0.2-1.6,0.3-2.3c0.5-2.3,2.6-3.9,4.5-5.3c3.8-2.7,7.5-5.4,11.3-8
	c2-1.4,4.1-2.9,6.5-3.3c1.8-0.3,3.7-0.1,5.5-0.3c1.8-0.2,5.2-1.1,4.5-2.7c-1.6-3.7-7.4-3-11.1-4.5c-1-0.4-2.1-0.8-3-1.5
	c-1.7-1.4-2.5-3.6-4.2-5c-2-1.5-4.9-1.4-7.3-0.4s-4.2,2.9-6,4.7c-0.9,0.8-1.7,1.7-2.1,2.9c-0.3,1-0.2,2.1-0.9,2.9
	c-0.4,0.5-1,0.7-1.7,0.9c-5.4,1.9-11,3.8-16.8,3.8c-1.9,0-3.8-0.2-5.8-0.1c-3.1,0.1-6,1-9.1,1.2c-3.3,0.2-6.5-0.5-9.8-0.7
	s-8.7-1.3-9.4,1.8c-0.6,2.5,4.4,2.2,6.9,1.9s5.5-0.6,7.1,1.3C19.7,288.2,20,288.8,20.5,289.1z"/>
<path fill="none" stroke="#E1E1E1" stroke-miterlimit="10" d="M-10.4,277.2c8.6,2,17.7,2,26.5,3.9c5,1.1,9-1,14.4-1.7
	c4.9-0.6,9.1-1.8,14-3.1c4.5-1.2,8.5-4,12-7.1c3.6-3.1,6.8-6.5,9.7-10.1c2.3-2.8,4.4-6.1,4.5-9.8c0-1.3-0.2-2.6-0.5-3.8
	c-0.4-2.2-0.8-4.3-1.3-6.5c-1.5-7.7-3-15.5-5.3-23c-0.9-3-1.9-5.9-3.6-8.5c-2.6-3.8-6.5-6.4-10.4-8.8c-3.9-2.3-8-4.5-11.3-7.7
	c-3.3-3.2-5.8-7.6-5.4-12.1c0.1-1.5,0.1-3-0.4-4.5c-2.3-7.8-4.3-16.3-11.4-20.1c-1.7-0.9-3.5-1.6-5-2.7c-7.5-5.6-4.9-18.9-12.3-24.6
	c-3.4-2.6-8-2.9-12.3-3.5c-0.3,0-0.5-0.1-0.8-0.1"/>
<path fill="none" stroke="#E1E1E1" stroke-miterlimit="10" d="M-10,104.7c1.1,1.3,2.3,2.4,3.8,3.2c1.1,0.6,2.4,1.1,3.3,2
	c1.4,1.4,1.7,3.6,2.6,5.4c2.7,5.6,10.5,6.8,14,11.9c2,3,2.2,6.8,3.3,10.2c1.8,5.9,6.4,10.8,12.1,13.1c2.7,1.1,5.6,1.6,8.1,3
	c6.7,3.8,8.3,12.7,12.7,19c4.6,6.5,12.1,10.2,18.8,14.6c6.7,4.3,13.3,10.5,13.9,18.4c0.6,7.8-4.7,15.2-4.4,23c0.1,2.8,1,5.6,0.5,8.3
	c-0.8,4.5-5.1,8-4.8,12.6c0.1,1.8,1.1,3.5,2,5.1c3,5.2,6.2,10.4,10.9,14.1c6,4.8,13.9,6.7,21.5,6.8c7.7,0.1,15.2-1.4,22.7-3
	c3.8-0.8,9-1,10.6-4.6c0.5-1,0.9-1,2-0.8c1.1,0.2,2,1,2.9,1.8c3.1,2.8,6.3,5.7,9.4,8.5c1,0.9,2.2,2.1,2.2,3.5c0,1.3-0.9,2.5-1.9,3.5
	c-2.8,3-5.3,6.5-8.5,9.1c-1.7,1.4-5.3,3.6-7.3,4.5c-13.7,6.8-27.3-2.6-41.3-6.6c-21-6-37,13.7-39,33c-0.1,1-0.6,2.2-2,2
	c-2.2-0.4-4.2-1.7-6-3c-10.3-7.4-18.4-18.7-30.6-22c-0.4-0.1-8.8-6.5-10-6.7c-8.4-1.1-16.6-6.5-21.9-8.8"/>
<path fill="none" stroke="#E1E1E1" stroke-miterlimit="10" d="M138.4,288.8c-1.1,1.1-2.2,2.5-3.8,2.7c-0.9,0.1-1.8-0.1-2.7-0.4
	c-1.5-0.5-3.1-0.9-4.6-1.5c-3.9-1.5-7.5-4-11.6-4.8c-2.3-0.5-6.3,0-6.4-2.4c-0.1-1.6,2.6-1.9,4.3-2c1.6-0.1,3.3,0.3,4.9,0.3
	c2.9,0,5.7-1.1,8.6-1.2c1.6-0.1,3.3,0.2,4.8-0.3c3.7-1.1,5.3-7.2,9.2-6.9c1.6,0.1,3.1,1.5,4.6,2.2c1.7,0.7,3.6,1.8,3.6,3.6
	c0,0.6-0.2,1.2-0.7,1.4c-0.3,0.2-0.7,0.2-1.1,0.3c-1.7,0.3-3.2,1.5-3.8,3.2c-0.1,0.4-0.2,0.8-0.5,1.1c-0.5,0.5-1.3,0.5-2,0.8
	C140.1,285.6,139.4,287.9,138.4,288.8z"/>
<path fill="none" stroke="#E1E1E1" stroke-miterlimit="10" d="M-10,93.2c4.9,2.9,12.1,3.1,15,7.9c3.1,5,3.7,11.6,9.2,13.7
	c3.7,1.4,8.8,2.1,9.5,6c0.2,1.4-0.2,2.7-0.4,4.1c-0.7,7,6.5,11.9,12.8,15.1c6.6,3.4,13.2,6.7,19.7,10.1c2.6,1.3,5.5,3,6.2,5.8
	c0.6,2.2-0.3,4.6,0.6,6.6c0.6,1.5,2,2.5,3.3,3.5c9.7,7.7,22.3,29.8,22.4,30.3c0.8,2.4,1.5,4.8,2.3,7.2c0.3,0.9,0.6,1.9,0.7,2.8
	c0.2,1.8-0.3,3.5-0.6,5.3c-0.5,2.6-1.8,5.8-0.2,8c0.7,1,1.5,1.9,1.7,3.1c0.3,2.1,0.7,4.2,1,6.3c0.7,4.2,1.3,8.6-0.1,12.5
	c-0.9,2.4-2.6,4.6-2.7,7.1c-0.2,3.8,3.1,6.8,6.1,9.2c0.5,0.4,1.1,0.9,1.7,1c0.9,0.2,1.8-0.3,2.7-0.2c1.9,0.2,2.7,2.6,4.5,3.3
	c1,0.5,2.3,0.3,3.3,0c3.2-0.9,6.3-2.7,9.6-2.5c0.7,0.1,1.4,0.2,2.1,0.2c1.6-0.1,2.9-1,4.4-1.5c2.6-0.9,5.5-0.4,8.3-0.2
	c3.4,0.2,8.4,1.8,10.1-1.2c1.2-2.1-1.2-5.1,0.9-6.4c1.7-1,3.3,2,3.5,3.9c0.2,2-0.3,4,0.6,5.8c1,2.1,3.4,3.2,4.2,5.3
	c0.4,1,0.6,2.4,1.6,2.9c0.5,0.2,1,0.1,1.6,0.3c1.1,0.3,1.7,1.4,2.4,2.4c1.7,2.5,4.3,4.1,6.9,5.7c1.7,1.1,3.5,2.1,5.6,2.2
	c0.8,0,1.8-0.1,2.4,0.5c1.1,1,0,2.8-1.1,3.8c-4,3.8-7.9,7.5-12,11.2c-0.8,0.8-1.7,1.6-2.5,2.3c-2.7,2.5-5.1,5.4-8.2,7.4
	c-2,1.4-6.5,3.5-8.8,4.4c-12,4.7-25.7,5.1-38,1.3c-0.6-0.2-1.2-0.4-1.8-0.7c-0.4-0.2-0.7-0.5-1.1-0.7c-2.6-1.6-6-0.7-8.9,0.3
	c-3,1-6.2,2.1-8,4.6c-0.5,0.7-0.9,1.6-1.5,2.3c-1.4,2-3.6,3.2-5.4,4.9c-3.4,3.3-4.8,8.5-3.4,13c1.3,4.4,5,8.1,5.4,12.7
	c0.2,2.1-0.3,4.2-0.7,6.3c-0.2,1.2-0.3,2.4,0.2,3.5c0.3,0.8,0.9,1.4,1.3,2.1c0.4,0.7,0.5,1.6,0.6,2.4c0.3,2.1,0.7,4.2,1,6.3"/>
<path fill="none" stroke="#E1E1E1" stroke-miterlimit="10" d="M-10.3,46.9c4.5-2.9,7.6-5.9,7.7-8.2c0.2-3.7,1.5-10.3,4.3-7.8
	c3,2.7-1.2,9.1,1.7,12c1.3,1.3,3.8,0.1,5.6,0.7c2,0.6,2.1,3.6,1.2,5.5c-0.9,1.8-2.6,3.1-4.1,4.6c-4.2,3.9-9.7,9.4-8,14.8
	c1.2,3.9,5,4.7,6.9,8.4C6.5,79.9,6,86.3,9,88c5.3,3.1,12.7,3.4,12.9,9.6c0,1-0.1,2.1,0.4,2.9c0.5,1,1.6,1.5,2.6,1.9
	c4,1.6,8.4,2,12.2,3.9c3.9,1.9,7.3,5.8,6.5,10c-0.4,2-1.6,3.9-1.5,5.9c0.1,1.4,0.8,2.6,1.6,3.7c4.3,6.3,11.5,10.5,19,11.3
	c2.5,0.3,5.2,0.2,7.5,1.4c1.9,1,3.2,2.8,4.4,4.6c3,4.2,5.9,8.4,8.9,12.6c6.1,8.7,12.4,17.6,15.1,27.9c2.9,11.1,1.5,23.7,7.7,33.4
	c0.8,1.3,1.8,2.5,2.7,3.7c1.2,1.5,2.4,3.1,3.6,4.6c3.5,4.5,7.1,13,12.5,11.2c4.2-1.4,6.4,0.8,10.8,0.4c2.3-0.2,3.1-3.1,5.3-3.5
	c2.4-0.4,5.3,2.1,7.6,1.3c0.9-0.3,1.5-1.1,2.4-1.3c1.7-0.5,3.3,0.8,4.5,2c1.4,1.4,2.8,2.8,3.6,4.6c0.7,1.5,0.9,3.1,1.3,4.6
	c1.2,5.2,3.8,9.9,6.3,14.6c1.8,3.4,4.1,7.1,7.9,7.8c1,0.2,2.1,0.2,3.1,0.3c1.7,0.3,3.3,1.3,5.1,1.6c1.5,0.2,2.9-0.1,4.3-0.5
	c4-1,8.2-1.9,12.1-0.5c2.9,1.1,5.9,3.4,8.6,2.1c1.1-0.5,1.9-1.6,2.8-2.4c1-0.8,2.5-1.5,3.4-0.6c1,1,1.2,2.9,2.6,3.4
	c3.8,1.2,7.5-2.8,11.2-4.6c2.9-1.4,5.9-3.1,8.1-5.5c2.1-2.2,3.6-5,5.1-7.8c0.9-1.7,1.9-3.5,2.8-5.2c0.2-0.4,0.4-0.8,0.5-1.3
	c0-0.6-0.3-1.2-0.5-1.8c-0.8-2.3,0.7-4.8,2.2-6.7c2.5-3.3,5-6.6,8.4-9c3.7-2.6,8.5-2.4,12.7-4c0.9-0.4,1.2-0.2,1.8,0.6
	c0.7,0.7,0.9,1.7,1.3,2.6c2.3,6.1,8.4,9.9,12.4,15c4.5,5.8,2.4,15.7,8.1,20.4c2.2,1.8,3.8,3.7,6.4,4.9c4.1,1.8,8.1,5.6,12.2,3.9
	c2-0.8,2.9-3.5,5-4.1c1.3-0.3,2.7,0.3,3.9-0.3c1.6-0.7,2.4-3,4.1-2.8c0.6,0.1,1.1,0.5,1.7,0.5c0.6,0,1.2-0.3,1.8-0.6
	c3-1.1,6.9,3.8,9.3,1.7c2.3-2,2.4-5.7,4.1-8.2c0.8-1.2,1.7-2.5,2.9-3.2c1.1-0.6,2.3-0.8,3.5-0.6c4.3,0.5,4,6,6.8,9.4
	c0.4,0.5,1,0.5,1.4,0.9c0.3,0.3,1,0.4,1.5,0.3c0.4-0.1,0.8-0.2,1.2-0.2c1.1,0,2,1,2.4,2s0.6,2.2,1.3,3.1c0.5,0.7,1.2,1.1,1.9,1.6
	c3.2,2.1,6.4,4.3,9.6,6.4c0.2,0.1,0.4,0.3,0.4,0.5c0.1,0.2-0.1,0.5-0.3,0.4"/>
<path fill="none" stroke="#E1E1E1" stroke-miterlimit="10" d="M104.4,129.6c-0.7,0.3-1.2,0.9-1.5,1.6c-0.3,0.8-0.1,1.7-0.4,2.5
	c-0.5,1.3-2.2,2-2.2,3.3c0,0.5,0.3,1.1,0.7,1.4c1.2,1.1,3,1.1,4.4,0.5c1.5-0.6,2.7-1.6,3.9-2.6c1.2-1,2.5-2,4-2.4
	c0.5-0.1,1-0.2,1.4-0.4c1.5-0.9,0.7-3.4,1.8-4.9c0.2-0.3,0.6-0.6,0.6-1c0-0.5-0.4-0.9-0.9-1.2c-1.3-0.9-2.7-1.9-4.4-2.2
	c-1.6-0.3-3.5,0.3-4.2,1.8c-0.5,1-0.4,2.2-1.3,2.9c-0.4,0.4-1,0.5-1.6,0.6C103.9,129.8,105.4,129.2,104.4,129.6z"/>
<path fill="none" stroke="#E1E1E1" stroke-miterlimit="10" d="M85.2,48.1c2-0.8,3.7-2.3,4.8-4.1c0.3-0.4,0.5-1,0.3-1.5
	c-0.2-0.3-0.6-0.5-0.9-0.6c-2.7-0.8-5.9,0.3-8.3-1.1c-1-0.5-1.8-1.4-2.9-1.5c-0.6-0.1-1.2,0.2-1.8,0.4c-2,0.7-4.4,1.8-4.7,3.9
	c-0.1,0.3-0.1,0.6-0.3,0.8c-0.5,0.4-1.2-0.2-1.8-0.4c-1.3-0.5-2.5,0.9-3.1,2.2c-0.5,1.2-0.8,2.5-1,3.7c0,0.4-0.1,0.9-0.4,1.2
	c-0.2,0.2-0.5,0.3-0.8,0.4c-1.1,0.4-1.9,1.5-2,2.7c-0.1,1.2,0.5,2.4,1.5,3c1.4,0.9,3.2,0.6,4.7-0.1c1.5-0.6,2.8-1.6,4.3-2.2
	c1.6-0.6,3.5-0.7,4.8-1.7c1-0.8,1.6-2.1,2.6-3C81.5,49,83.5,48.8,85.2,48.1z"/>
<path fill="none" stroke="#E1E1E1" stroke-miterlimit="10" d="M49.8,187.4c0.4,0.4,1.1,0.6,1.6,1c1.1,0.7,1.7,2,2.7,2.8
	c0.3,0.2,0.6,0.4,1,0.7c1.5,1,2.9,2.2,4.2,3.4c0.4,0.4,0.8,0.8,1.3,1.1c1.6,1.4,3.2,2.9,4.2,4.7c0.7,1.3,1.2,2.8,1.9,4.1
	c0.4,0.8,1.2,1.6,2.1,1.3c0.9-0.3,1.1-1.4,1.1-2.4c0-2.1,0.1-4.2,0.1-6.3c0-0.6,0-1.2-0.2-1.7c-0.4-1.1-1.4-1.8-2-2.8
	c-0.4-0.7-0.5-1.4-0.9-2.1c-0.6-1-1.7-1.5-2.8-1.9c-3.4-1.5-7-2.8-9.7-5.4c-0.5-0.4-0.9-0.9-1.4-1.3c-0.9-0.6-1.9-1-2.8-1.5
	c-1.3-0.7-2.4-1.8-3.2-3c-0.3-0.5-0.6-1.1-1-1.6c-0.4-0.5-1-1.1-1.6-0.8c-0.8,0.4-0.5,1.7-0.1,2.5c0.4,0.8,0.9,1.5,1.3,2.3
	c0.5,1,0.6,2,1.2,2.9c0.6,0.9,1.5,1.6,2.1,2.4C49.2,186.4,49.4,187,49.8,187.4z"/>
<path fill="none" stroke="#E1E1E1" stroke-miterlimit="10" d="M260.8-14.8c-0.9,0.6-1.9,1.3-2.8,2c-3.5,2.7-6.2,6.2-8.9,9.7
	c-1.8,2.3-3.5,4.6-4.9,7.2c-1.4,2.7-3.2,5.8-2.5,8.8c0.4,2,0.3,4-0.8,5.6s-2.6,3.2-3,5.2c-0.3,1.1-0.2,2.3-0.3,3.5
	c-0.6,5.7-6.2,10-6.4,15.7c-0.1,2.2,0.7,4.3,1.5,6.4c1.6,4.1,1.1,9.8,4.7,12.4c2.1,1.6,4.9,2.1,6.1,4.4c1.2,2.3,1.7,5,2.1,7.6
	c0.6,3.9-0.1,3.9,1.9,7.3c1.3,2.2,8,3.6,7.9,6.1c0,0.7-0.1,1.4,0.6,1.6c0.7,0.2,1.4-0.1,2.1-0.1c1.3,0.1,2.3,1.2,3.4,1.9
	c2.6,1.6,6.6-1.3,8.9,0.7c0.9,0.8,1.7,2.8,2.5,1.8c1.6-1.8,2.2-4.3,4-5.8c0.4-0.3,0.9-0.6,1.4-0.8c0.8-0.2,1.6-0.1,2.4-0.3
	c1.4-0.3,2.5-1.6,3.2-2.9c0.7-1.3,1.1-1.9,1.9-3.1c1.2-1.7,2.4-3.3,3.3-5.1c3.2-6.2,3.1-13.6,4.5-20.5c1.7-8.2,6.4-16.2,14-19.7
	c0.6-0.3,1.2-0.5,1.6-1c0.9-1.2-0.1-2.9-0.4-4.4c-0.5-2.5,1.3-4.9,3.3-6.7c1.9-1.7,4.2-3.3,5.1-5.7c1.6-4.2,5.5-7.7,8.6-10.9
	c2.6-2.5,5.1-5.1,7.7-7.6c0.6-0.6,1.3-1.2,2.1-1.3c0.5-0.1,1,0.1,1.4-0.1c0.5-0.2,0.7-0.8,1-1.3c1.2-1.9,3.8-2,6-2
	c0.6,0,1.4,0.1,1.8,0.6c0.8,1-0.3,2.7,0.6,3.6c0.7,0.7,1.8,0.2,2.8,0.2c1.9,0,3.3,1.9,5.2,2.1c2.5,0.2,5.2-2.5,7-0.8
	c0.9,0.9,1.2,2.7,2.5,2.6c0.4,0,0.8-0.2,1.1-0.5c2.2-1.7,4.6-4.1,7.3-3.3"/>
<path fill="none" stroke="#E1E1E1" stroke-miterlimit="10" d="M224.7-15.3c-4.9,6.7-10.2,13.2-15.8,19.4c-2.1,2.4-5.3,1.9-8.2,3.3
	c-5.3,2.5-2,11.5-3,17.2c-0.2,1.2-0.4,2.4-0.2,3.5c0.3,1.4,1.3,2.6,2.2,3.8c3.3,4,6.5,7.9,9.8,11.9c0.5,0.6,1.1,1.3,1.8,1.6
	c1.1,0.4,2.4,0,3.5,0.3c2.6,0.7,2.7,4.6,5,6c0.9,0.5,1.9,0.6,2.9,0.9c4.6,1.4,6.5,6.8,7.7,11.4c0.5,1.7,0.9,3.5,1.4,5.2
	c1.2,4.6,2.4,9.3,2.3,14c-0.2,6.3-1.4,12.9-3.6,18.8c-5.7,15-10,9.6-12,13.9c-1.7,3.6,0.8,13.8,0.4,25c-0.4,8.7,6.5,17.8,15,19.3
	c4.7,0.8,9.5-1,13.8-3c2.1-1,4.4-2,6.7-2c2.3,0.1,4.4,1.2,6.7,1.2c3.6,0.1,6.7-2.3,10.1-3.2c4.4-1.2,9.3,0,13.3-2.1
	c2.4-1.3,4.3-3.7,7-3.8c1.3-0.1,2.7,0.5,4,0c1.1-0.4,1.9-1.5,2.7-2.3c1.8-1.9,5-1.2,7.1-2.7c9.1-6.2,7.3-20.7,11.8-30.7
	c2.2-4.9,4.5-9.8,5.3-15.1c1-6.4-0.4-12.9,0.5-19.3c0.8-6.4,3.8-12.3,6.7-18.1c1-2,2.9-2.2,5-3.1c3.4-1.5,1.2-7.4,1.8-11.1
	c0.4-2.3,0.8-4.6,2.2-6.4c1.4-1.8,5-3.4,6.1-1.4c2.4,4.3-2.5,13-1.7,14.6c1.1,2.4,3.7-4.9,6.3-4.4c1.6,0.3-0.8,4.5,0.8,4.8
	c2,0.4,3.3-4.5,3.9-2.6c3.2,9.2-8.8,28.5-5.8,31.8c1.4,1.6,4,1.3,4.4,3.4s-0.1,4.3,0.6,6.4c0.2,0.8,0.7,1.5,0.7,2.3
	c0.1,1-0.5,2-1,2.9c-1.9,3.8-4.7,9.7-1.3,12.4c2.1,1.7,4.1,3.2,5.1,5.8c1.4,3.5,3.4,6.7,5.9,9.5c1.4,1.6,3.1,3,5.1,3.5
	c2,0.5,4.5-0.4,5.3-2.3"/>
<path fill="none" stroke="#E1E1E1" stroke-miterlimit="10" d="M143.3-15.2c-0.2,1.7-1.4,3.3-2.7,4.5c-1.6,1.4-4.4,2.3-4.7,4.4
	c-0.3,1.6,0.8,3.2,1.2,4.8c0.1,0.4,0.2,0.8,0.4,1.1c0.4,0.4,1,0.6,1.5,0.7c3.3,0.6,6.7,0.6,10,0.1c1.5-0.2,3-0.5,4.4-0.3
	c1.5,0.2,1.7,2.7,3.2,2.7c4.4-0.1,4.8-7.8,9.1-8c2.3-0.1,2.9,3,5.1,3.5c1.2,0.3,2.2-1.1,3.2-0.4s1.5,1.9,2,3c1,2.3-0.6,5.3,0.9,7.3
	c0.7,0.9,2.6-0.5,3.3,0.4c1.2,1.7,0.3,4.1,0.5,6.1c0.1,1.4,0.2,2.8,1,3.9c0.8,1.1,2.2,0.7,3.5,1.2c2.8,1,2.1,5.5,2.4,8.4
	s-2.7,5.4-2.1,8.3c1,5,8.5,5.6,11.9,9.5c0.5,0.6,1,1.1,1.1,1.9c0.3,1.5-1,3-2.3,3.8c-2.3,1.3-5.6-1.2-7.7,0.3
	c-3,2.2-1.6,7.5-4.9,9.3c-1.3,0.7-3,1-4.1,0.1c-0.7-0.5-1-1.4-1.8-1.7c-1.9-0.7-2.9,2.5-4.8,3.1c-1.4,0.4-2.8-0.7-4.2-1.3
	s-2.5,0.3-3.1,1.7c-0.8,1.7-3.5,1.3-5.3,2.1c-1.6,0.7-4.6,0.3-4.7,2c-0.1,1.8,0.1,3.3-1.4,4.2c-1.6,0.9-2,2.4-3.1,3.8
	c-0.5,0.6-1.8-0.5-2.4,0c-0.6,0.5,0,2-0.7,2.3c-0.9,0.4-2.2-0.9-2.9-0.2c-1.4,1.6-3.1,5-1.3,6.1c0.5,0.3-0.1,0.6-0.5,1.1
	c-1.2,1.7-4.4,3.1-3.7,5c1.1,2.8,5.5,3,6.5,5.9c0.3,0.8,0.4,1.8,0.9,2.5c0.3,0.4,0.7,0.7,1,1c3,2.5,5.9,5,9.3,7
	c4.3,2.6,7.2,6.6,11.6,9.1c2.4,1.4,3.8,3,6.3,4.3c2,1.1,4.1,1.4,6.4,1.2c1.7-0.2,2.8-1.9,4.5-1.8c1.7,0.1,3.2,0.8,4.8,1.5
	c2.7,1.3,5.3,2.6,7.9,4.1c1.1,0.6,2.1,1.2,3.3,1.5c1,0.2,2,0.2,2.9,0.4c3,0.6,5.4,3.1,6.6,5.9c1.2,2.8,1.4,6,1.6,9.1
	c0.2,2.4,0.3,4.7,0.1,7.1c-0.2,2.9-0.9,5.8-0.2,8.6c0.8,2.7,2.8,4.9,5,6.7c0.4,0.3,0.8,0.7,1.3,0.8c0.7,0.2,1.4,0,2.1,0.1
	c3,0.5,3.2,6,6.3,6.2c4.6,0.4,9,2.6,13.5,1.9c3.9-0.6,6.5-4.4,9.8-6.6c3.1-2.1,6.8-3,10.4-3.8c3.7-0.8,7.3-1.7,11-2.5
	c4.1-0.9,8.4,0.9,12.3-0.5c3.7-1.3,6-5.3,9.9-5.2c1.4,0,2.9,0.4,4.3-0.1c1.9-0.6,3.1-2.5,4.5-4c1.4-1.5,3.4-0.8,5.4-1.3
	c4-1.1,3.4-7.6,5.9-10.9c0.6-0.8,1.3-1.7,2.3-2.1c1.1-0.5,2.5-0.6,3.3-1.6c1.1-1.5-0.3-3.8,0.6-5.4c0.8-1.5,3.3-1.7,3.8-3.4
	c0.4-1.3-0.7-2.6-0.5-3.8c0.4-2.2,3.6-2.4,4.8-4.2c0.5-0.7,0.5-1.6,0.8-2.4c0.3-1.2,1-2.3,1.7-3.3c2-3.1,3.9-9.8,7.3-8.4
	c0.9,0.4-0.2,2.3,0.6,2.9c0.7,0.6,1.6-1.1,2.5-1c5.8,0.7,0,12.6,4.4,16.5c1.6,1.4,4.4,1,4.9,3c0.2,0.9,0.2,1.8,0.5,2.6
	c0.4,1.1,1.3,1.8,2.2,2.6c3.4,3.3,2.2,9.3,5.3,12.8c0.7,0.7,2.2-0.3,2.9,0.3c3.7,2.8,6.2,7.3,10.8,7.3"/>
<path fill="none" stroke="#E1E1E1" stroke-miterlimit="10" d="M211.7,79.5c0.2,0.4,0.5,0.7,0.9,0.8c0.6,0.1,1.1-0.5,1.4-1.1
	c0.3-0.8,0.4-1.7,0.2-2.6c-0.3-1.2-1.4-2.4-2.6-2.1c-0.1,0-0.2,0.1-0.3,0.1c-0.1,0.1-0.1,0.3-0.2,0.5
	C211.1,76.6,211,78.2,211.7,79.5z"/>
<path fill="none" stroke="#E1E1E1" stroke-miterlimit="10" d="M35.9-14.5c0.8,4.1,2,8.2,3.9,11.9C43,4,47.9,10.7,54.9,12.9
	c2.5,0.8,4.9-1.2,7.5-1.9c3.6-1,6.8,0.6,10.4-0.2c1.2-0.3,2.4-0.6,3.7-0.5c1.2,0.1,2.5,0.8,3,1.9c0.4,1.2,1.4,3.6,0.6,4.7
	c-0.7,0.9-2.3,3.1-1.5,3.9c0.2,0.2,0.7,0.2,0.9,0.5c2.5,2.4,4.8,6.5,7.2,8.9c0.9,0.9,5,0.2,6.2,0.6c3.4,1.1,1.8-1.8,5.4-2
	c2.8-0.2,5.2,0.4,8,1.1c3.6,1,7.5,0.6,11.2,0.1c1.5-0.2,2.9,0.5,4.2-0.4c1-0.7,2-2.5,2.9-3.3c2.2-1.9,5.3-2.6,8.2-3.1
	c4.7-0.8,8.8-0.5,13.6-0.9c0.4,0,0.8-0.1,1.1,0.1c1.2,0.4,1.6,1.3,1.3,2.5c-0.3,1.2-1,3.5,0.1,4.1c0.4,0.2,1.5,0.2,2,0.2
	c1.6,0.3,2.7,1.3,2.8,2.9c0.1,1.7-0.6,3.2-1.6,4.6c-3,4.5-8.1,7-13,9.4c-2.7,1.3-5.4,2.6-8,3.9c-5.4,2.6-10.9,5.3-16.8,6.3
	c-1.4,0.2-2.8,0.4-4,1.1c-1.4,0.8-2.3,2.2-3.6,3.2c-2.7,2.2-6.6,2.3-9.7,3.8c-1,0.5-2,1.2-2.5,2.2c-1,2.3,1,4.7,2.8,6.4
	c0.7,0.7,1.5,1.3,2.4,1.7c1,0.4,2,0.3,3,0.4c5.6,0.3,10.1,3.6,13.8,8c0.5,0.6,1.5,1.7,2.1,2c2.2,1.1,4.6,1.3,6.5,2.9
	c0.5,0.4,1.1,0.9,1.5,1.4c0.2,0.3,0.4,0.7,0.7,1c1.5,2.2,5,2,6.7,4c2.6,2.9,4.7,5.3,8.3,6.5c2,0.6,2.7,2.8,3.8,4.5
	c2.5,3.6,8.6,3.6,10.5,7.6c0.4,0.9,0.6,1.9,1,2.8c2.1,4.6,10,4,12,8.7c1.1,2.5-0.1,5.4-1.3,7.8c-1.4,3-3.1,6.2-6.1,7.3
	c-1.5,0.6-3.3,0.8-4,2.2c-0.2,0.5-0.2,1.2-0.5,1.7c-0.5,1.2-1.7,1.7-2.6,2.6c-1.2,1.2-1.6,3.1-2.3,4.7c-1.6,3.7-4.8,6.4-7.6,9.3
	c-0.8,0.9-1.6,1.9-1.6,3.1c0,0.8,0.3,1.5,0.2,2.3c-0.2,2.3-4.6,5.1-2.5,6.2c3.2,1.6,5.4,4.6,8.8,5.6c1,0.3,2,0.2,3,0.6
	c1.3,0.5,2.1,1.6,3,2.6c1.8,2.3,3.7,4.6,5.5,7c1.2,1.5,2.7,3.2,4.6,3c1.1-0.1,2.1-0.8,3.2-1c1.6-0.3,3.3,0.6,4.3,1.9
	c1.1,1.3,1.2,3,2.2,4.4c1.9,2.7,2.8,5.2,4.1,8.2c2.2,5.2,6.7,9.3,8,14.8c0.7,3.1,1.3,6.7,4.1,8.2c1.6,0.9,3.5,0.8,5.3,0.7
	c2.9-0.2,6.4-0.6,7.8-3.3c1-2,0.4-4.6,1.8-6.3c1-1.1,2.5-1.4,3.7-2.3c2.5-1.9,2.1-5.7,1.5-8.7c-0.8-4.1-1.7-8.3-4.1-11.6
	c-1-1.4-2.3-2.7-3.2-4.2c-1.3-2.1-1.9-4.5-2.5-6.9c-1.1-4.5-2.1-9-3.2-13.4c-0.3-1.2-0.6-2.4-1.4-3.3c-0.8-0.9-1.9-1.3-2.8-2.1
	c-0.9-0.8-1.3-1.9-1.8-3c-2.2-5-4.3-10.1-5.8-15.4c-0.7-2.5-1.2-5-1.7-7.5c-0.8-3.9-5-8.7-2.5-11.8c3.8-4.6,11.3,3.6,16.3,6.8
	c1.4,0.9,2.8,1.8,3.7,3.1c0.9,1.3,1.4,2.9,1.8,4.5c1.2,4.7,2.4,9.4,3.7,14.1c0.9,3.5,1.8,7.1,3.7,10.2c1.1,1.9,2.5,3.6,3.9,5.2
	c3.3,4,7.4,8.3,12.6,8.2c2.4,0,4.7-1.1,7.1-1c4.1,0.2,8.2,3.7,12,2c0.9-0.4,1.6-1,2.3-1.6c9-7.4,20.1-12.3,31.6-14.1
	c0.7-0.1,1.3-0.2,2-0.1c0.6,0.1,1.2,0.5,1.9,0.5c0.9,0,1.6-0.7,2.2-1.3c3.2-3,7.3-5.1,11.6-6.1c1.9-0.4,4-0.6,5.7,0.3
	c1.7,0.9,2.9,3.2,2,4.9c-3.1,5.6-1,12.9-1.6,19.3c-0.1,1.4-0.2,2.8,0.4,4c0.4,0.7,1,1.3,1.3,2c0.7,1.4,0.4,3.1,0.6,4.7
	c0.2,1.6,1.8,4.4,2.8,3.2c1.7-2,4-3.5,4.7-6.1c0.2-0.8,0-1.6-0.1-2.4c-0.4-2.1-0.9-4.2-0.7-6.3c0.2-2.1,1.3-4.3,3.3-5.2
	c1-0.5,2.1-0.6,3.1-1.1c0.8-0.5,1.4-1.3,1.9-2c2-2.9,3.4-6.4,3.1-9.9c-0.3-3.8-2.7-7.6-1.8-11.3c0.8-3.7,4.5-6,7.8-7.9
	c2-1.1,4.1-2.3,6.1-3.4c0.4-0.3,0.9-0.5,1.4-0.6c0.8-0.1,1.6,0.4,2.1,1c2.5,2.7,0.5,6.9,0.9,10.6c0.7,5.6-0.1,11.7,2.8,16.6
	c1.4,2.4,4.2,3.7,5.4,6.2c0.2,0.4,0.5,0.9,0.6,1.4c0.5,2.3-1.4,5.1,0.3,6.7c0.4,0.4,1,0.6,1.5,1c0.9,0.7,1.4,1.8,1.8,2.9
	c1.3,3.3,2.6,6.6,3.8,9.9c1,2.6,2,5.2,3.8,7.3c0.5,0.6,1.1,1.2,1.8,1.7c0.8,0.6,1.7,1.1,2.6,1.7c1.6,0.9,3.3,1.9,4.9,2.8"/>
<path fill="none" stroke="#E1E1E1" stroke-miterlimit="10" d="M97.5,41.8c0.1,0.5,0.6,0.9,1,1.3c0.4,0.4,0.9,0.8,1.3,1.1
	c0.1,0.1,0.2,0.2,0.4,0.3c0.2,0.1,0.5,0,0.8-0.1c1.1-0.4,2.3-1.3,2-2.3c-0.1-0.3-0.4-0.6-0.6-0.9c-0.8-0.8-1.7-1.5-2.8-1.5
	S97.2,40.7,97.5,41.8z"/>
<path fill="none" stroke="#E1E1E1" stroke-miterlimit="10" d="M26.9-14.5c0.1,0.6,0.2,1.2,0.3,1.8c0.1,1.7-0.1,3.5,0.1,5.2
	c0.4,2.6,1.9,4.8,2.7,7.3c0.3,0.9,0.3,1.8,0.7,2.6c0.2,0.5,1,1.4,1.1,1.9c1.2,4.2,2.8,8.3,5.9,11.5c3,3.2,6.6,6,9.1,9.6
	c2.1,3,3.5,6.5,4.6,10.1c1,3.4,1.7,7.2,0.3,10.5c-1.3,3.1-4.2,5.1-6.4,7.6c-2.3,2.8-3.8,6.2-5.2,9.5c-1.8,4.3-3.7,8.6-5.5,13
	c-0.2,0.5-0.5,1.1-0.4,1.7c0.1,0.8,0.6,1.5,1,2.2c1.3,2.5,0.9,6,3.3,7.5c0.8,0.5,1.7,0.6,2.6,0.8c3.9,0.6,7.9,1.2,11.8,1.9
	c1,0.2,2.2,0.3,3.1-0.2c1-0.5,1.6-1.6,2.5-2.1c1.8-1.1,4.1,0.2,6.3,0.1c2.6-0.1,4.7-2.3,5.9-4.7c1.2-2.4,1.8-5,3.3-7.2
	c0.4-0.6,0.9-1.3,1.6-1.6c1.2-0.6,2.6-0.2,3.8,0.4c1.7,0.9,3.2,2.4,4.1,4.2c1.1,2.2,1.5,4.9,3.5,6.1c2.2,1.4,5.2,0.3,7.6,1.3
	c2.4,1,4.2,4.1,6.7,3.3c0.7-0.2,1.3-0.8,1.9-1.1c3.4-2,7.5,0.9,10.4,3.5c8.7,7.6,19.3,12.5,28.6,19.3c1.3,0.9,3.2,3.4,4.3,4.5
	c1.4,1.4,2.8,2.8,3.5,4.6c0.3,0.8,0.4,1.6,0.8,2.4c0.7,1.3,2,2.1,3.1,3c1.1,0.9,2.1,2.2,1.9,3.7c-0.1,0.5-0.3,1-0.6,1.5
	c-1.1,2.1-2.3,4.3-4,6c-0.9,0.8-1.9,1.5-2.8,2.2c-1.9,1.5-2.4,4.7-4.2,6.3c-1,0.9-2.7,0.7-3.7,1.7c-0.5,0.5-0.7,1.3-1.1,1.9
	c-1.2,2.5-4.3,4-7,3.3c-0.8-0.2-1.6-0.5-2.4-0.2c-1,0.4-1.2,1.6-1.7,2.6c-0.5,1.3-2.2,1.7-2.8,2.9c-1.1,2.3-1.9,4.5-2.9,6.8
	c-1,2.2-0.9,5-2.7,6.5c-0.3,0.3-0.7,0.5-0.9,0.8c-0.2,0.3-0.3,0.7-0.4,1c-0.6,2.3-1.2,4.6-1.9,6.9c-0.2,0.6-0.3,1.1-0.3,1.7
	c0,1.7,1.3,3,2.2,4.4c1.5,2.4,0,6.6,2.4,8.1c1.3,0.8,3,0.1,4.5,0c1.8-0.1,3.3-1,4.9-1.8c2.9-1.4,6.1-2.2,9.3-2.4
	c0.4,0,0.8,0.2,1,0.6c0.8,1.8,4,1.4,6,1.3c1-0.1,2.1-0.3,3.1-0.2c4,0.4,3.5,6.7,6.9,8.9c2.8,1.8,6.7,1,9.2,3.4
	c2.4,2.4,4,5.4,5.6,8.4c4,7.6,8,15.1,11.9,22.7c0.9,1.7,1.8,3.4,2.7,5.2c0.2,0.4,0.4,0.9,0.8,1.1c0.6,0.3,1.3,0.1,2,0
	c2-0.3,2.6,2.5,4.6,3.1c1.7,0.5,3.5-1.2,4.8,0c0.4,0.4,0.8,0.9,1.3,1.1c0.6,0.2,1.3,0,1.9-0.3c2.2-0.9,5.2-0.8,6.5-2.8
	c2.3-3.4,2.8-8,6.6-9.6c2.5-1,5.5-1.1,7.4-3c3.6-3.5,1.1-10.7,4.9-14c0.6-0.5,1.4-0.9,1.6-1.7c0.3-1.1-0.6-2.1-1.2-3.1
	c-0.7-1.4-0.6-3.1-1.4-4.5c-0.6-1.1-1.7-1.8-2.7-2.6c-5.5-4.2-11.9-11.2-9.5-17.6c0.6-1.7,3.5,0.1,4.3,1.8c0.8,1.7,1.1,3.7,2.7,4.7
	c0.8,0.5,1.8,0.5,2.8,0.6c4,0.1,8.1,0.3,12.1,0.4c4.3,0.1,8.7,0.3,12.8-0.8c4.2-1.1,8.1-3.4,12.5-3.7c1.4-0.1,2.8,0,4-0.6
	c1.3-0.6,2.2-1.9,3.6-2.4c1.5-0.5,3.3,0.1,4.8-0.5c0.9-0.4,1.6-1.1,2.2-1.8c4.5-4.7,9.8-8.8,15.5-11.9c1.2-0.7,2.7-1.3,3.9-0.7
	c1.9,1,1.4,3.7,0.9,5.7c-1.5,5.6-1.8,11.5-0.7,17.2c1.1,5.6,0.3,11.4-3.8,15.3c-1.6,1.6-3.9,3.6-2.9,5.7c0.4,0.9,1.4,1.4,2.2,2
	c1.8,1.3,3.1,3.2,3.6,5.4c0.2,1,0.3,2.1,0.8,3c0.4,0.8,1.1,1.3,1.8,1.8c2.5,1.9,4.4,6.6,7.4,5.8c2.3-0.6,3.9-2.5,5.1-4.6
	c1-1.6,2.1-2.8,3.3-4.3c1.1-1.3,1.1-3.1,1.7-4.6c1-2.7,4-3.4,6.6-4.8c3.6-1.9,4.3-6.8,5.9-10.5c0.4-1,0.8-2,0.9-3.1
	c0.2-1.5,0-3,0-4.5c-0.3-7.8,3.3-15.1,7.1-21.9c0.7-1.2,1.6-2.6,3.1-2.6c1.8,0,2.7,2,3.2,3.7c1.1,3.7,2.3,7.4,3.5,11.1
	c0.4,1.3,0.9,2.5,1.4,3.8c1,2.4,2.1,4.7,3.4,6.9c0.9,1.4,1.8,2.9,2.4,4.5c0.8,2.1-0.9,4.6,0,6.7c1.3,3,3.2,5.2,5.3,7.6
	c1.6,1.8,5.2,1.2,6.2,3.4c1.6,3.7-5.4,9.1-2.2,11.6c2.7,2.1,4.3,3.6,6.7,6c0.4,0.4,1.5-0.5,1.9,0c1.5,1.8-1.9,4.9-0.8,7
	c0.6,1.1,2.2,1.3,3.2,2"/>
<path fill="none" stroke="#E1E1E1" stroke-miterlimit="10" d="M-10.4,13.8c0.9-0.5,1.7-1.3,2.4-2c4.5-4.7,9.1-9.3,13.6-14
	c1-1,1.9-2,3.2-2.6c2.2-1,5-0.4,6.6,1.4c1.7,1.9,1.9,4.6,2.1,7.2c0.9,7.9,3.3,15.7,7.2,22.7c2,3.6,4.4,7.4,4,11.5
	c-0.4,3.7-5.8,7.4-5,11.1c0.3,1.2,1.7,0.2,3,0.2c1.5,0.1,1.7,2.3,1.8,2.6c0.3,1.5-0.4,4.7-0.9,6.2c-0.9,2.7-3.7,4.5-5.8,6.5
	c-2.3,2.3-4.5,5-5.2,8.2c-0.8,3.2,0.2,7,2.9,8.7c3.2,2,8,1.1,10.5,3.9c2.1,2.3-1.5,6.9,0.8,9c2.1,2,9.5,2.3,14.3,3.1
	c0.7,0.1,1.7,3.1,2.3,2.7c5.7-3.2,11.4-1.7,18.9-1.8c1.5,0,4.3-2.8,5.7-2.8c0.7,0,1.3,0.3,2,0.3c1.5-0.2,2-2.2,3.1-3.2
	c1.8-1.6,4.7-0.5,6.6,1s3.9,3.4,6.3,3.1c1.4-0.2,2.6-1,4-1.1c1.2-0.1,2.3,0.5,3.4,1.1c5.7,3.1,10.8,7,16,10.9
	c3.4,2.6,6.9,5.2,10.3,7.8c1.1,0.8,2.2,1.7,3.3,2.5c2,1.5,4,3,5.7,5c1.9,2.2,3.2,4.8,3.8,7.6c0.2,0.9,0.3,1.8,0,2.7
	c-0.4,0.9-1.2,1.6-2,2.2c-3.2,2.5-7.6,4-9.7,7.5c-1.1,1.8-2.3,4-4.1,5.2c-0.8,0.5-1.7,0.9-2.5,1.5c-1.4,1.1-2,2.9-2.7,4.5
	c-2.2,5.4-5.4,10.4-9.4,14.6c-0.4,0.4-0.9,0.9-1.2,1.4c-0.8,1.4-0.5,3.2-0.2,4.7c0.6,2.7,1.1,5.4,1.7,8.1c0.2,0.9,0.4,1.7,0.2,2.6
	c-0.1,0.6-0.3,1.1-0.4,1.6c-0.5,3.3,2.4,6,3.6,9c1.7,4.3,0.2,9.5,2.4,13.6c0.4,0.7,0.9,1.4,1.7,1.7c0.7,0.3,1.4,0.1,2.2,0.1
	c1.7-0.1,3.4,0.3,5.1,0.7c5,1.1,10.1,2.2,15.1,3.6c0.7,0.2,1.4,0.4,2,0.2c0.8-0.2,1.3-0.9,1.8-1.6c0.8-1.1,1.7-2.3,2.5-3.4
	c1.2-1.6,3-1.5,4.6-0.3s2.5,3.1,3.5,4.8c0.3,0.5,0.6,1,1.1,1.3c1.1,0.7,2.7-0.2,3.9,0.5c1,0.6,1.5,2.2,2.7,2.1
	c0.9,0,1.4-0.9,2.2-1.3c1.5-0.7,3,0.8,3.9,2.1c1.9,2.7,3.8,5.4,5.4,8.2c3.5,6.3,5.4,13.3,8.5,19.8c1.4,2.9,3,5.7,5.5,7.7
	c1.1,0.9,2.6,1.6,3.8,1c0.7-0.3,1.2-1,1.8-1.6c1.6-1.8,4-2.9,6.5-2.8s3.4,3.1,5.6,3.9c3.9,1.4,8.1-1.1,12-2.5
	c2.1-0.7,3.1-3.1,4.7-4.6c0.7-0.7,1.3-1.3,2.2-1.7c2-1,3.6,1.8,5.8,1.9c0.9,0,0.6-1.8,1.4-2.2c0.5-0.2,1.2,0.6,1.6,0.2
	c4.2-3.6,0.4-11.4,3.7-15.8c1.4-1.8,3.2-3.3,4.5-5.1c1.9-2.6,2.7-5.9,2.4-9c-0.1-0.9-0.3-1.8-0.2-2.7c0.3-1.9,2.2-3.3,4.1-3.7
	c1.9-0.4,3.9-0.2,5.8-0.2c2.5,0,5.1-0.4,7.5-1.2c6.2-2,12.8-10.2,18.3-6.7c3.7,2.4,0.3,6.1-0.5,10.5c-0.7,3.9,3.3,7.5,6.1,10.3
	c2.7,2.6,6.6,4.6,7.1,8.3c0.1,0.6,0.1,1.2,0.4,1.7c0.8,1.5,2.9,1.2,4.5,1.4c3.8,0.6,5.8,4.7,7.1,8.3c1.1,2.9,0.3,8,3.3,8.8
	c4.1,1,7.8-3.7,11.8-2.2c0.5,0.2,0.9,0.4,1.4,0.4c0.8-0.1,1.4-0.7,1.9-1.2c1.8-1.5,4.4-0.9,6.6-1.7c1.3-0.5,1.1-2.5,0.9-3.9
	c-0.2-1.7,0.6-3.2,0.4-4.9c-0.4-2.3-3.4-3.4-3.1-5.7c0.3-2.3,1.8-4.4,3.4-6.1c1.6-1.7,3.4-3.4,4.6-5.4c2-3.6,2.5-8.6,6.3-10.1
	c0.4-0.1,0.8-0.2,1.2-0.1c0.3,0.1,0.6,0.4,0.8,0.7c2.1,2.8,0.8,7.1,3.4,9.5c0.9,0.9,1.1,1.6,1.9,2.6c0.7,0.8,1.9,0.8,2.2,1.9
	c0.3,1,0.1,2.1-0.1,3.1c-1,4.4-7.1,10.7-5.7,12.3c1.8,2.1,4.3-1.9,12.9-1c2,0.2,4,0.8,5.5,2.2c3.1,3.1-0.1,10.2,3.7,12.3
	c2.6,1.4,5.9,0.3,8.7,1.3"/>
<path fill="none" stroke="#E1E1E1" stroke-miterlimit="10" d="M361.1,49.2c0.3-1.7,1.3-3.3,1.1-5c-0.2-1.1-0.9-2.1-1.6-2.9
	c-0.4-0.6-0.9-1.2-1.6-1.4c-0.8-0.2-1.7,0.3-2.2,1c-0.5,0.7-0.6,1.6-0.6,2.5c0.1,3.7,2.5,7,2.6,10.7c0,0.7,0,1.5,0.7,1.7
	c0.6,0.2,1.2-0.4,1.5-1.1C361.4,53,360.8,51.1,361.1,49.2z"/>
<path fill="none" stroke="#E1E1E1" stroke-miterlimit="10" d="M373.2,159c-3.5,0.2-7,0.4-10.5,0.6c-0.5,0-1.1,0.1-1.6,0.4
	c-0.3,0.2-0.5,0.4-0.8,0.4c-0.4,0.1-0.7-0.1-1.1-0.3c-1.1-0.4-3.1-0.3-3.2,0.9c-0.4,4.2,2.8,8.1,2.3,12.3c0,0.4-0.1,0.8,0,1.2
	c0.1,0.5,0.4,0.9,0.7,1.3c1.5,2.4-0.6,6,1.1,8.2c0.5,0.6,1.8,0.3,2,1c1.2,3.3,1.1,6.6,2.5,9.9c1,2.5,5,1.9,7.5,2.7"/>
<path fill="none" stroke="#E1E1E1" stroke-miterlimit="10" d="M176.7,130.7c-0.4-0.6-1.2-1.3-1.7-0.9c-0.9,0.8-1.7,2.5-0.9,3.5
	c0.4,0.5,1.3,0.3,2,0.2c0.6-0.1,1.3-0.6,1.3-1.3C177.4,131.6,177.1,131.1,176.7,130.7z"/>
<path fill="none" stroke="#E1E1E1" stroke-miterlimit="10" d="M372.5,311.2c-3.4,0-6.8-1.6-9-4.2c-1.1-1.3-1.9-2.8-3.3-3.7
	c-1.6-1.1-4-1.4-4.7-3.2c-0.3-0.8-0.2-1.8-0.2-2.6c0-1.1-0.3-2.1-0.6-3.2c-0.8-2.9-1.6-6-3.5-8.3c-1.9-2.4-5.1-4-8-3
	c-1,0.3-1.9,1-2.9,1.1c-0.6,0.1-1.3,0-1.9,0.1c-2.2,0.1-3.9,2.3-6.1,2.3c-3.2-0.1-5.2,1.2-8.2,2.3c-2.9,1.1-6.2-0.4-9.1,0.7
	c-2.9,1.1-5.8,2.6-9,2.6c-2,0-3.9-0.5-5.8-1c-1.3-0.4-2.8-0.9-3.5-2.1c-0.4-0.6-0.5-1.3-0.8-1.9c-0.5-0.8-1.4-1.2-2.2-1.7
	c-4.4-2.4-9.2-5.1-11.6-9.6c-1.5-2.9-6.9-3-7.6-6.2c-0.2-1,0.2-2,0.4-3c0.9-3.7-0.1-7.7-2.1-10.9c-1.9-3.3-4.7-5.9-7.6-8.4
	c-1.6-1.4-4.4-2.5-5.4-0.6c-0.5,0.8-0.2,1.9-0.5,2.8c-0.3,1.2-1.5,1.9-2.4,2.6c-3.7,2.8-6.1,6.9-8.6,10.8c-4.2,6.5-9.8,13.1-17.4,14
	c-1.7,0.2-3.4,0.1-5.1,0.4c-1.3,0.2-2.6,0.7-4,0.9c-3.5,0.4-7.1-1.3-10.4-0.2c-0.8,0.3-1.6,0.8-1.8,1.6c-0.3,1.1,0.5,2.1,1.3,2.8
	c3.1,3.2,6.2,6.3,9.3,9.5c0.8,0.8,1.6,1.6,2.6,2.1c1.6,0.8,3.4,0.7,5.1,0.4c3.8-0.6,8-2.1,11.4-0.2c4.7,2.5,4.7,9.4,8.3,13.2
	c3.5,3.8,9.6,4,13.8,7.1c5.6,4.2,6.1,12.2,6.6,19.2c0.4,6.3,1.2,12.5,2.4,18.7c0.3,1.6,0.6,3.2,1.5,4.5c1.5,2.4,4.2,3.6,6.9,4.6
	c2.6,1,5.2,1.9,7.7,2.9c2.7,1,5.5,2,7.8,3.9"/>
<path fill="none" stroke="#E1E1E1" stroke-miterlimit="10" d="M346.2,369.5c3.2-8.8,0.8-20.3,7.3-27c3.4-3.5,9.2-3.4,12.6-7
	c0.6-0.7,1.2-1.4,1.5-2.3c0.2-0.8,0.2-1.7,0.1-2.5c-0.4-4.3-0.8-8.6-1.2-12.9c0-0.4-0.1-0.9-0.3-1.3c-0.5-0.9-1.8-1.1-2.8-1.2
	c-6.2-0.8-12.2-3.4-16.9-7.5c-1-0.8-1.9-1.7-3-2.3c-2.8-1.4-6.3-0.6-9.2,0.8c-2.9,1.4-5.6,3.2-8.7,3.9c-8.6,1.9-17.6-1.2-25.6-4.8
	c-1.7-0.7-2.8-2.6-3.9-4.1c-0.3-0.4-0.6-0.7-0.8-1.1c-2.3-3-4.6-5.9-6.9-8.9c-0.6-0.7-1.2-1.5-1.9-2.1c-1.5-1-3.3-1.2-5.1-1.4
	c-4.5-0.5-8.9-1.7-13.1-3.4c-3.3-1.4-6.7-3.4-8-6.7c-0.6-1.5-0.7-3.1-1.2-4.5c-0.6-1.5-1.8-2.9-3.4-2.8c-1.2,0-2.2,0.9-3.2,1.7
	c-7.8,5.9-28.3,7.2-26.8,11.1c1.3,3.3,7.1,0.2,10.7,0s7.5,0,10.2,2.4c1,0.8,1.7,1.9,2.5,2.9c3.5,4.5,7.9,8.3,12.8,11.1
	c2.9,1.6,6,3,8.4,5.3c3.3,3.1,4.7,7.7,6.1,12c2,6.5,4.1,13.2,3.3,20c-0.5,5-2.5,10.5,0.3,14.7c2.5,3.8,7.6,4.5,12.1,5
	c4.5,0.5,9,1.2,13.1,3s7.8,4.9,9.5,9.1"/>
<path fill="none" stroke="#E1E1E1" stroke-miterlimit="10" d="M301,332.4c0.1,0.3,0.2,0.5,0.3,0.8c0.1,0.2,0.1,0.4,0.3,0.5
	c0.5,0.5,1.3,0,1.7-0.6c0.6-1,0.6-2.2,0.6-3.4c0-0.8,0-1.6-0.3-2.2c-0.3-0.7-1-1.3-1.8-1.2c-1.1,0.1-1.6,1.4-1.5,2.5
	C300.2,330.1,300.6,331.3,301,332.4z"/>
<path fill="none" stroke="#E1E1E1" stroke-miterlimit="10" d="M351.5,327.3c1.1-0.7,2.1-1.6,2.5-2.8c0.8-2.1-0.4-4.5-1.8-6.3
	c-2.8-3.4-6.6-6-10.7-7.4c-0.8-0.2-1.6-0.4-2.4-0.3c-0.7,0.1-1.4,0.5-2,0.9c-2.9,1.9-5.4,4.4-7.4,7.2c-0.4,0.6-0.9,1.3-1.5,1.6
	c-2.6,1.4-5.2-2.6-8.1-2.3c-1.2,0.1-2.7,0.9-3.5,0c-0.2-0.3-0.3-0.7-0.5-1c-0.5-0.7-1.6-0.6-2.5-0.9c-1.2-0.3-2.1-1.4-3.2-2.1
	c-3-1.8-6.9-0.1-10.4-0.2c-3-0.1-5.9-1.8-7.6-4.3c-0.5-0.7-0.9-1.5-1.5-2c-0.6-0.6-1.4-0.9-2.1-1.4c-2-1.3-3.3-3.4-4.8-5.2
	c-4.5-5.3-16-11.7-18-10.4c-1.2,0.8,1.4,2.5,2.7,3.3c4.7,2.8,9,6.4,12.7,10.4c0.7,0.8,1.4,1.6,1.8,2.5c0.4,0.8,0.5,1.6,0.7,2.5
	c0.9,3.3,2.6,6.3,3.7,9.5c0.9,2.5,1.4,5.1,1.8,7.7c0.7,4.9,1,9.9,0.7,14.9c0,0.6-0.1,1.3,0.2,1.9c0.6,1.4,2.3,1.7,3.8,1.8
	c4,0.2,8.1-0.1,11.9,1.1c4.2,1.3,7.7,4.4,11,7.3c3.4,3.1,6.9,6.2,10.3,9.3c1.1,1,2.6,0.2,3.8,1c0.9,0.7,1.3,1.7,2.3,1.3
	s2.1-0.5,3.2-0.9c8.9-3,4.1-19.1-1.8-26.5c-2-2.5-6.3-5.9-4.2-8.3c2.4-2.9,7.5,0.2,11.3,0.5C345.2,330.1,348.6,329.2,351.5,327.3z"
	/>
<path fill="none" stroke="#D6D6D6" stroke-miterlimit="10" d="M279.3,125.6c0.9,1.4,2.8,3.1,4.4,3.6c1.5,0.5,3.1,0.2,4.6,0.1
	c4.6-0.3,9.6,1.4,12.2,5.2c1,1.4,1.5,3.1,2.3,4.6c1.4,2.8,3.3,5.2,5.3,7.7c2.1,2.6,4.2,5.2,6.3,7.8c0.4,0.5,0.7,0.9,1,1.4
	c0.7,1.3,0.6,2.9,0.4,4.3"/>
<path fill="none" stroke="#D6D6D6" stroke-miterlimit="10" d="M162.9,91.2c0.5,0.3,1,0.5,1.6,0.6"/>
<path fill="#EAEAEA" stroke="#D6D6D6" stroke-miterlimit="10" d="M3.9,214.9c0.8-2.2,4.3,0,5.9,1.9c1.1,1.3,2.3,3.6,2.1,5.4
	c-0.2,2.7-3.4,2.9-5.4,2.7c-1.9-0.2-5.8,1.3-6.1-1.2c-0.1-0.8,0.4-1.5-0.2-2.3c-0.4-0.5-1.3-0.9-1.8-1.2c-1.3-0.7-3.1-1.1-1.8-2.9
	c0.8-1.1,2.3-2.2,3.7-2.2c0.7,0,1.3,0.3,2,0.4C2.8,215.6,3.8,215.2,3.9,214.9z"/>
<path fill="#EAEAEA" stroke="#D6D6D6" stroke-miterlimit="10" d="M43.1,80.9c0-0.6,0.4-1.1,0.4-1.6c0-0.8-0.9-0.7-1.7-0.7
	c-1.7-0.1-0.3-3.3,0.6-4.7c0.8-1.4,1.7-2.8,3.1-3.7c1.4-0.9,3.1-1,4.7-1.2c7.5-1.1,14.7-5,22.3-4.2c0.2,0,0.5,0.1,0.5,0.3
	c0,0.1,0,0.2,0,0.3c-0.7,3-4.8,3.8-6.2,6.5c-0.3,0.7-0.5,1.4-0.8,2.1c-0.9,2.6-2.9,4.7-5.2,6.1c-2.3,1.5-4.9,2.4-7.5,3.4
	c-0.9,0.3-1.9,0.7-2.8,0.5c-1.6-0.2-2.8-1.7-4.4-2c-0.6-0.1-1.2,0-1.8-0.1C43.8,81.9,43.2,81.5,43.1,80.9z"/>
<path fill="#EAEAEA" stroke="#D6D6D6" stroke-miterlimit="10" d="M115.4,70.3c-0.2,0.1-0.4,0.2-0.5,0.4c-0.8,0.9-1.4,2.1-1.4,3.3
	c0,0.3,0,0.5,0.1,0.7c0.1,0.3,0.4,0.5,0.7,0.7c1.3,0.8,2.8,1.2,4.3,1.1c0.4,0,0.8,0.1,1.1,0.4c0.6,0.5,1.5-0.3,1.9-1
	c0.1-0.2,0.2-0.5,0.2-0.8c-0.1-0.4-0.4-0.7-0.7-1c-1.1-0.9-2.2-1.8-3.3-2.6c-0.3-0.2-0.7-0.5-1-0.7
	C116.3,70.4,115.8,70.1,115.4,70.3z"/>
<path fill="none" stroke="#D6D6D6" stroke-miterlimit="10" d="M73.1,64.7c0.6-1.4,1.6-2.4,3.2-2.7s3.1-0.1,4.6,0.2
	c1.3,0.2,2.6,0.5,3.8,1c1.5,0.6,2.9,1.5,4.3,2.2c3.4,1.8,7.3,2.7,11.2,2.6c1.2,0,2.3-0.1,3.5,0c2.2,0.2,4.4,1.2,6.6,0.9
	c0.7-0.1,1.5-0.4,2.2-0.3c1,0.1,2.2,1,2.5,1.9"/>
<path fill="none" stroke="#D6D6D6" stroke-miterlimit="10" d="M121.6,75.7c1.1,1,4,0.6,4.8-0.6c0.6-0.9,0.8-3,1.8-2.6
	c0.7,0.3,0.7,1.4,1,2.1c0.2,0.5,0.5,1,1,1.2c1.2,0.6,2.4-1.1,3.8-1.2c0.7-0.1,1.4,0.4,2.1,0.7c1.8,0.9,3.3-0.2,5.3-0.4
	c1.1-0.1,2,0.1,2.9,0.9c0.8,0.8,1.4,1.8,1.9,2.8c0.5,0.9,0.9,1.9,1.4,2.8c1.5,3,3.4,6.3,6.6,7.3c1.8,0.6,3.8,0.4,5.4,1.2"/>
<path fill="none" stroke="#4E9BD7" stroke-miterlimit="10" d="M296.3-15.2c0,0.3-0.1,0.7-0.1,1c-0.1,0.7,0,1.6,0.7,1.7
	c0.8,0.2,1.7-0.8,2.2-0.2c0.1,0.1,0.2,0.3,0.2,0.5c0.2,0.9,0.2,1.9,0,2.8"/>
<path fill="none" stroke="#4E9BD7" stroke-miterlimit="10" d="M297.5-3.5c-1.3,5.3-6.6,9-10.4,12.9c-2.9,2.9-5.3,6.2-7.7,9.4
	c-1.8,2.4-3.6,5.1-3.3,8.1c0.1,0.7,0.2,1.3,0,1.9c-0.2,0.4-0.5,0.7-0.8,0.9c-1.7,1.3-4.1,2.6-3.9,4.7c0.1,1.1,1,1.9,1.1,3
	c0.1,1.3-0.9,2.5-2.1,3.2c-1.2,0.7-2.5,1.1-3.5,2c-2.1,2-3,4.7-2.6,7.5c0.2,1.8,1.5,4.3,1.7,6.2c0,0.4,0.1,0.8,0.3,1.2
	c0.3,0.6,0.8,1,1,1.6c0.2,0.6,0.2,1.4-0.2,2c-4.2,6.4,0,10.9,3.6,18.9c1.7,3.9,0.3,8.8,2.1,12.6c1,2.1,2.3,4.2,2.3,6.5
	c0,1.6-0.5,3.4,0.5,4.7c0.5,0.6,1.3,0.9,2,1.3c2.3,1.3,3.5,4.8,2.1,7.1"/>
<path fill="#EAEAEA" stroke="#D6D6D6" stroke-miterlimit="10" d="M293.3,6.6c-0.1-0.2,0-0.4,0-0.6c0.3-0.8,1.2-1.4,2.1-1.3
	c0.7,0.1,1.4,0.5,2,1c0.5,0.4,1,0.8,1.4,1.3c0.1,0.2,0.2,0.4,0.3,0.6c0.3,0.7,0.6,1.5,0.5,2.3s-0.7,1.9-1.4,1.7
	c-0.4-0.1-0.5-0.8-0.5-1.2c0-0.5,0.1-0.9,0-1.4c0-0.3-0.1-0.6-0.4-0.7c-0.1-0.1-0.3,0-0.4,0c-0.4,0.1-0.8,0.1-1.1-0.1
	c-0.3-0.1-0.3-0.6-0.5-0.9c-0.2-0.4-0.8-0.2-1.2-0.3C293.8,7,293.5,6.9,293.3,6.6z"/>
<path fill="#EAEAEA" stroke="#D6D6D6" stroke-miterlimit="10" d="M291.7,12.7c-0.4,0.4-0.9,0.6-1.4,0.5c-0.1,0-0.2,0-0.2-0.1
	c-0.1-0.1-0.1-0.2-0.1-0.3c0-0.5-0.2-0.9-0.4-1.3c-0.2-0.5-0.6-0.9-0.6-1.5c0-0.5,0.4-0.9,0.9-1c0.5-0.1,1,0,1.4,0.4
	C291.7,9.8,292.2,12.2,291.7,12.7z"/>
<path fill="#EAEAEA" stroke="#D6D6D6" stroke-miterlimit="10" d="M289.5,15.8c0.4,0,0.8,0.4,1,0.7c0.1,0.1,0.2,0.2,0.2,0.4
	c0.1,0.2-0.1,0.5-0.2,0.7c-0.6,0.9-1.5,2.3-2.6,1.9c-0.5-0.2-0.3-1-0.2-1.5s0.4-0.9,0.7-1.4C288.8,16.2,289.1,15.8,289.5,15.8z"/>
<path fill="#EAEAEA" stroke="#D6D6D6" stroke-miterlimit="10" d="M281.3,29.8c0.7-0.6,2.3-1.1,1.9-2c-0.4-0.9-2-0.7-3-0.3
	c-1,0.4-2,1.5-2,2.6c0,0.8,1.8,1,2.3,0.2C280.6,30.1,281.1,29.9,281.3,29.8z"/>
<path fill="#EAEAEA" stroke="#4E9BD7" stroke-miterlimit="10" d="M300.4-8.4c-0.1-0.4-0.3-0.7-0.7-0.9c-0.3-0.2-0.8-0.2-1.1,0
	c-0.2,0.1-0.2,0.3-0.3,0.5c-0.7,1.5-1.1,3-1.2,4.6c0,0.2,0,0.4,0.1,0.6c0.2,0.2,0.6,0,0.8-0.1c0.7-0.4,1.4-0.9,1.8-1.5
	C300.6-6.2,300.7-7.4,300.4-8.4z"/>
<path fill="#EAEAEA" stroke="#D6D6D6" stroke-miterlimit="10" d="M161.7,32c-0.3,0-0.5,0-0.8,0.1c-0.6,0.3-0.7,1-0.7,1.7
	c0,0.1,0,0.2,0,0.3c0,0.1,0.1,0.3,0.2,0.4c0.7,1.3,0.6,3.2,1.7,4.2c0.4,0.3,1.1,0.1,1.4-0.3c0.1-0.2,0.2-0.4,0.2-0.6
	c0.1-0.9,0.2-1.9,0-2.8c-0.3-0.8-0.3-1.6-0.6-2.4C162.9,32.1,162.2,32.1,161.7,32z"/>
<path fill="#EAEAEA" stroke="#D6D6D6" stroke-miterlimit="10" d="M53,57.7c0,0.6-0.7,0.9-0.7,1.5c-0.1,0.5,0.4,0.9,0.8,1.1
	s1.6,0.7,1.7,0.8c0.4,0.1,0.8-0.1,1-0.5c0.2-0.3,0.6-2.6,0.5-3.3c-0.1-0.8-0.6-1.6-1.3-2c-0.7-0.4-1.6-0.5-2.4-0.1
	c-0.3,0.1-0.6,0.4-0.7,0.8c0,0.3,0.2,0.6,0.4,0.9C52.7,57,53,57.3,53,57.7z"/>
<path fill="#EAEAEA" stroke="#D6D6D6" stroke-miterlimit="10" d="M100.7,13.9c-0.2-0.2-0.3-0.4-0.4-0.7c-0.1-0.3,0-0.6,0.1-0.8
	c0.5-1.4,1.6-2.6,3-3.2c0.2-0.1,0.4-0.2,0.7-0.2c0.8-0.1,1.6,0.3,2.2,0.8c0.6,0.5,1.1,1,1.5,1.7c0.3,0.7,0.5,1.5,0.2,2.2
	c-0.2,0.6-0.6,1-1,1.5c-0.3,0.4-0.7,0.7-1,1.1c-0.7,0.7-1.4,1.5-2.3,1.8c-0.4,0.1-0.8,0.1-1.1-0.1c-0.5-0.3-0.6-0.9-0.8-1.5
	C101.6,15.4,101.2,14.6,100.7,13.9z"/>
<path fill="#EAEAEA" stroke="#D6D6D6" stroke-miterlimit="10" d="M82.2,0.4c-0.2,0.4-0.7,0.7-0.8,1.1c-0.1,0.5,0.4,0.9,0.9,0.9
	c0.9,0,1.6-1,1.7-1.9c0.1-0.4,0-0.9,0-1.3c0-0.4-0.1-0.9-0.3-1.2c-0.2-0.4-0.7-0.7-1.1-0.4c-0.5,0.4-0.7,1.1-0.6,1.7
	C82.2-0.4,82.4,0,82.2,0.4z"/>
<path fill="#FFFFFF" stroke="#D6D6D6" stroke-miterlimit="10" d="M61,73.6c0.3,0.1,0.6,0,0.9-0.2c0.9-0.5,1.7-1.8,1-2.6
	c-0.4-0.5-1.4-0.6-1.9-0.2c-0.5,0.3-0.8,1-0.9,1.6S60.4,73.5,61,73.6z"/>
<path fill="#EAEAEA" stroke="#D6D6D6" stroke-miterlimit="10" d="M76.1,104.1c-0.6-0.5,0-1.6-0.4-2.2c-0.2-0.3-0.4-0.5-0.6-0.6
	c-1-0.5-1.9,0.6-2.5,1.5c-1.8,2.8-4.1,5.3-6.7,7.4c-0.5,0.4-1,0.7-1.3,1.3c-0.3,0.5-0.3,1.2,0.1,1.7c0.6,0.5,1.5,0.2,2.1-0.3
	s0.8-1.3,1.3-1.9c0.7-0.9,1.8-1.3,2.9-1.7c0.6-0.2,1.3-0.5,1.9-0.3c0.6,0.2,1.2,0.9,0.9,1.5c-0.2,0.3-0.6,0.5-0.8,0.9
	c-0.4,0.6-0.1,1.4,0.3,2c0.4,0.6,1,1.2,1,1.9c0,0.9-0.7,1.7-0.7,2.6c0.1,1,1.5,1.8,2.2,1.2c1.2-1,2-2.5,2.4-4c0.1-0.5,0.2-1,0.4-1.4
	c0.2-0.4,0.6-0.7,1-1c1.4-1.3,2.4-3.2,2.5-5.2c0-0.4,0-0.8-0.1-1.1c-0.1-0.2-0.3-0.4-0.4-0.5C80.3,104.2,77.6,105.5,76.1,104.1z"/>
<path fill="#EAEAEA" stroke="#D6D6D6" stroke-miterlimit="10" d="M88.4,117.1c0,0.6,0.3,1.2,0.4,1.8c0.3,1.4,0,2.9-0.9,3.9
	c-0.1,0.2-0.3,0.3-0.3,0.5c-0.1,0.3,0.2,0.6,0.4,0.9c0.3,0.3,0.7,0.6,1,1c0.4,0.5,1.1,0.1,1.5-0.3c0.5-0.5,0.9-1.1,1.2-1.8
	c1.3-2.4,1.6-5.3,0.9-8c-0.2-0.8-0.7-1.8-1.5-1.9c-0.5-0.1-1.1,0.2-1.4,0.6c-0.4,0.4-0.6,0.9-0.8,1.4
	C88.7,115.8,88.4,116.4,88.4,117.1z"/>
<path fill="none" stroke="#D6D6D6" stroke-miterlimit="10" d="M161.8,92.2c-0.1,0-0.2-0.1-0.3-0.1c-0.7-0.5-1.9-0.6-2.1-1.4
	c-0.3-1.4,2.2-3.2,3.4-2.3c1,0.7,0,2.5-0.6,3.5C162.1,92,162,92.2,161.8,92.2z"/>
<path fill="#EAEAEA" stroke="#4E9BD7" stroke-miterlimit="10" d="M171.3,100.8c-0.6-0.2-1.2-0.1-1.8-0.1c-1.3-0.1-2.5-0.9-3.3-1.9
	s-1.2-2.3-1.7-3.5c-0.4-1.2-0.7-2.5-0.3-3.6c0.3-0.6,0.8-1.1,1-1.7c0.4-0.9,0.3-2,0.7-3c0.7-1.6,2.8-2.3,4.5-2
	c1.7,0.3,3.2,1.4,4.6,2.5c2.7,2.1,5.7,4.3,9,3.8c0.4-0.1,0.8-0.2,1.2-0.1c0.9,0.2,1.4,1.3,1.5,2.2c0.4,2.5,0,5.2-1.1,7.5
	c-0.4,0.9-1,1.8-1.9,2.4s-2.1,0.6-2.9,0c-0.3-0.2-0.5-0.5-0.9-0.4c-0.3,0.1-0.3,0.4-0.5,0.7c-0.6,1-2.1,0.6-3,0
	c-0.5-0.4-1.1-0.8-1.7-0.7c-0.3,0-0.6,0.2-0.9,0.2C173,103.1,172.5,101.3,171.3,100.8z"/>
<path fill="#EAEAEA" stroke="#4E9BD7" stroke-miterlimit="10" d="M200.1,107.2c0.1,0.4,0.2,0.9,0.5,1.2c0.3,0.3,0.8,0.4,1.2,0.2
	c0.4-0.2,0.5-0.7,0.5-1.2c0.1-1,0.7-2.3,0-3c-0.4-0.3-1.1-0.3-1.5-0.1C199.8,104.9,199.9,106.3,200.1,107.2z"/>
<path fill="#EAEAEA" stroke="#4E9BD7" stroke-miterlimit="10" d="M232.9,136c0.7,0.3,1.4-0.5,1.8-1.2s0.6-1.4,0.8-2.1
	c0.1-0.3,0.2-0.6,0.1-0.9c-0.1-0.8-0.9-1.3-1.6-1.1c-0.7,0.2-1.1,0.9-1.3,1.5C232.2,133.5,231.7,135.5,232.9,136z"/>
<path fill="#EAEAEA" stroke="#4E9BD7" stroke-miterlimit="10" d="M240.9,120.7c-0.1,0-0.2,0-0.3,0c-0.2,0.1-0.3,0.2-0.4,0.4
	c-0.6,0.9-1.1,1.9-1.6,2.9c-0.2,0.4-0.3,0.8-0.3,1.2c0.1,0.9,0.4,2.1,1.2,2.3c1.3,0.4,1.7-2.2,2.6-3.2c0.3-0.4,0.6-0.8,0.8-1.3
	C243.2,122,242,120.8,240.9,120.7z"/>
<path fill="#EAEAEA" stroke="#4E9BD7" stroke-miterlimit="10" d="M258.6,116.2c0.4-0.2,0.7-0.4,0.9-0.8c0.3-0.6-0.1-1.4-0.8-1.5
	c-0.4-0.1-0.8,0.1-1.1,0.2c-1.1,0.5-2.1,1.4-2.1,2.6c0,0.4,0.2,0.8,0.5,0.8c0.2,0,0.4-0.1,0.6-0.2
	C257.4,116.9,258,116.6,258.6,116.2z"/>
<path fill="#EAEAEA" stroke="#4E9BD7" stroke-miterlimit="10" d="M259.4,125c0,0.4,0.2,0.8,0.6,1s0.8,0.2,1.2,0.1
	c1.1-0.1,2.1-0.6,3-1.3c0.5-0.4,1-1.1,0.7-1.8c-0.2-0.4-0.2-0.8-0.5-1.1c-1.2-1-2.9,1.1-4.2,2C259.9,124.3,259.5,124.6,259.4,125z"
	/>
<path fill="#EAEAEA" stroke="#4E9BD7" stroke-miterlimit="10" d="M260.8,133.5c-0.3,0-0.5,0.2-0.7,0.4c-1.6,1.5-3.2,2.9-4.9,4.4
	c-0.3,0.2-0.5,0.5-0.7,0.8c-0.4,0.8,0.1,2,1,2.2c0.7,0.2,1.3-0.2,2-0.5c0.8-0.4,1.7-0.8,2.4-1.5c1-0.9,1.5-2.2,1.8-3.5
	c0.1-0.5,0.3-1,0.1-1.4C261.7,133.8,261.3,133.4,260.8,133.5z"/>
<path fill="#EAEAEA" stroke="#4E9BD7" stroke-miterlimit="10" d="M270.9,140.6c-0.2-1-1-2.2-2.1-1.9c-0.3,0.1-0.5,0.2-0.6,0.5
	c-0.2,0.5,0.5,0.8,0.8,1.2c0.4,0.5-0.1,1.3-0.4,1.9c-0.1,0.2-0.3,0.4-0.3,0.7c0,0.3,0.3,0.5,0.6,0.6c0.7,0.2,1.5-0.2,1.8-0.8
	C271,142,271.1,141.3,270.9,140.6z"/>
<path fill="#EAEAEA" stroke="#4E9BD7" stroke-miterlimit="10" d="M277.1,133.5c0.1,0.5,0,1,0.1,1.5c0.1,0.9,0.7,1.7,0.6,2.5
	c-0.1,0.7-0.3,1.5-0.8,2.1c-0.7,0.8-2.5,0.9-3.1,0c-0.9-1.5,0-4.8,0.4-7.2c0.1-0.4,0.6-1.8,1-1.6c0.2,0.1,0.3,0.2,0.4,0.4
	C276.4,131.8,277,132.6,277.1,133.5z"/>
<path fill="none" stroke="#4E9BD7" stroke-miterlimit="10" d="M271.1,135.3c0.6-0.4,1.8-1,1.5-1.7c-0.2-0.5-1.1-0.3-1.7-0.2
	c-0.6,0.1-1.1,0.5-1.2,1.1c-0.1,0.6,0.4,1.2,1,1.1C270.8,135.5,270.9,135.4,271.1,135.3z"/>
<path fill="#EAEAEA" stroke="#4E9BD7" stroke-miterlimit="10" d="M267.6,130.8c0.6-0.4,1.3-0.8,1.9-1.2c0.2-0.1,0.3-0.2,0.4-0.3
	c0.4-0.5,0.2-1.3-0.3-1.7c-0.5-0.4-1.3-0.3-1.8,0.1s-0.9,0.9-1.2,1.5c-0.2,0.3-0.3,0.7-0.3,1.1s0.4,0.7,0.7,0.7
	C267.3,131,267.4,130.9,267.6,130.8z"/>
<path fill="#EAEAEA" stroke="#4E9BD7" stroke-miterlimit="10" d="M277,120.9c0.1,0.1,0.3,0.1,0.5,0.1c1.1-0.1,2.1-0.6,2.8-1.3
	c0.2-0.2,0.4-0.4,0.5-0.7c0.2-0.7-0.2-1.5,0.3-2c0.1-0.2,0.3-0.3,0.4-0.4c0.2-0.2,0.2-0.5,0.2-0.8c0-0.9-0.2-1.8-0.6-2.6
	c-0.2-0.3-0.3-0.6-0.6-0.8c-0.7-0.4-1.6-0.1-2.1,0.5c-0.5,0.6-0.6,1.4-0.6,2.2c0,0.8,0,1.6-0.2,2.3c-0.3,1.1-1.3,2.2-0.9,3.2
	C276.8,120.7,276.9,120.8,277,120.9z"/>
<path fill="#EAEAEA" stroke="#D6D6D6" stroke-miterlimit="10" d="M323.7,160.3c0.7,1.5,0.8,3.3,0.4,5c-0.4,1.7-1.2,3.2-2,4.7
	c-0.3,0.5-0.6,1-1,1.3c-0.4,0.3-1.1,0.5-1.6,0.2c-0.3-0.2-0.5-0.4-0.7-0.6c-1-0.8-2.6-0.1-3.3,1c-0.7,1.1-1,2.4-1.7,3.5
	c-0.7,1.1-2.3,1.9-3.3,1.1c-0.7-0.5-0.8-1.5-0.7-2.3c0.1-0.8,0.4-1.6,0.5-2.5c0-0.8-0.2-1.7,0.1-2.4c0.4-1.1,2.1-1.1,2.9-2
	c0.8-0.8,0.4-2.2,0.6-3.3c0.2-0.8,0.3-1.6,0.7-2.3s1.1-1.3,1.9-1.3c0.5,0,1.1,0.2,1.6,0c0.7-0.3,1-1.2,1.6-1.7
	c0.6-0.5,1.6-0.5,2.3-0.2C322.8,158.9,323.3,159.5,323.7,160.3z"/>
<path fill="#EAEAEA" stroke="#D6D6D6" stroke-miterlimit="10" d="M348.4,24.8c-0.1-0.1-0.2-0.3-0.2-0.5c-0.3-1-0.3-2-0.1-3
	c0.2-0.7,0.6-1.5,1.3-1.6c0.9-0.1,1.6,0.9,1.9,1.8c0.1,0.4,0.2,0.8,0.3,1.1c0.1,0.5,0.2,1.1,0.2,1.6c-0.1,0.5-0.4,1.1-0.9,1.3
	c-0.6,0.3-1.3,0-1.9-0.3C348.7,25,348.5,24.9,348.4,24.8z"/>
<path fill="#EAEAEA" stroke="#D6D6D6" stroke-miterlimit="10" d="M351.6,32.9c0,0.7,0.8,1.1,1.4,1.3c0.2,0.1,0.3,0.1,0.5,0.1
	c0.7,0,1-1,1-1.7c0-0.7,0.5-1.6,0.1-2.2c-0.3-0.6-1.4-0.2-1.9,0.2c-0.5,0.4-0.8,1.1-1,1.7C351.6,32.5,351.6,32.7,351.6,32.9z"/>
<path fill="#EAEAEA" stroke="#D6D6D6" stroke-miterlimit="10" d="M14.9,345.3c-0.1,0.2-0.3,0.3-0.5,0.4c-0.8,0.4-1.7-0.1-2.4-0.7
	c-0.6-0.4-1.2-0.8-1.8-1.2c-0.4-0.3-0.9-0.6-1.2-1.1c-0.3-0.4-0.5-1-0.3-1.5c0.4-0.9,1.7-0.5,2.6-1c0.7-0.3,1-1.1,1.6-1.5
	c0.8-0.5,1.9,0,2.4,0.8c0.5,0.8,0.4,1.8,0.4,2.7C15.7,343.3,15.6,344.4,14.9,345.3z"/>
<path fill="none" stroke="#D6D6D6" stroke-miterlimit="10" d="M30.5,366.8c0.8-1.8,1.7-3.5,2.7-5.2c0.7-1.2,1.4-2.5,2.1-3.7
	c1.2-2.2,2.5-4.4,4.6-5.9"/>
<path fill="none" stroke="#D6D6D6" stroke-miterlimit="10" d="M11.2,223.6c3.7,1.8,8.5,1.5,12.6,1.3c1.3-0.1,2.7-0.1,3.9,0.3
	c3,0.8,5.1,3.5,7.5,5.5c5.1,4.2,12.2,5.7,16.9,10.4"/>
<path fill="none" stroke="#D6D6D6" stroke-miterlimit="10" d="M199.3,292.9c-1,5.1-2,10.2-2.9,15.3c-0.5,2.4-1,4.9-2.1,7.1
	c-0.9,1.8-2.3,3.4-3.1,5.4c-0.5,1.2-0.7,2.5-0.9,3.8c-0.6,4.2-1.2,8.5-1.8,12.7c-0.7,5.5-1.3,11-3.1,16.2c-1.5,4.4-3.8,8.6-4.8,13.1
	"/>
<path fill="none" stroke="#D6D6D6" stroke-miterlimit="10" d="M149.4,367.3c-0.3-7.5,5.3-13.9,7.4-21.2c0.6-2.1,0.9-4.3,1.2-6.5"/>
<path fill="none" stroke="#D6D6D6" stroke-miterlimit="10" d="M310.9,176.7c-1.7,2-2.5,4.7-2.2,7.3c0.2,1.8,0.9,3.6,1.3,5.4
	c1.6,7.2-2.4,14.4-4.2,21.6c-0.5,2.1-0.8,4.2-1.1,6.3c-1,7.8-1.3,15.8-1.6,23.7c-0.3,7.4-0.5,15,1.8,22"/>
<path fill="none" stroke="#4E9BD7" stroke-miterlimit="10" d="M170,136.7c1.8-5.8,3.6-11.6,5.4-17.4c0.5-1.5,1-3.1,1.7-4.5
	c0.8-1.4,1.8-2.7,2.4-4.3c0.7-2,0.2-4.8-1-6.5"/>
<path fill="#7BBCEB" stroke="#4E9BD7" stroke-miterlimit="10" d="M185,150c-0.4,3.1,1.9,5.7,3.6,8.4c0.4,0.7,0.8,1.4,1,2.2
	c0.2,0.8,0.2,1.6,0.3,2.5c0.6,5.1,5.6,8.6,7.5,13.4c0.5,1.2,0.7,2.4,1,3.6c1.1,5.5,2,12.3,1.9,16.6c0,0.3,0.8,0.5,0.9,0.7
	c1,2.3,3.5,3.6,5,5.6c1.5,2.1,3.7,5.4,2,7.3c-0.5,0.6-2.5-0.7-2.3,0c1,5.4-2.4,9.5-5.3,13.5c-0.2,0.2-0.4,0.5-0.6,0.7
	c-0.7,0.4-1.6-0.2-2-0.9s-0.5-1.5-0.9-2.2c-0.8-1.5-2.6-2.2-3.5-3.6c-1.2-1.8-0.9-4.3-2.3-5.9c-0.5-0.5-1.2-0.9-1.5-1.6
	c-0.6-1.3-0.4-4.7-1.3-4.9c-1-0.4-2.1-0.8-2.9-1.5c-1.8-1.5-2.1-4.2-2.9-6.4c-0.8-2-2.2-3.8-3.6-5.5c-1-1.3-2.1-2.6-3.1-3.9
	c-1.5-1.8-3.2-3.8-5.6-4.1c-0.9-0.1-1.9,0.1-2.8-0.2c-0.7-0.3-1.2-0.8-1.8-1.2c-1.3-0.8-3.1-0.2-4.5-0.8c-1.1-0.5-0.2-2.6-1-3.6
	c-0.3-0.4-0.8-0.7-1.2-1.1c-0.7-0.6-0.9-1.6-1.3-2.4c-0.5-0.8-1.4-1.1-2.3-1c-1.4,0.2-3-1.2-4.4-1.5c-0.7-0.2-1.5-0.4-2.2-0.9
	c-1.3-0.9-1.7-2.5-2.1-4c-0.3-1.2-0.6-2.5-0.1-3.6c0.3-0.6,0.8-1.1,1.1-1.8c0.5-0.9,0.6-1.9,1.1-2.9c0.4-0.9,1.2-1.7,1.9-2.4
	c3.7-3.8,7.9-7.6,9-12.8c0.1-0.5,0.2-1,0.5-1.4c0.4-0.5,1-0.7,1.6-0.9c2.2-0.8,4.3-2.1,5.9-3.8c0.5-0.5,1-1,1.6-1.1
	c1.1-0.1,1.2,1.6,1.9,2.4c1.1,1.3,2.5-2.8,4.2-2.5c0.7,0.1,1.1,0.7,1.7,1c1.5,0.8,3.6-0.5,4.8,0.6c0.6,0.6,1.2,1.1,1.7,1.8
	c0.8,1.2,0.2,2.9,0.7,4.3C184.9,146.1,185.3,148.2,185,150z"/>
<path fill="none" stroke="#4E9BD7" stroke-miterlimit="10" d="M185.8,101c0.8-0.1,1.6-0.1,2.3,0.2c0.3,0.2,0.6,0.4,0.9,0.7
	c1,0.9,2.1,1.5,3.4,2c1,0.3,2,0.6,2.7,1.3c0.3,0.3,0.6,0.7,0.9,1c0.9,0.8,2.6,0.9,3.9,0.9"/>
<path fill="none" stroke="#4E9BD7" stroke-miterlimit="10" d="M202.1,108.3c1,0,2,0.6,2.9,1.2c1.7,1.1,3.7,1.8,5.6,2.6
	c0.7,0.3,1.3,0.5,2,0.8c4.6,1.8,9.3,3.6,13.2,6.5c0.9,0.6,1.7,1.4,2.3,2.3c0.5,0.7,0.8,1.6,1.3,2.3c0.8,1.2,2.2,1.9,3.4,2.8
	s2.3,3.1,2.1,4.1"/>
<path fill="none" stroke="#4E9BD7" stroke-miterlimit="10" d="M232.8,136.4c-0.5,1,0,2.3,1,2.8c0.9,0.4,1.9,0.1,2.8,0.1
	c2.1-0.1,4.1,0.9,6.2,1.5c3.6,1.1,8.1,1,11.8-0.1"/>
<path fill="none" stroke="#4E9BD7" stroke-miterlimit="10" d="M261.5,136.1c1.3-0.1,2.6,0.1,3.7,0.6c1.1,0.4,2.3,1.4,3.2,2"/>
<path fill="none" stroke="#4E9BD7" stroke-miterlimit="10" d="M271.1,140.5c0.7,0,1.9-0.4,2.5-0.7"/>
<path fill="none" stroke="#4E9BD7" stroke-miterlimit="10" d="M275.6,130.9c0.9-0.8,1.6-2.1,2.5-2.9c0.5-0.4,1-1,1.1-1.6
	c0-0.3,0-0.6,0.1-0.8c0.2-0.5,0.7-0.8,1-1.2c0.5-0.6,0.6-1.4,0.4-2.1s-0.5-1.4-0.9-2"/>
<path fill="#FFFFFF" stroke="#4E9BD7" stroke-miterlimit="10" d="M167.6,168.6c-0.8-0.3-1.8-0.2-2.5,0.3c-0.3,0.2-0.5,0.6-0.8,0.9
	c-0.4,0.6-0.7,1.2-0.9,1.8c-0.2,0.7-0.1,1.4,0.3,1.9c0.2,0.3,0.7,0.5,1,0.3c1-0.9,1.7-2,2.5-3c0.3-0.3,0.6-0.7,0.7-1.1
	C168.1,169.3,168,168.7,167.6,168.6z"/>
<path fill="none" stroke="#585858" stroke-miterlimit="10" stroke-dasharray="4,1" d="M192.3-14.6c0.4,0.4,0.9,0.9,1.4,1.1
	c1.4,0.6,2.8,1.2,4.3,1.3c0.9,0,1.8-0.1,2.6,0.2c2,0.7,2.5,3.2,2.3,5.3c-0.2,2.1-0.9,4.2-0.2,6.2c0.5,1.3,1.5,2.2,2.3,3.3
	c1.9,2.7,2.3,6.2,1.9,9.5s-3.5,7-1.7,9.7c1.2,1.7,3.5-3.5,5.2-2.4c1,0.6,0.5,2.1,0.4,3.3c-0.1,2,2.2,2.6,3.8,3.9
	c0.8,0.7-0.4,2.5,0.4,3.2c0.7,0.6,1.7-0.7,2.5-1.2c0.8-0.5,2-0.8,2.6-0.1c0.4,0.4,0.4,1.1,0.4,1.7c-0.1,1.9-1.8,4.6-0.3,5.8
	c0.8,0.7,2.1-1.3,3.1-0.9c1.5,0.6,0.9,3.7,2.5,4.1c1.1,0.3,2-1.2,3.1-1.2s1.5,1.2,2.4,1.9c2.3,1.8,5.5,1.5,7.6,3.6
	c2.3,2.2,4.9,5.1,4.1,8.2c-0.4,1.5-1.4,3.1-0.4,4.3c1.2,1.4,4.3-0.2,5,1.4c1,2.3-2.9,4.8-1.7,7c0.3,0.6,0.9,1,1.5,1.4
	c0.9,0.6,1.9,2.6,2.8,1.9c0.2-0.2,0.3-0.1,0.5,0.1c1.1,1,1.8,2.2,2.7,3.3c0.9,1.1,2.2,2,3.6,2c0.8,0,1.5-0.3,2.3-0.4
	c1.2-0.1,2.4,0.5,3.5,0c0.6-0.3,1-0.8,1.5-1.3c0.9-0.8,2.1-1.2,3.3-1.1c0.3,0,0.5,0.1,0.8,0.2c0.3,0.3,0.4,0.8,0.5,1.2
	c0.4,1.5,1.4,2.6,2,4c1.5,3.2,4.4,5,4.6,8.1c0.1,0.8,0.2,1.6,0.7,2.3c0.9,1.4,2,2.9,3.6,3.1c1.4,0.2,2.7-0.7,3.8-1.5
	c0.8-0.6,1.5-1.1,2.2-1.8c0.7-0.7,1.2-1.5,1.9-2.1c0.7-0.6,1.6-1.2,2.6-1c0.9,0.2,2.8,1.4,3.5,0.8c1.9-1.7,1.4-4.9,2.2-7.3
	c0.6-1.9,0.8-3.9,0.9-5.9c0.1-1.5,0.2-3.1,0.4-4.6c0.1-1.8,0.3-3.6,1.1-5.2c0.1-0.3,0.3-0.6,0.6-0.7c0.5-0.3,1.2,0,1.6,0.4
	s0.6,1,1,1.5c0.7,1.1,2,2.2,3.2,1.8c2.2-0.8,0.8-4.7,2.4-6.4c0.7-0.8,1.8-1.1,2.5-1.9c0.4-0.5,0.6-1.1,0.9-1.7
	c1.5-3.8,1.9-6.9,5.2-9.3c1.5-1.1,2.1-2.9,3.4-4.3c1.3-1.4,2.8-2.9,4.7-2.8c0.5,0,0.9,0.1,1.4,0.1c2.6,0,3.8-3.4,6.2-4.4
	c0.3-0.1,0.6-0.2,0.9-0.1c0.3,0.1,0.5,0.4,0.6,0.7c0.9,1.4,1.7,2.9,2.6,4.3c0.6,0.9,1.2,1.9,2.2,2.3c1,0.3,1.7-0.6,2-1.7
	c0.2-0.7,1.4,0,1.8,0.6s0.4,1.4,0.8,2c0.7,1.3,2.2,1.7,3.6,2c0.9,0.2,1.9,0.3,2.5-0.3c0.5-0.5,0.5-1.3,0.7-2
	c0.1-0.7,0.6-1.5,1.3-1.5c0.9,0,1.2,1,1.4,1.9c1,3.8,3.8,7,4.9,10.8c1,3.6,2.1,7.7,1.7,11.5c-0.3,3.2-5.2,7.2-4.5,8.6
	c1.2,2.3,4.9-4.9,7-3.4c2.1,1.6-0.8,5.4,0.3,7.8c1.2,2.5,3.9,3.9,6.4,5.2c0.3,0.1,0.6,0.3,0.7,0.6c0.1,0.2,0.1,0.5,0.1,0.7
	c-0.1,1.8,1.8,3.3,3.5,3"/>
<text transform="matrix(1 0 0 1 64.7676 190.4472)"><tspan x="0" y="0" fill="#585858" font-family="'Verdana-Italic'" font-size="8">Ottoway</tspan><tspan x="0" y="9.6" fill="#585858" font-family="'Verdana-Italic'" font-size="8">Peak</tspan></text>
<text transform="matrix(1 0 0 1 51.5449 285.4888)"><tspan x="0" y="0" fill="#585858" font-family="'Verdana-Italic'" font-size="8">Merced</tspan><tspan x="0" y="9.6" fill="#585858" font-family="'Verdana-Italic'" font-size="8">Peak</tspan></text>
<text transform="matrix(1 0 0 1 20.1394 290.4471)" fill="#585858" font-family="'Verdana-Italic'" font-size="8">11726</text>
<path fill="none" d="M1.7,302.3c19.3,7.4,37.3,18.2,53,31.7c2.5,2.2,5,4.4,6.7,7.2"/>
<text transform="matrix(0.8324 0.5541 -0.5541 0.8324 33.5618 321.3544)"><tspan x="0" y="0" fill="#7D7D7D" font-family="'Verdana-Italic'" font-size="7">1</tspan><tspan x="4.4" y="0" fill="#7D7D7D" font-family="'Verdana-Italic'" font-size="7" rotate="1.4">1</tspan><tspan x="8.8" y="0.1" fill="#7D7D7D" font-family="'Verdana-Italic'" font-size="7" rotate="2.8">0</tspan><tspan x="13.1" y="0.3" fill="#7D7D7D" font-family="'Verdana-Italic'" font-size="7" rotate="4.3">0</tspan><tspan x="17.5" y="0.6" fill="#7D7D7D" font-family="'Verdana-Italic'" font-size="7" rotate="5.7">0</tspan></text>
<path fill="none" d="M34.4,76.1c1.8-4.3,3.7-8.6,5.5-13c1.4-3.3,2.9-6.8,5.2-9.5c2.1-2.5,5-4.6,6.4-7.6"/>
<text transform="matrix(0.3912 -0.9203 0.9203 0.3912 38.2248 73.5965)"><tspan x="0" y="0" fill="#7D7D7D" font-family="'Verdana-Italic'" font-size="7">1</tspan><tspan x="4.5" y="0" fill="#7D7D7D" font-family="'Verdana-Italic'" font-size="7">0</tspan><tspan x="8.9" y="0" fill="#7D7D7D" font-family="'Verdana-Italic'" font-size="7" rotate="0.1">4</tspan><tspan x="13.2" y="0" fill="#7D7D7D" font-family="'Verdana-Italic'" font-size="7" rotate="4">0</tspan><tspan x="17.2" y="0.2" fill="#7D7D7D" font-family="'Verdana-Italic'" font-size="7" rotate="13.7">0</tspan></text>
<text transform="matrix(1 0 0 1 306.7476 329.758)"><tspan x="0" y="0" fill="#585858" font-family="'Verdana-Italic'" font-size="8">Triple Divide</tspan><tspan x="0" y="9.6" fill="#585858" font-family="'Verdana-Italic'" font-size="8">Peak</tspan></text>
<text transform="matrix(1 0 0 1 270.2476 330.8413)" fill="#585858" font-family="'Verdana-Italic'" font-size="8">11611 </text>
<text transform="matrix(1 0 0 1 109.4143 130.4247)" fill="#585858" font-family="'Verdana-Italic'" font-size="8"> 10852</text>
<text transform="matrix(0.5343 0.8453 -0.8453 0.5343 165.2934 155.8707)" fill="#FFFFFF" font-family="'Verdana-Italic'" font-size="8">Edna    Lake</text>
<path fill="none" d="M289.2,74.8c3.2-6.2,3.1-13.6,4.5-20.5c1.7-8.2,6.4-16.2,14-19.7"/>
<text transform="matrix(0.1873 -0.9823 0.9823 0.1873 295.5708 58.0085)"><tspan x="0" y="0" fill="#7D7D7D" font-family="'Verdana-Italic'" font-size="7">9</tspan><tspan x="4.2" y="0" fill="#7D7D7D" font-family="'Verdana-Italic'" font-size="7" rotate="6.5">6</tspan><tspan x="8.3" y="0.4" fill="#7D7D7D" font-family="'Verdana-Italic'" font-size="7" rotate="13.8">0</tspan><tspan x="12.2" y="1.4" fill="#7D7D7D" font-family="'Verdana-Italic'" font-size="7" rotate="22.2">0</tspan></text>
<path fill="none" d="M202.8,137.9c0.9,1.3,1.4,2.9,1.8,4.5c1.2,4.7,2.4,9.4,3.7,14.1c0.9,3.5,1.8,7.1,3.7,10.2
	c1.1,1.9,2.5,3.6,3.9,5.2"/>
<text transform="matrix(0.252 0.9677 -0.9677 0.252 202.3716 143.945)"><tspan x="0" y="0" fill="#7D7D7D" font-family="'Verdana-Italic'" font-size="7">1</tspan><tspan x="4.5" y="0" fill="#7D7D7D" font-family="'Verdana-Italic'" font-size="7" rotate="0">0</tspan><tspan x="8.9" y="0" fill="#7D7D7D" font-family="'Verdana-Italic'" font-size="7" rotate="0">2</tspan><tspan x="13.4" y="0" fill="#7D7D7D" font-family="'Verdana-Italic'" font-size="7" rotate="-0.6">0</tspan><tspan x="18.1" y="0" fill="#7D7D7D" font-family="'Verdana-Italic'" font-size="7" rotate="-5.6">0</tspan></text>
<path fill="none" d="M16.9,137.4c1.8,5.9,6.4,10.8,12.1,13.1c2.7,1.1,5.6,1.6,8.1,3c6.7,3.8,8.3,12.7,12.7,19"/>
<text transform="matrix(0.9552 0.2959 -0.2959 0.9552 29.0538 153.2975)"><tspan x="0" y="0" fill="#7D7D7D" font-family="'Verdana-Italic'" font-size="7">1</tspan><tspan x="4.1" y="-0.1" fill="#7D7D7D" font-family="'Verdana-Italic'" font-size="7" rotate="7.9">1</tspan><tspan x="7.8" y="0.3" fill="#7D7D7D" font-family="'Verdana-Italic'" font-size="7" rotate="26.6">2</tspan><tspan x="11.2" y="2" fill="#7D7D7D" font-family="'Verdana-Italic'" font-size="7" rotate="40">0</tspan><tspan x="14.4" y="4.7" fill="#7D7D7D" font-family="'Verdana-Italic'" font-size="7" rotate="46.3">0</tspan></text>
<path fill="none" d="M243.7,211.3c1.9-0.4,3.9-0.2,5.8-0.2c2.5,0,5.1-0.4,7.5-1.2c6.2-2,12.8-10.2,18.3-6.7"/>
<text transform="matrix(0.9999 -1.730510e-02 1.730510e-02 0.9999 247.8775 213.7316)"><tspan x="0" y="0" fill="#7D7D7D" font-family="'Verdana-Italic'" font-size="7">1</tspan><tspan x="4.9" y="0" fill="#7D7D7D" font-family="'Verdana-Italic'" font-size="7" rotate="-10.5">0</tspan><tspan x="9.9" y="-1" fill="#7D7D7D" font-family="'Verdana-Italic'" font-size="7" rotate="-24.4">6</tspan><tspan x="14.2" y="-3.1" fill="#7D7D7D" font-family="'Verdana-Italic'" font-size="7" rotate="-32.1">0</tspan><tspan x="17.9" y="-5.4" fill="#7D7D7D" font-family="'Verdana-Italic'" font-size="7" rotate="-30.3">0</tspan></text>
<path fill="none" d="M305.8,292c3.1,0,6-1.5,9-2.6c2.9-1.1,6.2,0.4,9.1-0.7c3-1.1,5-2.3,8.2-2.3c2.2,0,3.9-2.2,6.1-2.3"/>
<text transform="matrix(0.9969 -7.855992e-02 7.855992e-02 0.9969 314.6265 291.6828)"><tspan x="0" y="0" fill="#7D7D7D" font-family="'Verdana-Italic'" font-size="7">1</tspan><tspan x="4.2" y="0.3" fill="#7D7D7D" font-family="'Verdana-Italic'" font-size="7" rotate="5">1</tspan><tspan x="9.6" y="0.4" fill="#7D7D7D" font-family="'Verdana-Italic'" font-size="7" rotate="-17.4">0</tspan><tspan x="13.4" y="-1" fill="#7D7D7D" font-family="'Verdana-Italic'" font-size="7" rotate="-7.3">0</tspan><tspan x="18.5" y="-1" fill="#7D7D7D" font-family="'Verdana-Italic'" font-size="7" rotate="-20.5">0</tspan></text>
<path fill="none" d="M157.9,312.1c5.4-3.7,10.2-8.2,15.1-12.5c3.7-3.2,7.5-6.2,11.8-8.4"/>
<text transform="matrix(0.7685 -0.6399 0.6399 0.7685 164.2061 310.5529)"><tspan x="0" y="0" fill="#7D7D7D" font-family="'Verdana-Italic'" font-size="7">1</tspan><tspan x="4.5" y="0" fill="#7D7D7D" font-family="'Verdana-Italic'" font-size="7" rotate="-1.3">0</tspan><tspan x="9" y="-0.1" fill="#7D7D7D" font-family="'Verdana-Italic'" font-size="7" rotate="-1.4">8</tspan><tspan x="13.4" y="-0.2" fill="#7D7D7D" font-family="'Verdana-Italic'" font-size="7" rotate="-0.3">0</tspan><tspan x="17.7" y="-0.3" fill="#7D7D7D" font-family="'Verdana-Italic'" font-size="7" rotate="2.6">0</tspan></text>
<path fill="none" d="M197.6,28.1c0.3,1.4,1.3,2.6,2.2,3.8c3.3,4,6.5,7.9,9.8,11.9c0.5,0.6,1.1,1.3,1.8,1.6"/>
<text transform="matrix(0.6358 0.7718 -0.7718 0.6358 196.4224 31.7824)"><tspan x="0" y="0" fill="#7D7D7D" font-family="'Verdana-Italic'" font-size="7">9</tspan><tspan x="4.4" y="0" fill="#7D7D7D" font-family="'Verdana-Italic'" font-size="7">8</tspan><tspan x="8.9" y="0" fill="#7D7D7D" font-family="'Verdana-Italic'" font-size="7">0</tspan><tspan x="13.3" y="0" fill="#7D7D7D" font-family="'Verdana-Italic'" font-size="7">0</tspan></text>
<g>
	<g>
		<polyline fill="none" stroke="#7D7D7D" stroke-miterlimit="10" points="85.2,341.6 85.2,348.7 275.4,348.7 275.4,341.7 		"/>
		<line fill="none" stroke="#7D7D7D" stroke-miterlimit="10" x1="180.5" y1="341.4" x2="180.5" y2="348.7"/>
		<line fill="none" stroke="#7D7D7D" stroke-miterlimit="10" x1="161.2" y1="349.2" x2="161.2" y2="343.7"/>
		<line fill="none" stroke="#7D7D7D" stroke-miterlimit="10" x1="142.4" y1="349.2" x2="142.4" y2="343.7"/>
		<line fill="none" stroke="#7D7D7D" stroke-miterlimit="10" x1="123.3" y1="349.2" x2="123.3" y2="343.5"/>
		<line fill="none" stroke="#7D7D7D" stroke-miterlimit="10" x1="104.6" y1="349.2" x2="104.6" y2="343.7"/>
	</g>
	<text transform="matrix(1 0 0 1 83.7836 339.1467)" fill="#7D7D7D" font-family="'Verdana'" font-size="8">0</text>
	<text transform="matrix(1 0 0 1 174.2947 339.1467)" fill="#7D7D7D" font-family="'Verdana'" font-size="8">0.5</text>
	<text transform="matrix(1 0 0 1 258.3416 339.1467)" fill="#7D7D7D" font-family="'Verdana'" font-size="8">1 mi</text>
</g>
</svg>
