<?xml version="1.0" encoding="utf-8"?>
<!-- Generator: Adobe Illustrator 17.1.0, SVG Export Plug-In . SVG Version: 6.00 Build 0)  -->
<!DOCTYPE svg PUBLIC "-//W3C//DTD SVG 1.1//EN" "http://www.w3.org/Graphics/SVG/1.1/DTD/svg11.dtd">
<svg version="1.1" id="Layer_1" xmlns="http://www.w3.org/2000/svg" xmlns:xlink="http://www.w3.org/1999/xlink" x="0px" y="0px"
	 viewBox="0 0 360 360" enable-background="new 0 0 360 360" xml:space="preserve">
<path fill="none" stroke="#E1E1E1" stroke-miterlimit="10" d="M-12.3,364c1.6-0.5,3.3-0.2,5-0.4c4.9-0.4,8.7-4.2,13.1-6.2
	c3.8-1.6,8-1.9,12-2.8c11-2.2,21.2-8.7,27.8-17.9c1.2-1.7,3.2-3.6,4.9-2.5c0.5,0.3,0.9,0.9,1.2,1.4c1.8,3.1,3.4,6.4,4.7,9.7
	c1.5,3.8,2.7,7.7,4.7,11.2c2,3.5,5.1,6.7,9,7.8c2.8,0.8,5.8,0.4,8.7,1.1c1.4,0.3,2.9,1.1,3.9,2.1"/>
<path fill="none" stroke="#E1E1E1" stroke-miterlimit="10" d="M-11.6,336.7c7.9,0,15.8-2.1,23.5-4.2c1.4-0.4,2.9-0.8,4.1-1.8
	c0.9-0.7,1.7-1.8,2.8-1.9c1.5-0.1,2.7,1.6,4.2,1.7c2.6,0.2,3.1-3.7,5.1-5.3c1.4-1.1,3.5-1.1,5-2.1c5.7-3.7-2.8-15.3,3-18.7
	c0.8-0.5,1.7-0.6,2.6-0.8c4.7-0.9,9.4-1.8,14.2-2.6c2.8-0.5,5.7-1,8.3,0.1c2.6,1.1,4.3,4.6,2.6,6.8c-0.8,1.1-2.3,1.7-3.1,2.8
	c-1.6,2.1-0.5,5.1,0.7,7.5c2.9,5.9,6,12,10.9,16.4c4,3.7,9.1,6,14.1,8.3c3.9,1.8,8.6,3.9,9.3,8.7c0.4,2.8,0.1,5.7,2,7.9
	c0.7,0.8,1.6,1.5,2.1,2.5c0.5,1,0.4,2.3,0.9,3.3c0.5,0.9,1.4,1.6,2.3,2.1"/>
<path fill="none" stroke="#E1E1E1" stroke-miterlimit="10" d="M-11.8,311.6c3-0.4,6-0.8,8.9-0.9c3.4-0.1,7.1-0.4,9.6-2.7
	c3.2-2.9,3.3-7.9,3.2-12.2c-0.3-7.5-0.6-15.4-4.5-21.9c-1.4-2.4-3.3-4.6-3.6-7.3c-0.5-4.1,2.9-7.8,6.8-9.2s8.1-0.9,12.2-0.3
	c14.3,1.9,28.5,4.1,42.8,6.3c5.9,0.9,11.9,1.3,17.9,0.8c3.5-0.3,5.6-4.2,9.7-3.1c5.5,1.6,3.3,10.3,4.9,15.7c0.7,2.4,1.4,4.8,2.7,6.9
	c0.9,1.4,2,2.8,2.5,4.4c0.3,1.2,0.3,2.6,1.2,3.5c0.5,0.5,1.3,0.7,2,0.9c3.2,1,5.9,3.4,7.4,6.5c0.5,1,0.8,2.3,0,3.2
	c-0.4,0.5-1.1,0.7-1.7,0.9c-1.7,0.5-3.4,1.1-5.1,0.9c-1.1-0.1-2.2-0.4-3.4-0.5c-1.1-0.1-2.3,0-3.4,0.2c-2.9,0.4-6,0.9-7.9,3.1
	c-2,2.2-2,5.5-1.6,8.4c0.5,2.9,1.4,5.8,1,8.8c-0.1,0.9-0.3,1.9-0.1,2.8c0.2,1,1,1.9,1.8,2.6c3.8,4.1,4.1,13,9.7,13.6
	c4,0.5,7.6-3.1,11.2-1.2c3.6,1.9,6.1,5.3,8.5,8.5c1.3,1.8,2.6,3.6,3.3,5.7c0.3,1,0.5,2.1,0.9,3.1c1.3,3.5,4,8.9,7.6,7.9
	c3.6-1.1,6.4-2.9,9.7-4.7c3.3-1.8,5.4-9.7,8.1-7.1c2.2,2,3.3,4.6,6.2,5.1c2.5,0.5,5.4,0.9,7.5-0.6c2.2-1.6,2.8-4.6,4.1-7
	c1.3-2.4,4-1.5,6.6-2.1c1.7-0.4,3.4-4.4,4-2.8c1.1,2.8-2.4,13-5.1,21.5"/>
<path fill="none" stroke="#E1E1E1" stroke-miterlimit="10" d="M-10.4,230.9c3.9-0.1,7.8,0.2,11.2-1.6c3.5-1.9,6.8-3,10.6-4.4
	c2.2-0.8,0.2-4.6-0.1-6.9c-0.3-2.3,0.6-5.3,2.9-5.6c1-0.1,2,0.3,2.9,0.7c6.8,2.8,14.2,3.8,21.5,2.9c2.1-0.2,4.4-0.6,6.1,0.6
	c1,0.7,1.7,1.8,2.2,3c1.8,4.4,1.3,9.4,2.3,14.1s4.7,9.6,9.4,9c4.2-0.6,6.7-5.1,10.7-6.5c3.4-1.2,7.4-0.1,10.5-2
	c4.2-2.7,3.3-9.2,0.5-13.4c-0.6-0.9-1.3-1.8-1.3-2.9c0-1.3,0.9-2.4,1.8-3.4c5.9-6.3,11.5-6.9,13.7-14.8c0.6-2.4,1.5-5.2,3.7-6.3
	c2.2-1.1,4.8-1.1,7.2-0.7c1.6,0.3,3.3,0.8,4.5,2c1.8,1.9,1.9,4.8,1.8,7.5c-0.2,6.5-0.5,13-0.7,19.5c-0.1,3.8-0.3,7.8-2.2,11.2
	c-1.6,2.9-5.2,4.1-7.4,6.7c-1.7,2,1.1,5.3,0.4,7.8c-0.3,1-0.9,1.8-1.2,2.8c-0.7,2.6,1.2,5.2,3.2,7c2,1.8,4.5,3.5,5.2,6
	c1.1,3.7-2.4,10.2,1.3,11.1c2.7,0.6,5.7,0.3,7.1,2.6c1,1.6,1.1,3.6,2,5.3c1.5,2.8,5.1,4.2,8,3.2c1-0.3,2-0.3,3-0.6
	c5.6-1.8,8.4-9.5,14.2-9.3c0.6,0,1.3,0.1,1.8,0.4c0.7,0.3,1.2,0.8,1.8,1.3c2,1.9,4.1,3.7,6.1,5.6c1,0.9,2,1.8,3.2,2.1
	c2.8,0.6,5.2-2,7.8-3.1c4.5-1.9,9.8,0.8,12.5,4.8c2.7,4,1.5,9.7,4.1,13.9c1.6,2.6,5,3.8,6.3,6.6c1.3,2.8-1.6,5.5-1.1,8.5
	c0.2,1.4,1.6,2.2,1.8,3.5c1,8.3,1.5,16.7,1.4,25.1c0,1.1,0,2.1-0.4,3.1c-0.3,1.1-1,2-1.6,3c-1.1,1.9-1.8,4-2.5,6.2
	c-1.4,4.4-2.7,8.9-3.8,13.4"/>
<path fill="none" stroke="#E1E1E1" stroke-miterlimit="10" d="M-13.2,193.3c8.1-2.5,17.2-3.3,25.6-4.3c5.3-0.7,10.7-1.6,15.4-4.1
	c4.6-2.5,8.6-6.6,13.7-7.6c5.5-1.1,11.3,1.8,15.1,6c3.8,4.2,6,13.9,9.4,14.9c6.5,1.9,28.4-28.8,34.6-43.5c0.5-1.3,1.7-2.2,3.1-2
	c1.4,0.3,2.5,1.2,3.6,2.1c0.6,0.4,1.2,0.9,1.9,0.9c0.7,0,1.3-0.2,1.9-0.5c3.2-1.5,6.5-3.1,9.7-4.6c1.1-0.5,2.3-1.1,3.6-1.1
	c2.6-0.1,4.8,2.1,5.5,4.6c0.8,2.4,0.5,5.1,0.2,7.6c-0.9,6.8-2,13.6-3.2,20.4c-0.7,4.5-1.5,9-1,13.5c0.5,5.1,2.6,10.2,1.6,15.3
	c-0.2,1.1-0.6,2.3-0.1,3.3c0.3,0.6,0.9,1.1,1.4,1.5c3.8,3.1,4.3,8.4,7,12.4c2.5,3.8,7.4,5,10.1,8.7c0.4,0.6,0.9,1.3,1.5,1.6
	c0.8,0.4,1.8,0.3,2.8,0.2c3.5-0.4,7-0.4,10.5,0.1c1.3,0.2,2.8,0.6,3.2,1.9c0.4,1.6-1.2,3.9,0.2,4.7c0.4,0.2,0.9,0.2,1.3,0.1
	c4.9-0.5,9.9-1.2,14.7-0.1c1.5,0.3,3,0.8,4.5,1c3.2,0.4,6.5-0.5,9.5-1.6c4.2-1.5,8.2-3.4,12.1-5.6c0.4-0.2,0.8-0.5,1.1-0.8
	c0.4-0.5,0.6-1.1,0.8-1.7c0.9-3.2,1.4-6.6,3.3-9.3c2-2.7,6.1-4.1,8.6-1.9c0.3,0.2,0.5,0.5,0.9,0.6c0.6,0.1,1.1-0.3,1.6-0.6
	c5-4.2,11-13.7,16.4-10.1c2.4,1.6,0.1,5.9-1.7,8.3c-3.4,4.5-8.4,7.6-10.2,13c-1,2.9-1.6,6.3-4,8.3c-1.5,1.2-3.5,1.7-4.8,3.1
	c-1.4,1.5-1.6,3.8-1.6,5.9c-0.5,13.1-0.6,26.7-5.5,38.9c-3.4,8.4-9,16.3-8.9,25.3c0,2.1,0.3,4.1,0.2,6.2c-0.3,3.9-2.2,7.5-2.8,11.4
	c-0.5,3.6,0.2,7.3-0.1,11c-0.4,5.2-3,10.2-2.8,15.4c0.1,2.1-0.3,4.6-0.5,7"/>
<path fill="none" stroke="#E1E1E1" stroke-miterlimit="10" d="M-10.3,152.5c6,1,12.3-6.3,17-10.8c2.7-2.5,5.1-5.4,7.5-8.3
	c3.8-4.5,7.6-8.7,12.7-11.7s11.3-4.5,17-2.9c0.9,0.2,1.7,0.5,2.6,0.5c0.7,0,1.3-0.3,2-0.5c7.5-2.7,17.1,3.1,23.6-1.6
	c6.5-4.6,0.3-16,0.6-24c0.7-17.1,5.9-33.7,11.1-50c0.4-1.3,0.9-2.8,2.2-3.4c3.9-2.1,7.3,6.3,11.6,4.9c1.4-0.5,2.3-1.9,3-3.2
	c1.1-2,2.1-4,3-6.1c2.2-5.2,3.1-10.8,5.7-15.8c2.1-4.2,5.4-7.8,9.3-10.3c1.7-1.1,3.5-2,4.8-3.5c1.5-1.7,2.2-4.1,2.8-6.3
	c1.4-4.9,2.7-9.7,4.1-14.6"/>
<path fill="none" stroke="#E1E1E1" stroke-miterlimit="10" d="M191.4,263.9c-3-1.7-6.7-1.9-9.9-0.8c-0.7,0.3-1.4,0.6-2.1,0.7
	c-1,0.2-2,0.1-2.9,0.2c-3.6,0.4-7.6,4.6-5.9,7.8c0.8,1.4,2.9,1.2,4.5,1c1.6-0.2,3.1-0.8,4.7-0.8c2.3-0.1,4.5,0.9,6.7,0.5
	c2.6-0.4,4.6-2.6,5.9-4.9c0.4-0.7,0.8-1.5,0.6-2.3C192.6,264.7,192,264.2,191.4,263.9z"/>
<path fill="none" stroke="#E1E1E1" stroke-miterlimit="10" d="M372.3,319c-1.5,0.9-2.4,2.5-3.2,4.1c-1.3,2.7-4.8,5.9-3.1,8.3
	c1,1.4,4.2-0.2,5.1,1.3c0.7,1-0.9,2.3-1.9,3.1s-2.1,1.5-2.7,2.6c-0.6,1.1,0.2,2.1,0.9,3.1c1.1,1.5-2.4,2.6-3.9,3.6
	c-3.2,2.1-4,6.7-7.3,8.8c-0.7,0.5-1.6,0.8-2.3,1.2c-1.7,1-1.9,3.6-3.7,4.4c-2.1,1-4.6,0.5-6.5,1.8c-0.8,0.6-1.7,1.1-2.5,1.7
	c-0.8,0.6-1.7,1.1-2.8,1.2c-1,0.1-1.4-1.1-2-2c-1.1-1.5-1.2-3.9-3-4.7c-2.3-1-2.6,4.7-5,5.2c-3.4,0.8-6.8-0.2-9.7-2
	c-2.6-1.6-4.5-4.3-7.1-2.8c-1.4,0.8-2.8-1.1-3.3-2.7c-0.5-1.5-1-3.5-2.6-3.7c-0.9-0.1-1.7,0.4-2.5,0.8c-2.5,1.6-5.1,6.4-7.5,4.7
	c-2.5-1.7,1-6,0.1-8.8c-0.8-2.8-3.2-5.4-6.1-5.6c-0.5,0-1,0-1.4-0.3c-0.9-0.6-0.5-1.9-0.1-2.9c2.8-5.9,5.5-11.9,8-17.9
	c1-2.5,2.1-5.1,2-7.8c-0.1-5.6-4.6-10.1-9.4-12.9c-1.7-1-3.6-1.9-4.9-3.4c-3.1-3.6,0.5-11.4-3.5-14.1c-5.2-3.6-12.6,0.4-18.8,1.6
	c-1.9,0.4-3.8,0.7-5.5,1.6c-3.1,1.5-5.3,4.2-7.2,7.1c-3.4,5.1-3.9,12.1-8.3,16.4c-2.8,2.7-8.1,6.7-11,4c-1.8-1.7-1.2-5-3.5-5.6
	c-2.4-0.6-5.3,3.6-7,1.7c-3.4-3.8,11.5-20.3,14.4-31.5c1.5-5.7,1.4-11.7,0.4-17.4c-0.2-1.6-0.6-3.2-0.2-4.7c0.2-1.2,0.8-2.2,1.3-3.3
	c4.5-8.5,9.1-17.1,15.5-24.2c2.1-2.3,4.5-4.5,6.3-7.1c1.1-1.5,1.9-3.2,2.8-4.8c6.9-13.5,12.8-27.5,17.6-41.8
	c1.9-5.7,3.7-11.8,2.6-17.7c-0.6-3.4-2.6-7-6-7.5c-1.3-0.2-2.7,0.1-4,0.4c-4.9,1.4-9.5,4-13.1,7.7c-1.1,1.1-2.1,2.3-3.1,3.5
	c-0.8,1-1.7,2-2.5,3c-3.3,3.9-5.1,9.8-9.8,11.6c-0.6,0.2-1,0-1.5-0.4c-1.5-1.2-1.8-3.7-3.7-4.3c-1.6-0.5-3.3,0.1-4.8,0.8
	c-1.9,0.8-3.8,1.7-5.1,3.2c-1.2,1.4-1.9,3.1-2.6,4.8c-2.1,5.1-2.4,15.4-7.8,14.5c-1.4-0.2-1.9-2.2-3.3-2.1c-1.4,0-2.7,1.9-4,1.3
	c-1.1-0.6-0.7-2.5-1.1-3.7c-1.5-4.5-1.8-10.5-5.9-12.9c-2.6-1.5-5.7,2-6.7,4.8c-1,2.8-0.8,5.8-0.7,8.8c0.2,6.1,3.2,13.7-0.9,18.2
	c-1.2,1.3-3.5,0.2-5-0.6c-0.6-0.3-1.2-0.7-1.8-0.7c-0.8-0.1-1.5,0.4-2.3,0.5c-1.5,0.3-2.2-1.5-3.5-2.2c-1.4-0.7-3.1,1.1-4.6,0.9
	c-1.6-0.2-2.2-1.8-3.3-2.9c-2.4-2.5-7.3,1.6-10.4-0.1c-2.4-1.3-2.5-5-4.6-6.8c-0.8-0.7-1.8-1.3-2.5-2.1c-0.7-0.8-1.1-1.7-1.5-2.6
	c-1.5-3.1-2.9-6.3-5.7-8.3c-1.1-0.9-2.5-1.5-3.2-2.8c-0.7-1.2-0.6-2.6-0.4-3.9c0.3-3.1,0.6-6.2,0.8-9.3c0.2-2.1,0.4-4.2,0.8-6.2
	c0.4-2.2,1-4.4,1.4-6.6c1-6.4-0.1-13.2-3.3-18.9c-1.6-3-4-5.4-7.4-5.8c-3.4-0.4-6.8,0.3-10.2,0.7c-5.2,0.6-10.5,0.5-15.7-0.4
	c-1.2-0.2-2.6-0.5-3.2-1.6c-0.6-0.9-0.5-2.2-0.5-3.3c-0.1-4.8-3.1-9-5.9-12.8c-3.5-4.7-6.6-10.9-10.1-15.5c-0.7-0.9-3-0.6-3.1,0.5
	c-0.4,9.2-2.8,20.5,0.5,30c0.7,1.9,4,4.9,4.4,6.9c1.2,6.1-16.3,26.2-19.8,25.5c-4.7-1-9.7-21.3-35.3-19.2c-2.6,0.2-5.2,1.2-7.4,2.6
	c-1.7,1.2-3.1,2.8-4.5,4.3c-4.1,4.7-8.3,9.4-12.4,14c-1.8,2-3.6,4.1-6,5.3c-1.8,0.9-3.7,1.6-5.7,1.5c-4.5-0.2-8.3-0.2-11.6-0.1"/>
<path fill="none" stroke="#E1E1E1" stroke-miterlimit="10" d="M372.8,240.9c-3.4,6.3-7.5,12.3-12.2,17.8c-1.8,2.1-3.7,4.4-3.5,7.1
	c0,0.7,0.2,1.4,0,2c-0.5,1.2-2.5,1.9-2.1,3.2c0.1,0.5,0.7,0.8,0.9,1.3c0.5,1.2-1.5,1.7-2.3,2.8c-1.1,1.4,1,3.3,1.7,4.9
	c0.7,1.6,1.4,4.9-0.4,4.9c-2.8,0-5.4-2.6-7.5-0.7c-2.3,2-2.9,7-5.9,7c-1.3,0-1.4-2.3-2.5-3.1s-2.5,0.5-3.7-0.1c-1-0.5,0.2-3-1-3.2
	c-1-0.2-2.1,0-2.5-1c-0.4-0.9-0.4-2-0.4-3c-0.2-4.3-2.8-10.6-7-10.1c-2.9,0.4-4.9,6.3-7.4,4.7c-3.2-2.1-1-7.7-3.3-10.7
	c-0.5-0.7-1.1-1.3-1.3-2.2c-0.1-0.7,0.1-1.3,0.2-2c0.9-3.4,1.8-6.9,2.7-10.3c0.8-3.1,1.6-6.2,1.4-9.3c-0.6-6.8-5.6-11.4-13.1-13.2
	c-1.8-0.4,0.1-3.2,2.2-3.8c1.8-0.5,0.6-2.9,1-4.7c0.8-3.5,5.8-4.2,6.5-7.8c0.7-3.5,0.1-7.2,0.2-10.8c0.1-4.1,1-8.2,0.1-12.2
	c-0.9-4-6-4.1-8.3-7.4c-1.8-2.6-0.1-6.1-0.1-9.3c-0.1-3,1.2-5.8,2.3-8.5c3.8-9.4,6.5-19.4,7.8-29.5c0.7-5.3-4.6-10.4-10-10.3
	c-0.5,0-1,0.1-1.5,0c-0.7-0.1-1.2-0.6-1.8-0.8c-14.2-4.8-15.4-0.2-17.6-1.7c-4.1-2.8-1.1-8.6-12-14.1c-5.7-2.9-12.1-2.5-14.8-2
	c-1.6,0.3-2.6-3.1-3.5-4.5c-0.9-1.4-2-3-3-4.2c-1.5-1.9-3.4-3.5-5.3-4.9c-3.5-2.5-8.5-0.1-11.2,3.2c-2.7,3.3-4.3,7.5-7.5,10.4
	c-0.5,0.5-1.1,1-1.5,1.6c-0.7,1.3-0.3,3.1-1.3,4.1c-1.4,1.4-3.8,0.2-5.6,0.9c-2.2,0.9-0.1,4.7-1.7,6.4c-2.5,2.7-5.8-4.1-8.5-6.6
	c-7.7-7.3-11.4-0.3-14.7-1.2c-1.2-0.3-2.8-2.3-3.9-3c-2.6-1.5-2.6-5.2-1.7-8.1c2.6-8,10.2-14.3,10.7-22.7c0-0.7,0-1.4-0.5-1.9
	c-0.4-0.4-1-0.6-1.6-0.6c-7.9-1.2-16.1-0.3-23.6,2.5c-1.1,0.4-2.6,0.8-3.4-0.2c-0.3-0.4-0.4-1-0.4-1.5c-0.7-7.1-1.3-14.6,2-21
	c1.6-3.2,4.2-5.9,5.4-9.2c0.9-2.6,1.1-5.6,2.9-7.6c0.7-0.8,1.7-1.4,2.5-2.1c1.6-1.3,2.8-3.1,3.9-4.9c3.6-5.9,6.7-12.1,9-18.6
	c1.9-5.4,3.5-11.3,7.4-15.5c4-4.4,10.3-6.9,12.5-12.4"/>
<path fill="none" stroke="#E1E1E1" stroke-miterlimit="10" d="M288.7-17.8c-1,2-0.1,4.3,0.6,6.4c1.4,4.5,1.6,9.4,0.5,14
	c-0.3,1.2-0.6,2.3-0.5,3.5c0.1,1.4,0.7,2.8,1.2,4.1c2.8,7.4,0.8,15.6,0.3,23.5c-0.3,4-0.1,8.1,0.8,12.1c0.7,2.9,1.8,5.7,2.4,8.6
	c0.7,3.2,0.7,6.5,0.8,9.8c0,2.3,0.1,4.5,0.1,6.8c0,1.1,0.1,2.3,0.7,3.1c1.1,1.3,3.1,1.2,4.8,0.8c2.2-0.5,4.4-1.3,6.6-2.1
	c5.8-2,11.7-4.1,17.5-6.1c2.3-0.8,4.7-1.6,6.8-2.8c3.6-2,6.6-5,10.4-6.4c2.3-0.9,5.7-0.6,6.3,1.7c0.3,1.2-0.2,3.6-0.2,4.9
	c0,7.7-6.5,15.8-6.7,20c0,0.6,3.3,0,3.9-0.2c3-1,6.5,0.2,9,3.3c1.7,2,2.4,4.6,3.2,7.2c0.4,1.3,0.8,2.7,0.7,4.1c0,1-0.3,2-0.1,3.1
	c0.3,2.1,2.1,3.5,2.9,5.4c0.9,2.3,0.3,4.9,0.8,7.3c0.5,2.2,1.9,4.1,2.6,6.3c1.2,3.4,0.7,7.3-0.9,10.5c-1.6,3.2-4.3,5.9-7.3,7.9
	c-1.5,1.1-3.4,2.2-3.7,4c-0.1,0.8,0.1,1.7,0.3,2.5c0.5,1.9-0.2,4.5,1.4,5.6c1.6,1.2,4.1-0.2,6,0.5c1.9,0.7,2.7,2.6,3.9,4.2
	c0.6,0.8,2,0,2.7-0.7c0.7-0.7,1.1-1.6,1.6-2.5c1.3-2.2,3.4-4,5.8-4.9"/>
<path fill="none" stroke="#E1E1E1" stroke-miterlimit="10" d="M324.4-16.7c0.4,8-1.1,16-4.4,23.3c-1.1,2.5-2.5,5.2-1.9,8
	c0.3,1.6,1.3,2.9,1.8,4.4c1,3.1-0.3,6.7,1,9.7c0.4,0.9,1,1.7,1.4,2.7c0.7,1.8,0.3,3.7,0.1,5.6c0,0.5-0.1,1.1,0.2,1.5
	c0.8,1.6,3.2,0.7,4.8,0c9-4.1,20.1,4.6,29.1,0.4c1.6-0.8,3-1.9,4.6-2.7c1.9-1,4.1-1.6,6.2-2.2c2.9-0.8,5.8-1.6,8.8-2.4"/>
<path fill="none" stroke="#E1E1E1" stroke-miterlimit="10" d="M-13.8,47.2c6.3,1.4,12.6,2.9,18.2,6.2c1.7,1,3.4,2.3,5.4,2.7
	c1.9,0.4,4,0.1,5.7,1.1c0.7,0.4,1.4,1.1,2.2,0.9c1.1-0.3,1.2-1.8,1.1-2.9C18.2,51,16.5,47,15.2,43C11,30.6,10.3,17.4,9.6,4.4
	c-0.1-1.9-0.2-3.9,0.6-5.6c1.6-3.5,6.2-4.5,10.1-4.6c3.3-0.1,6.7,0.1,9.8,1.4c6.5,2.7,10.6,10.3,9.3,17.2c-0.2,1-0.4,2.1,0.3,2.8
	c0.6,0.6,1.6,0.5,2.4,0.7c2.1,0.3,1.8,3.4,3.6,4.7c1.3,0.9,3-1.4,4.7-1.4c1.6,0,3.4,0.9,3.8,2.5c0.2,0.7,0.1,1.5,0.3,2.2
	c0.4,1.6,2.5,3.6,3.8,2.6c3.9-3.3,3.3-9.6,4.9-14.4c1.1-3.2,2.2-6.4,4.3-9s5.4-4.5,8.7-4c0.8,0.1,1.7,0.4,2.5,0.1
	c0.7-0.3,1.2-0.9,1.7-1.5c2.9-4,5.8-7.9,8.8-11.9c0.7-1,1.5-2.1,1.7-3.3"/>
<path fill="none" stroke="#E1E1E1" stroke-miterlimit="10" d="M21,102.4c-1.6,0.3-3.3-0.2-4.8-0.9c-1.2-0.5-2.6-1.4-2.8-2.7
	c-0.3-1.5,0.9-2.8,2-3.7c1.1-1,2.4-2,2.6-3.5c0.1-0.6,0-1.3,0.3-1.8c0.1-0.2,0.3-0.3,0.4-0.5c1-1,2.6-2.1,3.8-1.3
	c0.5,0.3,0.7,0.9,1,1.4c0.8,1.8,1.7,3.6,1.9,5.6c0.3,1.9,0,4.1-1.3,5.6C23.3,101.5,22.2,102.1,21,102.4z"/>
<path fill="none" stroke="#D6D6D6" stroke-miterlimit="10" d="M281.7,367.8c0.9-1.3,2-2.5,3.4-3.2c1.4-0.6,2.9-0.8,4.3-1.4
	c0.9-0.5,1.7-1.2,2.4-1.9c2.5-2.5,4.3-5.6,5.5-8.9c1.1-3.3,1.5-6.9,3-10.1c1.4-3.2,4.4-6.1,7.9-6c5,0.1,8.9-4.9,10.9-9.5
	c0.3-0.8,0.6-1.6,1.3-2.1c0.7-0.5,1.7-0.5,2.5-0.4c2.2,0.1,5.4,2.3,6.5,0.5c3.3-5.5,4.8-10.4,8.7-16.1c3.5-5.1,1.7-15.1,2.9-21.2
	c0.4-2.2,1.2-4.3,1.3-6.5c0.3-4.8-2.3-9.2-5-13.1c-1.3-1.8-2.6-3.7-2.6-5.9c0-3.3,1.7-4.3,2.9-7.4c0.6-1.6-0.5-4.4,0.1-6
	c2.1-6,6.4-12.2,9.6-17.6c2.2-3.6,2.5-8,4.8-11.5c4.4-7,8.6-14.2,11.1-22c3.2-9.7,3.8-20,3.6-30.2c0-2.2-0.1-4.4-0.7-6.4
	c-0.5-1.7-1.4-3.2-1.7-4.9c-0.6-3.2,0.6-6.5-0.3-9.6c-0.5-1.8-1.7-4-0.5-5.5c0.5-0.6,1.1-0.8,1.8-1.1c2.7-1.1,5.5-2.2,8.2-3.3"/>
<path fill="none" stroke="#D6D6D6" stroke-miterlimit="10" d="M316.4,368.7c3.4-5.6,5-12.3,4.6-18.9c-0.1-0.8-0.1-1.7,0.1-2.5
	c0.2-0.8,0.7-1.6,1.1-2.3c1-1.5,2.1-2.8,3.4-4.1c1.4-1.5,3.1-3,3.6-5c0.3-1,0.3-2.1,0.2-3.1c0-2.2-0.2-5.1-0.3-7.3"/>
<path fill="none" stroke="#D6D6D6" stroke-miterlimit="10" d="M139.5,324.3c1.1,0.2,2,1.1,3.5,1.2c0.7,0.1,1.6-0.2,2.2,0.3
	c0.1,0.1,0.3,0.3,0.4,0.3"/>
<path fill="none" stroke="#D6D6D6" stroke-miterlimit="10" d="M136.6,332.5c0.2,0.2,0.4,0.4,0.6,0.7"/>
<path fill="none" stroke="#D6D6D6" stroke-miterlimit="10" d="M56.5,239.3c4.8-15.2,6.4-30.4,10.1-45.9c1.2-4.9,1.7-10.9,3.1-15.7
	c4.2-14,4.9-28.7,3.7-44.2c-0.9-11.8-2.3-24.9-8.4-35c-1.3-2.1-2.8-4.2-4-6.3c-1.3-2.4-2.3-4.9-3.1-7.5c-2.4-7.9-2.8-16.4-1.3-24.6
	c0.7-3.5,1.7-7,1.2-10.5c-0.5-3.9-2.8-7.4-2.7-11.3c0.1-3.8,2.4-7.3,2.1-11.1c-0.3-4.6-4.3-8.2-5.3-12.8c-0.4-1.9-0.3-3.8-0.1-5.7
	C53,0.2,57-7.9,63.9-12.8"/>
<path fill="#EAEAEA" stroke="#D6D6D6" stroke-miterlimit="10" d="M139.4,336.4c0.8-0.6,0.7-1.9,0.6-2.9c-0.1-0.6-0.4-1.4-1-1.3
	c-0.2,0-0.4,0.1-0.5,0.2c-1.1,0.8-2,2-2.6,3.2c-0.2,0.4-0.3,0.7-0.3,1.1c0,0.4,0.3,0.8,0.7,0.9c0.5,0.1,1-0.3,1.5-0.6
	C138.3,336.9,138.9,336.8,139.4,336.4z"/>
<path fill="#EAEAEA" stroke="#D6D6D6" stroke-miterlimit="10" d="M161,323.3c-0.7-0.7-1.7-1-2.7-1.4c-1.6-0.6-2.7-0.2-4.4-0.4
	c-0.9-0.1-2.7,0.2-3.1,1c-0.2,0.3-0.1,0.7-0.2,1.1c-0.2,0.7-1,1.1-1.8,1.3c-0.8,0.2-1.6,0.2-2.2,0.6c-0.8,0.5-1.2,1.5-1.1,2.5
	c0.1,0.9,0.4,2.2,1.3,2.4c1.2,0.3,1.9,1.3,3.2,1.5c1,0.2,0.2-2.3,1.1-2.9c0.2-0.1,0.5-0.2,0.8-0.2c0.7-0.1,1.5,0,2.2,0
	c0.3,0,0.6,0.1,0.9,0c0.3-0.1,0.6-0.4,0.8-0.6c0.7-0.7,1.5-1.4,2.5-1.6c1-0.2,1.6,1.2,2.6,0.9C162.4,327.3,162,324.4,161,323.3z"/>
<path fill="#EAEAEA" stroke="#D6D6D6" stroke-miterlimit="10" d="M115.6,325.7c-0.1,0.2-0.2,0.5-0.4,0.6c-0.5,0.4-1.5,0.3-2.1,0.2
	c-1.1-0.2-1.7,0.6-1.7,1.7c0.1,1.1,0.8,2,1.7,2.8c0.2,0.2,0.4,0.4,0.6,0.5c0.4,0.1,0.7,0.1,1.1,0c2.8-0.3,5.7-0.4,8.6-0.2
	c0.8,0.1,1.5,0.1,2.2,0.4c1.5,0.6,2.2,1.3,4,1.8c1.4,0.3,0,3,0.6,4.3c0.5,1,2.1-0.3,2.3-1.4c0.3-1.1,0.3-2.4,1.3-2.9
	c0.5-0.3,1.2-0.3,1.8-0.6c0.7-0.4,1.7-1.4,2-2.1c1.1-3.1,1.5-6,1.7-9.2c0.1-3.3-0.8-6.7-3.1-8.9c-0.2-0.2-0.3-0.3-0.6-0.4
	c-0.9-0.2-1.5,1.3-2.4,1.2c-0.3,0-0.6-0.2-0.9-0.4c-2.1-1.2-4.9-0.4-7.1-1.5c-0.6-0.3-1.2-0.7-1.9-0.7c-0.5,0-0.9,0.2-1.4,0.5
	c-2.5,1.3-4.9,2.5-7.4,3.8c-0.7,0.4-1.5,0.8-1.9,1.5c-0.9,1.4,0,3.2,1,4.6C114.9,322.6,116,324.1,115.6,325.7z"/>
<path fill="none" stroke="#D6D6D6" stroke-miterlimit="10" d="M162,325.7c2.3,0.2,2.9-2.4,4.5-4c3.1-3.1,8.4-2.1,12.2-4.1
	c1-0.5,1.8-1.2,2.8-1.6c3-1.3,6.4-0.1,9.6,0.5c3.2,0.6,6.5,0.6,9.7,0.6c3.1,0,6.2,0,9.3-0.7s6-2.1,7.9-4.5c1.8-2.2,2.6-5,4.2-7.4
	c1.5-2.2,3.7-3.9,5.7-5.6c7.3-6.4,13-14.5,20.7-20.3c1.2-0.9,2.6-1.9,3.1-3.4c0.3-0.9,0.2-1.8,0.2-2.8c-0.1-4.2-0.5-9,2-12.4
	c1.3-1.7,3.3-2.9,5.3-3.8c3.7-1.8,7.7-2.8,11.7-3.9c0.8-0.2,1.7-0.4,2.5-0.7c2.2-0.6,4.4-1.2,6.7-1.7c1.5-0.4,3.1-0.8,4.5-1.4
	c7.7-3.4,10.9-12.5,15.7-19.4c0.6-0.8,1.2-1.6,2-2.1c1.4-0.9,3.1-1.1,4.7-1.5c3.2-0.9,5.8-3.3,8.3-5.6c3.8-3.5,7.6-7,11.4-10.5
	c1.7-1.6,3.4-3.2,4.8-5c1.5-1.9,2.6-4,3.9-6c2.2-3.4,4.9-6.3,7.7-9.3c3.6-3.8,5.7-7.6,8.4-12.3c1.8-3.1,2.9-6.7,4.5-10
	c1.9-3.9,5.3-6.8,8.6-9.6"/>
<path fill="#7BBCEB" stroke="#4E9BD7" stroke-miterlimit="10" d="M175.6,166.8c-0.7,0.2-1.2,0.7-1.8,1.1c-1.4,1.2-2.8,2.5-3.5,4.2
	c-0.5,1.2-0.6,2.7-1.7,3.4c-0.3,0.2-0.8,0.3-1,0.6c-0.6,0.7,0,1.9,0.7,2.5c4,3.3,5,5.6,8,8.8c0.2,0.3,1.3,1.3,1.7,1.5
	c0.5,0.2,1.5,0.6,2,0.5c1.4,0,2.4-0.2,3.8-0.2c1.4-0.1,2.9-0.5,3.8-1.7c0.7-1,1.3-3.2,1.4-4.4c0.5-5.7-0.2-10.5,0.9-16.2
	c0.2-1,0.1-2.2-0.6-3c-0.5-0.6-1.3-0.8-2.1-0.9c-2-0.2-4,0.3-5.6,1.4c-1.2,0.8-2.3,1.9-3.7,2.1C177.2,166.7,176.4,166.6,175.6,166.8
	z"/>
<path fill="none" stroke="#4E9BD7" stroke-miterlimit="10" d="M189.3,163.7c4.9-4.9,9.2-10,14.1-14.9c4.5-4.5,9.1-9.1,11.8-14.9
	c2.9-6.3,2.9-14.3-0.9-20.2c-3.2-5.1-9.1-8.2-11.6-13.6c-2.5-5.6-0.6-12.5,3.4-17.2c1-1.2,2.1-2.2,3-3.5c2.4-3.4,2.7-7.8,4.4-11.5
	c1.4-3.1,3.7-5.7,5.7-8.5c5.1-7,8.4-15.3,10.8-23.6c1.1-3.8,2-8,0.4-11.6c-0.8-1.8-2.2-3.6-1.4-5.4c0.6-1.4,2.3-2,2.9-3.4
	c0.3-0.8,0.2-1.7,0.3-2.6c0.4-4.5,5.8-7.2,6.5-11.7c0.4-2.8-1.1-6.3,0.9-8.3c0.6-0.6,1.5-1,2.2-1.4c3-1.7,5-4.9,5.3-8.3"/>
<path fill="none" stroke="#D6D6D6" stroke-miterlimit="10" d="M284.7,114.8c0.7-3.3,1.5-5.8,2.7-8.6c1.1-2.7,1.5-5.7,2-8.6
	c3-17,11.2-33.1,23.3-45.5c1.6-1.7,3.3-3.3,4.7-5.1c1.4-1.9,2.5-3.9,4-5.8c1.3-1.6,2.7-3,4.1-4.5c5.3-6,8.2-13.7,13.5-19.7
	c1.9-2.1,4-4,6.1-5.8c4.2-3.7,10.6-7.8,16.2-8.2"/>
<path fill="none" stroke="#D6D6D6" stroke-miterlimit="10" d="M-13.5,15c6.2,5.2,9.4,13,13.8,19.8C3.7,40.1,8,45,12.2,49.8"/>
<path fill="none" stroke="#585858" stroke-miterlimit="10" stroke-dasharray="4,1" d="M221.1,368.4c1-2,1.9-4.1,2.7-6.2
	c2.9-7.7,3.9-16,4.9-24.2c0.3-2.4,0.6-5-0.2-7.3c-0.9-2.7-3-4.9-3.6-7.7c-0.5-2.7,0.6-5.6-0.1-8.2c-0.3-1-0.9-2-1.3-3
	c-0.8-2-1.1-4.1-1.3-6.2c-0.4-4.1-0.8-8.4,1-12.2c0.8-1.7,2.1-3.2,2.9-5c1.6-3.3,1.6-7.1,2.6-10.6c0.8-2.7,2.2-5.2,2.1-8
	c0-2.8-2.3-5.8-5-5.3c-2.4,0.5-3.6,4.6-5.8,3.4c-3-1.6-2.5-6.5-2.3-9.9c0.1-2.3,0.9-4.4,1.7-6.6c1.8-4.9,3.5-9.7,5.3-14.6
	c1.1-2.9,2.1-5.8,3.6-8.5c1.9-3.4,4.5-6.3,7.7-8.6c0.7-0.5,1.4-1,1.8-1.7c0.3-0.6,0.5-1.2,0.6-1.9c1.8-7.9,4.8-15.6,8.8-22.7
	c0.8-1.5,1.7-3.1,1.4-4.7c-0.4-1.9-2.6-3.1-4.5-3.1c-2,0-3.8,2.3-5.7,1.7c-3.8-1.3-1.2-8.7-0.2-12.6c2.7-10,4.2-19,5.5-29.1
	c0.4-3.2,0.9-7.7,0.8-10.9c-0.4-8.8,0.5-17.8-3.1-26c-1-2.3-2.2-5-0.8-7c0.7-1,1.9-1.6,2.4-2.6c0.4-0.9,0.3-2,0.6-2.9
	c0.9-2.6,4.9-2.9,6-5.4c1.4-3.2-2.8-5.9-3.9-9.2c-1.2-3.7,1.8-7.4,2-11.3c0.1-2.8-1.1-5.5-1-8.2c0.1-1.8,0.7-3.5,0.7-5.3
	c0-3-1.7-5.7-2.7-8.5c-1.9-5.3-1.7-10.8-1.6-16.4c0.1-5.6-0.9-13.1-3.1-16.2c-0.9-1.2-2.8-2.2-3.3-3.6c-0.7-1.8-3.3-5.7-3.8-6.2
	c-0.4-0.5-0.5-1.1-0.5-1.8c-0.2-6.4,0.4-12.7,1.9-18.9"/>
<text transform="matrix(1 0 0 1 147.7167 163.8176)"><tspan x="0" y="0" fill="#7BBCEB" font-family="'Verdana-Italic'" font-size="8">Edson</tspan><tspan x="0" y="9.6" fill="#7BBCEB" font-family="'Verdana-Italic'" font-size="8">Lake</tspan></text>
<text transform="matrix(1 0 0 1 118.6935 297.6612)"><tspan x="0" y="0" fill="#585858" font-family="'Verdana-Italic'" font-size="8">Hart Lakes</tspan><tspan x="0" y="9.6" fill="#585858" font-family="'Verdana-Italic'" font-size="8">(upper)</tspan></text>
<path fill="none" d="M-9.6,192.8c1.6-1.2,6.6-1.9,22-3.8c5.3-0.7,10.7-1.6,15.4-4.1"/>
<text transform="matrix(0.992 -0.1265 0.1265 0.992 4.8521 192.5311)"><tspan x="0" y="0" fill="#7D7D7D" font-family="'Verdana-Italic'" font-size="7">8</tspan><tspan x="4.4" y="0" fill="#7D7D7D" font-family="'Verdana-Italic'" font-size="7" rotate="0.1">4</tspan><tspan x="9" y="0" fill="#7D7D7D" font-family="'Verdana-Italic'" font-size="7" rotate="-1.4">0</tspan><tspan x="13.6" y="-0.1" fill="#7D7D7D" font-family="'Verdana-Italic'" font-size="7" rotate="-5.7">0</tspan></text>
<path fill="none" d="M313.6,188.6c0.9,4,0,8.1-0.1,12.2c-0.1,3.6,0.5,7.2-0.2,10.8"/>
<text transform="matrix(-3.380994e-02 0.9994 -0.9994 -3.380994e-02 311.5229 191.2137)"><tspan x="0" y="0" fill="#7D7D7D" font-family="'Verdana-Italic'" font-size="7">8</tspan><tspan x="4.3" y="0.1" fill="#7D7D7D" font-family="'Verdana-Italic'" font-size="7" rotate="2.5">0</tspan><tspan x="9" y="0.3" fill="#7D7D7D" font-family="'Verdana-Italic'" font-size="7" rotate="-3.1">0</tspan><tspan x="13.4" y="0" fill="#7D7D7D" font-family="'Verdana-Italic'" font-size="7" rotate="-2.7">0</tspan></text>
<path fill="none" d="M165.7,281.6c4.5-1.9,9.8,0.8,12.5,4.8c2.7,4,1.5,9.7,4.1,13.9"/>
<text transform="matrix(0.879 0.4769 -0.4769 0.879 170.5532 283.5106)"><tspan x="0" y="0" fill="#7D7D7D" font-family="'Verdana-Italic'" font-size="7">8</tspan><tspan x="3.6" y="-0.1" fill="#7D7D7D" font-family="'Verdana-Italic'" font-size="7" rotate="19.5">6</tspan><tspan x="7" y="0.8" fill="#7D7D7D" font-family="'Verdana-Italic'" font-size="7" rotate="43">0</tspan><tspan x="9.9" y="3.6" fill="#7D7D7D" font-family="'Verdana-Italic'" font-size="7" rotate="53.1">0</tspan></text>
<path fill="none" d="M111.1,131c5.2,0.9,10.5,1,15.7,0.4c3.4-0.4,6.8-1.1,10.2-0.7c3.4,0.4,5.8,2.8,7.4,5.8"/>
<text transform="matrix(0.9999 1.693096e-02 -1.693096e-02 0.9999 117.2077 134.2443)"><tspan x="0" y="0" fill="#7D7D7D" font-family="'Verdana-Italic'" font-size="7">8</tspan><tspan x="4.7" y="0" fill="#7D7D7D" font-family="'Verdana-Italic'" font-size="7" rotate="-4.6">2</tspan><tspan x="9.3" y="-0.4" fill="#7D7D7D" font-family="'Verdana-Italic'" font-size="7" rotate="-8.6">0</tspan><tspan x="13.5" y="-1.1" fill="#7D7D7D" font-family="'Verdana-Italic'" font-size="7" rotate="-5.3">0</tspan></text>
<path fill="none" d="M300.5,75c2.2-0.5,4.4-1.3,6.6-2.1c5.8-2,11.7-4.1,17.5-6.1c2.3-0.8,4.7-1.6,6.8-2.8"/>
<text transform="matrix(0.9447 -0.328 0.328 0.9447 313.1281 73.5192)"><tspan x="0" y="0" fill="#7D7D7D" font-family="'Verdana-Italic'" font-size="7">7</tspan><tspan x="4.5" y="0" fill="#7D7D7D" font-family="'Verdana-Italic'" font-size="7" rotate="0">8</tspan><tspan x="8.9" y="0" fill="#7D7D7D" font-family="'Verdana-Italic'" font-size="7" rotate="0">0</tspan><tspan x="13.4" y="0" fill="#7D7D7D" font-family="'Verdana-Italic'" font-size="7" rotate="-1.1">0</tspan></text>
<path fill="none" d="M288.4,339.8c2.8-5.9,5.5-11.9,8-17.9c1-2.5,2.1-5.1,2-7.8c-0.1-5.6-4.6-10.1-9.4-12.9"/>
<text transform="matrix(0.4081 -0.913 0.913 0.4081 293.5871 334.6633)"><tspan x="0" y="0" fill="#7D7D7D" font-family="'Verdana-Italic'" font-size="7">8</tspan><tspan x="4.5" y="0" fill="#7D7D7D" font-family="'Verdana-Italic'" font-size="7" rotate="-0.7">2</tspan><tspan x="8.9" y="-0.1" fill="#7D7D7D" font-family="'Verdana-Italic'" font-size="7" rotate="-1.4">0</tspan><tspan x="13.5" y="-0.1" fill="#7D7D7D" font-family="'Verdana-Italic'" font-size="7" rotate="-4.7">0</tspan></text>
<path fill="none" d="M33.1,323.2c5.7-3.7-2.8-15.3,3-18.7c0.8-0.5,1.7-0.6,2.6-0.8c4.7-0.9,9.4-1.8,14.2-2.6c2.8-0.5,5.7-1,8.3,0.1"
	/>
<text transform="matrix(0.983 -0.1835 0.1835 0.983 40.6105 305.8976)"><tspan x="0" y="0" fill="#7D7D7D" font-family="'Verdana-Italic'" font-size="7">9</tspan><tspan x="4.4" y="0" fill="#7D7D7D" font-family="'Verdana-Italic'" font-size="7">0</tspan><tspan x="8.9" y="0" fill="#7D7D7D" font-family="'Verdana-Italic'" font-size="7">0</tspan><tspan x="13.2" y="-0.1" fill="#7D7D7D" font-family="'Verdana-Italic'" font-size="7" rotate="3.5">0</tspan></text>
<path fill="none" d="M100.6,41.5c1.1-2,2.1-4,3-6.1c2.2-5.2,3.1-10.8,5.7-15.8c2.1-4.2,5.4-7.8,9.3-10.3"/>
<text transform="matrix(0.2991 -0.9542 0.9542 0.2991 107.1847 33.3112)"><tspan x="0" y="0" fill="#7D7D7D" font-family="'Verdana-Italic'" font-size="7">8</tspan><tspan x="4.4" y="0" fill="#7D7D7D" font-family="'Verdana-Italic'" font-size="7" rotate="0.3">0</tspan><tspan x="8.7" y="0" fill="#7D7D7D" font-family="'Verdana-Italic'" font-size="7" rotate="5">0</tspan><tspan x="12.7" y="0.3" fill="#7D7D7D" font-family="'Verdana-Italic'" font-size="7" rotate="13.7">0</tspan></text>
<g>
	<g>
		<polyline fill="none" stroke="#7D7D7D" stroke-miterlimit="10" points="85.2,341.6 85.2,348.7 275.4,348.7 275.4,341.7 		"/>
		<line fill="none" stroke="#7D7D7D" stroke-miterlimit="10" x1="180.5" y1="341.4" x2="180.5" y2="348.7"/>
		<line fill="none" stroke="#7D7D7D" stroke-miterlimit="10" x1="161.2" y1="349.2" x2="161.2" y2="343.7"/>
		<line fill="none" stroke="#7D7D7D" stroke-miterlimit="10" x1="142.4" y1="349.2" x2="142.4" y2="343.7"/>
		<line fill="none" stroke="#7D7D7D" stroke-miterlimit="10" x1="123.3" y1="349.2" x2="123.3" y2="343.5"/>
		<line fill="none" stroke="#7D7D7D" stroke-miterlimit="10" x1="104.6" y1="349.2" x2="104.6" y2="343.7"/>
	</g>
	<text transform="matrix(1 0 0 1 83.7834 339.1468)" fill="#7D7D7D" font-family="'Verdana'" font-size="8">0</text>
	<text transform="matrix(1 0 0 1 174.2946 339.1469)" fill="#7D7D7D" font-family="'Verdana'" font-size="8">0.5</text>
	<text transform="matrix(1 0 0 1 258.3414 339.1469)" fill="#7D7D7D" font-family="'Verdana'" font-size="8">1 mi</text>
</g>
</svg>
