<?xml version="1.0" encoding="utf-8"?>
<!-- Generator: Adobe Illustrator 17.1.0, SVG Export Plug-In . SVG Version: 6.00 Build 0)  -->
<!DOCTYPE svg PUBLIC "-//W3C//DTD SVG 1.1//EN" "http://www.w3.org/Graphics/SVG/1.1/DTD/svg11.dtd">
<svg version="1.1" id="Layer_1" xmlns="http://www.w3.org/2000/svg" xmlns:xlink="http://www.w3.org/1999/xlink" x="0px" y="0px"
	 viewBox="0 0 360 360" enable-background="new 0 0 360 360" xml:space="preserve">
<path fill="none" stroke="#E1E1E1" stroke-miterlimit="10" d="M242.7,369c1.8-1.8,3.5-3.5,5.3-5.3c1.1-1.1,2.2-2.2,3.7-2.7
	c1.5-0.5,2.4,1.3,4,1.4c1.8,0.1,2.8-1.7,4.5-2.1c6-1.4,9.8-7.5,14.7-11.2c1.6-1.2,3.4-2.5,5.4-2.9c2.4-0.4,5,0.5,7.1-0.6
	c1.1-0.6,1.9-1.6,2.8-2.5c4.4-4.4,11.5-5.3,16-9.6c2.1-2,3.5-4.7,5.8-6.6c2.5-2.1,5.9-3.2,8.1-5.6c1.5-1.7,2.4-3.8,3.4-5.9
	c2.8-5.6,8.1-9.2,12.6-13.5c1.8-1.7,3.1-3.9,5.1-5.5c0.6-0.5,1.3-1,2.1-1.1c1.5-0.3,3,0.8,3.7,2.1c0.7,1.3-0.5,3.8,0.9,4.4
	c2.8,1.1,10.5-7.9,14.2-13.3c2.6-3.9,5.1-8.6,9.6-9.7c1.4-0.3,3.3-1.3,2.5-2.4"/>
<path fill="none" stroke="#E1E1E1" stroke-miterlimit="10" d="M375.4,164.4c-3.2,0.1-6.4,0.1-9.3,1.3c-2.9,1.2-5.5,3.8-5.8,6.9
	c-0.2,2.1,0.7,4.2,1.4,6.2c3,7.8,4.5,16.2,4.4,24.6c0,4.8-0.7,9.9-3.5,13.8c-2.4,3.3-6.2,5.5-8.4,8.9c-1.4,2.3-2.2,5.3-4.5,6.8
	c-1.1,0.7-2.3,1-3.5,1.5c-6,2.2-10.3,8.4-10.3,14.9c0,3.8,0.5,7.7,1.3,11.7c0.3,1.4-0.9,2.8-2.1,3.4c-0.7,0.4-2.1,0.1-2.9,0.2
	c-9.7,1.2-19.1,4.6-27.3,9.9c-1.8,1.1-3.5,2.3-5.2,3.5c-2.4,1.7-4.9,3.4-7.3,5.2c-3.9,2.8-7.9,5.6-11.8,8.4c-2.1,1.5-4.3,3-6,4.9
	c-1.7,1.9-3,4-4.3,6.2c-2.6,4.3-5.2,8.5-7.7,12.8c-4.1,6.9-5.5,14.8-6.6,22.8c-0.1,0.6-0.2,1.3-0.6,1.8c-0.5,0.5-1.2,0.7-1.7,1
	c-1.4,1-1.5,3-2.5,4.3c-0.5,0.7-1.3,1.2-2,1.6c-4.9,3.1-10,6.3-15.6,8c-1,0.3-2,0.5-3,1c-0.8,0.4-1.5,1-2.1,1.7
	c-2.9,3-4.7,7.1-5,11.3"/>
<path fill="none" stroke="#E1E1E1" stroke-miterlimit="10" d="M150.3,368.1c-0.8-2-0.5-4.2-0.2-6.4c0.6-3.8,1.2-7.5,1.8-11.2
	c0.6-3.8,1.2-7.5,2.2-11.2c0.3-1,0.6-2,0.5-3.1c-0.1-1-0.7-2.1-1.7-2.3c-0.9-0.2-2,0.1-2.6-0.6c-0.2-0.3-0.2-0.8-0.2-1.2
	c0.1-2.5,0.5-5,1.2-7.4c0.6-2,2.2-4.3,4.2-4c0.9,0.2,1.7,0.8,2.6,0.9c0.7,0.1,1.4-0.2,2.2-0.3c2.4-0.3,4.6,1.4,6,3.3
	c1.4,2,2.3,4.3,3.6,6.2c2.5,3.6,6.6,6,8.3,10c0.8,2,1,4.3,1.4,6.5c0.6,3.2,1.7,6.4,3.4,9.2c0.4,0.7,0.9,1.4,1.5,1.8
	c1.2,0.8,2.8,0.6,4.3,0.6c6.8-0.1,13.5,3.9,16.6,9.9"/>
<path fill="none" stroke="#E1E1E1" stroke-miterlimit="10" d="M131.7,368.7c1.6-1.5,2-3.8,2.8-5.8c0.9-2,2.9-2.6,4.9-3.4
	c2.5-1,2.5-4.8,3.2-7.4c0.3-1,0.5-2.1,0.1-3.1c-0.6-1.4-2.2-1.9-3.5-2.7c-4.7-2.6-6.3-8.5-6.8-13.8c-0.1-1.1-0.2-2.2-0.7-3.1
	c-0.5-0.7-1.2-1.3-1.8-1.9c-0.9-1.1-1.4-2.5-1.9-3.9c-1.8-5.9-2.7-12.1-3.6-18.3c-0.6-4.4,1.3-10-1.8-13.1c-1-1-2.9,0.3-4.4,0.6
	s-3.2,0-4-1.3c-0.3-0.4-0.8-0.7-1-0.3c-1.4,3.1-5.5,4-7.6,6.6c-5.3,6.3-10,13.1-14.6,20c-11.4,17.2-21.5,35.3-30.3,53.9"/>
<path fill="none" stroke="#E1E1E1" stroke-miterlimit="10" d="M75.4,368.5c9.3-10,17.8-20.7,25.6-32c1.2-1.7,2.3-5.3,4.2-4.6
	c2,0.8,0.6,4.2,1.2,6.3s3.5,2.3,4.2,4.3c0.9,2.6-2.7,4.9-1.8,7.5c0.3,0.8,0.6,1.5,0.6,2.3c0,0.7-0.3,1.4-0.6,2
	c-0.9,1.9-1.7,3.8-2.6,5.7c-0.9,2-1.8,4-2.2,6.2c-0.3,1.8-0.1,3.7,0.1,5.5"/>
<path fill="none" stroke="#E1E1E1" stroke-miterlimit="10" d="M49.9,368.4c12.9-20,21.4-42.5,32.3-63.6c4.2-8.1,8.8-16.1,15.8-22
	c1.6-1.4,3.3-2.6,4.9-4c5.2-5,8.5-12.8,15.5-14.6c3.4-0.9,7-0.1,10.6-0.3c3.5-0.2,4.9-4.2,8.1-5.5c3.2-1.3,7.1,0,8.5-3.2
	c1.5-3.1,1-6.8,0.4-10.2c-1.2-7.7-2.4-15.4-3.6-23c-0.7-4.3,0-11.4-4.3-12c-2.5-0.3-4.8,1.8-7.2,1.2c-0.7-0.2-1.5-0.5-2.2-0.4
	c-1.5,0.2-2.4,1.7-3.1,3.1c-3.1,6-7.4,17.7-13.5,14.8c-3-1.4-3.3-5.5-5.2-8.2c-2.6-3.9-0.9-8.7-1.2-13.4c-0.2-3.2,0.6-6.7-1.3-9.4
	s-4.6-4.8-6.2-7.6c-1.6-2.8-2-6.1-2.6-9.3c-1-5.8-2.5-11.5-4.4-17c-1.1-3.1-2.5-6.4-5.6-7.6c-1.3-0.5-8.4,0.8-9.5-0.2
	c-3.2-2.7-6-4.1-9.8-8.5c-2.4-2.8-5-6.6-8.7-6c-0.8,0.1-1.7,0.5-2.5,0.5c-1.8,0-3.1-1.8-3.3-3.6s0.4-3.5,0.8-5.2
	c2.1-8.9-2.7-29.1-7.9-25c-1.3,1.1-0.9,9.1-2.6,13.3c-2,4.9-5,9.3-7.2,14.2c-5.6,12.4-5,26.6-4.2,40.1c0.1,1.4,0.2,3,1.3,3.8
	c0.9,0.7,2.2,0.8,3.2,1.5c1.3,0.9,1.5,2.7,1.6,4.3c0.8,11.1,0.4,22.4-1.3,33.4c-1.2,7.7-7.4,23.4-10.2,20.3
	c-2.8-3.2-6.1-4.9-9.6-4.3c-1.2,0.2-1.4-3.4-2.3-2.6c-2.2,2.1-0.5,7.2-3.5,7.4c-0.8,0-1.7-0.3-2.5-0.1c-1.5,0.3-2.3,2-2.2,3.6
	c0.1,1.5,0.8,2.9,1.1,4.4c0.6,3.2-0.6,6.6-3.1,8.7s-7.2,3.9-9.1,1.3c-1.3-1.7-0.5-4.2-1.7-6c-1.2-1.7-3.6-2.8-5.4-1.8"/>
<path fill="none" stroke="#E1E1E1" stroke-miterlimit="10" d="M-1.5,237.4c-0.1,1.5,1.5,4.1,3,3.8c4-0.9,4.2-7.2,4.1-11.3
	c0-1.5-0.5-3.4-2-3.6c-1.3-0.2-2.4,0.9-3,2C-0.5,230.4-1.3,235.6-1.5,237.4z"/>
<path fill="none" stroke="#E1E1E1" stroke-miterlimit="10" d="M131,237.8c-0.9-1.1,1.5-3.5,0.2-4.3c-0.3-0.2-0.6-0.1-0.9-0.3
	c-1.1-0.7-2.5-0.6-3.7,0c-1.1,0.6-2,1.6-2.7,2.7c-1,1.4-2.7,3.9-1.2,4.9c0.5,0.3,1.3-0.3,1.7,0c1.1,0.9-0.9,3,0,4.1
	c0.4,0.6,1.3,0.7,2,0.5c0.7-0.2,1.3-0.7,1.8-1.1c1-0.8,2.1-1.7,2.9-2.8c0.8-1.1,2.1-2.9,1.1-3.8C131.9,237.5,131.2,238.1,131,237.8z
	"/>
<path fill="none" stroke="#E1E1E1" stroke-miterlimit="10" d="M139.8,300.8c0.1,0.9,0.2,1.7,0.1,2.6c-0.1,0.8-0.4,1.6-0.8,2.3
	c-1.7,4.1-4.1,12.1-3.2,12.9c2.7,2.3,3.4-7.3,6.9-8.1c0.7-0.2,0.5,1.3,0.4,2.1c-1.1,5.9-2.2,11.7-3.3,17.6c-0.3,1.4,0.1,3.4,1.5,3.2
	c0.6-0.1,1-0.6,1.4-1.1c5-7.4,6.7-16.2,8.1-25.2c0.5-3.4,1.3-3.8-0.9-3.8c-2.7,0,0.5-10.6,0.2-16.1c-0.1-1.6-0.7-3.6-2.3-3.6
	c-1.1,0-1.8,1-2.4,1.9C142.4,290.2,139.4,295.3,139.8,300.8z"/>
<path fill="none" stroke="#E1E1E1" stroke-miterlimit="10" d="M39.2,369.6c14.2-33.6,30.6-66.3,48.9-97.8c2.5-4.3,5.1-8.7,8.7-12.2
	c4.1-4.1,9.3-6.9,13.6-10.8c4.5-4,8-9,11.5-14c1.7-2.4,5.1-7.1,2.2-7.5c-4.6-0.6-11.8,13.1-14,13.5c-2.4,0.5-0.1-5.8-7.4-13.2
	c-3.2-3.3-2.1-11.1-3.8-15.4c-1.5-4-3.8-7.8-5.8-11.7c-1-2-2.1-4.1-3.1-6.1c-5.1-10-10.2-20.1-16.7-29.3c-2.3-3.2-4.8-6.3-8-8.6
	c-3.2-2.3-7.2-3.6-11.1-2.9c-2,0.4-4.3,1.2-5.9,0c-1.2-0.9-1.4-2.6-1.9-4c-0.5-1.4-2.2-3.5-3.2-2.5c-1.9,1.9-0.7,5.4-0.6,8.1
	c0.3,5.4,0.5,10.8,1.4,16.1c0.5,3,1.1,6,1.7,9.1c2,10,3.7,20.2,3.3,30.4s-2.8,20.5-8.3,29.1c-0.9,1.4-1.9,2.8-2.3,4.4
	c-0.4,1.6,0.1,3.6,1.5,4.4c0.2,0.1,0.5,0.2,0.7,0.4c0.7,0.8-0.1,2-0.7,2.8c-2.4,3.4-1.8,8.3-4,11.8c-2.6,4.2-8.2,5-13.1,5.5
	c-1.6,0.2-3.3,0.3-4.9-0.2c-1.9-0.6-3.4-2.2-5.4-2.7s-2.7,1.4-4.2,2.7c-1.4,1.2-4.1-1.2-5.2,0.3c-0.7,1-0.4,2.3-0.5,3.6
	c-0.3,3.6-4,5.9-7.5,6.7c-3.5,0.8-7.3,0.9-10.3,2.8"/>
<path fill="none" stroke="#E1E1E1" stroke-miterlimit="10" d="M-0.5,367.5c0.7-2.3,1.3-4.6,2-7c0.2-0.7,0.5-1.6,1.3-1.8
	c0.9-0.2,1.9,0.7,2.8,0.4c0.7-0.3,0.9-1.3,1.6-1.7c0.7-0.5,1.8-0.2,2.4,0.5c0.6,0.7,0.7,1.6,0.9,2.5c0.1,0.7,0.3,1.5,0.4,2.2
	c0.1,0.5,0.2,1,0.5,1.3s1,0.6,1.3,0.2c0.7-1.1,0.7-2.6,1.1-3.9c0.1-0.2,0.1-0.5,0.3-0.7c0.3-0.3,0.9-0.3,1.3,0
	c0.8,0.5,1.2,1.5,1.3,2.4c0.1,1-0.1,1.9-0.2,2.8c-0.2,1.7,0,3.4,0.6,5"/>
<path fill="none" stroke="#E1E1E1" stroke-miterlimit="10" d="M20.9,368.2c13.9-27,28-53.8,42.3-80.6c8.7-16.4,17.9-33.1,32-45.1
	c2-1.7,4.3-3.9,3.8-6.5c-0.2-1.2-1-2.1-1.7-3c-4.5-6-6.7-13.4-9.6-20.4c-2.9-6.9-8.6-11.8-13.3-17.7c-6-7.5-6.4-18.2-9.2-27.3
	c-0.3-0.9-0.6-1.8-1.2-2.5c-1-1-2.5-1.1-3.9-1.2c-3.5-0.2-8,0.3-8.9,3.7c-0.5,2.1,0.7,4.2,1.4,6.3c0.7,2.3,0.6,4.8-0.3,7
	c-0.4,1.1-1,2.4-0.3,3.3c0.2,0.3,0.6,0.6,0.9,0.9c1.9,1.7,1,4.8,1.7,7.3c0.5,1.8,1.8,3.3,2.7,4.9c2.4,3.9,2.8,8.7,3.2,13.2
	c0.7,8.3,1.3,17.1-2.6,24.4c-1.3,2.5-3.2,4.9-3,7.7c0.1,1,0.4,2.1,0.3,3.1c-0.2,1.7-1.5,3-2.5,4.3c-3.7,5.2-2.7,12.3-4.5,18.5
	c-1,3.3-2.7,6.3-4.7,9.1c-1.1,1.5-2.3,3-3.9,4c-4.5,2.7-10.2,0.2-15.4,0.1c-4.3,0-8.3,1.7-12.4,3.1c-8.4,3-17.1,5.2-25.9,6.5"/>
<path fill="none" stroke="#E1E1E1" stroke-miterlimit="10" d="M8.5,296.5c-0.5,0.1-1,0.3-1.3,0.7c-0.4,0.5-0.3,1.3-0.2,1.9
	c0.8,3.6,2.3,7,3,10.5c0.7,3.6,0.7,7.6-1.4,10.6c-0.2,0.2-0.3,0.4-0.3,0.7c0,0.3,0.2,0.6,0.3,0.8c2.8,3.9,5.6,7.8,8.5,11.6
	c0.4,0.6,0.9,1.2,1.6,1.4c1.4,0.4,2.6-1.1,3.2-2.4c5.6-10.2,11.1-20.5,16.7-30.7c1.7-3.2,5.3-7.3,3.2-10.3c-0.7-1-2.5,0-3.5,0.7
	c-1,0.8-1.8,1.8-2.9,2.4c-1.7,0.9-3.8,0.6-5.7,0.4C22.7,294,15.5,294.6,8.5,296.5z"/>
<path fill="none" stroke="#E1E1E1" stroke-miterlimit="10" d="M31.9,306.8c0.1-1.7,0.2-3.4,0.1-5.1c0-0.5,0-1-0.3-1.5
	c-0.7-1.4-3.9-2.6-4.1-1.1c-0.2,1.2-0.6,6.3,0.8,6.9c2.6,1.2,0.7,2.3,0.2,4.1c-0.3,1,2.2-0.3,2.8-1.2
	C31.7,308.3,31.8,307.5,31.9,306.8z"/>
<path fill="none" stroke="#E1E1E1" stroke-miterlimit="10" d="M56.9,185.7c-1.2,0.6-3.1-1.4-2.5-2.6c0.4-0.7,1.7-0.3,2.3,0.3
	C57.2,184,57.6,185.4,56.9,185.7z"/>
<path fill="none" stroke="#E1E1E1" stroke-miterlimit="10" d="M59.3,167.5c-0.7-0.9-2.4,0-2.9,1c-0.5,1-0.2,3,0.9,2.9
	C58.8,171.2,60.2,168.7,59.3,167.5z"/>
<path fill="none" stroke="#E1E1E1" stroke-miterlimit="10" d="M-9.4,149.9c4.6,3.9,7.2,9.7,8.3,15.6c1.1,5.9-2.2,12.7,0.7,17.9
	c1.1,2,3.7,4.1,5.8,3.4c2.3-0.8,3.6-3.1,6-3.2s4.9,0.2,7.1-0.8c2.4-1.1,3.9-3.7,4.4-6.3c0.5-2.6,0.2-5.3-0.1-7.9
	c-1-9.3-1.3-18.6-1.1-28c0.1-2.3,0.5-5.1,2.6-6.1c0.9-0.4,2-0.3,3-0.7c3.3-1.1,3.5-5.5,4.3-8.9c1.6-6.6,7.6-11.4,8.9-18.1
	c0.8-4-0.3-8-0.4-12c-0.2-6,1.8-12.1,5.5-16.8c0.6-0.7,1.2-1.5,2.1-1.8c1.9-0.7,4,0.7,4.9,2.5c0.8,1.8,0.7,3.9,0.6,5.9
	c-0.3,5.8-0.1,12.2,3.4,16.9c1.8,2.5,4.4,4.3,6.6,6.5c2.2,2.2,4.1,5.1,3.7,8.2c-0.1,1.2-0.6,2.4-0.5,3.6c0.1,1.2,1.2,2.5,2.3,2.2
	c0.6-0.1,1-0.6,1.6-0.8c1.2-0.3,2.2,0.9,2.8,1.9c2.3,3.6,4.7,7.1,7,10.7c0.6,1,1.3,2,2.3,2.5c1.7,0.9,3.7,0.2,5.7,0
	c5.7-0.5,10.7,3.4,14.6,7.6c1.6,1.8,3.2,3.7,4.4,5.8c1.8,3.1,2.7,6.7,3.5,10.2c3.1,12.6,6.3,25.5,5.5,38.5c-0.2,2.5-0.5,5.1,0.3,7.5
	c0.8,2.4,2.9,4.6,5.4,4.4c1.7-0.1,2.5-2.2,3.5-3.7c1-1.4,2.1-3,3.7-3.5c1.6-0.6,2.5,1.1,3.9,2.2c1.8,1.3,4.2-2.8,6.4-2.2
	c5.8,1.6,7,9.8,9.3,15.4c0.4,1.1,0.9,2.2,1.6,3.1c1,1.2,2.5,1.9,3.7,3c3.7,3.6,2.3,10.6,6.3,13.9c0.8,0.7,1.8,1.2,2.6,1.9
	c1.1,1.1,1.7,2.6,2.1,4.1c1.3,4.4,1.7,9.1,1.3,13.7c-0.2,2.5-0.8,5-0.1,7.4c0.4,1.7,1.4,3.1,1.9,4.8c2,6.6-3.5,14-0.6,20.2
	c0.8,1.8,2.3,3.2,2.8,5.1c0.4,1.3-0.1,2.7,0.5,3.9c4.1,8.8,3.9,15.6,5.6,17c3,2.4,7.2,2.1,7.4,12.4c0.1,5.8,1.1,15.6,4.4,17.1
	c3.2,1.4,5.7-0.9,8.8,0.7c1,0.5,2,1.2,3.2,1.5c2.9,0.8,6-0.8,8.9-0.1c3,0.7,5.3,3.9,8.5,3.8c4-0.2,7-2.7,10.7-4.1
	c3.1-1.2,4.1-5.5,7.3-6.6c2.2-0.7,4.9-1,6.3-2.8c0.8-1.1,1-2.5,2.1-3.3c0.7-0.5,1.6-0.6,2.5-0.9c3.3-1.2,3.9-5.5,4.3-8.9
	c1.5-11.5,6.7-22.3,13.8-31.4c4.4-5.7,9.5-10.7,14.6-15.8c2.2-2.2,4.4-4.4,6.9-6.2c1.2-0.9,2.5-1.7,3.5-3c0.9-1.2,1.3-2.6,2-3.9
	c1-1.9,2.9-3.2,4.3-4.8c3.8-4.4,4.2-10.4,6.6-15.7c0.4-0.9,0.8-1.9,0.8-2.9c0-1-0.5-1.9-0.9-2.8c-3.5-7.9-3.3-17.3-0.2-25.4
	c3.1-8.1,8.7-15.1,15.5-20.6c1.6-1.3,3.3-2.5,4.5-4.2c1.2-1.6,1.8-3.5,2.6-5.4c2.3-5.3,6.1-10.1,10.8-13.4c0.7-0.5,1.5-1.1,2.1-1.8
	c0.7-0.9,0.9-2,1.2-3.1c0.9-3.4,2.5-6.6,4.7-9.3c1.6-2,3.6-3.8,5.5-5.5c1.8-1.7,3.7-3.3,5.5-5c2.7-2.5,5.5-5,8-7.7
	c1.9-2,3.6-4.1,5.3-6.2c1.9-2.3,3.8-4.7,5.7-7"/>
<path fill="none" stroke="#E1E1E1" stroke-miterlimit="10" d="M-10.5,127.1c5.1-0.8,10.5,0.4,14.7,3.3c1.8,1.2,4.2,4,6,2.6
	c2-1.6,2.3-4.7,3.8-6.9c2-2.9,3.9-5.8,5.9-8.8c1.5-2.3,3.6-4.8,6.3-4.5c0.6,0.1,1.3,0.3,1.9,0.2c1.8-0.3,2.2-2.6,3-4.2
	c0.7-1.5,2-2.7,2.9-4.2c1.4-2.4,1.5-5.3,1.8-8.1c0.8-9.8,3.5-19.4,7.9-28.2c0.6-1.1,1.1-2.2,2.1-3.1c1.6-1.5,3.9-1.9,6-1.8
	c2.2,0,4.4,0.5,6.1,1.8c3.3,2.5,3.6,7.2,4.7,11.2c1.8,7,6.4,12.9,10.8,18.6c1.3,1.7,2.6,3.3,3.9,5c0.7,0.9,1.4,1.8,2.1,2.7
	c2.3,3,4.6,5.9,6.9,8.9c2.1,2.7,4.2,5.4,6.4,8.1c1.1,1.4,2.2,2.9,3.7,3.9c3.5,2.6,8.5,2.8,11.8,5.7c1.5,1.3,1.6,3.6,3,5
	c3.2,3.1,8.2,2.4,10.8,5.9c2.8,3.8,4,8.5,4.2,13.2c0.2,4.7-0.4,9.4-0.7,14c-0.1,1.4-0.2,2.8,0.2,4.1c0.3,0.8,0.7,1.5,1.1,2.2
	c3.2,6.3-2.8,14.2-0.1,20.8c1.5,3.6,7.6,0.5,11.2-1c1.4-0.6,2.9-2.5,4.2-1.8c1.3,0.6,0.8,2.9,1.7,4c1,1.1,2.6,0.4,3.9,1
	c5.7,2.5,7.8,9.8,9.8,15.6c0.5,1.5,0.8,3.2,2.1,4.1c0.4,0.3,0.8,0.5,1.2,0.8c0.9,0.8,1.2,2,1.5,3.2c1.4,5.9,3.6,11.6,6.5,16.8
	c0.4,0.8,0.9,1.6,1.8,2.1c0.5,0.3,1.1,0.3,1.6,0.4c2.4,0.3,4.7,0.7,7.1,1c1.8,0.3,3.7,0.5,5.2,1.6c2.4,1.8,2.9,5.2,3.3,8.2
	c0.4,4,3.7,6.9,5.2,10.6c2.5,6.1,5,12.3,5.8,18.8c0.6,4.5,0.3,9.1,0,13.7c-0.1,1.7-0.2,3.4-0.3,5.1c-0.5,8.4-6.2,18.2-1.6,25.2
	c3,4.5,10.7-2.6,15.9-1.4c1.7,0.4,3.3,1.4,5.1,1.6c1.5,0.2,3-0.2,4.5,0.1c1.5,0.3,0.8,3.1,2.3,3.2c1.7,0.1,3.9-3.7,6.9-3.4
	c2.8,0.3-3.5-0.8,9.9-18.6c2-2.7,1.8-6.4,2.8-9.6c1.6-5.2,4.4-9.9,7.1-14.6c2-3.4,4.1-6.9,7.3-9.3c3.2-2.4,7.3-3.4,10.2-6.1
	c6.1-5.7,4.6-16.3,10.2-22.4c0.7-0.8,1.5-1.5,1.6-2.5c0-0.6-0.1-1.1-0.3-1.6c-4.2-12.5-2.1-26-2.1-39.2c0-4.9-0.3-9.8-0.9-14.7
	c-0.3-2.5-0.7-5.1,0.1-7.5c0.4-1.1,1-2.1,1.2-3.2c0.3-1.5-0.2-3-0.5-4.5c-1.4-6.8,0.8-14.3,5.8-19.2c5.9-5.7,2.3-17.3,8.2-23
	c1-1,2.3-1.9,2.9-3.1c0.5-1,0.6-2.1,0.9-3.2c0.6-2.4,1.9-4.6,3.7-6.2c1-0.9,2.1-1.6,3-2.5c2.4-2.6,2.6-6.4,4.1-9.5
	c0.9-1.9,2.3-3.6,3.4-5.4c1.8-3.2,2.7-6.8,4.3-10.2c1.6-3.3,4.3-6.5,7.9-7c4.4-0.6,8.2,2.7,11.7,5.5c5.5,4.4,11.7,8,17.8,11.5
	c3.3,1.9,6.6,3.8,10.2,4.7c3.7,0.9,8.2,0.5,10.7-2.4"/>
<path fill="none" stroke="#E1E1E1" stroke-miterlimit="10" d="M-12.4,105.1c5.4-0.1,10.9,1.8,15.1,5.4c2.2,1.8,4.6,5.9,7.1,4.4
	c3.4-2.1,2.1-11.1,13.4-20.3c0.7-0.6,1.5-1.1,1.8-1.9c0.2-0.6,0.1-1.3,0.2-2c0.3-2,2.3-3.2,3.1-5c0.4-1,0.4-2.1,0.5-3.1
	c0.4-3.4,2.3-6.4,4.1-9.4c3.1-4.9,6.1-9.8,9.2-14.7c2.5-4,5.9-8.6,10.6-8.6c1.2,0,2.3,0.3,3.5,0.2c1-0.1,1.9-0.5,2.8-0.8
	c4.5-1.6,9.2-2.6,13.9-2.8c4.1-0.2,8.5,0.1,11.9-2.2c3.1-2.2,4.9-6.4,8.6-7.3c0.7-0.2,1.5-0.2,2.2-0.5c1.2-0.4,2.3-2.1,3.2-2.9
	c3-2.5,7.3-3.2,10.9-1.6c3.3,1.5,5.3,5.8,7.5,8.8c2.2,3,4,3.8,5.4,9.2c0.7,2.8,1.1,5.6,1.2,8.5c0.5,6.8,1.4,13.9-0.8,20.3
	c-1.7,5.1-4.1,9.9-3.5,15.2c0.2,2,0,4-0.4,5.9c-0.3,1.6-1.4,3-1.1,4.6c0.2,1.2,1.3,2.1,2.2,3c5.9,5.9,4.6,9.9,7.4,11.3
	c2.5,1.2,6.5-2,18.6,2.8c2.7,1.1,5.7,2.4,7.2,4.9c2.4,4,0.3,9.2-2.7,12.7c-3,3.6-6.8,6.5-8.6,10.8c-1.3,3.2-1.4,7-3.4,9.9
	c-1.7,2.4-4.8,4.7-3.8,7.5c0.3,0.8,0.9,1.5,1.4,2.1c2,2.5,2.9,5.8,2.6,8.9c-0.1,1-0.3,2.2,0.5,2.9c0.4,0.4,0.9,0.5,1.4,0.6
	c2.3,0.5,5,0.9,6.3,2.8c1.2,1.7,1.2,4.3,3.1,5.1c0.9,0.4,2,0.2,2.9,0.5c2,0.7,2.3,3.3,3.4,5.1c1.8,2.7,6,3.7,6.7,6.9
	c0.2,0.7,0.1,1.5,0.5,2.2c0.5,0.9,1.6,1.2,2.5,1.7c4.2,2,2.4,10.1,6.8,11.7c2.1,0.8,4.4-2.9,6.3-1.8c0.8,0.5,0.2,2.3,1.1,2.6
	c2.1,0.6,4.1-1.9,5.9-0.7c1,0.6,2,1.6,3,1.2c0.3-0.1,0.5-0.3,0.8-0.4c0.9-0.2,1.5,0.8,1.8,1.7c1.3,3.9,0.9,8.7,3.8,11.6
	c3.5,3.5,8,5.7,9.2,10.5c2.3,8.3-0.3,13.9,1.8,14.8c2.2,1,4.2-0.5,5.9,1.2c1.6,1.8,2.3,4.1,3,6.4c0.7,2.3,0,5.7,2.1,7
	c2.6,1.6,5.3-3,6.8-5.6c1.6-2.6,2.7-5.5,4.9-7.7c1.7-1.7,3.8-2.8,5.5-4.6c1-1.1,1.8-2.3,2.5-3.5c1.8-2.7,3.6-5.4,5.5-8.1
	c2.4-3.4,5-6.6,7.9-9.6c2.8-2.8,4.4-2.5,5.3-4.8c0.6-1.6-1.8-4.8-2.2-7.2c-0.5-3.5-2.1-6.8-3.8-9.9c-1.9-3.6-3.6-8.4-0.7-11.2
	c1.2-1.1,2.9-1.7,3.6-3.2c0.6-1.3,0.2-2.8,0.7-4.2c0.7-2.1,3.2-3.1,3.8-5.2c0.5-1.8-0.4-3.6-0.7-5.5c-0.7-4.2,2.2-8,3.3-12.1
	c0.8-2.8,0.8-5.8,1.2-8.7c1-7.2,7.8-12,10.2-18.9c1.9-5.4,0.3-12.1,3.9-16.6c1.4-1.8,3.2-3.4,3.8-5.6c0.4-1.9-0.2-4,0.4-5.9
	c0.5-1.9,2.1-3.3,2.8-5.1c0.5-1.3,0.5-2.8,0.6-4.3c0.5-7.2,3.5-14.3,8.6-19.5c0.9-1,2-2,2.5-3.2c0.4-1.1,0.4-2.2,0.5-3.4
	c0.3-3,1.6-6,3.8-8.1c0.8-0.8,1.7-1.5,2.4-2.5c1.4-1.9,1.7-4.5,3.3-6.3c1.5-1.7,3.9-2.4,5.7-3.9c1.3-1.1,2.2-2.6,3.1-4
	c4.3-6.2,11.1-10.6,18.5-12.2c3.9-0.8,8.3-0.6,11.2,2.1c1.1,1.1,1.9,2.5,2.6,3.9c1.4,2.7,2.9,5.4,4.3,8.2c0.6,1.2,1.3,2.4,2.4,3.1
	c0.6,0.4,1.4,0.6,1.9,1.1c1.1,1,1.1,2.9,2.2,3.9c1.7,1.5,4.2,0.1,6.4,0.2c2,0,3.8,1.2,5.7,2s4.4,0.8,5.6-0.9"/>
<path fill="none" stroke="#E1E1E1" stroke-miterlimit="10" d="M-11.9,93.8c1.3-0.5,2.6-1,3.8-1.5c2.3-0.9,4.7-1.8,7.1-1.6
	s3.1,3.2,5.2,4.4c1.4,0.8,2.3,1.6,3.9,1.9c2,0.4,1.4-3.9,2.1-5.8s4.4-1.6,4.4-3.6c0-3.2,1-4.2,2.9-5.7c2.1-1.6-1.7-12.3,3.2-29.2
	c0.7-2.2,1.3-4.5,2.6-6.5c1.3-2,3.3-3.6,5.7-3.7c2.5-0.2,5.1,1.3,7.5,0.5c1-0.3,1.9-1.1,3-1.1c0.6,0,1.3,0.2,1.9,0.1
	c3,0,4.4-2.5,7.4-3c1-0.2,2-1.6,3-1.6c3.8-0.1,6.4-3.6,9.5-5.9c3-2.2,6.6-3.4,9.1-6.1c2.3-2.5,2.5-6.4,5-8.6
	c1.4-1.2,3.4-1.6,4.9-2.8c1.9-1.4,2.9-3.8,3.9-6c3.7-8.2,9.3-15.5,16.1-21.3"/>
<path fill="none" stroke="#E1E1E1" stroke-miterlimit="10" d="M-9,10.6C-8.1,7-6.8,3.5-5.2,0.1c0.2-0.4,0.4-0.8,0.7-1
	c0.7-0.5,1.7-0.2,2.5-0.5c1.1-0.4,1.6-2,2.8-2.1c0.6,0,1.2,0.4,1.6,0.8C4.9-0.1,2.7,5.8,6,7c1.5,0.5,2.4-2,3.3-3.2
	c1.3-1.9,2.7-3.9,3.4-6.2C13-3.7,13.2-5,13.3-6.3c0.4-3.6,0.7-7.1,1.1-10.7"/>
<path fill="none" stroke="#E1E1E1" stroke-miterlimit="10" d="M149.7-15.3c0.7,7.9,1.8,16.4,6.6,22.8c10.5,14,5.2,14.8,7.9,18.4
	c2.4,3.1,20.9-6.3,31.8-6.4c1.4,0,2.8,0.1,4.2-0.2c1.8-0.4,3.4-1.5,5.2-1.8c1.8-0.2,3.6,0.5,5.3,1.2c5.9,2.5,12.1,5.1,16.1,10.2
	c3.5,4.5,5.5,10.8,6.3,16.4c0.6,4.1-0.2,10.3,0.8,14.8c1.8,8.2,0.9,15.5,0.9,25.2c0,4.4,4.7-5.3,6.7-9c2.3-4.4,9-3.8,12.9-6.8
	c5.6-4.4,5.4-14.5,12.1-17.2c1-0.4,2-0.6,2.8-1.2c1-0.8,1.4-2.2,2-3.3c4.6-8,7.7-0.2,9.7-2.6c6.3-7.8,19.3-14,33.9-20.6
	c1.9-0.9,2.9-3.1,4.6-4.4c1.8-1.4,3.9-2.3,6-3.1c11.4-4.3,24.3-4.7,36-1.1c4.6,1.4,9.8,3.3,13.9,0.8"/>
<path fill="none" stroke="#D6D6D6" stroke-miterlimit="10" d="M345,313.6c2.3-1.5,5.2-4.1,4.3-6.8c-0.2-0.7-0.7-1.3-1-2
	c-1.1-2.7,0.9-5.6,2.5-8.1c2.2-3.6,3.6-7.7,3.9-11.9c0-0.5,0-1.1-0.2-1.5c-0.3-0.4-0.7-0.6-1.2-0.8c-1.7-0.7-4-0.5-5-2.1
	c-2.2-3.6-1.1-8.5-4-11.6c-2.1-2.3-4.9-3.9-7.5-5.6c-7.7-4.9-14.6-11-20.5-18c-1.4-1.7-2.8-3.5-4.8-4.5c-5-2.6-10.8,0.9-16.3,2.3
	c-5.8,1.5-12.2,0.5-17.3-2.6c-3.4-2.1-6.1-5-9.5-7.1c-3.1-2-6.6-3.1-10.1-4.3c-8.7-2.9-17.5-5.9-26.2-8.8c-2.2-0.7-4.6-1.5-6.7-0.5"
	/>
<path fill="none" stroke="#D6D6D6" stroke-miterlimit="10" d="M345.2,318.2c0.7,0.7,1.2,2.2,0.8,3"/>
<path fill="none" stroke="#D6D6D6" stroke-miterlimit="10" d="M341.6,340.8c0.6,3.3-1.5,6.8-1.6,10.1c-0.1,1.7,0.4,3.4,0.6,5.2
	c0.6,4.3-0.2,8.8-2,12.7"/>
<path fill="none" stroke="#D6D6D6" stroke-miterlimit="10" d="M221.2,159c0.5,0.9,1.3,1.3,1,2.4c-0.2,1.1-1,2-1.1,3.1
	c-0.1,1.3,0.8,2.3,1.4,3.5c1.6,3,1.5,7.5,0.3,10.7c-1.2,3.2-5.5,5.8-4.3,7.8c0.9,1.6,3.7,1.3,4.5,3c0.8,1.6-1,3.1-1.2,4.9
	c-0.2,2,2,1.5,1.8,5.5c-0.1,2,1.7,2.9,2,4.8c0.5,3.5-1.6,5.5-0.5,7.2c1.9,2.8,0.8,5.8,0.6,8.7c-0.1,1.9,1.4,3.7,0.8,5.5
	c-0.3,0.9-1.1,1.7-1.6,2.5c-3.1,4.7,0.2,11.1-1.3,16.6c-0.4,1.5-1.1,2.8-1.7,4.2c-1.2,2.9-1.7,6.1-2.2,9.3
	c-1.1,7.5-2.3,14.9-3.4,22.4c-0.4,2.6-0.8,5.4-0.3,8c0.5,2.6,2,5.2,4.4,6.3c2.2,1,5,0.6,7,1.9c1.9,1.3,2.5,3.7,2.7,6
	c0.7,9.5-5,18.2-6.7,27.6c-0.5,2.8-0.7,5.7-1.3,8.5c-1,4.9-3.2,9.4-4.6,14.2c-1.4,4.8-1.9,10.2,0.5,14.6"/>
<path fill="none" stroke="#D6D6D6" stroke-miterlimit="10" d="M129.9,279.6c-3,4.8-6,9.6-9,14.4c-2.1,3.4-4.2,6.7-7,9.6
	c-0.5,0.5-1,1-1.4,1.6c-0.9,1.3-1.3,2.9-1.6,4.4c-1.9,8.5-4,17-6.1,25.5c-0.6,2.4-1.2,4.7-1.8,7.1c-0.6,2.5-1.3,5.1-2.6,7.3
	c-0.9,1.5-2.1,2.9-3.2,4.3c-3.5,4.5-6,9.8-7.3,15.4"/>
<path fill="none" stroke="#D6D6D6" stroke-miterlimit="10" d="M200.9,318.9c1.7-2.1,3.1-4.5,4.2-6.9c0.3-0.7,0.6-1.4,1-2
	c0.5-0.7,1.2-1.3,1.7-2.1c0.6-0.9,0.9-1.9,1.3-2.8c0.4-0.7,0.8-1.4,1.4-2c1.4-1.5,3.4-2.3,5.1-3.5c1.7-1.1,3.3-2.8,3.4-4.9"/>
<path fill="none" stroke="#D6D6D6" stroke-miterlimit="10" d="M227,319.1c1,1.3,1.9,2.5,2.9,3.8c0.2,0.2,0.4,0.5,0.6,0.7
	c1.1,0.8,2.5-0.2,3.8-0.2c1.8-0.1,3.2,1.5,4.3,2.9"/>
<path fill="none" stroke="#D6D6D6" stroke-miterlimit="10" d="M203,295.9c2.4-0.3,4.7,1,6.9,2c0.6,0.3,1.4,0.5,2,0.2
	c0.4-0.2,0.6-0.7,1.1-0.9c0.5-0.2,1.2,0.1,1.6,0.5c0.4,0.4,1,1.3,1.5,1.6"/>
<path fill="none" stroke="#D6D6D6" stroke-miterlimit="10" d="M203.7,267c0.9-1-0.7-2.8,0.2-3.8c0.6-0.7,1.8-0.5,1.9-1.5
	c0.1-0.9-1.4-1.7-1-2.6c0.8-1.8,2.8-2.7,3.2-4.6c0.4-2,0.7-3.9,0.9-5.9c0.3-2.4,0.4-4.7,0.5-7.1c0-0.4,0-0.9,0.1-1.3
	c0.1-1.9-1.2-4.1-0.3-5.8c0.4-0.7,1-1.3,1.4-2s1.3-0.4,2-0.8c1.3-0.6-0.9-3-0.2-4.2c0.3-0.4,1-0.2,1.4-0.3c1.2-0.4,0.6-2.3-0.2-3.2
	c-0.8-0.9-2-1.6-2.3-2.8c-0.2-0.7,0-1.5-0.1-2.2c-0.1-0.7-0.9-0.8-1.4-1.4c-1.1-1.5,1.6-3.5,1.3-5.3c-0.2-1-0.6-2.2,0-3
	c0.3-0.4,0.8-0.6,1.1-0.9c1-0.9,0.8-2.6,0.1-3.9c-0.6-1.3-1.5-2.5-1.5-3.9c0-0.9,0.4-1.8,0.9-2.6c1.3-2.5,2.5-4.9,3.8-7.4
	c0.7-1.3,2-3.9,2.7-5.2"/>
<path fill="#EAEAEA" stroke="#D6D6D6" stroke-miterlimit="10" d="M343.6,312.4c-0.8-0.4-1.8-0.3-2.6,0.3c-0.8,0.5-1.3,1.3-1.8,2.1
	c-1.1,1.8-2,3.8-2.7,5.8c-0.2,0.5-0.3,1-0.4,1.6c-0.1,1.4-0.1,4,1.3,3.8c0.4-0.1,0.4-0.7,0.6-1.1c0.8-1.4,1.5-2.8,2.3-4.2
	c0.5-0.9,1.4-1.4,2.2-2.1c0.8-0.7,2.3-0.1,3.2-0.4c1.1-0.3-0.4-2.9-0.6-4C345.1,313.9,343.9,312.6,343.6,312.4z"/>
<path fill="#EAEAEA" stroke="#D6D6D6" stroke-miterlimit="10" d="M340,330.7c0,1.7,0.1,2.6,0.1,4.3c0,0.7,0.4,2.5,0.5,3.1
	c0.2,1.1,0,1.8,0.8,2.6c0.3,0.3,0.1,0.5,0.5,0.3c0.8-0.5,0.8-1.8,1-2.8c0.1-1.1,0.1-2.3,0.6-3.2c0.9-1.6,3-2,4.8-2.3
	c0.2,0,0.3-0.1,0.4-0.2c0.2-0.2,0.1-0.5-0.1-0.8c-0.3-0.6-0.5-1.2-0.7-1.8c-0.6-1.9-0.7-3.9-0.4-5.9c0.1-0.9,0.3-1.9-0.4-2.4
	c-0.3-0.2-0.6-0.3-1-0.3c-1.1-0.2-2.6-0.1-3.1,0.9c-0.1,0.3-0.2,0.6-0.3,0.9c-0.4,1.4-1.6,2.4-2.1,3.8
	C340,328.1,340,329.4,340,330.7z"/>
<path fill="none" stroke="#D6D6D6" stroke-miterlimit="10" d="M-1.8,248.9c0.6-1.7,0-3.7-1.4-4.8c-0.6-0.5-1.3-0.8-1.9-1.1
	c-2.1-1.1-3.9-2.9-5.1-5"/>
<path fill="none" stroke="#D6D6D6" stroke-miterlimit="10" d="M-10.9,224.8c0.6-0.5,1.2-1,1.8-1.5c0.3-0.3,0.7-0.6,0.9-0.9
	c0.9-1.4,0.3-3.4,1.3-4.7c0.8-1,2.2-1.1,3.3-1.8c1.9-1.3,1.9-4.1,2.7-6.3c0.9-2.4,4.5-4.2,7-4.7"/>
<path fill="none" stroke="#D6D6D6" stroke-miterlimit="10" d="M14.9,213.1c-0.2-1.8-0.4-3.1,0.8-4.5c0.4-0.5,0.9-0.8,1.2-1.3
	c0.6-0.8,0.7-1.8,1.2-2.6c0.7-1.1,1.9-1.8,2.2-3"/>
<path fill="#EAEAEA" stroke="#D6D6D6" stroke-miterlimit="10" d="M-2,249c-0.3,0.4-0.4,0.8-0.4,1.3c-0.2,1.4,0,3.1,1,4.2
	c0.7,0.7,1.8-0.3,2.3-1c0.9-1.1,2.7-1.9,2.6-3.3c-0.1-1.1-1.6-1.5-2.6-1.8S-1.4,248.1-2,249z"/>
<path fill="#EAEAEA" stroke="#D6D6D6" stroke-miterlimit="10" d="M16.1,214.2c-0.2-0.2-0.4-0.3-0.7-0.4c-1.3-0.6-3-2.8-4-1.7
	c-1.3,1.3,0.2,3.8,1.2,5.3c0.9,1.4,3.5-0.4,3.7-2.1C16.3,214.8,16.3,214.4,16.1,214.2z"/>
<path fill="#EAEAEA" stroke="#D6D6D6" stroke-miterlimit="10" d="M23.1,203.5c0.2,0.7,0.9,1.2,1.6,1.2s1.4-0.3,1.8-0.9
	c0.3-0.6,0.3-1.2,0.2-1.9c-0.2-1.5,0.3-3-0.2-4.5c-0.3-0.7-0.6-1.5-1.1-2.1s-1.5-1.4-2.1-0.9c-1.8,1.8-2.4,4.7-3.5,7.4
	c-0.3,0.8,1.5-0.6,2.3-0.4C22.9,201.6,22.9,202.7,23.1,203.5z"/>
<path fill="none" stroke="#D6D6D6" stroke-miterlimit="10" d="M11.6,211.8c0.1-1.1,0.7-1.6,0.1-2.6c-0.6-0.9-2.2-0.2-3-0.9
	c-2.2-1.8-4.5-6.8-4.5-9.4c0-1,1.6,0.7,2.6,0.9c1.4,0.3,1.5-2.4,1.2-3.8c-0.3-1.4-1.1-2.6-1.6-3.9c-1.6-3.6-1.6-7.7-1.5-11.6
	c0-1.6,0-3.2,0-4.8c0-0.6,0-1.3,0.2-1.8c0.3-0.7,0.9-1.3,1.5-1.8c2.7-2.6,5.5-5.6,5.9-9.3c0.3-2.9-1-5.8-1.8-8.6
	c-0.8-2.8-1-5.8-1.3-8.7c-0.3-3.4,0.6-6.8,0.3-10.2c-0.7-9.1-0.9-18.1-0.2-27.1c0.3-3.6-0.3-7.2-0.9-10.8C7.6,91.7,3.8,86,5,80.5
	c0.9-4-0.6-7.7-2-11.6c-1.4-4-2.8-8-4.3-11.9c-0.7-1.8-0.8-4.6-1.9-6.2c-1.1-1.6-3.4-1.9-5.3-2c-1.3-0.1-2.7,0.2-3.7-0.5"/>
<path fill="none" stroke="#D6D6D6" stroke-miterlimit="10" d="M5.2,76.4c3.8,1,7.8,2.3,11.8,3.9c1.4,0.6,2.9,1.9,4.4,2.5
	c3.4,1.4,6.9,1.6,10,3.7"/>
<path fill="none" stroke="#D6D6D6" stroke-miterlimit="10" d="M5.1,81.9c4.6,2.4,10,5.4,14.6,7.8c1,0.5,2.1,1.1,2.8,2
	c0.7,0.9,1,1.9,1.3,3c1.4,5,2.7,10,3.1,15.1"/>
<path fill="none" stroke="#D6D6D6" stroke-miterlimit="10" d="M143.3,85c1.5-4.2,3.1-8.5,4.6-12.7c1.7-4.6,3.3-9.2,4.2-13.9
	c0.4-2,0.6-4.1,1.2-6c0.6-2,1.4-3.8,2.3-5.7c3.1-6.6,6.2-13.3,9.3-19.9c0.9-2,1.9-4,3-5.9c1.5-2.6,3.3-5,5-7.5
	c6.2-8.8,11.3-18.4,15.4-28.4"/>
<path fill="none" stroke="#4E9BD7" stroke-miterlimit="10" d="M211,161c2.5,0.2,4.5-0.8,6.9-1.3c2.1-0.4,4.1-1.1,6-2
	c2.5-1.3,5.1-3.3,7.2-5.2s2.9-3.1,3.7-7.4c0.2-1-0.1-2,0.2-3c1.1-3.7,6.8-4.2,8-7.9c1-2.8-1.1-5.2-2.1-8c-1.3-3.4-0.3-7.4-1.9-10.7
	c-0.8-1.7-1.8-4.3-2.5-6.1c-1.7-4.3,1.1-7.7,1.4-12.3c0.2-2.4-0.6-4.9-2-6.9c-0.6-0.8-1.6-1.5-1.5-2.4c0.1-2.5,3.3-5.7,3.8-9
	c0.2-1.8-0.7-3.4-1.1-5.2c-0.5-2.1-0.1-4.3,0.3-6.5c0.5-2.8,1.6-4.1,2.1-6.9c0.4-2.5,0.1-5.8,3-7.5c1.2-0.7,0.9-3,1.5-4.3
	c0.7-1.3,2.2-1.7,2.5-3.2c0.4-1.9,0.5-3.9,0.5-5.7c0-1.1,0.5-1.8,1.6-2c1.5-0.4-0.8-2.8-0.8-4.4c0.1-1.3,1.2-2.2,1.6-3.4
	c0.2-0.7,0.2-1.5,0.3-2.2c0.4-3.3,3.1-5.7,5.1-8.3c2.1-2.8,3.6-6.1,4.1-9.6c0.4-2.5,0.4-5.2,1.9-7.2c1.1-1.5,3-2.5,3.5-4.3
	c0.4-1.4-0.2-2.9,0.2-4.2c0.2-0.8,0.7-1.5,1.2-2.2c1.7-2.2,3.3-4.3,5-6.5"/>
<path fill="#7BBCEB" stroke="#4E9BD7" stroke-miterlimit="10" d="M171.6,154.4c-0.9,0.6-1.7,1.5-1.7,2.6c0,0.8,0.3,1.6,0.3,2.4
	c0,2.3-2.7,3.6-4.1,5.5c-1.6,2.2-1.2,5.4-2.3,7.9c-0.7,1.6-2,2.8-3,4.1s-1.8,3.1-1.3,4.8c0.2,0.6,0.5,1.1,0.7,1.5
	c1.1,1.9,2.3,3.8,3.4,5.8c1.4,2.3,2.5,3.4,4.9,5c1.8,1.2,5,0,7,0.6c3.3,1,5,5.4,8.5,5.5c0.4,0,0.8,0,1.2,0.1
	c1.1,0.3,1.5,1.6,2.4,2.3c1.4,1,3.3,0.3,5,0.6c2,0.4,3.9,2.6,5.8,1.8c1.2-0.5,1-1.9,1-3.1c0-1.3,0.3-2.5,0.3-3.8
	c0.1-1.4,0.6-2.8,0.5-4.2s-1.3-2.9-2.6-2.6c-1.4,0.3-2.1,2.3-3.5,2.2c-0.8-0.1-1.4-0.8-1.8-1.4c-1.4-2-2.8-4.1-2.9-6.5
	c-0.1-2.6,1.3-5.2,1.3-7.8c0-1.1-0.2-2.2,0.4-3.1c0.3-0.4,0.8-0.7,1.2-0.8c2.3-0.9,4.6,0,6.1,2c0.7,1,2.2,3.9,3,3
	c1.6-1.8,2.4-6.7,5.6-9.1c2-1.6,3.8-3.7,4.1-6.2c0.4-3.3-2.7-6.1-5.8-7.2c-0.7-0.3-1.4-0.5-2.2-0.4c-3,0.1-4.5,3.8-7.2,4.9
	c-1.6,0.7-3.5,0.4-5.1-0.3c-1.6-0.7-3.4-1.5-4.8-2.6c-2.1-1.6-4-3.5-6.5-4.2C176.7,152.7,173.8,152.9,171.6,154.4z"/>
<path fill="none" stroke="#585858" stroke-miterlimit="10" stroke-dasharray="4,1" d="M200.4,188.8c0.4-2.9,2.2-5.4,3.9-7.8
	c1.7-2.4,3.5-4.9,5.2-7.3c0.8-1.2,1.8-2.4,3.1-2.8c1.1-0.3,3.7-0.4,4.9-0.2c3.8,0.5,6.3-0.5,9.5-2.8s5.5-5.4,7.8-8.6
	c5.1-7.3,9.5-15.3,10.5-24.2c0.4-3.5,0.3-7.1,0.1-10.7c-0.3-8.2-1.9-16.1,0.1-23.9c1.7-6.7,0.2-14.6,0.3-21.5c0.1-3.7-1.1-8.5,0-12
	c1.2-4,4.2-5.2,3.8-10.7c-0.4-4.9,4.2-9.3,5.9-13.9c1.3-3.5,1.2-7.8,3.9-10.4c0.5-0.4,1-0.8,1.3-1.4c0.3-0.6,0.3-1.3,0.5-1.9
	c0.5-1.6,2.4-2.2,4-2.7c3.9-1.2,7.6-3,10.7-5.6c7.7-6.5,10.7-17.3,18.6-23.6c3.1-2.5,6.9-4.3,8.7-7.8c0.8-1.6,1.2-3.4,2.3-4.8"/>
<text transform="matrix(1 0 0 1 184.1488 141.6073)"><tspan x="0" y="0" fill="#7BBCEB" font-family="'Verdana-Italic'" font-size="8">Elizabeth</tspan><tspan x="0" y="9.6" fill="#7BBCEB" font-family="'Verdana-Italic'" font-size="8">Lake</tspan></text>
<text transform="matrix(1 0 0 1 59.5984 166.8068)"><tspan x="0" y="0" fill="#585858" font-family="'Verdana-Italic'" font-size="8">Unicorn</tspan><tspan x="0" y="9.6" fill="#585858" font-family="'Verdana-Italic'" font-size="8">Peak</tspan></text>
<text transform="matrix(1 0 0 1 32.7982 305.6074)" fill="#585858" font-family="'Verdana-Italic'" font-size="8">Cockscomb</text>
<text transform="matrix(-0.1802 -0.9836 0.9836 -0.1802 234.5673 124.9679)" fill="#585858" font-family="'Verdana-Italic'" font-size="8">Unicorn</text>
<text transform="matrix(0.3846 -0.9231 0.9231 0.3846 240.7624 38.8954)" fill="#585858" font-family="'Verdana-Italic'" font-size="8">Creek</text>
<text transform="matrix(1 0 0 1 143.9988 311.707)" fill="#585858" font-family="'Verdana-Italic'" font-size="8">× 10294</text>
<text transform="matrix(1 0 0 1 31.9984 316.8072)" fill="#585858" font-family="'Verdana-Italic'" font-size="8">11065</text>
<text transform="matrix(1 0 0 1 28.9976 171.6072)" fill="#585858" font-family="'Verdana-Italic'" font-size="8">10823</text>
<path fill="none" d="M311.9,326.9c2.5-2.1,5.9-3.2,8.1-5.6c1.5-1.7,2.4-3.8,3.4-5.9c2.8-5.6,8.1-9.2,12.6-13.5"/>
<text transform="matrix(0.6222 -0.7829 0.7829 0.6222 321.1302 324.0863)"><tspan x="0" y="0" fill="#7D7D7D" font-family="'Verdana-Italic'" font-size="7">1</tspan><tspan x="5" y="-0.2" fill="#7D7D7D" font-family="'Verdana-Italic'" font-size="7" rotate="-13">0</tspan><tspan x="8.9" y="-1.2" fill="#7D7D7D" font-family="'Verdana-Italic'" font-size="7" rotate="-4">4</tspan><tspan x="13" y="-1.5" fill="#7D7D7D" font-family="'Verdana-Italic'" font-size="7" rotate="5.1">0</tspan><tspan x="17.2" y="-1.1" fill="#7D7D7D" font-family="'Verdana-Italic'" font-size="7" rotate="9.7">0</tspan></text>
<path fill="none" d="M138.7,160c2-2.9,2-6.7,3.4-9.9c1.8-4.3,5.7-7.3,8.6-10.8c3-3.6,5.1-8.8,2.7-12.7"/>
<text transform="matrix(0.2558 -0.9667 0.9667 0.2558 143.1503 155.3544)"><tspan x="0" y="0" fill="#7D7D7D" font-family="'Verdana-Italic'" font-size="7">9</tspan><tspan x="3.8" y="-0.2" fill="#7D7D7D" font-family="'Verdana-Italic'" font-size="7" rotate="15.1">6</tspan><tspan x="7.6" y="0.9" fill="#7D7D7D" font-family="'Verdana-Italic'" font-size="7" rotate="26.5">0</tspan><tspan x="11.5" y="2.9" fill="#7D7D7D" font-family="'Verdana-Italic'" font-size="7" rotate="28.7">0</tspan></text>
<path fill="none" d="M48.7,38.9c1-0.2,2-1.6,3-1.6c3.8-0.1,6.4-3.6,9.5-5.9c3-2.2,6.6-3.4,9.1-6.1c2.3-2.5,2.5-6.4,5-8.6"/>
<text transform="matrix(0.7525 -0.6586 0.6586 0.7525 58.4847 37.0677)"><tspan x="0" y="0" fill="#7D7D7D" font-family="'Verdana-Italic'" font-size="7">9</tspan><tspan x="4.1" y="-0.1" fill="#7D7D7D" font-family="'Verdana-Italic'" font-size="7" rotate="7.5">4</tspan><tspan x="8.3" y="0.5" fill="#7D7D7D" font-family="'Verdana-Italic'" font-size="7" rotate="11.9">0</tspan><tspan x="13.2" y="1.6" fill="#7D7D7D" font-family="'Verdana-Italic'" font-size="7" rotate="0.1">0</tspan></text>
<path fill="none" d="M317.6,192.7c1.6-1.3,3.3-2.5,4.5-4.2c1.2-1.6,1.8-3.5,2.6-5.4c2.3-5.3,6.1-10.1,10.8-13.4
	c0.7-0.5,1.5-1.1,2.1-1.8c0.7-0.9,0.9-2,1.2-3.1"/>
<text transform="matrix(0.4071 -0.9134 0.9134 0.4071 324.8392 189.1874)"><tspan x="0" y="0" fill="#7D7D7D" font-family="'Verdana-Italic'" font-size="7">1</tspan><tspan x="4.4" y="-0.1" fill="#7D7D7D" font-family="'Verdana-Italic'" font-size="7" rotate="1.4">0</tspan><tspan x="8.5" y="-0.1" fill="#7D7D7D" font-family="'Verdana-Italic'" font-size="7" rotate="9.4">0</tspan><tspan x="12.5" y="0.6" fill="#7D7D7D" font-family="'Verdana-Italic'" font-size="7" rotate="17.3">0</tspan><tspan x="16.5" y="1.8" fill="#7D7D7D" font-family="'Verdana-Italic'" font-size="7" rotate="25.2">0</tspan></text>
<path fill="none" d="M49.9,368.4c12.9-20,21.4-42.5,32.3-63.6"/>
<text transform="matrix(0.435 -0.9004 0.9004 0.435 66.2147 344.225)"><tspan x="0" y="0" fill="#7D7D7D" font-family="'Verdana-Italic'" font-size="7">1</tspan><tspan x="4.5" y="0" fill="#7D7D7D" font-family="'Verdana-Italic'" font-size="7" rotate="-0.4">0</tspan><tspan x="8.9" y="0" fill="#7D7D7D" font-family="'Verdana-Italic'" font-size="7" rotate="-0.7">2</tspan><tspan x="13.4" y="-0.1" fill="#7D7D7D" font-family="'Verdana-Italic'" font-size="7" rotate="-0.8">0</tspan><tspan x="17.8" y="-0.2" fill="#7D7D7D" font-family="'Verdana-Italic'" font-size="7" rotate="-0.8">0</tspan></text>
<path fill="none" d="M74.4,194.9c4.7,5.9,10.4,10.7,13.3,17.7c2.9,6.9,5.1,14.3,9.6,20.4"/>
<text transform="matrix(0.6337 0.7736 -0.7736 0.6337 79.0829 204.0541)"><tspan x="0" y="0" fill="#7D7D7D" font-family="'Verdana-Italic'" font-size="7">1</tspan><tspan x="4.2" y="0" fill="#7D7D7D" font-family="'Verdana-Italic'" font-size="7" rotate="5.7">0</tspan><tspan x="8.3" y="0.3" fill="#7D7D7D" font-family="'Verdana-Italic'" font-size="7" rotate="14.5">6</tspan><tspan x="12.4" y="1.5" fill="#7D7D7D" font-family="'Verdana-Italic'" font-size="7" rotate="18">0</tspan><tspan x="16.7" y="2.9" fill="#7D7D7D" font-family="'Verdana-Italic'" font-size="7" rotate="17.8">0</tspan></text>
<path fill="none" d="M281.2,45.3c6.3-7.8,19.3-14,33.9-20.6"/>
<text transform="matrix(0.8419 -0.5397 0.5397 0.8419 290.7181 40.2201)"><tspan x="0" y="0" fill="#7D7D7D" font-family="'Verdana-Italic'" font-size="7">9</tspan><tspan x="4.3" y="0" fill="#7D7D7D" font-family="'Verdana-Italic'" font-size="7" rotate="2.8">4</tspan><tspan x="8.7" y="0.2" fill="#7D7D7D" font-family="'Verdana-Italic'" font-size="7" rotate="4.9">0</tspan><tspan x="13" y="0.6" fill="#7D7D7D" font-family="'Verdana-Italic'" font-size="7" rotate="6.3">0</tspan></text>
<g>
	<g>
		<polyline fill="none" stroke="#7D7D7D" stroke-miterlimit="10" points="85.2,341.6 85.2,348.7 275.4,348.7 275.4,341.7 		"/>
		<line fill="none" stroke="#7D7D7D" stroke-miterlimit="10" x1="180.5" y1="341.4" x2="180.5" y2="348.7"/>
		<line fill="none" stroke="#7D7D7D" stroke-miterlimit="10" x1="161.2" y1="349.2" x2="161.2" y2="343.7"/>
		<line fill="none" stroke="#7D7D7D" stroke-miterlimit="10" x1="142.4" y1="349.2" x2="142.4" y2="343.7"/>
		<line fill="none" stroke="#7D7D7D" stroke-miterlimit="10" x1="123.3" y1="349.2" x2="123.3" y2="343.5"/>
		<line fill="none" stroke="#7D7D7D" stroke-miterlimit="10" x1="104.6" y1="349.2" x2="104.6" y2="343.7"/>
	</g>
	<text transform="matrix(1 0 0 1 83.7834 339.1468)" fill="#7D7D7D" font-family="'Verdana'" font-size="8">0</text>
	<text transform="matrix(1 0 0 1 174.2945 339.1468)" fill="#7D7D7D" font-family="'Verdana'" font-size="8">0.5</text>
	<text transform="matrix(1 0 0 1 258.3414 339.1468)" fill="#7D7D7D" font-family="'Verdana'" font-size="8">1 mi</text>
</g>
</svg>
