<?xml version="1.0" encoding="utf-8"?>
<!-- Generator: Adobe Illustrator 17.1.0, SVG Export Plug-In . SVG Version: 6.00 Build 0)  -->
<!DOCTYPE svg PUBLIC "-//W3C//DTD SVG 1.1//EN" "http://www.w3.org/Graphics/SVG/1.1/DTD/svg11.dtd">
<svg version="1.1" id="Layer_1" xmlns="http://www.w3.org/2000/svg" xmlns:xlink="http://www.w3.org/1999/xlink" x="0px" y="0px"
	 viewBox="0 0 360 360" enable-background="new 0 0 360 360" xml:space="preserve">
<path fill="none" stroke="#E1E1E1" stroke-miterlimit="10" d="M-12.8,215.2c1.8-0.9,3.5-1.9,5.3-3c3.5-2.2,6.9-4.7,10.7-6.2
	c7.5-2.9,17.2-2.3,21.8-8.9c3-4.3,2.4-10,1.7-15.2c-1.1-8.3-2.2-16.5-3.3-24.8c-0.2-1.4-0.4-2.9-1.1-4.2c-0.7-1.2-1.9-2.1-3-2.9
	c-7.9-6.1-14.3-14.1-18.5-23.2c-6.1-13.3,1.7-28.9,1-43.5c-0.1-2-0.3-4.1,0.1-6c0.7-3.1,2.8-5.7,4-8.6c1-2.2,1.4-4.6,1.4-7
	c0-0.6,0-1.2,0.2-1.7c0.3-0.6,1-0.9,1.7-1.2C15.4,56,19.7,49.7,20.2,43c0.1-1.3,0-2.6,0.5-3.8c0.4-1.1,1.2-2,2-2.9
	c3.1-3.7,5.2-8.3,6.1-13c0.3-1.4,0.4-2.8,0.9-4.1c0.5-1.2,1.3-2.3,1.7-3.5c0.6-1.8,0.3-3.8,0.4-5.7c0.3-7.6,6.5-13.8,8.4-21.1
	c0.8-3,0.9-6.1,1.6-9c0.7-3,2.3-6,5.1-7.3"/>
<path fill="none" stroke="#E1E1E1" stroke-miterlimit="10" d="M-12.8,267.5c7.6-5.2,16.7-8.1,22.2-15.7c6.3-8.7,10.5-18.7,14.6-28.7
	c2-4.8,4-9.6,5.9-14.4c0.6-1.5,1.2-2.9,2.1-4.2c3.1-4.3,8.7-5.6,13.6-7.6c5.9-2.3,11.2-5.9,15.6-10.4c0.8-0.8,1.6-1.7,2-2.8
	c0.4-1.2,0.4-2.5,0.4-3.7c0.1-4.3,1.1-8.5,3-12.4c0.4-0.8,0.8-1.6,0.8-2.4c0-1.3-1.2-2.3-1.5-3.6c-0.3-1.2-0.2-2.6-0.6-3.7
	c-0.4-1-1-1.8-1.5-2.7c-3.2-5.8-2.5-12.9-1.7-19.4c0.3-2.6,0.6-5.3,1-7.9c0.9-7.7,0.3-15.2,2-22.8c0.9-4,1.8-8,2.7-12
	c0.4-2,0.9-4,1.6-5.9c0.9-2.3,2.1-4.5,2.9-6.8c0.6-1.8,1-3.6,1.5-5.4c1-3.9,2.4-7.7,3.8-11.4c0.7-2,1.5-3.9,2.2-5.9
	c1.9-5.2,3.9-10.4,5.8-15.5c1-2.7,2-5.5,3.1-8.2c3.6-9.7,7.3-19.6,13.3-28.1c2-2.9,4.3-5.6,6.7-8.2"/>
<path fill="none" stroke="#E1E1E1" stroke-miterlimit="10" d="M-12.4,354.2c1-1.5,2-3,2.8-4.6c1.9-4,2.4-8.4,3.6-12.6
	s3.4-8.5,7.4-10.4c1.4-0.7,2.9-1,4.4-1.6c3.8-1.7,6.2-5.4,9.6-7.8c4.8-3.4,11.1-3.8,16.8-5.4c5.7-1.6,10.9-4.4,15.8-7.8
	c0.8-0.6,1.7-1.2,2.2-2.1c0.5-1,0.6-2.1,0.5-3.2c-0.1-7-1.6-14-4.4-20.4c-1-2.2,0.6-4.7-0.5-6.8c-0.7-1.3-2.9-2.8-2.7-4.3
	s1.3-2.7,2.4-3.7c1.1-1,2.4-1.9,3.1-3.3c0.6-1.1,0.8-2.4,0.9-3.7c0.4-3.8,0.9-7.5,1.3-11.3c0.1-1,0.2-2,0-3
	c-0.2-0.8-0.5-1.6-0.6-2.5c-0.3-2.4,1.7-4.5,3.8-5.7c2.1-1.2,4.5-2,6.2-3.7c1.3-1.3,2.2-3.2,3.6-4.4c1.1-0.9,2.5-1.4,3.6-2.2
	c2.9-2.1,3.9-6.2,6.6-8.6c1.1-1,2.5-1.7,3.2-3c0.5-1.1,0.4-2.3,0.5-3.5c0.7-8.7,11.1-14.6,10.9-23.3c-0.1-2.7-1.2-5.4-0.9-8.1
	c0.3-2,1.4-3.9,2.1-5.8c1.7-4.3,1.8-9.2,0.3-13.5c-0.6-1.5-1.9-3-2.8-4.3c-1.9-2.8-2.2-6.5-2.1-9.9c0.1-3.1,0.4-6.1,1-9.1
	c1.4-8,3.5-16,4.3-24.1c0.3-2.8,0.4-5.6,1.2-8.3c1.6-5.3,5.6-9.4,9.7-13.1c0.8-0.7,1.6-1.4,2-2.4c0.9-2.2-0.5-5.2,1.3-6.8
	c2-1.8,6.2,0.1,7.4-2.3c0.8-1.6-0.7-3.3-1.5-4.9c-1.8-3.8,0.7-8.3-0.2-12.3c-0.4-1.7-1.3-3.3-1.1-5c0.1-2,1.6-3.5,3-4.9
	c2.3-2.3,4.6-4.6,7.3-6.4c0.8-0.5,1.7-1,2.2-1.9c0.6-1,0.6-2.3,0.7-3.4c0.4-3.8,2.8-7.6,6.5-8.7c3-0.8,7.2-0.2,8.5-3.1
	c0.4-1,0.3-2.2,0.3-3.4c0.1-6.6,5.8-11.9,6.6-18.5c0.4-3-0.3-6-0.2-8.9"/>
<path fill="none" stroke="#E1E1E1" stroke-miterlimit="10" d="M165,376.3c0.3-3.7,0.6-7.3,0.9-11c0.4-5,0.8-10-0.4-14.8
	c-1.3-5.3-4.5-10-8-14.3c-8.7-10.6-19.6-19.5-31.7-25.9c-4-2.1-8.1-4-11.9-6.4c-3-1.9-5.7-4.1-8.9-5.6c-6.7-3.2-15.2-3.3-20-8.9
	c-5.4-6.3-2.9-15.1,1.6-22.9c3.4-5.9,6.2-12.1,4.4-18.7c-0.5-1.8-1.3-3.5-1.6-5.4c-0.7-4.6,2.1-8.9,4.7-12.7c2.6-3.8,7-8.7,11.6-9.3
	c5.6-0.8,15.9,9.5,15.3,3.8c-0.6-5.5-1.2-12,0.2-17.3c1.3-5.1-10.5,4.7-14.8,1.7c-2.3-1.6,2-6.2,0.2-8.3c-1.3-1.5-4.7,1.8-6,0.2
	c-2.4-2.9,0.1-14,2.3-20.6c0.8-2.5,3-5.4,5.4-4.3c1.3,0.6,1.8,2.1,2.5,3.3c2.3,4.5,6.9,7.3,11.4,9.8c1.3,0.7,2.6,1.4,4,1.5
	c1.4,0.1,2.7-0.3,4-0.6c5.1-1.3,10.7-0.7,15.5,1.5c1.5,0.7,2.9,1.5,4.5,1.7c1.1,0.1,2.2,0,3.3,0.2c1.1,0.3,2.1,0.9,3.1,1.6
	c5.8,4,12.1,7.3,18.7,9.8c1.5,0.5,2.9,1.1,4.5,1.3c2,0.3,4,0.1,6-0.2c8.6-1.2,17-3.2,25-6.6c4.7-2,9.2-4.4,13.8-6.8
	c5.1-2.7,10.3-5.4,15.4-8.2c2.2-1.1,4.4-2.4,5.7-4.4c2.3-3.5,1.1-8.2,2.3-12.2c1-3.3,3.5-6,4.2-9.4c0.7-3.5-0.7-7.3,0.4-10.7
	c0.5-1.7,1.6-3.2,1.8-4.9c0.2-2.8-2.1-5.1-4-7.3c-4.4-5-6.7-12-7.6-18.6c-0.9-6.6,1.7-14.2,7.7-17c3.9-1.8,8.5-1.4,12.7-0.5
	c6.5,1.4,12.8,3.8,19,6.3c3,1.2,5.9,2.3,8.9,3.5c2.1,0.8,4.2,1.6,6.4,2.1c5.3,1.2,11,0.6,16.3-0.6c1.8-0.4,3.6-0.8,5.2-1.6
	c5.4-2.6,8.3-8.5,9.7-14.3c2.9-12.1,0.8-25-3.2-36.8c-2.3-6.8-5.2-13.4-8.7-19.6c-1.4-2.5-3-4.9-4.9-7.1c-3.4-3.9-7.8-6.8-12.1-9.7
	c-1.7-1.1-3.4-2.2-5.4-2.6s-3.3,2.4-5.3,2.1c-2.1-0.3,6.9-13.5,8.5-14.3c1.3-0.6-0.1,3.9,1.4,4c3.4,0.2,8.6,0.8,12.8,1.5
	c1.7,0.3,3.1-1.6,4.6-2.6c4.4-2.7,10.3-5.8,14.9-3.5c0.7,0.4,0.7,2.6,1.4,2.1c1.9-1.5,8-6.2,14.9-2.8c0.9,0.4,1.8,0.9,2.8,0.8
	c1.1-0.1,1.9-1,2.7-1.7c2.5-2.3,5.6-3.9,8.7-5.6"/>
<path fill="none" stroke="#E1E1E1" stroke-miterlimit="10" d="M-3.9,376.8c0.8-6.1,2.7-11.8,5.4-17.4c2.2-4.5,5.2-8.6,8.4-12.6
	c7-8.7,14.8-17,24.6-22.4c6.1-3.4,12.9-5.7,19.2-8.7c2.5-1.2,5-2.6,7.6-3.3c5.1-1.3,10.5-0.1,15.6,1.1c2.4,0.6,4.9,1.2,6.6,2.9
	c1.1,1.1,1.8,2.5,3,3.5c1.2,1,2.7,1.4,4.2,2.1c2.8,1.2,5.1,3.2,7.5,5.1c4.5,3.7,9,7.4,13.5,11.1c5.1,4.2,10.3,8.5,13.4,14.2
	c1.3,2.4,2.5,5.3,4.9,6.5c1.2,0.7,2.7,0.8,4,1.1c3.9,0.9,7.6,2.8,10.4,5.7c3,3,5.2,7,7.7,10.4"/>
<path fill="none" stroke="#E1E1E1" stroke-miterlimit="10" d="M186.6,376.6c-1.4-6.2-2.7-12.4-3.1-19c-0.5-8,3.1-16,2-24
	c-0.9-7-6-12.8-7-19c-0.3-2-1.1-5.1,0-6c4.6-3.6,12.4,6.2,16,0c1.1-1.9,0.8-6.9,2-9.8c2.5-5.6,5.9-10.2,8.1-15.9
	c5.6-15,12.2-11.3,12.4-13.5c0.2-3-3.5-2.8-3.2-11.8c0-1.4-3.9-3.4-5-4.3c-1.9-1.4-3.2-3.6-4.1-5.9c-2.1-5.2-2.4-10.9-2.7-16.4
	c-0.1-1.7,0-3.7,1.3-4.9c1.1-1,2.7-0.9,4.1-1.2c6.7-1.2,10.9-9.2,17.7-9.7c1.6-0.1,3.3,0.2,4.7-0.6c1-0.5,1.6-1.4,2.3-2.2
	c4.9-5.4,13.1-6.1,20.4-5.3c1.3,0.2,2.7,0.3,4-0.1c1.1-0.4,2-1.1,2.9-1.8c2.2-1.8,4.7-3.2,7.3-4.4c4.5-2,9.5-3.2,13.6-5.9
	c1.7-1.1,3.1-2.4,4.8-3.6c3-2.1,6.5-3.6,9.9-5.1c7.3-3.2,11.4-5.8,18.6-9c1.8-0.8,2.8-2.6,4.8-2.7c0.8-0.1,1.6,0,2.3-0.2
	c1.1-0.4,2-1.4,3-2c2.1-1.4,4.9-1.2,7.3-2.2c3.1-1.3,5.3-4.7,8.6-5.2c1.1-0.2,2.3,0,3.4-0.3c1.9-0.5,3.3-2.1,5.2-2.5
	c0.8-0.2,1.7-0.1,2.4-0.3c1-0.3,1.7-1,2.5-1.7c2.6-2.3,5.7-4,8.7-5.9"/>
<path fill="none" stroke="#E1E1E1" stroke-miterlimit="10" d="M128.9,375.7c0.4,0.3,0.9,0.7,1.3,1"/>
<path fill="none" stroke="#E1E1E1" stroke-miterlimit="10" d="M8.7,375.8c-0.9-1.6-1.6-3.3-2.2-5.1c-1.3-3.9-0.1-9.1,3-12
	c6.8-6.3,10.7-13.2,16-19c4.8-5.2,12.3-5,17-11c16.2-20.8,44.3,4.1,63,18c1.8,1.3,5.1,2.8,8,4c2.1,0.9,3,2,4,4c2,4,1.6,9.2,4,13
	c1.9,3.1,4.5,5.7,7.4,8"/>
<path fill="none" stroke="#E1E1E1" stroke-miterlimit="10" d="M78.6,377.1c-0.1-0.8-0.4-1.5-0.7-2.2c-1.2-2.2-3.6-3.2-5.9-4.2
	c-8.5-3.5-16.9-7-25.4-10.5c-3.7-1.5-10.2-3.1-9.3-6.9c0.5-2,4.2-0.9,5.6-2.4c1.2-1.2-1-4.4,0.5-5c1.3-0.6,1.9-0.7,3-1.6
	c1.5-1.2,3.5,3.5,5.1,2.5c1.6-1,2.3-2.6,4.2-2.5c15.4,1.2,30.1,9,39.9,21c0.8,1,1.7,2.2,1.8,3.6c0.1,1.4-0.7,2.7-1.5,3.9
	c-0.8,1.3-1.6,2.7-2.3,4.1"/>
<path fill="none" stroke="#E1E1E1" stroke-miterlimit="10" d="M29.6,375.8c-4.7-1.3-8.9-3.3-10.1-7.5c-0.7-2.4,5-1.4,5.7-3.8
	c0.4-1.3-1.8-2.2-1.3-3.4s2.1-0.9,3.3-1.5c5.4-2.6,1.4-13.2,6.1-17c4-3.3,10.2-2.2,15.1-4.2c2.3-1,4.6-2.1,7-2.2
	c1.8-0.1,3.5,0.3,5.2,0.8c8.1,2.2,15.9,5.8,22.9,10.4c3.8,2.5,7.4,5.4,10.9,8.3c4,3.3,8.1,7.1,9.3,12.1c0.4,1.9,0.4,3.9-0.5,5.6
	c-0.6,1-1.4,1.9-1.9,3"/>
<path fill="none" stroke="#E1E1E1" stroke-miterlimit="10" d="M215.2,376.3c-1-3.4-1.9-6.9-3.4-10c-2.2-4.7-5.7-9.2-5.9-14.4
	c-0.2-4.5,2-8.6,4.2-12.5c0.7-1.2,1.4-2.4,2.3-3.4c1.5-1.5,3.7-2.3,5.5-3.5c4.8-3.2,6.8-9.5,11.5-12.7c1.8-1.2,4-2,5.6-3.5
	c1.8-1.6,2.8-4,4.3-5.9c4.8-6,13.5-6.8,21.2-6.4c7.7,0.4,15.9,1.4,22.5-2.5c3.2-1.9,6.1-4.6,9-7c1.3-1.1,2.7-2.2,3.5-3.8
	c0.7-1.5,0.6-3.6-0.7-4.7c-0.7-0.6-1.7-0.8-2.5-1.3c-1.8-1-2.8-3.1-4.6-4.3c-3.4-2.3-8.4-0.5-11.7-2.9c-3.3-2.4-2.8-7.4-3.4-11.4
	c-0.5-3.2-1.9-6.3-1.6-9.5c0.3-3.4,2.4-7,0.9-10.1c-0.7-1.5-2.1-2.5-3.2-3.7c-2.8-3.1-3.5-7.5-3.7-11.7c-0.1-1-0.1-2,0.2-3
	c0.4-1.2,1.3-2.2,2.2-3c3.9-3.7,8.7-6.4,13.9-7.8c2.5-0.7,5.2-1.1,7.1-2.8c1.7-1.5,2.5-3.8,4.3-5.1c1.5-1.1,3.5-1.3,5.3-1.8
	c3.4-1.1,6.1-3.6,9.1-5.7s5.2-2.1,8.1-3.5c2.5-1.2,3.6-3.9,5.6-5.7c2.8-2.6,5.5-5.2,7.8-8.2c1.5-2.1,3-4.4,5.3-5.5
	c0.9-0.4,2-0.6,2.8-1.1c1.8-1.2,2.2-3.8,3.8-5.2c2.1-1.9,5.3-1.3,8.1-1.7c4.9-0.7,9.5-6.3,13.7-9.1"/>
<path fill="none" stroke="#E1E1E1" stroke-miterlimit="10" d="M16.5,375.7c-4.3-5.8-3.5-16.3,3-19c0.9-0.4,2,0.2,3,0
	c7.5-1.5,0.8-13.4,5.5-15.2c7.8-3.1,15.3-6,21.5-11.8c15.9-14.9,35.2,14,51,26c2.9,2.2,5.2,3.7,8,6c2.2,1.8,2.8,5.9,2,9
	c-0.6,2.2-1.1,4.4-1.7,6.6"/>
<path fill="none" stroke="#E1E1E1" stroke-miterlimit="10" d="M305.4,234.9c0.1-0.6-0.5-1.1-1.1-1.1c-0.6,0-1.1,0.4-1.6,0.7
	c-0.7,0.5-1.4,1.1-1.6,1.9c-0.2,0.8,0.8,1.9,1.5,1.3c0.8-0.6,1.5-1.4,2.3-2.1C305,235.5,305.3,235.2,305.4,234.9z"/>
<path fill="none" stroke="#E1E1E1" stroke-miterlimit="10" d="M261.9,376.3c-0.2-0.5-0.3-1-0.4-1.5c-0.6-4.3,3.4-8.5,2-12.6
	c-1.2-3.6-5.7-4.7-8.7-6.9c-3.3-2.4-5.1-6.2-6.8-9.9c-1-2.1-2-4.3-3-6.4c-0.9-1.9-1.8-3.8-2.1-5.9c-0.4-2.4-0.1-4.8,0.2-7.2
	c0.5-3.9,1.3-8.4,4.6-10.5c2.1-1.4,4.8-1.5,7.3-1.5c6-0.1,12.1-0.2,18.1-0.3c3.4-0.1,6.7-0.1,10-0.9c13.2-3.3,19.6-15.1,31.1-21.1
	c2.4-1.2,0.5-5.6,0.9-8.2c0.3-1.9,1.5-3.4,2.6-5c2.6-3.8,4.6-8,5.9-12.4c0.5-1.6,0.9-3.4,0.7-5.1c-0.3-3.6-2.9-6.6-3.9-10.1
	c-1-3.5-0.9-8.1-4.2-9.6c-0.7-0.3-1.5-0.4-2.2-0.9c-1.9-1.3-1.5-4.2-0.5-6.3c2.9-6.5,8-11.6,13-16.6c2.2-2.2,4.5-4.5,6.7-6.7
	c1.8-1.8,4.7-3.7,6.6-2c0.7,0.7,1,1.7,1.2,2.7c1.1,4.7,1.7,9.6,1.8,14.4c0.1,2.8,0,5.6,0.6,8.3c0.5,2.1,1.5,4.1,2.2,6.1
	c1.6,4.6,2.1,9.6,1.3,14.4c-0.2,1.2-0.5,2.5-0.3,3.7c0.2,1,0.7,1.9,1.1,2.9c1.3,3.3,1,7,0.7,10.5c-1.8,19.9-3.2,39.9-4.6,59.9
	c-0.5,6.7-1,13.5-1.4,20.2c-0.6,8.4-1.2,16.8-0.8,25.1"/>
<path fill="none" stroke="#E1E1E1" stroke-miterlimit="10" d="M296.5,375.1c-0.7-0.5-1.4-0.8-2-1.3c-2.1-1.9-0.8-5.3-0.3-8.1
	c0.2-1.2,0.3-2.5,0.1-3.7c-0.2-1.3-0.5-2.6-0.6-3.9c-0.6-5.8,3.2-11.3,3.7-17.1c0.3-3.5-0.6-7.1-2.6-10.1c-0.6-1-1.4-1.9-1.5-3.1
	c-0.1-1.6,1.2-3,2.4-4.1c6.9-6.2,14.4-11.8,22.3-16.7c2.1-1.3,4.2-3.2,6.4-2c4.4,2.3,3.8,9.1,4.1,14.1s-0.1,9.9,0.5,14.8
	c0.3,2.3,0.8,4.6,1,7c0.2,2.6,0.1,5.1,0,7.7c-0.5,9.5-1,19-2.7,28.4"/>
<path fill="none" stroke="#E1E1E1" stroke-miterlimit="10" d="M150.5,227.3c-0.3-0.5-0.7-1-1.2-1.4c-0.8-0.5-1.9-0.4-2.7,0.1
	c-0.8,0.5-1.4,1.3-1.8,2.1c-0.9,2-0.8,4.3,0.1,6.3c1,1.9,2.8,3.4,5,3.8c0.5,0.1,1,0.2,1.4,0c1.3-0.3,1.9-1.9,2-3.3
	c0-0.8,0-1.7-0.2-2.5C152.6,230.6,151.5,228.9,150.5,227.3z"/>
<path fill="none" stroke="#E1E1E1" stroke-miterlimit="10" d="M138.9,256.6c0.7,0.8,2,0.2,2.9-0.3c2.2-1.3,4.6-2.5,7.2-2.6
	c0.6,0,1.3,0,1.9-0.1c1.4-0.2,2.7-1.2,3.3-2.5c0.7-1.3,0.9-3,0.1-4.1c-0.9-1.3-3.1-0.2-4.6-0.9c-0.9-0.4-1.6-1.5-2.6-1.2
	c-0.2,0.1-0.4,0.2-0.6,0.3c-1.8,1.4-2.3,3.6-3.4,5.6c-0.8,1.5-2.9,1.8-4,3.1C138.7,254.7,138.2,255.9,138.9,256.6z"/>
<path fill="none" stroke="#E1E1E1" stroke-miterlimit="10" d="M84,361.6c0.5,0.1,1.1,0.1,1.4-0.3c0.1-0.2,0.2-0.5,0.2-0.7
	c0-0.4,0.1-0.9,0.1-1.3c0-0.3,0-0.5-0.1-0.7c-0.1-0.1-0.3-0.2-0.5-0.2c-0.6-0.1-1.2-0.1-1.8-0.1c-0.4,0-0.9,0-1.2,0.2
	s-0.7,0.5-0.8,0.9c-0.1,0.7,0.4,1.2,1,1.6C82.7,361.2,83.4,361.5,84,361.6z"/>
<path fill="none" stroke="#E1E1E1" stroke-miterlimit="10" d="M319.1,340.2c0-0.3-0.1-0.5-0.2-0.8c-0.1-0.4,0-0.8,0.1-1.3
	c0.6-4.4,0.7-9.4-2-12.9c-0.6-0.8-1.4-1.5-2.4-1.7c-1.1-0.2-2.2,0.5-3.2,1.1c-1.7,1-3.4,2.1-4.5,3.8c-0.5,0.8-0.9,1.8-0.7,2.8
	c0.1,0.4,0.3,0.7,0.4,1.1c1.8,3.4,4.4,6.4,7.5,8.6c0.9,0.6,1.8,1.2,2.9,1.2C318.1,342.2,319.2,341.3,319.1,340.2z"/>
<path fill="none" stroke="#E1E1E1" stroke-miterlimit="10" d="M283.4,12.5c-0.5,2.1-0.9,4.2-1.4,6.3c-0.1,0.6-0.1,1.4,0.5,1.5
	c0.3,0.1,0.6-0.1,0.9-0.4c1.7-1.6,2.2-4.1,2.5-6.5c0.2-1.1,0.9-2.3,0.5-3.4c-0.3-0.7-1.5-0.3-2.1,0.3S283.6,11.7,283.4,12.5z"/>
<path fill="none" stroke="#E1E1E1" stroke-miterlimit="10" d="M234.2,115c-0.3-0.4-0.9-0.4-1.4-0.2c-0.5,0.2-0.8,0.6-1.1,1
	c-1.4,1.9-2.5,4.1-2.2,6.4c0.1,0.9,0.7,1.9,1.6,1.7c0.3-0.1,0.5-0.3,0.7-0.4c0.8-0.6,2.1-0.1,2.9-0.7c1.8-1.4,0.1-4.6-0.2-6.9
	C234.4,115.6,234.4,115.3,234.2,115z"/>
<path fill="none" stroke="#E1E1E1" stroke-miterlimit="10" d="M168-3.1c-0.7,1.2-1.1,2.4-0.9,3.8c0.4,3.8,3.8,6.7,2.5,10.3
	s-3.9,6.4-6.4,9.3c-0.6,0.7-1.2,1.5-1.5,2.4c-0.2,0.9,0,2,0.8,2.5c1.1,0.7,2.5-0.2,3.6-1c1.1-0.8,3.1-1.7,3.6-0.5
	c4.1,11.7-2.1,24.7-2.2,37.2c0,1,0,2,0.2,2.9c0.2,0.9,0.6,1.7,0.9,2.5c1.7,4.2-1.2,10.2,1.9,13.5c0.7,0.7,1.1-1.3,2-1.8
	c1.1-0.7,2.4-0.9,3.7-0.8c0.6,0.1,1.1,0.5,1.5,0.9c1.8,1.6,3,4.3,5.4,4.7c1.8,0.3,3.3,1.1,5,0.6c2.8-0.9,4.5-3.5,7.4-3.8
	c4.2-0.4,8.4-0.7,12.6-1.1c0.9-0.1,2-0.1,2.6,0.6c0.6,0.6,0.6,1.5,1,2.2c1.1,2,4.1,1.4,6.2,0.6c4.5-1.8,9-3.7,13.5-5.5
	c1.9-0.8,4.1-1.6,6-0.9c1,0.4,1.9,1.1,2.9,1.5c5.2,2,9.4-6.7,15-5.9c4.3,0.6,6.1,6.6,10.4,7.4c1,0.2,2.2,0,3.2,0.4
	c2.2,0.8,3.3,4,5.6,3.7c2-0.2,2.6-2.9,4.2-4.3c1.4-1.3,3.8-1.4,4.7-3.1c1.3-2.1-0.7-4.6-2.5-6.2c-1-0.9-1.9-1.7-2.9-2.6
	c-2.6-2.3-5.2-4.6-7.8-6.9c-3.7-3.2-7.5-6.5-9.3-11c-0.9-2.2-1.2-4.7-1-7c0.5-5.6,3.6-10.5,6.7-15.2c4.4-6.5,9-13,13.8-19.2
	c1.5-2,3.3-4.1,5.8-4.5c1.9-0.3,4.1,0.4,5.6-0.8c0.7-0.6,1.1-1.6,1.8-2.2c1.8-1.6,4.5-0.2,6.9-0.4c1.3-0.1,2.5-0.6,3.6-1.3"/>
<path fill="none" stroke="#E1E1E1" stroke-miterlimit="10" d="M196.7-3.1c-0.2,3.1-0.2,6.2,1.4,8.8c0.6,1,1.4,1.9,1.9,3
	c0.7,1.8,0.2,3.7,0,5.6c-0.3,3.4,0.4,6.8,1,10.2c0.9,4.4,1.7,8.7,2.6,13.1c0.2,1.1,0.4,2.3,0.2,3.5c-0.4,2-2.3,3.5-2.8,5.5
	c-0.6,2.2,1.6,5.8,1.3,8.1c-0.3,2.1-2.6,2.6-3.3,4.5c-0.6,2,0.2,4.2,2.1,5c5,2.2,10.4,1.6,15.6,0c2.2-0.7,4.6-1.4,6.1-3.3
	c1.3-1.6,1.8-3.8,3.6-4.9c0.8-0.5,1.8-0.6,2.6-1s1.6-1.3,1.4-2.2c-0.1-0.4-0.4-0.8-0.6-1.1c-2.4-3.1-3.9-7.3-2.7-11
	c0.8-2.4,2.8-4.4,5.2-4.9c0.8-0.2,1.7-0.2,2.4-0.6c1.1-0.7,1.3-2.2,2.2-3.1c1.7-1.7,4.8-0.6,7.1-1.6c1.2-0.6,2.1-1.8,3.3-2.4
	c2.1-1.1,4.9-0.5,6.9-1.8c2.4-1.5,2.6-5,4.6-7c1-1,2.5-1.5,3.3-2.7c1.4-1.8,0.7-4.6,2-6.5c1.1-1.7,3.6-2.4,4.3-4.3
	c0.3-0.8,0.2-1.6,0.4-2.4c0.3-1.3,1.2-2.4,2.1-3.4c0.9-1,1.8-2.1,2.7-3.1"/>
<path fill="none" stroke="#E1E1E1" stroke-miterlimit="10" d="M222-2.7c0.9,1,1.9,1.9,3,2.6c0.6,0.4,1.2,0.8,1.9,0.8
	c1,0.1,1.9-0.3,2.7-0.8c1.5-0.7,3.1-1.3,4.7-1.8"/>
<path fill="none" stroke="#E1E1E1" stroke-miterlimit="10" d="M60-3c-0.8,4.7-2.4,9.3-2.1,14.1c0.3,3.5,1.5,7.1,0.3,10.3
	c-0.2,0.5-0.4,0.9-0.4,1.4c0,0.6,0.4,1,0.7,1.5c1.3,2-1.1,5.2,0.6,6.9c3,2.8,7.2-3.7,10.8-5.6c1-0.5,1.9-1,2.7-1.8
	c0.9-1,1.3-2.2,1.7-3.4c1.2-3,2.8-5.8,4.9-8.2c1.1-1.3,2.3-2.5,3.2-3.9c1-1.7,1.5-3.7,2.4-5.4c1-1.9,2.4-3.5,3.8-5.2"/>
<path fill="none" stroke="#E1E1E1" stroke-miterlimit="10" d="M-13,53.3c7.6-4.7,11.5-13.9,12.4-22.8c0.2-1.6,0.2-3.3,1-4.8
	c0.5-1,1.4-1.8,2.2-2.7c4.9-5.2,8.3-11.7,9.8-18.7c0.2-1,0.4-2.1,0.9-3.1c0.7-1.4,1.8-2.5,2.6-3.8"/>
<path fill="#EAEAEA" stroke="#D6D6D6" stroke-miterlimit="10" d="M123.7,320.9c-1.6-0.3-2.8-1.6-4.4-2c-1.7-0.4-3.7,0.5-5.3-0.4
	c-1.4-0.8-1.7-2.7-1.9-4.3c-0.1-1.2-0.3-2.4-0.4-3.6c0-0.3-0.1-0.6-0.2-0.8c-0.2-0.2-0.4-0.3-0.7-0.4c-2.5-0.7-4.1,1.3-6.2-0.2
	c-0.5-0.4-1.4-1-1.7-1.3c-0.7-0.9-1.4-1.7-2.5-1.8c-0.8,0-2.5,0.4-3.3,0.6c-1.4,0.3-2.8-0.3-4.1-0.7c-1.4-0.4-3-0.5-4,0.4
	c-1.3,1.1-1.1,3.2-0.2,4.7c0.8,1.5,2.1,2.7,2.8,4.2c0.7,1.5,0.8,3.3,1.6,4.8c1,2,3.1,3.3,5.2,4.2s4.3,1.4,6.3,2.6
	c0.6,0.3,1.1,0.7,1.7,1c0.8,0.3,1.6,0.3,2.4,0.4c2,0.1,4.3,0.4,5.5,2c0.5,0.6,0.8,1.4,1.2,2c1.9,3.3,6,5.1,7.1,8.7
	c0.4,1.2,0.3,2.5,0.7,3.7c0.7,2.7,3.1,4.6,5.4,6.3c0.6,0.5,1.3,1,2.1,1.1c2.2,0.4,3.8-2.1,6-2.8c0.8-0.3,1.7-0.4,2.2-1.1
	c0.3-0.4,0.4-0.9,0.5-1.4c0.6-2.3,3.1-4.1,3.8-6.3c0.8-2.2,0.4-4.7-0.2-6.9c-0.3-1-0.6-2.1-1.4-2.9c-1-1.1-3.2-1.5-4.2-2.6
	c-0.8-0.9-1.2-2.1-1.9-3.1c-2.7-4.3-6.2-3.3-8.4-0.8c-0.9,0.9-1.1-2.4-2.3-3C124.5,321,124.1,321,123.7,320.9z"/>
<path fill="#EAEAEA" stroke="#D6D6D6" stroke-miterlimit="10" d="M33.6,303.1c2.5-0.6,6.6-1.1,7-4.4c0.2-1.2-0.5-2.3-0.9-3.5
	c-1-2.6-1.1-5.8-3.3-7.6c-0.4-0.3-0.9-0.6-1.4-0.7c-0.5-0.1-0.9,0-1.4,0c-3.7,0.5-6.8,1.3-10.2,2.8c-0.6,0.3-1.3,0.6-1.7,1.1
	c-0.3,0.3-0.5,0.8-0.7,1.2c-1.9,3.5-6,5.2-9.8,6.6c-1.5,0.6-2.9,1.1-4.4,1.7c-1.3,0.5-2.8,1.1-3.5,2.3c-0.3,0.5-0.4,1.1-0.2,1.6
	c0.4,0.7,1.3,0.8,2.1,0.7s1.5-0.5,2.3-0.5c1.8,0.1,3,2,4.7,2.1c2.1,0.2,3.7-2.2,5.8-2.1c0.5,0,1,0.2,1.5,0.3c2.5,0.9,4,0.7,6.5-0.1
	C28.1,304.2,31.1,303.8,33.6,303.1z"/>
<path fill="none" stroke="#D6D6D6" stroke-miterlimit="10" d="M131.8,352.3c-0.1,1.7,2,3.9,2.8,5.3c0.2,0.4,1.8,3.8,1.8,4.3
	c0.2,1.8-1,3.2-1.7,4.9c-0.9,2.3-2.9,4.1-3.7,6.5c-0.5,1.6,0.1,4.6-0.7,6.1"/>
<path fill="none" stroke="#D6D6D6" stroke-miterlimit="10" d="M88.3,307.3c-0.9-0.5-2.6-0.6-2.8-1.2s-1.3-1.4-1.8-1.7
	c-2.5-1.1-3.5-0.8-6.1-0.1c-1,0.3-2.5,0.7-3.5,0.4c-1.4-0.4-2.5-2-3.2-3.2c-1-1.8-2.9-4-5-4.4c-2.4-0.4-3.8,2.3-5.7,3.9
	c-1.8,1.6-3.8,2.5-6.1,3.5c-0.5,0.2-1.5,0.1-2.1-0.3c-0.6-0.4-2.4-2.8-3.1-2.8c-3.9,0.1-5.3-0.2-8.6-2"/>
<path fill="none" stroke="#D6D6D6" stroke-miterlimit="10" d="M3.3,304.6c-1.6,1.6-4,0.8-6.3,4.1c-1.3,1.8-2.4,3-4.2,4.2
	c-0.9,0.6-2.8,1.2-4.2,1.9"/>
<path fill="none" stroke="#D6D6D6" stroke-miterlimit="10" d="M140.7,344.2c1.1-0.3,2.2-0.6,3.3-0.9c0.6-0.2,1.2-0.3,1.8-0.1
	c0.6,0.2,0.5,0.8,0.6,1.4c0.1,0.5,1,0.2,1.5,0.2c1.1,0.1,2.2,0.9,2.4,2.1"/>
<path fill="#EAEAEA" stroke="#D6D6D6" stroke-miterlimit="10" d="M150.3,346.7c0.5-0.7,1.9-0.6,2.5,0.1c0.2,0.3,0.3,0.7,0.5,1.1
	c0.2,0.3,0.5,0.5,0.7,0.7c1.6,1.3,3.1,2.7,4.4,4.2c0.9,1,1.8,2.3,1.6,3.6c-0.1,0.6-0.4,1.2-0.8,1.7c-0.3,0.4-0.5,0.8-0.8,1.1
	c-1,1-2.7,1.8-3.8,1c-2.3-1.7-3.3-4.8-3.5-7.7c-0.1-0.8,0-1.6-0.1-2.3C150.7,349.1,149.6,347.7,150.3,346.7z"/>
<path fill="#EAEAEA" stroke="#D6D6D6" stroke-miterlimit="10" d="M191.3,275.2c-0.2,0-0.4,0.2-0.5,0.3c-1.3,1.1-2.3,2.4-3.1,3.9
	c-0.1,0.2-0.3,0.5-0.3,0.7c-0.2,0.6,0,1.3-0.1,2c-0.1,0.6-0.4,1.2-0.3,1.8c0,0.5,0.3,1,0.6,1.4c0.6,0.9,1.5,3.3,2.1,2.4
	c0.1-0.2,0.2-0.4,0.4-0.5c0.5-0.2,0.8-0.7,0.8-1.2c0.1-0.5-0.1-1-0.2-1.5c-0.2-0.9-0.4-1.7-0.7-2.6c-0.1-0.3-0.1-0.5-0.1-0.8
	c0.1-0.6,0.6-1,1.1-1.4c0.6-0.5,1.1-1,1.6-1.6c0.2-0.2,0.4-0.5,0.4-0.7c0.2-0.7-0.4-1.4-1-1.9C191.8,275.4,191.5,275.1,191.3,275.2z
	"/>
<path fill="#EAEAEA" stroke="#D6D6D6" stroke-miterlimit="10" d="M225.4,302.6c0,0.1,0,0.3,0,0.4c0.1,0.2,0.4,0.3,0.6,0.3
	c1-0.1,1.8-1.2,2.8-1.3c0.3,0,0.7,0,1-0.1c0.6-0.2,0.8-1.1,0.6-1.7s-0.5-1.3-0.3-2c0.2-0.8,1-1.3,1.8-1.7c0.2-0.1,0.4-0.1,0.6-0.3
	c0.6-0.7-0.5-1.8,0-2.6c0.1-0.2,0.3-0.4,0.5-0.6c0.8-0.8,1.9-2.3,1-3c-1.3-1-3.2,1-3.9,2.4c-0.5,0.9-0.5,2-1,2.9
	c-0.1,0.1-0.2,0.3-0.3,0.4c-0.1,0.2-0.2,0.3-0.4,0.4C226.9,298,225.8,300.2,225.4,302.6z"/>
<path fill="#EAEAEA" stroke="#D6D6D6" stroke-miterlimit="10" d="M194.1,262.2c-0.4-1.2-2.2-1.4-2.6-2.6c-0.1-0.2-0.1-0.4-0.1-0.6
	c-0.3-1.4-1.7-2.3-2.9-3c-0.4-0.2-1-0.3-1.1,0.1c0,0.1,0,0.3,0,0.4c0.3,1.1,0.6,2.3,0.9,3.4c0.3,1.1,0.6,2.3,1.4,3.2
	c0.4,0.5,0.9,0.8,1.5,1c0.7,0.2,1.5,0.3,2.1-0.1S194.4,262.9,194.1,262.2z"/>
<path fill="#EAEAEA" stroke="#D6D6D6" stroke-miterlimit="10" d="M183.7,247.6c0.1,0,0.2-0.1,0.2-0.2c0.3-0.7,0.2-1.6-0.3-2.1
	s-1.4-0.7-2.1-0.3c-0.1,0.1-0.3,0.2-0.4,0.3c-0.1,0.2-0.2,0.4-0.2,0.7c-0.1,0.4-0.1,0.9,0.2,1.2c0.2,0.3,0.6,0.3,1,0.3
	c0.5,0,0.9,0.1,1.4,0.1C183.6,247.6,183.7,247.6,183.7,247.6z"/>
<path fill="#EAEAEA" stroke="#D6D6D6" stroke-miterlimit="10" d="M184.3,231.1c0.1-0.5-0.3-1.1-0.8-1.2c-0.5-0.2-1.1-0.1-1.6,0.1
	c-0.1,0-0.3,0.1-0.4,0.2c-0.5,0.3-0.3,1.1,0.1,1.5s0.7,1.2,1.3,1.1C183.6,232.7,184.2,231.8,184.3,231.1z"/>
<path fill="none" stroke="#D6D6D6" stroke-miterlimit="10" d="M191.8,275.5c0-1.1,0-2.9-0.1-4c0-1.1-0.1-2.1,0.3-3.1
	c0.1-0.4,0.3-0.8,0.5-1.2c0.3-0.6,0.7-1.5,1.5-1.9"/>
<path fill="none" stroke="#D6D6D6" stroke-miterlimit="10" d="M240.3,277.8c0.6,1.2,0.3,2.3-0.2,3.3c-0.3,0.7-1.1,1.2-1.8,1.5
	c-0.8,0.3-1.6,0.5-2.3,0.9c-0.8,0.5-2.2,1.4-1.7,2.1c0.4,0.5,1,0.6,1,1.2c-0.1,0.6-0.4,1.1-0.9,1.5c-0.4,0.4-0.9,0.8-1.2,1.3"/>
<path fill="none" stroke="#D6D6D6" stroke-miterlimit="10" d="M183.5,247.7c0.2,0.2,0.1,0.5,0.2,0.8c0.2,0.5,1.1,0.3,1.6,0.6
	c0.2,0.1,0.2,0.3,0.3,0.4c1.1,1,1.6,2.6,1.4,4c-0.1,0.4-0.2,0.8-0.2,1.3c0,0.4,0.3,0.9,0.7,1"/>
<path fill="none" stroke="#D6D6D6" stroke-miterlimit="10" d="M193.3,263.8c0.6,0.8,0.8,1.9,1.3,2.5c1,0.9,2.2,0.5,3.5,0.2
	c1.3-0.3,2.6-0.7,3.9-1.1c1.2-0.4,2.4-0.8,3.6-0.8c1.6-0.1,3.4,2.4,4.5,1.2c0.4-0.5,0.1-1.3,0.7-1.4c0.6-0.1,1.2,0.3,1.6,0.8
	c0.4,0.5,0.6,1.1,0.9,1.6c0.8,1.2,2.3,1.9,3.7,1.8c0.9-0.1,1.9-0.5,2.8,0c0.4,0.2,0.7,0.6,1.2,0.7c0.3,0.1,0.7,0,1-0.1
	c3.1-0.6,6.3,0.1,9.4,0.7c1.1,0.2,2.9,1.2,2.1,2c-0.8,0.8-2.2,2.2-1.3,2.8c1.1,0.7,3.2-0.3,3.8,0.8c0.5,1.1,0.9,2,2.1,2
	c1.2,0.1,2.3-0.1,3.5-0.3c1.2-0.2,2.5-0.5,3.3,0.3c0.4,0.4,0.7,1.8,1,2.2c2.6,3.3,3.8,0.7,6,1.6c1.2,0.5,1.3,2.1,2.5,1.8
	c0.3-0.1,0.6-0.2,0.9-0.2c1.1,0,0.4,2,1.3,2.7c1,0.7,2.4,0.2,3.1,1.2c0.7,1,0.2,1.7,1,2.6c1.5,1.7,1.9,0.2,6.5,2.5
	c0.5,0.3,1.2,0.3,1.7,0.7c0.5,0.4,0.9,0.9,1.2,1.4c1.1,1.6,2.2,3.5,2,5.5"/>
<path fill="none" stroke="#D6D6D6" stroke-miterlimit="10" d="M184.2,245.7c0.9-0.6,1.7-1.2,2.6-1.9c0.2-0.2,0.5-0.3,0.6-0.6
	c0.2-0.3,0.1-0.7,0-1c-0.2-0.7-1.1-0.8-1.5-1.4c-0.4-0.9,1.4-2.1,0.8-3c-0.6-0.9-1.8-1.1-2.6-1.8c-0.8-0.7-0.4-2.1-0.6-3.2"/>
<path fill="none" stroke="#D6D6D6" stroke-miterlimit="10" d="M182.7,194.6c-0.9,1.3-0.9,2.5-1.6,4c-0.7,1.6-0.6,4.1-0.5,5.9
	c0.1,1.9,0,3.9-0.1,5.8c-0.3,5-0.3,10-1.1,15c-0.1,0.8-0.2,1.8,0.2,2.5c0.6,0.9,1.4,1.1,1.7,2.1"/>
<path fill="none" stroke="#D6D6D6" stroke-miterlimit="10" d="M269.8,293.2c0.2,0,0.3-0.3,0.3-0.5c0.2-0.8,1.4-1,2.2-1.4
	c0.4-0.3,0.9-0.6,1.4-0.8c0.3-0.1,0.7-0.2,1-0.2c1.4-0.2,2.8-0.4,4.2-0.6"/>
<path fill="#EAEAEA" stroke="#D6D6D6" stroke-miterlimit="10" d="M361.8,119.1c-0.2-0.5-0.8-0.8-0.8-1.4c0-0.9,1.9-1.2,1.5-2
	c-0.5-1.2-2.8,0.2-3.8-0.6c-0.8-0.5-1.1-1.5-2-1.5c-0.9,0-1.8,0.6-2.4,1.2c-0.4,0.4-0.8,0.9-1.4,1.1c-0.7,0.2-1.3-0.2-2-0.2
	c-1.8,0-2.8,2.4-4.7,2.8c-0.8,0.1-1.6-0.2-2.4-0.3c-1.5-0.3-2.9,1.1-4.3,0.7c-0.7-0.2-0.4-1-0.9-1.4c-0.8-0.5-1.9-0.6-2.3,0.2
	c-0.9,1.5-0.5,7,2.6,8.9c0.9,0.6,2,1,2.5,2c0.4,0.7,0.3,1.6,0.4,2.5c0.1,0.8,0.4,1.8,1.2,2.1c1.2,0.4,2.3-0.8,3.5-0.7
	c1,0.1,1.8,1.6,2.8,1.2c1.2-0.5,0.9-2.7,2.1-3.1c0.9-0.3,1.9-0.1,2.4-1c0.5-0.8,0.6-1.8,1.1-2.6c0.5-0.8,1.5-0.4,2.4-0.7
	c1.3-0.4,0.7-2.7,1.7-3.6c0.6-0.5,1.4-0.8,2.1-1.3C361.6,120.7,362.1,119.8,361.8,119.1z"/>
<path fill="none" stroke="#D6D6D6" stroke-miterlimit="10" d="M71.6-2.8c-0.6,0.7-1.1,1.6-0.9,3.1c0.4,3.3-3.5,0.2-3.7,9.3
	c-0.2,8.6-5.3,16.3-9.3,23.9c-4.1,7.7-7.4,15.8-10.7,23.9c-0.9,2.2-1.8,5-0.3,6.9c0.5,0.6,1.1,1.1,1.7,1.6c3.7,3.7,2.2,10,0.3,14.9
	c-0.4,1.1-0.8,2.2-1.5,3.1c-0.5,0.6-1.1,1.1-1.5,1.8c-0.9,1.5-0.7,3.4-0.7,5.1c0.1,5.2-1.5,10.3-2.3,15.4c-1.5,10,0.2,20.1,1.9,30
	c2,11.7,4,23.4,8.2,34.5"/>
<path fill="none" stroke="#D6D6D6" stroke-miterlimit="10" d="M216,51.1c5.3,0.9,10.6,1.7,15.9,2.6c1.5,0.2,3,0.5,4.2,1.3
	c1,0.6,1.7,1.6,2.6,2.3c5.2,4,12.7-0.6,16.9,2.7c2.2,1.8,2.5,3.4,5.3,4c3.2,0.6,1.2,4.7,3.9,6.5c1.8,1.2,4.6,1.1,5.8,2.9
	c0.5,0.8,0.7,1.8,1.3,2.5c1.2,1.2,3.4,0.5,4.8-0.6c1.4-1.1,2.7-2.5,4.5-2.6c2.7-0.1,4.3,3.1,6.6,4.5c2.5,1.6,5.9,0.9,8.6,2.3
	c1.8,0.9,5.4,1.6,6.8,3.1c5,5,7.6,14,17,16.6c0.9,0.2,1.6,0.8,2.3,1.3c2.5,1.9,3.1,5.4,5.4,7.5c0.6,0.5,1.2,0.9,1.7,1.5
	c1.2,1.2,1.5,3,2.1,4.6c0.6,1.6,2.5,3.7,4.2,3.8"/>
<path fill="none" stroke="#4E9BD7" stroke-miterlimit="10" d="M178.1,149.1c-2.2-2.9-4.5-4.6-6.8-7.4c-0.6-0.8-1-3.2-2.9-2.5
	c-0.1,0-0.2,0-0.3-0.1c-0.6-0.8-0.7-1.8-1.2-2.7c-0.5-0.9-1.5-1.6-2.4-1.1c-0.5,0.3-0.7,0.8-1.2,1.2c-0.4,0.4-1.5,0.5-1.4-0.1
	c0.3-2.4,0.4-4.5-0.9-6.5c-1.7-2.6-0.2-6.8,0.9-9.7c6.3-15.1,5.5-32.2,10.1-47.9c0.5-1.8,1.3-3.8,2.9-4.7c0.7-0.4,1.5-0.5,2.2-0.9
	c1-0.5,1.8-1.5,2.5-2.4c1.6-2,3.3-4.1,4.9-6.1c1.3-1.6,3.5-3.3,5-2c0.6,0.5,0.9,1.4,1.7,1.6c1.1,0.3,2.1-1,3.2-0.9
	c0.6,0.1,1.1,0.5,1.6,1c4.4,3.9,11.8,4,16.3,0.1c0.8-0.7,3.4-5.2,3.4-6.3c0.1-4.2,1.1-4,1.5-8.2c1.1-12,3.5-23.7,6.8-35.1
	c0.7-2.4,1.5-5.4,2.6-7.7c0.8-1.7,1-3,0.9-4.1"/>
<path fill="#7BBCEB" stroke="#4E9BD7" stroke-miterlimit="10" d="M220,156.8c0.7,1,1.1,2.1,1.7,3.2c1.2,2.5,1.6,3.6,2.7,5.8
	c0.9,1.9,1.5,3.7,1.5,5.8c0,3.1-3.1,5.2-4.7,7.9c-0.7,1.2-1.8,2.6-3.1,3.3c-0.8,0.4-2.1,0.6-2.9,0.9c-2.5,0.8-3.9,2.6-6,4.1
	c-3.3,2.4-7.2,3.9-11.2,4.3c-2.2,0.2-4.4,0.1-6.5,0.5c-1.3,0.3-2.5,0.8-3.8,1.1c-2.7,0.7-5.5,0.8-8.3,0.9c-1.9,0-3.8,0.1-5.7,0.1
	c-0.6,0-1.1-0.1-1.6-0.3c-0.9-0.3-1.4-1.2-2.2-1.8c-2.3-1.8-4.7-3.3-6.8-4.8c-2.3-1.6-5-2.6-7.1-4.5s-2.7-5.1-2.3-7.9
	c0.3-2.1,0.9-3.5,2.5-5c1.6-1.4,3.9-2.2,5.6-3.4c4.1-2.8,7.1-6.7,10.6-10.2c1.1-1.1,2.2-2.2,2.9-3.6c0.4-0.8,0.7-1.8,1.1-2.6
	c0.5-0.8,1.3-1.5,2.2-1.5c0.9,0,1.6,0.6,2.4,0.9c1.1,0.5,2.3,0.6,3.5,0.6c2.7,0.2,5.5,0.4,8.2,0.2c1.4-0.1,2.7-0.2,4.1-0.1
	c1.1,0.1,2.1,0.3,3.2,0.5c5.6,1.2,11.3,2.4,16.9,3.6c0.7,0.2,1.4,0.3,2,0.7C219.3,155.9,219.7,156.4,220,156.8z"/>
<path fill="none" stroke="#585858" stroke-miterlimit="10" stroke-dasharray="4,1" d="M-13.1,273.3c1.3-0.8,2.7-1.6,4.1-2.6
	c1.9-1.4,3.2-4,4.7-5.8c2.4-2.9,6.8-3.1,9.7-5.4c0.9-0.8,1.8-1.9,1.6-3.1c-0.2-1-1.1-2-0.7-3c0.2-0.4,0.5-0.7,0.8-1.1
	c0.7-1,0.5-2.3,0.7-3.4c0.4-2.3,2.5-3.9,4.1-5.7c4.1-4.6,5.1-11.1,7.3-16.8c1.7-4.4,4.2-8.4,5.5-12.9c0.6-2.1,0.9-4.2,1.2-6.3
	c0.4-2.6,0.8-5.1,1.2-7.7"/>
<path fill="none" stroke="#585858" stroke-miterlimit="10" stroke-dasharray="4,1" d="M-12,306.3c0.4-0.4,0.8-0.8,1.2-1.2
	c3.2-3.4,7.6-4.3,11.8-6.3c2.1-1,4.1-2,6.1-3.2c3.4-2.1,6.4-5,9.7-7.3c11.6-8.4,26.9-11.2,37.4-20.9c4.3-3.9,9.3-6.5,13.6-10.4
	c1.8-1.7,3.7-3.3,5.5-5c1.5-1.4,3.1-2.8,4.4-4.4c4.4-5.5,5.5-13,9-19.2c2.1-3.7,5-6.9,7.7-10.2c2.3-2.9,4.4-5.9,6.3-9
	c4-6.6,7-13.8,9-21.2c0.6-2.3,1.2-4.8,3.1-6.2c4.1-3.1,7-7.2,11.4-9.9c5.3-3.2,10.7-6.4,16-9.6c3.2-1.9,6.4-3.8,9.8-5.6
	c3.2-1.7,6.5-3.2,9.8-4.6c19.5-8.3,39.9-14.4,60.8-18.1c1.2-0.2,2.4-0.4,3.6-0.8c2.3-0.8,3.9-2.8,5.4-4.6c3-3.7,9.9-2.4,14.7-2.4
	c4.7,0,9.3,2,13.3,4.4c3.1,1.9,6.1,4.1,8.7,6.7c8.7,8.5,24.2,8.7,35.9,1.7c1.3-0.8,2.6-1.7,4-2.4c1.4-0.7,3-1.3,4.5-1.8
	c3.9-1.4,7.9-2.7,11.8-4.1c1.3-0.5,2.7-0.9,3.8-1.8c4.1-3.2,3.1-9.5,4.3-14.6c0.1-0.6,0.3-1.2,0.8-1.6c0.7-0.7,1.8-0.8,2.7-1.1
	c1.7-0.5,3.2-1.6,4.5-2.8c4.5-3.6,9-7.3,12.5-11.9c1.3-1.7,3.4-3.5,4.8-5.1c1.9-2.2,3.2-3.9,5.5-5.7c0.3-0.2,0.6-0.5,0.9-0.7"/>
<path fill="none" stroke="#585858" stroke-miterlimit="10" stroke-dasharray="4,1" d="M-13.5,262.4c2.1-1,4.7-1.3,6-3.2
	c1-1.5,1-3.7,2.5-4.7c0.8-0.5,1.8-0.6,2.7-0.9c1.6-0.6,2.8-2.1,3.8-3.6c1.5-2.1,2.9-4.2,4-6.5c3.1-6.8,2.4-15.3,7.2-21.1
	c1-1.3,2.3-2.3,3.3-3.6c3.9-4.5,5.1-10.9,8.5-15.9c1.5-2.3,3.5-4.3,4.8-6.8c0.8-1.7,1.3-3.5,1.8-5.4c0.5-2.1,1.1-4.2,1.6-6.4
	c1.1-4.6,3.6-9.2,4.3-13.9c0.4-2.5,0.5-5.1,0.6-7.6c0.3-8.5-0.3-16.9-0.8-25.4c-0.1-1.7-0.2-3.4-0.8-5c-0.5-1.6-1.5-3.1-1.4-4.8
	c0.1-3.1-3.9-5.6-5.8-8.1c-2.9-3.7-3.5-8.7-2.9-13.4c0.7-4.6,5.3-11.4,7.1-15.7c3.1-7.2,3.3-12.2,6.1-19.5c1.3-3.4,2.6-6.9,3.3-10.5
	c0.6-2.8,0.8-5.6,1.6-8.4c1-3.4,7-12.5,8.6-15.7c7.2-13.4,9-21.5,13.6-36.1c0.4-1.3,0.8-2.5,1.2-3.8"/>
<path fill="none" stroke="#585858" stroke-miterlimit="10" stroke-dasharray="4,1" d="M-12.3,243.2c0.3-0.6,0.5-1.3,1-1.7
	c0.6-0.6,1.5-0.7,2.3-0.7c1.3-0.1,2.6-0.2,3.9-0.2c0.9,0,1.7-0.1,2.6,0.2c1.2,0.4,2.2,1.3,2.8,2.4c1.2,1.8,1.7,4.1,1.5,6.3"/>
<text transform="matrix(1 0 0 1 114.7556 306.6714)"><tspan x="0" y="0" fill="#585858" font-family="'Verdana-Italic'" font-size="8">Townsley</tspan><tspan x="0" y="9.6" fill="#585858" font-family="'Verdana-Italic'" font-size="8">Lake</tspan></text>
<text transform="matrix(1 0 0 1 5.0056 315.6715)"><tspan x="0" y="0" fill="#585858" font-family="'Verdana-Italic'" font-size="8">Fletcher</tspan><tspan x="0" y="9.6" fill="#585858" font-family="'Verdana-Italic'" font-size="8">Lake</tspan></text>
<text transform="matrix(1 0 0 1 175.4285 171.4156)"><tspan x="0" y="0" fill="#FFFFFF" font-family="'Verdana-Italic'" font-size="8">Evelyn</tspan><tspan x="3.9" y="9.6" fill="#FFFFFF" font-family="'Verdana-Italic'" font-size="8">Lake</tspan></text>
<text transform="matrix(1 0 0 1 28.8051 212.8454)"><tspan x="0" y="0" fill="#585858" font-family="'Verdana-Italic'" font-size="8">Tuolumne</tspan><tspan x="0" y="9.6" fill="#585858" font-family="'Verdana-Italic'" font-size="8">Pass</tspan></text>
<text transform="matrix(1 0 0 1 29.7439 203.3721)" fill="#585858" font-family="'Verdana-Italic'" font-size="8">9992</text>
<path fill="none" d="M5.5,354.6c2.2-4.5,5.2-8.6,8.4-12.6c7-8.7,14.8-17,24.6-22.4"/>
<text transform="matrix(0.5015 -0.8652 0.8652 0.5015 8.1238 354.8799)"><tspan x="0" y="0" fill="#7D7D7D" font-family="'Verdana-Italic'" font-size="7">1</tspan><tspan x="4.3" y="0" fill="#7D7D7D" font-family="'Verdana-Italic'" font-size="7" rotate="4.6">0</tspan><tspan x="8.5" y="0.4" fill="#7D7D7D" font-family="'Verdana-Italic'" font-size="7" rotate="7.6">4</tspan><tspan x="12.9" y="0.9" fill="#7D7D7D" font-family="'Verdana-Italic'" font-size="7" rotate="9.2">0</tspan><tspan x="17.2" y="1.6" fill="#7D7D7D" font-family="'Verdana-Italic'" font-size="7" rotate="10.8">0</tspan></text>
<path fill="none" d="M271.9,246.6c1.5,3.1-0.6,6.6-0.9,10.1c-0.3,3.2,1.2,6.3,1.6,9.5c0.6,4.1,0.1,9,3.4,11.4
	c3.3,2.4,8.4,0.6,11.7,2.9"/>
<text transform="matrix(-2.921563e-02 0.9996 -0.9996 -2.921563e-02 268.4802 254.8477)"><tspan x="0" y="0" fill="#7D7D7D" font-family="'Verdana-Italic'" font-size="7">1</tspan><tspan x="5.1" y="-0.2" fill="#7D7D7D" font-family="'Verdana-Italic'" font-size="7" rotate="-15.4">0</tspan><tspan x="9.2" y="-1.5" fill="#7D7D7D" font-family="'Verdana-Italic'" font-size="7" rotate="-11.3">8</tspan><tspan x="13.4" y="-2.2" fill="#7D7D7D" font-family="'Verdana-Italic'" font-size="7" rotate="-6.9">0</tspan><tspan x="18.5" y="-2.8" fill="#7D7D7D" font-family="'Verdana-Italic'" font-size="7" rotate="-22.1">0</tspan></text>
<path fill="none" d="M210.6,199c4.7-2,9.2-4.4,13.8-6.8c5.1-2.7,10.3-5.4,15.4-8.2"/>
<text transform="matrix(0.895 -0.4461 0.4461 0.895 216.449 199.1573)"><tspan x="0" y="0" fill="#7D7D7D" font-family="'Verdana-Italic'" font-size="7">1</tspan><tspan x="4.5" y="0" fill="#7D7D7D" font-family="'Verdana-Italic'" font-size="7" rotate="-1.1">0</tspan><tspan x="9" y="-0.1" fill="#7D7D7D" font-family="'Verdana-Italic'" font-size="7" rotate="-1.4">4</tspan><tspan x="13.4" y="-0.2" fill="#7D7D7D" font-family="'Verdana-Italic'" font-size="7" rotate="-1.4">0</tspan><tspan x="17.9" y="-0.3" fill="#7D7D7D" font-family="'Verdana-Italic'" font-size="7" rotate="-1.4">0</tspan></text>
<path fill="none" d="M348.2,271.8c-1.8,19.9-3.2,39.9-4.6,59.9"/>
<text transform="matrix(-7.689797e-02 0.997 -0.997 -7.689797e-02 343.9099 292.83)"><tspan x="0" y="0" fill="#7D7D7D" font-family="'Verdana-Italic'" font-size="7">1</tspan><tspan x="4.5" y="0" fill="#7D7D7D" font-family="'Verdana-Italic'" font-size="7" rotate="-0.1">1</tspan><tspan x="8.9" y="0" fill="#7D7D7D" font-family="'Verdana-Italic'" font-size="7" rotate="-0.2">0</tspan><tspan x="13.3" y="0" fill="#7D7D7D" font-family="'Verdana-Italic'" font-size="7" rotate="-0.2">0</tspan><tspan x="17.8" y="0" fill="#7D7D7D" font-family="'Verdana-Italic'" font-size="7" rotate="-0.3">0</tspan></text>
<path fill="none" d="M85.4,143.5c0.1-3.1,0.4-6.1,1-9.1c1.4-8,3.5-16,4.3-24.1c0.3-2.8,0.4-5.6,1.2-8.3"/>
<text transform="matrix(0.1811 -0.9835 0.9835 0.1811 88.5535 136.3598)"><tspan x="0" y="0" fill="#7D7D7D" font-family="'Verdana-Italic'" font-size="7">1</tspan><tspan x="4.4" y="0" fill="#7D7D7D" font-family="'Verdana-Italic'" font-size="7" rotate="0.9">0</tspan><tspan x="8.9" y="0.1" fill="#7D7D7D" font-family="'Verdana-Italic'" font-size="7" rotate="1">2</tspan><tspan x="13.3" y="0.2" fill="#7D7D7D" font-family="'Verdana-Italic'" font-size="7" rotate="0.3">0</tspan><tspan x="17.9" y="0.2" fill="#7D7D7D" font-family="'Verdana-Italic'" font-size="7" rotate="-1.3">0</tspan></text>
<path fill="none" d="M20.2,43c0.1-1.3,0-2.6,0.5-3.8c0.4-1.1,1.2-2,2-2.9c3.1-3.7,5.2-8.3,6.1-13c0.3-1.4,0.4-2.8,0.9-4.1
	c0.5-1.2,1.3-2.3,1.7-3.5c0.6-1.8,0.3-3.8,0.4-5.7c0.3-7.6,6.5-13.8,8.4-21.1"/>
<text transform="matrix(0.6331 -0.7741 0.7741 0.6331 23.341 39.5229)"><tspan x="0" y="0" fill="#7D7D7D" font-family="'Verdana-Italic'" font-size="7">1</tspan><tspan x="4.9" y="0" fill="#7D7D7D" font-family="'Verdana-Italic'" font-size="7" rotate="-9">0</tspan><tspan x="9.6" y="-0.8" fill="#7D7D7D" font-family="'Verdana-Italic'" font-size="7" rotate="-17.8">0</tspan><tspan x="14.3" y="-2.3" fill="#7D7D7D" font-family="'Verdana-Italic'" font-size="7" rotate="-26.7">0</tspan><tspan x="17.9" y="-4.5" fill="#7D7D7D" font-family="'Verdana-Italic'" font-size="7" rotate="-22.4">0</tspan></text>
<path fill="none" d="M200,8.7c0.7,1.8,0.2,3.7,0,5.6c-0.3,3.4,0.4,6.8,1,10.2c0.9,4.4,1.7,8.7,2.6,13.1c0.2,1.1,0.4,2.3,0.2,3.5"/>
<text transform="matrix(-3.195640e-02 0.9995 -0.9995 -3.195640e-02 197.4626 13.1361)"><tspan x="0" y="0" fill="#7D7D7D" font-family="'Verdana-Italic'" font-size="7">1</tspan><tspan x="4.9" y="-0.1" fill="#7D7D7D" font-family="'Verdana-Italic'" font-size="7" rotate="-9.5">0</tspan><tspan x="9.4" y="-0.9" fill="#7D7D7D" font-family="'Verdana-Italic'" font-size="7" rotate="-12.9">0</tspan><tspan x="13.7" y="-1.9" fill="#7D7D7D" font-family="'Verdana-Italic'" font-size="7" rotate="-12.9">0</tspan><tspan x="18.1" y="-2.9" fill="#7D7D7D" font-family="'Verdana-Italic'" font-size="7" rotate="-12.9">0</tspan></text>
<path fill="none" d="M260,41.4c0.5-5.6,3.6-10.5,6.7-15.2c4.4-6.5,9-13,13.8-19.2"/>
<text transform="matrix(0.5016 -0.8651 0.8651 0.5016 264.7751 34.1684)"><tspan x="0" y="0" fill="#7D7D7D" font-family="'Verdana-Italic'" font-size="7">1</tspan><tspan x="4.3" y="0" fill="#7D7D7D" font-family="'Verdana-Italic'" font-size="7" rotate="3.5">0</tspan><tspan x="8.7" y="0.3" fill="#7D7D7D" font-family="'Verdana-Italic'" font-size="7" rotate="4.4">2</tspan><tspan x="13.1" y="0.6" fill="#7D7D7D" font-family="'Verdana-Italic'" font-size="7" rotate="5.1">0</tspan><tspan x="17.5" y="1" fill="#7D7D7D" font-family="'Verdana-Italic'" font-size="7" rotate="5.7">0</tspan></text>
<g>
	<g>
		<polyline fill="none" stroke="#7D7D7D" stroke-miterlimit="10" points="85.2,341.6 85.2,348.7 275.4,348.7 275.4,341.7 		"/>
		<line fill="none" stroke="#7D7D7D" stroke-miterlimit="10" x1="180.5" y1="341.4" x2="180.5" y2="348.7"/>
		<line fill="none" stroke="#7D7D7D" stroke-miterlimit="10" x1="161.2" y1="349.2" x2="161.2" y2="343.7"/>
		<line fill="none" stroke="#7D7D7D" stroke-miterlimit="10" x1="142.4" y1="349.2" x2="142.4" y2="343.7"/>
		<line fill="none" stroke="#7D7D7D" stroke-miterlimit="10" x1="123.3" y1="349.2" x2="123.3" y2="343.5"/>
		<line fill="none" stroke="#7D7D7D" stroke-miterlimit="10" x1="104.6" y1="349.2" x2="104.6" y2="343.7"/>
	</g>
	<text transform="matrix(1 0 0 1 83.7835 339.1467)" fill="#7D7D7D" font-family="'Verdana'" font-size="8">0</text>
	<text transform="matrix(1 0 0 1 174.2946 339.1468)" fill="#7D7D7D" font-family="'Verdana'" font-size="8">0.5</text>
	<text transform="matrix(1 0 0 1 258.3416 339.1468)" fill="#7D7D7D" font-family="'Verdana'" font-size="8">1 mi</text>
</g>
</svg>
