<?xml version="1.0" encoding="utf-8"?>
<!-- Generator: Adobe Illustrator 17.1.0, SVG Export Plug-In . SVG Version: 6.00 Build 0)  -->
<!DOCTYPE svg PUBLIC "-//W3C//DTD SVG 1.1//EN" "http://www.w3.org/Graphics/SVG/1.1/DTD/svg11.dtd">
<svg version="1.1" id="Layer_1" xmlns="http://www.w3.org/2000/svg" xmlns:xlink="http://www.w3.org/1999/xlink" x="0px" y="0px"
	 viewBox="0 0 360 360" enable-background="new 0 0 360 360" xml:space="preserve">
<path fill="none" stroke="#E1E1E1" stroke-miterlimit="10" d="M120.4,380.4c-0.3-0.6-0.9-1.2-1.8-2c-2.1-1.6-5.3-1.1-6.7-2.6
	c-2.1-2.3-0.6-5.8,0.9-8c1.5-2.3,2.3-3.6,2.2-6.6c-0.1-3.8-1.1-3.2-4-4.5c-3.9-1.8-4.7-7.8-7.6-10.6c-2.4-2.4-3.5-0.1-5.2,1.7
	c-1.9,2.1-5.2,4.7-8,5.5c-2,0.6-4.5,0.1-6.6,0.2c-1.6,0.1-3.6,1.1-5,0.3c-2.6-1.3-2.3-4.1-4.8-5.1c-2.4-0.9-5-2.7-5.3-5.3
	c-0.1-1.1,0.3-2.1,0.7-3.1c5.2-13.4,12.1-26,20.7-37.5c2-2.7,4.1-5.4,6.2-8c1.8-2.2,3.6-4.5,5.3-6.7c0.5-0.7,1.1-1.4,1.3-2.2
	c0.2-0.7,0.1-1.4,0.4-2c0.7-1.6,4.1-3.2,2.7-4.3c-0.9-0.7-2.7-1.3-3.4-0.4c-0.7,0.9-0.7,2.2-1.8,2.4c-1.1,0.2-2.2-0.2-3.3-0.6
	c-0.7-0.3-1.4-0.5-2.1-0.8c-3.3-1.3-7-3-7.7-6.4c-0.1-0.7-0.1-1.6,0.5-1.9c0.8-0.5,2.6-1.2,3.5-1.5c1.3-0.4,2.5-2.3,3.7-3
	c1.9-1.2,5-1.6,6.2-3.7c0.7-1.3,1.1-3.7-0.6-4.5c-1.3-0.6-3.4,2-4.5,0.7c-2.8-3.1,2-4.8,4.7-7.2c2.2-1.9,3.9-4.2,5-6.8
	c1.3-3,3.1-5.6,5.2-8.3c1.6-2.1,6.5-5.3,4.3-7.2c-4.2-3.6-8,3.4-12.5,5.9c-3.1,1.7-4.8,0.8-6.7-1.4c-1.6-1.9-4.7-3.4-5.8-0.7
	c-0.5,1.4-2.4,2.1-3.9,2.3c-4,0.7-7.8,2.5-11,5c-0.7,0.6-1.5,1.2-1.9,2.1c-0.4,0.9-0.5,2-0.6,3c-0.7,5.2-4.5,9.4-6,14.3
	c-0.7,2.1-0.9,4.4-1.5,6.5c-2.1,7.2-8.2,13-8.8,20.4c-0.1,1.4,0,2.9-0.5,4.2c-1.4,4.2-7.6,6-7.6,10.5c0,1.5,0.8,2.9,1,4.5
	c0.2,1.3-0.1,2.6-0.4,3.8c-1.7,8.5-3.5,16.9-5.2,25.4c-0.4,2.1-0.9,4.2-2.1,6c-1.2,1.8-3.3,3.1-5.4,2.7c-0.7-0.1-1.5-0.5-2.2-0.5
	s-1.6,0.6-1.5,1.3c0.1,0.9,1.2,1.1,2,1.5c2.2,0.9,3.5,3.5,2.9,5.8s-2.8,4-5.1,4.3c-0.8,0.1-1.6,0-2.4,0.2c-2,0.5-3.1,2.8-3.2,4.8
	s0.4,4.1,0.5,6.2c0.2,4.4-1.8,8.6-3.8,12.5"/>
<path fill="none" stroke="#E1E1E1" stroke-miterlimit="10" d="M225.6,377.7c-0.8-1.7-2.6-2.7-3.1-4.7c-0.3-1.1,0.3-2.4,0-3.5
	c-0.3-1.2-1.5-2.2-1.8-3.5c-0.2-1.1,0.2-2.3,0-3.4c-0.3-1.3-1.1-2.1-1.5-3.4c-0.7-2.4,0.5-4.5,0-6.7c-0.3-1.3-1.1-2.2-0.8-3.4
	c0.2-0.8,1.2-1.4,1.5-2.1c0.3-0.7,0.1-1.8,0.3-2.6c1-4.2,3.9-9.1,7.8-11.3c2.2-1.3,4.6-1.7,7-2.5c3-1,4.3-3,6.7-4.7
	c2.3-1.7,4.8-3.7,7.5-5c2.8-1.3,4.3,0.2,6.8-0.2c3.2-0.5,2.5-2.9,4.5-4.6c2-1.7,4.9,0.3,5.5-2.2c0.7-2.6-1.2-2.8,1.2-5.1
	c1.6-1.5,3.8-2.4,5.1-4.2c0.7-1,0.8-2.2,1.3-3.2c0.8-1.7,3.1-2.1,3.4-4.1c0.7-3.4,1.6-4.2,3.5-5.5c2.4-1.6,2.7-4.5,4.6-6.7
	c0.8-0.9,1.9-1.5,2.5-2.6c0.8-1.4,0.4-3.3,0.4-4.9c0-2.6-0.1-2.8,4-3.6c3.2-0.6,2.1-4.2,5.5-4.7c2.3-0.3,4.8-0.1,7-0.6
	c2.9-0.7,4.5-0.9,7.5-0.5c2.8,0.4,5.4-0.2,8.2,0c1.9,0.2,3.8,0.8,5.4,1.8c2.2,1.3,4.5,3.6,6.5,4.8c3,1.7,2.7-1.5,4.2-3.7
	c1.3-1.9,3.1-1.5,5.3-2.8c5.3-3.1-2.6-5.7-7.8-6.7c-3.9-0.7-8.3-1-10.8-3.8c-1.9-2.1,0.8-4.1-0.8-6.5c-1.1-1.7-2.6-3-4.1-4.4
	c-3.3-3.2-7.5-5.4-9-9.9c-0.5-1.6-0.9-3-1.5-4.6c-1-2.5-1-2.6,0.5-4.8c2-2.8,1.4-3.6-0.8-6.2c-2.1-2.5-2.4-4.1-2.5-7.2
	c-0.1-1.9-1.3-5.4-0.3-7.2c1.9-3.3,8.1-2.6,10.5-5.1c2.8-2.8,3.7-3.9,8-4.5c4.2-0.6,6.8,0.2,10.2-2.7c2.6-2.1,2.5-3.9,2.5-7
	c0-7,5.8-7.8,10.5-7.8c1.1,0,2.5,0.5,3.5,0.3c1.5-0.3,2.5-1.5,4-1.8c2.5-0.4,4.9,0.9,7.3,1.2c3.2,0.5,4.4-1.1,7.2-1.9
	c3-0.9,5,0.7,7.7-0.6c1.4-0.6,2.4-1.3,3.3-1.7"/>
<path fill="none" stroke="#E1E1E1" stroke-miterlimit="10" d="M186.4,379.8c0.1-3.1-1-6.8-1.9-8.8c-1.4-2.8-1.1-5.1-1.6-8.2
	c-0.6-3.9-2.8-5.9-4.7-9.3c-1.3-2.4-3-7.2-6-3.7c-1.6,1.9-1,6-3.6,8c-0.9,0.7,0.4,5.3,0.8,6.5c0.1,0.4,0,0.9,0.2,1.3
	c0.2,0.4,1.6,0,1.7,0.7c0.3,1.1-1.1,2-1.2,3c-0.2,2,1.6,3.2,2.2,5c0.6,1.8,0.7,3.8,1.3,5.5c0.1,0.3,0.2,0.6,0.3,0.8"/>
<path fill="none" stroke="#E1E1E1" stroke-miterlimit="10" d="M170.5,344.3c1.6,1.5,2.2-2.5,1.8-3.8c-0.6-1.9-1.6-4.8-3.6-5.2
	C164.2,334.4,168.9,342.7,170.5,344.3z"/>
<path fill="none" stroke="#E1E1E1" stroke-miterlimit="10" d="M221.8,201.7c0.2,0.7,0.9,2.7,1.2,3.3c2.1,3.4,7.8,3.8,11.4,3
	c6.3-1.4,3.6-8.1,3.2-12.2c-0.2-2.5,0-5.9-3.5-5.8c-2.2,0.1-4.5,2.6-6.5,3.5C226.8,194,221.3,199.9,221.8,201.7z"/>
<path fill="none" stroke="#E1E1E1" stroke-miterlimit="10" d="M303.5,378.9c0.7-1,0.9-2.5,0.6-4.3c-0.7-3.6-4.3-4.7-5.8-7.7
	c-1.4-2.7-2.8-5.6-4.8-8.2c-2.3-3.1-8.3-4.5-12.2-4.3c-5.1,0.3-9.9,1-14.7,0c-2.5-0.5-4.9,0.1-7.3-0.2c-2-0.3-3.3-1.5-5.5-1.8
	c-4.4-0.4-10,1.7-14-0.7c-2.4-1.5-2.4-3.8-5.5-4.5c-2.9-0.6-3.9,0-5.9,1.7c-2.2,1.9-3.9,1.9-4.6,4.9c-0.3,1.6-1,4.6-0.5,6.3
	c0.4,1.4,2,4,2.8,5.2c2,3,4.1,0.7,6.7-0.6c4-2.1,10.2-4.7,14-3.6c1.9,0.6,4.7,1.6,6.5,2.5c2.2,1.1,1.6,2.8,3.3,4.4
	c1.4,1.4,3.9,1.6,5.1,3.5c1.2,1.9,0.7,3.2,3.2,4.1c4.4,1.6,9.8,1.7,14.4,2.1c1.9,0.2,3.7,0.3,5.5,0.7"/>
<path fill="none" stroke="#E1E1E1" stroke-miterlimit="10" d="M379,190.7c-2.9-0.9-5.6-1.5-8.8-0.9c-4.7,0.9-10,0.7-14.7-0.1
	c-3.8-0.6-9.3-2.5-12.1,1.7c-1.1,1.6-0.7,5.6-0.7,7.6c0,3.2-1.2,2.6-2.4,4.8c-1.1,2.1,0.6,2.9-1.4,4.9c-1.9,1.9-4.5,2.4-6.2,4.5
	c-0.3,0.4-1.3,1.8-1.5,2.2c-0.8,1.8-0.5,2.2-0.3,4.6c0.3,2.4,0.4,5.9-0.2,8.2c-0.7,2.7-2.7,3.9-0.3,6.6c1.8,2,4,4.4,6,6.3
	c1.8,1.7,3.5,2.8,5.4,4.1c2.3,1.6,2.7,2.6,3.6,5.3c0.7,2.1,1.9,5,3.6,6.7c1.4,1.4,3.1,1.8,4.9,3c3.5,2.5,7.7,3.6,11.1,5.7
	c1.9,1.2,3.5,2.9,4.8,4.8c1.1,1.6,3,3.3,3.6,5.1c0.8,2.2-0.2,4.9-1.3,6.7c-1.8,3-1.3,3.3-0.7,6.8c0.5,2.5,0.3,5.2,0.2,7.8
	c0,2.6,0.7,4.7,1.2,7c0.8,3.4,1.2,5.6,3.6,7.9c1,1,2,2.1,3,3.3"/>
<path fill="none" stroke="#E1E1E1" stroke-miterlimit="10" d="M379.2,265.8c-2.5-2-5.9-2.9-8.5-5c-3.2-2.5-7-4.1-10.6-6.1
	c-1.6-0.9-3.1-1.2-4.4-2.5c-1.4-1.4-2.3-2.8-4-4c-2.4-1.7-6.2-3.7-7.5-6.2c-1.5-3-2.9-7.3-2.8-10.8c0.2-4.1-2.8-8.6,0-11.9
	c1.9-2.2,1.5-5.2,2.6-7.5c0.9-2.1,3.2-2.3,4.3-3.7c1.4-1.9,0.4-3.6,2.4-5.4c2.9-2.5,3.4-2,6.5-0.7c2.3,0.9,4.8,0.4,7.2,0.3
	c2.7-0.1,3.8,0.9,6.1,2.2c2.7,1.6,6.1,2.5,9.5,2.8"/>
<path fill="none" stroke="#E1E1E1" stroke-miterlimit="10" d="M380,218.6c-3.4,0.8-6.9,1.9-10.2,1.9c-2.2,0-4.7-2.2-6.5-3.3
	c-1.8-1-3.1-2.5-5.2-3c-3.8-0.8-8.4,3.7-10.6,6.7c-1.3,1.9-1.3,3.7,0,5.4c0.9,1.1,3.6,2.4,4,3.7c0.5,1.7-1.6,2.6-2.1,4.3
	c-0.6,1.9-0.2,3.9,1.4,5.3c3.9,3.3,9,1.2,12.6,4.9c0.8,0.8,1.2,1.8,2,2.5c0.9,0.9,2.1,1.3,3,2.2c2,2.2,1.3,3.8,4.6,4.7
	c1.7,0.5,2.5,0.5,3.9,1.6c0.6,0.5,1.2,1.7,1.8,2.2c0.5,0.4,1,0.7,1.5,1"/>
<path fill="none" stroke="#E1E1E1" stroke-miterlimit="10" d="M379.9,43c-1.2,1.1-2.6,2.1-4.2,2.9c-3,1.5-6.4,2.1-9.4,3.6
	c-2.5,1.3-4.7,3.2-7.4,4.3c-4.7,1.8-10.8,0-13.1-4.5c-3.3-6.7,2.6-14.1,7.9-19.2c8.7-8.3,17.4-16.6,26.1-25"/>
<path fill="none" stroke="#E1E1E1" stroke-miterlimit="10" d="M305.9-20c-0.7,1.3-1.5,2.5-2.5,3.6c-1.4,1.6-3.3,2.8-4.4,4.7
	c-1.2,2-1.3,4.3-1.7,6.5c-1.3,6.4-5.1,13.8-11.5,15.2c-2.4,0.5-4.9,0.8-7.3,1.2c-2.4,0.4-5.3,0.1-6.8-1.9c-0.9-1.3-1-3-1-4.6
	c0.2-8.3,3.6-16.4,9.2-22.5c0.6-0.7,1.3-1.4,2-2"/>
<path fill="none" stroke="#E1E1E1" stroke-miterlimit="10" d="M379.8,64.3c-4.9,0.4-9.8,0.8-14.7,1.2c-5.5,0.5-11.2,0.9-16.2-1.4
	c-8.9-4.1-12.1-15.7-9.7-25.2s8.9-17.3,15.2-24.7c2.3-2.7,4.5-5.3,6.8-8c5.9-6.9,12-14,18.9-19.8"/>
<path fill="none" stroke="#E1E1E1" stroke-miterlimit="10" d="M137.6,380c0.2-2.5,0.5-5.1,0.4-7.5c-0.1-2.6-0.6-5.7-1-8.3
	c-0.3-2.4-2.3-1.4-3.7-3.5c-1.6-2.5,3.2-2.5,3.1-5.9c-0.1-2.9-1.4-7.6-1.9-10.2c-0.3-1.6-1.1-3-1.3-4.5c-0.3-2,0.3-3.2-1.5-4.5
	c-2.4-1.7-6-1-8.5-2.7c-2.3-1.6-2.4-4.6-3-7.1c-0.7-2.8-1.3-6-3.5-8c-2.2-2-3.3-4-5.1-6.4c-2-2.7-2.4-3.5-1.7-6.8
	c0.6-2.7,2.6-5.3,4.3-7.4c1.6-2.1,2.7-4.4,4-6.7c1-1.7,3.1-3.7,3.7-5.3c0.8-2.2,0.5-5.6,0.5-8c0-1.3-0.1-2.6,0.1-3.8
	c0.2-1.8,1.2-2.8,1.7-4.5c0.8-3.2-2.1-4.2-5-4.5c-2.3-0.2-4.8,0.8-5.5-1.7c-0.2-0.9,0.1-3,0.5-3.7c0.8-1.4,1.6-1.1,2.7-2
	c2.5-2.1,4.3-9.4,6-12.9c2.2-4.7,7.8-5.2,11.5-8.1c2-1.5,4.5-2.3,6.7-3.4c2.2-1.1,4.3-0.8,6.5-1.6c2.1-0.8,3.9-2.7,5.8-3.9
	c4-2.5,9-2.6,13.7-1.8c3.2,0.6,4.1,2.8,6.8,3.9c2.1,0.9,6,1.3,8.2,0.5c5.1-1.9,11.7-10.5,15.5-6.2c0.8,0.9-1.3,2.7-0.2,3.4
	c3,1.9,6,1,9.2,1.3c2,0.1,4.1,0.4,5.9,1.2c1.9,0.8,2,1.6,4.4,1.1c1.7-0.4,3.9-1.9,5.7-1.8c1.9,0.2,2.7,1.9,4,2.9
	c2.3,1.6,5.9,5,7.9,3c2.1-2.1-1.6-3-2.4-5.2c-1-2.5,1-3.4,2.3-5c1.6-1.8,2.8-3.7,5.4-4.3c2.1-0.5,4.3,0.3,6.3-0.9
	c4.5-2.7,2.8-8,2-12.1c-0.2-1.1,0-2-0.5-3c-0.4-0.9-1.8-1.7-2-2.5c-0.7-2.8,4-1.7,4-3.8c0.1-4-0.3-2.6-0.9-5.2
	c-0.1-0.5-1.5-1.6-1.8-2.4c-0.3-0.7-0.7-3-0.5-3.8c0.6-2,2.3-1.3,3.2-2.7c0.7-1,0.2-3.3,0.8-4.5c0.5-0.9,1.8-1.4,2.4-2.3
	c0.8-1.1,1.3-2.1,1.1-3.4c-0.2-0.8-1.9-1.7-2-2.5c-0.2-1.4-0.8-2.8-0.5-4.2c0.3-1.2,1.5-1.7,2.6-2.3c1-0.5,2.1-1.6,1.8-2.7
	c-0.3-0.8-1.2-1.2-1.7-1.9c-0.7-1.3,0.4-2.8,1.5-3.8c1.9-1.6,4.1-2.9,6.4-3.9c0.6-0.2,1.1-0.5,1.6-0.9c0.6-0.5,0.9-1.3,1.2-2.1
	c0.9-2.1,2.4-4.5,4.7-4.4c0.5,0,1.1,0.2,1.6,0c0.5-0.2,0.9-0.9,0.5-1.2c-0.2-0.2-0.4-0.2-0.6-0.2c-2.2-0.3-4.8-2.4-4.4-4.6
	c0.4-2,1.2-4.1-0.4-5.3c-1.1-0.9-3-1.3-3-2.7c0-0.5,0.2-1,0.4-1.4c0.3-1.1,0.7-3-0.4-3.2c-4.5-1-8,4.8-12.4,6.1
	c-2.3,0.7-4.8,1.2-7,0.2c-0.5-0.2-1-0.5-1.6-0.6c-1.5-0.2-2.7,1.2-3.5,2.4c-0.5,0.9-1.1,1.8-1.1,2.8s-2.1,3.6-1.9,5.1
	c0.2,1.8-0.5,3.3-1.8,4.5c-1.3,1.2-2.9,2.6-2.6,4.4c0.1,0.6,0.3,1.1,0.3,1.6c-0.2,1.8-3.2,1.9-3.6,3.6c-0.1,0.6,0.1,1.2,0.2,1.7
	c0.4,1.3,0.6,2.7,0.6,4c0,0.5,0,1.1-0.3,1.6c-0.4,0.8-1.3,1.1-2,1.7c-1.7,1.4-2.2,3.7-3.8,5.2c-0.4,0.4-1.2,1.4-1,1.9
	c1.7,2.8,0.6,3.1-0.2,3.9c-1.2,1.1-2.7,3.1-4.2,3.9c-1.5,0.8-3.3,0.5-4.8,1.2c-2.5,1.1-0.3,2.7-2.3,4c-1.5,0.9-2.1,0.8-3.2,1.1
	c-2.5,0.7-1.5,0.4-2.3-2.1c-1.3-4.1-2.9,0.4-6-0.2c-5.6-1.1-0.3-4-1.5-6.5c-0.6-1.2-1.9-0.2-2.5-2c-0.4-1.3,0.6-2.7,1-3.8
	c0.6-1.3-0.6-2.4-1.8-3.2s-2.7-1.2-4.1-1.5c-1.1-0.3-2.2-0.5-3.2-0.8c-2-0.5-4.6,0.6-6-0.9c-1.9-1.9-3.1-4-5.4-5.4
	c-3.2-2-5-5.5-7.5-8.3c-1.9-2.2-4.3-3.9-6.7-5.6c-1.3-0.9-2.5-1.9-3.4-3.1c-0.9-1.2-1.4-2.7-2.4-3.9c-1-1.2-3.6-2.7-4-1.2
	c-0.8,2.6,2,5.9-0.2,7.4c-0.9,0.7-3,0.6-2.9,1.8c0.1,1,1.7,2,1.1,2.8c-1.6,2.3-7.2,0.7-7.8,3.5c-0.5,2.6,3,4.6,2.9,7.3
	c0,1.7-1.2,3.9-2.8,3.3c-0.6-0.2-1-0.7-1.5-1c-1.7-1.3-4.4-0.9-5.6,0.9c-1.6,2.2-0.5,6.2-2.9,7.6c-0.9,0.5-2.7,1.3-3.7,1.6
	c-5.6,1.7-11.2,5.1-12.6,7.2c-2.6,3.9-7,8.2-8.6,12.6c-1,2.6-1.2,3.5-3.6,5.3c-2.1,1.5-4,3.2-5.7,5c-1.3,1.4-2.7,2.9-4.2,4.1
	c-1.2,1-4.8,2.3-5.3,4.4c-1.5,7.7-11.8,11.6-17.2,17.2c-3.5,3.6-8.3,6.3-10.4,10.8c-7.2,15.6-10.2,32.7-18.5,47.7
	c-1.1,1.9-2.1,3.8-3.6,5.4c-1.2,1.3-2.7,2.3-3.7,3.7c-2.3,3.3-1.6,7.6-1.2,11.6c0.4,4-0.1,8.7-3.6,10.7c-1.6,0.9-3.6,0.9-5.3,1.5
	c-3.8,1.3-6.3,5.6-5.7,9.5c0.2,1.3,0.7,2.5,0.7,3.8c0,1.1-0.3,2.2-0.7,3.2c-2.2,5.7-6.7,10.4-12.3,12.9c-5.3,2.3-11.4,2.7-16.1,6.1
	c-2.7,1.9-4.6,4.7-6.4,7.4c-2,2.9-4,5.7-6,8.6"/>
<path fill="none" stroke="#E1E1E1" stroke-miterlimit="10" d="M146.3,379.9c0.7-1.9,2.4-3.7,3.2-5.4c1-2.2,1.2-4.4,1.2-6.9
	c0-2.8-0.5-5.6-0.8-8.1c-0.2-2.5,0.5-5.3,0-7.7c-0.5-2.3-1.9-4.8-2.7-7c-0.9-2.5-1-5.1-1.9-7.5c-0.4-1.2-1.5-2-1.9-3.2
	c-0.4-1.2,0.2-2.6,0-3.8c-0.5-2.3-2.2-3-3.8-4.7c-0.9-1-1.6-2.1-2.6-2.9c-0.8-0.6-1.9-1-2.5-1.7c-1.4-1.6-1.9-4.3-3.5-6
	c-2.2-2.4-2.8-2.7-3.9-5.7c-0.7-1.9-1-5.9-1.2-6.2c-1-1.9,0-6.4,0.8-8.7c0.9-2.5,2.9-4.4,3.9-6.8c1.3-2.8,2.4-5.9,3.9-8.7
	c1.2-2.1,2.8-3.8,4-5.9c1.6-2.7,1.5-3.5-0.6-5.5c-1.8-1.7-1.8-3.1-2.3-5.5c-0.4-2.1,0-3.9-1.2-5c-0.7-0.7-1.8,0-2.3-1.2
	c-0.3-0.8,0.5-2.6,0.9-3.3c2.2-3.2,4.5-2.1,7.5-3c1.5-0.5,2.6-1.7,4.3-1.9c2.1-0.2,2.8,0.9,4.5,1.5c1.4,0.5,3,0.4,4.3,0.9
	c1.1,0.4,2.1,1.6,3.3,1.9c1.6,0.4,2.6-0.7,4.2-0.4c2.2,0.4,1.8-0.2,4.5,1.2c1.2,0.6-0.9,3.1-0.2,4.2c0.8,1.2,3.3-1,4.4-0.2
	c3.3,2.2,0.1,2.9,3.5,3.3c2,0.2,4.6-0.6,6,1c1,1.1,0.2,5.1,1.8,5.9c1.5,0.7,2.5-1,3.7-1c1.9-0.1,2.4,1.3,4.1,1.6
	c1.9,0.3,4.6-0.9,6.7-1c3-0.2,4.2-0.2,6.7-2c1.5-1.1,8.1-11.6,10.8-6.5c2.1,4.1-6.9,7.3-1,11.5c1.3,0.9,0.6,1.5,2.5,2.7
	c3.5,2.4,6.5-2.8,10.2-1.4c4,1.5,7.8-4.2,11.8-2.5c0.2,0.1,0.3,0.7,0.5,0.7c3.1,0.5,3-5.5,6.2-4.7c1.8,0.4,4.9-5.8,7.7-8.1
	c4.2-3.5,3.1-9,8.2-10.5c2.7-0.8,3.7-0.2,6.3,0c1.7,0.1,5-0.1,4.2-1.7c-1.3-2.5-3.6-3.6-4.4-5.8c-0.4-1.1-0.6-1.6-1-2.7
	c-0.5-1.1-1.1-1-1.3-2.8c-0.4-3.2,1-3.9,2.3-6.5c1.2-2.3,0.6-5.1,0.7-7.6c0.1-2.7,1-3.5,3.1-5.2c2.5-2.1,4.3-0.9,4.7-4.6
	c0.3-2.9-0.6-5.9-0.2-8.7c0.3-2.1,2.7-4.2,2.1-6.4c-0.8-2.8-3.2-2.1-1.8-5.6c0.8-2,2.5-3.3,3.5-5.2c1-2,1.3-4.3,2.2-6.3
	c1-2.3,3.1-3,4.1-5c0.5-1.1,0.1-3.7,0.7-4.8c1-1.7,1.9-3.4,2.7-5.2c0.7-1.8,2.6-2.4,4.2-3.4c1.6-1,1.1-3.7,2.4-5
	c1.1-1,2.7-1.5,4-2.4c1.6-1,2.8-2.6,3.4-4.5c0.2-0.6,0.3-1.2,0.7-1.6c0.3-0.4,0.8-0.6,1.3-0.8c1.9-1.1,2.6-3.3,3.2-5.4
	c0.8-2.8,0.1-5.5-0.8-8.2c-0.3-0.8-0.5-1.8-0.2-2.6c0.6-1.8,3.1-2.5,3.4-4.3c0.1-0.6-0.1-1.1,0-1.7c0.1-1.3,1.4-2.4,2.8-2.4
	c0.7,0,1.4,0.1,2.1,0c0.7-0.2,1.3-0.9,1-1.5c-0.1-0.2-0.3-0.4-0.5-0.6c-2.4-1.8-5.5-2.7-8.5-2.5c-0.7,0-1.4,0.1-2-0.2
	c-0.3-0.2-0.5-0.4-0.8-0.7c-1.5-1.8-1.7-4.5-0.5-6.5c0.7-1.2,1.8-2.8,0.8-3.7c-0.5-0.4-1.2-0.4-1.8-0.3c-2,0.5-3.2,2.4-4.4,4
	s-3.2,4.3-4.9,3.2c-0.8-0.5-1.6-0.8-2.4-1.3c-1.2-0.7-1.4-2.4-1.3-3.8c0.4-4.8,2.8-9.5,6.7-12.5c1-0.8,2.1-1.4,2.7-2.5
	c0.6-1.1,0.7-2.6-0.3-3.4c-1.2-0.9-3.1,2-4.1,0.9c-0.9-0.9,0.1-2.6-1-3.1s-2.6-0.1-3.6,0.6c-1.1,0.7-1.9,1.7-3,2.4
	c-2.2,1.6-5.2,2.2-7.8,1.5c-1.5-0.4-2.9-1.1-4.5-1c-2,0.2-3.7,1.9-5.7,2.2c-0.7,0.1-1.4,0-2,0.2c-1.4,0.5-2.1,2.3-3.5,2.7
	c-2.5,0.7-4-3.4-6.6-3.6c-0.7-0.1-1.5,0.2-2.1,0.4c-1.8,0.6-3.6,1.3-5.3,1.9c-3,1-6.1,2.2-8.1,4.6c-1.2,1.5-2,3.4-3.4,4.8
	c-1.3,1.2-3,1.9-4.4,3s-2.7,2.8-2.2,4.5c2.2,9-12.6,15.2-13.5,24.4c-0.1,1.3,0,2.6-0.3,3.8c-0.9,3.5-4.4,5.5-7.2,7.8
	c-2.4,2-4.3,4.6-6.8,6.5s-5.8,3.2-8.8,2.2c-2.1-0.8-3.8-2.7-6-3.1c-1.2-0.2-2.5,0.1-3.7-0.1c-2.1-0.2-3.8-1.5-5.5-2.7
	c-4.7-3.5-9.4-7-14.1-10.5c-0.7-0.5-1.5-1.1-1.9-1.9c-0.3-0.6-0.4-1.3-0.5-2c-0.6-4.9-1.9-9.8-3.9-14.3c-0.9-2.1-1.9-4.1-2.3-6.3
	c-1-5.1,3-9,6.3-13c2-2.4-2-6-1.7-9.1c0.1-1.1,0.6-2.1,1-3.1c1.1-2.7,2.1-5.4,2.7-8.2c0.6-2.4,0.6-7.4-1.7-6.6
	c-5.1,1.7-9.4,4.5-14.3,6.7c-0.6,0.3-1.3,0.6-1.6,1.3c-0.4,0.7-0.2,1.5-0.4,2.3c-0.4,2.3-2.8,3.6-4.9,4.4
	c-5.1,2.1-10.2,3.9-15.5,5.4c-3.8,1-8.4,1.7-11.1-1.2c-2.8-2.9-1.7-8,1.1-10.9s6.7-4.4,10.3-6.3c8.3-4.4,15.1-11.3,23.2-16.1
	c3.7-2.1,11.6-1.2,11.5-5.5c0-1.2-1.2-2-0.6-3c0.6-1,1.8-1.5,2.8-2.1c1.7-1,3.3-2.2,4.8-3.5c3.4-2.7,6.8-5.4,10.3-8.2
	c5.7-4.5,11.3-9,16.9-13.7c1.1-0.9,2.1-1.8,2.9-3c0.7-1.2,1-2.5,1.7-3.6c0.7-1.1,2.2-1.1,3.3-1.7c2.4-1.3,2.1-5.1,4-7
	C207,6.6,208,5.9,209,6s0.7,1.3,1.2,2.3c2,3.6,9.2-2.1,9.8-6.3c0.4-2.4,2.9-5.3,5.2-5.9c0.9-0.2,2.8,0,3.6-0.5
	c2-1.1,2.9-3.5,4.3-5.3c2.4-2.9,4.8-5.9,8-7.8c1.3-0.8,2.8-1.5,4.3-2.2"/>
<path fill="none" stroke="#E1E1E1" stroke-miterlimit="10" d="M268.1-19.7c-1.9,2.8-3.8,5.6-5.7,8.3c-1.4,2-1.8,5-3.8,6.4
	c-3.1,2.1-2.3,5.4-2.2,12.4c0.1,8.2,2.4,16.6,2.4,23.7c0,2.6-5.1-2.5-7.3-1.2c-2,1.1-3.4,4.5-1.2,5.1c2.2,0.6,7.5-0.2,9.8,0
	s6.2,3.3,4.1,4.3c-2.2,1.1-4.3,3.1-2.4,4.7c0.7,0.6,1.6,0.7,2.4,1.1c6.3,2.7,4.3,13.9,10.5,16.8c1.7,0.8,3.6,0.8,5.4,0.4
	c7-1.4,11.9-7.5,17.4-12.2c4.4-3.8,9.5-6.8,15-8.9c0.6-0.2,1.3-0.4,1.9-0.2c0.6,0.2,0.9,0.8,1.2,1.3c4.1,6.9,8.2,13.8,12.3,20.8
	c2.3,3.9,4.7,7.9,8.5,10.5c3.1,2.1,6.9,3.1,9.8,5.5c1.1,0.9,2,2.1,3.2,2.9c3.4,2.3,8.1,1.6,11.7,3.5c1.9,1,3.6,3.4,2.5,5.3
	c-0.7,1.2-2.2,1.6-3.5,2.2c-4.1,1.6-7.2,5.1-10.2,8.4c-4.9,5.5-9.9,11.2-12.1,18.2c-1,3.2-1.4,6.5-1.2,9.9c0.2,3.2,0.9,6.4,2.1,9.4
	c0.3,0.7-0.9,2.3-0.5,2.8c0.8,1,2.7,0.3,3.4,1.4c0.8,1-0.3,1.9-1,3c-0.5,0.8,1.7,1.8,1,2.5c-0.6,0.6-1.5,0.8-1.3,1.6
	c0.2,0.8,0.9,1.3,1.5,1.9c0.6,0.6,1.2,1.6,0.7,2.2c-1.3,1.5-3.7-0.2-5.3-1.4c-1.6-1.2-4.2-2-5.2-0.3c-0.7,1.1,0,2.6-0.4,3.8
	c-0.5,1.8-3.4,2.4-4.5,0.8c-0.3-0.4-0.5-0.9-0.9-1.3c-0.8-0.8-2.2-0.3-3,0.6c-0.8,0.8-1.2,1.9-1.9,2.8c-1,1.1-2.5,1.7-3.8,2.5
	c-1.3,0.8-1.3,2.5-2.3,3.7c-1.9,2.3-3.9,3.3-5.4,5.9c-0.4,0.6-2,0.9-2.6,1.3c-2.4,1.5-5.4,4-7.1,6.2c-1.5,2-1.8,4.3-3.5,6.2
	c-2.3,2.7-8.3,6.8-4.7,10.7c0.8,0.9,1.8,0.6,2.5,1.8c0.6,1.1,0.1,3.4-0.1,4.6c-0.4,2.7-2,4-3.8,6c-1.4,1.6-3,3.1-3.7,5.2
	c-0.3,1-0.1,2.3-0.6,3.3c-0.8,1.5-1.9,1.3-2.2,3c-0.6,2.6,1,5.2,3.5,5.2c1.7,0,3.9-2,5.5-0.9c1.3,0.9,1.1,5.3,0.8,6.7
	c-0.4,2.3-1.7,3-1.1,5c0.5,1.5,2.3,3.3,2.5,4.8c0.4,2.4-2.2,3.8-1.7,6.2c0.7,3.1,8.4,6.8,6.4,9.2c-1.8,2.2-5.3,0.1-8,0.5
	c-2.4,0.4-4.7,2.1-6.8,3.2c-2.4,1.3-3.1,2.7-4.5,4.8c-1.6,2.5-2.8,1.5-5.3,3c-0.8,0.5-2.4,2.1-2.6,3c-0.4,1.6,0.4,1.2,0.8,2.5
	c0.7,2.7-0.9,3.5-3.1,5.2c-1,0.8-1.9,0.7-2.3,2.3c-0.3,1.1,0.7,2.2-0.2,3.5c-1.4,2-4.2,1.4-6.3,2.2c-3.6,1.3-4.2,4.1-4.8,7.3
	c-0.6,3.6-1.4,3-4.5,2.7c-5.9-0.6-10.2,4.8-14.5,6.7c-2,0.9-3.6,0.8-5.6,1c-3,0.4-3.3,1.6-5.1,3.6c-1.4,1.5-3,2.8-5.1,3.2
	c-0.7,0.1-1.4-0.1-2.1,0c-1.6,0.2-2.7,1-4.2,1.3c-1.5,0.3-3.1-0.3-4.6,0c-1.8,0.4-2.2,1.2-3.7,2.4c-1.3,1.1-1.5,1.3-3.2,1.6
	c-0.7,0.1-1.5-0.2-2.2,0c-0.8,0.3-1.3,1.4-2.2,1.7c-1.8,0.7-4.4-0.4-6.1,0.4c-1.5,0.8-1.4,4-2.7,4.8c-0.8,0.5-3.4-4-4-4.9
	c-1.5-2.4-4.1-2-3-5.2c0.4-1.1,1.1-2.1,1.9-2.9c0.6-0.6,2.8-1.3,3.1-2c0.5-1.1-0.5-1.9-0.8-2.8c-0.9-2.3-0.3-1.7,0.1-3.9
	c0.4-2.5-1.1-4.5-3.3-5.9c-0.6-0.4-2.2-0.5-2.6-1c-0.8-0.9-0.2-2.6-0.6-3.7c-0.4-1.2-0.7-2.2-2.2-2.2c-1.7,0-1.7,1.5-3,1.8
	c-1.7,0.4-2.6-1.2-4-1.8c-1.2-0.5-2-0.5-3.5-0.5c-1.8,0-5.3,1.2-6.5,0c-0.7-0.7-1.3-3.5-2.2-4.6c-1-1.2-2.4-2.8-3.8-3.6
	c-2.5-1.4-5.4-0.3-8.3-2.4c-2.9-2.1-6.5,8.6-8.4,11.5c-2,3-5.2,7.4-4.6,11.6c0.5,3.3,2.2,4.5,4.3,6.9c1.6,1.8,2.8,4,3.9,6.1
	c2.2,3.8,7.7,4.1,7.1,9.5c-0.1,1-0.8,1.6-0.6,2.8c0.2,1.1,1.8,2,2.3,3c1,1.9,1,4.4,1.5,6.5c1.1,4.7,1.6,9.2,4.2,13
	c2.7,3.9,0.9,7.4,0.8,12c-0.1,2.3,0.1,4.9,0.2,7.2c0.2,2,1.3,3.6,1.2,5.6c0,2.2-0.5,5.5-1.3,7.7c-0.1,0.2-0.2,0.5-0.3,0.8"/>
<path fill="none" stroke="#E1E1E1" stroke-miterlimit="10" d="M253.4,41.1c1.3,0.4,2.7,0.7,4,0.2c1.2-0.5,1.9-2.5,0.8-3.3
	c-0.1-0.1-0.2-0.1-0.2-0.2c-1.9-1.1-4.7,0-5.4,2.1c-0.1,0.2-0.1,0.4-0.1,0.6C252.7,40.8,253.1,41,253.4,41.1z"/>
<path fill="none" stroke="#E1E1E1" stroke-miterlimit="10" d="M213.8,87.5c-1.1-0.2-1.9,1-2.4,2c-0.1,0.3-0.3,0.6-0.2,0.9
	c0.1,0.1,0.2,0.3,0.3,0.4c0.8,0.7,2,0.7,2.8,0.1c0.8-0.6,1.2-2,0.5-2.8C214.6,87.8,214.2,87.5,213.8,87.5z"/>
<path fill="none" stroke="#E1E1E1" stroke-miterlimit="10" d="M192.6,95.1c1.6-0.4,3.4-0.8,4.7-1.7c1.5-1.1,2.9-3,4.7-2.7
	c2.4,0.4,3.4,4.3,5.7,3.9c0.7-0.1,1.3-0.7,1.9-0.9c1.5-0.5,3,0.7,3.6,2.1c0.5,1.4,0.3,3,0.1,4.5c-0.5,3.7-1.1,7.3-1.6,11
	c-0.2,1.4-0.4,2.9-1.3,4c-0.7,1-1.8,1.7-2.8,2.5c-4.7,4.2-4,11.9-7.6,17.1c-0.7,1-1.5,1.9-2.6,2.3c-2.5,1.1-5.4-0.2-7.8-1.5
	c-0.8-0.4-1.5-0.8-2.3-1.3c-4.2-2.3-8.4-4.6-12.6-6.8c-0.9-0.5-1.8-1-2.5-1.7c-2.4-2.4-1.8-6.7,0.2-9.4c0.6-0.8,1.2-1.5,1.6-2.4
	c0.4-0.8,0.4-1.8,0.5-2.7c0.4-3.2,3.9-4.5,5-7.6c0.4-1-0.5-2.2,0.2-3.1c0.7-0.9,1.7-1.5,2.7-1.9C185.8,97.2,189.1,96,192.6,95.1z"/>
<path fill="none" stroke="#E1E1E1" stroke-miterlimit="10" d="M-20.3,353c2.7-2.9,6.4-4.9,10.3-5.5c0.5-0.1,1-0.1,1.5,0
	c0.5,0.2,0.8,0.5,1.3,0.7c1.8,1,4-0.2,5.6-1.5c1.5-1.4,2.9-3.1,4.9-3.6c1.2-0.3,2.5-0.1,3.5-0.6c1.1-0.6,1.7-1.8,1.8-3
	c0.3-4.1-4.1-6.9-5.7-10.7c-1.9-4.4,0.2-9.6,3.4-13.1c3.2-3.5,7.4-6,10.8-9.3s2.9-8.6,5.6-12.5c1.6-2.2,4-3.5,4.3-6.2
	c0.1-0.8,0.2-1.6,0.6-2.2c0.5-0.8,1.4-1.2,2.2-1.7c4.6-2.7,6.4-8.5,10.4-11.9c2.3-2,7.3-4.5,5.3-6.8c-1-1.1-2.4-1.8-2.7-3.3
	c-0.3-1.5,0.1-3,0.5-4.4c2.5-7.7,3.1-16.5,8.3-22.7c2.3-2.8,4.5-5.2,5.1-8.8c0.5-3.5-0.5-9.7,3-10.1c1.8-0.2,3.3,2,4.9,1.4
	c0.8-0.3,1.4-0.8,1.9-1.4c7.3-7,10.4-18.8,19.6-23.2c3.3-1.6,7.1-1.9,9-5s2.4-6.9,2.2-10.5c-0.1-1.8-0.3-3.6,0.1-5.3
	c0.4-1.6,1.2-3,2-4.4c1.4-2.7,2.6-5.5,2.6-8.6c0-3-1.2-6.2-3.8-7.8c-1.7-1.1-4.3-1.8-4.5-3.8c-0.1-0.8,0.2-1.6,0.5-2.3
	c1.1-3.2,3-7.5,0.6-9.9c-0.9-0.9-3.4,0.4-3.7-0.9c-1.2-4.7,6.5-7.4,8.3-11.9c0.7-1.7,1.2-3.6,2.4-5c0.5-0.6,1.2-1.2,1.7-1.9
	c0.5-0.7,0.8-1.5,1-2.3c1-3,0.8-6.7,3-8.9c2.4-2.4,5.5-4.5,5.3-7.9c-0.2-3.4-3.1-6.5-6.5-6.6c-2.7-0.1-5.2,1.5-7.4,3
	c-11.9,7.8-24.2,14.8-36.9,21c-1.9,0.9-3.8,1.8-5.2,3.3c-2.4,2.5-3.1,6.3-3.4,9.8c-0.3,3.3-0.3,6.5,0,9.8c0.2,3.1,1.2,6.9,4.2,7.8
	c3.7,1.1,10.2-5.8,11.3-2c1.3,4.7-5.7,8-7.3,12.6c-0.2,0.6-0.4,1.3-0.3,1.9c0.5,2.5,7.2,3.9,5,5.3c-4.1,2.5-9.5,1.4-12.5,5.1
	c-3,3.7-4.7,8.3-7.2,12.4c-2.3,3.8-5.4,7.1-8.5,10.3c-13.5,13.6-29.3,25.1-46.4,33.8c-5.2,2.7-10.7,5.1-16.6,5.4"/>
<path fill="none" stroke="#E1E1E1" stroke-miterlimit="10" d="M50,159.5c0.7,0.8,2.2,0,2.9-0.8c0.7-0.8,1.7-2,1.2-2.9
	c-0.5-1-2.3-0.1-3.1,0.6C50.1,157.3,49.3,158.7,50,159.5z"/>
<path fill="none" stroke="#E1E1E1" stroke-miterlimit="10" d="M-21.5,349.1c2.8,1.4,5.8-1.8,6.6-4.8c0.3-1.1,0.4-2.3,1-3.3
	c1.3-2.4,4.4-3.3,6-5.6c2.1-3,0.9-7-0.6-10.4c-1.5-3.3-3.1-7.1-1.6-10.4c0.6-1.4,1.7-2.5,2.8-3.6c3-3,5.9-6,8.9-9
	c0.5-0.5,1.1-1.1,1.8-1.3c0.5-0.1,1.1-0.1,1.6-0.1c0.6-0.1,1.2-0.5,1.7-0.8c5.9-4.3,1.5-13.2,5-19.6c1.9-3.4,6.1-4.5,8.4-7.6
	c2.7-3.6,6.3-6.4,10.3-8.2c2.1-0.9,4.8-2.1,4.9-4.4c0.1-1.3-0.8-2.5-1-3.8c-0.3-1.3,0-2.6,0.3-3.9c1.5-5.9,4.2-11.7,4.1-17.9
	c0-2.1-0.4-4.3,0.3-6.3c0.8-2.3,2.7-3.9,4.3-5.7c2.2-2.5,3.8-5.6,4.6-8.9c0.3-1.3,0.4-2.8-0.7-3.6c-1.5-1.1-3.5,0.5-4.8,1.7
	c-3.3,3.1-7.4,5-11.6,6.7c-13.1,5.3-27.4,9-37.6,18.8c-2,1.9-3.8,4-6.2,5.3c-2.7,1.4-6,1.7-8.9,0.6"/>
<path fill="none" stroke="#E1E1E1" stroke-miterlimit="10" d="M0.4,259.8c-0.7-1.3-2.8-1-4.1-0.3s-1.9,2.9-0.7,3.6
	C-2.4,264.3,1.5,261.8,0.4,259.8z"/>
<path fill="none" stroke="#E1E1E1" stroke-miterlimit="10" d="M2.2,260.1c1.3,1.5,5.4-0.8,4.5-2.5c-0.5-0.8-1.8-0.7-2.7-0.9
	c-0.4-0.1-0.8-0.1-1.2,0.1c-0.6,0.2-0.9,0.9-0.9,1.5C1.8,258.9,1.7,259.7,2.2,260.1z"/>
<path fill="none" stroke="#E1E1E1" stroke-miterlimit="10" d="M17.9,252.1c1.6-0.6,2.8-2.2,3-3.9c0.1-0.9-0.1-1.9-0.8-2.5
	c-0.7-0.6-1.7-0.5-2.6-0.5c-2.5,0.2-4.9,0.3-7.4,0.5c-0.4,0-0.7,0.1-1,0.2c-0.7,0.4-0.9,1.3-1.3,1.9c-0.3,0.6-0.9,1-1.2,1.6
	c-0.8,1.3-0.6,3.2,0.5,4.3s2.9-0.1,4.3,0.6c0.8,0.4,1.1,1.2,2,1.3c0.8,0.1,1.6,0.2,2.4,0c0.8-0.2,1.4-0.9,1.4-1.7
	c0-0.4-0.2-0.9,0-1.3C17.2,252.4,17.6,252.3,17.9,252.1z"/>
<path fill="none" stroke="#E1E1E1" stroke-miterlimit="10" d="M206.5-21.3c-3.3,1.4-1.2,6.3-1.4,9.9c-0.2,2.9-2.2,5.3-4.2,7.4
	c-11.9,12.8-25.7,23.6-39.4,34.5C148.5,40.7,135.5,51,121,58.9c-4.3,2.3-8.7,4.4-12.7,7.1c-4.5,2.9-8.6,6.5-12.8,9.8
	C86.8,82.6,77.4,88.4,67.3,93c-6.7,3.1-14.1,6-18.1,12.2c-2,3.1-2.5,6.8-3.8,10.2c-6.7,17,0.9,22.1-1.2,25.6c-1.8,3-4.3-2-12.3,9.7
	c-3,4.4,0.9,11.2-1.5,16c-1.1,2.4-4.2,4.1-5.5,6.4c-0.6,1.1-1.2,2.2-1.3,3.4c-0.1,0.9,0.1,1.9,0,2.8c-0.2,1.4-1.3,2.6-2.2,3.6
	c-6,6.5-12.1,13-19.9,17c-2.7,1.3-5.7,2.5-7.2,5.1c-0.4,0.6-0.6,1.4-1.2,1.9c-0.5,0.5-1.2,0.8-1.8,1.1c-4.5,1.9-8.9,3.8-13.4,5.6"/>
<path fill="none" stroke="#E1E1E1" stroke-miterlimit="10" d="M-22,190.6c6.6-4.8,13.1-9.6,19.7-14.4c2.4-1.8,4.8-3.5,6.9-5.6
	c2-2,3.7-4.3,5.4-6.6c3-4.1,6.1-8.2,9.1-12.3c2.5-3.4,5.1-6.9,6.5-10.9c0.3-0.7,0.5-1.5,0.3-2.3c-0.5-2.2-4.4-4-2.9-5.7
	c0.9-1.1,2.5,0.2,3.9-0.1c6.9-1.7,6.1-12.7,9.1-19.1c2.2-4.6,4.4-9.2,5.5-14.2c0.4-1.9,0.7-3.9,1.5-5.7c1.4-3.2,4.3-5.5,7.2-7.6
	c3.6-2.6,7.3-5.2,11.1-7.6c9.1-5.8,18.8-10.9,26.9-18c6.2-5.4,13.3-9.5,20.1-14c2.1-1.3,4.1-2.7,6-4.3c1.2-1.1,2.3-2.2,3.8-2.8
	c1-0.4,2.1-0.4,3.1-0.7c1.4-0.5,2.4-1.5,3.5-2.5c4.9-4.5,10.8-7.7,15.9-12c5-4.3,9.2-9.7,15.3-12.3c2-0.9,4.3-1.4,5.9-2.9
	c2-1.8,2.7-4.7,4.9-6.2c0.7-0.5,1.6-0.8,2.3-1.3c1.3-0.8,2.3-2,3.3-3.2c2.7-3,5.9-5.6,8.7-8.6c2.8-3,5.1-6.6,5.6-10.7"/>
<path fill="none" stroke="#E1E1E1" stroke-miterlimit="10" d="M-19.7,56c1.4-2.8,5.6-3,7.2-5.6c1-1.6,0.9-3.6,1.9-5.2
	c0.5-0.9,1.4-1.5,2.1-2.2c2.3-2,4-4.6,5.6-7.1c0.5-0.7,0.9-1.5,1-2.4c0.1-1.1-0.5-2.1-0.8-3.1s0.8-2,0.5-3c-0.6-2.2-4.5,1.8-6.8,1.3
	c-1.9-0.4-0.4-3.8,0.7-5.3s1.5-3.7,2.9-4.9c0.9-0.8,1.9,1.2,2.6,2.1c0.7,0.9,2.4,2.2,3,1.2c1.2-2.2,0.8-5,1.9-7.2
	c0.7-1.4,0.7-2.9,1.3-4.3c0.3-0.9,1.8-0.4,2.6-0.8c3-1.6,3.2-6,4-9.3c0.9-3.6,1.6-8,5.1-9.3c1.1-0.4,2.3-0.4,3.5-0.5
	c3.1-0.3,6.3-1.4,8.4-3.7c2.3-2.4,3.2-6.1,2.3-9.3"/>
<path fill="#EAEAEA" stroke="#D6D6D6" stroke-miterlimit="10" d="M334.4,319.7c-0.1,1.2,0.2,2.4,1,3.4c0.1,0.2,0.3,0.4,0.4,0.6
	c0.1,0.2,0.1,0.5,0.1,0.7c0,1.4,1,4.2,2.1,3.3c1-0.8-0.5-2.7,0.2-3.8c0.2-0.3,0.4-0.7,0.7-1c0.2-0.2,0.1-0.6,0-1
	c-0.3-0.8-0.5-1.7-1-2.4c-0.6-0.7-1.5-1.1-2.3-0.9c-0.2,0.1-0.5,0.2-0.7,0.4C334.4,319.1,334.4,319.4,334.4,319.7z"/>
<path fill="#EAEAEA" stroke="#D6D6D6" stroke-miterlimit="10" d="M366,379.9c-0.7-0.5-1.9-0.5-2.8-0.9c-2.9-1.2-6.2-4.2-6.1-5.2
	c0.2-1.3,2.6-0.5,3.9-0.2c1.4,0.3,2.8,0.6,4.3,0.9c0.4,0.1,0.8,0.2,1.2,0.4c0.3,0.2,0.6,0.6,0.9,0.8c1.9,1.8,5.1,0.9,7.4-0.5
	c0.4-0.3,1-1,1.2-1.5c0.2-0.6-0.4-1.1-0.7-1.6c-1.7-2.6-5.1-6.7-7.1-6c-1,0.4,0.5,2.1-0.2,2.9c-1.8,2.2-2.1-3.9-7.5-3.7
	c-1.4,0-2.7,0.9-4.1,1.1c-1.4,0.2-3.2-1-2.6-2.3c0.3-0.5,0.9-0.8,1.3-1.3c1.3-1.3-0.8-3.5-0.1-5.1c0.2-0.4,1.1,0,1.4-0.4
	c0.5-0.5,0-1.5,0.5-1.9c1-0.7,2,1.3,2.8,2.3c1.9,2.3,4.8,6.2,7.4,4.7c2-1.2-0.4-4.7-1.7-6.7c-1.3-2-3-3.7-4.3-5.7
	c-1.7-2.5-2.8-5.3-4.4-7.8c-1.6-2.5-4.1-4.7-7-5c-0.5,0-1,0-1.4-0.3c-0.4-0.2-0.7-0.7-1.1-1.1c-0.8-0.9-2.2-0.7-3.4-0.9
	c-0.9-0.2,0.3-1.6,1.1-2s1.6-0.8,1.9-1.6c0.1-0.4,0.1-0.9,0-1.3c-0.7-3.2-2.1-6.2-4.1-8.8c-1.6-2.1-4-3.5-5.1-6
	c-1.1-2.4-0.8-6.2,1.4-7.8c0.6-0.5,1.7-0.7,2.2-1.2c0.7-0.7,0.6-1.9,0.8-2.7c0.9-5.4-0.6-8.4,0.7-12c0.5-1.3,3-0.3,4.3-0.9
	c0.7-0.3,0.9-0.5,1.7-0.8c2.6-0.9,6.4,0.8,7.4,3.4c0.5,1.2-1,1.6-2.1,2.3c-1.1,0.8-2.1,2.3-1.2,3.3c1,1.1,3.1,0.1,4.2,1.2
	c1.1,1.1-0.3,3-0.2,4.6c0.1,0.9,0.7,1.6,1.1,2.4c0.4,0.8,0.9,2.5,0,2.5c-1.3,0-2.8-0.6-3.3,0.6c-0.8,1.6,0.7,3.4,2.1,4.6
	c1.4,1.2,2.9,2.4,3.8,4c1,1.6,1.4,3.6,0.5,5.3c-0.2,0.4-0.4,0.7-0.8,0.9c-0.3,0.2-0.6,0.2-1,0.2c-2.4,0.3-4.4-0.7-6.6-1.5
	c-0.8-0.3-0.8,1.6-0.2,2.2c0.6,0.7,1.5,1.1,1.8,2c0.4,1.2-0.6,2.6,0,3.8c0.9,1.9,4.6,0.7,5.4,2.7c0.4,1-0.3,2.2,0.2,3.2
	c0.6,1.2,2.5,1.4,3.8,1.2s3-0.3,3,1c0,1.5-2.6,2.2-2.3,3.7c0.1,0.5,0.5,0.8,0.9,1.1c1.5,1.2,2.9,2.4,4.4,3.6c0.5,0.4,1,0.9,1.3,1.5
	c0.5,1.1,0.1,2.5,0.5,3.7c0.3,1,0.8,1.8,1.5,2.6c0.6,0.7,2,1,2.4,2.3c0.3,1,0,2.7,0.2,3.4c0.7,1.8,2.3,2,2.7,3.9
	c0.4,1.6-1.4,4.3,0.2,4.7c0.3,0.1,0.6,0,0.9-0.2"/>
<path fill="#EAEAEA" stroke="#D6D6D6" stroke-miterlimit="10" d="M340.4,380.1c-1-2.5-1.6-5.3-2-7.9c-0.4-2.9-0.8-5.1,0.2-7.8
	c0.5-1.3,1-3.2,0.8-4.5c-0.3-1.5-1.9-2.4-2.2-3.9c-0.2-1,0.1-2,0.4-2.9c0.7-2.6,0.5-5.4-0.5-7.9c-0.6-1.6-1-3.3-2.2-4.5
	c-0.9-1-2.1-1.9-2.4-3.1c-0.2-0.8,0-1.6,0-2.5c0-3.1-2.2-6.1-1.6-9.1c0.1-0.3,0.1-0.5,0.4-0.7c0.2-0.1,0.5-0.1,0.7-0.1
	c1.2,0.2,2.3,1.2,2.7,2.3c0.2,0.5,0.2,1,0.4,1.4c0.5,1,1.9,0.5,2.8,1.1c1.3,0.7,1.4,2.4,1.2,3.8c-0.2,1.3,0.5,2.6,1.6,3.4
	c1.1,0.8,2.5,1.5,2.8,2.8c0.4,1.6-1.1,3.3-0.7,4.9c0.2,0.6,0.6,1.2,0.6,1.8c0.1,0.8-0.4,1.6-0.4,2.4c0,1.7,2.1,2.8,2.5,4.5
	c0.2,1.2-0.6,2.9,0.3,3.8c0.4,0.4,3.4,0.7,3.8,1.1c0.7,0.9,2.5,4.2,1.8,5c-0.5,0.6-1.6-0.1-1.9,0.6c-0.3,0.7,1,1.4,0.8,2.2
	c-0.4,1.9-0.4,4,1.4,5.5c0.6,0.5,1.1,1.2,1.5,1.8c0.8,1.3,0.9,2.9,1.3,4.5"/>
<path fill="#FFFFFF" stroke="#D6D6D6" stroke-miterlimit="10" d="M350.2,313.5c-0.1-0.4-0.4-0.7-0.6-1c-0.1-0.1-0.2-0.2-0.3-0.3
	c-0.2-0.2-0.5-0.2-0.8-0.1c-0.6,0.1-1.2,0.4-1.5,0.9s0.1,1.2-0.2,1.7c-0.3,0.4-0.9,0.6-0.7,1s0.7,0.8,1.2,0.8c0.5,0,1-0.2,1.4-0.4
	c0.5-0.3,0.9-0.6,1.3-1C350.1,314.6,350.3,314.1,350.2,313.5z"/>
<path fill="none" stroke="#D6D6D6" stroke-miterlimit="10" d="M342.6,291.3c-1.3-0.7-2.6-3.9-1.9-5.1c0.7-1.3,2.4-2.7,2.8-4.1
	c0.3-1.2,0.3-2.1-0.6-3c-2.2-2.2-6.1,0.3-8.5-1.6c-2.7-2.2-1.7-8-3.8-10.8c-1.1-1.5-1.8-3.5-3.6-3.9c-5-1.1-11-1.7-15.5-4.1
	c-0.9-0.5-1.9-0.7-2.8-1c-1.4-0.5-2.7-1-4.1-1.4c-2.2-0.6-4.4-1-6.6-1.4c-0.7-0.1-1.3-0.2-2-0.3c-1.3-0.2-2.6-0.4-3.9-0.7
	c-1.4-0.2-2.8-2.4-4.1-2.8c-4-1.3-7.1-1.6-10.9-3.3c-1.8-0.8-3.7-2.3-5.6-2.9c-3.8-1.2-7.5-2.9-11-4.9c-1.2-0.7-2.3-1.4-3.6-1.8
	c-2.5-0.7-5.1,0-7.7,0.1c-2.5,0.1-4.8-1-7.3-1.4c-3.1-0.5-7-1.1-8.9-3.6c-0.9-1.1-1.7-1.8-2.3-3.1c-1.6-3.4-4.3-5.7-5.7-9.2
	c-0.5-1.3-1.5-2.9-1.6-4.3c-0.1-2.3-2.5-3.6-4.4-5.1c-5.6-4.3-4.5-1.6-9.6-6.4c-0.8-0.7-4.5-9.2-5.5-9.7c-0.9-0.5-5-0.9-6-1.2
	c-2.3-0.6-4.1-3.5-6.2-3.1"/>
<path fill="none" stroke="#D6D6D6" stroke-miterlimit="10" d="M190.7,348.7c-0.4-0.4-1.1-1.6-1.1-2.2c0-0.1,0-0.3-0.1-0.4"/>
<path fill="none" stroke="#D6D6D6" stroke-miterlimit="10" d="M189.4,340.5c0.2-1.3,1.6-2.5,1.4-4.4c-0.2-1.9-1-3.6-1.2-5.5
	c-0.5-4.2,1.7-8.4,1-12.6c-0.3-1.7-1-3.5-0.1-5c0.5-0.9,1.4-1.4,2.2-1.9c4.9-3.1,8.8-7.6,11.1-12.9c1.5-3.3,2.3-7,3.8-10.3
	c1.2-2.5,2.7-4.9,3.7-7.5c1.5-4,1.7-8.4,3.3-12.3c1.9-4.6,5.7-8.1,9.6-11.3c1.2-1,2.5-2,3-3.5c0.4-1.1,0.4-2.4,0.3-3.6
	c-0.1-1.7-0.1-3.5,0.5-5.2c0.6-1.6,2.9-4.8,4.3-5.8c1.3-1,2-2.2,2.8-3.7"/>
<path fill="#EAEAEA" stroke="#D6D6D6" stroke-miterlimit="10" d="M194.3,348.6c-1.7-1-4.3,0.1-4.8,2.1c-0.1,0.3-0.1,0.6,0,0.9
	c0.2,0.3,0.5,0.5,0.8,0.7c1,0.8,1.2,2.2,1.4,3.5c0.1,0.5,0.2,1,0.5,1.3c0.2,0.2,0.6,0.4,0.9,0.4c0.8,0.2,1.7,0.3,2.6,0.2
	c0.7-0.1,1.7-0.1,1.8,0.6c0.1,0.3-0.1,0.6-0.2,0.8c-0.3,0.6-0.4,1.3-0.9,1.8c-0.4,0.4-1-0.1-1.3-0.5c-0.3-0.4-0.5-0.9-0.8-1.3
	c-0.4-0.4-1-0.5-1.3-0.1c-0.1,0.2-0.2,0.4-0.2,0.6c-0.1,1.7,0.5,3.5,1.6,4.8c1.7,2,3.6,1.5,4.4-0.7c0.5-1.3,1.5-1.6,1.4-3.1
	c-0.1-1.4,0.1-3.3-1.1-4.1c-0.3-0.2-0.7,0.2-1,0c-0.8-0.9,0.8-2.6,0-3.5c-0.3-0.4-1.1-1-1.3-1.5c-0.1-0.3-0.9-0.8-0.9-1.2
	C195.9,349.5,195.2,349.1,194.3,348.6z"/>
<path fill="#EAEAEA" stroke="#D6D6D6" stroke-miterlimit="10" d="M187.2,342.2c0.1,0.2,0.3,0.2,0.5,0.4c0.6,0.4,0.6,1.2,0.4,1.9
	c-0.1,0.3-0.3,0.6-0.3,0.9c0,0.3,0.1,0.7,0.4,0.8c0.1,0,0.2,0.1,0.4,0.1c0.4,0,0.9,0,1.2-0.2c0.5-0.3,0.8-0.9,1-1.5
	c0.1-0.3,0.2-0.6,0.2-0.8c0-0.5-0.3-1-0.4-1.5c0-0.2,0-0.5-0.1-0.7c-0.1-0.2-0.2-0.3-0.4-0.5c-0.4-0.3-0.8-0.7-1.3-0.7
	c-0.5,0-0.9,0.5-1.4,0.7c-0.1,0-0.3,0.1-0.4,0.2c-0.1,0.1-0.1,0.2-0.1,0.3C187,341.8,187.1,342,187.2,342.2z"/>
<path fill="none" stroke="#D6D6D6" stroke-miterlimit="10" d="M203.4,379.1c-0.8-0.6-1.1-1.7-1.8-2.4c-3.4-3.3-3.6-7.7-3.1-12.1"/>
<path fill="none" stroke="#D6D6D6" stroke-miterlimit="10" d="M200.6,379.4c-0.4-1.1-0.3-2.3,0.4-3.3"/>
<path fill="#EAEAEA" stroke="#D6D6D6" stroke-miterlimit="10" d="M335.7-19.6c-1.7,3.8,1.4,4.5,1.6,6c0.5,3.8-4.1,3-7,1.2
	c-2.8-1.8-8.7,0.2-8.5,2.4c0.5,5-4.6,9.5-2.6,12.1c0.9,1.3,5.8-5.6,10.3,0.1c1.1,1.4-4.1-0.2-5.2,1.2c-0.7,0.9,1.9,2.5,1.1,3.4
	c-1.2,1.2-3.4,0.3-4.1,1.8s-0.1,3.4,1.2,4.3c1.9,1.2,5,1,6.9-0.4s3.4-3.4,5.6-4c0.9-0.3,2.5-1.1,3.2-1.6c1.7-1.2,0.2-3.7,1.4-5.4
	c0.5-0.7,1.2-1.2,1.8-1.7c2.8-2.1,5.3-4.5,7.5-7.1c1.7-2,3.2-4.2,4.1-6.7c0.3-1,0.6-2.1,1.3-3c0.7-0.9,1.9-1.2,2.8-1.7
	c0.2-0.1,0.4-0.2,0.5-0.3"/>
<path fill="none" stroke="#4E9BD7" stroke-miterlimit="10" d="M71.3,299.6c-0.2,0.1-0.4,0.3-0.6,0.5c-1.5,1.5-2.2,4-2.2,6"/>
<path fill="none" stroke="#4E9BD7" stroke-miterlimit="10" d="M64,315.3c1.2,3.2-0.2,7.8-1.5,11.2c-3.1,8.2-4,17-4.8,25.7
	c-0.1,1-0.2,2.2,0.4,3.1c0.6,1.1,1.9,1.6,2.8,2.5c1.8,1.9,1.2,5,1.1,7.6c-0.1,4.5,1.9,8.9,1.2,13.3c0,0.3-0.1,0.6-0.3,0.7
	c-0.2,0.1-0.6-0.1-0.5-0.3"/>
<path fill="#EAEAEA" stroke="#4E9BD7" stroke-miterlimit="10" d="M74.1,296.1c-0.3-0.3-0.6-0.6-1-0.8c-1-0.5-2.2,0.5-2.5,1.6
	c-0.2,1.1,0,2.4,0.7,3.2c0.5,0.6,1.6,0.1,2.1-0.4c0.6-0.5,0.9-1.3,1-2.1c0-0.2,0.1-0.4,0.1-0.7C74.6,296.6,74.3,296.3,74.1,296.1z"
	/>
<path fill="#EAEAEA" stroke="#4E9BD7" stroke-miterlimit="10" d="M63.8,315.7c0.7-0.8-0.2-2.4,0.4-3.3c0.2-0.4,0.7-0.6,1.1-0.8
	c0.4-0.2,0.9-0.2,1.3-0.3c1.5-0.4,2.6-1.9,2.6-3.5c0-0.5-0.2-1.1-0.6-1.4c-0.6-0.5-1.6-0.1-2.2,0.4c-0.3,0.3-0.6,0.6-0.8,1
	c-0.2,0.3-0.3,0.6-0.5,0.9c-0.6,1.1-1.7,1.8-2.6,2.6s-1.7,1.9-1.6,3.2c0,0.2,0.1,0.5,0.2,0.7C61.6,315.8,63.2,316.4,63.8,315.7z"/>
<path fill="#EAEAEA" stroke="#D6D6D6" stroke-miterlimit="10" d="M225.8,183.1c0.3-0.8-0.4-1.8-1.3-1.8c-0.6,0.1-1.1,0.6-1.4,1.1
	c-0.3,0.6-0.5,1.2-0.4,1.8c0.1,0.4,0.7,0.6,1.2,0.5s0.8-0.4,1.1-0.7C225.4,183.8,225.7,183.5,225.8,183.1z"/>
<path fill="none" stroke="#4E9BD7" stroke-miterlimit="10" d="M191.7,189.3c0,0.8-0.1,1.3-0.2,2.1c-0.1,0.4-0.8,1.6-3.4,2.8
	c-2,0.9-4.6,2.7-6.8,3.1c-11.6,2.1-17.3,3.2-28.3,7c-2.7,0.9-1.8,3.5-4.6,3.6c-2.4,0.1-5.9,2-7.5,3.9c-0.4,0.4-4.6,1.5-5.1,1.5
	c-2.3-0.1-3.4,3.2-4.9,4.9c-1.9,2.1-3.9,3.1-6.7,3c-2.4-0.1-5.1,1.7-5,4.1c0,0.5,0.2,1.1,0,1.6c-0.1,0.4-0.4,0.8-0.7,1.1
	c-2,2-4.7,3.1-6.8,4.9c-1.1,0.9-2,2.1-3,3.2c-1.6,1.9-3.4,3.7-5.1,5.4c-0.9,0.9-1.7,1.8-2.8,2.5c-1.1,0.7-2.2,1.3-3.4,1.9
	c-2.7,1.4-5.3,3.3-7.5,5.5c-1,1-2.5,1.4-3.6,2.2c-1.1,0.8-2.2,2.1-1.7,3.4c0.4,1.2,2.1,2.4,1.4,3.5c-0.5,0.8-1.7,0.5-2.7,0.5
	c-2.9-0.2-5.5,2.9-4.7,5.7c0.3,1.1,1,2.1,1.3,3.2c1,4.2-4.1,7.5-4.3,11.7c0,0.6,0,1.2,0.4,1.6c0.3,0.3,0.6,0.6,1,0.8
	c2,1.1,5.1,1.2,6.1,3.3c0.4,0.9-1.4,1.4-2.4,1.6s-2.2,0.2-2.8,1c-0.7,1,0.9,2.1,1.4,3.2c0.7,1.3,0,3-1.1,4s-2.7,1.3-4.1,1.6"/>
<path fill="none" stroke="#D6D6D6" stroke-miterlimit="10" d="M222.6,214.5c0.4-0.1,3.6,1.2,5.4,1.3c2.1,0.1,5.4-0.8,6.1-2.8
	c0.2-0.4,0.2-0.9,0.5-1.3c0.4-0.5,1.2-0.6,1.9-0.7c2.2-0.4,4.1-2.3,4.4-4.6c0.2-1.6-0.2-3.3-0.6-4.9c-0.7-3.4-0.5-6.9-0.1-10.4
	c0.1-0.6,0.1-1.1,0-1.7c-0.2-1.1-1.2-2-1.9-2.9c-0.7-0.9-1.3-1.9-1.3-3.1c-0.1-1.1,0.5-2.3,1.5-2.9c0.8-0.4,1.9-0.5,2.4-1.2
	c0.6-0.9-0.1-2.1-1.1-2.6c-1-0.5-2.1-0.5-3.1-0.7c-2.2-0.5-4-2.4-4.5-4.6c-0.1-0.3-0.1-0.6,0-0.9c0.1-0.5,0.6-0.8,1.1-1
	c1.2-0.3,2.4,0.3,3.4,0.9c1,0.7,1.9,1.5,3.1,1.9c1.1,0.4,2.6,0.2,3.2-0.9c0.7-1.3-0.4-2.8-1.7-3.5c-1.3-0.6-2.8-0.7-4.1-1.2
	c-0.5-0.2-0.9-0.4-1.2-0.8c-0.3-0.5-0.3-1.1-0.3-1.7c0-1.6-0.2-3.3-0.6-4.9c-0.6-2.4-1.8-4.8-1.2-7.3c0.9-4.2,6.3-5.9,8.1-9.8
	c0.5-1.2,0.7-2.5,1.3-3.7c0.5-1.2,1.6-2.3,2.9-2.3c0.8,0,1.5,0.4,2.1,0.8c1.8,1.1,2.7,2.6,4.8,3c0.7,0.1,2.7-1.9,3.2-2.4
	c4.5-3.8,3.1-9.2,8.4-11.6c2.2-1,6.1-1.5,8.4-2.3c2.3-0.9,4.5-2.8,4.4-5.3c-0.1-1.5-1-2.9-1.5-4.3c-1.6-4.2,0.3-8.9,2.1-13
	c0.7-1.5,1.3-3,2.5-4.2c1.2-1.3,2.9-2.1,4.5-2.8c2.3-1.1,4.5-2.1,6.8-3.2c2-0.9,4.3-2.2,4.5-4.4c0.1-1.3-0.6-2.6-1-3.8
	c-0.4-1.3-0.6-2.9,0.5-3.7c0.5-0.5,1.3-0.6,1.9-0.9c2.3-1.2,2.4-4.5,4.1-6.6c1.1-1.4,2.8-2.1,4.1-3.3c3.4-3.1,3.7-8.2,4.3-12.8
	c1-7.9,3.6-15.5,6.2-23c0.7-2.1,1.5-4.2,2.2-6.3c1.5-4.2,3-9.1,4.5-13.3"/>
<path fill="none" stroke="#D6D6D6" stroke-miterlimit="10" d="M132,113.8c1,0.7,1.3,1.2,1.6,2.4c0.1,0.6,0,1.3,0.1,2
	c0.2,1.2,1,2.3,2.2,2.8c0.5,0.2,1.1,0.5,1.6,0.8"/>
<path fill="none" stroke="#D6D6D6" stroke-miterlimit="10" d="M143.4,127.4c1.2,0.8,2.6,2,3.8,2.8c0.5,0.3,1,0.7,1.2,1.3
	c0.2,0.5,0.1,1.2,0.1,1.7c0.3,2.9,4.5,3.7,5.5,6.3c0.5,1.3,0.1,2.7,0.3,4.1c0.2,2.1,1.3,4.7,2.6,6.5c4.2,5.7,0.5,7.4,3.2,8.6
	c7.4,3.2,8.1,6.1,7.9,11.6"/>
<path fill="#EAEAEA" stroke="#D6D6D6" stroke-miterlimit="10" d="M131,113.8c0.3,0.1,0.7,0.1,1,0c0.8-0.3,0.9-1.4,0.6-2.2
	c-0.2-0.5-0.5-1.1-1-1.3c-0.4-0.2-0.8-0.1-1.2-0.2c-0.9-0.4-1-1.7-1.7-2.4c-0.6-0.6-1.8-0.6-2.3,0.1s-0.4,1.8,0.3,2.3
	c0.5,0.4,1.2,0.4,1.6,0.9c0.5,0.5,0.5,1.3,0.9,1.9C129.6,113.5,130.3,113.6,131,113.8z"/>
<path fill="#EAEAEA" stroke="#D6D6D6" stroke-miterlimit="10" d="M143.8,125.7c-0.3-0.6-1-0.8-1.4-1.4c-0.1-0.2-0.2-0.4-0.3-0.5
	c-0.2-0.3-0.5-0.4-0.8-0.5c-1.1-0.5-2.2-1.9-3.3-1.5c-1.8,0.6-0.3,3.7,0.4,5.4c0.1,0.3,0.2,0.6,0.5,0.8c0.4,0.4,1,0.6,1.6,0.5
	s1.1-0.3,1.7-0.5c0.5-0.2,1-0.4,1.4-0.8C143.8,126.8,144,126.2,143.8,125.7z"/>
<path fill="none" stroke="#D6D6D6" stroke-miterlimit="10" d="M276.9,121.5c0.9,0.1,2,1,2.2,2c0.2,1,0,2.1,0.7,2.9
	c0.5,0.7,1.5,0.9,2.3,1.2c2.9,1.2,4.9,4.6,8.1,4.8c2.1,0.2,4.1-1.3,5.3-3.1c1.1-1.8,1.6-3.9,2.2-6c0.4-1.5,0.9-3.1,0.8-4.7
	c0-1-0.3-2-0.4-3.1c-0.4-2.7,0.1-5.5,1.6-7.7c1.5-2.2,4.3-3.6,6.9-3.2c0.6,0.1,1.1,0.2,1.7,0.2c1.4-0.2,2.3-1.6,3.2-2.7
	c1.9-2.6,4.7-4.7,7.8-5.7c0.6-0.2,1.3-0.4,1.9-0.8c0.5-0.3,1-0.8,1.4-1.3c4.4-4.3,11.1-4.9,17.2-5c14.3-0.2,29.3,0.6,42.1-5.7"/>
<path fill="#EAEAEA" stroke="#D6D6D6" stroke-miterlimit="10" d="M343,158.5c0.4-0.2,0.7-0.5,0.9-0.9c0.2-0.4,0.1-0.9-0.2-1.2
	c-0.1-0.1-0.3-0.2-0.4-0.2c-0.8-0.3-1.8-0.3-2.5,0.1c-0.8,0.4-1.7,1.5-1.2,2.2C340.3,159.5,342,159.1,343,158.5z"/>
<path fill="none" stroke="#D6D6D6" stroke-miterlimit="10" d="M298.4,119c0.5-0.8,1.3-1.1,2.1-0.9c0.8,0.2,1.6,0.7,2.4,0.6
	c1.2-0.1,2.1-1.3,3.2-1.8c0.9-0.4,1.9-0.3,2.9-0.1c3.5,0.5,6.9,0.9,10.4,1.4c0.3,0,0.7,0.1,1,0.3c0.4,0.3,0.6,0.7,0.8,1.2
	c0.7,1.8,1.4,3.7,2,5.5c0.3,0.9,0.7,1.8,1.3,2.5c0.6,0.7,1.7,1.1,2.5,0.8c0.6-0.2,1-0.7,1.6-0.8c1.1-0.3,2.2,0.7,2.6,1.8
	c0.4,1.1,0.2,2.3,0.3,3.5c0.4,4.1,3.6,7.3,4.8,11.2c0.5,1.7,0.6,3.5,1.4,5c1,1.9,2,3.4,3.9,4.5c0.4,0.3,1.8,0.3,2.3,0.4
	c0.8,0.1,1.5-0.5,2-1c6.3-5.7,12.3-11.6,18.1-17.8c1.9-2,4-4.2,6.7-4.2c3.6-0.1,6.7,3.7,10.2,2.9c0.3-0.1,0.7-0.3,0.6-0.6"/>
<path fill="none" stroke="#D6D6D6" stroke-miterlimit="10" d="M343.7,156.2c0.1-0.8,0.8-1.5,1-2.1"/>
<path fill="#EAEAEA" stroke="#D6D6D6" stroke-miterlimit="10" d="M200.2,66.1c0.3,0.8,0.9,1.7,1.7,2c0.8,0.3,1.7,0.1,2.5,0.2
	c0.8,0.1,1.6,0.4,2.3,0c0.4-0.2,0.5-0.7,0.6-1.1c0.3-1.1,0.6-2.8-0.4-3.3c-0.4-0.2-0.7-0.2-1.1-0.5c-0.9-0.6-2.1-0.6-3.1-0.5
	c-0.6,0.1-1.2,0.2-1.8,0.5c-0.5,0.3-1,0.9-1,1.5C199.9,65.3,200,65.7,200.2,66.1z"/>
<path fill="#EAEAEA" stroke="#D6D6D6" stroke-miterlimit="10" d="M210.1,65.6c0.8,1,1.8-0.3,2-1.6c0.2-1.3-0.2-2.6,0-3.8
	c0.3-2.6,2.8-4.5,5.3-5.5c0.5-0.2,0.9-0.4,1.2-0.8c0.3-0.4,0.3-0.9,0.2-1.4c-0.1-2.1-0.2-4.2-0.4-6.4c0-0.5-0.1-1-0.4-1.4
	c-0.3-0.4-0.7-0.6-1.1-0.8c-1.1-0.8-1.6-2.5-0.9-3.7c0.3-0.6,0.8-1.3,0.4-1.9c-0.2-0.3-0.6-0.4-0.9-0.5c-0.3-0.2-0.2-0.6-0.4-0.9
	c-0.8-1.3-3,0.8-4.4,1.2c-0.4,0.1-0.9,0.2-1.3,0.1c-0.9-0.3-0.9-1.7-0.3-2.5s1.4-1.4,1.7-2.4c0.2-0.5,0.2-1.1,0.5-1.5
	c0.4-0.4,1-0.4,1.6-0.5s1.1-0.7,0.9-1.2c-0.3-0.5-1-0.4-1.4-0.7c-0.5-0.5-0.2-1.3,0.1-1.9s0.1-1.7-0.5-1.6c-1.9,0.3-3.5,1.6-4.9,2.9
	c-0.3,0.3-0.6,0.6-0.8,0.9c-0.3,0.4-0.4,0.9-0.6,1.4c-0.4,1.5-0.9,2.9-1.3,4.4c-0.4,1.3-0.8,2.6-1.8,3.4c-0.3,0.3-0.8,0.6-0.7,1.1
	c0,0.3,0.2,0.5,0.4,0.7c1.1,1.6,0.1,3.8-1,5.3c-1.1,1.6-3.9,4.3-2.2,5.2c1.2,0.6,2.4-1.1,3.6-1.6c0.3-0.1,0.6-0.2,0.9-0.2
	c0.5,0.1,0.6,0.8,0.9,1.1c0.8,0.8,2.5,0,3.3,0.8c0.9,1-0.7,2.3-0.7,3.6c-0.1,1.2,1,2.1,1.8,3C211,60.7,208.6,63.8,210.1,65.6z"/>
<path fill="none" stroke="#D6D6D6" stroke-miterlimit="10" d="M207.5,66c0.7,0,1.9,0.1,2.6-0.4"/>
<path fill="none" stroke="#D6D6D6" stroke-miterlimit="10" d="M-20,159.5c1.1-0.2,2.3-0.4,3.4-0.5c0.7-0.1,1.5-0.2,2.1-0.6
	c1.4-0.8,2.1-2.4,2.5-4c0.4-1.6,0.7-3.3,1.8-4.5c0.8-0.8,1.8-1.3,2.5-2.3c0.5-0.7,0.7-1.5,0.8-2.2c0.3-1.4,0.6-2.7,1-4.1"/>
<path fill="none" stroke="#D6D6D6" stroke-miterlimit="10" d="M-14.2,83.5c0.1,0.5,0.2,1.1,0.3,1.6"/>
<path fill="none" stroke="#D6D6D6" stroke-miterlimit="10" d="M-5.4,54.1c1.6-0.7,3-1.6,3.5-3"/>
<path fill="none" stroke="#D6D6D6" stroke-miterlimit="10" d="M7.4,60.5c0.9-0.2,1.7-0.6,2.4-1.2"/>
<path fill="none" stroke="#D6D6D6" stroke-miterlimit="10" d="M11,54.7c0,0.5,0.5,1.4,0.7,1.8"/>
<path fill="#EAEAEA" stroke="#D6D6D6" stroke-miterlimit="10" d="M-10.8,85.2c0.7-0.3,1.1-1.2,1.8-1.6c1.2-0.8,3.1-0.2,4.2-1.2
	c0.4-0.3,0.6-0.8,0.9-1.2c1.3-1.4,3.9-0.4,5.4-1.6c0.5-0.4,0.7-1,1.2-1.4c1.3-1.4,3.5-1.2,5.4-1.2c2.1-0.1,4.3-0.7,6-1.9
	c1.5-1.2,3.2-3,5-2.3c1.2,0.5,1.7,2,1.4,3.3c-0.3,1.3-1.1,2.3-1.9,3.3c-0.2,0.2-0.4,0.4-0.6,0.6c-0.3,0.1-0.6,0.1-0.9,0.1
	c-1.9,0-3.7,0-5.6,0c-0.9,0-1.9,0-2.7,0.4c-0.8,0.4-0.5,1.7-1.3,2.2c-0.8,0.5-1.8,0-2.3,0.8S4.3,85,3.7,85.7
	c-0.2,0.3-0.5,0.5-0.6,0.8c-0.1,0.4,0.1,0.9,0.3,1.3c0.9,1.6,1.7,3.3,3.1,4.4c4.6,3.6,7.1,2.1,7.7,2.9c0.8,1.3-3.7,2.1-3,3.4
	c0.4,0.7,1.6,0.6,1.6,1.4c0,0.8-0.6,1.5-1.1,2.1c-0.6,0.6-1.3,1.3-2.2,1.4c-0.9,0.2-1.8-0.2-2.6-0.4c-1.9-0.4-3.9-0.2-5.7,0.6
	c-0.3,0.1-0.5,0.3-0.7,0.5c-0.7,1,0.7,2.4,0.4,3.6c-0.3,1-1.7,1.2-2.5,0.7c-0.9-0.5-1.4-1.5-1.8-2.4c-0.6-1.3-1.2-2.6-1.3-4
	s0.3-2.9,1.4-3.8c0.6-0.5,1.3-0.7,1.8-1.2c1.2-1.3,0.4-3.5-0.5-5.1c-0.3-0.5-0.5-1-1-1.3c-0.8-0.6-1.9-0.4-2.8-0.1
	c-1.6,0.4-3.2,0.7-4.8,1.1c-0.4,0.1-0.9,0.2-1.3,0.1c-0.4-0.1-0.7-0.4-1-0.6c-1.2-1.2-2-2.8-2.2-4.5c0-0.3-0.1-0.7,0.1-0.9
	c0.3-0.7,1.2-0.8,2-0.6C-12.3,85.2-11.5,85.5-10.8,85.2z"/>
<path fill="#EAEAEA" stroke="#D6D6D6" stroke-miterlimit="10" d="M13.4,88.8c1,0.7,2.3,0.7,3.5,0.5c0.3,0,0.6-0.1,0.8-0.3
	c0.4-0.4,0.1-1.2-0.3-1.5c-0.5-0.4-1-0.6-1.4-1.1c-0.5-0.8-0.3-2-1.1-2.6c-0.3-0.2-0.8-0.2-1.2-0.2c-0.8,0.1-1.6,0.4-2,1.1
	c-0.4,0.9,0.1,1.9,0.7,2.8C12.6,88,12.9,88.5,13.4,88.8z"/>
<path fill="#EAEAEA" stroke="#D6D6D6" stroke-miterlimit="10" d="M23.3,80.1c-0.8-0.2-1.8,0.2-2.3,1c-0.5,0.7-0.7,1.6-0.7,2.5
	c-0.1,0.9,0,1.8,0.4,2.6c0.1,0.3,0.3,0.6,0.6,0.6c0.2,0,0.4-0.1,0.6-0.2c0.4-0.3,0.8-0.7,1.1-1.1c0.7-0.8,1.4-1.7,1.6-2.8
	S24.4,80.4,23.3,80.1z"/>
<path fill="#EAEAEA" stroke="#D6D6D6" stroke-miterlimit="10" d="M29.7,86.1c0.4,0.4,0.5,1.2,0.4,1.8c-0.2,0.6-0.5,1.1-0.9,1.6
	c-0.3,0.4-0.6,0.9-0.9,1.3c-0.6,0.9-1.5,2-2.6,2c-0.4,0-0.8-0.1-1.2-0.2c-0.3-0.1-0.7-0.2-0.9-0.5c-0.2-0.3-0.2-0.7-0.1-1
	c0.2-1.3,0.6-2.5,1.3-3.5s1.9-1.8,3.2-2C28.6,85.6,29.3,85.7,29.7,86.1z"/>
<path fill="#EAEAEA" stroke="#D6D6D6" stroke-miterlimit="10" d="M29.6,79.8c0.4,0.5,0.8,1.1,0.5,1.7c-0.1,0.2-0.4,0.4-0.5,0.6
	c-0.2,0.4,0.1,0.8,0.5,0.9c0.4,0.1,0.8,0.1,1.1,0c0.7-0.2,1.6-0.5,1.8-1.2c0-0.2,0-0.4,0.1-0.6c0.1-0.2,0.3-0.4,0.5-0.6
	c0.8-0.7,1.2-1.8,1.1-2.8c0-0.2,0-0.3-0.2-0.5c-0.1-0.1-0.2-0.1-0.3-0.2c-1.4-0.6-2.8-1.1-4.2-1.7c-0.5-0.2-1.2-0.4-1.6,0.1
	c-0.2,0.2-0.2,0.6-0.2,0.9C28.4,77.6,28.9,78.8,29.6,79.8z"/>
<path fill="#EAEAEA" stroke="#D6D6D6" stroke-miterlimit="10" d="M29.2,68.9c-0.3-0.7-1.5-0.6-2.2-0.1c-0.6,0.4-1.3,1.5-0.7,2.1
	C27.2,71.8,29.7,70.2,29.2,68.9z"/>
<path fill="#EAEAEA" stroke="#D6D6D6" stroke-miterlimit="10" d="M29,61.7c-0.1-0.1-0.3-0.1-0.5-0.1c-1.1,0.2-2,1.4-1.6,2.4
	c0.4,1,2.1,1.7,2.7,0.9c0.6-0.8-0.1-2-0.4-2.9C29.2,62,29.1,61.8,29,61.7z"/>
<path fill="#EAEAEA" stroke="#D6D6D6" stroke-miterlimit="10" d="M19.6,62.9c0.8-0.4,0.6-1.7,0.1-2.4c-0.5-0.7-1.6-1.4-2.2-0.9
	c-0.6,0.5-0.3,1.6,0.1,2.2C18,62.5,18.9,63.2,19.6,62.9z"/>
<path fill="#EAEAEA" stroke="#D6D6D6" stroke-miterlimit="10" d="M22.1,49.1c0.2-0.4,0.3-0.8,0.3-1.2c0-1.1,0.2-2.5-0.6-3.3
	c-0.5-0.6-1.5,0.4-2,1c-0.7,1-1.9,2.3-1.2,3.3c0.4,0.5,1.1,0.7,1.8,0.8C21,49.8,21.7,49.6,22.1,49.1z"/>
<path fill="#EAEAEA" stroke="#D6D6D6" stroke-miterlimit="10" d="M12.5,61.8c0.7,0.1,1.3-0.5,1.6-1.1c0.4-0.7,0.7-1.6,0.5-2.5
	c-0.1-0.2-0.2-0.5-0.1-0.7c0-0.2,0.2-0.3,0.3-0.4c0.5-0.6,0.9-1.5,0.4-2c-0.3-0.3-0.9-0.2-1.3-0.1c-1.5,0.5-2.9,1.5-3.8,2.8
	c-0.1,0.2-0.3,0.5-0.3,0.7c0,0.5,0.3,1,0.6,1.4c0.3,0.4,0.6,0.7,0.9,1.1C11.7,61.3,12,61.7,12.5,61.8z"/>
<path fill="#EAEAEA" stroke="#D6D6D6" stroke-miterlimit="10" d="M71.3,23.5c-2.1,1.5-4.2,3-5.6,5.1c-0.4,0.6-0.8,1.3-1.4,1.7
	c-0.4,0.3-0.9,0.4-1.4,0.5c-2.8,0.6-5.7,1.5-7.7,3.4c-1.5,1.4-2.4,3.2-3.3,5c-0.2,0.4-0.5,0.9-0.3,1.4c0.2,0.6,1.1,0.8,1.5,1.4
	c1,1.1-0.3,2.7-1.5,3.5s-2.7,1.9-2.4,3.3c0.1,0.5,0.5,1,0.7,1.5c0.3,0.7,0.2,1.5,0.1,2.3c-0.1,1.3-0.3,2.5-0.4,3.8
	c0,0.4-0.1,0.8-0.3,1.1c-0.4,0.6-1.3,0.7-2.1,0.4c-0.7-0.3-1.3-0.8-2-1.1c-2.3-1.3-5.2,0.9-7.7,0.1c-1.5-0.4-3.1-3-4.1-1.8
	c-0.8,1-0.1,2.7-0.9,3.7c-0.5,0.6-1.1,1.1-1.3,1.9c-0.1,0.6,0.1,1.3,0.3,1.9c0.4,1.1,1,2.4,2.1,2.8c0.7,0.2,1.5,0,2.3-0.2
	c4.1-1.1,10.8-3.1,12.6-2.1c1.3,0.7-1.6,2.3-3.1,2.7c-4.3,1-8.5,1.9-12.8,2.9c-0.7,0.2-1.6,0.5-1.7,1.2c-0.2,1.1,1.3,1.7,2.4,1.4
	s2.3-0.8,3.3-0.2c0.4,0.3,0.7,0.8,1.1,1c0.8,0.5,1.7,0.1,2.5-0.3c1.7-0.8,3.4-1.6,5.1-2.3c1.3-0.6,2.6-1.2,3.7-2.2
	c1.8-1.6,3.1-4.2,5.5-4.6c0.4-0.1,0.9-0.1,1.3-0.3c0.4-0.3,0.6-0.8,0.8-1.2c0.5-0.8,1.4-1.2,2.2-1.7c2.4-1.6,5.7-5,4-7.4
	c-0.6-0.9-2.3,0.2-3.1-0.5c-0.9-0.7-1.2-2-2.3-2.3c-1.1-0.3-2.5,0.7-3.4,0c-0.6-0.4,0.4-1.5,1.1-1.8c0.7-0.3,1.5-0.4,2.2-0.4
	c2.3-0.2,4.5-0.7,6.5-1.9s3.5-3.1,3.8-5.4c0.3-2.3-0.6-4.6-0.8-6.9s0.8-5.2,3.1-5.5c1.3-0.2,3.3,0.9,3.8-0.3c0.4-1-0.5-2.1-0.7-3.2
	c-0.1-0.4-0.3-0.9-0.7-1C71.9,23,71.6,23.3,71.3,23.5z"/>
<path fill="#EAEAEA" stroke="#D6D6D6" stroke-miterlimit="10" d="M125.5-2.3c0.4,0.4,0.5,0.9,0.6,1.4c0.1,0.7,0.3,1.5,0.3,2.2
	c0,0.4,0.1,0.9-0.1,1.2c-0.4,0.6-1.2,0.7-1.9,0.6c-0.9-0.1-1.8-0.5-2.5-1.1s-1-1.7-0.7-2.5c0.2-0.5,0.5-0.8,0.8-1.2
	c0.5-0.4,1-0.9,1.6-1C124.3-2.9,125-2.8,125.5-2.3z"/>
<path fill="#EAEAEA" stroke="#D6D6D6" stroke-miterlimit="10" d="M81.6-0.1c-0.1,0.2-0.2,0.4-0.1,0.6c0.1,0.1,0.2,0.2,0.3,0.2
	c1.7,0.6,3.7,0.6,5.4-0.1s3.1-2.1,3.8-3.8c0.2-0.5,0.3-1,0.3-1.5c0-0.5-0.3-1-0.8-1.2c-0.6-0.3-1.3,0.1-1.9,0.5
	c-1,0.6-1.9,1.2-2.9,1.8C84.2-2.6,82.6-1.6,81.6-0.1z"/>
<path fill="#EAEAEA" stroke="#D6D6D6" stroke-miterlimit="10" d="M-1,61.4c2.7-0.3,3.3-4.3,3.6-7c0.1-0.8,0.2-1.6-0.4-2.2
	c-0.6-0.6-1.7-0.4-2.6-0.4c-0.9,0-2-0.9-1.5-1.6c2.2-3.1,4.8-6,7.2-9c0.6-0.8,1.2-1.5,1.5-2.5c0.3-0.9,0.4-2,1.1-2.6
	c1.6-1.3,3.8,1.1,5.9,0.9c0.9-0.1,1.7-0.7,2.5-1.3c1.8-1.5,6-2.2,5.5-4.5c-0.3-1.9-3.9,0.2-5.7-0.4c-0.8-0.3-0.1-1.6,0.4-2.3
	c2.8-3.7,7.4-9.2,9.4-8.9c2.6,0.3,4.3,2.5,6.8,1.8c2.5-0.7,4.4-3.2,4.4-5.8c0-1.4-0.3-2.1-0.4-3.5s0.2-3.1,1.4-3.8
	c1-0.6,2.2-1.1,2.9-2c0.7-0.8,0.5-2.1,1-3c0.3-0.6,1-1,1.5-1.4c4.1-3.5,2-10.6,5.3-14.9c2.1-2.7,5.9-3.5,9.4-4
	c4.4-0.7,8.7-1.4,13.1-2.1c1-0.2,2-0.3,2.9,0c1.3,0.4,2.2,1.7,3.5,2.4c1.7,0.9,3.9,0.5,5.6-0.3c1.8-0.8,3.3-2.1,5.1-2.9
	c7-3.2,14.6-0.9,22.3-0.9c1.7,0,4.9-0.2,4.7,1.4c-0.2,1.8-2.9,2.2-4.3,3.3c-0.6,0.4-1.2,0.9-2,0.9c-0.7,0-0.8-1-1.5-1.2
	c-3.3-1.4-6.3,8.2-11.4,8.6c-2.9,0.2-6-2.5-8.6-1c-1.2,0.7-1.8,2-2.5,3.1c-1.5,2.1-4.7,1.8-6.7,3.6C77.2-1.3,78.8,0.6,79,2
	c0.5,4.3-3.6,8-6.9,10.7c-6.6,5.5-3.5,8.6-6.4,11.1c-3.2,2.7-5,4.5-7.1,6.7c-1.1,1.2-3.4,0.8-4.7-0.3c-0.4-0.3-0.7-0.7-1.1-1
	c-2.1-1.5-4.8,0.8-7.3,1.7c-2.6,0.9-4.8-1-7.3-2.2c-1.7-0.8-3.5,0.9-4.4,2.8c-0.4,0.7,0.5,1.9-0.2,2.3c-0.8,0.4-2.5,0-3-0.6
	c-0.5-0.6,0.7-1.8,0.1-2.4c-1.6-1.6-1.6,3.1-2.9,4.9c-2.5,3.2-10.1,6.5-13.2,12.4c-0.3,0.6-1.8,1.2-2.4,2.4c-0.7,1.3-0.6,3.4-1,4.1
	c-1.3,2.4-5.9,2.1-5.4,4.8c0.1,0.6,1.4,0.2,1.8,0.7c1.1,1.7-2.2,3.3-3.8,4.5c-2.2,1.6-2.6,5-5.1,6.2c-1.3,0.7-3.1,0-4.2,0.9
	s-0.8,2.7-1.7,3.8c-1.4,1.7-3.7,2.2-4.9,4c-0.3,0.5-0.7,0.9-1,1.4c-0.2,0.3-0.4,0.6-0.5,0.9c-0.2,0.5,0.3,1.1,0,1.6
	c-0.6,1-2.3,0.7-3.2,1.5c-1,0.9-2.3,3.1-3.2,2.1c-0.9-0.9,0.7-2.4,1.7-3.1c1.9-1.3,0.2-4.2,1.2-6.3c0.6-1.2,3.2,0.5,3.9-0.6
	c0.5-0.8,0.4-1.6,1.2-2c0.8-0.4,1.9-1,1.7-1.9c-0.2-0.7-1.2-0.8-1.9-0.6c-0.7,0.2-1.3,0.6-1.9,1c-1.5,0.9-3.4,2.5-4.8,1.5
	c-2.6-1.8-1.7-6.3-0.9-9.4c0.1-0.4,0.3-0.9,0.6-1.1c0.4-0.3,1.1-0.3,1.5-0.6c0.8-0.5,1-1.6,1.7-2.3c0.3-0.3,0.8-0.4,1.2-0.6
	c3.3-1.3,5.3-4.6,8.4-6.4c0.5-0.3,1.2-0.5,1.6-0.1c0.3,0.4,0.2,1-0.1,1.3c-0.3,0.4-0.7,0.6-1,1.1c-0.7,1-0.2,2.4,0.7,3.1
	C-4.4,60.6-2.2,61.6-1,61.4z"/>
<path fill="#FFFFFF" stroke="#D6D6D6" stroke-miterlimit="10" d="M211.6,49.1c0-0.1,0-0.3-0.1-0.4c-0.4-0.8-1.7-1.1-2.2-0.4
	c-0.4,0.6-0.2,1.5,0.4,1.9c0.6,0.4,1.5,0.2,1.8-0.4C211.5,49.6,211.6,49.3,211.6,49.1z"/>
<path fill="#FFFFFF" stroke="#D6D6D6" stroke-miterlimit="10" d="M46.3,19.2c0.1-0.2,0.3-0.4,0.4-0.5c0.9-0.9,1.3-2.2,1.3-3.5
	c0-0.2,0-0.3-0.1-0.4c-0.1-0.1-0.2-0.2-0.3-0.2c-1.1-0.5-2.4-0.3-3.4,0.3c-1,0.7-1.5,1.9-1.5,3.1c0,0.4,0.1,0.9,0,1.3
	c-0.3,0.8-1.2,1-2,1.4c-1,0.5-1.8,1.3-2.3,2.3c-0.1,0.1-0.1,0.2-0.1,0.3c0,0.1,0.1,0.2,0.2,0.2c2.4,1.2,5.5,0.5,7.1-1.5
	c0.2-0.2,0.3-0.4,0.4-0.6C46.3,20.6,45.9,19.8,46.3,19.2z"/>
<path fill="#FFFFFF" stroke="#D6D6D6" stroke-miterlimit="10" d="M-11.7,63.5c-0.5,0.5-0.9,1.2-0.9,1.9c-0.1,1.2,0.1,2.5,0.5,3.6
	c0.5,1.3,2.6,1,4,0.9c0.3,0,0.5,0,0.7-0.2c0.2-0.1,0.3-0.2,0.5-0.4c0.5-0.4,0.9-0.8,1.4-1.3c0.2-0.2,0.5-0.5,0.6-0.8
	c0.1-0.3,0-0.7-0.2-0.9c-0.2-0.1-0.4-0.1-0.6-0.1c-0.8-0.1-1.6-0.6-1.9-1.4c-0.1-0.2-0.2-0.5-0.2-0.7c-0.3-0.9-0.9-1.8-1.8-1.8
	C-10.6,62.4-11.2,63-11.7,63.5z"/>
<path fill="#7BBCEB" stroke="#4E9BD7" stroke-miterlimit="10" d="M173,168.8c3.8,0.5,6.2,4.1,9.4,6.2c1.5,1,3.2,1.7,4.6,2.8
	c1.8,1.4,3.2,3.2,4.5,5.1c1.3,1.8,3.3,4.5,3.2,5.6c-0.1,1.5-2.9,0.6-4.3,0.1c-2.6-0.9-5.2-1.6-7.9-1.9c-0.7-0.1-1.4-0.2-2-0.5
	c-1.1-0.6-2.1-1.2-3.2-1.8c-1.8-1-2.3-3.5-4.2-4.4c-0.4-0.2-0.8-0.3-1.2-0.5c-0.6-0.4-1-1-1.5-1.5c-0.5-0.7-1-1.3-1.5-2
	c-1.1-1.5-2.2-3.3-1.4-5c0.3-0.6,0.8-1.1,1.4-1.4C170.1,168.9,171.6,168.6,173,168.8z"/>
<path fill="none" stroke="#585858" stroke-miterlimit="10" stroke-dasharray="4,1" d="M-19.7,163.3c3.1,0.3,5.7-2.3,7.7-4.8
	c4.5-5.5,9.1-10.4,12.5-18.6c1-2.4,2.7-3.1,3.1-5.6c0.3-2.4-0.2-4.8-0.1-7.3c0.3-6.6,5.3-12,10.6-15.9c2.3-1.7,5-3.6,5.7-6.4
	c0.8-3.2,3-5.9,5.5-8c4.8-4.1,8.9-10.9,12.3-16c3.5-5.1,7.9-7.1,12.8-10.9c5.5-4.2,15.5-10.9,16-13.1c0.7-3-1.7-6.9,0.1-9.5
	c0.7-1.1,1.7-1.9,2.2-3.1c0.5-1.1,0.7-2.3,1-3.4c1.3-5.1,5.3-9.1,6.4-14.2c0.3-1.2,0.4-2.4,0.9-3.4c0.7-1.3,2-2.1,3.1-3
	c4.1-3.4,6.3-8.6,9.4-13.1c2.2-3.2,4.9-6,7.6-8.8c3.6-3.8,7.5-7.7,12.5-9c2.4-0.6,4.8-0.6,7.3-0.8c3.6-0.3,7.2-1.1,10.7-2.4
	c1.2-0.5,2.5-1,3.8-1c1.1,0,2.1,0.4,3.1,0.7c7.6,2.4,17.1,0.3,21.3-6.5"/>
<path fill="none" stroke="#585858" stroke-miterlimit="10" stroke-dasharray="4,1" d="M-19.4,89.2c0.5-0.2,1.1-0.1,1.3,0.4
	c0.4,0.8,0.7,1.6,1,2.4c0.4,0.9,0.8,1.9,1.7,2.3c1.2,0.6,3.6,0.4,4.9,0.5C-9,95-8.4,96.6-7.8,98c0.5,1.4,0.3,3.3,0.3,4.8
	c0,2.9-0.3,4.5-0.3,7.4c0,1.1,0,2.3,0.8,3.1c0.3,0.3,0.7,0.6,1.1,0.8c3.8,2.4,6.6,6,10.5,8.5"/>
<g>
	<g>
		<path fill="none" stroke="#585858" stroke-miterlimit="10" d="M290.4-19.8c-0.7,1.9-0.6,4.4-0.6,6.1c0,0.8-1.3,0.9-2.3,1.4"/>
		<path fill="none" stroke="#585858" stroke-miterlimit="10" stroke-dasharray="1.0023,3.0068" d="M285.5-10
			c-0.5,0.7-1.1,1.3-1.6,1.9"/>
		<path fill="none" stroke="#585858" stroke-miterlimit="10" stroke-dasharray="18.0407,3.0068,1.0023,3.0068" d="M283-7
			c-1,1.1-2,2.2-3.1,3.3c-8.4,7.8-8.7,19.1-12,30c-0.9,3-6.2,9.6-9.5,11c-12.3,5.2-11.9,13.8-16.7,22.2c-4.6,8.1-9.9,8.6-8.3,19.5
			c0.3,2-2.8,6.2-5.2,5.3c-3.8-1.3-6.4-3.5-9.8-1.4c-3.5,2.1-4.7,6.4-6.4,10.2c-2.1,4.8-5.2,9.2-9.1,12.7c-0.5,0.5-1.3,0.9-1.8,0.5
			c-0.2-0.2-0.3-0.5-0.4-0.8c-1.2-4.9-1-10.1,0.3-15c0.6-2,1.4-4.1,1.4-6.2c0-2.5-1.1-4.9-2.2-7.2c-0.8-1.7-1.6-3.5-2.9-4.9
			c-1.1-1.2-2.6-2.3-2.8-4c-0.4-3.1,4-4.9,4.5-8c0.3-1.6-0.6-3.1-1.4-4.5c-0.8-1.4-1.6-2.8-2.4-4.2c-1-1.8-2-3.5-3.5-4.9
			c-1.3-1.2-3.1-3.4-4.6-2.5c-1.9,1.2-3.1,2.9-5.3,3.4c-6.3,1.4-12.1,4.7-16.7,9.2c-4.3,4.3-7.6,9.8-13,12.7
			c-2.7,1.5-5.9,2.1-8.5,3.9c-2.6,1.7-4.5,4.5-7.5,5.6c-1.1,0.4-2.2,0.6-3.3,1c-2,0.8-3.6,2.4-5.4,3.7c-3.3,2.3-7.4,3.2-11.2,4.8
			c-3.7,1.6-4.8,2.3-7,5.4c-0.3,0.5-0.6,4-1.1,4.2c-5.3,2-6.3-0.3-9.6,2.2c-6.1,4.8-15.5,9.8-22.5,15.2c-1.2,0.9-1.9,1.6-2.2,3.1
			c-0.4,1.9,0.6,4.5,2.5,5c1.9,0.5,4.2-2.6,5-0.8c1.1,2.4-4.9,5.6-4,20.2c0.1,2-0.6,8.3-0.1,10.2c0.7,2.6,2.4,5.1,2.2,7.8
			c-0.2,2.5-2,5.3-0.4,7.3c0.5,0.7,1.4,1.1,2.1,1.6c4,2.7,4.3,6.9,0.4,9.7c-1,0.7-2.5,3.7-3.5,4.5c-1.7,1.5-2.4,3.8-3.1,6
			c-1.4,4.2-3.7,8.8-8,9.6c-1.7,0.3-3.5,0-5.2,0c-5,0.1-9.5,3.1-12.7,6.8s-5.6,8.2-8.4,12.3c-0.7,1-1.4,1.9-2.3,2.6
			c-1.2,0.8-2.7,1-4,1.6c-4.8,2-6.7,7.5-8.8,12.2c-2.5,5.5-5.8,10.6-9.8,15.1c-0.9,1-2,2.1-3.4,2.3c-1.4,0.3-3-0.3-4.2,0.5
			c-0.7,0.5-0.9,1.4-1.3,2.2c-1.4,3.2-4.7,5-7.8,6.5c-4.9,2.5-9.7,5-14.6,7.5"/>
		<path fill="none" stroke="#585858" stroke-miterlimit="10" d="M-16.7,269.8c-2.7,1.4-5.3,2.7-8,4.1"/>
	</g>
</g>
<path fill="none" d="M243.5,264.4c1.8,0.4,4.9-5.8,7.7-8.1c4.2-3.5,3.1-9,8.2-10.5"/>
<text transform="matrix(0.5949 -0.8038 0.8038 0.5949 248.3292 263.8154)"><tspan x="0" y="0" fill="#7D7D7D" font-family="'Verdana-Italic'" font-size="7">8</tspan><tspan x="4.2" y="-0.1" fill="#7D7D7D" font-family="'Verdana-Italic'" font-size="7" rotate="6.9">4</tspan><tspan x="9.1" y="0.8" fill="#7D7D7D" font-family="'Verdana-Italic'" font-size="7" rotate="-5.8">0</tspan><tspan x="13.7" y="0.1" fill="#7D7D7D" font-family="'Verdana-Italic'" font-size="7" rotate="-11">0</tspan></text>
<text transform="matrix(0.8298 -0.5581 0.5581 0.8298 60.3103 92.2628)"><tspan x="0" y="0" fill="#585858" font-family="'Verdana-Bold'" font-size="10" letter-spacing="8">EMIGRANT</tspan><tspan x="-15.4" y="16" fill="#585858" font-family="'Verdana-Bold'" font-size="10" letter-spacing="8">WILDERNESS</tspan></text>
<path fill="none" d="M161.1,146c2.3,1.7,4.7,3.5,6.7,5.6c2.5,2.8,4.3,6.3,7.5,8.3c2.3,1.4,3.5,3.5,5.4,5.4"/>
<text transform="matrix(0.7298 0.6836 -0.6836 0.7298 162.8868 150.5195)"><tspan x="0" y="0" fill="#7D7D7D" font-family="'Verdana-Italic'" font-size="7">8</tspan><tspan x="4" y="0" fill="#7D7D7D" font-family="'Verdana-Italic'" font-size="7" rotate="9.3">2</tspan><tspan x="8.5" y="0.8" fill="#7D7D7D" font-family="'Verdana-Italic'" font-size="7" rotate="6.7">0</tspan><tspan x="13.7" y="1.4" fill="#7D7D7D" font-family="'Verdana-Italic'" font-size="7" rotate="-10.1">0</tspan></text>
<text transform="matrix(1 0 0 1 141.6529 175.9253)"><tspan x="0" y="0" fill="#7BBCEB" font-family="'Verdana-Italic'" font-size="8">Fawn </tspan><tspan x="2.3" y="9.6" fill="#7BBCEB" font-family="'Verdana-Italic'" font-size="8">Lake</tspan></text>
<text transform="matrix(1 0 0 1 190.6646 115.6753)" fill="#585858" font-family="'Verdana-Italic'" font-size="8"> 8757</text>
<text transform="matrix(1 0 0 1 78.998 125.842)" fill="#585858" font-family="'Verdana-Italic'" font-size="8"> 8516</text>
<text transform="matrix(1 0 0 1 11.9979 253.342)" fill="#585858" font-family="'Verdana-Italic'" font-size="8"> 8848</text>
<text transform="matrix(0.6988 -0.7153 0.7153 0.6988 93.5611 245.6555)" fill="#585858" font-family="'Verdana-Italic'" font-size="8">Kendrick</text>
<text transform="matrix(0.7034 -0.7108 0.7108 0.7034 257.1653 125.4623)" fill="#585858" font-family="'Verdana-Italic'" font-size="8">Creek</text>
<path fill="none" d="M228,333c2.2-1.3,4.6-1.7,7-2.5c3-1,4.3-3,6.7-4.7c2.3-1.7,4.8-3.7,7.5-5"/>
<text transform="matrix(0.9596 -0.2813 0.2813 0.9596 231.8667 334.1133)"><tspan x="0" y="0" fill="#7D7D7D" font-family="'Verdana-Italic'" font-size="7">8</tspan><tspan x="5.3" y="0.1" fill="#7D7D7D" font-family="'Verdana-Italic'" font-size="7" rotate="-17.6">8</tspan><tspan x="9.7" y="-1.6" fill="#7D7D7D" font-family="'Verdana-Italic'" font-size="7" rotate="-23.5">0</tspan><tspan x="13.6" y="-3.2" fill="#7D7D7D" font-family="'Verdana-Italic'" font-size="7" rotate="-19.8">0</tspan></text>
<path fill="none" d="M44.1,336.3c1.7-8.5,3.5-16.9,5.2-25.4"/>
<text transform="matrix(0.2019 -0.9794 0.9794 0.2019 47.2823 333.3047)"><tspan x="0" y="0" fill="#7D7D7D" font-family="'Verdana-Italic'" font-size="7">8</tspan><tspan x="4.4" y="0" fill="#7D7D7D" font-family="'Verdana-Italic'" font-size="7">0</tspan><tspan x="8.9" y="0" fill="#7D7D7D" font-family="'Verdana-Italic'" font-size="7" rotate="0">0</tspan><tspan x="13.3" y="0" fill="#7D7D7D" font-family="'Verdana-Italic'" font-size="7" rotate="0">0</tspan></text>
<path fill="none" d="M336.6,129.4c-0.2-3.3,0.2-6.7,1.2-9.9c2.2-7,7.2-12.7,12.1-18.2"/>
<text transform="matrix(0.2582 -0.9661 0.9661 0.2582 339.3814 123.3989)"><tspan x="0" y="0" fill="#7D7D7D" font-family="'Verdana-Italic'" font-size="7">8</tspan><tspan x="4" y="0" fill="#7D7D7D" font-family="'Verdana-Italic'" font-size="7" rotate="9.2">6</tspan><tspan x="8.1" y="0.6" fill="#7D7D7D" font-family="'Verdana-Italic'" font-size="7" rotate="16.6">0</tspan><tspan x="12.2" y="1.8" fill="#7D7D7D" font-family="'Verdana-Italic'" font-size="7" rotate="21.8">0</tspan></text>
<path fill="none" d="M4.7,170.5c2-2,3.7-4.3,5.4-6.6c3-4.1,6.1-8.2,9.1-12.3c2.5-3.4,5.1-6.9,6.5-10.9"/>
<text transform="matrix(0.5959 -0.8031 0.8031 0.5959 14.7403 161.9531)"><tspan x="0" y="0" fill="#7D7D7D" font-family="'Verdana-Italic'" font-size="7">8</tspan><tspan x="4.5" y="0" fill="#7D7D7D" font-family="'Verdana-Italic'" font-size="7" rotate="0">0</tspan><tspan x="8.9" y="0" fill="#7D7D7D" font-family="'Verdana-Italic'" font-size="7" rotate="0">0</tspan><tspan x="13.4" y="0" fill="#7D7D7D" font-family="'Verdana-Italic'" font-size="7" rotate="-2.3">0</tspan></text>
<path fill="none" d="M66.7,215.6c7.3-7,10.4-18.8,19.6-23.2"/>
<text transform="matrix(0.5518 -0.834 0.834 0.5518 72.8824 212.1914)"><tspan x="0" y="0" fill="#7D7D7D" font-family="'Verdana-Italic'" font-size="7">8</tspan><tspan x="4.5" y="0" fill="#7D7D7D" font-family="'Verdana-Italic'" font-size="7" rotate="-1.3">4</tspan><tspan x="8.9" y="-0.1" fill="#7D7D7D" font-family="'Verdana-Italic'" font-size="7" rotate="0.7">0</tspan><tspan x="13.1" y="-0.1" fill="#7D7D7D" font-family="'Verdana-Italic'" font-size="7" rotate="6.6">0</tspan></text>
<path fill="none" d="M161.5,30.5C175.2,19.7,188.9,8.8,200.9-4"/>
<text transform="matrix(0.7649 -0.6441 0.6441 0.7649 179.9239 18.9351)"><tspan x="0" y="0" fill="#7D7D7D" font-family="'Verdana-Italic'" font-size="7">8</tspan><tspan x="4.5" y="0" fill="#7D7D7D" font-family="'Verdana-Italic'" font-size="7" rotate="-0.7">2</tspan><tspan x="9" y="-0.1" fill="#7D7D7D" font-family="'Verdana-Italic'" font-size="7" rotate="-1.6">0</tspan><tspan x="13.5" y="-0.2" fill="#7D7D7D" font-family="'Verdana-Italic'" font-size="7" rotate="-2.5">0</tspan></text>
<text transform="matrix(1 0 0 1 295.8794 293.8711)"><tspan x="0" y="0" fill="#585858" font-family="'Verdana-Italic'" font-size="8">Peninsula</tspan><tspan x="19.4" y="9.6" fill="#585858" font-family="'Verdana-Italic'" font-size="8">Lake</tspan></text>
<g>
	<g>
		<polyline fill="none" stroke="#7D7D7D" stroke-miterlimit="10" points="85.2,341.6 85.2,348.7 275.4,348.7 275.4,341.7 		"/>
		<line fill="none" stroke="#7D7D7D" stroke-miterlimit="10" x1="180.5" y1="341.4" x2="180.5" y2="348.7"/>
		<line fill="none" stroke="#7D7D7D" stroke-miterlimit="10" x1="161.2" y1="349.2" x2="161.2" y2="343.7"/>
		<line fill="none" stroke="#7D7D7D" stroke-miterlimit="10" x1="142.4" y1="349.2" x2="142.4" y2="343.7"/>
		<line fill="none" stroke="#7D7D7D" stroke-miterlimit="10" x1="123.3" y1="349.2" x2="123.3" y2="343.5"/>
		<line fill="none" stroke="#7D7D7D" stroke-miterlimit="10" x1="104.6" y1="349.2" x2="104.6" y2="343.7"/>
	</g>
	<text transform="matrix(1 0 0 1 83.7837 339.1469)" fill="#7D7D7D" font-family="'Verdana'" font-size="8">0</text>
	<text transform="matrix(1 0 0 1 174.2948 339.1469)" fill="#7D7D7D" font-family="'Verdana'" font-size="8">0.5</text>
	<text transform="matrix(1 0 0 1 258.3417 339.1469)" fill="#7D7D7D" font-family="'Verdana'" font-size="8">1 mi</text>
</g>
</svg>
