<?xml version="1.0" encoding="utf-8"?>
<!-- Generator: Adobe Illustrator 17.1.0, SVG Export Plug-In . SVG Version: 6.00 Build 0)  -->
<!DOCTYPE svg PUBLIC "-//W3C//DTD SVG 1.1//EN" "http://www.w3.org/Graphics/SVG/1.1/DTD/svg11.dtd">
<svg version="1.1" id="Layer_1" xmlns="http://www.w3.org/2000/svg" xmlns:xlink="http://www.w3.org/1999/xlink" x="0px" y="0px"
	 viewBox="0 0 360 360" enable-background="new 0 0 360 360" xml:space="preserve">
<path fill="none" stroke="#E1E1E1" stroke-miterlimit="10" d="M364.6,377.1c2.2-1.5,3-4.3,3.6-6.9c2.3-8.6,5.2-17,8.6-25.2
	c0.6-1.4,1.2-2.9,1.2-4.4c0-1.2-0.4-2.4-0.7-3.5c-6.1-19.9-8.6-40.6-11.1-61.2c-0.2-1.9-0.5-3.8-0.7-5.8c-0.2-1.8-0.4-3.7-0.6-5.5
	c-0.2-2.3-0.4-4.6-1.2-6.8c-0.2-0.5-0.4-1-0.5-1.5c-0.3-1.5,0.6-3.1,1.9-4s2.8-1.4,4.3-1.8c4.4-1.1,8.9-1.6,13.5-1.7"/>
<path fill="none" stroke="#E1E1E1" stroke-miterlimit="10" d="M383,246.3c-8.5-1.1-18.2,1.5-25.1,4.2c-1.2,0.5-1.5-2-2.8-2.1
	s-2.5,0.4-3.7,0.7c-5.6,1.5-11.8,0-17.3,2.1c-2.1,0.8-4.1,2.1-6.3,2.4c-2.4,0.3-4.7,1-7,0.7c-2.2-0.3-3.1-3.1-4.7-4.6
	c-3.1-3-6.2-6.1-10.1-7.9c-3.9-1.8-8.7-2.3-12.4-0.1c-0.9,0.5-1.8,1.2-2.8,1.2c-0.9,0-1.7-0.7-2.5-1c-1.9-0.9-4.3-0.4-5.8,1.1
	c-0.5,0.6-1,1.3-1.7,1.6c-0.9,0.5-2,0.3-3,0.5s-0.9,1.5-1.7,2c-1.7,1.1-3.8-1.9-5.6-1.2c-0.8,0.3-1.5,0.8-2.2,1.1
	c-0.9,0.4-1.9,0.6-2.8,0.9c-4.6,1.5-8.1,5.2-11.3,8.8c-2.1,2.3-3.9,8.8-6.6,7.2c-5.3-3.1-10.3-4.8-17.5-2.2
	c-4.4,1.6-5.8-6.7-11.6-10.3c-1.1-0.6-2-1.6-3.2-1.8c-1.2-0.3-2.7,0.2-3.1,1.4c-0.2,0.6-0.1,1.3,0,1.9c0.6,4.2,1.2,8.4,1.8,12.6
	c0.2,1.1,0.3,2.2,0.8,3.2c1.2,2.5,3.9,3.7,6.4,4.7c4.1,1.6,8.2,3.2,12.5,4c5,0.9,10.5,0.7,14.9-1.9c2.2-1.2,4-3,6-4.6
	c5.3-4.3,11.3-7.7,17.2-11.1c1.7-0.9,3.3-1.9,5.2-2.3c2-0.5,6.3-1.8,8.4-1.8c7.2-0.1,12.6-2.3,19.1,0.7c5.7,2.7,12.8,3.4,17.4,6.5
	c2.8,1.9,4.2,5.3,6.5,7.8c2.6,2.8,4,6.5,6.5,9.3c1.8,1.9,4,3.4,5.9,5.2c1.8,1.8,3.2,4,4.7,6.1c8.5,11.9,15.5,24.8,17.9,38.9
	c0.4,2.5,1.4,4.8,1.6,7.3c0.3,2.9,0.1,5.8-0.4,8.7c-1.8,12-7.1,23.5-15,32.7"/>
<path fill="none" stroke="#E1E1E1" stroke-miterlimit="10" d="M333.9,377.5c4.1-3.3,8.3-6.6,11.6-10.8c3.3-4.1,5.6-9.2,5.6-14.5
	c-0.1-9.2-7.4-17.1-8.1-26.3c-0.1-1-0.1-2.1-0.7-3c-0.6-0.8-1.5-1.1-2.1-1.9c-0.5-0.7-0.6-1.5-0.7-2.3c-0.5-2.5-1.5-5.5-3.9-6.5
	c-1.3-0.5-2.8,0.2-4.1-0.3c-5.4-2-9.1-7-12.9-11.4c-4.1-4.7-7.1-10.5-12-14.3c-3.4-2.6-7.5-4.2-11.6-5.7c-2.2-0.8-4.5-1.6-6.9-1.8
	c-8.6-0.8-16.2,5.6-21,12.7c-4.8,7.1-8.1,15.3-14,21.6c-2.4,2.6-7.3,9.2-10.7,10.4c-17.8,6-21,20-25.6,18c-3.5-1.5-0.3-7.6,1-11.3
	c1.7-4.9,4.9-9.1,7.6-13.5c1.2-2,1.5-4.5,2.2-6.7c0.6-2.3,0.5-4.9-1.1-6.7c-4.2-4.6-11.8-6.8-17.8-8.5c-2.6-0.8-5.4-1.4-7.5-3.2
	c-3.3-2.9-3.8-7.8-4.1-12.2c-0.4-6.6-0.8-13.2-1.1-19.9c-0.2-3.8-0.4-7.9,1.8-11c2.5-3.7,7.4-4.8,11.8-5.5c3.1-0.5,6.5-0.8,9.3,0.7
	c3.9,2.1,5.3,6.8,6.6,11c0.4,1.3,0.9,2.8,2.1,3.6c2.1,1.4,4.8,0.1,7.3-0.6c3.8-1.1,7.7,3.4,11.4,1.9c4.5-1.9,5-10.2,11.4-14
	c5.2-3.1,10.6-4.7,17.3-4c1.6,0.2,1.8-2.5,3.3-3.2c3.4-1.6,7.1-3.2,10.8-2.5c0.8,0.1,1.6,0.4,2.4,0.4c1,0,2-0.3,3-0.5
	c2.1-0.3,4.2,0.3,6.3,0.9c5.5,1.6,11,3.2,16.1,5.8c0.5,0.3,0.5,0.8,0.8,1.3c2.2,3.3,8.8,0.4,12.7,0.6c8.4,0.4,16.6-3.8,25-2.8
	c0.7,0.1,1.4,0.2,1.9,0.6c0.4,0.3,0.7,0.7,1.1,0.9c1.1,0.7,2.5,0.2,3.7-0.2c7.1-2.4,15-2.8,22.3-1"/>
<path fill="none" stroke="#E1E1E1" stroke-miterlimit="10" d="M206.9,378.3c8.7-9.4,18.7-17.5,29.6-24c2.6-1.6,5.9-3,8.6-1.5
	c0.7,0.4,1.3,1,2.1,1.5c2.7,1.8,6.4,1.3,9.2-0.3c1.1-0.6,2.7-1.3,3.5-0.3c0.3,0.3,0.4,0.8,0.4,1.2c0.2,1.9-0.1,3.8,0,5.7
	c0.1,1.9,0.9,3.9,2.6,4.7c1.9,0.9,4.8,0.6,5.4,2.6c0.2,0.7-0.1,1.5-0.2,2.3c-0.7,2.9,0.2,6.1,2.3,8.3"/>
<path fill="none" stroke="#E1E1E1" stroke-miterlimit="10" d="M308.8,378.2c-5.1-10.5-6.7-22.7-4.6-34.2c0.2-1.1,0.5-2.3,0.3-3.4
	c-0.3-1.4-1.2-2.6-1.8-4c-1.1-2.8-0.4-6.2,1.7-8.3c0.4-0.4,1-0.9,1-1.5c0-0.8-0.7-1.3-1.2-1.8c-2.8-2.9-0.4-8.2-2.7-11.5
	c-1.6-2.4-4.9-2.8-7.7-2.9c-2.2-0.1-5-2-6.5-0.4c-3.8,4-6.6,3.3-11.9,2.9c-3.8-0.3-6.5,5.6-9.8,7.4c-1.6,0.9-3.4,1.6-4.9,2.7
	c-2.5,1.7-4.3,4.4-6.5,6.4c-4.1,3.8-9.6,5.6-14.5,8.3c-4.2,2.3-8.1,5.3-11.9,8.3c-5.9,4.6-11.8,9.2-17.8,13.8
	c-2.2,1.7-4.5,3.5-6.9,4.9c-3.8,2.2-8.1,3.5-12.1,5.4c-1.3,0.6-2.7,1.4-4.2,1.2c-1.7-0.2-3.1-1.6-3.7-3.1s-0.7-3.3-0.8-5
	c-0.3-10.1-4.3-21-1.9-30.8c4.1-16.7,8.9-13.7,8.1-16.5c-1.3-4.5-6.9-1.1-9.7-14.7c-0.6-2.7-0.5-5.5-0.5-8.3c0.2-10,0.5-20,0.7-30.1
	c0.2-7-0.2-20.9,2.3-20.9c11.9,0,30.7-7.2,32.7-7.7c3.3-0.8,4.6,3.7,7.2,7c1.3,1.7,4.2,0.5,5.5,4.4c0.4,1.2,1.6,2,2.7,2.6
	c1,0.6,2.2,0.7,3.4,0.7c3.4,0.2,6.8-0.1,10-1c4.8-1.5,9-4.6,13.2-7.3c9.8-6.4,20.8-11,32.1-13.7c9.4-2.2,18.2,1.1,27.2,4.6
	c3.4,1.3,8.2,0.4,11.8,1.4c1.9,0.5,3.8,1.3,5.8,1.8c4.8,1.3,9.8,1.6,14.8,1.5c4.7,0,9.5-0.3,14.2-0.8c4.5-0.5,9-1.1,13.6-1
	c3.9,0.1,7.9,0.8,11.8,0.4"/>
<path fill="none" stroke="#E1E1E1" stroke-miterlimit="10" d="M108.9,379.3c1.1-2.7,1.9-5.6,2.7-8.4c0.6-2.2,1.2-4.4,1.9-6.7
	c1.1-4.1,3.2-8.7,1.6-12.6c-0.4-1.1-2.2-1.1-3.2-0.6s-1.8,1.6-2.5,2.5c-3.4,4.8-6.7,9.8-9,15.2c-0.9,2-1.5,4.5-0.4,6.4
	c1,1.8,3.5,3,3.4,5"/>
<path fill="none" stroke="#E1E1E1" stroke-miterlimit="10" d="M88.2,378.4c-6.1-8.5-3.7-21.9,5-27.8c2.4-1.6,5.1-2.7,7.7-4
	c8.1-4.1,14.8-10.3,22-15.8c9-6.9,25.4-4.1,25.7-8.7c0.4-5.9,4.3-9.2,6.6-14.1c0.8-1.7-0.6-3.7-1.2-5.5c-3.2-10.5-0.1-21.8,4.2-31.8
	c0.9-2.1,1.8-4.1,2.3-6.3c0.9-4,0.4-8.1-0.5-12.1c-1.6-7.5-4.1-14.8-7.6-21.6c-0.9-1.8-1.9-3.6-1.7-5.6c0.2-2,2-3.9,3.9-3.3
	c1,0.3,1.6,1.2,2.2,2c2.8,3.7,5.6,7.6,9.6,9.8c7.5,4.1,16.7,1.4,24.7-1.3c6.6-2.3,13.2-4.5,19.7-6.8c3-1,6.3,1.3,7.3,4.2
	c0.3,1,0.4,2,0.9,2.9c0.6,1,1.8,1.6,2.9,2.2c4,1.9,8.5,3.4,12.6,2.1c2.4-0.8,4.5-2.4,7-2.4c1.2,0,2.3,0.4,3.5,0.2
	c1.9-0.3,3.2-1.9,4.7-3c2.9-2.3,6.7-3.2,9.9-5.2c3.5-2.2,5.9-5.7,9.4-8c3-2,6.6-2.9,10.2-3.7c6.8-1.4,12.4-1.5,19.3-1.9
	c1.4-0.1,4.4,0.6,5.8,1c1.4,0.4,2.8,0.9,4,1.8c2.8,1.8,4.8,3.6,8,4.2c0.4,0.1,3.9,1.4,5.6,1.9c5.6,1.7,11.4,3.4,17.2,3
	c6.6-0.4,13-3.4,19.6-3.4c3.7,0,7.3,0.9,10.9,1.8c3.1,0.8,6.7,1.4,9.3-0.4c0.4-0.3,0.8-0.7,0.8-1.1c0-0.5-0.5-0.9-0.9-1.2
	c-3.6-3-4.6-8.1-7.2-12c-1.3-2-3-3.7-5-5c-1.1-0.7-2.4-1.6-2.3-2.9c0.2-1.3,2-3.2,0.8-3.5c-2.1-0.5-4.5-0.3-5.6-2.2
	c-0.4-0.7-0.6-1.4-1.2-2c-0.4-0.4-0.9-0.7-1.4-1c-0.8-0.6-1.5-1.3-2.2-2.1c-0.7-0.8-1.4-1.6-2.1-2.4c-0.8-0.9-1.7-2-1.8-3.2
	c0-0.6,0.1-1.2-0.3-1.6c-0.2-0.2-0.5-0.2-0.7-0.3c-5.7-1-11.5-0.5-17.2-0.4c-5.4,0.1-8.9,0.6-14.3,0.1c-0.5,0-2.8,0.1-3.2,0
	c-0.5-0.2-2.5-1.7-3-2c-6.8-3.6-5.5,1-8.8-0.4c-1.9-0.8-3.2-2.7-3.6-4.7c-0.1-0.7,0.1-1.3,0.3-1.9c2.3-5.6,9.1-8.5,10.9-14.3
	c0.7-2.1,0.6-4.3,0.5-6.5c-0.1-3.6-0.3-7.1-0.4-10.7c-0.1-2.7,2.6-3.8,5.2-4.6c4.7-1.3,8.3-5.7,9-10.5c0.9-6.2-3.3-10.1-6.1-12.4
	c-0.9-0.8,1.2-3.5,0-3.7c-8.1-0.8-16-7.8-23.7-19.1c-1.5-2.2-3.6-4.2-5.9-5.6c-1.9-1.2-4-2-6.1-2.8c-5.7-2.1-11.5-4.3-16.3-8
	c-1-0.8-2-1.6-3.2-2c-1.9-0.6-3.8,0.1-5.8,0.1c-4.6-0.1-8.1-4.1-12.4-5.7c-1.3-0.5-2.7-0.8-4-1.5c-3.3-1.9-4.2-6.5-3.1-10.1
	c1.1-3.6,3.6-6.6,6-9.6c6.2-7.9,11.4-16.5,15.5-25.7c0.8-1.7,1.5-3.5,2.6-5.1c1.3-2,3.1-3.6,5-5.1c10.1-7.9,23-11.3,35.4-14.5
	c2.6-0.7,5.2-1.3,7.9-1.2c1.8,0.1,3.6,0.5,5.4,0.9c7.2,1.7,14.6,2.9,22,2.9c9.2,0,18.2-1.7,27.3-2.4c9.1-0.6,18.7-0.1,26.7,4.3"/>
<path fill="none" stroke="#E1E1E1" stroke-miterlimit="10" d="M-17.2,17.6c2.1-4.1,6.7-6.2,10.4-8.9C-2.7,5.6,0.5,1.4,3.6-2.8
	C6.3-6.3,9-9.9,11.7-13.4c1.1-1.5,2.3-3,2.9-4.8c0.6-1.8,0.6-3.9-0.5-5.4"/>
<path fill="none" stroke="#E1E1E1" stroke-miterlimit="10" d="M-17.7,35.5c0-0.2,0-0.3,0-0.5c0-0.2-0.5,0.5-0.3,0.6
	c0.2,0.1,0.5,0,0.7-0.2c4.3-3.6,5.6-9.5,8.6-14.3c2.2-3.6,5.3-6.4,8.4-9.3c5-4.7,10-9.3,15-14c2.5-2.3,5-4.7,6.4-7.8
	c1-2.1,1.4-4.5,2.5-6.6c1.5-2.7,4.4-5,4.5-8.1"/>
<path fill="none" stroke="#E1E1E1" stroke-miterlimit="10" d="M-17.2,46.6c2.9-2,5.8-4.2,8.6-6.5c4.1-3.4,6.1-8.2,8.4-13
	c2.5-5.3,9-7.5,13.4-11.2C20,10.4,26.8,4.6,31-3c2.2-4,3.6-8.5,6.4-12.1c1.7-2.2,3.9-4.2,4.9-6.8c0.2-0.5,0-1.3-0.5-1.1"/>
<path fill="none" stroke="#E1E1E1" stroke-miterlimit="10" d="M-16.9,69.9c2.4-3,4.7-6.1,7.1-9.1c0.8-1,1.6-2.1,2.7-2.7
	c1.9-1.2,4.3-1,6.5-1.4c5.4-0.9,10.1-5.2,11.5-10.5c0.4-1.6,0.6-3.3,1.8-4.4c0.9-0.9,2.2-1.2,3.4-1.8c3.9-1.9,5.9-6.2,9.6-8.5
	c1.2-0.8,2.5-1.3,3.7-2c1.8-1.1,3.3-2.5,4.7-4.1c4.6-5.3,7.7-12,8.7-18.9c0.4-2.6,0.5-5.3,2-7.5c0.8-1.1,1.8-2,2.8-2.9
	c5.5-4.7,10.2-10.3,14.9-15.8c1-1.1,1.9-2.3,2.3-3.7"/>
<path fill="none" stroke="#E1E1E1" stroke-miterlimit="10" d="M-17.1,75.8c5.2-1.8,10.4-3.7,15.6-5.5c1.3-0.4,2.6-0.9,3.6-1.8
	c2.2-1.8,2.8-5,4.5-7.3c2.7-3.7,7.8-4.7,12.4-5.4c1.6-0.2,3.2-0.5,4.8-0.7c0.6-0.1,1.2-0.2,1.8,0c1.6,0.4,2.3,2.5,1.9,4
	C27,60.8,25.7,62,24.4,63c-4.8,3.8-10.3,6.7-16.2,8.4C7.1,71.7,6,72,5.1,72.8c-0.5,0.5-0.9,1.2-1.2,1.8c-0.8,1.6-1.7,3.2-2.5,4.8
	c-1,1.9-2,3.9-3.5,5.3c-1.2,1.1-2.7,2-4.1,2.7c-4.6,2.4-9.5,4.1-14.6,5.2"/>
<path fill="none" stroke="#E1E1E1" stroke-miterlimit="10" d="M83-21.3c2.7,3.1,1.4,7.7,0.4,11.7c-0.7,2.7-1.2,5.4-1.6,8.1
	c-0.2,1.4,0,3.3,1.4,3.5c0.8,0.1,1.8-0.5,2.5,0C86.6,2.7,86,4,85.4,4.9c-1.4,2-6.2,4.4-4.3,6.1c0.8,0.7,2.2-0.3,2.7,0.6
	c0.5,0.9-1.2,2.3-0.3,3c3.1,2.5,15.8-7.2,22.2-13.1c1.4-1.3,2.9-3.4,1.7-4.9c-1-1.2-3.5-1.6-3.1-3.2c0.1-0.5,0.6-0.9,1.1-1.2
	c5.5-3.9,7.9-11.6,5.5-17.9"/>
<path fill="none" stroke="#E1E1E1" stroke-miterlimit="10" d="M101.1,10.4c-0.5-0.7-1.5-0.5-2.3-0.2c-0.9,0.3-1.9,0.7-2.6,1.4
	c-0.7,0.7-1.3,2.1-0.6,2.8c0.5,0.5,1.7,0.8,2.2,0.2c0.6-0.6,1-1.3,1.8-1.6c0.5-0.2,1.1-0.5,1.4-1C101.4,11.6,101.5,10.9,101.1,10.4z
	"/>
<path fill="none" stroke="#E1E1E1" stroke-miterlimit="10" d="M-19.2,109.6C-10.1,102.1-1.1,94.5,8,87c0.9-0.8,1.9-1.5,2.8-2.3
	c2.5-2.1,5-4.1,7.5-6.2c3.9-3.2,7.8-6.5,12.2-9c6.2-3.5,13.1-5.4,19.4-8.7S62,52.1,63.3,45.1c0.2-1.4,0.4-2.9,1.3-3.9
	c1.6-1.7,4.6-0.8,6.4,0.6c1.9,1.5,3.5,3.5,5.9,3.8c3.9,0.6,6.7-3.3,9.3-6.3c6.5-7.5,16.9-11.3,21.9-19.8c2.7-4.6,3.5-10.3,6.7-14.5
	c2.4-3.2,6-5.4,9.1-7.9c4.7-3.7,8.6-8.2,12.5-12.6c2-2.2,4.1-5.3,2.8-8"/>
<path fill="none" stroke="#E1E1E1" stroke-miterlimit="10" d="M382.6,14.4c-2-3-6.5-2.1-10.1-2.8c-4.6-0.9-8.3-5-13-5.4
	c-2.3-0.2-4.8,0.6-7-0.4c-2-0.9-3.6-3.3-5.8-2.9c-1,0.2-1.8,1.1-2.8,1.4c-0.9,0.3-1.9,0.1-2.8,0c-4.7-0.8-9.4-1.5-14-2.3
	c-1.2-0.2-2.4-0.4-3.5,0.1c-0.7,0.3-1.2,0.8-1.8,1.1c-3.2,2.1-7.3,1-11.1,0.8c-5.9-0.3-11.6,1.6-17.2,3.5c-7,2.4-14.3,5-19.3,10.4
	c-3,3.2-4.9,7.2-6.8,11.2c-1.9,3.9-3.8,7.9-5.7,11.8c-2.5,5.2-5.1,9.4-1.3,13.7c2.1,2.4,5.6,5.7,8.6,7c7.9,3.5,13.6,11.5,22,13.7
	c2.8,0.8,6,0.9,8.3,2.7c1.3,1,2.1,2.4,3,3.7c4,5.8,9.7,10.1,15.3,14.4c1.5,1.1,3.3,0.7,5.1,1.1c2.5,0.6,2.8,4.4,4.8,6
	c1.7,1.3,3.6,2.2,5.1,3.7c1.6,1.6,2.7,3.6,3.7,5.7c4.1,8.3,8.2,16.6,12.2,24.8c0.6,1.2,1.2,2.5,1.3,3.9c0.1,1.3-0.3,2.6-0.5,3.9
	c-0.4,3.8,4.9,10.5,4.9,10.9c0.1,0.8,1.1,1,1.8,1.5c0.9,0.7,3.2,6.1,4.9,6.8c1.5,0.6,3.3,0.9,4.5,2c2,1.9,1.5,5.5,3.5,7.3
	c1.1,1,2.8,1.2,4.1,1.9c2.7,1.4,4,4.9,6.9,6.1c0.8,0.4,1.9,0.4,2.6-0.2"/>
<path fill="none" stroke="#E1E1E1" stroke-miterlimit="10" d="M384.7,35.6c-8.5-3.7-17-7.3-25.6-11c-0.8-0.4-1.7-0.7-2.3-1.4
	c-1-1.2-1-2.9-1.2-4.5c-0.5-3.5-2.6-6.8-5.7-8.3s-6.2,1.5-9.7,1.6c-3,0.1-4.8-3.8-7.8-4.1c-3-0.2-4.3,3-7,4.4
	c-2.4,1.2-5.4-0.6-8.1-0.1c-2,0.4-4,0.7-6,1.1c-3.2,0.6-6.4,1.2-9.6,1.9c-6.5,1.4-12.9,3.4-18.8,6.4c-2.3,1.2-4.8,2.9-5.1,5.5
	c-0.1,0.8,0.1,1.6,0,2.5c-0.2,1.5-1.4,2.8-2.3,4c-3.1,4.3-3.8,10.2-1.7,15c2.1,4.9,6.5,8.3,10.8,11.4c2.8,2.1,5.6,4.2,8.5,6.3
	c1.2,0.9,2.5,1.8,4,2.2c1.5,0.3,3.1,0,4.5,0.5c0.8,0.3,1.5,0.8,2.2,1.3c12.8,9.4,24.7,20.2,35.2,32.1c1.9,2.1,3.8,4.3,5.8,6.4
	c6,6.1,13.3,10.8,20.5,15.4c1,0.7,2.1,1.3,3.3,1.5c0.8,0.1,1.6,0,2.4,0.1c5,0.4,7.9,6.4,12.8,7.5"/>
<path fill="none" stroke="#E1E1E1" stroke-miterlimit="10" d="M384,49.9c-3.4,1.1-6.7-1.8-10.1-2.4c-3.5-0.7-7.1,1-10.7,0.8
	c-5.5-0.3-9.6-4.8-13.2-9c-0.5-0.6-1.1-1.3-1.2-2.1c-0.1-0.8,0.2-1.7,0.4-2.5c0.4-1.5,0.2-3.2,0.4-4.7c0.3-2.6,1.4-5.1,1.6-7.7
	s-2.5-9.1-3.2-6.6c-1.1,3.6-5,4.6-7.6,2.8c-1.7-1.2-3-3.5-5-3.3c-1.8,0.2-2.7,2.4-4.1,3.6c-1.3,1.1-3.2,1.2-4.9,1.4
	c-10,0.9-20,2.7-29.6,5.6c-1.5,0.4-3,0.9-4.3,1.8c-3.8,2.5-4.9,7.9-3.6,12.2c1.3,4.4,4.5,7.9,7.8,11c4.4,4.1,9.3,7.8,14.5,10.9
	c1,0.6,2,1.2,2.7,2c0.8,0.8,1.2,1.8,1.8,2.8c3.4,5.8,9.2,9.8,14.9,13.4c1.1,0.7,2.1,1.4,3,2.3c0.8,0.8,1.3,1.8,1.9,2.8
	c2.4,3.8,5.7,6.9,8.9,10.1c1.1,1,2.2,2.1,3.3,3.1c2.9,2.8,5.8,5.5,8.8,8.1c5.6,4.6,12.1,8.6,19.3,9.6c1.1,0.1,2.1,0.2,3.1,0.7
	c0.6,0.3,1.1,0.7,1.6,1.1c1.9,1.4,4.2,2.3,6.5,2.6"/>
<path fill="none" stroke="#E1E1E1" stroke-miterlimit="10" d="M383.9,106.4c-2.9,1-6.2-0.1-8.9-1.7c-1.8-1-9.8-5.4-12.5-7.9
	c-2.2-2.1-5-3.4-7.2-5.5c-4.1-4-8.1-7.9-12.2-11.9c-1.9-1.9-3.9-3.8-5.6-5.9c-1.2-1.4-2.3-3-3.9-4c-0.9-0.6-3.4-3.4-4.1-4.2
	c-3.2-3.8-3.7-5.5-6.7-9.1c-2-2.4-4.7-5.4-6.6-7.9c-2.6-3.3-3.3-6.5-5.9-9.8c-0.7-0.9-1.6-1.8-2.1-2.8c-0.5-1.1-0.7-2.5,0.1-3.4
	c0.6-0.7,1.5-0.9,2.4-1.1c3.1-0.7,6.3-1.1,9.5-1.2c2.7-0.1,5.5-0.1,8.2-0.5c5.1-0.9,9.9-3.6,15-2.8c0.3,0,0.7,0.1,0.9,0.3
	c0.4,0.3,0.5,0.9,0.5,1.3c0.4,5-1.8,10.4,0.5,14.9c0.7,1.4,1.8,2.5,2.8,3.6c3.4,3.5,6.9,6.9,11,9.5c7.7,4.9,17.3,6.5,26.2,4.4"/>
<path fill="none" stroke="#E1E1E1" stroke-miterlimit="10" d="M383.5,65.2c-3.8-0.2-7.7-0.4-11.5-0.6c-1.5-0.1-3-0.2-4.5-0.5
	c-1.5-0.4-2.8-1.1-4.2-1.8c-4.6-2.4-9.1-5-13.2-8.1c-4.4-3.3-8.5-7.6-9.3-13c-0.4-2.9,1.7-7.9-1.1-8.7c-2.1-0.6-6.5-0.6-7.4,1.2
	c-1.2,2.3,3,8.7,5.2,12.7c1.1,2,2.2,4,3.9,5.6c1.3,1.2,2.8,2.1,4.1,3.4c1.1,1.1,1.8,2.5,2.6,3.8c1.8,3.2,3.6,6.3,5.4,9.5
	c2.6,4.5,5.2,9.1,8.6,13c5.3,6.1,12.7,10.4,20.6,12.1"/>
<path fill="none" stroke="#E1E1E1" stroke-miterlimit="10" d="M307.3-21.6c-2.5,4.5-7.8,6.5-12.6,8.2c-4.3,1.5-8.6,3-12.8,4.5
	c-4.6,1.6-9.3,3.2-12.8,6.6c-2,1.9-3.5,4.2-5.5,5.9c-2.3,2.1-5.3,3.4-7.1,6c-2.2,3.2-2.1,8-5.2,10.4c-1.1,0.9-2.6,1.4-3.8,2.2
	c-3.1,2.1-4.1,6-5.8,9.3c-1.8,3.4-4.5,6.3-7.2,9.1c-3.5,3.6-7,7.3-11.1,10.2c-2.4,1.7-5,3.2-7,5.4c-2,2.2-3.8,4.9-2.7,7.7
	c1,2.6,4.3,4.5,6.8,5.8c2.3,1.2,4.6,2.3,6.9,3.5c2.7,1.4,4.3,1.2,7.2,1.6c1.7,0.2,4.7,1.7,6.2,2.5c1.2,0.6,2.1,1.8,3.2,2.7
	c3.1,2.7,7.5,3.2,11.4,4.4s11.5,5.3,8.4,8c-1.8,1.5-3.5-0.9-10.7,7.4c-1.8,2-2.2,6.5-3.6,9.2c-1,2-3.2,4.3-3.2,5.6
	c-0.7,9.8-2.7,22,1.1,28.6c0.7,1.2,2.4-1,3-2.3c0.6-1.3,0.8-2.7,1.4-4c1.7-3.3,5.7-4.4,9.4-5.1c1.2-0.3,2.6-0.5,3.6,0.1
	c1.4,0.8,1.7,2.6,2,4.2c1.3,6.9,5.9,13.1,12.1,16.4c1.9,1,4.1,1.9,5.4,3.6c1.9,2.5,1.5,6,1,9c-0.3,2.2-0.9,4.7-2.8,5.7
	c-1.6,0.9-3.6,0.4-5.4,0c-6.4-1.5-13-1.7-19.4-0.6c-0.9,0.1-1.9,0.4-2.5,1c-0.5,0.6-0.7,1.3-0.8,2.1c-1.5,10,7.1,18.8,7.2,28.9
	c0,2.2-1.9,3.9-3.1,5.7c-2,3.1-4.5,6-6.9,8.8c-1.7,2-3.4,3.9-5.1,5.9c-0.4,0.4-0.8,0.9-1.3,1.1c-0.5,0.2-1.1,0.2-1.7,0.3
	c-2.7,0.4-4.7,2.9-7.4,3.2c-1.5,0.2-2.9-0.4-4.3-0.9c-17.4-6.4-36.8-7.1-54.6-2c-2.3,0.7-4.8,1.4-7.1,1c-2.4-0.5-4.3-2.1-6.1-3.7
	c-4.2-3.7-7.3-9.4-12.6-11.1c0,0-0.9-0.1-1-0.1c-2.3,0-4.9,1.6-6.5,0.1c-5.6-5.2-14-5.7-21.7-5.9c-0.6,0-1.3,0-1.7,0.4
	c-0.4,0.4-0.5,1-0.6,1.6c-1.1,10.2,5.2,24.1-2.7,30.6c-2.1,1.7-5.2,1.3-6.7,3.5s-2.1,4.9-2.8,7.5c-2.7,11.4-5.3,22.9-4.8,34.6
	c0.1,2.7,1,5.9,3.6,6.4c2.4,0.5,3.5,3.2,5.3,5c5.9,5.8,9.2,3.3,10.8,5.3c1.8,2.3-1.3,4.3,2.6,7.7c1.9,1.6,0.6,4-1.2,5.4
	c-15.1,12.1-29.3,25.9-43.7,38.8c-3.6,3.2-7.3,6.7-8.6,11.3c-1.6,5.6,0.7,11.5,3,16.8"/>
<path fill="none" stroke="#E1E1E1" stroke-miterlimit="10" d="M60.1,379.3c2.3-5.5,4.6-11,5-16.9c0.2-2.9,0-5.9,0.6-8.7
	c1.8-8.4,10.3-13.5,15.4-20.4c3.3-4.4,5.3-10.3,6.1-15.5c0.3-1.8,2.9-3.2,2-4.8c-1.2-2.2-2.7-3.9-4-5.9c-0.8-1.2-1.9-2-2.9-3
	c-4.2-4.1-4.7-11.2-5.8-17c-1.3-6.6-2.6-11.8-2.5-18.5c0.1-6.9,1.2-19.5-2.3-21.1c-2.9-1.3-4.7,3.8-15.2,7.8
	c-1.4,0.5-5.2,1.2-6.6,0.6c-0.8-0.3-1.3-1-1.8-1.7c-3.6-5.6-0.5-13.2,4.2-18c4.7-4.7,10.8-8.1,14.6-13.5c2-2.8,3.3-6.1,5.4-8.8
	c1.8-2.3,4.2-4.1,6.6-5.7c3.6-2.4,7.5-4.3,11.3-6.4c6.1-3.3,11.3-1.4,15.9,0.6c3.1,1.3,0.6-3.4,19.4-0.7c7.8,1.1,15.8,0.3,23.7,0.8
	c7.9,0.5,9.6,3.8,17.5,4.5c3.2,0.3,10.5,2.8,13.8,3c14.2,0.8,28.1,3.5,42.2,3.8c2.2,0,4.4,0.1,6.6-0.3c4.3-0.7,8.2-2.8,11.9-4.9
	c4-2.4,8.3-5.5,8.7-10.2c0.2-1.9-0.4-3.7-0.9-5.6c-2.2-7.3-4.4-14.8-8.2-21.4c-1-1.8-2.1-3.5-3-5.4c-2.3-5.2-2.4-11.1-1.5-16.7
	c0.2-1.5,0.5-3,0.3-4.4c-0.3-1.6-1.1-3.1-1.6-4.7c-0.5-1.8-0.4-3.8-0.4-5.7c0-4.1-0.3-8.2-0.6-12.3c-0.2-3,0.5-6-0.9-8.7
	c-0.4-0.7-0.9-4.5-0.8-5.5c0.3-2.6-0.6-4.7-0.2-7.2c0.2-1.7,1-4.5,0.1-5.6c-0.3-0.3-1.8,0.2-2.6-0.2c-2.4-1.2-2.7-2.5-3.4-4.4
	c-0.3-0.8-0.3-2.6-1.2-2.9c-4.6-1.6-6-4.6-8.6-7.2c-3-3.1-10.2-1.9-12.8-5.3c-2.6-3.4-3.2-8.2-1.4-12.1c0.7-1.5,1.6-2.8,2.1-4.3
	c0.4-1.2,0.5-2.5,0.8-3.8c1.1-4.2,4.5-7.5,8.1-10c3.6-2.5,7.5-4.6,10.5-7.8c2.3-2.4,4.1-5.5,6.9-7.4c0.8-0.5,1.6-1,2.2-1.8
	c0.6-0.8,0.7-1.8,1-2.8c0.8-3.5,2.9-6.7,5.7-8.9c0.7-0.6,1.5-1.1,2.1-1.8c0.8-1,1.2-2.3,1.6-3.5c2.1-6.1,6.1-11.3,9.4-16.8
	s6.2-11.7,5.9-18.1"/>
<path fill="none" stroke="#E1E1E1" stroke-miterlimit="10" d="M244.8-23.3c0.6,5.9-2,11.7-4.6,17c-3.1,6.2-6.4,12.2-9.8,18.3
	c-3.2,5.9-6.6,11.9-11.7,16.2c-4.7,3.9-10.6,6.2-14.9,10.5c-3.4,3.4-5.6,7.7-7.7,12c-3,5.9-5.9,11.8-8.9,17.6
	c-2.9,5.7-5.9,11.6-11.3,15c-4.7,3-11.2,4.3-13.4,9.4c-0.7,1.7-0.9,3.7-2.1,5.1c-0.8,0.8-1.8,1.3-2.8,1.9c-3.4,2.1-2.3,7.2-4.9,10.2
	c-0.5,0.6-1.7-0.2-2.5,0.1c-2.7,1.3-2.3,5.5-1.6,8.4c0.7,2.9,2.2,5.5,3.6,8.1c2.6,5.1,4.6,10.4,7.7,15.2c3.1,4.8,7.6,9,13.2,10.1
	c3.4,0.7,7,0.2,10.5,0.4s5.9,5,9.3,4.1c3.3-0.8-0.9-6.7-0.5-10.1c0.3-2.4,4.4-0.3,5.7,1.7c4.4,7,5.8,16.7,12.8,21.1
	c7.3,4.6,19.2,15.9,15.8,18.4c-2.3,1.6-1.7,4.6-3.7,6.5c-0.5,0.5-1.2,0.8-1.6,1.4c-0.4,0.6-0.3,1.4-0.6,2.1
	c-0.7,1.7-3.1,1.8-4.7,2.7c-1.5,0.8-2.5,2.5-4.1,3c-0.8,0.3-1.7,0.2-2.6,0.1c-3.7-0.3-7.4-0.6-11.1-0.9c-6.3-0.5-12.9-1-18.6-3.8
	c-2-1-10-2.5-13.1-3.3c-4.6-1.2-9.2-1.9-13.8-2.9c-4.6-1-9.6-1.3-13.8,0.8c-1.5,0.8-2.9,1.9-4.5,2.5c-1.4,0.5-3,0.6-4.5,0.5
	c-3.4-0.3-6.6-1.6-9.9-2.1c-3.3-0.5-6.7-0.1-9.9-0.8c-4.6-0.9-10.2-3.2-15.9-1.5c-10.7,3.2-21.1,12.4-29.7,21.2
	c-14.7,15.2-28.1,31.6-41.3,48.1c-2,2.5-4,5.1-4.6,8.3c-0.5,3,0.4,6,1.4,8.9c1,3.1,2.1,6.3,4,8.9c2.9,3.9,7.6,6.2,12.4,7.2
	s14.9-1.2,15.6,3.7c0.8,6.1,6.1,13.2,7.8,20.8c1.2,5.3-13,4-15.1,21.2c-0.8,6.7,2,13.2,3.3,19.8c1.3,6.6,0.8,14.4-4.4,18.7
	c-0.3,0.3-0.8,0.5-1.2,0.3s0.3-1,0.4-0.5"/>
<path fill="none" stroke="#E1E1E1" stroke-miterlimit="10" d="M204.4,98.5c0.1-0.1,0.3-0.3,0.3-0.5c0-0.2,0-0.4-0.1-0.6
	c-0.6-1.2-1.8-2-3.1-2.4c-1.3-0.4-2.6-0.4-4-0.4c-2.3,0-4.7,0.1-6.7,1.2c-0.7,0.4-1.5,1.1-1.3,2c0.2,1,1.4,1.4,2.4,1.5
	c1.1,0.2,2.2,0.4,3.3,0.6c1.6,0.3,3.2,0.5,4.9,0.4C201.6,100.3,203.3,99.7,204.4,98.5z"/>
<path fill="none" stroke="#E1E1E1" stroke-miterlimit="10" d="M-18.9,304.9c1.2-1.1,2.9,0.3,4.3,1.1c2,1.2,4.6,1,6.9,1.5
	c3.2,0.7,6.1,2.9,9.4,3.4c2.9,0.4,6.1-0.6,8.6,0.9c1.8,1,3.7,1.4,5.2,2.7c2.1,1.8-1.5,5.4-2.5,8c-1.3,3.3-2.3,6.9-2.2,10.4
	c0.1,3.6,1.3,7.2,3.7,9.8c0.7,0.7,1.5,1.4,1.8,2.3c0.9,2.2-1.1,4.7-0.5,7c0.2,0.6,0.5,1.2,0.5,1.9c-0.1,0.5-0.4,1-0.7,1.4
	C11.5,360.3,6,364,2.1,369c-3,3.8-5,8.3-6,13.1"/>
<path fill="none" stroke="#E1E1E1" stroke-miterlimit="10" d="M199.8-20.9c-5.5,6.8-11.4,15.3-8.6,23.6c0.5,1.6,1.4,3.2,1,4.8
	c-0.5,2.4-3.4,3.5-5.4,5c-3.8,3-4.6,8.5-4.1,13.3c0.5,4.8,2,9.6,1.4,14.4c-0.7,6-4.4,11.2-8,16.1c-3.9,5.3-7.9,10.8-13.5,14.4
	c-2,1.3-4.2,2.3-6.4,3.4c-8.6,4.4-16.7,9.8-24,16.1c-3.9,3.4-7.8,7.3-9.5,12.3c-1,2.9-1,6.5,1.1,8.7c1.5,1.6,3.7,2.2,5.6,3.1
	c2.7,1.3,5,3.2,7.4,5c3.5,2.8,7.1,5.9,8.2,10.3c0.7,2.5,0.4,5.1,0.4,7.7c0.1,4.2,1.1,8.5,2.9,12.3c0.4,0.8,0.8,1.7,0.9,2.6
	c0.2,2.4-2.1,4.2-3.5,6.2c-2,2.9-1.9,6.8-0.7,10.1c1.2,3.3,6.7,5.6,5.5,9c-1.8,5.1-10.5,2.7-15.7,4c-5,1.3-10,4.5-15,2.9
	c-2.2-0.7-4.1-2.1-6-3.4c-6.7-4.6-15-8.4-22.8-6c-4.4,1.4-8,4.5-11.4,7.6c-8.1,7.3-16.3,14.6-22.1,23.9c-1.5,2.4-2.8,4.8-4.7,6.8
	c-1.8,1.9-4.1,3.3-6.2,4.9c-7.8,6.3-11.6,16.1-17.6,24C18.7,256.2,0.6,264-16.8,262.1c-2.3-0.2-4.5-0.6-6.8-0.5"/>
<path fill="none" stroke="#E1E1E1" stroke-miterlimit="10" d="M162-21.2c-2.3,3.6-2.8,8-4.8,11.7c-2.8,5.2-8.1,8.5-12,13
	c-2.8,3.3-4.8,7.2-6.5,11.1c-2.3,5-4.2,11.3-0.8,15.7c2.6,3.4,7.3,4.2,11,6.2c3,1.5,5.6,3.9,7.4,6.8c0.5,0.7,0.9,1.5,0.8,2.4
	c0,0.9-0.6,1.8-1.1,2.5c-3.4,5-6.9,9.9-11.1,14.2c-2.9,2.9-6.1,5.4-8.2,8.8c-1.2,1.9-2,4.2-3.6,5.8c-1.6,1.7-3.9,2.7-5.9,4
	c-6.7,4.2-3.4,12.2-8.4,13c-3.8,0.6-4.2,3.2-5.9,8c-0.6,1.7-3.7,0.8-5,2c-3.9,3.8-3.1,11.4-8,13.8c-4.1,1.9-9.9,3.3-13.1,6.5
	c-1.8,1.9-3.8,3.1-6.1,2.6c-3.2-0.7-6.5,0-9.8,0.4c-6.9,0.7-13,6.6-13.9,13.5c-0.3,2-0.2,4.2-1.1,6c-1.8,3.6-8.9,5.2-7.6,9.1
	c1.4,4.2,10,1,11.8,5.1c1.2,2.6-3.9,4.5-4.1,7.4s2.6,4.2,5.4,4.7c2,0.4,1.4,3.8,0.8,5.6s-1.9,3.5-3,5.2c-3,4.9-4.4,10.7-7.5,15.5
	c-2,3.1-4.7,5.7-7.1,8.5c-7.2,8.3-12.3,18.2-18,27.6c-1,1.7-2.2,3.5-3.9,4.5c-1.6,0.9-3.5,1.1-5.2,1.9c-3.9,1.9-6,7.2-10.3,7.3
	c-1.1,0-2.2-0.4-3.4-0.6c-4.1-0.8-8.4,0.5-12.5,1.5c-4.1,0.9-8.8,1.3-12.2-1.2"/>
<path fill="none" stroke="#E1E1E1" stroke-miterlimit="10" d="M39.1,160.5c1.1,0.1,1-0.6,1.7-0.6c0.8,0,1.4-0.7,1.1-1.5
	C40.8,155.1,37.2,159.9,39.1,160.5z"/>
<path fill="none" stroke="#E1E1E1" stroke-miterlimit="10" d="M-18.3,122.1c11.4-5.2,21.4-13.6,28.4-24c1.9-2.8,3.6-5.8,6-8.2
	c2.5-2.5,5.5-4.2,8.6-5.9c10.6-5.9,21.4-11.5,32.4-16.8c1.2-0.6,2.8-3.4,4.2-3.4c2,0,4-0.5,6.2-1.5c6.7-3.1,13.5-6.2,18.7-11.4
	C91,45.9,94.2,39.3,99.7,35c2.6-2,5.7-3.4,8-5.7c4.3-4.1,9.6-14.5,12.2-12.6c2.9,2.1-0.7,16.5-3.1,20.9c-0.5,1-0.3,2.2-0.1,3.3
	c0.8,4,7.5,2.7,9.7,6.1c1.4,2.2-2.6,5.6-1,7.7c1.1,1.5,4.8,0.8,4.9,2.6c0.1,3-1.7,5.9-3.8,8.1c-2.4,2.6-6.2,3.3-8.4,6
	c-2.7,3.2-5.1,6.6-7.4,10.1c-3.2,5.1-6,10.5-9.8,15.1c-2.4,3-4.2,5.8-7.6,7.8c-2.3,1.3-4.7,0.9-7.2,1.7c-0.7,0.2-2,3.5-2.7,3.8
	c-0.7,0.2-2.5-0.5-4-0.2c-1.6,0.3-3.6,0-5.1,0.5c-4.9,1.5-7.9,3.2-12.4,5.8c-3.1,1.8-5.9,3.9-8.7,6.2c-12,9.7-22.2,21.5-30.1,34.8
	c-6,10.2-10.7,21.1-14.6,32.3c-1,2.7-1.2,6.7,1.5,7.4c0.9,0.2,1.9-0.1,2.9-0.2c4.7-0.9,9.3,1.1,13.7,3.1c0.8,0.4,1.7,0.8,2,1.6
	c0.2,0.5,0.2,1,0.1,1.5c-0.3,6.2-0.8,12.9-4.6,17.8c-2.7,3.4-6.7,5.5-10.7,7.1c-7,2.8-14.5,4.5-22.1,5c-4.2,0.3-8.5,0.1-12.7,0.3"/>
<path fill="none" stroke="#E1E1E1" stroke-miterlimit="10" d="M-17.7,207.1c0.7,0.9,1.2,2,2,2.7c1.1,1,3,0.2,4.3-0.6
	s2.4-1.9,3.9-2.4c1.8-0.6,4.1-0.2,5.4-1.6c2-2.1-0.4-5.4-0.5-8.3c0-1.1,0.3-2.1,0.7-3.1c3.2-9.6,6.8-19.1,10.9-28.3
	c0.7-1.7,1.5-3.3,1.9-5.1c0.4-1.7,0.6-3.5,1-5.2c0.8-3,2.4-5.6,3.9-8.3c3.7-6.1,7.3-12.2,11-18.3c2.7-4.5,5.5-9.1,9-13.1
	c3.7-4.1,8.1-7.4,13.1-9.7c5-2.4,10.5-3.7,15.3-6.4c4.8-2.7,9.2-7.2,9.6-12.7c0.4-6,7-12.6,3.8-17.7c-1.2-2-4.4,1.2-6.1,2.8
	c-1.7,1.6-3.6,3-5.6,4.1c-1.8,1-3.7,1.9-5.7,1.9c-2,0-3.5-2.6-5.4-2c-2.5,0.7-2.7,4.5-5,5.8c-2.3,1.3-4.8,2-7.3,2.8
	c-7.2,2.3-14.2,5.4-20.8,9.3c-0.9,0.5-1.7,1-2.4,1.7c-1.2,1-2,2.4-2.8,3.7c-2.3,3.7-4.5,7.4-6.8,11.1c-1.5,2.5-3,5-5.2,6.9
	c-2.3,2-5.1,3.4-7,5.8c-0.8,1-1.4,2.2-2.3,3.1c-2.6,2.4-7.2,2-9.1,5c-0.5,0.7-0.7,1.6-1.3,2.3c-1.3,1.4-4.1,2.1-3.7,4"/>
<path fill="none" stroke="#E1E1E1" stroke-miterlimit="10" d="M-19.1,153.3c1.3-0.8,2.6-1.6,3.9-2.5c3.5-2.2,7-4.4,10.5-6.5
	c0.8-0.5,1.8-1,2.6-0.5c0.4,0.3,0.6,0.7,0.7,1.1c0.9,2.9,0.4,6-0.7,8.8s-2.6,5.4-3.6,8.3c-0.9,2.4-1.5,5-3,7c-0.9,1.1-2.1,2-2.9,3.2
	c-1.3,1.7-1.8,3.9-3.1,5.6c-1.2,1.7-3.2,2.8-5.3,3"/>
<path fill="none" stroke="#D6D6D6" stroke-miterlimit="10" d="M194.7,174.5c2,0.2,3.3-2.3,3.3-4.3c0-2-0.7-4.1-0.1-6.1
	c0.1-0.5,0.4-0.9,0.4-1.4c0-0.6-0.3-1.1-0.4-1.6c-0.5-1.8,0.3-3.7,0-5.6c-0.3-2.1-1.9-3.7-2.9-5.5c-1-1.9-1.1-4.7,0.7-5.6
	c1.1-0.5,2.3-0.3,3.5-0.3c2.2-0.1,3.8-0.2,5.6-1.5c0.6-0.4,1.5-2,1.9-2.6c0.5-0.7,1.3-1.9,1.4-2.7c0.6-3.7,1.4-7.4,2.4-11.1
	c0.7-2.5,1.3-5,3.9-5.2c0.7-0.1,1.4,0.1,2.1-0.1c1.1-0.3,1.8-1.3,2.2-2.3c0.3-1.1,0.3-2.2,0.4-3.3c0.2-1.8,0.6-3.6,1.4-5.3
	c1.6-3.5,2-7.5,5.2-9.7c1.4-1,3.1-1.8,4.4-2.9c0.9-0.7,1.6-1.7,2.4-2.4s2.1-1.2,3.2-0.8c1,0.3,1.7,1.2,2.7,1.3
	c1.7,0.1,3.4-0.9,4.3-2.3c0.6-1,0-2.2,0.8-3s1.9-1.1,3-1.4c1.5-0.5,3.1-0.9,4.6-1.4c2.2-0.7,4.6-1.4,6.8-0.6c2,0.7,3.5,2.5,5,4
	c3.2,3.2,7.5,5.3,12,5.9"/>
<path fill="none" stroke="#D6D6D6" stroke-miterlimit="10" d="M199.8,179.2c0.9,1,1.2,2.5,1.7,3.8c1,2.9,3.8,5.6,6.8,4.9
	c1-0.2,1.9-0.9,3-0.7c1.1,0.1,1.9,1.1,3,1.1c1.2,0,2.1-1.1,3.2-1.6c1-0.5,2.2-0.3,3.4-0.2c4.7,0.5,9.4,1.1,14.2,1.6
	c0.5,0.1,1,0.1,1.4,0.3c0.5,0.2,0.9,0.6,1.3,0.9c2.8,2.5,5.5,5.3,8.6,7.5c3.1,2.2,6.8,3.8,10.6,3.5c1.1-0.1,2.2-0.3,3.2,0.2
	c0.5,0.3,1,0.7,1.4,1.1c2.5,2.3,5.8,3.4,8.9,4.5c0.6,0.2,1.3,0.4,1.9,0.3c0.7-0.2,1.3-0.8,2.1-0.8c0.8,0,1.4,0.5,2.1,0.7
	c0.7,0.2,1-0.3,1.5-1"/>
<path fill="none" stroke="#D6D6D6" stroke-miterlimit="10" d="M343.1,215.9c0.9,1.3,2.2,2.3,3.7,2.8c4.8,1.6,9.9-2.2,15-1.7
	c0.6,0,1.2,0.2,1.7,0.5c0.7,0.4,1.1,1.1,1.7,1.6c2.2,1.9,5.7,0.4,8.6,0.9c2.7,0.5,5,2.7,7.8,2.6"/>
<path fill="none" stroke="#D6D6D6" stroke-miterlimit="10" d="M333.8,316.5c-0.3,4.5-4.6,7.9-8.9,9.1c-4.4,1.3-9,1.1-13.4,2
	c-1.6,0.3-3.2,0.8-4.9,0.6c-1.4-0.2-2.6-0.9-3.8-1.6c-3.7-2-7.9-3.8-12.1-3.3c-3.5,0.4-6.5,2.3-9.3,4.4c-1.1,0.9-2.2,1.8-3,3
	c-1,1.5-1.4,3.3-2.2,5c-2.2,5.2-7.1,8.5-11.5,12.1c-1.1,0.9-2.3,1.9-3,3.2c-0.5,0.9-0.8,1.9-1.2,2.7c-2,4-7.1,5.8-9.2,9.8
	c-0.7,1.3-1,2.8-1.4,4.2c-1,3.6-2.7,7.1-5,10.1"/>
<path fill="none" stroke="#D6D6D6" stroke-miterlimit="10" d="M255.8,378.2c1.4-1.6,2.8-3.2,4.2-4.8c1.5-1.7,3.1-3.4,5.1-4.3
	c1.2-0.6,2.5-0.9,3.6-1.5c1.7-1,2.7-2.8,4.1-4.1c2.5-2.4,6.2-3.5,8.3-6.4c0.6-0.8,1-1.7,1.7-2.4c0.8-0.7,1.8-1.1,2.7-1.5
	c1.9-0.7,3.8-1.4,5.6-2c0.7-0.3,1.5-0.6,2.1-1.1c0.9-0.8,1.3-1.9,1.8-2.9c1.4-2.8,4-5,7-5.9"/>
<path fill="none" stroke="#D6D6D6" stroke-miterlimit="10" d="M284.7,325.3c-0.1-0.7-0.1-1.2,0.3-1.8c0.3-0.6,0.6-1.2,0.9-1.8
	c0.4-0.7,0.7-1.4,1.3-2c0.6-0.5,1.4-0.9,2.2-0.8c1.3,0.3,1.9,2.9,2.4,4.1"/>
<path fill="none" stroke="#D6D6D6" stroke-miterlimit="10" d="M268.9,367.3c0.8-1.9,1.5-3.2,2.3-5.1c0.4-0.8,0.7-1.6,1.2-2.4
	c2.1-3.5,6.1-5.7,10.1-5.6c0.4,0,0.9,0,1.2-0.3"/>
<path fill="#EAEAEA" stroke="#D6D6D6" stroke-miterlimit="10" d="M337.9,362.1c0.6,0.1,1.2-0.4,1.5-1c0.2-0.6,0.2-1.3,0.4-1.9
	c0.1-0.5,0.3-1,0.3-1.6c-0.1-0.9-1-1.6-1.9-1.4c-0.8,0.2-1.4,0.9-1.6,1.7s0,1.6,0.1,2.4C336.9,361,337.2,361.9,337.9,362.1z"/>
<path fill="none" stroke="#D6D6D6" stroke-miterlimit="10" d="M140.2,299.5c-1.5,1.1-3.4,2.3-5.2,1.7c-1.1-0.4-1.9-1.4-2.9-2.1
	c-2.4-1.7-6-1.5-8.3,0.3c-2.4,1.9-4.6,3.1-6.5,5.3c-2.4,3-5.2,6.3-9.1,6.6c-1.2,0.1-2.4-0.1-3.6,0c-3.6,0.5-6.6,4.3-10.1,3.4
	c-0.8-0.2-1.5-0.6-2.3-0.9c-3.3-1.3-7.1-0.1-10.3,1.7s-6,4.1-9.4,5.3c-0.6,0.2-1.1,0.3-1.7,0.3c-0.6-0.1-1.2-0.4-1.8-0.6
	c-1.5-0.4-2.9,0.5-4.3,0.9c-4.1,1.1-8.3-1.6-11.4-4.6c-0.8-0.8-1.5-1.6-2.5-2.2c-1.4-0.9-3.2-1.3-4.8-1.8c-1.9-0.5-3.8-1.3-5.7-1.5
	c-2-0.2-4.1,0.2-5.5,1.6c-1.1,1.2-3.6,1.3-5.2,0.9s-3.4-1-4.7-0.1c-0.5,0.3-0.8,0.8-1.4,1c-0.6,0.2-1.3-0.1-2-0.2
	c-2.7-0.7-5.4,0.9-7.8,2.4c-2.9,1.8-6.1,3.5-9.5,3.7c-1,0.1-2,0-2.9,0.3c-0.7,0.2-1.4,0.7-2,1.2c-2.7,2-5.4,3.9-8.1,5.9
	c-4.2,3.1-8.7,6.4-10.6,11.3"/>
<path fill="none" stroke="#D6D6D6" stroke-miterlimit="10" d="M39.8,311.2c5.5-6.3,10.4-13.3,14.7-20.5c2.1-3.6,3.9-7.4,5.6-11.2
	c3-6.6,5.9-13.2,8.3-20c3.1-9,5.5-18.6,11.7-25.9c1.2-1.5,2.6-2.8,4.4-3.7c3.8-1.9,8.2-1,12.4-1.8c1.9-0.3,3.7-1,5.6-0.7
	c1.5,0.3,2.9,1.2,4.1,2.2c6.8,4.9,13.6,9.9,19.5,15.8c4.5,4.5,8.9,9.8,15.1,11.5"/>
<path fill="#EAEAEA" stroke="#D6D6D6" stroke-miterlimit="10" d="M140.5,295.1c0.2-0.2,0.5-0.3,0.9-0.4c0.4-0.1,0.9-0.2,1.3-0.3
	c0.4-0.1,0.7-0.1,1.1,0c0.5,0.2,0.8,0.8,0.8,1.4c0,0.6-0.3,1.1-0.6,1.6c-0.4,0.7-0.9,1.4-1.6,1.9c-0.7,0.5-2.1,1.1-2.3,0.3
	c-0.3-1,0.6-1.9,0.4-2.9C140.3,296.2,140.1,295.5,140.5,295.1z"/>
<path fill="none" stroke="#D6D6D6" stroke-miterlimit="10" d="M59.5,85.1c2.4-4.4,9.8-6.2,13.7-11.8c1.9-2.8,4.4-5.1,6.5-7.6
	c2-2.4,4-4.7,6.3-6.8c3.7-3.4,8-6.2,12.3-9c1-0.7,2.1-1.4,3.3-1.7c1.2-0.3,2.8-0.2,4-0.3c3.4-0.2,5-3.4,5.2-6.6c0.4-5.1,3-5.2,3.6-8
	c0.6-3.1-0.2-6.5,0.9-9.4c0.7-2,2.4-3.9,3.6-5.6c5.8-8.2,11.2-16.1,17.2-24.1c3.9-5.2,7.9-10.5,10.4-16.6"/>
<path fill="none" stroke="#D6D6D6" stroke-miterlimit="10" d="M74.9-22.2c-2.7,4-5.4,8.1-8.2,12.1c-1.1,1.6-2.2,3.3-3.1,5.1
	c-1.3,2.5-2.2,5.2-3.1,7.9c-1.1,3.4-2.2,6.7-3.3,10.1c-1.1,3.4-2.1,7.6,0.4,10.2c1,1,2.5,1.8,2.6,3.2c0.1,0.9-0.4,1.9-0.1,2.7
	c0.3,0.7,1.1,1,1.7,1.5c1.2,0.8,1.9,2.2,2,3.7c0,1.2-0.4,2.3-0.3,3.4c0.1,1.8,1.3,3.3,2,4.9C67,46,67,49.9,66,53.5
	c-0.9,3.6-2.7,6.8-4.5,10.1c-1.1,2-2.2,4.1-3.3,6.1C55.6,74.5,53,81,55.3,86.1"/>
<path fill="none" stroke="#D6D6D6" stroke-miterlimit="10" d="M108.7,46.8c1.9,0.1,3.9,0.2,5.3,1.4c3.1,2.5,5.7,6.4,8.2,9.5
	c0.5,0.6,1.1,1.3,1.8,1.8c0.7,0.4,1.7,0.6,2.4,0.1c0.4-0.3,1.2-0.7,1.5-1.2c0.8-1.1,1.6-1.8,3-1.9c0.6,0,1.2,0,1.7-0.2
	c1.2-0.5,1.1-2.4,1.4-3.7c0.3-1.3,1.8-1.1,2.9-1.8c1.5-0.9,1.6-3.5,3.2-2.8c0.5,0.2,1.8,1,2.3,1.3c1.6,0.9,3,0.6,4.6-0.1
	c1.7-0.7,3.1-1.9,4.5-3c0.7-0.5,1.4-1,2.3-1.1c0.8-0.2,1.7,0,2.6-0.1c3.4-0.4,5.8-4.5,9.2-4.4c2.5,0,4.9,2.5,7.3,1.8"/>
<path fill="#EAEAEA" stroke="#D6D6D6" stroke-miterlimit="10" d="M-7.1,61.1C-7.4,61-7.8,60.9-8.1,61c-0.9,0.2-1.3,1.2-1.5,2.1
	c-0.2,0.9-0.4,1.9-1.3,2.3c-0.4,0.2-0.9,0.2-1.2,0.5c-0.2,0.2-0.3,0.4-0.3,0.6c-0.5,1.2-0.9,2.5-1.4,3.7c-0.1,0.3-0.2,0.6-0.1,0.8
	c0.1,0.3,0.5,0.5,0.8,0.6c2.8,0.7,5.4-1.9,8.2-2.1c0.8-0.1,1.6,0.1,2.3-0.3c0.3-0.1,0.5-0.3,0.7-0.5c2.1-1.8,4-4,4.6-6.8
	c0.1-0.3,0.1-0.6,0-0.8c-0.1-0.1-0.2-0.2-0.3-0.3C1,60-0.7,60.2-2.3,60.5C-3.9,60.9-5.5,61.4-7.1,61.1z"/>
<path fill="#EAEAEA" stroke="#D6D6D6" stroke-miterlimit="10" d="M216.9,134.1c0.2,0.1,0.3,0.2,0.5,0.3c0.3,0.3,0.3,0.9,0.1,1.3
	s-0.5,0.8-0.8,1.2c-1.1,1.8-0.8,4.1-0.4,6.1c0.1,0.3,0.1,0.6,0.4,0.8c0.2,0.1,0.4,0.1,0.6,0c0.8-0.2,1.3-1,1.6-1.7
	c0.3-0.7,0.6-1.6,1.1-2.2c0.3-0.3,0.6-0.5,0.7-0.9c0.1-0.2,0.1-0.4,0.1-0.6c0-1.1,0.1-2.1,0.1-3.2c0-0.7,0-1.4-0.2-2.1
	c-0.4-1.2-1.8-2-3.1-1.8c-0.3,0-0.5,0.1-0.7,0.3C216.2,132.2,216.2,133.5,216.9,134.1z"/>
<path fill="#EAEAEA" stroke="#D6D6D6" stroke-miterlimit="10" d="M273.6,163.3c0.3,0.2,0.1,0.8,0.3,1c0.1,0.1,0.2,0.1,0.3,0.1
	c1.5,0.4,3.3,0.2,4.6-0.7s2.1-2.6,1.8-4.2c0-0.1-0.1-0.3-0.1-0.4c-0.2-0.3-0.5-0.4-0.8-0.5c-0.3-0.1-0.6-0.2-0.9-0.3
	c-1.2-0.4-2.5-0.3-3.8-0.3c-0.5,0-0.9,0-1.4,0.2c-1.4,0.5-2.2,2-2.8,3.3c-0.2,0.5-0.4,1.1,0,1.5c0.1,0.1,0.2,0.1,0.3,0.2
	C271.9,163.6,272.8,162.9,273.6,163.3z"/>
<path fill="#EAEAEA" stroke="#D6D6D6" stroke-miterlimit="10" d="M266.2,148.1c0.5-0.8,0.5-1.9,0.3-2.8s-0.5-1.9-0.7-2.8
	c-0.2-1.2-0.1-2.6-0.8-3.6c-0.8-1-2.3-1.3-3.5-1c-1.3,0.3-2.6,0.8-3.4,1.9c-0.3,0.5,0.1,1.2,0.5,1.6c0.4,0.4,1,0.7,1.5,1
	c0.6,0.3,1.4,0.3,1.8,0.8c0.9,1.4,0.8,3.2,1.7,4.6c0.3,0.5,0.7,1.1,1.3,1.1C265.5,148.9,266,148.5,266.2,148.1z"/>
<path fill="#EAEAEA" stroke="#D6D6D6" stroke-miterlimit="10" d="M283.5,97.6c-0.2-0.4-0.3-0.9-0.6-1.2c-0.5-0.7-1.7-0.6-2.5-0.4
	c-0.2,0-0.3,0-0.5-0.1c-0.1-0.1-0.1-0.2-0.1-0.2c-0.2-0.5-0.7-0.7-1.2-0.7s-1,0.2-1.4,0.3c-0.7,0.3-1.5,0.5-2.1,1.1
	c-0.6,0.5-0.9,1.4-0.7,2.1c0.5,1.4,2.8,1.3,3.7,2.5c0.4,0.5,0.4,1.2,0.6,1.8c0.7,2.3,4,5,5.7,3.3c0.7-0.7,0.6-2.1,1.6-2.2
	c0.4,0,0.8,0.1,1.1-0.1c0.2-0.1,0.4-0.3,0.5-0.6c0.4-0.7,0.6-1.6,0.5-2.4c-0.1-0.8-0.5-1.6-1.2-2C285.7,98.3,284.1,98.6,283.5,97.6z
	"/>
<path fill="#EAEAEA" stroke="#D6D6D6" stroke-miterlimit="10" d="M283.5,202.1c-1.1,0.8-2.6-0.4-3.8,0.2c-0.7,0.3-1.5,0.7-1.7,1.5
	c-0.4,1.2,0.8,2.2,1.1,3.3c0.2,0.7,0,1.5,0.5,2.1c0.4,0.6,1.2,0.7,1.9,0.6c4.3-0.2,8.1-3.5,12.5-3.4c1.2,0,2.4,0.3,3.6,0.6
	c1.7,0.4,4.1,0.5,5.7,1.3c1.9,0.9,3.3-1.3,4.4-0.8c1.3,0.7,1.5,2.8,3.2,2.4c1.7-0.4,1.7,3.3,3,4.3c0.9,0.7,2.1,0.7,3.2,1
	c1.7,0.5,3.4,1,5.2,1.5c0.5,0.2,1.1,0.3,1.5,0.6c0.4,0.2,0.7,0.5,1.1,0.8c1.8,1.4,4.1,2.1,6.3,2.8c2.3,0.7,4.7,1.3,7,0.5
	c3.1-1.1,4.6-4.5,5.4-7.6c0.7-2.8,1.6-6.3,4.4-7.1c0.6-0.2,1.2-0.2,1.7-0.5c0.5-0.3,1-0.8,0.9-1.4c-0.1-0.3-0.3-0.6-0.5-0.8
	c-1.3-1.5-2.6-3.1-4.2-4.3c-0.5-0.4-1-0.7-1.3-1.2c-1.3-2.2,1.9-5,0.8-7.3c-0.8-1.7-3.3-1.5-5.1-0.8c-1.7,0.7-3.7,1.8-5.4,1.1
	c-0.6-0.2-1.1-0.7-1.7-0.9c-0.7-0.3-1.4-0.3-2.1-0.3c-6.3-0.2-12.7,0.2-19,1.1c-0.4,0.1-0.9,0.1-1.2-0.1c-0.3-0.2-0.5-0.5-0.7-0.8
	c-0.5-0.4-1.2-0.4-1.8-0.4c-2.2,0.2-4,2-6.1,2c-1.3,0-2.5-0.4-3.7,0.2c-1.1,0.6-2.1,1.5-3.2,2.1c-2.2,1.3-4.7,1.8-7.2,2.4
	C285.2,197.5,285.1,200.9,283.5,202.1z"/>
<path fill="none" stroke="#4E9BD7" stroke-miterlimit="10" d="M-18.6,162.7c7.5-3.5,12.1-11,16.2-18.2c6.5-11.2,13.2-22.6,22.5-31.7
	c3.6-3.5,7.6-6.7,11.5-9.8c2.6-2.1,5.1-4.4,8.1-5.6c3-1.1,6.2-2.1,8.6-4.5c2.9-2.8,5.1-6.6,9-7.7c0.7-0.2,1.4-0.3,2.1,0
	c1,0.3,1.8,1.2,2.4,2.1c0.8,1.1,1.5,2.4,2.6,3.3c1.1,0.9,2.7,1.3,3.9,0.7c0.7-0.4,1.2-1.1,1.7-1.7c1.2-1.3,2.9-2,4.6-2
	c0.6,0,1.2,0.1,1.5,0.6c0.2,0.3,0.3,0.7,0.3,1.1c0.3,2.5-0.2,5.1,0.8,7.4c1.2,2.7,4.1,4.3,5.1,7.1c0.7,1.8,0.9,3.8,1.1,5.7
	c0.2,2.1,0.4,4.1,0.4,6.2c0,3.9-0.7,7.9-0.1,11.7c0.3,1.8,0.8,3.5,0.6,5.3c-0.1,1.2-0.6,2.3-0.7,3.5c-0.1,1.2,0.2,2.6,1.2,3.2
	c1.3,0.8,3.1,0.1,4.3,1c0.5,0.3,0.8,0.8,1.1,1.3c1,1.1,2.9,1.4,4.4,1.3"/>
<path fill="none" stroke="#4E9BD7" stroke-miterlimit="10" d="M97.4,143.2c-0.1,0.3,0.2,0.6,0.5,0.8c2,1.2,4.3,1.9,6.7,2.1
	c0.3,0,0.7,0.2,0.6,0.4"/>
<path fill="none" stroke="#4E9BD7" stroke-miterlimit="10" d="M114.3,148.4c0.1,0.1,0.6,1,0.7,1.2c1.3,2.8,4.1,2.2,5.9,2.2
	c0.8,0,0,1.7,0,2.5"/>
<path fill="none" stroke="#4E9BD7" stroke-miterlimit="10" d="M124,161.4c0,0.7-0.4,1.6,0,2.2c0.3,0.4,0.9,0.3,1.4,0.5
	c0.2,0.1,0.4,0.2,0.5,0.4c0.1,0.2,0.1,0.4,0.1,0.6c-0.1,1.2-0.2,2.5-0.3,3.7"/>
<path fill="none" stroke="#4E9BD7" stroke-miterlimit="10" d="M130.6,174.8c2.2,1.2,4.9-0.6,7.2,0c0.8,0.2,1.5,0.6,2.4,0.8
	c1.3,0.3,2.6-0.2,3.8-0.5c1.3-0.3,2.7-0.3,3.7,0.5c0.7,0.7,1,1.8,1.7,2.5c1.5,1.4,4,0.6,5.8,1.6c0.4,0.2,0.7,0.5,1.1,0.5
	c1.1,0.2,1.9-1,2.9-1.4c2.7-1.1,5.4,3.5,8.1,2.3"/>
<path fill="#EAEAEA" stroke="#4E9BD7" stroke-miterlimit="10" d="M95.2,144c0.2,0.3,0.6,0.3,1,0.1c0.8-0.3,1.4-1.2,1.4-2.1
	c0.1-0.9-0.3-1.7-0.7-2.5c-0.2-0.4-0.6-1.2-1-0.9c-1.3,0.8-0.7,2.9-0.8,4.4C95,143.4,95,143.8,95.2,144z"/>
<path fill="#EAEAEA" stroke="#4E9BD7" stroke-miterlimit="10" d="M105.2,146.4c-0.2-0.9,0.5-1.8,1.3-2.3c0.8-0.5,1.8-0.7,2.5-1.4
	c0.6-0.5,1.1-1.2,1.9-1.4c1.1-0.2,2,0.8,2.5,1.7c0.5,0.9,0.8,1.8,1.1,2.7c0.2,0.7,0.3,1.4,0.1,2.1s-0.9,1.2-1.6,1.2
	c-1.2-0.1-1.6-1.5-2.8-1.8c-1.5-0.4-3.1,1.5-4.2,0.5c-0.2-0.1-0.2-0.3-0.3-0.5C105.5,146.9,105.3,146.6,105.2,146.4z"/>
<path fill="#EAEAEA" stroke="#4E9BD7" stroke-miterlimit="10" d="M122.4,155c0.1,0.2,0.3,0.4,0.4,0.5c0.5,0.3,1.3-0.4,1.8-0.1
	c0.7,0.5,0.9,1.6,0.9,2.5c0,1-0.5,2-1,2.9c-0.2,0.4-0.5,0.8-1,0.9c-0.5,0.1-0.9-0.2-1.3-0.5c-0.6-0.5-1.2-1-1.6-1.7
	c-0.2-0.3-0.3-0.7-0.7-1c-0.2-0.1-0.4-0.2-0.5-0.3c-0.4-0.3-0.5-0.9-0.4-1.5c0.1-0.8,0.5-1.6,1.2-2
	C120.9,154.4,121.8,154.4,122.4,155z"/>
<path fill="#EAEAEA" stroke="#4E9BD7" stroke-miterlimit="10" d="M125.1,173c-0.3-0.5-0.2-1.1-0.3-1.6c-0.1-0.6-0.5-1.2-0.6-1.8
	c-0.1-0.7,1-1,1.8-1.1c0.7-0.1,1.5,0.1,2.2,0c0.5-0.1,1-0.2,1.5-0.2c1.1,0.1,2.3,0.8,2.4,1.9c0.1,0.9-1.9,1-1.9,2
	c0,0.5,0.5,0.8,0.6,1.3c0.2,0.7-0.5,1.3-1.2,1.5c-1.4,0.3-2.7-0.4-3.9-1.3C125.5,173.5,125.2,173.3,125.1,173z"/>
<path fill="#7BBCEB" stroke="#4E9BD7" stroke-miterlimit="10" d="M173.6,175c0.7-0.4,1.8-0.1,2.3-0.7c0.3-0.3,0.4-0.8,0.5-1.2
	c0.6-1.7,2.2-2.9,3.9-3.5c1.7-0.5,3.6-0.4,5.4-0.3c3.3,0.2,7.1,1,8.6,4c0.3,0.7,0.5,1.4,1,1.9c0.6,0.6,1.5,0.8,2.3,0.9
	c0.8,0.1,1.7,0.2,2.4,0.8c0.6,0.6,0.8,1.7,0.2,2.2c-0.5,0.4-1.2,0.3-1.8,0.1c-1.2-0.3-2.4-0.5-3.6-0.8c-0.4-0.1-0.9-0.2-1.3-0.1
	c-1.1,0.2-1.6,1.5-1.6,2.7s0.3,2.3,0,3.4c-0.6,2.1-2.9,3-5,3.6c-1.1,0.3-2.3,0.7-3.4,0.8c-3.7,0.3-7.6-1.7-11-0.3
	c-0.9,0.4-2.1,0.9-2.7,0.2c-0.3-0.3-0.4-0.7-0.5-1.1c-0.7-1.7-3.4-2.5-3.3-4.4c0-1.2,1.3-2.1,2.4-2.5s2.5-0.8,3.2-1.8
	C172.4,177.7,172.2,175.7,173.6,175z"/>
<path fill="none" stroke="#585858" stroke-miterlimit="10" stroke-dasharray="4,1" d="M156.5-20.7c-4.3,4.7-7.1,9.6-10.4,15
	c-2.6,4.3-6.3,9.4-11.1,11c-1.7,0.6-3.7,0.8-4.8,2.2c-1.2,1.5-0.7,3.7-1.1,5.7c-0.6,3.3-3.7,5.5-6.1,8c-4,4.2-6.1,9.8-8.1,15.3
	c-1.9,5.2-3.8,10.3-5.2,15.6c-0.8,3.1-1.5,6.3-2.8,9.2c-0.7,1.5-1.5,3-2.5,4.3c-1.6,2.2-3.7,4.1-5.7,6c-3,2.8-6,5.6-9,8.3
	c-4.7,4.4-10.8,7.4-14.3,12.9c-1,1.6-1.9,3.4-3,4.9c-2.8,3.8-6.5,5.7-11.2,5.7c-2.3,0-5.6-0.1-7.9,0.2c-2.9,0.3-5.5,1.9-8,3.4
	c-2.1,1.3-4.3,2.6-6.4,3.9c-4.3,2.7-8.7,5.9-12.4,9.5c-2.7,2.6-5,5.2-8.4,6.9c-1.8,0.9-3.8,1.4-5.3,2.7c-4.4,3.8-1.7,11.7-5.6,16
	c-1.8,2-4.8,2.7-6.6,4.7c-0.9,1-1.2,3.4-1.8,4.5c-4.1,7.6-11.3,11.9-18.1,17.2"/>
<text transform="matrix(1 0 0 1 152.485 163.0777)"><tspan x="0" y="0" fill="#7BBCEB" font-family="'Verdana-Italic'" font-size="8">Florence</tspan><tspan x="0" y="9.6" fill="#7BBCEB" font-family="'Verdana-Italic'" font-size="8">Lake</tspan></text>
<text transform="matrix(0.1515 0.9885 -0.9885 0.1515 71.8493 102.8133)" fill="#585858" font-family="'Verdana-Italic'" font-size="8">Florence</text>
<text transform="matrix(0.9232 0.3843 -0.3843 0.9232 93.2556 151.5592)" fill="#585858" font-family="'Verdana-Italic'" font-size="8">Creek</text>
<text transform="matrix(1 0 0 1 299.9645 245.5181)" fill="#585858" font-family="'Verdana-Italic'" font-size="8">× 11361</text>
<text transform="matrix(1 0 0 1 167.4893 99.9417)" fill="#585858" font-family="'Verdana-Italic'" font-size="8">10216 ×</text>
<path fill="none" d="M179.5,198.8c5.7,2.8,12.3,3.3,18.6,3.8c3.7,0.3,7.4,0.6,11.1,0.9"/>
<text transform="matrix(0.967 0.2548 -0.2548 0.967 182.0343 202.607)"><tspan x="0" y="0" fill="#7D7D7D" font-family="'Verdana-Italic'" font-size="7">1</tspan><tspan x="4.7" y="0" fill="#7D7D7D" font-family="'Verdana-Italic'" font-size="7" rotate="-5.7">0</tspan><tspan x="9.3" y="-0.5" fill="#7D7D7D" font-family="'Verdana-Italic'" font-size="7" rotate="-9.1">0</tspan><tspan x="13.7" y="-1.2" fill="#7D7D7D" font-family="'Verdana-Italic'" font-size="7" rotate="-10.4">0</tspan><tspan x="18.1" y="-2" fill="#7D7D7D" font-family="'Verdana-Italic'" font-size="7" rotate="-10.4">0</tspan></text>
<path fill="none" d="M13,322.5c-1.3,3.3-2.3,6.9-2.2,10.4c0.1,3.6,1.3,7.2,3.7,9.8c0.7,0.7,1.5,1.4,1.8,2.3"/>
<text transform="matrix(-0.2137 0.9769 -0.9769 -0.2137 9.2907 325.0806)"><tspan x="0" y="0" fill="#7D7D7D" font-family="'Verdana-Italic'" font-size="7">9</tspan><tspan x="5" y="0" fill="#7D7D7D" font-family="'Verdana-Italic'" font-size="7" rotate="-11.4">8</tspan><tspan x="10" y="-1.1" fill="#7D7D7D" font-family="'Verdana-Italic'" font-size="7" rotate="-26.1">0</tspan><tspan x="14.7" y="-3.5" fill="#7D7D7D" font-family="'Verdana-Italic'" font-size="7" rotate="-43.8">0</tspan></text>
<path fill="none" d="M306.6,286.3c4.9,3.8,8,9.6,12,14.3c3.7,4.4,7.5,9.3,12.9,11.4"/>
<text transform="matrix(0.6074 0.7944 -0.7944 0.6074 309.1803 292.3326)"><tspan x="0" y="0" fill="#7D7D7D" font-family="'Verdana-Italic'" font-size="7">1</tspan><tspan x="4.4" y="0" fill="#7D7D7D" font-family="'Verdana-Italic'" font-size="7" rotate="1.2">1</tspan><tspan x="9" y="0.1" fill="#7D7D7D" font-family="'Verdana-Italic'" font-size="7" rotate="-1.7">0</tspan><tspan x="13.5" y="0" fill="#7D7D7D" font-family="'Verdana-Italic'" font-size="7" rotate="-3">0</tspan><tspan x="18.1" y="-0.2" fill="#7D7D7D" font-family="'Verdana-Italic'" font-size="7" rotate="-6.6">0</tspan></text>
<path fill="none" d="M318.5,182c5.4,0.5,8.9,0.1,14.3-0.1c5.7-0.1,11.6-0.7,17.2,0.4"/>
<text transform="matrix(1 -4.754647e-03 4.754647e-03 1 321.5973 184.8277)"><tspan x="0" y="0" fill="#7D7D7D" font-family="'Verdana-Italic'" font-size="7">1</tspan><tspan x="4.6" y="0" fill="#7D7D7D" font-family="'Verdana-Italic'" font-size="7" rotate="-2.5">0</tspan><tspan x="9" y="-0.2" fill="#7D7D7D" font-family="'Verdana-Italic'" font-size="7" rotate="-1.3">6</tspan><tspan x="13.4" y="-0.3" fill="#7D7D7D" font-family="'Verdana-Italic'" font-size="7" rotate="-1.9">0</tspan><tspan x="17.8" y="-0.5" fill="#7D7D7D" font-family="'Verdana-Italic'" font-size="7" rotate="0">0</tspan></text>
<path fill="none" d="M310.7,31.2c3.1-0.7,6.3-1.1,9.5-1.2c2.7-0.1,5.5-0.1,8.2-0.5c5.1-0.9,9.9-3.6,15-2.8"/>
<text transform="matrix(0.997 -7.688314e-02 7.688314e-02 0.997 316.2682 32.8131)"><tspan x="0" y="0" fill="#7D7D7D" font-family="'Verdana-Italic'" font-size="7">1</tspan><tspan x="4.3" y="0" fill="#7D7D7D" font-family="'Verdana-Italic'" font-size="7" rotate="2.9">1</tspan><tspan x="9" y="0.3" fill="#7D7D7D" font-family="'Verdana-Italic'" font-size="7" rotate="-2.2">4</tspan><tspan x="13.8" y="0.1" fill="#7D7D7D" font-family="'Verdana-Italic'" font-size="7" rotate="-11.1">0</tspan><tspan x="18.2" y="-0.9" fill="#7D7D7D" font-family="'Verdana-Italic'" font-size="7" rotate="-11.3">0</tspan></text>
<path fill="none" d="M23.3,156.9c7.9-13.3,18.1-25.1,30.1-34.8"/>
<text transform="matrix(0.6 -0.8 0.8 0.6 31.8156 148.6178)"><tspan x="0" y="0" fill="#7D7D7D" font-family="'Verdana-Italic'" font-size="7">9</tspan><tspan x="4.4" y="0" fill="#7D7D7D" font-family="'Verdana-Italic'" font-size="7" rotate="2">4</tspan><tspan x="8.7" y="0.1" fill="#7D7D7D" font-family="'Verdana-Italic'" font-size="7" rotate="3.9">0</tspan><tspan x="13.1" y="0.4" fill="#7D7D7D" font-family="'Verdana-Italic'" font-size="7" rotate="5.9">0</tspan></text>
<path fill="none" d="M16.1,39.9c3.9-1.9,5.9-6.2,9.6-8.5c1.2-0.8,2.5-1.3,3.7-2c1.8-1.1,3.3-2.5,4.7-4.1c4.6-5.3,7.7-12,8.7-18.9"/>
<text transform="matrix(0.8967 -0.4426 0.4426 0.8967 27.0304 33.4469)"><tspan x="0" y="0" fill="#7D7D7D" font-family="'Verdana-Italic'" font-size="7">9</tspan><tspan x="5.1" y="0" fill="#7D7D7D" font-family="'Verdana-Italic'" font-size="7" rotate="-14.6">8</tspan><tspan x="9.8" y="-1.3" fill="#7D7D7D" font-family="'Verdana-Italic'" font-size="7" rotate="-24.1">0</tspan><tspan x="14.1" y="-3.3" fill="#7D7D7D" font-family="'Verdana-Italic'" font-size="7" rotate="-31.1">0</tspan></text>
<g>
	<g>
		<polyline fill="none" stroke="#7D7D7D" stroke-miterlimit="10" points="85.2,341.6 85.2,348.7 275.4,348.7 275.4,341.7 		"/>
		<line fill="none" stroke="#7D7D7D" stroke-miterlimit="10" x1="180.5" y1="341.4" x2="180.5" y2="348.7"/>
		<line fill="none" stroke="#7D7D7D" stroke-miterlimit="10" x1="161.2" y1="349.2" x2="161.2" y2="343.7"/>
		<line fill="none" stroke="#7D7D7D" stroke-miterlimit="10" x1="142.4" y1="349.2" x2="142.4" y2="343.7"/>
		<line fill="none" stroke="#7D7D7D" stroke-miterlimit="10" x1="123.3" y1="349.2" x2="123.3" y2="343.5"/>
		<line fill="none" stroke="#7D7D7D" stroke-miterlimit="10" x1="104.6" y1="349.2" x2="104.6" y2="343.7"/>
	</g>
	<text transform="matrix(1 0 0 1 83.7835 339.1467)" fill="#7D7D7D" font-family="'Verdana'" font-size="8">0</text>
	<text transform="matrix(1 0 0 1 174.2946 339.1467)" fill="#7D7D7D" font-family="'Verdana'" font-size="8">0.5</text>
	<text transform="matrix(1 0 0 1 258.3415 339.1467)" fill="#7D7D7D" font-family="'Verdana'" font-size="8">1 mi</text>
</g>
</svg>
