<?xml version="1.0" encoding="utf-8"?>
<!-- Generator: Adobe Illustrator 17.1.0, SVG Export Plug-In . SVG Version: 6.00 Build 0)  -->
<!DOCTYPE svg PUBLIC "-//W3C//DTD SVG 1.1//EN" "http://www.w3.org/Graphics/SVG/1.1/DTD/svg11.dtd">
<svg version="1.1" id="Layer_1" xmlns="http://www.w3.org/2000/svg" xmlns:xlink="http://www.w3.org/1999/xlink" x="0px" y="0px"
	 viewBox="0 0 360 360" enable-background="new 0 0 360 360" xml:space="preserve">
<path fill="none" stroke="#E1E1E1" stroke-miterlimit="10" d="M294.6-11.8c0.3,0.6,0.6,1.2,0.9,1.7c1.7,3.6,3.5,7.1,5.2,10.7
	c1.1,2.3,2.3,4.7,3,7.1c0.9,2.9,1.2,6,1.8,9c0.1,0.8,0.3,1.5,0.1,2.3c-0.2,0.7-0.6,1.4-1.1,2c-0.9,1.2-1.8,2.4-2.7,3.6
	c-6.2,8.3-12.3,16.7-18.5,25c-0.7,0.9-1.4,1.9-2.1,2.8c-1.6,2.2-4.3,3.5-6.2,5.4c-1.1,1.2-2.3,2.4-3.4,3.5c-2.6,2.7-5.3,5.5-7.6,8.5
	c-1.6,2.1-3,4.3-4,6.7c-1.5,3.4-2.1,7.2-1.9,10.9c0,0.8,0.1,1.5,0.6,2.2c0.7,0.9,2,1.3,2.5,2.4c0.2,0.5,0.2,1.1,0.3,1.6
	c0.9,3,6.9,1.8,7.3,4.9c0.1,0.8-0.4,1.6-0.7,2.4c-1.3,3.1-0.6,6.6,0.1,9.9c0.3,1.6,0.7,3.3,1.8,4.6c1,1.2,2.5,1.9,3.9,2.5
	c2.4,1.1,4.9,2.2,7.3,3.3c3.2,1.4,6.4,2.9,9.9,3.4c5.9,0.8,11.9-1.2,16.8-4.5c4.9-3.3,5.7-5.7,9.5-10.3c1.3-1.6,3.7-6.1,4.7-8
	c1.1-2,1.6-4.3,3-6.2c5.3-7.2,8.4-17,13.5-24.5c3.2-4.7,7.9-9,9.7-14.3c0.4-1.1-0.3-4-0.3-5.2c-0.2-4.5-0.3-7.3-1.6-11.6
	c-1.3-4.3-0.9-8.8-5.1-10.7c-1.6-0.7-6.4-0.7-7.9-1.6c-2.2-1.3-3.5-3.6-5.5-5.2c-2.6-2.1-6.2-3-8.3-5.6c-1.7-2.2-2-5.1-2.1-7.9
	c-0.3-6.7,0-13.5,1-20.2"/>
<path fill="none" stroke="#E1E1E1" stroke-miterlimit="10" d="M-3-11.7c4.1,3,8,6.2,11.8,9.5c8,7,17,15.2,27.6,14.1
	c4.1-0.4,8-2.3,12.1-2.3c5.3,0,10.1,3.3,13.5,7.5c3.3,4.1,5.5,9.1,7.9,13.8c1.7,3.3,3.8,6.8,7.3,7.9c3.7,1.2,7.6-0.6,10.5-3.2
	c5.9-5.2,8.7-13,12.5-19.9c5.8-10.7,14.3-19.7,24.3-26.6c0.7-0.5,1.5-1,2.2-1.5"/>
<path fill="none" stroke="#E1E1E1" stroke-miterlimit="10" d="M270.7-11.5c2.5,3.6,4.8,7.3,6.9,11.2c2.1,3.9,3.9,8.1,3.8,12.5
	c-0.2,7.5-5.9,13.4-10.1,19.6c-4.1,6.1-4.2,10.5-7.7,16.9c-4.8,8.8-14,13.8-21.2,20.6c-2.6,2.4-5.3,5.2-5.6,8.8
	c-0.4,5.8,5.8,9.6,8.1,15c1.8,4.3,0.8,9.6-2.5,12.8c-0.6,0.6-1.3,1.2-1.8,2c-1.1,1.7-0.6,3.9-0.8,5.9c-0.3,3-2.1,5.8-4.8,7.2
	c-2.1,1.1-4.5,1.4-6.6,2.5s-4.2,4.2-2.4,5.8c2.4,2.3,6.9,0.2,9.6,2.1c5.7,4.1,10.1,11.4,17,9.9c3.1-0.7,6-2.4,9.1-2.7
	c3.7-0.3,5.5,4.5,9.2,5c2.1,0.3,3.6-4.2,5.4-3.2c6,3.2,12.1,9.4,19.5,12.4c2.3,0.9,4.3,2.6,6.7,2.9c5.2,0.6,9.6-3.4,13.3-7.1
	c2.1-2.2,4.3-4.3,5.8-7c1.9-3.4,2.7-7.4,5.1-10.4c2.5-3.1,6.3-4.8,9.8-6.9s6.9-4.8,7.7-8.8c0.6-3.1-0.6-6.4,0.5-9.4
	c0.9-2.3,3-4,4.7-5.7c7.5-7.4,1.8-19.3,5.5-29.1c1.8-4.9,3.8-9.6,7.6-13.2c3.6-3.4,10.1-2.1,13.4-5.8"/>
<path fill="none" stroke="#E1E1E1" stroke-miterlimit="10" d="M-9.9,12.1c0.7,0.9,1.3,1.9,2.2,2.5c1,0.7,2.4,0.9,3.4,1.6
	c1,0.7,1.6,1.7,2.1,2.7C2.8,27,9.6,34.6,18.7,37.3c2.1,0.6,4.4,1,6.3,2.1c1.7,1,3.1,2.5,5,2.9c1.3,0.3,2.6,0.1,3.9,0.2
	c2.5,0.2,4.7,1.4,6.9,2.6c4.2,2.3,8.1,5.2,12.6,7c2,0.8,6.5,1.1,8.5,2.1c1.6,0.8,3.1,2,4.8,2.3c1.8,0.3,3.7,0.2,5.6,0
	c0.9-0.1,1.8-0.2,2.7-0.5c0.6-0.3,1.1-0.6,1.7-0.9c2-1,4.5-0.8,6.2-2.2c0.6-0.5,1.2-0.3,2.1-0.3c2.7,0,5.7-4.4,7.6-6.8
	c9.9-12.6,20.5-24.7,33-34.7c10.5-8.4,22.1-15,33.8-21.7c0.6-0.4,1.3-0.7,2-1.1"/>
<path fill="none" stroke="#E1E1E1" stroke-miterlimit="10" d="M-11.8,38c0.8-0.3,1.6-0.6,2.4-0.5c1.3,0.1,2.4,0.9,3.5,1.7
	c3.3,2.5,6.9,4.6,10.6,6.2c4.3,1.9,8.2,4.3,11,8c2.5,3.3,6,5.4,9.3,7.9c1.1,0.8,2.2,1.7,3.6,2.2c1.6,0.6,3.3,0.6,5,0.7
	c7.1,0.5,13.9,3.2,20.3,6.4c1.9,0.9,3.7,1.9,5.7,2.5c1.7,0.5,3.4,0.8,5.2,1c4.1,0.6,8.4,1.2,12.4,0c2.6-0.8,4.9-2.2,7.2-3.7
	c2.9-1.9,5.9-3.8,8.8-5.6c2.4-1.5,4.8-3.3,5.7-6c0.5-1.4,1.6-4.3,2.2-5.7c2.7-6.1,8.1-10.5,13-15c2.6-2.4,5.2-4.7,7.9-7.1
	c4.4-4,8.9-8,14.2-10.8c3.9-2.1,8.2-3.4,12.4-4.6c7.5-2.2,15.1-4.1,22.8-5.8c1.5-0.3,3-0.6,4.5-0.4c1.8,0.2,3.5,1.2,5.4,1.2
	c2,0,3.8-1.1,5.8-0.9c1.7,0.2,3.1,1.4,4.4,2.4c4.3,3.5,8.9,6.5,13.8,8.9c1.4,0.7,2.7,1.3,3.9,2.3c0.7,0.6,1.3,1.3,2.2,1.5
	c0.5,0.1,1,0.1,1.5,0c2.3-0.2,5.6-2.5,6.9-0.6c0.7,1,0,2.4,0.8,3.4s1.9,1.7,2.4,2.8c1.4,2.8-1.2,5.8-2.9,8.4c-1.2,1.8-2,4.2-0.8,6
	c1.6,2.3,5.4,1.7,7.2,3.8c2,2.4,0.1,6-1.8,8.4c-3.4,4.4-7.8,9.3-8.9,14.8c-0.2,1-0.3,2-0.7,3c-0.5,1.3-1.4,2.3-2.3,3.4
	c-5.6,6.6-11.7,12.9-15,20.9c-0.4,0.9-0.7,1.9-1.4,2.7c-2.5,2.8-7.4,1-10.7,2.8c-2.6,1.4-3.6,4.6-4,7.5c-0.6,4.4-0.4,8.9,1.2,13
	c0.8,2,1.9,3.9,3.5,5.2s4,1.9,6,1.2c2-0.7,4.2-2.8,6-1.5c0.5,0.3,0.8,0.8,1.1,1.3c2.7,4.2,6.3,7.9,10.5,10.7
	c1.6,1.1,3.4,2.1,4.9,3.4c2.2,1.8,3.9,4.2,5.5,6.5c2.5,3.4,4.9,6.9,7.4,10.3c0.9,1.2,1.8,2.5,3.1,3.2c1.3,0.7,2.7,0.8,4.2,0.9
	c3.7,0.3,7.6,0.5,11.1-0.7c1.3-0.5,2.5-1.1,3.7-1.6c2.3-1,5.7-2.7,7.8-1.4c1,0.6,2.8,4.5,5.4,6.2c2.8,1.8,7.3,4.4,9.7,6.8
	c1.6,1.6-0.1,4.3,1.7,5.6c0.8,0.5,3,0.9,3.9,1c2.9,0.3,4.1-0.2,7,0.1c1.7,0.2,2.9-0.8,4.6-1.3c1.5-0.5,4.2-0.2,5.6-0.9
	c2.8-1.2,4.3-1.1,6.8-2.9c0.8-0.5,2.3-1.1,3-1.7c1.7-1.4,4.5-1.8,6.6-2.4c7.3-2.1,13.7-4.1,17.8-10.6c0.8-1.3,2.2-4.4,2.8-5.8
	c4.7-10.2,14.5-16.9,24.4-22.2c0.5-0.3,1.1-0.6,1.7-0.6c0.8,0,1.4,0.5,2,1.1c2.2,2.3,1.7,5.1,1.8,8.3c0.3,6.5-1.2,13.9-6.5,17.6
	c-1.3,0.9-2.8,1.6-3.8,2.7c-1,1.2-1.4,3.2-0.3,4.3c1.5,1.5,4.7,0.5,5.7,2.4c0.4,0.6,0.4,1.5,1,1.9c1.2,0.8,2.2-1.2,3.3-2.1
	c1.3-1,3.3-0.4,4.6,0.6s2.7,2.2,4.4,2.3"/>
<path fill="none" stroke="#E1E1E1" stroke-miterlimit="10" d="M308.9,94.7c2.9-3.7,7.4-6.1,9.5-10.3c1.4-2.8,1.5-6,2.5-8.9
	c1-3,2.8-5.7,4.6-8.3c2.1-3.1,4.2-6.2,6.4-9.2c1-1.5,2.1-3.1,2.3-4.9c0.4-2.9-1.5-5.6-3.9-7.2c-2.4-1.6-5.3-2.1-8.1-2.7
	c-1.9-0.4-3.9-0.8-5.9-0.5c-2,0.3-3.9,1.3-4.8,3c-0.7,1.3-0.6,2.8-0.9,4.3c-1.2,6.4-7.5,10.3-13.1,13.6c-2.4,1.4-4.9,3-6.1,5.5
	c-0.2,0.5-0.4,1-0.7,1.4c-0.4,0.6-1.1,1.1-1.7,1.6c-3.3,2.2-6.8,4.4-8.9,7.8c-2.1,3.4-2.3,8.3,0.7,10.9c1,0.8,2.1,1.3,3,2.1
	c2.4,2.2,2.3,5.8,3.4,8.8c0.2,0.6,0.5,1.2,1,1.6c0.5,0.4,1.3,0.6,2,0.7c1.9,0.3,3.8,0.6,5.7,0.9c1,0.2,2.1,0.3,3.1,0.2
	c2.5-0.3,4.5-2.1,6-4.1C306.3,98.9,307.4,96.6,308.9,94.7z"/>
<path fill="none" stroke="#E1E1E1" stroke-miterlimit="10" d="M-10.4,95.8c1.9-3.4,3.9-6.7,5.8-10.1c1.8-3.1,3.7-6.4,6.8-8.3
	c3.6-2.2,8.3-2.2,12.4-1.1c4.1,1.1,7.9,3.1,11.9,4.6c4.9,1.9,10.1,3,15.3,4.1c7.1,1.5,15.8-0.2,21.4,4.5c2,1.7-0.7,5.3,0.3,7.7
	c0.9,2.3,4.9,0.3,7.2-0.6c8.2-3.4,16.5-6.7,24.7-10.1c7.5-3.1,15.7-6.9,18.6-14.4c0.6-1.7,1-3.5,1.8-5.1c1.2-2.3,3.3-4,5.4-5.5
	c9.4-6.9,29-18.3,31.4-15.4c3.2,3.8-9.8,8-7.7,11.3c2.3,3.7,12.6-8.8,14.2-3.6c0.8,2.7-1.4,7.9-4.2,7.3c-7.5-1.5-20.1,3.8-18,8
	c1.1,2.2,3.9,0.2,6.1,1.3c2.2,1.2,3.8,3.7,3.1,6.1c-1.2,4-7.4,4.4-9.2,8.2c-0.9,1.8-0.5,4.1-1.4,5.9c-0.8,1.5-2.6,2.2-3.7,3.5
	c-4.8,5-9.4,11.5-13.3,17.8c-0.5,0.9-0.6,1.9-1.2,2.8c-0.6,0.9-1.5,1.6-2.4,2.2c-4.5,3.3-9,6.5-14.1,8.7c-2,0.8-4.1,1.5-5.8,2.8
	c-5.8,4.1-5.5,15.8-3.2,19.5c1.2,1.8,2.6,3.4,3.5,5.3c0.9,2,1.5,3.1,2.9,4.8c2.1,2.6,6.2,4.5,9.1,6c2.3,1.2,3.8,1.8,5.9,3.3
	c3.9,2.8,8.4,4.5,13.1,5.1c1.8,0.2,3.6,0.2,5.4,0.5c3.3,0.4,6.9,1.9,7.9,5.1c1.1,3.5-1.3,7.9,1.2,10.6c0.6,0.7,1.5,1.1,2.1,1.9
	c1.1,1.6,0.6,4.1,2.1,5.3c1.9,1.5,5.5-0.6,6.9,1.5c0.3,0.5,0.4,1.1,0.6,1.7c0.6,1.8,2.3,3,4.1,3.6c1.8,0.5,3.7,0.5,5.6,0.6
	c1,0,2.1,0.1,3.1,0.4c2.3,0.9,3.8,3.4,6.1,4.1c2.9,1,5.9-1,7.8-3.3c1.9-2.3,3.2-5.2,5.5-7.2c1.5-1.3,3.4-2.2,4.9-3.5
	c1.5-1.3,0.7-3.8,2-5.3c1.2-1.5,4.4-0.6,5.6,0.8c0.3,0.4-0.3,1.1-0.1,1.7c1.1,3.4-0.1,7.9,2.2,10.6c2.3,2.6,7,0.3,9.9,2.1
	c1,0.6,1.7,1.6,2.7,2.1c1.1,0.5,2.6,0.4,3.6,1.1c0.8,0.5,1.3,1.5,2.2,2c0.9,0.5,2,0.4,3,0.5c3.8,0.6,5.6,4.9,6.3,8.6
	c0.7,3.7,1.2,8,4.2,10.3c3.5,2.7,8.4,1.5,12.7,0.8c4.2-0.7,8.5-0.9,12.7-0.1c1,0.2,2,0.4,3,0.2c1.5-0.3,2.7-1.6,4.2-1.6
	c1.9,0,3.2,1.9,5,2.5c0.6,0.2,1.2,0.3,1.7,0.5c1,0.5,1.4,1.8,1.5,2.9c0.3,4.5-3.6,8.4-3.7,12.8c0,1.2,0.2,2.5,0.2,3.7
	c0.1,2.8-1.1,5.6-3.1,7.5c-4.6,4.3-3.5,12.1-3.2,18.3c0,0.8,0.1,1.6,0.6,2.3c0.4,0.6,1.1,0.9,1.7,1.2c3.4,1.4,7.5,0.6,10.2-1.9
	c2.1-2,3.3-4.8,4.8-7.3c2.1-3.5,5.1-6.6,8.5-8.8c2.4-1.5,5.1-2.8,6.7-5.2c1-1.5,1.4-3.2,1.7-5c0.8-5.2,0.4-10.6-1.1-15.6
	c-1.1-3.6-2.8-7.3-2.5-11.1c0.3-3.8,3.9-7.7,7.5-6.5c2.5,0.8,4,3.7,6.6,4.3c1.1,0.2,2.2,0,3.4,0c6.3,0,11,6.5,17.3,7.1
	c2.4,0.2,4.8-0.5,7.1-1.4c4.9-1.9,9.6-4.4,14.2-7c3.5-1.9,7-3.8,10.5-5.7c2.1-1.2,4.4-2.4,5.8-4.4c0.9-1.3,1.5-2.9,2.6-4
	c1.7-1.8,4.7-2.4,5.9-4.6"/>
<path fill="none" stroke="#E1E1E1" stroke-miterlimit="10" d="M-13.4,276.9c1.1,1.4,3.2,0.8,4.9,0.3c2.5-0.6,5.2-0.6,7.8-1
	s5.2-1.6,6.5-3.9c2-3.6-0.2-8.1,0.2-12.2c0.3-3.3,2.3-7.2,0.1-9.7c-1-1.1-2.4-1.5-3.8-1.9c-3.5-1.1-7.3-3.1-8.2-6.6
	c-1.1-4,2-8,2.6-12.1c0.6-4.7-1.9-9.1-4.2-13.2c-0.4-0.6-0.7-1.3-0.8-2c-0.1-0.8,0.1-1.6,0.2-2.4c1-4.3,1.9-8.8,1.4-13.2
	s-2.7-8.9-6.6-11"/>
<path fill="none" stroke="#E1E1E1" stroke-miterlimit="10" d="M-13.3,350.9c2-0.4,3.8,1.2,5.5,2.3c3.4,2.1,7.6,2.5,11.6,2.3
	c3.2-0.2,6.8-1.2,8.2-4.1c1.1-2.3,0.4-5-0.3-7.5c-0.7-2.5-1.4-5-2.1-7.6C8.3,331.5,6.4,326,1.7,324c-2-0.9-4.3-0.9-6.3-1.6
	c-3-1-5.5-3.3-6.7-6.2"/>
<path fill="none" stroke="#E1E1E1" stroke-miterlimit="10" d="M56.3,370.2c2.4-1.1,2.1-4.9,0.2-6.7c-1.8-1.9-4.5-2.6-6.8-3.8
	c-5.1-2.7-12.3-9.1-9-13.7c0.8-1.1,2.5,0.7,3.5,1.6c1,0.9,2.6,1.7,3.6,0.8c0.5-0.4,0.7-1,0.8-1.6c2.4-8.6,4.8-17.3,7.2-25.9
	c0.3-0.9,0.5-1.9,0.4-2.8c-0.1-1-0.7-1.9-1.3-2.8c-2-2.9-4.3-5.6-6.9-8c-2.1-2.1-5.2-4.1-7.8-2.6c-1.2,0.6-2.3,1.9-3.5,1.4
	c-0.6-0.3-1-1-1.6-1.3c-0.8-0.4-1.6,0-2.5-0.1c-1.4-0.1-2.4-1.4-2.7-2.7c-0.3-1.3,1.1-3,0.2-4.1c-0.7-0.9-1.8-1.4-1.6-2.5
	c0.2-1.1,0.8-2.1,1.1-3.2c0.6-2.4-0.9-4.9-0.5-7.3c0.6-3.2,4-4.8,6.3-7c1-0.9,1.7-2,2.7-2.9c2.1-1.9,5.5-0.9,7.9-2.4
	c6.1-3.6-1-13.9-4.7-19.9c-2.9-4.7-5.7-9.4-8.6-14c-3.7-6.1-7.6-12.4-13.2-16.9c-3.7-3-8.4-5.5-9.7-10c-1.2-3.9,0.6-8.3-0.5-12.3
	c-0.7-2.6-2.6-4.7-3.7-7.2c-1.6-3.6-1.6-7.7-1.6-11.7c0-8.2-0.5-16.4-1.3-24.5c-0.2-1.7-0.4-3.4-1-5c-0.8-2-2.3-3.6-4-4.9
	c-1-0.8-0.3-2.7,0.8-3.3c1.2-0.6,2.6-0.5,3.8-0.2s2.6,0.7,3.9,0.4c2.2-0.4,3.7-2.9,3.1-5.1c-1.2-4.1,0.8-9.3,2.2-13.4
	c0.3-0.8,0.6-1.6,1.2-2.3c1.1-1.2,2.9-1.5,4.5-1.9c3.1-0.9,5.8-2.9,7.7-5.5c1-1.5,2.1-3.4,4-3.5c1.7,0,2.8,1.5,3.8,2.9
	c3.9,5.8,8.7,11,13.4,16.1c1,1.1,2.1,2.2,3.4,2.9c1.6,0.8,3.9,1,4.6,2.7c0.4,0.8,0.3,1.8,0.4,2.7c0.5,3.7,4.5,5.8,6.3,9
	c1,1.7,1.3,3.8,1.8,5.7c0.7,2.8,1.7,5.6,2.9,8.3c0.7,1.5,1.6,3,3,3.7c2.4,1.3,5.2,0.2,7.9-0.1c5.7-0.7,11.1,2.5,16.2,5.4
	c25.5,14.5,29.3,9.8,31.9,12.1c3.5,3.2-1.3,5,8.3,17.8c1.2,1.6,2.6,3,4.3,4c2.1,1.1,5,1.5,6.2,3.6c0.6,1,0.7,2.1,1.2,3.1
	c0.6,1.3,1.9,2.2,3.3,2.5c2,0.4,4.4-0.5,6.1,0.7c0.6,0.5,1.1,1.2,1.6,1.8c2,2.4,5.5,3.4,7.1,6.2c1.6,2.9,0.6,6.7,2.1,9.6
	c1,1.8,2.8,3,4.5,4.1c2.8,1.8,5.5,3.5,8.3,5.3c2.5,1.6,5,3.2,7.9,3.3c2.4,0.1,4.8-0.7,7.2-0.7c1.2,0,2.3,0.2,3.5,0.4
	c4.7,0.7,9.4,1.5,14.2,2.2c4.9,0.8,8.6,4.5,13.3,6c1,0.3,2.1,0.6,2.8,1.4c1.2,1.1,1.5,3,2,4.5c1.3,3.7,4.6,6.4,5.9,10
	c1.8,5.3-1,11.2,0,16.8c0.2,1.1,0.6,2.3,1.4,3.1c0.6,0.6,1.3,0.9,2.1,1.3c2.8,1.4,5.6,2.7,8.4,4.1c3,1.4,6.2,3.1,7.3,6.2
	c0.3,0.8,0.4,1.7,0.7,2.5c1,2.9,4,4.7,7,5.6c3,0.9,6.4,0.6,9,2.4c1.5,1,2,3,2,4.8c0,2.1-0.9,4-1.1,6.1c-0.2,2.3,0,5.6,2.2,6.4
	c4.1,1.5,7.6-5,8.7-9.2c1.1-4.2,1.5-8.9,4.4-12.2c1.2-1.4,2.7-2.4,4-3.8c4.8-5,4.9-12.9,8-19.1c1.8-3.6,4.7-6.5,7.4-9.4
	c1.8-1.9,3.7-3.8,5.5-5.8c1-1.1,2.1-2.1,3.1-3.2c1.9-2,3.9-4,5.8-6c3.1-3.2,6.2-6.4,9.2-9.6c2.9-3,6-6.1,9.9-7.5c2.8-1,6-1,8.7-2.2
	c4.6-2.1,7.3-7.5,12.1-9c4.3-1.4,10,0.4,13-3.1"/>
<path fill="none" stroke="#E1E1E1" stroke-miterlimit="10" d="M77,371.3c0.4-6,0.7-12.1,1.1-18.1c0.1-1.5,0.1-3.1-0.7-4.3
	c-0.6-0.9-1.6-1.4-2.3-2.2c-1.4-1.6-1.6-4-0.9-6s1.9-3.8,3.2-5.4c0.4-0.6,0.9-1.2,1.5-1.6c0.7-0.4,1.5-0.5,2.1-0.9
	c3.2-1.6,2.7-6.3,4.3-9.5c0.8-1.5,2-2.6,2.9-4.1c1.8-3.1,1.5-6.9,1-10.4c-1-6.9-2.4-13.6-3.8-20.4c-0.5-2.6-1.2-5.3-3-7.2
	c-3.3-3.4-9.8-3.3-11.4-7.8c-0.3-0.9-0.4-1.9-0.5-2.8c-0.5-5.2-2.2-10.3-4.9-14.8c-3.4-5.6-7.9-10.9-10-17.1
	c-2-5.9-0.6-12.7-3.4-18.3c-1.5-3.1-4.1-5.4-6.4-8c-5.1-6-8.3-13.4-11.3-20.6c-1.1-2.7-3.4-6.4-1.3-8.4c1.9-1.8,4.6,1.7,6.8,3.1
	c4.3,2.9,10.5,2.3,14.4,5.7c1.5,1.3,2.6,3.1,4.5,3.6c1.6,0.4,3.3-0.2,4.8-0.8c5.1-2.1,10.2-4.2,15.2-6.3c1.3-0.5,2.8-1,4-0.3
	c0.7,0.5,1.2,1.4,2.1,1.4c0.9,0.1,1.5-0.7,2.3-1.1c1.6-0.6,3.1,0.7,4.6,1.5c2.3,1.4,5.5-0.2,7.8,1.3c1.5,0.9,1.6,3.3,3.2,4.1
	c1,0.5,2,0.7,2.9,1.3c2.2,1.6,2.2,4.9,3.8,7.1c1.8,2.5,5.5,3.1,7.4,5.6c1.2,1.5,1.5,3.4,2.6,5c1.8,2.7,5.2,3.7,8.3,4.6
	c2.1,0.6,5,0,6.3,1.8c1.6,2,0.5,5,1.1,7.5c0.4,1.5,1,3.3,2.3,4.1c4.9,2.8,5.2-1.6,8.1-0.6c2.4,0.9-3.6,10.4-2.5,14.6
	c0.3,1.1,1.2,1.9,2.1,2.5c4.1,2.6,5.6,3.9,8.3,7.5c2.5,3.4,8.1,4,12.3,4.4c0.7,0.1,1.4,0.1,1.9,0.6c0.6,0.5,0.7,1.3,1.2,2
	c0.8,1.1,2.3,1.3,3.6,1.5c4.9,0.6,9.6,1.9,14.2,3.8c1,0.4,2.1,1,2.6,2c0.5,1,0.2,2.3,0.4,3.4c0.8,3.1,5.2,3.4,7.2,5.8
	c2.1,2.5,0.6,7.8,2.2,10.7c2.7,4.7,2.7,8.3,3.1,14.1c0.3,3.8,6.7,4.4,9.2,7.4c1.4,1.7,2.4,3.8,4.3,5c2.6,1.7,6.3,1,8.8,2.7
	c3.9,2.7,2.7,8.8,4.9,13c2.3,4.4,7.9,5.9,12.9,6.5c1.3,0.2,2.7,0.3,3.9,0.9c1.1,0.5,2,1.2,2.9,1.9c2.6,2.2,4.8,4.8,7,7.4
	c2.4,2.8,4.9,5.7,7.3,8.5c0.6,0.7,1.1,1.3,1.5,2.1c0.3,0.7,0.4,1.4,0.6,2.2c0.4,2.4-0.3,5.4,1.3,7.3c4.2,4.8,13.4-2.3,14.7-8.5
	c2.2-10.7,8.2-19.4,12.6-29.4c1.3-3,2.6-6,3.6-9.2c1.3-4.3,1.8-8.9,4-12.8c4.2-7.5,13.7-11.3,16.9-19.3c1.1-2.8,1.3-5.9,3-8.4
	c0.9-1.4,2.2-2.5,3-4c0.6-1.1,0.9-2.3,1.5-3.4c2.5-4.4,9.3-5.1,11.6-9.6c0.8-1.6,1-3.6,2.1-5c0.7-1,1.8-1.6,2.9-2.2
	c4.7-2.6,9.6-4.9,14.6-6.9c2.5-1,5.2-2,7.3-3.6c3.2-2.5,6-6.8,10.1-6.2"/>
<path fill="none" stroke="#E1E1E1" stroke-miterlimit="10" d="M373.6,277.6c-3.2,2.3-7,3.8-10.9,4.2c-0.9,0.1-1.8,0.2-2.6,0.6
	c-1.2,0.7-1.8,2-2.7,3c-0.9,0.9-2.3,1.7-2.2,3c0,1.1,1,1.8,1.5,2.8c0.4,0.8,0.3,1.7,0.3,2.6c-0.2,4.9-0.5,9.7-0.7,14.6
	c-0.2,3.8-0.4,7.6-1.7,11.1c-1,2.6-2.5,4.9-4.1,7.3c-2.1,3.2-4.2,6.4-6.3,9.5c-1.4,2.1-2.8,4.2-4.7,5.8c-3.4,2.9-8.1,4-12.6,4.3
	c-1,0.1-2,0.1-2.9,0.5c-2,0.8-3.1,3.1-4.1,5c-3.6,7.3-8.5,14.1-14.4,19.7"/>
<path fill="none" stroke="#E1E1E1" stroke-miterlimit="10" d="M145.5,372.4c-0.9-1.3-0.7-3.3,0.6-4.3s2.9,0.7,4.4,0.1
	c1.7-0.6,1.8-3.1,3.4-3.6c1.7-0.6,3.5-0.6,5.2-0.9c1.7-0.3,3.3-1,4.9-1.7c3.7-1.8,7.3-4.3,9.1-8c2.5-5.1,1.2-11.1-0.1-16.7
	c-1-4.3-4.5-8.7-3.1-13c0.3-1,1.9,0.5,2.4,1.4c2.8,5,7.9,8.4,12.9,11.2c4.5,2.5,9.4,4.8,12.7,8.8c1.8,2.2,3,4.8,4.2,7.4
	c1.2,2.6,2.4,5.1,3.4,7.8c1.3,3.2,2.3,6.6,3.1,9.9c0.1,0.2,0.2,0.5,0.4,0.5c0.2,0,0.2-0.5,0-0.4"/>
<path fill="none" stroke="#E1E1E1" stroke-miterlimit="10" d="M104,352.8c0.4,0.6,0.9,1.2,1.5,1.5c1.2,0.7,2.9,0.2,4-0.7
	s1.9-2.2,2.8-3.3c1.2-1.4,2.6-2.6,3.9-3.8c1.5-1.4,3-3,3.6-5s0.2-4.4-1.4-5.6c-0.8-0.6-1.9-0.9-2.9-0.9c-1.9-0.1-3.9,0.6-5.3,1.9
	c-1.8,1.5-2.8,3.7-4.3,5.5c-1.7,1.9-4.2,3.6-4,6.1C101.8,350.2,103,351.6,104,352.8z"/>
<path fill="none" stroke="#E1E1E1" stroke-miterlimit="10" d="M99.1,345.5c-0.9-0.6-2.2-0.2-2.7,0.7c-0.6,0.9-0.5,2.1-0.1,3
	s0.9,2.5,1.9,2.5c1.3,0,1.4-2.3,1.6-3.6C100,347.2,99.9,346.1,99.1,345.5z"/>
<path fill="#EAEAEA" stroke="#D6D6D6" stroke-miterlimit="10" d="M197.6,42c-0.6-0.1-1.1,0.5-1.2,1.1c-0.1,0.6-0.3,1.3,0,1.8
	c0.4,0.7,1.7,0.1,2.1-0.6c0.4-0.7,0.2-1.7-0.4-2.1C197.9,42.1,197.7,42,197.6,42z"/>
<path fill="#EAEAEA" stroke="#D6D6D6" stroke-miterlimit="10" d="M239,93.1c0.6-0.2,0.6-1.1,0.5-1.7c-0.3-0.9-0.7-1.8-1.5-2.2
	c-0.7-0.4-1.6-0.3-2.2,0.2c-0.6,0.5-0.8,1.5-0.3,2.1c0.5,0.7,1.5,0.7,2.2,1.1C238.1,92.8,238.5,93.2,239,93.1z"/>
<path fill="none" stroke="#4E9BD7" stroke-miterlimit="10" d="M189.9,186.3c0.3,0.5,0.9,1.1,1.5,1.5c2.8,1.5,3.5,5.2,3.6,8.3
	c0.1,3.2,0.1,5.5,1.9,8.1c0.7,0.9,1.5,2.6,2.2,3.6c0.5,0.7,0.6,1.8,1.3,2.3c0.5,0.3,1.2,0.4,1.8,0.6c3.1,0.9,5.1,4.5,4.2,7.6"/>
<path fill="#EAEAEA" stroke="#D6D6D6" stroke-miterlimit="10" d="M175.3,160.2c-0.3,0.2-0.6,0.4-0.8,0.7c-0.2,0.4,0.1,1,0.5,1.2
	c0.4,0.3,0.9,0.3,1.4,0.3c1,0,2.1-0.3,2.9-1c0.8-0.7,1.6-2,1-2.8c-0.5-0.7-1.8-0.3-2.6,0.1S176,159.7,175.3,160.2z"/>
<path fill="#7BBCEB" stroke="#4E9BD7" stroke-miterlimit="10" d="M172.5,170.6c4.4-1.5,7.9-5.1,12.4-6.5c1.8-0.6,4.1-0.7,5.3,0.7
	c0.7,0.8,1,2,1.1,3.1c0.6,4.5-0.5,9-0.7,13.6c-0.2,3.8-1,8.2-5,9.7c-1.2,0.4-2.5,0.7-3.8,0.7c-5.3-0.1-9.4,2.6-9.8,0.6
	c-0.3-1.6,1-2.1,0.5-3.7c-0.5-1.5-2-2.6-3.6-2.7s-2.9,1.4-4.5,1.4c-1.3,0-0.8-2.4-0.1-3.4c0.7-1.1,1.7-1.9,2.1-3.1
	c0.7-2.2-0.8-4.7,0.1-6.8C167.4,171.8,170.2,171.4,172.5,170.6z"/>
<path fill="none" stroke="#D6D6D6" stroke-miterlimit="10" d="M32,125.4c-1.8,5.5,0.4,11.4,0.3,17.2c-0.1,2.7-1.3,6.2-1.7,8.9
	c-1.9,11.4-0.3,22.4,3.3,33.4c0.4,1.1,0.8,2.3,1.7,3.1c0.8,0.7,2.2,2.3,3.2,2.7c8.4,3.7,9.3,11.3,15.2,18.3c0.6,0.7,2.9,1.9,3.8,2.2
	c2.2,0.9,4.3,2.2,6.7,1.8c1-0.2,1.9-0.6,2.9-0.8c2-0.5,4.1-0.1,6.2,0.3c3.2,0.6,7.1,1.8,7.7,5c0.5,2.5-1.3,4.8-2.9,6.8
	c-0.4,0.5-0.7,1-0.8,1.5c-0.2,1.2,0.8,2.3,1.7,3.1c1.1,1,2.3,2,3.7,2.6c1.1,0.5,2.4,0.6,3.4,1.2c1,0.6,1.8,2,1.2,3.1
	c-0.6,1-2,1-3.1,1c-1.1,0-0.8,1.8,0.1,2.5c0.8,0.7,2,1.4,1.9,2.4c-0.1,0.6-0.7,1.1-0.8,1.7c-0.2,1,0.7,1.8,1.4,2.6s0.4,1.7,0.1,2.6
	c-0.3,0.9,1.6,0.5,2.5,0.4c0.9-0.1,1.1,0.7,1.6,1.4c1,1.3,3-2.6,4.4-1.9c1,0.5-0.5,2.6,0.3,3.4c1.7,1.8,5.2,0.7,7.5-0.3
	c3.4-1.5-1.7-7.3,0.2-10.5c0.6-1.1,6.9,2.1,9.9,3.9c2.5,1.5,4.5,3.6,5.6,6.3c0.7,1.5,1,3.3,0.5,4.9s-2,2.9-3.7,2.8
	c-0.6,0-1.3-0.3-1.9-0.3c-2.3,0-1.7,4.2-3.8,5.1c-1.9,0.8-3.8,0.9-4.7,2.7c-0.9,1.9-1.8,4.2-3.8,4.5c-0.5,0.1-1,0-1.5,0.2
	c-0.4,0.2-0.7,0.6-0.9,0.9c-1.2,1.9-2.5,3.8-3,6c-0.8,3.2,0.1,6.6,1.2,9.7c1.1,3.2,2.5,6.3,4.5,9.1c2.1,2.9,4.7,5.4,7.4,7.9
	c1.9,1.8,3.8,3.5,6,4.9c3.8,2.3,8.3,3.1,12.7,3.7c7.1,0.9,14.3,1.1,21.5,0.6c0.6,0,1.2-0.1,1.6-0.4c0.3-0.3,0.5-0.7,0.7-1.1
	c2.4-5,4-14.6,5.9-15.4c2.4-1,8.7,7.6,9.6,13c1.7,9.3,3.6,19.3,10.5,25.9c3.5,3.3,5.1,8.2,5.6,12.9c0.6,4.8,0.2,9.6,0.3,14.4
	c0.1,2.5,0.3,5.2,1.9,7.1c0.3,0.3,0.1-0.5-0.3-0.5"/>
<path fill="none" stroke="#D6D6D6" stroke-miterlimit="10" d="M165.8,305.4c1-4.4,2.2-8.6,4.3-12.7c0.3-0.6,0.6-1.2,1.1-1.6
	c1.8-1.5,4.6-0.1,6.9-0.7c1.1-0.3,2-1,2.8-1.7c1.1-1,2.1-2,3-3.1"/>
<path fill="#EAEAEA" stroke="#D6D6D6" stroke-miterlimit="10" d="M343.3,193.4c0.4-0.3,0.2-1-0.2-1.3c-1.4-1.3-3.8-1.9-5.2-0.7
	c-0.5,0.4-0.1,1.4,0.5,1.8c0.6,0.4,1.3,0.4,2,0.3c0.8,0,1.6,0,2.4-0.1C343,193.5,343.2,193.5,343.3,193.4z"/>
<path fill="none" stroke="#585858" stroke-miterlimit="10" stroke-dasharray="4,1" d="M371,122c-3.5,5-7.8,10.7-12,15.8
	c-0.4,0.5-0.9,1.1-1.6,1.2c-0.6,0.1-1.2-0.2-1.7-0.3c-3.2-0.8-6.2,2.2-7.6,5.2s-2.4,6.5-5.2,8.4c-1.8,1.3-4.2,1.6-5.7,3.2
	c-1.1,1.1-1.5,2.6-2.1,4c-3.7,8.6-12.9,13.7-22.1,15.7c-2.9,0.6-6.1,1.2-7.6,3.7c-0.6,1-0.8,2.1-1.2,3.2c-3,8.1-15.9,10.3-19.3,18.2
	c-3.1,7.2,0.8,15.9-6.6,21.4c-1.2,0.9-2.1,2.5-1.8,3.9c0.4,2.3,4.1,2.8,4.6,5.1c0.3,1.6-1.1,2.9-2.3,3.9c-6.2,5-10.9,12.5-18.5,15
	c-5.4,1.8-12.2,0.5-16.7,4c-1.1,0.9-1.9,2.5-3.3,2.7c-4.1,0.6-8.2,2.4-12,4.4c-2.3,1.2-2.9-5.4-5.1-4c-2.5,1.6-1.3,7.9-4.2,8.6
	c-3.8,1-7.5-8.4-9.3-4.9c-2.8,5.4-1.2,20.8-4.4,31.3c-0.2,0.8,0.5,2.5,0,3.2c-0.6,0.8-2.2,0.7-3.1,0.9c-4.6,1.1-7.2,5.7-9.6,4.8
	c-2.6-1,0.2-8.2-2.6-7.8c-2.1,0.3-3.2,7.2-6.5,8.6c-2.9,1.2-5.4,1.6-8.2,0.2c-2.9-1.5-5.4-5.2-8.5-4c-1.5,0.6-2.3,2.2-2.8,3.7
	c-1.3,3.8-1.7,8-1.2,12c0.3,2.6,0.8,5.8-1.2,7.4c-2.5,2-5.9-0.1-8.8-1.4c-7.7-3.4-16.5-0.2-24.9-0.6c-2.2-0.1-4.4-0.5-6.5,0
	c-2.2,0.4-4.1,1.6-6,2.8c-8.5,5.3-18.2,11.1-21.1,20.7c-2.1,7-3.6,5.7-6.1,8c-2.5,2.3-2.3,14.5-5.4,15.1c-1.8,0.3-2.5-4.2-4.2-3.5
	c-3.4,1.4-3.9,6.2-6.5,8.9"/>
<path fill="none" stroke="#585858" stroke-miterlimit="10" stroke-dasharray="4,1" d="M322.7,370.3c-0.5,0.4-0.8-0.6-0.5-1.2
	c0.7-1.5,1.3-3,2-4.5c0.4-1,0.9-2.1,1.8-2.7c0.9-0.6,1.8,0.2,2.9,0.3c2,0.3,0.4-3.9-1-5.4c-1.4-1.4-4.9-3.4-3.5-4.9
	c2.1-2.2,5.9-1.7,7.3-4.4c0.6-1.2,0.9-2.4,1.1-3.7c0.5-2.8-1.2-7,1.2-8.4c2-1.1,4.5-0.1,6.5-1.3c2.8-1.7,5.4-3.6,7.3-6.2
	c3.5-4.9,4.1-12,9.2-15.3c0.9-0.6,1.9-1,2.7-1.8c0.7-0.7,1.1-1.6,1.8-2.3c2.8-3.4,8-3,12.3-2.4"/>
<text transform="matrix(1 0 0 1 263.1186 73.1265)"><tspan x="0" y="0" fill="#585858" font-family="'Verdana-Italic'" font-size="8">Moraine</tspan><tspan x="-5.1" y="9.6" fill="#585858" font-family="'Verdana-Italic'" font-size="8">Mountain</tspan></text>
<text transform="matrix(1 0 0 1 195.5996 171.0596)"><tspan x="0" y="0" fill="#7BBCEB" font-family="'Verdana-Italic'" font-size="8">Givens</tspan><tspan x="0" y="9.6" fill="#7BBCEB" font-family="'Verdana-Italic'" font-size="8">Lake</tspan></text>
<text transform="matrix(1 0 0 1 133.799 244.0264)"><tspan x="0" y="0" fill="#585858" font-family="'Verdana-Italic'" font-size="8">Givens</tspan><tspan x="0" y="9.6" fill="#585858" font-family="'Verdana-Italic'" font-size="8">Meadow</tspan></text>
<text transform="matrix(1 0 0 1 297.3661 78.3597)" fill="#585858" font-family="'Verdana-Italic'" font-size="8">× 9776</text>
<path fill="none" d="M270,115.5c1,1.2,2.5,1.9,3.9,2.5c2.4,1.1,4.9,2.2,7.3,3.3c3.2,1.4,6.4,2.9,9.9,3.4c5.9,0.8,11.9-1.2,16.8-4.5"
	/>
<text transform="matrix(0.911 0.4124 -0.4124 0.911 276.4631 122.0362)"><tspan x="0" y="0" fill="#7D7D7D" font-family="'Verdana-Italic'" font-size="7">9</tspan><tspan x="4.5" y="0" fill="#7D7D7D" font-family="'Verdana-Italic'" font-size="7" rotate="-1">4</tspan><tspan x="9.2" y="0" fill="#7D7D7D" font-family="'Verdana-Italic'" font-size="7" rotate="-7.3">0</tspan><tspan x="14.2" y="-0.7" fill="#7D7D7D" font-family="'Verdana-Italic'" font-size="7" rotate="-19.4">0</tspan></text>
<path fill="none" d="M33.9,42.6c2.5,0.2,4.7,1.4,6.9,2.6c4.2,2.3,8.1,5.2,12.6,7c2,0.8,6.5,1.1,8.5,2.1"/>
<text transform="matrix(0.8608 0.5089 -0.5089 0.8608 39.2116 47.2525)"><tspan x="0" y="0" fill="#7D7D7D" font-family="'Verdana-Italic'" font-size="7">9</tspan><tspan x="4.4" y="0" fill="#7D7D7D" font-family="'Verdana-Italic'" font-size="7" rotate="0.7">2</tspan><tspan x="9" y="0.1" fill="#7D7D7D" font-family="'Verdana-Italic'" font-size="7" rotate="-2.9">0</tspan><tspan x="14.1" y="-0.1" fill="#7D7D7D" font-family="'Verdana-Italic'" font-size="7" rotate="-15">0</tspan></text>
<path fill="none" d="M98,157.8c2.1,2.6,6.2,4.5,9.1,6c2.3,1.2,3.8,1.8,5.9,3.3c3.9,2.8,8.4,4.5,13.1,5.1"/>
<text transform="matrix(0.8871 0.4615 -0.4615 0.8871 102.4767 164.2867)"><tspan x="0" y="0" fill="#7D7D7D" font-family="'Verdana-Italic'" font-size="7">8</tspan><tspan x="4.5" y="0" fill="#7D7D7D" font-family="'Verdana-Italic'" font-size="7" rotate="-0.4">8</tspan><tspan x="8.6" y="0" fill="#7D7D7D" font-family="'Verdana-Italic'" font-size="7" rotate="7.4">0</tspan><tspan x="13.4" y="0.6" fill="#7D7D7D" font-family="'Verdana-Italic'" font-size="7" rotate="-1.7">0</tspan></text>
<path fill="none" d="M297.6,322.4c1.3-4.3,1.8-8.9,4-12.8c4.2-7.5,13.7-11.3,16.9-19.3"/>
<text transform="matrix(0.6002 -0.7998 0.7998 0.6002 303.7385 310.8379)"><tspan x="0" y="0" fill="#7D7D7D" font-family="'Verdana-Italic'" font-size="7">8</tspan><tspan x="4.1" y="0" fill="#7D7D7D" font-family="'Verdana-Italic'" font-size="7" rotate="8.9">4</tspan><tspan x="8.3" y="0.7" fill="#7D7D7D" font-family="'Verdana-Italic'" font-size="7" rotate="12.1">0</tspan><tspan x="12.7" y="1.7" fill="#7D7D7D" font-family="'Verdana-Italic'" font-size="7" rotate="10.2">0</tspan></text>
<path fill="none" d="M48.7,346.7c2.4-8.6,4.8-17.3,7.2-25.9"/>
<text transform="matrix(0.2683 -0.9633 0.9633 0.2683 52.4704 342.6631)"><tspan x="0" y="0" fill="#7D7D7D" font-family="'Verdana-Italic'" font-size="7">8</tspan><tspan x="4.4" y="0" fill="#7D7D7D" font-family="'Verdana-Italic'" font-size="7">6</tspan><tspan x="8.9" y="0" fill="#7D7D7D" font-family="'Verdana-Italic'" font-size="7">0</tspan><tspan x="13.4" y="0" fill="#7D7D7D" font-family="'Verdana-Italic'" font-size="7">0</tspan></text>
<path fill="none" d="M198.1,99.1c3.3-8,9.4-14.3,15-20.9"/>
<text transform="matrix(0.5114 -0.8593 0.8593 0.5114 201.6867 97.188)"><tspan x="0" y="0" fill="#7D7D7D" font-family="'Verdana-Italic'" font-size="7">9</tspan><tspan x="4.2" y="0" fill="#7D7D7D" font-family="'Verdana-Italic'" font-size="7" rotate="4.8">0</tspan><tspan x="8.5" y="0.4" fill="#7D7D7D" font-family="'Verdana-Italic'" font-size="7" rotate="8">0</tspan><tspan x="12.9" y="1" fill="#7D7D7D" font-family="'Verdana-Italic'" font-size="7" rotate="9.7">0</tspan></text>
<g>
	<g>
		<polyline fill="none" stroke="#7D7D7D" stroke-miterlimit="10" points="85.2,341.6 85.2,348.7 275.4,348.7 275.4,341.7 		"/>
		<line fill="none" stroke="#7D7D7D" stroke-miterlimit="10" x1="180.5" y1="341.4" x2="180.5" y2="348.7"/>
		<line fill="none" stroke="#7D7D7D" stroke-miterlimit="10" x1="161.2" y1="349.2" x2="161.2" y2="343.7"/>
		<line fill="none" stroke="#7D7D7D" stroke-miterlimit="10" x1="142.4" y1="349.2" x2="142.4" y2="343.7"/>
		<line fill="none" stroke="#7D7D7D" stroke-miterlimit="10" x1="123.3" y1="349.2" x2="123.3" y2="343.5"/>
		<line fill="none" stroke="#7D7D7D" stroke-miterlimit="10" x1="104.6" y1="349.2" x2="104.6" y2="343.7"/>
	</g>
	<text transform="matrix(1 0 0 1 83.7835 339.1468)" fill="#7D7D7D" font-family="'Verdana'" font-size="8">0</text>
	<text transform="matrix(1 0 0 1 174.2946 339.1468)" fill="#7D7D7D" font-family="'Verdana'" font-size="8">0.5</text>
	<text transform="matrix(1 0 0 1 258.3415 339.1468)" fill="#7D7D7D" font-family="'Verdana'" font-size="8">1 mi</text>
</g>
</svg>
