<?xml version="1.0" encoding="utf-8"?>
<!-- Generator: Adobe Illustrator 17.1.0, SVG Export Plug-In . SVG Version: 6.00 Build 0)  -->
<!DOCTYPE svg PUBLIC "-//W3C//DTD SVG 1.1//EN" "http://www.w3.org/Graphics/SVG/1.1/DTD/svg11.dtd">
<svg version="1.1" id="Layer_1" xmlns="http://www.w3.org/2000/svg" xmlns:xlink="http://www.w3.org/1999/xlink" x="0px" y="0px"
	 viewBox="0 0 360 360" enable-background="new 0 0 360 360" xml:space="preserve">
<path fill="none" stroke="#E1E1E1" stroke-miterlimit="10" d="M160.8,247.8c-0.6,0.3-1.3,0.8-1.5,1.5c-0.1,0.5,0,1-0.1,1.5
	c-0.1,0.8-0.7,1.5-1.1,2.3c-0.9,1.6-1.3,4.2,0.1,5.3c2.3,1.8,5.6,3.3,8.5,2.8c0.9-0.2,1.2-1.4,1.7-2.3c0.6-1.2,1.3-2.4,1.5-3.8
	s0-2.8-1-3.8c-0.8-0.8-2.1-1.3-2.4-2.4c-0.2-0.7,0.1-1.6-0.3-2.2c-0.3-0.5-1-0.8-1.7-0.7c-0.6,0.1-1.2,0.4-1.8,0.7
	C162.2,247.1,161.5,247.5,160.8,247.8z"/>
<path fill="none" stroke="#E1E1E1" stroke-miterlimit="10" d="M133.3,204.7c-0.5-0.9-1.7-1.2-2.8-1.4c-1.1-0.1-2.5,0.1-2.8,1.2
	c-0.1,0.4-0.1,0.8-0.2,1.2c-0.3,0.8-1.5,1-2,1.7c-0.5,0.7-0.1,1.7,0.6,2s1.2-0.6,1.8-1.1c1.2-0.9,2.8,0.9,4.3,0.8s3.8-2,2.6-2.8
	C134.1,205.9,133.7,205.4,133.3,204.7z"/>
<path fill="none" stroke="#E1E1E1" stroke-miterlimit="10" d="M-13.3,242.6c0.9,1.1,1.7,2.3,2.8,3c0.9,0.6,1.9,0.8,2.9,1.2
	c2.9,1.1,5.2,3.5,6.3,6.4c0.3,0.7,0.5,1.5,1,2.1c0.9,1,2.3,1.2,3.6,1.4c6.1,1.3,10.7,6.2,14.9,10.8c3.6,4,8,8.1,8.9,13.4
	c1,5.6,2.2,17.2,1.3,22.9c-0.2,1.1,1.3,1.5,2.1,2.3c0.6,0.6,0.6,1.6,0.6,2.5c-0.1,2.6-1.6,5.6-0.2,7.8c1.2,1.9,2.5,3.7,2.4,5.9
	c0,1.2-0.1,2.4,0.3,3.5c0.4,1.1,1.4,2.1,2.6,2.1c1.1,0,2.1-0.9,2.6-2s0.7-2.2,1-3.3c1-2.9,3.4-5,5.4-7.3c3.2-3.7,5.6-8.1,7-12.8
	c1-3.4,0.9-8.3,4.2-9.5c0.6-0.2,1.4,0.3,2,0c5-2.8,4.9-11.9,10.3-13.7c4-1.4,8.6-2.6,12.6-1.1c0.5,0.2,1,0.5,1.6,0.4
	c0.4,0,0.7-0.3,1.1-0.5c1.6-1.2,2.6-3,4.2-4.1c1.6-1.1,3.1,0.4,5.1,0.8c4.8,1,9.5-7.2,13.7-4.6c3.7,2.3-1,9.8,2.2,12.8
	c1.9,1.8,3.8-3.1,5.4-5.1c0.3-0.3,0.6-0.7,1-0.7c0.5,0,0.9,0.4,1.1,0.9c2.2,3.6-2.8,8.8-0.5,12.3c1.1,1.7,6.1,0.7,8.1,0.4
	c1.5-0.2,3.1-1,4.3-0.1c0.3,0.2,0.6,0.6,0.9,0.8c0.7,0.5,1.6,0.4,2.5,0.4c2.9-0.2,5.7-0.6,8.6-1.2c4.7-1,9.2-2.4,14-3
	c4.2-0.5,8.4-0.4,12.5-1.1c4.1-0.7,8.3-2.4,10.8-5.8c1-1.4,1.7-2.9,2.3-4.4c2.4-5.5,4.7-11,5.7-16.9c1-5.9,1.8-13.3-2.4-17.6
	c-2.5-2.5-3.8-7.9-8-9.6c-1.3-0.5-2.5-1.1-3.6-1.9c-1.3-1-2.3-2.4-3.3-3.8c-1.9-2.7-3.8-5.6-4.1-8.9c-0.2-2.5,0.5-4.9,0.9-7.4
	c0.4-2.6,1.9-6.1-0.1-7.7c-2.1-1.7-5.4,0.3-8.1,0.4c-1.8,0.1-3.8,0.1-5.2-1c-0.8-0.6-1.3-1.4-1.9-2.1c-3-3.1-8.5-2.8-11.2-6.2
	c-2.2-2.7-2-7.1-4.9-8.9c-1.4-0.9-3.5-1-4.4-2.4c-0.4-0.6-0.5-1.3-0.6-1.9c-0.6-4.4-1.2-8.8-1-13.2c0.2-3,0.7-6,2.1-8.6
	c1.2-2.3,2.9-4.2,4.6-6.1c2.1-2.3,4.2-4.7,6.3-7c1.4-1.5,2.8-3.1,4.5-4.2c2.9-1.8,6.4-2.2,9.8-2.6c7.6-0.8,15.3-1.5,22.9-2.3
	c6.1-0.6,13.2-2.2,18.3,1.2c1.3,0.9,2.6,2.1,4.2,2.2c1,0,2-0.4,3-0.2c0.8,0.2,1.5,0.8,2.1,1.4c3.1,3,6.2,6.1,9.3,9.1
	c3.2,3.2,7.5,4.3,11.5,6.3c3.7,1.9,4.6,7,6.8,10.5c0.6,0.9,1.2,1.8,1.6,2.8c0.4,0.8,0.7,1.7,1,2.6c0.3,0.9,0.6,1.8,1,2.7
	c1,2.8,0.2,6.6,2.4,8.7c2.9,2.7,5.3,5.5,8.1,8.2c1.6,1.6,4,2.6,4.7,4.7c0.5,1.4,0.1,3.1,1.2,4.2c0.4,0.4,1,0.7,1.6,0.9
	c3.5,1.7,3.7,6.1,5.5,9.6c1.5,2.8,6.1,4.7,8.9,3.3c2.8-1.4,4.6-3.7,7.3-5.4c2.7-1.6,0.8-6.4,2.6-9.1c1.4-2,4.3-0.4,6.5-1.4
	c5.4-2.4-4.2-13.9,0.4-17.5c0.9-0.7,2.2-0.7,2.6-1.9c0.4-1.1,0.7-2.4,1.7-3c0.7-0.4,1.6-0.3,2.5-0.2c3.8,0.6,5.6,1.6,9.4,0.5
	c0.8-0.2,1.8,0.3,2.5,0.8c1.3,1,1,2.4,2.6,2.8c1.6,0.3,2.8-2.3,4.3-1.8c2,0.7,0.4,4.2,1.6,5.9c0.2,0.3,0.5,0.6,0.9,0.7
	c1,0.3,1.6-1.1,2.3-1.9c0.9-1,2.4-1,3.6-1.3s2.7-1,2.7-2.4c0-1.2-1.3-2.1-1.7-3.2c-0.2-0.6-0.1-1.2,0-1.7c0.3-3.2,0.7-6.3,1-9.5
	c0.1-0.7,0.2-1.4,0.4-2.1c0.3-0.8,0.7-1.5,1.2-2.1c6.1-9.6,8-21.3,13.4-31.3c0.8-1.4,1.6-2.7,2.1-4.2c0.5-1.3,0.8-2.8,1.2-4.1
	c0.5-1.5,1.3-2.9,1.6-4.4c0.4-1.5,0.3-3.3-0.8-4.4c-1.2-1.4-3.4-1.5-5.2-1.3c-2.7,0.3-6.2,0.8-7.4-1.6c-1.2-2.3,1-4.9,1.1-7.5
	c0-1.4-0.5-2.7-0.7-4c-0.6-3.9,1.9-8.5-0.5-11.7c-0.7-0.9-1.6-1.5-2.3-2.4c-2.4-2.8,1.6-8.1-1.1-10.6c-0.7-0.7-2-0.6-2.3-1.6
	s0-2,0.3-3c1.2-4.4,0.1-10.2-3.2-13.4c-2.5-2.4-5.5-4.1-8.5-5.8c-3.8-2.2-7.7-4.3-11.5-6.5c-5.9-3.4-12.2-7.1-15.3-13.2
	c-0.7-1.5-1.4-3.2-2.8-4c-2.4-1.3-5.5,0.6-8.1-0.2c-2-0.5-3.2-2.3-4.6-3.8c-1.4-1.4-3.4-1.2-5.4-1.6c-6.3-1.1-10.7-8-14.2-13.3
	c-0.4-0.7-0.1-1.7-0.5-2.4c-1-1.7-3.5-2-5.5-1.8c-0.5,0-1.1,0.1-1.6,0.1c-1.6-0.3-2.4-2-3.3-3.3c-0.6-0.9-1.3-1.7-2.1-2.5"/>
<path fill="none" stroke="#E1E1E1" stroke-miterlimit="10" d="M-14.9,265.7c0.7,0.4,1.6,0.5,2.4,0.5c6.5,0.4,13.4,2.2,17.3,7.4
	c1.6,2.2,2.6,4.8,3.5,7.4c1,2.9,2.1,5.9,3.1,8.8c2.1,5.9,3.6,11.3,3.6,17.5c0,1.4-0.1,2.8,0.5,4c0.6,1.2,2.2,0.9,3.3,1.6
	c4.2,2.9-0.1,10.8,3.6,14.3c0.7,0.7,1.6,1.3,2,2.2c0.4,0.8,0.4,1.7,0.6,2.5c0.8,3.2,4.1,5,7.1,6.4c0.9,0.4,1.8,0.9,2.8,1.3
	c3.2,1.6,6.5,3.1,10,3.8c0.5,0.1,1,0.2,1.4,0.1c0.9-0.2,1.5-0.9,2.1-1.6c5-6.2,9.3-12.9,12.7-20.1c0.7-1.4,1.4-2.9,2.5-4
	c1.1-1.1,3.3,0,4.3-1.3c1-1.3,0.6-3.2,2.2-3.4c1.6-0.3,3.2,0.4,4.8,0.4c5.2,0.3,9.2-5,14.4-5.2c3.4-0.2,6.7,1.9,10,1.3
	c1-0.2,2-0.6,3-0.7c1.5-0.3,2.9-0.1,4.4-0.1c5.2,0.1,10.2-1.9,15-3.8c5.3-2.1,11.5-2.2,17.2-3.2c8-1.4,16.3-0.3,24.3,0.9
	c4,0.6,8.3,1.3,11.6,3.7c2.8,2,4.7,5.8,3.3,8.9c-0.5,1.2-1.9,2.6-1.2,3.8c0.8,1.4,3.1,0.9,4.4-0.1s2.1-2.4,3.1-3.7
	c1.8-2.3,4.1-4.1,5.9-6.5c1.8-2.5,2.8-5.5,2.9-8.6c0-2.3-0.4-4.9,0.7-6.9c0.6-1.1,1.7-2,2.5-3.1c2.3-3.5,0.5-8.3,2.1-12.2
	c1.2-2.9,4.1-4.7,6.5-6.8c2.4-2.1,4.5-5.3,3.4-8.3c-0.3-0.9-1-1.7-1.5-2.6c-3.2-5.3-7.6-12.1-5.1-17.8c0.9-2.1,4.3,2.1,6.5,1.5
	c1.6-0.4-0.1-3.1,0-4.8c0-1.2-1-2.7-2-3.3s-2.3-1-3.2-1.9c-0.8-0.8-1.1-2-2.1-2.6c-1.2-0.7-2.7,0-4.1,0.2c-0.8,0.1-1.7,0-2.5-0.3
	c-2.8-1.1-4.1-4.3-5-7.2c-0.5-1.4-0.9-2.8-1.4-4.3c-0.2-0.7-0.4-1.4-0.4-2.1c0.2-2.3,1.5-4.4,3.3-5.8c1.8-1.3,4.4,0.9,6.6,0.2
	c2.7-0.8,4.9-3.4,5.2-6.2c0.1-1.3,0-2.7,1-3.6c0.3-0.3,0.8-0.5,1.1-0.8c0.3-0.4,0.5-2.2,0.5-2.7c0.2-6.8,1.5-11.4-1.2-17.5
	c-0.3-0.6-0.6-1.2-1-1.6c-0.5-0.5-1-1.4-1.5-1.8c-2-1.6-1.2-5.1,0.5-7.1c0.5-0.7,1.7,0.1,2.1,0.8c0.4,0.8,0.5,1.7,1.2,2.3
	c0.8,0.8,2.1,0.7,3.2,1c2.9,0.7,4.4,3.7,5.5,6.4c1,2.4,2,4.7,3,7.1c0.4,0.8,0.7,1.7,0.8,2.6c0.1,0.8-0.3,1.7-0.1,2.5
	c1.2,3.7,3,7,4.6,10.5c2.9,6.4,0.1,13.5,1,19.2c0.3,1.9,1.4,3.7,1.4,5.7c0,1.6-0.7,3-1.1,4.6c-0.9,3.1-1.1,6.4-1,9.7
	c0.2,5.6-1.2,11.3-2,16.8c-1,6.4-5.3,12.5-4.2,16.1c1.5,4.9,8.5-2.3,10.4-2.4c1.3-0.1-0.4,2.7,0,3.9c0.5,1.2,1.8,2.2,3.1,1.8
	c7.3-2.5,8.9-18.8,16.2-16.3c3.9,1.3,1.7,8.1,2.5,12.2c0.2,0.9,0.4,1.7,0.8,2.5c0.9,1.3,2.6,1.9,4.1,1.9c3.5,0.1,6.7-1.9,9.8-3.6
	c1.4-0.8,2.9-1.5,4.4-1.4c1.1,0.1,2,0.6,3,1.1c2.1,1,4.2,2.1,6.5,2.2c2.3,0.1,3.5-3.8,5.7-3.1c2.3,0.7,2.7,3.5,4.6,5
	c1.4,1.2,2.2,3,2.8,4.7c2.4,6.6,4.2,13.4,5.5,20.3c0.2,1.3,0.5,2.6,1,3.8c0.7,1.4,1.8,2.5,2.9,3.6c2.6,2.7,4.8,5.8,6.6,9
	c0.6,1.1,1.2,2.2,1.4,3.4c0.2,1.3-0.1,2.7-0.2,4c-0.5,4.3,0,8.8-0.1,13.1c-0.1,4.4-0.9,9-3.7,12.4c-1.8,2.2-4.3,3.8-5.4,6.5
	c-0.3,0.8-0.4,1.6-0.6,2.4"/>
<path fill="none" stroke="#E1E1E1" stroke-miterlimit="10" d="M-12.3,40c0.8-2.3,1.8-4.4,3.3-6.3c2.4-3,5.8-5.1,8.6-7.7
	c2.6-2.5,4.7-5.5,6.1-8.8C7.7,12.3,8.3,6.9,8,1.6C7.9,0.3,7.8-1,7.6-2.3"/>
<path fill="none" stroke="#E1E1E1" stroke-miterlimit="10" d="M-13.3,114.4C3.6,144.6-8,161.1-6.6,162c2.4,1.6,4-4.2,6.1-4.9
	c3.9-1.4,6.2-4.8,10-8c1.7-1.4,4-2,6-2c20,0.5,40.4-0.5,58-15c1.7-1.4,2.7-3.3,5-5c1.8-1.3,3.8-2.5,6-3c4.9-1.1,10.1-0.8,14-3
	c8.2-4.6,11.8-14.4,21-18c5.9-2.3,14.8-9.5,16-10.2c9.5-6,18-12.3,24.3-22.9c1.5-2.5,3.1-5.1,2.5-8s-2.4-5.4-4.3-7.6
	c-4-4.6-9.1-8.4-14.7-10.9c-0.9-0.4-1.9-0.8-2.6-1.5c-0.6-0.7-1-1.5-1.6-2.2c-0.7-0.9-1.8-1.4-2.8-1.8c-6.2-2.7-13.5-2.9-19.9-0.7
	c-0.9,0.3-1.8,0.7-2.8,0.6c-1.6-0.2-2.7-1.9-4.2-2.5c-2.9-1.3-6,1.3-9.2,1.6c-3.2,0.3-6-1.8-8.7-3.6c-4.1-2.8-8.5-5.2-13-7.2
	c-4.3-1.8-9.1-3.5-11.3-7.6c-0.7-1.3-1.1-2.8-1.4-4.3c-0.6-2.6-0.8-5.3-1-8c-0.2-2.9-0.2-5.8-0.2-8.7"/>
<path fill="none" stroke="#E1E1E1" stroke-miterlimit="10" d="M22.8-3.1c1,9.3-1.6,18.8-8.2,25.2c-7.6,7.4-20.3,13.4-22,24
	c-1.4,8.8-2.8,17.3-5.1,25.5"/>
<path fill="none" stroke="#E1E1E1" stroke-miterlimit="10" d="M28.2-3c0,0.4,0,0.7,0,1.1c-0.1,1.5-0.3,3.1,0.2,4.6
	C28.9,4.1,30,5.4,30,7c-0.1,1.6-1.5,2.8-2.8,3.9c-3.8,3.3-6.7,7.7-8.3,12.6c-0.4,1.2-0.8,2.6-1.8,3.3s-1.7-1-3-1
	c-2-0.1-2.4,3.1-4.2,4.1c-1.8,1-1.9,2.8-2.3,4.9c-0.3,1.4-3.1,0.7-3.8,2c-0.6,1.2,0.8,2.8,0.3,4c-2.3,5.9-0.3,12.6-4.3,17.5
	c-1.4,1.6-2.2,2.3-3.3,4.1c-0.4,0.7-2.6-0.5-2.5,0.3c2.1,11.8-3.7,19-3.6,28.7c0.1,4.6,0.8,9.3,3.1,13.3c7.5,13,6.2,27.3,9.5,30.6
	c1.4,1.4,3.7-1.5,5.6-2.1c5.3-1.6,11-1.8,16.5-2c3.6-0.1,7.1-0.2,10.7-0.3c6.8-0.2,14.5-0.8,18.7-6.2c1.7-2.2,2.5-4.8,3.9-7.2
	c3.9-6.7,11.7-10.1,18.8-13.3C90.4,98,100.4,81.7,115,82.2c3.8,0.1,7.4,0.6,10.7-1.3c5.8-3.3,12.2-7.7,12.4-14.3
	c0.1-2.8-1.5-6-4.3-6.5c-1.7-0.3-3.3,0.4-5,0.9c-4.8,1.5-10.1,1.6-15,0.3c-2.8-0.8-5.5-2-8.3-2.9c-3.5-1.1-7.3-1.7-10.4-3.8
	c-2.4-1.6-4.1-4.1-6.1-6.3C83.5,42,76,37.6,67.9,35.7c-1.4-0.3-3-0.6-4-1.6c-1.2-1.2-1.6-3-2.4-4.4c-2.2-3.6-7.2-4.5-9.7-8
	c-1.3-1.9-1.7-4.3-2-6.6C49,9.4,49.7,3.5,50.5-2.4"/>
<path fill="none" stroke="#E1E1E1" stroke-miterlimit="10" d="M81.5,75.3c0.1-5.3-0.5-10.7-2.9-15.4C78,58.4,77.1,57,76,55.9
	c-2.9-2.8-7.2-3.6-11.3-4.2c-0.7-0.1-1.6-0.2-2.1,0.4c-0.3,0.4-0.3,0.8-0.3,1.3c0.1,9.3,2.6,18.6,7.3,26.6c1.5,2.6,3.4,5.2,6.1,6.6
	c1,0.5,2.3,0.9,3.2,0.3c0.9-0.5,1.2-1.6,1.4-2.5C81.2,81.4,81.5,78.4,81.5,75.3z"/>
<path fill="none" stroke="#E1E1E1" stroke-miterlimit="10" d="M2.3,70.2C1.4,73.7,1.5,77.5,2.5,81C3,82.9,3.8,84.8,4,86.8
	c0.4,3.8-1.5,7.5-1.5,11.3c0,4.1,2.2,7.8,2.4,11.9c0.1,1.5-0.2,3,0.3,4.4s2.9,3.7,3.3,2.3c1.1-3.9,0-13.4,0.6-20.1
	c0.4-4.1,1.5-8.1,2.8-12c2.2-6.7,4.8-13.4,7.7-19.9c2.8-6.3,6-12.6,11.1-17.2c2.2-2,4.7-3.6,6.8-5.6c2.1-2,4-4.6,4.2-7.6
	c0.4-4.9-3.4-9-4.6-13.7c-1.3-5,0.3-10.2-0.2-15.3c-0.1-1-0.5-2.2-1.5-2.3c-1-0.1-1.6,1-2,1.9c-1.5,3.8-3,7.6-3.8,11.6
	c-0.3,1.4-0.5,2.7-1,4c-0.8,1.8-2.3,3.2-3.6,4.7c-1.3,1.5-2.4,3.2-3.3,4.9c-0.5,1-1,2.1-1.8,3c-0.6,0.6-1.3,1-1.9,1.5
	c-2.1,1.5-4.1,3.3-4.7,5.8C13,41.3,13,42.2,12.5,43c-0.4,0.7-1.1,1.1-1.6,1.7c-0.9,1.1-1.2,2.5-1.7,3.8c-0.5,1.3-2.4,1.4-2.9,2.7
	c-1.5,4,4,9.4,0.7,12c-1.4,1.1-1.2,2.5-2.1,4C4.2,68.5,2.7,68.8,2.3,70.2z"/>
<path fill="none" stroke="#E1E1E1" stroke-miterlimit="10" d="M94.7-2c0.5,0.7,0.8,1.3,1.1,1.8C96,0,97.9,3,97.8,4.5
	c-0.1,0.9-0.4,1.8-0.8,2.6c-1,2.3-1.8,4.8-1.8,7.3c0,2.5,0.8,5.2,2.8,6.8c0.7,0.6,1.4,1,2.1,1.5c0.9,0.7,1.6,1.6,2.5,2.2
	c0.9,0.6,1.8,0.9,2.8,1.2c7,1.7,14.1-1.5,21.3-1.5c4.6,0,9,1.4,13.4,2.7c3,0.9,6.1,1.8,9.1,2.8c1.4,0.4,2.8,0.8,4,1.7
	c3.5,2.3,4.2,7.1,7.1,10.2c1,1.1,2.3,2,3.6,2.9c2.9,2,5.9,3.9,8.8,5.9c2.3,1.5,3.9,4.2,4.3,7c0.3,1.8,0,3.9,1.3,5.3
	c0.4,0.4,0.9,0.8,1.3,1.2c1.5,1.7,0.4,4.4-0.5,6.5c-1.2,2.9-1.8,6.4-0.5,9.3c0.9,1.9,2.6,3.4,3.3,5.4c1.3,3.5-1,7.2-2.7,10.5
	c-0.3,0.6-0.3,2.5-1,2.6c-4.9,0.7-8.8-4.8-13.5-3.4c-4.7,1.3-8.7,4.6-12.3,8c-1.8,1.8-3.7,3.7-6.1,4.5c-2.2,0.8-4.7,0.6-6.9,1.2
	c-3.2,0.9-5.8,3.3-8.8,4.7c-2.9,1.3-6.1,1.8-9.1,2.8c-7.9,2.6-14.3,9.1-16.7,17c-1.3,4.3-1.5,9-2.7,13.3c-1.2,4.4-3.8,8.8-8.1,10.2
	c-2,0.7-4.1,0.7-6.1,1.3c-1.6,0.5-3,1.5-4.5,2.2c-3.2,1.6-6.8,2.4-10.3,3.2c-6.1,1.3-12.3,2.7-18.4,1.4c-1.6-0.3-3.1-0.8-4.7-0.5
	c-1.4,0.2-2.6,1-4,1.2c-3.1,0.4-5.8-2.3-8.9-2.8c-6.1-1.1-11.3,6.1-17.4,5.2c-6.5-1-12.9,3.4-17.2,8.3c-3.8,4.3-5.8,10-8.8,15
	c-1.7,2.9-3.8,8.5-6.2,10.6"/>
<path fill="none" stroke="#E1E1E1" stroke-miterlimit="10" d="M113.4-2.7c1.3,2.4,2.4,4.9,3.4,7.4c3.2,8.3,20.5,5.9,29,8.8
	c2.4,0.8,4.7,1.6,7.1,2.4c5.9,2,9,8.3,14.9,10.2c2,0.6,4.3-2.5,6.1-1.5c1.3,0.7,0.1,3.2,1.2,4.2c2.3,2.3,8-0.7,8.6-3.9
	c0.2-1.1,1.4-2.3,2.3-1.7c0.9,0.6,1.2,1.8,1.3,2.9c0.4,2.7-1.1,6.7,1.2,8.2c1.8,1.2,4.4-2.7,6.2-1.6c2.2,1.3-2.1,5.6-0.4,7.5
	c3.3,3.8,9.8-2,14.7-3c1-0.2,2.1-0.4,2.9-1c0.7-0.5,1.3-1.2,2.1-1.6c1.2-0.6,2.7-0.3,4.1,0c2.1,0.5,4.3,1,6.4,1.4
	c2.2,0.5,4.5,1,6.8,1.2c5.2,0.3,10.9-1.3,15.5,1.2c3.4,1.8,5.5,5.6,6.5,9.4c0.5,1.8,0.7,3.7,0.3,5.5c-0.4,1.8-1.6,3.5-3.4,4.2
	c-1.4,0.5-2.9,0.3-4.4,0.5c-4.5,0.8-7.1,5.5-9.4,9.4c-2.7,4.6-6.2,8.8-10.1,12.4c-1.4,1.3-2.8,2.5-3.6,4.2c-0.4,1-0.6,2.1-0.9,3.1
	c-0.6,2.4-1.9,4.5-3.6,6.3c-0.4,0.4-0.8,0.8-1,1.3c-0.2,0.6-0.1,1.2-0.1,1.8c0.7,6.4,2.5,16.2-3.4,18.8c-2.7,1.2-5.6-1.6-8.4-2.4
	c-1.1-0.3-2.1-0.6-3.1-1.2c-1.8-1.1-2.6-3.4-4.2-4.7c-2.3-1.8-8.3-5-10.9-3.7c-3.8,1.8-6.3,5.3-10.5,5.1c-4.2-0.2-8.5-1.3-12.5-0.2
	c-2.9,0.8-5.3,2.8-7.9,4.2c-6.7,3.8-14.6,4.7-21.9,7.2c-7.3,2.5-14,6.7-19.4,12.2c-1.1,1.1-2.1,2.2-2.9,3.5c-1.1,1.8-1.8,3.9-2.4,6
	c-1.4,4.6-2.9,9.3-3.5,14.1c-1.6,12.4,2.7,25.5,11.2,34.6c2.2,2.4,4.8,4.5,6.2,7.4c1.5,2.9,2.1,8.1-1,9c-3.8,1.1-7.1,2.6-9.9,5.4
	c-9.1,9-21.5,21-33.7,17.3c-10.7-3.3-16.2-15.4-24.3-23.2c-1.8-1.7-3.6-3.4-5.8-4.7c-1.9-1-3.9-1.7-6-2.2c-4.8-1.1-9.7-1.6-14.6-1.3
	c-10.1,0.5-19.9,4-29.1,8.4c-4.1,2-8.2,4.3-12.6,5.2"/>
<path fill="none" stroke="#E1E1E1" stroke-miterlimit="10" d="M182.5-2.2c-0.9,3.9-2.7,8.2,0,10.4c0.8,0.6,1.3-1.5,2.2-1.9
	c3.2-1.4,5.9,3.8,9,5.3c3.6,1.8,8.9,4.8,11.9,2.1c2.4-2.2,0.5-6.7,2.6-9.1c1.5-1.7,3.7-2.5,5.9-3.2c0.9-0.3,2.1-0.5,2.8,0.3
	c0.3,0.4,0.4,1,0.7,1.4c0.3,0.4,0.8,0.6,1.3,0.8c4.5,1.8,8.6,4.4,12.7,7c2.2,1.4,4.5,2.9,5.6,5.2c0.2,0.5,0.4,1.1,0.8,1.5
	c0.4,0.5,0.9,0.9,1.5,1.2c4.1,2.6,8.1,5.2,12.2,7.7c1.5,0.9,2.9,1.9,4.4,2.8c3.2,2,6.4,4.1,9.9,5.3c0.9,0.3,1.7,0.5,2.6,0.9
	c1.8,0.7,3.4,1.8,5.1,2.7c5.4,2.9,11.5,4.4,17.1,7c3.6,1.7,7.5,5.1,6.1,8.8c-0.3,0.7-0.7,1.3-1.1,1.9c-1.8,2.5-3.5,5-5.3,7.6
	c-1.7,2.4-3.6,4.9-6.4,5.5c-1.7,0.3-3.4-0.1-5.1-0.3c-5.5-0.5-15.5,1.6-14.2,7c0.3,1.4,3-0.1,4.1,0.7c2,1.5-3.3,4.8-2,7
	c0.3,0.5,0.8,0.8,1.2,1.2c3,2.8,2.7,7.5,5.3,10.7c5,6.2,2.9,16.7-0.9,23.8c-0.5,1-1.2,2-1.1,3.1c0,2.7,3.9,4.1,4.1,6.9
	c0.2,2.8-3.3,4.2-4.6,6.7c-1.7,3.2,0.7,6.8,1.4,10.3c0.6,2.9,0.8,7-1.8,8.6c-1.6,1-3.4-1.5-3.7-3.3c-0.2-1.4-2.2-1.9-3.4-1.4
	c-1.3,0.5-0.4,2.5-1.4,3.5c-2.7,2.6-7.2-2.2-10.9-1.7c-0.8,0.1-1.6,0.2-2.3-0.2c-0.6-0.3-0.9-0.9-1.2-1.5c-3.6-6.1-10.7-9-15.6-14.1
	c-1.5-1.5-2.9-3.3-4.6-4.6s-4.1-2-6.1-1.2c-0.9,0.4-1.7,1-2.6,1.3c-2.7,1-5.6-0.8-8-2.4c-3.2-2.2-6.4-4.2-9.8-6.1
	c-1.7-0.9-3.3-1.8-5.2-2.4c-2.2-0.7-4.4-0.8-6.7-0.5c-2.4,0.3-7.2,0.2-9.4,1c-5.9,2.4-12.7,2.4-18.1,5.9c-1.1,0.7-2,1.5-3.2,2
	c-2.1,0.8-4.5,0.2-6.8,0c-5-0.4-10.1,1.6-13.5,5.2c-0.7,0.8-1.4,1.7-2.3,2.3c-2.1,1.5-5.3,1.4-6.7,3.5c-1.3,1.9-0.8,5.1-2.9,6
	c-0.8,0.3-1.6,0.2-2.4,0.4c-2.5,0.7-2.6,4.1-3.8,6.4c-0.6,1.1-1.5,2-2.1,3.1c-0.9,1.5-1,3.3-1.2,5.1c-0.2,2.4-0.4,5,0.8,7
	c0.7,1.2,1.8,2.1,2.3,3.4c1.2,3.2-2.1,6.4-2.3,9.8c-0.1,2,0.9,3.9,2,5.5c2.3,3.6,5.1,6.9,8.3,9.9c3.9,3.6,8.4,6.6,11.3,11
	c0.4,0.6,0.9,1.3,1.6,1.6c0.6,0.3,1.4,0.1,2,0.2c2.4,0.2,1.9,3.4,3.5,5.2c0.7,0.8,2.1-0.9,3.1-0.7c1.5,0.4,0.6,2.9,1.5,4.2
	c0.5,0.7,1.8,0.1,2.6,0.4c3.5,1.8,2.7,8.2,6.3,9.7c0.9,0.4,2-0.4,2.8,0.3c0.8,0.6,1.3,1.6,1.8,2.4c0.8,1.3,1.8,2.4,2.8,3.5
	c5.3,6,11,10.6,12.1,17.3c0.5,3-0.6,9.1-1.1,12.1c-2.2,11.4-17.3,11.6-26.4,11.1c-6-0.3-4.6-9.2-6-15c-0.5-2.2-2.3-4.7-4-7
	c-1.3-1.8,0.3-4.9,1-7c2.1-6.7-6-12.5-12-12c-18.2,1.5-36.7,3.9-52,15c-6.3,4.6-10.7,9.2-16,15c-2.9,3.1-9.2,7.2-13,3
	c-11.5-12.5-17-31.1-36-34c-7-1.1-13,1.2-20-1c-2.5-0.8-3.6-3-5.6-4.9"/>
<path fill="none" stroke="#E1E1E1" stroke-miterlimit="10" d="M201.2,51.2c-1.9,0.1-3.2,1.7-4.4,3.2c-2.7,3.5-5.4,7.1-8.2,10.6
	c-0.3,0.5-0.7,0.9-1,1.4c-0.4,0.8-0.6,1.7-0.8,2.5c-0.3,1.5-0.6,3.2,0.2,4.6c1.1,2,4.1,2.2,6,1c1.9-1.2,3-3.3,3.8-5.5
	c0.3-0.8,0.6-1.7,1.2-2.4c1.6-1.5,4.3-0.8,6.2-1.8c1.4-0.7,2.2-2.2,2.8-3.6c0.6-1.4,1.1-3,2.2-4.1c1.1-1.1,2.9-1.7,4.2-0.8
	c0.6,0.4,1,1.2,1.5,1.7c1.7,1.6,4.7,0.8,5.8-1.2c1.1-2,0.6-4.6-0.7-6.5c-1.3-1.9-3.4-3.1-5.4-4.1c-0.7-0.4-1.5-0.7-2.3-0.4
	c-0.9,0.4-1.2,1.6-1.6,2.5c-1.1,2.5-3.9,4-6.6,3.5C203.2,51.6,202.2,51.1,201.2,51.2z"/>
<path fill="none" stroke="#E1E1E1" stroke-miterlimit="10" d="M250,107.1c-1.7-1.6-4.5-1.1-6.8-0.5c-1,0.3-2,0.5-3,0.8
	c-1.5,0.4-3,0.8-4,2c-0.8,1-1.1,2.3-1,3.5c0.1,4.2,3.5,7.9,7.5,9.2c1.4,0.5,2.9-0.1,4.4-0.3c0.7-0.1,1.3,0,1.9-0.2
	c2.3-0.9,4.8-2.2,5.4-4.6c0.4-1.8-0.6-3.6-1.5-5.3c-0.5-0.9-1.1-1.9-1.6-2.8C250.9,108.3,250.6,107.6,250,107.1z"/>
<path fill="none" stroke="#E1E1E1" stroke-miterlimit="10" d="M300.7,144.4c0.7-0.1,1.3-0.3,1.9,0c1.2,0.7,1.6,2.3,2.7,3.2
	c1.1,0.8,2.7,0.7,3.6,1.7c0.6,0.6,0.6,1.6,0.9,2.4c0.3,0.8,0.9,1.7,1.7,1.6c0.7,0,1.2-0.7,1.5-1.4c0.9-2.1,0.4-4.6-1.2-6.2
	c-0.5-0.5-1.1-0.9-1.6-1.4c-1-1.2-0.9-2.9-0.8-4.5c0.3-3.1,0.8-6.6-1.2-9c-0.9-1.1-2.8-1.7-3.6-0.6c-0.7,0.9-0.2,2.3-0.7,3.4
	c-0.6,1.5-2.4,2.2-3.6,3.1c-1.1,1-4,1.7-5.4,2.2c-2,0.7-2.9,3-2.9,5.1c0,2.1,0.4,4.3-0.5,6.3c-0.1,0.2-0.2,0.4-0.2,0.6
	c-0.1,0.9,1.3,1.4,2.1,0.8c0.8-0.6,0.9-1.6,1.1-2.6c0.1-0.9-0.1-1.5,0.5-2.3C296,145.7,299.2,144.6,300.7,144.4z"/>
<path fill="none" stroke="#E1E1E1" stroke-miterlimit="10" d="M68.3,363.6c1.3-2.4,2.3-5,2.5-7.7c0.2-1.7,0-3.4,0.6-5
	c0.3-0.9,0.9-1.7,1.5-2.5c3-3.9,6.9-7.1,10.9-9.9c1.9-1.3,3.8-2.6,6-3.3c1.7-0.6,3.5-0.8,5.2-1.2c3.6-0.8,7.1-2.4,10.6-3.6
	c4.4-1.4,9-2.1,13.5-2.7c5.7-0.8,11.3-1.7,17-2.5c5-0.7,10.1-1.4,14.9-0.2c1.7,0.4,2,2.2,3.2,3.4c0.7,0.7,1.9-1,2.8-0.8
	c2.5,0.6,2.4,4.4,3,6.9c0.7,2.5,2.8,3.7,4.7,5.4c2.9,2.6,2.3,7.6,5.2,10.2c2.8,2.6,7.4,0.5,10.7,2.5c2.4,1.5,1,5.6,2.4,8.1
	c0.3,0.6,0.7,1.3,1,2"/>
<path fill="none" stroke="#E1E1E1" stroke-miterlimit="10" d="M-14.7,302.2c1.8-2.1,5.4-1.4,7.3,0.6c1.9,2,2.5,4.9,3,7.6
	c1.8,9.1,3.9,18.5,9.6,25.7c2.6,3.4,6.1,6.4,7.3,10.5c0.7,2.5,0.6,5.1,1.1,7.6c0.5,2.6,1.7,5.1,3.4,7.1"/>
<path fill="none" stroke="#E1E1E1" stroke-miterlimit="10" d="M361.3,217.5c-0.8,0-1.5-0.1-2.2-0.5c-1.8-0.9-2.4-3.3-3.5-5
	c-1.9-3-4.8-5.1-6.6-8.2c-1.4-2.4-5.2-2.5-6.8-4.7c-1-1.4-1.7-3-2.6-4.5c-0.7-1.2-1.1-2.4-1.5-3.7c-0.9-2.9-1.9-5.7-2.8-8.6
	c-1.3-4.1-2.7-8.3-2.2-12.6c0.4-3.3,1.8-6.3,3.1-9.3c2.9-6.3,5.9-12.7,8.8-19c5.9-12.7,21.6-31.1,11.9-41.2
	c-1.6-1.7-4.8,0.2-6.6-1.3c-0.5-0.4-1-1-1.6-1.3c-1-0.6-2.3-0.4-3.5-0.5s-2.5-0.6-2.8-1.8c-0.4-1.6,1.7-2.7,2.4-4.2
	c0.4-0.9,0.4-2-0.2-2.8c-0.3-0.4-0.7-0.8-0.8-1.2c-0.3-0.7-0.1-1.5,0.1-2.2c0.9-4,0.7-8.3-0.6-12.2c-0.2-0.5-0.4-1-0.8-1.4
	c-0.8-0.6-2-0.5-2.8-1.1c-0.9-0.7-0.8-2.1-0.6-3.3c0.8-6.7-1.4-13.7-5.9-18.7c-1.8-2.1-4.2-3.9-6.9-4.1c-1.4-0.1-2.8,0.2-4.2-0.1
	c-2-0.4-2.7-2.6-4.1-4.2c-4-4.6-11.5-5.1-16.9-7.9c-1-0.5-2.1-1.2-2.5-2.2c-0.3-0.8-0.1-1.7-0.1-2.6c0-4-3.6-7-7-9.2
	c-2.5-1.7-5.7-3.5-8.4-2c-0.6,0.3-1.1,0.8-1.7,0.8c-0.9,0-1.6-0.7-2.1-1.5c-1.4-1.9-2.8-3.8-4.2-5.7c-0.4-0.6-0.9-1.2-1.6-1.5
	c-1-0.5-2.3-0.3-3.1-1.1c-0.5-0.5-0.5-1.2-0.7-1.8c-0.8-2.7-3.7-4-6.1-5.3c-1-0.5-2.1-1.2-2.6-2.2"/>
<path fill="none" stroke="#E1E1E1" stroke-miterlimit="10" d="M340,363c0.7-1.3,1.4-2.6,2.1-3.9c1.3-2.5,2.4-5.1,3.4-7.7
	c3.3-8.3,6.1-16.8,8.3-25.5c1.1-4.4,2.1-8.9,1.8-13.4c-0.1-1.8-0.4-3.6,0.4-5.2c0.6-1.2,1.7-2,2.7-2.9c1-0.9,2-2,2.9-3.1"/>
<path fill="none" stroke="#E1E1E1" stroke-miterlimit="10" d="M361.5,347.2c-1.8,5.4-4.1,10.6-6.4,15.8"/>
<path fill="none" stroke="#E1E1E1" stroke-miterlimit="10" d="M361.2,124.6c-2.8,10.4-4.6,21.1-9.8,30.5c-0.9,1.7-2,3.3-2.4,5.1
	c-0.3,1.5-0.2,3,0,4.5c0.4,3.1,5.4,8,2.5,9c-2.5,0.9-7.8,6.3-3.1,11.3c0.9,0.9,2.3,1.1,2.7,2.4c0.4,1.2,0.3,2.5,0.6,3.8
	c0.5,2.2,1.1,5.1,3.2,5.9c1.9,0.6,4.2,0,5.7,1.2c0.4,0.3,0.7,0.6,1.2,0.7"/>
<path fill="none" stroke="#E1E1E1" stroke-miterlimit="10" d="M278-1.8c2.3,0.9,4.6,1.8,5.6,4c0.3,0.7,0.5,1.6,1.1,2.1
	c0.8,0.7,2,0.5,3.1,0.4c8.7-0.9,17.5,6.1,18.4,14.9c0.1,0.6,0.1,1.2,0.5,1.6c0.5,0.5,1.3,0.4,2,0.4c6.8-0.4,9.4,8.2,15.7,10.8
	c2.5,1,5.5-0.7,7.8,0.8c2.3,1.5,3.9,3.8,5.5,6c1.1,1.6,2.3,3.2,3.4,4.7c1.2,1.7,2.5,3.4,3.2,5.4c0.9,2.4,1.2,4.9,1.9,7.4
	c0.7,2.4,2,4.9,4.2,6c1.4,0.7,3.1,0.8,4.4,1.8c2.5,1.7,2.4,5.4,3.9,8c0.6,1,1.4,2,1.5,3.2c0.2,2.2-3.2,5.2-1.3,6.3
	c0.9,0.5,1.9,0.6,2.9,0.4"/>
<path fill="none" stroke="#E1E1E1" stroke-miterlimit="10" d="M361.6,56.7c-1.6-1.6-5.1-1-7.9-2.1c-2.2-0.9-0.9-4.6-1.4-6.9
	c-0.5-2.5-1-5.1-1.5-7.6c-1.3-6.7-2.7-13.4-5.6-19.5c-0.3-0.6-0.6-1.2-1.1-1.5c-0.9-0.6-2-0.3-3-0.5c-1.2-0.2-2.2-1-3.3-1.4
	c-2.5-1-4.8,1.9-7.5,1.6c-4.9-0.5-10.1-3.1-14-6.1c-2.4-1.8-3.2-5-3.3-7.9c0-0.9,0-1.9-0.4-2.6c-0.5-0.8-1.5-1.3-1.8-2.2
	c-0.2-0.7,0.1-1.3,0.3-2c0.1-0.5,0.2-0.9,0.3-1.4"/>
<path fill="none" stroke="#E1E1E1" stroke-miterlimit="10" d="M361.4,17.7c-1.6-0.6-2.9-3.4-4.6-2.7c-1.4,0.5-1.1,2.5-0.7,3.8
	c0.7,2.2,1.5,4.4,2.2,6.5c0.7,2.2,1.7,4.6,3.6,5.8"/>
<path fill="none" stroke="#E1E1E1" stroke-miterlimit="10" d="M327.6,246.6c0.6-1.5,0.4-3.4-0.8-4.5c-2.3-1.9-5.8-1.8-8.5-0.4
	c-1,0.5-1.9,1.2-3.1,1.3c-0.6,0-1.1-0.1-1.7-0.1c-1.5,0.2-2.2,2.1-2.5,3.6c-2.8,15.9,1.2,32.9,10.9,45.9c1,1.4,2.5,2.9,4.2,2.5
	c1.2-0.3,2.3-1.5,3.5-1.2c0.8,0.2,1.3,1,1.9,1.7c0.5,0.7,1.7,1.4,2.2,0.7c5.4-6.8,4.6-16.8,3.6-25.4c-0.4-3.7-1.7-7.8-5.1-9.2
	c-0.6-0.3-1.3-0.4-1.8-0.9c-0.3-0.3-0.5-0.8-0.7-1.2c-0.9-2-1.8-4.1-2.6-6.1c-0.6-1.4-1.2-2.9-0.7-4.3
	C326.6,248.1,327.2,247.4,327.6,246.6z"/>
<path fill="none" stroke="#E1E1E1" stroke-miterlimit="10" d="M349.7,293.1c0.4-1.6,2-2.5,3.2-3.6c2.2-2.1,2.9-5.2,3-8.2
	c0.4-7.9-2.5-15.6-2.1-23.4c0.2-2.9,0.8-5.7,1-8.5c0.2-2.8-0.2-6-2.6-7.4c-0.9-0.5-1.9-0.6-2.9-0.4c-0.6,0.1-1.2,0.4-1.9,0.4
	c-1.8,0.1-3.1-2-3.2-3.8c-0.1-1.8,0.6-3.6,0.6-5.4c0-1.7-0.5-3.3-1-4.9c-0.4-1.3-0.8-2.6-1.3-4c-0.6-1.9-1.5-4-3.4-4.4
	c-1.3-0.3-2.5,0.4-3.6,1c-7.9,4.2-15.9,8.1-24.1,11.6c-0.8,0.4-1.7,0.7-2.5,0.8c-0.8,0.1-1.6,0-2.4,0.2c-0.6,0.2-1.2,0.6-1.7,1
	c-3.3,2.7-5.6,6.6-6.5,10.8c-0.9,4.2-0.3,8.6,0.4,12.9c0.6,3.8,1.1,7.7,2.4,11.3c0.8,2.1,1.8,4.2,2.1,6.5c0.3,2.1-0.1,4.2,0.1,6.3
	c0.2,2,1,3.8,1.8,5.7c1.4,3.3,2.8,6.6,4.2,9.9c4.3,10.1,8.9,20.4,16.7,28.2c1,1,2.1,2,3.5,2.3c1.8,0.4,3.7-0.4,5.1-1.7
	c1.3-1.3,2.2-3,3.1-4.6c2.4-4.7,4.8-9.5,6.1-14.6c0.8-3.4,1.3-7.3,4-9.5c0.6-0.5,1.4-1,1.7-1.7C349.7,294.8,349.5,293.9,349.7,293.1
	z"/>
<path fill="#EAEAEA" stroke="#D6D6D6" stroke-miterlimit="10" d="M288.2,364c0.5-0.6,1.2-1.1,1.9-1.6c1.8-1.4,3-3.7,3.1-6
	c0.1-1.4-0.2-2.8,0.2-4.1c0.3-1.2,1-2.2,1.5-3.4c0.8-1.7,1.1-3.5,1.5-5.3c0.3-1.7,0.6-3.5,1-5.2c0.1-0.7,0.2-1.3,0.5-1.9
	c0.5-1.3,1.6-2.3,2.4-3.4c2-2.8,2.5-6.9,0.6-9.8c-2.5-3.8-7.1-4.2-10-7.8c-0.4-0.5-1.7-1.5-2.3-1.9c-0.5-0.3-1-0.5-1.6-0.5
	c-3.1-0.2-5.4-4.2-7.4-4.1c-1.6,0.1-1,3-1.2,4.5c-0.2,2.3-0.5,4.5-0.7,6.8c-0.1,0.9-0.2,1.9,0.2,2.6c0.4,0.8,1.2,1.3,1.6,2
	c0.4,0.8,0,2-0.8,1.9c-0.3,0-0.6-0.3-0.9-0.2c-0.2,0-0.4,0.2-0.6,0.4c-2.5,3.1-3.8,7.1-3.4,11.1c0.1,1.2,0.3,2.4,0.2,3.7
	c-0.2,1-0.6,2-1,2.9c-2,4.8-2.6,10.1-5.1,14.6c-0.5,0.9-1.2,2-1.8,3"/>
<path fill="#EAEAEA" stroke="#4E9BD7" stroke-miterlimit="10" d="M211,310.6c0-0.6-0.5-1.2-1-1.6c-1-0.6-2.3-0.7-3.2-0.1
	c-1,0.6-1.9,2.5-0.9,3c0.9,0.5,2,0.8,3,0.8c0.7,0,1.3-0.5,1.7-1.1C210.8,311.3,211,311,211,310.6z"/>
<path fill="none" stroke="#D6D6D6" stroke-miterlimit="10" d="M274.1,332.8c-2.4,0.4-5.2-0.1-7.3-1.3c-0.8-0.5-1.6-1.1-2.6-1
	c-0.6,0-1.1,0.3-1.6,0.5c-2.4,1.3-4.6,2.9-6.5,4.8c-0.5,0.6-1.1,1.1-1.8,1.4c-1.9,0.6-4.1-1.4-5.8-0.4c-0.8,0.5-1.2,1.5-1.8,2.2
	c-0.4,0.5-1,0.9-1.6,1.2c-1.6,1-3.6,1.6-5.5,1.8c-2.4,0.2-4.7,1-6.8,2.2c-0.3,0.2-0.6,0.4-0.8,0.7c-0.1,0.2-0.2,0.4-0.2,0.6
	c-1.3,5.4-4.9,9.9-8.9,13.8c-1,0.9-2,1.9-3.2,2.4c-0.2,0.1-0.5,0.1-0.8,0.2"/>
<path fill="none" stroke="#4E9BD7" stroke-miterlimit="10" d="M152.4,361.6c0.7,0,1.6,0.1,2.2-0.3c0.4-0.2,0.7-0.7,1.1-0.9
	c0.6-0.4,1.5-0.2,2.2-0.1c2.5,0.3,5.2-0.2,7.4-1.5c0.7-0.4,1.4-0.9,2.2-1c1.7-0.3,3.3,1.1,5.1,1.3c2.9,0.4,5.2-2.2,7-4.6
	c2.2-3,4.5-6.1,6.7-9.1c0.9-1.2,1.8-2.4,2.1-3.9c0.2-0.8,0.3-1.7,0.9-2.2c0.8-0.7,2.3-0.4,2.8-1.3c0.5-0.8-0.3-1.9-0.3-2.9
	c-0.1-1.2,0.9-2.1,1.8-2.8c5.9-5.3,10.3-12.3,12.5-20"/>
<path fill="none" stroke="#4E9BD7" stroke-miterlimit="10" d="M208.7,308.2c0.4-2,0.9-4.1,1.3-6.1c0.2-0.8,0.4-1.7,0.1-2.5
	c-0.1-0.4-0.4-0.7-0.5-1.1c-0.2-0.9,0.3-1.8,0.7-2.7c0.9-1.8,2.7-4.8,1-5.8c-0.9-0.5-2.1-0.1-2.4-1.1c-0.4-1.4,0.8-3,0.1-4.3
	c-0.2-0.4-0.6-0.6-0.8-1c-0.4-0.9,0.2-1.9,0.7-2.6c1.1-1.5,2.2-2.9,3.3-4.4c1-1.3,1.5-3.1,1.7-4.6"/>
<path fill="none" stroke="#4E9BD7" stroke-miterlimit="10" d="M195,180.5c0.1,0.1,0.3,0.2,0.4,0.4c0.6,0.5,1.3,1,2,0.6
	c0.3-0.2,0.5-0.5,0.7-0.8c0.8-1.4,1.9-2.6,3.1-3.8c0.4-0.4,0.8-0.8,1.4-1.1c0.5-0.2,1.2-0.2,1.7,0.2c0.7,0.7,1,2.2,1.3,2.9"/>
<path fill="#EAEAEA" stroke="#D6D6D6" stroke-miterlimit="10" d="M214.8,271.7c0.4-1.9,0-3.9,1.2-5.4c0.7-0.9,1.6-1.6,1.9-2.6
	c0.2-0.7,0.2-1.5,0.1-2.3c-0.1-2.1,0.2-4.2,0.9-6.1c0.2-0.7,0.5-1.4,0.7-2.1c0.3-1,0.4-2,0.5-3c0.4-4.5,0.8-9,1.3-13.5
	c0.1-0.9,0.2-1.8,0.4-2.7c0.2-0.9,0.6-1.7,0.7-2.6c0.2-1.4-0.1-2.7-0.4-4.1c-0.6-3.2-0.8-6.5-0.6-9.8c0.1-1.2,0.6-2.6,0.2-3.7
	c-0.2-0.5-0.5-1-0.6-1.5c-0.2-0.6-0.2-1.2-0.3-1.9c-0.2-1.9-0.6-3.8-1.2-5.7c-1.4-4.9-3.3-9.5-5.3-14.2c-0.6-1.5-1.2-3-1.9-4.5
	c-0.7-1.6-1.4-2.7-2.6-4c-1.1-1.3-3.6-3.3-4.5-2.6c-0.9,0.7,0.2,2.2,0.6,3.2c2,4.5,2.9,10.5,3.8,13.6c0.3,0.9-1.6-0.9-2.5-0.8
	c-1.4,0.1-0.9,2.5-0.2,3.7c0.5,0.9,1.4,1.9,0.8,2.7c-0.4,0.6-1.2,0.6-1.8,0.9c-1,0.5-1.5,1.6-1.8,2.6c-1,2.9-1.4,8.9-2.5,8.9
	c-1,0-1.4-1.2-2.2-0.6c-1,0.8-2.1,0.9-3.5,0.9c-1,0-2,0.7-2.4,1.6c-0.1,0.4-0.1,0.8-0.1,1.2c0.2,3,1.3,6.3,2.5,9.1
	c0.5,1.1,0.6,2,1.7,2.7c0.6,0.4,1.2,0.5,1.8,0.8c2.7,0.9,5,2.6,7.3,4.3c1.6,1.2,3.3,2.4,4.4,4c1.2,1.6,2.4,4.1,1.1,5.7
	c-1.2,1.5-3.6,1.5-5.1,2.8c-1.1,0.9,0.8,2.6,0.6,4c-0.1,1.1-1.3,1.9-1.2,3c0.1,0.6,0.4,1,0.8,1.4c1.9,2.1,6.1,5.7,5.5,6.8
	c-0.3,0.8-1.6-0.6-2.2,0c-1.3,1.2,0.1,2.4,0.1,4.2c0,1.7,0.2,3.7,1.5,4.9c0.6,0.5,0.8,1.2,1.4,1.4c0.2,0.1,0.3,0.1,0.4,0
	C214.6,272.1,214.8,271.8,214.8,271.7z"/>
<path fill="#7BBCEB" stroke="#4E9BD7" stroke-miterlimit="10" d="M189.1,186.5c0.6-1.1-1.3-3.4-0.1-3.8c0.8-0.2,1.6,0.3,2.1-0.5
	c0.5-0.7,1-1.7,1.8-1.6c0.7,0,1.5,0.9,2,0.4c0.8-0.8-0.6-2-1.1-3.1c-0.7-1.4-0.2-3-0.4-4.5c-0.4-2-2.1-3.9-1.3-5.7
	c0.2-0.4,0.5-0.8,0.8-1.2c0.5-0.8,0.7-1.7,0.8-2.6c0-0.8-0.2-1.7-0.6-2.4c-0.4-0.6-1-1-1.6-1.4c-0.9-0.6-1.8-1.2-2.6-1.8
	c-1.9-1.2-3.8-2.5-5.9-3c-1.4-0.3-2.9-0.3-4.2-0.8c-0.9-0.3-1.5-1.1-2.4-1.5c-5.5-2-5.4-4-6.5-3.1c-0.6,0.5-0.7,1-1,1.7
	c-0.1,0.3-0.2,0.5-0.4,0.7c-0.3,0.2-0.7,0.3-1,0.3c-3.5,0.2-7,0.8-10.3,1.9c-0.7,0.2-1.5,0.5-2,1.1c-0.4,0.5-0.5,1-0.7,1.6
	c-0.5,2-0.7,4.2,0.3,5.9c1,1.7,3.4,2.7,5,1.5c0.6-0.5,1.2-1.2,1.9-1c1.8,0.5,1.1,1.5,1.7,2.2c1.3,1.8,2.8,2.4,3,5.1
	c0.2,2.5,1.4,4.7,2,7.1c0.5,2,1,4,2.2,5.6c1.2,1.6,3.3,2.8,5.3,2.2c0.8-0.2,1.5-0.7,2.3-0.6c1.6,0.1,3,2.7,4.2,1.7
	c1-0.8,0.2-3.3,1.5-3.6c1.6-0.3,0.7,3.5,2.1,4.4C187,188.7,188.6,187.5,189.1,186.5z"/>
<path fill="none" stroke="#D6D6D6" stroke-miterlimit="10" d="M198.4-2c0.4,3.7,0.4,7.5-0.5,11.1c-1,4-3.2,7.5-4.3,11.5
	c-0.4,1.4-0.6,2.9-0.2,4.2c0.3,0.9,0.8,1.7,1.3,2.6c2.8,5.2,1.5,12.4-3,16.2"/>
<path fill="none" stroke="#D6D6D6" stroke-miterlimit="10" d="M169.1,15.8c2.7-1.1,5.4-2.1,8.2-2.8c0.5-0.1,1-0.3,1.5-0.6
	c0.3-0.3,0.6-0.6,0.9-0.9c1.5-2,3-4.1,3.9-6.5c0.9-2.4,1.3-5.3,3.3-7"/>
<path fill="none" stroke="#D6D6D6" stroke-miterlimit="10" d="M178.5,44.8c-0.1-1.5,0.4-3.1,1.4-4.3c2.2-2.5,6.4-2.8,8.3-5.6
	c1.5-2.2,1-5.4,2.3-7.7c0.6-1,2-2.1,2.9-2.9"/>
<path fill="none" stroke="#D6D6D6" stroke-miterlimit="10" d="M201.2-1.6c0.2,0.9,0.5,1.9,0.8,2.8c0.1,0.3,0.2,0.7,0.5,0.9"/>
<path fill="none" stroke="#D6D6D6" stroke-miterlimit="10" d="M289.6,228.7c-0.9,1.6-1.5,3.5-1.7,5.4c-0.1,1.1,0,2.3-0.3,3.4
	c-0.3,1-0.8,1.8-1.2,2.7c-2,4.1-2.1,8.7-2.2,13.2c0,1.4-0.1,2.8-0.3,4.2c-0.2,1.2-0.5,2.4-0.7,3.6c-1.4,7.5-0.2,15.2-1.2,22.8
	c-0.3,1.9-0.7,3.7-1,5.6c-1,6.2-0.9,13-0.7,19.3"/>
<path fill="#EAEAEA" stroke="#D6D6D6" stroke-miterlimit="10" d="M290.9,210.8c-0.2,0.4-0.5,0.8-0.7,1.2c-1.1,1.5-2.1,3.1-2.9,4.7
	c-0.4,0.9-0.9,1.8-0.9,2.8c0,1.5,0.9,2.9,1.2,4.4c0.2,1.1,0.1,2.2,0.6,3.1c1,1.8,3.7,1.8,5.4,0.8c1.7-1.1,2.9-2.8,4.5-4.2
	c0.4-0.3,0.8-0.6,1.3-0.6c0.4,0,1.2,0.2,1.6,0.4c1.6,0.8,2.4,1.7,3.2,3.2c0.2,0.3,0.4,0.7,0.7,0.8c0.3,0,0.5-0.1,0.8-0.2
	c2.7-1.5,3.7-4.9,4.5-8c2-7.8,4.8-5.8,5-7.5c0.1-1.1-1.9-1.2-2.7-1.9c-0.8-0.7-1.4-2-0.7-2.9c0.2-0.3,0.5-0.6,0.7-0.9
	c0.2-0.4,0.1-1-0.1-1.4c-0.4-1.2-1-2.4-1.9-3.3s-2.3-0.5-3.6-0.5c-1.5,0-1.7-3-3.2-3.1c-1-0.1-1.9,0.5-2.8,0
	c-0.9-0.5-1.8-1.1-2.8-1.1c-1.7,0-2.9,1.6-3.7,3.1c-1.5,2.6-3.1,5.5-3.1,8.5C291.1,209,291.2,210,290.9,210.8z"/>
<path fill="none" stroke="#D6D6D6" stroke-miterlimit="10" d="M348.9-2.1c0.8,1.7,1.6,3.4,2.3,5.1c0.4,0.9,0.9,1.9,1.6,2.6
	c0.7,0.7,1.7,1.2,2.3,2.1c0.5,0.7,0.6,1.5,0.8,2.3c0.9,4.6,2.3,9.6,5.7,12.8"/>
<path fill="#FFFFFF" stroke="#D6D6D6" stroke-miterlimit="10" d="M211.9,252.8c-0.2,0-0.4,0.2-0.6,0.4c-0.5,0.5-1.1,1.2-1,1.9
	c0.1,0.6,0.6,1.1,1.1,1.4c0.8,0.6,1.1,1.2,1.9,1.7c0.1,0.1,0.7,0.2,0.8,0.2c0.3,0.1,0.6-0.1,0.8-0.4c0.1-0.3-0.4-0.5-0.3-0.8
	c0.1-0.5,1.1,0.3,1.4-0.1c0.5-0.7,0.2-1.4-0.1-2.2c-0.2-0.6-0.7-0.9-1.3-1c-0.6-0.1-1-0.3-1.5-0.6
	C212.7,253.2,212.4,252.7,211.9,252.8z"/>
<path fill="#FFFFFF" stroke="#4E9BD7" stroke-miterlimit="10" d="M174.6,173.4c-0.3,0.6,0,1.2,0.2,1.8c0.3,1.1,0.5,2.2,0.5,3.3
	c0,0.8-0.1,1.6,0.2,2.3c0.3,0.7,1.6,1.7,1.9,1c0.2-0.5,0-1.1,0.4-1.5c0.4-0.3,1,0.2,1.5,0c1.1-0.4,0.5-2.5-0.2-3.5
	c-0.2-0.2-0.4-0.5-0.6-0.7c-0.6-0.7-1-1.6-1-2.5c0-0.3,0-0.7-0.2-1c-0.2-0.2-0.5-0.2-0.7-0.2C175.9,172.5,175,172.7,174.6,173.4z"/>
<path fill="none" stroke="#585858" stroke-miterlimit="10" stroke-dasharray="2,1" d="M288.9,147c-1.8,1.6-2.6,4.1-2.5,6.5
	c0.1,2.4,1,4.7,1.9,6.9c3.4,7.8,8.1,15.7,7.5,24.2c0,0.7-0.2,1.5-0.6,2c-0.4,0.5-1,0.9-1.4,1.3c-1.9,1.9-0.9,5.2-0.9,7.9
	c0,2-0.7,3.8-1.4,5.7c-1.2,3.2-2.5,6.5-3.7,9.7c-1,2.7-2.7,5.2-2.8,8.1c0,2.4,1.4,4.9,1.5,7.2c0.2,3.3-0.5,6.5-1.6,9.6
	c-4.7,13.9-4.3,26.6-4,40.8c0.1,4.4-2.8,10.8-2.8,15.2c0,3.2-0.1,6.3-0.1,9.5c0,1.1-0.3,2.4,0.3,3.4c1.1,1.8,3.4,3.8,5.7,5
	c2.4,1.2,4.9,2.4,7.3,3.6c1.5,0.7,3,1.5,4.2,2.6c0.6,0.6,1.2,1.4,1.8,2.1c1.7,1.7,4.2,2.6,5.4,4.7c1.8,3-1,7.7,1.4,10.2
	c1,1.1,3-0.6,4.3,0.2c0.4,0.2,0.7,0.6,0.9,1c2,2.9,3.9,6.1,4.7,9.6c0.5,2,0.7,4.3,2.2,5.7c1.8,1.6,4.6,1.4,6.8,2.3
	c2.8,1.1,4.5,3.9,5.2,6.8c0.3,1.4,0.5,2.9,0.5,4.4"/>
<path fill="none" stroke="#585858" stroke-miterlimit="10" stroke-dasharray="2,1" d="M343-1.2c0.6,0.8,1.3,1.5,2,2.3
	c1.9,2,3.7,3.9,5.6,5.9c0.8,0.8,1.6,1.6,2,2.6c0.5,1.1,0.7,2.4,0.8,3.6c0.6,5.2,1.1,10.5,1.7,15.7c0.3,3.1,0.7,6.3,2,9.2
	c0.9,1.9,2.3,3.7,4,4.8"/>
<path fill="none" stroke="#585858" stroke-miterlimit="10" stroke-dasharray="2,1" d="M342.2-2.3c0.3,0.4,0.5,0.8,0.8,1.2"/>
<path fill="none" stroke="#585858" stroke-miterlimit="10" stroke-dasharray="18,3,1,3" d="M35.6-2.3c0.1,1.9,0.1,3.8-0.3,5.6
	c-0.7,3.8-2.1,7.4-3,11.2c-0.8,3.3-1.3,6.7-1.2,10.1c0,1.4,0.2,3.1,1.4,3.8c0.4,0.2,1,0.3,1.4,0.5c1,0.5,1.5,1.5,2,2.5
	c2.5,4.9,6,10.3,11.4,10.9c2.4,0.3,5-0.5,7.2,0.5c1.4,0.6,3.8,0.7,4.8,1.8c2.8,3.4,4.1,8.2,6.5,11.9c2.9,4.5,5.7,9.5,7.8,14.4
	c0.6,1.4,1.3,3,2.6,3.9c0.8,0.6,1.7,0.8,2.7,1.1c3.2,0.9,6.4,1.6,9.7,1.2c2.7-0.4,5.3-1.5,7.9-2.4c5-1.8,10.4-2.8,15.7-2.9
	c2.4-0.1,4.9,0.1,6.7,1.7c0.8,0.7,1.4,1.7,2.5,2c1.4,0.4,2.9-0.6,4-1.6c4.2-3.7,7.7-8.4,11.9-12.1c2.9-2.5,6.9-4.1,10.6-3.8
	c1.4,0.1,3.5,0.5,4.9,1c4.3,1.8,6.2,3.9,10,7.6c1.3,1.3,3.2-0.5,5-0.1c2.2,0.5,2.9,2.8,5.1,3.1c2.8,0.4,4.6-3.5,7.4-3.1
	c1.8,0.2,3.9,3.7,6.1,4.5c1.9,0.6,4-0.8,4.8,0.5c0.8,1.4-0.9,2.7-1.2,4.8c-0.7,4.4-1.2,9.3,2.1,12.5c1.5,1.4,4.3,3.1,5.8,4.6
	c1.8,1.9,4,4.4,5.4,6.6c1.5,2.2,3.4,4.3,6,5c3.5,0.9,7.6-1.1,10.7,0.8c0.9,0.5,1.6,1.4,2.6,1.9c1,0.6,2.3,0.7,3.5,0.9
	c5,0.8,9.8,2.3,14.6,3.8c4.3,1.4,8.7,2.8,12.5,5.3c1.6,1,3.2,2,4.5,3.4c2.9,3,7.2,4.2,11.9,7.1c1.4,0.9,2.3,2.3,3.9,2.6
	s3.3,0,4.9-0.3c2.7-0.5,5.4-1.1,8.1-0.7c2.7,0.4,5.4,1.9,6.3,4.4c0.8,1.9,0.4,4.1,0.7,6.2s1.7,4.4,3.8,4.3c1.6-0.1,2.8-1.4,3.9-2.5
	s3-2,4.3-1.1c0.5,0.4,0.8,0.9,1,1.4c1.1,2.1,2.2,4.2,3.3,6.3c2,3.8,4,7.8,4.2,12.1c0.1,2.6-0.4,5.1-0.8,7.7
	c-0.3,1.6-0.5,3.3,0.3,4.7c0.4,0.6,0.9,1,1.4,1.4c1.8,1.4,4.4,1.8,5.6,3.7c2,3.2-1.4,10.2,1.9,11.9c5.2,2.5,9,3.5,11.3,8.6
	c0.9,2,2.7,3.5,3.6,5.5c1,2.3,1.5,4.8,2,7.2c0.8,3.9,1.5,8,0.1,11.7c-0.8,2-2.3,3.6-3.5,5.3c-4.5,6.3-9.1,12.4-14.2,17.2
	c-0.9,0.9-1.6,2-2.1,3.2c-0.5,1.3-0.4,2.7-0.4,4.1c0.2,4.5,0.8,8.9,1.8,13.2c0.4,1.6,0.8,3.3,2.1,4.5c1,0.9,3.2,4,4.1,5.1
	c1.4,1.6-0.8,3.4-2,6.4c-2.3,5.9-0.5,12.5,1.8,18.4c1.5,3.8,3.8,7.5,4.4,11.5c0.4,2.9-0.4,5.8-0.7,8.7c-0.6,6.1-1.6,12.2-3,18.1
	c-0.3,1.3-0.6,2.6-0.3,3.9c0.4,1.6,1.9,2.8,3.3,3.8c4.8,3.2,11.5,6.7,15,7.4c4.5,0.8,8.9,2.4,13.4,3.3c1.5,0.3,3.1,0.7,4.6,1.2"/>
<path fill="none" d="M11.9,84.6c2.2-6.7,4.8-13.4,7.7-19.9c2.8-6.3,6-12.6,11.1-17.2"/>
<text transform="matrix(0.3651 -0.931 0.931 0.3651 17.466 76.5311)"><tspan x="0" y="0" fill="#7D7D7D" font-family="'Verdana-Italic'" font-size="7">1</tspan><tspan x="4.4" y="0" fill="#7D7D7D" font-family="'Verdana-Italic'" font-size="7" rotate="1.2">1</tspan><tspan x="8.8" y="0.1" fill="#7D7D7D" font-family="'Verdana-Italic'" font-size="7" rotate="2.3">8</tspan><tspan x="13.1" y="0.3" fill="#7D7D7D" font-family="'Verdana-Italic'" font-size="7" rotate="4.2">0</tspan><tspan x="17.4" y="0.6" fill="#7D7D7D" font-family="'Verdana-Italic'" font-size="7" rotate="7.7">0</tspan></text>
<path fill="none" d="M-17.7,211.9c6,0,11.5-3.1,16.9-5.7c9.1-4.5,18.9-7.9,29.1-8.4c4.9-0.2,9.8,0.2,14.6,1.3"/>
<text transform="matrix(0.933 -0.3598 0.3598 0.933 6.6496 205.5242)"><tspan x="0" y="0" fill="#7D7D7D" font-family="'Verdana-Italic'" font-size="7">1</tspan><tspan x="4.3" y="0" fill="#7D7D7D" font-family="'Verdana-Italic'" font-size="7" rotate="3">1</tspan><tspan x="8.6" y="0.2" fill="#7D7D7D" font-family="'Verdana-Italic'" font-size="7" rotate="6.4">0</tspan><tspan x="12.9" y="0.7" fill="#7D7D7D" font-family="'Verdana-Italic'" font-size="7" rotate="10.4">0</tspan><tspan x="17.1" y="1.4" fill="#7D7D7D" font-family="'Verdana-Italic'" font-size="7" rotate="14.7">0</tspan></text>
<text transform="matrix(1 0 0 1 196.2326 159.8864)"><tspan x="0" y="0" fill="#7BBCEB" font-family="'Verdana-Italic'" font-size="8">Granite Lakes</tspan><tspan x="0" y="9.6" fill="#7BBCEB" font-family="'Verdana-Italic'" font-size="8">(upper)</tspan></text>
<text transform="matrix(1 0 0 1 144.5123 240.9945)"><tspan x="0" y="0" fill="#585858" font-family="'Verdana-Italic'" font-size="8">Granite Lakes</tspan><tspan x="26.3" y="9.6" fill="#585858" font-family="'Verdana-Italic'" font-size="8">(lower)</tspan></text>
<text transform="matrix(1 0 0 1 230.2432 222.68)"><tspan x="0" y="0" fill="#585858" font-family="'Verdana-Italic'" font-size="8">Gaylor Lakes</tspan><tspan x="21.4" y="9.6" fill="#585858" font-family="'Verdana-Italic'" font-size="8">(upper)</tspan></text>
<text transform="matrix(1 0 0 1 220.7485 315.8234)"><tspan x="0" y="0" fill="#585858" font-family="'Verdana-Italic'" font-size="8">Gaylor Lakes</tspan><tspan x="17.7" y="9.6" fill="#585858" font-family="'Verdana-Italic'" font-size="8">(middle)</tspan></text>
<text transform="matrix(1 0 0 1 288.772 254.8049)"><tspan x="0" y="0" fill="#585858" font-family="'Verdana-Italic'" font-size="8">Gaylor</tspan><tspan x="7.1" y="9.6" fill="#585858" font-family="'Verdana-Italic'" font-size="8">Peak</tspan></text>
<path fill="none" d="M119.2,327.8c5.7-0.8,11.3-1.7,17-2.5c5-0.7,10.1-1.4,14.9-0.2"/>
<text transform="matrix(0.9895 -0.1448 0.1448 0.9895 124.4172 329.5897)"><tspan x="0" y="0" fill="#7D7D7D" font-family="'Verdana-Italic'" font-size="7">1</tspan><tspan x="4.5" y="0" fill="#7D7D7D" font-family="'Verdana-Italic'" font-size="7">0</tspan><tspan x="8.9" y="0" fill="#7D7D7D" font-family="'Verdana-Italic'" font-size="7">2</tspan><tspan x="13.3" y="0" fill="#7D7D7D" font-family="'Verdana-Italic'" font-size="7" rotate="1.2">0</tspan><tspan x="17.5" y="0" fill="#7D7D7D" font-family="'Verdana-Italic'" font-size="7" rotate="6.1">0</tspan></text>
<path fill="none" d="M237.3,175.3c1,2.8,0.2,6.6,2.4,8.7c2.9,2.7,5.3,5.5,8.1,8.2c1.6,1.6,4,2.6,4.7,4.7"/>
<text transform="matrix(0.4198 0.9076 -0.9076 0.4198 235.4621 181.5961)"><tspan x="0" y="0" fill="#7D7D7D" font-family="'Verdana-Italic'" font-size="7">1</tspan><tspan x="5.3" y="-0.7" fill="#7D7D7D" font-family="'Verdana-Italic'" font-size="7" rotate="-20.1">0</tspan><tspan x="9.4" y="-2.2" fill="#7D7D7D" font-family="'Verdana-Italic'" font-size="7" rotate="-18.8">6</tspan><tspan x="13.7" y="-3.6" fill="#7D7D7D" font-family="'Verdana-Italic'" font-size="7" rotate="-21.6">0</tspan><tspan x="17.6" y="-5.6" fill="#7D7D7D" font-family="'Verdana-Italic'" font-size="7" rotate="-20.1">0</tspan></text>
<path fill="none" d="M287.3,280c1.4,1.2,2.2,3,2.8,4.7c2.4,6.6,4.2,13.4,5.5,20.3c0.2,1.3,0.5,2.6,1,3.8"/>
<text transform="matrix(0.3248 0.9458 -0.9458 0.3248 287.6155 285.3129)"><tspan x="0" y="0" fill="#7D7D7D" font-family="'Verdana-Italic'" font-size="7">1</tspan><tspan x="4.4" y="0" fill="#7D7D7D" font-family="'Verdana-Italic'" font-size="7" rotate="2">0</tspan><tspan x="8.7" y="0.1" fill="#7D7D7D" font-family="'Verdana-Italic'" font-size="7" rotate="3.9">4</tspan><tspan x="13.1" y="0.4" fill="#7D7D7D" font-family="'Verdana-Italic'" font-size="7" rotate="5.9">0</tspan><tspan x="17.4" y="0.9" fill="#7D7D7D" font-family="'Verdana-Italic'" font-size="7" rotate="7.9">0</tspan></text>
<path fill="none" d="M119.5,103.1c5.9-2.3,14.8-9.5,16-10.2c9.5-6,18-12.3,24.3-22.9"/>
<text transform="matrix(0.8373 -0.5467 0.5467 0.8373 137.552 94.6)"><tspan x="0" y="0" fill="#7D7D7D" font-family="'Verdana-Italic'" font-size="7">1</tspan><tspan x="4.5" y="0" fill="#7D7D7D" font-family="'Verdana-Italic'" font-size="7" rotate="-2">1</tspan><tspan x="9.1" y="-0.2" fill="#7D7D7D" font-family="'Verdana-Italic'" font-size="7" rotate="-4.8">4</tspan><tspan x="13.7" y="-0.5" fill="#7D7D7D" font-family="'Verdana-Italic'" font-size="7" rotate="-8.3">0</tspan><tspan x="18.3" y="-1.2" fill="#7D7D7D" font-family="'Verdana-Italic'" font-size="7" rotate="-12.5">0</tspan></text>
<path fill="none" d="M326.3,44.1c2.7,0.2,5.1,2,6.9,4.1c4.5,5,6.7,12,5.9,18.7c-0.1,1.2-0.3,2.6,0.6,3.3"/>
<text transform="matrix(0.7163 0.6978 -0.6978 0.7163 329.0354 47.516)"><tspan x="0" y="0" fill="#7D7D7D" font-family="'Verdana-Italic'" font-size="7">1</tspan><tspan x="3.9" y="0" fill="#7D7D7D" font-family="'Verdana-Italic'" font-size="7" rotate="11.9">0</tspan><tspan x="7.8" y="0.7" fill="#7D7D7D" font-family="'Verdana-Italic'" font-size="7" rotate="22.5">4</tspan><tspan x="11.6" y="2.2" fill="#7D7D7D" font-family="'Verdana-Italic'" font-size="7" rotate="32.9">0</tspan><tspan x="14.9" y="4.4" fill="#7D7D7D" font-family="'Verdana-Italic'" font-size="7" rotate="43.6">0</tspan></text>
<g>
	<g>
		<polyline fill="none" stroke="#7D7D7D" stroke-miterlimit="10" points="85.2,341.6 85.2,348.7 275.4,348.7 275.4,341.7 		"/>
		<line fill="none" stroke="#7D7D7D" stroke-miterlimit="10" x1="180.5" y1="341.4" x2="180.5" y2="348.7"/>
		<line fill="none" stroke="#7D7D7D" stroke-miterlimit="10" x1="161.2" y1="349.2" x2="161.2" y2="343.7"/>
		<line fill="none" stroke="#7D7D7D" stroke-miterlimit="10" x1="142.4" y1="349.2" x2="142.4" y2="343.7"/>
		<line fill="none" stroke="#7D7D7D" stroke-miterlimit="10" x1="123.3" y1="349.2" x2="123.3" y2="343.5"/>
		<line fill="none" stroke="#7D7D7D" stroke-miterlimit="10" x1="104.6" y1="349.2" x2="104.6" y2="343.7"/>
	</g>
	<text transform="matrix(1 0 0 1 83.7837 339.1469)" fill="#7D7D7D" font-family="'Verdana'" font-size="8">0</text>
	<text transform="matrix(1 0 0 1 174.2948 339.1469)" fill="#7D7D7D" font-family="'Verdana'" font-size="8">0.5</text>
	<text transform="matrix(1 0 0 1 258.3417 339.1469)" fill="#7D7D7D" font-family="'Verdana'" font-size="8">1 mi</text>
</g>
</svg>
