<?xml version="1.0" encoding="utf-8"?>
<!-- Generator: Adobe Illustrator 17.1.0, SVG Export Plug-In . SVG Version: 6.00 Build 0)  -->
<!DOCTYPE svg PUBLIC "-//W3C//DTD SVG 1.1//EN" "http://www.w3.org/Graphics/SVG/1.1/DTD/svg11.dtd">
<svg version="1.1" id="Layer_1" xmlns="http://www.w3.org/2000/svg" xmlns:xlink="http://www.w3.org/1999/xlink" x="0px" y="0px"
	 viewBox="0 0 360 360" enable-background="new 0 0 360 360" xml:space="preserve">
<path fill="none" stroke="#E1E1E1" stroke-miterlimit="10" d="M26.8,364.1c2.1-4.6,4.1-9.2,6.2-13.8c0.5-1.1,1-2.1,1.2-3.3
	c0.3-1.3,0.3-2.6,0.3-3.9c0-3.1-0.1-6.3-0.1-9.4c0-4.5,1.9-8.6,3.4-12.8c2.7-7.5-6.2-16.2-3.8-24c0.6-2.1-2.9-0.5-6,0
	c-1,0.2-3.1-0.6-4-1c-12.3-5.5,5.1-20.2,8-30c1.5-5.2-4.7-7.2-8-11c-1.9-2.1-1.7-4.2-3-6c-1.7-2.3-5.1,0.1-7-2
	c-5.3-5.8-9.5-8.1-10.5-15.3c-0.4-3,2.6-8.6,4.5-10.7c4.3-4.8,3.7-11.2,8-17c2.2-3,6.3-1.8,7.5-3.2c0.9-0.9-1.1-4.3,0.3-6.2
	c0.9-1.1,5.3-5.6,6.2-6.7c3.6-4.6,10.9-10.5,7.2-13.9c-0.8-0.7-2.4-1.3-2.4-2.4s0.6-2.2,0.5-3.3c-0.1-2.4-2.8-3.8-5.1-4.6
	c-0.7-0.2-1.4-0.5-2-0.2c-0.4,0.2-0.8,0.6-1.2,0.9c-1.3,0.8-2.8-0.2-4.2-0.8c-3.4-1.7-7.5-1.8-10.9-0.2c-1.3,0.6-2.6,1.4-4,1.4
	c-0.9,0-1.8-0.3-2.7-0.6c-2.4-0.8-5-0.9-7.6-0.9"/>
<path fill="none" stroke="#E1E1E1" stroke-miterlimit="10" d="M-1.4,87.6c-0.4,0.4-0.8,0.8-1.1,1.3"/>
<path fill="none" stroke="#E1E1E1" stroke-miterlimit="10" d="M51.1,363.7c1.8-3.7,4.1-7.1,6.8-10.2c1.1-1.2,2.3-2.7,2-4.3
	c-0.2-0.8-0.7-1.4-1.1-2.1c-3.5-4.8-6-15.2-3-20.3c2.8-4.9,1.2-26.2,0-32.1c-3.5-17.5-4.5-19.2-12.3-45.2c-1-3.4-2-6.8-3.8-9.8
	c-3.6-6.4-10.1-11.3-11.6-18.4c-0.5-2.5-0.2-5.4,1.5-7.2c2.8-3.1,9.5,2.4,11.7-1.1c1.2-1.9-0.3-4.3,0.8-6.3
	c8.8-15.4,12.5-33.8,10.3-51.4c-0.8-6.3-2.3-12.9,0.4-18.7c1.4-3,3.7-5.4,5.7-7.9c7-9,10.4-20.8,9.2-32.2S63.2,69.2,52,66.8
	c-6.2-1.3-12.2,3.5-18.3,5.3c-3,0.9-6.1,1.7-8.9,3.2c-3,1.5-7.6,4.1-10.4,6c-5.3,3.3-11.7,2.4-15.9,6.4"/>
<path fill="none" stroke="#E1E1E1" stroke-miterlimit="10" d="M91.4,364c0.5-0.8,1-1.6,1.5-2.4c0.1-0.2,0.3-0.4,0.3-0.7
	c0.1-0.6-0.4-1-0.8-1.5c-2.2-2.3,0-6.8-2.5-8.9c-3.1-2.7-5.4-3.5-8.6-6.1c-0.9-0.7-2-0.8-2.6-1.7c-3.6-5.6-8.1-12.2-7.2-18.8
	c1.1-8.6-2.2-15.2-5-22.6c-2.3-6.3-3.1-13.1-4.1-19.7c-2.7-18.5-12.4-46.4-12.1-53.9c0.2-4.8,11.2-0.2,15.8,1.5
	c7.2,2.7,11.6,1.4,18.7-1.5c1.3-0.6,2.8-1.2,3.5-2.4c0.5-0.8,0.6-1.7,0.7-2.6c0.7-4.8,3.7-12,2-14.3c-0.8-1.1-3.1,5.6-18-3.9
	c-3.6-2.3-7.2-5.1-8.7-9.1c-2.7-7.5,3.4-15.5,2.4-23.3c-0.5-3.4-2.3-6.4-3.2-9.7c-2.2-8.1,1.3-16.7,5.7-23.8
	c4.5-7.1,10-13.7,12.8-21.6C85.3,108,84.5,98,81.6,89c-2.9-9-7.8-17.2-12.9-25.2c-3.5-5.4-4.6-14.2-10.7-15.9
	c-3.4-1-30.1,19.4-68.5,29.2c-1.2,0.3-2.6,0.1-3.8-0.4"/>
<path fill="none" stroke="#E1E1E1" stroke-miterlimit="10" d="M141.9,364.1c0.7-5.1,1.3-10.2,1.7-15.4c0.2-2.7,0.4-5.4,0-8.1
	c-0.6-4.6-1.8-12.2-6.4-12c-10.2,0.5-14.4,14.6-22.1,21.3c-0.8,0.7-1.7,1.5-2.7,1.8c-3.4,1.1-6.5-2.2-8.5-5.1c-2-2.8-6.5-4.7-6-8.1
	c0.1-0.5,0.1-1-0.2-1.5c-1.2-1.7-1.8-4.2-3.8-4.8c-2-0.7-4.1-0.9-5.4-2.7s-2.1-3.8-3.5-5.3c-0.3-0.4-0.7-0.7-0.9-1.1
	c-0.6-1.2-0.9-3.2-1.2-4.5c-3-13.8-6.3-25.3-10-40.3c-2.3-9.3-3.7-18.7-5.2-28.2c-0.5-3.3-0.5-7.6,2.5-9.1c1.2-0.6,2.6-0.5,3.9-0.4
	c18.8,0.6,37.7-7.5,50.2-21.5c5.1-5.7,9.1-12.2,13.2-18.7c2.2-3.6,4.4-7.2,6.7-10.8c0.6-1,1.3-2.2,1.1-3.4c-0.3-1.6-2-2.4-3.2-3.5
	c-3.1-2.5-4.1-6.7-5.9-10.2c-5.7-10.8-18.9-14.5-29.7-20.1c-0.9-0.5-1.9-1.1-2.4-2c-1-2.2,1.5-4.3,3.6-5.7
	c6.6-4.4,11.5-11.2,13.7-18.9c1.1-3.9,1.5-8.2-0.1-12c-2.5-6.1-9.2-9.2-14.5-13.1C88.4,87.6,83.7,63.2,79.2,41.3
	c-0.5-2.3-1-4.7-2-6.8c-2.3-4.8-7.3-8.1-12.6-8.3c-8.5-0.4-15.4,6.3-22,11.6C28.7,48.9,27,54.7-0.3,59c-0.4,0.1-0.8,0-1.1-0.1"/>
<path fill="none" stroke="#E1E1E1" stroke-miterlimit="10" d="M226,363.5c0.1-0.7,0.1-1.4,0.2-2.2c0.4-4,2.3-7.9,5.2-10.7
	c0.7-0.6,1.7-2,0.9-2.4c-4-2-9-0.8-13.5-1.2c-1.3-0.1-2.5-0.2-3.8-0.5c-0.8-0.2-1.7-0.5-2.5-0.7c-1.2-0.2-2.5-0.2-3.7-0.1
	c-11.7,0.9-22.7,7.7-28.8,17.7"/>
<path fill="none" stroke="#E1E1E1" stroke-miterlimit="10" d="M73.9,240.5c18.8,0.6,37.7-7.5,50.2-21.5"/>
<path fill="none" stroke="#E1E1E1" stroke-miterlimit="10" d="M158.3-9.2c1.1,6,1,12.4,0.2,18.5c-1.4,9.9,3.5,21.3-2.1,29.6
	c-1.1,1.6-1.2,2.8-0.1,4.3c4.3,5.8,8.6,11.7,13.8,16.7c3.7,3.6,7.9,6.8,11.4,10.6c9,9.9,12.7,23.3,16.9,35.9
	c1.7,5,3.7,10.3,8.1,13.2c5.3,3.5,12.2,2.5,18.4,1.3c9.7-1.8,22.2,1.7,29.1-5.4c1.7-1.8,2.8-4.3,5.3-4.1c2.4,0.2,4.5,2.6,4.3,5.1
	c-0.1,1.1-0.5,2.2-0.7,3.3c-0.5,2.6,0.2,5.2,0.8,7.7c1.4,5.3,3,10.9,6.8,14.9c4,4.3,9.8,6.2,15.6,7.3c9,1.7,19.6,1.1,25.6-5.9
	c6.1-7.1,5-17.7,3.9-27.1c-0.4-3.6,0-8.2,3.4-9.3c3-0.9,5.7,1.9,8.2,3.8c4.9,3.7,12,4.4,17.6,1.7c5.6-2.7,9.3-8.8,9.3-15
	c0-2.2-0.4-4.4-1-6.5c-1-3.8-2.6-7.4-4.7-10.7c-2.6-4.2-6-7.9-10.2-10.6c-2.7-1.7-5.7-3.1-7.6-5.5c-2.6-3.2-2.9-8.2-0.6-11.6
	c2.2-3.5,6.8-5.3,10.9-4.2c2.3,0.6,4.3,2,6.3,3.1c7.1,3.9,15.6,5,23.5,3.3"/>
<path fill="none" stroke="#E1E1E1" stroke-miterlimit="10" d="M172.2,362.7c1.4-2.7,2.5-5.7,4.3-8.3c2.6-3.6,6.5-6.1,9.3-9.6
	c2-2.4,3.3-5.3,5.5-7.6c3-3.1,7.3-4.6,11.5-5.2c4.2-0.6,8.6-0.3,12.8-0.3c13.6,0,27.7-10.5,40.5-5.6c2.3,0.9,0.8,4.9-0.3,7.1
	c-1.1,2.2-2.7,4.4-2.8,6.9c0,0.6,0,1.3-0.2,1.9c-0.4,1.2-1.8,1.8-2.6,2.8c-1,1.2-1,3-0.5,4.5c0.5,1.5,2.7,2.4,2.5,3.9
	c-0.4,3.5-2.2,6.5-4.4,9.3"/>
<path fill="none" stroke="#E1E1E1" stroke-miterlimit="10" d="M106.4-10.7C103.7-4.6,102,2.1,103,8.6c0.6,4.4,2.4,8.5,4,12.7
	c1.5,4.1,2,8.9,2,13.8c0,4.5,6.3,4.8,6.2,9.3c-0.2,9.8-2.4,24.1,1.8,27.1c3.3,2.4,10.4-1.5,12.5,2c1,1.6-0.1,4.5,0.2,6.4
	c2.6,15.4,4.8,33.8,5.1,48.1c0.1,3.8-2,7.4,0.8,10.3c1.6,1.7,4.5-0.8,6.3,0.6c6.5,4.8,15,8,21.9,11.9c2.9,1.6,3.4,5.3,6.6,6.2
	c3.8,1.1,11.9-3.1,15.2-0.2c3.6,3.1,5.2,5.4,10.5,6.6c5.4,1.3,7,9.8,8.1,15.3c1.3,6.4,2.7,13.2,0.7,19.4c-2.4,7.6-9.4,13.1-17,15.7
	c-7.6,2.6-17,7.3-23.7,2.9c-2.7-1.8-0.8-7.4-3.6-8.9c-1.4-0.7-3.6,2.3-4.7,1c-1.2-1.4-1.5-3.4-3.4-3.1c-1.9,0.3-3.4,1.6-5.1,2.3
	c-4.1,1.7-9.8,0.4-12.5,3.9c-0.8,1.1-1.2,2.5-1.5,3.9c-1.9,7.8,0.8,18.6-5.6,23.4c-2.3,1.8-7.4-0.7-10.2,0
	c-10.2,2.7-20.3,5.1-30.5,10.2c-1.4,0.7-2.9,1.3-3.8,2.6c-0.9,1.4-0.9,3.3-0.8,5c0.8,17.6,2.3,36.9,14.7,49.4
	c4.2,4.2,8.9,10.9,9.7,16.6c0.4,3.4,2.5,6.8,4.3,9.7c0.3,0.5,0.6,1,1.1,1.2c0.4,0.2,0.9,0.1,1.4,0c2.3-0.5,4.4-1.7,5.8-3.5
	s1.7-4.2,1.5-6.6c-0.2-2.6,0.6-7.8,0.7-10.4c0.1-3.1,0.1-6.4,1.5-9.2c2.5-4.8,9.2-6.9,13.9-4.3c0.8,0.4,1.6,1,2.5,0.8
	c1.7-0.4,2.4-3.6,4.1-2.9c0.3,0.1,0.5,0.3,0.7,0.5c2.9,2.7,5.9,5.5,7.5,9c0.5,1.1,0.9,2.3,1.3,3.5c1.4,4.1,4.3,8.1,5.7,12.3
	c1.2,3.5,4.2,5.9,5.7,9.3c0.9,1.9,1.7,3.8,2.2,5.8c0.5,2.2,0.5,4.4,0.6,6.6c0.1,5.9,0.2,11.8,0.3,17.7"/>
<path fill="none" stroke="#E1E1E1" stroke-miterlimit="10" d="M168.5,127.9c0.8,0.1,1.7-0.1,2.4,0.1c0.9,0.3,1.6,0.9,2.4,1.5
	c3.9,2.7,11.8,5.9,14,1.7c4.6-8.6-1.3-25.4,0.2-36.4c0.4-3.1-1.9-6.6-4.9-7.2c-0.7-0.2-1.6-0.1-2.2-0.5c-1.2-0.6-1.5-2.2-2-3.4
	c-0.5-1.3-1.9-3.1-2.9-2.2c-7.1,5.6-8.6,15.9-11.5,24.4c-2.1,6.2-3.7,13.5,0,19C165,126.4,166.6,127.8,168.5,127.9z"/>
<path fill="none" stroke="#E1E1E1" stroke-miterlimit="10" d="M129.7,140.1c1,0.7,1.3,2,1.4,3.3c0.1,0.8,0.7,1.7,0.2,2.4
	c-1,1.8-4.3-0.2-5-2.1c-0.4-1-0.2-2.2,0.5-3C127.5,139.8,128.8,139.5,129.7,140.1z"/>
<path fill="none" stroke="#E1E1E1" stroke-miterlimit="10" d="M322.1,362.6c2.9-2.7,6.3-4.8,10.2-5.3c6.4-0.8,13.3-3.1,19.1-0.2
	c1.8,0.9,2.2,3.3,4.1,4c0.9,0.3,1.9,0.6,2.9,0.9"/>
<path fill="none" stroke="#E1E1E1" stroke-miterlimit="10" d="M369.7,129.6c-0.7,0.5-1.4,1-2.2,1.5c-4.6,2.5-9.5,4-13.5,7.3
	c-2.9,2.4-6.1,5.6-5.1,9.2c0.4,1.4,1.5,2.7,1.3,4.2c-0.1,1.2-1.1,2.2-1.8,3.2c-2,2.9-2,6.7-2.8,10.2c-0.8,3.5-3.4,8.4-6.7,7.1
	c-6-2.2-13.5-2.5-16.7,3.1c-0.6,1.1-1.1,2.3-1.9,3.2c-1.1,1.2-2.7,1.9-4.4,2c-6.3,0.4-13.2-10.5-7.5-13.2c1.1-0.5,2.7-0.4,3.7,0.3
	c1,0.7,0.6,3,1.8,2.8c4.8-0.9,4.6-12.8-0.2-14.1c-3.9-1.1-4.7,6-8.6,5.1c-9.2-2.2-19,0.4-28.1-2c-2.9-0.8-5.7-1.7-8.6-2.7
	c-3.6-1.3-7.4-2.6-10-5.4c-4.7-5-4.5-13-8.6-18.5c-4.3-5.7-12.4-7.2-19.5-6.3s-13.8,3.7-20.9,4.8c-2.2,0.3-4.5,0.5-6.4-0.6
	c-2.8-1.5-5.8-0.4-8-2.7c-3.1-3.4-3.4-21.7-5.1-32.5c-0.5-3.2-1.1-6.5-3.2-8.9c-1.3-1.5-3.9-2-4.3-3.9c-0.4-1.9-1.3-4.1-2.8-5.4
	c-0.5-0.4-1.1-0.7-1.6-1.2c-0.8-0.8-1.1-2-1.7-2.9c-2.9-4.5-6-12-10-13.1c-4.2-1.2-5.5,6.7-7.4,10.6c-5.7,11.3-9.7,23.4-12.1,35.7
	c-0.5,2.5-0.9,5-1,7.5c-0.2,8.9,4.8,17.8,12.6,22.3c3.4,1.9,7.2,3.1,10.9,4.2c3.5,1,7,2,10.4,3.1c4.9,1.4,9.8,2.9,14.3,5.4
	c9.2,5.1,15.7,14.1,19.3,23.9s4.5,20.4,4.6,30.9c0,6.2-0.9,13.6-6.3,16.5c-2.3,1.2-4.9,1.4-7.5,1.8c-5.3,0.8-10.5,2.6-15.6,4.4
	c-2.2,0.8-3.5,2.5-4.6,4.5c-1,1.8-3.9,2.8-4.3,4.9c-0.1,0.6-0.1,1.2-0.5,1.6c-0.3,0.4-0.8,0.5-1.3,0.6c-2.9,0.7-5.8,1.4-8.6,2.2
	c-0.9,0.2-1.7,0.4-2.6,0.3c-0.8-0.1-1.5-0.5-2.3-0.8c-2-0.7-4.1-0.4-6.2-0.4c-1.6,0-3.2-0.1-4.7-0.7c-1.7-0.7-3.1-2.1-4.7-3.1
	c-1.6-1-3.7-1.6-5.3-0.6c-1.8,1.1-2.1,3.5-1.9,5.5c0.1,2.1,0.5,4.3-0.5,6.1c-1.4,2.5-4.7,3.1-7.6,3.4c-6.7,0.7-13.4,1.4-20.1,0.6
	c-2.3-0.3-5.3-0.3-6,1.9c-0.4,1.2,0.2,2.5,1.2,3.3c1,0.8,2.2,1.2,3.4,1.5c8.4,2,17.4,1,25.2-2.7c3.2-1.5,6.4-3.6,9.9-3.1
	c0.5,0.1,1,0.2,1.4,0.5c0.6,0.4,0.9,1.1,1.1,1.8c1.3,3.3,2.6,6.5,3.1,10c0.2,1.6,0.2,3.3,0.6,4.9c0.5,2,1.6,3.9,2.5,5.8
	c3,6.4,3.2,13.7,5.3,20.4c3.2,10.2,10.8,18.5,15.3,28.2c0.7,1.5,1.6,2.6,2.7,3.9c0.4,0.5,0.9,1,1.3,1.5c0.7,0.8,1.5,1.6,2.5,1.5
	c0.8-0.1,1.3-0.7,1.9-1.2c1.7-1.5,3.9-2.4,6-3.2c1.8-0.7,3.6-1.2,5.3-2.1c1.9-1,5.5-3.7,7.3-5c7.4-5.8,18-3.8,27.1-6
	c8.2-2,15.1-7.8,23.3-9.5c3.7-0.7,7.5-0.6,11.2-1.2c9.9-1.7,18-8.7,25.7-15.3c7.7-6.6,17.8-19.5,26.3-13.9c5.2,3.5,1,12.5-0.6,18.6
	c-2.9,11.2-9,21.5-14.9,31.5c-6.8,11.5-15.9,21.3-24.3,31.6c-1.6,2-3.2,4-5.3,5.5c-1.5,1.2-3.2,2.1-4.8,3.1"/>
<path fill="none" stroke="#E1E1E1" stroke-miterlimit="10" d="M371.4,259.5c-8.7-3.3-15.9-10.6-18.8-19.4
	c-2.1-6.1-2.2-12.7-2.3-19.1c-0.2-11.6,6.9-26-0.6-34.9c-5.7-6.7-12.7,11.2-20.9,14.6c-5.7,2.4-12.1-0.4-17.6-3
	c-4.8-2.3-10-5.2-11.5-10.3c-0.6-2.2-0.5-4.5-1-6.8c-1.7-7.5-12.5-11-18.3-5.9c-0.8,0.7-1.6,1.6-2.7,2c-0.8,0.2-1.7,0.1-2.5,0
	c-14.2-2.7-26.2-14.7-28.8-28.9c-0.4-2.2-0.6-4.5-2.1-6.2c-2-2.4-5.5-2.6-8.6-2.7c-10.9-0.1-26.8-8.7-32.6,0.5
	c-7.8,12.5,14.8,25.5,21.2,38.7c6.6,13.4,10.7,28,12,42.9c0.9,10-0.7,22.3-9.8,26.5c-8.3,3.8-19.2-1.2-26.8,3.9
	c-1.8,1.2-3.4,3-5.5,3.6c-4.7,1.3-10.3-3.8-14.2-0.8c-1.3,1-1.9,2.7-2.3,4.2c-4.7,16.3-1.9,34.7,7.6,48.8c0.6,0.9,1.2,1.8,2.2,2.2
	c1.2,0.5,2.5,0.2,3.8-0.1c15-4,29.3-10.8,41.8-19.9c6.7-4.9,13-10.4,20.5-13.8c8-3.6,17-4.4,25.1-7.7c8.4-3.5,15.5-9.5,23.6-13.7
	c11.5-6,24.9-8.1,37.6-5.9c1.5,0.3,3.1,0.6,4.4,1.4c3.4,2.2,3.8,6.9,3.6,10.9c-1,22.4-14.5,43.3-28.3,60.3c-7,8.7-12.5,18.6-21,25.8
	c-1.1,1-2.4,2.2-2.2,3.7c0.2,1.1,1.1,1.9,2.2,2.3c3.6,1.3,7.4-1.4,10.3-4c2-1.8,4-3.5,6-5.3c3.3-2.9,6.8-6,11.1-7.1
	c3-0.8,6.2-0.6,9.4-0.8c3.7-0.3,7.3-1.2,10.7-2.8c6.4-3,14-13.1,19.2-8.3c2.2,2.1,2.6,5.8,5.6,6.5"/>
<path fill="none" stroke="#E1E1E1" stroke-miterlimit="10" d="M371.4,307.5c-3.6,1.1-7.1,1.9-10.2,1.9c-3.8,0-8.1,3.9-11.3,1.6
	c-2.1-1.5-3.7-3.7-4.3-6.2c-0.5-2.6,2.7-4.1,4.5-6c2.3-2.4,2.7-5.9,3.6-9.1c0.8-2.8,2.1-5.5,3.3-8.2c1.5-3.3,3.1-6.6,5.7-9.1
	c1.9-1.9,4.5-3.3,7.1-3.5"/>
<path fill="none" stroke="#E1E1E1" stroke-miterlimit="10" d="M232.2,178.8c0.1,1.5,0.6,2.9,1.2,4.2c1.9,4.5,3.8,9.1,7.1,12.8
	c2.7,3.1,6.3,5.3,8.8,8.6c5.5,7.2,4.6,17.2,3.5,26.2c-0.2,1.5-0.4,3.1-1.2,4.5c-0.9,1.5-2.4,2.5-3.5,3.9c-2.4,2.9-2.8,7.1-5.1,10.1
	c-2.7,3.7-7.8,5.3-10.2,9.2c-0.6,1-1,2.2-1.8,3.2c-1.5,1.9-4.2,2.5-6.6,2.9c-8.9,1.5-17.9,2-26.9,1.3c-1.1-0.1-2.3-0.1-3.1,0.6
	c-0.6,0.6-0.8,1.5-1,2.4c-0.3,2.4-0.3,5,0.8,7.3c2,4.2,7.1,5.8,11.7,6.2c7.2,0.6,14.5-0.7,21.1-3.8c3.3-1.5,6.3-3.5,9.4-5.5
	c9.4-6,18.7-12,28.1-18.1c3.5-2.3,7.1-4.6,10.4-7.1c2.6-2,5.1-4.2,7.8-6.1c6.1-4.4,13.1-7.3,20.2-10.1c5.3-2.1,11.1-4.1,16.7-2.8
	c2.7,0.6,5.2,2,7.9,2.8c2.7,0.7,6.9,1.4,8-1.2c2.4-5.9-0.8-12.7-1.1-19c0-0.5-0.1-0.9-0.2-1.3c-0.6-1.6-2.9-1.8-4.4-0.9
	c-1.5,0.8-2.5,2.3-3.9,3.3c-3.6,2.8-8.8,2.2-12.9,0.4s-7.7-4.8-11.8-6.7c-3.2-1.5-6.6-2.3-9.6-4.1c-3-1.8-2.9-6-5.5-8.3
	c-4-3.6-10.5-1.5-15.4-3.7c-5.7-2.7-11.5-5.3-17.2-8c-2.6-1.2-5.5-2.6-6.8-5.2c-0.9-1.8-1-4.1-2.4-5.6c-1.1-1.2-2.8-1.8-3.5-3.3
	c-0.9-2,0.7-4.3-0.1-6.3c-0.5-1.2-1.6-1.9-2.3-2.9c-0.8-1.1-1-2.4-1.6-3.6c-1.5-3.1-5.4-4.8-8.7-3.7c-1.3,0.4-2.5,1.3-2.9,2.6
	c-0.6,1.9,0.7,3.9,1.6,5.7s-0.9,3.3-0.9,5.4c0,4.3,6.9,5.8,6.6,10.1C232.5,176.3,232.2,177.5,232.2,178.8z"/>
<path fill="none" stroke="#E1E1E1" stroke-miterlimit="10" d="M244.5,183.7c-2.5,3.6,4.8,7.6,9,8.7c1.5,0.4,3.1,0.6,4.6,1
	c3.4,1,6.4,3.4,8,6.6c2,3.9,1.8,8.5,1.3,12.9c-1.7,13.3-4.6,24.2-14.2,36.3c-2.4,3,7.3-1,10.2-3.5c11.4-9.7,27.2-13.6,39.2-22.9
	c1.7-1.3-0.4-4.2-2.1-5.4c-1.7-1.2-3.8-1.8-5.6-2.7c-5.7-2.8-9.3-8.8-14.6-12.3c-2.2-1.5-4.7-2.5-7.4-3.1c-1.5-0.3-3.3-0.5-4.3-1.7
	c-0.9-1-1.2-2.4-2.1-3.3c-1-0.9-2.5-1-3.8-1.4C255.9,191.3,248.5,178.1,244.5,183.7z"/>
<path fill="none" stroke="#E1E1E1" stroke-miterlimit="10" d="M344.9-8.7c0.4,5.4,0.5,10.7-0.2,16.1c-0.5,3.7-1.4,7.4-1.4,11.1
	c-0.1,11.7,9.1,22.7,20.6,25.1c2.3,0.5,4.6,0.6,6.9,0.4"/>
<path fill="none" stroke="#E1E1E1" stroke-miterlimit="10" d="M167.5-8.7c-0.4,5.8-1.3,11.6-2.4,17.4c-1.1,5.9-2.5,11.9-2.2,17.9
	c0.3,6,9.3,10.1,7.5,15.8c-0.3,1-0.6,2.7,0.3,3s2-0.1,3,0.1c2.8,0.5,2.9,4.4,3.6,7.2c1.6,6.6,9.5,9.2,14.6,13.8
	c10.7,9.9,6.8,28.2,14.2,40.8c1.1,1.9,2.6,3.8,4.7,4.7c2.3,1,4.9,0.7,7.4,0.4c12-1.6,24-3.8,35-8.7c3.5-1.6,6.9-3.4,10.1-5.5
	c2.5-1.7,4.5-4.1,4.8-7.2c0.1-1.8,1.1-3.4,1.6-5.1c1.1-3.5,2.4-7.2,5.3-9.4s8-1.9,9.4,1.5c0.9,2.3,0,5,0.9,7.2
	c1,2.4,4.2,3.5,6.5,2.3c5.9-3.3,5.9-6,1.4-6.8c-1.5-0.3-2.4-1.9-3.4-3c-1.9-2-3-4.9-2.8-7.7c0.5-7.2-5.1-10.4-9.3-14.3
	c-4.2-3.9-4.4-11.9-0.1-15.7c2.3-2.1,5.8-2.5,8.2-4.5c3.5-2.9,4.2-8.2,7.5-11.3c4.4-4.1,11.3-2.6,17.2-3.4c9.7-1.2,17.5-8.9,22-17.6
	c0.7-1.3,1.3-2.7,1.2-4.2c-0.2-2.9-3-4.8-5.1-6.8"/>
<path fill="none" stroke="#E1E1E1" stroke-miterlimit="10" d="M21.6-9.5C13.8-0.8,14.1,2.7,4.3,10.7c-2,1.6-3.5,3.1-5.1,4.4
	c-0.1,0.1-0.9,0.3-1.9,0.6"/>
<path fill="none" stroke="#E1E1E1" stroke-miterlimit="10" d="M183.6-11.1c-0.1,0.4-0.2,0.7-0.3,1.1c-1,3.6-3.3,6.7-4.9,10.1
	c-4.6,9.6-3.7,20.9-2.7,31.5c0.8,8.1,7.9,14.4,13.5,20.2c5.7,5.8,23.1,11.7,22.2,3.6C210,42.5,221.7,27,245,29.7
	c5.1,0.6,9.7,3.4,14.9,3.5c9.5,0.2,17.3-7.3,23.8-14.3c7.7-8.3,15.9-17.9,18.3-28.5"/>
<path fill="none" stroke="#E1E1E1" stroke-miterlimit="10" d="M228.6-10.2c5.1,11,13,20.9,33.6,23.3c2.3,0.3,4.8,0.8,7,0
	c1.7-0.6,3.1-1.7,4.3-3c5.1-5,13.9-13.7,9.1-18.9"/>
<path fill="none" stroke="#E1E1E1" stroke-miterlimit="10" d="M261.2-2.9c1.6-0.3,3.4-0.1,3.8-1.6s-0.6-3.3-2-4
	c-1.5-0.7-3.2-0.5-4.7,0.1c-0.7,0.3-1.3,0.6-1.9,0.9c-1.1,0.4-2.3,0.4-3.2,1c-2,1.2-2.1,4.1-1.9,6.4c0,0.3,0,0.5,0.2,0.7
	c0.2,0.2,0.4,0.2,0.6,0.2C254.4,1,259-2.4,261.2-2.9z"/>
<path fill="none" stroke="#E1E1E1" stroke-miterlimit="10" d="M192.8,362.7c6.4-4,15-6.8,21.9-3.9c1,0.4,0.3,2-0.2,2.9
	c-0.3,0.4-0.6,0.8-0.9,1.2"/>
<path fill="none" stroke="#E1E1E1" stroke-miterlimit="10" d="M-3,325.9c0.8,0,1.5-0.1,2.3-0.2c3.3-0.4,7-4.1,9.8-2.2
	c2.2,1.5,0.7,5.3,1,7.9c0,0.3,0.1,0.7,0,1c-0.2,0.5-0.6,0.9-1,1.2c-1.9,1.8-2,4.8-1.5,7.4c0.6,2.6,1.7,5.1,1.8,7.7
	c0,0.7,0,1.4-0.2,2c-0.4,1.3-1.6,2.3-2.6,3.3c-1.8,1.8-3.4,3.9-5,6c-0.7,0.9-1.4,1.8-2,2.7"/>
<path fill="none" stroke="#4E9BD7" stroke-miterlimit="10" d="M113,189.5c1.1,0.4,2.2-0.6,2.7-1.7s0.8-2.3,1.7-3.1
	c1.2-0.9,2.9-0.6,4.3-0.4c5.1,1,10.4,1.3,15.6,0.8c1.4-0.1,2.8-0.3,4,0.3c0.7,0.3,1.3,0.8,2.1,1c1.2,0.2,2.3-0.5,3.3-1.1
	c4.7-2.4,11.2-1,16.2,0.5"/>
<path fill="#7BBCEB" stroke="#4E9BD7" stroke-miterlimit="10" d="M169.2,180c1.8-1.1,3.1-2.9,4.5-4.6c1.9-2.3,4.2-4.3,6.7-6
	c1.4-0.9,4.3-1.2,5,0.3c0.2,0.4-0.1,1.1,0.2,1.4c0.7,0.7,1.1,0.9,1.5,1c2.4,0.7,3.9,1.2,5.7,3c0.5,0.5,1,1.1,1.1,1.8
	c0.1,0.8,0.4,2.4,0.3,3.1c-0.4,2.9,4.1,4.7,2.4,7c-3.7,4.9-10.5,2.1-11.2,1.5c-0.8-0.7,0.8,2.5,0,3.3c-1.2,1.2-3.3-1-5-1.5
	c-1.7-0.5-3,0.9-4.7,1.1c-0.9,0.1-1.7-0.5-2.4,0c-0.7,0.5-1.2,1.3-1.9,1.9c-1.3,1.2-3.4,1.6-4.9,0.8c-1.5-0.9-0.2-2.9-0.9-4.5
	c-0.6-1.4-3.6,0.3-4.4-0.9c-0.2-0.3-0.3-1,0-1.3c0.6-0.6,1.7-0.2,1.9-1c0.4-1.8-1.3-3.8,0.2-4.8c0.6-0.4,1.3-0.4,2-0.4
	C166.8,181,168.1,180.7,169.2,180z"/>
<path fill="#EAEAEA" stroke="#D6D6D6" stroke-miterlimit="10" d="M105.1,192.8c0.2-0.5,0.7-0.8,0.9-1.2c0.6-1.1,0.2-2.5,0.3-3.7
	c0.2-2.4,3.7-6,5.1-4c0.7,1-0.6,2.4-0.9,3.6c-0.1,0.2-0.1,0.5,0,0.7c0.1,0.2,0.4,0.2,0.6,0.3c3,0.8,4.3,4.5,3.9,7.6
	c-0.4,3.1-3.2,8.5-0.6,10.2c0.7,0.5,2,0.5,2.4,1.3c0.5,0.9,1.1,1.9,0.8,2.9c-0.3,1.1-1.5,1.7-2.6,2.2c-1.5,0.6-3.2,1.5-4.7,1.1
	c-1.3-0.3-2.2-1.4-3.4-2s-1.9,0.8-3,0.1c-1.2-0.7-1.8-7.5-0.7-10.6c0.7-1.9,2.4-2.3,2-5.1C104.9,195,104.6,193.8,105.1,192.8z"/>
<path fill="none" stroke="#D6D6D6" stroke-miterlimit="10" d="M9.3,192.3c1-4.8,4-9.1,8.2-11.7c1.6-1,3.4-1.8,5-2.8
	c5.5-3.6,8.6-10.6,7.4-17c-0.3-1.9-1-3.7-1.3-5.6c-0.6-3.5-0.1-7.2,0.4-10.7c0.2-1.5,0.4-3,1.1-4.4c0.5-1,1.3-1.8,1.7-2.8
	c1.1-2.5,0.3-5.5,1.7-7.8c1.5-2.5,5.2-3.2,6.1-6c0.2-0.6,0.3-1.4,0.8-1.8c0.3-0.2,0.7-0.3,1-0.5c0.7-0.6,0.2-1.7-0.5-2.1
	c-0.8-0.4-1.7,0.2-2.6-0.1c-1.4-0.5-0.2-3,1-4.1s2.3-1.8,3.2-2.8"/>
<path fill="#FFFFFF" stroke="#D6D6D6" stroke-miterlimit="10" d="M107.7,203.4c-0.3,0.7,0.4,1.5,1.1,1.5c1.1,0,2.2-1.6,1.4-2.3
	c-0.6-0.5-1.5-0.1-2.1,0.3C107.9,203.1,107.8,203.2,107.7,203.4z"/>
<path fill="#EAEAEA" stroke="#D6D6D6" stroke-miterlimit="10" d="M290.4,133.4c-1-0.7-1.2-2-1.9-3c-0.5-0.8-1.3-1.3-1.7-2.1
	c-0.3-0.7-0.3-1.5-0.3-2.3c0.1-2.8,0.8-5.5,0.8-8.3c0-2.2-0.3-4.5-0.7-6.7c-0.1-0.9-0.3-1.8-0.6-2.6c-0.2-0.7-1.1-1.3-1.3-2
	c-0.5-1.6-0.5-3.2-0.5-4.9c0-0.4,0.6-0.9,0.7-1.2c0.2-0.4,0.5-0.6,0.8-0.9c1.4-1.1,2.9-2.1,4.3-3.2c0.4-0.3,0.8-0.6,1.3-0.6
	c0.5,0,1,0.4,1.3,0.8c0.6,0.7,1.1,1.5,1.4,2.3c0.1,0.3,0.3,0.7,0.5,0.9c0.2,0.3,0.5,0.5,0.8,0.8c1.1,0.8,2.4,1.4,3.6,2.1
	c1.2,0.7,2.3,1.6,2.9,2.9c0.2,0.4,0.3,0.8,0.5,1.2c0.2,0.4,0.5,0.7,0.8,1c1.3,1.4,1.9,3.3,2.2,5.2c0.3,1.9,0.7,3.8,0.5,5.7
	c-0.1,1.1,0,2.5-0.4,3.5c-0.4,1-1.9,1.6-2.6,2.5c-1,1.3-1.9,3-1.9,4.6c0,1.6-0.6,2.8-2,3.3c-1,0.4-1.9,0.8-3,1
	c-1.1,0.1-2.3,0.3-3.4,0.3C292,134,291.1,133.9,290.4,133.4z"/>
<path fill="#EAEAEA" stroke="#D6D6D6" stroke-miterlimit="10" d="M215,98.2c-0.7-1-1.4-2.1-1.8-3.4c-0.3-1.1-0.3-2.2-0.3-3.3
	c0-3.2,0-6.3-0.1-9.5c0-1.7,0-3.5,0.7-5c0.8-1.6,2.3-3,2.3-4.8c0-1-0.6-1.9-0.5-2.9c0.2-1.5,2.1-2.4,3.3-1.6c0.7,0.4,1.1,1.2,1.6,2
	c2.3,3.8,6.6,5.9,9.6,9.2c1.1,1.2,2.1,2.6,3.6,3.2c0.4,0.2,0.7,0.3,1.1,0.4c0.3,0.1,0.5,0.3,0.8,0.5c1.4,0.9,3.1,1.2,4.6,2
	c0.2,0.1,0.4,0.2,0.5,0.4c0.3,0.4,0.2,0.9,0.1,1.4c-0.1,1.1,0.1,2.3,0.7,3.3c0.2,0.3,0.4,0.6,0.4,1c0,0.4-0.3,0.7-0.6,0.9
	c-0.7,0.7-1.4,1.5-2.2,2.2c-0.5,0.5-1,1-1.6,1.1c-0.8,0.2-1.7-0.2-2.4,0.3c-0.9,0.6-0.9,2.3-2,2.5c-0.6,0.1-1.1-0.2-1.7-0.3
	c-0.6,0-1.1,0.4-1.3,0.9c-0.1,0.3-0.1,0.5-0.2,0.8c-0.1,0.2-0.3,0.4-0.5,0.6c-1.1,1-2.5,1.9-3.9,2.4c-1.4,0.5-3.1,0.7-4.5,0
	c-0.5-0.3-0.9-0.6-1.4-0.9c-0.7-0.5-1.6-0.8-2.3-1.4C216.2,99.9,215.6,99,215,98.2z"/>
<path fill="#EAEAEA" stroke="#D6D6D6" stroke-miterlimit="10" d="M208.8,7.2c1.2-5.3,3.4-16.3-1.4-14.8c-7,2.2-15,15.1-12.9,22.8
	c0.4,1.5,2,1.5,2.1,2.4c0.1,1.4,0.3,3.1,2.8,4.1c3,1.1,4.6-1.8,6.1-5.2c0.3-0.6,0.5-1.1,0.7-1.7c0.1-0.2,0.1-0.4,0.2-0.5
	c0.1-0.2,0.3-0.3,0.4-0.5c0.4-0.4,0.8-0.8,1.1-1.2c0.2-0.2,0.4-0.4,0.4-0.6c0.1-0.2,0.1-0.4,0.1-0.6C208.5,10,208.5,8.5,208.8,7.2z"
	/>
<path fill="none" stroke="#D6D6D6" stroke-miterlimit="10" d="M207.5,13.2C207.5,13.2,207.5,13.2,207.5,13.2c1.8,1.1,1.3,4,1.2,6.1
	c-0.3,3.9-1.2,7.8-2.4,11.5s-2.4,7.4-2.7,11.3c-0.2,3.9,0.1,8,2.8,10.8c1.7,1.9,4.1,3.1,5.4,5.3c0.5,0.9,0.8,1.9,1.4,2.7
	c0.3,0.4,0.6,0.7,0.9,1.1c0.3,0.4,0.5,0.9,0.6,1.3c0.5,1.3,1.2,3,1.8,4.3"/>
<path fill="none" stroke="#D6D6D6" stroke-miterlimit="10" d="M240.9,86.3c3.6-0.9,7-3,9.3-5.9c0.3-0.4,0.6-0.8,0.6-1.2
	c0-0.3,0-0.7,0.1-1c0.1-0.3,0.5-0.5,0.7-0.7c1.5-1,2.1-2.9,2.8-4.6s1.9-3.5,3.7-3.6c0.6,0,1.2,0.1,1.7-0.1c0.6-0.2,1-0.6,1.4-1
	c2.4-2.3,5.4-4.3,8.6-4.3c1.7,0,3.4,0.5,5.1,0.3c1.5-0.2,2.8-0.9,4.2-1.3s3.2-0.1,4,1.2c0.3,0.5,0.4,1,0.5,1.5
	c0.7,3.7,1.6,7.4,2.6,11c0.2,0.7,0.4,1.4,0.8,2c0.5,0.8,1.2,1.4,1.9,2c1.2,0.9,2.6,1.8,4.1,2.2c0.5,0.2,1.2,0.5,1,1
	c-0.1,0.2-0.3,0.4-0.5,0.5c-1.1,0.7-2.4,0.8-3.7,1.2c-1.2,0.4-2.5,1-3,2.3c-0.1,0.4-0.1,0.8,0.1,1.1c0.2,0.3,0.5,0.5,0.7,0.8
	c0.3,0.5,0.1,1.2,0.2,1.8c0.3,1.6,3.8,3.5,3.1,4.2"/>
<path fill="#EAEAEA" stroke="#D6D6D6" stroke-miterlimit="10" d="M371.4,41.6c-3.4,0-6.9,0-10-1.4c-2.3-1.1-4.8-3.6-6.5-14
	c-0.5-2.9-0.9-5.8-0.9-8.7c0-2,0.5-4.1,1.3-5.9c1.3-2.9,3.7-5.8,6.9-6c0.5,0,1,0,1.5-0.2c0.3-0.2,0.6-0.5,0.9-0.8
	c0.8-0.9,1.5-1.8,2.1-2.8c0.5-0.8,0.8-1.8,1.3-2.6c0.5-0.8,1.4-1.5,2.3-1.4c0.4,0,0.7,0.1,1.1,0.3"/>
<path fill="#EAEAEA" stroke="#D6D6D6" stroke-miterlimit="10" d="M312.7,178.4c-1.3-0.3-2.2-1.5-2.7-2.8c-0.4-1.3-0.4-2.6-0.4-4
	c0-0.5,0-1.2,0.5-1.5c0.4-0.3,1-0.1,1.3,0.2c0.4,0.3,0.6,0.7,0.9,1.1c1.2,1.7,3.4,2.6,5.4,2.4c0.6-0.1,1.2-0.3,1.9-0.2
	c0.6,0,1.3,0.3,1.5,0.9c0.4,0.9-0.6,1.8-1.5,2.3c-1.6,0.9-3.4,1.4-5.2,1.6C313.9,178.5,313.3,178.6,312.7,178.4z"/>
<path fill="#EAEAEA" stroke="#D6D6D6" stroke-miterlimit="10" d="M333.1,153.4c-0.4-0.5-1-0.9-1.6-1.2c-0.7-0.3-1.5-0.3-2.2,0
	c-0.7,0.2-1.3,0.8-1.3,1.5c0,0.6,0.4,1,0.9,1.4c1.6,1.4,5.1,2.9,5.7,0.9C334.9,155,333.8,154.1,333.1,153.4z"/>
<path fill="#EAEAEA" stroke="#D6D6D6" stroke-miterlimit="10" d="M328.9,136.4c0.9,0.5,2.4,0.4,2.6-0.6c0.2-0.8-0.7-1.5-1.5-1.8
	c-0.6-0.2-1.2-0.4-1.7-0.1c-0.4,0.3-0.5,0.9-0.3,1.4C328.1,135.8,328.5,136.1,328.9,136.4z"/>
<path fill="none" stroke="#D6D6D6" stroke-miterlimit="10" d="M316.3,277.6c-1.7,1.5-3.3,3-5,4.5c-1.2,1.1-2.5,2.3-3.4,3.7
	c-0.8,1.3-1.2,2.7-2.2,3.8c-0.9,1.1-2.5,0.6-3.9,1.3c-1.1,0.5,1.5,1.7,2.3,2.7c1,1.1,0.4,3-0.9,3.9c-1.2,0.9-3.1,0.2-4.3,1.1
	c-2,1.5,0.7,4.7,0,7c-0.4,1.1-2.4,1.5-3.3,0.8c-0.7-0.5-1.4-2.5-1.6-1.7c-0.5,1.8-0.8,3.5-2.8,4.5c-2.4,1.2,2.1,6.2-0.1,7.7
	c-2.5,1.6-8.9,0.6-13.2,3.3c-0.4,0.2-0.9,0.2-1.3,0c-0.3-0.2-0.5-0.6-0.7-0.9c-0.9-1.5-3.1-2-4.8-1.5c-1.7,0.4-3.2,1.6-4.6,2.7
	c-6.6,5.2-13.1,10.4-19.7,15.7c-2.2,1.8-4.5,3.6-6.4,5.8c-0.9,1-1.6,2.1-2.6,3c-1,1-2.2,1.7-3.4,2.5c-4,2.5-8.1,5-12.1,7.5
	c-4,2.5-8.1,5-11.6,8.1"/>
<path fill="none" stroke="#D6D6D6" stroke-miterlimit="10" d="M139.2,321.3c-2.8,4.1-1.7,9.6-2.6,14.4c-1.4,7.4-7.2,13.2-10.1,20.2
	c-1.1,2.6-1.7,5.4-2.6,8.1"/>
<path fill="#EAEAEA" stroke="#4E9BD7" stroke-miterlimit="10" d="M78.2,220.1c-0.7-0.3-1.7-0.1-2.2,0.5c-0.5,0.6-0.9,1.8-0.2,2.2
	c0.5,0.4,1,0.8,1.4,1.3c0.7,0.7,1.9,0.8,2.7,0.3s1.8-1.9,1.1-2.5C80.2,221.2,79.3,220.5,78.2,220.1z"/>
<path fill="none" stroke="#4E9BD7" stroke-miterlimit="10" d="M81.3,222.1c3.7,0.2,3.7-3.5,4.6-5.1c0.4-0.7,1.6,0,2.2-0.6
	c0.6-0.6,0.9-1.3,1.2-2.1c0.7-1.7,1.4-3.5,2.1-5.2c0.3-0.6,0.5-1.3,0.9-1.9c1-1.5,2.8-2.4,4.6-2.6s3.6-0.1,5.4,0.2"/>
<path fill="none" stroke="#4E9BD7" stroke-miterlimit="10" d="M75.2,221.6c-1.7,0-3.5,0.1-5.2-0.4c-1.7-0.5-3.2-1.6-3.9-3.2
	c-0.2-0.5-0.3-1-0.7-1.4c-0.4-0.3-1-0.4-1.5-0.4c-2.3-0.1-4.7-0.3-7-0.4c-1.2-0.1-2.4-0.2-3.3-1c-0.6-0.6-1-1.4-1.6-2
	c-2.3-2-6.1,1-8.8-0.3c-1.3-0.6-2-2-3.3-2.8c-0.9-0.5-1.9-0.6-2.9-1c-1.2-0.5-2.3-1.4-3.2-2.3c-3.7-3.3-7.5-6.8-12.4-8.1
	c-1.1-0.3-2.4-0.5-3.2-1.2c-0.6-0.5-1-1.3-1.5-2c-1.4-1.9-3.8-3.1-6.2-3c-2.4,0.1-4.6,1.4-6.7,2.6C1.9,195.9,0,197-2,198.2"/>
<g>
	<g>
		<path fill="none" stroke="#585858" stroke-miterlimit="10" d="M131.2-8.2c-0.3,0.6-0.7,1.1-1,1.7"/>
		<path fill="none" stroke="#585858" stroke-miterlimit="10" stroke-dasharray="3.9983,0.9996" d="M129.6-5.7
			c-0.4,0.6-0.8,1.2-1.1,1.9c-2.6,4.2-6.3,6.9-10,10.2c-2.8,2.5-6.8,3.6-10.5,2.8c-1.8-0.4-3.5-1.1-5.4-1c-1.8,0.2-1.7,4.6-3.2,3.6
			c-1.1-0.7-10.1-4.3-15.3-0.3c-3.1,2.5,2.5,5.4-0.3,8.3c-0.7,0.8-4.1-0.5-6.3,3.4c-0.4,0.7-1.8-0.7-2.4-0.1c-0.7,0.6,0.9,2.6,0,2.8
			c-1.1,0.3-2.2-0.3-2.5,0.8c-0.3,1.1,1.3,2.1,0.8,3.1c-0.4,0.8-2.2-0.4-2.8,0.3c-0.5,0.6,0.9,1.7,0.4,2.3c-0.4,0.6-1.9-0.3-2.2,0.4
			c-1.1,2.3,1.6,4.9,1,7.4c-0.6,2.7-2.2,5.2-3.8,7.5c-1.5,2.2-3.9,1.9-6.4,2.9c-1.8,0.7,1.2,4.6-0.4,5.7c-0.8,0.6-2.2-0.7-2.9,0
			c-1,0.9,0.5,2.9-0.4,3.9c-0.9,1-2.8-1.6-3.8-0.7c-1.3,1.1,1.8,3.4,1.1,4.9c-0.5,1.2-3-0.2-3.7,0.9c-1.2,1.7,3,4.7,1.4,6.2
			c-0.6,0.6-2-0.9-2.7-0.3c-1.2,1.2,2.6,3,1.9,4.6c-0.4,0.9-1.2,0.5-2,0.1c-0.9-0.4-1.5-1.5-2.4-1.3c-1,0.2,0.5,2.7,0.7,3.6
			c0.2,0.9,1.9,2.1,1.1,2.5c-4.1,2.2-19.8,4.8-29.3,8.6c-3.2,1.3-6.7,2.8-8.4,5.9c-2,3.6-0.8,8.1-0.4,12.3c0.9,9.3-3,18.9-9.9,25.1"
			/>
		<path fill="none" stroke="#585858" stroke-miterlimit="10" d="M-0.8,132.9c-0.5,0.4-1,0.9-1.6,1.3"/>
	</g>
</g>
<g>
	<g>
		<path fill="none" stroke="#585858" stroke-miterlimit="10" d="M110.7,9.6c-0.2,0.5-0.3,1.2-0.4,2"/>
		<path fill="none" stroke="#585858" stroke-miterlimit="10" stroke-dasharray="4.0377,1.0094" d="M110.3,12.6
			c0.1,1.3,0.4,2.6,1.1,3.6c1.3,1.9,3.1,3.8,2.9,6.1c-0.1,1.9-1.6,3.4-2.3,5.1c-1.5,3.4,0.1,7.8,3.3,9.5c1.1,0.6,2.3,0.9,3.2,1.7
			c3.2,2.7,0.7,8.1,2.4,12c0.4,1,1.1,1.8,1.6,2.7c2.9,5.1-0.1,11.5-0.4,17.4c-0.1,2.4,0.2,4.9-0.6,7.1c-0.8,2.3-3.6,2-5.4,3.6
			c-0.6,0.5,0.8,1.7,0.4,2.4c-0.5,0.9-2.4-0.3-3.1,0.4c-1.5,1.3-1.9,2.7-2.6,4.5c-0.9,2.2,2.4,4.4,1.3,6.5c-0.8,1.5-2.4,2.7-2.6,4.4
			c-0.1,1.1,0.5,2.2,0.6,3.3c0.5,3.7-3.7,6.4-4.3,10c-0.2,1.4,0,2.9-0.3,4.2c-0.8,3-4.2,4.4-7.1,5.4c-5.9,2-12.4,5.1-14.3,11
			c-1.7,5.5,1.3,11.7-0.4,17.3c-1.8,5.8-8.4,9.8-8.4,15.9c0,2.5,1.2,4.9,1.5,7.3c0.9,6.5-4.1,13.2-1.7,19.3c1.5,4,5.9,6.3,10.2,6.3
			c4.2,0,8.3-1.9,11.7-4.4c1.5-1.1,3.1-2.3,4.8-2.7"/>
		<path fill="none" stroke="#585858" stroke-miterlimit="10" d="M102.1,192.3c0.7-0.1,1.3-0.1,2,0.2"/>
	</g>
</g>
<text transform="matrix(1 0 0 1 213.3869 10.6323)" fill="#585858" font-family="'Verdana-Italic'" font-size="8">Ten Lakes (iii)</text>
<text transform="matrix(1 0 0 1 215.7202 59.9656)" fill="#585858" font-family="'Verdana-Italic'" font-size="8">Ten Lakes (iv)</text>
<text transform="matrix(1 0 0 1 295.721 96.2998)" fill="#585858" font-family="'Verdana-Italic'" font-size="8">Ten Lakes (v)</text>
<text transform="matrix(1 0 0 1 167.0536 204.299)"><tspan x="0" y="0" fill="#7BBCEB" font-family="'Verdana-Italic'" font-size="8">Grant</tspan><tspan x="0" y="9.6" fill="#7BBCEB" font-family="'Verdana-Italic'" font-size="8">Lakes (upper)</tspan></text>
<text transform="matrix(1 0 0 1 92.0527 168.2998)"><tspan x="0" y="0" fill="#585858" font-family="'Verdana-Italic'" font-size="8">Grant</tspan><tspan x="0" y="9.6" fill="#585858" font-family="'Verdana-Italic'" font-size="8">Lakes (lower)</tspan></text>
<text transform="matrix(1 0 0 1 183.0558 114.6038)" fill="#585858" font-family="'Verdana-Italic'" font-size="8">× 10183</text>
<text transform="matrix(1 0 0 1 249.1159 229.6038)" fill="#585858" font-family="'Verdana-Italic'" font-size="8">10542 ×</text>
<path fill="none" d="M330,53c-2.2,3.5-2,8.4,0.6,11.6c2,2.5,5,3.8,7.6,5.5c4.2,2.7,7.6,6.4,10.2,10.6"/>
<text transform="matrix(0.7467 0.6652 -0.6652 0.7467 328.5317 66.3964)"><tspan x="0" y="0" fill="#7D7D7D" font-family="'Verdana-Italic'" font-size="7">9</tspan><tspan x="5" y="-0.2" fill="#7D7D7D" font-family="'Verdana-Italic'" font-size="7" rotate="-10.8">6</tspan><tspan x="9.1" y="-1" fill="#7D7D7D" font-family="'Verdana-Italic'" font-size="7" rotate="-6.2">0</tspan><tspan x="13.2" y="-1.5" fill="#7D7D7D" font-family="'Verdana-Italic'" font-size="7" rotate="2">0</tspan></text>
<path fill="none" d="M244.1,141.4c1.4,1.7,1.7,4,2.1,6.2c2.6,14.2,14.5,26.3,28.8,28.9c0.8,0.2,1.7,0.3,2.5,0"/>
<text transform="matrix(0.3837 0.9234 -0.9234 0.3837 244.9731 153.495)"><tspan x="0" y="0" fill="#7D7D7D" font-family="'Verdana-Italic'" font-size="7">1</tspan><tspan x="4.8" y="0" fill="#7D7D7D" font-family="'Verdana-Italic'" font-size="7" rotate="-7.1">0</tspan><tspan x="9.5" y="-0.6" fill="#7D7D7D" font-family="'Verdana-Italic'" font-size="7" rotate="-14">0</tspan><tspan x="14.1" y="-1.8" fill="#7D7D7D" font-family="'Verdana-Italic'" font-size="7" rotate="-20.7">0</tspan><tspan x="18.6" y="-3.5" fill="#7D7D7D" font-family="'Verdana-Italic'" font-size="7" rotate="-27.4">0</tspan></text>
<path fill="none" d="M259.8,33.3c9.5,0.2,17.3-7.3,23.8-14.3c10-10.8,20.8-23.6,18.8-38.2"/>
<text transform="matrix(0.9948 -0.1017 0.1017 0.9948 260.1 35.9506)"><tspan x="0" y="0" fill="#7D7D7D" font-family="'Verdana-Italic'" font-size="7">9</tspan><tspan x="5" y="-0.1" fill="#7D7D7D" font-family="'Verdana-Italic'" font-size="7" rotate="-13.2">2</tspan><tspan x="9.8" y="-1.3" fill="#7D7D7D" font-family="'Verdana-Italic'" font-size="7" rotate="-23.7">0</tspan><tspan x="14.2" y="-3.2" fill="#7D7D7D" font-family="'Verdana-Italic'" font-size="7" rotate="-31.2">0</tspan></text>
<path fill="none" d="M73.9,240.5c18.8,0.6,37.7-7.5,50.2-21.5"/>
<path fill="none" d="M73.9,240.5c18.8,0.6,37.7-7.5,50.2-21.5"/>
<text transform="matrix(0.9555 -0.2951 0.2951 0.9555 93.4584 240.7652)"><tspan x="0" y="0" fill="#7D7D7D" font-family="'Verdana-Italic'" font-size="7">8</tspan><tspan x="4.6" y="0" fill="#7D7D7D" font-family="'Verdana-Italic'" font-size="7" rotate="-3.8">4</tspan><tspan x="9.2" y="-0.3" fill="#7D7D7D" font-family="'Verdana-Italic'" font-size="7" rotate="-7.7">0</tspan><tspan x="13.8" y="-0.9" fill="#7D7D7D" font-family="'Verdana-Italic'" font-size="7" rotate="-11.5">0</tspan></text>
<path fill="none" d="M142,138.9c6.5,4.8,15,8,21.9,11.9"/>
<text transform="matrix(0.8659 0.5001 -0.5001 0.8659 143.515 143.0797)"><tspan x="0" y="0" fill="#7D7D7D" font-family="'Verdana-Italic'" font-size="7">8</tspan><tspan x="4.6" y="0" fill="#7D7D7D" font-family="'Verdana-Italic'" font-size="7" rotate="-2.9">6</tspan><tspan x="9.1" y="-0.2" fill="#7D7D7D" font-family="'Verdana-Italic'" font-size="7" rotate="-4.1">0</tspan><tspan x="13.5" y="-0.6" fill="#7D7D7D" font-family="'Verdana-Italic'" font-size="7" rotate="-3.7">0</tspan></text>
<path fill="none" d="M253.5,303c3.7-0.7,7.5-0.6,11.2-1.2c9.9-1.7,18-8.7,25.7-15.3"/>
<text transform="matrix(0.965 -0.2623 0.2623 0.965 265.8529 304.2125)"><tspan x="0" y="0" fill="#7D7D7D" font-family="'Verdana-Italic'" font-size="7">8</tspan><tspan x="4.8" y="0" fill="#7D7D7D" font-family="'Verdana-Italic'" font-size="7" rotate="-8">8</tspan><tspan x="9.5" y="-0.7" fill="#7D7D7D" font-family="'Verdana-Italic'" font-size="7" rotate="-14.5">0</tspan><tspan x="14" y="-1.9" fill="#7D7D7D" font-family="'Verdana-Italic'" font-size="7" rotate="-19.3">0</tspan></text>
<path fill="none" d="M34,296.9c-2.3,7.7,6.5,16.4,3.8,24"/>
<text transform="matrix(0.1805 0.9836 -0.9836 0.1805 30.8993 300.3199)"><tspan x="0" y="0" fill="#7D7D7D" font-family="'Verdana-Italic'" font-size="7">7</tspan><tspan x="4.9" y="-0.1" fill="#7D7D7D" font-family="'Verdana-Italic'" font-size="7" rotate="-9.5">8</tspan><tspan x="9.3" y="-0.9" fill="#7D7D7D" font-family="'Verdana-Italic'" font-size="7" rotate="-10.2">0</tspan><tspan x="13.3" y="-1.7" fill="#7D7D7D" font-family="'Verdana-Italic'" font-size="7" rotate="-2.3">0</tspan></text>
<path fill="none" d="M-10.5,77c38.4-9.8,65.1-30.1,68.5-29.2"/>
<text transform="matrix(0.9174 -0.398 0.398 0.9174 19.0116 69.693)"><tspan x="0" y="0" fill="#7D7D7D" font-family="'Verdana-Italic'" font-size="7">8</tspan><tspan x="4.5" y="0" fill="#7D7D7D" font-family="'Verdana-Italic'" font-size="7" rotate="-1.1">2</tspan><tspan x="9" y="-0.1" fill="#7D7D7D" font-family="'Verdana-Italic'" font-size="7" rotate="-2.1">0</tspan><tspan x="13.5" y="-0.2" fill="#7D7D7D" font-family="'Verdana-Italic'" font-size="7" rotate="-3">0</tspan></text>
<text transform="matrix(1 0 0 1 16.8168 99.1404)"><tspan x="0" y="0" fill="#585858" font-family="'Verdana-Italic'" font-size="8">Halfmoon</tspan><tspan x="2.8" y="9.6" fill="#585858" font-family="'Verdana-Italic'" font-size="8">Meadow</tspan></text>
<g>
	<g>
		<polyline fill="none" stroke="#7D7D7D" stroke-miterlimit="10" points="85.2,341.6 85.2,348.7 275.4,348.7 275.4,341.7 		"/>
		<line fill="none" stroke="#7D7D7D" stroke-miterlimit="10" x1="180.5" y1="341.4" x2="180.5" y2="348.7"/>
		<line fill="none" stroke="#7D7D7D" stroke-miterlimit="10" x1="161.2" y1="349.2" x2="161.2" y2="343.7"/>
		<line fill="none" stroke="#7D7D7D" stroke-miterlimit="10" x1="142.4" y1="349.2" x2="142.4" y2="343.7"/>
		<line fill="none" stroke="#7D7D7D" stroke-miterlimit="10" x1="123.3" y1="349.2" x2="123.3" y2="343.5"/>
		<line fill="none" stroke="#7D7D7D" stroke-miterlimit="10" x1="104.6" y1="349.2" x2="104.6" y2="343.7"/>
	</g>
	<text transform="matrix(1 0 0 1 83.7834 339.1468)" fill="#7D7D7D" font-family="'Verdana'" font-size="8">0</text>
	<text transform="matrix(1 0 0 1 174.2945 339.1468)" fill="#7D7D7D" font-family="'Verdana'" font-size="8">0.5</text>
	<text transform="matrix(1 0 0 1 258.3414 339.1468)" fill="#7D7D7D" font-family="'Verdana'" font-size="8">1 mi</text>
</g>
</svg>
