<?xml version="1.0" encoding="utf-8"?>
<!-- Generator: Adobe Illustrator 17.1.0, SVG Export Plug-In . SVG Version: 6.00 Build 0)  -->
<!DOCTYPE svg PUBLIC "-//W3C//DTD SVG 1.1//EN" "http://www.w3.org/Graphics/SVG/1.1/DTD/svg11.dtd">
<svg version="1.1" id="Layer_1" xmlns="http://www.w3.org/2000/svg" xmlns:xlink="http://www.w3.org/1999/xlink" x="0px" y="0px"
	 viewBox="0 0 360 360" enable-background="new 0 0 360 360" xml:space="preserve">
<path fill="none" stroke="#E1E1E1" stroke-miterlimit="10" d="M234.5,362.1c1.6-5.4,12.2-2.2,15.6-6.7c1.3-1.7-1.4-5.6,0.6-6.4
	c8.9-3.4,17.9,13.8,26.2,9.2c5.4-3,13.5-5.4,14.3-11.6c0.8-5.9-9.4-7.4-14.1-11c-2.3-1.8-4.8-3.7-7.7-4.1c-3-0.5-6,0.6-9,0.6
	c-3,0-5.9-1-8.8-1.7c-5.9-1.4-12.1-1.6-17.8-3.6c-5.7-2-11.2-6.6-11.6-12.6c-0.5-7.3,6.8-13.3,14.1-14.1s14.5,1.9,21.4,4.3
	c13.7,4.8,27.8,8.5,42.1,11c1.8,0.3,3.7,0.6,5.5,0.4c10.9-1.4,14.3-15.8,24-21c2.3-1.2,2.5-4.2,3.5-6.6c0.2-0.6,0.4-1.2,0.2-1.8
	c-0.1-0.4-0.5-0.8-0.8-1.1c-1.4-1.4-2.8-3-4-4.6c-0.5-0.7-1-1.4-1.1-2.3c-0.2-2.1,2.3-3.4,4.4-3.9c2.6-0.6,5.2-0.8,7.8-0.6
	c0.4,0,0.9,0,1.2-0.3c0.4-0.3,0.3-0.9,0.3-1.3c-0.1-1.1-1-2.5-0.3-3.2c4.7-4.9,13.5-3.5,17-9.3c0.8-1.3,1.5-2.7,2.7-3.5
	c1.1-0.7,2.4-0.8,3.7-0.8c2.6-0.2,5.3-0.3,7.9-0.5"/>
<path fill="none" stroke="#E1E1E1" stroke-miterlimit="10" d="M370.9,287c-1.6,1.5-3.3,2.9-4.9,4.4c-1.2,1-2.8,2.2-4.2,1.4
	c-0.8-0.5-1.1-1.4-1.6-2.2c-0.5-0.8-1.3-1.6-2.2-1.3c-0.7,0.2-1.1,0.8-1.7,1.2c-1.4,0.8-2.9-0.5-4.4-1c-1.7-0.6-3.6,0-5.3,0.5
	c-0.9,0.3-1.9,0.6-2.3,1.5c-0.9,1.6,0.9,3.3,1.5,5.1c0.6,1.8-0.1,4.1,1.1,5.6c0.4,0.5,0.9,0.8,1.3,1.3c1,1.1,1,2.8,0.9,4.3
	c0,0.4,0,0.8-0.3,1.2c-0.3,0.5-0.9,0.7-1.5,0.9c-4.2,1.2-8.4,2.4-12.7,3c-5.4,0.7-11.5,0.6-15.7,4.1c-0.9,0.8-1.7,1.7-2.8,2.2
	c-0.8,0.4-1.8,0.5-2.7,0.8c-2,0.7-3.7,2.3-4.5,4.3c-0.4,1-0.5,2.1-1,3c-0.4,0.8-1,1.6-1.4,2.4c-1.1,2.1-2.2,5.2-0.6,6.9
	c2.8,3,8.1,0.3,12.2,0c2.4-0.2,5.2-0.7,6.3-2.8c0.5-0.9,0.5-2,0.8-3c0.3-1,0.9-2.1,2-2.2c0.6-0.1,1.2,0.1,1.8,0.3
	c3.5,1.3,7,2.7,10.6,4c1.3,0.5,2.6,1,3.9,1.3c3.9,1,8.1,0.7,11.8-0.9c1.6-0.7,3.3-1.7,5.1-1.5c1.1,0.1,2.1,0.7,3.1,1.1
	c3.3,1.5,7.1,1.8,10.6,0.9"/>
<path fill="none" stroke="#E1E1E1" stroke-miterlimit="10" d="M193.4,300.7c-2.8-0.5-5.7-1-8.2-2.4c-1.4-0.7-2.7-1.7-4.2-1.9
	c-1.5-0.2-3.1,0.3-4.5,0.9c-1.4,0.6-2.8,1.2-4.1,1.9c-1.2,0.6-2.5,1.4-3.1,2.6c-0.6,1.4-0.1,3,0.9,4.2c1,1.1,2.4,1.8,3.8,2.4
	c0.8,0.3,1.6,0.7,2.2,1.4c1.4,1.7-1.1,5,0.6,6.4c1.3,1.2,4.4-1,5.3,0.6c1.8,2.9-4.6,5.3-8,5.2c-1-0.1-2.1-0.4-2.8-1.2
	c-1.2-1.5-0.2-4.2-1.7-5.4c-0.6-0.5-1.4-0.6-2.1-0.7c-9.6-1-21.1-5.9-28.9-0.2c-2.6,1.9,0.8,6.7,3.9,7.3c1.5,0.3,3.2-0.1,4.6,0.5
	c2.3,1,2.9,4,4.6,5.9c0.8,0.8,1.8,1.5,2.8,2c5.9,3,13.2,2.9,19-0.2c2-1.1,3.9-2.5,5.8-3.8c2.5-1.7,5-3.4,7.6-4.9
	c1.5-0.9,3.1-1.7,4.9-1.9c2.9-0.2,5.6,1.4,8.4,1.6c2.5,0.2,5-0.7,7.4-1.6c2.2-0.8,4.5-1.7,6.7-2.5c1-0.4,1.9-0.7,2.7-1.4
	c1.4-1.3,1.8-3.3,2.7-5.1c0.4-0.9,1-1.7,1.1-2.7c0.2-1.8-1.4-3.3-3.1-4c-2.6-1.2-5.6-1.3-8.5-1.4
	C203.9,302.1,198.6,301.5,193.4,300.7z"/>
<path fill="none" stroke="#E1E1E1" stroke-miterlimit="10" d="M-9.6,349.2c0.9-1.2,3.1-1,3.8-2.3c0.9-1.8-2-3.5-2.9-5.2
	c-0.3-0.5-0.6-1.1-0.7-1.6c-0.2-0.8,0-1.6,0.2-2.4c0.7-3.1,1.5-6.1,2.2-9.2c0.3-1.3,0.7-2.7,1.6-3.6c1.6-1.5,4.1-1.2,6.1-0.4
	c2,0.9,3.8,2.2,5.9,2.7c1.3,0.3,2.7,0.3,4.1,0.4c5.9,0.5,11.6,3.9,17.4,2.7c2.9-0.6,5.8-1,8.5-2.2c1.1-0.5,1.1-2.2,0.8-3.4
	c-0.2-1.1-0.9-2-0.9-3.1c0-1.6,1.5-2.8,2.8-3.9c1.5-1.2,2.7-2.7,3.8-4.3c0.3-0.5,0.6-1,0.6-1.5c0-0.3-0.2-0.6-0.3-0.9
	c-1.9-3.4-6.2-4.5-10.1-5.2c-3.7-0.7-7.4-1.4-11-2.1c-1.5-0.3-3.1-0.6-4.6-1.1c-3-1-5.8-2.7-8-4.9c-0.5-0.5-1-1.1-1.3-1.7
	c-0.2-0.5-0.3-1.1-0.3-1.7c-0.4-3.6-0.5-7.2-0.7-10.8c-0.1-1.7,1-3.9-0.2-5.1c-0.9-0.9-2.5,0.9-3.1,2.1c-0.6,1.2-0.8,2.5-1.3,3.7
	c-1,2.7-3.1,4.8-5.2,6.8c-3.9,3.9-7.9,7.7-12.7,10.5"/>
<path fill="none" stroke="#E1E1E1" stroke-miterlimit="10" d="M-14.7,180.9c2.5-1.3,5.1-2.6,7.6-3.9c1.3-0.7,3.1-1.3,4.2-0.4
	c0.7,0.6,1,1.6,1.8,1.9c0.8,0.4,1.9,0,2.5-0.8s0.8-1.6,1.1-2.5c0.5-1.4,1.1-2.8,2.1-3.8c1-1,2.6-1.6,4-1.2c2.1,0.6,3.6,3.4,5.7,2.8
	c1.3-0.4,1.9-1.9,2.3-3.3c1.4-5.3,0.1-11.6,3.2-16c2.5-3.5,7-5.6,8.7-9.7c0.8-1.8,1.3-3.9,2.9-5.2c1.2-1,2.9-1.2,4.2-2
	c4.8-3,4.1-12.5,9.8-13.1c1.5-0.1,3,0.5,4.4,1.1c11,4.4,22.8,0.8,34.3-2c20.5-5,41.2-16.7,44.1-37.6c0.3-2.5,0.8-5.4,3.1-6.4
	c1-0.4,2.1-0.4,3.1-0.3c8.4,0.2,16.8-1.8,24.3-5.6c1.2-0.6,2.5-1.3,3.8-1.5c1.2-0.1,2.5,0.2,3.7,0.3c7,1,13.9-2.7,20.9-2.5
	c5,0.1,10.4,2.1,14.8-0.3c1.7-0.9,3.1-2.4,5-2.8c2.6-0.5,5,1.2,7.3,2.6c7.7,4.7,17.1,1,25.9,2.4c7.8,1.2,14.6,3.4,22.4,2
	c5.6-1,11.5,1.3,17.3,1.4c2.2,0,4.9,0.2,6.1,2.1c0.5,0.7,0.6,1.6,1.1,2.3c0.9,1.3,2.7,1.7,4.3,1.9c2.9,0.4,5.8,0.9,8.8,1.3
	c1.9,0.3,3.8,0.6,5.2,1.9c1,1,1.6,2.5,2.8,3.2c1.5,1,3.9-1,5.4,0.1c1.6,1.3,3,2.6,4.3,4.2c1.6,1.9,0.5,5.3,2.4,7
	c1.3,1.2,3.4,0.7,5.2,1.1c5.1,1,6.7,8.3,11.6,10.1c0.9,0.3,1.9,0.5,2.8,0.9c1,0.5,1.8,1.4,2.5,2.3c2,2.4,3.7,5.1,5.2,7.8
	c0.4,0.7,0.8,1.4,1.4,1.7c0.5,0.2,1,0.2,1.6,0.2c2.5-0.2,5.2-0.7,7.3,0.6c1.1,0.7,2,1.9,3.3,2c0.6,0,1.2-0.2,1.8-0.2
	c1.5,0,2.7,1.1,3.8,2c2.6,2,5.8,3.2,9,3.5"/>
<path fill="none" stroke="#E1E1E1" stroke-miterlimit="10" d="M-10.5,220.9c3.5,0.3,6.5-2.7,8-5.9s2.3-6.8,4.5-9.6
	c0.4-0.5,0.8-0.9,1.3-1.2c0.4-0.2,0.9-0.2,1.4-0.3c2.5-0.2,5-0.5,7.5-0.7c3.8-0.4,7.6-0.7,11.1-2.1s6.7-4,7.9-7.6
	c0.3-1,0.5-2.2,1.1-3.1c0.5-0.8,1.2-1.3,2-1.8c2.2-1.6,4.3-3.2,6.5-4.8c2.6-1.9,5.3-3.9,8.4-4.7c3.5-1,7.9-0.8,10-3.8
	c1.7-2.4,0.9-5.7,0.3-8.6c-0.6-2.9-0.8-6.4,1.5-8.2c0.4-0.4,1-0.6,1.3-1.1c0.2-0.4,0.2-0.9,0.3-1.3c0.1-5.4,6.3-7.5,11.6-8.5
	c9.5-1.9,19-3.8,28.5-5.8c2.7-0.5,5.5-1.1,7.9-2.5c1.1-0.7,2.1-1.5,3.3-2c1.1-0.5,2.4-0.7,3.6-0.8c8.1-1.1,16.3-2.2,24.4-3.3
	c1.7-0.2,3.6-0.4,5.1,0.4c1.1,0.6,1.8,1.7,2.9,2.3c3.1,1.7,6.8-1.6,7.5-5.1c0.7-3.4-0.3-7,0-10.5c0.5-5.6,4.5-10.5,9.3-13.5
	c4.9-2.9,10.5-4.2,16.1-5.1c3.2-0.6,6.6-1,9.8-0.5c3.3,0.5,6.5,2.3,8,5.1c1,1.9,3,2.8,3.9,4.7c3.6,7.3,8.1,10.3,16.2,13
	c4.2,1.4,3.7,8.2,8,9.4c4.3,1.2,8.8,0.3,13.1-0.8c1.2-0.3,2.4-0.6,3.6-0.5c0.9,0.1,1.8,0.4,2.8,0.6c3.1,0.6,5.4-4.1,8.5-3.3
	c2,0.5,1.6,4.8,3.6,4.3c0.9-0.2,1.6-1.1,2.5-1.5c0.9-0.4,2.3,0.2,2,1.1c-1.2,2.9,3.1,5,5.8,6.4s5.9,2,8.8,3.1
	c0.6,0.2,1.3,0.5,1.6,1.1c0.3,0.5,0.3,1.1,0.4,1.7c0.6,2.8,4.2,3.6,7,3.7c1.4,0.1,3,0.2,4.2-0.7c0.7-0.5,1.2-1.3,1.8-1.9
	c1.8-1.7,5.3,0.1,7.2-1.6c1.9-1.9,0.2-7.2,2.8-7.3c1.7-0.1,0.8,3.5,2.1,4.7c0.8,0.7,2.2,0.7,3,1.4c1,1,0.7,2.7,1.2,4
	c0.7,1.7,3,2.5,4.5,1.5c1.2-0.8,1.8-2.3,1.8-3.8c0-1.5-0.6-2.8-1.1-4.2c-0.6-1.4-1.1-2.9-1.7-4.3c-0.5-1.1-0.9-2.3-0.9-3.5
	c0-1.2,0.7-2.5,1.9-2.9c1.8-0.6,3.4,1.2,4.4,2.7c2.1,3.3,4.5,7.2,8.4,7.5c0.8,0.1,1.6,0,2.4,0.3c1.1,0.4,1.6,1.6,2.3,2.5
	c2.5,3.7,7.7,2.3,11.9,3.8c2.3,0.8,3.5,6.5,5,8.4c1.4,1.8,4.6,3.8,3.3,5.6c-1.9,2.6-6.5-2-9.3-0.5c-0.9,0.5-1.5,1.4-2.4,1.7
	c-1.8,0.6-3.7-1.2-5.5-0.7c-1.2,0.3-2,1.6-3.2,1.6c-1,0-1.7-0.9-2.4-1.6c-2.3-2.1-5.9-2.4-8.5-0.8c-0.5,0.3-0.9,0.6-1.5,0.8
	c-0.8,0.2-1.7-0.1-2.5-0.4c-10.5-3.8-22.4-6.9-32.4-2.1c-3.4,1.6-6.3,4.1-9.9,5.3c-3.6,1.3-8.3,1.9-9.4,5.6
	c-0.3,0.9-0.3,1.9-0.4,2.8c-0.3,1.6-1.1,3.1-1.9,4.5c-1.1,2-2.4,4.2-4.6,5c-0.9,0.4-1.9,0.4-2.7,1c-1.2,0.8-1.6,2.4-1.9,3.8
	c-0.9,4.2,1,7.7,2.4,11.7c1.5,4.2-4,9.9-1,13.2c2.4,2.6,7.2,1.6,9.2,4.5c2.1,2.9,0.4,7.1,3.3,9.1c2.9,2.1,6.6,3.2,8.8,6
	c1.4,1.6,2.1,3.7,3.6,5.3c3.4,3.6,9.4,3.3,13.9,1.1c4.5-2.2,8.1-5.7,12.5-8.1c2.9-1.6,6.2-2.7,9.1-4.3c6.6-3.5,9.1-14.3,16.5-14.9
	c2.4-0.2,3.6,3.1,5.5,4.7c1.4,1.2,3.2,2.5,4.9,1.9c1.8-0.6,2.4-2.8,2.1-4.7c-0.3-1.8-1.3-3.5-1.7-5.3c-0.4-1.8-0.3-5.4,1.5-5
	c5.6,1.4,6.3,9.7,9.4,14.6c1.2,1.8,2.4,3.7,4.2,4.8c1.2,0.7,2.6,1.1,3.8,1.9c2.1,1.3,3.4,3.6,5,5.5c1.6,1.9,3.8,3.7,6.3,3.4"/>
<path fill="none" stroke="#E1E1E1" stroke-miterlimit="10" d="M301.4,179.6c1.9-0.8,3.7-1.7,5.1-3.3s1.9-3.8,1-5.6
	c-0.3-0.6-0.8-1.1-1.1-1.8c-0.3-0.7-0.3-1.6-0.6-2.3c-0.7-1.7-2.9-2.3-4.7-1.9c-1.8,0.3-3.4,1.4-5.1,2c-1.3,0.5-2.7,0.8-3.7,1.7
	c-0.6,0.5-1.1,1.2-1.8,1.7c-0.7,0.5-1.7,0.6-2.4,1.2c-0.9,0.7-1.3,1.9-1.7,3c-0.9,3-4,6.1-2.8,9c0.8,2.2,4.2,2.4,6.5,2.3
	c2.4-0.1,4.6-1.5,6.6-2.9C297.4,182.2,299.6,180.4,301.4,179.6z"/>
<path fill="none" stroke="#E1E1E1" stroke-miterlimit="10" d="M281.9,59.6c-0.4,0.6-0.7,1.7-0.2,2.2c0.7,0.7,2.3,0.9,3.1,0.1
	c0.6-0.6,0.4-1.7,0.1-2.4C284.3,58.6,282.4,58.7,281.9,59.6z"/>
<path fill="none" stroke="#E1E1E1" stroke-miterlimit="10" d="M327.9,52.2c-0.4,0.1-0.7,0.3-1,0.6c-1.1,1-0.5,3,0.9,3.4
	c2.6,0.7,5.5-0.1,7.2-2.1c0.1-0.1,0.2-0.3,0.2-0.5c0-0.2-0.2-0.3-0.3-0.4C333,51.7,330.2,51.3,327.9,52.2z"/>
<path fill="none" stroke="#E1E1E1" stroke-miterlimit="10" d="M353.8,59.7c-0.2,1.1-0.3,2.5,0.7,3.1c1.1,0.8,2.8-0.4,2.8-1.8
	c0-1.1-0.7-2.2-1.8-2.5c-0.4-0.1-1-0.1-1.3,0.2C354,59,353.9,59.4,353.8,59.7z"/>
<path fill="none" stroke="#E1E1E1" stroke-miterlimit="10" d="M-9.4,109.1c6.2-3.7,13-6.2,20.1-7.4c2.7-0.5,5.5-0.7,8.1-1.3
	c6.6-1.3,12.6-4.5,18.7-7.3c14.7-6.7,27.4-15.8,39.1-19.5c1.3-0.4,5.5,0.1,6.3,1.2c0.9,1.3-1.4,3.6-0.3,4.7c2.7,2.5,6.6-3,9.3-5.4
	c5.2-4.7,10.4-9.4,15.6-14c1.8-1.6,3.6-3.2,5.6-4.6c4.8-3.3,10.4-5,15.9-6.6c6.3-1.9,12.5-3.8,18.8-5.6c15.6-4.7,31.2-9.4,45.9-16.3
	c8.7-4.1,17.1-8.9,25.1-14.3c3.6-2.4,7.1-4.8,10.6-7.2c4.9-3.2,10-6.3,15.8-7.1c2.5-0.3,5.2-0.2,7.4-1.3c2-1,3.5-2.8,5.5-3.7
	s5.9-0.6,5.6,1.6c-0.3,2.4,1.8,4.2,4.1,4.9c4.5,1.4,8.9,2.7,13.4,4.1c6.3,1.9,12.4,2.8,18.8,4.3c5,1.2,10.2,0.6,15.3,0.5
	c0.9,0,1.9,0,2.8,0.4c1,0.4,1.7,1.3,2.6,1.9c2.1,1.4,5.4,1.3,6.6,3.5c0.5,0.9,0.5,2,0.6,3c0.5,4,2.9,7.7,6.4,9.7
	c0.8,0.4,1.6,0.8,2.3,1.4c1.6,1.5,1.9,4.2,3.8,5.3c1.7,0.9,3.8,0.2,5.7,0.3c6.6,0.5,8.6,10.7,15.1,12c1,0.2,2.1,0.2,3,0.5
	c1.6,0.5,2.8,1.8,4.3,2.6c2.7,1.6,6.2,1.4,8.8-0.3"/>
<path fill="none" stroke="#E1E1E1" stroke-miterlimit="10" d="M182.1,11.3c3.9-1.6,7.7-3.6,11.4-5.5c3.4-1.8,6.8-3.5,10.1-5.3
	c1.9-1,5.7-3,4.2-4.5c-1.1-1.1-3.1,0.6-4.5,1.1c-7.6,2.9-15.2,5.8-22.9,8.6c-1.5,0.6-3,1.1-4.2,2.2s-2.8,2.9-1.8,4.2
	C176.1,14.2,179.6,12.3,182.1,11.3z"/>
<path fill="none" stroke="#E1E1E1" stroke-miterlimit="10" d="M103.9,34.9c1.6-1,3.3-1.7,5-2.5c1.8-0.8,3.6-1.6,5.4-2.4
	c2.6-1.2,5.3-2.4,8.2-2.3c3.6,0,7.4,2,10.7,0.4c0.9-0.4,1.6-1.1,2.5-1.5c2.1-1,4.5-0.7,6.8-0.7c8.9,0.1,25.1-8.1,23.1-11.4
	c-1.3-2-9.8,2.8-14.7,4.5c-3,1-6.2,1.6-9.3,2.1c-13.6,2.3-27.4,4.6-41.2,3.4c-2.4-0.2-5.2-0.4-6.9,1.4c-0.5,0.5-0.8,1.1-1.3,1.7
	c-1.4,1.6-3.7,2-5.9,2.3C69.2,32.7,52.9,41,35.6,40.4c-1,0-2.1-0.1-3,0.3c-1.1,0.5-1.7,1.6-2.5,2.5c-2.5,2.8-9.7,5.8-7,8.4
	c4,3.9,11.1,0.1,16.7,0.1c1,0,2,0,2.8,0.6c1.2,0.9,1.3,2.8,2.4,3.8c1.2,1.1,3.1,0.9,4.7,0.6c12.3-2.4,24-7.1,35.6-11.8
	c4.8-1.9,9.6-3.8,13.8-6.8C100.8,37.1,102.3,35.9,103.9,34.9z"/>
<path fill="none" stroke="#E1E1E1" stroke-miterlimit="10" d="M-9.1,40.1c4.8-1.8,9.6-3.7,14.4-5.5c6.2-2.4,12.5-4.8,19.1-5.7
	c3.6-0.5,7.1-0.5,10.7-0.7c22.7-1.2,44.3-9.9,66.7-13.2c12.4-1.8,25.1-2,37.3-5.1c8.3-2.1,16.2-5.6,24.1-9
	c10.9-4.7,21.8-9.5,32.7-14.2c3.1-1.4,6.8-4,5.7-7.2"/>
<path fill="none" stroke="#E1E1E1" stroke-miterlimit="10" d="M-12.2,24.2c6.4-3.5,13-7,20.2-8.4c4.4-0.8,8.9-0.8,13.4-0.9
	c14-0.2,28-1.6,41.7-4.1c12.1-2.2,24-5.2,36.2-6.3c2.6-0.2,5.1-0.4,7.7-0.8c4.7-0.8,9.2-2.6,14-3.4c8.5-1.5,17.9,0,25.3-4.5
	c7.1-4.3,10.4-13.1,17.2-17.8"/>
<path fill="none" stroke="#E1E1E1" stroke-miterlimit="10" d="M-8.3,11.1c14-4.9,28.8-7.4,43.6-7.3c1,0,2.1,0,3.1-0.3
	c0.8-0.3,1.4-0.8,2.1-1.2c4.6-2.7,10.4-1.8,15.7-2.2C65.4-0.6,74-5.3,83.2-5c1,0,2.1,0.1,3.1-0.3c0.8-0.4,1.4-1,2.1-1.6
	c2.3-1.9,5.3-2.8,8.2-3.6c7.3-2,14.6-4,21.8-6c2.7-0.7,5.4-1.5,7.8-2.9"/>
<path fill="none" stroke="#D6D6D6" stroke-miterlimit="10" d="M201.7,166.2c2.4-0.6,4.5-1.9,6.2-3.6c0.8-0.8,1.5-1.7,2.3-2.4
	c0.9-0.8,2.1-1.4,3.1-2.1c2-1.4,2.9-3.7,4.6-5.4c1.5-1.4,4.1,1.9,5.9,2.9c3.6,2,7.8-1.7,11.9-2.4c3.9-0.6,7.6,1.5,11.4,2.6
	c2.1,0.6,4.4,0.8,6.6,1c13,1,26.2,0.4,38.6-3.6c2.8-0.9,5.5-3,8.4-3.2c2.9-0.2,3.8,0.7,5.6,2.9c1.3,1.7,3.2,3.6,5.2,4.2
	c2.7,0.9,5.6-1.6,8.1-3.1c3.5-2.1,7.9,0.3,11.9,1.3c11.2,3,22.9,5,34.1,8c4.1,1.1,8.7,2.1,12.3-0.1"/>
<path fill="#EAEAEA" stroke="#D6D6D6" stroke-miterlimit="10" d="M91.2,305c-0.9-0.9-2.4-0.6-3.6-0.2c-2.2,0.6-4.3,1.2-6.5,1.8
	c-1.2,0.3-3.2,0.2-3.5,1.5c-0.2,1,1.4,1.4,2.4,1.6s2,0.2,2.9,0.5c3.5,0.8,6.1,4.4,9.7,4.9c0.3,0,0.6,0.1,0.9-0.1
	c0.3-0.1,0.5-0.4,0.6-0.7c1.3-2.2,1.8-4.8,1.4-7.3c0-0.2-0.1-0.5-0.2-0.7c-0.7-1-2.5,0-3.5-0.7C91.5,305.5,91.4,305.2,91.2,305z"/>
<path fill="none" stroke="#D6D6D6" stroke-miterlimit="10" d="M93.6,329.1c1.3-0.9,3.1-0.2,4.2,1s1.7,2.6,2.6,3.9
	c1.6,2.1,4.1,3.3,6,5.2c0.7,0.7,1.3,1.4,2,2c1,0.8,2.2,1.3,3.4,1.8c1.9,0.7,3.8,1.5,5.7,2.2c7.6,2.9,15.3,5.6,23.4,6.3"/>
<path fill="none" stroke="#D6D6D6" stroke-miterlimit="10" d="M196.2,352.8c1.3-2.4,4.8-1.6,7.5-1.9c2.3-0.2,4.3-1.4,6.5-2.2
	c2.5-1,5.2-1.5,7.8-2c4-0.7,7.9-1.5,11.9-2.2c1.8-0.3,3.7-0.7,5.6-0.6c2.8,0.2,5.4,1.4,8.2,1.6c7.2,0.5,14-5.7,21-3.8
	c4.2,1.2,7.4,5.2,11.8,5.6c2.5,0.2,5-0.8,7.5-1.2c6.3-1.1,12.6,1.5,19,1.2c2.4-0.1,4.8-0.7,7.3-0.6c3.7,0.1,7.1,1.8,10.4,3.3
	c0.1,0.1,0.3,0.1,0.4,0.2"/>
<path fill="none" stroke="#D6D6D6" stroke-miterlimit="10" d="M-12.2,322c3.1,0.2,6-1.6,8.9-2.9c5.3-2.3,11.3-3,17-2.4
	c5.8,0.6,11.4,2.3,16.7,4.5c0.9,0.4,1.8,0.8,2.5,1.5c0.6,0.6,1,1.3,1.5,2c1.5,2.1,3.8,3.5,6.2,4.5c4.5,1.8,10.5,2.1,15.2,0.7"/>
<path fill="#EAEAEA" stroke="#D6D6D6" stroke-miterlimit="10" d="M123.9,284.6c-0.6-1-1.6-1.9-2.8-2.1c-1.2-0.3-2.5,0.1-3.2,1
	c-0.2,0.2-0.3,0.5-0.5,0.6c-0.3,0.2-0.6,0.3-1,0.3c-1.3,0.2-2.7,0.1-4,0.1c-1.3,0-2.7,0.2-3.8,0.9c-1.1,0.7-2.6,2.4-1.7,3.3
	c1.3,1.4,3.8,0.6,5.7,0.2c0.6-0.1,1.2-0.2,1.8-0.3c2-0.1,3.2,0,5.1-0.4c0.7-0.1,2.3,0,2.9-0.3c0.9-0.4,1.7-0.5,2-1.5
	C124.5,285.9,124.3,285.2,123.9,284.6z"/>
<path fill="#EAEAEA" stroke="#D6D6D6" stroke-miterlimit="10" d="M93.3,272.3c0.2,0.2,0.5,0.3,0.8,0.3c1.3,0.1,2.6-0.5,3.2-1.6
	c0.2-0.4,0.4-0.8,0.6-1.2c0.2-0.5,0.4-1,0.6-1.6c0.2-0.5,0.4-1.1,0.2-1.7c-0.2-0.6-0.9-1-1.5-1.3c-0.3-0.1-0.5-0.3-0.8-0.3
	c-0.5,0-0.9,0.4-1.3,0.8c-1.3,1.6-2.1,3.6-2,5.7C93.1,271.8,93.1,272.1,93.3,272.3z"/>
<path fill="#7BBCEB" stroke="#4E9BD7" stroke-miterlimit="10" d="M172.3,169c-0.6,0.4-1.3,0.6-1.7,1.1c-0.3,0.3-0.7,0.7-0.7,1.1
	c-0.3,2.7-2,3.7-1.9,5.9c0,1.2,0.9,1.3,2.1,1.3c1.2-0.1,2.3-0.5,3.5-1c1.9-0.7,4-1.4,6-1.2c1,0.1,1.9,0.3,2.9,0.3
	c3.5-0.2,5.7-4.2,9.1-4.8c0.9-0.2,1.8-0.1,2.6-0.5c0.8-0.4,0.5-1.3,0.8-2.1c0.6-1.7,3.6-0.9,5.3-1.3c0.7-0.2,1.6-0.5,1.7-1.3
	c0.1-0.9-0.9-1.4-1.7-1.7c-1.9-0.6-3.8-1-5.8-1.2c-1.6-0.2-3.3-0.2-4.4,1c-0.4,0.4-0.7,1-1.1,1.4c-1.4,1.5-4,1.2-6,0.5
	c-2-0.7-4.8-0.9-6.8-0.2C174.4,166.8,174,167.9,172.3,169z"/>
<path fill="none" stroke="#D6D6D6" stroke-miterlimit="10" d="M370,193.6c-10.4-0.2-25.5-6.2-29.4-0.1c-2.3,3.6,6.6,12.4,8,18.6
	c1.2,5.2-2,10.3-5.1,14.8c-3.6,5.2-7.2,10.4-10.8,15.6c-2,2.9-4,5.8-6.5,8.3c-5.1,5-11.9,7.8-18.1,11.3c-4.7,2.7-6.3,8.8-11.7,8.5
	c-6.2-0.3-1.5-9.7-26.7-10c-9.5-0.1-18.6,3.3-27.8,6c-2.8,0.8-5.6,1.6-8.5,1c-4.5-0.9-8.5-5.2-13-4c-2.4,0.6-4.1,2.7-5.9,4.3
	c-1.8,1.7-5.1,4.1-6.7,2.2c-2.4-2.7-2.6-6.8-4.8-9.6c-0.4-0.5-1.3-1.5-1.6-2.1c-1.1-2.2-1.5-2-2-4.4c-1.2-6.4-2.2-12.8-4.3-19.2
	c-0.9-2.9-1.6-6-3.7-8.3c-2.6-2.9-6.8-3.9-10.6-3.7c-3.9,0.2-7.6,1.6-11.2,2.9c-9.7,3.4-20,6.5-30.2,5.2c-7-0.9-13.7-3.9-20.4-6.2"
	/>
<path fill="none" stroke="#4E9BD7" stroke-linejoin="round" stroke-miterlimit="10" d="M167.7,176.8c-2-0.3-4.9,0.1-6.9,0.4
	c-3.5,0.5-7.1,0.3-10.6,0.8c-3.5,0.5-7.1,1.7-9.5,4.4c-0.7,0.8-1.2,1.6-1.8,2.5c-1.9,2.9-3.7,5.7-5.6,8.6c-1.3,2-4.2,8.7-4.8,10.9
	c-3.5,12.1-9.5,20.2-9.5,20.2c-4.4-1.5-8.9-2.6-13.5-2.7C88.3,221.6,74.6,236,58,240.4c-4.9,1.3-9.9,1.7-15,2.1
	c-5.2,0.4-10.4,0.8-15.7,1.2c-3.4,0.3-6.8,0.5-10,1.8c-2.8,1.1-5.3,3-7.9,4.6c-7.2,4.3-15.9,6-24.3,4.8"/>
<path fill="none" stroke="#D6D6D6" stroke-miterlimit="10" d="M324.9,252c8.9,0,17.5-1.2,26.3-2.6c1.2-0.2,2.5-0.4,3.6-0.9
	c1.4-0.6,2.6-1.5,3.9-2.1c3.8-1.8,8.3-0.9,12.5,0.1"/>
<path fill="#EAEAEA" stroke="#D6D6D6" stroke-miterlimit="10" d="M86.8,328c-0.6,0.2-1.4,0.4-1.7-0.1c-0.1-0.2-0.1-0.4-0.1-0.5
	c-0.2-3.2-3.1-5.6-6.2-6.5c-3.1-0.8-6.4-0.4-9.5-0.3c-2.8,0.1-5.8,0-8.4,1c-2.7,1-5.5,3.5-5.3,6.3c0.1,2.6,2.8,4.7,5.2,5.8
	c1,0.5,2.1,0.8,3.2,1c1.5,0.3,3,0.3,4.5,0.3c8.3,0,17.2-0.3,24.1-4.9c0.5-0.4,1.1-0.8,1.1-1.5c0.1-1.2-1.5-1.7-2.7-1.6
	C89.5,327.2,88.1,327.5,86.8,328z"/>
<path fill="#EAEAEA" stroke="#D6D6D6" stroke-miterlimit="10" d="M158.2,362.6c-0.9-0.9-1.8-1.9-2.5-3c-0.7-1.2-1.3-2.6-2.5-3
	c-1-0.3-2.1,0.2-3.1,0.6c-1,0.4-2.3,0.4-3-0.4c-0.2-0.3-0.3-0.7-0.5-1.1c-0.6-1.1-1.9-1.5-3.1-2c-1.1-0.5-2.7-1.5-2.3-2.6
	c0.4-1.1,2-1.3,3.2-1.1c1.2,0.2,2.2,0.8,3.3,1.4c0.7,0.4,1.1,1.2,1.8,1.7c1.1,0.8,2.9,0,4.1-0.7c0.5-0.3,0.9-0.8,1.4-1.2
	c1.4-1.1,3.2-1.2,4.9-1.4c5.6-0.4,10.6-0.8,16.1-1.6c2.7-0.4,5.8-1.1,8.3-0.2c2.5,1,5.2,3.2,7.9,3.4c1.3,0.1,2.8,0,3.6,1
	c0.5,0.6,0.5,1.3,0.6,2c0.4,2.6,1.5,5.1,3,7.3"/>
<g>
	<g>
		<path fill="none" stroke="#585858" stroke-miterlimit="10" d="M135.1,221.7c0.2-0.6,0.4-1.3,0.6-1.9"/>
		<path fill="none" stroke="#585858" stroke-miterlimit="10" stroke-dasharray="4.1261,1.0315" d="M135.9,218.7
			c0.5-2.3,0.7-4.7,0.7-7c-0.1-2.2-0.4-4.4-0.4-6.5c0.1-5.5,2.2-10.7,4.4-15.7c1-2.3,2-4.7,4.1-6c1.2-0.7,2.5-1.1,3.9-1.4
			c3.4-0.8,6.8-1.6,10.3-1.6c3.9,0,7.8,1,11.8,1.2c4.3,0.2,8.7-0.6,12.7-2.4"/>
		<path fill="none" stroke="#585858" stroke-miterlimit="10" d="M183.8,179c0.6-0.3,1.2-0.6,1.8-0.9"/>
	</g>
</g>
<g>
	<g>
		<path fill="none" stroke="#585858" stroke-miterlimit="10" d="M-10.7,301.5c0.6,0.4,1.2,0.5,1.9,0.5"/>
		<path fill="none" stroke="#585858" stroke-miterlimit="10" stroke-dasharray="4.0606,1.0152" d="M-7.8,301.8
			c1.1-0.3,2.1-0.9,2.8-1.8c1.4-1.7,1.9-3.8,2.4-5.9c0.6-2.6,1.2-5.2,1.7-7.8c1.2-5.5,2.4-11,4.7-16.1c2.8-6.2,7-11.8,12.4-16
			c1.8-1.4,3.7-2.7,5.8-3.6c2-0.8,4.1-1.3,6.2-1.8c4.2-0.9,8.5-1.9,12.7-1.1c2,0.4,4,1.2,6,1.4c2,0.3,4.3-0.1,5.7-1.7
			c0.6-0.7,1-1.7,1.4-2.6c2.1-5.3,3.7-11.2,1.9-16.7c-0.8-2.5-0.9-5.1-1.7-7.6"/>
		<path fill="none" stroke="#585858" stroke-miterlimit="10" d="M54,220.2c0-0.1-0.1-0.3-0.1-0.4c-0.2-0.5-1-0.2-1.4,0.2"/>
	</g>
</g>
<g>
	<g>
		<path fill="none" stroke="#585858" stroke-miterlimit="10" d="M371.2,203.7c-0.7,0.1-1.3,0.2-1.9,0.5"/>
		<path fill="none" stroke="#585858" stroke-miterlimit="10" stroke-dasharray="3.9883,0.9971" d="M368.5,204.7
			c-0.5,0.3-1.1,0.7-1.8,1.1c-6.2,3.6-4.5,11.1-3,17c0.8,3.1,4,5,4,8c0,11-16,12.7-25,14c-11.1,1.6-22,0.2-34,2
			c-8,1.2-14.9,5.2-22,9c-2,1.1-5,2-8,2c-11,0-20,2.2-31,4c-14,2.3-27.2-2.6-39-8c-2-0.9-4.5-4-4-7c1-6.2,1.2-11.1-1-16
			c-0.9-2-1.8-4.1-3-7c-2.6-6.2-10-9-17-6c-30,12.9-67.2,6.3-91-17c-3-3-7.9-2.9-11,0c-6.8,6.3-13,13-20.9,15.8
			c-3.6,1.3-7.1,2-9.7,4.8c-1,1.1-1.9,2.3-3,3.1c-2,1.4-4.6,1.6-7.1,1.7c-2.4,0.1-4.7,0.2-7.1,0.3c-1.7,0.1-3.4,0.2-4.9,0.8
			c-0.9,0.4-1.7,0.9-2.5,1.4c-3.6,2.4-7.6,5-11.9,4.8c-3-0.2-5.7-1.7-8.7-2c-1.7-0.2-3.4,0.1-5.1,0.4c-5,0.8-9.9,1.6-14.9,2.4"/>
		<path fill="none" stroke="#585858" stroke-miterlimit="10" d="M-14.7,234.4c-0.7,0.1-1.3,0.2-2,0.3"/>
	</g>
</g>
<path fill="none" stroke="#585858" stroke-miterlimit="10" stroke-dasharray="4,1" d="M87.3,198.2c-0.9-0.7-0.8-2.2-0.1-3.1
	c0.7-0.9,1.8-1.4,2.9-1.8c3.5-1.4,7-2.8,10.5-4.3c2.8-1.1,5.6-2.3,7.9-4.2c1.6-1.3,2.9-2.9,4.3-4.3c3.7-3.5,8.8-5.5,12.2-9.2
	c1.9-2.1,3.3-4.7,5.7-6.3c2.4-1.6,5.5-1.9,8.4-2.3c11-1.6,21.6-6,30.5-12.7c1.9-1.4,5.1-0.1,4.4-5.1c-0.3-2.4,1.1-5.8,0.7-8.2
	c-1.8-9.9-1.8-19,4.1-27.3c5.6-7.9,11.7-15.7,21.2-14.2c1.5,0.2,5.4,1.3,6.9,1c1.9-0.4,3.3-1.9,4.8-3c1.3-0.9,2.8-1.6,3.8-2.9
	c1-1.2,0.6-1.9,0.8-3.5c0.5-3.3,5.1-4.5,7.4-6.8c1.2-1.2,2.4-2.4,3.9-3.2c1.1-0.6,2.3-0.9,3.4-1.5c3.9-1.9,6.3-5.2,10.1-7.4
	c3.2-1.8,6.8-3.1,10.1-4.7c2.7-1.4,4.8-4.1,5.6-7c0.3-1.1,0.4-2.3,0.7-3.4c0.3-1.3,4.4-9.4,5.1-10.6c3-5.7,5.6-2.6,8-8.6
	c0.1-0.4,0-1.2,0-1.6c-0.6-9.6-1-14.4-2-24c-0.2-1.7-1.4-8.2-1.1-9.9c0.4-2.3,1.5-4.4,1.4-6.7c-0.1-2.5-1.6-4.7-3-6.8
	c-1.6-2.3-3.3-4.6-4.9-7"/>
<text transform="matrix(1 0 0 1 194.5224 180.5188)"><tspan x="0" y="0" fill="#7BBCEB" font-family="'Verdana-Italic'" font-size="8">Gravel Pit</tspan><tspan x="0" y="9.6" fill="#7BBCEB" font-family="'Verdana-Italic'" font-size="8">Lake</tspan></text>
<text transform="matrix(1 0 0 1 193.3412 335.6367)"><tspan x="0" y="0" fill="#585858" font-family="'Verdana-Italic'" font-size="8">Swamp</tspan><tspan x="0" y="9.6" fill="#585858" font-family="'Verdana-Italic'" font-size="8">Lake</tspan></text>
<text transform="matrix(1 0 0 1 23.2631 238.3927)" fill="#585858" font-family="'Verdana-Italic'" font-size="8">Miguel</text>
<text transform="matrix(1 0 0 1 78.3812 243.1171)" fill="#585858" font-family="'Verdana-Italic'" font-size="8">Meadow</text>
<text transform="matrix(1 0 0 1 292.806 174.6996)" fill="#585858" font-family="'Verdana-Italic'" font-size="8">× 5428</text>
<text transform="matrix(1 0 0 1 68.006 42.6995)" fill="#585858" font-family="'Verdana-Italic'" font-size="8">× 5860</text>
<text transform="matrix(1 0 0 1 243.1997 316.4319)" fill="#585858" font-family="'Verdana-Italic'" font-size="8">× 5357</text>
<path fill="none" d="M281.5,3.9c6.3,1.9,12.4,2.8,18.8,4.3c5,1.2,10.2,0.6,15.3,0.5"/>
<text transform="matrix(0.9778 0.2094 -0.2094 0.9778 287.1768 7.9856)"><tspan x="0" y="0" fill="#7D7D7D" font-family="'Verdana-Italic'" font-size="7">5</tspan><tspan x="4.5" y="0" fill="#7D7D7D" font-family="'Verdana-Italic'" font-size="7" rotate="-0.5">6</tspan><tspan x="8.9" y="-0.1" fill="#7D7D7D" font-family="'Verdana-Italic'" font-size="7" rotate="0.4">0</tspan><tspan x="13.6" y="0.1" fill="#7D7D7D" font-family="'Verdana-Italic'" font-size="7" rotate="-4.8">0</tspan></text>
<path fill="none" d="M62.6,156.1c0.1-5.4,6.3-7.5,11.6-8.5c9.5-1.9,19-3.8,28.5-5.8"/>
<text transform="matrix(0.967 -0.2546 0.2546 0.967 70.2432 151.178)"><tspan x="0" y="0" fill="#7D7D7D" font-family="'Verdana-Italic'" font-size="7">5</tspan><tspan x="4.3" y="0.1" fill="#7D7D7D" font-family="'Verdana-Italic'" font-size="7" rotate="3.3">2</tspan><tspan x="8.7" y="0.3" fill="#7D7D7D" font-family="'Verdana-Italic'" font-size="7" rotate="3.3">0</tspan><tspan x="13.2" y="0.6" fill="#7D7D7D" font-family="'Verdana-Italic'" font-size="7" rotate="3.3">0</tspan></text>
<path fill="none" d="M9.5,297.7c2.2,2.2,5,3.9,8,4.9c1.5,0.5,3.1,0.8,4.6,1.1c3.7,0.7,7.4,1.4,11,2.1c3.8,0.7,8.2,1.8,10.1,5.2"/>
<text transform="matrix(0.9271 0.3748 -0.3748 0.9271 13.1514 303.6653)"><tspan x="0" y="0" fill="#7D7D7D" font-family="'Verdana-Italic'" font-size="7">5</tspan><tspan x="4.9" y="-0.1" fill="#7D7D7D" font-family="'Verdana-Italic'" font-size="7" rotate="-10.3">0</tspan><tspan x="9.3" y="-0.9" fill="#7D7D7D" font-family="'Verdana-Italic'" font-size="7" rotate="-11.2">0</tspan><tspan x="13.7" y="-1.8" fill="#7D7D7D" font-family="'Verdana-Italic'" font-size="7" rotate="-11.2">0</tspan></text>
<path fill="none" d="M318.9,316.9c4.2-3.5,10.2-3.4,15.7-4.1c4.3-0.6,8.5-1.8,12.7-3"/>
<text transform="matrix(0.98 -0.1989 0.1989 0.98 324.1162 316.8079)"><tspan x="0" y="0" fill="#7D7D7D" font-family="'Verdana-Italic'" font-size="7">5</tspan><tspan x="4.2" y="0" fill="#7D7D7D" font-family="'Verdana-Italic'" font-size="7" rotate="5.4">4</tspan><tspan x="8.7" y="0.5" fill="#7D7D7D" font-family="'Verdana-Italic'" font-size="7" rotate="3.6">0</tspan><tspan x="13.4" y="0.8" fill="#7D7D7D" font-family="'Verdana-Italic'" font-size="7" rotate="-1.1">0</tspan></text>
<path fill="none" d="M21.4,14.9c14-0.2,28-1.6,41.7-4.1c12.1-2.2,24-5.2,36.2-6.3"/>
<text transform="matrix(0.9955 -9.467570e-02 9.467570e-02 0.9955 39.4478 16.5428)"><tspan x="0" y="0" fill="#7D7D7D" font-family="'Verdana-Italic'" font-size="7">5</tspan><tspan x="4.5" y="0" fill="#7D7D7D" font-family="'Verdana-Italic'" font-size="7" rotate="-1">4</tspan><tspan x="9" y="-0.1" fill="#7D7D7D" font-family="'Verdana-Italic'" font-size="7" rotate="-2">0</tspan><tspan x="13.5" y="-0.2" fill="#7D7D7D" font-family="'Verdana-Italic'" font-size="7" rotate="-2.9">0</tspan></text>
<g>
	<g>
		<polyline fill="none" stroke="#7D7D7D" stroke-miterlimit="10" points="85.2,341.6 85.2,348.7 275.4,348.7 275.4,341.7 		"/>
		<line fill="none" stroke="#7D7D7D" stroke-miterlimit="10" x1="180.5" y1="341.4" x2="180.5" y2="348.7"/>
		<line fill="none" stroke="#7D7D7D" stroke-miterlimit="10" x1="161.2" y1="349.2" x2="161.2" y2="343.7"/>
		<line fill="none" stroke="#7D7D7D" stroke-miterlimit="10" x1="142.4" y1="349.2" x2="142.4" y2="343.7"/>
		<line fill="none" stroke="#7D7D7D" stroke-miterlimit="10" x1="123.3" y1="349.2" x2="123.3" y2="343.5"/>
		<line fill="none" stroke="#7D7D7D" stroke-miterlimit="10" x1="104.6" y1="349.2" x2="104.6" y2="343.7"/>
	</g>
	<text transform="matrix(1 0 0 1 83.7837 339.1469)" fill="#7D7D7D" font-family="'Verdana'" font-size="8">0</text>
	<text transform="matrix(1 0 0 1 174.2948 339.1469)" fill="#7D7D7D" font-family="'Verdana'" font-size="8">0.5</text>
	<text transform="matrix(1 0 0 1 258.3417 339.1469)" fill="#7D7D7D" font-family="'Verdana'" font-size="8">1 mi</text>
</g>
</svg>
