<?xml version="1.0" encoding="utf-8"?>
<!-- Generator: Adobe Illustrator 17.1.0, SVG Export Plug-In . SVG Version: 6.00 Build 0)  -->
<!DOCTYPE svg PUBLIC "-//W3C//DTD SVG 1.1//EN" "http://www.w3.org/Graphics/SVG/1.1/DTD/svg11.dtd">
<svg version="1.1" id="Layer_1" xmlns="http://www.w3.org/2000/svg" xmlns:xlink="http://www.w3.org/1999/xlink" x="0px" y="0px"
	 viewBox="0 0 360 360" enable-background="new 0 0 360 360" xml:space="preserve">
<path fill="none" stroke="#E1E1E1" stroke-miterlimit="10" d="M369.3,265.6c-2.3,1.2-5.4,0.9-7.5-0.5c-1.3-0.9,0.9-3,1.8-4.3
	c1.8-2.4,0.5-6,2.1-8.5c0.6-1,2.1-1.1,2.7-2.1"/>
<path fill="none" stroke="#E1E1E1" stroke-miterlimit="10" d="M368.1,228.5c-2.7-1.8-5.4-3.5-8.1-5.3c-1.2-0.8-2.5-1.7-2.9-3
	c-0.9-2.8,2.3-6.3,0.4-8.5c-0.3-0.4-0.7-0.6-1-1c-0.5-0.9,0.8-2,0.3-2.9c-1.2-2.2-4.4,2.1-5.7,4.2c-0.9,1.4-1.8,3-1.2,4.6
	c0.3,0.7,0.8,1.2,1.3,1.8c4,4.2,6.6,9.4,9.2,14.6c0.3,0.5,0.5,1.1,0.5,1.7c0,1.2-1,2.2-1.7,3.2c-0.8,1.1-1.3,2.3-1.4,3.6
	c-0.2,1.8,0.3,3.6,0.5,5.4c0.2,1.7,0.6,3.5-0.1,5.1c-1.4,3.5-4.4,6.4-4.6,10.2c0,1,0.1,2.1-0.1,3.1c-0.2,0.9-0.6,1.7-1,2.5
	c-1.1,2.1-2.2,4.2-3.3,6.4c-0.2,0.5-0.5,0.9-0.5,1.5c-0.2,1.3,0.9,2.5,2.1,3.1c1.2,0.6,2.5,0.9,3.7,1.6c1.2,0.8,2,1.9,2.9,3.1
	c3.7,5.1,7.9,9.8,12.4,14.1"/>
<path fill="none" stroke="#E1E1E1" stroke-miterlimit="10" d="M369.5,313c-0.9-0.2-1.8-0.5-2.6-0.8c-6.8-2.5-12.3-7.5-17.7-12.3
	c-2.4-2.2-4.9-4.4-7.3-6.6c-1.9-1.7-4.7-2.3-6.1-4.5c-1.5-2.5,0.8-5.8,2.2-8.4c2.8-5.2,8-9.2,9.2-14.9c0.3-1.5,0.4-3,0.9-4.4
	c0.2-0.6,0.5-1.1,0.6-1.7c0.1-0.7,0-1.3-0.1-2c-0.9-4.9-1.1-9.9-0.6-14.9c0.1-1.2,0.3-2.4,0.6-3.5c0.3-0.8,0.6-1.6,0.8-2.5
	c0.6-2.9-1-5.7-2.5-8.2c-2.1-3.5-4.2-7.1-5.3-11.1s-1.1-8.4,0.9-12c1-1.9,2.6-3.6,3.2-5.7c0.3-1,0.5-2.1,1-3.1
	c0.5-1,1.5-1.8,2.6-1.6c1.5,0.3,1.9,2.2,2.7,3.5c0.9,1.7,2.6,2.7,3.9,4.1c2.8,2.8,4,6.8,5.4,10.6c1.8,4.8,4.2,9.7,8.6,12.3"/>
<path fill="none" stroke="#E1E1E1" stroke-miterlimit="10" d="M369.7,205.7c-3.5,1.2-7.5-0.4-10.3-3c-2.7-2.6-4.5-5.9-6.7-9
	c-1.1-1.6-2.4-3.3-4.1-4.3c-1.7-1-5.5,1.7-5.7-0.3c-0.4-3.9-2.2-12.2-10.8-11.4c-0.4,0-0.9,0.1-1.2,0.3c-0.5,0.3-0.7,1-0.8,1.6
	c-0.3,3.3,3.1,6,3.3,9.4c0.1,1.5-0.6,3-1.2,4.4c-2.5,6-3.8,12.5-4.1,18.9c0,1.4,0,2.8,0.3,4.2c0.5,2,1.6,3.8,2.7,5.6
	c2.3,3.8,4.7,7.6,7,11.4c0.4,0.6,0.7,1.2,0.7,1.9c0,1.7-2.2,2.6-2.5,4.3c-0.3,2,2.1,3.2,3,5c1,2.1-0.1,4.5-0.8,6.7
	c-1.1,4.1-0.3,8.5-1.4,12.6c-1,3.9-3.7,7.2-4.8,11.1c-0.2,0.9-0.4,1.8-0.9,2.6c-0.8,1.2-2.2,1.7-3.1,2.8c-0.8,1-1.1,2.4-1.7,3.6
	c-2,4.2-9.5,5.9-8.8,10.5c0.6,3.8,8.9,1.3,17.7,15.4c2,3.3,4.6,6.4,7.9,8.5c1.6,1,3.5,1.7,5.3,2.3c3.1,1.1,6.3,2.2,9.4,3.3
	c3.9,1.3,7.8,2.7,11.9,2.7"/>
<path fill="none" stroke="#E1E1E1" stroke-miterlimit="10" d="M370.7,338.5c-8.2-1.3-16.3-2.5-24.5-3.8c-1.2-0.2-2.4-0.4-3.6-0.9
	c-0.9-0.4-1.7-1.1-2.5-1.6c-2.8-2-6.7-2.5-9-5.1c-3.8-4.4-5.7-10.1-9.8-14.2c-1.8-1.8-3.6-3.6-5.9-4.8c-1.9-1-3.9-1.6-5.9-2.5
	c-3.3-1.5-6.1-3.8-8.2-6.6c-0.6-0.8-1.2-1.7-1.4-2.7c-0.4-2,0.6-4,2.2-5.3s3.4-2.1,5.3-2.8c3.9-1.7,7.9-3.5,11.2-6.2
	s6.1-6.3,7.1-10.4c1.1-4.3,0.3-8.8,1.4-13.1c0.8-3.3,2.8-6.5,2.3-9.8c-0.3-2.2-1.5-4.1-2.5-6.1c-0.9-2,0.6-4.3-0.3-6.3
	c-0.9-1.9-3-3.2-3.9-5.1c-2.8-6-5.7-12.1-6.3-18.7c-0.5-5.5,0.6-10.9,1.2-16.4c0.6-5.4,0.6-11.2-2-16.1c-0.6-1.1-1.3-2.3-1.2-3.5
	c0.3-2.1,2.8-3,4.9-3.5c3.6-0.7,7.3-1.2,10.9-0.8c3.6,0.5,7.2,2,9.6,4.7c0.5,0.6,1,1.3,1.6,1.8c1.5,1.2,3.7,1.2,5.2,2.3
	c2.2,1.7,2.4,5.2,4.8,6.5c0.8,0.4,1.8,0.5,2.8,0.6c5.3,0.4,10.6,0.7,15.9,1.1"/>
<path fill="none" stroke="#E1E1E1" stroke-miterlimit="10" d="M371.2,176.2c-6.2,0.4-12.8,0.8-18.3-2.2c-2.9-1.5-5.5-3.9-8.8-3.9
	c-2.1,0-4.2,1.1-6.3,0.7c-1.4-0.3-2.6-1.1-3.8-1.9c-4.6-2.7-10.2-3.3-15.5-2.4s-10.2,3-15,5.3c-1.9,0.9-3.9,2.1-4.4,4.1
	c-0.4,1.6,0.4,3.1,0.9,4.6c2.8,7,3,14.8,4.3,22.2c2,11.4,6.6,22.2,8.3,33.7c0.2,1.1,0.3,2.2,0.7,3.3c0.4,1,0.9,2,1.3,3
	c0.5,1.2,0.8,2.5,1,3.9c1.4,9.8-3.7,19.3-8.7,27.8c-1.8,3.1-3.8,6.3-7.1,7.7c-1.9,0.8-4,0.8-6,0.7c-5.1-0.4-9.4-5.8-14.4-4.7
	c-3.5,0.8-1.2,6.9,0.1,10.3c0.9,2.4,1.9,4.7,3.3,6.9c2.1,3.2,5.1,5.8,8,8.3c6.8,6,13.4,12.3,20,18.5c3.2,3,6.4,6.1,8.5,9.8
	c0.5,0.8,0.9,1.7,1.5,2.4c1.1,1.3,2.8,2,4.4,2.6c4.7,1.9,9.3,3.7,14,5.6c3.6,1.4,7.2,2.9,10.9,4c6.9,2.1,14.1,3.2,21.4,3.2"/>
<path fill="none" stroke="#E1E1E1" stroke-miterlimit="10" d="M368.9,361c-14.2,0-28.6-2.5-41.1-9.1c-2-1-3.9-2.2-5.8-3.3
	c-2.9-1.7-5.8-3.4-8.8-5.1c-1.4-0.8-2.7-1.6-3.8-2.7c-1.8-1.9-2.7-4.4-4-6.6c-5.9-10.1-20.4-12.6-26.4-22.6
	c-1.4-2.3-2.2-4.9-3.6-7.1c-1.7-2.8-4.2-5.1-5.8-7.9c-1.4-2.5-2-5.4-2.7-8.2c-2.1-9.2-4.1-18.3-6.2-27.5c-0.4-1.8-1.4-5.1,0.5-5.3
	c3.6-0.4,5.9,4.1,8.8,6.2c1.5,1.1,3,2.1,4.7,2.9c1.6,0.7,3.3,1,4.9,1.5c2.6,0.8,5.1,1.9,7.4,3.3c2.2,1.4,5.3,3,7.2,1.2
	c0.7-0.7,1-1.6,1.3-2.6c3.4-11.3,4.9-23.2,4.5-34.9c-0.1-3-0.9-6.1-1.9-8.9c-3.2-9.2-6.3-18.5-9.5-27.7c-2.3-6.8-4.7-13.8-3.9-20.9
	c0.2-2.1,1-4.5,2.9-5.3c1.4-0.6,3-0.1,4.5-0.3c1.1-0.1,2.1-0.6,3.1-1.1c5.8-2.6,11.9-4.5,17.9-6.5c1.8-0.6,3.5-1.1,5.4-1.1
	c2.9,0,5.7,1.4,8.6,1.8c5.2,0.9,10.5-1.2,15.5-3c5-1.8,10.5-3.5,15.5-1.8c4,1.3,8,4.8,12,3.2"/>
<path fill="none" stroke="#E1E1E1" stroke-miterlimit="10" d="M353.7-13.4c-1.2,2.3-0.2,5.1,0.9,7.6c1,2.3,2.1,4.6,3.1,7
	c1,2.1,1.9,4.3,2.3,6.7c0.3,2.2,0.1,4.5,0.1,6.8c0,3.3,0.5,6.7,2.6,9.2c2.1,2.5,5.7,3.6,8.9,2.7"/>
<path fill="none" stroke="#E1E1E1" stroke-miterlimit="10" d="M335.2-11.4c-2.2,1.1-1.8,4.5-0.1,6.4s4,2.9,5.5,4.9
	c1.9,2.4,2.2,5.7,2.4,8.8c0.3,4.6,0.4,9.2-0.9,13.6c-1,3.2-6.4,6.1-4.5,8.9c1.7,2.5,5.4,2.1,8.2,3.4c1.1,0.5,2.2,0.8,3.4,1.1
	C356,37.2,363,38,370,37.8"/>
<path fill="none" stroke="#E1E1E1" stroke-miterlimit="10" d="M317.1-11.4c0.2,4.8,1.8,9.6,4.4,13.7c0.8,1.3,1.8,2.5,2.3,3.9
	c1.7,4.5-1.1,9.3-3.7,13.3c-1.6,2.3-3.1,4.7-4.7,7c-0.3,0.4-0.6,1-0.5,1.5c0.1,0.6,0.8,1,1.3,1.2c5.3,2.5,10.6,5,15.9,7.5
	c1.2,0.6,2.5,1.2,3.5,2.1c1.7,1.6,2.6,4,4.7,5.1c1.8,0.9,3.9,0.6,5.9,0.7c3.2,0.1,6.3,1.3,9.3,2.5c1.9,0.7,3.8,1.5,5.7,2.2
	c0.7,0.3,1.5,0.6,2.1,1.1c0.6,0.4,1.1,1,1.7,1.6c2.3,2.2,5.6,3.1,8.7,2.5"/>
<path fill="none" stroke="#E1E1E1" stroke-miterlimit="10" d="M368.2,78.7c-3.7,0.8-7.4,1.7-11.1,2.5c-3.1,0.7-6.3,1.4-9.4,2.2
	c-1.1,0.3-2.2,0.6-2.8,1.5c-1.1,1.7,0.5,4,2.4,4.9c1.9,0.9,4.1,1.2,5.4,2.8c0.6,0.7,0.9,1.5,1.3,2.4c1.1,2.8,2.2,5.7,3.4,8.5
	c0.2,0.6,0.5,1.3,1.1,1.7c0.4,0.3,1,0.5,1.5,0.6c4.1,0.9,8.2,1.8,12.3,2.8"/>
<path fill="none" stroke="#E1E1E1" stroke-miterlimit="10" d="M304-11.1c-2.4,6,4.1,11.8,3.1,18.2c-0.3,2-3.6,2.2-4,4.2
	c-0.1,0.5-0.1,0.9-0.4,1.3c-0.2,0.4-0.6,0.6-1,0.8c-3.6,1.9-7.9,2.6-10.9,5.3c-2.6,2.2-3.9,5.5-5.2,8.7c-3.1,7.7-6.2,15.4-8.1,23.4
	c-0.2,0.9-0.3,2,0.4,2.5c0.6,0.4,1.3,0.2,2,0c6.4-2.1,12.5-5.2,18.9-7.5c6.4-2.3,13.2-3.9,19.9-2.8c0.9,0.1,1.8,0.3,2.6,0.8
	c1.6,0.9,2.4,2.8,3,4.5c1,2.4,2,4.9,2.9,7.3c0.4,1,0.8,2,1.7,2.6c1,0.8,2.6,0.9,3.2,2.1c0.8,1.5-0.7,3.2-2.1,4.2
	c-1.4,1.1-2.9,2.2-4.3,3.2c-1.6,1.2-3.3,2.5-4.2,4.3c-1.8,3.3-0.5,7.4,1.1,10.9c3.8,8.2,16.3,10.3,17.8,19.2
	c0.6,3.7-1.4,7.5-0.4,11.1c1.1,4.2,5.7,6.3,9.9,7.4c2,0.5,4.3,1.1,5.5,2.8c0.7,0.9,0.9,2.1,1.1,3.2c0.8,4.4,4.8,11.3,0.9,13.4
	c-2.7,1.4-5.9-0.1-8.3,1.7c-2.4,1.8-4.8,4.1-7.8,4.1c-1.1,0-2.3-0.3-3.4-0.2c-1.5,0.1-2.8,0.8-4.1,1.5
	c-13.5,7.2-28.4,11.2-43.2,15.2c-1.3,0.3-2.6,0.7-3.9,1c-0.8,0.2-1.6,0.4-2.3,0.9c-0.7,0.4-1.3,1-1.9,1.5c-4.2,3.6-10.7,4.9-12.8,10
	c-1.1,2.8-0.5,6,0.3,9c2.9,11,7.7,21.4,14,30.8c0.6,0.9,1.2,1.8,1.4,2.8c0.3,1.7-0.5,3.4-1.1,5c-0.6,1.6,0.6,3.1,0.6,4.9
	c-0.1,5.4-9,6.9-9.6,12.3c-0.6,4.7,5.2,10.3,2.1,13.8c-2.6,3-19.7-17.4-32.4-18.5c-0.7-0.1-1.4-0.1-2,0.3c-0.9,0.6-1.1,1.8-1.1,2.9
	c0,1.8-0.2,6.3,0.1,8c3.5,17.3,4.7,32.2,9.8,48.2c1.7,5.3,4.8,10.8,8.2,15.1c11.3,14.2,23.2,27.9,37.6,39.1c2.9,2.3,5.6,5.1,8.8,6.8
	c3.2,1.7,7.1,1.7,9.8,4c1.3,1.1,3.5,2.1,4.7,3.3c3.9,4,15.5,8.4,19.5,8.5"/>
<path fill="none" stroke="#E1E1E1" stroke-miterlimit="10" d="M285.2,370.8c-2.7-1.8-5.4-3.5-8.1-5.3c-1.3-0.9-2.7-1.7-3.6-3
	s-1.3-3-0.6-4.4c0.2-0.4,0.5-0.8,0.6-1.3c0.2-0.9-0.5-1.7-1.1-2.5c-4.9-5.8-7.5-13-11.5-19.4c-1.6-2.6-3.5-5.1-5.3-7.5
	c-4.8-6.5-9.7-12.9-14.5-19.4c-6.8-9-10.1-19.3-13.9-30c-2.4-6.8-4.8-13.5-7.1-20.3c-1.7-4.9-3.4-9.8-4.4-14.8
	c-0.7-3.9-0.9-8,1-11.5c1.2-2.2,3.2-4,5.3-5.5c9.3-6.6,24-0.5,32.5-8.2c2.6-2.4,4.7-5,5.4-8.5c0.7-3.5-2.5-6.5-2.4-10
	c0.1-5.3,0.3-10.6,0.4-15.9c0.1-2.4,0.1-4.9,1.1-7.1c1.3-2.9,4-4.8,6.5-6.6c6.9-4.9,13.7-9.8,20.6-14.6c5.8-4.1,11.7-8.3,18.5-10.2
	c1.4-0.4,2.9-0.7,3.9-1.7c1-1,1.3-2.9,0.2-3.8c-0.4-0.3-0.9-0.4-1.4-0.6c-2.5-1-3.7-4.1-3.3-6.8s1.8-5.1,3.3-7.3
	c1.8-2.7,3.6-5.4,6.3-7.2s5.9-0.8,9.1-1.3c2.8-0.5,2.6-5.3,1.4-7.9c-0.6-1.2-1-2.2-2.3-2.4c-1.3-0.2-2.7,0-4.1-0.3
	c-3.3-0.7-5.3-4-6.8-7c-2.7-5.3-5.4-10.5-8.1-15.8c-0.7-1.4-1.4-2.8-1.5-4.3c-0.1-2.4,1.4-4.8,0.7-7.1c-0.9-2.8-2-5.5-4.3-7.2
	c-2.8-2.1-6.8,2.1-10.3,1.7c-0.9-0.1-1.8-0.2-2.7-0.2c-1.2,0.1-2.4,0.6-3.5,1.2c-10.9,5.1-29,12.8-34.4,10.1
	c-2.3-1.1,1.2-4.9,2.6-7.1c11.5-17.8,11.1-40.9,20.3-60c0.8-1.6,1.7-3.3,3.1-4.4c1.7-1.3,3.8-1.7,5.9-1.9c2.4-0.2,4.9-0.1,7.3,0.3
	c1.9,0.3,4.2,0.7,5.5-0.7c2-2.1-0.1-5.2-0.8-8c-0.6-2.2,0-4.7,1.4-6.6"/>
<path fill="none" stroke="#E1E1E1" stroke-miterlimit="10" d="M247.2,370.2c-5.5-1.2-10.6-4.3-14.3-8.6c-1.1-1.3-2.1-3.4-0.9-4.7
	c0.7-0.7,1.7-0.7,2.7-1c0.9-0.3,1.9-1.1,1.7-2c-0.1-0.3-0.3-0.6-0.5-0.9c-2.8-3.2-6.6-5.5-9.7-8.4c-3.1-3-5.5-7.2-4.6-11.4
	c0.6-2.7,2.5-5.1,2.6-7.8c0-1.6-0.6-3.2-1.2-4.7c-1.1-2.6-2.2-5.2-3.3-7.8c-1.7-4-3.4-8.2-6.8-10.9c-0.9-0.8-2-1.4-2.8-2.3
	c-0.9-0.9-1.4-2.1-2-3.2c-1.6-3-3.1-6-4.7-9c-4.5-8.7-9-17.5-11-27c-2.1-9.6-7.7-19.4-6.3-29.2c0.5-3.8,1.8-7.8,4.9-10.1
	c2.1-1.5,4.7-2.1,7.2-2.7c12-2.9,23.5-8.1,33.7-15.1c0.9-0.6,1.8-1.3,2.2-2.3c0.4-1,0.2-2.1,0.1-3.2c-0.4-5.6,3-10.7,6.5-15
	c6.8-8.3,14.7-15.6,21.4-23.9c5.1-6.3,9.6-13.1,14.6-19.6c4-5.2,8.5-10.1,14.2-13.3c2-1.1,4.1-2,5.8-3.5c1.7-1.5,2.9-3.9,2.3-6.1
	c-0.3-1.1-1-2-1.4-3c-1.1-3.5,2-7.2,1.4-10.9c-0.5-2.5-2.6-4.3-5-5.1c-2.4-0.8-5.1,0.2-7.4-0.7c-5.7-2.1-9.7-8.1-15.8-8.5
	c-1.7-0.1-3.4,0.1-5,0.3c-7.3,1-14.4,2.5-21.6,4.1c-1.6,0.3-3.1,0.7-4.7,1c-2.3,0.5-4.7,1-7,1.4c-2.5,0.4-5.1,0.7-7.7,0.8
	c-5.1,0.2-10.4-0.1-15.1-2.2c-0.5-0.2-1.1-0.5-1.4-1c-0.3-0.5-0.3-1-0.4-1.6c-0.3-6.8,3.2-13.6,8.9-17.3c2.3-1.5,4.8-2.5,7-4
	c2.1-1.5,3.8-3.4,5.5-5.2c7.5-8.4,15-17.7,16.8-28.8c0.6-3.8,0.5-7.6,1-11.4c0.9-7,3.6-13.6,6.3-20.1c1.2-2.8,2.3-5.7,4.1-8.2
	c2.4-3.5,5.8-6.3,9.3-8.8"/>
<path fill="none" stroke="#E1E1E1" stroke-miterlimit="10" d="M211.2,371.4c-3.3-6.3-9.3-11.1-16.1-13.1c-2.5-0.7-5.2-1.1-7.3-2.6
	c-2.1-1.5-3.3-4.8-1.6-6.7c0.6-0.7,1.5-1.3,1.3-2.1c-0.1-0.6-0.7-1-1.3-1.3c-7.2-4-13.6-9.2-18.9-15.4c-0.7-0.9-1.5-1.8-1.7-2.9
	c-0.7-3.1,2.7-5.4,4.1-8.2c1.9-3.5,0.6-7.8-0.1-11.8c-1.1-5.9-0.7-12.1,1-17.8c0.6-1.9,1.2-3.7,1.2-5.7c0-1.8-0.6-3.5-1.3-5.2
	c-4.4-11.9-8.7-23.7-13.1-35.6c-0.4-1.1-0.8-2.2-0.7-3.4c0.2-1.4,1.1-2.5,2-3.6c4.7-5.3,9.8-10.8,11.5-17.6c0.8-3.1,1-6.8,3.4-8.9
	c1.5-1.3,3.4-1.7,5.3-2.1c12.4-2.2,34.1,1.6,35.3-10.9c0.3-2.9-1.4-6.1,0-8.7s3.8-4.5,6.1-6.3c14.4-11.9,27.6-25.3,39.4-39.8
	c1.3-1.6,2.5-3.2,3.4-5c1-2.2,1.5-4.5,2.5-6.7c1.9-4.1,5.6-6.9,8.6-10.3c0.5-0.5,0.9-1.1,0.9-1.8c-0.1-0.9-2.3-1.4-3-1.9
	c-2.2-1.8-0.7-4.2-1.7-6.8c-3.2-8.4-16.3-6.8-25.2-5.6c-12.3,1.7-24.1,8.8-36.4,7.2c-1.7-0.2-3.4-0.6-4.8-1.7
	c-1.8-1.4-2.6-3.8-3.3-6.1c-1.1-3.6-2.3-7.3-3.4-10.9c-0.6-1.8-1.2-3.7-1-5.7c0.2-2.2,1.2-4.2,2.3-6.1c4.4-8.1,9.1-16.4,16.2-22.3
	c4.1-3.4,9.1-6,12.3-10.4c5.3-7.4,4-17.4,5.1-26.4c1.7-13.6,9.3-25.6,16.6-37.1"/>
<path fill="none" stroke="#E1E1E1" stroke-miterlimit="10" d="M171.4,370.8c-3.4-3.6-8.2-5.6-12.5-8.1c-9.9-5.7-17.9-14.3-27.5-20.4
	c-1.3-0.8-2.8-1.9-2.9-3.4c0-0.6,0.2-1.2,0.2-1.8c0-1.4-0.9-2.7-0.9-4.1c0-1.4,1.3-1.6,2.7-1.7c2.7-0.2-1.4-4.9-3.4-6.6
	c-5.3-4.6-9.5-11.7-7.5-18.4c0.4-1.3,0.9-2.5,1.4-3.7c0.7-2,1.2-4,1.7-6.1c2-8.5,4.4-16.9,6.8-25.2c0.4-1.5,0.9-3,1.3-4.5
	c1.8-6.4,3.7-12.8,5.5-19.2c2.3-8.1,4.8-16.5,10.1-23.1c1.6-1.9,3.3-3.7,4.6-5.8c0.9-1.5,1.6-3.2,2.2-4.8c0.4-1.1,0.9-2.3,0.4-3.4
	c-0.6-1.3-0.8-3.2-2.2-3.5c-4.6-0.9-9-3.6-12.8-6.6c-6.8-5.4-15-16.1-12.4-24.8c0.4-1.3,5.5-0.2,5.7-1.6c0.1-0.9-0.5-1.6-0.9-2.4
	c-1-1.9,2.1-4.8,0.4-6c-3.6-2.7-10.6-6.8-8.8-11.8c1.1-2.9,13.1,4.6,20.2,5.6c9.6,1.3,18,1.8,28,6.4c0.9,0.4,1.6,1.5,1.3,2.4
	c-0.3,0.8-1.2,1.1-2.1,1.3c-4.9,1.2-9.8,3.6-12.6,7.8c-2.8,4.2-3,10.5,0.6,14c3,2.9,7.5,3.3,11.6,3.3c6.3-0.1,12.6-1,18.7-2.6
	c1.1-0.3,2.1-0.6,3.1-1.2c1.2-0.7,2.1-1.8,3.1-2.8c12.4-13.3,23.4-22.2,38.1-32.8c1.2-0.9,2.4-1.7,3.3-3c1-1.4,4.7-6.5,5-8.2
	c0.9-4.5,2-7.4,2.1-12c0-0.7,0-1.4-0.4-1.9c-0.6-0.7-1.6-0.6-2.5-0.7c-2.9-0.2-5.3-2.1-8.1-2.9c-2.4-0.7-5-0.6-7.5-0.5
	c-8.4,0.2-16.8-0.5-25.1-1.9c-5.2-0.9-11.3-3.1-12.1-8.3c-0.4-2.4,0.6-4.9,0-7.2c-0.7-2.7-3.4-4.7-3.8-7.5c-0.3-2.3,0.9-4.5,0.8-6.8
	c0-2.3-1.3-4.4-1.9-6.6c-1.5-6.1,2.5-12.2,6.5-17.1c6-7.2,9.4-16.2,16.4-22.4c4-3.5,8.7-7,10.3-12.1c0.4-1.2,0.5-2.4,0.7-3.6
	c0.5-3.4,1-6.9,1.5-10.3c0.2-1.3,0.4-2.6-0.1-3.8c-0.8-1.9-3-2.8-5-3.4c-3.9-1.2-7.8-2.4-11.8-3.4c-2.1-0.5-4.7-1.9-4.3-4
	c0.3-1.4,1.8-2.1,3.2-2.5c3.1-1.1,6.2-2.1,9.2-3.2c4-1.4,8.7-3.5,9.5-7.7c0.4-2-0.3-4.2,0.6-6"/>
<path fill="none" stroke="#E1E1E1" stroke-miterlimit="10" d="M105.5,371.9c0.9-1,0.3-2.6-0.6-3.5c-0.9-1-2.1-1.8-2.4-3.1
	c-1-3.9,8.7-6.9,5.9-9.7c-4.5-4.3-9.4-6.7-12.6-12c-1.7-2.9-6.3-2.6-9.6-1.7c-1.3,0.4-2.6,1-3.9,1.1c-1.4,0.1-2.7-0.3-4-0.6
	c-4-1.1-8.1-2.3-12.1-3.4c-6.7-1.9-13.7-4-18.2-9.2c-0.8-0.9-1.6-2-1.7-3.3c-0.4-3.2,3.4-5.4,6.6-5.2s6.2,1.8,9.3,2.4
	c4.1,0.7,9.5,1.4,12.1-1.7c1.2-1.5-1.7-3.5-1.6-5.4c0-1,0.7-2,1.2-2.8c2.1-3,4.1-5.9,6.2-8.9c2.1-3,4.2-6.3,4.1-9.9
	c-0.1-4-3-7.6-2.6-11.5c0.6-5.8,7.3-8.3,11.6-12.3c2.7-2.5,4.5-5.7,6.9-8.4c5.4-6.3,7.4-3.3,9.4-4.6c2.7-1.9-4.7-1.1,7.3-20.8
	c1.9-3.1,2.1-10.7,3.6-14c1.7-3.6,7.6-4,8.7-7.9c1.8-7.1-12.1-8.5-17.7-13.3c-2.8-2.4,4.9-5.1,5.4-8.8c0.2-1.3-0.5-2.5-1.1-3.6
	c-3.6-7-5.8-14.7-6.2-22.5c-0.2-3.6-0.3-7.6-2.9-10c-2.8-2.5-7.2-2-10.4-4c-5.9-3.5-4.7-12.4-7.6-18.6c-1.3-2.7-3.3-4.9-5.1-7.3
	c-5-7-7.1-15.9-5.8-24.4c0.1-0.5,0.2-1,0.5-1.4c0.7-0.8,2-0.8,2.9-0.4c17.9,8.7,37.1,32.2,44.2,30.3c1.1-0.3,0.1-2.2,0.6-3.3
	c0.9-2.3,4.8,0.6,6.7,2.3c5.1,4.5,10.3,8.9,15.4,13.4c1,0.9,2.2,1.8,3.5,1.4c0.9-0.3,1.4-1.2,2.2-1.8c1-0.9,2.4-1.1,3.8-1.4
	c16.7-3.5,19.8,0,22-3.4c1.2-1.8-4.3-4.4-4.5-17.9c-0.1-5-2.4-13.5-4.1-18.2c-1-2.9-2.6-5.6-3.1-8.6c-0.5-3,2.3-5,3.3-7.8
	c1-3-4.3-4.7-6.3-7.2c-2-2.5-0.2-5.4-0.1-8.6c0.1-3.3-5.3-4.4-6.4-7.6c-1.1-3.2,0.2-7.4,3.4-8.2c1.2-0.3,7.7,0,8.9,0.2
	c5.2,0.7,9.2,3.7,10.2,2c4.5-7.3,10.7-16.7,19.7-24.8c2-1.8-0.7-2.5-1.9-3.6c-7.9-7.1-18.2-10.4-28.3-13.8c-2.2-0.8-4.5-1.5-6.5-2.7
	c-3.7-2.1-6.6-5.2-9.5-8.3c-0.6-0.6-1.2-1.3-1.5-2.1c-0.5-1.5,0.3-3.3-0.3-4.8c-0.3-0.8-1.1-1.5-1.3-2.4c-0.2-1.1,0.8-2.3,1.9-2.3
	c0.7,0,1.3,0.4,2,0.6c2.9,0.8,6-2.6,4.9-5.4"/>
<path fill="none" stroke="#E1E1E1" stroke-miterlimit="10" d="M-15.3,328.9c2.4,2.5,4.8,5.1,7.2,7.6c0.9,0.9,1.7,1.8,2.4,2.9
	c1.1,1.7,1.7,3.9,3.2,5.3c0.9,0.9,2,1.4,2.8,2.4c1.4,1.6,1.4,4,1.1,6.1c-0.9,7.2-4,14-8.9,19.4"/>
<path fill="none" stroke="#E1E1E1" stroke-miterlimit="10" d="M-15.6,309.7c5.1,6.7,11.8,12.3,19.3,16.1c0.5,0.3,1,0.5,1.4,1
	c0.3,0.4,0.5,0.9,0.7,1.4c3.1,8.9,7,17.5,11.6,25.7c0.6,1,1.2,2,2.2,2.6c0.6,0.3,1.3,0.5,1.8,0.9c1.3,1,1,3,0.9,4.6
	c-0.1,3,1,5.9,3.1,8.1"/>
<path fill="none" stroke="#E1E1E1" stroke-miterlimit="10" d="M47.9,371.5c-0.9-2.6-2.2-6.6,0.1-8.2c1.4-1,3.8,1.9,5.2,0.7
	c2.7-2.3,0.4-7.5-1.4-10.5c-5.1-8.5-15.9-11.8-23.6-18c-1.7-1.4-3.4-2.7-4.6-4.6c-2.2-3.4-2.4-8.1-5.4-11c-1.4-1.4-3.4-2.1-5.2-3
	c-9-4.2-24.3-14.3-18.1-22.1c0.8-1,3.1,0.5,3.9-0.5c2.4-3.1-0.9-7.9-1.3-11.8c-0.1-0.7-0.1-1.4,0.2-2c0.4-0.6,1.1-0.8,1.8-1
	c4-0.9,8,2.7,11.9,1.6c3.3-0.9,5.9-2.9,9.2-2.1c16.8,3.9,15,9.9,17,7.1c4.2-6,9.5-9,14-10.4c2.5-0.8-4.1-12.3,0-27.9
	c0.5-1.7,1-3.4,2-4.9c4.1-5.6,12.8-3.7,19.2-6.2c1-0.4,2-0.9,2.9-1.4c2.3-1.2,6.9-1,6.9-3.6c0-7,2.5-11.4,5.9-17.1
	c1.3-2.1-3.6-10.8-4.9-16.4c-0.6-2.5-1.1-5.1-0.4-7.5c0.6-2.5,2.8-4.7,5.3-4.6c1.3,0,0-2.3-0.9-3.3c-0.8-1-2.1-1.6-2.6-2.8
	c-0.8-1.6,0.1-3.6-0.5-5.2c-0.4-1.1-1.3-1.9-2.1-2.7c-8.1-8.6-3-23.4-8.6-33.9c-1.8-3.4-4.7-6.2-7-9.3c-6.4-8.5-8.4-19.7-7.8-30.3
	c0.2-2.8,0.5-5.6,0.1-8.3c-0.3-2.2-1.4-3-2.2-5.1c-1.7-4.8-4.4-9.2-6.2-14c-0.5-1.5-1.3-6.5,0-7.3c0.9-0.6,3.9,0.9,5,1.3
	c9.1,3.5,24.4,12.5,27.4,10.6c2.6-1.7,1-6.2,4.1-6.2c3.1,0,5.7,2.3,8.1,4.2c8.5,7,18.5,12.2,29.1,15.1c0.5,0.1,1,0.3,1.6,0.2
	c0.8-0.1,1.5-0.6,2.3-1c2.6-1.4,5.9-1.6,8.6-0.4c0.9,0.4,1.9,1,2.8,0.5c1.3-0.6,1.1-2.5,0.7-3.8c-0.8-2.7-1.7-5.4-2.5-8.2
	c-1.8-5.9-3.7-12-7.3-17c-1.6-2.3-3.6-4.4-5.2-6.6c-4.8-6.3-7.5-13.9-10.1-21.4c-0.8-2.4-2.1-6-3.6-8c-4.8-6.7-9.1-13.7-13-20.9
	c-0.6-1.2-1.2-2.7-0.2-3.6c0.4-0.3,0.8-0.5,1.3-0.6c2.8-0.7,5.9-0.6,8.6,0.3c1.2,0.4,2.5,0.9,3.7,0.6c1-0.3,1.7-1,2.4-1.7
	c2.5-2.6,5.8-5.5,9.1-4.2c0.7,0.3,1.4,0.7,2,0.2c0.3-0.2,0.4-0.6,0.4-1c0.2-1.4-0.1-2.8-0.7-4"/>
<path fill="none" stroke="#E1E1E1" stroke-miterlimit="10" d="M-14.9,221.3c8.2,2.2,16.5,5.7,21.7,12.4c1.1,1.4,2.1,3,3.6,4.1
	c0.7,0.6,1.6,1,2.4,1.4c3,1.5,6.3,6.4,9,4.4c2.6-1.9,2.1-5.6,4.5-7.7c2.8-2.5,3.5-6.7,5.2-10.1c0.3-0.6,0.6-1.2,0.8-1.9
	c0.2-1.1-0.2-2.2-0.6-3.3c-1.8-5.6-2.6-11.5-2.4-17.3c0.2-4.6,1.5-9.8,5.6-11.7c4.3-2,9.2,0.6,14,0.6c0.6,0,1.3,0,1.8-0.4
	c0.9-0.6,1.1-1.7,1.3-2.7c0.7-4.1,1.8-9,5.7-10.4c1.3-0.5,2.9-0.5,3.8-1.6c0.7-0.9,0.6-2.1,0.5-3.3c-1.1-10.4-2.3-21.1-6.7-30.6
	c-2.5-5.4-6.1-10.3-7.9-16c-2.7-8.7-4.7-17.6-5.4-26.7c-0.2-2.4-0.3-4.9-1.1-7.2c-0.9-2.8-2.6-5.2-3.8-7.8c-2.3-5-2.8-10.7-4.2-16.1
	c-3.4-13.5-12.5-25.2-15-38.8c-0.8-4.1-0.8-8.6,1.5-12.1s7.7-5.1,10.8-2.3c1.1,0.9,1.8,2.3,3.2,2.7c1.2,0.3,2.5-0.2,3.7-0.3
	c1.8-0.2,3.5,0.6,5.2,1.2C54,23.5,58,31.9,62.2,30.7c3.4-0.9,0.9-7.1,2.4-10.3c1.5-3.2,5.5-5.8,8.6-4c1.4,0.8,2.4,2.4,4,2.4
	c0.7,0,1.4-0.4,2.2-0.4c1.9,0,3,2.2,3.5,4c0.5,1.9,1.8,5.8,3.2,4.4c0.9-0.9,0.6-2.2,0.9-3.4s0.8-1.6,1.4-2.7
	c1.3-2.4-8.2-9.8-7.3-15.6c0.2-1,0.6-2.1,0.2-3.1c-0.3-0.8-1-1.3-1.6-1.9C76.9-2.1,75-5.4,74.5-9c-0.3-2.3-1-5.5-3.3-5.2"/>
<path fill="none" stroke="#E1E1E1" stroke-miterlimit="10" d="M-13.8,185.6c1.5,0.9,2.9,1.8,4.4,2.7c2,1.2,5.2,4.1,6.7,2.2
	c2.9-3.8-0.5-14,5.1-23.6c9.4-16.3,19.3-9.9,21.1-13.4c2.3-4.3-3.3-5.2-3.1-28.6c0-6.2-0.8-12.4-2.5-18.3c-0.8-3-1.9-5.9-2.5-9
	c-0.8-4-0.7-8-0.8-12.1c-0.6-17.1-5.8-33.6-11-50C2,30.6,0.5,25.7-1.1,20.8c-0.8-2.5-1.6-5-1.2-7.6c0.5-4,3.7-7.2,4.9-11
	c0.9-2.9,0.7-6,1.1-9s1.9-6.2,4.7-7.2"/>
<path fill="none" stroke="#D6D6D6" stroke-miterlimit="10" d="M334.9,134.7c-1.2-1.5-2.7-3.3-3.4-5.1c-1-2.6-1-5.9-3.3-7.4
	c-1-0.6-2.3-0.9-3-1.8c-0.4-0.6-0.5-1.3-0.7-2c-0.4-1.4-1.3-2.6-2.3-3.8c-1.2-1.6-2.5-3.2-4.3-4c-2.9-1.3-5.9,0.4-8.8,1.8
	c-2.3,1.2-4.5,2.6-6.7,4.1c-1.3,0.9-3.2,1.2-4.7,1.6c-3.1,0.8-6.3-0.9-8.7-3c-0.5-0.4-1-0.9-1.6-1.2c-1.9-0.9-4,0.6-5.8,1.7
	c-3,1.9-6.5,3-10,3.4c-2.3,0.2-4.4,0.8-6.5,1.6c-1.4,0.6-10.1,4.2-14.6,6.2c-2.3,1-4.6,2.1-6.7,3.4c-2.8,1.8-5.2,4.2-8.1,5.9
	c-2.8,1.6-5.9,2.5-9,3.4c-4.9,1.4-9.7,2.8-14.6,4.2c-1.4,0.4-2.7,0.8-4.1,0.7c-0.8-0.1-1.6-0.3-2.4-0.5"/>
<path fill="#EAEAEA" stroke="#D6D6D6" stroke-miterlimit="10" d="M338.5,133.5c-0.5-0.1-0.9,0-1.4,0.2c-1.1,0.3-2.2,0.9-2.5,2
	c-0.3,0.9,0.1,1.9,0.5,2.8c0.2,0.4,0.4,0.9,0.8,1.1c0.5,0.3,1.1,0.2,1.7,0.1c1-0.2,2-0.4,2.8-1.1c0.7-0.6,1.1-1.4,1.1-2.3
	c0-0.5-0.1-1.1-0.5-1.5c-0.2-0.2-0.5-0.4-0.7-0.5C339.6,133.9,339.1,133.6,338.5,133.5z"/>
<path fill="none" stroke="#D6D6D6" stroke-miterlimit="10" d="M184.5,182.5c6.1,3.5,9.5,11.3,16.4,12.9c3.6,0.8,7.5,0.2,11.2,0.6
	c1.8,0.2,3.4,0.2,5.2,0.8c5,1.5,12,2.5,16.8,4.6c4.1,1.7,6.5,3.7,10.3,6c2.1,1.3,3.6,3.3,5.4,5c8,7.7,8.9,20.5,15.7,29.3
	c2.1,2.7,4.7,5,7.3,7.2c4.9,4.2,9.7,8.4,14.6,12.7c4.4,3.8,8.8,7.7,11.5,12.8"/>
<path fill="none" stroke="#D6D6D6" stroke-miterlimit="10" d="M-14.2,126.1c1.9,0.2,3.4,1.7,4.8,3.1C0,138.4,11,147,22.8,152.9
	c3.4,1.7,6.9,2.6,9.3,5.5c1.5,1.8,2.4,3.9,3.3,6c4.3,9.8,10.2,19.3,16.7,27.8c4.3,5.6,8.1,10.9,12.5,16.3
	c6.2,7.6,11.1,16.1,17.1,23.9c11.6,15.1,27.8,26,44.3,35.3"/>
<path fill="none" stroke="#D6D6D6" stroke-miterlimit="10" d="M-14.9,182.7c2.4-0.4,4.9,0.6,6.8,2.1c1.9,1.5,3.5,3.4,5.1,5.2
	c3.8,4.2,8.3,7.8,11.4,12.6c7.9,12.1,5.1,28.9,13.2,40.8c1.3,1.9,2.8,3.6,4.1,5.4c1.5,2.1,2.6,4.4,3.8,6.7c2.1,4.2,3.8,8.6,5.3,13.1
	c3.1,9.2-0.1,21.2,3,26c3.6,5.4,11.2,6.2,15.9,10.7c3.4,3.3,5.8,8,9.5,11c4.9,4,11.5,5.5,17.3,8c3.5,1.5,6.4,2.2,10.2,2.5
	c4.2,0.4,7.1-1.5,11.3-1.2c5.3,0.4,12.4,4.4,17.7,4.3c2.7-0.1,5.4-0.8,8.1-0.9c2.9,0,14.1,2.1,16.8,2.9c9.1,2.8,9.6,4.9,18.2,9.1
	c5.7,2.8,11.4,5.8,17.7,6.7c4.1,0.5,6.8-0.9,10.9-0.4c7.8,1,12,5.5,31.2,6.5c7.1,0.4,13.9-0.6,21-0.3c11.4,0.4,23,3.2,33.8,1.4"/>
<path fill="none" stroke="#D6D6D6" stroke-miterlimit="10" d="M2.6,370.8c2.7-2.8,5.4-5.5,8.8-7.5c2.1-1.2,4.4-2.1,6.6-3.2
	c4.2-2.1,8.1-4.8,11.4-8.1c2-1.9,4.5-4.3,7.1-3.4c1,0.4,1.8,1.2,2.7,1.7c0.9,0.6,1.8,1,2.8,1.4c4,1.9,7.5,4.7,10.1,8.3
	c1.9,2.5,3.4,5.5,6.2,6.9c1.9,0.9,4,1,6.1,0.8c7.1-0.5,14-3.1,19.7-7.5c2.3-1.8,4.8-4,7.7-3.7c4.9,0.6,10.1-0.3,15-0.2
	c1.7,0,3.5,0.1,5.2,0.4c2.3,0.5,4.4,1.5,6.5,2.6c7.1,3.5,14.3,7,21.4,10.5"/>
<path fill="none" stroke="#D6D6D6" stroke-miterlimit="10" d="M34.2,161.7c0.9,0.4,0.9,0.4,1.3,0.8c2.6,3,7,4.2,10.6,5.7
	c4.8,1.9,8.3,4.9,12.9,7.3c2.1,1.1,4.4,1.9,6.7,2.6c5.4,1.8,10.8,3.5,16.2,5.3c1.7,0.5,3.4,1.1,5.1,1.4c1.9,0.3,3.7,0.3,5.6,0.6
	c6.8,1,12.6,5.6,19.1,7.8"/>
<path fill="none" stroke="#D6D6D6" stroke-miterlimit="10" d="M49.8,189.1c0.7,0,2.1-0.7,2.8-0.4s1.3,1,1.9,1.5
	c1.4,1,4.2,2.6,5.8,3.1c3.3,1,4.8,1.9,7.3,4.2c2.6,2.4,5.2,4.7,7.9,7c6,5.2,12.6,10.3,20.3,12c5.4,1.2,11.1,0.5,16.6-0.3
	c10.4-1.5,20.6-3.7,30.9-5.9"/>
<path fill="none" stroke="#D6D6D6" stroke-miterlimit="10" d="M341.3,136.5c2,0.7,3.6-2.2,5.7-2.4c1-0.1,2,0.4,2.9,0.9
	c1.4,0.7,2.7,1.5,4.1,2.2c1.1,0.6,2.3,1.2,3.2,2.1c1.2,1.1,2,2.5,3,3.8c2.2,3.1,5,5.8,8.1,8"/>
<path fill="none" stroke="#4E9BD7" stroke-linejoin="round" stroke-miterlimit="10" d="M190.6,172.9c4-1.6,8.1-4.6,10.4-8.2
	c1.4-2.2,2.3-4.5,3.3-6.9c0.7-1.8,1.4-3.6,1.5-5.5c0.1-2.7-1-5.5-0.1-8.1l0-0.2c-0.5-0.1-0.9-0.3-1.4-0.4c-3.1-0.7-6.3-0.1-9.4-0.2
	c-6.6-0.2-12.8-3.3-18.7-6.3c-2-1-4-2.1-6.1-3.1c-1.1-0.6-2.2-1.1-3.3-1.8c-0.7-0.4-1.5-0.9-2.3-1.1c-0.8-0.2-1.7,0-2.5,0
	c-5,0.2-8.8-4.3-11.8-8.4c-0.7-0.9-1.2-1.9-1.2-3c0-1.9,0.6-3.7,1.1-5.5c0.5-1.9,0.8-3.8,0.6-5.7c-0.3-1.9-1.2-3.8-2.9-4.8
	c-0.6-0.4-1.4-0.8-1.5-1.5c-0.1-0.5,0.2-0.9,0.4-1.3c1.1-2.3-0.1-5.1-1.7-7.1c-1.6-2-3.7-3.6-5.1-5.7c-0.8-1.2-1.3-2.5-2.2-3.5
	c-1.7-1.8-4.6-2.7-5.2-5.1c-0.2-0.7-0.2-1.4-0.4-2c-0.5-1.3-2.1-1.9-2.9-3c-0.6-0.8-0.7-1.8-0.9-2.8c-0.7-3.4-2.3-6.5-3.9-9.5
	c-0.9-1.6-1.8-3.3-3.2-4.5c-1.4-1.2-3-0.5-5.1-0.8c-1.6-0.2-5.5-4.5-8.4-6.2c-2-1.2-4.3-1.9-6.1-3.5c-3.4-2.9-4.3-7.8-7.2-11.1
	c-2.7-3.1-6.9-4.8-8.6-8.5c-0.9-2-0.9-4.2-1.1-6.4c-0.2-2.2-0.8-4.4-2.5-5.8c-1.5-1.2-2.9-2.3-4.8-2.7s-4.2-1.3-4.9-3.1
	c-0.5-1.1-0.6-2-0.8-3.2c-0.5-2.5-2.9-3.7-4.9-5.3c-2.8-2.1-5.6-4.3-8.9-5.7c-1.4-0.6-2.9-1.1-4.4-1.8c-2.9-1.3-5.4-3.5-7.1-6.2"/>
<path fill="none" stroke="#D6D6D6" stroke-miterlimit="10" d="M121.7-13.4c3.5,4.5,6,8.4,9.1,13.3c2.3,3.7,5,7.7,8.5,10.3
	c4.4,3.2,7.8,7.7,12.1,11.1c4,3.2,8.7,5.3,13.4,7.4c4,1.8,8,3.6,12,5.4c1.7,0.8,3.4,1.5,5.2,1.8c3.3,0.5,6.6-0.6,9.7-1.9
	c7.4-3,14.4-7,20.8-11.8"/>
<path fill="none" stroke="#D6D6D6" stroke-miterlimit="10" d="M155.3-14.6c-0.1,4.1,4.6,6.4,8.6,7.6c2.9,0.9,5.7,1.8,8.6,2.7
	c2.9,0.9,5.8,1.8,8.9,1.9c4.6,0.1,9.2-1.7,13.8-1.1c1.7,0.2,3.3,0.8,5,1.2c8.4,1.7,17.6-3.2,20.8-11.1"/>
<path fill="none" stroke="#D6D6D6" stroke-miterlimit="10" d="M277.9-13c0.3,3.7,2.3,7.1,4.9,9.7s5.8,4.5,9.2,6.2
	c2.2,1.1,4.5,2.1,6.9,2.6c1.4,0.3,2.8,0.4,4.2,0.5c4.9,0.5,8.9,1.3,14.5,2.8"/>
<path fill="#7BBCEB" stroke="#4E9BD7" stroke-miterlimit="10" d="M191.5,174.5c-0.4-1.8-2.3-2.9-4.2-3c-1.8-0.1-3.6,0.5-5.3,1.2
	c-4.1,1.7-8.5,3.4-13,5c-0.8,0.3-1.7,0.7-2.2,1.4c-0.6,0.8-0.5,1.9-0.4,2.9c0.2,2.3,0.7,5.1,2.8,6.1c1.3,0.6,2.9,0.4,4.3,0
	c5-1.4,9.2-4.6,13.6-7.4c1.1-0.7,2.3-1.8,3.2-2.8C191.2,176.9,191.8,175.8,191.5,174.5z"/>
<text transform="matrix(1 0 0 1 161.6224 157.4271)"><tspan x="0" y="0" fill="#7BBCEB" font-family="'Verdana-Italic'" font-size="8">Grayling</tspan><tspan x="14.9" y="9.6" fill="#7BBCEB" font-family="'Verdana-Italic'" font-size="8">Lake</tspan></text>
<text transform="matrix(1 0 0 1 291.2266 131.5607)" fill="#585858" font-family="'Verdana-Italic'" font-size="8">9513 ×</text>
<path fill="none" d="M317.7,294.7c0.6,3.8,8.9,1.3,17.7,15.4c2,3.3,4.6,6.4,7.9,8.5"/>
<text transform="matrix(0.7973 0.6036 -0.6036 0.7973 324.1257 301.66)"><tspan x="0" y="0" fill="#7D7D7D" font-family="'Verdana-Italic'" font-size="7">1</tspan><tspan x="4" y="0" fill="#7D7D7D" font-family="'Verdana-Italic'" font-size="7" rotate="9.5">0</tspan><tspan x="8.1" y="0.7" fill="#7D7D7D" font-family="'Verdana-Italic'" font-size="7" rotate="16.8">4</tspan><tspan x="12.2" y="2" fill="#7D7D7D" font-family="'Verdana-Italic'" font-size="7" rotate="19.4">0</tspan><tspan x="16.8" y="3.6" fill="#7D7D7D" font-family="'Verdana-Italic'" font-size="7" rotate="11.4">0</tspan></text>
<path fill="none" d="M18.1,319.9c3,2.8,3.1,7.5,5.4,11c1.2,1.8,2.9,3.2,4.6,4.6c7.8,6.2,18.6,9.5,23.6,18"/>
<text transform="matrix(0.382 0.9241 -0.9241 0.382 19.1203 327.492)"><tspan x="0" y="0" fill="#7D7D7D" font-family="'Verdana-Italic'" font-size="7">8</tspan><tspan x="5.4" y="-0.1" fill="#7D7D7D" font-family="'Verdana-Italic'" font-size="7" rotate="-19.5">4</tspan><tspan x="9.9" y="-1.9" fill="#7D7D7D" font-family="'Verdana-Italic'" font-size="7" rotate="-29">0</tspan><tspan x="14" y="-4.1" fill="#7D7D7D" font-family="'Verdana-Italic'" font-size="7" rotate="-34.3">0</tspan></text>
<path fill="none" d="M194.7,188c12.4-13.3,23.4-22.2,38.1-32.8"/>
<text transform="matrix(0.7728 -0.6347 0.6347 0.7728 215.5974 171.5746)"><tspan x="0" y="0" fill="#7D7D7D" font-family="'Verdana-Italic'" font-size="7">8</tspan><tspan x="4.4" y="0" fill="#7D7D7D" font-family="'Verdana-Italic'" font-size="7" rotate="1.1">8</tspan><tspan x="8.8" y="0.1" fill="#7D7D7D" font-family="'Verdana-Italic'" font-size="7" rotate="2">0</tspan><tspan x="13.2" y="0.2" fill="#7D7D7D" font-family="'Verdana-Italic'" font-size="7" rotate="2.8">0</tspan></text>
<path fill="none" d="M220,257.7c2.4,6.8,4.8,13.5,7.1,20.3c3.7,10.6,7.1,21,13.9,30"/>
<text transform="matrix(0.3311 0.9436 -0.9436 0.3311 222.6511 272.912)"><tspan x="0" y="0" fill="#7D7D7D" font-family="'Verdana-Italic'" font-size="7">9</tspan><tspan x="4.4" y="0" fill="#7D7D7D" font-family="'Verdana-Italic'" font-size="7" rotate="0">4</tspan><tspan x="8.9" y="0" fill="#7D7D7D" font-family="'Verdana-Italic'" font-size="7" rotate="-0.1">0</tspan><tspan x="13.4" y="0" fill="#7D7D7D" font-family="'Verdana-Italic'" font-size="7" rotate="-0.9">0</tspan></text>
<path fill="none" d="M17.8,30.4c2.5,13.7,11.6,25.4,15,38.8"/>
<text transform="matrix(0.3727 0.9279 -0.9279 0.3727 17.8796 40.0423)"><tspan x="0" y="0" fill="#7D7D7D" font-family="'Verdana-Italic'" font-size="7">8</tspan><tspan x="4.6" y="0" fill="#7D7D7D" font-family="'Verdana-Italic'" font-size="7" rotate="-2.4">2</tspan><tspan x="9.1" y="-0.2" fill="#7D7D7D" font-family="'Verdana-Italic'" font-size="7" rotate="-3.5">0</tspan><tspan x="13.5" y="-0.5" fill="#7D7D7D" font-family="'Verdana-Italic'" font-size="7" rotate="-3.5">0</tspan></text>
<path fill="none" d="M316.2,29.1c5.3,2.5,10.6,5,15.9,7.5c1.2,0.6,2.5,1.2,3.5,2.1"/>
<text transform="matrix(0.9037 0.4282 -0.4282 0.9037 316.8679 32.2293)"><tspan x="0" y="0" fill="#7D7D7D" font-family="'Verdana-Italic'" font-size="7">9</tspan><tspan x="4.4" y="0" fill="#7D7D7D" font-family="'Verdana-Italic'" font-size="7">8</tspan><tspan x="8.9" y="0" fill="#7D7D7D" font-family="'Verdana-Italic'" font-size="7">0</tspan><tspan x="13.3" y="0" fill="#7D7D7D" font-family="'Verdana-Italic'" font-size="7">0</tspan></text>
<path fill="none" d="M229.6,64.5c7.5-8.4,15-17.7,16.8-28.8"/>
<text transform="matrix(0.6037 -0.7972 0.7972 0.6037 237.4743 59.1419)"><tspan x="0" y="0" fill="#7D7D7D" font-family="'Verdana-Italic'" font-size="7">9</tspan><tspan x="4.6" y="0" fill="#7D7D7D" font-family="'Verdana-Italic'" font-size="7" rotate="-3.3">2</tspan><tspan x="9.2" y="-0.3" fill="#7D7D7D" font-family="'Verdana-Italic'" font-size="7" rotate="-7.7">0</tspan><tspan x="13.9" y="-0.9" fill="#7D7D7D" font-family="'Verdana-Italic'" font-size="7" rotate="-13.2">0</tspan></text>
<path fill="none" d="M80.9,101c17.9,8.7,37.1,32.2,44.2,30.3"/>
<text transform="matrix(0.7782 0.628 -0.628 0.7782 94.3991 112.8763)"><tspan x="0" y="0" fill="#7D7D7D" font-family="'Verdana-Italic'" font-size="7">8</tspan><tspan x="4.4" y="0" fill="#7D7D7D" font-family="'Verdana-Italic'" font-size="7" rotate="1">6</tspan><tspan x="8.8" y="0.1" fill="#7D7D7D" font-family="'Verdana-Italic'" font-size="7" rotate="1.4">0</tspan><tspan x="13.3" y="0.2" fill="#7D7D7D" font-family="'Verdana-Italic'" font-size="7" rotate="1.3">0</tspan></text>
<g>
	<g>
		<polyline fill="none" stroke="#7D7D7D" stroke-miterlimit="10" points="85.2,341.6 85.2,348.7 275.4,348.7 275.4,341.7 		"/>
		<line fill="none" stroke="#7D7D7D" stroke-miterlimit="10" x1="180.5" y1="341.4" x2="180.5" y2="348.7"/>
		<line fill="none" stroke="#7D7D7D" stroke-miterlimit="10" x1="161.2" y1="349.2" x2="161.2" y2="343.7"/>
		<line fill="none" stroke="#7D7D7D" stroke-miterlimit="10" x1="142.4" y1="349.2" x2="142.4" y2="343.7"/>
		<line fill="none" stroke="#7D7D7D" stroke-miterlimit="10" x1="123.3" y1="349.2" x2="123.3" y2="343.5"/>
		<line fill="none" stroke="#7D7D7D" stroke-miterlimit="10" x1="104.6" y1="349.2" x2="104.6" y2="343.7"/>
	</g>
	<text transform="matrix(1 0 0 1 83.7835 339.1469)" fill="#7D7D7D" font-family="'Verdana'" font-size="8">0</text>
	<text transform="matrix(1 0 0 1 174.2946 339.1469)" fill="#7D7D7D" font-family="'Verdana'" font-size="8">0.5</text>
	<text transform="matrix(1 0 0 1 258.3415 339.1469)" fill="#7D7D7D" font-family="'Verdana'" font-size="8">1 mi</text>
</g>
</svg>
