<?xml version="1.0" encoding="utf-8"?>
<!-- Generator: Adobe Illustrator 17.1.0, SVG Export Plug-In . SVG Version: 6.00 Build 0)  -->
<!DOCTYPE svg PUBLIC "-//W3C//DTD SVG 1.1//EN" "http://www.w3.org/Graphics/SVG/1.1/DTD/svg11.dtd">
<svg version="1.1" id="Layer_1" xmlns="http://www.w3.org/2000/svg" xmlns:xlink="http://www.w3.org/1999/xlink" x="0px" y="0px"
	 viewBox="0 0 360 360" enable-background="new 0 0 360 360" xml:space="preserve">
<path fill="none" stroke="#E1E1E1" stroke-miterlimit="10" d="M285.9-14.6c-2.2-0.4-3.6,2.7-3,4.8s2.4,3.9,3.1,6
	c0.2,0.6,0.4,1.2,0.7,1.8c0.8,1.6,2.6,2.5,4.3,2.8c1.8,0.3,3.6,0.2,5.3,0.3c6.5,0.6,11.8,5,16.7,9.2c0.6,0.5,1.2,1,1.5,1.7
	c0.2,0.5,0.3,1.1,0.3,1.7c0,2.8,0.7,7-1.9,7.9c-4,1.4-8.7-2.5-12.1,0c-0.5,0.3-0.9,0.7-1.4,1c-0.9,0.5-2,0.5-3,0.5
	c-7.2,0.6-7.3,10.4-13.1,14.6c-2.4,1.7-5.6-2-8.5-1.7c-2.9,0.3-4.1,3.2-6,5.4c-1.7,2.1-5,2.4-6.3,4.7c-0.6,1.1-1.1,2.5-2.1,3.2
	c-1,0.7-2.4,0.7-3.5,1.2c-1.5,0.7-2.5,2.4-2.3,4.1s1.6,3.1,3.2,3.4c1.1,0.2,2.5,0.1,2.9,1.1c0.2,0.4,0.1,1,0.4,1.4
	c0.3,0.6,1.1,0.8,1.7,1.1c2.6,1.4,2.7,5.4,5.3,6.9c0.7,0.4,1.5,0.6,2,1.2c0.5,0.6,0.6,1.4,0.6,2.2c0,2.5-0.7,5.2,0.5,7.4
	c0.5,1,1.4,1.8,2.2,2.5c1.6,1.4,3.5,2.6,5.6,3.1c2.1,0.4,5-0.5,6.9-1.4c2.6-1.3,5-3,7.2-5c0.8-0.7,1.8-1.8,2.7-1.3
	c1.2,0.7,1.8,2.2,2.6,3.2c0.5,0.6,1.1,1.3,1.7,1.8c1.8,1.4,4.9,2.1,7.2,1.9c3.1-0.3,5.1-1.7,8.8-3.5c0.7-0.3,1.4-0.6,2.1-0.3
	c0.5,0.2,0.8,0.7,1.1,1.1c2.6,4.3,1,9.8,2.6,14.7c0.7,2.1,4.3,1.2,6-0.1c1.7-1.3,2.6-3.5,3-5.6c0.7-3.6,0.2-7.3-1.4-10.6
	c-0.5-1.1-1.1-2.1-1.4-3.3c-0.2-0.8-0.2-1.7-0.1-2.6c0.4-4.5,1.9-8.7,3.6-12.9c2.3-5.4,5.1-10.7,9.3-14.8c1.2-1.2,2.6-2.3,3.5-3.7
	c2.1-3.3,1.6-7.4,1.9-11.4c0.3-3.6,2.1-7.4,5-9.7c2.9-2.3,6.2-4.3,7.7-7.7c0.4-1,0.7-2.1,1.2-3c0.5-0.9,1.3-1.7,2-2.5
	c3-3.2,6.1-6.4,9.1-9.6"/>
<path fill="none" stroke="#E1E1E1" stroke-miterlimit="10" d="M370.3,116.9c-0.5-0.3-1-0.7-1.6-0.9c-0.8-0.2-1.7,0.1-2.5,0.5
	c-3.3,1.5-6.2,3.7-9.6,4.9c-3.4,1.2-7.6,1.3-10.2-1.2c-0.4-0.3-0.7-0.7-1.2-0.9c-0.4-0.1-0.9,0.1-1.3,0.2c-3.9,1.2-8-1.3-12.1-1.4
	c-4.7-0.1-8.8,2.8-13.4,3.7c-3.8,0.8-7.4-2.4-11.3-2c-0.5,0.1-0.9,0.9-1.2,1.3c-1.6,2.1-4.2,3.3-6.6,4.5c-1.1,0.5-2.3,1.1-3.5,1.2
	c-0.7,0.1-1.4,0-2.1-0.1c-3.4-0.5-5.5-2-5.7-5.5c-0.3-4.1,5.2-10,1.6-11.8c-2.2-1.1-4.5-1-6.4-2.5c-3.8-2.9-8.7-3.7-13.4-4.8
	c-0.8-0.2-1.6-0.4-2.4-0.7c-0.8-0.4-1.5-1.1-2.4-1.5c-2.2-1.2-5.1-0.9-7.4-2.1c-1.7-0.9-3.1-2.8-5-2.9c-1.6-0.1-2.9,1-4.1,2
	c-2.1,1.7-4.1,3.5-6.2,5.2c-0.9,0.8-1.9,1.6-3,2.2c-0.9,0.5-1.9,0.7-2.9,1c-4.2,1.1-9,2-12.4-0.6c-2.3-1.7-3.4-4.7-4.3-7.4
	c-1.3-3.8-2.6-7.6-3.9-11.3c-0.3-0.8-0.6-1.6-1.3-2c-1.6-0.7-2.9,1.4-4.6,2.1c-1.6,0.7-3.4-0.2-4.6-1.4c-1.5-1.4-1.4-3.8-2.6-5.5
	c-1.5-2.1-4.8-3.2-7.1-4.2c-0.6-0.3-1.2-0.6-1.6-1.1c-0.9-1.1-0.3-2.8,0.4-4c2.3-4.4,5.5-8.2,7.7-12.7c0.8-1.6,1.4-3.3,2.2-4.8
	c1.7-3.2,4.4-5.8,7.6-7.4c0.8-0.4,1.6-0.7,2.5-0.7c1.2,0.1,2.2,0.9,3,1.7c2.1,2,4.6,4.5,7.3,3.6c1.3-0.5,2.2-1.7,3.1-2.7
	c5.6-5.9,14.7-6.2,22.8-7.5c1-0.2,2-0.4,2.8-1c1.1-0.8,1.5-2.3,2.7-3c0.4-0.2,1-0.4,1.3-0.7c0.4-0.4,0.5-1,0.6-1.6
	c0.7-2.7,3.2-4.4,5.3-6.4c2.4-2.3,4.2-5.1,5.4-8.2c0.3-0.7,0.5-1.5,0.2-2.2c-0.3-0.7-1-1.1-1.5-1.7c-1.4-1.5-1.4-3.9-0.8-5.9
	c0.6-2,1.6-3.9,1.7-6c0.2-2.3-0.7-4.6-1.1-6.8c-0.9-4.5-0.1-9.4,2.2-13.4"/>
<path fill="none" stroke="#E1E1E1" stroke-miterlimit="10" d="M370.3,362.4c-3.1-2.6-4.5-6.8-7.4-9.6c-3.1-2.9-7.5-3.8-11.3-5.7
	c-4-2-7.5-5.3-9-9.5c-0.4-1-0.7-2.1-1.5-2.7c-0.5-0.3-1.1-0.4-1.6-0.6c-4.8-1.7-6.3-9.8-11.4-9.4c-2.2,0.2-3.9,2.1-6.1,2.2
	c-3.2,0.1-5.2-3.6-8.2-4.8c-2.6-1-5.7,0.2-7.7,2.2s-3.1,4.7-4.3,7.3c-0.7,1.6-1.4,3.2-2.6,4.4c-3.3,3.4-9.3,4-13.6,1.8
	c-2.6-1.4-5-4.1-7.2-6.1c-1.3-1.2-2.6-2.4-4.2-3.3c-1.7-0.9-3.6-1.3-5.5-1.6c-4.3-0.8-8.5-1.6-12.8-2.4c-4.9-0.9-9.8-1.9-14.1-4.4
	c-1.9-1.1-3.7-2.5-5.9-3c-2.4-0.5-4.9,0.2-7.3-0.3c-3.5-0.7-6.2-3.9-9.6-4.8c-4.7-1.3-9.5,1.8-14.4,2.3c-2.9,0.3-5.8-0.4-8.7-0.2
	c-2.8,0.1-5.5,1-8.3,1.4c-9.2,1.2-20-10.3-27.2-4.5c-6.2,5-6.2,15-13.5,18.3c-1.6,0.7-3.4,1.3-5.2,1.3c-0.8,0-1.7-0.2-2.5-0.3
	c-3.2-0.7-6.3-2.1-9-4c-2.1-1.5-5.3-4.8-6.9-2.8c-1.6,1.9-0.1,4.9-0.2,7.4c0,2.1-0.3,4.4-1.9,5.6c-1.9,1.3-4.4,0.4-6.6,1
	c-1.3,0.3-2.4,1.1-3.6,1.8c-2.7,1.6-5.8,2.4-8.9,2.8c-8.5,1.2-17.3-0.2-25.1-3.9c-0.7-0.4-1.5-0.7-2.3-1c-0.8-0.3-1.7-0.4-2.5-0.5
	c-3.7-0.6-7.8-2.4-8.6-6c-0.3-1.5,0.1-3,0.2-4.6c0.3-2.9,1.6-7.4-1.1-8.6c-6.9-2.9-16.3-3-21.9,1.9c-2,1.8-0.2,5.8-1.3,8.2
	c-1.1,2.5-4,4.3-6.5,3.3c-2.6-1.1-3.7-4.8-6.5-5.1c-0.6-0.1-1.3,0.1-1.9-0.1c-0.5-0.1-0.9-0.4-1.3-0.6c-2.5-1.7-5-3.3-7.5-5
	c-1.7-1.2-3.7-2.7-3.5-4.8c0.2-1.8,2-3.1,3.9-3.1s3.5,0.8,5,1.8c0.9,0.6,2,1.2,2.9,0.8c1.3-0.6,1.1-2.5,0.7-3.9
	c-0.9-2.7-1.7-5.5-2.6-8.2c-0.2-0.7-0.5-1.5-1.1-2.1c-1.1-1-2.7-0.9-4.2-1.1c-4.6-0.8-7.5-5.8-12-7.1c-3.4-1-7.6,0.2-10.4-2
	c-2.6-2.1-2.6-6-4.3-8.9c-1.5-2.5-4.5-4-7.4-3.8"/>
<path fill="none" stroke="#E1E1E1" stroke-miterlimit="10" d="M371.1,343.9c-0.2-0.3-0.4-0.5-0.7-0.7c-1.9-1.8-5.1-0.3-7.7-0.5
	c-0.8-0.1-1.7-0.1-2.5-0.5c-0.7-0.4-1.2-1-1.7-1.7c-4.6-6-9.3-11.9-13.9-17.9c-2.3-3-4.7-6-8-7.7c-0.9-0.5-1.9-0.9-2.7-1.5
	c-1-0.8-1.6-2-2.5-3c-1.1-1.2-2.7-1.8-4.2-2.4c-3.7-1.5-9.1-1.1-11-4.6c-1-1.8,0.7-4,1.6-5.8s2.5-3.3,4.5-3.7
	c2.3-0.4,4.6,0.8,6.4,2.3c1.8,1.5,3.5,3.2,5.7,4.1c1.5,0.6,3.2,0.7,4.5,1.5c0.7,0.4,1.4,1.1,2.3,1.3c1.1,0.2,2.2-0.4,3.1-1
	c3.1-1.9,6.8-3,9.3-5.7c1.7-1.8-0.1-4.7-1-7c-0.9-2.3-1.4-5.4,0.6-6.7c0.6-0.4,1.4-0.6,1.9-1.2c0.7-0.8,0.6-2.1-0.1-3
	c-0.6-0.9-1.6-1.4-2.6-1.9c-2-1.1-4.4-1.7-5.8-3.5c-1-1.3-1.3-3.2-2.5-4.4c-1-1-2.4-1.9-2.7-3.3c-0.4-1.5,0.5-3,1.6-4s2.4-2,3.1-3.3
	c0.8-1.3,0.8-3.2-0.4-4.1c-0.7-0.5-1.7-0.5-2.6-0.5c-3.2-0.1-6.5-0.9-8.7-3.3c-2.7-2.9-2.8-7.2-2.9-11.2c0-1.5,1.3-3.8,0-4.6
	c-1.7-1.1-4.2,0.5-5.7-0.7c-1.3-1.1-2.1-2.7-3.6-3.5c-1.8-0.9-3.9-0.3-5.8-0.8c-2.3-0.6-3.9-2.7-4.6-5c-0.7-2.3-0.6-4.7-0.4-7
	c0.3-5.8,0.6-11.6,0.9-17.4c0.1-2.2,0.2-4.5-0.1-6.7c-0.7-3.8-4.5-5.6-7.7-7.9c-0.6-0.4-1.1-2-1-2.8c0.1-2.3,0.9-5.6-1-6.8
	c-0.8-0.5-1.5,1.1-2,1.9c-0.5,1-1,2.1-1.5,3.1c-1.1,2.2-2.2,4.4-4.3,5.8c-1.7,1.1-3.7,1.5-5.7,1.8c-2.8,0.5-5.1,3.9-5.5,6.7
	c-0.4,3.3,1.6,6.5,0.8,9.7c-0.7,2.8-3.4,4.7-6.1,5.6c-2.7,1-5.7,1.3-8.3,2.3c-0.7,0.3-1.5,0.7-1.6,1.5c-0.1,0.5,0.2,1,0.5,1.4
	c3.4,6.1,3.2,14-0.5,19.9c-0.3,0.4-0.6,0.9-0.7,1.4c-0.1,0.7,0.1,1.4,0.3,2c2.5,6.9,11.8,14.7,7.5,20.6c-0.7,1-2.6-0.7-3.7-0.1
	c-2.4,1.5-0.9,5.6,0.2,8.2s3,4.8,4.8,6.9c1.7,2.1,3.5,4.1,5.6,5.7c0.9,0.7,1.9,1.2,2.6,2.1c2.8,3.3,0.3,8.3-0.3,12.6
	c-0.4,2.8,0.1,5.6,0.6,8.4c1.3,7.4,9.7,17.3,4,22.3c-8,6.9-20-6.6-30.1-9.9c-2-0.7-4-1.3-6-2c-2.9-1-5.9-1.9-8.8-2.9
	c-6.7-2.2-13.6-4.4-20.6-4.8c-1.1-0.1-2.1-0.1-3.1-0.4c-0.9-0.3-1.6-0.8-2.4-1.3c-4.1-2.3-8.9-1.3-13.5-0.4c-4,0.8-8.8,0.5-12.9,0.5
	c-9.6,0.1-18.1-5.9-27.2-9.1c-3-1.1-6.1-1.8-9.2-2.6c-3.1-0.8-6.1-1.5-9.2-2.3c-1.4-0.4-2.9-0.7-4.2-1.4c-1.5-0.8-2.7-1.9-4.1-2.8
	c-3.3-2.2-7.4-3.2-11.3-2.8c-1.3,0.1-2.7,0.5-3.3,1.7c-0.9,1.8,0.9,3.7,2.5,5c2.1,1.7,4.1,3.7,5.9,5.7c0.7,0.8,1.3,1.7,1.2,2.7
	c-0.1,1.1-1.2,1.9-2.2,2.4c-4.8,2.3-10.3,1.9-15.6,1.5c-2-0.2-4.3-0.4-5.8-1.8c-1.2-1.1-1.8-2.9-3.3-3.5c-2.3-0.9-4.9,1.6-7.3,0.9
	c-1.2-0.3-2.1-1.4-2.9-2.4c-1.4-1.9-2.9-3.9-3.3-6.2c-0.7-3.8,1.6-7.6,4.7-9.9c3.1-2.3,6.8-3.5,10.4-4.8c0.7-0.3,1.6-0.8,1.5-1.6
	c-0.1-0.5-0.7-0.9-1.2-1.1c-2.3-1-4.6-2-6.9-3c-4.9-2.1-8.2-6.5-10.6-11.2c-2.8-5.5-6.2-10.8-10.1-15.6c-1.7-2.1-3.5-4.4-3.2-7.1
	c0.3-2.4,2.4-4.2,4.4-5.7c4-3.1,8.5-6.3,13.5-5.9c5.3,0.4,10,4.9,15.3,4.2c1.7-0.2,3.4-1,5.1-1.2c2.5-0.3,4.9,0.4,7.4,0.7
	c10.9,1.1,20.1-7.6,30.7-10.2c5.9-1.4,12.2-0.9,17.7,1.5c1.9,0.8,3.7,1.9,5.6,2.7c5.2,2.1,10.9,2.3,16.4,2.5
	c2.7,0.1,5.5,0.1,7.7-1.5c2.2-1.6,3.1-4.4,3.2-7.1s-0.4-5.4-0.3-8c0.1-2.2,1.1-4.9,3.2-4.9c0.7,0,1.5,0.3,2.2,0.1
	c0.8-0.3,1.2-1.1,1.5-1.9c1.5-3.2,4.3-5.8,7.6-7.2c0.9-0.4,1.9-0.6,2.8-0.4c1.4,0.3,2.4,1.7,3.8,2.1c4.8,1.3,6.9-6,11.6-7.8
	c1.1-0.4,2.1-1.8,1.6-2.9c-0.7-1.8-10.7-4.6-15.3-12.2c-0.6-1-1.7-1.6-2.2-2.6c-0.9-1.8-0.7-4-1.6-5.8c-0.6-1.2-1.5-2.2-2.1-3.5
	c-1-2.1-0.7-4.6-1.2-6.8c-0.7-2.8-2.8-5.2-3-8c-0.1-2.1,0.9-4.2,0.8-6.4c-0.2-3.1-2.7-6.5-0.9-9.1c0.7-1,2-1.7,2.1-3
	c0.1-1-0.7-1.9-1.6-2.4c-0.9-0.5-1.9-0.7-2.8-1.3c-1.7-1.1-2.5-3.1-3-5c-0.6-2.6-0.9-5.2-0.8-7.9c0.1-2.1,0.1-4.9-1.8-5.7
	c-1.4-0.6-3,0.3-4.2,1.2c-3.9,3-7.1,6.9-10.1,10.8c-1.7,2.2-3.4,4.6-3.7,7.3c-0.3,2.7-5.3,1.5-7.5,3.1c-0.9,0.6-1.4,1.6-2.2,2.2
	c-1.1,0.8-2.5,0.9-3.8,1c-7.8,0.5-16.7,0.6-22-5.1c-0.9-0.9-1.6-2-1.9-3.3c-0.8-3.8,2.7-8.1,0.4-11.2c-0.6-0.9-1.6-1.4-2.3-2.1
	c-3.5-3.3-2.5-9.1-5-13.2c-0.7-1.2-1.7-2.3-1.7-3.7c0-0.8,0.5-1.6,0.9-2.3c5.3-8.6,11.3-16.8,17.8-24.6c0.9-1,1.8-2.1,3-2.6
	c2.2-1,4.9,0,7.2-0.8c2.3-0.8,3.8-3.1,5.8-4.4c1.1-0.7,2.5-1.2,3.4-2.2c1.5-1.6,1.3-4,1.6-6.2c0.8-5,4.7-8.9,8.4-12.5
	c0.9-0.9,1.8-1.8,2.8-2.6c1.5-1.4,3-2.9,4.5-4.2c4.8-4.3,10-8.3,15.9-10.9s12.7-3.6,18.9-2.1c0.4,0.1,0.8,0.2,1.3,0.1
	c1.1-0.3,1.3-1.7,1.5-2.8c1.1-6.8,9.5-10.7,10.1-17.6c0.3-3.6-1.7-7-1.7-10.6"/>
<path fill="none" stroke="#E1E1E1" stroke-miterlimit="10" d="M353.9,367.8c-0.2-0.5-0.3-1.1-0.3-1.7c0.1-1.2,0.7-2.3,0.9-3.5
	c0.5-3.6-3.4-6.3-7-6.9c-3.6-0.6-7.4,0.1-10.8-1.2c-3.7-1.4-6.3-4.8-9.1-7.6c-3.8-3.7-8.4-9.5-13.6-8.1c-5.4,1.5-3,11.7-7.7,14.7
	c-6,3.9-9.3-6.5-16.1-4.4c-1.1,0.3-2.1,1-3.2,0.7c-1.1-0.3-2.1-0.9-3.2-1.2c-2.5-0.7-5.3,0.3-7.7-0.6c-4.6-1.6-5.5-8.5-10.1-10.1
	c-2.5-0.8-5.5,0.3-7.9-0.9c-1-0.5-1.8-1.3-2.8-1.6c-1.6-0.5-3.3,0.2-4.9,0.6c-5.4,1.5-11.6-0.2-15.5-4.2c-0.9-0.9-1.6-1.9-2.7-2.5
	c-0.7-0.5-1.6-0.8-2.4-1c-1.4-0.5-2.9-1-4.3-1.5c-3.5-1.2-7.1-2.4-10.8-2c-2.5,0.2-4.9,1.2-7.4,1.7c-3.2,0.6-6.5,0.4-9.7,0.2
	c-6.4-0.4-13.6-4.5-19.1-1.3c-2.1,1.2-0.4,4.8,0.7,6.9c1.1,2.2,2.6,4.1,3.5,6.3c0.7,1.8,1,3.7,0.8,5.6c-0.3,2.9-1.6,5.6-2.9,8.2
	c-0.6,1.2-1.2,2.3-1.8,3.5c-0.9,1.7-1.8,3.5-3.1,4.9c-2.9,3-7.4,3.8-11.5,4.1c-7.8,0.6-18.1,4.2-23.4-1.6c-3.6-4,2.4-11,0-15.9
	c-1.1-2.2-4.8-0.7-7,0.3s-4.2,2.5-6.4,3.6c-2.5,1.2-5.3,1.8-8.1,2.4c-5.8,1.2-11.7,2.4-17.5,3.7c-2.3,0.5-4.6,0.9-6.9,0.8
	c-2.7-0.2-5.4-1.4-8.1-1.3c-3.2,0.1-6.2,1.8-9.4,2.4c-4.2,0.8-8.7-0.3-11.9-3.1c-0.8-0.6-1.5-1.4-2.3-1.9c-0.9-0.6-1.9-0.9-2.9-1.3
	c-4.6-2.1-3.7-9.3-8-12c-4.1-2.5-5.9,7.6-9.8,10.4c-1.8,1.3-4,2-6.2,2.4c-3.2,0.7-6.4,1.2-9.7,1.5c-1.4,0.1-2.9,0.2-4.2-0.3
	c-1-0.3-2-0.9-2.9-1.5c-4.6-2.9-9.3-5.9-13.9-8.8c-2.4-1.5-4.8-3-6.9-4.9c-3-2.7-5.4-6-8.9-8.1c-2-1.1-4.6-2.3-4.5-4.6"/>
<path fill="none" stroke="#E1E1E1" stroke-miterlimit="10" d="M289.4,368.8c1.3-1.2,2.9-2.1,4.5-2.6c3.1-1,6.5-1,9.6-0.2
	c3,0.7,6.4,1.9,8.9,0.2c2.3-1.6,2.8-5,5.2-6.3c0.4-0.2,0.9-0.4,1.4-0.2c0.5,0.2,0.9,0.7,1.2,1.1c1.2,2.1,2,4.7,3.3,6.7"/>
<path fill="none" stroke="#E1E1E1" stroke-miterlimit="10" d="M201.2,369.5c0.3-5.1,1.3-10.1,2.9-15c0.2-0.6,0.4-1.2,0.9-1.6
	c0.8-0.7,2-0.5,3,0c0.9,0.5,1.7,1.3,2.5,1.9c2.2,1.5,5.2,1.7,7.5,0.4c0.7-0.4,1.4-0.8,2.1-0.5c0.4,0.2,0.6,0.7,1,1
	c1,1,2.6,0.5,4,0.6c2.5,0.2,4.4,2.5,6.7,3.5c1.7,0.8,3.7,0.8,5.5,1.3c3.7,1,6.9,4.1,7.9,7.8"/>
<path fill="none" stroke="#E1E1E1" stroke-miterlimit="10" d="M188,367.8c-0.1-3.8,3.6-6.6,4.3-10.3c0.5-2.1-0.1-4.4,0.1-6.6
	c0.3-4.1,0.2-8.2,1.9-11.9c0.9-1.9,4,0.6,5.9,1.3c2.5,1,5.3,1.1,8,1c4-0.1,8.1-0.4,12.1-1c0.8-0.1,1.6-0.2,2.4,0.1
	c0.8,0.4,1.3,1.2,1.8,2c1.6,3,3.7,6.4,7.1,7c2,0.4,4.1-0.3,6.1,0.1c1.3,0.3,2.4,0.9,3.5,1.5c3.4,1.8,7.1,2.8,10.9,3.2
	c6.1,0.5,13-0.6,17.9,3.1c3.3,2.5,4.8,7,4,11.1"/>
<path fill="none" stroke="#E1E1E1" stroke-miterlimit="10" d="M38.3,267.6c-0.5,0-1-0.3-1.5-0.6c-3.3-2-6.9-3.6-10.4-5.2
	c-2.1-0.9-4.2-1.9-6.4-2.8c-0.8-0.3-1.6-0.7-2.4-0.7c-1,0-1.9,0.5-2.8,1c-2.4,1.4-4.8,3.1-6.2,5.6c-1.4,2.4-1.4,5.9,0.7,7.7
	c2.9,2.6,7.5,0.9,11.4,1.7c2.1,0.4,3.9,1.6,5.9,2.4c4,1.7,8.6,2.1,12.9,0.9c1.3-0.3,2.6-0.8,3.8-0.2c1.9,1,1.5,3.8,1.2,6
	c-0.3,2.4-0.1,4.8,1.1,6.9c1.1,2.1,3.2,3.7,5.6,4c2.3,0.2,4.5-0.9,6.6-1.9c1.6-0.8,3.2-1.6,4.8-2.5c0.8-0.4,1.6-0.8,2.3-1.5
	c1-1,1.4-2.5,1.5-4c0.2-5.1-3.2-9.7-6.9-13.2c-1.4-1.4-3-2.7-4.8-3.4c-1.8-0.7-4,1-5.7,0.1c-1.6-0.8-1.9-3.2-3.7-3.4
	c-1.8-0.2-3.6,0.7-5,1.9C39.6,267,39,267.6,38.3,267.6z"/>
<path fill="none" stroke="#E1E1E1" stroke-miterlimit="10" d="M184.3,265.9c0.1-0.7-0.5-1.4-1.1-1.7c-0.6-0.3-1.4-0.4-2.1-0.5
	c-0.6,0-1.3-0.1-1.8,0.1c-0.5,0.2-0.9,0.5-1.3,0.7c-2.4,1.3-5.5,0.6-8.1,1.6c-1,0.4-2.4,1.5-1.8,2.5c0.6,1,1.9,1.7,3.1,1.9
	c2.1,0.5,4.1-1,6.3-1c1.2,0,2.4,0.4,3.6,0.1c1.3-0.3,2.3-1.5,2.9-2.7C184.1,266.7,184.3,266.3,184.3,265.9z"/>
<path fill="none" stroke="#E1E1E1" stroke-miterlimit="10" d="M199.9,266.4c-0.4-0.3-0.8-0.6-1.3-0.8c-1-0.4-2.1-0.4-3.2-0.6
	c-1.3-0.2-2.7-0.6-4-0.4c-1.3,0.2-2.7,1.2-2.7,2.5c0,0.7,0.4,1.3,0.8,1.9c0.6,0.9,1.2,1.9,2.1,2.6c0.3,0.2,0.6,0.4,0.9,0.7
	c1.8,1.2,3.7,2.4,5.9,2.4s4.5-1.4,4.6-3.6C203.2,269.2,201.5,267.6,199.9,266.4z"/>
<path fill="none" stroke="#E1E1E1" stroke-miterlimit="10" d="M244.5,298c1.6,1.2,3.2,2.5,4.7,3.7c1.9,1.5,4,3.1,6.4,3.8
	c3.3,0.9,7-0.1,9.3-2.5c0.5-0.5,1-1.2,1.1-2c0.1-0.9-0.5-1.8-1-2.5c-3.7-5.5-7.5-11-11.2-16.5c-1.3-1.9-2.5-3.7-4-5.4
	c-2-2.2-2.6-5.8-5.3-7.1c-1.2-0.6-2.7-0.3-3.4-1.5c-0.7-1.2-0.8-2.5-1.2-3.8c-1.4-5.6-6.3-9.6-11.1-12.8c-1.6-1.1-3.3-2.2-5.3-2.5
	c-4.4-0.7-8.2,2.7-12.5,3.8c-6.8,1.7-14-0.7-20.8,1.1c-7.1,1.9-14.8-0.7-21.9-2.2c-0.7-0.2-1.5-0.3-2.1-0.7c-0.6-0.4-1-0.9-1.4-1.5
	c-3-3.6-6.9-6.3-11.1-8.4c-3.7-1.8-7.7-3.1-11.8-3.8c-2.4-0.4-5.1-0.6-7,0.9c-2.3,1.7-2.6,4.9-2.6,7.8c0,2.4,0.2,4.9,1.4,7
	c1.2,2.1,3.7,3.6,6,2.8c1.3-0.4,2.3-1.5,3.6-1.7c2.3-0.4,4.1,1.9,4.5,4.2c0.4,2.3-0.2,4.5-0.2,6.8c0,5.2,3.2,10,7.4,13.1
	c4.1,3.1,9.1,4.9,14,6.7c2.9,1,6-0.2,9,0.5c0.4,0.1,0.5,0.7,0.7,1c1.9,2.6,5.1,2.7,8.3,2.9c5.6,0.3,11.1,0.7,16.7,1
	c2.9,0.2,5.8,0.3,8.5-0.6c1.6-0.5,3.2-1.4,4.8-0.9c2,0.6,2.9,3,4.8,3.8c2.1,0.9,4.6-0.4,6.9,0c2.1,0.4,3.7,2.2,5.6,3.1
	C237.3,296.7,242,296,244.5,298z"/>
<path fill="none" stroke="#E1E1E1" stroke-miterlimit="10" d="M150.2-14.8c0.3,6,5.2,11.5,11.1,12.6c4,0.7,8-0.4,12.1-1
	c3.5-0.5,7.1-0.7,10.3,0.8c3.2,1.5,5.7,4.9,5.1,8.3c-0.3,1.8-1.4,3.3-2.2,4.9c-1.6,3.2,0.5,7.7-1.8,10.5c-5.8,7.3-18.6,2.8-27.5,5.5
	c-1.9,0.6-3.9,1.2-5.4,2.6c-2.8,2.6-3.1,6.9-3.5,10.7c-1.2,12-5.6,23.8-12.4,33.7c-1.5,2.1-3.2,4.3-5.7,5c-2.8,0.8-5.7-0.4-8.6-0.2
	c-3.7,0.3-6.7,3-10.3,3.7c-5.5,1.1-10.7-2.6-15.9-4.6C87,74.6,77.1,75.8,69.7,81c-1.2,0.9-2.4,1.8-3.7,2.5c-1.3,0.6-2.7,1-4,1.7
	c-4.1,2.2-5.5,7.7-4.2,12.1s5,7.8,9,10.2c1.5,0.9,3,1.7,4,3.1c0.4,0.6,0.6,1.3,1,1.9c0.5,0.8,1.1,1.4,1.8,2
	c4.6,4.4,9.1,8.8,13.7,13.2c5.5,5.3,14.1,3.6,21.7,4.6c0.8,0.1,1.6,0.2,2.3,0.6c1.3,0.8,2,2.7,3.5,2.9c0.9,0.1,1.8-0.4,2.8-0.5
	c2.4-0.2,3.9,2.7,6.3,3.5c1.3,0.4,2.8,0.1,4.1,0.5c0.7,0.2,1.3,0.5,1.9,0.9c2.1,1.2,4.1,2.4,6.2,3.6c0.6,0.3,1.2,0.7,1.4,1.3
	c0.2,0.6,0.1,1.3,0.2,2c0.2,1.2,1.2,2,2.1,2.7c1.5,1.2,3.1,2.4,4.6,3.5c2.4,1.8,5,4.3,4.3,7.2c-0.7,2.9-4.5,3.9-7.5,3.5
	c-3-0.4-6-1.5-8.9-0.6c-1.7,0.5-3.2,1.7-4.6,2.8c-2.6,2.1-5.1,4.1-7.7,6.2c-0.6,0.4-1.1,0.9-1.4,1.6c-0.6,1.8,1.5,3.3,3.3,3.7
	c1.8,0.4,4,0.5,5.1,2.1c0.5,0.8,0.6,1.7,0.7,2.6c0.7,4.6,3.9,8.3,5.8,12.6c0.7,1.5,2,1.8,2.2,3.5c0.2,1.4-1.3,2.3-2.6,2.8
	c-6.1,2.4-12.6,3.9-19.1,4.4c-0.8,0.1-1.7,0.1-2.5-0.1c-0.7-0.1-1.3-0.5-2-0.7c-3.2-1.4-6.7-2.3-10.2-2.5c-0.7-0.1-1.4-0.1-2.1-0.4
	c-0.9-0.5-1.4-1.5-2.1-2.4c-1.9-2.4-5.3-3.1-8.3-3s-6.6,2.3-9.2,0.6c-4.1-2.6-0.9-9.2-10.8-8.4c-4,0.3-7.8,3.7-8.5,7.7
	c-3.6,19,2.1,17.5,0.6,19.8c-1.6,2.4-5.7-0.6-8.6-0.8s-6.1,0.3-8.1,2.4c-1.8,1.9-2.3,4.9-1.7,7.5c0.5,2.6,1.9,5,3.2,7.3
	c1.6,2.8,3.2,5.6,4.8,8.5c0.3,0.6,0.7,1.2,0.6,1.9c-0.1,1.8-2.5,2.3-4.4,2.2c-2.6-0.1-5.3-0.2-7.9-0.2c-1.2,0-2.4-0.1-3.5-0.4
	c-0.9-0.3-1.7-0.7-2.5-1.1c-2.3-1.2-4.5-2.4-6.8-3.6c-4-2.1-9.2-5.9-12.8-3.2c-1.4,1.1-4.3,3-5,1.4c-0.4-1-0.2-2.1-0.9-2.9
	s-1.7-1.3-2.6-1.8c-4.1-2.2-8.5-4.5-13.2-4.6c-1.4,0-2.9,0.2-4.3,0.6"/>
<path fill="none" stroke="#E1E1E1" stroke-miterlimit="10" d="M-13.4,186.3c1.4-1,2.8,1.7,4.6,1.7c1.7,0,2.2-2.3,2.3-4
	c0.2-5.4,1.7-10.8,4.4-15.5c1.7-3.1,4.1-6.1,7.5-7c4.1-1.1,8.3,1.2,11.5,4c3.2,2.7,6.1,6.1,9.9,7.8c0.4,0.2,0.9,0.4,1.4,0.3
	c1.6-0.2,1.9-2.3,2.9-3.5c1.2-1.5,3.4-1.6,5.2-2c0.5-0.1,1-0.3,1.3-0.6c1.1-1,0.2-2.8-0.5-4.1c-3.2-6-0.3-13.5,3.7-18.9
	c0.4-0.5,0.8-1.1,0.7-1.8c-0.2-1.1-1.7-1.4-2.8-1.4c-3.8,0-7.5,0-11.3,0c-3.5,0-7.1,0-10.5-1s-6.7-3.1-8.2-6.2
	c-0.9-1.8-1.4-4-3.2-4.8c-0.8-0.4-1.7-0.3-2.6-0.6c-2.6-0.7-3.9-3.5-5.8-5.4c-0.6-0.6-1.3-1.2-2.1-1.2c-0.4,0-0.8,0.1-1.2,0.3
	c-2.2,0.8-4.5,1.6-6.7,2.3"/>
<path fill="none" stroke="#E1E1E1" stroke-miterlimit="10" d="M53.6,114.3c-0.4,0.5-0.9,1-1.6,1.2c-1.1,0.3-2.3-0.4-3.5-0.4
	c-1.4,0.1-2.4,1.2-3.5,2.1c-4.1,3.4-10.5,3.5-14.7,0.3c-2-1.5-3.4-3.6-4.8-5.7c-1.4-2.2-2.7-4.5-2.8-7.1c-0.1-3.2,1.7-6.5,0.6-9.6
	c-0.7-2-2.5-3.4-4.5-4.1c-2-0.7-4.1-0.7-6.2-0.5c-1.5,0.1-3.1,0.3-4.4-0.6c-1.5-1-1.9-3.1-1.8-4.9c0.2-4.4,2.3-8.4,5-11.9
	c2.6-3.5,5.8-6.5,8.6-9.8c3-3.6,6.3-8,11-7.9c2.6,0,5,1.6,6.4,3.7s2.1,4.7,2.2,7.2c0,1.2,0,2.5,0.9,3.3c0.5,0.4,1.1,0.6,1.7,0.9
	c3.3,1.3,5.6,4.6,6.3,8.1c0.7,3.5,0.1,7.1-1.1,10.4c-1,2.5-2.3,5-2.3,7.8c0,3.1,1.7,6.1,4.4,7.5c2.5,1.4,5.7,1.4,8,3.1
	c0.2,0.2,0.5,0.4,0.6,0.7c0.1,0.4-0.2,0.7-0.4,1C56.4,111,55,112.7,53.6,114.3z"/>
<path fill="none" stroke="#E1E1E1" stroke-miterlimit="10" d="M118.4-15.5c0.8,4.8,1.7,9.5,2.5,14.3c0.7,4.1,3.3,7.6,3.8,11.7
	c0.6,4.9-7.9,5.6-11.6,9c-0.8,0.7-1.4,1.5-2.3,1.9c-2.7,1.3-5.6-1-8.2-2.4c-4.3-2.3-9.7-2.1-13.9,0.4c-0.7,0.4-1.4,0.9-2.2,0.8
	c-0.8-0.1-1.5-0.7-2.1-1.2c-2.4-2-5.7-2.9-8.7-2.4c-1.1,0.2-2.1,0.5-3.2,0.6c-1.1,0.1-2.2-0.2-3.3-0.4c-4.2-0.8-8.6-1.7-12.2-4.1
	c-1.3-0.9-2.5-1.9-3.9-2.6c-3-1.5-6.9-1-9.5,1.2c-1.4,1.2-2.7,3-4.6,3c-1.3,0-2.4-0.9-3.5-1.5c-3.2-1.9-7.3-2.1-10.7-0.5
	c-2.1,1-4.4,2.7-6.6,1.9c-2.1-0.8-2.8-3.8-4.9-4.7c-0.9-0.4-1.9-0.4-2.8-0.9c-1.4-0.7-2-2.4-2.6-3.9C6.5,1.3,4-2,0.3-2.8
	C-0.9-3.1-2.3-3-3.5-3.4c-2.4-0.7-4.1-2.9-6.4-4c-1.1-0.5-2.4-0.7-3.5-1.4s-1.8-2.1-1.2-3.2"/>
<path fill="none" stroke="#D6D6D6" stroke-miterlimit="10" d="M369.3,206c-1.3,0-2.9-0.5-3.9-1c-0.6-0.3-1.2-0.8-1.8-1.1
	c-1.5-0.6-3.3,0.1-4.8-0.7c-0.7-0.4-1.3-1.1-2.1-1c-2.4,0.2-0.6,6.1-3,5.7c-2.6-0.4-4.9-2.2-7.3-3.2c-2.7-1.2-5.2-3.7-7.9-4.9
	c-3.5-1.6-7.3-1.8-10.4-4.1c-2.1-1.5-4-3.4-6.4-4.5c-4.9-2.3-11.6-1.9-16.8-0.3c-2.2,0.7-2.4,3.7-2.8,6c-0.7,5.1-3.9,9.7-8.1,12.7
	c-0.9,0.6-2.7,0.7-2.9,1.8c-0.4,3.9,8,2.7,9.7,6.2c0.5,1.1,0.6,2.5,1.3,3.5c0.6,0.8,1.5,1.2,2.1,2c1.6,1.8,1.3,4.7,0.1,6.8
	c-1.1,2.2-2.9,3.9-3.9,6.1c-1.1,2.2-1.2,5.1,0.6,6.8"/>
<path fill="#EAEAEA" stroke="#D6D6D6" stroke-miterlimit="10" d="M300.3,260.7c-2.2-0.7-2.6,3.8-2.1,6c0.4,2.3,2,4.1,1.8,6.4
	c-0.2,2.8-2.7,5.9-1.6,8.4c0.6,1.2,1.7,2,2.6,3c0.9,1,2.3,2.8,1.1,3.3c-0.6,0.2-1.1,0.1-1.6,0.4c-1.3,0.8,0.8,2.1,1.5,3.5
	c0.4,0.8,1,1.8,1.6,2.5c1.2,1.5,1.9,3.2,3.4,3.4c2.3,0.4,4.4,0.1,5.6-0.3c3.9-1.5-4.8-7.2-4-11.3c0.2-0.9,0.6-1.6,1.1-2.4
	c0.8-1.3,1.6-2.6,2.4-3.9c0.7-1.1,1.4-2.3,2.5-3.1c2.5-1.9,6-1.2,9-0.4c2.7,0.7,5.8,3.7,8,2c1.6-1.2,1.3-3.8,1.8-5.7
	c0.5-1.9-0.8-5.5-2.5-4.5c-2.4,1.5-2.1,5.5-6.4,5c-5-0.6-4.3-2.8-5.2-3.6c-3.2-2.8-6.7-7.4-7.9-11.1c-0.6-2-0.7-4.6,1-6
	c1.4-1.1,3.7-1.2,4-2.9c0.3-1.4-1.1-2.4-2.3-3.1c-3.2-1.7-6.6-3.2-10.1-4.3c-0.8-0.3-1.7-0.5-2.3,0c-0.7,0.5-0.7,1.4-0.7,2.3
	c0,3.6,0,8.4,0.5,11c0.3,1.4,2.7,0.3,3.6,1.4c1.4,1.7,0.3,5.3-1.8,6C302,263.2,301.5,261.1,300.3,260.7z"/>
<path fill="none" stroke="#D6D6D6" stroke-miterlimit="10" d="M309.6,298c0.4,3.5,1.3,7.4-0.1,11c-0.3,0.9-0.7,1.7-0.8,2.6
	c-0.1,1,0.2,2,0.4,2.9c2.3,8.8,3.8,17.8,5.3,26.8c0.6,3.7,1.2,7.5,1.9,11.2c0.7,4.3,1.4,8.6,1,13c-0.1,0.9-0.2,1.9-0.4,2.8"/>
<path fill="none" stroke="#D6D6D6" stroke-miterlimit="10" d="M151.9,303.7c1.6,2.3,3.1,4,5.3,5.5c2.9,2,5.4,4.4,8.3,6.5
	c1.3,1,2.7,2,4,2.9c2.1,1.6,4.2,3.1,6.3,4.7c2.1,1.6,4.2,3.1,6.3,4.7c4.2,3.1,8.4,6.3,11.4,10.6c1.9,2.7,3.2,5.8,4.7,8.7
	c2.2,4.2,5,8.1,8.2,11.6c2.5,2.7,5.4,5.5,5.6,9.1"/>
<path fill="#7BBCEB" stroke="#4E9BD7" stroke-miterlimit="10" d="M181.5,171.1c0.5,0.7,1.3,0.9,1.9,1.4c1.1,0.7,1.8,2,2,3.3
	c0,0.4,0.1,0.9,0.5,1c0.2,0,0.4-0.1,0.6-0.2c0.6-0.4,1.3-1.5,1.9-1.1c0.6,0.5,1.3,1.1,1.3,1.9c0,0.4-0.4,0.7-0.7,1
	c-0.8,0.9-0.9,2.2-1.5,3.2c-1,2-3.4,2.9-5.6,3.5c-1.6,0.4-3.5,0.8-5-0.1c-0.9-0.6-1.5-1.6-2-2.6c-1-2-2-4.2-3.7-5.7
	c-0.6-0.5-1.2-1-1.5-1.7c-0.5-1.3,0.4-2.7,1.3-3.8c0.8-1,1.7-2,2.5-3c0.2-0.3,0.5-0.6,0.8-0.7c0.4-0.2,1-0.2,1.5-0.2
	c1.8,0,4,0.2,4.8,1.9C181,169.8,181.1,170.6,181.5,171.1z"/>
<path fill="#EAEAEA" stroke="#D6D6D6" stroke-miterlimit="10" d="M54.6,103.4c0.4,0.5,0.8,1,1.4,1c0.8-0.1,1-1.1,1-1.8
	c0-2-0.8-4-2-5.5c-0.1-0.2-0.3-0.3-0.5-0.4c-0.5-0.2-1,0-1.4,0.4c-0.3,0.4-0.5,0.9-0.6,1.4c-0.2,0.7-0.4,1.5-0.1,2.1
	c0.1,0.1,0.2,0.2,0.2,0.4c0.4,0.6,0.9,1.2,1.3,1.7C54.2,102.8,54.4,103.1,54.6,103.4z"/>
<path fill="none" stroke="#D6D6D6" stroke-miterlimit="10" d="M104.7-14.3c3.4,1.9,4.2,6.3,5.7,9.9c0.9,2.4,2.2,4.6,3.6,6.7
	c0.8,1.3,1.5,2.5,2.5,3.6c0.9,0.9,2.1,1.6,3.2,2.3c6.6,4.5,14.3,6,21.9,5.6c2.5-0.1,5,0,7.4,0.2c2.2,0.2,4.7,0.3,7,0.5
	c5.3,0.5,10.7,0.5,15.7-1.4"/>
<path fill="none" stroke="#D6D6D6" stroke-miterlimit="10" d="M57.3,147.9c1.2,0.9,1.6,2.4,2,3.8c0.9,3.2,2.2,6.4,3.8,9.3
	c1.2,2.2,2.6,4.4,4.8,5.5c3.4,1.8,7.7,0.7,11,2.5c0.9,0.5,1.8,1.3,2.8,1.6c0.9,0.3,1.8,0.3,2.6,0.7c2.3,1.1,2.3,4.3,3.7,6.4
	c1.3,1.9,3.7,2.7,6,2.9c2.3,0.2,4.6-0.1,6.9,0.2c3.4,0.4,6.5,2.1,9.7,3.6c2,0.9,4.1,1.7,6.1,2.5"/>
<path fill="none" stroke="#D6D6D6" stroke-miterlimit="10" d="M-14.6,201.8c3.5,2.3,7.8,3,11.9,4.1s8.3,2.9,10.5,6.5
	c1.1,1.8,1.7,4.1,3.4,5.4c1.6,1.2,3.7,1.3,5.6,1.7c3.7,0.8,7,3.3,8.8,6.5c0.4,0.6,0.7,1.3,1.2,1.8c1.1,1,2.9,1,4.1,2
	c0.6,0.5,1,1.3,1.5,2c1.1,1.5,2.7,2.6,4.3,3.7c2.4,1.6,4.7,3.2,7.1,4.8c2.1,1.4,4.2,2.9,6.4,4.3c1.2,0.8,2.8,2.8,4,3.6
	c4.5,2.8,8.7,1.5,13,4.7c0.9,0.7,2.7,1,4.2,1.7"/>
<path fill="none" stroke="#4E9BD7" stroke-miterlimit="10" d="M173.6,168.2c-3.7-1.4-7.8-3-11.5-4.4c-2.7-1-5.4-2.1-8.1-2.9
	c-6.7-2-13.6-3.2-20.6-3.6c-2.3-0.2-4.7-0.6-6.5-2c-0.5-0.4-0.9-1-1.4-1.4c-1.7-1.6-3.9-1.4-6.6-2.1c-0.1,0-6-2.7-9.2-3.2
	c-3.4-0.5-7-0.6-10.1-2.3c-1.1-0.6-2.2-1.5-3.4-2c-2.5-1-5.4-0.3-8,0.2c-1.4,0.3-2.8,0.6-4.1,0.5c-1.1,0-2.2-0.3-3.4-0.5
	c-3.5-0.6-7-0.9-10.6-0.9c-1.1,0-2.3,0.1-3.4,0.4c-1.9,0.6-3.5,2-5.4,2.8c-3.8,1.7-8.2,0.7-12.3,0.9c-3.8,0.2-7.4,1.4-11.2,1.8
	c-2,0.2-4.1,0.2-6,0.7c-2.6,0.7-3.6,4.1-6.2,4.8c-3.3,0.9-6.9-4.5-14.9-7.7c-0.5-0.2-0.9-0.6-1.5-0.7c-1.4-0.4-2.4,0.7-3.5,1.6
	s-2.5,1.8-3.8,2.4c-1.9,0.9-4.1,0.4-6.2,0c-4.2-0.8-8.5-1.2-12.9-1.2"/>
<g>
	<g>
		<path fill="none" stroke="#585858" stroke-miterlimit="10" d="M369.3,212.1c-0.7-0.1-1.3-0.2-1.9-0.5"/>
		<path fill="none" stroke="#585858" stroke-miterlimit="10" stroke-dasharray="4.0034,1.0009" d="M366.4,211.2c0,0-0.1,0-0.1-0.1
			c-0.9-0.5-1.7-1.1-2.7-1.3c-2.1-0.3-3,2.1-3.9,4c-0.9,1.9-2.8,3.8-4.9,3.9c-2.1,0.2-3.7-1.8-5.6-2.6c-4.7-2-9.9,3-15,2
			c-1.6-0.3-3-1.2-4.6-1.2c-2.6,0-5.1,5.7-7.3,7.1c-5,3.2-8.4,1.8-13.4,4.6c-2.9,1.6-7-1.7-8.8-4.5c-0.5-0.8-0.9-1.6-1.8-2
			c-1.2-0.4-2.5,0.5-3.7,0.2c-1.1-0.3-1.7-1.5-2.4-2.5c-1.8-2.8-3.6-3.2-5.2-6.3c-0.6-1.2-0.4-2.5-0.1-3.8c0.2-0.9,0.5-1.7,0.5-2.6
			c0-1.9-1.2-3.6-2.7-4.8c-1.5-1.2-3.3-1.9-4.9-2.8c-4.5-2.4-6.2-4.3-8.8-8.7c-0.7-1.1-3.5-4.1-4.4-5c-0.9-1-0.3-1.2-0.6-2.5
			c-0.2-0.8-1-4-0.8-4.8c0.7-2.7,0.7-3.7,1.4-6.5c0.6-2.4-0.4-5.2-0.7-7.7c-0.2-1.7-0.4-3.4-1.1-5c-0.5-1.1-1.3-2.1-1.8-3.2
			c-0.6-1.2-0.8-2.6-0.9-3.9c-0.4-3-0.9-6.1-1.3-9.1c-0.1-1-0.3-2-0.7-2.9c-1.3-3.3-4.9-5-8.3-5.7c-3.4-0.7-7-0.6-10.4-1.6
			c-2.1-0.7-4.2-1.8-6.4-1.3c-1.3,0.3-2.4,1-3.5,1.8c-0.6,0.4-1.1,0.8-1.7,1.2c-2.2,1.6-3.5,4.1-5.4,6c-0.8,0.8-2.1-1-2.6-2
			c-0.5-1-1.2-2.3-2.4-2.2c-1,0.1-1.6,1-2,1.9c-0.7,1.3-1.4,2.7-2.1,4c-0.5,0.9-1.2,1.9-2.2,1.6c-0.5-0.1-0.8-0.6-1.1-0.9
			c-1.5-1.8-3.5-3-5.5-4.3c-1.2-0.7-2.4-1.4-3.7-1.6c-0.9-0.1-1.9,0-2.8,0.1c-6.5,0.9-13,2.3-19.3,4.2c-1.5,0.5-3.1,1.1-3.6,2.6
			c-0.3,0.9-0.1,2,0,2.9c0.3,4.2-2.2,8.2-2,12.4c0.1,1.3,0.4,2.6,0.7,3.9c0.1,0.6,0.3,1.1,0.4,1.7"/>
		<path fill="none" stroke="#585858" stroke-miterlimit="10" d="M176.7,164.4c0.2,0.6,0.3,1.3,0.5,1.9"/>
	</g>
</g>
<path fill="none" stroke="#585858" stroke-miterlimit="10" stroke-dasharray="4,1" d="M308.1,227.9c0.5,0.4,0.6,1.1,0.4,1.7
	c-0.2,0.6-0.5,1.1-0.9,1.6c-0.8,1.2-1.7,2.4-2,3.8s-0.1,3,1,4c0.6,0.6,1.4,0.9,2.2,1.2c1.8,0.8,3.5,1.9,5.1,3
	c1.7,1.1,3.5,2.5,3.7,4.5"/>
<path fill="none" stroke="#585858" stroke-miterlimit="10" stroke-dasharray="4,1" d="M-11.2,144.9c4.8,1.8,10,3.7,14.9,2.1
	c2.5-0.8,4.7-2.5,7-3.9s4.7-2.1,7.3-1.6c4,0.7,7.4,4.4,11.3,3.6c1.7-0.3,3.2-1.6,5-1.5c1.4,0,2.8,0.9,4.2,0.7
	c1.2-0.2,2.2-1.2,3.4-1.5c1.4-0.3,2.8,0.2,4.3,0.2c2.5-0.1,4.6-2.1,7.1-2.2c2.1-0.1,4.2,1.1,6.3,1c1.7-0.1,3.3-1.1,5-1.4
	c1.9-0.3,3.9,0.2,5.8,0.7c4.5,1.1,13.4,3.4,13.8,1.8c0.3-1.4-1-2.9,0.3-3.4c0.5-0.2,1.1-0.2,1.7-0.2c2.3,0.1,4.6,0.2,6.9,0.3
	c2.9,0.1,5.7,0.5,8.6,0.9c1.3,0.1,2.6,0.3,3.7,0.7c1.3,0.5,2.4,1.3,3.5,1.9c2.4,1.4,5.1,2.4,7.8,2.8c2.3,0.4,4.7,0.4,6.8,1.2
	c1.3,0.5,2.6,1.2,4,1.1c0.7,0,1.4-0.3,2.2-0.3c1.7,0,3,1.5,4.2,2.7c2.3,2.3,5.3,3.9,8.6,4.5c2.1,0.4,4.3,0.5,6.4,0.5
	c3.8,0,7.7,0.1,11.5-0.3c5-0.5,10.1-1.7,14.9-0.5"/>
<text transform="matrix(1 0 0 1 320.2349 251.705)"><tspan x="0" y="0" fill="#585858" font-family="'Verdana-Italic'" font-size="8">Crescent</tspan><tspan x="0" y="9.6" fill="#585858" font-family="'Verdana-Italic'" font-size="8">Lake</tspan></text>
<path fill="none" d="M313.9,338.8c5.1-1.4,9.8,4.4,13.6,8.1c2.9,2.8,5.4,6.2,9.1,7.6c3.4,1.3,7.2,0.6,10.8,1.2"/>
<text transform="matrix(0.7475 0.6643 -0.6643 0.7475 319.2505 342.5229)"><tspan x="0" y="0" fill="#7D7D7D" font-family="'Verdana-Italic'" font-size="7">8</tspan><tspan x="4.3" y="0" fill="#7D7D7D" font-family="'Verdana-Italic'" font-size="7" rotate="3.9">0</tspan><tspan x="8.7" y="0.3" fill="#7D7D7D" font-family="'Verdana-Italic'" font-size="7" rotate="4.7">0</tspan><tspan x="13.3" y="0.7" fill="#7D7D7D" font-family="'Verdana-Italic'" font-size="7" rotate="0.6">0</tspan></text>
<path fill="none" d="M328,74.1c0.4-4.5,1.9-8.7,3.6-12.9c2.3-5.4,5.1-10.7,9.3-14.8"/>
<text transform="matrix(0.1957 -0.9807 0.9807 0.1957 330.48 73.5775)"><tspan x="0" y="0" fill="#7D7D7D" font-family="'Verdana-Italic'" font-size="7">8</tspan><tspan x="4.2" y="0" fill="#7D7D7D" font-family="'Verdana-Italic'" font-size="7" rotate="6.6">8</tspan><tspan x="8.4" y="0.5" fill="#7D7D7D" font-family="'Verdana-Italic'" font-size="7" rotate="10.8">0</tspan><tspan x="12.6" y="1.3" fill="#7D7D7D" font-family="'Verdana-Italic'" font-size="7" rotate="13.8">0</tspan></text>
<text transform="matrix(1 0 0 1 137.0793 174.225)"><tspan x="0" y="0" fill="#7BBCEB" font-family="'Verdana-Italic'" font-size="8">Grouse</tspan><tspan x="9.8" y="9.6" fill="#7BBCEB" font-family="'Verdana-Italic'" font-size="8">Lake</tspan></text>
<text transform="matrix(1 0 0 1 190.8443 271.6249)" fill="#585858" font-family="'Verdana-Italic'" font-size="8">× 8845</text>
<text transform="matrix(1 0 0 1 14.7443 79.4249)" fill="#585858" font-family="'Verdana-Italic'" font-size="8">× 8260</text>
<path fill="none" d="M123.2,227.1c10.9,1.1,20.1-7.6,30.7-10.2c5.9-1.4,12.2-0.9,17.7,1.5"/>
<text transform="matrix(0.9679 -0.2512 0.2512 0.9679 151.9644 220.016)"><tspan x="0" y="0" fill="#7D7D7D" font-family="'Verdana-Italic'" font-size="7">8</tspan><tspan x="4" y="0" fill="#7D7D7D" font-family="'Verdana-Italic'" font-size="7" rotate="9.2">4</tspan><tspan x="8" y="0.6" fill="#7D7D7D" font-family="'Verdana-Italic'" font-size="7" rotate="18.3">0</tspan><tspan x="11.9" y="1.8" fill="#7D7D7D" font-family="'Verdana-Italic'" font-size="7" rotate="27.3">0</tspan></text>
<path fill="none" d="M39.8,327.5c1.1-2.5-0.7-6.4,1.3-8.2c5.6-5,15-4.9,21.9-1.9c2.7,1.1,1.4,5.7,1.1,8.6"/>
<text transform="matrix(0.9332 -0.3593 0.3593 0.9332 44.4151 319.8188)"><tspan x="0" y="0" fill="#7D7D7D" font-family="'Verdana-Italic'" font-size="7">8</tspan><tspan x="3.9" y="0" fill="#7D7D7D" font-family="'Verdana-Italic'" font-size="7" rotate="13.4">2</tspan><tspan x="7.8" y="0.9" fill="#7D7D7D" font-family="'Verdana-Italic'" font-size="7" rotate="24.2">0</tspan><tspan x="11.5" y="2.5" fill="#7D7D7D" font-family="'Verdana-Italic'" font-size="7" rotate="33.8">0</tspan></text>
<path fill="none" d="M43.6,11.4c2.6-2.2,6.4-2.7,9.5-1.2c1.4,0.7,2.6,1.7,3.9,2.6c3.6,2.4,8,3.2,12.2,4.1c1.1,0.2,2.2,0.4,3.3,0.4
	c1.1-0.1,2.2-0.4,3.2-0.6c3.1-0.5,6.3,0.4,8.7,2.4"/>
<text transform="matrix(0.8353 0.5497 -0.5497 0.8353 53.6617 13.5443)"><tspan x="0" y="0" fill="#7D7D7D" font-family="'Verdana-Italic'" font-size="7">8</tspan><tspan x="5" y="-0.1" fill="#7D7D7D" font-family="'Verdana-Italic'" font-size="7" rotate="-12.6">0</tspan><tspan x="9.7" y="-1.2" fill="#7D7D7D" font-family="'Verdana-Italic'" font-size="7" rotate="-19.9">0</tspan><tspan x="13.9" y="-2.8" fill="#7D7D7D" font-family="'Verdana-Italic'" font-size="7" rotate="-22.3">0</tspan></text>
<g>
	<g>
		<polyline fill="none" stroke="#7D7D7D" stroke-miterlimit="10" points="85.2,341.6 85.2,348.7 275.4,348.7 275.4,341.7 		"/>
		<line fill="none" stroke="#7D7D7D" stroke-miterlimit="10" x1="180.5" y1="341.4" x2="180.5" y2="348.7"/>
		<line fill="none" stroke="#7D7D7D" stroke-miterlimit="10" x1="161.2" y1="349.2" x2="161.2" y2="343.7"/>
		<line fill="none" stroke="#7D7D7D" stroke-miterlimit="10" x1="142.4" y1="349.2" x2="142.4" y2="343.7"/>
		<line fill="none" stroke="#7D7D7D" stroke-miterlimit="10" x1="123.3" y1="349.2" x2="123.3" y2="343.5"/>
		<line fill="none" stroke="#7D7D7D" stroke-miterlimit="10" x1="104.6" y1="349.2" x2="104.6" y2="343.7"/>
	</g>
	<text transform="matrix(1 0 0 1 83.7836 339.1469)" fill="#7D7D7D" font-family="'Verdana'" font-size="8">0</text>
	<text transform="matrix(1 0 0 1 174.2947 339.1469)" fill="#7D7D7D" font-family="'Verdana'" font-size="8">0.5</text>
	<text transform="matrix(1 0 0 1 258.3416 339.1469)" fill="#7D7D7D" font-family="'Verdana'" font-size="8">1 mi</text>
</g>
</svg>
