<?xml version="1.0" encoding="utf-8"?>
<!-- Generator: Adobe Illustrator 17.1.0, SVG Export Plug-In . SVG Version: 6.00 Build 0)  -->
<!DOCTYPE svg PUBLIC "-//W3C//DTD SVG 1.1//EN" "http://www.w3.org/Graphics/SVG/1.1/DTD/svg11.dtd">
<svg version="1.1" id="Layer_1" xmlns="http://www.w3.org/2000/svg" xmlns:xlink="http://www.w3.org/1999/xlink" x="0px" y="0px"
	 viewBox="0 0 360 360" enable-background="new 0 0 360 360" xml:space="preserve">
<path fill="none" stroke="#E1E1E1" stroke-miterlimit="10" d="M338.5,372.7c-1.2-4.3-2.5-8.8-1.3-13.1c1.6-5.7,7.2-9.6,13.1-10.5
	c5.8-0.9,11.8,0.8,17.2,3.1c2.8,1.2,5.6,2.7,8.7,3.1"/>
<path fill="none" stroke="#E1E1E1" stroke-miterlimit="10" d="M191.6,373.6c2.7-4.9,8.5-7.2,13.9-8.9c6.5-2,13-3.8,19.6-5.3
	c1.6-0.4,3.3-0.8,4-2.3c0.7-1.5-0.1-3.3,0.2-4.9c0.6-3.2,4.8-4.1,8.1-4.2c9.1-0.3,18.7-0.6,26.6,3.9c1.5,0.9,3,1.9,4.8,2.1
	c1.1,0.1,2.1-0.1,3.2-0.2c10.5-1.6,21.3-0.7,31.4,2.7c2.8,1,6.7,1.7,8.2-0.9c0.4-0.7,0.5-1.6,0.8-2.4c1.2-3.2,4.7-2.4,7.3-4.6
	c2.8-2.3-3.5-6.8,9.8-17.6c5.2-4.3,12.1-6.1,18.8-6.2c2.3,0,4.6,0.1,6.8,0.9c1.4,0.5,2.7,1.3,4,1.9c5.8,3,12.1,4.8,18.6,5.2"/>
<path fill="none" stroke="#E1E1E1" stroke-miterlimit="10" d="M179.5,373.2c3.6-8.3,8.9-15.8,15.5-22c2.6-2.5,8-1.3,9.5-4.6
	c1.4-3.1-2.3-6.5-0.6-9.4c1.7-2.9,4.7-4.8,7.8-6.1c15.4-6.8,33.2-3.1,49.6,0.8c6.7,1.6,13.4,5.7,20.2,4.8c1.1-0.1,1-1.9,0.4-2.8
	c-0.6-0.9-1.6-1.3-2.6-1.8c-5-2.4-9.6-5.6-13.5-9.6c-1.7-1.7-3.3-3.7-4.1-6c-0.7-2.3-0.4-5.1,1.3-6.8c1.1-1,2.8-2.3,2-3.6
	c-0.3-0.5-1-0.7-1.6-0.8c-5.4-1.2-10.8-2.5-16.2-3.7c-4-0.9-8-1.9-11.5-3.8c-3.6-2-6.7-5.1-7.6-9.1c-1.1-4.4,0.2-10.2-3.5-12.7
	c-0.8-0.6-1.8-0.9-2.8-1.1c-10.6-3.1-21.1-6.2-31.7-9.3c-0.6-0.2-1.4-0.4-2-0.1c-0.6,0.3-0.9,1-1.3,1.6c-0.9,1.3-2.3,2.2-3.7,3
	c-15.9,8.8-33.5,14.7-48.3,25.3c-1.1,0.8-2.2,1.6-2.9,2.8c-1.2,2.1-0.7,4.7-0.4,7.1c1.9,13.8-1.5,27.8-6,40.9
	c-0.8,2.2-1.6,4.4-2.9,6.4c-2,3.1-5.1,5.4-8.2,7.4c-7.7,5-16.9,9.1-20.7,17.5"/>
<path fill="none" stroke="#E1E1E1" stroke-miterlimit="10" d="M119.5,377.3c0.1-1,0.9-1.9,1.7-2.6c5.2-5,10.4-9.9,15.6-14.9
	c2.2-2.1,4.4-4.2,6.1-6.7c1.1-1.7,2.1-3.5,3.3-5.1c2.7-3.5,6.9-5.7,10.7-7.9c5.2-3,10.5-6.7,12.1-12.5c0.2-0.9,0.4-1.9,1.2-2.4
	c0.4-0.3,1-0.4,1.5-0.4c4.5-0.5,9-1,13.6-1.4c1.8-0.2,5.1,0.4,4.4,2c-1.4,3.2-5.1,4.9-7.2,7.8c-1.1,1.5-2.1,3.1-3.1,4.6
	c-1,1.6-2,3.1-3.1,4.7c-2.9,4.5-5.8,9-7.4,14.1c-0.7,2.3-1.1,4.7-2.3,6.7c-1.1,1.9-2.8,3.3-4.3,4.9c-2.5,2.8-4.5,6.1-5.6,9.6"/>
<path fill="none" stroke="#E1E1E1" stroke-miterlimit="10" d="M372.7,167.5c-12.4,5.1-24.7,10.2-37.1,15.3c-2.3,0.9-4.5,1.9-6.9,2.4
	c-2.4,0.6-4.9,0.8-7.4,1.2c-7.9,1.2-18,0.7-22.9,7.1c-1.9,2.5,1.1,6.4,3.6,8.3s5.9,0.6,9,1.1c1.1,0.2-0.3,1.9-1.2,2.4
	c-5.2,2.2-12.2,1.7-15.3,6.4c-0.6,0.9-0.9,1.9-1.6,2.7c-0.9,1.1-2.3,1.7-3.6,2.3c-4.3,2-8.7,4-13,6c-2,0.9-4.3,2.3-4.1,4.5
	c0.2,2.1,2.6,3.2,4.6,3.5c2.1,0.3,6.2-0.1,5.8,1.9c-2.1,10.4-18.7,10-26.8,16.8c-1.8,1.5-3.7,3.2-4.6,5.4c-1,2.2-0.8,5,1,6.6
	c0.9,0.9,2.3,1.3,3.1,2.3c1.7,2,0.5,5-0.6,7.4c-1.1,2.4-1.8,5.7,0.3,7.3c1.2,0.9,2.9,0.8,4.4,0.6c16.3-2,32.3-6.4,47.5-12.8
	c4.8-2.1,11.6-9.4,14.7-5.2c1.8,2.4-1.4,6.1-0.3,8.9c0.3,0.8,0.8,1.6,0.9,2.5c0.2,1.7-1.1,3.2-1.9,4.8c-2.8,5-1.6,11.5,1.5,16.4
	c2.5,3.8,6.2,8.4,3.9,12.2c-1.3,2.1-3.9,2.9-6.2,3.8c-6.2,2.7-11.2,8.1-13.3,14.6c-0.6,1.9-0.7,4.4,1,5.4c1.1,0.6,2.6,0.3,3.7-0.3
	c4.3-2.3,6.5-7.2,10.6-9.9c2.7-1.8,6-2.4,9.2-2.8c3.6-0.5,7.2-0.8,10.9-1.2c10.9-1.1,21.8-2.1,32.7-3.2"/>
<path fill="none" stroke="#E1E1E1" stroke-miterlimit="10" d="M74.9,375.1c2.6-4.3,6.8-7.2,10.8-10.2c4.3-3.2,8.4-6.6,12.4-10.1
	c2.7-2.4,5.3-4.8,7.3-7.8c5.7-8.8,4.2-21-1.8-29.7c-5.9-8.7-15.5-14.3-25.4-17.9c-1.6-0.6-3.4-1.2-4.6-2.4c-1.3-1.2-2-3.2-1.3-4.7
	c0.4-0.9,1.3-1.5,2-2.1c5.1-4.8,4.1-12.9,5.1-19.8c0.2-1.2,0.4-2.4,1.2-3.3c2-2.3,5.8-0.9,8.7,0.2c6.3,2.4,14,2.3,19.1-2.1
	c1.4-1.2,2.6-2.8,2.9-4.6c0.6-3.3-1.8-6.3-3.9-9c-3.3-4.1-6.2-8.6-8.7-13.2c-0.7-1.4-1.5-2.9-1.4-4.5c0.1-3,3-5.1,4.5-7.6
	c2.9-4.8,1.4-10.9,1.4-16.4c0-4.4,0.9-8.7,1.5-13c0.9-6.3-1.5-13,0.2-19.1c1.2-4.3-1.7-8.7-1.1-13.1c0.4-2.8,2.5-5,3.7-7.6
	c3.2-6.9-0.1-16.5,5.5-21.7c1.8-1.6,4-2.6,6.1-3.8c11.5-6.1,6.5-18.8,9.3-19.6c3.4-1,8.6,15.2,15.1,13c1.9-0.6,0.6-3.9-0.7-5.4
	c-1.3-1.5-3.1-2.5-4.4-3.9c-4.2-4.6-2.6-12.3-6.3-17.3c-1.4-1.9-3.5-3.2-5.5-4.5c-10-6.3-20.2-12.7-31.6-16
	c-6.9-2-14.5-2.9-20.3-7.3c-3.4-2.6-6.1-6.3-10.1-7.7c-4.1-1.5-9.3-0.5-12.3-3.6c-1.3-1.4-1.9-3.3-3.3-4.4c-1.5-1.2-3.5-1.2-5.3-1.9
	c-3.9-1.3-6.4-5-9.3-7.8c-4.4-4.3-14-2.8-15.3-8.7c-1-4.4,0-17-0.5-26c-0.2-2.9-0.4-5.8,0.4-8.6c1.2-4.2,4.8-8,4-12.3"/>
<path fill="none" stroke="#E1E1E1" stroke-miterlimit="10" d="M145.4,151.7c0.1-0.5,0.2-1,0.2-1.5c0.3-1.5,0.4-3.3-0.8-4.3
	c-1.1-0.9-2.9-0.5-3.9,0.6c-1,1.1-2,2.6-1.6,4c0.4,1.2,1.9,1.8,2.9,2.7c0.4,0.4,0.9,0.8,1.4,0.8C144.8,154,145.2,152.7,145.4,151.7z
	"/>
<path fill="none" stroke="#E1E1E1" stroke-miterlimit="10" d="M-10.9,82.6c4.2-2.2,8.7-3.9,13.3-4.9c4.6-1,9.7-1.2,13.7,1.3
	c1.9,1.2,3.5,2.9,5.4,4.1c2.4,1.5,5.2,2.1,7.7,3.5c3.7,2,6.6,5.7,10.6,6.8c2.8,0.8,5.8,0.3,8.7,0.9c3.4,0.8,6.4,3.4,7.7,6.7
	c1.4,3.2,1.2,7.1-0.2,10.3c-0.5,1.2-1.3,2.4-1.6,3.7c-0.3,1.1-0.2,2.3-0.1,3.5c0.4,6.6,0.7,13.2,1.1,19.8c0.2,3,0.3,6.1-1,8.8
	c-0.5,1-1.1,1.9-1.2,3c-0.1,1.1,0.4,2.1,0.8,3.1c1.8,4.3,2.7,8.9,2.7,13.6c0,4.9-1.2,10-4.2,13.8c-3,3.9-8.2,6.2-13,5.1
	c-4.2-1-7.6-4.4-11.9-4.5c-1,0-2.1,0.1-3.1,0.2c-2.4,0-4.7-0.8-7.1-1.4c-3.4-0.9-6.9-1.2-10.4-1.6c-1.4-0.2-2.9-0.3-4.2,0.1
	c-1,0.3-1.8,0.9-2.7,1.5c-4.7,3.2-9.8,5.6-15.2,7.1"/>
<path fill="none" stroke="#E1E1E1" stroke-miterlimit="10" d="M-11,291.5c2.3-1.6,4.8-3.1,7.3-4.3c1.8-0.8,3.6-1.6,5.2-2.7
	c3-2.1,4.8-5.5,6-8.9c1.2-3.4,1.9-7,3-10.5c0.3-1,1.3-2.4,2.1-1.7c3.4,2.8,7.4,5.4,11.6,4.3c0.9-0.2,1.7-0.6,2.6-0.5
	c0.7,0,1.4,0.4,2,0.7c3.1,1.4,6.1,2.8,9.2,4.2c1.8,0.8,3.6,1.7,4.9,3.1c2.9,3.2,2.4,8.2,3,12.5c0.8,5.3,3.5,10.1,7.1,14
	c2.7,2.9,6,5.6,6.9,9.4c0.5,2.1,0.2,4.3-0.1,6.4c-0.6,4.6-1.3,9.1-1.9,13.7c-0.2,1.2-0.4,2.5-1.1,3.5c-0.7,1-1.9,1.7-3,2.2
	c-2.4,1.2-4.7,2.4-7.1,3.6c-2.6,1.3-5.5,2.7-8.4,1.9c-2.7-0.7-4.5-3.2-6.4-5.3c-4.2-4.5-9.9-7.5-16-8.9c-1.7-0.4-3.3-0.7-5-0.8
	c-9.3-0.7-18.9,3.2-25.2,10.1"/>
<path fill="none" stroke="#E1E1E1" stroke-miterlimit="10" d="M373.7,144.2c-3.4,0.6-6.8,1.3-10.2,1.9c-1.2,0.2-2.5,0.5-3.2,1.5
	c-0.9,1.2-0.4,2.9-0.8,4.4c-0.3,1.3-1.3,2.3-2.2,3.2c-10.1,9.1-25,9.4-38.2,13c-3.2,0.9-6.3,1.9-9.6,2.4c-3.8,0.6-7.7,0.3-11.6,0.3
	c-5.1-0.1-10.3,0.2-15.4,0.5c-4.9,0.3-9.8,0.6-14.7,0.8c-5.3,0.3-10.7,0.6-15.8,2.2c-1.1,0.4-2.3,0.8-3.5,0.7
	c-1.1-0.1-2.1-0.5-3.1-1c-5.1-2.1-10.9-0.5-16.1-2.1c-3.5-1.1-5.4-4.8-8.1-7.2c-3.6-3.2-7.4-6.5-11.9-8.3c-2.3-0.9-4.8-1.3-7.1-2.2
	c-5.8-2.2-10.2-7-15.1-10.8c-1.8-1.4-3.7-2.6-5.4-4.2c-2.7-2.4-4.9-5.3-7.6-7.7c-2.7-2.4-7-1.3-9.8-3.5c-3.9-3.1-1.7-11.2-5.4-14.6
	c-1.4-1.3-3.3-2.2-4.6-3.7c-2.7-3.1-2.3-7.7-1.3-11.7c1-4,2.3-8.1,1-12c-1.2-3.6-4.6-6.1-8.1-7.6s-7.3-2.2-10.9-3.5
	c-11.3-4.3-19.2-15-30.2-20.1c-2.8-1.3-5.8-2.2-8.6-3.6c-9-4.4-15.4-12.9-24.4-17.2c-2-0.9-4.1-1.6-5.8-3c-1.1-0.9-2-2.1-2.9-3.3
	c-2.7-3.5-5.7-6.8-8.8-9.9c-1.3-1.3-2.7-2.6-3.9-4c-1.1-1.4-2-3-2.9-4.6c-2-3.5-3.9-7.1-5.9-10.6c-1.4-2.6-2.6-6.4-0.2-8"/>
<path fill="none" stroke="#E1E1E1" stroke-miterlimit="10" d="M68.6-10.2c-1,2.9-1.1,6-0.9,9c0.2,2.4,0.6,4.7,1.5,7
	c2.3,6.1,7.5,10.6,12.6,14.6c6.9,5.4,14,10.5,21.4,15.2c5.6,3.6,11.5,7,17.9,9c3.5,1.1,7.3,1.8,10.4,3.8c3.2,2.1,5.4,5.5,8.4,7.9
	c5.1,4.2,12,5.2,17.7,8.5c2.8,1.6,5.2,3.7,7.7,5.8c1.1,1,2.3,2,3,3.3c0.8,1.7,0.7,3.7,0.9,5.6c0.6,5.6,4.1,10.5,5.5,16
	c1.1,4.1,1.1,8.5,2.2,12.7s4.1,7.2,7.7,9.6c1.7,1.1,3.1,2.9,4.7,4c9.4,6.7,18.7,13.4,28.1,20.1c1.4,1,2.9,2,4.3,3.1
	c3.2,2.3,6.5,4.7,10,6.6c5.3,3,11,5.1,17,6.3c8.2,1.7,16.8,1.5,25.1,0.1c3-0.5,6.1-1.2,9.1-1.5c2.7-0.3,5.4-0.3,8.1-0.6
	c15.2-1.2,29.7-8.2,44.9-8.3c1,0,2,0,3-0.4c2.4-1.2,2.4-4.5,3-7.2c0.8-3.7,3.5-7,7-8.5c1.2-0.5,2.6-0.8,3.8-1.4
	c1.3-0.6,2.4-1.4,3.7-2c6.2-3.4,13.8-3,20.9-2.6"/>
<path fill="none" stroke="#E1E1E1" stroke-miterlimit="10" d="M95.5-8.2c1.4,7.6,5.8,14.8,12.3,19.1c2,1.3,4.1,2.4,6.2,3.4
	c16.3,8.1,32.3,16.8,48,26c9.6,5.6,19.6,11.9,25.3,21.5c7.5,12.8,6.4,29.5,14.9,41.7c4.5,6.4,11.1,10.8,17.6,15.1
	c7.6,5,15.4,10.1,24.2,12.4c9,2.4,19.3,2.1,27.8,0.1c4.2-1,6.6-4.5,10.9-4.3s9,0.4,13.3,1.1c12.2,1.8,23.4-2.6,34.8-7.3
	c15.4-6.3,31.5-11,47.9-13.7"/>
<path fill="none" stroke="#E1E1E1" stroke-miterlimit="10" d="M116.1-12.3c3.1,8.2,8.2,16.4,16.3,19.8c4.3,1.8,9.1,2.2,13.3,4
	c5,2.2,9,6.2,13.3,9.6c5.5,4.4,10.5,4.9,17.1,7.5c6.6,2.6,14.9,7.5,20.5,11.8c3.8,2.9,6.8,6.9,9.6,10.7c2.4,3.2,4.7,6.4,7.1,9.6
	c3.1,4.2,6.3,8.7,7.2,13.9c0.5,3.1,0.1,6.5,1.2,9.4c1.5,3.8,5.3,6.2,8.8,8.3c3.4,2,6.7,4,10.1,6c2,1.2,4,2.4,6.1,3.4
	c13.8,6.8,30.1,5.5,45.5,4.1c3.3-0.3,6.6-0.6,9.7-1.8c2-0.8,3.9-1.9,5.9-2.9c7-3.4,14.8-4.7,22.5-5.8c16-2.3,32.1-4.3,48.2-5.9"/>
<path fill="none" stroke="#E1E1E1" stroke-miterlimit="10" d="M132.7-7.5c-0.2,3.2,2.3,6.4,5.5,6.9c1.4,0.2,2.8,0,4.2,0.2
	c1.6,0.3,3.1,1.2,4.5,2.1c3.6,2.3,7.2,4.6,10.8,7c1.5,0.9,2.9,1.9,4.5,2.5c1.9,0.8,4,1.2,6,1.5c4.3,0.8,10.2-1.1,13,2.3
	c1,1.2,1.8,2.6,3.3,3.1c2.6,1,5.3,2,8.2,2.3c1.4,0.1,2.8,0.1,4.2,0.3c3.3,0.6,6,2.7,8.9,4.3c2.9,1.6,6.6,2.6,9.5,0.8
	c1-0.6,1.7-1.5,2.8-2c1-0.5,2.5-0.4,3,0.6c0.5,0.9,0,2.1,0.5,3.1c1.3,2.6,6.6-0.8,7.7,1.8c0.7,1.5-1.2,2.9-1.9,4.5
	c-0.8,1.9,0.2,4.1,1.3,5.8c2.4,3.6,5.6,6.7,8.7,9.8c1.1,1,2.3,2.2,3.8,2.2c1.1,0,2.3-0.6,3.3-0.2c1.2,0.5,1.5,2,2.4,2.9
	c1,1.1,2.5,1.3,3.9,1.8c3.3,1.3,3,5.9,5.4,8.5c1.2,1.3,3.5,0,5.3,0c0.8,0,1.6,0,2.2,0.5c0.4,0.3,0.6,0.8,0.8,1.3
	c1.6,3.8,1.3,9.4,4.9,11.4c2.6,1.4,5-3.1,7.7-4.2c1.7-0.7,3.6-0.7,5.5-0.8c6.1-0.4,12-2.2,17.3-5.2c2.2-1.2,4.5-2.8,7-2.4
	c3,0.5,4.9,3.5,7.6,5c2.7,1.5,6.1,1.3,9.2,1.1c0.7-0.1,1.4-0.1,2-0.4c0.5-0.2,0.9-0.5,1.4-0.8c1.5-0.7,3.3-0.3,4.9,0.2
	c1.6,0.6,3.2,1.3,4.9,1.2c1.7-0.1,3.4-1.4,3.3-3.1c-0.1-1.6-1.7-2.6-2.1-4.1c-0.5-1.9,1.2-3.7,3-4.2c1.9-0.5,4,1.5,5.7,0.6
	c1.2-0.6,2.1-1.7,3.5-1.5c1.4,0.2,2.7,0.8,4.1,0.4c0.7-0.2,1.4-0.7,2.2-0.7c1.2,0,2.2,1.2,2.4,2.4c0.2,1.2-1.8,4.1-0.6,3.6
	c3.1-1.5,8.4-4.9,13.1-4.2"/>
<path fill="none" stroke="#E1E1E1" stroke-miterlimit="10" d="M152.7-7.6c3.4,3.2,7.2,6.4,11.8,7.2c1.4,0.2,2.8,0.2,4.1,0.6
	c2.2,0.6,4.1,2.1,6.3,2.9c1.5,0.5,3.1,0.7,4.6,1.1c5.7,1.5,10.3,5.6,15.7,7.9c5.1,2.2,10.9,2.6,16.3,1.2c2.4-0.6,4.8-1.6,7.3-1.4
	c1.6,0.1,3.2,0.8,4.7,1.4c5.7,2.5,11.1,5.5,16.6,8.4c3.9,2.1,7.8,4.3,11.8,6.4c2,1.1,4.1,2.3,6.4,2.6c1.6,0.2,3.2,0.1,4.7,0.5
	c2.1,0.5,3.8,1.8,5.5,3.1c1.1,0.8,2.1,1.6,2.9,2.7c1,1.5,1.3,3.4,1.7,5.2c1,4.7,0.6,12.4,5.3,13.2c3,0.5,5.3-3,8.3-3.4
	c1.3-0.2,2.7-0.2,3.7-0.9c0.8-0.5,1.3-1.3,1.9-1.9c2.6-2.4,6.2-0.6,9.1,1.5c1.5,1.1,3,0.6,4.8,0.1c4.4-1.1,8.6-4.8,13-3.4
	c2.1,0.7,3.8,2.4,6,2.4c1.3,0,2.6-0.6,3.7-1.3c3.2-1.8,6.6-3.7,10.3-3.6c2.3,0,4.6,0.8,6.9,1.4c8.7,2.4,18,2.4,26.6-0.1"/>
<path fill="none" stroke="#E1E1E1" stroke-miterlimit="10" d="M171.7-7.7c3.5,3.6,8.2,5.8,13.2,6.3c1.3,0.1,2.6,0.2,3.7,0.8
	c0.9,0.5,1.5,1.3,2.3,1.9c3.8,3.2,9.4,2,14.3,1.8c6.4-0.3,12.7,1.2,18.9,2.7c4.5,1.1,9.1,2.2,12.7,5c1.4,1.1,2.7,2.5,4.4,3.2
	c0.9,0.4,2,0.5,3,0.7c1.8,0.4,3.4,1.3,5,2.1c4.6,2.4,9.2,4.8,13.8,7.2c3,1.6,6.1,3.2,9.5,3.9c2.6,0.6,5.3,0.7,7.8,1.4
	c2.5,0.8,5,2.5,5.7,5c0.1,0.4,0.2,0.9,0.5,1.2c0.3,0.2,0.6,0.3,0.9,0.4c3.4,0.7,7-0.4,10.4-1c3.5-0.6,7.4-0.8,10.1,1.4
	c0.4,0.3,0.8,0.7,1.2,0.8c0.6,0.2,1.2,0.1,1.8-0.1c2.5-0.6,5-1.3,7.6-1.3s4.7,1.4,6.9,2.7c3.6,2.1,8.1-4.6,12-3.1
	c1,0.4,1.8,1.1,2.8,1.6c0.8,0.4,1.8,0.5,2.7,0.6c9.2,1.2,18.4,2.4,27.7,2.1c1.8,0,3.7-0.2,4.9-1.5"/>
<path fill="none" stroke="#E1E1E1" stroke-miterlimit="10" d="M216.6-7.9c2.8,2.3,6.5,3.6,10.2,3.6c1.4,0,2.8-0.2,4.1-0.1
	c4.4,0.5,5.8,6.4,9.8,8.3c1.2,0.6,2.3,1,3.2,1.9c3.1,3.1,8.1,2.4,12.2,4.1c4.7,1.9,7.5,7,12.4,8.3c1.5,0.4,3.1,0.6,4.5,1.5
	c2.2,1.3,3.7,4.1,6.2,4.1c2.1,0,4-2.1,6.1-1.7c3,0.7,3.3,5.8,6.4,6.2c0.7,0.1,1.5-0.2,2.2-0.4c2.9-0.8,6.2-0.4,8.9,0.9
	c1.3,0.6,2.6,1.5,4,1.4c1.4-0.2,2.5-1.4,3.7-2c4.1-2.2,9.7-1.7,13.6,0.8c1.3,0.8,2,2.2,3.5,2.2c1.5,0,2.9-0.5,4.3-1
	c2.4-0.7,4.9-1.1,7.4-1c3.2,0.1,6.3,0.7,9.4,1.4c2.3,0.5,4.5,1,6.8,1.5c0.6,0.1,1.2,0.3,1.8,0.2c0.9-0.1,1.7-0.5,2.5-0.9
	c4.9-2.3,10.5-3.1,15.9-2"/>
<path fill="none" stroke="#E1E1E1" stroke-miterlimit="10" d="M239.8-7.2c-0.7-0.4-0.9,1-0.4,1.6c2.3,2.4,6.9,1.1,9.2,3.5
	c1.3,1.3,1.6,3.7,3.3,4.3c0.8,0.3,1.7,0.1,2.5,0.1c6.6-0.2,11.4,8.1,17.9,7.1c1.2-0.2,2.4-0.7,3.6-0.6c3.7,0.4,4.6,6,8.1,7.1
	c1,0.3,2.1,0.2,3.1,0.6c1.2,0.4,2,1.5,3.2,1.9c0.9,0.3,1.9,0.3,2.9,0.3c7.7-0.3,15.3,0.1,22.9,1.1c1.9,0.3,3.8,0.6,5.4,1.5
	c1.3,0.8,2.4,1.9,3.9,2.3c1.4,0.4,2.9,0,4.4-0.3c8.4-1.7,17.3,0.7,25.5-1.7c3.4-1,6.5-2.8,9.9-4.1s7-2.1,10.4-1.1"/>
<path fill="none" stroke="#E1E1E1" stroke-miterlimit="10" d="M254.2-8.6c0.2,1.7,1.7,3,3.1,3.9c5,3.3,10.8,5.2,16.8,5.7
	c1,0.1,1.9,0.1,2.9,0.3c1,0.2,1.9,0.6,2.8,1c2.9,1.3,5.8,2.5,8.7,3.8c1.3,0.6,2.7,1.2,4.1,1.5c1.4,0.3,2.9,0.4,4.4,0.5
	c5.2,0.3,10.4,0.5,15.7,0.8c2.9,0.1,5.8,0.3,8.5,1.3c2.8,1,5.3,2.8,8.3,3.2c1.4,0.1,2.8-0.1,4.3-0.2c3-0.4,6.1-0.5,9.2-0.4
	c0.9,0,1.9,0.1,2.7,0.6c0.5,0.3,0.9,0.8,1.5,1.2c1.3,0.8,3,0.4,4.3-0.3c1.3-0.8,2.3-1.9,3.5-2.8c3.3-2.5,7.5-3.1,11.6-3.6
	c2.4-0.3,4.8-0.6,7.1-1"/>
<path fill="none" stroke="#E1E1E1" stroke-miterlimit="10" d="M287.6-7.8c-0.9,0.6-0.9,2-0.2,2.9s1.7,1.3,2.7,1.6
	c1.3,0.5,2.6,0.9,3.9,1.4c0.8,0.3,1.7,0.6,2.6,0.6c1,0,1.9-0.4,2.8-0.6c10.1-2.8,20.1,6.2,30.5,5.5c2.3-0.1,4.5-0.7,6.8-1.1
	c3.1-0.5,6.2-0.6,9.4-0.9c10.1-0.7,20.1-2.8,29.7-6.1"/>
<path fill="none" stroke="#D6D6D6" stroke-miterlimit="10" d="M296-8.6c-2.9,8.8-4.5,17.9-4.9,27.1c-0.1,2.5-0.1,5-0.4,7.4
	c-0.4,3-1.2,5.9-2.2,8.8c-3.3,9.6-8.5,18.5-15.2,26.1c-1.4,1.6-2.4,2.8-3.1,4.8c-0.6,1.6-0.3,4-0.2,5.8c0.2,2.9,0.1,5.7,0.5,8.6
	c0.5,3.1,0.9,6.2,3,8.6c2.3,2.6,5.8,3.6,9.2,4.5c4,1.1,9.2,1.6,12.8,3.1"/>
<path fill="none" stroke="#D6D6D6" stroke-miterlimit="10" d="M147.5,373.5c2.4-2,3.6-5.2,3.1-8.2c-0.3-1.9-1.2-4-0.1-5.6
	c0.4-0.6,1.1-1,1.8-1.4c12-7.5,17.5-22.8,29.7-29.8c4.2-2.4,9-3.6,13.7-4.9c6.9-1.8,13.7-3.5,20.6-5.3c4.9-1.3,9.9-2.5,14.9-2.2
	c5.6,0.4,10.8,2.8,15.8,5.1c5.3,2.4,10.5,4.8,15.8,7.3c7.1,3.3,14.4,7.2,22.2,8c4.2,0.4,8.8,0.1,12.8,1.2c3.5,1,5.8,3.2,9.4,3.6
	c4.1,0.4,8.8-1.6,11-5.1c2-3.3,5.2-6,9.5-8.6c15.1-9.2,33.1-5.7,47.9-11.3"/>
<path fill="#7BBCEB" stroke="#4E9BD7" stroke-miterlimit="10" d="M180.3,194.4c4,3.7,10.1,5.7,14.2,5.5c2.7-0.1,3.2-4.7,2.9-7.3
	c-0.3-2.2-1.3-4.2-1.4-6.4c-0.1-1,0-2-0.3-2.9c-0.4-1.1-1.2-2-2.1-2.8c-2.3-2.1-4.8-3.9-7.6-5.4c-3.6-1.9-7.5-3.3-11.1-5.4
	c-1.6-1-3.3-2.1-5.2-2.1c-1.7,0-3.2,0.8-4.6,1.7c-2.3,1.4-4.9,3.1-5.3,5.8c-0.1,0.7,0,1.5,0,2.2c0.2,2.4,0.5,4.8,0.7,7.2
	c0,0.3,0.1,0.5,0.2,0.8c0.2,0.5,0.8,0.7,1.2,0.8c2.6,0.9,5.4,1.9,8.1,1.6c1.4-0.1,2.8-0.6,4.2-0.6c1.4,0,3,0.6,3.6,1.9
	c0.4,0.8,0.3,1.8,0.5,2.7C178.6,192.7,179.5,193.6,180.3,194.4z"/>
<path fill="#EAEAEA" stroke="#D6D6D6" stroke-miterlimit="10" d="M224.2,208.6c-0.9-0.4-1.9-0.9-2.8-1.3c-1.3-0.6-2.7-1.2-4-1.9
	c-1-0.5-1.9-1-2.9-1.5c-0.3-0.1-0.5-0.3-0.8-0.3c-1-0.2-1.9,0.8-2.1,1.8c-0.4,1.4-0.1,2.9,0.8,4c0.5,0.6,1.2,1.1,1.8,1.6
	c0.9,0.8,1.5,1.9,1.9,3c0.2,0.5,0.3,1.1,0.6,1.5c0.4,0.5,0.9,0.8,1.5,1c2.7,0.9,5.9-0.1,7.6-2.3c0.2-0.2,0.3-0.4,0.4-0.7
	c0-0.2,0-0.5-0.1-0.7c-0.2-0.9-0.5-1.9-0.7-2.8c-0.1-0.3-0.1-0.5-0.3-0.8C224.8,208.9,224.5,208.7,224.2,208.6z"/>
<path fill="#EAEAEA" stroke="#D6D6D6" stroke-miterlimit="10" d="M236.2,216.2c0.5,0.3,1.1,0.7,1.3,1.3c0.3,0.8-0.1,1.7-0.8,2.2
	c-0.7,0.5-1.6,0.5-2.4,0.4s-1.6-0.4-2.4-0.6c-0.8-0.2-1.6-0.3-2.3-0.7c-0.7-0.4-1.5-1.3-1.1-2c0.2-0.4,0.4-0.8,0.5-1.2
	c0.3-0.9,1.2-1.6,2.2-1.7c1.1-0.1,2,0.5,2.9,1C234.8,215.4,235.5,215.8,236.2,216.2z"/>
<path fill="none" stroke="#D6D6D6" stroke-miterlimit="10" d="M226.2,213.7c-0.1,0.1,0.1,0.3,0.3,0.4c0.9,0.3,1.8,0.5,2.7,0.8"/>
<g>
	<g>
		<path fill="none" stroke="#585858" stroke-miterlimit="10" d="M-9.8,46.1c0.3,0.6,0.7,1.1,1.2,1.6"/>
		<path fill="none" stroke="#585858" stroke-miterlimit="10" stroke-dasharray="3.9757,0.9939" d="M-7.9,48.4c0.7,0.6,1.5,1,2.3,1.5
			c2.3,1.3,4.5,2.6,6.8,3.9c1.9,1.1,3.8,2.2,5.9,2.7c2.3,0.6,4.8,0.4,7.1,0.5c4.4,0.3,8.6,2,12.7,3.6c1.4,0.6,2.8,1.1,3.9,2.1
			c0.7,0.6,1.2,1.4,1.8,2.1c2,2,4.9,2.7,7.7,2.9c2.8,0.2,5.7-0.3,8.5,0.3c6.8,1.4,13,6.8,20.9,8.4c3.2,0.6,6.4,1.1,9.7,1.5
			c5.6,0.7,11,3.3,16.3,4.9c5.8,1.8,9,7,12.5,11.9c6.4,9,9,20.2,11,31c0.7,4.1,2.5,8.4,3.9,12.4c0.8,2.2,0.8,4.1,1.5,6.4
			c1.7,5.3,1.6,11,2.4,16.5c0.5,3.3,1.4,6.9,3.9,9.1c1.2,1.1,2.8,1.8,4.3,2.5c4.1,1.9,8.3,3.7,12.4,5.6c1,0.4,1.9,0.9,2.7,1.5
			c1.5,1.2,2.4,2.9,3.2,4.5c1.2,2.4,2.4,4.7,3.7,7.1c0.6,1.2,1.3,2.4,2.5,3c1,0.5,2.2,0.4,3.4,0.4c2.3,0.1,4.8,0.9,6.6,2.3"/>
		<path fill="none" stroke="#585858" stroke-miterlimit="10" d="M170,197.2c0.5,0.4,1,0.9,1.3,1.5"/>
	</g>
</g>
<g>
	<g>
		<path fill="none" stroke="#585858" stroke-miterlimit="10" d="M183.2,214.5c0.2-0.6,0.4-1.3,0.8-1.8"/>
		<path fill="none" stroke="#585858" stroke-miterlimit="10" stroke-dasharray="3.9664,0.9916" d="M184.5,211.8
			c3.5-5,11.7-8.3,14.2-13.6c2-4.2,0.5-9.4,2.5-13.6c4-8.6,21.9-9.2,22.9-15.4c0.1-0.9,1.5,1.8,2.3,1.4c0.9-0.4-0.7-3,0.4-3.1
			c2.6-0.1,4.8,1,4.5-2.4c-0.1-1.3,2.6,1.4,3.8,0.9c0.9-0.4-1-2-0.6-2.9c0.5-1.2,2.6,1.5,3.8,1c0.7-0.3-0.3-1.8,0.3-2.3
			c0.8-0.6,1.8,1.5,2.7,1c0.7-0.4-0.8-1.8-0.2-2.3c0.8-0.6,1.9,1.2,2.8,0.9c2.1-0.7-1.3-3.9-0.5-5.9c0.4-1,3-1.2,2.2-1.9
			c-1-0.9-3.7,0.8-3.9-0.5c-0.2-1.6,4.1-1.9,3.6-3.5c-0.6-1.6-4.6,1.2-4.9-0.4c-0.3-1.2,3.1-0.6,3.1-1.8c0.1-2.1-4.7-1.7-3.6-3.5
			c2.3-3.6,8.4-2.5,11.2-5.8c0.6-0.8,0.9-2.8,1.8-3.3c0.9-0.5,2.1-0.5,3.1-0.5c11,0.2,22.1-1.6,32.5-5.3c2.6-0.9,5.3-2,8-2.3
			c4.3-0.4,8.5,1.1,12.7,1.7c9.7,1.4,19.6-2.1,27.7-7.7c2.3-1.6,4.6-3.4,7.2-4.4c2.1-0.9,4.3-1.2,6.6-1.6c6.8-1.3,13.4-3.4,19.7-6.3
			"/>
		<path fill="none" stroke="#585858" stroke-miterlimit="10" d="M370.9,108c0.6-0.3,1.2-0.6,1.8-0.9"/>
	</g>
</g>
<g>
	<g>
		<path fill="none" stroke="#585858" stroke-miterlimit="10" d="M372.2,116.3c-0.6,0.2-1.2,0.5-1.7,1"/>
		<path fill="none" stroke="#585858" stroke-miterlimit="10" stroke-dasharray="4.0567,1.0142" d="M369.7,117.9
			c-0.8,0.9-1.3,2.2-1.6,3.4c-0.4,2.2,0,4.5,0.5,6.7c0.5,2.1,1,4.4,0,6.4c-0.6,1.1-1.6,2-2.5,2.9c-3.8,3.9-5.4,9.8-4.2,15.1
			c0.4,1.7,1.1,3.4,1.2,5.1c0.1,2.1-0.6,4.2-1.5,6.2c-1.7,4-3.9,7.7-6.5,11.2c-3.3,4.4-6.7,11-6.3,14.6c0.2,1.5,2.6,1.6,4,2
			c1.5,0.4,3,0.9,4,2s-0.7,2.6-0.2,4c0.6,1.9,8,0.3,14.2,0"/>
		<path fill="none" stroke="#585858" stroke-miterlimit="10" d="M371.5,197.5c0.7,0,1.4,0,2,0"/>
	</g>
</g>
<g>
	<g>
		<path fill="none" stroke="#585858" stroke-miterlimit="10" d="M229.5,287.4c-0.3-0.6-0.7-1.1-1.1-1.7"/>
		<path fill="none" stroke="#585858" stroke-miterlimit="10" stroke-dasharray="4.0215,1.0054" d="M227.8,284.9
			c-5.8-7.2-16.9-12.2-25.2-9c-1.1,0.4-2.2,0.9-3.3,1.1c-1.2,0.2-2.4-0.1-3.6-0.2c-3.5-0.4-7-0.1-10.5,0.3c-2,0.2-4.1,0.4-6,1.2
			c-5,2.2-7.2,7.8-10,12.5c-3,4.9-7.1,9.1-11.9,12.2c-3.3,2.1-5.4,3.7-7.3,7c-1.1,1.9-2.8,4.7-3.2,6.8c-1.2,6.3-2.9,12.3-4,18.6
			c-0.4,2-0.8,4-1.4,6c-1.9,5.8-5.8,10.7-9.6,15.5c-2.8,3.5-5.7,7.1-9.1,10c-2.5,2.1-5.5,4.2-6.9,7"/>
		<path fill="none" stroke="#585858" stroke-miterlimit="10" d="M115.6,374.4c-0.2,0.6-0.4,1.3-0.4,1.9"/>
	</g>
</g>
<g>
	<g>
		<path fill="none" stroke="#585858" stroke-miterlimit="10" d="M204.8,249c0.7-0.1,1.3-0.2,2-0.4"/>
		<path fill="none" stroke="#585858" stroke-miterlimit="10" stroke-dasharray="3.9556,0.9889" d="M207.7,248.5
			c9-1.3,18.1-0.7,26.5,2.6c0.6,0.2,1.3,0.4,1.8,0.9c0.5,0.5,0.6,1.2,0.8,1.9c1.2,4.4,3.4,8.4,6.5,11.8c2,2.2,4.1,4.3,6,6.5
			c2.3,2.7,1.4,5.6,1.7,8.2c0.3,2.8,9.3,4.8,14.5,2.7c2.5-1,5.4-2.9,7.9-3.8c2.2-0.8,4.6-0.8,7-0.8c4.4,0,9.9-0.7,14.7-0.7"/>
		<path fill="none" stroke="#585858" stroke-miterlimit="10" d="M295.5,277.6c0.7,0,1.4,0,2,0"/>
	</g>
</g>
<g>
	<g>
		<path fill="none" stroke="#585858" stroke-miterlimit="10" d="M202.9,182.4c0.6,0.2,1.3,0.4,1.9,0.7"/>
		<path fill="none" stroke="#585858" stroke-miterlimit="10" stroke-dasharray="3.9689,0.9922" d="M205.7,183.4
			c3.9,1.6,7.7,3.6,11.8,3.6c3.4,0,6.4,1.1,8.4,3.6c0.8,1,2.2,1.4,3.4,1.8c2.2,0.7,4.6,0.2,6.7,1c1.7,0.6,3.1,2,4.8,2.8
			c1.6,0.8,3.5,1,5.3,1.1c11.9,1,24,0.3,35.8-0.1c6.2-0.2,13.5-1,17.5,3.8c0.8,0.9,1.3,2,2.2,2.8c2.5,2.3,6.5,1.8,9.5,0.3
			s6-2.9,9.1-4.2c3.9-1.6,7.9-2.3,12.1-2.9c4.2-0.6,8.7-2.4,10.4-6.2c0.6-1.4,0.9-3.2,2.3-3.9c0.6-0.3,1.2-0.5,1.8-0.7"/>
		<path fill="none" stroke="#585858" stroke-miterlimit="10" d="M347.2,186.2c0.6-0.1,1.3-0.3,1.9-0.5"/>
	</g>
</g>
<g>
	<g>
		<path fill="none" stroke="#585858" stroke-width="2" stroke-miterlimit="10" d="M170.8,198.2c0.4,0.4,0.9,0.8,1.5,1.3"/>
		<path fill="none" stroke="#585858" stroke-width="2" stroke-miterlimit="10" stroke-dasharray="3.9967,0.9992" d="M173.1,200.1
			c1.1,0.9,2.3,1.8,3.2,2.6c1.2,1,2.7,3.1,3.5,4.5c2.2,3.9,3.3,6.8,4.7,11c0.4,1.1,3.2,6.4,3.8,7.3c1,1.3,6.3,8.4,9.3,12.7
			c3.2,4.6,6.7,9.5,10.7,13.7c3.6,3.8,5,8.2,8,12.5c1.3,1.8,2.9,4.8,4.5,6.3c2.3,2.2,5,3.4,7,5.8c2.2,2.6,2.6,6.1,2.3,9.5
			c-0.1,1.5-0.3,7,3.5,8.2c12.1,3.7,22.6,2.9,33.8,0.1c8.6-2.1,16.2-5.5,23.3-10.9c1.8-1.3,3.5-2.7,5.3-4c1-0.7,1.9-1.5,3-2
			c4.6-2.3,11,0,13.1,4.7c1.1,2.6,1.1,5.5,2.2,8.1c1.1,2.6,3.3,4.6,5.6,6.2c1.3,0.9,2.7,1.8,3.4,3.2c0.4,0.8,0.6,1.7,0.9,2.5
			c1.3,3.3,4.8,5.2,8.2,6.1s7,0.9,10.4,1.9c1.7,0.5,4.1,0.7,5.9,1c2.3,0.4,4.2,0.1,6.5-0.2c5.4-0.7,10.5-0.9,15.9-1.5"/>
		<path fill="none" stroke="#585858" stroke-width="2" stroke-miterlimit="10" d="M371.7,309.3c0.7-0.1,1.3-0.2,2-0.2"/>
	</g>
	<path fill="none" stroke="#FFFFFF" stroke-miterlimit="10" d="M170.8,198.2c1.3,1.2,3.9,3.1,5.5,4.5c1.2,1,2.7,3.1,3.5,4.5
		c2.2,3.9,3.3,6.8,4.7,11c0.4,1.1,3.2,6.4,3.8,7.3c1,1.3,6.3,8.4,9.3,12.7c3.2,4.6,6.7,9.5,10.7,13.7c3.6,3.8,5,8.2,8,12.5
		c1.3,1.8,2.9,4.8,4.5,6.3c2.3,2.2,5,3.4,7,5.8c2.2,2.6,2.6,6.1,2.3,9.5c-0.1,1.5-0.3,7,3.5,8.2c12.1,3.7,22.6,2.9,33.8,0.1
		c8.6-2.1,16.2-5.5,23.3-10.9c1.8-1.3,3.5-2.7,5.3-4c1-0.7,1.9-1.5,3-2c4.6-2.3,11,0,13.1,4.7c1.1,2.6,1.1,5.5,2.2,8.1
		c1.1,2.6,3.3,4.6,5.6,6.2c1.3,0.9,2.7,1.8,3.4,3.2c0.4,0.8,0.6,1.7,0.9,2.5c1.3,3.3,4.8,5.2,8.2,6.1c3.4,0.8,7,0.9,10.4,1.9
		c1.7,0.5,4.1,0.7,5.9,1c2.3,0.4,4.2,0.1,6.5-0.2c6.2-0.8,12.1-1,18.4-1.8"/>
</g>
<text transform="matrix(1 0 0 1 158.9992 154.0223)"><tspan x="0" y="0" fill="#7BBCEB" font-family="'Verdana-Italic'" font-size="8">Harden</tspan><tspan x="0" y="9.6" fill="#7BBCEB" font-family="'Verdana-Italic'" font-size="8">Lake</tspan></text>
<path fill="none" d="M189.3,121.8c9.4,6.7,18.7,13.4,28.1,20.1"/>
<text transform="matrix(0.8133 0.5818 -0.5818 0.8133 193.4894 127.8823)"><tspan x="0" y="0" fill="#7D7D7D" font-family="'Verdana-Italic'" font-size="7">7</tspan><tspan x="4.4" y="0" fill="#7D7D7D" font-family="'Verdana-Italic'" font-size="7">2</tspan><tspan x="8.9" y="0" fill="#7D7D7D" font-family="'Verdana-Italic'" font-size="7">0</tspan><tspan x="13.4" y="0" fill="#7D7D7D" font-family="'Verdana-Italic'" font-size="7">0</tspan></text>
<path fill="none" d="M319.2,168.1c13.1-3.5,28.1-3.8,38.2-13"/>
<text transform="matrix(0.98 -0.199 0.199 0.98 324.7824 169.3735)"><tspan x="0" y="0" fill="#7D7D7D" font-family="'Verdana-Italic'" font-size="7">7</tspan><tspan x="4.4" y="0" fill="#7D7D7D" font-family="'Verdana-Italic'" font-size="7" rotate="0.4">4</tspan><tspan x="8.9" y="0" fill="#7D7D7D" font-family="'Verdana-Italic'" font-size="7" rotate="-0.5">0</tspan><tspan x="13.5" y="0" fill="#7D7D7D" font-family="'Verdana-Italic'" font-size="7" rotate="-2.6">0</tspan></text>
<path fill="none" d="M293.3,18.7c7.7-0.3,15.3,0.1,22.9,1.1c1.9,0.3,3.8,0.6,5.4,1.5"/>
<text transform="matrix(0.9994 3.414632e-02 -3.414632e-02 0.9994 300.5031 21.1318)"><tspan x="0" y="0" fill="#7D7D7D" font-family="'Verdana-Italic'" font-size="7">5</tspan><tspan x="4.4" y="0" fill="#7D7D7D" font-family="'Verdana-Italic'" font-size="7" rotate="2">8</tspan><tspan x="8.7" y="0.1" fill="#7D7D7D" font-family="'Verdana-Italic'" font-size="7" rotate="3.9">0</tspan><tspan x="13.1" y="0.4" fill="#7D7D7D" font-family="'Verdana-Italic'" font-size="7" rotate="5.9">0</tspan></text>
<path fill="none" d="M43,275.2c2.9,3.2,2.4,8.2,3,12.5c0.8,5.3,3.5,10.1,7.1,14c2.7,2.9,6,5.6,6.9,9.4"/>
<text transform="matrix(0.2901 0.957 -0.957 0.2901 43.6247 289.5019)"><tspan x="0" y="0" fill="#7D7D7D" font-family="'Verdana-Italic'" font-size="7">7</tspan><tspan x="4.9" y="-0.1" fill="#7D7D7D" font-family="'Verdana-Italic'" font-size="7" rotate="-10.3">6</tspan><tspan x="9.7" y="-1" fill="#7D7D7D" font-family="'Verdana-Italic'" font-size="7" rotate="-19.2">0</tspan><tspan x="14.2" y="-2.6" fill="#7D7D7D" font-family="'Verdana-Italic'" font-size="7" rotate="-26.8">0</tspan></text>
<path fill="none" d="M307.2,329.5c-1.7-1-1.6-3.5-1-5.4c2.1-6.5,7-11.9,13.3-14.6c2.3-1,4.9-1.7,6.2-3.8"/>
<text transform="matrix(0.5024 -0.8646 0.8646 0.5024 309.3137 322.7285)"><tspan x="0" y="0" fill="#7D7D7D" font-family="'Verdana-Italic'" font-size="7">7</tspan><tspan x="4" y="0" fill="#7D7D7D" font-family="'Verdana-Italic'" font-size="7" rotate="10.6">6</tspan><tspan x="7.9" y="0.7" fill="#7D7D7D" font-family="'Verdana-Italic'" font-size="7" rotate="21.1">0</tspan><tspan x="11.7" y="2" fill="#7D7D7D" font-family="'Verdana-Italic'" font-size="7" rotate="32">0</tspan></text>
<path fill="none" d="M16.2,79c1.9,1.2,3.5,2.9,5.4,4.1c2.4,1.5,5.2,2.1,7.7,3.5c3.7,2,6.6,5.7,10.6,6.8"/>
<text transform="matrix(0.861 0.5086 -0.5086 0.861 18.7038 84.4267)"><tspan x="0" y="0" fill="#7D7D7D" font-family="'Verdana-Italic'" font-size="7">7</tspan><tspan x="4.8" y="-0.2" fill="#7D7D7D" font-family="'Verdana-Italic'" font-size="7" rotate="-9.1">8</tspan><tspan x="8.8" y="-0.9" fill="#7D7D7D" font-family="'Verdana-Italic'" font-size="7" rotate="1.3">0</tspan><tspan x="12.9" y="-0.8" fill="#7D7D7D" font-family="'Verdana-Italic'" font-size="7" rotate="7.8">0</tspan></text>
<path fill="none" d="M132.4,7.5c4.3,1.8,9.1,2.2,13.3,4c5,2.2,9,6.2,13.3,9.6"/>
<text transform="matrix(0.9674 0.2533 -0.2533 0.9674 138.5759 12.0258)"><tspan x="0" y="0" fill="#7D7D7D" font-family="'Verdana-Italic'" font-size="7">6</tspan><tspan x="4.1" y="-0.1" fill="#7D7D7D" font-family="'Verdana-Italic'" font-size="7" rotate="8.1">8</tspan><tspan x="8.1" y="0.5" fill="#7D7D7D" font-family="'Verdana-Italic'" font-size="7" rotate="18.3">0</tspan><tspan x="12" y="1.8" fill="#7D7D7D" font-family="'Verdana-Italic'" font-size="7" rotate="24.2">0</tspan></text>
<g>
	<g>
		<polyline fill="none" stroke="#7D7D7D" stroke-miterlimit="10" points="85.2,341.6 85.2,348.7 275.4,348.7 275.4,341.7 		"/>
		<line fill="none" stroke="#7D7D7D" stroke-miterlimit="10" x1="180.5" y1="341.4" x2="180.5" y2="348.7"/>
		<line fill="none" stroke="#7D7D7D" stroke-miterlimit="10" x1="161.2" y1="349.2" x2="161.2" y2="343.7"/>
		<line fill="none" stroke="#7D7D7D" stroke-miterlimit="10" x1="142.4" y1="349.2" x2="142.4" y2="343.7"/>
		<line fill="none" stroke="#7D7D7D" stroke-miterlimit="10" x1="123.3" y1="349.2" x2="123.3" y2="343.5"/>
		<line fill="none" stroke="#7D7D7D" stroke-miterlimit="10" x1="104.6" y1="349.2" x2="104.6" y2="343.7"/>
	</g>
	<text transform="matrix(1 0 0 1 83.7834 339.1469)" fill="#7D7D7D" font-family="'Verdana'" font-size="8">0</text>
	<text transform="matrix(1 0 0 1 174.2945 339.1469)" fill="#7D7D7D" font-family="'Verdana'" font-size="8">0.5</text>
	<text transform="matrix(1 0 0 1 258.3413 339.1469)" fill="#7D7D7D" font-family="'Verdana'" font-size="8">1 mi</text>
</g>
</svg>
