<?xml version="1.0" encoding="utf-8"?>
<!-- Generator: Adobe Illustrator 17.1.0, SVG Export Plug-In . SVG Version: 6.00 Build 0)  -->
<!DOCTYPE svg PUBLIC "-//W3C//DTD SVG 1.1//EN" "http://www.w3.org/Graphics/SVG/1.1/DTD/svg11.dtd">
<svg version="1.1" id="Layer_1" xmlns="http://www.w3.org/2000/svg" xmlns:xlink="http://www.w3.org/1999/xlink" x="0px" y="0px"
	 viewBox="0 0 360 360" enable-background="new 0 0 360 360" xml:space="preserve">
<path fill="none" stroke="#E1E1E1" stroke-miterlimit="10" d="M345.7-11c-0.5,1.1-0.5,2.4,0,3.5c0.3,0.6,0.7,1.1,1.1,1.6
	c2.1,2.4,4.2,4.9,6.3,7.3c0.2,0.2,0.4,0.4,0.7,0.5c0.4,0.1,0.8-0.1,1.1-0.2c3.5-1.8,7.1-3.6,10.6-5.4c0.7-0.4,1.4-0.7,2.2-0.9
	c0.7-0.1,1.4-0.1,2.1-0.1c1.8,0,3.6-0.2,5.4-0.7"/>
<path fill="none" stroke="#E1E1E1" stroke-miterlimit="10" d="M329.5-11.3c1.1,1.2,1.1,3.2,2.1,4.6c1.2,1.5,3.3,1.9,5.1,2.6
	c3.9,1.5,6.5,5.1,8.5,8.7c2.1,3.6,3.9,7.5,7,10.2c0.5,0.5,1.3,0.9,1.9,0.5c0.4-0.3,0.4-0.8,0.5-1.3c0.8-2.9,4.5-3.4,6.9-5.2
	c2-1.5,3.1-4,5.3-5c2.9-1.2,7,0.5,9-2"/>
<path fill="none" stroke="#E1E1E1" stroke-miterlimit="10" d="M315.4-12.2c-0.5,3.1,2.4,5.7,5,7.5c2.7,2,5.4,3.9,8.1,5.9
	c7,5.1,14.4,10.8,16.5,19.1c0.3,1.4,0.5,2.8,0.3,4.1c-0.3,1.8-1.2,3.4-2.1,5c-3.3,5.6-6.7,11.5-11.9,15.3
	c-7.8,5.7-19.2,6.5-24.8,14.4c-1.3,1.9-2.2,4.1-3.1,6.2c-2,5-4,10.7-1.5,15.5c0.8,1.5,0.9,3.4,2.1,4.6c0.6,0.6,1.9-0.5,2.6,0
	c2.7,2.1,3.3,5.9,5.6,8.4c7.6,8,15.6,16.3,18.7,26.9c2.8,9.6,4.4,28.4,7.1,29.1c5.4,1.4,9.5-5.8,14.3-8.6c4.2-2.5,9.1-5.2,13.7-3.6
	c2.7,0.9,5,3.2,7.8,2.9"/>
<path fill="none" stroke="#E1E1E1" stroke-miterlimit="10" d="M311,68.5c-1.4,1.6-1.5,3.9-1.4,6c0,0.6,0.1,1.2,0.3,1.8
	c0.2,0.8,0.7,1.5,1.2,2.2c0.6,0.9,1.2,1.8,1.8,2.7c1.6,2.3,3.4,7,5.9,5.7c1.8-1,0.1-4.1,0-6.1c-0.2-5.3,1.3-10.5,1.6-15.8
	c0-0.2,0-0.4-0.1-0.6c-0.1-0.1-0.3-0.2-0.5-0.2c-2.7-0.5-5.2,1.3-7.3,2.9C312,67.5,311.5,68,311,68.5z"/>
<path fill="none" stroke="#E1E1E1" stroke-miterlimit="10" d="M373,14.5c-1.5-1.4-3.9-0.8-5.6,0.4s-4,1.4-5.2,3.1
	c-1,1.4-2,2.3-2.8,3.9c-0.8,1.5-1,3.1-2.1,4.4c-1.8,2.2-2,5.4-3.2,8c-1.1,2.5-3.2,4.5-5.2,6.4c-6.9,6.8-13.5,13.9-19.6,21.3
	c-1,1.2-1.9,2.4-2.5,3.8c-0.5,1.3-0.6,2.7-0.6,4c-0.1,2.9,0,5.8,0.3,8.7c0.8,7.4,3.1,15.1,8.7,20c1.5,1.3,3.1,2.3,4.6,3.6
	c6,4.9,9.9,12.6,17.1,15.3c1.4,0.5,2.9,0.8,4.2,1.6c0.7,0.4,1.2,1,1.8,1.5c3,3,3.7,7.8,6.8,10.6c1.3,1.2,3.5,0.9,5.2,1.3"/>
<path fill="none" stroke="#E1E1E1" stroke-miterlimit="10" d="M340.9,117.3c-3.2,1.5,1.1,6.9,1.4,10.4c0.1,1.2-0.1,2.4,0,3.6
	c0.1,1.3,0.5,2.6,1.2,3.8c0.3,0.4,0.6,0.9,1.1,1.1c0.7,0.3,1.5-0.1,2-0.7s0.2-1.7,0.9-2.1c2.3-1.1,5.2,0.8,7.4-0.6
	c0.6-0.4,1.1-0.8,1.7-1.1c1-0.5,2.5-1,2.5-2.1c0-0.3-0.2-0.6-0.3-0.9c-1.7-2.9-4.7-4.9-7.6-6.5c-2.2-1.2-4.5-2.2-6.8-3.3
	C343.2,118.4,342.1,116.8,340.9,117.3z"/>
<path fill="none" stroke="#E1E1E1" stroke-miterlimit="10" d="M374.2,35.8c-1.9-0.4-4,0.3-5.4,1.7c-0.9,0.9-1.5,2.1-2.3,3.1
	c-1.4,1.8-4.6,1.1-6,2.9c-1.2,1.6-1,3.8-2.5,5.1c-1.6,1.3-3.4,2.7-3.5,4.7c-0.1,0.9,0.3,1.9,0.2,2.8c-0.1,1.6-1.2,3-2,4.4
	c-2,3.2-2.7,7-3.4,10.7c-0.4,2.2-0.8,4.4-1.3,6.5c-0.2,0.8-0.3,1.6-0.1,2.4c0.2,0.7,0.7,1.3,1,2c1.6,3.1-0.2,6.8-0.4,10.3
	c-0.3,4.6,2.4,9.2,6.6,11.2c1.4,0.7,2.9,1.1,4.4,1.6c4,1.5,7.5,4.2,10.3,7.5c0.6,0.7,1.2,1.4,2,1.8c0.8,0.4,1.9,0.4,2.5-0.3"/>
<path fill="none" stroke="#E1E1E1" stroke-miterlimit="10" d="M293.7-12.3c-2.6,5.2-5.2,11.6-2.2,16.6c0.7,1.3,1.8,2.3,2.5,3.6
	c0.4,0.7,0.7,1.5,1.4,2c0.5,0.4,1.1,0.5,1.8,0.6c5.1,0.8,10.3-0.6,15.4-1.1s10.9-0.1,14.6,3.6c2,2,3.2,4.7,4.1,7.4
	c0.7,2,1.4,4.1,1.2,6.3c-0.4,5.7-6.1,9.4-11.1,12.2c-4.3,2.4-8.8,4.8-13.6,5.9c-0.8,0.2-1.8,0.4-2.4,1c-1.6,1.6-0.2,4.3-0.7,6.5
	c-0.5,2.4-3.1,3.6-5.2,5c-4.2,3-6.5,8.1-7.4,13.2c-0.3,1.7-0.4,3.4-0.2,5c0.5,3.1,2.5,5.8,4.5,8.1c1.1,1.2,2.3,2.5,2.8,4
	c0.4,1.2,0.4,2.6,0.7,3.9c0.6,3.5,2.6,6.6,4.6,9.5c4.4,6.6,15.4,15,12.2,22.3c-2.9,6.6-1.8,8.8,3.5,15.5c3.2,4.1,6.6,10,7.6,15.1
	c1.2,5.9-1.3,11.8-3.6,17.3c-7,16.8-11.8,37.9-12.6,52.7c-0.2,4.8-4.8,7.5-7.1,11.7c-3.4,6.2-12,6.6-18.1,10.2
	c-9.1,5.3-12.5,17.5-21.9,22.2c-5.4,2.7-12.2,2.5-16.6,6.6c-2.1,1.9-3.4,4.6-5.7,6.3c-3.6,2.7-8.6,2.1-13,1.4
	c-1.5-0.2-3-0.5-4.3-1.1c-1.5-0.7-2.8-1.8-4.1-2.9c-11.5-9-28.4-10.2-41.1-3c-9.9,5.7-16.6,15.5-22.9,25c-1.2,1.8-2.9,4.4-1.4,5.9
	c1.9,1.8,5.2,0,7.2-1.6s3.6-3.7,5.9-5.1c5.9-3.5,13.4-0.3,19.4,2.9c4.1,2.2,8.3,4.5,11.3,8.1c2.4,2.9,4,6.8,7.5,8.3
	c4.3,1.8,9-0.9,12.8-3.6c7.7-5.3,15.5-10.6,23.2-16c3.1-2.1,6.1-4.2,8.8-6.8c2-2,3.7-4.2,5.9-5.9c5.5-4.5,13.8-5.3,20.1-2
	c5.3,2.8,10.1,8.1,13.4,13.1c6.3,9.4,8.7,13,15,23.2c2.6,4.3,9.6,11.6,13.7,14.6c1.8,1.3,3.9,2,6,2.9c14.8,6.1,25.9,19.5,41.1,24.8
	c1,0.3,2.1,0.6,3,0.2c1.1-0.5,1.5-1.8,1.6-3c0.3-4.7-2.6-8.9-4.5-13.2c-2.4-5.5-3.1-11.7-2.1-17.6c0.9-4.8,3.4-9.9,8-11.4"/>
<path fill="none" stroke="#E1E1E1" stroke-miterlimit="10" d="M319.9,211.4c0,0.2,0,0.5,0.2,0.6c0.2,0.2,0.6,0.1,0.9,0
	c1-0.5,1.6-1.6,2-2.6c0.9-2,1.6-4.1,2-6.3c0.5-2.2,0.7-4.4,1-6.7c0.1-1.1,0.2-2.1,0.4-3.2c0.2-1.6,0.3-3.5-0.9-4.6
	c-0.3-0.2-0.6-0.4-0.9-0.3c-0.4,0.1-0.6,0.4-0.7,0.7c-1.1,2.1-1.7,4.4-1.8,6.8c0,1.5,0.1,2.9-0.1,4.4c-0.3,1.4-0.9,2.7-1.3,4.1
	C319.9,206.5,319.9,209,319.9,211.4z"/>
<path fill="none" stroke="#E1E1E1" stroke-miterlimit="10" d="M323.6,278.8c0.8,2.7,1.9,5.3,3.1,7.8c1.4,2.8,3.1,5.5,5.5,7.5
	c1,0.8,2,1.5,3.1,2.3c2.2,1.6,4.1,3.5,5.9,5.6c0.9,1.2,1.8,2.4,2.9,3.4c4.3,4.1,10.8,4.5,16.7,4.7c0.3,0,0.6,0,0.8-0.2
	c0.2-0.2,0.2-0.4,0.3-0.7c0.3-1.4,1.8-2.3,3.2-2.5c1.4-0.2,3.3-0.4,4.3,0.7c1.4,1.6-2,3.4-3.9,4.4c-4.3,2.3-7.5,6.6-8.4,11.4
	c-0.4,2.5-0.8,5.8-3.3,6.3c-0.8,0.2-1.7,0-2.5-0.3c-7.5-2-15.1-4-22.3-6.9c-5.8-2.4-11.6-5.5-15.7-10.3c-1.5-1.7-2.7-3.7-4-5.6
	c-1.7-2.6-3.4-5.3-5-7.9c-2.3-3.7-4.7-7.4-7-11.1c-2.1-3.4-4.3-6.8-7.6-9.2c-4.6-3.3-10.7-3.9-15.3-7.3c-0.3-0.2-0.6-0.5-0.8-0.8
	c-0.8-1.4,1-2.9,2.5-3.6c5.8-3,10.5-7.6,15.2-12.2c1.3-1.3,2.7-2.6,4-4c1.3-1.3,2.9-2.1,4.5-2.9c4.9-2.8,7.3-12.9,12.7-11.2
	c3.7,1.2-0.9,7.5-1.4,11.3c-0.6,4.5,1.3,9,3.2,13.1c1.3,3,2.7,6.1,4.7,8.8c1,1.3,2.1,2.5,2.9,4C322.5,275.1,323,277,323.6,278.8z"/>
<path fill="none" stroke="#E1E1E1" stroke-miterlimit="10" d="M292.7,262.2c-0.8,0.8-1.7,1.9-1.3,3c0.3,0.8,1.3,1.2,2.1,1.6
	c6.1,2.7,10.1,8.4,14.2,13.6c5.2,6.7,10.8,13.1,16.8,19c0.6,0.6,1.2,1.2,2,1.3c0.8,0.1,1.8-0.5,1.7-1.3c0-0.3-0.2-0.5-0.3-0.8
	c-2.8-4.8-2.2-11.3-6-15.5c-0.7-0.8-1.6-1.5-2.3-2.4c-1.2-1.6-1.2-3.8-2.1-5.5c-4.2-7.7-8.9-11.2-12.7-19.9
	C303.8,253.1,296,258.8,292.7,262.2z"/>
<path fill="none" stroke="#E1E1E1" stroke-miterlimit="10" d="M372.5,147.4c-5,2.3-11.4-1.6-16,1.3c-4.4,2.6-7,6.8-11.1,9.9
	c-6.6,5.1-8.2,14.4-9,22.7c-0.9,9.4-1.5,18.9-4.2,28c-1.6,5.3-3.9,10.9-2,16c0.2,0.6,0.5,1.3,0.3,1.9c-0.4,1-1.8,1.1-2.8,0.7
	c-1-0.4-2.5-1.7-3-0.8c-0.9,1.7,0.6,3.8-0.4,5.5c-0.4,0.6-0.8,1.2-1,2c-0.1,0.5,0,1.1,0.1,1.6c0.2,1.3-0.1,2.8,0.6,3.9
	c1.6,2.8,3,5.6,2.8,8.8c-0.2,3.2-1,6.4-0.3,9.5c0.9,3.5,3.5,6.3,6.1,8.9c2.5,2.5,5.1,5.1,7.6,7.6c3.2,3.2,6.4,6.6,7.5,10.9
	c0.4,1.4,0.5,2.9,0.8,4.3c1.3,4.6,6,8,10.7,7.8c1.4,0,2.7-0.4,4.1-0.3c4.5,0.1,9.1,3.8,13,1.6"/>
<path fill="none" stroke="#E1E1E1" stroke-miterlimit="10" d="M373.5,167.9c-5.5,0.8-12.4-6.2-16.3-2.3c-1.2,1.2-0.9,3.1-2.4,3.7
	c-1.5,0.7-3.3,1.1-4.2,2.5c-0.9,1.5-0.3,3.4,0.3,5.1c1.3,3.7,2.1,8.1,0,11.4c-1.3,2-3.6,3.9-2.8,6.2c0.2,0.7,0.7,1.2,1.1,1.8
	c0.6,1.1,0.7,2.5,0.7,3.8c0.1,2.3,0.1,4.5,0.2,6.8c0.1,2.6-1.7,4.1-3.1,6.3c-2.8,4.5-0.2,10.6,0.8,15.8c0.3,1.7,1,3.4,1.2,5.2
	c0.6,5.1-2.6,10.8,0,15.3c0.9,1.5,2.3,2.6,3.1,4.1c0.7,1.3,1,2.7,1.2,4.1c0.7,4.2,1.5,8.4,2.2,12.6c0.5,2.8,1.8,7.5,4.4,6.4
	c2.4-1,4.7-2.2,7.1-1.3s4.3,2.8,6.1,4.6"/>
<path fill="none" stroke="#E1E1E1" stroke-miterlimit="10" d="M270.2-10.5c-5.6,4.4-7,12.2-8.1,19.2c-0.5,3.4-0.8,7.4,1.7,9.7
	c0.4,0.4,0.9,0.7,1.2,1.2c0.6,1.1,0,2.5-0.6,3.7c-1.5,2.9-2.6,5.9-3.3,9.1c-0.3,1.2-0.4,2.6,0.6,3.4c0.8,0.6,2,0.5,2.7,1.3
	c0.7,0.8,0.3,2,0.3,3c-0.2,2.7,2.9,3.8,4.5,6c2,2.9-1.2,7-1.8,10.5c-0.2,1.4-0.5,2.8-0.5,4.2c-0.1,5.3,4.7,8.5,7.5,13
	c1.2,2,2.6,3.7,4.1,5.5c2.4,2.9,2.1,7.2,2.6,10.9c0.2,1.6,0.7,3.3,1.9,4.3c0.5,0.4,1,0.6,1.6,1c2.5,1.7,2.8,5.1,2.8,8.1
	c0,3.8-0.3,7.7,1.5,11.1c0.7,1.4,1.8,2.6,2.4,4.1c0.4,0.9,0.6,1.9,0.9,2.9c1.2,3.4,4.2,5.9,6.3,8.8c0.8,1.1,1.5,2.4,2.3,3.6
	c1.5,2.6,3.1,5.4,3.2,8.5c0,1.6-0.1,3.6,1.3,4.4c0.4,0.2,0.9,0.3,1.3,0.4c2.7,0.9,3.8,4.2,4,7.1c0.2,2.9,2.2,5.5,1.8,8.3
	c-2.1,14.6-6.2,37.7-11.9,45.4c-1.4,1.9-4.6,1.6-5.1,4c-0.4,2.4,2.2,4.3,1.9,6.7c-0.8,6.5-9.6,8.9-13.7,14c-2.3,2.9-4.5,5.9-7,8.6
	c-4.3,4.6-9.7,8-14.9,11.4c-4.2,2.7-8.5,5.5-13.4,6.2c-6.7,1-17.2-1.3-20,2.3c-0.6,0.8,1.2,2.3,0.5,3c-2.4,2.5-6.9-0.9-10.3-1.3
	c-1.3-0.2-2.6-0.3-3.7-0.9c-1.4-0.7-2.5-2-3.7-3.1c-5.1-4.6-12.8-4.5-19.6-3.5c-7,1-13.9,2.8-20.6,5.2c-5,1.9-8.6,5.6-12.2,9.7
	c-3.1,3.5-7.9,5.8-9.7,10c-1.9,4.5-2.4,10.1-6.4,13.1c-1.7,1.2-3.7,1.8-5.7,2.5c-12.4,4.4-21.5,15.2-28,26.7
	c-2.9,5.1-5.4,10.9-4.2,16.6c0.1,0.4,0.2,0.9,0.6,1.2c0.6,0.5,1.6,0.1,2-0.6c0.4-0.6,0.5-1.5,0.6-2.2c0.6-4.2,3.2-8,6.8-10.1
	c2.1-1.2,4.6-1.9,7-2.3c6.7-1.2,14.3-1,19.5-5.5c1-0.9,1.9-1.9,3.2-2.3c0.5-0.2,1.1-0.2,1.6-0.4c1.4-0.6,2.8-3.1,3.8-1.9
	c2.7,3.2,6,6.2,10.2,5.9c4.2-0.3,8-3,10.2-6.5c0.5-0.8,1-1.7,1.9-2.1c0.9-0.4,1.9,0,2.8,0.3c3.6,1.3,7.2,2.7,10.8,4
	c1.6,0.6,3.2,1.2,4.3,2.5c0.9,1,1.2,2.3,1.8,3.5c2.1,4.2,6.6,6.5,10.8,8.6c1,0.5,2,1,3.1,1.1c1.2,0.1,2.4-0.2,3.5-0.5
	c5.2-1.2,10.5,0.3,15.8,0.2c4.7,0,8-3.2,12.2-5.3c4.1-2.1,8.1-4.2,12.2-6.2c5.2-2.7,10.5-5.4,15.7-8.1c2.2-1.1,4.7-1.8,6.9-3.1
	c0.5-0.3,0.9-1,1.3-0.8c1.3,0.7,0.9,3.2,2.4,3.6c0.6,0.2,1.2,0,1.9,0.1c1.2,0.2,2.3,1,3.2,1.9c9.6,9,19,18.3,29.7,25.9
	c1.6,1.1,3.3,2.2,4.7,3.6c1.5,1.3,2.8,2.8,4,4.3c2.4,2.9,4.9,5.8,7,8.9c1.3,2,2.6,4.2,4.4,5.7c1.2,1,2.5,1.7,3.8,2.4
	c4.9,2.6,9.8,5.1,14.7,7.7"/>
<path fill="none" stroke="#E1E1E1" stroke-miterlimit="10" d="M113.8,371.6c0.7-2.1,1.3-4.2,2-6.3c1-3.1,2-6.1,2.9-9.2
	c0.9-2.7,1.8-5.5,3.7-7.7c1.9-2.1,5.1-3.4,7.7-2.2c2.1,1,3.8,3.5,6.1,3.2c1-0.1,1.8-0.7,2.6-1.2c4.6-3.4,8.7-7.4,13.4-10.5
	c4.9-3.2,10.8-8.4,16.2-6.3c2.4,1,4.8,6.4,6.4,4.3c0.4-0.6,0.2-1.4,0.9-1.6c0.7-0.1,1.4,0.2,2,0.5c4.7,2.8,7.3,7.9,10.6,12.2
	c3.4,4.3,8.8,8,13.9,6.2c0.9-0.3,1.8-0.8,2.8-0.8c0.8,0,1.6,0.4,2.3,0.8c5.7,3.2,11.1,6.8,17.2,8.9c6.1,2.1,13.3,2.4,18.8-1.1
	c1.4-0.9,2.8-2.1,4.4-2.6c1.4-0.4,2.8-0.3,4.1-0.9c0.7-0.3,1.3-0.8,2-0.9c1.5-0.2,2.6,1.2,3.9,2c2.3,1.5,5.4,1.1,7.8-0.2
	c2.4-1.3,3.3-4.9,5.9-5.6c1.7-0.4,3.5-0.3,4.3-1.8c0.8-1.5-1-3.4-0.3-4.9c1.4-2.7,6.7,0.5,8.2,3.1c0.4,0.6,0.6,1.4,1.1,1.9
	c0.5,0.5,1.2,0.6,1.6,1.2c0.3,0.6,0.2,1.3,0.3,1.9c0.3,1.9,2.4,2.9,4.3,2.9c1.9-0.1,3.7-0.8,5.6-1.1c0.4-0.1,0.8-0.1,1.2,0.1
	c0.9,0.4,1,1.7,1.6,2.5c1.2,1.6,4.2,1.2,4.9,3c0.2,0.5,0.1,1,0.3,1.5c0.4,1,1.5,1.4,2.5,1.8c2.7,1.1,5.2,2.9,6.9,5.3
	c0.4,0.6,0.1,1.8-0.4,1.4"/>
<path fill="none" stroke="#E1E1E1" stroke-miterlimit="10" d="M137.9,370.9c-1.6-3.2-0.6-7.5,2.2-9.7c0.3-0.2,0.5-0.4,0.9-0.5
	c0.4-0.1,0.8-0.1,1.2-0.1c3.2-0.2,5.4-3.3,7.8-5.4c0.2-0.2,0.4-0.4,0.7-0.3c0.2,0,0.4,0.2,0.6,0.3c1.7,1.7,3.3,3.6,5.4,4.8
	s4.4,0.2,6.7-0.4c1.7-0.4,1.9,2.8,2.7,4.3c1.6,3.2,5.8,3.9,8.5,6.2"/>
<path fill="none" stroke="#E1E1E1" stroke-miterlimit="10" d="M83.8,372.5c2.3-1.5,3.3-4.3,4-6.9c5.6-19.1,8.4-39,8.2-58.9
	c0-2.8,0-6,1.8-8.1c1.3-1.6,3.4-2.3,5.3-3.2c7.4-3.2,14-8.4,18.9-14.8c1.7-2.2,3.9-4.9,6.6-4.3c0.5,0.1,1,0.3,1.5,0.3
	c1-0.1,1.6-1.1,2.1-2c2.3-4.7,4.7-9.6,8.6-13.1c3.9-3.6,9.3-2.4,13.5-5.5c2.8-2.1,3.4-4.5,6.2-6.6c11.7-9.2,26.6-14.1,36.9-24.9
	c0.9-0.9,1.8-1.9,3-2.2c0.8-0.2,1.6-0.1,2.4,0c4.6,0.7,10.4-1.2,13.7,2.1c3.2,3.1,2.7,9.6,6.8,11.3c2.6,1.1,5,2.4,7.3,4
	c5.2,3.5,11.8,4.6,17.9,3c8.7-2.3,15.1-9.5,21-16.4c3.3-3.9,8.9-6.7,9.9-11.7c1-5,1.5-10.1,5-13.9c3.5-3.8,7.7-7.2,9.4-12.1
	c2.8-8.5,3.6-17.8,2.1-26.7c-0.6-3.6,0.1-7.4-1.3-10.7c-1.4-3.4-5.3-5.2-6.4-8.8c-1.2-4-1-8.7-3.9-11.5c-0.7-0.6-1.5-1.1-2.2-1.7
	c-3.8-3.1-5.2-8.2-6-13c-0.1-0.8-0.3-1.7-0.8-2.4c-1.3-1.9-4.1-1.6-6.1-2.8c-2.6-1.5-2.8-5-4.1-7.8c-1.4-3-4-5.2-6.2-7.6
	c-2.2-2.4-2.9-5.6-3.4-8.9c-0.4-2.6-2.3-4.7-2.9-7.3c-0.4-1.5-0.6-3-1.4-4.3c-0.8-1.3-2.4-1.4-3.8-1.8c-2.2-0.6-0.5-4.7-2.3-6.2
	c-1.5-1.3-4.8,1.4-5.9-0.3c-0.8-1.2,0.4-2.8,0.5-4.2c0.2-1.4,0.2-3.2,0.2-4.6c-0.1-2.1-1.3-4-2.5-5.7c-2.2-3.1-4.6-6.1-7.2-9
	c-6.1-6.8-13.3-13-16.4-21.5c-0.7-1.8-1.1-3.8-0.5-5.6c0.6-1.6,1.9-2.8,3.2-3.9c2-1.7,3.9-3.4,6.2-4.6c2.7-1.4,6.2-2.8,6.4-5.8
	c0.2-2.3-1.9-4.3-4.2-4.8s-4.6,0-6.9,0.4S213.7-2,211.6-3c-0.3-0.1-0.5-0.3-0.7-0.5c-0.4-0.5-0.4-1.2-0.4-1.8c0-1.8,0-3.6,0-5.4"/>
<path fill="none" stroke="#E1E1E1" stroke-miterlimit="10" d="M165-12.4c1.2,6.5,5.8,12.3,11.9,15.1c2.4,1.1,5.1,1.7,7.5,2.9
	c6.1,2.9,10.2,9.1,12.8,15.4c1,2.5,1.9,5.1,3.6,7.2c2.2,2.6,5.6,4,8.2,6.2c2.1,1.8,3.7,4,5.5,6.1c4.6,5.4,10.3,9.8,16.7,12.8
	c0.7,0.3,1.4,0.6,1.9,1.2c1,1.1,1,2.8,1.3,4.3c0.5,3.3,2.4,6.2,3.9,9.2c1.6,3.3,2.8,6.8,3.7,10.3c1,4,1.6,8,2.1,12.1
	c0.4,3.5,0.6,7.6-1.9,10c-2.2,2-5.6,2.2-7.7,4.4c-2.9,3.1-1.2,8,0.5,11.9c1,2.2,2.8,4.3,3.1,6.7c0.5,3.4,2.5,6.5,4.8,9
	c2.2,2.2,4.4,4.5,7.3,5.6c2.9,1.2,6.5,1,8.7-1.2c0.7-0.7,1.3-1.7,2.3-2c0.7-0.2,1.5-0.1,2.2,0.1c3.7,1,6.9,3.3,10,5.6
	c1.8,1.3,3.6,2.6,4.8,4.4c1,1.5,1.6,3.2,2.2,4.9c2.5,7.2,5,14.8,3.2,22.2c-0.7,2.8-2.1,5.6-4.3,7.4c-1.9,1.5-4.2,2.3-6.5,3
	c-2.2,0.6-4.5,1.1-6.8,1.2c-8.3,0.3-15.9-4.9-24.2-5.7c-3.1-0.3-6.9,0.5-7.9,3.4c-1.2,3.4,4.9,9.5,1.5,10.7
	c-2.2,0.8-4.4-1.4-6.6-0.6c-2.2,0.8-3.9,2.4-5.7,3.9c-7.1,6.4-14.2,13.4-23.3,16.3c-2.8,0.9-5.9,1.4-8.5,2.9
	c-5.5,3.2-8,10.4-13.7,13.3c-2.7,1.4-5.8,1.7-8.3,3.4c-1.2,0.8-2.1,2-3.2,3c-3.2,3.1-8,3.5-11.9,5.7c-3.8,2.1-7.7,5.3-11.5,7.5
	s-7.6,5.1-8.7,9.3c-0.3,1-0.3,2-0.9,2.9c-0.5,0.8-1.2,1.3-1.9,1.9c-2.4,2.2-1.7,6-3.3,8.8c-2.1,3.6-8.6,0.4-11.9,2.8
	c-0.9,0.7-1.6,1.5-2.3,2.4c-3.3,3.7-7.4,6.6-12,8.4c-6,2.4-12.6,2.8-19.1,3.3c-0.5,0-1,0.1-1.3,0.4c-1.3,1.3,1.2,3.5,0.1,4.9
	c-2.3,2.8-4.1,7.5-2.2,10.5c2.3,3.8,5.2,7,5.6,11.5c0.3,3.1,0.6,6.3,0,9.4c-0.4,2.2-1.3,4.3-2.1,6.4c-2.9,7.6-4.8,15.6-5.8,23.7
	c-0.4,3.2-0.7,6.6-2.6,9.2c-3.8,5-12.6,5.3-14.4,11.3"/>
<path fill="none" stroke="#E1E1E1" stroke-miterlimit="10" d="M-1.5,372.4c1-3.4,3-6.5,5.7-8.8c1.8-1.5,4.6-2.7,6.3-1
	c0.5,0.5,1,1.3,1.7,1.2c0.7-0.1,1.1-0.9,1.4-1.6c0.5-1.1,1.2-2,2.2-2.7c0.9-0.6,1.9-1,2.7-1.8c0.7-0.7,1.1-1.6,1.4-2.4
	c1.7-3.8,3.4-7.6,5-11.4c0.6-1.4,1.2-2.8,2.1-4.1c1.2-1.9,2.8-3.5,4.3-5.1c3.4-3.5,6.8-7,11.1-9.3c1.4-0.8,2.9-1.4,4.2-2.3
	c2-1.5,3.4-3.7,5.4-5.2c2-1.5,4.4,0.3,6.8-0.1c2.7-0.4,3.2-4.6,5.8-5.5c0.8-0.3,1.7-0.5,2.4-1c0.5-0.4,0.9-0.9,1.3-1.4
	c3.8-5.3,5-12.1,6-18.6c0.5-3.2,1-6.5,1.5-9.7c0.8-5,1.5-10,0.7-15c-0.4-2.3-0.3-5.2-2.2-6.6c-3.4-2.6-7.8-4.7-8.8-8.8
	c-0.6-2.4-0.4-5.1-2-7c-0.6-0.7-1.4-1.3-1.8-2.1c-0.3-0.7-0.4-1.4-0.8-2.1c-0.6-1.1-1.9-1.5-3-2.2c-1-0.7-0.4-2.1-1-3.1
	c-1-1.4-3.4-0.8-4.1-2.4c-0.7-1.6-0.8-3.3-1.3-5c-0.6-2.2-2-4.2-1.9-6.5c0.1-2.1,1.6-4,3.6-4.7c2-0.7,4.3-0.2,5.9,1.2
	c2.6,2.3,3.8,6.7,7.2,7.1c1.1,0.1,2.2-0.2,3.2-0.1c1.3,0.1,2.4,0.9,3.5,1.7c3,2.1,6.2,4.4,7.7,7.8c0.7,1.6,1,3.5,2.1,4.9
	c1.4,1.8,3.8,2.5,5.4,4.1c0.9,0.9,1.4,2,2,3.1c2,3.7,5.5,8,3.8,11.8c-0.8,1.8-3.5,1.7-5.4,2.1c-1.9,0.4-5.3,1.3-4.7,3.1
	c0.8,2.5,5.3,0.6,7.6,1.8c1,0.5,1.9,1.4,2.8,2.1c2.1,1.8,5.4,1.8,7.4,3.7c0.5,0.5,0,1.6,0.6,2c0.5,0.3,1.2,0.2,1.7,0
	c1-0.5,1.3-1.7,2-2.5c2.1-2.6,5.6-3.9,8.4-5.5c5.5-3.2,10.3-7.5,14-12.5c1.1-1.5,2.2-3.4,1.6-5.2c-0.5-1.4-2-2.3-2.8-3.6
	c-0.4-0.7-0.6-1.5-1-2.2c-2.2-3.8-8.6-3-10.8-6.7c-0.8-1.4-1-3.3-2.4-4.1c-0.7-0.4-1.6-0.4-2.1-1c-0.3-0.4-0.4-0.9-0.4-1.4
	c-0.6-5.7-1.3-11.4-1.9-17.1c-0.4-3.1-0.7-6.2-1.1-9.2c-0.1-0.9-0.2-1.7-0.3-2.6c-0.3-2.5-0.6-5.1-1.2-7.6c-0.4-1.6-1-3.2-1.5-4.8
	c-1-2.7-2.1-5.5-4.3-7.4c-1.1-0.9-2.4-1.6-3.6-2.4c-3-2.1-5-5.3-7-8.4c-1.2-1.9-0.3-3.9-0.6-6.1c-0.2-2-1.4-3.7-3-5
	c-1.2-1-3.3,1.7-4.7,0.9c-0.8-0.5,0.4-2.2-0.3-2.9c-0.8-0.8-2.2,0.2-3.3-0.2c-1-0.4-1.4-1.5-1.7-2.5c-0.6-2.3-1.4-4.2-2.2-6.5
	c-0.3-1-2-0.2-2.9-0.7c-1.1-0.7,0.6-2.7-0.1-3.8c-1.7-2.8-5.7-4-5.3-7.2c0.2-1.4,3.9-5.6,3.1-6.8c-1.3-1.8-2.6-4.3-3.3-8
	c-0.3-1.9-4.6-2.2-4.2-4.1s2-3.2,3.3-4.6c1.3-1.4,2.4-3.4,1.5-5.1c-1.1-2.2-4.3-2-6.7-2.5c-4.5-1-9.2-7.9-5.7-10.8
	c3.5-3,9.3-0.5,13.6,1.2c2,0.8,4.4,1.9,6.2,0.7c0.9-0.6,1.4-1.6,2.1-2.4c2.4-2.9,6.9-3.3,10.2-1.5c3.3,1.8,4.6,5.5,6.4,8.8
	c1.7,3.2,4.8,5.5,7.2,8.2c1.5,1.7,3.1,3.5,5.3,4.2c4.9,1.6,9.4-3,14.1-5.2c13.7-6.3,18.4,0.9,21.1-2.1c1-1.1-1.2-2.8-0.9-4.2
	c0.4-1.9,3.9-1,4.9-2.6c2.1-3.5,0.3-8.3,3.5-10.9c3.2-2.6,7.2-3.9,10.8-6c3.6-2.1,6.4-5.3,9.9-7.4c33.1-19.6,39-10.3,40.8-15.3
	c1.1-3-10.6-5.3-16.3-19.7c-1.6-4-3.7-7.7-6.2-11.2c-3.3-4.6-7.7-8.1-12.3-11.4c-8.7-6.2-17.9-11.6-27.5-16.2
	c-2.8-1.3-5.7-2.6-8.4-4.1c-3.9-2.2-7.5-4.9-10.7-8.1"/>
<path fill="none" stroke="#E1E1E1" stroke-miterlimit="10" d="M138.9,209.6c1.6,1.8,3.2,3.7,4.1,6c1,2.5,1,5.2,1,7.9
	c0,1.2,0,2.5-0.8,3.4c-0.4,0.6-1.1,0.9-1.8,1.1c-2.5,0.9-5.5,0.3-7.6-1.5c-1.6-1.5-2.7-3.7-4.6-4.7c-0.7-0.4-1.6-0.6-2.2-1.1
	c-1.1-0.8-1.4-2.3-1.9-3.6c-0.5-1.3-1.7-1.9-2.9-2.5c-2.3-1-2.3-4.6-2.1-7.1c0-0.4,0.1-0.8,0.3-1.1c0.8-1.2,2.6,0,4-0.1
	c1.1,0,2-0.8,3-1.1c1.7-0.6,3.6-0.1,5.3,0.4c1.3,0.4,2.7,0.8,3.8,1.6C137.4,208,138.2,208.8,138.9,209.6z"/>
<path fill="none" stroke="#E1E1E1" stroke-miterlimit="10" d="M-9.4,256.9c1.8,1.3,3.6,2.7,5.4,4c0.8,0.6,1.7,1.3,2,2.2
	c0.4,0.9,0.2,2,0.5,2.9c0.7,2.3,3.4,3.3,5.7,4.1s4.9,2.5,4.7,4.9c-0.1,0.7-0.4,1.3-0.4,2c-0.1,0.8,0.2,1.6,0.5,2.4
	c0.9,2.4,2.1,4.7,3.5,6.8c1.7,2.7,3.8,5.2,5.2,8.1c0.6,1.2,1,2.4,1.3,3.7c0.4,1.9,0.3,3.8,0.6,5.7c0.8,4.7,4.3,8.8,4.7,13.5
	c0.2,2.3-0.2,4.6-0.7,6.8c-0.9,4.5-1.9,9.1-3.9,13.2c-1.3,2.7-1.8,7.3-4.8,7.7c-2.1,0.3-3.9-1.7-5.8-0.9c-0.8,0.3-1.4,0.8-2.2,1.1
	c-1.1,0.3-2.3,0.2-3.4,0.1c-6.2-0.1-12,4.7-18.1,3.5"/>
<path fill="none" stroke="#E1E1E1" stroke-miterlimit="10" d="M-10.5,219.9c1.8-0.7,3.6-1.3,5.5-2c0.8-0.3,1.6-0.6,2-1.2
	c0.4-0.6,0.5-1.4,1.1-1.9c0.8-0.6,2.1-0.2,3-0.6c0.5-0.2,0.8-0.7,1.1-1.1c0.9-1.4,1.8-2.8,2.8-4.2c0.4-0.6,0.8-1.3,1-2
	c0.1-0.7-0.2-1.6-0.8-1.9c-0.5-0.2-1.1-0.2-1.4-0.6c-0.2-0.3-0.2-0.6-0.2-0.9c-0.2-1.4-1.2-2.7-2.5-3.3c-0.8-0.3-1.6-0.4-2.3-0.9
	c-0.4-0.3-0.7-0.8-1-1.2c-2.2-3.4-6.4-4.9-10.2-6.1"/>
<path fill="none" stroke="#E1E1E1" stroke-miterlimit="10" d="M-12.2,232.5c7.3-1.9,14.6-3.8,21.9-5.8c1-0.3,2-0.5,2.9-1
	c0.9-0.5,1.7-1.3,2.5-2c3.4-3,7.7-4.7,11.9-6.3c2.4-0.9,4.9-1.9,7.5-1.5c0.9,0.1,1.8,0.4,2.7,0.3c2-0.3,3.3-2.3,4.8-3.6
	c1.8-1.5,4.9,0.2,6.7-1.3c1.6-1.3,1.9-3.5,3.8-4.1c2-0.6,4.2-0.8,5.5-2.4c0.6-0.7,1-1.5,1.7-2c0.8-0.4,1.7-0.3,2.5-0.7
	c1.7-0.9,1.6-3.3,2.6-4.9c1-1.5,3.1-1.9,4.9-2.2c4.2-0.7,8.5-1.4,12.7-2.1c0.6-0.1,1.2-0.2,1.7,0.1c0.5,0.3,0.7,1,1.1,1.3
	c1,0.8,2.5-0.3,2.9-1.6s0.3-2.6,1-3.7c0.5-0.7,1.2-1.1,1.5-1.9c0.5-1.3-0.6-2.6-1.2-3.9c-0.9-1.6-1.1-3.4-1.6-5.2
	c-2.2-8.6-10.7-12.1-17.3-18c-4.7-4.2-5.5-11-8.1-16.7c-0.4-0.9-0.8-1.7-1.2-2.6c-1.2-2.7-2.2-8.1-2-8.7c0.4-1.6-0.3-4-0.9-5
	c-2-3.7-4.1-7.3-6.1-11c-1.2-2.1-2.4-4.4-2.4-6.8c0-1,0.3-2.1,0.1-3.1c-0.4-2.1-2.7-3.3-3.8-5.1c-0.7-1.2-0.9-2.6-1.2-3.9
	c-0.9-3.9-3-7.4-5.1-10.9c-2.6-4.3-6.4-9.3-11.3-8.4c-0.9,0.1-1.7,0.5-2.6,0.3c-1.3-0.2-2.2-1.4-3.3-2c-2.9-1.8-6.7-0.1-9.8,1.4
	c-4.4,2-9.2,3.5-14,4.3c-1.5,0.2-3.2,0.4-4.2-0.7C-6,80.3-6,79-5.9,77.9c0.5-6.2,8.1-9.5,8.9-15.7c0.6-4.2-0.3-8.5,3.4-10.7
	s8.1-2.3,12.2-3.4c2.2-0.6,4.3-1.5,6.6-1.2c2.2,0.3,2.5,2.7,3.9,4.5c2.8,3.5,8.9-0.7,13.3-1.6c10.7-2.2,21-6.5,31.8-8.3
	c17.6-2.9,35.6,1.1,53,5c3.1,0.7,4.9,3.1,7.5,4.8c2.8,1.9,6.8,0.8,10.2,0.2c3.4-0.6,8.2-5.7,5.1-7.1c-2.4-1.1-3.9-3-4.5-5.6
	c-0.9-4-1.6-10.9-5.7-10.8c-1.5,0-2.9,0-3.5-1.3c-0.6-1.4-0.6-3-1.5-4.1c-0.5-0.6-1.1-1-1.6-1.6c-1-1.4,1-3.4,0.2-5
	c-3.2-6.5-13.5-5.1-19.7-8.9c-3.1-1.9-6.2-4.1-9.7-4.9c-5.2-1.2-11.2,0.4-15.6-2.6c-0.8-0.6-1.6-1.4-1.8-2.4c-0.2-1.5,1-2.7,2.1-3.7
	c1.9-1.7,3.9-3.3,6-4.7"/>
<path fill="none" stroke="#E1E1E1" stroke-miterlimit="10" d="M-10,107.7c1.6,0.5,3.2,0.9,4.7,1.4c0.8,0.2,1.8,0.6,2.1,1.4
	c0.3,0.9-0.4,1.8-0.6,2.7c-0.5,1.9,0.9,3.7,2.1,5.2c3.7,4.7,7,10.4,6.4,16.4c-0.3,2.9-1.5,5.7-2.7,8.3c-3.2,7.1-6.3,14.1-9.6,21.1
	c-0.6,1.2-1.6,2.7-2.9,2.3"/>
<path fill="none" stroke="#E1E1E1" stroke-miterlimit="10" d="M18.3,133.7c-0.9-0.9-2.2-1.4-3.5-1.2c-0.6,0.1-1.2,0.3-1.6,0.7
	c-0.5,0.6-0.6,1.5-0.6,2.2c-0.1,2.1-0.1,4.1-0.2,6.2c-0.1,2.8,0,5.6,2.4,7c1.3,0.7,2.3,0.6,3.7,0c2-0.9,4-1.8,5.5-3.2
	s2.6-3.6,2.2-5.8c-0.3-1.8-1.8-3.3-3.6-3.8c-1-0.2-2.1-0.2-2.9-0.7C19.2,134.8,18.8,134.2,18.3,133.7z"/>
<path fill="none" stroke="#D6D6D6" stroke-miterlimit="10" d="M209.3,184.4c0.5-0.7,1.4-1,2.2-0.8c0.3,0.1,0.5,0.1,0.7,0.2
	c1.6,0.6,3.1,1.4,4.8,1.5c1.3,0,2.5-0.4,3.7-0.9c1.2-0.4,2.4-0.9,3.7-1.3"/>
<path fill="none" stroke="#D6D6D6" stroke-miterlimit="10" d="M201,167.6c2.3-0.9,4.9-2,7.2-2.8c1.2-0.5,2.4-1,3.2-2
	c0.3-0.4,1.8-1.6,2.1-1.9c1.3-1.4,3.3,0.8,4.9-0.4c1.5-1.1,1.9-2.1,3.7-1.7c1.8,0.5,3.4,1.7,5.2,2c0.8,0.1,1.7,0.1,2.5,0.5
	c0.9,0.4,1.4,1.3,2.1,2c0.7,0.7,2.3,1.4,3.2,1.1"/>
<path fill="none" stroke="#D6D6D6" stroke-miterlimit="10" d="M205.7,176.4c2.8-0.7,5.7-1.3,8.6-1.1c2.9,0.2,5.9,1.3,7.7,3.5
	c1.2,1.5,1.8,3.5,3.3,4.8c0.9,0.8,2,1.3,3.1,1.8c2.5,1.3,4.9,3,6.8,5c1,1.1,2,2.3,2.2,3.8c0.3,2.3-1.4,4.5-1.4,6.8
	c0,2.1,1.5,4,3.1,5.4c0.6,0.5,1.2,1,1.6,1.6c1.3,1.7,1.1,4.4,2.7,5.8c0.7,0.5,1.5,0.8,2.1,1.4c1.1,1.2,0.7,3.3,0.8,5.1"/>
<path fill="none" stroke="#D6D6D6" stroke-miterlimit="10" d="M164.1-10.6c-0.3,3.9-3.9,6.5-7,8.8c-4.4,3.2-8.7,6.6-12.8,10.2
	c-1.7,1.5-3.4,3.1-4.3,5.3c-0.3,0.6-0.4,1.3-0.8,1.9c-1.2,1.8-3.9,1.7-6.1,1.7c-0.4,0-0.9,0-1.2,0.2c-0.8,0.4-1.2,1.4-1.6,2.2
	c-1.1,2.5-3.3,4.6-5.9,5.2c-1.6,0.3-3.2,0.1-4.7,0.2c-2.9,0.1-5.8,1.3-8,3.3c-0.3,0.3-0.3,1.1,0.1,0.9"/>
<path fill="none" stroke="#D6D6D6" stroke-miterlimit="10" d="M285.1,39.4c-1.2-0.4-1.8,0.1-2.7,1.1c-0.9,1-1.4,2.1-2.4,3
	c-0.9,0.9-2.8,1.3-4,1.8c-4.5,1.7-9.4,2.6-12.8,6c-2.2,2.2-3.7,5.3-6.6,6.3c-0.9,0.3-1.9,0.4-2.6,0.9c-0.7,0.4-1.2,1.1-1.7,1.8
	c-5.3,7.2-13.8,11.9-22.7,12.6c-0.7,0.1-1.5,0.1-2.2-0.1c-1.3-0.3-2.5-1.1-3.5-1.9c-1.5-1.1-3.1-2.2-4.6-3.4
	c-0.6-0.4-1.2-0.9-1.7-1.5c-1.3-1.7-0.9-4.4-2.4-6c-0.7-0.8-1.7-1.2-2.7-1.6c-3.5-1.3-7.2-2.7-10.9-2.6c-0.9,0-1.8,0.1-2.7-0.2
	c-0.6-0.3-1-0.7-1.6-1c-1.3-0.6-2.9,0-4.4,0c-2.5,0-4.6-1.6-6.7-2.9c-2.1-1.3-4.6-1.4-7-1c-2.9,0.5-6.3-1.4-9.3-2
	c-0.7-0.1-1.4-0.3-1.9-0.8c-0.3-0.3-0.5-0.7-0.6-1.1c-0.6-1.4-1.1-2.9-1.7-4.3c-0.7-1.9-1.7-4-3.7-4.5c-0.8-0.2-1.6-0.1-2.4,0
	c-6,1.2-10.5,6.1-14.4,10.8c-0.4,0.5-0.9,1-1.5,0.9c-0.4,0-0.7-0.3-0.9-0.6c-1.4-1.2-3.1-2-4.9-2.3"/>
<path fill="#7BBCEB" stroke="#4E9BD7" stroke-miterlimit="10" d="M173.4,208.2c0.5,1.7,2,3.1,3.7,3.6c1.1,0.3,2.3,0.2,3.1,0.9
	c0.3,0.2,0.5,0.6,0.9,0.7c0.5,0.1,0.9-0.1,1.3-0.4c3.2-2.2,6.4-4.4,9.5-6.8c0.6-0.5,1.3-1,2-1.2c0.8-0.2,1.8-0.1,2.6-0.3
	c0.8-0.1,1.6-0.5,2.4-0.8c2.4-1.1,4.8-2.2,7.3-3.3c0.4-0.2,0.9-0.4,1.2-0.7c0.7-0.8,0.4-2,0.5-3.1c0-1.1,1.2-1.2,1.8-2
	c1.6-2.2-1.6-0.6-0.2-7.9c0.3-1.7-0.8-3.3-1.6-4.9c-2.7-5.6-5.5-11.2-8.3-16.7c-1.2-2.3-2.5-4.7-4.7-6c-1.6-0.9-3.4-1.2-5.2-1.7
	c-6.3-1.5-12.1-4.9-18.2-7.1c-6.1-2.3-13.1-3.4-19-0.6c-0.5,0.2-1,0.5-1.3,0.9c-0.9,1.2,0.1,3.1,1.5,3.7c1.4,0.7,3.4-0.2,4.5,0.8
	c1.7,1.7,0.3,4.7-0.5,6.9c-0.2,0.4-0.4,0.9-0.7,1.2c-0.5,0.3-1.1,0.3-1.6,0.3c-1.8,0.2-3.4,1.5-3.9,3.2s0.1,3.7,1.4,4.9
	c0.5,0.5,1.2,0.8,1.8,1.1c3.3,2.1,5.4,5.6,7.4,9c0.6,1,1.1,1.9,1.7,2.9c3.6,6.3,7.2,12.6,11.2,18.7c0.4,0.6,0.8,1.2,0.9,1.9
	c0.1,0.7-0.2,1.5-0.8,1.7c-0.2,0.1-0.4,0.1-0.5,0.3C173.3,207.7,173.4,208,173.4,208.2z"/>
<path fill="#EAEAEA" stroke="#D6D6D6" stroke-miterlimit="10" d="M276.9,166.2c1.1-0.6,1-2.1,0.7-3.3c-0.8-3.1-2.4-6.1-5.1-8
	c-1.8-1.2-3.9-1.9-6.1-2c-3.2-0.3-6.4,0.5-9.5,1.3c-3.4,0.9-6.9,1.8-10,3.5c-2.4,1.3-4.6,2.9-7.2,3.9c-1.3,0.5-2.7,0.8-3.8,1.6
	c-1.1,0.8-1.8,2.4-1.1,3.6c0.4,0.8,1.3,1.1,2.2,1.4c2.8,0.8,6,0.3,8.5-1.2c0.3-0.2,0.7-0.4,1.1-0.3c0.2,0.1,0.3,0.2,0.5,0.3
	c2.3,2.1,4.4,4.6,7.3,5.8c2.8,1.2,6.1,2.1,8.9,0.9c1.4-0.6,2.2-2.1,3.3-3.1c0.9-0.8,1.9-1.7,3.1-1.9c1-0.1,1.9,0.2,2.9,0.3
	c1,0.1,2.1-0.1,2.6-0.9c0.3-0.5,0.3-1.1,0.7-1.4C276.2,166.4,276.6,166.4,276.9,166.2z"/>
<path fill="#EAEAEA" stroke="#D6D6D6" stroke-miterlimit="10" d="M234.1,226.3c0.3-0.3,0.8-0.5,1.3-0.5c1.4-0.2,3,0,4-0.9
	c0.5-0.4,0.9-1.1,1.6-1.3c0.3-0.1,0.7-0.1,1-0.1c1-0.2,1.7-1.2,2.4-2c0.7-0.8,1.7-1.6,2.7-1.2c0.7,0.3,1,1.1,1.2,1.8
	c0.2,0.8,0.3,1.6,0.1,2.4c-0.2,0.8-1.2,1.1-1.4,1.8c-0.2,0.6,0.6,1.1,0.8,1.6c0.3,0.5,0.6,1.1,0.5,1.7c-0.1,0.6-0.7,1.1-1.3,1.3
	s-1.3,0.2-1.9,0.2c-1.8,0-3.6-0.1-5.4-0.1c-1.5,0-3-0.1-4.3-0.9c-0.7-0.4-1.2-1.1-1.5-1.8C233.7,227.7,233.6,226.8,234.1,226.3z"/>
<path fill="#EAEAEA" stroke="#D6D6D6" stroke-miterlimit="10" d="M359.9,241.8c0.1,0.1,0.4,0,0.6-0.1c1.3-0.9,1-3.1,0.4-4.5
	c-0.5-1.4-1.6-2.5-1.7-4c-0.1-1.2,0.4-2.3,0.4-3.5c0-0.6-0.2-1.3-0.4-1.9c-0.5-1.9-0.1-4.4-1.6-5.6c-0.7-0.5-1.5,0.9-1.5,1.7
	c0,0.8,0.3,1.6,0.6,2.5c0.5,1.7,0.4,3.6,0.3,5.4c0,0.4,0,0.7-0.2,1.1c-0.3,0.6-0.6,1.2-1.1,1.8c-0.2,0.2-0.7-0.1-1,0
	c-0.7,0.4,0,1.6,0.5,2.2c0.6,0.6,1.3,1.1,1.6,1.9c0.1,0.3,0.1,0.6,0.3,0.8C357.7,240.7,358.9,241,359.9,241.8z"/>
<path fill="#EAEAEA" stroke="#D6D6D6" stroke-miterlimit="10" d="M362.7,255.7c-1.2,0-2.3,0-3.5,0c-0.2,0-0.4,0-0.6-0.1
	c-0.4-0.2-0.5-0.7-0.5-1.2c-0.1-2.1-0.3-4.3-0.4-6.4c0-0.2,0-0.4,0.1-0.5c0.2-0.5,1-0.4,1.4-0.8c0.2-0.2,0.2-0.5,0.3-0.7
	c0.3-0.7,1.4-1.1,1.9-0.6c1.1,1.2,1.2,3,1.4,4.6c0.2,1.2,0.2,2.4,0.7,3.4c0.3,0.7,0.8,1.5,0.3,2
	C363.5,255.7,363.1,255.7,362.7,255.7z"/>
<path fill="none" stroke="#4E9BD7" stroke-miterlimit="10" d="M-8.6,24.9c4.4-1.1,9-2.4,12.1-5.7c0.9-0.9,1.7-2.1,2.9-2.4
	c0.8-0.2,1.6-0.1,2.4-0.3c1.1-0.3,1.9-1.2,2.9-1.9c1-0.6,2.4-0.9,3.2,0c0.2,0.3,0.3,0.6,0.6,0.9c1,1.1,2.7-0.1,4.1-0.2
	c1.9-0.2,3.5,1.6,5.4,1.7c0.7,0,1.4-0.2,2,0.1c1,0.5,1.5,1.9,1.1,2.8c-0.2,0.3-0.7,0.4-0.9,0.7c-0.6,1,1.1,2.2,2.2,1.9
	c1.1-0.3,1.8-1.6,1.7-2.7s-0.9-2.1-1.1-3.3c-0.1-0.7,1.2-0.9,1.9-0.6c0.7,0.3,1.1,1,1.7,1.4c0.9,0.7,2.3,1.2,3.2,0.5
	c0.9-0.8,2.2-1.1,3-0.2c0.8,0.9-0.6,2.3,0.1,3.3c0.9,1.2,3.3-2.1,4.2-1c0.3,0.3,0.3,0.9,0.7,1c0.5,0.1,0.9,0,1.4,0
	c1.6,0,4,2,2.9,3.2c-0.9,1-4.1,1.7-2.8,2.2c1.8,0.8,3.9-0.7,5.6,0.3c0.8,0.5-1.5,1.4-1.5,2.4c0,1,1.8-0.1,2.6-0.7
	c0.8-0.6,1.7-0.2,2.6-0.4c0.7-0.2,0.4-1.4,0.9-1.9c0.7-0.7,1.4,1.4,2.4,1.4c0.3,0,0.6-0.3,0.9-0.4c1.1-0.7,2.9-0.1,3.3,1.2
	c0.1,0.3,0.2,0.7,0.5,0.8c0.4,0.2,0.9-0.2,1.1-0.6c0.4-0.8-0.4-2,0.3-2.5c0.9-0.7,2.4,1.4,3.4,0.8c1.2-0.8-0.2-3.2,0.8-4.2
	c1.3-1.3,2,1.9,3.4,3.1c1.8,1.7,5-0.6,7-2.1c1-0.7,1.9-1.6,3-2.1c1.8-0.8,3.8-0.4,5.6,0.3c1.8,0.7,3.5,1.7,5.3,2.2
	c1.5,0.4,3.3,0.6,4.3,1.8c0.4,0.5,0.6,1.1,1,1.6c0.7,0.9,1.9,1.3,3,1.6c2.4,0.7,4.8,1.5,7.3,1.1c1.3-0.2,2.6-0.8,4-0.7
	c2.8,0.2,5.1,3.1,8,2.7c0.6-0.1,1.2-0.2,1.6,0.2c0.2,0.2,0.2,0.5,0.3,0.8c0.7,2.7,2.6,4.8,4.4,6.8c1.8,2,5.4,0.6,8.1,0.9
	c2.1,0.2,2.8,3.4,2.5,5.5c-0.4,2.4-2.3,4.3-3.5,6.5c-0.8,1.5-1.2,3.1-1.3,4.8c0,1.1,0.1,2.2-0.2,3.3c-0.5,2.1-2.3,3.6-2.9,5.7
	c-1.2,3.7,1.9,7.8,0.8,11.6c-0.3,1-0.8,1.8-1,2.8c-0.3,1.7,0.6,3.5,1.7,4.9s2.2,2.8,2.8,4.5c2.2,6-1.5,10.6,0.5,12
	c1,0.7,2.2,0.7,3.4,0.8c0.8,0.1,2.6-0.1,3.2,0.3s1.1,1.5,0.7,2.2c-1.2,2.2,0.1,4.8,0.6,7.2c0.2,1,0.2,2,0.4,3
	c0.6,2.5,2.7,4.4,3.1,6.8c0.6,3.3-2,6.4-2.4,9.8"/>
<path fill="none" stroke="#4E9BD7" stroke-miterlimit="10" d="M146.5,141.6c1.1,0.4,2.4,1.5,3,2c0.7,0.6,1.7,1.2,1.7,2.2
	c0,0.6-0.2,1.1-0.3,1.7c-0.1,0.9,0.3,1.8,1,2.4"/>
<path fill="none" stroke="#4E9BD7" stroke-miterlimit="10" d="M142.1,105.5c0.8,0.3,1.3,0.6,1.6,1.5c0.1,0.3,0.1,0.6,0.3,0.9
	c0.1,0.2,0.3,0.5,0.3,0.7c0,0.1-0.1,0.2-0.2,0.3c-0.6,0.6-1.1,1.2-1.7,1.8"/>
<path fill="none" stroke="#4E9BD7" stroke-miterlimit="10" d="M130.1,71.7c-0.6,0.7-1.3,1.5-1.7,2.3c-0.3,0.7-0.4,1.5-0.1,2.2
	c0.2,0.6,0.4,1.2,0.7,1.8c0.3,0.6,0.5,1.2,0.9,1.7"/>
<path fill="#EAEAEA" stroke="#4E9BD7" stroke-miterlimit="10" d="M144.3,143.4c0.4-0.3,0.8-0.6,1.3-1c0.5-0.4,1-0.8,1.3-1.3
	c0.5-0.8,0.4-1.9,0.1-2.8c-0.3-0.9-0.7-1.8-0.8-2.8c-0.1-1,0-2.3-0.7-3c-0.5-0.5-1.4-0.6-2.1-0.5c-0.7,0.2-1.4,0.5-2.1,0.7
	c-1,0.3-2.2,0.5-3,1.3c-0.4,0.4-0.6,1-0.8,1.6c-0.2,0.6-0.4,1.1-0.6,1.7c-0.5,1.4-1,2.8-1.1,4.2c-0.1,0.8-0.1,1.7,0.3,2.4
	c0.4,0.7,1.1,1.3,1.9,1.2c0.9-0.1,1.6-1,2.6-1.1c0.6,0,1.1,0.2,1.6,0.3C143,144.4,143.6,143.9,144.3,143.4z"/>
<path fill="none" stroke="#D6D6D6" stroke-miterlimit="10" d="M298.2,30.8c0.2-0.3,1.1-1.3,1.3-1.6c1.1-0.9,1.9-2.2,3.3-2.8"/>
<path fill="#EAEAEA" stroke="#D6D6D6" stroke-miterlimit="10" d="M303.2,31.6c-0.7-0.9-0.8-2.3-0.1-3.2c0.1-0.2,0.3-0.4,0.4-0.6
	c0.1-0.6-0.7-1-1-1.6c-0.6-1.1,1.1-2.2,1.3-3.4c0.1-0.3,0-0.7,0.2-1c0.2-0.5,0.9-0.7,1.4-0.9c1.7-0.4,3.4-0.8,5.2-1.2
	c0.4-0.1,0.9-0.1,1.1,0.2c0.2,0.3,0.1,0.7,0.2,1c0.2,0.4,0.7,0.6,1.1,0.5c0.4-0.1,0.8-0.3,1.2-0.5c1.5-0.7,3.3-0.5,4.6,0.4
	s2.1,2.6,1.9,4.2c-0.1,0.4-0.2,0.8-0.5,1.1c-0.7,0.5-2.1-0.1-2.4,0.7c-0.4,1.1-0.8,2.2-1.6,3c-1.3,1.2-2.6,2.4-3.9,3.7
	c-0.7,0.6-1.4,1.3-2.3,1.4c-1.5,0.2-2.7-1.1-4-1.9C304.9,32.7,303.8,32.4,303.2,31.6z"/>
<path fill="#EAEAEA" stroke="#D6D6D6" stroke-miterlimit="10" d="M292.5,38.2c-1.2,0-2.6,0.1-3.2,1.1c-0.2,0.3-0.3,0.7-0.5,1
	c-0.4,0.6-1.3,0.8-2,0.9c-0.3,0.1-0.7,0.1-1-0.1c-0.2-0.2-0.3-0.4-0.3-0.7c-0.2-0.6-0.3-1.3,0.1-1.8c0.1-0.2,0.3-0.3,0.5-0.5
	c1.2-0.8,2.3-1.5,3.5-2.3c0.6-0.4,1.3-0.8,2-1.2c0.9-0.4,1.9-0.2,2.8-0.6c0.7-0.4,0.9-1.4,1.3-2.1c0.3-0.5,0.6-1,1.1-1.3
	s1.3-0.3,1.6,0.2c0.5,0.8,0.1,1.9-0.4,2.8c-0.5,0.8-1.1,1.6-1.3,2.6c0,0.1-0.1,0.2-0.1,0.3c-0.1,0.1-0.3,0.1-0.5,0.1
	c-0.7-0.1-1.6-0.1-2,0.4c-0.2,0.2-0.3,0.5-0.5,0.7C293.2,38.2,292.9,38.2,292.5,38.2z"/>
<path fill="#EAEAEA" stroke="#D6D6D6" stroke-miterlimit="10" d="M209.7,127.3c-0.7-1.2-1.4-2.4-2.2-3.5c-0.3-0.5-0.7-1.1-1.2-1.5
	c-0.5-0.4-1.2-0.6-1.8-0.5c-0.9,0.3-1.3,1.3-1.5,2.1c-0.2,0.9-0.4,1.9-1.2,2.4c-0.4,0.3-0.9,0.4-1,0.9c-0.1,0.2-0.1,0.5,0,0.7
	c0.2,1.3,0.5,2.8,1.7,3.2c0.8,0.3,1.8-0.9,2.5-0.5c1.3,0.7,0.2,2.9,0.3,4.4c0,0.2,0,0.4,0.2,0.6c0.1,0.1,0.3,0.2,0.4,0.2
	c1.4,0.4,3,0.8,4.4,0.2c0.4-0.2,0.8-0.5,1.2-0.8c1.1-0.9,1.9-2.2,1.9-3.6c0.1-1.4-0.8-2.9-2.1-3.3c-0.4-0.1-0.9-0.2-1.2-0.5
	C209.9,127.6,209.8,127.5,209.7,127.3z"/>
<path fill="#EAEAEA" stroke="#D6D6D6" stroke-miterlimit="10" d="M179.5,124.5c-0.4,0.3-0.6,1-0.3,1.4c0.3,0.5,0.9,0.7,1.4,0.6
	c0.5-0.1,1.1-0.4,1.2-1C181.8,125.2,180.9,123.4,179.5,124.5z"/>
<path fill="#EAEAEA" stroke="#D6D6D6" stroke-miterlimit="10" d="M183,120.4c-1.9-2.5,2.8-1.7,2.4-0.2c-0.2,0.5-0.7,0.9-1.2,0.8
	C183.9,120.9,183.2,120.7,183,120.4z"/>
<path fill="#EAEAEA" stroke="#D6D6D6" stroke-miterlimit="10" d="M177.8,116.2c-0.4-0.1-0.8-0.2-1.1-0.4c-0.1,0-0.2-0.1-0.3,0
	c-0.1,0-0.2,0.2-0.3,0.3c-0.4,0.7-0.2,1.6,0.3,2.2s1.3,0.9,2.1,1c0.5,0,1,0,1.3-0.3c0.5-0.5,0.3-1.3-0.1-1.8
	C179.1,116.6,178.4,116.4,177.8,116.2z"/>
<path fill="#EAEAEA" stroke="#D6D6D6" stroke-miterlimit="10" d="M175.5,123.4c0.1-0.8,0-1.6,0.5-2.3c0.4-0.5,1.6-0.2,2,0.3
	c0.7,1,0.6,2.9-0.4,3.7c-0.4,0.3-1.2,0.4-1.5,0C175.8,124.7,175.4,124,175.5,123.4z"/>
<path fill="#EAEAEA" stroke="#D6D6D6" stroke-miterlimit="10" d="M173.3,119c0-0.4-0.4-0.8-0.9-0.8c-1.1-0.1-1.8,1.1-1.9,2.1
	c0,0.2,0,0.4,0.1,0.6c0.3,0.6,1.4,0.9,1.8,0.4c0.1-0.2,0.3-1.2,0.6-1.5C173.2,119.5,173.3,119.3,173.3,119z"/>
<path fill="#EAEAEA" stroke="#D6D6D6" stroke-miterlimit="10" d="M165.6,112.5c0-0.1-0.1-0.1-0.2-0.2c-1.1-0.5-2.8-1.4-3.7-0.5
	c-0.4,0.5,0.2,1.3,0.8,1.6c0.6,0.3,1.2,0.4,1.8,0.4c0.6-0.1,1.3-0.5,1.4-1.1C165.7,112.7,165.7,112.6,165.6,112.5z"/>
<path fill="#EAEAEA" stroke="#D6D6D6" stroke-miterlimit="10" d="M163.6,115.5c-0.1,0-0.2,0.1-0.2,0.1c-0.8,0.8-0.4,3.1,0.7,2.7
	c0.8-0.3,1.5-1.8,0.9-2.3C164.5,115.7,164,115.4,163.6,115.5z"/>
<path fill="#EAEAEA" stroke="#D6D6D6" stroke-miterlimit="10" d="M167.4,116.9c-0.6,0-1.3,0.2-1.3,0.8c-0.1,0.5,0.5,0.8,1,1
	c0.4,0.1,0.8,0.1,1.2,0.1c0.4,0,0.9-0.1,1.1-0.5c0.2-0.4-0.1-1-0.5-1.2S167.9,116.8,167.4,116.9z"/>
<path fill="#EAEAEA" stroke="#D6D6D6" stroke-miterlimit="10" d="M139.5,148.6c-0.1-0.1-0.2-0.2-0.2-0.3c-0.4-0.5-1.2-0.5-1.9-0.3
	c-0.8,0.1-1.7,0.3-2.2,1c-0.3,0.4-0.4,0.8-0.5,1.2c-0.2,0.7-0.7,1.4-0.5,2.1c0.2,0.8,1.1,1.3,1.8,1.4c1.3,0.3,2.4-1,3.4-1.9
	c0.4-0.4,0.9-0.7,1.1-1.1c0.3-0.5,0.3-1.1-0.1-1.5C140.1,148.9,139.8,148.8,139.5,148.6z"/>
<path fill="#EAEAEA" stroke="#D6D6D6" stroke-miterlimit="10" d="M138.3,155.3c0.2,0.2,0.1,0.5,0.1,0.7c0.1,0.6,0.2,1.2,0,1.7
	s-1.1,1.1-1.4,0.6c-0.3-0.4-0.2-0.9-0.5-1.3c-0.2-0.2-0.3-0.5-0.4-0.7c-0.1-0.5,0.3-0.9,0.8-1S138,154.9,138.3,155.3z"/>
<path fill="none" stroke="#D6D6D6" stroke-miterlimit="10" d="M-9,326.2c3.7,3.4,10.4,1.2,13.9,4.8c0.7,0.8,1.3,1.8,2.3,2.1
	c1.4,0.5,3.2-0.6,4.5,0.2c1.3,0.8,0.9,2.8,1,4.4c0.1,3.5,3.2,6.1,4,9.5c0.7,2.7-0.2,5.5-1.3,8s-2.4,5-2.9,7.8
	c-0.4,2.7,0.3,5.9,2.7,7.4"/>
<path fill="#EAEAEA" stroke="#D6D6D6" stroke-miterlimit="10" d="M11.5,250c-2.4,0.3-3.4,3.1-4,5.4c-0.1,0.4-0.2,0.9-0.1,1.3
	c0.1,0.5,0.5,0.8,0.9,1.2c1.7,1.4,3.4,2.8,5,4.3c0.3,0.2,0.6,0.5,1,0.6c0.7,0.1,1.3-0.5,2-0.5c1.2-0.1,1.9,1.3,3,1.8
	c0.9,0.3,1.9,0,2.8,0.1c1,0,1.9,0.5,2.8,0.7c0.9,0.3,2.1,0.3,2.8-0.3c0.9-0.7,0.9-2.1,0.9-3.2c0-1.2-0.7-2.5-0.1-3.5
	c0.4-0.7,1.6-0.1,2.4,0.3s1.4,0.9,2.3,1s1.8-0.6,1.6-1.4c-0.1-0.7-1-1-1.4-1.6c-0.5-0.8-0.2-2-1-2.5c-0.6-0.4-1.6-0.1-2.2-0.5
	c-0.6-0.4-0.5-1.3-0.8-2c-0.5-1.3-2.1-1.5-3.5-1.6c-2.1-0.1-4.3-0.1-5.9,1.1c-0.5,0.3-0.9,0.8-1.4,1C16.4,252.4,14,249.7,11.5,250z"
	/>
<path fill="#EAEAEA" stroke="#D6D6D6" stroke-miterlimit="10" d="M59.9,270.4c-0.4-0.1-0.8-0.2-1.2,0c-0.5,0.2-0.7,0.8-0.7,1.3
	c0,0.9,0.6,1.7,1.4,2c0.8,0.3,1.7,0.1,2.4-0.4c0.6-0.4,0.7-1.4,0.2-2C61.4,270.8,60.6,270.6,59.9,270.4z"/>
<path fill="none" stroke="#D6D6D6" stroke-miterlimit="10" d="M30.1,257.8c-0.2,0.7-0.1,1.7,0.3,2.2c0.4,0.5,0.5,0.4,0.8,0.9
	c0.2,0.3,0.3,0.7,0.5,1.1c1,1.7,3.8,0.3,5.5,1.4c1,0.6,1.4,1.9,2.5,2.1c0.5,0.1,1.1-0.1,1.6,0c1.6,0.1,2.5,1.8,2.8,3.4
	s0.5,3.3,1.7,4.3c1.4,1.2,3.7,1.1,4.7,2.7c0.3,0.5,0.4,1.1,0.5,1.7c0.7,4.3,0.9,8.7,0.6,13.1c-0.1,1.7-0.2,3.7,1,4.9
	c1.6,1.6,4.6,0.9,6.1,2.6c0.7,0.8,0.9,2,1,3.1c0.5,5.7,0.2,11.4-0.8,17c-0.1,0.4-0.1,0.8,0,1.2c0.1,0.3,0.3,0.5,0.5,0.8
	c0.3,0.6,0.1,1.2,0.1,1.9c-0.3,3.1,1,6.3,3.5,8.2"/>
<path fill="#EAEAEA" stroke="#D6D6D6" stroke-miterlimit="10" d="M122.6,248.3c0.4,0.5,0.9,1.1,1,1.7c0.2,1-0.4,1.9-1.2,2.6
	c-0.7,0.6-1.3,1.5-2.1,2.1c-1.4,1.1-2.6,2.4-3.7,3.8c-1.1,1.5-2.5,2.8-4.3,2.9c-1.7,0.1-3.2-1-4.4-2.2c-2.8-3-4.1-7-5.3-11
	c-0.2-0.7-0.5-1.5-0.3-2.3c0.2-1.7,2-2.7,3.6-3.5c1.4-0.7,2.7-1.3,4.1-2c0.6-0.3,1.2-0.6,1.8-0.6c1.8-0.1,3,1.7,3.6,3.3
	c0.3,0.6,0.5,1.3,1.1,1.6c0.5,0.3,1.1,0.2,1.6,0.3C120.1,245.4,121.5,246.9,122.6,248.3z"/>
<path fill="#EAEAEA" stroke="#D6D6D6" stroke-miterlimit="10" d="M58.6,185.4c0.2-0.2,0.5-0.3,0.6-0.6c0.3-0.6-0.2-1.4-0.7-1.8
	c-0.7-0.5-1.6-0.9-2.5-1c-0.1,0-0.2,0-0.3,0.1c-0.1,0.1-0.1,0.2-0.1,0.3c0,0.4,0,0.8,0,1.2c0,0.9,0.2,1.9,1,2.2
	C57.3,186.1,58,185.8,58.6,185.4z"/>
<path fill="none" stroke="#D6D6D6" stroke-miterlimit="10" d="M-10.5,209.6c2.8,1,5.3-4,7.9-2.7c0.8,0.4,1.2,1.2,2,1.7
	c1,0.6,2.3,0.1,3.4-0.3c2.3-0.9,4.6-1.8,6.5-3.5c1-0.9,1.8-2.1,2.9-2.9c3.1-2.4,7.4-2,11.3-2.4c0.5-0.1,1.1-0.1,1.5-0.4
	c2-1.1,1.8-6.5,3.8-5.3c1.7,1,2.3,3.3,4.3,3.8c1.8,0.5,3.6,0.2,5.5,0.5c1,0.2,2,0.5,3.1,0.4c0.8-0.1,1.5-0.4,2.3-0.7
	c4.1-1.8,8.2-3.5,12.2-5.3c0.9-0.4,2-1,2-2c0-0.5-0.2-1,0.1-1.4c0.2-0.3,0.7-0.2,1-0.3c1.8-0.3,1.9-3.1,3.4-4
	c1.4-0.8,3.1,0.2,4.7,0.2c1.2,0,2.4-0.7,3.4-1.3c3-1.8,6-3.5,8.9-5.3c0.7-0.4,1.5-0.6,2.3-0.3c1,0.4,1.3,0.7,1.8,1.6
	c1.4,2.7,0.2,6.3,2,8.7c0.4,0.5,1.2,0.8,1.2,1.4c0,1.9-0.5,4.5,0,6.7c0.6,2.5-0.4,5.1,0.3,7.6c0.1,0.5,0.3,1.1,0.8,1.5
	c0.4,0.3,1,0.4,1.5,0.6c1.7,0.6,2.6,2.3,3.9,3.5c1.7,1.6,4.1,2.3,6.2,3.3c1.2,0.6,2.6,1.5,2.6,2.9c0,0.6-0.2,1.3-0.5,1.8
	c-1.2,2.8-2.6,5.5-4.1,8.1c-0.5,0.8-1,1.8-0.6,2.7c0.1,0.3,0.4,0.6,0.6,1c0.2,0.6,0.1,1.2,0.2,1.8c0.1,0.6,0.4,1.1,0.7,1.7
	c0.2,0.4,0.5,0.9,0.7,1.3c0.9,1.7,2.7,2.2,4.2,3.4c1.3,1,1,3.2,1.9,4.6"/>
<path fill="#EAEAEA" stroke="#D6D6D6" stroke-miterlimit="10" d="M54.5,144.7c0.2,0.3,0.5,0.7,0.5,1.1c0,0.4-0.2,0.9-0.6,1
	c-0.3,0.1-0.5,0-0.8-0.1c-0.8-0.3-1.6,0.2-2.3-0.2c-0.9-0.5-1.4-1.7-1.3-2.6c0.1-0.7,1-1.1,1.5-1.7c0.4-0.4,1.1,0.1,1.4,0.5
	C53.5,143.4,54,144.1,54.5,144.7z"/>
<path fill="#EAEAEA" stroke="#D6D6D6" stroke-miterlimit="10" d="M65.6,99.6c0.5,0.9,1.1,1.9,2.1,1.9c1.4,0.1,2.4-1.3,3.7-2
	c0.7-0.4,0-1.6-0.7-2c-0.7-0.4-1.6-0.4-2.3-0.3c-0.9,0.1-1.7,0.3-2.5,0.7c-0.1,0.1-0.3,0.1-0.4,0.3C65.2,98.6,65.4,99.2,65.6,99.6z"
	/>
<path fill="#EAEAEA" stroke="#D6D6D6" stroke-miterlimit="10" d="M112.5,86.7c-0.8,0.4-1.3,1.3-2.1,1.7c-0.9,0.4-1.9,0.3-2.8,0.3
	s-2.1,0.1-2.6,1c-0.3,0.6-0.3,1.3-0.7,1.8c-0.3,0.5-0.9,0.7-1.2,1.1c-0.5,0.7-0.3,1.7,0.1,2.5c0.4,0.8,1.1,1.4,1.4,2.2
	c0.4,1.1,0.5,2.6,1.6,3c0.5,0.2,1.1,0,1.6-0.1c0.8-0.2,1.5-0.4,2.3-0.6c0.2-0.1,0.5-0.1,0.8,0c0.3,0.1,0.3,0.5,0.4,0.7
	c0.6,1.5,2.8,1.7,4.2,0.8c1.3-0.9,2-2.6,2.5-4.1c0.5-1.5,1-2.9,1.6-4.4c0.2-0.5,0.5-1.1,1-1.3c0.6-0.2,1.2,0.4,1.5,1
	c0.4,0.7,0.1,1.8,0.7,2.4c1.1,1,2.4-1.7,3-3.1c0.5-1.1,0.9-2.4,0.5-3.5s-1.7-0.3-2.9-0.7c-0.6-0.2-0.5-1.3-1.1-1.5
	c-0.6-0.2-1.3-0.1-2-0.1c-2.1,0.2-4.1,0.5-6.2,0.7C113.5,86.4,112.9,86.4,112.5,86.7z"/>
<path fill="#EAEAEA" stroke="#D6D6D6" stroke-miterlimit="10" d="M46.3,106.2c0.2,1-0.8,1.9-1.7,2.4c-0.9,0.5-2.8,0.9-2.4,1.9
	c0.8,1.8,2.5,4.2,4.5,5.7c1.5,1.2,2.9,2.4,3.7,4.1c0.5,0.9,1,1.9,0.7,2.9c-0.3,1.1-1.5,1.6-2.3,2.4c-0.6,0.6-1,1.5-1.6,2.1
	c-0.6,0.7-2.1,1.6-2.4,0.8c-0.4-1.2-0.6-1.7-1.9-2.9c-0.6-0.6,0.3-2.6-0.4-3.1c-0.7-0.4-1.6,1.4-2.4,1c-1-0.5-0.1-2.3-0.8-3.2
	c-0.6-0.7-1.7,1.1-2.5,0.7c-1.3-0.7-0.9-2.8-2.4-3.1s-3.7,1.8-4.3,0.5c-0.8-1.7-3.8-6.6-6.6-9.2c-1-0.9-2.2-1.9-3.4-1.5
	c-0.8,0.2-1.4,1-2.2,1.2c-0.9,0.2-1.8,0.3-2.8,0.3c-1.5-0.1-1.7-3.6-1-5.2c0.2-0.6,1.5-0.9,1.5-1.2c0-0.3-1.1-1-1.3-1.3
	c-0.7-0.8-2.7-1.6-2-2.4c0.9-1,5.7-0.8,8.5-0.5c1.7,0.2,3.3,0.4,5,0.6c0.4,0.1,0.9,0.1,1.3,0c0.4-0.1,0.7-0.3,1-0.5
	c0.8-0.5,1.7-1,2.7-1.3c3.2-1.2,6.9-0.9,9.9,0.7c0.7,0.4,1.3,0.8,1.8,1.4c1.2,1.4,1.4,3.6,2.5,5C45.6,104.9,46.2,105.4,46.3,106.2z"
	/>
<path fill="#EAEAEA" stroke="#D6D6D6" stroke-miterlimit="10" d="M67.5,64.7c0.2-0.7-0.5-1.4-1.3-1.5c-0.8,0-1.4,0.4-2,0.8
	c-0.5,0.3-1,0.8-1,1.4c0,0.2,0.1,0.4,0.2,0.6c0.2,0.3,0.2,0.9,0.6,1c0.8,0.1,1.3-1.1,2.1-1.4C66.6,65.5,67.3,65.2,67.5,64.7z"/>
<path fill="#EAEAEA" stroke="#D6D6D6" stroke-miterlimit="10" d="M64.3,55.7c0.8-0.3,1.6-0.8,1.9-1.5c0.1-0.2,0.1-0.4,0-0.6
	c0-0.1-0.1-0.1-0.2-0.2C65.7,53,65,53,64.4,53c-0.6,0-1.3,0-1.8,0.3c-0.6,0.3-1,0.9-0.9,1.5c0.1,0.5,0.6,0.9,1.1,1.1
	S63.8,55.8,64.3,55.7z"/>
<path fill="#EAEAEA" stroke="#D6D6D6" stroke-miterlimit="10" d="M184.4,123c0.2-0.5-0.4-0.8-1.1-1c-0.4-0.1-1.1-0.4-1.5-0.3
	c0,0-0.3,0.7-0.1,1.1c0.1,0.2,1.3,0.8,1.7,0.8C183.9,123.5,184.3,123.3,184.4,123z"/>
<path fill="#FFFFFF" stroke="#D6D6D6" stroke-miterlimit="10" d="M116.6,90.9c-0.5-0.3-1.1,0-1.4,0.4c-0.3,0.5-0.3,1-0.3,1.6
	c0.1,0.5,0,1.2,0.4,1.5c1.1,0.6,2.2-1.6,1.8-2.8C117,91.3,116.9,91.1,116.6,90.9z"/>
<path fill="#FFFFFF" stroke="#D6D6D6" stroke-miterlimit="10" d="M28.8,106.8c1.2-0.1,3-1,2.5-2.1c-0.4-0.9-1.8-0.8-2.8-0.6
	c-0.5,0.1-0.9,0.4-1.2,0.8c-0.3,0.4-0.3,1,0,1.4C27.7,106.8,28.3,106.9,28.8,106.8z"/>
<path fill="none" stroke="#585858" stroke-miterlimit="10" stroke-dasharray="18,3,1,3" d="M357.9-13.2C355.3-7,353.7-0.5,353,6.1
	c-0.6,6-0.2,12.1-1.8,17.8c-5.2,17.9-20.8,26.2-31.4,40.9c-1.6,2.2-6.1,6.5-6.1,9.2c0,1.4,0.5,2.8,1.1,4.2c5,13,12.4,22.6,21.8,32.8
	c4.6,4.9,10.1,12.9,9.1,19.5c-0.3,2.1-1.3,4.1-2.2,6.1c-6.3,13.1-9.6,24.6-15.2,38.6c-3.3,8-3.5,19-5.5,27.5
	c-2.7,11-6.5,21.9-8.9,33c-0.7,3.1-4.1,5.2-5.8,7.8c-1.6,2.6-2.4,5.3-3.3,8.2c-0.9,2.9-1.8,6.1-0.2,8.7c0.4,0.6,0.9,1.3,0.8,2.1
	c-0.1,0.9-1,1.6-1.9,1.8c-0.9,0.2-1.8,0-2.8-0.2c-4.2-0.6-8.5,0.2-12.6,1.3c-11.5,3-22.5,7.7-33.3,12.5c-2.5,1.1-5.1,2.3-7.1,4.2
	c-1.2,1.2-2.2,2.7-3.4,3.9c-2,1.9-4.6,3-7.2,4c-4.5,1.8-9.2,3.6-14,2.9c-2.5-0.3-4.9-1.3-7.4-0.9c-1.6,0.3-3.1,1.2-4.7,1
	c-0.6-0.1-1.2-0.3-1.8-0.5c-1.6-0.7-3.2-1.7-4.5-2.8c-2-1.8-3.8-5-6.4-4.6c-4.6,0.8-10.5,1.9-15.6,2.2c-5.1,0.3-10.3,1.9-14.3,5.2
	c-4,3.4-6.4,9-11.4,10.3c-1.5,0.4-3.1,0.4-4.6,0.6c-2.4,0.4-4.6,1.5-6.8,2.4c-6.7,3-13.6,5.5-20.1,9s-12.6,8-16.6,14.1
	c-2.5,3.9-4.1,8.3-5.4,12.8c-3.3,11.4-5,23.5-11.3,33.6"/>
<text transform="matrix(1 0 0 1 118.0902 170.6241)"><tspan x="0" y="0" fill="#7BBCEB" font-family="'Verdana-Italic'" font-size="8">Harriet</tspan><tspan x="9" y="9.6" fill="#7BBCEB" font-family="'Verdana-Italic'" font-size="8">Lake</tspan></text>
<text transform="matrix(1 0 0 1 278.0548 252.424)"><tspan x="0" y="0" fill="#585858" font-family="'Verdana-Italic'" font-size="8">Long</tspan><tspan x="-17.6" y="9.6" fill="#585858" font-family="'Verdana-Italic'" font-size="8">Mountain</tspan></text>
<text transform="matrix(1 0 0 1 301.8591 265.6744)" fill="#585858" font-family="'Verdana-Italic'" font-size="8">× 11502</text>
<text transform="matrix(0.9717 -0.2361 0.2361 0.9717 195.7481 337.3542)" fill="#585858" font-family="'Verdana-Bold'" font-size="10" letter-spacing="8">WILDERNESS</text>
<text transform="matrix(0.9717 -0.2361 0.2361 0.9717 177.2219 322.9606)" fill="#585858" font-family="'Verdana-Bold'" font-size="10" letter-spacing="8">ANSEL</text>
<text transform="matrix(0.9717 -0.2361 0.2361 0.9717 276.7806 298.7693)" fill="#585858" font-family="'Verdana-Bold'" font-size="10" letter-spacing="8">ADAMS</text>
<path fill="none" d="M42.3,49.8c10.7-2.2,21-6.5,31.8-8.3c17.6-2.9,35.6,1.1,53,5"/>
<text transform="matrix(0.9982 -6.021682e-02 6.021682e-02 0.9982 79.6898 43.3575)"><tspan x="0" y="0" fill="#7D7D7D" font-family="'Verdana-Italic'" font-size="7">1</tspan><tspan x="4.3" y="0" fill="#7D7D7D" font-family="'Verdana-Italic'" font-size="7" rotate="3">0</tspan><tspan x="8.6" y="0.2" fill="#7D7D7D" font-family="'Verdana-Italic'" font-size="7" rotate="5.7">0</tspan><tspan x="12.9" y="0.7" fill="#7D7D7D" font-family="'Verdana-Italic'" font-size="7" rotate="8">0</tspan><tspan x="17.3" y="1.3" fill="#7D7D7D" font-family="'Verdana-Italic'" font-size="7" rotate="10.1">0</tspan></text>
<path fill="none" d="M24.9,343.9c0.6-1.4,1.2-2.8,2.1-4.1c1.2-1.9,2.8-3.5,4.3-5.1c3.4-3.5,6.8-7,11.1-9.3c1.4-0.8,2.9-1.4,4.2-2.3
	c2-1.5,3.4-3.7,5.4-5.2"/>
<text transform="matrix(0.6966 -0.7174 0.7174 0.6966 31.0594 338.5728)"><tspan x="0" y="0" fill="#7D7D7D" font-family="'Verdana-Italic'" font-size="7">1</tspan><tspan x="4.4" y="0" fill="#7D7D7D" font-family="'Verdana-Italic'" font-size="7" rotate="1.3">0</tspan><tspan x="8.7" y="0.1" fill="#7D7D7D" font-family="'Verdana-Italic'" font-size="7" rotate="5.7">2</tspan><tspan x="12.8" y="0.4" fill="#7D7D7D" font-family="'Verdana-Italic'" font-size="7" rotate="13.4">0</tspan><tspan x="16.8" y="1.5" fill="#7D7D7D" font-family="'Verdana-Italic'" font-size="7" rotate="18.2">0</tspan></text>
<path fill="none" d="M134,256.6c1.1-4.2,4.9-7.1,8.7-9.3s7.7-5.4,11.5-7.5c3.9-2.2,8.7-2.5,11.9-5.7"/>
<text transform="matrix(0.8471 -0.5314 0.5314 0.8471 140.7025 251.4879)"><tspan x="0" y="0" fill="#7D7D7D" font-family="'Verdana-Italic'" font-size="7">1</tspan><tspan x="4.5" y="0.1" fill="#7D7D7D" font-family="'Verdana-Italic'" font-size="7" rotate="-1">0</tspan><tspan x="9" y="0" fill="#7D7D7D" font-family="'Verdana-Italic'" font-size="7" rotate="-2.6">4</tspan><tspan x="13.3" y="-0.2" fill="#7D7D7D" font-family="'Verdana-Italic'" font-size="7" rotate="0.1">0</tspan><tspan x="17.3" y="-0.3" fill="#7D7D7D" font-family="'Verdana-Italic'" font-size="7" rotate="10.1">0</tspan></text>
<path fill="none" d="M303.4,65.5c0.9-2.2,1.7-4.3,3.1-6.2c5.6-7.9,17-8.8,24.8-14.4c5.3-3.8,8.7-9.6,11.9-15.3"/>
<text transform="matrix(0.6975 -0.7166 0.7166 0.6975 308.4193 60.6099)"><tspan x="0" y="0" fill="#7D7D7D" font-family="'Verdana-Italic'" font-size="7">1</tspan><tspan x="3.9" y="0" fill="#7D7D7D" font-family="'Verdana-Italic'" font-size="7" rotate="12.7">1</tspan><tspan x="7.9" y="0.9" fill="#7D7D7D" font-family="'Verdana-Italic'" font-size="7" rotate="20.4">2</tspan><tspan x="12" y="2.4" fill="#7D7D7D" font-family="'Verdana-Italic'" font-size="7" rotate="23.6">0</tspan><tspan x="16" y="4.2" fill="#7D7D7D" font-family="'Verdana-Italic'" font-size="7" rotate="22.8">0</tspan></text>
<path fill="none" d="M300.4,208.1c5.7-7.7,9.8-30.8,11.9-45.4"/>
<text transform="matrix(0.3056 -0.9522 0.9522 0.3056 306.7367 200.755)"><tspan x="0" y="0" fill="#7D7D7D" font-family="'Verdana-Italic'" font-size="7">1</tspan><tspan x="4.6" y="0" fill="#7D7D7D" font-family="'Verdana-Italic'" font-size="7" rotate="-2.5">0</tspan><tspan x="9.1" y="-0.2" fill="#7D7D7D" font-family="'Verdana-Italic'" font-size="7" rotate="-4.2">8</tspan><tspan x="13.6" y="-0.5" fill="#7D7D7D" font-family="'Verdana-Italic'" font-size="7" rotate="-5.5">0</tspan><tspan x="18.1" y="-1" fill="#7D7D7D" font-family="'Verdana-Italic'" font-size="7" rotate="-6.6">0</tspan></text>
<path fill="none" d="M319.7,335.3c1.8,1.3,3.9,2,6,2.9c14.8,6.1,25.9,19.5,41.1,24.8"/>
<text transform="matrix(0.8864 0.4628 -0.4628 0.8864 326.6791 341.398)"><tspan x="0" y="0" fill="#7D7D7D" font-family="'Verdana-Italic'" font-size="7">1</tspan><tspan x="4.3" y="0" fill="#7D7D7D" font-family="'Verdana-Italic'" font-size="7" rotate="3.8">1</tspan><tspan x="8.6" y="0.3" fill="#7D7D7D" font-family="'Verdana-Italic'" font-size="7" rotate="6.5">0</tspan><tspan x="13" y="0.8" fill="#7D7D7D" font-family="'Verdana-Italic'" font-size="7" rotate="8.1">0</tspan><tspan x="17.3" y="1.4" fill="#7D7D7D" font-family="'Verdana-Italic'" font-size="7" rotate="8.7">0</tspan></text>
<g>
	<g>
		<polyline fill="none" stroke="#7D7D7D" stroke-miterlimit="10" points="85.2,341.6 85.2,348.7 275.4,348.7 275.4,341.7 		"/>
		<line fill="none" stroke="#7D7D7D" stroke-miterlimit="10" x1="180.5" y1="341.4" x2="180.5" y2="348.7"/>
		<line fill="none" stroke="#7D7D7D" stroke-miterlimit="10" x1="161.2" y1="349.2" x2="161.2" y2="343.7"/>
		<line fill="none" stroke="#7D7D7D" stroke-miterlimit="10" x1="142.4" y1="349.2" x2="142.4" y2="343.7"/>
		<line fill="none" stroke="#7D7D7D" stroke-miterlimit="10" x1="123.3" y1="349.2" x2="123.3" y2="343.5"/>
		<line fill="none" stroke="#7D7D7D" stroke-miterlimit="10" x1="104.6" y1="349.2" x2="104.6" y2="343.7"/>
	</g>
	<text transform="matrix(1 0 0 1 83.7833 339.1469)" fill="#7D7D7D" font-family="'Verdana'" font-size="8">0</text>
	<text transform="matrix(1 0 0 1 174.2944 339.1469)" fill="#7D7D7D" font-family="'Verdana'" font-size="8">0.5</text>
	<text transform="matrix(1 0 0 1 258.3413 339.1469)" fill="#7D7D7D" font-family="'Verdana'" font-size="8">1 mi</text>
</g>
</svg>
