<?xml version="1.0" encoding="utf-8"?>
<!-- Generator: Adobe Illustrator 17.1.0, SVG Export Plug-In . SVG Version: 6.00 Build 0)  -->
<!DOCTYPE svg PUBLIC "-//W3C//DTD SVG 1.1//EN" "http://www.w3.org/Graphics/SVG/1.1/DTD/svg11.dtd">
<svg version="1.1" id="Layer_1" xmlns="http://www.w3.org/2000/svg" xmlns:xlink="http://www.w3.org/1999/xlink" x="0px" y="0px"
	 viewBox="0 0 360 360" enable-background="new 0 0 360 360" xml:space="preserve">
<path fill="none" stroke="#E1E1E1" stroke-miterlimit="10" d="M93.8,255.8c6.6-2.5,13.2-5,19.8-7.5c4.2-1.6,9.1-4.1,9.4-8.6
	c0-0.7-0.1-1.5-0.5-2.1c-0.9-1.3-2.6-1.5-4.2-1.7c-5.4-0.8-10.5-3.3-14.4-7.2c-0.7-0.7-1.4-1.5-1.5-2.5c0-0.7,0.3-1.3,0.2-2
	c-0.1-1.4-1.6-2.4-3-2.5c-1.4,0-2.8,0.6-4.1,1.3c-16.5,8.2-34.9,14.6-53.1,11.7c-0.9-0.1-1.8-0.3-2.5,0.2c-0.8,0.5-1.1,1.5-1.2,2.4
	c-0.4,2.5-0.4,5.3,1,7.4c1.6,2.4,4.7,3.3,7.5,4.1c5.4,1.5,11,3,16.6,2.4c2.7-0.3,5.4-1.1,8-0.6c5.1,0.9,8.7,6.2,13.9,6.9
	C88.4,257.8,91.2,256.8,93.8,255.8z"/>
<path fill="none" stroke="#E1E1E1" stroke-miterlimit="10" d="M141.2,305.7c-9.2-2.1-18.8-2.6-28.1-1.4c-4.2,0.5-8.7,1.3-12.6-0.4
	c-5.9-2.7-8-9.9-12.6-14.5c-2.9-2.8-6.8-4.5-10.5-6c-4.8-2-9.7-4-14.5-6.1c-2.1-0.9-4.3-1.8-6.7-2c-1.9-0.2-3.7,0.1-5.6,0.4
	c-6.3,0.9-12.6,1.9-18.9,2.8c-5.8,0.9-12,1.7-17.3-1c-2.7-1.4-4.8-3.5-6.9-5.6c-2-2.1-4.1-4.3-5-7c-1.7-5.2,1-10.6,3.4-15.5
	s4.6-10.8,1.8-15.5c-2.5-4.3-8-5.8-11-9.7c-1.4-1.7-2.1-3.8-3.3-5.7c-1.9-3.2-4.9-5.7-6.4-9.1s-0.6-8.4,3-9.4
	c1.4-0.4,2.8-0.1,4.2,0.3c10.2,2.7,19.5,8.4,26.5,16.3c3.3,3.7,7.5,8.4,12.2,6.9c1.5-0.5,2.7-1.5,4.1-1.9c1.6-0.5,3.3-0.2,5-0.4
	c4.9-0.4,8.7-4.2,13.1-6.2c3.8-1.6,8-1.9,12-2.8c11-2.2,21.2-8.7,27.8-17.9c1.2-1.7,3.2-3.6,4.9-2.5c0.5,0.3,0.9,0.9,1.2,1.4
	c1.8,3.1,3.4,6.4,4.7,9.7c1.5,3.8,2.7,7.7,4.7,11.2c2,3.5,5.1,6.7,9,7.8c2.8,0.8,5.8,0.4,8.7,1.1c2.8,0.7,5.8,3,5.4,5.9
	c-0.1,1.2-0.8,2.5-0.4,3.7c0.3,0.9,1.3,1.2,1.9,1.9c3.5,3.9,7.6,4.4,11,4.4c1.9,0,3.1,2.2,4.3,3.7c1.1,1.5,2.8,2.4,4.4,3.3
	c7,3.8,15.1,7.1,22.8,5.2c6-1.5,12.5-9.5,17.4-5.7c3.3,2.6-2.4,7.8-5.6,10.7c-6,5.5-11.8,11.5-15.7,18.6c-1.7,3.2-3.1,6.6-5.1,9.6
	c-0.9,1.3-1.9,2.6-2.7,4c-1.9,3.3-2.4,7.3-4.8,10.3c-1.1,1.3-2.5,2.4-3.9,3.3C152.3,304.6,146.7,306.9,141.2,305.7z"/>
<path fill="none" stroke="#E1E1E1" stroke-miterlimit="10" d="M-22.2,190c7-0.4,13.9-1.3,20.7-2.8c1.3-0.3,2.7-0.6,4-0.2
	c1.3,0.4,2.3,1.3,3.5,1.9c2,0.9,4.2,0.5,6.4,0.6c6.1,0,11.7,2.8,17.7,4c10.3,2,20.8-0.8,31-3.5c1.4-0.4,2.9-0.8,4.1-1.8
	c0.9-0.7,1.7-1.8,2.8-1.9c1.5-0.1,2.7,1.6,4.2,1.7c2.6,0.2,3.1-3.7,5.1-5.3c1.4-1.1,3.5-1.1,5-2.1c5.7-3.7-2.8-15.3,3-18.7
	c0.8-0.5,1.7-0.6,2.6-0.8c4.7-0.9,9.4-1.8,14.2-2.6c2.8-0.5,5.7-1,8.3,0.1c2.6,1.1,4.3,4.6,2.6,6.8c-0.8,1.1-2.3,1.7-3.1,2.8
	c-1.6,2.1-0.5,5.1,0.7,7.5c2.9,5.9,6,12,10.9,16.4c4,3.7,9.1,6,14.1,8.3c3.9,1.8,8.6,3.9,9.3,8.7c0.4,2.8,0.1,5.7,2,7.9
	c0.7,0.8,1.6,1.5,2.1,2.5c0.5,1,0.4,2.3,0.9,3.3c0.5,0.9,1.4,1.6,2.3,2.1c8.3,5.2,16.8,10,25.5,14.5c1,0.5,2.1,1.1,3.3,1.3
	c1.7,0.3,3.5-0.2,5.1-0.7c5.9-1.7,12-3.5,16.8-7.3c1.2-1,2.8-3.1,4.1-2.2c3.5,2.4,2,8.2,2.7,12.4c0.5,3,0.9,6.1,0.1,9.1
	c-0.7,2.4-2.1,4.5-2.6,6.9c-0.8,3.4,0.3,7.1-0.7,10.5c-0.5,1.8-1.5,3.4-1.8,5.1c-0.3,1.9,0.1,3.9,0.2,5.9c0.1,3.2-0.8,6.4-1.6,9.5
	c-3.1,10.9-6.4,22-12.9,31.3c-1.7,2.4-3.7,4.7-6.4,6c-2.7,1.2-5.7,1.2-8.7,1.2c-6.2,0-12.4-0.1-18.6-0.1c-1.9,0-3.7,0-5.6,0
	c-5.2-0.1-10.5-0.3-15.7-0.5c-3.1-0.1-6.3-0.3-9.4-0.4c-9.1-0.4-18.3,0.2-27.4-1.1c-3-0.4-9.1-1.7-12-2.9
	c-8.2-3.5-12.6-12.8-20-17.9c-8.5-5.8-19.2-7.2-29.4-8.4c-5-0.6-10.1-1.2-15.2-1c-7.2,0.3-14.5,2-21.4-0.1
	c-7.5-2.4-12.9-9.1-16.6-16.1c-2.3-4.3-4.1-8.9-4.3-13.7c-0.2-4.8,1.5-9.9,5.3-12.9c0.9-0.7,2-1.4,2.6-2.4c0.5-0.8,0.6-1.9,0.6-2.8
	c0-3.4-0.2-7.5-2.9-9.6c-1.8-1.3-3.7-2.5-5.6-3.6"/>
<path fill="none" stroke="#E1E1E1" stroke-miterlimit="10" d="M-21.7,167.6c0.6,0.1,1.3,0.3,1.9,0.4c5.5,1.4,10.5-4,15.8-6
	c2.1-0.8,4.1-1.6,6.3-1.7c4-0.2,6.4,3.7,9.6,6.1c9.2,6.9,22.9,1.9,34.3,1.6c3.4-0.1,7.1-0.4,9.6-2.7c3.2-2.9,3.3-7.9,3.2-12.2
	c-0.3-7.5-0.6-15.4-4.5-21.9c-1.4-2.4-3.3-4.6-3.6-7.3c-0.5-4.1,2.9-7.8,6.8-9.2c3.9-1.3,8.1-0.9,12.2-0.3
	c14.3,1.9,28.5,4.1,42.8,6.3c5.9,0.9,11.9,1.3,17.9,0.8c3.5-0.3,5.6-4.2,9.7-3.1c5.5,1.6,3.3,10.3,4.9,15.7c0.7,2.4,1.4,4.8,2.7,6.9
	c0.9,1.4,2,2.8,2.5,4.4c0.3,1.2,0.3,2.6,1.2,3.5c0.5,0.5,1.3,0.7,2,0.9c3.2,1,5.9,3.4,7.4,6.5c0.5,1,0.8,2.3,0,3.2
	c-0.4,0.5-1.1,0.7-1.7,0.9c-1.7,0.5-3.4,1.1-5.1,0.9c-1.1-0.1-2.2-0.4-3.4-0.5c-1.1-0.1-2.3,0-3.4,0.2c-2.9,0.4-6,0.9-7.9,3.1
	c-2,2.2-2,5.5-1.6,8.4c0.5,2.9,1.4,5.8,1,8.8c-0.1,0.9-0.3,1.9-0.1,2.8c0.2,1,1,1.9,1.8,2.6c3.8,4.1,4.1,13,9.7,13.6
	c4,0.5,7.6-3.1,11.2-1.2c3.6,1.9,6.1,5.3,8.5,8.5c1.3,1.8,2.6,3.6,3.3,5.7c0.3,1,0.5,2.1,0.9,3.1c1.3,3.5,4,8.9,7.6,7.9
	c3.6-1.1,6.4-2.9,9.7-4.7c3.3-1.8,5.4-9.7,8.1-7.1c2.2,2,3.3,4.6,6.2,5.1c2.5,0.5,5.4,0.9,7.5-0.6c2.2-1.6,2.8-4.6,4.1-7
	s4-1.5,6.6-2.1c1.7-0.4,3.4-4.4,4-2.8c1.4,3.5-4.3,18.2-6.8,27.2c-0.9,3.3-1.9,6.6-1.9,10c0,2.7,0.5,5.5,0.5,8.2
	c0,5.6-2.5,10.9-2.8,16.5c-0.2,4.5,1,8.9,0.8,13.4c-0.1,1.8-0.4,3.7-0.3,5.5c0.2,3.6,2.1,6.9,3.9,10.1c4,7.1,7.7,14.4,9.5,22.3
	c0.3,1.4,0.6,2.8,1.3,4.1c0.6,1,1.4,1.7,2,2.6c4,5.2,3.1,12.5,1.7,18.9c-0.3,1.1-0.5,2.3-0.3,3.4c0.2,1,0.7,2,1.2,2.9
	c1.9,3.3,4.2,6.8,3.6,10.5c-0.4,2.6-2.1,4.7-3.3,7.1c-1.2,2.3-1.8,5.4-0.1,7.4"/>
<path fill="none" stroke="#E1E1E1" stroke-miterlimit="10" d="M-19.7,299.1c7.6,5.9,13.7,6.8,20.6,12.6c3.7,3.1,5.7,6.7,2.7,10.5
	c-3.2,4.2-2.8,10.2,1.2,13.6c4,3.4,9.5,4.2,14.7,5c1.6,0.2,3.2,0.4,4.7,0c1.4-0.4,2.6-1.3,3.7-2.3c2.9-2.5,5.6-5.3,7.5-8.6
	c1.5-2.5,0.9-5.4,1.3-8.3c0.6-3.7,5.7-5.8,9.5-5.3c2.9,0.4,5.1,2.8,7.9,3.7c1.1,0.3,2.2,0.4,3.1,1.1c1.3,1.1,1.3,3.1,0.5,4.6
	c-0.7,1.5-2,2.7-3,4c-4.8,6.4-2.9,15.5-0.8,23.2c1,3.9,2.3,8.1,5.7,10.4c2.9,2,6.7,2,10.3,1.8c3.5-0.1,7-0.2,10.5-0.3
	c7.3-0.2,15.4-0.8,20.3-6.2c1.3-1.5,2.4-3.3,4.1-4.3c1.4-0.8,3-1.1,4.4-2c2.1-1.3,3.2-3.8,5.4-5c2.5-1.3,5.6-0.6,8,0.8
	c2.4,1.4,4.5,3.4,7,4.7c0.8,0.4,1.7,0.8,2.6,0.7c1.6-0.1,2.8-1.3,4.1-2.2c3.1-2.4,8-5.9,10.9-3.4c2,1.8,1,5.3,1.6,8
	c0.6,2.9,1.2,5.8,2.7,8.3c2,3.2,5.6,6.2,4.6,9.9"/>
<path fill="none" stroke="#E1E1E1" stroke-miterlimit="10" d="M-21.6,133.9c0.9-0.7,1.7-1.5,2.4-2.3c2.9-3.7,2.9-9.3,6.5-12.2
	c5.7-4.6,15.1,1,21.2-2.9c2.3-1.5,3.7-4.1,6.1-5.5s4.4,0.4,6.1,2.5c1.3,1.7,3.8-2.1,4-4.2c0.2-2.1-0.5-4.3-0.6-6.4
	c-0.5-6,3.7-12.2,9.6-13.8c5.3-1.5,11.4,0.3,16.3-2.3c3.5-1.9,6.8-3,10.6-4.4c2.2-0.8,0.2-4.6-0.1-6.9c-0.3-2.3,0.6-5.3,2.9-5.6
	c1-0.1,2,0.3,2.9,0.7c6.8,2.8,14.2,3.8,21.5,2.9c2.1-0.2,4.4-0.6,6.1,0.6c1,0.7,1.7,1.8,2.2,3c1.8,4.4,1.3,9.4,2.3,14.1
	c1,4.7,4.7,9.6,9.4,9c4.2-0.6,6.7-5.1,10.7-6.5c3.4-1.2,7.4-0.1,10.5-2c4.2-2.7,3.3-9.2,0.5-13.4c-0.6-0.9-1.3-1.8-1.3-2.9
	c0-1.3,0.9-2.4,1.8-3.4c5.9-6.3,11.5-6.9,13.7-14.8c0.6-2.4,1.5-5.2,3.7-6.3c2.2-1.1,4.8-1.1,7.2-0.7c1.6,0.3,3.3,0.8,4.5,2
	c1.8,1.9,1.9,4.8,1.8,7.5c-0.2,6.5-0.5,13-0.7,19.5c-0.1,3.8-0.3,7.8-2.2,11.2c-1.6,2.9-5.2,4.1-7.4,6.7c-1.7,2,1.1,5.3,0.4,7.8
	c-0.3,1-0.9,1.8-1.2,2.8c-0.7,2.6,1.2,5.2,3.2,7c2,1.8,4.5,3.5,5.2,6c1.1,3.7-2.4,10.2,1.3,11.1c2.7,0.6,5.7,0.3,7.1,2.6
	c1,1.6,1.1,3.6,2,5.3c1.5,2.8,5.1,4.2,8,3.2c1-0.3,2-0.3,3-0.6c5.6-1.8,8.4-9.5,14.2-9.3c0.6,0,1.3,0.1,1.8,0.4
	c0.7,0.3,1.2,0.8,1.8,1.3c2,1.9,4.1,3.7,6.1,5.6c1,0.9,2,1.8,3.2,2.1c2.8,0.6,5.2-2,7.8-3.1c4.5-1.9,9.8,0.8,12.5,4.8
	s1.5,9.7,4.1,13.9c1.6,2.6,5,3.8,6.3,6.6c1.3,2.8-1.6,5.5-1.1,8.5c0.2,1.4,1.6,2.2,1.8,3.5c1,8.3,1.5,16.7,1.4,25.1
	c0,1.1,0,2.1-0.4,3.1c-0.3,1.1-1,2-1.6,3c-1.1,1.9-1.8,4-2.5,6.2c-4.4,13.9-7.4,28.2-8.7,42.8c-0.1,1.1-0.2,2.2,0.3,3.1
	c0.5,0.9,1.6,1.1,2.7,0.9c2.8-0.6,5.4,3,6.4,5.7c0.5,1.5,0.6,3.1,1.4,4.5c0.5,0.8,1.1,1.5,1.8,2.2c2.3,2.6,4,5.7,5,9
	c0.4,1.2,0.7,2.5,1.5,3.4c1,1.1,2.6,1.4,4,2.2c3.5,1.9,2.4,7.8,5.6,10.1c1.2,0.9,3.5,0.6,4.5-0.6c1.7-2,3.2-4.4,5.7-3.7
	c2.6,0.6,3.3,5.2,5.9,5c4.9-0.4,4.9-8.6,8.4-12.1c1.2-1.2,2.6-2.4,4.2-3c1.2-0.4,2.5-0.5,3.6-1.1c3.3-1.8,3.6-7.3,7.2-8.4
	c0.8-0.2,1.6-0.2,2.3-0.3c4.6-0.7,7.4-5.2,11.1-7.9c5.2-3.8,12.2-3.9,18.7-3.9c1.2,0,2.6-0.7,3.6,0c1.6,1.1-0.7,3.6-1.9,5.1
	c-0.2,0.3-0.4,0.5-0.5,0.8c-0.1,0.6,0.5,1.1,1,1.6c1,1,0.8,2.5,0.8,3.9c0.2,6.5,1.7,12.8,4.8,18.5c2.2,4.1,6.2,6.9,10.1,9.6
	c1.8,1.2,3.6,2.5,5.8,2.9c1.3,0.3,2.7,0.2,4,0c4.9-0.7,9.7-3.1,12.7-7.1c2.2-3,3.3-6.7,5.7-9.4c1.3-1.5,3-2.8,3.3-4.7
	c0.2-1.4-0.3-2.7-0.3-4.1c0-1.4,0.9-3,2.3-2.9c0.7,0.1,1.2,0.6,1.7,1.1c1.4,1.4,2.7,2.9,3.9,4.4c2.1,2.6,1.4,6.1,2.7,9.2
	c1.1,2.7,2.6,4.6,4.3,6.9c2.1,2.8,6.8,2.1,9.8,3.9"/>
<path fill="none" stroke="#E1E1E1" stroke-miterlimit="10" d="M-21.7,22.8c4.3,9.1,10.6,22.2,20,36.2C1,63.1,2.1,69.4,7,69.9
	c5,0.6,8.3-4.7,11.6-8.6c10-12,27.6-13.1,43.1-15c5.3-0.7,10.7-1.6,15.4-4.1c4.6-2.5,8.6-6.6,13.7-7.6c5.5-1.1,11.3,1.8,15.1,6
	c3.8,4.2,6,13.9,9.4,14.9c6.5,1.9,28.4-28.8,34.6-43.5c0.5-1.3,1.7-2.2,3.1-2c1.4,0.3,2.5,1.2,3.6,2.1c0.6,0.4,1.2,0.9,1.9,0.9
	c0.7,0,1.3-0.2,1.9-0.5c3.2-1.5,6.5-3.1,9.7-4.6c1.1-0.5,2.3-1.1,3.6-1.1c2.6-0.1,4.8,2.1,5.5,4.6s0.5,5.1,0.2,7.6
	c-0.9,6.8-2,13.6-3.2,20.4c-0.7,4.5-1.5,9-1,13.5c0.5,5.1,2.6,10.2,1.6,15.3c-0.2,1.1-0.6,2.3-0.1,3.3c0.3,0.6,0.9,1.1,1.4,1.5
	c3.8,3.1,4.3,8.4,7,12.4c2.5,3.8,7.4,5,10.1,8.7c0.4,0.6,0.9,1.3,1.5,1.6c0.8,0.4,1.8,0.3,2.8,0.2c3.5-0.4,7-0.4,10.5,0.1
	c1.3,0.2,2.8,0.6,3.2,1.9c0.4,1.6-1.2,3.9,0.2,4.7c0.4,0.2,0.9,0.2,1.3,0.1c4.9-0.5,9.9-1.2,14.7-0.1c1.5,0.3,3,0.8,4.5,1
	c3.2,0.4,6.5-0.5,9.5-1.6c4.2-1.5,8.2-3.4,12.1-5.6c0.4-0.2,0.8-0.5,1.1-0.8c0.4-0.5,0.6-1.1,0.8-1.7c0.9-3.2,1.4-6.6,3.3-9.3
	c2-2.7,6.1-4.1,8.6-1.9c0.3,0.2,0.5,0.5,0.9,0.6c0.6,0.1,1.1-0.3,1.6-0.6c5-4.2,11-13.7,16.4-10.1c2.4,1.6,0.1,5.9-1.7,8.3
	c-3.4,4.5-8.4,7.6-10.2,13c-1,2.9-1.6,6.3-4,8.3c-1.5,1.2-3.5,1.7-4.8,3.1c-1.4,1.5-1.6,3.8-1.6,5.9c-0.5,13.1-0.6,26.7-5.5,38.9
	c-3.4,8.4-9,16.3-8.9,25.3c0,2.1,0.3,4.1,0.2,6.2c-0.3,3.9-2.2,7.5-2.8,11.4c-0.5,3.6,0.2,7.3-0.1,11c-0.4,5.2-3,10.2-2.8,15.4
	c0.2,5.4-2.8,13.4,2,15.9c3.8,1.9,6.8-5.5,11.1-5.6c1.2,0,2.5,0.1,3.6-0.5c2.5-1.3,2.1-6,4.8-6.7c1.5-0.4,3.5,0.7,4,2.2
	c0,0.1-0.3,0.4-0.2,0.5c0.8,2.7,1,5.6-0.2,8.1c-1.2,2.5-2.9,4.7-4,7.3c-0.6,1.4-0.5,3.5,1,3.7c0.6,0.1,1.2-0.3,1.7-0.6
	c4.5-2.9,9.4-5.1,14.6-6.4c4.4-1.1,9.5-1.5,13,1.3c1.7,1.4,3,3.4,5,4.3c1.6,0.7,3.5,0.6,5,1.3c1.2,0.6,2.2,1.7,3.2,2.6
	c3.6,3.3,8.7,4.9,13.5,4.3c3.2-0.4,6.3-1.8,9.2-3.2c4.5-2.1,9-4.1,13.4-6.2c0.7-0.3,1.6-0.6,2.1-0.1c0.5,0.4,0.5,1.2,0.8,1.8
	c0.8,1.5,3,1,4.6,0.6c4.5-1.3,8.7,2.7,13.4,2.5c1.4,0,2.7-0.5,3.7,0.5s0.5,3,1.7,3.7c1.4,0.7,2.2-2,3.1-3.3s3.1-3.1,3.9-1.7
	c0.4,0.8-0.6,2.7,0.3,2.7c2.1-0.1,2.2-4.7,4.1-4c1.7,0.6,1.9,3.3,3.6,3.9c3.4,1.2,7.1-1,10.6-1.5"/>
<path fill="none" stroke="#E1E1E1" stroke-miterlimit="10" d="M-3.9-10.3c0.2,0.6,0.4,1.1,0.6,1.5c5.9,13,12.3,24.3,15,33.7
	c0.5,1.6,3.7-0.5,5,0.5c1,0.7,0.4,2.9,1.5,3.4c3,1.3,4.9-3.2,32.8-2.2c2,0.1,3.9-0.7,5.7-1.5c2.4-1.2,4.2-3.2,6-5.3
	c4.1-4.7,8.3-9.4,12.4-14c1.4-1.6,2.8-3.2,4.5-4.3C82,0,84.6-1,87.2-1.2C112.8-3.3,117.8,17,122.5,18c3.5,0.7,18.7-19.4,19.8-25.5"
	/>
<path fill="none" stroke="#E1E1E1" stroke-miterlimit="10" d="M25.8-10c0,3.8-0.3,7.6,1.9,10.4c2.7,3.4,5.3,6.8,9.2,8.8
	C43.4,12.4,50.6,4,55.9-1c2.7-2.5,5.1-5.4,7.5-8.3"/>
<path fill="none" stroke="#E1E1E1" stroke-miterlimit="10" d="M46.8,371.2c-4.3-3.5-7.6-8.1-9.7-13.2c-0.6-1.6-1.4-3.4-3-3.9
	c-0.7-0.2-1.5-0.1-2.2,0c-4.5,0.5-9,0.2-13.4-1c-2.1-0.6-4.1-1.3-6.3-1.2c-1.8,0.1-3.6,0.8-5.4,0.5c-2.1-0.3-3.8-1.8-5.9-2
	c-3-0.2-5.6,2.5-8.6,2.8c-2.2,0.2-4.3-0.9-6.2-1.9c-3.5-1.9-7.1-3.8-10.6-5.7"/>
<path fill="none" stroke="#E1E1E1" stroke-miterlimit="10" d="M188.5,352.3c-1.3,0.9-2.7,1.5-3.9,2.6c-1.2,1-2.1,2.6-1.7,4.1
	c0.5,2,2.8,3,4.7,3.6c3.8,1.2,7.5,2.4,11.3,3.5c1.8,0.6,3.5,1.1,5.3,1.5c5.2,1.3,9.4,7.3,14.6,6c7.7-1.9-4.2-15.2-4-23.1
	c0.1-3.6,1.4-7.1,1.1-10.7c-0.3-3.5-2.3-6.7-5.1-8.7c-1.6-1.1-3.6-1.8-5.4-1.4c-2.1,0.4-3.8,1.9-5.1,3.5
	C195.6,339.2,194.6,347.9,188.5,352.3z"/>
<path fill="none" stroke="#E1E1E1" stroke-miterlimit="10" d="M240.6,121.2c-3-1.7-6.7-1.9-9.9-0.8c-0.7,0.3-1.4,0.6-2.1,0.7
	c-1,0.2-2,0.1-2.9,0.2c-3.6,0.4-7.6,4.6-5.9,7.8c0.8,1.4,2.9,1.2,4.5,1c1.6-0.2,3.1-0.8,4.7-0.8c2.3-0.1,4.5,0.9,6.7,0.5
	c2.6-0.4,4.6-2.6,5.9-4.9c0.4-0.7,0.8-1.5,0.6-2.3C241.8,122,241.2,121.5,240.6,121.2z"/>
<path fill="none" stroke="#E1E1E1" stroke-miterlimit="10" d="M301.3,372.4c1.2-2.8,3.1-7.3,0.5-8.8c-2.5-1.4-5.7-2.3-5-5.1
	c1-3.8,6.9-5.6,6.2-9.4c-0.4-2.1-2.7-3.2-4.7-3.8c-2.1-0.6-4.4-1.1-5.6-2.8c-1.3-1.8-0.9-4.3,0.2-6.2c1.1-1.9,2.7-3.4,4-5.2
	c4.3-5.6,5.1-13.7,2.1-20c-0.7-1.5-1.6-2.8-2.1-4.4c-1-3-0.6-6.4,1.2-9s4.8-4.3,7.9-4.4c0.5,0,1.1,0,1.5,0.3
	c0.4,0.3,0.5,0.8,0.6,1.3c0.4,2.6-0.9,5-1.8,7.5c-0.9,2.5-1.6,8,0.9,7.3c6.7-1.9,6.4-12.5,12-16.7c0.4-0.3,1-0.7,1.5-0.5
	c0.9,0.2,0.9,1.4,0.8,2.3c-0.3,2.1-3.1,5.1-1.3,6.2c1.8,1.1,3.3-2.9,5.4-3c2.1-0.2,2.4,2.2,3.8,3.8c1,1.2,2.9,1.2,3.5,2.6
	c0.6,1.5,0.9,3.1,1.9,4.3c1,1.1,2.5,1.7,3.9,2.2c7.1,2.4,14.4,4.9,21.9,4.4c2.1-0.1,4.2-0.5,6.1,0.3c2,0.8,4,1.6,5.6,3
	c3.1,2.7,1.1,8.3,0.4,12.3c-0.4,2.3-1.1,4.8,0.1,6.8c0.5,0.8,1.2,1.4,1.6,2.2c0.7,1.5,0.3,3.3,1.1,4.7c1.2,2.1,4.5,0.6,6.6,1.8
	c0.7,0.4,0.4,1.6,0.9,2.1c4.9,4.5,15.9-1.4,19.4,4.3c0.3,0.4-0.4,0.9-0.7,1.3"/>
<path fill="none" stroke="#E1E1E1" stroke-miterlimit="10" d="M327.9,372.7c0.9-3.7,5.5-3.7,8.5-6.1c1.6-1.2,0.4-4.1-0.2-6
	c-0.5-1.4-1.4-2.7-1.9-4c-0.9-2.1-1.1-4.4-1.2-6.6c-0.1-1.3-0.2-2.6,0.3-3.8s1.7-2.2,3-2c0.3,0.1,0.6,0.2,0.9,0.1
	c1-0.1,1.2-1.4,1.6-2.3c0.7-1.6,2.6-2.2,3.8-3.5c2.3-2.6,1.2-6.9,3.2-9.7c1.8-2.4,5.9-2.7,7.9-0.4c1.5,1.7,1.7,4.1,1.6,6.3
	c-0.3,5-1.9,10-0.9,14.9c0.7,3.5,2.8,7.1,1.5,10.5c-0.3,0.7-0.7,1.5-0.6,2.2c0.2,0.9,1,1.4,1.7,1.9c1.5,0.9,3.4,1.8,4.9,0.9
	c0.6-0.4,1.1-1,1.6-1.6c1.7-1.9,4.5-2.7,6.9-2c1.2,0.3,2.2,0.9,3.3,1.4c4.1,1.8,8.9,1.9,13.1,0.2c1.3-0.5,2.5-1.2,3.9-1.3
	c1-0.1,1.9,0.2,2.8,0.4c1.9,0.5,3.9,1,5.8,1.5"/>
<path fill="none" stroke="#E1E1E1" stroke-miterlimit="10" d="M193.5-6.1c3.1,5.7,4.3,12.5,3.3,18.9c-0.4,2.2-1,4.4-1.4,6.6
	c-0.4,2.1-0.6,4.2-0.8,6.2c-0.3,3.1-0.6,6.2-0.8,9.3c-0.1,1.3-0.2,2.8,0.4,3.9c0.7,1.2,2.1,1.9,3.2,2.8c2.7,2,4.2,5.3,5.7,8.3
	c0.4,0.9,0.9,1.8,1.5,2.6c0.7,0.8,1.7,1.4,2.5,2.1c2.1,1.8,2.2,5.5,4.6,6.8c3,1.7,7.9-2.4,10.4,0.1c1.1,1.1,1.7,2.7,3.3,2.9
	c1.6,0.2,3.2-1.6,4.6-0.9c1.4,0.7,2,2.5,3.5,2.2c0.8-0.1,1.5-0.6,2.3-0.5c0.7,0.1,1.2,0.4,1.8,0.7c1.5,0.8,3.8,1.9,5,0.6
	c4.1-4.5,1.1-12.1,0.9-18.2c-0.1-3-0.3-6,0.7-8.8c1-2.8,4.2-6.3,6.7-4.8c4.1,2.4,4.4,8.4,5.9,12.9c0.4,1.2-0.1,3.1,1.1,3.7
	c1.3,0.6,2.6-1.3,4-1.3c1.4,0,1.9,1.9,3.3,2.1c5.4,0.9,5.7-9.4,7.8-14.5c0.7-1.7,1.4-3.5,2.6-4.8c1.4-1.5,3.2-2.4,5.1-3.2
	c1.5-0.7,3.2-1.3,4.8-0.8c1.8,0.6,2.1,3.1,3.7,4.3c0.5,0.4,0.9,0.6,1.5,0.4c4.7-1.8,6.6-7.7,9.8-11.6c0.8-1,1.7-2,2.5-3
	c1-1.2,2-2.4,3.1-3.5c3.6-3.6,8.1-6.3,13.1-7.7c1.3-0.4,2.6-0.6,4-0.4c3.4,0.6,5.4,4.2,6,7.5c1.1,5.9-0.7,12-2.6,17.7
	c-4.8,14.4-10.7,28.3-17.6,41.8c-0.8,1.7-1.7,3.3-2.8,4.8c-1.8,2.6-4.2,4.8-6.3,7.1c-6.5,7.1-11,15.7-15.5,24.2
	c-0.6,1-1.1,2.1-1.3,3.3c-0.3,1.6,0,3.2,0.2,4.7c0.9,5.8,1,11.8-0.4,17.4c-2.9,11.2-17.9,27.7-14.4,31.5c1.7,1.8,4.6-2.4,7-1.7
	c2.4,0.6,1.7,3.9,3.5,5.6c2.9,2.6,8.2-1.3,11-4c4.5-4.2,4.9-11.3,8.3-16.4c1.9-2.8,4.1-5.6,7.2-7.1c1.7-0.8,3.6-1.2,5.5-1.6
	c6.2-1.2,13.6-5.2,18.8-1.6c3.9,2.7,0.4,10.4,3.5,14.1c1.3,1.5,3.2,2.4,4.9,3.4c4.8,2.8,9.3,7.3,9.4,12.9c0,2.7-1,5.3-2,7.8
	c-2.5,6-5.1,12-8,17.9c-0.5,1-0.8,2.3,0.1,2.9c0.4,0.3,0.9,0.2,1.4,0.3c3,0.2,5.3,2.8,6.1,5.6s-2.6,7.1-0.1,8.8
	c2.4,1.7,5-3.2,7.5-4.7c0.7-0.5,1.6-1,2.5-0.8c1.6,0.2,2.2,2.2,2.6,3.7c0.5,1.5,1.9,3.5,3.3,2.7c2.6-1.5,4.5,1.3,7.1,2.8
	c3,1.8,6.4,2.8,9.7,2c2.4-0.6,2.8-6.2,5-5.2c1.7,0.7,1.3,3.8,3,4.7c2.5,1.4,5.7-0.5,8.5-0.1c0.3,0.1,0.7,0.1,1,0
	c0.4-0.1,0.6-0.4,0.8-0.8c1.4-2,2.7-3.9,4.1-5.9"/>
<path fill="none" stroke="#E1E1E1" stroke-miterlimit="10" d="M364.4-8.7c-1.3,10.1-3.9,20-7.8,29.5c-1.1,2.7-2.4,5.6-2.3,8.5
	c0.1,3.1-1.7,6.7,0.1,9.3c2.4,3.3,7.5,3.4,8.3,7.4c0.9,4,0,8.1-0.1,12.2c-0.1,3.6,0.5,7.2-0.2,10.8c-0.7,3.5-5.7,4.3-6.5,7.8
	c-0.4,1.8,0.7,4.2-1,4.7c-2.1,0.6-4,3.4-2.2,3.8c7.5,1.8,12.6,6.4,13.1,13.2c0.3,3.2-0.6,6.3-1.4,9.3c-0.9,3.4-1.8,6.9-2.7,10.3
	c-0.2,0.6-0.3,1.3-0.2,2c0.1,0.8,0.7,1.5,1.3,2.2c2.3,3,0.1,8.7,3.3,10.7c2.4,1.6,4.5-4.3,7.4-4.7c4.3-0.5,6.8,5.7,7,10.1
	c0,1,0,2.1,0.4,3c0.4,0.9,1.5,0.8,2.5,1c1.1,0.2-0.1,2.7,1,3.2c1.2,0.6,2.6-0.7,3.7,0.1c1.1,0.7,1.1,3,2.5,3.1
	c3.1,0.1,3.7-4.9,5.9-7"/>
<path fill="none" stroke="#4E9BD7" stroke-miterlimit="10" d="M185.8,189.8c0.2,0.2,0.4,0.4,0.6,0.7"/>
<path fill="none" stroke="#D6D6D6" stroke-miterlimit="10" d="M-21,100.6c0.3-0.2,0.6-0.4,0.9-0.6c1.8-1,4.4-1.1,5.8,0.4
	c0.5,0.5,0.8,1.1,1.2,1.7c1.5,2.1,3.9,3.2,6.2,4.2c1.8,0.8,3.5,1.6,5.3,2.4c1.4,0.6,2.8,1.3,4.3,1.5c2,0.3,3.9-0.1,5.9-0.5
	c3.3-0.7,6.6-1.4,9.8-2.1c0.8-0.2,1.7-0.3,2.4-0.1c1.7,0.5,2.4,2.8,1.8,4.5c-0.6,1.7-2,3-3.2,4.3c-0.7,0.7-1.4,1.5-1.7,2.5
	s0.1,2.2,1,2.6c0.9,0.4,1.9-0.1,2.9-0.1c1.3,0.1,2.3,1.1,2.8,2.2c0.5,1.2,0.5,2.5,0.5,3.7c0,3.4-0.4,7.4-3.3,9.2
	c-0.4,0.3-0.9,0.5-1.2,0.8c-1,1.1,0.1,2.9-0.4,4.4"/>
<path fill="#EAEAEA" stroke="#D6D6D6" stroke-miterlimit="10" d="M-19.7,147.8c0,0.1,0.1,0.2,0.2,0.2c0.1,0,0.2,0,0.3,0
	c1.3-0.1,2.5-0.3,3.8-0.4c0.1,0,0.2,0,0.3-0.1c0.1-0.1,0.1-0.2,0.1-0.2c0-0.4,0-0.9-0.2-1.3c-0.2-0.4-0.7-0.4-1.1-0.7
	c-0.6-0.5-0.6-1.4-1.4-1.6c-0.7-0.2-1.6,0-2,0.6c-0.3,0.4-0.5,0.9-0.5,1.4C-20.3,146.5-20,147.2-19.7,147.8z"/>
<path fill="#EAEAEA" stroke="#D6D6D6" stroke-miterlimit="10" d="M17.6,144.4c-0.1,1.6,1.5,3.3,0.7,4.7c-0.1,0.3-0.4,0.5-0.5,0.7
	c-0.4,0.9,0.1,1.9,0.2,2.8c0,0.9-0.3,1.7-0.1,2.5c0.3,0.9,1.4,1.3,2.4,1.4s1.9-0.2,2.9-0.2c1,0,1.9,0.4,2.9,0.4
	c1,0.1,2.1-0.1,2.7-0.9c1.1-1.5-0.3-3.8,0.7-5.3c0.3-0.4,0.7-0.7,1.2-0.9c1.4-0.6,2.9,0.6,4.4,0.3c0.9-0.2,0.3-1.7-0.1-2.5
	c-0.3-0.8-0.8-1.6-0.9-2.5c-0.1-0.8,0.1-1.9-0.7-2.3c-0.8-0.3-1.6,0.5-2.4,0.5c-0.5,0-0.8-0.4-1.3-0.5c-1.5-0.5-3.3,1-4.6,0.1
	c-0.3-0.2-0.5-0.5-0.9-0.6c-0.7-0.1-1.2,0.9-1.9,0.8c-0.9-0.1-1-1.5-1.8-1.7c-0.5-0.1-0.9,0.3-1.3,0.6
	C18.5,142.6,17.7,143.4,17.6,144.4z"/>
<path fill="none" stroke="#D6D6D6" stroke-miterlimit="10" d="M45.2-9.5C44.6-5,41.3-3.9,39.7,1.4c-1.2,4.1-5,10.3-7.8,12.1
	c-3.6,2.3-6.6,5.4-9.3,8.8c-4.1,5.2-4.4,12.3-6.9,18.4c-1,2.4-2.3,4.7-3.4,7.1c-3.4,7.4-4.4,13.8-2.9,21.8"/>
<path fill="none" stroke="#D6D6D6" stroke-miterlimit="10" d="M122.7-9.2c1.2,15.5,0.5,30.2-3.7,44.2c-1.4,4.8-2,10.8-3.1,15.7
	c-3.7,15.6-5.3,30.7-10.1,45.9"/>
<path fill="#7BBCEB" stroke="#4E9BD7" stroke-miterlimit="10" d="M188.6,193.8c0.8-0.6,0.7-1.9,0.6-2.9c-0.1-0.6-0.4-1.4-1-1.3
	c-0.2,0-0.4,0.1-0.5,0.2c-1.1,0.8-2,2-2.6,3.2c-0.2,0.4-0.3,0.7-0.3,1.1c0,0.4,0.3,0.8,0.7,0.9c0.5,0.1,1-0.3,1.5-0.6
	C187.5,194.2,188.1,194.1,188.6,193.8z"/>
<path fill="#7BBCEB" stroke="#4E9BD7" stroke-miterlimit="10" d="M164.8,183.1c-0.1,0.2-0.2,0.5-0.4,0.6c-0.5,0.4-1.5,0.3-2.1,0.2
	c-1.1-0.2-1.7,0.6-1.7,1.7c0.1,1.1,0.8,2,1.7,2.8c0.2,0.2,0.4,0.4,0.6,0.5c0.4,0.1,0.7,0.1,1.1,0c2.8-0.3,5.7-0.4,8.6-0.2
	c0.8,0.1,1.5,0.1,2.2,0.4c1.5,0.6,2.2,1.3,4,1.8c1.4,0.3,0,3,0.6,4.3c0.5,1,2.1-0.3,2.3-1.4s0.3-2.4,1.3-2.9
	c0.5-0.3,1.2-0.3,1.8-0.6c0.7-0.4,1.7-1.4,2-2.1c1.1-3.1,1.5-6,1.7-9.2c0.1-3.3-0.8-6.7-3.1-8.9c-0.2-0.2-0.3-0.3-0.6-0.4
	c-0.9-0.2-1.5,1.3-2.4,1.2c-0.3,0-0.6-0.2-0.9-0.4c-2.1-1.2-4.9-0.4-7.1-1.5c-0.6-0.3-1.2-0.7-1.9-0.7c-0.5,0-0.9,0.2-1.4,0.5
	c-2.5,1.3-4.9,2.5-7.4,3.8c-0.7,0.4-1.5,0.8-1.9,1.5c-0.9,1.4,0,3.2,1,4.6C164.1,179.9,165.2,181.5,164.8,183.1z"/>
<path fill="none" stroke="#4E9BD7" stroke-miterlimit="10" d="M211.1,183c2.3,0.2,2.9-2.4,4.5-4c3.1-3.1,8.4-2.1,12.2-4.1
	c1-0.5,1.8-1.2,2.8-1.6c3-1.3,6.4-0.1,9.6,0.5c3.2,0.6,6.5,0.6,9.7,0.6c3.1,0,6.2,0,9.3-0.7c3-0.7,6-2.1,7.9-4.5
	c1.8-2.2,2.6-5,4.2-7.4c1.5-2.2,3.7-3.9,5.7-5.6c7.3-6.4,13-14.5,20.7-20.3c1.2-0.9,2.6-1.9,3.1-3.4c0.3-0.9,0.2-1.8,0.2-2.8
	c-0.1-4.2-0.5-9,2-12.4c1.3-1.7,3.3-2.9,5.3-3.8c3.7-1.8,7.7-2.8,11.7-3.9c0.8-0.2,1.7-0.4,2.5-0.7c2.2-0.6,4.4-1.2,6.7-1.7
	c1.5-0.4,3.1-0.8,4.5-1.4c7.7-3.4,10.9-12.5,15.7-19.4c0.6-0.8,1.2-1.6,2-2.1c1.4-0.9,3.1-1.1,4.7-1.5c3.2-0.9,5.8-3.3,8.3-5.6
	c3.8-3.5,7.6-7,11.4-10.5c1.7-1.6,3.4-3.2,4.8-5c1.5-1.9,2.6-4,3.9-6c2.2-3.4,4.9-6.3,7.7-9.3c3.6-3.8,7.1-7.7,10.7-11.5"/>
<path fill="#EAEAEA" stroke="#D6D6D6" stroke-miterlimit="10" d="M224.8,24.1c-0.7,0.2-1.2,0.7-1.8,1.1c-1.4,1.2-2.8,2.5-3.5,4.2
	c-0.5,1.2-0.6,2.7-1.7,3.4c-0.3,0.2-0.8,0.3-1,0.6c-0.6,0.7,0,1.9,0.7,2.5c4,3.3,5,5.6,8,8.8c0.2,0.3,1.3,1.3,1.7,1.5
	c0.5,0.2,1.5,0.6,2,0.5c1.4,0,2.4-0.2,3.8-0.2c1.4-0.1,2.9-0.5,3.8-1.7c0.7-1,1.3-3.2,1.4-4.4c0.5-5.7-0.2-10.5,0.9-16.2
	c0.2-1,0.1-2.2-0.6-3c-0.5-0.6-1.3-0.8-2.1-0.9c-2-0.2-4,0.3-5.6,1.4c-1.2,0.8-2.3,1.9-3.7,2.1C226.3,24.1,225.6,23.9,224.8,24.1z"
	/>
<path fill="none" stroke="#4E9BD7" stroke-miterlimit="10" d="M188.6,181.6c1.1,0.2,2,1.1,3.5,1.2c0.7,0.1,1.6-0.2,2.2,0.3
	c0.1,0.1,0.3,0.3,0.4,0.3"/>
<path fill="none" stroke="#D6D6D6" stroke-miterlimit="10" d="M238.5,21c4.9-4.9,9.2-10,14.1-14.9c4.5-4.5,9.1-9.1,11.8-14.9"/>
<path fill="#EAEAEA" stroke="#D6D6D6" stroke-miterlimit="10" d="M360,273.9c0.8,0.8,0.2,2.1,0.5,3.2c0.2,0.5,0.6,0.8,0.8,1.3
	c0.7,1,0.8,2.2,0.6,3.4c-0.5,2.9-3.1,4.9-5.5,6.6c-0.6,0.5-1.3,0.9-2.1,1c-0.6,0-1.2-0.2-1.7-0.4c-2.1-0.8-4.4-0.9-6.2-2.3
	c-1.9-1.5-2.4-4.2-3-6.5c-0.2-0.6-0.3-1.3-0.2-2c0.1-0.7,0.5-1.3,1.2-1.5c0.5-0.1,1,0,1.5,0c1,0,1.9-0.7,2.6-1.4
	c1.1-1,2-3.4,3.4-2.9c0.8,0.3-0.3,1.9,0.2,2.6c0.7,1.1,2.7,0.4,3.9-0.2c0.6-0.4,1.2-0.9,1.8-1.2C358.6,273.4,359.5,273.4,360,273.9z
	"/>
<path fill="#EAEAEA" stroke="#D6D6D6" stroke-miterlimit="10" d="M346,271c0.1,0.3,0.7,0.5,1,0.5c1,0.1,2.2-0.4,2.6-1.3
	c0.2-0.4,0-0.9-0.4-1.2c-0.3-0.3-0.8-0.4-1.2-0.5c-0.4-0.1-0.8-0.2-1.2-0.1C345.9,268.8,345.6,270.1,346,271z"/>
<path fill="#EAEAEA" stroke="#D6D6D6" stroke-miterlimit="10" d="M353.8,265.9c-0.1,0.4-0.2,0.9-0.1,1.3s0.5,0.9,0.9,0.7
	c0.7-0.3,2.6-2,2.3-3.3c0-0.1,0-0.2,0-0.2c-0.1-0.3-0.5-0.2-0.7,0c-0.2,0.2-0.4,0.6-0.6,0.6c-0.4-0.1-0.5-0.6-0.8-0.9
	c-0.1-0.1-0.2-0.2-0.3-0.1c-0.1,0-0.2,0.2-0.2,0.4C354,264.7,353.9,265.3,353.8,265.9z"/>
<path fill="none" stroke="#D6D6D6" stroke-miterlimit="10" d="M283,373.8c-0.5-1.6-0.4-3.4,0.4-4.9c0.8-1.5,2.1-2.9,2.3-4.6
	c0.1-1.4-0.6-2.7-1.5-3.8c-0.9-1.2-2.1-2.4-3.5-2.8c-1.1-0.3-2.4,0-3.5-0.5c-1-0.5-1.7-1.6-2.3-2.5c-2.8-4-7.4-6.3-10.2-10.3
	c-1.7-2.5-2.6-5.4-3.4-8.3c-1.1-3.8-2.2-7.7-3.3-11.5c-1-3.3-1.9-6.6-2.6-10c-1.9-10.2-1.2-20.3,3.8-29.4c1.5-2.7,3-7,4-11.6
	c0.8-3.7,0.8-7.2-0.3-10.8c-1-3.6-0.7-7.7,0.4-11.3c2.2-6.9,7.5-12.3,12.6-17.4c2.4-2.4,4.7-4.7,7.6-6.5c2.3-1.4,4.8-2.4,7.3-3.3
	c3.4-1.3,7.2-2.5,10.6-1.1c2.1,0.9,3.6,2.8,5.6,4c2.3,1.3,5,1.6,7.3,2.8c1.3,0.7,2.4,1.6,3.7,2.2c2.8,1.3,6.3,0.8,8.6-1.2
	c3.1-2.6,4.2-7.3,7.8-9c1.4-0.6,2.9-0.8,4.3-1.4c0.9-0.5,1.7-1.2,2.4-1.9c2.5-2.5,4.3-5.6,5.5-8.9c1.1-3.3,1.5-6.9,3-10.1
	c1.4-3.2,4.4-6.1,7.9-6c5,0.1,8.9-4.9,10.9-9.5c0.3-0.8,0.6-1.6,1.3-2.1c0.7-0.5,1.7-0.5,2.5-0.4c2.2,0.1,5.4,2.3,6.5,0.5
	c3.3-5.5,4.8-10.4,8.7-16.1c3.5-5.1,1.7-15.1,2.9-21.2c0.4-2.2,1.2-4.3,1.3-6.5c0.3-4.8-2.3-9.2-5-13.1c-1.3-1.8-2.6-3.7-2.6-5.9
	c0-3.3,1.7-4.3,2.9-7.4c0.6-1.6-0.5-4.4,0.1-6c2.1-6,6.4-12.2,9.6-17.6c1.5-2.5,3.1-5.1,5.2-7.1"/>
<path fill="#EAEAEA" stroke="#D6D6D6" stroke-miterlimit="10" d="M273.6,313.8c-0.1-0.4-0.3-0.9-0.7-1c-0.3,0-0.5,0.1-0.7,0.3
	c-1.9,1.8-2.4,4.6-2.7,7.1c-0.1,1-0.3,2-0.2,3.1c0,0.5,0.1,1,0.4,1.4c0.3,0.4,0.9,0.9,1.2,0.6c0.7-0.7,0.6-1.9,1.2-2.7
	c0.3-0.5,0.7-0.9,0.7-1.5c0-0.7-0.5-1.3-0.8-1.9c-0.4-0.6-0.7-1.8,0-1.9c0.8-0.2,1.5-0.5,1.7-1.2
	C273.9,315.4,273.8,314.6,273.6,313.8z"/>
<path fill="none" stroke="#D6D6D6" stroke-miterlimit="10" d="M362,279.8c2.4-0.8,4.8-3.7,5.4-6.1c0.6-2.5,0.4-5,0.2-7.6
	c-0.5-6.6-1.1-13.1-1.6-19.7c-0.1-1.7-0.3-3.4-0.8-5c-0.9-2.5-2.7-4.6-2.9-7.2c-0.2-3,1.8-5.7,3.4-8.3c3.4-5.6,5-12.3,4.6-18.9
	c-0.1-0.8-0.1-1.7,0.1-2.5c0.2-0.8,0.7-1.6,1.1-2.3c1-1.5,2.1-2.8,3.4-4.1c1.4-1.5,3.1-3,3.6-5c0.3-1,0.3-2.1,0.2-3.1
	c0-2.2-0.2-5.1-0.3-7.3"/>
<path fill="#EAEAEA" stroke="#D6D6D6" stroke-miterlimit="10" d="M210.2,180.7c-0.7-0.7-1.7-1-2.7-1.4c-1.6-0.6-2.7-0.2-4.4-0.4
	c-0.9-0.1-2.7,0.2-3.1,1c-0.2,0.3-0.1,0.7-0.2,1.1c-0.2,0.7-1,1.1-1.8,1.3c-0.8,0.2-1.6,0.2-2.2,0.6c-0.8,0.5-1.2,1.5-1.1,2.5
	c0.1,0.9,0.4,2.2,1.3,2.4c1.2,0.3,1.9,1.3,3.2,1.5c1,0.2,0.2-2.3,1.1-2.9c0.2-0.1,0.5-0.2,0.8-0.2c0.7-0.1,1.5,0,2.2,0
	c0.3,0,0.6,0.1,0.9,0c0.3-0.1,0.6-0.4,0.8-0.6c0.7-0.7,1.5-1.4,2.5-1.6c1-0.2,1.6,1.2,2.6,0.9C211.6,184.6,211.2,181.7,210.2,180.7z
	"/>
<path fill="none" stroke="#585858" stroke-miterlimit="10" stroke-dasharray="4,1" d="M294.4-7.1c-0.9,3.1-0.7,6.3-0.8,9.5
	c-0.3,10.4-2.9,20.5-5.6,30.6c-1,3.8-4,10.4-0.3,11.7c1.9,0.6,3.7-1.7,5.7-1.7c2,0,4.1,1.2,4.5,3.1c0.4,1.6-0.5,3.3-1.4,4.7
	c-4,7.1-7,14.8-8.8,22.7c-0.1,0.6-0.3,1.3-0.6,1.9c-0.4,0.7-1.2,1.2-1.8,1.7c-3.1,2.3-5.8,5.3-7.7,8.6c-1.5,2.7-2.6,5.6-3.6,8.5
	c-1.8,4.9-3.5,9.7-5.3,14.6c-0.8,2.1-1.6,4.3-1.7,6.6c-0.2,3.4-0.7,8.2,2.3,9.9c2.1,1.1,3.4-2.9,5.8-3.4c2.7-0.6,5,2.5,5,5.3
	s-1.4,5.3-2.1,8c-1,3.5-1,7.3-2.6,10.6c-0.8,1.7-2.1,3.2-2.9,5c-1.8,3.7-1.4,8.1-1,12.2c0.2,2.1,0.4,4.3,1.3,6.2c0.4,1,1,1.9,1.3,3
	c0.8,2.6-0.4,5.5,0.1,8.2c0.5,2.8,2.7,5,3.6,7.7c0.7,2.3,0.5,4.9,0.2,7.3c-1,8.2-2,16.5-4.9,24.2c-2,5.4-4.9,10.5-7.3,15.7
	c-2.7,5.8-4.7,12.4-2.8,18.5c0.9,3,2.5,5.8,2.3,8.9c-0.2,3.9,2.1,7.1,0.5,11c-0.9,2.2-1.9,5.2-1.5,7.6c0.2,1.2,0.8,2.4,1.1,3.6
	c0.4,1.9,0.2,3.8-0.1,5.7c-1,5.6-2.8,11.1-3.2,16.8c-0.2,3.1,0.1,6.4-1,9.3c-1,2.8-3.1,5.2-3.5,8.2c-0.1,1-0.1,2.1-0.7,2.9
	c-0.9,1.2-2.7,1.1-4.2,0.8c-1.8-0.3-3.8-1.6-5.5-0.9c-2.6,1.2,2.2,5.2,1.8,8c-0.1,1-0.8,1.9-1.2,2.9c-1.3,3,0,6.8-1.4,9.8
	c-1,2-3.3,3.6-3.2,5.9c0.2,2.7,3.8,4.4,3.6,7.2c-0.1,1.5-1.4,2.7-2.7,3.3s-2.9,0.9-4.2,1.6c-0.5,0.3-1,0.6-1.6,0.6
	c-2,0.1-3.2-3.7-5-2.8c-0.5,0.3-1,0.9-1.6,0.8c-0.6-0.1-0.7-0.9-1.1-1.3c-0.9-0.9-2.5,0.3-3,1.5c-1.5,3.2-1.5,7,0,10.2"/>
<text transform="matrix(0.8678 0.4968 -0.4968 0.8678 4.2234 200.0938)" fill="#585858" font-family="'Verdana-Italic'" font-size="8">Horse</text>
<text transform="matrix(0.9994 3.383313e-02 -3.383313e-02 0.9994 48.4016 227.9108)" fill="#585858" font-family="'Verdana-Italic'" font-size="8">Ridge</text>
<path fill="none" d="M56,275.2c2.3,0.2,4.5,1.1,6.7,2c4.8,2,9.7,4,14.5,6.1c3.8,1.6,7.6,3.2,10.5,6c4.6,4.5,6.7,11.8,12.6,14.5"/>
<text transform="matrix(0.923 0.3849 -0.3849 0.923 61.7118 279.6016)"><tspan x="0" y="0" fill="#7D7D7D" font-family="'Verdana-Italic'" font-size="7">9</tspan><tspan x="4.5" y="0" fill="#7D7D7D" font-family="'Verdana-Italic'" font-size="7">2</tspan><tspan x="8.9" y="0" fill="#7D7D7D" font-family="'Verdana-Italic'" font-size="7" rotate="0">0</tspan><tspan x="13.4" y="0" fill="#7D7D7D" font-family="'Verdana-Italic'" font-size="7" rotate="0">0</tspan></text>
<path fill="none" d="M12,166.4c9.2,6.9,22.9,1.9,34.3,1.6c3.4-0.1,7.1-0.4,9.6-2.7"/>
<text transform="matrix(0.9987 -5.037402e-02 5.037402e-02 0.9987 25.0614 172.6768)"><tspan x="0" y="0" fill="#7D7D7D" font-family="'Verdana-Italic'" font-size="7">8</tspan><tspan x="4.6" y="0" fill="#7D7D7D" font-family="'Verdana-Italic'" font-size="7" rotate="-3.6">8</tspan><tspan x="9.1" y="-0.3" fill="#7D7D7D" font-family="'Verdana-Italic'" font-size="7" rotate="-4.8">0</tspan><tspan x="13.5" y="-0.7" fill="#7D7D7D" font-family="'Verdana-Italic'" font-size="7" rotate="-4">0</tspan></text>
<text transform="matrix(1 0 0 1 316.2109 277.7316)"><tspan x="0" y="0" fill="#585858" font-family="'Verdana-Italic'" font-size="8">Windy</tspan><tspan x="6.2" y="9.6" fill="#585858" font-family="'Verdana-Italic'" font-size="8">Lake</tspan></text>
<text transform="matrix(1 0 0 1 196.8889 21.1429)"><tspan x="0" y="0" fill="#585858" font-family="'Verdana-Italic'" font-size="8">Edson</tspan><tspan x="0" y="9.6" fill="#585858" font-family="'Verdana-Italic'" font-size="8">Lake</tspan></text>
<text transform="matrix(1 0 0 1 167.8658 154.9865)"><tspan x="0" y="0" fill="#7BBCEB" font-family="'Verdana-Italic'" font-size="8">Hart Lakes</tspan><tspan x="0" y="9.6" fill="#7BBCEB" font-family="'Verdana-Italic'" font-size="8">(upper)</tspan></text>
<text transform="matrix(1 0 0 1 205.0766 193.5884)"><tspan x="0" y="0" fill="#585858" font-family="'Verdana-Italic'" font-size="8">Hart Lakes</tspan><tspan x="0" y="9.6" fill="#585858" font-family="'Verdana-Italic'" font-size="8">(lower)</tspan></text>
<text transform="matrix(-0.1156 -0.9933 0.9933 -0.1156 253.209 321.4114)" fill="#585858" font-family="'Verdana-Italic'" font-size="8">Buena</text>
<text transform="matrix(0.8657 -0.5005 0.5005 0.8657 276.1728 229.6079)" fill="#585858" font-family="'Verdana-Italic'" font-size="8">Vista</text>
<text transform="matrix(0.8677 -0.4971 0.4971 0.8677 346.6325 196.8071)" fill="#585858" font-family="'Verdana-Italic'" font-size="8">Creek</text>
<text transform="matrix(1 0 0 1 93.5308 230.5927)" fill="#585858" font-family="'Verdana-Italic'" font-size="8">× 9496</text>
<path fill="none" d="M18.5,61.4c10-12,27.6-13.1,43.1-15c5.3-0.7,10.7-1.6,15.4-4.1"/>
<text transform="matrix(0.9921 -0.1253 0.1253 0.9921 51.5356 50.1309)"><tspan x="0" y="0" fill="#7D7D7D" font-family="'Verdana-Italic'" font-size="7">8</tspan><tspan x="4.4" y="0" fill="#7D7D7D" font-family="'Verdana-Italic'" font-size="7" rotate="0.4">4</tspan><tspan x="8.9" y="0" fill="#7D7D7D" font-family="'Verdana-Italic'" font-size="7" rotate="-0.2">0</tspan><tspan x="13.5" y="0" fill="#7D7D7D" font-family="'Verdana-Italic'" font-size="7" rotate="-3.1">0</tspan></text>
<path fill="none" d="M214.9,139c4.5-1.9,9.8,0.8,12.5,4.8s1.5,9.7,4.1,13.9"/>
<text transform="matrix(0.879 0.4769 -0.4769 0.879 219.7255 140.8359)"><tspan x="0" y="0" fill="#7D7D7D" font-family="'Verdana-Italic'" font-size="7">8</tspan><tspan x="3.6" y="-0.1" fill="#7D7D7D" font-family="'Verdana-Italic'" font-size="7" rotate="19.5">6</tspan><tspan x="7" y="0.8" fill="#7D7D7D" font-family="'Verdana-Italic'" font-size="7" rotate="43">0</tspan><tspan x="9.9" y="3.6" fill="#7D7D7D" font-family="'Verdana-Italic'" font-size="7" rotate="53.1">0</tspan></text>
<path fill="none" d="M362.8,45.9c0.9,4,0,8.1-0.1,12.2c-0.1,3.6,0.5,7.2-0.2,10.8"/>
<text transform="matrix(-3.380994e-02 0.9994 -0.9994 -3.380994e-02 360.6952 48.5391)"><tspan x="0" y="0" fill="#7D7D7D" font-family="'Verdana-Italic'" font-size="7">8</tspan><tspan x="4.3" y="0.1" fill="#7D7D7D" font-family="'Verdana-Italic'" font-size="7" rotate="2.5">0</tspan><tspan x="9" y="0.3" fill="#7D7D7D" font-family="'Verdana-Italic'" font-size="7" rotate="-3.1">0</tspan><tspan x="13.4" y="0" fill="#7D7D7D" font-family="'Verdana-Italic'" font-size="7" rotate="-2.7">0</tspan></text>
<path fill="none" d="M334.7,308.6c1,1.1,2.5,1.7,3.9,2.2c7.1,2.4,14.4,4.9,21.9,4.4"/>
<text transform="matrix(0.9474 0.32 -0.32 0.9474 337.7265 313.1855)"><tspan x="0" y="0" fill="#7D7D7D" font-family="'Verdana-Italic'" font-size="7">8</tspan><tspan x="4.5" y="0" fill="#7D7D7D" font-family="'Verdana-Italic'" font-size="7" rotate="-1.8">8</tspan><tspan x="9.1" y="-0.1" fill="#7D7D7D" font-family="'Verdana-Italic'" font-size="7" rotate="-5.2">0</tspan><tspan x="13.8" y="-0.5" fill="#7D7D7D" font-family="'Verdana-Italic'" font-size="7" rotate="-10.4">0</tspan></text>
<g>
	<g>
		<polyline fill="none" stroke="#7D7D7D" stroke-miterlimit="10" points="85.2,341.6 85.2,348.7 275.4,348.7 275.4,341.7 		"/>
		<line fill="none" stroke="#7D7D7D" stroke-miterlimit="10" x1="180.5" y1="341.4" x2="180.5" y2="348.7"/>
		<line fill="none" stroke="#7D7D7D" stroke-miterlimit="10" x1="161.2" y1="349.2" x2="161.2" y2="343.7"/>
		<line fill="none" stroke="#7D7D7D" stroke-miterlimit="10" x1="142.4" y1="349.2" x2="142.4" y2="343.7"/>
		<line fill="none" stroke="#7D7D7D" stroke-miterlimit="10" x1="123.3" y1="349.2" x2="123.3" y2="343.5"/>
		<line fill="none" stroke="#7D7D7D" stroke-miterlimit="10" x1="104.6" y1="349.2" x2="104.6" y2="343.7"/>
	</g>
	<text transform="matrix(1 0 0 1 83.7837 339.1469)" fill="#7D7D7D" font-family="'Verdana'" font-size="8">0</text>
	<text transform="matrix(1 0 0 1 174.2948 339.1469)" fill="#7D7D7D" font-family="'Verdana'" font-size="8">0.5</text>
	<text transform="matrix(1 0 0 1 258.3417 339.1469)" fill="#7D7D7D" font-family="'Verdana'" font-size="8">1 mi</text>
</g>
</svg>
