<?xml version="1.0" encoding="utf-8"?>
<!-- Generator: Adobe Illustrator 17.1.0, SVG Export Plug-In . SVG Version: 6.00 Build 0)  -->
<!DOCTYPE svg PUBLIC "-//W3C//DTD SVG 1.1//EN" "http://www.w3.org/Graphics/SVG/1.1/DTD/svg11.dtd">
<svg version="1.1" id="Layer_1" xmlns="http://www.w3.org/2000/svg" xmlns:xlink="http://www.w3.org/1999/xlink" x="0px" y="0px"
	 viewBox="0 0 360 360" enable-background="new 0 0 360 360" xml:space="preserve">
<path fill="none" stroke="#E1E1E1" stroke-miterlimit="10" d="M264.6-6.1c3.7,10.9,7,21.9,12.4,32c6,11.3,14.6,21.3,25,28.9
	c9.4,7,8.4,24.7,2.1,34.6c-0.4,0.7-1.6,0.2-2.1-0.4s-0.9-1.3-1.5-1.8c-1.3-1-3.2-0.6-4.4,0.5s-1.9,2.6-2.6,4.1
	c-1.7,3.3-4.2,6.1-7.1,8.4c-2.5,1.9-5.4,3.4-7.4,5.8c-2,2.4,0.1,5.7-1,8.6c-1.4,3.9-8.2,1.1-12.3,1c-1.1,0-2.3-0.1-3.4-0.4
	c-1.3-0.3-2.5-1-3.7-1.6c-1.3-0.7-2.7-1.3-4-2c-0.8-0.4-1.6-0.8-2.4-1.2c-4.3-2.1-9.3-4.2-13.8-2.6c-4.2,1.5-6.7,5.9-10.3,8.5
	c-3.1,2.2-7,3.2-10.8,2.6c-3-0.5-6.1,1.7-8.8,0.3c-1.5-0.8-1.7-2.9-3.3-3.4c-3.4-1.1-7-1.7-10.6-1.6c-2.3,0.1-4.6,0.4-6.9,0.6
	c-6.4,0.4-12.8-0.8-18.6-3.5c-5.8-2.7-10.7-7.6-15.9-11.3c-1-0.7-2.1-1.5-3.3-1.7c-3.3-0.7-6.6,2.9-9.7,1.8c-5-1.7-10.1-3.4-15.4-3
	c-2.7,0.2-5.5,0.8-8-0.3c-1.1-0.5-2-1.4-3-2c-1.5-0.9-3.3-1.4-4.9-2.2c-2.5-1.4-4.4-3.8-5.9-6.2c-2.4-3.7-4.5-7.7-6.2-11.8
	c-0.8-1.9-1.5-4-3.1-5.4c-0.7-0.6-1.6-1.1-2.1-1.9c-0.9-1.5-0.2-3.4,0.2-5.2c0.5-2.8-0.2-5.9-1.9-8.1c-0.6-0.8-1.5-1.7-1.5-2.7
	c-0.1-1.9,2.3-3,2.5-4.9c0.1-1.4-1.1-2.5-1.6-3.8c-0.5-1.4-0.2-2.9-0.1-4.4c0.7-6.6-3.3-12.3-5.6-18.6C81.4,14.8,83.7,9.2,85,4.2
	c0.9-3.7,0.7-7.3-0.2-11"/>
<path fill="none" stroke="#E1E1E1" stroke-miterlimit="10" d="M104.2-5c0.1,1.5,0.1,3,0.1,4.6c0.3,17.8,1,35.7,2.2,53.5
	c0.6,8.7,1.5,18,7.2,24.6c9.4,10.8,26.4,8.8,40.1,13c6.2,1.9,12,5.2,18.5,5.6c12.6,0.8,25.5-1.9,36.6-7.8c6.3-3.3,6.4-12.6,9.6-19
	c1.2-2.3,4.1-1.7,5.9-3.6c6.7-7-16.2-9.5-25.9-9.8c-0.4,0-1.3-0.1-1.6-0.4c-11.8-11-4.8-32.4,0.8-47.6c1.6-4.4,3.6-9.1,4.7-13.8"/>
<path fill="none" stroke="#E1E1E1" stroke-miterlimit="10" d="M371.9,235.9c-8.3,4.1-18.4,4.3-26.8,0.6c-1.8-0.8-3.5-1.8-5.2-2.7
	c-2-1.1-3.9-2.2-5.5-3.8c-1.9-1.8-6.9-6.3-7.6-6.7c-1.6-0.8-2.5-2.3-4.2-2.2c-2.3,0.1-12.4,2.9-13.5,5c-0.6,1.2-0.6,4.1-0.8,5.3
	c-0.3,1.6-0.1,3.2-0.7,4.7c-7.8,20.3-23,41.7-28.4,63.1c-1.1,4.3-2.7,8.5-5.4,12c-0.7,0.9-1.6,1.8-2.4,2.7c-1.2,1.2-2.3,2.4-3.5,3.5
	c-6.2,6.4-12.1,16.4-21,16.2c-6.9-0.1-12.6-5.5-19-8.2c-4.8-2.1-10.3-4.1-15-1.9c-1.9,0.9-3.6,2.5-5.7,2.7c-1.3,0.1-2.6-0.4-4-0.4
	c-1.4,0-2.8,0.6-4.1,1.1c-5,2.1-10,4.3-15,6.4c-0.8,0.4-1.7,0.7-2.3,1.4c-0.5,0.6-0.8,1.3-1,2c-1.3,4.3,0.5,8.9,2.2,13
	c0.2,0.5,0.4,1,0.8,1.3c0.9,0.6,2,0.1,3-0.4c5.9-3.2,11.9-6.4,18.5-8.2c6.5-1.7,13.7-1.9,19.8,1c1.5,0.7,3.5,1.5,4.6,0.3
	c0.3-0.3,0.5-0.7,0.9-0.9c0.7-0.4,1.5,0.3,2.1,0.9c2.9,2.8,7,3.8,11,4.1c4,0.3,8-0.1,12,0.4c6.9,0.8,12.3,5.5,17.9,9.5
	c2.3,1.6,5.4,2,8,3.1c2.6,1,4.8,2.4,7.4,3.4c2,0.8,4.1,1.6,5.9,2.8c0.9,0.6,1.7,1.3,2.6,1.9c2.6,1.9,5.6,3.1,8.4,4.6
	c2.8,1.5,9.2,4.2,6.9,6.4c-0.3,0.3-0.7-0.4-1.1-0.6"/>
<path fill="none" stroke="#E1E1E1" stroke-miterlimit="10" d="M371.8,228.6c-3.4,2.4-7.9,2.8-12,2.8c-4.3-0.1-8.6-0.6-12.5-2.3
	c-3.9-1.7-7.4-4.8-8.9-8.8c-0.6-1.5-0.9-3.2-2-4.4c-0.9-0.9-1.9-1.4-1.8-2.7c0.2-3-4-4.5-5.8-4.3c-5.4,0.6-10.8,1.2-16.1,1.9
	c-5.1,0.6-10.4,1.2-14.9,3.7c-0.7,0.4-1.5,0.9-1.9,1.6c-0.4,0.6-0.7,1.4-0.7,2.2c0.4,7.9-1.4,15.4-5,22.8
	c-2.7,5.5-6.9,10.2-9.6,15.7c-2.6,5.2-5.1,10.4-6.4,16.1c-0.9,4.2-1.1,8.5-2.2,12.6c-1.4,5.4-4.2,10.3-7,15.1
	c-2.2,3.7-4.3,7.4-6.5,11.2c-2.7,4.6-6.5,9.8-11.8,9.2c-5.6-0.7-8.2-7.5-13.1-10.3c-4.1-2.3-9.1-1.5-13.7-0.7
	c-5,0.9-9.9,1.8-14.7,3.5c-8,3-15.2,8.3-23.6,9.3c-2.2,0.3-4.5,0.2-6.6,1c-3.2,1.2-5.3,4.1-7.5,6.7s-5.3,5-8.6,4.6
	c-3.5-0.4-7.8-5.1-10-2.3c-2.2,2.7-2.6,6.4-4.4,9.5c-7.4,12.7-13,26.3-16.8,40.4"/>
<path fill="none" stroke="#E1E1E1" stroke-miterlimit="10" d="M57.8-7c0,2.6-0.2,5.2-1,7.7c-2,5.9-7.7,10.9-6.6,17
	c1,5.3,6.8,8.4,8.4,13.6c0.3,0.8,0.4,1.8,1.1,2.4c0.7,0.7,1.7,0.7,2.6,1c2.6,0.8,4.3,3.2,5.1,5.8c2.5,6.9,0.1,14.6-2.2,21.6
	c-1.2,3.7-2.5,7.4-3.7,11c-0.7,2.2-1.5,4.5-2.9,6.3c-1,1.4-2.4,2.5-3,4.1c-1.5,3.4,0,7.9,2.8,10.4c2.5,2.3,7.1,0.9,9.1-1.9
	c1.9-2.7,3.1-9.5,4.7-12.5c1.6-3,3.7-3.4,7-2.9c2.9,0.5,4.8,3.1,6.4,5.5c0.7,1,1.4,2,2,3.1c3.5,5.2,9.7,8.3,14.6,12.2
	c1.9,1.5,3.7,3,5.8,4.3c3.3,2,7.1,3.3,10.3,5.5c1,0.7,2.1,1.5,3.2,1.2c1.3-0.3,1.9-1.8,2.6-2.9c1.9-3,6.4-3.9,9.3-2
	c1.4,0.9,2.4,2.3,3.6,3.3c4.1,3.5,10.2,3.3,15.4,4.9c4.3,1.3,8,3.9,11.6,6.5c5,3.5,10,7,15,10.5c3.4,2.4,6.9,4.9,8.6,8.7
	c1.7,3.8,0.7,9-3.1,10.6c-1,0.4-2.1,0.6-3.2,0.7c-4,0.5-8,1-12,1.4c-3.2,0.4-6.5,0.8-9.5,2.1c-1.1,0.5-2.2,1.1-3.3,1.8
	c-1.4,0.8-2.8,1.6-4.2,2.5c-4.2,2.5-8.6,5.2-10.9,9.5c-1.8,3.4-2.1,7.3-2.3,11.1c-0.2,2.9-0.4,5.7-0.6,8.6
	c-0.3,4.1-0.5,8.3,0.6,12.3c0.7,2.3,1.8,4.4,3,6.5c3.8,6.3,8.8,11.9,13.7,17.4c4.9,5.4,8.6,10.4,14.7,14.5c1.8,1.2,9.5-0.7,11.8-2.2
	c11.7-8,25.7-6.4,32.9-18.6c1.3-2.1,2-4.6,2.7-6.9c2-6.6,4-13.2,6-19.7c0.8-2.8,1.7-5.6,1.9-8.5c0.3-3.9-0.6-7.7-1.5-11.5
	c-1-4.4-2.1-8.9-3.1-13.3c-0.8-3.2-1.5-6.6-0.5-9.8c1-3.1,5-2.5,7.6-4.5c2-1.6,2.1-4.5,4.4-5.7c2.3-1.1,5-2.2,5.9-4.7
	c0.4-1.1,0.4-2.3,0.7-3.4c1.1-3.9,6.4-5.1,10.1-3.7s6.5,4.7,9.4,7.5c1.7,1.6,3.7,3.2,6.1,3.4c1.7,0.1,3.3-0.5,4.9-1.1
	c4.4-1.7,8.8-3.4,13.3-5.1c2.7-1,5.6-2.3,6.7-4.9c1.7-4.1-2.1-9.1-0.3-13.2c1.1-2.6,4.3-3.8,7.1-3.7c2.8,0.2,5.5,1.4,8,2.6
	c11.5,5.4,21.6,9.3,33.4,15.5c2.5,1.3,3.7,3.9,6.2,5.3c4.2,2.4,9,4,12.9,6.8c1,0.7,2,1.5,2.9,2.3c4.1,3.1,8.7,5.5,13.3,7.9"/>
<path fill="none" stroke="#E1E1E1" stroke-miterlimit="10" d="M-13.2,29.1c1.6-0.6,3.1-0.9,4.5-0.3c1.3,0.6,0.5,3.1,1.6,3.9
	c5.6,4.1,14.3,3.5,17.2,9.8c1.8,3.8,1.6,8.3,2.8,12.4c1.6,5.5,5.8,10.1,11.1,12.2c2,0.8,4.1,1.2,6,2.3c3.4,1.9,5.5,5.6,6.7,9.3
	c1.4,4.3,1.8,9,1.1,13.5c-0.7,4.5,1.6,10,3.2,14.2c1.4,3.6,3.5,7.3,6.8,9.2c4.3,2.5,9.9,1.8,14.3-0.4s8-5.9,11.6-9.3
	c3-2.8,6.1-5.5,9.8-7.2c3.7-1.7,8.2-2.1,11.8-0.3c1.9,0.9,3.4,2.4,5,3.8c3.1,2.7,6.4,5.2,9.9,7.3c1.2,0.7,2.3,1.4,3.3,2.3
	c1.8,1.7,2.9,4,4.3,6s3.5,3.9,6,3.8c2.2,0,4.1-1.6,6.1-2.5c2-0.9,5-0.8,5.8,1.3c0.7,1.7-0.6,3.5-2.1,4.6c-3.3,2.3-7.7,2.5-11.6,3.5
	c-3.9,1.1-8.1,4-7.8,8.1c0.1,1.4,0.7,2.7,1.2,3.9c4.2,9.5,6.9,19.7,8,30.1c1.7,15.9-0.3,32.3,3.9,47.8c1.9,6.9,5,13.4,9.2,19.3
	c1.3,1.9,1.5,4.1,2.8,6c4.9,7.1,10.6,11.3,16.2,17.9c1.7,2,5.6,4.4,7.5,6.2c1.9,1.8,4.4,3.3,7.1,3.1c1.5-0.1,3-0.7,4.5-1.3
	c14.2-5.9,28.5-12.5,39.1-23.6c2.8-3,9-8.5,11.8-11.5c5-5.6,10.9-10.9,13.9-17.8c1.6-3.6,1.6-7.8,3.2-11.4c1-2.4,2.2-4.7,2.9-7.2
	c1.2-4,1.3-8.2,1.8-12.4c0.7-5.6,2.2-11,4.5-16.1c1-2.1,2.1-4.2,3.7-5.9c3.2-3.3,7.9-4.6,12.3-6.1c5-1.7,9.9-3.9,14.5-6.6
	c3.3-1.9,6.5-4.1,9.5-6.5c2.7-2.2,5.3-4.8,8.4-6.4c7.3-3.9,16.1-2.5,24.2-1c4.1,0.8,8.3,3.3,12.4,2.3c1.4-0.3,2-0.8,3.4-1.1
	c1.4-0.2,3,0.3,3.5,1.6c0.2,0.5,0.2,1,0.4,1.4c0.7,1.2,2.3,1,3.7,1c1.3,0,2.6,0.3,3.9,0.7c1.6,0.4,3.3,0.9,4.4,2.1
	c0.6,0.7,0.7,1.9,1.5,2.5c3.8,2.9,9.9,5.2,13.7,4.3"/>
<path fill="none" stroke="#E1E1E1" stroke-miterlimit="10" d="M-14.7,134.1c0.7-0.2,1.3-0.5,2-0.8c4.7-1.9,9.4,3.3,14.3,2
	c10-2.7,4.5-20.5,1.6-30.4c-1-3.4-2.1-7.6,0.6-9.8c3.1-2.5,7.5,0.3,10.4,3.1c6.4,6.3,12.9,13.6,13.9,22.5c0.7,6.3-1.4,13.3,1.8,18.8
	c0.6,1.1,1.5,2.1,2.6,2.4c0.9,0.3,2,0.2,3,0c8-1.7,17.4-13.7,23-7.7c2.4,2.6,2.8,6.8,6.2,7.8s7.3-0.2,9.6-2.9c2-2.5,2.5-5.9,3.5-9
	c1.1-3.4,3-6.6,5.9-8.6c3-2,8.4-3.4,10-0.2c2.9,5.6,0.4,12.6,0.5,18.9c0.2,8.3,0.8,17.3,6.3,23.4c0.6,0.7,1.4,1.4,1.8,2.2
	c0.9,1.7,0.8,3.7,1.1,5.5c0.8,4.2,5.9,5,8.6,8.3c5.5,6.6,1.3,18.6,1.6,58.7c0.1,6.9,7,11.8,10.2,17.9c1.2,2.3,2.5,4.7,3.7,7
	c2.1,4,4.3,8,6.4,12c2.3,4.3,4.6,8.7,7.1,12.9c1.1,1.8,2.1,3.7,3.2,5.5c0.7,1.1,1.3,2.3,2.4,3c1.7,1.2,4,1.2,6.2,1
	c6.5-0.7,12.9-2.8,18.6-6c3.1-1.7,6-3.8,9.3-5.1c4.3-1.7,9.3-2,13-4.8c1.8-1.3,3.1-3.1,4.6-4.8c5-5.4,11.7-9,17.7-13.2
	c6.5-4.6,12.6-9.8,17.6-15.9c2.1-2.6,6.1-8,8.1-10.8c2.4-3.3,4.7-6.8,7.1-10.2c2.1-3.1,4.3-6.3,4.9-10c0.2-1.7,0.1-3.4,0.4-5
	c0.7-4.2,3.6-7.8,4.2-12.1c0.2-1.4,0.2-2.9,0.3-4.3c0.3-2.6,1.2-5.2,2.1-7.7c1.1-3,2.3-6.2,4.6-8.5c1.8-1.9,4.2-3,6.6-4.1
	c4.9-2.4,9.8-4.7,14.7-7.1c1.3-0.6,2.7-1.3,3.8-2.3c1.2-1,2-2.3,3.1-3.5c2.4-2.6,5.7-4.2,9.2-4.3c4.6-0.2,9.1,2,13.7,1.7
	c2.4-0.1,4.7-0.9,7-1.7c4.8-1.7,9.6-3.5,14.3-5.5c2.6-1.1,4.4-2.5,7.2-3.3c2.7-0.8,5.6-0.3,8.4,0.1c1.6,0.3,3.2,0.5,4.7,1.2
	c1.2,0.6,2.3,1.5,3.6,1.9c1.6,0.6,3.3,0.5,4.8,1.2c1.9,0.9,3.6,3,5.5,2.4"/>
<path fill="none" stroke="#E1E1E1" stroke-miterlimit="10" d="M-13.9,153c3.2,2.1,7,3,10.8,3.8c6,1.3,13.6,2,17-3.1
	c0.8-1.1,1.2-2.4,2.1-3.4c0.9-1,2.5-1.6,3.6-0.9c0.6,0.4,0.9,1.1,1.3,1.8c3.2,5.4,10.9,5.8,17,4.2c6.1-1.6,14.9-8.9,18.3-3.7
	c1.4,2.1,1.3,4.8,3.4,6.3s4.5,2.9,5.3,5.3c1.2,3.5-1.5,7-4.1,9.6c-5.4,5.7-10.9,11.4-16.3,17.1c-1.1,1.2-2.3,2.5-2.5,4.1
	c-0.3,3.1,2.9,5.2,5.7,6.5c9.8,4.7,21.3,9.4,31.1,4.8c2.9-1.4,5.5-3.5,8.4-4.8c3-1.3,6.7-1.6,9.2,0.4c2.6,2.2,2.8,6.1,2.8,9.5
	c-0.1,15-0.5,30.3-0.1,45.4c0,1.6,0.1,3.3,0.8,4.8c0.6,1.4,1.7,2.5,2.9,3.5c6.9,6.3,14.7,11.9,19.6,19.9c5.5,9.2,3.8,23.8,13,29.3
	c3,1.8,15.8-0.6,22.3-2.7c13.3-4.3,26.6-9,38.7-16c9.3-5.4,17.8-12.1,26.3-18.7c3.7-2.9,7.3-5.8,11-8.7c8.4-6.6,17.6-13.2,21.9-22.9
	c0.6-1.4,1.7-4.1,2.1-5.6c0.9-3.5,1.6-7,3.3-10.1c0.8-1.4,1.7-2.8,1.9-4.4c0.2-1.7-0.4-3.5-0.5-5.2c-0.1-2.9,1.3-5.6,2.1-8.4
	c1.3-4.6,1-9.5,1.9-14.2c0.9-4.7,3.6-9.6,8.3-10.8c2.4-0.6,4.9,0,7.4,0.3c8.6,1,17.4-1.3,25.1-5.3c2.1-1.1,4.2-2.4,6.6-2.9
	c1.5-0.4,3.1-0.4,4.7-0.5c5.3-0.4,10.5-2,15.2-4.5c4.9-2.7,7.8-8.4,11.6-12.5c0.9-1,1.8-2,3-2.6c0.9-0.5,1.8-0.7,2.8-0.9
	c3.3-0.7,6.7-1.3,10-1.8c0.4-0.1,0.9-0.1,1.3,0c0.6,0.2,0.9,0.8,1.1,1.4c0.8,1.6,1.7,3.1,3.1,4.1c1.4,1,3.3,1.5,4.9,0.9"/>
<path fill="none" stroke="#E1E1E1" stroke-miterlimit="10" d="M-13.1,166.9c0.6,0.4,1.1,0.8,1.8,1.2c4.9,3,11.1,3.7,16.5,1.9
	c2.4-0.8,4.6-2,6.9-2.9c5.2-2.1,10.9-2.5,16.6-2.9c5.8-0.4,11.5-0.8,17.3-1.3c0.9-0.1,1.9-0.1,2.6,0.5c0.5,0.4,0.8,1,1,1.7
	c0.7,2,1.5,4,1.6,6.1c0.2,5.6-4.1,10.2-8,14.2s-8.1,8.9-7.5,14.4c0.5,4.2,3.8,7.7,7.7,9.6s8.2,2.4,12.4,2.9
	c6.1,0.7,12.3,1.4,18.4,2.1c2.8,0.3,5.8,0.7,7.9,2.6c2.8,2.4,3.3,6.5,3.3,10.2c0,4,0.7,8.2,0.4,12.2c-0.5,6,0.6,17.9,0.6,23.9
	c0.1,4,1.2,7.9,3.3,11.3c0.5,0.8,1.1,1.7,2,2.1c0.9,0.5,1.9,0.6,2.9,0.8c3.7,0.7,7,2.9,10.1,5.1c3.6,2.5,7.4,5.1,9.8,8.8
	c4.9,7.4,3.8,18.1,10.1,24.4c1.3,1.3,3,2.9,4.8,3.4c5.3,1.6,10.5,3.2,15.8,4.8c1.5,0.5,3.1,0.9,4.7,1.1c2.3,0.3,4.6-0.1,6.9-0.5
	c3.8-0.8,7.6-2,11.1-3.7c8.3-3.8,15.6-9.7,23.7-14c8.5-4.4,17.8-7,27.1-9c3.9-0.8,7.8-1.6,11.7-2.2c2.3-0.4,4.8-0.7,7,0
	c1.1,0.4,2.1,0.9,3.1,1.5c2.9,1.7,5.6,6.6,8.6,5.1c6-3,2.6-13.2,5.8-19.2c1.7-3.1,3.6-6.1,5.4-9.2c6.4-10.9,7.4-23.8,12.2-35.5
	c2.7-6.6,6.8-12.6,7-19.7c0-1.7,0-3.3-0.5-4.9c-0.9-3.2-5-7.4-2.4-9.5c3.7-3.1,9.6-0.8,14.4-1.2c5.8-0.5,11.6-1,17.1-2.8
	c2.4-0.8,4.7-1.8,7.1-2.5c3.1-0.9,6.4-0.5,9.6-1.3c5.4-1.3,11.9,0,15.7,4.2c1.7,1.9,1.7,4.7,2.7,7.1c1.8,4.6,3.8,9.4,7.6,12.6
	c1.3,1.1,3,2,4.7,1.8c0.7-0.1,1.5-0.3,2.2-0.1c0.4,0.1,0.7,0.4,1.1,0.5c1.7,0.8,3.7,0.2,5.4-0.5c2.4-1,4.8-2.1,7.2-3.3"/>
<path fill="none" stroke="#E1E1E1" stroke-miterlimit="10" d="M74.8,237.3c-0.3-2.5-0.5-5.1-0.8-7.6c-0.1-0.9-0.2-1.9-0.5-2.7
	c-1-2.5-3.9-3.5-6.5-4.3c-4.9-1.5-9.9-3-14.8-4.5c-2.3-0.7-4.7-1.4-6.4-3c-1.4-1.2-2.7-3-4.5-2.9c-1.6,0.1-2.7,1.7-2.8,3.3
	c-0.2,1.6,0.4,3.1,0.8,4.6c1.6,5.6,3.5,12.1,0.9,17.3c-1.8,3.6-2,7.7-3.3,11.5c-0.7,2-1.8,3.9-2.7,5.8c-2.4,5.4-2.8,11.4-3.1,17.3
	c-0.1,1.4,0,3.1,1.2,3.8c0.7,0.5,1.7,0.4,2.6,0.3c11.1-1.3,22.3-0.1,33.4,1c2,0.2,3.7,1.8,5.7,1.7c4.8-0.3,3.4-8.8,2.7-13.6
	C75.5,256.1,75.7,246.5,74.8,237.3z"/>
<path fill="none" stroke="#E1E1E1" stroke-miterlimit="10" d="M-13.7,193.9c2.2,2.1,5.5,3.3,8.4,2.1c2.8-1.1,4.4-4.2,5.6-6.9
	c0.5-1.1,1-2.2,0.8-3.4c-0.1-0.8-0.5-1.6-0.9-2.3c-2-3.4-4-6.9-7.2-9.2c-2.1-1.5-4.5-2.4-6.9-3.2"/>
<path fill="none" stroke="#E1E1E1" stroke-miterlimit="10" d="M-13.9,213.2c1.5,0.7,3.2,1.1,4.8,1.4c4.1,0.6,8.4,0.2,12.5,0.7
	s8.5,2.1,10.7,5.7c3.3,5.1,0.9,11.8,1.2,17.9c0.6,14.5-6.3,28.1-9.9,42.1c-0.9,3.5-1.7,7.6,0.3,10.6c1.6,2.4,4.7,3.4,7.5,3.4
	s5.6-0.9,8.4-1.7c7.5-2.2,15.2-3.6,22.9-4.2c4.1-0.3,8.3-0.4,12.4,0.6c4,1,7.7,2.9,11.7,4c3.4,0.9,6.9,1.2,10.3,1.8
	c5.8,1,11.5,2.7,17.2,4.5c5.2,1.6,10.5,3.3,14.5,7c4.2,3.8,6.4,9.3,7.4,14.8s1,11.2,1.4,16.8c0.4,6.1,1.3,12.3-0.7,18.1
	c-0.9,2.6-2.3,4.9-3.4,7.4c-2.5,5.5-3.6,11.6-3.3,17.6"/>
<path fill="none" stroke="#E1E1E1" stroke-miterlimit="10" d="M341.3-4.6c0.9,3.8,2.4,7.5,4.6,10.8c1.2,1.8,2.5,3.6,3.4,5.6
	c0.7,1.6,1.1,3.4,1.4,5.1c0.6,3.7,1.1,7.5,1.3,11.3c0.2,4.1,0.2,8.3,1,12.3c1.2,6.1,4.4,11.7,9,15.9c0.9,0.8,1.8,1.5,2.3,2.6
	c1.4,2.7-0.4,6-2.8,7.8c-2.4,1.8-5.4,2.7-7.8,4.5c-4.4,3.3-5.4,9.1-5.9,14.5c-0.5,5.9,6.3,17.5,12.1,21.3c5.6,3.6,11,5.3,14,10.4"/>
<path fill="none" stroke="#E1E1E1" stroke-miterlimit="10" d="M369.3,167.9c-2.1,0.1-2.7,2.9-2.7,5c0,3.1,0,6.3,0,9.4
	c0,2.2,0,4.4-0.8,6.5c-1.6,4.2-5.9,6.8-8,10.7c-0.2,0.4-0.4,0.9-0.4,1.4c0.1,0.4,0.3,0.8,0.5,1.1c1.3,2,2.6,4,3.9,6
	c0.9,1.4,1.9,2.9,3.4,3.7s3.7,0.6,4.6-0.8"/>
<path fill="none" stroke="#E1E1E1" stroke-miterlimit="10" d="M204.7,338.2c-0.6-0.7-2-1.3-1.7-2.1c0.8-2.4,4.9-1.2,7.3-1.7
	c1-0.2,2-0.5,3-0.9c1-0.5,1.8-1.1,2.9-1.4c2.7-0.9,6,1.2,6.4,4c0,0.1,0,0.3,0,0.4c-0.1,0.1-0.2,0.2-0.4,0.3c-3.5,1.7-7.7,2-11.5,1
	c-0.8-0.2-1.7-0.5-2.5-0.4c-0.4,0.1-0.8,0.2-1.2,0.4c-0.5,0.2-1,0.4-1.5,0.7c-0.2,0.1-0.4,0.2-0.6,0.1
	C204.8,338.4,204.8,338.3,204.7,338.2z"/>
<path fill="none" stroke="#E1E1E1" stroke-miterlimit="10" d="M361.9,381.6c1.1-0.5,0.3-2.2-0.6-3c-4.1-4-7.5-8.6-10.2-13.7
	c-0.5-1-1-2-1.9-2.7c-1-0.8-2.3-0.9-3.6-1.1c-6.5-0.9-13-2.5-19.1-4.9c-2.6-1-5.3-2.2-7.3-4.1c-1.1-1.1-2.1-2.4-3-3.7
	c-4.1-5.9-8.4-12.8-6.9-19.9c1.3-6,6.5-10.4,9-16c1.5-3.4,2.1-7.1,2.6-10.8c0.7-5.3,1.5-10.7,2.2-16c0.5-3.8,1-7.7,1.6-11.5
	c0.2-1.3,0.4-2.7,0-4c-0.4-1.3-1.5-2.4-2.8-2.4c-0.8,0-1.6,0.5-2.2,1c-3.1,2.6-3.9,6.9-4.6,10.8c-0.7,4-1.6,8-2.9,11.8
	c-2.6,7.3-7,13.8-11.3,20.3c-6.9,10.2-14.6,21-26.4,24.5c-1.6,0.5-4.7,1.2-3.8,2.6c1.2,1.9,1.6,3.3,3.1,4.9c1.5,1.6,4.1-2.9,6.1-2
	c3.4,1.6,3.3,6.8,5.8,9.8c0.3,0.4,0.7,0.8,1.2,1c0.8,0.3,1.7,0,2.5,0.3c1.4,0.6,1.4,2.9,2.8,3.3c0.7,0.2,1.4-0.2,2,0
	c1.1,0.2,1.7,1.6,2.7,1.9c0.7,0.2,1.4,0,2.1-0.1c3.6-0.3,6.1,3.5,9.3,5.3c1.9,1,4.1,1.4,5.8,2.8c0.8,0.6,1.3,1.5,1.9,2.3
	c2.5,3.7,5,7.5,7.5,11.2c0.2,0.3,0.4,0.6,0.2,0.9c-0.1,0.3-0.7,0.2-0.6-0.1"/>
<path fill="none" stroke="#E1E1E1" stroke-miterlimit="10" d="M369.1,374.4c-3.7-0.1-6.7-3-8.6-6.2s-2.9-6.8-4.9-9.9
	c-3.5-5.5-9.6-8.9-14.6-13.1c-2.8-2.4-5.3-5.1-7.8-7.8c-1.4-1.5-2.8-3-3.8-4.9c-4-7.4,0.5-16.3,2.8-24.4c3.1-11,7-22,7.2-33.6
	c0.1-7.2,4.2-13.6,9.4-18.6c1.7-1.6,4.9-4.1,3.4-5.9c-3.8-4.4-11.8-4-18-7.3c-4.2-2.2-7-8.3-10-7.6c-2.8,0.6-0.3,8.2-3.5,12.6
	c-1.6,2.2-5,6.1-6.9,8c-1.5,1.5-2.3,3.4-3.1,5.3c-7.5,17.3-15.2,34.5-24.8,50.7c-2.2,3.7-4.5,7.4-7.6,10.5c-2,2-4.3,3.8-6.7,5.4
	c-23.9,15.8-33.1,9-35,12.4c-1.5,2.7,5.3,3.2,8.4,2.8c3.1-0.4,6.3-1.5,9.4-0.7c2.3,0.6,4.2,2.1,6.5,2.9c2.2,0.8,4-1.8,6.3-1.5
	c1.7,0.2-0.2,3.9,1.1,4.9c3.1,2.2,7.7,1.2,10.2,4c0.7,0.7,1.2,1.6,2.1,2c1.1,0.5,2.5,0.4,3.6,1c0.9,0.5,1.5,1.5,2.3,2.2
	c1,0.8,2.3,1.1,3.5,1.4c12.8,3.4,24.3,11.9,31.2,23.2"/>
<path fill="none" stroke="#E1E1E1" stroke-miterlimit="10" d="M371,285c-0.5,0.4-0.8,1-1,1.5c-2.6,5.8-5.2,11.5-7.8,17.3
	c-1.3,2.9-2.6,5.9-3.5,9c-0.9,3.3-1.3,6.7-1.8,10c-0.5,3.7-0.9,7.5-0.6,11.3c0.4,5.8,2.5,11.4,4.7,16.8c0.6,1.6,1.3,3.2,2.4,4.5
	c2.4,2.8,6.4,3.5,9.7,5.3"/>
<path fill="none" stroke="#E1E1E1" stroke-miterlimit="10" d="M-13.4,286c3.5,4.8,7,9.6,10.6,14.4c1.7,2.3,3.4,4.6,5.9,6
	c4.5,2.4,10,0.9,15.1,0.1c8.2-1.3,16.6-0.5,24.9,0.4c6.6,0.7,13.2,1.5,19.4,3.8c3.9,1.5,6.6,4.8,10.2,6.9c3.6,2.1,16,4.6,17.5,6.8
	c2.2,3.2,3.9,11.6,3.8,15.5c-0.5,15-0.8,28.8,1.8,43.7"/>
<path fill="none" stroke="#E1E1E1" stroke-miterlimit="10" d="M-12.8,326.5c1.7,3.6,5.6,5.8,9.6,6.4s9.7-3.4,15.9-4.9
	c3.3-0.8,15.5,1.1,18.1,4.3c1.9,2.4,3.8,4.5,5.7,6.8c0.9,1,3.4,6.1,3.7,7.6c2.6,11.6,5.2,23.2,7.8,34.9"/>
<path fill="none" stroke="#E1E1E1" stroke-miterlimit="10" d="M-14.7,351.2c1.8,2.6,4.7,4.3,7.6,5.4c5.6,2.2,11.8,3.2,17.1,6.2
	c4.4,2.5,7.8,6.3,11.2,10c3,3.2,5.9,6.5,8.9,9.7"/>
<path fill="none" stroke="#E1E1E1" stroke-miterlimit="10" d="M288.8,379c-0.1-0.7,0.1-1.4-0.2-2.1c-2-4.4-7.3-6.3-11.4-8.8
	c-19.6-11.9-42.1-19-65-20.4c-1.9-0.1-3.8-0.2-5.7,0c-3.6,0.5-6.9,2.1-10.1,3.7c-1.5,0.8-3.1,1.5-4.2,2.8c-0.9,1-1.6,2.3-2.8,3.1
	c-2.9,1.9-7.3-0.3-9.8,1.9c-0.9,0.8-1.4,1.9-2,3c-1.6,2.7-4.4,4.4-7.2,5.8c-4.4,2.1-9.2,3.5-13.6,5.7c-4.4,2.2-8.5,5.5-10.2,10.1"/>
<path fill="none" stroke="#E1E1E1" stroke-miterlimit="10" d="M161.7,379.3c-0.1-1.1,0.9-2,1.9-2.6c6.1-3.8,14.3-3.5,20-7.9
	c1.7-1.3,3.1-3,4.9-4.3c4-3,9.2-3.5,14.2-3.9c7.5-0.6,15.2-1,22.6,0.3c3.1,0.5,6.5,1.6,8.3,4.2c1.1,1.6,1.6,3.8,3,5.1
	c2.7,2.5,7,0.8,10.6,1.1c6.1,0.4,14.8,5.3,13.5,11.3c-0.1,0.4-0.6,0.4-1,0.6"/>
<path fill="none" stroke="#D6D6D6" stroke-miterlimit="10" d="M177.1,72.5c0.3-3.2,3.7-4.9,6.3-5.4s5.7,0,8.3,0.3
	c0.7,0.1,1.3,0.4,2,0.7c0.3,0.1,0.2-0.6,0.4-0.8c0.8-0.8,2.5,1.1,3.4,0.5c0.8-0.6,1.1-1.8,2.1-2c0.4-0.1,0.9-0.1,1.3-0.3
	c0.9-0.4,1.4-1.4,2.3-1.6c0.5-0.1,0.9,0,1.4,0.1c1.5,0.4,2.8,2.5,4.2,1.8c1.1-0.5,1-2.2,2.1-2.7s2.4-0.3,3.4,0.4
	c0.4,0.3,0.7,0.6,1.1,0.7c0.3,0,0.6-0.1,0.9-0.2c0.8-0.3,1.8-1.5,2.5-0.9c0.7,0.7,0.7,1.9,1.6,1.9c1,0.1,1.8-1.4,2.7-1
	c0.7,0.3,0.2,1.6,0.6,2.2c0.5,0.6,1.6,1.1,2,0.4c0.3-0.5,0.7-1.7,1-1.3c0.5,0.7,0.3,1.7,1.2,1.8c0.9,0.1,1.8-0.4,2.7-0.3
	c0.6,0,1.1,0.2,1.6,0.4c2.9,0.9,6.3,0.6,9-0.9c0.5-0.3,1.2-0.6,1.7-0.4c0.8,0.4,0.5,1.7,0.6,2.6c0.2,1.1,1.2,1.9,2.1,2.6
	c0.9,0.7,1.1,1.8,1.4,2.9c0.4,1.1,0.4,2.3,1.4,2.7c1.1,0.4,2.2-0.1,3.2,0.6c0.9,0.7,1.9,1.6,3,1.5c0.8-0.1,1.5-0.6,2.3-0.8
	c1-0.2,2.1,0.3,3,0.8c0.9,0.5,1.9,1.1,3,1c1.1,0,1.5-1.1,2.3-1.8c1.5-1.3,2.8,1.3,5.5,0c2.3-1.1,7.2-3.4,9.6-4.5
	c1.9-0.9,4-1.8,6.1-1.6c2,0.2,3.7,1.4,5.4,2.6c3.5,2.6,5.4,5.6,9.3,7.6c0.4,0.2,1.9,1.3,2.2,1.7c0.8,1.1-1.2,1.6,2.6,5
	c1.7,1.5,4,2,6,3c2,0.9,4,2.3,4.9,4.3c0.3,0.6,0.4,1.3,0.7,1.8c0.4,0.7,1,1.2,1.6,1.6c4.9,3.7,13.1,5.7,16,9c1.2,1.4,4.8,1.5,6,2.3
	c1.8,1.2,3.9,3.2,5.8,4.4"/>
<path fill="none" stroke="#4E9BD7" stroke-miterlimit="10" d="M153.1-6.2c-0.1,1.5-0.3,3-0.9,4.4c-0.7,1.3-1.7,2.3-2.7,3.4
	c-3.6,4-5.6,9.2-7.9,14.1"/>
<path fill="none" stroke="#D6D6D6" stroke-miterlimit="10" d="M-12.3,38.7c0.3-0.4,0.8-0.7,1.2-0.9c0.5-0.3,1.1-0.4,1.5-0.8
	c0.5-0.5,0.7-1.2,1.1-1.9c0.5-1,1.4-1.9,2.2-2.7c2-1.9,4.8-4,7.4-3c1.2,0.5,2.3,1.7,3.6,1.7c1.1,0,2-0.9,3-1.5
	c4.6-2.6,10.9,2.6,15.5-0.2c0.6-0.3,1.1-0.8,1.7-1c1.2-0.3,2.3,0.5,3.5,0.6c1.7,0.2,3.2-0.7,4.7-1.4c3.4-1.7,7.1-2.5,10.8-3.2
	c8.5-1.8,17.1-3.7,25.6-5.5c2.4-0.5,4.9-1,7.3-0.8c1.7,0.1,3.3,0.6,5,0.4c1.4-0.2,4-2.7,5.4-2.7c11.4-0.5,13.5-0.2,25.3,2.2
	c1.5,0.3,5.9-1.5,8.8-1.2c1.9,0.2,2.5,2.4,3.5,2.6c2.5,0.4,8.6,2.2,8.9,4.8"/>
<path fill="#EAEAEA" stroke="#D6D6D6" stroke-miterlimit="10" d="M65,87.9c0.4-0.1,0.8-0.3,1-0.7c0.1-0.2,0.1-0.5,0.1-0.7
	c0-1.6,1.2-3.5,0-4.5c-0.8-0.6-1.3,0.1-2.2,0.4c-0.5,0.1-1,0.3-1.3,0.8c-0.3,0.4-0.3,0.8-0.3,1.3c0,0.8-0.1,1.6,0.3,2.3
	C63,87.5,64,88.1,65,87.9z"/>
<path fill="#EAEAEA" stroke="#D6D6D6" stroke-miterlimit="10" d="M126.4,139.2c0.2-0.3,0.2-0.7,0.2-1.1c0.1-0.4,0-0.8-0.2-1
	c-0.4-0.4-1.1-0.2-1.5-0.6c-0.6-0.6,0.4-1.8-0.2-2.3c-0.4-0.3-1-0.1-1.5,0.1c-0.8,0.3-1.8,0.4-2.3,1.1c-0.3,0.4-0.2,0.9-0.3,1.3
	c-0.1,0.3-0.2,0.7,0,1c0.1,0.1,0.2,0.2,0.4,0.3c0.7,0.6,0.9,1.5,1.4,2.3c0.4,0.5,1.3,0.1,1.9-0.2
	C124.9,139.8,125.9,139.8,126.4,139.2z"/>
<path fill="none" stroke="#D6D6D6" stroke-miterlimit="10" d="M66,87.6c0.8,0.4,1.5-0.5,2-1.4s0.3-1.9,0.2-2.8
	c-0.1-0.9,0.1-1.5,0.3-2.5c0.2-1.1,0.9-2.1,1.1-3.2c0.1-0.7-0.1-1.5,0.1-2.2c0.3-1.2,1.3-2,1.7-3.1c0.6-1.6-0.2-3.4-0.3-5.1
	c0-0.4,0-0.9,0.3-1.2c0.2-0.2,0.4-0.3,0.6-0.4c3.6-1.7,7.7,1.9,11.5,1.1c1.5-0.3,2.8-1.3,4.3-1.9c1.7-0.6,3.5-0.7,5.3-0.8
	c4.5-0.3,8.9-1.1,13.4-1.9c2.3-0.4,4.7-0.8,6.8-1.9c0.7-0.3,1.4-0.8,2.2-0.9c2.8-0.4,4.9,3.3,7.7,2.9c0.3,0,0.6-0.1,0.9-0.1
	c0.8,0.2,1.1,1.4,1.9,1.5c0.8,0.1,1.3-1,2.1-1.4c1.4-0.7,2.6,1.2,4,1.7c1,0.4,2.3,0,3-0.9s0.2-2.6,0.4-3.5"/>
<path fill="none" stroke="#4E9BD7" stroke-miterlimit="10" d="M210.8,157.2c1.5-3.1,0.1-3.9-0.3-5.3c-0.3-1.1,0.4-2.7,0.4-3.8
	c0-1.4-1.4-2.2-1.2-3.7c0.2-2.1,1.9-4.3,2.3-6.6c0.5-2.9-0.6-4.2-0.8-6.9c-0.2-2.5,1.1-6.7,0.6-9.2c-0.7-3.3-2-6.2-2.4-9.8
	c-0.7-6.4,0.6-15-0.4-21.3c-1-6.4-4.1-11.7-9.3-15.5c-1.9-1.4-4.2-2.3-6.5-2.4c-3,0-5.9,1.5-8.9,1.4c-2.5-0.1-4.8-1.3-7.3-1.4
	c-0.9,0-1.8,0.1-2.7,0.1c-3.5,0.2-7.1-0.5-10.3-2c-0.7-0.3-1.5-0.8-1.8-1.5c-0.4-0.7-0.3-1.7-0.8-2.2c-0.3-0.3-0.8-0.5-1.2-0.8
	c-0.6-0.4-0.8-1.2-1-1.9c-0.3-1.5,0.5-3.3-0.4-4.5c-1-1.4-3.3-1-5-1.4"/>
<path fill="#EAEAEA" stroke="#D6D6D6" stroke-miterlimit="10" d="M86.1,171.9c-0.9-2.3-2.3-4.3-2.8-6.7c-0.2-0.9-0.2-1.8-0.6-2.5
	s-1.2-1.4-2.1-1.2c-1.3,0.3-1.5,2-1.5,3.3c0,1.5-0.2,2.9-0.6,4.3c-0.4,1.7,0.5,3.4,0,5c-0.6,2-4.1-0.2-6,0.4c-1.1,0.4-2,1.3-3,2
	c-1.4,1.1-3,1.9-4.7,2.3c-1.3,0.3-2.7,0.5-3.7,1.2c-0.6,0.4-1,0.9-1.4,1.5c-2.5,3-5,6.1-7,9.5c-0.5,0.9-1,1.9-1.2,2.9
	c-0.2,1,0.1,2.2,0.8,2.9c0.9,0.8,2.1,1,3.3,1.2c1.6,0.3,3.2,0.9,4.8,1.4c1.1,0.4,2.1,0.8,3.2,1.1c1.5,0.5,3,1.1,4.6,1.6
	c0.7,0.3,1.4,0.5,2.2,0.6c1.7,0.2,3.3-0.3,4.9-0.9c2.1-0.8,4.3-1.6,6-3.2c1-0.9,1.7-2.1,2.3-3.3c0.4-0.7,0.7-1.6,0.6-2.4
	c-0.1-0.7-0.5-1.2-0.7-1.8c-1.6-3.7,0.6-7.8,0.4-11.8c0-1-0.2-2-0.1-2.9c0.1-1,0.6-2,1.5-2.3c0.3-0.1,0.5-0.1,0.8-0.3
	C86.6,173.6,86.4,172.6,86.1,171.9z"/>
<path fill="#7BBCEB" stroke="#4E9BD7" stroke-miterlimit="10" d="M186.2,209.9c-3.9,4.6-10.2,6.3-16,7.7c-2.9,0.7-6.1,1.3-8.6-0.2
	c-2-1.2-3-3.5-4.2-5.5c-2.9-4.7-7.6-8.3-9.8-13.3c-1.1-2.5-1.5-5.3-1.7-8c-0.2-2.8-0.6-5.5-0.3-8.3c0.3-3.2,1-6.6,2-9.7
	c0.7-2.1,1.9-4.1,2.9-6.1c0.3-0.6,0.7-1.3,1.3-1.7c0.7-0.4,1.5-0.3,2.3-0.4c1.8-0.2,3.3-1.1,4.9-1.9c2.6-1.3,5.4-2.3,8.3-2.3
	c5.5-0.1,10.8,2.8,16.3,3.1c4.5,0.2,8.9-1.4,12.7-3.8c2.1-1.3,4.1-3,6.6-3.1c1.6-0.1,3.1,0.5,4.6,0.7c1.4,0.1,3,0,3.9,1.1
	c0.3,0.4,0.4,1,0.6,1.5c2.9,5.1,3.4,12.6,2.9,20.4c-0.2,3.7,0.2,8-2.3,10.8c-1,1.1-2.3,2-3.2,3.2c-1,1.3-1.8,3-3.5,3.1
	c-0.9,0.1-1.8-0.5-2.7-0.4c-1.5,0.2-1.2,2.5-2.2,3.7c-0.2,0.2-0.5,0.3-0.8,0.2c-1.2-0.5-1.5-2.2-2.2-3.3c-0.4-0.6-0.9-1.3-1.6-1.7
	c-0.7-0.3-1.7-0.2-2.1,0.5c-0.6,1,0.6,2.1,1.1,3.2c1.3,2.6,0.2,3.7-1.6,4.6c-2,1-4.1,2.1-5.4,3.3
	C187.2,208.2,187.1,208.9,186.2,209.9z"/>
<path fill="#EAEAEA" stroke="#D6D6D6" stroke-miterlimit="10" d="M233.2,60.8c1,0.7,1.7-0.5,1.9-1.8c0.2-1.2,0-2.2-1.2-2.5
	c-0.5-0.1-1.6,0.6-1.7,1.5C232.1,59.2,232.2,60.1,233.2,60.8z"/>
<path fill="#EAEAEA" stroke="#D6D6D6" stroke-miterlimit="10" d="M152.5,51.1c0-1.5-0.4-2.9-0.4-4.4c-0.1-2.6,0.9-5.2,0.1-7.7
	c-0.9-2.7-3.7-4.4-4.4-7.2c-0.3-1.2-0.2-2.5-0.5-3.7c-0.4-2.2-1.9-4-3.2-5.8c-1.3-1.8-1.1-4.2-2-6.2c-0.3-0.8-1.8-0.2-2.5,0.4
	c-0.7,0.6-1.6,1.1-2,1.9c-1.3,2.8-3.2,4.3-4.4,7.2c-1,2.2-0.4,8.7-0.6,12.2c-0.2,3.6-1,7.3-3.3,10.1c-0.9,1-1.9,1.9-2.3,3.2
	c-0.3,0.9-0.1,1.8,0.1,2.7c0.7,2.6,2.8,5,5.4,5.7c0.9,0.2,1.8,0.3,2.7,0.5c1.3,0.4,2.4,1.3,3.1,2.6c0.4,0.8,0.7,1.8,1.2,2.6
	s1.5,1.4,2.4,1.1c0.6-0.2,1-0.9,1.3-1.5c0.6-1.1,1.3-2.2,2.3-3c1-0.8,2.4-1.2,3.6-0.9c0.5,0.1,0.9,0.4,1.3,0.5
	c1.1,0.2,2.2-0.7,2.6-1.7c0.4-1,0.4-2.2,0.4-3.3C153.4,54.5,152.5,52.9,152.5,51.1z"/>
<path fill="#EAEAEA" stroke="#D6D6D6" stroke-miterlimit="10" d="M368.6,136.2c1.3,0.8,2.7,0.9,4.2,0.7c1.5-0.2,3.2-0.7,3.9-2.1
	c0.7-1.4,0.4-3-0.2-4.4c-0.7-1.4-1.7-2.5-2.7-3.7c-0.6-0.7-1.3-1.4-2.1-2c-0.8-0.6-1.8-1.4-2.7-1.9c-1.4-0.8-4.1-1.9-5.3-2.9
	c-1.8-1.5-2.2-2.6-4.4-3.4c-1.2-0.4-2.4-0.6-3.6-0.8c-2.1-0.3-4.3-0.6-6.4-0.9c-1-0.1-2.1-0.2-2.6,0.7c-0.4,0.7,0,1.7,0.4,2.4
	c1.5,2.6,3,5.1,4.5,7.7c1.2,2.1,2.5,4.3,3.7,6.4c0.2,0.4,0.5,0.8,0.8,1.1c0.4,0.3,0.9,0.5,1.3,0.6c1.7,0.5,3.5,0.8,5.3,0.8
	c1.3,0,2.7-0.1,3.9,0.4C367.3,135.3,367.9,135.8,368.6,136.2z"/>
<path fill="none" stroke="#585858" stroke-miterlimit="10" stroke-dasharray="4,1" d="M299.7-4.7c4.8,4,9.9,7.7,14.8,11.7
	c1.9,1.5,3.7,3.1,5.5,4.7c6.2,5.8,11.3,12.7,16.5,19.4c1.7,2.1,4,4.5,5.7,6.6c1.3,1.5,2.5,3,4.1,4.2c1.6,1.2,4.2,3.2,5.9,4.3
	c6.5,4.2,11.3,7.7,17.9,11"/>
<path fill="none" stroke="#585858" stroke-miterlimit="10" stroke-dasharray="18,3,1,3" d="M370.7,240.2
	c-8.7,6.5-19.7,10.9-30.6,11.1c-1.8,0-3.6-0.6-5.1,0.3c-0.9,0.5-1.5,1.3-2.1,2.1c-2.8,3.4-5.5,6.8-8.3,10.1
	c-1.2,1.5-2.5,3.1-3.2,4.9c-0.7,2-2.4,4.1-2.5,6.2c-0.5,6.7-1.4,13.4-4.1,18.4c-1.2,2.1-0.7,3.2-1.4,5.5
	c-3.5,11.2-10.7,23-15.9,33.9c-1.3,2.8-3.1,6.2-2.4,9.2c0.8,3.4,3.7,5.5,5.9,8.2c1.9,2.4,4.1,5.1,6.7,6.6c1.2,0.7,3.4,2.9,6.1,3.3
	c6.2,0.8,7.1,7.4,13.1,9c1.8,0.5,3.8,0.3,5.6,0.8c1.5,0.4,4.6,0.4,6,1.1c4.8,2.3,8.4,4.9,11,9.5"/>
<text transform="matrix(1 0 0 1 153.4722 23.2204)"><tspan x="0" y="0" fill="#585858" font-family="'Verdana-Italic'" font-size="8">Spillway</tspan><tspan x="0" y="9.6" fill="#585858" font-family="'Verdana-Italic'" font-size="8">Lake</tspan></text>
<text transform="matrix(1 0 0 1 223.5516 155.5039)" fill="#7BBCEB" font-family="'Verdana-Italic'" font-size="8">Helen Lake</text>
<path fill="none" d="M93.8,121.3c2.9,5.6,0.4,12.6,0.5,18.9c0.2,8.3,0.8,17.3,6.3,23.4"/>
<text transform="matrix(-6.205828e-02 0.9981 -0.9981 -6.205828e-02 92.0469 135.2716)"><tspan x="0" y="0" fill="#7D7D7D" font-family="'Verdana-Italic'" font-size="7">1</tspan><tspan x="4.7" y="-0.1" fill="#7D7D7D" font-family="'Verdana-Italic'" font-size="7" rotate="-5.7">1</tspan><tspan x="9.3" y="-0.5" fill="#7D7D7D" font-family="'Verdana-Italic'" font-size="7" rotate="-8.2">4</tspan><tspan x="13.9" y="-1.2" fill="#7D7D7D" font-family="'Verdana-Italic'" font-size="7" rotate="-12.9">0</tspan><tspan x="18.5" y="-2.2" fill="#7D7D7D" font-family="'Verdana-Italic'" font-size="7" rotate="-20.1">0</tspan></text>
<path fill="none" d="M5.2,169.9c2.4-0.8,4.6-2,6.9-2.9c5.2-2.1,10.9-2.5,16.6-2.9c5.8-0.4,11.5-0.8,17.3-1.3"/>
<text transform="matrix(0.9897 -0.1431 0.1431 0.9897 18.6323 167.756)"><tspan x="0" y="0" fill="#7D7D7D" font-family="'Verdana-Italic'" font-size="7">1</tspan><tspan x="4.3" y="0" fill="#7D7D7D" font-family="'Verdana-Italic'" font-size="7" rotate="3.2">1</tspan><tspan x="8.7" y="0.3" fill="#7D7D7D" font-family="'Verdana-Italic'" font-size="7" rotate="4.1">8</tspan><tspan x="13.1" y="0.6" fill="#7D7D7D" font-family="'Verdana-Italic'" font-size="7" rotate="4.1">0</tspan><tspan x="17.6" y="0.9" fill="#7D7D7D" font-family="'Verdana-Italic'" font-size="7" rotate="4.1">0</tspan></text>
<text transform="matrix(1 0 0 1 296.6313 123.0808)"><tspan x="0" y="0" fill="#585858" font-family="'Verdana-Italic'" font-size="8">Parker Pass</tspan><tspan x="28" y="9.6" fill="#585858" font-family="'Verdana-Italic'" font-size="8">Lake</tspan></text>
<path fill="none" d="M276.9,25.9c6,11.3,14.6,21.3,25,28.9"/>
<text transform="matrix(0.5835 0.8121 -0.8121 0.5835 279.6631 35.4239)"><tspan x="0" y="0" fill="#7D7D7D" font-family="'Verdana-Italic'" font-size="7">1</tspan><tspan x="4.6" y="0" fill="#7D7D7D" font-family="'Verdana-Italic'" font-size="7" rotate="-2.9">0</tspan><tspan x="9.2" y="-0.2" fill="#7D7D7D" font-family="'Verdana-Italic'" font-size="7" rotate="-5.9">8</tspan><tspan x="13.7" y="-0.7" fill="#7D7D7D" font-family="'Verdana-Italic'" font-size="7" rotate="-8.8">0</tspan><tspan x="18.2" y="-1.4" fill="#7D7D7D" font-family="'Verdana-Italic'" font-size="7" rotate="-11.7">0</tspan></text>
<path fill="none" d="M170.5,236.3c1.8,1.2,9.5-0.7,11.8-2.2c11.7-8,25.7-6.4,32.9-18.6"/>
<text transform="matrix(0.8961 -0.4438 0.4438 0.8961 185.7119 234.7814)"><tspan x="0" y="0" fill="#7D7D7D" font-family="'Verdana-Italic'" font-size="7">1</tspan><tspan x="4.2" y="0" fill="#7D7D7D" font-family="'Verdana-Italic'" font-size="7" rotate="4.9">1</tspan><tspan x="8.6" y="0.4" fill="#7D7D7D" font-family="'Verdana-Italic'" font-size="7" rotate="7.5">0</tspan><tspan x="13" y="1" fill="#7D7D7D" font-family="'Verdana-Italic'" font-size="7" rotate="7.1">0</tspan><tspan x="17.6" y="1.6" fill="#7D7D7D" font-family="'Verdana-Italic'" font-size="7" rotate="3.5">0</tspan></text>
<path fill="none" d="M285.9,311.9c9.6-16.2,17.3-33.5,24.8-50.7"/>
<text transform="matrix(0.4582 -0.8889 0.8889 0.4582 295.3018 300.1974)"><tspan x="0" y="0" fill="#7D7D7D" font-family="'Verdana-Italic'" font-size="7">1</tspan><tspan x="4.5" y="0" fill="#7D7D7D" font-family="'Verdana-Italic'" font-size="7" rotate="-0.7">2</tspan><tspan x="8.9" y="-0.1" fill="#7D7D7D" font-family="'Verdana-Italic'" font-size="7" rotate="-1.4">4</tspan><tspan x="13.4" y="-0.2" fill="#7D7D7D" font-family="'Verdana-Italic'" font-size="7" rotate="-1.9">0</tspan><tspan x="17.9" y="-0.3" fill="#7D7D7D" font-family="'Verdana-Italic'" font-size="7" rotate="-2.4">0</tspan></text>
<path fill="none" d="M104.3-0.4c0.3,17.8,1,35.7,2.2,53.5"/>
<text transform="matrix(4.442727e-02 0.999 -0.999 4.442727e-02 102.6157 28.4117)"><tspan x="0" y="0" fill="#7D7D7D" font-family="'Verdana-Italic'" font-size="7">1</tspan><tspan x="4.5" y="0" fill="#7D7D7D" font-family="'Verdana-Italic'" font-size="7" rotate="-0.2">0</tspan><tspan x="8.9" y="0" fill="#7D7D7D" font-family="'Verdana-Italic'" font-size="7" rotate="-0.5">6</tspan><tspan x="13.4" y="-0.1" fill="#7D7D7D" font-family="'Verdana-Italic'" font-size="7" rotate="-0.7">0</tspan><tspan x="17.8" y="-0.1" fill="#7D7D7D" font-family="'Verdana-Italic'" font-size="7" rotate="-0.9">0</tspan></text>
<path fill="none" d="M18.2,306.5c8.2-1.3,16.6-0.5,24.9,0.4c6.6,0.7,13.2,1.5,19.4,3.8"/>
<text transform="matrix(0.9974 7.236443e-02 -7.236443e-02 0.9974 32.3394 308.464)"><tspan x="0" y="0" fill="#7D7D7D" font-family="'Verdana-Italic'" font-size="7">1</tspan><tspan x="4.4" y="0" fill="#7D7D7D" font-family="'Verdana-Italic'" font-size="7" rotate="1.4">1</tspan><tspan x="8.8" y="0.1" fill="#7D7D7D" font-family="'Verdana-Italic'" font-size="7" rotate="1.9">6</tspan><tspan x="13.2" y="0.3" fill="#7D7D7D" font-family="'Verdana-Italic'" font-size="7" rotate="2.9">0</tspan><tspan x="17.5" y="0.5" fill="#7D7D7D" font-family="'Verdana-Italic'" font-size="7" rotate="5.3">0</tspan></text>
<path fill="none" d="M282.1,185.8c8.6,1,17.4-1.3,25.1-5.3"/>
<text transform="matrix(0.9987 5.078185e-02 -5.078185e-02 0.9987 281.958 188.4034)"><tspan x="0" y="0" fill="#7D7D7D" font-family="'Verdana-Italic'" font-size="7">1</tspan><tspan x="4.8" y="0" fill="#7D7D7D" font-family="'Verdana-Italic'" font-size="7" rotate="-7">1</tspan><tspan x="9.5" y="-0.6" fill="#7D7D7D" font-family="'Verdana-Italic'" font-size="7" rotate="-13.2">6</tspan><tspan x="14" y="-1.7" fill="#7D7D7D" font-family="'Verdana-Italic'" font-size="7" rotate="-18.9">0</tspan><tspan x="18.5" y="-3.2" fill="#7D7D7D" font-family="'Verdana-Italic'" font-size="7" rotate="-24.1">0</tspan></text>
<g>
	<g>
		<polyline fill="none" stroke="#7D7D7D" stroke-miterlimit="10" points="85.2,341.6 85.2,348.7 275.4,348.7 275.4,341.7 		"/>
		<line fill="none" stroke="#7D7D7D" stroke-miterlimit="10" x1="180.5" y1="341.4" x2="180.5" y2="348.7"/>
		<line fill="none" stroke="#7D7D7D" stroke-miterlimit="10" x1="161.2" y1="349.2" x2="161.2" y2="343.7"/>
		<line fill="none" stroke="#7D7D7D" stroke-miterlimit="10" x1="142.4" y1="349.2" x2="142.4" y2="343.7"/>
		<line fill="none" stroke="#7D7D7D" stroke-miterlimit="10" x1="123.3" y1="349.2" x2="123.3" y2="343.5"/>
		<line fill="none" stroke="#7D7D7D" stroke-miterlimit="10" x1="104.6" y1="349.2" x2="104.6" y2="343.7"/>
	</g>
	<text transform="matrix(1 0 0 1 83.7834 339.1469)" fill="#7D7D7D" font-family="'Verdana'" font-size="8">0</text>
	<text transform="matrix(1 0 0 1 174.2945 339.1469)" fill="#7D7D7D" font-family="'Verdana'" font-size="8">0.5</text>
	<text transform="matrix(1 0 0 1 258.3414 339.1469)" fill="#7D7D7D" font-family="'Verdana'" font-size="8">1 mi</text>
</g>
</svg>
