<?xml version="1.0" encoding="utf-8"?>
<!-- Generator: Adobe Illustrator 17.1.0, SVG Export Plug-In . SVG Version: 6.00 Build 0)  -->
<!DOCTYPE svg PUBLIC "-//W3C//DTD SVG 1.1//EN" "http://www.w3.org/Graphics/SVG/1.1/DTD/svg11.dtd">
<svg version="1.1" id="Layer_1" xmlns="http://www.w3.org/2000/svg" xmlns:xlink="http://www.w3.org/1999/xlink" x="0px" y="0px"
	 viewBox="0 0 360 360" enable-background="new 0 0 360 360" xml:space="preserve">
<path fill="none" stroke="#E1E1E1" stroke-miterlimit="10" d="M361.9,229.6c-1.4,2.9-3.2,5.7-5.4,8.2c-2.1,2.4-4.5,4.5-7.3,6
	c-5.9,3.2-13.1,3.4-18.9,6.8c-9.7,5.8-13.7,19.7-24.7,22.5c-3.5,0.9-7.1,0.4-10.6,1.4c-4.6,1.3-8.1,4.9-12.3,7.3
	c-12.9,7.6-29.2,2.9-44.2,2.3c-2.5-0.1-5-0.1-7.3,0.7c-2.5,0.9-4.6,2.6-7,3.8c-7.5,4-17.5,2.9-23.9-2.7c-4.8-4.2-7.4-10.2-11.4-15.1
	c-4-4.9-10.6-8.8-16.5-6.4c-3.3,1.4-6.1,4.8-9.7,4.2c-2.5-0.4-4.4-2.8-6.8-3.6c-2.4-0.7-5,0.2-7.3,1.3c-7.7,3.6-14.6,8.7-20.5,14.8
	c-0.8,0.8-1.6,1.7-1.7,2.8c-0.3,1.9,1.2,3.5,2.5,4.8c2.8,2.6,5.6,5.3,8.8,7.2c11.7,6.8,26.8,3.1,39.4,7.9c5.4,2.1,10.2,5.6,15.6,7.7
	c14.7,5.6,31-0.7,45.5-6.9c7.2-3.1,14.5-7.9,22.1-10.1c9.2-2.7,18.3-5.4,27.5-8.1c4.9-1.4,9.9-2.9,15-3.1c3.4-0.2,6.9,0.2,10.3-0.2
	c14.7-1.7,24.9-17.1,39.6-19c3.2-0.4,6.4-0.1,9.6-0.2"/>
<path fill="none" stroke="#E1E1E1" stroke-miterlimit="10" d="M362.5,19.2c-0.7-0.9-1.6-1.6-2.7-1.5c-1.9,0.1-2.7,2.4-3.1,4.3
	c-3.2,17.1-3.9,34.6-3.8,52.1c0.1,5.1,0.2,10.2,0.4,15.3c0.1,3.1,0.9,7.1,4,7.7c1.2,0.3,2.6-0.1,3.7,0.6c1,0.6,1.3,2,1.4,3.1
	c0.8,8.4-2.9,16.4-5.2,24.5c-2.7,9.4-3.7,19.3-2.8,29c0.7,7.6,0.7,15.7,0.8,23.3c0.1,3.7,0.2,7.4,1,11.1c0.6,2.7,1.6,5.5,0.9,8.2
	c-0.8,3.3-4.2,6.1-3.6,9.5c0.2,1,0.7,2,0.7,3c0,1.2-0.8,2.3-1.6,3.2c-2.8,3.5-5.7,7-9.2,9.8c-3,2.4-6.5,4.1-9.9,5.8
	c-6.5,3.3-13.1,6.7-17.7,12.2c-6,7.3-8.5,18.4-17.4,21.8c-4.7,1.8-10.4,0.9-14.5,4c-2.7,2-4.3,5.5-7.4,6.6c-1.8,0.6-3.7,0.3-5.6,0
	c-6.3-1-12.7-2.1-18.4-4.9c-3.5-1.7-7.1-4.2-11-3.8c-3.3,0.4-6,2.8-9.3,3.6c-3,0.7-6.3,0-9.3,0.9c-4.4,1.4-7.7,6.4-12.2,5.7
	c-3.3-0.5-5.4-3.7-7.2-6.5c-5.9-8.8-16.6-20.6-27.2-21.2c-17.6-1-26.2-3.5-30.8-4.8c-6.1-1.7-4.6,9.8-5.1,14.9
	c-0.1,1.3-2.6-0.3-3.9-0.6c-3.4-1-6.7,2.2-8.1,5.5c-1.4,3.3-1.8,7.1-4,9.9c-2.2,2.8-5.8,4.1-9.3,5.2c-4.8,1.6-9.6,3.2-14.4,4.8
	c-3.6,1.2-7.2,2.4-10.9,3.2c-3.5,0.7-7.1,1-10.6,1.3c-5.8,0.5-11.6,1-17.4,0.8c-6-0.2-13.3-0.7-16.6,4.4c-1.3,2-1.6,4.5-2.2,6.8
	c-1.8,6.5-6.8,11.9-13.1,14.3c-0.9,0.3-1.8,0.6-2.8,0.6c-1,0-2-0.3-3-0.6c-8.6-2.4-17.8-2.3-26.4,0.2"/>
<path fill="none" stroke="#E1E1E1" stroke-miterlimit="10" d="M351.7-3.1c-1.4,1.6-2.4,3.7-3.1,5.7c-5.1,13.2-10.2,26.3-15.3,39.5
	c-2.2,5.7-4.5,11.5-5.6,17.6c-1.8,9.6-1.7,13.1-6.4,20.1c-3.3,4.9-2.9,12.1,0.5,16.9c0.7,1,1.6,2,1.8,3.3c0.2,1.3-0.3,2.6-0.8,3.8
	c-3.9,9.6-7.9,19.3-11.8,28.9c-0.4,1-0.8,2.1-0.9,3.2c-0.1,3.9,5.1,6.2,8.8,4.8c1-0.4,2.1-0.9,3.2-0.8c1.8,0.2,3,2.1,3.1,4
	c0.1,1.8-0.6,3.6-1.1,5.4c-1.5,6.2,0.1,12.7,0.9,19c1.3,10.1,0.6,20.3-0.1,30.5c-0.1,2.2-0.3,4.4-0.9,6.4c-0.6,2.1-1.6,4.1-2.7,6
	c-6.8,12.3-16,23.3-26.8,32.2c-1.7,1.4-3.5,2.8-5.6,3.5c-7.5,2.4-17-4.7-23,0.5c-2,1.7-3,4.4-5.3,5.7c-3.3,1.9-6.7-1.5-10.3-3
	c-7.1-3-15.6-2.4-23.3-2.7c-1.4,0-2.8-0.1-3.9-0.9c-0.9-0.6-1.4-1.6-2-2.5c-1.6-2.8-3.1-5.6-4.7-8.3c-2.3-4.1-5.8-8.9-10.5-8.2
	c-4.1,0.6-6.6,5.1-10.5,6.1c-5.1,1.3-9.5-1.9-14.8-2.2c-3.1-0.2-6.6-0.5-9.5-1.5c-5.4-1.9-4.8-11.9-10.4-13.3
	c-4.2-1-8.6-1.9-11.8-4.8c-1.3-1.2-2.5-2.7-4.3-3.2c-1.3-0.4-2.7-0.1-4-0.5c-1.3-0.3-2.5-1.3-3.8-1.4c-2.1-0.2-3.9,1.8-4.4,3.9
	c-0.5,2.1-0.1,4.3,0.1,6.4c0.8,8.9-2.4,18.1-8.7,24.4c-0.8,0.8-1.7,1.7-2.2,2.7c-0.6,1.3-0.4,2.7-0.6,4.1c-0.8,5.1-6.2,8.2-8.4,12.9
	c-0.6,1.2-0.9,2.5-1.7,3.6c-1.4,2.1-3.8,3.3-6.1,4.1c-3.2,1.2-6.7,3.9-9.9,2.7c-7-2.6-13.4-6.1-20.8-4.9c-4.5,0.7-9.1,1.8-13.5,0.6
	c-2.6-0.7-4.9-2.1-7.2-3.5c-2.8-1.7-5.6-3.5-7.9-5.9c-1.7-1.8-3.3-4.1-5.7-4.5c-3.1-0.5-5.8,2.7-6.2,5.8c-0.4,3.1,0.7,6.2,1.3,9.3
	c2.2,10.6,1.4,32.7-9.1,29.9c-1.9-0.5-2.7-3-4.7-3.3s-4,0.1-6-0.2c-3.5-0.4-6.8-2.6-10.3-2.3c-2.7,0.2-5.1,1.9-7.4,3.3"/>
<path fill="none" stroke="#E1E1E1" stroke-miterlimit="10" d="M327.6-2.2c-1.4,1.5-2.9,2.9-4.5,4.2c-1.7,1.4-6.5,6-7.8,7.2
	c-12.5,12.2-15.5,26.7-26.3,40.9c-6.2,8.1-2.8,19.3-5.2,28.8c-0.5,1.9-5.1,0.3-5.1,2.3c0.1,8.4,7.7,33.5,3.2,61.4
	c-1.5,9.4-0.8,19.9,5,27.4c1.6,2.1,3.6,3.8,5.3,5.8c4.6,5.4,6.6,12.9,5.5,20c-1.8,12.2-13.2,22.2-25.5,22.5c-2,0-4.1-0.1-6.1,0.1
	c-5.3,0.6-9.8,4-14.5,6.7c-4.6,2.7-12.3,6.7-15.2,2.3c-2-2.9-0.5-7-0.7-10.5c-0.1-1.6-0.2-3.3-0.9-4.8c-1.1-2.5-3.7-4.1-5.4-6.2
	c-2.7-3.3-3.8-8.4-7.8-9.9c-2.7-1-5.8,0.2-8.1,2.1c-2.2,1.9-3.9,4.3-5.9,6.4c-4,4.1-9.2,6.7-14.4,9.1c-7.6,3.4-20.4,8-23.3,0.3
	c-1.1-2.9-2.2-5.6-4.3-7.8c-2.3-2.4-4.6-4.8-6.9-7.2c-1.3-1.4-2.6-2.7-3.9-4.1c-3.5-3.7-5-8.7-8-12.9c-3.7-5-12.5-3.8-18.6-3.3
	c-1.2,0.1-2.5,0.3-3.6,0.9c-1.1,0.7-1.9,1.8-2.6,3c-3.4,6.1-3.7,13.4-4,20.4c-0.2,4.3-0.3,8.6-0.5,12.9c-0.1,1.5-0.1,3-0.5,4.5
	c-0.6,2.5-1.9,4.7-3,7c-2.2,4.3-3.8,9-4.8,13.7c-0.5,2.5-1,5.2-2.7,7.1c-2.3,2.5-6.1,2.9-9.5,3c-3,0.1-6,0.3-8.9,0.4
	c-2.8,0.1-5.7,0.3-8.5-0.2c-4.3-0.7-8.3-2.7-12.2-4.7c-4.1-2.1-8.5-4.5-10.3-8.8c-1.2-2.9-1.1-6.5-3.6-8.3c-1.5-1.1-3.4-1.2-5.2-1.3
	c-7.6-0.7-14.9-3.4-21.1-7.8c-4-2.8-8.1-6.5-13-6.2c-6.4,0.4-10.2,7.6-10.5,13.9c-0.1,1.8,0,3.6-0.4,5.4c-0.8,2.8-3.1,4.2-5.9,5.4"
	/>
<path fill="none" d="M106.4,248.3c1.7-1.9,2.1-4.6,2.7-7.1c1-4.7,2.6-9.4,4.8-13.7c1.1-2.3,2.4-4.5,3-7"/>
<text transform="matrix(0.2179 -0.976 0.976 0.2179 111.2199 243.2829)"><tspan x="0" y="0" fill="#7D7D7D" font-family="'Verdana-Italic'" font-size="7">9</tspan><tspan x="4.3" y="0" fill="#7D7D7D" font-family="'Verdana-Italic'" font-size="7" rotate="4.5">0</tspan><tspan x="8.5" y="0.3" fill="#7D7D7D" font-family="'Verdana-Italic'" font-size="7" rotate="8.9">0</tspan><tspan x="12.7" y="1" fill="#7D7D7D" font-family="'Verdana-Italic'" font-size="7" rotate="13.4">0</tspan></text>
<path fill="none" stroke="#E1E1E1" stroke-miterlimit="10" d="M303.2-3.4c-0.6,1-1.2,2.1-1.8,3c-3.6,5.6-7.3,11.3-11.8,16.1
	c-3.7,4-8,7.4-12,11.2c-8.4,8.1-10.5,21.5-19.7,28.8c-5.1,4-11.3,6.2-15.6,11.1c-2.3,2.5-4.5,5-6.8,7.6c-2.9,3.3-6,7-5.7,11.4
	c0.3,4.1,3.5,7.3,5.3,11c1.8,3.6,2.3,7.8,4.3,11.3c2,3.5,6.4,6.3,10,4.5c3-1.5,5.4-6,8.5-4.6c1.1,0.5,1.7,1.7,2.3,2.8
	c6.3,13.3,9,28.4,7.6,43.1c-0.3,3.1-2.4,7.2-5.3,6c-0.8-0.4-1.4-1.1-2.1-1.6c-2.2-1.5-3.6,1.5-5.8,3c-7,5.1-17.1-5.2-23-11.5
	c-4.3-4.6-6.8-10.6-9.2-16.4c-1.6-3.9-3.4-8-6.7-10.7s-8.5-3.5-11.7-0.7c-3,2.7-3,7.3-4,11.3c-1.4,5.4-5.2,10-9.6,13.4
	c-2.5,1.9-5.2,3.5-6.9,6.1c-1.7,2.6-2.1,6.4,0.1,8.5c1.9,1.7,4.7,1.7,6.9,2.9c2.5,1.4,3.9,4.1,5.1,6.7c2.2,4.5,4.3,9,6.5,13.5
	c0.4,0.9,0.9,1.8,0.8,2.8c-0.2,2.5-3.4,3.9-3.9,6.4c-0.3,1.6,0.6,3.3,0.1,4.8c-0.5,1.5-2.1,2.4-3.6,3c-3.8,1.7-7.3,5.5-11.5,5.2
	c-3-0.2-5.7-1.7-8.5-2.7c-5.3-1.9-8.6-7.1-11.4-12c-3.3-5.7-6.8-11.7-6.6-18.3c0.1-1.9,0.4-3.9-0.3-5.7c-2.8-6.7-14.9-0.7-19.6-6.2
	c-4.6-5.3-14-4.6-19.6-0.5c-9.4,7-7.3,31.9-18.6,29.1c-3.3-0.8-4.4-5.5-7.7-6c-3.3-0.5-7.1,1.6-7.8,4.9c-0.4,2,0.2,4,0.8,6
	c0.9,2.8,1.7,5.5,2.6,8.3c0.4,1.4,0.9,2.8,1.8,3.9c0.9,1.1,2.1,1.8,3.1,2.8c2.8,2.9,2.5,7.6,1.1,11.4s-1.5,8.4-4.3,11.2
	c-2.1,2.2-5.9-1.5-7.6-4c-5.4-7.6-4-18.9-10.2-25.8c-4.3-4.9-11.3-6.4-16.3-10.6c-3.3-2.8-5.6-6.6-7.8-10.4
	c-1.7-2.8-3.3-5.7-4.4-8.8c-3.2-9-1.3-18.9,0.7-28.2c1.1-5.2,2.2-10.3,3.2-15.5c1.2-5.5,2.3-11.3,1.2-16.8
	c-1.1-5.5-5.7-14.4-10.7-11.8c-5.3,2.8-3.9,11.5-3.6,17.5c0.1,2.4,0.4,4.9-0.5,7.1c-1.5,3.3-5.4,4.9-7.3,8c-0.9,1.4-1.3,3.1-1.6,4.8
	c-2.8,13.1-4.2,26.4-4.4,39.8c-0.1,6,0.1,12.1-2.3,17.6c-2.8,6.4-8.8,10.8-14.5,14.8c-1.7,1.2-3.4,2.4-5.1,3.7"/>
<path fill="none" stroke="#E1E1E1" stroke-miterlimit="10" d="M50.5,312.2c0.1,0.6,0.2,1.1,0.6,1.6c0.9,1.3,3,2.3,4.5,1.6
	c1.7-0.9,4.2-5.1,6.4-7.3s6.2-5.1,4.7-7.8c-1.4-2.8-6.1-1.2-9.2-1c-0.5,0-1,0-1.4,0.3c-0.7,0.4-1,1.1-1.3,1.8
	c-0.8,1.8-2,3.4-2.9,5.2S50.3,310.2,50.5,312.2z"/>
<path fill="none" stroke="#E1E1E1" stroke-miterlimit="10" d="M14.3,330.1c1.1,0,2.1,0.3,3.2,0.3c4.9,0.4,9.3-2.8,13.7-5.1
	c4.8-2.6,10.9-8.1,15.5-5.1c2.5,1.7-0.2,6.1-1.7,8.7c-1.5,2.6-3.6,4.9-5.4,7.4c-2.8,3.9-4.8,8.4-7.9,12s-8,6.3-12.6,5.2
	c-2.8-0.7-5.1-2.7-7.2-4.8c-3-3-5.9-6.4-7.3-10.5c-0.3-0.8-0.5-1.6-0.3-2.3c0.3-1.2,1.3-1.9,2.3-2.6
	C8.9,331.7,11.4,330.1,14.3,330.1z"/>
<path fill="none" stroke="#E1E1E1" stroke-miterlimit="10" d="M216.9,362.5c0.1-0.1,0.3-0.2,0.4-0.4c5.9-5.2,8.7-13,12.5-19.9
	c5.8-10.7,14.3-19.7,24.3-26.6c8.2-5.7,17.5-10,27-13.1c8.3-2.7,17-4.5,25.6-3.9c3.8,0.3,7.6,1.1,11.5,1.1c6.1,0.1,12.1-1.8,18-3.5
	c8.6-2.6,17.2-5.2,25.7-7.9"/>
<path fill="none" stroke="#E1E1E1" stroke-miterlimit="10" d="M50.9,363.5c13.1-18.7,26.1-37.3,39.2-56c2.5-3.5,5.5-7.3,9.7-7.7
	c2.8-0.2,5.4,1.1,7.8,2.5c11,6.3,21.4,13.6,30.9,22c8,7,17,15.2,27.6,14.1c4.1-0.4,8-2.3,12.1-2.3c5.3,0,10.1,3.3,13.5,7.5
	c3.3,4.1,5.5,9.1,7.9,13.8c0.8,1.6,1.8,3.3,3,4.8"/>
<path fill="none" stroke="#E1E1E1" stroke-miterlimit="10" d="M362.2,306.9c-3,0.7-6.1,1.4-9.1,2.2c-4.6,1.1-9.2,2.2-13.8,3.4
	c-3.7,0.9-7.5,1.8-11.3,2.2c-8.5,0.9-17.1-0.9-25.7-1.7c-2-0.2-4.1-0.3-6.1,0.1c-2.5,0.5-4.8,1.8-7.1,3.1
	c-11.6,6.6-23.3,13.3-33.8,21.7c-9.4,7.5-17.7,16.2-25.4,25.4"/>
<path fill="none" stroke="#E1E1E1" stroke-miterlimit="10" d="M245.5,363.4c2.2-2,4.3-3.9,6.5-5.9c4.4-4,8.9-8,14.2-10.8
	c3.9-2.1,8.2-3.4,12.4-4.6c7.5-2.2,15.1-4.1,22.8-5.8c1.5-0.3,3-0.6,4.5-0.4c1.8,0.2,3.5,1.2,5.4,1.2c2,0,3.8-1.1,5.8-0.9
	c1.7,0.2,3.1,1.4,4.4,2.4c4.3,3.5,8.9,6.5,13.8,8.9c1.4,0.7,2.7,1.3,3.9,2.3c0.7,0.6,1.3,1.3,2.2,1.5c0.5,0.1,1,0.1,1.5,0
	c2.3-0.2,5.6-2.5,6.9-0.6c0.7,1,0,2.4,0.8,3.4c0.8,0.9,1.9,1.7,2.4,2.8c1.1,2.2-0.3,4.5-1.7,6.6"/>
<path fill="none" stroke="#E1E1E1" stroke-miterlimit="10" d="M76.7,363.1c0.1-1.2,0.2-2.5,0.4-3.7c2.1-13.9,11.4-26.3,23.4-33.6
	c0.6-0.4,1.3-0.8,2-0.7c0.7,0,1.3,0.5,1.8,0.9c2.5,1.8,5,3.7,7.6,5.5c2.9,2.1,5.8,4.3,8,7.1c0.7,0.9,1.3,1.9,2.2,2.5
	c1,0.7,2.4,0.9,3.4,1.6c1,0.7,1.6,1.7,2.1,2.7c4,6.8,9.4,13.2,16.3,16.7"/>
<path fill="none" stroke="#E1E1E1" stroke-miterlimit="10" d="M202.9,219.6c-0.6-0.8-2-0.3-2.9,0.2c-0.9,0.4-1.8,1.9-1,2.5
	C200.4,223.2,204,221,202.9,219.6z"/>
<path fill="none" stroke="#E1E1E1" stroke-miterlimit="10" d="M80.2,192.4c0.1-0.2,0.1-0.3,0.1-0.5c0-0.3-0.2-0.5-0.4-0.7
	c-1.8-1.7-4.5-3.7-6.7-2.6c-1.1,0.6,0.4,1.9,1.1,2.9c1,1.3,3.1,3.5,4.3,3C79.4,194.1,79.8,193.2,80.2,192.4z"/>
<path fill="none" stroke="#E1E1E1" stroke-miterlimit="10" d="M-2.3,194.1c2.4,0,5.1-3.3,5.9-5.8c0.1-0.5,0.3-0.9,0.1-1.4
	c-0.2-1-1.3-1.6-2.2-2.2c-1.5-1.1-2.5-3-2.5-4.9c0-1.3,0.4-2.5,0.4-3.8c0-0.4-0.1-0.8-0.3-1.1"/>
<path fill="none" stroke="#E1E1E1" stroke-miterlimit="10" d="M-2.5,139.5c4-0.9,8-2,11.4-4.2c6.9-4.4,10.3-12.5,13.3-20.2
	c1.6-4,3.2-8.7,1.3-12.6c-0.9-1.8-2.4-3.2-3.2-4.9c-1.3-2.9-0.6-6.2-0.6-9.4c0-4.2-1.3-8.6,0.3-12.5c1.5-3.5,5.5-5.7,9.2-5.2
	c3.7,0.5,3.7,6.6,7.4,7.5c3.5,1,7.3-4.2,9.2-1.1c0.8,1.2,3.3,4.9,4.2,6c3.6,4,6.1,5.3,9.3,7.8c3.4,2.6,7.7,4.7,8.9,8.8
	c0.9,2.9,0.8,6.6,3.4,8.1c1.2,0.7,2.8,0.6,4.1,1c1.4,0.3,1.5,2.1,2.8,2.8c2.8,1.6,6.5-0.9,8.9,1.3s1.8,7.2,4.8,8.3
	c3.2,1.2,6.3-2.8,9.7-3.3c2.4-0.4,5.2-0.4,7,1.3c1.8,1.7,2.1,4.4,2.6,6.9c1.4,6,5.5,11.4,11,14.2c4.3,2.2,9.5,3,13.1,6.2
	c1.4,1.3,2.5,2.9,4.1,4c1.4,1,3.1,1.5,4.8,1.9c11.6,2.2,23.1-3.8,33.4-9.6c2.9-1.7,5.9-3.3,8.4-5.6c5.9-5.6,8-15.2,3.9-22.3
	c-2-3.6-7.1-8.8-3.7-11.1c1.6-1.1,4.4,0.9,5.7-0.5c6.3-6.7-0.8-18.4-3-27.4c-0.6-2.4-1.6-4.5-2.3-6.8c-1-3.3-3.4-6.1-4.4-9.5
	c-1-3.3,0.2-7.9,3.6-8.5c1.8-0.3,3.8,0.5,5.2-0.6c0.7-0.5,1-1.4,1.3-2.1c1.1-2.7,2.5-5.3,4.2-7.7c1.5-2.1,3.3-4.2,5.7-5.2
	c1.8-0.7,3.7-0.9,5.6-1.1c2.9-0.4,5.7-1,8.5-1.7c7.5-1.7,14.9-3.4,22.2-5.9c12.7-4.4,24.6-11,36.3-17.6c2.3-1.3,4.6-2.6,6.7-4.2
	c2.7-2,5.1-4.5,7-7.4"/>
<path fill="none" stroke="#E1E1E1" stroke-miterlimit="10" d="M182.4,40.7c-0.3-1-0.6-2-1.2-2.8c-1.2-1.5-3.6-1.9-5.2-0.8
	c-1.4,1-2,2.7-2.2,4.4c-0.5,3-0.1,6.2,1.1,9c0.1,0.3,0.3,0.6,0.5,0.8c0.2,0.2,0.5,0.3,0.8,0.3c0.8,0.2,1.6,0.9,2.3,0.6
	c2.2-1,2.3-4.2,3.5-6.3c0.4-0.8,0.8-1.5,0.9-2.4C182.9,42.6,182.7,41.7,182.4,40.7z"/>
<path fill="none" stroke="#E1E1E1" stroke-miterlimit="10" d="M-2.8,61.9c3.5-5.3,5.7-11.4,5.4-17.7c-0.1-3.5-1-6.9-1.2-10.4
	c-0.6-12,7.3-22.5,14.8-31.8c1-1.2,2.1-2.6,3.6-3c2.4-0.7,4.8,0.8,7.2,1.6c6.2,1.9,13.7-1.6,19.1,2c3.2,2.1,4.6,6.2,4.9,10
	c1.3,14.1-9,39.8-5.3,41.8c9.4,5,20.1,7.6,26.7,15.9c1.7,2.2,3.4,4.6,5.9,5.6c1.5,0.6,3.3,0.6,4.9,0.8c7.7,0.7,15,4.3,20.7,9.4
	c2.7,2.3,5,5,7.4,7.6c4.1,4.6,8.3,9.3,12.4,13.9c3.7,4.1,7.4,8.2,9.9,13.1c2.8,5.4,4.6,12.1,10.2,14.4c7.1,2.9,14.9-4.2,16.3-11.8
	c1.4-7.6-1.3-15.2-2.6-22.7c-4.4-25.5,7.2-50.8,18-74.3c0.8-1.8,1.7-3.9,0.8-5.7c-0.7-1.5-2.3-2.3-3.4-3.6
	c-2.7-3.1-1.6-8.1,0.7-11.6c2.2-3.5,5.4-6.5,6.5-10.5"/>
<path fill="none" stroke="#E1E1E1" stroke-miterlimit="10" d="M157.2-4.4C157-2.9,157-1.5,157.1,0c0.2,2.5,1.1,5,0.8,7.5
	c-0.2,1.9-0.9,3.7-1.7,5.4c-1.6,3.4-3.4,6.8-5.5,10c-2.1,3.4-4.6,7-4.1,11c0.3,2,1.3,3.8,1.5,5.8c0.3,2.1-0.3,4.3-1,6.4
	c-3.3,10.1-8.5,19.5-15.3,27.6c-0.7,0.9-1.5,1.8-2.6,2.3c-1.4,0.7-3,0.6-4.5,0.5c-2.9-0.2-5.9-0.4-8.6-1.5s-5.2-3.2-5.9-6
	c-0.6-2.1-0.1-4.3-0.4-6.5s-2.7-6.2-3.9-4.5c-2.2,3.2-2.2,7.5-6,8.2c-3.8,0.7-7.6-0.8-11.1-2.3c-1.3-0.5-2.5-1.1-3.7-1.8
	c-4-2.7-5.7-7.7-6.2-12.5c-0.5-4.8,0-9.7-1-14.4c-0.4-2.1-1.1-4.1-1.4-6.2c-0.4-3.3,0.1-6.6,0.1-9.8c0-6.6-2.3-13-5.7-18.6
	c-0.6-0.9-1.1-1.8-1.7-2.6"/>
<path fill="#EAEAEA" stroke="#D6D6D6" stroke-miterlimit="10" d="M246,197.5c-0.7,0.5-0.9,1.7-1.8,1.8c-0.2,0-0.4,0-0.6,0.1
	c-0.3,0.1-0.5,0.4-0.6,0.7c-0.3,1,0.5,2,1.1,2.9c0.1,0.1,0.2,0.3,0.3,0.4c0.2,0.1,0.4,0.2,0.6,0.2c1.5,0.3,3.1,0.1,4.5-0.5
	c0.8-0.4,1.6-0.9,1.8-1.8c0.2-0.8-0.2-1.7-0.5-2.5c-0.1-0.2-0.2-0.5-0.4-0.7c-0.6-0.8-1.9-0.9-2.9-0.9
	C247.1,197.1,246.5,197.2,246,197.5z"/>
<path fill="#EAEAEA" stroke="#D6D6D6" stroke-miterlimit="10" d="M273.6,200.7c0.4-0.2,0.8-0.3,1.1-0.6c0.6-0.6,0.6-1.6,0.9-2.4
	c0.3-1.1,1.2-2,2.2-2.5c0.5-0.2,1-0.4,1.4-0.8c0.4-0.4,0.4-1,0.4-1.6c0-3.3-0.2-6.6-0.8-9.8c-0.2-1-0.4-2.1-1.2-2.7
	c-0.6-0.5-1.3-0.6-2-0.8c-1.5-0.2-3-0.3-4.4,0.2c-2.6,1-4,3.8-5.2,6.4c-0.5,1.1-1.1,2.3-1,3.6c0.1,1.8,1.4,3.4,1.6,5.2
	c0.1,0.9-0.1,1.7-0.1,2.6c-0.1,1.3,0,2.5,0.4,3.7c0.2,0.6,0.4,1.3,1,1.5c0.6,0.2,1.2,0,1.7-0.3C270.8,201.8,272.2,201.3,273.6,200.7
	z"/>
<path fill="#EAEAEA" stroke="#D6D6D6" stroke-miterlimit="10" d="M233.6,117.8c-2.5,0-4.8-1.8-7.3-1.7c-0.4,0-0.8,0.1-1.1,0.3
	c-0.3,0.2-0.5,0.6-0.6,0.9c-0.6,1.3-1,2.8-0.8,4.2s0.9,2.9,2.1,3.6c1.4,0.8,3.2,0.7,4.3,1.9c0.4,0.4,0.6,0.8,0.8,1.3
	c2.7,5.2,6.5,9.7,10.3,14.2c0.8,1,1.7,2,2.8,2.6c1.9,1.1,4.3,0.9,6.4,0.5c0.8-0.2,1.7-0.4,2.3-1c0.4-0.4,0.7-0.9,1-1.4
	c1.9-3.7,3.4-7.5,4.4-11.5c0.4-1.5,0.7-3.2,0.1-4.7c-0.5-1.2-1.5-2-2.5-2.8c-4.2-3-9.4-4.3-14.6-5.1c-0.4-0.1-0.9-0.1-1.2-0.3
	c-0.4-0.2-0.6-0.6-1-0.8C237.6,116.9,235.5,117.8,233.6,117.8z"/>
<path fill="#7BBCEB" stroke="#4E9BD7" stroke-miterlimit="10" d="M187,168.7c-0.4-0.3-0.8-0.5-1.3-0.7c-4.2-1.4-8.6-2.5-13-3.2
	c-1.3-0.2-2.6-0.4-3.7,0.3c-1.2,0.8-1.6,2.3-1.9,3.8c-0.6,3.5-0.9,7.1-1,10.6c0,2,0,4.1,0.6,6c0.6,1.9,1.7,3.8,3.5,4.8
	c0.4,0.3,0.9,0.5,1.3,0.8c0.8,0.7,0.9,1.9,1.2,3c0.3,1.1,0.8,2.2,1.9,2.4c0.9,0.2,1.8-0.5,2.2-1.2s0.1-2.1,0.9-2.5
	c2-1.1,4.4,1.3,6.6,1.9c0.6,0.2,1.2,0.3,1.8,0.2c0.6-0.2,1.1-0.7,1.6-1.1c1.7-1.8,3.3-3.6,5-5.4c0.6-0.6,1.2-1.3,1.5-2.1
	c0.7-2.1-0.9-4.3-2.2-6.1c-2-2.8-3.5-6-4.2-9.4C187.7,169.9,187.6,169.2,187,168.7z"/>
<path fill="#EAEAEA" stroke="#D6D6D6" stroke-miterlimit="10" d="M79.7,198.6c-0.7-0.7-1.8-1.4-2.1-1.2c-1.6,1-0.4,4.7,1.5,5
	c0.8,0.1,1.4-0.9,1.5-1.7C80.8,199.9,80.3,199.2,79.7,198.6z"/>
<path fill="none" stroke="#D6D6D6" stroke-miterlimit="10" d="M119.1-3.2c-3.9,17.4,0.9,31.8,0.6,49.1c0,2.3-1.7,8.7-0.9,10.9
	c0.7,1.9,2.3,3.4,3.6,5.1c3,3.9,5.3,9.5,6.8,14.1c2.8,8.9,5.7,16.7,10.7,24.6c3.9,6.2,8.7,12.6,8.2,19.4"/>
<text transform="matrix(1 0 0 1 204.8481 100.9193)"><tspan x="0" y="0" fill="#585858" font-family="'Verdana-Italic'" font-size="8">Hoover Lakes</tspan><tspan x="0" y="9.6" fill="#585858" font-family="'Verdana-Italic'" font-size="8">(north)</tspan></text>
<text transform="matrix(1 0 0 1 199.8364 168.279)"><tspan x="0" y="0" fill="#7BBCEB" font-family="'Verdana-Italic'" font-size="8">Hoover Lakes</tspan><tspan x="0" y="9.6" fill="#7BBCEB" font-family="'Verdana-Italic'" font-size="8">(west)</tspan></text>
<text transform="matrix(1 0 0 1 283.8364 186.7944)"><tspan x="0" y="0" fill="#585858" font-family="'Verdana-Italic'" font-size="8">Hoover Lakes</tspan><tspan x="0" y="9.6" fill="#585858" font-family="'Verdana-Italic'" font-size="8">(east)</tspan></text>
<text transform="matrix(0.1198 0.9928 -0.9928 0.1198 120.3831 16.4397)" fill="#585858" font-family="'Verdana-Italic'" font-size="8">Hoover</text>
<text transform="matrix(0.4814 0.8765 -0.8765 0.4814 135.4655 85.5808)" fill="#585858" font-family="'Verdana-Italic'" font-size="8">Creek</text>
<text transform="matrix(0.9123 -0.4094 0.4094 0.9123 132.4305 271.3929)" fill="#585858" font-family="'Verdana-Italic'" font-size="8">Buena</text>
<text transform="matrix(0.9632 -0.2689 0.2689 0.9632 221.2568 266.1321)" fill="#585858" font-family="'Verdana-Italic'" font-size="8">Vista</text>
<text transform="matrix(0.9003 -0.4353 0.4353 0.9003 329.0857 271.3694)" fill="#585858" font-family="'Verdana-Italic'" font-size="8">Crest</text>
<text transform="matrix(1 0 0 1 26.1831 170.9313)" fill="#585858" font-family="'Verdana-Italic'" font-size="8">× 8982</text>
<text transform="matrix(1 0 0 1 174.3725 42.2852)" fill="#585858" font-family="'Verdana-Italic'" font-size="8">× 8637</text>
<text transform="matrix(1 0 0 1 237.2448 291.5525)" fill="#585858" font-family="'Verdana-Italic'" font-size="8">× 9737</text>
<text transform="matrix(1 0 0 1 17.6735 337.0561)" fill="#585858" font-family="'Verdana-Italic'" font-size="8">× 9743</text>
<path fill="none" d="M183.3,152.8c1.7-2.6,4.5-4.2,6.9-6.1c4.4-3.4,8.2-8,9.6-13.4c1-3.9,1-8.6,4-11.3"/>
<text transform="matrix(0.8019 -0.5975 0.5975 0.8019 189.4445 150.4836)"><tspan x="0" y="0" fill="#7D7D7D" font-family="'Verdana-Italic'" font-size="7">8</tspan><tspan x="4.8" y="0" fill="#7D7D7D" font-family="'Verdana-Italic'" font-size="7" rotate="-7.2">8</tspan><tspan x="9.6" y="-0.6" fill="#7D7D7D" font-family="'Verdana-Italic'" font-size="7" rotate="-16">0</tspan><tspan x="14.3" y="-2" fill="#7D7D7D" font-family="'Verdana-Italic'" font-size="7" rotate="-26.7">0</tspan></text>
<path fill="none" d="M45.8,54.5c-3.7-2,6.6-27.7,5.3-41.8"/>
<text transform="matrix(0.2181 -0.9759 0.9759 0.2181 48.4147 45.7135)"><tspan x="0" y="0" fill="#7D7D7D" font-family="'Verdana-Italic'" font-size="7">8</tspan><tspan x="4.4" y="0" fill="#7D7D7D" font-family="'Verdana-Italic'" font-size="7" rotate="0.5">4</tspan><tspan x="8.9" y="0.1" fill="#7D7D7D" font-family="'Verdana-Italic'" font-size="7" rotate="0.1">0</tspan><tspan x="13.4" y="0.1" fill="#7D7D7D" font-family="'Verdana-Italic'" font-size="7" rotate="-1">0</tspan></text>
<path fill="none" d="M327.7,59.6c1.1-6,3.4-11.8,5.6-17.6c5.1-13.2,10.2-26.3,15.3-39.5"/>
<text transform="matrix(0.3241 -0.946 0.946 0.3241 331.9757 53.0182)"><tspan x="0" y="0" fill="#7D7D7D" font-family="'Verdana-Italic'" font-size="7">9</tspan><tspan x="4.4" y="0" fill="#7D7D7D" font-family="'Verdana-Italic'" font-size="7" rotate="1.8">2</tspan><tspan x="8.8" y="0.1" fill="#7D7D7D" font-family="'Verdana-Italic'" font-size="7" rotate="2.3">0</tspan><tspan x="13.2" y="0.3" fill="#7D7D7D" font-family="'Verdana-Italic'" font-size="7" rotate="2.3">0</tspan></text>
<path fill="none" d="M302.4,312.9c8.6,0.8,17.1,2.6,25.7,1.7c3.8-0.4,7.5-1.3,11.3-2.2c4.6-1.1,9.2-2.2,13.8-3.4"/>
<text transform="matrix(0.9949 0.1013 -0.1013 0.9949 312.6788 316.6891)"><tspan x="0" y="0" fill="#7D7D7D" font-family="'Verdana-Italic'" font-size="7">9</tspan><tspan x="4.6" y="0" fill="#7D7D7D" font-family="'Verdana-Italic'" font-size="7" rotate="-2.6">2</tspan><tspan x="9.2" y="-0.2" fill="#7D7D7D" font-family="'Verdana-Italic'" font-size="7" rotate="-6.7">0</tspan><tspan x="13.9" y="-0.8" fill="#7D7D7D" font-family="'Verdana-Italic'" font-size="7" rotate="-12.2">0</tspan></text>
<path fill="none" d="M107.6,302.3c11,6.3,21.4,13.6,30.9,22c8,7,17,15.2,27.6,14.1"/>
<text transform="matrix(0.7724 0.6352 -0.6352 0.7724 130.924 321.2292)"><tspan x="0" y="0" fill="#7D7D7D" font-family="'Verdana-Italic'" font-size="7">9</tspan><tspan x="4.4" y="0" fill="#7D7D7D" font-family="'Verdana-Italic'" font-size="7" rotate="1.3">4</tspan><tspan x="8.8" y="0.1" fill="#7D7D7D" font-family="'Verdana-Italic'" font-size="7" rotate="1.6">0</tspan><tspan x="13.3" y="0.3" fill="#7D7D7D" font-family="'Verdana-Italic'" font-size="7" rotate="0">0</tspan></text>
<path fill="none" d="M278.7,81.2c0.1,8.4,7.7,33.5,3.2,61.4"/>
<text transform="matrix(0.1085 0.9941 -0.9941 0.1085 279.5245 105.5685)"><tspan x="0" y="0" fill="#7D7D7D" font-family="'Verdana-Italic'" font-size="7">9</tspan><tspan x="4.4" y="0" fill="#7D7D7D" font-family="'Verdana-Italic'" font-size="7" rotate="1.4">0</tspan><tspan x="8.8" y="0.1" fill="#7D7D7D" font-family="'Verdana-Italic'" font-size="7" rotate="3.1">0</tspan><tspan x="13.1" y="0.3" fill="#7D7D7D" font-family="'Verdana-Italic'" font-size="7" rotate="4.8">0</tspan></text>
<g>
	<g>
		<polyline fill="none" stroke="#7D7D7D" stroke-miterlimit="10" points="85.2,341.6 85.2,348.7 275.4,348.7 275.4,341.7 		"/>
		<line fill="none" stroke="#7D7D7D" stroke-miterlimit="10" x1="180.5" y1="341.4" x2="180.5" y2="348.7"/>
		<line fill="none" stroke="#7D7D7D" stroke-miterlimit="10" x1="161.2" y1="349.2" x2="161.2" y2="343.7"/>
		<line fill="none" stroke="#7D7D7D" stroke-miterlimit="10" x1="142.4" y1="349.2" x2="142.4" y2="343.7"/>
		<line fill="none" stroke="#7D7D7D" stroke-miterlimit="10" x1="123.3" y1="349.2" x2="123.3" y2="343.5"/>
		<line fill="none" stroke="#7D7D7D" stroke-miterlimit="10" x1="104.6" y1="349.2" x2="104.6" y2="343.7"/>
	</g>
	<text transform="matrix(1 0 0 1 83.7834 339.1468)" fill="#7D7D7D" font-family="'Verdana'" font-size="8">0</text>
	<text transform="matrix(1 0 0 1 174.2946 339.1468)" fill="#7D7D7D" font-family="'Verdana'" font-size="8">0.5</text>
	<text transform="matrix(1 0 0 1 258.3415 339.1468)" fill="#7D7D7D" font-family="'Verdana'" font-size="8">1 mi</text>
</g>
</svg>
