<?xml version="1.0" encoding="utf-8"?>
<!-- Generator: Adobe Illustrator 17.1.0, SVG Export Plug-In . SVG Version: 6.00 Build 0)  -->
<!DOCTYPE svg PUBLIC "-//W3C//DTD SVG 1.1//EN" "http://www.w3.org/Graphics/SVG/1.1/DTD/svg11.dtd">
<svg version="1.1" id="Layer_1" xmlns="http://www.w3.org/2000/svg" xmlns:xlink="http://www.w3.org/1999/xlink" x="0px" y="0px"
	 viewBox="0 0 360 360" enable-background="new 0 0 360 360" xml:space="preserve">
<path fill="none" stroke="#E1E1E1" stroke-miterlimit="10" d="M95.5,354.4c-4.4-0.7-9.4,0.8-12.4,4.1c-0.7,0.7,1.1,1.3,1.6,2.2
	c0.5,0.9-0.3,2-1.2,2.4c-0.9,0.5-2,0.7-2.6,1.5c-1.5,2,1.2,4.7,0.7,7.2c-0.4,1.8-3.5,4.5-1.7,5.1c4.3,1.7,8.2-9.1,12.1-6.7
	c1.2,0.8-1.9,3.4-0.8,4.4c1.4,1.2,3.9-0.1,5.3,1.1c0.4,0.3,0.8,0.8,1.3,0.8c0.3,0,0.6-0.1,0.8-0.2c2-1,3.6-4.2,5.7-3.5
	c3.2,0.9-3.7,6.8-1.9,9.5c0.9,1.3,3.5,1.5,4.1,0.1c0.3-0.6,0.1-1.3,0.4-1.8c0.3-0.6,0.9-0.9,1.3-1.3c0.8-0.8,0.1-2.1,0.3-3.2
	c0.2-0.9,2-0.7,2.2-1.6c1-3.2-0.5-7.2-3.1-9.4c-1.9-1.6-5.5,0.9-7.1-0.9c-1.3-1.4-1.6-2.7-3.3-3.6c-1.4-0.7,1.1-3,0.6-4.5
	C97.5,355,96.5,354.5,95.5,354.4z"/>
<path fill="none" stroke="#E1E1E1" stroke-miterlimit="10" d="M142.6,359.5c-0.1-0.2-0.3-0.2-0.5-0.3c-1-0.2-2-0.5-3-0.4
	c-1,0.1-2.1,0.5-2.6,1.3c-0.6,1,0,2.5,1,3c1.1,0.5,3.8-0.2,3.9-0.3c0.7-0.7,1.2-1.7,1.3-2.7C142.8,359.9,142.8,359.6,142.6,359.5z"
	/>
<path fill="none" stroke="#E1E1E1" stroke-miterlimit="10" d="M102.9,353c-0.5,0.2-0.4,1.1-0.1,1.6s0.8,0.9,1.3,1.2
	c0.5,0.3,0.9,1.1,1.4,0.9c0.7-0.2,1.1-0.9,1.6-1.5c0.2-0.2,0.1-0.6-0.1-0.9C106.4,353.1,104.3,352.4,102.9,353z"/>
<path fill="none" stroke="#E1E1E1" stroke-miterlimit="10" d="M263.6,387.5c1-2.7,1.9-5.5,2.9-8.2c1.1-3,2-6.8-0.3-9
	c-1.2-1.1-4.3-1.3-4-2.9c0.2-1.2,4.5-4.1,3-8.8c-0.7-2.3,2-0.9,3-3.1c1-2.2-0.1-5.5-2.5-5.5c-0.5,0-1,0.1-1.4-0.1
	c-0.5-0.3-0.6-1-0.6-1.6c0-4-1-4.4-3.3-7.7c-2.1-2.9-4.6-7.1-7.4-9.3c-5.4-4.2-15.1-10.4-15.4-12.6c-0.9-6.1-4.9-6.3-7-7.4
	c-3.1-1.6,4.3-10.1,4.3-16.3c0-1.7,0.9-3.5,0.3-5.1c-0.4-1.3-1.5-2.4-2.5-3.4c-3.8-4-7-8.4-9.7-13.2c-1.1-1.9-2.1-4-2.2-6.2
	c-0.2-2.2-1.6-3.5-2.4-5.6c-1-2.8,1.6-5.5,0.3-8.2c-1-2.2-0.8-4.8-0.2-7.1c0.6-2.3,3.7-2.6,4.8-4.7c1.1-2.2,2.5-4.9,1.1-6.9
	c-3-4.5-10.8,0.4-16-0.9c-1.8-0.5-3.7-1-5.5-0.4c-1.8,0.6-3,2.9-1.8,4.3c0.8,0.9,2.2,1,3.2,1.6c2.3,1.5,1.6,5.3-0.6,6.9
	s-5.1,1.8-7.8,2.1c-5.1,0.6-12.2-0.5-14.7,4c-1.2,2.2-3.4,5.1-2,7.2c2.8,3.9,10.7-1.7,14.1,1.7c2.5,2.6-1.1,7.1-1.6,10.7
	c-0.3,2.2-0.7,4.5-2,6.2c-1.7,2.4-7.5,1.2-7.6,4.2c-0.1,2.1,1.1,3.9-0.7,5c-1.8,1.1-5.6,1.2-5.3,3.3c0.2,1.1,0.6,2.2-0.3,2.9
	s-1.8,0.6-2.8,1c-2.4,0.9-4.4,2.6-6.7,3.6c-2.8,1.2-6,1.4-9.1,1.6c-3.5,0.2-7,0.4-10.6,0.6c-3.3,0.2-7.2,0.6-9.1,3.4
	c-0.6,0.8-0.8,2.1,0.1,2.5c0.7,0.3,2.2,0.7,1.6,1.1c-2.7,1.9-7.7,2.5-7.5,5.8c0.2,2.1,0,4.3,1.1,6.1c1.2,2,4.7,0.3,6.8-0.7
	c2.4-1.2,5.1-4.9,7.1-3.3c3.3,2.7-0.1,9.5,3.1,12.4c2.8,2.6,7.4-1.8,11.3-1.6c4.9,0.2,10.8,0.7,14,4.5c0.7,0.9-1.4,2.8-0.5,3.5
	c1.8,1.6,4.6,1.4,6.5,2.9c1.7,1.3,3.5,2.7,5.2,4c1.4,1.1,3.8,0.8,4.7,2.4c1.4,2.5-5.3,5-3.9,7.5c2.1,3.9,9.5,1.3,11.5,5.2
	c0.7,1.4,0.9,3.1,0.6,4.6c-0.3,1.4-1.1,2.6-1.8,3.8c-3.7,6.2-7.5,12.3-11.2,18.5"/>
<path fill="none" stroke="#E1E1E1" stroke-miterlimit="10" d="M-12.3,149.8c2.3-0.8,4.5-1.9,6.5-3.3c1.5-1.1,2.8-2.3,4.4-3.2
	c4.7-2.5,10.5-1.1,15.7-0.2c5.1,0.9,10.3,1.2,15.5,1c0.8,0,1.7-0.1,2.5-0.3c1.1-0.3,2.9-0.1,4-0.4c5.3-1.5,8.5-3.7,12.3-7.4
	c0.4-0.4,1.1-0.4,1.7-0.4c0.5,0,1,0.2,1.5,0.4c2.2,0.8,6.1,0.1,6.7,2.4c0.3,1.4,1.4,2.4,1,3.8c-0.2,0.7-1.9,1.2-1.3,1.7
	c1.3,1.1,3.9-1,5.1,0.3c1.2,1.4-1.4,4.2,0,5.3c2.5,2.1,6.4-1.3,9.6-0.5c1.4,0.4,2.8,1,3.6,2.2c0.8,1.2,0.8,3-0.4,3.9
	c-0.6,0.4-1.4,0.6-1.9,1.1c-0.8,0.9-0.3,2.3,0.6,3s2.1,0.9,3.2,1.2c2,0.5,5.5,3,3.7,3.8c-1.1,0.5-2.5,0.4-3,1.5
	c-0.5,1.2-0.4,2.5-0.4,3.7c0,2.4-0.5,5.4-2.2,7c-3.4,3.1-2.2,8.6-3.8,12.9c-0.9,2.6-2.9,4.7-4.9,6.5c-0.5,0.5-1.1,1-1.1,1.7
	c0,0.6,0.3,1.1,0.4,1.7c0.2,1.1-0.7,2.2-1.5,3c-1.7,1.8-2.6,2.8-3.6,5c-2.6,5.7-10.7,7.8-16,9.3c-1.9,0.5,1.1,3.4,3.1,3.8
	c1.9,0.4,3.9-0.5,5.6-1.5c3.8-2.1,8.1-9,11.5-6.2c4.6,3.7-4.1,11.2-7.8,15.8c-0.9,1.1-1.8,2.2-2,3.5c-0.2,1.9,1.2,3.5,2.4,4.8
	c2.3,2.5,4.9,5.1,8.3,5.7c0.7,0.1,1.5,0.2,2.2,0.5c1.1,0.5,1.8,1.7,2.5,2.7c1.8,3.1,3.5,6.1,5.3,9.2c1.6,2.7,3.2,5.5,5.7,7.4
	c1.1,0.8,2.4,1.5,3.4,2.4c2.5,2.2,3.9,6.1,7.2,6.5c3,0.3,5.2-2.6,6.7-5.2c1.1-1.8,2.2-3.7,2.7-5.8c0.4-1.6,0.4-3.3,0.8-4.9
	c0.7-2.4,2.3-4.4,3.9-6.4c2.5-3.1,5.1-6.3,7.6-9.4c0.9-1.1,1.7-2.1,2.8-2.9c2.4-1.8,5.6-2.3,7.8-4.3c0.8-0.7,1.4-1.6,2.3-2.1
	c1.2-0.7,2.7-0.6,4-0.5c4.5,0.3,9.2,0.7,13.1,3.1c1.9,1.2,3.5,2.9,5.5,4s4.6,1.6,6.4,0.3c1.8-1.2,2.3-3.5,2.7-5.6
	c0.6-3.1,1.2-6.2,1.7-9.3c0.7-3.8,1.4-7.6,1-11.5c-0.4-3.6-1.8-7.4-0.5-10.7c0.7-1.7,1.9-3,2.8-4.6c0.8-1.6,1-3.8-0.2-5
	c-0.6-0.6-1.6-1-1.9-1.8c-0.2-0.6,0-1.2,0.2-1.8c0.6-1.6,1.2-3.2,1.8-4.9c0.5-1.4,1.9-2.2,2.8-3.5c2.3-3.2,1-8.3,4.1-10.7
	c2.1-1.6,4.8-1.9,6.9-3.4c4.5-3.1,4.5-9.9,2.7-15c-0.7-2-1-4.9-2.6-6.2c-1.6-1.3-4,0.9-5.5-0.5c-1.5-1.3-0.5-8.5,0-14.6
	c0.1-1.1,1.9-1.4,2.2-2.5c0.6-2.1-0.6-4.1-1-6.2c-0.4-2.1,2.3-2.5,3-4.5c1.2-3.5-2.1-6.5-3-10.1c-1-3.9-7.4-10-3.5-11
	c2.5-0.6,4.2,3.1,6.3,4.6c2.5,1.8,5,3.6,7.8,4.6c2.9,1,6.9-3.1,8.8-0.7c0.9,1.1-2.1,1.9-2.5,3.3c-0.4,1.3,0.1,3,1.4,3.5
	c0.7,0.2,1.4-0.1,2.1-0.1c7.5,0.2,9.9-4.4,10.7-8.1c0.6-2.9,3,2.6,4.6,0.1c1.3-2.1,2.3-3.5-0.2-4.7c-1.6-0.8,0-4,1.2-5.4
	c1.8-2.2,5.8-4.7,7.5-2.4c1,1.4-3.1,1.7-3.2,3.5c0,1.2,1.1,2,0.6,3s-0.7,2.7-1.4,3.7c-1,1.5-1.9,2.4-2,4.1c-0.1,2.5,1.7,6-0.4,7.4
	c-1.1,0.7-2.5,0.7-3,1.9s-0.1,4.2-0.8,5.2c-1.8,2.6-8.1,1.9-7.7,5c0.4,2.7,5.7-0.9,7,1.5c0.9,1.7-1.5,2.9-3.2,3.7
	c-2.6,1.2-7.3,0.3-7.4,3.2c0,2,4.2,0.8,5.2,2.6c0.3,0.5,0.2,1.1,0.2,1.7c-0.7,5-7.9,13.5-10.3,9.1c-1.2-2.2,5.2-7.4,2.7-7.1
	c-2.5,0.3-7.9,3.4-8.2,5c-0.2,1.1,0.4,2.2,0.7,3.4c0.8,3-1.7,5.9-0.8,9c1.2,4,6.6,4,9.2,7.3c2.1,2.6,3.6,5.7,6.4,7.5
	c1.4,0.9,3.1,1.4,4.5,2.3s2.7,2.5,2.4,4.1c-0.2,1.8-1.9,2.9-3.1,4.2c-5,5.5-1.8,15.1-6.2,21.1c-0.7,1-1.6,1.8-2,2.9
	s-0.4,2.6,0.6,3.2c0.6,0.4,1.4,0.4,2.2,0.3c5.2-0.3,10.4-0.5,15.6-0.8c2.8-0.1,5.7-0.4,7.9-2.1c1.2-0.9,2.3-2.3,3.8-2
	c1.8,0.5,1.7,3,2.3,4.7c1,2.6,4,3.6,6.6,4.8c2.5,1.2,2.4,4.2,4.2,6.3c3.1,3.6,7.6,6.8,12.4,6.2c0.9-0.1,1.9-0.6,2.7-0.1
	c2.1,1.1-1.5,5.3,0.4,6.6c2.9,2,7.1,0.2,10.5-0.8c0.9-0.3,1.9-0.6,2.3-1.4c0.6-0.9,0.2-2.1,0-3.2c-1.8-7.5,0.2-15.9,5.1-21.8
	c0.7-0.9,1.5-1.7,1.9-2.8c0.8-2,0-4.3-1.4-6c-1.4-1.7-3.2-2.9-4.9-4.2c-4.3-3.4-7.7-7.9-9.8-12.9c-0.3-0.8-0.6-1.6-0.5-2.4
	c0.2-2,2.5-3,4.3-3.9c2-0.9,3.7-2.2,5.3-3.7c0.5-0.5,1-1,1.2-1.7c0.6-2.2-2-3.7-4.2-4.5c-4.4-1.5-9.1-3.1-11.6-6.9
	c-1.3-1.9-1.9-4.1-3.2-6c-1.3-1.8-3.8-1.2-5.8-2.2c-1.7-0.8-3.9-2.3-3.4-4.1c0.7-2.9,5.9-2,7.5-4.5c0.5-0.8,0.8-1.7,1.2-2.5
	c1.3-2.4,4.5-2.2,6.7-3.8c0.8-0.5,0.3-2.3,1.2-2.5c2.4-0.4,5.2-0.5,7,1.2c2,1.8-0.9,5.3-1.4,7.9c-0.1,0.8-0.3,1.6,0,2.3
	c0.3,0.6,0.8,1,1.3,1.4c1.2,1,2.5,2,3.7,2.9c1.1,0.9,2.3,1.8,3.7,2.2c1.4,0.4,3.1,0,3.8-1.2c1.2-1.9-2.5-3.7-2.1-5.9
	c0.2-1.2,3-1,2.9-2.2c0-1.6-3.1-1.2-4.3-2.4c-1.6-1.6-0.4-4.5,0.5-6.5c0.3-0.6,0.6-1.3,0.5-1.9c-0.2-0.9-1.4-1.6-1-2.5
	c0.3-0.9,1.7-0.5,2.2,0.3c0.5,0.8,0.2,2.2,1,2.5c2.3,1.1,1.5-3.3,2.2-5.7c0.4-1.6,3.4-3.3,1.9-3.9c-2-0.8-3.9,1.7-5.9,2.6
	c-0.5,0.2-1,0.4-1.5,0.1c-0.5-0.3-0.4-1.1-0.2-1.6c0.4-1.5,0.6-3,0.3-4.5s-2.4-1.8-2.8-3.3c-0.4-1.2,1.2-2.4,0.6-3.5
	c-0.6-1.1-2-0.9-3.1-0.3c-0.7,0.4-1.3-1-1.1-1.9c0.2-0.8,0.8-1.4,1.3-2.1c0.7-1,1.1-2.3,1.1-3.5c0-0.6-0.1-1.2-0.5-1.7
	c-0.7-0.9-2.2-0.9-3.2-0.2s-0.9,2.7-2.1,2.8c-1.4,0.1-2.5-2.3-3.3-1.2c-0.3,0.5-0.2,1.1-0.2,1.7c0,2.2-1.3,4.4-3.4,4.7
	c-2.1,0.4-4,0.3-5.5-1.3c-1.2-1.3-1.5-4.8-0.8-6.9c0.3-1-1.2-1.8-1.4-2.8c-0.4-1.7,1-3.3,2.5-4.2c1.5-0.9,3.2-1.4,4.5-2.5
	c1.3-1.1,0.6-2.9,0.9-4.6c0.2-0.9,1.7-1.7,2.6-1.3c2.3,1,1.3,4.8,2,7.2c0.1,0.5,0.3,1.1,0.7,1.5c0.9,1,2.5,0.7,3.8,0.2
	c3-1.1,5.5-6.1,8.4-4.7c2.5,1.2,0.5,5.5,1.5,8c1,2.7-0.2,5.5,0.9,8.1c1.3,3,6.6-1.6,7.6-4.7c0.5-1.5,0.4-3,0.9-4.5
	c0.4-1.5,1.5-2.9,3-3c1.5-0.1,3.8-0.4,5.2-1c2-0.8,1.3-3.8,1.9-5.9c0.7-2.7,5.7-1.1,7,1.4c1.3,2.5-0.6,5.6,0.2,8.3
	c0.9,3,6.4-0.8,9,0.9c1.6,1,1.7,3.3,1.7,5.2c-0.1,2.9-0.4,5.7-0.8,8.6c-0.2,1.7-0.4,3.6,0.8,4.8c1,1,2.8,1.3,3.2,2.7
	c0.3,1-0.4,1.9-0.7,2.8c-0.8,2.1,2.4,3.8,1.9,6c-0.9,4.7-8.2,5.8-7.6,10.5c0.1,0.7,0.2,1.4,0.1,2c-0.1,0.4-0.3,0.8-0.5,1.2
	c-0.9,2,0.7,4.7-0.7,6.3c-1.1,1.3-2.8,1.7-3.2,3.3c-0.4,1.6-0.5,3.4-1.5,4.7c-0.4,0.5-1,0.9-1.2,1.5c-0.3,1,0.4,1.9,1,2.7
	c1.8,2.1,3.6,4.3,6.2,5.3c4.5,1.7,7.3-3.1,11-6.1c1.9-1.5,1.9,3.6,3.4,5.6c0.8,1.1,3.4-0.2,4.1,1c1.1,1.8-0.5,4.8,1.4,5.6
	c0.8,0.3,1.7,0.2,2.4,0.6c1.6,1,0.8,3.4,1.5,5.1c0.5,1.2,1.8,1.8,3,2.4c7.2,3.5,14.5,7,21.7,10.4c1.3,0.6,2.5,1.2,3.5,2.2
	c0.9,0.9,1.5,2.1,2.3,3.2c2.9,4,8.7,5.5,13.3,3.6"/>
<path fill="none" stroke="#E1E1E1" stroke-miterlimit="10" d="M145.7,197.1c1.2,0.6,2.9-0.1,3.4-1.4c0.1-0.2,0.1-0.4,0-0.6
	c-0.1-0.2-0.2-0.3-0.4-0.4c-1.2-0.7-2.8-0.1-3.4,1c-0.1,0.2-0.2,0.4-0.1,0.6C145.2,196.8,145.5,197,145.7,197.1z"/>
<path fill="none" stroke="#E1E1E1" stroke-miterlimit="10" d="M54.6,386.3c0.2-3.6,1.4-7.3,3.8-10.1c1.8-2.2,4.2-4.4,3.6-7.2
	c-0.1-0.6-0.5-1.3-0.5-1.9c0-0.8,0.5-1.6,0.9-2.3c2-3,3.9-5.9,5.9-8.9c3.8-5.7,13.2-12.3,9.5-18.1c-1.1-1.7-4-0.8-5.6-2
	c-1.6-1.1-2.8-3.1-2.4-5.1c0.7-3.2,5.4-5.4,4.3-8.5c-0.3-0.8-0.9-1.4-1.4-2c-1.3-1.8,0-4.5-1.4-6.3c-2.2-2.8-5.5-4.4-5.5-8
	s1.2-7.2,0.3-10.7c-1.4-5.3-7-8.2-12-10.4c-5.4-2.4-11-4.9-16.9-5.6c-1.4-0.2-2.9-0.2-4.2,0.4c-1.5,0.7-2.4,2.2-3.3,3.5
	c-2.7,4.4-5.4,8.8-6.8,13.7c-0.8,2.9-2.8,5.3-3.2,8.3c-1.5,11.3,7.9,21.6,7.3,33c-0.2,4.6,1.1,9.4-0.4,13.7c-0.8,2.3-3.2-0.8-5-2.5
	c-1.2-1.1-3.7,1.8-4.9,0.7c-1.1-1.1,2.1-3,1.5-4.4c-1.9-4.6-10.5-3.4-11.6-8.3c-0.4-1.7-0.2-3.9-1.7-4.9c-0.7-0.5-1.6-0.6-2.1-1.3
	c-0.4-0.6-0.3-1.5-0.4-2.2c-0.2-4.2-5-7.1-5.5-11.3c-0.3-3.1,1.8-5.9,1.9-9c0.1-2.5-1.2-4.9-1.1-7.5c0.1-2.1,1.1-4.1,1.4-6.1
	c0.6-3.7-1-7.4-3.2-10.4c-1-1.3-2.2-2.7-3.5-4.1"/>
<path fill="none" stroke="#E1E1E1" stroke-miterlimit="10" d="M-8.7,190.1c1.2-0.3,2.6,0,3.8,0.3c1.7,0.4,3.3,1,5,0.7
	c1.7-0.3,1.6-2.3,2.8-3.6c1.8-1.9,5.3-0.5,6.8-2.7s3.5-5.5,6.8-5.3c0.4,0,1.1,0.2,1.5,0.2c3,0.2,7.7-0.7,4.8,3
	c-1.5,1.9,0.1,6.4-1.6,8.1c-1,1-2.7,1-3.9,1.8c-1.2,0.8-1.7,2.3-2.2,3.7c-0.8,2.5-1.6,5.1-1.5,7.7c0.1,2.6,1.7,4.7,3.3,6.8
	c1.6,2-1.7,4.6-4,5.9c-2.3,1.2-6.8,4.6-4.4,5.7c3.5,1.6,6.7-4.6,10.5-4.5c1.6,0.1,1.7,2.6,1.2,4.1c-0.4,1.5-1.2,3-0.8,4.5
	c0.8,3,5,2.8,8,3c4.3,0.4,11.5,2.6,10.5,6.9c-0.2,1.1-0.3,2,0.3,2.9c1.9,2.6,3.8,5.3,6.2,7.4c2.3,2.1,2.6,5.1,4.7,7.5
	c3.7,4.4,8.4,6.3,13.2,9.6c2.5,1.7,3.1,5.3,5.7,6.8c2.6,1.5,5.6,2.6,8,4.5c2.1,1.7,3.6,3.9,5.8,5.5c1.9,1.4,4.3,2.1,6.2,3.4
	c2,1.3,3.7,3.5,3.3,5.9c-0.6,3.3-5.1,5.5-4.3,8.8c0.6,2.7,4.6,3.8,6.5,1.7c0.8-0.9,1.1-2,1.7-3.1c1.3-2.3,3.6-3.7,5.5-5.5
	c3.3-3.3,4.9-7.8,6.8-12.1c3.3-7.5,7.7-14.6,12.9-21c2.4-2.9,5.6-6,9.4-5.4c2.9,0.4,7.7,2.3,6.9,5.1c-0.7,2.3-1.5,4-1.4,6.4
	c0.1,3.7-2.6,6.7-5.2,9.3c-7.1,7-12.7,16.7-21.9,20.4c-5.4,2.2-12.6,9-8.6,12.4c1.2,1.1,8-3.8,11.2-1.3c0.4,0.3,1.1,1.4,1,2
	c-0.9,5.6-11,2-16,4s-2,6-2,10c0,1-2,3-2,4s1,1,2,1c5,0,5.9-5.5,10-6c1-0.1,3.2-0.6,4,0c4.6,3.9-4.6,13.1,0,17c0.3,0.2,1,0,1.3-0.6
	c1-1.7,0.3-6,2.2-6.1c4.3-0.2,6,6.4,10.3,6.4c4.2,0,15.3-6,13.5-1.2c-0.5,1.5-2.7,2.5-2.3,3.5c0.5,1.3,3,1.2,4,1c2.2-0.5,4-3.2,6-3
	c5.1,0.5,9,3.9,14,5c4,0.9,1,7,3,10s9,1.6,10,6c1.4,6.3-10.2,6.7-15,11c-1.1,0.9-2,3-2,5c0,3,3.6,8.6,0,9c-5.6,0.6-12.3-7.5-15-1
	c-0.2,0.6,0.2,1.7,0.4,2.7"/>
<path fill="none" stroke="#E1E1E1" stroke-miterlimit="10" d="M-7.1,254.4c1.1-2.2,1.7-4.5,2.4-6.9c1.1-3.8-2.1-7.3-3.5-11
	c-0.2-0.5-0.4-1.1-0.2-1.6c0.4-1.3,2.2-1.6,2.9-2.8c0.3-0.5,0.3-1,0.7-1.4c0.4-0.4,1-0.6,1.6-0.6c2.9-0.4,7.1,1.3,8.7-1.2
	c2.1-3.3-6.2-5.4-9.4-3.2c-0.9,0.6-1.7,1.5-2.6,2.2c-0.9,0.7-1.9,1.2-2.9,1.8"/>
<path fill="none" stroke="#E1E1E1" stroke-miterlimit="10" d="M22.5,384.3c0.5-0.4,1.1-0.8,1.2-1.3c0.6-2.4,0.1-4,0.5-6.4
	c0.2-1.1-2.1-0.7-3-0.1c-0.9,0.6-1.6,1.6-2.6,2.2s-2.5,0.6-3-0.5c-0.3-0.5-0.1-1.2,0-1.8c0.5-2.4,3.1-5.2,1.6-7.2
	c-1.2-1.6-2.9,2.3-4.4,1.1c-1.9-1.4,1.8-4.1,0.9-6.3c-0.8-2.2-2.3-4-2-6.4c0.2-2.4,0.6-5-0.9-6.8c-1.7-2.1-5-2-7.2-3.7
	c-2-1.5-2.8-4.3-5-5.5c-0.4-0.2-0.8-0.4-1.1-0.7c-0.9-1-0.1-3-1.3-3.6c-1-0.4-1.8,0.8-2.6,1.3c-0.6,0.4-1.4,0.5-2.1,0.4"/>
<path fill="none" stroke="#E1E1E1" stroke-miterlimit="10" d="M80,239.8c0.3-0.6,1.4-0.3,1.7,0.3c0.1,0.1,0,0.3,0.1,0.4
	c0.2,0.4-0.3,0.8-0.8,0.8c-0.3,0-1.3,0.2-1.3-0.2C79.7,240.8,79.8,240.1,80,239.8z"/>
<path fill="none" stroke="#E1E1E1" stroke-miterlimit="10" d="M63.1,254.6c0,0.9,0.8,1.7,1.7,1.4c0.8-0.2,1.2-1.3,0.8-2.1
	C65,253.2,63.1,253.9,63.1,254.6z"/>
<path fill="none" stroke="#E1E1E1" stroke-miterlimit="10" d="M71.1,138c0.5,0,1.1,0.4,1.5,0.1c0.4-0.3,0.4-1,0.2-1.4
	c-0.2-0.5-0.9-0.6-1.5-0.6c-0.5,0-1.1,0.3-1.2,0.8c-0.1,0.5,0.4,1,0.9,1.2c0.3,0.2,0.7,0.3,1,0.2"/>
<path fill="none" stroke="#E1E1E1" stroke-miterlimit="10" d="M56.6,124.2c0.1,0.5,0.2,1.1,0.5,1.6c0.6,1.4,2.1,2.2,3.5,2.9
	c0.2,0.1,0.4,0.2,0.6,0.2c0.4,0,0.8-0.2,1.2-0.4c1.3-0.7,3.1-0.2,4.2-1.2c1.2-1.1,0.5-3.4-0.5-4.7c-0.7-0.9-1.8-1.3-2.7-2
	c-1-0.9-1.5-2.1-2.5-2.9c-1.3-0.9-3.3-0.7-4.3,0.6c-0.6,0.8-1.6,1.3-1.8,2.3C54.4,121.9,56.3,122.8,56.6,124.2z"/>
<path fill="none" stroke="#E1E1E1" stroke-miterlimit="10" d="M0.3,125.6c-0.1,0.5,0,1,0.3,1.4c0.9,1.6,2.9,2.2,4.7,2.6
	c7,1.6,11.3,2.4,18.5,2.1c0.8,0,5.2-0.6,5.5-1.3c0.8-2.1,1.6-4.2,2.7-6.4c1.3-2.6-5.5-1.6-8.4-1.4c-0.7,0-1.8-0.4-1.3-1
	c0.3-0.3,0.8-0.2,1.1-0.5c0.4-0.4-0.2-1-0.7-1.3c-2-1.1-3.9-2.2-5.9-3.3c-0.9-0.5-1.9-1-2.9-1.1c-2.3-0.2-4.3,1.6-5.8,3.3
	c-1.5,1.8-3,3.8-5.1,4.7C2,124,0.5,124.4,0.3,125.6z"/>
<path fill="none" stroke="#E1E1E1" stroke-miterlimit="10" d="M19.2,110.5c0.8-0.2,1.7-0.6,2.3-1.1c0.5-0.4,0.9-1,1.3-1.6
	c1.2-1.6,3.9-3.2,3.3-5.1c-1.1-3.3-7-0.8-10.2-2.1c-1.4-0.6-2.6-1.5-4-2c-1.7-0.6-3.5-0.6-5.2-0.6c-0.4,0-0.8,0-1.2,0.2
	c-0.9,0.4-1.1,1.8-0.7,2.7c0.5,0.9,1.3,1.6,2.1,2.3c1.9,1.7,3.4,4,4.3,6.4c0.1,0.3,0.2,0.6,0.4,0.8c0.3,0.3,0.7,0.4,1.1,0.5
	C14.9,111.2,17.1,111.1,19.2,110.5z"/>
<path fill="none" stroke="#E1E1E1" stroke-miterlimit="10" d="M145.5,151.4c-1.4,0.2-3.1,0.9-3.1,2.3c0,0.8,0.7,1.4,1.3,1.9
	c1.5,1.3,3.4,2.7,3.4,4.8c0,0.9-0.3,1.9,0.2,2.6c0.3,0.4,0.8,0.6,1.2,0.9c1.1,0.9,1,2.9-0.1,3.7c-0.5,0.3-1.1,0.5-1.6,0.8
	c-0.8,0.5-1.2,1.4-1.7,2.2c-0.9,1.8-3.1,3.4-2.8,5.4c0.2,1.7,3.6,0.8,4.5,2.2c0.5,0.7-0.7,1.9-0.2,2.5c0.9,1.1,2.9,0.9,4.3,0.3
	c1.4-0.5,2.5-2,2.1-3.5c-0.2-0.7-0.8-1.4-0.7-2.1c0.1-0.7,0.6-1.2,1.1-1.7c0.9-1.3,1-3,1-4.5c0-0.9,0-1.8-0.4-2.5s-1.3-0.7-2.1-1
	c-1.8-0.8-0.2-4,0.6-5.8s1.9-3.6,2-5.6c0-0.9-0.1-1.8-0.8-2.3c-0.4-0.3-1-0.4-1.5-0.5C149.9,151.2,147.7,151.1,145.5,151.4z"/>
<path fill="none" stroke="#E1E1E1" stroke-miterlimit="10" d="M196,85.8c0.7,1,1.5,1.8,1.7,3c0.1,0.5,0.1,1,0.3,1.5
	c0.3,0.5,0.8,0.8,1.3,1c1.5,0.5,3.2,0.2,4.5-0.7c1.2-1,2-2.6,1.8-4.1c-0.1-0.7-0.3-1.3-0.3-2c-0.1-1.3,0.4-2.5,0.5-3.8
	s-0.3-2.8-1.5-3.3c-0.4-0.2-0.8-0.2-1.2-0.5c-1-0.6-0.8-2.3-1.6-3.1c-0.6-0.7-1.8-0.7-2.6-0.3s-1.5,1.2-2,1.9
	c-0.5,0.8-1,1.7-1.4,2.6c-0.2,0.4-0.3,0.9-0.6,1.2c-1.1,1.6-3.7,2.2-3.9,4.2c0,0.4,0.1,0.8,0.3,1c0.3,0.3,0.8,0.3,1.2,0.4
	c0.8,0,1.7,0.1,2.5,0.1c0.2,0,0.5,0,0.7,0.2c0.2,0.1,0.3,0.4,0.4,0.6C196.4,86.4,195.5,85.1,196,85.8z"/>
<path fill="none" stroke="#E1E1E1" stroke-miterlimit="10" d="M-6.5,77.5c0.6,2.5,2.2,4.6,4.4,5.8c2.1,1.1,4.6,1.4,7,1.7
	c19.1,2.5,37.6,11.9,56.6,9.4c5.7-0.8,11.3-2.6,17-3.3c2.8-0.4,4.8,1.3,7,3.1c4.9,4,42.2-16.6,64.4-20.9c2.4-0.5,5.2-0.7,7.2,0.8
	c2.1,1.6,2.4,4.5,3.5,6.9c1,2.4,4,4.6,6.1,3c0.7-0.5,1-1.3,1.6-1.9c1.6-1.9,4.3-2.2,6.8-2.8c13.1-2.9,21.7-14.8,31.8-23.6
	c8.6-7.5,22.3-7.5,29.8-16c2.3-2.6,3.2-7.4,1.5-10.4c-0.5-0.8-2.2-0.2-2.7-1c-1.3-2.3,3.7-5.6,5.8-4.1c2.6,1.8,0.1,7.4,2.8,9
	c1.9,1.1,3.8-3.5,6-3c2.7,0.7-3,4.2-3.6,7c-0.7,3.4,2.7,4.3,3.9,7.6c3.8,10.4,20.2-2.1,29.7-7.9c8.8-5.3,17.7-10.7,25.2-17.9
	c1.9-1.8,3.7-3.7,6-4.8c1.5-0.7,3.5-1.5,3.6-3.2c0-0.5-0.1-1-0.1-1.6c0.2-2.2,3.3-2.3,5.4-2.7c1.6-0.3,3-1.1,4.4-1.9
	c3.9-2.3,7.8-4.5,11.6-6.8c0.9-0.5,1.8-1.1,2.8-1.6"/>
<path fill="none" stroke="#E1E1E1" stroke-miterlimit="10" d="M375.1,7c-17.6,7.2-33.9,17.9-47.5,31.2c-4.3,4.1-8.5,8.7-14.1,10.6
	c-4.4,1.5-9.6,1.3-13.2,4.4c-0.9,0.7-1.6,1.7-1.8,2.8c-0.2,1.1,0.1,2.2,0.6,3.3c0.6,1.4,1.3,2.8,2.1,4.1c0.7,1.1,1.7,2.2,3,2.2
	c0.7,0,1.3-0.3,1.9-0.7c6.7-4.3,9.5-17.7,17.1-15.3c5.3,1.7,8.7,3.3,15.1,3.4c2.2,0-3.2,3-5.2,4c-0.6,0.3,0,1.2,0.6,1.4
	c0.6,0.2,1.4,0.2,1.7,0.7c0.4,0.6-0.1,1.3-0.5,1.9c-2.3,2.9-4.9,5.6-6.4,8.9c-3.7,8.1-0.4,17.7-2.6,26.4c-0.5,1.9-2.2,4.9-1.8,6.8
	s3.6,0.7,5.4,1.7c2.6,1.4,0.1,5.9,0.1,8.9c0,1.3,0,2.6-0.3,3.8c-0.4,1.4-1.1,2.6-1.9,3.7c-3.1,4.8-6.2,9.6-9.4,14.4
	c-0.4,0.6-0.9,1.3-0.9,2.1c0,0.9,0.5,1.8,0.3,2.7c-0.2,0.7-0.9,1.3-1.3,1.9c-1.1,1.6-0.5,3.8,0.8,5.1s3.3,1.8,5.2,1.9
	c1.7,0.1,3.2,0.9,4.6,1.8c5.7,3.4,11.5,7,15.8,12c2.4,2.8,4.3,6.1,7.2,8.4c2.2,1.7,4.8,2.8,7.4,3.7c3.4,1.2,7.1,2.2,9.6,4.8
	c1.5,1.5,2.5,3.5,4.1,5.1c1.5,1.5,4,2.6,5.9,1.5"/>
<path fill="none" stroke="#E1E1E1" stroke-miterlimit="10" d="M375,39.4c-1.5-0.9-3.3,0.7-4.3,2.2c-2,3.2-3.9,6.5-5.4,9.9
	c-0.4,0.9-0.8,1.8-1.5,2.4c-0.7,0.6-1.7,0.9-2.6,1.3c-7.2,3.1-10.1,11.6-11.3,19.3c-0.1,0.8-0.2,1.5,0,2.3c0.3,0.9,1,1.5,1.7,2.2
	c2.5,2.5,5.6,6.3,4.1,9.5c-2.1,4.4-6.8,5.2-10.7,8.1c-1.4,1.1-3,2.7-3.8,4.3c-0.8,1.6-1.2,3.5-0.3,5c0.8,1.2,1.2,2.1,2.4,3.5
	c1.1,1.2,3.4,1.8,2.4,3.1c-0.9,1.3-2.4,2.1-3.7,2.9c-4.8,3.1-8.7,7.5-12.5,11.9c-1.6,1.8-3.1,3.6-4.2,5.7c-1.3,2.5-3.7,6.3-1.6,8.3
	c4.4,4.3,11.9,3.2,16.8,7c4.9,3.8,8.9,8.5,12.5,13.5c2.2,3,4.4,6.1,7,8.7c3.2,3.2,9,7.8,13.3,9.4c1.1,0.4,1.3,0.3,2.3,0
	c1.1-0.3,1.1-3.2,0.7-4.2"/>
<path fill="none" stroke="#E1E1E1" stroke-miterlimit="10" d="M319.5,80.5c0.1,0.1,0.2,0,0.2,0c0.8,0,1.7-0.3,2.2-0.9
	s0.8-1.4,1.3-2.1c0.3-0.5,0.8-0.8,0.9-1.3c0.6-2.1,2.2-5.1,1.8-7.2c-0.4-1.8-2.8,0.7-3.9,2.2s-2.2,3.2-2.7,5
	C319,77.4,318.6,79.6,319.5,80.5z"/>
<path fill="none" stroke="#E1E1E1" stroke-miterlimit="10" d="M376.3,88.7c-3.6,2-6.7,5-8.8,8.5c-1.8,2.9-0.1,6.5-1.2,9.7
	c-1.5,4.6-9.2,3.9-11.5,8.2c-0.7,1.3-1.1,2.8-1.9,4c-2.3,3.5-7.1,4.6-9.3,8.1c-0.8,1.3-1.3,3-2.6,3.8c-0.6,0.4-1.4,0.6-2,1
	c-1.7,1.2-1.6,3.7-0.6,5.5s2.6,3.1,3.7,4.8c0.6,0.9,1.1,1.9,1.9,2.7c3.1,3.2,9.7,2.2,11.4,6.3c0.4,0.9,0.4,1.8,0.6,2.7
	c0.8,4.3,4.1,7.5,7.1,10.6c1.1,1.1,2.3,2.3,3,3.7c0.5,0.9,0.8,1.9,1.2,2.8c1.5,3.3,4.2,6.1,7.6,7.6"/>
<path fill="none" stroke="#E1E1E1" stroke-miterlimit="10" d="M272.5,164.1c1.3,0.8,3.1,0.8,4.4,0s3.1-2.8,2.1-3.9
	c-1.6-1.7-4.7,0.6-6.4,2.2c-0.3,0.3-0.7,0.8-0.5,1.2C272.1,163.9,272.3,164,272.5,164.1z"/>
<path fill="none" stroke="#E1E1E1" stroke-miterlimit="10" d="M284.8,359.3c-0.1-1-1.5-1.4-2.5-1c-1.8,0.7-3.5,4.4-1.6,4.9
	c1.4,0.4,2.6-1.5,3.5-2.6C284.5,360.3,284.8,359.9,284.8,359.3z"/>
<path fill="none" stroke="#E1E1E1" stroke-miterlimit="10" d="M212.8,382.3c0.1,0,0.2,0,0.2,0c3.3-1.1,4.4-5.3,5.3-8.7
	c1-3.4,1.5-6.9,3.1-10.1c0.6-1.2,1.3-2.4,1.3-3.7c0-0.8-0.4-1.5-0.7-2.3c-1-2.2-2-4.5-3-6.7c-0.7-1.7-1.5-3.4-2.8-4.7
	c-1.7-1.7-4.3-2.6-5.3-4.8c-0.8-1.9-0.2-4.1,0.1-6.2c0.7-4.1-0.9-9.3-4.9-10.4c-1.6-0.4-3.4-0.1-5.1-0.1c-2.9,0-5.7-0.7-8.5-1.5
	c-1.6-0.4-3.2-0.9-4.4-2.1c-1.2-1.1-1.7-3.2-0.6-4.4c0.4-0.5,0.9-0.8,1.3-1.2c0.7-0.8,0.8-1.8,1.1-2.8s2-1,2-2
	c0.2-3-6.3,1.6-8.9,0.1c-1-0.6,1.2-1.9,2.4-1.8c1.2,0.1,2.7,0.2,3.2-0.8c0.2-0.5,0.2-1,0.3-1.5c0.6-1.8,3.6-1.5,4.6-3.1
	c0.4-0.6,0.4-1.5,0.9-2.1c0.4-0.5,1-0.6,1.6-0.8c4.5-1.1,9.4-1.8,12.6-5.1c0.7-0.7,1.3-1.6,2.2-1.9c0.5-0.2,1-0.2,1.5-0.4
	c1.3-0.5,2-2.1,1.9-3.5c-0.1-1.4-2.1-2.8-1.4-4c0.8-1.4,3.1-0.7,4.6-0.9c1.6-0.2,3.3-0.1,4.4,1.1c1.4,1.6-0.7,4.1,0.1,6.2
	c0.3,0.7,1.6-0.2,2.2,0.3c1.1,0.9-2,2.5-1.8,3.9c0.1,1.1,2.8,0.4,2.9,1.4c0.4,3.5-4.9,5.3-6.2,8.6c-0.3,0.8-0.6,1.6-0.6,2.4
	c-0.1,1.6,0.6,3.1,1,4.7c0.4,1.5-1.5,3.1-0.7,4.5c2.3,4.1,9.9,2.2,10.6,6.9c0.2,1.1,0.1,2.2,0.5,3.2c1.2,2.6,4.7,2.7,7.1,4.3
	c2.2,1.6,3.2,4.5,5.6,5.8c1.1,0.6,2.4,0.9,3.1,1.9c0.6,0.9,0.6,2.1,1.3,3c0.4,0.6,1.1,1,1.5,1.5c1,1.2,0.6,3,0.3,4.5
	c-1,4.1-2,8.1-3,12.2c-0.3,1.2-0.6,2.4-1,3.6c-0.5,1.4-1.2,2.8-1.8,4.2c-1.1,2.4-1.9,5-1.9,7.6s0.8,5.4,2.8,7.2
	c0.3,0.3,0.6,0.5,0.6,0.9c0,0.4-0.5,0.7-0.7,0.4"/>
<path fill="none" stroke="#E1E1E1" stroke-miterlimit="10" d="M202.7,230.1c0.8-0.3,1.5-0.6,2.2-1c0.2-0.1,0.5-0.3,0.6-0.5
	c0.2-0.3,0.2-0.7,0.3-1.1c0.1-0.9,0.7-2,0.2-2.7c-0.8-1-2.7-0.4-3.5,0.5c-0.3,0.3-0.5,0.8-0.8,1.2c-0.7,1-2.3,1.7-1.9,2.9
	C200,230.5,201.6,230.5,202.7,230.1z"/>
<path fill="none" stroke="#E1E1E1" stroke-miterlimit="10" d="M293.1,382.9c4.6-7,9.1-14,13.7-21c0.7-1.1,1.5-2.2,1.8-3.5
	c0.4-1.5,0.2-3.1,0-4.6c-0.5-4.4-1.1-8.9-3-12.9c-1.9-4-5.4-7.5-9.7-8.3c-0.8-0.1-1.7-0.2-2.3-0.8c-1.1-1.2-1.6-2.4-2.5-3.7
	c-2.2-3,2.5-7.3,0.8-10.6c-0.7-1.3-1.6-2.6-1.3-4.1c0.1-0.7,0.5-1.3,0.6-1.9c0-0.8-0.5-1.6-1-2.2c-1.2-1.6-2.4-3.3-3.6-4.9
	c-1.5-2-4-4.2-6.1-2.8c-1.5,1-1.3,3.2-1.9,4.9c-0.4,1.2-1.2,2.1-2,3.1c-2.4,3-5.3,6.2-9.1,6.5c-1.7,0.2-3.4-0.3-5.1-0.1
	c-2,0.2-4.1,1.4-6,0.6c-2.8-1.1-2.6-5.2-1.2-7.8c1.3-2.7,3.4-5.3,2.9-8.3c-0.3-1.4-1.1-2.6-2.3-3.3c-1.7-1-3.9-1-5.4-2.2
	c-2.2-1.8-1.7-5.5,0-7.8c1.7-2.3,4.2-3.9,6-6.1c1.8-2.2,2.7-5.6,0.9-7.8c-1.6-1.9-4.5-2-6.8-3c-4.3-1.8-7.9-8.9-4.2-11.7
	c1.3-1,4.2,0.5,4.8-1.1c0.7-1.8-2-4-0.4-5c1.5-0.9,3.2,0.7,4.8,1.5c4.2,2,9.4,2.7,13.5,0.7c2.1-1,3-3.5,5.3-3.2
	c2.3,0.3,4.6,1.5,6.9,1.1c1.6-0.2,3-1.1,4.4-1.9c2.2-1.4,4.4-2.7,6.6-4.1c3.1-1.9,6.6-4.5,6.7-8.2c0.1-1.7-0.7-3.4-1.5-5
	c-2.6-5.2-7.2-9.2-9.3-14.6c-0.6-1.6,0.9-4.3,1.6-5.8c1.6-3.6,2.6-7.5,2.8-11.5c0.1-2,0.4-4.6,2.4-5c0.9-0.2,1.9,0.2,2.9,0.3
	c1,0.1,2.2-0.2,2.4-1.1c0.4-1.6-2.3-2.1-3-3.6c-0.6-1.4,0.8-3.1,0.2-4.5c-0.8-2-4.1-1.2-5.4-2.9c-0.3-0.4-0.5-1-0.8-1.5
	c-0.9-1.5-2.9-1.9-4.6-2.5s-4.6-2.6-3.2-3.7c1.6-1.2,4.1,0.3,6.1,0.5c0.4,0,0.8,0.1,1.2-0.1c1-0.3,1.4-1.6,1.3-2.7
	c-0.1-1.1-0.4-2.2,0-3.2c0.3-0.8,0.8-1.4,1.3-2c2.1-2.7,0.4-7.1,2.7-9.7c0.7-0.8,2.1,0.4,2.9,1.2c2.1,2,3.4,4.7,4.8,7.3
	c1.4,2.6,2.9,5.2,5.4,6.8c2.4,1.7,5.8-1.3,8.2,0.3c1.7,1.1-0.9,4.6,0.9,5.6c0.5,0.3,1.1,0.4,1.7,0.6c1,0.5,1.7,1.5,2.5,2.2
	c0.9,0.8,1.9,1.4,3,2c1.3,0.7,2.6,1.4,3.9,2.1c4.1,2.2,8.3,4.5,12.8,5.9c2.7,0.9,5.6,1.4,8.2,2.5c3.2,1.4,6,3.6,8.9,5.4
	s7.6,0.3,9.8,2.9c1.7,1.9,0,5.2,1.7,7.1c1.7,1.9,4.4,2.9,6.9,2.5"/>
<path fill="none" stroke="#E1E1E1" stroke-miterlimit="10" d="M302.6,382.6c4.5-3.1,6.3-8.7,9.2-13.3c1.1-1.7,2.4-3.3,3.4-5
	c3.9-6.6,3.7-15.4-0.5-21.8c-1-1.5-2.2-2.9-3-4.6c-1.7-3.6-1.1-7.9-2.6-11.6c-0.5-1.3-1.3-2.6-1.4-4c-0.2-2.3,1.5-4.5,1.2-6.9
	c-0.2-1.2-0.9-2.3-1.1-3.5c-1-4.4,3.4-8.1,4.1-12.5c0.3-1.5,0.9-2.7,2-3.8c1.6-1.6-1.9-3.8-2.4-6c-0.6-2.5-1.2-4.8-1.2-7.4
	c0.1-2.9,3.1-4.7,5.7-6.1c3.2-1.7,6.3-3.7,8.4-6.6c2.1-2.9,2.9-7,1.3-10.2c-0.3-0.5-0.6-1.1-0.5-1.7c0.1-0.7,0.8-1.2,1.5-1.5
	c3.4-1.8,7.8-3.5,8-7.3c0.1-1.5-0.5-2.9-0.9-4.3c-0.9-3.8,3.6-7.3,2.7-11.1c-0.9-3.7-9.5,1.2-11-2.3c-0.9-1.9,0.2-4.8-1.7-5.7
	c-0.6-0.3-1.3-0.4-1.6-0.9c-0.4-0.5-0.3-1.2-0.2-1.9c0.2-2.9-0.9-6-3-8c-1.1-1.1-2.5-2-2.7-3.5c-0.2-1-0.6-1.5-1.3-2.3
	c-0.5-0.6,0.6-1.5,0.6-2.2c0-1.8-1-3.4-1.6-5s-0.9-4.6,0.8-4.9c3.8-0.7,6.5,4.2,9,7.2c0.6,0.7,1.2,1.5,1.6,2.3c0.4,0.9,0.6,2,0.9,3
	c1.2,4.1,4.8,7.5,9,8.3c1.9,0.4,3.9,0.2,5.6-0.7c1.7-1,1.2-3.5,2.6-4.8c2.9-2.5,7.4-1.3,11.1-1.8c3.6-0.5,7.8,0.5,10,3.4
	c1.8,2.3,4.6,3.4,7.4,4.2c2,0.5,4,1,5.9,1.5"/>
<path fill="none" stroke="#E1E1E1" stroke-miterlimit="10" d="M375.3,223.2c-6-1.1-15.6-5.7-18.3-0.2c-1,1.9-1.5,3.8-1.7,6
	c-0.3,2.6,2.9,4.5,3.2,7.1c0.2,1.9-1.2,3.5-1.9,5.2c-0.8,1.7,1.1,2.9,1.2,4.8c0.3,4.5-9.1,4.6-8.6,9.1c0.2,1.8,1.2,3.3,1.7,5
	c0.5,1.7-1.8,3-1.3,4.7c0.4,1.5,2.8,1.3,3.1,2.7c0.4,1.5,0,3-0.3,4.5c-1,4.2-2,8.4-3,12.5c-0.5,2-1,4.1-1.5,6.1
	c-0.4,1.6-0.8,3.2-1.2,4.8c-1.2,4.6-2.8,9.3-5.8,13c-3,3.7-7.6,6.5-12.4,6c-1.4-0.1-3.3-0.1-3.5,1.2c-0.1,0.6,0.2,1.2,0.5,1.8
	c1.2,2.7,0.5,5.9-0.7,8.6c-1.2,2.7-2.8,5.3-3.7,8.1c-2,6.8,0.8,14,0.8,21.1c0,7-2.8,13.9-7.7,18.9c-3,3.1-7.2,6.2-6.8,10.5"/>
<path fill="none" stroke="#E1E1E1" stroke-miterlimit="10" d="M374.6,253.6c-3.1-0.2-6.3,1.4-8,4.1c-1.8,2.8-1.9,6.3-1.9,9.7
	c0,1.7,0,3.4,0.8,4.9c0.3,0.6,0.8,1.2,1,1.8c0.9,2.8-2.9,5-3.3,7.9c-0.1,0.7,0,1.4-0.3,2c-0.5,1.3-2.2,1.7-2.8,2.9
	c-0.3,0.6-0.3,1.3-0.4,2c-0.2,2.9-2.1,5.5-4.6,6.8c-0.9,0.4-1.8,0.7-2.6,1.2c-2.5,1.3-4,3.8-5.4,6.2c-0.6,0.9-1.4,1.8-1.7,2.8
	c-2.3,8.5-7.6,13.7-11.9,20.1c-0.7,1-0.2,2.1-0.1,3.3c0.2,3.9-6.3,5.3-6.6,9.2c-0.1,1.4,0.2,2.7,0.2,4.1c0,2.7-1,5.4-1.2,8.1
	c-0.2,3.2,0.7,6.3,0.4,9.5c-0.5,4.7-3.6,8.7-6.6,12.3c-2.8,3.4-5.5,6.8-8.3,10.2"/>
<path fill="none" stroke="#E1E1E1" stroke-miterlimit="10" d="M373.6,286.5c-0.2-0.8-1.5-0.6-2,0c-2.4,2.3-2.1,6.1-2.2,9.4
	c-0.1,3.3-1.7,7.3-4.9,7.6c-0.6,0-1.3-0.1-1.8,0.2c-1.1,0.5-1.3,2-2.2,2.8c-0.8,0.6-1.9,0.6-2.8,0.9c-2.4,0.9-2.9,4.1-2.8,6.6
	s0.5,5.5-1.4,7.4c-0.9,0.9-2.1,1.3-3.2,1.9s-1,2.1-1.9,3c-1.2,1-3.1-0.2-4.5,0.5c-0.5,0.2-1,0.6-1,1.1c0,0.5,0.3,0.9,0.6,1.2
	c3.3,3.8,5.9,8.2,7.7,12.9c0.6,1.5,1.1,3.1,0.9,4.7c-0.2,1.6-1.2,3.2-2.8,3.6c-0.9,0.2-1.8,0-2.8,0c-2,0.1-3.8,1.4-4.5,3.3
	c-0.3,0.9-0.4,1.8-0.6,2.7c-1,4.7-5.2,7.9-9.2,10.4c-4,2.6-8.4,5.2-10.4,9.5c-1,2.3-1.3,4.9-2.1,7.3"/>
<path fill="none" stroke="#E1E1E1" stroke-miterlimit="10" d="M276-3c-1.2,0.9-2.2,1.8-2.2,3.1c0,1.9,3.6,1.3,5.3,0.4
	c1.4-0.7,2.5-1.9,3.5-3.1"/>
<path fill="none" stroke="#E1E1E1" stroke-miterlimit="10" d="M242.7-2.1c2.9,0.5,5.1,1,3.5,2.8c-2.8,3.1-1.5,7.9-0.2,8.7
	c1.7,1.1-18.7,6.7-25.2,13.9c-1.8,1.9-3.2,4.1-4.9,6.1c-1.8,2.1-3.8,4-5.7,6c-5.2,5.1-10.5,10.2-15.7,15.3
	c-4.9,4.8-10.6,15.1-16.7,11.9c-2.3-1.2-2.3-5.6-5-5.8c-9.5-0.7-18.2,5.7-27.3,8.5C111.2,75.9,75.7,86.6,40.1,82.7
	C30.3,81.7,19.7,79,13.9,71c-1.3-1.8-2.4-3.9-4.4-4.9c-1.5-0.8-3.4-0.7-5.1-0.7c-5.5,0.2-10.9,0.4-16.4,0.6"/>
<path fill="none" stroke="#E1E1E1" stroke-miterlimit="10" d="M-9,54.7c12,0.6,24,1.6,35.9,3c5.6,0.7,11.4,1.5,16.2,4.6
	c3,1.9,6.6,1.2,9.6,3.1c2.9,1.9,4.7,4.5,8.1,4.3c42.8-2.9,86.8-10,123.1-32.8c2.1-1.3,4.3-2.7,6.7-2.9c1.5-0.1,3.1,0.2,4.2-0.8
	c1-0.9,1-2.4,1.5-3.6c1.2-3,5.1-3.7,8.3-4.4s7-2.6,6.7-5.9c-0.2-2.2-2.3-3.7-3.6-5.5c-2.5-3.3,1.5-7.3,0.7-11.4
	c-0.6-3-3.8-3.7-7.3-4.3"/>
<path fill="none" stroke="#E1E1E1" stroke-miterlimit="10" d="M139,28c0.5-0.9,0.5-2.2,0-3c-1-1.5-4.6-1.7-4.1-3.4
	c0.3-1.3,1-2.4,0-3.2c-1-0.8-2.5-0.8-3.7-0.6c-1.6,0.2-3.1,0.4-4.6,0.8c-1.2,0.3-3.5,1.4-2.5,2.2c1.9,1.6,7.6,0.8,6.5,3
	c-1.8,3.3-20.8,0.5-24.3,3.1c-0.7,0.5,1.6,1.4,1.3,2.3c-0.7,1.9-3.9,1.5-5.1,3.2c-0.4,0.6-0.8,1.5-0.5,2.2c0.2,0.5,0.6,0.8,1,1.1
	c2.8,2,6.5,2.2,9.9,2.2c3.2,0,6.4-0.1,9.3-1.4c3.7-1.7,6.4-5.2,10.3-6.4C134.6,29.3,137.9,30.1,139,28z"/>
<path fill="none" stroke="#E1E1E1" stroke-miterlimit="10" d="M48.5-1.9c0.6,0,1.3,0,1.9,0c0.5,0,1.1,0,1.5,0.4
	c0.6,0.4,0.7,1.2,0.8,1.9c0.9,4.6,5,7.7,8.3,11c3.3,3.3,3.8,7.1,3.8,11.4c0,2.7,20.7-4.8,23.2-2.2c1.9,2.1-4,5.6-2,7.7
	c1.8,2,5.8-0.9,7.5,1.2c2.8,3.4-1.6,8.8,0.2,12.7c0.6,1.3,1.7,2.2,2.9,2.9c3.4,2.1,7.5,3.1,11.4,2.8c2.8-0.2,7.5-2.1,8.1,0.6
	c0.2,0.8-12.9,4.8-19.8,4.9C89.1,53.8,82.3,52.2,76,50c-1.4-0.5-3-0.8-4.2-1.6c-0.9-0.5-1.6-1.2-2.5-1.8c-2.8-1.7-6.3-1.3-9.5-1.1
	c-6.6,0.5-13.3,0.5-19.9-0.1c-3.3-0.3-6.6-0.7-10-1.1c-15.3-1.6-30.8-1.1-46.1-0.6"/>
<path fill="none" stroke="#E1E1E1" stroke-miterlimit="10" d="M-9,30.9c4.4-0.5,9.1-1.9,11.9-5.4c1.2-1.6,2.6-5.4,4.2-4.2
	c0.8,0.7,1,1.9,2.1,2.2c1,0.3,2.1,0,3.2-0.2c0.6-0.1,1.7,0.2,1.8-0.4c0.3-1.9-3.5-2.1-4.3-3.9c-0.8-1.8,0.8-3.1,2-4.7
	c0.8-1.1-0.5-2.7-1-4c-0.1-0.4-0.3-0.7-0.6-0.9C9.8,9,9.1,9.2,8.5,9.2c-2.4,0-3.8-2.9-6.1-3.5C-0.5,5-3.3,8.1-6.2,7.6
	C-7,7.5-7.8,7.1-8.6,6.8C-9.7,6.3-10.8,6-12,5.9"/>
<path fill="none" stroke="#E1E1E1" stroke-miterlimit="10" d="M266,233.9c0.1-0.3,0.5-0.4,0.9-0.5c1.2-0.2,2.7-0.9,3.7-0.2
	c0.6,0.5,0.4,1.5,0.6,2.2c0.2,0.8,0.4,1.5,1,2.1c0.5,0.5,1.3,0.7,1.9,1c1.9,0.8,4.9,2.7,4,4.6c-1.4,3.1-6.7,0.3-9.9-1
	c-0.9-0.4-2-0.9-2.2-1.9c-0.1-0.4,0-0.8,0.1-1.2c0.3-1.5,0.3-3-0.1-4.5C266,234.3,266,234.1,266,233.9z"/>
<path fill="none" stroke="#4E9BD7" stroke-miterlimit="10" d="M17.9,383.8c0.7-0.8,1.4-1.8,1.7-2.8c0.5-1.7,1.8-2.8,3-4.1
	c2-2.3,5.9-6,7.8-8.3c2-2.4-1.9-3.8-1-6.7c0.5-1.8,4.6,0.7,5.4-0.9c0.4-0.8-1.5-1.6-1.1-2.3c0.7-1.3,2.5-1.5,2.6-3
	c0-0.6,0-1.3,0.4-1.6c0.3-0.3,0.8-0.2,1.2-0.2c1.5,0.1,3-0.1,4.2-0.8c1.2-0.8,0.8-2.7,1.9-3.7c1.1-1,4.5,0.2,4.1-1.3
	c-0.5-1.7-2.7-2.6-1.9-4.2s2.5,0,4.2-0.2c2.3-0.2-2-5.1-0.4-6.7c0.9-0.9,2.6,2.8,3.4,1.8c0.8-1,0.1-2.4,1.3-3
	c1.1-0.5,2.5-0.8,3.2-1.9c0.9-1.4,0.2-3.8,1.7-4.6c0.5-0.3,1.2-0.2,1.8-0.4c1.6-0.6,1.7-3,3-4c1.9-1.4,5.1,0.5,6.8-1.2
	c0.4-0.4,0.6-0.9,1.1-1.2c0.4-0.2,0.9-0.3,1.3-0.3c2.4-0.4,4.2-2.2,5.9-4c3.5-3.8,7.1-7.5,10.6-11.3c1.1-1.2,2.3-2.4,3.3-3.7
	c0.4-0.4,0.7-0.9,1.1-1.3c0.5-0.5,1.2-0.8,1.7-1.3c0.4-0.4,0.7-0.9,1-1.3c1.6-2.5,4.4-4.9,6.5-6.9"/>
<path fill="#EAEAEA" stroke="#D6D6D6" stroke-miterlimit="10" d="M14.5,382.8c-0.2-0.9-1-1.5-1.7-2.2c-0.6-0.7-0.3-1.6-0.2-2.5
	c0.1-0.4-0.8-0.2-1.2-0.5c-1-0.8-0.5-2.5-1.2-3.6c-0.3-0.5-0.6-0.9-0.8-1.5c-0.1-0.4,0-0.8,0-1.2c0.3-1.9,1.3-3.9,0.8-5.7
	c-0.5-1.6,0.2-3.3-0.4-4.8c-0.5-1.3-2.1-1.6-3.1-2.5c-0.8-0.7-1.3-1.8-1.8-2.8s-2.2-0.7-2.7-1.8c-1.4-3.5-3.7-9.5-11-9.9
	c-0.3,0-0.7-0.1-1-0.2c-1.2-0.6-3.3,0.2-3.9,0.2c-1.6-0.2,3.9,41,2.4,42.8"/>
<path fill="#EAEAEA" stroke="#4E9BD7" stroke-miterlimit="10" d="M103.9,292.5c0.1,0.1,0.1,0.1,0.2,0.2c1.1,0.5,2.2-0.5,3-1.4
	c1.2-1.4,2.4-2.8,3.6-4.2c1.5-1.7,3.1-3.6,5.3-4.1c0.6-0.1,1.3-0.4,1.2-1c-0.1-0.4-0.5-0.6-0.8-0.9c-0.4-0.5-0.3-1.3-0.8-1.8
	c-0.4-0.3-0.9-0.3-1.3-0.1s-0.7,0.6-1,1c-0.8,1-1.7,2.1-2.5,3.1c-0.2,0.3-0.5,0.6-0.8,0.7c-0.3,0.1-0.6,0.1-0.8,0.1
	c-1.1,0.1-1.9,1.1-2.5,2.1c-1,1.6-1.9,3.3-2.6,5C103.8,291.7,103.6,292.2,103.9,292.5z"/>
<path fill="#EAEAEA" stroke="#D6D6D6" stroke-miterlimit="10" d="M19.2,255.9c0.5-0.7,0.6-1.7,0.7-2.6c0-0.2,0-0.4-0.1-0.6
	c-0.2-0.3-0.6-0.3-1-0.3c-1.5,0.1-3.6-1-4.6,0.2c-0.8,1,0.2,2.5,0.1,3.7c0,0.3,0,0.5,0.1,0.7c0.2,0.4,0.6,0.6,1,0.9
	c0.4,0.3,0.7,0.6,1.1,0.9c0.4,0.2,1.1,0.3,1.3-0.1c0.3-0.8,0.4-1.7,1-2.3C18.9,256.2,19.1,256.1,19.2,255.9z"/>
<path fill="none" stroke="#4E9BD7" stroke-miterlimit="10" d="M116.2,280.1c0.5-0.5,1.6-0.9,2.3-0.4c0.6,0.4,1.1,1.6,1.7,1.2
	c1-0.6-0.3-2-0.4-3.1c0-0.5,1-0.3,1.3-0.8c0.6-0.9-0.2-2.2-0.3-3.2c0-0.4-0.1-0.8,0.1-1.1c0.2-0.3,0.7-0.4,1.1-0.5
	c1.4-0.3,2.6-1,3.7-1.8c0.3-0.2,0.5-0.4,0.8-0.6c0.9-0.4,1.9-0.2,2.8-0.6c0.5-0.2,0.8-0.6,1.3-0.9c0.8-0.5,1.7-0.7,2.7-0.5
	c1.4,0.3,2.5,1.4,3.9,1.3c0.9,0,1.6-0.5,2.5-0.7c1.1-0.3,2.3,0,3.5,0c1.2,0,2.5-0.3,3.1-1.2c0.3-0.4,0.4-1,0.6-1.4
	c0.7-1.4,2.3-2,3.7-2.8c1.5-0.8,2.7-2,3.8-3.3c0.4-0.5,0.7-1,1.3-1.2c1.2-0.4,2.9,1.4,3.8,0.5c1.1-1,1.3-2.8,2.6-3.6
	c1.3-0.7,2.9-1,4.3-0.6c3.5,0.9,5.9-3.7,7.9-3.9c0.4,0,0.1-0.6,0.1-1c-0.1-1.2-0.1-2.3-0.2-3.5c0-0.7,0-1.6,0.6-1.9"/>
<path fill="#EAEAEA" stroke="#D6D6D6" stroke-miterlimit="10" d="M52.9,208.7c-0.5,0.9-1.5,1.4-2.5,1.6c-0.2,0.1-0.5,0.1-0.7,0.2
	c-0.4,0.1-0.7,0.3-1,0.5c-0.5,0.3-1,0.7-0.9,1.3c0.1,0.6,0.9,0.8,1.5,0.8c0.7,0,4-0.8,4.4-1c1.3-0.6,2.6-1.2,3.1-2.6
	c0.2-0.5,0.2-1.1,0.2-1.6c0-0.3,0-0.7-0.2-1c-0.2-0.7-0.9-1.2-1.6-1.2c-0.7-0.1-1.4,0.3-1.8,0.9C53.2,207.2,53.2,208,52.9,208.7z"/>
<path fill="#EAEAEA" stroke="#D6D6D6" stroke-miterlimit="10" d="M118.6,194.2c-0.2,0.1-0.4,0-0.6,0c-0.6-0.1-1.5,0-1.8,0.5
	c-0.2,0.4-0.2,0.9-0.6,1.3c-0.4,0.3-0.8,0.5-1.2,0.8c-0.4,0.3-0.8,0.6-1.2,0.9c-0.4,0.3-0.7,0.7-0.7,1.2c0,0.4,0.2,0.7,0.5,0.9
	c0.7,0.4,1.5,0,2.2-0.5c0.7-0.5,1.5-1,2.2-0.6c0.2,0.1,0.4,0.4,0.7,0.5c0.7,0.4,1.5-0.1,2.1-0.6c1.1-1,1.9-2.2,2.5-3.5
	c0.2-0.4,0.3-0.9,0.1-1.3c-0.2-0.4-0.6-0.5-1-0.6c-0.9-0.2-1.9,0.1-2.6,0.7C118.9,194,118.8,194.2,118.6,194.2z"/>
<path fill="none" stroke="#4E9BD7" stroke-miterlimit="10" d="M176.5,236.7c0.8-0.5,1.1-1.6,0.7-2.5c-0.5-1-2-1.7-1.7-2.8
	c0.1-0.3,0.3-0.6,0.3-0.9c0-0.4-0.3-0.6-0.4-0.9c-0.6-1.2,0.5-2.7,1.8-3c1.3-0.4,3.2,0.8,4-0.2c0.5-0.6,0-1.7,0.6-2.1
	c0.2-0.2,0.5-0.2,0.7-0.3c1.1-0.5,1.8-1.6,2.1-2.7c0.3-1.1,0.3-2.3,0.3-3.5"/>
<path fill="none" stroke="#4E9BD7" stroke-miterlimit="10" d="M184.8,200.9c1,1.3,2.8,3.5,2.9,4.5"/>
<path fill="none" stroke="#D6D6D6" stroke-miterlimit="10" d="M184.9,200.9"/>
<path fill="none" stroke="#D6D6D6" stroke-miterlimit="10" d="M183.2,145c-0.1,1.9-0.8,3.9-0.3,5.7c0.2,0.7,0.5,1.3,0.7,2
	c1,2.5,2.1,5,2.3,7.7c0,0.5,0.1,1.1,0.2,1.6c0.5,1.3,2,2,2.7,3.3c0.8,1.2,2.1,3.2,2.2,4.2"/>
<path fill="#EAEAEA" stroke="#4E9BD7" stroke-miterlimit="10" d="M177.2,237.5c-0.3-0.5-0.9-0.7-1.4-0.8c-1.1-0.3-2.5-0.6-3.3,0.3
	c-0.8,0.9-0.3,2.3,0,3.5c0.3,1.1,0,2.3,0.3,3.4c0.2,0.7,1.4,0.4,2,0c1-0.7,1.4-1.9,1.8-3c0.2-0.4,0.3-0.9,0.5-1.3
	C177.4,238.8,177.6,238.1,177.2,237.5z"/>
<path fill="#EAEAEA" stroke="#4E9BD7" stroke-miterlimit="10" d="M186,208.1c-0.2,0.3-0.5,0.5-0.7,0.8c-0.4,0.6-0.2,1.4-0.5,2
	c-0.5,0.8-1.9,0.9-2.1,1.8c-0.1,0.4,0.1,0.8,0.2,1.3c0.1,0.7-0.1,1.4,0.2,2c0.4,0.7,1.1,1.1,1.7,1.7c0.4,0.4,0.9-0.5,1.2-1
	c0.3-0.5,0.1-1,0.4-1.5c0.6-1,2.4-0.2,3.5-0.8s1.8-2,1.1-3c-0.1-0.2-0.3-0.4-0.5-0.6c-0.5-0.9-0.1-2-0.2-3c-0.1-1-0.7-1.9-1.6-2.2
	s-2.1,0.2-2.4,1.1C186.2,207.1,186.3,207.7,186,208.1z"/>
<path fill="#7BBCEB" stroke="#4E9BD7" stroke-miterlimit="10" d="M191.8,184.9c0.2-2.8,5.3-3,5.7-5.7c0.2-1.4-0.3-3.1-1.3-4.1
	s-1.5-1.6-2.2-2.8c-0.4-0.6-1.7-1.5-2.2-2.1c-0.9-0.9-2.2-1.2-3.4-1s-2.4,0.7-3.5,1.3c-0.9,0.5-1.8,1.2-1.6,2.2
	c0.1,0.5,0.5,0.9,0.8,1.3c1.1,1.6,0.3,4-1.2,5.1s-3.7,1.2-5.6,0.7c-0.4-0.1-0.7-0.2-1.1-0.3c-0.5-0.1-1.9,0.5-2.4,0.6
	c-1.9,0.4-3.9-1-4.5,0.9c-0.3,1.2,0,2-0.7,3s-0.9,2.1-0.7,3.3c0.1,0.8,0.4,1.5,0.8,2.2c1.6,2.8,1.2,7-1.3,9
	c-0.4,0.3-1.2-0.2-1.4,0.2c-0.4,0.7,0.6,1.5,0.9,2.2c0.8,2,2.2,2.9,3.8,4.1c1.1,0.9,3.3,0.6,4.1-0.6c0.8-1.2,0.1-2.7,0.8-3.9
	c0.8-1.4,2.4,0.2,4.1,0.4c0.6,0.1,1.3,0.1,1.8-0.2s0.4-1,0.3-1.6c-0.1-0.6,1.1-0.1,1.4,0.4c0.3,0.5,0.5,1.1,1,1.4
	c0.8,0.3,1.6-0.8,1.3-1.7s-2-1.2-1.7-2.1c0.3-0.9,2.7-0.9,2.1-1.5c-0.8-0.9-3.8-0.3-5-3.2c-0.9-2.1-2-4.3-1.4-6.6
	c0.1-0.5,0.4-1.1,0.8-1.4c0.4-0.3,0.9-0.3,1.4-0.2c1,0,2.1,0,3.1,0.1c0.4,0,0.8,0,1.1,0.2c0.4,0.2,0.7,0.6,1,1
	c1.1,1.7,2.3,3.7,1.9,5.8c-0.2,1-0.7,1.8-1,2.8s0,2.2,0.9,2.6c1.2,0.6,2.6-0.9,2.7-2.2c0.2-1.4-0.3-2.8,0-4.1
	c0.2-0.7,0.5-1.4,0.9-2.1c0.3-0.6,1.2-1.2,1-1.9C193.1,185.6,191.7,185.5,191.8,184.9z"/>
<path fill="#EAEAEA" stroke="#D6D6D6" stroke-miterlimit="10" d="M201.9,108.7c-0.3,0-0.6,0.2-0.8,0.4c-2.8,2.1-4.9,2.5-8.3,2.6
	c-0.8,0-2.3,0.2-3-0.2c-0.8-0.5-1.2-1.8-1.1-2.7c0.1-0.6,0.6-0.5,0.7-1.1c0.1-0.6-0.2-1.2-0.5-1.7c-0.3-0.4-0.6-0.7-1-0.9
	c-0.8-0.3-1.7,0-2.5,0.2c-2,0.5-3.2-1.7-5.3-1.4c-1.3,0.2-1.3,1.9-1.8,3.1c-0.2,0.6-0.5,1.2-0.3,1.8c0.1,0.6,0.5,1.1,0.8,1.6
	c1.3,1.9,1.5,4.8-0.1,6.4c-0.3,0.3-0.7,0.6-0.9,1c-0.7,1.2,0.6,2.5,0.5,3.9c0,0.7-0.4,1.4-0.8,2c-1,1.7-1.7,3.5-2.3,5.3
	c-0.3,1.2-0.5,2.6,0.3,3.5c0.7,0.9,2.1,1,2.9,1.7c0.7,0.6,1,1.5,1.3,2.4c0.7,2.3,1.5,4.6,2.2,6.9c0.3,0.8,0.9,1.8,1.6,1.4
	c0.5-0.2,0.6-0.8,0.5-1.4c-0.1-0.5-0.4-1-0.4-1.5c-0.1-1.2,1.1-2.2,2.2-2.7c1.1-0.6,2.4-1.1,2.9-2.3c0.3-0.6,0.3-1.4,0.6-2
	c0.4-0.8,1.3-1.3,2-1.9c0.7-0.6,1.3-1.5,1-2.3c-0.2-0.5-0.7-0.8-1-1.3c-0.7-1-0.5-2.4-0.3-3.6c0.3-1.3,0.5-2.6,1.3-3.7
	c1.5-2.2,4.3-2.9,6.9-3c1.1-0.1,2.2-0.1,3.1-0.6c0.5-0.3,0.9-0.8,1.3-1.3c1.2-1.6,2.6-3.8,1.5-5.5c-0.8-1.1-1.6-0.9-2.3-2.1
	C202.7,109.2,202.4,108.7,201.9,108.7z"/>
<path fill="#EAEAEA" stroke="#D6D6D6" stroke-miterlimit="10" d="M92.1,193.7c-0.2-0.6-1.1-0.5-1.6-0.3c-0.5,0.2-1,0.6-1.4,1
	c-0.7,0.6-1.8,1.4-1.4,2.3c0.3,0.8,1.8,0.3,2.1,0.1C91,196.3,92.5,195,92.1,193.7z"/>
<path fill="#EAEAEA" stroke="#D6D6D6" stroke-miterlimit="10" d="M112.7,167.6c0.8-1.4,2.1-3.4,1.1-4.7c-0.4-0.6-1.5,0-2,0.5
	c-0.6,0.5-0.9,1.1-1.1,1.8c-0.2,0.7-0.4,1.5-0.1,2.2c0.3,0.7,1.5,1.4,1.9,0.8C112.6,168.1,112.6,167.8,112.7,167.6z"/>
<path fill="#EAEAEA" stroke="#D6D6D6" stroke-miterlimit="10" d="M120.4,177.3c0,0.6-0.1,1.8-0.7,1.6c-1.3-0.5-0.2-3.3-1.5-3.7
	c-0.7-0.2-1.4,0.4-1.9,1c-1.8,2-3.7,4.1-5.5,6.1c-0.3,0.4-0.7,0.8-0.7,1.2c0,0.4,0.2,0.7,0.4,1c1.3,2.2,3.9,6.6,5.7,4.7
	c0.8-0.8-0.5-2.8,0.4-3.5c0.8-0.6,2.1,0,3.1,0c0.4,0,0.8,0,1.1-0.2c0.3-0.2,0.5-0.7,0.7-1c0.5-0.7,1.4-0.3,2.3-0.4
	c3.9-0.5,5.2-5.9,8.1-8.6c0.5-0.5,1.3-0.4,2-0.6c0.9-0.2,0.9-1.7,0.4-2.5c-0.5-0.8-1.5-1.1-2.5-1.2c-1.1-0.1-1.2,1.5-2.3,1.8
	c-0.9,0.3-0.6-1.8-0.5-2.7s0.8-1.8,1.7-1.9c0.5,0,1.1,0.2,1.6,0c0.9-0.4,0.5-1.8-0.1-2.6s-1.9-2.1-1-2.6c0.6-0.4,1.4,0.2,2.1,0.1
	c0.8-0.1,1-1.3,0.6-2c-0.3-0.7-1-1.2-1.7-1.6c-1.4-0.9-3.2-1.9-4.6-1c-0.5,0.3-0.8,0.8-1.1,1.2c-1.3,1.8-2.6,3.7-3.8,5.5
	c-1.2,1.8-2.5,3.5-3.3,5.5c-0.1,0.3-0.3,0.7-0.2,1.1c0.1,0.3,0.3,0.6,0.5,0.9C120.3,174.2,120.4,175.8,120.4,177.3z"/>
<path fill="#EAEAEA" stroke="#D6D6D6" stroke-miterlimit="10" d="M135.1,190.6c0.2,0.3,0.4,0.7,0.2,1c-0.3,0.6-1.2,0.6-1.8,0.5
	c-0.6-0.1-1.2-0.5-1.8-0.9c-0.2-0.2-0.7-0.5-0.4-0.7c0.4-0.3,1-0.4,1.1-0.9c0.2-0.5,0.1-1,0-1.5c-0.1-0.7-0.5-1.4-0.3-2.1
	c0.5-1.2,2.5-0.4,3.7,0.2c0.3,0.1,0.6,0.3,0.7,0.6c0.1,0.3-0.1,0.6-0.3,0.9c-0.4,0.6-0.8,1.1-1.2,1.7c-0.2,0.3-0.4,0.6-0.3,0.9
	C134.8,190.3,134.9,190.4,135.1,190.6z"/>
<path fill="#EAEAEA" stroke="#D6D6D6" stroke-miterlimit="10" d="M113.2,140.3c-1.3,0.3-3.6,0.3-3.6,1.6c0,0.8,0.7,1.4,0.5,2.1
	c-0.2,0.6-0.8,1.2-0.7,1.8c0.1,0.6,0.8,1,1.5,0.9s1.1-0.5,1.6-1c0.5-0.5,0.9-1,1.4-1.4c1.7-1.5,3.9-2.1,5.9-3.1
	c0.3-0.2,0.6-0.3,0.8-0.6c0.5-0.5,0.6-1.3,0.7-2c0-0.1,0-0.2,0-0.4c-0.1-0.3-0.5-0.3-0.8-0.3c-0.7,0-1.6-0.3-2.2,0
	c-0.7,0.4-0.9,1.3-1.4,1.8c-0.3,0.3-0.7,0.7-1.2,0.7c-0.4,0-0.7-0.2-1.1-0.3C114.1,140.1,113.6,140.2,113.2,140.3z"/>
<path fill="#EAEAEA" stroke="#D6D6D6" stroke-miterlimit="10" d="M134.8,127.6c-0.3-0.6-1.1-0.8-1.8-0.9c-0.7-0.1-1.5,0-2.2,0.3
	c-0.6,0.4-1.1,1.2-0.8,1.9c0.1,0.1,0.2,0.3,0.3,0.4c0.5,0.4,1.2,0.4,1.9,0.4c0.6,0,1.3-0.1,1.9-0.4
	C134.7,128.9,135,128.2,134.8,127.6z"/>
<path fill="#EAEAEA" stroke="#D6D6D6" stroke-miterlimit="10" d="M147.8,118.8c0.4-0.1,0.8,0.1,1.2,0.2c0.2,0,0.5,0.1,0.7,0.2
	c0.7,0.4,0,1.5,0.4,2.2c0.5,0.8,2,0.6,2.2,1.5c0,0.2,0,0.4,0.1,0.5c0.1,0.2,0.4,0.4,0.6,0.5c0.7,0.4,1.3,1.3,1,2.1
	c-0.3,0.6-1,0.9-1.7,1.2c-0.6,0.2-1.3,0.9-1.9,0.7c-0.8-0.3-0.4-1.7,0.2-2.4c0.1-0.2,0.3-0.3,0.3-0.6c0-0.4-0.6-0.5-1.1-0.4
	c-0.3,0.1-0.6,0.1-0.9,0.3c-0.5,0.4-0.7,1.1-0.6,1.7c0,0.6,0.2,1.3,0,1.9c-0.3,0.8-0.7,1.6-1.1,2.3c-0.2,0.4-0.8,0-1-0.4
	c-0.2-0.4-0.1-0.8-0.1-1.2s0.3-1,0-1.2c-0.4-0.3-0.4-0.7-0.2-1.1c0.4-0.8,0.7-1.6,1.1-2.4c0.3-0.6,0.6-1.3,0.6-1.9
	C147.6,121.3,146.5,119.3,147.8,118.8z"/>
<path fill="none" stroke="#D6D6D6" stroke-miterlimit="10" d="M118.5,137.8c0.1-0.8,0.1-1.1,0.8-1.4c1.5-0.6,2.9-1.2,4.4-1.9
	c1.7-0.7,3.4-1.4,5.1-1.9c1.2-0.3,2.4-0.4,3.5-1c0.2-0.1,0.4-0.2,0.5-0.3c0.4-0.5,0.3-1.2,0.4-1.8"/>
<path fill="none" stroke="#D6D6D6" stroke-miterlimit="10" d="M134.8,128c2.7,0.3,7,0.7,10.6-0.4"/>
<path fill="#EAEAEA" stroke="#D6D6D6" stroke-miterlimit="10" d="M116.1,124.4c-0.5,0.1-1.1,0-1.6,0c-1.4,0.1-1.9,1.8-3.1,2.6
	c-2.3,1.4-5.3,0.7-7.8,1.9c-1,0.5-2.8,2.5-1.7,2.6c2.4,0.2,3.4,0.4,5.1,1.6c3.1,2.1,7.6-2.8,10.8-4.8c4.6-2.9,9.7-5.1,15.1-6.4
	c1.1-0.3,2.3-0.5,3.3-1.2s2.6-2.9,1.5-3c-1.5-0.2-6.3,4.4-10.4,2.8c-0.6-0.2,0.4-1.6-0.2-2c-0.9-0.7-2.8,1-3.5,0
	c-0.2-0.4-0.5-0.9-0.8-0.6c-1.6,1.4-2.8,3.2-4.2,4.8C117.9,123.4,117.1,124.2,116.1,124.4z"/>
<path fill="#EAEAEA" stroke="#D6D6D6" stroke-miterlimit="10" d="M96.2,129c0.2,0.1,0.4,0.3,0.5,0.4c0.5,0.5,1.7,0.9,1.9,0.2
	c0.4-1.1,0.4-2.4,1.3-3.2c0.2-0.2,0.3-0.3,0.4-0.5c0.1-0.3-0.1-0.7-0.4-0.9c-0.3-0.2-0.7-0.2-1-0.3c-0.5,0-0.9-0.1-1.4-0.1
	c-0.2,0-0.4,0-0.6-0.2c-0.1-0.1-0.2-0.2-0.2-0.3c-0.3-0.4-0.6-0.9-1.1-1.1c-0.5-0.2-1.1-0.2-1.4,0.1c-0.1,0.1-0.2,0.2-0.4,0.3
	c-0.8,0.6-2.1-0.4-3-0.1c-0.8,0.3-1,1.2-1.2,2c-0.3,1.3-0.5,2.9,0.4,3.8c0.4,0.4,1.2,0,1.6-0.4s0.9-0.9,1.5-0.8
	c0.3,0.1,0.6,0.3,0.9,0.5C94.7,128.9,95.6,128.7,96.2,129z"/>
<path fill="#EAEAEA" stroke="#D6D6D6" stroke-miterlimit="10" d="M101.3,117.4c-0.4,0.5-0.5,1.4-0.1,1.8c1.1,0.9,3.3,1,4.4,0
	c0.7-0.7,0.5-2.2-0.1-3c-0.4-0.6-1.5-0.3-2.2,0C102.6,116.5,101.8,116.8,101.3,117.4z"/>
<path fill="#EAEAEA" stroke="#D6D6D6" stroke-miterlimit="10" d="M116.3,115.2c-0.6,0.3-1.4-0.3-1.9-0.8c-0.3-0.2-0.5-0.5-0.8-0.8
	c-0.3-0.2-0.7,0.1-1.1-0.1c-0.2-0.1,0.3-0.2,0.4-0.3c0.7-0.5,1.1-1.3,1.8-1.9c1.6-1.2,2.7-5,4.4-3.9c0.8,0.5,0.4,1.9,1,2.6
	c0.2,0.2,0.5,0.5,0.6,0.7c0.2,0.6-0.3,1.3-0.8,1.6s-1.2,0.5-1.7,1c-0.2,0.2-0.3,0.4-0.5,0.6C117.2,114.4,116.8,114.9,116.3,115.2z"
	/>
<path fill="none" stroke="#D6D6D6" stroke-miterlimit="10" d="M97,124.2c1.2-0.9,3-3.6,4.6-4.8"/>
<path fill="none" stroke="#D6D6D6" stroke-miterlimit="10" d="M105.5,116.5c2.1-1.2,4.4-2.1,6.7-2.8c0.1,0,0.3-0.1,0.2-0.2
	s-0.2,0-0.1,0.1"/>
<path fill="none" stroke="#D6D6D6" stroke-miterlimit="10" d="M271.2,95.8c0.4,3.7,0.2,6.7,2.6,9c0.9,0.8,2.1,1.8,1.9,3
	c-0.2,0.8-1.1,1.4-1.3,2.2c-0.2,0.9,0.3,1.7,0.8,2.4c0.5,0.8,1.1,1.5,1.6,2.3c0.3,0.4,0.5,0.7,0.9,0.9c0.7,0.3,1.4,0.1,2.2,0
	c1.8-0.2,3.7,0.5,4.9,2c0.5,0.6,0.9,1.3,1.4,1.9c1.6,1.6,4.5,0.8,6.3,2.3c1.7,1.3,5.3,4.4,4.4,6.4c-0.6,1.3-2.3,1.9-2.4,3.3
	c0,0.7,0.1,1.4,0.1,2.2c-0.1,2.4-2.4,4.3-2.6,6.8c-0.1,0.8,0.1,1.6,0.6,2.3c0.4,0.6,1,1.2,1.1,2c0.2,1.5-1.2,3.3,0,4.2
	c0.3,0.2,0.6,0.2,0.8,0.4c0.6,0.4,0.7,1.3,0.7,2.1c0.1,3.9,1,7.7,2.4,11.3c1.6,4,3.2,7.6,4.5,11.7c0.9,2.8,2,5.7,2.7,8.5
	c0.8,2.8,1.9,5.8,4,7.7c1.4,1.3,2.7,2.3,4.1,3.7c1.1,1.1,1.7,2.5,2.9,3.6c0.8,0.8,2,1.6,2.6,2.5c0.5,0.8,1.2,1.5,1.4,2.4
	c0.6,2.4,1.2,4.8,1.8,7.2c0.2,0.9,0.5,1.8,1,2.6c0.6,0.9,1.6,1.6,2.6,2.1c2.1,1.3,3.6,3.4,5.6,4.7c1.6,1,3.7,1.1,5.4,1.7
	c6,2.4,11.6,0,18,1c0.6,0.1,2.2,1.3,2.7,1.5c0.5,0.3,1,0.7,1.4,1c1.8,1.5,3.9,2.6,6,3.6c1.2,0.6,2.3,1.2,3.5,1.8
	c2.7,1.4,5.5,2.8,8.2,4.2"/>
<path fill="none" stroke="#D6D6D6" stroke-miterlimit="10" d="M263.9,95.5c0.3-0.3,1.1-0.8,1.5-1"/>
<path fill="#EAEAEA" stroke="#D6D6D6" stroke-miterlimit="10" d="M254.1,104.1c0.6,0.2,1.3,0.3,1.9,0.1c0.7-0.3,1.1-0.9,1.5-1.6
	c0.2-0.4,0.5-0.8,0.7-1.1c0.1-0.2,0.2-0.4,0.3-0.5c0.3-0.9-0.4-1.6-0.3-2.5c0.1-0.9,1.4-0.6,2.3-0.5c0.9,0.1,1.5,0.4,2.4,0.2
	s1.6-1.1,1.4-2c-0.2-0.7-0.9-1.1-1.6-1.3c-0.7-0.2-1.4-0.3-1.9-0.8c-0.6-0.5-0.9-1.3-1.3-2c-0.4-0.7-1-1.2-1.7-1.5
	c-0.2-0.1-0.4-0.2-0.7-0.2c-1,0.1-1,1.6-1.8,2.1c-0.2,0.1-0.4,0.2-0.6,0.3c-1.5,0.7-2.1,2.5-2.2,4.2c0,0.5,0,1.1-0.2,1.6
	c-0.2,0.5-0.5,0.8-0.7,1.3c-0.4,0.9-0.2,1.9,0.3,2.7S253.2,103.8,254.1,104.1z"/>
<path fill="#EAEAEA" stroke="#D6D6D6" stroke-miterlimit="10" d="M265.9,94.7c1.2,0.1,2.4,0.6,3.6,1c0.8,0.2,1.7,0.3,2.2-0.3
	c0.4-0.5,0.1-1.3-0.1-1.9c-0.3-0.6-0.6-1.3-1.3-1.4c-0.4-0.1-0.8,0.2-1.3,0.3c-0.8,0.2-1.6,0.1-2.4,0.3s-2,0.9-1.5,1.5
	C265.5,94.9,265,94.6,265.9,94.7z"/>
<path fill="#EAEAEA" stroke="#D6D6D6" stroke-miterlimit="10" d="M76.4,39.2c0.4-0.1,0.4-0.7,0.3-1.1c-0.3-0.9-0.1-2.2-0.8-2.8
	c-0.6-0.5-1.6-0.2-2.1,0.3c-0.2,0.2-0.3,0.4-0.4,0.6c-0.4,0.9-0.2,1.9,0.5,2.6C74.5,39.5,75.5,39.6,76.4,39.2z"/>
<path fill="#EAEAEA" stroke="#D6D6D6" stroke-miterlimit="10" d="M147.1,36.6c-0.4,0.2-0.6,0.8-0.5,1.2c0.1,0.5,0.3,0.9,0.5,1.3
	c0.1,0.2,0.2,0.4,0.4,0.5c0.6,0.5,1.6,0.2,1.9-0.5c0.4-1.1-0.3-2.6-1.5-2.7C147.6,36.4,147.3,36.4,147.1,36.6z"/>
<path fill="none" stroke="#D6D6D6" stroke-miterlimit="10" d="M-5.9,22.1c0.8,0.9,1.6,1.7,2.6,2.3c1,0.6,2.3,0.8,3.4,0.3
	c1.7-0.8,2.1-2.9,3.1-4.4c0.6-1,1.6-1.8,2.8-2c1.2-0.2,2.5,0.6,2.6,1.8c0.1,0.4,0,0.8,0.2,1.2c0.2,0.3,0.5,0.5,0.7,0.7
	C14.1,24.6,18.7,26,24,25c1.9-0.4,3.3,2.6,5.1,3.3c4.3,1.6,9.3-0.3,13.6,1.4c1.8,0.7,3.3,2,5.2,2.1c1.2,0.1,2.5-0.3,3.7-0.6
	c4.5-1.3,9.2-2,14-2.1c0.6,0,1.3,0,1.7,0.4c0.4,0.3,0.6,0.9,0.9,1.4c0.7,1.5,2.2,2.6,3.9,2.7c0.8,0,1.7-0.1,2.4,0.1
	c0.8,0.3,1.1,0.6,1,1.4"/>
<path fill="none" stroke="#D6D6D6" stroke-miterlimit="10" d="M76.2,39.2c0.8,0.9,1.2,2.4,2.1,3.2s2,1.4,2.7,2.4
	c0.2,0.4,0.4,0.7,0.7,1c0.3,0.3,0.8,0.5,1.3,0.7c2.1,0.8,4.2,1.5,6.3,2.3c1.6,0.6,3.1,1.1,4.8,1.5c1.8,0.4,3.6,0.4,5.5,0.4
	c8.7-0.1,17.3-2.4,25.7-4.7c2.8-0.8,5.5-1.5,8.3-2.3c1.1-0.3,2.2-0.6,3.3-0.5c0.7,0.1,1.3,0.2,2,0.1c0.9-0.2,1.5-1,2.4-1.4
	c1.1-0.6,2.4-0.4,3.6-0.7c1.2-0.3,2.4-1.5,1.8-2.6"/>
<path fill="none" stroke="#D6D6D6" stroke-miterlimit="10" d="M147.6,36.6c0.5-2.4,2.3-5.4,4.7-6.2c3-1,6.8-0.2,9.1-2.4
	c0.6-0.6,1.1-1.4,1.7-2c0.6-0.6,1.6,0,2.4-0.5c1.2-0.7,0-3,1.2-3.6c0.5-0.3,1-0.3,1.5-0.5c0.5-0.2,0.8-0.7,1.2-1.1
	c1.7-2.1,3.4-4.1,5.2-6.2c0.4-0.5,0.8-1,1-1.6c0.4-1.2-0.5-2.7,0-3.9c0.3-0.7,1.4-0.1,2.2,0c2.1,0.2,2.8-3.2,4.9-3.4
	c0.8-0.1,1.6,0.4,2.4,0.4c1.6-0.1,2.2-2.1,2.4-3.7c0.2-1.4,0.4-3-0.1-4.4"/>
<path fill="none" stroke="#D6D6D6" stroke-miterlimit="10" d="M98.6,129.8c0.9,0.6,2.1,0.4,3,0.9"/>
<path fill="#FFFFFF" stroke="#D6D6D6" stroke-miterlimit="10" d="M187.7,119.8c-0.5,0.3-1,0.7-1.2,1.2c-0.2,0.6,0,1.3,0.3,1.9
	c0.4,0.9,0.4,2.1,1.2,2.8c0.1,0.1,0.2,0.1,0.3,0.1c1.4-0.2,1.5-2.3,1.7-3.6c0.1-0.5,0.2-1,0.3-1.5c0.1-0.3,0.1-0.7,0-1
	c-0.2-0.4-0.8-0.6-1.2-0.6S188.1,119.5,187.7,119.8z"/>
<path fill="#FFFFFF" stroke="#D6D6D6" stroke-miterlimit="10" d="M179.4,125.2c0.1,0.3,0.5,0.5,0.8,0.4c0.3-0.1,0.6-0.3,0.8-0.6
	c0.2-0.2,0.5-0.7,0.2-0.9c-0.4-0.4-1.4-0.7-1.7-0.2C179.3,124.3,179.3,124.8,179.4,125.2z"/>
<path fill="#FFFFFF" stroke="#D6D6D6" stroke-miterlimit="10" d="M180.8,130.9c0.3-0.2,0.7-1.2,0.3-1.3c-0.3-0.1-0.8-0.2-1.1,0
	c-0.4,0.3-0.7,0.9-0.3,1.2C179.9,130.8,180.4,131,180.8,130.9z"/>
<path fill="#FFFFFF" stroke="#D6D6D6" stroke-miterlimit="10" d="M181.1,132.4c0.4-0.2,1.1,0.1,1.1,0.2c0.1,0.4-0.1,0.8-0.5,1
	s-1.1,0.1-1-0.3C180.7,133,180.7,132.6,181.1,132.4z"/>
<path fill="#FFFFFF" stroke="#D6D6D6" stroke-miterlimit="10" d="M117.1,182.7c-1-1-3.9-1.2-4,0.2c0,0.8,1.4,0.9,2.2,1.1
	c0.4,0.1,0.9,0.1,1.3-0.1S117.4,183.1,117.1,182.7z"/>
<path fill="#FFFFFF" stroke="#D6D6D6" stroke-miterlimit="10" d="M122.4,177.3c-0.1,0.2-0.2,0.4-0.3,0.6c-0.6,1.2-0.2,2.7,0.6,3.8
	c0.5,0.7,1.4-0.8,1.7-1.6c0.4-1.4,0.5-2.9,0.7-4.4c0.1-0.8,0.1-1.7,0.2-2.5c0-0.6,0.1-1.2-0.2-1.7c-0.3-0.5-1.1-0.8-1.4-0.4
	c-0.8,0.9,0.1,2.5-0.5,3.5c-0.1,0.2-0.3,0.5-0.4,0.7C122.4,176,122.7,176.7,122.4,177.3z"/>
<path fill="#FFFFFF" stroke="#D6D6D6" stroke-miterlimit="10" d="M253.6,100.3c-0.6,0.3-0.7,1.2-0.3,1.7c0.4,0.5,1.3,0.5,1.7,0
	c0.3-0.4,0.3-1,0-1.4C254.6,100.2,254.1,100.1,253.6,100.3z"/>
<path fill="#FFFFFF" stroke="#D6D6D6" stroke-miterlimit="10" d="M258.7,95.3c-0.2-0.6-1.2-0.5-1.8-0.2s-1.2,1-0.9,1.6
	C256.6,97.7,259.1,96.4,258.7,95.3z"/>
<path fill="none" stroke="#585858" stroke-miterlimit="10" stroke-dasharray="4,1" d="M-10.3,10.8c6.4,0.5,13.2,1.1,18.4,4.9
	c1.2,0.9,2.3,2,3.6,2.8c1.6,1,3.5,1.6,5,2.8c1.5,1.2,0.5,3.3,1.3,5.1c0.8,1.6,4.6-1.3,5.4,0.3c1.3,2.5-6.2,3.6-5.5,6.3
	c0.2,0.7,14-0.3,20,0.1c4.1,0.2,6.2,1.3,10.2,2.5c3.1,0.9,6.1,2.5,9.4,2.6c2.4,0,4.8-0.7,7.3-0.6c6.2,0.3,10.5,5.9,14.8,10.4
	c1.6,1.7,3.5,3.3,5.9,3.8c2.3,0.4,5.1-0.8,5.6-3.1c0.5-2.5-1.5-4.6-3.3-6.5c-1.7-1.9-3.2-4.8-1.6-6.8c0.8-1,2.2-1.4,2.7-2.5
	c0.8-1.7-0.4-4.5,1.3-5.2c0.7-0.3,1.4,0.1,2.2,0c3.7-0.6,0.3-5.7,1.5-5.8c4.3-0.3,11.5-4.2,18.4-8c0.8-0.4,1.8,0,2.7-0.2
	c4.8-1,5-12.2,9.7-10.6c2.3,0.8,4,3.2,6.4,2.7s4.3-2.7,4.6-5.2c0.1-0.8,0-1.7,0.4-2.4c0.1-0.2,0.3-0.4,0.5-0.6"/>
<path fill="none" stroke="#585858" stroke-miterlimit="10" stroke-dasharray="18,3,1,3" d="M-6.7,88.5c2.1,4,6,6.6,9.7,9.1
	c3.4,2.2,6.7,4.5,10.1,6.7c0.7,0.5,1.5,1,2,1.7c1.1,1.7,0.5,3.9,0,5.9c-1.2,4.3-1.8,8.8-1.9,13.3c0,0.9,0,1.9,0.8,2.4
	c0.5,0.3,1.1,0.4,1.6,0.4c3.2,0.1,6.5,0.2,9.6-0.6c3.1-0.8,6.1-2.8,7.5-5.7c0.4-0.8,0.6-1.6,1.1-2.3c1.9-2.9,6.2-2.3,9.7-2.6
	c3.5-0.3,6.8-1.9,10.3-1.8c3.5,0.1,7.3,3.1,6.3,6.5c-0.5,1.5-2.8,3.4-1.6,4.4c3.3,2.8,8.8-1.6,11.8-4.7c0.8-0.9,1.6-1.9,2.5-2.6
	c2.2-1.7,5.3-1.8,8.1-1.8c4.4,0,8.8,0,13.2,0c1.1,0,2.3,0,3.1-0.7c2.8-2.1-0.8-6.8,0.7-9.9c0.9-1.8,3.2-2.4,5.1-3
	c3.7-1.1,7.3-2.9,10.3-5.2c3.2-2.4,5.9-5.5,9.5-7.2c4.8-2.3,10.6-1.9,15.6,0c5,1.9,8.4,7.6,13.7,8.2c3,0.3,3.1-5.1,5.1-7.2
	c2.3-2.4,6.4-1.9,9.3-3.6c1.4-0.8,2.5-2.1,3.9-2.8c1.4-0.7,3.6-0.5,4.2,1c0.3,0.7,0.1,1.6,0,2.4c-0.2,3.2,1.9,6.4,5,7.3
	c0.8,0.2,1.7,0.3,2.5,0.1c1.3-0.5,2.1-1.8,2.7-3c1-1.9,1.5-4.1,3-5.7c2.6-2.8,6.5-4,9.8-6.1c1.1-0.7,2.2-1.5,2.5-2.7
	c0.3-1.2-0.3-2.4-0.1-3.6c0.2-1.6,1.8-2.7,3.2-3.5c3.1-1.9,6.6-3.8,10.2-3.2c1.2,0.2,2.5,0.7,3.7,0.5c1.9-0.3,3.4-1.7,4.9-2.9
	c2.3-1.8,5.5-0.3,8.4,1c1.3,0.6,2.5-0.9,3.5,0c2.5,2.3-3.3,7.4-5,10.3c-1.7,3-2.9,5.3-1.4,8.4c1.5,3,4,4.7,5.7,7.6
	c0.7,1.3,2.6,3,4.1,2.7c0.7-0.1,1.1-0.7,1.5-1.2c2.2-2.8,4.3-5.6,6.5-8.3c0.9-1.1,1.8-2.3,2.9-3.1c0.9-0.6,1.9-1,2.9-1.5
	c5.3-2.7,9-8.3,9.5-14.3c0.1-1,0.1-2,0.5-2.9c0.5-1.1,1.5-1.8,2.5-2.4c2.2-1.5,4.3-3,6.5-4.5c1.6-1.1,3.6-2.3,5.4-1.7
	c0.9,0.3,1.6,0.9,2.5,1.2c2.1,0.7,4.3-0.7,6.4-0.5c2.2,0.3,3.9,2.2,6,3c5.5,2.2,11.3-1.7,17.1-2.9c3.7-0.7,5.8-5,8.8-7.2
	c3-2.2,6.6-4.1,10.3-3.7c2.3,0.2,4.8,1.2,6.9,0.4c1.7-0.7,3.1-2.5,4.9-2.3c0.9,0.1,1.6,0.7,2.5,0.8c1.7,0.3,3.3-0.9,4.3-2.3
	c1-1.4,1.7-3.1,3-4.3c1.6-1.5,4-1.9,5.7-3.3c0.8-0.7,1.5-1.6,2.3-2.2c1.8-1.2,4.1-1,6.2-0.4c2.1,0.5,4.1,1.4,6.3,1.3
	c1-0.1,2.1-0.3,3.1-0.6c2.5-0.7,5.1-1.4,7.6-2.2"/>
<path fill="none" d="M32.9,279.5c1.3-0.6,2.8-0.6,4.2-0.4c5.9,0.7,11.4,3.2,16.9,5.6c5,2.2,10.6,5.1,12,10.4"/>
<text transform="matrix(0.9732 0.2301 -0.2301 0.9732 38.0026 281.7762)"><tspan x="0" y="0" fill="#7D7D7D" font-family="'Verdana-Italic'" font-size="7">7</tspan><tspan x="4.2" y="0" fill="#7D7D7D" font-family="'Verdana-Italic'" font-size="7" rotate="5.8">6</tspan><tspan x="8.5" y="0.4" fill="#7D7D7D" font-family="'Verdana-Italic'" font-size="7" rotate="9.3">0</tspan><tspan x="12.8" y="1.2" fill="#7D7D7D" font-family="'Verdana-Italic'" font-size="7" rotate="10.8">0</tspan></text>
<path fill="none" d="M102.2,260.3c0.4-1.6,0.4-3.3,0.8-4.9c0.7-2.4,2.3-4.4,3.9-6.4c2.5-3.1,5.1-6.3,7.6-9.4
	c0.9-1.1,1.7-2.1,2.8-2.9c2.4-1.8,5.6-2.3,7.8-4.3"/>
<text transform="matrix(0.5857 -0.8105 0.8105 0.5857 105.944 254.5325)"><tspan x="0" y="0" fill="#7D7D7D" font-family="'Verdana-Italic'" font-size="7">8</tspan><tspan x="4.3" y="0.1" fill="#7D7D7D" font-family="'Verdana-Italic'" font-size="7" rotate="3.1">0</tspan><tspan x="8.7" y="0.3" fill="#7D7D7D" font-family="'Verdana-Italic'" font-size="7" rotate="3.1">0</tspan><tspan x="13.2" y="0.5" fill="#7D7D7D" font-family="'Verdana-Italic'" font-size="7" rotate="3.1">0</tspan></text>
<text transform="matrix(1 0 0 1 209.5 122.6739)"><tspan x="0" y="0" fill="#585858" font-family="'Verdana-Italic'" font-size="8">Inferno Lakes</tspan><tspan x="0" y="9.6" fill="#585858" font-family="'Verdana-Italic'" font-size="8">(upper)</tspan></text>
<text transform="matrix(1 0 0 1 204.1667 189.0072)"><tspan x="0" y="0" fill="#7BBCEB" font-family="'Verdana-Italic'" font-size="8">Inferno Lakes</tspan><tspan x="0" y="9.6" fill="#7BBCEB" font-family="'Verdana-Italic'" font-size="8">(lower)</tspan></text>
<text transform="matrix(1 0 0 1 268.3333 244.0072)" fill="#585858" font-family="'Verdana-Italic'" font-size="8">× 8025</text>
<text transform="matrix(1 0 0 1 198 318.0072)" fill="#585858" font-family="'Verdana-Italic'" font-size="8">× 8324</text>
<text transform="matrix(1 0 0 1 195.6667 83.0072)" fill="#585858" font-family="'Verdana-Italic'" font-size="8">× 8241</text>
<text transform="matrix(0.9759 -0.2182 0.2182 0.9759 45.4717 74.3599)" fill="#585858" font-family="'Verdana-Bold'" font-size="10" letter-spacing="8">EMIGRANT WILDERNESS</text>
<path fill="none" d="M85.6,94.2c4.9,4,42.2-16.6,64.4-20.9"/>
<text transform="matrix(0.926 -0.3776 0.3776 0.926 114.7339 88.1923)"><tspan x="0" y="0" fill="#7D7D7D" font-family="'Verdana-Italic'" font-size="7">8</tspan><tspan x="4.4" y="0" fill="#7D7D7D" font-family="'Verdana-Italic'" font-size="7" rotate="0.2">0</tspan><tspan x="8.9" y="0" fill="#7D7D7D" font-family="'Verdana-Italic'" font-size="7" rotate="0.7">0</tspan><tspan x="13.3" y="0.1" fill="#7D7D7D" font-family="'Verdana-Italic'" font-size="7" rotate="1.3">0</tspan></text>
<path fill="none" d="M310.3,282.1c0.1-2.9,3.1-4.7,5.7-6.1c3.2-1.7,6.3-3.7,8.4-6.6c2.1-2.9,2.9-7,1.3-10.2"/>
<text transform="matrix(0.8622 -0.5066 0.5066 0.8622 313.9824 280.1342)"><tspan x="0" y="0" fill="#7D7D7D" font-family="'Verdana-Italic'" font-size="7">7</tspan><tspan x="4.5" y="0.1" fill="#7D7D7D" font-family="'Verdana-Italic'" font-size="7" rotate="-1.1">6</tspan><tspan x="9.4" y="0" fill="#7D7D7D" font-family="'Verdana-Italic'" font-size="7" rotate="-11.3">0</tspan><tspan x="14.6" y="-1.1" fill="#7D7D7D" font-family="'Verdana-Italic'" font-size="7" rotate="-28.4">0</tspan></text>
<path fill="none" d="M325.3,133.1c1.1-2.1,2.7-3.9,4.2-5.7c3.8-4.3,7.6-8.7,12.5-11.9"/>
<text transform="matrix(0.648 -0.7616 0.7616 0.648 329.0967 131.8871)"><tspan x="0" y="0" fill="#7D7D7D" font-family="'Verdana-Italic'" font-size="7">8</tspan><tspan x="4.4" y="0" fill="#7D7D7D" font-family="'Verdana-Italic'" font-size="7" rotate="1.1">4</tspan><tspan x="8.8" y="0.1" fill="#7D7D7D" font-family="'Verdana-Italic'" font-size="7" rotate="3.6">0</tspan><tspan x="13" y="0.3" fill="#7D7D7D" font-family="'Verdana-Italic'" font-size="7" rotate="8.2">0</tspan></text>
<path fill="none" d="M52.8,0.4c0.9,4.6,5,7.7,8.3,11c3.3,3.3,3.8,7.1,3.8,11.4"/>
<text transform="matrix(0.6421 0.7666 -0.7666 0.6421 52.3809 5.9906)"><tspan x="0" y="0" fill="#7D7D7D" font-family="'Verdana-Italic'" font-size="7">7</tspan><tspan x="4.7" y="-0.1" fill="#7D7D7D" font-family="'Verdana-Italic'" font-size="7" rotate="-6.2">4</tspan><tspan x="8.8" y="-0.7" fill="#7D7D7D" font-family="'Verdana-Italic'" font-size="7" rotate="0.9">0</tspan><tspan x="12.4" y="-0.8" fill="#7D7D7D" font-family="'Verdana-Italic'" font-size="7" rotate="22.6">0</tspan></text>
<g>
	<g>
		<polyline fill="none" stroke="#7D7D7D" stroke-miterlimit="10" points="85.2,341.6 85.2,348.7 275.4,348.7 275.4,341.7 		"/>
		<line fill="none" stroke="#7D7D7D" stroke-miterlimit="10" x1="180.5" y1="341.4" x2="180.5" y2="348.7"/>
		<line fill="none" stroke="#7D7D7D" stroke-miterlimit="10" x1="161.2" y1="349.2" x2="161.2" y2="343.7"/>
		<line fill="none" stroke="#7D7D7D" stroke-miterlimit="10" x1="142.4" y1="349.2" x2="142.4" y2="343.7"/>
		<line fill="none" stroke="#7D7D7D" stroke-miterlimit="10" x1="123.3" y1="349.2" x2="123.3" y2="343.5"/>
		<line fill="none" stroke="#7D7D7D" stroke-miterlimit="10" x1="104.6" y1="349.2" x2="104.6" y2="343.7"/>
	</g>
	<text transform="matrix(1 0 0 1 83.7838 339.1469)" fill="#7D7D7D" font-family="'Verdana'" font-size="8">0</text>
	<text transform="matrix(1 0 0 1 174.2949 339.1469)" fill="#7D7D7D" font-family="'Verdana'" font-size="8">0.5</text>
	<text transform="matrix(1 0 0 1 258.3418 339.1469)" fill="#7D7D7D" font-family="'Verdana'" font-size="8">1 mi</text>
</g>
</svg>
