<?xml version="1.0" encoding="utf-8"?>
<!-- Generator: Adobe Illustrator 17.1.0, SVG Export Plug-In . SVG Version: 6.00 Build 0)  -->
<!DOCTYPE svg PUBLIC "-//W3C//DTD SVG 1.1//EN" "http://www.w3.org/Graphics/SVG/1.1/DTD/svg11.dtd">
<svg version="1.1" id="Layer_1" xmlns="http://www.w3.org/2000/svg" xmlns:xlink="http://www.w3.org/1999/xlink" x="0px" y="0px"
	 viewBox="0 0 360 360" enable-background="new 0 0 360 360" xml:space="preserve">
<path fill="none" stroke="#E1E1E1" stroke-miterlimit="10" d="M224.5,362.3c-3.1-1.6,4.3-10.1,4.3-16.3c0-1.7,0.9-3.5,0.3-5.1
	c-0.4-1.3-1.5-2.4-2.5-3.4c-3.8-4-7-8.4-9.7-13.2c-1.1-1.9-2.1-4-2.2-6.2c-0.2-2.2-1.6-3.5-2.4-5.6c-1-2.8,1.6-5.5,0.3-8.2
	c-1-2.2-0.8-4.8-0.2-7.1c0.6-2.3,3.7-2.6,4.8-4.7c1.1-2.2,2.5-4.9,1.1-6.9c-3-4.5-10.8,0.4-16-0.9c-1.8-0.5-3.7-1-5.5-0.4
	c-1.8,0.6-3,2.9-1.8,4.3c0.8,0.9,2.2,1,3.2,1.6c2.3,1.5,1.6,5.3-0.6,6.9c-2.2,1.6-5.1,1.8-7.8,2.1c-5.1,0.6-12.2-0.5-14.7,4
	c-1.2,2.2-3.4,5.1-2,7.2c2.8,3.9,10.7-1.7,14.1,1.7c2.5,2.6-1.1,7.1-1.6,10.7c-0.3,2.2-0.7,4.5-2,6.2c-1.7,2.4-7.5,1.2-7.6,4.2
	c-0.1,2.1,1.1,3.9-0.7,5c-1.8,1.1-5.6,1.2-5.3,3.3c0.2,1.1,0.6,2.2-0.3,2.9c-0.9,0.7-1.8,0.6-2.8,1c-2.4,0.9-4.4,2.6-6.7,3.6
	c-2.8,1.2-6,1.4-9.1,1.6c-3.5,0.2-7,0.4-10.6,0.6c-3.3,0.2-7.2,0.6-9.1,3.4c-0.6,0.8-0.8,2.1,0.1,2.5c0.7,0.3,2.2,0.7,1.6,1.1
	c-2,1.4-5.4,2.1-6.8,3.8"/>
<path fill="none" stroke="#E1E1E1" stroke-miterlimit="10" d="M-18.3,200.9c2.3-0.8,4.5-1.9,6.5-3.3c1.5-1.1,2.8-2.3,4.4-3.2
	c4.7-2.5,10.5-1.1,15.7-0.2c5.1,0.9,10.3,1.2,15.5,1c0.8,0,1.7-0.1,2.5-0.3c1.1-0.3,2.9-0.1,4-0.4c5.3-1.5,8.5-3.7,12.3-7.4
	c0.4-0.4,1.1-0.4,1.7-0.4c0.5,0,1,0.2,1.5,0.4c2.2,0.8,6.1,0.1,6.7,2.4c0.3,1.4,1.4,2.4,1,3.8c-0.2,0.7-1.9,1.2-1.3,1.7
	c1.3,1.1,3.9-1,5.1,0.3c1.2,1.4-1.4,4.2,0,5.3c2.5,2.1,6.4-1.3,9.6-0.5c1.4,0.4,2.8,1,3.6,2.2c0.8,1.2,0.8,3-0.4,3.9
	c-0.6,0.4-1.4,0.6-1.9,1.1c-0.8,0.9-0.3,2.3,0.6,3s2.1,0.9,3.2,1.2c2,0.5,5.5,3,3.7,3.8c-1.1,0.5-2.5,0.4-3,1.5
	c-0.5,1.2-0.4,2.5-0.4,3.7c0,2.4-0.5,5.4-2.2,7c-3.4,3.1-2.2,8.6-3.8,12.9c-0.9,2.6-2.9,4.7-4.9,6.5c-0.5,0.5-1.1,1-1.1,1.7
	c0,0.6,0.3,1.1,0.4,1.7c0.2,1.1-0.7,2.2-1.5,3c-1.7,1.8-2.6,2.8-3.6,5c-2.6,5.7-10.7,7.8-16,9.3c-1.9,0.5,1.1,3.4,3.1,3.8
	c1.9,0.4,3.9-0.5,5.6-1.5c3.8-2.1,8.1-9,11.5-6.2c4.6,3.7-4.1,11.2-7.8,15.8c-0.9,1.1-1.8,2.2-2,3.5c-0.2,1.9,1.2,3.5,2.4,4.8
	c2.3,2.5,4.9,5.1,8.3,5.7c0.7,0.1,1.5,0.2,2.2,0.5c1.1,0.5,1.8,1.7,2.5,2.7c1.8,3.1,3.5,6.1,5.3,9.2c1.6,2.7,3.2,5.5,5.7,7.4
	c1.1,0.8,2.4,1.5,3.4,2.4c2.5,2.2,3.9,6.1,7.2,6.5c3,0.3,5.2-2.6,6.7-5.2c1.1-1.8,2.2-3.7,2.7-5.8c0.4-1.6,0.4-3.3,0.8-4.9
	c0.7-2.4,2.3-4.4,3.9-6.4c2.5-3.1,5.1-6.3,7.6-9.4c0.9-1.1,1.7-2.1,2.8-2.9c2.4-1.8,5.6-2.3,7.8-4.3c0.8-0.7,1.4-1.6,2.3-2.1
	c1.2-0.7,2.7-0.6,4-0.5c4.5,0.3,9.2,0.7,13.1,3.1c1.9,1.2,3.5,2.9,5.5,4c2,1.1,4.6,1.6,6.4,0.3c1.8-1.2,2.3-3.5,2.7-5.6
	c0.6-3.1,1.2-6.2,1.7-9.3c0.7-3.8,1.4-7.6,1-11.5c-0.4-3.6-1.8-7.4-0.5-10.7c0.7-1.7,1.9-3,2.8-4.6c0.8-1.6,1-3.8-0.2-5
	c-0.6-0.6-1.6-1-1.9-1.8c-0.2-0.6,0-1.2,0.2-1.8c0.6-1.6,1.2-3.2,1.8-4.9c0.5-1.4,1.9-2.2,2.8-3.5c2.3-3.2,1-8.3,4.1-10.7
	c2.1-1.6,4.8-1.9,6.9-3.4c4.5-3.1,4.5-9.9,2.7-15c-0.7-2-1-4.9-2.6-6.2c-1.6-1.3-4,0.9-5.5-0.5c-1.5-1.3-0.5-8.5,0-14.6
	c0.1-1.1,1.9-1.4,2.2-2.5c0.6-2.1-0.6-4.1-1-6.2c-0.4-2.1,2.3-2.5,3-4.5c1.2-3.5-2.1-6.5-3-10.1c-1-3.9-7.4-10-3.5-11
	c2.5-0.6,4.2,3.1,6.3,4.6c2.5,1.8,5,3.6,7.8,4.6c2.9,1,6.9-3.1,8.8-0.7c0.9,1.1-2.1,1.9-2.5,3.3c-0.4,1.3,0.1,3,1.4,3.5
	c0.7,0.2,1.4-0.1,2.1-0.1c7.5,0.2,9.9-4.4,10.7-8.1c0.6-2.9,3,2.6,4.6,0.1c1.3-2.1,2.3-3.5-0.2-4.7c-1.6-0.8,0-4,1.2-5.4
	c1.8-2.2,5.8-4.7,7.5-2.4c1,1.4-3.1,1.7-3.2,3.5c0,1.2,1.1,2,0.6,3c-0.6,1-0.7,2.7-1.4,3.7c-1,1.5-1.9,2.4-2,4.1
	c-0.1,2.5,1.7,6-0.4,7.4c-1.1,0.7-2.5,0.7-3,1.9c-0.5,1.2-0.1,4.2-0.8,5.2c-1.8,2.6-8.1,1.9-7.7,5c0.4,2.7,5.7-0.9,7,1.5
	c0.9,1.7-1.5,2.9-3.2,3.7c-2.6,1.2-7.3,0.3-7.4,3.2c0,2,4.2,0.8,5.2,2.6c0.3,0.5,0.2,1.1,0.2,1.7c-0.7,5-7.9,13.5-10.3,9.1
	c-1.2-2.2,5.2-7.4,2.7-7.1c-2.5,0.3-7.9,3.4-8.2,5c-0.2,1.1,0.4,2.2,0.7,3.4c0.8,3-1.7,5.9-0.8,9c1.2,4,6.6,4,9.2,7.3
	c2.1,2.6,3.6,5.7,6.4,7.5c1.4,0.9,3.1,1.4,4.5,2.3s2.7,2.5,2.4,4.1c-0.2,1.8-1.9,2.9-3.1,4.2c-5,5.5-1.8,15.1-6.2,21.1
	c-0.7,1-1.6,1.8-2,2.9c-0.5,1.1-0.4,2.6,0.6,3.2c0.6,0.4,1.4,0.4,2.2,0.3c5.2-0.3,10.4-0.5,15.6-0.8c2.8-0.1,5.7-0.4,7.9-2.1
	c1.2-0.9,2.3-2.3,3.8-2c1.8,0.5,1.7,3,2.3,4.7c1,2.6,4,3.6,6.6,4.8c2.5,1.2,2.4,4.2,4.2,6.3c3.1,3.6,7.6,6.8,12.4,6.2
	c0.9-0.1,1.9-0.6,2.7-0.1c2.1,1.1-1.5,5.3,0.4,6.6c2.9,2,7.1,0.2,10.5-0.8c0.9-0.3,1.9-0.6,2.3-1.4c0.6-0.9,0.2-2.1,0-3.2
	c-1.8-7.5,0.2-15.9,5.1-21.8c0.7-0.9,1.5-1.7,1.9-2.8c0.8-2,0-4.3-1.4-6c-1.4-1.7-3.2-2.9-4.9-4.2c-4.3-3.4-7.7-7.9-9.8-12.9
	c-0.3-0.8-0.6-1.6-0.5-2.4c0.2-2,2.5-3,4.3-3.9c2-0.9,3.7-2.2,5.3-3.7c0.5-0.5,1-1,1.2-1.7c0.6-2.2-2-3.7-4.2-4.5
	c-4.4-1.5-9.1-3.1-11.6-6.9c-1.3-1.9-1.9-4.1-3.2-6c-1.3-1.8-3.8-1.2-5.8-2.2c-1.7-0.8-3.9-2.3-3.4-4.1c0.7-2.9,5.9-2,7.5-4.5
	c0.5-0.8,0.8-1.7,1.2-2.5c1.3-2.4,4.5-2.2,6.7-3.8c0.8-0.5,0.3-2.3,1.2-2.5c2.4-0.4,5.2-0.5,7,1.2c2,1.8-0.9,5.3-1.4,7.9
	c-0.1,0.8-0.3,1.6,0,2.3c0.3,0.6,0.8,1,1.3,1.4c1.2,1,2.5,2,3.7,2.9c1.1,0.9,2.3,1.8,3.7,2.2s3.1,0,3.8-1.2c1.2-1.9-2.5-3.7-2.1-5.9
	c0.2-1.2,3-1,2.9-2.2c0-1.6-3.1-1.2-4.3-2.4c-1.6-1.6-0.4-4.5,0.5-6.5c0.3-0.6,0.6-1.3,0.5-1.9c-0.2-0.9-1.4-1.6-1-2.5
	c0.3-0.9,1.7-0.5,2.2,0.3c0.5,0.8,0.2,2.2,1,2.5c2.3,1.1,1.5-3.3,2.2-5.7c0.4-1.6,3.4-3.3,1.9-3.9c-2-0.8-3.9,1.7-5.9,2.6
	c-0.5,0.2-1,0.4-1.5,0.1c-0.5-0.3-0.4-1.1-0.2-1.6c0.4-1.5,0.6-3,0.3-4.5c-0.3-1.5-2.4-1.8-2.8-3.3c-0.4-1.2,1.2-2.4,0.6-3.5
	c-0.6-1.1-2-0.9-3.1-0.3c-0.7,0.4-1.3-1-1.1-1.9c0.2-0.8,0.8-1.4,1.3-2.1c0.7-1,1.1-2.3,1.1-3.5c0-0.6-0.1-1.2-0.5-1.7
	c-0.7-0.9-2.2-0.9-3.2-0.2c-1,0.7-0.9,2.7-2.1,2.8c-1.4,0.1-2.5-2.3-3.3-1.2c-0.3,0.5-0.2,1.1-0.2,1.7c0,2.2-1.3,4.4-3.4,4.7
	c-2.1,0.4-4,0.3-5.5-1.3c-1.2-1.3-1.5-4.8-0.8-6.9c0.3-1-1.2-1.8-1.4-2.8c-0.4-1.7,1-3.3,2.5-4.2c1.5-0.9,3.2-1.4,4.5-2.5
	c1.3-1.1,0.6-2.9,0.9-4.6c0.2-0.9,1.7-1.7,2.6-1.3c2.3,1,1.3,4.8,2,7.2c0.1,0.5,0.3,1.1,0.7,1.5c0.9,1,2.5,0.7,3.8,0.2
	c3-1.1,5.5-6.1,8.4-4.7c2.5,1.2,0.5,5.5,1.5,8c1,2.7-0.2,5.5,0.9,8.1c1.3,3,6.6-1.6,7.6-4.7c0.5-1.5,0.4-3,0.9-4.5
	c0.4-1.5,1.5-2.9,3-3c1.5-0.1,3.8-0.4,5.2-1c2-0.8,1.3-3.8,1.9-5.9c0.7-2.7,5.7-1.1,7,1.4c1.3,2.5-0.6,5.6,0.2,8.3
	c0.9,3,6.4-0.8,9,0.9c1.6,1,1.7,3.3,1.7,5.2c-0.1,2.9-0.4,5.7-0.8,8.6c-0.2,1.7-0.4,3.6,0.8,4.8c1,1,2.8,1.3,3.2,2.7
	c0.3,1-0.4,1.9-0.7,2.8c-0.8,2.1,2.4,3.8,1.9,6c-0.9,4.7-8.2,5.8-7.6,10.5c0.1,0.7,0.2,1.4,0.1,2c-0.1,0.4-0.3,0.8-0.5,1.2
	c-0.9,2,0.7,4.7-0.7,6.3c-1.1,1.3-2.8,1.7-3.2,3.3c-0.4,1.6-0.5,3.4-1.5,4.7c-0.4,0.5-1,0.9-1.2,1.5c-0.3,1,0.4,1.9,1,2.7
	c1.8,2.1,3.6,4.3,6.2,5.3c4.5,1.7,7.3-3.1,11-6.1c1.9-1.5,1.9,3.6,3.4,5.6c0.8,1.1,3.4-0.2,4.1,1c1.1,1.8-0.5,4.8,1.4,5.6
	c0.8,0.3,1.7,0.2,2.4,0.6c1.6,1,0.8,3.4,1.5,5.1c0.5,1.2,1.8,1.8,3,2.4c7.2,3.5,14.5,7,21.7,10.4c1.3,0.6,2.5,1.2,3.5,2.2
	c0.9,0.9,1.5,2.1,2.3,3.2c2.9,4,8.7,5.5,13.3,3.6"/>
<path fill="none" stroke="#E1E1E1" stroke-miterlimit="10" d="M139.7,248.2c1.2,0.6,2.9-0.1,3.4-1.4c0.1-0.2,0.1-0.4,0-0.6
	c-0.1-0.2-0.2-0.3-0.4-0.4c-1.2-0.7-2.8-0.1-3.4,1c-0.1,0.2-0.2,0.4-0.1,0.6C139.2,247.8,139.5,248,139.7,248.2z"/>
<path fill="none" stroke="#E1E1E1" stroke-miterlimit="10" d="M63.2,362.8c-1.8-1.7-3.4-3.2-3.4-5.8c0-3.6,1.2-7.2,0.3-10.7
	c-1.4-5.3-7-8.2-12-10.4c-5.4-2.4-11-4.9-16.9-5.6c-1.4-0.2-2.9-0.2-4.2,0.4c-1.5,0.7-2.4,2.2-3.3,3.5c-2.7,4.4-5.4,8.8-6.8,13.7
	c-0.8,2.9-2.8,5.3-3.2,8.3c-0.3,2.5-0.1,4.9,0.4,7.3"/>
<path fill="none" stroke="#E1E1E1" stroke-miterlimit="10" d="M-14.7,241.1c1.2-0.3,2.6,0,3.8,0.3c1.7,0.4,3.3,1,5,0.7
	c1.7-0.3,1.6-2.3,2.8-3.6c1.8-1.9,5.3-0.5,6.8-2.7s3.5-5.5,6.8-5.3c0.4,0,1.1,0.2,1.5,0.2c3,0.2,7.7-0.7,4.7,3
	c-1.5,1.9,0.1,6.4-1.6,8.1c-1,1-2.7,1-3.9,1.8c-1.2,0.8-1.7,2.3-2.2,3.7c-0.8,2.5-1.6,5.1-1.5,7.7c0.1,2.6,1.7,4.7,3.3,6.8
	c1.6,2-1.7,4.6-4,5.9c-2.3,1.2-6.8,4.6-4.4,5.7c3.5,1.6,6.7-4.6,10.5-4.5c1.6,0.1,1.7,2.6,1.2,4.1c-0.4,1.5-1.2,3-0.8,4.5
	c0.8,3,5,2.8,8,3c4.3,0.4,11.5,2.6,10.5,6.9c-0.2,1.1-0.3,2,0.3,2.9c1.9,2.6,3.8,5.3,6.2,7.4c2.3,2.1,2.6,5.1,4.7,7.5
	c3.7,4.4,8.4,6.3,13.2,9.6c2.5,1.7,3.1,5.3,5.7,6.8c2.6,1.5,5.6,2.6,8,4.5c2.1,1.7,3.6,3.9,5.8,5.5c1.9,1.4,4.3,2.1,6.2,3.4
	c2,1.3,3.7,3.5,3.3,5.9c-0.6,3.3-5.1,5.5-4.3,8.8c0.6,2.7,4.6,3.8,6.5,1.7c0.8-0.9,1.1-2,1.7-3.1c1.3-2.3,3.6-3.7,5.5-5.5
	c3.3-3.3,4.9-7.8,6.8-12.1c3.3-7.5,7.7-14.6,12.9-21c2.4-2.9,5.6-6,9.4-5.4c2.9,0.4,7.7,2.3,6.9,5.1c-0.7,2.3-1.5,4-1.4,6.4
	c0.1,3.7-2.6,6.7-5.2,9.3c-7.1,7-12.7,16.7-21.9,20.4c-5.4,2.2-12.6,9-8.6,12.4c1.2,1.1,8-3.8,11.2-1.3c0.4,0.3,1.1,1.4,1,2
	c-0.4,2.2-2.2,3-4.6,3.2"/>
<path fill="none" stroke="#E1E1E1" stroke-miterlimit="10" d="M-13.1,305.5c1.1-2.2,1.7-4.5,2.4-6.9c1.1-3.8-2.1-7.3-3.5-11
	c-0.2-0.5-0.4-1.1-0.2-1.6c0.4-1.3,2.2-1.6,2.9-2.8c0.3-0.5,0.3-1,0.7-1.4c0.4-0.4,1-0.6,1.6-0.6c2.9-0.4,7.1,1.3,8.7-1.2
	c2.1-3.3-6.2-5.4-9.4-3.2c-0.9,0.6-1.7,1.5-2.6,2.2c-0.9,0.7-1.9,1.2-2.9,1.8"/>
<path fill="none" stroke="#E1E1E1" stroke-miterlimit="10" d="M74,290.8c0.3-0.6,1.4-0.3,1.7,0.3c0.1,0.1,0,0.3,0.1,0.4
	c0.2,0.4-0.3,0.8-0.8,0.8c-0.3,0-1.3,0.2-1.3-0.2C73.7,291.8,73.8,291.1,74,290.8z"/>
<path fill="none" stroke="#E1E1E1" stroke-miterlimit="10" d="M57.1,305.7c0,0.9,0.8,1.7,1.7,1.4c0.8-0.2,1.2-1.3,0.8-2.1
	C59,304.3,57.1,304.9,57.1,305.7z"/>
<path fill="none" stroke="#E1E1E1" stroke-miterlimit="10" d="M65.1,189c0.5,0,1.1,0.4,1.5,0.1c0.4-0.3,0.4-1,0.2-1.4
	c-0.2-0.5-0.9-0.6-1.5-0.6c-0.5,0-1.1,0.3-1.2,0.8c-0.1,0.5,0.4,1,0.9,1.2c0.3,0.2,0.7,0.3,1,0.2"/>
<path fill="none" stroke="#E1E1E1" stroke-miterlimit="10" d="M50.6,175.2c0.1,0.5,0.2,1.1,0.5,1.6c0.6,1.4,2.1,2.2,3.5,2.9
	c0.2,0.1,0.4,0.2,0.6,0.2c0.4,0,0.8-0.2,1.2-0.4c1.3-0.7,3.1-0.2,4.2-1.2c1.2-1.1,0.5-3.4-0.5-4.7c-0.7-0.9-1.8-1.3-2.7-2
	c-1-0.9-1.5-2.1-2.5-2.9c-1.3-0.9-3.3-0.7-4.3,0.6c-0.6,0.8-1.6,1.3-1.8,2.3C48.4,173,50.3,173.9,50.6,175.2z"/>
<path fill="none" stroke="#E1E1E1" stroke-miterlimit="10" d="M-5.7,176.6c-0.1,0.5,0,1,0.3,1.4c0.9,1.6,2.9,2.2,4.7,2.6
	c7,1.6,11.3,2.4,18.5,2.1c0.8,0,5.2-0.6,5.5-1.3c0.8-2.1,1.6-4.2,2.7-6.4c1.3-2.6-5.5-1.6-8.4-1.4c-0.7,0-1.8-0.4-1.3-1
	c0.3-0.3,0.8-0.2,1.1-0.5c0.4-0.4-0.2-1-0.7-1.3c-2-1.1-3.9-2.2-5.9-3.3c-0.9-0.5-1.9-1-2.9-1.1c-2.3-0.2-4.3,1.6-5.8,3.3
	c-1.5,1.8-3,3.8-5.1,4.7C-4,175-5.5,175.4-5.7,176.6z"/>
<path fill="none" stroke="#E1E1E1" stroke-miterlimit="10" d="M13.2,161.5c0.8-0.2,1.7-0.6,2.3-1.1c0.5-0.4,0.9-1,1.3-1.6
	c1.2-1.6,3.9-3.2,3.3-5.1c-1.1-3.3-7-0.8-10.2-2.1c-1.4-0.6-2.6-1.5-4-2C4.3,149,2.5,149,0.8,149c-0.4,0-0.8,0-1.2,0.2
	c-0.9,0.4-1.1,1.8-0.7,2.7c0.5,0.9,1.3,1.6,2.1,2.3c1.9,1.7,3.4,4,4.3,6.4c0.1,0.3,0.2,0.6,0.4,0.8c0.3,0.3,0.7,0.4,1.1,0.5
	C8.9,162.3,11.1,162.1,13.2,161.5z"/>
<path fill="none" stroke="#E1E1E1" stroke-miterlimit="10" d="M139.5,202.4c-1.4,0.2-3.1,0.9-3.1,2.3c0,0.8,0.7,1.4,1.3,1.9
	c1.5,1.3,3.4,2.7,3.4,4.8c0,0.9-0.3,1.9,0.2,2.6c0.3,0.4,0.8,0.6,1.2,0.9c1.1,0.9,1,2.9-0.1,3.7c-0.5,0.3-1.1,0.5-1.6,0.8
	c-0.8,0.5-1.2,1.4-1.7,2.2c-0.9,1.8-3.1,3.4-2.8,5.4c0.2,1.7,3.6,0.8,4.5,2.2c0.5,0.7-0.7,1.9-0.2,2.5c0.9,1.1,2.9,0.9,4.3,0.3
	c1.4-0.5,2.5-2,2.1-3.5c-0.2-0.7-0.8-1.4-0.7-2.1c0.1-0.7,0.6-1.2,1.1-1.7c0.9-1.3,1-3,1-4.5c0-0.9,0-1.8-0.4-2.5s-1.3-0.7-2.1-1
	c-1.8-0.8-0.2-4,0.6-5.8c0.8-1.8,1.9-3.6,2-5.6c0-0.9-0.1-1.8-0.8-2.3c-0.4-0.3-1-0.4-1.5-0.5C143.9,202.2,141.7,202.2,139.5,202.4z
	"/>
<path fill="none" stroke="#E1E1E1" stroke-miterlimit="10" d="M190,136.8c0.7,1,1.5,1.8,1.7,3c0.1,0.5,0.1,1,0.3,1.5
	c0.3,0.5,0.8,0.8,1.3,1c1.5,0.5,3.2,0.2,4.5-0.7c1.2-1,2-2.6,1.8-4.1c-0.1-0.7-0.3-1.3-0.3-2c-0.1-1.3,0.4-2.5,0.5-3.8
	s-0.3-2.8-1.5-3.3c-0.4-0.2-0.8-0.2-1.2-0.5c-1-0.6-0.8-2.3-1.6-3.1c-0.6-0.7-1.8-0.7-2.6-0.3s-1.5,1.2-2,1.9
	c-0.5,0.8-1,1.7-1.4,2.6c-0.2,0.4-0.3,0.9-0.6,1.2c-1.1,1.6-3.7,2.2-3.9,4.2c0,0.4,0.1,0.8,0.3,1c0.3,0.3,0.8,0.3,1.2,0.4
	c0.8,0,1.7,0.1,2.5,0.1c0.2,0,0.5,0,0.7,0.2c0.2,0.1,0.3,0.4,0.4,0.6C190.4,137.4,189.5,136.1,190,136.8z"/>
<path fill="none" stroke="#E1E1E1" stroke-miterlimit="10" d="M-12.5,128.5c0.6,2.5,2.2,4.6,4.4,5.8c2.1,1.1,4.6,1.4,7,1.7
	c19.1,2.5,37.6,11.9,56.6,9.4c5.7-0.8,11.3-2.6,17-3.3c2.8-0.4,4.8,1.3,7,3.1c4.9,4,42.2-16.6,64.4-20.9c2.4-0.5,5.2-0.7,7.2,0.8
	c2.1,1.6,2.4,4.5,3.5,6.9c1,2.4,4,4.6,6.1,3c0.7-0.5,1-1.3,1.6-1.9c1.6-1.9,4.3-2.2,6.8-2.8c13.1-2.9,21.7-14.8,31.8-23.6
	c8.6-7.5,22.3-7.5,29.8-16c2.3-2.6,3.2-7.4,1.5-10.4c-0.5-0.8-2.2-0.2-2.7-1c-1.3-2.3,3.7-5.6,5.8-4.1c2.6,1.8,0.1,7.4,2.8,9
	c1.9,1.1,3.8-3.5,6-3c2.7,0.7-3,4.2-3.6,7c-0.7,3.4,2.7,4.3,3.9,7.6c3.8,10.4,20.2-2.1,29.7-7.9c8.8-5.3,17.7-10.7,25.2-17.9
	c1.9-1.8,3.7-3.7,6-4.8c1.5-0.7,3.5-1.5,3.6-3.2c0-0.5-0.1-1-0.1-1.6c0.2-2.2,3.3-2.3,5.4-2.7c1.6-0.3,3-1.1,4.4-1.9
	c3.9-2.3,7.8-4.5,11.6-6.8c5.2-3,10.5-6.1,15.7-9.1c9.3-5.4,18.6-10.8,27.9-16.2"/>
<path fill="none" stroke="#E1E1E1" stroke-miterlimit="10" d="M369.1,58c-17.6,7.2-33.9,17.9-47.5,31.2c-4.3,4.1-8.5,8.7-14.1,10.6
	c-4.4,1.5-9.6,1.3-13.2,4.4c-0.9,0.7-1.6,1.7-1.8,2.8c-0.2,1.1,0.1,2.2,0.6,3.3c0.6,1.4,1.3,2.8,2.1,4.1c0.7,1.1,1.7,2.2,3,2.2
	c0.7,0,1.3-0.3,1.9-0.7c6.7-4.3,9.5-17.7,17.1-15.3c5.3,1.7,8.7,3.3,15.1,3.4c2.2,0-3.2,3-5.2,4c-0.6,0.3,0,1.2,0.6,1.4
	c0.6,0.2,1.4,0.2,1.7,0.7c0.4,0.6-0.1,1.3-0.5,1.9c-2.3,2.9-4.9,5.6-6.4,8.9c-3.7,8.1-0.4,17.7-2.6,26.4c-0.5,1.9-2.2,4.9-1.8,6.8
	c0.4,2,3.6,0.7,5.4,1.7c2.6,1.4,0.1,5.9,0.1,8.9c0,1.3,0,2.6-0.3,3.8c-0.4,1.4-1.1,2.6-1.9,3.7c-3.1,4.8-6.2,9.6-9.4,14.4
	c-0.4,0.6-0.9,1.3-0.9,2.1c0,0.9,0.5,1.8,0.3,2.7c-0.2,0.7-0.9,1.3-1.3,1.9c-1.1,1.6-0.5,3.8,0.8,5.1c1.3,1.3,3.3,1.8,5.2,1.9
	c1.7,0.1,3.2,0.9,4.6,1.8c5.7,3.4,11.5,7,15.8,12c2.4,2.8,4.3,6.1,7.2,8.4c2.2,1.7,4.8,2.8,7.4,3.7c3.4,1.2,7.1,2.2,9.6,4.8
	c1.5,1.5,2.5,3.5,4.1,5.1c1.5,1.5,4,2.6,5.9,1.5"/>
<path fill="none" stroke="#E1E1E1" stroke-miterlimit="10" d="M369,90.4c-1.5-0.9-3.3,0.7-4.3,2.2c-2,3.2-3.9,6.5-5.4,9.9
	c-0.4,0.9-0.8,1.8-1.5,2.4c-0.7,0.6-1.7,0.9-2.6,1.3c-7.2,3.1-10.1,11.6-11.3,19.3c-0.1,0.8-0.2,1.5,0,2.3c0.3,0.9,1,1.5,1.7,2.2
	c2.5,2.5,5.6,6.3,4.1,9.5c-2.1,4.4-6.8,5.2-10.7,8.1c-1.4,1.1-3,2.7-3.8,4.3s-1.2,3.5-0.3,5c0.8,1.2,1.2,2.1,2.4,3.5
	c1.1,1.2,3.4,1.8,2.4,3.1s-2.4,2.1-3.7,2.9c-4.8,3.1-8.7,7.5-12.5,11.9c-1.6,1.8-3.1,3.6-4.2,5.7c-1.3,2.5-3.7,6.3-1.6,8.3
	c4.4,4.3,11.9,3.2,16.8,7c4.9,3.8,8.9,8.5,12.5,13.5c2.2,3,4.4,6.1,7,8.7c3.2,3.2,9,7.8,13.3,9.4c1.1,0.4,1.3,0.3,2.3,0
	c1.1-0.3,1.1-3.2,0.7-4.2"/>
<path fill="none" stroke="#E1E1E1" stroke-miterlimit="10" d="M313.5,131.5c0.1,0.1,0.2,0,0.2,0c0.8,0,1.7-0.3,2.2-0.9
	c0.5-0.6,0.8-1.4,1.3-2.1c0.3-0.5,0.8-0.8,0.9-1.3c0.6-2.1,2.2-5.1,1.8-7.2c-0.4-1.8-2.8,0.7-3.9,2.2s-2.2,3.2-2.7,5
	C313,128.5,312.6,130.7,313.5,131.5z"/>
<path fill="none" stroke="#E1E1E1" stroke-miterlimit="10" d="M370.3,139.7c-3.6,2-6.7,5-8.8,8.5c-1.8,2.9-0.1,6.5-1.2,9.7
	c-1.5,4.6-9.2,3.9-11.5,8.2c-0.7,1.3-1.1,2.8-1.9,4c-2.3,3.5-7.1,4.6-9.3,8.1c-0.8,1.3-1.3,3-2.6,3.8c-0.6,0.4-1.4,0.6-2,1
	c-1.7,1.2-1.6,3.7-0.6,5.5s2.6,3.1,3.7,4.8c0.6,0.9,1.1,1.9,1.9,2.7c3.1,3.2,9.7,2.2,11.4,6.3c0.4,0.9,0.4,1.8,0.6,2.7
	c0.8,4.3,4.1,7.5,7.1,10.6c1.1,1.1,2.3,2.3,3,3.7c0.5,0.9,0.8,1.9,1.2,2.8c1.5,3.3,4.2,6.1,7.6,7.6"/>
<path fill="none" stroke="#E1E1E1" stroke-miterlimit="10" d="M370.1,185.7c-1-0.8-2.5-0.6-3.6-0.1c-1.2,0.5-2.2,1.3-3.5,1.5
	c-0.8,0.2-1.6,0.1-2.4,0.3c-1.6,0.4-2.9,1.7-3.9,3.1c-0.8,1-1.6,2.2-1.7,3.5c-0.3,2.9,2.4,5.2,2.7,8.1c0.1,1-0.1,2,0.2,2.9
	c0.8,2.9,5,3.9,5.6,6.8c0.1,0.7,0,1.4,0.3,2.1c0.2,0.5,0.6,0.9,1.1,1.3c2.5,1.9,5.9,2.6,8.9,1.7"/>
<path fill="none" stroke="#E1E1E1" stroke-miterlimit="10" d="M266.5,215.2c1.3,0.8,3.1,0.8,4.4,0s3.1-2.8,2.1-3.9
	c-1.6-1.7-4.7,0.6-6.4,2.2c-0.3,0.3-0.7,0.8-0.5,1.2C266.1,214.9,266.3,215.1,266.5,215.2z"/>
<path fill="none" stroke="#E1E1E1" stroke-miterlimit="10" d="M177.1,361.7c-1-0.6,1.2-1.9,2.4-1.8c1.2,0.1,2.7,0.2,3.2-0.8
	c0.2-0.5,0.2-1,0.3-1.5c0.6-1.8,3.6-1.5,4.6-3.1c0.4-0.6,0.4-1.5,0.9-2.1c0.4-0.5,1-0.6,1.6-0.8c4.5-1.1,9.4-1.8,12.6-5.1
	c0.7-0.7,1.3-1.6,2.2-1.9c0.5-0.2,1-0.2,1.5-0.4c1.3-0.5,2-2.1,1.9-3.5c-0.1-1.4-2.1-2.8-1.4-4c0.8-1.4,3.1-0.7,4.6-0.9
	c1.6-0.2,3.3-0.1,4.4,1.1c1.4,1.6-0.7,4.1,0.1,6.2c0.3,0.7,1.6-0.2,2.2,0.3c1.1,0.9-2,2.5-1.8,3.9c0.1,1.1,2.8,0.4,2.9,1.4
	c0.4,3.5-4.9,5.3-6.2,8.6c-0.3,0.8-0.6,1.6-0.6,2.4c-0.1,0.8,0.1,1.6,0.3,2.3"/>
<path fill="none" stroke="#E1E1E1" stroke-miterlimit="10" d="M196.7,281.2c0.8-0.3,1.5-0.6,2.2-1c0.2-0.1,0.5-0.3,0.6-0.5
	c0.2-0.3,0.2-0.7,0.3-1.1c0.1-0.9,0.7-2,0.2-2.7c-0.8-1-2.7-0.4-3.5,0.5c-0.3,0.3-0.5,0.8-0.8,1.2c-0.7,1-2.3,1.7-1.9,2.9
	C194,281.6,195.6,281.6,196.7,281.2z"/>
<path fill="none" stroke="#E1E1E1" stroke-miterlimit="10" d="M248.3,363c0.1-1.1,0.4-2.3,0.9-3.2c1.3-2.7,3.4-5.3,2.9-8.3
	c-0.3-1.4-1.1-2.6-2.3-3.3c-1.7-1-3.9-1-5.4-2.2c-2.2-1.8-1.7-5.5,0-7.8c1.7-2.3,4.2-3.9,6-6.1s2.7-5.6,0.9-7.8
	c-1.6-1.9-4.5-2-6.8-3c-4.3-1.8-7.9-8.9-4.2-11.7c1.3-1,4.2,0.5,4.8-1.1c0.7-1.8-2-4-0.4-5c1.5-0.9,3.2,0.7,4.8,1.5
	c4.2,2,9.4,2.7,13.5,0.7c2.1-1,3-3.5,5.3-3.2s4.6,1.5,6.9,1.1c1.6-0.2,3-1.1,4.4-1.9c2.2-1.4,4.4-2.7,6.6-4.1
	c3.1-1.9,6.6-4.5,6.7-8.2c0.1-1.7-0.7-3.4-1.5-5c-2.6-5.2-7.2-9.2-9.3-14.6c-0.6-1.6,0.9-4.3,1.6-5.8c1.6-3.6,2.6-7.5,2.8-11.5
	c0.1-2,0.4-4.6,2.4-5c0.9-0.2,1.9,0.2,2.9,0.3c1,0.1,2.2-0.2,2.4-1.1c0.4-1.6-2.3-2.1-3-3.6c-0.6-1.4,0.8-3.1,0.2-4.5
	c-0.8-2-4.1-1.2-5.4-2.9c-0.3-0.4-0.5-1-0.8-1.5c-0.9-1.5-2.9-1.9-4.6-2.5s-4.6-2.6-3.2-3.7c1.6-1.2,4.1,0.3,6.1,0.5
	c0.4,0,0.8,0.1,1.2-0.1c1-0.3,1.4-1.6,1.3-2.7c-0.1-1.1-0.4-2.2,0-3.2c0.3-0.8,0.8-1.4,1.3-2c2.1-2.7,0.4-7.1,2.7-9.7
	c0.7-0.8,2.1,0.4,2.9,1.2c2.1,2,3.4,4.7,4.8,7.3c1.4,2.6,2.9,5.2,5.4,6.8c2.4,1.7,5.8-1.3,8.2,0.3c1.7,1.1-0.9,4.6,0.9,5.6
	c0.5,0.3,1.1,0.4,1.7,0.6c1,0.5,1.7,1.5,2.5,2.2c0.9,0.8,1.9,1.4,3,2c1.3,0.7,2.6,1.4,3.9,2.1c4.1,2.2,8.3,4.5,12.8,5.9
	c2.7,0.9,5.6,1.4,8.2,2.5c3.2,1.4,6,3.6,8.9,5.4c3,1.8,7.6,0.3,9.8,2.9c1.7,1.9,0,5.2,1.7,7.1c1.7,1.9,4.4,2.9,6.9,2.5"/>
<path fill="none" stroke="#E1E1E1" stroke-miterlimit="10" d="M269.1,362.4c-2.1,2.3-4.5,4.4-7.6,4.7c-1.7,0.2-3.4-0.3-5.1-0.1
	c-2,0.2-4.1,1.4-6,0.6c-1.8-0.7-2.3-2.6-2.2-4.6"/>
<path fill="none" stroke="#E1E1E1" stroke-miterlimit="10" d="M285.1,361.6c-0.2-0.5-0.5-0.9-0.8-1.3c-1.2-1.6-2.4-3.3-3.6-4.9
	c-1.5-2-4-4.2-6.1-2.8c-1.5,1-1.3,3.2-1.9,4.9c-0.4,1.2-1.2,2.1-2,3.1c-0.5,0.6-1,1.2-1.5,1.8"/>
<path fill="none" stroke="#E1E1E1" stroke-miterlimit="10" d="M301.6,362.2c-0.4-4,3.5-7.6,4.2-11.8c0.3-1.5,0.9-2.7,2-3.8
	c1.6-1.6-1.9-3.8-2.4-6c-0.6-2.5-1.2-4.8-1.2-7.4c0.1-2.9,3.1-4.7,5.7-6.1c3.2-1.7,6.3-3.7,8.4-6.6s2.9-7,1.3-10.2
	c-0.3-0.5-0.6-1.1-0.5-1.7c0.1-0.7,0.8-1.2,1.5-1.5c3.4-1.8,7.8-3.5,8-7.3c0.1-1.5-0.5-2.9-0.9-4.3c-0.9-3.8,3.6-7.3,2.7-11.1
	c-0.9-3.7-9.5,1.2-11-2.3c-0.9-1.9,0.2-4.8-1.7-5.7c-0.6-0.3-1.3-0.4-1.6-0.9c-0.4-0.5-0.3-1.2-0.2-1.9c0.2-2.9-0.9-6-3-8
	c-1.1-1.1-2.5-2-2.7-3.5c-0.2-1-0.6-1.5-1.3-2.3c-0.5-0.6,0.6-1.5,0.6-2.2c0-1.8-1-3.4-1.6-5c-0.6-1.7-0.9-4.6,0.8-4.9
	c3.8-0.7,6.5,4.2,9,7.2c0.6,0.7,1.2,1.5,1.6,2.3c0.4,0.9,0.6,2,0.9,3c1.2,4.1,4.8,7.5,9,8.3c1.9,0.4,3.9,0.2,5.6-0.7
	c1.7-1,1.2-3.5,2.6-4.8c2.9-2.5,7.4-1.3,11.1-1.8c3.6-0.5,7.8,0.5,10,3.4c1.8,2.3,4.6,3.4,7.4,4.2c2,0.5,4,1,5.9,1.5"/>
<path fill="none" stroke="#E1E1E1" stroke-miterlimit="10" d="M369.3,274.3c-6-1.1-15.6-5.7-18.3-0.2c-1,1.9-1.5,3.8-1.7,6
	c-0.3,2.6,2.9,4.5,3.2,7.1c0.2,1.9-1.2,3.5-1.9,5.2c-0.8,1.7,1.1,2.9,1.2,4.8c0.3,4.5-9.1,4.6-8.6,9.1c0.2,1.8,1.2,3.3,1.7,5
	c0.5,1.7-1.8,3-1.3,4.7c0.4,1.5,2.8,1.3,3.1,2.7c0.4,1.5,0,3-0.3,4.5c-1,4.2-2,8.4-3,12.5c-0.5,2-1,4.1-1.5,6.1
	c-0.4,1.6-0.8,3.2-1.2,4.8c-1.2,4.6-2.8,9.3-5.8,13c-0.7,0.9-1.6,1.8-2.5,2.6"/>
<path fill="none" stroke="#E1E1E1" stroke-miterlimit="10" d="M368.6,304.6c-3.1-0.2-6.3,1.4-8,4.1c-1.8,2.8-1.9,6.3-1.9,9.7
	c0,1.7,0,3.4,0.8,4.9c0.3,0.6,0.8,1.2,1,1.8c0.9,2.8-2.9,5-3.3,7.9c-0.1,0.7,0,1.4-0.3,2c-0.5,1.3-2.2,1.7-2.8,2.9
	c-0.3,0.6-0.3,1.3-0.4,2c-0.2,2.9-2.1,5.5-4.6,6.8c-0.9,0.4-1.8,0.7-2.6,1.2c-2.5,1.3-4,3.8-5.4,6.2c-0.6,0.9-1.4,1.8-1.7,2.8
	c-0.6,2-1.3,3.8-2.1,5.5"/>
<path fill="none" stroke="#E1E1E1" stroke-miterlimit="10" d="M367.6,337.6c-0.2-0.8-1.5-0.6-2,0c-2.4,2.3-2.1,6.1-2.2,9.4
	c-0.1,3.3-1.7,7.3-4.9,7.6c-0.6,0-1.3-0.1-1.8,0.2c-1.1,0.5-1.3,2-2.2,2.8c-0.8,0.6-1.9,0.6-2.8,0.9c-1.6,0.6-2.4,2.3-2.7,4.1"/>
<path fill="none" stroke="#E1E1E1" stroke-miterlimit="10" d="M369.7-11c0,1.4-1.7,2.1-3.1,2.5c-9.8,2.7-19.2,6.7-28.5,10.8
	c-4.1,1.8-8.1,3.6-11.9,6.1c-3,1.9-7.5,7.7-9.4,4.8c-0.9-1.4,0.9-3.4,0-4.9s-3.5-0.5-4.5-2c-1-1.5-0.2-3.6-1.8-4.3s-4.4,1.7-5.3,0.1
	c-1.2-2.3,0.6-5.2-1.7-6.3s-5-0.6-7.5-0.1c-6,1.2-12.1,2.5-17.4,5.7c-3.9,2.4-7.2,5.7-10.4,9c-1.1,1.1-2.2,2.2-3.1,3.4
	c-1.5,1.8-2.7,3.8-3.9,5.8c-1.8,3-3.6,6.5-2.5,9.9c0.2,0.5,0.4,0.9,0.6,1.4c0.4,0.8,0.3,1.9,1.1,2.3c3.7,2,7.7-4.8,11.9-4.2
	c1.4,0.2,1.3,2.7,0.7,4.1c-0.2,0.5-0.6,1-0.7,1.6c-0.5,1.9,1.1,4,0.2,5.8c-0.4,0.9-1.4,2-0.7,2.7c0.3,0.3,0.9,0.2,1.2,0.5
	c0.6,0.5,0.1,1.5-0.4,2.1c-1.5,1.9-4.9,2.9-5,5.3c0,1.9,3.6,1.3,5.3,0.4s2.9-2.4,4.2-3.8c3.3-3.6,7.2-6.6,11.4-8.8
	c1.6-0.9,3.4-1.7,4.5-3.1c0.5-0.7,0.9-1.5,1.3-2.4c1-2.4,2-4.8,3.6-6.8c1.6-2,4.5-5,6.6-3.5c1.5,1-1.3,3.1-2.8,4.1s-3.2,4.6-1.4,4.3
	c2.9-0.5,5.3-1.4,7.9-2.9c1.1-0.7,2.2-2.9,3-1.9c1.3,1.7-2.3,3.8-1.9,5.9c0.3,1.5,1.9,2.3,3.4,2.5c1.6,0.2,3.2-0.2,4.5-1.1
	c1-0.7,1.8-1.6,2.5-2.5c2.2-2.6,3.2-7.8,6.6-7.9c2.2-0.1,1.4,3.8,2.4,5.7c0.8,1.5,3.3-0.7,4.7-1.8c5.8-4.5,15.9-14.7,17.4-13.4
	c1.5,1.4-1.3,9.4,2,11c1.1,0.5,3.5,0.8,4.7,0.7c3.2-0.4,5.9-3.2,8.6-4.9c2.5-1.5,4.9-3,7.4-4.5"/>
<path fill="none" stroke="#E1E1E1" stroke-miterlimit="10" d="M307.5-19.6C293.7-14,279.8-8.4,266-2.9c-3.1,1.3-5.1,3.8-5.3,7.2
	c-0.4,8-10.3,12.3-16.7,17.1c-3.1,2.4-6.5,4.5-9.1,7.4c-4.3,4.9-10.4,14.4-5.1,18.2c3.6,2.5,13.3,1.5,10.3,4.8
	c-2.8,3.1-1.5,7.9-0.2,8.7c1.7,1.1-18.7,6.7-25.2,13.9c-1.8,1.9-3.2,4.1-4.9,6.1c-1.8,2.1-3.8,4-5.7,6c-5.2,5.1-10.5,10.2-15.7,15.3
	c-4.9,4.8-10.6,15.1-16.7,11.9c-2.3-1.2-2.3-5.6-5-5.8c-9.5-0.7-18.2,5.7-27.3,8.5c-34.3,10.6-69.7,21.4-105.4,17.5
	c-9.8-1.1-20.4-3.8-26.2-11.8c-1.3-1.8-2.4-3.9-4.4-4.9c-1.5-0.8-3.4-0.7-5.1-0.7c-5.5,0.2-10.9,0.4-16.4,0.6"/>
<path fill="none" stroke="#E1E1E1" stroke-miterlimit="10" d="M-15,105.8c12,0.6,24,1.6,35.9,3c5.6,0.7,11.4,1.5,16.2,4.6
	c3,1.9,6.6,1.2,9.6,3.1c2.9,1.9,4.7,4.5,8.1,4.3c42.8-2.9,86.8-10,123.1-32.8c2.1-1.3,4.3-2.7,6.7-2.9c1.5-0.1,3.1,0.2,4.2-0.8
	c1-0.9,1-2.4,1.5-3.6c1.2-3,5.1-3.7,8.3-4.4c3.2-0.7,7-2.6,6.7-5.9c-0.2-2.2-2.3-3.7-3.6-5.5c-2.5-3.3,1.5-7.3,0.7-11.4
	c-1-5.2-10.2-3.5-14.4-6.6c-2.8-2.1-0.1-6.6,1-9.9c1.2-3.7-0.1-8.3,1-12c2.6-8.2,20.8-9.2,20.2-14c-0.5-3.9-11.1-4.3-11.5-0.4
	c-0.3,2.3,0.5,3.8-1.8,4.1s-5-0.1-7.3-0.3s-3.1,2-4.2,4c-0.4,0.8-2.1-0.3-2.6,0.4c-1.6,2.1-1.4,5.3-3.6,6.8s-5.2,4.2-7.5,2.8
	c-3.9-2.3-2.4-8.6-3.6-12.9c-0.6-2.2-3.5-5.8-4.4-3.7c-1.1,2.2,2.5,5.5,0.9,7.3c-1.3,1.4-2.5,2.7-2,4.6c0.5,1.9,1.3,4.1,0,5.5
	c-0.9,1.1-2.6,1.1-4,1.1c-7.3,0-14.6,1.3-21.5,3.8c-0.9,0.3-1.8,0.6-2.7,0.4c-0.6-0.1-0.8-1-1.4-1.1c-3.4-0.4-6.6,4.5-9.3,2.6
	c-0.8-0.5,0.3-1.9-0.3-2.6c-2.4-3.2-7.5-3-11.5-2.8c-1.3,0.1-2.6,0.6-3.8,1.1c-3.5,1.4-7.1,2.9-10.6,4.3c-9.1,3.7-18.4,7.4-28.2,8
	c-3.5,0.2-7.1,0-10.6-0.6c-4.8-0.8-9.7-2.6-12.9-6.3c-1.3-1.5-2.3-3.4-4-4.3c-1-0.6-2.1-0.8-3.2-1.3c-2.5-1.2-2.1-4.6-3.6-6.9
	c-1.3-1.9-4.9,1.1-6.7-0.3c-4.1-3.1-6.4-7.8-11.4-8.6s-16.1,1-14.7-3.9c0.8-2.7,8.2-0.4,7.8-3.2C9.1,5,2.3,7.8-1.4,7.9
	c-3.7,0-7.9-0.7-10.1-3.8c-1.2-1.6-1.6-3.8-1.1-5.7"/>
<path fill="none" stroke="#E1E1E1" stroke-miterlimit="10" d="M104.1,42c-1-0.9-2.4-1.2-3.6-0.6c-1,0.4-2.5,1.5-2,2.6
	c0.4,0.9,2,0.6,2.7,1.3c0.6,0.5,1.4,1.8,1.9,1.1c0.7-1,1.6-1.8,1.7-3C104.8,42.8,104.5,42.3,104.1,42z"/>
<path fill="none" stroke="#E1E1E1" stroke-miterlimit="10" d="M113.9,40.4c0.7,1,2-1.4,2.8-2.3c0.3-0.3,0.3-0.9,0-1.2
	c-0.6-0.7-2.2-0.1-2.5,0.8C113.9,38.5,113.4,39.6,113.9,40.4z"/>
<path fill="none" stroke="#E1E1E1" stroke-miterlimit="10" d="M162,40.8c-0.4-1-1.2-1.8-2.1-2.4c-0.2-0.2-0.5-0.3-0.8-0.3
	c-0.5-0.1-1,0.2-1.5,0.5c-1.4,0.9-2.8,1.9-4.1,2.8c-0.4,0.3-0.8,0.6-1.1,1c-0.7,1-0.9,3,0.2,3.5c0.7,0.3,1.5-0.4,2.2-0.4
	c1.3,0.1,2.4,0.9,3.6,1.5c1.7,0.9,4.4,2.5,5.7,1c0.8-0.9,0.7-2.7,0-3.7C163.4,43.1,162.6,42.1,162,40.8z"/>
<path fill="none" stroke="#E1E1E1" stroke-miterlimit="10" d="M133,79.1c0.5-0.9,0.5-2.2,0-3c-1-1.5-4.6-1.7-4.1-3.4
	c0.3-1.3,1-2.4,0-3.2c-1-0.8-2.5-0.8-3.7-0.6c-1.6,0.2-3.1,0.4-4.6,0.8c-1.2,0.3-3.5,1.4-2.5,2.2c1.9,1.6,7.6,0.8,6.5,3
	c-1.8,3.3-20.8,0.5-24.3,3.1c-0.7,0.5,1.6,1.4,1.3,2.3c-0.7,1.9-3.9,1.5-5.1,3.2c-0.4,0.6-0.8,1.5-0.5,2.2c0.2,0.5,0.6,0.8,1,1.1
	c2.8,2,6.5,2.2,9.9,2.2c3.2,0,6.4-0.1,9.3-1.4c3.7-1.7,6.4-5.2,10.3-6.4C128.6,80.3,131.9,81.1,133,79.1z"/>
<path fill="none" stroke="#E1E1E1" stroke-miterlimit="10" d="M134.6-18.9c-2.4,1-4.3,3.2-5,5.6c-0.3,0.9-0.5,2-1.1,2.7
	c-0.8,0.8-2,1.1-2.8,1.9c-2.4,2.4,1.2,7.6-1.6,9.6c-0.4,0.2-0.8,0.4-1.2,0.6c-0.9,0.5-1.4,1.6-1.4,2.6c0,2.3,2.6,3.8,3,6.1
	c0.5,2.3-1.4,4.4-3.1,6c-3,2.8-6.1,5.7-9.8,7.6c-4.5,2.3-9.9,2.9-14.8,1.7c-0.9-0.2-1.9-0.5-2.9-0.4c-1.2,0.1-2.3,0.8-3.3,1.5
	c-4.4,2.9-9.1,5.4-14,7.3c-1.3,0.5-2.8,1-4,0.4c-0.7-0.3-1.2-0.8-1.7-1.3c-1.7-1.7-6-3-5.1-5.2c1.1-2.7,8.6-0.1,8.1-3
	c-0.9-5.1-10-2.5-15.1-2.9c-1.2-0.1-2.6-0.1-3.6,0.7c-0.3,0.3-0.5,0.6-0.9,0.7c-0.6,0.3-1.3-0.1-1.8-0.4c-3-1.7-6.9-1.1-9.9-2.8
	c-4.1-2.4-8.3-1.9-12.4-4.3c-1.4-0.8-1-3.1-0.7-4.7c0.7-4,6.3-6.6,5.8-10.6c-0.3-2.7-4.4-3.3-7.1-3.5C27.6-3,26.8-3,26-3.3
	c-2.1-0.7-2.8-3.3-3-5.6c-0.2-2.2,0.2-5.7-2-6.2c-2.2-0.4-4.3,0.9-6.6,0.9c-0.6,0-1.1-0.1-1.6-0.4c-1.2-1-0.1-2.9,1.1-4
	c1.6-1.5,3.3-3,4.9-4.5"/>
<path fill="none" stroke="#E1E1E1" stroke-miterlimit="10" d="M44.2-19.5c-1.7,1.2-3.3,2.5-4.2,4.4c-0.9,1.9-0.7,4.3,0.8,5.7
	c1.4,1.3,3.6,1.4,4.8,2.9c0.9,1.1,1,2.9,2.2,3.8c1.8,1.3,4.7-0.4,6.4,1c1.1,0.9,2.1,1.4,3,2.4c1.8,2-5.6,1.7-6.6,4.2
	c-0.7,1.9,1.3,3.8,3.3,4c2,0.2,3.9-0.8,5.8-1.4s4.3-0.7,5.7,0.8c0.5,0.5,0.8,1.1,1.3,1.5c0.9,0.7,2.3,0.5,3.4,0.8
	c1.1,0.4,1.9,1.3,2.9,1.7c1.3,0.5,2.8,0,4.1-0.3c6.7-1.5,14.3,1.1,20.3-2.2c5-2.8,7.2-8.8,8.8-14.3c1.6-5.5,8.8-9.4,7.8-15
	c-0.3-1.7-3.3-1.2-4.9-2"/>
<path fill="none" stroke="#E1E1E1" stroke-miterlimit="10" d="M48.6,7.7c-1.4-1.5-5.3-0.9-5,1.1c0.3,1.9,3.9,1.5,5.1-0.1
	c0.1-0.1,0.2-0.3,0.2-0.4C48.9,8,48.8,7.8,48.6,7.7z"/>
<path fill="none" stroke="#E1E1E1" stroke-miterlimit="10" d="M85.6,2.4c0,0.2-0.1,0.4,0,0.6c0.1,0.2,0.4,0.4,0.6,0.4
	c1.4,0.4,3.7-0.4,3.5-1.9c-0.1-0.9-1.5-1.1-2.4-0.9C86.5,0.8,85.8,1.5,85.6,2.4z"/>
<path fill="none" stroke="#E1E1E1" stroke-miterlimit="10" d="M-14,43c0.6,2.3,3.8,2.8,6,1.9S-4.2,42-2,41c1.3-0.6,2.9-0.9,3.8-2
	c0.5-0.7,0.9-1.6,1.7-1.8c1-0.3,1.8,0.8,2.6,1.5c2.7,2.6,6-0.4,8.8-2.9c1.1-1,2.9-0.2,4.3,0.3c2.8,1.1,3.9,4.6,6.5,6
	c3.7,2,11.5-3.7,12.4,0.4c0.3,1.3-3.2,1.7-2.8,3.1c0.3,1.1,2.6-0.5,3.3,0.3c0.9,0.9,0.9,2.4,2.1,2.9c1.2,0.5,2.5,0.4,3.8,0.4
	c0.5,0,1.1,0,1.5,0.4c0.6,0.4,0.7,1.2,0.8,1.9c0.9,4.6,5,7.7,8.3,11c3.3,3.3,3.8,7.1,3.8,11.4c0,2.7,20.7-4.8,23.2-2.2
	c1.9,2.1-4,5.6-2,7.7c1.8,2,5.8-0.9,7.5,1.2c2.8,3.4-1.6,8.8,0.2,12.7c0.6,1.3,1.7,2.2,2.9,2.9c3.4,2.1,7.5,3.1,11.4,2.8
	c2.8-0.2,7.5-2.1,8.1,0.6c0.2,0.8-12.9,4.8-19.8,4.9c-7.3,0.2-14.1-1.4-20.4-3.6c-1.4-0.5-3-0.8-4.2-1.6c-0.9-0.5-1.6-1.2-2.5-1.8
	c-2.8-1.7-6.3-1.3-9.5-1.1c-6.6,0.5-13.3,0.5-19.9-0.1c-3.3-0.3-6.6-0.7-10-1.1c-15.3-1.6-30.8-1.1-46.1-0.6"/>
<path fill="none" stroke="#E1E1E1" stroke-miterlimit="10" d="M-15,81.9c4.4-0.5,9.1-1.9,11.9-5.4c1.2-1.6,2.6-5.4,4.2-4.2
	c0.8,0.7,1,1.9,2.1,2.2s2.1,0,3.2-0.2C6.9,74.2,8,74.6,8.1,74c0.3-1.9-3.5-2.1-4.3-3.9c-0.8-1.8,0.8-3.1,2-4.7c0.8-1.1-0.5-2.7-1-4
	c-0.1-0.4-0.3-0.7-0.6-0.9c-0.5-0.4-1.2-0.2-1.8-0.2c-2.4,0-3.8-2.9-6.1-3.5c-2.9-0.7-5.7,2.4-8.6,1.9c-0.8-0.1-1.6-0.5-2.3-0.8
	c-1.1-0.4-2.3-0.7-3.4-0.8"/>
<path fill="none" stroke="#E1E1E1" stroke-miterlimit="10" d="M260,285c0.1-0.3,0.5-0.4,0.9-0.5c1.2-0.2,2.7-0.9,3.7-0.2
	c0.6,0.5,0.4,1.5,0.6,2.2c0.2,0.8,0.4,1.5,1,2.1c0.5,0.5,1.3,0.7,1.9,1c1.9,0.8,4.9,2.7,4,4.6c-1.4,3.1-6.7,0.3-9.9-1
	c-0.9-0.4-2-0.9-2.2-1.9c-0.1-0.4,0-0.8,0.1-1.2c0.3-1.5,0.3-3-0.1-4.5C260,285.3,260,285.1,260,285z"/>
<path fill="none" stroke="#4E9BD7" stroke-miterlimit="10" d="M79.7,362.9c1.5-1.6,3-3.1,4.4-4.7c1.1-1.2,2.3-2.4,3.3-3.7
	c0.4-0.4,0.7-0.9,1.1-1.3c0.5-0.5,1.2-0.8,1.7-1.3c0.4-0.4,0.7-0.9,1-1.3c1.6-2.5,4.4-4.9,6.5-6.9"/>
<path fill="#EAEAEA" stroke="#4E9BD7" stroke-miterlimit="10" d="M97.9,343.6c0.1,0.1,0.1,0.1,0.2,0.2c1.1,0.5,2.2-0.5,3-1.4
	c1.2-1.4,2.4-2.8,3.6-4.2c1.5-1.7,3.1-3.6,5.3-4.1c0.6-0.1,1.3-0.4,1.2-1c-0.1-0.4-0.5-0.6-0.8-0.9c-0.4-0.5-0.3-1.3-0.8-1.8
	c-0.4-0.3-0.9-0.3-1.3-0.1s-0.7,0.6-1,1c-0.8,1-1.7,2.1-2.5,3.1c-0.2,0.3-0.5,0.6-0.8,0.7c-0.3,0.1-0.6,0.1-0.8,0.1
	c-1.1,0.1-1.9,1.1-2.5,2.1c-1,1.6-1.9,3.3-2.6,5C97.8,342.8,97.6,343.3,97.9,343.6z"/>
<path fill="#EAEAEA" stroke="#D6D6D6" stroke-miterlimit="10" d="M13.2,306.9c0.5-0.7,0.6-1.7,0.7-2.6c0-0.2,0-0.4-0.1-0.6
	c-0.2-0.3-0.6-0.3-1-0.3c-1.5,0.1-3.6-1-4.6,0.2c-0.8,1,0.2,2.5,0.1,3.7c0,0.3,0,0.5,0.1,0.7c0.2,0.4,0.6,0.6,1,0.9
	c0.4,0.3,0.7,0.6,1.1,0.9s1.1,0.3,1.3-0.1c0.3-0.8,0.4-1.7,1-2.3C12.9,307.3,13.1,307.1,13.2,306.9z"/>
<path fill="none" stroke="#4E9BD7" stroke-miterlimit="10" d="M110.2,331.2c0.5-0.5,1.6-0.9,2.3-0.4c0.6,0.4,1.1,1.6,1.7,1.2
	c1-0.6-0.3-2-0.4-3.1c0-0.5,1-0.3,1.3-0.8c0.6-0.9-0.2-2.2-0.3-3.2c0-0.4-0.1-0.8,0.1-1.1c0.2-0.3,0.7-0.4,1.1-0.5
	c1.4-0.3,2.6-1,3.7-1.8c0.3-0.2,0.5-0.4,0.8-0.6c0.9-0.4,1.9-0.2,2.8-0.6c0.5-0.2,0.8-0.6,1.3-0.9c0.8-0.5,1.7-0.7,2.7-0.5
	c1.4,0.3,2.5,1.4,3.9,1.3c0.9,0,1.6-0.5,2.5-0.7c1.1-0.3,2.3,0,3.5,0c1.2,0,2.5-0.3,3.1-1.2c0.3-0.4,0.4-1,0.6-1.4
	c0.7-1.4,2.3-2,3.7-2.8c1.5-0.8,2.7-2,3.8-3.3c0.4-0.5,0.7-1,1.3-1.2c1.2-0.4,2.9,1.4,3.8,0.5c1.1-1,1.3-2.8,2.6-3.6
	c1.3-0.7,2.9-1,4.3-0.6c3.5,0.9,5.9-3.7,7.9-3.9c0.4,0,0.1-0.6,0.1-1c-0.1-1.2-0.1-2.3-0.2-3.5c0-0.7,0-1.6,0.6-1.9"/>
<path fill="#EAEAEA" stroke="#D6D6D6" stroke-miterlimit="10" d="M46.9,259.7c-0.5,0.9-1.5,1.4-2.5,1.6c-0.2,0.1-0.5,0.1-0.7,0.2
	c-0.4,0.1-0.7,0.3-1,0.5c-0.5,0.3-1,0.7-0.9,1.3c0.1,0.6,0.9,0.8,1.5,0.8c0.7,0,4-0.8,4.4-1c1.3-0.6,2.6-1.2,3.1-2.6
	c0.2-0.5,0.2-1.1,0.2-1.6c0-0.3,0-0.7-0.2-1c-0.2-0.7-0.9-1.2-1.6-1.2c-0.7-0.1-1.4,0.3-1.8,0.9C47.2,258.2,47.2,259,46.9,259.7z"/>
<path fill="#EAEAEA" stroke="#D6D6D6" stroke-miterlimit="10" d="M112.6,245.3c-0.2,0.1-0.4,0-0.6,0c-0.6-0.1-1.5,0-1.8,0.5
	c-0.2,0.4-0.2,0.9-0.6,1.3c-0.4,0.3-0.8,0.5-1.2,0.8c-0.4,0.3-0.8,0.6-1.2,0.9c-0.4,0.3-0.7,0.7-0.7,1.2c0,0.4,0.2,0.7,0.5,0.9
	c0.7,0.4,1.5,0,2.2-0.5c0.7-0.5,1.5-1,2.2-0.6c0.2,0.1,0.4,0.4,0.7,0.5c0.7,0.4,1.5-0.1,2.1-0.6c1.1-1,1.9-2.2,2.5-3.5
	c0.2-0.4,0.3-0.9,0.1-1.3c-0.2-0.4-0.6-0.5-1-0.6c-0.9-0.2-1.9,0.1-2.6,0.7C112.9,245,112.8,245.2,112.6,245.3z"/>
<path fill="none" stroke="#4E9BD7" stroke-miterlimit="10" d="M170.5,287.7c0.8-0.5,1.1-1.6,0.7-2.5c-0.5-1-2-1.7-1.7-2.8
	c0.1-0.3,0.3-0.6,0.3-0.9c0-0.4-0.3-0.6-0.4-0.9c-0.6-1.2,0.5-2.7,1.8-3c1.3-0.4,3.2,0.8,4-0.2c0.5-0.6,0-1.7,0.6-2.1
	c0.2-0.2,0.5-0.2,0.7-0.3c1.1-0.5,1.8-1.6,2.1-2.7c0.3-1.1,0.3-2.3,0.3-3.5"/>
<path fill="none" stroke="#4E9BD7" stroke-miterlimit="10" d="M178.8,252c1,1.3,2.8,3.5,2.9,4.5"/>
<path fill="none" stroke="#D6D6D6" stroke-miterlimit="10" d="M178.9,251.9"/>
<path fill="none" stroke="#4E9BD7" stroke-miterlimit="10" d="M177.2,196.1c-0.1,1.9-0.8,3.9-0.3,5.7c0.2,0.7,0.5,1.3,0.7,2
	c1,2.5,2.1,5,2.3,7.7c0,0.5,0.1,1.1,0.2,1.6c0.5,1.3,2,2,2.7,3.3c0.8,1.2,2.1,3.2,2.2,4.2"/>
<path fill="#EAEAEA" stroke="#4E9BD7" stroke-miterlimit="10" d="M171.2,288.6c-0.3-0.5-0.9-0.7-1.4-0.8c-1.1-0.3-2.5-0.6-3.3,0.3
	c-0.8,0.9-0.3,2.3,0,3.5c0.3,1.1,0,2.3,0.3,3.4c0.2,0.7,1.4,0.4,2,0c1-0.7,1.4-1.9,1.8-3c0.2-0.4,0.3-0.9,0.5-1.3
	C171.4,289.9,171.6,289.1,171.2,288.6z"/>
<path fill="#EAEAEA" stroke="#4E9BD7" stroke-miterlimit="10" d="M180,259.1c-0.2,0.3-0.5,0.5-0.7,0.8c-0.4,0.6-0.2,1.4-0.5,2
	c-0.5,0.8-1.9,0.9-2.1,1.8c-0.1,0.4,0.1,0.8,0.2,1.3c0.1,0.7-0.1,1.4,0.2,2c0.4,0.7,1.1,1.1,1.7,1.7c0.4,0.4,0.9-0.5,1.2-1
	c0.3-0.5,0.1-1,0.4-1.5c0.6-1,2.4-0.2,3.5-0.8c1.1-0.6,1.8-2,1.1-3c-0.1-0.2-0.3-0.4-0.5-0.6c-0.5-0.9-0.1-2-0.2-3
	c-0.1-1-0.7-1.9-1.6-2.2c-0.9-0.3-2.1,0.2-2.4,1.1C180.2,258.1,180.3,258.7,180,259.1z"/>
<path fill="#EAEAEA" stroke="#D6D6D6" stroke-miterlimit="10" d="M185.8,235.9c0.2-2.8,5.3-3,5.7-5.7c0.2-1.4-0.3-3.1-1.3-4.1
	s-1.5-1.6-2.2-2.8c-0.4-0.6-1.7-1.5-2.2-2.1c-0.9-0.9-2.2-1.2-3.4-1c-1.2,0.2-2.4,0.7-3.5,1.3c-0.9,0.5-1.8,1.2-1.6,2.2
	c0.1,0.5,0.5,0.9,0.8,1.3c1.1,1.6,0.3,4-1.2,5.1c-1.6,1.1-3.7,1.2-5.6,0.7c-0.4-0.1-0.7-0.2-1.1-0.3c-0.5-0.1-1.9,0.5-2.4,0.6
	c-1.9,0.4-3.9-1-4.5,0.9c-0.3,1.2,0,2-0.7,3s-0.9,2.1-0.7,3.3c0.1,0.8,0.4,1.5,0.8,2.2c1.6,2.8,1.2,7-1.3,9
	c-0.4,0.3-1.2-0.2-1.4,0.2c-0.4,0.7,0.6,1.5,0.9,2.2c0.8,2,2.2,2.9,3.8,4.1c1.1,0.9,3.3,0.6,4.1-0.6c0.8-1.2,0.1-2.7,0.8-3.9
	c0.8-1.4,2.4,0.2,4.1,0.4c0.6,0.1,1.3,0.1,1.8-0.2s0.4-1,0.3-1.6c-0.1-0.6,1.1-0.1,1.4,0.4c0.3,0.5,0.5,1.1,1,1.4
	c0.8,0.3,1.6-0.8,1.3-1.7c-0.3-0.9-2-1.2-1.7-2.1c0.3-0.9,2.7-0.9,2.1-1.5c-0.8-0.9-3.8-0.3-5-3.2c-0.9-2.1-2-4.3-1.4-6.6
	c0.1-0.5,0.4-1.1,0.8-1.4c0.4-0.3,0.9-0.3,1.4-0.2c1,0,2.1,0,3.1,0.1c0.4,0,0.8,0,1.1,0.2c0.4,0.2,0.7,0.6,1,1
	c1.1,1.7,2.3,3.7,1.9,5.8c-0.2,1-0.7,1.8-1,2.8c-0.2,1,0,2.2,0.9,2.6c1.2,0.6,2.6-0.9,2.7-2.2c0.2-1.4-0.3-2.8,0-4.1
	c0.2-0.7,0.5-1.4,0.9-2.1c0.3-0.6,1.2-1.2,1-1.9C187.1,236.6,185.7,236.6,185.8,235.9z"/>
<path fill="#7BBCEB" stroke="#4E9BD7" stroke-miterlimit="10" d="M195.9,159.7c-0.3,0-0.6,0.2-0.8,0.4c-2.8,2.1-4.9,2.5-8.3,2.6
	c-0.8,0-2.3,0.2-3-0.2c-0.8-0.5-1.2-1.8-1.1-2.7c0.1-0.6,0.6-0.5,0.7-1.1c0.1-0.6-0.2-1.2-0.5-1.7c-0.3-0.4-0.6-0.7-1-0.9
	c-0.8-0.3-1.7,0-2.5,0.2c-2,0.5-3.2-1.7-5.3-1.4c-1.3,0.2-1.3,1.9-1.8,3.1c-0.2,0.6-0.5,1.2-0.3,1.8c0.1,0.6,0.5,1.1,0.8,1.6
	c1.3,1.9,1.5,4.8-0.1,6.4c-0.3,0.3-0.7,0.6-0.9,1c-0.7,1.2,0.6,2.5,0.5,3.9c0,0.7-0.4,1.4-0.8,2c-1,1.7-1.7,3.5-2.3,5.3
	c-0.3,1.2-0.5,2.6,0.3,3.5c0.7,0.9,2.1,1,2.9,1.7c0.7,0.6,1,1.5,1.3,2.4c0.7,2.3,1.5,4.6,2.2,6.9c0.3,0.8,0.9,1.8,1.6,1.4
	c0.5-0.2,0.6-0.8,0.5-1.4c-0.1-0.5-0.4-1-0.4-1.5c-0.1-1.2,1.1-2.2,2.2-2.7c1.1-0.6,2.4-1.1,2.9-2.3c0.3-0.6,0.3-1.4,0.6-2
	c0.4-0.8,1.3-1.3,2-1.9c0.7-0.6,1.3-1.5,1-2.3c-0.2-0.5-0.7-0.8-1-1.3c-0.7-1-0.5-2.4-0.3-3.6c0.3-1.3,0.5-2.6,1.3-3.7
	c1.5-2.2,4.3-2.9,6.9-3c1.1-0.1,2.2-0.1,3.1-0.6c0.5-0.3,0.9-0.8,1.3-1.3c1.2-1.6,2.6-3.8,1.5-5.5c-0.8-1.1-1.6-0.9-2.3-2.1
	C196.6,160.3,196.4,159.7,195.9,159.7z"/>
<path fill="#EAEAEA" stroke="#D6D6D6" stroke-miterlimit="10" d="M86.1,244.8c-0.2-0.6-1.1-0.5-1.6-0.3s-1,0.6-1.4,1
	c-0.7,0.6-1.8,1.4-1.4,2.3c0.3,0.8,1.8,0.3,2.1,0.1C85,247.3,86.5,246.1,86.1,244.8z"/>
<path fill="#EAEAEA" stroke="#D6D6D6" stroke-miterlimit="10" d="M106.7,218.6c0.8-1.4,2.1-3.4,1.1-4.7c-0.4-0.6-1.5,0-2,0.5
	c-0.6,0.5-0.9,1.1-1.1,1.8c-0.2,0.7-0.4,1.5-0.1,2.2s1.5,1.4,1.9,0.8C106.6,219.1,106.6,218.8,106.7,218.6z"/>
<path fill="#EAEAEA" stroke="#D6D6D6" stroke-miterlimit="10" d="M114.4,228.3c0,0.6-0.1,1.8-0.7,1.6c-1.3-0.5-0.2-3.3-1.5-3.7
	c-0.7-0.2-1.4,0.4-1.9,1c-1.8,2-3.7,4.1-5.5,6.1c-0.3,0.4-0.7,0.8-0.7,1.2c0,0.4,0.2,0.7,0.4,1c1.3,2.2,3.9,6.6,5.7,4.7
	c0.8-0.8-0.5-2.8,0.4-3.5c0.8-0.6,2.1,0,3.1,0c0.4,0,0.8,0,1.1-0.2c0.3-0.2,0.5-0.7,0.7-1c0.5-0.7,1.4-0.3,2.3-0.4
	c3.9-0.5,5.2-5.9,8.1-8.6c0.5-0.5,1.3-0.4,2-0.6c0.9-0.2,0.9-1.7,0.4-2.5c-0.5-0.8-1.5-1.1-2.5-1.2c-1.1-0.1-1.2,1.5-2.3,1.8
	c-0.9,0.3-0.6-1.8-0.5-2.7c0.1-0.9,0.8-1.8,1.7-1.9c0.5,0,1.1,0.2,1.6,0c0.9-0.4,0.5-1.8-0.1-2.6c-0.6-0.8-1.9-2.1-1-2.6
	c0.6-0.4,1.4,0.2,2.1,0.1c0.8-0.1,1-1.3,0.6-2c-0.3-0.7-1-1.2-1.7-1.6c-1.4-0.9-3.2-1.9-4.6-1c-0.5,0.3-0.8,0.8-1.1,1.2
	c-1.3,1.8-2.6,3.7-3.8,5.5c-1.2,1.8-2.5,3.5-3.3,5.5c-0.1,0.3-0.3,0.7-0.2,1.1c0.1,0.3,0.3,0.6,0.5,0.9
	C114.3,225.3,114.4,226.9,114.4,228.3z"/>
<path fill="#EAEAEA" stroke="#D6D6D6" stroke-miterlimit="10" d="M129.1,241.6c0.2,0.3,0.4,0.7,0.2,1c-0.3,0.6-1.2,0.6-1.8,0.5
	c-0.6-0.1-1.2-0.5-1.8-0.9c-0.2-0.2-0.7-0.5-0.4-0.7c0.4-0.3,1-0.4,1.1-0.9c0.2-0.5,0.1-1,0-1.5c-0.1-0.7-0.5-1.4-0.3-2.1
	c0.5-1.2,2.5-0.4,3.7,0.2c0.3,0.1,0.6,0.3,0.7,0.6c0.1,0.3-0.1,0.6-0.3,0.9c-0.4,0.6-0.8,1.1-1.2,1.7c-0.2,0.3-0.4,0.6-0.3,0.9
	C128.8,241.4,128.9,241.5,129.1,241.6z"/>
<path fill="#EAEAEA" stroke="#D6D6D6" stroke-miterlimit="10" d="M107.2,191.4c-1.3,0.3-3.6,0.3-3.6,1.6c0,0.8,0.7,1.4,0.5,2.1
	c-0.2,0.6-0.8,1.2-0.7,1.8c0.1,0.6,0.8,1,1.5,0.9s1.1-0.5,1.6-1c0.5-0.5,0.9-1,1.4-1.4c1.7-1.5,3.9-2.1,5.9-3.1
	c0.3-0.2,0.6-0.3,0.8-0.6c0.5-0.5,0.6-1.3,0.7-2c0-0.1,0-0.2,0-0.4c-0.1-0.3-0.5-0.3-0.8-0.3c-0.7,0-1.6-0.3-2.2,0
	c-0.7,0.4-0.9,1.3-1.4,1.8c-0.3,0.3-0.7,0.7-1.2,0.7c-0.4,0-0.7-0.2-1.1-0.3C108.1,191.2,107.6,191.3,107.2,191.4z"/>
<path fill="#EAEAEA" stroke="#D6D6D6" stroke-miterlimit="10" d="M128.8,178.6c-0.3-0.6-1.1-0.8-1.8-0.9c-0.7-0.1-1.5,0-2.2,0.3
	s-1.1,1.2-0.8,1.9c0.1,0.1,0.2,0.3,0.3,0.4c0.5,0.4,1.2,0.4,1.9,0.4c0.6,0,1.3-0.1,1.9-0.4C128.6,179.9,129,179.2,128.8,178.6z"/>
<path fill="#EAEAEA" stroke="#D6D6D6" stroke-miterlimit="10" d="M141.8,169.9c0.4-0.1,0.8,0.1,1.2,0.2c0.2,0,0.5,0.1,0.7,0.2
	c0.7,0.4,0,1.5,0.4,2.2c0.5,0.8,2,0.6,2.2,1.5c0,0.2,0,0.4,0.1,0.5c0.1,0.2,0.4,0.4,0.6,0.5c0.7,0.4,1.3,1.3,1,2.1
	c-0.3,0.6-1,0.9-1.7,1.2c-0.6,0.2-1.3,0.9-1.9,0.7c-0.8-0.3-0.4-1.7,0.2-2.4c0.1-0.2,0.3-0.3,0.3-0.6c0-0.4-0.6-0.5-1.1-0.4
	c-0.3,0.1-0.6,0.1-0.9,0.3c-0.5,0.4-0.7,1.1-0.6,1.7c0,0.6,0.2,1.3,0,1.9c-0.3,0.8-0.7,1.6-1.1,2.3c-0.2,0.4-0.8,0-1-0.4
	s-0.1-0.8-0.1-1.2s0.3-1,0-1.2c-0.4-0.3-0.4-0.7-0.2-1.1c0.4-0.8,0.7-1.6,1.1-2.4c0.3-0.6,0.6-1.3,0.6-1.9
	C141.6,172.4,140.5,170.3,141.8,169.9z"/>
<path fill="none" stroke="#D6D6D6" stroke-miterlimit="10" d="M112.5,188.9c0.1-0.8,0.1-1.1,0.8-1.4c1.5-0.6,2.9-1.2,4.4-1.9
	c1.7-0.7,3.4-1.4,5.1-1.9c1.2-0.3,2.4-0.4,3.5-1c0.2-0.1,0.4-0.2,0.5-0.3c0.4-0.5,0.3-1.2,0.4-1.8"/>
<path fill="none" stroke="#D6D6D6" stroke-miterlimit="10" d="M128.7,179c2.7,0.3,7,0.7,10.6-0.4"/>
<path fill="#EAEAEA" stroke="#D6D6D6" stroke-miterlimit="10" d="M110.1,175.4c-0.5,0.1-1.1,0-1.6,0c-1.4,0.1-1.9,1.8-3.1,2.6
	c-2.3,1.4-5.3,0.7-7.8,1.9c-1,0.5-2.8,2.5-1.7,2.6c2.4,0.2,3.4,0.4,5.1,1.6c3.1,2.1,7.6-2.8,10.8-4.8c4.6-2.9,9.7-5.1,15.1-6.4
	c1.1-0.3,2.3-0.5,3.3-1.2c1-0.7,2.6-2.9,1.5-3c-1.5-0.2-6.3,4.4-10.4,2.8c-0.6-0.2,0.4-1.6-0.2-2c-0.9-0.7-2.8,1-3.5,0
	c-0.2-0.4-0.5-0.9-0.8-0.6c-1.6,1.4-2.8,3.2-4.2,4.8C111.9,174.5,111.1,175.3,110.1,175.4z"/>
<path fill="#EAEAEA" stroke="#D6D6D6" stroke-miterlimit="10" d="M90.2,180.1c0.2,0.1,0.4,0.3,0.5,0.4c0.5,0.5,1.7,0.9,1.9,0.2
	c0.4-1.1,0.4-2.4,1.3-3.2c0.2-0.2,0.3-0.3,0.4-0.5c0.1-0.3-0.1-0.7-0.4-0.9s-0.7-0.2-1-0.3c-0.5,0-0.9-0.1-1.4-0.1
	c-0.2,0-0.4,0-0.6-0.2c-0.1-0.1-0.2-0.2-0.2-0.3c-0.3-0.4-0.6-0.9-1.1-1.1c-0.5-0.2-1.1-0.2-1.4,0.1c-0.1,0.1-0.2,0.2-0.4,0.3
	c-0.8,0.6-2.1-0.4-3-0.1c-0.8,0.3-1,1.2-1.2,2c-0.3,1.3-0.5,2.9,0.4,3.8c0.4,0.4,1.2,0,1.6-0.4s0.9-0.9,1.5-0.8
	c0.3,0.1,0.6,0.3,0.9,0.5C88.7,179.9,89.5,179.7,90.2,180.1z"/>
<path fill="#EAEAEA" stroke="#D6D6D6" stroke-miterlimit="10" d="M95.3,168.5c-0.4,0.5-0.5,1.4-0.1,1.8c1.1,0.9,3.3,1,4.4,0
	c0.7-0.7,0.5-2.2-0.1-3c-0.4-0.6-1.5-0.3-2.2,0C96.6,167.5,95.8,167.8,95.3,168.5z"/>
<path fill="#EAEAEA" stroke="#D6D6D6" stroke-miterlimit="10" d="M110.3,166.2c-0.6,0.3-1.4-0.3-1.9-0.8c-0.3-0.2-0.5-0.5-0.8-0.8
	c-0.3-0.2-0.7,0.1-1.1-0.1c-0.2-0.1,0.3-0.2,0.4-0.3c0.7-0.5,1.1-1.3,1.8-1.9c1.6-1.2,2.7-5,4.4-3.9c0.8,0.5,0.4,1.9,1,2.6
	c0.2,0.2,0.5,0.5,0.6,0.7c0.2,0.6-0.3,1.3-0.8,1.6c-0.6,0.3-1.2,0.5-1.7,1c-0.2,0.2-0.3,0.4-0.5,0.6
	C111.2,165.5,110.8,165.9,110.3,166.2z"/>
<path fill="none" stroke="#D6D6D6" stroke-miterlimit="10" d="M91,175.2c1.2-0.9,3-3.6,4.6-4.8"/>
<path fill="none" stroke="#D6D6D6" stroke-miterlimit="10" d="M99.5,167.6c2.1-1.2,4.4-2.1,6.7-2.8c0.1,0,0.3-0.1,0.2-0.2
	s-0.2,0-0.1,0.1"/>
<path fill="none" stroke="#D6D6D6" stroke-miterlimit="10" d="M265.2,146.8c0.4,3.7,0.2,6.7,2.6,9c0.9,0.8,2.1,1.8,1.9,3
	c-0.2,0.8-1.1,1.4-1.3,2.2c-0.2,0.9,0.3,1.7,0.8,2.4c0.5,0.8,1.1,1.5,1.6,2.3c0.3,0.4,0.5,0.7,0.9,0.9c0.7,0.3,1.4,0.1,2.2,0
	c1.8-0.2,3.7,0.5,4.9,2c0.5,0.6,0.9,1.3,1.4,1.9c1.6,1.6,4.5,0.8,6.3,2.3c1.7,1.3,5.3,4.4,4.4,6.4c-0.6,1.3-2.3,1.9-2.4,3.3
	c0,0.7,0.1,1.4,0.1,2.2c-0.1,2.4-2.4,4.3-2.6,6.8c-0.1,0.8,0.1,1.6,0.6,2.3c0.4,0.6,1,1.2,1.1,2c0.2,1.5-1.2,3.3,0,4.2
	c0.3,0.2,0.6,0.2,0.8,0.4c0.6,0.4,0.7,1.3,0.7,2.1c0.1,3.9,1,7.7,2.4,11.3c1.6,4,3.2,7.6,4.5,11.7c0.9,2.8,2,5.7,2.7,8.5
	c0.8,2.8,1.9,5.8,4,7.7c1.4,1.3,2.7,2.3,4.1,3.7c1.1,1.1,1.7,2.5,2.9,3.6c0.8,0.8,2,1.6,2.6,2.5c0.5,0.8,1.2,1.5,1.4,2.4
	c0.6,2.4,1.2,4.8,1.8,7.2c0.2,0.9,0.5,1.8,1,2.6c0.6,0.9,1.6,1.6,2.6,2.1c2.1,1.3,3.6,3.4,5.6,4.7c1.6,1,3.7,1.1,5.4,1.7
	c6,2.4,11.6,0,18,1c0.6,0.1,2.2,1.3,2.7,1.5c0.5,0.3,1,0.7,1.4,1c1.8,1.5,3.9,2.6,6,3.6c1.2,0.6,2.3,1.2,3.5,1.8
	c2.7,1.4,5.5,2.8,8.2,4.2"/>
<path fill="none" stroke="#D6D6D6" stroke-miterlimit="10" d="M257.9,146.5c0.3-0.3,1.1-0.8,1.5-1"/>
<path fill="#EAEAEA" stroke="#D6D6D6" stroke-miterlimit="10" d="M248.1,155.1c0.6,0.2,1.3,0.3,1.9,0.1c0.7-0.3,1.1-0.9,1.5-1.6
	c0.2-0.4,0.5-0.8,0.7-1.1c0.1-0.2,0.2-0.4,0.3-0.5c0.3-0.9-0.4-1.6-0.3-2.5c0.1-0.9,1.4-0.6,2.3-0.5s1.5,0.4,2.4,0.2
	c0.9-0.2,1.6-1.1,1.4-2c-0.2-0.7-0.9-1.1-1.6-1.3c-0.7-0.2-1.4-0.3-1.9-0.8c-0.6-0.5-0.9-1.3-1.3-2c-0.4-0.7-1-1.2-1.7-1.5
	c-0.2-0.1-0.4-0.2-0.7-0.2c-1,0.1-1,1.6-1.8,2.1c-0.2,0.1-0.4,0.2-0.6,0.3c-1.5,0.7-2.1,2.5-2.2,4.2c0,0.5,0,1.1-0.2,1.6
	c-0.2,0.5-0.5,0.8-0.7,1.3c-0.4,0.9-0.2,1.9,0.3,2.7C246.3,154.3,247.2,154.8,248.1,155.1z"/>
<path fill="#EAEAEA" stroke="#D6D6D6" stroke-miterlimit="10" d="M259.9,145.7c1.2,0.1,2.4,0.6,3.6,1c0.8,0.2,1.7,0.3,2.2-0.3
	c0.4-0.5,0.1-1.3-0.1-1.9c-0.3-0.6-0.6-1.3-1.3-1.4c-0.4-0.1-0.8,0.2-1.3,0.3c-0.8,0.2-1.6,0.1-2.4,0.3c-0.8,0.2-2,0.9-1.5,1.5
	C259.5,145.9,259,145.6,259.9,145.7z"/>
<path fill="#EAEAEA" stroke="#D6D6D6" stroke-miterlimit="10" d="M70.4,90.3c0.4-0.1,0.4-0.7,0.3-1.1c-0.3-0.9-0.1-2.2-0.8-2.8
	c-0.6-0.5-1.6-0.2-2.1,0.3c-0.2,0.2-0.3,0.4-0.4,0.6c-0.4,0.9-0.2,1.9,0.5,2.6C68.5,90.5,69.5,90.6,70.4,90.3z"/>
<path fill="#EAEAEA" stroke="#D6D6D6" stroke-miterlimit="10" d="M141.1,87.6c-0.4,0.2-0.6,0.8-0.5,1.2c0.1,0.5,0.3,0.9,0.5,1.3
	c0.1,0.2,0.2,0.4,0.4,0.5c0.6,0.5,1.6,0.2,1.9-0.5c0.4-1.1-0.3-2.6-1.5-2.7C141.6,87.4,141.3,87.5,141.1,87.6z"/>
<path fill="none" stroke="#D6D6D6" stroke-miterlimit="10" d="M175.8,37.2c5.9-3.3,9.3-9.8,11.6-16.1c0.3-0.8,0.6-1.6,1.2-2.2
	c0.9-0.9,2.4-1.1,3.7-1.3c2.6-0.3,5.2-1,7.5-2.4c1.2-0.8,2.3-1.7,3.5-2.5c2-1.2,4.3-1.8,6.4-2.7c2.2-0.9,4.3-2,6.4-3.1
	c5-2.7,10.1-5.4,15.1-8.1c2.7-1.5,5.5-2.9,8.2-4.4c8.1-4.4,17.2-5.9,25.5-9.9c3.1-1.4,5.9-3.3,8.8-5.1"/>
<path fill="none" stroke="#D6D6D6" stroke-miterlimit="10" d="M-11.9,73.1c0.8,0.9,1.6,1.7,2.6,2.3s2.3,0.8,3.4,0.3
	c1.7-0.8,2.1-2.9,3.1-4.4c0.6-1,1.6-1.8,2.8-2s2.5,0.6,2.6,1.8c0.1,0.4,0,0.8,0.2,1.2c0.2,0.3,0.5,0.5,0.7,0.7
	c4.6,2.7,9.2,4.2,14.5,3.1c1.9-0.4,3.3,2.6,5.1,3.3c4.3,1.6,9.3-0.3,13.6,1.4c1.8,0.7,3.3,2,5.2,2.1c1.2,0.1,2.5-0.3,3.7-0.6
	c4.5-1.3,9.2-2,14-2.1c0.6,0,1.3,0,1.7,0.4c0.4,0.3,0.6,0.9,0.9,1.4c0.7,1.5,2.2,2.6,3.9,2.7c0.8,0,1.7-0.1,2.4,0.1
	c0.8,0.3,1.1,0.6,1,1.4"/>
<path fill="none" stroke="#D6D6D6" stroke-miterlimit="10" d="M70.2,90.2c0.8,0.9,1.2,2.4,2.1,3.2s2,1.4,2.7,2.4
	c0.2,0.4,0.4,0.7,0.7,1c0.3,0.3,0.8,0.5,1.3,0.7c2.1,0.8,4.2,1.5,6.3,2.3c1.6,0.6,3.1,1.1,4.8,1.5c1.8,0.4,3.6,0.4,5.5,0.4
	c8.7-0.1,17.3-2.4,25.7-4.7c2.8-0.8,5.5-1.5,8.3-2.3c1.1-0.3,2.2-0.6,3.3-0.5c0.7,0.1,1.3,0.2,2,0.1c0.9-0.2,1.5-1,2.4-1.4
	c1.1-0.6,2.4-0.4,3.6-0.7c1.2-0.3,2.4-1.5,1.8-2.6"/>
<path fill="none" stroke="#D6D6D6" stroke-miterlimit="10" d="M141.6,87.7c0.5-2.4,2.3-5.4,4.7-6.2c3-1,6.8-0.2,9.1-2.4
	c0.6-0.6,1.1-1.4,1.7-2s1.6,0,2.4-0.5c1.2-0.7,0-3,1.2-3.6c0.5-0.3,1-0.3,1.5-0.5c0.5-0.2,0.8-0.7,1.2-1.1c1.7-2.1,3.4-4.1,5.2-6.2
	c0.4-0.5,0.8-1,1-1.6c0.4-1.2-0.5-2.7,0-3.9c0.3-0.7,1.4-0.1,2.2,0c2.1,0.2,2.8-3.2,4.9-3.4c0.8-0.1,1.6,0.4,2.4,0.4
	c1.6-0.1,2.2-2.1,2.4-3.7c0.2-1.8,0.4-3.7-0.5-5.2c-0.3-0.5-0.8-1-1.2-1.5c-1.8-2.2-2.4-5.1-3.2-7.8c-0.1-0.3-0.2-0.7-0.5-1
	c-0.4-0.5-1.2-0.6-1.8-0.8c-1.4-0.4-2.5-1.5-3.4-2.7c-1.5-2.3-0.8-4-2.4-6.2c-0.8-1.1-0.8-3.3-0.9-4.6c-0.2-1.4-0.1-3.9-0.6-5.3
	c-1.5-3.9-2.3-6.9-3-11c-0.4-2.8-1.2-5.6-2.2-8.2c-0.8-2-1.9-4-2.9-5.9c-0.4-0.7-0.8-1.5-1.4-2.1c-1-1.1-2.8-1.9-2.8-3.4
	c0-0.5,0.2-1,0.3-1.5c0.3-2-1.5-3.6-3.1-4.8"/>
<path fill="none" stroke="#D6D6D6" stroke-miterlimit="10" d="M92.6,180.9c0.9,0.6,2.1,0.4,3,0.9"/>
<path fill="#FFFFFF" stroke="#4E9BD7" stroke-miterlimit="10" d="M181.7,170.8c-0.5,0.3-1,0.7-1.2,1.2c-0.2,0.6,0,1.3,0.3,1.9
	c0.4,0.9,0.4,2.1,1.2,2.8c0.1,0.1,0.2,0.1,0.3,0.1c1.4-0.2,1.5-2.3,1.7-3.6c0.1-0.5,0.2-1,0.3-1.5c0.1-0.3,0.1-0.7,0-1
	c-0.2-0.4-0.8-0.6-1.2-0.6S182.1,170.5,181.7,170.8z"/>
<path fill="#FFFFFF" stroke="#4E9BD7" stroke-miterlimit="10" d="M173.4,176.2c0.1,0.3,0.5,0.5,0.8,0.4c0.3-0.1,0.6-0.3,0.8-0.6
	c0.2-0.2,0.5-0.7,0.2-0.9c-0.4-0.4-1.4-0.7-1.7-0.2C173.3,175.4,173.3,175.8,173.4,176.2z"/>
<path fill="#FFFFFF" stroke="#4E9BD7" stroke-miterlimit="10" d="M174.8,181.9c0.3-0.2,0.7-1.2,0.3-1.3c-0.3-0.1-0.8-0.2-1.1,0
	c-0.4,0.3-0.7,0.9-0.3,1.2C173.9,181.9,174.4,182.1,174.8,181.9z"/>
<path fill="#FFFFFF" stroke="#4E9BD7" stroke-miterlimit="10" d="M175.1,183.5c0.4-0.2,1.1,0.1,1.1,0.2c0.1,0.4-0.1,0.8-0.5,1
	c-0.4,0.2-1.1,0.1-1-0.3C174.7,184.1,174.7,183.6,175.1,183.5z"/>
<path fill="#FFFFFF" stroke="#D6D6D6" stroke-miterlimit="10" d="M111.1,233.8c-1-1-3.9-1.2-4,0.2c0,0.8,1.4,0.9,2.2,1.1
	c0.4,0.1,0.9,0.1,1.3-0.1S111.4,234.1,111.1,233.8z"/>
<path fill="#FFFFFF" stroke="#D6D6D6" stroke-miterlimit="10" d="M116.4,228.4c-0.1,0.2-0.2,0.4-0.3,0.6c-0.6,1.2-0.2,2.7,0.6,3.8
	c0.5,0.7,1.4-0.8,1.7-1.6c0.4-1.4,0.5-2.9,0.7-4.4c0.1-0.8,0.1-1.7,0.2-2.5c0-0.6,0.1-1.2-0.2-1.7c-0.3-0.5-1.1-0.8-1.4-0.4
	c-0.8,0.9,0.1,2.5-0.5,3.5c-0.1,0.2-0.3,0.5-0.4,0.7C116.4,227,116.7,227.8,116.4,228.4z"/>
<path fill="#FFFFFF" stroke="#D6D6D6" stroke-miterlimit="10" d="M247.6,151.4c-0.6,0.3-0.7,1.2-0.3,1.7c0.4,0.5,1.3,0.5,1.7,0
	c0.3-0.4,0.3-1,0-1.4C248.6,151.3,248.1,151.1,247.6,151.4z"/>
<path fill="#FFFFFF" stroke="#D6D6D6" stroke-miterlimit="10" d="M252.7,146.4c-0.2-0.6-1.2-0.5-1.8-0.2s-1.2,1-0.9,1.6
	C250.6,148.7,253.1,147.5,252.7,146.4z"/>
<path fill="none" stroke="#585858" stroke-miterlimit="10" stroke-dasharray="4,1" d="M-16.3,61.8c6.4,0.5,13.2,1.1,18.4,4.9
	c1.2,0.9,2.3,2,3.6,2.8c1.6,1,3.5,1.6,5,2.8s0.5,3.3,1.3,5.1c0.8,1.6,4.6-1.3,5.4,0.3c1.3,2.5-6.2,3.6-5.5,6.3
	c0.2,0.7,14-0.3,20,0.1c4.1,0.2,6.2,1.3,10.2,2.5c3.1,0.9,6.1,2.5,9.4,2.6c2.4,0,4.8-0.7,7.3-0.6c6.2,0.3,10.5,5.9,14.8,10.4
	c1.6,1.7,3.5,3.3,5.9,3.8c2.3,0.4,5.1-0.8,5.6-3.1c0.5-2.5-1.5-4.6-3.3-6.5s-3.2-4.8-1.6-6.8c0.8-1,2.2-1.4,2.7-2.5
	c0.8-1.7-0.4-4.5,1.3-5.2c0.7-0.3,1.4,0.1,2.2,0c3.7-0.6,0.3-5.7,1.5-5.8c4.3-0.3,11.5-4.2,18.4-8c0.8-0.4,1.8,0,2.7-0.2
	c4.8-1,5-12.2,9.7-10.6c2.3,0.8,4,3.2,6.4,2.7c2.4-0.5,4.3-2.7,4.6-5.2c0.1-0.8,0-1.7,0.4-2.4c0.3-0.4,0.7-0.8,1-1.1
	c0.6-0.7,0.9-1.5,1.2-2.4c1.4-3.3,2.2-9.5,5.7-8.9c1.7,0.3,2.9,1.5,4.4,0.7c1.5-0.7,3.1-1.8,4.7-1.3c1,0.3,3.7,1.9,4.6,2.3
	c2.4,1.1,4.8-3.4,7.2-4.5c2.3-1.1,1.9,3,4.3,3.9c2.1,0.7,2.8-4.8,4.9-4.2c2.4,0.7,3.7,7,5.4,5.2c2.2-2.4,3.3-6.1,6.2-7.9
	c1.3-0.8,0.3-2.9,1.2-4.2c1.9-2.8,4.8-5.4,5.4-8.7c0.1-0.7,0.1-1.4,0.4-2.1c0.4-0.8,1.3-1.3,2.2-1.6c4.2-1.9,8.3-3.8,12.5-5.7
	c0.4-0.2,0.8-0.3,1.2-0.3c0.4,0.1,0.8,0.3,1.2,0.5c1.9,0.9,4.1-0.3,5.8-1.5c4.2-2.8,8.7-5.3,13.3-7.5c1.3-0.6,2.7-1.2,3.8-2.1
	c0.6-0.4,1.1-1,1.7-1.3c0.8-0.4,1.7-0.5,2.5-0.7c4.2-1.1,6.8-5.5,10.9-7.1c1.9-0.7,4.4-1.1,5.1-3c0.3-0.8,0.2-1.8,0.5-2.6
	c0.8-1.9,3.7-1.9,5-3.5"/>
<path fill="none" stroke="#585858" stroke-miterlimit="10" stroke-dasharray="18,3,1,3" d="M-12.7,139.6c2.1,4,6,6.6,9.7,9.1
	c3.4,2.2,6.7,4.5,10.1,6.7c0.7,0.5,1.5,1,2,1.7c1.1,1.7,0.5,3.9,0,5.9c-1.2,4.3-1.8,8.8-1.9,13.3c0,0.9,0,1.9,0.8,2.4
	C8.4,179,9,179,9.5,179c3.2,0.1,6.5,0.2,9.6-0.6s6.1-2.8,7.5-5.7c0.4-0.8,0.6-1.6,1.1-2.3c1.9-2.9,6.2-2.3,9.7-2.6
	c3.5-0.3,6.8-1.9,10.3-1.8s7.3,3.1,6.3,6.5c-0.5,1.5-2.8,3.4-1.6,4.4c3.3,2.8,8.8-1.6,11.8-4.7c0.8-0.9,1.6-1.9,2.5-2.6
	c2.2-1.7,5.3-1.8,8.1-1.8c4.4,0,8.8,0,13.2,0c1.1,0,2.3,0,3.1-0.7c2.8-2.1-0.8-6.8,0.7-9.9c0.9-1.8,3.2-2.4,5.1-3
	c3.7-1.1,7.3-2.9,10.3-5.2c3.2-2.4,5.9-5.5,9.5-7.2c4.8-2.3,10.6-1.9,15.6,0c5,1.9,8.4,7.6,13.7,8.2c3,0.3,3.1-5.1,5.1-7.2
	c2.3-2.4,6.4-1.9,9.3-3.6c1.4-0.8,2.5-2.1,3.9-2.8c1.4-0.7,3.6-0.5,4.2,1c0.3,0.7,0.1,1.6,0,2.4c-0.2,3.2,1.9,6.4,5,7.3
	c0.8,0.2,1.7,0.3,2.5,0.1c1.3-0.5,2.1-1.8,2.7-3c1-1.9,1.5-4.1,3-5.7c2.6-2.8,6.5-4,9.8-6.1c1.1-0.7,2.2-1.5,2.5-2.7
	c0.3-1.2-0.3-2.4-0.1-3.6c0.2-1.6,1.8-2.7,3.2-3.5c3.1-1.9,6.6-3.8,10.2-3.2c1.2,0.2,2.5,0.7,3.7,0.5c1.9-0.3,3.4-1.7,4.9-2.9
	c2.3-1.8,5.5-0.3,8.4,1c1.3,0.6,2.5-0.9,3.5,0c2.5,2.3-3.3,7.4-5,10.3c-1.7,3-2.9,5.3-1.4,8.4c1.5,3,4,4.7,5.7,7.6
	c0.7,1.3,2.6,3,4.1,2.7c0.7-0.1,1.1-0.7,1.5-1.2c2.2-2.8,4.3-5.6,6.5-8.3c0.9-1.1,1.8-2.3,2.9-3.1c0.9-0.6,1.9-1,2.9-1.5
	c5.3-2.7,9-8.3,9.5-14.3c0.1-1,0.1-2,0.5-2.9c0.5-1.1,1.5-1.8,2.5-2.4c2.2-1.5,4.3-3,6.5-4.5c1.6-1.1,3.6-2.3,5.4-1.7
	c0.9,0.3,1.6,0.9,2.5,1.2c2.1,0.7,4.3-0.7,6.4-0.5c2.2,0.3,3.9,2.2,6,3c5.5,2.2,11.3-1.7,17.1-2.9c3.7-0.7,5.8-5,8.8-7.2
	c3-2.2,6.6-4.1,10.3-3.7c2.3,0.2,4.8,1.2,6.9,0.4c1.7-0.7,3.1-2.5,4.9-2.3c0.9,0.1,1.6,0.7,2.5,0.8c1.7,0.3,3.3-0.9,4.3-2.3
	c1-1.4,1.7-3.1,3-4.3c1.6-1.5,4-1.9,5.7-3.3c0.8-0.7,1.5-1.6,2.3-2.2c1.8-1.2,4.1-1,6.2-0.4s4.1,1.4,6.3,1.3c1-0.1,2.1-0.3,3.1-0.6
	c2.5-0.7,5.1-1.4,7.6-2.2"/>
<path fill="none" d="M26.9,330.6c1.3-0.6,2.8-0.6,4.2-0.4c5.9,0.7,11.4,3.2,16.9,5.6c5,2.2,10.6,5.1,12,10.4"/>
<text transform="matrix(0.9732 0.2301 -0.2301 0.9732 31.9978 332.817)"><tspan x="0" y="0" fill="#7D7D7D" font-family="'Verdana-Italic'" font-size="7">7</tspan><tspan x="4.2" y="0" fill="#7D7D7D" font-family="'Verdana-Italic'" font-size="7" rotate="5.8">6</tspan><tspan x="8.5" y="0.4" fill="#7D7D7D" font-family="'Verdana-Italic'" font-size="7" rotate="9.3">0</tspan><tspan x="12.8" y="1.2" fill="#7D7D7D" font-family="'Verdana-Italic'" font-size="7" rotate="10.8">0</tspan></text>
<path fill="none" d="M96.2,311.4c0.4-1.6,0.4-3.3,0.8-4.9c0.7-2.4,2.3-4.4,3.9-6.4c2.5-3.1,5.1-6.3,7.6-9.4c0.9-1.1,1.7-2.1,2.8-2.9
	c2.4-1.8,5.6-2.3,7.8-4.3"/>
<text transform="matrix(0.5857 -0.8105 0.8105 0.5857 99.9392 305.5734)"><tspan x="0" y="0" fill="#7D7D7D" font-family="'Verdana-Italic'" font-size="7">8</tspan><tspan x="4.3" y="0.1" fill="#7D7D7D" font-family="'Verdana-Italic'" font-size="7" rotate="3.1">0</tspan><tspan x="8.7" y="0.3" fill="#7D7D7D" font-family="'Verdana-Italic'" font-size="7" rotate="3.1">0</tspan><tspan x="13.2" y="0.5" fill="#7D7D7D" font-family="'Verdana-Italic'" font-size="7" rotate="3.1">0</tspan></text>
<text transform="matrix(1 0 0 1 203.4952 173.7147)"><tspan x="0" y="0" fill="#7BBCEB" font-family="'Verdana-Italic'" font-size="8">Inferno Lakes</tspan><tspan x="0" y="9.6" fill="#7BBCEB" font-family="'Verdana-Italic'" font-size="8">(upper)</tspan></text>
<text transform="matrix(1 0 0 1 198.1619 240.048)"><tspan x="0" y="0" fill="#585858" font-family="'Verdana-Italic'" font-size="8">Inferno Lakes</tspan><tspan x="0" y="9.6" fill="#585858" font-family="'Verdana-Italic'" font-size="8">(lower)</tspan></text>
<text transform="matrix(1 0 0 1 262.3286 295.048)" fill="#585858" font-family="'Verdana-Italic'" font-size="8">× 8025</text>
<text transform="matrix(1 0 0 1 189.6619 134.048)" fill="#585858" font-family="'Verdana-Italic'" font-size="8">× 8241</text>
<text transform="matrix(1 0 0 1 283.9952 24.3813)" fill="#585858" font-family="'Verdana-Italic'" font-size="8">× 8151</text>
<text transform="matrix(0.9759 -0.2182 0.2182 0.9759 39.4666 125.4006)" fill="#585858" font-family="'Verdana-Bold'" font-size="10" letter-spacing="8">EMIGRANT WILDERNESS</text>
<path fill="none" d="M79.6,145.2c4.9,4,42.2-16.6,64.4-20.9"/>
<text transform="matrix(0.926 -0.3776 0.3776 0.926 108.7291 139.2331)"><tspan x="0" y="0" fill="#7D7D7D" font-family="'Verdana-Italic'" font-size="7">8</tspan><tspan x="4.4" y="0" fill="#7D7D7D" font-family="'Verdana-Italic'" font-size="7" rotate="0.2">0</tspan><tspan x="8.9" y="0" fill="#7D7D7D" font-family="'Verdana-Italic'" font-size="7" rotate="0.7">0</tspan><tspan x="13.3" y="0.1" fill="#7D7D7D" font-family="'Verdana-Italic'" font-size="7" rotate="1.3">0</tspan></text>
<path fill="none" d="M304.3,333.2c0.1-2.9,3.1-4.7,5.7-6.1c3.2-1.7,6.3-3.7,8.4-6.6s2.9-7,1.3-10.2"/>
<text transform="matrix(0.8622 -0.5066 0.5066 0.8622 307.9776 331.175)"><tspan x="0" y="0" fill="#7D7D7D" font-family="'Verdana-Italic'" font-size="7">7</tspan><tspan x="4.5" y="0.1" fill="#7D7D7D" font-family="'Verdana-Italic'" font-size="7" rotate="-1.1">6</tspan><tspan x="9.4" y="0" fill="#7D7D7D" font-family="'Verdana-Italic'" font-size="7" rotate="-11.3">0</tspan><tspan x="14.6" y="-1.1" fill="#7D7D7D" font-family="'Verdana-Italic'" font-size="7" rotate="-28.4">0</tspan></text>
<path fill="none" d="M319.3,184.2c1.1-2.1,2.7-3.9,4.2-5.7c3.8-4.3,7.6-8.7,12.5-11.9"/>
<text transform="matrix(0.648 -0.7616 0.7616 0.648 323.0919 182.9279)"><tspan x="0" y="0" fill="#7D7D7D" font-family="'Verdana-Italic'" font-size="7">8</tspan><tspan x="4.4" y="0" fill="#7D7D7D" font-family="'Verdana-Italic'" font-size="7" rotate="1.1">4</tspan><tspan x="8.8" y="0.1" fill="#7D7D7D" font-family="'Verdana-Italic'" font-size="7" rotate="3.6">0</tspan><tspan x="13" y="0.3" fill="#7D7D7D" font-family="'Verdana-Italic'" font-size="7" rotate="8.2">0</tspan></text>
<path fill="none" d="M229.9,47c-5.3-3.7,0.8-13.3,5.1-18.2c2.6-2.9,5.9-5.1,9.1-7.4"/>
<text transform="matrix(0.3837 -0.9235 0.9235 0.3837 230.3516 41.172)"><tspan x="0" y="0" fill="#7D7D7D" font-family="'Verdana-Italic'" font-size="7">7</tspan><tspan x="4" y="0" fill="#7D7D7D" font-family="'Verdana-Italic'" font-size="7" rotate="9.3">8</tspan><tspan x="8.2" y="0.7" fill="#7D7D7D" font-family="'Verdana-Italic'" font-size="7" rotate="15.8">0</tspan><tspan x="12.1" y="1.7" fill="#7D7D7D" font-family="'Verdana-Italic'" font-size="7" rotate="24.2">0</tspan></text>
<path fill="none" d="M46.8,51.4c0.9,4.6,5,7.7,8.3,11c3.3,3.3,3.8,7.1,3.8,11.4"/>
<text transform="matrix(0.6421 0.7666 -0.7666 0.6421 46.3761 57.0314)"><tspan x="0" y="0" fill="#7D7D7D" font-family="'Verdana-Italic'" font-size="7">7</tspan><tspan x="4.7" y="-0.1" fill="#7D7D7D" font-family="'Verdana-Italic'" font-size="7" rotate="-6.2">4</tspan><tspan x="8.8" y="-0.7" fill="#7D7D7D" font-family="'Verdana-Italic'" font-size="7" rotate="0.9">0</tspan><tspan x="12.4" y="-0.8" fill="#7D7D7D" font-family="'Verdana-Italic'" font-size="7" rotate="22.6">0</tspan></text>
<g>
	<g>
		<polyline fill="none" stroke="#7D7D7D" stroke-miterlimit="10" points="85.2,341.6 85.2,348.7 275.4,348.7 275.4,341.7 		"/>
		<line fill="none" stroke="#7D7D7D" stroke-miterlimit="10" x1="180.5" y1="341.4" x2="180.5" y2="348.7"/>
		<line fill="none" stroke="#7D7D7D" stroke-miterlimit="10" x1="161.2" y1="349.2" x2="161.2" y2="343.7"/>
		<line fill="none" stroke="#7D7D7D" stroke-miterlimit="10" x1="142.4" y1="349.2" x2="142.4" y2="343.7"/>
		<line fill="none" stroke="#7D7D7D" stroke-miterlimit="10" x1="123.3" y1="349.2" x2="123.3" y2="343.5"/>
		<line fill="none" stroke="#7D7D7D" stroke-miterlimit="10" x1="104.6" y1="349.2" x2="104.6" y2="343.7"/>
	</g>
	<text transform="matrix(1 0 0 1 83.7834 339.1469)" fill="#7D7D7D" font-family="'Verdana'" font-size="8">0</text>
	<text transform="matrix(1 0 0 1 174.2945 339.1469)" fill="#7D7D7D" font-family="'Verdana'" font-size="8">0.5</text>
	<text transform="matrix(1 0 0 1 258.3414 339.1469)" fill="#7D7D7D" font-family="'Verdana'" font-size="8">1 mi</text>
</g>
</svg>
