<?xml version="1.0" encoding="utf-8"?>
<!-- Generator: Adobe Illustrator 17.1.0, SVG Export Plug-In . SVG Version: 6.00 Build 0)  -->
<!DOCTYPE svg PUBLIC "-//W3C//DTD SVG 1.1//EN" "http://www.w3.org/Graphics/SVG/1.1/DTD/svg11.dtd">
<svg version="1.1" id="Layer_1" xmlns="http://www.w3.org/2000/svg" xmlns:xlink="http://www.w3.org/1999/xlink" x="0px" y="0px"
	 viewBox="0 0 360 360" enable-background="new 0 0 360 360" xml:space="preserve">
<path fill="none" stroke="#E1E1E1" stroke-miterlimit="10" d="M326.9,366.4c0.9-2.3,1.6-4.7,2.3-7c0.8-2.8,1.4-5.6,2.7-8.2
	c1.4-2.6,1.9-6.8,3.3-9.5c1.7-3.3,3.7-6.6,5.4-9.9c0.7-1.2,1.3-2.5,1.6-3.9c0.3-1.6,0.2-3.3,0.4-4.9c0.2-2,1-3.9,1.4-5.9
	c0.6-2.9,0.2-5.9-0.1-8.8c-0.1-0.9-0.2-1.8,0.1-2.6c0.2-0.6,0.6-1.2,1.1-1.7c2.6-2.7,6.5-3.8,8.9-6.7c1.4-1.7,2.1-3.8,3.3-5.6
	c1-1.5,2.3-2.8,3.7-3.8c0.8-0.5,1.6-1,2-1.8c0.3-0.8,0.1-1.6,0-2.4c-0.8-4.3-0.5-8.8,0.9-12.9c0.6-1.9,1.5-3.7,1.7-5.7
	c0.1-1.2,0-2.4,0.2-3.6c0.5-3,3-7.7,5.7-6.4c2.4,1.2,3.1,4.5,5.5,5.6"/>
<path fill="none" stroke="#E1E1E1" stroke-miterlimit="10" d="M316.5,366.3c3.8-9.5,3.4-21,8.3-30.3c1.1-2.1,2.4-4,3.4-6.1
	c2.3-4.9,2.8-10.4,3.2-15.9c0.2-2.6,0.1-5.8-2.1-7.2c-1.1-0.6-2.3-0.7-3.6-0.7c-2.4-0.1-4.7-0.1-7.1-0.2c-1.8-0.1-5.3-1.5-3.9-2.7
	c1.8-1.7,4.4-2,6.3-3.5c1.9-1.5,3.9-3.1,6.3-3.6c2.6-0.5,2,0.8,7.8-1.8c3.5-1.6,5.8-4.6,8.5-7.3c1.2-1.2,2.8-2.1,3.4-3.7
	c0.5-1.4,0.2-2.9,0.6-4.3c0.5-1.7,2-3,2.4-4.8c0.4-1.8-0.4-3.7-0.4-5.6c0-2.3,1.1-4.4,1.8-6.6c1.1-3.5,1-7.3,1.8-10.8
	c0.6-2.8,1.8-5.5,3.4-7.8c0.9-1.4,2.1-2.7,3.7-3.3c3.4-1.3,7,1.2,9.8,3.5c0.8,0.7,1.7,1.4,2.1,2.4s-0.8,2-0.3,3c0.4,1,1.5,1,2.3,1.7
	c0.7,0.6,1.8,0.2,2.8,0.2"/>
<path fill="none" stroke="#E1E1E1" stroke-miterlimit="10" d="M303.5,365.7c1.6-2.6,3.3-5.1,4.4-8c1.4-3.5,1.9-7.3,2.6-11
	c1.4-6.8,3.6-13.5,6.5-19.9c1.2-2.6,2.6-5.4,2.4-8.3c-0.6-7.5-11.5-11.9-10.4-19.4c0.4-2.7,2.3-4.9,4.2-6.9c4.6-4.7,8.9-8.9,14.8-12
	c5.8-3,11.9-10.3,11.5-11.8c-1.6-5.7,0.8-12.3,3.7-17.5c1.7-3,6.4-7.6,3.5-9.4c-1.7-1.1-5.1-2-3.8-3.5c1.3-1.5,3.8-0.9,5.4-2.1
	s2.7-3.1,2.3-5c-0.1-0.5-0.3-1-0.2-1.5c0.3-1.2,2.2-1.9,3.1-1c0.6,0.7-0.3,2.1,0.4,2.7c1.7,1.4,4.4-0.7,6.6-0.3
	c1.2,0.2,2.4,0.8,3.5,1.4c3.4,1.8,6.8,3.6,9.4,6.5c0.7,0.7,1.3,1.5,2.1,2c1.3,0.7,2.8,0.6,4.2,0.5"/>
<path fill="none" stroke="#E1E1E1" stroke-miterlimit="10" d="M288.5,366.7c4-7.9,8.4-15.7,11.1-24.2c1.3-4.2,2.3-8.6,3.2-12.9
	c0.5-2.4,1-4.7,0.9-7.2c-0.2-4.7-2.7-9-4.7-13.3c-1.9-4.3-3.4-9.3-1.5-13.6c0.9-2.1,3-3.6,4.1-5.7c12.5-23.3,18.3-20.3,17.5-23.3
	c-1-3.7-0.5-6.1,2.3-8.7c2.8-2.6,6.5-4.5,7.9-8c1.3-3.3-0.1-7.5-3.2-9.3c-0.8-0.5-1.8-0.8-2.3-1.6c-0.6-0.8,0.2-1.4,0.6-2.3
	c0.7-1.6-3.4-1.4-4.3-3c-1.9-3.3,5.5-4.9,9.3-5.2c3.8-0.3,1.7,0,4.6-2.4c3.7-3.2,8-5.8,12.7-7.4c1.8-0.6,3.4-1.5,4.5-3
	c0.9-1.3,2.9,0.6,3.4,2c0.5,1.5,1,3.3,2.5,3.7c0.7,0.2,1.4,0,2.1,0.2c1.7,0.5,1.9,2.8,2.8,4.4c1.2,2.4,4.1,3.3,6.6,4.2
	c3.6,1.3,7,2.9,10.2,4.9"/>
<path fill="none" stroke="#E1E1E1" stroke-miterlimit="10" d="M274.6,366.9c1.2-2.9,2.4-5.8,3.6-8.7c3.4-8.4,6.9-16.9,8.3-25.9
	c0.6-4,0.8-8.1-0.2-11.9c-0.7-2.8-2-5.4-2.6-8.2c-1.8-8,1.6-16.1,5-23.5c1.6-3.5,3.2-7.1,5.6-10.2c2.2-2.9,4.9-5.3,6.9-8.3
	c3.1-4.8,4.1-10.7,4.3-16.4c0.1-2,0.1-4.2-0.9-6c-1.1-1.9-3.2-3.2-3.8-5.2c-0.7-2.1,2.2-4.9,3.4-3.1c1,1.5,1.5,4.8,3.3,4.4
	c3.1-0.7,2.4-5.9,3.6-8.9c0.5-1.3,1.1-2.7,2-3.9c1-1.3,2.5-2.2,3.9-3c6-3.7,12-13.4,18.5-10.6c0.6,0.2,0.6-0.1,1.2-0.4
	c2.5-1.3,5-2.7,7.5-4c0.9-0.5,1.8-1,2.5-1.6c0.4-0.4,0.8-0.9,1.3-1.2c0.6-0.4,1.3-0.6,1.9-0.8c1.5-0.4,3-0.8,4.5-1.2
	c1.5-0.4,3.1-0.8,4.5-0.3c2.5,0.9,1.6,4.7,3.3,6.7c1.5,1.7,2,3,3.4,4.8c0.7,0.9,2.3,0.4,3.2,1.1c0.8,0.6,1.3,1.5,2,2.2
	c1.8,2,4.6,3.1,7.3,2.9"/>
<path fill="none" stroke="#E1E1E1" stroke-miterlimit="10" d="M260.7,366.9c4.4-15.1,7.9-30.4,9.1-46c0.9-12.5,0.7-26.1,8.3-36.1
	c3.3-4.4,7.9-7.8,10.2-12.8c1.4-3.1,1.5-7.3-1.2-9.4c-0.6-0.5-1.4-0.8-1.9-1.5c-1.2-1.5-0.4-3.7,0.8-5.2c1.2-1.5,2.7-2.8,3.2-4.7
	c0.4-1.6-0.1-3.4,0.2-5.1c0.5-2.7,3.1-4.5,4.7-6.8c1.8-2.6-1-6.9,1.4-9c1.7-1.6,4.2,3.3,6.5,2.8c5.3-1.1,7.3-8,10.9-11.9
	c1.1-1.2,2.3-2.5,3.6-3.4c1.4-1,3.1-1.6,4.7-2.2c5-1.9,10.1-3.7,15.1-5.6c1.7-0.6,2.8-2.6,4.3-3.7c0.9-0.7,1.9-1.4,2.4-2.5
	c0.2-0.5,0.3-1.1,0.7-1.5c0.3-0.4,0.7-0.6,1.1-0.9c4.6-2.6,9.8-4.2,15.2-4.6c1.5-0.1,3.1-0.1,4.2,0.9c0.9,0.8,1.2,2,1.9,3.1
	c1.2,2,3.5,3.2,5.9,3.7c2.3,0.4,4.8,0.1,7.1-0.1"/>
<path fill="none" stroke="#E1E1E1" stroke-miterlimit="10" d="M247.4,365.9c1.6-5.4,3.2-10.8,4.8-16.2c1.3-4.6,2.7-9.2,3-13.9
	c0.3-4.5-0.5-9-0.7-13.4c-0.9-16.8,16-29.7,16.3-46.5c0-1.3-2.2-1.2-3.2-2.1c-4.9-4.8,11.9-13.4,7.3-18.5c-0.9-1-3.5,0.5-4.1-0.8
	c-1.7-3.4,3.4-6.9,5.1-10.4c3.5-7.2,7.9-15.1,15.7-16.9c3.2-0.7,6.7-0.3,9.6-1.7c1.7-0.8,3-2.1,4.4-3.4c8.4-7.9,17.9-14.5,28.2-19.5
	c3-1.5,4.6-4.7,7.4-6.6c2.2-1.5,4.7-2.5,7.2-3.4c5.9-2.3,11.8-4.7,18.1-5.7c1.4-0.2,2.8-0.4,4.1-0.8c3.4-1.1,6.1-3.9,9.5-4.8"/>
<path fill="none" stroke="#E1E1E1" stroke-miterlimit="10" d="M228.4,366c0.5-0.9,1-1.8,1.5-2.7c3-5.4,6.3-10.8,7.6-16.9
	c0.6-2.7,0.7-5.4,0.9-8.1c0.5-7.9,1-15.8,1.5-23.8c0.4-6.9,0.9-14,3.1-20.5c3.1-9,9.6-17.7,7.7-27c-0.3-1.5-0.9-3.1-0.7-4.6
	c0.1-1.3,0.7-2.6,1.3-3.8c9.5-18.4,27.6-30.5,45-41.8c13.6-8.8,27.3-17.7,40.9-26.5c5.6-3.7,9.9-9.4,15.9-12.4
	c1.4-0.7,2.9-1.4,4-2.4c0.9-0.8,1.5-1.8,2.4-2.6c2.3-2.4,5.7-3.5,8.7-5c4.7-2.4,8.7-6.1,11.4-10.6"/>
<path fill="none" stroke="#E1E1E1" stroke-miterlimit="10" d="M199.5,364.9c1.1-1.2,2.1-2.5,2.8-4c1.1-2.6,1.2-5.5,1.3-8.3
	c0.2-12.6,12.9-22.2,11.2-34.6c-0.9-6.4-5.7-11.4-2.2-16.8c2.6-3.9,6.2-7.3,7.9-11.7c3.2-8.4-1.7-18,0.5-26.7
	c1.7-7,7.6-12,13.1-16.6c6-5,12.3-10.1,19.7-12.4c2.3-0.7,4.7-1.1,6.9-2.1c7.4-3.3,11.2-11.9,18.1-16.1c2.5-1.5,5.3-2.4,8.1-3.4
	c15.9-5.8,30.1-16.4,40.1-30c2.1-2.9,8.2-5.3,10.4-8.2c1.8-2.2,2.5-4.7,5.1-5.9c0.7-0.3,1.5-0.6,2.1-1.1c0.8-0.8,0.9-2.1,1.3-3.2
	c1-2.6,3.8-4,6.3-5.2c5.3-2.5,10.3-5.5,15.1-8.9c4.4-3.1,8.7-6.7,11.7-11.2"/>
<path fill="none" stroke="#E1E1E1" stroke-miterlimit="10" d="M329.3,48.3c-1.5-0.7-3.4,0.4-4.6,1.6s-2.6,3.8-1.2,4.7
	c1.7,1.2,3.9-1.3,5.3-2.8C329.8,50.9,330.6,48.9,329.3,48.3z"/>
<path fill="none" stroke="#E1E1E1" stroke-miterlimit="10" d="M328.9,66.1c-0.1,0.1-0.3,0.2-0.4,0.3c-0.1,0.2-0.2,0.4-0.2,0.7
	c0,2.3,3.5,4.6,5,2.8c0.8-1,0.1-2.6-0.9-3.4S330.1,65.5,328.9,66.1z"/>
<path fill="none" stroke="#E1E1E1" stroke-miterlimit="10" d="M378,119.6c-4.1,0.2-8.2,0.4-12.3,0.7c-3.8,0.2-7.6,0.4-11.4-0.3
	c-0.4-0.1-0.9-0.2-1.2-0.5c-0.2-0.2-0.4-0.4-0.6-0.6c-1.3-1.1-3.5,0.6-4.9-0.4c-0.7-0.5-0.9-1.3-1.3-2c-0.9-1.5-2.8-1.9-4.4-2.6
	c-1.6-0.7-1.9-2.5-2.8-3.9c-1.8-2.6-6.3-1.5-8.5-3.8c-1.3-1.4-2.3-3-3.7-4.3c-2.1-1.8-4.8-2.6-7.3-3.7c-2.5-1.1-6.3-2.9-5.7-5.5
	c0.2-1,2-1.3,1.9-2.3c-0.2-3-4.3-4.2-6.5-6.3c-0.5-0.5-1.1-1-1.7-0.9c-0.6,0.1-1.1,0.7-1.5,1.2c-1.8,2.5-4,5.1-7.1,5.7
	c-0.8,0.2-1.7,0.2-2.4-0.2c-1.3-0.7-1.7-2.4-1.2-3.8c0.4-1.4,3.3-2.4,2.4-3.6c-1.1-1.5-5.6,2.8-10.6,2.7c-0.9,0-6.5-2.3-7.3-2.8
	c-1.7-1-1.9-3.4-1.4-5.3c1.6-6,7.3-9.8,12.5-13.3c5.2-3.5,10.6-8.1,10.9-14.3c0.1-2,4.2-1.6,5.9-2.7c1-0.6,1.5-1.9,2.4-2.8
	c1.4-1.4,3.5-1.6,5-2.7c0.8-0.6,1.5-1.4,2.4-2c2.3-1.6,6,1,8.3-0.7c2.1-1.5,2.2-4.7,4.2-6.3c2-1.6,4.4-2.8,6.4-4.4
	c1.4-1.1,2.7-2.4,4.3-3.3c1.6-0.9,3.4-0.1,5.2-0.3c2.7-0.4,4.9-5.2,3.2-7.2c-1.1-1.4-3.5-0.7-5.1-1.5c-1-0.5-2-1.1-2.5-2
	c-0.7-1.4-0.1-3.2,0.9-4.5c1-1.3,2.3-2.2,3.3-3.5c2.1-2.7,2.8-6.9,6-8.1c2.1-0.8,4.4,0.1,6.6-0.3c1.2-0.2,2.3-0.7,3.5-1.1
	c4.5-1.7,9.4-2.2,14.1-1.2"/>
<path fill="none" stroke="#E1E1E1" stroke-miterlimit="10" d="M141.7,365.9c3.3-4.8,5.8-9.1,1.6-11.1c-2.4-1.2-5.5,3.9-7.6,2.3
	c-3.4-2.5-5.1-7.3-4.6-11.5c1-8.7,17.2,0.6,25.9-0.8c6.8-1.1,12.1-6.6,16.1-12.3c3.9-5.7,7-12.1,12-16.9c3.6-3.4,8.1-5.9,11.7-9.3
	c6.3-5.9,9.7-14.2,13-22.2c0.8-2,1.6-4,2.1-6.1c0.5-2.6,0.5-5.2,0.7-7.9c1.3-17,13.9-31.2,28.2-40.5c14.3-9.3,30.7-14.8,45.6-23.1
	c6.4-3.5,12.8-7.8,16.4-14.2c1.6-2.9,2.6-6.1,4.4-8.8c2-3,5-5.2,7.9-7.4c7.6-5.5,11-4.6,16.7-12.1c1.1-1.5,2.8-2.6,3.3-4.4
	c0.2-0.6,0.1-1.2,0.3-1.8c0.1-0.5,0.4-1,0.7-1.4c1.9-2.7,4.3-5.1,6.9-7.2c0.5-0.4,1-0.7,1.3-1.2c0.4-0.6,0.4-1.4,0.6-2.1
	c0.9-3.8,8.5-7.1,5.8-9.9c-2-2.1-6,0.7-8.5-0.8c-1.2-0.8-2-2.4-3.5-2.6c-0.8-0.1-2.4,0.6-3.3,0.6c-4.1,0-3-2.9-6.6-4.9
	c-1.7-1-3.8-1.2-5.7-1.7c-4.6-1.1-8.9-3.6-12.1-7.1c-3.1-3.4-6.3-8.1-10.8-7.3c-2.3,0.4-4.1,2.3-6.1,3.7c-2,1.4-4.9,2.1-6.5,0.4
	c-0.4-0.5-0.8-1.1-1.4-1.2c-0.8-0.1-1.4,0.6-2,1.2c-1.4,1.1-3.4,1-5,0.2c-1.6-0.8-2.7-2.2-3.7-3.7c-1.9-2.8-3.3-6.7-1.2-9.4
	c1.5-2,6.3-3.8,4.6-5.6c-1.4-1.5-5.4,1.2-6.2-0.8c-0.4-0.9,1.3-2.3,0.4-2.8c-1.3-0.7-2.9,0.5-4.2-0.1c-1.3-0.6-0.3-2.3-1.1-3.5
	c-2.4-3.7-9.1-2.7-8.6-7.1c0.2-1.5,0.9-2.9,1.5-4.3c2.3-4.6,4.6-9.3,8.1-13.1c1.8-2,3.9-3.7,5.3-6c1.8-3,0.5-6.7,0.9-10.1
	c1.1-8.2,15.5-5.8,21.5-11.5c2.8-2.7,4.7-7,8.6-7.7c2.4-0.4,5.1,0.7,7-0.6c0.6-0.4,1.1-1,1.7-1.5c2.8-2.1,7,0.3,10.2-1.2
	c3.1-1.5,3.9-6.2,7.2-7.1c0.8-0.2,1.7-0.2,2.3-0.8c0.9-0.8,0.6-2.2,0.3-3.4c-1.5-5.8-1.1-12,1.2-17.5c1-2.4,2.6-4.9,5.1-5.3
	c2.7-0.5,5.2,1.5,7.9,1.4c3-0.1,5.4-2.6,8-4c6.4-3.4,14.2-0.3,21.4-0.8"/>
<path fill="none" stroke="#E1E1E1" stroke-miterlimit="10" d="M122.7,365.5c-4.1-11.6-10-25.5-6.4-26.7c8.1-2.6,58.5-10.4,82.9-54.3
	c1.9-3.4,4-6.6,5.2-10.3c1.7-5.7,1.4-11.8,2.4-17.7c3.9-21.1,24.8-34,44.3-43.1c5.1-2.4,10.3-4.7,15-7.8c5.2-3.4,10.5-7,14.2-12
	c15.8-21.4,40.3-30.9,40.4-38.4c0-1.6-3.6-0.1-4.5-1.4c-1.9-2.5,4.4-5.7,3.2-8.6c-2.2-5.1-11-2-15.8-4.7c-3.5-1.9-7.8-4.5-11-2.1
	c-1.5,1.1-2.2,3-3.3,4.6c-3.2,4.7-9.8,6-15.2,4.6c-5.5-1.4-10.9-12.7-14.6-8.4c-8.5,9.8-18.3,20.4-31.1,10.3c-1-0.8-2.2-1.4-2.6-2.6
	c-0.5-1.7,0.7-3.3,1.8-4.7c4.5-5.3,15.4-8.2,14.3-15c-1.3-8.8-16.4-8.1-21.3-15.6c-4.9-7.4-4.4-19.1,3.3-23.6
	c3.6-2.1,8-2.2,12.1-3.3c4.1-1.1,8.3-3.9,8.6-8.1c0.1-2.1-0.8-4.3-0.5-6.4c0.3-1.9,1.4-3.4,2.6-4.9c4.5-5.8,7.4-13.3,13.4-17.5
	c4.2-2.9,6.9-8,11.6-9.9c1.7-0.7,3.7-0.8,5.2-1.7c1-0.6,1.7-1.5,2.6-2.3c2.5-2.5,5.7-4.4,9.2-5.3c1.9-0.5,3.8-0.7,5.7-1.3
	c2.7-0.8,5.2-2.2,7.6-3.5c1.7-0.9,3.7-2.6,2.9-4.4c-0.2-0.4-0.5-0.8-0.7-1.2c-0.4-1.1,0.5-2.2,1.3-3c6.9-7.3,13.8-14.6,20.7-21.8
	c1.2-1.3,2.5-2.6,4-3.6c2.9-1.8,6.5-2.2,9.9-2.5c6-0.5,12.4-1.2,17.1-5"/>
<path fill="none" stroke="#E1E1E1" stroke-miterlimit="10" d="M198.2,108.6c1,0.5,2.4,0.3,3.3-0.4c0.9-0.7,1.4-1.9,1.4-3.1
	c0-0.3,0-0.6-0.2-0.8c-0.1-0.2-0.3-0.3-0.5-0.4c-1.3-0.6-2.9-0.2-3.8,0.9C197.4,105.8,196.9,108,198.2,108.6"/>
<path fill="none" stroke="#E1E1E1" stroke-miterlimit="10" d="M239,70.8c-0.4-0.5-1.3-0.2-1.6,0.4c-0.3,0.6-0.1,1.3,0.1,1.9
	c0.1,0.2,0.2,0.5,0.4,0.7c0.5,0.6,1.7,0.5,1.9-0.2c0.2-0.7,0.8-2,0.1-2.3C239.5,71.1,239.3,71,239,70.8z"/>
<path fill="none" stroke="#E1E1E1" stroke-miterlimit="10" d="M109.9,365.5c-3.1-9.8-6-19.4-1.1-27.8c6.7-11.6,24.3-12,36-19
	c17-10.2,31.4-26.3,40-45c1.9-4.1,7.2-6.6,11-9c5.4-3.5,9.3-13.5,4.6-16.6c-3.3-2.2,3.4,2.2,0,0c-3.3-2.2-11,3-14.6,0.5
	c-4.1-2.8,3.4-7.2,2.6-10.5c-0.8-3.4-1-5-2-8.4c-1.5-4.6-15.9-1.4-12.8-5c3.7-4.4,40.9,1.8,57.2-10c1.1-0.8,3-2,3-4
	c0-6,4.3-9.7,3-15.9c-0.4-2.1,0.1,1.9,0,0c-0.1-1.5-2.1-1.1-3-2.1c-3.3-3.8,2.2-6.9,4-10c2.2-3.9,3.5-6.9,4-11c0.2-2,1-5-1-5
	c-9,0-18.3-0.9-27-3c-1-0.2-1.4-1.1-1-2c0.5-1.3,2.3-0.7,2-2.2c-0.3-1.1,0.1,0.7,0,0c-0.2-1.3-3.1-1.1-5-1.8c-3.9-1.6,2.4-5.8,4-9
	c1.4-2.8,3-3.1,6-6c5.2-5.1,2.8-18.9-5-21c-1-0.3-2.2,1.2-2.6,0.8c-0.7-0.9-0.4-3-1.5-2.9c-3.4,0.2-6.2,2.5-8.1,5.5
	c-1.8,2.9-1.3,6.4-5.2,7.4c-2.9,0.8-6.1-0.5-9,0.5c-3.6,1.3-3.3,8.6-3.8,12c-1.3,8-2.6,16.6-12.9,14.1c-4.1-1-7.6-2-11.9-2.3
	c-3.3-0.2-4.5-3.4-8.4-6c-2-1.3-5,2.8-7.2,1.1c-1.4-1.1-3.3-2.8,0.6-4.1c5.1-1.7,14.8,0,14.5-5c-0.5-11.5-0.4-13.4,3.2-19
	c2.9-4.5,8.1-15.7,5.6-18.2c-3.2-3.2-5.2,6.3-6.4,9.2c-1.7,4.1-7.2,0.4-9.8,2.4c-2.1,1.6-2.2,6.4-4.2,7.6c-20,12.2-10.2,20.5-20,25
	c-14.5,6.6-33.9,12-46,9c-2.2-0.5-3-4.1-5-4c-9,0.5-21.6-11.6-25.5-10.2c-6.1,2.1-8.1,10.3-13.7,10.5c-5.4,0.2-11.3,0.2-16.6,1.3
	c-5.1,1-10.2,2.1-15.2,3.2c-3.3,0.7-6.6,1.4-9.9,2.1c-0.6,0.1-1.2,0.3-1.8,0.4"/>
<path fill="none" stroke="#E1E1E1" stroke-miterlimit="10" d="M74.4,365.1c0.9-0.7,1.7-1.4,2.5-2.1c0.9-0.8,1.9-1.7,3-1.3
	c0.6,0.2,1,0.8,1.6,1.2c1.4,0.9,3.2-0.1,4.6-1c4.6-3.1,8.6-11.4,13.9-9.4c4.4,1.6,2.7,8.3,1.9,13.7"/>
<path fill="none" stroke="#E1E1E1" stroke-miterlimit="10" d="M-6,179.3c0.4-0.1,0.8-0.2,1.3-0.3c1.6-0.2,3.2,0,4.8,0.2
	c8.2,1,29.3-3.9,37.2-2.9c4,0.5-4,4.5-1.2,7.3c1.9,1.9,5,2.1,7.7,2c3-0.1,6.2-0.5,8.5-2.4c1.7-1.4,4.4-4.9,6.6-4.8
	c0.9,0.1,1.6,1.3,2.5,1.6c1.8,0.5,3.5,0,5.1-0.9c11.8-7.1,37.4-15.3,41.1-12.3c2,1.6-3.3,4-5.7,4.7s-5.1,0.4-7.6,0.9
	c-2.5,0.5-6.7,2.9-5.1,4.9c0.7,0.8,3-0.2,3.1,0.8c0.6,6.6-18.2,4.6-16.5,11c0.7,2.7,8.2-0.2,7.9,2.5c-0.4,4.3-8,3.3-10.7,6.7
	c-0.5,0.7-1,1.4-1.1,2.2c-0.4,2.7,2.8,4.3,5.4,4.9c10.6,2.4,24-6.2,33-0.1c1.3,0.9-1.1,2.7-0.6,3.1c1.5,1.5,5-2.8,6.2-1
	c1.6,2.3-6,5-4.2,7.1c0.8,1,2.5,0.7,2.2,2c-0.3,1.3-1.5,2-2.7,2.6c-11.8,6.3-25.9,9.5-34.9,19.4c-6.9,7.5-10.6,18.6-19.9,22.8
	c-1.6,0.7-3.3,1.2-4.6,2.4c-1.2,1.1-1.8,2.6-2.5,4c-2.7,6.3-5.4,12.6-8.1,18.8c-0.6,1.3-1.2,2.7-0.8,4.1c1.3,5.9,17.4,2,15,7.6
	c-2,4.7-13.3,3.5-12.8,8.5c0.4,3.7,8.5-2.6,10.9,0.2c8.2,9.2-21.9,10.5-31,18.8c-2.1,2-3.9,4.8-3.3,7.6c0.9,4.4,6.8,4.2,10.8,6.1
	c2.9,1.4,5.7,2.9,8.8,2.1c3.2-0.9,5.3-5.1,8.6-4.7c3.7,0.4,2.3,7.1,1.4,10.7c-0.9,3.6-2.3,7.3-1.9,11c0.3,2.7,1.6,5.1,3.5,7"/>
<path fill="none" stroke="#E1E1E1" stroke-miterlimit="10" d="M-6,300.4c2.6-2,4.9-4.1,6.8-5.6c0.7-0.6,2.2,1.8,2.7,1
	c3.1-5.9,5.1-19.1,6.7-24.9c1.7-6.1-12-1.6-15.4-4.4c-0.9-0.7,1.9-2.3,1.3-3.2c-0.7-1-2.1-1.3-3.5-1.4"/>
<path fill="none" stroke="#E1E1E1" stroke-miterlimit="10" d="M158.2,208.8c-0.4,0.5-0.7,1.1-1.1,1.6c-0.6,1-1.3,2.1-0.9,3.2
	c0.4,1,1.7,1.4,2.8,1.7c6.6,1.5,14.6,5.8,20.1,1.8c1.2-0.9,0.9-2.9,1-4.3c0.1-0.8,0.1-1.7-0.2-2.4s-1-1.4-1.9-1.4
	c-1.3,0-2.2,1.5-3.5,1.7c-0.9,0.1-1.7-0.4-2.4-0.9c-3-1.8-6.4-2.8-9.9-3c-0.9,0-1.8,0-2.5,0.4C159.1,207.5,158.6,208.1,158.2,208.8z
	"/>
<path fill="none" stroke="#E1E1E1" stroke-miterlimit="10" d="M129.5,221.8c-0.7,0.6-1.2,1.4-2,1.9c-0.8,0.5-1.7,0.7-2.7,0.9
	c-4.2,0.9-8,2.8-11.9,4.6c-1.5,0.7-3,1.4-4.1,2.6c-1.6,1.8-2.2,4.3-3.1,6.5c-3.9,9.1-24.1,12-20.5,21.3c1.6,4.2,8.9-4,12.9-2.1
	c2.8,1.3,1.5,6.8,4.5,7.2c3.2,0.4,5.2-3.1,7-5.7c2.5-3.5,6.1-6,9.4-8.7c6.2-5.3,11.3-11.8,16.3-18.2c1.5-1.9,3-3.9,3-6.3
	c0-2.1-1.3-4.1-3.2-4.9C133.4,220,131.1,220.4,129.5,221.8z"/>
<path fill="none" stroke="#E1E1E1" stroke-miterlimit="10" d="M84.9,326.4c-1.2,0.5-2.6,0.3-3.9,0.1c-3.2-0.4-6.6-0.6-9.6,0.7
	c-5.4,2.4-7.6,8.7-11.1,13.4c-0.5,0.7-1.1,1.4-1.2,2.2c-0.1,0.6,0.1,1.3,0.2,1.9c0.3,1.2,0.6,2.5,1,3.7c0.6,2.1,1.3,4.5,3.3,5.5
	c1.8,0.8,3.9,0.2,5.8-0.5c5.7-2,12.9-1.7,17.2-6c2.6-2.7,3.8-6.6,7.1-8.4c0.9-0.5,1.9-0.9,2.6-1.7c0.6-0.6,0.9-1.4,1.2-2.2
	c1.3-3.3,2.2-7.4,0-10.2c-2.4-3-7.3-2.5-10.3-0.2C86.5,325.4,85.8,326.1,84.9,326.4z"/>
<path fill="none" stroke="#E1E1E1" stroke-miterlimit="10" d="M63.9,277.6c0.9,0,1.7-0.2,2.4-0.8s1.4-1.5,0.9-2.3
	c-1-1.5-3.7-0.9-4.9,0.5c-0.4,0.5-0.7,1.3-0.3,1.8C62.4,277.5,63.2,277.6,63.9,277.6z"/>
<path fill="none" stroke="#E1E1E1" stroke-miterlimit="10" d="M45.1,251.9c-0.6-1.1-2.6-0.4-3.5,0.4c-0.9,0.8-1.3,2.7-0.2,3.2
	c0.9,0.4,2.3,0.3,2.9-0.5C44.9,254.2,45.6,252.9,45.1,251.9z"/>
<path fill="none" stroke="#E1E1E1" stroke-miterlimit="10" d="M3.6,366.6c-1-3.1-3.7-6.7-1.9-9.2c1.9-2.6,5,3.4,6.6,6.2
	c0.5,0.9,1.3,1.7,2.2,2.3"/>
<path fill="none" stroke="#E1E1E1" stroke-miterlimit="10" d="M-6.7,312.3c0.6-0.6,1.2-1.1,1.9-1.5c1.8-0.8,3.9-0.4,5.8-0.6
	c5.2-0.5,8.8-5.6,10.1-10.7s0.9-10.4,1.9-15.5c0.5-2.4,2.4-6.8,4.2-5.2c3.8,3.5,1.1,10.3,2.5,15.2c1.1,3.7,4.8,4.4,7.4,7.2
	c5.9,6.2-10.7,13.1-18.5,16.7c-2.6,1.2-5.6,2.9-5.7,5.8c0,1.1,0.3,2.1,0.6,3.1c0.7,3.3-0.3,6.7-0.7,10.1s0,7.3,2.7,9.4
	c1.5,1.2,3.4,1.5,5.2,2.3c6.7,3.2,9.4,12.6,16.7,14.2c2.6,0.6,5.5,0,7.9,1c1.2,0.5,2.3,1.4,3.2,2.3"/>
<path fill="none" stroke="#E1E1E1" stroke-miterlimit="10" d="M261.6,168.4c-1.3-2.3-7.4,2.2-5.5,4.1
	C257.7,174.3,262.7,170.6,261.6,168.4z"/>
<path fill="none" stroke="#E1E1E1" stroke-miterlimit="10" d="M140.1,108.9c1.3-2,1.3-4.6,1.2-7c0-2.2,1.6-5.3-0.1-6.7
	C128.4,85,104.9,90.1,91.7,94c-3.2,0.9-6,2.9-9.1,4.2c-3.6,1.5-7.6,2.9-9.5,6.3c-1.3,2.2-1.4,5-0.9,7.6c0.6,2.5,4,4.7,3.1,7.1
	c-0.7,2-3.5,2.3-4.9,3.8c-2.6,2.9-5.9,5.5-7.1,9.2c-0.4,1.1,1.8,1,2.8,1.7c1.1,0.7,0.9,2.2,1,3.5c0.1,3.9,3,7.3,6.4,9.1
	c3.5,1.8,7.4,2.4,11.3,2.9c3.5,0.5,7.1,0.9,10.5-0.2c1.2-0.4,2.3-1,3.5-1.3c1.7-0.5,3.5-0.3,5.3-0.3c4.1,0.1,8.1-0.2,12.2-0.8
	c2.5-0.4,5-1,7.2-2.3s4-3.3,4.5-5.8c0.6-3.1-1-6.5,0.3-9.4c0.9-2,3.1-3.3,3.5-5.5c0.1-0.6,0.1-1.2,0.3-1.7c0.3-0.7,1-1.1,1.6-1.6
	c2-1.5,3.4-3.7,3.9-6.1c0.2-0.9,0.2-1.9,0.6-2.7C138.6,110.7,139.5,109.9,140.1,108.9z"/>
<path fill="none" stroke="#E1E1E1" stroke-miterlimit="10" d="M121.1,117.2c-0.1-1.1,2.2,0,3-0.6c3.2-2.3-1.6-7.7-3.5-11.2
	c-0.5-1-1.1-1.9-2-2.6c-0.7-0.5-1.5-0.7-2.3-0.8c-7-1.5-14.3-2.3-21.5-2.2c-3,0-6.2,0.3-8.6,2c-1.3,0.9-2.3,2.3-3.1,3.6
	c-1.2,1.9-2.2,3.9-3,6c-1,2.7-1.3,6.3,1.1,7.8c0.5,0.3,1.2,0.6,1.3,1.2c0,0.4-0.2,0.7-0.5,0.9c-1.3,1.6-2.7,3.1-4.4,4.3
	c-1.9,1.2-4.5,2.5-4.2,4.7c0.1,0.7,0.5,1.3,0.9,1.8c2,2.4,5.1,3.7,8.3,4.1s6.3,0,9.4-0.4c9.6-1.3,19.5-2.6,27.7-7.8
	c0.6-0.4,1.2-0.8,1.7-1.4c1.7-2.4,2.1-5.5,1.6-8.4C123,117.6,121.2,118,121.1,117.2z"/>
<path fill="none" stroke="#E1E1E1" stroke-miterlimit="10" d="M99.6,108c-0.4-0.5-1.1-0.5-1.7-0.4c-0.9,0.1-1.8,0.2-2.7,0.3
	c-1,0.1-2.2,0.3-2.6,1.2c-0.2,0.4-0.2,0.8-0.2,1.3c0,0.4,0,0.8,0.2,1.2c0.3,0.5,0.9,0.7,1.5,0.8c1.2,0.2,2.5,0.1,3.6-0.5
	c1.1-0.6,1.9-1.7,2-2.9C99.9,108.6,99.8,108.3,99.6,108z"/>
<path fill="none" stroke="#E1E1E1" stroke-miterlimit="10" d="M-7.1,150.5c8.3,0.9,15.3-8.4,23.6-7.4c0.7,0.1,1.5,0.3,2,0.9
	c0.5,0.6,0.6,1.6,1,2.3c0.9,1.4,2.9,1.2,4.5,0.9c2.6-0.5,5.2-1.1,7.8-1.6c2.7-0.5,5.6-1.2,7.6-3c3.8-3.5,3.1-9.5,2.4-14.6
	c-1.3-8.7-1.8-17.4-1.8-26.2c0.1-6.3,0.5-12.7,3.2-18.5c0.9-1.9,2-3.6,2.6-5.6c0.4-1.3,0.6-2.7,1.1-4.1c1.1-3.7,3.6-6.7,6.3-9.4
	C59.3,57.8,68.3,54.6,74,48c1.6-1.9,2.7-7,4.2-9c2.2-2.9,5.5-4.7,8.2-7c0.8-0.7,1.6-1.4,2.6-1.9c1.8-1.1,3.9-1.5,5.9-2.2
	c2-0.7,4-2.2,5.4-3.8c0.9-1.1,2.6-1.1,3.9-0.5c1.3,0.6,2.3,1.6,3.5,2.4c2.8,1.9,6.5,2.5,9.8,1.5c2.7-0.8,5-2.6,7.2-4.3
	c4.7-3.6,9.5-7.3,14.2-10.9c2.1-1.6,4.2-3.2,6.5-4.6c6.4-3.7,14.5-5.1,19-11c0.8-1,2.2-3,2.9-2c0.8,1.1-0.4,2.8,0.1,4.1
	s2,2.3,3.3,1.8c0.5-0.2,0.9-0.6,1.3-0.9c2.5-1.8,6.6-0.7,7.8,2.2c0.2,0.5,0.4,1.1,0.7,1.4c0.5,0.5,1.2,0.6,1.7,1
	c1,0.6,1.5,1.9,2,3.1c2,4.2,6.9,6.8,11.5,6.2c0.7-0.1,1.5-0.3,2.2-0.2c0.6,0.1,1.2,0.4,1.7,0.6c2.4,1.1,5,1.6,7.6,1.6
	c0.9,0,2.1,0,2.5,0.8c0.3,0.6,0,1.4-0.4,2c-2.3,4.2-4.5,8.3-6.8,12.5c-0.8,1.4-1.5,2.9-1.7,4.4c-0.1,1.4,0.3,2.8,0.8,4.1
	c1.6,3.8,4.7,8.5,8.6,10c3.3,1.3,6.5,3.1,9.2,5.3c1,0.8,2.2,1.8,3.5,1.5c0.6-0.1,1.1-0.5,1.6-0.9c3.1-2.2,6.1-4.4,9.2-6.7
	c2.3-1.7,5-2.9,7.6-4c5-2.2,7.6-7.8,12-10.9c1.9-1.4,4.3-2.3,5.6-4.3c1.3-1.9,1.4-4.5,2.9-6.3c0.8-0.9,1.9-1.6,2.1-2.8
	c0.4-2.2-4.4-3.9-3.1-5.6c1.5-2,4.7-2,6-4.1c0.4-0.7,0.7-1.4,1.3-2c1.4-1.2,3.7-0.4,5.1,0.9s2.3,3.1,3.8,4.2
	c2.1,1.5,4.8,1.6,7.4,1.6c3,0,6.1-0.1,8.6-1.7c2.5-1.7,3.9-4.9,6.6-6.4c0.9-0.5,2-0.8,3-1.1c4.7-1.7,8-5.9,11-9.8
	c2.9-3.7,5.8-7.5,8.7-11.2c0.8-1.1,1.6-2.7,0.6-3.6"/>
<path fill="none" stroke="#E1E1E1" stroke-miterlimit="10" d="M-6,133.8c8.9-6.6,21.3-5.1,30.9-10.7c1.6-0.9-0.8-2.7-2.2-3.9
	c-1.3-1.1,2.2-2,3.6-2.9c1.3-0.9,1.7-2.6,1.9-4.2c1-7.3,0.8-14.8-0.4-22.1c-0.3-1.9-0.7-3.7-0.6-5.6c0.1-1.7,0.6-3.3,1.2-4.8
	c1.7-4.1,4.2-7.8,6.7-11.5c1.4-2,2.8-4.1,4.3-6.1c3.6-4.8,7-10,11.6-13.8c5.1-4.2,8-10.4,13.5-14.1c5.5-3.7,11.3-7,16.1-11.6
	c0.6-0.6,1.3-1.2,2.1-1.5c1.1-0.3,2.3,0.2,3.5,0.4c2.8,0.6,5.8-0.5,7.6-2.7c1.9-2.3,2.8-5.9,5.7-6.7c1.1-0.3,2.2,0,3.4,0
	c5.8,0.2,10.4-4.8,16.1-5.8c3.6-0.6,7.2,0.5,10.9,0.3c3.6-0.2,7.8-2.4,7.9-6c0-1.1-0.3-2.2,0-3.2c0.3-0.8,0.9-1.5,1.5-2.1
	c2-2,4.1-4.1,6.8-4.9c2.4-0.7,4.8-3.1,7.1-2.1c1.2,0.5,1.4,2.2,2.7,2.1c1.3-0.1,2.4-0.9,3.4-1.7c3-2.4,5.8-5.2,8.2-8.2"/>
<path fill="none" stroke="#E1E1E1" stroke-miterlimit="10" d="M-6.3,120.6c3.1-2,6-4,8.6-6.6c2.2-2.2,4-4.7,6.1-7
	c1.6-1.8,3.4-3.5,4.3-5.8c0.9-2.1,1-4.4,1.1-6.6c0.9-13.3,5.2-27.1,15.3-35.6c3.9-3.2,7-6.9,9.7-11.1c2.9-4.5,8.8-6.8,10.7-11.8
	c0.4-0.9,0.6-1.9,1.2-2.7c0.5-0.7,1.3-1.2,2-1.8c2.8-2,5.5-3.9,8.3-5.9c2.7-1.9,5.4-3.8,8-5.7c1.7-1.2,3.4-2.4,5.1-3.6
	c7.4-5.2,14.8-10.5,22.2-15.7c1.5-1,3-2.1,4.7-2.6c1.1-0.3,2.2-0.4,3.3-0.5c5.2-0.6,10.3-2.7,14.4-6c0.6-0.5,1.2-1,2-1.3
	c1.2-0.5,2.6-0.3,3.9-0.4c2.2-0.1,4.4-0.9,5.8-2.5s2.1-4,1.3-6.1"/>
<path fill="none" stroke="#E1E1E1" stroke-miterlimit="10" d="M-5.4,106.2c2.4-2.7,4.7-5.6,6.2-8.8c3-6.5,2.7-14.3,6.6-20.3
	c0.6-1,1.4-1.9,1.8-3c0.6-1.7,0.3-3.5,0.4-5.3c0.1-3,1.4-5.9,3.4-8.2c4.3-4.8,10-7.7,14.8-11.9c3.6-3.2,6.8-7.1,9.1-11.3
	c2.4-4.4,5.5-8.5,8.5-12.5c0.7-1,1.5-1.9,2.5-2.7c1.2-0.9,2.7-1.3,4.1-1.9c6.5-2.6,11.2-8.2,16.4-12.9c4-3.6,8.5-6.8,13.3-9.4
	c1.7-0.9,3.5-1.8,4.9-3.2C87.4-6,88.2-7,89-7.9c1.2-1.1,2.6-2,4-2.9c2.9-1.8,5.8-3.6,8.7-5.4"/>
<path fill="none" stroke="#E1E1E1" stroke-miterlimit="10" d="M-5.3,85.5c0.5-0.6,1.3-0.9,1.6-1.6c0.6-1.1-0.3-2.4-0.6-3.6
	c-0.6-2.3,0.8-4.5,2.2-6.3s3.2-3.6,3.6-5.9c0.2-1.4-0.1-2.9-0.1-4.4c0.1-4.5,4.4-7.3,6.7-11.1c2.4-3.8,6-8.9,10.4-8.3
	c0.9,0.1,1.9-0.9,2.5-1.5c3.5-3.9,6.8-7.9,10.1-12c0.6-0.8,1.3-1.5,1.9-2.3c1.2-1.4,2.3-2.8,3.4-4.3c2.1-2.8,3.8-5.9,5.1-9.2
	c0.4-1,0.8-2.1,1.6-2.9c0.6-0.6,1.5-1,2.3-1.3c4.9-2.2,9.8-4.9,13.2-9.1c0.6-0.7,1.1-1.4,1.7-2.1c0.7-0.7,1.4-1.3,2.2-1.9
	c5.4-4.5,10.4-9.6,14.8-15"/>
<path fill="none" stroke="#E1E1E1" stroke-miterlimit="10" d="M-3.7,54.2c0.5-2.2,0.5-4.8,2.1-6.4c2.1-2.1,5.1-3.6,7.8-5
	c1.7-0.9,3.3-1.8,4.8-3c2.9-2.3,4.9-5.5,7.7-8c2.5-2.3,5.7-4.2,6.6-7.5c0.3-1,0.3-2.1,0.6-3.1c0.4-1.7,1.5-3.1,2.6-4.5
	c3-3.7,6.4-7.2,7.9-11.7c0.3-0.8,0.5-1.6,0.9-2.2c0.9-1.2,2.4-1.7,3.8-2.3c5.5-2.4,9.4-7.3,13.9-11.2c2.5-2.2,5.3-4.1,8-6.1"/>
<path fill="none" stroke="#E1E1E1" stroke-miterlimit="10" d="M376.7,306.4c-2.9-2.4-7.4-1.4-10.6,0.7c-4.6,3-7.9,7.8-9.8,13
	c-1.9,5.2-2.6,10.7-2.8,16.3c0,0.5,0,1,0.3,1.4c0.2,0.3,0.6,0.5,0.9,0.7c2.1,0.9,4.5,1,6.7,0.2c3.2-1.1,5.6-4,7.3-7s2.8-6.3,4.5-9.3
	c1.5-2.5,3.4-4.8,5.6-6.7"/>
<path fill="none" stroke="#E1E1E1" stroke-miterlimit="10" d="M343.3,45.4c0.3-0.3,0.7-0.6,0.8-1c0.2-0.4,0.1-0.9-0.3-1.2
	c-0.2-0.2-0.5-0.2-0.8-0.1c-3,0.2-5.7,1.5-8.4,2.8c-1.4,0.7-3,1.6-3.2,3.2c-0.1,0.4,0,0.9,0.4,1.2c0.4,0.3,1,0.2,1.5,0.1
	C337,49.6,340.5,47.9,343.3,45.4z"/>
<path fill="none" stroke="#E1E1E1" stroke-miterlimit="10" d="M375.6,32.7c-6.6,1.2-12.6,5.2-16.3,10.8c-0.9,1.4-2.1,3-3.7,2.8
	c-0.9-0.1-1.6-0.8-2.4-1.2c-2.7-1.3-5.7,1-7.7,3.2c-3.9,4.3-7.3,9-10.1,14c-0.9,1.6-1.5,4.2,0.3,4.8c0.8,0.3,1.7-0.1,2.6,0
	c1.5,0.2,2.5,1.6,2.8,3.1s0.2,3,0.5,4.4c0.8,3.8,5.6,3.6,8.7,6c1,0.8-1.1,2.1-2,3s-1.9,2.9-0.7,3.2c1.4,0.4,2.9,0.7,3.4,2
	c0.2,0.7,0.3,1.4,0.5,2.1c0.4,1.2,2.1,1.3,2.8,2.4c1.1,1.8-1.2,4-1,6.1c0.2,2.1,1.3,4.1,3.2,5c1.3,0.6,2.7,0.6,4.1,0.6
	c3.7,0,7.7-0.1,10.5-2.6c3.1-2.8,3.5-7.8,6.7-10.5"/>
<path fill="none" stroke="#E1E1E1" stroke-miterlimit="10" d="M228.9,24.7c-1.1-0.3-2,0.8-3,1.3c-0.5,0.2-1,0.2-1.5,0.3
	c-2.6,0.3-5,1.5-7.4,2.7c-0.7,0.3-1.4,0.8-1.5,1.5c-0.1,0.6,0.3,1.2,0.8,1.7c0.8,0.9,1.6,1.7,2.5,2.4c0.2,0.2,0.4,0.4,0.7,0.3
	c0.2,0,0.4-0.1,0.5-0.2c2.9-1.8,5.7-3.8,8.2-6c0.6-0.5,1.3-1.1,1.5-1.9C229.9,25.9,229.6,24.9,228.9,24.7z"/>
<path fill="none" stroke="#E1E1E1" stroke-miterlimit="10" d="M274.6-16.4c-2.1,2.5-3.6,5.6-4.1,8.8c-0.1,0.7-0.2,1.5,0.1,2.1
	c0.3,0.5,0.7,0.9,1.1,1.2c1,0.8,2,1.6,3,2.4c1.3,1,2.7,2.1,4.3,2.2c2.9,0.2,5-2.6,6.5-5.1c1.8-3,2.3-7.6,5.5-9.1
	c1.5-0.8,2.6,2.1,4.1,3c2.9,1.6,6.4-1.5,9.7-1.1c1,0.1,1.9,0.5,2.8,0.5c2.7-0.1,4.1-3.3,4.8-5.9"/>
<path fill="none" stroke="#E1E1E1" stroke-miterlimit="10" d="M-6.3,41.2C-3.1,35.8,4.6,34.9,8.3,30c0.5-0.7,1-1.5,1.6-2.1
	c0.8-0.7,1.8-1.1,2.6-1.6c5.7-3.4,6-11.6,10.2-16.8c0.9-1.1,2-2.1,2.9-3.3c1-1.4,1.7-3,2.5-4.6c1.8-3.4,4.2-6.4,7.2-8.8
	c1.6-1.3,3.3-2.4,4.8-3.7c2.4-2.2,4.1-5.1,5.8-7.9"/>
<path fill="none" stroke="#E1E1E1" stroke-miterlimit="10" d="M-7.3,27.6c6.7-0.4,8.7-7.9,13.1-13.1c1.6-1.9,3.8-3.2,4.5-5.7
	c0.7-2.4,1.2-5.2,3.1-6.8c1.7-1.4,4.4-1.9,5.3-3.9c0.4-0.9,0.3-1.9,0.7-2.8c0.4-1.1,1.4-2,2.3-2.8c3.4-3.3,5.8-7.6,6.7-12.2"/>
<path fill="none" stroke="#D6D6D6" stroke-miterlimit="10" d="M186.9,185.9c4,0.8,8.1,1.6,11.7,3.5c1.2,0.7,2.4,1.5,3.8,1.4
	c1.3,0,2.5-0.9,3.7-1.2c4.1-1.1,7.7,2.7,11.7,4c3.3,1.1,6.8,0.5,10.3,0.4c3.4-0.2,7.2,0.2,9.7,2.7c1.1,1.1,2,2.8,3.6,3.1
	c1.6,0.4,3.2-0.8,4.5-1.9c8-6.8,15.9-13.7,23.9-20.5c2.4-2,4.8-4.1,6.6-6.7c1.5-2.1,2.6-4.5,4.1-6.6c1.6-2.1,3.8-3.9,6.4-4
	c1.4-0.1,2.8,0.3,4.2,0.1c1.5-0.3,2.7-1.5,3.9-2.4c4.5-3.7,9.9-5.8,15.3-8c1.3-0.5,2.6-1.1,4-1.6c6.3-2.5,12.6-5,18.9-7.5
	c2.2-0.9,3.2-1.5,5.5-2.1c1-0.3,2.1,0,3.2,0.2c0.9,0.1,3.1-0.5,4-0.4c1.3,0.2,2.6-0.4,3.8-0.9c10.2-4.6,20.3-9.3,30.5-13.9"/>
<path fill="none" stroke="#D6D6D6" stroke-miterlimit="10" d="M55.5,122.5c0.7,2.1-0.8,4.3-1.9,6.2c-1.8,3.2-3.5,6.8-3.1,10.4
	c0.8,6.3,2.8,12.2,2.1,18.1c-0.2,1.4,0.1,2.9-0.2,4.3c-0.2,1-0.5,1.9-0.6,2.9c-0.2,2.3,0.9,4.5,2.2,6.3c1.3,1.9,3,3.5,4.1,5.5
	c0.4,0.7,0.8,1.5,0.8,2.4c0.1,1.1-0.4,2.2-0.8,3.3c-0.6,1.8-1,3.7-0.7,5.5c0.3,1.9,1.2,3.7,2.8,4.7"/>
<path fill="#EAEAEA" stroke="#D6D6D6" stroke-miterlimit="10" d="M129.8,282.4c-1.1,1.5-0.5,3.7-1.9,4.9c-0.7,0.6-1.5,1.1-2.1,1.8
	c-0.6,0.7-1,1.7-0.7,2.5c0.1,0.3,0.4,0.6,0.6,0.9c0.6,1,0.2,2.3-0.1,3.5c-0.3,0.9-0.6,1.7-0.8,2.6c-0.2,0.5-0.3,1.1-0.3,1.7
	c0,0.6,0.3,1.2,0.9,1.4c0.5,0.2,1,0,1.5-0.1c1-0.3,2-0.6,3-1c0.8-0.3,1.6-0.5,2.3-1.1c0.9-0.8,1.2-2.2,1.2-3.4s-0.3-2.4-0.4-3.7
	c-0.2-2.6,0.7-5.3-0.2-7.8C132.2,283.4,130.6,281.4,129.8,282.4z"/>
<path fill="#EAEAEA" stroke="#D6D6D6" stroke-miterlimit="10" d="M154,270.3c-0.2,0-0.4,0.1-0.6,0.3c-0.8,0.7-1.2,1.9-1,3
	c0.1,0.5,0.5,1.1,1,1.1c0.6,0,0.9-0.6,1.1-1.2c0.3-1,0.6-2.1,0-2.9C154.4,270.4,154.2,270.3,154,270.3z"/>
<path fill="none" stroke="#D6D6D6" stroke-miterlimit="10" d="M131.8,282.9c1.8-0.6,3.8-1.2,5-2.8c1.1-1.4,1.4-3.3,2.3-4.8
	c0.7-1.2,1.8-2.2,2.3-3.5c0.4-1.3,0.3-2.7,0.5-4c0.4-2.4,2-4.4,3.4-6.4c0.1-0.1,0.1-0.2,0.1-0.3c-0.1-0.1-0.2,0.1-0.1,0.1"/>
<path fill="#7BBCEB" stroke="#4E9BD7" stroke-miterlimit="10" d="M186.6,186c0.2-1.4,0-2.9,0.4-4.2c0.7-2.1,2.7-3.5,4.8-4.2
	c2.1-0.7,4.3-0.9,6.4-1.6c1.9-0.7,3.9-2.1,4-4.1c0.1-2.9-3.7-5.3-2.7-8c0.2-0.6,0.6-1.1,0.5-1.7c-0.1-0.4-0.3-0.7-0.4-1.1
	c-0.1-0.6,0.4-1.2,1-1.5c0.5-0.3,1.2-0.5,1.7-0.8c1-0.7,1.3-2.2,0.9-3.4c-0.3-1.2-1.1-2.2-1.9-3.2c-0.2-0.2-0.3-0.4-0.3-0.7
	c-0.1-0.7,0.8-1,1.4-1.5c0.9-0.8,0.9-2.2,0.2-3.2c-1.2-1.8-3.9-2.1-5.9-1.1c-1.9,1-3.2,3-4.1,5c-0.9,2-1.6,4.1-2.9,5.9
	c-0.4,0.5-0.8,1.1-1.2,1.7c-0.8,1.5-0.6,3.4-1.4,4.9c-0.8,1.5-2.6,2.3-4,3.2c-2.1,1.4-3.9,3.4-5,5.7c-0.9,1.9-1.7,4.4-3.8,4.9
	c-1,0.2-1.9,0-2.9-0.1s-2.1,0.3-2.5,1.2c-0.5,1.2,0.8,2.4,2.1,2.8c0.7,0.2,1.5,0.4,1.6,1.1c0,0.2-0.1,0.4-0.1,0.6
	c-0.6,1.5-1.2,3-2.5,4c-1.6,1.2-3.8,1.3-5.7,0.5c-1.8-0.8-3.2-2.3-4.3-4c-0.3-0.6-0.7-1.2-0.5-1.9c0.2-0.7,0.9-1.1,1.4-1.6
	c0.7-0.8,1-1.9,0.6-2.9c-0.4-1-1.4-1.7-2.4-1.6c-1.6,0.1-2.6,1.8-2.9,3.4c-0.3,1.6-0.1,3.2-0.7,4.7c-0.2,0.6-0.6,1.3-0.6,1.9
	c0,1.1,1,2,2,2.5s2.2,0.8,3,1.5c1.1,0.9,1.5,2.5,2.7,3.3c0.8,0.5,2,0.8,2.2,1.7c0.2,0.7-0.2,1.4-0.6,2c-0.3,0.6-0.6,1.3-0.5,2
	c0.1,0.7,0.5,1.4,1.2,1.5c0.5,0.1,1-0.1,1.5-0.4c1.8-0.9,3.5-2.3,5.5-2.4c1.1-0.1,2.4,0.2,3-0.7c0.3-0.4,0.3-1,0.6-1.5
	c0.6-1,2-1,3.2-1C182.7,193.3,186.2,189.9,186.6,186z"/>
<path fill="#EAEAEA" stroke="#D6D6D6" stroke-miterlimit="10" d="M65.9,80.1c-1,1.7-2.2,3.4-3.3,5c-1,1.5-2.2,3-3.9,3.5
	c-0.3,0.1-0.6,0.2-0.8,0.4c-0.2,0.2-0.1,0.6-0.1,0.9c0.4,1.9,1.4,3.6,0.4,5.2c-0.4,0.6-1.3,1.5-1.7,2c-1.9,2.4-0.8,6.1-1.7,9
	c-1,3.1-4.2,5.4-3.7,8.7c0.2,1,0.4,2,0.4,3c0,0.5-0.2,1-0.1,1.6c0,1.2,1,2.2,2.2,2.5c1.1,0.3,2.6,0.4,3.7,0c2.5-1.1,4.3-3.7,5-6.3
	c0.7-2.5,0.2-5.3,1.1-7.7c0.8-2.2,2.7-4,3.2-6.4c0.3-1.4,0.1-3,1.1-3.9c0.7-0.6,1.6-0.7,2.5-0.8c2.6-0.3,5.2-1.2,7.5-2.5
	c0.4-0.2,0.9-0.5,1.2-1c0.2-0.4,0.3-0.9,0.3-1.3c0.1-1.5,0.5-3.2-0.1-4.6c-1-2.2-1.3-3.9,1-4.9c1.5-0.6,3.3-1.1,4.3-2.1
	c0.2-0.2,0.3-0.6,0.5-0.9c0.3-0.4,0.7-0.7,1.1-1c1.4-1,2.7-2,4.1-3c1.6-1.2,3.3-2.4,5.2-3.1c2.3-0.8,5.4-0.4,6.2,1.9
	c0.3,0.8,0.2,1.8,0.8,2.3c1,1,2.7-0.4,2.7-1.8c0-1.5,0.2-2.4-0.8-3.5c-0.4-0.5-2.1-1-2.1-1.7c0-0.4,0.4-2.1,0.6-2.4
	c1.8-3.1,4.2-5.1,7.6-6.6c0.6-0.3,1.1-0.7,1.3-1.2c0.6-1.3-0.9-2.6-2.3-2.7s-2.7,0.5-4.1,0.4c-1.9-0.1-3.6-1.6-5.5-2
	c-3.5-0.7-6.8,2.3-10.3,2.5c-1.8,0.1-3.3-0.1-4.8,0.9c-1.7,1.1-2.1,3.3-3.2,5c-0.8,1.2-1.9,2.2-3,3.2c-2.4,2.2-4.5,4.9-6.9,7.1
	c-1.4,1.3-3,2.3-4.1,3.8C66.8,78.5,66.3,79.3,65.9,80.1z"/>
<path fill="#EAEAEA" stroke="#D6D6D6" stroke-miterlimit="10" d="M141,76.6c0.5-0.1,0.9-0.1,1.4,0.1s0.8,0.7,0.6,1.1
	c-0.1,0.2-0.3,0.4-0.5,0.6c-3.3,2.3-7.3,3.1-11.2,3.9c-0.5,0.1-1.1,0.2-1.7,0.2c-0.7-0.1-1.3-0.4-2-0.7c-1.2-0.6-2.8-0.6-3.5-1.7
	c-0.7-1,0.3-2.5,1.2-3.4c0.9-0.9,2.3-1.3,3.4-0.6c0.8,0.5,1.3,1.4,2,2c1,0.8,2.3,0.9,3.5,0.7c1.2-0.2,2.3-0.8,3.5-1.2
	C138.7,77,139.8,76.8,141,76.6z"/>
<path fill="none" stroke="#D6D6D6" stroke-miterlimit="10" d="M112.1,59c0.2-0.1,0.4-0.1,0.7-0.1c8.3,0.4,16.6,0.2,24.8-0.5
	c1.5-0.1,3.1-0.3,4.5-0.7c1-0.3,2-0.8,3-1.1c4-1.5,8.3-1.5,12.4-2.8c0.6-0.2,1.2-0.4,1.5-0.9c0.5-0.7,0.4-1.6,0.3-2.4
	c-0.2-1.2-0.3-2.4-0.5-3.6c-0.7-5.3-1-12.3,3.2-15.6c1.4-1.1,3.1-1.7,4.7-2.7c1.5-0.9,3-2.4,3.1-4.2c0.1-2.3-2-4.2-4.3-4.7
	c-0.7-0.2-1.5-0.2-2.1-0.6c-1.7-1-1.4-3.5-1.1-5.4c0.7-4.1,0.3-8.9-3-11.5c-1.1-0.8-2.3-1.4-3.3-2.2c-1.2-1.1-2-2.6-3.2-3.7
	c-1.6-1.3-4-1.8-5-3.7c-0.5-1-0.6-2.2-0.5-3.3c0-2.6,0.1-5.3,0.3-7.9"/>
<path fill="none" stroke="#D6D6D6" stroke-miterlimit="10" d="M52.7,211.2c0.2-0.7-0.8-1.1-1-1.8c-0.1-0.3,0-0.6-0.1-0.9
	c-0.1-0.5-0.5-0.8-0.8-1.2c-1.2-1.5-1.2-3.6-1.2-5.6c0-0.5,0-1,0.3-1.5c0.2-0.4,0.5-0.6,0.9-0.9c3.3-2.5,6.6-5.1,9.8-7.6
	c2.7-2.1,5.4-4.2,8.4-5.6c1-0.5,2-1.1,3.1-1.2c3-0.5,5.3-1.4,7-2c1.9-0.6,2.4-0.7,3.8-1.8c1.7-1.3,1.9-3.7,3.1-5.5
	c2.8-4,7.9-5.3,12.7-6.3c4-0.9,7.9-1.7,11.9-2.6c4-0.9,8.1-1.8,11.6-3.9s4.1-6.1,7.2-8.8c2.6-2.4,5.8-3.8,7.5-6.9
	c0.8-1.5,2-2.2,3.5-2.9c1.6-0.7,3.4-1.2,4.9-2.1c4-2.1,6.9-6,8.9-10.1c3.1-6.5,5.5-8,9.2-13.7c1.6-2.5,3.7-10,5.3-12.4
	c2.3-3.4,5.6-6.3,9.6-7.7c1-0.4,3-1,3.7-1.8c1.3-1.4-0.1-3.3,0.4-5.2c0.6-2.5,3.2-4.2,5.7-4.6c2.6-0.4,5.6,2.1,7.7,0.7
	c3.7-2.4,1.6-8.6,2.5-12.9c0.6-2.9,1.2-6.1,3.4-8.1c3.6-3.2,9.1-1.9,13.6-0.1c4.4,1.8,9.3,4.1,13.8,2.2c2.6-1.1,4.4-3.4,6.2-5.5
	c4.1-4.9,8.6-9.4,13.5-13.5c4.5-3.8,10.3-6.7,13.4-11.7c1.1-1.8,1.9-3.7,3.1-5.5c1.6-2.4,3.8-4.3,6-6.2c1.2-1,2.4-2.1,3.8-2.7
	c3.3-1.6,7.1-1,10.7-0.8s7.7-0.3,9.9-3.1c0.9-1.1,1.3-2.4,2-3.6c3.4-6.1,11-8.7,15.4-14.1c1.3-1.6,2.3-3.4,3.7-4.9
	c1.4-1.4,3.4-2.1,5-3.4c6.3-5,12.7-8.2,19.2-10.6"/>
<path fill="#EAEAEA" stroke="#D6D6D6" stroke-miterlimit="10" d="M162,255.3c0.8-0.5,1.7-0.7,2.4-1.3c0.9-0.8,1.2-2.1,1.4-3.2
	c0.3-1.6,0.5-3.5-0.7-4.5c-1.2-1-3.1-0.6-4.5-1.2c-1.2-0.5-2.1-1.7-2.6-2.9c-0.1-0.2-0.2-0.5-0.4-0.7c-0.4-0.4-1-0.4-1.4-0.1
	c-0.5,0.2-0.6,1.2-1.1,1c-1-0.3-1.1-1.8-2.2-1.9s-2,0.4-2.9,1c-0.9,0.6-1.7,1.3-2.6,1.7c-1.9,0.8-4.1,0.6-5.9,1.5
	c-1.9,1-2.9,3.2-3.6,5.3c-0.6,2.1-1.1,4.3-2.3,6.1c-0.8,1.2-1.9,2.1-3.1,2.9c-1.1,0.9-2.2,1.7-3.2,2.6c-0.7,0.5-1.5,1.8-2.2,1.3
	c-0.7-0.5-1.6-1.7-2.3-2.1c-2.2-1.3-4.4-0.8-6.5,0.9c-2,1.6-3.2,4.2-3.6,6.7c-0.3,2.1-0.1,4.5,1.6,5.8c1,0.8,2.5,1,3.8,0.7
	c1.3-0.3,2.4-1.1,3.3-2c0.7-0.7,1.3-1.6,2.1-2.3c3.5-3.5,9.1-4,12.8-7.2c1-0.9,2-2.1,3.3-2.4c1.7-0.4,4.1,0.1,5.8-0.1
	c1.8-0.2,2.5-1.3,4.2-1.6c1.9-0.3,4.4,0.3,6.3-0.3C159.8,258.1,160.3,256.3,162,255.3z"/>
<path fill="none" stroke="#4E9BD7" stroke-miterlimit="10" d="M6.5,366.3c-0.4-1.1-0.8-2.3-1.2-3.4c-0.8-2.2-1.5-4.4-2.7-6.4
	c-1.3-2.2-3-4.1-4.3-6.3c-3.8-6.5-3.7-14.6-3.4-22.1c0.2-4.1,0.7-8.8,4.1-11c2-1.3,4.5-1.4,6.8-2.2c6.5-2.3,9.4-9.9,10-16.8
	c0.6-6.9-0.2-14.1,2.3-20.5c1.6-4.2,4.7-8.2,4-12.6c-0.5-3.2-2.9-6-3.2-9.2c-0.2-2.1,0.8-4.1,1.2-6.2c2.7-13.6,13.3-21.4,20.5-30
	c2.3-2.7,3.3-6.4,6.6-7.7c3.3-1.2,7.2-1.3,10.5,0c3.4,1.3,6.7,2.9,10,3.8c6.4,1.6,12.5,3.9,18.9,5.4c1.3,0.3,2.7,0.6,3.9,0.3
	c1-0.3,1.9-0.9,2.7-1.5c1.9-1.4,3.8-2.8,5.6-4.2c3.3-2.4,6-5.4,8.9-8.2c1.5-1.4,3-2.8,4.6-4.1c8.7-6.9,22-5.5,31.2-11.8
	c1.5-1,3.2-1.9,4.7-2.9c2-1.3,3.6-3,6.5-3.9"/>
<path fill="none" stroke="#585858" stroke-miterlimit="10" stroke-dasharray="4,1" d="M-6.1,251.9c1.3-1.1,2.5-2.1,3.3-3.6
	c1-1.8-1.7-3.7-2.5-5.6c-0.3-0.7-0.6-1.7-0.1-2.3c0.6-0.7,1.7-0.4,2.4,0.2c0.7,0.5,1.4,1.9,2.2,1.4c2.7-1.5,3.8-5.1,6.9-5.7
	c0.9-0.2,1.7-0.2,2.6-0.4c2.1-0.5,3.8-1.8,5.5-3.1c2.8-2.2,5.6-4.3,8.4-6.5c0.8-0.6,1.6-1.2,2.6-1.3c1.3-0.1,2.5,0.7,3.3,1.8
	c0.7,1.1,1,2.4,1.3,3.7c0.4,1.6,0.7,3.2,1.1,4.7c0.5,2.4,1,5.1-0.4,7c-1.6,2.2-5,2.5-6.3,4.9c-1.4,2.4,0.3,5.5,0,8.2
	c-0.1,0.8-0.3,1.5,0,2.2c0.3,0.7,1,0.2,1.8,0.3c2.2,0.3,0.6,4.4,0.9,6.5c0.1,0.5,0.2,1,0.2,1.6c0.4,2.5,0.7,5,1.1,7.5
	c0.1,0.6,1.5,1.2,2,1.6c0.5,0.3,0.5,1.3,1.2,2.1c0.7,0.7,1.9,0,2.8,0.5c0.8,0.5-0.2,1.9,0.1,2.8c0.3,0.9,1.1,1.4,2,1.7
	c1.4,0.5,0.9,2.7,1,4.1c0.1,1.5,1.1,2.4,2.4,3.1c0.7,0.4,0.9,2.1,1.6,1.9c0.7-0.3,0.6-2.1,1.4-1.9c1.2,0.3,1.8,3.2,2.7,2.2
	c0.6-0.6,0.9-1.5,1.7-1.5c0.9,0,1.6,0.5,2.4,0.8c4.4,2,9.5,0.6,14.2-0.6c1.3-0.3,2.7-0.7,3.9,0c0.7,0.4,1.2,1,1.9,1.5
	c1.1,0.7,2.4,0.7,3.7,0.7c4.2-0.1,8.4-0.5,12.5-1.3c0.5-0.1,1-0.2,1.4,0c0.9,0.5-0.6,2.1,0.2,2.8c8,7.2,11,2.7,12.9,3.2
	c1.3,0.4,0.5,2.7,1.2,3.9c0.7,1.2,2,2.1,3.3,2c1.9-0.1,4.5-2.5,5.4-0.9c0.5,0.9,0.8,2.5,1.7,1.9c0.2-0.2,0.4-0.4,0.5-0.6
	c0.7-0.8,2.1-0.4,2.7,0.4c0.6,0.8,0.3,2.1,0.8,3c1.1,1.9,3.7-2.3,5.9-2c1.8,0.3,2.7,3,4.5,2.7c0.7-0.1,1.2-0.7,1.8-1
	c1.7-0.9,3.7,0.2,5.2,1.3c1.5,1.2,3.8,3.4,5.1,2c1.8-1.9,3.6-1.5,6.2-2c2.7-0.5,3.2-4.4,5.5-5.9c0.7-0.5,0.8,0.6,1.2,1.3
	c0.7,1.2,3.2,1.7,2.2,2.7c-1,1.1-2.8,2.5-1.8,3.5c1,0.9,2.5-0.6,3.5-1.5c1-0.9,2.1-1.8,3.4-1.8c1.3,0,1.3,1.4,1.8,2.6
	c0.3,0.6,1.5,0.5,2.1,0.2c0.7-0.4,0.5-1.5,1-2c0.7-0.7,1,1,1.8,1.5c1.5,1,3.6-3,5.1-2.1c0.9,0.5-0.9,2.1-0.4,3
	c0.3,0.6,1.6,0,1.9,0.6c0.5,1.1-1.8,1.6-2.9,2.1c-5.8,2.7-13.2,11.4-12.7,13.7c0.2,0.9,2.3-0.9,2.7-0.1c0.6,1.1-3.2,2.2-2.3,3.1
	c0.6,0.5,1.5-0.1,1.8,0.6c0.3,0.7-0.7,1.9-0.1,2.2c2.3,1.1,4.7-5.4,6.5-3.6c0.6,0.7-0.4,1.8-0.1,2.7c0.2,0.9,1.3,0.9,1.9,1.6
	c0.5,0.6-1,1.7-0.6,2.5c0.3,0.5,1.2,0,1.6,0.3c1.2,1.1-1.1,3.4-0.2,4.8c0.3,0.5,1.3-0.4,1.6,0c0.5,0.7-1.1,1.8-0.6,2.5
	c0.5,0.6,1.8-0.5,2.3,0.1c0.9,1.3-0.8,3.1-0.5,4.6c0.3,1.5,1.6,3,3.2,2.9c0.5,0,0.9-0.2,1.4-0.1c0.4,0.1,0.7,0.3,0.9,0.5
	c1.8,1.4,4.2,2.1,5.4,4.1c0.7,1.2-0.7,3.7,0.6,4.3c1.7,0.7,3.8,0.6,3.9,2.5s-1,3.6-2.1,5.1"/>
<text transform="matrix(1 0 0 1 206.9595 176.2527)"><tspan x="0" y="0" fill="#7BBCEB" font-family="'Verdana-Italic'" font-size="8">Irwin Bright</tspan><tspan x="0" y="9.6" fill="#7BBCEB" font-family="'Verdana-Italic'" font-size="8">Lake</tspan></text>
<text transform="matrix(1 0 0 1 99.6582 41.203)"><tspan x="0" y="0" fill="#585858" font-family="'Verdana-Italic'" font-size="8">Saddle Horse</tspan><tspan x="0" y="9.6" fill="#585858" font-family="'Verdana-Italic'" font-size="8">Lake</tspan></text>
<text transform="matrix(1 0 0 1 13.6564 196.1476)" fill="#585858" font-family="'Verdana-Italic'" font-size="8">Pleasant</text>
<text transform="matrix(1 0 0 1 43.9713 235.6566)" fill="#585858" font-family="'Verdana-Italic'" font-size="8">Valley</text>
<text transform="matrix(1 0 0 1 159.9917 268.1425)"><tspan x="0" y="0" fill="#585858" font-family="'Verdana-Italic'" font-size="8">Table</tspan><tspan x="0" y="9.6" fill="#585858" font-family="'Verdana-Italic'" font-size="8">Lake</tspan></text>
<text transform="matrix(0.3273 -0.9449 0.9449 0.3273 14.5135 258.3559)" fill="#585858" font-family="'Verdana-Italic'" font-size="8">Piute</text>
<text transform="matrix(0.7668 -0.6418 0.6418 0.7668 120.4232 175.6898)" fill="#585858" font-family="'Verdana-Italic'" font-size="8">Creek</text>
<text transform="matrix(1 0 0 1 242.8532 137.5283)" fill="#585858" font-family="'Verdana-Italic'" font-size="8">× 7591</text>
<text transform="matrix(1 0 0 1 193.9136 240.7486)" fill="#585858" font-family="'Verdana-Italic'" font-size="8">× 7311</text>
<path fill="none" d="M290.3,362.4c4.7-10.2,5.5-8.5,8.9-19.1c1.3-4.2,2.3-8.6,3.2-12.9"/>
<text transform="matrix(0.3218 -0.9468 0.9468 0.3218 300.1858 348.2939)"><tspan x="0" y="0" fill="#7D7D7D" font-family="'Verdana-Italic'" font-size="7">8</tspan><tspan x="4.6" y="0" fill="#7D7D7D" font-family="'Verdana-Italic'" font-size="7" rotate="-2.8">8</tspan><tspan x="9.1" y="-0.2" fill="#7D7D7D" font-family="'Verdana-Italic'" font-size="7" rotate="-5.4">0</tspan><tspan x="13.6" y="-0.7" fill="#7D7D7D" font-family="'Verdana-Italic'" font-size="7" rotate="-6.7">0</tspan></text>
<path fill="none" d="M108.5,338c6.7-11.6,24.3-12,36-19c17-10.2,31.4-26.3,40-45"/>
<text transform="matrix(0.8744 -0.4852 0.4852 0.8744 116.2615 333.455)"><tspan x="0" y="0" fill="#7D7D7D" font-family="'Verdana-Italic'" font-size="7">7</tspan><tspan x="4.2" y="0" fill="#7D7D7D" font-family="'Verdana-Italic'" font-size="7" rotate="6">2</tspan><tspan x="8.5" y="0.5" fill="#7D7D7D" font-family="'Verdana-Italic'" font-size="7" rotate="9.5">0</tspan><tspan x="12.8" y="1.2" fill="#7D7D7D" font-family="'Verdana-Italic'" font-size="7" rotate="10.7">0</tspan></text>
<path fill="none" d="M72,200.6c-0.4,2.7,2.8,4.3,5.4,4.9c10.6,2.4,24-6.2,33-0.1"/>
<text transform="matrix(0.9538 0.3005 -0.3005 0.9538 73.5125 206.9643)"><tspan x="0" y="0" fill="#7D7D7D" font-family="'Verdana-Italic'" font-size="7">7</tspan><tspan x="5.1" y="-0.2" fill="#7D7D7D" font-family="'Verdana-Italic'" font-size="7" rotate="-15.5">0</tspan><tspan x="9.8" y="-1.5" fill="#7D7D7D" font-family="'Verdana-Italic'" font-size="7" rotate="-24.1">0</tspan><tspan x="14" y="-3.4" fill="#7D7D7D" font-family="'Verdana-Italic'" font-size="7" rotate="-28.1">0</tspan></text>
<path fill="none" d="M223.8,88.1c-7.7,4.5-8.1,16.2-3.3,23.6c4.9,7.4,20,6.8,21.3,15.6"/>
<text transform="matrix(0.743 0.6693 -0.6693 0.743 218.8587 114.121)"><tspan x="0" y="0" fill="#7D7D7D" font-family="'Verdana-Italic'" font-size="7">7</tspan><tspan x="5.1" y="-0.2" fill="#7D7D7D" font-family="'Verdana-Italic'" font-size="7" rotate="-14.8">4</tspan><tspan x="9.6" y="-1.4" fill="#7D7D7D" font-family="'Verdana-Italic'" font-size="7" rotate="-19.9">0</tspan><tspan x="13.7" y="-3" fill="#7D7D7D" font-family="'Verdana-Italic'" font-size="7" rotate="-18.2">0</tspan></text>
<path fill="none" d="M12.9,60.6c4.3-4.8,10-7.7,14.8-11.9c3.6-3.2,6.8-7.1,9.1-11.3c2.4-4.4,5.5-8.5,8.5-12.5"/>
<text transform="matrix(0.7744 -0.6327 0.6327 0.7744 26.4051 53.0595)"><tspan x="0" y="0" fill="#7D7D7D" font-family="'Verdana-Italic'" font-size="7">8</tspan><tspan x="4.7" y="0" fill="#7D7D7D" font-family="'Verdana-Italic'" font-size="7" rotate="-6">0</tspan><tspan x="9.4" y="-0.5" fill="#7D7D7D" font-family="'Verdana-Italic'" font-size="7" rotate="-12.1">0</tspan><tspan x="14" y="-1.5" fill="#7D7D7D" font-family="'Verdana-Italic'" font-size="7" rotate="-18.4">0</tspan></text>
<path fill="none" d="M326.1,38.7c2.1-1.5,2.2-4.7,4.2-6.3c2-1.6,4.4-2.8,6.4-4.4c1.4-1.1,2.7-2.4,4.3-3.3c1.6-0.9,3.4-0.1,5.2-0.3"
	/>
<text transform="matrix(0.5839 -0.8118 0.8118 0.5839 330.1263 36.5937)"><tspan x="0" y="0" fill="#7D7D7D" font-family="'Verdana-Italic'" font-size="7">7</tspan><tspan x="3.5" y="0.2" fill="#7D7D7D" font-family="'Verdana-Italic'" font-size="7" rotate="21.5">8</tspan><tspan x="7.8" y="2" fill="#7D7D7D" font-family="'Verdana-Italic'" font-size="7" rotate="16.7">0</tspan><tspan x="12" y="3.1" fill="#7D7D7D" font-family="'Verdana-Italic'" font-size="7" rotate="19.3">0</tspan></text>
<path fill="none" d="M251.2,258.7c9.5-18.4,27.6-30.5,45-41.8c13.6-8.8,27.3-17.7,40.9-26.5"/>
<text transform="matrix(0.8392 -0.5439 0.5439 0.8392 304.7005 214.4511)"><tspan x="0" y="0" fill="#7D7D7D" font-family="'Verdana-Italic'" font-size="7">8</tspan><tspan x="4.5" y="0" fill="#7D7D7D" font-family="'Verdana-Italic'" font-size="7" rotate="0">0</tspan><tspan x="8.9" y="0" fill="#7D7D7D" font-family="'Verdana-Italic'" font-size="7">0</tspan><tspan x="13.4" y="0" fill="#7D7D7D" font-family="'Verdana-Italic'" font-size="7" rotate="0">0</tspan></text>
<g>
	<g>
		<polyline fill="none" stroke="#7D7D7D" stroke-miterlimit="10" points="85.2,341.6 85.2,348.7 275.4,348.7 275.4,341.7 		"/>
		<line fill="none" stroke="#7D7D7D" stroke-miterlimit="10" x1="180.5" y1="341.4" x2="180.5" y2="348.7"/>
		<line fill="none" stroke="#7D7D7D" stroke-miterlimit="10" x1="161.2" y1="349.2" x2="161.2" y2="343.7"/>
		<line fill="none" stroke="#7D7D7D" stroke-miterlimit="10" x1="142.4" y1="349.2" x2="142.4" y2="343.7"/>
		<line fill="none" stroke="#7D7D7D" stroke-miterlimit="10" x1="123.3" y1="349.2" x2="123.3" y2="343.5"/>
		<line fill="none" stroke="#7D7D7D" stroke-miterlimit="10" x1="104.6" y1="349.2" x2="104.6" y2="343.7"/>
	</g>
	<text transform="matrix(1 0 0 1 83.7834 339.1469)" fill="#7D7D7D" font-family="'Verdana'" font-size="8">0</text>
	<text transform="matrix(1 0 0 1 174.2945 339.1469)" fill="#7D7D7D" font-family="'Verdana'" font-size="8">0.5</text>
	<text transform="matrix(1 0 0 1 258.3413 339.1469)" fill="#7D7D7D" font-family="'Verdana'" font-size="8">1 mi</text>
</g>
</svg>
