<?xml version="1.0" encoding="utf-8"?>
<!-- Generator: Adobe Illustrator 17.1.0, SVG Export Plug-In . SVG Version: 6.00 Build 0)  -->
<!DOCTYPE svg PUBLIC "-//W3C//DTD SVG 1.1//EN" "http://www.w3.org/Graphics/SVG/1.1/DTD/svg11.dtd">
<svg version="1.1" id="Layer_1" xmlns="http://www.w3.org/2000/svg" xmlns:xlink="http://www.w3.org/1999/xlink" x="0px" y="0px"
	 viewBox="0 0 360 360" enable-background="new 0 0 360 360" xml:space="preserve">
<path fill="none" stroke="#E1E1E1" stroke-miterlimit="10" d="M351.4,230.7c5.7-3.5,13.4-3.4,18.1-8.1c0.5-0.5,0.9-1.1,1.1-1.7
	c0.7-2.3-1.6-4.2-3.4-5.8c-4.3-3.7-3.6-10.5-7.3-14.7c-1.4-1.6-4.3,0.9-5.6,2.7c-1.4,1.7-2.1,3.8-3.3,5.7
	c-6.6,10.9-24.5,12.2-32.3,21.8c-2.2,2.8-2.8,6.6-4,9.9c-1.1,2.8-2.2,5.7-4.1,8.1c-2.3,2.7-5.6,4.4-8.2,6.8
	c-2.9,2.7-4.9,6.4-7.9,8.9c-0.9,0.7-1.9,1.4-2.5,2.4c-0.5,0.8-0.7,1.8-1.2,2.6c-0.6,1-1.6,1.7-2.6,2.4c-3.9,2.7-7.8,5.3-11.7,8
	c-0.5,0.3-1,0.7-1.2,1.3c-0.3,0.9,0.5,1.8,1.2,2.5c1.3,1.2,2.5,2.4,3.8,3.6c2.8,2.7,6.3,5.6,10.1,4.8c1.9-0.4,3.6-1.7,5.4-2.5
	c5.1-2.4,11.8-1.2,16.1-4.9c1.8-1.6,3-3.8,4-6c1.9-3.9,3.8-7.9,5.3-12c0.7-1.8,1.3-3.6,2.2-5.2c1.1-2,2.7-3.7,4.2-5.3
	c2-2.1,3.9-4.2,5.9-6.4c2-2.2,4.1-4.5,6.6-6.2c1.2-0.9,2.6-1.6,3.6-2.8c1.3-1.5,1.9-3.6,2.8-5.4
	C347.2,233.3,349.7,231.8,351.4,230.7z"/>
<path fill="none" stroke="#E1E1E1" stroke-miterlimit="10" d="M50.6-11.4C50.2-7.4,50.8-3.3,48.7,0c-0.9,1.4-2.3,2.5-3.5,3.7
	c-4.2,4.1-7,9.4-9.3,14.8c-1.7,4.1-3.2,8.4-3.6,12.9c-0.1,0.9-0.1,1.7,0.1,2.6c0.2,1.2,0.9,2.2,1.4,3.3c1.6,3.3,2.1,7,1.4,10.6
	c-0.4,2.1-1.3,4.3-3,5.6c-1.7,1.3-5.3,2.2-6,0.1c-1.6-4.8,0.1-10.3-2.6-14.7c-0.3-0.4-0.6-0.9-1.1-1.1c-0.7-0.3-1.4,0-2.1,0.3
	c-3.7,1.8-5.7,3.2-8.8,3.5c-2.3,0.2-5.4-0.5-7.2-1.9c-0.7-0.5-1.2-1.2-1.7-1.8c-0.9-1.1-1.4-2.5-2.6-3.2C-1,34-2,35.2-2.7,35.9
	c-2.2,2-4.6,3.7-7.2,5"/>
<path fill="none" stroke="#E1E1E1" stroke-miterlimit="10" d="M138.5-9.8c0.2,1,0.5,1.9,0.9,2.5c1.2,2,0.7,5.6,2.2,7.3
	c2.5,2.7,1.6,7.3-0.7,10.2c-1.3,1.7-3.6,2.5-4.7,4.3c-4.4,7.1,11.4,19.2,4.6,24c-2.4,1.7-5.8-1.2-8.7-1.8c-0.6-0.1-1.2-0.2-1.8-0.1
	c-1.6,0.5-1.9,3.1-3.6,3.6c-0.8,0.2-1.7-0.2-2.3-0.7c-2.2-1.9-2.9-5-2.9-7.9s0.4-5.9-0.2-8.7c-0.9-4.3-4.2-7.8-7.2-10.9
	c-0.7-0.7-1.3-1.4-2.2-1.7c-1.1-0.5-2.3-0.4-3.4-0.5c-2.6-0.3-5-1.8-6.3-4c-0.6-0.9-1-2-1.8-2.8c-1.6-1.5-4.1-1.3-6.1-2.2
	c-3.3-1.5-4.3-5.7-4.1-9.3c0-0.9,0.1-1.8,0.2-2.7"/>
<path fill="none" stroke="#E1E1E1" stroke-miterlimit="10" d="M270.6-9.4c-4.3,2.3-3.8,10.5-5.3,12.2c-3.9,4.3-3.7,8.1-2.8,13.8
	c0.9,5.7,2.3,8.8,1.1,14.4c-1.8,8.8-10.1,15.5-11.1,24.4c-1.1,10.5,8.2,20.2,6.3,30.6c-1.1,6.2-6,10.9-10.6,15.1
	c-0.7,0.6-1.4,1.3-2.3,1.5c-3.2,0.7-4.4-3.8-4.9-7.1c-1.9-14-15.9-24.9-15.6-39.1c0.2-8.5,5.6-17,2.9-25.1
	c-1.6-4.8-5.8-8.2-9.7-11.3c-8.1-6.4-16.3-12.8-24.4-19.3c-5-4-11.4-2.3-17.4-4.5c-2.1-0.8-2.7-3.2-2.7-6.1"/>
<path fill="none" stroke="#E1E1E1" stroke-miterlimit="10" d="M289-9.7c2.1,7.4,4.1,14.9,10.4,18.1c8.5,4.2,19.7-3.3,27.6,1.8
	c4.1,2.7,7,6.9,9.6,11.1c4.6,7.2,8.9,14.6,13,22.1c6.3,11.7,12,25.4,7.3,37.8c-1.3,3.6-3.6,6.9-7.1,8.6c-2.2,1.1-4.6,1.4-6.9,2.2
	c-9.9,3.5-3.5,15.8-6.7,25.8c-1.5,4.6-10.5,5.3-9.4,10c2.8,11.9,14.8,20.2,16.6,32.3c0.7,4.3,0.6,9,2.8,12.8c1,1.7,2.4,3.3,2.4,5.3
	c0,1.3-0.6,2.4-1.3,3.5c-5.5,9.2-14,16.5-23.9,20.6c-2.6,1.1-5.4,1.9-7.8,3.5c-3.8,2.4-8.3,6.3-10.7,10c-2.9,4.5-6.6,8.4-7.2,13.2
	c-1.1,9.1-6.4,16.6-11.4,24.3c-2.2,3.5-4.7,6.8-7.2,10.1c-4.4,5.6-10,11.1-17.1,11.7c-1.3,0.1-2.6,0-3.8,0.5s-2.3,1.6-2.2,2.8
	c0.1,1.3,1.3,2.1,2.3,2.9c1.7,1.3,3.1,3,4.2,4.9c1.6,2.9,2.3,6.2,3.7,9.2c1.5,3.4,3.9,6.4,6.9,8.7c1.9,1.4,4,2.6,6.3,3.3
	c3.9,1.3,8.2,1.3,12.1,0c2.6-0.8,5.3-2.2,7.9-1.5c1.2,0.3,2.2,1,3.3,1.6c2.8,1.6,6,2.6,9.3,2.9c2.8,0.3,5.8-0.1,8.1-1.7
	c5.1-3.8,3.9-11.9,7.3-17.4c1.7-2.7,4.5-4.6,6.1-7.4c0.3-0.6,0.7-1.2,1.2-1.7c0.5-0.4,1.1-0.6,1.6-0.9c4.6-2.4,2.4-11.9,7.4-13.3
	c7.7-2.1,16.2-0.5,23-4.7c1.1-0.7,2.3-1.5,3-2.6c0.8-1.2,1-2.7,1.5-4c0.9-2.2,2.7-4.1,5-4.9"/>
<path fill="none" stroke="#E1E1E1" stroke-miterlimit="10" d="M-10.7,78.7c2.1,2.8,5.2,4.8,8.7,5.3c0.7,0.1,1.4,0.2,2.1,0.1
	c1.2-0.1,2.4-0.7,3.5-1.2c2.4-1.1,5-2.3,6.6-4.5c0.3-0.4,0.7-1.3,1.2-1.3c3.9-0.4,7.4,2.7,11.3,2c4.6-0.9,8.8-3.9,13.4-3.7
	c4.1,0.1,8.1,2.6,12.1,1.4c0.4-0.1,0.9-0.3,1.3-0.2c0.5,0.1,0.8,0.5,1.2,0.9c2.6,2.5,6.8,2.4,10.2,1.2c3.4-1.2,6.3-3.4,9.6-4.9
	c0.8-0.4,1.6-0.7,2.5-0.5c0.6,0.2,1.1,0.6,1.6,0.9c2.2,1.4,5,1.1,7.5,0.5c8.3-2.1,15.3-7.8,21-14.2c0.7-0.8,1.7-1.8,2.8-1.6
	c1.5,0.2,2,2.2,1.7,3.7c-0.8,4.1-4.2,8-2.8,12c0.8,2.1,2.8,3.6,4.1,5.4c1.5,2,2.2,4.5,2.9,6.9c1.2,4.5,0.3,10.3,3.7,13.5
	c3.9,3.6,10.3,3,14.7,6.1c0.8,0.6,0.9,1.7,1.9,2.1c7.5,3,9,0.7,13.5-0.2c1.2-0.2,2.8,1.4,3.9,1.6c2.3,0.5,3.7,2.9,5.5,4.4
	c4.3,3.6,11.8,1.9,14.1-3.2c0.6-1.4,0.9-2.8,1.6-4.1c1.4-2.5,4.4-3.9,6.2-6.2c3.7-4.8,1.4-11.9-2.4-16.6c-1.3-1.6-2.9-3.6-2-5.5
	c0.3-0.7,1-1.3,1.7-1.8c2.3-1.7,4.5-3.4,6.8-5.1c0.7-0.6,1.5-1.1,2.5-1.2c0.9,0,1.7,0.5,2.6,0.8c2.7,1,4.9-3.3,7.7-2.5
	c5.7,1.7,4.6,11.5,10.4,12.9c2.4,0.6,5.2,0.5,6.9,2.3c1.7,1.7,1.9,4.4,1.9,6.8c0.1,5.7,0.5,12.1,4.7,15.9c3.7,3.4,9.2,3.6,14.1,4.7
	c10.3,2.3,20,7.8,30.6,8.1c23,0.6,23.3-11.8,26.4-10.3c7.3,3.7,5.9,15.5,5.3,23.6c-0.1,2.2-0.5,4.4,0.3,6.5
	c1.9,4.5,11.6,5.5,10.2,10.2c-1,3.5-0.6,6.7,1.8,9.5c4.3,5.1,12.8,8.2,13.4,14.9c0.6,5.7-6.3,9.7-9.4,14.5
	c-5,7.7-10.1,15.4-15.1,23.1c-0.8,1.2-1.6,2.4-3,2.7c-1.2,0.3-2.5-0.2-3.7-0.2c-5.8-0.1-4.6,9-9.5,12c-2.7,1.7-7.7,0.1-10.8,0.5
	c-2.1,0.3-2.5,2.1-3.3,3.8c-0.7,1.3-2.1,3.2-3.6,3.2c-3.6-0.1-6.3-4-9.7-2.8c-3.4,1.1-5.9,4.5-6.1,8.1c-0.1,1.6,0.3,3.4-0.2,4.9
	c-0.7,2.2-3,3.5-3.9,5.7c-0.8,2.2-0.1,5.1-2,6.5c-1.4,1.2-3.5,0.6-5.4,0.4c-4.5-0.4-9.2,2.2-11.2,6.3c-2.4,5-0.9,11-1.8,16.5
	c-0.3,1.7-0.8,3.3-0.8,5c-0.3,5.2,3.2,9.7,6.6,13.7c1.1,1.3,2.3,2.7,3.9,3.2c2.7,0.8,6.5-0.9,8.1,1.5c0.9,1.3,0.4,3.3,1.4,4.5
	c1.1,1.3,3.1,1.1,4.7,0.5c1.6-0.6,3.2-1.6,4.9-1.3c2.3,0.4,3.6,2.8,5,4.7c4.8,6.4,13.7,7.7,20.7,11.6c0.9,0.5,1.8,1.1,2.3,2
	c0.9,1.6,0.4,3.6,0.2,5.4c-0.3,2.8-0.6,6.6,1.8,8.1c2.2,1.4,5.1-2.1,7.7-1.4c4.7,1.3,1.9,9.8,5,13.5c2.9,3.5,8.9,3.7,12,0.3
	c1-1.1,1.7-2.4,2.9-3.3c2.6-1.9,6.6-0.9,9.2-2.7c1.8-1.3,2.5-3.5,3.6-5.4c2.2-3.9,6.5-6.7,11-7.1c1-0.1,2-0.1,2.7-0.8
	c0.5-0.4,0.7-1.1,1.1-1.7c1-1.6,3.2-2.2,5.1-2c1.9,0.2,3.7,1,5.5,1.5c3.5,1,7.1,1.2,10.7,1.4c4.3,0.2,9.3,0.1,11.9-3.3
	c3-4,0.6-9.9-2.8-13.6c-3.4-3.7-12.3-8-9-11.8c2.6-3.1,7.6-2.3,10.4-5.1c2.8-2.8,5.3-6.1,8.9-7.9"/>
<path fill="none" stroke="#E1E1E1" stroke-miterlimit="10" d="M-10.1,295.2c4.7,0.9,10.2,1.6,13.6-1.8c1.2-1.2,1.9-2.8,2.6-4.4
	c1.1-2.6,2.3-5.3,4.3-7.3c2-2,5.1-3.2,7.7-2.2c3,1.2,5,4.9,8.2,4.8c2.2-0.1,4-2,6.1-2.2c5.1-0.5,6.6,7.6,11.4,9.4
	c0.5,0.2,1.1,0.3,1.6,0.6c0.9,0.6,1.2,1.7,1.5,2.7c1.5,4.2,5,7.5,9,9.5c3.8,1.9,8.2,2.8,11.3,5.7c3.1,2.9,4.5,7.6,8,10.1
	c4.6,3.3,11.2,1.7,16.3,4.1c4.8,2.3,7.4,7.5,12.1,10.1c1.2,0.7,2.5,1.1,3.9,1c3.7-0.3,5.8-4.5,5.9-8.2c0.2-3.7-0.7-7.5,0.2-11
	c1.1-3.9,4.2-6.9,5.7-10.6c1.7-4.4,1.3-9.9,4.9-12.9c0.7-0.6,1.5-1,2.1-1.8c0.9-1.3,0.7-3,0.4-4.5c-1.1-5.9-2.8-12.3-0.3-17.8
	c0.9-1.9,2.3-3.8,2.3-5.9c0-3.6-3.8-6.2-4.2-9.7c-0.3-2.2-0.2-4.3-1.2-6.4c-2.1-4.9,1.2-11.1,5.2-14.6c3.3-2.9,7.7-3.3,12-3.9
	c9.6-1.2,18.9-4.9,28.5-5.1c0.5,0,1.1,0,1.5,0.2c1,0.6,1,2,0.8,3.2c-0.3,1.3-0.6,2.5-1.1,3.7c-1.2,3.3-3,6.9-3.7,10.4
	c-0.1,0.5-0.2,1,0,1.5c0.2,0.7,0.7,1.1,1.2,1.6c1.8,1.8,2.7,4.4,2.5,6.9c-0.1,1.1-0.3,2.2-0.1,3.3c0.7,4,7.1,5.8,6.6,9.9
	c-0.1,0.7-0.4,1.3-0.4,2c0,0.9,0.5,1.7,0.9,2.5c1.9,3.5,2.5,7.6,1.8,11.5c-0.3,1.8-0.9,3.6-0.5,5.3c0.6,2.5,3.2,4,4.7,6.1
	c1,1.5,1.5,3.2,2,4.9c0.9,3.2,1.9,6.4,2.8,9.7c0.1,0.5,0.3,1,0.2,1.5c-0.2,0.6-0.7,1-1.1,1.5c-1.4,1.6-1.5,4.1-0.7,6.1
	c0.8,2,2.2,3.7,3.6,5.3c0.8,1,2.1,1.7,2.5,2.9c1.1,3.3,3,5.8,4.6,8.9c1.7,3.2,0,7.2,1.9,10.3s5.6,5.2,9.2,4.6
	c3.4-0.6,5.9-3.4,9.1-4.8c3.2-1.4,6.9-1.3,10.4-1.2c0.6,0,1.2,0.1,1.6,0.4c0.3,0.3,0.5,0.6,0.7,1c1.2,2.5,1.8,5.3,1.8,8.1
	c0,1.7-0.2,3.4,0.3,5c0.5,1.5,1.5,2.7,2.5,3.9c3,3.5,6.4,7.3,11,8c2.8,0.4,5.6-0.4,8.5-0.5c2.8-0.1,6.1,0.9,7.2,3.5
	c0.7,1.6,0.3,3.5,0.8,5.2"/>
<path fill="none" stroke="#E1E1E1" stroke-miterlimit="10" d="M225.8,229.6c1-2.2,0.8-3.9,1.7-6.2c0.5-1.2,1.4-2.1,2.2-3.1
	c0.9-1.1,1.6-2.2,2.2-3.5c0.1-0.2,0.2-0.5,0.2-0.8c0-0.4-0.3-0.7-0.6-0.9c-1.5-1.1-3.5-1.5-5.4-1.1c-1.2,0.3-2.3,1-3.5,0.9
	c-1.5,0-2.8-1.1-4.3-1.3c-2.7-0.4-4.8,2.3-6.2,4.6c-1,1.8-2,3.6-2.4,5.6s-0.3,4.2,0.8,5.9c1,1.6,3.2,3,4.1,4.6
	c0.7,1.3,1.2,3,2.6,3.4c0.3,0.1,0.7,0.1,1,0c1.9-0.3,3.4-1.7,4.4-3.3S225,231.4,225.8,229.6z"/>
<path fill="none" stroke="#E1E1E1" stroke-miterlimit="10" d="M235.1-12.6c0,2.8,0.2,5.7,0.9,8.4c0.9,3.7,2.8,7.7,1.2,11.1
	c-0.3,0.6-0.7,1.2-1.4,1.5c-0.9,0.4-1.9,0.1-2.9-0.2c-6.2-2-12.5-4.2-18-7.8c-4.4-2.9-8.3-6.7-10.5-11.4"/>
<path fill="none" stroke="#E1E1E1" stroke-miterlimit="10" d="M376.5,158.2c-0.7,1.7-1.6,3.4-3,4.7c-2.2,2-6.2,2.3-7.7-0.2
	c-0.3-0.6-0.5-1.2-0.7-1.9c-3.4-14.7,5-29.2,7.9-44.1c3.7-19.3-2.2-39-9.3-57.4s-15.5-36.5-17.1-56.1c-0.4-4.6-0.4-9.2-0.5-13.8"/>
<path fill="none" stroke="#E1E1E1" stroke-miterlimit="10" d="M-10,146.1c1.2-0.2,2.4-0.4,3.5-0.6c2-0.3,4-0.7,5.7-1.8
	c2-1.3,3.2-3.6,4.3-5.8c0.5-1,1-2.1,1.5-3.1c0.4-0.9,1.2-2.4,2-1.9c1.9,1.3,1.1,4.5,1,6.8c0,0.8,0.4,2.3,1,2.8
	c3.1,2.2,7,4.1,7.7,7.9c0.4,2.2,0.3,4.5,0.1,6.7c-0.3,5.8-0.6,11.6-0.9,17.4c-0.1,2.4-0.2,4.8,0.4,7c0.7,2.3,2.3,4.4,4.6,5
	c1.9,0.5,4-0.1,5.8,0.8c1.5,0.8,2.3,2.4,3.6,3.5c1.6,1.3,4-0.4,5.7,0.7c1.3,0.8,0,3.1,0,4.6c0,3.9,0.2,8.3,2.9,11.2
	c2.2,2.3,5.5,3.2,8.7,3.3c0.9,0,1.9,0,2.6,0.5c1.2,0.9,1.2,2.8,0.4,4.1c-0.8,1.3-2.1,2.2-3.1,3.3c-1.1,1.1-2,2.6-1.6,4
	c0.3,1.4,1.7,2.3,2.7,3.3c1.2,1.2,1.4,3,2.5,4.4c1.4,1.8,3.7,2.4,5.8,3.5c1,0.5,2,1.1,2.6,1.9c0.6,0.9,0.8,2.2,0.1,3
	c-0.5,0.6-1.3,0.7-1.9,1.2c-2,1.4-1.6,4.5-0.6,6.7c0.9,2.3,2.7,5.2,1,7c-2.5,2.7-6.2,3.8-9.3,5.7c-1,0.6-2,1.2-3.1,1
	c-0.9-0.2-1.5-0.8-2.3-1.3c-1.4-0.8-3-0.9-4.5-1.5c-2.2-0.8-3.9-2.6-5.7-4.1c-1.8-1.5-4.1-2.7-6.4-2.3c-2,0.4-3.6,1.9-4.5,3.7
	c-0.9,1.8-2.5,4-1.6,5.8c1.9,3.5,7.3,3.1,11,4.6c1.5,0.6,3,1.3,4.2,2.4c0.9,0.9,1.5,2.1,2.5,3c0.8,0.7,1.8,1.1,2.7,1.5
	c3.3,1.8,5.7,4.8,8,7.7c4.6,6,9.3,11.9,13.9,17.9c0.5,0.6,1,1.3,1.7,1.7c0.7,0.4,1.6,0.5,2.5,0.5c2.6,0.2,5.8-1.3,7.7,0.5
	c2,1.9,2.9,4.7,5.5,5.5c2.6,0.8,5.5,0.9,8.1,1.8c3.3,1.1,6.2,3.4,9.6,4c1.2,0.2,2.4,0.2,3.6,0.3c3.8,0.5,7-4,8.4-7.5
	c1.4-3.6,1.6-7.5,1.7-11.3c0.2-5.1,0.4-10.2,0.5-15.4c0.1-2.1,0.1-4.3-0.9-6.1c-1.3-2.3-4.1-3.3-6.7-3.9c-2.6-0.6-5.4-0.9-7.5-2.4
	c-0.3-0.2-0.7-0.5-0.8-0.9c-0.2-0.5-0.1-1.1,0-1.6c1.1-3.8,4.6-7.4,3.3-11.2c-0.8-2.3-3.2-3.7-5.6-3.9c-2.4-0.2-5.2,2.7-7.1,1.3
	c-1.5-1.2-1.1-3.7-1.3-5.6c-0.4-3.4,3.3-5.5,5-8.5c0.7-1.2,0.5-4.3,1.1-5.5c0.7-1.5,2.1-2.6,3.2-3.9c0.7-0.9,1.4-1.8,1.7-2.8
	c0.2-0.8,0.2-1.6,0.3-2.5c0.5-2.7,3-4.5,5.5-5.6c2.5-1.1,5.2-1.9,7.2-3.8c1-0.9,1.8-2.1,3-2.6c2.5-1,5,1.2,7.7,1.7
	c1.3,0.2,2.7,0,4,0.1s3.4,0.6,3.9,1.9c5,12.4,22.1,2,29.2-6.5c0.6-0.8,1.2-1.6,1.5-2.5c0.3-1.1,0-2.2-0.2-3.2
	c-1.4-6.4-2.9-13.1-7.1-18.3c-1-1.2-2.1-2.3-2.9-3.6c-1.2-2-1.8-4.3-3.1-6.2c-3.1-4.5-8.5,0.7-11.1-4.1c-0.7-1.2-0.9-2.1-1.6-3.4
	c-0.3-0.7-0.5-1.4-1-2c-0.3-0.4-0.7-0.7-1.1-1c-1.2-0.9-2.3-1.7-3.5-2.6c-0.8-0.6-2.1-1.7-1.4-2.4c1-1.1,2.9,0.3,4.3,0.8
	c2,0.7,4.2,0.7,6.3,0.3c1.3-0.2,2.5-0.6,3.5-1.3c1-0.7,1.8-1.9,2-3.1c0.1-1.4-1.1-2.6-1.3-4.1c-0.3-1.8-0.4-6.1,1-7.3
	c7-5.8,7.3-2.1,13.8-6.6c3.5-2.4,6.5,6.1,10.7,6.1c2.9,0,4.7-3.1,7.3-4.3c3.4-1.6,8.1,0,10.6-2.7c0.6-0.6,1.1-1.5,1.9-1.8
	c1.2-0.5,2.6,0.4,3.6,1.3c6.3,5.5,12.3,12.7,20.6,13.7c2.8,0.4,5.7-0.1,8.5,0.5c2.6,0.5,4.9,1.7,7.4,2.5s5.4,0.9,7.5-0.6
	c2.3-1.7,3.8-5.3,6.6-4.8c2.3,0.4,2.9,3.3,3.6,5.5c0.7,2.3,1.9,4.4,3.6,6.2c0.7,0.8,1.7,0.9,2.7,1.3c1.2,0.6,3.1,0,3.6-0.8
	c2.2-3.3,3.8-8.8,6.5-8.5c4.5,0.6-6.1,12.5-3.2,18.8c1.1,2.4,5.1-1.4,5.3,1.2c0.3,4.7-6.2,7.1-9.3,10.7c-0.3,0.3-0.6,0.7-0.6,1.1
	c-0.1,1.2,1.6,1.5,2.7,1.4c5.9-0.4,11.9,1,17,4c0.4,0.2,0.7,0.4,1,0.8c0.4,0.6,0.3,1.4,0.2,2.1c-0.6,3.4,1.3,8.5-1.7,10.1
	c-4.6,2.3-10.3-1.7-15,0.7s-7,9.2-12.1,9.6c-4.7,0.4-10.1,0.5-10.2,5.2c0,3.4,5.4,8.2,2.2,9.4c-2.4,0.9-3.3-1.5-4.8,0.5
	c-0.9,1.1-2.1,3.5-3.1,5.9c-1,2.4-3.2,4.8-3,7.4c0.1,0.9,0.3,1.9,0,2.7c-0.3,0.9-1,1.6-1.7,2.2c-1.3,1.1-2.8,1.9-4.4,2.5
	c-6.5,2.1-14.4-1.1-19.9,2.9c-0.2,0.2-0.5,0.4-0.6,0.6c-0.8,1.3,0.9,2.7,1.9,3.8c3.8,3.9,1.2,11.5,5.4,15c0.7,0.6,1.5,0.9,2,1.6
	c1.3,1.6,0.5,3.9,0,5.9c-1.4,4.7-1.4,10,0.5,14.5c0.7,1.6,1.5,3,2.2,4.6c2.9,6.9-1.7,17.6,4.4,21.9c2,1.4,4.9,0.5,7.3,0.7
	c1.7,0.2,3.5,0.3,5.1,1c4,1.6,6.8,5.9,11.1,6.2c2.7,0.2,5.6-1.2,8,0.1c1.5,0.8,2.2,2.4,3.5,3.5c1.6,1.5,3.9,2,6.1,2.4
	c0.6,0.1,1.1,0.2,1.7,0.3c2.6,0.5,5.6,1.4,6.4,3.9c0.4,1.2,0.1,2.5,0.1,3.8c-0.2,7,10.3,9.7,11.5,16.6c0.9,5.1-3.2,10.3-0.8,14.9
	c0.5,0.9,1,1.7,1.1,2.7c0.2,1.7-1,3.4-0.2,4.9"/>
<path fill="none" stroke="#E1E1E1" stroke-miterlimit="10" d="M190.7,257c1.6-0.3,1.9-2.8,1.9-4.5c0-0.5,0-1-0.3-1.4
	c-0.2-0.3-0.4-0.4-0.7-0.7c-1-1-0.7-2.7-0.3-4c0.5-1.3,1.2-2.7,0.9-4.1c-0.4-2.1-2.8-3.3-4.9-3.2c-1,0-2.1,0.2-3,0.6
	c-1.8,0.8-3.3,2.1-4.7,3.5c-0.9,0.8-1.8,1.7-2.1,2.9c-0.3,1.3,0.2,2.6,0.4,3.9c0.4,2.2,0,4.8,1.6,6.4
	C181.6,258.4,187.9,257.5,190.7,257z"/>
<path fill="none" stroke="#E1E1E1" stroke-miterlimit="10" d="M195.2,272.5c-0.6,0.2-1.2,0.3-1.8,0.3c-1.3,0-2.6-0.8-3.5-1.7
	c-1.3-1.2-2.2-2.9-2.1-4.7s1.5-4.1,3.2-3.6c1.1,0.3,2.3,0.5,3.3,0.9c1,0.4,1.6,1.4,2.5,2c1,0.7,1.6,1.9,1.6,3.1c0,1.2-0.6,2.4-1.6,3
	C196.3,272.2,195.8,272.4,195.2,272.5z"/>
<path fill="none" stroke="#E1E1E1" stroke-miterlimit="10" d="M70.4,279.3c-1.1,0.4-1.9,1.4-2.2,2.6c-0.2,1.1,0.2,2.4,1,3.2
	c1.2,1.1,3.9,0.9,5.2-0.1c0.6-0.4,1-1,1.3-1.7c0.4-1.2,0-2.7-0.9-3.6C73.9,278.8,71.7,278.9,70.4,279.3z"/>
<path fill="none" stroke="#E1E1E1" stroke-miterlimit="10" d="M301.8,375.5c-1.3-2-0.5-4.9,1.2-6.6c1.7-1.7,4-2.6,6.3-3.5
	c3.7-1.4,7.3-2.7,11-4.1c1.7-0.6,3.4-1.3,4.6-2.5c0.7-0.7,1.2-1.6,2-2.2c0.8-0.7,1.9-1.1,2.9-1.4c5.2-1.8,10.3-3.5,15.5-5.3
	c0.7-0.2,1.4-0.5,2.1-0.4c0.7,0.1,1.2,0.5,1.8,0.7c4.8,2.4,10.6,0.5,15.9,1.4c2,0.3,4,1.1,6,1.3c2,0.2,4.3-0.2,5.7-1.7"/>
<path fill="none" stroke="#E1E1E1" stroke-miterlimit="10" d="M-10,304.4c6.6,2.9,14.4,10.2,20.4,6.3c4.7-3,2.3-13.2,7.7-14.7
	c5.1-1.4,9.8,4.4,13.6,8.1c2.9,2.8,5.4,6.2,9.1,7.6c3.4,1.3,7.2,0.6,10.8,1.2c3.6,0.6,7.5,3.3,7,6.9c-0.2,1.2-0.8,2.3-0.9,3.5
	c-0.1,2.4,2.1,4.3,4.2,5.5c5.5,3.2,11.8,5.1,18.2,5.4c2,0.1,4.1,0.1,6,0.8c2.2,0.8,3.8,2.7,5.7,4.2c15.9,11.8,16.3,21.8,20.8,20.3
	c6.1-2-0.7-22.6,6.3-30.5c2.9-3.2,7.2-4.6,10.9-6.8c3.7-2.2,7.1-6.4,5.8-10.5c-0.4-1.3-1.2-2.4-1.5-3.8c-0.6-2.8,1.2-5.5,2.5-8.2
	c5.2-11.1,0.2-26.4,8.7-35.2c3.6-3.7,5.7-8.8,10.2-11.3c3.1-1.7,4.9,5.8,3.4,9c-0.8,1.6-2.2,3-2.4,4.8c-0.5,4.8,7.2,5.9,9.1,10.3
	c0.5,1.1,0.6,2.4,0.6,3.6c0.4,7.6,7.3,18.4,1.1,22.7c-3.8,2.6-9.5,0.6-11.9,4.5s-2.4,9-1.4,13.5c0.2,0.9,0.4,1.7,1,2.4
	c1.1,1.2,3,1,4.6,0.9c7.6-0.5,15.4,2.2,21.1,7.2c4.8,4.3,8.1,10.1,10.8,16c1.3,2.8,0.7,5.7,1,8.8c0.6,5.4,6.5,8.7,10.6,12.3
	c1.6,1.4,2.5,3.8,1.5,5.8"/>
<path fill="none" stroke="#E1E1E1" stroke-miterlimit="10" d="M111.6,373.9c0.9-3,4.6-4.1,6.3-6.7c0.7-1,1-2.2,1.4-3.3
	c1.2-4.2,2.5-8.3,3.7-12.5c0.4-1.3,0.8-2.7,1.7-3.8c1-1.2,2.5-1.9,3.6-3c1.8-1.7,2.7-4.4,4.8-5.8c1.1-0.7,2.5-1.1,3.5-1.9
	c1.6-1.3,2.2-3.4,3-5.3c0.4-0.9,1.1-1.8,2-1.8c0.5,0,1,0.4,1.4,0.7c1.2,1.1,2.2,2.4,3,3.9c0.6,1.1,1,2.4,1.9,3.3
	c1.9,2,5,1.9,7.8,1.9c5.5,0,10.9,1,16.1,2.8c1,0.4,2,0.8,2.7,1.6c0.5,0.6,0.8,1.3,1.3,1.9c0.6,0.7,1.4,1,2.2,1.4
	c4.6,2.4,8,6.8,9.3,11.8c0.5,1.9,0.7,3.9,1.4,5.7c0.8,2,2.4,3.7,3.3,5.7c0.5,1.1,0.8,2.4,0.9,3.6"/>
<path fill="none" stroke="#E1E1E1" stroke-miterlimit="10" d="M124.2,372.5c4.1-2.5,8.3-5,11.7-8.5c2.3-2.4,4.3-5.1,6.2-7.8
	c0.8-1.1,1.5-2.2,1.7-3.5c0.3-1.9-0.6-4,0.4-5.7c0.9-1.5,3.1-1.7,4.9-1.2c1.7,0.5,3.3,1.5,5.1,1.9c1.3,0.3,2.8,0.1,4,0.8
	c0.9,0.5,1.5,1.4,2.3,2.2c2.9,3,7.9,3.3,10.8,6.3c1.5,1.5,2.3,3.5,3.8,5c1,1,2.3,1.7,3.4,2.7c2.4,2.1,3.7,5.4,3.4,8.6"/>
<path fill="none" stroke="#E1E1E1" stroke-miterlimit="10" d="M-8.9,329.6c1.3-3,4.1-5.2,7.2-6.2s6.5-1,9.6-0.2
	c3,0.7,6.4,1.9,8.9,0.2c2.3-1.6,2.8-5,5.2-6.3c0.4-0.2,0.9-0.4,1.4-0.2c0.5,0.2,0.9,0.7,1.2,1.1c2.1,3.6,3,8.3,6.7,10.2
	c3.3,1.7,7.5,0.2,11.1,1.3c2.7,0.8,4.8,3.1,5.4,5.8c0.3,1.3,0.3,2.7,0.5,4c0.7,5,4.8,9.4,9.8,10.4c2,0.4,4.2,0.4,5.7,1.7
	c0.6,0.5,1,1.2,1.7,1.6c0.6,0.4,1.3,0.5,1.9,0.6c3.6,0.5,7.4-0.3,10.6-2.2c0.5-0.3,1-0.6,1.6-0.7c1.1-0.1,2.1,0.8,2.9,1.6
	c7.1,7.4,14.8,14.3,23,20.6"/>
<path fill="none" stroke="#E1E1E1" stroke-miterlimit="10" d="M-10.1,354.5c3.8,1.8,8.4,1.8,12.2-0.1c3.8-1.8,6.7-5.5,7.6-9.6
	c0.2-0.8,0.3-1.7,0.7-2.4c0.5-0.9,1.4-1.4,2.2-2c2.7-1.8,6.2-3.5,8.8-1.6c1.5,1.2,2.1,3.3,3.8,4.3c1.9,1.1,4.4,0,6.5,0.5
	c1.3,0.3,2.4,1.2,3.4,2.1c4.4,4.4,6.7,10.7,6.7,17c0,3.9-0.8,7.8-1.6,11.7"/>
<path fill="none" stroke="#D6D6D6" stroke-miterlimit="10" d="M321.9,59.6c-7.4,4.8-14.5,11.9-18,20.1c-3,7.2-4,15.4-8.8,21.5
	c-1.8,2.3-4.1,4.2-5.5,6.8c-3,5.5-1.1,13-4.9,18c-3.7,5-11.6,5.7-14.8,11c-0.8,1.2-1.2,2.7-2.1,3.8c-1.3,1.9-3.4,3-5,4.5
	c-4.2,3.9-5.3,10.1-8.2,15c-2.3,3.9-5.6,7-8.1,10.8c-2.5,3.9-4.2,12.6-6,12.7c-5.5,0.5-9.8,2.5-14.8,3.8c-1,0.3-2,0.5-3.1,0.8
	c-2.7,0.7-5.5,1.4-8.1,0.4c-2.3-0.8-4-2.7-5.5-4.6c-6-7.9-6.4-8.4-8.3-8.7"/>
<path fill="none" stroke="#D6D6D6" stroke-miterlimit="10" d="M144.8,107.7c1,3.6,2.1,7.2,3.1,10.8c0.6,2.1,1.2,4.3,2.3,6.2
	c0.9,1.7,2.2,3.1,3.2,4.7c2.6,4.1,3.5,9.2,2.6,14c-0.3,1.6-0.8,3.2-0.6,4.8c0.3,1.9,1.4,3.7,2.9,5c6.1,5.2,12.3,11.1,15.4,16.8"/>
<path fill="none" stroke="#D6D6D6" stroke-miterlimit="10" d="M333.8,172.9c-4.8-0.4-9.6,0-14.3,1.2c-1.9,0.5-3.8,1.1-5.7,1.2
	c-2.9,0.1-5.8-0.9-8.7-0.5c-3.2,0.4-5.9,2.4-8.7,3.9c-2.4,1.3-5,2.4-7.6,3.4c-2.1,0.8-4.1,1.6-6.3,1.9c-1.5,0.2-3,0.1-4.4,0.4
	c-2.3,0.4-4.4,1.7-6.6,2.4c-3.2,1.1-6.7,0.9-10.1,0.9c-7.3,0-11.4-1.3-17.2-2.6c-0.9-0.2-2.5-0.7-3.5-1"/>
<path fill="#EAEAEA" stroke="#D6D6D6" stroke-miterlimit="10" d="M336.6,40.6c-0.6-1.1-2.1-1.2-3-2c-0.9-0.9-0.8-2.3-0.8-3.6
	c0-1.2,0.1-2.9-1.1-3.2c-1.9-0.4-3.4,2.4-5.2,3.1c-0.7,0.2-1.4,0.2-2,0.6c-0.5,0.4-0.7,1-0.9,1.6c-1.8,5.9-3.3,11.9-4.4,18
	c-0.1,0.5-0.2,1,0,1.5c0.2,0.6,0.7,1.1,1.2,1.5c1.7,1.4,3.5,2.8,5.2,4.2c1.1,0.9,2.3,1.8,3.6,2.2s3.1,0.4,3.9-0.8
	c0.2-0.3,0.4-0.7,0.7-1c1.5-1.5,3.9,0.6,6-0.7c1-0.6,1-2,1.1-3.1c0-1.5,0-3.1,0-4.6c0-2.2,0.7-4.4-0.5-6.3c-0.9-1.5-3-3.1-3.2-4.8
	C337.1,42.3,337,41.5,336.6,40.6z"/>
<path fill="#EAEAEA" stroke="#D6D6D6" stroke-miterlimit="10" d="M198.8,45.5c1.1,1.7,2.4,3.6,4.4,3.7c1.4,0.1,2.7-0.7,3.8-1.5
	c0.5-0.4,1.1-0.8,1.4-1.3c0.2-0.5,0.2-1,0.2-1.5c0-1.2,0.2-2.2,0.1-3.4c0-1.5,0.5-3.5,0.9-5c0.6-2.2,2-4.4,1.4-6.5
	c-0.6-2-2.8-3.1-4.9-3.6c-0.9-0.2-2.6,0.2-3.4,0.5c-1.2,0.4-2,1.5-2.5,2.7s-0.6,2.8-1.1,3.9c-0.7,1.7-2.2,2.7-2.6,4.5
	C195.9,40.5,197.4,43.2,198.8,45.5z"/>
<path fill="none" stroke="#4E9BD7" stroke-miterlimit="10" d="M188.5,196.5c-0.1,0.6-0.6,1.4-0.2,1.9c0.6,0.8,2,0.5,2.8,1.1
	c0.8,0.6,1.3,1.7,1.1,2.6c-0.4,1.4-2.1,1.9-2.9,3.1c-0.9,1.5-0.1,3.6-1,5c-0.4,0.6-1,1-1.6,1.4c-8.1,5.2-15.8,11.1-23.5,17
	c-0.8,0.6-1.5,1.2-2.3,1.8c-2.3,2.1-4.4,4.8-4.6,7.9c-0.6,6-0.8,12-0.6,18c0,1.1,0,2.2-0.5,3.1c-0.3,0.5-0.8,0.9-1.3,1.4
	c-3.1,3-3.8,7.6-4.4,11.9c-0.9,6.9-1.8,13.8-2.4,20.7c-0.2,1.9-0.3,3.7-1,5.5c-0.6,1.6-1.7,2.9-2.4,4.4c-2,4.6-0.3,9.8-0.1,14.8
	c0.5,9-3.6,18.6,0.4,26.6c1.8,3.4,4.9,6.1,6.4,9.6c2.8,6.6-0.7,14.2,0.5,21.2"/>
<path fill="#7BBCEB" stroke="#4E9BD7" stroke-miterlimit="10" d="M181.6,194.2c1.4,0.6,2.8,1.6,4.3,1.8c2.9,0.5,5.9-0.6,8.3-2.2
	c2.9-2,4.8-3.2,2.9-9c-0.2-0.7,1.4,0.3,1.9-0.3c0.6-0.6-1.1-1.5-1-2.4c0.2-1.2,1.9-1,2.1-2.2c0.2-1.1,0.1-2.8,0.3-3.9
	c0.1-0.3,0.1-0.5,0.1-0.8c-0.1-1.2-0.9-2.3-2-1.7c-2.1,1.1-1.9,2.2-6.5,2.2c-2.9,0-0.8-3.5-1.9-4.6c-1.2-1.2-4.2-1.4-5-2.9
	c-0.3-0.6-0.5-1.3-0.8-1.9c-0.7-1.2-2.3-1.6-3.7-1.4s-2.6,0.9-3.8,1.5c-0.6,0.4-1.3,0.7-1.7,1.3c-0.4,0.5-0.6,1.2-0.9,1.7
	c-2.3,4.8-8.8,3.4-9.8,6.9c-0.6,1.9,0.6,3.9,1.8,5.6C170.2,187.2,175.6,191.5,181.6,194.2z"/>
<path fill="#EAEAEA" stroke="#D6D6D6" stroke-miterlimit="10" d="M209.8,101.2c-0.1-0.6,0-1.3-0.3-1.8c-0.4-0.7-0.6-0.8-1.4-0.9
	c-0.9-0.1-1.8-0.3-2.6-0.7s-2.2-3-2.3-3.5c-0.2-0.6-0.9-1.3-1.4-1c-1.1,0.6,0,2.8,0.5,4c0.6,1.3,1,2.3,1.6,3.4
	c1.5,2.3,1.7,4.3,3.2,6.7c0.4,0.7,1,1.5,1.9,1.5c0.6,0,1.1-0.4,1.4-0.9c0.8-1.1,1.1-2.6,0.6-3.9C210.7,103.1,210,102.3,209.8,101.2z
	"/>
<path fill="none" stroke="#D6D6D6" stroke-miterlimit="10" d="M74.4-9.4c-1.2,3.8,1,7.6,2.7,11.2c2.5,5.3,4.1,11.1,5.4,16.8
	c1.1,4.9,3.6,7.2,4.9,12.1c3.2,11.8,14.1,18.8,18.6,28c0.3,0.6,0.5,1.3,0.4,2c-0.1,1.1-0.8,1.9-1.4,2.8c-4.6,6.1-6.7,14.1-5.6,21.7
	c0.3,2.5,1,5,0.9,7.5c-0.2,2.5-1.1,4.8-1.7,7.2c-1.8,7.3-0.1,15.5,4.5,21.5c1.2,1.6,2.1,3.5,3.6,4.8c3.8,3.3,3.1,5.6,1.4,10.7
	c-0.3,0.9-0.2,4.7-0.8,5.5c-1.2,1.6-3.6,1.6-5.2,2.9c-1.6,1.2-2,3.4-2.2,5.5c-0.1,2-0.1,4.2-1.2,5.9s-3.3,2.2-5.3,2
	c-2.2-0.2-6.4,3-6.6,0.7c-0.1-1.6,1.7-3,0.5-4c-1.2-1-2.4,1.6-3.9,1.1c-1.2-0.4-1.4-2.1-2.6-1.6s-2,1.6-3,2.4c-1,0.8-2.1,0-3.4,0.1
	c-1.9,0,1.3,2.9,1.5,4.8c0.2,2.1-4.1,1.3-5.9,0.3c-0.6-0.3-1.2-0.8-1.8-1.1c-1.5-0.6-3.3,0.1-4.8-0.7c-0.7-0.4-1.3-1.1-2.1-1
	c-2.4,0.2-0.6,6.1-3,5.7c-2.6-0.4-4.9-2.2-7.3-3.2c-2.7-1.2-5.2-3.7-7.9-4.9c-3.5-1.6-7.3-1.8-10.4-4.1c-2.1-1.5-4-3.4-6.4-4.5
	c-4.9-2.3-11.6-1.9-16.8-0.3c-2.2,0.7-2.4,3.7-2.8,6c-0.7,5.1-3.9,9.7-8.1,12.7c-0.9,0.6-2.7,0.7-2.9,1.8c-0.4,3.9,8,2.7,9.7,6.2
	c0.5,1.1,0.6,2.5,1.3,3.5c0.6,0.8,1.5,1.2,2.1,2c1.6,1.8,1.3,4.7,0.1,6.8s-2.9,3.9-3.9,6.1c-1.1,2.2-1.2,5.1,0.6,6.8"/>
<path fill="none" stroke="#D6D6D6" stroke-miterlimit="10" d="M304.8,78.2c-3.5-2.8-7-5.6-10.5-8.4c-2.7-2.2-5.5-4.5-6.7-7.7
	c-1.9-5.5,1.5-11.2,2.8-16.8c1.8-7.9-1.2-16.7-7.3-22c-2.2-1.9-4.7-3.3-6.7-5.3s-3.5-4.8-3-7.6c0.5-2.5,2.5-4.4,3.5-6.8
	c1.3-3.3,0.5-7-0.4-10.4c-0.2-1-0.5-2-0.8-2.9"/>
<path fill="#EAEAEA" stroke="#D6D6D6" stroke-miterlimit="10" d="M274.2,259.2c-1.9-1-3.5,2.5-5.3,3.8c-2.6,1.8-5.2,3.7-7.5,5.8
	c-0.5,0.4-1,1-1.1,1.6c-0.1,1,0.8,1.9,1.8,2c1,0.1,1.9-0.4,2.7-1.1c2.8-2.3,4.5-6.3,8-7.1c0.5-0.1,1-0.2,1.3-0.6
	c0.2-0.3,0.1-0.6,0.1-0.9C274.2,261.5,275.2,259.7,274.2,259.2z"/>
<path fill="#EAEAEA" stroke="#D6D6D6" stroke-miterlimit="10" d="M194.4,249.5c-0.2,1.6-0.4,3.6,0.9,4.7c0.2,0.2,0.4,0.3,0.5,0.5
	c0.1,0.3,0.1,0.6,0.2,0.8c0.2,0.9,1.2,1.3,2,1.6c0.6,0.2,1.2,0.5,1.8,0.7c0.2,0.1,0.4,0.2,0.6,0.1c0.2-0.1,0.3-0.3,0.3-0.6
	c0.4-2.1-0.4-4.3-1.9-5.7c-0.3-0.3-0.6-0.5-0.9-0.7c-0.9-0.6-1.7-1.2-2.6-1.9c-0.2-0.1-0.4-0.2-0.6-0.2
	C194.5,249,194.4,249.3,194.4,249.5z"/>
<path fill="#EAEAEA" stroke="#D6D6D6" stroke-miterlimit="10" d="M4.6,218c-2.2-0.7-2.6,3.8-2.1,6s2,4.1,1.8,6.4
	c-0.2,2.8-2.7,5.9-1.6,8.4c0.6,1.2,1.7,2,2.6,3c0.9,1,2.3,2.8,1.1,3.3c-0.6,0.2-1.1,0.1-1.6,0.4c-1.3,0.8,0.8,2.1,1.5,3.5
	c0.4,0.8,1,1.8,1.6,2.5c1.2,1.5,1.9,3.2,3.4,3.4c2.3,0.4,4.4,0.1,5.6-0.3c3.9-1.5-4.8-7.2-4-11.3c0.2-0.9,0.6-1.6,1.1-2.4
	c0.8-1.3,1.6-2.6,2.4-3.9c0.7-1.1,1.4-2.3,2.5-3.1c2.5-1.9,6-1.2,9-0.4c2.7,0.7,5.8,3.7,8,2c1.6-1.2,1.3-3.8,1.8-5.7
	c0.5-1.9-0.8-5.5-2.5-4.5c-2.4,1.5-2.1,5.5-6.4,5c-5-0.6-4.3-2.8-5.2-3.6c-3.2-2.8-6.7-7.4-7.9-11.1c-0.6-2-0.7-4.6,1-6
	c1.4-1.1,3.7-1.2,4-2.9c0.3-1.4-1.1-2.4-2.3-3.1c-3.2-1.7-6.6-3.2-10.1-4.3c-0.8-0.3-1.7-0.5-2.3,0c-0.7,0.5-0.7,1.4-0.7,2.3
	c0,3.6,0,8.4,0.5,11c0.3,1.4,2.7,0.3,3.6,1.4c1.4,1.7,0.3,5.3-1.8,6C6.3,220.4,5.7,218.4,4.6,218z"/>
<path fill="none" stroke="#D6D6D6" stroke-miterlimit="10" d="M13.9,255.3c0.4,3.5,1.3,7.4-0.1,11c-0.3,0.9-0.7,1.7-0.8,2.6
	c-0.1,1,0.2,2,0.4,2.9c2.3,8.8,3.8,17.8,5.3,26.8c0.6,3.7,1.2,7.5,1.9,11.2c0.7,4.3,1.4,8.6,1,13c-0.5,5.2-2.5,10.1-3.2,15.2
	c-0.8,5.7,0.1,11.4,1.5,16.9c0.9,3.5,2.1,7,2.4,10.6s-0.1,7.4-2.3,10.4"/>
<g>
	<g>
		<path fill="none" stroke="#585858" stroke-miterlimit="10" d="M294.2,184.2c0.1-0.6,0.1-1.3,0.1-2"/>
		<path fill="none" stroke="#585858" stroke-miterlimit="10" stroke-dasharray="3.9952,0.9988" d="M294.2,181.2
			c-0.4-3-1.7-6.4-1.1-9c0.3-1.4,1.2-2.7,1.4-4.1c0.2-1,0-2.1,0-3.1c-0.1-2.3,0.1-4.7,0-7c-0.7-8.5-7.1-16.1-5.8-24.5
			c0.6-4.2,3.1-7.8,4.3-11.8c1.7-5.4-0.4-12.2,3-16.8c3.5-4.9,7-15.2,10.5-19.4c3.4-4,2.3-6.7,5.6-13.4c1-2,3.8-2.2,5.2-3.9
			c2.1-2.6,1.3-6.6-0.3-9.6c-5-9.3-16-14.5-20-24.3c-1.9-4.6-1.9-10-0.1-14.6c1.6-4.1,4.4-7.5,6.1-11.5c2.2-5.3,2.3-11.2,2.2-16.9"
			/>
		<path fill="none" stroke="#585858" stroke-miterlimit="10" d="M305.1-9.4c0-0.2,0-0.4,0-0.7c0-0.4,0-0.9,0-1.3"/>
	</g>
</g>
<g>
	<g>
		<path fill="none" stroke="#585858" stroke-miterlimit="10" d="M376.5,180.6c-0.4,0.1-0.8,0.2-1.2,0.2c-0.3,0-0.5,0.1-0.8,0.1"/>
		<path fill="none" stroke="#585858" stroke-miterlimit="10" stroke-dasharray="3.9956,0.9989" d="M373.5,180.9
			c-1.6-0.1-3.2-0.4-4.7-0.8c-2.3-0.5-4.6-1-6.9-1.6c-2.6-0.6-5.6-1.1-7.8,0.4c-1.2,0.9-2.1,2.3-3.6,2.7c-0.8,0.2-1.7,0-2.4-0.5
			c-1.2-1-1.4-2.7-1.8-4.2c-0.3-1.5-1.2-3.2-2.8-3.3c-1.3-0.1-2.3,1-3.3,1.9s-3,2.2-3.4,1c-0.3-0.7,0.3-1.8-0.4-2.2
			c-4.2-2.5-9.9,1.5-13.5,4.9c-1.2,1.2-2.4,2.7-4.1,3.1c-1.1,0.3-2.2,0.1-3.3-0.1c-2.1-0.3-4.2-0.7-6.2-1c-4.2-0.7-8.7-1.3-12.5,0.7
			c-3.4,1.9-5.6,7.7-9.5,7.4c-2-0.2-4.7-1.7-6.7-0.9c-14.5,5.5-29,1-44,1c-3,0-5,2-8,2c-2,0-3.9-1.1-5-2c-4.8-4.3-4-11-8-15
			c-1-1-2-2.9-4-4c-7.1-3.8-13-6-20-9c-9-3.9-18.4-1.6-26,5c-1.1,0.9-4.2,0.5-5,0c-6.9-4.5-13.4-7.5-22.6-5.7
			c-3.9,0.8-7.6,3.1-11.2,4.6c-1.9,0.8-3.8,1.6-5.8,1.6c-3.2-0.1-6.2-2.3-9.3-1.6c-1.5,0.3-2.8,1.4-4.4,1.5c-1.5,0.1-3-0.7-4.4-1.3
			c-4.3-1.8-9.2-2.1-13.6-0.8c-3.2,0.9-6.1,2.6-9.2,3.7c-3.1,1.1-6.7,1.5-9.6-0.1c-0.9-0.5-1.7-1.1-2.7-1.3c-2.1-0.3-3,2.1-3.9,4
			c-0.9,1.9-2.8,3.8-4.9,3.9c-2.1,0.2-3.7-1.8-5.6-2.6c-4.7-2-9.9,3-15,2c-1.6-0.3-3-1.2-4.6-1.2c-2.6,0-5.1,5.7-7.3,7.1
			c-5,3.2-8.4,1.8-13.4,4.6c-2.9,1.6-7-1.7-8.8-4.5c-0.5-0.8-0.9-1.6-1.8-2c-1.2-0.4-2.5,0.5-3.7,0.2c-1.1-0.3-1.7-1.5-2.4-2.5
			c-1.3-2.1-3.7-3.4-6.1-3.7"/>
		<path fill="none" stroke="#585858" stroke-miterlimit="10" d="M-10,172.5c-0.7,0-1.3,0-2,0.1"/>
	</g>
</g>
<g>
	<g>
		<path fill="none" stroke="#585858" stroke-miterlimit="10" d="M164.6,167c0.6,0.6,0.7,0.8,0.9,1.6c0,0.1,0,0.1,0,0.2"/>
		<path fill="none" stroke="#585858" stroke-miterlimit="10" stroke-dasharray="3.6165,0.9041" d="M165.6,169.6
			c-0.2,2.4-3.4,4-3.6,6.8c-0.2,4,1.6,7.1,3.3,9"/>
		<path fill="none" stroke="#585858" stroke-miterlimit="10" d="M165.6,185.7c0.5,0.5,1.1,1,1.5,1.3"/>
	</g>
</g>
<path fill="none" stroke="#585858" stroke-miterlimit="10" stroke-dasharray="4,1" d="M12.4,185.2c0.5,0.4,0.6,1.1,0.4,1.7
	s-0.5,1.1-0.9,1.6c-0.8,1.2-1.7,2.4-2,3.8s-0.1,3,1,4c0.6,0.6,1.4,0.9,2.2,1.2c1.8,0.8,3.5,1.9,5.1,3c1.7,1.1,3.5,2.5,3.7,4.5"/>
<text transform="matrix(1 0 0 1 169.1756 23.9779)"><tspan x="0" y="0" fill="#585858" font-family="'Verdana-Italic'" font-size="8">Minnow</tspan><tspan x="0" y="9.6" fill="#585858" font-family="'Verdana-Italic'" font-size="8">Lake</tspan></text>
<text transform="matrix(1 0 0 1 265.0895 54.2928)"><tspan x="0" y="0" fill="#585858" font-family="'Verdana-Italic'" font-size="8">Royal Arch</tspan><tspan x="24.3" y="9.6" fill="#585858" font-family="'Verdana-Italic'" font-size="8">Lake</tspan></text>
<text transform="matrix(1 0 0 1 165.632 147.9937)"><tspan x="0" y="0" fill="#7BBCEB" font-family="'Verdana-Italic'" font-size="8">Johnson</tspan><tspan x="0" y="9.6" fill="#7BBCEB" font-family="'Verdana-Italic'" font-size="8">Lake</tspan></text>
<path fill="none" d="M217.8,106.7c3.7,3.4,9.2,3.6,14.1,4.7c10.3,2.3,20,7.8,30.6,8.1"/>
<text transform="matrix(0.9746 0.2241 -0.2241 0.9746 229.4487 113.3757)"><tspan x="0" y="0" fill="#7D7D7D" font-family="'Verdana-Italic'" font-size="7">8</tspan><tspan x="4.3" y="0" fill="#7D7D7D" font-family="'Verdana-Italic'" font-size="7" rotate="3.8">6</tspan><tspan x="8.7" y="0.3" fill="#7D7D7D" font-family="'Verdana-Italic'" font-size="7" rotate="5.8">0</tspan><tspan x="13" y="0.8" fill="#7D7D7D" font-family="'Verdana-Italic'" font-size="7" rotate="6.1">0</tspan></text>
<path fill="none" d="M315.7,205.8c2.4-1.5,5.2-2.4,7.8-3.5c9.9-4,18.4-11.4,23.9-20.6"/>
<text transform="matrix(0.8874 -0.461 0.461 0.8874 326.7715 203.6999)"><tspan x="0" y="0" fill="#7D7D7D" font-family="'Verdana-Italic'" font-size="7">8</tspan><tspan x="4.7" y="0" fill="#7D7D7D" font-family="'Verdana-Italic'" font-size="7" rotate="-5.2">8</tspan><tspan x="9.3" y="-0.4" fill="#7D7D7D" font-family="'Verdana-Italic'" font-size="7" rotate="-10.3">0</tspan><tspan x="13.9" y="-1.3" fill="#7D7D7D" font-family="'Verdana-Italic'" font-size="7" rotate="-15.3">0</tspan></text>
<text transform="matrix(1 0 0 1 24.4873 208.9582)"><tspan x="0" y="0" fill="#585858" font-family="'Verdana-Italic'" font-size="8">Crescent</tspan><tspan x="0" y="9.6" fill="#585858" font-family="'Verdana-Italic'" font-size="8">Lake</tspan></text>
<text transform="matrix(1 0 0 1 296.2012 241.9792)" fill="#585858" font-family="'Verdana-Italic'" font-size="8">9159 ×</text>
<path fill="none" d="M128.4,211.9c5,12.4,22.1,2,29.2-6.5"/>
<text transform="matrix(0.9886 -0.1509 0.1509 0.9886 136.6934 220.3122)"><tspan x="0" y="0" fill="#7D7D7D" font-family="'Verdana-Italic'" font-size="7">8</tspan><tspan x="5" y="-0.1" fill="#7D7D7D" font-family="'Verdana-Italic'" font-size="7" rotate="-12.9">4</tspan><tspan x="9.7" y="-1.2" fill="#7D7D7D" font-family="'Verdana-Italic'" font-size="7" rotate="-21.1">0</tspan><tspan x="14.1" y="-2.9" fill="#7D7D7D" font-family="'Verdana-Italic'" font-size="7" rotate="-27.4">0</tspan></text>
<path fill="none" d="M18.1,296c5.1-1.4,9.8,4.4,13.6,8.1c2.9,2.8,5.4,6.2,9.1,7.6c3.4,1.3,7.2,0.6,10.8,1.2"/>
<text transform="matrix(0.7475 0.6643 -0.6643 0.7475 23.5029 299.776)"><tspan x="0" y="0" fill="#7D7D7D" font-family="'Verdana-Italic'" font-size="7">8</tspan><tspan x="4.3" y="0" fill="#7D7D7D" font-family="'Verdana-Italic'" font-size="7" rotate="3.9">0</tspan><tspan x="8.7" y="0.3" fill="#7D7D7D" font-family="'Verdana-Italic'" font-size="7" rotate="4.7">0</tspan><tspan x="13.3" y="0.7" fill="#7D7D7D" font-family="'Verdana-Italic'" font-size="7" rotate="0.6">0</tspan></text>
<path fill="none" d="M295.6,289.3c5.1-2.4,11.8-1.2,16.1-4.9c1.8-1.6,3-3.8,4-6c1.9-3.9,3.8-7.9,5.3-12"/>
<text transform="matrix(0.9591 -0.283 0.283 0.9591 296.2744 291.5729)"><tspan x="0" y="0" fill="#7D7D7D" font-family="'Verdana-Italic'" font-size="7">9</tspan><tspan x="4.1" y="0.1" fill="#7D7D7D" font-family="'Verdana-Italic'" font-size="7" rotate="7.7">0</tspan><tspan x="8.7" y="0.8" fill="#7D7D7D" font-family="'Verdana-Italic'" font-size="7" rotate="3.4">0</tspan><tspan x="14" y="1" fill="#7D7D7D" font-family="'Verdana-Italic'" font-size="7" rotate="-15.1">0</tspan></text>
<path fill="none" d="M32.2,31.3c0.4-4.5,1.9-8.7,3.6-12.9c2.3-5.4,5.1-10.7,9.3-14.8"/>
<text transform="matrix(0.1957 -0.9807 0.9807 0.1957 34.7324 30.8307)"><tspan x="0" y="0" fill="#7D7D7D" font-family="'Verdana-Italic'" font-size="7">8</tspan><tspan x="4.2" y="0" fill="#7D7D7D" font-family="'Verdana-Italic'" font-size="7" rotate="6.6">8</tspan><tspan x="8.4" y="0.5" fill="#7D7D7D" font-family="'Verdana-Italic'" font-size="7" rotate="10.8">0</tspan><tspan x="12.6" y="1.3" fill="#7D7D7D" font-family="'Verdana-Italic'" font-size="7" rotate="13.8">0</tspan></text>
<g>
	<g>
		<polyline fill="none" stroke="#7D7D7D" stroke-miterlimit="10" points="85.2,341.6 85.2,348.7 275.4,348.7 275.4,341.7 		"/>
		<line fill="none" stroke="#7D7D7D" stroke-miterlimit="10" x1="180.5" y1="341.4" x2="180.5" y2="348.7"/>
		<line fill="none" stroke="#7D7D7D" stroke-miterlimit="10" x1="161.2" y1="349.2" x2="161.2" y2="343.7"/>
		<line fill="none" stroke="#7D7D7D" stroke-miterlimit="10" x1="142.4" y1="349.2" x2="142.4" y2="343.7"/>
		<line fill="none" stroke="#7D7D7D" stroke-miterlimit="10" x1="123.3" y1="349.2" x2="123.3" y2="343.5"/>
		<line fill="none" stroke="#7D7D7D" stroke-miterlimit="10" x1="104.6" y1="349.2" x2="104.6" y2="343.7"/>
	</g>
	<text transform="matrix(1 0 0 1 83.7838 339.1469)" fill="#7D7D7D" font-family="'Verdana'" font-size="8">0</text>
	<text transform="matrix(1 0 0 1 174.2949 339.1469)" fill="#7D7D7D" font-family="'Verdana'" font-size="8">0.5</text>
	<text transform="matrix(1 0 0 1 258.3418 339.1469)" fill="#7D7D7D" font-family="'Verdana'" font-size="8">1 mi</text>
</g>
</svg>
