<?xml version="1.0" encoding="utf-8"?>
<!-- Generator: Adobe Illustrator 17.1.0, SVG Export Plug-In . SVG Version: 6.00 Build 0)  -->
<!DOCTYPE svg PUBLIC "-//W3C//DTD SVG 1.1//EN" "http://www.w3.org/Graphics/SVG/1.1/DTD/svg11.dtd">
<svg version="1.1" id="Layer_1" xmlns="http://www.w3.org/2000/svg" xmlns:xlink="http://www.w3.org/1999/xlink" x="0px" y="0px"
	 viewBox="0 0 360 360" enable-background="new 0 0 360 360" xml:space="preserve">
<path fill="none" stroke="#E1E1E1" stroke-miterlimit="10" d="M372,205.2c-2.8-0.7-5.9-0.4-8.6,0.8c-1.1,0.5-2.1,1.1-3.2,1.6
	c-1.4,0.6-3,0.9-4.5,1.2c-8.7,1.8-17.1,5-24.8,9.4c-1.3,0.7-2.6,1.5-3.2,2.9c-0.5,1.1-0.5,2.3-1.2,3.3c-1.1,1.6-3.9,2-4.1,3.9
	c-0.2,1.5,1.3,2.6,2.3,3.6c3.6,3.5,3.7,9.1,2.8,14c-0.9,4.9-2.4,9.9-1.3,14.7c0.2,0.9,0.5,1.8,0.1,2.6c-0.4,0.8-1.2,1.1-2,1.5
	c-4.2,2.1-5.1,7.7-8.7,10.8c-3,2.5-7.9,1-11.3,3.1c-6.2,3.9-8.6,11.9-9.4,19.2c-0.9,7.8-0.5,16.2,4.1,22.5c1.1,1.5,2.8,3,4.6,2.5
	c0.9-0.2,1.7-0.9,2.5-1.3c2.7-1.2,5.9,1,8.8,0.6c2.5-0.4,4.3-2.7,4.9-5.2c0.6-2.5-2.3-5.9-0.3-7.5c4.2-3.3,9.1,5.8,12.2,10.2
	c1.2,1.7,2.2,4.1,1,5.8c-0.7,1.1-2,1.5-3.1,2.2c-3.8,2.2-5.2,6.9-5.9,11.3c-1.3,8.2-0.9,16.6,1,24.7c0.4,1.7,1.1,3.7,2.8,4.3"/>
<path fill="none" stroke="#E1E1E1" stroke-miterlimit="10" d="M322.9,218.5c1.1-0.1,2.2-0.3,3.1-0.8c0.9-0.5,2.5-1.8,1.7-2.6
	c-1.6-1.5-4.3,1-6,2.4c-0.2,0.2-0.1,0.6,0.2,0.8C322.2,218.6,322.6,218.6,322.9,218.5z"/>
<path fill="none" stroke="#E1E1E1" stroke-miterlimit="10" d="M369.6,190c-7.5,1.9-15.2,3.4-22.9,4.3c-2.6,0.3-5.2,0.6-7.8,0.9
	c-7.1,0.7-14.2,1.4-21.2,2.2c-5.9,0.6-12,1.3-17.2,4.2c-1.5,0.8-2.9,1.9-4.5,2.4c-2.5,0.8-5.6,0.3-7.5,2.2c-0.7,0.7-1.1,1.7-2,2.3
	c-0.9,0.6-2,0.7-3,1c-3,1-4.6,4.4-4.5,7.6c0.1,3.1,1.5,6.1,2.9,8.9c1,1.9,2.2,4.1,4.3,4.6c2.5,0.6,3.6-2.1,4.5-4.6
	c0.5-1.5,3.1,0.5,3.6,2.1s0.6,3.4,1.9,4.4c1,0.8,2.5,0.8,3.6,1.4c1.9,1.1,2.2,3.9,1.5,6s-2.1,4-2.6,6.2c-1,4.2,1.2,8.7-0.2,12.7
	c-0.7,1.9-2,3.5-3.4,5c-5.5,6.2-11,12.3-16.6,18.5c-1.7,1.9-3.5,3.8-6,4.4c-2,0.5-4,0-6,0.1c-7,0.5-13,4.6-19,8.1
	c-5.1,3-5.6,10.4-8.4,15.7c-1,1.9-2.1,3.8-3.5,5.5c-1.6,1.9-3.6,3.3-5.6,4.8c-7,5.3-13.8,11.4-16.9,19.6c-0.6,1.4-0.6,3.6,0.9,3.8
	c0.6,0.1,1.2-0.3,1.7-0.6c11.1-4.6,21.1-11.1,30.6-18.6c5.9-4.7,12.8-7.8,19.7-10.9c2.8-1.3,5.7-2.4,8.6-3.4
	c0.6-0.2,1.3-0.4,1.8-0.1c0.7,0.4,0.6,1.5,0.7,2.3c0,3.1,2,5.7,3.3,8.4c2.1,4.5,2.5,9.7,3.6,14.5c1.2,4.9,3.6,9.9,8.1,12
	c2,0.9,4.2,1.1,6.2,2c7,3.1,8.5,12.2,9,19.8"/>
<path fill="none" stroke="#E1E1E1" stroke-miterlimit="10" d="M371.8,171.7c-5.9,0.6-11,4.8-16.8,5.6c-2.7,0.4-5.4,0-8.2-0.2
	c-14.6-1.3-29.5,1-43,6.6c-11.9,4.9-22.6,12.4-34.8,16.6c-3.9,1.4-8.1,2.4-11.6,4.7c-3.5,2.3-8.6,8.2-4.8,10
	c5.6,2.6,12,4.2,14.1,11.4c0.3,0.9,1.9,0.9,1.9,1.9c0.1,6.5,0.9,12.2,7.1,19.1c1.6,1.8,2.6,7.5,1.5,9.6c-1.1,2.1-3.6,3-5.7,4.1
	c-17.7,9.6-32.9,7.7-37.4,11.4c-1.3,1.1,2.6,3.1,1.9,4.6c-0.9,1.9-4.4-3-13.4,13.9c-12.8,24-25.4,52.3-32.1,78.7"/>
<path fill="none" stroke="#E1E1E1" stroke-miterlimit="10" d="M168.9,367.3c11.7-5.4,20.2-17.1,21.7-29.9c0.4-3.8,0.4-7.8,2.4-11
	c1.2-2,3.1-3.4,4.6-5.2c2.6-3,3.9-6.8,5.3-10.6c2.4-6.7,4.8-13.5,6.1-20.5c1.3-6.9,1.4-14,3.3-20.7c1.8-6.8,5.8-13.4,12.2-16.2
	c3-1.3,6.4-1.7,9.4-3.1c3.3-1.5,5.9-4.2,8.5-6.8c1.9-2,3.9-4,4.7-6.7c0.8-2.6,0.5-7.1-2.2-7.3c-2.3-0.1-3.9,3.9-5.6,2.4
	c-7.8-6.7-7.6-29.9-5.1-34.1c5.4-9.2,36.2-7.2,50.9-17.9c2.4-1.8,4.5-3.9,6.9-5.7c6-4.6,13.4-7,20.8-9c12.3-3.4,32.2-9.3,37.4-8.2
	c1,0.2-0.1,3,0.8,2.9c5.5-0.7,14.6-4.1,21.8-6.2"/>
<path fill="none" stroke="#E1E1E1" stroke-miterlimit="10" d="M370.2,130.2c-1.9,0.2-4.7-1.1-5.6,0.5c-1.5,2.7-2,5.7-5,6.1
	s-6.4-0.3-9.1,1.1c-1.7,0.9-3,2.5-4.8,3c-1.8,0.5-2.5-1.2-3.3-2.9c-2.1-4.4-9.5,1.4-14,3.2c-9.2,3.7-22.5,11.1-27.7,10.4
	c-1.8-0.2,1.8-3.5,1.6-5.3c-0.2-1.9-3.7-0.6-4.5,1.1s-0.8,3.8-1.9,5.4c-1.3,1.8-3.6,2.3-5.5,3.3c-2.1,1-3.9,2.6-5.7,4.1
	c-10.2,8.6-21.8,15.7-34.2,20.8c-9.7,4-20.3,7.1-27.5,14.7c-0.9,0.9-1.7,1.9-1.9,3.2c-0.3,1.3,0.1,2.6,0.6,3.8
	c1.8,5.5,4,11.1,4.3,16.9c0.2,5.8-1.5,17.3-6.9,15.1c-2.4-1-4.4-2.9-6.6-1.4c-2.1,1.5-3.1,4.2-4,6.6c-3.5,8.6-8.7,16.3-12.5,24.8
	s-5.9,18.2-2.8,26.9c0.9,2.6,2.3,5.2,2.2,8c-0.1,1.7-0.8,3.4-1.5,5c-2.2,5.2-4.4,10.3-6.6,15.5c-6.2,14.8-13.3,30.5-27,38.7
	c-2.6,1.5-5.4,2.8-7.3,5.2s-2.4,6.1-0.1,8.1"/>
<path fill="none" stroke="#E1E1E1" stroke-miterlimit="10" d="M257.8,135.7c0.5-0.1,0.9-0.5,1.2-0.9c0.8-0.9,1.6-2,2.3-3
	c0.7-1,1.5-2.1,1.4-3.4c-0.1-0.9-0.7-1.8-1.6-2.2c-0.2-0.1-0.5-0.2-0.8-0.1c-0.5,0.1-0.9,0.6-1.1,1.1c-0.8,1.5-1.5,2.9-2.3,4.4
	c-0.4,0.8-0.8,1.6-0.8,2.5S257,135.9,257.8,135.7z"/>
<path fill="none" stroke="#E1E1E1" stroke-miterlimit="10" d="M242,137.7c1.1-1.1,2.3-3.6,3.8-2.9c0.9,0.5,0.1,2.5,1,3
	c1.6,0.8,4.2-0.1,5.3-1.6c3.3-4.4,5.6-11.1,10.8-17.7c1.4-1.8-0.4-4.3-1.7-6.3c-1.2-1.9-4.4,0.5-6.4,1.4c-6.5,2.7-13,5.5-19.5,8.2
	c-1,0.4-2,0.8-3,0.6c-0.4-0.1-0.8-0.3-1.2-0.4c-1.4-0.3-2.7,0.8-3.9,1.7c-4.9,3.7-11.3,4.4-17.4,5.3c-1.7,0.2-3.4,0.5-5,1.1
	c-2.2,0.9-4.1,2.4-5.8,4.1c-1.1,1.2-2.2,2.4-3.5,3.3s-3,0.1-4.6,0.5c-1.4,0.4-1.4,3.3-0.1,3.9c0.4,0.2,0.9,0.1,1.4,0.2
	c2,0.1,3.7,2.2,3.4,4.2c-0.1,1-0.7,1.9-0.8,3c-0.1,1.3,0.5,2.4,1,3.6c0.4,1.2-1,2.4-0.4,3.5c1.1,2.4,5.1-1.7,6.9-3.7
	c0.6-0.7,1.2-1.5,2-2c0.8-0.5,2-0.4,2.5,0.5c0.3,0.5,0.2,1.1,0.5,1.6c0.6,1.2,2.4,0.8,3.6,0.1c1.1-0.7,2.6-0.1,3.7-0.8
	c1.3-0.9,1.7-2.6,3.3-2.5c1.6,0.1,3.1,0.9,4.7,0.8c1.1-0.1,2.1-0.5,3.1-1C231.7,146.5,237.2,142.5,242,137.7z"/>
<path fill="none" stroke="#E1E1E1" stroke-miterlimit="10" d="M147.5,295.2c0-0.2,0-0.5-0.2-0.7c-0.2-0.2-0.5-0.3-0.8-0.4
	c-1.3-0.4-2.7-1.8-3.8-1.1c-1.2,0.7-0.9,2.5-1.3,3.8s-0.7,2.6-0.4,3.9s1.6,2.4,2.9,2.3c1.5-0.1,2.5-1.7,3-3.2
	C147.4,298.2,147.6,296.7,147.5,295.2z"/>
<path fill="none" stroke="#E1E1E1" stroke-miterlimit="10" d="M65.3,367.3c1.6-2.5,3.2-5,4.8-7.6c2.4-3.8,5.4-8,9.9-8.6
	c5.8-0.7,10.2,4.9,15.1,8.1c4.1,2.7,12.1,7.7,14.1,3.2c1.6-3.5-1.4-8,1.7-10.4c1.4-1.1,3.4-2.1,3.2-3.8c-0.1-0.7-0.4-1.2-0.8-1.8
	c-1.7-2.3-4.4-4.8-3.2-7.4c0.7-1.7,2.8-2.5,3.4-4.2c0.4-1.2,0-2.6,0.5-3.8c0.4-1.1,1.5-1.8,2.6-2.5c5.6-3.4,10.9-13.3,16.8-10.3
	c1.9,1-2.7,4.4-1.4,6.2c1.3,1.8,4.9,0.1,6.6-1.4c2.4-2.2,3-6.3,6.1-7.1c3.7-0.9,5.1,3.3,7.3,6.3c2.7,3.9,9.9,2.4,14-0.2
	c1.8-1.2,3.1-3,4.4-4.8c4.5-6.5,8.6-13.7,8.7-21.6c0.1-6.2-2.2-12.8,0.7-18.3c1.4-2.7,4.1-5,4.4-8.1c0.1-0.7,0-1.5,0.1-2.3
	c0.2-1.1,0.9-2.1,1.5-3c5.6-8.3,10.1-17.4,12.6-27.1c1.8-7.1,4.8-14,9.3-19.9c1.8-2.4,2.2-5.5,1.4-8.4c-0.3-0.9-0.7-1.9-0.3-2.8
	c0.9-2,4.3-1.1,5.5-2.9c0.7-1.2,0-2.6-0.4-3.9c-1.7-5.5,1.9-12.1,7-14.8c13.6-7.2,25.5-17.2,34.8-27.5c1-1.1,4.4,2.5,4.2,1.1
	c-1.5-9.9,25.1-28.7,19.3-35.7c-1.1-1.4-2.8,2.2-4.3,3.2c-1.5,0.9-3.8,1.2-4.8-0.2c-0.3-0.4-0.5-1-0.6-1.5c-0.8-3-0.2-6.3,1.5-8.9
	c2.6-4.1,7.4-6.1,11.8-7.8c2.6-1,8.2-0.3,7.7-3c-0.5-2.9-8.1,2.3-8.8-0.5c-0.8-2.9,16.1-14,25.1-19.8c1.4-0.9,3.1-1.8,4.6-1.1
	c1.1,0.5,0.9,1.9,1.4,3c3.1,6.7,13.4-2.4,16.8-8.9c0.6-1.1,0-2.4,0.7-3.5c1.3-2.1,7.9-2.3,6-3.9c-1.2-1.1-3.4-0.3-3.8-1.9
	c-0.4-1.6,0.2-3.3,0.8-4.8c1.9-4.9,4-10,7.9-13.5c1.6-1.5,3.6-2.6,5.4-3.7c4-2.3,8.8-3.5,11.9-7c0.7-0.7-1.1-1.7-2-1.7
	c-1,0-2.2,0.3-2.8-0.5c-0.9-1.1,0.5-2.7,1.9-3.2c1.3-0.6,3.8-1.6,2.9-2.8c-1.1-1.5-3.7-0.6-5.3,0.3c-0.7,0.4-1.4,1-2.3,1.1
	c-0.8,0.1-0.7-0.9-1.3-1.6c-2.1-2.4-5.6,3.7-5.9,6.8c-0.1,0.8,0,1.7-0.5,2.4c-0.5,0.7-1.5,0.8-2.3,1.3c-0.8,0.4-1.4,1.2-2.1,1.8
	c-3.5,3.5-9.8,0.7-13.7,3.7c-2,1.6-1,6.1-3.5,5.8c-1-0.1-1.9-0.9-2.8-1.4s-2.7-0.8-2.8,0.2c-0.2,1.8,2.7,3.7,1.6,5.1
	c-1.5,1.8-4.7-0.5-7.1-0.8c-0.5-0.1-1.1-0.1-1.5,0.3c-0.4,0.4-0.4,1-0.4,1.6c-0.2,2.5-2.3,4.3-4.3,5.7c-5.7,4.2-11.8,7.8-18.2,11
	c-2.1,1-5.5,1.5-6.1-0.8c-0.3-1,0.3-2.3-0.4-3.1c-0.5-0.6-1.3-0.7-1.8-1.2c-1.3-1.4,0.6-4.4-1.1-5.2c-0.8-0.4-1.7,0.2-2.5,0.7
	c-4,2.7-9.2,0.4-13.9,1.7c-2.5,0.7,0.8,4.7,1.6,7.1c1,3-0.6,6.4-3,8.5c-2.4,2.1-5.4,3.3-8.2,4.9c-0.8,0.4-1.5,0.9-2.4,1.1
	c-0.8,0.2-1.6,0.2-2.5,0.2c-3.6,0.1-7,4.7-10.1,3.1c-1-0.5,0.6-2.5-0.2-3.2c-0.5-0.5-1.6,0.4-2.2,0c-0.6-0.3,0.4-1.5,0-2
	c-0.6-0.7-1.8,1.4-2.7,1c-1.1-0.5-0.5-3.9-1.6-3.3c-2.4,1.3-9.8,6.8-14.7,10.2c-1.2,0.9-2.5,1.7-4,1.9c-0.7,0.1-1.4,0-2.1,0.2
	c-1.4,0.5-1.1,2.6-2.2,3.5c-3,2.5-9.7,1-12.1-2.2c-2-2.7-5.4-4-7-6.9c-1.2-2.3-0.5-5.6-2.7-6.9c-1.1-0.6-2.5-0.4-3.6,0
	c-5.9,2.3-9.4,9.8-15.7,10.4c-5.9,0.6-12.1-8.8-16.9-5.1c-3.1,2.4-3.5,8.2-7.4,9c-1.2,0.2-2.5-1.8-3.4-1c-1.5,1.4,1.5,4,1.1,6
	c-0.4,2-2.3,3.9-4.3,3.4c-1.1-0.3-1.9-1.2-2.9-1.8c-3-1.9-7.2-0.6-9.1,2.4c-1.9,2.9-1.5,7,0.5,9.9c0.8,1.2,1.9,2.3,2,3.7
	c0.1,0.9-0.2,1.7-0.4,2.6c-0.5,3.1,0.8,6.2,1.6,9.2c0.8,3,1,6.7-1.2,8.9c-1.2,1.2-3.6,1.2-4.4,2.7c-3.2,6.3-10,10-11.7,12.3
	c-2.6,3.7,4.8,7.8,8.7,10c3.3,1.9,7.5,0.2,10.4-2.2c2.9-2.4,5.3-8.1,8.9-6.9c2.7,0.9-1.7,5.4-0.5,8c0.3,0.7,2-0.6,2.3,0.1
	c0.7,1.6,0,3.4,1.4,4.4c1.4,1,3.2,1.6,4.3,2.9c2,2.6,0.2,6.3,0.5,9.6c0.2,2.3,1.4,4.4,2.2,6.6c0.8,2.2,1,4.9-0.7,6.6
	c-0.6,0.6-1.5,1.1-1.6,2c-0.2,1.2,1.1,2.3,0.8,3.5c-0.3,1.1-1.8,1.4-2.6,2.3c-0.9,1-0.7,2.5-1.3,3.7c-1,2-3.8,2.1-6.1,2.2
	c-2.5,0.1-5.1,0.5-7.2,1.9c-2.1,1.4-1.4,4.4-2.9,6.5c-2,2.8-6.7,2-8.8,4.7c-1.1,1.4-1.8,2.9-2.8,4.3c-2.1,2.9-6.2,3.3-8.6,5.9
	c-1.6,1.8-0.1,6.3,2.3,6.1c0.6,0,1.1-0.4,1.6-0.7c2.9-1.7,5.6-6.3,8.7-5.1c5.1,2-1.1,11.5-6,13.9c-2.3,1.1-7.6,1.9-6.3,4.2
	c1.1,2.1,4.6,0.9,6.9,1.3c0.7,0.1,1.4,0.3,2.1,0c1.4-0.5,1.7-2.3,2.8-3.3c1.5-1.4,4.1-0.9,5.5,0.5s2.1,3.5,2.6,5.4
	c1,3.7,1.9,7.5,1.7,11.3c-0.2,5.1-2.4,9.9-4.5,14.5c-3.2,7.1-6.7,14.6-13.3,18.7c-3.4,2.1-5.1,5.5-8.3,7.9c-2.7,2.2-6.5,2-9.8,3
	c-5.5,1.6-14.7-1.7-13.8-7.4c0.3-1.8-0.7-3.4-1.4-5.1c-0.6-1.3-0.5-2.8-0.5-4.2c0.1-4.1,0.2-8.2,0.3-12.3c0.1-4.4,0.3-9,2.2-13
	c1.6-3.3,4.4-5.9,6.6-8.9s5.9-8.1,2.9-10.3c-0.9-0.6-2.4-0.3-2.8-1.3c-1.4-3.4-1.3-7.2-2.6-10.6c-1-2.6-2.2-5.1-3.5-7.6
	c-0.3-0.5-0.8-1-0.8-1.5c0.2-3.3,3.6-6.3,2-9.1c-0.7-1.2-2-2.1-2.6-3.4c-1-2.2,0-4.8-0.8-7.1c-0.5-1.4-1.6-2.4-2.4-3.7
	c-1.8-2.8-1.6-6.5-0.5-9.6s3.2-5.7,5.3-8.3c2-2.5,8.3-5.4,5.9-7.5c-1.4-1.3-7.3,5.6-11.2,8.2c-3.8,2.6-8.4,2.2-13,2.6
	c-3.7,0.3-7.1,5.9-6.3,7.7c0.6,1.4,7.2-0.5,8.6,2.5c1.5,3.2-1.1,6.9-0.2,10.4c4.4,18.5-9.3,28.1-10.2,33.8
	c-1.3,7.9-0.9,20.9-11.1,31.7c-0.6,0.7-1.2,1.5-1.3,2.4c-0.2,3.6,9.5,6.3,6.2,7.8c-10.2,4.7-16.6,17.6-27.3,22.6
	c-4.1,1.9-10.2,1-12,5.1c-0.6,1.5-0.9,3.6-2.4,3.9c-0.7,0.2-1.6-0.1-2.3,0.1c-2.2,0.6-1.3,4.9-3.5,5.5c-0.7,0.2-1.5-0.1-2.2,0
	c-1.5,0.2-2.2,2-3,3.3c-2.2,4-7,6.2-11.4,5.4"/>
<path fill="none" stroke="#E1E1E1" stroke-miterlimit="10" d="M-12.8,307.3c2.1-0.5,4.2-3.3,6-2.1c1.2,0.8,0.5,3.5,2,3.3
	c0.6-0.1,1.1-0.6,1.6-1.1c1.9-2.1,3.8-4.2,5.7-6.3c0.7-0.7,1.3-1.5,1.7-2.4c0.3-0.8-0.7-3.6-0.5-4.4c2.8-13.9,0.2-23.1-1.7-27.8
	c-2.2-5.4,4.5-8.5,4.8-18.4c0-1,0.3-2.1,0-3.1c-0.3-0.8-0.8-1.5-1.2-2.3c-1.1-2.2-0.7-5-1.9-7.2c-1.8-3.4-6.3-4.2-10.1-4.2
	c-3.8,0-8,0.5-10.7,3.1"/>
<path fill="none" stroke="#E1E1E1" stroke-miterlimit="10" d="M307.8,135.7c1.4,0.5,2.3,1.9,3.7,1.4s2.4-1.7,3.3-2.9
	c0.4-0.5,0.1-1.1,0.2-1.7c0.2-0.8,1.5-0.5,2.1-1.1s0.7-1.6,0.2-2.2c-0.2-0.3-0.6-0.4-0.7-0.8c0-0.2,0-0.4,0.1-0.6
	c0.8-1.6,2.5-2.7,3.9-3.8c1.4-1.2,4.1-3.7,2.5-4.6c-0.7-0.4-1.7,0.1-2.3-0.5c-0.3-0.3-0.5-0.7-0.8-0.9c-0.4-0.2-0.8-0.2-1.2-0.1
	c-2.6,0.2-5.9-0.4-7.7,1.5c-1,1-1.4,2.6-2.7,3c-1.3,0.4-4,0.6-4-0.8c0-0.8,0.2-1.6-0.5-1.9c-0.7-0.4-1.5-0.2-2.3-0.1
	c-0.5,0.1-1,0.2-1.5,0.2c-0.2,0-0.4,0.1-0.6,0.2c-0.3,0.3-0.2,0.7-0.1,1.1c0.5,2.9-4.9,6.7-2.5,8.5c1.7,1.3,3.5,2.7,5.6,2.6
	c0.2,0,0.5-0.1,0.7,0c0.7,0.2,0,1.2,0.4,1.8c0.4,0.6,1.5-0.5,2.1-0.2c0.6,0.3-0.1,1.5,0.4,2C306.5,136.3,307.3,135.4,307.8,135.7z"
	/>
<path fill="none" stroke="#E1E1E1" stroke-miterlimit="10" d="M336.7,118.7c0-0.2-0.2-0.3-0.3-0.4c-1.3-1.1-3.3-1.3-4.8-0.3
	c-0.9,0.6-1.6,1.5-2.6,1.6c-0.6,0.1-1.2-0.2-1.8-0.1c-1.6,0.2-2.2,2-2.5,3.6c-0.4,1.9-2.6,4.4-1.2,5.8c1.2,1.2,3.4,0.2,5,0.8
	c0.7,0.3,1.4,1.1,2.1,0.8c2.3-1.1,1.6-4.8,2.4-7.2c0.2-0.6,0.4-1.3,1-1.6c0.5-0.3,1.2-0.4,1.7-0.7c0.6-0.4,0.8-1.1,1-1.8
	C336.7,119,336.7,118.8,336.7,118.7z"/>
<path fill="none" stroke="#E1E1E1" stroke-miterlimit="10" d="M323.3,64c-0.2,1.2-1.9,2.5-1.1,3.5c0.8,1,2.5,0.1,3.3-0.9
	c0.8-0.9,1.2-2.2,1.9-3.2c0.8-1.2,2-2.1,2.9-3.2c0.9-1.1,2.1-3.1,1-4c-0.6-0.5-1.4,0.3-2,0.7c-1.2,0.8-2.4,1.6-3.6,2.3
	c-1.1,0.7-2.4,1.7-2.5,3C323.2,62.9,323.4,63.5,323.3,64z"/>
<path fill="none" stroke="#E1E1E1" stroke-miterlimit="10" d="M309,74.2c0.5-0.7,0.5-2,0-2.7c-0.5-0.8-1.9,0.4-1.9,1.3
	S308.5,75,309,74.2z"/>
<path fill="none" stroke="#E1E1E1" stroke-miterlimit="10" d="M256.3,89c0-0.2-0.2-0.4-0.5-0.5c-1.1-0.3-2.3,0.5-3,1.5
	c-0.4,0.4-0.7,0.9-0.9,1.5c-0.1,0.6,0.1,1.6,0.6,1.5c1.7-0.2,2.6-2.2,3.6-3.6C256.2,89.2,256.2,89.1,256.3,89z"/>
<path fill="none" stroke="#E1E1E1" stroke-miterlimit="10" d="M364.4-12.9c1.3,0.4,1.3,2.2,0.7,3.4c-0.6,1.2-1.6,2.2-1.7,3.5
	c-0.1,1.2,0.6,2.3,1,3.4c0.4,1.1,0.2,2.7-0.9,3.1c-1,0.4-2-0.3-3-0.8c-1.9-0.9-4.7-0.9-6,0.7c-0.8,1,0.7,2.3,0.4,3.5
	c-0.6,2-3.9,2.4-6,2c-2-0.4-1.7-3.8-0.9-5.7s4.7-2.9,3.8-4.7c-2.5-5.3-15,0-16.5,5.7c-0.6,2.1-0.7,4.2-2.3,5.7
	c-3.7,3.5-7.5,7.2-12.2,9c-4.9,1.9-10.7,1.8-14.7,5.1c-3.1,2.6-4.6,6.8-8,8.9c-1.8,1.1-5.8,2.1-4.7,3.9c1,1.7,3.9,1,5.7,1.8
	c0.8,0.3,0.4,1.7-0.3,2.1c-0.8,0.4-1.7,0.3-2.6,0.2c-3.8-0.2-7.2,2-10.4,4c-1.6,1.1-2.2,2.9-3.3,4.4c-2,2.9-8.6,1-9.4,4.4
	c-0.4,1.5,2.8,2.8,2.1,4.2c-1.9,3.7-8.2,1.5-12.3,2.2c-0.6,0.1-1.2,0.2-1.8,0c-1.3-0.4-2-2.1-3.4-2.1c-0.7,0-1.3,0.3-1.8,0.7
	c-3.9,2.5-8.1,5.3-9.4,9.7c-0.5,1.6-0.6,3.4-1.8,4.5c-0.8,0.8-2,1.2-3.2,1.6c-8.1,2.8-14.4,9.2-22.4,12.4c-4.2,1.7-8.8,2.4-13.3,3.1
	c-2.4,0.4-5,0.8-7.4,0.3s-4.8-2.1-5.5-4.5c-1.6-5.4,10.5-10.2,7.1-14.6c-0.9-1.2-2.2-1.5-3.5-2.2c-4.1-2.3-9.9,3.8-14.1,5.8
	c-3.8,1.8-10.3-0.6-12,3.2c-1.3,2.9-0.1,6.5-3,7.7s-6.3,0.4-9.4-0.3c-3.6-0.9-9.3,0.7-10.9-2.7c-1.2-2.5-0.9-5.3-2.8-7.4
	c-1.4-1.5-2.8-3-4.7-3.8c-1.9-0.7-3.4,1.8-5.4,1.3c-1.2-0.3,0.5-2.8-0.4-3.7c-3.3-3.6-9.3-6.7-13.8-4.9c-2.9,1.1,1.2,7.2-1.1,9.1
	c-2.2,1.8-5.3,1.5-7.3,3.6c-0.9,0.9-1.7,1.8-2.6,2.7C104,82.2,99.1,87.5,94.5,93c-5.7,6.8-10.9,13.9-15.7,21.3
	c-1.4,2.1-2.7,4.4-3.3,6.8c-0.5,1.9-0.5,3.8-1,5.7c-1.1,3.8-4.1,6.6-7.1,9.2c-3.6,3.2-7.2,6.5-10.8,9.7c-2.1,1.9-6.5,4.6-7.6,1.9
	c-0.6-1.5,1.1-3.4,0.2-4.7c-0.9-1.3-3-1.6-4.6-1.3c-5.3,1.1-9.3,6-12.5,10.3c-1.1,1.4-1.9,3-2.8,4.6c-5,9.3-11.9,27.1-15.1,27.8
	c-2.3,0.5-3.5-3-5.5-4.1c-2.5-1.4-4.9-5.4-7.5-4.2c-3.2,1.5-4.4,5.3-7.8,6c-3.4,0.7-7.3,0.9-9.8,3.3"/>
<path fill="none" stroke="#E1E1E1" stroke-miterlimit="10" d="M-12.8,125.1c0.1-3.3,4.3-4.5,7.4-5.5c8-2.5,14.2-9.9,15.4-18.1
	c0.1-0.9,0.2-1.9,0.6-2.8c0.4-0.9,1.1-1.6,1.8-2.3C19,89.6,23.9,81.1,26.6,72c1-3.4,1.8-7,4.1-9.6c2.8-3,7.1-4.1,10.4-6.4
	c3.4-2.4,1.3-6.4,2.4-10.4c0.9-3.4,7.2-0.3,10.4-1.7s1.8-5.9,4.4-8.4c1.6-1.5,4.3-0.7,5.1-2.7c0.8-2.1,0.6-4.4,1.3-6.4
	c1.8-5.1,8-6.9,13.4-7.1c2.4-0.1,5.2-0.2,6.5-2.2c0.8-1.3,0.8-2.9,1.3-4.3C87.6,8.2,94.2,8,98.1,5c4-3.1,5-9.2,9.4-11.9
	c1.3-0.8,2.7-1.2,4-1.9c3.7-2,5.6-6.2,7.2-10.1"/>
<path fill="none" stroke="#E1E1E1" stroke-miterlimit="10" d="M-13.1,20.7c4.5,1.6,8.7,4.1,12.2,7.5c1.4,1.4,3,3,4.9,2.9
	c1.6,0,2.9-1.2,4.1-2.3c3.8-3.7,7.3-8,12.3-9.6c1.7-0.6,3.5-0.8,5.2-1.3c4.3-1.4,7.9-4.8,9.5-9c0.2-0.5,0.3-1,0.7-1.3
	c1.2-1,2.7,0.6,3.8,1.6c1.7,1.7,4.6,3.3,6.6,2c2.1-1.2,0.5-5,2.1-6.8C52,0.2,59.5,3.1,64.9,1.4c1.4-0.5,2.8-1,4-1.9
	c1.1-0.9,1.9-2.2,2.9-3.2c2.4-2.5,5.9-3.7,8.9-5.4s5.9-4.8,5.4-8.3"/>
<path fill="none" stroke="#E1E1E1" stroke-miterlimit="10" d="M148.8,54.5c-0.4-3.7,2.6-7.1,5.1-9.9c2.7-3,6-5.3,9.4-7.5
	c2.1-1.4,4.2-2.8,6.2-4.2c0.9-0.6,1.7-1.2,2.4-2c1-1.2,1.7-2.9,3.2-3.1c0.6-0.1,1.4,0.1,1.9-0.3c0.4-0.3,0.5-0.7,0.8-1.1
	c0.9-1.7,3.5-0.4,4.9-1.7c1.1-1.1,0.9-3.1,2.5-3.2c1.6-0.2,3,1.9,4.4,1.3c0.6-0.2,0.7-1.1,0.6-1.7c0-0.2-0.1-1.1,0-1.2
	c0.6-0.9,1.2-1.7,2.1-2.2s2-0.8,2.9-0.3s0.2,1.9,1,2.6c1,0.9,2.5-1.1,3.8-1.1c0.2,0,0.4,0,0.6,0.1c0.3,0.2,0.2,0.6,0.1,1
	c-0.2,0.5,0.1,0.8-0.1,1.2c-2.1,2.9-5.8,4.4-6.8,7.8c-1,3.4-1,7.1-0.9,10.7c0,0.6,0,1.2,0.4,1.7c0.3,0.4,0.9,0.6,1.4,0.7
	c2.8,0.8,7.4-0.4,8.4,2.4c1,2.6-3.2,4.6-4.8,6.9c-0.9,1.3-1.9,2.7-3.3,3.4c-1.1,0.6-2.3,0.7-3.4,1.2c-2,0.8-3.5,2.6-5.1,4
	c-2.7,2.5-6,4.2-9.6,5.2c-3,0.8-6.6,0.8-8.8-1.5c-0.5-0.6-1-1.2-1.5-1.9c-3.9-4.9-12-1.8-17.3-5C148.6,56.3,148.9,55.3,148.8,54.5z"
	/>
<path fill="none" stroke="#E1E1E1" stroke-miterlimit="10" d="M223.1,66.3c0.9,0.6,0.7,2,1.5,2.6c1.5,1,3.6-0.5,5.3-0.1
	c0.7,0.2,1.3,0.4,2,0.2c1.2-0.3,1.9-1.8,1.7-3s-1-2.3-1.8-3.3c-0.5-0.6-0.9-1.2-1.4-1.8c-0.5-0.6-1-1.2-1.7-1.5
	c-1.5-0.6-3.3,0.5-3.8,2c-0.2,0.5-0.3,1.2-0.7,1.6c-0.2,0.2-0.4,0.3-0.7,0.4c-0.8,0.4-1.7,1.4-1.2,2.1
	C222.4,65.9,222.8,66.1,223.1,66.3z"/>
<path fill="none" stroke="#E1E1E1" stroke-miterlimit="10" d="M231.4-11.4c-1,1.5-2.1,3-3.1,4.5c-0.7,1.1-1.5,2.2-2.1,3.3
	c-1.5,2.8-0.7,6.5-2.4,9.1c-4.4,6.5-18.4,10.2-14.9,17.2c0.5,1.1,2.2,1,3.4,1.4c0.3,0.1,0.7,0.3,0.9,0.6c0.2,0.4,0,0.8,0,1.2
	c-0.2,1.4,0.5,2.8,1.4,3.9c2.2,2.7,5.7,4.2,9.2,4.4c3.5,0.2,6.8-4.1,10-2.7c0.8,0.4-0.3,2.1,0.5,2.5c3.5,1.8,7.5-3.8,8.5-7.6
	c0.6-2.3,0-5,1.5-6.9c1.1-1.4,2.9-1.9,4.6-2.3c5.4-1.3,10.9-2.7,16.3-4c1.5-0.4,3-0.7,4.6-0.8c2.4-0.1,4.8,0.6,7.2,0.6
	c7.9,0.2,14.6-6.2,22.4-7.4c1.2-0.2,2.5-0.2,3.6,0.3s0.7,2,1.4,3c2.9,4.2,10.2-2.6,13-6.8c2.8-4.1,3.7-9.7,7.7-12.6
	c2.4-1.8,6-2.9,6.2-5.9"/>
<path fill="none" stroke="#E1E1E1" stroke-miterlimit="10" d="M247.3-15.6c-1.2,3.3-2.6,6.5-4.3,9.6c-0.8,1.5-1.7,2.9-2,4.6
	c-0.3,1.6,0.1,3.6,1.4,4.6c1.8,1.4,4.4,0.6,6.6,1.2c1.4,0.4,2.6,1.3,4,1.5c0.9,0.1,1.8-0.2,2.7-0.5c4.5-1.5,9.1-2.8,13.8-3.9
	c2.2-0.6,4.7-1.1,6.7-0.1c1.4,0.7,2.5,2,4.1,2.3c2.2,0.4,4.1-1.4,6.2-1.9c1.4-0.3,2.9-0.1,4.3-0.3c1.9-0.2,3.6-1.2,5.2-2.1
	c7.2-4.1,13.9-9,20-14.6"/>
<path fill="none" stroke="#D6D6D6" stroke-miterlimit="10" d="M-11.5,198c1.5,0.8,1.6,3.5,3.4,3.8c0.6,0.1,1.2-0.2,1.7-0.5
	c1.8-0.9,3.7-1.8,5.5-2.7c0.6-0.3,1.3-0.6,1.9-0.4c0.4,0.1,0.7,0.5,1,0.8c3.4,3.6,6.8,7.2,8.9,11.6c0.7,1.5,1.5,3.3,3,4
	c1.5,0.6,3.2,0.1,4.6-0.5c5.7-2.2,11.2-4.8,16.7-7.4c1.2-0.6,2.9-0.8,4.1-1.3c2.4-1.1,4.2-2.6,6.5-4c2.9-1.7,5.9-3.5,8.7-5.4
	c3.7-2.5,7.9-1.3,9.9-1.4c1-0.1,1.3-1.5,2.3-1.5c1,0,1.9,0.5,2.7,1.2c0.3,0.2,0.6,0.5,0.8,0.8c0.5,0.8,0.2,1.9,0,2.8
	c-0.4,1.8-0.4,3.6,0.1,5.4c1.6,6,4.2,11.5,5.3,17.6c1.3,7-1.6,14.6,1.3,21.1c1.2,2.6,3.2,4.9,3.5,7.8c0.2,2-0.5,4-1.5,5.8
	c-3.7,6.9-11.2,11.7-12.9,19.3c-0.5,2.4-0.4,4.9-0.4,7.3c0.1,5.8,0,11.6-0.1,17.5c-0.1,4-0.2,8.1-1.8,11.7c-0.2,0.5-0.5,1-0.5,1.5
	c0,0.8,0.4,1.5,0.8,2.2c1.7,3.1,2.6,6.7,2.6,10.3"/>
<path fill="none" stroke="#D6D6D6" stroke-miterlimit="10" d="M163.8,310.1c-0.7-1.4-0.5-3.2,0-4.7c0.5-1.5,1.4-3,1.7-4.5
	c0.5-2,0.2-4-0.1-6c-0.1-0.9-0.3-1.7-0.2-2.6c0.1-1.3,0.8-2.5,1.2-3.7c1.3-3.9,0.6-8.1-0.2-12.1"/>
<path fill="none" stroke="#D6D6D6" stroke-miterlimit="10" d="M311.1,62.4c1.5,4.2,2,9.2,5.1,12c0.5,0.5,1.2,1,1.2,1.7
	c0,0.3,0,0.5-0.1,0.8c-0.5,2.3-2.8,4.8-1.5,6.8c0.8,1.3,3.4,1.2,3.2,2.7c-0.1,0.6-0.5,1.2-0.6,1.8c-0.2,1,0.3,2.1,0.8,3
	c0.6,1.1,1.2,2.2,2.2,2.9c0.6,0.4,1.2,0.7,1.8,1.1c1.3,1,1.9,2.5,2.7,3.9c0.8,1.4,1.9,2.8,3.4,3c2.8,0.4,4.9-2.9,7.7-3.1
	c0.3,0,0.6,0,0.9,0.1c0.3,0.2,0.5,0.5,0.7,0.8c1,1.7,1.6,3.9,3.4,4.7c1.6,0.7,3.4,0.1,5-0.6c8.1-3.3,16.5-7,25.2-6.1"/>
<path fill="none" stroke="#D6D6D6" stroke-miterlimit="10" d="M369.4,27.4c-1.7-1.2-3.6,1.1-5.4,2.1c-2.2,1.2-5,0.4-7.4,1
	c-4.4,1-6.6,5.7-9.5,9.3c-3.6,4.5-8.8,7.5-13.9,10.3c-5.9,3.2-11.7,6.5-17.6,9.7c-3.4,1.9-6.9,3.8-10,6.2c-3.2,2.6-6.1,5.8-9.7,7.7
	c-2.5,1.3-5.6,2.3-6.8,4.9c-0.5,1.1-0.5,2.3-1,3.4c-0.5,1.5-1.7,2.7-2.8,3.8c-7.2,7.1-15.9,13.4-25.7,15.7c-9,2.1-20.4,3.4-30.6,9.6
	c-4.3,2.6-8.2,5.8-12.9,7.6c-0.9,0.3-1.8,0.6-2.7,0.3c-0.9-0.3-1.3-1.6-1.4-2.4"/>
<path fill="none" stroke="#D6D6D6" stroke-miterlimit="10" d="M177.1-12.4c-5.9,4.7-11.7,9.5-17.6,14.2c-2,1.6-4.2,3.6-4.3,6.1
	c0,0.7,0.1,1.3,0,2c-0.4,1.9-2.5,2.8-4.5,2.9s-3.9-0.3-5.7,0.4c-2,0.8-3.3,2.7-4.6,4.4c-8.1,11.3-19.8,20.4-24.3,33.5
	c-0.4,1.2-0.8,2.5-0.6,3.8c0.2,1.4,1,2.6,1.9,3.7c2.3,3,5.1,6.1,5.4,10c0.1,1.3,0,2.8,1,3.5c0.6,0.5,1.5,0.5,2.3,0.7
	c3.1,1,3.4,5.1,3.7,8.3c0.4,3.8,1.6,7.5,3.5,10.7c2.4,4.1,6.7,7.8,11.4,7.1c0.9-0.1,2.1-0.3,2.6,0.5c0.3,0.4,0.2,1,0.2,1.5
	c0,3,2.7,5.7,5.7,5.7c0.6,0,1.1-0.1,1.7,0.1c1.6,0.5,1.7,2.6,2,4.2c0.4,2.3,1.7,4.3,3.6,5.7"/>
<path fill="#7BBCEB" stroke="#4E9BD7" stroke-miterlimit="10" d="M181,147.9c1.1-3.1,4.1-5.3,4.3-8.5c0.1-1.4-0.2-2.8,0.2-4.2
	c0.6-2,2.5-3.3,4.3-4.4c1.8-1.1,3.6-2.2,5.4-3.3c0.9-0.5,1.7-1.1,2.7-1.3c1.2-0.3,2.4-0.2,3.6-0.2c2.3,0.1,4.8-0.2,6.7-1.5
	c1.9-1.3,3.2-5.3,2.4-6c-0.6-0.5-2.5,0.4-1.9-1.2c0.9-2.5,0.7-5.4,1.3-5.5c1.6-0.1,0.1,4.3,1.7,4.5c2.7,0.4-0.8-5.4,0.1-7.9
	c0.3-0.8,0.6-1.3,1-2c1.1-1.7,1.1-4.2-0.3-5.7s-4-1.8-5.5-0.3c-1.2,1.2-1.6,3.5-3.3,3.7c-0.6,0.1-1.1-0.1-1.7,0
	c-0.6,0.1-1.2,0.5-1.8,0.7c-2.9,0.9-5.1-2.4-6.6-5.1c-1.7-3.1-4.5-6.2-8-5.8c-0.9,0.1-3.5,1.2-4.4,1.4c-3.4,0.8-5.2-1.4-8.7-0.9
	c-3.3,0.4-6,3.1-7.2,6.2s1.3,5.7,0.5,9c-0.6,2.7-2.6,4.6-4.6,6.4c-3.4,3.2-9.3,1.1-13.3,3.5c-4,2.4-3.7,5.5-3.6,10.1
	c0,1.1-0.2,4.6,0.2,5.6c0.5,1,0.9,1.7,1.5,2.5c1.3,1.8,1.5,4.2,2.3,6.3c1.5,4.5,5.2,7.9,7.5,12.1c4.4,8.1,3.3,18.1,6.4,26.8
	c0.8,2.2,1.8,4.4,2.3,6.6c1.3,5.6-0.6,12.1,2.9,16.6c1.4,1.9,3.7,3.3,4.2,5.6c0.5,2.2-0.7,4.5,0.1,6.5c0.3,0.8,0.9,1.4,1.2,2.3
	c0.3,0.9,0,1.9-0.3,2.8c-0.6,2.3-0.5,5.6-1.8,7.7c-1.5,2.3-2.1,4.7-1.3,7.4c0.6,2-3.7,2.7-3.5,4.8c0.1,0.8,0.8,1.4,1.4,2
	s1,1.6,0.4,2.2c-0.2,0.3-0.6,0.4-0.8,0.6c-1.1,0.9-0.8,2.6-0.2,3.8s1.6,2.4,1.6,3.8c0,1.4-1.8,2.7-2.8,1.8c-0.3-0.3-0.4-0.7-0.6-1.1
	c-0.8-1.2-1.7-0.3-3.1-0.7c-2.1-0.6-0.9-4.2,0.2-6c0.2-0.4,0.5-0.8,0.9-1c0.4-0.2,0.9-0.3,1.1-0.6c0.7-0.8-0.3-1.9-0.9-2.7
	c-1.1-1.3-0.4-3.2-1.3-4.7c-1.1-1.8-4.4-0.8-5.4,0.9c-0.7,1.2-0.7,2.6-0.7,4c0,3.9,1.2,9.4-0.1,11.5c-2.4,4-6.7,6.4-9.3,10.3
	c-1,1.6-2.2,3.1-3.3,4.7c-1.6,2.3-5.2,5.5-4.4,6.9c0.5,0.9,1.7-0.2,2.2,0.7c0.5,0.9-0.3,2.3,0.6,2.8c2.4,1.3,0.3-6.9,3.5-9.6
	c0.6-0.5,1.5-0.9,1.9-1.7c0.3-0.5,0.3-1.1,0.5-1.6c0.2-0.5,0.5-1,0.9-1.3c2.3-1.8,4.1-5.9,5.8-6.4c1.4-0.4-0.9,2.9-0.4,4.2
	c0.6,1.6,3.4,1.9,4.5,4.1c1.4,2.6,4,4.6,6.8,5.5c3.2,1,6.8-0.2,9.3-2.3c3.1-2.6,5-6.3,6.8-9.9c2.9-5.7,5.8-11.4,8-17.4
	c3.1-8.5,4.9-17.5,9-25.5c0.4-0.8,0.9-1.6,0.8-2.5c0-0.9-1.1-1-1.6-1.8c-0.7-0.9,1-2.1,1-3.3c0-1.1-0.9-1.7-0.9-2.9
	c0-1.8,1.8-3,1.4-5.6c-0.5-3.4,2.7-5.7,5.3-8.1c1.1-1-0.4-3.1-0.6-4.6c-0.2-1.7,0.9-3.2,2.1-4.4s2.6-2.2,3.4-3.7
	c0.8-1.5,0.8-3.3,0.7-4.9c0-0.5-0.1-1.1,0.1-1.6c0.2-0.4,0.6-0.7,0.9-1c2.1-1.6,4.7-2.5,6.3-4.6c0.3-0.4,0.6-0.9,1.1-1.2
	c1.3-0.8,3,0.3,4.5,0.1c1.4-0.2,2.2-1.6,2.9-2.8c2.1-3.7,4.2-7.4,6.4-11.1c0.2-0.4,0.4-0.8,0.5-1.2c0-0.6-0.3-1.1-0.5-1.7
	c-0.4-1.2,0-2.6-0.8-3.5c-1-1.2-2.9-0.6-4.1,0.4c-1.2,1-2.2,2.3-3.7,2.6c-1.9,0.4-4.1-1.1-5.7,0.1c-1,0.7-1.2,2.2-2.3,2.6
	c-0.6,0.2-1.3,0.1-1.9,0.2c-3.5,0.2-6.6,5.2-8.1,8.3c-0.9,1.9-1.1,1.9-2.7,3.3c-0.7,0.6-1.7,1.2-2.5,0.8c-0.9-0.5-0.9-1.8-0.4-2.7
	c0.5-0.9,1.3-1.5,1.8-2.4c0.4-0.9,0.2-2.3-0.8-2.5c-1.2-0.3-2,1.4-3.1,1.9c-0.8,0.3-1.7,0-2.5-0.1c-0.8-0.1-1.4,0.9-2.2,0.8
	c-2.1-0.3-1.9-4.1-4.7-2.5c-0.4,0.2-0.8,0.5-1.2,0.3c-0.2-0.1-0.4-0.4-0.5-0.6c-0.9-1.8-1.9-3.7-2.8-5.5
	C182.4,153,180.1,150.4,181,147.9z"/>
<path fill="#EAEAEA" stroke="#4E9BD7" stroke-miterlimit="10" d="M134.5,287.2c0.3-0.6,0.7-1.2,1-1.8c0.2-0.3,0.4-0.6,0.5-1
	c0.1-0.2,0.2-0.5,0.1-0.8c-0.1-0.6-0.9-0.9-1.5-0.7c-0.6,0.2-1,0.7-1.3,1.2c-0.6,0.8-1.2,1.7-1.7,2.5c-0.3,0.5-0.6,1-0.4,1.6
	c0.2,0.7,1.2,0.9,1.8,0.5S134.1,287.9,134.5,287.2z"/>
<path fill="#EAEAEA" stroke="#4E9BD7" stroke-miterlimit="10" d="M97.7,321.5c-2.3,0.4-5.4-0.9-7-0.1c-1.2,0.6,1.6,2.2,3,2.4
	c1.3,0.2,2.7-0.2,4-0.7c0.3-0.1,0.6-0.2,0.8-0.5s0.3-0.7,0.1-0.9C98.3,321.6,98,321.5,97.7,321.5z"/>
<path fill="none" stroke="#4E9BD7" stroke-miterlimit="10" d="M135.8,283.2c1-1.2,2-2.5,2.9-3.9"/>
<path fill="none" stroke="#4E9BD7" stroke-miterlimit="10" d="M132.2,289c0.1,0.8,0.9,2.2,0.2,3.4c-0.7,1.2-2.1,1.2-3.1,2.2
	c-3.8,3.5-8.2,7.4-12.5,10.9c-3,2.4-5,5.8-7.3,8.8c-1.4,1.8-2.9,3.7-4.7,5.1c-1.8,1.5-4,2.5-6.3,2.5"/>
<path fill="none" stroke="#4E9BD7" stroke-miterlimit="10" d="M90.5,321.4c-3.8-0.4-9.3-0.6-13.2-2c-0.8-0.3-1.5-0.6-2.3-0.5
	c-1.4,0-2.6,0.9-3.5,1.9c-0.9,1-1.6,2.2-2.6,3.1c-1.7,1.7-4,2.5-6.2,3.5s-3.6,2.9-5,4.8c-0.9,1.2-3.2-0.1-4.5,0.7
	c-0.4,0.3-0.7,0.7-1,1.1c-2.2,3.2-4.5,6.5-6.7,9.7c-0.9,1.2-1.7,2.5-2.8,3.5c-1.4,1.3-3.2,2.2-4.6,3.6c-3.5,3.5-4,9.7-8.5,11.8
	c-0.5,0.2-1.1,0.4-1.5,0.8c-1.5,1.2-0.7,3.6,0.2,5.3"/>
<path fill="#EAEAEA" stroke="#D6D6D6" stroke-miterlimit="10" d="M95.3,169.2c-0.3,0.6-0.8,1.5-0.3,1.9c2.2,1.6,5.2-2.3,6.3-4.9
	c0.2-0.5,0.6-1.2,0.2-1.5c-0.7-0.6-1.9-0.2-2.7,0.3c-0.3,0.2-0.6,0.5-0.8,0.8c-0.5,0.6-1,1.2-1.5,1.8
	C96,168.1,95.6,168.6,95.3,169.2z"/>
<path fill="#EAEAEA" stroke="#D6D6D6" stroke-miterlimit="10" d="M140.2,306.7c-0.7-0.1-1.3-0.3-2-0.4c-0.7,0-1.4,0.2-1.8,0.8
	c-0.4,0.8,0,1.8,0.7,2.4c1.4,1.3,3.6,1.8,5.4,1c0.2-0.1,0.5-0.2,0.7-0.4c0.5-0.4,0.5-1.1,0.9-1.7c0.6-0.9,2.2,0.7,3.1,0.1
	c0.2-0.2,0.4-0.4,0.5-0.7c0.3-0.7,1-1.5,0.6-2.1c-0.6-0.8-1.9-0.3-2.9-0.4c-0.4,0-0.7,0-1,0.1c-0.3,0.1-0.5,0.3-0.7,0.4
	C142.5,306.6,141.3,306.9,140.2,306.7z"/>
<path fill="#EAEAEA" stroke="#D6D6D6" stroke-miterlimit="10" d="M324.6,133.7c0.2-1-0.4-2-1.4-2.2c-0.5-0.1-1,0-1.5,0.2
	c-1.9,0.6-3.5,1.9-4.5,3.6c-0.1,0.1-0.1,0.2-0.1,0.4c0,0.4,0.5,0.6,1,0.7c1.1,0.1,2.4,0.8,3.3,0c0.7-0.6,0.9-1.6,1.8-1.7
	c0.4-0.1,0.9,0,1.2-0.3C324.4,134.2,324.5,134,324.6,133.7z"/>
<path fill="#EAEAEA" stroke="#D6D6D6" stroke-miterlimit="10" d="M351.1,130.1c0.4-0.2,0.9-0.4,1.2-0.7c0.3-0.4,0.5-1,0.2-1.3
	c-1-0.9-2.6-0.1-3.8,0.3c-1.6,0.5-3.2,1-4.8,1.5c-0.3,0.1-0.7,0.2-0.9,0.4c-0.4,0.4-0.6,1-0.5,1.6c0.2,0.5,0.7,1,1.3,1
	c0.3,0,0.5-0.1,0.8-0.1c1.3-0.4,2.5-0.9,3.5-1.7c0.2-0.2,0.4-0.3,0.7-0.4c0.4-0.2,0.7-0.2,1.1-0.3
	C350.3,130.3,350.7,130.2,351.1,130.1z"/>
<path fill="#EAEAEA" stroke="#D6D6D6" stroke-miterlimit="10" d="M266.4,123.1c-0.4-0.1-0.9,0.2-1.1,0.6c-0.2,0.4-0.3,0.8-0.3,1.3
	c0,1.6,0.5,3.1,1.4,4.4c0.1,0.2,0.2,0.3,0.4,0.4c0.4,0.2,0.8,0,1.1-0.3c0.3-0.3,0.4-0.7,0.5-1.1c0.2-0.8,0.4-1.7,0-2.3
	c-0.2-0.2-0.4-0.4-0.5-0.6c-0.3-0.4-0.4-0.9-0.5-1.4C267.2,123.7,266.9,123.2,266.4,123.1z"/>
<path fill="#FFFFFF" stroke="#4E9BD7" stroke-miterlimit="10" d="M159.1,257.1c-0.7,0.9-0.8,2.1-0.8,3.3c0,0.3,0,0.6,0.2,0.8
	c0.3,0.3,0.7,0.2,1.1,0.2c1.3-0.1,3,0.8,3.9-0.2c0.5-0.5-0.2-1.4-0.7-1.9c-0.9-0.8-1.7-1.7-2.7-2.4c-0.1-0.1-0.2-0.2-0.4-0.2
	C159.4,256.8,159.2,257,159.1,257.1z"/>
<path fill="#FFFFFF" stroke="#4E9BD7" stroke-miterlimit="10" d="M171.9,253c0.2-0.8,1-1.3,1-2.1c0-0.8-1.1-1.3-1.7-0.8
	c-0.9,0.7-1.2,2.1-0.6,3c0.2,0.4,0.9,0.7,1.2,0.4C171.8,253.4,171.8,253.2,171.9,253z"/>
<path fill="#FFFFFF" stroke="#4E9BD7" stroke-miterlimit="10" d="M174.4,246.9c-1,1.3,1.3,4,2.8,3.4c0.8-0.3,0.1-1.5-0.4-2.2
	C176.2,247.3,175,246.1,174.4,246.9z"/>
<path fill="#FFFFFF" stroke="#4E9BD7" stroke-miterlimit="10" d="M176.7,241.9c-0.4-0.5-1.4,0.1-1.8,0.6c-0.4,0.5-0.7,1.4-0.2,1.9
	c0.4,0.4,1.3,0.5,1.6,0.1C177,243.8,177.2,242.6,176.7,241.9z"/>
<g>
	<g>
		<path fill="none" stroke="#585858" stroke-miterlimit="10" d="M-11.7,366.6c0.4-0.5,0.9-1,1.3-1.5"/>
		<path fill="none" stroke="#585858" stroke-miterlimit="10" stroke-dasharray="4.0026,1.0006" d="M-9.7,364.4
			c5.4-6,10.7-12,16.1-18c1-1.1,2-2.2,3.3-2.7c0.7-0.3,1.4-0.4,2-0.7c0.9-0.4,1.6-1.1,2.2-1.9c2.3-2.8,4-6,5-9.4
			c0.3-1.1,0.6-2.2,1.6-2.8c0.5-0.3,1.2-0.4,1.7-0.6c1.7-0.5,2.9-2,4.4-2.8c3-1.7,6.9-1.1,10.2,0.2c1.9,0.7,4.2,1.6,5.8,0.2
			c0.5-0.4,0.8-1.1,1.2-1.5c1.6-1.7,4.3-1.5,6.6-1.3s5.2-0.2,6.1-2.4c0.4-1.1,0.9-2,1.5-3c0.7-1.2,1.8-1.8,3.1-1.3
			c1.3,0.5,1.9,3,3.3,2.7c2-0.3,3-2.7,4.6-3.3c0.8-0.3,2.1,1.3,3.1,1c1.4-0.5,1.4-3,5.7-2.2c1.8,0.3-1.2,2.2,18.5,2.4
			c1,0,2.1,0.2,2.8,0.9c1.1,1.1,0.9,3.1,2,4.2c1.6,1.5,4.1,0,5.6-1.4c8.2-7.4,15.8-15.5,22.8-24c1.5-1.8,3.9-1.8,5.8-3.2
			c1.5-1.1,1.2-3.8,3-4.4c2.5-0.9,4.4-3.2,5.8-5.6c0.3-0.6,0.6-1.1,0.9-1.7c2-2.8,6.9-2.7,8-6c0.3-0.9,0.3-2,1.1-2.6
			c0.7-0.5,1.6-0.3,2.3,0.2c0.7,0.5,1.1,1.1,1.7,1.7c0.7,0.7,1.5,1.3,2,2.2c1.2,2.2-0.6,4.9,0.2,7.3c0.4,1.1,1.3,1.9,2,2.8
			s1.3,2.1,0.8,3.2c-0.2,0.6-0.7,1-1.2,1.4c-3.4,2.9-6.8,5.7-10.1,8.6c-1.3,1.1-2.7,2.5-2.4,4.1c0.2,1.6,1.9,3.1,1.1,4.4
			c-0.6,0.9-2,1-2.5,1.9c-0.7,1.1,0.2,2.4,1.1,3.3s2.1,1.8,2.1,3c0,0.5-0.3,1-0.5,1.5c-0.8,1.7-1.6,3.3-2.5,5
			c-0.8,1.7-2.1,3.6-4,3.5c-1.4-0.1-3-1.4-4.1-0.5c-0.3,0.2-0.4,0.5-0.6,0.8c-1.1,2-1.8,4.2-2.2,6.4c-0.1,0.9-0.3,1.8-0.8,2.5
			c-0.3,0.5-0.8,0.8-1.1,1.3c-0.9,1.2,0.8,2.6,0.3,4c-0.4,1.3-3.2,1.9-2.2,2.9c0.7,0.7,2.1,0.7,2.1,1.7c0,0.8-0.9,1.4-1.6,1.8
			c-2.8,1.7-3,5.4-5,7.9c-1.2,1.5-3.6,1.6-4.6,3.3c-1.4,2.4-0.4,5.4-0.5,8.2"/>
		<path fill="none" stroke="#585858" stroke-miterlimit="10" d="M123.7,368.6c-0.1,0.7-0.2,1.3-0.4,1.9"/>
	</g>
</g>
<text transform="matrix(0.265 0.9643 -0.9643 0.265 163.5939 136.3335)" fill="#FFFFFF" font-family="'Verdana-Italic'" font-size="8">Kibbie</text>
<text transform="matrix(0.265 0.9643 -0.9643 0.265 176.3995 184.369)" fill="#FFFFFF" font-family="'Verdana-Italic'" font-size="8">Lake</text>
<text transform="matrix(1 0 0 1 59.6464 102.3741)" fill="#585858" font-family="'Verdana-Italic'" font-size="8">× 6979</text>
<text transform="matrix(1 0 0 1 236.9964 208.9241)" fill="#585858" font-family="'Verdana-Italic'" font-size="8">× 7178</text>
<text transform="matrix(1 0 0 1 79.7964 293.1241)" fill="#585858" font-family="'Verdana-Italic'" font-size="8">× 6725</text>
<path fill="none" d="M272.6,286.8c2.5-0.6,4.3-2.6,6-4.4c5.5-6.2,11-12.3,16.6-18.5"/>
<text transform="matrix(0.6721 -0.7405 0.7405 0.6721 278.5497 286.1588)"><tspan x="0" y="0" fill="#7D7D7D" font-family="'Verdana-Italic'" font-size="7">7</tspan><tspan x="4.4" y="0" fill="#7D7D7D" font-family="'Verdana-Italic'" font-size="7" rotate="-0.3">4</tspan><tspan x="8.9" y="0" fill="#7D7D7D" font-family="'Verdana-Italic'" font-size="7" rotate="-0.3">0</tspan><tspan x="13.4" y="-0.1" fill="#7D7D7D" font-family="'Verdana-Italic'" font-size="7" rotate="-0.3">0</tspan></text>
<path fill="none" d="M19.1,308.1c10.7-5,17.1-17.9,27.3-22.6"/>
<text transform="matrix(0.7516 -0.6596 0.6596 0.7516 26.4477 306.5181)"><tspan x="0" y="0" fill="#7D7D7D" font-family="'Verdana-Italic'" font-size="7">6</tspan><tspan x="4.6" y="0" fill="#7D7D7D" font-family="'Verdana-Italic'" font-size="7" rotate="-3.8">6</tspan><tspan x="9.1" y="-0.3" fill="#7D7D7D" font-family="'Verdana-Italic'" font-size="7" rotate="-5.2">0</tspan><tspan x="13.5" y="-0.8" fill="#7D7D7D" font-family="'Verdana-Italic'" font-size="7" rotate="-4.2">0</tspan></text>
<path fill="none" d="M235.3,121.9c6.5-2.7,13-5.5,19.5-8.2c2.1-0.9,5.2-3.3,6.4-1.4"/>
<text transform="matrix(0.9214 -0.3886 0.3886 0.9214 240.6933 122.3512)"><tspan x="0" y="0" fill="#7D7D7D" font-family="'Verdana-Italic'" font-size="7">6</tspan><tspan x="4.5" y="0" fill="#7D7D7D" font-family="'Verdana-Italic'" font-size="7" rotate="0">6</tspan><tspan x="8.9" y="0" fill="#7D7D7D" font-family="'Verdana-Italic'" font-size="7" rotate="0">0</tspan><tspan x="13.4" y="0" fill="#7D7D7D" font-family="'Verdana-Italic'" font-size="7" rotate="0">0</tspan></text>
<path fill="none" d="M12.4,96.5C19,89.6,23.9,81.1,26.6,72c1-3.4,1.8-7,4.1-9.6"/>
<text transform="matrix(0.4792 -0.8777 0.8777 0.4792 22.9364 86.8809)"><tspan x="0" y="0" fill="#7D7D7D" font-family="'Verdana-Italic'" font-size="7">7</tspan><tspan x="4.6" y="0" fill="#7D7D7D" font-family="'Verdana-Italic'" font-size="7" rotate="-4.2">0</tspan><tspan x="9.3" y="-0.4" fill="#7D7D7D" font-family="'Verdana-Italic'" font-size="7" rotate="-8.5">0</tspan><tspan x="13.9" y="-1.1" fill="#7D7D7D" font-family="'Verdana-Italic'" font-size="7" rotate="-12.7">0</tspan></text>
<path fill="none" d="M250.4,181.1c12.4-5.1,24-12.1,34.2-20.8"/>
<text transform="matrix(0.8946 -0.4469 0.4469 0.8946 258.161 180.3946)"><tspan x="0" y="0" fill="#7D7D7D" font-family="'Verdana-Italic'" font-size="7">6</tspan><tspan x="4.6" y="0" fill="#7D7D7D" font-family="'Verdana-Italic'" font-size="7" rotate="-2">8</tspan><tspan x="9.1" y="-0.2" fill="#7D7D7D" font-family="'Verdana-Italic'" font-size="7" rotate="-4">0</tspan><tspan x="13.6" y="-0.5" fill="#7D7D7D" font-family="'Verdana-Italic'" font-size="7" rotate="-5.9">0</tspan></text>
<path fill="none" d="M244.1,19.8c1.1-1.4,2.9-1.9,4.6-2.3c5.4-1.3,10.9-2.7,16.3-4c1.5-0.4,3-0.7,4.6-0.8"/>
<text transform="matrix(0.9714 -0.2376 0.2376 0.9714 248.4882 20.1783)"><tspan x="0" y="0" fill="#7D7D7D" font-family="'Verdana-Italic'" font-size="7">7</tspan><tspan x="4.5" y="0" fill="#7D7D7D" font-family="'Verdana-Italic'" font-size="7" rotate="0">0</tspan><tspan x="8.9" y="0" fill="#7D7D7D" font-family="'Verdana-Italic'" font-size="7" rotate="0">0</tspan><tspan x="13.3" y="0" fill="#7D7D7D" font-family="'Verdana-Italic'" font-size="7" rotate="0">0</tspan></text>
<g>
	<g>
		<polyline fill="none" stroke="#7D7D7D" stroke-miterlimit="10" points="85.2,341.6 85.2,348.7 275.4,348.7 275.4,341.7 		"/>
		<line fill="none" stroke="#7D7D7D" stroke-miterlimit="10" x1="180.5" y1="341.4" x2="180.5" y2="348.7"/>
		<line fill="none" stroke="#7D7D7D" stroke-miterlimit="10" x1="161.2" y1="349.2" x2="161.2" y2="343.7"/>
		<line fill="none" stroke="#7D7D7D" stroke-miterlimit="10" x1="142.4" y1="349.2" x2="142.4" y2="343.7"/>
		<line fill="none" stroke="#7D7D7D" stroke-miterlimit="10" x1="123.3" y1="349.2" x2="123.3" y2="343.5"/>
		<line fill="none" stroke="#7D7D7D" stroke-miterlimit="10" x1="104.6" y1="349.2" x2="104.6" y2="343.7"/>
	</g>
	<text transform="matrix(1 0 0 1 83.7837 339.1469)" fill="#7D7D7D" font-family="'Verdana'" font-size="8">0</text>
	<text transform="matrix(1 0 0 1 174.2948 339.1469)" fill="#7D7D7D" font-family="'Verdana'" font-size="8">0.5</text>
	<text transform="matrix(1 0 0 1 258.3417 339.1469)" fill="#7D7D7D" font-family="'Verdana'" font-size="8">1 mi</text>
</g>
</svg>
