<?xml version="1.0" encoding="utf-8"?>
<!-- Generator: Adobe Illustrator 17.1.0, SVG Export Plug-In . SVG Version: 6.00 Build 0)  -->
<!DOCTYPE svg PUBLIC "-//W3C//DTD SVG 1.1//EN" "http://www.w3.org/Graphics/SVG/1.1/DTD/svg11.dtd">
<svg version="1.1" id="Layer_1" xmlns="http://www.w3.org/2000/svg" xmlns:xlink="http://www.w3.org/1999/xlink" x="0px" y="0px"
	 viewBox="0 0 360 360" enable-background="new 0 0 360 360" xml:space="preserve">
<path fill="none" stroke="#E1E1E1" stroke-miterlimit="10" d="M341.3,372.4c-0.5-1-0.1-2.3,0.5-3.3c2.4-4.3,7-6.7,10.5-10.1
	c3.4-3.2,5.7-7.4,8.5-11.1c2.8-3.7,6.4-7.2,11-8.3"/>
<path fill="none" stroke="#E1E1E1" stroke-miterlimit="10" d="M371,259.4c-4.5,2.2-11.5-0.1-14.4,4c-1.6,2.2,3.8,5.9,2,7.8
	c-3.7,3.8-10.6,0.9-14.8,4.2c-4.2,3.3-7.3,7.7-10.3,12c-4.3,6.1-8.6,12.1-12.8,18.2c-1.2,1.7-2.4,3.4-3.2,5.3
	c-0.8,1.8-1.2,3.8-2.3,5.4c-1.1,1.6-2.7,2.7-4.2,3.8c-9.6,7.3-16.5,17.7-26.4,24.6c-2.8,1.9-5.7,3.6-8.5,5.5
	c-9.9,6.7-17.7,16.5-22,27.7"/>
<path fill="none" stroke="#E1E1E1" stroke-miterlimit="10" d="M317.2,275.1c-1.3,1.1-1.6,2.1-0.5,3.4c1.6,1.8,3.1,1.9,5.1,0.5
	c1.3-0.9,2-2.3,2.9-3.6c1.2-1.6,3-2.7,4.1-4.3c1-1.4,0.7-3.9-0.7-5c-2-1.5-5-0.7-7.1,0.8c-2,1.4-3.3,3.9-3.2,6.4
	c0,0.4,0.1,0.7-0.1,1.1C317.7,274.7,317.5,274.9,317.2,275.1z"/>
<path fill="none" stroke="#E1E1E1" stroke-miterlimit="10" d="M216.6,373.5c4.3-4.5,8.6-9,12.9-13.4c1.5-1.6,3-3.2,4.2-5.1
	c1.7-2.8,2.3-6.2,3.3-9.3c3.1-8.9,10.3-15.8,17.5-21.8c3.7-3.1,7.8-6.1,12.6-6.4c1,0,2.1,0,3.1-0.4c1.8-0.8,2.4-3.1,2.7-5.1
	c1.2-6.9,6.2-15.7,1.5-21c-2.9-3.3-0.9-7.9-0.7-11.6c0.3-4.1-10.5-2-10.2-6.1c0.1-1.3,2.3-1.6,2.4-2.9c0.3-1.8,0.1-3.7,1.5-5
	s3.2-1.8,4.9-2.4c1.2-0.4,2.4-0.8,3.6-1.2c2.2-0.7,5.3-1.1,6.3,1c0.8,1.6-2.1,2.1-2.6,3.8c-1.4,5,10.1-2.3,15.1-1
	c1.6,0.4,3.1,1.5,4.6,1c0.8-0.3,1.4-0.9,1.9-1.5c3.7-4,7.8-7.7,12.1-11c3.1-2.3,6.3-4.4,9.5-6.5c1.4-0.9,2.7-1.8,4.1-2.7
	c3.8-2.5,7.9-5,12.4-4.8c4.1,0.3,7.6,2.8,11.4,4.2c6.3,2.3,13.2,1.5,19.9,0.7"/>
<path fill="none" stroke="#E1E1E1" stroke-miterlimit="10" d="M173.4,371.2c7.2-5.7,14.4-11.4,21.6-17.1c2.9-2.3,5.8-4.6,9.3-5.7
	c4.4-1.4,9.6-0.8,13.2-3.7c3.2-2.6,4-7.1,5.2-11c2.5-7.9,15.3-13.3,12.7-21.2c-1-3.1-4-4.8-4.3-8.1c-0.2-2.2-0.5-4.5-0.7-6.7
	c-0.2-1.9-0.4-3.8-0.2-5.8c0.4-3.6,2.2-7,4.4-9.8c2.1-2.6,4.8-5,8-5.8c3.2-0.9,5.9,3.9,9,2.8c5.8-2,0.1-12.4,1.5-18.4
	c0.5-2,1.1-4.1,2.5-5.6c1.4-1.5,3.3-2.2,5.1-3c7.9-3.1,17-6.2,24.5-2.3c1.4,0.7,2.7,1.6,4.2,1.9c2.3,0.4,4.6-1,6.5-2.3
	c11.5-7.6,22.7-15.8,35.2-21.4c12.6-5.6,27-8.3,40.2-4.4"/>
<path fill="none" stroke="#E1E1E1" stroke-miterlimit="10" d="M371,187.6c-9.5,7.1-19.8,13-30.1,18.9c-9.4,5.4-18.8,10.8-28.2,16.1
	c-6.4,3.7-12.8,7.3-19.4,10.5c-3.8,1.8-3.8,6.5-7.1,9c-2.9,2.2-7.2,0.3-10.8-0.3c-1.9-0.3-3.6-1.5-5.3-2.4
	c-6.5-3.3-14.8-2.6-20.6,1.8c-5.8,4.4-2.2,14.1-7.1,19.4c-2.4,2.6-6.7-2.6-19.3,0.4c-3.2,0.8-9.8,3.2-7.3,5.4c1.4,1.2,3.5,1.4,4,3.2
	c0.5,1.8,1,4.1-0.2,5.6c-2.4,3-6.6-1.6-9.6-4c-5.3-4.4-15-1.8-19.9,2.9c-2.2,2,1.9,4.1,3.3,6.7c3.7,6.6,5,25.3,1.5,28.7
	c-3.2,3.2-3.8-7.9-3.9-12.4c-0.1-4.5-1.1-12.7-5.4-11.4c-6.8,2-6.4,12.9-5.8,19.9c0.7,8.4,5.1,16.7,3.3,24.9
	c-1,4.5-3.7,8.4-6.4,12.1c-7,10-13.7,20.1-20.2,30.5"/>
<path fill="none" stroke="#E1E1E1" stroke-miterlimit="10" d="M137.2,371.6c10.3-10.3,19.6-21.7,27.6-33.9c2.3-3.6,4.6-8.3,2.2-11.9
	c-0.6-0.9-1.5-1.7-2.2-2.5c-2.5-3.1-2.4-7.4-2.2-11.3c0.4-8.7,0.7-17.4,1.1-26.1c0.3-6.8,6.3-15.3,1.7-20.2
	c-1.8-1.9-4.2-3.2-3.2-5.6c0.9-2.4,3.3-3.8,5.6-5.1c9.3-5.3,19.6-7.8,29.6-11.4c7.6-2.8,15.2-6.5,23.1-4.7c4.8,1.1,9.3,3.4,13.8,5.5
	c1,0.5,2.4,0.9,3.2,0.1c0.6-0.6,0.6-1.6,0.6-2.4c0.2-5.9,5.3-10.5,10.9-12.5c5.5-2,11.5-1.9,17.3-2.5c27.6-2.7,51.4-19.9,73.7-36.4
	c5.1-3.8,10.1-7.5,15.2-11.3c1.6-1.2,3.2-2.4,4.3-4.1c0.9-1.4,1.3-3.1,1.9-4.8c2.4-6.7,7.6-12.4,14.1-15.4"/>
<path fill="none" stroke="#E1E1E1" stroke-miterlimit="10" d="M119,372.2c11-14.2,40.5-26.3,32.9-42.5c-1.6-3.5-7.2-3.1-8.8-6.6
	c-1.6-3.5-1.7-7.5-1.5-11.4c0.4-8.4,5.6-16.2,5.3-24.7c-0.1-3.3-1.9-6.3-2.4-9.6c-0.9-6.5-1.7-13.1-0.4-19.6
	c2-9.4,8.5-17.4,16.5-22.7c8-5.3,17.3-8.2,26.7-10.2c3.4-0.7,6.7-1.3,10.1-1.9c3.1-0.6,6.1-1.1,9.2-1.7c7.8-1.4,15.6-2.8,23.5-3.5
	c10.6-1,21.2-0.7,31.7-1.8c7.2-0.8,15.3-0.1,21.3-4.2c4-2.7,7.7-5.7,12.1-7.6c11.6-5.2,22-12.5,32.4-19.8c2.7-1.9,5.4-3.8,8.1-5.6
	c2.6-1.8,5.2-3.6,7.4-5.9c2.8-2.8,4.9-6.3,7.2-9.5c7.2-10.1,16.5-18.3,25.8-26.5"/>
<path fill="none" stroke="#E1E1E1" stroke-miterlimit="10" d="M79.3,372.2c4.1-9.5,16.5-8.2,25.3-13.6c7.1-4.2,14.6-9.1,17.3-16.8
	c0.8-2.3,2.7-6.6,0.3-7.3c-3.3-0.9-6.7,2.1-8.9-0.5c-2.2-2.6-2.2-6.5-1.2-9.7c2.2-7.1,9.1-13.9,6-20.7c-0.5-1.1-1.3-2.2-1.5-3.5
	c-0.3-2.3,1.6-4.3,3-6.2c7.2-9.8,0.9-23.8,3.5-35.7c0.8-3.5,2.3-6.7,3.9-9.9c6.3-12.4,14.6-24.8,27.2-30.7c4.3-2,9-3.2,13.7-4.4
	c13.7-3.5,27.4-7,41.1-10.5c9.8-2.5,19.7-5,29.8-5.7c11.5-0.7,30.8,11.7,37.1,2c5.1-7.9,8.2-7.7,18.2-6.5c1.4,0.2-1.5-3.1-0.7-4.2
	c2.3-3.1,9.3-2.2,9.4-6c0.1-1.4-2.7-2.6-2-3.9c2.3-4.2,8.9-3.5,12.7-6.6c4.7-3.8,9.3-7.7,13.7-11.8c11.5-10.5,22.1-22,32.7-33.4
	c3.5-3.8,6.9-7.5,10.4-11.3"/>
<path fill="none" stroke="#E1E1E1" stroke-miterlimit="10" d="M29.2,373.2c2.1-2,0.7-5.6-1.4-7.6c-2.1-2-4.8-3.7-5.5-6.5
	c-0.6-2.6,0.7-5.2,2.3-7.3c1.6-2.1,5.9-4.5,4.3-6.6c-1.3-1.7-3.9,1.7-6,1.8c-2.6,0.2-5.6-1.3-6.5-3.8c-0.5-1.2,0.9-3,0-4
	c-2.1-2.3-6.1-0.9-9.2-1.6c-2.9-0.7-5.8-1.3-8.7-2c-1.8-0.4-3.6-0.8-5.1-1.8c-1.5-1-2.7-2.7-2.6-4.5c0.1-1.8,1.4-3.2,1.8-5
	c0.3-1.4,0.1-2.8,0.3-4.2c0.4-3,3.5-4.3,6.3-5.7c0.5-0.2,0-1.1-0.5-1.3s-1-0.4-1.4-0.7c-1.1-0.8-0.7-2.6,0.1-3.7
	c3.6-5.1,11.9-5.5,14.7-11.1c0.5-1,0.8-2.2,1.4-3.1c1.1-1.7,3.3-2.6,5.3-2.8s4.1,0.2,6.2,0.3c0.4,0,0.9,0,1.2-0.2
	c1.4-1-2.5-4-0.9-4.8c2.5-1.3,5.1,3.6,7.8,2.9c1.8-0.5-1.2-2.9-1.5-4.7c-0.3-1.6-0.5-3.2-2.2-3.2c-1.7,0.1-3.1,1.2-4.7,1.5
	c-2.9,0.7-5.8-1-8.8-1.1c-1.7,0-3.4,0.5-5.1,1c-7.7,2.5-15.2,5.7-22.3,9.6"/>
<path fill="none" stroke="#E1E1E1" stroke-miterlimit="10" d="M103.6,240.6c1.5-0.9,3.2-1.6,4.7-2.4c0.9-0.5,1.8-0.9,2.6-1.6
	c0.7-0.7,1.3-1.7,1.2-2.7c-0.1-0.5-0.3-1-0.7-1.2c-0.7-0.4-1.6,0.1-2.5,0c-1.2-0.2-1.6-1.7-2.7-2.2c-1.1-0.6-2.5,0.1-3.2,1.1
	c-0.7,1-0.8,2.3-0.9,3.5c-0.1,1.3-0.3,2.5-0.4,3.8C101.7,239.7,102.5,241.2,103.6,240.6z"/>
<path fill="none" stroke="#E1E1E1" stroke-miterlimit="10" d="M251.9,134.1c0-1.1-1.5-1.7-2.6-1.5c-1.1,0.2-2.4,1.2-2,2.2
	C247.8,136.5,251.8,135.9,251.9,134.1z"/>
<path fill="none" stroke="#E1E1E1" stroke-miterlimit="10" d="M242.5,128.2c0,0.7,0.6,1.1,1.2,1.4c1.5,0.8,3.3,1.2,5,1.1
	c2.2,0,4.6-0.9,5.4-2.9c0.1-0.3,0.2-0.6,0.2-1c-0.2-1-1.3-1.4-2.3-1.5c-1.6-0.3-3.3-0.6-5-0.4c-1.7,0.2-3.3,1-4.2,2.4
	C242.6,127.5,242.5,127.9,242.5,128.2z"/>
<path fill="none" stroke="#E1E1E1" stroke-miterlimit="10" d="M287.3,111.7c0.2-0.8-0.3-1.6-1.1-2c-0.7-0.3-1.7-0.6-2.4-0.1
	c-0.7,0.5-0.5,1.8,0.1,2.5c0.5,0.7,1.6,1,2.4,0.6C286.7,112.5,287.2,112.2,287.3,111.7z"/>
<path fill="none" stroke="#E1E1E1" stroke-miterlimit="10" d="M283.9,97c0,0.2,0.1,0.5,0.2,0.7c0.4,0.7,1.5,0.8,1.9,0.1
	c0.1-0.2,0.2-0.5,0.2-0.8c0.1-1.4,1-3,0.4-4.3c-0.5-1-2.2,0.2-2.6,1.2S283.7,95.9,283.9,97z"/>
<path fill="none" stroke="#E1E1E1" stroke-miterlimit="10" d="M295.4,89.7c-0.6-0.1-1.2,0.4-1.3,1c-0.2,0.6,0,1.2,0.1,1.8
	c0.1,0.6,0,1.2,0.4,1.7c0.4,0.5,1.2,0,1.5-0.6c0.3-0.5,0.3-1.2,0.3-1.8C296.4,91,296.2,89.8,295.4,89.7z"/>
<path fill="none" stroke="#E1E1E1" stroke-miterlimit="10" d="M297.3,89.2c0.1,0.3,0.2,0.6,0.4,0.7c0.6,0.4,1-0.3,1.2-1
	c0.5-1.5,1-3.6-0.2-4.6c-0.6-0.5-1.4-0.3-1.8,0.4C296.2,86.1,296.8,87.8,297.3,89.2z"/>
<path fill="none" stroke="#E1E1E1" stroke-miterlimit="10" d="M306,87c0.8,0.9,1.8-0.1,2.7-0.9c0.3-0.3,0.9-0.3,1.3,0
	c0.9,0.7,0.5,2.2,0.8,3.3c0.2,0.9,0.7,2,1.6,2.1c1.3,0.2,2.1-1.5,3.3-1.6c1.1-0.1,1.9,1.1,2.4,2.1c0.4,0.8,0.9,1.8,0.6,2.7
	c-0.4,1.1-1.7,1.6-2.9,1.7c-1.2,0.1-2.5,0.2-3.3,1c-0.3,0.3-0.5,0.6-0.8,0.9c-1.3,1.5-3.4,1.7-5.4,1.9c-0.7,0.1-1.4,0.1-1.9-0.3
	c-0.2-0.2-0.4-0.4-0.6-0.6c-1-1.3-2-2.6-2.3-4.2c-0.3-1.2-0.1-2.5-0.5-3.7c-0.1-0.3-0.3-0.6-0.3-0.8c-0.2-0.7,0-1.4,0.2-2.1
	c0.4-1.4,0.8-2.9,1.9-3.9c0.5-0.4,1.1-0.8,1.7-0.6C305.5,84.4,305.3,86.1,306,87z"/>
<path fill="none" stroke="#E1E1E1" stroke-miterlimit="10" d="M329.3,90.4c0-1.3-1-2.5-2.2-2.7s-2.4,0.6-2.3,1.8
	c0.1,1.3,1,2,2.3,2.4c0.6,0.2,1.2,0.2,1.7-0.1C329.1,91.5,329.3,90.9,329.3,90.4z"/>
<path fill="none" stroke="#E1E1E1" stroke-miterlimit="10" d="M332.2,84c-0.2,0.2-0.2,0.4-0.3,0.6c-0.4,1.3-0.6,2.6-0.7,3.9
	c-0.1,1,0,2,0.6,2.8c0.6,0.7,2.1,0.9,2.5,0.1c1-2.2,1.4-5.1-0.2-6.9C333.6,83.8,332.7,83.5,332.2,84z"/>
<path fill="none" stroke="#E1E1E1" stroke-miterlimit="10" d="M346.4,71c-0.6-0.2-1.2,0.1-1.6,0.6c-0.4,0.5-0.5,1.1-0.7,1.7
	c-0.6,2.1-1.3,4.8-3.3,5.5c-1.5,0.5-3.1,0.9-3.7,2.4c-0.6,1.5-0.5,3.1-0.4,4.7c0.1,1.3,0.1,2.6,0.2,3.9c0,0.5,0.1,1,0.5,1.2
	c0.2,0.1,0.4,0.1,0.6,0.2c3.3,0.3,6.8-1.1,9-3.6c0.3-0.3,0.5-0.6,0.7-1c0.4-1.1-0.3-2.4-0.6-3.6c-0.3-0.8-0.4-1.7-0.4-2.6
	c-0.1-2.3,0-4.5,0.4-6.8C347.3,72.7,347.4,71.3,346.4,71z"/>
<path fill="none" stroke="#E1E1E1" stroke-miterlimit="10" d="M368.3,91.5c0.3-1.1-0.6-2.2-1.5-3c-0.7-0.7-1.5-1.4-2.4-1.8
	s-2.1-0.3-2.8,0.5c-0.4,0.5-0.7,1.2-1.3,1.4c-0.9,0.3-1.8-0.7-1.7-1.6c0.1-0.9,0.7-1.7,1.2-2.5c0.7-1.1,1.1-2.3,1.3-3.6
	c0-0.3,0-0.6-0.2-0.8c-0.2-0.2-0.5-0.1-0.7-0.1c-2,0.3-4.1,0.6-6.1,0.9c-1.3,0.2-2.7,0.3-3.7-0.4c-1.6-1.2-1.2-3.6-0.7-5.5
	c0.4-1.3,0.3-2.8,1.1-3.9c2.4-3.5,2.7-7.3,2.2-11.4c-0.1-0.9,1.2-0.6,1.9,0.1c0.7,0.7,0.4,2.7,1.3,2.5c1.5-0.4,0.8-3.3,2.4-3.6
	c0.3-0.1,0.6-0.1,0.8,0.1c0.3,0.2,0.4,0.5,0.5,0.9c0.3,1.5,0.4,3,1,4.4c0.4,0.8,1.7,2,2.2,2.7c1,1.4,1.7,4.4,3.3,3.8
	c1.9-0.7,0-4.1,0.2-6.1c0.3-2,1.7-4.2,3.7-4.2"/>
<path fill="none" stroke="#E1E1E1" stroke-miterlimit="10" d="M-12,261.5c5.4-6.9,12.3-14.4,21-13.6c4,0.4,9.6,1,11,4.8
	c0.6,1.5-2.3,3.4-1.3,4.6c0.9,1.1,3.2-1.4,4.2-0.4c1.8,1.8-2.6,5.6-0.9,7.6c3.8,4.4,11.5,2.2,16.1,5.8c4.4,3.5,8,8.6,13.5,9.8
	c6.2,1.4,12.2-2.4,17.2-6.4c7.8-6.2,15.3-13.1,20.4-21.6c2.1-3.5,3.8-7.4,3.7-11.5c-0.2-4.1-5.5-5.4-6.6-9.3
	c-1.3-4.5,3.8-21.2,10.1-29.8c2.1-2.9,4.5-5.6,6.7-8.5c4.2-5.6,7.5-11.8,10.8-17.9c3-5.6-0.6-13.1,3.2-18.1
	c2.6-3.4,9.1,1.5,12.2-1.5c1.4-1.3,2.1-3.2,3.4-4.6c2.9-3.3,8-3.7,11.8-6c5.6-3.4,8.8-11.1,15.3-11.4c4-0.2,9.3,2.1,11-1.4
	c1.5-3.1-2.4-11.2,0.8-9.9c3.2,1.3,4.7,4.9,8.1,5.1c3.4,0.2,7.1-0.2,10.1,1.5c1.4,0.8,2.6,2,4.1,2.5c2.1,0.6,4.3-0.2,6.3-1.1
	c4.9-2.1,9.9-4.3,13.3-8.4c1.7-2.1,2.9-4.5,4.4-6.7c3.5-4.8,10.7-4.7,14.8-9c4.7-5,8.9-12.4,11.5-18.8c0.4-1.1,0.7-2.2,1.4-3.2
	c1.4-2.1,4.5-2.8,6.6-1.6c0.5,0.3,1.1,0.7,1.6,0.5c0.4-0.1,0.6-0.6,0.7-0.9c1.3-3.3,0.4-7.5,2.7-10.2c1.3-1.4,3.3-2.3,3.8-4.2
	c0.3-1.3-0.3-2.7-0.4-4c-0.1-1.9,0.8-3.7,1.7-5.4c1.7-3.2,3.5-6.5,5.2-9.7c0.6-1,2.1-2.1,2.6-1c0.1,0.2,0.1,0.5,0,0.8
	c-0.3,2.6-2.5,5.9-0.8,7.8c1.3,1.4,3.5-1.6,4.6-3.2c2.4-3.4,4.4-7.1,6.3-10.8c0.3-0.5,0.6-1.1,0.8-1.6c1.4-2.8,0.6-6.2,2.1-8.9
	c2.1-3.6,8-2.1,11.9-3.2c0.6-0.2,1.3-0.3,1.9-0.1c1.2,0.4,2.2,2.5,3.2,1.7c1.7-1.2,1.5-5.4,3.5-5.1c2,0.3-0.5,4-0.2,6
	c0.2,1.4,2.4-0.5,3.1-1.6c2.2-3.6,8-1.3,11-4.2c2.3-2.2,0.3-6.7,2.8-8.8c0.5-0.5,1.1-0.9,1.8-0.9c2.2-0.1,2.6,3.5,4.6,4.4
	c0.7,0.3,1.7,0.3,2.2,0.9c0.4,0.5,0.2,1.2,0.2,1.9c0.1,1.2,1.2,2.3,2.4,2.3c1.2,0.1,1.4-2,2.6-2.1c1.9-0.1,3.2,1.7,5,1.2
	c3.9-1.2,7.9-2.4,11.8-3.7c0.7-0.2,1.5-0.5,2.3-0.3c0.6,0.2,1.1,0.6,1.6,1c3,2.9,4.7,7.1,4.5,11.3c0,1.3-0.3,2.6,0,3.8
	c0.4,2,1.8,3.6,3.1,5.1c2.7,3.1,5.8,6.4,9.9,6.9"/>
<path fill="none" stroke="#E1E1E1" stroke-miterlimit="10" d="M332.3,32c0,0.7,0.3,1.8,1,1.6c2.3-0.6,4-4.6,2.2-6.1
	c-0.8-0.7-2.1,0.5-2.6,1.4S332.3,30.9,332.3,32z"/>
<path fill="none" stroke="#E1E1E1" stroke-miterlimit="10" d="M74.2,176.8c-1.6,0.4-3.1,1.2-4.5,1.9c-2.5,1.3-5.1,2.8-6.2,5.4
	c-0.6,1.5-0.6,3.2-0.4,4.9c0,0.3,0.1,0.5,0.2,0.7c0.2,0.3,0.6,0.3,0.9,0.3c1.5-0.1,2.7-1.2,4.1-1.8c1.9-0.8,4-0.6,6-0.6
	c3.1,0,6.4-0.6,9.1-2.2s4.9-4.3,5.4-7.4c0.3-1.6,0.1-3.4-1.1-4.5c-1.5-1.3-3.8-1-5.6-0.1c-1.8,0.9-3.3,2.2-5.2,2.8
	C76,176.5,75.1,176.6,74.2,176.8z"/>
<path fill="none" stroke="#E1E1E1" stroke-miterlimit="10" d="M-14.4,214c15.2-7,30.4-13.9,45.6-20.9c10.3-4.7,20.6-9.5,29.6-16.3
	c3.7-2.9,7.5-6.2,12.2-6.5c1.8-0.1,3.9,0.1,5.3-1c0.7-0.6,1.2-1.5,1.6-2.4c6.2-12.9,17.7-22.3,28.8-31.3
	c10.2-8.3,20.5-16.5,30.7-24.8c8.1-6.5,16.4-13.2,26.3-16.6c8.6-3,17.9-3.3,26.8-5.3c8.9-2,13.1-13.2,22.1-14.6
	c1.7-0.3,3.5,0.4,4.5-0.9c1.1-1.4,1.8-3.1,3.4-3.8c0.8-0.3,1.6-0.4,2.4-0.6c1.2-0.4,2.2-1.3,3.2-2.2c3.8-3.7,7.2-7.9,10.2-12.3
	c0.3-0.5,0.8-1.1,1.4-1c0.3,0,0.6,0.2,0.9,0.4c2.3,1.1,4.8-1.1,6.1-3.3c2.5-4,4.2-8.6,7.6-11.9c1.5-1.5,2.5-4.3,3.6-6.1
	c0.9-1.5,2.1-1.6,2.7-3.3c2.7-8,10-13.5,14.6-20.5c0.3-0.5,0.7-1.1,1.2-1.5c0.9-0.7,2.1-0.6,3.3-0.5c4,0.4,8.1,0.8,11.7-0.7
	c2.4-1,4.3-2.8,6.4-4.2c2-1.4,4.1-2.5,6.1-4c3.4-2.6,6.1-6.2,7.6-10.2"/>
<path fill="none" stroke="#E1E1E1" stroke-miterlimit="10" d="M324.2-11c-0.9,2.3,1.4,4.1,2.4,6.3c1.1,2.3,0.5,5.2,2.3,7
	c1.8,1.8,4.2,2.9,6.5,4c0.8,0.4,1.7,0.8,2.6,0.9c3.3,0.5,6.1-2.4,8.1-5.2c0.4-0.6,1-1.3,1.7-1.3c0.5,0,0.9,0.3,1.3,0.6
	c4.7,3.1,11,3.5,15,7.5c2.6,2.6,4.1,6.5,7.5,7.7"/>
<path fill="none" stroke="#E1E1E1" stroke-miterlimit="10" d="M-14.6,195c30.9-5.3,60.4-18.5,85-37.9c4.1-3.3,8.1-6.7,12.2-10.2
	c2.7-2.3,5.4-4.6,8.1-6.9c3.9-3.3,7.7-6.7,11.4-10.2c7.1-6.7,13.7-14.1,21.4-20.2c3.1-2.5,6.5-4.7,9.8-6.9c4.1-2.7,8.2-5.5,12.3-8.2
	c18.2-12.2,36.5-24.4,56.3-34c5.9-2.9,12-5.5,17.7-8.8c12.8-7.3,23.7-17.6,32.4-29.4c5.5-7.5,10.2-15.6,16-22.9
	c3.3-4.1,6.9-7.9,10.8-11.4"/>
<path fill="none" stroke="#E1E1E1" stroke-miterlimit="10" d="M-14.4,178.9c10.7,2.6,21.8-2,31.5-7.2c9.7-5.2,19.3-11.5,30.3-12.6
	c1.6-0.2,3.3-0.2,4.8-0.8c1.8-0.7,3.2-2.1,4.6-3.4c7.2-6.9,15.1-13,23.5-18.4c7.2-4.6,14.8-8.7,21-14.6c8.9-8.5,14.6-20.9,25.7-26
	c2.8-1.3,5.8-2,8.7-3.3c5.4-2.5,9.7-6.7,13.9-10.9c7.9-7.9,22.9-23.9,23.8-23.8c2.3,0.2,0.1,6.2,2.4,6.6c1.7,0.3,20.1-6.2,26.5-14
	c2.8-3.4,4.8-7.6,8.3-10.2c2.6-2,6-2.9,8.2-5.3c2.7-2.9,3.3-7.2,5.5-10.4c1.8-2.6,4.5-4.4,7.2-6.2c14.1-9.6,26.7-21.3,37.2-34.8"/>
<path fill="none" stroke="#E1E1E1" stroke-miterlimit="10" d="M246.5-11.2c0.2,7.6-6.6,13.5-13.5,16.7c-6.9,3.2-14.7,5-20.3,10.1
	c-6,5.5-9.4,14.6-17.3,16.5c-2,0.5-4,0.4-5.9,1.2c-1.7,0.7-3.1,2.1-4.4,3.4c-16.5,16.3-34.5,31.1-53.6,44.2
	c-6.1,4.2-12.3,8.2-17.5,13.4c-3.6,3.7-6.7,7.9-10.2,11.7c-7.8,8.7-17.4,15.5-27.5,21.2c-7.6,4.3-15.5,8-23.6,11.2
	c-7.5,2.9-13.4,11.8-21.5,12.1c-1.3,0-2.6-0.1-3.8,0.5c-0.6,0.3-1,0.8-1.5,1.2c-2.7,2.6-6.2,4.4-9.8,5.3c-6.1,1.4-12.5,0-18.7,0.9
	c-5,0.7-9.6,2.9-14.1,5.2"/>
<path fill="none" stroke="#E1E1E1" stroke-miterlimit="10" d="M-13,88c7-8.5,9.3-19.8,10.3-30.7c0.2-2.5,0.4-5.1-0.5-7.5
	c-0.4-1.1-1-2.1-1.2-3.3c-0.3-1.6,0.3-3.2,0.8-4.7C-0.6,34,2.9,26.3,7,18.9c0.9-1.7,1.9-3.4,1.8-5.3c-0.2-2.6-2.4-4.7-3-7.2
	C4.4,0.8,10.8-4.3,10.1-10"/>
<path fill="none" stroke="#E1E1E1" stroke-miterlimit="10" d="M32.2-11.4c-1.1,2.9-2.2,5.9-3.3,8.8c-1.6,4.3-3.2,8.7-5.3,12.8
	c-0.6,1.1-1.2,2.3-1.1,3.5s1.4,1.4,2.4,2.2c1.3,1-0.1,3.3-0.1,4.9c0,0.7,0,1.4,0.4,1.9c0.6,0.7,1.8,0.6,2.6,0.1
	c0.8-0.6,1.2-1.5,1.6-2.3c3.8-7.3,10-13.1,16-18.7c5.7-5.2,11.3-10.5,17-15.7"/>
<path fill="none" stroke="#E1E1E1" stroke-miterlimit="10" d="M-11.1,104.6C1.5,87.3,9.5,64.9,28.6,55.4c5.5-2.7,11.8-4.3,16.5-8.2
	c4.9-4.1,3-17.9,9.2-16.5c2.6,0.6,1.9,4.7,4,6.3c6.4,4.8,16,1.5,21.8,7c4.6,4.3,0,12.8-2.6,18.6c-4.5,9.7-13.7,16-19.8,24.7
	c-6.9,9.8-16.6,17.6-22.9,27.9c-0.8,1.3-1.6,2.8-1.5,4.4c0.1,1.6,1.3,3.2,2.9,3.1c0.8,0,1.5-0.5,2.3-0.8c3.4-1.2,6.7,1.6,10.1,2.7
	c5.8,1.8,12-1.6,16.7-5.6c4.6-4,8.8-8.9,14.6-11c1.9-0.7,4-1.1,5.7-2.3c1.2-0.9,2.1-2.1,3.2-3.1c3.4-3.2,8.3-4.2,12.1-6.9
	c5.2-3.5,8.1-9.5,12.5-14c4.6-4.7,10.7-7.5,16.4-10.8c15.4-8.8,28.4-21.2,41.3-33.4c2.6-2.5,5.2-5,7.7-7.6c3.6-3.8,6.8-7.9,9.8-12.2
	c3.1-4.5,5.9-9.5,10.6-12.3c4.4-2.6,9.7-2.9,14.7-3.1c5.1-0.1,10.3-0.1,15-2.2s8.5-6.8,7.8-11.8"/>
<path fill="none" stroke="#E1E1E1" stroke-miterlimit="10" d="M96.8-12.9c-3.3,4-6.5,8-9.8,12c-1.2,1.4-2.4,2.9-3,4.7
	c-0.6,1.8-0.6,3.9,0.5,5.3c2.1,2.7,6.6,1.8,9.3-0.4s4.5-5.4,7.4-7.2c2.2-1.4,4.9-1.9,7.5-2.1c2.7-0.2,5.3-0.2,8,0.1
	c1.6,0.2,3.4,0.5,4.6,1.7c2.2,2.1,1.4,5.7,0.4,8.6c-2,6.2-4.1,12.4-6.1,18.6c-0.5,1.4-0.9,2.8-1.1,4.3c-0.4,3.3,1.6,10.4,2.1,13.6
	c1.8,10.5-5.2,11.8-3.8,15.2c0.8,1.8,3.8-0.9,5.4-2c5.2-3.8,10.3-7.6,15.5-11.5c2.2-1.6,4.4-3.3,6.9-4.3c1.3-0.5,2.6-0.9,3.8-1.7
	c0.9-0.7,1.6-1.5,2.3-2.4c4.8-6.2,9.9-12.4,15.1-18.3C167.9,14,174.6,6.8,179-1.8c0.4-0.9,0.9-1.7,1.4-2.5c0.7-0.9,1.6-1.7,2.4-2.5
	c2.2-1.9,4.3-3.8,6.5-5.7"/>
<path fill="none" stroke="#D6D6D6" stroke-miterlimit="10" d="M215.3,163.5c1.2-0.2,1.4-3.5,2.3-5.1c1-1.7,3.1-2.4,5-2.6
	c1.9-0.2,4-1.8,5.8-0.9c2.8,1.4-1.5,7.1,0.9,9.2c1.1,1,2.9,1,4.3,0.4c1.4-0.6,2.5-1.7,3.7-2.7c2-1.7,4.3-3.3,6.9-3.1
	c2.8,0.2,5.5,2.4,8.2,1.5c2.5-0.8,3.5-3.8,5.6-5.6c2.1-1.9,5.2-2.1,7.9-3.1c2.7-1,5.7-3.8,4.4-6.3c-0.7-1.3-2.5-1.7-4-1.9
	c-1.5-0.2-3.1-0.3-4.4-1c-1.3-0.7-2.8-2.9-1.6-3.8c2.1-1.6,3.7-3.8,3.2-6.4c-0.5-2.6-2.1-4.8-3.1-7.3c-1.7-4.4-1.1-9.6,1.6-13.4
	c1-1.4,2.2-2.7,3-4.2c1.5-2.9,1.1-6.4,1.1-9.7c0-3.3,0.5-7,3.2-9c1.4-1.1,3.2-1.5,4.5-2.6c2.3-1.8,2.9-5.2,5.2-7
	c1.9-1.5,4.6-1.8,6.1-3.6c0.9-1.2,1.2-2.7,2.2-3.9c1.7-2,3.7-3.3,5.6-5.2c0.5-0.5,0.7-0.9,0.9-1.7c0.5-2.3,0.8-4.6,0.8-6.9
	c0-2.3-0.2-4.6,0.1-6.9c0.3-2.3,1.3-4.6,3.2-5.9c0.7-0.5,1.4-0.8,2.2-0.7c2,0.2,2.8,2.6,4.3,3.8c2,1.5,4.9,0.8,7.4,0
	c0.8-0.3,1.6-0.5,2.1-1.2c0.9-1,0.6-2.6,0.5-3.9c-0.3-4.1,1.3-8.2,4.2-11.1c1.3-1.2,2.8-2.4,3.1-4.1c0.2-1.3-0.3-2.6-0.1-3.9
	c0.3-1.7,1.9-3.2,1.4-4.8c-0.2-0.9-1-1.5-1.5-2.2c-0.5-0.7-0.7-1.6-1-2.5c-1.2-4.8-2.1-9.6-2.7-14.5c-0.2-1.4-0.3-2.7-0.4-4.1
	c-0.2-2.1-0.4-4.3-0.7-6.4"/>
<path fill="none" stroke="#D6D6D6" stroke-miterlimit="10" d="M280.2,126.7c0.4,1.1-0.3,2.3-0.2,3.4c0.2,1.5,1.7,2.3,2.9,3.2
	c2,1.5,3.3,3.7,4.1,6.1s1.3,4.8,1.7,7.2"/>
<path fill="none" stroke="#D6D6D6" stroke-miterlimit="10" d="M216.7,179.4c2-1.5,3.7-4.1,3.9-6.6c0.1-1,0-2.1,0.3-3.1
	c0.1-0.4,0.3-0.8,0.5-1.2c0.5-1.2,1.4-2.5,2.7-2.4c1.1,0.1,1.8,1.1,2.3,2c0.6,0.9,1.8,2.4,2.3,3.3"/>
<path fill="none" stroke="#D6D6D6" stroke-miterlimit="10" d="M350.8,107.3c-0.1,0.9-0.1,1.7-0.2,2.6c-0.1,2.2-0.2,6.4-0.2,7.2"/>
<path fill="none" stroke="#D6D6D6" stroke-miterlimit="10" d="M219.3,176.7c1.4,1.7,3.8,5,6.1,6.2s4.9,1.8,7.3,2.9
	c1,0.4,1.9,0.9,2.9,1.3c2.7,1,5.8,0.9,8.6,0.2c1.1-0.3,2.3-0.6,3.4-0.4c1.4,0.3,2.4,1.4,3.5,2.2s2.7,1.7,3.8,0.9
	c1-0.8,1-2.3,1.4-3.4c0.5-1.2,1.8-2.2,2.9-1.6c0.8,0.4,1.1,1.5,1.9,1.8c0.5,0.2,1,0.1,1.5-0.1c2.2-0.6,4.3-1.7,6.2-3.1
	c1.1-0.8,2.2-1.8,3.6-1.8c2.1,0,3.5,2.4,5.5,3c2.3,0.8,4.6-0.8,6.5-2.3c2.1-1.7,4.9-4.7,4.4-6.6"/>
<path fill="none" stroke="#D6D6D6" stroke-miterlimit="10" d="M303.3,152.8c1.3-2,4-2.7,6.4-2.7c2.4-0.1,4.9,0.2,7.1-0.5
	c1.8-0.6,3.4-2,5.2-2.6c1.3-0.4,2.8-0.5,4-1.1c1.5-0.8,2.5-2.4,2.6-4.1c0-1.5-0.7-2.8-1.3-4.1c-0.6-1.3-1.2-2.8-0.9-4.2
	c0.2-1.4,1.5-2.8,3-2.6c1.3,0.2,2.2,1.7,3.6,1.7c1.4,0,2.3-1.4,3.5-2c1.2-0.6,2.6-0.4,3.9-0.3c1.7,0,3.4-0.3,5-0.6
	c0.9-0.2,1.9-0.4,2.6-0.9c2-1.3,2.1-4.2,1.9-6.6c-0.2-2.4-0.1-5.2,1.8-6.6c1.9-1.3,4.8-0.7,6.3-2.4c0.5-0.5,0.8-1.3,1.2-1.8
	c0.9-1,2.5-1.2,3.5-2.2c0.7-0.6,1-1.4,1.5-2.2c1.2-2.1,3-4,5.1-5.2"/>
<path fill="#7BBCEB" stroke="#4E9BD7" stroke-miterlimit="10" d="M147.8,177.3c-1.6,0.4-2.8,2-4.5,2.2c-0.6,0.1-1.3,0-1.9,0.2
	c-1,0.4-1.4,1.6-1.8,2.6c-1.3,2.7-3.8,4.5-5.9,6.7c-4.3,4.3-7.5,14.7-6.9,16.4c0.4,1.2,3.5-2.1,6.6-1.6c0.4,0.1,0.9,0,1.2,0.2
	c0.7,0.5,0.6,1.5,1.1,2.1c0.6,0.7,1.6,0.6,2.4,0.6c5.1-0.4,11.2-0.3,16.3-0.7c1.6-0.1,2.5-0.6,4.1-1c2.6-0.6,4.9-2,7.4-1.1
	c0.8,0.3,1.6,1.1,2.4,1.5c3.6,1.8,8,0.6,11.6-1c2.1-1,4.1-2.2,6.4-2.6c2.4-0.4,4.8,0.3,7.2,0c1.6-0.2,3.2-0.8,4.7-1.4
	c1.9-0.8,3.9-1.6,5.6-2.8c1.8-1.3,3.3-3.1,5.3-4c2.1-0.9,4.5-0.8,6.8-1c2.3-0.2,4.8-0.7,6.2-2.5c1.6-2,1.3-5.1-0.2-7.2
	c-1.5-2.1-4.6-2.3-6.3-4.3c-2.3-2.6-2.1-6.7-4-9.7c-0.5-0.8-1-1.6-1-2.5c0.1-1.7,2-1.8,3.7-1.7c0.9,0,1.2-1.2,0.6-1.9
	c-0.4-0.5-1.4-0.3-1.7-0.8c-0.2-0.6,1.1-1.8,0.9-2.4c-1.1-3-3-6-4.7-7.5c-1-0.9-2.9-1.7-3.7-2.8c-0.8-1.2-0.6-2.7-1.9-3.1
	c-0.6-0.2-1.3,0-1.9-0.1c-1.1-0.2-1.8-1.2-2.7-1.9c-0.8-0.7-2.3-1.1-2.9-0.2c-0.6,0.7-0.3,2.1-1.2,2.4c-0.7,0.2-1.3-0.6-1.8-1.1
	c-1.2-1.1-3.1-1-4.6-0.5s-3,1.3-4.6,1.4c-3.2,0.1-6.3-2.8-9.4-1.8c-2.3,0.8-3.3,3.5-3.7,5.8c-0.4,2.4-0.7,5-2.4,6.7
	c-0.6,0.6-1.4,1.1-2.2,1.7c-2.1,1.7-3.1,3.5-2.9,6.2c0.3,4.9-0.2,5.2-2,5.9c-0.7,0.3-1.5,0.1-2.2,0.4c-2.4,0.8-1.6,4.8-3.6,6.4
	C153.6,179.1,150.4,176.6,147.8,177.3z"/>
<path fill="#EAEAEA" stroke="#D6D6D6" stroke-miterlimit="10" d="M238,171.5c-0.2-0.3-0.1-0.7-0.3-1c-0.3-0.7-1.4-0.8-2.1-0.4
	c-0.7,0.4-1.2,1-1.8,1.6c-1.7,1.7-3.4-0.1-5-0.4c-1.1-0.2,0,2.1,0.6,3.1c0.5,0.7,1.1,1.3,1.7,1.9c1.4,1.2,3.1,2.5,3.3,4.3
	c0,0.2,0,0.5,0.1,0.7c0.3,0.6,1.1,0.7,1.7,0.6c0.7-0.1,1.3-0.4,2-0.3c1,0.2,1.5,1.3,2.4,1.9c0.8,0.5,1.8,0.5,2.8,0.2
	c0.9-0.3,1.7-0.9,2.5-1.4c0.5-0.4,1.1-0.8,1.4-1.4c0.5-0.9,0.4-1.9,0.2-2.9c-0.3-1.7-0.9-3.3-2-4.6c-1.1-1.3-2.9-2.1-4.5-1.7
	c-0.5,0.1-1,0.4-1.6,0.4C238.9,172.1,238.3,172,238,171.5z"/>
<path fill="#EAEAEA" stroke="#D6D6D6" stroke-miterlimit="10" d="M233.4,151.8c0.9-0.3,1.9,0,2.8,0c0.9,0,1.9-0.3,2.7-0.8
	c1.4-1.1,1.9-3.1,1.9-4.9c0-1.8-0.5-3.8-2-4.9c-1.2-0.8-2.7-0.9-4.2-1c-0.6,0-1.3,0-1.9-0.1c-0.9,0-1.8,0-2.6,0.4
	c-1.4,0.8-1.7,2.6-1.5,4.1c0.3,1.5,1.1,3,1.4,4.5c0.1,0.6,0.2,1.3,0.5,1.9c0.3,0.6,0.8,1.1,1.5,1.1
	C232.4,152.2,232.9,151.9,233.4,151.8z"/>
<path fill="#EAEAEA" stroke="#D6D6D6" stroke-miterlimit="10" d="M293.1,101.6c0.1-0.2,0.1-0.4,0-0.6c-0.3-0.9-0.3-1.9-0.9-2.6
	c-0.4-0.4-1.2-0.2-1.6,0.2c-0.7,0.6-1,1.8-0.5,2.5c0.5,0.7,1.6,0.6,2.4,0.8C292.6,101.8,292.9,101.9,293.1,101.6z"/>
<path fill="#EAEAEA" stroke="#D6D6D6" stroke-miterlimit="10" d="M290.9,86.9c0.3-0.2,0.5-0.5,0.9-0.6c2.2-0.6,1.5-4.2,1.4-6.5
	c0-0.9-0.1-2-0.8-2.5c-0.4-0.3-0.9-0.1-1.3,0.2c-0.3,0.3-0.5,0.8-0.7,1.2c-0.5,1.3-1.1,2.7-1.3,4.1c-0.1,1.1,0,2.1,0.3,3.2
	c0.1,0.4,0.3,0.7,0.5,1C290.2,87,290.6,87.1,290.9,86.9z"/>
<path fill="#EAEAEA" stroke="#D6D6D6" stroke-miterlimit="10" d="M301.5,108.6c-1.4,1.4-2.1,4.2-0.6,5.4c0.8,0.7,2.1-0.3,2.7-1.2
	c0.5-0.9,0.6-2,0.6-3.1c0-0.5,0-1.1-0.3-1.4C303.3,107.6,302.2,108,301.5,108.6z"/>
<path fill="#EAEAEA" stroke="#D6D6D6" stroke-miterlimit="10" d="M284.2,126.3c0.8-0.6,0.8-1.9,0.7-2.8c-0.2-1-1.4-2.3-2.1-1.6
	c-0.6,0.5-0.4,1.5-0.3,2.3c0,0.5,0.1,1,0.4,1.5C283.2,126.1,283.8,126.6,284.2,126.3z"/>
<path fill="#EAEAEA" stroke="#D6D6D6" stroke-miterlimit="10" d="M279.8,120.3c-0.5-0.1-1-0.2-1.4,0.1c-0.3,0.2-0.5,0.5-0.6,0.8
	c-0.9,2.2,0.1,4.9,2.2,6c0.2,0.1,0.4,0.2,0.5,0.1c0.1-0.1,0.2-0.2,0.2-0.3c0.7-1.7,0.4-3.6,0.2-5.4c0-0.3-0.1-0.5-0.2-0.7
	C280.5,120.4,280.2,120.3,279.8,120.3z"/>
<path fill="#EAEAEA" stroke="#D6D6D6" stroke-miterlimit="10" d="M316.5,108.2c0.2-0.7-0.2-1.4-0.7-1.8c-0.5-0.4-1.2-0.7-1.9-0.9
	c-0.5-0.2-1-0.3-1.5-0.3c-0.5,0-1.1,0.2-1.3,0.7c-0.3,0.6-0.1,1.4,0.3,2s0.9,1.2,1,1.9c0.1,0.8-0.4,1.6-1,2.2
	c-0.6,0.6-1.3,1.1-1.7,1.8c-0.1,0.1-0.1,0.2-0.1,0.3c0,0.3,0.4,0.5,0.7,0.5c2.1,0.4,4.3-1.1,4.8-3.1c0.1-0.5,0.2-0.9,0.3-1.4
	C315.7,109.4,316.4,108.9,316.5,108.2z"/>
<path fill="#EAEAEA" stroke="#D6D6D6" stroke-miterlimit="10" d="M347.2,43.1c0.8,2.8,1.1,5.8,1.5,8.7c0.1,1.1,0.3,2.3,0,3.4
	c-0.1,0.5-0.4,1-0.5,1.5c-0.3,1-0.1,2.1,0,3.1c0.3,2.1,0.5,4.1,0.8,6.2c0,0.4,0.2,0.8,0.5,0.9c0.2,0,0.5-0.1,0.6-0.3
	c0.9-0.9,1-2.3,1.1-3.6c0.1-3.5,0.2-6.9,0.4-10.4c0-1.4,0.1-2.7-0.3-4c-0.5-1.4-1.6-2.7-1.6-4.2c-0.1-1,0.3-2,0.3-3
	c0-1-0.8-2.1-1.8-2c-0.7,0.1-1.1,0.8-1.2,1.5C346.8,41.8,347,42.4,347.2,43.1z"/>
<path fill="#EAEAEA" stroke="#D6D6D6" stroke-miterlimit="10" d="M354.5,85.1c-0.5,0-0.9,0.3-1.3,0.6c-0.8,0.5-1.9,0.4-2.6,1
	c-1.1,0.8-0.3,2.9-1,4.1c-0.7,1.2-2.3,1.6-3.3,2.6c-1.7,1.7-1.5,4.4-1,6.7c0.3,1.4,0.9,2.9,2.2,3.4c0.7,0.2,1.4,0.2,2,0.7
	c0.5,0.4,0.6,1.1,0.8,1.8s0.8,1.8,1.3,1.3c0.8-1,0.7-2.6,2-2.8c0.7-0.1,1.5,0.1,2.2-0.3c0.5-0.2,0.7-0.7,1-1.2c0.5-0.8,1-1.7,1-2.6
	c0-0.6-0.1-1.2-0.2-1.7c-0.3-1.5-0.6-2.9-0.9-4.4c-0.1-0.4-0.2-0.8,0-1.1c0.3-0.7,1.7,0,2-0.6c0.9-1.6-1.9-3.1-2.2-4.9
	C356,86.6,355.6,85.1,354.5,85.1z"/>
<path fill="#EAEAEA" stroke="#D6D6D6" stroke-miterlimit="10" d="M304.8,155.3c-1.2-2-2.4-4-3.7-6c-1.8-2.8-3.8-6.9-7.1-6.9
	c-1.3,0-1.5,2.2-1,3.4c0.5,1.2,1.5,2.1,2.4,3c0.9,0.9,1.7,2.1,1.8,3.4c0,1.7-1.5,3.2-3.1,3.9c-0.3,0.1-0.6,0.2-0.9,0.1
	c-0.3-0.1-0.5-0.5-0.6-0.8c-0.7-2.3-1.5-4.5-2.2-6.8c-0.3-1-1.2-2.5-2-1.9c-1.1,0.9-0.5,2.8-0.1,4.2c0.8,3,2.2,5.8,4,8.3
	c0.2,0.2,0.3,0.5,0.4,0.7c0.2,0.8-0.8,1.5-1.6,1.4c-0.8-0.1-1.5-0.8-2-1.4c-0.5-0.6-1.1-1.3-1.9-1.6c-1.1-0.4-2.4,0.2-3.3,1
	c-0.9,0.8-1.4,3.2-2.5,2.6c-0.5-0.3-0.6-1-1.2-0.9c-0.6,0.1-1,0.6-1.4,1.1c-0.9,1.3-1.2,2.2-1.9,3.6c-0.5,1-1,2.2-1,3.3
	c0,1.7,1,3.3,2.3,4.3c1.3,1.1,2.3,2.2,3.9,2.8c1,0.4,2.2,0.8,3.3,0.6c0.7-0.1,1.3-0.5,1.9-0.8c2.2-1,4.7,0.9,6.9,0.2
	c1.4-0.5,1.6-2.4,2.6-3.5c1.6-1.7,3.3-3.5,5.6-3.8c1.3-0.2,2.6,0.1,3.8-0.4c1.8-0.7,2.7-2.8,2.5-4.7c-0.2-1.9-1.2-3.6-2.2-5.3
	C306,157.3,305.4,156.3,304.8,155.3z"/>
<path fill="none" stroke="#4E9BD7" stroke-miterlimit="10" d="M126.7,205.4c-1.5,1.3-4.5,1.7-6.4,2.7c-2.2,1.2-4.5,5.6-1.7,6.3
	c4.3,1,7.5,0.7,6.9,7.9c-0.6,6.6-5.8,11.1-9.2,16.6c-2.7,4.3-3.8,9.9-8,12.7c-2.5,1.8-6,2.2-8.9,1.1c-0.7-0.3-1.5-0.6-2.3-0.4
	c-0.9,0.3-1.4,1.3-1.7,2.2c-1.1,2.7-2.1,5.5-3.2,8.2c-0.3,0.9-0.7,1.8-1.5,2.3c-0.7,0.4-1.5,0.5-2.2,0.8c-0.9,0.5-1.3,1.5-1.8,2.4
	c-2.3,5-4.6,10-6.9,15c-0.8,1.7-1.6,3.5-2.9,4.9c-2.4,2.7-6.1,3.9-8.8,6.3c-2.5,2.2-4,5.2-6.1,7.8c-2.1,2.6-5.1,4.8-8.4,4.3
	c-2.1-0.3-3.9-1.8-5.5-3.3c-3.7-3.7-6.7-8.4-11.4-10.7c-1.5-0.7-3.1-1.4-4.1-2.7c-0.8-1.1-1.7-2.4-2.6-3.4c-2.3-2.5-5.9-0.6-9.3-0.7
	c-2.3,0-5.3-1-7.2,0.3c-1.1,0.7-1.8,2.1-3,2.7c-1.6,0.8-3.5-0.1-5.3,0.3c-0.7,0.1-1.4,0.4-2,0.7c-5.4,2.6-10.7,5.1-16.1,7.7"/>
<path fill="#FFFFFF" stroke="#4E9BD7" stroke-miterlimit="10" d="M206.2,184c-0.2,0.6-0.1,1-0.2,1.6c-0.1,0.6-0.3,1.2,0.1,1.7
	c0.3,0.4,0.8,0.5,1.3,0.6c0.8,0.1,1.3,0.5,2,0.5c1.2,0.1,2.6-0.1,3.4-1c0.5-0.6,0.7-1.5,0.9-2.2c0.1-0.3,0.1-0.5,0.2-0.8
	c0.1-0.5,0.2-0.9,0.1-1.4c-0.2-0.6-0.7-1.1-1.3-1.3c-0.6-0.2-1.3-0.2-1.9-0.2c-1.5,0-3.4,0.2-4.1,1.5
	C206.4,183.3,206.3,183.6,206.2,184z"/>
<g>
	<g>
		<path fill="none" stroke="#585858" stroke-miterlimit="10" d="M-13.3,247.4c0.6-0.4,1.1-0.7,1.7-1.1"/>
		<path fill="none" stroke="#585858" stroke-miterlimit="10" stroke-dasharray="4.0158,1.0039" d="M-10.7,245.7
			c2.6-1.7,5.3-3.3,7.9-5c5.1-3.2,10.5-6.5,16.5-6.6c2.7,0,5.4-0.1,8.1,0.1c2.3,0.2,6.5,1.4,8.9,1.6c5.7,0.6,9.4,3,12.9,7.5
			c0.3,0.4,0.7,0.9,1.1,1.1c0.4,0.2,0.9,0.3,1.4,0.4c1.4,0.2,2.9,0.3,4.2-0.1c1.1-0.4,2.1-1.2,3.3-1.5c4.4-1.1,9.2,6.9,12.4,3.8
			c2.9-2.8-2.5-7.2,0.5-10c1.7-1.5,2.6-3.6,4.9-3.9c5.4-0.8,9.2-5.4,12-7.6c0.7-0.6,1.7-0.7,2.4-1.3c0.7-0.6,2.6-2,3.1-2.8
			c1.5-2.4,2.2-4,4.6-5.6c0.6-0.4,1.3-0.8,2-0.8c2,0,3.4,2.1,5.2,3.1c1.8,1.1,2.7,2.1,4.8,1.8c1.5-0.2,3.7,0.7,5.2,1
			c1.6,0.3,3.1,0.5,4.6,1c3.5,1.2,6.4,3.7,9,6.4c0.4,0.5,0.9,0.9,1.4,1.2c1.2,0.7,2.8,0.3,4-0.4c1.2-0.8,2-2,2.9-3.1
			c2.7-3.4,6-6.6,10.2-7.4c2.1-0.4,4.2-0.1,6.3,0.2c4.4,0.6,8.8,1.2,13.2,1.7c0.5,0.1,1,0.2,1.2,0.6c0.4,0.9-1.1,1.3-2.1,1.4
			c-1.6,0-4.8,0.3-4.4,1.9c0.6,2.1,5.7-0.8,6.5,1.2c0.5,1.3-3.5,1.2-3.2,2.6c0.3,1.4,2.8,0.4,4.2,0.6c0.4,0,0.8,0.1,0.9,0.5
			c0.1,0.4-0.2,0.7-0.4,1c-1.1,1.1-3.8,1.9-3.2,3.3c0.8,1.9,5.8-0.9,6,1.2c0.3,3.1-8.3,3.5-7,6.3c0.8,1.8,4-0.1,6-0.1
			c1.1,0,2.9,0.9,2.1,1.6c-1.4,1.3-5.1,1.9-4.2,3.6c0.9,1.7,5.1-1.9,5.8-0.1c0.7,1.7-4.4,1.9-4.1,3.7c0.5,2.6,6.8,0.4,7.2,3
			c0.4,2.5-6.1,1.6-6.2,4.1c0,0.7,1.8,0.3,1.7,1c-0.1,1-2.1,1.1-2,2.1c0.2,1.9,3,2.1,4.7,2.8s3.4,2.5,2.7,4.2
			c-0.3,0.7-0.9,1.2-1.2,1.8c-0.5,1.2,0.2,2.7,1.3,3.5c1.1,0.8,3.2-0.1,3.8,1.1c1.1,2-2.8,5.2-1.9,7.3c0.6,1.4,3.2-1.2,4.2,0
			c1.3,1.6-3.3,4.4-1.5,5.4c1.3,0.7,2.5-2.3,3.9-1.8c0.6,0.2-3.3,15.4-1.9,17c0.9,1,1.8-0.7,2.8-1.5c1.9-1.4,3.5-2.1,4.9-0.1
			c0.4,0.5,0.5,1.7,0.6,2.3c1.4,5.4,3.1,10.6,5.1,15.7c0.6,1.5,1.3,3.1,2.7,3.9c1,0.6,2.3,0.7,3.5,0.7c3.1,0.2,6.1,0.3,9.2,0.5
			c1,0.1,2.8,0.8,2.1,1.5c-1.5,1.7-4.1,2-6.1,3.1c-0.4,0.2-0.8,0.5-1,0.8c-0.7,1.3,1.1,2.4,2.5,2.7c1.4,0.3,3.9,1.2,3,2.4
			c-2.6,3.5-10.2,4.4-8.2,8.3c1,2,2.9,0.2,5.2,0.3c0.2,0,0.5,0,0.7,0.1c0.6,0.3,0.5,1.2,0.1,1.7c-0.4,0.5-1.1,0.7-1.7,0.9
			c-3.4,1.5-5.1,5.3-6.2,8.9c-1.6,5.4-2.4,11-2.5,16.6"/>
		<path fill="none" stroke="#585858" stroke-miterlimit="10" d="M198.3,371c0,0.7,0,1.3,0,2"/>
	</g>
</g>
<g>
	<g>
		<path fill="none" stroke="#585858" stroke-miterlimit="10" d="M-13.8,157.1c0.6-0.4,1.2-0.7,1.7-1.1"/>
		<path fill="none" stroke="#585858" stroke-miterlimit="10" stroke-dasharray="3.9973,0.9993" d="M-11.3,155.5
			c15.3-9.5,11.7-4.9,15-7.1c3.1-2.1,11-7.4,13.4-10.4c2.3-2.9,3.5-7,6.9-8.4c0.7-0.3,1.5-0.5,2-1c0.5-0.6,0.5-1.4,0.6-2.2
			c0.5-4.6,4.4-8.5,9-9.1c1.2-0.1,2.4-0.1,3.4-0.6c1.3-0.7,2.1-2.1,3.2-3.2c2.9-2.8,8.7-4,12.2-6.1c10.4-6.2,5.7-7.1,10.3-9.8
			c2.2-1.3,4.8-1.8,7.1-2.9c4.9-2.4,8.9-7,13.2-10.4c3.9-3.1,7.9-4.3,11.5-7.6c4.2-3.8,6.2-10.3,9.7-14.8c3.1-3.9,6.7-7.4,10.1-11
			c5-5.3,7.1-11.1,10.1-15c4.5-5.7,7.5-6.8,12.4-12.8c1.5-1.9,6.1-4.9,7.2-6.9c3.6-6.4,11.5-8.9,16.1-14.7c2.3-2.9,1-7.1,1.2-10.9"
			/>
		<path fill="none" stroke="#585858" stroke-miterlimit="10" d="M163.4-9.8c0.1-0.7,0.2-1.3,0.4-2"/>
	</g>
</g>
<g>
	<g>
		<path fill="none" stroke="#585858" stroke-miterlimit="10" d="M94.2,215.5c0.3-0.6,0.6-1.2,0.9-1.8"/>
		<path fill="none" stroke="#585858" stroke-miterlimit="10" stroke-dasharray="4.0303,1.0076" d="M95.6,212.8
			c3.7-7.5,8-15.3,14.9-19.5c3.5-2.2,7.4-3.8,11.2-5.5C131.8,183,138,172.1,148,167c1.4-0.7,3.1-0.8,4.5-1.5
			c2.9-1.4,4.7-4.3,6.9-6.8c4-4.5,8.9-7.6,11.1-13.7c1.1-3,5.8-6.4,8.8-7.5c3.5-1.3,5,0.2,8.7,0.4c7.7,0.3,14.7-4,20.9-8.5
			c6.2-4.6,12.2-9.8,19.6-11.8c2-0.5,4.1-0.8,5.9-1.8c2.1-1.1,3.6-3,5.1-4.9c3.2-4.1,6.5-8.1,9.7-12.2c1.1-1.4,2.2-2.8,3.8-3.6
			c1.1-0.6,2.3-0.8,3.4-1.4c1.7-1,1.9-4.4,3.1-5.8c3.9-4.6,6.7-8.9,8.4-14.3"/>
		<path fill="none" stroke="#585858" stroke-miterlimit="10" d="M268,73c0.2-0.6,0.4-1.3,0.5-1.9"/>
	</g>
</g>
<text transform="matrix(1 0 0 1 175.5386 174.3262)"><tspan x="0" y="0" fill="#FFFFFF" font-family="'Verdana-Italic'" font-size="8">Lake</tspan><tspan x="-5" y="9.6" fill="#FFFFFF" font-family="'Verdana-Italic'" font-size="8">Vernon</tspan></text>
<text transform="matrix(1 0 0 1 245.3472 303.126)" fill="#585858" font-family="'Verdana-Italic'" font-size="8">× 7572</text>
<text transform="matrix(1 0 0 1 307.3972 98.276)" fill="#585858" font-family="'Verdana-Italic'" font-size="8">× 6634</text>
<path fill="none" d="M317.3,310.9c0.8-1.9,2-3.6,3.2-5.3c4.3-6.1,8.6-12.1,12.8-18.2c3.1-4.3,6.2-8.7,10.3-12"/>
<text transform="matrix(0.5761 -0.8174 0.8174 0.5761 325.6031 302.8487)"><tspan x="0" y="0" font-family="'Verdana-Italic'" font-size="7">7</tspan><tspan x="4.4" y="0" font-family="'Verdana-Italic'" font-size="7">8</tspan><tspan x="8.9" y="0" font-family="'Verdana-Italic'" font-size="7" rotate="0">0</tspan><tspan x="13.3" y="0" font-family="'Verdana-Italic'" font-size="7" rotate="0">0</tspan></text>
<path fill="none" d="M132.8,150.9c2.9-3.3,8-3.7,11.8-6c5.6-3.4,8.8-11.1,15.3-11.4"/>
<text transform="matrix(0.9314 -0.3639 0.3639 0.9314 140.2564 149.5288)"><tspan x="0" y="0" font-family="'Verdana-Italic'" font-size="7">6</tspan><tspan x="5.1" y="0" font-family="'Verdana-Italic'" font-size="7" rotate="-14.2">6</tspan><tspan x="9.8" y="-1.3" font-family="'Verdana-Italic'" font-size="7" rotate="-24.6">0</tspan><tspan x="13.8" y="-3.2" font-family="'Verdana-Italic'" font-size="7" rotate="-24.6">0</tspan></text>
<path fill="none" d="M141.6,311.7c0.4-8.4,5.6-16.2,5.3-24.7"/>
<text transform="matrix(0.2655 -0.9641 0.9641 0.2655 144.6397 307.6377)"><tspan x="0" y="0" font-family="'Verdana-Italic'" font-size="7">6</tspan><tspan x="4.3" y="0" font-family="'Verdana-Italic'" font-size="7" rotate="2.5">8</tspan><tspan x="8.8" y="0.2" font-family="'Verdana-Italic'" font-size="7" rotate="0.8">0</tspan><tspan x="13.6" y="0.3" font-family="'Verdana-Italic'" font-size="7" rotate="-5.3">0</tspan></text>
<path fill="none" d="M146.5,39.6c4.8-6.2,9.9-12.4,15.1-18.3C167.9,14,174.6,6.8,179-1.8"/>
<text transform="matrix(0.6295 -0.777 0.777 0.6295 152.5098 36.0279)"><tspan x="0" y="0" font-family="'Verdana-Italic'" font-size="7">7</tspan><tspan x="4.4" y="0" font-family="'Verdana-Italic'" font-size="7" rotate="0.6">8</tspan><tspan x="8.8" y="0" font-family="'Verdana-Italic'" font-size="7" rotate="1.3">0</tspan><tspan x="13.3" y="0.1" font-family="'Verdana-Italic'" font-size="7" rotate="1.9">0</tspan></text>
<path fill="none" d="M31.4,150.4c8.1-0.3,13.9-9.2,21.5-12.1c8.1-3.2,16-6.9,23.6-11.2"/>
<text transform="matrix(0.7857 -0.6185 0.6185 0.7857 44.0122 147.2867)"><tspan x="0" y="0" font-family="'Verdana-Italic'" font-size="7">7</tspan><tspan x="4.3" y="0" font-family="'Verdana-Italic'" font-size="7" rotate="2.9">4</tspan><tspan x="8.4" y="0.1" font-family="'Verdana-Italic'" font-size="7" rotate="12.2">0</tspan><tspan x="12.5" y="1.1" font-family="'Verdana-Italic'" font-size="7" rotate="16">0</tspan></text>
<path fill="none" d="M266.2,227c27.6-2.7,51.4-19.9,73.7-36.4"/>
<text transform="matrix(0.8823 -0.4706 0.4706 0.8823 302.5962 218.2159)"><tspan x="0" y="0" font-family="'Verdana-Italic'" font-size="7">7</tspan><tspan x="4.5" y="0" font-family="'Verdana-Italic'" font-size="7" rotate="-1.6">0</tspan><tspan x="9" y="-0.1" font-family="'Verdana-Italic'" font-size="7" rotate="-3">0</tspan><tspan x="13.5" y="-0.4" font-family="'Verdana-Italic'" font-size="7" rotate="-4.3">0</tspan></text>
<g>
	<g>
		<polyline fill="none" stroke="#7D7D7D" stroke-miterlimit="10" points="85.2,341.6 85.2,348.7 275.4,348.7 275.4,341.7 		"/>
		<line fill="none" stroke="#7D7D7D" stroke-miterlimit="10" x1="180.5" y1="341.4" x2="180.5" y2="348.7"/>
		<line fill="none" stroke="#7D7D7D" stroke-miterlimit="10" x1="161.2" y1="349.2" x2="161.2" y2="343.7"/>
		<line fill="none" stroke="#7D7D7D" stroke-miterlimit="10" x1="142.4" y1="349.2" x2="142.4" y2="343.7"/>
		<line fill="none" stroke="#7D7D7D" stroke-miterlimit="10" x1="123.3" y1="349.2" x2="123.3" y2="343.5"/>
		<line fill="none" stroke="#7D7D7D" stroke-miterlimit="10" x1="104.6" y1="349.2" x2="104.6" y2="343.7"/>
	</g>
	<text transform="matrix(1 0 0 1 83.7836 339.1469)" fill="#7D7D7D" font-family="'Verdana'" font-size="8">0</text>
	<text transform="matrix(1 0 0 1 174.2947 339.1469)" fill="#7D7D7D" font-family="'Verdana'" font-size="8">0.5</text>
	<text transform="matrix(1 0 0 1 258.3416 339.1469)" fill="#7D7D7D" font-family="'Verdana'" font-size="8">1 mi</text>
</g>
</svg>
