<?xml version="1.0" encoding="utf-8"?>
<!-- Generator: Adobe Illustrator 17.1.0, SVG Export Plug-In . SVG Version: 6.00 Build 0)  -->
<!DOCTYPE svg PUBLIC "-//W3C//DTD SVG 1.1//EN" "http://www.w3.org/Graphics/SVG/1.1/DTD/svg11.dtd">
<svg version="1.1" id="Layer_1" xmlns="http://www.w3.org/2000/svg" xmlns:xlink="http://www.w3.org/1999/xlink" x="0px" y="0px"
	 viewBox="0 0 360 360" enable-background="new 0 0 360 360" xml:space="preserve">
<path fill="none" stroke="#E1E1E1" stroke-miterlimit="10" d="M370.7,300.1c-7,1.8-14,3.6-21,5.4c-0.9,0.2-1.9,0.5-2.4,1.2
	c-0.3,0.4-0.5,1-0.6,1.5c-0.6,2.8,0,6.1,2.2,8c0.9,0.8,1.9,1.3,2.9,1.8c2.1,1,4.2,2.1,6.5,2.7c2,0.6,4,0.8,6,1.4
	c0.6,0.2,1.2,0.4,1.8,0.6c2.3,0.8,4.5,1.7,6.8,2.5"/>
<path fill="none" stroke="#E1E1E1" stroke-miterlimit="10" d="M370.7,231.5c-3.4,0.6-6.6,2.3-9.6,3.9c-3,1.6-5.9,3.2-8.9,4.7
	c-1.2,0.6-2.4,1.3-3.5,2.1c-2.4,1.9-4.1,4.7-4.6,7.7c-0.2,1-0.2,2,0.1,2.9c0.3,0.9,1,1.7,1.7,2.5c4.1,4.5,9.6,8.4,15.7,8.2
	c3.6-0.1,7-1.6,10.2-3.1"/>
<path fill="none" stroke="#E1E1E1" stroke-miterlimit="10" d="M315.6,218.6c-2-0.4-4.1-1.4-6-0.5c-1.7,0.8-2.4,3-2.4,4.9
	c0,0.7,0.4,2.8,0,3.5c-0.2,0.4-0.6,0.8-1,1.1c-3.1,2.8-5.9,5-8.3,8.5c-0.7,1-1.4,2.3-0.7,3.3c0.3,0.5,0.9,0.7,1.4,0.8
	c2.7,0.6,5.2-1.6,7.9-2.2c1.2-0.3,5.6-3,6.6-4.2c1-1.1,2.2-1.8,3.5-2.6c4.2-2.6,7.9-5.9,11-9.8c0.3-0.4,0.6-0.7,0.6-1.2
	c0.1-0.8-0.5-1.5-1.2-1.8c-0.7-0.3-1.5-0.3-2.3-0.2C321.8,218.5,318.7,219.2,315.6,218.6z"/>
<path fill="none" stroke="#E1E1E1" stroke-miterlimit="10" d="M-14.5,278.8c2.9-0.1,5.8-1,8.3-2.4c1.3-0.7,2.6-1.7,4-1.6
	c0.7,0,1.4,0.3,2,0.5c3.5,1.3,7,2.7,10.6,4c2.9,1.1,6,2.2,9,1.4c3.1-0.9,5.3-3.7,7.2-6.3c3.3-4.5,6.6-9.1,9.9-13.6
	c3.5-4.8,8.5-12.8,13.7-10.1c2.2,1.1,0.5,4.8,0.1,7.3c-0.4,2.5,0.4,5.8,2.9,6c0.6,0.1,1.2-0.1,1.8,0c1.6,0.2,2.5,1.9,3.1,3.3
	c2,4.5,3.9,9.1,5.9,13.6c0.9,2,1.8,4.2,1.4,6.4c-0.3,1.7-1.4,3.3-0.8,4.9c0.4,1,1.3,1.7,1.9,2.6c1.2,1.7,1,4.2,0.1,6.1
	c-0.8,1.9-2.2,3.6-3.3,5.5c-1.3,2.3-2.1,4.8-2.4,7.4c-0.1,1.4-0.1,2.9-0.6,4.3c-0.5,1.5-1.6,2.8-2.5,4.1c-2.4,3.8-2.9,8.7-2.2,13.2
	c1,6.5,4.8,13.1,11.2,14.8c2.4,0.6,5,0.5,7.5,0.3c2.8-0.2,5.8-0.5,8.1-2.1c1.5-1,2.6-2.6,3.6-4c3.4-4.7,4.9-11.6,10.1-14.2
	c3.4-1.7,4,6,5,9.7c1.8,6.4,9,9,14.9,12c6.9,3.6,37.8,5.2,41.8,4.3c3-0.7,6.3,0.8,9.3-0.1c4.3-1.3,7.3-5.3,9-9.5
	c1.7-4.2,2.4-8.7,4.2-12.9c2.5-5.7,6.9-10.4,10.1-15.8c2.9-4.9,4.7-10.4,5.3-16.1c0.4-3.5,0.3-7,1.4-10.3s3.7-6.4,7.1-6.9
	c0.8-0.1,1.8-0.1,2.4-0.6c0.6-0.5,0.7-1.2,0.8-1.9c0.8-6.8-7.8-19.3-1-19.9c3.1-0.3,4.8,3.9,7.7,4.8c2.6,0.8,5.9,0.9,7.6-1.2
	c0.9-1.1,1.2-2.6,1.9-3.8c1.8-3.1,5.6-4.1,8.6-6c6.1-4,8.2-11.9,13.8-16.6c5-4.2,12.1-5.2,17.2-9.4c3-2.5,5.1-5.9,7.5-8.9
	c5.3-6.7,18.4-17.2,20.7-14.6c3.1,3.5-5.9,7.1-9.7,9.7s-7.8,6.6-7.2,11.2c0.2,1.8,1.1,3.4,1.3,5.2c0.4,4.3-3.5,8.9-1.2,12.6
	c0.6,1,1.6,1.7,1.8,2.8c0.4,1.7-0.9,3.2-1.7,4.7c-2.1,3.6,2.2,7.9,0.7,11.9c-1.6,4.3-6.3,6.2-8.7,10.1c-5.9,9.9-18.6,14.3-24,24.5
	c-0.4,0.7-0.7,1.4-0.7,2.2c0,1.4,1.1,2.6,2.2,3.5c3.3,2.9,8.3,3.6,11.3,6.9c2.8,3.2,2.1,8.2,3.2,12.3c0.3,1.3,0.7,2.6,1.5,3.7
	c0.7,0.9,1.7,1.6,2.5,2.4c2,2,2.9,4.9,3.8,7.5c4.1,11.8,10.8,22.6,19.5,31.6"/>
<path fill="none" stroke="#E1E1E1" stroke-miterlimit="10" d="M145.4,317.6c-0.2-0.4-0.7-0.6-1.1-0.7c-1.7-0.6-3.6-1.2-5.4-0.6
	c-1.3,0.5-2.3,1.5-3.1,2.5c-1.5,1.8-2.9,3.7-4.2,5.7c-0.5,0.9-1.1,1.8-1.2,2.8s0.3,2.2,1.3,2.6c0.7,0.3,1.5,0.2,2.2,0.2
	c0.6,0.1,1.1,0.3,1.7,0.3c2.3,0.2,4-2.1,5.8-3.6c1.1-0.9,2.3-1.6,3.2-2.8c1.1-1.6,1.1-3.7,1.1-5.6
	C145.5,318.2,145.5,317.9,145.4,317.6z"/>
<path fill="none" stroke="#E1E1E1" stroke-miterlimit="10" d="M-14.8,303.1c-0.3-0.3,0.1-0.7,0.5-0.7s0.6,0.4,0.8,0.7
	c2.6,4.4,5.9,8.5,9.6,12c0.9,0.9,1.9,1.7,3,2.2c1.4,0.6,2.9,0.8,4.4,0.9c5.8,0.5,11.5-3,17.1-1.6c2.5,0.7,2.2,4.9,1.5,7.5
	c-0.7,2.6-2.5,5.1-1.6,7.6c0.3,0.8,0.9,1.6,0.8,2.5c-0.1,0.7-0.5,1.2-0.9,1.8c-1.9,3.1-0.7,7.1-0.5,10.7c0.4,7-3.1,14.3-0.6,20.9"/>
<path fill="none" stroke="#E1E1E1" stroke-miterlimit="10" d="M-14,335c4,0.4,8.9-2.5,12.1,0c1.8,1.4,0.6,4.5,0.9,6.7
	c0.1,0.7,0.2,1.4,0,2c-0.3,1.3-1.5,2.2-1.6,3.5c-0.2,1.3,0.8,2.5,1,3.9c0.3,2.1-1.1,3.9-1.9,5.9c-1.2,3.2-0.5,7.1,1.9,9.6"/>
<path fill="none" stroke="#E1E1E1" stroke-miterlimit="10" d="M33.8,226.1c-1.3,0.4-2.6,0.9-3.7,1.6c-1.4,0.9-2.5,2.3-3.5,3.7
	c-2,2.9-3.6,6-4.8,9.3c-0.5,1.3-0.9,2.7-0.7,4.1c0.2,1.4,1.1,2.8,2.5,3.1c1.3,0.3,2.6-0.5,3.7-1.2c7.5-5.1,13.5-12.3,17.2-20.6
	c0.4-0.9,0.7-2.1,0-2.8c-0.7-0.6-1.7-0.4-2.6-0.1C39.3,224.2,36.5,225.2,33.8,226.1z"/>
<path fill="none" stroke="#E1E1E1" stroke-miterlimit="10" d="M67.8,255.8c-0.1,3.7,0.5,8,3.7,9.7c1.1,0.6,2.4,0.7,3.4,1.4
	c1.4,1,2,2.7,2.9,4.2c3.4,5.4,11.5,6,17.1,2.9c5.6-3.1,9.2-8.8,12.6-14.2c4.1-6.6,8.3-13.4,10.3-21c2.1-7.8,1.8-16.1,0-24
	c-0.6-2.6-1.3-5.3-0.6-7.8c0.5-1.7,1.6-3.2,2.3-4.9s-0.4-3.2-0.6-5c-0.6-5.6,6.9-9.2,8.4-14.6c1.4-4.9,1.2-10.1,2.2-15
	c1-5,3.7-10.2,8.5-11.8c1.6-0.6,3.4-0.7,4.8-1.6c2.4-1.5,3.1-4.6,3.6-7.3c0.7-3.5,1.3-6.9,2-10.4c0.9-4.6,1.8-9.4,1.3-14.1
	c-0.7-7.5-4.7-14.5-4.8-22c-0.1-6.7,2.7-13.6,0.1-19.8c-0.7-1.6-1.8-3.1-3.5-3.5c-2.6-0.7-5,1.7-6.7,3.8c-4.4,5.4-9,11.1-10.9,17.8
	c-0.4,1.4-0.7,2.9-1.5,4.1c-0.6,0.9-1.5,1.7-2.4,2.4c-11.7,9.5-23.9,18.6-36.4,27c-3,2-6.1,4.1-9.7,4.9c-2.1,0.5-4.2,0.6-6.4,0.8
	c-17.5,1.7-33.8,13-41.6,28.9c-0.9,1.9-1.7,4.3-0.4,5.9c0.5,0.7,1.3,1.1,2.1,1.4c8.6,3.9,19.1,3.6,27.5-1c6.5-3.6,13.9-16.8,19-11.3
	c1.6,1.8,2.3,3.9,3.1,6.2c0.3,0.9,0.1,1.8,0.1,2.7c-0.1,15.3-9.9,18.3-9.7,22c0.1,3.7,8.2-4.6,10.6-1.7c1.4,1.8,3.5,3.1,6.2,4.5
	c2,1-8.9,16.1-9,25.1c0,3.5,0.5,7.5-1.6,10.3c-0.9,1.2-2.1,2-2.9,3.2c-0.9,1.3-1.2,2.8-1.5,4.3C68.5,244.1,67.9,249.9,67.8,255.8z"
	/>
<path fill="none" stroke="#E1E1E1" stroke-miterlimit="10" d="M96.8,216.6c-0.3-0.4-0.5-0.9-1-1.1c-1.2-0.7-2.6,0.8-2.7,2.2
	s0.7,2.7,0.9,4c0.4,2.3-0.8,4.6-1.7,6.8c-2.5,6-3.3,12.5-4.2,19c-0.1,0.8-0.2,1.6,0.1,2.3c0.8,1.8,3.6,1.7,5.1,0.5
	c1.5-1.3,2.2-3.2,3.3-4.9c1.2-1.8,3.1-3.3,3.6-5.4c0.3-1.3,0.1-2.6,0.1-3.9c0-2.5,0.8-5,0.8-7.5C101.1,224.2,98.9,220.3,96.8,216.6z
	"/>
<path fill="none" stroke="#E1E1E1" stroke-miterlimit="10" d="M128,126.4c-2.2,0.6-4.3,1.2-6.4,2c-0.8,0.3-1.6,0.7-2.4,0.8
	c-1.1,0.2-2.2,0-3.2,0.3c-1.6,0.4-2.9,1.8-3.5,3.4s-0.8,3.3-0.9,5c-0.2,2.6-2.2,5.7-0.5,7.7c2,2.4,6.5-0.1,9.1-1.8
	c0.2-0.2,0.4-0.3,0.7-0.5c1.1-0.8,2.2-1.6,3.3-2.4c1.1-0.8,2.2-1.6,3-2.6c2.9-3.3,6.6-9.6,3.3-12.5
	C129.7,125.2,128.8,126.1,128,126.4z"/>
<path fill="none" stroke="#E1E1E1" stroke-miterlimit="10" d="M45,163.3c-0.9-1-3.2,1.9-2.1,2.6C44,166.4,45.8,164.1,45,163.3z"/>
<path fill="none" stroke="#E1E1E1" stroke-miterlimit="10" d="M350.7-15.9c-2.9,4.4-5.8,8.7-8.7,13.1c-1,1.5-2,3.1-3.1,4.6
	c-0.5,0.8-1,1.6-1.1,2.5c-0.2,1.9,1.6,3.3,3.1,4.4c1.5,1.1,3.1,2.2,4.8,3.1c8.4,4.3,18.6,2.2,27.5-0.9"/>
<path fill="none" stroke="#E1E1E1" stroke-miterlimit="10" d="M310.4-16.1c-2.1,4.7-3.2,9.9-3.2,15c0,3.9,0.5,7.7,1.1,11.5
	c1.3,8.9,2.6,17.8,3.9,26.7c0.3,2,0.6,4,0.3,6c-0.2,1.2-0.6,2.3-0.7,3.5c-0.3,2.4,0.5,4.8,2.1,6.6c0.4,0.4,0.8,0.8,1.3,1.1
	c2.3,1.2,4.9-0.7,7-2.1c3.3-2.2,7.2-3.4,11-4.4c13.8-3.8,28.3-5.6,41.2-11.7"/>
<path fill="none" stroke="#E1E1E1" stroke-miterlimit="10" d="M253.5-14.4c-1.4,3-2.7,6.8-0.8,9.5c0.6,0.9,1.6,1.6,2.4,2.3
	c3.3,2.8,5.6,6.8,6.4,11.1c1.4,7.9-2.4,15.9-7.4,22.3c-4.9,6.4-11.1,11.8-15.5,18.5S230.5,74,233.5,73c3.8-1.3,11.4-12.6,16.4-18.5
	c6.7-7.9,13.5-15.8,21.6-22.2c1.5-1.1,3-2.3,4.8-2.8c4.7-1.4,9-4.4,13.8-3.1c4.3,1.1,0.6,8.9,0.9,13.4c0.1,1.8,0.2,3.7-0.3,5.5
	c-0.5,1.4-1.4,2.7-2.2,4c-5,8.3-5,18.6-6,28.3c-0.9,8.4-2.8,16.6-4.7,24.8c-2.5,10.9-5,21.8-7.5,32.7c-1.4,6.1-2.8,12.2-4.3,18.3
	c-3.4,14.3-8.3,28.5-8.5,43c0,2.6-3.9,4.6-5.4,6.7c-2.7,4-7.4,5.9-11.4,8.5c-4,2.6-7.8,6.9-6.9,11.6c0.1,0.8,0.5,1.6,1.1,2
	c0.8,0.5,1.9,0.3,2.8,0c3.5-1.1,6.7-2.9,9.5-5.3c4.2-3.6,11.5-11.2,14.3-16c6.9-12.3,17.2-13.8,27.5-25.8c3.3-3.8,0.5-8.2,0.8-13.2
	c0.1-1.1-0.1-5.7,0.2-6.8c0.6-1.5,5.3-3.1,6.5-4.2c9.7-9.6,17.8-17.2,27.5-26.7c4-3.9,8-7.9,12.3-11.3c4.7-3.8,9.9-7,15-10.2
	c7.5-4.7,15-9.4,22.5-14.1"/>
<path fill="none" stroke="#E1E1E1" stroke-miterlimit="10" d="M232,11.6c0.1-0.6-0.4-1.1-0.9-1.3c-0.5-0.2-1.1-0.3-1.7-0.3
	c-1,0-2.1,0-3.1-0.1c-1.2,0-2.4,0-3.3,0.7c-1.1,0.9-1.4,2.5-1.5,3.9c0,0.5-0.1,0.9,0.1,1.3c0.3,0.6,1.1,0.9,1.8,0.8s1.3-0.4,1.9-0.7
	c1.8-1,3.6-1.9,5.4-2.9C231.3,12.7,232,12.3,232,11.6z"/>
<path fill="none" stroke="#E1E1E1" stroke-miterlimit="10" d="M201.8-16.5c-0.9,4.5,2.3,9.3,0.8,13.6C202-1.1,199.4-1,198,0.2
	c-7.7,6.8-13.4,15.6-20.1,23.4c-2.9,3.4-6,7-6.7,11.5c-0.4,2.3-0.2,4.7-0.7,7c-0.7,2.9-2.6,6.6-5.6,6.7c-1.6,0.1-3.3-2-4.5-1.1
	c-1,0.7,0.6,3.2-0.6,3.6c-2.3,0.8-4.6-0.8-6.8,0.2c-13.9,6.6-26,17-34.6,29.8c-4.3,6.4-8.6,14-16,16c-2.3,0.6-4.9,0.7-6.8,2.1
	c-1.5,1.1-2.3,2.8-3.2,4.4c-6,10.7-16,19.1-27.6,23.1c-6.9,2.4-14.4,3.3-21.1,6.2c-7.1,3.1-13.1,8.3-19,13.5c-2.4,2.1-2.6,4.9-3.2,8
	c-0.9,5.1-8,7-10,11.8c-2,4.8-2,10.7,0.9,15c4.2,6.4,15.8,2.7,20.4,8.8c6.1,8-10.4,17.4-20.2,19.5c-2.4,0.5-2.1,4.2-1,6.4
	c1.2,2.2,2.8,4.7,1.7,6.9c-0.8,1.6-1.1,2.6-0.3,4.1c6.1,10.9-13.5,21.6-15.2,34c-0.2,1.5-0.4,3-1.2,4.3c-0.6,0.9-1.6,1.6-2.5,2.2
	c-2.9,1.9-6.1,3.4-9.4,4.5"/>
<path fill="none" stroke="#E1E1E1" stroke-miterlimit="10" d="M-12.6,222.4c5.3-9.9,13.2-20.8,10.6-31.7c-0.1-0.3-0.4-0.6-0.6-0.8
	c-5.3-7.4-7.3-18.4-1.4-25.3c3.9-4.5,10.6-6.9,12.3-12.6c1.4-4.4-0.7-10.1,2.7-13.3c1.6-1.5,3.9-1.9,5.8-2.8
	c4.5-2.2,7.1-7.3,11.6-9.6c4.3-2.2,9.5-1.4,14-2.8c4.8-1.5,8.5-5.2,11.9-8.8c12.2-13.1,23.8-28.1,40.6-34.2
	c4.1-1.5,8.7-2.5,11.8-5.6c2.2-2.1,3.5-5.2,6.2-6.5c1.9-1,4.2-0.9,6.1-1.8c2.2-0.9,3.8-2.7,5.4-4.4c5.7-6.4,11.4-12.7,17-19.1
	c3.2-3.6,6.4-7.2,8.1-11.7c1.3-3.3,1.9-7.2,4.9-9c1.8-1.1,3.9-1.1,5.8-1.9c6.8-2.9,6.2-12.8,10.3-18.9c5-7.4,17.3-9.9,17.8-18.8"/>
<path fill="none" stroke="#E1E1E1" stroke-miterlimit="10" d="M153.8-15.9c-1.9,2-7,3.5-5.8,6c0.7,1.4,2.4,2.3,1.3,3.5
	s-2.9,1.3-4.5,1.1c-1.6-0.2-3.2-0.7-4.8-0.2c-1.5,0.4-2.6,1.6-3.6,2.8c-4,4.5-7.9,9-11.6,13.6c-0.9,1.1-1.7,2.2-1.9,3.5
	c-0.5,4.4,9,8.2,6,11.4c-1.6,1.6-4.1,2.1-4.9,4.2c-0.3,0.8-0.4,1.8-0.7,2.6c-0.4,1.3-1.3,2.5-2.1,3.6c-5.6,7.9-11.9,15.3-18.7,22.2
	c-4.3,4.3-8.9,8.5-14.2,11.5c-6.7,3.8-14.7,5.7-20.3,11c-3.3,3.1-5.5,7.2-8.5,10.6c-8.1,9.2-18.4,15.7-26.5,24.8
	c-5.1,5.8-15.5,2.8-21.9,7.3c-3.1,2.2-5.3,5.4-7.4,8.6c-2.5,3.7-4.9,7.4-7.4,11.1c-1.9,2.9-3.9,5.8-5.1,9.1
	c-1.3,3.4-3.4,8.2-6.9,7.1"/>
<path fill="none" stroke="#E1E1E1" stroke-miterlimit="10" d="M-13.2,134.8c4.8-1.5,8.5-6,9-11c0.1-1.3,0.1-2.6,0.4-3.9
	c1.1-3.9,5.5-5.6,9.4-6.7c1.5-0.4,2.9-0.9,4.4-1.3c2.5-0.7,5.1-1.5,7.5-2.5c4.3-1.7,8.4-4,12.1-6.8c2.6-2,5-4.3,7.1-6.8
	c2.9-3.4,5.4-7.3,9.1-9.8c1.5-1,3.3-2.1,3.6-3.9c0.1-0.8-0.1-1.5,0.1-2.3c0.3-1.4,1.7-2.2,2.7-3.2c3.1-2.9,3.7-7.9,7.1-10.5
	c1.3-1,3-1.5,4.6-2.1c4.2-1.7,8.1-4.2,11.2-7.5c0.6-0.7,1.2-1.4,1.6-2.2c0.3-0.7,0.5-1.5,0.9-2.2c0.5-0.9,1.3-1.6,2.1-2.3
	c5.1-4.4,10.1-8.8,15.2-13.3c2.2-1.9,4.5-4,5-6.9s-3.5-2.9-4.7-5.6c-0.9-2,2.8-4.1,1.3-5.8c-1.4-1.7-2.9,0.2-4.6,1.7
	c-0.8,0.7-2.7,0-3-1c-0.6-1.8,3.2-1.7,4.8-2.5c1.7-0.8,3.4-3.8,1.6-4.4c-2.2-0.7-4.7-1.1-5.6-3.2c-0.9-2.1-0.3-4.8,1.5-6.3
	c0.9-0.7,2-1.2,2.9-2c1.1-1.1,2.5-3.5,1.2-4.2c-2.6-1.2-5.2-2.5-4.4-5.2s3.6-4.3,6.1-5.6"/>
<path fill="none" stroke="#E1E1E1" stroke-miterlimit="10" d="M54.7-16.9c-1.4,1.8-2.4,3.8-2.8,6c-0.1,0.6-0.2,1.4,0.2,1.9
	c0.2,0.3,0.6,0.4,0.9,0.5c1.8,0.5,3.7-0.3,5.5-0.9c2.5-0.9,5.2-1.3,7.9-1.3c0.8,0,1.7,0,2.4-0.4c0.7-0.4,1.1-1.2,1.5-1.9
	c0.5-1,1-2,1.5-3"/>
<path fill="none" stroke="#E1E1E1" stroke-miterlimit="10" d="M23.7-14.9c2.1,2.3,3,5.7,2.2,8.7c-0.2,0.8-0.5,1.6-0.5,2.4
	c0.1,0.8,0.5,1.4,1,2C27-1,27.8-0.4,28.6,0.1c2.2,1.2,4.8,1.4,7.4,1.6C40.4,2,46.5-1,49.1,2.5c1.1,1.5-2.4,3-2.7,4.8
	c-0.7,3.7,6.1,1.3,9.4,3c1.1,0.5-1.8,1.8-1.7,3c0.1,0.9,2.1,0.7,1.9,1.6c-0.4,2.2-2.8,3.6-2.9,5.8c0,0.7,0.1,1.4,0.5,2
	c0.6,0.7,1.7,0.7,2.7,0.9c2.1,0.4,5.4,2.3,4.4,4.2c-2.1,4-8,4.1-11.7,6.6c-2.4,1.7-4.9,3.4-7.3,5c-1.5,1-3,2.1-4,3.6
	c-1,1.5,0,3.4-0.7,5.1c-1.5,3.8-6,5.6-7,9.6c-1,4-1.3,8.2-3,12c-1.4,3.1-3.6,5.8-5.8,8.4c-4.6,5.5-9.3,11-13.9,16.4
	c-1.8,2.1-1.2,5.1-2.8,7.3c-2,2.9-6.9,1.5-10.2,2.9c-3.7,1.5-7.4,3-11.1,4.5"/>
<path fill="none" stroke="#E1E1E1" stroke-miterlimit="10" d="M-14.1,73.5c5.2-2.4,10.5-6.1,12.5-11.4c0.9-2.3-0.7-5.1,1.3-6.6
	c0.4-0.3,1-0.6,1.3-1c0.4-0.5,0.6-1.1,0.8-1.6c0.5-1.1,1.3-2,2.1-2.9c5.9-6.7,11.8-13.4,18.7-19.1c1.1-0.9,2.2-1.9,2.3-3.2
	c0.1-1.4-1.3-1.2-2.7-1.3c-1.1-0.1,0.6-2.2,0.2-3.3c-0.4-1-2.5,0.2-3.1-0.7c-0.9-1.3,2.1-2.4,3.3-3.5c1.2-1,2.2-3,1.1-4.2
	c-1.2-1.2-3.3-0.3-4.7-1.2C18,13,17.6,12,17.2,11.2c-1.5-3.4-3.9-6.3-6.7-8.7c-1.9-1.6-4.2-3-5-5.4C4.9-4.6,5.3-6.5,5.6-8.3
	c0.6-3.1,1.3-6.3,1.9-9.4"/>
<path fill="none" stroke="#D6D6D6" stroke-miterlimit="10" d="M350,276.5c-2.8-3.1-5.8-6.3-9.8-7.7c-0.7-0.2-1.4-0.4-2-0.7
	c-0.8-0.3-1.4-0.7-2.2-1.1c-8.2-4.4-18.4-2.9-27.3-0.1c-4.1,1.2-7.3,3-10.7,5.6c-1.4,1-2.8,2.3-4.6,2.4c-0.8,0-2.5-0.6-3.2-0.9
	c-3.6-1.4-6.9-3.5-9.7-6.3c-1.1-1-2.1-2.2-3.2-3.1c-3-2.4-7-3.1-10.8-3.4c-1.1-0.1-2.3-0.1-3.4,0.1c-1,0.2-1.9,0.5-2.9,0.9
	c-3.5,1.3-8.7,3.1-12.2,4.4"/>
<path fill="none" stroke="#D6D6D6" stroke-miterlimit="10" d="M227.7,290.3c2.8-3,6.4-6.4,10.1-8.2c1.3-0.6,2.8-1.2,3.9-2.2
	c1-0.9,1.6-2.1,2.3-3.2c2.4-4.2,4.8-8.9,3.7-13.6c-0.4-1.6-1.2-3.2-1-4.9c0.3-4.5,6.5-6.8,6.7-11.3c0-1.3-0.4-2.7,0.2-3.8
	c1-1.6,3.4-1.1,5-0.3s3.6,1.9,5.2,0.9c1.2-0.7,1.5-2.3,1.9-3.7c1.6-4.7,3.8-9.3,5.7-14.4c2.2-6.2,8-10.6,13.8-14.1
	c10-6.1,19.5-12.8,29.7-18.6c0.5-0.3,1.1-0.7,1.3-1.3c0.2-0.6,0-1.3-0.3-1.9c-1.6-4-4.1-7.4-5.7-11.4c-0.5-1.2-1.7-2.7-1.5-4
	c0.3-1.6,3.1-3.2,4.3-4.3c7.3-6.5,14.5-13.1,21.8-19.6c0.9-0.9,1.9-1.7,3.1-2.2c1.3-0.5,2.8-0.6,4-1.3c2.8-1.7,2.8-5.9,5.3-8.1
	c1.2-1.1,3-1.5,4.2-2.6c2-1.8,2.1-4.9,2.7-7.5c1.6-7,7.7-12.5,14.7-13.8"/>
<path fill="none" stroke="#D6D6D6" stroke-miterlimit="10" d="M307.2-14.2c-0.4,3.4-2.5,6.6-5.5,8.3c-1.6,0.9-3.4,1.4-4.7,2.6
	c-2.1,1.8-2.7,4.7-3.2,7.4c-2.5,13.3-4.4,27.3-12.3,38.3c-2.3,3.3-5.1,6.2-7.3,9.6c-8.1,12.4-3.6,25.9-15.2,41.5
	c-2,2.7-4.1,5.3-5.1,8.5c-2,6,0.6,13.5-3.3,18.5c-1.2,1.5-2.9,2.7-3.5,4.5c-1.2,3.8,3,8.8,0,11.3c-0.7,0.6-1.6,0.8-2.4,1.3
	c-3.3,2.4-1,8.4-4,11.2c-1.4,1.2-3.5,1.4-4.7,2.7c-0.8,0.9-1.2,2.1-1.6,3.2c-2.3,6.2-8,11-14.5,12.1"/>
<path fill="none" stroke="#4E9BD7" stroke-miterlimit="10" d="M196.3,209.5c3.8,3.1,4.1,8.8,4.3,13.7c0.6,15.9,3.5,31.7,8.6,46.8
	c1.7,4.9,3.8,10.1,8.2,12.9c3.7,2.4,10,3.2,10.3,7.6c0.6,6.8-2,7.1-4.4,9.3c-2.5,2.2-4.9,3.7-5.9,6.9c-1.3,4.1,1,8.5,0.9,12.8
	c0,1-0.2,2.1,0,3.1c0.8,4,6.8,6.2,5.9,10.2c-0.2,0.8-0.7,1.6-1.1,2.3c-1.8,3.1-2.4,6.8-1.9,10.3c0.2,1,0.4,2,0.9,2.9
	c0.8,1.6,2,2.9,3.1,4.2c3.4,4.3,5.3,9.7,5.4,15.1"/>
<path fill="#7BBCEB" stroke="#4E9BD7" stroke-miterlimit="10" d="M197.5,131.1c-0.6-0.4-1.2-0.5-1.9-0.7c-4.4-0.9-8.9-1.8-13.3-2.7
	c-0.9-0.2-1.8-0.4-2.6-0.2c-1.1,0.2-1.9,1-2.8,1.7c-2.6,2.2-5.5,4.1-8.6,5.5c-2.3,1-4.8,2-6.1,4.1c-0.7,1.1-0.9,2.5-1.2,3.8
	c-1.2,6.6-2.7,13.6-7.6,18.1c-1.1,1-2.4,1.9-3.6,2.8c-4.3,3.2-8.2,7.3-10.4,12.2c-2.3,4.9-2.1,10.6,0,15.6c1.1,2.7,2.6,5.5,4.4,7.8
	c1.5,1.9,2.6,3.4,4.3,5.1c3,3.2,6.5,5.9,9.9,8.6c1.6,1.3,3.2,2.5,5.1,3.3c2,0.8,4.2,1.1,6.3,1.2c6.9,0.3,13.9-1.1,20.1-4.2
	c3.4-1.7,6.7-3.8,9.6-6.3c3.1-2.6,5.8-5.5,8.6-8.4c4.7-4.9,9.4-9.9,14.1-14.8c0.6-0.6,1.2-1.3,1.5-2.1c0.4-1.4,0.2-3.6-0.4-4.9
	c-1.7-3.6-3.3-6.7-3.7-10.7c-0.1-1.1-0.1-2.2-0.5-3.2c-0.3-0.8-0.9-1.6-1.5-2.3c-3-3.8-6-7.6-10-10.1c-1-0.6-2.1-1.2-2.7-2.2
	c-0.4-0.6-0.6-1.4-0.8-2.1c-1.2-4.4-2.8-8.7-4.6-12.9C198.7,132.5,198.3,131.6,197.5,131.1z"/>
<path fill="#EAEAEA" stroke="#D6D6D6" stroke-miterlimit="10" d="M197.1,45.1c0.6-0.4,0.8-1.2,1.4-1.6c0.4-0.3,0.8-0.5,1.2-0.8
	c0.4-0.3,0.6-0.8,0.5-1.2c0-0.2-0.2-0.5-0.3-0.7c-0.8-1.4-0.5-3.2-0.4-4.8c0-1.6,0.5-3.5-0.5-4.8c-0.3-0.4-1-0.1-1.3,0.3
	c-0.3,0.4-0.3,1.7-0.3,2.2c0,1.5-0.7,3.8-1.1,5c-0.9,2.1-1,2.8-1.8,4.9c-0.1,0.2-0.2,0.5,0,0.8c0.1,0.2,0.3,0.3,0.6,0.4
	C195.6,45.1,196.4,45.5,197.1,45.1z"/>
<path fill="#EAEAEA" stroke="#D6D6D6" stroke-miterlimit="10" d="M242.2,21.8c-0.1-0.2-0.2-0.4-0.3-0.6c-0.7-1-1.5-2.1-2.6-2.7
	c-0.9-0.5-2.4-1.5-3.1-0.7c-0.5,0.5-0.2,1.5,0,2.2c0.8,2,3.3,2.8,5.3,3.6c0.1,0.1,0.3,0.1,0.4,0c0.2-0.1,0.2-0.3,0.2-0.4
	C242.3,22.8,242.4,22.2,242.2,21.8z"/>
<path fill="#EAEAEA" stroke="#D6D6D6" stroke-miterlimit="10" d="M162.9,70c-0.1-0.1-0.3-0.2-0.4-0.2c-0.4-0.1-0.7-0.2-1.1-0.1
	c-0.6,0.1-1.1,0.6-1.3,1.1c-0.2,0.5-0.3,1.2-0.3,1.8c-0.1,0.7-0.1,1.5-0.2,2.2c-0.1,1.5-0.2,3.1,0,4.6c0.1,0.7,0.5,1.6,1.2,1.6
	c0.6,0,1-0.5,1.3-0.9c0.9-1.2,1.8-2.5,2.2-4c0.2-0.7,0.2-1.4-0.1-2c-0.3-0.6-1.1-0.7-1.6-1.2c-0.5-0.6,0.1-1.5,0.2-2.2
	C163,70.4,163,70.2,162.9,70z"/>
<path fill="#EAEAEA" stroke="#D6D6D6" stroke-miterlimit="10" d="M164.1,92.7c0.3-0.6,1-0.7,1.7-0.6c0.7,0,1.4,0.3,2.1,0.1
	c2-0.6,0.7-4.4,2.4-5.6c1.1-0.8,2.8-0.2,4.1-0.9c1.1-0.6,1.4-2.1,1.3-3.3c-0.2-1.2-0.8-2.4-1-3.6c-0.1-0.5-0.2-1,0-1.4
	c0.2-0.4,0.6-0.6,0.9-0.9c2-1.6,3-4.2,4.2-6.5c1.2-2.1,2.7-3.9,4.6-5.3c1.2-0.9,2.6-1.6,4-2.3c3.1-1.5,6.1-3,9.2-4.6
	c1.5-0.7,3.2-1.5,4.7-0.9c0.9,0.4,1.6,1.2,2.2,2c0.2,0.2,0.3,0.4,0.4,0.7c0,0.2,0,0.4,0,0.7c-0.9,4.5-2.6,8.8-5.1,12.6
	c-0.4,0.6-0.7,1.1-1.3,1.5c-0.7,0.6-1.6,0.8-2.5,1.1c-1.7,0.6-3.3,1.4-4.8,2.3c-3.1,1.6-6.2,3.3-8.8,5.6c-1.5,1.3-2.8,2.8-4,4.4
	c-1.8,2.1-3.6,4.2-5.3,6.3c-1,1.2-2,2.4-3.5,2.8c-2.3,0.8-5.1-1-5.4-3.4C164,93.2,164,92.9,164.1,92.7z"/>
<g>
	<g>
		<path fill="none" stroke="#585858" stroke-miterlimit="10" d="M159.5,228c-0.3,0.6-0.6,1.2-0.9,1.8"/>
		<path fill="none" stroke="#585858" stroke-miterlimit="10" stroke-dasharray="3.9668,0.9917" d="M158.2,230.6
			c-2,3.7-4.1,7.4-6.9,10.5c-3.4,3.9-8.1,7-13.3,7.5c-1.5,0.1-3,0.1-4.3,0.6c-4.2,1.6-4.6,7.3-7.1,11.1c-1.9,2.8-5,4.6-7.6,6.7
			c-4.3,3.5-7.5,8.1-10.6,12.8c-4.5,6.7-7.2,12.3-11.7,19c-2.4,3.6-7.7,8.1-8.8,12.3c-0.7,2.8-1.8,5.4-4.5,7.1
			c-2.5,1.6-4.8,3.4-7.4,4.9c-6.9,4.1-11.1,10.4-16.5,16.4c-2.4,2.6-6.2,5.2-7.6,8.4c-0.8,1.8-1.3,3.7-1.9,5.6
			c-2,6.2-5.3,11.9-9.7,16.7"/>
		<path fill="none" stroke="#585858" stroke-miterlimit="10" d="M40,370.4c-0.5,0.5-0.9,1-1.4,1.4"/>
	</g>
</g>
<g>
	<g>
		<path fill="none" stroke="#585858" stroke-miterlimit="10" d="M256.2,367.2c-0.1-0.7-0.1-1.3-0.2-2"/>
		<path fill="none" stroke="#585858" stroke-miterlimit="10" stroke-dasharray="3.9863,0.9966" d="M255.9,364.3
			c-1-10.6-1.1-21.4-0.9-32.4c0-1.9-0.1-3.8,0.4-5.7c0.4-1.4,1.2-2.7,2-4c3.7-6.2,7.4-12.5,11.1-18.7c3.5-5.9,7.2-11.9,12.8-15.7
			c5.8-3.9,13.7-5.7,16.9-11.9c1.1-2.1,1.7-4.4,2.2-6.7c2-9.6,9.5-16.6,18.1-21.4c4.4-2.5,8.8-5.2,12.4-8.7c1.4-1.4,2.7-2.9,3.9-4.6
			c2.7-4,7.6-10.4,11.6-13.1c2.8-1.9,3.3-1,6.7-1.5c5.4-0.8,10.9-1.6,16.3-1.1"/>
		<path fill="none" stroke="#585858" stroke-miterlimit="10" d="M370,219.1c0.7,0.1,1.3,0.2,2,0.3"/>
	</g>
</g>
<g>
	<g>
		<path fill="none" stroke="#585858" stroke-miterlimit="10" d="M368.3,207.9c-0.6-0.2-1.3-0.4-1.9-0.7"/>
		<path fill="none" stroke="#585858" stroke-miterlimit="10" stroke-dasharray="3.9923,0.9981" d="M365.5,206.9
			c-10-3.2-20.5-4.6-31-4.2c-5.8,0.3-12.2,1-17-2.3c-1.4-1-2.7-2.6-2.2-4.3c0.1-0.4,0.3-0.8,0.3-1.2c0-1.1-1.4-1.5-2.5-1.5
			c-4.4-0.1-8.7,1-13,2.1c-9.4,2.5-18.6,5.4-27.7,8.7c-2.8,1-5.6,2.1-8.5,2s-6.1-1.5-7.2-4.2c-0.6-1.4-0.8-3.2-2.2-3.8
			c-0.7-0.3-1.5-0.3-2.1,0c-6.2,2.7-17.2,4.6-23.8,4.3c-4.7-0.2-6.6,1-10.5,3.7c-1.3,0.9-3.1,2-4.5,2.7c-2.4,1.1-3.5,2.1-6,3
			c-2.2,0.8-3.2,1.4-4.9,3c-7.1,6.3-14.2,10.9-23.2,12.9c-1.3,0.3-16.3,1-20.1,0c-4.6-1.2-6-7.6-10.4-9.5c-1.9-0.8-5.6-4-8.3-7.1
			c-5.4-6.4-5.4-16.4-5.2-25.2s2.4-17.7,9-23.4c5.6-4.8,14.1-8.4,14.2-15.8c0-2-0.6-4-0.2-5.9c0.4-1.7,1.6-3.1,2.8-4.4
			c6.7-7.1,16.1-13,25.7-11.3c5.1,0.9,9.9,3.1,14.8,4.6c6.8,2.2,23,0.1,30,1.5c9.3,1.9,9.4,3.2,17.8-1.3c1.3-0.7,2.9-0.2,4.2,0.3
			c1.2,0.4,2.1,2.1,3.1,2.8c13.2,9.3,31.8,6.3,47.9,10.2c8.3,2,16.1,6,22.6,11.5c1.3,1.1,2.5,2.2,3.4,3.6c1.1,1.6,1.7,3.4,2.5,5.1
			c3.3,7.2,9.8,12.8,17.4,15.1c2.2,0.7,4.6,1.1,6.4,2.6c1.6,1.3,2.4,3.3,3.1,5.2c2,5.6,3.3,11.4,3.7,17.3"/>
		<path fill="none" stroke="#585858" stroke-miterlimit="10" d="M363.9,204.2c0,0.7,0.1,1.3,0.1,2"/>
	</g>
</g>
<g>
	<g>
		<path fill="none" stroke="#585858" stroke-miterlimit="10" d="M221.8,367.4c-0.2-0.7-0.1-1.3,0.2-1.9"/>
		<path fill="none" stroke="#585858" stroke-miterlimit="10" stroke-dasharray="4.0089,1.0022" d="M222.6,364.6
			c0.5-0.8,1.2-1.5,1.6-2.3c0.7-1.4,0.5-3.1,0.9-4.6c0.4-1.5,1.9-3,3.4-2.4c0.6,0.2,1,0.8,1.5,1.2c1.4,1.2,3.5,1.4,5.3,0.8
			c1.8-0.6,3.2-1.8,4.5-3.1c3-3,5.3-6.8,6.7-10.8c0.5-1.5,0.9-3,1.8-4.3c1.2-1.6,3.4-3,5.1-4.6"/>
		<path fill="none" stroke="#585858" stroke-miterlimit="10" d="M253.8,334.1c0.5-0.5,0.9-1,1.2-1.6"/>
	</g>
</g>
<text transform="matrix(1 0 0 1 169.3988 172.2723)"><tspan x="0" y="0" fill="#FFFFFF" font-family="'Verdana-Italic'" font-size="8">Laurel</tspan><tspan x="3" y="9.6" fill="#FFFFFF" font-family="'Verdana-Italic'" font-size="8">Lake</tspan></text>
<text transform="matrix(1 0 0 1 92.9968 239.2242)" fill="#585858" font-family="'Verdana-Italic'" font-size="8">× 6831</text>
<text transform="matrix(1 0 0 1 223.7468 16.3242)" fill="#585858" font-family="'Verdana-Italic'" font-size="8">× 6610</text>
<text transform="matrix(1 0 0 1 96.8968 137.2242)" fill="#585858" font-family="'Verdana-Italic'" font-size="8">6843 ×</text>
<path fill="none" d="M243.2,299.2c5.4-10.2,18.1-14.6,24-24.5"/>
<text transform="matrix(0.7297 -0.6837 0.6837 0.7297 249.1413 295.2388)"><tspan x="0" y="0" fill="#7D7D7D" font-family="'Verdana-Italic'" font-size="7">6</tspan><tspan x="4.3" y="0" fill="#7D7D7D" font-family="'Verdana-Italic'" font-size="7" rotate="3.9">4</tspan><tspan x="8.6" y="0.3" fill="#7D7D7D" font-family="'Verdana-Italic'" font-size="7" rotate="4.9">0</tspan><tspan x="13.2" y="0.7" fill="#7D7D7D" font-family="'Verdana-Italic'" font-size="7" rotate="3.1">0</tspan></text>
<path fill="none" d="M19.4,280.7c3.1-0.9,5.3-3.7,7.2-6.3c3.3-4.5,6.6-9.1,9.9-13.6"/>
<text transform="matrix(0.6292 -0.7772 0.7772 0.6292 25.6716 279.7115)"><tspan x="0" y="0" fill="#7D7D7D" font-family="'Verdana-Italic'" font-size="7">6</tspan><tspan x="4.6" y="-0.1" fill="#7D7D7D" font-family="'Verdana-Italic'" font-size="7" rotate="-2.8">4</tspan><tspan x="9" y="-0.3" fill="#7D7D7D" font-family="'Verdana-Italic'" font-size="7" rotate="-2.8">0</tspan><tspan x="13.5" y="-0.5" fill="#7D7D7D" font-family="'Verdana-Italic'" font-size="7" rotate="-2.8">0</tspan></text>
<path fill="none" d="M257.2,196.3c0.2-14.5,5.1-28.7,8.5-43"/>
<text transform="matrix(0.2051 -0.9787 0.9787 0.2051 261.4616 181.4595)"><tspan x="0" y="0" fill="#7D7D7D" font-family="'Verdana-Italic'" font-size="7">6</tspan><tspan x="4.4" y="0" fill="#7D7D7D" font-family="'Verdana-Italic'" font-size="7" rotate="1.5">6</tspan><tspan x="8.8" y="0.1" fill="#7D7D7D" font-family="'Verdana-Italic'" font-size="7" rotate="2.4">0</tspan><tspan x="13.2" y="0.3" fill="#7D7D7D" font-family="'Verdana-Italic'" font-size="7" rotate="2.9">0</tspan></text>
<path fill="none" d="M308.2,10.5c1.3,8.9,2.6,17.8,3.9,26.7"/>
<text transform="matrix(0.1443 0.9895 -0.9895 0.1443 306.9782 19.4376)"><tspan x="0" y="0" fill="#7D7D7D" font-family="'Verdana-Italic'" font-size="7">6</tspan><tspan x="4.4" y="0" fill="#7D7D7D" font-family="'Verdana-Italic'" font-size="7" rotate="0">8</tspan><tspan x="8.9" y="0" fill="#7D7D7D" font-family="'Verdana-Italic'" font-size="7" rotate="0">0</tspan><tspan x="13.3" y="0" fill="#7D7D7D" font-family="'Verdana-Italic'" font-size="7" rotate="0">0</tspan></text>
<path fill="none" d="M7.3,94.6c4.6-5.5,9.3-11,13.9-16.4c2.2-2.6,4.5-5.3,5.8-8.4c1.6-3.8,1.9-8,3-12"/>
<text transform="matrix(0.6463 -0.7631 0.7631 0.6463 21.2292 82.1065)"><tspan x="0" y="0" fill="#7D7D7D" font-family="'Verdana-Italic'" font-size="7">5</tspan><tspan x="4.5" y="0" fill="#7D7D7D" font-family="'Verdana-Italic'" font-size="7" rotate="-2.1">6</tspan><tspan x="9.4" y="-0.1" fill="#7D7D7D" font-family="'Verdana-Italic'" font-size="7" rotate="-10.3">0</tspan><tspan x="14.3" y="-1.1" fill="#7D7D7D" font-family="'Verdana-Italic'" font-size="7" rotate="-23">0</tspan></text>
<path fill="none" d="M124.5,62c5.7-6.4,11.4-12.7,17-19.1c3.2-3.6,6.4-7.2,8.1-11.7"/>
<text transform="matrix(0.6663 -0.7457 0.7457 0.6663 132.4402 56.9527)"><tspan x="0" y="0" fill="#7D7D7D" font-family="'Verdana-Italic'" font-size="7">6</tspan><tspan x="4.5" y="0" fill="#7D7D7D" font-family="'Verdana-Italic'" font-size="7" rotate="0">2</tspan><tspan x="8.9" y="0" fill="#7D7D7D" font-family="'Verdana-Italic'" font-size="7" rotate="0">0</tspan><tspan x="13.4" y="0" fill="#7D7D7D" font-family="'Verdana-Italic'" font-size="7">0</tspan></text>
<g>
	<g>
		<polyline fill="none" stroke="#7D7D7D" stroke-miterlimit="10" points="85.2,341.6 85.2,348.7 275.4,348.7 275.4,341.7 		"/>
		<line fill="none" stroke="#7D7D7D" stroke-miterlimit="10" x1="180.5" y1="341.4" x2="180.5" y2="348.7"/>
		<line fill="none" stroke="#7D7D7D" stroke-miterlimit="10" x1="161.2" y1="349.2" x2="161.2" y2="343.7"/>
		<line fill="none" stroke="#7D7D7D" stroke-miterlimit="10" x1="142.4" y1="349.2" x2="142.4" y2="343.7"/>
		<line fill="none" stroke="#7D7D7D" stroke-miterlimit="10" x1="123.3" y1="349.2" x2="123.3" y2="343.5"/>
		<line fill="none" stroke="#7D7D7D" stroke-miterlimit="10" x1="104.6" y1="349.2" x2="104.6" y2="343.7"/>
	</g>
	<text transform="matrix(1 0 0 1 83.7835 339.1469)" fill="#7D7D7D" font-family="'Verdana'" font-size="8">0</text>
	<text transform="matrix(1 0 0 1 174.2946 339.1469)" fill="#7D7D7D" font-family="'Verdana'" font-size="8">0.5</text>
	<text transform="matrix(1 0 0 1 258.3415 339.1469)" fill="#7D7D7D" font-family="'Verdana'" font-size="8">1 mi</text>
</g>
</svg>
