<?xml version="1.0" encoding="utf-8"?>
<!-- Generator: Adobe Illustrator 17.1.0, SVG Export Plug-In . SVG Version: 6.00 Build 0)  -->
<!DOCTYPE svg PUBLIC "-//W3C//DTD SVG 1.1//EN" "http://www.w3.org/Graphics/SVG/1.1/DTD/svg11.dtd">
<svg version="1.1" id="Layer_1" xmlns="http://www.w3.org/2000/svg" xmlns:xlink="http://www.w3.org/1999/xlink" x="0px" y="0px"
	 viewBox="0 0 360 360" enable-background="new 0 0 360 360" xml:space="preserve">
<path fill="none" stroke="#E1E1E1" stroke-miterlimit="10" d="M373.8,254c-0.8,0.6-2,0.4-3-0.1c-0.9-0.5-1.7-1.2-2.8-1.5
	c-0.6-0.2-1.3-0.1-1.9-0.4c-1-0.4-1.5-1.5-1.9-2.5c-0.5-1.3-1.1-2.5-1.6-3.8c-0.5-1.2-1-2.4-0.7-3.7c0.2-1,0.9-1.8,1.5-2.5
	c0.5-0.6,1.1-1.3,1.7-1.8c2.4-1.9,5.9-1.5,9-1"/>
<path fill="none" stroke="#E1E1E1" stroke-miterlimit="10" d="M127.8-18c0.2,1.7,0.3,3.5,0.3,5.1c0,3.3,2.3,6.4,1.6,9.6
	c-2.7,14.3-8.4,13.6-8.1,16c0.3,2.6,5,2.1,5.9,4.5c0.5,1.2,0.6,2.5,1.2,3.7c0.8,1.5,2.3,2.6,3,4.2c3.1,6.8-6.7,16.7-1.1,23.1
	c1.1,1.2,2.5,2.1,3.3,3.5c0.8,1.4,0.8,3.1,0.7,4.7c-0.1,3.2-0.2,6.5-0.2,9.7c0,1-0.1,2.1-0.6,3c-0.6,1-1.7,1.7-2.6,2.5
	c-1.6,1.6-2.3,3.8-2.9,6c-1.8,6.7-5.2,17.4,1.3,19.8c0.9,0.3,1.9-0.5,2.9-0.3c2.6,0.6,0.3,4-1.4,6c-0.8,0.9-0.8,2.9,0.2,3.6
	c1.6,1.1,17.7-3.2,22.7,3.2c2,2.4,2.8,5.6,3,8.8c0.4,5.2-0.6,10.5-2.8,15.2c-1.9,4.1-0.8,8.1-1.7,12.5c-0.6,2.7-4.5,3.1-6.8,4.7
	s-5.4,2.5-7.8,1.2c-1.3-0.7-2.1-1.9-3.2-2.9c-4.6-4.4-11.9-4.1-18.2-3.5c-5.2,0.5-10.5,1-15.7,1.5c-1.9,0.2-3.9,0.3-5.6-0.5
	c-1.7-0.8-0.7-3.3-1.9-4.7c-1.3-1.5-3.9-0.9-4.7-2.7c-0.8-1.8-0.8-3.9-1.6-5.8c-1.3-3.2-4.4-5.1-7-7.4c-2.5-2.3-5.7-6.5-3.3-9
	c1.4-1.4,3.6-1.8,4.6-3.5c1-1.7-1.3-3.1-1.1-5.1c0.3-3.2,4.9-4,6-7c1.4-3.5,2.8-7.1,3.3-10.8c1-7.5,0.2-19.2-7.2-20.8
	c-2.9-0.6-4.7-3-4.3-5.9c0.4-2.9,1.4-6.3-0.6-8.4c-1.8-1.8-4.8-1.4-7.2-2.1c-2.2-0.7-4-2.3-6.2-3c-6-1.9-11.3,4-14.9,9.2
	c-2.4,3.5-4.8,7-7.2,10.5c-1.1,1.7-1.7,3.6-2.6,5.5c-0.6,1.3-1.3,2.6-2.4,3.6c-1.1,1-2.7,1.5-4,0.9c-0.8-0.3-1.4-1-2.2-1.1
	c-0.6-0.1-1.2,0.2-1.8,0.4c-1.3,0.5-2.5,1-3.8,1.6c-0.7,0.3-1.5,0.6-2.3,0.8c-3.9,1-6.4-3.1-9.9-5.1c-2.8-1.5-6.8-2.5-9.2-0.5
	c-0.8,0.7-1.7,2.5-2.4,1.7c-0.6-0.7,0.3-1.9,0-2.8c-0.6-1.3-2.7-1.2-4-0.7c-0.7,0.3-1.2,0.7-1.9,0.8c-2.8,0.5-4.1-4.4-6.9-4.5"/>
<path fill="none" stroke="#E1E1E1" stroke-miterlimit="10" d="M303.4-17.2c-3.1,4.8-6.5,9.5-10.8,13.3c-3.8,3.4-8.5,6-13.6,6.2
	c-2.7,0.1-5.4-0.4-8.1-0.2c-2.7,0.2-4.4,2.5-6.8,3.6c-2,0.9-3.7,1.7-5.1,3.4c-2,2.4-4.6,4.1-7.2,5.7c-5.5,3.5-11,7-16.6,10.5
	c-2.8,1.8-5.7,3.6-9,4.2c-3.5,0.7-5.5-0.3-9.1,0.3c-2.8,0.4-4.7,2.3-7.5,2.2c-6.1-0.3-13-5.3-15.8-10c-0.1-0.2-1.8-6.4-3.8-9.6
	c-1.3-2-3.1-3.7-4.4-5.7c-0.9-1.5-1.5-3.2-2.1-4.8c-2.2-6.6-4.8-13.3-5.3-20.2"/>
<path fill="none" stroke="#E1E1E1" stroke-miterlimit="10" d="M132.5,36.3c-0.1,0.9,0.1,2.2,1.1,2.3c0.5,0,0.9-0.4,1.1-0.9
	c0.1-0.5-0.3-1.1,0-1.5c0.5-0.6,1.6,0,2.3-0.3c0.7-0.3,1.6-0.9,1.5-1.6c-0.3-1.3-1.1-2.1-2.5-2.1c-1,0-1.9,0.4-2.3,1.3
	C133.2,34.4,132.6,35.3,132.5,36.3z"/>
<path fill="none" stroke="#E1E1E1" stroke-miterlimit="10" d="M223,121.4c-1.6,0.1-3.2,2.2-2.2,3.5c0.7,0.9,0.8,2,1.7,2.7
	c1,0.8,0.6-2.4,1.7-3c0.7-0.4,1.7-0.3,1.7-1.2s-0.8-1.5-1.6-1.8C223.9,121.5,223.4,121.4,223,121.4z"/>
<path fill="none" stroke="#E1E1E1" stroke-miterlimit="10" d="M217.3,114.7c2.4-2,5.9-3.1,6.2-6.2c0.1-0.7,0-1.5,0.4-2
	c0.3-0.4,0.8-0.5,1.2-0.8c1.1-0.7,1.5-2.2,1.3-3.6c-0.2-1.3-0.9-2.5-1.6-3.6c-0.6-0.9-1.3-1.9-2.3-2c-1.3-0.1-2.2,1.1-2.9,2.1
	c-1.1,1.7-2.2,3.3-3.3,5c-0.2,0.3-0.4,0.5-0.7,0.6c-0.3,0.1-0.6,0-0.9,0c-1.2-0.1-2.1,0.8-3.1,1.5c-1.7,1.3-3.8,2-5.2,3.5
	c-1.5,1.5-2.1,4.3-0.4,5.6c2.1,1.7,6.8-2.7,7.9-0.2c1,2.1-1,4.7,0.4,6.6c0.2,0.2,0.4,0.5,0.7,0.6c0.3,0.1,0.7,0,1-0.2
	c1.6-0.7,3.3-2.1,2.8-3.7c-0.2-0.6-0.7-1-1.1-1.6C217.1,116,216.8,115.1,217.3,114.7z"/>
<path fill="none" stroke="#E1E1E1" stroke-miterlimit="10" d="M227.6,142.2c1.1,0.1,2.2-0.4,2.9-1.3s1.1-2,1.2-3
	c0-0.2,0.1-0.4,0-0.6c0-0.3-0.2-0.5-0.4-0.7c-1.3-1.7-3.2-2.9-5.3-3.5c-0.6-0.2-1.3-0.3-1.8-0.6c-0.3-0.2-0.5-0.4-0.7-0.5
	c-1.9-1.3-4.5-0.1-6.2,1.6c-0.3,0.3-0.6,0.7-0.9,1.1c-0.8,1.2-0.7,2.8-0.2,4.2c0.5,1.4,1.4,2.5,2.3,3.7c0.7,0.9,1.6,1.8,2.7,1.7
	c1.4-0.2,2-2.2,3.5-2.5C225.7,141.4,226.6,142.1,227.6,142.2z"/>
<path fill="none" stroke="#E1E1E1" stroke-miterlimit="10" d="M220.9,155.7c-0.8-1.7-1.5-3.8-0.4-5.4c0.5-0.8,1.5-1.4,2.5-1.4
	c0.9,0,1.9,0.7,1.9,1.6c0,0.5-0.4,0.9-0.4,1.5c0,0.7,0.9,1.2,1.1,1.9c0.2,0.5,0,1-0.2,1.5c-0.3,0.7-0.9,1.4-1.6,1.7
	c-0.7,0.3-1.7,0.3-2.2-0.3C221.2,156.5,221.1,156.1,220.9,155.7z"/>
<path fill="none" stroke="#E1E1E1" stroke-miterlimit="10" d="M211.7,160.2c-0.4,1-0.5,2-0.4,3c0,0.4,0.1,0.8,0.3,1.1
	c0.6,1,2.3,0.9,3,0c0.8-0.9,0.9-2.2,0.8-3.3c-0.1-1.2-0.7-2.5-1.9-2.5C212.7,158.5,212.1,159.3,211.7,160.2z"/>
<path fill="none" stroke="#E1E1E1" stroke-miterlimit="10" d="M189.1,214.7c0.2-0.9-0.3-1.8-0.1-2.7c0.1-0.5,0.4-1,0.7-1.5
	c2.7-4,5.4-8.1,9.1-11.2c2-1.7,4.6-3.2,7.1-2.6c2.1,0.5,3.6,2.3,4.8,4.1c0.6,0.8,1.1,1.7,1.3,2.6c0.4,2-0.7,3.9-1.8,5.7
	c-1.9,2.9-3.8,6-6.7,7.9c-0.8,0.5-1.6,1-2.2,1.6c-0.7,0.7-1.1,1.5-1.6,2.3c-1.7,3.1-3.8,6.1-6,8.8c-1.6,2-4.5,5.6-6.4,3.8
	c-1.8-1.7,2.4-4.4,2.6-6.9c0.1-1.7-0.9-3.2-1.8-4.7c-0.9-1.5-1.6-3.4-0.7-4.8C187.9,216.2,188.8,215.6,189.1,214.7z"/>
<path fill="none" stroke="#E1E1E1" stroke-miterlimit="10" d="M200.9-19c-0.3,4,0.1,8.1,0.5,12.1c0.8,7.5,1.6,14.9,2.4,22.4
	c0.2,1.5,0.3,3.1,1.2,4.3c1.8,2.5,5.5,2.4,8.5,2.1c3.5-0.4,7.1-0.8,10.3-2.5c3.1-1.7,3.5-5.5,5.4-8.5c1.6-2.7,0.9-5.6,1.4-8.6
	c0.3-1.7,1.6-3.1,2.4-4.7c2.6-4.8,0.8-10.2-0.7-15.7"/>
<path fill="none" stroke="#E1E1E1" stroke-miterlimit="10" d="M71.2,37.9c0.3,1.8,0.1,4,1.5,5.2c1,0.8,2.4,0.8,3.7,1.1
	c1.9,0.4,3.5,1.5,5,2.7c0.7,0.5,1.4,1.1,2.2,1.4c3,1.4,6.5-0.2,9.4-1.8c1.5-0.8,2.9-1.6,4.4-2.4c1.2-0.6,2.6-1.8,2.1-3.1
	c-0.5-1.3-2.2-1.2-3.5-1.6c-2.5-0.7-3.8-3.5-5.5-5.4c-1.7-1.9-4-3.2-6.3-4.4c-1.4-0.8-2.8-1.5-4.4-1.7c-1.9-0.2-3.8,0.4-5.6,1.3
	c-1.7,0.8-3.4,2-3.8,3.8C70,34.6,70.9,36.2,71.2,37.9z"/>
<path fill="none" stroke="#E1E1E1" stroke-miterlimit="10" d="M95.8,27.5c0-0.4-0.1-0.7-0.4-1c-0.6-0.6-1.6-0.7-2.3-0.3
	s-1.3,1.1-1.6,1.9c-0.4,0.9-0.7,2.1-0.1,2.8c0.5,0.5,1.4,0.3,2,0s1.1-0.9,1.5-1.5C95.4,28.8,95.9,28.2,95.8,27.5z"/>
<path fill="none" stroke="#E1E1E1" stroke-miterlimit="10" d="M-11.2,64.8c6.1-3.3,14.3-2.1,19.2,2.8c1.5,1.6,2.8,3.5,4.9,4.3
	c2.5,1,5.2,0,7.7-0.9c3.4-1.3,6.9-2.7,9.8-5s5.1-5.7,5.1-9.4c0-1.2-0.2-2.5,0.1-3.7c0.4-1.1,1.3-2,2.2-2.8
	c7.3-6.2,16.9-10.8,20.6-19.7c0.8-1.9,1.2-4.1,0.4-6c-0.8-2-2.8-3.2-4.8-4.2c-5-2.6-10.7-3.6-15.6-6.4c-2.5-1.4-1-6.1,1.8-6.7
	c1-0.2,2.2,0,2.9-0.7c1.3-1.1,0.5-3.1,0.4-4.8c0-1.5,0.7-3,1.5-4.3c2.5-4.6,5.1-9.2,7.6-13.8"/>
<path fill="none" stroke="#E1E1E1" stroke-miterlimit="10" d="M24.8-16.2c-0.3,1.7,0,3.5,0.2,5.2c0.5,5.2,0,10.5-1.4,15.5
	c-0.3,1-0.6,1.9-1.1,2.8c-0.4,0.7-0.9,1.3-1.2,2c-0.3,0.8-0.4,1.6-0.5,2.5c-1.1,9.5-1.9,20,3.6,27.7c2.1,3,5.2,5.6,5.7,9.3
	c0.6,4.2-2.5,7.8-5.3,10.9c-1.7,1.9-3.5,3.9-5.8,5.1c-2.3,1.2-5.9,2.5-7.4,0.4c-1.7-2.2-3-4.7-5.6-5.7s-5.4-1.1-8.2-1.2
	c-4.2-0.2-8.3-0.3-12.5-0.5"/>
<path fill="none" stroke="#E1E1E1" stroke-miterlimit="10" d="M-11.3,54c2.6,1.9,6.6,2.1,9,0c1.9-1.7,3.5-4.8,6-4.3
	c2,0.5,3,3.2,5.1,3.2c2,0,2.8-2.8,2.2-4.7s-1.9-3.7-1.9-5.7c0.1-2.9,3.1-5.3,2.8-8.2c-0.2-1.9-1.8-3.3-3.2-4.7
	c-3.9-4.1-6.3-10.4-3.7-15.5C6.2,12,8,10.4,9,8.3c3.1-6-0.9-13.5,0.9-20c0.4-1.6,1.2-3.1,1.7-4.7c0.1-0.3,0.2-0.6,0.3-1"/>
<path fill="none" stroke="#E1E1E1" stroke-miterlimit="10" d="M-6-15.7c-1.5,2.6-3.8,4.8-6.5,6.1"/>
<path fill="none" stroke="#E1E1E1" stroke-miterlimit="10" d="M-10.9,114c2.3-4.3,6.3-7.7,10.9-9.4c2.7-1,5.9-1.3,8.3,0.3
	c1.5,0.9,2.4,2.5,3.6,3.7s3.1,0.9,4.6,1.8c1.9,1.2-0.7,5.9,1.4,6.6c1.7,0.6,3.8-0.8,4.8,0.7c0.4,0.6,0.6,1.4,1.3,1.7
	c0.6,0.3,1.3,0,2,0c3.4-0.4,5.5,3.4,8.1,5.7c1,0.9,2.1,1.6,3.1,2.5c1.4,1.3,2.5,3,3.5,4.7c2.3,3.8,4.6,7.7,6.9,11.5
	c2.4,3.9,4.8,8,5.6,12.5c0.8,4.5-0.2,9.7-3.8,12.6c-0.9,0.7-1.8,1.3-2.5,2.2s-0.8,2.3,0,3c0.5,0.4,1.2,0.5,1.7,0.8
	c1.6,0.8,1.9,3.2,1,4.8c-0.9,1.6-2.6,2.6-4.2,3.4c-2.6,1.3-5.5,2.4-8.4,2c-2.9-0.4-5.6-2.9-5.4-5.8c0.1-1.8,1.3-3.3,2.1-4.9
	c0.8-1.6,1.2-3.7,0-5.1c-1.5-1.7-4.2-1-6.2-0.1c-1.2,0.5-3,0.3-3.6,1.5c-0.7,1.3,0.5,3,0.7,4.5c0.2,1.5,1.4,2,2.6,2.9
	c2.8,2.1-3.9,5.7-7.3,6.5c-3.4,0.8-7.1,0.8-10.1,2.5c-2.1,1.2-3.6,3.2-5.5,4.7c-1.9,1.5-5,3.7-6.6,1.9c-1.6-1.7-3.6-3.7-5.7-2.6
	c-2.2,1.2-4.7,2.1-7.3,1.9"/>
<path fill="none" stroke="#E1E1E1" stroke-miterlimit="10" d="M4,162.5c0.5,0.2,1.1,0.2,1.5,0.5c0.4,0.3,0.6,0.9,0.9,1.4
	s0.8,1.2,1.2,0.9c1.5-0.9,2.5-3.4,1.5-4.9c-0.5-0.9-1.7-1.1-2.7-1.3s-2.1,0-2.8,0.8S3.1,162.1,4,162.5z"/>
<path fill="none" stroke="#E1E1E1" stroke-miterlimit="10" d="M129.3,231.1c0.2-2.1,0.2-4.6-1.5-6c-2.1-1.6-5.2-0.3-7.7-1.3
	c-1.3-0.5-2.4-1.6-3.8-1.9c-0.8-0.2-1.6-0.1-2.3-0.1c-2.1-0.2-4.2-1.5-6.2-0.8c-1.9,0.7-2.6,3-4.1,4.4c-1,0.9-2.4,1.4-3,2.6
	c-0.8,1.6,0.4,3.6-0.1,5.3c-0.1,0.4-0.3,0.7-0.4,1.1c-0.2,1.1,0.8,2,1.8,2.3c1,0.3,2.1,0.1,3.2,0c2.5-0.2,4.8,1.7,7.2,1.3
	c1.6-0.2,2.9,0.2,4.5,0.5c0.9,0.1,1.8-0.1,2.7-0.3c1.8-0.4,3.5-0.8,5.3-1.2c0.7-0.2,1.5-0.3,2.1-0.7
	C128.8,235.4,129.2,233.1,129.3,231.1z"/>
<path fill="none" stroke="#E1E1E1" stroke-miterlimit="10" d="M265.2,67.7c0.4,0.4,1.1,0.2,1.6,0c1.4-0.5,3.4-0.2,4.1-1.4
	c0.4-0.7-0.2-1.6-0.4-2.4c-0.2-1.1-0.6-2.5-1.7-2.5c-0.9-0.1-1.6,0.9-2.1,1.7c-0.5,0.9-1,1.8-1.5,2.7
	C264.9,66.3,264.6,67.2,265.2,67.7z"/>
<path fill="none" stroke="#E1E1E1" stroke-miterlimit="10" d="M271.8,49.5c-0.5-0.9-2.1-0.3-2.6,0.6c-0.6,0.9-1,2.1-0.5,3
	c0.5,0.9,2.1,0.2,2.7-0.6C272.1,51.6,272.4,50.3,271.8,49.5z"/>
<path fill="none" stroke="#E1E1E1" stroke-miterlimit="10" d="M-8.8,223.4c0.9,0.9,1.8,1.8,3,2.2c1.2,0.3,2.7-0.1,3.1-1.3
	c0.2-0.6,0-1.2,0.1-1.8c0.1-1.5,1.4-2.7,2.6-3.7c2-1.7,4-3.4,6-5.1c1.7-1.5,3.5-2.9,5.6-3.8c2.2-0.9,4.6-1.2,6.9-1.8
	c4.5-1.3,8.5-4,13.1-5.1c5.8-1.4,11.9,0,17.8-0.6c7.2-0.7,14.1-4.5,18.5-10.3c1.2-1.5,2.4-3.3,4.2-3.7c0.9-0.2,1.8-0.1,2.6-0.3
	c2-0.6,3-2.8,4-4.7c1.3-2.5,3.3-4.6,5.5-6.3c0.8-0.6,1.8-1.1,2.7-0.7c0.6,0.3,1,0.9,1.6,0.9c0.7,0.1,1.3-0.6,1.9-1
	c1.4-0.8,2.5,0.7,3.5,1.9c0.8,1,2.6,0.8,3.9,0.3c1.2-0.4,0.7-1.9,1.2-3.1c1-2.4,5.3,0.2,7.7,1.1c2.3,0.8,4.5,2.1,6.6,3.3
	c0.5,0.3,1.1,0.7,1.1,1.3c0,0.5-0.4,0.9-0.8,1.3c-2.7,2.1-5.8,3.7-9,4.7c-1,0.3-2.1,0.6-2.9,1.3c-1.8,1.8-0.8,4.8-1.1,7.4
	c-0.3,3-2.5,5.7-2.4,8.8c0,2.6,3.2,6.3,1,7.7c-1.3,0.9-2.8,1.3-3.4,2.7c-0.6,1.4-1,3.1-2.2,4.1c-1.2,1-3.1,1.2-4.3,2.2
	c-1.4,1.2-1.5,3.4-1.1,5.2c0.4,1.8,1.1,3.6,1.2,5.4c0.1,4.4-4.9,6.6-7,10.5c-0.4,0.7,0.8,1.2,1.2,1.8c1.7,2.2-2.9,4.8-5.7,5.4
	c-2.8,0.6-5.7,0.5-8.3,1.8c-2.5,1.3-4.2,3.7-6.6,4.9c-2.4,1.2-5.3,1.1-8,1.4c-2.7,0.3-8.8,1.9-6.8,3.8c1.5,1.4,4.2,0.2,6.1,1
	c2,0.9,4.6-0.9,6.5,0.2c1,0.6,0.3,2.4-0.6,3.2c-0.5,0.4-1.1,0.5-1.6,0.7c-2.3,0.9-3.4,3.5-4.3,5.9c-0.6,1.6-1,3.7,0.4,4.7
	c0.9,0.7,2.2,0.4,3.4,0.1c3.3-0.9,7-4.4,10-2.7c0.9,0.5-1,1.7-1,2.7c0,1.4,3.1,2.5,2.1,3.5c-2.9,3.2-8.6,0.7-12.4,2.7
	c-2.8,1.5-5.3,3.8-5.9,6.9c-0.6,3.1,1.7,6.7,4.9,6.6c1.4-0.1,2.6-0.8,3.8-1.6c3.5-2.2,7-4.4,10.5-6.6c3.4-2.1,7.5-4.3,11.2-2.8
	c0.4,0.2,0.9,0.4,1.3,0.6c1.5,0.5,3.1,0.2,4.7-0.1c3.9-0.8,7.7-1.7,11.6-2.5c2.9-0.6,5.9-1.3,8.9-1.1c1.9,0.1,3.8,0.5,5.5,1.3
	c0.8,0.4,1.6,0.8,2.4,0.9c0.8,0.1,1.7,0,2.2,0.7c1,1.3-2.7,3.6-1.3,4.4c3.2,2,10.4-2.8,11.2,0.9c0.7,3.2-6.4,1.9-8.9,4
	c-1.2,1-1.9,2.6-3.2,3.5c-1.2,0.8-2.7,1-4.1,1.5s-2.7,1.8-2.4,3.2c0.2,0.7,0.7,1.3,1.1,2c2,3,0.6,7.3-1.7,10.1
	c-1,1.3-2.3,2.4-2.9,3.9s-0.6,3.5,0.8,4.5c1.8,1.3,4.2,0,6.4,0.2c0.8,0.1,1.6,0.4,2.4,0.6c3.1,0.9,8.3-1,9.4,0.6
	c0.7,1-3.4,5.5-2,8.7c0.6,1.3,1.5,2.5,1.8,3.9c0.5,2.2,0.1,4.6-0.5,6.9c-0.2,1-1.8,0.5-2.7-0.1s-1.8-1.4-2.7-1
	c-1.5,0.6-0.7,2.9-0.7,4.5c0,1.6-1,2.9-2,4.2c-3.7,4.7-7.4,9.4-11.2,14"/>
<path fill="none" stroke="#E1E1E1" stroke-miterlimit="10" d="M97.9,181.9c-1.1-0.7-2.4-1.2-3.8-1.4c-0.5-0.1-1.2,0-1.3,0.5
	c-0.1,0.3,0.2,0.7,0.4,0.9c0.7,0.8,1,2.1,2,2.3c0.6,0.1,0.9,0.8,1.5,0.9c0.3,0,0.5-0.1,0.7-0.3c0.7-0.5,1.4-1.2,1.1-2
	C98.6,182.4,98.2,182.2,97.9,181.9z"/>
<path fill="none" stroke="#E1E1E1" stroke-miterlimit="10" d="M85.5,182.1c0-0.2,0-0.4-0.1-0.6c-0.4-1-2-1.5-2.8-0.8
	c-0.4,0.3-0.4,0.9-0.3,1.4c0,0.8,0.8,1.5,1.6,1.5S85.4,182.9,85.5,182.1z"/>
<path fill="none" stroke="#E1E1E1" stroke-miterlimit="10" d="M-8.9,235.5c0.8-1,2.3-1,3.6-0.7c5.2,0.9,11.1,2.7,15.4-0.3
	c1.8-1.3,3-3.2,4.2-5.1c2.5-3.9,5.2-7.8,8.1-11.4c0.5-0.6,0.9-1.1,1.5-1.5c1.2-0.9,2.8-1,4.2-1.2c11.1-1.3,22.1-3.9,31.9-9.2
	c2.9-1.6,5.8-3.5,9-4.4c2.9-0.8,6-0.8,8.8-2c2-0.8,4.6-2.9,6.3-1.5c1.9,1.5,1.1,4.6,0.9,7c-0.1,2-0.3,4-0.8,5.9
	c-1.1,3.7-3.9,7-7.4,8.6c-0.8,0.4-1.7,0.7-2.4,1.2c-1.2,0.9-1.9,2.4-2.6,3.8c-1.2,2.7-2.5,5.4-3.7,8.1c-1.4,3-2.7,6-4.8,8.5
	c-0.6,0.8-1.4,1.5-1.8,2.4s0.8,1.9,0.4,2.8c-1.2,3.2-18.9,8-29.5,11.4c-3.1,1-12.5,3.5-15.2,5.2c-2.5,1.6-5.2,2.6-8.2,3.1
	c-1.6,0.3-3.3,0.2-4.9,0.6c-3.2,0.8-7.9,4-6.3,6.8c2.1,3.7,8.3-0.8,12.4-2.2c3.8-1.3,7.9-1.9,12-1.5c0.3,0,0.6,0.1,0.9,0.2
	c0.5,0.2,0.8,0.6,1.2,1c1.7,1.8,6,0.8,6.5,3.3c0.8,4.1-10.9,6.2-8.1,9.3c0.8,0.9,3.4,0.8,2.7,1.9c-2.1,3.7-8,3.1-12.1,3.9
	c-2.1,0.4-4.2,0.7-6.1,1.7c-1.9,1-3.4,2.9-3.4,5c0,3,3.2,5.1,6.2,5.3c3,0.2,6-2.2,8.8-1.3c1.1,0.4-0.3,2.2-1.3,2.7
	c-1,0.6-2.3,1.4-1.9,2.5c0.5,1.6,2.9,0.5,4.5,0.8c0.6,0.1,1.2,0.5,1.7,0.8c2.3,1.5,4.6,2.8,7.1,4c0.7,0.4,1.5,0.7,2.4,0.7
	c1.3,0,2.3-1,3.6-1.3c2.6-0.7,5.2,1.5,7.9,1.7c1.7,0.1,3.4-0.5,5-1.2c5.8-2.2,11.7-4.2,17.7-5.8c5.5-1.5,13.4-6.1,17-1.6
	c1.3,1.6-2.4,3.1-4.3,3.9c-1.9,0.8-5.3,3.2-3.6,4.3c1.2,0.8,3.3,1,4.7,1.4c1.4,0.4,2.6,0.9,2.8,2.3c0.3,1.7-1.2,2.4-2,3.9
	s0.6,2.8,0.4,4.5c-0.2,2.2-4.9,0.3-6.2,2c-0.3,0.5-0.3,1.2,0,1.7c0.5,0.7,2.3,0.1,2.5,1c0.8,4.8-8.5,5.1-13.4,5.1
	c-2,0-4.3-0.2-5.7,1.3c-1.3,1.3-1.3,3.6-2.5,5c-0.5,0.6-1.3,1-2,1.3c-3.6,1.5-7.8,1.4-11.7,1.2c-4.1-0.2-8.3-0.5-12.4-0.9
	c-0.7-0.1-1.4-0.1-2,0.1c-1.9,0.6-1,4-2.7,5c-2.5,1.5-5.5-2.3-8.4-2.5s-6.1,0.6-8,2.8c-0.7,0.9-1.9,2.1-2.8,1.4
	c-0.3-0.3-0.5-0.7-0.7-1.1c-1-1.4-3.3-0.5-4.6,0.7c-2.8,2.6-4.7,6.1-7.2,9.1c-2.5,3.1-5.7,5.6-9.3,7.5"/>
<path fill="none" stroke="#E1E1E1" stroke-miterlimit="10" d="M-20.3,248.6c8.4-3.2,17.7-2.9,26.4-4.8c4.2-0.9,8.3-2.3,12.4-3.7
	c4.1-1.4,7.7-4.2,11.8-5.7c2.3-0.8,5.5-1.8,7.7-2.8c5.2-2.5,12.4-8.2,15.1-6.2c1.8,1.4-5.8,7.4-9.6,10c-10.7,7.3-6.2,9.6-8.3,10
	c-3.8,0.7-5.1,1.4-5,3.8c0.2,2.9-2-0.5-15.7,5.5c-5.3,2.3-15.2,4.6-20.2,7.6c-1.1,0.7-1.7,1.7-1.9,3c-0.2,2.7-2.5,5.2-2.4,7.9
	c0,0.6,0,1.4-0.5,1.7c-0.4,0.2-0.9,0.1-1.3-0.1c-0.8-0.3-1.7-0.6-2.1-1.4"/>
<path fill="none" stroke="#E1E1E1" stroke-miterlimit="10" d="M141.3,261.4c-0.8-1.3-2-2.3-3.2-3s-3.4-2.2-2.4-3.1
	c1.4-1.2,3.8-0.7,5.4-1.7c0.8-0.5,1.7-1.1,2.6-1.3c0.9-0.1,1.7,0.3,2.5,0.6c2.1,0.9,4.1,1.7,6.2,2.6c0.7,0.3,1.4,0.6,2.1,1.1
	c0.4,0.3,0.8,0.8,1.2,1.1c0.9,0.7,2.1,1.1,3.2,1.5c2.2,0.9,6.1,0.5,6.4,0.7c2.8,0.9,9.7,8.9,6.1,11.6c-1.3,1-4.5,2.6-6.1,3.2
	c-3.1,1.1-4.3-0.4-6.9-1.7c-4.5-2.3-9.6-2.3-13.3-6.3c-0.4-0.5-0.8-1-1.2-1.5C143.4,264.3,141.9,262.4,141.3,261.4z"/>
<path fill="none" stroke="#E1E1E1" stroke-miterlimit="10" d="M-8.3,207.7c0.8,1.8,1.7,3.6,2.5,5.4c0.3,0.6,0.6,1.3,1.2,1.6
	c1.5,0.9,3.2-0.7,4.2-2.1c3.3-4.5,7.1-8.5,11.3-12.1c2.7-2.3,5.8-4.5,9.4-5c2.9-0.4,5.9,0.4,8.8,0.1c4.6-0.4,8.6-3.5,13.2-4.5
	c5-1.1,11,0.1,14.7-3.5c2.3-2.3,2.9-5.9,5.2-8.3c1.6-1.7,4.3-3.4,3.7-5.7c-0.2-1-1-1.7-1.4-2.6c-0.7-1.7,0.3-3.7,1-5.4
	c2.9-6.8,2.5-15-1.2-21.5c-0.6-1.1-1.3-2.1-1.5-3.3c-0.2-1.2,0.3-2.6,1.4-3.1c2-0.8,2.3,2.7,4.2,3.8c1.6,0.9,3.4-2,5.2-2
	c3-0.1,4.7,3.4,5,6.3c0.3,2.9,0.1,6.2,2,8.5c2.1,2.4,5.7,2.6,8.9,2.2s6.6-1,9.4,0.5c2.9,1.5,4.3,5.3,7.5,6.2
	c5.5,1.5,5.1-1.7,7.4-1.1c4.5,1.1,17.2,3.8,17.9,3.9c4,0.8,3,3.6,4.1,6.6c0.9,2.4,4.6,2.8,4.2,5.3c-0.1,1-2.1-0.1-3.1,0
	c-1,0.1-1.9,2-0.9,2.1c2.1,0.2,4.4,0.7,5.8,2.3c0.2,0.3,0.4,0.6,0.3,0.9c-0.1,0.3-0.5,0.5-0.8,0.6c-2.2,0.8-4.6,0.7-6.9,1
	c-2.3,0.3-4.8,1.2-5.9,3.2c-2.2,3.7,1.3,8.8-0.4,12.8c-1,2.4-3.9,4.4-3.3,6.9c0.1,0.6,0.4,1.1,0.5,1.7c0,1.5-1.9,2.3-3.4,2
	c-1.5-0.3-2.8-1.2-4.3-1.4c-3.4-0.4-6.1,2.8-9.4,3.7c-1.3,0.4-2.7,0.4-3.9,1c-2.9,1.3-3.9,4.8-4.7,7.9c-0.7,2.9-1.3,5.9-2,8.8
	c-0.6,2.7-1.2,5.7-0.2,8.3c0.6,1.5,2.4,3.3,1.5,4.7c-1.5,2.2-4.4,3-6.4,4.9c-0.7,0.7-1.4,1.4-1.4,2.4c0,0.8,0.4,1.6,0.9,2.3
	c1.9,2.9,4.7,2.4,5.3,5.8c0.8,4.2-11.8,5-9.8,8.7c1.3,2.5,5.6-0.5,8.1-1.7c2.5-1.2,5-2.7,7.7-3.2c0.9-0.2,1.8-0.2,2.6-0.5
	c1.4-0.5,2.6-1.8,4.1-1.9c0.9,0,1.8,0.4,2.7,0.8c2.8,1.5,5.3,3.7,8.1,5.2c1.9,1.1,5.7,3.7,7.7,4.6c4.3,1.9,6.6,1.1,10.9,3.9
	c4.2,2.8,7.2,5.5,12,7.7c2.2,1,4.9,3.8,7.1,4.5c2.2,0.7,6.3-0.8,8.6-1.2c6.2-1.2,9.8-4.7,16-4c4.6,0.5,12.1,0.3,13-5.1
	c0.5-3.4-2.7-4.3-2.3-7c0.5-2.9-1.7-6.5-4.7-8.4c-1.7-1.1,0.5-2.5-0.7-4.2c-1-1.3-1.9-1.4-1.9-3.4c0-1.8,1.3-2.1,1.6-3.7
	c0.7-3.2-1-5.9-2.4-7.8c-2-2.7,3.3-2.6,5.8-4.2c1.5-0.9,3.8-3.9,5.4-4.7c1.3-0.7,2.7-1.2,3.9-1.9c1.8-1.2,3.6-2.3,4.9-4
	c1.2-1.5,1.9-3.3,3.1-4.8c2.6-3.1,7-4.2,10-6.8c6.7-5.9,4.8-16.5,6.2-25.3c1.8-11.1,9.5-20.2,16.8-28.8c1.4-1.6,2.8-3.3,3.6-5.2
	c0.8-1.9,1.1-4,1.4-6c2.5-19.1,3.4-46.1,10-64.2c2.2-5.9,6.3-8.6-0.2-10.8c-5.5-1.9-2-4.3-0.8-10.5c0.6-3.1-5.8-1.3-6.7-4.3
	c-1.2-4,2-9.8,6-11.1c13-4.1,13.3-17.2,16.3-24.7c1.4-3.5,8.6,5.8,11,2.9c1.1-1.3-3.2-3.2-2.2-4.6c2.9-4,23.2-9.4,30.8-18.9
	c4.8-5.9,7.5-13.2,10.2-20.4c0.4-0.9,0.7-1.9,1.2-2.8"/>
<path fill="none" stroke="#E1E1E1" stroke-miterlimit="10" d="M129.5,366.5c1.5-1.4,2.9-2.7,3.9-4c1.6-2,3.9-2.8,5.5-4.6
	c1.2-1.3,1.9-3.5,2.6-5.1c1.8-4,1.7-8.2,3.7-12c2-3.8,5.5-6.5,8-9.9c1.6-2.2,1.9-4.8,3.2-7.1c0.8-1.5,1.6-1.3,1.7-3
	c0.1-1.1-1.6-1.6-1.3-3.3c1.1-5.2,9.7-4.5,13.3-5.3c4.8-1,9.4-3.7,14-5.6c2.2-0.9,4.5-2.8,7-1.4c1.9,1,1.9,4.6,2.9,6.1
	c1,1.6,3.8,3.3,5.8,3.3c2.7,0,4.6-2.9,6.9-3.8c3.5-1.3,11.9,4.5,14.1-0.6c0.2-0.5-0.4-3.5-0.7-4c-0.9-1.9-0.4-1.1-2.3-2.1
	c-1.6-0.8-10.7-1.1-12.4-1.8c-11-4.7-10.3-0.7-11.3-3.6c-2-5.9,20-6.6,14.9-10.9c-3-2.5-3.2-8.7-4.4-11.5c-0.7-1.7-1.2-4.5-1.6-6.6
	c-0.4-2.3,0.4-7.1-0.7-9.1c-2.4-4.2-6.2-7.3-5.2-12c1.7-7.8,11.9-9.6,17.6-15.2c4.7-4.6,6.2-11.7,11.1-16.1
	c4.7-4.2,12-5.5,14.9-11.1c1.4-2.7,1.4-5.9,1.7-8.9c1.1-10.7,6.7-20.9,15.1-27.6c1.2-0.9,2.4-1.8,3.3-3c1.1-1.4,1.7-3,2.3-4.7
	c3.4-9,2.9-20.7,10.1-27.1c4.9-4.3,2.9-14.1,9.2-15.9c2.9-0.8,5.6,1.6,8.6,2.3c5.2,1.2,9.8-3.2,13.6-7c3.8-3.8,9.2-7.6,14-5.2
	c3.1,1.5,8,5.9,8.9,2.5c0.4-1.4-1.3-3-0.5-4.2c3.2-5,7.2-9.3,5.7-15c-1.5-5.7-4.9-10.9-5.5-16.8c-0.9-8.5,7.7-22.3-0.3-25.1
	c-1.8-0.6-5.1-0.2-4.8-2.1c1-5.7,9.6-6.2,14.8-8.5s10.7-5.9,12-11.5c0.3-1.6,0.4-3.3,1.5-4.5c1.2-1.2,3-1.3,4.6-1.9
	c3.5-1.3,5.4-5.1,5.8-8.8c0.4-3.7-0.5-7.3-1.1-11c-0.9-6.4-2.6-14.4-1.1-20.6"/>
<path fill="none" stroke="#E1E1E1" stroke-miterlimit="10" d="M159.2,300.6c2.6-2.4,1.2-5.4-2.3-6.1c-2.6-0.5-7.5,0.8-9.4,2.6
	c-3.7,3.4-0.3,5,2.7,6.4C151.5,304.2,156.3,303.3,159.2,300.6z"/>
<path fill="none" stroke="#E1E1E1" stroke-miterlimit="10" d="M146.6,366.5c1.2-2,2.3-3.9,3.5-6c2.6-4.8,4.5-10.4,8-14.7
	c2.8-3.4,6.6-6.9,9.8-9.7c1.8-1.6,4.4-2.3,6-3.6c3.7-3.1-2-3.1-0.1-6.7c0.8-1.5,4.1-2.1,5.5-3.2c2.4-1.9,3-3,5.8-1
	c2,1.4,2.5,3.8,4.8,4.8c2.2,1,6.2,0.6,8.7,0.7c5.6,0.3,11.4,1.4,16.7-0.3c2-0.6,4.1-1.8,6-2.7c1.7-0.7,1.7-0.6,3-2
	c0.9-1,1-2.1,2.3-2.7c2.1-0.9,5,0.3,7.3-0.6c2.7-1.1,4.9-2.5,5.3-5.3c0.4-2.4-1-6.3-1.7-8.7c-0.7-2.4-1.4-5.4-2.7-7.6
	c-1.2-2-4.1-2.1-4.6-4.1c-0.7-2.8,3-3.7,1-6.7c-0.6-0.9-2-1.1-2.6-2c-0.6-1-0.1-2.5-1-3.7c-1.3-1.9-4.4-2.7-5.8-4.2
	c-1.9-1.9-0.8-1.5-2-4c-0.8-1.8-4.7-0.4-5.2-6.8c-0.4-4.5,2.8-4.4,2-6.1c-1.6-3.4-7.5-4.2-5.3-7.2c5-7.2,24.9-7.2,21.3-13.8
	c-0.9-1.6-1.9,0.1-2.7-1.5c-0.8-1.6-0.6-3.5-0.3-5.2c0.2-1.1,0.5-2.2,1.4-2.8c0.4-0.3,0.9-0.4,1.4-0.5c6.1-1.8,10.1-7.6,13.6-13
	c2.7-4.1,5.4-8.3,6.3-13.1c0.3-1.6,0.4-3.3,1.2-4.8c1.9-3.9,6.9-4.9,10.1-7.8c5.1-4.7,4.6-13.5,9.7-18.2c0.9-0.8,1.9-1.5,2.6-2.4
	c0.9-1.1,1.3-2.4,1.8-3.7c3.6-9.4,10.1-17.7,18.3-23.4c5.5-3.8,13.1-6.4,18.7-2.7c0.7,0.5,1.4,1,2.2,1.3c0.9,0.2,1.8,0.1,2.7-0.1
	c3.6-0.7,10.3,1.5,10.9-2.2c0.5-3.1-0.7-4.9-1.2-8c-0.3-1.9-5.3-0.6-5.1-2.5c1-11.5,22.1-6.3,33.2-9.5c1.6-0.5,3.3-1,4.4-2.2
	c1.2-1.2,0-2.8,0.3-4.5c0.2-1,2.2-0.3,2.8-1.2c0.8-1.3-2-2.8-1.6-4.3c0.9-3.5,3.8-6.1,3.3-9.7c-0.6-3.6-3.6-6.6-4-10.2
	c-0.3-3.1,4.9-5.8,3.5-8.6c-0.9-1.8-4.9,0.4-5.7-1.4c-1.1-2.4,4.7-2.3,6.2-4.5c2.9-4.1,3.3-10.3,8.4-10.5"/>
<path fill="none" stroke="#E1E1E1" stroke-miterlimit="10" d="M165.7,366.7c3.6-3.2,8.4-5.7,12.2-8.9c2.2-1.8,1.8-5.2,4-7
	c2.8-2.3,4-5,6-7c1-1,3-2,4-1c8,8,24,10.2,29,0c0.6-1.3,0.1-6.2,4-4c3.1,1.8,5.7,5.8,9,2c1.9-2.1,4-3,5-5s0.9-4,2-6
	c2.8-5.1,6.5-9.9,6-15c-0.7-7-4.2-13.9,3-20.1c5.1-4.4,4.8-17.3-3.2-17.8c-2-0.1-5.4,2-7.3,0c-2.2-2.3,3.3-3,2.6-5.1
	c-0.5-1.4-2.1-1.5-3-2.2c-1.4-1.1-5.1-4.3-4.3-5.9c0.9-1.8-1-5.2-2-8.3c-1.6-5,9.4-5,13.2-8.7c1.1-1.1,2.2-2.4,2.5-4
	c0.3-1.4-0.1-2.8,0-4.2c0-2.3,1-4.4,2-6.4c1.3-2.8,2.7-5.6,4.7-8c1.8-2.1,4.1-3.8,5.6-6.2s-1.5-5.4,0-7.8c2.1-3.6,8.3-1.4,10.7-4.8
	c2.4-3.4,3.5-7.5,5-11.4c1.4-3.8,2-8.8,5.5-10.9c1.1-0.6,2.6,0.3,3.7-0.2c1.9-0.9-0.2-3.6-0.3-5.7c-0.2-4.1,5.5-6,8.2-9.1
	c1.9-2.1,4.2-4.4,7-4.5c2.4-0.1,4.5,1.5,6.9,1.9c2.3,0.5,3.2-1.7,4.9-3.4c1.9-1.9,5.4-1,7.9-0.2c1.6,0.5,3.3,2,4.8,1.1
	c1.3-0.7,1.1-2.8,0.1-3.8s-3.8-0.1-4.1-1.6c-0.7-3.4,6.9-2,9.9-0.3c1.1,0.6,2.3,1.5,3.6,1.3c1.6-0.2,2.5-1.9,4-2.4
	c1.6-0.6,3.3,0.3,4.9,1c6.8,2.7,14.5-0.1,21.3-2.9c2.4-1,4.9-2.1,6-4.4c0.4-0.9,0.6-1.9,1-2.9c1.7-3.5,6.9-3.8,9.2-6.9"/>
<path fill="none" stroke="#E1E1E1" stroke-miterlimit="10" d="M377.8,311.9c-0.5,5.1-9.1,3.6-13,5c-4.2,1.6-2.4,8.4-5,12
	c-0.8,1.1-1.7,3.2-3,5c-1.7,2.3-4.1,8.3-8,5c-4.1-3.4-7.1-7.8-12-9c-5.9-1.4-4.7-4.1-7-8c-1.7-2.8-3.8-2.2-5.8-3.5
	c-2.4-1.5-4.4-4-7.2-4.5c-1-0.2-3,2-4,2c-2,0-3-2.2-5-2c-5.1,0.5-6,7.7-5,13c0.2,1-0.8,3-1,4c-0.5,2.2-2.9,4-4,6
	c-2.8,5.1-9.2,0.9-11,4c-2.2,3.9-6,7.5-7,11c-0.3,1,1,3,2,3c5,0,11.7-3.1,12,0c0.3,2.7-8.8,6.6-16.1,11.2"/>
<path fill="none" stroke="#E1E1E1" stroke-miterlimit="10" d="M214.7,365.3c4.2-1.6,8.9-1.3,11.2-5.4c3.2-5.9,9-9,15-13
	c9-6,13.5-20.9,16.8-25.8c2.5-3.7,2.2,8.2,14.3,0.8c1.3-0.8,3,1.2,4.7-0.7c1.7-2-1.7-1-4-3.2c-0.9-0.9-1.9-3.1-3.8-3.2
	c-2.2-0.1-7.7-1.3-5.9-3.3c1.1-1.3,5.9,0.7,7.9,0.3c3.1-0.5,7,0,10-1s1.3-4.8,3-7c3.6-4.6,8.9,0.5,12-2c3.9-3.2-4-7.2-8-8
	c-6-1.2-21.8,2.7-19-7c0.6-2.1,3.4-3.2,2-6c-2.2-4.5-4.2-3.6-5.8-5.9c-0.5-0.8-2.1-8.7-2.6-9.5c-0.8-1.1-3.4-3.1-3.3-3.5
	c0.3-1.3,1.1,0.1,2.1-0.9c1.2-1.1,0.9-2.2-1.1-3.5c-0.5-0.3-0.6-1.5-0.1-1.9c1.2-1.2,3.2-1.3,3.6-2.9c0.4-1.6-1.7-3.1-1.2-4.7
	c0.4-1.6,3.4-2.1,2.7-3.6c-0.2-0.4-0.5-0.7-0.7-1c-1.2-1.7-0.6-4.2,0.8-5.8c1.4-1.5,4.2-1.2,5.5-2.9c0.5-0.7-0.6-2.2,0.2-2.6
	c2.3-1.2,4.9,1.7,7.3,0.9c1.1-0.3,2-0.9,3.1-1c1.1-0.1,1.8,0.8,2.8,1.3c3.7,2.2,8.2-5,12.2-3.6c2.1,0.7,0.2,4.3,0.2,6.5
	c0.1,2.3,3.7,3.6,3.2,5.8c-0.3,1.2-2.6,0.4-3.6,1.1s-2.1,2.3-1.3,3.3c1.4,1.8,3.6,2.7,5.4,4.1c0.5,0.4,1,0.7,1.5,0.8
	c1.2,0.2,2.3-0.6,3.2-1.3c2.7-2.2,5.6-4.6,9.1-4.9c1.4-0.1,2.7,0.1,4.1,0.3c3,0.5,7.2-1,9.1,1.4c1.4,1.8-0.2,4.6-0.4,6.8
	c-0.1,2.1-1.2,4.2-1,6.3c0.2,1.7,2.7,4.3,3.7,5.7c1.6,2.2,3.7,3.9,6.2,6c1.7,1.4,4,1.9,6,3c5.1,2.8-3.8,4.4-2,7c0.6,0.8,2.1-0.4,3,0
	c0.5,0.2,1.4,1.1,1,2c-0.5,1.3-2.5,1.7-3,3c-1.1,2.8,4.5,0.8,5,3c0.5,1.9,0,4,2,5c6,3,10,10.5,18,11c1,0.1,2-1,3-1c2,0,3.2,1.7,5,3"
	/>
<path fill="none" stroke="#E1E1E1" stroke-miterlimit="10" d="M187.8,366.9c0.5-0.9,0-2,0-3s0.9-1.2,2-2c1.8-1.3,3.1-2.5,5-2
	c2.2,0.5,5.2-0.3,7,1c1.9,1.4,2.7,3.2,4.1,5"/>
<path fill="none" stroke="#E1E1E1" stroke-miterlimit="10" d="M377.8,345.9c-2.9,1.2-6,1.6-10,2c-5.1,0.5-5.4,8.4-8,12
	c-0.8,1.1-5.2,3.4-7,2c-6.1-4.8-11.9-6.5-19-6c-1,0.1-2-1-3-1c-8.4,0-14.6,6.6-21.2,12.1"/>
<path fill="none" stroke="#E1E1E1" stroke-miterlimit="10" d="M371.8,296.9c-2.7,1.7-6.5-0.8-7-3c-0.7-2.9,0-7.1-3-9
	c-7.3-4.6-16.9-11.4-15.6-19.8c0.2-1.2,3.3-2.9,2.8-4c-0.5-1.3-2.4-1.4-2.8-2.7c-0.4-1.3,0.3-2.8-0.3-4.1c-1.3-2.8-4.5-4.5-5.5-7.5
	c-0.2-0.6-0.4-1.2-0.2-1.8c0.4-1.4,2.8-2,2.6-3.5c-0.1-1.1-1.6-1-2.4-1.7c-1.7-1.4,1.7-3.9,3.8-4.7c2.1-0.8,4.7-2.3,4.2-4.5
	c-0.2-1-1.1-1.8-2-2.4c-2.7-2-5.3-4.1-8-6.1c-0.7-0.5-1.4-1-2.2-1.2c-0.8-0.2-1.7,0-2.5,0.1c-2.7,0.1-7.3,0.1-7.6-2.7
	c-0.4-4.2,6.8-5,10.7-6.4c1-0.3,2.1-0.6,3.1-0.2c0.6,0.3,1.1,0.9,1.7,1c1,0.2,1.9-0.7,2.7-1.3c1.7-1.3,4-1.7,6.2-1.8
	c9.8-0.5,19.3,3,29.1,4.3"/>
<path fill="none" stroke="#E1E1E1" stroke-miterlimit="10" d="M319.8,343.1c0-2.2-0.9-3.5-1.2-5.5c-0.4-2.2,0.3-3.1-1.3-4.9
	c-2.1-2.4-7.1-3.6-9.6-1.2c-3.5,3.2-1.6,8.5,2.2,10.1C311.6,342.3,319.9,346,319.8,343.1z"/>
<path fill="none" stroke="#E1E1E1" stroke-miterlimit="10" d="M326.3,348.9c1.8,1.8,2.1,2.8,5.1,2.9c3.5,0.2,6.1-2.3,3.6-5.2
	c-1.5-1.7-4.6-3.2-6.7-3.8c-1.8-0.6-5.2,2.6-3.1,5.1C325.5,348.2,326.1,348.7,326.3,348.9z"/>
<path fill="none" stroke="#E1E1E1" stroke-miterlimit="10" d="M139,309.1c-0.8-1.3-2.9-0.9-4-1.8c-0.8-0.7-1.1-1.7-2.1-2.1
	s-2-0.5-3-0.6c-1.1-0.1-2.3-0.2-3.3,0.4c-1.1,0.6-1.6,1.9-1.8,3.1c-0.2,1.2-0.9,2.6-0.2,3.7c0.6,1,2.2,0.7,3.4,0.6
	c1.3,0,2.6-0.4,3.9-0.4c1.5,0,3,0.4,4.5,0.1C137.9,311.9,139.8,310.4,139,309.1z"/>
<path fill="none" stroke="#E1E1E1" stroke-miterlimit="10" d="M144.7,307.8c1.1-1.2-1.7-3.6-3.1-2.7c-0.8,0.5-0.9,2-0.2,2.6
	C142.3,308.4,144,308.6,144.7,307.8z"/>
<path fill="none" stroke="#E1E1E1" stroke-miterlimit="10" d="M113.3,290c1-0.6,0.3-2.5-0.8-2.8s-2.4,0.6-2.3,1.8
	c0,0.6,0.1,1.4,0.6,1.6C111.6,290.9,112.6,290.4,113.3,290z"/>
<path fill="none" stroke="#E1E1E1" stroke-miterlimit="10" d="M36.4,296.8c-1.2,0.3-2.3,1.2-2.8,2.4c-0.5,1.2-0.5,2.5-0.3,3.7
	c0.1,0.4,0.2,0.7,0.4,1c0.3,0.4,0.8,0.5,1.2,0.7c1.1,0.3,2.3,0.5,3.4,0.5c2.8,0,5.5-1.1,8.2-2.2c1.1-0.4,2.1-0.9,2.9-1.8
	c1.3-1.7,0.6-4.4-1.2-5.6c-1.8-1.2-4.2-1-6.1,0.1c-0.6,0.3-1.2,0.8-1.9,1C39,297,37.7,296.6,36.4,296.8z"/>
<path fill="none" stroke="#E1E1E1" stroke-miterlimit="10" d="M-15,344.8c2.2-4.6,6.4-8.1,11-10.4s9.6-3.7,14.6-5
	c2.1-0.5,12.7-3.1,14.3-3.6c2.6-0.9,6.7-1.1,7.4-3.8c0.4-1.7-3.2-0.6-4.7-1.6c-0.6-0.4,0.2-1.3,0.1-2c-0.2-1.4-2.4-1.5-3.8-1.3
	s-2.8,0.7-4.2,0.7c-2.2,0-4.3-1.4-6.5-1.4c-1.4,0-2.7,0.7-4.2,0.8c-3,0.2-5.8-2-8.9-1.9c-0.7,0-1.4,0.1-1.9-0.3
	c-0.8-0.7-0.3-2.2-1.2-2.9c-0.5-0.4-1.3-0.3-2-0.1c-3.3,0.9-6.5,1.9-9.8,2.8"/>
<path fill="none" stroke="#E1E1E1" stroke-miterlimit="10" d="M-14.2,296.2c1.6-0.5,2.9-1.8,4.2-2.8c1.4-1,3.5-0.1,4.7-1.3
	c0.9-0.9-1-2.8-2.3-2.8c-0.3,0-0.6,0.1-0.8-0.1c-0.4-0.2-0.5-0.7-0.3-1.2c0.2-0.4,0.5-0.7,0.7-1.1c1-1.5,0.2-3.5-0.6-5.1
	c-0.3-0.5-0.5-1.1-1-1.5c-0.9-0.8-2.3-0.6-3.4-0.8c-0.9-0.2-1.7-0.6-2.4-1.2"/>
<path fill="#EAEAEA" stroke="#D6D6D6" stroke-miterlimit="10" d="M166.2,233.2c0.9,1,2.1,1.9,2.7,3.1c0.3,0.6,0.5,1.4,1,1.8
	c0.6,0.5,1.4,0.5,2.1,0.7c1,0.3,1.8,0.9,2.7,1.4c0.9,0.5,1.9,0.9,2.9,0.7c1-0.2,1.8-1.3,1.5-2.2c-0.2-0.6-0.8-0.9-1.3-1.3
	c-1.4-1.4-2.9-1.4-4.3-2.3c-0.9-0.5-0.8-1.5-1.7-2c-0.6-0.3-1.5-0.2-1.9-0.8c-0.1-0.2-0.2-0.4-0.3-0.5c-0.1-0.1-0.3-0.1-0.5-0.1
	c-0.9-0.1-1.7-0.1-2.6-0.1c-0.2,0-0.5,0-0.6,0.1C165.5,231.9,165.8,232.8,166.2,233.2z"/>
<path fill="#EAEAEA" stroke="#D6D6D6" stroke-miterlimit="10" d="M165.1,205.9c1.5-0.7,3.1-0.8,4.7-1c0.2,0,0.4,0,0.6,0
	c0.3,0.1,0.5,0.4,0.7,0.7c0.6,0.8,1.7,1.7,1.4,2.7c-0.2,0.6-1.2,0.1-1.8-0.2c-0.6-0.3-1.2-0.6-1.8-0.5c-0.3,0.1-0.6,0.3-1,0.4
	c-1,0.5-2.1,0.6-3.2,0.3c-0.3-0.1-0.7-0.3-0.9-0.6C163.6,207.1,164.4,206.3,165.1,205.9z"/>
<path fill="#7BBCEB" stroke="#4E9BD7" stroke-miterlimit="10" d="M194.5,165.1c0.1,0.6,0.5,1.5,0.3,2.1c-0.2,0.6-0.9,1.1-1.5,1
	c-0.5-0.1-0.9-0.6-1.2-1.1c-0.7-1.3-1.2-2.8-1.3-4.3c0-0.3-0.1-0.7-0.3-1c-0.2-0.3-0.6-0.3-0.9-0.4c-1.3-0.3-2.9-1-3.9-0.2
	c-0.8,0.6,1.1,1.5,1.5,2.4c0.8,1.8-2.7,3.6-1.7,5.2c0.6,0.9,1.9,0.6,2.9,0.9c1.8,0.5,2.2,2.7,2.6,4.6c0.7,3.5-1,7-4.1,8.8
	c-0.4,0.2-0.7,0.5-1.2,0.6c-1.1,0.2-2.1-0.8-3.1-0.7c-1.4,0.1-2.2,1.7-3.4,2.4c-0.6,0.4-1.4,0.5-2.2,0.7c-1.7,0.4-3.3,1.1-4.8,2
	c-0.4,0.3-0.9,0.6-1.4,0.6c-1.1,0.1-1.8-1.1-2.7-1.6c-1.1-0.7-2.6-0.4-3.8,0.1c-1.2,0.5-2.4,1.2-3.7,1.3c-0.3,0-0.7,0-0.9-0.2
	c-0.2-0.2-0.3-0.4-0.4-0.7c-1-3.6,1.5-4.1,1-4.9c-0.4-0.6-4.6-0.1-6.9,0.4c-0.7,0.2-1.4,0.4-2.1,0.1c-0.7-0.2-1-1.1-0.3-1.5
	c3.1-1.8,6.6-1.6,10.1-2.3c0.7-0.1,1.4-0.6,1.2-1.2c-0.2-0.6-1.4-0.4-2-0.7c-1.3-0.9-1.5-2.7-0.5-3.9c0.6-0.7,1.7,0.4,2.7,0.4
	c0.8,0,1.5-0.4,2.2-0.7c0.8-0.4,1.5-0.8,2.3-1.3c1.3-0.7,3.1-1.2,3.8-2.6c0.5-0.9,0.5-2.1,0.2-3.1c-0.2-0.6-0.5-1.2-0.7-1.8
	s-0.1-1.4,0.4-1.8c0.7-0.6,1.8,0,2.6,0.4c1.7,0.9,3.7,1.1,5.5,0.5c0.5-0.2,1-0.4,1.5-0.2c0.3,0.1,0.5,0.3,0.8,0.5
	c0.8,0.6,2,1.6,2.7,0.9c0.8-0.7-0.9-1.9-0.8-3c0-1.5,0.2-2.9-0.9-4s-2.5-1.7-3.3-3c-0.4-0.6-0.5-1.5,0-2c0.3-0.3,0.6-0.3,1-0.4
	c1.6,0,2.8,1.2,4.1,2.1c2.4,1.5,5.5,1.7,7.5,3.7C192.9,160,194,162.6,194.5,165.1z"/>
<path fill="#EAEAEA" stroke="#D6D6D6" stroke-miterlimit="10" d="M64.8,107.7c-1.3-1-1.7-3.3-0.2-4c0.7-0.3,1-2.8,0.4-3
	c-1.1-0.3-2.2-0.8-3.1-1.5c-1.5-1.3-1-3.6-1.1-5.5c0-1-0.2-2.1,0.1-3.1s1.6-1.8,2.4-1.2c0.2,0.1,0.4,0.3,0.5,0.5
	c1.8,2.2,3.1,5.1,5.7,6.2c0.7,0.3,1.5,0.5,2.2,0.8c0.7,0.4,1.4,1,1.4,1.8c0,0.7-0.5,1.4-0.9,2c-1.7,2.2-2.3,5.5-4.7,6.9
	C66.5,108.2,65.7,108.5,64.8,107.7z"/>
<path fill="#EAEAEA" stroke="#D6D6D6" stroke-miterlimit="10" d="M29.7,94c-0.1-0.1-0.2-0.2-0.3-0.3c-1-0.7-1.9-1.3-3.1-1.6
	c-1.1-0.3-2.4-0.3-3.4,0.2c-0.8,0.4-0.7,1.3-0.4,2.2c0.1,0.3,0.7,1.1,0.9,1.4c0.7,0.8,2.5,0.5,2.9,0.4c0.6-0.1,3.2-0.9,3.5-1.5
	C29.8,94.5,29.9,94.2,29.7,94z"/>
<path fill="#EAEAEA" stroke="#D6D6D6" stroke-miterlimit="10" d="M18.9,88.6c-0.3-0.2-0.7-0.4-1.1-0.5c-0.5-0.2-1-0.5-1.4-0.8
	c-0.7-0.4-1.3-0.8-2-1.2c-1.2-0.7-2.4-1.5-3.5-2.4c-0.7-0.6-1.3-1.3-2.2-1.7c-0.8-0.4-2-0.4-2.5,0.3c-0.3,0.5,0,1.2,0.4,1.6
	c0.4,0.4,1,0.6,1.5,1c1.2,0.8,1.8,2.3,3,3c0.9,0.6,2.1,0.8,2.9,1.5c0.6,0.5,0.9,1.2,1.5,1.6c1.3,1.1,3.6,1.8,4.7,0.6
	C21.2,90.9,20,89.2,18.9,88.6z"/>
<path fill="none" stroke="#D6D6D6" stroke-miterlimit="10" d="M20.3,91.6c0.7,0.4,1.3,0.8,1.9,1.2"/>
<path fill="#EAEAEA" stroke="#D6D6D6" stroke-miterlimit="10" d="M159.9,30.2c0.3-0.7,1-1.2,1.6-1.8c0.6-0.6,1.2-1.6,0.6-2.1
	c-0.6-0.6-1.8-0.3-2.5,0.2c-0.7,0.5-1.2,1.5-2,1.7c-0.3,0.1-0.7,0-1.1,0.1c-0.7,0.2-1,1.3-0.5,1.9c0.2,0.2,0.5,0.3,0.7,0.5
	c0.4,0.3,0.6,0.7,0.9,1.1c0.3,0.4,0.7,0.7,1.2,0.6C159.6,32.1,159.6,31,159.9,30.2z"/>
<path fill="#EAEAEA" stroke="#D6D6D6" stroke-miterlimit="10" d="M159.9,24.4c0.2-0.1,0.4-0.3,0.4-0.5c0-0.1-0.1-0.2-0.1-0.3
	c-0.2-0.3-0.4-0.6-0.5-0.9c-0.2-0.4-0.5-0.9-1-1.1c-0.6-0.2-1.3,0.1-1.7,0.6c-0.4,0.5-0.5,1.2-0.4,1.9c0,0.2,0,0.4,0.1,0.5
	c0.2,0.3,0.6,0.4,1,0.5C158.4,25,159.2,24.8,159.9,24.4z"/>
<path fill="#EAEAEA" stroke="#D6D6D6" stroke-miterlimit="10" d="M168.6,19.9c-0.1,0.1-0.1,0.2-0.1,0.3c0,0.1,0.1,0.2,0.2,0.3
	c0.6,0.7,1.1,1.5,1.9,2c0.5,0.4,1.3,1,1.8,0.6c0.7-0.4,0.1-1.6,0.1-2.4c0-0.2,0-0.4-0.1-0.5c-0.1-0.2-0.3-0.3-0.6-0.4
	c-0.5-0.3-1.1-0.5-1.7-0.6C169.5,19.2,168.9,19.4,168.6,19.9z"/>
<path fill="#EAEAEA" stroke="#D6D6D6" stroke-miterlimit="10" d="M187.6,41.7c-0.6,0.2-0.7,1-0.7,1.7c0,0.8,0,1.6,0.3,2.4
	c0.4,1,0.8,2,1.3,3c0.2,0.4,0.8,0.2,1.1,0s0.5-0.6,0.6-1c0.4-1.6-0.1-3.3-0.7-4.7C189.1,42.2,188.4,41.4,187.6,41.7z"/>
<path fill="#EAEAEA" stroke="#D6D6D6" stroke-miterlimit="10" d="M181.4,59.4c-0.3,0-0.6-0.2-0.9-0.3c-0.8-0.4-2.2-1.1-1.9-2
	c0.2-0.5,1-0.5,1.6-0.7c0.4-0.2,0.9-0.4,1.1-0.8c0.2-0.4,0.1-0.9,0.2-1.4c0.1-0.8,0.7-1.4,1.1-2.1c0.4-0.8,0.1-1.9,0.7-2.7
	c0.3-0.5,1.2,0.1,1.5,0.6c0.3,0.5-0.1,1.3,0.3,1.8c0.2,0.3,0.4,0.5,0.7,0.7c0.7,0.6,2,0.2,2.5,1c0.3,0.5,0.3,1.2,0.2,1.8
	c-0.1,0.6-0.1,1.3-0.4,1.8c-0.3,0.5-1.1,0.1-1.7-0.2s-1.3-0.4-1.6,0c-0.3,0.4-0.2,0.9-0.3,1.3c-0.3,0.8-1.2,1-2,1.1
	C182,59.4,181.7,59.4,181.4,59.4z"/>
<path fill="#EAEAEA" stroke="#D6D6D6" stroke-miterlimit="10" d="M203.6,58.4c-0.1-0.1-0.1-0.2-0.2-0.3c-0.1-0.6-0.3-1.2-0.7-1.7
	c-0.4-0.5-1.1-1-1.6-0.6c-0.4,0.4-0.5,1.1-0.4,1.7c0.1,0.8,0.3,2.1,1.1,2.2c0.1,0,0.3-0.1,0.4,0s0.2,0.3,0.3,0.4
	c0.2,0.1,0.4,0.1,0.6,0.1c0.4-0.1,0.8-0.2,1.1-0.5c0.2-0.3,0.2-0.9-0.2-1C203.9,58.5,203.7,58.5,203.6,58.4z"/>
<path fill="#EAEAEA" stroke="#D6D6D6" stroke-miterlimit="10" d="M227.9,69.5c0.3-1,1.9-0.9,2.6-1.6c0.2-0.2,0.3-0.4,0.5-0.5
	c0.5-0.3,1.2-0.1,1.6,0.4c0.4,0.4,0.6,1,0.8,1.5c0.1,0.3,0.2,0.6,0.1,0.9c-0.3,0.6-1.3,0.5-1.5,1.1c-0.1,0.2-0.1,0.4-0.1,0.5
	c-0.1,0.9-1.4,1.3-2,0.6c-0.1-0.1-0.2-0.3-0.3-0.4C229,71.3,227.6,70.5,227.9,69.5z"/>
<path fill="#EAEAEA" stroke="#D6D6D6" stroke-miterlimit="10" d="M212.2,79.2c0.7-0.3,1.4-0.8,2.1-0.6c0.8,0.2,1,1.4,1.7,1.9
	c0.9,0.7,2.3,0.2,2.8-0.8c0.5-1,0.3-2.2-0.2-3.3c-0.4-0.9-0.9-1.9-0.4-2.7c0.6-0.9,1.9-0.7,2.9-0.6c2.1,0.1,4.7-1.4,4.4-3.6
	c-0.1-0.7-0.5-1.3-0.8-1.8c-1.2-1.8-2.4-5.5-4.5-4.9c-1.7,0.5,0.9,3.7-0.1,5.1c-1,1.4-4.1,1.7-5.2,0.4c-0.7-0.8-0.8-1.9-1.8-2.3
	c-1-0.3-3.1-0.5-2.7-1.5c0.9-2.4,4.8-2.1,7.2-3.1c0.6-0.2,1.2-0.5,1.6-1c0.7-0.9,0.5-2.3,0.4-3.4c-0.1-1.2,0.1-2.7,1.2-3.1
	c1.6-0.7,3.9,1.5,5,0.2c0.5-0.6,0.3-1.6,0-2.3c-0.3-0.9-0.6-1.7-0.9-2.6c-0.2-0.5-0.3-0.9-0.7-1.2c-0.7-0.6-1.8-0.5-2.7-0.2
	c-1.5,0.4-3.3,1.1-3.5,2.7c0,0.3,0,0.7-0.2,1c-0.1,0.1-0.3,0.2-0.4,0.3c-1,0.4-2.1,1.7-3.1,1.3c-1.2-0.5-2-1.9-3.2-1.5
	c-1.2,0.4-2,1.9-1.7,3.1c0.2,1,1,1.7,1.4,2.6c0.4,0.9,0.4,2.2-0.5,2.6c-0.3,0.1-0.6,0.1-1,0.1c-0.9,0-1.8-0.1-2.6,0.2
	c-0.8,0.3-1.5,1.2-1.3,2c0.2,1.1,1.8,2,1.2,2.9c-0.9,1.4-3.3,1.2-4.5,0c-0.3-0.3-0.5-0.7-0.9-0.9c-1.2-0.9-3.3,0.1-4.3-1
	c-0.3-0.4-0.4-0.9-0.7-1.3c-0.8-1.6-3-2.3-4.5-1.3c-0.9,0.6-1.5,1.6-2.2,2.4s-1.7,1.6-2.8,1.5c-0.8-0.1-1.6-0.8-2.4-0.6
	c-0.9,0.2-1.2,1.3-1.9,1.9c-0.9,0.8-2.2,0.7-3.2,0.2s-1.7-1.5-2.3-2.5c-0.2-0.3-0.4-0.6-0.8-0.7c-0.6-0.1-1,0.6-1.2,1.2
	c-0.2,0.6-0.9,1.3-1.4,0.9c-0.3-0.2-0.3-0.6-0.4-0.9c-0.2-1.8-0.3-4,1.1-5.3c0.7-0.7,1.7-0.9,2.4-1.6c1-0.8,1.4-2.1,1.8-3.3
	c0.1-0.2,0.1-0.5,0.1-0.7c-0.2-0.7-1.2-0.6-1.9-1c-0.8-0.4-0.9-1.6-1.3-2.4c-0.6-1.4-2.1-2.1-3.5-2.5c-1.4-0.4-3-0.5-4.4-1.1
	c-0.8-0.3-1.7-0.9-2.5-0.7c-1.1,0.2-1.8,1.3-2.2,2.3c-0.3,1.1-0.5,2.2-1.2,3.1c-0.4,0.5-0.9,0.9-0.9,1.5c-0.1,1.1,1.5,1.8,1.6,2.9
	c0.1,1-1.1,1.7-2,2.1c-3.3,1.6-3.1,5.5-3.7,7.7c-0.3,1.2-2.6,0.4-3.2,1.4c-0.6,1-0.3,2.2-0.6,3.3c-0.7,2.9-4.7,4.5-4.2,7.4
	c0.4,2.1,3,3,5.2,3.1c2.3,0.1,5-0.4,5.8-2.5c0.1-0.4,0.2-0.8,0.6-1c0.5-0.3,1.1,0.1,1.6,0.3c1.7,0.8,3.8-1.3,5.4-0.4
	c1.8,1,0.5,4,0.8,6.1c0,0.3,0.1,0.7,0.4,0.8c0.2,0.1,0.4,0,0.6-0.2c1-0.5,1.9-2,3-1.6c1.2,0.3,0.6,3.4,1.8,3.2c1-0.2,1.5-1,2.5-1.2
	c3.5-0.7,9.5-0.8,10.9-2.9c1.2-1.8-4-1.1-5.7-2.4c-0.6-0.4-0.8-1.4-0.4-2c0.4-0.5,1.8,0.5,2.1-0.2c0.6-1.6,2.2-4.4,4.7-3.1
	c0.6,0.3,0,2.3,0.6,2c2.7-1.4,7-0.5,8.5,3.3c0.5,1.2,0.2,2,0.9,3.2s1.9,2.2,3.1,1.9c2.3-0.5,2.3-4.2,4.4-5.3
	C207.3,77.4,209.9,80.1,212.2,79.2z"/>
<path fill="#EAEAEA" stroke="#D6D6D6" stroke-miterlimit="10" d="M175.8,89.8c0.1-0.4,0.4-0.7,0.6-0.9c0.9-0.9,1.8-1.7,2.9-2.4
	c1.3-0.9,3.5-1.5,4.4-0.2c0.5,0.8-0.3,1.7-1.1,2.2c-0.8,0.4-1.8,0.7-2.2,1.5c-0.6,1.4,0.9,2.9,0.7,4.4c-0.1,0.5-0.4,1.1-0.3,1.6
	c0.2,0.5,0.8,0.8,0.9,1.4c0.1,0.6-0.4,1-0.9,1.4c-0.4,0.4-0.7,1-0.4,1.5c0.3,0.6,1.2,0.8,1.8,0.5c0.6-0.3,1.1-0.8,1.8-1.2
	c1.3-0.7,3-0.1,4.1,1c1,1.1,2.8,2.7,2,3.9c-0.6,1.1-2.3-0.5-3.4-1.1c-0.9-0.5-2.1-0.6-3.4-0.6c-1.2,0.1-1.9,0.9-2.1,2.1
	c-0.1,0.5,0,1-0.2,1.4c-0.5,0.7-1.6,0.6-2.3,0c-0.6-0.6-1-1.4-1.5-2.1c-0.5-0.7-1.5-1.3-2.3-0.9c-0.3,0.2-0.6,0.5-0.9,0.7
	c-0.8,0.6-2.3,0.1-2.3-0.9c0-0.4,0.2-0.7,0.4-1c0.6-1.2-0.4-2.6,0.1-3.8c0.6-1.6,3.5,1.5,5,0.7c0.7-0.3,1-1.1,1.1-1.9
	c0.3-1.7-0.2-3.5-1.3-4.9C176.4,91.6,175.5,90.8,175.8,89.8z"/>
<path fill="none" stroke="#D6D6D6" stroke-miterlimit="10" d="M177.2,56.7c0.5,0,1.1,0.1,1.6,0.1"/>
<path fill="none" stroke="#D6D6D6" stroke-miterlimit="10" d="M225.4,70.3c0.8-0.3,2-0.5,2.9-0.5"/>
<path fill="none" stroke="#D6D6D6" stroke-miterlimit="10" d="M204.4,59.8c0.5,0.1,0.9,0.4,1.3,0.7"/>
<path fill="#FFFFFF" stroke="#D6D6D6" stroke-miterlimit="10" d="M151.4,74.7c-0.1,0-0.2,0.1-0.2,0.2c-0.7,0.5-0.8,1.6-0.3,2.3
	c0.7,0.8,2.3,1.5,3,0.7c0.3-0.4-0.3-1-0.1-1.5c0.2-0.4,0.8-0.1,1.2-0.2c0.5-0.1,0.8-0.6,0.8-1.1c0.1-0.5,0.2-1.1-0.2-1.4
	C154.4,72.7,152.6,74,151.4,74.7z"/>
<path fill="#FFFFFF" stroke="#D6D6D6" stroke-miterlimit="10" d="M171.5,80.8c0.4,0.1,0.8-0.2,1-0.5c0.2-0.3,0.4-0.7,0.4-1.1
	c-0.1-1.1-1.4-1.5-1.9-2.5c-0.4-0.7-1.9-0.5-2.1,0.2c-0.4,1.3,1.2,2.6,2.2,3.6C171.3,80.6,171.4,80.7,171.5,80.8z"/>
<path fill="#FFFFFF" stroke="#D6D6D6" stroke-miterlimit="10" d="M176.4,74.6c0.3-0.5,1-0.4,1.5-0.5c0.5-0.1,1-0.3,1.4-0.6
	c0.4-0.3,1-1.1,0.6-1.4c-0.5-0.4-1.2-0.6-1.8-0.8c-1.1-0.4-2.2,0.4-3.1,1.2c-0.2,0.2-0.4,0.3-0.5,0.5c-0.6,0.9-0.1,2.1-0.2,3.1
	c0,0.3-0.3,0.4-0.5,0.6c-0.7,0.5,0.7,1.5,1.3,2.1c0.2,0.2,0.7,0,1-0.3C176.6,78.1,175.9,75.6,176.4,74.6z"/>
<path fill="#FFFFFF" stroke="#D6D6D6" stroke-miterlimit="10" d="M191.7,67.5c-0.2-0.1-0.4-0.2-0.6-0.2c-0.5,0-0.9,0.7-0.7,1.2
	c0.1,0.5,0.8,0.8,1,1.3c0.2,0.5,0.7,0.8,1.1,0.6c0.5-0.2,0.7-0.8,0.9-1.3c0.1-0.2,0.2-0.5,0.1-0.7c-0.1-0.3-0.4-0.4-0.7-0.5
	C192.4,67.8,192.1,67.7,191.7,67.5z"/>
<path fill="#EAEAEA" stroke="#D6D6D6" stroke-miterlimit="10" d="M169.9,92c0.1-0.5,0.4-1.1,0.2-1.6c-0.2-0.4-0.7-0.4-1.1-0.6
	c-0.2-0.1-0.4-0.3-0.6-0.4c-0.5-0.2-1.1-0.2-1.5,0.2c-0.4,0.4-0.6,1-0.5,1.5c0.1,0.5,0.5,0.9,0.8,1.3c0.3,0.4,0.4,0.9,0.7,1.4
	c0.3,0.4,0.9,0.7,1.3,0.5c0.4-0.2,0.6-0.6,0.6-1.1C169.9,92.9,169.8,92.4,169.9,92z"/>
<path fill="#EAEAEA" stroke="#D6D6D6" stroke-miterlimit="10" d="M190.3,96.8c0.3,0.8,1,1.4,1.8,1.5c0.8,0.2,1.7-0.2,2.3-0.8
	c0.2-0.2,0.3-0.4,0.4-0.6c0.2-0.9-0.5-1.7-1.4-1.9c-0.9-0.2-1.8,0.2-2.5,0.6c-0.2,0.1-0.4,0.2-0.5,0.5
	C190.1,96.3,190.2,96.6,190.3,96.8z"/>
<path fill="#EAEAEA" stroke="#D6D6D6" stroke-miterlimit="10" d="M177,112.7c-0.3,0.1-0.6,0.3-0.8,0.5c-0.6,0.7-0.8,1.7-0.3,2.4
	c0.3,0.4,0.7,0.6,0.9,1c0.3,0.4,0.4,0.9,0.5,1.4c0.2,0.9,0.5,1.8,0.8,2.6c0.2,0.4,0.4,0.8,0.7,1.2c0.4,0.4,0.9,0.9,1.3,0.7
	c0.9-0.5,1.8-1.8,1.4-2.7c-0.4-0.9-1.5-1.2-1.9-2c-0.1-0.2-0.2-0.5-0.3-0.7c-0.3-0.8-0.3-1.6-0.4-2.3c-0.2-0.8-0.5-1.6-1.3-1.9
	C177.5,112.7,177.3,112.6,177,112.7z"/>
<path fill="#EAEAEA" stroke="#D6D6D6" stroke-miterlimit="10" d="M183.6,124.7c-0.3-0.1-0.5-0.3-0.7-0.5c-0.6-0.7-0.3-1.7,0.1-2.5
	c0.2-0.4,0.3-0.8,0.6-1.1c0.3-0.3,0.7-0.5,1.1-0.4c0.4,0.1,0.6,0.5,0.8,0.8c0.8,1.3,2.3,3.5,1,4.4
	C185.6,126.1,184.5,125.1,183.6,124.7z"/>
<path fill="#EAEAEA" stroke="#D6D6D6" stroke-miterlimit="10" d="M190.7,125.5c-1-0.1-2.9,0.4-2.6,1.4c0.2,0.8,1,1.2,1.5,1.8
	c0.5,0.6,1.5,1.3,2,0.7c0.8-1,1.9-2.9,0.9-3.7C192,125.3,191.3,125.6,190.7,125.5z"/>
<path fill="#EAEAEA" stroke="#D6D6D6" stroke-miterlimit="10" d="M181.6,129.4c-0.8,0.5-1.1,2-1.1,2.9c0.1,1.7,0.1,3.4,1.5,4.2
	c0.3,0.1,0.5,0.3,0.7,0.5c0.3,0.4,1,0,1.3-0.4s0.3-0.9,0.3-1.4c0-0.8,0.1-1.7-0.5-2.3c-0.2-0.3-0.3-0.4-0.5-0.7
	c-0.3-0.5,0.1-1.6-0.1-2.2C183,129.3,182.3,129,181.6,129.4z"/>
<path fill="#EAEAEA" stroke="#D6D6D6" stroke-miterlimit="10" d="M200.5,137.1c-0.4,0-0.7,0-1,0.2c-0.5,0.3-0.5,1-0.5,1.6
	c0,0.3,0,0.6,0.2,0.9c0.2,0.3,0.6,0.4,1,0.4c0.7,0.1,1.3,0,2-0.1c0.8-0.1,1.7-0.6,1.7-1.3c0-0.7-0.8-1.2-1.5-1.4
	C201.7,137.3,201.1,137.2,200.5,137.1z"/>
<path fill="#EAEAEA" stroke="#D6D6D6" stroke-miterlimit="10" d="M178.3,147.7c0.7,0.2,1.4,0,2.1,0.3c0.3,0.1,0.6,0.4,0.9,0.6
	c0.3,0.2,0.8,0.2,1,0c0.2-0.1,0.2-0.4,0.3-0.6c0.2-1.2,0.1-2.6-0.4-3.7c-0.3-0.7-1.6-0.4-2.3,0c-0.7,0.3-1.4,0.9-2.1,1.2
	c-0.4,0.2-1,0.5-1,1c0,0.3,0.2,0.5,0.5,0.7C177.6,147.4,177.9,147.6,178.3,147.7z"/>
<path fill="#EAEAEA" stroke="#D6D6D6" stroke-miterlimit="10" d="M259.3,72.3c0.2,0.6,0.7,0.7,1.1,1.1c0.8,0.7,0.2,2.1,0.8,2.9
	c0.6,0.8,1.4,1.5,1.9,2.5c0.2,0.4,0.4,0.8,0.8,1c0.4,0.1,0.8-0.1,1.1-0.2c0.6-0.3,1.1-0.6,1.6-1.1c0.4-0.5,0.7-1.2,0.4-1.8
	c-0.3-0.7-1.2-1-1.9-1.4c-1.4-0.7-2.4-2-2.8-3.5c-0.3-1-0.2-2.2-0.7-3.1c-0.5-1-1.7-1.7-2.6-1.1c-0.8,0.6-0.6,1.9-0.3,2.9
	C258.9,71,259.1,71.7,259.3,72.3z"/>
<path fill="#EAEAEA" stroke="#D6D6D6" stroke-miterlimit="10" d="M260.7,62.5c0.2-0.3,0.4-0.6,0.6-1c0.1-0.3,0.1-0.6,0.2-0.9
	c0.4-1.4,2.2-1.7,3.1-2.8c1-1.3,0.6-3.2,0.1-4.8c-0.1-0.4-0.2-0.8-0.5-1.1c-0.9-1.3-3.4-1.9-4.3-0.6c-0.3,0.4,0,1.1,0.2,1.5
	c0.3,0.6,0.7,1.1,0.9,1.7s-0.3,1.4-1,1.3c-0.2-0.1-0.4-0.2-0.6-0.4c-0.6-0.3-1.4-0.2-1.9,0.3c-0.5,0.5-0.7,1.2-0.6,1.9
	c0,0.6,0.4,1.4,1,1.5c0.2,0.1,0.5,0,0.7,0.1c0.5,0.2,0.5,0.8,0.3,1.3c-0.2,0.4-0.6,0.8-0.9,1.1s-0.6,0.8-0.5,1.3
	c0.1,0.7,1,1,1.7,0.8C259.8,63.6,260.3,63,260.7,62.5z"/>
<path fill="none" stroke="#D6D6D6" stroke-miterlimit="10" d="M374.5,188.8c-5.1,1.6-9.8,4.4-13.6,8.1c-0.7,0.6-1.4,1.4-2.3,1.2
	c-1-0.2-1.5-1.3-2.2-2c-2.1-1.8-5.1,0.3-7.8,0.7c-2.7,0.4-5.3-1-7.9-1.8c-2.2-0.7-4.6-0.8-7-0.8c-8.1,0.1-16.1,2.6-22.8,7.3
	c-0.6,0.4-1.2,0.9-1.6,1.5c-1.1,1.9,0.3,4.3-0.5,6.3c-1.2,2.7-5.3,2.3-7.3,4.5c-2.1,2.3-0.7,6-1.4,9c-0.8,3.7-4.5,6.2-5.6,9.7
	c-0.8,2.3-0.6,5.2-2.5,6.7c-0.9,0.6-2,0.8-2.9,1.4c-1.1,0.7-1.8,1.9-2.4,3.1c-1.3,2.4-2.6,4.8-3.9,7.3c-0.7,1.3-1.4,2.7-1.6,4.1
	c-0.1,1.2,0.1,2.4,0.4,3.6c0.5,2.3,1,4.7,1.4,7c0.2,0.8,0,1.3,0.3,2c0.9,1.7,0.3,3.7,0.4,5.6c0.1,1.6,0.6,3.1,0.7,4.7
	c0.1,1.7-0.3,3.5,0.1,5.2s2.7,3.2,4,3.6"/>
<path fill="#EAEAEA" stroke="#D6D6D6" stroke-miterlimit="10" d="M306.2,280c-0.4-1.4,0.7-2.3,0.1-3.6s-2.2-3.9-1.3-5
	c1-1.4,2.3-0.7,4-0.7c5.6,0.2,10.1-0.1,14.2,0.8c3.8,0.9,9.8,12.9,13.6,18c5,6.8,12.4,11.2,19.7,15.5c1.5,0.9,5.7,1.5,4.4,2.6
	c-3.2,2.7-8.9,5.2-13.5,10.7c-1.2,1.4-2.8,2.7-4.5,3.1c-3.4,0.8-6.9-1.7-9.7-3.7c-4.4-3-6.3-5.4-10.8-8.5c-2.9-2-9.2-3.7-9.7-8.3
	c-0.2-1.8-0.6-3.5-1.3-5.1c-1-2.3-3.4-3.7-4.4-6C305.7,286.8,307.2,283.2,306.2,280z"/>
<path fill="none" stroke="#D6D6D6" stroke-miterlimit="10" d="M236.6,366.7c5.4-4,11.1-7.5,17.1-10.4c3.6-1.8,7.6-3.6,9.5-7.2
	c1-2-0.6-3.5,0.4-5.5c1-2,4.9-5.5,6.2-3.8c0.9,1.3,0.2,3.3,0.8,4.7c0.8,1.9,2.4,1.2,3.2-0.7c0.7-1.8,2.9-5.7,4.9-7
	c1.1-0.7,3.1-0.1,4.2-1c1.2-0.9,2.5-2.2,2.3-3.7c-0.8-5,3-7.2,6-8.8c1.4-0.7,0-2.9,1-4c3.2-3.1,8.6-4.8,8.3-9.4
	c-0.4-7.4,6.1-9.7,11.8-10.7"/>
<path fill="none" stroke="#D6D6D6" stroke-miterlimit="10" d="M55.4,222.7c-0.9,2.2-3.1,3.6-5.3,4.5c-2.2,0.9-4.1,2.1-6.1,3.4
	c-1.5,0.9-3.1,1.6-4.6,2.6c-2.8,1.8-5.9,2.7-8.9,4.1c-4.1,2-7.6,5.2-11.5,7.6c-1.9,1.1-3.9,1.9-6,2.7c-10.9,4.1-22.2,6.9-33.7,8.4"
	/>
<path fill="#EAEAEA" stroke="#D6D6D6" stroke-miterlimit="10" d="M294.9,288.3c1.5,0.8,2.4,1.8,3.9,2.7c0.8,0.5,1.4,1.2,2.1,1.9
	c1.8,1.5,3.4,3.4,5.2,4.9c0.4,0.3,1,1.5,1.2,1.9c0.3,0.7,0,0.9-0.7,1.2c-0.7,0.4-1.9,1.1-2.2,0.8c-0.8-0.8,0.1-2.2-0.5-3.1
	c-0.3-0.5-1.2-0.9-1.6-1.4c-4.1-4.5-13.9-9.7-13.7-10.5c0.1-0.7,3-0.3,4.3,0.4C293.5,287.5,294.3,287.9,294.9,288.3z"/>
<g>
	<g>
		<path fill="none" stroke="#585858" stroke-miterlimit="10" d="M231.6,365.4c0.6-0.3,1.2-0.7,1.7-1"/>
		<path fill="none" stroke="#585858" stroke-miterlimit="10" stroke-dasharray="4.014,1.0035" d="M234.2,363.8
			c1.6-1.1,3-2.3,4.2-3.7c3.4-3.9,6.6-6.4,9.5-10.9c5.7-8.9,9-6.9,13.3-9.6c2.5-1.5,4.4-2.7,6.5-5c2.8-3,4.8-3.6,6.9-3
			c2.5,0.7,7.7-3,9-5.2c1.5-2.7,0.2-4.7,2.5-7.1c5.3-5.6,12.5-9.4,13.2-17.6c0.6-6.4-6.2-9.2-11.8-12.4c-3.1-1.7-7.7-1.1-10.6-2.6
			c-1.8-1-2.1-5.2-3.6-7.2c-2.2-3.1-4.6-4.7-3.4-8.2c0.6-1.9,1.5-2.7,2.6-4.4c0.4-0.6,1.2-1.7,1.5-2.2c2.1-3.8,3.2-8.1,0.7-11.7
			c-0.5-0.7-1.1-1.7-0.5-2.4c0.2-0.3,0.6-0.4,0.9-0.5c2.8-1,5.6-2.5,7.3-5s-1.1-5.7,0.1-8.4c1-2.2,5.8,0.9,7.1-1.1
			c0.8-1.1-1.7-2.6-1.2-3.8c1.3-3.7,7.6-4.3,7.5-8.3c0-4.5-5.2-7.7-5.1-12.2c0-2.8,2.1-5.9,0.4-8.2c-0.4-0.6-1-1-1.3-1.6
			c-0.7-1.6,0.8-3.3,2.5-3.8s3.5-0.3,5.1-0.9c1.2-0.5,2.2-1.3,3.2-2.1c6.8-5,15.7-5.4,24.1-6.3c8.3-1,17.5-3.3,22-10.4
			c0.8-1.2,1.4-2.6,2.3-3.8c1.4-1.8,3.3-3.1,5.2-4.3c1.8-1.2,3.6-2.3,5.7-2.7c6-1.2,11.8,4.3,17.6,4.6"/>
		<path fill="none" stroke="#585858" stroke-miterlimit="10" d="M378.1,171.4c0.7,0,1.3-0.1,2-0.3"/>
	</g>
</g>
<g>
	<g>
		<path fill="none" stroke="#585858" stroke-miterlimit="10" d="M371.6,315.6c-0.6,0.4-1.1,0.8-1.7,1.1"/>
		<path fill="none" stroke="#585858" stroke-miterlimit="10" stroke-dasharray="3.9509,0.9877" d="M369.1,317.3
			c-2.7,2-4.5,4.1-7.1,7.1c-2.3,2.7-8,9.6-10.1,8.4c-3.2-1.9,6.1-13.3,2-14.3c-3.1-0.7-6.3,3.1-8.7,4.3c-2.1,1.1-6.2,2-7.9,0.3
			c-4.2-4.2-7.5-5.4-12.1-8.1c-2.4-1.4-4.6-3.1-7-4.6c-2.4-1.4-4.2-2.5-6.3-4.3c-0.8-0.7-2.4-1.3-2.9-2.3c-0.7-1.3,0.1-3.3-0.3-4.6
			c-0.7-2.1-3.4-4.1-4.8-5.8c-3.4-3.9-6.4-6.5-10.2-10.1c-1.9-1.8-3.5-2.9-4.3-5.6c-0.8-2.6-2.4-4-2.5-6.9c-0.2-8.5-4.9-9.3-8.2-9.9
			"/>
		<path fill="none" stroke="#585858" stroke-miterlimit="10" d="M278,260.9c-0.8-0.1-1.4-0.3-1.9-0.5"/>
	</g>
</g>
<text transform="matrix(1 0 0 1 198.1537 173.6572)"><tspan x="0" y="0" fill="#7BBCEB" font-family="'Verdana-Italic'" font-size="8">Little Otter</tspan><tspan x="0" y="9.6" fill="#7BBCEB" font-family="'Verdana-Italic'" font-size="8">Lake</tspan></text>
<text transform="matrix(1 0 0 1 135.1329 49.3451)"><tspan x="0" y="0" fill="#585858" font-family="'Verdana-Italic'" font-size="8">Otter</tspan><tspan x="2.1" y="9.6" fill="#585858" font-family="'Verdana-Italic'" font-size="8">Lake</tspan></text>
<text transform="matrix(1 0 0 1 216.8321 141.5887)" fill="#585858" font-family="'Verdana-Italic'" font-size="8">× 9055</text>
<text transform="matrix(1 0 0 1 84.1018 45.5159)" fill="#585858" font-family="'Verdana-Italic'" font-size="8">× 9261</text>
<text transform="matrix(1 0 0 1 208.777 13.6222)" fill="#585858" font-family="'Verdana-Italic'" font-size="8">× 9370</text>
<path fill="none" d="M113.6,162.2c4.5,1.1,17.2,3.8,17.9,3.9"/>
<text transform="matrix(0.9751 0.2219 -0.2219 0.9751 113.5318 164.8578)"><tspan x="0" y="0" fill="#7D7D7D" font-family="'Verdana-Italic'" font-size="7">8</tspan><tspan x="4.5" y="0" fill="#7D7D7D" font-family="'Verdana-Italic'" font-size="7" rotate="-0.6">8</tspan><tspan x="8.9" y="-0.1" fill="#7D7D7D" font-family="'Verdana-Italic'" font-size="7" rotate="-0.9">0</tspan><tspan x="13.4" y="-0.1" fill="#7D7D7D" font-family="'Verdana-Italic'" font-size="7" rotate="-1.1">0</tspan></text>
<path fill="none" d="M253.4,197.7c1.9-3.9,6.9-4.9,10.1-7.8c5.1-4.7,4.6-13.5,9.7-18.2"/>
<text transform="matrix(0.6154 -0.7882 0.7882 0.6154 265.3917 191.8051)"><tspan x="0" y="0" fill="#7D7D7D" font-family="'Verdana-Italic'" font-size="7">8</tspan><tspan x="5.1" y="-0.2" fill="#7D7D7D" font-family="'Verdana-Italic'" font-size="7" rotate="-15.1">4</tspan><tspan x="9.6" y="-1.4" fill="#7D7D7D" font-family="'Verdana-Italic'" font-size="7" rotate="-19.1">0</tspan><tspan x="13.5" y="-2.9" fill="#7D7D7D" font-family="'Verdana-Italic'" font-size="7" rotate="-13.6">0</tspan></text>
<path fill="none" d="M279.7,24.3c2.9-4,23.2-9.4,30.8-18.9"/>
<text transform="matrix(0.9052 -0.4251 0.4251 0.9052 291.5626 20.5311)"><tspan x="0" y="0" fill="#7D7D7D" font-family="'Verdana-Italic'" font-size="7">8</tspan><tspan x="4.5" y="0" fill="#7D7D7D" font-family="'Verdana-Italic'" font-size="7" rotate="-1.6">8</tspan><tspan x="9.1" y="-0.1" fill="#7D7D7D" font-family="'Verdana-Italic'" font-size="7" rotate="-4.4">0</tspan><tspan x="13.7" y="-0.5" fill="#7D7D7D" font-family="'Verdana-Italic'" font-size="7" rotate="-8.8">0</tspan></text>
<text transform="matrix(1 0 0 1 293.6 258.8239)"><tspan x="0" y="0" fill="#585858" font-family="'Verdana-Italic'" font-size="8">Wilma</tspan><tspan x="0" y="9.6" fill="#585858" font-family="'Verdana-Italic'" font-size="8">Lake</tspan></text>
<text transform="matrix(1 0 0 1 112.8321 231.0887)" fill="#585858" font-family="'Verdana-Italic'" font-size="8">× 9088</text>
<text transform="matrix(1 0 0 1 38.0821 303.8387)" fill="#585858" font-family="'Verdana-Italic'" font-size="8">× 8673</text>
<text transform="matrix(1 0 0 1 310.2988 338.8887)" fill="#585858" font-family="'Verdana-Italic'" font-size="8">× 8262</text>
<path fill="none" d="M-4,334.4c4.6-2.3,9.6-3.7,14.6-5c2.1-0.5,12.7-3.1,14.3-3.6c2.6-0.9,6.7-1.1,7.4-3.8"/>
<text transform="matrix(0.9657 -0.2597 0.2597 0.9657 6.8086 333.0015)"><tspan x="0" y="0" fill="#7D7D7D" font-family="'Verdana-Italic'" font-size="7">8</tspan><tspan x="4.4" y="0" fill="#7D7D7D" font-family="'Verdana-Italic'" font-size="7" rotate="1.1">2</tspan><tspan x="8.9" y="0.1" fill="#7D7D7D" font-family="'Verdana-Italic'" font-size="7" rotate="1.1">0</tspan><tspan x="13.3" y="0.2" fill="#7D7D7D" font-family="'Verdana-Italic'" font-size="7" rotate="0.8">0</tspan></text>
<path fill="none" d="M37.9,50.3c7.3-6.2,16.9-10.8,20.6-19.7"/>
<text transform="matrix(0.8086 -0.5884 0.5884 0.8086 42.8013 49.6163)"><tspan x="0" y="0" fill="#7D7D7D" font-family="'Verdana-Italic'" font-size="7">9</tspan><tspan x="4.5" y="0" fill="#7D7D7D" font-family="'Verdana-Italic'" font-size="7" rotate="-0.5">2</tspan><tspan x="9.1" y="0" fill="#7D7D7D" font-family="'Verdana-Italic'" font-size="7" rotate="-3.6">0</tspan><tspan x="13.8" y="-0.3" fill="#7D7D7D" font-family="'Verdana-Italic'" font-size="7" rotate="-9.8">0</tspan></text>
<path fill="none" d="M240.8,346.9c9-6,13.5-20.9,16.8-25.8"/>
<text transform="matrix(0.5402 -0.8415 0.8415 0.5402 249.4736 341.7047)"><tspan x="0" y="0" fill="#7D7D7D" font-family="'Verdana-Italic'" font-size="7">8</tspan><tspan x="4.6" y="0" fill="#7D7D7D" font-family="'Verdana-Italic'" font-size="7" rotate="-4.2">0</tspan><tspan x="9.2" y="-0.4" fill="#7D7D7D" font-family="'Verdana-Italic'" font-size="7" rotate="-6.8">0</tspan><tspan x="13.6" y="-0.9" fill="#7D7D7D" font-family="'Verdana-Italic'" font-size="7" rotate="-7.4">0</tspan></text>
<g>
	<g>
		<polyline fill="none" stroke="#7D7D7D" stroke-miterlimit="10" points="85.2,341.6 85.2,348.7 275.4,348.7 275.4,341.7 		"/>
		<line fill="none" stroke="#7D7D7D" stroke-miterlimit="10" x1="180.5" y1="341.4" x2="180.5" y2="348.7"/>
		<line fill="none" stroke="#7D7D7D" stroke-miterlimit="10" x1="161.2" y1="349.2" x2="161.2" y2="343.7"/>
		<line fill="none" stroke="#7D7D7D" stroke-miterlimit="10" x1="142.4" y1="349.2" x2="142.4" y2="343.7"/>
		<line fill="none" stroke="#7D7D7D" stroke-miterlimit="10" x1="123.3" y1="349.2" x2="123.3" y2="343.5"/>
		<line fill="none" stroke="#7D7D7D" stroke-miterlimit="10" x1="104.6" y1="349.2" x2="104.6" y2="343.7"/>
	</g>
	<text transform="matrix(1 0 0 1 83.7838 339.1469)" fill="#7D7D7D" font-family="'Verdana'" font-size="8">0</text>
	<text transform="matrix(1 0 0 1 174.2949 339.1469)" fill="#7D7D7D" font-family="'Verdana'" font-size="8">0.5</text>
	<text transform="matrix(1 0 0 1 258.3418 339.1469)" fill="#7D7D7D" font-family="'Verdana'" font-size="8">1 mi</text>
</g>
</svg>
