<?xml version="1.0" encoding="utf-8"?>
<!-- Generator: Adobe Illustrator 17.1.0, SVG Export Plug-In . SVG Version: 6.00 Build 0)  -->
<!DOCTYPE svg PUBLIC "-//W3C//DTD SVG 1.1//EN" "http://www.w3.org/Graphics/SVG/1.1/DTD/svg11.dtd">
<svg version="1.1" id="Layer_1" xmlns="http://www.w3.org/2000/svg" xmlns:xlink="http://www.w3.org/1999/xlink" x="0px" y="0px"
	 viewBox="0 0 360 360" enable-background="new 0 0 360 360" xml:space="preserve">
<path fill="none" stroke="#E1E1E1" stroke-miterlimit="10" d="M353.6,366.4c3.5-3.3,7.1-6.6,11.4-8.7c2.2-1.1,5.4-0.8,7-2.7
	c0.4-0.4,0.2-1.2,0.3-1.7"/>
<path fill="none" stroke="#E1E1E1" stroke-miterlimit="10" d="M370.2,333c-3.3,0.2-6.4,2.7-7.4,5.9c-0.3,0.9-0.4,1.8-0.9,2.6
	c-0.7,1-2,1.5-3.1,2c-4.4,1.7-8.6,3.9-12.6,6.5c-0.9,0.6-1.8,1.2-2.8,1.6c-1,0.4-2.1,0.6-3.2,0.8c-3.7,0.6-7.4,1.3-11.1,1.9
	c-3.2,0.6-6.5,1.1-9.2,2.9c-1.3,0.8-2.5,1.9-4,2.2c-0.7,0.1-1.4,0-2.1,0.3c-1.4,0.5-2,2.1-1.7,3.6s1.2,2.6,2.3,3.6
	c0.5,0.5,0.9,1.7,0.2,1.7"/>
<path fill="none" stroke="#E1E1E1" stroke-miterlimit="10" d="M370.3,284.1c-5.3,2.1-10.5,4.4-15.6,6.8c-1.3,0.6-2.7,1.3-3.7,2.4
	c-1.5,1.8,0.6,4.2,0.5,6.5c-0.2,3.4-2.6,6.9-1.6,10.1c0.3,1,0.7,1.9,0.8,2.9c0.3,2.4,0.6,5.3-0.5,7.5c-1.6,3.3-2.9,8.9-4.8,11.2
	c-4.3,5-11.8,6.7-18.9,8.8c-1.8,0.5-3.7,0.4-5.5,1c-2.9,0.9-5.3,2.9-7.9,4.5c-3.3,2-6.9,3.6-9.9,5.9s-1.8,8.1-5.2,9.8
	c-2.5,1.2-5.2-1.6-7.9-1.2c-1.9,0.2-3.7,0.5-5.6,0.7c-2.4,0.3-4.8,0.6-7.2,0.9c-5.7,0.7-11.9,1.6-16,5.6"/>
<path fill="none" stroke="#E1E1E1" stroke-miterlimit="10" d="M370,271.5c-14-0.4-24.3,13.5-37.9,16.5c-4.8,1.1-10.4,1.1-13.5,4.8
	c-0.8,1-1.4,2.2-1.4,3.5c0,1.1,0.4,2.2,0.9,3.2c0.9,2.2,1.9,4.5,3.5,6.2c0.7,0.8,1.6,1.5,2,2.5c0.8,1.8-0.2,4,0.5,5.8
	c0.4,1.1,1.3,2,1.5,3.1c0.2,1-0.2,1.9-0.6,2.8c-1.2,2.8-2.5,5.7-5,7.3c-1.1,0.7-2.4,1.1-3.7,1.6c-4.6,1.8-8.6,4.9-12.5,8
	c-1.1,0.9-2.2,1.8-3.3,2.6c-3.3,2.6-5.7,8.4-9.8,7.7c-1.7-0.3-3.1-0.6-4.6,0.2c-3.9,2-8.3,2.7-12.7,3.4c-8.5,1.4-17.1,2.7-25.6,4.1
	c-6.8,1.1-13.7,2.2-20.5,1c-3.1-0.5-6.7-2.2-6.9-5.3c0-0.7,0.1-1.4-0.3-2c-0.4-0.6-1.2-0.6-1.6,0c-0.4,0.8-2.2,1.7-2.9,2.3
	c-2.5,2-4.9,4.2-7.6,5.8c-0.4,0.2-0.7,0.4-1,0.7c-0.6,0.5-0.9,1.3-1.6,1.7c-0.6,0.4-1.3,0.5-2,0.6c-2.7,0.7-4.6,2.9-6.3,5.1
	c-0.7,0.9-1.4,1.7-2.1,2.6"/>
<path fill="none" stroke="#E1E1E1" stroke-miterlimit="10" d="M180.8,368c1.2,1.1,2.7-1.2,3.7-2.5c1-1.3,0.3-3,1-4.5
	c0.9-2,4.2-3.7,5.8-5.2c5.4-5.1,10.8-10.2,16.2-15.2c3.1-3,6.4-6,10.3-7.7c3.9-1.8,10.4-3.5,12.4,0.3c1.7,3.2-2.9,8.7,0,10.8
	c5.1,3.8,12.2-3.6,18.3-5.5c1.3-0.4,2.7-0.8,3.7-1.8c1-1,0.2-2.4,0.6-3.7c1.1-3.9,7.6-3,11.4-4.5c0.9-0.4,1.9-0.7,2.9-0.6
	c0.8,0.1,1.5,0.5,2.3,0.7c3,0.8,6.2-1.7,9.2-1c2.7,0.6,5.6,3.6,7.6,1.8c0.6-0.5,0.9-1.4,1.3-2c2.1-3.1,7.5-1.9,10-4.7
	c1.1-1.3,1.4-3.1,1.6-4.8c0.8-6.5,1.6-13,2.4-19.4c0.4-3.5-1.6-6.6-1.7-10.1c-0.4-9.6,17.1-7.5,26.6-8.9c7.4-1.1,14.7-3.4,21.3-6.9
	c5.5-2.9,10.6-6.5,15.6-10.2c4-2.9,8-5.7,12-8.6"/>
<path fill="none" stroke="#E1E1E1" stroke-miterlimit="10" d="M159.6,365.9c8.6-1.6,16.3-7,20.8-14.5c2.5-4.2,4-9.1,7-13
	c1.7-2.1,3.8-3.9,5.9-5.7c6-5,12.1-10.1,19.6-12.3c2.9-0.9,6.3-1.6,7.7-4.3c0.8-1.5,0.7-3.4,1.4-4.9c1-2.2,3.8-3.5,6.1-2.7
	s3.9,3.3,3.5,5.8c-0.2,1.2-0.9,2.4-0.9,3.6s1.2,2.7,2.3,2.1c0.6-0.3,0.9-0.9,1.2-1.4c2.5-3.8,8.1-2.2,12.6-2.6
	c8.7-0.8,20.9-1.9,20.6-6.1c-0.5-6.7,4.3-11.1,5.7-16c0.7-2.5-6.9-3-5.8-5.3c1.3-2.7,10.8,1.7,9.5-0.9c-1.6-3.1-1.6-5.1,4.1-6.4
	c12.4-2.8,25.4-11.6,41.1-14.3c1.2-0.2,2.3-0.6,3.3-1.2c1.3-0.8,2.2-1.9,3.3-2.9c7.3-6.5,20.2-2.7,27.1-9.6c1.3-1.2,2.2-2.8,3.7-3.7
	c3.3-2,7.5-0.3,11,1.4"/>
<path fill="none" stroke="#E1E1E1" stroke-miterlimit="10" d="M178.6,264.2c-0.6-1.5-0.5-3.6-1.8-4.5c-1-0.7-2.4,0.5-3.5,1.1
	c-1.6,0.8-3.4,1.8-4.1,3.5c-0.3,0.6-0.4,1.3-0.5,1.9c-0.4,2.7-0.9,5.3-1.9,7.8c-0.5,1.1-1.1,2.2-1.2,3.4c-0.2,1.4-0.5,2.8-0.2,4.2
	c0.3,1.4,2.8,0.4,4.1-0.2c2-0.9,4.1-1.8,5.7-3.3c1.5-1.4,2.6-3.3,3.6-5.1c0.7-1.3,1.4-2.5,2.1-3.8c0.5-1,1-2.4,0.1-3.1
	c-0.4-0.3-1-0.3-1.5-0.6C179,265.3,178.8,264.7,178.6,264.2z"/>
<path fill="none" stroke="#E1E1E1" stroke-miterlimit="10" d="M158.3,269.6c-1.5,2.2-2.2,5.4-1.3,7.9c0.8,2.5,3.1,4.5,4.7,6.7
	c0.6,0.8,1.3,1.7,2.2,2.3c1.3,0.8,3,0.7,4.5,0.4c4-0.8,7.6-3.2,10-6.5c1.8-2.5,2.9-5.4,5-7.7c1-1.2,2.3-2.1,3.4-3.2
	c3.4-3.3,5.4-7.9,7.2-12.3c0.5-1.2,1-2.7,0.1-3.7c-1.1-1.2-3.1-0.4-4.7-0.8c-2.1-0.6-2.9-3.3-4.7-4.6c-1.4-1.1-3.5-1.3-5.3-0.9
	c-1.8,0.4-3.4,1.4-4.9,2.4c-0.8,0.5-1.7,1-2.2,1.9c-0.3,0.5-0.4,1-0.8,1.5c-0.6,0.8-1.5,1.3-2.4,1.8c-3.6,2.1-6.2,5.6-8.6,9
	c-0.5,0.7-1,1.3-1.1,2.1c-0.1,0.6,0,1.2-0.1,1.8C159.2,268.4,158.7,269,158.3,269.6z"/>
<path fill="none" stroke="#E1E1E1" stroke-miterlimit="10" d="M188,276.4c2.9-2.9,5.7-5.8,7.9-9.2s3.6-7.5,3.2-11.5
	c-0.1-1.2-0.4-2.4-0.3-3.6c0.1-1.6,0.7-3.3-0.2-4.6c-0.9-1.2-2.8-1.3-3.9-2.5c-0.4-0.5-0.6-1.1-0.9-1.6c-2.2-4.3-8-5.5-12.6-4
	c-4.6,1.5-8.1,5-11.5,8.4c-6,6-12.1,12.2-16.2,19.6c-1.1,2-2.1,4.3-1.6,6.5c0.3,1.6,1.3,2.9,2.3,4.2c2.3,3,4.5,6.1,6.8,9.1
	c0.6,0.8,1.2,1.5,1.9,2.1c2.5,1.8,6,0.8,8.9-0.4c2.9-1.3,5.8-2.8,8.3-4.8c1.4-1.1,2.7-2.5,4-3.8C185.4,279,186.7,277.7,188,276.4z"
	/>
<path fill="none" stroke="#E1E1E1" stroke-miterlimit="10" d="M169.8,291.7c1.9-0.5,3.6-1.6,5.4-2.3c3-1.2,6.6-1.3,8.8-3.6
	c1.5-1.6,2-4.1,3.7-5.5c0.8-0.6,1.8-1,2.7-1.3c8.1-3.3,13-11.4,17.4-19c0.9-1.5,0.4-3.3,1.1-4.9c1.1-2.4,3.4-3.4,5-5.5
	c1.1-1.5,3.2-2,4.7-3c3.1-1.9,6.6-4.7,6.1-8.4c-0.4-2.5-2.6-4.3-4.7-5.7c-1.9-1.3-3.7-2.6-5.6-4c-3-2.1-6.3-4.3-9.9-4
	c-1.8,0.2-3.5,1-5.3,1.3c-1.4,0.2-2.8,0.1-4.3,0.2c-4.6,0.3-8.8,2.2-13,4.1c-1.6,0.7-3.2,1.5-4.5,2.6c-1.2,1-2.1,2.2-3,3.4
	c-6,7.5-13.3,14-18.4,22.2c-2.5,3.9-4.4,8.2-6.3,12.5c-0.3,0.7-0.6,1.4-0.4,2.1c0.2,0.5,0.6,0.9,0.8,1.4c0.2,0.5,0.2,1.1,0.4,1.7
	c0.2,0.6,0.5,1.1,0.9,1.6c1.1,1.5,2.2,3.1,3.2,4.6c1.8,2.6,3.7,5.2,6.2,7.2S166.7,292.4,169.8,291.7z"/>
<path fill="none" stroke="#E1E1E1" stroke-miterlimit="10" d="M279.2,234.5c2.1-0.6,5.7-2.2,4.6-4c-1.3-2-11.1-1.8-15.9-3.8
	c-2.8-1.2-5.7-2.1-8.5-0.8c-2.5,1.1-6.4-2.3-9.3-3.5c-4.7-2-9.5-3.7-14.3-5.5c-2.1-0.8-4.2-1.6-5.9-3.2c-1.4-1.3-2.3-3.1-3.7-4.5
	c-3.3-3.4-8.6-3.9-13.1-2.7c-4.5,1.2-8.5,3.8-12.7,6c-10.2,5.3-22,8.6-29.6,17.2c-2,2.2-3.6,4.7-5.1,7.2c-4,6.5-7.9,13.1-11.8,19.6
	c-0.8,1.4-1.6,2.8-2.4,4.1c-2.9,4.9-7.7,11.2-4.7,16.1c3.4,5.3,8.5,9.3,13.2,13.5c4.7,4.2,11.8,6.9,17.3,3.9c1.1-0.6,2.1-1.4,3.2-2
	c1.4-0.8,2.9-1.3,4.4-1.8c11.2-3.6,22.9-8.1,29.8-17.6c1.1-1.5,2.1-3.2,3.5-4.4c0.7-0.5,1.5-1,1.8-1.8c0.5-0.9,0.2-2,0.4-3.1
	c0.4-3.8,5.4-5.4,7-8.8c0.4-0.8,0.6-1.6,1.1-2.3c0.5-0.7,1.3-1,2.1-1.4c5.7-2.8,11.8-5.6,18.2-5.1c3.4,0.2,6.2,0.3,9.2-1.3
	c1.9-1,4-2,5.5-3.5C267.6,237,273.8,236.3,279.2,234.5z"/>
<path fill="none" stroke="#E1E1E1" stroke-miterlimit="10" d="M220.9,279.1c-0.5-0.9-2-0.6-2.8,0.1c-1.3,1.2-1.9,3-2.4,4.7
	c-0.2,0.8-1.2,1.6-0.7,2.3c0.5,0.8,1.7-0.8,2.6-1c0.9-0.2,1.4-1,2-1.7c1-1.2,1.8-2.2,1.6-3.7C221,279.6,221,279.3,220.9,279.1z"/>
<path fill="none" stroke="#E1E1E1" stroke-miterlimit="10" d="M369.6,178.3c-2.2-0.9-4.3-1.8-6.5-2.7c-0.5-0.2-1.1-0.4-1.5-0.1
	c-0.4,0.3-0.4,0.9-0.4,1.4c-0.1,2.1-1.5,3.9-2.8,5.5c-0.4,0.5-0.8,1.1-1.3,1.6c-0.9,1.1-1.8,2.2-2.9,3.1c-1.9,1.4-4.5,1.8-6.8,1
	c-1.1-0.4-2.2-1-3.3-0.7c-0.9,0.2-1.7,1-2.5,1.3c-2.2,1-4.7-0.4-6.6-1.7c-5.1-3.5-10.6-7.1-16.8-7.2c-2.1,0-4.3,0.4-6.4,0.9
	c-6.1,1.3-12.2,2.7-18.2,4.2c-1.5,0.4-3.1,0.7-4.4,0c-1.3-0.7-2-2.3-2.1-3.8c-0.1-1.5,0.1-3,0.1-4.6c-0.2-2.6-1.4-5.1-2.3-7.6
	c-0.9-2.5-1.5-5.3-0.3-7.7c1.4-3,7.4-6.8,4.5-8.5c-2.8-1.7-19.2-0.4-28.8,0.9c-4,0.5-10.5-1-14.5-0.7c-13.3,1.1-22.8-1.8-34.8-5.5
	c-2.3-0.7-4.6-1.5-7-1.8c-3.7-0.4-7.4,0.3-11,1c-5.1,1-10.2,3.7-15.4,3c-3.4-0.5-6.8-1.4-9.8,0.2c-2.1,1.1-3.8,3-5.4,4.8
	c-2.5,2.9-5.7,5.3-7.5,8.7c-5.9,11.6-11.7,6.6-10.9,11.8c0.4,2.9,2.8-1,19.4,9.2c3.9,2.4,9,0.9,13.5,1.6c6.5,1.1,17.4,5.6,16.1,10.3
	c-0.6,2.1-11.9,4.3-16.8,8.4c-6.3,5.3-12.7,10.6-17.8,17c-6.7,8.2-11.7,18.4-20.8,23.8c-2.1,1.2-4.4,2.2-6.8,2.3
	c-4.4,0.3-8.4-2.3-12.3-4.4c-4.8-2.6-9.2-5.5-13.2-9.3c-4.9-4.7-5-13.1-2.2-19.3c1.6-3.6,4.3-6.6,6.9-9.6
	c6.8-7.7,23.9-13.4,20.5-23.1c-1.5-4.3-9-1.5-13.4-2.3c-1.5-0.3-3.1-0.6-4.2-1.7s0.7-2.4,0.4-3.9c-0.6-2.4-3.4-2.7-5.5-3.9
	c-6.7-3.6-13.4,7.2-19.3,12c-3.4,2.7-6.7,5.4-9.8,8.4c-5.3,5-7.4,13.2-13.6,17c-3.7,2.2-7.3,4.1-9.7,7.6c-3.4,4.9-6.8,9.8-10.2,14.7
	c-3.9,5.6-9.5,11.9-16.1,10.2c-3.6-0.9-7.8-0.9-11.4-2c-0.8-0.2-1.6-0.5-2.3-0.7c-1.7-0.5-3.5-1.1-5.2-1.6c-0.9-0.3-1.8-0.6-2.4-1.2
	c-1.8-1.9,0.1-5-0.1-7.7c-0.2-3-3.1-5-5.1-7.3C-0.9,216-2.2,210.9-2,206c0.1-2.8,0.6-5.5,0.6-8.3c0-3-0.6-5.9-0.7-8.8
	c-0.2-5.4,1-10.7,1.5-16.1c0.4-5.4,0-11.2-3.2-15.5c-1.2-1.6-2.7-3-3.4-4.9c-0.4-1.2-0.5-2.5-1.2-3.5c-0.6-0.9-1.6-1.3-2.5-1.9
	c-0.9-0.5-1.8-1.3-2-2.3c-0.2-1,0.7-2.3,1.7-2"/>
<path fill="none" stroke="#E1E1E1" stroke-miterlimit="10" d="M239.1,176.5c-1.5-0.2-3.1-0.5-4.6-0.7c-0.4-0.1-0.9-0.1-1.3,0.1
	c-0.3,0.2-0.4,0.5-0.5,0.9c-0.6,2-0.6,4.2,0,6.2c0.1,0.2,0.1,0.4,0.3,0.5c0.2,0.1,0.4,0.1,0.6,0.1c1.1-0.1,2.3,0,3.3-0.4
	c1-0.4,0.5-2.1,1.2-2.9c0.5-0.6,1.3-0.7,2-0.9s1.6-0.9,1.3-1.6c-0.2-0.5-0.6-0.8-1-1C240,176.7,239.6,176.6,239.1,176.5z"/>
<path fill="none" stroke="#E1E1E1" stroke-miterlimit="10" d="M150.8,207.7c-2.4-2.6-5.5-5.5-8.9-4.5c-1.8,0.5-3.4,1-5.3,1.4
	c-4.5,0.9-4.8,7.8-6.2,12.1c-1,3-1.9,5.9-2.9,8.9c-0.3,0.8-0.5,1.7-0.3,2.6c0.3,1,1.3,1.7,2,2.5c2.2,2.4,2.7,6.8,5.9,7.5
	c2.1,0.4,4-1.2,5.5-2.8c4.5-4.8,8.1-10.3,11.8-15.7c0.9-1.4,1.9-2.9,2-4.5C154.8,212.3,152.7,209.8,150.8,207.7z"/>
<path fill="none" stroke="#E1E1E1" stroke-miterlimit="10" d="M123.3,204.3c-4.7,4-9,8.7-9.8,13.9c-0.2,1,1.5,1.1,1.4,2.1
	c-0.4,4.7-2.4,9.9-1.7,11.8c0.3,0.9,1.5,1.1,1.7,2c0.1,0.9,0,1.9,0.4,2.8c0.5,1.2,1.7,1.8,2.8,2.6c3.1,2.1,5.5,5.4,9.1,6.3
	c3.3,0.8,6.7-0.7,9.6-2.5c3.8-2.5,7.2-5.7,9.8-9.3c2.9-4,4.9-8.5,8.1-12.3c2.8-3.2,6.4-5.8,8.6-9.4c0.7-1.2,1.3-2.6,0.9-3.9
	c-0.3-1-1-1.8-1.2-2.8c-0.1-0.7,0-1.4,0-2.2c-0.2-2.7-3.1-4.3-5.6-5.3c-1.7-0.7-3.4-1.4-5.1-2.1c-3-1.3-6-2.5-9.2-3
	c-0.5-0.1-1-0.1-1.5,0c-1,0.3-1.4,1.4-2.2,2.1c-1.4,1.4-3.6,1.5-5.6,2c-2,0.5-2.4,2.4-3.7,4C128.6,203,125.3,202.6,123.3,204.3z"/>
<path fill="none" stroke="#E1E1E1" stroke-miterlimit="10" d="M-11.7,314.4c1.1-1.5,3.5-0.9,5.3-1.5c1.7-0.5,2.8-2.1,4.1-3.4
	c3.1-3.2,7.5-4.9,12-5.4c4.4-0.6,9.8,3,13.4,0.3c1.9-1.4,1.8-4.4,3.8-5.6c1.3-0.8,3.1-1.5,3.4-3c0.4-1.6-1.1-3.2-2.8-3.6
	s-3.4-0.2-5-0.4c-3.7-0.4-7.2-3-10.8-2.3c-1.3,0.3-2.5,1-3.7,1.5c-5.3,2.5-11.6,2.8-17.2,0.9c-1.1-0.4-2.2-0.9-3.3-1.3"/>
<path fill="none" stroke="#E1E1E1" stroke-miterlimit="10" d="M-12.8,281.3c1-0.5,2.1-0.3,3.1-0.2c4.2,0.5,8.4,0,12.4-1.4
	c1.1-0.4,2.1-0.9,3.3-0.9c2.9-0.2,5.8,2,8.6,1.3c1-0.3,1.9-0.9,2.9-1.1c2.4-0.5,4.9,0.1,7.1,1.2c2.8,1.4,5,4,8.1,3.7
	c1.7-0.2,3.3-0.8,5.1-1c2.4-0.2,4.7,1.2,7.1,1.3c3.4,0.2,7.1,0.3,9.6,3.2c2.4,2.8,0.9,5.7-2.4,6.3c-2.4,0.4-4.6,1.6-7.1,2.1
	c-3.5,0.7-6.8,1.9-10,3.5c-1.1,0.6-2.2,1.2-3,2.2c-0.5,0.6-0.8,1.4-1.1,2c-0.4,0.8-1,1.4-1.7,2c-4.5,4.3-11.2,5.4-15.9,9.5
	c-1.3,1.1-2.5,2.5-4,3.2c-0.8,0.4-1.7,0.5-2.6,0.8c-4.4,1.4-7.4,5.3-10.1,9c-1.2,1.6-2.4,3.7-1.5,5.5c0.4,0.8,1.2,1.4,1.3,2.3
	c0.1,0.7-0.3,1.4-0.8,2c-2.3,3.1-5.9,5.3-9.8,5.9"/>
<path fill="none" stroke="#E1E1E1" stroke-miterlimit="10" d="M-12.6,354c2.5-2.7,6.7-3.4,9.2-6.1c1.3-1.4,2-3.3,3.3-4.7
	c3-3.3,9-4,10.3-8.3c0.3-1.1,0.3-2.3,0.6-3.4c0.5-2.2,2.1-4,3.7-5.7c2-2.1,3.9-4.3,5.9-6.4c0.6-0.6,1.1-1.2,1.7-1.8
	c4.3-4.6,8.6-9.2,12.8-13.8c1.5-1.7,3.1-3.4,5.2-4.3c5.9-2.6,13.7,1.7,18.9-2.1c1.1-0.8,2.1-2.2,1.7-3.6c-0.2-0.8-0.8-1.5-1.4-2.1
	c-2.7-2.7-5.3-5.3-8-8c-2.6-2.6-5.2-5.2-8.4-6.8c-3.8-1.9-8.1-2.3-12.3-2.6c-8.7-0.8-17.4-1.5-26.1-2.3c-1.5-0.1-3-0.3-4.4,0.1
	c-1.4,0.3-2.7,1-4,1.6c-1.8,0.7-3.7,1.1-5.7,1.1c-1.6,0-3.6,0-4.3,1.4"/>
<path fill="none" stroke="#E1E1E1" stroke-miterlimit="10" d="M-11.9,272.2c6.2-1.5,12.6-2.2,19-2.3c2.7,0,5.5,0.1,8.2,0.2
	c5.4,0.2,10.8,0.4,16.1,0.7c6.7,0.3,13.4,0.5,20-0.9c3.4-0.7,6.7-1.9,10.1-2.2c3.4-0.3,7.2,0.3,9.7,2.7c0.8,0.7,1.4,1.6,2.1,2.3
	c2.7,2.7,6.8,3.6,10.6,4.3c4.2,0.8,8.4,1.6,12.6,2.4c0.6,0.1,1.2,0.2,1.7,0.5c2.4,1.4,1,5.6,3,7.4c1,0.9,3.1,0.5,3.7,1.7
	c1.5,3.1-0.8,7-3,9.6c-1.3,1.5-3.9-0.1-5.9,0.2c-0.9,0.1-2.1,0.6-2.1,1.5c0,0.4,0.2,0.8,0.5,1.1c2.9,3.5,9.5,3.5,10.7,7.9
	c0.1,0.4,0.2,0.8,0,1.1c-0.3,0.8-1.2,1.1-2,1.2c-2.3,0.3-4.7-0.1-6.8-1.2c-1.2-0.6-2.5-1.1-3.4-2.1c-1.4-1.4-3.6-2.7-5.5-2.9
	c-2-0.2-4,0.2-6,0.4c-3.6,0.3-8.3,1.4-10.8-1.3c-0.3-0.4-0.1-1-0.4-1.4c-1.9-2.4-6.1-1.6-9-0.5c-1.2,0.4-2.3,1.1-3.5,1.3
	c-1,0.2-2.1,0.1-3.2,0c-2.6-0.3-5.2-0.7-7.7-1.2c-1.1-0.2-2.2-0.5-3.3-0.4c-1.2,0.1-2.3,0.5-3.3,1C28.6,309,21,322.2,22.2,335.1
	c0.1,1.2,0,2.9-1.2,3.1c-0.8,0.2-1.5-0.6-2.3-0.9c-1.6-0.8-3.7-0.1-5.1,1.1c-1.4,1.2-2.4,2.8-3.8,4c-1.8,1.5-4,2.4-5.9,3.7
	c-3,2.1-5.2,5.1-7.6,7.8s-5.6,5.2-9.2,5.4"/>
<path fill="none" stroke="#E1E1E1" stroke-miterlimit="10" d="M-14.2,363.2c5.1,0.4,10.3-1.8,13.5-5.7c1.3-1.5,2.3-3.3,3.5-4.9
	c3.5-4.5,10.4-3.8,14.6-7.6c2.8-2.6,5-6.5,8.6-5.3c1.1,0.4,2.5,1,3.2,0.1c0.3-0.3,0.4-0.8,0.4-1.3c0.2-1.5,0.4-3,0.6-4.6
	c0.1-0.9,0.2-1.8-0.2-2.5c-0.4-0.7-1.2-1.1-1.9-1.6c-2.6-2.2-1.4-6.4,0-9.5c1.2-2.8,2.7-5.8,5.5-6.8c1.4-0.5,2.9-0.5,4.4-0.5
	c3.7,0.1,7.5,0.1,11.2,0.2c2.7,0.1,5.7,0.2,7.9,1.8c0.8,0.6,1.5,1.4,2.4,1.9c1,0.5,2.1,0.6,3.2,0.7c7.5,0.4,15,0.4,22.5-0.2
	c0.3,0,0.6,0,0.9,0.1c0.8,0.4,0.6,1.7,0,2.3c-0.6,0.7-1.6,1-2.1,1.7c-1.1,1.5,0.1,3.8,1.8,4.6c1.7,0.7,3.7,0.4,5.6,0.1
	c6-1.1,12.4-1.8,17.9,0.7c2.4,1.1,4.8,1.9,7.5,2.3c4.7,0.8,10.4,2.1,15.2,1.8c3.1-0.2,5.4-1.9,7.6-4.1c1.4-1.4,3.3,2.4,5.2,2
	c0.7-0.1,1.3-0.7,1.8-1.3c1.9-2,3.8-4,5.7-6c0.7-0.7,1.4-1.6,1.6-2.6c0.1-0.8-0.2-1.5-0.5-2.3c-1.3-3.3-2.6-6.6-3.9-9.9
	c-0.4-1-0.8-2-1.6-2.8c-0.6-0.6-1.4-1-2.1-1.5c-2.2-1.8-1.8-5.3-3.2-7.8c-7.9-14.3-14.4-8.9-19.8-16.5c-0.8-1.1-0.4-3.1-1.5-3.9
	c-3.9-2.8-9.8,2.9-13.9,0.3c-3-1.9-4.4-5.4-6.3-8.4c-4.4-6.8-12.1-11.4-20.2-11.9c-3.1-0.2-6.1,0.1-9.2,0.5
	c-4.8,0.5-9.6,1.1-14.4,1.6c-1.8,0.2-3.6,0.4-5.1,1.3c-1.1,0.6-2,1.4-3.1,2c-1.8,0.9-3.9,0.7-6,0.7c-10.8-0.3-21.5,2.5-31.9,5.3
	c-2.8,0.8-5.7,1.5-8.5,2.3c-6.1,1.6-12.1,3.3-18.1,5.3"/>
<path fill="none" stroke="#E1E1E1" stroke-miterlimit="10" d="M-8.1,365.5c4.8-1.2,9.1-4.1,11.9-8c1.5-2,2.7-4.4,4.8-5.8
	c1.5-1,3.4-1.3,5.2-1.6c4.8-0.8,10.4-1.8,12.5-6.2c0.2-0.4,0.4-0.9,0.8-1.2c1.8-1.4,4.8,3.3,6.2,1.5c2.2-2.8,2-6.9,3.5-10.1
	c0.4-0.9,1-1.9,1.9-2.3c0.7-0.3,1.5-0.3,2.3-0.3c6.5,0.3,12.8,1.7,19.1,3.2c7.1,1.7,14.3,3.3,21.4,5c1.3,0.3,2.5,0.6,3.8,0.6
	c1.1,0,2.2-0.2,3.3-0.4c6.5-1.1,13.1-1,19.6-0.1c7.6,1.1,15,3.3,22.6,4.7c1.1,0.2,2.2,0.4,3.3,0.1c2.4-0.5,3.1-3.5,5-4.9
	c2.8-2,5.7-3.6,7.9-6.2c3.7-4.3,7.4-8.7,9.6-14c0.3-0.7,0.5-1.3,0.9-2c0.4-0.7,0.8-1.2,1.3-1.8c2-2.6,6.2-4.9,5.5-8.1
	c-0.4-1.9-4-2-4.3-4c-0.2-1.5,0.9-3.1-0.2-4.2c-1-1.1-2.6-1.4-3.6-2.4c-0.9-0.8-1.3-2-1.8-3.1c-1.2-2.8-3.2-5.2-5-7.6
	c-3.5-4.3-7-8.7-11.3-12.2c-2-1.6-4.2-3-5.6-5.2c-1.4-2.1,0-4.5,0.1-7.1c0.1-1.6-2.9-1.6-4.3-1c-0.8,0.3-1.4,0.9-2.2,1.2
	c-1.4,0.6-3,0.2-4.5-0.2c-3.3-0.9-6.7-1.8-9.6-3.8c-0.8-0.6-1.5-1.2-2.4-1.5c-0.6-0.2-1.3-0.3-1.9-0.6c-2.8-1.2-3.6-5.4-6.5-6.1
	c-1.1-0.3-2.2,0-3.3-0.2c-2.4-0.5-3.7-3.3-5.9-4.2c-0.9-0.4-1.9-0.4-2.9-0.4c-5.1-0.1-10.3-0.3-15.2,1c-10.5,2.8-12.8-0.4-14.3,1
	c-1.4,1.2-3.4,2.3-5.3,2.3c-1.8,0-6.2-1.6-7.2-0.1c-0.2,0.2-6,0.1-6.2,0.3c-3.8,4.4-3.9,2-9.1,4.6c-4.6,2.3-9.7,3.5-14.7,4.7
	c-2.8,0.7-5.6,1.3-8.4,2c-3,0.7-6.2-0.3-9.2,0.4c-4.4,1-7.2,5.4-11.6,6.4"/>
<path fill="none" stroke="#E1E1E1" stroke-miterlimit="10" d="M-4.8,366.3c3.1-2.7,6.3-5.5,9.4-8.2c2.4-2.1,4.9-4.2,7.8-5.4
	c3.4-1.4,7.2-1.4,10.9-1.8c3.1-0.3,6.1-1,9.1-1.9c0.8-0.2,1.6-0.5,2.3-1c2.5-1.7,2.7-5.4,4.8-7.5c0.2-0.2,0.5-0.5,0.8-0.6
	c0.4-0.1,0.9,0,1.3,0.2c4.4,1.5,8.7,2.9,13.1,4.4c1.7,0.6,3.4,1.1,4.8,2.2c0.9,0.7,1.7,1.5,2.6,2.1c1.3,0.8,2.9,1.1,4.4,1.4
	c3.7,0.7,7.4,1.3,11.2,2c1.5,0.3,2.9,0.5,4.4,0.5c5.5-0.2,10.3-4.6,15.7-4.1c2.2,0.2,4.3,1.2,6.4,2.1c6.1,2.5,12.6,3.7,19.1,4.8
	c2.4,0.4,4.6-2.4,6.8-3.4c3.1-1.5,6-3.5,8.7-5.6c3-2.4,5.8-5.1,8.7-7.7c1.3-1.2,2.7-2.5,4-3.7c1-0.9,2-1.9,2.5-3.1
	c0.5-1.2,0.5-2.6,1-3.8c0.7-1.4,2.1-2.2,3.1-3.3c3.8-3.9,3.7-11.2,8.5-13.7c4.4-2.3,11.6,1.6,14.5-2.5c0.7-1-1.2-1.9-2.4-2.3
	c-1.9-0.6-3.6-1.7-4.8-3.2c-0.5-0.6-0.9-1.2-1.5-1.7c-0.7-0.5-1.6-0.7-2.5-0.9c-4.4-1.1-8.5-3.3-11.7-6.5
	c-4.6-4.5-7.4-10.7-12.4-14.8c-0.6-0.5-1.3-1-1.8-1.7c-1.2-1.8-0.5-4.3-1.2-6.3c-0.6-1.8-2.1-3.1-3.3-4.5c-1.2-1.4-2.8-3.8-1.5-5.2
	c1.2-1.3,3.1-1.7,4.7-2.5c3.2-1.7,4.1-6.8,6.5-9.4c1-1.1,1.8-2.1,2.9-3c1.1-0.9,2.4-3.5,1.4-4.6c-1.9-2.2-4.1,4-6.9,4.7
	c-0.8,0.2-1.6,0.1-2.3,0.4c-1,0.3-1.8,1.2-2.6,2c-3.5,3.6-7.9,6.3-12.7,7.7c-0.8,0.2-1.7,0.5-2.6,0.3c-1-0.1-1.8-0.7-2.7-1.2
	c-2.8-1.9-5.7-3.7-8.5-5.6c-0.5-0.3-1-0.7-1.4-1.1c-0.4-0.5-0.7-1.1-1.1-1.6c-0.6-0.7-1.3-1.2-2.2-1.7c-4.5-2.4-10.2-2.3-14.4-5.1
	c-1.6-1.1-3.5-2.7-5.3-2c-0.8,0.3-1.4,1-2.3,1.2c-1,0.2-2-0.4-3.1-0.6c-1.3-0.2-2.5,0.5-3.7,0.9c-4.7,1.5-11.8,1.4-14.3-2.9
	c-0.5-1,1-2.5,0.3-3.3c-3-3.7-8.6,5.2-13.2,4.4c-0.6-0.1-1.1-0.3-1.7-0.3c-0.7,0-1.3,0.2-1.9,0.5c-1.3,0.5-2.7,1.1-4,1.6
	c-2.3,0.9-4.8,2-6.1,4.1c-0.4,0.7-0.7,1.5-1.2,2.1c-0.7,0.9-1.7,1.5-2.6,2.1c-2.3,1.4-4.3,3.3-6.9,4.1c-0.4,0.1-3.8,0.9-4.2,1.1
	c-4.2,2.2-7.7,2.4-13.6,2.5c-2.8,0.1-5.6,0.1-8.4,0c-1,0-2,0-3,0.2c-0.9,0.3-1.8,0.8-2.6,1.3c-3.3,2-6.6,4.1-10,6.1"/>
<path fill="none" stroke="#E1E1E1" stroke-miterlimit="10" d="M-1.2,367.1c1.7-1.9,3.5-3.8,5.2-5.7c1.8-2,4-4.1,6.7-4.3
	c1.3-0.1,2.7,0.3,4,0.1c1.1-0.2,2-0.9,3-1.5c4-2.4,8.9-3.2,13.4-2c1.1,0.3,2.3,0.7,3.3,0.2c1.4-0.6,1.8-2.5,3.1-3.2
	c1.2-0.7,2.7-0.2,4.1,0.2c3.1,1.1,6.2,2.2,9.4,3.3c1.9,0.7,3.8,1.3,5.5,2.3c0.6,0.4,1.3,0.8,1.9,1c0.7,0.3,1.5,0.5,2.3,0.6
	c2.6,0.5,5.3,1.1,7.9,1.6c2.2,0.4,4.4,0.9,6.6,1c5.6,0.4,11.3-0.8,16.6,0.9c0.6,0.2,1.3,0.5,1.9,0.5c0.7,0,1.4-0.3,2.2-0.5
	c2.7-0.7,5.6,0.5,8.4,0.4c1.8,0,3.5-0.5,5.2-0.8c4.1-0.8,8.3-0.8,12.5-0.8c4.6,0,8.2-2,12.1-4.3c3.9-2.3,8.5-0.5,12.8-1.8
	c0.6-0.2,0.5-1.1,0.8-1.7c2.3-3.9,8.3-1.8,12.2-4c2.2-1.3,3.5-3.8,6-3.9c1-0.1,2,0,3-0.3c0.9-0.4,1.6-1.2,2.2-2
	c1.2-1.5,2.5-3,3.7-4.5c0.5-0.6,1-1.2,1.4-1.9c0.4-0.7,0.6-1.4,0.9-2.1c1.4-3.2,4-5.8,6.5-8.1c5.4-5,11.1-9.7,17.1-13.9
	c2.7-1.9,5.6-3.9,7-6.9c0.5-1.2,0.8-2.7,0-3.7c-1-1.3-3-1.2-4.6-0.6c-1.5,0.7-2.9,1.7-4.6,1.9c-2.9,0.3-5.2-2.2-7.8-3.5
	c-4.6-2.3-10.1-0.8-15.3-0.8c-7.1-0.1-14.1-3.4-18.6-8.8c-0.7-0.9-1.5-1.2-2.3-1.9c-1-0.9-1.4-1.4-2.3-2.3c-2.2-2.2-4.1-4.4-6.3-7
	c-0.3-0.4-1.5-1.5-1.5-2c0.1-0.5-0.6-1.7-0.3-2.2c0.6-1,0.2-1.7,0-2.8c-0.4-3.3-1.8-6.5-0.6-9.6c1.1-2.7,4.1-4.2,5.4-6.8
	c4.6-9,12-16.9,16.1-26.2c0.5-1.1,1-2.3,1.8-3.1c0.5-0.5,1.1-0.9,1.4-1.5c0.5-0.9,0.1-2,0.2-3c0.6-4.8,14.8-6.1,12.3-11.5
	c-0.9-1.9-3.9-0.1-5.7,0.9c-8.8,4.7-14.7,13.2-20.6,21.9c-5.7,8.3-13.7,15.7-23.4,18.4c-0.9,0.2-1.8,0.4-2.7,0.3
	c-0.8-0.2-1.6-0.6-2.3-1.1c-5.4-3.4-10.7-6.8-16.1-10.1c-1-0.6-2-1.3-3.1-1.6c-1.4-0.4-2.9-0.3-4.3-0.5c-4.8-0.7-8.8-4.5-13.6-4.6
	c-2.2-0.1-4.3,0.7-6.5,0.9c-2.2,0.2-4.7-0.2-5.9-2c-1.3-1.9-0.8-4.5,0.5-6.4c1.3-1.9,3.2-3.2,4.9-4.7c1.4-1.2,2.7-2.6,3.8-4.1
	c1.9-2.6,3.3-5.6,4-8.7c0.1-0.6,0.3-1.2,0.6-1.7c0.5-0.6,1.2-0.9,1.9-1.1c2-0.7,4.6-0.4,6-2c1.1-1.3,1.3-3.2,1.4-4.8
	c0.1-2.9-4.4-3.9-7.2-3.2s-5.1,2.7-7.2,4.6c-4.5,4.1-9.2,8.2-12.3,13.4c-1.3,2.2-2.4,4.5-3.9,6.6c-2.1,2.8-5.1,4.8-8,6.8
	c-2.4,1.7-4.9,3.3-7.3,5c-0.7,0.5-1.5,1-2.4,0.9c-0.9-0.1-1.6-0.9-2.5-0.9c-0.7,0-1.2,0.4-1.7,0.9c-5.3,4.7-7.9,12.8-14.6,15.2
	c-4.9,1.8-17.4,2.1-18.2,2.3c-1,0.3-2.2,0.7-2.9-0.1c-0.3-0.4-0.3-1-0.6-1.5c-0.5-1-1.8-1.1-2.9-1.1c-2.8,0-5.9,0.1-7.8,2.2
	c-1,1.1-1.4,2.5-2.4,3.6c-0.8,0.9-1.8,1.4-2.8,2.1c-2.4,1.6-4.4,3.6-6,6"/>
<path fill="none" stroke="#E1E1E1" stroke-miterlimit="10" d="M-10.4,254.9c3.5-2.8,6.9-5.7,10.4-8.5c0.4-0.3,0.9-0.7,1-1.3
	c0.2-0.9-0.6-1.8-1.2-2.5c-3.6-4,0.3-10.9-2.6-15.5c-1.9-3.1-5.7-4.8-5.6-8.4c0.1-1.3,0.4-2.5,0.4-3.8c0.1-2.6-1.3-5.2-3.5-6.6"/>
<path fill="none" stroke="#E1E1E1" stroke-miterlimit="10" d="M-12.5,228.4c-0.3-0.2,0.2-0.5,0.6-0.4c1.5,0.5,2.3,2.1,2.5,3.7
	s0,3.1,0.2,4.6c0.5,2.8,2.7,5.4,2.5,8.2c-0.1,1.3-0.7,2.4-1.4,3.5c-1.6,2.5-3.9,4.8-6.8,5.5"/>
<path fill="none" stroke="#E1E1E1" stroke-miterlimit="10" d="M0.7,366.8c1.9-0.4,2.5-2.7,3.8-4.2c1.4-1.7,3.6-2.3,5.7-2.8
	c4-1,8-2,12-3c2.4-0.6,4.9-1.2,7.2-0.4c1,0.3,1.9,0.9,2.8,1.3c3.3,1.5,7,1.6,10.6,2c5.9,0.7,11.7,2.7,16.9,5.7"/>
<path fill="none" stroke="#E1E1E1" stroke-miterlimit="10" d="M2,366.5c0.2,0,0.5,0.1,0.7,0c2-1.7,3.3-3.7,5.8-4.5
	c2.1-0.7,4.4-1.3,6.6-1.2c1.8,0.1,3.6,0.8,5.4,1c1.9,0.2,3.8,0,5.6,0.5c1.8,0.4,3.7,1.8,3.8,3.7"/>
<path fill="none" stroke="#E1E1E1" stroke-miterlimit="10" d="M-15.5,70.1c4.2-0.5,8-3.1,10-6.8c1.2-2.3,1.7-5,2.7-7.4
	c1.1-2.9,2.8-5.6,4.9-7.8c0.9-1,2-1.9,2.6-3c0.7-1.3,0.9-2.8,1.4-4.1c1.2-2.8,4.2-4.5,5.8-7.1c1.8-2.7,2.5-6.8,5.6-7.6
	c1.3-0.3,2.8,0,4-0.5c1.3-0.6,1.9-2.2,1.9-3.6c0-1.4-0.4-2.8-0.6-4.2C21.8,11,25.5,4.2,29.4-1.6c1.2-1.8,2.5-3.7,3.2-5.8
	c1-3.2,0.4-6.6-0.2-9.9"/>
<path fill="none" stroke="#E1E1E1" stroke-miterlimit="10" d="M-12.4,82.7c2.5-1.1,5.2-2.6,5.7-5.2c0.1-0.4,0.1-0.9,0.3-1.2
	c0.4-0.6,1.1-0.7,1.8-0.8c2.4-0.5,4.7-1.7,6.5-3.3c0.9-0.8,1.7-1.7,2.1-2.9c0.2-0.6,0.4-1.3,0.7-2c0.8-1.7,2.8-2.4,4.2-3.7
	c3.3-3,2.7-8.5,5.3-12.1c0.6-0.9,1.4-1.6,2.4-2.1c0.7-0.4,1.6-0.6,2.3-1c1-0.5,1.8-1.3,2.6-2.1c2.6-2.5,5-5.2,7.3-8
	c2.4-2.9,4.6-6,6.8-9.1c1-1.4,2-2.9,2.2-4.6c0.1-1.3-0.2-2.6-0.4-3.9c-0.9-6.4,3.8-13.1,10.2-14.5c1.5-0.3,3.3-0.5,4.3-1.7
	c0.8-1,0.8-2.5,1.4-3.7c0.9-1.9,3.1-2.7,4.9-3.9c4.6-3.2,6.3-9.8,11.5-11.9"/>
<path fill="none" stroke="#E1E1E1" stroke-miterlimit="10" d="M-12.6,94.6c2.6-0.9,3.9-3.7,5.4-6.1c1.5-2.3,4.2-2.3,6.7-3.6
	c3.2-1.6,2.9-6.7,5.7-8.9c1.9-1.5,4.2-2.6,5.8-4.5c2.2-2.5,2.9-6.3,5.8-8c0.7-0.4,1.5-0.7,2-1.3c1-1.1,0.6-2.8,1.1-4.2
	c0.5-1.2,1.5-2,2.3-2.9c0.9-1.2,1.4-2.6,2.1-3.9c2.2-4.1,6.6-6.5,10.4-9.2c1.3-0.9,2.6-2,3.4-3.4c1.4-2.6,1-6,2.9-8.3
	c1.1-1.3,2.8-1.9,4-3.1c3.2-2.9,3.3-8.7,7.1-10.7c0.9-0.5,1.9-0.7,2.7-1.2c0.6-0.4,1.1-1,1.6-1.5c1.7-2,3.3-3.9,5-5.9
	c0.4-0.5,0.9-1.1,1.2-1.7C62.8,5.7,62.8,5,63,4.3c0.6-3.1,2.9-5.4,5-7.7c2.9-3.1,5.5-6.5,7.8-10.1"/>
<path fill="none" stroke="#E1E1E1" stroke-miterlimit="10" d="M82.1-15.2c0.2,4.1-2.4,7.8-4.9,11.1c-2.4,3.2-4.8,6.4-7.2,9.6
	c-1,1.4-2.1,2.8-3.3,4c-1.4,1.5-3,2.8-4.4,4.2c-5.7,5.6-9,13.3-15,18.7c-1.4,1.3-3.1,2.6-3.6,4.4c-0.3,0.9-0.3,2-0.6,2.9
	c-0.5,1.3-1.7,2.2-2.7,3.1c-5.2,4.3-9.6,9.5-13.7,14.9c-3.5,4.6-6.8,9.3-10,14c-2.3,3.3-4.6,6.6-6.5,10.2c-0.7,1.3-1.3,2.6-2.3,3.7
	c-0.9,1-2.1,1.8-3.2,2.6c-7,4.7-14,9.4-21.1,14"/>
<path fill="none" stroke="#E1E1E1" stroke-miterlimit="10" d="M92.9-15.1c-4.1,6-8.3,12-12.4,18c-1.1,1.6-2.2,3.2-3.4,4.7
	c-1.7,2.1-3.6,4.1-5.4,6c-2.2,2.2-4.3,4.5-6.5,6.7c-2.7,2.8-5.6,6-5.6,9.9c0,0.6,0.1,1.2-0.1,1.7c-0.3,0.8-1.3,1.2-2.1,1.6
	c-5.8,2.5-10.7,7.2-13.4,12.9c-2.6,5.4-4.1,12.4-9.6,14.8c-1.4,0.6-2.9,0.8-4.1,1.7c-1.7,1.3-2.3,3.6-3.5,5.4
	c-1.1,1.5-2.7,2.5-4.1,3.7c-3.6,2.8-6.3,6.7-7.5,11.1c-0.6,2.1-0.9,4.5-2.6,5.8c-1.4,1.1-3.4,1.2-5.1,2c-3.2,1.5-4.6,5.4-7.4,7.6
	c-2.4,1.8-5.5,2.3-8.5,3c-2.9,0.7-6,2.2-7.2,5"/>
<path fill="none" stroke="#E1E1E1" stroke-miterlimit="10" d="M98.4-15.4C93.2-7.5,88.1,0.3,82.9,8.2c-1.6,2.4-3.2,4.9-4.8,7.3
	c-0.6,0.9-1.2,1.9-1.8,2.8c-2.8,4.3-5.7,8.6-8.2,13.1c-1.3,2.3-2.6,4.6-4.5,6.4c-1.9,1.8-4.5,3.1-7.1,2.6c-0.4-0.1-0.7-0.2-1.1-0.2
	c-0.8,0-1.4,0.5-2.1,0.9c-2.9,2.1-6,4.4-7.1,7.9c-0.6,1.8-0.5,3.8-0.7,5.7c-0.3,4-0.3,9.2-3.6,11.4c-3.4,2.3-5.3,5.4-8.6,7.8
	c-5,3.5-12.2,3.7-14,9.5c-0.5,1.7-0.7,3.6-1.8,5c-2.8,3.7-9.4,2.2-12.1,5.9c-0.7,0.9-1,2-1.6,3C3,98.5,1.7,99.3,0.5,100
	c-4.5,2.5-9.2,4.6-14.1,6.2"/>
<path fill="none" stroke="#E1E1E1" stroke-miterlimit="10" d="M101.3-13.5c-0.3,2.1-0.7,4.3-1.9,6.1c-2.2,3-6.7,4.1-8,7.7
	c-0.5,1.3-0.4,2.8-0.6,4.2c-0.7,5.6-5.6,10.1-5.7,15.8c0,2.4,0.8,4.9,0.1,7.2c-0.9,2.9-3.8,4.6-6.3,6.3c-3,2-5.7,4.4-8.1,7.1
	c-4.1,4.7-9.4,16.4-13.8,12c-1.5-1.5-2-3.9-4.1-3.5s-3.5,2.5-4.1,4.6c-0.9,3.1-0.3,6.4-0.7,9.6c-0.7,5.4-4,10.1-7.2,14.5
	c-0.6,0.9-1.3,1.8-2.3,2.2c-1.4,0.6-3-0.1-4.5-0.3c-3.8-0.7-7.9,1.1-10,4.3c-2.1,3.2-2.8,8.1-6.6,8.8c-0.8,0.2-1.7,0.1-2.5,0
	c-3.1,0-7.3,0.5-8.6,3.4c-0.6,1.3,1,3.3-0.1,4.1c-1.4,1.1-2.2,2.9-4,3.1c-0.6,0.1-1.2-0.3-1.8-0.3c-0.7-0.1-1.4,0.3-2.1,0.7
	c-4.1,2.3-8.2,4.7-12.3,7"/>
<path fill="none" stroke="#E1E1E1" stroke-miterlimit="10" d="M105.3-15.7c-0.5,4.2-2.3,8.2-5,11.4c-0.8,1-1.8,2-2.1,3.2
	c-0.4,1.5,0.1,3,0.2,4.5c0.1,3.6-2.5,6.7-4.2,9.8c-2.8,5.3-3.2,11.7-1.1,17.3c0.6,1.5,1.2,3.3,0.2,4.5c-0.4,0.5-1.1,0.8-1.7,1
	c-6.9,2.9-13.1,7.4-17.9,13.2c-1.9,2.2-3.5,4.6-5.7,6.5c-2.2,1.9-5,3.3-7.9,3c-2.3-0.3-3.9-2.8-6.2-3.1c-4.8-0.5-4.7,7.9-4.9,12.7
	c-0.3,6.3-1.3,12.6-3.1,18.7c-0.2,0.8-0.5,1.7-1.1,2.4c-1.8,2.3-5.4,1.5-8,0.3s-5.7-2.7-8.2-1.2c-1.7,1-2.5,3.1-3.9,4.4
	c-1.2,1.1-2.8,1.6-4.3,2.1c-3.5,1.1-8.4,0.3-10.4,3.4c-1.3,2.1-1.7,4.4-3.7,5.9c-6.4,4.9-13.6,8.7-21.4,11"/>
<path fill="none" stroke="#E1E1E1" stroke-miterlimit="10" d="M108.3-14.4c-0.6,7-0.5,14.1,0.2,21.1c0.1,0.5,0.1,1.1-0.1,1.5
	c-0.2,0.4-0.5,0.7-0.8,1c-4.6,4.4-10.8,8.9-10.1,15.2c0.3,3.2,2.4,5.9,3.8,8.8c1.4,2.9,1.9,6.8-0.4,9c-2.4,2.2-6.2,1.4-9.2,2.8
	c-2.8,1.3-4.4,4.2-6.2,6.8C79.8,60,64.3,70.3,60.3,66.8c-2.7-2.3-5.2-5.5-7.6-2.9c-1.5,1.7-1.5,4.2-1.3,6.5
	c0.3,5.3,0.6,10.6,0.9,15.9c0.2,3.7,0.3,7.9-2.2,10.7c-3.1,3.5-8.6,3-13.1,1.8c-1.2-0.3-2.5-0.8-3.1-1.8c-0.3-0.5-0.4-1.2-0.8-1.6
	c-0.6-0.6-1.5-0.5-2.3-0.3c-3.7,1-6.8,4.2-10.7,4.3c-1.2,0-2.5-0.2-3.7,0c-2.8,0.7-4,3.9-6,5.9c-1.8,1.8-4.4,2.6-6.7,3.8
	c-6.9,3.8-11.7,12.1-19.5,12.1"/>
<path fill="none" stroke="#E1E1E1" stroke-miterlimit="10" d="M110.3-14.6c0.5,6.2,2.1,12.3,4.8,17.9c1,2.1,2.1,4.1,2.6,6.3
	c0.5,2.2,0.1,4.8-1.5,6.4c-1.6,1.6-3.7-0.1-6-0.2c-4.2-0.2-5.2,7.9-2.8,11.4c1.4,2,4.1,3,4.9,5.3c0.4,1.1,0.2,2.3-0.1,3.5
	c-1.3,6.1-4.6,12.6-10.5,14.5c-2.5,0.8-5.3,0.7-7.6,2.1c-4.1,2.6-3.8,8.7-6.2,13c-2.4,4.2-7.3,5.9-11.8,7.4
	c-12,4.1-15.4-2.8-18.1-0.9c-1.6,1.2-0.8,12.6-1.2,18.8c-0.1,1.4-0.2,2.9-0.9,4.2c-0.7,1.4-2,2.3-3.2,3.2
	c-4.6,3.2-10.6,6.3-15.6,3.6c-0.8-0.4-1.4-0.9-2.2-1.3c-3.6-1.4-7.3,1.8-11.2,2.1c-2.2,0.2-5-0.4-6.4,1.4c-0.5,0.6-0.7,1.4-1.1,2
	c-0.7,1-1.9,1.5-3.1,1.9c-4.7,1.8-11,1.4-14.1,5.3c-2.7,3.4-5.6,7.4-9.7,5.9"/>
<path fill="none" stroke="#E1E1E1" stroke-miterlimit="10" d="M115.6-14.1c0.9,4.4,1.9,8.8,2.8,13.2c0.3,1.2,0.5,2.5,1.2,3.5
	c0.7,1,1.6,1.8,2.5,2.7c3.6,3.4,5.9,9.2,2.9,13.1c-2,2.7-6.2,4-6.7,7.4c-0.2,1.5,0.4,2.9,0.9,4.3c2.9,9.2-2,20.2-10.9,24.1
	c-3.7,1.6-8,2.3-10.6,5.3c-3.7,4.3-2.5,12.8-7.9,14.4c-4.5,1.4-9.2,1.5-13.8,2.2c-2.4,0.4-5,0.8-7.1,2.1c-4.4,2.7-5.8,8.3-8.3,12.7
	c-4.4,7.9-13.4,13.5-22.4,13.3c-2.7-0.1-5.3-1-8-0.8s-5.4,1.2-6.9,3.5c-0.6,0.9-0.9,2-1.6,2.8c-0.8,0.9-2,1.4-3.2,1.8
	c-4.1,1.4-8.2,2.8-12.3,4.1c-0.9,0.3-1.9,0.6-2.5,1.4c-0.5,0.7-0.6,1.7-0.9,2.5c-0.9,2.2-3.6,3-6,3.4c-4.3,0.7-8.6,0.9-12.9,0.7"/>
<path fill="none" stroke="#E1E1E1" stroke-miterlimit="10" d="M121.2-15c1.2,8.9,4.2,17.6,8.8,25.3c1.6,2.7,3.5,5.9,2.5,8.9
	c-0.9,2.5-3.7,4.1-4,6.7c-0.1,1.1,0.2,2.1,0.4,3.2c1.7,7.2-0.4,14.7-2.5,21.8c-0.7,2.4-1.6,5-3.7,6.3c-1.1,0.7-2.5,0.9-3.8,1.1
	c-6.5,1-15.1-1.8-19.6,3.1c-4.6,4.9-1.4,15.8-7.6,18.4c-5.2,2.2-16.2-4.8-20.9,0.3c-8.2,8.9-14,20.9-25.9,24.8
	c-2.6,0.8-5.1,1.7-7.7,1.4c-1.8-0.2-3.8-0.8-5.6-0.5c-1.5,0.3-2.6,1.6-3.8,2.5c-6.2,5-12.5,10-18.7,14.9c-2,1.6-4.1,3.2-6.6,3.5
	c-1.2,0.1-2.6,0.1-3.2,1.1c-0.3,0.4-0.3,0.9-0.3,1.4c-0.6,7.5-1,15.9,4,21.5c4.8,5.3,5,13.6,4.8,20.7c-0.3,7.1-1.6,14.4,0.2,21.3
	c0.4,1.6,1,3.3,0.9,4.9c-0.2,2.8-2.4,5-3.5,7.5c-1.1,2.6,0.1,7.1,2.8,6.4c4.9-1.3,9.9,0.6,13.9,3.9c3.9,3.2,8.1,7.1,13.2,6.9
	c6.8-0.2,10.9-7.3,14.4-13.1c5.9-9.7,14-18.1,23.3-24.5c4.2-2.8,6.3-7,9.1-11.2c6.1-9.3,20.4-8.9,30.6-13.4c4.5-2,9.3-4,14.2-3.8
	c5.4,0.2,13.9,3.1,15.3-2.1c1.3-5.1,2.9-10.2,7.1-13.4c4.1-3.2,9.2-5.1,14.1-6.8c5-1.8,9.9-3.6,14.9-5.4c4.5-1.6,9.1-3.3,13.9-3.5
	c3.8-0.1,7.6,1.6,11.3,2.5c17.3,3.9,34,9.8,51.5,12.7c17.5,2.8,36.3,1.4,52.8-5c4.1-1.6,8.1-3.6,12.4-4.1c4.3-0.5,9.3,0.8,11.5,4.6
	c0.5,0.8,0.6,1.8,0,2.6c-3,4.3-2.6,9.5-5.2,14c-0.9,1.5-1.8,3.1-1.9,4.8c-0.1,3.8,3.8,6.3,6.4,9.1c2.4,2.4,4,5.4,6.4,7.7
	c2.5,2.3,6.3,3.7,9.2,2c1.3-0.8,2.2-2.1,2.9-3.4c1.3-2.6,1.9-5.5,2-8.4c0.3-7.7-2.8-15.4-8.3-20.8c-0.9-0.9-2-1.9-2.2-3.1
	c-0.5-3.1,1.7-6.6,4.5-8.1c1.4-0.8,2.9,1.5,4.3,2.2c0.6,0.3,1.3,0.7,1.8,1.1c0.6,0.5,1.2,1.2,1.8,1.7c3.9,3.9,11,3.9,15,0.1"/>
<path fill="none" stroke="#E1E1E1" stroke-miterlimit="10" d="M340.9,161c1.2-1.1-0.7-4.6-2-3.7c-0.9,0.7-0.4,2.4,0.3,3.2
	C339.6,161,340.4,161.4,340.9,161z"/>
<path fill="none" stroke="#E1E1E1" stroke-miterlimit="10" d="M125.5-14.6c2.2,7.6,4.4,15.3,8.8,21.9c2.6,3.9,6.2,8.6,4,12.8
	c-0.5,1-1.4,1.9-1.4,3c0,0.7,0.4,1.4,0.6,2.1c2.4,6.1-2.4,12.8-1.3,19.3c0.2,1.1,0.6,2.2,0.5,3.4c-0.1,1.2-0.6,2.3-1.1,3.4
	c-3,6.5-6.9,17.4-13.8,15.5c-2.4-0.7-3.7-3.4-6.1-4.1c-1.5-0.4-3.1-0.4-4.6-0.4c-3.3,0-6.8,0.2-9.4,2.1c-5.6,4.1-3.2,16.6-10,17.9
	c-4.7,0.9-9.7-2-14.3-0.6c-4.8,1.4-8.5,5.2-12.1,8.6c-6.4,6-13.6,10.7-20.9,15.6c-1.4,0.9-3,2-4.7,2.2c-3.2,0.3-5.7-1.8-7.6,0.8
	c-1,1.5-0.5,2.7-1.6,4c-2.6,3.1-6.7,4-9.7,6.6c-4.4,3.7-8.6,8.9-9,14.6s1,11.4,2,17.1c1.4,8.4,1.6,17,0.8,25.5
	c-0.2,1.9-0.4,3.7-0.1,5.6c0.3,1.7,1.2,3.2,2,4.7c1.1,2,2.2,4.1,3.4,6.1c0.7,1.3,1.6,2.7,3,3.1c1.3,0.4,2.8-0.2,4,0.3
	c2.3,0.9,2.1,4.1,3.1,6.3c1.4,3.2,5.8,4.2,9.1,3c3.3-1.1,5.8-3.8,8.1-6.5c7.8-8.9,11.6-21.8,21.6-28.1c8-5,16.2-9.1,24.5-13.6
	c8.4-4.5,18.2-5.5,27.4-8c2-0.5,4-1.2,5.5-2.7c0.9-0.9,1.5-2,2.4-2.8c2.4-2.1,6.1-1.7,9.1-2.9c5-2,7-7.8,10.6-11.8
	c3.6-3.9,8.7-6,13.6-7.9c4.2-1.7,8.4-3.3,12.7-4.8c4.5-1.6,9.1-3.1,13.7-4.5c5.4-1.6,11.1-3.1,16.6-2c1.1,0.2,2.2,0.5,2.9,1.3
	c0.7,0.7,1,1.7,1.7,2.5c0.8,0.8,2,1.1,3.1,1.4c16.4,3.9,27.2,4.8,41.7,11.8c1.2,0.6,8.4,1.5,9.8,1.4c2.5-0.1,5-1.2,7.4-0.5
	c0.7,0.2,1.3,0.6,2,0.8c0.9,0.3,1.8,0.3,2.7,0.3c3.2,0,6.5,0.1,9.7,0.1c1.7,0,3.4,0,4.9-0.5c2.4-0.7,4.2-2.4,6.1-4.1
	c1.2-1.1,2.4-2.2,3.6-3.3c4.5-4.1,9-8.2,12.6-13.1c0.9-1.2,1.8-2.5,3.2-3.2c0.8-0.4,1.8-0.6,2.7-0.8c4.1-0.9,7.8-2.8,11.5-4.6
	c2.2-1.1,4.6-2.3,5.8-4.5c0.2-0.4,0.4-0.9,0.8-1.2c0.4-0.3,1-0.3,1.5-0.2c2.7,0.1,5.5-3,7.8-1.7c1.5,0.9,1.8,2.9,3.4,3.6
	c3.6,1.5,7.3,2.8,11,3.8c4.1,1.1,9.1,1.8,12.1-1.2"/>
<path fill="none" stroke="#E1E1E1" stroke-miterlimit="10" d="M127.7-13.7c1,0.9,2,1.9,3,2.8c1.2,1.2,2.5,2.4,3.2,4
	c0.3,0.6,0.6,1.4,1.3,1.6c0.2,0.1,0.5,0,0.7-0.1c1.1-0.5,1.3-1.9,1-3s-1-2.1-1.4-3.2c-0.4-1.2-0.4-2.6,0-3.9"/>
<path fill="none" stroke="#E1E1E1" stroke-miterlimit="10" d="M139.3-15.2c-0.1,2.3-0.2,4.6-0.3,6.9c0,0.3,0,0.6,0.2,0.9
	c0.2,0.3,0.6,0.3,0.9,0.4c1.5,0.1,3-0.6,4.3-1.4c2.9-1.8,5.5-4.1,7.5-6.8"/>
<path fill="none" stroke="#E1E1E1" stroke-miterlimit="10" d="M158.3-13.1c-3.9,3.7-9,6.2-14.3,6.9c-2.6,0.4-6,1-6.3,3.6
	c-0.2,1.2,0.4,2.3,1,3.4c3.3,6.1,6.2,12.5,8.5,19.1c0.6,1.7,1.2,3.6,0.4,5.2c-0.7,1.6-2.5,2.6-2.8,4.2c-0.3,1.3,0.5,2.7,1,3.9
	c3.1,7.8-2.2,16.1-7.3,22.7c-6.1,8-20.3,21.8-22.3,18.6c-1.9-3,2.8-7-3.3-9.1c-3.3-1.1-7.1-0.6-9.8,1.6c-2.7,2.2-4.3,5.6-5.3,8.9
	c-0.5,1.8-1,3.8-2.3,5.1c-2.6,2.8-7.1,1.8-11,1.9c-6.1,0.2-11.6,3.7-16.7,7.2c-5,3.3-9.9,6.7-14.9,10c-4.9,3.3-9.3,7.4-14.2,10.7
	c-1.3,0.9-3.3-0.3-4.6,0.4c-1.7,0.9-5.4,5.3-6.4,6.9c-3.2,5.1-3.7,13.5-3.9,21.7c-0.3,13.4-5,27.3-0.2,39.8c2,5.2,10.5,5.1,15.4,2.5
	c2.4-1.3,4.2-3.3,6.1-5.3c6.7-6.9,14.6-12.7,23.4-16.8c2.8-1.3,5.7-2.5,8.5-3.6c17.7-7.2,35.1-14.8,52.4-23c8-3.8,13.2-10.6,19-17.4
	c1.8-2.1,5.2-2.2,7.8-3.3c1.4-0.6,2.8-1.2,4.3-1.8c7.3-3.1,18-10.1,22.4-9.4c3.7,0.6,5.4,0.4,8.8-1.2c16.5-7.7,36.5-4.7,54.1,0
	c9.8,2.6,20.2,6.6,29.6,3c3.6-1.4,6.7-3.7,10.2-5.1c5.2-2.1,11.2-1.9,16.2-4.4c5.2-2.6,8.7-7.7,13.3-11.3c6.3-4.9,14.4-6.7,22.2-8.4
	c5.7-1.2,12-6.5,17.1-3.7c6.7,3.7,10.5,12,18.1,11"/>
<path fill="none" stroke="#E1E1E1" stroke-miterlimit="10" d="M163.9-15.1c-1.4,4.8-6.2,7.8-11,9.2c-2.6,0.8-5.8,1.8-6,4.5
	c-0.1,1.5,0.8,2.8,1.6,4.1c3.2,5,5.4,10.7,6.3,16.6c0.8,5.3,0.6,10.8-1.4,15.8c-1.2,3.1-3.1,5.8-4.9,8.6
	c-8.6,12.6-18.1,25.2-31.3,32.8c-2.1,1.2-4.7,4.2-5.9,2c-0.9-1.7-0.3-6-0.7-7.9c-0.6-2.5-4.1-3.3-6.4-2s-3.4,3.8-4.4,6.2
	c-1,2.4-1.9,5-4,6.6c-2.2,1.7-5.1,1.9-7.8,2.3C73.6,85.7,61.5,94.9,50,103.8c-5.3,4.1-10.9,8.7-12.7,15.2c-2.1,8,2.4,16.5,1.3,24.7
	c-0.3,2.3-1,4.8,0,6.9c1.7,3.1,6.1,3,9.6,2.4c0.9-0.2,1.9-0.3,2.7-0.8c1.1-0.7,1.8-2,2.4-3.2c3-5.8,5.2-15.6,11.8-15.6
	c3.9-0.1,6.4,4.5,10,5.8c7.1,2.3,14.8,1.8,22,0.2c3.6-0.8,7.2-1.9,10.7-3.2c21.1-8,36-25.4,55.2-37.2c10.3-6.4,21.8-10.8,33.7-13.1
	c4.5-0.9,9-1.4,13.5-2c7.4-0.9,14.8-1.8,22.2-1c3.2,0.3,6.4,1,9.6,1c4.6,0,9-1.4,13.4-2.8c2.2-0.7,4.5-1.5,5.9-3.3
	c0.9-1.2,1.3-2.7,2.3-3.7c1-1,2.4-1.5,3.8-1.9c9.7-3.1,19.3-6.2,29-9.3c6.4-2.1,12.9-4.1,19.6-5.1c3.7-0.5,7.6-0.8,10.7-2.8
	c2.1-1.3,3.7-3.3,5.6-5c5.5-4.7,13.4-5.9,20.6-4.8c7.2,1.1,13.9,4.3,20.4,7.5"/>
<path fill="none" stroke="#E1E1E1" stroke-miterlimit="10" d="M183-15.1c0.6,3.1-2.3,5.7-5,7.2c-6.6,3.7-17,0.3-21.6,6.4
	c-3.2,4.3,3.8,10.2,7.4,14.3c0.8,0.9,1.6,1.8,1.5,3c-0.1,1-0.9,1.7-1.4,2.5c-1.6,2.5-0.8,5.7-1.3,8.6c-0.9,5.2-5.3,9.2-9.1,12.8
	c-10.4,9.9-16.3,23.8-27.6,32.7c-4.8,3.8-10.4,6.3-15.9,8.8c-2.1,1-4.5,1.9-6.6,1.2c-0.8-0.3-1.8-0.9-2.6-0.4
	c-0.7,0.4-0.9,1.2-1.3,1.9c-1.4,2.6-5.3,1.9-8.3,1.6c-5.3-0.6-10.5,1.3-15.4,3.2c-8.1,3.1-16.7,6.4-22.1,13.2
	c-2.2,2.8-3.3,7.7-0.1,9.2c1.5,0.7,3.2,0.2,4.7-0.3c3.3-1,6.6-2,9.9-3c1.4-0.4,2.9-0.9,4.4-0.4c1,0.3,1.9,1,2.6,1.7
	c4,3.6,7.3,8,9.6,12.9c1,2.2,1.9,4.5,3.6,6.3c2,2.1,5,3,7.9,3.4c14.8,1.9,28.4-7.4,40.4-16.2c3.9-2.8,7.7-5.7,11.6-8.5
	c4.4-3.2,8.8-6.5,13.2-9.7c5.8-4.3,11.6-8.5,17-13.2c2.6-2.2,5.2-4.5,8-6.4c4.1-2.6,9.1-4.3,13.8-2.9c4.6,1.4,9.5-1.9,14.3-2.5
	c3.7-0.4,7.7-1,10.6-3.4c1.8-1.5,3.4-3.8,5.7-3.9c1.2-0.1,2.3,0.4,3.4,0.6c3.8,0.8,7.6-0.7,11.2-2.1c13.1-5.4,26.3-10.8,38.6-17.9
	c1-0.6,1.9-1.1,3-1.4c1-0.3,2-0.3,3.1-0.3c10.5-0.4,17.9-9.1,27.1-14.2c4.3-2.3,9.6-2,13.6-4.7c1.2-0.8,2.4-1.7,3.8-2.3
	c1.6-0.6,3.3-0.7,4.9-0.9c6.3-0.6,12.4-2.3,18.1-5c1-0.5,2.1-1,3.2-0.8c0.6,0.1,1.1,0.3,1.6,0.6c2.4,1.2,4.9,2.5,7.3,3.7"/>
<path fill="none" stroke="#E1E1E1" stroke-miterlimit="10" d="M196.2-14.7c-5.5,1.1-4.1,10.9-9.2,13.4c-0.8,0.4-1.8,0.6-2.4,1.2
	c-0.8,0.7-1.1,1.7-1.7,2.4c-2.2,2.4-6.8,0.4-9.1,2.7c-2.5,2.4-0.7,6.1-3.5,8.2c-0.7,0.6-1.1,2.2-1.8,2.8c-1.5,1.3-1.7,3.2-2,5.2
	c-0.8,5.3-3.4,10.2-7.3,14.2c-3.9,3.9-7.9,7.9-11.3,12.2c-6.5,8.2-13.2,15.2-21.2,22.5c-3.8,3.5-8.2,6.9-13.1,9.5
	C106.3,83.3,92.8,94,89.8,94c-3.5,0.1,1.4-7.2-0.5-7.3c-6-0.4-10.5,2.3-16,5c-0.8,0.4-1.6,0.9-1.8,1.7c-0.3,1.8,2.4,2.3,4.2,2.1
	c3.8-0.4,8,0.1,11,2.5c3.7,3,4.7,8.1,5.8,12.7c0.7,3.2,1.5,6.4,2.8,9.4c1.2,2.8,2.8,5.5,5.4,7c4.8,2.9,11.4,1,16.7-0.9
	c4.9-1.8,9.1-5,13.2-8.1c3.6-2.8,7.2-5.5,10.9-8.3c1.2-0.9,2.3-1.8,3.5-2.7c1-0.8,2-1.6,3-2.3c4.9-3.7,9.8-7.5,14.6-11.4
	c7.4-6,14.6-12.3,21.5-18.9c1.4-1.3,2.7-2.6,4.1-4c1-1,2-2,3.1-3c2.8-2.7,5.7-5.5,9.4-6.3c4.8-1.1,10.3,1.1,14.6-1.3
	c3.1-1.7,4.9-5.4,8.3-6.2c5.5-1.3,9.7-5.2,15.2-6.8c2.1-0.6,4.3-0.8,6.4-1.4c4-1,7.6-3.2,10.6-6c0.7-0.6,1.3-1.3,2.2-1.7
	c1-0.4,2.1-0.2,3.2-0.2c5.3,0.3,10.6-1.7,14.4-5.4c0.9-0.9,1.7-1.9,2.8-2.4c1-0.5,2-0.6,3.1-0.7c9.8-1.5,18.7-7.7,23.5-16.3
	c0.9-1.6,1.7-3.3,2.8-4.8c1.1-1.3,2.4-2.4,3.8-3.4c3.1-2.4,6.2-4.7,9.3-7.1c0.9-0.7,1.7-1.3,2.7-1.7c0.9-0.4,1.9-0.5,2.9-0.7
	c4-0.9,7.4-3.3,10.6-5.8c2.7-2,5.3-7.9,8.1-6.1c2,1.2,0.1,4.2,1.8,5.8c1.7,1.6,4,2.4,6.2,3c1.6,0.4,3.3,0.7,4.9,0.5
	c3.2-0.4,4.3-4.1,6.8-6.1c1-0.8,2,1.4,2.8,2.4c1.2,1.4,3.2,2.1,5,1.6"/>
<path fill="none" stroke="#E1E1E1" stroke-miterlimit="10" d="M209.6-14.7c-5.7,9.6-12.4,20-23.1,23c-3.5,1-7.2,1.1-10.4,2.7
	c-8.3,4.1-9.2,15.4-14.4,23c-2.5,3.7-6,6.5-9.2,9.7c-5.1,5-9.4,10.8-14.2,16.1c-11,12.2-26,21.5-39.5,29.7c-1.1,0.7-2.7,1.6-3.1,2.9
	c-0.7,2.2,1.8,2.3,1.6,4.6c-0.2,1.8-2,2.8-2.9,4.3c-2.5,4,1.8,8.7,3.2,13.3c0.5,1.6,0.6,3.4,1.4,4.8c0.9,1.5,2.5,2.5,4.1,3.2
	c7.5,3.3,16.8,2.1,23.1-3.1c2.6-2.1,5.4-3.9,8-5.7c1.7-1.2,3.5-2.6,5-4c1.2-1.1,2.6-2.1,3.8-3.2c3.8-3.3,7-5.5,11.4-8.9
	c10.4-7.9,19.4-17.3,27.7-27.3c8.4-10,18-19.9,30.5-23.5c1.8-0.5,3.6-0.9,5.3-1.7c1.6-0.9,3-2.2,4.3-3.4
	c7.8-7.1,17.1-12.5,27.1-15.6c6-1.9,12.6-3.2,17.1-7.5c2.5-2.4,4.4-5.8,7.8-6.9c2.3-0.8,5-0.3,7.3-1.2c2.5-1,4.2-3.3,5.7-5.5
	c5-7.4,10-14.8,13.8-22.9"/>
<path fill="none" stroke="#E1E1E1" stroke-miterlimit="10" d="M225.7-15.5c-2.7,3.8-5.3,7.5-8.1,11.2c-1.9,2.5-4,5-6.1,7.4
	c-4.3,4.9-9.6,9.8-16.1,10.2c-2.6,0.2-5.4-0.5-7.9,0.5c-1.1,0.4-2.1,1.2-3.3,1.5c-3.5,1-7.1-2-10.6-1.3c-1.9,0.3-4.8,3.5-5.9,6.5
	s-1.9,6.2-3.2,9.1c-1.7,3.8-5,6.7-8,9.6c-9.6,9.6-17.3,20.5-27.5,29.4c-7.3,6.3-15.1,11.9-23.5,16.7c-1.6,0.9-3.3,1.9-4,3.6
	c-0.5,1-0.6,2.2-0.6,3.3c-0.1,1.9-0.2,3.9-0.4,5.8c-0.2,2.6-0.3,5.3,0.1,7.9c1.4,8,9.4,14.3,17.5,13.7c5.8-0.4,10.6-4,15.3-7.3
	c23.2-16.6,44.1-36.4,61.3-59.1c1.4-1.8,2.8-3.7,4.4-5.3c1.5-1.4,3.1-2.6,4.8-3.8c12.7-9.2,24.7-19.3,35.8-30.2
	c2.2-2.1,4.9-4.5,7.9-4c1.6,0.3,3,1.3,4.5,1.2c1-0.1,1.8-0.6,2.7-1.1c3.8-2.4,7.2-5.4,10.1-8.8c1-1.2,2-2.5,3.4-3.3
	c1.5-0.9,3.3-1.2,5.1-1.6c5.9-1.6,10.9-6.2,13-11.9"/>
<path fill="none" stroke="#E1E1E1" stroke-miterlimit="10" d="M249.5-15c0.5,0.1,0.7,0.7,0.7,1.2c0,0.5-0.1,1,0.1,1.5
	c0.2,0.9,1,1.4,1.7,1.9c0.8,0.6,1.7,1.2,2.5,1.8c0.2,0.2,0.4,0.3,0.7,0.4c0.8,0.2,1.5-0.4,2.1-1c1.4-1.2,3.1-1.9,5-2.2
	c0.8-0.1,1.6-0.1,2.4-0.3c1.6-0.5,3.4-1.1,4.2-2.6c0.2-0.3-0.1-0.7-0.2-1"/>
<path fill="none" stroke="#E1E1E1" stroke-miterlimit="10" d="M183.6,64.2c2.3-3.2,4.6-6.4,6.4-9.9c1.3-2.5,2.3-5.1,4.3-7.1
	c2.2-2.2,5.1-3.4,7.7-5c2.8-1.8,5.2-4.1,7.5-6.4c3.9-3.9,7.8-7.7,11.7-11.6c1.6-1.5,3.1-3.1,3.9-5.2c0.8-2,0.4-4.7-1.4-5.9
	c-1.7-1.2-4-0.8-6-0.4c-6.2,1.3-12.3,2.7-18.5,4c-3.7,0.8-7.4,1.6-10.7,3.3c-2,1-3.8,2.3-5.9,3c-2.1,0.7-4.6,0.7-6.3-0.6
	c-1.5-1.2-2.2-3.2-3.8-4.2c-1.9-1.2-3.8,0-4.6,2.1c-0.4,1.1-1.4,2.2-1.5,3.4c-0.3,3.8-2.8,6.9-5.2,9.9
	c-13.5,16.5-27.3,33.2-44.9,45.2c-3.5,2.4-7.4,4.9-8.6,8.9c-0.8,2.7-0.2,5.7,0.4,8.4c0.5,2.5,1.1,5,1.6,7.5c0.5,2.2,0.9,4.4,2.1,6.3
	c0.9,1.6,2.3,2.9,3.8,3.8c3.3,1.8,7.4,1.7,10.9,0.5c3.6-1.2,6.7-3.4,9.7-5.7c4.6-3.6,9-7.4,13.8-10.6c2.4-1.6,4.8-3.6,7.1-5.4
	c2.3-1.7,4.6-3.4,6.7-5.5C171,79.8,177.6,72.4,183.6,64.2z"/>
<path fill="none" stroke="#E1E1E1" stroke-miterlimit="10" d="M201.4,20.3c-0.9,0.5-1.5,1.3-2.2,2.1c-2.8,3.2-6.2,5.9-10.2,7.4
	s-8.6,1.5-12.4-0.2c-2.9-1.3-6.1-5.1-8.9-3.4c-4.7,2.9-6.1,9.2-10.2,12.8c-1.9,1.7-4.1,3.3-5.7,5.3c-1.7,2.2-3.1,4.7-4.6,7.1
	c-1.5,2.4-3.5,4.3-5.5,6.3c-7.5,7.3-15.5,14.4-23.5,21.1c-1.7,1.4-2.9,3.2-2.6,5.4c0.1,0.7,0.1,1.7,0.4,2.3c2,4.4,4,8.7,6.1,13.1
	c1.6,3.5,4,7.4,7.8,7.4c1.4,0,2.7-0.6,4-1.2C156,95.4,174.8,77.6,186.4,56c1-1.8,1.9-3.7,2.3-5.7c0.2-1.1,0.2-2.2,0.7-3.2
	c1.3-2.7,5-3,7.8-4.2c4-1.6,6.6-5.5,9.9-8.1c1.8-1.4,3.9-2.5,5.6-4.1s3-3.8,2.7-6.1c-0.3-2.4-2.4-4.2-4.7-4.9
	c-2.3-0.7-4.7-0.5-7.1,0C202.9,19.7,202.1,19.9,201.4,20.3z"/>
<path fill="none" stroke="#E1E1E1" stroke-miterlimit="10" d="M198,35.7c1.1,0.3,2.4,0.1,3.3-0.5c0.4-0.3,0.8-0.8,0.6-1.3
	c-0.1-0.2-0.3-0.3-0.6-0.4c-1-0.5-2.1-1-3.2-0.7c-1.1,0.3-1.8,1.8-1,2.6c0.9,0.8,2.4,0.1,3.4,0.7"/>
<path fill="none" stroke="#E1E1E1" stroke-miterlimit="10" d="M151.9,46.2c-7,9.6-15.1,18.4-24.1,26.1c-0.7,0.6-1.5,1.2-1.9,2.1
	c-0.7,1.4-0.2,3.1,0.3,4.7c0.7,2.1,1.3,4.2,2,6.3c1.4,4.5,3.1,9.4,7.2,11.7c0.9,0.5,2,0.9,3,0.8c1-0.1,2.8-0.4,3.7-0.8
	c3.8-2.1,6.7-3.6,10.3-5.8c1.5-0.9,3.5-2.3,5-3.3c1.9-1.3,3.5-2.9,5.2-4.5c2.3-2.2,4.5-4.3,6.6-6.7c2.6-3,4.9-6.4,6.9-9.9
	c4.7-7.9,8.5-16.5,11.2-25.3c0.2-0.6,0.3-1.2,0.2-1.8c-0.3-0.8-1.2-1.3-2-1.6c-4.1-1.5-8.2-2.5-12.5-3.2c-1.7-0.3-3.6-0.5-5,0.4
	c-1.9,1.2-2.4,3.8-4.4,4.9c-1.7,1-3.8,0.4-5.7,0.8C155.2,41.8,153.5,44.1,151.9,46.2z"/>
<path fill="none" stroke="#E1E1E1" stroke-miterlimit="10" d="M177.8,53.5c1.6-3,2.4-6.4,2.5-9.8c0-0.9,0-1.9-0.4-2.7
	c-0.7-1.5-2.2-2.3-3.6-3.1c-1.4-0.8-2.9-1.5-4.5-1.5c-2.6,0.1-4.7,2.2-6.9,3.7c-2.8,1.8-6.1,2.7-8.8,4.6c-1.6,1.2-2.9,2.7-4.2,4.2
	c-4.4,5.1-8.7,10.2-13.1,15.3c-1.1,1.3-2.2,2.5-2.9,4c-1.7,3.6-0.9,8,1,11.5c1.4,2.7,3.8,5.2,6.8,5.4c1.6,0.1,3.2-0.5,4.8-0.1
	c0.9,0.2,1.8,0.7,2.8,0.7c1.1,0,2.1-0.6,3-1.2c5.2-3.4,9.9-7.6,13.8-12.4c1.2-1.4,2.3-2.9,3-4.6c0.6-1.5,0.9-3.2,1.4-4.8
	C173.6,59.4,176.1,56.7,177.8,53.5z"/>
<path fill="none" stroke="#E1E1E1" stroke-miterlimit="10" d="M169.3,40.5c-0.3-0.1-2,0.2-2.3,0.3c-1.9,0.7-4.1,0.9-5.6,2.2
	c-1.6,1.4-0.5,5.6,1.6,5.6c1.4,0,2.5-1.4,3.7-2.2c0.6-0.3,1.2-0.7,1.6-1.3C169.1,44.2,169.6,40.7,169.3,40.5z"/>
<path fill="none" stroke="#E1E1E1" stroke-miterlimit="10" d="M153.8,67.9c1,0.4,3.4,0.8,4.2-0.3c1.1-1.5,2.3-3.3,0.9-4.6
	c-1.5-1.4-2.7,0.2-4.4,1.4C153.5,65,153.2,67.6,153.8,67.9z"/>
<path fill="none" stroke="#D6D6D6" stroke-miterlimit="10" d="M295.9,151.2c-4.3,0.8-8.6,2.1-12.7,3.5c-1.3,0.4-2.6,0.8-3.7,1.6
	c-2,1.3-3.1,3.6-4.6,5.4c-2.9,3.2-7.4,5-9.5,8.8c-0.7,1.3-1,2.7-1.7,4c-0.6,1.2-1.5,2.2-2.3,3.2c-11,12.5-27.3,20.3-44,21
	c-2.7,0.1-5.4,0-8.1,0.3c-7.8,0.9-16.4,5.1-23.4,8.5c-8.7,4.3-17.4,7.7-22.5,16.9c-1.9,3.3-3,7-4.8,10.4
	c-3.2,6.3-8.8,11.1-13.7,16.1c-2.1,2.2-4.2,4.3-6.6,6.2c-1.8,1.4-3.8,2.7-5.6,4.1c-6.2,5-10.3,12.2-16,17.8
	c-3.7,3.7-8.1,6.7-12.5,9.7c-2.5,1.7-4.9,3.4-7.4,5.1c-1,0.7-2,1.4-3.1,1.8c-2.4,1-6.8-0.4-7.7-0.2"/>
<path fill="#EAEAEA" stroke="#D6D6D6" stroke-miterlimit="10" d="M-11.5,301.2c1.6-0.9,3.2-1.7,4.8-2.4c12.1-5.3,26.4-2.3,38.9-6.3
	c2.1-0.7,4.3-1.2,6.4-1.7c4.7-1.1,9.9,0,14.2-2.1c3.8-1.8,6.4-6.3,10.5-6.9c0.2,0,0.5-0.1,0.7,0.1c0.2,0.1,1,0.9,1.2,1.1
	c0.6,0.8,0.3-1.6,1.8-0.9c0.4,0.2,3.9,2.9,4.2,3.2c2,1.8,4.9,3.3,7.9,5.8c1.6,1.3,2,0.6,3.8,1.8c0.9,0.6,3,2.5,3.5,3.5
	c1.2,2.4,4.1,3.7,6.4,6.4c1,1.1,1.9,2.4,3.2,3.2c2,1.4,4.5,1.7,7,1.7c2.6-0.1,5.1-0.5,7.6-0.7c2.7-0.2,5.4-0.2,8.1,0.1
	c1.2,0.1,2.4-0.2,3.6,0.2c1.1,0.4,2.1,0.9,3.1,1.5c3.8,2.2,7.5,4.8,11.3,7c2.5,1.4,5.1,2.8,7.9,2.6c1.6-0.1,3.2-0.8,4.8-0.5
	c1.1,0.2,2,0.9,3.1,1.4c2.2,0.9,4.6,0.8,6.9,1c2.9,0.3,6.8,2,9.6,2.3c3,0.4,13.9-4.6,20.6-8.5c0.8-0.5,1.7-1,2.4-1.7
	c0.7-0.7,1.3-1.5,2-2.2c2-1.9,5-2.3,7.3-3.9c2.7-1.9,3.8-3.8,6.4-5.8c1-0.8,2.6-2.7,3.5-3.6c1.3-1.2,2-3,3.2-4.3
	c1.6-1.7,3.9-2.6,5.6-4.2c0.9-0.9,1.4-1.7,2.5-2.4c1.7-1.1,4.1-2.5,6.1-4.2c1.8-1.5,3.5-3.1,5.1-4.8c3.8-4.3,6.5-10,11.3-13
	c2.9-1.8,4.9-4.5,7.8-6.3c2.1-1.4,4.7-1.8,7.1-2.5c8.4-2.4,16.3-5.9,25-6.1c4.5-0.1,8.4,2.2,12.6,3.3c4.7,1.3,9.4-2,14-3.8
	c6.9-2.6,14.3-3.9,21.7-3.7c5,0.1,10.2,0.9,15-0.5c4.4-1.3,7.4-4.8,10.9-7.7c2.1-1.7,4.8-2.8,6.8-4.5c1.9-1.5,4-3.2,6.4-3.1l0.3,2.5
	c-2.4-0.1-4.5,1.6-6.4,3.1c-2.1,1.7-4,2.7-6,4.4c-3.5,2.9-7.3,6.5-11.7,7.8c-4.8,1.4-10,0.6-15,0.5c-7.4-0.2-14.8,1.1-21.7,3.7
	c-4.6,1.7-9.1,4.1-14,3.8c-4.3-0.3-8.2-2.8-12.5-3.5c-8.6-1.5-16.7,3.9-25.1,6.4c-2.4,0.7-5,1.2-7.1,2.5c-2.9,1.8-4.9,4.5-7.8,6.3
	c-4.9,3-7.6,8.7-11.3,13c-1.5,1.8-3.1,3.6-5.1,4.8c-2,1.3-3.4,2.3-5.2,3.9c-0.9,0.9-2.5,1.8-3.4,2.6c-1.7,1.6-4,2.5-5.6,4.2
	c-1.2,1.3-1.9,3.1-3.2,4.3c-0.9,0.9-1.8,1.7-2.9,2.5c-2.6,2-4.4,5-7.1,6.9c-2.3,1.6-5.3,2-7.3,3.9c-0.7,0.7-1.3,1.5-2,2.2
	c-0.7,0.7-1.6,1.2-2.4,1.7c-6.7,3.9-19.1,8.4-21.5,8.5c-0.2,0-5.9-2.1-8.7-2.4c-2.3-0.2-4.8-0.1-6.9-1c-1-0.5-2-1.1-3.1-1.4
	c-1.6-0.3-3.2,0.4-4.8,0.5c-2.8,0.3-5.5-1.2-7.9-2.6c-3.8-2.2-7.2-4.3-11-6.5c-1-0.6-2.3-1.6-3.4-2c-1.1-0.4-2.4-0.1-3.6-0.2
	c-2.7-0.3-5.4-0.3-8.1-0.1c-2.6,0.2-5.1,0.6-7.6,0.7c-2.4,0.1-5-0.3-7-1.7c-1.2-0.9-2.8-2-3.8-3.1c-2.4-2.7-4.6-4.7-8.1-5.6
	c-1.1-0.3-2.3-0.8-3.2-1.4c-1.8-1.1-1.9-3.7-3.1-5.5c-2.1-3.4-6.8-3.4-10.8-3.2c-0.5,0-1,0.1-1.4-0.1c-1.5-0.7-0.7-2.9-1.1-4.5
	c-0.1-0.2-0.2-0.5-0.4-0.6c-0.2-0.1-0.4-0.1-0.7-0.1c-4.1,0.6-6.9,4.5-10.7,6.3c-4.3,2.1-9.5,1.3-14.2,2.4c-2.2,0.5-4.2,1.4-6.3,2
	C20,299,5.7,296.1-6.4,301.3c-1.7,0.7-3.2,1.6-4.8,2.4L-11.5,301.2z"/>
<path fill="#7BBCEB" stroke="#4E9BD7" stroke-miterlimit="10" d="M198.7,181.9c0.4,1.7,0.4,3.9-1,5c-1.7,1.4-4.1,0.6-6.1-0.3
	c-2.4-1-4.7-2.1-7.1-3.1c-1.1-0.5-2.2-1-3.2-1.6c-0.7-0.5-1.6-0.8-2.3-1.2c-1.6-1-3.1-1.5-4.9-1.9c-3.3-0.7-6.5-1.7-9.7-2.8
	c-1.1-0.4-2.8-1-3.5-1.8c-1.5-1.6-1.3-4.6,0-6.4c1.3-1.8,3.8-2.9,6-3.2c2.2-0.3,4.5,0.5,6.6,0.9c0.5,0.1,2.1,0.8,2.4,1.1
	c1.7,1.3,3.4,2.7,5.1,4c2.9,2.3,5.9,4.7,9.5,5.7c2.5,0.7,5.3,0.9,7,2.9C198.1,179.9,198.5,180.9,198.7,181.9z"/>
<path fill="none" stroke="#D6D6D6" stroke-miterlimit="10" d="M232.4,281.9c1.8,2.5,3,5.3,5.8,6.3s5.9,1.2,8.9,1.3
	c2.3,0.1,4.8,0.3,6.5,1.8c2,1.8,2.3,4.8,2.3,7.5c0,2.7-0.2,5.6,1.3,7.8c1.6,2.5,4.8,3.5,7.7,4.1c5.2,1,10.6,1.4,15.3,3.7
	c0.6,0.3,1.2,0.7,1.6,1.2c0.3,0.4,0.4,0.8,0.6,1.3c3.1,8.9,6.2,15.3,8,24.6c0.5,2.6,0.4,7.8,1.5,10.2c0.7,1.4,1.6,2.7,2.5,4
	c2.7,4.1,5.1,8.4,7.1,12.8"/>
<path fill="none" stroke="#D6D6D6" stroke-miterlimit="10" d="M369.3,56.6c-1.1,0.8-2,1.7-3,2.6c-3,2.8-5.9,5.5-8.9,8.3
	c-1.9,1.7-3.7,3.5-5.2,5.6c-2.2,3.2-3.2,7.1-4.2,10.9c-1.4,5.7-2.6,10.4-2.4,16.3c0,0.5-0.3,4.5-0.2,5c0.5,5.1-1,8.1-1.4,13.1
	s-0.3,10.3,1.8,15c0.5,1.1,1.1,2.2,1.5,3.3c1,2.7,2.8,5.3,3.9,8.1c1.2,3.1,1.7,6,3.6,8.8c6.9,10.2,6.8,24.4,15.5,33.2"/>
<path fill="#FFFFFF" stroke="#D6D6D6" stroke-miterlimit="10" d="M80.6,293.9c-0.8,0.3,0.4,1.5,1.1,2c0.7,0.5,3.2,2.7,3.9,2.3
	c0.6-0.3-1-2-2-2.7C82.5,294.9,81.7,293.5,80.6,293.9z"/>
<g>
	<g>
		<path fill="none" stroke="#585858" stroke-miterlimit="10" d="M-11.8,306c0.7,0,1.3,0,2-0.1"/>
		<path fill="none" stroke="#585858" stroke-miterlimit="10" stroke-dasharray="4.0158,1.004" d="M-8.8,305.9
			c4.6-0.1,9.2-0.3,13.9-0.4c1.8-0.1,3.7-0.1,5.5-0.6c2-0.5,3.8-1.5,5.9-1.8c1.6-0.2,3.2,0.1,4.8-0.3c1.8-0.4,3.4-1.6,5-2.5
			c6.4-3.7,14.3-3.2,21.3-5.3c0.7-0.2,1.3-0.4,2-0.5c0.7-0.1,1.4-0.1,2.1-0.1c3,0,7.3,2.4,9-0.1c0.8-1.1-2.2-2.8-1.4-3.9
			c1.4-2,4.9,0.2,7.3,0.4c2.7,0.2,5.5,0.8,7.3,2.7c1.8,2,3.4,4.7,3.4,6.4c0,0.7-2.2,0.3-2.3,1.1c-0.1,1.1,2,0.7,2.9,1.3
			c0.7,0.5,1.3,1.1,1.9,1.6c2,1.4,5,1.4,7,0c2.3-1.6,2.6-4.1,5.3-4.6c1-0.2,2.9,0.3,3.9,0.5c1.9,0.4,3.8-0.2,5.7,0.2
			c1.2,0.2,2.4,0.5,3.6,0.3c1.2-0.2,2.4-0.8,2.9-1.9c0.9-1.9-0.5-4.5,0.7-6.3c0.4-0.7,1.1-1.1,1.8-1.5c1.1-0.6,2.4-1.1,3.6-0.7
			c0.7,0.2,2.5,0.8,3.1,1.4c2.3,2.3,3.5,4.7,6.6,5.5c3,0.8,6.6,0,8.8,2.2c2,1.9,1.1,7.6,3.8,7.3c1.4-0.1,2.2-0.3,3.6,0.2
			c1.1,0.3,1.4-1.7,1.6-2.8c0.1-1.1,0.1-2.3,0.5-3.3s1.8-2.3,2.6-1.5c0.9,0.9,0.1,3.7,1.3,3.5c0.7-0.1,0.2-1.4,0.5-2
			c0.4-0.6,1.1-1.1,1.8-0.9c1.2,0.3,1.7,2.1,2.9,1.9c0.5-0.1,0.8-0.5,1.2-0.7c0.9-0.5,2.3,0.3,2.3,1.4c0,1.1,1.2,2.7,2.1,2
			c0.5-0.4,0.3-1.9,1-1.8c1.2,0.3,0.4,3.2,1.7,3.2c0.8,0,0.9-2.1,1.6-1.8c0.8,0.4,0,2.8,0.9,2.6c0.8-0.2,0-2.1,0.9-2.4
			c0.9-0.2,1.3,2,2.1,1.7c0.6-0.2-0.2-1.3,0.1-1.8c0.5-0.9,1.6,2.2,2,1.3c1.2-2.5,1.9-1,2.6,0c0.3,0.5,0.4-1.2,1-1.2
			c0.6,0,0.2,1.2,0.8,1.3c0.2,0,0.8-1.3,1.3-1.1c0.6,0.3,0.5,1.8,1.1,1.7c0.6-0.1,0-1.6,0.5-1.8c0.6-0.2,0.6,1.8,1.2,1.4
			c1.3-0.6,1.7-2.3,3.1-1.9c1.4,0.4,2.3,1.6,3.5,2.4c1.1,0.9,3.1,1.8,3.9,0.7c0.7-0.9,0-2.9,1.1-3.1c1.2-0.2,1.8,3,2.8,2.3
			c0.5-0.4-0.2-1.7,0.4-1.8c1.2-0.4,2.1,2.2,3.3,1.9c1.5-0.4-0.8-4,0.6-4.5c1.5-0.5,2.5,3.2,3.8,2.3c4.4-2.8,5.4-14.2,8.5-13.2
			c1.3,0.4,1.1,2.1,2.4,1.6c1.3-0.5,2-1.9,2.2-3.3c0.2-1.4,0.1-2.8,0.5-4.1c0.4-1.5,1.3-2.8,2.2-4.1c3.3-4.4,7.3-8.2,11.3-12.1
			c2-1.9,4-3.8,6-5.7c2.1-2,4.1-4,6.6-5.5c3.2-2,6.9-3.1,10.6-4.2c3.3-0.9,6.9-0.9,10.2-1.9c15.1-4.4,30.7-8,46.7-9.7
			c13.5-1.5,26.1-7.6,39.3-10.6c1.8-0.4,3.6-0.7,5.3-1.3c2-0.6,4-1.5,6-2.2c2.5-0.9,5-1.4,7.5-2c2.2-0.5,4.4-1,6.6-1.5"/>
		<path fill="none" stroke="#585858" stroke-miterlimit="10" d="M370.6,224c0.7-0.1,1.3-0.3,2-0.4"/>
	</g>
</g>
<g>
	<g>
		<path fill="none" stroke="#585858" stroke-miterlimit="10" d="M349.6,229.6c-0.4-0.6-0.6-1.2-0.8-1.8"/>
		<path fill="none" stroke="#585858" stroke-miterlimit="10" stroke-dasharray="4.0234,1.0058" d="M348.5,226.8
			c-0.1-0.3-0.1-0.7-0.2-1c-1.9-12,2-24.7,10.3-33.6c2.1-2.3,6.9-5.7,4.6-7.7c-0.6-0.5-1.5,0.2-2.2-0.1c-0.7-0.3-1.2-1.1-0.9-1.8
			c0.2-0.4,0.5-0.6,0.8-0.9c0.6-0.9,0.1-2.1-0.8-2.7c-0.9-0.6-2.4,0.3-3-0.6c-0.9-1.4,3.2-2.9,2.4-4.3c-0.6-1-2.7,0-2.8-1.1
			c0-0.3,0.1-0.6,0.3-0.9c0.4-0.8,1.6-1.7,1.2-2.5c-0.3-0.7-1.6-0.4-2.2-0.9c-0.6-0.5-1.1-1.3-0.9-2.1c0.2-0.7,0.8-1.2,1.2-1.8
			c1.6-2.7-2.4-6.3-0.7-8.9c0.5-0.8,1.3-1.2,1.9-1.8c0.9-0.9,1.5-2.1,1.9-3.3c0.9-2.8,0.9-5.6-0.9-8.2c-1.1-1.5-2.5-3-3.4-4.6
			c-1.6-2.6-3.2-5.3-4.7-7.9c-0.7-1.2-1.5-2.5-1.3-3.9c0.1-0.7,0.5-1.4,0.5-2.2c0-1.7-2-2.9-2-4.6c0-1.1,1-2,1.9-2.7
			c1.6-1.2,3.3-2.3,5-3.2c1-0.5,2-1,2.7-1.9c0.5-0.6,0.8-1.3,1.3-1.9c1.6-1.8,4.5-1,6.8-0.7c1.2,0.1,2.5,0.1,3.7-0.2"/>
		<path fill="none" stroke="#585858" stroke-miterlimit="10" d="M369.1,108.6c0.6-0.2,1.3-0.4,1.9-0.6"/>
	</g>
</g>
<g>
	<g>
		<path fill="none" stroke="#585858" stroke-miterlimit="10" d="M268.7,248.6c0.3-0.4,0.8-0.9,1.4-1.5"/>
		<path fill="none" stroke="#585858" stroke-miterlimit="10" stroke-dasharray="4.0933,1.0233" d="M270.8,246.5
			c4.3-3.5,13-8.6,18.6-12.2c6.8-4.4,13.5-9.5,17.5-16.6c0.9-1.6,1.8-3.4,3.3-4.5c1.5-1.1,3.4-1.3,5.2-1.7c3.3-0.7,6.5-2,9.6-3.3
			c7.4-3,14.8-6,21.5-10.2c2.9-1.8,5.7-3.8,8.9-4.8"/>
		<path fill="none" stroke="#585858" stroke-miterlimit="10" d="M355.9,193.2c0.6-0.2,1.3-0.3,2-0.4"/>
	</g>
</g>
<g>
	<g>
		<path fill="none" stroke="#585858" stroke-miterlimit="10" d="M343.2-15c-0.1,0.7,0,1.3,0,2"/>
		<path fill="none" stroke="#585858" stroke-miterlimit="10" stroke-dasharray="3.9883,0.9971" d="M343.4-12c0.1,1.2,0.2,2.4,0,3.6
			c-0.7,2.8-3.5,5-3.3,7.9c0.1,1.9,1.5,3.5,2.9,4.9c0.7,0.7,1.4,1.5,2.3,2c0.8,0.5,1.7,0.7,2.6,0.9c2.5,0.7,5.1,1.4,7.7,1.6
			c2.3,0.2,5.6-1.5,6.9,0.4c0.7,1.1-1.6,2-2.4,3c-1.1,1.2-1.6,3-1.3,4.6c0,0.3,0.1,0.6,0.4,0.7c0.2,0.2,0.6,0.1,0.9,0.1
			c1.3-0.1,3-1.4,3.9-0.4c1.4,1.5-0.5,4.1-0.1,6.1c0.1,0.5,0.2,0.9,0.5,1.3c0.3,0.3,0.7,0.4,1.1,0.5c2,0.5,4.3,1.9,6.2,1.7"/>
		<path fill="none" stroke="#585858" stroke-miterlimit="10" d="M371.9,26.8c0.3-0.1,0.5-0.2,0.7-0.3c0.3-0.2,0.2-0.7,0.3-1.1"/>
	</g>
</g>
<g>
	<g>
		<path fill="none" stroke="#585858" stroke-miterlimit="10" d="M283.1-14.9c-0.4,0.5-0.8,1-1.3,1.5"/>
		<path fill="none" stroke="#585858" stroke-miterlimit="10" stroke-dasharray="3.9644,0.9911" d="M281.1-12.7
			c-1.2,1-2.5,1.7-3.9,1.4c-0.5-0.1-1-0.4-1.6-0.3c-1.2,0.1-1.9,1.3-3,1.8c-0.7,0.3-1.4,0.3-2.1,0.4c-3.3,0.5-5.8,3.4-9,4.5
			c-4.6,1.6-9.6-0.7-14.4-0.4c-4.9,0.3-9.1,3.3-13,6.3c-3,2.4-6,5.1-7,8.8c-0.7,2.6,2.3,6.2,0.2,8c-0.8,0.7-1.3-2.2-2.4-2.1
			c-1.2,0.1,0.3,3.2-0.9,3.5c-1,0.3-1.4-2.3-2.4-1.9c-1.4,0.5,1.3,3.2,0.4,4.3c-0.6,0.7-1.9-1.4-2.7-0.9c-0.6,0.4,1,1.6,0.5,2
			c-0.8,0.7-1.6-2-2.5-1.7c-0.7,0.3,0.8,1.6,0.2,2.1c-0.4,0.4-1-1.2-1.5-0.9c-0.6,0.4,0.8,1.9,0.1,2.1c-1.2,0.3-2.3-2.9-3-1.8
			c-0.5,0.8,2,2.1,1.2,2.7c-0.7,0.5-1.4-2-2.2-1.5c-0.6,0.4,0.6,1.9,0,2c-0.9,0.2-1.4-2.3-2-1.7c-0.8,0.7,1.7,2.7,0.8,3.2
			c-0.9,0.5-1.5-2.2-2.3-1.7c-0.8,0.6,0.9,2.6,0,3c-0.9,0.4-1.6-1.7-2.5-1.4c-0.7,0.2,0.3,1.4,0,2c-0.2,0.4-1.1-0.2-1.4,0.2
			c-0.4,0.7,0.8,2,0.1,2.4c-0.7,0.3-1.5-1.2-2.1-0.7c-0.6,0.5,0.6,1.8,0,2.3c-0.5,0.6-1.6-1.1-2.2-0.6c-3.9,3.1-8.9,5.1-13.7,7.6
			c-4.8,2.5-10.7,3.7-16.1,3.7c-1,0-1.8,0-2.5-0.1"/>
		<path fill="none" stroke="#585858" stroke-miterlimit="10" d="M167.7,44c-0.6,0-1.2,0.1-2,0.2"/>
	</g>
</g>
<g>
	<g>
		<path fill="none" stroke="#585858" stroke-miterlimit="10" d="M18.9-17.8c-0.1,0.7-0.2,1.3-0.4,2"/>
		<path fill="none" stroke="#585858" stroke-miterlimit="10" stroke-dasharray="3.9628,0.9907" d="M18.4-14.8
			c-0.5,2.8-1,5.5-1.5,8.3c-0.3,1.4-0.5,2.8-0.8,4.3c-0.3,1.4-0.5,2.8-0.9,4.2c-0.9,3-2.7,5.7-4.4,8.4C7,16.1,3.2,21.8-0.5,27.6
			c-0.6,1-1.3,1.9-2,2.8c-1.7,1.9-3.9,3.3-5.1,5.5c-0.4,0.7-0.6,1.5-1,2.2c-0.4,0.6-0.9,1.1-1.1,1.8c-0.5,1.3,0,2.8,0.1,4.3
			c0.2,2.3-0.8,4.6-2.5,6.1"/>
		<path fill="none" stroke="#585858" stroke-miterlimit="10" d="M-12.5,50.5c-0.5,0.4-1.1,0.7-1.7,1"/>
	</g>
</g>
<g>
	<g>
		<path fill="none" stroke="#585858" stroke-miterlimit="10" d="M-12.3,312.9c0.6-0.2,1.2-0.5,1.8-0.8"/>
		<path fill="none" stroke="#585858" stroke-miterlimit="10" stroke-dasharray="4.0405,1.0101" d="M-9.6,311.5
			c2.7-1.5,5.6-3.2,7.7-1.6c1.8,1.4-3,4.4-1.9,6.4c1.1,2,5.6-2.3,6.7-0.4c1.4,2.5-5.7,4.6-4.6,7.2c0.8,1.7,3.8-1.5,5.5-0.7
			c2.7,1.4-6.9,5.5-4.6,7.7c1.8,1.8,4.8-2.8,7.3-2.2c0.7,0.2,0.2,1.4-0.3,2c-2,2.8-9,6-6.3,8c0.8,0.6,6.1-2.8,9.2-4.2
			c0.7-0.3,1.5-0.7,2.3-0.6s1.4,0.7,1.7,1.4c0.3,0.9,1.7,0,2.1-0.8s1.3-1.8,2.1-1.3c0.8,0.5,0.5,2.1,1.4,2.2
			c0.7,0.1,0.7-1.2,1.3-1.6c1.1-0.7,2.3,2.7,3.2,1.7c0.6-0.7,0.5-1.7,0.5-2.7s0.2-1.9,0.8-2.6c0.6-0.7,1.5,0.4,2.4,0
			c2.2-0.8-0.5-4.7,0.1-7c0.3-1.1,0.8-2.3,1.9-2.9c1.1-0.6,2.6,0.4,3.7-0.2c5.5-3,12.7,3.3,16.6,1.4c1.1-0.5-1.9-2.1-1.6-3.3
			c0.4-1.8,4.6,1.1,5.6-0.5c0.6-0.9-2.2-1.9-1.7-2.8c1.3-2.2,5.1,0.1,7.6,0.2c0.8,0,1.9-0.3,1.7-1.1c-0.1-0.2-0.2-0.4-0.4-0.6
			c-1.6-1.6-4-2.4-5-4.4c-0.4-0.8,1.1-1.4,1.9-1.3c0.9,0.1,2.1,0.5,2.9,0.7c4.6,1.1,10.9,1.5,12.9,1.1c0.7-0.1-1-1.1-1-1.9
			c0-0.8,1.7,0.4,2.3-0.1c0.6-0.5-1.1-1.6-0.6-2.2c0.9-1,2.6,0.5,3.9,0.7c0.2,0,0.5,0.1,0.7,0.1"/>
		<path fill="none" stroke="#585858" stroke-miterlimit="10" d="M79,305.7c0.1,0,0.3-0.1,0.4-0.1c0.5-0.2,0.9-0.8,0.6-1.3"/>
	</g>
</g>
<g>
	<g>
		<path fill="none" stroke="#585858" stroke-miterlimit="10" d="M41.5,320.3c-0.4,0.6-0.4,1.3-0.3,1.9"/>
		<path fill="none" stroke="#585858" stroke-miterlimit="10" stroke-dasharray="4.0192,1.0048" d="M41.7,323.1
			c0.1,0.2,0.3,0.3,0.4,0.5c0.9,0.8,2.4,0.5,3.4,1.2c0.6,0.5-0.6,1.3-1.3,1.7s-1.7,1.3-1,1.8c3.5,2.5,8.3,2.5,12.3,4.3
			c1.3,0.6,3.7,1.9,2.7,2.9c-1.3,1.3-3.6,0-5.4,0c-1.1,0-2.5,0.3-2.5,1.4c0,0.8,0.8,1.4,1.5,1.7c4.2,2.1,8.5,4.2,12.7,6.2
			c2.3,1.1,4.6,2.3,7,3.2c1.2,0.5,2.5,0.9,3.8,1.3c2.9,0.9,5.9,1.8,8.8,2.8c0.6,0.2,1.3,0.4,1.9,0.2c0.7-0.2,1.2-0.7,1.8-1.2
			c2.3-1.8,5.5-1.7,8.4-1.6c2,0.1,4.4-1,6,0.2c0.2,0.2,0.3,0.6,0.2,0.9c-1,3.7-7.2,2.3-10.9,3.5c-0.7,0.2-1.7,1.4-1,1.6
			c3.6,1.2,7.3,1.2,10.9,2.3c8.8,2.7,19.4,4.2,28.5,2c3.6-0.8,6.8-2.9,10.3-4c2.4-0.8,5-1.3,6.9-2.9c2.1-1.7,3.2-4.2,5-6.1
			c2-2.1,4.9-3.1,7.4-4.4c2.6-1.3,5.2-3.1,6.1-5.9c1.4-4.1-0.7-8.8,1-12.7c1.1-2.6,3.2-4.1,5.8-5.3c5.5-2.5,11.2-4.7,16.9-6.5
			c1.3-0.4,2-1.4,2.9-2.3c0.4-0.3,0.7-0.8,1-1.2"/>
		<path fill="none" stroke="#585858" stroke-miterlimit="10" d="M193.7,308.1c0.4-0.7,0.5-1.4,0.3-1.9"/>
	</g>
</g>
<text transform="matrix(1 0 0 1 139.9566 57.1023)"><tspan x="0" y="0" fill="#585858" font-family="'Verdana-Italic'" font-size="8">Half</tspan><tspan x="-7.7" y="9.6" fill="#585858" font-family="'Verdana-Italic'" font-size="8">Dome</tspan></text>
<text transform="matrix(1 0 0 1 88.8537 88.6391)"><tspan x="0" y="0" fill="#585858" font-family="'Verdana-Italic'" font-size="8">Diving</tspan><tspan x="0" y="9.6" fill="#585858" font-family="'Verdana-Italic'" font-size="8">Board</tspan></text>
<text transform="matrix(1 0 0 1 190.0032 162.6179)"><tspan x="0" y="0" fill="#7BBCEB" font-family="'Verdana-Italic'" font-size="8">Lost</tspan><tspan x="0" y="9.6" fill="#7BBCEB" font-family="'Verdana-Italic'" font-size="8">Lake</tspan></text>
<text transform="matrix(1 0 0 1 150.4102 205.4473)"><tspan x="0" y="0" fill="#585858" font-family="'Verdana-Italic'" font-size="8">Mount</tspan><tspan x="0" y="9.6" fill="#585858" font-family="'Verdana-Italic'" font-size="8">Broderick</tspan></text>
<text transform="matrix(1 0 0 1 178.256 271.2595)"><tspan x="0" y="0" fill="#585858" font-family="'Verdana-Italic'" font-size="8">Liberty</tspan><tspan x="0" y="9.6" fill="#585858" font-family="'Verdana-Italic'" font-size="8">Cap</tspan></text>
<text transform="matrix(1 0 0 1 26.9032 277.9535)"><tspan x="0" y="0" fill="#585858" font-family="'Verdana-Italic'" font-size="8">Vernal</tspan><tspan x="11.9" y="9.6" fill="#585858" font-family="'Verdana-Italic'" font-size="8">Fall</tspan></text>
<text transform="matrix(1 0 0 1 75.4859 276.9613)"><tspan x="0" y="0" fill="#585858" font-family="'Verdana-Italic'" font-size="8">Emerald</tspan><tspan x="0" y="9.6" fill="#585858" font-family="'Verdana-Italic'" font-size="8">Pool</tspan></text>
<text transform="matrix(1 0 0 1 131.5071 329.0671)"><tspan x="0" y="0" fill="#585858" font-family="'Verdana-Italic'" font-size="8">Nevada</tspan><tspan x="16.3" y="9.6" fill="#585858" font-family="'Verdana-Italic'" font-size="8">Fall</tspan></text>
<text transform="matrix(1 0 0 1 137.6119 46.7177)" fill="#585858" font-family="'Verdana-Italic'" font-size="8">8836 </text>
<text transform="matrix(1 0 0 1 116.4308 210.7072)" fill="#585858" font-family="'Verdana-Italic'" font-size="8">6706 </text>
<text transform="matrix(1 0 0 1 144.9452 276.7177)" fill="#585858" font-family="'Verdana-Italic'" font-size="8">7076 </text>
<text transform="matrix(0.7487 -0.663 0.663 0.7487 204.0685 318.6799)" fill="#585858" font-family="'Verdana-Italic'" font-size="8">MERCED</text>
<text transform="matrix(0.9407 -0.3391 0.3391 0.9407 254.4989 270.4662)" fill="#585858" font-family="'Verdana-Italic'" font-size="8">RIVER</text>
<path fill="none" d="M211,147.3c12,3.7,21.6,6.6,34.8,5.5c4-0.3,10.5,1.3,14.5,0.7"/>
<text transform="matrix(0.9836 0.1805 -0.1805 0.9836 225.815 154.078)"><tspan x="0" y="0" fill="#7D7D7D" font-family="'Verdana-Italic'" font-size="7">6</tspan><tspan x="4.6" y="0" fill="#7D7D7D" font-family="'Verdana-Italic'" font-size="7" rotate="-3.6">2</tspan><tspan x="9.2" y="-0.3" fill="#7D7D7D" font-family="'Verdana-Italic'" font-size="7" rotate="-7.6">0</tspan><tspan x="13.8" y="-0.9" fill="#7D7D7D" font-family="'Verdana-Italic'" font-size="7" rotate="-11.6">0</tspan></text>
<path fill="none" d="M318.6,292.9c3.1-3.7,8.7-3.7,13.5-4.8c13.6-3.1,23.9-17,37.9-16.5"/>
<text transform="matrix(0.9822 -0.1876 0.1876 0.9822 324.8443 292.0238)"><tspan x="0" y="0" fill="#7D7D7D" font-family="'Verdana-Italic'" font-size="7">6</tspan><tspan x="4.4" y="0.1" fill="#7D7D7D" font-family="'Verdana-Italic'" font-size="7" rotate="0">6</tspan><tspan x="9.3" y="0.1" fill="#7D7D7D" font-family="'Verdana-Italic'" font-size="7" rotate="-8.4">0</tspan><tspan x="14" y="-0.7" fill="#7D7D7D" font-family="'Verdana-Italic'" font-size="7" rotate="-15.3">0</tspan></text>
<path fill="none" d="M57.4,256.6c4.8-0.5,9.6-1.1,14.4-1.6c3-0.3,6.1-0.7,9.2-0.5c8.1,0.5,15.8,5.1,20.2,11.9"/>
<text transform="matrix(0.9937 -0.1123 0.1123 0.9937 63.2779 258.5356)"><tspan x="0" y="0" fill="#7D7D7D" font-family="'Verdana-Italic'" font-size="7">5</tspan><tspan x="4.4" y="0" fill="#7D7D7D" font-family="'Verdana-Italic'" font-size="7" rotate="0">4</tspan><tspan x="8.9" y="0" fill="#7D7D7D" font-family="'Verdana-Italic'" font-size="7" rotate="0.6">0</tspan><tspan x="13.1" y="0" fill="#7D7D7D" font-family="'Verdana-Italic'" font-size="7" rotate="5.4">0</tspan></text>
<path fill="none" d="M222.4,41.9c7.8-7.1,17.1-12.5,27.1-15.6c6-1.9,12.6-3.2,17.1-7.5"/>
<text transform="matrix(0.9185 -0.3954 0.3954 0.9185 241.6353 32.0761)"><tspan x="0" y="0" fill="#7D7D7D" font-family="'Verdana-Italic'" font-size="7">7</tspan><tspan x="4.3" y="0" fill="#7D7D7D" font-family="'Verdana-Italic'" font-size="7" rotate="3.5">6</tspan><tspan x="8.6" y="0.3" fill="#7D7D7D" font-family="'Verdana-Italic'" font-size="7" rotate="6.7">0</tspan><tspan x="13" y="0.8" fill="#7D7D7D" font-family="'Verdana-Italic'" font-size="7" rotate="6.3">0</tspan></text>
<path fill="none" d="M21.4,46.2c2.6-2.5,5-5.2,7.3-8c2.4-2.9,4.6-6,6.8-9.1"/>
<text transform="matrix(0.6812 -0.7321 0.7321 0.6812 24.8238 46.4384)"><tspan x="0" y="0" fill="#7D7D7D" font-family="'Verdana-Italic'" font-size="7">4</tspan><tspan x="4.6" y="0" fill="#7D7D7D" font-family="'Verdana-Italic'" font-size="7" rotate="-2.6">4</tspan><tspan x="9.1" y="-0.2" fill="#7D7D7D" font-family="'Verdana-Italic'" font-size="7" rotate="-5.1">0</tspan><tspan x="13.6" y="-0.6" fill="#7D7D7D" font-family="'Verdana-Italic'" font-size="7" rotate="-6.6">0</tspan></text>
<path fill="none" d="M60.3,66.8c4,3.4,19.5-6.8,25.2-15.1"/>
<text transform="matrix(0.8938 -0.4485 0.4485 0.8938 68.1778 68.7977)"><tspan x="0" y="0" fill="#7D7D7D" font-family="'Verdana-Italic'" font-size="7">5</tspan><tspan x="4.7" y="0" fill="#7D7D7D" font-family="'Verdana-Italic'" font-size="7" rotate="-6.2">8</tspan><tspan x="9.3" y="-0.5" fill="#7D7D7D" font-family="'Verdana-Italic'" font-size="7" rotate="-10.9">0</tspan><tspan x="13.9" y="-1.4" fill="#7D7D7D" font-family="'Verdana-Italic'" font-size="7" rotate="-15.6">0</tspan></text>
<path fill="none" d="M65.2,133.4c3.9-0.1,6.4,4.5,10,5.8c7.1,2.3,14.8,1.8,22,0.2"/>
<text transform="matrix(0.8691 0.4947 -0.4947 0.8691 70.6958 139.6522)"><tspan x="0" y="0" fill="#7D7D7D" font-family="'Verdana-Italic'" font-size="7">7</tspan><tspan x="5.2" y="-0.3" fill="#7D7D7D" font-family="'Verdana-Italic'" font-size="7" rotate="-17.3">0</tspan><tspan x="9.8" y="-1.8" fill="#7D7D7D" font-family="'Verdana-Italic'" font-size="7" rotate="-24.9">0</tspan><tspan x="14.1" y="-3.8" fill="#7D7D7D" font-family="'Verdana-Italic'" font-size="7" rotate="-31.4">0</tspan></text>
<g>
	<g>
		<polyline fill="none" stroke="#7D7D7D" stroke-miterlimit="10" points="85.2,341.6 85.2,348.7 275.4,348.7 275.4,341.7 		"/>
		<line fill="none" stroke="#7D7D7D" stroke-miterlimit="10" x1="180.5" y1="341.4" x2="180.5" y2="348.7"/>
		<line fill="none" stroke="#7D7D7D" stroke-miterlimit="10" x1="161.2" y1="349.2" x2="161.2" y2="343.7"/>
		<line fill="none" stroke="#7D7D7D" stroke-miterlimit="10" x1="142.4" y1="349.2" x2="142.4" y2="343.7"/>
		<line fill="none" stroke="#7D7D7D" stroke-miterlimit="10" x1="123.3" y1="349.2" x2="123.3" y2="343.5"/>
		<line fill="none" stroke="#7D7D7D" stroke-miterlimit="10" x1="104.6" y1="349.2" x2="104.6" y2="343.7"/>
	</g>
	<text transform="matrix(1 0 0 1 83.7836 339.1469)" fill="#7D7D7D" font-family="'Verdana'" font-size="8">0</text>
	<text transform="matrix(1 0 0 1 174.2947 339.1469)" fill="#7D7D7D" font-family="'Verdana'" font-size="8">0.5</text>
	<text transform="matrix(1 0 0 1 258.3416 339.1469)" fill="#7D7D7D" font-family="'Verdana'" font-size="8">1 mi</text>
</g>
</svg>
