<?xml version="1.0" encoding="utf-8"?>
<!-- Generator: Adobe Illustrator 17.1.0, SVG Export Plug-In . SVG Version: 6.00 Build 0)  -->
<!DOCTYPE svg PUBLIC "-//W3C//DTD SVG 1.1//EN" "http://www.w3.org/Graphics/SVG/1.1/DTD/svg11.dtd">
<svg version="1.1" id="Layer_1" xmlns="http://www.w3.org/2000/svg" xmlns:xlink="http://www.w3.org/1999/xlink" x="0px" y="0px"
	 viewBox="0 0 360 360" enable-background="new 0 0 360 360" xml:space="preserve">
<path fill="none" stroke="#E1E1E1" stroke-miterlimit="10" d="M147.2,369.3c2.7-6.4,6.1-12.4,10.8-17.5c0.8-0.9,1.7-1.8,2.9-2.2
	c3.9-1.3,4.1,5.1,7.1,7.9c1.6,1.4,4.3-0.2,6.3,0.7s3.5,3,2.9,5.1c-0.3,1.2-1.4,2.2-2.3,3.1c-0.9,0.8-1.7,1.7-2.6,2.5"/>
<path fill="none" stroke="#E1E1E1" stroke-miterlimit="10" d="M138.6,369.4c0.6-1.6,1.1-3.2,1.7-4.9c2.9-9.3,5-19.3,11.5-26.6
	c1.9-2.1,4.2-4.1,5.4-6.7s-0.6-5-2.1-7.5c-0.8-1.4,2.5-1.9,3.4-3.2c1.1-1.6-0.7-3.9-2.6-4s-3.6,1.1-5,2.4c-1.4,1.3-2.8,2.8-4.6,3.4
	c-1.5,0.5-3.2,0.3-4.8,0.1c-15.9-1.4-31.3,5.3-46.1,11.4c-13.3,5.5-26.9,10.5-40.9,13.9c-2.4,0.6-4.9,1.1-7.3,0.5
	c-2.9-0.7-5.5-3.1-8.4-2.4c-1.5,0.4-2.8,1.5-4.3,1.7c-1.4,0.2-2.7-0.5-3.9-1c-12.3-4.8-25.9-3.7-39.1-1.3"/>
<path fill="none" stroke="#E1E1E1" stroke-miterlimit="10" d="M138.2,370.3c0.1-0.3,0.2-0.6,0.4-1"/>
<path fill="none" stroke="#E1E1E1" stroke-miterlimit="10" d="M129.6,368.4c1.5-5,2.4-10.3,3.9-15.4c1.5-5.1,3.5-10,6.1-14.7
	c1.4-2.5,2.8-5.9,0.7-7.7c-1.4-1.3-3.7-0.9-5.6-0.5c-6.9,1.7-13.9,3.4-20.8,5.1c-7.5,1.8-15.5,3.9-20.6,9.7
	c-1.7,1.9-3.3,4.4-5.8,5.1c-2.4,0.7-4.9-0.6-7.4-1.1c-4.6-1-9.3,0.5-13.4,2.7s-7.9,4.9-12.2,6.8c-7.9,3.4-16.7,3.6-25.3,3.7
	c-0.9,0-1.8,0-2.6-0.4c-1.2-0.7-1.8-2.4-3.2-2.6c-0.7-0.1-1.3,0.2-2,0.2c-3.3,0.4-7.5,0.2-9.3-2.6c-0.7-1.2,0.5-2.8-0.7-3.4
	s-2.7-0.4-4-0.2c-2.7,0.5-5.5,0.9-8.2,1.4c-1.1,0.2-2.2,0.4-3.1,1.1s-1.5,2.2-0.7,2.9c3.7,3.1,10.4-0.8,14.1,2.3
	c2.5,2.1,0.3,6.4,0.4,9.6"/>
<path fill="none" stroke="#E1E1E1" stroke-miterlimit="10" d="M120.4,368.9c0.6-0.3,1.1-0.7,1.5-1.3c0.6-0.9,0.5-2.1,0.9-3.2
	c0.3-0.7,0.8-1.3,1.3-1.9c3.8-4.8,4.2-11.5,4.4-17.6c0-0.8,0-1.7-0.4-2.4c-0.9-1.6-3.1-1.6-4.9-1.3c-6.4,1-12.7,2.8-18.9,4.7
	c-1.5,0.4-3,0.9-4.4,1.3c-1.1,0.3-2.2,0.6-3.1,1.3c-1.2,0.8-2.1,2.1-3,3.2c-4.5,5.9-12.6,15.8-18.4,11.1c-1.9-1.6-3.6-3-6-3
	c-6.3,0-12.7,1-18.7,2.9c-1.4,0.5-2.9,1-4.1,1.9c-1.6,1.2-2.7,3-3.6,4.8"/>
<path fill="none" stroke="#E1E1E1" stroke-miterlimit="10" d="M119.8,369.2c0.2-0.1,0.4-0.2,0.6-0.3"/>
<path fill="none" stroke="#E1E1E1" stroke-miterlimit="10" d="M102.2,369.4c2.8-2.8,5.4-5.9,7.7-9.1c0.5-0.7,1.1-1.5,1.2-2.5
	c0.1-0.9-0.4-2-1.3-2.2c-1-0.2-1.9,0.6-2.6,1.3c-2.5,2.3-5.7,3.8-9,4.2c-2,0.3-4.3,0.2-5.9,1.4c-1,0.8-1.6,1.9-2.5,2.8
	c-1.4,1.6-3.3,2.4-5.3,3"/>
<path fill="none" stroke="#E1E1E1" stroke-miterlimit="10" d="M183,333.8c-0.9-0.5-2-0.5-3-0.4c-1.8,0.1-3.8-0.5-5.4,0.4
	c-0.8,0.5-1.1,1.7-1.6,2.5c-0.1,0.2-0.3,0.4-0.3,0.6c0,0.4,0.3,0.7,0.6,1c1,0.7,2.6,1,2.6,2.2c0,0.5-0.3,1-0.2,1.5
	c0.1,0.7,1,1,1.7,0.9c0.7-0.1,1.4-0.5,2.1-0.7c0.7-0.2,1.6-0.1,1.9,0.6c0.1,0.2,0.1,0.4,0.3,0.5c0.2,0.1,0.5,0,0.7,0
	c0.2,0,0.4,0.1,0.6,0.2c2.5,1.6,5.9,1.6,8.4,0.1c0.7-0.4,1.5-1.3,1.1-2.1c-0.2-0.4-0.7-0.8-0.4-1.1c0.3-0.2,0.6-0.2,0.9-0.4
	c0.7-0.5,0.4-1.7-0.3-2.2c-0.6-0.6-1.5-0.7-2.3-0.7c-1.7,0-3.5,0.4-4.9-0.5C184.5,335.5,184,334.3,183,333.8z"/>
<path fill="none" stroke="#E1E1E1" stroke-miterlimit="10" d="M178.9,316.1c-2.9,0.9-6.3,2.6-6.1,5.6c0.1,0.9,0.5,1.8,0.9,2.6
	c1,2,2.8,3.8,5,4.4c2.1,0.6,3.9-0.2,5.7-1.5c1.8-1.3,3.6-4.7,5.5-3.6c2.2,1.3-0.4,5.2,0.2,7.7c0.5,1.7,3.6,0.9,4.6,2.3
	c0.6,0.9,0.4,2.1,0.6,3.1c0.4,2.6,3.6,4.3,6,3.2c2.4-1.1,1.2-4.1,1.5-6.7c0.4-3.3,5.3-3.9,7.9-5.8c1.1-0.8,2.2-1.6,2.8-2.8
	s0.5-2.9-0.6-3.7c-0.6-0.4-1.4-0.6-1.8-1.2c-0.4-0.5-0.3-1.2-0.5-1.8c-0.6-3-4.6-3.7-7.5-2.9c-2.9,0.8-6.3,3.6-8.8,1.9
	c-0.9-0.6,0.1-2.2-0.4-3C191.3,309.6,183.8,314.5,178.9,316.1z"/>
<path fill="none" stroke="#E1E1E1" stroke-miterlimit="10" d="M221.7,368.7c0.3-0.4,0.5-0.7,0.7-1.1c1.2-2,2.4-4.1,4.1-5.6
	c1.2-1.1,2.6-1.8,3.7-2.9c1.4-1.4,2.2-3.2,3-5c0.9-2.1,1.9-4.2,2.1-6.4c0.1-1.7-0.1-3.4,0.5-5c0.4-0.9,1-1.7,1.5-2.5
	c1.4-2.7-2.5-5.6-1.3-8.5c0.5-1.3,2.8-0.7,3.4-1.9c0.6-1.2,0.2-2.9-1-3.5c-0.6-0.3-1.2-0.3-1.8-0.6c-2.2-1.2-1.6-5.4-4.1-5.9
	c-1.9-0.4-1.9,2.6-3.2,4c-0.6,0.7-2,0.3-2.5,1.1c-1.1,1.5,1.3,4.1-0.1,5.5c-0.9,0.9-2.4,0.4-3.7,0.2c-2.3-0.3-4.6,0.7-6.3,2.2
	c-1.8,1.5-3.1,3.4-4.5,5.2C205.7,346,197,352,190,359.6c-2.8,3.1-5.4,6.4-8,9.6"/>
<path fill="none" stroke="#E1E1E1" stroke-miterlimit="10" d="M216.8,349.3c-0.9-0.5-2.1-0.2-3.1,0.2c-1,0.4-2.1,0.8-3.1,1.2
	c-1.3,0.5-2.7,1.1-3.8,2c-0.9,0.8-1.6,1.9-2.2,3c-0.5,0.9-1,1.9-0.7,2.8c0.3,0.9,1.2,1.4,2.1,1.5c0.9,0.1,1.8-0.2,2.7-0.5
	c1-0.3,2-0.7,3-0.9c0.6-0.1,1.2-0.1,1.8-0.3c2.2-0.6,3.5-3,4.1-5.3C218,351.7,218,350,216.8,349.3z"/>
<path fill="none" stroke="#E1E1E1" stroke-miterlimit="10" d="M236.5,370c1.9-3.6,2.6-7.8,5.1-11c1.7-2.1,4.1-3.6,5.7-5.8
	c0.9-1.3,1.5-2.7,2.5-4c1.2-1.5,2.8-2.7,4.5-3.5c5-2.4,10.8-2.3,15.9-4.4c3.8-1.6,8.5-2.1,11.3-5.1c2.4-2.7-4.4-5.4-5.9-8.7
	c-0.6-1.4-0.7-3-0.9-4.5c-0.5-3.3-2-6.4-4.2-8.9c-1.4-1.6-3.2-2.8-4.4-4.6c-1.2-1.7-1.8-4.1-0.8-5.9c1.2-2.1,3.9-2.5,6.1-3.3
	c2.3-0.8,4.7-2.9,3.9-5.1c-0.2-0.7-0.8-1.2-1.2-1.8c-1.7-2.7-0.6-6.5,1.7-8.9c2.3-2.3,5.4-3.6,8.3-5c2.9-1.4,5.9-3.3,7.3-6.2
	c0.9-1.8,2.6-3.9,4.2-5c1.6-1.1,3.5-2,4.9-3.3c2.7-2.5,3.6-6.6,6.5-8.9c1.7-1.4,4-2.1,5-4c0.6-1.1,0.7-2.5,1.7-3.1
	c0.7-0.4,1.7-0.3,2.4-0.8c1.1-0.7,1.2-2.2,1.3-3.6s1.3-1.9,1.9-3.1c0.6-1.3-3.2-0.4-3.8-1.8c-0.3-0.7,0.2-1.4,0.7-2
	c1.4-1.6,3.3-2.8,5.3-3.5c0.7-0.2,1.4-0.4,1.9-0.9c0.5-0.5,1-1.4,0.4-1.9c-3-2.8-7.1-4.2-10.7-6.3c-0.4-0.2-0.9-0.5-1.3-0.5
	c-0.6,0-1.2,0.3-1.8,0.5c-2.7,0.9-6-1.8-5.6-4.6c0.1-0.7,0.3-1.3,0.2-2c-0.3-1.1-1.6-1.4-2.5-2c-2.3-1.6-0.2-5.8-2.3-7.7
	c-1.2-1.1-2.6-1.9-2-3.4c0.7-1.5,2.2-2.2,3.7-2.8s3.1-1.1,4.1-2.3c1-1.3,1.2-3.1,2-4.4c1.8-2.7,6-3.2,7.6-6.1
	c0.9-1.7,0.7-3.9,2.2-5.1c0.8-0.6,1.7-0.7,2.6-1c2.6-0.9,2.3-3.5,4.3-5.3c2.7-2.4,6.2-4,8.8-6.5c0.8-0.7,1.6-1.5,1.9-2.5
	c0.3-1-1.1-1.6-1.1-2.6c0-0.9,1.3-1.3,1.3-2.2s-0.2-1.8-0.1-2.7c0.5-3.5,5.8-4.2,7-7.5c0.2-0.6,0.3-1.3,0.7-1.9
	c0.8-1.3,2.5-1.4,3.7-2.3c1.1-0.8,1.8-2.2,3-2.7c2.4-1,4.7,1.9,7.3,1.9c2.5,0,4.2-2.4,6.3-3.7c4.2-2.6,10-0.5,14.4-2.9"/>
<path fill="none" stroke="#E1E1E1" stroke-miterlimit="10" d="M273.1,370.1c2.8-1.9,5.6-3.8,8.5-5.6c4.2-2.7,8.4-5.5,12.5-8.2
	c7.4-4.8,14.7-9.6,22.6-13.5c1.8-0.9,3.8-1.8,5.3-3.2c2.8-2.6,3.9-6.5,6.6-9.2c3.6-3.6,9.9-5.2,10.6-10.2c0.1-0.5,0.1-1.1-0.2-1.6
	c-1.1-2.1-4.2-0.4-6,1.2c-5.2,4.9-16.7,14.7-19.3,8c-0.8-2,0.1-4.3-1.9-5s-4.3-0.4-6.4-1.2c-4.1-1.5-5.3-6.7-6-11
	c-0.2-1.5-0.6-3.4,0.7-4.2c2.9-1.8,9.3,0.7,9.9-2.6c0.5-2.5-4.1-2.8-6.2-4.2c-2.8-1.9-6-4.3-6.2-7.8c-0.1-1.3,0.3-2.6,0.7-3.8
	c2-6.5,4.1-13,7.9-18.6c5.9-8.9,15.2-14.9,24.8-19.4c2.3-1.1,4.8-2.3,5.5-4.7c0.8-2.5-0.7-5.1-0.5-7.6c0.3-5.6,11.6-10.2,8-14.5
	c-5.4-6.6-17.9-3.7-21.9-11.2c-3.3-6-1.7-13.8,2.2-19.4c3.8-5.7,10.8-8.4,15.2-13.7c1.7-2.1,5.2-3,7.4-1.5c0.9,0.6,2,1.6,2.9,1
	c0.4-0.2,0.5-0.6,0.6-1.1c0.8-3.3-2.7-7.2-0.6-9.9c1.3-1.7,3.8-1.5,5.8-0.9s4.1,1.5,6.1,0.8c1.4-0.5,2.4-1.6,3.7-2.5
	c4-2.6,9.7-1.5,13.3-4.6"/>
<path fill="none" stroke="#E1E1E1" stroke-miterlimit="10" d="M287.1,369.4c11.4-7.4,22.5-15.5,35.1-20.6
	c12.4-4.9,22.1-2.5,32.3-10.3c2.4-1.9,0.9-6.5,2.9-8.7c0.7-0.7,1.5-1.4,1.9-2.3c0.5-1.1,0.3-2.5,0.7-3.7c0.5-1.1,1.5-1.8,2.4-2.5
	c6.8-5.7,7.8-15.8,13-23"/>
<path fill="none" stroke="#E1E1E1" stroke-miterlimit="10" d="M304.2,368.9c0.7-0.4,1.5-0.7,2.3-1c1.6-0.5,3.4-0.7,5-1.2
	c2.3-0.7,4.3-2,6.4-3.2c8.4-4.6,18-6.4,27.4-8.1c4-0.7,11.8-1.5,12.1-1.4c0.9,0.2,2.1,1.2,2.8,0.6c1.2-1-0.1-3.2,0.4-4.7
	c0.4-1.5,1.4-3,2.8-3.6c0.7-0.3,1.6-0.5,2-1.2c0.4-0.8-0.2-1.7-0.3-2.6c-0.1-1.5,1.5-2.6,2.3-3.9c0.5-0.9,0.7-2,0.9-3.1
	c1-4.9,3.5-9.5,7.2-12.9"/>
<path fill="none" stroke="#E1E1E1" stroke-miterlimit="10" d="M320.3,260.6c-1.2,2.5-3.5,4.2-5.4,6.2c-1.8,2-3.3,4.9-2.3,7.5
	c0.8,2.1,3,3.2,4.9,4.5c1.9,1.3,3.7,3.3,3.1,5.5c-0.4,1.4-1.7,2.9-1,4.2c0.4,0.7,1.3,1,2.1,1.2c1.2,0.3,2.4,0.6,3.6,1
	c1.1,0.3,2.4,0.5,3.2-0.1c1.1-0.9,0.9-2.7,0.1-3.9c-0.8-1.2-2-2-2.7-3.3c-0.2-0.4-0.4-0.8-0.3-1.2c0.1-0.7,0.7-1.1,1.1-1.6
	c1.6-2.1,0.5-5.3,1.8-7.6c0.9-1.7,2.9-2.8,3.1-4.7c0.1-0.8-0.2-1.5-0.4-2.3c-0.9-4.3,2.5-8.2,3.3-12.5c0.1-0.6,0.1-1.3-0.4-1.6
	c-0.4-0.2-0.9-0.1-1.3,0c-2.9,0.9-5.7,2.1-8.4,3.6c-1.1,0.6-2.2,1.3-2.9,2.3C321.1,258.6,320.8,259.6,320.3,260.6z"/>
<path fill="none" stroke="#E1E1E1" stroke-miterlimit="10" d="M374.8,176.8c-2.3,2.9-5.3,5.1-8.8,6.4c-1,0.4-2,0.7-2.7,1.4
	c-0.5,0.6-0.8,1.3-1.1,2.1c-1.7,4-5,8.5-9.3,8.8c-1.1,0.1-2.2,0.3-3,1.1c-2.6,2.5-2.7,6.6-2.7,10.2c0,0.9,0,1.8,0.3,2.6
	c0.7,1.9,3,2.9,5,2.7c2-0.2,0.5-6.7,2.4-7.4c0.9-0.3,1.6-0.2,1.8,0.7c0.3,0.9,0.3,1.9,0.5,2.8c0.5,2,2.2,3.5,4.1,4.2
	c1.9,0.7,4,0.6,6,0.2c4.4-1,8.1-3.6,11.8-6.2"/>
<path fill="none" stroke="#E1E1E1" stroke-miterlimit="10" d="M218,271.2c0.1-0.3,0.2-0.5,0.4-0.7c1.7-1.9,4.9-2.2,7-0.8
	c0.4,0.2,0.7,0.6,0.9,1c0.2,0.5,0,1-0.2,1.5c-0.5,1.3-1.1,2.8-2.5,3.2c-1.4,0.4-3.3,0.6-4.1-0.5C218.6,273.8,217.6,272.5,218,271.2z
	"/>
<path fill="none" stroke="#E1E1E1" stroke-miterlimit="10" d="M258.6,248.3c0.5-0.2,1-0.4,1.3-0.7c0.6-0.7,0.2-1.9-0.5-2.5
	c-1.1-1.1-2.9-0.3-4.3-1c-0.9-0.5-1.3-2.4-2.2-1.9c-1.8,1-1.7,4.2-0.4,5.8c0.7,0.9,1.9,1.2,3,1.2S257.5,248.7,258.6,248.3z"/>
<path fill="none" stroke="#E1E1E1" stroke-miterlimit="10" d="M250.8,256.4c0.2,0.3,0.5,0.5,0.7,0.8c1.3,0.9,3.5,1.6,4.5,0.3
	c0.4-0.6,0.3-1.7-0.2-2.2c-0.7-0.6-2.3,0.2-2.8-0.6c-0.8-1-1.7-3.3-2.4-2.2C249.7,253.5,250.1,255.2,250.8,256.4z"/>
<path fill="none" stroke="#E1E1E1" stroke-miterlimit="10" d="M-9.3,276.1c3.4-0.7,6.7-1.1,10.2-1.2c3.8-0.1,8,0.5,10.7,3.2
	c1.2,1.2,2,2.7,3.3,3.7c1.6,1.2,3.7,1.5,5.6,2.1c6.7,2,12.2,7.6,14,14.4c0.2,0.9,0.4,1.9,1,2.7c1,1.2,2.7,1.5,4.3,1.6
	c2.9,0.3,5.7,0.6,8.6,0.9c2.3,0.2,4.7,0.4,6.7-0.5c2.6-1.2,4.1-4.1,5.5-6.6c3.3-5.9,7.4-11.3,12.3-16c4.5-4.4,10.5-8.3,16.6-6.9
	c3.4,0.8,6.2,3.1,9.3,4.6c5.8,2.8,13,2.5,18.6-0.7c3.7-2.2,6.6-5.5,10.4-7.6c3-1.6,6.4-2.4,9-4.5c2.7-2.1,0.8-5.7,2.1-8.8
	c1.6-3.7,9.2-1.5,9.6-5.5c0.2-1.4-0.4-2.9-1-4.2c-1.5-3.5-2.9-7-4.4-10.5c-1.6-3.8-3.3-7.8-6.6-10.2c-5.3-3.9-12.5,2.2-18.7,0.2
	c-1.3-0.4-2.6-2.4-2.1-3.6c1.2-2.8,2.1-5.3,3.6-8c0.6-1,1.5-1.8,2.5-2.5c2.1-1.6,5-2.6,6.4-4.9c2.1-3.3,0.6-8.1,2.6-11.5
	c0.6-1,2.3-0.3,3.1,0.6s1.1,2.1,1.6,3.1c2.4,5.4,8.9,7.4,14.7,8.8c4.6,1.1,10.1-0.5,14,2.2c2.8,1.9,1.3,7.1,3.7,9.4
	c2.9,2.7,4.8,4.8,5.1,8.8c0.3,3.9-0.8,7.8-1.7,11.7c-0.3,1.2-0.5,2.5-0.2,3.8c0.5,2.1,2.6,3.9,2.2,6c-0.5,2.6-5.1,3.8-4.5,6.4
	c0.7,2.9,3.8,5.6,6.7,5c1.5-0.3,2.6-1.5,4-2c1.4-0.5,3.5,0.2,3.3,1.7c-0.1,0.7-0.6,1.2-1.1,1.6c-1.4,1.1-3.1,1.9-4.6,3
	s-3.8,3.6-2.4,4.7c3.8,2.9,9.3-2,13.6-4c0.6-0.3,1.2-0.6,1.7-1c0.6-0.6,0.9-1.3,1.2-2.1c2.4-5.8,4.8-11.7,4.7-18
	c0-1.9-0.1-4.2,1.4-5.4c0.6-0.5,1.3-0.7,1.9-0.9c3.3-1.2,6.3-3.1,8.8-5.6c1.2-1.2,3.4-3.3,4.3-1.9c1.8,2.9-2.6,7.7-0.3,10.2
	c3,3.3,8.4,3.7,12.8,3c3.6-0.6,6.1-3.7,8.3-6.6c1.4-1.9,2.8-3.7,4.3-5.6c0.8-1,1.6-2.1,2.6-2.8c2-1.4,4.5-1.5,6.8-2
	c3.7-0.9,7-2.9,10.2-5c3.1-2,6.2-4,8.8-6.7s4.4-6.2,4.4-9.8c0-1.7-0.4-3.3,0.1-4.9c0.9-3.2,4.7-5,5.5-8.3c0.4-1.8,0.5-4.5,2.3-4.4
	c0.7,0,1.2,0.6,1.8,0.9c3.1,1.9,6.9-0.8,9.5-3.3c1.7-1.6,3.4-3.3,5.1-4.9c1.8-1.7,4.3-5.3,5.2-7.6c0.9-2.3,1.1-5-0.1-7.1
	c-0.6-1-1.4-1.9-1.7-3c-0.2-0.9-0.1-1.9,0-2.8c0.7-5.5-6.7-10.6-4.1-15.5c1.3-2.4,5.6-0.1,7.7-1.8c1.3-1.1,2.3-2.5,3.6-3.6
	c3.1-2.7,7.9-3.6,9.5-7.4c1-2.4,0.4-5.1,0.2-7.7c-0.2-2.6,0.5-5.7,3-6.6c0.8-0.3,1.8-0.3,2.5-0.9c0.8-0.6,1.1-1.7,1.7-2.5
	c1-1.4,3-1.9,3.9-3.4c1.1-1.8-1.2-3.9-0.6-5.9c0.8-2.6,5-3.5,4.6-6.2c-0.2-1.1-0.9-2-1.2-3c-0.6-2.1,0.4-4.4,0.8-6.6
	c0.7-3.6-0.3-7.3-0.5-11c-0.2-3.7,0.7-11.5,3.9-9.8c3.5,1.9-1.8,8.9,0.8,11.9c1.6,1.9,4,3,5,5.3c1,2.3,1.8,4.9,3.8,6.4
	c0.3,0.2,0.6,0.4,1,0.4c0.8,0,1.3-0.8,2.1-1c1.6-0.4,2.4,1.7,3.1,3.2c0.9,1.7,3.2,1.9,4.5,3.3c0.4,0.4,0.4,1.3,0,1.7
	c-1.3,1.5-3.9,1.7-4.1,3.7s1.6,4.1,3.6,3.7c2.2-0.4,4-1.2,6.1-2c4.8-1.9,6.3-8.8,11.4-8.1c2.4,0.3,5.1,1.3,6.9-0.2"/>
<path fill="none" stroke="#E1E1E1" stroke-miterlimit="10" d="M279.9,178c-4.4,2.7-9,5.4-11.9,9.7c-2.9,4.2-4,9.4-7,13.5
	c-2.6,3.7-6.6,6.3-9.5,9.8c-0.8,1-1.6,2.2-2.6,3c-2.4,1.9-5.8,2-8.3,3.9c-2.2,1.6-3.2,4.3-4.5,6.7c-1.3,2.4-3.5,4.7-6.2,4.6
	c-3.1-0.1-5.1-3.2-6.4-6.1c-1.2-2.9-2.6-6.1-5.5-7.1c-4.8-1.6-9.8,4.2-14.7,2.8c-2.4-0.7-4-2.9-6-4.4c-1.3-0.9-2.8-1.5-4-2.5
	c-2.5-2-3.6-5.4-4.5-8.5c-0.3-0.9-0.5-1.8-0.4-2.7c0.3-2.1,2.7-3.3,4.7-4c5.1-1.8,10.4-3.2,15-6c2.1-1.2,4-2.7,6.2-3.6
	c1.7-0.6,3.5-0.9,5.2-1.6c1.6-0.6,2.9-1.7,4.3-2.6c3.6-2.3,7.6-4,11.8-4.8c1.7-0.4,4.3,1.2,5.9,0.7c2.3-0.6,3.8,0.1,6.2-0.1
	c1.4-0.1,2.2-2.1,3.6-2c1.4,0.1,1.7,1.8,2.6,2.9c0.9,1,2.7,0.1,4-0.5s2.3-1.8,2.1-3.1c-0.2-1.6-2.1-3-1.4-4.4c0.5-1,1.8-1.2,2.9-0.9
	c1.1,0.3,2,0.9,3.1,1c2,0.2,3.6-1.3,5.2-2.5c5.1-4,13.4-10.4,18.1-5.9c0.8,0.8-1,2-1.1,3.1c-0.1,2.5,2.9,5,1.7,7.2
	c-0.9,1.7-3.4-0.1-5.2,0.5C281.8,174.6,281.4,177.1,279.9,178z"/>
<path fill="none" stroke="#E1E1E1" stroke-miterlimit="10" d="M242.7,207.1c0.6-0.1,1.3-0.3,1.9-0.2c0.5,0.1,1,0.3,1.5,0.5
	c2.7,0.7,5.2-2,5.8-4.7c0.2-0.7,0.3-1.5,0.7-2.2c0.4-0.6,0.9-0.9,1.5-1.3c1.3-1,2.4-2.2,3.1-3.6c0.3-0.5,0.5-1.1,0.5-1.7
	c-0.1-1.1-1.4-1.8-2.5-1.7s-2.2,0.6-3.2,1.1c-2.7,1.2-5.7,1.7-8.6,2.1c-2.1,0.3-4.3,0.6-6.4,0.1c-0.9-0.2-1.8-0.6-2.7-0.6
	c-2.8,0-4.5,3-6.9,4.4c-2.1,1.3-5.1,1.6-6.4,3.7c-1.1,1.9-0.2,4.4,0.8,6.4c1.1,2.4,2.3,4.8,4.4,6.5c0.7,0.6,1.7,1.1,2.6,0.9
	c1.4-0.3,2.2-1.9,2.5-3.3s0.6-3,1.7-3.9c0.6-0.5,1.5-0.7,2.3-0.9C237.8,208.2,240.2,207.7,242.7,207.1z"/>
<path fill="none" stroke="#E1E1E1" stroke-miterlimit="10" d="M120.2,248.8c-2.7,0-5.4,0.1-8.1,0.1c-2,0-4.1,0.1-6,0.8
	c-2,0.8-3.7,2.3-5.9,2.3c-0.5,0-1-0.1-1.5,0.1c-0.4,0.2-0.8,0.5-1.1,0.9c-0.8,0.9-1.5,2.2-1,3.3c0.4,0.9,1.6,1.3,2.6,1.2
	c1-0.1,2-1.9,2.8-1.2c1.7,1.6,1.1,4.7,3.4,5.1c2.4,0.4,4.7-0.7,7-1.4c3.4-1.2,8,0.6,10.7-1.8c2.1-1.8,4.5-3.9,4.6-6.7
	c0-0.5-0.1-1.1,0.1-1.6c0.2-0.5,0.7-0.7,1-1.1c0.9-1.2-0.4-3.1-1.9-3.2c-1.5-0.1-2.9,0.9-3.9,2c-0.3,0.4-0.7,0.8-1.1,1
	C121.5,248.7,120.8,248.8,120.2,248.8z"/>
<path fill="none" stroke="#E1E1E1" stroke-miterlimit="10" d="M-7.4,264.7c2.1-0.2,4.2-0.3,6.4-0.4c3.1-0.1,6.3,0.1,8.9,1.8
	c2.4,1.6,3.9,4.3,6.1,6.1c2.3,1.8,4.7-0.4,7.6-0.2c3,0.1,3.7,4.9,6.6,5.5c1,0.2,2.1,0.3,3,0.9c0.9,0.6,1.4,1.6,1.9,2.5
	c1.1,2.1,2.2,4.2,3.3,6.2c1.3,2.4,2.7,5,5.3,5.9c4,1.4,8.1-2.1,9.9-5.8c1.8-3.8,2.5-8.2,5.1-11.5c1.5-1.9,3.5-3.3,5.2-4.9
	c6.6-6.1,9.4-15.4,15.5-22.1c1.5-1.6,3.1-3.1,4.3-4.9c1-1.5,1.6-3.3,2.2-5c1.7-4.8,3.4-9.7,5.1-14.5c0.5-1.5,1-3,2-4.3
	c0.8-1.2,2-2.1,2.8-3.3c0.7-1.1,1.1-2.4,1.7-3.6c0.6-1.2,1.4-2.4,2.2-3.5c4.1-5.9,8.4-11.6,12.6-17.4c3.9-5.3,7.7-10.5,11.6-15.8
	c3.4-4.6,11.2-2,15-6.2c0.8-0.8,1.2-1.9,2.1-2.7c1.5-1.3,3.7-1.3,5.7-1.2c13,0.4,26-1.1,38.6-4.4c1.2-0.3,2.4-0.7,3.5-1.3
	c1.2-0.7,2.1-1.8,3.2-2.7c2.8-2.6,6.3-4.2,9.8-5.8c7.3-3.4,15.2-6.9,23.1-5.2c1.4,0.3,2.7,0.7,4.1,0.5c2.8-0.5,4.3-3.5,6.5-5.4
	c5.4-4.5,14.2-1.5,20-5.5c2.2-1.5,3.9-4,6.4-4.9c5.7-1.9,11.1,5.3,17,4.2c3.5-0.6,5.8-3.8,8.9-5.5c4.5-2.4,10.4-1.2,14.7-4
	c2.6-1.7,4.2-4.5,5.5-7.3c3.8-8.1,6.2-16.9,8.5-25.6c0.5-1.7,0.9-3.4,1.4-5.1c2.7-10.2,5.5-20.5,8.2-30.7c0.2-0.6,1.6-1.5,1.4-2.1
	c-0.2-1.1-2.5-1.4-3.1-2.4c-0.7-1.3-1.3-3.2-0.3-4.3c3.9-4.4-0.7-11.5,2.1-14.2c2.4-2.3,5-2.9,4.6-6.2c-0.3-3.3,4.9-1.9,8.2-1.4
	c2.6,0.4,5.4-0.5,7.3,1.4s1,6.2,3.6,7.1c7.4,2.5,16.9-2.3,21.5-8.5c1.2-1.6-2-4.4-0.8-6.1c1.5-2.1,5-1.1,7.5-1.7"/>
<path fill="none" stroke="#E1E1E1" stroke-miterlimit="10" d="M-10.2,265c0.9-0.1,1.9-0.2,2.8-0.3"/>
<path fill="none" stroke="#E1E1E1" stroke-miterlimit="10" d="M-9,260.6c2.9,0.4,5.8,0.9,8.7,1.4c3.2,0.5,6.3,1.1,9.3,2.3
	c3.4,1.5,7.4,0.8,10.4,2.8c0.7,0.5-0.5,2.1,0.2,2.6c1.9,1.5,1.7-4.8,4.1-5.6c5.3-1.8,11.3,5.4,13.1,10.7c0.6,2,1.3,4.2,3.4,4.5
	c2.1,0.4,4.2-0.6,5.8-1.9c2.6-2.1,4.3-5,5.9-7.9c1-1.8,2.1-3.5,3.1-5.3c2-3.5,4.1-7,6.1-10.5c1.5-2.6,3.1-5.3,4.1-8.1
	c2.5-6.5,2.5-14,6.4-19.8c2.2-3.4,5.6-5.9,7.9-9.3c1-1.5,1.8-3.2,2.7-4.8c1.8-3.2,4.1-6.1,6.3-9c6.9-8.8,13.9-17.6,20.8-26.4
	c1-1.3,1.3-3.1,2.3-4.4c2.6-3.8,7.8-5,11.7-7.5c1.3-0.8,2.7-1.7,3.7-2.9c0.8-0.9,1.3-2,2.2-2.8c1.8-1.9,4.7-2.4,7.3-2.5
	c7.4-0.2,14.9,2,22.1,0.3c4-0.9,7.7-3,11.7-3.2c1.9-0.1,3.8,0.1,5.7,0c5.8-0.4,10.6-4.5,14.9-8.4c1-0.9,1.9-1.8,3.1-2.4
	c1.2-0.6,2.5-0.8,3.8-1.1c7.8-1.4,15.7-2.1,23.5-3.5c6.2-1.1,12.2-2.9,18.5-3.1c1.8-0.1,3.9-0.1,5.2-1.4c0.7-0.7,1-1.6,1.4-2.4
	c0.7-1.7,1.4-3.5,2.1-5.2c0.5-1.3,1.1-2.6,2.2-3.5c1.1-0.8,2.4-0.2,3.7,0.2c2.5,0.7,4.7-0.6,7.3-0.5c6.9,0.4,12.8-4.6,17.3-9.9
	c1-1.2,2.1-2.5,3.6-3.2c2.8-1.1,5.8,0.5,8.6,1.4c3.6,1.2,7.8,1.3,10.8-0.8c4.6-3.2,1.8-9-0.2-14.3c-0.7-1.9-1.6-2.8-1.8-4.8
	c-0.2-2,3.1-2.7,2.7-4.6c-0.3-2-1.7-3.6-2.8-5.3c-0.3-0.4-0.6-0.9-0.3-1.3c0.3-0.6,1.3-0.4,2-0.3c2.5,0.1,3.6-3.1,3.8-5.5
	c0.4-3.7,0.8-7.4,1.2-11.1c0.1-0.8,0.2-1.6-0.2-2.3c-0.4-0.7-1.3-1-2-1.4c-4.1-2.2-5.6-7.6-4.6-12.2s3.9-8.4,7-11.9
	c4.4-5.1,9.2-9.8,14-14.5c0.7-0.7,1.5-1.4,2.2-2.2c2.8-2.7,5.5-5.4,8.3-8.2c0.6-0.6,1.3-1.2,2-1c1.3,0.2,1.5,1.8,2.2,2.9
	c1,1.8,3.3,2.3,5.3,2.5c6.2,0.5,12.5-0.5,18.2-3c1-0.4,2.1-1,2.6-1.9c0.6-0.9-0.5-1.8-0.6-2.9c-0.4-2.7,5.3-0.3,7.7,1.1
	s5.7,2.7,7.6,0.7"/>
<path fill="none" stroke="#E1E1E1" stroke-miterlimit="10" d="M-9.7,255.8c2.2,0.4,4.3,0.9,6.5,1.5c4.5,1.3,9.2,3.3,13.6,1.9
	c4.7-1.5,7.9-9.2,12.6-7.6c2.6,0.9,3.2,5.2,5.9,6c0.8,0.2,1.8-0.8,2.4-0.3c1.7,1.4,3.5,2.6,5,1.1c1.6-1.5,1.9-3.8,2.4-5.9
	c0.6-2.4,1.7-4.7,3.1-6.8c0.6-0.9,1.5-1.8,2.5-1.6c0.7,0.1,1.3,0.8,2,0.8c0.7,0,1.2-0.5,1.6-1c3-3.3,5.9-6.9,7-11.2
	c0.7-2.6,0.7-5.5,2.1-7.9c0.4-0.7,0.8-1.3,1.3-1.9c5.6-7.3,11.3-14.6,16.9-22c2.1-2.8,4.3-5.5,6.4-8.3c2.6-3.4,5.3-6.8,7.9-10.3
	c1.7-2.3,5.6-2.1,5.9-5.1c0.3-3.3,1.5-7.7,4.2-9.7c2.7-1.9,6.1-3.1,8.2-5.6c2.3-2.7,3.2-6.9,6.6-7.9c1.3-0.4,2.8-0.2,4.1-0.8
	c1.1-0.6,1.8-1.9,2.8-2.8c1.5-1.3,3.5-1.6,5.5-1.8c16.9-1.7,34.5-1.4,49.8-8.6c4.2-2,8.2-4.5,12.7-5.4c11.3-2.4,23.7,4.9,34.2,0.1
	c6.5-3,10.2-9.7,14.4-15.4c4.2-5.7,11-13.3,16.9-9.3c1,0.7,3.1,1.5,4.2,0.7c1.2-0.9,2.2-2.4,3-3.7c2.5-3.8,5-7.5,7.5-11.3
	c2.9-4.3,5.8-8.8,6.9-13.9c0.8-3.9,0.5-8.2,2.6-11.7c1.3-2.2,3.5-3.8,5-5.9c1.5-2.1,2.2-5.2,0.5-7.1c-0.9-0.9-2.2-1.4-3-2.3
	c-1.3-1.4-1.3-3.6-0.9-5.6c1-6.5,4-12.6,6.9-18.6c4.4-9.1,9.3-18.7,17.9-24c2.9-1.8,6.3-3.1,8.6-5.6c2.4-2.5,0.2-6,1.1-9.3
	c0.9-3.4,6-4,6.6-7.5"/>
<path fill="none" stroke="#E1E1E1" stroke-miterlimit="10" d="M-8.9,249.7c1.5,0.1,3.1,0.5,4.6,0.5c2.7,0,5.3-1.1,7.8-2.2
	c3.2-1.4,6.4-2.8,9.1-4.9c3.5-2.7,6.2-6.4,10.1-8.6c3.7-2,8.5-2.8,10.5-6.4c0.7-1.2,1.1-2.7,2.2-3.5c0.6-0.4,1.4-0.6,2-1
	c1.2-0.9,1.2-2.8,1.9-4.1c1.3-2.4,4.4-2.8,7.1-3.6c5.7-1.6,10.3-5.8,14.5-10c3.9-4,7.7-8.1,10.4-13c0.9-1.6,1.7-3.3,2.9-4.7
	c1.2-1.5,2.9-2.7,4.3-4.1c2.9-2.7,3.6-7.2,6.8-9.6c2.7-2,5.5-4.5,6.1-7.8c0.6-3.3,0.7-6.9,3-9.3c1.2-1.2,2.8-1.9,4.1-2.9
	c5-3.5,7.1-9.9,10.7-14.9c4.6-6.3,12.2-10.5,20-10.9c1.7-0.1,3.4,0,5,0.6c1.7,0.7,3,1.9,4.4,3c9.6,7.4,23.6,8.3,34.1,2.3
	c4-2.3,7.5-5.5,12-6.6c6.5-1.7,13.1,1.5,19.5,3.3s14.8,1.6,18.1-4.2c1.5-2.6,1.6-5.8,2.5-8.7c1.3-4.1,4.4-7.5,7.3-10.7
	c2.6-2.8,6.1-6,9.9-4.9c2,0.6,3.6,2.3,5.7,2.8c3.7,0.8,6.9-2.6,8.8-5.8c5-8.1,8.3-17.3,9.6-26.7c0.5-3.4,0.7-6.9-0.4-10.2
	c-0.8-2.4-2.4-4.6-3.2-7c-2.7-7.8,2.1-16.1,7.4-22.4c5.4-6.2,11.9-12.3,13.4-20.4c0.3-1.4,0.4-2.9,1-4.3c0.7-1.7,2.2-2.9,3.5-4.3
	c5-5.1,8.5-11.6,9.9-18.6"/>
<path fill="none" stroke="#E1E1E1" stroke-miterlimit="10" d="M-8.5,240.5c6.7-1.3,12.9-4.6,17.7-9.4c2.1-2.1,4-4.6,6.7-5.9
	c1.8-0.9,3.8-1.3,5.5-2.2c3.4-1.8,5.5-5.6,9-7.3c2.6-1.2,6.8-0.6,8.6-2.8c1-1.2,1.3-2.8,2.3-3.8c2.1-2.2,6.5-1.6,8-4.3
	c0.4-0.8,0.5-1.7,1-2.4c0.8-1.3,2.3-2,3.8-2.2c5.4-0.6,7.7-4.6,9.4-9c1.7-4.2,4.6-7.8,6.5-11.9c0.7-1.4,1.3-2.8,2-4.2
	c3.5-7.5,9.2-14,14.2-20.5c1.9-2.5,4.1-4.8,5.4-7.7c0.7-1.6,1-3.2,1.4-4.9c0.8-3.3,1.8-6.6,2.7-9.9c0.9-3,2-6.3,4.6-8
	c0.7-0.4,1.4-0.8,1.9-1.4c0.7-0.8,0.7-2,0.9-3c0.5-4,2.6-7.8,5.8-10.4c1.6-1.3,3.8-2.3,5.7-1.5c0.5,0.2,1,0.6,1.6,0.7
	c1.3,0.4,2.5-1.3,3.9-1c2.3,0.4,4.2,3.2,6.4,2.4c1-0.4,1.7-1.1,2.6-1.7c2.3-1.5,4.7-0.7,7.5-0.7c1.9,0,4-2.9,5-1.4
	c2,3-1.4,7.4-0.2,10.7c0.9,2.7,5.7,0.1,8.3,1.2c1,0.4,1.7,1.2,2.5,1.9c4.6,4.4,10.9,7.1,17.3,7.4c2.7,0.1,5.5-0.2,8.2-0.5
	c2.8-0.3,5.9-0.7,8-2.7c1.5-1.5,2.4-3.7,4.3-4.5c1.6-0.7,3.6-0.2,4.6,1.3c1.7,2.3,4.6,3.4,7.2,4.3s6,0.7,8-1.3
	c1.9-1.8,2.4-4.6,3.3-7c2.5-7,8.5-13.5,6.9-20.7c-0.4-1.8-1.3-3.7-0.9-5.5c0.7-3.6,5.7-4.5,9.2-3.5c3.5,1.1,6.9,3.3,10.6,2.9
	c2.8-0.3,5.3-2,7.6-3.7c0.8-0.5,1.5-1.1,2-1.9c0.3-0.6,0.4-1.4,0.5-2.1c1-8.9,1-18-0.3-26.9c-0.3-2-0.6-4-0.1-5.9
	c0.7-3.3,3.5-5.6,5.8-7.9c2.4-2.4,6.4-6.4,4-8.7c-2.6-2.6-6.4,3.1-8.5,6.2c-0.6,1-1.3,1.9-2.2,2.6c-0.8,0.7-1.9,1.1-2.9,1.4
	c-1.6,0.6-3.2,1.3-4.8,1.9c-6.4,2.5-13.3,5.1-20.1,3.9c-2-0.4-3.9-1-5.8-1.3c-3.1-0.5-6.2-0.1-9.2,0.8c-7.4,2.1-13.9,6.7-21.3,9
	c-5.4,1.7-11.2,2-16.8,1.7c-2.2-0.1-4.3-0.3-6.5-0.2c-2.5,0.1-4.9,0.7-7.3,1.3c-12.9,3.3-35.4,12.1-37,14.9
	c-0.8,1.5-0.8,3.1-2.5,3.2c-1.7,0.1-3.4-0.8-5-0.3c-0.8,0.3-1.4,0.9-2,1.4c-2.1,2-4.3,4.1-6.4,6.1c-2,1.9-3.9,3.8-6.2,5.2
	c-9.6,6.1-22.3,3.7-33,7.7c-2.4,0.9-4.7,2.1-7.3,2.2c-2.6,0.1-5.1-0.9-7.7-0.9c-3.5-0.1-6.7,1.6-9.7,3.2c-2,1-4.3,2.9-3.5,5
	c0.3,0.7,0.9,1.2,1.4,1.8c2.4,2.9,1.7,7.1,0.9,10.8s-1.2,8.1,1.6,10.6c0.6,0.6,1.4,1,1.7,1.8c0.4,0.8,0.3,1.8,0.6,2.7
	c0.5,1.8,2.5,2.7,4.4,3s3.8,0.2,5.4,1c2.7,1.2,4.1,4.4,4.2,7.4c0.1,3-0.8,5.9-1.5,8.8c-0.7,3-1.1,6.2-2.7,8.9
	c-2.1,3.5-5.9,5.5-9.7,7.1c-9.2,3.9-19,6.1-28.8,8.1c-7.9,1.7-16.5,3.2-23.8-0.4"/>
<path fill="none" stroke="#E1E1E1" stroke-miterlimit="10" d="M57,175.5c-0.9,2.6-2.7,4.7-4.6,6.7c-1.9,1.9-4.4,3.3-6.8,4.4
	c-7.9,3.8-16.4,6.4-25.1,7.9c-3.9,0.6-7.9,1.1-11.4,2.8c-6.1,3-9.8,9.5-12.9,15.6c-0.3,0.5-0.6,1.1-0.5,1.7c0,0.7,0.4,1.3,0.7,1.9
	c1.6,3,0.1,8,3,9.6c4.1,2.3,8.5-4.1,11.9-7.4c1.4-1.3,2.5-2.8,3.9-4.2c6.3-6,16-7.3,22.2-13.4c1.7-1.7,3.1-3.8,5.1-5.2
	c2.3-1.7,5.3-2.2,7.9-3.3c3.5-1.4,6.7-3.9,8.9-6.9c1.8-2.5,2.8-5.3,3.4-8c1.8-7.9,6.4-14.7,9.9-21.9c0.3-0.6,0.6-1.2,1.1-1.6
	c0.5-0.4,1.1-0.5,1.6-0.7c2.9-1.1,4.8-3.9,5.7-6.9c1.1-3.9,0.7-8,0.4-12c-0.2-3.2-1-6.5-0.3-9.6c1-4.6-0.3-8.3,0.4-9.8
	c1-2.1,3.3-4.6,1.2-5.6c-2.5-1.2-12.2,4.6-15.5,10c-3.3,5.4-4.1,12.4-1.9,18.4c1,2.8,2.6,5.5,2.8,8.5c0.2,2.5-0.6,4.9-1.5,7.2
	c-1.1,3.2-2.2,6.5-3.3,9.7C61.8,168,58.7,170.9,57,175.5z"/>
<path fill="none" stroke="#E1E1E1" stroke-miterlimit="10" d="M373.5,213.4c-1.6,2.6-7.6,1.9-7.6,4.9c0,1.7,3.6,2,3.7,3.7
	c0,3.8-7,2.9-9.8,5.4c-0.3,0.2-0.5,0.5-0.6,0.8c-0.2,0.7,0.7,1.4,1.4,1.3c0.8,0,1.4-0.5,2-1c0.6-0.5,1.6-1.5,2-0.9
	c0.8,1.2-1.6,2.3-2.5,3.4c-0.9,1.1-2.4,2.8-1.4,3.9c0.7,0.7,1.8-0.8,2.8-0.7c0.8,0.1,0.2,1.6,0.2,2.4s0.4,1.8,1.2,1.8
	c0.3,0,0.5-0.2,0.8-0.2c1.1,0,1,1.7,1.6,2.6c0.4,0.7,1.3,0.9,2.1,1c1.4,0.2,2.8,0.1,4.1-0.3"/>
<path fill="none" stroke="#E1E1E1" stroke-miterlimit="10" d="M376,260.2c-2.5,0.6-5.1-0.3-7.6-1.1c-3.5-1-7.3-1.5-10.9-1.4
	c-0.3,0-0.6,0-0.9,0.1c-0.4,0.1-0.7,0.4-1,0.7c-0.9,0.7-2.4,0.4-3.2,1.2c-1.4,1.3-1.2,4.2-0.2,5.8c0.7,1.2,2.9,0.8,3.5,2.1
	c0.9,1.7-0.2,4.2,1.4,5.2c1.5,0.9,3.5,0.2,4.9-0.8c0.9-0.6,1.8-1.4,1.8-2.4c0-0.2,0-0.5,0.1-0.6c0.1-0.1,0.3-0.2,0.4-0.2
	c2.2-0.7,4.5-1.3,6.7-1.9c2.6-0.7,5.2-1.3,7.8-2"/>
<path fill="none" stroke="#E1E1E1" stroke-miterlimit="10" d="M376.2,51c-1.9,1.1-3.6,2.4-5.2,3.9c-1,1-2,2.2-2.1,3.6
	s1.7,1.4,2.7,2.4c1.1,1.2-2.5,2.4-4.1,1.9c-0.8-0.2-1.5-0.8-2.3-1.1c-2-0.8-4.2,0-6.1,1c-1.9,1-3.6,2.4-5.6,3
	c-0.6,0.2-1.2,0.3-1.7,0.7c-0.4,0.4-0.7,0.9-0.9,1.4c-1.4,3.1-4.3,7.4-1.9,9.9c1.4,1.6,3.8-1.4,4.9-3.3s3.6-5.1,4.8-3.4
	c2.2,3,5.6,3.8,7.2,7.1c0.5,1-1.4,1.7-1.6,2.8c-0.2,1.1,0.2,2.3,1.2,2.7c0.4,0.2,0.9,0.1,1.4,0.2c1.8,0.3,3,1.9,4.5,3.1
	s4,1.4,4.7-0.3"/>
<path fill="none" stroke="#E1E1E1" stroke-miterlimit="10" d="M327.6-13.7c-0.3,2.7,1.6,5.5,4.3,6.3c2.7,0.8,5.5-0.4,8.3-0.4
	c3.3,0.1,6.4,1.9,9.7,1.8c3.7-0.1,7-2.7,10.7-3.2c0.8-0.1,1.6-0.1,2.3-0.3c1.5-0.4,2.8-1.6,3.2-3.1"/>
<path fill="none" stroke="#E1E1E1" stroke-miterlimit="10" d="M300,147c-1,0.4-1.7,1.6-1.4,2.7c0.3,1,1.3,1.7,2.4,1.7
	c1-0.1,2-0.9,2.2-1.9c0.2-1-0.4-2.2-1.3-2.6C301.3,146.7,300.6,146.7,300,147z"/>
<path fill="none" stroke="#E1E1E1" stroke-miterlimit="10" d="M303.6,153c0.4-1.8,1.8-3.3,3.5-4.1c0.3-0.1,0.7-0.3,0.9-0.5
	c0.4-0.3,0.5-0.8,0.7-1.3c0.9-2.2,4.3-4.4,6-2.7c0.7,0.7-0.8,1.7-0.6,2.6c0.3,1.3,1.8,2.3,1.1,3.4c-0.3,0.4-0.7,0.7-1.1,1
	c-2.5,1.8-5.3,3.7-8.4,3.4C304.6,154.7,303.4,154,303.6,153z"/>
<path fill="none" stroke="#E1E1E1" stroke-miterlimit="10" d="M118.9,245.3c0.1,0.2,0.3,0.3,0.4,0.4c0.7,0.5,1.7,0.7,2.4,0.2
	c0.5-0.5,0.5-1.4,0.3-2.1c-0.3-1-1.5-1.5-2.4-1.1S118.3,244.4,118.9,245.3z"/>
<path fill="none" stroke="#E1E1E1" stroke-miterlimit="10" d="M196.9,110.2c0.6-0.1,1.1-0.1,1.6-0.4c0.5-0.3,0.9-0.7,1.3-1.2
	c1.6-2.1,4-5.1,2.4-7.1c-0.6-0.7-2.4-0.3-2.4-1.2c-0.1-2.7,3.4-4.4,2.5-7c-0.1-0.4-0.4-0.9-0.8-1c-0.5-0.1-0.9,0.2-1.3,0.5
	c-1.6,1.3-2,4.2-3.9,4.7c-2.7,0.7-5.8-1-8,0.8c-2.2,1.8-1.9,6.2-4.3,7.7c-3.9,2.4-9.1,3.5-13.4,6c-1.9,1.1-4.9,0.9-5.1,3
	c-0.2,1.7,1.6,2.9,2.7,4.2c0.5,0.6,1,1.2,1.7,1.4c1,0.2,1.9-0.7,2.7-1.2c2.1-1.3,4.8-0.6,7.2-0.9
	C186.2,117.9,190.6,111.2,196.9,110.2z"/>
<path fill="none" stroke="#E1E1E1" stroke-miterlimit="10" d="M166.8,74.4c0.7-1.1-0.5-2.5-1.8-2.6c-1.3,0-2.4,0.8-3.3,1.6
	c-0.3,0.2-0.5,0.5-0.8,0.8c-0.4,0.5-0.8,1.3-0.4,1.8c1.1,1.4,3.5,0,5.1-0.8C166,75,166.5,74.8,166.8,74.4z"/>
<path fill="none" stroke="#E1E1E1" stroke-miterlimit="10" d="M227.8,72.9c0.6,0,1.2,0,1.8-0.2c0.5-0.2,0.9-0.6,1.4-0.8
	c2.3-1.3,5.6-0.1,7.4-1.9c1.4-1.4,0.8-4.1-0.8-5.2c-1.6-1.2-3.9-1.1-5.7-0.5c-1.9,0.6-3.6,1.8-5.3,2.8c-1.4,0.8-2.9,1.5-4.2,2.5
	c-0.7,0.5-1.4,1.4-1.1,2.2c0.3,0.9,1.5,1,2.4,1.1C225.1,72.9,226.4,72.9,227.8,72.9z"/>
<path fill="none" stroke="#E1E1E1" stroke-miterlimit="10" d="M197.2,82c-0.7,0.6-1.5,1.4-1.8,2.3c-0.2,0.6-0.1,1.3,0.4,1.7
	c0.3,0.2,0.6,0.3,1,0.3c1.2,0,2.3-0.6,3.3-1.2c0.7-0.4,1.3-0.8,1.8-1.4c0.5-0.6,0.7-1.5,0.4-2.2c-0.4-0.9-1.6-1.3-2.5-1
	C198.8,80.7,198,81.4,197.2,82z"/>
<path fill="none" stroke="#E1E1E1" stroke-miterlimit="10" d="M-9.5,162.3c3.8,1,7.9,1.3,11.8,1c2.6-0.2,5.1-0.7,7.6-1.2
	c7.6-1.5,15.2-3,22.8-4.5c2.1-0.4,4.7-1.2,5-3.4c0.1-0.8-0.1-1.7,0.2-2.5c0.2-0.7,0.9-1.4,0.9-2.1c0-0.6-0.5-1.1-0.9-1.6
	c-3.1-3.1-6.6-5.7-10.4-7.8c-1.7-0.9-3.5-1.7-5-3c-3.2-2.7-0.9-7.9-3.2-11.3c-1.5-2.1-5.1,1-7.6,1.9c-3.6,1.3-7.3,2.1-11,2.4
	c-0.7,0.1-1.4,0.1-2-0.2c-0.6-0.3-1.1-0.9-1.5-1.4c-2.1-2.3-5.3-3.6-8.5-3.3"/>
<path fill="none" stroke="#E1E1E1" stroke-miterlimit="10" d="M-11.8,103c10.6-0.4,18-10.5,27.8-14.4c11-4.4,23.5-0.8,35.1-2.6
	c5.6-0.9,10.9-3,16-5.6c1.6-0.8,3.2-1.6,4.9-1.9c4.9-0.7,11.2,3.6,14.5-0.2c1-1.1,2.1-2.2,3.3-3.1c10-7.7,20.3-15,30.8-21.8
	c2.1-1.4,4.4-2.8,7-2.8c1.6,0,3.2,0.6,4.7,0.9c5.5,1,10.9-1.8,15.4-5.1c4.5-3.3,8.5-7.4,13.6-9.6c5.4-2.4,12.1-5.5,17.4-2.8
	c4.6,2.3,8.3,6.2,13.4,7c1.3,0.2,2.6,0.4,3.9,0.2c1.5-0.2,2.9-0.9,4.3-1.5c7.6-3,16.1-2.3,24.3-2.4c8.2-0.2,17.2-1.8,22.5-8
	c2.6-3.1,5.2-5.8,8.3-8.6c1.7-1.6,3.5-3.5,3.5-5.8c-0.1-1.5-0.9-3.3,0.1-4.4c0.8-0.8,2.2-0.7,3.2-0.2s2.3,1.9,3.2,1.2
	c2.6-2-0.4-6.5-1.3-9.7s0.2-6.2,0.9-9.4c0.4-1.8-2.9-2-4.6-1.5c-1.7,0.5-3.7,1.4-5.3,0.5c-0.5-0.2-0.8-0.6-1.3-0.9
	c-2.4-1.4-6.3,0.8-7.8-1.5c-0.3-0.5-0.4-1.1-0.9-1.6c-0.4-0.4-1.3-0.4-1.4,0.2"/>
<path fill="none" stroke="#E1E1E1" stroke-miterlimit="10" d="M144,41.3c-0.3-0.5-1-0.6-1.5-0.8c-2.6-1.3-5.7-1.6-8.5-0.8
	c-0.8,0.2-1.6,0.6-2.2,1.1c-0.4,0.3-0.8,0.8-0.7,1.4c0.1,0.6,0.8,0.9,1.2,1.5c0.4,0.6,0.5,1.4,1,1.8c0.5,0.5,1.3,0.4,2,0.2
	c2.5-0.6,5-1.4,7.3-2.6C143.3,42.7,144.5,42,144,41.3z"/>
<path fill="none" stroke="#E1E1E1" stroke-miterlimit="10" d="M147.5,34.6c-0.5,0.7-0.5,1.6-0.5,2.4c0,0.5,0.1,1,0.4,1.2
	c0.2,0.2,0.5,0.2,0.8,0.2c1.3-0.1,2.6-0.2,3.7-0.9c1.1-0.6,2.7-1.8,2.2-3c-0.8-1.7-3.5-1.4-5.3-0.8
	C148.3,33.9,147.8,34.2,147.5,34.6z"/>
<path fill="none" stroke="#E1E1E1" stroke-miterlimit="10" d="M145.2,37.7c0-0.5-0.2-1-0.6-1.2c-0.6-0.4-1.5-0.6-2-0.1
	c-0.6,0.5-0.5,1.6-0.2,2.3c0.3,0.6,1.2,0.7,1.8,0.5C144.7,39,145.2,38.4,145.2,37.7z"/>
<path fill="none" stroke="#E1E1E1" stroke-miterlimit="10" d="M-10.3,89.3c4.8-1.9,12-1.1,14.4-5.6c1.3-2.5,1.2-5.6,3.7-7
	s5.4-1.7,8.2-1.9c8.8-0.8,17.6-1.5,26.4-2.3c1.3-0.1,2.7-0.2,3.7-1c0.8-0.5,1.3-1.3,1.9-2.1c2.1-2.9,4.2-5.9,6.3-8.8
	c3.6-5.1,7.5-10.4,13.3-12.6c0.7-0.3,1.5-0.5,2.3-0.4c2.3,0.2,3.6,3.1,3.1,5.4c-0.5,2.3-2.2,4.1-3.8,5.8c-1.3,1.3-4.5,2.2-3.8,3.9
	c3.7,9.5,20.5-2,29.4-7.2c0.9-0.5,1.8-1.1,2.5-2c0.8-1.1,1-2.6,1.4-3.9c2.5-9.8,12.4-15.6,21.8-19.2c6.1-2.4,12.8-4.6,16.5-10
	c1.2-1.7,2-3.7,3.6-5s3.4,0.2,5.5,0.3c7.4,0.4,13.2-0.8,20-3.8c3.3-1.5,5.6-3.7,9.2-3.2c6.2,0.8,12.5,0.6,18.6-0.7
	c1.2-0.3,2.5-0.6,3.1-1.7c0.4-0.8,0.4-1.7,0.7-2.5c0.6-1.4,2.3-1.9,3.8-2.3c5.3-1.3,13.2,1,15.9-3.8c0.9-1.5-2.8-3.7-1.6-5
	c2.6-2.8,7-4.4,4.5-7.3"/>
<path fill="none" stroke="#E1E1E1" stroke-miterlimit="10" d="M174.4-13.4c-6.1,3.4-12.8,5.7-19.4,8c-6.8,2.3-13.5,4.6-20.3,6.9
	c-1.3,0.5-2.7,1-3.6,2c-0.7,0.8-1,1.9-1.6,2.8c-0.8,1.2-2.1,2.1-3.3,2.9c-8.5,5.6-17.1,11.1-25.6,16.7c-1.3,0.8-2.6,1.7-4,2.2
	c-1.2,0.5-2.5,0.7-3.7,1.1c-1.7,0.5-3.3,1.2-4.9,2c-0.8,0.4-1.6,0.9-2.5,1.1c-1.4,0.3-2.8-0.3-4.2-0.6c-8.1-2.1-16.3,2.2-23.5,6.4
	c-2.7,1.6-5.8,4-5.1,7c0.1,0.6,0.5,1.2,0.4,1.9c-0.1,0.7-0.6,1.3-1.1,1.7c-6.3,6-13,12.3-21.3,14.8c-4,1.2-8.2,1.5-12.3,2.3
	C6,68-5.4,74.1-16.5,80.1"/>
<path fill="none" stroke="#E1E1E1" stroke-miterlimit="10" d="M53,38.6c0.4-0.7-0.6-2.3-0.9-2.3c-2.4,0.3-5.7,3.7-3.7,5
	c0.6,0.4,1.4,0.3,1.6,0.2C51.2,40.8,52.3,39.8,53,38.6z"/>
<path fill="none" stroke="#E1E1E1" stroke-miterlimit="10" d="M-9.1,66.7c6.8-3.9,13.7-7.8,20.5-11.7c3.3-1.9,6.6-3.8,10.3-4.7
	c3.1-0.8,6.4-0.9,9.1-2.6c2.4-1.6,3.9-4.3,5.9-6.4c4-4.2,10.2-5.9,14.1-10.2c2.3-2.5,3.7-5.8,6.4-7.8c1.7-1.3,3.9-2,5.9-2.7
	c2.8-0.9,5.7-1.8,8.5-2.8c1.4-0.4,2.8-0.9,4.2-0.7c0.7,0.1,1.4,0.4,2.1,0.4c2.1,0,3.4-2.5,5.4-3.1c1.7-0.5,3.5,0.4,5.3,0.2
	c1.1-0.1,2.1-0.6,3.1-1.2c3.3-1.7,6.7-3.5,10-5.2c3.7-1.9,7.4-3.8,11-5.8c1.3-0.7,2.6-1.4,3.6-2.5c0.9-1,1.5-2.4,2.8-2.7
	c0.8-0.2,1.7,0.1,2.6,0.1c0.9,0,1.9-0.5,1.9-1.4c0-0.5-0.5-0.9-0.9-1.3c-2.1-1.8-5.8-2-6.9-4.5c-0.4-0.9,1-2.2,0.3-2.8
	c-0.6-0.6-1.7,0.4-2.2,1"/>
<path fill="none" stroke="#E1E1E1" stroke-miterlimit="10" d="M81.6-16c0.9,0.5,0.7,1.9,0.6,2.9c-0.3,4,4,5.5,7.8,6.7
	c1.2,0.4-0.3,2.3-1.4,2.9c-2,1.2-4.1,2.2-6.3,2.9c-3.7,1.2-7.6,1.7-11.4,2.6C58.2,5,46.9,12.1,36.1,19.4c-2.6,1.7-5.1,3.5-7.1,5.8
	c-1.4,1.6-2.6,3.6-4.2,4.9c-2,1.6-4.6,2.4-7,3.4c-2.4,1-4.8,2.5-5.8,4.9c-0.3,0.8-0.4,1.6-0.9,2.3c-0.4,0.6-1.1,0.9-1.6,1.4
	c-0.9,0.8-1.4,1.8-2.1,2.8c-3.9,5.7-11.7,6.8-18.5,7.5"/>
<path fill="none" stroke="#D6D6D6" stroke-miterlimit="10" d="M233,303.3c5.9,2.2,12.5-2.8,17.4-6.7c2.7-2.2,5.8-5.7,9-6.9
	c6.9-2.5,10.5-8.5,14.6-15.7c1.8-3.2,8.7-6.1,6.2-8.8c-3.1-3.2-2.4-5.6-0.9-9c1-2.2-3.6-2.8-4.3-5.2c-0.7-2.3-0.3-5.1,1.6-6.6
	c0.9-0.7,2.2-2.1,3-2.9c2.5-2.5,2.1-6.8-0.1-9.6c-2.5-3.1-10.1-7.3-7.1-13.1c0.7-1.4,3.5,1.4,4.6,0.3c2.4-2.4-2.2-7.9,7-13.2
	c0.8-0.4,4.6,0.1,5.2-0.4c4.4-3.6,1.4-6.1,2.9-8.5c3.8-5.8,10.1,0.5,11.7-3.7c0.7-1.8-4.4-4-2.8-5c1.6-0.9,4.8-1,4.4-4.9
	c-0.3-2.3-2-2.4,0-3.6c0.9-0.6,2,0.1,2.6-0.9s0.4-2.1,0.2-3.2c-0.1-0.4-0.3-0.9-0.2-1.3c0.2-1.1,1.6-1.4,2.6-1.5
	c1.3-0.2,2.8-0.6,3.3-1.8c0.5-1.3-0.2-2.6-0.6-4c-0.3-1.3,0.2-3.2,1.6-3.1c0.7,0.1,1.2,0.7,1.8,1.2c0.5,0.5,1.4,0.9,2,0.5
	c0.3-0.2,0.4-0.6,0.6-0.9c0.9-1.6,2.9-2,4.7-2.3c1.8-0.3,3.8-1,4.4-2.7c0.6-2-1.1-3.8-2.6-5.3c-1.4-1.5-2.7-3.9-1.3-5.4
	c0.8-0.8,2-1,3-1.5c2.6-1.3,3.8-5.1,6.7-5.5c0.9-0.1,1.8,0.1,2.7,0.1c2.5,0,5-1.9,7.5-1.3c0.9,0.2,1.8,0.8,2.6,0.5
	c0.9-0.3,1.3-1.3,1.3-2.3s0-1.9,0.4-2.7c0.4-0.8,1.6-1.4,2.3-0.8c0.8,0.7,0.2,2.2,0.8,3.1c0.6,1,2.1,0.7,3.2,0.4
	c1.3-0.5,2.7-0.9,4-1.4c0.3-0.1,0.6-0.2,0.8-0.4c1.1-0.8,0.7-2.5-0.1-3.5c-0.8-1-2-1.8-2.5-3s0.3-3.1,1.6-2.8c1.3,0.2,1.7,2.2,3,2.5
	c0.7,0.1,1.4-0.4,1.5-1.1c0.1-0.7-0.6-1.1-1.2-1.5c-1.5-1,1.1-3.8,0-5.2c-0.7-0.9-2-0.7-3.1-0.3c-1,0.4-2.1,1-3.2,0.7
	c-1.3-0.4-1.9-1.9-2.3-3.3c-0.8-2.7-1.6-5.5-3.4-7.6c-0.7-0.8-1.5-1.5-2.2-2.3c-1.7-2-2.8-4.6-2.9-7.2c0-1.1,0-2.2-0.4-3.1
	s-1.6-1.1-2.6-0.9c-1.5,0.2-3-1.2-4.3-2c-0.7-0.4-1.5-0.9-1.9-1.6c-0.4-0.6-0.6-1.3-0.7-2c-0.4-1.8-0.8-3.5-1.2-5.3
	c-0.2-1-0.5-2.1-1.1-2.9c-0.4-0.5-0.8-1-1.2-1.5c-1.5-2.2-0.6-5.1-0.1-7.7c0.5-3.1,0.3-6.3,0.9-9.4c0.6-3.1,2.5-6.3,5.6-7.1
	c1.3-0.3,2.7-0.2,4-0.5c1.3-0.2,2.7-1,3-2.3c0.2-1.1-0.3-2.3,0.1-3.3c0.6-1.6,3-1.5,4.4-2.5c0.5-0.4,0.9-0.8,1.4-1.1
	c1.9-1,4,0.9,6.2,1c1.1,0,2.1-0.5,3-1.1c1.5-1.1,2.7-2.6,3.5-4.3c0.5-1.3,0.8-2.7,1.7-3.7c0.5-0.6,1.3-1,2-1.4
	c2.4-1.4,5-2.6,7.6-3.6"/>
<path fill="none" stroke="#D6D6D6" stroke-miterlimit="10" d="M196.2,276.9c2.4-1.5,5.8-1.8,8.8-1.7c4.9,0.2,9.4,2.5,13.6,5.1
	c0.4,0.2,1.7,1.4,2,1.8c0.4,0.8-0.5,1.6-0.9,2.4c-0.5,1-1.2,2-1.5,3.1"/>
<path fill="none" stroke="#D6D6D6" stroke-miterlimit="10" d="M-8.1,314.7c2.3,0.1,4.4,0.8,5.6,2.8c1,1.6,0.9,3.7,1,5.6
	c0.2,3,0.8,6,1.8,8.9c0.9,2.5,2.4,5.2,5,5.6c2.1,0.4,4.3-0.2,6.4-0.9c7.5-2.8,15.5-0.5,23.5-0.2c2.3,0.1,4.6-0.3,6.4-1.8
	c2.6-2.2,3.2-5.6,6-7.5c2.8-2,9.2-1.8,12.7-1.9c8.9-0.2,9.8-4.5,13.1-4.5c5.1,0,7.4-0.6,11.7-3.8c5.1-3.7,17.8-0.2,20.2-2.2
	c1.7-1.4-0.9-5.7,0.8-7.5c3.5-4,11.8-7,16.6-7.8c7-1.2,4.9,4,10.4,2.8c2.3-0.5,4.8-1.3,8.1-0.8c7.4,1,15-5.8,16.2-7.7
	c1.3-2,11.5-4.3,13.5-8.7c0.6-1.3,1.8-2.2,3.2-2.8c3.6-1.5,10.1-2.7,13.6-0.9c1.6,0.8,5.6,1.2,5.1-0.8"/>
<path fill="#EAEAEA" stroke="#D6D6D6" stroke-miterlimit="10" d="M71.7,324.9c0.8-1.3,2.5-1.8,4-1.8s2.9,0,4.4-0.2
	c0.7-0.1,1.8-0.3,2.5-0.5c1.7-0.5,3.2-0.5,4.9-1.1c1.2-0.4,3.4-0.6,4.5,0.1c1,0.6,0.6,1.8,0.3,2.9c-0.3,1.1-1.2,2-2.1,2.6
	c-2.8,1.9-6.4,1.1-9.8,0.6c-2.4-0.3-4.9,0-7.4,0.4c-0.4,0.1-0.9,0.1-1.2-0.1c-0.1-0.1-0.2-0.2-0.2-0.3
	C71.2,326.7,71.2,325.7,71.7,324.9z"/>
<path fill="#EAEAEA" stroke="#D6D6D6" stroke-miterlimit="10" d="M28.6,332.5c2.5,0.4,5.2,0.8,7.6,0c3.4-1.2,5.8-5,5.2-8.6
	c0-0.3-0.1-0.6-0.3-0.8c-0.2-0.2-0.5-0.3-0.8-0.3c-0.8-0.1-1.6-0.3-2.4-0.2c-0.7,0.1-1.4,0.3-2.1,0.4c-0.7,0-1.5-0.2-1.8-0.9
	c-0.1-0.3-0.2-0.6-0.3-0.9c-0.3-0.6-1.1-0.7-1.8-0.8c-2.1-0.2-4.3-0.4-6.2,0.4c-2.8,1.1-4.6,4.4-4,7.4c0.1,0.5,0.3,1,0.7,1.4
	c0.5,0.5,1.2,0.5,1.8,0.9c0.5,0.3,0.9,0.7,1.3,1C26.3,332.1,27.5,332.3,28.6,332.5z"/>
<path fill="#EAEAEA" stroke="#D6D6D6" stroke-miterlimit="10" d="M13.3,293.5c-0.8,0.1-1.6,0.3-2.1,0.8c-0.8,0.9-0.5,2.4,0.1,3.5
	c0.3,0.6,0.8,1.3,0.7,2c0,0.7-0.8,0.7-1.4,1c-0.6,0.3-0.8,1.2-0.9,1.8c-0.2,1.2,2.1,1.2,3.1,0.6s1.7-1.7,2.7-2.4
	c1.6-1.1,4.1,0.1,5.5-1.2c1.4-1.3-0.8-3.7-2.3-4.8S15.2,293.3,13.3,293.5z"/>
<path fill="#EAEAEA" stroke="#D6D6D6" stroke-miterlimit="10" d="M220,254.3c0-0.2,0-0.5-0.1-0.7c-0.2-0.8-1.1-1.3-2-1.3
	c-0.9,0-1.6,0.5-2.4,0.9c-2.4,1.3-4.8,2.4-7.3,3.4c-1.2,0.5-2.4,0.9-3.4,1.7c-2.1,1.7-2.8,4.4-3.3,7c-0.3,1.2-0.4,2.9,0.8,3.4
	c0.6,0.3,1.3,0.1,1.9-0.1c4.4-1.2,8.8-2.8,12.9-4.8c1.1-0.5,2.3-1.1,3.2-2c0.9-0.9,1.5-2.1,1.3-3.4C221.4,257,220.1,255.8,220,254.3
	z"/>
<path fill="#EAEAEA" stroke="#D6D6D6" stroke-miterlimit="10" d="M291.9,353.4c1.1-0.9,2.3-2.3,1.7-3.6c-0.4-0.8-1.6-1.2-2.4-0.6
	c-0.5,0.3-1,0.7-1.1,1.3c-0.3,1.8-1.6,1.9-2.7,2.4c-1.1,0.5-2.4,2.2-1.6,3.1C287.3,357.8,290.1,354.9,291.9,353.4z"/>
<path fill="#EAEAEA" stroke="#D6D6D6" stroke-miterlimit="10" d="M248.5,339.5c1.1,0.3,2.1,1.2,3.1,0.7c1.1-0.5,1.8-1.9,1.5-3.2
	c-0.2-1.2-1.2-2.3-2.4-2.7c-0.9-0.3-1.8-0.4-2.7-0.3c-1.2,0-2.1-0.3-3.2,0c-0.3,0.1-1.1,0.7-1,1c0,0.1,0.1,0.2,0.3,0.3
	c0.5,0.4,1.3,0.3,1.7,0.7c0.4,0.4,0.2,0.9,0,1.4c-0.6,1.4-2.9,1-4.2,1.8c-0.7,0.4-1.9,1.2-1.5,2c0.8,1.8,3.8,0.1,5.6-0.6
	C246.6,340.3,247.5,339.3,248.5,339.5z"/>
<path fill="#EAEAEA" stroke="#D6D6D6" stroke-miterlimit="10" d="M246.5,326c0,1,0.1,2.1,0.1,3.1c0,0.6,0,1.1,0.3,1.6
	c0.4,0.6,1.1,0.8,1.7,1.1c0.8,0.3,1.7,0.5,2.5,0.4c0.9-0.1,1.7-0.5,2.1-1.3c0.2-0.4,0.3-0.9,0.3-1.3c0.1-1.3,0.9-2.6,0.4-3.8
	c-0.9-1.9-4-1.7-6.1-1.5c-0.3,0-0.7,0.1-0.9,0.3C246.5,324.9,246.5,325.5,246.5,326z"/>
<path fill="#EAEAEA" stroke="#D6D6D6" stroke-miterlimit="10" d="M168.7,326.6c0.1,0.9,0.5,1.7,1.1,2.4c0.8,0.8,1.9,1.1,2.9,1.4
	c0.7,0.2,1.5,0.3,2.1,0c0.6-0.3-0.1-2-0.7-2.3c-2-1-2.2-2.5-4.4-2.6c-0.3,0-0.6,0.1-0.8,0.3C168.7,326,168.7,326.3,168.7,326.6z"/>
<path fill="#EAEAEA" stroke="#D6D6D6" stroke-miterlimit="10" d="M123.9,311.8c1.2-0.4,0-2.6,0.6-3.7c0.4-0.7,1.6-0.1,2,0.5
	c0.4,0.6,0.5,1.5,0.5,2.2c0,0.6,0,1.2-0.3,1.7c-0.2,0.4-0.5,0.6-0.9,0.8c-2.2,1.5-5.5,2.9-7.6,1.3c-0.9-0.7-0.7-2.1-0.4-3.2
	c0.2-1,1.7-2.5,2.1-1.5C120.3,310.8,122.5,312.3,123.9,311.8z"/>
<path fill="#EAEAEA" stroke="#D6D6D6" stroke-miterlimit="10" d="M161.2,300.9c0.2,1.1,1.2,2,2.2,2.6c0.5,0.3,1.1,0.5,1.7,0.2
	c0.2-0.1,0.4-0.3,0.5-0.5c1.4-1.6,3-4.3,1.6-5.9c-0.9-1.1-2.9-0.6-4.1,0.1C161.8,298,160.9,299.5,161.2,300.9z"/>
<path fill="#EAEAEA" stroke="#D6D6D6" stroke-miterlimit="10" d="M178.7,305.2c0.2,0,0.3,0,0.5,0c1.2-0.2,2.6,0,3.6-0.6
	c1.2-0.7,0.2-3.1-1.2-3.5c-1.3-0.3-2.7,0.7-3.3,1.9C177.9,303.7,177.8,305,178.7,305.2z"/>
<path fill="#EAEAEA" stroke="#D6D6D6" stroke-miterlimit="10" d="M192.3,287c-0.3,0.3-0.9,0.9-0.5,1.2c1.2,1,5,2.4,6.9,1.7
	c1-0.4,1.2-2.1,0.5-2.8c-0.3-0.3-0.8-0.4-1.3-0.4c-0.8-0.1-1.5-0.2-2.3-0.3C194.4,286.2,193.1,286.1,192.3,287z"/>
<path fill="#EAEAEA" stroke="#D6D6D6" stroke-miterlimit="10" d="M193.6,275.7c-1.2-0.2-2.3,0.4-3.4,0.9c-0.4,0.2-0.9,0.4-1.1,0.9
	c-0.2,0.4-0.1,1,0.1,1.4c0.5,1.1,1.7,1.8,2.9,1.7c1.1-0.1,2-0.7,2.8-1.5c0.6-0.6,1.5-1.5,1-2.2C195.4,276.1,194.4,275.8,193.6,275.7
	z"/>
<path fill="#EAEAEA" stroke="#D6D6D6" stroke-miterlimit="10" d="M219,295.5c2.1,0.9,3.5,2.6,5.4,3.9c0.6,0.4,1.2,1.2,1.9,1.5
	c0.7,0.3,1.3,0.6,2,0.9c0.7,0.3,3.8,1.6,4.6,1.4c0.8-0.2-2.2-3.5-2.8-3.7c-1.8-0.8-2.5-3-4.1-4.2c-0.4-0.3-0.9-0.6-1.4-0.9
	c-1.1-0.7-2.1-1.5-3-2.4c-1.4-1.5-2.3-4.5-4.3-4.3c-1.1,0.1-2.3,1.7-1.8,2.6c0.6,1,2.6,0.9,2.6,2.1c0,0.8-0.6,1.6-0.3,2.4
	C218,295.1,218.5,295.3,219,295.5z"/>
<path fill="#7BBCEB" stroke="#4E9BD7" stroke-miterlimit="10" d="M141.9,182.1c-0.5,0.3-1.1,0.7-1.3,1.3c-0.4,0.9,0,2,0.4,3
	c0.6,1.2,1.2,2.4,2.2,3.3c2.1,1.8,5.2,1.4,8,0.9c1.8-0.3,3.3-0.3,5.1-0.5c2.5-0.2,5-1,7.8-0.3c0.5,0.1,1.4,0.4,1.9,0.4
	c0.4,0,0.7-0.3,1.1-0.4c0.9-0.3,1.8,0,2.7,0.2c1.4,0.4,3,0.6,4.4,0.3c1.5-0.3,2.9-1.2,3.4-2.6c0.2-0.5,0.3-1.1,0.7-1.5
	c0.3-0.4,0.8-0.6,1.3-0.8c1.9-0.9,4.4-1.8,6.1-0.4c0.5,0.4,0.8,0.9,1.4,1.1c0.6,0.2,1.2,0,1.8-0.1c1.9-0.6,4-0.8,5.8-1.4
	c1.2-0.4,2.1-1,3.3-1.4c6.1-2,12-4.5,17.6-7.6c0.4-0.2,0.9-0.5,1-1c0.3-1.1-1.3-1.6-2-2.5c-0.9-1.2,0-2.9,0.8-4.1
	c0.5-0.7,1.1-1.5,1.9-1.7c0.5-0.1,1.1,0,1.6-0.3c0.8-0.4,0.9-1.5,1.3-2.3c0.9-1.6,3.1-1.5,5-1.6c1.8,0,5.4-1.3,4.1-2.6
	c-0.5-0.5-3.6-0.6-5.3-0.9c-0.5-0.1-1-0.2-1.5-0.1c-1.1,0.2-2.1,1.1-3.1,0.7c-0.4-0.2-0.7-0.5-1.1-0.8c-1.2-1-2.9-0.6-4.3,0
	c-1.5,0.5-2.8,1.1-4.1,1.9c-4.9,3.3-10.5,4.3-16.1,6.6c-2.2,0.9-4.6,2.1-6.8,3c-2.5,1.1-5.1,1.7-7.8,2.4c-2.7,0.7-5.4,1.3-8.2,1.4
	c-1,0-2.1-0.1-3.1,0.2c-0.6,0.2-1.3,0.5-1.9,0.7c-1.6,0.4-3.3-0.2-4.9,0.1c-1.5,0.3-2.8,1.3-4.3,1.8c-1,0.3-2.1,0.3-3.2,0.5
	C149.3,177.2,145.5,179.7,141.9,182.1z"/>
<path fill="none" stroke="#D6D6D6" stroke-miterlimit="10" d="M345.9,106.8c0.1-0.1,0.1,3.7-0.6,4.8c-0.7,1.1-1.5,2.4-1.2,3.6
	c0.1,0.7,0.6,1.4,0.3,2c-0.3,0.6-1.1,0.8-1.4,1.4c-0.2,0.4-0.1,1-0.1,1.5c0,1.5-1.4,2.6-2.6,3.6c-1.2,1-2.3,2.5-1.7,3.9
	c0.3,0.9,1.7,1.7,1.2,2.5c-0.4,0.6-1.2,0.7-1.8,1.1c-0.2,0.1-0.4,0.3-0.5,0.5c-0.2,0.5,0.3,1,0.6,1.5c0.3,0.5,0.2,1.2-0.1,1.7
	c-0.4,0.5-0.9,0.7-1.4,1s-0.9,1-0.6,1.5c0.1,0.3,0.4,0.4,0.7,0.6c1.1,0.9,0.7,2.7,0.2,4"/>
<path fill="#EAEAEA" stroke="#D6D6D6" stroke-miterlimit="10" d="M224.7,63.3c0.4-0.5,0.5-1.4-0.1-1.6c-0.2-0.1-0.5-0.1-0.8-0.1
	c-1.4-0.1-2.2-2-3.6-2.3c-0.6-0.1-1.2,0.1-1.8,0.2c-2.4,0.8-4.8,1.5-7.2,2.3c-0.6,0.2-1.2,0.4-1.5,1c-0.2,0.4-0.2,0.9-0.4,1.3
	c-0.4,0.8-1.3,1-2.2,1.3c-1.9,0.7-3.5,2.1-4.4,3.9c-0.4,0.7-0.6,1.5-0.5,2.3s0.6,1.6,1.4,1.8c0.7,0.2,1.4-0.1,2-0.4
	c2-0.9,3.9-1.9,5.7-3.1c2.3-1.5,4.5-3.4,7.2-4.1C220.7,65.2,223.4,65.2,224.7,63.3z"/>
<path fill="#EAEAEA" stroke="#D6D6D6" stroke-miterlimit="10" d="M191.6,73.9c-2.4,0.5-4.8,1.1-6.9,2.3c-2.1,1.2-4.1,2.9-6.5,2.8
	c-0.4,0-0.9-0.1-1.2-0.4c-0.4-0.3-0.6-0.8-1-1.1c-1-0.7-2.2,0.2-3,1.1c-1.1,1.1-3.5,2.6-2.6,3.9c0.7,0.9,5.8-1.2,8.8-1.2
	c1.3,0,2.8,0.3,3.8-0.6c0.4-0.4,0.7-0.9,1.2-1.2c0.6-0.3,1.2-0.1,1.8-0.1c1.6,0,2.8-1.3,4.3-1.8c1.8-0.6,4,0.1,5.4-1.1
	c0.8-0.7,0.1-2.2-0.9-2.6C193.8,73.5,192.7,73.7,191.6,73.9z"/>
<path fill="#EAEAEA" stroke="#D6D6D6" stroke-miterlimit="10" d="M213.2,298.5c0.7,0.3,1.5,0.1,2.2,0c0.1,0,0.2,0,0.3-0.1
	c0.4-0.2,0.4-0.9,0.1-1.3c-0.7-1.1-2.3-1.6-3.5-1.1c-0.5,0.2-0.9,0.6-0.9,1.1C211.4,297.7,212.7,298.3,213.2,298.5z"/>
<g>
	<g>
		<path fill="none" stroke="#585858" stroke-miterlimit="10" d="M-8.6,286.1c0.6-0.1,1.3-0.3,2-0.3"/>
		<path fill="none" stroke="#585858" stroke-miterlimit="10" stroke-dasharray="4.0017,1.0004" d="M-5.6,285.7c0.7,0,1.3,0.1,2,0.2
			c3.9,1,7.3,3.3,10.5,5.8c2.7,2.1-1,6.9,0.2,10c0.8,2.2,3.1,3.6,4,5.8c0.7,1.6,0.5,3.4,0.6,5.1c0.3,7.5,5.2,14,10.4,19.5
			c0.7,0.7,1.4,1.5,2.4,1.7c0.8,0.2,2.2,0.3,3.1,0.3c3.8,0,7.1,1.4,10.7,0.1c4.7-1.7,5.8-8.5,10.5-10.3c3.1-1.2,9.2-0.2,9.6-1.8
			c0.3-1.6-2.7-3-2.1-4.5c0.5-1.2,3.6,1.7,12.8-10c1-1.2,2-2.4,3.3-3.3c1.3-0.9,2.8-1.3,4.3-1.8c4.3-1.4,9.3-2.7,13.3-0.5
			c0.9,0.5,1.8,1.2,2.8,1.5c1.9,0.7,4,0,6.1-0.4c2-0.4,3.8,0.5,5.7,1.3c3.1,1.2,5.6-3,8.6-4.4c7-3.2,13.1-2.8,20.4-7.7
			c6-4.1,12.8-7,18.8-8.5c3.8-1,10.3,1.9,15.8-1.8c2.2-1.5,4.5-3.2,7.1-3.7c2.7-0.5,5.6,0.5,8.3-0.1c2.8-0.7,4.8-2.9,6.7-5.1
			c1.7-2,3.5-4,5.2-6c3.2-3.7,5.6-8,9.3-11.2c0.6-0.5,2.1-1.1,2.8-1.5c3-2.2,6.4-3.8,10-4.6c3.6-0.9,7.3-1.4,10.8-2.8
			c3.2-1.3,6.1-3.3,9-5.2c4.3-2.9,8.6-5.9,12.6-9.1c0.8-0.7,1.7-1.3,2.5-2c2-1.7,4.1-3.4,6.1-5c3.1-2.6,6.6-4.7,9.7-7.1
			c2.9-2.3,6-4.8,7-8.4c0.9-3.4-0.2-7.3,1.3-10.6c0.3-0.6,0.6-1.1,1.2-1.5c0.5-0.3,1.1-0.4,1.6-0.6c4.7-1.2,9-4.1,12-8
			c1-1.4,1.9-2.9,3.3-4c0.9-0.7,2-1.1,2.9-1.8c2.6-1.7,5.9-4.8,6.8-7.7c1-3.2,5.4-7.3,2.7-9.3c-0.8-0.6-2.4,1.4-3,0.6
			c-1.2-1.4-0.6-3.2-1.6-4.7c-1.3-2,1.8-4.4,4.1-5.2s4.8-0.9,6.9-2.1c3.9-2.2,4.9-7.7,3.5-12c-0.6-1.8-1.4-3.5-1.3-5.4
			c0.1-1.9,1.3-3.6,2.7-5c0.4-0.4,0.9-0.8,1.1-1.4c0.2-0.4,0.3-0.9,0.3-1.4c0.2-1.7,0.4-3.4,0.6-5.1c0.1-0.5,0.1-0.9,0.3-1.3
			c0.2-0.3,0.5-0.6,0.8-0.9c1.9-1.6,3.7-3.1,5.8-4.5c4.2-2.8,11.7-7.8,11.3-9.7c-0.3-1.1-2.5,1.3-3.3,0.4c-0.5-0.7,1.1-1.3,1.7-1.9
			c0.2-0.2,0.3-0.4,0.3-0.6c0-0.5-0.7-0.7-1.2-0.7c-1,0-2.5,0.8-2.9-0.1c-0.6-1.2,1.7-2.3,1.6-3.6c-0.1-1.5-1.3-2.5-2.4-3.5
			c-1-1-2.1-2.4-1.7-3.8c0.8-3.2-1.1-7.1-2.2-10.2c-0.4-1.1-0.9-2.2-0.8-3.3c0.1-1.2,1-2.3,0.7-3.5c-0.1-0.4-0.3-0.8-0.4-1.3
			c-0.2-0.8,0.2-1.6,0.5-2.3c1-2.6,1.3-5.3,1.9-8c0.7-2.7,1.8-5.4,4-7c1.6-1.1,3.5-1.6,5.2-2.4c1.8-0.8,3.5-2,4.1-3.8
			c0.2-0.7,0.2-1.5,0.4-2.2c0.6-1.7,2.3-2.6,4-3.1c1.6-0.4,3.2-0.6,4.8-0.5c1,0.1,2,0.2,3.1,0.1s3-0.7,2.5-1.6
			c-0.7-1.2-3.8,1.2-4.3-0.2c-1-2.8,4.4-4,6.6-6c0.7-0.7,1.4-1.3,2.2-1.8c1-0.7,2.2-1.2,3.3-1.7c2.5-1.2,4.7-2.9,6.9-4.6"/>
		<path fill="none" stroke="#585858" stroke-miterlimit="10" d="M373.4,31c0.5-0.4,1-0.8,1.6-1.3"/>
	</g>
</g>
<g>
	<g>
		<path fill="none" stroke="#585858" stroke-miterlimit="10" d="M186.6,276.8c0.5,0.4,1,0.9,1.4,1.4"/>
		<path fill="none" stroke="#585858" stroke-miterlimit="10" stroke-dasharray="3.9714,0.9929" d="M188.6,279
			c0.5,0.8,0.9,1.8,1.1,2.8c0.6,3.5-2.7,9.5,0.8,10.4c1.5,0.4,3.1,0.1,4.1,1.2c0.3,0.4,0.6,0.8,1.1,0.9c0.4,0.1,0.8-0.1,1.1-0.2
			c2.1-0.9,4.4-3.8,6.4-2.6c2.2,1.3-1.6,6.8,0.8,7.7c1.5,0.5,3.3,0,3.5,1.6c0.2,1.6-4,3.2-2.5,3.7c1.8,0.6,3.7-0.5,2.4,3.6
			c-1,3,6,2.4,9,3.2c0.8,0.2,1.7,0.5,1.9,1.3c0.1,0.4-0.5,2.4-0.4,2.8c0.3,1.4,3.3-0.2,3.9,1.1c0.3,0.7-0.4,1.4-0.6,2.2
			c-0.9,5.2-8.1,8.5-7.1,11.2c0.9,2.5,5.4-0.9,7.5-2.5c2.3-1.7,4.3-3.7,6-6c2-2.6,4.8-4.5,7.7-2.6c1.6,1.1,3.5,2.1,5.5,1.9
			c1.1-0.1,2.1-0.8,3-1.4c2.9-2,5.8-4.1,8.7-6.1c1-0.7,2-1.4,3.3-1.5c1.2-0.1,2.5,0.4,3.6,0.9c3.5,1.6,7.2,3.4,9,6.8
			c0.7,1.3,1.1,2.8,2.2,3.7c1.1,1,2.1-0.6,3.6-0.5c1,0,0.7,2.8,1.6,2.4c1.7-0.7,0-5.3,1.9-5.2c3.3,0.2,3.5,9,6.4,7.4
			c1.3-0.7-0.1-4.3,1.4-4.1c1.4,0.1,1.3,3.6,2.7,3.2c1.8-0.6,0.1-5.6,1.9-5.3c1.4,0.2,0.6,3.9,1.9,3.5c0.8-0.3,0-2.5,0.9-2.5
			c1.7,0,2.4,7.7,6,7.9c10,0.6,9.2-3,9.5-6c0.1-1.7,2.8,1.2,5.2-2.2c1.8-2.6,5.8-3.2,8.9-6.5c0.7-0.8,2-1.1,3-0.8
			c0.5,0.2,1,0.6,1.6,0.6c0.5,0,0.8-0.4,1.1-0.7c1.2-1.4,1.7-3.3,2.6-4.9c0.9-1.6,2.7-3,4.5-2.6c0.9,0.2,1.6,0.9,2.5,0.9
			c0.7,0,1.4-0.3,2-0.7c8-5.2,10.6-15.9,17.5-22.6c0.9-0.9,2-1.5,2.9-2.3c0.4-0.3,0.7-0.7,1.2-0.7c0.7-0.1,1.3,0.4,2,0.5
			c2.1,0.5,3.8-2.2,6-2.1c0.3,0,0.5,0.1,0.8,0c0.2-0.1,0.4-0.2,0.6-0.4c0.3-0.2,0.7-0.3,1-0.4"/>
		<path fill="none" stroke="#585858" stroke-miterlimit="10" d="M372.3,278.7c0.7-0.1,1.3,0,2,0.1"/>
	</g>
</g>
<text transform="matrix(1 0 0 1 16.7612 206.6514)"><tspan x="0" y="0" fill="#585858" font-family="'Verdana-Italic'" font-size="8">Mahan</tspan><tspan x="0" y="9.6" fill="#585858" font-family="'Verdana-Italic'" font-size="8">Peak</tspan></text>
<text transform="matrix(1 0 0 1 5.7023 211.9014)" fill="#585858" font-family="'Verdana-Italic'" font-size="8">×</text>
<text transform="matrix(1 0 0 1 233.5988 162.2266)"><tspan x="0" y="0" fill="#7BBCEB" font-family="'Verdana-Italic'" font-size="8">Mahan</tspan><tspan x="0" y="9.6" fill="#7BBCEB" font-family="'Verdana-Italic'" font-size="8">Lake</tspan></text>
<text transform="matrix(0.9115 -0.4113 0.4113 0.9115 139.9662 299.3716)" fill="#585858" font-family="'Verdana-Italic'" font-size="8">Falls</text>
<text transform="matrix(0.7922 -0.6103 0.6103 0.7922 248.613 292.4459)" fill="#585858" font-family="'Verdana-Italic'" font-size="8">Creek</text>
<text transform="matrix(1 0 0 1 315.9494 273.3262)" fill="#585858" font-family="'Verdana-Italic'" font-size="8">× 8279</text>
<text transform="matrix(1 0 0 1 225.4494 210.5262)" fill="#585858" font-family="'Verdana-Italic'" font-size="8">× 8273</text>
<text transform="matrix(1 0 0 1 70.8994 133.0262)" fill="#585858" font-family="'Verdana-Italic'" font-size="8">× 9085</text>
<text transform="matrix(1 0 0 1 112.6494 256.5762)" fill="#585858" font-family="'Verdana-Italic'" font-size="8">× 8096</text>
<text transform="matrix(1 0 0 1 226.4494 72.2762)" fill="#585858" font-family="'Verdana-Italic'" font-size="8">× 9056</text>
<path fill="none" d="M60.4,296.3c3.3-5.9,7.4-11.3,12.3-16c4.5-4.4,10.5-8.3,16.6-6.9"/>
<text transform="matrix(0.5957 -0.8032 0.8032 0.5957 66.0622 291.9825)"><tspan x="0" y="0" fill="#7D7D7D" font-family="'Verdana-Italic'" font-size="7">7</tspan><tspan x="4.3" y="0" fill="#7D7D7D" font-family="'Verdana-Italic'" font-size="7" rotate="3.7">8</tspan><tspan x="8.6" y="0.3" fill="#7D7D7D" font-family="'Verdana-Italic'" font-size="7" rotate="7.4">0</tspan><tspan x="12.8" y="0.8" fill="#7D7D7D" font-family="'Verdana-Italic'" font-size="7" rotate="12.3">0</tspan></text>
<path fill="none" d="M97.7,209.6c4.1-5.9,8.4-11.6,12.6-17.4c3.9-5.3,7.7-10.5,11.6-15.8"/>
<text transform="matrix(0.5844 -0.8115 0.8115 0.5844 102.4513 207.2432)"><tspan x="0" y="0" fill="#7D7D7D" font-family="'Verdana-Italic'" font-size="7">8</tspan><tspan x="4.4" y="0" fill="#7D7D7D" font-family="'Verdana-Italic'" font-size="7" rotate="0.2">0</tspan><tspan x="8.9" y="0" fill="#7D7D7D" font-family="'Verdana-Italic'" font-size="7" rotate="0.4">0</tspan><tspan x="13.3" y="0.1" fill="#7D7D7D" font-family="'Verdana-Italic'" font-size="7" rotate="0.5">0</tspan></text>
<path fill="none" d="M322.2,348.9c12.4-4.9,22.1-2.5,32.3-10.3"/>
<text transform="matrix(0.984 -0.178 0.178 0.984 331.9592 348.6846)"><tspan x="0" y="0" fill="#7D7D7D" font-family="'Verdana-Italic'" font-size="7">8</tspan><tspan x="4.4" y="0" fill="#7D7D7D" font-family="'Verdana-Italic'" font-size="7" rotate="0.1">2</tspan><tspan x="9" y="0.1" fill="#7D7D7D" font-family="'Verdana-Italic'" font-size="7" rotate="-3.2">0</tspan><tspan x="13.8" y="-0.2" fill="#7D7D7D" font-family="'Verdana-Italic'" font-size="7" rotate="-10">0</tspan></text>
<path fill="none" d="M280.4,49.3c1-6.5,4-12.6,6.9-18.6c4.4-9.1,9.3-18.7,17.9-24"/>
<text transform="matrix(0.3951 -0.9187 0.9187 0.3951 285.4142 40.9131)"><tspan x="0" y="0" fill="#7D7D7D" font-family="'Verdana-Italic'" font-size="7">8</tspan><tspan x="4.4" y="0" fill="#7D7D7D" font-family="'Verdana-Italic'" font-size="7" rotate="2.1">4</tspan><tspan x="8.8" y="0.2" fill="#7D7D7D" font-family="'Verdana-Italic'" font-size="7" rotate="2.7">0</tspan><tspan x="13.2" y="0.4" fill="#7D7D7D" font-family="'Verdana-Italic'" font-size="7" rotate="3.9">0</tspan></text>
<path fill="none" d="M322,212.1c-3.3-6-1.7-13.8,2.2-19.4c3.8-5.7,10.8-8.4,15.2-13.7"/>
<text transform="matrix(0.6645 -0.7473 0.7473 0.6645 326.0988 194.1534)"><tspan x="0" y="0" fill="#7D7D7D" font-family="'Verdana-Italic'" font-size="7">8</tspan><tspan x="4.1" y="0" fill="#7D7D7D" font-family="'Verdana-Italic'" font-size="7" rotate="9.3">0</tspan><tspan x="8.3" y="0.7" fill="#7D7D7D" font-family="'Verdana-Italic'" font-size="7" rotate="11.9">0</tspan><tspan x="12.8" y="1.7" fill="#7D7D7D" font-family="'Verdana-Italic'" font-size="7" rotate="8.5">0</tspan></text>
<path fill="none" d="M100.5,25.9c8.5-5.6,17.1-11.1,25.6-16.7"/>
<text transform="matrix(0.8375 -0.5464 0.5464 0.8375 105.6501 25.5938)"><tspan x="0" y="0" fill="#7D7D7D" font-family="'Verdana-Italic'" font-size="7">8</tspan><tspan x="4.4" y="0" fill="#7D7D7D" font-family="'Verdana-Italic'" font-size="7">2</tspan><tspan x="8.9" y="0" fill="#7D7D7D" font-family="'Verdana-Italic'" font-size="7">0</tspan><tspan x="13.3" y="0" fill="#7D7D7D" font-family="'Verdana-Italic'" font-size="7">0</tspan></text>
<path fill="none" d="M16,88.6c11-4.4,23.5-0.8,35.1-2.6"/>
<text transform="matrix(1 -6.355891e-03 6.355891e-03 1 27.8732 88.813)"><tspan x="0" y="0" fill="#7D7D7D" font-family="'Verdana-Italic'" font-size="7">8</tspan><tspan x="4.4" y="0" fill="#7D7D7D" font-family="'Verdana-Italic'" font-size="7" rotate="2">6</tspan><tspan x="8.8" y="0.2" fill="#7D7D7D" font-family="'Verdana-Italic'" font-size="7" rotate="2">0</tspan><tspan x="13.4" y="0.4" fill="#7D7D7D" font-family="'Verdana-Italic'" font-size="7" rotate="0">0</tspan></text>
<g>
	<g>
		<polyline fill="none" stroke="#7D7D7D" stroke-miterlimit="10" points="85.2,341.6 85.2,348.7 275.4,348.7 275.4,341.7 		"/>
		<line fill="none" stroke="#7D7D7D" stroke-miterlimit="10" x1="180.5" y1="341.4" x2="180.5" y2="348.7"/>
		<line fill="none" stroke="#7D7D7D" stroke-miterlimit="10" x1="161.2" y1="349.2" x2="161.2" y2="343.7"/>
		<line fill="none" stroke="#7D7D7D" stroke-miterlimit="10" x1="142.4" y1="349.2" x2="142.4" y2="343.7"/>
		<line fill="none" stroke="#7D7D7D" stroke-miterlimit="10" x1="123.3" y1="349.2" x2="123.3" y2="343.5"/>
		<line fill="none" stroke="#7D7D7D" stroke-miterlimit="10" x1="104.6" y1="349.2" x2="104.6" y2="343.7"/>
	</g>
	<text transform="matrix(1 0 0 1 83.7833 339.1469)" fill="#7D7D7D" font-family="'Verdana'" font-size="8">0</text>
	<text transform="matrix(1 0 0 1 174.2944 339.1469)" fill="#7D7D7D" font-family="'Verdana'" font-size="8">0.5</text>
	<text transform="matrix(1 0 0 1 258.3412 339.1469)" fill="#7D7D7D" font-family="'Verdana'" font-size="8">1 mi</text>
</g>
</svg>
