<?xml version="1.0" encoding="utf-8"?>
<!-- Generator: Adobe Illustrator 17.1.0, SVG Export Plug-In . SVG Version: 6.00 Build 0)  -->
<!DOCTYPE svg PUBLIC "-//W3C//DTD SVG 1.1//EN" "http://www.w3.org/Graphics/SVG/1.1/DTD/svg11.dtd">
<svg version="1.1" id="Layer_1" xmlns="http://www.w3.org/2000/svg" xmlns:xlink="http://www.w3.org/1999/xlink" x="0px" y="0px"
	 viewBox="0 0 360 360" enable-background="new 0 0 360 360" xml:space="preserve">
<path fill="none" stroke="#E1E1E1" stroke-miterlimit="10" d="M322.3,373.7c1.6-0.9,2.9-2.3,3.6-4c0.4-0.8,0.6-1.7,0.7-2.6
	c0-0.3,0.1-0.7,0.2-1c0.5-1.2,1.9-1.5,3.2-1.6c1.3-0.2,2.6-0.3,3.9,0c1.3,0.3,2.5,1.2,2.8,2.5c0.2,0.6,0.1,1.3,0.4,1.8
	c1,1.6,4,0.1,5.2,1.6c0.3,0.4,0.4,0.9,0.5,1.4c0.2,1.2,0.5,2.4,0.7,3.7"/>
<path fill="none" stroke="#E1E1E1" stroke-miterlimit="10" d="M365.7,369.6c-0.5-0.2-0.9,0.8-1.5,0.7c-0.1,0-0.2-0.1-0.3-0.2
	c-1.8-1.4-2.9-3.5-3.5-5.8c-0.5-2.2-0.5-4.6-0.4-6.8c0-0.4,0-0.9,0.2-1.3c0.2-0.4,0.5-0.6,0.8-0.9c1.6-1.4,3.5-2.6,5.5-3.4"/>
<path fill="none" stroke="#E1E1E1" stroke-miterlimit="10" d="M285.5,374.1c2.5-2.5,4.7-5.3,6.6-8.2c0.4-0.6,0.8-1.2,1.2-1.8
	c0.8-1,1.8-1.9,2.8-2.6c7-5.2,17.1-6,24.8-2c0.3,0.2,0.6,0.3,0.8,0.6c0.3,0.5,0.2,1.2,0,1.7c-1.2,4.3-2.6,8.5-4.1,12.7"/>
<path fill="none" stroke="#E1E1E1" stroke-miterlimit="10" d="M365.1,335c-2.2,3.1-3.8,6.7-6.6,9.3c-3.2,2.9-8.3,5.2-12.2,3.2
	c-1.6-0.8-2.6-2.3-3.9-3.5c-0.2-0.2-0.4-0.4-0.5-0.6c-0.2-0.5,0.3-1.1,0.7-1.5c2.1-2.3,2.4-6.3,0.2-8.6c-0.8-0.8-1.9-1.4-2.9-1.9
	c-3.6-1.8-7.1-3.7-10.7-5.5c-0.4-0.2-0.9-0.5-1.2-0.8c-0.5-0.4-0.8-1.1-1-1.6c-0.8-1.7-1.6-3.5-2.4-5.2c-0.6-1.3-1.8-3.4-2.9-2.5
	c-2.9,2.3-2.8,6.7-4.2,10.1c-0.2,0.4-0.4,0.9-0.7,1.2c-1.1,1-2.9,0.1-4.4,0.1c-3.1,0.1-5,4.2-8.1,3.9c-1.7-0.2-3.7-1.6-4.8-0.3
	c-0.2,0.3-0.4,0.6-0.5,1c-1.5,2.8-6.3,2.3-7.7,5.2c-0.5,1.1-0.3,2.5,0,3.7c0.7,2.2,1.9,4.2,3.8,5.5c1.9,1.3,4.3-0.4,6.4,0.5
	c2.5,1.1-2,4.8-4.3,6.2c-2.6,1.6-7,4.9-8.6,2.3c-1.5-2.5,7.4-5,5-6.8c-4-3-9.9,2.3-13.5,5.8c-1.4,1.4-2.7,3-4.2,4.3
	c-1.6,1.4-3.5,2.4-5.2,3.5c-5.1,3.4-9.1,8.5-11.2,14.2"/>
<path fill="none" stroke="#E1E1E1" stroke-miterlimit="10" d="M240.7,278.5c-1.9,0.8-4,0.8-6.1,0.9c-2.2,0.1-4.4,0.5-6.6,1
	c-1.2,0.3-2.4,0.7-3.1,1.6c-0.5,0.7-0.6,1.6-0.7,2.4c-0.6,4.4-1.2,8.7-1.8,13.1c-0.1,0.9-0.2,2,0.4,2.7c0.8,0.9,1.8,1.4,2.5,2.2
	c2.4,2.6,7-1.1,9.4-3.7s3.7-6,4.4-9.4c0.2-1.1,0.4-2.2,1-3.1c1.6-2.5,6.6-1.2,7.9-3.9c0.9-1.9,1.5-3.7,3.1-5c1.6-1.3,4.1-4,2.5-5.2
	c-1.7-1.2-4.2,0.3-6,1.4C245.2,274.9,243.4,277.4,240.7,278.5z"/>
<path fill="none" stroke="#E1E1E1" stroke-miterlimit="10" d="M190.2,364.1c-0.1,0.8,0.7,1.6,1.5,1.9c0.7,0.3,1.4,0,2.1,0.2
	c0.3,0.1,0.5,0.5,0.7,0.7c0.9,0.9,1.9,1.9,3.1,2.2s2.8-0.1,3.3-1.3c0.1-0.2,0.1-0.3,0.1-0.5c0-0.3-0.2-0.5-0.4-0.7
	c-0.6-0.5-1.4-0.4-2.1-0.8c-0.9-0.5-1.3-1.6-1.9-2.4c-1.3-1.6-3.8-1.9-5.4-0.6C190.6,363.1,190.3,363.6,190.2,364.1z"/>
<path fill="none" stroke="#E1E1E1" stroke-miterlimit="10" d="M177.5,374.8c1.8-1.2,0.9-4.2-0.7-5.7c-1.6-1.5-5.2-2.4-4.7-4.5
	c1.4-6.2,9.5-8.3,14.3-12.5c0.8-0.7,1.6-1.4,2-2.3c0.4-0.9,0.6-1.9,1-2.8c0.4-0.9,1.9-0.6,2.3-1.5c0.4-1.3-1.7-2.1-1.5-3.4
	c0.1-1.3,0.7-2.5,1.3-3.7c2.1-4.9,2.6-10.8-0.2-15.2c-1-1.5-2.4-3-2.5-4.8c-0.2-1.8,1.6-2.2,3.4-2.5c1.2-0.2,1.1-2.8,0.1-3.6
	c-1.1-0.8-3.4,0.8-4-0.5c-2-4.4,4.6-8.5,5.8-13.2c0.4-1.6,0.8-3.3,1.9-4.5c1.1-1.2,2.8,0.1,4.4-0.4c3.3-1.1,0.4-6.9,0.6-10.4
	c0.1-1.5,0.2-3-0.4-4.4c-1.3-3.1-5.2-4.1-7.7-6.3c-1.5-1.3-2.5-3-3.5-4.6c-1.9-3.1-3.8-6.2-5.7-9.3c-1.2-2.1-1-5.1-2.9-6.6
	c-2.6-2-7.7,3.7-9.6,1.1c-1.1-1.4-0.4-3.6-2-4.4c-1.6-0.8-3.6,0.3-5.3-0.3c-2.2-0.8-0.4-4.5,0.7-6.6c1.5-2.7,2.9-5.5,4.4-8.2
	c3.7-7,8.6-13.4,14.8-18.3c13.9-10.9,27.7-21.9,41.6-32.8c2.3-1.8,4.6-3.6,7.3-4.7c2.4-0.9,5-1.2,7.2-2.6c2.2-1.4,2.1-4,2-6.5
	c-0.2-4.5,8.5-4.4,10.4-8.5c1.5-3.3,5.1-4.4,6.5-7.7c0.5-1.2,0.3-2.6,0-4c-1.3-6.9,1.9-16.8-3.9-20.7c-4.3-2.9-10.5,2.3-13.7,6.3
	c-1.3,1.5-2.1,3.4-3.6,4.7s-4.6,2-5.3,0.1c-0.3-0.9,1.4-1.7,1-2.5c-1-1.9-4.6,2.7-6.2,1.2c-2.4-2.3,0.9-6.6,1.4-9.9
	c0.4-2.7,0.6-6-1.5-7.7c-2.1-1.8-6.9-0.6-7.5-3.3c-0.4-1.8,2.9-2.9,2.7-4.7c-0.7-6.5-12.7-4.2-18.9-2.4c-3.8,1.1-7.3,3.2-10.8,5.3
	c-10.2,6.1-20.6,12.4-28,21.7c-3.7,4.7-10.1,6.2-13.5,11.1c-2.3,3.3-3.1,6.8-5,10.3c-2.2,4-1.2,9-1,13.6c0.3,11.8-5.6,22.9-7.4,34.6
	c-1.4,9.1-0.4,18.7-4.2,27.1c-1.1,2.4-2.5,4.6-3.3,7c-0.6,1.8-0.9,3.6-1.3,5.4c-1.4,5.7-4.5,10.7-7.6,15.7
	c-2.5,4.1-6.8,5.6-11.1,7.8c-4.5,2.3-4.1,9.3-6.2,13.9c-1.4,3-3.3,6.6-5.3,9.2c-3.2,4-7.3,7.3-11.3,10.6c-3.5,2.8-8.2,2.3-11.9,4.7
	c-1.7,1.1-3.3,0.9-4.9,2.2c-4.6,3.9-5.9,12-10.5,16c-0.7,0.6-1.3,1.6-2.2,1.9c-0.6,0.2-1.3,0.2-2,0.4c-1.2,0.4-2,1.4-2.9,2.3
	c-2.8,2.7-6.8,3.7-10.6,4.5c-4.7,1.1-9.4,2.1-14.1,2.3c-4.3,0.1-8.6-0.5-12.8-1.2c-4.4-0.7-9.1-1.4-13.1,0.5
	c-2.7,1.2-4.8,3.5-6.7,5.8c-0.7,0.8-1.4,1.7-2.3,2.2c-0.7,0.4-1.5,0.6-2.4,0.8c-4.8,1.1-9.6,2.1-14.5,3.2"/>
<path fill="none" stroke="#E1E1E1" stroke-miterlimit="10" d="M-17.9,358.5c4.1-1.6,8.3-3.2,12.7-3.5c1.7-0.1,3.7-0.1,4.7-1.5
	c0.4-0.5,0.6-1.1,0.9-1.6c0.7-0.9,2-0.4,3-0.9c0.6-0.3,0-1.4,0.6-1.8c0.9-0.7,2.5,0.7,3.4,0c1.5-1.3,3.4-2.8,4.6-1.1
	c0.4,0.6,0.5,1.3,1,1.7c0.8,0.7,2,0.5,3,0.3c2.6-0.6,5.3-1.2,7.9-1.9c1.4-0.3,2.7-1,4.1-1.4c3.5-1,7.3-0.2,11-0.4
	c2.3-0.1,4.7-0.2,6.9-1.1c2.2-0.9,2.6-3.5,4.2-5.2c1.2-1.2,5.7-0.3,7.7-1.7c1.9-1.4,3.3-6.2,5.8-6.8c6.5-1.6,7-6,8.3-10.3
	c0.4-1.2,2.5,0.1,3.3-0.8c0.8-0.9,1.3-2.2,2.2-3c1.6-1.5,4.1-1.5,6.4-1.3c3.4,0.2,6.7,0.5,10.1,0.7c1,0.1,2.1,0.2,2.9,0.8
	s0,1.6,0.2,2.6c0.7,3.6,9.4-1.9,10.8,1.5c0.5,1.2-1.8,2-2,3.2c-0.2,1.3,1.1,1.8,1.8,2.9c0.5,0.7,1.4,1,2.2,1c0.8,0,1.7-0.3,2.4,0.2
	c0.8,0.7,0.5,2,0.5,3c0.2,2.4,3.1,3.6,5.5,4c0.6,0.1,1.2,0.2,1.8-0.1c1.6-0.8,0.9-3.3,2.1-4.6c0.4-0.4,1-0.7,1.4-1
	c0.8-0.7,1.2-1.7,1.5-2.7c2.6-7.6,5.2-15.2,7.8-22.8c1-2.8-0.9-6.8,1.3-8.8c0.8-0.7,1.2-1.5,1.7-2.4c0.3-0.6,0.9-0.9,1.5-1.2
	c2.6-1.4,5.3-2.7,7.9-4.1c0.6-0.3,1.2-0.6,1.8-0.7c0.7-0.1,1.5,0,2.2-0.2c2-0.6,2.6-3,3.6-4.9c0.9-1.7,2.4-4,4.3-3.6
	c2.8,0.6,4.1,3.9,6.2,5.9c1.7,1.6,4,2,6.3,2.8c2.8,1,5.3,2.4,7.3,4.6c5.3,6,0.2,16.1-1.7,23.9c-1.1,4.5-2.6,8.8-3.1,13.4
	c-0.3,3.6,0,7.4,1.6,10.7c0.5,1.1,1.2,2.3,0.7,3.4c-0.2,0.5-0.6,0.8-1,1.2c-1.6,1.5-3.3,2.8-5.1,4.1c-3.7,2.7-7.7,5-11.6,7.4
	c-2.5,1.4-4.9,2.9-7.4,4.3c-2.3,1.4-4.7,2.8-7.3,3.6c-2.8,0.9-8.6,1.4-7.5,4.1c1.1,3,5.7,2.9,8.5,4.3"/>
<path fill="none" stroke="#E1E1E1" stroke-miterlimit="10" d="M-18.1,373.4c3.4-2.7,7.1-5.5,11.5-5.8c1.4-0.1,2.9,0.1,4.2-0.4
	c2.3-0.9,3.3-3.7,5.4-5.1c3.3-2.2,8.2-0.4,11.4-2.7c0.4-0.3,0.7-0.6,1.1-0.7c0.7-0.2,1.4-0.1,2.1,0.1c4.3,0.9,8.8,0.5,12.8-1.1
	c0.5-0.2,1-0.4,1.5-0.3c0.7,0.2,1.2,0.9,1.7,1.4c2.4,2.1,6.1-1.3,9.1-0.3c1.2,0.4,2.5,1.5,3.7,0.9c0.4-0.2,0.6-0.6,1-0.9
	c0.4-0.2,0.6,0.3,1.1,0.3c1,0.2,1.3-2.7,2-2c0.6,0.6,0.5,1.7,1.3,2.1c0.8,0.4,1.8,0.7,2.1,1.5c0.2,0.5,0.1,1.1,0,1.6
	c-0.2,1.4-1.8,3.2-0.7,4.1c2.3,1.9,6.9-3.9,8.9-1.7c1,1.2,1.8,3,1,4.4c-0.2,0.4-0.7,0.7-1.1,0.9c-1.5,1-2.4,2.8-2.4,4.5"/>
<path fill="none" stroke="#E1E1E1" stroke-miterlimit="10" d="M16.2,373.3c0.7-1.3,2.4-1.4,3.8-1.8c1.3-0.4,2.5-1.2,3.6-2.1
	c0.4-0.3,0.8-0.6,1.2-0.8c1.3-0.3,2.4,1.1,3.4,2.1c1.8,1.6,4.4,1.7,6.7,1.5c1.5-0.1,3.7-0.9,4.5,0.4c0.1,0.2,0,0.5,0,0.7"/>
<path fill="none" stroke="#E1E1E1" stroke-miterlimit="10" d="M364.9,132.2c-5.1,5.1-11.3,9.2-18.1,11.7c-3.1,1.2-6.3,2-9.6,1.8
	c-3.5-0.2-6.8-1.6-10.3-1.5c-3.5,0.1-8.7,3.1-7,6.1c1,1.7,4,3.7,2.7,5.1c-1.2,1.3-4,0.3-4.6,1.9c-0.6,1.5,0.6,3.2,1.9,4.1
	c1.3,0.9,3,1.5,3.9,2.9c2.2,3-0.4,7.7,1.5,10.9c1.4,2.5,5.2,3.4,5.7,6.2c0.2,1.1-0.1,2.3-0.3,3.4c-1.5,7.6,2.8,15.1,6.5,21.9
	c3.6,6.7,6.8,13.9,7.2,21.5c0.2,5.3-0.9,10.6-0.3,15.8c0.6,5.7,3,12.4-1,16.5c-3.9,3.9-11.4,2.3-15,6.5c-1.8,2.1-2.4,5.5-5,6.4
	c-0.8,0.3-1.8,0.2-2.7,0.3c-2.5,0.2-4.9,1.5-7.3,2.4c-6.2,2.3-12.6-0.9-19.1-1.7c-1.8-0.2-4.9,4.2-6.3,5.4
	c-2.6,2.2-7.8-3.1-11.3-3.7c-4.3-0.6-6.8,3-7-1.2c-0.1-1.5-1.3-7.7-5.6-6.2c-2,0.7-2.6,4.6-4.6,3.8c-2.3-0.9-0.9-4.9,0.5-7
	c1.5-2,3.6-3.4,5.4-5.2c2.1-2.1,3.7-4.6,4.7-7.3c0.2-0.5,0.3-1.1,0.1-1.6c-0.6-1.5-2.5-1.6-2.7-3.2c-0.1-0.8-1.6,0.4-2.4,0.1
	c-1.6-0.6-2.3-2.6-4-2.9s-3.5,0-5.2-0.6c-3-1-4.7-4.1-7.1-6.2c-4.4-3.9-10.9-4.3-16.8-4.5c-3.1-0.1-6.4-0.2-9.2,1.1
	c-2.1,1-3.9,2.7-5.4,4.5c-3.9,4.3-7.2,9.1-9.9,14.3c-1.6,3-3.4,9.2-6.4,7.5c-4.3-2.4-5-8-8.3-11.6c-2.5-2.7-4.5-5.7-6-9.1
	c-0.9-2-1.6-4.2-1-6.3c0.6-2.2,2.4-3.9,4.2-5.4c3.8-3.2,7.5-6.5,11.3-9.7c2.2-1.9,4.3-3.7,6.5-5.6c0.7-0.6,1.3-1.2,2.1-1.7
	c0.7-0.5,1.6-0.9,2.3-1.5c1.6-1.2,2.8-2.7,4-4.2c3.4-3.9,7.4-7.2,11.9-9.8c2.2-1.3,4-3.9,6.1-5.4c1.8-1.3,3.8-2.7,6.1-2.4
	c2.4,0.3,4.2,2.4,6.5,3.1c2.5,0.7,5.3-2.5,7.6-1.3c0.9,0.5,0.9,3.1,1.8,2.5c2.2-1.4,2.7-3.4,4.5-5.3c2.6-2.7,3.7-6.3,6.8-8.3
	c3.5-2.2,7.1-4.3,10.6-6.5c2.7-1.7,3.4-4.7,5.1-7.4c1.7-2.6,6.2-1.1,9.3-1.7c1.1-0.2,2.3-0.5,2.7-1.5c0.8-1.8-3-3.1-2.5-5
	c0.6-2.1,4.2-0.5,6.3-0.8c1.4-0.2,2.6-1,3.8-1.7c3-1.8,6.3-4.1,6.6-7.6c0.1-0.7,0-1.5,0.3-2.1c0.3-0.7,0.9-1.2,1.4-1.7
	c2.2-1.9,4.5-3.8,6.7-5.6c0.6-0.5,1.2-1.2,1-1.9c-0.1-0.6-0.7-0.9-1.2-1.1c-2.8-1.4-6.8-0.2-8.9-2.5c-1-1.1-1.2-2.7-2.6-3.1
	c-1.4-0.4-2.9-0.3-4.3-0.1c-3.4,0.4-7,0.9-9.7,3.1c-1.1,0.9-2,2.1-3.3,2.8c-2.4,1.3-5.4,0.6-8,1.2c-2.2,0.5-2.9,4.1-5.1,3.9
	c-2.7-0.2,2-5.2,1-7.7c-0.9-2.3-5.3-1.4-6.2-3.7c-0.3-0.7-0.3-1.4-0.4-2.2c-0.2-1.9-2-4.5-0.5-5.8c0.9-0.8,2.2-1.2,1.5-2.2
	c-0.2-0.3-0.5-0.6-0.8-0.9c-0.6-0.8-0.6-1.9-0.6-2.9c-0.2-3-1.1-7.4-4.1-7.8c-5.9-0.8-13.1,8.6-17.2,4.3c-2.3-2.4-0.8-6.7-0.1-9.9
	c0.4-1.9,2.8-2.8,4.8-3.2c2.2-0.5,6.6-1.6,6.9-3.8c0.5-3-5.6-2.2-8.1-3.9c-3.2-2.2,2.4-8.7-0.5-11.3c-0.8-0.7-1.8-0.9-2.9-0.9
	c-5.4-0.2-10.1,3.6-15.4,4.7c-4.5,0.9-9.2-0.2-13.8-0.5c-4.6-0.3-9.8,0.5-12.6,4.2c-1.2,1.6-2.1,3.8-4,4.3c-1.4,0.4-2.9-0.3-4.2,0.2
	c-1.2,0.4-1.9,1.5-2.5,2.6c-2.3,3.6-5.3,7-9.2,8.9c-3.9,1.9-8.1-0.9-12.4-0.4c-2.4,0.3-4.6-0.7-6.7,0.6c-1.8,1.2-2.3,3.3-3.9,4.8
	c-1,0.9-1.5,2.2-2.1,3.4c-5.3,11.8-11.6,23.2-18.8,33.9c-0.6,1-1.3,2-2.4,2.4c-0.8,0.4-1.8,0.4-2.6,0.8c-2.6,1.3-2.2,5-3.3,7.6
	c-1.8,4-4.9,7.1-8.4,9.8c-2.3,1.8-8.2-1.2-8.5,1.7c-0.3,3.5,7.1,2,9.7-0.3c0.9-0.8,1.9-1.9,3.1-1.5c0.6,0.2,1.1,0.8,1.7,1
	c1.5,0.6,3.8-0.5,4.3,1c0.1,0.5-0.1,1-0.2,1.4c-0.8,2.5-0.4,5.1-0.3,7.7c0.1,5.4-1.7,10.5-3.5,15.6c-2.1,6.2-4.3,12.3-7.3,18.1
	c-0.9,1.7-1.8,3.4-2.1,5.3s1.6,3.1,2.2,4.9c1.3,3.5-3.1,6.9-4.6,10.3c-2.5,5.5-8.8,9.4-11,15c-0.5,1.3-1,2.7-2.1,3.7
	c-0.7,0.6-1.5,0.9-2.3,1.3c-2.7,1.5-4.6,3.9-6.5,6.3c-2.2,2.7-4.3,5.5-6.5,8.2c-1.2,1.5-2.3,3-3,4.7c-0.6,1.5-0.8,3.2-1.2,4.8
	c-2,9.9-8,19-16.3,24.8c-0.9,0.6-1.8,1.2-2.8,1.3c-1.2,0.2-2.6-0.1-3.4,0.8c-1,1.1-0.1,2.9-0.5,4.4c-0.3,1.4-1.7,2.2-2.9,2.9
	c-10.6,6-21.1,11.9-31.7,17.9c-1.5,0.9-3.1,1.7-4.8,2.1c-1.8,0.3-3.6,0.1-5.4-0.2c-3.9-0.6-8.1-1.3-11-3.9c-0.9-0.8-1.7-1.8-2.8-2.4
	c-1.7-0.9-3.9-0.6-5.8-0.1c-5.6,1.7-8.5,7.5-13.4,10.7c-2.1,1.4-5,0.6-7.5,0.8"/>
<path fill="none" stroke="#E1E1E1" stroke-miterlimit="10" d="M203.7,234.3c-1.4-0.4-2.4,1.7-2.7,3.2c-0.3,1.4,0.1,3.4,1.4,3.9
	c0.5,0.2,0.9-0.6,1.1-1.1C204.3,238.3,205.7,234.8,203.7,234.3z"/>
<path fill="none" stroke="#E1E1E1" stroke-miterlimit="10" d="M231.4,218.9c-0.1-0.2-0.4-0.4-0.6-0.5c-1-0.4-2-0.8-3-1.2
	c-1.2-0.5-2.5-1-3.7-0.6c-0.9,0.2-1.8,0.2-2.5,0.7c-1.4,0.9-1.3,4.7,0.3,4.9c1.9,0.3,3.3-2.2,5.2-2c0.7,0.1,1.5,0.3,2.2,0.3
	s1.6-0.2,2-0.8C231.5,219.5,231.6,219.2,231.4,218.9z"/>
<path fill="none" stroke="#E1E1E1" stroke-miterlimit="10" d="M265,206.2c-1.8,1.5-3.9,2.4-6,3.4c-3.3,1.5-6.7,3-10.2,4.2
	c-4.8,1.5-11.5-1.4-14.8,2.3c-1.8,2.1,2.9,4.6,5.3,6.1c1.2,0.8,2.5,1.6,4,1.7c1.4,0.1,3.1-0.7,3.3-2.2c0.2-1-0.3-2.1,0.2-2.9
	c0.6-1,2.1-0.9,3.2-0.7c2.7,0.5,6.7-0.7,8.1,1.6c0.9,1.6,0.1,3.8,1.5,5.1c1.4,1.3,3.2,1.9,5.1,2c1.3,0.1,2.7-0.1,3.6-1.1
	c0.9-1.1,0.8-2.7,1.6-3.8c1.7-2.1,5.2-0.4,7.8-1c1.8-0.4,3.1-1.9,4.2-3.4c2.5-3.5,4.4-7.5,5.5-11.7c0.3-1,0.5-2.1,0.2-3.1
	c-0.7-2.6-3.8-3.3-6.5-3.7c-3-0.4-6.2-0.7-8.9,0.6C269.3,201.1,267.5,204.1,265,206.2z"/>
<path fill="none" stroke="#E1E1E1" stroke-miterlimit="10" d="M293.1,241.4c-0.4-0.7-1.7-0.4-2.1,0.4c-0.4,0.8-1.1,1.9-0.6,2.5
	c0.5,0.6,2,0.5,2.4-0.2C293.4,243.3,293.6,242.2,293.1,241.4z"/>
<path fill="none" stroke="#E1E1E1" stroke-miterlimit="10" d="M290,204.9c0.3-2.9,5.1-2.7,8-2.9c3.6-0.3,7.2-1,10.7-2.1
	c2.9-1,6.7-2.1,8.7,0.3c1.6,1.9,0.9,5,2.6,6.8c0.6,0.6,1.3,1,1.8,1.7c0.6,0.9,0.5,2,0.5,3c-0.2,3-0.4,6-0.6,9
	c-0.2,3.2-2.9,6.6-1.6,9.6c0.9,2.1,3.7-2.1,5.8-3c1.6-0.8,3.6-0.2,5,1s2.3,2.8,3,4.4c1.4,3.1,2.6,6.3,2.7,9.7
	c0.1,3.4-0.9,6.9-3.3,9.2c-2,1.9-3.5,4.4-6,5.7c-2.6,1.3-3.2-4.9-5.9-5.7c-0.7-0.2-1,1-1.6,1.4c-4.6,3.3-7.5,10.3-13.1,10.4
	c-2,0.1-0.6-4.7-2.5-5.3c-3.9-1.3-5,8-9.1,8.3c-2.3,0.1-1.5-4-0.7-6.2c0.9-2.4,1.8-4.9,3.4-6.9c0.5-0.7,1.2-1.3,1.5-2.1
	c0.3-0.8,0.3-2.1-0.5-2.3c-1.3-0.3-2.9,1.2-4,0.4c-2.3-1.6,2-4.9,4.3-6.6c4.2-3.2,7.7-7.1,10.4-11.6c1-1.7,2.7-5.1,0.8-5.6
	c-1.1-0.3-1.6,2.4-2.7,2.2c-1.3-0.2-0.8-2.4-1.5-3.5c-1.9-3.4-5.5-6-5.6-9.9c0-1.3,0.3-2.6-0.3-3.7c-0.9-1.5-2.3-2.6-3.6-3.7
	c-1.5-1.3-4.3,0.7-5.8-0.5C290.1,205.8,290,205.3,290,204.9z"/>
<path fill="none" stroke="#E1E1E1" stroke-miterlimit="10" d="M35.8,308.9c0.9-0.8,1.4-2,1.2-3.2c-0.1-0.3-0.2-0.7-0.4-0.9
	c-0.5-0.5-1.4-0.2-2,0.1c-1.1,0.5-2.3,1.1-3.1,2s-2,2.6-1,3.4c1.1,0.8,2.7-0.1,4-0.6C34.9,309.5,35.4,309.2,35.8,308.9z"/>
<path fill="none" stroke="#E1E1E1" stroke-miterlimit="10" d="M51.7,298.8c0.9,0.1,1.7-1.1,1-1.7c-0.7-0.7-2.1-0.7-3-0.3
	c-0.4,0.2,0.5,1.9,0.8,2C50.8,298.8,51.4,298.8,51.7,298.8z"/>
<path fill="none" stroke="#E1E1E1" stroke-miterlimit="10" d="M-17,316.3c8.8-0.7,17.1-4.3,25.2-7.9c5.4-2.4,10.9-4.9,15-9.1
	c1-1.1,2-2.3,3.2-3.2c3.4-2.5,8.1-2.2,12-4c4.6-2.2,7.5-7.5,12.4-8.8c1.1-0.3,2.2-0.4,3.3-0.9c1.1-0.5,1.9-1.5,2.7-2.4
	c7-8.5,13-17.9,17.6-27.9c0.6-1.3,1.2-2.6,2.4-3.4c0.9-0.5,2-0.7,2.8-1.4c2.2-1.9,0.2-6.4,2.6-8.2c0.6-0.5,1.5-0.7,2.1-1.3
	c0.8-0.9,0.4-2.4,0.9-3.5c0.8-1.7,3.3-1.9,4.5-3.5c0.8-1,0.8-2.5,1.8-3.4c1.2-1.2,3.1-0.8,4.8-0.9s1.6-1.9,2.7-3.1
	c1.6-1.8,4.4-1.6,4.9-3.9c0.5-2.4,2.9-4.2,2.5-6.6c-0.2-1.3-3.3,0-3.8-1.3c-0.9-2.1-0.5-5,1.1-6.7c1.2-1.3,1.2-1.8,1-3.6
	c-0.6-6.1,14.4-7.6,12.4-13.4c-2-5.8-12.9,3.9-18,0.4c-2.2-1.5,1.3-5.7-0.2-7.8c-0.5-0.7-1.8-1.3-2.5-0.8c-1.7,1.2-0.2,4.2-1.1,6
	c-0.9,1.9-3.6,1.7-4.8,3.4c-1.3,1.8-0.5,4.4-2.4,5.5c-1.9,1.1-4.7,3-6.3,1.5c-2.1-1.9-3.6-4.4-3.8-7.2c-0.2-3.3,5.1-4.3,7.7-6.5
	c0.5-0.5,1.1-0.9,1.3-1.6c0.3-0.7,0.2-1.4,0-2.1c-0.3-1.7-0.6-3.5-1.6-4.9s-3.6-3.2-4.5-1.7c-2,3.3,0.1,8.7-3.5,10.2
	c-2.5,1.1-5.8,0.1-7.6,2.1c-0.7,0.8-0.9,2-1.7,2.9c-0.9,1-2.3,1.2-3.6,1.4c-4.5,0.6-9.1,1.3-13.6,1.9c-5.3,0.8-11.5,2.1-13.9,6.9
	c-0.7,1.4-1,3-2,4.1c-0.9,1-2.3,1.5-3.6,1.9c-5.7,1.8-11.6,2.9-17.5,3.1c-1.2,0-2.5,0.1-3.4,0.8c-0.9,0.6-1.5,1.7-2.3,2.5
	c-1.6,1.5-4.1,1.7-5.8,3.1c-1.1,0.9-1.7,2.2-2.8,3.1c-2.4,2-6,1.4-9.2,1.5s-7,2.4-6.2,5.5"/>
<path fill="none" stroke="#E1E1E1" stroke-miterlimit="10" d="M-17.9,308.6c4-0.5,8.1-1,11.8-2.5c6.1-2.5,10.8-7.6,16.4-11.1
	c2.5-1.6,5.2-2.8,7.9-4.1c8.4-4,16.5-8.7,24.7-13.3c3.9-2.2,7.9-4.5,10.3-8.3c0.9-1.4,1.5-2.8,2.1-4.3c1.3-3.2,2.6-6.3,3.9-9.5
	c0.8-2,1.7-4,3.4-5.3c0.6-0.5,1.3-0.8,1.9-1.4c1.5-1.8,0.4-4.4,0.6-6.8c0.1-1.6,0.8-3.1,1.6-4.5c3.4-5.7,9-10,15.3-11.7
	c1.6-0.4,3.3-0.8,4.4-2c1.1-1.2-0.4-2.4-0.6-4.1c-0.1-0.9,2-0.5,2.4-1.4c0.4-1-1.8-0.8-2.4-1.7c-1.8-3.1,4.4-9,1.1-10.4
	c-5.5-2.3-11.6,2.3-17.3,0.8c-5.7-1.5-11.8-7-17.2-4.5c-1.8,0.9-4.4,3.3-3.4,5.1c0.9,1.7,3.8,1.3,4.4,3.1s0,5.4-1.9,5
	c-2-0.4-3.3,0.9-5.2,0.1c-1.7-0.7,2.1-4.2,0.8-5.6c-2.8-2.9-4.6,7.1-8.5,8c-2.9,0.6-5.4-2.4-8.3-2.1c-1.4,0.2-2.6,1.1-3.8,1.8
	c-4.2,2.4-9.6,2.4-13.7,5c-2.4,1.6-4.3,3.9-6.7,5.5c-3.9,2.6-8.8,2.8-13.3,4s-9.3,4.1-9.8,8.8"/>
<path fill="none" stroke="#E1E1E1" stroke-miterlimit="10" d="M-17.1,294.6c0.9-1.5,2.7-2.4,4.5-2.3c0.9,0.1,1.8,0.4,2.6,0.5
	c2.1,0.3,4.5-0.1,5.9-1.8c0.6-0.8-0.2-2.1,0.4-2.8c0.9-1,3.2,1.4,4.1,0.3c0.8-1,0.6-2.5,1.7-3.1c1.1-0.6,2.4-0.8,3.5-1.5
	c1.6-1,2.5-2.7,3.9-3.9c1.1-0.9,2.4-1.5,3.6-2.1c5.7-2.7,11.1-6.2,15.9-10.3c1.3-1.1,3-2.4,4.6-1.9c1.2,0.3,2.5,2.1,3.4,1.3
	c1.9-1.7,2.2-4.5,4.2-6c0.6-0.4,1.2-0.8,1.5-1.5c0.3-0.6-0.5-1.1-0.5-1.8c0-1.9,2.3-3,2-4.8c-0.3-2-1.1-3.9-2.3-5.5
	c-0.4-0.6-0.9-1.1-1.6-1.3c-0.7-0.2-1.4-0.1-2-0.4c-1-0.6-0.9-2.1-0.2-3c0.7-0.9,1.8-1.4,2.8-2c2.4-1.6,6.6-4.7,4.8-7
	c-2.5-3.3-8.5,4.2-12.2,2.2c-1-0.5,0.7-2.5-0.1-3.3c-1.8-2.1-7.2,4.1-8,1.5c-0.3-0.9,0.9-1.7,0.2-2.4C25,231.1,24,231,23,231
	c-2.1,0-4.2,0.7-6.1,1.6c-4.4,2.1-7.1,6.6-11.1,9.4c-1.3,0.9-3.1,0.9-4.6,1.4c-0.9,0.3-1.8,0.6-2.6,0.9c-0.5,0.2-1,0.3-1.5,0.5
	c-2.4,0.8-4.7,1.6-6.9,2.7c-1.2,0.6-2.4,1.3-3.5,2c-1,0.6-1.9,1.2-2.9,1.7c-1.6,1-3.3,2.1-3.8,3.9"/>
<path fill="none" stroke="#E1E1E1" stroke-miterlimit="10" d="M129.1,139.7c0.4,0,0.7-0.4,0.9-0.8c1.1-2.4,3.8-5.7,2-7.6
	c-0.8-0.9-2.5-0.2-3.2-1.2c-0.2-0.3-0.3-0.6-0.4-1c-0.2-0.7-0.1-1.5-0.5-2c-2.4-3.2-9.8-2.7-11,1.1c-0.3,1,0.6,1.9,1,2.9
	c1,2.4,2.1,4.8,3.1,7.2c0.3,0.7,0.6,1.4,1.3,1.7c0.8,0.3,1.6,0,2.4-0.3c1.2-0.4,2.5-0.6,3.7-0.1
	C128.7,139.6,128.9,139.7,129.1,139.7z"/>
<path fill="none" stroke="#E1E1E1" stroke-miterlimit="10" d="M110.5,120.1c-0.1-0.8-0.8-1.5-0.7-2.4c0.1-1,1.3-1.7,1.2-2.7
	c-0.1-0.9-1.2-1.4-2.2-1.4c-0.7,0-1.3,0.2-1.9,0.4c-0.7,0.3-1.3,0.8-1.9,1.3c-3.4,2.9-8.4,8.4-5.5,11.7c0.8,1,2.3-1,3.6-1.2
	c0.7-0.1,1.4,0,2.2-0.1c1.7-0.2,2.9-1.5,4-2.8C110.1,122.1,110.7,121.1,110.5,120.1z"/>
<path fill="none" stroke="#E1E1E1" stroke-miterlimit="10" d="M173.4-8.2c1.5,2.4,4.6,3.4,7.4,3.5c2.8,0.1,5.7-0.5,8.5-0.4
	c4.8,0.1,9.4,2,13.8,3.9c8.3,3.6,22.5,2,25,10.7c0.7,2.4,1,4.5,1.5,6.8c0.5,2.5-1.2,5-2.9,6.9c-2,2.2-4,4.2-6.2,6.1
	c-1.3,1.2-3,2.4-4.7,1.9c-2.3-0.6-3-3.5-4.8-5c-2.7-2.3-6.8,2.4-9.9,0.7c-1.3-0.7-1.8-2.4-3.3-2.3c-1.5,0.1-2.8,0.8-4.1,1.4
	c-2.8,1.3-5.8,2.2-8.9,2.5c-1.7,0.2-2.4-0.9-3.1-2.4c-2.9-6.1-12.1,7.8-18.8,6.6c-1.4-0.2-2.6-0.9-4-1.2c-2.1-0.5-4.3-0.4-6.4-0.3
	c-8.8,0.5-17.9,0.5-26-2.7c-2.5-1-5.3-3-5.1-5.7c0.1-1,0.6-2.1,0.2-3c-0.4-0.8-1.3-1.2-2.1-1.4c-3.9-1.1-8.6-1.6-11.9,0.7
	c-13.4,9.2-29.9,17-37,31.7c-2.1,4.3-2.3,9.6-6.5,12c-1,0.6-2.1,1-2.9,1.9c-0.9,1.1-1.1,2.6-1.5,3.9c-1.1,3.9-4.2,7.8-8.3,8.2
	c-3.2,0.3-7.6-0.4-10.8-0.8c-1.1-0.1-2.3-0.2-3.4,0.1c-1.1,0.4-1.9,1.1-2.7,1.9c-4,3.5-11.7,4.3-12.7,9.5c-0.2,1.3,2.6,1.2,3.2,2.4
	c0.8,1.8-1.2,3.9-2.3,5.6c-1.7,2.7-5.8,4.5-5.7,7.7c0,1.3,2.9,2.1,2.3,3.2c-1.1,1.9-3.4,2.5-3.9,4.6c-0.6,2.6-3.9,6.2-1.7,7.7
	c1.1,0.8,2.5,0.8,2.5,2.1c0,1.3-0.6,2.7-0.4,4c0.3,1.5,1.6,2.7,1.5,4.1c-0.1,1-0.8,1.8-1,2.8s1,1,1.6,1.8c1.7,2.6-3.1,5.9-1.4,8.5
	c0.7,1,1.7,1.9,1.8,3.1c0.1,2.5-3.7,3.6-3.9,6c-0.1,1.5,1.1,3.5-0.2,4.4c-1.3,0.9-4.1-0.7-4.3,0.9c-0.1,0.9,1.1,1.3,1.7,2.1
	c0.7,0.8,0.4,2.1-0.3,3c-0.7,0.8-1.7,1.3-2.6,1.9c-2.2,1.4-6.3,3.2-5.3,5.6c1,2.2,2.7,3.5,4.6,4.8c2.3,1.5,5.7-3.2,8.1-1.8
	c1.8,1.1-1.9,4.1-1,6c0.8,1.8,4.4-0.7,5.9,0.5c1.7,1.3-1.6,3.7-3.6,4.6c-2,0.9-4.3,2.1-4.2,4.3c0,0.7,0.4,1.3,0.5,2
	c0.5,2.8,0.5,7.1-2.1,8.3c-2.6,1.2-5.3-0.6-7.8,0.6c-5.6,2.7-11.8,3.4-18,4c-3.5,0.4-7,0.7-10.5,1.1"/>
<path fill="none" stroke="#E1E1E1" stroke-miterlimit="10" d="M27.6,54.1c-0.2,0.6-0.4,1.5,0.2,1.8c2.8,1.1,8.6,0.3,8.6-2.8
	c0-0.9-0.4-1.8,0.3-2.4c0.4-0.3,0.8-0.5,1.1-0.9c0.3-0.3,0.6-1.1,0.2-1.3c-1.9-1-4.2,0.2-6.1,1.1C29.9,50.5,28.3,52.1,27.6,54.1z"/>
<path fill="none" stroke="#E1E1E1" stroke-miterlimit="10" d="M-14.9,68.3c2.5-1.3,4.5-3.6,5.3-6.3c0.1-0.3,0.2-0.5,0.1-0.8
	c-0.1-0.6-0.8-1-1.5-1c-0.6,0-1.2,0.3-1.9,0.5c-1.5,0.4-3.2,0.3-4.6-0.5"/>
<path fill="none" stroke="#E1E1E1" stroke-miterlimit="10" d="M-5.3,60.5c0,1,1.3,1.8,2.2,1.2c0.1-0.1,0.3-0.2,0.4-0.3
	c0.8-0.7,1.9-2.1,1.2-2.9c-0.6-0.6-1.6-0.1-2.4,0.2C-4.6,59-5.3,59.7-5.3,60.5z"/>
<path fill="none" stroke="#E1E1E1" stroke-miterlimit="10" d="M15-8.7c-1.2,1.1-0.8,3.1,0.1,4.5c0.9,1.4,2.1,2.5,2.6,4.1
	c0.4,1.3,0.3,2.8,0.5,4.1c0.3,2.4,1.7,4.9,0.6,7.1c-1,1.8-3.5,2.5-4.3,4.4c-0.8,1.8,0.3,3.8,1.6,5.3c0.2,0.2,0.4,0.5,0.7,0.6
	c0.6,0.2,1.2-0.2,1.7-0.7c1.9-1.6,4.1-3.1,6.3-4.2c0.9-0.5,1.8-0.9,2.8-0.9c1,0,2,0.6,2.3,1.6c0.2,0.7,0.4,1.7,1,1.4
	c4.5-2.7,9.1-5.2,13.9-7.3c0.8-0.4,1.7-0.7,2.6-0.7c1,0,1.9,0.5,2.9,0.8c6.5,1.9,13.3-5.8,19.5-3.3c2.2,0.9,3.8,2.9,5.8,4.1
	c3.6,2.1,8.1,1.4,12.2,0.6c2-0.4,3.9-0.7,5.9-1.1c6.5-1.2,13.8-2.9,17.1-8.7c1.6-2.8,2.8-8-0.3-9.1c-4.3-1.5-9.4-1.9-11.2-6"/>
<path fill="none" stroke="#E1E1E1" stroke-miterlimit="10" d="M133.9,8.5c0.6,1.9,1.2,3.8,1.9,5.8c0.3,0.8,0.5,1.6,1.1,2.2
	c1.2,1.2,3.2,1,4.9,0.8c3.2-0.5,6.4-1,9.5-1.5c1.4-0.2,2.9-0.5,4.2-1.2c2.6-1.4,2.7-5.2,4.9-7.1c1.3-1.2,2.6,2.3,4.3,2.8
	c1.7,0.5,4-2.3,5.1-0.8c1.8,2.3,4.3,3.6,7.1,2.8c3.4-1.1,9.3-3.6,7.8-6.9c-2.3-5.2-11-2.5-16.6-3.2c-7.3-0.9-14.5-1.8-21.8-2.8
	c-2.7-0.3-5.5-0.7-8.1,0.1c-2.6,0.8-5,2.9-5.1,5.7C133.1,6.2,133.5,7.3,133.9,8.5z"/>
<path fill="none" stroke="#E1E1E1" stroke-miterlimit="10" d="M365.6,91.7c-3.8,2.5-8.1,4.9-12.6,4.6c-2.7-0.1-5.9-1.1-7.8,0.8
	c-1.2,1.2-1.5,3.1-1.3,4.8c0.1,1.7-0.9,3.9,0.3,5.1c1,1,3.3-0.2,3.6,1.2c0.2,1.1-1,2-2.1,2.3s-2.4,0.6-2.9,1.7
	c-0.3,0.6-0.2,1.3-0.1,2c0.2,1.3-0.1,2.8,0.6,3.9c0.5,0.7,1.7,0.3,2.6,0.2c0.9,0,2,0.3,2.1,1.2c0.1,1.1-1.3,1.6-2.2,2.2
	c-1.5,1.2-1.4,3.6-0.2,5c1.2,1.5,3,2.2,4.8,2.6c2.4,0.6,5.1,0.8,7.3-0.4c1.1-0.6,2-1.5,2.8-2.5c2.1-2.3,4.2-4.5,6.3-6.8"/>
<path fill="none" stroke="#E1E1E1" stroke-miterlimit="10" d="M320.1,114c1.1-1.2-0.3-3.4,0.5-4.8c0.8-1.5,2-2.7,3.1-3.9
	c3.6-4,6.3-8.8,7.8-13.9c0.2-0.5,0.3-1.1-0.1-1.5c-0.3-0.4-0.9-0.4-1.4-0.3c-6.3,0.6-12.3,2.7-18.3,4.7c-2.2,0.8-4.4,1.6-6.1,3.1
	c-2,1.9-3,4.6-3.8,7.3c-0.2,0.5-0.3,1.1,0.1,1.4c0.2,0.2,0.6,0.2,0.9,0.1c2.2-0.3,4.5-0.6,6.7-0.8c0.6-0.1,1.3-0.1,1.8,0.2
	c0.6,0.3,0.9,1.1,1.2,1.7C314,110.3,317.7,116.5,320.1,114z"/>
<path fill="none" stroke="#E1E1E1" stroke-miterlimit="10" d="M237.3-7.8c1.7,2.6,3.2,5.4,4.9,8.1c1.5,2.4,3,5,3.3,7.8
	c0.5,5-2.7,9.6-5.8,13.5c-0.5,0.6-0.9,1.2-1.1,1.9c-0.4,1.4,0.3,3-0.4,4.3c-0.4,0.7-1.1,1.2-1.5,1.9c-0.3,0.6-0.5,1.3-0.6,1.9
	c-0.9,4.5-6.4,7.8-5.8,12.3c0.2,1.7,3.4,1.2,4.4,2.6c0.7,1-1.3,3.1-0.2,3.6c7.2,2.6,15.3,6.1,21.7,11.3c1.5,1.2,3.7,0.8,5.2,2
	c1,0.8,1.7,1.9,2.8,2.5c1.4,0.8,3.2,0.5,4.6,1.2c0.7,0.3,1.2,0.8,1.9,1c2,0.4,3.7-1.9,5.7-1.7c2.1,0.2,3.6,2,5.5,2.9
	c1.3,0.6-0.5,2.8-1.8,3.4c-1.3,0.6-3,1.3-3.3,2.7c-0.1,0.6,0,1.2,0,1.9c-0.1,1.8-1.9,3-3.5,3.8c-1.9,1-3.8,2.1-5.8,3.1
	c-1,0.6-2.1,1.1-2.8,2.1c-0.7,1-0.9,2.4-0.1,3.3c1,1.2,2.7,1.6,4.2,1c3.7-1.4,7.4-4.8,11.4-5.2c3.1-0.3,6.2,0.4,7.6-2.3
	c0.6-1.3,2.1-1.9,3.4-2.4c2.7-1.1,5.5-2.2,8.4-2.5c0.9-0.1,1.9-0.2,2.5-0.8c3.7-3.7,9.6-4.2,14.9-3.6s10.6,1.8,15.8,0.6
	c1.2-0.3,2.4-0.7,3.6-0.8c1.4-0.1,2.9,0.3,4.3,0.6c8.5,2,17.5,1.9,26-0.3"/>
<path fill="none" stroke="#E1E1E1" stroke-miterlimit="10" d="M237.5-7.5"/>
<path fill="none" stroke="#E1E1E1" stroke-miterlimit="10" d="M265.7-8.3c4.3,2.7,6.2,8.6,4.4,13.4c-0.6,1.5-1.5,2.9-1.4,4.5
	c0,0.7,0.3,1.4,0.1,2.1c-0.3,1-1.4,1.6-2.1,2.3c-1,1.1-1.3,2.7-1.8,4.2c-1.1,3.6-3.3,6.8-6.4,9c-1.5,1.1-3.2,2-4.4,3.4
	c-2.1,2.5-4.2,6.9-2.1,9.5c4.6,5.7,11.5,10.1,18.8,10.8c1.4,0.1,2.8,0,4.2-0.1c5.7-0.2,11.3,1.5,16.8,3.2c3.5,1.1,6.7,1.7,10.4,2
	c3.3,0.3,6.5-1,9.7-1.8c7.9-1.9,16.1-0.6,24,1.3c2.5,0.6,5.1,1.3,7.6,0.7c3.7-0.8,6.3-3.9,8.9-6.5c4.6-4.6,10-8.3,15.9-10.9"/>
<path fill="none" stroke="#E1E1E1" stroke-miterlimit="10" d="M298.4-12.2c-3.2,4.8,2.6,11.7-0.1,16.9c-0.8,1.6-2.3,2.7-3.5,4
	c-1.2,1.3-2.2,3.1-1.6,4.8c0.2,0.5,0.4,0.9,0.4,1.4c0,1.5-2.1,1.8-3.2,2.9c-0.9,0.8-1,2.3-0.2,3.2c0.8,0.9,1.9-0.1,3.1-0.2
	c1.8-0.1-1.3,2.6-1.4,4.4c-0.5,5.9,12,0.8,17.3,3.5c0.8,0.4,1.6,0.9,2.5,1c0.6,0,1.2-0.1,1.7-0.2c2.3-0.5,4.5-0.8,6.8-0.9
	c0.9-0.1,1.9-0.1,2.8,0.1c1.1,0.2,2.1,0.5,3.2,0.8c4.2,1.1,8.7,0.9,12.8-0.5c3.7-1.3,8-0.4,11.2-2.6c2.4-1.6,3.5-4.2,6.2-5.1
	c3.4-1.1,6.8-2.3,10.3-3.4"/>
<path fill="#7BBCEB" stroke="#4E9BD7" stroke-miterlimit="10" d="M163.9,192.4c0.2-0.1,0.3-0.1,0.5-0.2c0.6,0,1,0.8,0.8,1.3
	s-0.7,1-1.2,1.4c-0.4,0.4-0.9,0.7-1.4,1c-0.5,0.3-1.3,0.6-1.6,0.2c-0.6-0.6,0.2-1.7,0.7-2.4C162.3,193.2,163.1,192.8,163.9,192.4z"
	/>
<path fill="#EAEAEA" stroke="#D6D6D6" stroke-miterlimit="10" d="M181.3,200.4c0-0.2,0-0.5-0.1-0.6c-0.2-0.4-0.8-0.5-1.3-0.3
	c-0.5,0.3-0.9,0.8-1.2,1.3c-0.4,0.7-0.9,1.4-1.2,2.1c-0.8,1.5-1.3,2.7-2,4.2c-0.3,0.6,0.2,1,0.4,1c1.1-0.4,1.7-0.4,2.3-1.2
	c0.7-0.9,0.7-2.3,1.5-3.2c0.2-0.3,0.5-0.5,0.8-0.8C181,202.2,181.3,201.3,181.3,200.4z"/>
<path fill="#EAEAEA" stroke="#D6D6D6" stroke-miterlimit="10" d="M187.3,187.3c0-0.2-0.2-0.3-0.3-0.4c-0.6-0.4-1.4-0.8-2-0.5
	c-0.8,0.4-0.9,1.4-1.3,2.2c-0.4,0.6-0.9,1-1.5,1.4c-0.8,0.5-1.8,0.6-2.4,1.3c-0.4,0.4,0,1.3,0.5,1.6c0.2,0.1,0.4,0.3,0.6,0.4
	c0.3,0.2,0.7,0.1,1,0c0.4-0.2,0.7-0.7,1-1.1c1.3-1.7,3.4-2.7,4.2-4.6C187.2,187.6,187.3,187.5,187.3,187.3z"/>
<path fill="#EAEAEA" stroke="#D6D6D6" stroke-miterlimit="10" d="M189.6,184.2c-0.1,0.1-0.3,0.3-0.3,0.4c0,0.3,0.3,0.5,0.6,0.6
	c0.3,0.2,0.7,0.5,1,0.4c0.2,0,0.7-0.1,0.9-0.1c0.8-0.1,1.2-0.1,1.5-0.8c0.1-0.2,0.1-0.5,0.1-0.7c0-0.6,0-1.4-0.5-1.7
	C191.8,181.9,190.5,183.4,189.6,184.2z"/>
<path fill="none" stroke="#4E9BD7" stroke-miterlimit="10" d="M150.2,244.7c-1.7,4.9-2.7,10.5-2.9,15.6c0,0.9,0,1.8,0.3,2.6
	c0.3,0.8,1,1.5,1.6,2.1c2.2,2.2,4.1,4.7,5.4,7.5c2.6,5.6,2.3,12,1.3,18.1s-2.6,12-2.6,18.2c0,2.4,0.3,4.8,0.5,7.2
	c0.1,1.6,0.3,3.3-0.5,4.7c-0.7,1.4-2.1,2.4-3.4,3.2c-1.3,0.9-3.7,1-4,2.6c-0.2,0.9,1.1,1.8,0.7,2.5c-1.4,2.3-6.3,1.7-6.8,4.4
	c-0.4,2.1,3.4,4.5,1.9,6.1c-0.9,1-2.3,1.4-3,2.7c-0.6,1-2.1,1.5-3,2.2c-0.2,0.2-0.5,0.5-0.5,0.8c0,0.6,0.8,0.8,1.4,1.1
	c0.9,0.5,1,1.9,0.5,2.9s-1.3,1.7-1.9,2.5c-1,1.4-1.6,3.1-2.8,4.3c-0.7,0.7-1.6,1.1-2.4,1.6c-2.7,1.4-5.3,2.8-8,4.2
	c-2,1.1-4.1,2.2-6.4,2.4c-1,0.1-1.9,0-2.9,0c-2.6-0.2-5.3-0.3-7.9-0.5c-0.4,0-0.8,0-1.1,0.3c-0.3,0.3-0.2,0.8-0.2,1.2
	c-0.1,1.1-0.9,2.1-1.9,2.6c-1,0.5-2.1,0.7-3.2,0.9c-2.7,0.4-5.4,0.8-8.2,0.7c-1.8-0.1-3.9-0.2-4.9,1.3c-1,1.4-0.2,3.2,0.5,4.8"/>
<path fill="#EAEAEA" stroke="#D6D6D6" stroke-miterlimit="10" d="M91.9,352.4c-0.4-0.6-1.4-0.5-2-0.8c-0.3-0.2-0.5-0.4-0.8-0.6
	c-0.4-0.3-0.9-0.4-1.4-0.3c-0.5,0.1-0.9,0.6-0.8,1.1c0,0.4,0.4,0.7,0.7,1c0.6,0.5,1.6,0.6,2,1.2c0,0.1,0.1,0.2,0.2,0.2
	c0.6,0.3,1.2,0.4,1.9,0.3c0.1,0,0.3,0,0.3-0.1c0.1-0.1,0.2-0.3,0.2-0.5C92.1,353.3,92.2,352.8,91.9,352.4z"/>
<path fill="#EAEAEA" stroke="#D6D6D6" stroke-miterlimit="10" d="M75.6,341.5c0.1-0.1,0.3-0.1,0.4-0.2c0.3-0.2,0.3-0.7,0.1-1
	c-0.2-0.3-0.5-0.5-0.9-0.6c-1.2-0.4-2.5-0.2-3.5,0.6c-0.6,0.5-1,1.4-0.7,2.1c0.2,0.6,0.8,0.9,1.2,1.4c0.6,0.8,0.5,2,0.3,3
	s-1,2.2-0.4,3c1.3,1.8,4.4,1,6.4,0.1c0.4-0.2,0.7-0.4,1-0.6c0.6-0.6,1.6-1.5,1.3-2.3c-0.3-1-2-0.5-3.1-0.5c-0.2,0-0.4,0-0.6-0.1
	c-0.2-0.1-0.3-0.3-0.4-0.5c-0.4-0.8-1-1.5-1.3-2.3C75,342.8,75,341.9,75.6,341.5z"/>
<path fill="#EAEAEA" stroke="#D6D6D6" stroke-miterlimit="10" d="M109,361.6c-0.8-0.3-0.9-1.5-0.5-2.2c0.4-0.8,1.1-1.4,1.3-2.2
	c0.2-0.7-0.1-1.4-0.5-1.9c-0.5-0.6-1.1,0-1.8,0.5c-1.2,0.7-1.4,1.4-2.3,2.4c-0.6,0.6-1.5,0.6-1.8,1.4c-0.3,0.8-0.1,2.8-0.8,2.4
	c-0.3-0.2-0.2-0.6-0.5-0.7c-0.3-0.1-0.7-0.1-0.9-0.3c-0.2-0.2-0.4-0.4-0.6-0.6c-0.8-0.6-2-0.1-3-0.4c-1.1-0.4-2-2.5-0.9-3
	c1.1-0.5,2.3,0.6,3.5,0.6c1.2,0,2.4-0.5,3.1-1.4c0.5-0.7,0.7-1.7,1-2.5s0.8-1.8,1.6-2.1c2.1-0.8,3.9,2.4,6.1,2
	c0.2,0,0.5-0.1,0.7-0.1c0.2,0,0.5,0.2,0.7,0.3c0.4,0.3,0.7,0.5,1.1,0.8c0.2,0.2,0.4,0.3,0.6,0.5c0.3,0.5,0,1.2-0.5,1.6
	c-0.5,0.4-1.3,0.1-1.7,0.5c-0.9,1.2-0.9,2.8-2,3.9C110.3,361.2,109.7,361.8,109,361.6z"/>
<path fill="#EAEAEA" stroke="#D6D6D6" stroke-miterlimit="10" d="M48.8,144.7c1,0.9,2.4-0.9,3.6-1.4c1-0.4,2.3-1.3,3.2-0.6
	c0.6,0.4-0.1,1.7,0.4,2.1c1.3,1.2,4,0.1,5.2-1.2c0.7-0.8,0.2-2.1,0.8-3c0.4-0.5,1.2-1.2,0.7-1.7c-0.3-0.3-1-0.1-1.3-0.4
	c-0.3-0.3,0.6-0.7,0.7-1.1c0.1-0.2,0-0.4-0.1-0.5c-0.7-1.4-2.4-1-3.9-1.4c-1.4-0.4-2.5-1-3.9-0.8c-1.3,0.2-2.6,0.5-3.8,0.7
	c-0.4,0.1-0.8,0.1-1.1,0c-0.3-0.1-0.5-0.3-0.7-0.4c-0.7-0.4-1.7-0.3-2.4,0.2c-0.2,0.1-0.3,0.3-0.4,0.5c-0.1,0.4,0.2,0.7,0.5,0.9
	s0.7,0.3,1,0.5c0.9,0.6,1,1.9,0.9,3.1c0,0.4-0.1,0.9-0.2,1.3c-0.3,0.7-1.1,1.4-0.6,2c0.2,0.3,0.6,0.3,0.9,0.4
	C48.6,144.1,48.6,144.5,48.8,144.7z"/>
<path fill="#EAEAEA" stroke="#D6D6D6" stroke-miterlimit="10" d="M69.3,130.5c0.3,0.1,0.7,0.1,1,0c0.8-0.3,1.3-1.8,0.7-2.4
	c-0.5-0.5-1.5,0-2.2,0.3c-0.7,0.3-1.7,1.2-1.2,1.7C68,130.6,68.7,130.4,69.3,130.5z"/>
<path fill="#EAEAEA" stroke="#D6D6D6" stroke-miterlimit="10" d="M56.4,130.1c-0.6-0.9-2.3-0.3-2.7,0.7c-0.4,1,0.7,3.2,1.4,2.4
	C55.9,132.3,57,131,56.4,130.1z"/>
<path fill="#EAEAEA" stroke="#D6D6D6" stroke-miterlimit="10" d="M54.3,124.3c-0.3-0.6-1.3-0.6-1.8-0.2c-0.5,0.5-0.7,1.2-0.9,1.8
	c0,0.2-0.1,0.4,0,0.6c0.1,0.2,0.2,0.3,0.3,0.4c0.3,0.3,0.5,0.9,1,0.9c1.1,0.1,1.5-1.8,1.5-2.9C54.4,124.7,54.4,124.5,54.3,124.3z"/>
<path fill="#EAEAEA" stroke="#D6D6D6" stroke-miterlimit="10" d="M58.4,122.5c0.2-0.5,0.7-1,0.4-1.4c-1-1.3-4.2,1.5-3.4,3
	c0.3,0.6,1.3,0.3,1.8-0.1C57.8,123.6,58.2,123.1,58.4,122.5z"/>
<path fill="#EAEAEA" stroke="#D6D6D6" stroke-miterlimit="10" d="M59.7,124c-0.2-0.3-0.2-0.6-0.2-0.9c0.1-1.2,1.5-1.6,2.3-2.6
	c0.4-0.5,0.8-0.8,1.4-0.7c1,0.1,2.4-0.5,3.1,0.2c0.2,0.2,0.1,0.5,0,0.8c-0.4,0.7-1.7,0.1-2.4,0.6c-0.5,0.4,0.3,1.3,0.3,1.9
	c-0.1,0.6-0.6,1-1.1,1.2c-0.5,0.2-1.1,0.2-1.7,0.1C60.8,124.6,60.1,124.5,59.7,124z"/>
<path fill="#EAEAEA" stroke="#D6D6D6" stroke-miterlimit="10" d="M39.5,105.5c0.4-0.7,1.5-0.4,2.2,0c0.9,0.5,1.7,1,2.6,1.4
	c0.4,0.2,0.8,0.5,0.7,1c-0.1,0.4-0.5,0.6-0.8,0.6c-1.2,0.3-1.5,1.4-2.8,1.3c-1.2,0-1.5-2-1.9-3.1C39.4,106.4,39.3,105.9,39.5,105.5z
	"/>
<path fill="#EAEAEA" stroke="#D6D6D6" stroke-miterlimit="10" d="M42,114c0.8,0.4,1.9-0.1,2.3-0.9c0.1-0.1,0.1-0.3,0-0.4
	c-0.1-0.1-0.2-0.2-0.4-0.2c-0.3-0.1-0.7-0.1-1-0.1c-0.4,0-0.7,0-1.1,0.2c-0.3,0.2-0.6,0.6-0.5,0.9C41.5,113.7,41.7,113.9,42,114z"/>
<path fill="#EAEAEA" stroke="#D6D6D6" stroke-miterlimit="10" d="M71.5,103.9c-0.6-0.4-1.5-0.3-2,0.3c-0.4,0.6-0.5,1.9,0.2,2
	c0.7,0.1,1.2-0.7,1.8-1.2c0.2-0.1,0.3-0.3,0.3-0.5C71.9,104.3,71.7,104,71.5,103.9z"/>
<path fill="#EAEAEA" stroke="#D6D6D6" stroke-miterlimit="10" d="M79,110.7c-0.2-0.1-0.1-0.5,0.1-0.7c2.2-2.9,7.9-5.6,9.9-2.5
	c0.1,0.2,0.1,0.5,0,0.8c-0.5,1-2,0.9-3.1,1.1c-2.1,0.5-4.3,0.9-6.4,1.4C79.3,110.7,79.1,110.8,79,110.7z"/>
<path fill="#EAEAEA" stroke="#D6D6D6" stroke-miterlimit="10" d="M62.5,108.7c0.2-1-0.6-1.7-0.1-2.5c0.6-0.8,2.1-1.8,2.7-0.9
	c0.9,1.3-1.8,2.9-1,4.2c0.9,1.4,2.4-2.3,3.9-1.7c1.1,0.4,1,2.6,2.1,2.2c0.4-0.1,0.7-0.5,1.1-0.7c0.7-0.5,1.8-0.3,2.3,0.4
	c0.6,0.7,0.5,1.8,0,2.6c-0.4,0.8-1.2,1.4-1.9,2c-1.6,1.3-4,3.3-5.4,1.9c-1-1-2.4-1.4-3.8-1c-1.4,0.4-2.8-0.5-4.1,0.2
	c-0.8,0.4-0.7,1.4-1.5,1.8c-0.8,0.4-1.6,0.6-2.3,1.1c-0.6,0.4-1.1,1-1.7,1.5c-2.7,2.4-6.7,2.4-10.3,2c-0.6-0.1-0.6-1-0.2-1.4
	c0.4-0.4,1.1-0.4,1.6-0.3c0.6,0.1,1.2,0.1,1.7-0.1c0.7-0.4,0.9-1.4,1.5-2c0.4-0.4,1-1.3,1.6-1.4c2.7-0.4,4.9-1,7.2-2.4
	c1.2-0.8,2.5-1.4,4-1.4c0.6,0,1.5,0.3,2,0.1c0.6-0.2,1.4-0.9,0.9-1.2c-0.6-0.6-1.8-1.1-1.5-1.8C61.6,109.2,62.3,109.2,62.5,108.7z"
	/>
<path fill="#EAEAEA" stroke="#D6D6D6" stroke-miterlimit="10" d="M100.1,103.3c-0.1,0.2-0.3,0.5-0.4,0.7c-0.1,0.4,0.1,0.8,0.4,1.1
	c0.2,0.4,0.5,0.8,0.8,1c0.4,0.3,0.9,0.4,1.3,0.1c0.2-0.1,0.4-0.3,0.5-0.5c0.6-0.8,1.5-1.3,2.1-2.1s0.9-2.1,0-2.7
	c-0.4-0.3-0.7-0.7-1.2-0.9c-0.3-0.1-0.6-0.2-0.8-0.3c-1.3-0.3-2.8-0.5-4.1-0.1s-3.5,1.7-2.7,2.8c0.3,0.4,1.1-0.1,1.6-0.3
	c0.9-0.3,1.9-1.3,2.7-0.9C100.9,101.7,100.4,102.7,100.1,103.3z"/>
<path fill="none" stroke="#D6D6D6" stroke-miterlimit="10" d="M74.1,110.8c1.5-0.3,3.5-1,4.8-0.5"/>
<path fill="#EAEAEA" stroke="#D6D6D6" stroke-miterlimit="10" d="M178.6,62.5c1-0.3,1.7-1.2,2-2.1c0.1-0.4,0.2-0.9-0.1-1.2
	c-0.1-0.1-0.3-0.2-0.5-0.3c-0.9-0.3-1.9-0.1-2.7,0.4c-0.7,0.4-2.4,1.5-2.3,0.7c0.1-1.3,2.7-2,2-3c-0.3-0.5-1.2,0-1.7,0.2
	c-1.6,0.5-4.3,1.2-4,2.9c0.1,0.6,1.1,0.1,1.4,0.6c0.4,0.5,0,1.1-0.6,1.2c-0.6,0.1-1.1-0.3-1.7-0.3c-0.6,0-1.2,0.3-1.3,0.9
	c0,0.2,0.1,0.5,0.2,0.7c0.4,0.7,0.9,1.2,1.6,1.6c0.8,0.4,1.7,0.5,2.4,0.1c0.4-0.2,0.7-0.5,1-0.8c0.9-0.7,1.9-1.2,3.1-1.3
	C177.8,62.6,178.2,62.6,178.6,62.5z"/>
<path fill="#EAEAEA" stroke="#D6D6D6" stroke-miterlimit="10" d="M225,93.3c1.2-0.5,1.9-1.9,1.8-3.1s-1.1-2.4-2.4-2.7
	c-0.8-0.2-1.7,0-2.5,0.1c-2.9,0.5-5.8,1.1-8.7,1.6c-1.2,0.2-2,0.4-3,1.1c-1.4,0.9-2.7,3.1-1.5,4.4c1,1.1,2-0.7,3.5-0.9
	c0.5-0.1,1.1-0.1,1.6-0.1c3.1,0.1,6.3,0.3,9.4,0C223.9,93.6,224.5,93.5,225,93.3z"/>
<path fill="#EAEAEA" stroke="#D6D6D6" stroke-miterlimit="10" d="M250.7,138.7c-1.3-0.2-2.5-1.3-3.8-0.8c-1,0.3-1.6,1.5-2.6,1.6
	c-0.4,0-0.8-0.1-1.3-0.1c-0.4,0-0.9,0.4-0.7,0.8c0,0.1,0.1,0.2,0.2,0.3c0.7,0.6,1.6,1.2,1.8,2.1c0.2,0.8-0.3,1.7,0,2.4
	c0.1,0.2,0.2,0.4,0.4,0.5c0.2,0.1,0.4,0.1,0.6,0c1.3-0.1,2.5,0.4,3.8,0.6c1.3,0.2,2.8-0.1,3.4-1.3c0.2-0.3,0.3-0.7,0.3-1.1
	c0.2-1.4-0.1-2.8-0.8-4.1c-0.1-0.3-0.3-0.5-0.6-0.7C251.2,138.8,250.9,138.8,250.7,138.7z"/>
<path fill="#EAEAEA" stroke="#D6D6D6" stroke-miterlimit="10" d="M265.9,88.2c0,0.8,0.9,1.3,1.6,1.2c0.8-0.1,1.4-0.7,1.8-1.3
	c0.1-0.1,0.2-0.3,0.1-0.4c0,0-0.1-0.1-0.1-0.1c-0.6-0.3-1.3-0.7-2-0.6C266.6,87,265.9,87.5,265.9,88.2z"/>
<path fill="#EAEAEA" stroke="#D6D6D6" stroke-miterlimit="10" d="M285.4,76.1c-0.6-0.3-1.3-0.6-2-0.6c-0.7,0-1.5,0.3-1.8,0.9
	c-0.2,0.4-0.2,0.9-0.4,1.2c-0.3,0.5-0.9,0.7-1.4,1s-1,1-0.6,1.5c0.5,0.6,1.2,0.9,1.8,1.4c0.3,0.3,0.7,0.5,1.1,0.7
	c0.5,0.2,1,0.3,1.5,0.5c0.4,0.1,0.9,0.1,1.2-0.2c0.1-0.2,0.2-0.4,0.3-0.6c0.3-1.4,0.7-2.8,1-4.2c0.1-0.5,0.2-1-0.1-1.4
	C285.7,76.3,285.5,76.2,285.4,76.1z"/>
<path fill="#EAEAEA" stroke="#D6D6D6" stroke-miterlimit="10" d="M349.9,180.2c-0.7,0.8-2,0.1-2.8-0.7c-1.2-1.2-1.1-2.8-1.5-4.5
	c-0.5-2.1-4.7,0-6.2-1.5c-0.7-0.6-0.2-1.9-0.6-2.7c-0.4-0.8-1.6-0.7-2.2-1.4c-1-1.3-0.5-3.2-1.5-4.5c-1.5-1.9-4.8-3.3-4.4-5.7
	c0.2-1.7,0.7-3.2,1.3-4.8c0.6-1.8,2.5-2.7,4.2-3.4c0.4-0.2,0.9-0.3,1.3-0.1c0.4,0.2,0.5,0.6,0.7,1c0.3,0.6,0.8,1,1.3,1.5
	c6,5.5,13.7,19.6,12.5,20.6c-0.4,0.4-1,0.4-1.1,1c-0.1,0.6,0.8,1.2,0.4,1.6c-0.5,0.6-1.2,0.8-1.1,1.6
	C350.1,178.8,350.4,179.7,349.9,180.2z"/>
<path fill="none" stroke="#D6D6D6" stroke-miterlimit="10" d="M285.9,76.4c2.4-0.4,5.2-0.6,7.6-0.2c0.8,0.1,1.6,0.3,2.4,0.1
	c0.8-0.2,1.5-0.7,2.2-1.3c1.9-1.8,3.3-4.1,4.1-6.6c0.7-2.4,0.8-5,1.2-7.5c1.1-7.4,4.7-14.2,6-21.5c0.9-5.1,0.7-10.4,1.1-15.6
	s1.6-10.6,4.9-14.6c7-8.6,20.7-8.2,28.9-15.6"/>
<path fill="none" stroke="#D6D6D6" stroke-miterlimit="10" d="M349.2,180.9c-0.3,2.2-0.1,4.4,0.6,6.5c0.5,1.6,1.3,3,1.6,4.6
	c0.3,1.9,0,3.8,0,5.7c0,1.9,0.6,4,2.2,5.1c0.3,0.2,0.7,0.4,1.1,0.4c1.1,0.1,2-0.8,3-1.3c0.6-0.3,1.3-0.4,2-0.5
	c2.3-0.4,4.6-0.7,7-1.1"/>
<path fill="none" stroke="#D6D6D6" stroke-miterlimit="10" d="M282.9,289.4c0.7-0.2,0.9,0,1.7,0.1c3.4,0.6,7.1-0.2,10-2.3"/>
<path fill="none" stroke="#D6D6D6" stroke-miterlimit="10" d="M296,288.5c0.2,2.4-2.1,5.2-0.7,7c3,4,10-0.8,15-0.3
	c1.8,0.2,3.7,0.5,5.4-0.2"/>
<path fill="#EAEAEA" stroke="#D6D6D6" stroke-miterlimit="10" d="M243.2,249c-0.8-0.7-1.8-0.8-2.9-1c-0.7-0.1-1.5-0.2-2.2,0
	c-1.5,0.5-2.3,2.1-2.3,3.7c0,0.9,0.3,1.9,1.1,2.4c1.2,0.6,2.6-0.6,4-0.7c0.3,0,0.7,0,1-0.1c0.9-0.1,1.7-0.8,2-1.7
	C244.2,250.7,243.9,249.6,243.2,249z"/>
<path fill="#EAEAEA" stroke="#D6D6D6" stroke-miterlimit="10" d="M221.9,249.4c-0.3,0.3-0.5,0.6-0.6,1c-0.2,0.9,0.6,1.8,1.5,2.1
	c0.9,0.3,1.9,0.2,2.8,0c0.5-0.1,1-0.2,1.4-0.5c0.4-0.3,0.7-0.8,0.6-1.3c-0.1-0.4-0.4-0.7-0.7-1c-0.6-0.6-1.4-1.1-2.2-1.3
	C223.7,248.3,222.6,248.6,221.9,249.4z"/>
<path fill="#EAEAEA" stroke="#D6D6D6" stroke-miterlimit="10" d="M278.6,289.9c0.6,0.1,1,0.6,1.6,0.9c1,0.5,2.4-0.2,2.7-1.3
	c0-0.1,0-0.3,0-0.4c0-0.1-0.1-0.2-0.2-0.2c-1.7-1.2-3.8-1.6-5.8-1.2c-0.8,0.2-1.7,0.8-1.4,1.5c0.2,0.6,1.1,0.7,1.8,0.7
	c0.3,0,0.5,0,0.8-0.1C278.2,289.8,278.4,289.8,278.6,289.9z"/>
<path fill="#EAEAEA" stroke="#D6D6D6" stroke-miterlimit="10" d="M294.5,284.6c-0.4,0.1-0.7,0.3-1,0.5c-0.2,0.3-0.3,0.7-0.1,1
	c0.2,0.3,0.5,0.4,0.8,0.5c0.3,0.2,0.2,0.5,0.3,0.8c0.6,1.6,3.5,0,4.9-0.9c0.2-0.1,0.5-0.3,0.6-0.6c0.2-0.4,0-0.9-0.3-1.2
	c-0.3-0.3-0.8-0.4-1.2-0.5C297.1,284.1,295.7,284.2,294.5,284.6z"/>
<path fill="#EAEAEA" stroke="#D6D6D6" stroke-miterlimit="10" d="M320,305.9c0.7,0.9,0,2.4,0.7,3.3c0.2,0.3,0.8,0.6,1,0.3
	c0.4-1,0.8-2.1,1.8-2.4c0.6-0.2,1.3-0.2,1.8-0.5c0.5-0.4,0.6-1,1.1-1.4c0.3-0.2,0.6-0.3,0.9-0.5c0.3-0.2,0.5-0.5,0.4-0.8
	c-0.1-0.5-0.8-0.2-1.2-0.5c-1.5-0.8-1.6-2.9-2.7-4.3c-0.2-0.2-0.4-0.5-0.7-0.5c-0.5-0.1-0.9,0.3-1.2,0.7c-1.5,2-4.8,4.9-3,6.6
	C319.1,306.2,319.8,305.6,320,305.9z"/>
<path fill="#EAEAEA" stroke="#D6D6D6" stroke-miterlimit="10" d="M349.7,297.5c-0.5,0.4-0.9,0.9-1.4,1.3c-1.6,1.2-4.2,0.5-5-1.2
	c-0.3-0.6-0.4-1.4-1-1.9c-0.5-0.5-1.4-0.6-2.1-0.6c-0.8,0-1.7,0.3-2.5-0.1c-0.5-0.3-0.3-1.2-0.9-1.4c-1.9-0.5-3.9-0.7-5.8-0.2
	c-1.6,0.4-2.6,2.2-4.2,2.2c-0.6,0-1.2-0.3-1.8-0.5c-1.8-0.7-3.8-0.8-5.7-0.9c-1.3-0.1-3.8,0-3.5,1.3c0.7,2.5,5.1,0.6,7.6,1.3
	c1.5,0.4,2.8,1.4,4.3,1.4c0.7,0,1.4-0.3,2.1-0.5c3.6-1,7.3,0.4,10.8,1.8c0.5,0.2,1.1,0.5,1.5,0.9c0.4,0.4-0.1,1.1,0.2,1.6
	c0.8,1.3,1.9,1.7,3.3,2.5c0.8,0.4,2-0.3,2.5,0.4c0.6,0.7-0.3,1.4-0.7,2.3c-0.8,1.7,2,3.3,3.5,4.5c0.7,0.6,1.5,1.1,2.4,1.2
	c1.1,0.1,2.3-0.4,2.9-1.4c0.6-0.9-0.5-2.2,0-3.2c0.9-1.9,6,1.7,7.8-0.4c1-1.2,0.6-3-0.3-4.3c-0.9-1.3-2.3-2.3-2.7-3.9
	c-0.2-0.6-0.2-1.4-0.5-1.9c-0.8-1.1-2.8-1.3-2.9-2.7c0-0.9,1-1.5,1.9-1.7c0.9-0.2,1.9-0.4,2.5-1.1c0.7-0.9-0.1-2.2-1.2-2.4
	s-1.8,1.3-2.9,1.3c-1.1,0-1.9,0-3,0.4c-0.9,0.3-1.4-1.3-1.6-2.2c-0.2-0.9-0.3-1.9-0.8-2.7c-0.2-0.3-0.4-0.5-0.5-0.8
	c-0.2-0.8,0.6-1.3,0.9-2c0.5-1-0.1-2.2,0.2-3.2c0.3-1.6,3.1-3.7,1.6-4.4c-1.4-0.8-3.5,1.4-3.3,3c0,0.2,0.1,0.5,0.1,0.7
	c-0.1,0.5-0.6,0.7-0.8,1.1c-0.3,0.4-0.3,1-0.4,1.5c0,1.9,0.2,3.7,0.6,5.5c0.2,0.9,0.5,2-0.1,2.8c-0.5,0.6-1.4,0.1-2,0.4
	c-2.1,1,5.5,3.6,4,5.4C352.4,297.6,350.7,296.8,349.7,297.5z"/>
<path fill="none" stroke="#D6D6D6" stroke-miterlimit="10" d="M355.9,312.1c-0.3,0.4-0.5,1-0.4,1.5c0.1,0.3,0.2,0.7,0.4,1
	c1,2.1,2.2,4.3,4.2,5.6c0.2,0.1,0.4,0.3,0.6,0.4c0.2,0.2,0.3,0.4,0.5,0.6c0.9,0.9,2,1.6,3.1,2.2c0.2,0.1,0.4-0.1,0.7,0
	c0.2,0.1,0.4,0.3,0.3,0.5"/>
<path fill="none" stroke="#D6D6D6" stroke-miterlimit="10" d="M354.8,276.2c0.3-0.4,0.8-0.5,1.2-0.6c1-0.2,2.2-0.4,3,0.2
	c0.9,0.7,1,2.4,2.1,2.7c0.2,0.1,0.5,0.1,0.7,0.1c0.3,0.1,0.6,0.3,0.9,0.5c1.4,0.9,3.2,0.3,4.7-0.2"/>
<g>
	<path fill="#7BBCEB" stroke="#4E9BD7" stroke-miterlimit="10" d="M208.2,180.5c0.7-0.4,1.3-1.2,2.1-1.1c1.4,0.2,2.7,0.6,4,0.1
		c1.4-0.5,2.8-1,4.2-1.5c0.4-0.2,0.9-0.3,1.2-0.6c0.9-0.8,0.9-2.1,0.9-3.3c-0.2-10.1,3.2-8.6,2.3-11.2c-0.5-1.4-3,0.7-4-0.4
		c-0.7-0.8,1.3-2,2-2.8s1.1-2,0.7-3c-0.5-1-2.1-1.8-1.5-2.8c0.1-0.3,0.4-0.4,0.5-0.7c0.4-0.9-1.2-1.9-0.8-2.8
		c0.1-0.3,0.4-0.5,0.5-0.8c0.3-0.7-0.7-1.4-1.5-1.5c-2.9-0.3-6,1.2-8.7,0c-0.8-0.4-1.5-1-2.4-1.1c-1.1-0.1-2.1,1.8-3,1.2
		c-0.4-0.2-0.5-1.1-0.8-0.8c-1,0.7-1.7,1.8-2.7,2.6c-1.5,1.1-2.9,2.1-4.4,3.2c-0.6,0.4-1.2,0.5-1.4,1.1c-0.5,1.3-1,3.8-2.1,3
		c-1.3-1-0.2-3.5-1-5c-0.7-1.3-1.8-1.7-2.9-2.6c-0.4-0.3-1.2-0.8-1.7-0.9c-1.5-0.5-4.4,1-3.9,2.5c0.6,1.6,1.8,1.9,1.9,3.6
		c0.1,1.2-0.3,3.1-1.5,2.1c-1-0.8,0.1-3.9-1.1-3.6c-3.5,0.7-10.6,0.7-10.3-1.9c0.1-1.2,3.2-1.8,4.8-3.2c0.5-0.4,1-0.8,1.6-1.1
		c0.8-0.3,1.8-0.2,2.7-0.5c1.3-0.5,2-1.8,3.1-2.6c0.7-0.5,1.4-0.8,2.2-1c1.9-0.7,4.8-0.9,6.1-2.5c0.7-0.9-1.8-1.3-2.9-1
		s-2.3,1-3.4,0.5c-0.6-0.2-0.7-1-1.3-1.3c-0.6-0.3-1.2-0.4-1.9-0.6s-2.5-0.7-1.9-1.2c0.7-0.7,2.7-0.8,2.3-1.7
		c-0.6-1.3-2.9-0.3-3.9,0.6c-0.6,0.5-1,1.2-1.4,1.8c-0.6,0.9-0.5,2-1.5,2.3c-1,0.3-3.9,0.2-4.9,0.2c-1.1,0-0.8,1.2-1.8,0.8
		c-0.5-0.2-1.2-0.3-1.8-0.1s-1.1,0.7-1.3,1.2c-0.4,0.8,0.4,1.7-0.2,2.3c-0.3,0.3-1.3-0.5-1.4,0c-0.2,1.3,0.4,2.9-1.9,3.5
		c-1.4,0.4-3,1-3.8,2.2c-0.2,0.2-0.3,0.5-0.3,0.8c-0.3,1.1-0.5,2.2-0.6,3.4c-0.1,0.5,0.4,1.1,0.2,1.5c-1.3,2.4-4.8,3.3-4.8,5.1
		c0,0.8,1.6,0.5,2.3,0c0.7-0.4,1.3-1.1,2.2-1.2c1.3-0.1,4.5,1.2,4.3,2.5c-0.1,0.7-1.5,0.3-2.1,0.8s-0.3,1.3-0.5,2
		c-0.4,0.9-2.1-0.7-2.9-0.1c-0.3,0.2-0.4,0.6-0.6,0.8c-0.6,1-2,1.1-3.2,1c-1.2-0.1-2.4-0.4-3.5,0.2c-1,0.5-2,2.1-1.2,2.8
		c1.2,1.1,3.1,0.6,4.6,0.9c1,0.2,1.3,1,1.9,1.9c0.7,0.9,2.1,0.7,3.1,1.2c1.9,1.1,3.6-0.8,5.9-0.7c0.9,0.1-0.2,0.7-0.2,1.6
		c0,0.9,1.5,0.9,2.2,0.2c0.7-0.6,1.3-2.2,2.1-1.7c0.5,0.3-0.1,1.3,0.4,1.6c0.7,0.4,1.4-0.7,2.1-0.8s1.6,0.3,1.9,1
		c0.5,1.1-0.5,2.2-1.2,3.1s-1.3,2.4-0.3,3.1c0.8,0.5,1.8,0,2.7,0c1.3,0.1,2.7-0.7,3.9-1.1c0.5-0.2,1.1-0.3,1.5,0
		c0.5,0.4,0.4,1.3-0.1,1.8c-0.5,0.5-1.1,0.7-1.7,1.1c-1.3,0.8-1,2.6-1.9,3.8c-0.6,0.8-2-0.1-2.7-0.8c-0.2-0.3-0.4-0.6-0.8-0.7
		c-0.6-0.2-1.2,0.4-1.4,0.9c-0.2,0.6-0.8,1.3-0.5,1.8c0.2,0.4,1-0.2,1.4,0c0.4,0.2,0.8,0.9,0.5,1.2c-1,0.9-1.4,1.3-1.6,2.7
		c-0.1,0.9-1.3,2.2-2.2,1.8c-0.5-0.2,0.5-1.1,0.2-1.6c-0.3-0.4-0.9-0.5-1.3-0.3c-0.7,0.3-0.7,1.4-0.9,2.2c-0.1,0.4-0.2,0.8-0.4,1.2
		c-0.2,0.4-0.5,0.7-0.8,1.1c-1.6,1.8-2.5,5.6-4.9,5.5c-0.8,0-0.2-1.6-0.6-2.3c-0.1-0.3-0.7-0.4-0.9-0.2c-0.8,0.9-0.5,2.4-1.2,3.5
		c-0.2,0.4-0.6,0.8-1.1,0.9c-0.8,0.1-1.2-1.1-1.2-1.9c-0.1-1.8,0.1-3.7,0.3-5.6c0.1-1,0.7-2.9,1.4-2.2c0.7,0.8-0.6,2.4,0.1,3.2
		c1,0.9,1.6-1.9,2.2-3.1c1.2-2.5,3.4-4.3,5-6.5c1.7-2.2,4.3-4.7,3.4-7.3c-0.4-1.3-2.6-0.8-3.9-0.2s-2.7,1.3-4,0.7
		c-1-0.5-1.7-1.7-2.7-1.5c-0.7,0.1-1.2,0.8-1.9,1.1c-0.3,0.1-0.7,0.2-1.1,0.2c-2.3,0.2-4.7,0.8-6.8,1.7c-0.6,0.2-1.1,0.5-1.5,1
		c-0.3,0.4-0.4,0.8-0.5,1.2c-0.9,3.3-1.8,6.6-2.7,9.9c-0.3,1.2-0.6,2.5,0,3.6c0.3,0.5,0.7,0.9,1.1,1.2c0.6,0.5,1.1,1,1.7,1.5
		c0.6,0.5,1.2,1.1,2,1.3c0.9,0.3,1.8,0.1,2.8,0.2c0.9,0.1,1.9,0.7,2,1.6c0,0.5-0.3,1-0.5,1.5c-0.6,1.9,1,4,0.5,5.9
		c-0.1,0.4-0.3,0.8-0.7,1c-1,0.6-2.1-0.3-3.2-0.6c-1.5-0.3-3,0.6-4.2,1.5c-0.4,0.3-0.9,0.8-0.8,1.3c0.1,0.6,0.9,0.8,1.5,0.7
		c0.6-0.1,1.5-0.4,1.8,0.1c0.3,0.7,0.5,1.8-0.1,2.2c-1.1,0.9-2.9,0.6-3.7,1.8s-0.7,3.3-1,4.8c-0.5,2.7-2.5,6.9-1.7,7.5
		c1.1,0.8,1.6-2.3,3-2.2c1.4,0.1,2.2,2.3,1.8,3.7c-0.3,1.1-0.6,1.8-1.3,2.7c-1.3,1.5-2.4,0-4.4,3.7c-0.8,1.6-0.2,3.4,1.4,4.2
		s3.5,0.6,5.2,0.7c1.1,0.1,2.1,0.2,3.2,0c1-0.2,2.1-0.7,2.5-1.7c0.7-1.6-0.5-3.9,0.7-5.1c0.4-0.4,1.1-0.7,1.3-1.3
		c0.2-1-2.2-2-1.3-2.5c3.2-2.1,7.6-3.4,8.8-7.6c0.3-1.2,0.9-2.3,1.5-3.3c0.9-1.6,2.6-2.6,3.9-3.9c2.5-2.5,8-5.8,6.9-8.5
		c-0.2-0.6-1.2-0.5-1.7-0.2c-0.6,0.4-0.3,1.5-0.8,2s-1.5,0.6-1.9,0c-0.2-0.2-0.3-0.5-0.2-0.8c0.5-1.9,0.1-4.5,0.4-6.2
		c0.1-0.5,2.4-0.5,3-0.4c0.7,0,0,3.3,0.8,2.7c1.2-1,2.2-4.2,2.5-6c0.2-0.9-1.6-0.3-2.2,0.4s-1.3,1.8-2.1,1.4c-1-0.5,0.2-1.9,0.9-2.8
		c1.7-2.2,3.2-4.5,4.9-6.7c0.1-0.2,0.3-0.3,0.3-0.6c0.1-0.6-0.6-1.1-1.2-1c-0.6,0.1-1.1,0.6-1.4,1.1c-1.6,2.4-4,8.1-4.8,7.2
		c-0.4-0.5,0.3-2.5,0.4-3.8c0-0.7,0.2-1.7,0.5-2.4c0.4-0.7,1.3-1.5,2-2c1.1-0.9,1.7-3.2,2.9-2.4c0.6,0.4,0.7,1.2,1.4,0.9
		c0.7-0.3,0.8-0.9,1-1.6c0.2-0.7,0.3-1.5,0.8-2c0.3-0.3,0.6-0.6,0.9-0.9c0.4-0.5,0.6-1.2,0.7-1.8c0.5-2.3,1.3-5,3.6-5.5
		c0.6-0.1,1.2-0.1,1.7-0.4c0.4-0.2,0.6-0.7,1-0.9c0.7-0.3,1.5,0.1,2.3,0.2c0.7,0.1,1.3-0.2,2-0.3c1.6-0.3,4.3,0.1,5.1,0.8
		c0.4,0.4-0.5,1.7-0.2,2.2c1.5,2.4,0.8,4.4,1,4.9c0.4,0.9,2.6-0.3,4.5-1.8c0.7-0.6,0.9-1.5,0.3-2.2c-0.3-0.4-0.7-0.3-1.2,0
		c-0.4,0.3-1.2,0.7-1.4,0.3c-0.1-0.1-0.7-0.9-0.8-1.3c-0.1-0.6,0.2-1.1,0.7-1.4c0.5-0.3,1-0.4,1.6-0.4c0.5,0,1.1,0.2,1.4,0.6
		c0.1,0.1,0.2,0.3,0.3,0.5c0.3,0.4,1,0.3,1.5,0.1c0.5-0.2,1-0.9,1.4-0.6c0.4,0.3,0.4,1,0.9,1.1S207.7,180.8,208.2,180.5z"/>
	<path fill="none" stroke="#4E9BD7" stroke-miterlimit="10" d="M160.1,199.4c0.4-1.1,0.8-2,1.2-3"/>
	<path fill="#FFFFFF" stroke="#4E9BD7" stroke-miterlimit="10" d="M179,143.9c0.2-0.5-0.2-1-0.5-1.3c-0.3-0.3-0.7-0.5-1.1-0.3
		c-0.3,0.2-0.4,0.6-0.5,0.9c0,0.3-0.1,0.6,0.1,0.9c0.1,0.1,0.2,0.1,0.3,0.2c0.3,0.2,0.6,0.2,1,0.2
		C178.6,144.4,178.9,144.2,179,143.9z"/>
	<path fill="#FFFFFF" stroke="#4E9BD7" stroke-miterlimit="10" d="M174.3,145c0.1-0.4-0.5-0.7-0.9-0.8c-0.2-0.1-0.5-0.1-0.7,0
		c-0.4,0.2-0.3,0.7-0.2,1.1c0,0.1,0,0.1,0.1,0.2c0.3,0.5,1,0.3,1.4,0C174.1,145.3,174.2,145.2,174.3,145z"/>
	<path fill="#FFFFFF" stroke="#4E9BD7" stroke-miterlimit="10" d="M174.9,146.9c0.4,0.2,0.3,0.4,0.2,0.9c-0.1,0.4-0.4,0.8-0.7,1.1
		c-0.2,0.2-0.4,0.4-0.6,0.5c-0.7,0.3-1.6-0.1-2.3,0.2c-0.1,0-0.2,0.1-0.3,0.2c-0.4,0.2-1.3,0.7-1.4,0.7c-0.3,0-0.5-0.5-0.3-0.8
		c0.2-0.3,0.5-0.5,0.7-0.7c0.2-0.2,0.4-0.7,0.1-0.9c-0.2-0.1-0.5-0.1-0.6-0.3c-0.2-0.2-0.1-0.5,0-0.6c0.1-0.2,0.4-0.3,0.6-0.4
		c0.4-0.2,0.9-0.6,1.3-0.3c0.3,0.1,0.4,0.4,0.6,0.6C172.8,147.4,174.1,146.5,174.9,146.9z"/>
	<path fill="#FFFFFF" stroke="#4E9BD7" stroke-miterlimit="10" d="M166.3,148.8c-0.4,0.2-0.9,0.4-1.1,0.9c-0.2,0.4-0.2,0.9,0.2,1.1
		c0.4,0.2,0.8-0.1,1.1-0.3c0.5-0.3,1.1-0.6,1.1-1.1c0-0.4-0.3-0.8-0.7-0.8C166.7,148.6,166.5,148.7,166.3,148.8z"/>
	<path fill="#FFFFFF" stroke="#4E9BD7" stroke-miterlimit="10" d="M167.2,160.2c-0.2-0.1-0.3-0.3-0.4-0.4c-0.3-0.4-0.6-0.9-0.8-1.3
		c-0.2-0.3-0.3-0.5-0.4-0.8c-0.1-0.6,0.4-1.1,0.9-1.5c0.5-0.4,0.9-0.8,1.4-1.2c0.2-0.2,0.4-0.4,0.6-0.5c0.7-0.4,1.5-0.5,2.3-0.6
		c0.7-0.1,1.4-0.1,2,0.2c0.3,0.2,0.6,0.3,0.7,0.5c0.1,0.4-0.2,0.7-0.3,1.1c0,0.1-0.1,0.2,0,0.3c0,0.5,1,0.4,1.3,0.9
		c0.2,0.4-0.2,0.8-0.5,1.1c-0.5,0.3-0.9,0.6-1.5,0.7c-0.6,0.1-1.3-0.2-1.9,0c-0.5,0.2-0.9,0.6-1.4,1c-0.3,0.2-0.6,0.4-0.9,0.5
		C168,160.3,167.6,160.4,167.2,160.2z"/>
	<path fill="#FFFFFF" stroke="#4E9BD7" stroke-miterlimit="10" d="M174,160.8c-0.3,0.1-0.4,0.4-0.4,0.7c0,0.3-0.1,0.7,0.2,0.8
		c0.3,0.2,0.7,0.3,1,0.5c0.5,0.4,1.6-0.1,1.6-0.7c-0.1-0.6-0.9-0.9-1.4-1.2C174.6,160.8,174.3,160.7,174,160.8z"/>
	<path fill="#FFFFFF" stroke="#4E9BD7" stroke-miterlimit="10" d="M177.6,158.1c-0.1-0.2-0.4-0.3-0.7-0.3c-0.8-0.2-1.5,0.5-2,1.1
		c-0.1,0.2-0.3,0.4-0.2,0.6c0,0.1,0.1,0.1,0.2,0.1c0.2,0.1,0.5,0.3,0.8,0.2c0.3,0,0.5-0.2,0.7-0.3
		C176.9,159.1,177.8,158.6,177.6,158.1z"/>
	<path fill="#FFFFFF" stroke="#4E9BD7" stroke-miterlimit="10" d="M196.2,163.3c-0.1,0.5-0.1,1.1,0.2,1.5c0.3,0.4,0.9,0.7,1.4,0.4
		c0.3-0.2,0.4-0.6,0.4-1c-0.1-0.4-0.3-0.7-0.5-1c-0.1-0.2-0.3-0.4-0.5-0.6c-0.2-0.1-0.5-0.2-0.7,0
		C196.2,162.8,196.2,163.1,196.2,163.3z"/>
	<path fill="#FFFFFF" stroke="#4E9BD7" stroke-miterlimit="10" d="M196.6,158.6c0,0.5,0.5,0.9,1,1.1c0.8,0.4,1.7,0.6,2.3,1.2
		c0.5,0.5,0.6,1.4,1.2,1.8c0.8,0.5,2-0.2,2.6-1c0.6-0.7,0.9-1.9,0.3-2.7c-0.4-0.5-1.1-0.1-1.7,0.2c-0.3,0.2-0.6,0.6-1,0.5
		c-0.3-0.1-0.5-0.5-0.7-0.8c-0.3-0.4-0.5-0.9-0.8-1.3c-0.3-0.4-0.7-0.9-1.2-0.9c-0.7-0.1-1.3,0.5-1.7,1.1
		C196.8,158,196.6,158.3,196.6,158.6z"/>
	<path fill="#FFFFFF" stroke="#4E9BD7" stroke-miterlimit="10" d="M209.6,155.4c0.1-0.1,0.1-0.1,0.1-0.2c0.2-0.6-0.1-1.3-0.7-1.5
		c-0.6-0.2-1.3,0.5-1.1,1c0.1,0.2,0.1,0.4,0.3,0.5c0.2,0.3,0.6,0.3,1,0.2C209.4,155.5,209.5,155.5,209.6,155.4z"/>
	<path fill="#FFFFFF" stroke="#4E9BD7" stroke-miterlimit="10" d="M217.7,152.6c0.3-0.4,0.3-1.1,0-1.5c-0.3-0.4-0.9-0.8-1.4-0.5
		c-0.3,0.2-0.2,0.7-0.1,1.1c0.1,0.4,0.2,0.7,0.5,1c0.3,0.2,0.7,0.3,1,0.1C217.6,152.7,217.6,152.6,217.7,152.6z"/>
	<path fill="#FFFFFF" stroke="#4E9BD7" stroke-miterlimit="10" d="M213.4,151.4c0.3-0.3,0.1-0.8-0.3-1c-0.4-0.2-0.8-0.1-1.3-0.1
		c-0.5,0-0.9-0.3-1.4-0.3c-0.6-0.1-1.3,0-1.9,0.1c-1.5,0.3-3,0.8-4.5,1.4c-0.4,0.2-0.8,0.4-1.1,0.7c-0.3,0.4-0.4,1,0,1.2
		c0.6,0.4,1.4-0.1,2-0.4c1.2-0.5,2.4-1.1,3.7-1c0.6,0,1.2,0.1,1.7,0.1c0.9,0,1.8-0.3,2.7-0.5C213.1,151.5,213.3,151.4,213.4,151.4z"
		/>
	<path fill="#FFFFFF" stroke="#4E9BD7" stroke-miterlimit="10" d="M197.5,170.7c-0.4-0.3-0.9-0.8-1.4-0.7c-0.1,0-0.2,0.1-0.3,0.2
		c-1,0.9-1.9,1.9-2.9,2.8c-0.1,0.1-0.2,0.2-0.2,0.3c-0.1,0.3,0.4,0.5,0.7,0.5c0.3,0,0.6,0.1,0.9,0c0.5-0.1,0.9-0.4,1.2-0.7
		c0.4-0.3,0.8-0.7,1.2-1C197.2,171.9,198,171.1,197.5,170.7z"/>
	<path fill="#FFFFFF" stroke="#4E9BD7" stroke-miterlimit="10" d="M198,172.7c-0.4,0.3-0.7,0.5-1,0.9s-0.7,0.7-0.4,1.1
		c0.3,0.4,0.8,0.4,1.2,0.3c0.2,0,0.9-0.4,1.1-0.6c0.4-0.6,1.1-1.4,0.8-2.1C199.3,171.6,198.6,172.3,198,172.7z"/>
	<path fill="#FFFFFF" stroke="#4E9BD7" stroke-miterlimit="10" d="M201.7,167.9c-0.3-0.1-0.6,0-0.8,0.2c-0.2,0.2-0.4,0.5-0.6,0.7
		c-0.1,0.1-0.3,0.2-0.4,0.3c-0.2,0.2-0.1,0.6,0.1,0.8c0.2,0.2,0.6,0.4,0.8,0.2c0.3-0.2,0.4-0.4,0.7-0.7c0.2-0.2,0.5-0.5,0.6-0.8
		C202.1,168.5,202,168.1,201.7,167.9z"/>
	<path fill="#FFFFFF" stroke="#4E9BD7" stroke-miterlimit="10" d="M204.5,167.1c-0.1-0.1-0.4-0.1-0.6-0.1c-0.2,0-0.4,0-0.5,0
		c-0.1,0-0.1,0-0.2,0.1c-0.1,0-0.1,0.1-0.1,0.2c0,0.4-0.1,0.9,0.2,1.2c0.3,0.2,0.8,0.2,1.1,0c0.2-0.2,0.2-0.6,0.2-0.9
		C204.7,167.4,204.7,167.2,204.5,167.1z"/>
	<path fill="#FFFFFF" stroke="#4E9BD7" stroke-miterlimit="10" d="M205.5,166.3c0.1,0.1,0.3,0.2,0.4,0.2c0.2,0,0.5-0.1,0.7-0.2
		c0.4-0.2,0.7-0.4,1-0.7c0.3-0.3,0.5-0.7,0.4-1.1c-0.1-0.4-0.4-0.7-0.6-1c-0.1-0.1-0.3-0.3-0.4-0.4c-0.1-0.1-0.3-0.2-0.4-0.2
		c-0.1,0-0.3,0-0.4,0c-0.3,0-0.5,0.1-0.8,0.1c-0.4,0.1-0.8,0.1-1.2,0.3c-0.4,0.2-0.6,0.6-0.6,1c0,0.5,0.5,0.9,1,1.2
		C204.9,165.9,205.2,166.1,205.5,166.3z"/>
	<path fill="#FFFFFF" stroke="#4E9BD7" stroke-miterlimit="10" d="M214.2,155.5c-0.2,0.2-0.3,0.5-0.6,0.6c-0.2,0.1-0.5,0-0.8-0.1
		c-1.4-0.2-2.5,1.7-3.9,1.7c-0.5,0-1-0.2-1.5-0.2c-0.5,0-1.1,0.3-1.1,0.8c0,1,2,1.1,2,2.1c0,0.3-0.2,0.6-0.2,0.9
		c0,0.4,0.3,0.6,0.6,0.9c0.8,0.6,1.5,1.9,2.5,1.9c1,0,1.4-1.2,2.2-1.7c0.6-0.4,1.7-1.2,1.1-1.5c-1-0.5-2.3,0.4-3.4,0.6
		c-0.3,0.1-0.6-0.4-0.4-0.8c0.2-0.4,0.7-0.7,1-0.8c1.9-0.7,4.4-2.7,5.7-1.2c0.3,0.4,0,1.1,0.4,1.4c0.4,0.3,1.1-0.1,1.3-0.6
		c0.3-0.4,0.3-1,0.4-1.5c0-0.2,0-0.5-0.1-0.7c-0.1-0.3-0.5-0.4-0.7-0.6c-0.5-0.4-0.8-1-1.3-1.5C216.6,154.4,215,154.5,214.2,155.5z"
		/>
	<path fill="#FFFFFF" stroke="#4E9BD7" stroke-miterlimit="10" d="M215.4,162.6c-0.3,0.1-0.6,0.2-0.8,0.4c-0.2,0.2-0.3,0.6-0.2,0.8
		c0.1,0.1,0.1,0.1,0.2,0.2c0.5,0.4,1.2,0.3,1.6-0.2c0.4-0.4,0.3-1.1-0.2-1.3C215.9,162.5,215.7,162.6,215.4,162.6z"/>
	<path fill="#FFFFFF" stroke="#4E9BD7" stroke-miterlimit="10" d="M201.9,173.9c0.5-0.2,0.6-1,1.1-1.2c0.3-0.2,0.8-0.1,0.9-0.5
		c0.1-0.1,0-0.3,0.1-0.4c0.1-0.5,0.8-0.5,1.2-0.5c0.5,0,1,0,1.4-0.3c0.4-0.3,0.6-1,1.2-1c0.1,0,0.3,0,0.4,0c0.6,0.2,1.2,1.1,1.7,0.8
		c0.7-0.5-0.3-1.8,0.3-2.4c0.3-0.3,0.8-0.5,1.2-0.7c0.8-0.4,1.8-1.3,1.2-2.1c-0.3-0.4-0.9-0.3-1.3-0.2s-0.8,0.4-1.2,0.6
		c-0.9,0.5-2,0.7-2.5,1.6c-0.2,0.3-0.3,0.7-0.6,1c-0.1,0.1-0.3,0.2-0.5,0.2c-1.8,0.5-3.6,1.3-4.9,2.6c-0.4,0.4-0.8,0.9-0.8,1.4
		C200.8,173.5,201.4,174.1,201.9,173.9z"/>
	<path fill="#FFFFFF" stroke="#4E9BD7" stroke-miterlimit="10" d="M158.4,183.3c-0.2,0-0.4,0.2-0.5,0.3c-0.1,0.1-0.1,0.2-0.1,0.4
		c0,0.4,0.2,0.7,0.6,0.8c0.3,0.1,0.8,0.2,1.1,0c0.3-0.2,0.3-0.8,0-1.1S158.8,183.2,158.4,183.3z"/>
	<path fill="#FFFFFF" stroke="#4E9BD7" stroke-miterlimit="10" d="M163.7,182.6c0.2,0,0.3,0,0.5,0c0.4,0.1,0.5,0.7,0.5,1.1
		c0.1,1.1,0,2.4-0.9,3c-0.4,0.2-0.9,0.4-1,0.8c0,0.2,0,0.3,0,0.5c0,0.2-0.1,0.4-0.2,0.6c-1.1,1.4-3.1,3.7-4,3.4
		c-0.7-0.2-0.2-1.5,0.2-2.1c0.4-0.7,0.8-1.3,0.8-2.1c0-0.3-0.1-0.7,0.1-1c0.1-0.2,0.3-0.3,0.4-0.4c0.6-0.3,1.3-0.7,2-0.4
		c0.1,0,0.2,0.1,0.3,0.1c0.3,0,0.4-0.4,0.3-0.6c-0.3-0.6-1.1-0.8-1.2-1.4c-0.1-0.6,0.6-1,1.3-1.1C163,182.7,163.4,182.6,163.7,182.6
		z"/>
	<path fill="#FFFFFF" stroke="#4E9BD7" stroke-miterlimit="10" d="M148.8,190.8c-0.1,0.4,0.4,0.8,0.9,0.9s1.6,0.4,1.7,0.4
		c0.2,0,0.3-0.1,0.4-0.3c0.2-0.3,0.4-0.7,0.2-1c-0.6-0.7-1.8-0.6-2.7-0.4C149.1,190.5,148.8,190.7,148.8,190.8z"/>
	<path fill="#FFFFFF" stroke="#4E9BD7" stroke-miterlimit="10" d="M148.1,188.2c0,0-0.1,0.1-0.1,0.1c-0.2,0.3-0.1,0.7,0.1,1
		c0.4,0.6,1.4-0.5,0.9-1.1c-0.1-0.2-0.4-0.2-0.6-0.1C148.3,188.1,148.2,188.1,148.1,188.2z"/>
	<path fill="#FFFFFF" stroke="#4E9BD7" stroke-miterlimit="10" d="M149.5,186c-0.2,0.2-0.2,0.6-0.1,0.9c0.1,0.3,0.4,0.5,0.6,0.7
		c0.2,0.2,0.5,0.5,0.8,0.4c0.5,0,0.7-0.6,0.7-1.1c0-0.2,0.1-0.5,0-0.7c-0.2-0.3-0.6-0.4-0.9-0.4C150.2,185.7,149.8,185.7,149.5,186z
		"/>
	<path fill="#FFFFFF" stroke="#4E9BD7" stroke-miterlimit="10" d="M150.7,183.7c-0.2,0.8,1.4,0.8,2.2,0.8c0.1,0,0.2,0,0.3,0.1
		c0.2,0.1,0.1,0.5,0,0.7c-0.4,0.5-0.4,1.2-0.4,1.8c0,0.3,0.5,1.1,1.1,1.1c1,0.1,1.7-0.2,2.5-0.9c0.6-0.5,0.5-1.6,0.1-2.3
		c-0.4-0.7-0.8-1.2-1.1-1.9C155,181.9,151.1,182.4,150.7,183.7z"/>
	<path fill="#FFFFFF" stroke="#4E9BD7" stroke-miterlimit="10" d="M153.3,197c-0.1,0.1-0.2,0.2-0.3,0.3c-0.4,0.7,0,2.2,0.7,1.9
		c0.1,0,0.5-0.3,0.5-0.4c0.2-0.6,0.7-1.5,0.4-2C154.5,196.3,153.8,196.7,153.3,197z"/>
	<path fill="#FFFFFF" stroke="#4E9BD7" stroke-miterlimit="10" d="M156.9,207.1c-0.4-0.6-1.2-1.6-1.7-1.1c-0.8,0.8-1.1,2.6-0.2,3.3
		c0.1,0.1,0.9,0.4,1,0.4c0.4-0.1,0.8-0.5,1-0.9C157.2,208.2,157.1,207.3,156.9,207.1z"/>
	<path fill="#FFFFFF" stroke="#4E9BD7" stroke-miterlimit="10" d="M167,202.2c-0.3,0.1-0.5,0.3-0.7,0.5s-0.6,0.3-0.8,0.1
		c-0.3-0.3-0.2-1.9-0.2-1.9c0.6-0.6,1.1-0.1,2-0.3c0.4-0.1,0.5-0.8,0.5-1.2c0.1-0.6,0.2-1.1,0.2-1.7c0-0.3,0-0.6,0.2-0.8
		c0.2-0.2,0.6-0.5,0.8-0.2c0.7,1.2,0.1,2.9-0.1,4.3c0,0.4-0.1,0.9-0.5,1.1C168,202.2,167.4,202,167,202.2z"/>
	<path fill="#FFFFFF" stroke="#4E9BD7" stroke-miterlimit="10" d="M163.1,204.3c0.1-0.3,0.2-0.6,0.2-0.9c0-0.3-0.3-0.4-0.5-0.5
		c-0.2-0.1-0.5,0.1-0.7,0.2c-0.7,0.7-0.9,1.6-0.8,2.6c0,0.3,0.1,0.5,0.3,0.7c0.2,0.2,0.5,0.4,0.7,0.2
		C162.8,206,162.8,205.1,163.1,204.3z"/>
	<path fill="#FFFFFF" stroke="#4E9BD7" stroke-miterlimit="10" d="M165.6,205.4c0-0.2-0.4-0.6-0.4-0.6c-0.7,0.1-1.2,0.7-1.4,1.3
		c-0.1,0.7,0.2,1.3,0.7,1.8c0.2,0.2,0.6,0.2,0.8-0.1c0.2-0.3,0.2-0.6,0.2-0.9C165.6,206.4,165.6,205.9,165.6,205.4z"/>
	<path fill="#FFFFFF" stroke="#4E9BD7" stroke-miterlimit="10" d="M167.1,207.7c-0.5-0.5-0.3-1.4-0.4-2.1c-0.1-0.3-0.2-0.6-0.2-1
		c0-0.3,0.1-0.7,0.4-0.8c0.3-0.2,0.7,0,1,0.1c0.1,0,0.2,0.1,0.2,0.1c0.3,0.3,0.3,0.7,0.2,1.1c-0.1,0.7-0.3,1.4-0.4,2.1
		c-0.1,0.3-0.2,0.6-0.5,0.5C167.3,207.8,167.2,207.8,167.1,207.7z"/>
	<path fill="#FFFFFF" stroke="#4E9BD7" stroke-miterlimit="10" d="M166.5,214.6c-0.2,0-0.4,0-0.6,0.1c-0.2,0.1-0.2,0.4-0.3,0.6
		c-0.1,0.4-0.3,0.7-0.5,1.1c-0.1,0.1-0.1,0.1-0.2,0.2c-0.1,0-0.2,0-0.3-0.1c-0.2-0.1-0.5-0.2-0.7-0.4c-0.7-1.1,0.6-2.6,1.8-3
		c0.1,0,0.7-0.5,0.9-0.5c0.1,0,1.1,0.2,1.2,0.2c0.1,0.1,0.1,0.3,0.2,0.4c0.1,0.8,0.4,2.1-0.4,2.2
		C167.2,215.3,166.9,214.7,166.5,214.6z"/>
	<path fill="#FFFFFF" stroke="#4E9BD7" stroke-miterlimit="10" d="M162.7,212c0,0.3,0.1,0.5,0.3,0.7c0.2,0.2,0.6,0.2,0.7,0
		c0.2-0.3,0.2-0.7,0.1-1c-0.1-0.3-0.5-0.6-0.8-0.4C162.7,211.3,162.7,211.7,162.7,212z"/>
	<path fill="#FFFFFF" stroke="#4E9BD7" stroke-miterlimit="10" d="M164.9,210.5c0.2,0,0.5-0.2,0.5-0.5c0-0.1-0.1-0.2-0.1-0.3
		c-0.3-0.4-0.9-0.7-1.3-0.4C163.5,209.8,164.3,210.6,164.9,210.5z"/>
	<path fill="#FFFFFF" stroke="#4E9BD7" stroke-miterlimit="10" d="M160.4,212c0.3,0.3,0.7,0.1,1-0.2c0.3-0.3-0.1-1.3-0.3-1.3
		c-0.4,0-0.7,0.3-0.8,0.7C160.2,211.5,160.1,211.8,160.4,212z"/>
	<path fill="#FFFFFF" stroke="#4E9BD7" stroke-miterlimit="10" d="M161.7,214.1c0,0.4-0.4,0.7-0.8,0.7c-0.4,0-0.8-0.6-0.6-0.9
		c0.1-0.1,0.3-0.1,0.4-0.2c0.2-0.1,0.4-0.2,0.6-0.1C161.6,213.7,161.7,213.9,161.7,214.1z"/>
	<path fill="#FFFFFF" stroke="#4E9BD7" stroke-miterlimit="10" d="M156.5,211.5c0.9-1.2,1.9-2.4,3-3.4c0.2-0.1,0.4-0.3,0.6-0.2
		c0.1,0.1,0.1,0.2,0.1,0.3c0.1,0.7-0.3,1.5-0.7,2c-0.5,0.6-1,1.1-1.4,1.8c-0.7,1.4-0.5,3-0.2,4.6c0,0.1,0.1,0.3,0.2,0.4
		c0.1,0.1,0.3,0,0.4-0.1c0.3-0.1,0.6-0.3,1-0.4c0.8-0.3,1.8-0.6,2.3,0c0.5,0.6,0.2,1.5,0,2.3c-0.3,0.8-0.4,1.7-0.9,2.4
		c-0.5,0.7-1.4,1.3-2.2,0.9c-0.2-0.1-0.4-0.3-0.5-0.5c-0.1-0.5,0.4-0.9,0.8-1.2c0.8-0.6,1.4-1.6,1.1-2.5c-0.1-0.2-1.1,0.4-1.5,0.6
		s-1,0.3-1.3,0c-0.3-0.2-0.4-0.6-0.5-0.9c-0.4-1.1-0.6-2.3-0.9-3.4c-0.1-0.5-0.2-1-0.1-1.4C155.9,212.3,156.2,211.9,156.5,211.5z"/>
	<path fill="#FFFFFF" stroke="#4E9BD7" stroke-miterlimit="10" d="M146.7,231.4c-0.2-0.3-0.1-0.7,0.2-1c0.1-0.1,0.4-0.5,0.5-0.7
		c0.1-0.2,0.1-0.5,0.3-0.7s1.2-0.4,1.3-0.5c0.6-0.2,1,0.5,1.6,0.7c0.2,0.1,0.4,0.1,0.6,0.2c0.5,0.2,0.8,0.8,0.6,1.3
		c-0.1,0.2-0.1,0.3-0.3,0.4c-0.1,0.1-0.2,0.1-0.3,0.1c-0.5,0.1-1.8,0-1.9,0c-0.3,0.1-0.3,0.4-0.4,0.7c-0.1,0.4-0.5,0.9-0.9,0.8
		c-0.2,0-0.3-0.2-0.4-0.3C147.3,232.1,146.8,231.5,146.7,231.4z"/>
	<path fill="#FFFFFF" stroke="#4E9BD7" stroke-miterlimit="10" d="M152.6,219.5c0.1-0.3-0.1-0.6-0.2-0.9c-0.5-1.1-0.3-2.5,0.5-3.5
		c0.2-0.2,0.4-0.4,0.7-0.4c0.5,0,0.7,0.6,0.7,1.1c0.1,1.3,0.1,2.6,0,3.9c0,0.4-0.1,0.8-0.2,1.2c-0.3,1-1.1,1.7-1.5,2.7
		c-0.2,0.5-0.3,1-0.5,1.5c-0.2,0.5-0.6,0.9-1.1,1c-0.8,0.1-1.5-0.7-1.9-1.4c-0.1-0.1-0.2-0.3-0.2-0.4c0-0.3,0.2-0.6,0.4-0.9
		c0.6-1.1-0.5-2.6,0.3-3.5c0.4-0.4,1.1-0.1,1.6,0C151.7,220.1,152.5,220.1,152.6,219.5z"/>
	<path fill="#FFFFFF" stroke="#4E9BD7" stroke-miterlimit="10" d="M152.5,228.8c0.1,0.4,0.8,0.9,1,1c0.2,0.1,0.4-0.1,0.4-0.3
		c0.1-0.5,0.2-1,0-1.5c-0.2-0.5-1-1.2-1.5-0.8C152,227.5,152.3,228.3,152.5,228.8z"/>
	<path fill="#FFFFFF" stroke="#4E9BD7" stroke-miterlimit="10" d="M154.8,230.2c0.2-0.3,0.4-0.6,0.8-0.7c0.5-0.2,1,0.2,1.1,0.7
		c0.1,0.5-0.3,1-0.8,1.2c-0.5,0.2-1.2,0.4-1.5,0C154,231,154.6,230.5,154.8,230.2z"/>
	<path fill="#FFFFFF" stroke="#4E9BD7" stroke-miterlimit="10" d="M157.6,224.5c-0.5-0.3-1,0.2-1.3,0.6c-0.4,0.5-0.8,0.9-1.1,1.4
		c-0.2,0.4-0.4,0.8-0.2,1.2c0.2,0.3,0.5,0.4,0.8,0.3s0.6-0.2,0.8-0.4c0.6-0.5,1-1.1,1.2-1.8C157.9,225.4,158,224.8,157.6,224.5z"/>
	<path fill="#FFFFFF" stroke="#4E9BD7" stroke-miterlimit="10" d="M155.9,223.9c0.5-0.5,0.4-0.9,0.6-1.6c0.2-0.7,0.7-1.6,0.2-2.1
		c-0.3-0.2-0.7,0.2-0.9,0.5c-0.7,1-1.3,2-2,3.1c-0.4,0.6-0.8,1.8-0.2,2.2c0.5,0.4,1.3-1.7,1.4-1.7
		C155.3,224.2,155.6,224.2,155.9,223.9z"/>
</g>
<path fill="#FFFFFF" stroke="#D6D6D6" stroke-miterlimit="10" d="M53.7,140.3c0.5-0.1,0.9-0.5,1.4-0.4c0.5,0.1,1.3,0,1.3-0.5
	c0-0.4,0-0.9-0.4-1.2c-0.4-0.3-0.9-0.3-1.3-0.6c-0.5-0.4-1.2-0.5-1.9-0.5c-0.8,0.1-1.7,0.7-1.5,1.5
	C51.6,139.6,52.7,140.5,53.7,140.3z"/>
<path fill="#FFFFFF" stroke="#D6D6D6" stroke-miterlimit="10" d="M321.9,303.3c-0.2-0.1-0.4-0.1-0.6,0c-0.1,0.1-0.1,0.3-0.1,0.4
	c0.1,0.5,0.1,1.2,0.5,1.5c0.5,0.3,1-0.5,1.3-1c0-0.1,0.1-0.2,0.1-0.3c0-0.1-0.2-0.2-0.3-0.3C322.5,303.5,322.2,303.4,321.9,303.3z"
	/>
<path fill="#FFFFFF" stroke="#D6D6D6" stroke-miterlimit="10" d="M353.2,298.7c-0.3-0.1-0.6-0.3-0.9-0.3c-0.3,0-0.6,0.2-0.9,0.4
	c-0.3,0.2-0.6,0.5-0.9,0.8c-0.1,0.1-0.3,0.3-0.3,0.5c0,0.1,0.1,0.2,0.2,0.3c0.6,0.5,1.4,0.7,2.2,0.6c0.2,0,0.3-0.1,0.5,0
	c0.1,0,0.2,0.1,0.3,0.2c0.4,0.4,0.9,0.7,1.3,1.1c0.3,0.3,0.6,0.5,0.8,0.9c0.2,0.6,0,1.2,0.1,1.8c0.1,0.8,0.7,1.5,1.4,1.7
	c0.8,0.2,1.6-0.1,2.1-0.8c0.2-0.2,0.3-0.6,0.1-0.8c-0.1-0.1-0.2-0.2-0.3-0.3c-0.2-0.3,0-0.7,0.2-0.9c0.2-0.2,0.5-0.4,0.8-0.6
	c0.5-0.6,0.4-1.6-0.3-2c-0.3-0.2-0.7-0.3-1-0.5c-0.5-0.4-0.7-1-0.9-1.6c-0.3-0.6-1-1.3-1.4-0.9c-0.4,0.3,0,1.1-0.4,1.4
	c-0.2,0.1-0.5,0.2-0.6,0c-0.3-0.3-0.4-0.7-0.8-0.8S353.5,298.8,353.2,298.7z"/>
<g>
	<g>
		<path fill="none" stroke="#585858" stroke-miterlimit="10" d="M365.5-1.1c-0.7,0.1-1.3,0.3-1.9,0.6"/>
		<path fill="none" stroke="#585858" stroke-miterlimit="10" stroke-dasharray="3.9988,0.9997" d="M362.7,0
			c-0.3,0.2-0.6,0.4-0.8,0.7c-0.9,0.8-1.5,1.9-2.6,2.5c-1.1,0.6-1.8-0.7-2.9-0.9c-2.3-0.5-3.6,2.9-5.5,4.4c-1.9,1.4-0.8,4-1.8,6.1
			c-1.2,2.5-5.6,1.7-6.8,4.2c-0.5,0.9-0.7,1.9-1.5,2.6c-1.3,1.2-3.4,1-4.9,1.9c-1,0.6-1.7,1.8-2.8,2.2c-1.1,0.4-2.2,0.1-3.3-0.1
			c-5.5-1-10.8,1.8-15.7,4.5c-0.5,0.3-1.1,0.6-1.3,1.2c-0.5,1.3,1.2,2.4,2.7,2.5c1.4,0.1,3.1,0,3.9,1.1c0.4,0.6,0.4,1.4,0.7,2.1
			c0.7,1.5,2.6,1.8,4.3,2.1c6.2,0.9,14,1.6,17.2,7c0.6,1.1-1.1,1-2.3,1c-8.3,0.4-16.8,2.1-23.6,6.8c-0.7,0.5-1.4,1-2.2,1.2
			c-1.7,0.3-3.2-1.1-4.9-1.5c-1.9-0.4-3.8,0.6-5.8,0.6c-2.1,0-4-1.1-6.1-1.6c-3.6-0.9-7.4,0.2-11.1-0.1c-3.3-0.2-6.5-1.4-9.8-1.1
			c-2.9,0.3-5.5,1.9-8.4,2.4c-5.8,1.1-9.5-1-15.2-0.5c-0.5,0-2.8-0.4-3-0.8c-1.5-2.7-3.9-5-6.9-5.7c-1-0.2-1.7,0.4-2.4,1.2
			c-0.7,0.8-1.5-2.1-2.6-1.8c-0.4,0.1-0.6,0.5-0.8,0.8c-1,1.2-2.7-0.2-4.2,0.3c-1.7,0.6-2.2,2.9-4,3.1s-3.6-0.2-5.4,0
			c-1.7,0.2-3.3,0.9-4.9,1.5c-3.5,1.3-7.1,2.1-10.7,3c-5.6,1.3-11.2,2.6-16.8,4c-1.5,0.4-3.2,0.7-4.5-0.2c-0.6-0.4-1.1-1-1.7-1.5
			c-1-0.7-5.1-0.7-6.4-0.6c-4,0.2-7,4.1-9.2,4.1c-1.3,0-2.4-0.6-3.6-0.1c-1.2,0.5-2.4,1.2-3.6,0.8c-1.1-0.4-1.7-1.6-2.7-2.1
			c-1.6-0.8-3.5,0.4-4.8,1.6c-1.3,1.2-2.7,2.7-4.5,2.6c-2.3-0.1-3.8-2.7-6-3c-0.7-0.1-1.4,0.1-2.2,0c-2.5-0.3-3.8-3-5.6-4.7
			c-2.8-2.5-7.6-2.5-10.3,0.1c-0.9,0.9-1.6,2-2.5,2.8c-1.5,1.4-3.5,2.1-5.4,2.8c-9.4,3.3-18.9,6.7-28.3,10c-1.4,0.5-3.9,1.6-3,2.8
			c0.8,1.2,3.7,0.1,4.1,1.5c0.8,2.9-3.9,4.6-6.1,6.7c-3.6,3.6-8,7.1-13.1,6.7c-1.3-0.1-2.5-0.4-3.7-0.2c-1.2,0.2-2.5,1-2.6,2.3
			c0,0.6,0.2,1.1,0.1,1.7c-0.3,2-4,2.2-3.9,4.3c0,0.5,0.3,0.9,0.4,1.3c0.5,1.5-0.1,3.2-1.2,4.4c-1.1,1.2-2.5,1.9-4,2.6
			c-1.5,0.7-3.2,1.6-4.7,2.4c-1,0.5-2.1,1.1-3.2,0.7c-0.6-0.2-1-0.7-1.5-1.1c-2.6-2.2-7-3.1-9.5-0.8c-1.9,1.7,2.5,4.6,1.5,6.9
			c-0.8,1.7-3.4,1.2-4.8,2.4c-0.6,0.5-0.9,1.4-1.4,2.1c-0.5,0.7-1.3,1.3-2.1,0.9c-0.5-0.2-0.8-0.8-1.4-1.1c-0.6-0.2-1.2,0-1.8,0.2
			c-1.7,0.7-3.3,1.3-5,2c-0.7,0.3-1.5,0.6-2.2,0.5c-2.2-0.1-4-2.7-6.1-2.1c-2.4,0.7-2.4,4.8-4.8,5.4c-0.7,0.2-1.5,0-2.2,0.3
			c-1.4,0.6-1.7,2.8-3.2,3.1c-0.9,0.2-1.8-0.3-2.7-0.5c-2.1-0.4-4,1.3-5,3.2c-1,1.9-1.5,4-2.8,5.7c-0.6,0.8-1.4,2.3-2.2,1.8
			c-1.6-0.9-2.3-4.9-3.5-3.6c-1.1,1.2-0.7,3.1-1.9,4.1c-0.6,0.5-1.2,0.9-1.8,1.3"/>
		<path fill="none" stroke="#585858" stroke-miterlimit="10" d="M-16.6,137.8c-0.5,0.4-1,0.9-1.4,1.4"/>
	</g>
</g>
<g>
	<g>
		<path fill="none" stroke="#585858" stroke-miterlimit="10" d="M330.1,45.9c0.5,0.6,0.6,0.9,1,1.6c0,0,0,0.1,0,0.1"/>
		<path fill="none" stroke="#585858" stroke-miterlimit="10" stroke-dasharray="4.042,1.0105" d="M331.2,48.6
			c-0.2,0.5-0.5,0.9-0.9,1.3c-0.6,0.7-1.1,2.2-0.3,2.4c0.9,0.2,1.8-0.8,2.7-1.1c0.9-0.3,2.1-0.4,2.7,0.4c0.4,0.5,0.5,1.1,0.8,1.6
			c0.6,0.9,1.9,1,3,0.8c1.1-0.2,2-0.8,2.8,0c1.3,1.2,0.1,1.5-1.4,2.7c-0.6,0.4,0.8,1.6,0.9,2.2s-1.6,0.7-1.4,1.4
			c1.1,4,7.8-6.8,11.2-4.5c2,1.3,2,6.5,4.2,5.6c2.3-1,2.2-4.5,4.4-5.7c1.4-0.8,3-1.3,4.6-1.8"/>
		<path fill="none" stroke="#585858" stroke-miterlimit="10" d="M365.1,53.7c0.6-0.2,1.3-0.3,1.9-0.5"/>
	</g>
</g>
<g>
	<g>
		<path fill="none" stroke="#585858" stroke-miterlimit="10" d="M-17.5,65c2.7-1.2,5.5-2.4,8.3-3.4"/>
		<path fill="none" stroke="#585858" stroke-miterlimit="10" stroke-dasharray="1.0082,3.0246" d="M-6.3,60.6
			c0.8-0.3,1.6-0.5,2.4-0.8"/>
		<path fill="none" stroke="#585858" stroke-miterlimit="10" stroke-dasharray="18.1474,3.0246,1.0082,3.0246" d="M-2.5,59.3
			c1-0.3,2.1-0.6,3.1-1c2-0.6,4-1.1,6.1-0.8c2,0.3,3.7,1.3,5.6,1.9c6.3,1.8,12.6-2.1,18.1-5.6C61.9,33.4,97,19,131.8,4.7
			c0.8-0.3,1.7-0.7,2.6-0.6c1.2,0.1,2.2,0.9,3.3,1.4c2.7,1.4,5.8,1.4,8.8,1.4c17.4,0,34.8,0.1,52.2,0.1c3.4,0,7,0,10.2,1.3
			c3.2,1.2,4.2,4.7,6.4,7.4c1.9,2.3,4.6,3.9,4,6.9c-0.4,1.9-1.6,3.4-2.2,5.2c-0.5,1.4-0.6,3-1,4.5c-0.7,3.1-2.5,5.9-3.6,8.9
			c-1.9,5.4-1.7,11.3-3.7,16.6c-0.8,2.2-2,4.4-1.6,6.7c0.3,1.8,1.6,3.3,2.9,4.7c1.2,1.3,2.4,2.6,3.5,3.9c0.5,0.5,1,1.1,1.7,1.3
			c0.9,0.3,1.9-0.2,2.7-0.6c1.8-0.9,3.7-1.7,5.5-2.6c1.8-0.8,3.6-1.7,5.4-2.5c5-2.4,10.4-4.8,15.9-4c1.9,0.3,3.9,1,5.8,0.6
			c0.9-0.2,1.9-0.7,2.8-0.5c1.4,0.3,2.1,1.7,3,2.7c1.8,1.9,3.8,3.5,5.6,5.3c0.5,0.5,1,1,1.2,1.7c0.8,2-1.2,3.9-2.6,5.6
			c-1.6,1.8-4.4,4.2-3.4,6.4c0.8,1.6,3,1.8,4.1,3.2c0.7,0.9,1.3,2,2,3c2.2,3.4,5.1,6.4,8.5,8.7c2.5,1.7,5.5,3.2,6.9,5.8
			c0.9,1.7,1.4,4,3.2,4.6c2,0.8,4-1,5.2-2.7c1.2-1.7,3.8-2.2,4.6-4.1c0.5-1.2,0.3-2.5,1.6-2.8c1.2-0.3,2.6,0,3.7-0.5
			c0.9-0.3,1.6-1,2.5-1.1c1.6-0.1,2.8,1.9,4.5,1.8c0.6-0.1,1.2-0.4,1.8-0.7c1.7-0.7,3.6-0.4,5.3,0.3s3.1,1.9,4.7,2.9
			c0.6,0.4,1.2,0.7,1.8,0.6c0.6,0,1.1-0.4,1.6-0.8c2.6-2.2,4-5.6,6.2-8.2c2.2-2.7,6.1-4.7,9-2.9c0.5,0.3,1,0.1,1.5,0.3
			c1,0.5,1.4,2.2,2.5,2.2c5.9,0.2,9,3.3,11.8,7.8c2,3.2,6.9-2.7,9.5-5.4c0.2-0.2,0.3-0.3,0.5-0.5"/>
		<path fill="none" stroke="#585858" stroke-miterlimit="10" d="M361.3,97c2-2.2,3.9-4.6,6.3-6.4"/>
	</g>
</g>
<text transform="matrix(1 0 0 1 187.492 51.0296)"><tspan x="0" y="0" fill="#585858" font-family="'Verdana-Italic'" font-size="8">Styx</tspan><tspan x="0" y="14" fill="#585858" font-family="'Verdana-Italic'" font-size="8">Pass</tspan></text>
<text transform="matrix(1 0 0 1 189.659 199.5296)"><tspan x="0" y="0" fill="#7BBCEB" font-family="'Verdana-Italic'" font-size="8">Many Island</tspan><tspan x="0" y="9.6" fill="#7BBCEB" font-family="'Verdana-Italic'" font-size="8">Lake</tspan></text>
<text transform="matrix(1 0 0 1 306.6583 217.6965)" fill="#585858" font-family="'Verdana-Italic'" font-size="8"> 7932</text>
<text transform="matrix(1 0 0 1 199.825 240.5298)" fill="#585858" font-family="'Verdana-Italic'" font-size="8"> 7823</text>
<text transform="matrix(1 0 0 1 30.9917 309.5298)" fill="#585858" font-family="'Verdana-Italic'" font-size="8"> 7815 </text>
<path fill="none" d="M164.2,136.9c7.4-9.3,17.8-15.6,28-21.7"/>
<text transform="matrix(0.7172 -0.6968 0.6968 0.7172 169.1282 135.0657)"><tspan x="0" y="0" fill="#7D7D7D" font-family="'Verdana-Italic'" font-size="7">7</tspan><tspan x="4.3" y="0" fill="#7D7D7D" font-family="'Verdana-Italic'" font-size="7" rotate="3.8">4</tspan><tspan x="8.6" y="0.3" fill="#7D7D7D" font-family="'Verdana-Italic'" font-size="7" rotate="7">0</tspan><tspan x="12.9" y="0.8" fill="#7D7D7D" font-family="'Verdana-Italic'" font-size="7" rotate="9.4">0</tspan></text>
<path fill="none" d="M70.7,50.8c7.1-14.6,23.6-22.4,37-31.7"/>
<text transform="matrix(0.562 -0.8271 0.8271 0.562 74.1326 49.553)"><tspan x="0" y="0" fill="#7D7D7D" font-family="'Verdana-Italic'" font-size="7">7</tspan><tspan x="4.2" y="0" fill="#7D7D7D" font-family="'Verdana-Italic'" font-size="7" rotate="6.2">8</tspan><tspan x="8.4" y="0.4" fill="#7D7D7D" font-family="'Verdana-Italic'" font-size="7" rotate="11.3">0</tspan><tspan x="12.6" y="1.3" fill="#7D7D7D" font-family="'Verdana-Italic'" font-size="7" rotate="15.4">0</tspan></text>
<path fill="none" d="M252.2,40c-2.1-2.6-0.1-6.9,2.1-9.5c1.2-1.4,2.9-2.3,4.4-3.4c3-2.2,5.3-5.4,6.4-9"/>
<text transform="matrix(0.5029 -0.8643 0.8643 0.5029 253.9383 35.806)"><tspan x="0" y="0" fill="#7D7D7D" font-family="'Verdana-Italic'" font-size="7">7</tspan><tspan x="3.6" y="-0.3" fill="#7D7D7D" font-family="'Verdana-Italic'" font-size="7" rotate="22.1">4</tspan><tspan x="7.6" y="1.7" fill="#7D7D7D" font-family="'Verdana-Italic'" font-size="7" rotate="20.7">0</tspan><tspan x="12.5" y="3.4" fill="#7D7D7D" font-family="'Verdana-Italic'" font-size="7" rotate="6">0</tspan></text>
<path fill="none" d="M287.7,279.9c1.4-1.2,4.5-5.6,6.3-5.4c6.6,0.8,12.9,4,19.1,1.7"/>
<text transform="matrix(0.9792 0.2031 -0.2031 0.9792 294.1463 277.015)"><tspan x="0" y="0" fill="#7D7D7D" font-family="'Verdana-Italic'" font-size="7">7</tspan><tspan x="4.4" y="0" fill="#7D7D7D" font-family="'Verdana-Italic'" font-size="7" rotate="1.4">6</tspan><tspan x="9.1" y="0.2" fill="#7D7D7D" font-family="'Verdana-Italic'" font-size="7" rotate="-4.1">0</tspan><tspan x="14.1" y="-0.2" fill="#7D7D7D" font-family="'Verdana-Italic'" font-size="7" rotate="-17.8">0</tspan></text>
<path fill="none" d="M9.4,280.1c1.1-0.9,2.4-1.5,3.6-2.1c5.7-2.7,11.1-6.2,15.9-10.3c1.3-1.1,3-2.4,4.6-1.9"/>
<text transform="matrix(0.8646 -0.5025 0.5025 0.8646 17.6292 278.515)"><tspan x="0" y="0" fill="#7D7D7D" font-family="'Verdana-Italic'" font-size="7">7</tspan><tspan x="4.6" y="0" fill="#7D7D7D" font-family="'Verdana-Italic'" font-size="7" rotate="-3.4">2</tspan><tspan x="9.2" y="-0.3" fill="#7D7D7D" font-family="'Verdana-Italic'" font-size="7" rotate="-6.9">0</tspan><tspan x="13.7" y="-0.9" fill="#7D7D7D" font-family="'Verdana-Italic'" font-size="7" rotate="-9.6">0</tspan></text>
<path fill="none" d="M125,327.8c2.6-7.6,5.2-15.2,7.8-22.8"/>
<text transform="matrix(0.3245 -0.9459 0.9459 0.3245 128.4515 325.4622)"><tspan x="0" y="0" fill="#7D7D7D" font-family="'Verdana-Italic'" font-size="7">7</tspan><tspan x="4.5" y="0" fill="#7D7D7D" font-family="'Verdana-Italic'" font-size="7">2</tspan><tspan x="8.9" y="0" fill="#7D7D7D" font-family="'Verdana-Italic'" font-size="7">0</tspan><tspan x="13.4" y="0" fill="#7D7D7D" font-family="'Verdana-Italic'" font-size="7">0</tspan></text>
<g>
	<g>
		<polyline fill="none" stroke="#7D7D7D" stroke-miterlimit="10" points="85.2,341.6 85.2,348.7 275.4,348.7 275.4,341.7 		"/>
		<line fill="none" stroke="#7D7D7D" stroke-miterlimit="10" x1="180.5" y1="341.4" x2="180.5" y2="348.7"/>
		<line fill="none" stroke="#7D7D7D" stroke-miterlimit="10" x1="161.2" y1="349.2" x2="161.2" y2="343.7"/>
		<line fill="none" stroke="#7D7D7D" stroke-miterlimit="10" x1="142.4" y1="349.2" x2="142.4" y2="343.7"/>
		<line fill="none" stroke="#7D7D7D" stroke-miterlimit="10" x1="123.3" y1="349.2" x2="123.3" y2="343.5"/>
		<line fill="none" stroke="#7D7D7D" stroke-miterlimit="10" x1="104.6" y1="349.2" x2="104.6" y2="343.7"/>
	</g>
	<text transform="matrix(1 0 0 1 83.7836 339.1469)" fill="#7D7D7D" font-family="'Verdana'" font-size="8">0</text>
	<text transform="matrix(1 0 0 1 174.2947 339.1469)" fill="#7D7D7D" font-family="'Verdana'" font-size="8">0.5</text>
	<text transform="matrix(1 0 0 1 258.3416 339.1469)" fill="#7D7D7D" font-family="'Verdana'" font-size="8">1 mi</text>
</g>
</svg>
