<?xml version="1.0" encoding="utf-8"?>
<!-- Generator: Adobe Illustrator 17.1.0, SVG Export Plug-In . SVG Version: 6.00 Build 0)  -->
<!DOCTYPE svg PUBLIC "-//W3C//DTD SVG 1.1//EN" "http://www.w3.org/Graphics/SVG/1.1/DTD/svg11.dtd">
<svg version="1.1" id="Layer_1" xmlns="http://www.w3.org/2000/svg" xmlns:xlink="http://www.w3.org/1999/xlink" x="0px" y="0px"
	 viewBox="0 0 360 360" enable-background="new 0 0 360 360" xml:space="preserve">
<path fill="none" stroke="#E1E1E1" stroke-miterlimit="10" d="M328.4,367.2c2-1.4,4-2.8,5.3-4.8c0.5-0.8,0.9-1.6,1.3-2.4
	c1.5-3.1,3-6.1,4.4-9.2c0.7-1.4,1.3-2.7,1.6-4.2c0.2-1.2,0.2-2.4,0.5-3.5c0.6-2,2.2-3.5,3.5-5.2c3.7-4.6,5.2-10.5,7.2-16
	c0.8-2.1,1.6-4.2,3.1-5.8c2.4-2.6,6.4-3.9,8-7.1c0.4-0.8,0.6-1.6,0.9-2.3c1.1-2.7,3.5-4.9,6.3-5.8"/>
<path fill="none" stroke="#E1E1E1" stroke-miterlimit="10" d="M368.9,270.1c0.1-0.4-0.4-0.8-0.9-0.7c-0.4,0.1-0.7,0.5-1,0.9
	c-3.5,4.8-7.1,9.6-10.6,14.4c-0.8,1.1-1.6,2.1-2.1,3.4c-0.4,1-0.6,2-1.2,2.9c-0.4,0.6-1,1-1.5,1.4c-5.5,4.4-8.7,11-11.8,17.4
	c-2.2,4.6-4.4,9.3-6.7,13.9c-1.1,2.3-2.2,4.5-3,6.9c-1,2.7-1.6,5.6-2.4,8.4c-2.9,10.4-8,20.2-15,28.4"/>
<path fill="none" stroke="#E1E1E1" stroke-miterlimit="10" d="M304.5,366.2c1.7-0.9,2.7-2.8,3.6-4.6c2.5-5.4,1.4-13.1,6.2-16.6
	c1.6-1.1,3.8-0.9,4.9-2.5c0.9-1.4,1.1-3.1,1.3-4.7c0.8-6.6,1.7-13.2,2.5-19.8c0.2-1.9,0.5-3.9,1.4-5.6c0.8-1.5,2-2.6,3-3.9
	c6.7-7.9,9-19,16.6-25.9c1.4-1.3,3.1-2.5,4.5-3.8c7.6-6.7,11.2-17.5,20.1-22.4"/>
<path fill="none" stroke="#E1E1E1" stroke-miterlimit="10" d="M368.3,240.7c-4.4,3.4-8.1,7.6-11.1,12.3c-1.6,2.6-3,5.4-5,7.8
	c-1.9,2.2-4.2,4-6.3,5.9c-10.5,9.5-16.9,22.5-25.8,33.5c-0.5,0.6-1,1.3-1.8,1.6c-1.5,0.8-3.4,0.3-4.9,1.1c-1.1,0.7-1.7,2-2,3.3
	c-0.7,2.4-1.1,4.8-1.2,7.3c-0.2,5.6,1,11.1,1,16.7c0,5.6-1.8,11.7-6.4,14.8c-0.8,0.5-1.7,1-2.2,1.8c-0.6,1.1-0.3,2.5-0.2,3.8
	c0.3,3.3-1.2,6.8-4.1,8.4c-1.6,0.9-3.6,1.1-5,2.3c-1.8,1.6-2,4.6-0.4,6.4"/>
<path fill="none" stroke="#E1E1E1" stroke-miterlimit="10" d="M288.2,366.3c0-0.8,0.6-1.9,0-2.4c-1.6-1.6-3.5-2.9-2.8-5
	c0.7-2.1,2.6-3.7,3.9-5.5c3.1-4.1,3.6-9.7,6.4-14.1c1.4-2.2,3.4-4.1,5-6.2c1.6-2.1,2.8-4.8,2.3-7.4c-0.3-1.7-1.3-3.1-2.2-4.6
	c-3.6-6.7-3.4-14.6-3.1-22.2c0.2-4,0.9-8.8,4.5-10.2c1.7-0.7,3.7-0.4,5.6-0.6c5.3-0.4,9.7-4.3,13.6-7.9c3.1-2.9,6.2-5.8,9.4-8.7
	c1.9-1.8,3.9-3.6,5.3-5.9c1.6-2.5,2.4-5.5,4.3-7.8c1.2-1.5,2.9-2.7,4.5-3.9c5.5-4.2,10.3-9.2,15.1-14.1c3.4-3.5,6.8-7,9.3-11.1"/>
<path fill="none" stroke="#E1E1E1" stroke-miterlimit="10" d="M370.9,218.7c-9.2,3-14.2,13-22.7,17.6c-1.9,1.1-4.1,1.8-5.7,3.3
	c-2.7,2.5-3.4,6.3-5.5,9.3c-3.5,4.9-9.9,6.7-14.7,10.3c-4.3,3.2-7.3,7.8-11,11.7c-1.6,1.6-3.3,3.1-5.5,3.8
	c-5.7,1.9-13.2-2.2-17.4,2.1c-3.7,3.8-0.7,10.2-1.3,15.5c-0.2,2.3-1.2,4.6-1.3,6.9c-0.1,2.2,0.6,4.3,1.2,6.4c0.9,3,1.9,6,2.8,9
	c0.4,1.3,0.8,2.6,0.8,3.9c-0.1,2.5-1.7,4.7-3.1,6.8c-5.6,8.5-8.7,18.6-8.7,28.7c0,2.8,0,6.1-2.3,7.8c-1.9,1.4-5.3,1.8-5.3,4.2"/>
<path fill="none" stroke="#E1E1E1" stroke-miterlimit="10" d="M250.2,367.5c5.8-4.8,11.7-9.5,17.5-14.3c1.2-0.9,2.4-2.1,2.4-3.6
	c0-1-0.7-2-1.2-2.9c-3.8-6.9,0.3-15.3,4.7-21.8c2.3-3.4,4.9-7.2,4.4-11.3c-0.4-3.7-3.2-6.8-3.7-10.5c-0.2-1.8,0.1-3.6,0.4-5.4
	c1-5.5,1.9-11,2.9-16.4c1-5.6,2.3-11.7,6.8-15.2c3.8-3,8.9-3.3,13.5-4.9c8.8-3.1,15.1-10.6,22-16.9c4.7-4.3,9.9-8.1,15.4-11.3
	c1.8-1,3.6-2,5.2-3.3c4.9-3.8,7.8-10.1,13.5-12.6c5-2.2,11.3-1.1,15.5-4.5"/>
<path fill="none" stroke="#E1E1E1" stroke-miterlimit="10" d="M224.4,366.5c3.6-3.2,7.8-5.8,12.3-7.7c1.9-0.8,3.9-1.5,5.7-2.5
	c2-1.2,3.7-2.8,5.4-4.4c2.5-2.3,4.9-4.6,7.4-6.9c1.5-1.4,3-2.8,3.7-4.7c1.3-3.2,0.1-6.9,0.8-10.3c0.5-2.1,1.8-5.6-0.3-6
	c-2.4-0.4-4,2.6-5.6,4.5c-5.4,6.4-11.5,12.2-18.3,17.1c-2.3,1.7-4.7,3.2-7.4,4c-2.3,0.7-4.7,0.7-7.1,1.1c-2.7,0.5-5.3,1.5-7.8,2.5
	c-3.6,1.4-7.2,2.8-10.4,4.7c-2.5,1.5-4.8,3.3-7,5.2c-1.8,1.5-3.8,3.6-3.2,6"/>
<path fill="none" stroke="#E1E1E1" stroke-miterlimit="10" d="M183.8,368.8c3.2-4.1,6.3-8.2,9.5-12.2c3.3-4.2,6.7-8.6,11.5-10.9
	c3.3-1.6,7-2.2,10.6-3.1c14.4-3.5,27.4-12.5,35.9-24.7c4.7-6.8,8-14.6,13.2-21c2.6-3.3,5.7-6.2,7.4-10c3.5-7.7,0.5-17-4.4-23.9
	c-4.9-7-11.5-12.6-16.2-19.7c-2.5-3.7-4.4-7.7-5.7-12c-0.5-1.7-1-3.5-0.8-5.2c0.2-2.8,1.9-5.3,3.4-7.8
	c11.9-19.1,17.4-41.7,29.6-60.7c2.7-4.1,5.6-8.1,7.4-12.6c1.8-4.6,2.4-9.5,2.7-14.4c0.8-12,0.2-24-1.7-35.9c-0.6-3.6-1.3-7.3-0.6-11
	c0.7-3.6,3.2-7.2,6.8-7.9c4.6-0.9,8.8-1,13.5-0.9c1.8,0,4.6-0.1,5.8-1.5c1.2-1.4,1.6-3.3,2.2-5c1-2.8,2.3-7.6,5.3-7.1
	c0.9,0.1,0,1.9,0.5,2.6c3,4,10-2.7,12.1-7.2s1.1-10.3-2.3-13.9c-1.3-1.3-3-2.6-3.1-4.5c-0.1-1.8,1.5-3.4,3.2-3.8s3.6,0,5.3,0.6
	c1.9,0.7,3.7-0.3,5.6,0.1c3.4,0.6,2.4,6.7,4.8,9.2c0.5,0.5,1.3-0.3,1.6-1c2.2-3.8,4.4-7.8,5.6-12.1c0.4-1.4,0.8-3.1,2.1-3.9
	c0.5-0.3,1.1-0.5,1.6-0.8c2-1.3,1.9-5,4.3-5.6c0.7-0.2,1.6,0,2.2-0.4c0.5-0.3,0.7-1,0.9-1.5c0.9-2.2,2.7-4.1,5-4.9
	c0.7-0.3,1.8,0.4,1.3,0.8"/>
<path fill="none" stroke="#E1E1E1" stroke-miterlimit="10" d="M367.6,22.9c-0.4-1.1-1.7-1.8-2.9-1.5s-2,1.5-1.8,2.7
	c0.2,1.1,1,2,0.8,3.1c-0.1,0.5-0.4,0.9-0.7,1.2c-1,1.3-2.3,2.7-3.8,2.4c-0.5-0.1-1-0.4-1.5-0.4c-1.1,0-1.7,1.2-2.1,2.2
	c-0.7,2.2-1,4.6-0.2,6.7c0.3,0.8,0.8,1.5,1.1,2.2c0.5,1.2,0.6,2.5,1.1,3.7s1.6,2.3,2.9,2.1c1-0.1,1.8-1,2.2-2s0.3-2,0.4-3.1
	c0.1-3.5,0.7-7,1.8-10.4c0.1-0.4,0.3-0.8,0.5-1.2c0.7-1,2.2-1.2,3.5-1.1"/>
<path fill="none" stroke="#E1E1E1" stroke-miterlimit="10" d="M181.9,367.2c-0.1-3.5-0.1-7.3,2-10.2c1.7-2.4,4.6-3.7,6.8-5.7
	c3.4-3.1,5.2-7.6,8.2-11.1c5.2-6,13.5-8,20.6-11.5c11.6-5.6,21-15.7,25.8-27.7c0.9-2.2,1.6-4.5,2.6-6.7c1.2-2.5,2.7-4.9,3.5-7.5
	s0.9-5.7-0.7-8c-1.5-2.2-4.3-3.2-6.6-4.5c-2.3-1.4-3.1-5.4-5.6-6.4c-4.9-1.9-6-7.2-10.8-6.8c-1.1,0.1-2.1,0.6-3.2,0.6
	c-3.8,0.2-5.9-4.5-5.8-8.3c0.1-3.8,1.3-7.8-0.2-11.2c-0.7-1.5-1.8-3-1.5-4.6c0.2-0.9,0.8-1.6,1.5-2.3c13.6-14.9,25.3-31.6,34.8-49.4
	c1.6-3.1,3-6.5,4.5-9.7c0.8-1.7,1.6-3.4,2.7-4.8c0.9-1.1,1.9-2.1,2.7-3.3c1.4-2.1,1.6-4.7,2.4-7.1c1.9-6,6.8-10.5,9.5-16.2
	c3.4-7.1,3.2-15.2,2.9-23c-0.2-4.6-0.3-9.2-0.5-13.9c-0.2-5.6-0.4-11.3-2.1-16.7c-0.8-2.5-1.9-5-2.2-7.7c-0.5-5,2.6-10.1,7.3-12
	c5.4-2.2,8.7-7.4,13.2-11.1c1.6-1.3,3.2-2.7,4.2-4.5c1.6-3.1,1.1-6.8,1-10.2c-0.1-3.5,0.5-7.5,3.5-9.3c2.1-1.3,5.5-1.7,5.8-4.2
	c0.3-2.5,2.7-4.4,5.1-4.9c2.5-0.6,5.1-0.1,7.5,0.4c1.6,0.3,3.1,0.6,4.6,1.3c4.2,2.1,9.1,1.6,13.7,2.1c2.7,0.3,5.7,3.4,8,1.9
	c3.9-2.5,3.1-8.6,5.8-12.3c0.6-0.8,1.3-1.6,2.3-1.8c4.6-0.6,8.1-10.8,15.4-10.9"/>
<path fill="none" stroke="#E1E1E1" stroke-miterlimit="10" d="M170.5,368c0.1,0,0.2,0,0.2,0c4.9-2.3,6.2-8.7,9-13.4
	c2.2-3.8,4.7-7.4,7.1-11c4.7-6.9,9.4-13.8,14.1-20.7c2.2-3.2,4.5-6.6,7.9-8.5c0.9-0.5,1.9-0.9,2.5-1.8c0.5-0.7,0.7-1.7,0.9-2.5
	c1.6-5.7,8.1-9.3,8.9-15.2c0.6-4.5-2.3-8.6-5.5-11.8s-7-5.9-9.1-9.9c-0.8-1.5-1.5-3.3-3.1-3.8c-0.8-0.3-2.9-5.5-2.7-6.7
	c0.8-4.6,1.3-6.5,2.1-11.1c0.2-1.3-1.3-4.7-0.9-5.9c4.5-11.9,12.8-24.5,22.3-36.5c2.6-3.3,6.2-5.6,9-8.6c4.5-5,7.9-10.8,11.3-16.7
	c2.7-4.7,5.4-9.5,8.2-14.2c3.5-6.1,3.3-14,6.9-20c1.3-2.2,3.1-4,4.2-6.2c1.2-2.4,1.5-5.2,1.8-7.9c0.6-6,1.3-12.1,1.9-18.1
	c0.4-4.2,0.9-8.6-0.5-12.6c-1.1-3.2-3.3-6-4-9.3c-0.5-2.2-0.3-4.5,0-6.8c0.6-5.7,1.2-11.5,3.9-16.5c1.1-2.1,2.6-4,3.6-6.2
	c1.6-3.6,1.9-7.8,0.6-11.5c-0.8-2.4-2.2-4.6-2.8-7.1c-0.6-2.5,0-5.5,2.2-6.8c1-0.6,1-1.8,1.5-2.8c0.7-1.4,2.1-2.4,3.5-3.3
	c3.3-2.1,6.9-4.2,9.2-7.4c1.9-2.8,2.7-6.3,4.5-9.1c0.7-1.1,1.6-2.1,2.4-3.1c5.3-6.1,16.4-17.7,18.8-14.7c1.3,1.6-2.4,8.6-5.3,11.9
	c-0.7,0.7-1.2,1.6-1.7,2.4c-0.9,1.5-0.9,3.9,0.4,3.8c2.5-0.1,5.1,2.7,7.5,3c3.5,0.5,6.7-2.1,10.2-2.1c3.9-0.1,7.2,2.8,10.6,4.9
	c4.1,2.4,10.3,6.8,13.7,3.5c3.1-2.9,2.6-8.3,6-10.9c1.3-1,2.8-1.8,3.8-3.1c1.1-1.4,1.5-3.3,2.2-5c2-4.6,6.8-7.8,11.8-7.8"/>
<path fill="none" stroke="#E1E1E1" stroke-miterlimit="10" d="M320.5-13.5c0.3,4.5-1.5,8.9-2.8,13.3c-1.3,4.4-3.9,11.1,0.1,13.3
	c3.1,1.7,7.1-0.6,10.6-0.9c1.3-0.1,2.6-0.2,3.7,0.4c1.5,0.9,2.1,2.9,3.6,3.9c0.8,0.5,1.8,0.7,2.7,0.8c2.9,0.4,6.1,0.9,8.8-0.5
	c2.2-1.1,3.7-3.2,5.1-5.3c0.3-0.5,0.7-1,0.9-1.5c0.3-0.9,0.3-1.9,0.5-2.8c0.5-3.4,2.8-6.3,5.6-8.3c2.8-2,6.1-3.2,9.3-4.3"/>
<path fill="none" stroke="#E1E1E1" stroke-miterlimit="10" d="M368.4-12.5c-1,0.4-2,0.8-3.1,1.2c-2.4,0.9-4.8,1.9-7.2,2.8
	c-1.6,0.6-3.3,1.3-4.6,2.5c-2,1.9-2.7,4.7-4,7.1c-2.2,4-6.5,6.7-11.1,7.1s-9.2-1.7-12-5.3c-0.9-1.1-1.6-2.5-1.9-3.9
	c-0.9-5.2,4.4-10.5,2.5-15.5"/>
<path fill="none" stroke="#E1E1E1" stroke-miterlimit="10" d="M159.8,366.4c6.5-9.3,13.1-18.6,19.6-27.9c1.5-2.2,3.1-4.5,3.2-7.1
	c0.1-1.3-0.2-2.6,0-3.9c0.5-2.6,2.8-4.3,4.3-6.4c1.5-2.1,2.2-4.6,2.9-7c1.3-4.8,2.7-9.6,4-14.4c1.7-6.1,3.4-12.4,2.6-18.7
	c-0.8-6.8-4.5-13-5.1-19.8c-0.5-4.9,0.6-9.7,2-14.4c3.9-13,10.1-25.3,18.3-36c6.6-8.6,14.3-16.1,20.8-24.8
	c8.8-11.8,15.1-25.4,18.2-39.8c2.1-9.4,7.4-18.5,7.2-28.2c-0.1-5.6-2.6-10.9-3.7-16.5c-1.3-6.9-0.4-14-0.2-21.1
	c0.2-7,1.5-17.1-4.9-20.1c-1.7-0.8-3.5,1.4-4.8,2.7c-4.7,4.8-8.2,10.8-9.9,17.3c-0.4,1.5-0.8,3.1-1.9,4c-0.6,0.5-1.4,0.7-2.2,1
	c-14.9,4.1-31.4,4.3-44.3,12.9c-5.8,3.9-10.4,9.3-15.6,13.9c-3.5,3.1-7.2,5.9-11.2,8.4c-2.6,1.6-5.3,3.1-7.5,5.3
	c-1.3,1.3-2.4,2.8-3.6,4.2c-4.1,4.6-9.5,7.8-14,11.9c-10,9.1-20.3,18.9-25.5,31.4c-1.2,2.9-4.9,4.9-7,7.3c-1.4,1.6-1.9,3.8-3.4,5.4
	c-0.8,0.9-1.8,1.5-2.7,2.1c-4.4,3-7.9,7.1-10.2,11.8c-1.3,2.7-2.2,5.5-3.1,8.3C79.2,218,71,227.5,73,237.5c0.4,1.7,2.4,3.2,1.4,4.7
	c-0.8,1.3-2.7,1.3-4.2,1.4c-3,0.3-5.8,1.7-8.3,3.5c-6.5,4.7-10.7,11.8-14.8,18.7c-0.6,1.1-1.3,2.2-1.4,3.4c-0.2,2.3,1.8,4.4,1.8,6.8
	c0,1.2-0.5,2.4-1,3.5c-5.2,11.1-14.8,20.2-26.3,24.7c-0.7,0.3-1.6,0.5-2.2,0.1c-1.2-0.8-0.3-2.6-0.3-4.1c-0.1-2.6-3.5-3.7-4.7-6.1
	c-2-3.9,3-8.6,1.4-12.6c-0.9-2.2-3.4-3.1-5.7-3.9c-3.7-1.2-7.7-2.4-11.5-1.7c-0.9,0.2-1.7,0.4-2.6,0.2c-0.8-0.2-1.4-0.6-2-1.1
	c-5.1-4-9.8-8.5-13.9-13.6"/>
<path fill="none" stroke="#E1E1E1" stroke-miterlimit="10" d="M141.3,367.3c9.3-12.8,18.7-25.5,28-38.3c1.8-2.4,3.6-4.9,4.6-7.8
	c1.5-4.5,0.8-9.3,1.5-14c1.1-7.5,5.9-14.4,5.6-22c-0.2-5-2.7-9.8-2.4-14.9c0.1-2.1,0.7-4.1,0.9-6.2c0.3-2.7-0.1-5.5-0.2-8.3
	c-0.4-15,7.5-28.9,15.9-41.3c7.1-10.5,14.6-20.7,22.7-30.5c5.5-6.7,11.3-13.4,14.8-21.3c1.7-3.8,2.8-7.9,3.9-11.9
	c1.8-6.5,3.6-12.9,5.3-19.4c3.4-12.4,9.5-31.6-1.9-37.6c-5.4-2.8-11.9,2.4-17.8,3.7c-6.4,1.3-12.8,2.6-18.8,5.2
	c-7.9,3.4-14.7,9-21.4,14.5c-5.1,4.1-10.1,8.3-15.2,12.4c-7.7,6.3-15.4,12.6-22.5,19.6c-4,3.9-7.8,8.1-11.2,12.5
	c-13.8,17.5-22.3,38.5-30.5,59.1c-0.6,1.5-1.2,3.1-1.8,4.6c-2.7,6.9-5.6,13.9-10.9,19.1c-3.6,3.5-8.1,6.1-11.5,9.7
	c-4.1,4.4-6.4,10.3-10.5,14.6c-3,3.1-6.8,5.4-9.4,8.9c-1.7,2.3-2.8,5.1-4,7.7c-2.4,5-5.4,9.7-9,14c-4.6,5.4-10.2,8.9-16.6,12
	c-1,0.5-2.1,0.9-2.9,1.7c-1.7,1.4-2.4,3.7-3.5,5.6c-2.7,4.4-7.9,6.5-12.9,8c-2.6,0.8-6.7,3-8.1,0.7c-1.1-1.8,0.8-4.1,1.2-6.1
	c0.1-0.6,0.2-1.3,0-1.9c-0.2-0.6-0.6-1-1-1.5c-1.2-1.6-1.5-3.7-1.7-5.6c-0.7-5.1-1.3-10.3-2-15.4c-0.2-1.8-0.5-3.6-1.6-5.1
	c-1.7-2.2-4.7-2.7-7.3-3.5c-2.4-0.7-4.7-1.8-6.7-3.3"/>
<path fill="none" stroke="#E1E1E1" stroke-miterlimit="10" d="M125,367.9c5.5-9.5,11-18.9,16.5-28.4c2.1-3.7,4.3-7.4,5.5-11.4
	c2.6-8.4,1.2-17.5,2.3-26.2c1.7-13.7,9.7-26.6,8.5-40.4c-0.3-4-1.4-7.9-2.2-11.9c-0.7-3.8-1.1-7.7-1.1-11.5c0-1.2,0-2.5-0.5-3.7
	c-1.4-3.2-4.1-5.6-7-7.6c-1.7-1.2-5-0.9-6.1,0.8c-1.7,2.6-2.8,7.8-5.2,5.9c-2-1.6-2.6-6.3-5.1-5.5c-3.6,1.1-5.7,4.8-8.3,7.5
	c-6.1,6.3-8.5,15.3-13.1,22.8c-1.8,3-3.7,5.9-5.8,8.7c-3.5,4.4-7.7,8.1-11.9,11.8c-14.5,12.7-29,25.5-45.4,35.6
	c-1.5,0.9-3.1,1.9-4.9,1.9c-1,0-2-0.3-3-0.2c-1.5,0.2-2.8,1.3-3.9,2.4c-6.7,6.1-14.2,11.4-22.2,15.6c-4.4,2.3-9.3,4.4-14.3,4.2
	c-3-0.1-5.9-1-9-1.3s-6.3,0.3-8.4,2.5"/>
<path fill="none" stroke="#E1E1E1" stroke-miterlimit="10" d="M-17.7,349.5c2.6-1.5,5.8-0.2,8.8,0.4c3.5,0.8,7.3,0.6,10.7-0.5
	c2.3-0.8,4.7-2,7-1c0.6,0.3,1.2,0.7,1.9,0.7c0.8,0.1,1.5-0.4,2.2-0.9c2.6-1.8,5.2-3.6,7.8-5.4c1-0.7,2-1.4,3-2.1
	c1.4-1,2.8-1.9,4-3.1c1.1-1,2.1-2.3,3.4-3c2.8-1.4,6.3,0.1,9.4-0.6c3.3-0.8,5.8-4.1,9.2-4.4c1.5-0.1,3,0.4,4.5,0.3
	c2-0.1,3.8-1.1,5.5-2.1c5.2-3,10.3-5.9,15.5-8.9c4.2-2.4,8.4-4.8,12-8.1c3-2.8,5.6-6.1,8.9-8.5s13.4-4,11.5-0.3
	c-2.6,5,0.6,2.1,3,5.5c2.4,3.4-7.1,5-8.2,9c-0.2,0.8-0.3,1.7-0.8,2.3c-0.4,0.5-1,0.8-1.3,1.3c-0.4,0.5-0.5,1.3-0.5,1.9
	c-0.2,3.9-0.5,7.8-0.7,11.6c-0.2,3.5-0.3,7.4,1.9,10.2c1.3,1.7,3.5,3,3.5,5.2c0,1.9-1.7,3.3-3,4.8c-3.7,4.4-3.4,11.3-7.3,15.6"/>
<path fill="none" stroke="#E1E1E1" stroke-miterlimit="10" d="M309.8-15.7c-2.8,3.2-6.2,5.8-9.9,7.9c-1.2,0.7-2.5,1.3-3.4,2.3
	c-1.3,1.3-2,3-2.8,4.7c-2.7,6-6.3,11.8-11.1,16.3s-10.9,7.8-17.5,8.6c-0.6,0.1-1.2,0.1-1.6-0.3c-0.3-0.2-0.4-0.6-0.5-1
	c-1.6-3.6-6.6-3.9-9.8-6.2c-2.3-1.7-3.6-4.5-4-7.3c-0.2-1.3-0.2-2.6-0.1-3.9c0.3-3.1,1.5-6.4-0.1-9.1c-1.4-2.4-4.5-3.2-7.3-3.6
	c-6.5-1-13.8,1.9-19.7-1c-2.6-1.3-2.5-5.4-2.3-8.3"/>
<path fill="none" stroke="#E1E1E1" stroke-miterlimit="10" d="M249.4-16.8c-0.3,2,2.4,6.4,3.4,8.6c0.6,1.3,3.6,3.2,4.8,4
	c3,1.9,2,7,5.3,8.3c1.8,0.6,3.7-0.6,5.6-0.4c2,0.2,3.4,1.9,4.8,3.4s3.3,2.8,5.2,2.2c1-0.3,1.7-1.2,2.4-2c1.5-1.9,3.1-3.7,4.6-5.6
	c0.8-1,1.6-2,2.7-2.6c0.7-0.5,1.5-0.8,2.1-1.4c0.8-0.8,1-1.9,1.4-2.9c1.2-4,3.4-7.6,6.2-10.6"/>
<path fill="none" stroke="#E1E1E1" stroke-miterlimit="10" d="M206.2-15.2c-2.2,5.1,1.6,10.7,5.2,15c0.6,0.8,1.3,1.5,2.2,2.1
	c2.9,1.7,6.5-0.3,9.5-1.6c2.5-1.1,5.1-1.8,7.8-2.1c2.6-0.3,5.4-0.1,7.8,1.2c2.3,1.3,4.1,3.8,3.8,6.5c-0.3,2.5-2.4,4.9-1.8,7.4
	c0.2,1,0.8,1.9,1,2.9c0.2,2.1-1.9,4-1.8,6.1c0.2,4,6.9,4.3,8.4,8c0.7,1.8-0.1,3.8-1,5.6c-6.7,13.7-15.6,26.3-26.2,37.3
	c-1.8,1.8-3.6,3.6-5.8,5c-2,1.3-4.3,2.1-6.5,3c-5.4,2.1-11,4.1-16.8,4.6c-1.1,0.1-2.3,0.1-3.4,0.6c-1,0.4-1.8,1.2-2.6,2
	c-7.6,7.2-15.8,13.6-24.6,19.2c-5.4,3.4-11.2,6.6-15.6,11.2c-1.7,1.7-3.1,3.6-4.8,5.4c-3.4,3.4-8.6,4.1-12.1,7.3
	c-2.1,1.9-1.4,5.7-3.3,7.8c-4.9,5.2-9.1,11.6-14.1,16.7c-3.5,3.5-8.8,5.9-9.9,10.7c-0.4,1.6-0.2,3.3-1,4.7c-1.4,2.5-5,2.7-7.7,3.7
	c-4.1,1.5-6.8,5.2-9.3,8.8c-4.2,6-8.5,12-12.7,18.1c-1.2,1.7-2.4,3.6-1.9,5.6c0.3,1.3,1.4,2.5,1.4,3.8c-0.1,1.1-0.9,1.9-1.6,2.7
	c-3.4,3.9-8.5,9.1-6.4,13.8c0.8,1.8,3.3,4.1,1.7,5.2c-2.3,1.6-6.3-1.7-8.4,0.2c-2.4,2.1-3.6,5-6.3,6.6c-7.9,4.6-14.9,10.6-20.6,17.7
	c-0.6,0.7-1.2,1.5-2.1,1.8c-0.7,0.3-1.6,0.2-2.3,0c-1.8-0.3-3.5-0.5-5.3-0.8c-4.6-0.7-9.2-1.3-13.5-2.8c-2.3-0.8-4.6-1.9-6.2-3.7
	c-1.3-1.5-2.1-3.3-2.9-5.1c-3.5-7.7-8.4-14.9-14.2-21.1"/>
<path fill="none" stroke="#E1E1E1" stroke-miterlimit="10" d="M175.5-16.2c4.2,5.9,0,15,4.6,20.6c5.7,6.9,17.9,2.1,26,6
	c1.5,0.7,3,1.6,4.7,1.8c3.3,0.4,6.3-1.7,9.2-3.1c3-1.4,7-2,9.1,0.5c0.8,1,1.1,2.3,1.3,3.5c0.5,4.7-1.4,9.9,1,13.9
	c0.9,1.5,2.4,2.8,2.4,4.6c0,1-0.5,2-1,2.9c-7.1,12.8-15,26.3-28,33c-6.2,3.2-13.1,4.6-19.4,7.6c-4.2,2.1-8.1,4.9-11.9,7.6
	c-17.2,12.5-34.5,25-51.7,37.5c-0.9,0.7-1.9,1.4-2.4,2.5c-0.5,1.2-0.4,2.6-0.7,3.8c-0.3,1.5-1.3,2.8-2.3,4.1
	c-5.6,7.2-11.1,14.4-16.7,21.6c-1.3,1.7-3.4,1.9-5.1,3.1c-4.3,2.9-4.1,9.7-8.5,12.2c-5.8,3.3-10.9,10.6-16.6,14
	c-0.7,0.4-1.4,0.8-1.8,1.5c-0.3,0.6-0.4,1.3-0.4,2c-0.3,3-1.6,5.9-3.5,8.1c-1.5,1.7-3.5,3.1-4.8,5c-1,1.4-1.7,3-2.3,4.5
	c-1.8,4.2-3.6,8.4-5.3,12.7c-0.4,0.9-0.8,1.9-1.6,2.4c-2.2,1.6-5.6-1-8,0.3c-0.8,0.4-1.3,1.1-1.8,1.8c-2.9,3.6-7,6.2-10.9,8.6
	c-0.9,0.5-1.8,1.1-2.8,1.3c-1.6,0.3-3.3-0.2-5-0.1c-3.7,0.2-7.3,3.6-10.7,2c-2.8-1.3-3.3-5.3-6-6.7c-0.9-0.5-2-0.7-2.7-1.5
	c-0.5-0.7-0.6-1.7-0.8-2.5c-0.5-1.6-1.8-2.8-3.1-3.9c-1.3-1.1-2.6-2.2-3.9-3.3c-0.8-0.7-1.6-1.4-2.6-1.8c-1-0.5-2.2-0.7-3.4-0.8
	c-3.5-0.3-7.1,0.7-10,2.6"/>
<path fill="none" stroke="#E1E1E1" stroke-miterlimit="10" d="M163.7-16.8c-2.1,2.6-1.8,6.8,0.6,9.1c0.8,0.7,1.7,1.3,2.4,2.1
	c2.1,2.6,0.8,6.6-1.7,8.9c-2.4,2.2-5.7,3.4-8.4,5.2c-2.7,1.9-5.1,5.1-4.3,8.3c0.9,3.4,4.7,5,8.2,5.6c5.1,0.9,10.4,0.8,15.4-0.4
	c5-1.2,10-3.3,15-2.3c6.9,1.3,13.1,8.5,19.7,6.1c1.3-0.5,2.6-1.3,3.9-0.9c2.1,0.6,2.3,3.4,1.9,5.6c-1.7,9.5-6.5,19-15.1,23.4
	c-3.3,1.7-7,2.5-10.6,3.5c-17.5,5.1-32.6,16.2-47,27.4c-7.4,5.8-14.7,11.6-21.9,17.6c-2.6,2.2-5.3,4.4-7.3,7.2
	c-1.7,2.4-2.9,5.1-4.4,7.6c-1.4,2.4-3.2,4.6-4.9,6.8c-3.6,4.7-7.2,9.5-10.7,14.3c-3,4-6,8.2-6.9,13.2c-0.4,2.2-0.7,4.9-2.7,5.8
	c-4.6,2-10.6,3.9-15,6.3c-14.1,7.7-22.5,22.5-31.6,35.8c-1.1,1.6-2.3,3.3-4.1,4.1c-2.3,1-5.1,0.3-7.4,1.3c-0.9,0.4-1.6,1-2.6,1.1
	c-1.6,0.1-2.9-1.3-4.5-1.5c-1-0.1-2,0.3-2.9,0.4c-3.4,0.4-10.2-1.9-8.5-4.8c3.2-5.2,14.7-9.1,17.4-19.1c0.5-2,2-3.7,2.9-5.5
	c0.6-1.2,1.2-2.4,1.8-3.5c1.9-3.7,3.8-7.5,5.8-11.2c0.5-0.9,0.9-1.8,1.6-2.7c0.4-0.6,1-1.1,1.4-1.7c0.6-0.8,1.1-1.8,1.5-2.7
	c2.5-5,4.9-10,7.4-14.9c1.4-2.8,2.8-5.6,4.6-8.2c1.6-2.3,3.6-4.4,5.5-6.5c3.2-3.5,6.5-7,9.7-10.5c6.2-6.6,15.5-19.5,22.5-13.7
	c1.8,1.5,2.4,4,4.5,4.9c2.2,0.8,4.5,0.9,6.8,1c1.2,0,2.5,0.1,3.5-0.6c0.9-0.6,1.4-1.6,1.9-2.6c2.2-4.7,4.5-9.9,3.1-14.8
	c-0.4-1.4-1-2.6-1.3-4c-0.9-4.1,1.5-8.2,3.7-11.8c2.8-4.4,5.6-8.9,8.5-13.3c2.6-4-1.7-9.9,0.5-14.1c0.4-0.7,0.9-1.3,1.1-2
	c0.5-2.1-1.9-3.8-2.6-5.8c-0.4-1.1-0.3-2.2-0.5-3.3c-0.6-2.5-3.1-4-5.4-5.3c-4.6-2.5-8.7-8.8-13.7-7.5c-3.6,1-6.3,4.5-9.9,3.5
	s-6.6-3.9-8.2-7.3c-0.5-1.1-1-2.3-2.1-2.8c-1.5-0.6-3.2,0.4-4.7,0.1c-0.7-0.1-1.4-0.5-2.1-0.9c-5.6-3.1-12.4-4.1-18.6-2.6
	c-2.6,0.6-5.6,1.6-7.7-0.1c-0.7-0.5-1.3-1.3-2.1-1.2c-0.4,0-0.8,0.2-1.2,0.4c-2.9,1.6-5.3,4.8-8.6,4.9c-2.5,0.1-4.9,1.4-7.2,2.3
	c-1.2,0.5-2.5,0.5-3.7,0.6c-3.4,0.1-6.9,0.1-10.2,1c-4.2,1.2-8.6,3.8-12.7,2.3C0,20.2-1,19.6-2.1,19.2c-3.7-1.3-7.8,0.6-11.3,2.5"/>
<path fill="none" stroke="#E1E1E1" stroke-miterlimit="10" d="M46.4,153.1c-1,1.5-1.5,2.7-2.2,4.3c-1.3,3-2.1,5.5-3.6,8.4
	c-0.3,0.6-1.6,0.1-2,0.7c-2.1,2.4-1.4,6.3-2,9.4c-0.2,1.1-0.6,2.4-1.6,2.9c-0.5,0.3-1.2,0.3-1.8,0.5c-1.9,0.7-2.7,2.8-3.3,4.8
	c-0.6,2.1-3.1,4.5-1.9,6.4c1.8,2.9,6.9-1.1,9-3.8c1.3-1.7,2-3.8,3.1-5.7c0.8-1.4,1.8-2.6,2.8-3.8c7.9-9.4,17.2-17.6,27.5-24.3
	c1.1-0.7,2.2-1.4,3.5-1.8c0.9-0.3,1.8-0.4,2.6-0.9c2.8-1.7,1.9-6.2,3.8-9c0.7-1.1,1.9-1.8,2.7-2.9c0.8-1,1.3-2.1,1.7-3.3
	c2.7-6.6,5.4-13.3,8.1-19.9c0.2-0.6,0.5-1.3,0.3-1.9c-0.2-0.6-0.8-1-1.3-1.3c-0.8-0.5-1.7-1-2.5-1.5c-0.9-0.5-1.9-1.1-2.9-1
	c-0.8,0.1-1.5,0.5-2.1,0.9c-3.2,2-6.3,4.2-9.1,6.7c-4.5,4-8.3,8.8-12,13.6c-1.7,2.1-3.3,4.3-5,6.4c-0.7,0.9-1.4,1.8-2.1,2.7
	c-2.8,3.9-2.6,9.9-6.3,12.9C48.7,153.5,47,152.2,46.4,153.1z"/>
<path fill="none" stroke="#E1E1E1" stroke-miterlimit="10" d="M67,148.1c0.2-0.2,0.5-0.9,0.5-1.1c0.2-0.8,1.3-1,2.2-0.8
	s2.1,1.1,2.5,0.3c1.1-1.9,0.1-5.3-1.9-6.1c-1.3-0.5-2.6,0.9-4,1.4c-0.2,0.1-0.5,0.2-0.7,0.4c-0.3,0.2-0.5,0.6-0.6,0.9
	c-0.9,2.3-2.5,4.8-1.7,7.1c0.3,0.8,1.6,0.4,2.1-0.2C66.1,149.4,66.4,148.6,67,148.1z"/>
<path fill="none" stroke="#E1E1E1" stroke-miterlimit="10" d="M-13.3,12.2c5.5-1,11-2,16.5-2.9c2.1-0.4,4.2-0.7,6.3-1
	c2.1-0.3,4.3-0.5,6.5-0.6c1.6-0.1,3.2-0.3,4.6-1.1c0.7-0.4,1.3-1,2.1-1.3c1.9-0.9,4.2-0.1,6.2-0.4c3.4-0.5,5.8-4,9.2-4.7
	c1.6-0.3,3.3,0,4.6-0.9c1-0.7,1.7-1.9,2.8-1.9c0.8,0,1.5,0.6,2.2,1c1.8,0.9,3.9,0.1,5.9,0.1c3.3,0,6.7,2.1,9.8,0.8
	c1-0.4,2.1-1.3,3.1-0.9c0.7,0.2,1.1,0.9,1.7,1.3c0.9,0.5,1.9,0.2,2.9,0.4S74,2.2,75,2.3c7.8,0.2,8.6,0.9,14.2,1.4
	c3.9,0.3,8.5,0.6,12.2,1.9c2.1,0.7,4.1,1.4,6.2,2.1c2.8,0.9,5.5,1.9,8.2,2.9c2,0.8,4,1.7,5.9,2.7c2.8,1.4,5.9,3.4,6.5,6.6
	c0.5,2.4-0.5,4.9-0.3,7.3c0.4,3.9,4,6.7,5.8,10.2c1.6,3.1,1.7,6.6,1.8,10.1c0.1,3.9,0.2,7.8,0.3,11.7c0,0.9,0,1.9-0.3,2.7
	c-0.3,0.9-1,1.7-1.6,2.4c-1.1,1.5-2.1,3.1-2.7,4.9c-0.2,0.5-0.3,1-0.1,1.4c0.4,0.9,1.7,0.9,2.6,0.6c5-1.5,8.2-6.4,12.7-8.8
	c2.2-1.2,4.6-1.7,6.9-2.7c8.7-3.6,15-12.6,24.3-14c3.3-0.5,6.7,0,10-0.9c4.1-1.1,7.5-4.7,8.4-8.8c0.1-0.5,0.2-0.9,0.1-1.4
	c-0.1-0.7-0.5-1.4-1-1.9c-3.4-3.8-9.4-3.5-14.6-2.9c-5.6,0.7-11.1,1.4-16.7,2.1c-1.2,0.2-2.4,0.3-3.6,0c-1-0.3-7.2-2.7-7.8-3.5
	c-3.4-4.7-7.2-4.6-9.3-7.4c-0.7-0.9,2.4-1.8,1.8-2.7c-1.1-1.7-3.2-2.6-3.4-4.6c-0.2-2,0.9-4,2.6-5.1c1.1-0.7,2.5-1,3.5-1.9
	c1-0.9,1.4-2.3,2.4-3.1c0.7-0.6,1.7-0.8,2.5-1.3c2.1-1.3,2.4-4.3,1.8-6.7c-0.6-2.4-0.7-5.3-2.5-6.9c-2.2-2-5,3-7.8,4
	c-1.2,0.4-2.6,0.4-3.9,0.3c-4.2-0.3-8.5-0.7-12.5-2.3c-3.9-1.6-7.5-4.6-8.9-8.6"/>
<path fill="none" stroke="#E1E1E1" stroke-miterlimit="10" d="M152.1,34c-0.3-0.5-0.7-0.9-1.2-1.3c-2.5-2.2-5.3-4.2-8.1-5.9
	c-0.3-0.2-0.5-0.3-0.9-0.3c-1.1-0.1-1.5,1.5-1,2.4c0.5,0.9,1.6,1.4,2.4,2.2c1.9,1.8,0.7,4.5,0.3,7.1c-0.3,2.3,1.5,4.4,1.3,6.7
	c-0.1,0.8-0.2,1.7-0.1,2.5c0.2,0.8,0.7,1.7,1.6,1.8c0.6,0.1,1.2-0.2,1.7-0.5c1.9-1.1,3.6-2.5,5.1-4.1c0.5-0.5,1-1.1,1.2-1.8
	c0.2-0.7,0.1-1.5-0.4-2.1c-0.2-0.2-0.5-0.4-0.7-0.6C151.7,38.6,153.1,35.9,152.1,34z"/>
<path fill="none" stroke="#E1E1E1" stroke-miterlimit="10" d="M127,6.8c2.7,0.9,6.1,1.5,8.2-0.4c0.2-0.2,0.4-0.4,0.4-0.7
	c0-0.3-0.4-0.5-0.7-0.7c-2.1-1-3.8-2.3-6.1-2.6c-0.5-0.1-1.7-0.6-2.2-0.8c-0.6-0.2-0.7-0.3-1.2-0.7c-2.3-1.9-5.2-2.9-7.8-4.3
	c-6.4-3.5-18.7-9-21-2.1c-0.5,1.6,2.5,2.2,4.1,2.6c3.7,1.1,7.5,2.1,11.2,3.1c0.6,0.2,1.2,0.3,1.8,0.6c0.6,0.3,1.2,0.6,1.9,1
	C119.3,3.8,123.1,5.5,127,6.8z"/>
<path fill="none" stroke="#E1E1E1" stroke-miterlimit="10" d="M18.3-9.7c-1.4-0.1-3-0.2-4.1,0.7c-0.3,0.3-0.6,0.6-1,0.7
	c-0.6,0.3-1.3,0.1-1.9,0C9.9-8.4,8.6-8.1,7.3-7.8C4.1-7,0.9-6.1-2.3-5.3c-0.7,0.2-1.5,0.4-1.9,1c-0.5,0.7-0.3,1.7,0.3,2.4
	s1.4,1,2.2,1.3c3.1,1,6.5,1,9.6,0.1c1.2-0.3,2.3-0.8,3.4-1.2c1.8-0.7,3.7-1.5,5.5-2.2c1.2-0.5,2.4-1,3.1-2s0.7-2.7-0.4-3.3
	C19.3-9.6,18.8-9.7,18.3-9.7z"/>
<path fill="none" stroke="#E1E1E1" stroke-miterlimit="10" d="M-14.7,199.5c8.9,0.2,17.8-3.4,24-9.8c3.4-3.5,6-7.7,8.5-11.9
	c3.1-5.1,6.2-10.3,9.3-15.4c1.2-1.9,2.3-3.8,3.5-5.7c2.7-4.4,5.5-9.1,6.1-14.2c0.2-1.7,0.2-3.5,0.9-5c1-2.1,3.2-3.6,4-5.8
	c0.4-1.1,0.4-2.3,0.6-3.5c1-5.7,6.8-9,10.1-13.7c0.7-1,1.3-2.1,2.1-2.9c1-1,2.3-1.6,3.5-2.2c4.8-2.6,9-6.5,11.9-11.2
	c2.4-3.8,4-8.1,7.3-11.1c1.3-1.2,2.9-2.3,4.7-2.4c3.1-0.3,6,2,9.1,2.5c4.2,0.6,8.6-2.6,9.2-6.8c0.2-1.4,3.1-2.8,2.4-4
	c-0.7-1.3-2.3-2.1-1.8-3.5c0.4-1.4,1.6-2.5,2.8-3.5c1.1-1,2.3-2.1,2.6-3.6c0.2-0.8,0.1-1.7,0.3-2.5c0.3-0.8,0.9-1.5,1.3-2.3
	c1.4-3.2-2.9-6.4-2.7-9.9c0.1-1.5,1-2.8,0.9-4.3c-0.1-1.8-1.5-3.2-2.8-4.4c-0.5-0.4-0.9-0.9-1.5-1c-0.8-0.2-1.6,0-2.4,0.2
	c-2.2,0.6-4.4,1.2-6.5,1.8c-0.6,0.2-1.3,0.3-1.9,0.2c-2.8-0.4-3.4-5.3-6.2-5.1c-0.6,0.1-1.2,0.4-1.9,0.4c-1.5,0.1-2.5-1.6-4-2.2
	c-1.4-0.5-3.1,0.2-4.1,1.2c-1.1,1.1-1.7,2.5-2.5,3.8c-1.2,2.2-2.8,4.1-4.6,5.9c-2.1,2.1-4.6,4.1-7.5,4.7s-6.4-0.5-7.7-3.1
	c-1-1.9-0.7-4.2-1.2-6.3c-0.4-2.1-2.2-4.3-4.3-3.8c-1.2,0.3-2.1,1.4-3.2,1.9c-1.9,0.7-4.2-0.4-5.9,0.7c-1.1,0.7-1.6,2.2-2.7,2.9
	c-1.7,1.2-4.1,0-5.7-1.4c-1.6-1.4-3.1-3.2-5.2-3.4c-0.7-0.1-1.5,0.1-2.1-0.3c-0.7-0.5-0.8-1.4-1.4-2c-0.3-0.3-0.7-0.5-1.2-0.7
	c-3.1-1.2-6.4-1.2-9.7-1.3c-2.1-0.1-4.9-1.2-7-1.6c-1.3-0.3-2.6-0.5-3.9-0.4c-0.8,0.1-1.7,0.3-2.4,0c-0.4-0.2-0.6-0.4-1-0.7
	c-1.8-1.4-4.3-1.8-6.6-1.5s-4.5,1.2-6.6,2.1"/>
<path fill="none" stroke="#E1E1E1" stroke-miterlimit="10" d="M-14.4,82.5c4.3-1.6,9.3-7.6,12.9-4.8c1.6,1.2,1.2,4.1,3.1,4.7
	c1.9,0.7,3.3-2.2,5.3-1.9c1.6,0.3-1,3.6,0.1,4.8c1.7,1.9,4.9-1.7,6.4-3.7c0.7-1,1.5-2.4,2.7-2.3c1.8,0.1,2.1,3,3.9,3.4
	c1.1,0.3,2.1-0.5,3.1-0.8c1.1-0.3,1.3,0.8,2.2,1.5c1.9,1.4,4.5-0.4,6.8-0.1c2.7,0.4,6-0.5,7.9,1.5c0.8,0.8,1.4,2.1,2.5,2.1
	c0.6,0,1.1-0.3,1.5-0.7c3.2-2.5,7.1-8.6,10.2-5.9c2.9,2.6,1.8,7.5,2.7,11.3c0.2,0.7,0.3,1.4,0,2c-0.4,0.7-1.3,0.9-2.1,1.2
	c-3.7,1-6.9,3.4-8.9,6.6c-0.5,0.8-0.9,1.6-1.4,2.4c-0.5,0.8-1.2,1.6-1.9,2.3c-3.8,4.1-8.9,8.1-9.2,13.7c-0.1,0.9,0,1.8-0.2,2.6
	c-0.3,1.2-1.1,2.1-1.8,3.1c-2.1,3-3.3,6.6-4.6,10.1c-2.1,6.1-4.5,12.1-7.1,18c-3.3,7.4-6.9,14.7-12.1,20.9
	c-5.2,6.2-12.1,11.2-20,12.9c-2.1,0.5-5.1,0.1-5.5-2"/>
<path fill="none" stroke="#E1E1E1" stroke-miterlimit="10" d="M-14.8,170c1.3-0.7,2.6,1,4,1.4c1.5,0.5,3.1-0.6,4.2-1.8
	c1.1-1.2,2.2-2.6,3.7-3c1.2-0.3,2.7,0,3.6-0.8c0.4-0.4,0.7-0.9,0.9-1.4c1.6-4.2,1.1-9,3.2-13c0.7-1.3,1.7-2.4,2.2-3.8
	c1.5-3.8-0.3-8.6,2.1-11.8c0.7-1,1.8-1.7,2-2.9c0.4-2.3-2.7-3.4-4.3-5.2c-1.8-2.1-1.5-5.4-3.4-7.3c-1.5-1.5-3.7-1.7-5.8-2
	s-4.3-1-5.2-2.9c-0.3-0.7-0.4-1.5-0.6-2.3c-0.6-1.9-2.4-3.3-4.3-4c-1.9-0.6-4-0.7-6-0.7"/>
<path fill="none" stroke="#E1E1E1" stroke-miterlimit="10" d="M370.3,201.1c-0.5-0.2-1-0.8-1.6-0.6c-8.6,3.1-15.9,10.3-24,6
	c-2-1.1-3.9-2.5-6-3.4c-5.4-2.3-12-0.8-16.4,3c-4.4,3.8-6.9,9.7-7.2,15.5c-0.1,2.1,0,4.2-0.9,6.1c-0.9,1.9-2.6,3.2-4.2,4.5
	c-3.7,3.1-7,6.8-9.7,10.8c-3.3,5-6.4,11-12.2,12.7c-0.5,0.2-1.1,0.3-1.7,0.1c-1.2-0.4-1.7-1.9-2-3.1c-0.4-1.2-1.5-1.7-2.6-2.3
	c-3.1-1.4-3.3-6-5.3-8.8c-2.4-3.5-6.1-5.8-9.2-8.6c-2.7-2.4-3.5-6.2-5.3-9.3c-0.4-0.7-0.9-1.5-1.1-2.3c-0.7-2.3,0.2-4.8,1.1-7.1
	c3.1-8,6.2-16,9.2-23.9c3-7.8,6-15.6,10.5-22.6c1.4-2.2,3-4.3,4.2-6.6c1-1.8,1.7-3.6,2.5-5.5c3-7.3,8.2-14.1,8.9-22
	c0.3-3.1-0.3-6,0.2-9.1c0.9-5.7-0.5-11.6,0.1-17.3c0.7-7,4.3-13.6,9.8-17.9c1.1-0.9,2.4-1.7,3.4-2.8c0.6-0.6,1.1-1.3,1.8-1.6
	c0.9-0.5,2-0.3,3.1-0.3c3.9,0.1,7.9-1.3,10.9-4c1.6-1.4,3-3.2,4.9-4.2c1.2-0.6,2.5-0.8,3.5-1.7c0.9-0.8,1.4-2,2.1-3
	c2.8-3.9,9.3-7.2,13.1-4.2c2.6,2.1,1.6,6.5,2.4,9.7c0.3,1.4,0.8,2.9,2.2,3.4c0.6,0.2,1.3,0.2,2,0.4c0.6,0.2,1.1,0.6,1.6,0.9
	c2.8,2.2,5.7,4.3,8.5,6.6c0.9,0.7,0.7,2.2,0.1,3.2c-0.6,1-1.6,1.6-2.4,2.4c-1.5,1.4-2.4,3.4-2.6,5.4c-0.4,4.9-1.2,10.2,1.3,14.4
	c1.2,2.1,5.4,1.3,6.1,3.6c0.1,0.5,0,0.9-0.1,1.4"/>
<path fill="none" stroke="#E1E1E1" stroke-miterlimit="10" d="M369.6,188.3c-6.2,2.5-8.4,11.7-15,12.9c-0.6,0.1-1.4,0.1-1.9-0.2
	c-0.4-0.3-0.7-0.8-1-1.2c-1.5-1.9-4.4-1.8-6.7-2.4c-3.4-1-6-3.8-9.2-5.3c-4.7-2.2-10.3-1.2-14.8,1.3c-4.5,2.5-8.1,6.4-11.4,10.3
	c-0.8,1-1.7,2-2.3,3.2c-1.2,2.3-1.2,5.1-1.9,7.6c-0.7,2.4-2,4.6-3.3,6.8c-3.9,6.2-6.4,14.7-13.2,17.5c-2.9,1.2-5.7-2.4-8.1-4.5
	c-2.4-2.1-3.4-4.8-5.6-7.2c-2.9-3.2-5.2-6.8-6.9-10.6c-0.8-1.7-1.4-3.8-0.3-5.3c0.5-0.7,1.3-1.2,2.1-1.6c5.1-3.2,2.2-11.6,6.8-15.7
	c0.9-0.8,2.2-0.9,2.4-2c0.2-1.2-0.2-2.4-0.1-3.6c0.2-2.2,2.1-3.9,3.6-5.5c2.4-2.6,4.3-5.9,5.2-9.3c0.3-1.3,0.5-2.8,1.3-3.9
	c1-1.5,2.8-2.4,3.5-4.1c0.4-1.1,0.3-2.3,0.6-3.4c0.3-1.3,1.2-2.3,2.1-3.3c4.6-5.9,6.9-13.2,9.2-20.3c0.6-1.9,1.2-3.8,1.8-5.8
	c1-3.3,2.1-6.7,2.3-10.2c0.1-2.3-0.1-4.6-0.1-6.8c0-1.8,0-3.7,0.2-5.5c0.6-5.6,3.6-14.5,9-12.8c4.7,1.4,11-3,14.2,0.7
	c3.4,4-0.8,10.4-0.4,15.6c0.3,4,2.4,7.6,4.5,11c1.9,3.3,3.9,6.5,5.8,9.8c0.3,0.6,0.7,1.1,1.1,1.6c0.7,0.7,1.6,1.1,2.5,1.6
	c1.9,0.9,3.7,1.7,5.6,2.6c0.6,0.3,1.3,0.6,1.7,1.2c0.5,0.8,0.4,1.8,0.8,2.7c0.3,0.7,0.9,1.2,1.5,1.7c4.2,3.6,9.4,7.4,14.8,6.2"/>
<path fill="none" stroke="#E1E1E1" stroke-miterlimit="10" d="M360.4,179.3c-0.2,1.9-0.4,3.9-1.3,5.5c-0.9,1.7-2.7,3-4.6,2.7
	c-0.8-0.1-1.6-0.6-2.5-0.7c-2.7-0.3-4.7,2.5-7.4,2.9c-3.6,0.6-6.6-3.4-10.3-3.4c-1.4,0-2.7,0.5-4.1,0.2c-0.9-0.2-1.6-0.8-2.4-1.2
	c-3.2-1.7-7-0.7-10.5,0.4c-1.5,0.4-3,0.9-4.2,1.9c-3.2,2.5-3.4,7.5-6.6,10c-1.1,0.9-2.4,1.3-3.5,2.2c-1.8,1.5-2.4,4-3.3,6.2
	c-2.2,5-6.8,8.8-8.8,13.9c-0.4,1.1-0.7,2.2-1.4,3.1c-0.7,0.9-1.8,1.6-2.9,1.3c-0.8-0.2-1.5-0.9-2-1.6c-2-2.5-3.9-4.9-5.9-7.4
	c-0.9-1.1-1.9-2.7-1.1-3.9c0.3-0.5,0.8-0.8,1.2-1.2c3.2-2.6,1.1-7.6,3-11.3c1.4-2.8,3.9-4.7,4.4-7.8c0.2-1.1,0.5-2.4,1.6-2.8
	c0.5-0.3,1.2-0.2,1.7-0.5c1.6-0.8,1.1-3.3,1.6-5c0.8-2.5,4.1-3.6,4.5-6.2c0.3-1.7-0.9-3.7,0.1-5.1c1-1.4,3.6-1.3,4.2-2.9
	c0.2-0.6,0.1-1.2,0.2-1.8c0.2-0.7,0.6-1.2,1.1-1.7c2-2.4,3.5-5.1,5-7.9c0.3-0.6,0.6-1.1,0.9-1.7c0.8-1.5,1.6-3.1,2.5-4.6
	c1.7-3.2,3.5-6.8,3-10.4c-0.8-6.2,3-12.5,4.5-18.6c0.3-1.4,0.6-2.8,1.5-3.9s2.8-2.7,3.6-1.5c1.4,1.9-0.3,4.8-0.4,7.1
	c-0.1,1-0.1,2,0.2,3c0.3,0.9,0.9,1.8,1.4,2.6c2.5,4.1,3.6,8.8,4.3,13.6c0.2,1.4,0.4,2.9,1,4.2c0.5,1,1.1,1.9,1.7,2.8
	c2.5,3.8,3.6,8.3,6.3,11.9c3.2,4.3,8.2,6.7,13.1,9c2.6,1.2,5.5,2.5,8.2,1.5c0.9-0.3,1.9-0.9,2.8-0.4c0.7,0.4,0.9,1.2,1,2
	C362.1,175.9,360.6,177,360.4,179.3z"/>
<path fill="none" stroke="#E1E1E1" stroke-miterlimit="10" d="M288.3,203.2c-0.1,0.2-0.3,0.3-0.4,0.5c-0.2,0.5,0,1.1,0.4,1.4
	c0.5,0.3,1.3,0.1,1.7-0.3c0.4-0.4,0.7-1,0.9-1.6c0.7-1.8,2.1-3.7,1.6-5.6c-0.2-0.9-1.9-0.5-2.5,0.2c-0.6,0.7-0.8,1.7-0.9,2.6
	C289,201.5,288.9,202.5,288.3,203.2z"/>
<path fill="none" stroke="#E1E1E1" stroke-miterlimit="10" d="M318.9,153.7c-1.1,2.3-3.5,2.6-5.6,4c-2.5,1.7-0.5,6-0.8,9
	c-0.1,1.1-0.3,2.4-1.3,2.9c-0.4,0.2-0.9,0.2-1.3,0.5c-0.4,0.3-0.5,1-0.7,1.5c-0.7,2.8-4.1,2.9-6.7,4.2c-1.2,0.6-1,2.4-1,3.7
	s0.5,2.7,1.7,3.3c1.4,0.7,3,0.1,4.2-0.9c1.2-0.9,2.1-2.2,3.4-3.1c1.4-1,3.1-1.4,4.8-1.7c3.6-0.6,7.5-2.3,10.9-0.9c1,0.4,0.1,2,0.4,3
	c1.1,2.9,5.9,1.8,8.9,2.4c3.2,0.7,6.5,1.4,9.7,0.7c0.7-0.2,1.6-0.6,1.5-1.3c0-0.3-0.3-0.6-0.5-0.8c-1.8-1.9-4.2-3.2-6.8-3.9
	c-2.2-0.6-4.8-0.7-6.5-2.2c-3.6-3-1.7-9.3-4.5-13c-1.8-2.4-5.3-3.3-6.5-6c-0.3-0.6-0.4-1.4-0.8-1.9s-1.2-1-1.8-0.6
	C319.2,153,319,153.3,318.9,153.7z"/>
<path fill="none" stroke="#E1E1E1" stroke-miterlimit="10" d="M320.6,165.5c-0.7,1.7,0.2,3.8,1.9,4.6c0.3,0.1,0.6,0.2,0.8,0.5
	c0.1,0.2,0.2,0.5,0.2,0.7c0.3,0.8,1.6,1.8,2,1.1c0.8-1.5,1-3.2,1.6-4.8c0.5-1.3,0.5-2.7,0-3.9c-0.2-0.4-0.4-0.8-0.7-1
	c-0.8-0.8-2.1-0.8-3-0.3c-1,0.5-1.7,1.3-2.3,2.2C320.9,164.8,320.7,165.2,320.6,165.5z"/>
<path fill="#7BBCEB" stroke="#4E9BD7" stroke-miterlimit="10" d="M174.9,214.1c1.4-2.8,3.4-5.3,6-7.1c2-1.5,4.5-2.4,5.8-3.9
	c1.8-2.1,1.2-5.3,1-8.1c0-0.4,0-0.9,0.2-1.2c0.2-0.3,0.6-0.5,0.9-0.8c1.2-1,1.2-3.2-0.1-4.1c-0.3-0.2-0.6-0.3-0.8-0.6
	c-0.4-0.5-0.3-1.2-0.2-1.8c0.4-2.2,0.9-4.5,2.6-6c2.1-1.9,5.7-2,6.9-4.6c0.3-0.6,0.4-1.3,0.8-1.8c0.9-1.1,2.8-1,3.6-2.2
	c0.3-0.4,0.3-0.9,0.6-1.3c0.8-1,2.6-0.7,3.3-1.8c0.4-0.6,0.2-1.3,0.5-1.9c0.4-0.7,1.2-0.9,1.7-1.5c1.2-1.2,0.4-3.2,0.4-4.9
	c-0.1-3,2.2-5.5,4.3-7.7c2.1-2.2,4.3-4.8,4-7.8c-0.1-0.6-0.1-1.2-0.3-1.7c-3.6-6.4-11.4-10.2-17.7-14c-0.5-0.3-0.9-0.5-1.4-0.7
	c-0.7-0.2-1.4,0-2,0.1c-4.2,0.9-8,3.2-10.9,6.3c-2.7,2.9-4.5,6.5-7.4,9.2c-0.7,0.6-1.4,1.1-1.9,1.9c-0.5,0.7-0.7,1.6-0.9,2.4
	c-1,3.6-2.4,7.2-4.2,10.5c-0.5,0.9-1,1.8-1.8,2.3c-0.6,0.4-1.3,0.5-1.9,0.9c-0.8,0.5-1.2,1.5-1.7,2.3c-1.4,2.1-3.9,3.2-6.3,3.7
	c-2.4,0.6-7.3,0-7.4,1.3c-0.2,2.6,0,6.1-3.2,9c-1.9,1.7-3.1,4-4.7,5.9c-1.2,1.6-2.5,3.2-2.9,5.2c-0.8,3.6,1.5,7.2,1.8,10.9
	c0.1,1,0,2,0.1,2.9c0.1,3.5,1.3,7,3.3,9.8c1.3,1.8,3,3.6,2.7,5.8c-0.1,1-0.7,1.9-0.9,2.8c-0.2,1-0.1,2.5,0.9,2.6
	c1.1,0.1,0.4-1.8,0.6-2.9c0.2-1.5,2.2-1.9,3.6-1.3c1.4,0.5,2.5,1.6,3.9,2.1c1.5,0.5,3.2,0.3,4.7-0.3
	C165.7,219.8,172.9,218.4,174.9,214.1z"/>
<path fill="none" stroke="#D6D6D6" stroke-miterlimit="10" d="M50.3,86.1c0.5-2.1,1.9-3.9,3.7-5.1c1.8-1.2,3.9-1.8,6-2.2
	c1.5-0.2,2.9-0.4,4.4-0.4c0.7,0,1.5,0,2.2-0.2c1.6-0.6,2.2-2.5,2.9-4.1c0.5-1.2,1.1-2.4,2-3.2c1-0.8,2.3-1.3,3.6-1"/>
<path fill="none" stroke="#D6D6D6" stroke-miterlimit="10" d="M45.4,87.2C39,91.5,34.7,98.2,29,103.4c-4.2,3.8-9.2,6.9-12.6,11.4
	c-0.6,0.8-1.2,1.7-2.1,2.4c-1.8,1.4-4.3,1.3-6.5,1.8c-2.3,0.6-4.3,2-6.2,3.4c-4.9,3.5-9.9,7.3-15.9,7.9"/>
<path fill="#EAEAEA" stroke="#D6D6D6" stroke-miterlimit="10" d="M95.2,56.3c-0.8-0.4-2-1.4-2.8-1.7c-1.5-0.4-2.7-0.5-4.2-1
	c-2.6-0.8-5.4,0.2-7.6,1.8s-3.7,3.9-5.2,6.1c-0.5,0.7-1,1.4-1.2,2.2c-0.3,1,0.5,2.9,0.6,3.9c0.1,1.3-0.4,1.9,0.2,3.1
	c0.6,1.2,1.7,2.2,3,2.2c0.4,0,0.7,0,1.1,0.1c0.3,0.1,0.5,0.4,0.8,0.6c2.7,2.9,6.8,3.8,10.7,4.4c0.7,0.1,1.5,0.2,2.2,0.1
	c1.2-0.3,2.1-1.4,2.8-2.5c1-1.5,2-2.9,2.6-4.6c1.2-3.3,0.4-7-0.4-10.5C97.3,59,96.8,57.1,95.2,56.3z"/>
<path fill="#EAEAEA" stroke="#D6D6D6" stroke-miterlimit="10" d="M46.8,92.6c0.1,0.6,0.5,1.1,1.1,1.3c0.5,0.2,1.2,0.5,1.7,0.1
	c0.3-0.2,0.4-0.6,0.6-0.9c0.3-0.4,0.5-0.8,0.9-1.2c0.8-0.9,2.2-1.1,3-1.9c0.9-0.9-0.1-2.7-1.3-3.3c-1.2-0.6-2.6-0.5-3.8-0.1
	c-0.3,0.1-0.7,0.3-1.1,0.3c-0.9,0.1-2.1-0.8-2.8-0.1c-0.4,0.4,0.6,0.8,1.1,1.2c1,0.7,1.1,2.2,0.8,3.3C46.9,91.8,46.8,92.2,46.8,92.6
	z"/>
<path fill="none" stroke="#4E9BD7" stroke-miterlimit="10" d="M147.4,224.7c0.2,2.2-2.3,4.1-2.4,6.5c0,1.1,1.2,2.2,1.2,3.3
	c0.1,3.8-3.6,7-6.4,9.6c-2.8,2.6-5.9,5.3-6.8,9.1c-0.3,1.2-0.3,2.5-0.7,3.7c-0.4,1.2-2.2,1.3-2.5,2.5c-0.7,3.1-0.7,4.2-2.5,4.7
	c-2.8,0.8,0.8,7.8-1.6,9.5c-0.9,0.6-2.8-0.2-3.1,0.8c-0.8,2.8-3,4.8-4.6,7.3c-1.1,1.8-0.5,4.2-1.2,6.2c-0.9,2.8-3.6,4.6-4.6,7.4
	c-0.3,0.8-0.4,1.6-0.9,2.3c-0.5,0.8-1.2,1.3-2,1.8c-1.1,0.7-2.1,1.4-3.2,2.1c-3,2-6.1,4-7.8,7.1c-0.9,1.6-0.3,5.8-2.1,5.5
	c-3.8-0.7-6.6,2-9.8,8.6c-0.6,1.3-3.6,3.1-5.2,3.5c-0.5,0.1-1,0.2-1.4,0.4c-0.3,0.2-0.5,0.6-0.7,1c-0.7,1.6,0.1,3.4-0.1,5.2
	c-0.3,2.5-0.6,5.3-2,7.4c-2,2.9-6.8,3.2-10,4.7c-2.8,1.4-4.1,3.4-6.1,5.8c-2.2,2.5-5.4,5.4-7.6,7.9c-1,1.1-1.9,2.2-2.7,3.4
	c-0.6,1-1.2,2.2-2.3,2.5c-0.6,0.2-1.2,0.1-1.7-0.1c-1.6-0.3-3.2-0.6-4.8-0.9c-0.6-0.1-1.2-0.2-1.8-0.4c-0.8-0.3-1.5-0.8-2.2-1.1
	c-2.5-1.1-5.5-0.3-7.8,1.2c-2.3,1.5-4,3.7-5.7,5.9"/>
<g>
	<g>
		<path fill="none" stroke="#585858" stroke-miterlimit="10" d="M19.4-16.2c-0.4,2.8-0.5,6.1,1.8,7.7c0.2,0.1,0.4,0.2,0.6,0.3"/>
		<path fill="none" stroke="#585858" stroke-miterlimit="10" stroke-dasharray="1.0169,3.0507" d="M24.8-7.6c0.1,0,0.3,0,0.4,0
			c0.7,0,1.4,0.1,2.1,0.1"/>
		<path fill="none" stroke="#585858" stroke-miterlimit="10" stroke-dasharray="18.3042,3.0507,1.0169,3.0507" d="M28.9-7.4
			C37.7-7,46.5-6.7,55.3-6.3c2.5,0.1,4.9,0.2,7.4,0.1c2.3-0.1,4.6-0.4,6.8,0.1c1.7,0.4,3.3,1.2,4.9,1.8c2.9,1,6.1,1.1,9.1,0.7
			C85.4-4,87.1-4.5,89-4.8c4.3-0.7,8.7-0.2,13.1,0.2c2.5,0.3,5,0.5,7.5,0.8c5.6,0.6,10.5,4,15.5,6.5c1.1,0.5,2.2,1.1,3.3,1.6
			c1.4,0.6,3.3,0.3,4.2,1.5c3.1,4,2.1,10.9,4.9,16.2c0.7,1.4,1.1,3,2.3,4c1.3,1.1,3.3,1.4,4.6,2.6c0.8,0.8,1.3,1.8,1.7,2.8
			c0.7,1.6,1.5,3.3,1.8,5c0.2,1.1,0.3,2.2,0.6,3.3c0.3,1.1,1,2.1,2,2.5c1.2,0.4,2.5,0,3.6-0.5c2.1-0.8,4.1-1.6,6.2-2.5
			c6.3-2.5,13.4-2.8,19.9-4.3c2.4-0.6,5-1.1,7.4-0.8c4.6,0.7,8.5,4.7,13.2,4.6c0.7,0,1.5-0.1,2.1-0.6c0.6-0.5,0.7-1.3,1.1-2
			c1.6-3.1,6.2-3,8.6-5.5c1.6-1.7,2.8-4.9,5.1-4.4c0.7,0.2,1.3,0.7,1.9,1.2c3.2,2.7,7.5,4.2,11.7,3.9c2.6-0.1,5.2-1.1,7.7-0.7
			c6.1,1.1,10.1,8.1,16.8,8.6c4,0.3,7.9,0.8,11.8,0.4c5.3-0.6,10.7-1.2,16-1.8c4.3-0.5,8.8-1,12.8,0.7c2.8,1.1,5.5,3.2,8.4,2.7
			c2.9-0.6,4.6-3.4,6.7-5.5c2.1-2.1,8-2.7,10.2-0.7c3,2.7,4.7,3,8.7,3.6c1.1,0.1,2.2,0.2,3.3,0.6c3,1.2,4.2,4.9,4.9,8
			c1.3,5.3,2.6,10.7,3.3,16.1c0.7,5.2,0.8,10.6-1.1,15.4c-1,2.5-2.5,4.8-3.8,7.2c-1.9,3.7-3.1,7.8-5.3,11.3c-2,3.2-4.7,5.9-6.8,9
			c-6.4,9.6-6.3,22-5.9,33.5c0.1,4,1.4,7.5,1.5,11.5c0.1,3.3-0.1,6.9,1.9,9.5c0.3,0.4,0.7,0.8,0.9,1.3c0.4,1-0.1,2.2-0.2,3.3
			c-0.2,2,1,4,2.3,5.5c1.4,1.5,3,2.9,3.9,4.7c0.2,0.4,0.4,0.7,0.6,1.1c0.8,0.9,2.1,1,3.2,1.2c2.6,0.4,5,1.6,7.6,2.2
			c2.6,0.6,5.5,0.6,7.6-1c0.5-0.4,1-1,1.6-1.3c1-0.6,2.2-0.6,3.3-0.8c1.4-0.3,2.8-1,4.1-1.6c1.5-0.7,2.9-1.5,4-2.7
			c0.5-0.5,0.9-1.1,1.2-1.7"/>
		<path fill="none" stroke="#585858" stroke-miterlimit="10" d="M363.9,169.9c0.2-0.2,0.3-0.4,0.5-0.6c1.9-2,5-2.8,6.1-5.3"/>
	</g>
</g>
<text transform="matrix(1 0 0 1 292.8611 163.1535)"><tspan x="0" y="0" fill="#585858" font-family="'Verdana-Italic'" font-size="8">Tower</tspan><tspan x="5.4" y="9.6" fill="#585858" font-family="'Verdana-Italic'" font-size="8">Peak</tspan></text>
<text transform="matrix(0.5798 -0.8147 0.8147 0.5798 165.6881 195.0375)" fill="#FFFFFF" font-family="'Verdana-Italic'" font-size="8">Mary  Lake</text>
<text transform="matrix(0.674 -0.7387 0.7387 0.674 49.7636 151.6127)" fill="#585858" font-family="'Verdana-Italic'" font-size="8">Saurian</text>
<text transform="matrix(0.674 -0.7387 0.7387 0.674 114.5334 81.2446)" fill="#585858" font-family="'Verdana-Italic'" font-size="8">Crest</text>
<text transform="matrix(1 0 0 1 319.7471 168.348)" fill="#585858" font-family="'Verdana-Italic'" font-size="8">× 11755</text>
<path fill="none" d="M160.4,22.4c5.1,0.9,10.4,0.8,15.4-0.4c5-1.2,10-3.3,15-2.3"/>
<text transform="matrix(0.9926 0.1211 -0.1211 0.9926 160.046 25.0064)"><tspan x="0" y="0" fill="#7D7D7D" font-family="'Verdana-Italic'" font-size="7">1</tspan><tspan x="4.8" y="0" fill="#7D7D7D" font-family="'Verdana-Italic'" font-size="7" rotate="-6.7">0</tspan><tspan x="9.5" y="-0.6" fill="#7D7D7D" font-family="'Verdana-Italic'" font-size="7" rotate="-13.4">6</tspan><tspan x="14.1" y="-1.7" fill="#7D7D7D" font-family="'Verdana-Italic'" font-size="7" rotate="-20.2">0</tspan><tspan x="18.4" y="-3.3" fill="#7D7D7D" font-family="'Verdana-Italic'" font-size="7" rotate="-22.5">0</tspan></text>
<path fill="none" d="M46.1,314.3c16.4-10.1,31-22.9,45.4-35.6"/>
<text transform="matrix(0.8005 -0.5994 0.5994 0.8005 61.0767 307.2491)"><tspan x="0" y="0" fill="#7D7D7D" font-family="'Verdana-Italic'" font-size="7">9</tspan><tspan x="4.5" y="0" fill="#7D7D7D" font-family="'Verdana-Italic'" font-size="7" rotate="-1">6</tspan><tspan x="9" y="-0.1" fill="#7D7D7D" font-family="'Verdana-Italic'" font-size="7" rotate="-1.8">0</tspan><tspan x="13.5" y="-0.2" fill="#7D7D7D" font-family="'Verdana-Italic'" font-size="7" rotate="-2.5">0</tspan></text>
<path fill="none" d="M273,83.8c-0.5-5,2.6-10.1,7.3-12c5.4-2.2,8.7-7.4,13.2-11.1c1.6-1.3,3.2-2.7,4.2-4.5"/>
<text transform="matrix(0.8358 -0.549 0.549 0.8358 277.9669 76.1216)"><tspan x="0" y="0" fill="#7D7D7D" font-family="'Verdana-Italic'" font-size="7">1</tspan><tspan x="4.3" y="0.4" fill="#7D7D7D" font-family="'Verdana-Italic'" font-size="7" rotate="2.6">0</tspan><tspan x="9.3" y="0.5" fill="#7D7D7D" font-family="'Verdana-Italic'" font-size="7" rotate="-8.8">4</tspan><tspan x="13.8" y="-0.3" fill="#7D7D7D" font-family="'Verdana-Italic'" font-size="7" rotate="-12.5">0</tspan><tspan x="18" y="-1.2" fill="#7D7D7D" font-family="'Verdana-Italic'" font-size="7" rotate="-9.2">0</tspan></text>
<path fill="none" d="M193.4,246.7c3.9-13,10.1-25.3,18.3-36c6.6-8.6,14.3-16.1,20.8-24.8"/>
<text transform="matrix(0.3916 -0.9201 0.9201 0.3916 199.1046 237.9073)"><tspan x="0" y="0" fill="#7D7D7D" font-family="'Verdana-Italic'" font-size="7">1</tspan><tspan x="4.3" y="0" fill="#7D7D7D" font-family="'Verdana-Italic'" font-size="7" rotate="2.3">0</tspan><tspan x="8.7" y="0.2" fill="#7D7D7D" font-family="'Verdana-Italic'" font-size="7" rotate="4.5">0</tspan><tspan x="13" y="0.5" fill="#7D7D7D" font-family="'Verdana-Italic'" font-size="7" rotate="6.8">0</tspan><tspan x="17.3" y="1" fill="#7D7D7D" font-family="'Verdana-Italic'" font-size="7" rotate="9.1">0</tspan></text>
<path fill="none" d="M333.2,323.7c2.2-4.6,4.4-9.3,6.7-13.9c3.1-6.4,6.3-13,11.8-17.4"/>
<text transform="matrix(0.4322 -0.9018 0.9018 0.4322 339.338 316.6582)"><tspan x="0" y="0" fill="#7D7D7D" font-family="'Verdana-Italic'" font-size="7">9</tspan><tspan x="4.5" y="0" fill="#7D7D7D" font-family="'Verdana-Italic'" font-size="7">6</tspan><tspan x="8.9" y="0" fill="#7D7D7D" font-family="'Verdana-Italic'" font-size="7" rotate="1.3">0</tspan><tspan x="13.2" y="0.1" fill="#7D7D7D" font-family="'Verdana-Italic'" font-size="7" rotate="4.7">0</tspan></text>
<path fill="none" d="M101.3,166.4c1.1-4.8,6.4-7.2,9.9-10.7c5-5.1,9.2-11.5,14.1-16.7"/>
<text transform="matrix(0.7799 -0.6258 0.6258 0.7799 108.5103 161.2569)"><tspan x="0" y="0" fill="#7D7D7D" font-family="'Verdana-Italic'" font-size="7">1</tspan><tspan x="4.8" y="0" fill="#7D7D7D" font-family="'Verdana-Italic'" font-size="7" rotate="-7.9">0</tspan><tspan x="9.4" y="-0.7" fill="#7D7D7D" font-family="'Verdana-Italic'" font-size="7" rotate="-11.3">2</tspan><tspan x="13.8" y="-1.6" fill="#7D7D7D" font-family="'Verdana-Italic'" font-size="7" rotate="-12.8">0</tspan><tspan x="18.1" y="-2.6" fill="#7D7D7D" font-family="'Verdana-Italic'" font-size="7" rotate="-12.5">0</tspan></text>
<text transform="matrix(0.7751 -0.6318 0.6318 0.7751 57.6085 345.5896)" fill="#585858" font-family="'Verdana-Italic'" font-size="7">Tilden</text>
<text transform="matrix(0.5315 -0.8471 0.8471 0.5315 125.1502 258.8329)" fill="#585858" font-family="'Verdana-Italic'" font-size="7">Creek</text>
<g>
	<g>
		<polyline fill="none" stroke="#7D7D7D" stroke-miterlimit="10" points="85.2,341.6 85.2,348.7 275.4,348.7 275.4,341.7 		"/>
		<line fill="none" stroke="#7D7D7D" stroke-miterlimit="10" x1="180.5" y1="341.4" x2="180.5" y2="348.7"/>
		<line fill="none" stroke="#7D7D7D" stroke-miterlimit="10" x1="161.2" y1="349.2" x2="161.2" y2="343.7"/>
		<line fill="none" stroke="#7D7D7D" stroke-miterlimit="10" x1="142.4" y1="349.2" x2="142.4" y2="343.7"/>
		<line fill="none" stroke="#7D7D7D" stroke-miterlimit="10" x1="123.3" y1="349.2" x2="123.3" y2="343.5"/>
		<line fill="none" stroke="#7D7D7D" stroke-miterlimit="10" x1="104.6" y1="349.2" x2="104.6" y2="343.7"/>
	</g>
	<text transform="matrix(1 0 0 1 83.7834 339.1469)" fill="#7D7D7D" font-family="'Verdana'" font-size="8">0</text>
	<text transform="matrix(1 0 0 1 174.2945 339.1469)" fill="#7D7D7D" font-family="'Verdana'" font-size="8">0.5</text>
	<text transform="matrix(1 0 0 1 258.3414 339.1469)" fill="#7D7D7D" font-family="'Verdana'" font-size="8">1 mi</text>
</g>
</svg>
