<?xml version="1.0" encoding="utf-8"?>
<!-- Generator: Adobe Illustrator 17.1.0, SVG Export Plug-In . SVG Version: 6.00 Build 0)  -->
<!DOCTYPE svg PUBLIC "-//W3C//DTD SVG 1.1//EN" "http://www.w3.org/Graphics/SVG/1.1/DTD/svg11.dtd">
<svg version="1.1" id="Layer_1" xmlns="http://www.w3.org/2000/svg" xmlns:xlink="http://www.w3.org/1999/xlink" x="0px" y="0px"
	 viewBox="0 0 360 360" enable-background="new 0 0 360 360" xml:space="preserve">
<path fill="none" stroke="#E1E1E1" stroke-miterlimit="10" d="M351.2,365.6c-0.1,0.2-0.5,0.2-0.5,0c-0.7-1.7-0.1-3.8,1.1-5.3
	c1.1-1.5,3-2.4,4.8-2.4c0.5,0,1,0.1,1.5,0.3c0.3,0.1,0.6,0.3,0.9,0.4c0.8,0.2,1.6-0.3,2.3-0.8c3.7-2.7,7.1-5.9,9.9-9.4"/>
<path fill="none" stroke="#E1E1E1" stroke-miterlimit="10" d="M336.3,365.3c1.6-1.2,2.9-2.8,3.8-4.6c0.1-0.3,0.3-0.6,0.2-0.9
	c-0.1-0.4-0.4-0.6-0.7-0.8c-2.6-1.2-6.7,3-8.3,0.7c-2.1-3,1.7-7.1,4-9.9c2.2-2.9,4.9-5.4,6.8-8.6c0.6-1,1.1-2,1.8-2.9
	c0.6-0.8,1.4-1.5,2.1-2.2c2.9-2.7,7.7-9.2,10.1-6c1.8,2.5-3.4,5.1-5.2,7.6c-1.8,2.5-3.3,5.5-3,8.5c0.1,1.2,0.7,2.6,1.9,2.9
	c1.5,0.4,2.8-0.8,3.7-2.1c1.6-2.2,2.9-4.7,3.7-7.3c0.4-1.2,0.8-2.5,1.7-3.4c0.4-0.4,1-0.6,1.3-1.1c0.4-0.6,0.4-1.3,0.4-1.9
	c0.3-2.6,2-4.9,4.1-6.4c2.1-1.5,4.6-2.4,7.1-3.3"/>
<path fill="none" stroke="#E1E1E1" stroke-miterlimit="10" d="M265.1,366.6c1.2-2.1,0-4.7-1.2-6.8c-0.4-0.7-0.9-1.5-1.7-1.7
	c-1.4-0.3-2.7,1.4-4,0.9c-0.3-0.1-0.6-0.3-0.9-0.4c-0.5-0.1-1,0-1.4,0.2c-1.2,0.5-2.2,1.5-3.4,2.1s-2.7,1-3.8,0.3
	c-0.6-0.4-1-1-1.4-1.5c-2.2-2.8-5.8-4.1-9.4-4.2s-7,1-10.2,2.5c-0.9,0.4-1.8,0.8-2.8,0.9c-0.7,0-1.5-0.2-2.2,0
	c-1,0.2-1.8,1.2-2.8,1.4c-1.9,0.4-3.6-1.7-5.5-1.5c-1.2,0.1-2.2,1.1-3.3,1.1c-0.5,0-1.1-0.2-1.5,0.1c-0.3,0.2-0.5,0.6-0.6,0.9
	c-0.7,1.9-1.2,3.9-1.5,5.9"/>
<path fill="none" stroke="#E1E1E1" stroke-miterlimit="10" d="M286.7,364.9c2.3-0.6,3.5-3.7,2.2-5.6c-0.8-1.3-2.5-2.2-2.6-3.7
	c-0.1-1.6,1.6-3.5,0.3-4.5c-0.3-0.3-0.7-0.3-1.1-0.4c-1.7-0.1-3,2.1-4.7,1.7c-1.9-0.4-2.8-3-4.7-2.6c-0.6,0.1-1.1,0.4-1.7,0.4
	c-2,0-3-2.5-4.7-3.4c-1.4-0.7-3.2,0.6-4.6-0.1c-2.4-1.3-2.6-4.8-4.8-6.5c-0.4-0.3-0.8-0.5-1.2-0.6c-1-0.1-1.8,0.7-2.5,1.4
	c-1.9,1.8-4.3,3.2-6.9,3.8c-0.6,0.1-1.2,0.2-1.8,0.1c-0.5-0.1-1-0.4-1.4-0.6c-1-0.6-2-1.2-3-1.7c-4.9-2.9-10.5-5.8-16-4.3
	c-1.7,0.5-3.8,0.3-5.1,1.5c-2.8,2.5-1.5,7.6-3.9,10.5c-1,1.3-2.4,2.3-3.8,3.2c-1.8,1.1-3.7,1.9-5.2,3.3c-2.9,2.8-3.3,7.3-3.5,11.4"
	/>
<path fill="none" stroke="#E1E1E1" stroke-miterlimit="10" d="M293.4,364.9c1.8-2.8,3.8-5.9,3.5-9.3c-0.1-1.4-0.5-2.7-1-4
	c-1.5-3.9-1.6-11.2-5.8-11.1c-2,0-3.9,1.7-5.1,0.1c-0.6-0.9-0.7-2-1.3-2.9c-1.2-2.2-4.1-2.5-6.6-3s-5.3-2-5.1-4.5
	c0.1-1.1,0.7-2.5-0.1-3.3c-0.4-0.3-0.9-0.4-1.3-0.4c-2.5-0.2-5.1-0.2-7.5-0.9s-4.7-2.6-5.2-5c-0.1-0.4-0.1-0.8-0.4-1.1
	c-0.7-0.6-1.6,0.3-2.2,0.9c-1.3,1.1-3.2,1.2-4.8,0.6c-1.6-0.5-3-1.5-4.4-2.5c-5.3-3.5-11.4-6-17.7-7.1c-0.9-0.2-1.9-0.3-2.8,0.1
	c-0.7,0.3-1.2,0.9-1.7,1.4c-4.3,5-7.6,10.9-9.5,17.2c-0.5,1.6-0.9,3.2-1.1,4.8c-0.6,4.9,0.9,9.9,0.3,14.8c-0.1,1.3-0.8,2.9-2.1,3
	c-0.6,0-1.1-0.3-1.6-0.4c-2.2-0.5-4.1,1.6-4.8,3.7c-0.7,2.1-0.7,4.5-1.8,6.4c-0.2,0.3-0.4,0.6-0.7,0.8c-0.4,0.2-0.8,0.2-1.2,0.2
	c-1.7,0-3.6,0.8-5-0.1c-1.9-1.2-2.4-3.8-4-5.3c-1.2-1.2-1.8-2.7-2.7-4.2c-1.9-3.3-2.6-7.2-3.3-11c-0.7-3.8-1.6-7.7-3.9-10.8
	c-2.3-3.1-6.3-5.2-10-4.1c-0.8,0.2-1.6,0.6-2.5,0.6c-2.1,0-3.5-2.2-4.1-4.2c-0.6-2-0.8-4.3-2.3-5.8c-3.2-3.1-9.4-0.1-12.7-3.2
	c-1.1-1.1-1.6-2.6-2-4.1c-3.3-11.8,0.3-27.2-8.4-35.8c-1.9-1.9-5.3,0.8-8,0.6c-3.8-0.3-6.8-3.5-8.1-7.1c-1.3-3.6-1.2-7.5-1-11.3
	c0.2-4,0.3-8,0.5-12c0.1-2.4,0.2-4.9,0.7-7.2c0.4-1.6,1-3.2,1-4.9c0.1-2.2-0.9-4.4-1.4-6.5c-1-4-0.5-8.2-1.1-12.3
	c-1.2-8.3-6.5-15.3-11.6-21.9c-2.5-3.3-3.7-7.6-5.6-11.2c-0.9-1.6-1.8-3.3-3.2-4.5c-1.6-1.4-3.6-2.2-5.4-3.3
	c-1.6-1.1-2.9-2.5-4.3-3.9c-5.7-5.6-12.7-10.1-20.2-13c-3-1.1-6.1-2.1-8.8-3.8s-5-4.4-5.4-7.6c-0.3-2.9,1.1-5.7,2.4-8.3
	c2-3.9,4-7.7,6-11.6c0.8-1.6,1.6-3.5,0.8-5.1c-1-2-4-2.3-4.9-4.4c-0.9-1.9,0.7-4.1,2.3-5.4c1.7-1.3,3.7-2.5,4.2-4.6
	c0.3-1.3-0.1-2.7-0.1-4c0-2.5,1.3-4.8,2.5-6.9c5-8.5,10.5-18.4,7.4-27.8c-1.2-3.7-3.8-7.6-2.3-11.3c2.2-5.2,10.8-5.2,12.5-10.5
	c0.5-1.7,0.2-3.5,0.8-5.2c0.5-1.3,1.5-2.3,2.2-3.5c4.1-6.4,0.4-16.3,5.9-21.5c2-1.9,4.8-2.7,6.7-4.6c2-2,2.8-4.8,4.4-7.1
	c3.5-4.7,10-5.9,14.9-9.1c0.8-0.5,1.6-1.2,1.9-2.1c0.3-0.7,0.2-1.5,0.2-2.3c-0.2-2.5-0.3-5.1-0.5-7.6"/>
<path fill="none" stroke="#E1E1E1" stroke-miterlimit="10" d="M60.8,90.2c0.2,1,1.1,2.7,2,2.1c0.9-0.5,0.9-1.9,0.7-2.9
	s-1.5-1.8-2.3-1.1C60.7,88.7,60.7,89.5,60.8,90.2z"/>
<path fill="none" stroke="#E1E1E1" stroke-miterlimit="10" d="M61.8,65.9c0,0.3,0,0.7,0.2,0.9c0.1,0.1,0.3,0.2,0.4,0.3
	c0.9,0.4,2.3,0.2,2.7-0.7c0.3-0.8-0.6-1.8-1.5-1.9C62.8,64.3,61.9,65,61.8,65.9z"/>
<path fill="none" stroke="#E1E1E1" stroke-miterlimit="10" d="M114.6-16.8C108-10.9,101.3-5,94.6,0.9c-8.8,7.8-22,8.7-30.3,17.2
	c-3.8,3.9-5.7,10.8-3.6,15.7c0.6,1.5,3.1-1.1,4.7-0.6c2.6,0.7,4.8,2.8,5.5,5.4c1.1,3.9-5.4,6-8.2,8.8c-2.1,2.2-4.3,4.4-6.4,6.6
	c-6.1,6.3-12.4,12.8-20.6,16c-3.3,1.3-7.4,2.8-7.6,6.3c-0.1,1.1,0.3,2.3,0,3.3c-0.4,1.3-1.6,2-2.7,2.7c-2.7,1.6-5.5,3.1-8.2,4.7
	c-1.1,0.6-2.2,1.3-2.8,2.4c-0.6,1.1-0.4,2.5-0.6,3.7c-1,6.4-10.6,8.3-12.3,14.5c-1.5,5.7-2.2,13.1,2,17.1c2.7,2.5,8.9,3.3,6.2,5.8
	c-3.9,3.6-9.4,4.9-13.7,8.1c-1.4,1,0.7,2.7,2.2,3.6c4.6,2.7,2.8,9.4,2.3,14.7c-0.2,1.7,0,3.8,1.4,4.8c1,0.7,2.3,0.7,3.6,0.6
	c7.5-0.3,15.1-0.6,22.6-1c5.9-0.3,12.8-0.1,16.4,4.6c1.6,2.1,2.3,5,4.3,6.8c4.2,3.8,11.5,1.2,16,4.6c3.9,3,3.7,9.3,7.3,12.7
	c1.6,1.5,3.7,2.3,5.1,4c1.3,1.7,1.6,4,2.3,6c1.7,5.2,6,9.1,9.7,13.2c3.7,4.1,7,9.3,6.2,14.7c-0.5,3.5,3.3,6.2,3.2,9.8
	c0,1.4-0.8,2.7-0.4,4c0.3,1,1.1,1.7,1.6,2.7c0.5,0.9,0.6,1.9,0.7,2.9c0.4,4,0.9,7.9,1.3,11.9c0.2,1.7,0.4,3.4,0,5
	c-0.4,1.6-1.3,3.1-1.8,4.7c-1.4,4.2-0.3,8.7,0.7,13c0.4,1.5,1.3,3.4,2.8,3.1c1-0.2,1.5-1.2,2-2.1c1.1-2.4,1.6-5.2,3.4-7.1
	c0.3-0.4,0.8,0.4,1,0.9c1,2.9,4.1,4.6,7.2,4.9c3,0.3,6.1-0.4,9.1-0.8c3-0.4,8-1.8,8.9,1.1c0.9,2.8-0.7,5.7,0.3,8.5
	c1,2.7,2.4,5.3,3.1,8.1c0.8,3.2,0.6,6.7,1.7,9.9c0.5,1.5,1.3,2.9,2.1,4.3c3.7,6.5,7.5,13,11.8,19.1c1.4,2.1,2.9,4.1,4.4,6.1
	c1.7,2.2,2.9,6.7,5.6,6.1c1-0.2,0.7-2.4,1.7-2.7c1.4-0.5,0.8,1.7,1.8,2.6c1.2,1.1,3.3,0.4,4.7,1.3c1.3,0.8,2.3,2.2,3.2,3.5
	c1.2,1.7,2.3,3.4,3.5,5.1c0.3,0.5,0.6,0.9,1.1,1.3c0.6,0.4,1.3,0.6,2,0.9c1.9,0.9,3.3,2.7,4.5,4.4c1.5,2.1,3,4.2,4.5,6.4"/>
<path fill="none" stroke="#E1E1E1" stroke-miterlimit="10" d="M97.3-15.8c-3.2,1.7-5.7,4.3-8.2,6.9c-1.7,1.8-3.5,3.6-5.2,5.4
	c-1.5,1.5-3,3.1-3.8,5.1c-0.4,1-0.7,2.1-1.3,3C78,5.7,76.7,6.4,75.5,7c-2.5,1.2-4.9,2.4-7.4,3.6c-3.7,1.8-7.5,3.7-10.4,6.5
	s-5.1,6.9-4.7,11c0.4,3.8,2.7,8.4-0.3,10.9c-1.7,1.5-4.4,1.1-6.4,2c-2.5,1.2-3.6,4.1-3.7,6.9s0.8,5.4,1.1,8.1
	c0.1,0.9,0.2,1.8-0.2,2.6c-0.9,1.8-3.5,1.8-5.3,0.9s-3.3-2.3-5.3-2.7c-2.6-0.5-5.3,1.1-6.9,3.2s-2.2,4.8-2.9,7.4
	c-1.6,6.2-4.1,13.1-10,15.3c-1.3,0.4-2.6,0.7-3.6,1.5C9,84.8,8.7,85.4,8.3,86c-2.7,4.3-5.4,8.6-8.1,12.9c-1.8,2.9-3.6,5.8-4.4,9.1
	c-1.5,6.8,1.8,14,0.7,20.9c-0.2,0.9-0.4,1.9-1.2,2.5c-1.8,1.4-4.9-0.8-6.7,0.6"/>
<path fill="none" stroke="#E1E1E1" stroke-miterlimit="10" d="M-11.8,105c1.6,1.1,3.8-0.2,4.7-1.9c0.8-1.7,0.8-3.7,1.3-5.6
	c1.5-5.9,7.8-9.4,10.4-14.9c1.2-2.6,2.3-6.2,5.1-6.3c0.6,0,1.3,0.1,1.8-0.1c1.6-0.6,1.1-3,0.8-4.7c-0.9-4.5,1.9-9.1,5.8-11.6
	s8.7-4.2,13.3-4.8c1.4-0.2,3.5-0.3,4.7-1.2c2.2-1.6,1.7-3.9,1.6-6.6c0-1.2-0.1-2.5-0.5-3.6c-0.5-1.1-1.3-2-1.7-3.1
	c-0.8-2.2,0.3-4.7,2-6.4c1.6-1.7,3.7-2.8,5.5-4.4c6.4-5.7,7.4-15.9,13.9-21.3c5.9-4.9,15.4-5.4,18.9-12.2c0.7-1.3,1-2.8,1.5-4.2
	c1.3-3.4,3.7-6.5,6.8-8.5"/>
<path fill="none" stroke="#E1E1E1" stroke-miterlimit="10" d="M-10.1,86c3-3.5-0.2-10.2,3.6-12.8c2.1-1.4,4.3,0.6,5.8,2.6
	c1.2,1.5,4-0.7,4.8-2.4s0.8-3.8,0.8-5.8c-0.1-2-0.1-4,0.7-5.8c1.4-3.2,5.1-4.6,8.5-5.5c4.4-1.2,9-2.2,13.5-2.9c1-0.1,2-0.3,2.6-1.1
	c0.5-0.7,0.6-1.6,0.5-2.5c-0.2-3-0.8-6.1-1.8-8.9c-0.5-1.2-1-2.6-0.5-3.8c0.6-1.6,2.6-2.2,3.4-3.7c0.7-1.3,0.4-3.1,1.5-4.1
	c0.5-0.5,1.3-0.6,1.9-1c2-1.1,2.4-3.6,3.2-5.7c1.6-4.1,5.4-6.8,8.9-9.4c3.9-2.9,7.6-5.9,11.4-8.9c2.6-2.1,5.2-4.2,7.1-6.9
	c2.9-4.1,4-9.5,7.8-12.7"/>
<path fill="none" stroke="#E1E1E1" stroke-miterlimit="10" d="M-11.6,72.4c2.2-0.5,4.3-1,6.5-1.5c1.5-0.3,3.1-0.7,4-1.9
	c1.6-1.9,0.8-4.7,1.4-7C1,59.7,2.9,57.9,5,56.9c2.1-1.1,4.5-1.7,6.7-2.5c3.2-1.1,6.2-2.8,8.9-4.8c1.9-1.5,3.8-3.3,4.3-5.7
	c0.2-1.2,0.1-2.4,0.2-3.6c0.5-4.4,0.5-9.4,3.5-12.7c1.2-1.3,2.9-1.8,3.1-3.5c0.2-1.7,0-3.6,0.8-5.1c0.9-1.7,2.9-2.4,4.4-3.6
	c3.3-2.6,4.5-7.2,7.8-9.6c2.8-2.1,6.9-2.4,9.1-5.2c1.7-2.2,1.6-5.4,0.8-8.1c-1.1-3.7-3.3-7.1-6.4-9.5"/>
<path fill="none" stroke="#E1E1E1" stroke-miterlimit="10" d="M-10.1,68.2c0.9-4.5,6.9-5.9,9.5-9.7c1.4-2,1.8-4.6,2.8-6.9
	c1.2-2.7,3.2-5,5.2-7.2c2-2.1,4.1-4.4,6.9-5.2c1.4-0.4,2.9-0.4,4.1-1.1c3.9-2.2,2.2-8.9,5.6-11.8c0.5-0.4,1.1-0.8,1.6-1.2
	c0.9-0.9,1-2.3,1.5-3.5c0.6-1.5,1.9-2.8,2.8-4.2c0.9-1.4-0.2-3.4,0.7-4.7c0.5-0.7,1.6-0.6,2-1.4c0.4-0.8,0.5-1.6,0.8-2.4
	c1-2.6,3.8-4,5.4-6.3c1.9-2.7,1.9-6.4,1.8-9.7c0-0.5-0.1-1.2-0.5-1.5C39.9-8.9,39.6-9,39.3-9c-1.8-0.3-3.6,0.4-5.4,0.5
	c-2.9,0.3-5.9-0.9-8.2-2.7s-4.1-4.2-5.5-6.8"/>
<path fill="none" stroke="#E1E1E1" stroke-miterlimit="10" d="M-11.2,51.5c1.8-1.8,3.6-3.7,5.5-5.5c1.2-1.2,2.4-2.4,3.4-3.9
	c2.1-3.1,3.1-7.3,6.5-8.7c0.6-0.3,1.3-0.4,1.9-0.8c1-0.7,1.4-1.8,2.1-2.8c2.5-3.3,7.6-3.3,10.5-6.1c1.9-1.8,2.6-4.5,4.3-6.6
	c1.3-1.6,3.1-2.9,4.2-4.6c1.8-2.9,1.4-6.6,0.9-10c-0.1-0.6-0.2-1.2-0.6-1.7c-0.7-0.9-2-1-3.1-1.5c-1.1-0.6-1.8-1.7-2.7-2.6
	s-2.1-0.4-3.4-0.5c-1.2-0.1,0.9-2,0.9-3.2c0-0.4-0.2-0.8-0.4-1.2c-1.6-3-3.2-6-4.7-9"/>
<path fill="none" stroke="#E1E1E1" stroke-miterlimit="10" d="M-12,44.3c5.4-9.8,12-18.9,19.6-27c1.7-1.8,3.4-3.5,4.7-5.6
	c0.5-0.8,1-1.6,1-2.5c0.1-1.9-1.7-3.3-2.5-5C9.9,2,10.6-0.6,12-2.6c0.6-1,1.5-2,1.3-3.1c-0.2-1-1.1-1.7-1.9-2.4
	c-3-2.5-5.1-6-5.8-9.8"/>
<path fill="none" stroke="#E1E1E1" stroke-miterlimit="10" d="M-10.2-6.2c2.9-0.8,4.8-3.5,6-6.3c0.1-0.2,0.2-0.5,0.2-0.7
	c0-0.4-0.2-0.7-0.4-1c-0.8-1.2-1.8-2.4-1.5-3.8"/>
<path fill="none" stroke="#E1E1E1" stroke-miterlimit="10" d="M-11.7,150.5c1.6,3,3.1,6,4.7,8.9c0.5,0.9,0.9,1.7,1.4,2.6
	c1.8,3.5,3.6,7,5.5,10.5c3,5.7,6,11.5,9.6,16.8c0.7,1.1,1.7,2.3,3,2.1c1-0.1,1.7-1.1,2.5-1.8c1.6-1.6,4.8-3.8,6.3-2.1
	c1.6,1.7,2.1,4.3,4.2,5.4c2.1,1.2,4.4,1.8,6.5,3c2.4,1.4,4.3,3.5,6.1,5.5c1.4,1.5,2.8,3.1,3.4,5.1c0.5,1.7,0.3,3.6,1,5.2
	c0.5,1.2,1.5,2.2,2.1,3.4c2.2,3.9,0.8,9.1,3.2,12.8c1.5,2.4,4.4,3.7,5.6,6.3c0.2,0.5,0.4,1,0.7,1.4c0.8,0.9,2.4,0.7,3.4,0
	c1-0.7,1.8-1.8,2.7-2.6c3.1-2.5,8.4-0.8,9.6,2.9c1.4,4.4,6,6.8,8.1,10.9c2,3.9,0.6,8.7-0.8,12.9c-1.4,4.2-2.6,9.1-0.1,12.9
	c0.6,0.9,1.3,1.6,2,2.4c2.5,2.8,4.7,5.9,6.5,9.2c1.3,2.5,2.6,5.3,5.1,6.7c2.9,1.6,6.6,0.5,9.4-1.2c1-0.6,2-0.8,3.1-0.6
	c1.9,0.4,3.8-1.5,5.7-2.1c1.3-0.4,2.7-0.7,4.1-0.7c2.2,0.1,4.3,1.3,6.4,1c1.7-0.2,3.3-1.3,4.9-1c2.6,0.4,3.6,3.6,3.9,6.2
	c0.1,1.2,0.2,2.3,0.7,3.4c0.4,0.9,1.1,1.7,1.5,2.6c0.6,1.1,0.9,2.3,1.2,3.5c1.2,4,3.4,7.7,6.2,10.7c1,1,2,1.9,2.8,3.1
	c0.9,1.3,1.4,2.7,2,4.1c1.5,3.4,5,6.4,7.1,9.6c2,3.1,3,6.2,5.3,9.1c2.7,3.3,5.4,6.6,8,9.9c0.8,1,1.7,2.1,3,2.4
	c1.2,0.3,2.5-0.1,3.6,0.4c0.6,0.3,1,0.8,1.4,1.2c2.6,2.7,5.9,4.4,9.1,6.4c3.1,2,6.2,4.5,7.5,8"/>
<path fill="none" stroke="#E1E1E1" stroke-miterlimit="10" d="M-11.6,166.9c2.9,4.5,5.7,9.1,9.3,13c1.6,1.8,3.3,3.5,4.6,5.5
	c1.6,2.6,2.3,5.6,2.9,8.5c0.6,2.9,1.2,6.3,3.7,7.9c3,1.9,7,0.4,10.4,1.1c5.1,1.1,7.7,6.5,10.9,10.6c3.5,4.5,8.5,8,10.8,13.2
	c0.8,1.8,1.2,3.8,2.1,5.6c2.6,5.2,8.9,8.2,10.3,13.8c0.5,2,0.9,6.2,2.8,5.2c2.7-1.5,2.6-5.8,4.4-8.3c0.7-0.9,1.8-1.9,2.8-1.5
	c0.4,0.2,0.7,0.6,1,1c2.9,4.3,7.9,8.6,7.2,13.8c-0.2,1.4-0.2,1.7,0.3,2.9c0.6,1.5,0.5,3.1,0.5,4.7c0.2,6.2,3.3,11.8,6.5,17
	c2.8,4.6,6.1,9.2,11.1,11.1c8,2.9,13.3-1.2,20-1.3c2.4,0,5.1,0.5,6.5,2.4c0.7,0.8,1,1.9,1.4,2.9c1.1,3,2.1,5.9,3.2,8.9
	c0.5,1.5,1.1,3,2.3,4.1c1.2,1,3-0.1,3.3-0.1c0.3,0,2.1,0.9,2.3,1.2c3.1,3.7,5.7,5.7,9.3,10.7c0.1,0.2,1.7,2.8,2,5
	c0.6,4.2,5.5,6.4,8.4,9.5c3.8,4,7.3,8.4,10.2,13.1c1.2,2.1,2.4,4.3,4.2,5.9c1.8,1.6,4.7,0.3,6.7,1.6c1.1,0.7,0.8,2.7,2,3.3
	c0.7,0.4,1.4,0.5,2.1,0.7c1.9,0.4,3.8,1,5.4,2.2s2.8,3,2.8,4.9"/>
<path fill="none" stroke="#E1E1E1" stroke-miterlimit="10" d="M-11.3,184.6c5.9,2.8,10.7,8,12.8,14.1c0.7,1.9,1.1,4,2.3,5.7
	c2.3,3.6,6.8,5,10.8,6.4c3.7,1.3,7.4,2.9,11,4.7c0.8,0.4,1.6,0.8,2.2,1.6c0.7,0.9,0.8,2,1.2,3c1.1,3,4,5.1,5.9,7.6
	c1.5,2,2.5,4.2,3.6,6.4c2.3,4.2,5.2,8,8.1,11.8c2.2,2.9,4.5,5.8,6.7,8.7c0.8,1,1.7,3,2.8,2.5c1.4-0.6,1.6-2.6,2.7-3.7
	c0.5-0.5,1.2-1,1.9-0.9c0.4,0.1,0.7,0.3,1,0.6c4.3,3.8,6.5,9.3,8.6,14.6c2.2,5.5,3.7,11.3,7.7,15.6c1.6,1.7,2.4,3.4,4,5.2
	c2.6,2.9,5.3,5.6,8.1,8.3c0.9,0.9,2,1.8,3.3,2c1,0.1,2-0.2,3-0.2c0.9,0,1.8,0.3,2.7,0.5c2.3,0.3,4.6-0.7,6.9-1.3
	c2.3-0.6,5-0.8,6.7,0.9c0.8,0.8,1.2,1.8,1.6,2.8c1.2,3.1,2.5,6.3,3.7,9.4c0.9,2.2,1.8,4.5,3.7,5.8c1.4,1,3.2,1.3,4.7,1.9
	c3.5,1.4,6.1,4.2,8.4,7.2c2.2,3,4.1,6.3,6.7,8.9c3.2,3.3,7.4,5.7,10.6,9.1c1.1,1.2,2.1,2.6,3,4.1c1.6,2.8,3.6,4.9,5.7,7.4
	c1.1,1.3,2.3,2.7,3.9,3.5c1.7,0.9,3.7,1.1,5.3,2.3c1.8,1.3,2.7,3.7,4.6,4.8"/>
<path fill="none" stroke="#E1E1E1" stroke-miterlimit="10" d="M-10.5,194.9c5,3.1,9.3,7.1,12.8,11.8c1.4,1.8,2.6,3.8,4.3,5.3
	c2.9,2.6,7.1,3.7,9.4,6.8c2.4,3.1,2.7,7.9,6,10c0.7,0.5,1.5,0.7,2.4,1c1.2,0.4,2.3,0.8,3.5,1c0.6,0.1,1.3,0.2,1.8,0.5
	c0.7,0.3,1.2,0.8,1.8,1.3c2.1,1.9,4.2,3.9,6.3,5.8c0.8,0.7,1.6,1.5,2.3,2.3c2.1,2.5,3.1,5.8,4.4,8.8c2,4.8,3.3,13.7,8.4,12.9
	c0.7-0.1,1.1-0.9,1.8-1c2.3-0.2,4.4,1.4,5.8,3.3s2.2,4.1,3.6,5.9c7.5,9.6,16,18.3,24.6,26.9c1.4,1.4,2.9,2.9,4.7,3.7
	c2,1,4.3,1.2,6.4,1.8c4.2,1.3,7.7,4.3,11,7.2c5.1,4.4,10.2,8.9,15.2,13.3c2.4,2.1,4.8,4.2,6.8,6.7c0.9,1.1,1.7,2.3,2.6,3.3
	c1.8,1.9,4,3.4,6.1,4.9c5,3.9,9.2,8.7,13.3,13.6c1.7,2,3.4,4.1,5.2,6.1c2,2.4,4.1,4.9,5.1,7.9"/>
<path fill="none" stroke="#E1E1E1" stroke-miterlimit="10" d="M-11.2,200.8C-7,203.6-3,207-0.6,211.5c0.8,1.6,1.5,3.4,3,4.4
	c1.1,0.7,2.5,0.9,3.7,1.4c2.8,1.1,4.6,3.6,6.3,6.1c0.4,0.5,0.7,1,1.1,1.5c3,4.3,6.1,8.5,9.9,12.1c2.3,2.1,4.8,4,7.3,5.9
	c2.4,1.8,4.9,3.6,7.3,5.4c1,0.8,2.1,1.6,2.5,2.9c0.3,1-0.1,2.1,0.2,3.1c0.5,1.7,2.3,2.5,3.7,3.5c1.7,1.3,2.9,3.2,4.1,5
	c1.9,3.1,2.2,9.2,5.8,9.3c1.6,0,2.8-1.6,4.3-1.2c1.5,0.4,2.8,1.5,3.9,2.6c0.8,0.7,1.5,1.5,2.2,2.3c4.5,5,10.4,9,14.2,14.6
	c2.8,4.2,4.3,9.3,6.8,13.7c1.1,2,2.6,3.9,4,5.7c1.2,1.5,2.3,3,3.9,4.1c1.2,0.8,2.5,1.4,3.9,1.9c6.8,2.6,15.1,1.3,21.3,5.3
	c4.4,2.8,5.7,8.9,8.9,11.8c0.6,0.5,1.4,0.8,2,1.3c1.7,1.4,2.7,3.7,4.7,4.6c0.5,0.2,1,0.4,1.5,0.8c1,0.9,0.6,2.5,1.1,3.8
	c0.6,1.4,2.2,2.1,3,3.3c0.7,1.1,0.7,2.4,1.3,3.5c0.5,0.9,1.4,1.6,2.2,2.3c4,3.9,5.2,9.7,6.3,15.2"/>
<path fill="none" stroke="#E1E1E1" stroke-miterlimit="10" d="M99.4,367c0.5-3,4-5.1,6.9-4.1c1,0.4,1.9,1.1,3,1.1
	c1.7,0.1,3.1-1.4,3.9-2.9c0.9-1.5,1.7-3.2,3.3-3.9c0.5-0.2,1.2-0.3,1.7,0c0.4,0.2,0.6,0.6,0.8,0.9c0.6,0.9,1.3,1.9,1.9,2.8
	c0.6,0.9,1.5,2,2.6,1.9c1.2-0.2,1.8-1.6,2.5-2.6c1.6-2.1,5-2.2,7.2-0.7c2.2,1.4,3.5,4,4.2,6.5c0,0.2,0.1,0.4-0.1,0.5
	s-0.3-0.2-0.2-0.2"/>
<path fill="none" stroke="#E1E1E1" stroke-miterlimit="10" d="M-11.5,205c4.3,2.9,8,6.6,11,10.8c0.9,1.3,1.8,2.6,3.1,3.5
	c1.3,0.8,2.9,1,4.3,1.6c6.7,2.9,6.6,13,12.1,17.9c0.9,0.8,2,1.5,2.9,2.5c1.1,1.3,1.7,3,2.6,4.5c4.7,8.3,17.4,10.1,20.6,19.1
	c0.5,1.3,0.7,2.8,1.3,4.1c1.3,2.9,4.3,4.7,7.1,6.4c2.8,1.6,5.6,3.2,8.3,4.9c3.4,2,6.8,4,9.7,6.7c5.3,5,8.1,12.3,8.4,19.6
	c0.1,2.8,0.8,5.7,1.5,8.4c1,3.8,5.9,7.7,6.1,7.9c2.3,1.8,4.1,4.8,5.6,5.8c2.5,1.6,5.6,1.7,8.5,2.6c2.6,0.8,5.3,1.7,6.7,4
	c1,1.7,1,3.7,0.5,5.6c-0.5,1.9-1.5,3.5-2.5,5.2c-1.3,2.3-2.8,4.6-5,6c-1.1,0.7-2.3,1.1-3.3,2c-0.8,0.8-1.3,2-1.7,3.1
	c-1.3,3.4-2.6,6.7-3.9,10.1"/>
<path fill="none" stroke="#E1E1E1" stroke-miterlimit="10" d="M-12,220.1c-0.4,0.9,0.7,1.8,1.7,1.8c1,0,1.9-0.6,2.9-0.6
	c2.5-0.2,4.3,2.3,6.7,3c1.5,0.4,3.1,0.1,4.6,0.6c1.8,0.6,3,2.1,4,3.6c4.6,6.7,7.9,14.3,13.2,20.5c1.7,1.9,3.5,3.7,4.8,6
	c1.1,2,1.7,4.2,2.7,6.2c4.4,9.2,15.2,13.3,21.7,21c10.5,12.4,8.6,31.9,19,44.4c2.1,2.5,4.8,4.9,5.5,8.1c0.4,1.6,0.1,3.3,0,5
	c-0.9,8.7-0.5,17.5,0.9,26.1"/>
<path fill="none" stroke="#E1E1E1" stroke-miterlimit="10" d="M63.2,366.3c0.1-0.1,0-0.3-0.1-0.3c-0.1,0-0.2,0.4,0,0.3
	c1-0.8-0.1-2.6,0.2-3.9c0.1-0.3,0.1-0.5,0.1-0.8c0-0.3-0.1-0.5-0.2-0.8c-0.4-1.3-0.2-2.8,0.5-4c0.3-0.4,0.6-0.8,0.7-1.2
	c0.3-1-0.6-2.1-0.4-3.2c0.1-0.4,0.3-0.8,0.5-1.2c0.4-0.7,0.9-1.4,1.3-2.1c0.8-1.2,1.8-2.5,3.2-3c0.5-0.2,1.1-0.2,1.4,0.2
	c0.3,0.3,0.3,0.7,0.3,1.1c0.3,6.4,0.7,12.9,1,19.3c0,0.2,0.1,0.4,0.2,0.4c0.2,0,0.1-0.3,0-0.2"/>
<path fill="none" stroke="#E1E1E1" stroke-miterlimit="10" d="M-11.7,232.2c3.4,3.9,7.7,7.2,12.7,8.7c1.3,0.4,2.7,0.6,3.9,1.1
	c3.3,1.3,5.6,4.3,7.4,7.3s3,6.4,5,9.3c2.4,3.5,5.8,6.3,7.6,10.1c1.7,3.5,2,7.6,4.4,10.6c0.7,0.9,1.5,1.6,2.3,2.4
	c9.2,8.9,13.4,22.6,10.8,35.1c-0.9,4.3-2.5,8.5-2,12.8c0.2,1.7,0.7,3.4,0.4,5.1c-0.3,1.4-1.2,2.6-2,3.8c-1.9,2.6-3.9,5.3-5.8,7.9
	c-0.2,0.3-0.5,0.6-0.8,0.8c-1.5,0.6-2.1-2.1-3.6-2.9c-2-1-3.8,2.3-6,2.2c-0.8,0-1.5-0.4-2.2-0.4c-1,0-1.8,0.9-2.6,1.4
	c-3,2-7,0.7-9.9-1.4c-2.9-2.1-5.3-4.9-8.6-6.3c-0.9-0.4-1.9-0.7-2.7-1.2c-0.8-0.5-1.5-1.2-2.1-1.8c-2.1-2.1-4.1-4.2-6.2-6.4"/>
<path fill="none" stroke="#E1E1E1" stroke-miterlimit="10" d="M-12.5,256.3c1.3,0,2.6,0,3.9,0c1.3,0,2.6,0,3.9,0.3
	c2.5,0.7,4.5,2.5,6.2,4.4c1.4,1.5,2.8,3.1,3.7,5s1.3,4.1,0.6,6c-0.1,0.2-0.1,0.4-0.3,0.5c-0.3,0.3-0.7,0.2-1.1,0.1
	c-1.2-0.4-2-1.4-2.7-2.4c-0.8-1.2-1.6-2.6-3-2.9c-0.5-0.1-1.1,0-1.6-0.1c-1.7-0.3-3.1-2.2-4.8-1.8c-1.9,0.5-2.4,3.4-4.3,3.5"/>
<path fill="none" stroke="#E1E1E1" stroke-miterlimit="10" d="M-12,343.4c4.2,2.2,8.5,4.4,12.7,6.6c1.9,1,3.8,2,5,3.8
	c0.3,0.5,0.6,1.1,1,1.6c1.7,2.2,5,2.3,7.8,2.5c5,0.3,9.9,1.6,14.4,3.8c1.6,0.8,3.1,1.7,4.2,3c0.7,0.8,1.2,1.8,1.6,2.8"/>
<path fill="none" stroke="#E1E1E1" stroke-miterlimit="10" d="M-9.3,350.2c-0.8,0.9,0.1,2.2,1.1,2.8c0.7,0.4,1.5,0.7,2.4,0.8
	c0.5,0.1,0.9,0.1,1.4,0.1c0.9,0.1,2.1,0.1,2.7,0.9c0.5,0.7,1,1.3,1.7,1.7c2.7,1.9,4,5.3,6.6,7.3c0.8,0.6,1.8,1.5,1.3,2.4"/>
<path fill="none" stroke="#E1E1E1" stroke-miterlimit="10" d="M150.4,242.4c-0.3-0.2-0.5-0.6-0.8-0.8c-0.2-0.1-0.4-0.1-0.6,0
	c-1.2,0.1-2.3,1-3,2s-1.1,2.2-1.4,3.3c-1.2,4.1-2.2,8.3-2.2,12.5c0,0.1,0,0.3,0.1,0.4c0.1,0.2,0.3,0.3,0.5,0.3
	c1,0.3,2.1-0.2,2.8-0.9c0.8-0.7,1.3-1.6,1.7-2.6c0.8-1.6,1.7-3.2,2.5-4.8c0.7-1.3,1.3-2.5,1.7-3.9c0.4-1.3,0.4-2.7,0.2-4.1
	c-0.1-0.4-0.2-0.8-0.4-1C151.2,242.6,150.7,242.6,150.4,242.4z"/>
<path fill="none" stroke="#E1E1E1" stroke-miterlimit="10" d="M125.4,145.5c-0.5,1-1.6,1.7-1.8,2.8c-0.1,0.8,0,1.5,0.2,2.3
	c0.4,2.1,1.1,4.2,1.9,6.1c1,2.4,2.3,4.8,4.5,6.2c2.2,1.3,5.1,1.3,7.3,0c0.7-0.4,1.3-1,1.7-1.7c1-1.9-0.4-4.2-1-6.2
	c-0.7-2.2-0.7-4.6-0.8-6.9c0-1.8-0.3-4.3-1.9-5.2C133.4,141.6,127,142.6,125.4,145.5z"/>
<path fill="none" stroke="#E1E1E1" stroke-miterlimit="10" d="M152.2-15.6c-8.3,6.3-16.1,13.2-23.4,20.7c-0.8,0.9-1.7,1.7-2.1,2.9
	c-0.4,1-0.5,2.1-0.5,3.2c-0.1,3.4-0.3,6.8-0.4,10.2c-0.1,2.7-0.2,5.5-1,8.2c-1.9,6.5-7.3,11.2-12.4,15.5c-1.7,1.5-3.5,2.9-5.5,4
	c-1.5,0.8-3.1,1.3-4.6,2.1C94.8,55,92,64.8,93.6,73c0.3,1.3,0.6,2.7,0.3,4c-0.2,0.9-0.6,1.7-1.1,2.5c-3,4.9-7,10.7-4.4,15.8
	c0.6,1.1,1.4,2.1,1.5,3.3c0.1,2.1-2,3.5-2.8,5.4c-1.6,3.5,1.3,7.3,1.6,11.1c0.4,6.2-6.3,10.8-7.5,16.9c-1.1,5.6,2.6,11,6.7,14.9
	c8.1,7.8,18.6,13,25.3,22c3.6,4.7,5.9,10.3,7.7,15.9c2.2,6.7,4.6,14.6,11.2,17.2c2.5,1,5.5,1.2,7.3,3.1c1.4,1.5,1.7,4,0.7,5.8
	c-1.2,2.3,1.3,6.2-0.8,7.8c-1.2,1-3.2,0.3-4.2,1.5c-1,1.2-1.5,2.7-1.9,4.2c-1,3.7-1.4,7.5-1.7,11.3c-0.8,9.9-1,19.9-0.3,29.8
	c0.1,2.1,0.4,4.5,2.2,5.8c2,1.5,4.8,0.7,6.9-0.5c2.1-1.2,4.6-4.5,6.6-3.1c6.1,4.3,3.8,14.4,5.9,21.5c0.5,1.7,1.1,3.5,2.5,4.5
	c0.5,0.4,1.2,0.6,1.8,0.5c0.4-0.1,0.8-0.4,1.1-0.6c1.9-1.5,3.7-2.9,5.6-4.4c1-0.8,2.1-1.6,3.3-2.1c2.2-0.8,3.8-2.7,6.2-2.8
	c2-0.1,3.3,2.1,5.3,2.1c2,0,4.2-0.2,5.9,0.9c0.8,0.5,1.5,1.4,2.5,1.7c2.1,0.7,5.1-1.8,6.4,0c3.1,4.5,2.4,10.8,1.1,16.1
	c-0.5,1.9-1.1,3.8-1.2,5.7c-0.1,2,0.4,4.1,2,5.3c2.1,1.7,4.5,3.1,5.4,5.7s1.2,5.4,2.5,7.8c0.2,0.3,0.3,0.6,0.6,0.8
	c0.8,0.5,1.9-0.2,2.4-1.1c1.1-2.1,0.4-4.7,0.4-7.1c0-5.8,4.5-10.9,4.7-16.8c0.1-4.5-2.4-8.6-4-12.8c-1.1-2.9-1.9-5.9-2.6-8.9
	c-0.3-1.2-0.6-2.5-0.3-3.7c0.2-1,0.9-2,1.1-3c0.2-1.2-0.1-2.5-0.3-3.8c-0.2-1.3,0-2.7,1-3.5c0.6-0.5,1.5-0.6,2.3-0.7
	c3.7-0.5,7.3-1,11-1.5c0.8-0.1,1.6-0.2,2.2,0.3c0.8,0.5,0.9,1.6,0.9,2.5c0.1,2.2-0.5,4.6,0.3,6.7c0.4,0.9,1.9,0.4,2.6-0.3
	c0.7-0.7,1.1-1.7,1.9-2.3c0.6-0.5,1.3-0.8,2.1-1c3.7-1.1,7.7-0.9,11.3,0.4c0.4,0.2,0.8,0.3,1.1,0.6c0.9,0.9,0.5,2.3,0.4,3.6
	c-0.9,6.3,4,11.8,5.6,18c0.5,2,0.7,4.2,1.6,6s2.8,3.6,4.8,3.3c1.4-0.1,2.5-1.1,3.8-1.6c1.3-0.5,3.1-0.5,3.7,0.8
	c0.4,0.8,0.2,1.7,0.1,2.6c0,2.2,1.4,4.3,3.5,5c1.6,0.5,3.4,0.3,5,0.8c1.5,0.5,2.7,1.6,4.2,2c1.5,0.4,3.3,0,4.7,0.8
	c1.5,0.9,1.7,3,2,4.7c0.3,1.8,0.9,4.3,2.7,4.2c0.8-0.1,1.1-0.3,1.9-0.4c2.1-0.1,4.4-1.1,6.3-0.3c1.3,0.6-0.4,3.4,0.8,4.2
	c1.5,1,4.1-0.2,4.5,1.6c0.2,0.8-0.1,1.6-0.3,2.4c-0.7,3.3,0.5,6.7,2.4,9.5c0.6,0.9,1.3,1.7,1.8,2.6c1.1,1.9,1.6,4,2.5,6
	c0.9,2,2.2,4,4.3,4.6c2.5,0.8,5.2-0.5,7.9-0.9c0.7-0.1,1.6-0.1,2.1,0.5c0.3,0.3,0.5,0.8,0.5,1.3c0,1.3-1.1,2.3-2.2,2.9
	c-1.1,0.6-2.4,0.9-3.5,1.5c-2.6,1.6-3.7,4.7-4.6,7.6"/>
<path fill="none" stroke="#E1E1E1" stroke-miterlimit="10" d="M168.7-16.4c-3.3,9.4-14.6,13.3-20.6,21.3c-8.2,10.9-4.9,26.7-10.7,39
	c-3.2,6.7-8.8,11.9-14.2,16.9c-2.4,2.2-4.9,4.5-7.3,6.7c-0.9,0.9-2.1,1.8-3.3,1.6c-0.6-0.1-1.2-0.4-1.8-0.5
	c-1.6-0.2-2.8,1.5-3.5,2.9c-2.1,4.1-4.2,8.1-6.3,12.2c-0.7,1.4-1.4,3.1-0.5,4.4c0.5,0.7,1.3,1,2.1,1.2c3,0.9,6.3,0.5,9.4,1.1
	c1.1,0.2,0.7,2-0.1,2.8s-2,1.1-2.7,1.9c-0.6,0.8-0.7,1.8-0.7,2.8c0.1,5.1,3,10.3,7.6,12.6c1.4,0.7,3,1.2,4.1,2.4
	c1.7,2,1,5.2-0.3,7.5c-2.2,3.9-5.6,6.9-8.5,10.3c-2.9,3.4-5.3,7.7-4.7,12.1c1,7.6,9.7,11.3,14.3,17.5c6.2,8.2,5.8,21.5,15,26
	c3.3,1.6,5.1,4.2,7.8,6.7c3.6,3.4,11-1.8,13.9,2.3c1.7,2.4,1.5,5.5,1.3,8.5c-0.2,2.5-0.4,5-1.3,7.3c-2,4.8-7.1,9.3-5,14
	c1.1,2.5-2.7,5.5-5.2,6.4c-3,1-6.6,0-9.1,1.9c-1.6,1.3-2.2,3.5-2.7,5.5c-0.6,2.8-1.3,5.6-1.9,8.4c-0.3,1.3-0.5,2.9,0.4,3.8
	c0.6,0.5,1.4,0.7,1.9,1.2c0.7,0.7,0.6,1.8,0.6,2.7c0,3.9-1,10.5,2.8,11.1c3.5,0.5,5.7-4.1,9.2-4.6c1.3-0.2,2.8-0.2,4,0.3
	c0.7,0.3,2.5,2.6,3.2,2.8c2.5,0.5,4.1-4,5.7-3.7c2.9,0.7,3.8-0.3,5.8-2.3c0.3-0.3,4.9,1.9,5.3,1.8c4.2-0.2,4-0.8,8.1-2.1
	c0.7-0.2,2.9,0.2,3.6,0.6c1.8,0.9,2.5,5.3,3.4,3.5c1-2.1-1.9-7.2,2.4-12.1c1.4-1.5,2.3-3.4,3-5.3c1.9-5.1-0.5-10.8,0.3-16.2
	c0.2-1.2,0.5-2.4,1.5-3.1c1.3-1,3.2-0.6,4.8-0.3c5.9,1,12.3-0.7,16.9-4.6c1.2-1.1,2.5-2.3,4.2-2.4c1.5,0,2.8,1,3.9,2
	c1.7,1.5,3.4,3,5.1,4.5c0.8,0.7,1.6,1.4,2.6,1.7c0.9,0.3,1.9,0.2,2.7,0.6c2.4,1.1,2.6,4.7,4.9,6c2.5,1.4,6.3-0.7,8.2,1.4
	c1.1,1.1,1,3.1,2.3,4c1.7,1.3,4-0.1,6.1-0.5c2.6-0.5,5.2,0.7,7.8,1.5c2.5,0.8,4.9-1,7.5-0.9c3,0.1,0,6.3,1.8,8.8
	c1.1,1.5,3.1,1.9,4.9,2.1c3.4,0.4,9.3-2,10.2,1.3c1.3,4.8-7.9,6.9-11.4,10.4c-1.3,1.2-2.5,2.5-3.6,3.9c-0.9,1.1-1.7,2.3-2.5,3.5
	c-0.6,0.8-1.1,1.7-1.7,2.5c-2,3-4.1,6.2-3.9,9.8c0,0.8,0.2,1.6,0.8,2.1c0.8,0.7,2.1,0.5,3.1,0.1c1-0.4,1.9-1.1,3-1.2
	c1.9-0.2,3.5,1.2,4.4,2.9s1.1,3.6,1.6,5.4c0.6,1.8,1.6,3.6,3.4,4.2c1.1,0.4,2.4,0.3,3.5,0.6c2.5,0.7,4,3.5,4,6.1
	c0,2.6-3.1,5.1-2,7.5c1.3,2.8,4.1,4.4,6.8,5.8c1.9,1,3.2,2.5,5.2,1.9c1.7-0.6,2.9-1.9,4.2-3.1c1.3-1.2,3.7-3.2,4.7-1.8
	c1.1,1.7-2.4,3.2-3.4,5c-0.9,1.7-0.7,4,0.6,5.4c0.4,0.5,0.9,0.8,1.3,1.4c0.7,1,0.6,2.3,0.8,3.5c0.2,1.2,1.2,2.8,2.3,2.3
	c1.9-0.9,0.7-4.2,2.2-5.7c0.4-0.3,0.8-0.6,1.2-0.9c0.8-0.7,0.2-2,0.8-2.8c0.5-0.6,1.9-0.4,2.3,0.3c1.1,1.8-0.6,4.2,0.3,6.1
	c1.6,3.3,5.4,5.7,5.4,9.3c0,0.6-0.1,1.1,0,1.7c0.3,1.3,1.8,2.1,3.1,2.1c1.4-0.1,2.6-0.7,3.8-1.4c2.3-1.3,4.7-2.7,6.5-4.7
	c1.7-1.9,2.7-4.2,4.3-6.1c1.7-2.1,4-3.6,5.6-5.8c1.9-2.6,2.8-5.8,4.9-8.3c3.3-4,9.2-5.7,11.1-10.4c0.5-1.1,0.7-2.3,1.1-3.4
	c0.5-1.3,1.4-2.5,2-3.8c1.7-3.2,2.4-6.8,3.5-10.2s2.9-6.9,6-8.8"/>
<path fill="none" stroke="#E1E1E1" stroke-miterlimit="10" d="M299.6,269.2c1.2-0.9,2.6-1.6,3.7-2.5c1.2-0.9,3.3-3,2-3.8
	c-1.6-1-8.7,1.3-12.4,3.6c-0.8,0.5-1.8,1.2-2.8,1c-0.5-0.1-1-0.4-1.5-0.6c-2.2-0.9-4.8,0.3-6.3,2.1c-1.5,1.8-4.2,4.6-2.8,6.5
	c1.2,1.5,3.8-0.1,5.7-0.2c0.3,0,0.5,0,0.8,0.1c0.4,0.2,0.5,0.7,0.7,1.1c0.7,1.7,3.5,3.9,4.6,2.4c0.9-1.2,0.6-3,1.7-4
	c1.1-1.1,2.4-1.8,3.5-2.8C297.7,271.2,298.5,270.1,299.6,269.2z"/>
<path fill="none" stroke="#E1E1E1" stroke-miterlimit="10" d="M182.6-16.7c-0.5,3.1-4.7,3.9-6.6,6.3c-1.8,2.2-1.6,5.6-3.7,7.5
	c-0.9,0.9-2.2,1.3-3.3,1.9c-3,1.6-5.3,4.2-7.4,6.7c-1.4,1.7-2.9,3.4-3.9,5.4c-1,2-1.5,4.2-1.9,6.4c-1.2,6.4-1.8,12.9-1.8,19.4
	c0,4.3-0.2,9.6-4.1,11.6c-0.8,0.4-1.6,0.6-2.3,1.1c-0.9,0.7-1.3,1.9-1.7,3.1c-1.5,4.9-3,9.8-4.5,14.7c-0.3,1.1-0.7,2.3-1.6,3
	c-1.3,1.1-3.8,1.2-3.9,2.9c-0.1,3,3.9,4.2,6.9,4.9c2.9,0.7,8,3.4,6,5.6c-1.5,1.6-3.9,2.4-4.4,4.5c-0.3,1.2-0.3,2.5-0.6,3.7
	c-0.6,2-2.1,3.6-2.9,5.6c-1.8,4.6,1.1,9.5,3.8,13.6c3.8,5.6,8.2,11.7,14.7,13.7c3.1,1,6.5,1,9.3,2.8c0.8,0.5,1.5,1.1,2.4,1.4
	c1.2,0.3,2.4-0.2,3.4-0.8c2-1,3.9-2.2,6-2.8s4.7-0.4,6.3,1.2c1.8,1.7,3,5.2,5.4,4.7c0.8-0.2,1.4-0.8,2.2-0.9
	c0.7-0.1,1.4,0.2,2.1,0.6c5.2,2.6,13.3,6.5,15.8,7.5c2.5,1,6.9,3.5,9.4,5.7c1.1,1,2.9,2.9,4,1.8c4.6-4.9-5.7-17.4,0.6-19.8
	c5.3-2.1,11.7-1.1,14.7-5.9c0.3-0.4,0.5-0.9,0.9-1.3c0.6-0.5,1.4-0.6,2.1-0.8c4.1-1,7.4-4.2,10-7.5c2.6-3.4,4.9-7.1,8.1-9.8
	c0.6-0.5,1.3-1,2.1-0.8c1,0.3,1.3,1.5,1.8,2.5c1.4,3.2,5.3,2.1,8.7,2.3c3.4,0.3,5,5.2,5,8.7c0,1.7-0.8,3.4-2,4.5
	c-0.8,0.8-1.9,1.4-2.4,2.5c-0.3,0.9-0.2,1.9-0.4,2.8c-0.5,2.2-3,3.1-5,4.2c-4.5,2.4-7.7,7.1-8.3,12.1c-0.2,1.7-0.1,3.5,0.6,5.1
	c0.4,0.8,1,1.6,1.1,2.5c0.2,1.2-0.4,2.4-0.9,3.5c-2.4,4.7-4.8,9.4-7.2,14.2c-0.5,1-1.1,2.1-1.9,2.8c-1.9,1.8-4.8,2-6.8,3.5
	c-1,0.8-1.8,1.9-2.9,2.4c-2.6,1.2-5.4-1.1-8.1-1.8c-0.4-0.1-0.8-0.2-1.1-0.1c-0.6,0.1-1.2,0.5-1.6,0.9c-1.8,1.8-2.1,4.6-1.7,7.1
	c0.3,2.5,1.2,4.9,1.3,7.4c0,1.5,0.2,3.4,1.6,3.7c0.4,0.1,0.9,0,1.3-0.2c2.2-0.7,5.3-1.1,6.1,1.1c0.6,1.8-1.2,3.4-2.3,4.9
	c-1.4,1.8-3.1,4.9-1.5,6.5c1.7,1.6,4.1-1.9,5.5-3.8c1.4-1.9,4.4-4.9,5.8-3c0.3,0.4-0.1,1.2,0.1,1.7c0.6,1.3,2.4,2.9,3.6,2.2
	c1.2-0.7,2.5-1.1,3.4,0c0.9,1.1,1.5,2.6,2.8,3.2c1.7,0.7,4.5-0.2,4.9,1.6c0.1,0.6-0.2,1.2-0.3,1.7c-0.8,2.4,0.9,7.4,3.1,6.2
	c1.4-0.8,1-3.3,2.3-4.3c0.9-0.7,1.4,1.5,2.4,2c0.7,0.4,1.5,0,2.1-0.4c3.3-1.9,6.4-7.1,9.9-5.6c1,0.4-0.1,2.5,0.8,3.1
	c1.5,1,2.5,2.2,2.8,4c0.3,1.8,1.5,4.1,3.2,3.5c0.6-0.2,1.1-0.8,1.6-1.2c2.6-2.2,6.7-0.9,9.6,1c2.9,1.9,6.5,1.7,9.4,3.7
	c2.5,1.7,4,4.7,7,4.4c3-0.3,5.6-2.1,8-4c2.2-1.8,4.8-3.8,7.6-3.2c2.3,0.4,4,2.5,5.4,4.4c0.9,1.2,1.9,2.5,2.2,4
	c0.3,1.2,0.2,2.5,0,3.8c-0.3,2.2-1,4.4-2.5,6.1c-1.8,2-4.5,2.8-7.1,3.6c-2.6,0.8-5.2,2-6.6,4.3c-1.4,2.3-0.5,6,2.1,6.5
	c0.7,0.1,1.4,0.1,1.9,0.5c0.5,0.5,0.4,1.3,0.1,2c-0.8,2.1-2.7,3.6-4.5,5.1c-1.8,1.4-3.6,3-4.3,5.2c-0.7,2.2,1.2,3.6,2.6,5.4
	c2.2,2.8,0.7,10.9,4,9.5c2.1-0.9,2.9-3.2,4.9-4.2c5.9-2.9,8.1-15.7,14.2-13.3c2.4,0.9-1.1,4.8-2.8,6.6c-3,3.2-6,6.5-8.1,10.4
	c-2.1,3.9-3.2,8.4-2.3,12.7c0.7,3.1,2.4,5.9,3.1,9c0.9,4-2.6,10.3,1,12.1c3.6,1.9,4.5-6.5,7.3-9.4c2.1-2.2,5.2-3.1,7.4-5.1
	c1.3-1.2,2.2-2.7,3.1-4.1c4.3-7.3,8.1-15.1,9.1-23.5c0.4-2.9,0.4-5.9,1.3-8.7c1.7-5.1,6-8.7,10.1-12.1"/>
<path fill="none" stroke="#E1E1E1" stroke-miterlimit="10" d="M370.7,151.1c-3.1,1.8-5.6,4.6-7.2,7.8c-0.6,1.2-1.1,2.4-1.5,3.7
	c-1,2.6-2,5.3-2.1,8.2c0,1.3,0.1,2.7,0,4c-0.1,1.3-0.6,2.5-1.1,3.7c-1.2,2.9-3.1,5.8-6.1,6.7c-1,0.3-2,0.4-3,0.6
	c-5.6,1.1-10,6.4-9.9,12.1c0,0.7,0.1,1.3,0.4,1.9c0.5,1.1,1.8,1.7,3,1.7s2.7-1.5,3.6-0.6c2.4,2.5,1.5,6.6,1.5,10.1
	c0,1.8-0.6,3.4-0.9,5.2c-0.6,4.5,1.4,9,0.7,13.5c-0.2,1.4-0.7,2.9-0.1,4.1c0.3,0.6,0.8,1,1,1.6c0.4,1.5-1.1,2.7-2.2,3.7
	c-1.7,1.7-4.2,4.6-2.7,6.5c0.2,0.3,0.7,0.4,1.1,0.3c1.1-0.2,1.8-1.3,2.6-2.1c6.3-5.9,7.1-16.1,13.4-21.9c3.2-3,7.5-4.5,11-7.1
	c0.6-0.4,1.2-1.1,0.9-1.8"/>
<path fill="none" stroke="#E1E1E1" stroke-miterlimit="10" d="M370.2,171c-0.5,0.2-0.9,0.6-1.2,1.1c-1.5,2.1-3.1,4.4-3.2,7
	c0,0.8,0.1,1.6-0.1,2.4c-0.3,1.5-1.3,2.6-2,3.9c-1.4,2.7-1.2,5.9-1,8.9c0.2,3.2,0.4,6.5-0.4,9.6s-2.5,6.2-5.3,7.7
	c-1.1,0.6-2.4,1.1-3.1,2.1c-1.3,1.8,0.4,4.9,2.7,4.7c1-0.1,1.9-0.7,2.8-1c0.9-0.3,1.8,0.4,2.8,0.5c3.1,0.5,2.3-5.6,3.1-8.7
	c0.9-3.8,3.7-7.2,7.2-8.9"/>
<path fill="none" stroke="#E1E1E1" stroke-miterlimit="10" d="M275.9,181.6c0.5,0.4,1.1,0.4,1.7,0.3c1.8-0.2,3.6-0.6,5-1.7
	c1.5-1,1-3.5,2.5-4.5c2.5-1.7,5.1-2.5,8.1-2.3c5.7,0.4,5.7,10.1,6.1,15.7c0.1,1.3,0.1,2.7,0.8,3.8c0.7,1.1,2.1,0.3,3.3,0.7
	c2.1,0.8,0.6,4.4,1.4,6.5c0.4,1.1,1,2.3,2,2.9c1.4,0.8,3.2,0.3,4.4-0.8c1.2-1.1,1.7-2.7,2.1-4.2c1.4-5.5,0.9-11.8,4.6-16.2
	c0.6-0.8,1.4-1.4,1.9-2.3c0.7-1.3,0.7-2.9,0.7-4.5c-0.1-4.9,0.2-9.9,1.1-14.8c0.6-3.2,1.4-6.3,2.6-9.3c1.7-4.6,4-9,4.8-13.8
	c0.1-0.4,0.1-0.8,0-1.2c-0.5-1.2-2.2-0.7-3.3-0.1c-2.5,1.3-5.3,2-8.1,2.2c-1.3,0.1-2.7,0.1-3.9,0.5c-0.7,0.3-1.4,0.7-2,1.1
	c-6,3.8-12.2,8.2-19.3,8.2c-0.8,0-1.5-0.1-2.3,0c-0.9,0.1-1.8,0.5-2.7,0.8c-1.9,0.8-4,1.6-5.3,3.3c-1.5,2,0.2,4.6-0.3,7
	c-1.8,8-9.8,14.2-6.3,21.6C275.5,181,275.6,181.4,275.9,181.6z"/>
<path fill="none" stroke="#E1E1E1" stroke-miterlimit="10" d="M198.2-15.9c1,1.5-0.2,3.5-1.6,4.6c-1.4,1.1-3.1,2.2-3.5,3.9
	c-0.4,1.5,0.5,3.3-0.1,4.7c-0.6,1.4-2.3,2.1-3.1,3.4c-1.7,2.8,0.8,7.5-2,9.2c-0.7,0.4-1.5,0.5-2.3,0.6c-8.5,1.1-15.3,7.3-21.6,13.2
	c-1.1,1-2.2,2.1-2.6,3.5c-0.4,1.3-0.1,2.6,0.1,3.9c1.1,5.9,2.3,11.8,3.4,17.7c0.4,1.9,0.7,3.9,0.4,5.9c-0.4,2.4-1.8,4.4-2.7,6.7
	c-0.8,2.3-1.2,5.9,1,6.7c1.6,0.6,3.5-2,5-1.1c1.3,0.7-0.9,3.4,0.2,4.5c0.5,0.5,1.7-0.5,2.1,0c1.4,2.1,2.9,4.2,2.6,6.7
	c-0.1,0.7-0.5,1.2-1,1.7c-1.9,2.1-4.7,3.4-7,5.1c-2.3,1.7-4.3,4.5-3.7,7.3c0.4,1.8,1.7,3.3,1.6,5.1c-0.1,1.9-1.9,3.2-3.3,4.6
	c-1.4,1.4-2.4,3.7-1,5.1c1.5,1.5,3.9,0.2,5.9-0.4c2.3-0.7,4.6,1.3,6.9,0.7c1.8-0.5,1.8-3.7,3.6-4c1.5-0.2,1.6,2.7,3.1,3.2
	c2.3,0.7,4.5-2.1,6.8-1.7c1.4,0.3,2.8,0.9,4.2,1.2c5.4,0.9,10.1-4.1,11.8-9.3c1.8-5.6-3.7-11.7-1.4-17c1.9-4.3,9.5-1.2,14,0.4
	c0.7,0.2,1.4,0.5,1.8,1.2c0.3,0.5,0.4,1.2,0.7,1.7c0.4,0.6,1.1,1,1.7,1.3c3.1,1.4,6.1,2.9,9.2,4.3c1.6,0.8,3.7,1.5,5.1,0.4
	c3.1-2.4-1.5-9.1,2-10.8c0.8-0.4,1.7-0.3,2.6-0.4c3.7-0.4,6-4.2,7.4-7.7c1.3-3.5,2.6-7.5,5.9-9.2c2.7-1.4,6-0.9,9.1-1.1
	c5-0.2,9.7-2.3,14.3-4.3c1-0.4,2-0.9,2.8-1.6c5.3-4.7-2.4-15.2,2.7-20.2c1.2-1.1,2.8-1.6,4.3-2.1c4-1.2,8.2-2.5,12.3-1.4
	c3.9,1.1,7.1,4.3,11.2,4.6c2.1,0.2,3,2.4,2.5,4.4c-0.2,0.8-0.7,1.7-0.3,2.4c0.2,0.5,0.7,0.8,1.2,1c1.8,0.7,4,0.5,5.7-0.5
	c0.9-0.6,1.8-1.4,2.8-1.1c0.6,0.2,1,0.7,1.5,1c0.7,0.5,1.6,0.7,2.4,0.8c2.9,0.6,5.8,1.1,8.7,1.7c2.1,0.4,4.3,0.8,6.1,2.1
	c0.4,0.3,0.8,0.7,1.3,0.9c0.9,0.5,2.2-0.3,3.1,0.2c2.2,1.3,0.7,5.7-1.5,6.9c-1.1,0.6-2.5,0.5-3.7,0.9c-2.3,0.8-3.7,3.3-6.1,3.9
	c-1,0.3-2,0.2-2.9,0.3c-3.8,0.5-7.3,4.1-10.8,2.6c-1.2-0.5-2.1-1.5-3.4-2c-1.5-0.5-3.2-0.1-4.7,0.2c-6.5,1.3-13.2,0.5-19.8-0.3
	c-0.9-0.1-1.8-0.2-2.6,0.1c-1.3,0.5-1.9,1.9-2,3.3c-0.1,1.4,0.1,2.7,0.1,4.1c-0.1,2.6-1.2,5.2-1.2,7.8c0,1.7,0.4,3.4,0.7,5
	c0.7,3.1,1.4,6.2,2.2,9.2c1.1,4.2,2.3,8.4,4.2,12.3c0.3,0.6,0.6,1.3,1.1,1.7c0.7,0.7,1.8,0.9,2.6,1.4c2.6,1.7,2.4,5.4,3.7,8.1
	c0.4,0.9,1.1,1.8,2.1,2c0.9,0.2,1.7-0.2,2.5-0.6c2.2-1,4.4-2.1,6-4c1-1.1,1.6-2.5,2.5-3.6c1.3-1.6,3-2.8,5-3.4
	c1.4-0.4,3.1-0.6,4.4,0.1c2.9,1.3,3.6,4.9,4.4,7.9c0.9,3.3,2.5,6.5,4.5,9.3c0.5,0.7,1.1,1.4,1.8,1.8c1.8,1,4.1,0.2,6-0.7
	c1-0.4,1.9-0.9,2.9-1.3c8.3-3.8,15.9-8.1,21.4-15.4c1.6-2.1,3.1-4.3,5.4-5.6c1.8-1.1,4.2-1.6,5.3-3.4"/>
<path fill="none" stroke="#E1E1E1" stroke-miterlimit="10" d="M208.9-15.9c-4.5,6.1-9.3,13-8.6,20.6c0.1,1.6,0.5,3.3,0.6,4.9
	c0.1,5.1-1.6,12.5-6.6,13.6c-2.3,0.5-4,1.4-5.1,3.5s-3.9,4.1-5.4,2.3c-0.3-0.4-0.5-0.9-0.9-1.3c-1-0.9-2.6-0.1-3.7,0.8
	c-2,1.6-4.1,3.6-3.8,6.2c0.1,1,0.7,1.9,1.2,2.8c1.1,1.8,2.2,3.6,3.3,5.3c0.4,0.6,0.8,1.3,1.5,1.7c1.4,0.8,3.3-0.1,4.4-1.3
	c1.1-1.2,1.9-2.8,3.3-3.7c4-2.7,10.1,1.3,14-1.6c1.6-1.2,3.6-4,4.9-2.5c2.8,3.3,3.3,8.3,2.1,12.4c-0.5,1.8-1.6,3.4-2,5.2
	c-0.4,1.8,0.3,4.1,2.1,4.6c0.8,0.2,1.6,0,2.4-0.2c1.9-0.7,3.5-1.9,4.7-3.4c1.1-1.5,1.9-3.3,3.5-4.2c1.6-0.9,3.5-0.6,5.2-1.1
	c4.4-1.5,4.8-7.7,7.8-11.3c1.6-1.9,4-3.1,6.3-4.1c3.1-1.5,6.2-5.7,9.4-4.4c2.2,0.8,3.3,3.6,5.6,3.3c4.4-0.4,6.7-5.5,7.5-9.9
	c0.8-4.4,1.4-9.5,5.2-11.8c1.9-1.2,4.3-1.4,6.4-2.5c1.8-1,3.6-2.7,5.6-2.4c1.8,0.3,3.3,2.1,5.1,1.8c0.7-0.1,1.3-0.6,2-0.6
	c1.9,0,0.8,3,1.9,4.6c2.1,2.8,6.6-2,9.5-4s6.9-3.7,9.8-1.6c2.1,1.5,2.6,4.4,2.9,7c0.3,2.7,0.7,5.5,1,8.2c0.1,1.2,0.3,2.4,1,3.3
	c0.5,0.6,1.1,1,1.7,1.4c6,3.6,14.4,4.8,19.5,0c3.3-3.1,9.8-5.9,13.3-3.1c0.9,0.7,0.1,2.2,0.7,3.2c0.5,0.9,1.8,0.7,2.7,1.2
	c1.8,1.2-0.9,4.2-1.6,6.2c-0.8,2-1.2,4.4,0,6.2c1.4,2,4.7,2.7,5,5.2c0,0.6-0.1,1.2-0.2,1.8c-0.1,0.9,0.1,1.7,0.3,2.6
	c0.6,2.6,1.2,5.4,2.8,7.5c0.4,0.5,0.9,1.1,1,1.7c0.2,0.6,0,1.2-0.1,1.8c-1,4-3.5,7.7-6.9,10.1c-0.7,0.5-1.5,0.9-2.4,0.8
	c-0.6-0.1-1.2-0.5-1.8-0.6c-2.4-0.7-4.3,1.7-6.5,2.9c-1.4,0.7-2.9,0.9-4.4,1.3c-3.6,0.8-7,2.5-9.9,4.8c-0.5,0.4-1.1,0.9-1.8,1
	c-1.4,0.2-2.5-1.3-4-1.5c-1.8-0.3-3.6,1.5-5.4,1.2c-1.2-0.2-2.2-1.3-3.4-1c-0.6,0.1-1,0.5-1.6,0.8c-2,1-4.3,0-6.5-0.5
	c-4.2-0.9-8.9,0.8-11.6,4.2c-0.3,0.4-0.6,0.9-0.6,1.4c0,0.6,0.4,1.2,0.7,1.8c1.9,3.1,1.4,7.5,4,10c1.7,1.6,4.4,1.9,6.7,1.7
	c1.8-0.2,3.8-0.8,4.4-2.5c0.4-0.9,0.2-2,0.5-3c0.7-1.9,3.1-2.3,4.9-3.3c1.8-1,3.1-2.7,4.8-3.9c1.7-1.2,4.2-1.8,5.7-0.3
	c1.1,1,1.3,2.7,2.4,3.7c1.7,1.5,4.4,0.4,6.2-1c1.8-1.4,3.7-3.2,5.9-2.9c0.2,0,0.5,0.1,0.7,0.2c0.3,0.2,0.4,0.6,0.4,1
	c0.1,2.3-2.6,3.7-3.1,6c-0.6,2.7,2.2,5.2,1.6,8c-0.2,0.9-0.6,1.7-1.2,2.5c-5.5,7.7,0.7,15.4,7,8.8c1.3-1.4,2.8-2.7,3.9-4.2
	c2.7-3.7,5.5-7.4,8.2-11c1-1.4,2-2.7,3.4-3.7c1.1-0.7,2.3-1.1,3.5-1.6c4.4-1.9,8.3-5.2,10.7-9.3"/>
<path fill="none" stroke="#E1E1E1" stroke-miterlimit="10" d="M370.9,48.5c-1.6,1.3-2.9,3.1-3.6,5c-0.6,1.8-0.8,3.7-0.8,5.6
	c0,1.3,0.1,2.8-0.6,3.9c-0.4,0.5-0.9,0.9-1.2,1.4c-0.4,0.5-0.6,1.2-0.2,1.8c0.1,0.2,0.3,0.4,0.5,0.6c0.6,1-0.7,2.1-0.9,3.2
	c-0.1,1,0.8,1.9,1.7,2c1,0.1,1.9-0.3,2.6-1c0.7-0.7,1.2-1.6,1.6-2.4c0.8-1.6,1.7-3.2,2.1-4.9"/>
<path fill="none" stroke="#E1E1E1" stroke-miterlimit="10" d="M360.3,32.5c-0.3,0.2-0.6,0.3-0.8,0.5c-0.2,0.3-0.3,0.7-0.4,1.1
	c-0.1,0.9-0.3,1.8,0.1,2.6c0.4,0.8,1.3,1.3,2.2,1.6c1.6,0.6,3.3,1.1,5,1.3c0.7,0.1,1.5,0.1,1.9-0.5c0.3-0.6,0-1.3-0.3-1.9
	c-0.7-1.5-1.2-3.1-1.3-4.7c-0.1-1-0.1-2-0.5-2.9c-0.5-0.9-1.8-1.7-2.4-1C362.6,30,361.8,31.7,360.3,32.5z"/>
<path fill="none" stroke="#E1E1E1" stroke-miterlimit="10" d="M358.1-17.1c-0.7,5.5-1,11.1-0.9,16.7c0,0.8,0,1.6,0.3,2.4
	c0.3,1,1,1.8,1.7,2.6c0.4,0.4,0.7,0.9,1.3,1.1c0.4,0.2,0.9,0.2,1.4,0.3c2.4,0.2,4.9,0.3,7.3,0.5c0.7,0,1.4,0.1,2.1,0.1"/>
<path fill="none" stroke="#E1E1E1" stroke-miterlimit="10" d="M326.2,8.2c-0.6-0.2-1.3,0-1.7,0.4c-1.1,0.9-1.6,3.3-0.3,3.8
	c0.5,0.2,1.1-0.2,1.7-0.2c0.2,0,0.5-0.1,0.7-0.2c0.4-0.3,0.5-0.8,0.6-1.2C327.2,9.8,327.1,8.6,326.2,8.2z"/>
<path fill="none" stroke="#E1E1E1" stroke-miterlimit="10" d="M256.5-15.2c-1,1.8-3.6,2.1-5.2,3.4c-1.9,1.5-2.3,4.3-4.1,6
	c-1.7,1.6-4.3,1.8-6.5,1.2c-2.2-0.6-4.2-2-6-3.4c-1.5-1.1-3-2.1-4.5-3.2c-0.5-0.4-1-0.7-1.6-0.8c-0.6,0-1.2,0.3-1.7,0.6
	c-2,1.2-4,2.4-6.1,3.7c-1,0.6-2.1,1.3-3.3,1.6c-1.1,0.3-2.3,0.4-3.5,0.7c-2.8,0.8-4.8,3.3-5.7,6.1c-0.9,2.8-0.7,5.7-0.3,8.6
	c0.2,1.3,0.4,2.7,1,3.8s1.8,2.1,3.1,2.2c0.9,0.1,1.9-0.2,2.7,0.2c0.6,0.3,0.9,1,1.2,1.6c0.7,1.6,1.5,3.1,2.2,4.7
	c1,2,2.3,4.2,4.5,4.5c1.6,0.2,3-0.8,4.3-1.7c4.5-3.1,9.2-5.8,14.2-8c2-0.9,4.2-1.8,5.4-3.7c0.8-1.2,1.1-2.6,1.9-3.7
	c1-1.3,2.5-2.1,3.6-3.3c1.3-1.4,2-3.4,3.1-5c1.8-2.8,4.7-4.6,7.6-6.2c6.9-3.9,14.2-7.2,21.7-9.8"/>
<path fill="none" stroke="#E1E1E1" stroke-miterlimit="10" d="M291.7-14.4c2.1,0.4,1.5,4.2,3.4,5.1c1.4,0.6,2.8-0.6,4.3-0.9
	c1.7-0.3,3.4,0.8,5.1,1.2c5.4,1.1,10.5-5,15.8-3.4c0.7,0.2,1.4,0.6,2.1,0.7c1.3,0.3,2.7-0.1,4-0.2c1.3-0.1,2.9,0,3.7,1.1
	c0.8,1.1,0.6,2.5,0.6,3.9c-0.1,2.4,0.5,4.8,1.6,6.9c0.4,0.8,1,1.6,1.9,1.7c0.5,0,0.9-0.1,1.3-0.3c1.2-0.5,2.4-1.2,3.2-2.2
	c3.2-4-0.9-10.8,2.4-14.6"/>
<path fill="#EAEAEA" stroke="#D6D6D6" stroke-miterlimit="10" d="M289.8,35.8c-0.7,0.1-1.1,0.7-1.4,1.3c-0.7,1.2-1.4,2.4-2.1,3.6
	c-0.1,0.2-0.2,0.4-0.4,0.6c-1,1.1-2.8,0.6-4,1.3c-1.7,0.8-1.8,3.4-0.5,4.8c0.6,0.6,1.3,1,1.6,1.8c0.1,0.5,0.1,1,0.1,1.5
	c0.2,1.4,1.7,2.4,1.5,3.8c-0.1,0.5-0.3,1.1,0.1,1.4c0.1,0.1,0.3,0.2,0.5,0.2c2.6,0.6,5.3,3.4,8,3.5c2.1,0.1,3.3-1.6,5.4-1.9
	c1.1-0.2,2.2,0,3.3-0.1c1.1-0.1,2.3-0.7,2.6-1.7c0.4-1.2-0.8-4.6-1.3-5.8c-1.3-3.2,0.1-4.2-0.7-5.7c-0.4-0.8-1.9,1.2-2.6,0.7
	c-0.6-0.4,0-1.5-0.3-2.1c-0.3-0.6-1.2-1.1-1.8-0.8c-0.5,0.2-0.7,0.7-1,1.1s-0.9,0.7-1.3,0.4c-1.3-0.9,0.1-3.5-1.2-4.4
	c-0.5-0.4-1.1-0.3-1.7-0.6C291.4,37.7,291.1,35.7,289.8,35.8z"/>
<path fill="#EAEAEA" stroke="#D6D6D6" stroke-miterlimit="10" d="M314.4,129.4c0,0.1-0.2,0.2-0.3,0.3c-1,0.6-2.1,1-3.3,1.1
	c-0.5,0-1.1,0-1.5-0.4c-0.2-0.2-0.3-0.4-0.3-0.7c-0.4-1.4-0.4-2.9,0-4.3c0.3-0.8,0.6-1.7,0.2-2.3c-0.2-0.3-0.6-0.5-0.8-0.8
	c-0.6-0.7-0.3-1.7-0.1-2.6c0.2-0.6,0.4-1.2,0.6-1.8c0.1-0.2,0.2-0.4,0.4-0.5c0.1,0,0.2,0,0.3,0c0.9,0.2,1.7,0.4,2.6,0.6
	c0.9,0.2,1.9,0.5,2.2,1.4c0.4,1.1-0.4,2.5,0.3,3.4c0.8,1,2.5,0.3,3.6,1c0.3,0.2,0.5,0.5,0.7,0.9c0.4,0.9,0.4,2.1-0.4,2.6
	c-0.7,0.4-1.6,0-2.3-0.4c-0.7-0.4-1.6-1.4-2.2-0.8c-0.7,0.7-0.1,2,0.3,2.9C314.4,129.1,314.4,129.2,314.4,129.4z"/>
<path fill="none" stroke="#D6D6D6" stroke-miterlimit="10" d="M284.7,55.8c-0.7,1.4-1.8,3.6-2.3,4.3c-1,1.7-2,3.7-3.4,5.1
	c-2.8,2.6-4.7,5.5-5.9,9.5c-0.4,1.5-1.5,3.3-2.3,4.6c-1,1.5-2,2.3-3.3,3.5c-1.8,1.7-2.2,5.7-2.4,8c-0.3,2.6,0,5.3-0.4,7.9
	c-0.4,2.7,0.1,5.4-0.2,8.1c-0.3,3.7-2,7.2-3.8,10.3c-1.6,2.9-2.3,6.5-3.4,9.7c-1.4,4.2-4,7.9-5.8,11.9c-0.7,1.6-1.5,3.2-2.2,4.8
	c-0.9,1.9-1.3,4-2.2,5.9c-0.6,1.2-1.4,2.1-2.2,3.2c-0.5,0.8-0.9,1.6-1.5,2.2c-0.5,0.5-1.3,0.8-1.8,1c-2.1,1.3-4.3,2.4-6.5,3.5
	c-2.8,1.4-3.9,4.5-6.7,6c-1.4,0.7-2.6,1.3-3.1,2.8c-0.2,0.6-0.1,1.3-0.4,1.9c-0.3,0.6-0.5,0.5-0.9,1.2c-0.8,1.3-2.7,1.9-2.7,3.5
	c0,1.2,0.1,2.4,0.1,3.7c0,2.7-0.4,5.2-0.4,7.9c0,2.7,0.1,5.4,0.1,8.1c0,1.7-0.4,1.8-1.2,3c-0.7,1-0.6,2.1-0.8,3.2
	c-0.4,1.6-1.1,2.9-1.3,4.6c-0.2,1.5-0.3,4.9-0.2,6"/>
<path fill="#EAEAEA" stroke="#D6D6D6" stroke-miterlimit="10" d="M344.6,161.3c-1.1-1.5-3.8,3.3-5,2c-0.7-0.8,0.1-2.2,0.1-3.3
	c0-1.3,0.1-2.6,0.8-3.6c0.4-0.6,0.9-1,1.5-1.3c1.5-0.9,3.7-1.4,4.9-0.1c1,1.1,0.8,2.8,0.7,4.2c0,0.2,0,0.4,0.1,0.6
	c0.1,0.1,0.2,0.2,0.4,0.3c0.9,0.4,1.9,0.5,2.8,0.3c0.2-0.1,0.5-0.1,0.7,0c0.4,0.2,0.4,0.7,0.4,1.1c-0.3,2.9-1.5,5.6-3.4,7.8
	c-0.9,1-2.1,2-3.5,2c-1.2,0-2.2-0.8-3-1.7c-0.2-0.3-0.4-0.6-0.5-0.9c-0.3-1.1,0.6-2.2,1.3-3.2C343.9,164.1,345.5,162.5,344.6,161.3z
	"/>
<path fill="none" stroke="#4E9BD7" stroke-miterlimit="10" d="M200.7,187.4c2,0.1,3.2,2.5,3.4,4.5c0.2,2-0.3,3.9,0,5.9
	c0.5,3,2.8,5.4,5.3,7.2c2.5,1.8,5.3,3.3,7.3,5.5c3.6,4,5.3,10,6,15.4c0.2,1.7-0.5,3.3-1.4,4.8c-0.4,0.7-1.1,1.3-1.4,2
	c-0.7,1.4-0.3,3-0.3,4.5c0.1,2.8-1,5.5-1.1,8.2c-0.1,5.3,3.4,10.3,3.2,15.6c-0.2,6.3-5.4,11.5-5.7,17.8c-0.2,6.3,4.6,11.6,6,17.8
	c1.1,4.9,0.2,10.3,2.6,14.7c0.5,0.9,1.2,1.8,1.3,2.8c0.4,2.5-2,4.3-3.7,6.2c-2.9,3.4-2.5,6.8-2.3,11.3c0.1,2,0.3,5.2,1.3,6.9
	c0.4,0.7,1,1.2,1.4,1.9c1.9,2.7,2.2,6.4,0.8,9.3c-0.6,1.3-1.5,2.5-1.8,3.9c-0.3,1.5,0.2,3,0.8,4.4c0.9,2.4,2.1,4.7,3.9,6.4"/>
<path fill="#EAEAEA" stroke="#D6D6D6" stroke-miterlimit="10" d="M27.9,96.4c0.1-0.7,0.3-1.3,0.1-2c-0.2-0.6-0.8-1.2-1.4-1.2
	c-0.6,0.1-1,0.6-1.4,1.1c-0.5,0.8-1,1.6-1.5,2.4c-1.4,2.4-2.8,4.8-4.2,7.2c-0.7,1.2-1.4,2.4-1.7,3.7c-0.7,2.5,0.1,5.3,1.4,7.6
	c0.1,0.2,0.2,0.4,0.4,0.4c0.3,0.1,0.6-0.2,0.8-0.5c0.7-1,1.3-1.9,2-2.9c0.3-0.4,0.6-0.9,1.1-1.1c0.5-0.3,1.2-0.4,1.8-0.4
	c1.2-0.1,2.8,0.7,3.7-0.2c0.9-0.9,0.1-2.5,0.6-3.6c0.5-1.1,2.1-1.2,2.7-2.3c0.5-1-1.2-1.9-2-2.6c-0.2-0.1-0.3-0.3-0.5-0.3
	c-0.4-0.1-0.7,0.1-1,0.3c-1.4,1.3-0.3,3.8-1.4,5.3c-1,1.2-3.2,1.8-4.4,0.7c-0.1-0.1-0.1-0.3-0.1-0.4c-0.7-2.8,0.5-5.9,2.8-7.7
	c0.5-0.4,1-0.7,1.4-1.2C27.6,98,27.8,97.2,27.9,96.4z"/>
<path fill="none" stroke="#D6D6D6" stroke-miterlimit="10" d="M18.8,114.5c-0.2,1.3-1.2,3.3-2.2,4.2c-0.5,0.4-1,0.8-1.4,1.3
	c-0.5,0.6-0.7,1.4-1,2.2c-1.5,3.9-5.1,6.8-9.2,7.5c-1.1,0.2-2.2,0.2-3.2,0.8c-0.6,0.4-1.2,1-1.9,1.3c-1.6,0.6-3.1-1-4.7-1.6
	c-0.6-0.2-1.3-0.3-1.9-0.4c-1.9-0.4-3.7-1.2-5.2-2.3"/>
<path fill="none" stroke="#D6D6D6" stroke-miterlimit="10" d="M67.3,343.4c0.7-2.4,1.8-4.6,3.4-6.5c1.5-1.9,3.6-3.6,6-4
	c0.5-0.1,1.1-0.1,1.6,0.1c0.9,0.3,1.3,1.2,1.6,2.1c0.7,2.1,0.6,4.3,1,6.4s1.6,4.4,3.6,5.1c2.2,0.7,4.5-0.5,6.3-2
	c2.1-1.7,3.9-3.8,6.2-5.2c2.5-1.6,5.5-2.3,8.4-2.1"/>
<path fill="none" stroke="#D6D6D6" stroke-miterlimit="10" d="M111.8,339.9c0.3,0.4,1.3,1.5,1.8,1.6c1.4,0.6,2.9,0.2,4.3-0.3"/>
<path fill="none" stroke="#D6D6D6" stroke-miterlimit="10" d="M124,340.2c-0.1,0.4,0.2,0.9,0.5,1.2c0.6,0.8,1.4,2.1,1.8,3"/>
<path fill="none" stroke="#D6D6D6" stroke-miterlimit="10" d="M134.7,352c0.8,0.7,1.5,1.8,2.3,2.5"/>
<path fill="none" stroke="#D6D6D6" stroke-miterlimit="10" d="M43.7,309.9c-0.7-0.2-1.9,1-2.7,1.6c-0.7,0.6-1.5,1.2-2.4,1.4
	s-2,0-2.6-0.7c-0.8-1.2,0-2.9-0.8-4.1c-0.3-0.5-0.8-0.7-1.3-1c-1.3-0.8-2.7-1.5-4-2.3c-1-0.5-2-1.1-3.1-1.1c-1.3,0-2.5,0.7-3.6,1.4
	c-3.1,2-6.3,4.1-8.8,6.8c-2.6,2.8-4.6,6.4-8.1,7.8c-1.2,0.5-2.7,0.6-3.8-0.1c-1.5-1-1.8-3-2-4.8c-0.2-1.7-0.6-3.4-1.5-4.8
	c-0.9-1.5-2.4-2.6-3.8-3.7c-2.1-1.6-4.2-3.2-6.3-4.8"/>
<path fill="none" stroke="#D6D6D6" stroke-miterlimit="10" d="M-10.8,287.8c0.5-1.7,1.1-3.1,2.4-4.4s3.2-2.6,4.9-2
	c1.8,0.7,3.2,2.7,5.1,2.7c2,0,3.2-2.2,3.3-4.2c0.1-2-0.5-3.9-0.3-5.9c0.1-0.9,0.3-1.8,0.2-2.7c-0.1-1-0.6-2-1.1-2.9
	c-0.5-1.2-0.9-2.5-1.9-3.4c-0.6-0.6-1.5-0.9-2.2-1.3c-2.4-1.5-4.8-3.2-7-3.7c-1.2-0.3-2.2-0.6-3.5-0.7c-1.2-0.1-2.6,0.3-3.3,1.4"/>
<path fill="#EAEAEA" stroke="#D6D6D6" stroke-miterlimit="10" d="M124.3,339.4c-0.1-0.5-0.7-0.7-1.2-0.9c-0.9-0.4-1.6-1.4-2.6-1.2
	c-0.2,0-0.4,0.1-0.6,0.2c-1.3,0.7-3.1,2.7-2,3.8c0.5,0.4,1.2-0.2,1.8-0.4c0.5-0.2,0.9-0.6,1.5-0.6c0.5,0,0.9,0.4,1.4,0.5
	c0.6,0.1,1.2-0.1,1.5-0.6C124.3,339.9,124.3,339.6,124.3,339.4z"/>
<path fill="#EAEAEA" stroke="#D6D6D6" stroke-miterlimit="10" d="M109.6,336.7c-0.7,0-1.4,0.2-2.1,0.1c-0.4,0-0.7-0.1-1.1-0.1
	c-0.4,0-0.8,0.2-0.9,0.5c-0.2,0.5,0.3,1,0.8,1.2c0.4,0.1,0.8,0.2,1.2,0.2c0.8,0,1.6-0.4,2.3,0c0.7,0.4,1.1,1.3,1.8,1.3
	c0,0,0.1,0,0.1,0c0.1,0,0.1-0.1,0.1-0.2c0.1-0.7,0.1-1.4,0.2-2.1c0-0.1,0-0.2,0-0.3c-0.1-0.1-0.1-0.1-0.2-0.1
	C111,336.9,110.3,336.7,109.6,336.7z"/>
<path fill="#EAEAEA" stroke="#D6D6D6" stroke-miterlimit="10" d="M49.5,312.4c1.2,0.1,2.4,0,3.5,0.3c2.1,0.7,3.4,2.9,3.8,5.1
	c0.4,2.2-0.1,4.4-0.3,6.6c-0.4,3.4-0.5,6.8-0.3,10.3c0.1,1.4,0.3,2.9,1.3,4c0.3,0.3,0.7,0.6,0.9,0.9c0.9,1.1,0.8,2.9,1.8,3.8
	c0.5,0.4,1.2,0.7,1.4,1.3c0.3,0.6-0.1,1.3,0,2c0.1,0.8,0.9,1.4,1.7,1.5c0.8,0.1,1.6-0.2,2.3-0.7c1.2-0.8,2.7-2.3,2.1-3.6
	c-0.5-1-2.2,0.1-3.3,0.2c-1.8,0.1-3.2-1.7-3.9-3.4c-1.9-4.2-2.8-8.9-2.6-13.5c0-0.7,0.1-1.3,0.4-1.9c0.3-0.4,0.7-0.7,0.9-1.1
	c0.6-0.9,0.4-2.1,0.3-3.1c-0.5-2.6-0.9-5.3-2.3-7.5c-0.5-0.9-1.2-1.7-2.1-2.2c-1.4-0.8-3.2-0.5-4.8-0.6c-2.1,0-4-1.8-6-1.4
	c-0.5,0.1-0.3,1,0,1.4c0.3,0.4,0.8,0.6,1.3,0.8C46.8,312.1,48.1,312.3,49.5,312.4z"/>
<path fill="#EAEAEA" stroke="#D6D6D6" stroke-miterlimit="10" d="M127.4,350.1c0.8,0.2,1.8-0.2,2.4,0.4c0.2,0.2,0.3,0.4,0.4,0.5
	c1,1.1,2.9,2.1,4,1.1c0.2-0.1,0.5-0.5,0.3-0.6c-1.8-0.7-2.9-1.7-3.6-2.7c-0.7-0.9-2.4,0.5-3.2-0.2c-0.8-0.7-0.2-2.1-0.3-3.2
	c0-0.2,0-0.3-0.1-0.5c-0.2-0.5-1-0.5-1.4-0.2c-0.4,0.3-0.6,0.9-0.6,1.5C125,347.9,125.9,349.7,127.4,350.1z"/>
<path fill="#EAEAEA" stroke="#D6D6D6" stroke-miterlimit="10" d="M140.9,359.5c0.5,1.7,2.5,4,1.2,5.3c-0.5,0.5-1.7,0-2.1-0.6
	c-0.7-1.1-1.3-2.3-1.7-3.6c-0.1-0.3-0.2-0.7-0.2-1c-0.3-1.6-1.6-3.3-0.8-4.7c0.4-0.8,1.9,0,2.3,0.7c0.2,0.3,0.3,0.6,0.4,0.9
	c0.1,0.3,0.2,0.6,0.3,0.8C140.4,358,140.6,358.8,140.9,359.5z"/>
<g>
	<path fill="#7BBCEB" stroke="#4E9BD7" stroke-miterlimit="10" d="M184.7,156.5c-1,0-2,0.5-3,0.7c-2,0.4-4.2,0-5.9,1.2
		c-0.9,0.7-1.5,1.7-2,2.7c-1.1,2.2-2.3,4.4-2.6,6.9c-0.3,1.7,0.2,5.3-1.4,4.8c-1.1-0.4-1.7-1.4-2.8-1.1c-1.1,0.4-2.2,1.9-3.2,1.3
		c-1.1-0.8-1-2.9-2.4-3c-1.1-0.1-2.1,0.8-2.8,1.6c-0.3,0.3-0.6,0.6-0.6,1c0,0.3,0,0.5,0.1,0.8c0.6,2.5,2,4.8,3.3,7.1
		c0.7,1.1,1.3,2.3,2,3.4c0.5,0.8,1,1.7,1.5,2.5c2.7,3.9,6.8,6.9,11.3,8.5c1.1,0.4,2.5,0.7,3.4,0c0.9-0.7,1-2.1,0.7-3.3
		c-0.2-0.6-0.4-1.3-0.3-1.9c0.1-0.6,0.8-1.2,1.4-1c0.3,0.1,0.5,0.5,0.7,0.8c0.9,1.5,2.3,3.1,4.1,3c1.3,0,2.5-1,2.8-2.3
		c0.2-1-0.1-2.1,0.3-3c0.4-1,1.6-1.6,2.7-1.6c1.1,0,2.2,0.4,3.2,0.7c1.2,0.4,2.3,0.9,3.5,1.3c0.5,0.2,0.9,0.3,1.4,0.3s1-0.5,0.9-1
		c0-0.3-0.2-0.5-0.4-0.7c-1-1.1-2.6-1.5-4-2.1c-1.4-0.6-2.9-1.4-3.3-2.9c-0.2-0.6,0-1.4,0.6-1.7c0.5-0.2,1.1,0.1,1.6,0.4
		c1.1,0.7,2.1,1.4,3.2,2.1c0.5,0.3,1,0.7,1.6,0.8s1.3,0,1.6-0.5c0.3-0.4,0.2-1,0.2-1.5c-0.1-1-0.3-2.1-0.4-3.1
		c-0.1-0.6-0.1-1.2-0.4-1.7c-0.4-1-1.2-1.7-1.8-2.6c-0.5-1-0.7-2.1-1-3.2c-0.3-1.1-0.9-2.2-1.9-2.6c-0.6-0.2-1.3-0.2-1.9-0.4
		c-1.2-0.5-1.6-1.9-2.1-3.1c-1-2.5-2.8-4.7-5-6.2C186.8,157,185.8,156.5,184.7,156.5z"/>
	<path fill="#FFFFFF" stroke="#4E9BD7" stroke-miterlimit="10" d="M187.4,176.7c-0.8,0-1.6,0.2-2.1,0.8c-0.5,0.6-0.7,1.5-0.3,2.2
		c0.7,1,3.1,0,3.4-0.4C189,178.7,188.6,176.7,187.4,176.7z"/>
	<path fill="#FFFFFF" stroke="#4E9BD7" stroke-miterlimit="10" d="M192.6,174.9c-0.4-0.9-1.1-1.7-2.1-2.1c-0.5-0.3-1.1-0.4-1.7-0.2
		s-0.9,0.9-0.7,1.4c0.2,0.5,0.7,0.7,1.1,1.1c0.6,0.6,3,1.9,3.4,1.3C192.9,175.8,192.8,175.3,192.6,174.9z"/>
</g>
<g>
	<g>
		<path fill="none" stroke="#585858" stroke-miterlimit="10" d="M147.9,365.4c-0.3-0.6-0.7-1.2-1-1.7"/>
		<path fill="none" stroke="#585858" stroke-miterlimit="10" stroke-dasharray="4.0162,1.0041" d="M146.4,362.8
			c-3.7-6.4-7.7-12.6-11.9-18.7c-0.5-0.7-1.1-1.5-1.2-2.4c-0.1-0.7,0-1.5-0.1-2.2c-0.2-1.6-1.5-2.9-3.1-3.2
			c-1.1-0.2-2.2,0.1-3.3-0.3c-1.7-0.6-2.5-2.1-3-3.8c-0.5-1.7-1.6-5-3.2-4.2c-1.4,0.7-0.1,2.8-0.4,4.3c-0.3,1.5-1.7,3.1-3.1,2.5
			c-0.3-0.1-0.5-0.4-0.8-0.6c-2.2-2-5-3.9-7.9-3.3c-1,0.2-1.9,0.7-2.8,1.2c-4.1,1.8-9.2,1.4-13-1.2c-0.7-0.5-1.6-1.1-2.4-0.7
			c-0.4,0.2-0.7,0.6-1.1,0.9c-1.1,0.8-2.6,0.3-4,0.2c-1.7-0.2-3.2,1.8-4.9,1.5c-1.5-0.3,0-3.4-1.2-4.4c-1.1-1-3.3-1.9-4-3.2
			c-0.7-1.3-1.2-2.8-2.2-4c-0.8-0.9-1.9-1.5-2.9-2.3c-1.7-1.4-2.8-3.4-3.9-5.3c-1.5-2.6-3-5.3-4.2-8.1c-0.7-1.6-1.3-3.4-2.5-4.7
			s-4.2-2.8-4.8-1.1c-0.3,0.8,1.4,1.8,0.8,2.4c-1,1.1-3-2.2-4.3-1.3c-0.8,0.5,0.7,2.9-0.2,2.8c-2.2-0.2-9.7-12.4-27.9-23.5
			c-1.7-1-3.7-1.6-4.9-3.2c-2.1-2.6-2.4-6.3-4.1-9.2c-2-3.4-5.6-5.4-7.9-8.6c-0.7-1-1.3-2.1-2.3-2.8c-0.9-0.7-2.1-0.9-3.3-1.1
			c-4.4-0.8-9.3-1.5-13.1,0.4"/>
		<path fill="none" stroke="#585858" stroke-miterlimit="10" d="M-13.1,255.7c-0.6,0.3-1.1,0.7-1.6,1.2"/>
	</g>
</g>
<text transform="matrix(1 0 0 1 201.9942 158.6237)"><tspan x="0" y="0" fill="#7BBCEB" font-family="'Verdana-Italic'" font-size="8">Mattie</tspan><tspan x="0" y="9.6" fill="#7BBCEB" font-family="'Verdana-Italic'" font-size="8">Lake</tspan></text>
<text transform="matrix(1 0 0 1 110.5592 244.2927)"><tspan x="0" y="0" fill="#585858" font-family="'Verdana-Italic'" font-size="8">Wildcat</tspan><tspan x="9.3" y="9.6" fill="#585858" font-family="'Verdana-Italic'" font-size="8">Point</tspan></text>
<text transform="matrix(1 0 0 1 15.9613 319.3303)"><tspan x="0" y="0" fill="#585858" font-family="'Verdana-Italic'" font-size="8">LeConte</tspan><tspan x="7.3" y="9.6" fill="#585858" font-family="'Verdana-Italic'" font-size="8">Falls</tspan></text>
<text transform="matrix(1 0 0 1 296.1439 90.8679)" fill="#585858" font-family="'Verdana-Italic'" font-size="8">× 9934</text>
<text transform="matrix(1 0 0 1 126.3939 155.3975)" fill="#585858" font-family="'Verdana-Italic'" font-size="8">× 9469</text>
<text transform="matrix(1 0 0 1 144.0376 249.4014)" fill="#585858" font-family="'Verdana-Italic'" font-size="8">× 9455</text>
<path fill="none" d="M28.6,261.2c4.4,9.2,15.2,13.3,21.7,21"/>
<text transform="matrix(0.7431 0.6691 -0.6691 0.7431 31.3788 269.4138)"><tspan x="0" y="0" fill="#7D7D7D" font-family="'Verdana-Italic'" font-size="7">7</tspan><tspan x="4.6" y="0" fill="#7D7D7D" font-family="'Verdana-Italic'" font-size="7" rotate="-4.1">2</tspan><tspan x="9.1" y="-0.4" fill="#7D7D7D" font-family="'Verdana-Italic'" font-size="7" rotate="-4.9">0</tspan><tspan x="13.4" y="-0.8" fill="#7D7D7D" font-family="'Verdana-Italic'" font-size="7" rotate="-2.6">0</tspan></text>
<path fill="none" d="M140.9,97.7c-1.8,4.6,1.1,9.5,3.8,13.6c3.8,5.6,8.2,11.7,14.7,13.7"/>
<text transform="matrix(0.5394 0.842 -0.842 0.5394 140.4105 109.3045)"><tspan x="0" y="0" fill="#7D7D7D" font-family="'Verdana-Italic'" font-size="7">9</tspan><tspan x="4.6" y="0" fill="#7D7D7D" font-family="'Verdana-Italic'" font-size="7" rotate="-2.6">4</tspan><tspan x="9.2" y="-0.2" fill="#7D7D7D" font-family="'Verdana-Italic'" font-size="7" rotate="-6.4">0</tspan><tspan x="13.9" y="-0.7" fill="#7D7D7D" font-family="'Verdana-Italic'" font-size="7" rotate="-13.6">0</tspan></text>
<path fill="none" d="M329.3,337.5c2.3-1.3,4.7-2.7,6.5-4.7c1.7-1.9,2.7-4.2,4.3-6.1c1.7-2.1,4-3.6,5.6-5.8c1.9-2.6,2.8-5.8,4.9-8.3"
	/>
<text transform="matrix(0.599 -0.8008 0.8008 0.599 337.2816 335.1316)"><tspan x="0" y="0" fill="#7D7D7D" font-family="'Verdana-Italic'" font-size="7">9</tspan><tspan x="4.6" y="-0.2" fill="#7D7D7D" font-family="'Verdana-Italic'" font-size="7" rotate="-3">2</tspan><tspan x="8.5" y="-0.4" fill="#7D7D7D" font-family="'Verdana-Italic'" font-size="7" rotate="9.4">0</tspan><tspan x="13.1" y="0.5" fill="#7D7D7D" font-family="'Verdana-Italic'" font-size="7" rotate="4.3">0</tspan></text>
<path fill="none" d="M5.6,162.5c7.5-0.3,15.1-0.6,22.6-1c5.9-0.3,12.8-0.1,16.4,4.6"/>
<text transform="matrix(0.9991 -4.304118e-02 4.304118e-02 0.9991 19.4315 164.4129)"><tspan x="0" y="0" fill="#7D7D7D" font-family="'Verdana-Italic'" font-size="7">8</tspan><tspan x="4.5" y="0" fill="#7D7D7D" font-family="'Verdana-Italic'" font-size="7">6</tspan><tspan x="8.8" y="0" fill="#7D7D7D" font-family="'Verdana-Italic'" font-size="7" rotate="1.7">0</tspan><tspan x="13" y="0" fill="#7D7D7D" font-family="'Verdana-Italic'" font-size="7" rotate="8.3">0</tspan></text>
<path fill="none" d="M320.6,42.4c0.7,0.5,1.6,0.7,2.4,0.8c2.9,0.6,5.8,1.1,8.7,1.7c2.1,0.4,4.3,0.8,6.1,2.1c0.4,0.3,0.8,0.7,1.3,0.9
	"/>
<text transform="matrix(0.9824 0.1865 -0.1865 0.9824 320.8177 45.3699)"><tspan x="0" y="0" fill="#7D7D7D" font-family="'Verdana-Italic'" font-size="7">9</tspan><tspan x="4.5" y="0" fill="#7D7D7D" font-family="'Verdana-Italic'" font-size="7">6</tspan><tspan x="8.9" y="0" fill="#7D7D7D" font-family="'Verdana-Italic'" font-size="7" rotate="0.3">0</tspan><tspan x="12.7" y="-0.2" fill="#7D7D7D" font-family="'Verdana-Italic'" font-size="7" rotate="15.2">0</tspan></text>
<path fill="none" d="M89.9,40.4c0.5-1.3,1.5-2.3,2.2-3.5c4.1-6.4,0.4-16.3,5.9-21.5"/>
<text transform="matrix(0.3147 -0.9492 0.9492 0.3147 94.994 37.2273)"><tspan x="0" y="0" fill="#7D7D7D" font-family="'Verdana-Italic'" font-size="7">8</tspan><tspan x="5" y="-0.1" fill="#7D7D7D" font-family="'Verdana-Italic'" font-size="7" rotate="-12.2">8</tspan><tspan x="9.4" y="-1.2" fill="#7D7D7D" font-family="'Verdana-Italic'" font-size="7" rotate="-14.4">0</tspan><tspan x="13.4" y="-2.3" fill="#7D7D7D" font-family="'Verdana-Italic'" font-size="7" rotate="-6.7">0</tspan></text>
<g>
	<g>
		<polyline fill="none" stroke="#7D7D7D" stroke-miterlimit="10" points="85.2,341.6 85.2,348.7 275.4,348.7 275.4,341.7 		"/>
		<line fill="none" stroke="#7D7D7D" stroke-miterlimit="10" x1="180.5" y1="341.4" x2="180.5" y2="348.7"/>
		<line fill="none" stroke="#7D7D7D" stroke-miterlimit="10" x1="161.2" y1="349.2" x2="161.2" y2="343.7"/>
		<line fill="none" stroke="#7D7D7D" stroke-miterlimit="10" x1="142.4" y1="349.2" x2="142.4" y2="343.7"/>
		<line fill="none" stroke="#7D7D7D" stroke-miterlimit="10" x1="123.3" y1="349.2" x2="123.3" y2="343.5"/>
		<line fill="none" stroke="#7D7D7D" stroke-miterlimit="10" x1="104.6" y1="349.2" x2="104.6" y2="343.7"/>
	</g>
	<text transform="matrix(1 0 0 1 83.7835 339.1468)" fill="#7D7D7D" font-family="'Verdana'" font-size="8">0</text>
	<text transform="matrix(1 0 0 1 174.2946 339.1468)" fill="#7D7D7D" font-family="'Verdana'" font-size="8">0.5</text>
	<text transform="matrix(1 0 0 1 258.3415 339.1468)" fill="#7D7D7D" font-family="'Verdana'" font-size="8">1 mi</text>
</g>
</svg>
