<?xml version="1.0" encoding="utf-8"?>
<!-- Generator: Adobe Illustrator 17.1.0, SVG Export Plug-In . SVG Version: 6.00 Build 0)  -->
<!DOCTYPE svg PUBLIC "-//W3C//DTD SVG 1.1//EN" "http://www.w3.org/Graphics/SVG/1.1/DTD/svg11.dtd">
<svg version="1.1" id="Layer_1" xmlns="http://www.w3.org/2000/svg" xmlns:xlink="http://www.w3.org/1999/xlink" x="0px" y="0px"
	 viewBox="0 0 360 360" enable-background="new 0 0 360 360" xml:space="preserve">
<path fill="none" stroke="#E1E1E1" stroke-miterlimit="10" d="M372.6,68.1c-3.1,2.3-6.5,4.3-10,5.8c-1.6,0.7-3.5,1.3-4.9,0.3
	c-1.2-0.9-1.4-2.7-0.9-4.2c0.5-1.4,1.5-2.6,2.2-4c3.3-5.7,2.4-13.4,6.6-18.5c1.8-2.2,4.4-3.7,5.9-6.1c0.3-0.5,0.6-1,0.8-1.5"/>
<path fill="none" stroke="#E1E1E1" stroke-miterlimit="10" d="M372.6,129.6c-3.9,2.9-7.7,5.8-11.1,9.3c-1.1,1.1-2.8,2.4-4.1,1.4
	c-0.7-0.5-0.9-1.4-0.9-2.3c-0.3-5.3,3.2-10,4.6-15.1c1.1-3.9,1.1-8.2,2.7-12c0.8-2,2-3.8,2.6-5.8c0.6-2.1,0.4-4.4,0.6-6.6
	c0.3-3.4,4.1-6.6,2.9-9.8c-0.3-0.8-2-0.5-2.3-1.3c-0.5-1.6,2.1-4,0.7-4.9c-2.7-1.8-6.4,1.3-9.7,1.4c-1.2,0.1-2.5,0.1-3.5-0.5
	c-1.1-0.5-0.7-2.3-1.8-2.9c-0.8-0.5-1.9,0-2.2-0.9c-0.3-0.9,0-1.9,0.2-2.8c1.5-5,3-10,4.5-14.9c1.9-6.5,3.9-13,6.9-19
	c0.6-1.3,1.3-2.5,1.9-3.8c0.8-1.6,1.4-3.2,2.1-4.8c1.5-3.7,3-7.5,4.5-11.2"/>
<path fill="none" stroke="#E1E1E1" stroke-miterlimit="10" d="M372.7,148.4c-1.1,0.8-2.2,1.7-3,2.3c-4.8,3.3-14,9.7-16.7,4.5
	c-1.4-2.8-0.5-15.1-1.7-22.6c-0.2-1.4-0.5-2.8-0.2-4.2c0.2-1.3,0.9-2.5,1.4-3.6c3.2-6.4,5.3-13.4,6.2-20.6c0.2-1.3,0.2-2.6-0.6-3.6
	c-1.6-2,2.2-5.3-0.2-6.2c-1.1-0.4-4.8-0.1-5.7-0.8c-1.6-1.1-0.8-3.7-1.8-5.4c-0.5-0.9-1.4-1.4-2.1-2.2c-1.9-2.1-1.7-5.2-1.3-8
	c0.7-6,1.5-11.9,2.2-17.9c0.5-3.8,0.9-7.6,1.9-11.2c0.9-3.2,2.1-6.2,3.3-9.3c3.6-8.8,7.1-17.7,10.7-26.5c2.4-5.9,4.8-11.9,6.5-18.1"
	/>
<path fill="none" stroke="#E1E1E1" stroke-miterlimit="10" d="M372.1,344c-3.3,0.8-6.5,2.3-9.6,3.8c-7.2,3.5-14.8,7.4-19.1,14.1
	c-1.1,1.7-2,3.5-3.4,5c-1,1-2.2,1.8-3.4,2.6"/>
<path fill="none" stroke="#E1E1E1" stroke-miterlimit="10" d="M374.5,260.4c-3.5-0.3-9.8-0.7-10.1-0.9c-3.9-1.5-0.4-2.9-4.1-4.9
	c-1.5-0.8-3.1,2.8-4.6,2c-1.9-1,2.1-5.1,0.4-6.5c-1.6-1.4-3.8,4.2-5.7,3c-4.2-2.6,2.9-9.4,5.1-13.8c2.2-4.4,3.9-12,2-13.1
	c-2.1-1.3-3.7,4.7-6,3.7c-5.1-2.1,1.8-11.1,6.1-14.7c0.8-0.7,1.7-1.4,1.7-2.4c0.1-2.5-3.9-2-5.6-0.2c-1.7,1.8-5.1,4.7-6.1,2.5
	c-1.6-3.7,2.1-7.9,5.4-10.3c1.5-1.1,3.2-1.9,4.5-3.2c1.6-1.7,2.2-3.9,2.9-6.1c1.3-4.5,2.6-9,3.8-13.5c2.1-7.3,6.2-20.1-1.2-21.6
	c-4.3-0.9-8.4,2.7-12.7,2.6c-2,0-4.2-0.4-5.5-1.9c-1.1-1.3-1.3-3.1-1.4-4.8c0-3.5,0.8-7.1,0.4-10.6c-0.5-5.8-4-11.2-3.5-17
	c0.7-7.4,8.5-14.3,5.8-21.2c-6.1-15.2-10.5-31.3-8.3-47.5c3-22.2,15.2-42.1,20.4-63.9c0.6-2.6,0.8-5.4,1.6-7.9"/>
<path fill="none" stroke="#E1E1E1" stroke-miterlimit="10" d="M253.2,246.2c-0.4,0-0.9-0.2-1.3-0.2c-1,0-1.7,0.8-2.3,1.5
	c-3.2,4.2-9.1,12.1-4.6,14.9c0.6,0.4,1.3-1,2-0.8c2,0.6,0.4,4.2,1.5,6c0.7,1.2,2.8-0.7,4.1-0.2c1.9,0.7,1.5,3.8,3.1,5.2
	c1.5,1.3,4,1.8,5.6,0.5c0.9-0.8,1.3-1.9,2.1-2.8c1-1.1,2.6-1.6,3.6-2.7c0.6-0.6,1-1.4,1.4-2.2c3.5-6.9,6.1-14.2,7.8-21.7
	c0.4-1.8,0.8-3.8,0.2-5.6s-2.4-3.3-4.3-2.9c-1.5,0.3-2.8,1.9-4.3,1.6c-1.1-0.2-2-1.5-3.1-1.5c-1.8,0-2.1,2.4-2.9,4
	c-1.3,2.7-4.7,3.6-6.9,5.7C254.4,245.5,253.9,246.1,253.2,246.2z"/>
<path fill="none" stroke="#E1E1E1" stroke-miterlimit="10" d="M261.6,289.2c-1.4-0.2-2.3,1.5-2.7,2.9c-0.3,1.3-0.5,3,0.7,3.6
	c0.7,0.3,1.5,0.1,2-0.4s0.9-1.2,1.1-1.9c0.3-0.8,0.5-1.6,0.4-2.5C263,290.1,262.4,289.3,261.6,289.2z"/>
<path fill="none" stroke="#E1E1E1" stroke-miterlimit="10" d="M242.1,370.8c3.7-4.3,7.3-8.6,11-12.8c2.6-3.1,5.3-6.3,6-10.3
	c0.8-4.2-0.6-9.4,2.4-12.3c1.6-1.5,5.1-0.3,6-2.3c2.6-5.4,2.9-9.3,6.3-14.3c4.1-5.9,4.8-14.4,11.9-15.3c0.8-0.1,1.6-0.1,2.3-0.6
	c1.5-1,0.2-2.7-1-4c-1.3-1.4,1.4-3.6,3.1-4.4s4.8,0.5,5.6-1.2c0.9-2-1.3-4.5,0.1-6.3c0.7-0.9,1.7-1.7,1.4-2.8
	c-0.1-0.5-0.5-0.9-0.8-1.3c-0.6-1.1-0.2-2.3-0.2-3.5s-1-1.8-1.7-2.8c-0.9-1.4,1.9-3.9,0.6-4.9c-2.7-2.1-6,3-7.9,5.8
	c-1.9,2.8-3.1,6-4.8,8.9c-2.4,4.1-5.8,7.6-9.2,11.1c-2.9,3-5.8,5.9-9.3,8.1s-7.8,3.4-11.8,2.5c-1.5-0.3-2.9-0.9-4.4-0.9
	c-4.8,0.1-7.4,6.4-12.2,7.3c-0.9,0.1-1.8,0.1-2.6,0.4c-1.2,0.5-2,1.8-2.7,2.9c-2.6,4.4-6.1,7.6-10.1,10.8c-0.8,0.6-3,1-4,1
	c-1.7,0-1-3.3-2.4-3.8c-0.4-0.1-1-0.4-1.3-0.1c-2.4,1.8-2.4,5.5-4.3,7.7c-1.9,2.1-4.6,4-7.4,3.3c-0.2-0.1-0.5-0.1-0.7-0.3
	c-0.4-0.4-0.2-1,0-1.5c1.3-3.7,2.5-7.4,3.8-11.2c0.7-2,1.3-4,2.4-5.8c1.4-2.3,3-4.5,4.2-7c0.3-0.6,1.2-1.5,1.5-2.1
	c4.2-8.1,9.5-16,17.5-20.4c1.3-0.7,2.7-1.4,3.3-2.8s-0.5-2.3-1.7-3.2c-2-1.7,1.4-4.9,3.1-7c0.6-0.8,1.1-2,0.3-2.5
	c-0.3-0.2-0.7-0.2-1.1-0.4c-1-0.7,0.1-2.2-0.1-3.3c-0.3-1.5-2.7-1.5-3.7-0.4s-1.1,2.9-1.6,4.3c-1.8,5.7-8.6,8-11.9,13
	c-1.3,2-2.1,5-4.4,5.3c-1.3,0.1-2.2,1.2-2.8,2.3c-0.5,0.9-1,1.8-1.5,2.7c-0.6,1.1-1.2,2.2-1.5,3.4c-0.3,1.4-0.2,2.9-0.9,4.1
	c-0.7,1.1-2,1.6-2.9,2.5c-0.7,0.8-1.2,1.7-1.6,2.7c-3.1,6.9-6.7,13.5-10.9,19.7c-1.2,1.7-2.4,3.4-3.3,5.3c-1.2,2.4-1.9,5-2.5,7.6
	c-0.8,3.5-1.4,7-1.7,10.6c-0.2,1.8-0.3,3.6-0.8,5.2c-0.4,1.2-0.9,2.3-1.4,3.5c-1.5,3.4-2.6,7.1-3.2,10.8"/>
<path fill="none" stroke="#E1E1E1" stroke-miterlimit="10" d="M230.1-12.9c-0.5,3.1-6.7,15.7-8.6,18.3c-2.5,3.4-4.9,6.8-8,9.7
	c-1.6,1.5-5.4,7.5-8.6,12c-9.9,13.6-14.9,30.2-21.9,45.4c-0.7,1.6-1.5,3.1-2.6,4.5c-2,2.4-5,3.6-7.3,5.8c-1.9,1.8-3.3,4.3-4.3,6.7
	c-0.8,1.8-1.4,3.6-2.6,5.1c-0.9,1.2-2.1,2.1-3.1,3.2c-2,2.3-2.9,5.5-2.5,8.6c0.5,2.9,2.1,5.6,2,8.6c0,1.2-0.3,2.3-0.6,3.4
	c-1.6,6-4.3,12-7,17.6c-1.9,4-5.4,8.5-9.8,7.5c-2.7-0.6-4.5-3.1-5.1-5.8c-0.6-2.7-0.2-5.4,0.3-8.1c1.1-6.6,2.1-13.1,3.2-19.7
	c1.8-10.9,3.6-21.9,8.3-31.8c1.3-2.6,2.7-5.2,3.9-7.8c5.9-13.1,5.1-28,5.7-42.3c0.7-14.9,3.1-29.7,7.1-44.1"/>
<path fill="none" stroke="#E1E1E1" stroke-miterlimit="10" d="M247.7-12.5c-3,6.3-10.3,18.9-13.3,25.2c-1,2.2-2.1,4.3-3.3,6.4
	c-9.6,17.3-17.6,13.6-22.8,21.8c-14.5,22.5-23.3,42.7-38,64.5c-1.2,1.8-2.2,3.7-2.9,5.6c-1,2.6-1.5,5.4-2,8.2
	c-1.3,6.4-3.1,12.6-5.6,18.6c-1.6,4-3.7,8.1-7.2,10.7c-1.9,1.4-4.2,2.3-6.4,3c-3.8,1.2-7.7,1.9-11.6,2.2c-0.7,0.1-1.5,0.1-2.1-0.3
	c-0.6-0.4-0.9-1-1.2-1.7c-1.5-3.5-2.1-7.2-2.5-11c-1.1-11,0-22.3,3.4-32.9c1.4-4.3,3.1-8.4,4.5-12.6c4.7-13.3,7-27.4,9.3-41.3
	c0.6-3.5,1.1-7,1.1-10.5c-0.1-4.8,2.5-28.6,3.4-31.3c0.3-1,0.7-2,0.9-3c0.4-1.9,0.2-3.9,0.2-5.8c-0.2-5.6,0.3-11.2,1.6-16.6"/>
<path fill="none" stroke="#E1E1E1" stroke-miterlimit="10" d="M315.7-13c-0.5,2.5-1.8,11.3-1.8,13.3c0.1,6.1-3.3,11.5-6.6,16.6
	c-1.2,1.9-2.5,3.9-3.7,5.8c-0.6,1-2.1,2.9-2.7,1.8c-1.6-2.9,0.4-6.6-0.6-9.7s-2.3-6.2-2.9-9.4c-0.3-1.6,0.4-4.4-1.1-5.1
	c-0.5-0.2-1.6-0.1-1.5-0.6c0.2-2-4.9,0.5-4.7-1.5c0-0.4,0-0.6,0-1c0-1.2-0.9-2.2-1.2-3.4c-0.1-0.6-0.1-1.2-0.3-1.7
	c-0.1-0.3-0.3-0.5-0.4-0.8c-0.2-0.4-0.2-0.9-0.2-1.4c-0.1-0.5-0.3-1-0.7-1.2"/>
<path fill="none" stroke="#E1E1E1" stroke-miterlimit="10" d="M334-12c-4.3,5.9-12.6,19.9-15.1,27.7c-3.4,10.6-6,21.5-7.8,32.5
	c-4.9,29.7-4.1,60.7-15.5,88.5c-1.7,4.1-3.6,8.1-5.6,12.1c-2.9,6.1-2.2,19.2-8.8,18.2c-3.7-0.6,1.6-9.1-1.6-11.1
	c-4.2-2.6-7.3,6.4-9.6,10.7c-9,17.2-21,34.3-39,41.5c-1.5,0.6-3.1,1.2-4.3,2.4c-1,1-1.5,2.4-1.9,3.8c-4.1,11.8-8.1,23.5-12.2,35.3
	c-1.4,4.2-3.9,8.1-3.7,12.5c0.1,2.5,0.6,5.1,0.2,7.6c-0.4,2.5-2.8,7.1-4.6,5.3c-1.6-1.5,0.3-4.3,0.4-6.4c0-0.5,0.1-1.1-0.1-1.6
	c-0.2-0.6-0.8-1.1-1.3-1.5c-1.4-1.1-3-2.2-4.7-2c-0.7,0.1-1.4,0.5-2.1,0.9c-1.9,1.2-3.5,2.8-5.1,4.4c-3.9,3.9-7.7,7.9-11.5,12
	c-0.8,0.8-1.5,1.6-2,2.6c-0.6,1.2-0.8,2.5-1.2,3.8c-1,3.8-3.1,7.1-5.2,10.4c-1.1,1.8-2.3,3.6-4.1,4.7c-1.8,1.2-4.3,1.4-5.9,0.1
	c-1.1-0.9-1.6-2.3-2-3.6c-1.5-4.6-3-9.3-2.9-14.2c0-1.3,0-2.9-1.2-3.4c-1.5-0.7-2.8,1.2-4.3,1.9c-2,0.8-4.2-0.7-5.1-2.7
	c-0.3-0.6-0.7-1.3-1.3-1.2c-0.2,0-0.3,0.2-0.4,0.3c-1.9,1.5-3.7,2.9-5.6,4.4c-4.6,3.6-11.9,3.7-17.7,4c-0.8,0-1.7,0.1-2.4-0.4
	c-1.1-0.7-1.2-2.2-1.5-3.5c-0.3-1.3-1.2-2.8-2.5-2.5c-0.4,0.1-0.7,0.3-1,0.5c-3.4,2.5-6.5,5.4-9.6,8.2c-1.4,1.3-2.8,2.6-3.9,4.2
	c-1,1.5-1.7,3.1-2.6,4.7c-2.2,3.8-5.5,6.8-8.9,9.5c-4.6,3.8-9.4,7.3-14.2,10.9c-2.1,1.6-4.2,3.1-6.5,4.3c-1.6,0.8-3.3,1.5-5,2.1
	c-5.3,2-10.6,4-16.2,4.4c-0.5,0-1.1,0.1-1.6-0.2c-0.3-0.2-0.5-0.5-0.7-0.8c-1.6-2.6-1.7-5.9-1.5-9c0.2-5.5,0.7-10.9,1.5-16.3
	c1.5-10.7,7.6-19.9,14.6-28.1c1.7-2,3.4-4,5.1-6c8.1-9.5,16.9-19.5,28.9-23c3.4-1,7-1.4,10.6-1.8c2-0.2,4-0.5,6-0.7
	c3.1-0.4,6.2-0.7,9.3-1.1c4.8-0.5,9.8-1.2,13.6-4c2.3-1.7,3.9-4,5.6-6.3c3.1-4.3,9.4-10.5,8.3-12.5c-0.8-1.4-5.3,1-6.8-5.9
	c-0.2-0.8-0.2-1.8,0.1-2.6c0.2-0.4,0.4-0.8,0.4-1.2c0-0.8-1.1-1.2-1.9-1.4c-2.1-0.5-4.1-0.9-6.2-1.4c-2.2-0.5-4.5-1.9-5.7-3.9
	c-0.2-0.4-0.4-0.8-0.8-1c-0.7-0.4-1.6,0.1-2.3,0.5c-2.6,1.4-5.7,1.3-8.5,0.4c-2.8-0.9-5.3-2.4-7.8-4c-2.2-1.4-4.5-2.8-6.3-4.7
	c-0.8-0.8-1.5-1.8-2-2.8c-1.9-3.9-0.8-8.5-1.7-12.7c-0.3-1.2-0.7-2.3-0.9-3.4c-0.5-2.4,0-4.9,0.4-7.3c0.7-3.7,1.3-7.4,1.3-11.2
	c0-1.6-0.2-3.3,0-4.9c0.2-2.2,1.1-4.3,1.5-6.5c0.6-3.2,0.1-6.6,1-9.8c0.3-1.2,0.8-2.3,1.1-3.5c0.5-2.8,0.5-5.6,0.8-8.4
	c2.1-17,3.9-33.2,7-49.7c1.6-8.9,3.3-17.7,3.9-26.7c0.6-8.7,0.2-17.5-1.2-26.2c-0.3-1.8-0.6-3.6-1.4-5.2c-1.2-2.5-3.3-4.4-5-6.5
	c-1.7-2.2-1.3-5-2.1-7.6c-1.7-5.6-9.2-7.3-13.9-10.9c-2-1.6-4.1-3.3-5-5.6"/>
<path fill="none" stroke="#E1E1E1" stroke-miterlimit="10" d="M322.7-12.6c-1.9,4.7-6.2,16.2-8.1,20.8c-8.5,21-17.1,42.4-19.9,64.9
	c-1.6,12.9-1.3,26-1.5,39.1c0,2.9-0.1,5.9-1,8.7c-1.6,5.1-5.9,9.3-11.1,10.6c-3.7,1-8.2,0.8-10.6,3.8c-1.1,1.4-1.5,3.2-1.9,5
	c-4,17.5-12.3,34-24,47.6c-4.8,5.5-11.3,11-18.5,9.8c-1.2-0.2-2.4-0.6-3.6-0.2c-1.8,0.5-2.7,2.6-3.3,4.4c-2.8,8.3-5.5,16.6-8.3,24.9
	c-1.1,3.2-3.6,9.5-4.5,12.7c-1.4,5.1-4.2,9.8-8.4,12.9c-7.1,5.2-17.3,6.3-22.4,13.4c-1.4,1.9-2.3,4.1-4.1,5.5
	c-0.6,0.4-1.2,0.8-1.7,1.3c-1.4,1.5-1.1,3.9-1,5.9c0.4,4,0,8.1-1,12c-0.3,1-0.8,2.1-1.8,2.1c-0.6,0-1.1-0.5-1.4-1
	c-2.4-3.5-2.5-8-1.9-12.2c0.5-4.2,1.6-8.4,1.2-12.6c-0.3-2.8-1.3-5.6-1-8.4c0.3-2.5,4.5-4.1,3.5-6.5c-0.6-1.4-2.8-1.4-3.3-2.8
	c-0.2-0.5-0.4-1-0.4-1.6c0-1.6,1.8-2.8,3.4-2.8c1.6,0,4,3.1,4.6,1.5c1.4-3.8,2.8-6.2,7.4-7.1c2.2-0.4,1.5-4.4,3.6-5.1
	c0.7-0.2,1.4-0.3,2-0.7c0.6-0.3,0.9-0.9,1.4-1.3c10.2-10.8,16-24.9,23.7-37.9c3.8-6.4,8.4-12.3,11.3-19.2c2.2-5.1,3.8-10.5,5.5-15.8
	c4.9-16,9.9-31.9,14.8-47.9c1.3-4.1,2.6-8.3,4.8-12c1.2-2,2.6-3.8,3.7-5.8c3.2-5.9,3-13.2,6-19.3c4.3-8.6,14.7-14.2,15.5-23.8
	c0.3-3.3-0.7-6.5-1.2-9.8c-0.5-3.9,3.1-9.5-0.1-11.9c-2.8-2.1-6.5,2.3-9.8,3.5c-1.2,0.4-2.5,0.9-3.4,1.9c-1,1.3-1.1,3-1.6,4.6
	c-1.9,5.2-8.5,6.2-13.6,8.1c-4,1.5-7.6,3.9-11.2,6.3c-3.7,2.5-7.4,5-10.4,8.1c-2.4,2.5-5.1,4.5-7.9,6.5c-11,7.7-16.2,21.1-24.1,31.9
	c-4.1,5.6-8.3,11.3-11.5,17.5c-1.6,3-2.9,6.2-4.4,9.2c-1,2.1-2,4.2-3,6.2c-0.9,1.9-1.9,3.8-2.8,5.8c-2.5,5.1-5.1,10.2-8.2,15
	c-3.9,5.7-8.6,10.8-13.4,15.8c-5.3,5.7-10.7,11.3-16,17c-4.2,4.4-10.9,6.8-17,7.2c-1.6,0.1-3.4,0-4.7-1c-1.2-0.9-1.7-2.5-2.1-3.9
	c-0.4-1.4-0.8-2.7-1.2-4.1c-0.5-1.6-1-3.3-1.2-5c-0.3-2.4-0.1-4.8,0.3-7.1c1.3-9.1,4.4-18,9-26c0.7-1.1,1.3-2.3,2.2-3.3
	c0.7-0.9,1.5-1.7,2.1-2.6c2.6-4.1,0.8-9.5,1.1-14.4c0.1-1.3,0.3-2.7,0.3-4c-0.1-2.5,1.6-7.8,2.1-10.3c0.5-2.8,0.1-5.9,0.7-8.6
	c2.6-11.8,4.5-23.7,6.4-35.6c0.5-2.9,0.9-5.8,1.4-8.7c0.4-2.4,0.8-4.8,1.2-7.3c1.1-6.7,2.1-13.4,3.2-20.1c0.3-2.1,0.9-4.2,1.2-6.3
	c0.2-1.6,0.3-3.3-0.4-4.6c-0.6-1.1-1.7-1.9-2.4-3c-0.7-1-1-2.2-1.2-3.4c-0.3-1.9-0.5-3.8-0.4-5.8c0-0.9,0.1-1.8-0.3-2.5
	c-0.3-0.5-0.7-0.9-1.1-1.2c-1.8-1.6-3.2-3.5-4.3-5.5c-0.5-1.1-1-2.2-1.7-3.1c-0.6-0.8-1.5-1.5-2.1-2.3c-1.4-1.6-2-3.9-1.7-6"/>
<path fill="none" stroke="#E1E1E1" stroke-miterlimit="10" d="M278.9,123.4c-0.8,0.4-1.8,0.4-2.7,0.6c-3.6,0.6-7,2.3-9.6,4.9
	c-2,2-3.5,4.5-4.6,7.1c-3.6,8.3-3.3,17.9-6.9,26.1c-2.6,5.8-7,10.7-12.5,13.7c-0.6,0.3-1.2,0.7-1.7,1.1c-0.6,0.6-0.9,1.4-1.2,2.1
	c-0.8,1.8-1.6,3.7-2.3,5.5c-0.5,1.1-1,2.3-2,3.1c-0.7,0.5-1.7,0.8-2.5,0.6c-2.1-0.3-3.5-2.5-3.6-4.6c-0.1-2.1,0.7-4.1,1.5-6.1
	c2.6-6.4,5.3-12.8,7.9-19.3c1.6-3.8,3.1-7.6,4.3-11.5c3.2-10.6,4.3-22.8,12.5-30.2c3-2.7,6.8-4.6,9.2-7.8c2.7-3.5,3.3-8.1,5.2-12.1
	c1.2-2.6,2.9-4.9,4.5-7.3c5.8-8.8,10-18.6,14-28.4c0.7-1.6,2-4.8,3.4-3.7c3.1,2.3-2.6,13.4-4.3,20.1c-2.1,7.8-1.4,16-0.8,24
	c0.2,2.6,0.4,5.2,0.6,7.8c0.1,1.4,0.2,2.9-0.1,4.3c-0.4,1.4-1.2,2.7-2,3.8c-1.1,1.5-2.3,2.9-3.6,4.2
	C280.5,122.3,279.8,123,278.9,123.4z"/>
<path fill="none" stroke="#E1E1E1" stroke-miterlimit="10" d="M179.2-12.4c-1.6,5.5-3.2,11-4.9,16.6c-0.4,1.5-0.9,3-0.9,4.6
	c0,1.3,0.3,2.6,0.3,3.9c0.1,3.3-1.7,6.3-2.8,9.4c-3.1,9.3,0.5,19.5-0.1,29.4c-0.1,0.9-0.1,1.7-0.5,2.5c-0.3,0.7-0.9,1.4-1.3,2.1
	c-2.3,4-0.2,9.2-1.4,13.6c-0.6,2.3-2,4.4-2.1,6.8c0,1,0.3,2.2,1.2,2.6c0.4,0.2,0.9,0.2,1.3,0.2c2.1-0.2,3.9-1.3,5.6-2.6
	c4.4-3.4,7.8-8.1,9.7-13.3c0.9-2.5,1.5-5.2,2.2-7.8c0.8-3,1.9-6,3-8.9c1-2.8,2-5.7,3-8.5c3.6-10,7.2-20,12.1-29.4
	c1.3-2.6,2.8-5.1,4-7.7c2.3-4.8,3.9-9.8,5.5-14.9"/>
<path fill="none" stroke="#E1E1E1" stroke-miterlimit="10" d="M189.4-12c0,0,0,0.1-0.1,0.1c-0.7,1.7-1.4,3.4-2.1,5
	c-1.5,3.6-0.5,7.9-2.4,11.4c-0.8,1.4-3,1.8-3,3.4c0,0.8,0.5,1.5,0.8,2.3c1.1,2.8,0.2,6.1-1.2,8.8s-3.3,5.2-4.4,8
	c-1.8,5.1-0.8,10.7,0,16.1s1.2,11.3-1.8,15.8c-0.7,1.1-1.5,2-2.2,3.1c-1.2,2.2-1.4,4.8-1.6,7.2c0,0.3,0,0.6,0.1,0.8
	c0.2,0.4,0.7,0.6,1.1,0.7c1.3,0.1,2.5-0.7,3.4-1.5c2.4-2,4.5-4.4,5.6-7.3c1-2.8,1-5.9,1.6-8.8c1-4.7,3.8-8.9,5.3-13.5
	c2.5-7.6,1.5-16.1,4.9-23.3c1.3-2.8,3.3-5.4,4.1-8.4c0.6-2.4,0.5-5,1-7.4c0.4-1.9,1.3-3.6,2.2-5.3c1.4-2.7,2.8-5.5,4.2-8.2"/>
<path fill="none" stroke="#E1E1E1" stroke-miterlimit="10" d="M194.9-10.9c-2.3,5.4-4.1,11-5.3,16.8c-0.2,0.9-0.4,1.8-0.9,2.4
	c-0.6,0.7-1.5,0-2.3,0.4c-3.4,1.5-0.3,7.4-0.5,11.1c0,1-0.1,2-0.4,2.9c-0.3,1-1,1.9-1.5,2.9c-2.1,3.8-2.2,8.4-2.1,12.8
	c0,2.1-1.1,4.9,0.6,6.3c0.3,0.3,0.6-0.5,0.8-0.9c2.6-9.8,5.3-19.7,7.6-29.6c0.3-1.3,0.6-2.6,1.2-3.7c0.6-1.1,1.4-2.1,2-3.2
	c1.1-2.3,1-5.1,1.6-7.6c0.4-1.7,1.2-3.3,1.7-4.9c0.7-2.3,1-4.7,0.7-7.1"/>
<path fill="none" stroke="#E1E1E1" stroke-miterlimit="10" d="M158.7,91.5c0.5-1.1,0.8-2.3,1.6-3.2c0.3-0.3,0.7-0.6,1-1
	c1-1.3,0.8-3.2,0.2-4.6c-0.1-0.1-0.1-0.3-0.3-0.4c-0.3-0.1-0.5,0.2-0.7,0.4c-0.4,0.7-0.8,1.5-1,2.3c-0.1,0.5-0.3,1-0.4,1.5
	c-0.3,1-0.9,1.9-1.3,2.8c-0.4,1-1.1,2.3-0.3,3C157.9,92.7,158.5,91.9,158.7,91.5z"/>
<path fill="none" stroke="#E1E1E1" stroke-miterlimit="10" d="M153,102.8c0.7-1.8,1.3-3.6,2-5.4c0.3-0.7,0.5-1.8-0.2-2.2
	c-0.3-0.2-0.7-0.2-1-0.1c-1.1,0.2-2,0.9-2.9,1.6c-0.2,0.2-0.4,0.3-0.6,0.5c-0.7,0.9-0.4,2.2,0,3.2c0.4,1.1,0.3,2.6,1.2,3.4
	C151.8,104.3,152.8,103.4,153,102.8z"/>
<path fill="none" stroke="#E1E1E1" stroke-miterlimit="10" d="M150.3,137.3c-0.3,0.7-0.8,1.5-1.5,1.6c-0.8,0.1-1.5-0.8-1.5-1.6
	s0.4-1.6,0.8-2.4c2.5-4.6,4.2-9.7,5-14.9c0.1-0.8,0.2-1.7,0-2.5c-0.1-0.6-0.4-1.2-0.6-1.7c-0.2-0.6-0.3-1.3-0.4-2
	c-0.1-1.1,0.6-2.6,1.7-2.3c0.3,0.1,0.6,0.3,0.8,0.6c1.3,1.4,2,3.2,2,5.1c0,1.2-0.2,2.4-0.5,3.6C154.7,126.3,152.8,131.9,150.3,137.3
	z"/>
<path fill="none" stroke="#E1E1E1" stroke-miterlimit="10" d="M200.4,236c-0.4,0.5-0.9,0.9-1.1,1.5c-0.2,0.6-0.1,1.3,0.4,1.7
	c0.4,0.3,1.2,0.7,1.6,0.3c0.4-0.4,0.3-1,0.5-1.5s0.5-1,0.5-1.5c0-0.5-0.5-1.1-1-1.1C201,235.4,200.7,235.7,200.4,236z"/>
<path fill="none" stroke="#E1E1E1" stroke-miterlimit="10" d="M137.1,264.7c-0.8-0.6-2,0.3-2.9,0.9c-1.5,0.9-3,1.6-4.6,2.2
	c-0.5,0.2-0.9,0.3-1.4,0.6c-1.2,0.6-2,1.9-2.3,3.2c-0.3,1.3-0.1,2.7,0.2,3.9c0.3,1,0.9,2,1.9,2.1c1,0,1.8-0.6,2.7-1.1
	c1-0.6,4.2-3.6,5.2-5.1c0.7-1.1,1-2.3,1.3-3.5c0.1-0.5,0.3-1.1,0.3-1.6C137.5,265.6,137.5,265,137.1,264.7z"/>
<path fill="none" stroke="#E1E1E1" stroke-miterlimit="10" d="M73.8,302.8c0.2-0.4,0.5-0.8,0.8-1c0.3-0.2,0.6-0.2,0.9-0.3
	c1.9-0.3,3.9-0.3,5.8-0.8c3.5-0.9,6.6-3.1,8.8-6c2.2-2.9,3.7-6.3,4.6-9.7c1-3.6,1.3-7.8-1.2-10.5c-0.6-0.6-1.4-1.1-2.2-1.1
	c-0.5,0-0.9,0.2-1.4,0.3c-1.7,0.6-3.5,1.3-5.1,2.2c-3.6,2.1-6.3,5.4-9,8.6c-5,6-9.9,12-14.9,18c-0.7,0.8-1.3,1.6-1.8,2.5
	c-0.9,1.7-1.2,4.1,0.2,5.5c0.9,0.9,2.3,1.2,3.5,1.1c1.3-0.2,2.4-0.7,3.5-1.4C69.5,308.4,72,305.8,73.8,302.8z"/>
<path fill="none" stroke="#E1E1E1" stroke-miterlimit="10" d="M305,369.2c2.4-1.1,4.9-1.8,7.5-2.4c1.7-0.4,3.4-0.8,4.8-1.9
	c1.2-1,2-2.4,3.3-3.2c1.2-0.7,2.6-0.9,3.9-1.6c1.2-0.7,2.1-1.9,2.9-3c2.2-3.1,8.4-5.9,6.7-9.4c-0.8-1.6-2.1-2.6-1.5-4.3
	s1.6-3.5,0.7-5c-0.4-0.7-1.2-1.1-1.8-1.7c-1.6-1.6-1.6-4.3-1.1-6.5c1.8-8.9,7.9-16.7,16.1-20.6c0.8-0.4,1.7-0.8,2.3-1.4
	c0.5-0.5,0.8-1.1,1.2-1.6c2-2.9,8.9-6.5,6-8.6c-1.6-1.2-2.2-1.7-3.5-3.2c-1.4-1.6-4.2,0.4-6.1-0.4c-1.9-0.8-3.5-2.6-3.6-4.7
	c-0.1-1.3,0.4-2.6,0.9-3.9c1.3-4,3-8.4,1.6-12.4c-1-2.9-3.4-5.1-5.1-7.6c-0.3-0.4-0.6-0.8-1-1.1c-0.5-0.4-1.2-0.5-1.8-0.7
	c-1.9-0.6-3.6-2-4.7-3.7c-0.8-1.3-1.3-2.7-1.7-4.2c-0.9-3-3.1-6-2.6-9.1c1.2-6.6,11.2-11.2,8.4-17.2c-1.1-2.3-4,0.6-5.7-1.4
	c-3-3.6,1.2-11.8,0-13.4c-1.1-1.5-3.1-1.7-4-3.3s-2.6-1.9-4.2-2.8c-1.9-1.2,1.4-5.4-0.4-6.6c-4.2-2.8-9.5,3.4-14.3,5
	c-2.2,0.8-4.7,1.6-6.9,0.6c-3-1.3-3.9-5.2-3.8-8.4c0.2-5.9,2.1-11.7,4.1-17.3c2.6-7.5,5.1-14.9,8.5-22.1c1.5-3.1,5.1-7.2,2.9-9.9
	c-1.4-1.6-12.5,12.1-16.9,20.1c-5.1,9.4-12.3,17.5-19.2,25.8c-0.5,0.6-1.1,1.2-1.9,1.3c-0.7,0-1.2-0.4-1.8-0.7
	c-2.9-1.3-5.8,1.7-7.7,4.3c-2.7,3.9-5.5,7.8-8.2,11.7c-1.2,1.7-2.6,3.5-4.6,4c-1.3,0.3-2.8,0-4,0.8c-0.7,0.5-1.1,1.3-1.7,1.9
	c-1.4,1.6-3.6,2.3-5.3,3.6s-2.8,4-1.3,5.5c1,1,2.9,1.1,3.3,2.5c0.1,0.4,0,0.8,0,1.1c-0.9,5.9-4,11.4-8.6,15.3
	c-3.4,2.9-4.5,7.2-7.9,10.2c-1.7,1.5-4,1.5-5.5,3.2c-3.5,4.1-7.1,8.2-10.6,12.3c-1.4,1.6-2.9,3.4-3.3,5.5
	c-1.1,5.8-7.4,9.7-12.5,12.7c-0.6,0.3-1.3,0.6-1.8,0.2c-0.3-0.3-0.3-0.7-0.3-1.1c0-1.2,0.7-2.6,0-3.5c-0.7-0.9-2,0.8-2.6,1.7
	c-3.3,4.8-6.6,9.6-9.9,14.4c-1,1.4-2,2.8-3.2,4c-1.7,1.6-3.7,2.6-5.8,3.7c-1.2,0.6-2.5,1.3-3.8,1.5c-2.4,0.5-4.9-0.2-7.1-1.4
	s-4-2.9-5.8-4.5c-1-0.9-2.1-1.9-2.7-3.1c-0.9-1.7,0.6-4.6-1-5.7c-2.7-1.8-6.4-0.2-9.5,0.8c-1.2,0.4-1.9,1.8-3.1,2.2
	c-2.5,1-5.1,1.4-7.7,1.4c-0.5,0-1,0-1.5,0.1c-0.8,0.2-1.4,0.7-2.1,1.1c-3.9,1.8-8.8,1.6-12.8,3.3c-2.4,1-4.8,2.5-7.4,2.2
	c-0.5-0.1-1-0.2-1.5-0.1c-1.3,0.1-2.2,1.3-3,2.3c-3.4,4.4-7.5,8.3-11.6,12.1c-5.8,5.4-11.8,11-19.1,14.1c-3.6,1.5-7.4,2.4-11.2,3.3
	c-4.1,1-8.1,1.9-12.2,2.9c-1.9,0.4-3.8,0.9-5.7,0.7s-3.8-1.1-4.8-2.8c-0.7-1.3-0.8-3-1.5-4.4c-0.8-1.5-2.4-2.4-3.5-3.7
	c-2.8-3.1-2.8-7.8-2.6-12c0.7-14,2.5-28,4.9-41.8c0.4-2.3,0.8-4.7,1.8-6.9c1-2.2,2.6-4.2,4.2-6.1c11.2-13.6,22.5-27.2,33.7-40.8
	c0.9-1.1,1.8-2.2,3.1-2.6c1.8-0.5,3.6,0.3,5.2,1.3c0.8,0.5,1.8,1,2.5,0.5c1-0.7,0.2-2.4-0.8-3.1s-2-1.5-2.4-2.7
	c-0.5-1.4-1.9-2.8-1.8-4.2c0.1-1.5,2-1.2,3-2.3c1.7-1.9,2.7-3.8,3.3-6.2c0.2-0.8,0.1-1.6-0.1-2.3c-0.8-3.7-2.2-7.2-3.4-10.8
	c-8.1-24.7-4.6-51.4-1-77.2c0.7-4.7,1.3-9.4,2.6-14c1-3.7,2.5-7.4,2.5-11.2c0-2.3-0.6-4.6-1-6.8c-1.7-8-2.6-16.3-2.6-24.5
	c0-10.2-2-20.9-7.5-29.5c-1.2-1.9-1.1-4.1-2-6.1c-1.1-2.3-4.5-2.2-6.8-3.2c-0.8-0.4-1.8-0.8-2.6-0.5c-1.5,0.5-1.7,2.4-1.7,4
	c0,3.4-0.2,6.8-0.7,10.1c-0.2,1.8-0.6,3.5-1.3,5.2c-1.6,3.3-5,5.7-6.1,9.2c-0.4,1.3-0.5,2.7-0.6,4.1c-0.5,5-1.9,9.9-3.1,14.9
	c-0.9,4.1-1.6,8.2-2.1,12.4c-1.1,9-1.4,18.2-1.7,27.3c0,0.9-0.1,1.8-0.1,2.7c-0.1,3.7-0.2,7.5-0.3,11.2c-0.4,14.2-0.9,28.4-4.1,42.2
	c-0.5,2.3-0.8,5.5-3.1,6.3c-1.1,0.3-2.4-0.8-3.4-0.3c-2,1.2-1.5,4.6-3.2,6.1c-0.3,0.2-1,0.3-1.3,0.5c-2.3,1.1-6.9,10.6-8.1,13
	c-0.7,1.3-1.6,2.5-2.3,3.8c-0.8,1.5-1.4,3.1-2.2,4.5c-0.9,1.4-2.2,2.7-3.9,2.9c-1.6,0.3-2-2.3-3.7-2.5c-3.4-0.3-1.9,6.6-18.6,1.4
	c-2.8-0.9-4.7-3.5-7.6-4.2"/>
<path fill="none" stroke="#E1E1E1" stroke-miterlimit="10" d="M143.8,370c1-2.7,2-5.3,2.9-8c0.6-1.6,1.2-3.3,1.1-5
	c0-1.4-0.5-2.8-0.6-4.2c-0.2-2.8,1.1-5.4,2.4-7.8c0.4-0.7,0.7-1.7,0.1-2.2c-0.5-0.5-1.3-0.2-1.9,0.2c-3.8,2.3-7.5,11-10.6,7.8
	c-3.2-3.4,3.8-8.7,7.7-11.4c0.6-0.4,1.2-0.8,1.5-1.5c0.2-0.5,0.2-1,0.3-1.5c0.2-2.2,1.7-4.2,3.6-5.1c0.6-0.3,1.2-0.4,1.6-0.8
	c0.5-0.5,0.8-1.1,1-1.8c1-2.9,5.1-6.3,3.1-8.6c-1.2-1.4-3.7,0.8-5.5,1.2c-0.4,0.1-0.7,0.2-1.1,0.1c-0.9-0.3-1.1-1.4-1.9-2
	c-0.8-0.5-1.9-0.2-2.8,0.2c-2.3,1-4.6,1.8-6.9,2.5c-0.7,0.2-1.5,0.4-2.1,0c-0.5-0.3-0.7-0.8-1.1-1.1c-0.9-0.8-2.2-0.9-3.4-0.6
	c-1.2,0.3-2.3,0.8-3.5,1c-2,0.3-4.2-0.6-6.1-0.1c-0.6,0.2-1.1,0.4-1.6,0.7c-4.3,2.3-8.6,4.6-12.9,6.9c-2,1-4,2.1-6.2,2.1
	c-0.6,0-1.3-0.1-1.9,0.2c-0.9,0.4-1.3,1.3-1.8,2.1c-1.8,2.8-4.9,4.2-7.9,5.7s-6,3.4-7.1,6.5c-0.3,0.8-0.4,1.6-0.8,2.3
	c-0.9,1.8-3.2,2.6-5.2,2.8c-2.1,0.2-4.2-0.1-6.1,0.5c-11.6,3.3-25.2,6.6-35.5,0.3c-2.7-1.7-5.4-4.7-7-8.1c-0.6-1.1-3.2-10.8-3.9-13
	c-1.1-3.4-1.3-7.1-1.5-10.7c-0.6-10.4-1.2-20.9-1.8-31.3c-0.2-4.3-0.3-19.2,0.2-22.4c0.4-2.7,0.3-5.5,0.6-8.2
	c1-8.7,6.1-16.5,12.1-22.9s13.1-11.8,19.3-18c0.3-0.3,0.6-0.9,0.2-1.1c-1.6-0.6-3.4-1.1-4.5-2.4s-1.3-3.5-0.2-4.8
	c0.3-0.3,0.6-0.7,0.8-1.1c0.3-1.2-1.2-1.9-2.3-2.2c-1.7-0.4-3.5-0.8-5.2-0.7c-1.1,0.1-2.2,0.3-3.2,0.6c-3.1,0.8-6.1,1.6-9.1,2.4
	c-0.5,0.2-1.1,0.3-1.5,0.7c-0.6,0.6-0.7,1.5-1,2.2c-1.4,3.2-6.1,2.8-8.9,4.8c-2,1.4-2.9,4.1-5.1,5.2c-1,0.5-2.2,0.6-3.3,1.1
	c-2,0.9-3.2,3-4.7,4.5c-2.6,2.5-6.3,3.3-9.8,3.6c-2.2,0.1-4.9-0.3-5.8-2.3"/>
<path fill="none" stroke="#E1E1E1" stroke-miterlimit="10" d="M-10.2,269c2.1,0.1,4.3-0.8,5.7-2.5c0.5-0.6,1.2-1.4,2-1.2
	c0.4,0.1,0.6,0.5,0.9,0.8c4,6.3,4.5,14.2,5.4,21.7c0.5,4.3,1.2,8.7,1.9,13c1.2,7.6,2.4,15.1,3.6,22.7c0.5,3.3,1.1,6.7,2,9.9
	c0.5,1.8,1.2,3.6,1.8,5.4c2,6,3.1,12.4,3.1,18.7c0,0.5,0,1,0.2,1.4c0.3,0.6,0.9,0.9,1.3,1.3c3,2.5,1.7,7.9,4.5,10.5"/>
<path fill="none" stroke="#E1E1E1" stroke-miterlimit="10" d="M68,369.3c2.2,0.7,4.6-0.1,6.5-1.4s3.4-3,5.2-4.5
	c3.7-3.1,8.2-5,12.6-6.8c8-3.4,18.8-10.3,25.1-4.4c1.9,1.8-3.5,3.9-2.9,6.4c0.2,0.8,1.2,1.1,0.8,1.8s-1.2,1-1.9,1.4
	c-3.2,1.9-4.2,6.1-3.9,9.8"/>
<path fill="none" stroke="#E1E1E1" stroke-miterlimit="10" d="M134.3,352c-0.7-0.8-2.1,0.1-3,0.7c-1.6,1.1-4.7,2.2-4.1,4
	c0.4,1.2,2.5-0.1,3.6-0.8c0.6-0.4,1.3-0.8,1.9-1.2c0.5-0.3,1-0.6,1.3-1.1C134.4,353.2,134.7,352.4,134.3,352z"/>
<path fill="none" stroke="#E1E1E1" stroke-miterlimit="10" d="M135.2,354.9c0.1,0.4,0.5,0.7,0.9,0.7c0.4,0,0.8-0.2,1.1-0.4
	c0.4-0.3,0.7-1.1,0.2-1.3c-0.1-0.1-0.2-0.1-0.3-0.1c-0.4-0.1-0.9-0.1-1.3,0.1C135.5,354.1,135.1,354.5,135.2,354.9z"/>
<path fill="none" stroke="#E1E1E1" stroke-miterlimit="10" d="M116.8,164.3c-2.5,0.4-4.7,2.2-5.7,4.5c-0.4,0.8-0.6,1.7-1.1,2.5
	c-0.3,0.5-0.7,0.8-1.1,1.2c-1.5,1.5-2.6,3.4-2.8,5.5c-0.1,1.2,0.1,2.4,0.4,3.6c0.3,1.1,0.8,2.3,1.7,3c1.6,1.3,4.1,0.8,5.7-0.6
	c1.5-1.4,2.3-3.4,3-5.4c1.3-3.6,2.5-7.2,2.7-11c0.1-1.3-0.2-2.9-1.5-3.3C117.6,164.2,117.2,164.2,116.8,164.3z"/>
<path fill="none" stroke="#E1E1E1" stroke-miterlimit="10" d="M34-13.2c1.4,17,1.4,34.1,0,51c-0.4,5.2-1,10.4-1.5,15.6
	c-0.4,4-0.9,8-1.3,11.9c-0.4,3.9-0.8,7.8-1.4,11.7c-0.6,3.8-1.3,7.7-2.1,11.5c-3.5,18.9-6,37.9-7.5,57c-0.4,4.7-2.2,9.6-3.9,14
	c-1,2.8-2.7,5.8-5.5,6.4c-0.6,0.1-1.2,0.1-1.7,0.4c-0.6,0.3-1,0.8-1.4,1.4c-0.6,0.8-1.2,1.6-1.7,2.4c-0.2,0.2-0.3,0.5-0.3,0.7
	c0,0.3,0.3,0.5,0.5,0.6c1.3,1.2,1,3.5-0.2,4.8c-1.2,1.3-2.9,2-4.6,2.6c-1.6,0.6-3.4,1.4-4.4,2.8c-0.5,0.8-0.8,1.7-1.3,2.5
	c-1.2,2.1-3.7,3.4-6.2,3.2"/>
<path fill="none" stroke="#E1E1E1" stroke-miterlimit="10" d="M-3.2,163.1c0.7,0.5,1.6,0.3,2.2-0.2s1-1.3,1.2-2.1
	c1.1-3.2,1.2-6.6,1.2-10c0.1-3.3,0.1-6.7,0.2-10c0-0.8,0-1.5-0.2-2.2s-0.9-1.3-1.6-1.4c-0.9-0.1-1.6,0.7-2.2,1.4
	c-0.9,1-1.8,2-2.3,3.3c-0.8,1.8-0.8,3.8-0.7,5.8c0,2.3,0.1,4.6,0.1,6.8c0.1,2.7,0.1,5.5,1.5,7.8C-3.7,162.6-3.5,162.9-3.2,163.1z"/>
<path fill="none" stroke="#E1E1E1" stroke-miterlimit="10" d="M-4.9-12.5c9,7.7,15.5,18.3,18.3,29.8c1.3,5.1,1.8,10.4,2.7,15.6
	c1,5.4,2.4,10.7,3.2,16.2c1.4,9.6,1,19.4-0.2,29c-0.7,5.3-1.5,10.5-3,15.7c-2.1,7.4-5.4,14.5-8.7,21.5c-1.8,3.8-3.6,7.6-5.3,11.4
	c-0.8,1.7-2.2,3.7-4,3.2c-1-0.3-1.6-1.2-2.1-2.1c-3.7-7.6-1.9-16.6-1.5-25c0.3-7.3-0.4-14.5-1.2-21.8c-0.3-3-0.6-6-0.9-9
	c-0.1-1.2-0.5-2.7-1.7-2.9"/>
<path fill="none" stroke="#D6D6D6" stroke-miterlimit="10" d="M372.9,288.9c-0.9,0.5-1.8,1-2.7,1.4c-4.1,2.1-8.2,4.3-12.3,6.4
	c-3.8,2-7.6,4-11.8,5.2c-3.6,1-7.3,1.4-11,1.7c-4.2,0.3-8.8,0.4-12.3-2c-2.9-2-6.3-6.5-8.3-5.4c-2.6,1.5-0.3,6.3-2.9,7.9
	c-2.2,1.4-3-4.4-5.4-5.2c-2.1-0.7-2.8,0.9-5.7-1.2c-0.8-0.6-1.5-1.4-2.3-2c-1.6-1-3.4-1.7-4.4-3.2c-0.3-0.4-0.5-0.9-0.9-1.2
	c-0.3-0.2-0.6-0.3-1-0.4c-2.5-0.8-5.4-1.3-8-1.4"/>
<path fill="none" stroke="#D6D6D6" stroke-miterlimit="10" d="M279.4,297.9c2.1,0.4,3.5,1.3,5,2.7c1.6,1.6,4.8,1.2,7.1,2
	c3.5,1.3,6,4.3,7.9,7.4c0.5,0.8,1,1.6,1.6,2.3c0.8,0.8,1.8,1.4,2.8,2c2.4,1.4,4.8,2.9,6.3,5.2c1.9,3,1.7,6.9,0.7,10.3
	s-2.6,6.6-3.5,10c-1.4,5.2-1.2,11-4.5,15.2c-1.2,1.5-2.7,2.7-3.7,4.3c-1.3,2-1.6,4.4-2,6.7c-0.2,1.3-0.4,2.6-0.6,3.9"/>
<path fill="none" stroke="#D6D6D6" stroke-miterlimit="10" d="M311,329.8c3.1,3.1,5.6,6.8,7.1,10.9c0.6,1.5,1.1,3.2,2.5,4
	c1,0.6,2.1,0.6,3.2,1c2.2,0.8,3.8,3,6.1,3.2c0.9,0.1,1.8-0.2,2.7-0.2c1.3,0,2.5,0.5,3.7,0.4c2.6-0.2,4.3-2.6,5.5-4.9
	c1.2-2.3,2.4-4.9,4.9-5.7c2.8-1,6,0.7,8.9,0.1c4.2-0.9,5.9-6,9.3-8.4c1.4-1,3.2-1.6,4.9-2c0.6-0.1,1.2-0.3,1.8-0.5"/>
<path fill="none" stroke="#D6D6D6" stroke-miterlimit="10" d="M267.2-13c0.9,3.7,4.3,6.4,7.6,8.5c3.1,1.9,4.6,3.8,4.2,5.6
	c-0.4,1.9,1.7,3.6,2,5.5c0.7,4-1.6,8-4.7,10.6c-1,0.8-2.1,1.5-2.5,2.7c-0.3,0.7-0.3,1.6-0.5,2.3c-0.3,1-1.1,1.7-1.8,2.5
	c-2.5,2.7-4.5,5.8-6.3,9c-2.6,4.6-4.9,9.4-6.8,14.3c-0.5,1.2-1,2.5-2.2,3.2c-0.5,0.3-1,0.4-1.4,0.7c-1.5,1.1-1.2,3.6-2.7,4.7
	c-1.4,1-3.6,0.2-4.9,1.4c-1.7,1.5,0,4.9-1.7,6.5c-0.9,0.9-2.3,0.8-3.5,1c-3.1,0.4-5.7,2.5-8.1,4.6c-4.2,3.6-8.5,7.2-12.7,10.8
	c-1.4,1.2-2.8,2.4-4,3.9c-2.1,2.6-1.8,6.6-4,9.1c-0.8,0.9-1.5,1.9-1.4,3c0.2,1.2,0.6,2.4,0.2,3.5c-0.4,1.2-1.6,2-2.2,3.2
	c-1.6,2.9,0.6,7.3-2,9.3c-1.6,1.3-4.2,0.6-5.7,1.9c-1.2,1-1.5,2.7-1.7,4.3c-0.5,3.7-1.5,7.3-2.9,10.7c-0.6,1.5-1.4,3-1.9,4.6
	c-0.7,2.3-0.9,4.7-1.7,6.9c-0.8,2.2-2.4,4.4-4.8,4.8c-0.5,0.1-0.9,0.1-1.4,0.3c-1,0.5-1.2,1.8-1.5,3c-0.3,1.1-1,2.4-2.2,2.2
	c-0.4-0.1-0.8-0.4-1.2-0.3c-0.3,0-0.5,0.2-0.8,0.4c-3.6,2.9-5.2,8.1-3.7,12.5"/>
<path fill="none" stroke="#D6D6D6" stroke-miterlimit="10" d="M346.8-11.2c-0.8,0.8-1.6,1.7-2.4,2.5c-0.3,0.3-0.6,0.6-0.8,1
	c-0.4,0.7-0.3,1.6-0.6,2.3c-0.2,0.8-0.9,0.8-1.5,1.4c-1.7,1.7-1.2,4.5-1.3,6.9c-0.1,1.6,0.7,3.1,0.9,4.7c0.3,2.5-0.8,5.1-2.5,7
	c-1.7,1.9-4.5,2.6-6,4.6c-0.9,1.2,2.4,1.4,3.1,2.7c0.6,1-0.4,2.1-1.3,2.7c-1,0.6-2.1,1.1-2.4,2.1c-0.3,0.8,0.2,1.7,0.3,2.6
	c0.4,1.6-0.1,3.3-0.5,5c-1.3,4.5-3,8.8-5.1,13c-0.3,0.6-0.6,1.1-0.6,1.8c0,1.2,1.2,2.2,1.1,3.4c0,0.7-0.5,1.3-0.9,1.8
	c-1.8,2.5-3.3,5.3-4.2,8.3c-1.9,6-1.9,12.4-1.9,18.7c0,5.6,0.1,11.2,0.7,16.7c0.2,2,0.5,4,0,5.9c-0.4,1.4-1.3,2.7-1.6,4.1
	c-0.6,2.9,1.4,5.5,3,8c1.6,2.4,1.9,5.2,1.4,8.1c-0.3,2.1,0.2,4.3-0.1,6.4c-0.9,4.9-4.7,8.5-7.1,12.9c-4,7.3-7.9,14.8-12.3,21.8
	c-4,6.4-6.2,13.7-9.2,20.7c-2,4.7-4.1,9.4-6.1,14.2c-0.9,2.1-1.8,4.1-2.7,6.2c-0.7,1.6-1.4,3.3-2.5,4.7c-2.6,3.2-7.1,4.3-11.2,3.8
	c-0.9-0.1-1.8-0.3-2.7-0.1c-1.4,0.3-2.4,1.3-3.3,2.4c-2,2.6-3.1,5.7-4.8,8.5c-1.6,2.8-4,5.5-7.1,6.3c-1.6,0.4-3.4,0.2-4.9,0.9
	c-1.5,0.7-2.3,2.3-3.4,3.6c-9.5,11.8-12.5,26.6-16.6,40.2c-0.6,2.1-2.7,3.6-3.8,5.5c-2.2,3.8-5.8,6.6-8.3,10.2
	c-1.8,2.6-2.5,6.6-5.5,7.7c-0.5,0.2-1,0.6-1.2,1.1c-3.1,5.7-6.2,11.3-9.3,17c-3.8,6.9-7.6,13.8-10.3,21.2c-0.8,2.1-1.4,4.1-1.9,6.3
	c-0.7,3.2-1.1,6.5-1.1,9.8c0,0.9,0.1,2,0.8,2.6c0.8,0.7,2.1,0.4,2.9-0.2c0.8-0.6,1.3-1.6,1.9-2.4c0.9-1.3,2.1-2.5,3.5-3.4
	c1.3-0.9,2.9-1.5,4.4-1.1c1.3,0.4,2.3,1.5,3.3,2.4c2.4,2.2,5.8,3.5,7.3,6.4c1.8,3.3,0.5,7.4-0.8,11"/>
<path fill="none" stroke="#D6D6D6" stroke-miterlimit="10" d="M372.7,205c-0.9-0.1-1.8-0.3-2.7-0.3c-1.4,0.1-2.7,0.8-4,1.6
	c-5.9,3.8-11.4,8.3-16.1,13.5c-2.4,2.6-4.7,5.5-8.1,6.6c-1.3,0.5-2.8,0.6-4.1,1.2c-2,0.9-3.4,2.8-4.8,4.5
	c-3.4,4.3-7.4,8.3-11.9,11.4c-2.3,1.5-4.7,2.9-6.9,4.5c-4.6,3.3-8.1,7.8-11.6,12.4c-7.8,10.3-14.7,21.2-20.7,33
	c-1.7,3.3-3.9,6.2-6.1,9.2c-2.2,2.9-4.2,6.3-7.4,7.8c-7.8,3.8-11.7,9.3-15.7,16.4c-0.6,1-3.5,1.9-4.7,2.2c-1.5,0.4-3.1-0.1-4.7-0.2
	c-2.5-0.2-5,0.8-6.8,2.5c-0.3,0.3-3.4,3.3-3.9,4.9s-0.6,3.4-1.5,4.8c-0.7,1-1.7,1.7-2.6,2.6c-0.9,0.9-1.6,2-1.5,3.2
	c0.1,0.6,0.4,1.2,0.4,1.8c0,0.6-0.3,1.1-0.6,1.6c-1,1.3-2.3,0.3-3.7,1.2c-1.6,1.1,0,4.1-3.6,4.8c-0.6,0.1-1.2,0-1.7,0.1
	c-0.6,0.1-1.1,0.5-1.5,0.9c-1.9,1.6-1.8,1.2-3.1,3.3"/>
<path fill="none" stroke="#D6D6D6" stroke-miterlimit="10" d="M156.2,276.2c-4.5,13.7-7.7,27.8-9.7,42c-0.4,2.9-0.8,5.8-2.4,8.3
	c-1.8,2.7-4.8,4.3-7.4,6.2c-7.7,5.5-12.8,13.9-20.1,19.8c-1.4,1.1-2.8,2.2-4.5,2.8c-1.2,0.4-2.5,0.7-3.6,1.3c-2.7,1.5-3.5,5-5.8,7
	c-2.5,2.3-6.4,2.5-9,4.7c-0.5,0.4-0.9,0.9-1.1,1.5"/>
<path fill="none" stroke="#D6D6D6" stroke-miterlimit="10" d="M113.6-10.5c-3.1,1.8-5.8,4.3-7.8,7.3c-1.6,2.5-2.8,5.3-4.9,7.5
	c-2.1,2.2-5.4,3.5-8,2.1c-1-0.5-1.8-1.4-2.8-2c-1.3-0.7-3-0.7-4.4,0c-2.5,1.3-3.3,4.6-3.5,7.4c-0.2,2.8-0.1,5.9-1.8,8.2
	c-2.7,3.6-8.6,3.4-11.4,6.9c-0.2,0.3-0.5,0.6-0.6,1"/>
<path fill="none" stroke="#D6D6D6" stroke-miterlimit="10" d="M62.7-12.2C63.4-7.6,62.3,1,62,5.7c-0.4,5.3,1.8,6.9,3.3,12.1
	c0.5,1.7,0,4,0.5,5.7c0.6,1.8,0.8,2.8,2.3,4.1c0.9,0.8,2.3,1.6,3.4,2.1c1.8,0.9,1.2,2.4-0.3,3.2c-0.7,0.4-1.6,0.7-2,1.3
	c-0.4,0.6,0.8,3.5,0.9,4.2c1,5.1,0,8.4-0.8,13.5c-0.2,1,0,2.7-0.5,3.6c-0.6,1-1.8,1-2.6,1.8c-2.5,2.5-3,4-3.4,6
	c-0.2,0.8-2.3,3-1.8,5.6c0.2,1.1,0.6,2.1,1,3.1c0.8,1.7,1.5,3.5,2.3,5.2c0.5,1,1.5,2,0.7,3.3c-1,1.8-4.7,1.6-4.8,3.6
	c0,0.6,1.3,1.8,1.5,2.4c1.1,2.2,0.9,3.8-0.2,6c-0.5,1-1.9,2.3-1.8,3.4c0,0.8,1.3,1.4,1.5,2.2c1.1,3.2-2.4,6.7-1.5,9.9
	c0.4,1.5,1.6,2.8,2.6,4c5.8,7.2,6.9,16.9,7.8,26c0.9,9-3.6,17.6-4.3,26.6c-0.4,4.7-2.2,9.2-5.2,12.8c-2.2,2.6-1.9,6.6-3.5,9.6
	c-1,1.9-1.1,2.8-1.2,5c-0.1,2.4-2.7,5.3-3.6,7.5c-1.1,2.7-2.3,5.5-4.3,7.7c-2.5,2.7-6.6,3.2-9.3,5.5c-0.2,0.2-1.2,1.7-1.2,1.9"/>
<path fill="none" stroke="#4E9BD7" stroke-miterlimit="10" d="M175.3,192.5c-0.2,1.6-1.7,2.8-3.3,3.3s-3.2,0.7-4.7,1.5
	c-3.8,2-4.5,7-7.1,10.4c-1.5,2-3.6,3.4-5.4,5c-1.9,1.7-3.5,3.7-5.4,5.3c-1.7,1.5-3.7,2.6-5.7,3.7c-3,1.8-6,3.5-9.3,4.8
	c-4.6,1.8-9.7,2.6-14.7,2.2c-1.3-0.1-2.5-0.3-3.8-0.1c-2.3,0.2-4.6,1.4-6.7,0.5c-0.7-0.3-1.3-0.9-2-1.2c-2.3-1.3-5.2-0.5-7.8,0.1
	c-2.6,0.6-7.6-1.4-7.7-1.5c-3.4-2.2-8.8-4.5-12.8-7c-3.3-2.1-6.7-4.3-10.5-5.4c-3.7-1.1-7.6-1.1-11.3-0.1c-4.3,1.2-8.6,3.7-12.9,2.4
	c-1.6-0.5-3-1.4-4.6-1.7c-3.9-0.6-7.1,2.9-9.5,6c-4.3,5.3-8.9,10.3-14,14.8c-5.7,5.2-12.1,10-15.4,17c-3.7,7.8-2.8,16.9-5.1,25.3
	c-1,3.6-2.6,7.1-2.8,10.8c-0.2,4.1,1.3,8.2,1.6,12.3c0.3,4.7-1.1,9.6-4,13.3"/>
<path fill="#EAEAEA" stroke="#D6D6D6" stroke-miterlimit="10" d="M185.8,140.5c-0.1,0.5-0.2,1.1,0,1.6s0.6,1,1.1,1.1
	c0.6,0.1,1.2-0.5,1.6-1c0.2-0.2,0.3-0.4,0.3-0.7c0-0.3-0.2-0.6-0.3-0.8c0-0.4,0.4-0.8,0.6-1.2c0.3-0.5,0.3-1.3-0.2-1.8
	c-0.6-0.6-1.7-0.2-2.2,0.4S185.9,139.7,185.8,140.5z"/>
<path fill="#EAEAEA" stroke="#D6D6D6" stroke-miterlimit="10" d="M192,154.1c-0.9,0-1.5,0.8-1.8,1.6c-0.3,0.8-0.2,1.7-0.1,2.6
	c0,0.4,0.1,0.9,0.5,1.1c0.2,0.1,0.4,0.1,0.6,0.1c1.8-0.1,4.3-0.4,4.8-2.2c0.2-0.7-1.1-0.9-1.8-0.7s-1.6,1.2-2.1,0.7
	c-0.5-0.6,0.3-1.7,0.4-2.5c0-0.2,0.1-0.3,0-0.5C192.4,154.1,192.2,154.1,192,154.1z"/>
<path fill="#7BBCEB" stroke="#4E9BD7" stroke-miterlimit="10" d="M182.8,164.5c1.6,1.2,4.2,0.9,5.3,2.6c0.3,0.5,0.5,1.1,0.8,1.6
	c0.2,0.4,0.6,0.7,0.9,1c0.8,0.7,1.6,1.4,2.4,2.1c0.8,0.7,1.7,1.5,2.7,2c0.4,0.2,0.8,0.4,1.2,0.6c1.3,1,1.3,3.1,0.7,4.7
	c-0.9,2.8-2.7,5.2-5,7.1s-4.8,3.3-7.6,4.5c-2.7,1.1-5.6,2-8.5,2c-2.9,0-6-1-8-3.1c-1.3-1.3-2.2-3.1-2.4-5c-0.1-0.6-0.1-1.3,0-1.9
	c0.1-0.6,0.4-1.1,0.7-1.6c2.2-4.5,3.7-9.4,6.2-13.8c0.4-0.6,0.8-1.2,1.4-1.6c0.4-0.2,0.9-0.3,1.3-0.4c2.2-0.4,4.3-0.8,6.5-1.2
	c0.2,0,0.3-0.1,0.5,0C182.4,164.1,182.6,164.3,182.8,164.5z"/>
<path fill="#EAEAEA" stroke="#D6D6D6" stroke-miterlimit="10" d="M74.9,99.1c0.5-1.5,1.5-2.9,1.9-4.4c0.5-2,0-4.2,1-6
	c0.5-0.8,1.2-1.4,1.5-2.3c0.1-0.4,0.2-0.9,0.1-1.3c-0.1-1.2-0.5-2.4-1.3-3.3c-0.6-0.8-1.5-1.4-1.9-2.3c-0.8-1.6,0-3.7-1-5.2
	c-0.3-0.5-0.9-0.9-1.4-1.2c-0.2-0.1-0.3-0.2-0.5-0.2c-0.2,0-0.3,0.1-0.4,0.2c-1.4,1.1-2.1,2.8-3.6,3.9c-0.4,0.3-1,0.6-1.2,1.1
	c-0.2,0.4-0.3,0.9-0.3,1.4c0,1.3,0,2.7,0.1,4c0,0.4,0.1,0.8,0,1.1c-0.1,0.4-0.3,0.8-0.5,1.1c-0.9,1.5-1.7,3.1-1.5,4.8
	c0.1,0.8,0.3,1.5,0.5,2.2c0.7,2.4,1.5,4.8,3.1,6.7c0.3,0.4,0.6,0.7,0.9,1.2c0.6,1.1,0.4,2.5,1.1,3.6c0.1,0.2,0.3,0.4,0.5,0.5
	c0.6,0.3,1.2-0.2,1.5-0.7C74.5,102.6,74.4,100.7,74.9,99.1z"/>
<path fill="none" d="M357.4,201.6c1.6-1.7,2.2-3.9,2.9-6.1c1.3-4.5,2.6-9,3.8-13.5c2.1-7.3,6.2-20.1-1.2-21.6"/>
<text transform="matrix(0.2725 -0.9622 0.9622 0.2725 363.3767 193.9531)"><tspan x="0" y="0" fill="#7D7D7D" font-family="'Verdana-Italic'" font-size="7">9</tspan><tspan x="4.5" y="0" fill="#7D7D7D" font-family="'Verdana-Italic'" font-size="7">6</tspan><tspan x="8.9" y="0" fill="#7D7D7D" font-family="'Verdana-Italic'" font-size="7">0</tspan><tspan x="13.4" y="0" fill="#7D7D7D" font-family="'Verdana-Italic'" font-size="7" rotate="-0.3">0</tspan></text>
<path fill="none" d="M267.6,333.1c2.6-5.4,2.9-9.3,6.3-14.3c4.1-5.9,4.8-14.4,11.9-15.3"/>
<text transform="matrix(0.4826 -0.8758 0.8758 0.4826 273.6814 324.1187)"><tspan x="0" y="0" fill="#7D7D7D" font-family="'Verdana-Italic'" font-size="7">9</tspan><tspan x="4.4" y="0.2" fill="#7D7D7D" font-family="'Verdana-Italic'" font-size="7" rotate="0.5">2</tspan><tspan x="9.1" y="0.2" fill="#7D7D7D" font-family="'Verdana-Italic'" font-size="7" rotate="-4.8">0</tspan><tspan x="13.4" y="-0.3" fill="#7D7D7D" font-family="'Verdana-Italic'" font-size="7" rotate="-0.7">0</tspan></text>
<path fill="none" d="M294.8,73.1c2.8-22.5,11.4-43.9,19.9-64.9"/>
<text transform="matrix(0.218 -0.9759 0.9759 0.218 299.1628 62.2803)"><tspan x="0" y="0" fill="#7D7D7D" font-family="'Verdana-Italic'" font-size="7">9</tspan><tspan x="4.4" y="0" fill="#7D7D7D" font-family="'Verdana-Italic'" font-size="7" rotate="1.5">8</tspan><tspan x="8.8" y="0.1" fill="#7D7D7D" font-family="'Verdana-Italic'" font-size="7" rotate="2.8">0</tspan><tspan x="13.1" y="0.3" fill="#7D7D7D" font-family="'Verdana-Italic'" font-size="7" rotate="4.1">0</tspan></text>
<text transform="matrix(0.46 -0.8879 0.8879 0.46 280.6137 210.4378)" fill="#585858" font-family="'Verdana-Italic'" font-size="8">Echo</text>
<text transform="matrix(0.2848 -0.9586 0.9586 0.2848 318.9446 65.9865)" fill="#585858" font-family="'Verdana-Italic'" font-size="8">Creek</text>
<text transform="matrix(1 0 0 1 84.0803 82.9263)"><tspan x="0" y="0" fill="#585858" font-family="'Verdana-Italic'" font-size="8">Echo</tspan><tspan x="0" y="9.6" fill="#585858" font-family="'Verdana-Italic'" font-size="8">Lake</tspan></text>
<text transform="matrix(0.4391 -0.8985 0.8985 0.4391 153.3134 93.2663)" fill="#585858" font-family="'Verdana-Italic'" font-size="8">Matthes</text>
<text transform="matrix(0.2337 -0.9723 0.9723 0.2337 177.3328 39.2829)" fill="#585858" font-family="'Verdana-Italic'" font-size="8">Crest</text>
<text transform="matrix(1 0 0 1 198.0862 162.6353)"><tspan x="0" y="0" fill="#7BBCEB" font-family="'Verdana-Italic'" font-size="8">Matthes</tspan><tspan x="0" y="9.6" fill="#7BBCEB" font-family="'Verdana-Italic'" font-size="8">Lake</tspan></text>
<text transform="matrix(1 0 0 1 86.3098 289.0308)" fill="#585858" font-family="'Verdana-Italic'" font-size="8">× 9874</text>
<path fill="none" d="M182.9,72.5c7.1-15.3,12-31.9,21.9-45.4c3.3-4.5,7-10.5,8.6-12"/>
<text transform="matrix(0.4041 -0.9147 0.9147 0.4041 194.9563 50.6186)"><tspan x="0" y="0" fill="#7D7D7D" font-family="'Verdana-Italic'" font-size="7">1</tspan><tspan x="4.4" y="0" fill="#7D7D7D" font-family="'Verdana-Italic'" font-size="7" rotate="1.4">0</tspan><tspan x="8.7" y="0.1" fill="#7D7D7D" font-family="'Verdana-Italic'" font-size="7" rotate="3.2">2</tspan><tspan x="13.1" y="0.3" fill="#7D7D7D" font-family="'Verdana-Italic'" font-size="7" rotate="5.5">0</tspan><tspan x="17.4" y="0.7" fill="#7D7D7D" font-family="'Verdana-Italic'" font-size="7" rotate="8.2">0</tspan></text>
<path fill="none" d="M127.8,186.3c5.3-5.7,10.7-11.3,16-17c4.7-5,9.5-10.1,13.4-15.8"/>
<text transform="matrix(0.6865 -0.7271 0.7271 0.6865 134.3435 183.0454)"><tspan x="0" y="0" fill="#7D7D7D" font-family="'Verdana-Italic'" font-size="7">9</tspan><tspan x="4.4" y="0" fill="#7D7D7D" font-family="'Verdana-Italic'" font-size="7" rotate="0">8</tspan><tspan x="8.9" y="0" fill="#7D7D7D" font-family="'Verdana-Italic'" font-size="7">0</tspan><tspan x="13.3" y="0" fill="#7D7D7D" font-family="'Verdana-Italic'" font-size="7">0</tspan></text>
<path fill="none" d="M32.5,53.4c0.6-5.2,1.1-10.4,1.5-15.6c1.4-17,1.4-34.1,0-51"/>
<text transform="matrix(0.1039 -0.9946 0.9946 0.1039 35.3684 50.4946)"><tspan x="0" y="0" fill="#7D7D7D" font-family="'Verdana-Italic'" font-size="7">9</tspan><tspan x="4.5" y="0" fill="#7D7D7D" font-family="'Verdana-Italic'" font-size="7" rotate="-0.4">6</tspan><tspan x="8.9" y="0" fill="#7D7D7D" font-family="'Verdana-Italic'" font-size="7" rotate="-1">0</tspan><tspan x="13.4" y="-0.1" fill="#7D7D7D" font-family="'Verdana-Italic'" font-size="7" rotate="-1.8">0</tspan></text>
<path fill="none" d="M31,320.6c0.7-14,2.5-28,4.9-41.8"/>
<text transform="matrix(7.765961e-02 -0.997 0.997 7.765961e-02 33.8006 315.4995)"><tspan x="0" y="0" fill="#7D7D7D" font-family="'Verdana-Italic'" font-size="7">9</tspan><tspan x="4.4" y="0" fill="#7D7D7D" font-family="'Verdana-Italic'" font-size="7" rotate="0.9">4</tspan><tspan x="8.8" y="0.1" fill="#7D7D7D" font-family="'Verdana-Italic'" font-size="7" rotate="1.7">0</tspan><tspan x="13.2" y="0.2" fill="#7D7D7D" font-family="'Verdana-Italic'" font-size="7" rotate="2.5">0</tspan></text>
<g>
	<g>
		<polyline fill="none" stroke="#7D7D7D" stroke-miterlimit="10" points="85.2,341.6 85.2,348.7 275.4,348.7 275.4,341.7 		"/>
		<line fill="none" stroke="#7D7D7D" stroke-miterlimit="10" x1="180.5" y1="341.4" x2="180.5" y2="348.7"/>
		<line fill="none" stroke="#7D7D7D" stroke-miterlimit="10" x1="161.2" y1="349.2" x2="161.2" y2="343.7"/>
		<line fill="none" stroke="#7D7D7D" stroke-miterlimit="10" x1="142.4" y1="349.2" x2="142.4" y2="343.7"/>
		<line fill="none" stroke="#7D7D7D" stroke-miterlimit="10" x1="123.3" y1="349.2" x2="123.3" y2="343.5"/>
		<line fill="none" stroke="#7D7D7D" stroke-miterlimit="10" x1="104.6" y1="349.2" x2="104.6" y2="343.7"/>
	</g>
	<text transform="matrix(1 0 0 1 83.7834 339.1469)" fill="#7D7D7D" font-family="'Verdana'" font-size="8">0</text>
	<text transform="matrix(1 0 0 1 174.2945 339.1469)" fill="#7D7D7D" font-family="'Verdana'" font-size="8">0.5</text>
	<text transform="matrix(1 0 0 1 258.3413 339.1469)" fill="#7D7D7D" font-family="'Verdana'" font-size="8">1 mi</text>
</g>
</svg>
