<?xml version="1.0" encoding="utf-8"?>
<!-- Generator: Adobe Illustrator 17.1.0, SVG Export Plug-In . SVG Version: 6.00 Build 0)  -->
<!DOCTYPE svg PUBLIC "-//W3C//DTD SVG 1.1//EN" "http://www.w3.org/Graphics/SVG/1.1/DTD/svg11.dtd">
<svg version="1.1" id="Layer_1" xmlns="http://www.w3.org/2000/svg" xmlns:xlink="http://www.w3.org/1999/xlink" x="0px" y="0px"
	 viewBox="0 0 360 360" enable-background="new 0 0 360 360" xml:space="preserve">
<path fill="none" stroke="#E1E1E1" stroke-miterlimit="10" d="M284,369.8c2.8-2.9,1.3-7.8,3.7-11.1c1.3-1.7,4.5,0.9,6.4-0.1
	c1.7-0.9,0.4-4.6,2.2-5.2c3.3-1.1,6.9,0.3,9.2-2.2s3.4-5.9,4.6-9.1c6.5-16.9,18.9-31.5,21.9-49.3c1.3-7.5,0.8-15.2,0.5-22.8
	c-0.1-1.2-0.1-2.4,0.2-3.5c0.3-1,0.8-2,1.3-2.9c1.9-3.4,4.4-8.9,6.4-8.5c1.7,0.3,1.6,5.8,4.3,7.8s6.6,2.5,9.5,0.8
	c1.7-1,3.8-2.8,5.4-1.5c0.7,0.5,0.9,1.4,1.3,2.1c1.6,2.8,4.5-0.5,7.7-0.6c2.5-0.1,4.4-1,6.6,0.1c5.1,2.5,1.4,11.2,2.2,16.9
	c0.2,1.8,0.5,3.7,1.8,4.9c1.3,1.2,3.9,1.1,4.4-0.6"/>
<path fill="none" stroke="#E1E1E1" stroke-miterlimit="10" d="M239.9,367.2c-3.1-6.9-0.3-14.8,2.5-21.8c0.5-1.2,1-2.4,1.9-3.3
	c1.1-1,2.6-1.5,3.7-2.4c2-1.8,2.1-4.7,2.8-7.3c0.7-2.6,2.8-5.3,5.4-4.7c0.6,0.2,1.2,0.6,1.9,0.5c2.9-0.1,3.6-7.7,5.4-5.5
	c1.4,1.7,1.9,4.8,4.1,4.3c1.2-0.3,1.9-1.4,2.9-2.1c1.5-1.1,3.5-1,5.3-1.5c1.7-0.5,3.2-1.4,4.6-2.6c5.7-4.7,9-11.7,10.6-18.8
	c1.6-7.2,1.5-14.6,1.4-21.9c-0.1-11.3-0.2-22.6-0.3-33.9c0-5-4.7-17.7-5-19.5c-0.2-1.3,0.1-2.7,0.4-4c1.7-7.1,4-14.1,6.9-20.8
	c0.3-0.8,0.7-1.6,1.5-2c1-0.5,2.1-0.1,3.1,0.2c4.1,0.9,7.8-1.7,11.1-4.3c6.5-5.1,1.8-9.4,5.6-11.1c1.7-0.8,3.4,2.6,5.2,2.2
	c2.3-0.5,3.5-4.2,5.6-3.3c3.4,1.5,3.1,9.8,6.3,11.7c2.2,1.3,3.6-3.4,6.1-2.6c4.3,1.4,9.8,22.2,13.9,34.3c1,2.8-2.8,9-0.2,10.3
	c3.2,1.5,4.7-5.3,7.1-8c6.1-6.9,15.9-9.2,25-11.1"/>
<path fill="none" stroke="#E1E1E1" stroke-miterlimit="10" d="M128.8,368.5c1.2-3.9,3.6-7.5,7-9.9c2-1.5,4.2-2.5,6.1-4.2
	c1.2-1.1,2.3-2.5,3.5-3.6c3.8-3.7,9.3-5.2,13.5-8.4c5.3-4.1,11.7-15,14.4-14c1.5,0.5,2,2.2,3.6,2.2c1.6-0.1,3.4-0.3,4.4,0.9
	c0.6,0.7,0.7,1.6,0.9,2.4c1,4.1,2.2,5.8,5.2,8.7c6.5,6.2,7.6,17.5,5.5,26.3"/>
<path fill="none" stroke="#E1E1E1" stroke-miterlimit="10" d="M-4.3,355.6c0.4,0.1,0.8,0.1,1.2,0.3c1.6,1,2.6,2.7,3.8,4.1
	c1.2,1.3,2.5,2.6,4.1,3.4c1.9,0.9,4.1,0.9,6.1,0.3c0.7-0.2,1.5-0.5,2.2-0.6c1.2-0.1,2.3,0.2,3.4,0.6c0.3,0.1,0.6,0.2,0.8,0.4
	c0.3,0.3,0.4,0.8,0.5,1.2c0.2,1.6,0.4,3.1,0.6,4.7"/>
<path fill="none" stroke="#E1E1E1" stroke-miterlimit="10" d="M-3.8,341.8c2.3,2.5,5.3,4.2,8.6,4.8c3.8,0.7,7.6,0.1,11.4-0.6
	c2.4-0.4,5.6-4.9,6.6-2.7c2.4,4.8,4.4,7.6,11.7,3.7c3.8-2-2.6,9.2,0.3,12.3c1.5,1.7,4.2,1.4,6.5,1c1.8-0.3,3.9-2,5.4-1
	c1.6,1.1,2.8,1.8,4.5,2.8c2.2,1.3,0.8,5.7,0.5,8.2"/>
<path fill="none" stroke="#E1E1E1" stroke-miterlimit="10" d="M378.1,114.3c-1.6,5.6-7.2,9.7-13,9.4c-4.4-0.2-7.7-3.8-11.2-6.6
	c-20-15.9-12.9-33.6-15.2-37c-0.8-1.2-2.2,2.2-3.3,1.3c-1.4-1.3-2.8-1.3-4.5-2.1c-1.2-0.5-1.6-1.9-2.2-3.1c-1.8-3.4-5.8-4.8-9.4-6
	c-6.4-2-13.5-4-19.5-1.2c-5,2.3-8.1,7.4-10.7,12.2c-7.7,14.5-13.9,29.7-18.3,45.5c-0.6,2-1.1,4.1-1.1,6.2c0,2.1,0.5,4.2,0.6,6.3
	c0.1,3-0.9,5.9-1.9,8.8c-1.7,5.1-3.5,10.3-5.2,15.4c-1,2.8-1.9,5.7-2.1,8.7c-0.1,2.9,0.6,5.8,1.1,8.7c1.8,10.1,1.5,20.6-1,30.6
	c-0.7,2.8-1.5,5.6-1.4,8.4c0.1,1.8,0.7,3.6,1.2,5.4c3.6,12.7,6.5,26.9,6.4,40.1c0,2.8-1.7,6.9-3.7,9c-7.3,8-15-5.2-17-1.8
	c-4.3,7.4-8.8,9.4-16.4,10c-2.4,0.2-3.2,1.1-5.5,1.3c-3,0.3-4.9,3.7-7.9,3.1s-5.5-2.5-7.9-4.3c-2.2-1.6-5.9-0.5-8.4,0.6
	c-2.5,1.1-4.6,2.8-7.1,3.8c-5.6,2.4-11-2-17.1-2.5c-2.9-0.3-5.1,3-7.6,4.4c-0.6,0.4-1.3,0.8-1.6,1.5c-0.3,0.6-0.2,1.4-0.3,2.1
	c-0.4,1.4-1.8,2.1-2.9,3.1c-2.9,2.4-3.7,6.5-5.7,9.7c-1.8,2.7-4.4,4.7-6.9,6.8c-9,7.5-16.1,17-24,25.7c-9.6,10.7-10.7,5.7-12.7,9.2
	c-1.1,1.9-2.4,5-4,6.5c-7,6.6-14.7,12.3-23.1,17"/>
<path fill="none" stroke="#E1E1E1" stroke-miterlimit="10" d="M377.9,90c-1.8,4.5-3.7,9-5.5,13.5c-0.7,1.6-2,3.6-3.7,3
	c-0.5-0.2-0.8-0.5-1.2-0.8c-2.8-2.8-5.7-5.5-8.5-8.3c-2.9-2.8-5.8-5.6-8-9c-7.6-11.7-3.6-36.8-3-39.5c0.5-2-3.1-2.6-3.9-4.5
	s1.1-5-0.6-6.1c-2.8-1.8-8.5-2.5-9.7,0.6c-2.2,5.5-6.3,9.9-14.6,9.1c-5.6-0.5-11.2,1.5-16.8,2.2c-2.3,0.3-4.6,0.6-6.9,0
	c-1.3-0.4-2.5-1.1-3.8-1.5c-6-2.1-12.4,1.3-17.3,5.2c-5.1,4-9.9,9-11.1,15.3c-0.7,3.7-0.1,7.4,0.9,11c0.8,2.9,1.9,5.7,2.5,8.6
	c1.8,8.4-3.6,15.6-7.1,23.5c-2.2,4.9-1.2,10.7-3.7,15.4c-1.3,2.5-2.9,4.8-3.9,7.5c-0.8,2.3-1.2,4.8-1.5,7.2
	c-1.1,7.8-2.4,15.5-3.8,23.2c-0.9,4.9-1.7,9.7-2.6,14.6c-1,5.4-1.9,10.9-3.2,16.3c-1.1,4.5-2.4,9.1-1.6,13.7c0.3,1.7,0.9,3.4,1,5.1
	c0.3,6.3-6,10.7-11.6,13.7c-2.9,1.6-5.8,3.2-8.7,4.8c-3.7,2-4.7,7.5-6.5,11.2c-2.1,4.4-5.2,8.2-8.4,11.8c-4.3,4.7-12.9,6.8-14,13.1
	c-0.3,1.5,1.7,2.7,1.6,4.2c-0.1,1.5-1.6,3.1-3,2.6c-0.6-0.2-1-0.6-1.4-1c-1-1-2-2-2.9-2.9c-2.6-2.6-5.3-5.3-6.4-8.8
	c-1.4-4.3-0.3-9.1-1.3-13.6c-0.2-0.7-0.6-1.6-1.3-1.6c-0.4,0-0.8,0.3-1.2,0.5c-2.4,1.8-3.8,5.3-6.8,5.8c-2,0.4-3.7-1.6-5.5-2.4
	c-0.3-0.1-0.5-0.2-0.8-0.2c-0.5,0.1-0.7,0.6-0.9,1c-1.1,2.6-4.8,5.3-3.3,7.7c1.9,2.9,6.3,3.7,5.6,7.1c-0.4,2-1.9,3.6-3.3,5.2
	c-4.6,5.3-8.4,11.2-12.3,17.1c-2.1,3.3-4.3,6.6-5.4,10.4c-0.5,1.6-0.7,3.3-1.4,4.9c-1.1,2.6-3.3,4.5-5.4,6.4c-1.7,1.5-3.4,2.9-5,4.4
	c-2.3,2-4.6,4.1-7.1,5.9c-2,1.5-4.1,3-5.9,4.7c-2.3,2.2-4,4.9-6.1,7.3c-3.5,4.1-7.9,7.4-10.3,12.3c-1.5,3.1-1.9,7.6-5.2,8.6
	c-2.5,0.7-5.3,0.1-7.9,0.2c-2.6,0.1-5.1,0.9-7.3,2.3c-2.8,1.7-7.4,3.4-10.4,2c-1.3-0.6-0.1-2.8,0.2-4.2c0.3-1.4,0-3.3-1.4-3.6
	c-0.6-0.2-1.3,0-2,0c-2.2-0.3-2.6-3.2-2.4-5.4c0.3-4.2,4.6-10.6,0.9-12.7c-2.5-1.4-6.2,5.8-7.9,3.4c-1.3-1.8-0.9-4.1-2.8-5.1
	s-4.3-2.1-4.5-4.2c-0.1-1.3,0.5-2.9-0.6-3.6c-0.6-0.4-1.3-0.2-2,0c-4.8,1.4-9.8,2.3-14.8,2.5c-2.5,0.1-5,0.1-7.3,1
	c-1.8,0.7-3.5,1.8-5.2,2.8c-3.7,1.9-7.9,2.6-12.1,3.2c-3.3,0.5-6.8,1-9.7-0.5c-1.7-0.9-3.6-2.4-5.3-1.5"/>
<path fill="none" stroke="#E1E1E1" stroke-miterlimit="10" d="M333.4-16c-3.9,2.6-6.1,7.5-5.4,12.2c0.2,1,0.6,2.2,1.6,2.4
	c0.6,0.1,1.2-0.1,1.7-0.4c5.4-2.8,11.3-15.1,14.7-10c2,3-5.2,7-3.5,10.2c0.6,1.2,2.8,0.2,3.7,1.1c2.1,1.8-0.3,5.4-1.9,7.6
	c-3.9,5.5-8.6,10.4-14,14.4c-1.8,1.3-3.7,2.6-5.3,4.2c-2.7,2.5-4.6,5.7-6.9,8.5s-5.3,5.4-9,5.9c-3.6,0.5-5.4-3-8.2-5.4
	c-8.3-7.3-22.1,2.8-32,7.7c-2.4,1.2-4.9,2.6-7.6,2.9s-5.8-0.5-7.2-2.8c-0.6-1-0.9-2.4-1.9-3c-1.5-0.9-3.4,0.2-5.1,0.7
	c-2.9,0.8-5.8-0.6-8.8-1.1c-5.9-0.9-12.2,2.3-14.9,7.6c-1.4,2.8-1.9,6.1-2.2,9.2c-0.7,7.9-4,17.5,0.8,23.8c2.1,2.8,6.4,2.9,8.7,5.5
	c2.3,2.6,3.5,6.5,1.9,9.5c-0.6,1.1-1.5,2.1-1.7,3.4c-0.3,2,1.2,3.8,1.6,5.8c0.3,1.9-0.3,3.9-1.6,5.3c-10.6,11.6-16.8,4.4-18,6.3
	c-2,3.2,0.8,7.4-2,9.8c-2.8,2.5-7.2,2.6-10.7,1.2c-1.2-0.5-2.5-1.1-3.7-0.6c-0.9,0.4-1.4,1.4-1.9,2.2c-2.2,3.4-6.2,5.1-9.9,6.6
	c-3,1.2-6.6,1.6-9.1,3.7c-2.6,2.3-6.7,3.6-8.5,6.7c-1.3,2.2-1.4,4.8-3,6.8c-4.9,6.1-9.7,12.7-11.3,20.3c-1.3,5.9-0.6,12.3-3.3,17.7
	c-0.8,1.6-1.9,3.1-1.7,4.9c0.1,0.8,0.4,1.6,0.5,2.4c0,1-0.5,2-1,2.9c-1.3,2.3-5.7,5-3.9,7c1.2,1.3,2,2.9,3.7,3
	c0.6,0,1.1-0.4,1.6-0.8c2.4-2.2,5.3-4,8.6-4.1c3.2-0.1,6.7,1.9,7.2,5.1c0.5,2.9-1.4,5.6-3.6,7.5c-5,4.4-12.1,6.7-15.4,12.5
	c-1.6,2.8-2.1,6.1-2.5,9.3c-0.7,4.9-1.4,9.8-2,14.7c-0.4,2.8-0.8,5.6-0.4,8.4c0.3,2.8,1.4,5.6,1.5,8.4c0.2,3.5-0.9,6.9-2.1,10.1
	c-2.8,7.6-6.1,15-9.8,22.2c-2.1,4.1-7.4,7.3-11.3,9.7c-2.9,1.8-6.3,3.4-9.6,2.4c-0.8-0.2-1.6-0.7-2.5-0.6c-0.8,0.1-0.7,1.1-1.3,1.7
	c-2,2.3-5.6,2-6.3,4.9c-0.7,2.9-0.4,6.1-1.7,8.8c-0.3,0.6-0.7,1.2-1.3,1.5c-0.3,0.1-0.6,0.2-0.9,0.3c-2.5,0.5-5.6,0.3-6.6-1.9
	c-0.6-1.4-0.2-3.2-1.3-4.2c-0.5-0.4-1.1-0.6-1.6-0.9c-1.8-1.2-1.5-3.9-1.3-6c0.2-2.6,0-5.1-0.7-7.6c-0.2-0.7-0.4-1.4-0.3-2.1
	c0.1-0.6,0.3-1.2,0.5-1.9c0.3-1.2,0.5-2.7-0.3-3.5c-2.2-2.2-6.2-1.3-9-2.6c-2.4-1.1-0.8-5.5-2.8-7.2c-1.7-1.4-4.3-0.2-6.1,1
	c-1.8,1.2-4.2,2.9-6.1,3.9c-3.4,1.8-29.5,12-35.3,13.8c-5.3,1.6-9.8,3.5-15.3,3.9c-1.2,0.1-3.9-0.5-5-0.8c-2.1-0.6-3.8-2.3-6-2.5"/>
<path fill="none" stroke="#E1E1E1" stroke-miterlimit="10" d="M243.2,147c0.8-1.6,0.5-3.5,0.5-5.4c0-0.5,0-1,0.3-1.4
	c0.2-0.3,0.5-0.5,0.6-0.8c0.5-0.8-0.1-1.9,0.3-2.8c0.1-0.4,0.4-0.6,0.6-1c0.5-1-0.2-2.4-1.2-2.9c-1-0.5-2.2-0.5-3.4-0.5
	c-0.4,0-0.8,0-1.1,0.3c-0.2,0.1-0.3,0.3-0.4,0.5c-1.6,2.8-3.1,5.7-4.5,8.6c-1.7,3.7-3.1,7.5-4.4,11.3c-0.3,0.9-0.6,1.9-0.6,2.8
	c0,1,0.4,2,1.3,2.5c0.8,0.5,1.8,0.4,2.7,0.2c2.6-0.5,5.2-1.4,7.5-2.8c0.4-0.2,0.8-0.5,1-0.9c0.5-1.2-0.9-2.3-1.2-3.6
	C241,149.6,242.5,148.4,243.2,147z"/>
<path fill="none" stroke="#E1E1E1" stroke-miterlimit="10" d="M223.6,132.2c0.2,0.4,0.5,0.8,0.7,1.3c0.8,1.3,1.8,2.8,3.3,2.9
	c1.2,0,2.2-1,3.1-1.9c1.4-1.5,2.8-3,4.2-4.5c1.1-1.2,2.3-2.6,2-4.2c-0.1-0.5-0.4-1.1-0.9-1.3c-0.9-0.4-1.9,0.3-2.6,0.9
	c-0.8,0.7-1.7,1.4-2.5,2.1c-1.4,1.2-3.1,2.4-4.9,1.9c-0.8-0.2-1.6-0.8-2.4-0.5c-0.6,0.2-0.8,0.9-0.8,1.5S223.3,131.7,223.6,132.2z"
	/>
<path fill="none" stroke="#E1E1E1" stroke-miterlimit="10" d="M239.5,117.9c0.8,0.2,1.6-0.6,1.6-1.4c0-0.8-0.6-1.6-1.3-1.9
	c-0.8-0.3-1.7-0.6-2.4-0.3c-0.6,0.3-0.4,1.3-0.1,1.9s1,1,1.5,1.3C239,117.7,239.3,117.8,239.5,117.9z"/>
<path fill="none" stroke="#E1E1E1" stroke-miterlimit="10" d="M243.2,94.8c0.2,0.1,0.4,0.2,0.5,0.3c1.2,0.4,2.6,0.7,3.6,0
	c0.5-0.4,0.8-1,1.1-1.6c0.8-1.8,1.6-3.6,2.5-5.4c0.8-1.6,2.2-3.6,1.3-5.2c-0.5-0.9-1.7-1.3-2.6-1c-0.5,0.2-0.9,0.5-1.2,0.9
	c-2.5,2.9-4.4,6.3-5.4,10C242.8,93.5,242.7,94.4,243.2,94.8z"/>
<path fill="none" stroke="#E1E1E1" stroke-miterlimit="10" d="M310.7-15.5c-1.8,3.6-2.9,7.6-3.3,11.6c-0.4,4.7,0.1,9.7-2.4,13.7
	c-1.2,2-3,3.5-4.9,4.9c-10.2,7.8-22,21.1-34.3,17.2c-4.2-1.3-2.3-8.3-2.4-12.7c0-1.7-0.4-3.7-1.9-4.3c-2-0.8-3.7,1.4-5.1,3
	c-5.7,6.6-15.7,6.9-24.4,6.1c-1.7-0.2-3.5-0.3-5.1,0.4c-1.2,0.6-2.2,1.6-3.2,2.5c-2.6,2-6,2.9-8.6,4.9c-2.8,2.2-4.3,5.6-5.6,8.9
	c-2,5.1-3.7,10.3-5,15.6c-1,4.2-1.9,8.4-2.7,12.7c-0.2,1.1-0.4,2.2-0.6,3.3c-0.2,1-0.4,1.9-0.6,2.9c-0.4,2.2-0.9,4.5-1.1,6.8
	c-0.5,5.9,0.6,12-1.4,17.6c-1.3,3.6-3.7,6.6-6.1,9.5c-3,3.7-6,7.4-10.1,9.8c-4,2.4-7.9,4.8-12,6.9c-5.5,2.8-10.3,6.7-12.9,12.2
	s-4.4,11.8-8.7,16.2c-0.9,0.9-1.8,1.7-2.3,2.9c-0.5,1.3-0.2,2.7-0.2,4c0,3.3-1.9,6.3-3.4,9.2c-4,7.3-8.9,20.8-8.2,23.4
	c0.5,1.8,2.2,3,1.5,4.8c-0.7,1.8-2,3.3-2.3,5.2c-0.6,3.2,1.9,6.2,2.2,9.5c0.2,2.3-0.7,4.6-1.5,6.8c-2.5,6.9-5.8,19.2-4.8,21.3
	c1.2,2.6,5.9-4.9,7.1-2.3c2,4.2-5.6,18.3-6.4,27.6c-0.9,9.6-1.4,26.9-6.8,27.5c-3.3,0.4-2.5-6.1-2.1-9.4c0.4-3.3,1.2-6.7,0.4-9.9
	c-0.8-3.2-4.1-6.2-7.2-5.2c-2.4,0.8-3.7,3.4-4.9,5.6c-1.8,3.3-4.1,6.4-7.3,8.4c-3.2,1.9-7.4,2.5-10.7,0.6c-1-0.6-1.8-1.6-2.8-2.1
	c-14.2-7.2-19-9.5-28-2.9c-9.5,6.9-31.9,14.4-44.3,15.9c-0.7,0.1-1.3,0.3-2,0.1c-0.6-0.2-1.1-0.6-1.6-1c-2.7-2.4-4.6-6.4-8.1-7.3
	c-3.4-0.9-6.6,2.8-8.8,5.6"/>
<path fill="none" stroke="#E1E1E1" stroke-miterlimit="10" d="M276.5-15c-0.4-0.1-1.3-0.7-1.3-0.3c0.1,4.1-0.9,9.3-0.1,13.9
	c0.5,2.5,0.6,5.1,0.6,7.7c0,1-0.1,2.1,0.2,3.1c0.3,1,1.2,1.9,2.2,1.8c0.7,0,1.3-0.5,1.8-0.9c1.8-1.4,3.6-2.8,5.5-4.2
	c2-1.6,4.1-3.2,5.6-5.3c0.8-1.1,1.4-2.4,2-3.7c1.7-3.9,3.2-8,4.3-12.1"/>
<path fill="none" stroke="#E1E1E1" stroke-miterlimit="10" d="M262.1-14.7c-3.7,4.6-7.3,9.1-11,13.7c-0.7,0.8-1.4,1.7-1.8,2.6
	c-0.6,1.2-0.8,2.5-1.2,3.8c-2,5.6-8.8,8.8-14.4,6.9c-0.9-0.3-1.7-0.7-2.7-0.7c-0.8,0-1.5,0.3-2.2,0.6c-3.6,1.5-7.3,3.1-10.9,4.6
	c-4.8,2.1-9.8,4.2-13.4,8.1c-2.7,3-4.3,6.7-5.9,10.4c-2.1,4.9-4.1,9.7-6.2,14.6c-2.4,5.7-4.8,11.4-5.6,17.6
	c-0.7,5.4-5.4,9.9-4.5,15.2c0.2,1.3,1.7,2,1.5,3.3s-1.1,2.3-1.9,3.4c-7.5,9.7-16.3,20.2-28.5,21.4c-2.8,0.3-6.3,0.3-7.8,2.7
	c-1.2,1.9-0.5,4.3-0.4,6.5c0.4,5.8-5.2,10.3-6,16c-0.3,2.4-0.8,5.5-2.4,7.3c-0.3,0.3-0.6,0.6-0.6,1c0,0.3,0.1,0.5,0.3,0.8
	c2,3.8,1.7,8.7-0.8,12.2c-0.9,1.2-2,2.3-2.8,3.6c-1.5,2.3-1.9,5.2-3.1,7.7c-1.4,2.9-3.8,5.1-6,7.4c-2.1,2.4-4,5.2-4,8.4
	c0,2.9,1.6,5.5,3.4,7.7c0.6,0.7,1.3,1.5,1,2.4c-0.1,0.4-0.3,0.7-0.6,1.1c-2.1,3-2.8,7.1-1.7,10.6c0.6,2,1.7,4,1.5,6.1
	c-0.1,1-0.5,1.9-0.9,2.8c-4.7,10.5-7.6,22.2-15.5,30.7c-3.2,3.5-5.7,7.9-8.3,11.8c-1.3,1.9-2.7,4-5,4.6c-2,0.5-4.1-0.3-6-1
	c-5.2-2.1-10.9-3.9-16.4-2.6C69.1,259,67,260,65,261c-7.3,3.6-14.6,7.2-20.7,12.5c-1.5,1.3-3,2.7-4.5,4.1c-1.7,1.5-3.4,3-5.5,3.7
	c-2.1,0.7-4.7,0.5-6.3-1.2c-2.1-2.2-1.8-6.3-4.4-7.8c-2.2-1.3-5.2,0-7.4-1.3c-1.9-1.1-2.4-3.8-4.3-4.9c-2.1-1.1-4.6,0.4-6.5,1.8
	c-3.5,2.6-7,5.1-10.5,7.7"/>
<path fill="none" stroke="#E1E1E1" stroke-miterlimit="10" d="M244.2-13.9c-2.8,2.7-4.2,6.3-6.2,9.6s-5,6.4-8.9,6.6
	c-3.5,0.2-6.7-2.1-10.2-2.8c-5.8-1.2-11.6,2.3-16.2,6.1c-9.5,7.9-17.2,18-22.3,29.3c-6.6,14.5-9.3,31.5-20.6,42.9
	c-4.2,4.3-9.4,7.4-14.4,10.8c-11.1,7.4-21.5,15.7-31.9,24.1c-1.2,1-2.5,2.1-2.8,3.6c-0.3,1.5,0.3,2.9,1,4.3c1.5,3.2,3.5,6.7,7,7.2
	c1.3,0.2,2.8-0.1,3.7,0.9c2.3,2.4-3.4,6.8-1,9.1c4.7,4.5,5.5,12.1,3.6,18.3c-2,6.4-7.1,11.4-9.5,17.7c-2.1,5.7-1.7,12-2.7,18
	c-1.7,10.6-7.7,20-13.6,29c-5.7,8.8-11.7,18.4-21.4,22.3c-2.4,1-4.9,1.5-7.5,1.8c-0.9,0.1-1.9,0.1-2.8,0.4c-1.1,0.3-2,1-3,1.6
	c-4.2,2.8-8.4,5.6-12.6,8.4c-4.1,2.8-8.4,5.6-11.2,9.8c-0.6,0.9-1.3,2-2.4,2.3c-1.5,0.4-2.9-0.9-3.9-2.1c-1.5-1.8-3-3.5-4.5-5.3
	c-1.2-1.4-2.4-2.9-3-4.6c-0.5-1.5-0.6-3.2-1.7-4.2c-0.5-0.4-1.1-0.7-1.8-0.9c-3.6-1.4-7.2-2.7-10.8-4.1c-1-0.4-2.1-0.8-3.1-0.4
	c-1,0.4-1.6,1.4-2.3,2.2c-3.4,4.1-10.1,4.9-12.5,9.6"/>
<path fill="none" stroke="#E1E1E1" stroke-miterlimit="10" d="M-3.2,171.8c13.1-2.8,26.8-5.8,37.1-14.5c1.7-1.4,3.3-3,5.2-4.2
	c1.2-0.8,2.6-1.4,3.8-2.3c1.3-1,2.4-2.2,3.5-3.5c7.2-8.4,9.1-21.8,18.7-27.2c2-1.1,3.9,2.3,5.4,4.1c2.2,2.7,4.3,5.3,6.5,8
	c1.2,1.5,2.6,3.1,4.4,3.8c1.7,0.6,3.6,0.3,5.5,0.3c9.4-0.4,18.1,4.6,26.1,9.4c0.4,0.2,0.8,0.5,1.1,0.8c1.1,1.4-0.1,3.5-1.2,4.9
	C101,166.9,97,186.7,90.6,205.1c-2.2,6.2-4.7,12.5-9.3,17.2c-3.9,4-9,6.6-14,9.1c-7.3,3.7-14.5,7.4-21.8,11.1c-1.9,1-3.9,1.9-6,1.9
	c-5-0.1-7.9-5.5-11.6-8.9c-5.1-4.7-13.2-5.8-19.4-2.6C2.7,236-0.8,242.1-4,248"/>
<path fill="none" stroke="#E1E1E1" stroke-miterlimit="10" d="M-4,236.6c3.3-3,6.7-6.2,8.2-10.5c1.1-3.2,1.2-7,3.6-9.5
	c1.3-1.3,3.1-2,4.9-2.6c5.6-1.8,11.3-2.8,17.2-3.1c1,0,2-0.1,2.8,0.4c1.3,0.7,1.9,2.1,2.7,3.3c2,2.6,5.7,3.4,9,3
	c3.3-0.3,6.4-1.6,9.6-2.3c3.6-0.8,7.4-0.9,11.1-0.3c3.9,0.7,8.6,1.9,11.3-1c1.9-2.1,1.8-5.2,2.1-8c0.5-3.7,2.2-7.2,3.9-10.5
	c0.4-0.9,0.9-1.8,1.6-2.5c1.1-1,2.8-1.3,4.1-2.1c3.8-2,5-7.1,4.4-11.5c-0.6-4.3-2.5-8.4-3.2-12.7c-0.4-2.9-0.2-5.8-0.8-8.6
	s-2.3-5.7-5.1-6.5c-3.3-1-6.8,1.1-10.2,0.8c-0.4,0-0.9-0.1-1.3-0.3c-0.8-0.4-1.3-1.2-1.8-1.9c-1.7-2.6-3.3-5.1-5-7.7
	c-0.4-0.6-1-1.2-1.6-1c-0.4,0.1-0.6,0.5-0.8,0.8c-2.4,4-5.1,7.7-8.1,11.3c-0.6,0.8-1.3,1.5-2,2.2c-0.9,0.8-1.9,1.5-2.9,2.1
	c-7,4.4-15.2,6.7-22,11.6c-1.8,1.3-3.5,2.8-5.4,3.8c-1.5,0.8-3.2,1.4-4.9,1.8c-5.2,1.4-10.7,1.8-16.1,1.2c-2.4-0.3-5.4-0.4-6.5,1.7"
	/>
<path fill="none" stroke="#E1E1E1" stroke-miterlimit="10" d="M-4.2,209.3c-0.1,0.2-0.4-0.1-0.2-0.2c0.2-0.1,0.4,0,0.6,0.1
	c1.5,1.2,1.5,3.4,1.9,5.3s1.8,4,3.6,3.5c1-0.3,1.6-1.3,2.1-2.2c2.1-3.9,4.3-7.9,6.4-11.8c0.2-0.4,0.4-0.7,0.6-1.1
	c2.2-4.1,4.4-8.2,7.7-11.5c1.3-1.4,2.9-2.6,4.6-3.2c1.4-0.5,3-0.7,4.5-0.8c3.1-0.3,6.2-0.6,9.3-0.8c3.3-0.3,6.8-0.6,9.9,0.7
	c1.2,0.5,2.3,1.3,3.5,1.8c19,8.1,19.8-0.7,20.3,6.3c0.2,2.2,0.2,3.7,0,5.7c-0.1,1-1.4,3.6-0.8,4.4c0.9,1.2,2.9,0,4.4,0
	c0.4,0,0.7,0,1-0.3c0.2-0.2,0.3-0.5,0.4-0.8c0.7-3.1,1.3-6.1,2-9.2c0.2-1,0.4-2.3-0.4-3c-0.3-0.3-0.8-0.4-1-0.8
	c-0.2-0.4-0.1-0.9,0-1.4c0.7-2.1,0.9-4.4,2-6.4c0.6-1.1,3-0.9,4.1-0.2c1.1,0.8,2.4,1.5,3.7,1.2c1.1-0.3,1-0.6,1.5-1.6
	c0.4-0.8,0.9-1.7,1.3-2.5c0.2-0.5,0.5-1,0.4-1.5c-0.1-0.5-0.5-0.9-0.9-1.3c-1.4-1.3-2.8-2.5-4.2-3.8c-2.5-2.2-5.1-4.6-6.3-7.8
	c-0.6-1.5-0.9-3.4-2.2-4.3c-1.2-0.8-2.7-0.8-4.1-0.8c-3.5,0-7.5-0.7-9.6-3.5c-0.8-1-1.5-2.4-2.8-2.3c-0.6,0-1,0.4-1.5,0.7
	c-3.5,2.6-6.9,5.3-10.4,7.9c-0.8,0.6-1.6,1.2-2.5,1.7c-1.3,0.6-2.7,0.8-4,1.2c-4.3,1.1-8.2,3.5-11.9,5.9c-2.2,1.4-3.1,3.9-5,5.5
	c-6.8,5.8-17.8,0.6-26.7,1.5c-1,0.1-2.3,0.4-2.4,1.4"/>
<path fill="none" stroke="#E1E1E1" stroke-miterlimit="10" d="M3.9,189.3c1.4,0.3,2.5-1.4,3.5-2.4s1.8-2.3,1.9-3.7
	c0-0.3,0-0.6-0.2-0.9c-0.2-0.3-0.6-0.5-1-0.6c-2.8-0.7-7.7-1.5-8.4,1.3C-1,185.5,1.4,188.9,3.9,189.3z"/>
<path fill="none" stroke="#E1E1E1" stroke-miterlimit="10" d="M-4.4,158.2c4.2,1.6,8.9,1.9,13.2,0.8c3-0.8,5.8-2.2,8.6-3.7
	c6.5-3.5,12.8-7.2,18.9-11.2c0.5-0.3,1.1-0.7,1.3-1.3c0.4-1.1-0.5-2.3-0.7-3.4c-0.2-1.4,0.8-2.6,1.7-3.6c3-3.1,6.9-5.7,7.9-9.8
	c0.9-3.9-1-7.9-0.9-11.9c0-1.4,0.3-2.8,0.2-4.2c-0.3-2.5-1.4-5.6-3.7-6.5c-3-1.2-7.1,0.5-9.1-2.2c-0.4-0.5-0.7-1.1-1.1-1.6
	c-2.3-2.5-7.3,0.3-9.7-2.2c-0.6-0.6-0.9-1.5-1.6-2c-1.1-0.9-2.7-0.5-4-1.1c-1.4-0.7-2-2.5-3.3-3.5c-2-1.6-5.1-0.6-7.3-1.9
	c-0.9-0.5-1.5-1.2-2.4-1.7c-3.1-1.9-7,0.2-9.9,2.3"/>
<path fill="none" stroke="#E1E1E1" stroke-miterlimit="10" d="M191.6-13.9c-4.2,5.3-11.2,7.7-15.7,12.7c-2.2,2.4-3.6,5.3-5.1,8.2
	c-3.6,7.1-7.2,14.2-10.9,21.3c-1.9,3.7-4,7.7-7.4,10c-2,1.4-4.7,2.6-4.8,5c-0.1,1.4,0.7,2.6,1,3.9c0.6,3.3-2.2,6.6-1.3,9.8
	c0.7,2.3,3,3.6,4.9,5.1s3.5,4.2,2.1,6.2c-1.4,2.1-4.6,1.4-7.1,1c-5.8-0.9-11.7,1.1-16.9,3.8c-5.2,2.7-10.2,6-15.7,7.9
	c-2.6,0.9-5.4,1.5-7.9,2.7C99.3,87.2,95,95,89.1,100.7c-5.4,5.1-12.1,8.4-18.8,11.6c-2.8,1.4-6.3,2.8-9,1.1c-2-1.2-2.8-3.6-3.5-5.8
	c-3.3-11.3-4.9-23.1-4.7-34.9c0-1.8,0.1-3.8-0.9-5.4c-0.7-1.2-1.8-2-2.7-3c-0.8-1-1.4-2.2-2-3.3c-1.9-4-7.5-7.9-5.7-11.9
	c1.6-3.5,6.6-4.1,10-6s6.8-0.1,10.5,1c10.8,3.4,18.4-13.6,29.1-17.4c3.3-1.2,6.8-1.8,10.2-3c3.5-1.2,6.8-3,10-4.8
	c6.8-3.8,13.6-7.8,19.3-13.2s10.1-12.4,11.1-20.1"/>
<path fill="none" stroke="#E1E1E1" stroke-miterlimit="10" d="M156.2-16.5c0.2,2-1,3.9-2.3,5.5s-2.9,2.9-4,4.6
	c-0.6,0.9-0.9,1.9-1.3,2.9c-0.6,1.6-1.9,3.8-0.6,4.8c1.4,1.1,3.1-1.3,4.2-2.6c1.1-1.4,2.2-2.8,3.4-4.2c1.3-1.6,2.6-3.2,3.7-4.9
	c0.6-0.9,1.1-1.8,1.6-2.7"/>
<path fill="none" stroke="#E1E1E1" stroke-miterlimit="10" d="M68.6,84.9c-0.4,0.1-0.9,0.3-1.3,0.2c-0.4-0.1-0.7-0.4-1-0.7
	c-1.8-2.2-2.4-5.1-2.9-7.9c-0.4-2.3-0.8-4.5-1.2-6.8c-0.3-1.7-0.6-3.5-0.4-5.3c0.6-4.6,4.7-7.8,8.5-10.5c5.7-4,11.4-7.8,17.2-11.5
	c1.9-1.2,3.8-2.4,5.4-3.9c3.2-3,5.3-7.2,8.9-9.8c4.2-3,9.6-3.2,14.5-4.8c8.2-2.5,20.8-12.4,23.4-10.5c1.3,1-5.7,12.6-7.7,19.2
	c-1.2,3.9-2.1,8-1.7,12c0.6,5.5,3.7,10.7,3,16.2c-0.1,0.5-0.1,1-0.4,1.3c-0.8,1.2-2.5,0.9-3.9,0.6c-6.8-1.4-13.9-1.2-20.5,0.8
	C94,67.9,82.8,79.8,68.6,84.9z"/>
<path fill="none" stroke="#E1E1E1" stroke-miterlimit="10" d="M77.2,61.4c3.1,1.7,6.6-2.6,9.4-4.8c1-0.8,2-1.7,2.6-2.9
	c0.3-0.6,0.5-1.4,0.2-2c-0.4-0.7-1.3-1-2.1-0.8c-0.8,0.2-1.4,0.6-2.1,1.1c-2.7,2-5.5,4.1-7.3,6.9C77.4,59.6,76.4,60.9,77.2,61.4z"/>
<path fill="none" stroke="#E1E1E1" stroke-miterlimit="10" d="M114.4,29.3c-0.1-0.7-0.8-1-1.5-1.1c-2-0.2-2.6,2.1-3.9,3.7
	c-1.6,1.9-4.4,2.3-6.1,4.1c-2.6,2.7-5.1,5.5-7.7,8.2c-0.8,0.8-2.3,1.7-1.9,2.8c0.6,1.4,2.8-0.5,4-1.5c1.4-1.2,3-2.2,4.6-2.9
	c1.9-0.8,3.9-1.4,5.4-2.7c0.9-0.8,1.7-1.8,2.4-2.8c1.5-2.2,3-4.5,4.3-6.8C114.2,30.1,114.4,29.7,114.4,29.3z"/>
<path fill="none" stroke="#E1E1E1" stroke-miterlimit="10" d="M37.9,44.2c-0.1-0.2-0.4-0.2-0.6-0.2c-1.3,0-2.5,0.8-3.6,1.6
	c-0.6,0.5-1.3,1-1.9,1.5c-0.4,0.3-0.9,0.8-0.7,1.4c0.1,0.2,0.3,0.4,0.5,0.5c1,0.7,2.3,1,3.5,1.4c0.6,0.2,1.2,0.3,1.8,0.2
	S38,50,38,49.4c0-1.5,0.1-3,0.1-4.5C38.1,44.6,38.1,44.4,37.9,44.2z"/>
<path fill="none" stroke="#E1E1E1" stroke-miterlimit="10" d="M-3,37.7c3.8,0.4,7.6,0.8,11.5,1.3c2.6,0.3,5.5,0.7,7.3,2.7
	c0.4,0.5,0.8,1,1.3,1.2c0.8,0.3,1.7-0.2,2.4-0.6c5.3-3.4,10.7-6.7,16-10.1c1.5-0.9,3-1.9,4.8-2.3s3.7-0.1,5,1.2
	c0.7,0.7,1.1,1.6,1.9,2.1c1.5,0.9,3.4-0.2,4.8-1.2c2-1.5,6.4-1.9,6.1-4.4c-0.2-1.4-3.3-0.4-3.9-1.7c-0.3-0.7,1-1.5,0.7-2.2
	c-1-2.5-5.5,0.3-7.8-1c-2-1.2-2.2-4.1-1.9-6.4c0.4-3.7,1.9-7.9,5.5-8.7c0.8-0.2,1.7-0.2,2.4-0.5C53.9,6.7,54.5,6,55,5.4
	c5-6,12.8-9.7,20.6-9.8c2.4,0,5.2,0.5,6.2,2.7c0.8,1.7-1.6,3.9-0.5,5.5c1.3,1.9,4.7,0.1,7.1,0.2c0.8,0,1.7,0,2.5-0.2
	c0.9-0.3,1.6-0.8,2.3-1.3c3.5-2.4,7.7-3.5,11.7-5.1c6.7-2.7,12.9-6.5,19-10.4c2.3-1.4,4.6-2.9,6-5.1"/>
<path fill="none" stroke="#E1E1E1" stroke-miterlimit="10" d="M16.5,12.1c0.3,0.7,0.9,1.4,1.7,1.5c0.4,0,0.7-0.1,1.1-0.2
	c2.6-0.9,4.7-3.1,6-5.5s2-5.2,2.7-7.9c0.4-1.6,0.8-3.2,1.2-4.8c0.7-2.9,4-7.6,1.3-8.8c-4.7-2-7.4,7.1-10.3,11.3
	c-0.7,1-1.4,2.1-1.7,3.3C18,2.4,18,3.9,17.6,5.3c-0.4,1.3-1.2,2.5-1.5,3.9C15.9,10.2,16.1,11.2,16.5,12.1z"/>
<path fill="none" stroke="#E1E1E1" stroke-miterlimit="10" d="M-2.5,11.3C0.2,5.6,5.4,1.4,8.2-4.1c0.3-0.6,0.6-1.3,1-1.8
	c0.4-0.6,1-1,1.5-1.5c2-2.1,2.9-5,3.7-7.7"/>
<path fill="#EAEAEA" stroke="#D6D6D6" stroke-miterlimit="10" d="M15.8,130.2c0.1,0.1,0.3,0.2,0.4,0.3c0.1,0.1,0.1,0.3,0.1,0.4
	c0.1,0.8,0.9,1.3,1.4,1.9c0.2,0.3,0.4,0.8,0.8,1c0.6,0.4,1.3,0.1,2-0.2c0.8-0.4,1.6-0.7,2.1-1.4c0.5-0.7,0.7-1.7,0.2-2.4
	c-0.3-0.3-0.7-0.5-1.1-0.7c-0.4-0.1-0.7-0.3-1.1-0.4c-1.3-0.5-2.6-1-3.9-0.6c-0.1,0-0.3,0.1-0.4,0.2c-0.3,0.3-0.4,0.7-0.4,1.1
	C15.7,129.8,15.7,130,15.8,130.2z"/>
<path fill="#EAEAEA" stroke="#D6D6D6" stroke-miterlimit="10" d="M7.5,125.7c-0.3-0.1-0.7-0.1-1-0.1c-2.2,0-4.6-0.4-5.9-2.1
	c-0.3-0.5-0.6-1-1-1.4c-0.4-0.4-1.1-1-1.5-0.6c-1.5,1.3-0.3,3.9,0,5.8c0.5,3.7-3.6,9.9-0.1,11.3c1.5,0.6,2.8-1.3,4.4-1.2
	s3.5-0.1,4.2-1.5c0.5-0.9,0.2-2.1,0.8-3c0.2-0.4,0.5-0.6,0.8-1c1.2-1.5,1.3-3.7,0.3-5.3C8.2,126.2,7.9,125.9,7.5,125.7z"/>
<path fill="none" stroke="#D6D6D6" stroke-miterlimit="10" d="M9.3,128.4c1.3,0.1,3.2,0.1,4.5,0.4c0.5,0.1,1.7,0.4,2.2,0.2"/>
<path fill="#EAEAEA" stroke="#D6D6D6" stroke-miterlimit="10" d="M85.1,20.7c-0.5-0.6-1.5-0.2-2.2,0c-1.1,0.3-2.2,0.6-3.2,1.1
	c-0.8,0.4-1.6,0.8-2.5,0.7c-0.8-0.1-1.5-0.7-2.4-0.7c-0.7,0-1.3,0.4-1.7,0.9c-0.4,0.6-0.8,1.3-0.5,1.9c0.3,0.8,1.6,0.6,2.4,0.4
	c0.8-0.3,1.6-0.7,2.5-0.8c0.1,0,0.1,0,0.2,0c0.2,0,0.3,0.2,0.4,0.2c0.4,0.3,1.1,0.1,1.5-0.3c0.4-0.3,0.7-0.8,1.1-1.1
	c0.5-0.4,1.2-0.4,1.8-0.5s1.3-0.1,1.8-0.4C84.9,21.9,85.5,21.1,85.1,20.7z"/>
<path fill="#EAEAEA" stroke="#D6D6D6" stroke-miterlimit="10" d="M90.1,19.5c1.2,1.8,3.6,2.8,5.7,2.3c1.1-0.2,2-0.8,3-1.4
	c1.7-1,3.5-2,4.9-3.5c1.1-1.1,1.9-2.4,3-3.5c1.1-1.1,2.6-1.9,4.1-1.6c0.3,0.1,0.7,0.2,1,0.1c0.3,0,0.6-0.2,0.9-0.3
	c0.9-0.3,2-0.2,2.9-0.5c1-0.4,1.7-1.4,2.5-2c0.9-0.7,2.1-1.1,2.8-2c0.7-1,0.6-2.4-0.2-3.3s-2.2-1.2-3.3-0.6c-0.7,0.4-1.3,1.1-2,1.6
	c-0.9,0.6-2.1,0.7-3.1,0.2c-0.4-0.2-0.8-0.5-1.3-0.5c-0.3,0-0.7,0.2-0.9,0.4c-1,0.8-1.8,1.8-2.2,3c-0.2,0.5-0.3,1.1-0.7,1.5
	c-1,1.1-2.8,0.4-4.3,0.7c-2.9,0.6-3.6,4.7-6.3,5.9c-1.1,0.5-2.4,0.4-3.6,0.7c-1.2,0.3-2.2,1-2.9,2c-0.1,0.1-0.2,0.3-0.2,0.5
	C90,19.2,90.1,19.4,90.1,19.5z"/>
<path fill="#EAEAEA" stroke="#D6D6D6" stroke-miterlimit="10" d="M362,145.3c-0.5-1.3-1.5-2.8-2.9-2.8c-1.2,0-2.1,0.9-2.9,1.7
	c-1.2,1.1-2.7,2-4.3,1.7c-0.9-0.2-1.6-0.7-2.5-0.9c-0.9-0.1-2,0.6-1.7,1.5c0.1,0.4,0.5,0.6,0.6,0.9c0.3,0.5,0.2,1.2,0.5,1.7
	c0.3,0.5,0.9,0.7,1.5,0.9c0.6,0.2,1.2,0.4,1.5,0.9c0.3,0.5-0.4,0.8-0.5,1.4c-0.1,0.8,1.3,1,1.3,1.8c0,0.3,0,0.5,0.1,0.8
	c0.2,0.2,0.5,0.3,0.7,0.3c1.4,0.1,2.6-0.9,3.4-2s1.4-2.4,2.3-3.4c0.1-0.2,0.3-0.3,0.5-0.5c0.3-0.1,0.6-0.2,0.9-0.2
	c0.9-0.2,1.6-1,1.7-1.9C362.5,146.5,362.2,145.9,362,145.3z"/>
<path fill="#EAEAEA" stroke="#D6D6D6" stroke-miterlimit="10" d="M223.2,178.2c-0.4,0.4-1,0.7-1.5,1c-0.5,0.2-1,0.3-1.5,0.6
	s-0.8,0.9-0.6,1.4c0,0.1,0.1,0.3,0.2,0.4c0.4,0.6,0.6,1.3,1.1,1.8c0.4,0.4,1.2,0.3,1.6-0.2c0.2-0.3,0.3-0.6,0.5-1
	c0.6-1.1,1.9-1.5,2.5-2.6c0.2-0.3,0.3-0.6,0.4-1c0.1-0.4,0.2-0.9-0.1-1.3c-0.3-0.4-0.9-0.4-1.4-0.2
	C223.9,177.4,223.6,177.9,223.2,178.2z"/>
<path fill="none" stroke="#D6D6D6" stroke-miterlimit="10" d="M348.9,149.5c-0.5,1.2-3.8,2.6-5.2,4.4c-0.6,0.8-0.9,1.8-1.2,2.7
	c-1.6,3.9-5.7,6.6-6.4,10.7c-0.3,1.7,0,3.6-0.6,5.3c-0.2,0.6-0.6,1.3-0.6,1.9c0,0.7,0.3,1.3,0.6,2c1.5,3,2.9,6,4.2,9.1
	c0.4,1,0.8,2,0.8,3.1c0,0.9-0.4,1.8-0.8,2.6c-1.6,3.5-3.6,6.8-4.9,10.3c-1.3,3.6-1.9,7.6-0.5,11.2c0.3,0.6,0.6,1.3,0.6,1.9
	c0.1,1.4-0.8,2.6-1.3,3.9c-0.9,2.5,0,5.2-0.4,7.8c-0.2,0.9-0.5,1.8-0.5,2.7c-0.1,0.9,0.1,1.7,0.3,2.6c0.6,2.6,2.2,5.2,1.7,7.8
	c-0.3,1.6,0.3,3.6,1.6,4.6s2.8,1.9,3.5,3.4c0.6,1.2,0.4,2.6,0.3,3.9c-0.5,5.8-0.2,11.6,0.6,17.3c0.1,0.8,0.3,1.7,0.9,2.2
	c0.4,0.4,1.1,0.6,1.6,0.8c3.6,1.5,5.5,5.4,7.1,9c0.6,1.3,1.1,2.6,1.3,4.1c0.4,2.4-0.3,4.8-0.7,7.1c-1.2,6.4-1,13.1-0.8,19.6
	c0.1,4,0.3,7.9,1,11.8c0.4,2.2,1,4.3,1.1,6.5c0.1,5.9-3.9,11.2-4.4,17.1c-0.6,7,3.6,13.8,2.4,20.7"/>
<path fill="#EAEAEA" stroke="#D6D6D6" stroke-miterlimit="10" d="M220,349.4c-0.2-0.2-0.4-0.3-0.6-0.4c-0.5-0.1-1,0.2-1.4,0.6
	c-0.5,0.5-1,1-1.3,1.6c-0.2,0.4-0.5,0.9-0.3,1.2c0.5,0.8,1.8,1.3,2.6,0.8c0.5-0.4,0.6-1.1,0.8-1.7C220.2,350.8,220.5,350,220,349.4z
	"/>
<path fill="#7BBCEB" stroke="#4E9BD7" stroke-miterlimit="10" d="M199.3,144c-4.8-0.1-9.7,0.5-14.3,1.8c-1.7,0.5-3.4,1-5.2,1.1
	c-1.6,0.1-3.3-0.2-4.9,0.3c-3.7,1.3-4.2,6.3-7,9c-1,0.9-2.2,1.6-3,2.6c-0.9,1.2-1.2,2.7-1.8,4c-0.9,1.8-2.4,3.2-3.6,4.8
	c-2.5,3.3-3.8,7.6-2.8,11.7c0.4,1.7,1.2,3.2,1.5,4.9c0.3,1.9,0,3.9-0.9,5.5c-0.8,1.4-1.9,2.5-2.7,3.9c-0.8,1.4-1.2,3.1-0.4,4.5
	c1.3,2.1,4.3,1.8,6.7,1.3c2.5-0.6,5.1-1.2,6.7-3.2c0.6-0.7,1-1.7,1.9-1.9c1.7-0.4,4.7,4.5,5.1,5c0.6,0.8-0.2,2,0.2,3.8
	c0.6,2.2,4.1,0.1,5.9,1.5c1.7,1.2,3.1,4.2,4.9,5.2c0.7,0.4,1.5,0.8,2.2,0.7c2-0.3,4.7-0.1,6.7,1.2c1,0.7,1.8,0.6,3,0.4
	c1.8-0.3,3.3-1.5,4.7-2.6c1.4-1.2,2.8-2.4,3.7-4c1.8-3.4,0.5-7.6,1.9-11.1c1.1-3,3.9-4.9,5.6-7.6c0.4-0.5,0.7-1.1,0.7-1.8
	c0.1-1.1-0.7-2.1-0.9-3.2c-0.2-1,0.2-2.1,0.4-3.1c0.6-3.1-0.5-6.4-0.2-9.6c0.2-1.8,0.7-3.5,0.9-5.3c0.4-3.9-1.2-7.8-2.8-11.4
	c-0.9-2.2-1.9-4.4-3.7-6C205.8,144.5,202.4,144.1,199.3,144z"/>
<path fill="none" stroke="#4E9BD7" stroke-miterlimit="10" d="M186.5,210.4c-0.9,3.5-3.4,6.5-4,10.1c-0.3,1.9,0.1,3.9,0.4,5.8
	c0.6,4.4,0.9,8.7,0.9,13.1c0,0.9,0,1.9-0.4,2.7c-0.4,1-1.2,1.7-1.9,2.5c-2.9,3.1-5.1,6.7-6.6,10.6c-0.3,0.7-1.2,2.2-1.3,2.9
	c-0.2,1.1,0.4,2.8,0.5,3.9c0.7,6.9,1.6,12.4,2.3,19.3c0.6,5.9,1.1,12-0.6,17.6c-0.5,1.6-1.2,3.2-1.3,4.8c-0.1,3.2,1.2,6.3,0.6,9.4
	c-0.7,3.9,0.6,8.2-0.8,12c-0.3,0.9-0.7,1.7-1,2.7c-0.6,2.4,0.1,4.9,0.1,7.4c0,2.8-1,5.6-2.8,7.8c-0.6,0.7-1.2,1.4-1.6,2.2
	c-0.3,0.7-0.4,1.5-0.6,2.3c-0.6,2.3-2.2,4.2-2.4,6.5c-0.1,0.9,0,1.9-0.1,2.9c-0.4,2.3-2.2,4-2.9,6.2c-0.2,0.7-0.3,1.4-0.6,2
	c-0.5,0.9-1.6,1.5-1.9,2.6"/>
<g>
	<g>
		<path fill="none" stroke="#585858" stroke-miterlimit="10" d="M378.6,137.7c-0.6,0.4-1.1,0.8-1.7,1.1"/>
		<path fill="none" stroke="#585858" stroke-miterlimit="10" stroke-dasharray="3.9948,0.9987" d="M376.1,139.3
			c-1.5,1-3.1,2.1-4.6,3.1c-1.1,0.8-2.4,1.6-3.8,1.4c-2-0.3-3-2.6-4.5-3.9c-1.8-1.6-4.4-1.9-6.8-2.5c-5.7-1.5-10.5-5.2-15.1-8.8
			c-0.6-0.5-1.3-1-1.6-1.7c-0.5-1.1-0.1-2.5-0.5-3.7c-0.6-1.9-2.7-2.8-3.6-4.6c-0.9-2,0.1-4.5-0.6-6.6c-0.4-1.2-1.4-2.1-2-3.2
			c-0.6-1.1-0.8-2.4-1.5-3.5c-0.6-1.1-1.9-2-3.1-1.6c-1.5,0.5-2.5,2.9-4,2.2c-0.5-0.2-0.8-0.8-1-1.3c-1.3-3.2-2.6-6.3-3.9-9.5
			c-0.6-1.5-1.4-3.2-2.9-3.7c-0.9-0.3-1.9-0.2-2.8-0.1c-4.3,0.3-8.8-0.2-12.9-1.5c-1.4-0.5-2.9-1-4.4-1c-3,0.1-5.9,4.4-8.5,2.9
			c-3.1-1.9-1.7-7.2-1.2-10.8c0.2-1.6-0.6-3.6-1.6-4.8s-3.2-1.6-4.1-0.3c-0.7,1-1.4,3.3-2.2,2.4c-0.9-1,0.1-3.4-1.2-3.9
			c-1.4-0.5-2.1,2.9-3.5,2.6c-1.2-0.3-0.5-3-1.7-3.3c-3.4-0.7-2.8,7-6,8.5c-1.3,0.6-2.4-2.6-3.8-2.1c-2.3,0.8-0.3,6.2-2.6,6.7
			c-1.4,0.3-2.3-3.8-2.9-2.5c-0.8,1.8,1.7,12.1,0.2,18.3c-0.2,0.9-1.3,2.7-2,3.3c-0.7,0.7-2.6,0.7-3.6,0.7c-2.9,0-5.7-1.2-8.5-1.7
			s-6.2-0.1-8,2.2c-1.1,1.5-1.3,3.5-2.1,5.1c-2.1,4-7.4,4.9-10.9,7.7c-4.3,3.3-5.8,9.1-7,14.4c-0.7,3.1-1.1,6.2-0.9,9.3
			c0.4,7.1,3.5,10.6,4.4,14.6c1.1,4.8-1.1,6.6-1.7,11.6c-1.6,12.7-0.4,25.9-4.2,38.4c-2.1,6.9-5,13.6-7.2,20.5
			c-2.2,6.9-2.8,17.5-1.1,21.4c0.7,1.7,1.2,3.5,3,3.5c0.7,0,1.3-0.5,1.8-0.9c1.8-1.5,3.6-3,5.4-4.5c1.4-1.2,2.9-2.4,4.7-2.4
			c2.1,0,3.8,1.5,5,3.2c4.7,6.9,2.3,17-3.9,22.6c-1.6,1.4-3.3,2.6-4.3,4.5c-2.1,3.9,0.4,8.6,0.5,13.1c0.2,6.3-4.2,11.7-5.9,17.8
			c-1.6,5.7-0.7,11.8-0.9,17.8c-0.1,5-1,10-1.5,15c-0.9,8.8-0.4,17.7,0.1,26.6"/>
		<path fill="none" stroke="#585858" stroke-miterlimit="10" d="M208.8,366.6c0,0.7,0.1,1.3,0.1,2"/>
	</g>
</g>
<g>
	<g>
		<path fill="none" stroke="#585858" stroke-miterlimit="10" d="M188.6,212.7c0.7,0,1.3,0,2,0.1"/>
		<path fill="none" stroke="#585858" stroke-miterlimit="10" stroke-dasharray="3.7109,0.9277" d="M191.5,213
			c0.9,0.2,1.8,0.4,2.7,0.7c0.5,0.2,1,0.3,1.5,0.4c2.8,0.6,5-2.3,7.8-2.5c1.3-0.1,2.3,0.3,3.4,1c0.5,0.4,1,0.7,1.5,1.1"/>
		<path fill="none" stroke="#585858" stroke-miterlimit="10" d="M208.7,214c0.5,0.4,1.1,0.8,1.6,1.2"/>
	</g>
</g>
<text transform="matrix(1 0 0 1 179.5415 173.0081)"><tspan x="0" y="0" fill="#FFFFFF" font-family="'Verdana-Italic'" font-size="8">May</tspan><tspan x="0" y="9.6" fill="#FFFFFF" font-family="'Verdana-Italic'" font-size="8">Lake</tspan></text>
<text transform="matrix(1 0 0 1 13.5076 181.0567)"><tspan x="0" y="0" fill="#585858" font-family="'Verdana-Italic'" font-size="8">Mount</tspan><tspan x="0" y="9.6" fill="#585858" font-family="'Verdana-Italic'" font-size="8">Hoffmann</tspan></text>
<text transform="matrix(1 0 0 1 80.614 57.3214)"><tspan x="0" y="0" fill="#585858" font-family="'Verdana'" font-size="8">×</tspan><tspan x="6.5" y="0" fill="#585858" font-family="'Verdana-Italic'" font-size="8"> 10627</tspan></text>
<text transform="matrix(1 0 0 1 3.5766 186.1816)" fill="#585858" font-family="'Verdana'" font-size="8">×</text>
<path fill="none" d="M310.1,342.1c6.5-16.9,18.9-31.5,21.9-49.3c1.3-7.5,0.8-15.2,0.5-22.8"/>
<text transform="matrix(0.4304 -0.9027 0.9027 0.4304 327.2996 313.858)"><tspan x="0" y="0" fill="#7D7D7D" font-family="'Verdana-Italic'" font-size="7">8</tspan><tspan x="4.6" y="0" fill="#7D7D7D" font-family="'Verdana-Italic'" font-size="7" rotate="-2.5">6</tspan><tspan x="9.2" y="-0.2" fill="#7D7D7D" font-family="'Verdana-Italic'" font-size="7" rotate="-5.8">0</tspan><tspan x="13.8" y="-0.7" fill="#7D7D7D" font-family="'Verdana-Italic'" font-size="7" rotate="-9.7">0</tspan></text>
<path fill="none" d="M24.3,313.1c5.8-1.7,31.9-11.9,35.3-13.8"/>
<text transform="matrix(0.9366 -0.3504 0.3504 0.9366 32.3952 312.9918)"><tspan x="0" y="0" fill="#7D7D7D" font-family="'Verdana-Italic'" font-size="7">9</tspan><tspan x="4.5" y="0" fill="#7D7D7D" font-family="'Verdana-Italic'" font-size="7" rotate="-0.4">4</tspan><tspan x="8.9" y="0" fill="#7D7D7D" font-family="'Verdana-Italic'" font-size="7" rotate="-0.7">0</tspan><tspan x="13.4" y="-0.1" fill="#7D7D7D" font-family="'Verdana-Italic'" font-size="7" rotate="-1">0</tspan></text>
<path fill="none" d="M239.3,210.1c-0.8-4.5,0.5-9.2,1.6-13.7c1.3-5.4,2.3-10.8,3.2-16.3c0.9-4.9,1.7-9.7,2.6-14.6"/>
<text transform="matrix(0.217 -0.9762 0.9762 0.217 243.4372 196.8404)"><tspan x="0" y="0" fill="#7D7D7D" font-family="'Verdana-Italic'" font-size="7">9</tspan><tspan x="4.5" y="0" fill="#7D7D7D" font-family="'Verdana-Italic'" font-size="7" rotate="-1.3">2</tspan><tspan x="9" y="-0.1" fill="#7D7D7D" font-family="'Verdana-Italic'" font-size="7" rotate="-2.1">0</tspan><tspan x="13.5" y="-0.3" fill="#7D7D7D" font-family="'Verdana-Italic'" font-size="7" rotate="-2.5">0</tspan></text>
<path fill="none" d="M81.3,136.1c1.7,0.6,3.6,0.3,5.5,0.3c9.4-0.4,18.1,4.6,26.1,9.4"/>
<text transform="matrix(0.9907 0.1358 -0.1358 0.9907 88.9504 138.7764)"><tspan x="0" y="0" fill="#7D7D7D" font-family="'Verdana-Italic'" font-size="7">1</tspan><tspan x="4.1" y="0" fill="#7D7D7D" font-family="'Verdana-Italic'" font-size="7" rotate="8.1">0</tspan><tspan x="8.2" y="0.6" fill="#7D7D7D" font-family="'Verdana-Italic'" font-size="7" rotate="14.3">2</tspan><tspan x="12.4" y="1.6" fill="#7D7D7D" font-family="'Verdana-Italic'" font-size="7" rotate="18.7">0</tspan><tspan x="16.5" y="3" fill="#7D7D7D" font-family="'Verdana-Italic'" font-size="7" rotate="21.5">0</tspan></text>
<path fill="none" d="M265.8,31.9c12.3,3.9,24.1-9.4,34.3-17.2"/>
<text transform="matrix(0.9134 -0.407 0.407 0.9134 277.2488 33.9229)"><tspan x="0" y="0" fill="#7D7D7D" font-family="'Verdana-Italic'" font-size="7">9</tspan><tspan x="4.8" y="0" fill="#7D7D7D" font-family="'Verdana-Italic'" font-size="7" rotate="-7.3">6</tspan><tspan x="9.4" y="-0.7" fill="#7D7D7D" font-family="'Verdana-Italic'" font-size="7" rotate="-12">0</tspan><tspan x="13.9" y="-1.6" fill="#7D7D7D" font-family="'Verdana-Italic'" font-size="7" rotate="-14.7">0</tspan></text>
<path fill="none" d="M159.8,77.8c11.2-11.3,14-28.3,20.6-42.9c5.1-11.3,12.8-21.3,22.3-29.3"/>
<text transform="matrix(0.333 -0.9429 0.9429 0.333 177.0383 50.7501)"><tspan x="0" y="0" fill="#7D7D7D" font-family="'Verdana-Italic'" font-size="7">1</tspan><tspan x="4.4" y="0" fill="#7D7D7D" font-family="'Verdana-Italic'" font-size="7" rotate="0.7">0</tspan><tspan x="8.8" y="0" fill="#7D7D7D" font-family="'Verdana-Italic'" font-size="7" rotate="2.2">0</tspan><tspan x="13.2" y="0.2" fill="#7D7D7D" font-family="'Verdana-Italic'" font-size="7" rotate="4.7">0</tspan><tspan x="17.5" y="0.5" fill="#7D7D7D" font-family="'Verdana-Italic'" font-size="7" rotate="7.8">0</tspan></text>
<g>
	<g>
		<polyline fill="none" stroke="#7D7D7D" stroke-miterlimit="10" points="85.2,341.6 85.2,348.7 275.4,348.7 275.4,341.7 		"/>
		<line fill="none" stroke="#7D7D7D" stroke-miterlimit="10" x1="180.5" y1="341.4" x2="180.5" y2="348.7"/>
		<line fill="none" stroke="#7D7D7D" stroke-miterlimit="10" x1="161.2" y1="349.2" x2="161.2" y2="343.7"/>
		<line fill="none" stroke="#7D7D7D" stroke-miterlimit="10" x1="142.4" y1="349.2" x2="142.4" y2="343.7"/>
		<line fill="none" stroke="#7D7D7D" stroke-miterlimit="10" x1="123.3" y1="349.2" x2="123.3" y2="343.5"/>
		<line fill="none" stroke="#7D7D7D" stroke-miterlimit="10" x1="104.6" y1="349.2" x2="104.6" y2="343.7"/>
	</g>
	<text transform="matrix(1 0 0 1 83.7836 339.1468)" fill="#7D7D7D" font-family="'Verdana'" font-size="8">0</text>
	<text transform="matrix(1 0 0 1 174.2947 339.1468)" fill="#7D7D7D" font-family="'Verdana'" font-size="8">0.5</text>
	<text transform="matrix(1 0 0 1 258.3416 339.1468)" fill="#7D7D7D" font-family="'Verdana'" font-size="8">1 mi</text>
</g>
</svg>
