<?xml version="1.0" encoding="utf-8"?>
<!-- Generator: Adobe Illustrator 17.1.0, SVG Export Plug-In . SVG Version: 6.00 Build 0)  -->
<!DOCTYPE svg PUBLIC "-//W3C//DTD SVG 1.1//EN" "http://www.w3.org/Graphics/SVG/1.1/DTD/svg11.dtd">
<svg version="1.1" id="Layer_1" xmlns="http://www.w3.org/2000/svg" xmlns:xlink="http://www.w3.org/1999/xlink" x="0px" y="0px"
	 viewBox="0 0 360 360" enable-background="new 0 0 360 360" xml:space="preserve">
<path fill="none" stroke="#E1E1E1" stroke-miterlimit="10" d="M274.6,329.2c-0.2-0.2-0.4-0.3-0.7-0.3c-0.9-0.1-1.2,1.3-1,2.2
	c0.6,2.7,1.2,5.9,3.3,7.7c3.6,2.9,8.3,6.2,12.8,5.2c2.7-0.6,4-3.9,6.2-5.5c1.3-0.9,3.7-2.4,2.7-3.6c-3.8-4.5-11.6-1.6-17.5-2.3
	c-0.5-0.1-0.9-0.1-1.4-0.3c-0.7-0.2-1.3-0.7-1.9-1.1C276.5,330.6,275.5,329.9,274.6,329.2z"/>
<path fill="none" stroke="#E1E1E1" stroke-miterlimit="10" d="M270.9,363.8c2.9,2.8,6.3,5.1,10.3,5.2c0.4,0,0.9-0.1,1.2-0.4
	c0.2-0.2,0.2-0.5,0.2-0.8c0.2-1.4,1.1-2.6,2-3.6"/>
<path fill="none" stroke="#E1E1E1" stroke-miterlimit="10" d="M284.5,364.1c8.1-10,18.6-18,30.3-23.3c1-0.4,2-0.9,3.1-0.9
	c1,0,1.9,0.3,2.9,0.4c3.4,0.4,6.5-1.5,9.4-3.4c2.3-1.5,7.3-4.2,5.2-6c-1-0.8-13.9-0.2-20.9,0.2c-0.7,0-1.4,0.1-1.9,0.4
	s-0.9,0.8-1.3,1.1c-2.5,2.1-6.3,0.6-9.5-0.6c-4.7-1.7-9.7-2.3-14.7-2.5c-2.3-0.1-4.6-0.2-6.6-1.3c-0.9-0.5-1.6-1.2-2.5-1.7
	c-2.1-1.4-4.9-2.4-5.5-4.8c-0.3-1-0.1-2.1-0.4-3.2c-0.3-1-1.3-2-2.3-1.6c-0.6,0.3-0.8,0.9-1.3,1.3c-0.9,0.8-2.3,0.7-3.3,1.5
	c-0.9,0.7-1.1,1.9-1.7,2.9c-0.8,1.4-2.1,2.4-3.4,3.4c-7.7,5.9-17.8,20.3-16.8,23.2c1.4,4.1,8.8-1.3,12.9,0.2
	c1.6,0.6,2.9,1.9,4.2,3.1c2.3,2.4,4.6,4.8,6.8,7.3c1.1,1.3,2.3,2.6,3.6,3.8"/>
<path fill="none" stroke="#E1E1E1" stroke-miterlimit="10" d="M299.2,364.5c6.5-5.4,14.3-9.4,21.9-13.3c3.6-1.8,7.2-3.7,10.8-5.5
	c5.6-2.8,11.8-5.8,18-4.4c5,1.1,8.9,4.8,12.2,8.9"/>
<path fill="none" stroke="#E1E1E1" stroke-miterlimit="10" d="M365.1,230.4c-4.5,2.8-9.3,5.1-14.4,6.7c-4.6,1.4-8.5,3-12.7,5.4
	c-2.2,1.3-6.1,1.2-8.3,2.3c-2,1-5,3.8-4.8,6.1c0.3,2.8,1.1,4.8,1.5,7.6c0.1,0.8,2.6,4.6,3.1,5.4c1.6,2.4,3.3,4.7,4.9,7.1
	c0.5,0.7,1,1.5,1.6,2.1c0.5,0.6,1.2,1,1.7,1.6c1,1.1,1.5,2.5,2,3.8c1.3,3.4,2.5,6.7,3.8,10.1c1.8,5,3.7,10,5.1,15.1
	c0.3,1,0.5,2.1,0.1,3.1c-0.3,0.8-1,1.3-1.4,2.1c-0.6,1.1-0.5,2.5-0.7,3.8c-0.8,5.4-6.7,8.3-11.9,9.9c-7,2.2-14.1,4-21.4,4.5
	c-11,0.8-21.9-1.2-32.8-3.2c-0.8-0.2-1.6-0.3-2.4-0.7c-1-0.6-1.6-1.5-2.2-2.5c-1.5-2.3-3-4.6-4.5-7c-1.2-1.8-2.4-3.8-2.3-5.9
	c0.1-2.4,1.5-5.6-0.6-6.7c-1.6-0.8-3.4,0.9-4.4,2.4c-5.6,8.1-11.1,16.2-16.7,24.3c-1.5,2.2-3,4.3-4.7,6.3s-3.7,3.9-5.6,5.7
	c-3.9,3.7-6.7,6.6-9.9,10.7c-0.5,0.7-1.2,1.5-1.8,2.2s-0.8,1.6-1,2.5c-0.5,2.1-0.9,4.2-1.3,6.3c-0.1,0.6-0.2,1.2-0.2,1.7"/>
<path fill="none" stroke="#E1E1E1" stroke-miterlimit="10" d="M365.7,240.5c-1,0.3-2.1,0.6-3,1.2c-1.2,0.6-2.1,1.5-3.2,2.3
	c-2,1.5-4.3,2.6-6.5,3.7c-2.3,1.1-4.4,2.5-6.8,3.3c-0.9,0.3-2.7,0.5-3.6,0.7c-1.6,0.4-3.2,0.9-4.7,1.3c-2.2,0.6-4.9,2-4.3,4.2
	c0.3,1.3,1.7,2.1,2.3,3.3c0.5,1.1,0.3,2.4,0.7,3.6c0.7,2.2,3.2,3.2,5.1,4.6c1.9,1.3,1.1,3.7,2,5.8c1.4,3.3,5.7,3.9,7,7.2
	c4.2,10.3,8,21.5,6.1,32.5c-0.5,3.1-1.6,6.3-4.1,8.3c-1.5,1.3-3.5,1.9-5.2,2.9s-5.2,3.4-3.6,4.5c3.8,2.7,9-2.5,13.5-1.6
	c0.5,0.1,0.9,0.2,1.3,0.5c0.5,0.3,0.9,0.9,1.2,1.4c0.5,0.8,1,1.6,1.6,2.3"/>
<path fill="none" stroke="#E1E1E1" stroke-miterlimit="10" d="M363.3,254.4c-5.2,2.1-10.6,4-16.1,5.5c-1.8,0.5-5.1,2.6-3.5,3.6
	c1.8,1.1,4.1,1,5.3,2.7c1.2,1.7,0.7,4.5,2.4,5.8c0.9,0.7,2.2-0.3,3.2,0c2.4,0.8,0.1,5.4,2,7.1c0.8,0.7,2.1,0.8,2.4,1.8
	c0.3,1.1-1.3,2.6-0.4,3.3c0.8,0.7,2.1,0.4,2.9,1"/>
<path fill="none" stroke="#E1E1E1" stroke-miterlimit="10" d="M318.8,363.8c4.7-3.2,9.6-6.2,14.7-8.7c1.9-1,3.9-1.9,6.1-2.2
	c4.8-0.7,9.5,2,13.3,5.1c1.8,1.5,3.1,3.4,4.1,5.4"/>
<path fill="none" stroke="#E1E1E1" stroke-miterlimit="10" d="M365.5,216.5c-8.2,5.4-16.8,10.7-26.5,11.6c-1.1,0.1-1.6,1.6-2.4,2.3
	c-1.2,1-2.9,1.3-4.4,1.7c-4.7,1.3-8.9,4.1-12.2,7.7c-0.8,0.9-2.8,2.5-3.5,3.6c-3.2,5.4,1,12.5,4.5,17.8c3.5,5.3,7.8,10.3,9,16.6
	c0.3,1.7,0.4,3.4,0.6,5.1c0.5,4.4,1.6,8.8,1.5,13.2c-0.1,4.4-1.9,9.2-5.7,11.4c-3.8,2.2-8.6,1.4-12.6,3c-2.1,0.8-3.9,2.2-6,2.9
	c-3,1.1-6.3,0.9-9.5,0.7c-6.7-0.4-13.6-0.9-19.8-3.5c-0.8-0.3-1.6-0.7-2.1-1.3c-1.1-1.2-1.3-2.9-1.5-4.4c-0.6-5.5-2-10.9-4.1-16
	c-0.9-2.2-0.7-4.5-1.5-6.8c-0.3-0.8-1.7,0.2-2,1.1s-0.2,1.9-0.9,2.5c-0.5,0.5-1.2,0.6-1.8,0.9c-0.7,0.5-1.1,1.3-1.4,2
	c-9.1,19.1-22.5,36.2-39,49.5c-2.2,1.7-3.8,4.2-5.6,6.3c-2.8,3.1-5.6,6.3-8.2,9.6c-2.7,3.5-5.2,7.3-7.3,11.2"/>
<path fill="none" stroke="#E1E1E1" stroke-miterlimit="10" d="M365.5,201.2c-10.5,5.8-21,11.8-31.1,18.2c-0.7,0.4-1.9,1.4-2.7,1.8
	c-4.6,2.2-9.7,2.9-14.6,4.4c-1.4,0.4-2.9,0.9-4.1,1.7c-1.1,0.7-2,1.7-2.8,2.7c-1.5,1.7-3.1,3.4-4.6,5.1c-0.3,0.4-0.7,0.8-0.8,1.2
	c-0.2,0.6-0.1,1.3,0.1,1.9c0.4,1.7,0.8,3.4,1.2,5.1c0.1,0.6,1.1,2.1,1.5,2.5c2.8,2.8,2.1,6.1,2.8,9.9c0.6,4,0.3,8.1,2,11.8
	c0.9,1.9,2.1,3.7,2.9,5.6c0.3,0.6,0.6,1.3,0.5,2.1c-0.1,1.5-1.6,2.4-3,2.8s-2.9,0.4-4.2,1.1c-3.3,1.8-3.1,6.5-4.4,10.1
	c-1.5,4.3-5.7,7.3-10.2,7.9s-9.1-1.2-12.4-4.2c-3.9-3.5-6-8.6-7.6-13.6c-0.7-2.3-2-5.1-4.4-4.8c-1.4,0.2-2.3,1.4-3.1,2.5
	c-3.6,5.1-7.9,9.8-12.5,14c-1.3,1.2-2.7,2.3-3.7,3.7c-1.1,1.5-1.8,3.3-2.6,5c-2,4-5,7.4-7.9,10.8c-1.8,2.1-3.6,4.1-5.8,5.8
	c-2.8,2.1-6.7,4.4-10.5,6.2c-8.2,3.9-13.3,12.4-19.4,19.1c-1.8,2-3.5,3.9-5,6.1c-0.9,1.2-1.6,2.5-2.4,3.8c-2.6,4.4-5.2,8.9-7.5,13.4
	"/>
<path fill="none" stroke="#E1E1E1" stroke-miterlimit="10" d="M364.4,187.9c-9.4,2.4-18.5,5.4-25.3,11.9c-0.2,0.2-0.4,0.2-0.7,0.3
	c-1.7,0.6-4.5,2.8-5.8,4c-3,2.6-6.6,4.6-10.6,4.4c-1.4-0.1-3-0.3-4.2,0.4c-0.5,0.3-0.9,0.8-1.4,1.2c-0.7,0.5-1.6,0.7-2.4,0.9
	c-2.6,0.6-5.2,1.1-7.8,1.7c-1.8,0.4-3.6,0.8-5.4,0.5c-1.6-0.2-3.2-1-4.7-1.5c-0.8-0.3-1.8-0.3-2.2,0.4c-0.2,0.3-0.1,0.7-0.1,1
	c0.3,3,0.7,6,1,9c0.2,1.9,0.4,3.7,0.4,5.6c0,1.9-0.2,3.8-0.3,5.7c-0.2,4.3,1.9,9.1-0.7,12.5c-2.3,3.2-6,2.8-6.1,6.8
	c0,1.5,0.1,2.9-0.4,4.3c-0.4,1.4-1.3,5-2.7,5c-2,0-3.5-4.3-4.5-6c-1.2-2-2.7-4.1-5-4.7c-2.3-0.7-2.9,2.7-5.2,3.2
	c-1.6,0.3-2.5-2.4-4.1-2c-1.5,0.4-2.6,1.7-3.3,3.1c-1.7,3.2-2.1,6.8-2.7,10.4c-0.8,4.8-2,9.7-4.9,13.6c-2.2,3-5.3,5.2-8.3,7.3
	c-4.6,3.3-9.3,6.6-13.9,9.9c-3,2.2-11.7,12.9-15.3,13.7c-15.2,3.3-23.8,20.7-31.6,34.1c-3.7,6.4-6.3,13.4-8.9,20.3"/>
<path fill="none" stroke="#E1E1E1" stroke-miterlimit="10" d="M364.7,170.2c-0.3,0.1-0.6,0.1-0.9,0.2c-10.7,2.6-19.9,8.8-29.6,13.9
	c-3.1,1.6-5.5,4.8-8.5,6.7c-0.8,0.5-1.5,0.9-2.3,1.4c-1.6,1-3.2,1.9-5,2.1c-1.6,0.1-3.2-0.4-4.8-0.5c-1.9-0.1-3.8,0.3-5.7,0.6
	c-5,0.8-10.1,0.8-15.1-0.2c-1.2-0.2-2.5-0.6-2.9-1.7c-0.3-0.6-0.3-1.3-0.7-1.7c-0.6-0.6-1.6-0.2-2.5-0.2c-2,0-3.5-2.4-5.4-2.1
	c-1.6,0.2-2.6,3-4,2.4c-1.3-0.6-1.4-2.5-2.2-3.8c-0.3-0.5-0.6-1.1-1.2-1.1c-0.4-0.1-0.8,0.1-1.1,0.3c-0.7,0.4-1.3,0.8-1.9,1.3
	c-6.3,4.4-12.9,9.1-16.2,16c-0.5,1.1-1,2.3-1.8,3.2s-2.2,0.6-3.3,1.1c-3.1,1.2,0,6.4,0.7,9.6c0.4,1.9,0.5,3.9,0.6,5.9
	c0.1,1.2,0.1,2.5,0.2,3.7c0.2,3.2-2.7,7.8,0,9.5c0.7,0.4,1.3,0.7,1.3,1.5c0,0.7,0.1,2.2,0.1,3c0,2.9,0.6,5.9,0.6,9.1
	c0,2.8-1.5,5.3-3,7.6c-0.4,0.6-0.8,1.3-1.5,1.6c-0.9,0.4-2,0-3,0.4c-0.5,0.2-0.9,0.5-1.3,0.9c-1.9,1.7-4,3.7-4,6.3
	c0,1.5,0.6,3.3-0.6,4.2c-0.7,0.5-1.7,0.4-2.6,0.7c-1.2,0.5-1.8,1.9-2.3,3.1c-2.3,5.2-6.9,9.4-12.3,11.1c-3.7,1.2-8.2,0.3-10.9,3.1
	c-0.7,0.7-1.1,1.6-1.5,2.5c-2.5,4.9-6.5,9.1-11.3,11.8c-2.2,1.2-4.7,2.3-5.7,4.6c-0.4,1-0.5,2.1-1,3c-0.7,1.2-1.9,1.9-2.7,3
	c-1,1.4-0.9,3.3-1.5,5c-0.9,2.4-3.1,4.1-4.7,6.2c-1.7,2.2-2.5,5-3.5,7.6c-3.8,10.9-8.6,21.4-13.4,32"/>
<path fill="none" stroke="#E1E1E1" stroke-miterlimit="10" d="M363.3,29.7c-1.4,0.1-2.8,0-3.7,1c-0.5,0.6-0.6,1.4-1.1,2
	c-1.5,2-5.4,0.6-6.7,2.7c-0.4,0.7-0.4,1.8-1.1,2.2c-0.3,0.2-0.6,0.2-0.9,0.4c-1.1,0.6-1.1,2.2-0.9,3.5c0.3,2,0.7,4,1.2,6
	c0.1,0.5,0.3,1.1,0.8,1.4c0.3,0.1,0.6,0.1,0.9,0.1c2.3-0.4,3.6-2.9,5.7-3.8c1.6-0.6,3.2-0.3,4.9,0.3"/>
<path fill="none" stroke="#E1E1E1" stroke-miterlimit="10" d="M364.4,95.1c-1.9-1.4-4.8-3.3-5.7-3.7c-2.7-1.2-5.2-2.8-7.4-4.7
	c-0.8-0.7-1.6-1.5-2.7-1.7c-0.7-0.2-1.5,0-2.2-0.3c-1.1-0.4-1.7-1.5-2.3-2.4c-2.4-3.7-5.3-9.5-8.9-11.9c-2.3-1.5-1.8-5.2-1.7-8
	c0.1-7.2,0.5-14.5,2.8-21.3c0.6-1.7,2.1-4.8,2.8-6.4c3.2-7.5,9.7-12.9,16-18c2.6-2.1,5.4-4.3,8.3-5.9"/>
<path fill="none" stroke="#E1E1E1" stroke-miterlimit="10" d="M150.3,364.6c0.2-0.3,0.4-0.5,0.6-0.8c4.1-5.8,7.9-11.8,11.5-17.9
	c3.3-5.6,6.4-11.4,8-17.7c0.8-3.4,2.8-6.6,4.7-9.5c6.8-10.3,5.3-24,8-36.1c0.9-4,1.8-8.1,4.2-11.4c1.4-1.9,3.2-3.5,4.9-5.1
	c3.2-3.1,6-6.7,8.6-10.4c8.1-11.8,13.7-25.4,16.3-39.5c1.5-8,2-16.1,2.3-24.3c0.2-6.2-0.1-15.7,5.9-16.7c3.2-0.6,8.3,0.9,9.3,4
	c0.2,0.7,0.5,1.3,1.2,1.5s1.5,0.2,1.9,0.8c0.4,0.5,0.2,1.3,0.6,1.8c0.3,0.5,1,0.6,1.6,0.6c2.2,0.1,4.3-0.7,6.4-1.4
	c4.7-1.7,9.4-3.4,14.1-5c2.1-0.7,4.3-0.9,6.5-1.5c4.9-1.2,7.4,3.9,8.9,3.7c1.2-0.2,1.1-2.2,2.3-2.4c1.2-0.2,2.4,0.1,3.6,0.1
	c4-0.1,7.2-3.7,11.2-4.3c3.1-0.4,6.1,1.1,9.3,1.2c2.3,0.1,4.6-0.7,6.8-1.4c0.6-0.2,1.2-0.4,1.7-0.8c0.5-0.3,0.9-0.8,1.3-1.2
	c2.4-2.1,6-1.5,9.2-1.6c3.8-0.1,7.6-1.2,10.7-3.3c2.5-1.6,5.6-2.7,8.5-3.1c4.4-0.6,4.9-4,8.4-6.7c2.2-1.7,4.4-3.4,7.1-3.9
	c1-0.2,2.1-0.2,3.1-0.6c1.6-0.6,2.6-2.1,4-3.1c0.5-0.3,1-0.6,1.6-0.8"/>
<path fill="none" stroke="#E1E1E1" stroke-miterlimit="10" d="M363.7-3c-0.9,0.3-1.7,0.8-2.5,1.4c-1.2,0.9-1.5,2.5-2.7,3.4
	C350.2,8,342,14.2,333.8,20.5c-1.6,1.2-2,3.6-2.8,5.4c-0.6,1.4-1.2,2.9-2,4.3c-0.6,1.1-1.4,2.1-2.1,3.1c-2.4,3.5-4.1,7.5-6.1,11.2
	c-0.9,1.8-1.8,3.6-2.7,5.4c-2.3,4.8-5.1,9.5-6.6,14.7c-0.9,3.2-1.4,6.6-1.3,9.9c0,1.5,0.2,3.1,0.9,4.4c0.4,0.8,1,1.6,1.7,2.3
	c1.6,1.9,3.2,3.8,5.1,5.3c1.2,1,2.5,1.8,3.8,2.7c2.1,1.5,4.1,3.3,5.8,5.3c2.3,2.7,4.2,5.7,6.2,8.7c1,1.4,1.9,2.9,2.9,4.3
	c0.8,1.2,3,3.2,3.6,4.2c2.6,4.3,1.4,4.8,5.9,11.2c0,0.7-0.6,2.5-1,3c-1.4,2.1-1.2,4.8-1.5,7.2c-0.5,4.6-4,13.1-7.8,15.8
	c-3.2,2.3-6.5,5.3-8.6,8.6c-0.2,0.3-0.4,0.6-0.7,0.8c-0.3,0.2-0.6,0.2-0.9,0.2c-2.9,0.4-5.7,1.5-7.9,3.4c-0.6,0.5-1.2,1.1-1.9,1.5
	c-1,0.5-2.2,0.6-3.3,0.6c-2.3,0.1-4.7,0.4-6.9,1c-3,0.9-6,2.5-9.1,2c-3.5-0.5-6.7-3.7-10-2.7c-0.7,0.2-1.3,0.6-1.9,0.9
	c-2.7,1.3-5.7,1.6-8.7,1.8c-0.5,0-1.2,0-1.3-0.5c-0.1-0.2,0-0.5-0.1-0.8c-0.1-0.6-0.8-0.8-1.4-0.9c-3.4-0.7-6.8-1.4-10.2-2.1
	l-5.2-1.1c-2-0.4-3.9-1-5.7-1.8c-0.4-0.2-0.8-0.4-1.1-0.7c-0.7-0.7-1.1-1.6-1.7-2.4c-0.6-0.8-1.7-0.3-2.5-0.8c-1.6-0.8-2-2.8-3.8-3
	c-6.4-0.8-12.7-5.6-18.6-3.1c-2,0.9-3.7,2.3-5.3,3.9c-4.3,4.4-7.5,9.9-9.2,15.9c-0.2,0.7-0.4,1.5,0,2.1c0.4,0.8,1.4,1,2.1,1.6
	c1.1,0.9,1.3,2.6,1.3,4c0.3,15.2,0.1,30.8-5.5,44.9c-4.2,10.5-11.3,19.6-18.3,28.5c-1.5,1.9-3,3.9-5,5.3c-1.7,1.2-3.7,1.9-5.5,3
	c-6.5,3.7-10.1,11.3-10.8,18.7c-0.3,3.4-0.1,6.9-1,10.3c-0.8,2.8-2.4,5.3-3.6,7.8c-2.5,5.3-5.6,10.3-9.4,14.8
	c-4.1,4.8-8.1,10.1-12.1,15c-3.2,3.9-6.4,7.8-9,12.2c-2.5,4.2-4.4,8.6-6.3,13.1c-2,4.8-4.1,9.7-5.8,14.7"/>
<path fill="none" stroke="#E1E1E1" stroke-miterlimit="10" d="M104.6,366.3c0.5-1.9,1.1-3.7,1.6-5.6c1.5-5.1,2.9-10.2,4.4-15.3
	c3.1-10.6,6.1-21.3,11.1-31.2c3.7-7.4,8.4-14.3,14-20.4c0.7-0.8,1.5-1.6,2-2.6s0.7-2.1,1-3.1c1.2-3.4,4.3-6,5.2-9.5
	c0.7-2.6,0.2-5.4,0.1-8.1c-0.1-2.7,1.3-5.2,2.6-7.6c0.9-1.6,0.3-3.7,0.4-5.5c0.1-1,0.1-2-0.3-2.9c-0.8-1.6-2.8-2-4.5-2.6
	s-2.2-2.2-2.9-3.8c-1.6-4.3-9.6,0.9-13.3-1.8c-1.9-1.4-2.6-3.9-3.2-6.3c-0.8-3.3-1.6-6.6-2.4-9.9c-0.3-1-0.5-2.1-0.4-3.2
	c0.1-1.1,0.7-2.2,1.3-3.2c3.5-5.9,7.2-11.6,11-17.3c1.2-1.8,2.4-3.6,3.9-5c1.7-1.6,3.9-2.7,5.9-4c5.5-3.3,10.5-7.5,14.6-12.4
	c1.7-2,3.2-4.2,4-6.6c2-6.5-1.7-14.7,2.8-19.8c2-2.3,5.4-3.5,6.7-6.3c0.6-1.2,0.7-2.6,1.2-3.9c1-2.5,3.4-4.1,5.3-6.1
	c3.2-3.4,4.7-8.4,3.9-13c-0.2-1.3-0.6-2.6-0.4-3.8c0.3-2.5,2.5-4.2,4.5-5.6c2.7-1.9,8.5-2.5,8.1-5.8c-0.1-1.1-2.7-0.3-2.9-1.3
	c-1.1-4,6.3-5.8,10.4-6.4c1-0.2,2.1-0.2,3-0.8c0.9-0.6,1.4-1.9,0.7-2.7c-0.4-0.5-1.2-0.7-1.6-1.3c-0.7-1,0.3-2.3,1.2-3.1
	c1.4-1.1,3-2.2,4.1-3.6c1.1-1.5-0.2-3.4,0.5-5.1c1.1-2.8,3.3,4,6.2,5.1c2.4,1,3.6-3.9,6-4.8s5.8-0.3,7.6,1.5
	c2.1,2.1,4.8,4.1,7.5,5.1c3,1.1,4.3-2.7,7.4-3.3c3.3-0.6,5.1,6.3,8.1,4.9c1.5-0.7,0.1-3.3,0.6-4.9c1.2-3.7,8.2-1.2,10-4.6
	c0.8-1.6,0-3.6,0.5-5.4c0.7-2.2,3.3-3,5-4.4c5.5-4.6,2.1-15.3,8.1-19.3c1.2-0.8,2.8-1.3,3.5-2.5c0.5-0.8,0.6-1.7,0.8-2.5
	c0.9-2.8,3.5-4.5,5.7-6.4c3.7-3.2,6.6-7.4,8.4-12c2.3-6.1,2.8-13.3,7.5-17.7c3.3-3,7.9-4,12-5.5c4.2-1.5,8.5-4.2,9.5-8.5
	c0.4-1.9,0.2-4.1,1.6-5.4c0.5-0.5,1.1-0.8,1.7-1c0.9-0.4,1.8-0.9,2.7-1.3"/>
<path fill="none" stroke="#E1E1E1" stroke-miterlimit="10" d="M176.9,109.6c-2.6,1.2-5.4,2.5-6.7,5.1c-0.5,0.9-0.7,2-1.2,2.9
	c-0.7,1.4-2.6,1.9-3.2,3.4c-0.3,0.8,0.8,1.5,1.5,1.9c1.1,0.7,2.5-0.1,3.6-0.8c1.9-1.2,3.8-2.4,5.4-4c2.7-2.6,7.6-6.7,5.5-9.8
	C180.8,107,178.5,108.9,176.9,109.6z"/>
<path fill="none" stroke="#E1E1E1" stroke-miterlimit="10" d="M97.5,158.3c0.4-0.1,0.8-0.3,1.2-0.6c1.5-1.1,3.1-2.4,3.6-4.2
	c0.3-1.2,0.9-2.5,0.7-3.7c-0.1-0.5-0.7-0.7-1.1-0.9c-1.1-0.5-2.4,0.3-3.2,1.2c-1.6,1.5-3,3.4-3.1,5.5
	C95.4,156.9,96.2,158.5,97.5,158.3z"/>
<path fill="none" stroke="#E1E1E1" stroke-miterlimit="10" d="M264.3-4.7c-1.3,1.6-2.9,3-4.4,4.3c-3.5,3-7.1,7.1-6,11.5
	c0.8,3.2,0.3,7.2-2,9.6c-2.2,2.4-5.2,4-7.1,6.7c-1.4,2.1-2,4.6-3,6.9c-2,4.7-5.1,12.6-10,11.2c-5.4-1.6-9.8-5-15.4-4.1
	c-14.1,2.1-27.9,5.6-41.3,10.5c-3.8,1.4-7.6,2.8-10.9,5.1c-6.4,4.3-16.3,12.9-11.8,19.3c1.2,1.7,5.7,2,4.7,4
	c-2,4.1-12.1,3.2-11.1,7.7c0.5,2.4,5.2-1.7,7.1,0c3.4,2.9-3.9,8.1-5.9,12c-6.1,11.9-11.2,24.4-14.1,37.5c-0.4,1.9-0.8,3.8-1.8,5.4
	c-0.7,1.1-1.6,2-2.6,2.9c-8.3,8.1-15.8,17.1-22.1,26.9c-2.1,3.2-4.1,6.8-3.5,10.6c0.4,2.8,2.3,5.3,3,8.1c1,4-0.6,8.1-2.2,12
	c-3.2,7.9-5.4,16.3-6.8,24.7c-1.1,6.6-1.9,13.2-2.6,19.8c-0.5,4-4.3,11.4-0.4,10.9c2.6-0.3,2.9-8,4.2-5.8c3.2,5.2-6.8,30.3-1.3,35.1
	c2.2,2,6.2-4.2,8.5-2.4c6.1,4.7-4.5,14.5-6.9,21.9c-2.4,7.7-2.4,16-3.3,24.1c-1.1,10.5-3.7,20.7-6,31c-0.2,1-0.4,1.9-0.7,2.9"/>
<path fill="none" stroke="#E1E1E1" stroke-miterlimit="10" d="M-9.9,344.9c-0.1,0.5,0.7,0.7,1.2,0.5c2.6-0.9,4.3-3.5,5.2-6.1
	s1.3-5.4,2.5-7.9c1.7-3.6,4.9-6.5,5.7-10.4c0.7-3.2-0.3-7,1.8-9.5c0.9-1.1,2.2-1.8,3-2.9c0.7-0.9,1-2,1.3-3.1
	c4.2-14,10.2-27.8,20.1-38.6c1-1,2-2.1,2.5-3.4c0.7-1.5,0.9-3.4,2.3-4.1c1.6-0.7,2.8,2.3,4.5,1.9c1.9-0.5,3-2.3,5-2.5
	c4.6-0.4,8.3-5.1,12.9-4.6c7.3,0.8,8.1,12.2,9.8,19.3c0.9,3.7,0,7.8,1.7,11.2c0.8,1.5,1.6,3.1,1,4.7c-0.5,1.6-1.6,3-2.7,4.3
	c-4.3,5.5-14.2,11.4-11.1,17.6c0.7,1.3,3.1-0.2,4.3,0.7c1,0.8-0.5,3.1,0.6,3.9c1.9,1.4,4.8,0.9,5.4,3.1c0.6,2.3-2,4.5-1.4,6.8
	c0.3,1.2,2.6-0.3,3.6,0.4c2.3,1.9-3.4,7.3-5.8,5.7c-1.7-1.2-1.3-4.1-2.9-5.5c-1.6-1.4-4.3-1.7-5.6-0.1c-0.6,0.7-0.8,1.7-0.9,2.7
	c-0.6,4.1-0.6,8.2,0.1,12.3c0.3,1.9,1.7,4.3,3.5,3.7c0.7-0.2,1.1-0.8,1.6-1.4c1.8-2.3,2.5-7.6,5.3-6.8c4.4,1.3-4.9,20.4-5.9,27.1"/>
<path fill="none" stroke="#E1E1E1" stroke-miterlimit="10" d="M-9.9,149.9c5-14.2,15.8-25.4,26.3-36.2
	c12.2-12.5,25.3-25.5,42.3-29.5c3.1-0.7,5.8,1.3,9.1,1.5c4.5,0.2,8.7-1.1,12.9-2.5c2.7-0.9,4.7-3.1,6.8-5c8.9-8,21.2-10.8,31.1-17.4
	c4.8-3.2,7.2-8.5,10.1-13.4c6.2-10.5,27.5-8.2,30.6-20c1.1-4.3-1.2-8.9,1.6-12.3s9.4-3.4,10.8-7.6c1.6-4.7-8-5.6-12.9-4.8
	c-4.9,0.7-9.6,2.8-14.5,2.3c-2.3-0.2-4.6-1-6.9-0.8c-3.3,0.2-6.3,2.3-9.5,3.2c-6.7,2-13.8-1-20.8-1.2C97,5.9,92.2,25.3,83.1,21.3
	c-8.2-3.6-4-16.3-1-26.3"/>
<path fill="none" stroke="#E1E1E1" stroke-miterlimit="10" d="M71.3-5.6C66.5,8.9,64,24.1,64,39.3c0,0.8,0,1.7-0.4,2.5
	c-0.4,0.9-1.3,1.5-2.2,2.1c-2.8,1.8-5.6,3.6-8.3,5.3c-4.1,2.6-8.3,5.3-12.8,7.2c-3.7,1.6-7.6,2.7-10.9,5s-5.9,6.1-5.3,10.1
	c0.2,1.1,0.6,2.3,0.3,3.4c-0.4,1.3-1.8,2.1-3,2.7c-6.3,3.1-7.8,9.9-12.6,15.1C7,94.6,4.3,95,2.9,97c-4.3,6.4-8.5,12.7-12.8,19.1"/>
<path fill="none" stroke="#E1E1E1" stroke-miterlimit="10" d="M-10.6,44.6C-3.8,37.9,3.1,31,11.7,26.9c2.1-1,4.2-1.8,6.1-3.2
	c3.1-2.3,5.1-6,8.7-7.5c2.1-0.9,4.4-0.8,6.6-1.3c2.5-0.5,4.8-1.6,6.8-3.2c4.6-3.7,6.6-9.4,9-14.9"/>
<path fill="none" stroke="#E1E1E1" stroke-miterlimit="10" d="M16.6-2.5c-0.9,0.3-1.8,0.6-2.6,1.2c-1,0.8-1.6,2-2.6,2.8
	C10,2.6,8,2.6,6.3,3.2C3.8,4,1.9,5.8,0,7.6c-3.4,3.3-6.8,6.5-10.2,9.8"/>
<path fill="none" stroke="#D6D6D6" stroke-miterlimit="10" d="M259.9-5.8c-6.7,8-18,11.9-28.2,9.6C228.8,3.2,226,2.1,223,2
	c-3-0.1-6.3,0.9-7.7,3.5"/>
<path fill="none" stroke="#D6D6D6" stroke-miterlimit="10" d="M64.3,335.9c-0.3,1.6-0.6,3.3-0.9,4.9c-0.4,2-0.7,4-1.5,5.9
	c-1,2.4-2.5,4.5-4.1,6.5c-2.8,3.8-5.5,7.6-7.5,11.8"/>
<path fill="none" stroke="#D6D6D6" stroke-miterlimit="10" d="M30.6,291.8c-1,0.2-1.7,1.3-1.6,2.3c0.1,0.9,0.7,1.6,0.8,2.4
	c0.1,0.9-0.8,0.8-1.5,1.3c-1.2,0.7,0.6,2.8,0.1,4.1s-2,0.9-3.3,1.4c-0.9,0.3,1.1,1.4,1,2.3c-0.1,0.8-1.3,0.9-1.6,1.6
	c-2,3.9-3,8.2-2.9,12.5c0,1.6,0.2,3.2,0.8,4.7c0.8,2.1,2.4,3.9,3,6.1c0.4,1.9,0.1,3.8-0.3,5.7c-0.4,1.8-0.7,3.6-1.1,5.4
	c-1.6,7.9-3.3,15.7-5.8,23.4"/>
<path fill="none" stroke="#D6D6D6" stroke-miterlimit="10" d="M365,122.5c-2.8-0.4-5.5-0.8-8.3-1.2c-0.5-0.1-1.1-0.1-1.5,0.1
	c-0.4,0.3-0.6,0.8-0.9,1.3c-0.8,1.1-2.3,1.6-3.7,1.5c-1.4-0.1-2.7-0.6-4-1.1c-3.4-1.2-7.1-1.9-10.7-2c-1.9-0.1-4,1-5.7,1.9
	c-2.3,1.2-4.8,1.8-7.3,2.5c-1.7,0.4-3.4,0.9-5.2,0.9c-0.7,0-1.5-0.1-2.1,0.1c-0.5,0.2-1,0.5-1.6,0.6c-1.1,0.4-2.3,0.1-3.4,0.1
	c-1.2,0-1.7,0.5-2.6,0.9"/>
<path fill="none" stroke="#D6D6D6" stroke-miterlimit="10" d="M281.1,145.6c0.9,3.1-1.3,6.2-2.3,9.4c-0.9,2.9-0.8,6.1-2.2,8.7
	c-0.6,1.1-1.4,2-2,3.1c-2,3.5-1.7,8.1,0.6,11.3c0.4,0.5,0.8,1,1.1,1.6c0.3,0.6,0.3,1.2,0.4,1.8c1.9,9.2,0.7,27.6,0.7,28.3"/>
<path fill="#7BBCEB" stroke="#4E9BD7" stroke-miterlimit="10" d="M176.4,173.5c-0.5,1.7-1.2,3.3-2.1,4.7c-0.6,0.9-1.3,1.8-1.3,2.9
	c0,1.1,0.7,2.1,1.5,2.8s1.8,1.3,2.6,2c0.7,0.7,1.2,1.5,2,2.1c0.7,0.6,1.7,1.1,2.7,0.8c0.8-0.3,1.4-1.1,1.6-1.9s0.3-1.7,0.3-2.6
	c0.2-2.1,1-4.2,2-6.1c0.5-0.9,0.9-2.1,0.2-2.8c-0.3-0.3-0.7-0.4-1-0.6c-1.1-0.8-0.7-2.5-0.9-3.8c0-0.3-0.1-0.5-0.2-0.7
	c-0.2-0.3-0.5-0.5-0.8-0.7c-0.8-0.5-1.6-1-2.5-0.9c-1,0.1-1.7,0.9-2.3,1.6c-0.4,0.4-0.8,0.9-1.1,1.4
	C176.7,172.3,176.5,172.9,176.4,173.5z"/>
<path fill="#EAEAEA" stroke="#D6D6D6" stroke-miterlimit="10" d="M271,226.4c0.9-2.3,0.6-5.1,2-7.1c0.5-0.6,1.1-1.2,1.5-1.9
	c0.4-0.9,0.2-2,0.4-3.1c0.2-1,1.3-1,2.2-1.5c0.8-0.5-0.3-2.2,0.5-2.8c0.9-0.6,3.1,1.8,4.6,3.3c0.2,0.2,0.4,0.4,0.5,0.7
	c0.1,0.4-0.1,0.8-0.2,1.2c-0.2,1,0.1,2.2,0.9,2.9c0.7,0.6,1.8,1.1,1.7,2.1c0,0.4-0.3,0.7-0.5,1c-1.4,2.1-2.1,4.7-2.8,7.1
	c-0.7,2.5-1.6,5-3.4,6.8s-4.6,3-6.9,2c-0.3-0.1-0.6-0.3-0.8-0.5c-0.7-0.6-1.1-1.4-1.3-2.3c-0.3-1.1-0.5-2.3-0.3-3.5
	C269.3,229.3,270.4,227.9,271,226.4z"/>
<path fill="#EAEAEA" stroke="#D6D6D6" stroke-miterlimit="10" d="M264.3,111.9c-1-1-2.4-1.6-3.8-1.8c-1.4-0.1-2.7,0.2-4,0.6
	c-2.2,0.7-4.4,1.7-6.5,2.9c-1,0.6-2.1,1.2-2.8,2.2s-0.8,2.4,0,3.3c0.9,1.1,2.6,1,4.1,0.9c4.1-0.3,8.2,0.4,12.2,1.1
	c0.6,0.1,1.8,0.9,2.4,1.3c2,1.6-1.2,1.8-0.4,3.1c1,1.7,3.7-1.8,6.4,2.4c1.3,2.1,1.8,4.5,1.8,7c0,2.4-0.3,4.9,0,7.3
	c0.1,0.8,0.3,1.6,0.8,2.2c0.5,0.5,1.1,0.8,1.8,1c4.7,1.3,9.8-0.8,14.4,0.8c1.4,0.5,2.7,1.4,3.7,2.5c0.4,0.4,0.7,0.8,1.1,1.1
	c0.5,0.3,1,0.4,1.5,0.5c4.2,0.8,9,1.5,12.1-1.4c3-2.7,2.9-7.5,1.9-11.4c-2.3-9.2-8-17.1-11.2-26c-0.6-1.8-1.7-3.3-3.4-4
	c-1.4-0.6-2.6-0.5-4-0.9c-2.9-0.7-4.1-4.4-6.7-5.9c-0.5-0.3-1.1-0.5-1.6-1c-0.3-0.4-0.5-0.9-0.6-1.4c-0.4-1.4-0.8-2.8-1.2-4.1
	c-0.3-0.9-0.6-2-1.5-2.3c-0.8-0.3-1.7,0-2.4,0.4c-2.9,1.5-5.4,3.8-7.8,6c-0.3,0.3-0.6,0.5-0.6,0.9c-0.1,0.4,0.2,0.8,0.3,1.1
	c0.6,2-2.1,3.4-2.7,5.4c-0.7,2.3,1.3,5.3-0.4,6.9c-0.3,0.3-0.8,0.5-1.2,0.5C265.3,113,264.8,112.4,264.3,111.9z"/>
<path fill="none" stroke="#D6D6D6" stroke-miterlimit="10" d="M259.4,110.1c-1.1-2.7-3.1-5.7-5.4-8.1c-0.4-0.4-0.6-0.9-0.9-1.4
	c-2.5-3.8-4.6-8-7-11.8c-0.8-1.2-1.8-2.4-2.7-3.5c-1.5-2-3-3.1-4.4-5.1c-1.4-1.8-3.2-3.7-4.4-5.8c-1.1-2-1.2-3.3-2.1-5.4
	c-0.9-2.1-2.4-3.9-3.5-6c-1.1-2-1.9-4.4-1.2-6.6c0.5-1.6,1.7-2.9,2.4-4.4c1-2,1.1-4.2,1.3-6.4c0.2-3.2,0.9-6.1,1.1-9.3
	c0.1-1.2,0.5-2.5,0.8-3.8c0.4-1.5,0.3-3.3-0.3-4.7c-0.4-0.9-0.6-1.9-1.1-2.7c-0.8-1.3-0.3-2.3-0.3-3.9c0.1-3.2-5.7-9.7-10.3-13.2
	c-1.8-1.4-3.8-2.8-6.1-2.7c-2,0.1-3.7,1.3-5.5,1.9c-2.3,0.7-4.8,0.4-7.2,0.2c-9.3-0.8-18.6-0.7-27.9-0.5c-8.2,0.1-17.1,0.5-23.7,5.4
	c-4.5,3.3-7.7,8.6-13.1,10.2c-7,2-14.7-3.5-21.6-1.1c-6.3,2.2-9,9.7-14.3,13.7c-2.3,1.7-5,2.7-7.6,3.6c-5.2,1.9-10.4,3.8-15.6,5.7
	c-3.1,1.1-6.8,4.5-9.5,2.6c-0.9-0.7-0.6-2.2-0.9-3.3c-0.6-2.2-3-3.2-4.8-4.6c-2.2-1.7-4.6-3.1-7-4.5c-1.7-0.9-3.3-1.9-5-2.8
	c-0.5-0.3-1-0.6-1.3-1c-0.9-1-0.9-2.5-1.9-3.4c-0.8-0.7-2-0.8-2.8-1.5c-1.2-1.1-0.9-3.3-2-4.6c-0.5-0.6-1.3-0.9-1.9-1.4
	c-0.7-0.6-1.3-1.3-1.7-2.1c-1.9-2.9-3.4-5.9-4.7-9.1C35.2,8.4,35,8,34.7,7.6c-1.4-1.6-4.4-0.4-6-1.9c-0.5-0.4-0.8-1-1-1.6
	C26.8,2.4,26,0.7,25.2-1c-0.2-0.3-0.3-0.7-0.5-1"/>
<path fill="#FFFFFF" stroke="#D6D6D6" stroke-miterlimit="10" d="M275,99.5c0.5,0.2,1-0.2,1.2-0.7c0.2-0.4,0.5-1,0.2-1.3
	c-0.4-0.3-1.2-0.2-1.6,0.1C274.2,98,274.4,99.2,275,99.5z"/>
<path fill="#FFFFFF" stroke="#D6D6D6" stroke-miterlimit="10" d="M262.8,115.7c-0.5,0-0.9,0.5-0.9,1s0.6,1.1,1,0.8
	c0.4-0.3,0.4-0.5,0.5-0.9C263.6,116.2,263.3,115.7,262.8,115.7z"/>
<g>
	<g>
		<path fill="none" stroke="#585858" stroke-miterlimit="10" d="M-8,80.8c0.6-0.3,1.2-0.6,1.8-0.9"/>
		
			<line fill="none" stroke="#585858" stroke-miterlimit="10" stroke-dasharray="1.000590e-02,0" x1="-5.3" y1="79.4" x2="-5.3" y2="79.4"/>
		<path fill="none" stroke="#585858" stroke-miterlimit="10" stroke-dasharray="4.0024,0.9906,1.000590e-02,0" d="M-5.3,79.4
			c2.5-1.5,4.8-3.2,6.8-5.3c3.2-3.2,5.8-7.3,10-9c3.8-1.6,8.1-0.8,12.2-0.2c5.6,0.9,11.3,1.6,16.9,0.9c4.4-0.6,8.7-2.1,12.9-3.8
			c9.2-3.8,18.1-8.4,27.7-10.8c2.5-0.6,5.1-1.1,7.6-1.9c4.1-1.4,7.7-3.8,11.4-6c10.3-6.2,21.4-11,33-14.3c5-1.4,9.9-3.9,13.2-8
			c0.8-1,1.5-2.1,2.4-3c1.5-1.5,3.5-2.2,5.5-2.8c7.8-2,22.7-1.2,30.7-2.3c6.3-0.9,3.3-4,12.3-1.6c3.4,0.9,6.7,3.6,9.5,5.8
			c7.3,5.5,13.1,11.9,15.7,20.7c2.1,7.1,1.3,15.4,3,22.7c1,4.3,3.1,6.3,4.7,9.2c3.4,6.3,7.3,11.7,13,19.7
			c2.7,3.8,7.4,11.9,10.5,16.7"/>
		<path fill="none" stroke="#585858" stroke-miterlimit="10" d="M253.6,105.9c0.4,0.6,0.8,1.2,1.1,1.7"/>
	</g>
</g>
<text transform="matrix(1 0 0 1 287.1846 204.3846)" fill="#585858" font-family="'Verdana-Italic'" font-size="8">McCabe Lakes</text>
<text transform="matrix(1 0 0 1 287.1846 213.9846)" fill="#585858" font-family="'Verdana-Italic'" font-size="8">(south)</text>
<text transform="matrix(1 0 0 1 210.9474 136.1794)" fill="#585858" font-family="'Verdana-Italic'" font-size="8">McCabe Lakes</text>
<text transform="matrix(1 0 0 1 238.8474 145.7794)" fill="#585858" font-family="'Verdana-Italic'" font-size="8">(north)</text>
<text transform="matrix(1 0 0 1 190.7743 176.1794)" fill="#7BBCEB" font-family="'Verdana-Italic'" font-size="8">McCabe Lakes</text>
<text transform="matrix(1 0 0 1 190.7743 185.7794)" fill="#7BBCEB" font-family="'Verdana-Italic'" font-size="8">(west)</text>
<path fill="none" d="M278.4,310.5c6.2,2.6,13.1,3.1,19.8,3.5c3.2,0.2,6.5,0.4,9.5-0.7"/>
<text transform="matrix(0.9498 0.3128 -0.3128 0.9498 277.9529 313.1954)" fill="#7D7D7D" font-family="'Verdana-Italic'" font-size="7">1</text>
<text transform="matrix(0.9498 0.3128 -0.3128 0.9498 282.4171 314.6654)" fill="#7D7D7D" font-family="'Verdana-Italic'" font-size="7">1</text>
<text transform="matrix(0.9498 0.3128 -0.3128 0.9498 287.0687 315.5658)" fill="#7D7D7D" font-family="'Verdana-Italic'" font-size="7">0</text>
<text transform="matrix(0.9498 0.3128 -0.3128 0.9498 291.5294 316.0872)" fill="#7D7D7D" font-family="'Verdana-Italic'" font-size="7">0</text>
<text transform="matrix(0.9498 0.3128 -0.3128 0.9498 296.0526 316.4188)" fill="#7D7D7D" font-family="'Verdana-Italic'" font-size="7">0</text>
<path fill="none" d="M189.2,251c7-8.9,14.1-18,18.3-28.5"/>
<text transform="matrix(0.5942 -0.8043 0.8043 0.5942 196.3605 245.8858)" fill="#7D7D7D" font-family="'Verdana-Italic'" font-size="7">1</text>
<text transform="matrix(0.5942 -0.8043 0.8043 0.5942 199.0345 242.2666)" fill="#7D7D7D" font-family="'Verdana-Italic'" font-size="7">0</text>
<text transform="matrix(0.5942 -0.8043 0.8043 0.5942 201.6874 238.5069)" fill="#7D7D7D" font-family="'Verdana-Italic'" font-size="7">0</text>
<text transform="matrix(0.5942 -0.8043 0.8043 0.5942 204.12 234.71)" fill="#7D7D7D" font-family="'Verdana-Italic'" font-size="7">0</text>
<text transform="matrix(0.5942 -0.8043 0.8043 0.5942 206.451 230.7129)" fill="#7D7D7D" font-family="'Verdana-Italic'" font-size="7">0</text>
<path fill="none" d="M58.3,254.1c7.3,0.8,8.1,12.2,9.8,19.3c0.9,3.7,0,7.8,1.7,11.2"/>
<text transform="matrix(0.277 0.9609 -0.9609 0.277 62.7063 261.5234)" fill="#7D7D7D" font-family="'Verdana-Italic'" font-size="7">9</text>
<text transform="matrix(0.277 0.9609 -0.9609 0.277 63.8977 265.6553)" fill="#7D7D7D" font-family="'Verdana-Italic'" font-size="7">4</text>
<text transform="matrix(0.277 0.9609 -0.9609 0.277 64.7317 269.9941)" fill="#7D7D7D" font-family="'Verdana-Italic'" font-size="7">0</text>
<text transform="matrix(0.277 0.9609 -0.9609 0.277 65.7717 273.9615)" fill="#7D7D7D" font-family="'Verdana-Italic'" font-size="7">0</text>
<path fill="none" d="M285.2,48.3c3.7-3.2,6.6-7.4,8.4-12c2.3-6.1,2.8-13.3,7.5-17.7"/>
<text transform="matrix(0.5936 -0.8048 0.8048 0.5936 290.4478 46.7729)" fill="#7D7D7D" font-family="'Verdana-Italic'" font-size="7.0002">9</text>
<text transform="matrix(0.5936 -0.8048 0.8048 0.5936 293.2966 42.9104)" fill="#7D7D7D" font-family="'Verdana-Italic'" font-size="7.0002">8</text>
<text transform="matrix(0.5936 -0.8048 0.8048 0.5936 295.5021 38.5727)" fill="#7D7D7D" font-family="'Verdana-Italic'" font-size="7.0002">0</text>
<text transform="matrix(0.5936 -0.8048 0.8048 0.5936 296.9874 34.1999)" fill="#7D7D7D" font-family="'Verdana-Italic'" font-size="7.0002">0</text>
<path fill="none" d="M29.3,61.5c3.3-2.3,7.2-3.4,10.9-5c4.5-1.9,8.7-4.6,12.8-7.2c2.8-1.8,5.6-3.6,8.3-5.3"/>
<text transform="matrix(0.9255 -0.3787 0.3787 0.9255 38.2113 60.0512)" fill="#7D7D7D" font-family="'Verdana-Italic'" font-size="7">9</text>
<text transform="matrix(0.9255 -0.3787 0.3787 0.9255 42.5611 58.2714)" fill="#7D7D7D" font-family="'Verdana-Italic'" font-size="7">2</text>
<text transform="matrix(0.9255 -0.3787 0.3787 0.9255 46.6668 56.1591)" fill="#7D7D7D" font-family="'Verdana-Italic'" font-size="7">0</text>
<text transform="matrix(0.9255 -0.3787 0.3787 0.9255 50.474 53.8449)" fill="#7D7D7D" font-family="'Verdana-Italic'" font-size="7">0</text>
<path fill="none" d="M254.4,203.6c3.3-7,9.9-11.6,16.2-16"/>
<text transform="matrix(0.5132 -0.8583 0.8583 0.5132 256.5472 204.8734)" fill="#7D7D7D" font-family="'Verdana-Italic'" font-size="7">1</text>
<text transform="matrix(0.5132 -0.8583 0.8583 0.5132 258.5999 201.4398)" fill="#7D7D7D" font-family="'Verdana-Italic'" font-size="7">0</text>
<text transform="matrix(0.5132 -0.8583 0.8583 0.5132 261.3048 198.2797)" fill="#7D7D7D" font-family="'Verdana-Italic'" font-size="7">4</text>
<text transform="matrix(0.5132 -0.8583 0.8583 0.5132 264.4388 195.3763)" fill="#7D7D7D" font-family="'Verdana-Italic'" font-size="7">0</text>
<text transform="matrix(0.5132 -0.8583 0.8583 0.5132 267.8651 192.765)" fill="#7D7D7D" font-family="'Verdana-Italic'" font-size="7">0</text>
<path fill="none" d="M133.2,137.3c2.9-13.1,8-25.6,14.1-37.5"/>
<text transform="matrix(0.3302 -0.9439 0.9439 0.3302 139.0969 125.4515)" fill="#7D7D7D" font-family="'Verdana-Italic'" font-size="7">9</text>
<text transform="matrix(0.3302 -0.9439 0.9439 0.3302 140.5497 121.2982)" fill="#7D7D7D" font-family="'Verdana-Italic'" font-size="7">6</text>
<text transform="matrix(0.3302 -0.9439 0.9439 0.3302 142.0641 117.2718)" fill="#7D7D7D" font-family="'Verdana-Italic'" font-size="7">0</text>
<text transform="matrix(0.3302 -0.9439 0.9439 0.3302 143.8 113.2181)" fill="#7D7D7D" font-family="'Verdana-Italic'" font-size="7">0</text>
<g>
	<g>
		<polyline fill="none" stroke="#7D7D7D" stroke-miterlimit="10" points="85.2,341.6 85.2,348.7 275.4,348.7 275.4,341.7 		"/>
		<line fill="none" stroke="#7D7D7D" stroke-miterlimit="10" x1="180.5" y1="341.4" x2="180.5" y2="348.7"/>
		<line fill="none" stroke="#7D7D7D" stroke-miterlimit="10" x1="161.2" y1="349.2" x2="161.2" y2="343.7"/>
		<line fill="none" stroke="#7D7D7D" stroke-miterlimit="10" x1="142.4" y1="349.2" x2="142.4" y2="343.7"/>
		<line fill="none" stroke="#7D7D7D" stroke-miterlimit="10" x1="123.3" y1="349.2" x2="123.3" y2="343.5"/>
		<line fill="none" stroke="#7D7D7D" stroke-miterlimit="10" x1="104.6" y1="349.2" x2="104.6" y2="343.7"/>
	</g>
	<text transform="matrix(1 0 0 1 83.7836 339.1464)" fill="#7D7D7D" font-family="'Verdana'" font-size="8">0</text>
	<text transform="matrix(1 0 0 1 174.2947 339.1464)" fill="#7D7D7D" font-family="'Verdana'" font-size="8">0.5</text>
	<text transform="matrix(1 0 0 1 258.3416 339.1464)" fill="#7D7D7D" font-family="'Verdana'" font-size="8">1 mi</text>
</g>
</svg>
