<?xml version="1.0" encoding="utf-8"?>
<!-- Generator: Adobe Illustrator 17.1.0, SVG Export Plug-In . SVG Version: 6.00 Build 0)  -->
<!DOCTYPE svg PUBLIC "-//W3C//DTD SVG 1.1//EN" "http://www.w3.org/Graphics/SVG/1.1/DTD/svg11.dtd">
<svg version="1.1" id="Layer_1" xmlns="http://www.w3.org/2000/svg" xmlns:xlink="http://www.w3.org/1999/xlink" x="0px" y="0px"
	 viewBox="0 0 360 360" enable-background="new 0 0 360 360" xml:space="preserve">
<path fill="none" stroke="#E1E1E1" stroke-miterlimit="10" d="M363,345.9c-5.2-0.6-9.3-8.5-14.6-7c-1.3,0.4-2.6,1-3.8,1.7
	c-5.9,3.2-12.2,6.6-15.6,12.4c-1.4,2.4-2.3,5.2-4.1,7.3c-1.2,1.4-2.7,2.5-3.9,3.8c-0.3,0.4-0.7,0.7-1,1.1"/>
<path fill="none" stroke="#E1E1E1" stroke-miterlimit="10" d="M283.2,364.8c0.6-1.6,1.2-3.3,1.7-4.9c0.8-2.5,1.6-5,1.4-7.6
	c-0.2-2-0.9-3.9-1.3-5.9c-1-5.3,0.7-10.7,2.3-15.8c1-3.1,2.1-6.3,4.3-8.5c1.9-1.9,4.4-3,6.7-4.2c10.3-5.6,17.3-13.9,21.6-24.8
	c0.8-2.1,2.5-2.3,3.5-3.2c0.4-0.4,2-3.4,2.6-3.5c5-0.8,5.4-2.2,10.9-3.7c8.4-2.4,16.8-4.9,25.3-7.3"/>
<path fill="none" stroke="#E1E1E1" stroke-miterlimit="10" d="M166.5,361.9c-0.4-0.7-0.9-1.4-1.3-2c-1.2-1.8-2.4-3.8-2.3-5.9
	c0.1-2.4,1.5-5.6-0.6-6.7c-1.6-0.8-3.4,0.9-4.4,2.4c-3.1,4.6-6.3,9.1-9.4,13.7"/>
<path fill="none" stroke="#E1E1E1" stroke-miterlimit="10" d="M362.5,256.3c-0.2,0.1-0.4,0.2-0.6,0.4c-4,2.4-4.4,0.8-6.4,0.7
	c-1.5,0-3.3,2.3-4.8,2.5s-5.6-0.5-7-0.9c-1-0.3-2.5-1.8-3.6-2.1c-1.2-0.3-9.5,4.2-10.7,4c-4.8-0.9-6.2-0.7-12.2-1.6
	c-1.7-0.3-2.4-1.6-3.5-2.9c-0.9-1-1.1-3.1-1.6-4.3c-0.8-1.9-1.3-3.7-2.1-5.6c-1.4-3-4.7-9-5.2-5.7c-0.3,2.4-3.7,3.8-5.9,3.6
	c-1.7-0.1-3.5,1.2-5.1,1.9c-4.6,2.1-6.7,7.6-10.4,11c-5.4,4.8-10.9,9.6-16.7,13.9c-6.7,5-14,9.5-22,11.9c-4.6,1.4-8.5,3-12.7,5.4
	c-2.2,1.3-6.1,1.2-8.3,2.3c-2,1-5,3.8-4.8,6.1c0.3,2.8,1.1,4.8,1.5,7.6c0.1,0.8,2.6,4.6,3.1,5.4c1.6,2.4,3.3,4.7,4.9,7.1
	c0.5,0.7,1,1.5,1.6,2.1c0.5,0.6,1.2,1,1.7,1.6c1,1.1,1.5,2.5,2,3.8c1.3,3.4,2.5,6.7,3.8,10.1c1.8,5,3.7,10,5.1,15.1
	c0.3,1,0.5,2.1,0.1,3.1c-0.3,0.8-1,1.3-1.4,2.1c-0.6,1.1-0.5,2.5-0.7,3.8c-0.3,2-1.2,3.6-2.6,4.9"/>
<path fill="none" stroke="#E1E1E1" stroke-miterlimit="10" d="M278.8,364.6c-0.1-0.5-0.3-0.9-0.6-1.4c-0.4-0.6-0.9-1.2-0.8-1.8
	c0.2-0.8,1.2-1.1,1.6-1.8c0.6-0.9,0.2-2.3,0.7-3.3c0.2-0.5,0.7-0.8,1-1.3c0.9-1.4,0.2-3.2-0.9-4.5c-1-1.3-2.3-2.5-2.7-4.1
	c-0.4-1.8,0.6-3.6,0.4-5.4s-1.5-3.3-2.2-5c-0.4-1-0.6-2.1-0.7-3.2c-0.7-5.1-1.2-10.4-0.3-15.5c0.8-5.1,3-10.1,6.8-13.7
	c1.6-1.5,3.4-2.7,5.3-3.7c1.2-0.6,3.6-1.8,4.8-2.3c2.2-0.9,4.6-1.5,6.8-2.4c3.8-1.5,7.5-3.7,9.5-7.2c1.2-2.2,1.7-4.7,3.4-6.5
	c1.4-1.5,3.4-2.1,5.4-2.7c5.1-1.6,10.2-3.3,15.5-4.4c10.2-2.2,20.8-2.5,30.7-5.4"/>
<path fill="none" stroke="#E1E1E1" stroke-miterlimit="10" d="M363.1,259.3c-4.5,2.4-9.5,4.8-13.2,4.5c-2.9-0.2-5.8-1.5-8.7-1.4
	c-1.9,0.1-3.7,0.7-5.5,1.2c-4,1.1-9.1-1.9-12.4,0.7c-0.7,0.5,0.5,2.1-0.2,2.6c-1.5,1.1-2.9,1.9-4.7,2.3c-2,0.4-3.3-2.5-4.9-3.7
	c-0.7-0.5-1.4-1.1-2-1.8c-0.7-0.9-1.2-2.1-1.6-3.2c-1.4-3.9-0.1-10.6-4.1-11.6c-5.8-1.4-8.7,8.3-13,12.5c-2.2,2.1-4.5,4.3-7.2,5.6
	c-2,0.9-4.3,1.5-5.3,3.5c-0.6,1.2-0.6,2.7-1.5,3.8c-0.8,0.9-2,1.1-3.1,1.5c-5.6,1.9-8.9,8-14.4,10.3c-1.5,0.6-3.2,0.9-4.7,1.7
	c-1.2,0.6-2.1,1.5-3.2,2.3c-2,1.5-4.3,2.6-6.5,3.7c-2.3,1.1-4.4,2.5-6.8,3.3c-0.9,0.3-2.7,0.5-3.6,0.7c-1.6,0.4-3.2,0.9-4.7,1.3
	c-2.2,0.6-4.9,2-4.3,4.2c0.3,1.3,1.7,2.1,2.3,3.3c0.5,1.1,0.3,2.4,0.7,3.6c0.7,2.2,3.2,3.2,5.1,4.6c1.9,1.3,1.1,3.7,2,5.8
	c1.4,3.3,5.7,3.9,7,7.2c4.2,10.3,8,21.5,6.1,32.5c-0.2,1.3-0.5,2.6-1,3.8"/>
<path fill="none" stroke="#E1E1E1" stroke-miterlimit="10" d="M293.4,287.1c10.7-4.3,19.8-15.1,18.1-17.6c-1-1.5-4.2-0.2-4.6-2
	c-0.1-0.6,0.1-1.3-0.1-1.9c-0.3-1.1-1.8-1.6-2.9-1.3c-1.1,0.3-2,1.2-2.8,2c-3,3-6.5,5.6-10.2,7.7c-0.9,0.5-1.9,1-2.6,1.8
	c-0.9,0.9-1.3,2.2-2,3.2c-2.3,3.5-6.9,4.7-10,7.6c-2,1.9-3.3,4.4-5.4,6.3c-0.4,0.3-0.7,0.6-1.1,0.9c-1.6,1-5.2,2.6-6.8,3.6
	c-1.4,0.9-3,1.7-4.5,2.4c-5.7,2.4-11.4,4.4-17.3,6.1c-1.8,0.5-5.1,2.6-3.5,3.6c1.8,1.1,4.1,1,5.3,2.7s0.7,4.5,2.4,5.8
	c0.9,0.7,2.2-0.3,3.2,0c2.4,0.8,0.1,5.4,2,7.1c0.8,0.7,2.1,0.8,2.4,1.8c0.3,1.1-1.3,2.6-0.4,3.3c0.8,0.7,2.1,0.4,2.9,1
	c1.6,1.3-0.1,4-0.1,6.1c0,1.4,0.5,2.8,0.8,4.2c1.1,5.1-0.9,10.7,0.9,15.7c0.1,0.4,0.3,0.8,0.6,1c0.6,0.5,1.5,0.2,2.3-0.1
	c2.5-1,4.9-2,7.4-3c1-0.4,2-0.9,2.2-1.9c0.1-0.6-0.2-1.3-0.1-1.9c0.2-1.1,1.4-1.7,1.8-2.7c0.6-1.3-0.3-2.7-1-3.9
	c-4.5-7.4-5.3-16.3-5.9-25c-0.2-2.7-0.4-5.5,0.8-8c0.8-1.6,2.1-2.9,2.8-4.6c0.5-1.1,0.6-2.4,1.2-3.5c0.7-1.2,1.8-2,2.9-2.8
	c6-4.3,11.4-9.6,18.2-12.7C291,287.9,292.6,287.4,293.4,287.1z"/>
<path fill="none" stroke="#E1E1E1" stroke-miterlimit="10" d="M287.6,363.5c0.2-0.3,0.4-0.5,0.6-0.8c0.7-1.1,3-0.8,3.3-2.1
	c0.7-3.3,0.8-6,0.9-9.4c0-0.8,0.2-3,0.7-3.5c1.3-1.4,2.9-5.1,4.1-6.6c3.4-4.3,6.6-7.4,11.2-10.5c2.5-1.6,5-3.1,7.3-5
	c10.1-8.1,14.3-21.7,24.4-29.9c6.9-5.6,15.7-7.9,24.3-10.4"/>
<path fill="none" stroke="#E1E1E1" stroke-miterlimit="10" d="M362.7,250.6c-3.7,0.8-7.3,1.4-11,2.1c-5.8,1-12,2-17.6-0.1
	c-5.8-2.3-10.3-7.8-16.5-8.6c-1.8-0.2-3.7,0-5.2-1c-2-1.4-2.4-4.5-4.7-5.5c-1.5-0.7-3.4-0.7-4.8,0c-2.5,1.1-3.6,0-3.8-2.2
	c-0.4-3.8-13.5,5.6-18.8,11.2c-5.7,6-12.7,10.7-19.7,15.3c-8.6,5.7-17.7,11.6-27.9,12.5c-1.1,0.1-1.6,1.6-2.4,2.3
	c-1.2,1-2.9,1.3-4.4,1.7c-4.7,1.3-8.9,4.1-12.2,7.7c-0.8,0.9-2.8,2.5-3.5,3.6c-3.2,5.4,1,12.5,4.5,17.8s7.8,10.3,9,16.6
	c0.3,1.7,0.4,3.4,0.6,5.1c0.5,4.4,1.6,8.8,1.5,13.2c-0.1,4.4-1.9,9.2-5.7,11.4c-3.8,2.2-8.6,1.4-12.6,3c-2.1,0.8-3.9,2.2-6,2.9
	c-3,1.1-6.3,0.9-9.5,0.7c-6.7-0.4-13.6-0.9-19.8-3.5c-0.8-0.3-1.6-0.7-2.1-1.3c-1.1-1.2-1.3-2.9-1.5-4.4c-0.6-5.5-2-10.9-4.1-16
	c-0.9-2.2-0.7-4.5-1.5-6.8c-0.3-0.8-1.7,0.2-2,1.1s-0.2,1.9-0.9,2.5c-0.5,0.5-1.2,0.6-1.8,0.9c-0.7,0.5-1.1,1.3-1.4,2
	c-5,10.7-11.4,20.7-19,29.8"/>
<path fill="none" stroke="#E1E1E1" stroke-miterlimit="10" d="M297.3,365.7c0.3-1.3,0.6-2.7,0.6-4.1c0.4-9.6,7.8-17.3,14.7-24.1
	c9.2-8.9,18.5-17.9,27.7-26.8c2.1-2.1,4.3-4.1,6.9-5.5c3-1.5,6.3-2.1,9.4-3.2c2.2-0.8,4.3-1.8,6.6-1.6c0.4,0,0.7,0.1,1.1,0.2"/>
<path fill="none" stroke="#E1E1E1" stroke-miterlimit="10" d="M362.8,240.2c-0.6,0.7-1.2,1.4-1.9,1.9c-1.2,0.8-2.6,1.2-4,1.7
	c-3.6,1.1-7.2,2.5-10.9,2.8c-3.8,0.3-7.9-0.8-10.2-3.8c-1.4-1.8-2.1-4.2-3.8-5.6c-1.5-1.2-3.5-1.6-5.4-1.8
	c-5.9-0.8-12.4,1.2-17.9-1.1c-2.6-1.1-3.2-5-5.8-6c-7.9-3.2-16.4,4.3-23.9,8.3c-17.2,9.2-34.4,18.5-50.8,28.8
	c-0.7,0.4-1.9,1.4-2.7,1.8c-4.6,2.2-9.7,2.9-14.6,4.4c-1.4,0.4-2.9,0.9-4.1,1.7c-1.1,0.7-2,1.7-2.8,2.7c-1.5,1.7-3.1,3.4-4.6,5.1
	c-0.3,0.4-0.7,0.8-0.8,1.2c-0.2,0.6-0.1,1.3,0.1,1.9c0.4,1.7,0.8,3.4,1.2,5.1c0.1,0.6,1.1,2.1,1.5,2.5c2.8,2.8,2.1,6.1,2.8,9.9
	c0.6,4,0.3,8.1,2,11.8c0.9,1.9,2.1,3.7,2.9,5.6c0.3,0.6,0.6,1.3,0.5,2.1c-0.1,1.5-1.6,2.4-3,2.8s-2.9,0.4-4.2,1.1
	c-3.3,1.8-3.1,6.5-4.4,10.1c-1.5,4.3-5.7,7.3-10.2,7.9s-9.1-1.2-12.4-4.2c-3.9-3.5-6-8.6-7.6-13.6c-0.7-2.3-2-5.1-4.4-4.8
	c-1.4,0.2-2.3,1.4-3.1,2.5c-3.6,5.1-7.9,9.8-12.5,14c-1.3,1.2-2.7,2.3-3.7,3.7c-1.1,1.5-1.8,3.3-2.6,5c-2,4-5,7.4-7.9,10.8
	c-1.8,2.1-3.6,4.1-5.8,5.8c-0.6,0.4-1.2,0.9-1.9,1.3"/>
<path fill="none" stroke="#E1E1E1" stroke-miterlimit="10" d="M307.1,364.5c5.8-14.8,18.8-26.1,31.1-36.6c4.9-4.1,10.3-8.5,16.8-8.7
	c2.9-0.1,5.8,0.7,8.6,1.7"/>
<path fill="none" stroke="#E1E1E1" stroke-miterlimit="10" d="M361.9,218.6c-1.8,3-3.5,6.1-5.8,8.7c-3.1,3.5-8,5.9-12.4,4.3
	c-3.2-1.2-5.3-4.2-8.3-5.8c-2.7-1.4-5.8-1.6-8.9-1.7c-7.8-0.3-15.6-0.7-23.4-1c-1.6-0.1-3.3-0.1-4.9-0.1c-5.5,0.3-10.8,2.3-16,4.3
	c-16.3,6.3-36.5,6.4-49.1,18.4c-0.2,0.2-0.4,0.2-0.7,0.3c-1.7,0.6-4.5,2.8-5.8,4c-3,2.6-6.6,4.6-10.6,4.4c-1.4-0.1-3-0.3-4.2,0.4
	c-0.5,0.3-0.9,0.8-1.4,1.2c-0.7,0.5-1.6,0.7-2.4,0.9c-2.6,0.6-5.2,1.1-7.8,1.7c-1.8,0.4-3.6,0.8-5.4,0.5c-1.6-0.2-3.2-1-4.7-1.5
	c-0.8-0.3-1.8-0.3-2.2,0.4c-0.2,0.3-0.1,0.7-0.1,1c0.3,3,0.7,6,1,9c0.2,1.9,0.4,3.7,0.4,5.6s-0.2,3.8-0.3,5.7
	c-0.2,4.3,1.9,9.1-0.7,12.5c-2.3,3.2-6,2.8-6.1,6.8c0,1.5,0.1,2.9-0.4,4.3c-0.4,1.4-1.3,5-2.7,5c-2,0-3.5-4.3-4.5-6
	c-1.2-2-2.7-4.1-5-4.7c-2.3-0.7-2.9,2.7-5.2,3.2c-1.6,0.3-2.5-2.4-4.1-2c-1.5,0.4-2.6,1.7-3.3,3.1c-1.7,3.2-2.1,6.8-2.7,10.4
	c-0.8,4.8-2,9.7-4.9,13.6c-2.2,3-5.3,5.2-8.3,7.3c-4.6,3.3-9.3,6.6-13.9,9.9c-3,2.2-11.7,12.9-15.3,13.7c-5.3,1.2-9.9,4.1-13.8,7.9"
	/>
<path fill="none" stroke="#E1E1E1" stroke-miterlimit="10" d="M363,124.2c-7.4-2.3-15.1-4.1-22.2-7.1c-5.1-2.2-8.6-8.9-10.6-11.8
	c-2.5-3.6-10,7.2-11.2,3c-1.1-3.6-0.9-8.6-5.9-7c-3.4,1.1-8.1,8.1-4.6,7.9c7.3-0.4,13.6,3.2,16.1,11.2c0.5,1.6,4.8-0.5,6.2,0.5
	c7.1,5,13.1,8.8,18,16c2.4,3.5,4.1,7.3,5.8,11.1c2.4,5.3,4.7,10.5,7.1,15.8"/>
<path fill="none" stroke="#E1E1E1" stroke-miterlimit="10" d="M363.3,95.7c-2.1,0.1-4.2,0.1-6.1-0.2c-4.7-0.6-9-2.7-13.1-5.1
	c-2.3-1.4-4.5-3.1-5.5-5.5c-0.5-1.5-0.6-3.2-1.5-4.4c-0.8-1.1-2.2-1.6-3.4-2.3c-2.5-1.6-4.1-4.4-4.2-7.4c0-0.9,0.1-1.9-0.4-2.6
	c-1.1-1.8-3.8-0.9-5.8-0.6c-3.8,0.5-7.3-1.9-10.7-3.5c-3.5-1.6-8.2-2.2-10.5,0.8c-0.7,0.9-1,2-1.3,3.1c-2.2,7.5-8.8,15-6.5,22.5
	c1.9,6.1,3.3,11.8-1.1,16.4c-5.6,5.8-4.2,15.9-0.6,23.1c0.5,1.1,1.2,2.2,1.4,3.4c0.3,1.2,0.2,2.5,0.4,3.8c0.3,1.9,1.5,3.5,2.5,5.1
	c2.2,3.3,4.5,6.5,6.7,9.8c1.4,2.1,2.9,4.2,4.8,5.8c2.3,1.9,5.1,3,7.8,4.1c10.6,4.6,20.2,11.2,28.3,19.5c0.9,1,1.9,1.9,2.4,3.2
	c0.7,1.5,0.7,3.2,0.7,4.8c0,6.5-0.9,13-2.5,19.3c-0.7,3-1.9,6.2-4.5,7.7c-3.6,2.1-8.2,0.3-12.2-1.1c-5.5-1.8-11.6-2.5-17.3-1.3
	c-2.7,0.6-5.5,1.6-8.1,0.6c-2.1-0.8-3.8-2.7-6.1-2.8c-2.3,0-4.1,1.9-6.2,2.8c-1.5,0.6-3.2,0.6-4.9,0.7c-6.1,0.1-12.3,0.1-18.4,0.2
	c-3.4,0-6.7,0.1-10,0.9c-10.7,2.6-19.9,8.8-29.6,13.9c-3.1,1.6-5.5,4.8-8.5,6.7c-0.8,0.5-1.5,0.9-2.3,1.4c-1.6,1-3.2,1.9-5,2.1
	c-1.6,0.1-3.2-0.4-4.8-0.5c-1.9-0.1-3.8,0.3-5.7,0.6c-5,0.8-10.1,0.8-15.1-0.2c-1.2-0.2-2.5-0.6-2.9-1.7c-0.3-0.6-0.3-1.3-0.7-1.7
	c-0.6-0.6-1.6-0.2-2.5-0.2c-2,0-3.5-2.4-5.4-2.1c-1.6,0.2-2.6,3-4,2.4c-1.3-0.6-1.4-2.5-2.2-3.8c-0.3-0.5-0.6-1.1-1.2-1.1
	c-0.4-0.1-0.8,0.1-1.1,0.3c-0.7,0.4-1.3,0.8-1.9,1.3c-6.3,4.4-12.9,9.1-16.2,16c-0.5,1.1-1,2.3-1.8,3.2s-2.2,0.6-3.3,1.1
	c-3.1,1.2,0,6.4,0.7,9.6c0.4,1.9,0.5,3.9,0.6,5.9c0.1,1.2,0.1,2.5,0.2,3.7c0.2,3.2-2.7,7.8,0,9.5c0.7,0.4,1.3,0.7,1.3,1.5
	c0,0.7,0.1,2.2,0.1,3c0,2.9,0.6,5.9,0.6,9.1c0,2.8-1.5,5.3-3,7.6c-0.4,0.6-0.8,1.3-1.5,1.6c-0.9,0.4-2,0-3,0.4
	c-0.5,0.2-0.9,0.5-1.3,0.9c-1.9,1.7-4,3.7-4,6.3c0,1.5,0.6,3.3-0.6,4.2c-0.7,0.5-1.7,0.4-2.6,0.7c-1.2,0.5-1.8,1.9-2.3,3.1
	c-2.3,5.2-6.9,9.4-12.3,11.1c-3.7,1.2-8.2,0.3-10.9,3.1c-0.7,0.7-1.1,1.6-1.5,2.5c-2.5,4.9-6.5,9.1-11.3,11.8
	c-2.2,1.2-4.7,2.3-5.7,4.6c-0.4,1-0.5,2.1-1,3c-0.7,1.2-1.9,1.9-2.7,3c-0.7,1.1-0.9,2.4-1.1,3.7"/>
<path fill="none" stroke="#E1E1E1" stroke-miterlimit="10" d="M244.7,83.7c-0.3,0.2-0.6,0.2-0.9,0.4c-1.1,0.6-1.1,2.2-0.9,3.5
	c0.3,2,0.7,4,1.2,6c0.1,0.5,0.3,1.1,0.8,1.4c0.3,0.1,0.6,0.1,0.9,0.1c2.3-0.4,3.6-2.9,5.7-3.8c3.2-1.3,6.6,1.5,9.9,1.3
	c1.3-0.1,2.5-0.6,3.7-0.8c1.2-0.2,2.5-0.1,3.4-0.8c1.3-1.1,1.1-3.2,0.4-4.8s-1.6-3.2-1.3-4.9c0.1-0.6,0.4-1.2,0.4-1.9
	c0-1.3-1.2-2.3-2.5-2.7c-0.5-0.1-1-0.2-1.3-0.6c-0.4-0.5-0.3-1.2-0.3-1.8c0-0.9-0.2-1.8-0.7-2.6c-0.1-0.2-0.3-0.4-0.5-0.5
	c-0.2,0-0.4,0.1-0.6,0.3c-1.2,1.2-1.9,3-3.4,3.6c-1.7,0.7-4,0-5.2,1.4c-0.5,0.6-0.6,1.4-1.1,2c-1.5,2-5.4,0.6-6.7,2.7
	C245.4,82.2,245.4,83.3,244.7,83.7z"/>
<path fill="none" stroke="#E1E1E1" stroke-miterlimit="10" d="M69.7,363.5c6-10.1,4.7-23.3,7.2-34.9c0.9-4,1.8-8.1,4.2-11.4
	c1.4-1.9,3.2-3.5,4.9-5.1c3.2-3.1,6-6.7,8.6-10.4c8.1-11.8,13.7-25.4,16.3-39.5c1.5-8,2-16.1,2.3-24.3c0.2-6.2-0.1-15.7,5.9-16.7
	c3.2-0.6,8.3,0.9,9.3,4c0.2,0.7,0.5,1.3,1.2,1.5s1.5,0.2,1.9,0.8c0.4,0.5,0.2,1.3,0.6,1.8c0.3,0.5,1,0.6,1.6,0.6
	c2.2,0.1,4.3-0.7,6.4-1.4c4.7-1.7,9.4-3.4,14.1-5c2.1-0.7,4.3-0.9,6.5-1.5c4.9-1.2,7.4,3.9,8.9,3.7c1.2-0.2,1.1-2.2,2.3-2.4
	s2.4,0.1,3.6,0.1c4-0.1,7.2-3.7,11.2-4.3c3.1-0.4,6.1,1.1,9.3,1.2c2.3,0.1,4.6-0.7,6.8-1.4c0.6-0.2,1.2-0.4,1.7-0.8
	c0.5-0.3,0.9-0.8,1.3-1.2c2.4-2.1,6-1.5,9.2-1.6c3.8-0.1,7.6-1.2,10.7-3.3c2.5-1.6,5.6-2.7,8.5-3.1c4.4-0.6,4.9-4,8.4-6.7
	c2.2-1.7,4.4-3.4,7.1-3.9c1-0.2,2.1-0.2,3.1-0.6c1.6-0.6,2.6-2.1,4-3.1c1.5-1,3.4-1.4,5.2-2c5-1.9,8.4-6.6,10.7-11.4
	c0.8-1.7,1.9-3.7,3.7-3.8c0.5,0,1.4-0.3,1.1-0.7c-1.1-1.2-2.7-2.7-1.9-4.2c0.2-0.5,0.7-0.8,0.8-1.4c0.1-0.4,0-0.8-0.2-1.1
	c-0.9-2.9-1.8-5.7-2.7-8.6c-0.8-2.4-1.5-4.8-2.8-7c-1.4-2.4-3.4-4.4-5.4-6.4s-4-4-5.9-6c-1.1-1.1-5.9-4.2-7-4.8
	c-2.7-1.2-5.2-2.8-7.4-4.7c-0.8-0.7-1.6-1.5-2.7-1.7c-0.7-0.2-1.5,0-2.2-0.3c-1.1-0.4-1.7-1.5-2.3-2.4c-2.4-3.7-5.3-9.5-8.9-11.9
	c-2.3-1.5-1.8-5.2-1.7-8c0.1-7.2,0.5-14.5,2.8-21.3c0.6-1.7,2.1-4.8,2.8-6.4c3.2-7.5,9.7-12.9,16-18c5.4-4.3,11.4-8.9,18.4-8.7
	c2.5,0.1,5,0.7,7.4,0.1c2.7-0.7,4.7-2.8,6.9-4.4c6-4.4,13.9-5.1,21.3-5.1c10,0,20.4,1,29.2,5.7c11.8,6.3,19.7,18.5,31.3,24.8"/>
<path fill="none" stroke="#E1E1E1" stroke-miterlimit="10" d="M363.3,39.5c-3.2,0.6-6.5,1.9-9.5,0.8c-2.4-0.8-3.1-3.9-5.1-5.4
	C332.4,23.2,310,23.3,291,29.6c-3.5,1.2-7.1,2.6-9.7,5.2c-1.1,1.2-2.1,2.5-3.4,3.5s-2.9,1.6-4.4,2.2c-5.9,2.2-13.4,0-18.4,3.8
	c-1.2,0.9-1.5,2.5-2.7,3.4c-8.2,6.2-16.4,12.4-24.6,18.6c-1.6,1.2-2,3.6-2.8,5.4c-0.6,1.4-1.2,2.9-2,4.3c-0.6,1.1-1.4,2.1-2.1,3.1
	c-2.4,3.5-4.1,7.5-6.1,11.2c-0.9,1.8-1.8,3.6-2.7,5.4c-2.3,4.8-5.1,9.5-6.6,14.7c-0.9,3.2-1.4,6.6-1.3,9.9c0,1.5,0.2,3.1,0.9,4.4
	c0.4,0.8,1,1.6,1.7,2.3c1.6,1.9,3.2,3.8,5.1,5.3c1.2,1,2.5,1.8,3.8,2.7c2.1,1.5,4.1,3.3,5.8,5.3c2.3,2.7,4.2,5.7,6.2,8.7
	c1,1.4,1.9,2.9,2.9,4.3c0.8,1.2,3,3.2,3.6,4.2c2.6,4.3,1.4,4.8,5.9,11.2c0,0.7-0.6,2.5-1,3c-1.4,2.1-1.2,4.8-1.5,7.2
	c-0.5,4.6-4,13.1-7.8,15.8c-3.2,2.3-6.5,5.3-8.6,8.6c-0.2,0.3-0.4,0.6-0.7,0.8s-0.6,0.2-0.9,0.2c-2.9,0.4-5.7,1.5-7.9,3.4
	c-0.6,0.5-1.2,1.1-1.9,1.5c-1,0.5-2.2,0.6-3.3,0.6c-2.3,0.1-4.7,0.4-6.9,1c-3,0.9-6,2.5-9.1,2c-3.5-0.5-6.7-3.7-10-2.7
	c-0.7,0.2-1.3,0.6-1.9,0.9c-2.7,1.3-5.7,1.6-8.7,1.8c-0.5,0-1.2,0-1.3-0.5c-0.1-0.2,0-0.5-0.1-0.8c-0.1-0.6-0.8-0.8-1.4-0.9
	c-3.4-0.7-6.8-1.4-10.2-2.1l-5.2-1.1c-2-0.4-3.9-1-5.7-1.8c-0.4-0.2-0.8-0.4-1.1-0.7c-0.7-0.7-1.1-1.6-1.7-2.4
	c-0.6-0.8-1.7-0.3-2.5-0.8c-1.6-0.8-2-2.8-3.8-3c-6.4-0.8-12.7-5.6-18.6-3.1c-2,0.9-3.7,2.3-5.3,3.9c-4.3,4.4-7.5,9.9-9.2,15.9
	c-0.2,0.7-0.4,1.5,0,2.1c0.4,0.8,1.4,1,2.1,1.6c1.1,0.9,1.3,2.6,1.3,4c0.3,15.2,0.1,30.8-5.5,44.9c-4.5,11-11.6,20.1-18.6,29
	c-1.5,1.9-3,3.9-5,5.3c-1.7,1.2-3.7,1.9-5.5,3c-6.5,3.7-10.1,11.3-10.8,18.7c-0.3,3.4-0.1,6.9-1,10.3c-0.8,2.8-2.4,5.3-3.6,7.8
	c-2.5,5.3-5.6,10.3-9.4,14.8c-1.8,2.1-3.5,4.2-5.2,6.4"/>
<path fill="none" stroke="#E1E1E1" stroke-miterlimit="10" d="M128.9-4.1c-1.5,1.3-3,2.6-4.6,3.6c-2.2,1.4-4.7,2.3-7.2,3.3
	c-9.5,3.7-17.5,15.5-27.3,13.3c-0.8-0.2-0.7-1.5-1.4-2c-4-2.9-9.8-0.8-14.7-0.3c-4.9,0.6-9.8,1.1-14.7,1.7c-4.2,0.5-8.5,1-12,3.1
	c-1.9,1.1-3.6,2.7-5.6,3.8c-2,1-4.5,1.4-6.4,0.2c-1.2-0.8-1.9-2.2-2.7-3.4c-3.9-5.9-15.1-1.2-18.6-7.4C10.6,6.3,18,0.3,23.6-4"/>
<path fill="none" stroke="#E1E1E1" stroke-miterlimit="10" d="M13.8,364.2c0.6-1.3,1.2-2.6,1.8-3.8c3.7-7.4,8.4-14.3,14-20.4
	c0.7-0.8,1.5-1.6,2-2.6c0.5-1,0.7-2.1,1-3.1c1.2-3.4,4.3-6,5.2-9.5c0.7-2.6,0.2-5.4,0.1-8.1c-0.1-2.7,1.3-5.2,2.6-7.6
	c0.9-1.6,0.3-3.7,0.4-5.5c0.1-1,0.1-2-0.3-2.9c-0.8-1.6-2.8-2-4.5-2.6s-2.2-2.2-2.9-3.8c-1.6-4.3-9.6,0.9-13.3-1.8
	c-1.9-1.4-2.6-3.9-3.2-6.3c-0.8-3.3-1.6-6.6-2.4-9.9c-0.3-1-0.5-2.1-0.4-3.2s0.7-2.2,1.3-3.2c3.5-5.9,7.2-11.6,11-17.3
	c1.2-1.8,2.4-3.6,3.9-5c1.7-1.6,3.9-2.7,5.9-4c5.5-3.3,10.5-7.5,14.6-12.4c1.7-2,3.2-4.2,4-6.6c2-6.5-1.7-14.7,2.8-19.8
	c2-2.3,5.4-3.5,6.7-6.3c0.6-1.2,0.7-2.6,1.2-3.9c1-2.5,3.4-4.1,5.3-6.1c3.2-3.4,4.7-8.4,3.9-13c-0.2-1.3-0.6-2.6-0.4-3.8
	c0.3-2.5,2.5-4.2,4.5-5.6c2.7-1.9,8.5-2.5,8.1-5.8c-0.1-1.1-2.7-0.3-2.9-1.3c-1.1-4,6.3-5.8,10.4-6.4c1-0.2,2.1-0.2,3-0.8
	s1.4-1.9,0.7-2.7c-0.4-0.5-1.2-0.7-1.6-1.3c-0.7-1,0.3-2.3,1.2-3.1c1.4-1.1,3-2.2,4.1-3.6c1.1-1.5-0.2-3.4,0.5-5.1
	c1.1-2.8,3.3,4,6.2,5.1c2.4,1,3.6-3.9,6-4.8c2.4-0.9,5.8-0.3,7.6,1.5c2.1,2.1,4.8,4.1,7.5,5.1c3,1.1,4.3-2.7,7.4-3.3
	c3.3-0.6,5.1,6.3,8.1,4.9c1.5-0.7,0.1-3.3,0.6-4.9c1.2-3.7,8.2-1.2,10-4.6c0.8-1.6,0-3.6,0.5-5.4c0.7-2.2,3.3-3,5-4.4
	c5.5-4.6,2.1-15.3,8.1-19.3c1.2-0.8,2.8-1.3,3.5-2.5c0.5-0.8,0.6-1.7,0.8-2.5c0.9-2.8,3.5-4.5,5.7-6.4c3.7-3.2,6.6-7.4,8.4-12
	c2.3-6.1,2.8-13.3,7.5-17.7c3.3-3,7.9-4,12-5.5c4.2-1.5,8.5-4.2,9.5-8.5c0.4-1.9,0.2-4.1,1.6-5.4c0.5-0.5,1.1-0.8,1.7-1
	c4.2-2,8.5-4,12.8-5.6c4.8-1.8,10-4,12.1-8.6c0.3-0.7,0.5-1.4,0.9-1.9c0.6-0.8,1.5-1.4,2.4-1.9c4.4-2.7,9-5.5,14.2-6.2
	c1.8-0.3,3.6-0.3,5.4-0.8c3.2-1.1,5.4-4,8.1-6.1c2.9-2.2,6.3-3.5,9.6-5.1c6-2.8,11.6-6.3,16.7-10.5"/>
<path fill="none" stroke="#E1E1E1" stroke-miterlimit="10" d="M256.7,316.1c0.2,0.1,0.5,0.2,0.7,0.1c0.3-0.1,0.4-0.3,0.5-0.6
	c0-0.3,0-0.5,0-0.8c0-1.7,1.1-3.2,1.4-4.8c0-0.1,0-0.3,0-0.4c-0.1-0.5-0.8-0.5-1.3-0.3c-0.9,0.3-1.5,1.1-2.2,1.7
	c-0.8,0.6-1.8,1.1-2.1,2c-0.3,0.7,0,1.6,0.6,2.1c0.2,0.2,0.5,0.3,0.8,0.4C255.5,315.6,256.1,315.8,256.7,316.1z"/>
<path fill="none" stroke="#E1E1E1" stroke-miterlimit="10" d="M70.9,155.6c-2.6,1.2-5.4,2.5-6.7,5.1c-0.5,0.9-0.7,2-1.2,2.9
	c-0.7,1.4-2.6,1.9-3.2,3.4c-0.3,0.8,0.8,1.5,1.5,1.9c1.1,0.7,2.5-0.1,3.6-0.8c1.9-1.2,3.8-2.4,5.4-4c2.7-2.6,7.6-6.7,5.5-9.8
	C74.8,153,72.4,154.9,70.9,155.6z"/>
<path fill="none" stroke="#E1E1E1" stroke-miterlimit="10" d="M-4.6,332.8c1.6-1.1,3.1-2.2,4.3-1.3c3.7,2.9,1.2,7.6-1.8,12.6"/>
<path fill="none" stroke="#E1E1E1" stroke-miterlimit="10" d="M-2.1,21.9c1.9-2,3.8-3.4,5.9-2.3c2.7,1.4,0,6.1,0.2,9.1
	c0.1,1.6,0.7,3.7,2.4,3.8c0.9,0,1.7-0.6,2.4-1.2c4-3.4,9.3-10.5,13.7-7.6c2.5,1.7,0.8,6.5,3.3,8.2c1.1,0.8,2.5,1.1,3.8,1.3
	c7.9,1.5,16.2,1,23.9-1.3c2.7-0.8,5.7-1.8,8.2-0.5c0.6,0.4,1.2,0.9,1.9,1.2c3.9,1.7,7-4,11.1-5.1c1.8-0.5,3.6,0,5.5,0.2
	c9,0.9,17.3-4.7,26.3-6.2c7-1.1,14.1,0.3,21,1.7c4.8,1,9.6,3.3,11.1,8c1.1,3.6,6,5,9.7,4.2s7.1-3.9,10.9-3.3
	c0.6,0.1,1.2,0.3,1.6,0.8c0.4,0.4,0.5,1,0.5,1.6c0.3,4.6-3.7,8.1-7.1,11.1c-3.5,3-7.1,7.1-6,11.5c0.8,3.2,0.3,7.2-2,9.6
	c-2.2,2.4-5.2,4-7.1,6.7c-1.4,2.1-2,4.6-3,6.9c-2,4.7-5.1,12.6-10,11.2c-5.4-1.6-9.8-5-15.4-4.1C96.3,89.5,82.5,93,69.1,97.8
	c-3.8,1.4-7.6,2.8-10.9,5.1c-6.4,4.3-16.3,12.9-11.8,19.3c1.2,1.7,5.7,2,4.7,4c-2,4.1-12.1,3.2-11.1,7.7c0.5,2.4,5.2-1.7,7.1,0
	c3.4,2.9-3.9,8.1-5.9,12c-6.1,11.9-11.2,24.4-14.1,37.5c-0.4,1.9-0.8,3.8-1.8,5.4c-0.7,1.1-1.6,2-2.6,2.9
	c-8.3,8.1-15.8,17.1-22.1,26.9c-2.1,3.2-4.1,6.8-3.5,10.6c0.4,2.8,2.3,5.3,3,8.1c1,4-0.6,8.1-2.2,12c-0.3,0.8-0.7,1.7-1,2.5"/>
<path fill="none" stroke="#E1E1E1" stroke-miterlimit="10" d="M6.5-4.6C4.3-2,2.4,0.9,0.6,3.8c-1.2,1.8-2.3,3.6-3.5,5.5"/>
<path fill="none" stroke="#E1E1E1" stroke-miterlimit="10" d="M-4.2,115.4c5.7-2.7,11.5-5.1,16.7-8.6c4.8-3.2,7.2-8.5,10.1-13.4
	c6.2-10.5,27.5-8.2,30.6-20c1.1-4.3-1.2-8.9,1.6-12.3c2.8-3.4,9.4-3.4,10.8-7.6c1.6-4.7-8-5.6-12.9-4.8c-4.9,0.7-9.6,2.8-14.5,2.3
	c-2.3-0.2-4.6-1-6.9-0.8c-3.3,0.2-6.3,2.3-9.5,3.2c-6.7,2-13.8-1-20.8-1.2c-2.1,0-4,0.8-5.7,2.1"/>
<path fill="none" stroke="#D6D6D6" stroke-miterlimit="10" d="M229.1-3.6c-0.7,0.8-1.4,1.7-2,2.6c-3.1,4.4-4.1,2.3-6,4
	c-1.1,1,0.2,3.5-1.2,3.9c-0.5,0.2-1.1,0-1.7-0.2c-2.6-0.8-5.6-2.1-5.8-4.7c-0.1-1.1,0.4-2.2,0.5-3.3s-0.4-2.5-1.5-2.6
	c-0.4-0.1-0.9,0.1-1.3,0.3c-3.3,1.3-6.4,3.1-9.1,5.5c-1.6,1.4-3.4,3.1-5.6,3c-0.8-0.1-1.6-0.4-2.5-0.4c-1.2,0-2.3,0.7-3.2,1.4
	c-2.6,1.9-5,4.1-7.3,6.4c-0.7,0.7-1.4,1.5-2.3,2.1c-0.9,0.6-1.8,1-2.8,1.4c-7.4,3.2-13.7,8.8-17.8,15.7c-1.2,2-2.3,4.2-3.6,6.2
	c-6.3,9.7-18.9,14.8-30.2,12.3c-2.9-0.6-5.7-1.7-8.7-1.9c-3-0.1-6.3,0.9-7.7,3.5"/>
<path fill="none" stroke="#D6D6D6" stroke-miterlimit="10" d="M362.5,11.6c-1.4-0.9-3-1.6-4.8-2.3c-0.7-0.3-1.3-0.9-2.1-1
	c-1-0.2-2.1,0.2-3.1,0.3c-2.3,0.3-4.5-0.7-6.6-1.6c-6.7-3-13.4-6-20.1-9"/>
<path fill="#EAEAEA" stroke="#D6D6D6" stroke-miterlimit="10" d="M323.3,201.2c0.5-0.2,0.8-0.7,1.2-1c2.9-2.3,4.2-5.3,2.9-8.2
	c-0.3-0.6-0.1-1.4-0.5-2c-0.5-0.7-0.8-1.7-1.5-2.2c-1.4-1-1.9-2.9-3.2-4.1c-0.8-0.7-1.7-1.1-2.7-1.6c-3-1.3-6.5-1.9-9.5-3.2
	c-0.5-0.2-1.1-0.5-1.7-0.3c-0.4,0.1-0.7,0.5-1.1,0.6s-0.8,0-1.1-0.1c-4.1-0.9-8.2,1.5-11.7,3.9c-0.5,0.3-1,0.7-1.3,1.2
	c-0.4,0.6-0.3,1.4-0.3,2.2c0.3,3.6,0.7,7.3,2.7,10.4c1.9,3.1,5.7,5.2,9.1,4.3c0.7-0.2,1.4-0.5,2.2-0.6c1,0,1.8,0.4,2.8,0.7
	c3.4,1,7.1-0.6,10.6-0.1C321.1,201.4,322.3,201.7,323.3,201.2z"/>
<path fill="none" stroke="#D6D6D6" stroke-miterlimit="10" d="M292.8,184.1c-1.6-1.8-3.2-3.9-5.4-4.4s-4.5-0.5-6.6-1.4
	c-2.9-1.2-5.1-3.7-7.7-5.5c-4.1-2.8-9.2-3.6-14.1-4.3c-2.8-0.4-5.5-0.8-8.3-1.2c-0.5-0.1-1.1-0.1-1.5,0.1c-0.4,0.3-0.6,0.8-0.9,1.3
	c-0.8,1.1-2.3,1.6-3.7,1.5s-2.7-0.6-4-1.1c-3.4-1.2-7.1-1.9-10.7-2c-1.9-0.1-4,1-5.7,1.9c-2.3,1.2-4.8,1.8-7.3,2.5
	c-1.7,0.4-3.4,0.9-5.2,0.9c-0.7,0-1.5-0.1-2.1,0.1c-0.5,0.2-1,0.5-1.6,0.6c-1.1,0.4-2.3,0.1-3.4,0.1c-1.2,0-1.7,0.5-2.6,0.9"/>
<path fill="none" stroke="#D6D6D6" stroke-miterlimit="10" d="M175,191.6c0.9,3.1-1.3,6.2-2.3,9.4c-0.9,2.9-0.8,6.1-2.2,8.7
	c-0.6,1.1-1.4,2-2,3.1c-2,3.5-1.7,8.1,0.6,11.3c0.4,0.5,0.8,1,1.1,1.6s0.3,1.2,0.4,1.8c1.9,9.2,0.7,27.6,0.7,28.3"/>
<path fill="#EAEAEA" stroke="#D6D6D6" stroke-miterlimit="10" d="M70.3,219.6c-0.5,1.7-1.2,3.3-2.1,4.7c-0.6,0.9-1.3,1.8-1.3,2.9
	c0,1.1,0.7,2.1,1.5,2.8s1.8,1.3,2.6,2c0.7,0.7,1.2,1.5,2,2.1c0.7,0.6,1.7,1.1,2.7,0.8c0.8-0.3,1.4-1.1,1.6-1.9
	c0.3-0.8,0.3-1.7,0.3-2.6c0.2-2.1,1-4.2,2-6.1c0.5-0.9,0.9-2.1,0.2-2.8c-0.3-0.3-0.7-0.4-1-0.6c-1.1-0.8-0.7-2.5-0.9-3.8
	c0-0.3-0.1-0.5-0.2-0.7c-0.2-0.3-0.5-0.5-0.8-0.7c-0.8-0.5-1.6-1-2.5-0.9c-1,0.1-1.7,0.9-2.3,1.6c-0.4,0.4-0.8,0.9-1.1,1.4
	C70.6,218.4,70.4,219,70.3,219.6z"/>
<path fill="#EAEAEA" stroke="#D6D6D6" stroke-miterlimit="10" d="M164.9,272.4c0.9-2.3,0.6-5.1,2-7.1c0.5-0.6,1.1-1.2,1.5-1.9
	c0.4-0.9,0.2-2,0.4-3.1s1.3-1,2.2-1.5c0.8-0.5-0.3-2.2,0.5-2.8c0.9-0.6,3.1,1.8,4.6,3.3c0.2,0.2,0.4,0.4,0.5,0.7
	c0.1,0.4-0.1,0.8-0.2,1.2c-0.2,1,0.1,2.2,0.9,2.9c0.7,0.6,1.8,1.1,1.7,2.1c0,0.4-0.3,0.7-0.5,1c-1.4,2.1-2.1,4.7-2.8,7.1
	c-0.7,2.5-1.6,5-3.4,6.8c-1.7,1.9-4.6,3-6.9,2c-0.3-0.1-0.6-0.3-0.8-0.5c-0.7-0.6-1.1-1.4-1.3-2.3c-0.3-1.1-0.5-2.3-0.3-3.5
	C163.2,275.3,164.3,274,164.9,272.4z"/>
<path fill="#7BBCEB" stroke="#4E9BD7" stroke-miterlimit="10" d="M158.2,157.9c-1-1-2.4-1.6-3.8-1.8c-1.4-0.1-2.7,0.2-4,0.6
	c-2.2,0.7-4.4,1.7-6.5,2.9c-1,0.6-2.1,1.2-2.8,2.2s-0.8,2.4,0,3.3c0.9,1.1,2.6,1,4.1,0.9c4.1-0.3,8.2,0.4,12.2,1.1
	c0.6,0.1,1.8,0.9,2.4,1.3c2,1.6-1.2,1.8-0.4,3.1c1,1.7,3.7-1.8,6.4,2.4c1.3,2.1,1.8,4.5,1.8,7c0,2.4-0.3,4.9,0,7.3
	c0.1,0.8,0.3,1.6,0.8,2.2c0.5,0.5,1.1,0.8,1.8,1c4.7,1.3,9.8-0.8,14.4,0.8c1.4,0.5,2.7,1.4,3.7,2.5c0.4,0.4,0.7,0.8,1.1,1.1
	c0.5,0.3,1,0.4,1.5,0.5c4.2,0.8,9,1.5,12.1-1.4c3-2.7,2.9-7.5,1.9-11.4c-2.3-9.2-8-17.1-11.2-26c-0.6-1.8-1.7-3.3-3.4-4
	c-1.4-0.6-2.6-0.5-4-0.9c-2.9-0.7-4.1-4.4-6.7-5.9c-0.5-0.3-1.1-0.5-1.6-1c-0.3-0.4-0.5-0.9-0.6-1.4c-0.4-1.4-0.8-2.8-1.2-4.1
	c-0.3-0.9-0.6-2-1.5-2.3c-0.8-0.3-1.7,0-2.4,0.4c-2.9,1.5-5.4,3.8-7.8,6c-0.3,0.3-0.6,0.5-0.6,0.9c-0.1,0.4,0.2,0.8,0.3,1.1
	c0.6,2-2.1,3.4-2.7,5.4c-0.7,2.3,1.3,5.3-0.4,6.9c-0.3,0.3-0.8,0.5-1.2,0.5C159.2,159,158.7,158.4,158.2,157.9z"/>
<path fill="none" stroke="#4E9BD7" stroke-miterlimit="10" d="M153.3,156.1c-1.1-2.7-3.1-5.7-5.4-8.1c-0.4-0.4-0.6-0.9-0.9-1.4
	c-2.5-3.8-4.6-8-7-11.8c-0.8-1.2-1.8-2.4-2.7-3.5c-1.5-2-3-3.1-4.4-5.1c-1.4-1.8-3.2-3.7-4.4-5.8c-1.1-2-1.2-3.3-2.1-5.4
	s-2.4-3.9-3.5-6c-1.1-2-1.9-4.4-1.2-6.6c0.5-1.6,1.7-2.9,2.4-4.4c1-2,1.1-4.2,1.3-6.4c0.2-3.2,0.9-6.1,1.1-9.3
	c0.1-1.2,0.5-2.5,0.8-3.8c0.4-1.5,0.3-3.3-0.3-4.7c-0.4-0.9-0.6-1.9-1.1-2.7c-0.8-1.3-0.3-2.3-0.3-3.9c0.1-3.2-5.7-9.7-10.3-13.2
	c-1.8-1.4-3.8-2.8-6.1-2.7c-2,0.1-3.7,1.3-5.5,1.9c-2.3,0.7-4.8,0.4-7.2,0.2c-9.3-0.8-18.6-0.7-27.9-0.5c-8.2,0.1-17.1,0.5-23.7,5.4
	c-4.5,3.3-7.7,8.6-13.1,10.2c-7,2-14.7-3.5-21.6-1.1c-6.3,2.2-9,9.7-14.3,13.7"/>
<path fill="#FFFFFF" stroke="#4E9BD7" stroke-miterlimit="10" d="M168.9,145.5c0.5,0.2,1-0.2,1.2-0.7c0.2-0.4,0.5-1,0.2-1.3
	c-0.4-0.3-1.2-0.2-1.6,0.1C168.2,144,168.3,145.3,168.9,145.5z"/>
<path fill="#FFFFFF" stroke="#4E9BD7" stroke-miterlimit="10" d="M156.7,161.7c-0.5,0-0.9,0.5-0.9,1s0.6,1.1,1,0.8s0.4-0.5,0.5-0.9
	C157.5,162.2,157.2,161.7,156.7,161.7z"/>
<g>
	<g>
		<path fill="none" stroke="#585858" stroke-miterlimit="10" d="M-2.6,87.3c0.6-0.3,1.2-0.6,1.8-1"/>
		
			<line fill="none" stroke="#585858" stroke-miterlimit="10" stroke-dasharray="9.901514e-03,0" x1="0" y1="85.9" x2="0" y2="85.9"/>
		<path fill="none" stroke="#585858" stroke-miterlimit="10" stroke-dasharray="3.9606,0.9802,9.901514e-03,0" d="M0,85.9
			c8.6-4.6,17.7-8.3,27.1-11c5-1.4,9.9-3.9,13.2-8c0.8-1,1.5-2.1,2.4-3c1.5-1.5,3.5-2.2,5.5-2.8c7.8-2.1,22.7-1.2,30.7-2.3
			c6.3-0.9,3.3-4,12.3-1.6c3.4,0.9,6.7,3.6,9.5,5.8c7.3,5.5,13.1,11.9,15.7,20.7c2.1,7.1,1.3,15.4,3,22.7c1,4.3,3.1,6.3,4.7,9.2
			c3.4,6.3,7.3,11.7,13,19.7c2.7,3.8,7.4,11.9,10.5,16.7"/>
		<path fill="none" stroke="#585858" stroke-miterlimit="10" d="M147.5,151.9c0.4,0.6,0.8,1.2,1.1,1.7"/>
	</g>
</g>
<text transform="matrix(1 0 0 1 226.8607 310.2469)" fill="#585858" font-family="'Verdana-Italic'" font-size="8">Sheep</text>
<text transform="matrix(1 0 0 1 232.8607 319.8469)" fill="#585858" font-family="'Verdana-Italic'" font-size="8">Peak</text>
<text transform="matrix(1 0 0 1 281.0742 164.0367)" fill="#585858" font-family="'Verdana-Italic'" font-size="8">McCabe Lakes</text>
<text transform="matrix(1 0 0 1 281.0742 173.6367)" fill="#585858" font-family="'Verdana-Italic'" font-size="8">(east)</text>
<path fill="none" d="M291.3,29.5c19-6.3,41.4-6.5,57.7,5.3"/>
<text transform="matrix(0.9898 -0.1422 0.1422 0.9898 304.0924 28.9097)" fill="#7D7D7D" font-family="'Verdana-Italic'" font-size="6.9997">1</text>
<text transform="matrix(0.9898 -0.1422 0.1422 0.9898 308.3481 28.2983)" fill="#7D7D7D" font-family="'Verdana-Italic'" font-size="6.9997">0</text>
<text transform="matrix(0.9898 -0.1422 0.1422 0.9898 312.6331 27.8849)" fill="#7D7D7D" font-family="'Verdana-Italic'" font-size="6.9997">0</text>
<text transform="matrix(0.9898 -0.1422 0.1422 0.9898 316.9603 27.7683)" fill="#7D7D7D" font-family="'Verdana-Italic'" font-size="6.9997">0</text>
<text transform="matrix(0.9898 -0.1422 0.1422 0.9898 321.231 27.9628)" fill="#7D7D7D" font-family="'Verdana-Italic'" font-size="6.9997">0</text>
<text transform="matrix(1 0 0 1 181.0998 250.4213)" fill="#585858" font-family="'Verdana-Italic'" font-size="8">McCabe Lakes</text>
<text transform="matrix(1 0 0 1 181.0998 260.0213)" fill="#585858" font-family="'Verdana-Italic'" font-size="8">(south)</text>
<text transform="matrix(1 0 0 1 104.8626 182.2162)" fill="#7BBCEB" font-family="'Verdana-Italic'" font-size="8">McCabe Lakes</text>
<text transform="matrix(1 0 0 1 132.7626 191.8162)" fill="#7BBCEB" font-family="'Verdana-Italic'" font-size="8">(north)</text>
<text transform="matrix(1 0 0 1 84.6896 222.2162)" fill="#585858" font-family="'Verdana-Italic'" font-size="8">McCabe Lakes</text>
<text transform="matrix(1 0 0 1 84.6896 231.8162)" fill="#585858" font-family="'Verdana-Italic'" font-size="8">(west)</text>
<path fill="none" d="M172.3,356.6c6.2,2.6,13.1,3.1,19.8,3.5c3.2,0.2,6.5,0.4,9.5-0.7"/>
<text transform="matrix(0.9498 0.3128 -0.3128 0.9498 171.868 359.232)" fill="#7D7D7D" font-family="'Verdana-Italic'" font-size="7">1</text>
<text transform="matrix(0.9498 0.3128 -0.3128 0.9498 176.3321 360.7022)" fill="#7D7D7D" font-family="'Verdana-Italic'" font-size="7">1</text>
<text transform="matrix(0.9498 0.3128 -0.3128 0.9498 180.9839 361.6026)" fill="#7D7D7D" font-family="'Verdana-Italic'" font-size="7">0</text>
<text transform="matrix(0.9498 0.3128 -0.3128 0.9498 185.4446 362.1241)" fill="#7D7D7D" font-family="'Verdana-Italic'" font-size="7">0</text>
<text transform="matrix(0.9498 0.3128 -0.3128 0.9498 189.9678 362.4557)" fill="#7D7D7D" font-family="'Verdana-Italic'" font-size="7">0</text>
<path fill="none" d="M83.1,297c7-8.9,14.1-18,18.3-28.5"/>
<text transform="matrix(0.5942 -0.8043 0.8043 0.5942 90.2758 291.9229)" fill="#7D7D7D" font-family="'Verdana-Italic'" font-size="7">1</text>
<text transform="matrix(0.5942 -0.8043 0.8043 0.5942 92.9496 288.3028)" fill="#7D7D7D" font-family="'Verdana-Italic'" font-size="7">0</text>
<text transform="matrix(0.5942 -0.8043 0.8043 0.5942 95.6027 284.544)" fill="#7D7D7D" font-family="'Verdana-Italic'" font-size="7">0</text>
<text transform="matrix(0.5942 -0.8043 0.8043 0.5942 98.0353 280.7461)" fill="#7D7D7D" font-family="'Verdana-Italic'" font-size="7">0</text>
<text transform="matrix(0.5942 -0.8043 0.8043 0.5942 100.3663 276.7491)" fill="#7D7D7D" font-family="'Verdana-Italic'" font-size="7">0</text>
<path fill="none" d="M179.2,94.3c3.7-3.2,6.6-7.4,8.4-12c2.3-6.1,2.8-13.3,7.5-17.7"/>
<text transform="matrix(0.5936 -0.8048 0.8048 0.5936 184.3629 92.8096)" fill="#7D7D7D" font-family="'Verdana-Italic'" font-size="7.0002">9</text>
<text transform="matrix(0.5936 -0.8048 0.8048 0.5936 187.2122 88.9464)" fill="#7D7D7D" font-family="'Verdana-Italic'" font-size="7.0002">8</text>
<text transform="matrix(0.5936 -0.8048 0.8048 0.5936 189.4176 84.6088)" fill="#7D7D7D" font-family="'Verdana-Italic'" font-size="7.0002">0</text>
<text transform="matrix(0.5936 -0.8048 0.8048 0.5936 190.9023 80.2366)" fill="#7D7D7D" font-family="'Verdana-Italic'" font-size="7.0002">0</text>
<path fill="none" d="M244.6,283.1c8-2.4,15.3-6.9,22-11.9c5.8-4.3,11.3-9.1,16.7-13.9"/>
<text transform="matrix(0.8723 -0.489 0.489 0.8723 255.4657 281.4127)" fill="#7D7D7D" font-family="'Verdana-Italic'" font-size="7">1</text>
<text transform="matrix(0.8723 -0.489 0.489 0.8723 259.4781 279.1631)" fill="#7D7D7D" font-family="'Verdana-Italic'" font-size="7">1</text>
<text transform="matrix(0.8723 -0.489 0.489 0.8723 263.257 276.7012)" fill="#7D7D7D" font-family="'Verdana-Italic'" font-size="7">2</text>
<text transform="matrix(0.8723 -0.489 0.489 0.8723 267.0739 274.1026)" fill="#7D7D7D" font-family="'Verdana-Italic'" font-size="7">0</text>
<text transform="matrix(0.8723 -0.489 0.489 0.8723 270.6185 271.4278)" fill="#7D7D7D" font-family="'Verdana-Italic'" font-size="7">0</text>
<path fill="none" d="M29.5,33.3c7.9,1.5,16.2,1,23.9-1.3"/>
<text transform="matrix(0.9969 7.871519e-02 -7.871519e-02 0.9969 32.3339 36.3585)" fill="#7D7D7D" font-family="'Verdana-Italic'" font-size="7">9</text>
<text transform="matrix(0.9969 7.871519e-02 -7.871519e-02 0.9969 37.0193 36.7285)" fill="#7D7D7D" font-family="'Verdana-Italic'" font-size="7">6</text>
<text transform="matrix(0.9969 7.871519e-02 -7.871519e-02 0.9969 41.6366 36.6918)" fill="#7D7D7D" font-family="'Verdana-Italic'" font-size="7">0</text>
<text transform="matrix(0.9969 7.871519e-02 -7.871519e-02 0.9969 46.2931 36.1567)" fill="#7D7D7D" font-family="'Verdana-Italic'" font-size="7">0</text>
<path fill="none" d="M148.4,249.7c3.3-7,9.9-11.6,16.2-16"/>
<text transform="matrix(0.5132 -0.8583 0.8583 0.5132 150.4622 250.9095)" fill="#7D7D7D" font-family="'Verdana-Italic'" font-size="7">1</text>
<text transform="matrix(0.5132 -0.8583 0.8583 0.5132 152.5152 247.4769)" fill="#7D7D7D" font-family="'Verdana-Italic'" font-size="7">0</text>
<text transform="matrix(0.5132 -0.8583 0.8583 0.5132 155.22 244.3168)" fill="#7D7D7D" font-family="'Verdana-Italic'" font-size="7">4</text>
<text transform="matrix(0.5132 -0.8583 0.8583 0.5132 158.3541 241.4135)" fill="#7D7D7D" font-family="'Verdana-Italic'" font-size="7">0</text>
<text transform="matrix(0.5132 -0.8583 0.8583 0.5132 161.7801 238.8011)" fill="#7D7D7D" font-family="'Verdana-Italic'" font-size="7">0</text>
<path fill="none" d="M245.3,132.7c2.2,1.9,4.7,3.5,7.4,4.7c1.2,0.5,5.9,3.6,7,4.8c2,2,4,4,5.9,6"/>
<text transform="matrix(0.826 0.5637 -0.5637 0.826 244.7314 135.6661)" fill="#7D7D7D" font-family="'Verdana-Italic'" font-size="7">1</text>
<text transform="matrix(0.826 0.5637 -0.5637 0.826 248.6963 138.3719)" fill="#7D7D7D" font-family="'Verdana-Italic'" font-size="7">0</text>
<text transform="matrix(0.826 0.5637 -0.5637 0.826 252.4209 140.1874)" fill="#7D7D7D" font-family="'Verdana-Italic'" font-size="7">2</text>
<text transform="matrix(0.826 0.5637 -0.5637 0.826 256.0029 142.3898)" fill="#7D7D7D" font-family="'Verdana-Italic'" font-size="7">0</text>
<text transform="matrix(0.826 0.5637 -0.5637 0.826 259.1338 145.2528)" fill="#7D7D7D" font-family="'Verdana-Italic'" font-size="7">0</text>
<g>
	<g>
		<polyline fill="none" stroke="#7D7D7D" stroke-miterlimit="10" points="85.2,341.6 85.2,348.7 275.4,348.7 275.4,341.7 		"/>
		<line fill="none" stroke="#7D7D7D" stroke-miterlimit="10" x1="180.5" y1="341.4" x2="180.5" y2="348.7"/>
		<line fill="none" stroke="#7D7D7D" stroke-miterlimit="10" x1="161.2" y1="349.2" x2="161.2" y2="343.7"/>
		<line fill="none" stroke="#7D7D7D" stroke-miterlimit="10" x1="142.4" y1="349.2" x2="142.4" y2="343.7"/>
		<line fill="none" stroke="#7D7D7D" stroke-miterlimit="10" x1="123.3" y1="349.2" x2="123.3" y2="343.5"/>
		<line fill="none" stroke="#7D7D7D" stroke-miterlimit="10" x1="104.6" y1="349.2" x2="104.6" y2="343.7"/>
	</g>
	<text transform="matrix(1 0 0 1 83.7838 339.1468)" fill="#7D7D7D" font-family="'Verdana'" font-size="8">0</text>
	<text transform="matrix(1 0 0 1 174.2949 339.1468)" fill="#7D7D7D" font-family="'Verdana'" font-size="8">0.5</text>
	<text transform="matrix(1 0 0 1 258.3418 339.1468)" fill="#7D7D7D" font-family="'Verdana'" font-size="8">1 mi</text>
</g>
</svg>
