<?xml version="1.0" encoding="utf-8"?>
<!-- Generator: Adobe Illustrator 17.1.0, SVG Export Plug-In . SVG Version: 6.00 Build 0)  -->
<!DOCTYPE svg PUBLIC "-//W3C//DTD SVG 1.1//EN" "http://www.w3.org/Graphics/SVG/1.1/DTD/svg11.dtd">
<svg version="1.1" id="Layer_1" xmlns="http://www.w3.org/2000/svg" xmlns:xlink="http://www.w3.org/1999/xlink" x="0px" y="0px"
	 viewBox="0 0 360 360" enable-background="new 0 0 360 360" xml:space="preserve">
<path fill="none" stroke="#4E9BD7" stroke-miterlimit="10" d="M-13,262c4.7-6.6,9.5-13.1,14.2-19.7c0.5-0.8,1.1-1.5,1.4-2.4
	c0.5-1.3,0.6-2.7,1.1-3.9c0.5-1.3,1.8-2.4,3.1-2.1c1.9,0.4,2.5,3.2,4.4,3.5c1.5,0.2,2.6-1.4,3.2-2.8c0.6-1.4,1.6-3,3.1-3
	c2.1,0,2.9,2.9,4.9,3.6c1.2,0.4,2.4-0.2,3.4-1s1.7-1.8,2.7-2.5c1.7-1.3,4-1.7,6-1.1c0.5,0.1,1,0.3,1.5,0.4c0.9,0.1,1.7-0.3,2.6-0.4
	c2.4-0.3,5.6,2.2,7.1,0.3c0.3-0.4,0.5-1.1,0.6-1.5"/>
<path fill="none" stroke="#E1E1E1" stroke-miterlimit="10" d="M56.8,377.7c3.6-5.3,5.9-11.6,6.5-18c0.1-1.1,0.2-2.3,0.5-3.3
	c0.3-1.1,0.9-2.1,1.4-3.2c2.7-5.3,4.1-11.2,4.2-17.1c0-1.2,0-2.5,0.6-3.5c0.3-0.4,0.6-0.8,0.8-1.2c0.2-0.5,0.1-1.1,0-1.7
	c-0.4-3.2,0-6.4,1-9.4c0.3-0.9,0.7-1.7,0.9-2.6c0.2-1,0.3-2,0.5-3c0.5-2,1.7-3.7,2.6-5.5c1.1-2.3,1.6-4.9,2.1-7.4
	c0.7-3.6,1.3-7.2,2.7-10.6c1.4-3.7,2.9-7.4,4.3-11c0.4-1.1,0.9-2.3,1.1-3.5c0.8-4.2-1.4-8.8-5.2-10.9c-0.2-0.1-0.4-0.2-0.6-0.2
	c-0.7,0-1,0.8-1.5,1.3c-0.9,1-2.5,0.9-3.6,0.2s-1.8-1.9-2.4-3c-2.6-4.9-4.6-10.3-8.1-14.6c-0.7-0.8-1.8-1.6-2.6-1
	c-0.5,0.4-0.7,1.3-1.3,1.4c-0.6,0.1-1-0.5-1.3-0.9c-1.3-1.4-3.5-1.4-5.3-1.1c-3.8,0.6-7.5,2-10.8,4.1c-3,1.9-6.8,3.7-9.2,6.3
	c-1.1,1.1-2,2.4-3.3,3.3c-3.9,2.8-9.3,1.7-13.9,2.9c-2.4,0.6-4.9,2.4-4.7,4.8c0,0.6,0.3,1.2,0.1,1.8c-0.1,0.5-0.5,0.8-0.8,1.3
	c-0.9,1.3-0.8,2.9-0.7,4.5c0.2,6-0.3,12-0.8,18c-0.1,1.7-0.3,3.3-0.7,4.9c-0.4,1.3-1,2.5-1.6,3.7c-2.5,4.7-5.6,9-9.3,12.9
	c-1.4,1.5-3,3-3.7,4.9c-0.7,1.9-0.6,4-1.2,6c-1.4,4.1-6,6-8.9,9.3"/>
<path fill="none" stroke="#E1E1E1" stroke-miterlimit="10" d="M-13,313.8c1.4-4.3,4.5-8,5.1-12.5c0.8-6.5-4-13.2-1.4-19.2
	c0.8-1.8,2.1-3.3,2.6-5.1c0.3-0.9,0.3-1.9,0.6-2.8c0.8-2.5,3.5-4,4.3-6.6c0.3-1.1,0.3-2.2,0.8-3.2c0.4-0.7,1-1.3,1.4-2
	c1-1.5,1.1-3.4,2.1-4.8c1.3-2,3.8-2.7,6.1-3.4c6.3-1.7,12.6-3.4,19-5.1c1.3-0.4,2.7-0.7,3.9-1.4c1.9-1,3.4-2.5,5-4
	c2-1.8,4.5-2.4,6.4-4.3c3.8-3.7,9.9-2.6,15-1.3c3.4,0.9,6.8,1.7,10.2,2.6c2.4,0.6,4.8,1.2,6.8,2.5c2,1.3,3.6,3.1,5.3,4.7
	c5.4,4.9,14.4,11.9,20,7.3c1.8-1.5,2.4-5.7,4.5-4.8c2.5,1.1-3.5,10.8-2.7,13.4c2.3,7.3,3.1,12.8,1.9,16.6c-0.4,1.3,2.5-1.9,3.7-2.6
	s2.2,0.9,3.6,0.6c6.4-1.5-3.7-12.9-3-19.5c0.2-2.2,1-4.5,2.7-5.7c0.7-0.5,1.5-0.8,2.2-1.4c1.7-1.6,2.2-4.2,4.3-5.2
	c1.2-0.6,0.3-2.6-0.6-3.6c-0.9-1-2.1-1.8-2.5-3c-0.7-2,0.8-4.5-0.5-6.1c-0.5-0.6-1.3-1-1.5-1.7c-0.1-0.4,0-0.9,0-1.4
	c0.6-4.4-3.1-8.1-4.4-12.3c-0.7-2.2-0.7-4.5-0.7-6.8c0-5.1,0-10.2,0-15.2c0-1.1,0-2.3-0.3-3.4c-0.7-2.7-3.1-4.7-5.3-6.4
	c-1.1-0.9-2.1-1.7-3.2-2.6c-0.8-0.6-1.5-1.2-2.4-1.8c-3.6-2.4-7.8-3.3-12-4.4c-1.8-0.5-3.6-1.1-5-2.4c-0.6-0.6-1.1-1.3-1.8-1.4
	c-0.9-0.2-1.8,0.6-2.7,0.8c-1.6,0.4-3.2-0.8-4.6-1.7c-3.7-2.6-7.9-4.4-12.4-5.2c-0.4-0.1-0.8-0.1-1.1,0c-1.4,0.5-0.5,2.6,0,4
	c0.8,2.3-0.6,5.2-3,5.9c-2.4,0.7-3.4-2.6-5.7-3.4c-2.9-1.1-2.6,5.5-2.3,8.6c0.1,0.7,0.1,1.3,0.4,2c0.3,0.8,0.9,1.4,1.5,2.1
	c2.9,3.6,4,8.7,2.6,13.2c-0.5,1.7-1.3,3.3-1.3,5.1c-0.1,2.8,1.8,5.6,1.3,8.3c-0.6,3-3.7,4.6-5.9,6.8c-1.7,1.8-4.9,1.8-7,0.5
	s-3.5-3.5-4.9-5.6c-1.5-2.2-3.2-4.2-5.1-6c-0.5-0.5-1.1-1-1.7-1c-0.4,0-0.8,0.2-1.2,0.4c-2.1,1-4.9,2.7-6.7,1.2
	c-1-0.9-1.9-1.9-3.2-1.7s-2.5,0.9-3.7,1.5c-3.1,1.4-6.9,1.5-9.7,3.4c-1.8,1.2-3,3.1-4.8,4.3c-0.9,0.6-2,1-3,1.6
	c-3.2,1.9-5.1,5.4-6.9,8.7"/>
<path fill="none" stroke="#E1E1E1" stroke-miterlimit="10" d="M222.5,378.7c-0.3-2.3,2.4-4.2,1.8-6.4c-0.1-0.5-0.4-0.9-0.6-1.4
	c-0.7-1.8,0.2-3.9,1.4-5.4c1.2-1.5,2.9-2.7,4-4.3c1.9-2.6,2.4-6.1,1.3-9.1c-0.3-0.8-0.7-1.7-0.6-2.5c0.1-0.5,0.4-1,0.5-1.5
	c0.1-0.6,0-1.3-0.1-1.9c-0.5-3.9,1.1-7.7,1.6-11.6c0.9-6.6-1.1-13.5,0.4-19.9c0.3-1.1,0.6-2.3,0.2-3.4c-0.2-0.5-0.6-0.9-0.7-1.4
	c-0.2-0.6,0-1.2,0-1.8c0.1-1.3-1.4-2.2-1.5-3.6c-0.3-4.3,2.3-8.5,3.1-12.8c0.3-1.3-1-2.6-1.7-3.7c-1.2-2-1.9-4.2-3.5-5.9
	c-0.9-1-2.7,1.2-3.7,0.4c-0.4-0.4-0.4-1.2-1-1.4c-0.7-0.3-1.2,0.6-1.8,1.1c-0.9,0.7-2.2,0.4-3.2,0c-1.4-0.5-2.8-1.1-4.3-1.6
	c-0.2-0.1-0.4-0.1-0.5-0.3c-0.5-0.5,0.2-1.3,0.4-1.9c0.3-0.7,0.4-1.9-0.4-2.1c-1.6-0.5-3.3,0.9-4.5,2c-1.2,1.1-1.9,3-1.1,4.5
	c0.4,0.8,1.2,1.5,2.1,1.5c0.7,0,1.4-0.3,2.2-0.4c1.2-0.1,2.8,0.3,3.2,1.5c0.4,1-0.5,2.2-1.4,2.8c-0.9,0.6-2.1,0.7-3.2,0.3
	c-0.6-0.2-1.3-0.6-1.9-0.6c-0.8,0-1.5,0.4-1.7,1.2c-0.1,0.2-0.1,0.4-0.3,0.5c-0.2,0.1-0.5,0-0.7-0.1c-0.9-0.4-1.9-1.2-2.8-0.8
	c-0.3,0.2-0.6,0.5-0.9,0.5c-0.4,0-0.4-0.3-0.4-0.6c0-0.8-0.9-1.2-0.9-1.9c0-0.8,0-1.6-0.4-2.2c-0.4-0.5-1.3,0-1.6-0.6
	c-0.2-0.4-0.5-0.8-0.9-1c-0.4-0.2-0.9-0.3-1.3-0.5c-0.8-0.5-1.1-1.6-1-2.5c0.1-0.5,0.2-1.1-0.2-1.5c-0.7-0.6-3.5-1.1-4.4-1.3
	c-1.6-0.4-3.2-0.4-4.8-0.2c-3,0.4-6,1.9-7.1,4.9c-0.5,1.4,0.6,3.8-0.7,4.3c-4.1,1.6-8.7,2.7-12.7,0.9c-0.9-0.4-1.6-1.1-2.4-1.9
	c-4.8-4.9-10-9.4-14.3-14.7c-5.3-6.6-3-16.6,0.1-24.5c9.9-25.7,33.2-45.7,60.1-51.6c6.4-1.4,20.1-2.2,17.3-8.1
	c-0.7-1.4-3.7,0.6-4.7-0.6c-3.9-4.2,0.4-13.8,5.8-15.8c4-1.5,8.6-0.5,12.1-2.9c1.1-0.8,2.3-1.7,3.7-1.8c1.4-0.1,1.5,1.4,2.2,2.6
	c1.5,2.4,8.1,0.1,8-2.7c0-1.8-0.4-3.3,1-4.4c1.4-1.1,3.3-2.3,3-4.1c-0.2-1.2-1.6-2.1-1.8-3.3c-0.3-1.6,1.3-2.9,2.8-3.6
	c4.5-2.1,10.2,1.9,14.5-0.6c1.9-1.1,3.5-2.2,5.7-2.4c2.6-0.3,5.3-1.8,6.4-4.2c0.8-1.8-2.7-1.6-3.7-3.4c-1.6-2.9,5.4-4.9,5.4-8.1
	c0-2.5-5.1,0-6.9-1.8c-0.9-1,1.9-3.5,0.6-3.9c-5.3-1.9-16.1,11.6-25.4,14.7c-6.4,2.2-13.6,0.2-20.2-0.8c-2-0.3-3-2.7-2.8-4.7
	c0.2-2,1.6-3.6,3.1-4.9c1.9-1.5,4.5-0.7,6.6-1.8c1.4-0.7,2.3-2.9,1.8-4.4c-1.1-2.7-4.4-4.3-3.8-7.2c3-14.5,11.2-27.6,22-37.7
	c0.9-0.9,1.9-1.8,2.3-3.1c0.6-2-1-4.2-2.9-5.1c-1.9-0.9-4.7,0.7-6.3-0.7c-3-2.8-3.2-9.2-7.1-7.9c-1.2,0.4-2.1,1.3-2.9,2.2
	c-9.7,10.5-14.1,24.9-17.2,38.9c-3.4,15.3-18.6,25.1-29.5,36.4c-10.9,11.2-21.7,22.4-32.6,33.7c-1.4,1.4-2.8,3-3.4,4.9
	c-0.6,2.3,0,5.1-1.8,6.6c-0.7,0.6-1.6,0.9-2.3,1.4c-1.1,0.8-1.6,2.2-2,3.5c-2.9,8.4-5.9,16.9-8.8,25.3c-1,2.9-2,5.9-1.8,9
	c0.1,2,0.7,4.2-0.3,5.9c-0.8,1.3-2.2,2-3.4,3c-2.1,1.8-3.2,4.4-4.7,6.7c-1.5,2.3-4,4.4-6.7,4c-1.2-0.2-2.4-0.9-3.4-1.6
	c-3.3-2.5-5.9-6.1-7.1-10.1c-0.7-2.3-1.1-4.7-2.2-6.7c-1.5-2.8-4.4-4.8-5.7-7.7c-2.3-4.9,0.1-10.6,0-15.9c-0.1-4.4-2-8.6-3.9-12.6
	c-3.6-7.7-7.3-15.7-13.7-21.3c-0.7-0.6-1.4-1.2-2.3-1.2c-0.9-0.1-1.7,0.4-2.6,0.3c-0.7,0-1.3-0.4-1.9-0.7
	c-5.6-3.1-10.5-7.3-14.6-12.2c-2.2-2.6-4.5-5.7-7.9-6.2c-1.1-0.1-2.2,0-3.3-0.2c-3-0.7-4.5-4.2-4.8-7.3c-0.3-3.1,1.5-8.3-1.5-9.2
	c-6.7-2-0.3,18.6-7.3,19c-2.7,0.1-3.2-4.7-5.6-5.9c-0.8-0.4-1.6,0.6-1.8,1.4c-0.6,2.7-1.2,5.5-1.8,8.2c-0.2,0.7-0.3,1.5-0.7,2.2
	c-0.3,0.6-0.6,1.1-0.9,1.6c-1,2.3,0.5,5.1-0.2,7.6c-0.3,1-0.9,1.9-1.2,2.9c-0.3,1-0.4,2.1-0.6,3.2c-0.5,3-2.2,5.8-4.2,8.2
	c-5.1,6.4-11.9,11.2-19.3,14.9c-2.1,1.1-4.5,2.1-6.9,1.5c-1.2-0.3-2.6-1-3.7-0.4c-0.5,0.3-0.8,0.7-1.2,1.1c-2.2,2.3-5.5,3.1-8.5,3.8
	c-1,0.2-2.1,0.5-3.1,0.7c-2.4,0.5-4.7,1.1-6.9,2.1"/>
<path fill="none" stroke="#E1E1E1" stroke-miterlimit="10" d="M169.2,248.5c0.4-0.1,0.9-0.1,1.3-0.3c0.8-0.4,1-1.4,1.2-2.3
	c0.6-2.6,1.8-5,2.6-7.5c0.8-2.5,1-5.4-0.3-7.7c-0.2-0.3-0.4-0.5-0.4-0.9c-0.1-0.6,0.3-1.1,0.5-1.7c0.5-1.3-0.2-3.1-1.5-3.1
	c-0.7,0-1.3,0.5-1.7,1c-5.5,5.3-11.1,11.2-12.1,18.8c-0.3,2-0.2,4.1,1,5.8s3.4,2.6,5.2,1.7C166.5,251.4,167.3,249,169.2,248.5z"/>
<path fill="none" stroke="#E1E1E1" stroke-miterlimit="10" d="M209.3,183.3c1.5-1.4,4.4-0.4,5.6-2.1c0.6-0.8,0.4-1.9,0.5-2.9
	c0-1,0.5-2.2,1.5-2.3c0.5-0.1,1,0.1,1.4,0.1c1.6,0.1,1.4-1.9,1.8-3.4c0.6-2.2,4.5-2,5.3-4.1c0.5-1.3,0.6-3,1.8-3.5
	c0.5-0.2,1-0.1,1.4-0.3c1.4-0.3,2-2,1.8-3.4s-1.1-2.6-1.9-3.7c-0.8-1.1-1.9-2.3-3.3-2.1c-0.8,0.1-1.4,0.7-2.2,0.9
	c-1.6,0.5-2.3-1.3-3.3-2.5c-1.7-2.1-5.4,2.4-4.5,5.1c0.1,0.4,0.4,0.9,0.4,1.3c0,0.8-0.6,1.4-1,2c-1.3,1.8,0.1,4.6-1.3,6.3
	c-2.2,2.7-6.4,2.3-9.1,4.6c-0.5,0.4-1,0.8-1.3,1.3c-1,1.3-1.2,2.9-1.4,4.5c-0.3,2.1-0.5,4.4,0.5,6.2c1,1.9,3.8,2.8,5.3,1.3
	C208.2,185.8,208.3,184.2,209.3,183.3z"/>
<path fill="none" stroke="#E1E1E1" stroke-miterlimit="10" d="M235.4,120.1c-0.4-0.4-0.5-1-0.9-1.5c-0.5-0.5-1.4-0.6-2.1-0.4
	c-0.7,0.3-1.2,0.8-1.7,1.4c-0.5,0.7-0.8,1.5-1.1,2.2c-0.5,1.1-0.9,2.6-0.1,3.4c0.9,0.9,2.3,0.4,3.5,0.1c1.7-0.4,3.7,0.9,5.2,0
	c1.5-0.9-0.2-3.7-1.7-4.6C236.1,120.7,235.7,120.5,235.4,120.1z"/>
<path fill="none" stroke="#E1E1E1" stroke-miterlimit="10" d="M113,168.4c-0.7,5.3-0.1,10.6,0.4,15.9c0.8,7.9,1.6,15.7,2.4,23.6
	c0.1,1.3,0.3,2.7,1.1,3.7c0.7,0.9,1.7,1.4,2.7,1.9c4.4,2.3,8.9,4.5,13.3,6.8c0.9,0.5,2,1,3,0.7c0.8-0.2,1.5-0.9,2-1.6
	c2.7-3.6,4.3-8,4.7-12.5c0.2-2.6,0-5.2,0.3-7.7c1-7.4,6.2-13.5,9-20.4c1.9-4.8,2.6-10,4.5-14.9c1.8-4.8,5.2-9.5,10.2-11
	c1.6-0.5,3.3-0.6,4.8-1.3c1.5-0.7,2.7-2.5,2.2-4c-0.4-1-1.3-1.7-1.4-2.7c-0.1-1.3,1.3-2.2,2.6-2.3c1.3-0.1,2.5,0.4,3.8,0.4
	c3.8,0.2,6.9-3,9.4-5.9c4.4-5.1,8.7-10.2,13.1-15.3c5.7-6.6,11.4-13.3,16.1-20.7c4.8-7.6,8.5-16,11.2-24.6c2.9-9.3,5-19.3,11.5-26.6
	c1.9-2.1,4.2-4.1,5.4-6.7s-0.6-5-2.1-7.5c-0.8-1.4,2.5-1.9,3.4-3.2c1.1-1.6-0.7-3.9-2.6-4c-1.9-0.1-3.6,1.1-5,2.4
	c-1.4,1.3-2.8,2.8-4.6,3.4c-1.5,0.5-3.2,0.3-4.8,0.1c-15.9-1.4-31.3,5.3-46.1,11.4c-13.3,5.5-26.9,10.5-40.9,13.9
	c-2.4,0.6-4.9,1.1-7.3,0.5c-2.9-0.7-5.5-3.1-8.4-2.4c-1.5,0.4-2.8,1.5-4.3,1.7c-1.4,0.2-2.7-0.5-3.9-1c-14.3-5.6-30.4-3.1-45.5-0.1
	c-6.3,1.2-12.9,5.8-15,11.8c-1.2,3.5,4.3,6.4,8,6.4c1.2,0,2.5-0.3,3-1.3c0.5-0.8,0.3-1.8,0.5-2.8c0.6-4,6.5-5.1,9.7-2.7
	s4.5,6.6,5.5,10.5c0.9,3.5,3.6,7.1,2.7,10.6c-0.7,2.7-5.4,0.4-8.2,0.8c-2.6,0.4-4.5,2.5-5.9,4.7c-6.2,9.4-7.8,21.8-4.2,32.5
	c0.4,1.2,1,2.5,2,3.2c3.3,2.2,7.1-2.5,11-2.5c3.1,0,5.4,2.8,6.8,5.6c1.4,2.8,2.5,6,5,7.7c2.5,1.7,5.9,1.6,8.9,1.2
	c3-0.4,6.2-1,9.1,0.1c2.9,1.1,5.1,4.6,3.6,7.3c-1,1.8-3.5,3-3.4,5c0,0.9,0.5,1.6,0.8,2.4C114.2,162,113.4,165.3,113,168.4z"/>
<path fill="none" stroke="#E1E1E1" stroke-miterlimit="10" d="M122.8,180c-0.2-2.2-1-3.8-1.2-6c-0.3-4-0.7-8.1,0.1-12
	c0.3-1.7,0.9-3.4,1.1-5.1c0.1-1.2,0.1-2.4,0.3-3.6c0.5-2.4,3.5-3.2,4.8-5.3c1.9-3.1-1.4-7.4-3.8-10.1c-1-1.2-2.4-2.1-3.1-3.5
	c-0.8-1.4-0.7-3.4,0.6-4.2c0.7-0.4,1.6-0.2,2.5-0.2c6.1-0.3,8.8,4.5,12.2,6.9c1.3,0.9,4.9,2.4,5.2,3.9c0.2,1.1,1.3,3.1,1.6,3.9
	c0.5,1,4,3.1,0.8,3.5c-3.3,0.4,0.2,5.5-0.4,8.8c-0.4,2.2-2.1,3.9-2.5,6c-0.6,2.9,1.5,5.7,1.7,8.7c0.1,1.2,0,2.3-0.2,3.5
	c-0.5,3.5-0.9,7-1.4,10.5c-0.2,1.2-0.3,2.4-0.9,3.4c-0.8,1.4-2.2,2.3-2.8,3.8c-1.3,3.2,1.6,7.5-0.7,10c-0.7,0.8-1.8,1.1-2.7,1.6
	c-1.4,0.7-2.7,1.6-4.3,2c-1.5,0.4-3.4,0.1-4.2-1.3c-0.6-1.1-0.4-2.4-0.3-3.6c0.1-3.3-1.3-6.5-2.2-9.7c-0.9-3.2,0.1-3.9,0-7.2
	C123.1,183.6,122.9,181.2,122.8,180z"/>
<path fill="none" stroke="#E1E1E1" stroke-miterlimit="10" d="M214.1,88.7c4.1-7.2,5.1-15.7,7.4-23.7c1.5-5.1,3.5-10,6.1-14.7
	c1.4-2.5,2.8-5.9,0.7-7.7c-1.4-1.3-3.7-0.9-5.6-0.5c-6.9,1.7-13.9,3.4-20.8,5.1c-7.5,1.8-15.5,3.9-20.6,9.7
	c-1.7,1.9-3.3,4.4-5.8,5.1c-2.4,0.7-4.9-0.6-7.4-1.1c-4.6-1-9.3,0.5-13.4,2.7s-7.9,4.9-12.2,6.8c-7.9,3.4-16.7,3.6-25.3,3.7
	c-0.9,0-1.8,0-2.6-0.4c-1.2-0.7-1.8-2.4-3.2-2.6c-0.7-0.1-1.3,0.2-2,0.2c-3.3,0.4-7.5,0.2-9.3-2.6c-0.7-1.2,0.5-2.8-0.7-3.4
	c-1.2-0.6-2.7-0.4-4-0.2c-2.7,0.5-5.5,0.9-8.2,1.4c-1.1,0.2-2.2,0.4-3.1,1.1s-1.5,2.2-0.7,2.9c3.7,3.1,10.4-0.8,14.1,2.3
	c2.5,2.1,0.3,6.4,0.4,9.6c0.1,2.8,0.2,5.5,0.6,8.3c0.8,5.6,6.6,8.3,8.8,13.5c1.2,2.8-2.2,5.9-1.6,8.9c0.6,3,2.8,5.8,5.8,6.5
	c3.5,0.7,6.9-1.5,10.3-2.7c3.2-1.1,6.7-1.3,10-0.6c1.7,0.4,3.4,1,4.6,2.3c1.1,1.3,0.1,3.1,0.5,4.8c0.4,1.9,3.7-0.7,5.4,0.1
	c2.3,1.1,0.9,5.1,1.4,7.6c0.4,2.4,0.9,5,2.2,7.1c1.3,2.1,3.5,3.9,6,3.9c2.5,0,4-2.4,4.4-4.8c0.4-2.4,4.1-2.5,6.5-2.1
	c2.4,0.4,4.9,1.1,7.2,0.3c1.1-0.4,2-1.1,2.9-1.8c5.7-5,8.8-12.5,14.9-16.9c3.4-2.4,7.5-3.8,10.1-7c2.1-2.6,2.9-6,5-8.6
	c1.3-1.6,3.1-2.8,4.7-4.2C210.1,94.5,212.4,91.7,214.1,88.7z"/>
<path fill="none" stroke="#E1E1E1" stroke-miterlimit="10" d="M203.2,86.3c1-1.6,1.9-3.4,3.4-4.4c1.1-0.8,2.6-1.2,3.3-2.3
	c0.6-0.9,0.5-2.1,0.9-3.2c0.3-0.7,0.8-1.3,1.3-1.9c3.8-4.8,4.2-11.5,4.4-17.6c0-0.8,0-1.7-0.4-2.4c-0.9-1.6-3.1-1.6-4.9-1.3
	c-6.4,1-12.7,2.8-18.9,4.7c-1.5,0.4-3,0.9-4.4,1.3c-1.1,0.3-2.2,0.6-3.1,1.3c-1.2,0.8-2.1,2.1-3,3.2c-4.5,5.9-12.6,15.8-18.4,11.1
	c-1.9-1.6-3.6-3-6-3c-6.3,0-12.7,1-18.7,2.9c-1.4,0.5-2.9,1-4.1,1.9c-2,1.5-3.2,3.9-4.2,6.2c-1.2,2.5-2.3,4.9-3.5,7.4
	c-1.2,2.5-2.4,5.1-3.3,7.8c-0.7,2-1.2,4.2-0.8,6.3c0.4,2.1,2,4.1,4.1,4.3c0.8,0.1,1.7,0,2.4,0.4c0.6,0.4,0.9,1,1.4,1.5
	c1.7,1.3,4.4-0.6,6.2,0.5c0.5,0.3,0.9,0.8,1.3,1.3c2.6,3.5,5.9,6.6,9.9,8.5c4,1.8,8.6,2.4,12.8,1.1c1.3-0.4,2.5-1,3.8-1.1
	c0.9-0.1,1.8-0.1,2.7-0.3c1.9-0.4,3.3-2,4.9-3.1c2.4-1.7,5.3-2.6,7.8-4.1s2.4-4.9,4.3-7.2c1.7-2.1,4.7-2.3,6.5-4.2
	C195.5,96.9,199.9,92,203.2,86.3z"/>
<path fill="none" stroke="#E1E1E1" stroke-miterlimit="10" d="M190.2,81.4c2.8-2.8,5.4-5.9,7.7-9.1c0.5-0.7,1.1-1.5,1.2-2.5
	c0.1-0.9-0.4-2-1.3-2.2c-1-0.2-1.9,0.6-2.6,1.3c-2.5,2.3-5.7,3.8-9,4.2c-2,0.3-4.3,0.2-5.9,1.4c-1,0.8-1.6,1.9-2.5,2.8
	c-3.6,4-10.2,3.2-15,5.8c-0.4,0.2-0.9,0.5-1.4,0.6c-0.7,0.2-1.4,0-2.1-0.1c-1.9-0.1-3.7,0.6-5.6,0.7c-1.9,0.1-4.1-0.6-4.6-2.5
	c-0.2-0.6-0.1-1.3-0.5-1.8c-0.4-0.5-1-0.6-1.6-0.7c-1.8-0.3-3.7-0.7-5.6-0.3c-1.8,0.4-3.6,1.8-3.8,3.6c-0.1,0.8,0.1,1.6,0.2,2.3
	c1.1,5.2,2.2,10.3,3.3,15.5c0.2,0.9,0.4,1.9,1,2.6c0.5,0.6,1.2,1,1.9,1.4c4.3,2.3,9,4.7,13.8,4c1.8-0.3,3.6-0.9,5.4-1
	c2.3-0.1,4.6,0.8,6.8,0c3.2-1.2,4.3-5.4,7.3-7c1-0.5,2.3-0.8,2.9-1.7c0.6-0.8,0.6-1.8,0.9-2.7c0.7-2.1,3-3.2,4.9-4.3s3.8-3.3,3-5.4
	c-0.2-0.6-0.7-1.2-0.8-1.8C188.2,83.5,189.3,82.4,190.2,81.4z"/>
<path fill="none" stroke="#E1E1E1" stroke-miterlimit="10" d="M113.9,105.3c0.6,0.7,1.6,0.2,2.4-0.2c1.8-1.1,4.9-3,3.7-4.8
	c-0.3-0.5-1.2-0.7-1.8-0.6c-0.4,0.1-0.8,0.3-1.1,0.5c-1.2,0.8-2.3,2-3,3.3C113.7,104,113.5,104.8,113.9,105.3z"/>
<path fill="none" stroke="#E1E1E1" stroke-miterlimit="10" d="M271,45.8c-0.9-0.5-2-0.5-3-0.4c-1.8,0.1-3.8-0.5-5.4,0.4
	c-0.8,0.5-1.1,1.7-1.6,2.5c-0.1,0.2-0.3,0.4-0.3,0.6c0,0.4,0.3,0.7,0.6,1c1,0.7,2.6,1,2.6,2.2c0,0.5-0.3,1-0.2,1.5
	c0.1,0.7,1,1,1.7,0.9c0.7-0.1,1.4-0.5,2.1-0.7c0.7-0.2,1.6-0.1,1.9,0.6c0.1,0.2,0.1,0.4,0.3,0.5c0.2,0.1,0.5,0,0.7,0
	c0.2,0,0.4,0.1,0.6,0.2c2.5,1.6,5.9,1.6,8.4,0.1c0.7-0.4,1.5-1.3,1.1-2.1c-0.2-0.4-0.7-0.8-0.4-1.1c0.3-0.2,0.6-0.2,0.9-0.4
	c0.7-0.5,0.4-1.7-0.3-2.2s-1.5-0.7-2.3-0.7c-1.7,0-3.5,0.4-4.9-0.5C272.5,47.5,272,46.4,271,45.8z"/>
<path fill="none" stroke="#E1E1E1" stroke-miterlimit="10" d="M266.9,28.1c-2.9,0.9-6.3,2.6-6.1,5.6c0.1,0.9,0.5,1.8,0.9,2.6
	c1,2,2.4,4.2,4.6,4.8c2.1,0.6,4.3-0.5,6.1-1.9s3.6-4.7,5.5-3.6c2.2,1.3-0.4,5.2,0.2,7.7c0.5,1.7,3.6,0.9,4.6,2.3
	c0.6,0.9,0.4,2.1,0.6,3.1c0.4,2.6,3.6,4.3,6,3.2c2.4-1.1,1.2-4.1,1.5-6.7c0.4-3.3,5.3-3.9,7.9-5.8c1.1-0.8,2.2-1.6,2.8-2.8
	c0.6-1.2,0.5-2.9-0.6-3.7c-0.6-0.4-1.4-0.6-1.8-1.2c-0.4-0.5-0.3-1.2-0.5-1.8c-0.6-3-4.6-3.7-7.5-2.9c-2.9,0.8-6.3,3.6-8.8,1.9
	c-0.9-0.6,0.1-2.2-0.4-3C279.3,21.6,271.8,26.5,266.9,28.1z"/>
<path fill="none" stroke="#E1E1E1" stroke-miterlimit="10" d="M257.3,121.4c-1.7-0.4-3.6,0.9-4.1,2.6c-0.5,1.5,0,3.4,1.3,4.1
	c0.6,0.3,1.3,0.4,1.9,0.3c1.7-0.2,3.2-1.5,3.4-3.2C260.1,123.5,259,121.7,257.3,121.4z"/>
<path fill="none" stroke="#E1E1E1" stroke-miterlimit="10" d="M304.9,86.5c2.1-2.1,3.9-4.5,5.5-7c1.2-2,2.4-4.1,4.1-5.6
	c1.2-1.1,2.6-1.8,3.7-2.9c1.4-1.4,2.2-3.2,3-5c0.9-2.1,1.9-4.2,2.1-6.4c0.1-1.7-0.1-3.4,0.5-5c0.4-0.9,1-1.7,1.5-2.5
	c1.4-2.7-2.5-5.6-1.3-8.5c0.5-1.3,2.8-0.7,3.4-1.9c0.6-1.2,0.2-2.9-1-3.5c-0.6-0.3-1.2-0.3-1.8-0.6c-2.2-1.2-1.6-5.4-4.1-5.9
	c-1.9-0.4-1.9,2.6-3.2,4c-0.6,0.7-2,0.3-2.5,1.1c-1.1,1.5,1.3,4.1-0.1,5.5c-0.9,0.9-2.4,0.4-3.7,0.2c-2.3-0.3-4.6,0.7-6.3,2.2
	s-3.1,3.4-4.5,5.2C293.7,58,285,64,278,71.6c-4.7,5.2-8.7,11-13.7,15.9c-2.1,2.1-4.5,3.9-6.3,6.3c-1.9,2.3-5.2,6.3-2.9,8.2
	c2.6,2.2,6.8,0.6,9.8,2.3c0.3,0.2,0.7,0.4,1,0.5c0.8,0.1,1.5-0.4,2.2-0.8c3.4-1.6,7.3,1.8,11.1,1.2c1.4-0.2,2.6-1,3.8-1.7
	c2.7-1.7,5.5-3.5,8.2-5.2c1.3-0.9,2.7-1.7,3.7-2.9c2.1-2.4,3.1-6.3,6.2-7c0.6-0.1,1.3-0.1,1.9-0.3C303.8,87.6,304.4,87.1,304.9,86.5
	z"/>
<path fill="none" stroke="#E1E1E1" stroke-miterlimit="10" d="M286.4,84.1c-0.8,1.9-1.7,3.9-3.2,5.5c-0.6,0.6-1.3,1.2-2.2,1.4
	s-1.8,0.1-2.5-0.6c-0.6-0.6-0.7-1.6-0.5-2.5c0.2-0.8,0.7-1.6,1.2-2.3c1.6-2.4,3.2-4.9,4.9-7.3c1-1.5,2.1-3.1,3.4-4.4
	c0.5-0.5,1.3-1,1.9-0.5c0.3,0.2,0.4,0.6,0.5,1c0.2,0.8,0.4,1.7,0,2.4c-0.2,0.3-0.4,0.5-0.6,0.8c-1.1,1.3-1.6,3-2.1,4.6
	C286.9,82.8,286.6,83.4,286.4,84.1z"/>
<path fill="none" stroke="#E1E1E1" stroke-miterlimit="10" d="M304.8,61.3c-0.9-0.5-2.1-0.2-3.1,0.2c-1,0.4-2.1,0.8-3.1,1.2
	c-1.3,0.5-2.7,1.1-3.8,2c-0.9,0.8-1.6,1.9-2.2,3c-0.5,0.9-1,1.9-0.7,2.8c0.3,0.9,1.2,1.4,2.1,1.5c0.9,0.1,1.8-0.2,2.7-0.5
	c1-0.3,2-0.7,3-0.9c0.6-0.1,1.2-0.1,1.8-0.3c2.2-0.6,3.5-3,4.1-5.3C306,63.7,306,62,304.8,61.3z"/>
<path fill="none" stroke="#E1E1E1" stroke-miterlimit="10" d="M366.3-5.4c-0.9,0.6-1.7,1.2-2.5,2c-2.3,2.3-3.4,6.1-1.7,8.9
	c0.4,0.6,0.9,1.2,1.2,1.8c0.8,2.2-1.6,4.3-3.9,5.1c-2.3,0.8-4.9,1.2-6.1,3.3c-1.1,1.8-0.4,4.2,0.8,5.9c1.2,1.7,2.9,3,4.4,4.6
	c2.3,2.5,3.7,5.6,4.2,8.9c0.2,1.5,0.2,3.1,0.9,4.5c1.5,3.3,8.3,6,5.9,8.7c-2.8,3.1-7.5,3.6-11.3,5.1c-5.1,2.1-10.9,2-15.9,4.4
	c-1.7,0.8-3.4,2-4.5,3.5c-0.9,1.2-1.5,2.7-2.5,4c-1.6,2.2-4,3.7-5.7,5.8c-3.1,3.9-3.5,9.4-6.6,13.3c-1,1.2-2.2,2.2-2.9,3.5
	s-1.5,3.8,0,4.3c2.5,0.8,6-3.9,7.6-1.8c3.9,5.3-12.3,5-16.5,10c-1.4,1.6-2.2,3.8-4,4.9c-1.6,1-3.8,1-5.5,1.8
	c-1.8,0.8-3.4,4.4-1.5,4.6c6.9,0.9,12.8-5.5,19.2-8.2c0.8-0.3,1.8-0.6,2.4-0.1c0.3,0.3,0.4,0.7,0.5,1.1c0.4,2.6-1.3,5-3.4,6.6
	c-2.1,1.6-4.5,2.7-6.4,4.5c-3.3,3.2-6.2,10-2.5,12.7c3.6,2.5,5.7-5,9.2-7.6c1.6-1.3,3.3,2.5,3.3,4.6c0,2-1.2,4-1.7,6
	c-0.3,1,0,2.2-0.8,2.9c-3.5,3.3-7,6-10.3,9.4c-5.7,5.9-24.2,6.5-20.1,13.6c1.9,3.4,9.7-5,11.5-1.6c3.6,6.9-5.2,14.4-9.4,20.9
	c-3.6,5.7-11.5,7-17.2,10.5c-1.3,0.8-2.6,1.5-4,1.8c-0.9,0.2-1.8,0.1-2.7,0.2c-2.2,0.2-4.2,1.4-6.3,2.1c-3.6,1.3-7.4,1.6-11.1,2.4
	c-6.5,1.5-12.7,5-17,10.2c-4,4.9-8.7,8.3-13.8,12.3c-2,1.6-0.5,5.5-2.2,7.5c-3.2,3.5-2.9,9.6-7.2,11.7c-0.8,0.4-1.7,0.6-2.6,0.7
	c-11.7,2.5-19,14-24.9,24.4c-1.2,2.2-2.3,5.5-0.1,6.8c0.8,0.5,1.8,0.5,2.8,0.4c8.6-0.8,15.4-7.2,22.2-12.5c0.7-0.5,1.4-1.1,2.2-1.3
	c0.9-0.2,1.8-0.1,2.7,0.1c8.4,1.7,15.8,7,21.5,13.4c5.7,6.4,12.8,13,14.2,21.5c0.6,3.9-1.4,8.1-1.3,12c0,1.5,0.5,3.4,1.9,3.7
	c0.4,0.1,0.8,0.1,1,0.3c0.4,0.4,0.2,1,0,1.5c-0.5,1.8,0.1,3.6,0.6,5.4c1.6,6.4,0.6,13.3-2.6,19c-0.3,0.6-0.7,1.1-0.8,1.8
	c-0.2,1.1,0.4,2.3,0,3.3c-0.4,1-1.5,1.7-1.7,2.7c-0.1,1.2,1.1,2.3,0.9,3.5c-0.1,0.4-0.4,0.8-0.6,1.1c-0.3,0.6-0.4,1.3-0.5,2
	c-0.4,3-0.9,6-1.3,8.9c-0.3,1.9-0.6,3.9-1.2,5.8c-0.9,2.5-2.4,4.7-3.2,7.2c-0.2,0.8-0.4,1.6,0.1,2.3c0.2,0.3,0.5,0.5,0.7,0.7
	c1.8,1.5,2.5,4.1,1.9,6.4"/>
<path fill="none" stroke="#E1E1E1" stroke-miterlimit="10" d="M368.8,77c-7.9,5.1-15.8,10.4-22.4,17.1c-6.1,6.2-11,13.5-16.8,20
	c-0.7,0.7-1.4,1.5-1.6,2.4c-0.7,2.3,1.1,4.5,2.6,6.4c3.5,4.5,4.9,11.9,0.3,15.3c-4.3,3.1-6.4,8.1-9.5,12.5c-0.4,0.6-0.9,1.2-1.5,1.7
	c-0.8,0.5-1.7,0.6-2.6,0.8c-3.1,0.6-5.9,2.3-8,4.7c-0.8,1-1.6,2.2-1.7,3.5c-0.3,2.9,2.5,5.5,1.9,8.3c-0.3,1.4-1.3,2.5-2.3,3.5
	c-4.4,4.6-8.8,9.2-13.1,13.9c-1,1.1-2.7,3.4-3.8,4.3c-2.3,1.8-2.4,5.7-5.2,6.6c-2.3,0.8-4.8-0.7-6.8,0.7c-2,1.4-3.6,3.4-5.8,4.5
	c-1.7,0.9-3.6,1.2-5.5,1.6c-6.1,1.4-11.8,3.8-17.5,6.3c-1.6,0.7-3.2,1.4-4.6,2.2c-4.4,2.5-8,6.5-10,11.2c-0.3,0.8-0.6,1.6-1.2,2.2
	c-0.3,0.4-0.7,0.7-1.1,1c-2.6,2.4-3.3,6.4-2.6,9.8c0.7,3.5,2.6,6.6,4.4,9.6c1.7,2.8,3.3,5.5,5.5,7.9c1.3,1.5,2.9,2.9,3.8,4.7
	c0.9,1.7,1.1,3.7,2.1,5.3c1.4,2.3,4.9,3,5.9,5.5c0.5,1.1,1.4,1.2,2.2,2.1c0.3,0.4,0.4,1,0.5,1.5c0.5,2.5,1.1,5.1,1.6,7.6
	c0.4,1.8,0.8,3.6,0.4,5.4c-0.3,1.5-1.2,3-0.8,4.6c0.5,1.9,2.8,2.9,3.3,4.8c0.5,2-0.9,4.4,0.4,5.9c0.4,0.5,1.1,0.8,1.5,1.4
	c0.5,0.7,0.5,1.5,0.6,2.4c0.1,3.1,0.1,6.2,0.2,9.3c0,1.3,0,2.7-0.7,3.8c-0.4,0.6-1,1-1.3,1.6c-0.3,0.7-0.3,1.5-0.3,2.3
	c0.2,4.9,0.2,9.8,0,14.6c0,0.6-0.1,1.3-0.3,1.8c-0.3,0.6-0.8,1-1.2,1.5c-1.4,1.9-0.6,4.5-0.3,6.8c0.5,3.6-0.4,7.2-1,10.8
	c-1.2,6.4-1.7,13-1.6,19.5c0,0.6-0.3,1.5-0.9,1.3"/>
<path fill="none" stroke="#E1E1E1" stroke-miterlimit="10" d="M369.3,85.2c-1.7,1.2-3.5,2.3-5.2,3.5c-5.5,3.8-10.9,7.8-15.3,12.8
	c-4.7,5.4-8,11.8-11.3,18.1c-0.5,0.9-0.9,1.9-0.8,2.8c0.5,3.3,9,3.9,6.8,6.4c-2.3,2.8-5.6,4.4-6.4,7.9c-0.8,3.5-0.9,7.3-2.8,10.4
	c-2.3,3.7-6.8,5.7-9.2,9.3c-2.6,3.8-2.6,8.7-4.8,12.7c-3.7,6.8-12.4,8.9-18.2,14c-7.8,6.9-9.7,18.9-18,25.3
	c-6.5,5-15.3,5.3-23.3,7.4c-7.9,2.1-16.5,7.8-16.1,16c0.1,2.7,1.2,5.2,2.3,7.7c2.6,5.8,2.6,13.7,7.7,17.4c2,1.4,5.5,1.4,5.8,3.9
	c0.1,0.8-0.2,1.6-0.2,2.4c0,1.4,1,2.6,1.3,4c0.5,2.4-1.1,5.1,0,7.3c0.4,0.9,1.2,1.5,1.7,2.3c1.3,2.1,0.9,4.8,1.5,7.2
	c0.4,2,1.6,3.9,2.4,5.8c2.3,4.9,3,10.5,2.9,16c-0.1,8.8-2.2,17.5-1.9,26.3c0,0.4,0,0.8,0.2,1.1c0.2,0.4,0.6,0.5,1,0.8
	c1.1,0.8,1.5,2.3,1.7,3.6c1.2,6.5,1.9,13.1,2.1,19.6c0.1,3.6,0.1,7.2-0.4,10.7c-0.7,4.2-2.1,8.4-2,12.7"/>
<path fill="none" stroke="#E1E1E1" stroke-miterlimit="10" d="M369.1,96.5c-5.7,3.9-11.4,7.8-17.1,11.7c-0.9,0.6-1.8,1.3-2.4,2.2
	c-1.7,2.6,0,6.2,2.7,7.7c2.7,1.5,7.4-1.3,9,1.3c7.2,11.9-14,24.5-24.6,33.6c-2,1.7-4.2,3.5-4.5,6.1c-0.3,2.7,1.7,5.4,1.3,8.1
	c-0.2,1.6-1.2,2.9-2.1,4.1c-4.2,5.2-9.3,9.6-15.2,12.8c-4.7,2.6-10.1,4.7-12.7,9.4c-1.2,2.1-1.7,4.5-2.9,6.5c-2,3.5-5.7,5.5-8.8,8
	c-3.1,2.5-3.1,6.7-5,10.2c-4.3,8.3-17.4,7-26.1,10.5c-1.4,0.6-2.9,1.2-3.9,2.3c-3.6,3.9,0.7,10.4,5.6,12.6c1.2,0.5,2.4,1,3.2,2
	c0.7,1,0.9,2.3,0.9,3.5c0.5,6.2-3.6,14.8,1.4,18.5c1.1,0.8,2.9-1.8,4-0.9c3,2.5-0.3,8.7,2.6,11.3c0.6,0.5,2.1-0.3,2.3,0.5
	c0.6,1.7-2.3,3.1-2.2,4.9c0.2,2.6,3.2,5,2.2,7.4c-0.2,0.5-0.6,0.9-0.8,1.5c-0.3,1.1,0.5,2.2,1.2,3.1c1.8,2.5,3,5.6,3.2,8.7
	c0.1,1.1,0.1,2.2,0.9,3c0.4,0.4,0.9,0.6,1.4,0.8c2.9,1.4,4.9,4.1,6.6,6.8c3.4,5.6,10.6,12.9,7,18.4c-1.4,2.2-7.2,2.5-5.6,4.6
	c1.6,2,6.1-0.2,7.4,2c1.7,2.7-3.1,5.9-6.1,6.8c-0.5,0.1-1,0.3-1.4,0.6c-0.7,0.6-1.2,1.8-0.7,2.5c0.5,0.7,1.8,0.3,2.3,0.9
	c1,1.1-1,2.7-2.1,3.8c-1.6,1.5-1.6,4.3-3.4,5.5c-0.3,0.2-0.5,0.4-0.6,0.8c-0.1,0.4,0,0.7,0,1.1c-0.2,1.2-1.5,1.7-2.5,2.4
	c-1,0.7-1.7,1.6-2,2.7c-0.2,0.6-0.3,1.2-0.1,1.8c0.3,1.2,1.3,2,2.1,2.9c1.7,1.7,2.8,3.9,3.3,6.3"/>
<path fill="none" stroke="#E1E1E1" stroke-miterlimit="10" d="M369.2,126.5c-0.7,0.1-1.4,0.2-2,0.5c-2.6,1.2-4.2,4.3-3.6,7.1
	c0.2,0.9,0.6,1.8,0.6,2.7c0,1.1-0.6,2-1.2,3c-2.4,3.9-8.9,7.5-7.2,11.8c0.4,1,2.3,0.1,3.1,0.9c2.9,3-0.5,8.5-3.5,11.4
	c-1.1,1-2.4,1.9-3.4,3c-1,1.1-1.7,2.5-2.3,3.9c-2.2,4.7-1.9,11.8-6.6,14.1c-1.7,0.8-3.8,0.3-5,1.7c-0.8,1-1.3,2.4-2.6,2.8
	c-0.9,0.3-1.8-0.1-2.7-0.3c-10.6-3.3-23.2,5.3-23.9,16.4c-0.1,1.4-0.1,2.9-0.8,4.1c-0.6,1-1.7,1.7-2.7,2.4c-9,5.8-14.5,16.3-24,21.1
	c-1.5,0.8-4.1-0.9-5.2,0.4c-5.5,6.5,1.5,16.9,2.2,25.4c0.1,1.1,0.2,2.2,0.6,3.3c1.5,3.7,6.6,5.5,7,9.5c0.4,4.1-4.7,7.9-3,11.7
	c0.4,1,1.9,1.7,1.7,2.7c-0.2,1.1-0.3,3-1.3,3.5c-0.2,0.1-0.5,0.1-0.8,0.1c-1.5,0.3-1.9,2.6-0.9,3.8c1,1.2,2.6,1.6,4.1,2
	c2.8,0.6,5.7,1.3,8.5,1.9c1,0.2,2.1,0.5,2.8,1.2c0.5,0.5,0.7,1.1,1.3,1.5c1.1,0.7,2.6-0.1,3.9,0c0.7,0.1,1.4,0.4,2.1,0.7
	c3.4,1.4,7.6,0.5,10.1-2.1c1-1,2.1-1.6,3.4-2.1c0.4-0.1,0.9-0.3,1.3-0.5c2.7-1.9,1.3-8.8,4.9-9.5c4.9-1,9.8-0.1,14.3-2
	c1.2-0.5,2.5-1.1,3.5-1.9c2.4-2,3.2-5.3,5.2-7.8c1.5-1.9,3.7-3.2,5.2-5.2c2.9-3.9,2.2-9.5,4.5-13.8c0.7-1.4,1.7-2.6,2.1-4.1
	c0.6-2.4-0.6-5,0.1-7.4c0.7-2.5,3.2-4.1,4.6-6.3c2-3.2,2-8.1,4.8-10.3"/>
<path fill="none" stroke="#E1E1E1" stroke-miterlimit="10" d="M369.3,166.5c-2.1,0.9-3.9,1.9-4.5,4c-0.8,2.9,1.5,6.2,0.1,8.8
	c-0.6,1-1.6,1.7-2.4,2.6c-1.4,1.6-2,3.8-3.3,5.5c-2.5,3.1-7,3.7-10.2,6c-2.4,1.7-4,4.4-6.4,6c-2.6,1.8-5.8,2.2-8.8,3.2
	c-4.2,1.4-7.9,3.9-10.8,7.2c-1,1.1-1.8,2.3-2.9,3.3c-1.2,1.1-2.7,1.8-4.1,2.6c-7.5,4-15,8.5-20.6,15c-5.6,6.5-8.9,15.4-6.8,23.7
	c0.8,3.1,2.3,5.9,2.7,9.1c0.7,5.6-1.9,12.3,1.8,16.5c1.3,1.4,3.2,2.4,3.7,4.2c0.2,0.9,0.1,1.9,0.7,2.7c0.9,1.1,2.8,0.6,3.7-0.5
	c0.9-1.1,1.4-2.5,2.4-3.5c1.9-2,5.2-2.1,6.8-4.3c0.9-1.2,1-2.7,1.5-4.1c1.2-3.3,4.4-5.7,7.9-5.8c1.6-0.1,3.2,0.3,4.7,0
	c1.8-0.3,3.3-1.5,4.7-2.7c2-1.6,4-3.2,6-4.9c1.3-1,2.6-2.1,3.4-3.6c0.8-1.4,1.1-3,1.5-4.6c1.6-5.7,4.9-10.8,8-15.9
	c2.7-4.6,5.2-9.4,6.7-14.5c0.7-2.5,1.3-5,2.7-7.2c2.5-3.9,7.2-5.6,11.8-6.7"/>
<path fill="none" stroke="#E1E1E1" stroke-miterlimit="10" d="M303.5,134.7c0.8,0.5,1.8,0.1,2.5-0.5c1.2-1,2.2-3.1,1.2-4.3
	c-0.8-0.9-2.5-0.4-3.4,0.3c-0.9,0.8-1.4,2.1-1,3.3C302.8,134,303.1,134.4,303.5,134.7z"/>
<path fill="none" stroke="#E1E1E1" stroke-miterlimit="10" d="M357.6,179.3c1.5,0.8,3.6,0.1,4.3-1.5c0.3-0.7,0.9-1.6,0.3-2.1
	c-0.9-0.8-2.5-0.2-3.7,0c-1.2,0.2-2.4,1.3-2,2.5C356.7,178.7,357.1,179,357.6,179.3z"/>
<path fill="none" stroke="#E1E1E1" stroke-miterlimit="10" d="M106.5-4.6c0.6,0.2,1.3,0.3,1.9,0.5c6.7,2,12.2,7.6,14,14.4
	c0.2,0.9,0.4,1.9,1,2.7c1,1.2,2.7,1.5,4.3,1.6c2.9,0.3,5.7,0.6,8.6,0.9c2.3,0.2,4.7,0.4,6.7-0.5c2.6-1.2,4.1-4.1,5.5-6.6
	c2.6-4.7,5.7-9,9.3-13"/>
<path fill="none" stroke="#E1E1E1" stroke-miterlimit="10" d="M56.2-4.7c-5,1.9-12,2.7-13.8,7.8c-0.5,1.5-1.6,2.7-3.1,3.2
	c-1.5,0.5-3.2,0.6-4.5,1.4c-1.4,0.7-2.3,2-3.4,3.1c-1.1,1.1-3.2,0.5-4.1,1.8c-1.1,1.5-0.4,3.7-1.9,4.9s-3.4,1.8-4.7,3.1
	c-0.5,0.5-0.8,1-1.2,1.6c-1.1,1.6-2.2,3.2-3.2,4.8c-0.3,0.4-0.6,0.9-1,1.2c-0.6,0.5-1.5,0.6-2.2,0.8c-2.1,0.6-3.8,2.4-5.7,3.5
	c-2,1.2-4.3,1.7-6.5,2.2c-1.5,0.3-3.1,0.7-4.6,0.7c-4,0-7.9-2.3-9.8-5.7"/>
<path fill="none" stroke="#E1E1E1" stroke-miterlimit="10" d="M122.1-5.4c0.8,1.5,1.6,3.1,2.4,4.6c1.3,2.4,2.7,5,5.3,5.9
	c4,1.4,8.1-2.1,9.9-5.8c0.7-1.4,1.2-2.9,1.7-4.3"/>
<path fill="none" stroke="#E1E1E1" stroke-miterlimit="10" d="M295.6,378.1c-0.2-2.1,1.9-3.6,4-4s4.1,0,6.2-0.4
	c3.6-0.7,6.4-3.6,9.9-4.8c1.7-0.6,3.6-0.8,5.1-1.9c1.4-1,2.2-2.7,3.7-3.6c1.3-0.8,3-1,3.7-2.3c0.8-1.4,0.1-3.1,0.2-4.7
	c0.1-1.5,1-2.7,1.5-4.1c0.5-1.4,0.4-3.2-0.9-3.9c-0.6-0.4-1.4-0.3-2.1-0.2c-2.2,0.6-4.3,2.6-6.3,1.6c-0.6-0.3-1-0.9-1.6-1.1
	c-0.6-0.3-1.4-0.3-2-0.2c-2.1,0.1-4.5,1.6-6.2,0.4c-2.6-1.9-4-7.6-1.4-9.6c2.8-2.2,7.4-0.5,9.6-3.4c1.3-1.7,2.7-4.2,4.7-3.6
	c0.6,0.2,1.1,0.6,1.6,1c3.2,2.4,7.4,3.2,11.2,2.2c2-0.5,3.8-1.5,5.8-2.1c2.7-0.7,5.8-0.6,8.2-2.1c1.8-1.1,3.7-3.1,5.6-2.2
	c0.5,0.2,0.9,0.7,1.2,1.1c3.1,3.4,6.2,6.8,8.2,10.9c1.4,2.9,2.3,6.5,1,9.5c-0.9,2-2.5,3.6-3.8,5.5c-1.6,2.4-2.4,5.7-1,8.2
	s5.5,3.4,7.2,1"/>
<path fill="none" stroke="#E1E1E1" stroke-miterlimit="10" d="M215,293.6c-0.8-0.8-1.8-1.7-3-1.6c-0.8,0.1-1.5,0.7-1.8,1.4
	s-0.5,1.9,0.1,2.3c1.1,0.8,2.7,0.1,4-0.3c0.5-0.1,1.1-0.4,1.1-1C215.6,294.1,215.3,293.8,215,293.6z"/>
<path fill="none" stroke="#E1E1E1" stroke-miterlimit="10" d="M213.1,376.1c0.5-4.6-1.5-9.3-0.9-13.9c0.5-3.8,2.7-7.3,3.3-11.1
	c0.4-2.5,0.1-5,0.3-7.4c0.4-3.4,1.9-6.5,2.7-9.8c0.8-3.3,0.7-7.1-1.7-9.6c-0.6-0.6-1.4-1.2-1.5-2c-0.1-0.5,0.1-1,0.1-1.5
	c-0.1-1.8-2.4-2.4-4.1-2.9c-2.5-0.9-4.4-2.7-6.3-4.5c-1.7-1.6-3.4-3.3-4.1-5.5c-0.1-0.4-0.2-0.8-0.5-1.1c-0.7-0.6-1.9,0.2-2.1,1.1
	s0,1.9-0.2,2.8c-0.2,0.9-1.4,0.6-2.1,1.3c-1.2,1.3,2,3.7,0.5,4.7c-1.2,0.7-2.6-0.2-3.9-0.5c-1.8-0.4-3.6,0.3-5.4,0.8
	c-3.6,1.1-7.5,1.4-11.2,0.9c-0.8-0.1-1.6-0.2-2.3,0.1c-0.8,0.5-1.1,1.5-1.6,2.4c-0.5,0.8-1.9,1.6-2.4,0.8c-0.8-1.6-1.9-3.1-3.5-3.8
	c-1.7-0.7-3.5-0.9-5.3-1c-0.5,0-1-0.1-1.5,0.1c-0.7,0.3-1.1,1.1-1.5,1.8c-0.8,1.6-2.4,2.9-2.3,4.7c0.1,2,1.8,3.6,2.1,5.6
	c0.4,2.6-0.2,5.8-2.7,6.5c-1.7,0.5-3.7-0.4-5.1,0.7c-1,0.8-1.2,2.3-2,3.3c-0.5,0.6-1.2,0.9-1.9,1.3c-3.3,2.2-3.7,7.6-7.3,9.3
	c-0.6,0.3-1.2,0.4-1.6,0.9c-1.2,1.4,0.6,3.4,0.4,5.1c-0.1,1.3-1.2,2.2-2.3,3c-2.1,1.6-6.2,2.2-6.3,4.8c-0.1,3.8,6.5,4.1,10.2,4.5
	c0.9,0.1,1.8,0.2,2.5,0.6c0.9,0.6,1.5,1.6,1.9,2.6c1.1,2.5,2.2,4.9,3.4,7.4"/>
<path fill="none" stroke="#E1E1E1" stroke-miterlimit="10" d="M178.5,349.2c-0.4,0.7-0.7,1.4-0.8,2.2s0.3,1.6,1,2
	c1.1,0.6,2.4-0.1,3.6-0.6c0.8-0.3,1.8-0.7,1.9-1.6c0.1-0.5-0.2-1.1-0.6-1.5c-0.8-0.8-1.8-1.4-2.9-1.6c-0.5-0.1-1-0.1-1.5,0.2
	C178.9,348.5,178.6,348.9,178.5,349.2z"/>
<path fill="none" stroke="#E1E1E1" stroke-miterlimit="10" d="M173.8,335.6c0.7,0.2,1.4,0.4,2.1,0.4c1.5,0,4.3-1.4,3.4-2.6
	c-0.2-0.2-0.6,0-0.8-0.1c-0.4-0.1-0.7-0.4-1-0.5c-0.2-0.1-0.4-0.2-0.6-0.2c-1.6-0.6-3.3-1.1-5.1-1.4c-0.4-0.1-0.8-0.1-1.2-0.3
	c-0.2-0.1-0.4-0.2-0.5-0.3c-0.9-0.6-2-0.7-3.1-0.8c-0.4,0-0.8-0.1-1.2,0c-0.7,0.2-1.1,0.8-1.5,1.4c-0.3,0.5-0.7,1.1-0.4,1.6
	c0.2,0.4,0.6,0.6,1,0.7c0.6,0.2,1.3-0.2,1.9,0.1c0.4,0.2,0.4,0.7,0.7,1.1c0.3,0.4,0.5,0.8,1,1c0.4,0.1,0.8,0.1,1.2,0
	C171,335.2,172.4,335.3,173.8,335.6z"/>
<path fill="none" stroke="#E1E1E1" stroke-miterlimit="10" d="M172.3,325.2c0.3,0.6-0.1,1.3-0.3,1.9c-0.2,0.6-0.4,1.1-0.4,1.7
	c0,0.1,0,0.2,0,0.2c0,0.1,0.2,0.2,0.3,0.2c0.9,0.4,1.8,0.8,2.8,0.6c0.6-0.2,1.4-0.9,1.9-0.4c0.4,0.3,1,0.8,1.3,0.4
	c0.6-1.1-0.6-2.4-1.5-3.2c-0.1-0.1-0.3-0.3-0.3-0.5c0-0.1,0.1-0.2,0.2-0.3c0.9-1.2,0.4-3.1-1-3.7s-3.1,0.3-3.4,1.8
	c0,0.2,0,0.4,0,0.5C171.9,324.7,172.2,324.9,172.3,325.2z"/>
<path fill="none" stroke="#E1E1E1" stroke-miterlimit="10" d="M207.2,325.3c-1.1-0.2-2.3-0.2-3,0.6c-0.3,0.4-0.4,1-0.3,1.5
	c0,0.2,0.1,0.4,0.1,0.5c0.4,1,1.9,1.6,2.9,1.1c0.7-0.3,1.1-1,1.4-1.7s0.1-1.6-0.6-1.9C207.6,325.4,207.4,325.3,207.2,325.3z"/>
<path fill="none" stroke="#E1E1E1" stroke-miterlimit="10" d="M209.6,319.6c-0.5,0.1-0.8,0.5-0.9,1c-0.1,0.5,0,1,0.2,1.4
	c0.4,0.8,0.9,1.8,1.8,1.8c0.6,0,0.8-0.9,0.8-1.5c0.1-1-0.3-2.1-1.2-2.5C210.1,319.6,209.9,319.5,209.6,319.6z"/>
<path fill="none" stroke="#E1E1E1" stroke-miterlimit="10" d="M165.3,327.9c0.3-0.1,0.2-0.7,0-0.9c-0.6-0.7-1.6-1-2.5-1
	c-0.9,0-2.1,1.8-1.2,1.9c0.2,0,0.3,0.1,0.4,0.2c0.6,0.9,1.9,1,2.7,0.3c0.1-0.1,0.1-0.1,0.2-0.2C164.9,328,165.1,327.9,165.3,327.9z"
	/>
<path fill="none" stroke="#E1E1E1" stroke-miterlimit="10" d="M33.8,272.6c0.7-0.1,1.5-0.1,2.1-0.5c0.7-0.4,1-1.3,1.6-2
	c1.1-1.2,2.9-1.3,4.4-1.2c1.6,0.1,3.3,0.4,4.7-0.2c0.6-0.3,1.2-0.7,1.9-0.7c0.6,0,1.2,0.4,1.7,0.8c1.2,1,2.4,2,3.6,2.9
	c0.2,0.2,0.4,0.4,0.5,0.6c0.2,0.6-0.4,1.3-1,1.5c-1.1,0.4-2.3,0.4-3.3,0.7c-3.2,1.1-4.4,5.5-7.6,6.3c-0.4,0.1-0.9,0.1-1.3,0.4
	c-1.2,0.8-0.8,2.8-2,3.8c-0.3,0.3-0.7,0.4-1.1,0.6c-2.4,0.9-3,3.8-4.9,5.5c-1.4,1.2-4.5,2.3-5.5,0.8c-1.4-2,1.3-4.7,1.2-7.1
	c-0.1-2.4-0.3-4.9,0.3-7.2C29.7,275.3,31.4,273,33.8,272.6z"/>
<path fill="none" stroke="#E1E1E1" stroke-miterlimit="10" d="M66,281.1c-0.3,0.2-0.5,0.5-0.6,0.9c-0.3,0.9,0.1,1.9,0.5,2.8
	c0.4,0.9,1,2,2,2.3c0.9,0.3,1.8-0.2,2.3-1c0.5-0.8,0.5-1.7,0.3-2.6c-0.4-1.4-1.8-2.6-3.3-2.6C66.7,280.8,66.3,280.9,66,281.1z"/>
<path fill="none" stroke="#E1E1E1" stroke-miterlimit="10" d="M-13.3,348.8c2-2.4,4.8-7.1,7.5-5.5c1.1,0.6-0.5,3,0.5,3.7
	c1.9,1.2,4-2.1,6.1-3c2.8-1.3,5.8-1.6,8.8-2.4c4.9-1.3,9.4-3.6,13.9-5.9c1.4-0.7,2.9-1.5,3.9-2.8c1.2-1.5,1.6-3.5,2.3-5.3
	c1.2-2.9,3.3-5.4,6-7c1.2-0.7,2.5-1.2,3.6-2.1c1.9-1.4,3.2-3.7,5.3-4.7c3-1.4,6.6-2.1,9.9-1.4c1.4,0.3,1.9,2.2,2.9,3.3
	c0.3,0.3,0.6,0.7,0.6,1.2c0,0.4-0.3,0.8-0.6,1.1c-1.2,1.2-2.6,2.4-2.7,4.1c-0.3,3,5.1,5.2,3.9,7.9c-1.8,4.2-9.2,6.4-8.1,10.9
	c0.2,1,2,0.5,2.9,1.1c1,0.7-1.2,2-2.2,2.6c-2.1,1.2-5,3.6-3.9,5.7c0.5,1,2.5-0.1,3.2,0.8c1.7,2.2-1.5,5.5-2.2,8.2
	c-0.1,0.3-0.1,0.5-0.2,0.8c-0.6,2.2-1.2,4.3-1.8,6.5c-0.1,0.3-0.2,0.6-0.3,0.9c-0.2,0.4-0.5,0.7-0.9,1c-3.3,3-6.6,6-9.8,9"/>
<path fill="none" stroke="#E1E1E1" stroke-miterlimit="10" d="M-13.9,370.6c2.1,0.3,4.2-0.9,5.7-2.4s2.7-3.4,4.1-5
	c0.5-0.6,1.1-1.2,1.8-1.5c1.8-0.8,4,0.5,5.9-0.3c0.7-0.3,1.3-0.9,1.9-1.4c3.5-3.2,8.4-8.5,12.4-6.1c1.2,0.7-0.4,2.9,0,4.2
	c0.8,2.3,4.4,2.2,6.5,3.6c1.9,1.3,5,2.9,4.4,5.1c-1.3,5.2-8,7.2-10.3,12"/>
<path fill="none" stroke="#E1E1E1" stroke-miterlimit="10" d="M-14,171.7c2.5-1.4,4.2-3.7,6.2-5.7c2-2,4.4-3.9,7.2-4.1
	c0.7,0,1.5,0,2.2-0.2c1.6-0.6,2.1-2.5,3.2-3.9c1.5-1.9,4.2-2.5,5.9-4.2c2-2.1,2.4-5.5,4.7-7.4c1.5-1.2,3.4-1.4,5.1-2.1
	c3.8-1.6,6.1-5.3,8-8.9c1.7-3.4,3.2-7.3,1.8-10.8c-0.2-0.6-0.6-1.2-0.6-1.9c0-0.7,0.4-1.3,0.7-2c2.8-5.7,1.6-12.5-0.1-18.6
	c-0.2-0.8-0.4-1.5-0.3-2.3c0.1-0.6,0.3-1.1,0.6-1.7c1.8-4.4,1.4-9.3,1-14c-0.2-2.6-0.7-5.5-2.8-7c-1.1-0.8-2.6-1-3.9-0.5
	c-1.2,0.4-2.2,1.4-3.3,2c-2.2,1.2-4.8,1.1-7.2,1c-3.4-0.2-6.8-0.3-10.2-0.5c-2.9-0.1-5.8-0.3-8.5-1.3c-0.9-0.3-1.7-0.8-2.7-1
	c-0.8-0.2-1.7-0.1-2.5-0.1c-3.3,0.1-6.5,0.2-9.8,0.3"/>
<path fill="none" stroke="#E1E1E1" stroke-miterlimit="10" d="M-12.4,88.6c3.5-2.3,8-4.1,12-2.5c0.9,0.4,1.7,0.9,2.5,1.2
	c1.8,0.6,3.8,0.4,5.7,0.4c1.9,0,4,0.5,5.1,2c0.9,1.2,1,2.8,1,4.3c0.2,5.3,0.3,10.6-1.2,15.6c-1,3.3-2.6,6.3-3.8,9.4
	c-0.2,0.6-0.5,1.2-0.6,1.9c-0.5,1.8-0.4,3.8-1.2,5.6s-3.1,3-4.6,1.8c-0.5-0.4-0.8-0.9-1.2-1.2c-0.7-0.5-1.7-0.5-2.6-0.8
	c-2.5-0.8-3.7-4.1-2.4-6.3c0.6-0.9,1.6-1.9,1.2-3c-0.1-0.4-0.5-0.7-0.8-1c-2.4-2.3-3.8-5.3-5.8-8s-4.8-5-8.1-5"/>
<path fill="none" stroke="#E1E1E1" stroke-miterlimit="10" d="M-14.2,17.4c1.7,1.3,2.8,3.2,4.2,4.8c3.6,4.1,10,5.6,14.7,2.9
	c1.3-0.7,2.4-1.7,3.5-2.8c2.7-2.7,2.3-7.3,5.1-9.9c1.6-1.5,3.9-1.7,5.3-3.4C19.3,8,20.1,7,21,5.9c0.6-0.8,0.7-1.9,1.2-2.7
	c0.9-1.4,2.8-1.8,3.4-3.3c0.2-0.4,0.3-0.8,0.5-1c0.4-0.5,1.1-0.5,1.8-0.6c1.6-0.2,3.1-1.1,4.2-2.4"/>
<path fill="none" stroke="#E1E1E1" stroke-miterlimit="10" d="M-14.7,10.8c1.3,2.2,4,3.3,6.5,3.2s5-1,7.2-2.2
	c1.4-0.8,2.7-1.7,4.3-1.9C3.8,9.8,4.5,9.7,5,9.5c1.8-0.7,2.4-3,2.2-5s-0.7-4,0-5.8c1.2-3,5.1-4,6.9-6.7"/>
<path fill="#EAEAEA" stroke="#D6D6D6" stroke-miterlimit="10" d="M234.4,106.5c0.5,0.3,1.1,0,1.6-0.3c0.4-0.4,0.8-0.8,1.3-1.1
	c1-0.5,2.4-0.2,3.1-1c0.4-0.4,0.5-0.9,0.6-1.5c0.6-3,1.8-6,4.2-7.9c0.5-0.4,1.1-0.7,1.5-1.2c0.4-0.5,0.7-1.1,1-1.7
	c1-1.5,2.9-2.2,4-3.5c1.1-1.2,1.5-3,1.3-4.6s-0.8-3.2-1.7-4.6c-0.1-0.2-0.2-0.3-0.4-0.4c-0.5-0.3-1.1,0-1.6,0.4c-1,0.8-2,1.5-3,2.3
	c-1.7,1.3-3.6,2.6-5.7,2.8c-1.1,0.1-2.4-0.1-3.3,0.6c-0.7,0.5-1,1.5-1.2,2.3c-0.6,2.6-1.3,5.3-1.9,7.9c-0.2,0.6-0.3,1.2-0.2,1.9
	c0,0.5,0.2,1,0.3,1.4c0.4,2.4-1,4.8-0.5,7.1C233.8,105.8,234,106.2,234.4,106.5z"/>
<path fill="none" stroke="#D6D6D6" stroke-miterlimit="10" d="M211.4,135.2c0.7-0.8,1-2,1.8-2.7c0.8-0.7,1.7-1.2,2.5-1.8
	c3.1-2.6,3.5-7.3,6.2-10.4c0.6-0.7,1.4-1.4,2-2.2c0.5-0.6,0.8-1.3,1.2-2c2.1-3.7,7-7.3,8.9-9.6"/>
<path fill="none" stroke="#4E9BD7" stroke-miterlimit="10" d="M153.2,228.3c-5.1,8.1-11.5,22.2-19.3,32.1c-1.3,1.6-2.7,3.3-3.5,5.1
	c-0.8,1.7-1.2,3.5-2.4,4.9c-0.8,0.9-1.9,1.6-2.7,2.5c-2.3,2.7-1.6,7-3.7,9.9c-1.7,2.4-4.7,3.2-7.5,4.1c-0.6,0.2-1.3,0.1-1.6,0.6
	c-0.8,1.3,0.3,3.1,1.3,4.1"/>
<path fill="none" stroke="#4E9BD7" stroke-miterlimit="10" d="M109.7,241c1.1,1.2,1.1,3,0.6,4.5s-1.4,2.8-2.1,4.2
	c-3.8,7.3-2.5,16-1.4,24.2c0.1,0.8,0.2,1.6,0,2.3c-0.2,0.8-0.8,1.4-1.3,2c-1,1.3-2.1,2.8-3,4.4c-0.7,1.3-0.3,2.3-0.5,3.8
	c-0.6,3.9-2.4,7.1-1.9,11c0.2,1.5,0.1,4,0.4,5.1"/>
<path fill="none" stroke="#D6D6D6" stroke-miterlimit="10" d="M307.4-4.5c-0.1,0.1-0.1,0.2-0.2,0.4c-1.4,2.8-2.3,6.5-0.2,8.9
	c1.2,1.4,3.1,1.9,4.8,2.8c3.5,1.9,5.9,5.6,9.7,7c5.9,2.2,12.1-2,17-5.9c5.8-4.7,11.7-9.5,17.2-14.6"/>
<path fill="none" stroke="#D6D6D6" stroke-miterlimit="10" d="M260.3-4.8c-0.7,0.5-1.4,1.2-1.7,2c-0.5,1.4,1.7,1.6,2,3.1
	c1.3,4.9-9.3,3.9-14,5.8c-0.9,0.4-1.3,1.1-1.6,2.1c-1.5,5.7-10.7,5.1-16.6,5.3c-7.1,0.3-14.2-1.8-21.2-0.8s-8.8,8.2-13.2,13.7
	c-6.9,8.7-22.2,2.2-32.4,6.7c-5.2,2.3-10.3,5.4-16,5.4c-3.5-0.1-7.4-1.3-10.2,0.8c-2.7,2-3.1,6.1-5.7,8.3c-1.8,1.5-4.2,1.7-6.5,1.6
	c-8-0.3-16.3-3.9-23.8-1.1c-2,0.7-4.1,2-6.2,1.6c-2.6-0.5-4.1-3.1-5-5.6c-1-2.9-1.6-5.9-1.8-8.9c-0.1-1.9-0.1-3.9-1-5.6
	c-2.3-4-8.3-3-12.6-1.5c-0.9,0.3-1.9,0.7-2.4,1.5c-1,1.7,0.6,3.5,1.7,5.1c2.5,3.6,2.6,8.5,0.9,12.6s-4.9,7.3-8.6,9.7
	C58,61.3,49.1,59.3,42,62.8c-0.4,0.2-1.2,0.3-1.6,0s-0.5-0.9-1-1.1c-0.4-0.2-0.5-0.8-1-0.8c-0.2,0-0.1,0.5-0.2,0.7"/>
<path fill="#EAEAEA" stroke="#D6D6D6" stroke-miterlimit="10" d="M159.2,37.2c0.8-1.3,2.5-1.8,4-1.8s3.1,0.4,4.6,0.2
	c0.7-0.1,1.3-0.3,2-0.5c1.7-0.5,3.5-1,5.2-1.6c1.2-0.4,2.6-0.7,3.7,0c1,0.6,1.4,1.9,1.1,3c-0.3,1.1-1.1,2-2.1,2.6
	c-2.9,1.7-6.5,0.8-9.8,0.6c-2.5-0.2-4.9,0-7.4,0.4c-0.4,0.1-0.9,0.1-1.2-0.1c-0.1-0.1-0.2-0.2-0.2-0.3
	C158.7,38.9,158.7,38,159.2,37.2z"/>
<path fill="#EAEAEA" stroke="#D6D6D6" stroke-miterlimit="10" d="M116.6,44.5c2.5,0.4,5.2,0.8,7.6,0c3.4-1.2,5.8-5,5.2-8.6
	c0-0.3-0.1-0.6-0.3-0.8c-0.2-0.2-0.5-0.3-0.8-0.3c-0.8-0.1-1.6-0.3-2.4-0.2c-0.7,0.1-1.4,0.3-2.1,0.4s-1.5-0.2-1.8-0.9
	c-0.1-0.3-0.2-0.6-0.3-0.9c-0.3-0.6-1.1-0.7-1.8-0.8c-2.1-0.2-4.3-0.4-6.2,0.4c-2.8,1.1-4.6,4.4-4,7.4c0.1,0.5,0.3,1,0.7,1.4
	c0.5,0.5,1.2,0.5,1.8,0.9c0.5,0.3,0.9,0.7,1.3,1C114.3,44.1,115.5,44.3,116.6,44.5z"/>
<path fill="#EAEAEA" stroke="#D6D6D6" stroke-miterlimit="10" d="M83.1,9.6c1.9-1.9,3.2-4.5,3.5-7.3c0-0.3,0-0.6-0.1-0.8
	c-0.2-0.3-0.5-0.3-0.9-0.4c-2.5-0.4-5-0.7-7.4-0.3C73.4,1.6,69.6,4.9,66,8.1c-1.5,1.4-3.1,2.8-4.1,4.5c-0.9,1.5-1.4,3.2-1.9,4.9
	c-0.7,2.4-1.3,5.4,0.5,7.1c1.7,1.6,4.9,0.9,5.7-1.3c0.2-0.5,0.3-1.1,0.6-1.6c0.5-0.7,1.6-0.8,2.4-0.5s1.5,0.9,2.3,1.3
	c1.8,1.1,3.9,1.5,5.9,1.2c0.7-0.1,1.4-0.3,1.7-0.9c0.6-0.8,0.2-1.9,0.2-2.9c0.1-2,2.1-3.4,2.4-5.4c0.1-1.2-0.4-2.4,0.1-3.5
	C82.1,10.5,82.6,10.1,83.1,9.6z"/>
<path fill="#EAEAEA" stroke="#D6D6D6" stroke-miterlimit="10" d="M101.3,5.5c-0.8,0.1-1.6,0.3-2.1,0.8c-0.8,0.9-0.5,2.4,0.1,3.5
	c0.3,0.6,0.8,1.3,0.7,2c0,0.7-0.8,0.7-1.4,1c-0.6,0.3-0.8,1.2-0.9,1.8c-0.2,1.2,2.1,1.2,3.1,0.6c1-0.6,1.7-1.7,2.7-2.4
	c1.6-1.1,4.1,0.1,5.5-1.2c1.4-1.3-0.8-3.7-2.3-4.8C105.1,5.7,103.2,5.3,101.3,5.5z"/>
<path fill="#7BBCEB" stroke="#4E9BD7" stroke-miterlimit="10" d="M185.5,188.7c0.6-1.5,3.7-3.4,2.2-4.1c-1.3-0.6-2.2,1.9-3.6,2.1
	c-0.8,0.1-0.5-1.5-0.1-2.1c0.4-0.7,1.1-1.2,1.4-1.9c0.4-0.8,0.4-1.7,0.5-2.6c0.4-2.7,2.8-5,5.6-5.3c0.4,0,0.9-0.1,1.3-0.3
	c0.7-0.5,0.4-1.6,0.2-2.4c-0.4-1.8,0.7-3.5,0.6-5.4c-0.2-2.8-0.9-5.9,1.4-7.6c1.3-0.9,2.8-1.3,4.2-2s2.6-2.2,2.2-3.8
	c-0.1-0.6-0.5-1.1-0.6-1.6c-0.3-1.7,1.5-3.1,3.2-3.6s3.7-0.9,4.5-2.5c0.7-1.1,0.5-2.6,0.6-3.9s1.2-2,2.3-2.8c1.3-1,0.5-3.9-1.1-4.1
	c-0.9-0.1-1.7,0.6-2.3,1.3c-1.8,2.1-3.7,4.2-5.5,6.3c-1.9,2.2-3.9,4.4-5.5,6.8c-1.2,1.8-2.3,3.7-3.6,5.4c-1.9,2.3-4.4,4.1-6.1,6.5
	c-0.9,1.2-1.6,2.6-2.3,4c-2.4,4.4-5.3,8.6-9,12c-1.7,1.6-3.6,3-4.7,5c-0.8,1.5-1.2,3.2-2.1,4.6c-1.1,1.6-2.7,2.6-4.2,3.9
	c-1.4,1.3-2.7,3-2.5,4.9c0.1,0.9,0.5,1.8,0.3,2.6c-0.2,0.6-0.7,1.2-1.1,1.7c-2,2.3-2.9,5.6-3.9,8.5c-0.7,2.2-2.8,4.1-2.6,6.4
	c0.3,3.5-0.6,6.8-2.3,11.1c-0.3,0.8,0.1,2.6,1,2.6c0.3,0,0.5-0.2,0.8-0.4c5.5-4.3,8.7-10.8,13.5-15.9c3.6-3.9,8-6.8,12.4-9.8
	c2.1-1.5,4.3-3,5.6-5.2c0.4-0.8,0.8-1.6,0.7-2.5C186.8,192.7,184.7,190.7,185.5,188.7z"/>
<path fill="#EAEAEA" stroke="#D6D6D6" stroke-miterlimit="10" d="M109.1,241.1c1.4-0.7,0.5-3.2-0.6-4.3c-1-0.9-2.8-1.5-2.7-2.9
	c0-0.3,0.1-0.6,0.3-0.9c2.1-5.4,1.9-11.7-0.7-16.9c-0.2-0.5-0.5-1-1-1.2c-0.4-0.2-0.9-0.2-1.3-0.2c-2-0.3-2.9-3.3-1.4-4.7
	c0.7-0.6,1.7-0.9,2.4-1.5c1-0.9,1.3-2.6,0.5-3.7c-0.7-1.1-2.3-0.9-3.6-1c-0.8-0.1-0.2-1.5,0.5-1.9s1.5-0.5,2.1-1.1
	c0.3-0.3,0.5-0.7,0.7-1.1c1.1-2.9,0.8-6.3-0.7-8.9c-0.5-1-1.3-1.8-2.3-2.3c-0.7-0.3-1.4-0.4-2.1-0.7c-0.8-0.3-1.5-0.7-2.2-1.1
	c-5.5-3.1-12.4-5.8-18.9-7.2c-2.4-0.5-6.7,0.8-9.1,0.8c-0.8,0-1.8-0.3-2.6-0.1c-1,0.3-2.1,1.3-2.9,1.9c-3.6,2.7-4.9,8.3-3.8,14.6
	c0.2,1.1,1.2,2,1.4,3.1c0.3,1.1,0,2.4-1,3c-1.1,0.6-2.4,0-3.6,0.2c-1.5,0.2-2.5,1.6-2.9,3c-0.4,1.4-0.3,3-0.3,4.4
	c0,3.6,1.2,9.4-2.2,10.6c-1.8,0.6-3.9,0.4-4.6,2.2c-0.7,1.8-1.5,4.5,0,5.7c0.9,0.7,2.2-0.8,3.3-1.1c1.1-0.3,2.6-0.2,3,0.9
	c0.3,0.8,0,1.6,0.1,2.5c0.2,1.8,2.2,2.8,4,3c1.8,0.2,3.7-0.1,5.4,0.6c1.1,0.5,2,1.3,3.2,1.5c1.1,0.2,2.2-0.3,3.3-0.6
	c3.7-1.1,7.7-0.6,11.2,0.9s6.6,4,9.1,6.8c1.2,1.4,2.3,2.9,4,3.5c2.8,1.1,5.8-0.5,8.2-2.3C103.5,242.9,106.5,242.4,109.1,241.1z"/>
<path fill="#EAEAEA" stroke="#D6D6D6" stroke-miterlimit="10" d="M34.7,57.3c1.1-0.5,2.2,0.5,3,1.5c0.4,0.5,0.8,1.1,0.8,1.7
	c0,0.5-0.3,1-0.6,1.4c-0.7,1.2-1.5,2.3-2.2,3.5c-0.4,0.6-0.7,1.1-1.2,1.6c-0.8,0.7-2,0.9-3.1,1c-6.8,0.9-13.6,1.3-20.4,1
	c-0.5,0-1.2-0.2-1.1-0.7c0.1-0.3,0.4-0.4,0.7-0.5c1.4-0.5,2.9-1,4.3-1.4c0.7-0.2,1.5-0.5,2.2-0.4c0.7,0.1,1.3,0.3,1.9,0.6
	c2.5,0.8,5.2,0.4,7.8-0.2c1.2-0.3,2.4-0.6,3.4-1.4c0.7-0.7,1.2-1.6,1.6-2.5c0.6-1.2,1.2-2.5,1.8-3.7C33.9,58.1,34.1,57.5,34.7,57.3z
	"/>
<path fill="#EAEAEA" stroke="#D6D6D6" stroke-miterlimit="10" d="M29,53.5c-1.1-0.3-2.4-0.2-3.4,0.3c-0.7,0.3-1.2,0.8-1.7,1.3
	c-0.3,0.3-0.6,0.5-0.8,0.9c-0.3,0.5-0.4,1.2-0.4,1.8c0.1,1.5,0.7,4.3,2.1,3.9c0.5-0.2,0.8-0.8,0.9-1.3c0.3-1.1,0.3-2.2,1.3-2.8
	c1-0.6,2.1-0.8,3-1.4c0.5-0.3,0.9-0.8,0.8-1.3c0-0.1-0.1-0.3-0.2-0.4C30.3,53.8,29.6,53.6,29,53.5z"/>
<path fill="none" stroke="#D6D6D6" stroke-miterlimit="10" d="M-12.8,63.2c0.9,0.9,2.3,0.8,3.5,0.6s2.5-0.5,3.6,0.1
	c1.3,0.6,2,2.1,3.3,2.5c0.7,0.2,1.4,0.1,2.1,0c3.4-0.4,6.8,0.2,9.9,1.5"/>
<path fill="#EAEAEA" stroke="#D6D6D6" stroke-miterlimit="10" d="M212.4,23.5c0.8-0.2-0.1-1.6,0-2.3c0.1-0.8,0.9-1.8,1.5-1.3
	c0.8,0.5,1.2,1.5,1.7,2.3c0.2,0.4,0.4,0.9,0.2,1.3c-0.1,0.2-0.3,0.4-0.5,0.5c-1.7,1.4-3.4,2.9-5.6,3.3c-0.9,0.2-1.9,0.1-2.6-0.4
	c-0.6-0.4-1-1-1.3-1.7c-0.1-0.3-0.2-0.6-0.2-0.9c0-0.8,0.4-1.5,1.1-1.9c0.7-0.4,1.5-0.3,2.1,0.2c0.2,0.1,0.3,0.3,0.5,0.5
	C209.6,23.4,212,23.6,212.4,23.5z"/>
<path fill="#EAEAEA" stroke="#D6D6D6" stroke-miterlimit="10" d="M260.1,39c-0.7-0.2-1.3-0.6-1.9-0.8c-0.7-0.2-1.6-0.4-2,0.2
	c-0.5,0.7,0,1.7,0.6,2.3s2.8,1.7,3.1,1.9c0.8,0.7,2.1,0.6,2.8-0.2s0.4-2.2-0.5-2.7C261.6,39.2,260.8,39.2,260.1,39z"/>
<path fill="#EAEAEA" stroke="#D6D6D6" stroke-miterlimit="10" d="M260,27.4c0.1,0,0.2,0.1,0.3,0c1.1,0,3.1-0.6,2.8-1.7
	c-0.3-1.1-2.3-0.4-3.1,0.4C259.7,26.6,259.6,27.3,260,27.4z"/>
<path fill="#EAEAEA" stroke="#D6D6D6" stroke-miterlimit="10" d="M336.2,36.4c-0.8,0.5-1.1,1.5-1.3,2.4c-0.2,1.5-0.2,3.2,0.9,4.2
	c0.8,0.7,2,0.7,3,0.7c0.5,0,1.1-0.1,1.6-0.3c1.4-0.5,2.4-1.9,2.5-3.4c0-0.5-0.1-1-0.2-1.4c-0.1-0.6-0.3-1.3-0.8-1.7
	c-0.3-0.2-0.6-0.3-0.9-0.4c-1.1-0.3-2.3-0.4-3.4-0.4C337.2,36.1,336.6,36.1,336.2,36.4z"/>
<path fill="#EAEAEA" stroke="#D6D6D6" stroke-miterlimit="10" d="M340.3,51.3c0.9,0,1.1-1.4,0.8-2.2c-0.3-0.6-0.3-1.2-0.6-1.8
	c-0.3-0.8-2.2-0.1-2.6-0.9c-0.1-0.2-0.2-0.4-0.4-0.4c-1.2-0.4-2.6-0.2-3.8,0c-0.7,0.1-1.7,0.4-1.5,1.1c0.2,0.8,1.4,0.8,2,1.4
	c0.6,0.5-0.3,1.5-0.9,1.8c-0.7,0.4-1.4,0.4-2.2,0.7c-1.1,0.3-2,1.1-2.8,1.7c-0.1,0.1-0.3,0.2-0.3,0.4c-0.1,0.5,0.6,0.8,1.1,0.8
	c1.7,0,3.3-0.4,4.8-1.1c0.7-0.3,1.4-0.8,2.1-1S339.5,51.2,340.3,51.3z"/>
<path fill="#EAEAEA" stroke="#D6D6D6" stroke-miterlimit="10" d="M56.1,88.1c-0.3-0.1-0.6,0-0.9-0.1c-0.7-0.1-1.2-0.7-1.8-1.2
	c-1.2-0.8-2.8-0.7-4.2-0.5c-0.5,0.1-1,0.1-1.4,0.5c-0.2,0.2-0.3,0.4-0.4,0.7c-0.4,1-0.8,2.2-0.7,3.3c0.1,0.6,0.3,1.2,0.5,1.8
	c0.7,1.9,1.3,3.7,2,5.6c0.2,0.6,0.4,1.2,0.9,1.7c0.3,0.3,0.6,0.5,0.8,0.9c0.2,0.4,0.1,0.8,0.2,1.3c0.1,1.7,1.7,2.7,3.4,3
	c1,0.2,2.1-0.1,3-0.5c0.8-0.4,1.5-0.8,2.3-1.1c0.2-0.1,0.3-0.2,0.4-0.3c0.1-0.2,0.1-0.4,0.1-0.7c-0.2-1.8-0.5-3.7-0.7-5.5
	c-0.4-2.8-0.8-5.6-2.3-8C56.8,88.6,56.5,88.3,56.1,88.1z"/>
<path fill="#EAEAEA" stroke="#D6D6D6" stroke-miterlimit="10" d="M165.7,319.3c-0.9-0.4-1.5-0.8-2.4-1.2c-0.5-0.3-1.3-0.5-1.8-0.1
	c-0.4,0.3-0.7,0.8-0.9,1.2c-0.4,1.2-1.2,1.3-2.1,2.2c-0.3,0.3-0.6,0.8-0.6,1.2c0,0.3,0.2,0.6,0.4,0.8c0.6,0.5,1.5,0.4,2.2,0.2
	c0.7-0.2,1.5-0.5,2.3-0.3c0.2,0.1,0.5,0.2,0.7,0.3c0.6,0.3,1.1,0.9,1.8,1c0.4,0.1,0.6,0.4,0.8,0.7c0.2,0.4,0.5,0.8,0.8,1.2
	c0.3,0.3,0.7,0.7,1.1,0.7c1,0.2,1.8-0.9,2.2-1.8c0.1-0.2,0.2-0.5,0.2-0.7c-0.1-0.2-0.2-0.4-0.4-0.5c-0.6-0.6-1.3-0.8-1.5-1.6
	c-0.1-0.4-0.6-1.2-0.8-1.6C167.4,320,166.7,319.8,165.7,319.3z"/>
<path fill="#EAEAEA" stroke="#D6D6D6" stroke-miterlimit="10" d="M102.7,307.3c-0.2-0.9,1-1.7,1.1-2.6s-0.4-2-1.3-2.3
	c-1.5-0.5-2.7,1.2-3.4,2.6c-0.5,1-0.9,2-1.4,3c-0.4,0.8-0.7,1.7-0.3,2.4c0.3,0.5,0.9,0.8,1.2,1.4c0.3,0.5,0.1,1.2,0,1.8
	c-0.3,1.4-1.6,2.9-0.9,4.2c0.6,1.2,2.7,0,3.7-0.9c1-0.8,1.3-2.5,2.4-3.2c1.1-0.6,1.8,1.7,1.4,2.8c-0.4,1.2-1.4,2-2.1,3
	c-1.8,2.5-1.8,5.9-3,8.7c-0.9,2.1-2.4,3.8-3.8,5.6c-2.5,3.2-4.8,6.5-6.4,10.2c-0.8,1.9-1.5,3.9-3,5.4c-1.1,1.2-2.7,1.9-3.9,3.1
	c-1.5,1.5-2.4,3.5-3.3,5.4c-0.9,2-1.8,4-2.6,6c-0.7,1.6-2.2,3.5-0.7,4.5c1.5,1,3-0.9,4.3,0.4c0.7,0.6,0.9,1.6,1.6,2.2
	c1.2,0.9,2.9,0.3,4.1-0.6c1.9-1.4,4.6-3,3.6-5.2c-1-2.4-5.2-0.8-2.5-6.7c1.1-2.3,1.9-4.7,3.5-6.8s3.3-4,4.2-6.4
	c0.4-1.1,0.7-2.3,1-3.4c0.7-2.6,1.9-5.1,3.5-7.4c1.2-1.7,2.6-3.3,3.5-5.2c1.5-3.2,1.9-6.5,3.7-9.7c2.4-4.3,5.3-2.1,6.3-4.4
	c0.3-0.8,0.3-1.8,0.5-2.6c0.5-3.4,2.9-6.3,3-9.7c0-1-0.2-2.1,0.4-3c0.4-0.6,1-1,1.5-1.6c1-1.3,0.6-3.3-0.5-4.5s-2.8-3.2-4.2-2.4
	c-1.2,0.6,0.1,2.7,0.3,4.1c0.4,3.5-1.6,7.1-4.8,8.5c-1.3,0.6-2.7,0.9-3.7,1.8c-0.5,0.4-0.8,1-1.3,1.3
	C103.9,307.5,102.8,307.9,102.7,307.3z"/>
<g>
	<g>
		<path fill="none" stroke="#585858" stroke-miterlimit="10" d="M241.4-4.9c-0.6,0.2-1.3,0.3-1.9,0.5"/>
		<path fill="none" stroke="#585858" stroke-miterlimit="10" stroke-dasharray="3.9915,0.9979" d="M238.5-4.1c-5,1.8-9.7,4.8-14.6,7
			c-7.5,3.3-15.9,4.7-22.8,9.1c-2.8,1.8-5.5,5.6-8.6,4.4c-1.9-0.8-3.7-1.7-5.7-1.3c-2,0.4-4.1,1.1-6.1,0.4c-1-0.3-1.9-1-2.8-1.5
			c-4-2.1-8.9-0.8-13.3,0.5c-1.5,0.5-3,0.9-4.3,1.8c-1.3,0.9-2.3,2.1-3.3,3.3c-3.5,4.3-10.3,5.1-12.8,10c-0.8,1.5,2.5,2.9,2.1,4.5
			c-0.8,3.2-6.5,0.6-9.6,1.8c-4.7,1.8-5.8,8.6-10.5,10.3c-3.6,1.3-6.9-0.1-10.7-0.1c-0.9,0-2.3-0.1-3.1-0.3c-1-0.2-1.7-1-2.4-1.7
			c-5.2-5.5-10-12-10.4-19.5c-0.1-1.7,0.1-3.5-0.6-5.1c-0.9-2.2-3.2-3.6-4-5.8c-1.2-3.2,2.5-8-0.2-10C91.7,1.3,88.3-1,84.3-2
			c-1.6-0.4-3.3-0.2-5,0.2c-4.5,1-8.6,3.4-12.6,5.8c-1.5,0.9-3.1,1.8-4.6,2.7C61.1,7.3,60,8,59.2,9c-1,1.4-1.3,3.2-2.2,4.7
			c-1.2,2-3.4,3.3-3.9,5.6c-0.4,2,2.5,2.7,2.8,4.7c0.2,1.8-3.4-0.9-5.1-0.3c-1,0.4-1,1.7-1.1,2.8c-0.1,0.6,0,1.2-0.1,1.8
			c-0.1,0.6-0.5,1.1-0.8,1.6c-1.9,2.7-4.8,4.7-7.9,5.6c-1.7,0.5-3.6,0.8-5,1.8c-0.6,0.4-1.1,0.9-1.8,1.1c-1.1,0.4-2.3-0.2-3.4-0.6
			c-1.6-0.5-3.3-0.6-5-0.3c-0.9,0.2-1.7,0.5-2.5,0.6c-1.1,0.1-2.3-0.1-3.4-0.2C14.4,37.2,8.9,38.1,4,40.3c-1.2,0.5-2.3,1.1-3.6,1.3
			c-0.7,0.1-1.4,0-2,0.2c-2.3,0.6-3,3.7-5,4.9c-0.5,0.3-1.1,0.5-1.7,0.6c-2.3,0.6-4.7,1.3-7,1.9"/>
		<path fill="none" stroke="#585858" stroke-miterlimit="10" d="M-15.9,49.3c-0.6,0.2-1.3,0.3-1.9,0.5"/>
	</g>
</g>
<g>
	<g>
		<path fill="none" stroke="#585858" stroke-miterlimit="10" d="M277.7-5.1c0,0.6-0.1,1.3-0.2,2"/>
		<path fill="none" stroke="#585858" stroke-miterlimit="10" stroke-dasharray="3.9478,0.9869" d="M277.3-2.2
			c-0.5,2.9-1.2,5.7,1.1,6.3c1.5,0.4,3.1,0.1,4.1,1.2c0.3,0.4,0.6,0.8,1.1,0.9c0.4,0.1,0.8-0.1,1.1-0.2c2.1-0.9,4.4-3.8,6.4-2.6
			c2.2,1.3-1.6,6.8,0.8,7.7c1.5,0.5,3.3,0,3.5,1.6c0.2,1.6-3.1,2.3-2.5,3.7c0.8,2.1,1.6,2.3,2.3,4.4c1,3,6.1,1.6,9.2,2.3
			c0.8,0.2,1.7,0.5,1.9,1.3c0.1,0.4-0.1,0.9,0.1,1.3c0.3,1.4,2.9,1.2,3.4,2.6c0.3,0.7-0.1,1.5-0.6,2.2c-2.4,3.7-9.2,7.3-7.1,11.2
			c1.3,2.4,5.4-0.9,7.5-2.5c2.3-1.7,4.3-3.7,6-6c2-2.6,4.8-4.5,7.7-2.6c1.6,1.1,3.5,2.1,5.5,1.9c1.1-0.1,2.1-0.8,3-1.4
			c2.9-2,5.8-4.1,8.7-6.1c1-0.7,2-1.4,3.3-1.5c1.2-0.1,2.5,0.4,3.6,0.9c3.5,1.6,7.2,3.4,9,6.8c0.7,1.3,1.1,2.8,2.2,3.7
			c1.1,1,2.1-0.6,3.6-0.5c1,0,0.7,2.8,1.6,2.4c1.7-0.7,0-5.3,1.9-5.2c1.9,0.1,2.8,3,3.7,5.2"/>
		<path fill="none" stroke="#585858" stroke-miterlimit="10" d="M369.5,37.5c0.3,0.7,0.7,1.3,1.1,1.6"/>
	</g>
</g>
<text transform="matrix(1 0 0 1 256.8023 84.6128)"><tspan x="0" y="0" fill="#585858" font-family="'Verdana-Italic'" font-size="8">Upper</tspan><tspan x="0" y="9.6" fill="#585858" font-family="'Verdana-Italic'" font-size="8">Branigan Lake</tspan></text>
<text transform="matrix(1 0 0 1 199.3076 168.8652)"><tspan x="0" y="0" fill="#7BBCEB" font-family="'Verdana-Italic'" font-size="8">Middle</tspan><tspan x="0" y="9.6" fill="#7BBCEB" font-family="'Verdana-Italic'" font-size="8">Branigan Lake</tspan></text>
<text transform="matrix(1 0 0 1 310.2635 234.8447)"><tspan x="0" y="0" fill="#585858" font-family="'Verdana-Italic'" font-size="8">Tiltill</tspan><tspan x="0" y="9.6" fill="#585858" font-family="'Verdana-Italic'" font-size="8">Mountain</tspan></text>
<text transform="matrix(1 0 0 1 124.8682 88.6111)"><tspan x="0" y="0" fill="#585858" font-family="'Verdana-Italic'" font-size="8">Andrews</tspan><tspan x="15.3" y="9.6" fill="#585858" font-family="'Verdana-Italic'" font-size="8">Peak</tspan></text>
<text transform="matrix(1 0 0 1 278.1592 240.0082)" fill="#585858" font-family="'Verdana-Italic'" font-size="8">8988 ×</text>
<text transform="matrix(1 0 0 1 162.2921 93.6562)" fill="#585858" font-family="'Verdana-Italic'" font-size="8">× 8551</text>
<text transform="matrix(1 0 0 1 84.1493 164.3892)"><tspan x="0" y="0" fill="#585858" font-family="'Verdana-Italic'" font-size="8">Branigan</tspan><tspan x="0" y="9.6" fill="#585858" font-family="'Verdana-Italic'" font-size="8">Lake</tspan></text>
<path fill="none" d="M232.9,203.8c4.3-5.2,10.4-8.7,17-10.2c3.7-0.8,7.5-1.1,11.1-2.4c2.1-0.8,4.1-1.9,6.3-2.1"/>
<text transform="matrix(0.8537 -0.5208 0.5208 0.8537 239.5762 200.8584)"><tspan x="0" y="0" fill="#7D7D7D" font-family="'Verdana-Italic'" font-size="7">7</tspan><tspan x="4.1" y="0" fill="#7D7D7D" font-family="'Verdana-Italic'" font-size="7" rotate="8">8</tspan><tspan x="8.2" y="0.5" fill="#7D7D7D" font-family="'Verdana-Italic'" font-size="7" rotate="15.8">0</tspan><tspan x="12.2" y="1.7" fill="#7D7D7D" font-family="'Verdana-Italic'" font-size="7" rotate="21.5">0</tspan></text>
<path fill="none" d="M197.6,109.9c2.1-2.6,2.9-6,5-8.6c1.3-1.6,3.1-2.8,4.7-4.2c2.7-2.3,4.9-5,6.7-8c4.1-7.2,5.1-15.7,7.4-23.7
	c1.5-5.1,3.5-10,6.1-14.7"/>
<text transform="matrix(0.7227 -0.6912 0.6912 0.7227 208.7896 99.1923)"><tspan x="0" y="0" fill="#7D7D7D" font-family="'Verdana-Italic'" font-size="7">8</tspan><tspan x="4.8" y="0" fill="#7D7D7D" font-family="'Verdana-Italic'" font-size="7" rotate="-8.5">0</tspan><tspan x="9.6" y="-0.8" fill="#7D7D7D" font-family="'Verdana-Italic'" font-size="7" rotate="-17">0</tspan><tspan x="14.2" y="-2.2" fill="#7D7D7D" font-family="'Verdana-Italic'" font-size="7" rotate="-24.3">0</tspan></text>
<path fill="none" d="M332.2,159.1c0.3-2.6,2.5-4.4,4.5-6.1c10.6-9.1,31.8-21.7,24.6-33.6c-1.6-2.6-6.3,0.2-9-1.3"/>
<text transform="matrix(0.7192 -0.6948 0.6948 0.7192 335.0001 158.0341)"><tspan x="0" y="0" fill="#7D7D7D" font-family="'Verdana-Italic'" font-size="7">8</tspan><tspan x="4.2" y="0" fill="#7D7D7D" font-family="'Verdana-Italic'" font-size="7" rotate="4.6">4</tspan><tspan x="8.6" y="0.4" fill="#7D7D7D" font-family="'Verdana-Italic'" font-size="7" rotate="6">0</tspan><tspan x="13" y="0.9" fill="#7D7D7D" font-family="'Verdana-Italic'" font-size="7" rotate="6">0</tspan></text>
<text transform="matrix(1 0 0 1 33.0808 282.1536)" fill="#585858" font-family="'Verdana-Italic'" font-size="8">× 7842</text>
<path fill="none" d="M69.2,129c-3.7-10.7-2.1-23.1,4.2-32.5"/>
<text transform="matrix(7.046168e-02 -0.9975 0.9975 7.046168e-02 69.7467 116.8925)"><tspan x="0" y="0" fill="#7D7D7D" font-family="'Verdana-Italic'" font-size="7">7</tspan><tspan x="4.2" y="0" fill="#7D7D7D" font-family="'Verdana-Italic'" font-size="7" rotate="6.6">8</tspan><tspan x="8.3" y="0.4" fill="#7D7D7D" font-family="'Verdana-Italic'" font-size="7" rotate="13.3">0</tspan><tspan x="12.3" y="1.4" fill="#7D7D7D" font-family="'Verdana-Italic'" font-size="7" rotate="20.1">0</tspan></text>
<path fill="none" d="M150.1,245.7c-3.1,7.9-5.4,17.8-0.1,24.5c4.3,5.3,9.5,9.8,14.3,14.7c0.7,0.7,1.4,1.5,2.4,1.9"/>
<text transform="matrix(0.657 0.7539 -0.7539 0.657 148.1002 271.9755)"><tspan x="0" y="0" fill="#7D7D7D" font-family="'Verdana-Italic'" font-size="7">7</tspan><tspan x="4.6" y="0" fill="#7D7D7D" font-family="'Verdana-Italic'" font-size="7" rotate="-3.2">6</tspan><tspan x="9.1" y="-0.3" fill="#7D7D7D" font-family="'Verdana-Italic'" font-size="7" rotate="-4.8">0</tspan><tspan x="13.5" y="-0.7" fill="#7D7D7D" font-family="'Verdana-Italic'" font-size="7" rotate="-4.9">0</tspan></text>
<path fill="none" d="M267.4,289.8c2.3,4.9,3,10.5,2.9,16c-0.1,8.8-2.2,17.5-1.9,26.3"/>
<text transform="matrix(-4.900856e-02 0.9988 -0.9988 -4.900856e-02 267.7335 305.6484)"><tspan x="0" y="0" fill="#7D7D7D" font-family="'Verdana-Italic'" font-size="7">8</tspan><tspan x="4.4" y="0" fill="#7D7D7D" font-family="'Verdana-Italic'" font-size="7" rotate="2.6">2</tspan><tspan x="8.7" y="0.2" fill="#7D7D7D" font-family="'Verdana-Italic'" font-size="7" rotate="3.7">0</tspan><tspan x="13.2" y="0.5" fill="#7D7D7D" font-family="'Verdana-Italic'" font-size="7" rotate="3.2">0</tspan></text>
<g>
	<g>
		<polyline fill="none" stroke="#7D7D7D" stroke-miterlimit="10" points="85.2,341.6 85.2,348.7 275.4,348.7 275.4,341.7 		"/>
		<line fill="none" stroke="#7D7D7D" stroke-miterlimit="10" x1="180.5" y1="341.4" x2="180.5" y2="348.7"/>
		<line fill="none" stroke="#7D7D7D" stroke-miterlimit="10" x1="161.2" y1="349.2" x2="161.2" y2="343.7"/>
		<line fill="none" stroke="#7D7D7D" stroke-miterlimit="10" x1="142.4" y1="349.2" x2="142.4" y2="343.7"/>
		<line fill="none" stroke="#7D7D7D" stroke-miterlimit="10" x1="123.3" y1="349.2" x2="123.3" y2="343.5"/>
		<line fill="none" stroke="#7D7D7D" stroke-miterlimit="10" x1="104.6" y1="349.2" x2="104.6" y2="343.7"/>
	</g>
	<text transform="matrix(1 0 0 1 83.7832 339.1468)" fill="#7D7D7D" font-family="'Verdana'" font-size="8">0</text>
	<text transform="matrix(1 0 0 1 174.2943 339.1468)" fill="#7D7D7D" font-family="'Verdana'" font-size="8">0.5</text>
	<text transform="matrix(1 0 0 1 258.3412 339.1468)" fill="#7D7D7D" font-family="'Verdana'" font-size="8">1 mi</text>
</g>
</svg>
