<?xml version="1.0" encoding="utf-8"?>
<!-- Generator: Adobe Illustrator 17.1.0, SVG Export Plug-In . SVG Version: 6.00 Build 0)  -->
<!DOCTYPE svg PUBLIC "-//W3C//DTD SVG 1.1//EN" "http://www.w3.org/Graphics/SVG/1.1/DTD/svg11.dtd">
<svg version="1.1" id="Layer_1" xmlns="http://www.w3.org/2000/svg" xmlns:xlink="http://www.w3.org/1999/xlink" x="0px" y="0px"
	 viewBox="0 0 360 360" enable-background="new 0 0 360 360" xml:space="preserve">
<path fill="none" stroke="#E1E1E1" stroke-miterlimit="10" d="M-9.3,213.3c1.9-2,4.2-3.7,5.7-6.1c1.2-1.9,1.7-4.2,2.6-6.2
	c2.7-5.6,10.5-4.2,15.3-8.1c10.3-8.4-6.2-26-6.9-39.3c-0.3-5.7,0.3-12.1-3.4-16.4c-2.3-2.6-5.7-3.8-8.5-5.9c-2.8-2.1-5-5.9-3.3-8.9"
	/>
<path fill="none" stroke="#E1E1E1" stroke-miterlimit="10" d="M-8.6,372c0-0.5-0.1-1.1-0.2-1.7c-1.2-4.6,4.5-8.2,6.4-12.6
	c2.9-6.5-5.1-13.8,19.1-44.7c0.7-1,2-1.5,2.5-2.6c0.6-1.1,0.6-2.4,0.7-3.7c0.1-6.5,0.2-13.1,1.7-19.5c1.5-6.4,4.6-12.6,9.8-16.5
	c0.7-0.5,1.5-1.1,1.7-2c0.2-0.7-0.1-1.5-0.3-2.1c-2.1-5.6-4.1-11.2-6.2-16.8c-0.3-0.8-0.6-1.7-1.3-2.3c-0.6-0.6-1.5-0.8-2.4-1
	c-4.1-1-8.1-2.1-12.2-3.1c-0.7-0.2-1.4-0.4-2.2-0.3c-2.4,0.2-3.6,3-5.3,4.8c-3.1,3.4-8.4,3.9-13.1,4.8"/>
<path fill="none" stroke="#E1E1E1" stroke-miterlimit="10" d="M253.9,373c1.1-8.5,2.2-17,3.3-25.4c0.5-4.2,1.1-8.5,0-12.6
	c-1.1-4.1-6.7-4.6-8.4-8.5c-3.1-7,4-14.4,4.7-22.1c0.7-7.3,0.9-16.9,7.4-20.4c3.4-1.9,8.2,0.6,11.2-2c3.1-2.7,3.4-7.4,2.8-11.5
	c-0.8-5.1-2.7-9.9-4-14.8s-1.7-10.4,0.4-15.1c1.9-4.3,5.9-8.2,5.3-12.9c-0.3-2.2-1.7-4.3-1.3-6.5c0.3-2.3,2.3-3.9,3.8-5.7
	c3.3-4,4.3-9.6,3.5-14.7c-0.9-5.1-3.4-9.8-6.5-14c-0.9-1.2-1.8-2.4-2.2-3.8c-0.3-1.4,0.1-3.2,1.5-3.8c0.5-0.2,1-0.3,1.4-0.7
	c0.6-0.6,0.6-1.6,0.9-2.3c0.5-1.2,1.9-1.8,3.1-2.2c3.5-1.3,7-2.6,10.5-3.8c0.9-0.3,1.1-0.8,2-0.3c1.1,0.6,1.5,2.7,1.5,4
	c0.2,8,5.6,14.6,10.9,20.5c2.8,3.1,5.8,6.2,7.9,9.8c5.4,9.2,4.6,20.9,9,30.7c1.7,3.8,4.1,7.1,6.5,10.5c3.5,4.9,7.1,9.9,10.6,14.8
	c0.5,0.8,1.1,1.6,2,2c0.9,0.5,2,0.5,3,0.4c1.9-0.2,3.3-0.4,5.1-1.1c0.7-0.3,1.5-0.6,1.8-1.3c0.2-0.3,0.2-0.7,0.4-1
	c0.4-0.7,1.3-1,2.1-1s1.6,0.4,2.4,0.7c1.5,0.5,3.1,0.7,4.7,0.6c1.5-0.1,2.9-0.4,4.4-0.5c2.3-0.2,4.5,0.2,6.7,0.5"/>
<path fill="none" stroke="#E1E1E1" stroke-miterlimit="10" d="M177,256.2c2.3-4,3.2-9.1,6.8-12c1.3-1,2.8-1.7,4.2-2.6
	c3.4-2.3,5.7-5.9,7.6-9.6c3.2-6.2,5.8-13,11-17.6c0.8-0.7,1.6-1.3,2.2-2.2c0.5-0.8,0.7-1.6,1-2.5c1-3.1,2.2-6.1,3.7-8.9
	c0.5-1,1.1-2,2-2.7s2.2-0.9,3.1-0.4c0.9,0.5,1.2,1.6,1.5,2.5c0.7,2.1,1.3,4.1,2,6.2c0.4,1.3,0.8,2.5,1,3.8c0.3,1.7,0.3,3.4,0.2,5.1
	c-0.1,8.3-0.3,16.7-2,24.8c-1,4.4-2.4,8.6-3.8,12.8c-3.9,11.7-8.4,24-18,31.7c-0.9,0.7-1.8,1.4-2.9,1.4c-1.6,0.1-2.9-1-4.1-2.1
	c-2.7-2.4-3.2-7.2-6.5-8.5c-1.6-0.6-3.2,1.7-4.7,1.1c-0.7-0.3-1.3-0.8-1.8-1.2c-2.9-2.3-6.8-1.9-10.4-2.7c-2.5-0.6-1.1-4.9,0.4-7
	C171.8,262.4,174.9,259.7,177,256.2z"/>
<path fill="none" stroke="#E1E1E1" stroke-miterlimit="10" d="M355,326.1c-1.8-0.5-3.5-1.1-5.3-1.6c-1-0.3-2-0.6-2.8-1.2
	c-2.5-1.6-3.3-5-2.9-7.9c0.3-1.9,0.9-4.1-0.4-5.5c-0.6-0.6-1.5-0.9-2.3-1.2c-1.4-0.6-2.8-1.5-3.6-2.8s-1.1-3.1-0.4-4.4
	c0.7-1.4,2.4-2.3,3.9-1.8c2.8,0.9,3,5.5,5.8,6.2c0.6,0.2,1.3,0.1,1.9-0.1c2.1-0.6,2.7-3.5,4.8-4.1c2.1-0.6,3,2.5,4.8,3.7
	c0.3,0.2,0.5,0.3,0.8,0.4c0.5,0,0.9-0.3,1.4-0.3c1-0.1,1.8,0.9,1.9,1.9c0.1,1-0.4,1.9-0.8,2.9c-1.8,4.2-2.5,8.9-1.8,13.5
	c0.1,0.9,0,2.2-0.9,2.2c-0.7,0-1.1-0.8-1.8-0.8c-0.7,0-0.5,1.2-1,1.7C356,327,355.4,326.2,355,326.1z"/>
<path fill="none" stroke="#E1E1E1" stroke-miterlimit="10" d="M340.4,373c0-0.6,0-1.2,0-1.8c0-3.1,0.2-6.6,2.3-8.9
	c0.6-0.6,1.3-1.2,1.8-1.8c0.7-0.8,1.1-1.7,1.6-2.6c0.7-1.5,0.8-3.7,2.2-4.6c1.2-0.8,2.6,1.3,2.9,2.7c0.3,1.4,0.1,2.9,0,4.3
	c0,0.5,0,1,0.1,1.4c0.4,1.2,0.9,2.7,2.1,1.6c0.6-0.5,0.7-3.1,0.8-3.8c0.4-2.8,0.2-6.5,2.3-8.5c2.4-2.2,5.1-0.1,6.4,2
	c1.1,1.9,0.9,0.9,2.6,0.2c1.1-0.5,2.8,0,3.7,0.5c1.2,0.7,3.2,2.9,3.2,1.3c0-0.2-0.3,0-0.5,0"/>
<path fill="none" stroke="#E1E1E1" stroke-miterlimit="10" d="M308,372.4c-0.8-1.9-1.5-3.9-2.1-5.9c-2.1-7-2.5-21.3-9.4-19.2
	c-9.9,3-12,14.4-13.6,26.3"/>
<path fill="none" stroke="#E1E1E1" stroke-miterlimit="10" d="M119.8,371.8c2-2.5,3.9-5,5.9-7.5c1.1-1.4,2.3-2.9,2.7-4.7
	c0.4-1.8,0-3.8-0.4-5.6c-3.2-14.3-6.4-28.7-9.7-43c-0.6-2.6-1.9-5.5-3.1-7.9c-0.9-1.8-1.9-3.7-3.6-4.8c-5.2-3.2-12,3.2-17.8,1.2
	c-3.3-1.2-5-4.8-5.5-8.2c-1.1-7.8,2.9-15.3,6.8-22.2c1.5-2.7,3-5.4,4.5-8.1c1.7-3.1,3.5-6.2,6.3-8.4c2-1.5,4.3-2.5,6.6-3.4
	c1.9-0.8,3.9-1.6,5.8-2.4c5.2-2.1,10.5-8,15.8-5.9c2.9,1.2-0.4,6.5,1.3,9.2c1.1,1.8,3.9-1.4,5.1-3.1c4.1-5.4,12.5-12.7,8.4-18.1
	c-3.9-5.1-9.4-8.3-11.7-14.2c-1.2-3-2.5-6.2-5.2-8c-1.2-0.8-2.7-1.3-4-2c-2-1.1-3.7-2.7-5.3-4.4c-5.1-5.2-7.1-18.4-14.2-16.7
	c-4,1-3.6,10.9-7.4,9.3c-7.9-3.4-6.6-15.8-10.7-23.3c-1.2-2.2-2.6-4.5-4.5-6.1c-2.1-1.7-4.7-2.6-7.1-3.9c-3.4-1.9-6.3-4.5-9.2-7.2
	c-2.3-2.1-3.7-3.9-5.7-6.6c-1.2-1.7-2.5-5.3-0.5-7.7c0.8-0.9,2.5-2.2,3.7-2.5c16.9-4.4,30.8-16.3,43-28.7
	c12-12.2,23.4-25.8,29.2-41.9c3.4-9.2,5.5-19.9,13.6-25.3c3-2,6.6-3,9.5-5.1c8.6-6.3,8.2-18.8,11.4-28.9c1.8-5.5,4.8-10.6,7.8-15.5
	c0.1-0.2,0.2-0.3,0.3-0.5"/>
<path fill="none" stroke="#E1E1E1" stroke-miterlimit="10" d="M196.7-9.5c-4.5,4.5-12.1,13.3-12.2,21.1c-0.1,6.5,2.6,13.7-1,19.1
	c-2.6,3.9-7.8,5.5-10.3,9.5c-1.3,2.1-1.9,4.8-4,6.2c-2.3,1.5-5.3,0.5-8,0.8c-5.5,0.6-9,6-11.8,10.8c-2.7,4.8-5.4,9.6-8.1,14.4
	c-1.2,2.2-2.5,4.4-3.4,6.7c-1.2,2.9-1.8,6.1-3,9c-2.8,7.1-8.6,12.5-14,17.9c-6.8,6.8-11.4,9.6-15.3,18.3c-0.8,1.7-6.8,4.2-6.1,5.6
	c2,3.7,6.8,4.1,10.2,4.2c3.4,0.1,6,0.2,9,1.8c3.5,1.9,4.5,6.4,5.3,10.4c1.6,7.3,4.4,14.3,7.1,21.3c1.8,4.7,4.1,9.8,8.6,12
	c4.6,2.2,6.7-2.8,10.4-6.2c4.2-4,11.9-0.2,15.8-4.5c1.7-2,2.9-4.3,4.5-6.5c2.4-3.3,5.5-5.9,8.6-8.6c4.7-3.9,9.3-7.9,14-11.8
	c2.8-2.3,7.9-4.2,9.2-0.9c0.5,1.3,0.1,2.8-0.1,4.2c-0.6,6.8,7.2,11.5,9,18.1c1.9,7.1-3.4,14-8.3,19.5c-9.4,10.5-19.1,21.2-31.6,27.8
	c-3.7,2-7.7,3.7-10.3,6.9c-4.9,6-3.5,14.8-5.1,22.4c-3.2,15.4-18.6,25.1-25,39.4c-7,15.5-2.4,33.5,2.3,49.8
	c1.4,4.7,3.7,10.3,8.6,10.9c3.5,0.4,6.7-2.1,8.9-4.9c2.2-2.8,4.1-6,7.1-7.8c3-1.8,5.6,1.5,9.1,1.9c1.8,0.2,2.8-3.5,4.6-2.9
	c4.7,1.4,5.6,11.3,10.4,10.3c2.6-0.5,5.2-2.4,6.3,0c5.9,12.9,19.3,23.4,23.4,36.5"/>
<path fill="none" stroke="#E1E1E1" stroke-miterlimit="10" d="M272-10.1c-0.4,1.4-1.3,2.6-2.2,3.8c-2.1,2.9-4.1,5.9-5.9,9
	c-0.5,0.9-1.1,1.9-1.4,2.9c-0.3,1.1-0.3,2.3-1.1,3.1c-0.4,0.4-0.9,0.7-1.4,1.1c-0.5,0.5-0.9,1.1-1.3,1.7c-3.6,5.9-7.4,12.1-7.7,19
	c-0.1,3,1.5,8.6-1.4,8.6c-3.8,0-4.9-6.4-8.7-6.4c-2,0-4.3,0.9-5.7-0.4c-0.7-0.7-1-1.7-1.2-2.7c-2-8.2-7-15.6-13.9-20.6
	c-2.1-1.5-4.6-3-5.5-5.5c-0.4-1.2-0.5-2.6-0.9-3.8c-0.5-1.2-1.7-2.3-2.9-2c-0.5,0.1-0.9,0.4-1.3,0.7c-4.3,3.3-8.4,6.9-11.5,11.3
	s-5,9.8-4.7,15.2c0.2,2.8,1,5.6,1.1,8.4c0.1,2.7-0.4,5.3-1,8c-0.5,2.4-1,4.8-1.5,7.2c-0.2,1-0.5,2.1-1.1,3c-0.8,1-2.1,1.7-1.7,2.9
	c0.3,1,0.2,2,0.1,3.1c-0.1,1.9-1.2,3.5-2.5,4.9c-2.3,2.5-6,4.4-9.1,2.9c-1.9-0.9-3.2-2.9-5.2-3.4c-1-0.3-2.1-0.1-3.1-0.4
	c-3-0.7-4.7-4.5-7.8-4.9c-2.2-0.4-4.3,1.2-5.9,2.8c-7,7-10.6,16.6-13.8,25.9c-1.9,5.5-3.9,11.2-7.7,15.6c-4.3,4.9-13,7.9-12.9,14.5
	c0,2.8,3.2,4.8,5.9,5.6c1.3,0.4,2.8,0.5,4,1.3c2.4,1.7,2.1,5.2,2.3,8.2c0.4,4.9,3.3,9.6,7.6,12.2c1.4,0.8,3,1.5,3.9,2.9
	c0.4,0.7,0.7,1.4,1.1,2.1c1.1,1.7,3.5,2.3,5.5,1.9c2-0.4,3.8-1.5,5.6-2.6c4-2.6,8.3-5.4,10.5-9.7c0.8-1.6,1.3-3.3,2.1-4.8
	c2.2-4.3,6.7-7.1,11.4-8.4c4.7-1.3,10.1,0.9,14.4-1.3c0.6-0.3,1.2-0.6,1.9-0.7c2.3-0.5,4.7-0.8,7.1-1c0.7-0.1,1.5-0.1,2.2-0.3
	c1.8-0.5,3.8-2.9,5.3-1.8c1.7,1.2-1.2,4.3-1.2,6.2c0,2.1,0.5,4.4,1.1,6.5c1.3,4.7,3.7,9.1,5.3,13.7c3.5,9.8,3.4,20.8-0.2,30.5
	c-8,21.3-31,33.9-40.4,54.6c-2.4,5.2-3.8,10.8-5.7,16.3c-3.4,9.6-9.5,17.9-15.9,25.8c-3,3.7-7.2,6.4-8.5,11
	c-1.3,4.6,2.4,12.2,7,13.5c5.1,1.4,11-3.2,15.4-0.2c1.4,1,2.3,2.6,3.7,3.7c1.3,1.1,3.6,1.5,4.6,0.1c0.4-0.5,0.5-1.2,0.9-1.6
	c0.9-0.9,2.5-0.4,3.4,0.5c0.9,0.9,1.5,2.2,2.5,2.9c0.8,0.6,1.8,0.8,2.7,1c3.4,0.8,6.9,1.6,10.3,2.4c3.5,0.8,7,1.6,10.6,1.2
	c3.5-0.5,7.1-2.5,8.4-5.8c0.6-1.6,0.7-3.4,1.6-4.9c0.9-1.5,3.3-2.2,4.3-0.8c0.4,0.6,0.9,1.9,1.5,1.4c11.4-9.1,11.7-26.8,13.5-41.2
	c1.8-14.5,1.4-29.1,1.1-43.7c-0.1-2.3-0.1-4.7-0.8-6.9c-0.6-2.1-1.7-3.9-2.6-5.9c-6.6-13.4-6.6-29.3-3.3-43.9
	c0.4-1.8,0.9-3.7,1.9-5.3c1.4-2.2,3.7-3.8,5.9-5.1c6.1-3.8,13.9-5.5,17.6-11.7c0.2-0.4,0.4-0.7,0.7-1c0.3-0.3,0.7-0.5,1.1-0.7
	c7.7-4.1,10.3-13.5,17-19.1c1.1-0.9,2,2.1,3.4,2.4c1.4,0.2,2.4-1.7,3.8-1.6c1.4,0.1,1.8,1.9,2.8,2.9c0.6,0.6,1.4,0.9,2.1,1.2
	c1.1,0.4,2.3,0.8,3.5,0.6c0.6-0.1,1.2-0.4,1.7-0.3c0.4,0.1,0.8,0.4,1.1,0.6c2.1,1.6,4.1,3.3,6.2,4.9c1.1,0.9,2.2,1.8,3.5,2.2
	c0.5,0.2,1.1,0.3,1.5,0.5c0.5,0.2,0.9,0.6,1.3,1c1.1,1,2.3,2,3.1,3.3c0.9,1.4,1.5,3,2.7,4.1c0.6,0.5,1.2,0.9,1.9,1.4
	c2.7,2.1,2.4,4.7,3.4,7.5c1,2.9,3.5,5.4,5,8.1c8.4,14.6,6.8,33.8,16.7,47.4c2.3,3.2,4.5,6.6,6.7,9.9c1.9,2.7,3.6,6,5.7,8.7
	c4.1,5.4,6.2,11.3,10.5,16.5c0.6,0.7,1.2,1.5,2,2c1,0.7,2.2,1,3.3,1.4c2.6,0.8,5.6,1.5,8,0.4"/>
<path fill="none" stroke="#E1E1E1" stroke-miterlimit="10" d="M279.2-11.8c-2.9,3.7-5.4,7.7-7.8,11.6c-0.8,1.3-1.5,2.5-2.1,3.9
	c-0.5,1.3-0.8,2.7-1.2,4.1c-0.6,2.2-1.4,4.3-2.1,6.4c-2.2,6.2-4.8,12.7-7,18.9c-1.1,3.1-2.2,6.2-3.3,9.3c-0.6,1.7-1.2,3.5-1.4,5.4
	c-0.1,2.1,0.3,4.3-0.7,6.1c-0.1,0.2-0.3,0.4-0.5,0.5c-0.6,0.3-1.2-0.4-1.6-1c-1.5-2.3-3.4-4.9-6.2-4.9c-0.5,0-1.1,0.1-1.6-0.1
	c-1.2-0.3-1.8-1.7-2.4-2.8s-1.8-2.2-3-1.7c-0.7,0.3-1.1,1.1-1.8,1.1c-0.7,0-1.1-0.9-1.7-1.4c-0.8-0.6-2-0.3-3-0.2
	c-4.5,0.7-8.4-1.9-11.8-4.8c-1.5-1.3-3.1-2.8-4.3-4.3c-4.2-5.2-7.3-11.3-9.6-17.6c-0.3-0.9-0.9-2-1.9-1.9c-0.7,0-1.2,0.7-1.6,1.3
	c-1.7,2.9-2.7,6.2-3,9.6c-0.2,2.9,0.1,5.9,0.7,8.7c0.3,1.6,0.7,3.2,0.5,4.7c-0.3,2.6-2.2,4.7-2.6,7.3c-0.6,4.3,3.2,9,1,12.8
	c-0.7,1.3-1.9,2.1-3.1,2.9c-2.1,1.5-3.8,3.8-6,5.1c-5.9,3.4-13.6,3.6-19.3,0.1c-1.4-0.8-2.6-1.9-4.1-2.5c-3.4-1.3-7.3,0.2-9.9,2.7
	c-2.6,2.5-4.2,5.8-5.7,9.1c-1.7,3.8-3.5,7.5-5.2,11.3c-0.8,1.7-1.5,3.3-2,5.1c-0.6,2.4-0.6,4.9-1.8,7c-1.7,2.9-5.7,5-4.9,8.3
	c0.4,1.7,2,2.8,3.5,3.7c3.4,2,7,4.1,11,4.1c5.4,0,9.9-3.8,13.8-7.6s8-7.9,13.3-8.7c3.1-0.5,6.3,0.2,9.5,0.5c2.9,0.2,5.2-2.6,8.1-2.7
	c7.5-0.2,11.8-3.8,19-5.8c6.5-1.8,13.8,3.1,18.6-1.7c2.1-2.1,6-6.7,7.2-4c1.5,3.2-4.2,5.6-6.2,8.5c-3.6,5-0.6,11.2-0.8,17.3
	c-0.1,3.5-3.1,6.4-3.1,9.9c0,0.6,0.1,1.2,0.4,1.7c0.4,0.5,1.1,0.7,1.8,0.8c5.3,0.8,10.6-2.8,13-7.6c2.4-4.8-0.7-10.5,0.5-15.7
	c0.5-2,1.8-3.6,2.1-5.7c1.9-11.1,4.9-22,9.1-32.5c0.7-1.8,1.5-3.7,3.1-4.7c1.1-0.7,2.3-1,3.5-1.3c4.9-1.3,8.3-9.4,13-7.5
	c2.2,0.9,0.5,4.8,1.3,7.1c1.3,3.5,6.4,3.6,7.7,7.1c0.8,2.2-2.1,4.2-1.6,6.5c0.5,2.3,1.8,4.3,3,6.2c7.4,11.1,16.3,21.3,26.3,30.1
	c4.9,4.3,7.4,8,14,13.8c0.4,0.3,3.8,3.4,4.8,4.5c1.7,1.8,2.3,4.2,3.7,6.5c1.7,2.9,2.2,8.1,3.5,11.2c3.7,8.6,5.5,29.5,6.1,31.8
	c1.1,4.9,2.2,9.8,4,14.5c2.2,6.2,5.5,12.1,8.9,17.8c1.3,2.1,2.6,4.1,4.1,6c0.7,0.8,1.4,1.6,2.4,1.9c2.1,0.6,4-1.2,5.5-2.9"/>
<path fill="none" stroke="#E1E1E1" stroke-miterlimit="10" d="M170.7,72.4c-1.2-2.6-5.2-2.4-7.9-1.3s-4.6,3.3-6.1,5.7
	c-1.7,2.7-2.8,5.7-3.9,8.7c-0.2,0.6-0.5,1.3-0.7,1.9c-0.9,3-3,6.3-1.8,9.2c0.8,1.7,3.7-0.4,5-1.8c1.2-1.4,2-3.2,2.9-4.8
	c1.3-2.2,3.1-4,4.9-5.9c1.1-1.2,2.3-2.3,3.4-3.5C168.8,78.4,172.1,75.3,170.7,72.4z"/>
<path fill="none" stroke="#E1E1E1" stroke-miterlimit="10" d="M172.3-9.9c-3.8,12.8-6.6,26.1-15.8,35.5c-3.8,3.9-8.5,6.9-11.6,11.3
	c-1.9,2.8-3,6-4.3,9.2c-6.7,16.1-17.9,29.9-29,43.4c-4.9,5.9-9.7,11.9-14.6,17.8c-5.2,6.3-10.5,12.8-17.6,16.9
	c-7.9,4.6-17.8,4-26.4,7.4c-1.4,0.6-3.6,2.6-5,3.3c-1.1,0.6-2.5,0.8-3.2,1.9c-0.6,1.1-0.3,2.5,0.1,3.7c2.2,7.5,4.5,15,6.7,22.5
	c0.6,2,1.4,4.3,3.3,5.2c1.1,0.6,2.5,0.5,3.6,1.1c2.1,1.2,2.4,4,3.4,6.3c2.3,5.3,8.5,7.3,13.4,10.1c13.6,7.8,19.3,24.1,24,39.1
	c0.5,1.6,1,3.3,0.9,5c-0.2,2.5-1.9,4.6-3.5,6.6c-8.7,10.5-18.3,20.5-24.6,32.5c-6.4,12.1-9.3,26.8-4,39.4c0.8,1.8,1.7,3.6,1.5,5.6
	c-0.2,3-2.8,5.1-4.8,7.4c-3.8,4.5-5.4,10.5-6.7,16.3c-1.9,8-3.8,16-5.7,23.9c-0.8,3.5-1.6,7.2-0.6,10.5"/>
<path fill="none" stroke="#E1E1E1" stroke-miterlimit="10" d="M161.3-10.1c-0.2,0.6-0.4,1.2-0.5,1.8C147.2,36.2,116.2,72.9,84,106.5
	c-8.1,8.4-18.1,17.4-29.6,15.9c-4.2-0.5-8.2-2.4-12.4-2.1c-2,0.2-4.1,0.3-5.7,1.2c-1.2,0.7-3.6,2.4-4.4,3.5
	c-3.4,4.2-4.3,10.5-2.8,16c1,3.9,3.1,7.4,5.2,10.9c3,4.9,6,9.9,9,14.8c0.9,1.5,1.8,3.1,1.5,4.8c-0.1,0.7-0.5,1.4-0.7,2.2
	c-0.3,1.4,0.3,2.8,0.8,4.1c2,4.7,4,9.5,7,13.7c1.4,1.9,3,3.7,4.3,5.7c4.4,6.7,5.4,15.3,10.9,21.2c2.8,3,10.4,6,7.9,9.2
	c-1.5,1.8-4.7,1-6.1,2.9c-0.6,0.8-1,1.8-2,2.1c-0.8,0.3-1.7,0.1-2.5,0c-4-0.5-8,2.1-10,5.6c-2.1,3.5-2.5,7.7-2.3,11.8
	c0.4,11.2,5,22.2,3.5,33.3c-0.8,5.8-1.8,11.8-2.3,17.6c-0.8,8.3-2.3,16.5-4.7,24.5c-4.8,16.5-12.9,31.8-22.3,46.2"/>
<path fill="none" stroke="#E1E1E1" stroke-miterlimit="10" d="M153.2-10.1c-1.4,3.7-2.8,7.3-4.3,10.9
	c-11.1,25.6-28.6,47.9-46.4,69.3c-8,9.6-16.3,19.3-26.5,26.6s-22.7,12.1-35.1,11c-4.2-0.4-8.6-1.5-12.7-0.2c-6.7,2-10,9.1-10.2,16.5
	c0,1,0.1,2.9,0.1,3.9c0,7.3,1.6,13.4,3.8,20c2.4,7.4,4.7,14.7,7.1,22.1c1,3.2,2.1,6.5,3.9,9.4c1.6,2.5,3.9,4.7,5.3,7.3
	c6.6,11.7-4.4,26.3-1.9,39.5c0.9,5.1,3.8,9.5,6,14.2c4.9,10.4,6.8,22.2,5.5,33.7c-0.8,7.3-2.9,14.4-4.9,21.4
	c-1.5,5-2.9,10.1-4.4,15.1c-0.7,2.5-1.4,5-2.5,7.3c-6,13.7-22.1,23-22.9,38c-0.1,1.4,0,2.9-0.6,4.1c-0.5,1-1.2,1.7-1.9,2.5
	c-2.5,2.8-4,6.3-5.4,9.8"/>
<path fill="none" stroke="#E1E1E1" stroke-miterlimit="10" d="M141-10.7c-2.8,8.3-5.2,16.9-9.3,24.7c-2.5,4.9-5.7,9.4-8.9,13.9
	c-17,24.1-35.9,48.3-62.3,61.3c-2.7,1.3-5.6,2.6-8.6,2.9c-3,0.3-6.1-0.3-9.1-0.7c-18-2.6-36.9,1.5-52.5,10.9"/>
<path fill="none" stroke="#E1E1E1" stroke-miterlimit="10" d="M-10.1,85.4C8.3,73.5,29.1,64.7,50.1,58.3c3.9-1.2,8-2.3,12.1-1.9
	c3,0.3,5.9,1.5,8.9,1.2c2.8-0.3,5.2-1.9,7.5-3.5c23-16.1,41.4-38.8,52.4-64.6"/>
<path fill="none" stroke="#E1E1E1" stroke-miterlimit="10" d="M19-10.6c-2,1.6-4,3.2-6,4.8C5.8-0.1-2.8,5.8-11.5,6"/>
<path fill="none" stroke="#E1E1E1" stroke-miterlimit="10" d="M-10.2,72.4c22.6-15.6,31.5-13.1,53.1-32.2C56,28.5,71.1,27.7,84.3,16
	c7.6-6.8,15.3-16.4,21.2-26.7"/>
<path fill="none" stroke="#E1E1E1" stroke-miterlimit="10" d="M224.1-11.3c-0.2,2.6,0.6,5.2,2.1,7.2c1.3,1.8,3.1,3.1,4.7,4.6
	c1.6,1.6,2.8,3.5,4.1,5.3c2.9,4.2,5.7,8.4,8.6,12.6c0.7,1.1,1.1,3,2.3,3.1c1.6,0.2,1.2-2.8,1.1-4.3c-0.3-6.2,2.1-12.4,6.5-16.7
	c0.7-0.7,1.5-1.4,2.2-2.1c2.6-2.8,4.2-6.7,3.5-10.5"/>
<path fill="none" stroke="#E1E1E1" stroke-miterlimit="10" d="M348.5-12c-0.2,6.3-0.1,12.7,0.3,19c0.2,2.8,0.5,5.9,2.3,8.1
	c0.6,0.8,1.3,1.4,1.9,2.2c1.4,2.1,1.6,5.3,3.9,6.4c1,0.5,2.1,0.4,3.1,0.8c0.9,0.3,1.7,0.8,2.6,0.7c0.7-0.1,1.4-0.5,2-0.9
	c3.5-1.7,7.9,0.8,11.4-0.8"/>
<path fill="none" stroke="#E1E1E1" stroke-miterlimit="10" d="M339,30.3c-0.9,0.2-1.6-0.5-2.2-1.2c-0.6-0.7-1.2-1.5-1.7-2.3
	c-0.6-1-1-2.1-1.2-3.3c-0.6-2.3-0.8-4.7-1-7.1c-0.1-1.3-0.3-2.6-0.4-3.9c-0.1-0.7-0.1-1.4,0-2.1s0.7-1.3,1.4-1.4
	c0.7-0.1,1.4,0.2,1.8,0.8c0.4,0.5,0.7,1.2,0.9,1.8c1.1,3.1,2.1,6.2,3.2,9.3c0.2,0.6,0.4,1.2,0.5,1.8c0.4,1.7,0.2,3.5,0,5.2
	C340.2,28.9,340,30,339,30.3z"/>
<path fill="none" stroke="#E1E1E1" stroke-miterlimit="10" d="M371.4,32.5c-3.7,2.6-8,4.2-12.5,4.8c-2.5,0.3-5,0.3-7.3,1.1
	c-0.3,0.1-0.7,0.3-0.8,0.6c-0.2,0.4,0.1,0.9,0.4,1.3c1.6,2.2,3.2,4.4,4.8,6.6c2.1,2.9,4.2,5.7,6.3,8.6c1.9,2.6,3.8,5.2,5.7,7.9
	c1.8,2.5,3.7,5,5.5,7.5"/>
<path fill="none" stroke="#E1E1E1" stroke-miterlimit="10" d="M206.6,47.5c-0.8,0.7-1.7,1.4-2.4,2.3c-2.1,2.8-1.3,6.9-3,9.8
	c-0.7,1.1-1.7,2-2.7,2.9c-1.7,1.5-3.4,3-5,4.5c-0.6,0.5-1.2,1.2-1.1,2c0.1,0.7,0.7,1.1,1.3,1.4c4.2,2.2,9,2.5,13.7,2.7
	c1.4,0.1,2.9,0.1,4.2-0.3c1-0.3,2-0.9,2.9-1.3c1.3-0.6,2.8-1.1,4-1.9c1.5-1,2.6-2.4,3.7-3.8c2.1-2.7,4.2-5.5,6.3-8.2
	c1.4-1.9,4-4.9,2.2-6.4c-1.2-1-3.3-0.5-4.2-1.7c-0.4-0.5-0.6-1.1-1-1.6c-0.5-0.7-1.2-1.3-1.9-1.9c-4-3.5-9.1-12.3-11.7-10.8
	C209.7,36.7,212.5,42.3,206.6,47.5z"/>
<path fill="none" stroke="#E1E1E1" stroke-miterlimit="10" d="M287.5-10.1c-4.1,3.3-8.3,6.7-11.6,10.8s-5.6,9.3-5.5,14.6
	c0,0.8,0.1,1.7,0.8,2.2c1,0.8,2.4,0.2,3.5-0.3c21.8-8.8,24.8-14.4,26.9-13.5c3.1,1.4,5.2,12.5,7.8,18.8c1.9,4.6,3.9,9.3,4.2,14.3
	c0.2,3-0.2,6-0.2,9c0.1,10.3,6.6,21,16.6,23.5c3.6,0.9,7.5,0.9,10.6,2.8c2,1.2,3.5,3.1,5,5c6.4,8.2,12.9,16.7,15.7,26.7
	c1.7,5.9,1.9,12.1,2.2,18.2c0.4,9.9,0.7,19.7,0.9,29.6c0.1,6.2-1.4,11.9-1.9,18.1c-0.3,3.6,0.2,7.3,0.7,10.9c0.7,5,1.3,10,2,15
	c0.2,1.5,0.4,3,1.1,4.3c0.7,1.3,2,2.4,3.4,2.4c1.5,0,3-1.3,2.7-2.8"/>
<path fill="none" stroke="#D6D6D6" stroke-miterlimit="10" d="M188.2,168.6c1.4-1.3,3-3.1,4.1-4.6c0.8-1.1,1.6-2.5,1-3.8
	c-0.3-0.6-0.9-1.1-1.3-1.6c-0.3-0.5-0.5-1-0.7-1.6c-0.6-2.6,0.1-5.4,1.3-7.7c1.2-2.4,2.9-4.5,4.5-6.6c3.6-4.7,6.8-9.8,9.6-15
	c0.6-1.1,1-2.5,1.7-3.5c3.4-4.9,6.8-9.9,10.2-14.8c0.6-0.9,1.3-1.9,2.1-2.7c0.9-1,2-1.7,3.1-2.5c2.4-1.9,4.6-3.9,6.6-6.2"/>
<path fill="#7BBCEB" stroke="#4E9BD7" stroke-miterlimit="10" d="M169,182.9c0.4-3.3,1.4-3.5,3.8-5.7c2.7-2.5,6.6-7.7,8.2-11
	c0.3-0.6,0.7-1.1,1.2-1.6c0.8-0.8,1.8-0.3,2.5,0.6c0.6,0.7,1.4,1.4,1.9,2.1c0.7,0.9,1.4,1.4,2.2,2.2c0.9,0.9,2.2,1.5,3.5,1.7
	c4.2,0.5,6.2-5.9,8.8-3.6c1.8,1.5,1.4,4.1,0.3,6.2c-0.6,1-1.5,1.8-2.4,2.6c-6.2,5.2-12.4,10.5-18.6,15.7c-0.8,0.7-1.8,1.4-2.7,1
	c-0.9-0.3-1.5-2-2.4-1.6c-0.9,0.3-0.5,1.8-0.8,2.6c-0.9,2.2-4.8-0.1-6.9,1c-1.5,0.8-2.1,2.4-2.5,3.1c-0.6,1.3-2.5,0.8-3.9,0.9
	c-1.3,0-2.6-0.1-3.6-0.9c-0.7-0.5-1.1-1.4-1.5-2.2c-0.8-1.7-1.5-4-0.2-5.3c0.6-0.6,1.5-0.8,2.3-1.1c1.1-0.3,2.3-0.6,3.4-0.9
	c0.4-0.1,0.7-0.2,1.1,0c0.3,0.1,0.4,0.6,0.8,0.8c2.3,0.9,4.5-0.3,4.7-1.6C168.6,185.4,168.8,184.1,169,182.9z"/>
<path fill="#EAEAEA" stroke="#D6D6D6" stroke-miterlimit="10" d="M148.3,373c-0.7-0.4-1.4-0.8-2.1-1.3c-1-0.7-2.2-1.4-3-2.3
	c-1.2-1.4-2.1-2.9-3.2-4.2c-0.9-1-1.8-2.7-0.5-3.2c2.5-1,4.4-0.3,6.7-1.7c2.3-1.4,5.1-3.4,6.9-2.9c0.8,0.2,1.5,0.6,2.3,0.9
	c0.8,0.2,1.7,0.7,2.5,1.1c1.2,0.5,2.1,1.8,3.4,1.7c0.5,0,1-0.3,1.5-0.4c1.9-0.2,3,2.2,4.8,2.8c0.8,0.3,1.8,0.1,2.6,0.4
	c0.7,0.3,1.3,0.8,1.8,1.3c2.9,2.8,6,2,7.2,1.8c1.6-0.3,2.4,2.9,2.5,4.9"/>
<path fill="none" stroke="#D6D6D6" stroke-miterlimit="10" d="M104.8,343.5c0.5,1.6,1.8,2.8,3,3.9c4,3.4,8.2,6.6,12.7,9.5
	c1.2,0.8,2.4,1.8,3.7,2.3c1,0.4,1.9,0.7,2.9,1c3.7,1.1,7.7,2.2,11.6,2.9"/>
<path fill="#EAEAEA" stroke="#D6D6D6" stroke-miterlimit="10" d="M100.5,325.7c3.4,1.7,3.8,2.5,6.4,5.1c0.8,0.8,1.5,2.4,1.6,3.6
	c0.2,2-0.8,3.2-1.7,4.9c-0.7,1.4-1.3,2.9-2.1,4.2c-1.8,3.1-4.7,4.7-8.3,4.7c-3.5,0-7.6-0.5-10.2-3c-1.3-1.3,1.6-4.4-1-10.8
	c-0.8-2-3.7-3.5-3-5.5c0.3-0.9,1.8-0.8,2.7-0.4c0.9,0.4,1.6,1.1,2.5,1.5c0.9,0.4,2.1,0.4,2.7-0.4c0.3-0.4,0.3-0.9,0.4-1.3
	c0.2-1.3,0.5-2.6,1.3-3.6c0.8-1,2.3-1.9,3.5-1.5c0.5,0.2,1.2,0.6,1.8,0.8C97.7,324.4,99.9,325.4,100.5,325.7z"/>
<path fill="none" stroke="#4E9BD7" stroke-miterlimit="10" d="M-9.2,173.5c4.1,1.8,7.6,5.1,10.9,8.3c5,4.8,10,9.6,14.9,14.4
	c1.9,1.8,3.8,3.7,4.7,6.2c0.4,1.2,0.6,2.6,1.3,3.7c0.9,1.3,2.4,2,3.8,2.6c11.4,4.8,22.8,9.7,34.1,14.5c3.3,1.4,6.7,2.8,10.3,2.9
	c2.7,0.1,5.4-0.6,8.1-0.7c6-0.3,11.9,2.1,17.8,3c6,0.9,13.1-0.2,16.2-5.4c0.9-1.5,1.4-3.3,2.7-4.4c1.4-1.2,3.6-2.9,5.4-3.3
	c3.2-0.7,5.3-1.6,7.5-4.1c1.1-1.2,3-2.9,4.6-3.5c1.4-0.6,3.1-0.4,4.5-0.9c2-0.8,2.5-2,3.9-3.7c1.3-1.7,3.4-1.9,5.5-1.9
	c1.9,0,2.7-1.9,3.9-3.3c1.2-1.4,2.5-3.3,4.3-3.8"/>
<path fill="none" stroke="#D6D6D6" stroke-miterlimit="10" d="M296.3,373.5c0.4-2.1,0.8-4.1,1.1-6.2c1.1-9.1-1.2-18.3,0.4-27.3
	c0.5-2.9,1.5-5.9,1.1-8.8c-0.4-3.2-2.3-6.7-0.4-9.3c0.6-0.8,1.4-1.3,1.9-2.1c2-2.8,1.7-8.7,2.3-12c1.1-6,2.8-6.1,4.3-12
	c0.3-1.1-0.1-5.7-0.1-6.8c0.2-5,5.2-10,2.7-14.3c-1.4-2.5-4.7-3.2-6.4-5.5c-1.2-1.6-1.4-3.6-2-5.5c-0.6-1.8-3.1-2.1-3.9-3.8
	c-0.9-1.9,0.1-3.9-0.3-6c-0.8-3.6,0.5-7.3,1.8-10.8c0.5-1.2,1.6-1.5,2.7-2.3c0.9-0.6-1-2.6-0.1-3.2c0.8-0.5,2-0.1,2.5-0.9
	c0.5-0.9,0.4-1.9,0.4-2.9c-0.6-10.7-1.3-21.5-1.9-32.2c-0.1-1.2-0.2-2.5-0.8-3.6c-0.9-1.4-2.5-2.1-3.9-3c-3.5-2.3-5.7-6-7.1-9.9
	c-0.9-2.5-1.5-5.2-0.7-7.7c0.6-2.1,2.1-3.9,2.6-6c0.4-1.7,0.2-3.4,0-5.1c-0.9-7.3,0.1-15.1-2.7-21.8c-1.5-3.7-0.2-8.3-1-12.2
	c-0.8-4.1-4.5-6.9-8.2-8.9c-1.7-0.9-3.6-1.9-4.4-3.7c-0.4-1-0.5-2-0.5-3.1c-0.5-9.8-0.9-19.6-1.4-29.3c-0.6-13.2-1.2-26.9,3.7-39.3
	c3.2-8,8.6-15,13.5-22.1c1.3-1.8,2.5-3.7,3-5.8c0.2-1.3,0.2-2.6,0.7-3.8c0.8-2,3.2-3.4,3.1-5.6"/>
<path fill="none" stroke="#D6D6D6" stroke-miterlimit="10" d="M246.9,170.9c2.5,2,6,2.9,9.2,2.3c0.6-0.1,1.1-0.2,1.7,0
	c0.3,0.1,0.6,0.4,0.8,0.6c0.9,0.8,1.7,1.6,2.6,2.4c1.6,1.5,3.3,3.1,5.4,3.8c2.1,0.7,4.5,0.4,6.7,0.8c2.8,0.5,5.2,2.2,7.8,3.2
	c2.6,1,6.8,1.4,8.9-0.4"/>
<path fill="none" stroke="#D6D6D6" stroke-miterlimit="10" d="M-9.2,303.1c3.1-0.1,6.2,0,9.3,0.5c6.5,1,12.8,3.8,19.2,5.2
	c10.8,2.4,13.9,3.5,25.7,4.6c2.4,0.2,12.8,0.7,15.2,0.8c1.8,0.1,3.6,0.8,5.3,1.2c3.1,0.7,6.1,1.3,8.7,3c3.3,2.1,3.5,5,3.5,7.9
	c0,1.7,2.4,2.2,4.1,2.8"/>
<path fill="#FFFFFF" stroke="#D6D6D6" stroke-miterlimit="10" d="M93,333.3c0.1,0.6,0.7,1.1,1.3,1.2c0.6,0.2,1.3,0,1.9-0.1
	c0.3-0.1,0.6-0.2,0.8-0.4c0.5-0.4,0.6-1,0.8-1.6c0.1-0.4,0.2-0.7,0-1.1c-0.1-0.4-0.5-0.6-0.8-0.7c-1.4-0.6-3.3,0.2-3.8,1.7
	C93,332.5,92.9,332.9,93,333.3z"/>
<path fill="none" stroke="#D6D6D6" stroke-miterlimit="10" d="M-9.2,354.1c5.6,1.8,11.5,2.9,17.5,4.3c5.8,1.4,9.7,2.9,15.4,4.3
	c2.2,0.5,6.1,1.6,8.4,1.7c3,0.1,6.6-1.4,8.1,2.2c0.3,0.7,0.3,1.5,0.3,2.3c0,0.8,0.1,1.7,0.2,2.5"/>
<path fill="none" stroke="#D6D6D6" stroke-miterlimit="10" d="M74.7-1.5c1.9-3,4.2-5.8,6.8-8.2"/>
<path fill="#EAEAEA" stroke="#D6D6D6" stroke-miterlimit="10" d="M-13,14c1,0,2-0.1,3-0.3c1.5-0.3,2.9-0.9,4.3-1.5
	c7.3-3.2,14-7.7,20.7-12.1C21.2-4,27.1-9.3,33.8-12.4c6.5-3.1,10.2-10.1,15.7-14.1c0.8-0.6,3.2-0.5,4,0c9.6,6,14.1,18.1,22,26
	c2.6,2.5,3.5,6.9,4,11c0.1,1,0.1,3.1-2,4c-2.9,1.2-4.9,2.2-8,3c-2.7,0.7-4.2,2.6-7,4c-2.2,1.1-5.7,1.7-8,3c-9.8,5.4-18.7,13.2-27,22
	c-1.9,2.1-4,3-6,4c-10.7,5.2-21.9,9.6-32.3,15.4"/>
<path fill="#EAEAEA" stroke="#D6D6D6" stroke-miterlimit="10" d="M341,291.5c0.6,0.7,1.6,0.8,2.5,0.8c0.5,0,1.1,0,1.4-0.3
	c0.6-0.6,0.2-1.6-0.2-2.3c-1.7-2.6-4.2-4.8-7-6.2c-0.5-0.2-1-0.4-1.5-0.2c-0.4,0.2-0.6,0.6-0.7,1.1c-0.3,1.6,0.9,3.1,2,4.4
	c0.5,0.6,1.1,1.2,1.8,1.5c0.4,0.2,0.8,0.3,1.1,0.6C340.6,291,340.8,291.3,341,291.5z"/>
<path fill="#EAEAEA" stroke="#D6D6D6" stroke-miterlimit="10" d="M309.5,55.2c-0.3-0.4-0.7-0.7-1.1-1.1c-0.2-0.2-0.5-0.4-0.8-0.5
	c-0.3-0.1-0.6,0-0.8,0.3c-0.1,0.2-0.1,0.4-0.1,0.6c0.1,0.8,0.2,1.5,0.5,2.2c0.3,0.7,1,1.6,1.7,1.4C310.1,57.8,310.1,56.1,309.5,55.2
	z"/>
<path fill="none" stroke="#D6D6D6" stroke-miterlimit="10" d="M273.6,79c1.4-0.4,2.7-1.1,4-1.9c1.1-0.7,2.1-1.6,2.8-2.8
	c1.5-2.4,1.4-5.4,2.7-7.8c1.1-2.2,3.2-3.8,5.2-5.3c1.3-1,2.7-2,4.3-2c1,0,2,0.3,2.8-0.1c0.5-0.3,0.9-0.8,1.5-1
	c0.9-0.2,1.7,0.6,2.7,0.7c0.9,0.1,1.7-0.6,2.6-0.8c0.8-0.2,1.7,0,2.6,0s1.5-0.2,2.5-0.9"/>
<g>
	<g>
		<path fill="none" stroke="#585858" stroke-miterlimit="10" d="M299.1,373.9c0.1-0.7,0.1-1.3,0.2-2"/>
		<path fill="none" stroke="#585858" stroke-miterlimit="10" stroke-dasharray="4.0124,1.0031" d="M299.3,370.9
			c1.2-14.1,2.2-28.5,2.8-43c0.3-8.1,1.8-12.1,3-17.8c1.4-6.6,3.5-15,5-18.3c1.7-3.7,3.4-7.6,6.3-10.4c5.4-5.1,13.7-6.4,18.3-12.2
			c2.5-3.1,3.5-7.2,5.6-10.6c1.4-2.2,3.2-4.1,5.1-5.9c3-3,6.7-6.3,8.2-10.4c0.6-1.6,0.9-3.2,2-4.5c1-1.3,3-2,4.4-1.1
			c0.6,0.4,1,1.1,1.4,1.7c1.3,1.9,3.2,3.3,5.1,4.7c0.7,0.5,1.3,1,2.2,1.1c0.3,0,0.6,0.1,0.9,0"/>
		<path fill="none" stroke="#585858" stroke-miterlimit="10" d="M370,244.1c0.6-0.2,1.3-0.5,1.8-0.8"/>
	</g>
</g>
<g>
	<g>
		<path fill="none" stroke="#585858" stroke-miterlimit="10" d="M71.5,371.8c0.5-0.5,0.9-1,1.4-1.4"/>
		<path fill="none" stroke="#585858" stroke-miterlimit="10" stroke-dasharray="4.0301,1.0075" d="M73.6,369.7
			c6.3-6.1,13.6-10.9,22.2-11.6c7.1-0.6,14.2,1.7,20.9,4c7.2,2.5,14.5,5.2,21,9.2"/>
		<path fill="none" stroke="#585858" stroke-miterlimit="10" d="M138.2,371.5c0.6,0.4,1.1,0.7,1.7,1.1"/>
	</g>
</g>
<g>
	<g>
		<path fill="none" stroke="#585858" stroke-miterlimit="10" d="M95.2-9.9c-0.4,0.5-0.8,1.1-1.2,1.6"/>
		<path fill="none" stroke="#585858" stroke-miterlimit="10" stroke-dasharray="4.0733,1.0183" d="M93.5-7.4
			c-3,4.2-5.8,8.5-7.8,13.2C84.1,9.7,82.9,14,79.8,17c-1.8,1.7-4,2.7-6.2,3.7c-3.4,1.6-6.7,3.2-10.1,4.7
			c-8.6,4.1-17.3,8.2-24.8,14.2c-4.5,3.7-8.5,8-13.2,11.4c-4.9,3.6-10.4,6.3-15.9,8.9c-6.3,3-12.7,6.1-19,9.1"/>
		<path fill="none" stroke="#585858" stroke-miterlimit="10" d="M-9.7,69.3c-0.6,0.3-1.2,0.6-1.8,0.9"/>
	</g>
</g>
<g>
	<path fill="none" stroke="#585858" stroke-width="2" stroke-miterlimit="10" d="M-13.4,10.3C-2.5,8.9,6.9,4.2,15.1-3.4
		c3.1-2.9,6.4-5.6,9.7-8.2"/>
	<g>
		<path fill="none" stroke="#FFFFFF" stroke-miterlimit="10" d="M-13.4,10.3c1.3-0.2,2.7-0.4,3.9-0.7"/>
		<path fill="none" stroke="#FFFFFF" stroke-miterlimit="10" stroke-dasharray="7.3837,7.3837" d="M-2.4,7.6C4,5.2,9.8,1.5,15.1-3.4
			c1.2-1.1,2.5-2.3,3.8-3.4"/>
		<path fill="none" stroke="#FFFFFF" stroke-miterlimit="10" d="M21.7-9.1c1-0.8,2.1-1.7,3.1-2.5"/>
	</g>
</g>
<text transform="matrix(1 0 0 1 82.7481 307.8333)"><tspan x="0" y="0" fill="#585858" font-family="'Verdana-Italic'" font-size="8">Sunrise Lakes</tspan><tspan x="0" y="9.6" fill="#585858" font-family="'Verdana-Italic'" font-size="8">(middle)</tspan></text>
<text transform="matrix(1 0 0 1 173.5089 247.86)" fill="#585858" font-family="'Verdana-Italic'" font-size="8">10151 ×</text>
<path fill="none" d="M133.3,329.1c-4.7-16.3-9.3-34.3-2.3-49.8c6.4-14.3,21.8-24,25-39.4"/>
<text transform="matrix(0.4872 -0.8733 0.8733 0.4872 133.7376 279.3702)"><tspan x="0" y="0" fill="#7D7D7D" font-family="'Verdana-Italic'" font-size="7">9</tspan><tspan x="4.2" y="0" fill="#7D7D7D" font-family="'Verdana-Italic'" font-size="7" rotate="4.9">6</tspan><tspan x="8.5" y="0.4" fill="#7D7D7D" font-family="'Verdana-Italic'" font-size="7" rotate="8.3">0</tspan><tspan x="12.8" y="1" fill="#7D7D7D" font-family="'Verdana-Italic'" font-size="7" rotate="10.2">0</tspan></text>
<text transform="matrix(0.8539 -0.5204 0.5204 0.8539 5.4325 40.231)" fill="#FFFFFF" font-family="'Verdana-Italic'" font-size="8">Tenaya      Lake</text>
<text transform="matrix(1 0 0 1 160.1997 73.6972)"><tspan x="0" y="0" fill="#585858" font-family="'Verdana-Italic'" font-size="8">Tenaya</tspan><tspan x="0" y="9.6" fill="#585858" font-family="'Verdana-Italic'" font-size="8">Peak</tspan></text>
<text transform="matrix(1 0 0 1 134.5664 172.3911)"><tspan x="0" y="0" fill="#7BBCEB" font-family="'Verdana-Italic'" font-size="8">Mildred</tspan><tspan x="10.6" y="9.6" fill="#7BBCEB" font-family="'Verdana-Italic'" font-size="8">Lake</tspan></text>
<path fill="none" d="M40.8,107.6c12.5,1.2,24.9-3.7,35.1-11S94.4,79.6,102.5,70c17.9-21.4,35.4-43.7,46.4-69.3"/>
<text transform="matrix(0.6179 -0.7862 0.7862 0.6179 116.4196 56.9402)"><tspan x="0" y="0" fill="#7D7D7D" font-family="'Verdana-Italic'" font-size="7">8</tspan><tspan x="4.5" y="0" fill="#7D7D7D" font-family="'Verdana-Italic'" font-size="7" rotate="-0.6">8</tspan><tspan x="8.9" y="0" fill="#7D7D7D" font-family="'Verdana-Italic'" font-size="7" rotate="-1.2">0</tspan><tspan x="13.4" y="-0.1" fill="#7D7D7D" font-family="'Verdana-Italic'" font-size="7" rotate="-1.9">0</tspan></text>
<path fill="none" d="M67,135.6c16.9-4.4,30.8-16.3,43-28.7c12-12.2,23.4-25.8,29.2-41.9"/>
<text transform="matrix(0.8403 -0.5422 0.5422 0.8403 86.2281 130.0164)"><tspan x="0" y="0" fill="#7D7D7D" font-family="'Verdana-Italic'" font-size="7">9</tspan><tspan x="4.6" y="0" fill="#7D7D7D" font-family="'Verdana-Italic'" font-size="7" rotate="-2.7">4</tspan><tspan x="9.1" y="-0.2" fill="#7D7D7D" font-family="'Verdana-Italic'" font-size="7" rotate="-5.1">0</tspan><tspan x="13.7" y="-0.6" fill="#7D7D7D" font-family="'Verdana-Italic'" font-size="7" rotate="-7.2">0</tspan></text>
<path fill="none" d="M19.9,306.8c0.1-6.5,0.2-13.1,1.7-19.5c1.5-6.4,4.6-12.6,9.8-16.5"/>
<text transform="matrix(0.102 -0.9948 0.9948 0.102 22.82 296.4998)"><tspan x="0" y="0" fill="#7D7D7D" font-family="'Verdana-Italic'" font-size="7">8</tspan><tspan x="4.3" y="0" fill="#7D7D7D" font-family="'Verdana-Italic'" font-size="7" rotate="4.4">6</tspan><tspan x="8.5" y="0.3" fill="#7D7D7D" font-family="'Verdana-Italic'" font-size="7" rotate="10.4">0</tspan><tspan x="12.5" y="1" fill="#7D7D7D" font-family="'Verdana-Italic'" font-size="7" rotate="17.6">0</tspan></text>
<path fill="none" d="M322.4,151.1c8.4,14.6,6.8,33.8,16.7,47.4"/>
<text transform="matrix(0.2344 0.9721 -0.9721 0.2344 325.5787 166.6062)"><tspan x="0" y="0" fill="#7D7D7D" font-family="'Verdana-Italic'" font-size="7">9</tspan><tspan x="4.4" y="0" fill="#7D7D7D" font-family="'Verdana-Italic'" font-size="7" rotate="0.8">8</tspan><tspan x="8.9" y="0.1" fill="#7D7D7D" font-family="'Verdana-Italic'" font-size="7" rotate="0.4">0</tspan><tspan x="13.4" y="0.1" fill="#7D7D7D" font-family="'Verdana-Italic'" font-size="7" rotate="-1.1">0</tspan></text>
<path fill="none" d="M301.5,3.8c3.1,1.4,5.2,12.5,7.8,18.8c1.9,4.6,3.9,9.3,4.2,14.3c0.2,3-0.2,6-0.2,9c0.1,10.3,6.6,21,16.6,23.5"
	/>
<text transform="matrix(0.3174 0.9483 -0.9483 0.3174 305.0455 18.0217)"><tspan x="0" y="0" fill="#7D7D7D" font-family="'Verdana-Italic'" font-size="7">1</tspan><tspan x="4.6" y="0" fill="#7D7D7D" font-family="'Verdana-Italic'" font-size="7" rotate="-4">0</tspan><tspan x="8.9" y="-0.4" fill="#7D7D7D" font-family="'Verdana-Italic'" font-size="7" rotate="-1.6">2</tspan><tspan x="13.1" y="-0.5" fill="#7D7D7D" font-family="'Verdana-Italic'" font-size="7" rotate="4.1">0</tspan><tspan x="17.2" y="-0.3" fill="#7D7D7D" font-family="'Verdana-Italic'" font-size="7" rotate="13.3">0</tspan></text>
<g>
	<g>
		<polyline fill="none" stroke="#7D7D7D" stroke-miterlimit="10" points="85.2,341.6 85.2,348.7 275.4,348.7 275.4,341.7 		"/>
		<line fill="none" stroke="#7D7D7D" stroke-miterlimit="10" x1="180.5" y1="341.4" x2="180.5" y2="348.7"/>
		<line fill="none" stroke="#7D7D7D" stroke-miterlimit="10" x1="161.2" y1="349.2" x2="161.2" y2="343.7"/>
		<line fill="none" stroke="#7D7D7D" stroke-miterlimit="10" x1="142.4" y1="349.2" x2="142.4" y2="343.7"/>
		<line fill="none" stroke="#7D7D7D" stroke-miterlimit="10" x1="123.3" y1="349.2" x2="123.3" y2="343.5"/>
		<line fill="none" stroke="#7D7D7D" stroke-miterlimit="10" x1="104.6" y1="349.2" x2="104.6" y2="343.7"/>
	</g>
	<text transform="matrix(1 0 0 1 83.7835 339.1469)" fill="#7D7D7D" font-family="'Verdana'" font-size="8">0</text>
	<text transform="matrix(1 0 0 1 174.2946 339.1469)" fill="#7D7D7D" font-family="'Verdana'" font-size="8">0.5</text>
	<text transform="matrix(1 0 0 1 258.3415 339.1469)" fill="#7D7D7D" font-family="'Verdana'" font-size="8">1 mi</text>
</g>
</svg>
