<?xml version="1.0" encoding="utf-8"?>
<!-- Generator: Adobe Illustrator 17.1.0, SVG Export Plug-In . SVG Version: 6.00 Build 0)  -->
<!DOCTYPE svg PUBLIC "-//W3C//DTD SVG 1.1//EN" "http://www.w3.org/Graphics/SVG/1.1/DTD/svg11.dtd">
<svg version="1.1" id="Layer_1" xmlns="http://www.w3.org/2000/svg" xmlns:xlink="http://www.w3.org/1999/xlink" x="0px" y="0px"
	 viewBox="0 0 360 360" enable-background="new 0 0 360 360" xml:space="preserve">
<path fill="none" stroke="#E1E1E1" stroke-miterlimit="10" d="M348.7,374.6c-0.7-0.3-1-1.1-0.9-1.9c0.1-0.7,0.5-1.4,0.9-2
	c1.7-2.9,2.9-6.1,3.5-9.4c0.1-0.8,0.3-1.6,0.7-2.3c0.6-0.9,1.6-1.4,2.6-1.9c2.4-1.2,4.8-2.7,6.9-4.5c1.1-0.9,2.1-1.8,2.7-3
	c0.6-1.2,0.7-2.6,0.9-3.9c1-5.8,5.1-10.9,10.4-13.3"/>
<path fill="none" stroke="#E1E1E1" stroke-miterlimit="10" d="M336.7,372.3c1.3-2.8,5.2-4,5.6-7c0.2-1.3-0.4-2.6-0.3-3.9
	c0.3-2.8,3.6-4.2,5.1-6.7c0.8-1.3,1.1-2.9,1.4-4.4c1-3.9,3.2-7.7,6.8-9.6c0.9-0.5,1.8-0.8,2.5-1.5c0.6-0.6,0.9-1.5,1.7-2
	c0.7-0.5,1.7-0.6,2.3-1.2c0.4-0.4,0.6-1,0.8-1.6c1.9-5.4,7.3-9.5,13.1-9.8"/>
<path fill="none" stroke="#E1E1E1" stroke-miterlimit="10" d="M318.3,370.2c0.8-1.8,3.1-2.5,4.4-4c1.6-1.9,1.4-4.7,1.3-7.1
	c-0.1-2.5,2.8-4.1,2.5-6.6c-0.2-1.8-2.1-3-1.1-4.5c0.9-1.5,2.6-2.4,4-3.5c1.9-1.5,3.6-3.5,5.9-4.3c0.9-0.3,1.9-0.3,2.9-0.6
	c3.3-0.9,5.5-4,8.6-5.2c0.8-0.3,1.6-0.5,2.3-0.9c0.8-0.5,1.4-1.3,2.1-2c1.1-1.2,2.5-2.1,3.9-3c7.6-5.1,15.5-9.7,23.6-13.7"/>
<path fill="none" stroke="#E1E1E1" stroke-miterlimit="10" d="M294.4,370.2c4.4-2.4,8.8-4.9,13.3-7.3c1.7-0.9,3.4-1.9,4.8-3.3
	c3.5-3.6,3.9-9.2,6.5-13.5c3.2-5.2,9.3-7.7,14.7-10.7c4.9-2.7,9.5-6.1,13.6-9.9c2.8-2.6,5.3-5.5,8.6-7.3c2.7-1.5,5.7-2.3,8-4.4
	c2.2-2.1,3.6-7.3,0.6-8c-2.5-0.6-5.2,0.9-7.7,1.3c-1.4,0.2-2.8,0.5-3.9,1.4c-0.8,0.7-1.3,1.6-2.1,2.3c-1.5,1.2-3.6,1.2-5.3,2.1
	c-2.6,1.4-3.4,4.7-5.6,6.7c-1,0.9-2.2,1.5-3.3,2.1c-1,0.5-2,1-3.1,1.5c-2.1,1-5,3.1-6.6,1.5c-1.3-1.3-2.9-1.8-4.6-1.3
	c-4.9,1.2-9.6,3.2-14,5.8c-3.9,2.3-7.5,5.2-11.8,6.7c-2.1,0.7-4.4,1-6.5,1.8c-1.8,0.6-3.4,1.6-5,2.5c-3.9,2.2-7.8,4.5-11.7,6.7
	c-3.1,1.8-6.3,3.6-9,6c-3,2.7-6.3,6.4-10.3,5.7c-2.1-0.4-4.2-2-6.2-1.1c-0.8,0.4-1.5,1.2-2.3,1.5c-2.3,0.9-4.4-1.8-6.9-2.3
	c-2.5-0.5-4.8,1.5-6.1,3.6c-1.4,2.1-2.4,4.6-4.4,6.1c-2.4,1.9-5.6,2-8.5,2.9c-2.9,0.9-5.9,3.2-5.5,6.2"/>
<path fill="none" stroke="#E1E1E1" stroke-miterlimit="10" d="M204,373.4c1-4.2,6-5.8,9.9-7.8c6.4-3.3,10.9-9.3,17.2-13
	c3.4-2,5.8-4.7,8.7-7.3c3.7-3.2,9.6-2.5,13.8-5.1c4.4-2.6,8.7-6.3,13.9-6.1c3.5,0.1,7.1,2,10.5,1c2.8-0.8,4.6-3.4,6.9-5.1
	c2.3-1.8,5.2-2.8,7.9-3.9c10-3.9,19.4-9.3,27.9-16c5.8-4.6,11.7-10,19-10.5c5.4-0.4,11.7,1.8,15.8-1.8c0.7-0.6,1.3-1.4,2.2-1.7
	c1.7-0.6,4.7,0.7,4.9-1.1c0.3-2.2-0.1-5.7,2.1-6c4.2-0.5,8.5,2.2,11.8-0.4"/>
<path fill="none" stroke="#E1E1E1" stroke-miterlimit="10" d="M190.5,372.7c-0.1,0.1-0.2,0.5-0.4,0.4c-2.8-1.8,4.3-4.2,7.4-5.5
	c8.7-3.6,16.2-9.4,23.7-15.2c3.8-3,7.6-5.9,11.5-8.9c6.5-5.1,12.7-10.8,20.3-14.2c3.9-1.7,9.7-7.3,19.4-6.2c3.5,0.4,0.1,8.3,3.4,7
	c1.3-0.5,4.7-2.5,5.7-3.6c2.8-3.1,5.7-6.2,8.5-9.4c1.2-1.3,2.4-2.7,4-3.4c2-1,4.3-0.9,6.6-1.1c8.4-0.9,16.2-6.4,19.7-14
	c0.6-1.4,1.2-2.8,2.3-3.8c0.7-0.6,1.6-1,2.4-1.5c1.3-0.8,2.4-1.8,3.7-2.5c4-2.1,10.1-1.2,12.1-5.2c0.4-0.8,0.6-1.9,1.4-2.4
	c1.2-0.9,2.9-0.1,4.2,0.5c5.5,2.3,12.1-0.3,15.9-4.8c3.8-4.6,5.1-10.7,5.4-16.6c0-1,0.1-2.1,0.5-3c1.5-2.8,6.5-2.8,7.2-5.9"/>
<path fill="none" stroke="#E1E1E1" stroke-miterlimit="10" d="M373.3,212.3c0.2,1.9-2.5,2.7-4.3,2c-1.8-0.7-3.4-2.2-5.3-2.2
	c-1.1,0-2.1,0.5-3,1.1c-3.9,2.7-5.2,7.7-5.7,12.4s-0.8,9.4-2.5,13.8c-3.7,9.7-9.9,5.2-12.2,8c-9.3,11.7-16.8,23.4-27.8,34.4
	c-1.2,1.2-2.3,2.3-3.2,3.7c-0.9,1.5-1.4,3.2-1.9,5c-1.3,4.7,0.1,11.4-3.9,14.1c-0.9,0.6-2.6,0.4-3.4-0.4c-2.6-2.8,4.8-7.8,2.8-11.1
	c-2-3.3-6.8,3.1-9.5,5.9c-4.2,4.3-7.1,10.3-12.5,13c-6,3-11.3,8.2-18,7.9c-1.8-0.1-3.7-0.7-5.4-0.1c-1.7,0.7-2.7,2.4-3.9,3.8
	c-2,2.1-4.8,3.1-7.4,4.3c-8.3,3.5-15.9,8.4-22.6,14.4c-4.9,4.4-9.4,9.5-15.5,12.1c-6,2.6-10.9,6-16.5,9.4c-2.3,1.4-5.3-0.4-7.9-0.6
	c-0.4,0-0.8-0.1-1.1-0.1c-5.7-0.4-13.3-5.4-17.2-1.2c-1.4,1.4-1.8,3.5-1.8,5.5c0,3,3.8,4.6,5,7.3"/>
<path fill="none" stroke="#E1E1E1" stroke-miterlimit="10" d="M114.8,375.6c-0.8-2.4,0.6-5,2.7-6.5s4.6-2,7-2.5c6-1.2,12-2.4,18-3.6
	c3.3-0.7,6.8-1.4,9.5-3.4s0.2-7.2,3.1-8.9c3.5-2.1,7.5,2.8,11.3,1.4c3.8-1.4,7.6-3.6,11.6-3.2c4.8,0.5,9.4,4.6,14,3.1
	c1.8-0.6,3.2-1.9,4.9-2.6c4.2-1.8,9.5,0.2,13.3-2.2c3.6-2.3,4.2-7.5,7.5-10.2c1.2-1,2.6-1.6,3.9-2.3c6.6-3.9,10.8-12.5,18.5-13
	c1.9-0.1,3.9,0.3,5.8-0.1c2.9-0.6,5.1-3,7.5-4.8c5-3.8,12.1-1.1,17.8-3.8c7.5-3.5,7.4-14.7,11.2-22c3.1-6.1,7.5-13.3,14.2-13
	c2.2,0.1,2.6,4.9,4.6,3.9c0.7-0.3,0.9-1.1,1-1.8c1.5-5.8,7.3-8.6,12-12.4c1.9-1.5-1.8-4.2-2.3-6.6c-0.4-2.2,1.5-4.1,3-5.8
	c4.4-4.8,4.3-11.9,6.7-18c2.6-6.9,7-12.4,10.2-19c3.6-7.4,7.5-14.6,11.8-21.6c0.2-0.4,0.5-0.8,0.9-1.1c1.1-0.7,2.5,0,3.4,1
	c0.8,1,1.4,2.2,2.4,3c1.7,1.4,3.5-0.7,5.6-1.3c1.4-0.4,2.3,2.2,3.7,2.3c3.2,0.2,3.8-6.3,7-6.2c0.8,0,1.6,0.4,2.4,0.6
	c2.1,0.5,4.6-0.5,5.7-2.4"/>
<path fill="none" stroke="#E1E1E1" stroke-miterlimit="10" d="M304.2,259.6c-1-0.9-2.7,0.1-3.8,0.8c-1.1,0.7-2.4,2.6-1.4,3.4
	c0.8,0.6,2,0.4,2.9,0.2C303.6,263.7,305.5,260.8,304.2,259.6z"/>
<path fill="none" stroke="#E1E1E1" stroke-miterlimit="10" d="M97.5,372.6c3.5-5.8,8.4-10.8,14.2-14.5c0.9-0.6,1.8-1.1,2.9-1.4
	c1.1-0.3,2.3-0.3,3.4-0.7c2.8-0.9,4.6-4,7.5-4.7c1-0.2,2.1-0.1,3-0.4c2.9-0.9,3.8-4.9,6.6-6.1c0.9-0.4,1.9-0.4,2.8-0.8
	c2.8-1.3,0.7-5.5,2-8.2c1.6-3.6,7.9,2.5,11.5,0.8c0.8-0.4,1.5-1.1,2.2-1.6c1.1-0.6,2.4-0.7,3.6-0.9c4.8-0.8,9.4-2.9,13.1-6.1
	c1.5-1.3,2.9-2.8,4.7-3.7c1.8-0.9,4.2-0.9,5.6,0.6c1.4,1.6,1,4,0.2,6s-2.1,3.8-2.2,5.9c0,0.5,0,1,0.3,1.3c0.3,0.4,0.9,0.6,1.4,0.7
	c4.1,0.9,8.5-4.6,12.1-2.3c1.4,0.9,1.1,3.1,2.7,3.6c1.5,0.5,3.2,0.5,4.8,0.7c3.4,0.5,7.5,2.3,9.7-0.4c2.4-2.9-1.3-9,2-10.6
	c5.5-2.7,11.1-4.8,15.2-9.4c2.3-2.6,5-4.4,8.3-3.2c0.6,0.2,1.2,0.5,1.9,0.5c2.3-0.1,2.7-3.9,5-4.3c0.8-0.2,1.7,0.2,2.5,0.3
	c2.1,0.2,4-1.3,5.5-2.7c4.8-4.3,9.4-8.9,13.8-13.5c0.5-0.5,1.2-1.2,1.9-0.9c0.6,0.2,0.9,0.8,1.3,1.2c1.3,1.2,3.5,0.4,4.4-1.1
	c0.8-1.5,0.6-3.4,0.2-5.1s-1.1-3.3-1-5.1c0.2-5.4,3.9-10.7,8.6-13.3c3.3-1.8,8,1.3,10.9-1.1c1.1-1,1.9-2.3,2.6-3.6
	c2.8-5,1.5-12.4,6.1-15.9c3.5-2.7,9-2,10.5-6.1c0.6-1.6,0.8-3.5,2.1-4.7c0.8-0.7,1.9-1,2.8-1.6c2.6-1.7,2.9-5.5,2.5-8.6
	c-0.4-3.1-1.2-6.5,0.3-9.3c0.5-1,1.3-1.8,1.8-2.9c1-2.4,0.2-5.3,1.4-7.6c0.5-0.9,1.3-1.7,1.9-2.5c3.1-4.2,3.9-9.6,7.6-13.3
	c5.4-5.3,10.5-12,12.1-19.4c0.2-0.9,0.3-1.9,0.8-2.6c1.4-2,4.5-1.5,6.6-2.8c1.5-1,2.6-3,4.4-2.7c2.5,0.4,2.1,4.3,3.9,6
	c0.9,0.8,2.3,1.1,2.7,2.2c0.4,0.9-0.1,2,0.1,3c0.3,1.5,2.1,2.3,3.6,1.9s2.5-1.7,3.2-3c0.6-1.1,1.1-2.5,2.4-2.7
	c0.6-0.1,1.2,0.1,1.7,0.2c2.1,0.6,4.1,1.3,6.2,1.9"/>
<path fill="none" stroke="#E1E1E1" stroke-miterlimit="10" d="M81.7,374.9c1.7-7.4,7.7-13.6,15-15.7c2.6-0.7,5.6-1.2,6.9-3.5
	c0.5-0.9,0.7-2,1.4-2.9c0.7-1,1.9-1.5,3-2c9.8-4.9,15.1-15.4,19.9-25.2c1.1-2.2,2.5-4.6,4.8-5.4c2.4-0.7,3.2,1.7,4.2,3.9
	c2.3,5,12.6,7.7,16.1,3.5c1.2-1.4,0.2-3.7,1.6-4.9c1.4-1.2,3.2-1.8,4.8-2.7c9.4-4.9,12.3-22.6,22.9-21.8c2,0.1,0.4,3.5,1.1,5.3
	c1.1,2.8,6.9,0.3,8.7,2.8c2.8,4.1-3,12.7,1.5,14.7c5.7,2.5,13.4-0.5,17.7-5.1c1.5-1.7,4.2-5.8,5.2-3.7c0.8,1.7,1.5,5,2.8,3.7
	c1.2-1.3,2.4-2.7,4.2-2.5c1.8,0.2,3.6,0.9,5.4,0.5c3.7-0.9,4.9-6.1,8.4-7.4c1.8-0.7,4-0.3,5.5-1.5c1.3-1,1.6-2.9,2.2-4.4
	c2-4.7,7.7-6.7,10.8-10.8c4.3-5.6,0.5-17.3,7.1-19.9c1.1-0.4,1.9,1.3,2.9,1.9c3.3,1.9,4.7-5.6,8-7.6c1.4-0.8,3.1-0.9,4.5-1.6
	c1.7-0.8,2.8-2.4,3.8-4c3.1-4.9,5.7-10.2,7.5-15.8c2-5.9,4.9-16.6,11-15.6c3.3,0.5,2.3,6.2,3.5,9.4c0.1,0.3,0.3,0.7,0.7,0.9
	c0.2,0.1,0.4,0,0.6,0c2.3-0.5,3.9-2.7,4.6-4.9c0.7-2.3,0.5-4.7,0.6-7c0.1-7.1,1.6-14.1,3.6-20.9c1.2-4,2.6-8,4.5-11.6
	c1.9-3.4,4.2-6.6,6.4-9.9c5.2-8,1.3-25.8,10.9-26.3c1.5-0.1,2.3,2.1,3.8,1.7c1.5-0.3,2.7-1.4,3.9-2.4c2.8-2.4,5.5-4.7,8.3-7.1
	c1.5-1.3,3.6-2.7,5.3-1.7c0.6,0.4,1.1,1,1.4,1.7c2.5,4.6,2.5,10.4,5.8,14.4c0.8,0.9,1.9,1.8,3.1,1.7c0.6-0.1,1.1-0.4,1.7-0.7
	c2.9-1.8,5.7-3.5,8.6-5.3"/>
<path fill="none" stroke="#E1E1E1" stroke-miterlimit="10" d="M73.2,375.4c-0.5,0.3-1-0.5-1.1-1c-0.7-5.1-0.1-11.4,4.4-14
	c2.8-1.6,6.2-1.3,9.4-1.9c6.3-1.1,8.1-8,12.3-12.8c2.6-2.9,7.4-2.7,9.9-5.6c2.7-3.1,4.2-7,5.6-10.8c1.4-3.7,0.1-8.2,2.4-11.4
	c2.3-3.3,5.5-5.6,6.4-9.5c1.3-5.8,2.7-11.7,4-17.5c0.3-1.4,0.7-2.9,1.9-3.8c1.3-1,3.1-0.9,4.7-0.9c7.7-0.4,13.9-6.5,18.5-12.7
	s8.2-18.1,15.8-16.7c2,0.4,0.3,4.3-1.2,5.7s-3.2,3.1-2.5,5c0.3,0.8,1.1,1.2,1.7,0.6c1.2-1.4,3.3-4,3.8-2.2c1.3,4.9-5,8.8-7.5,13.1
	c-0.4,0.8-0.9,1.5-1.3,2.3c-2.3,4.1-4.6,8.2-6.9,12.2c-1.9,3.3-4.5,8.8-1.2,10.5c3.9,2,7.5,1.6,12-4.3c2.6-3.4,5.9-6.3,8.5-9.8
	c1.3-1.8,2.7-3.7,3.3-5.9c0.5-1.9,0.5-3.9,1.3-5.7c2.1-4.7,9.4-6.3,9.9-11.4c0.4-3.4-2.6-6.4-3-9.8c-0.3-3.1,1.6-5.9,3.4-8.4
	c2.5-3.5,3.3-11.4,7.4-10.4c3.1,0.7,3.5,4.1,6,6c2.5,1.9-3.2,5.4-3.9,8.5c-0.6,2.8,1.2,5.5,1.3,8.3c0.1,3.1-1.8,5.9-3.2,8.7
	c-1.5,2.8-3.8,8-0.8,8.9c1.5,0.4,2.8-2.4,4.2-1.8c1.1,0.4,0.6,2.4,1.5,3.2c1.7,1.5,3.3-2.5,5.6-2.7c4.6-0.5-3.2,12.7,1.4,13.5
	c1.1,0.2,0.2,1.3-0.3,2.3c-2.3,4.3-7,8-6.8,12.8c0.1,2.1,3.9,1.7,5.7,0.5c1.8-1.2,2.8-3.1,4.2-4.8c2.2-2.7,5.4-4.6,8.8-5.4
	c1.7-0.4,3.4-0.5,5-1.3c4-1.9,5.4-6.8,6.2-11.2c1-5.1,2-10.5,0.6-15.5c-0.8-2.8-2.3-5.3-3.2-8c-0.9-2.7-1.3-5.9,0.2-8.4
	c0.4-0.7,1.2-1.5,2-1.4c1.1,0.1,1.7,1.2,2.1,2.2c1,2.3,2,4.7,3,7c1.2,2.8,3.5,6.1,6.4,5c1.8-0.7,2.5-2.8,3.4-4.5s4.1-4.1,4.6-2.2
	c0.6,2-1.7,3.8-1.7,5.8c0,2,1.1,6,2.8,5c3.3-2,0.8-10.1,4.6-10.4c1.5-0.1,2.1,3.2,3.6,2.9c7.1-1.7,13.2-5.5,18.6-10.3
	c1.8-1.5,2.9-3.6,4.1-5.7c6-10.9,12.1-21.7,18.1-32.6c0.7-1.3,1.5-2.6,2.8-3.3c1.3-0.7,2.7,2.2,3.7,1.1c2.6-2.7,2.7-17.6,10.4-27.7
	c1.8-2.3,1.3-15.2,0.7-19.2c-1.4-8.7-2.8-19.5-0.8-24.1c0.3-0.6,1.4,0.6,1.9,0.2c4.5-3-1.5-10.5-4.4-15c-0.4-0.6-0.7-1.2-1.4-1.5
	c-1.2-0.7-2.9,0.3-3.5,1.5c-0.6,1.3,0.9,3.4-0.3,4.2c-2.1,1.3-5.2,0.2-7.1-1.4c-4.8-3.9-5.3-11.4-5.7-17.6
	c-0.3-5.1,2.4-10.8-0.6-14.9c-0.8-1.1-1.9-1.9-2.8-2.9c-2.7-3.4-1.1-9.3,3-10.8c1-0.4,2.1-0.6,2.7-1.4c0.4-0.6,0.6-1.3,0.8-2
	c1.7-4.1,8-3.5,11.2-6.7c1.3-1.2,2-3.1,3.6-3.8c1.2-0.6,2.7-0.5,3.7-1.4c2.1-1.8,0.9-6.5,3.5-6.9c2-0.3,3.8,2.7,5.6,1.7
	c0.4-0.2,0.7-0.7,1-1.1c2.5-3.5,7.9-9.9,10.7-6.6c2.2,2.6-2.3,6.4-3.4,9.6c-1.5,4.2-0.6,8.4-0.7,12.8c0,5.1-4,9.5-3.8,14.5
	c0,0.7,0.1,1.5,0.6,2.1c0.5,0.6,1.3,0.8,2,0.9c2.3,0.5,5.1,0.2,7,1.6c7,5,6.8,16.1,6.4,24.7c-0.1,1.5-0.2,3.1,0.5,4.5
	c0.3,0.6,0.7,1.1,0.9,1.7c0.3,0.8,0.1,1.6,0,2.4c-0.7,3.8-3.8,7.9-2,11.3c1.1,2.1,4.8-0.4,6.2-2.3c1.4-1.9,2.1-4.3,3.5-6.3
	c0.3-0.5,0.7-1,1.3-1.2c1-0.4,2.2,0.2,2.9,1.1c0.7,0.9,1,2,1.6,2.9c1.6,2.5,5.3,0.5,7.9,2c2.3,1.3-2.6,5-1.8,7.4
	c0.2,0.7,1.8,0.2,2.1,1c0.6,1.3-0.9,2.8-0.7,4.2c0.2,1.4,1.2,2.9,2.6,3c2.4,0.3,3.8-2.9,6.2-3.7"/>
<path fill="none" stroke="#E1E1E1" stroke-miterlimit="10" d="M376.2,29.5c-4.3,3.2-8,7.3-10.1,12.2c-0.8,2-1.5,4.1-2.9,5.7
	c-1.4,1.6-3.6,0.8-5.7,1c-4.2,0.4-5.5,6.4-8.2,9.6c-0.8,1-1.7,2-2.1,3.1c-1.1,2.9,0.4,6,0.4,9.1c0,2.6-4.1,4.8-2.7,7
	c1.7,2.8,6.3-1.9,9.4-2.8c0.5-0.1,1-0.3,1.5-0.1c1,0.3,1.2,1.6,0.9,2.6c-0.4,0.9-1.2,1.6-1.8,2.4c-2.8,3.5-2.2,8.6-1.4,13.1
	c0.5,3.1,1.1,6.2,1.6,9.3c0.1,0.4,0.2,0.9,0.6,1.2c1.3,1,3.3-2.7,4.3-1.4c1.1,1.4,0.8,3.9,2.2,5c0.8,0.6,2.2-0.3,3.1,0.3
	c1.4,1,0.9,3.4,0.4,5.1c-0.3,1.1-0.9,2-1.3,3.1c-0.9,2.8-0.7,6.3,1.1,8.7c2.1,3,7.2,2.4,10.2,0.4"/>
<path fill="none" stroke="#E1E1E1" stroke-miterlimit="10" d="M293.7,187.9c-0.7,1.4-2,2.5-2.3,4c-0.3,1.4,0.2,2.9,0,4.4
	c-0.3,1.5-1.4,2.6-2.1,3.9c-1.2,2.1-1.5,4.9-0.6,7.2c0.5,1.3,1.4,2.6,2.6,3.2c1.3,0.6,3.1,0.6,3.9-0.6c1.2-1.8,2.2-3.8,3.5-5.5
	c0.8-1,1.7-2,2.3-3.1c1.9-3.2,1.7-7.1,1.4-10.8c-0.1-1-0.7-2.6-0.7-3.6c0-3.3-0.2-6.5-0.1-10.6c0-1.3-0.2-3-1.5-3.3
	c-1-0.2-1.9,0.7-2.5,1.6c-1.5,2.2-2.4,4.8-2.8,7.4C294.5,184.1,294.6,186.2,293.7,187.9z"/>
<path fill="none" stroke="#E1E1E1" stroke-miterlimit="10" d="M231.7,203.9c2.2,0.8-0.4,4.6-0.6,6.9c-0.2,2.3,0.6,5.1,2.8,5.8
	c4.9,1.7,8.4-8,13.3-6.1c1.9,0.7,2.7,3.1,2.6,5.1c-0.1,2.1-0.8,4.1-0.8,6.1c0,1.6,0.3,3.1,0.2,4.6c-0.5,3.8-5.2,7.8-2.9,10.8
	c1,1.3,3.4,2,4.6,1c0.9-0.8-0.5-2.8,0.4-3.7c2-2.3,4.4-3.8,4.8-6.8c0.8-5.7,1.6-11.4,2.4-17.1c0.4-3,0.9-6.1,0.3-9.1
	c-0.4-1.9-1.2-3.8-2-5.6c-1.7-3.9-3.4-7.7-5.6-11.3c-1-1.7-1.2-4.2-3-5c-2.2-1-4.1,2.7-6,4.2c-1.9,1.6-5.4,4.1-6.7,2
	c-1.5-2.3,0.7-5.5,1-8.2c0.2-1.8,0.4-3.6-0.1-5.3c-0.5-1.7-3.2-4.7-3.8-3.1c-1.3,3.5-1,11.7-5.4,11.3c-1.5-0.2,0-2.1-1-3.3
	c-0.4-0.5-3,1.2-3.3,1.8c-1.8,3.5-3.5,5.2-4,10c-0.4,3.8-0.5,6.3,1.5,9.5c0.3,0.4-0.3,5,0.2,4.9c2.8-0.9,5.7-5.9,8.6-5.7
	c2.5,0.2-2.8,6.9-1.3,8.8C228.9,208,230,203.3,231.7,203.9z"/>
<path fill="none" stroke="#E1E1E1" stroke-miterlimit="10" d="M281.7,129.6c0.3-0.2,0.4-0.5,0.4-0.8c0.2-0.9,0.4-1.9,0.5-2.8
	c0.1-0.5,0.1-1.1-0.2-1.6c-0.5-0.8-1.5-0.9-2.4-0.9c-1,0-2.2,0.1-2.8,0.9c-0.3,0.3-0.4,0.8-0.5,1.2c-0.4,1.5-1.9,3.7-0.7,4.7
	c1.3,1.2,3.4-0.4,5.1-0.6C281.3,129.8,281.5,129.7,281.7,129.6z"/>
<path fill="none" stroke="#E1E1E1" stroke-miterlimit="10" d="M264.5,122.7c-0.1,1.1-0.1,2.3,0.4,3.3c0.5,1,1.8,1.7,2.8,1.3
	c0.7-0.3,1.1-0.9,1.5-1.6c2.7-4.3,5.5-8.8,6.1-13.9c0.1-0.6,0.1-1.3-0.2-1.8c-0.7-1-2.3-0.7-3.1,0.1s-1.3,2-2,2.9
	c-0.6,0.8-1.4,1.3-2.1,2C265.9,117.1,264.8,119.9,264.5,122.7z"/>
<path fill="none" stroke="#E1E1E1" stroke-miterlimit="10" d="M184.6,220.8c0.6,0.8,0.7,1.8,1,2.7c0.3,0.9,0.8,2.5,1.7,2.2
	c2.6-1,0.5-5.5,1.2-8.2c0.1-0.4,0.2-0.8,0.5-1c0.4-0.4,0.9-0.5,1.4-0.7c2.7-1,4.1-4,5.1-6.7c0.3-0.7,0.6-1.5,0.4-2.3
	c-0.1-0.4-0.3-0.7-0.4-1c-0.6-1.1-1.1-2.2-1.7-3.3c-0.5-1-1.2-2.1-2.3-2.3c-1.4-0.2-2.5,1.2-3.1,2.5c-2.4,4.9-4,10.3-4.7,15.7
	c-0.1,0.5-0.1,0.9,0.1,1.3C184,220.2,184.3,220.5,184.6,220.8z"/>
<path fill="none" stroke="#E1E1E1" stroke-miterlimit="10" d="M209,206.5c0.2,0.9,1.2,2.1,1.9,1.6c0.7-0.4,0.4-1.6,0.1-2.3
	c-0.3-0.7-1.4-1.1-1.9-0.5C208.9,205.7,208.9,206.1,209,206.5z"/>
<path fill="none" stroke="#E1E1E1" stroke-miterlimit="10" d="M216.4,203.9c0.2,0.4,0.3,0.8,0.4,1.2c0.2,0.4,0.6,0.5,1,0.6
	c0.4,0.1,0.4,0.9,0.2,1.3c-0.2,0.4-0.5,0.8-0.7,1.2c-0.6,1.3,0.6,3.3-0.4,4.2c-0.2,0.2-0.5,0.4-0.4,0.6c0,0.1,0.1,0.2,0.2,0.2
	c0.9,0.7,1.2,1.9,1.2,3s-0.4,2.2-0.7,3.3c-0.2,0.5-0.4,1.1-0.8,1.5c-0.4,0.4-1.2,0.7-1.6,0.3c-1.1-1.4-1.2-3.4-1.8-5
	c-0.5-1.5-1-3.1-0.3-4.5c0.4-0.8,1-1.3,1.5-2c0.5-0.7,1-1.8,0.3-2.3c-0.1-0.1-0.3,0-0.4-0.1c-0.3-0.2-0.4-0.6-0.5-1
	c-0.3-0.8-0.2-1.9,0.4-2.5C214.7,203.2,215.9,203.2,216.4,203.9z"/>
<path fill="none" stroke="#E1E1E1" stroke-miterlimit="10" d="M363.7-10.9c-1.8,1.1-2.7,3.4-2.7,5.5s0.7,4.2,1.3,6.2
	c2.1,6.4,3.9,13.7,0.6,19.5c-0.2,0.4-0.5,0.7-0.9,0.7c-0.3-0.1-0.4-0.3-0.6-0.5c-2.4-4.1,1.3-12.6-3.3-13.8
	c-7.7-1.9-6.5,14.4-9.8,21.6c-0.7,1.6-1.6,3.4-3.2,4c-0.8,0.3-1.7,0.4-2.4,0.7c-1.5,0.8-2.1,2.6-3,4s-3,2.6-4.2,1.4
	c-0.5-0.5-0.8-1.2-1.4-1.2c-0.3,0-0.6,0.3-0.9,0.5c-2.8,2.7-4.6,9-8.5,8.2c-1.3-0.3-0.2-3.3-1.5-3.5c-3.4-0.7-5.8,3.8-8.7,5.7
	c-5,3.2-8,8.8-12.8,12.4c-0.8,0.6-1.6-1.1-1.2-2c0.4-0.9,1.2-1.7,1.3-2.7c0.1-2.4-4.4-3.1-4.3-5.5c0-0.8,0.6-1.5,0.8-2.3
	c0.5-1.6-0.5-3.2-1.4-4.5c-1-1.6-2.7-2.8-3.1-4.7c-0.7-3.3-2.6-6.6-6-6.9c-3.4-0.3-6.7,1.7-8.8,4.4c-0.9,1.2-1.7,2.5-2,4
	c-0.5,2.5,0.4,5.1,1.3,7.5c1.9,5.4,3.6,11.4,1.8,16.8c-0.6,1.9-1.7,3.7-3.1,5.2c-0.9,1-1.9,1.8-2.7,2.9c-0.8,1.2-1.2,2.5-1.7,3.9
	c-1.1,3.3-2.1,6.7-2.3,10.2c-0.2,3.1,0.4,6.3-0.2,9.3c-0.8,4.4-3.8,8.2-7.9,10c-3.5,1.5-7.4,7.1-10.4,4.8c-0.8-0.7-0.9-2-1.9-2.2
	c-1-0.2-2.1,0-3.2,0.3c-11,2.9-20.6,16.3-31.5,12.9c-1.9-0.6-1.1-4-2.6-5.3c-0.9-0.7-2.4,0.7-3.4,0.1c-4.2-2.5-0.9-9.7-0.9-14.6
	c0-1.8,0.1-3.7,0.6-5.5c0.5-1.6,1.4-3.1,2.2-4.6c3.7-7.3,7.6-16,5.3-23.8c-0.6-1.9-3.8-0.1-4.8,1.6c-1,1.8-1.8,5.3-3.6,4.6
	c-1.4-0.6-2.7-1.6-4.2-1.1c-1.5,0.5-3.1,4.1-3.7,2.7c-0.9-2.1,5-17.8,7.1-24.4c1.9-6.1,12.3-10,16-15.2c1.5-2.2,3-2.8,4.8-4.8
	c2.1-2.2,3-9.7,4.8-7.2c2.2,3-3.8,7.9-1.5,10.8c1.4,1.8,3.1,2.1,5.1,3s6.3-2.3,6.5-2.9c1.7-4,9.1-1.7,11.4-5.5
	c0.5-0.9,0.7-2,1.5-2.6c0.6-0.4,1.4-0.4,2.1-0.5c3.1-0.5,5.3-3.1,7.3-5.5c3.3-4.1,6.7-8.2,9-12.9c2.9-5.9,4.1-12.4,5.8-18.7
	c0.5-2,1.6-4.3,3.6-4.3"/>
<path fill="none" stroke="#E1E1E1" stroke-miterlimit="10" d="M299.9-12.9c-1.4,1.8-2.8,3.5-4.2,5.3c-1,1.2-2,2.6-2,4.1
	s1.7,1.7,3,2.4c1.9,1.1-1,5.3,0.9,6.6c1.5,1.1,3.3-2.2,5.1-2c1.9,0.2,2.7,2.4,3.2,4.2c1.3,4.8,2.6,9.6,3.9,14.3
	c0.6,2.1,2.4,3.1,3.8,4.7c1.2,1.4-1.6,4-0.5,5.4c1.1,1.4,4-2.4,5.2-1.1c0.3,0.3,0.3,0.7,0.8,0.7c2.1-0.1,4.2-1,5.8-2.4
	c0.2-0.2,0.4-0.5,0.6-0.7c0.3-0.5,0.5-0.6,1-0.4c0.8,0.3-0.5,1.9,0,2.7c1.4,1.8,4.3-1.5,5.3-3.5c0.4-0.8,0.7-1.8,1.4-2.4
	c1.4-1.2,3.5-0.6,5.3-0.8c3.8-0.3,6.3-4.1,7.8-7.6c0.9-1.9,1.7-3.9,2-5.9c0.6-3.9-0.7-7.9-1.9-11.6c-0.9-2.9-1.9-5.8-2.8-8.7
	c-0.7-2.1-1.4-4.4-3.2-5.8"/>
<path fill="none" stroke="#E1E1E1" stroke-miterlimit="10" d="M244.3,95.6c1.1-0.4,2.4,0.2,3.6-0.1c1.4-0.5,1.9-2.2,3.1-3.2
	c1.2-0.9,3-1,3.9-2.1c0.6-0.8,0.7-1.8,0.8-2.8c0.1-2.3,0.3-4.6,0.4-7c0.1-2.3,0.1-5.1-1.8-6.4c-0.3-0.2-0.6-0.3-0.8-0.6
	c-0.7-0.7-0.5-1.9-0.1-2.7c0.4-0.9,1-1.7,1-2.7c0-0.8-0.4-1.6-0.6-2.4c-0.3-1.6,0.4-3.2,0.6-4.8s-0.7-3.7-2.4-3.6
	c-0.6,0-1.2,0.4-1.7,0.8c-1.2,0.8-2.2,3.1-3.5,2.5c-1-0.5-1.6-1.6-2.7-1.2s-2.1,1.2-3.2,1.2c-0.4,0-0.9-0.2-1.3-0.1
	c-0.5,0.1-0.9,0.5-1.3,0.9c-1.8,1.9-3.6,3.9-5.4,5.8c-1.4,1.5-2.7,2.9-3.7,4.7c-0.8,1.4-1.4,2.9-2,4.5c-0.9,2.5-1.9,5-2.8,7.5
	c-0.5,1.3-1,2.7-0.9,4.1c0.1,1.4,1,2.9,2.4,3.1c1.7,0.3,3.7-1.2,5.1-0.2c0.7,0.5,0.9,1.3,1.5,1.8c1.1,1.1,3,0.7,4.4,1.4
	c1.7,0.9,2.8,3.3,4.6,3C242.6,97,243.3,96,244.3,95.6z"/>
<path fill="none" stroke="#E1E1E1" stroke-miterlimit="10" d="M206.5,84.4c0-0.3,0.1-0.6-0.1-0.9c-0.2-0.3-0.6-0.3-0.9-0.3
	c-1.2,0-2.4,0.5-3.5,1.1c-0.5,0.3-1.1,0.6-1.4,1.1c-0.4,0.7-0.1,1.6,0.2,2.4c0.3,0.7,0.5,1.4,1,1.9c0.5,0.6,1.6,1.5,1.9,0.8
	c0.3-0.6,0.4-1,1-1.4C206,88.1,206.3,86.1,206.5,84.4z"/>
<path fill="none" stroke="#E1E1E1" stroke-miterlimit="10" d="M161.4,188c2.5,0.2,2.1-4.7,1.4-7.1c-0.1-0.2-0.1-0.4-0.3-0.6
	c-0.4-0.4-1.2-0.1-1.7,0.3c-1.5,1.4-1.8,3.9-0.7,5.7C160.6,186.9,160.7,188,161.4,188z"/>
<path fill="none" stroke="#E1E1E1" stroke-miterlimit="10" d="M101,288.2c0.3,0.2,0.6,0.4,0.9,0.5c0.3,0.1,0.6,0.1,0.8,0.3
	c0.2,0.2,0.3,0.4,0.4,0.6c0.5,0.8,1.7,0.7,2.6,0.7c1.3-0.1,3.2,1.3,4,0.2c0.8-1.1,0.6-2.3,1.8-2.9c0.6-0.3,0.8-1,1-1.5
	c0.9-2.2,0.3-4.8-0.2-7.1c-0.3-1.1-2.1-0.9-3.2-0.5c-1.1,0.4-2,1.1-3.1,1.5c-1.2,0.5-2.6,0.6-3.7,1.2c-1.4,0.8-2.3,2.2-3.1,3.6
	c-0.2,0.3-0.4,0.6-0.4,1c0,0.7,0.6,1.2,1.2,1.6C100.4,287.8,100.7,288,101,288.2z"/>
<path fill="none" stroke="#E1E1E1" stroke-miterlimit="10" d="M87.2,295.9c-0.7-0.5-1.5-0.7-2.3-0.4c-0.6,0.2-1,0.7-1.5,1.1
	c-1.7,1.3-4.1,0.9-6.1,1.5c-0.6,0.2-1.3,0.5-1.6,1.1c-0.4,0.9,0,1.9,0.5,2.8c0.6,1.2,1.2,2.4,1.9,3.6c0.2,0.3,0.4,0.7,0.6,1
	c0.4,0.5,1,0.8,1.6,1.1c1.8,0.9,3.7,1.8,5.7,1.9c1,0,2-0.2,2.7-0.9c0.8-0.8,1-2.1,0.9-3.3c-0.1-1.2-0.5-2.3-0.6-3.5
	c-0.1-1.2,0.2-2.4-0.1-3.6C88.5,297.3,88,296.5,87.2,295.9z"/>
<path fill="none" stroke="#E1E1E1" stroke-miterlimit="10" d="M-7,354.5c2.4-2.3,4.9-4.6,7.9-6c1.3-0.6,2.6-1,3.8-1.8
	s2.2-1.9,2.3-3.3c0-0.9-0.3-1.8-0.4-2.6c-0.1-1.5,0.5-2.9,1.1-4.3c1.6-3.6,3.1-7.3,4.7-10.9c0.3-0.8,0.7-1.6,0.7-2.4
	c0-0.9-0.5-1.8-0.7-2.7c-0.6-2.4,0.2-5-0.8-7.2c-0.2-0.4-0.5-0.8-0.9-1c-1-0.3-1.8,0.8-1.9,1.8c0,1,0.4,2,0.3,3
	c-0.1,1.5-1.4,2.8-2.8,3.5s-2.9,1.1-4.3,1.7c-3,1.5-5,4.6-6.4,7.7s-2.5,6.4-4.4,9.2"/>
<path fill="none" stroke="#E1E1E1" stroke-miterlimit="10" d="M-8.2,365.1c2.4,0.2,3.9-2.6,6-3.8c1-0.6,2.1-0.8,3.2-1.2
	c4.3-1.4,7.8-4.6,11.1-7.7c0.8-0.7,1.5-1.5,2-2.4c0.8-1.7,0.5-3.7,0.3-5.5c-0.3-5.4,1.6-10.9,5.1-15c1.8-2,3.9-3.7,5.2-6
	c1-1.9,1.4-4.1,1-6.2c-0.2-1.1-0.5-2.4,0.4-3.1c0.3-0.2,0.6-0.3,1-0.4c2.6-0.6,5.4-0.4,7.8,0.9c2.4,1.2,4.2,3.4,4.8,6
	c0.1,0.4,0.1,0.7,0.1,1.1c-0.1,0.5-0.4,0.9-0.8,1.3c-2.6,3.4-3.6,7.8-2.8,12c0.6,2.9-0.5,6.2,1.1,8.7c0.8,1.4,2.6,1.9,2.7,3.5
	c0.1,1.6-0.4,3.1-1,4.6c-0.5,1.2-0.9,2.5-1.4,3.7c-0.2,0.5-0.4,1-0.7,1.5c-0.4,0.5-0.9,0.9-1.5,1.2c-2.8,1.8-5.6,3.8-8.3,5.8
	c-1.2,0.9-2.4,1.9-2.9,3.3c-0.3,0.9-0.3,2-0.3,3c0,1.2,0.1,2.4,0.1,3.6"/>
<path fill="none" stroke="#E1E1E1" stroke-miterlimit="10" d="M79.3,249.9c2.4,6.3,7.4,9.6,8.2,14.6c0.8,5.1-4.8,8.3-4.1,13.4
	c0.3,2.3,1.2,5.6-1.1,6.2c-0.6,0.2-1.3-0.1-1.9-0.3c-2-0.9-3.7-2.5-4.8-4.4c-1.2-2.1-1.6-4.6-2.7-6.7c-1.2-2.1-3.6-4-5.9-3.2
	c-2.3,0.7-0.9,2.9-0.1,5.2c1.7,4.7-18.1,11.1-16.5,19.5c0.5,2.5,4.9-0.5,6.5-2.5c1.6-2,3.6-4.6,6.1-4c0.9,0.2,1,1.3,1.7,1.9
	c1.1,0.9,3.8-1.7,4.4-0.3c1.5,3.1-3,6.1-4.3,9.2c-3.5,8.6-20.8,18.9-13.2,24.2c1.9,1.3,4.6-4.2,6.3-2.7c1.7,1.6,1.5,4.6,3.8,4.7
	c2.3,0.1,3.9-3.1,6.2-2.9c1.4,0.1,1.4,2.7,2.6,3.4c3.3,2,7.3,2.4,10.3,4.8c0.7,0.6,1.4,1.3,1.5,2.3c0,1.4-1.5,2.3-2.7,3.1
	c-2.6,1.7-4.3,4.6-4.7,7.7c-0.1,0.8,0,1.7,0.7,2.1c0.7,0.4,1.5,0,2.1-0.5c5.4-4,6.7-14.3,8.8-16.3c4-3.8,5,7.7,13.1-2.2
	c0.8-1,0.8-2.4,1.4-3.6c1-2.1,3-3.7,3.2-6c0.2-1.9-0.8-3.6-1.3-5.4c-0.5-1.8-0.2-5.1,1.6-4.8c4.2,0.7,6.9-1,9.7-4.1
	c0.5-0.5,1.8,0.2,2.2-0.5c0.9-1.5,0.4-2.9,1.8-3.9c4.3-2.9,1.4-10.3,2.5-15.4c0.4-1.6,0.8-3.2,1.7-4.5c2-2.7,5.8-3.2,9.1-3.8
	c1.4-0.2,2.8-0.5,4-1.3c2.8-2,2.8-6.3,4.8-9.1c2.3-3.4,6.9-4.3,10.1-6.8c5.8-4.6,6-13.4,4-20.6c-0.2-0.7-0.5-1.5-1.1-1.9
	c-0.6-0.3-1.3-0.2-1.9,0c-8,2.1-12.7,10.4-19.5,15.2c-1,0.8-2.3,1.5-3.6,1.1c-1.8-0.5-2.4-2.9-2.3-4.8c0.1-1.9,1-4.5-0.1-6
	c-0.6-0.8-1.1-1.8-1.5-2.7c-0.8-1.6-0.6-2.4,0.1-4c2.7-6.6-2.6-13.8-2-20.9c0.2-2.4,1.1-4.7,2-7c2.4-6.1,1.7-14.6,7.1-18.2
	c2.2-1.4,3.9,3.3,3.7,5.9c-0.2,2.6-2.6,5.6-1,7.7c1.2,1.6,3.7-0.9,4.6-2.7c0.8-1.8,1.3-3.9,2.8-5.1c2.5-2,7.4-1.2,8.2-4.4
	c0.3-1.3-0.4-2.8,0-4.1c0.4-1.4,2-2.2,2.4-3.6c0.4-1.5-0.8-2.9-1.3-4.4c-0.5-1.4-0.3-3,0-4.5c0.6-4.5,1.3-9.1,1.9-13.6
	c0.2-1.3-0.2-2.5-1.1-3.4c-0.4-0.4-0.9-0.6-1.1-1.1c-0.2-0.4-0.1-0.9,0-1.4c0.4-2.2,0.7-4.3,1.1-6.5c0.1-0.8,0.3-1.6,0.9-2.1
	c0.5-0.5,1.2-0.6,1.9-0.8c2.7-1,3.8-4.2,4.2-7s-0.6-8.7,2.2-8.2c2.8,0.4,2,5.2,3,7.8c0.3,0.8,0.7,1.7,1.4,2.2c1.8,1.2,4-0.9,4.7-2.9
	c0.7-2,1-4.4,2.8-5.6c1.4-0.9,3.5-0.7,4.7-1.8c0.8-0.7,1.1-1.9,1.6-2.9c1.6-3.1,5.2-4.7,6.5-7.9c0.7-1.6,0.7-3.4,1-5.2
	c0.9-5.3,4.4-10,4.6-15.4c0.1-2.1-0.3-4.1-0.4-6.2c-0.6-12,8.4-22.1,11.5-33.6c1-3.6,0.6-8.6-2.9-9.7c-3.1-1-6,1.8-8.1,4.3
	c-4.6,5.6-9.1,11.2-13.7,16.7c-1.3,1.6-2.7,3.3-3.7,5.1c-0.7,1.3-1.3,2.7-1.9,4c-0.9,2.2-1.8,4.3-2.8,6.5c-1.4,3-3.2,5.9-6,7.6
	c-3.4,2.1-7.6,2.1-11.5,2.7c-3.9,0.6-8.2,2.4-9.4,6.2c-0.3,0.9-0.4,1.9-0.1,2.8c0.3,1.1,1.2,2.1,1.4,3.3c0.1,0.8-0.1,1.6-0.3,2.4
	c-0.6,2.5-1.2,4.9-1.8,7.4c-1.1,4.5-2.3,9.1-5.1,12.7c-0.5,0.6-1,1.1-1.6,1.6c-0.6,0.4-1.3,0.7-1.9,1c-3.5,1.8-5.5,6.1-4.8,9.9
	c0.2,1.3,0.8,2.7,0.3,3.9c-0.5,1.6-2.3,2.4-3.8,3.3c-2.8,1.6-5,4.3-6.1,7.3c-0.4,1.1-0.8,2.5-2,2.9c-0.6,0.2-1.2,0.1-1.7,0.2
	c-1.5,0.3-2.4,1.7-3.2,3c-2.5,4.2-3.1,10.3-7.4,12.5c-0.7,0.4-1.2,0.5-1.7,1.1c-1.8,2.2-3.7,4.4-5.5,6.6c-1.4,1.7-2.8,3.4-4.7,4.5
	c-2,1.2-4.5,1.7-6.1,3.4c-1.6,1.8-2,4.5-3.9,5.9c-1,0.7-2.2,1-3.2,1.6c-1,0.6-1.9,1.8-1.4,3c0.2,0.5,0.7,0.9,1.1,1.3
	c2.2,2.3,2.2,5.9,1.5,9.1c-0.7,3.1-2,6.2-1.9,9.3c0.1,3.1,1.6,6.1,1.8,9.2c0.2,2.5-0.5,5.1-1.9,7.2c-1,1.5-2.4,2.9-2.7,4.7
	C75.6,244.3,79.2,249.5,79.3,249.9z"/>
<path fill="none" stroke="#E1E1E1" stroke-miterlimit="10" d="M116.5,182.9c0.7-2,0.3-4.4-1-6.1c-0.1-0.2-0.3-0.3-0.5-0.4
	c-0.4-0.1-0.9,0.2-1.2,0.5c-2.5,2.6-3.3,6.3-5.1,9.3c-2.4,4.1-6.5,7.2-8.4,11.6c-0.4,1-0.7,2.1-1.5,2.9c-1.4,1.5-3.7,1.6-5.5,2.5
	c-2.3,1.2-3.6,3.8-4.8,6.2c-0.3,0.7-0.6,1.4-0.6,2.1c0.1,0.5,0.3,0.9,0.4,1.3c0.8,2,0.6,4.3,0.2,6.5s-0.8,4.4-0.4,6.5s1.8,4.3,4,4.7
	c0.8,0.2,1.6,0.1,2.4,0.2c2.9,0.3,5.1,2.8,7,4.9c1,1.1,2.1,2.2,3.6,2.3c2.3,0.1,3.8-2.4,4.4-4.6c1.4-4.8,1.7-10,0.7-14.9
	c-0.4-2.2-1.1-4.4-1-6.6c0.1-4.4,2.9-8.3,3.8-12.6c0.9-4.4-0.1-9.2,1.8-13.2C115.4,184.9,116.1,184,116.5,182.9z"/>
<path fill="none" stroke="#E1E1E1" stroke-miterlimit="10" d="M180.9,57c-0.9,0.7-2.8,0.2-2.8,1.4c0,0.5-0.2,0.9-0.6,1.1
	c-0.4,0.2-0.9,0.2-1.3,0.4c-2.3,1-1.5,5.2-3.9,6.2c-0.2,0.1-0.4,0.1-0.6,0.3c-0.4,0.3-0.3,0.9-0.3,1.5c0,1.3-2,2-1.9,3.3
	c0.1,0.8,1.7,0.6,2.5,0.3c0.8-0.2,0.9-1.1,1.2-1.9c0.8-2.1,3.6-2.8,4.5-4.9c0.2-0.5,0.4-1,0.7-1.4c0.4-0.5,0.8-0.8,1.3-1.1
	c2.3-1.8,5.6-5.4,3.6-7.5C182.7,53.8,181.9,56.2,180.9,57z"/>
<path fill="none" stroke="#E1E1E1" stroke-miterlimit="10" d="M60.8,349.4c0.6-0.5,1.5-1.3,1.1-1.9c-0.5-0.7-1.8-0.7-2.5-0.2
	c-0.6,0.5-0.8,1.9-0.2,2.4C59.4,349.9,60.2,349.9,60.8,349.4z"/>
<path fill="none" stroke="#E1E1E1" stroke-miterlimit="10" d="M39.5,371.7c-0.8-2,1.6-3.9,3.8-4.4c2.1-0.5,4.8-1,5.5-3.2
	c0.2-0.5,0.2-1.1,0.4-1.6c0.4-0.7,1.2-1,1.6-1.7c0.3-0.5,0.4-1.1,0.5-1.7c0.5-3.6,1.1-7.3,0.7-10.9c-0.1-0.8-0.2-1.6,0-2.4
	c0.3-1.4,1.4-2.5,2.4-3.5c1.2-1.3,2.4-2.8,2.8-4.5c0.4-1.8-0.1-3.8-1.6-4.8c-1.8-1.2-4.1-0.5-6.1,0.3c-2.1,0.8-4.4,3.4-6.4,2.4
	c-4.9-2.6-0.2-11.4,3-16c1-1.4,2.2-2.7,2.8-4.4c1.4-4-1.3-8.1-3.6-11.6c-2.3-3.5-4.2-8.4-1.6-11.7c1.1-1.3,3.4-4.1,1.7-4.3
	c-3.6-0.3-6.9,2.9-10.3,1.4c-1.5-0.6-2.9-1.6-4.5-1.7c-2.6-0.1-4.8,3.1-7.3,2.4c-2-0.6-1.1-4,0.6-5.3s3.8-1.5,5.8-2.2
	c4.8-1.7,8.2-5.8,11.3-9.8c3.3-4.2,6.6-8.5,9.9-12.7c1.4-1.9,3-3.8,5.2-4.6c2.7-0.9,5.9,0,8.3-1.4c2.9-1.6,2.5-5.7,3.6-8.9
	c1-3.1,3.2-5.4,5.1-8.2c0.8-1.2,1.7-2.5,1.8-4c0.1-1.4-0.4-2.7-1-3.9c-2.3-5.6-4.7-11.1-7-16.7c-1.4-3.4-2.9-7.1-1.7-10.6
	c1.9-5.5,9-7,13-11.2c1.9-2,3.1-4.8,5.4-6.4c1.2-0.9,2.7-1.4,4-2.1c2-1.1,3.6-2.6,5.1-4.2c5.9-6.1,11.1-13,15.5-20.3
	c1.9-3.3,3.7-6.6,6.1-9.5c2.5-2.8,7.3-2.4,9.6-5.5c1.8-2.4-0.2-6,1.1-8.6c0.7-1.4,1.7-2.7,2.6-4c3.3-4.5,6.6-9,10-13.5
	c0.8-1.1,1.6-2.2,1.9-3.5c0.8-3.1-1.3-6.1-1.7-9.3c-0.7-4.8,2.5-9.3,5.5-13.1c0.6-0.8,1.3-1.7,2.2-2.3c1.7-1.2,3.9-1.3,5.9-1.9
	c4.8-1.3,8.9-7,11.5-11.2c3.3-5.5,6.8-9.8,9.5-16.1c0.3-0.6,0.6-1.3,1.1-1.8c0.4-0.3,0.8-0.6,1.2-0.8c2.8-2,3.1-7.2,6.6-7.7
	c0.6-0.1,1.2,0,1.8-0.1c0.6-0.1,1.2-0.5,1.7-0.8c3.1-2.2,5.8-5,7.8-8.3c1.4-2.3,2.4-4.8,4.5-6.5c2.4-1.9,5.6-2.2,8.6-1.7
	c2.2,0.3,4.5,1.1,6.6,0.4c1.3-0.4,2.4-1.3,3.4-2.3c2.3-2.2,4.3-4.7,6.3-7.2c1.9-2.4,3.8-4.8,5-7.7c0.5-1.1,0.8-2.3,1.6-3.2
	c0.6-0.7,1.3-1.3,2-1.9c6.9-5.5,12.7-12.4,16.9-20.3"/>
<path fill="none" stroke="#E1E1E1" stroke-miterlimit="10" d="M-10.1,326.8c1.8,0.7,4,0,5.4-1.4s2.1-3.3,2.5-5.3
	c0.4-1.8,0.5-3.7,1.5-5.3c0.6-1,1.6-1.7,2.5-2.5c3.2-2.9,5.7-6.5,8.2-10c0.6-0.8,1.2-1.7,1.4-2.7c0.3-1.7-0.5-3.4-0.3-5.1
	c0.4-3.4,4.3-5,6.1-7.9c0.6-1,0.9-2.2,1.5-3.3c0.9-1.6,2.5-2.8,4.1-3.9c5.8-4,12.7-7.5,15.9-13.8c1.9-3.7,2.4-7.9,4.2-11.7
	s5.8-7,9.8-5.8c1.6,0.5,2.9,1.6,4.5,2.1c1.6,0.5,3.7-0.1,4-1.7c0.1-0.6-0.1-1.2-0.2-1.8c-0.9-4.1,1.2-8.6,4.9-10.6
	c1.1-0.6,2.4-1,2.9-2.1c0.5-1,0.1-2.3-0.2-3.4c-2.9-8.4-9.6-16.8-7.8-25.5c1.5-7.3,8.7-11.8,13.4-17.6c1.5-1.9,3-3.8,4.8-5.3
	c1.6-1.4,3.4-2.5,5.1-3.7c7-5.1,12.5-11.9,18-18.7c4.8-6,9.7-12.1,14-18.5c2.4-3.5,4.6-7.1,6.6-10.7c1.9-3.3,3.6-6.7,5.2-10.1
	c1.4-2.9,2.6-6,2.9-9.2c0.2-2.6-0.3-5.2-0.2-7.8c0.1-9.7,7.5-17.9,15.7-23.3c2-1.4,4.2-2.6,6.1-4.2c1.3-1,2.4-2.2,3.6-3.4
	c2.7-2.7,5.3-5.4,8-8c2.9-2.9,5.9-5.9,7.9-9.5c1.6-2.9,2.6-6.1,4.8-8.7c2.3-2.8,6.1-3.9,9.1-6.1c5-3.6,9.7-9.7,13.6-15.5
	c0.5-0.7,0.5-1.7,0.9-2.6c0.9-1.9,2.9-3,4.9-3.8c1.4-0.5,2.8-0.9,4-1.8c1.8-1.6,4.2-4.9,2.5-6.6c-1.9-1.8-5.3-1.8-5.5-4.4
	c-0.2-2.4,1.3-4.6,3.2-6.2c2.1-1.7,5.1-4.8,7.3-3.3c1.1,0.7,0,2.7-0.1,4.1c-0.1,1.4,0.3,2.9,1.5,3.6c1,0.5,2.3,0.2,3.1-0.5
	s1.3-1.8,1.6-2.9c0.1-0.6,0.3-1.2,0.7-1.6c0.4-0.3,0.9-0.3,1.4-0.3c5.2,0,10.1-4.4,10.8-9.6"/>
<path fill="none" stroke="#E1E1E1" stroke-miterlimit="10" d="M-8.8,312.3c5.5-2.7,4.4-11.6,9.2-15.5c0.6-0.5,1.3-0.9,1.9-1.5
	c1.7-1.9,1.1-5,2.8-6.9c1.3-1.4,3.5-1.6,5.2-2.5c6.2-3.4,3.8-14.4,9.9-17.8c1.8-1,3.9-1.1,5.8-1.8c2-0.8,3.6-2.3,4.9-4
	c2.7-3.5,4.3-7.8,6.7-11.6c2.4-3.8,6.2-7.2,10.7-7.2c0.7,0,1.4,0,1.9-0.3c0.4-0.2,0.6-0.6,0.9-0.9c2.9-3.9,5.7-7.9,8.6-11.8
	c0.4-0.5,0.8-1.1,0.9-1.7c0.4-1.8-1.3-3.4-2.4-4.9c-2.1-2.9-2.3-6.9-0.6-10c1.2-2.2,0.9-5.3,1.3-7.8c0.9-7,6.7-12.1,11.5-17.2
	c6.8-7.4,11.9-16,18-24c1.2-1.6,2.4-3.1,4-4.3c1.3-0.9,2.7-1.5,4-2.3c2-1.3,3.5-3.2,4.9-5c6.4-7.9,12.8-15.8,17.6-24.7
	c1-1.9,2-3.9,2.7-6c3.2-9.8-0.2-21.3,4.6-30.5c5.1-9.8,14.7-17.4,22.9-24.9c3.4-3.1,6.8-6.1,10.3-9.1c2-1.7,3.9-3.4,5.9-5.1
	c1-0.8,1.9-1.7,2.7-2.6c1.3-1.7,2.1-3.8,3.3-5.6c0.9-1.5,2.1-2.7,3.3-4c5.2-5.5,10.8-10.8,16.5-15.7c0.6-0.5,1.3-1.1,1.5-1.9
	c0.4-1.7-1.5-2.9-2.6-4.3c-2.2-2.8-1.2-7.1,1-9.9c2.2-2.8,5.3-4.8,7.7-7.5c0.6-0.7,1.1-1.4,1.8-2c1-0.9,2.3-1.4,3.5-2
	c3.4-1.8,6.3-4.8,8.1-8.2"/>
<path fill="none" stroke="#E1E1E1" stroke-miterlimit="10" d="M-7.6,289.4c1.3-6.4,9.7-8.4,13.5-13.7c1.4-2,2.2-4.4,3.7-6.3
	c2.8-3.4,7.6-4.3,11.2-6.9c4.5-3.4,6.4-9.1,9.7-13.7c2.9-4.2,7-7.5,11.8-9.5c0.9-0.4,1.8-0.7,2.4-1.5c0.6-0.8,0.6-1.8,0.8-2.8
	c1-4.8,6.2-8.3,5.9-13.2c-0.1-2.3-1.4-4.5-0.8-6.7c0.3-0.9,0.8-1.7,1.3-2.5c3.5-5.4,5.2-11.8,9-17c3.2-4.5,7.7-7.9,10.8-12.4
	c3-4.4,6.2-8.6,9-13.1c3.6-5.8,4.6-12.9,9.2-17.9c1.5-1.6,3.1-3.1,4.2-5c1.1-2,1.6-4.3,3-6.2c1.4-1.9,3.5-3.1,5.2-4.8
	c4.1-4,5.3-10,6.7-15.6c6.6-26.7,21.6-51.1,42.5-69c1.5-1.3,3-2.5,4.1-4.2c1.1-1.7,1.7-3.8,2.9-5.5c3.2-4.5,10.3-5,13.1-9.8
	c0.9-1.5,1.3-3.4,2.2-4.9c2.3-3.8,7.7-5.1,9.7-9.1c1.9-3.8,0-8.8,2.3-12.3c1-1.6,2.6-2.6,4.1-3.7c5-3.7,9.2-8.6,11.9-14.2"/>
<path fill="none" stroke="#E1E1E1" stroke-miterlimit="10" d="M-8.1,281c7.3-7.1,14.2-14.5,20.7-22.2c0.8-0.9,1.6-1.9,2.2-3
	c0.7-1.3,1.1-2.8,1.8-4.2c1.5-3,4.3-5,6.7-7.2c3.3-3,6.3-6.3,8.8-10c0.8-1.1,1.5-2.3,2.7-3c0.6-0.4,1.3-0.6,1.9-1.1
	c0.8-0.8,1-2,1.3-3.1c0.9-2.7,3.2-4.6,5.1-6.8c2-2.3,3.6-4.9,5.1-7.5c5.6-9.4,11.3-18.9,16.9-28.3c1-1.7,2.1-3.5,2.8-5.3
	c1.2-3.3,1.5-7,3.4-9.9c0.8-1.3,1.9-2.4,2.4-3.8c1.3-3.7-1.8-8.7,1-11.4c5.5-5.4,8.4-13.1,14.2-18.3c2.9-2.6,6.3-5.3,6.9-9.2
	c0.5-3.6-1.6-6.9-2.9-10.2c-0.2-0.6-0.5-1.2-0.5-1.9c-0.6-4.9,6.1-7.8,6.7-12.7c0.2-1.5-0.2-3,0-4.5c0.2-1.5,1.1-2.8,2-4
	c10.5-15.1,21.8-29.5,33.8-43.4c1.5-1.7,3.1-3.5,4.1-5.6c1-1.9,1.7-4.3,3.6-5.3c0.8-0.4,1.8-0.5,2.7-0.7c3.9-0.8,7.1-3.6,10.1-6.2
	c0.6-0.5,1.1-1,1.4-1.7c0.4-0.9,0.2-1.9,0.3-2.9c0.5-4.3,5.9-5.9,8.5-9.3c1.4-1.8,2-4.1,3.1-6.2c1.1-2,3.4-2.5,5.3-3.8
	c6.9-4.5,7.4-14.8,13.6-20.3"/>
<path fill="none" stroke="#E1E1E1" stroke-miterlimit="10" d="M-8.4,263.7c0.9-3.1,4.7-4.2,7.2-6.2c2.4-1.8,3.9-4.6,5.7-6.9
	c5.3-6.8,14.4-11.4,15.9-19.9c0.1-0.7,0.2-1.5,0-2.2c-0.2-1-0.9-1.8-1.3-2.8c-1.7-3.5-0.7-8.1,2.3-10.4c1-0.8,2.3-1.5,2.8-2.7
	c0.2-0.6,0.3-1.2,0.3-1.9c-0.1-5.3-2-10.5-1.2-15.8c1.1-6.5,6.3-11.6,11.9-15.1c0.5-0.3,1-0.6,1.3-1.1c1.6-2.4-2.6-5.8-1-8.1
	c1.1-1.6,3.7,1,5.2-0.1c2.2-1.6,0-5.5,1.3-7.8c1.1-2,2.6-3.6,3.8-5.5c1.3-2.2,2-4.9,2-7.5c0-1.2-0.2-2.4,0-3.6
	c0.2-1.4,1-2.7,1.9-3.9c2.5-3.6,5.5-6.8,9-9.4c0.8-0.6,1.6-1.2,2.2-2.1c1.3-2.1,0.5-4.8-0.1-7.2c-0.6-2.4,0.5-4.5,1.8-6.6
	c2.2-3.9,1.2-9.1,4.6-12c2.2-1.9,7.5-4,5.7-6.3c-3.2-4.1-9.3,3.9-12.6,7.9c-0.7,0.9-1.4,1.8-1.9,2.8c-0.9,1.8-1,3.9-1.4,5.9
	c-0.8,4.2-2.7,8.2-5.5,11.4c-1.9,2.2-4.3,4.3-4.8,7.1c-0.3,1.7,0.2,3.5-0.5,5.1c-0.5,1.2-1.5,2-2.2,3c-2.9,3.9-1.9,9.6-4.3,13.8
	c-0.5,0.8-1,1.5-1.8,2c-0.9,0.6-2,0.7-2.9,1.2c-1.4,0.8-2.4,2.1-3.1,3.5c-2.2,4-3.6,8.4-4.1,12.9c-0.1,1-0.1,2-0.5,3
	c-0.6,1.7-2.2,2.9-3.4,4.2c-3.2,3.2-5.1,7.7-5.3,12.2c-0.1,2,0.1,4-0.6,5.8c-0.8,1.8-2.5,3.3-2.4,5.3c0,1.1,0.6,2.1,0.9,3.2
	c1.1,3.9-1.7,7.7-4.3,10.8c-4.5,5.2-9.2,10.4-13.8,15.5c-3.7,4.1-7.5,8.2-11.2,12.4"/>
<path fill="none" stroke="#E1E1E1" stroke-miterlimit="10" d="M-9.5,207.8c3.8-4.3,7.5-8.6,11.3-12.9c0.9-1,1.8-2.1,3-2.7
	c2.5-1.3,6.4-1.1,6.9-3.9c0.2-0.8-0.1-1.6,0.2-2.4c0.3-0.8,1.1-1.3,1.7-1.8c2.7-2.1,4.4-5.6,4.3-9.1c0-1.9-0.6-4,0.2-5.8
	c0.4-0.8,1.1-1.5,1.5-2.4c1.2-2.4-0.2-5.2-0.9-7.8c-0.8-2.7-0.8-5.6-0.8-8.4c0-1.9,0.1-4.1,1.6-5.2c0.5-0.4,1.2-0.6,1.6-1.1
	c0.3-0.4,0.5-1,0.8-1.4c1-1.4,3-1.1,4.7-1.5c3-0.7,4.7-3.9,5.3-7s0.6-6.2,1.9-9c1.6-3.4,4.9-5.7,7.5-8.5c2.6-2.8,4.4-7.2,2.2-10.3
	c-0.4-0.5-0.8-1-0.8-1.7c0-0.5,0.2-0.9,0.5-1.3c4.3-7.8,7.6-16.1,9.6-24.8c0.5-2.3,1-5.2,1.8-7.4c0.8-2.2,2.2-4.3,4.4-5.3
	c0.6-0.3,1.2-0.5,1.6-0.9c0.3-0.3,0.5-0.8,0.6-1.3c0.6-1.7,1.1-3.5,1.7-5.2c1.2-3.7-2-7.7-0.2-11.2c1.2-2.4,4.6-2.6,5.9-5
	c2.6-5,5.2-10,7.8-14.9c1.2-2.2,2.3-4.5,4.2-6.2c2-1.8,6.2-1.1,7.2-3.6c0.7-1.8,0.1-3.8,1.5-5.2c1.4-1.3,3.1-2.2,4.5-3.6
	c1.9-1.9,2.9-4.6,3.9-7.1c1.9-4.9,4.4-9.9,8.9-12.7"/>
<path fill="none" stroke="#E1E1E1" stroke-miterlimit="10" d="M-10.2,198.3c2.9-0.6,5-3.2,6-6c1-2.8,1.2-5.8,1.8-8.7
	c0.8-4.1,0.3-11.4,4.4-11.6c2.2-0.1,5,3.1,5.9,1.1c0.8-1.6-0.3-3.6-0.5-5.5c-0.1-0.6-0.1-1.3-0.6-1.7c-0.4-0.4-0.9-0.5-1.3-0.7
	c-2.4-1.4-1.2-5,0-7.4c1.8-3.6,2.9-7.4,4.1-11.2c0.7-2.3,1.4-4.6,2.1-6.9c0.5-1.8,1.1-3.6,1.7-5.4c2.6-8,5.9-15.7,9.8-23.1
	c2-3.8,4.2-7.6,6.2-11.4c2.7-5.2,4.8-10.7,6.5-16.4c1.4-4.5,2.6-9.5,6.2-12.5c1.1-0.9,2.4-1.7,3.2-2.9c0.8-1.2,0.9-2.7,1-4.2
	c0.4-5.1,0.8-10.2,1.2-15.3c0.2-2.3,0.3-4.9-1.2-6.7c-1-1.2-3.4-3.5-1.9-4c1.4-0.4,3,0,3.7-1.3c0.3-0.5,0.4-1.1,0.8-1.5
	c0.3-0.3,0.7-0.4,1.1-0.5c2.2-0.6,4-2.3,4.7-4.4c0.2-0.6,0.4-1.2,0.8-1.5c0.3-0.2,0.8-0.3,1.2-0.4c3.4-0.7,5.9-3.6,7.8-6.4
	c1.9-2.9,3.5-6.1,6.1-8.3c1.3-1.1,2.8-1.9,4-3c2-1.7,3.5-3.9,5-6.1c3.7-5.6,7.4-11.2,10.5-17.2"/>
<path fill="none" stroke="#E1E1E1" stroke-miterlimit="10" d="M-7.5,151.7c1.1-4.5,2.9-8.9,5.1-12.9c0.6-1,1.2-2,2.1-2.7
	c0.8-0.7,1.8-1.1,2.8-1.5c3.7-1.6,7.5-4.5,7.5-8.5c0-0.8-0.2-1.6-0.1-2.5c0.3-2.1,2.6-3.3,4-5c2.7-3.3,1.9-8.1,2.9-12.3
	c1.3-5.2,5.8-9.7,5.1-14.9c-0.1-0.9-0.4-1.8-0.3-2.8c0.1-2.1,1.8-3.7,3.1-5.4c2.4-3.3,3.5-7.5,2.9-11.6c-0.3-1.7-0.8-3.5-0.3-5.1
	c0.5-1.5,1.7-2.6,2.8-3.6c1.1-1,2.2-2,3.3-2.9c0.6-0.5,1.1-1,1.3-1.7c0.2-0.9-0.2-1.8-0.5-2.6c-0.9-1.8-1.7-3.6-2.6-5.5
	C26.3,38.8,15.9,29.5,5.4,22.6c-1.3-0.9-2.7-1.7-3.9-2.7c-1.5-1.2-2.9-2.7-3.9-4.4c-0.9-1.4-1.6-2.9-2.1-4.5C-4.9,9.7-5.2,8.4-6,7.4
	s-2.4-1.6-3.4-0.8"/>
<path fill="none" stroke="#E1E1E1" stroke-miterlimit="10" d="M-5.4-11.3C-5.5-9-3.7-7.2-1.9-5.7C1.8-2.6,5.5,0.4,9.4,3.2
	c2.8,2.1,5.7,4.2,7.5,7.1c1.4,2.4,2.4,5.4,5,6.3c2.3,0.8,4.9-0.6,7.2,0.3c1.6,0.6,2.9,2.2,4.7,2.1c0.9-0.1,1.9-0.7,2.7-0.2
	c0.5,0.3,0.7,0.9,1.1,1.3c1.7,1.8,5-0.5,7.1,0.8c0.7,0.4,1.3,1.2,2.1,1.2c0.5,0,1-0.4,1.4-0.7c2.9-2.5,5.7-4.9,8.6-7.4
	c1.6-1.4,3.2-2.8,3.8-4.8c0.4-1.2,0.4-2.8,1.4-3.6C62.6,5,63.6,5,64.4,4.7c0.7-0.2,1.3-0.7,1.9-1.1c5.6-4.3,10.1-9.9,13.1-16.3"/>
<path fill="none" stroke="#E1E1E1" stroke-miterlimit="10" d="M-8.6,140.7c0.6-1.3,2.1-2,2.8-3.3c0.4-0.7,0.6-1.6,0.8-2.4
	c1.3-3.8,5.5-6.1,6.7-9.9c0.6-2.2,0.2-4.6,1.2-6.7c1.1-2.2,3.5-3.2,5.6-4.5s4.2-3.3,3.8-5.7c-0.2-1.2-1-2.2-1.4-3.3
	c-0.3-0.9-0.5-1.8-0.4-2.7c0.3-4.2,4.6-7.2,5.6-11.3c0.3-1.4,0.3-2.8,0.2-4.2c-0.2-5.5-0.4-11.1,1-16.4c0.9-3.3,2.4-6.5,2.8-9.9
	c0.4-3.1-0.2-6.3-1.7-9.1c-0.9-1.7-0.5-4.6-2-5.8c-0.5-0.4-1.1-0.6-1.7-0.8c-4.2-1.8-7.8-5.1-9.9-9.1c-0.4-0.7-0.7-1.5-1.2-2.1
	c-1.1-1.4-2.8-2.1-4.3-3c-2.9-1.6-5.4-3.9-7.8-6.1"/>
<path fill="none" stroke="#E1E1E1" stroke-miterlimit="10" d="M-10.2,37.7c3.2,2,6.3,4.1,9.5,6.1c2.6,1.7,5.2,3.4,7.3,5.7
	c4.3,5,5.2,12.5,2.7,18.7c-0.4,1-0.9,2-1.2,3.1c-0.2,0.9-0.3,1.8-0.4,2.8c-0.2,4.7,0.7,9.7-1,14.1c-0.3,0.9-0.8,1.8-1,2.8
	c-0.4,1.7,0,3.5-0.4,5.2c-0.4,1.8-1.7,3.3-2.7,4.9c-1.7,2.7-2.7,5.8-2.9,8.9c-0.1,2.1,0.1,4.3,0,6.4c-0.2,6.1-3,12.1-7.6,16.1"/>
<path fill="none" stroke="#E1E1E1" stroke-miterlimit="10" d="M102.1,221.4c0.3-0.4,0.6-0.8,0.6-1.3c0.2-1-0.6-2-1.3-2.8
	c-0.4-0.4-0.8-0.9-1.2-1.3c-0.3-0.3-0.7-0.7-1.1-0.7c-0.4,0-0.8,0.3-1,0.6c-0.2,0.4-0.3,0.8-0.3,1.2c-0.1,0.5-0.1,1.1,0,1.6
	c0.3,1.4,1.4,2.4,2.6,3c0.4,0.2,0.9,0.4,1.3,0.1C101.9,221.7,102,221.6,102.1,221.4z"/>
<path fill="#7BBCEB" stroke="#4E9BD7" stroke-miterlimit="10" d="M191.1,177.7c0-0.7,0.3-1.3,0.4-1.9c0.7-2.5,0.1-5.3-1.5-7.3
	c-0.6-0.8-1.3-1.4-2.1-2c-0.5-0.5-1.1-0.9-1.8-1.2c-0.4-0.1-0.8-0.2-1.2-0.2c-2.2-0.2-4.5-0.3-6.7-0.5c-0.3,0-0.7,0-1,0.1
	c-0.7,0.3-0.8,1.3-0.8,2c0,2.9-0.3,5.8-0.9,8.6c-0.2,1-0.5,2-0.5,3c0,1.7,0.7,3.4,1,5.1c0.3,1.6,0.4,3.2,0.1,4.8
	c-0.1,1-0.4,2,0.1,2.8c0.2,0.4,0.6,0.7,1,1c2.2,2.1,2.1,5.6,1.8,8.6c-0.1,1.2-0.2,2.3-0.3,3.5c0,0.4-0.2,1.2-0.6,1
	c-0.7-0.3-1-1.1-1.7-1.4c-0.7-0.3-1.6-0.1-2,0.6c-0.2,0.3-0.2,0.7-0.2,1c-0.3,4-0.5,7.9-0.8,11.9c0,0.7-0.1,1.4,0.1,2.1
	c0.3,1.2,1.1,2.1,1.9,3.1c0.2,0.3,0.5,0.5,0.8,0.6c0.6,0.1,1.1-0.5,1.2-1.1c0.1-0.6-0.1-1.2-0.1-1.8c0.1-1.8,1.7-4.1,1.3-5
	c-0.5-0.9-1.7-0.4-2.6-1c-0.3-0.2-0.1-1.7-0.4-2.8c-0.2-1.1,1.3-2.5,2.3-2.1c0.3,0.1,0.6,0.4,0.9,0.3c0.2,0,0.4-0.1,0.5-0.2
	c1.1-0.8,1.6-2.1,1.9-3.4c0.3-1.3,0.2-2.6,0.5-4c0.2-1.4,0.8-2.8,1.3-4.2c1.2-3,2.6-5.8,4.2-8.6c0.7-1.2,1.4-2.4,2.5-3.1
	c1.1-0.7,2.5-1.2,3-2.4C193.6,181.6,191.1,179.8,191.1,177.7z"/>
<path fill="#EAEAEA" stroke="#D6D6D6" stroke-miterlimit="10" d="M165.3,115.2c0.5-0.6,1.4-0.7,2.1-0.4c0.2,0.1,0.4,0.2,0.6,0.3
	c0.8,0.2,1.5-0.4,2-1c0.8-0.9,1.6-1.9,2.7-2c0.2,0,0.4,0,0.5-0.2c0.1-0.1,0.2-0.4,0.2-0.6c0.1-0.8,0.1-1.8-0.5-2.4
	c-0.3-0.3-0.8-0.6-0.9-1c0-0.5,0.6-0.9,0.6-1.4c0-0.2-0.1-0.3-0.2-0.5c-0.5-1-0.2-2.2-0.4-3.3c-0.2-0.8-1.1-0.7-1.7-0.1
	c-0.6,0.6-0.8,1.8-0.9,2.6c-0.1,0.8-0.7,1.5-0.8,2.3c-0.1,0.7-0.2,1.5-0.6,2.1c-0.5,0.8-1.3,1.2-2.1,1.6c-0.6,0.3-1.2,0.6-1.8,0.6
	c-0.6,0-0.9-0.7-1.4-1.1c-0.3-0.2-0.7-0.1-1,0c-1.9,1-1.4,4.7,0.4,5.8c0.7,0.5,1.7,0.1,2.3-0.6C164.9,115.7,165.1,115.4,165.3,115.2
	z"/>
<path fill="#EAEAEA" stroke="#D6D6D6" stroke-miterlimit="10" d="M177,96.9c0.1,0.3,0,0.6,0.1,0.9c0.1,0.8,1,1.3,1.8,1.3
	c0.8,0.1,1.7,0.3,2.4-0.2c2.1-1.3,0.3-5.5,2.1-7.2c1-1,2.3,0,3-1.2c0.7-1.3,0.2-2.8-0.3-4.2c-0.3-0.9-0.8-1.9-1.8-2
	c-0.9-0.1-1.7,0.8-2.1,1.7s-0.5,1.9-1.2,2.5c-0.4,0.4-1,0.6-1.4,1c-0.9,0.8-1.2,2.3-2.1,3.1c-0.7,0.6-1.9,1-1.9,2
	C175.6,95.5,176.8,96,177,96.9z"/>
<path fill="none" stroke="#D6D6D6" stroke-miterlimit="10" d="M162.9,117c0.5,2.1,0.3,4.4-0.5,6.4c-0.4,1.1-1.1,2.2-1.3,3.4
	c-0.2,1-0.1,1.9,0,2.9c0.3,2.6,0.5,5.2,0.8,7.8c0.5,4.7,1,9.5,3.2,13.7c0.2,0.4,0.4,0.8,0.8,0.9c0.5,0.2,1.1,0.1,1.5,0.3
	c0.5,0.3,0.6,1,0.7,1.6c0.6,2.3,2.8,3.7,4.7,5.1s3.2,3.5,4,5.5"/>
<path fill="none" stroke="#4E9BD7" stroke-miterlimit="10" d="M176.3,223c1.1,1.7,0.1,5.4-0.7,8c-1.7,5.4,1.6,11.5-0.6,16.7
	c-0.7,1.6-1.8,3-2.9,4.4c-2.9,3.6-5.8,7.1-8.7,10.7c-3.5,4.3-7.1,8.7-9.5,13.6c-2.5,5-3.9,10.7-7.6,14.8c-2.5,2.7-5.9,4.8-7.1,8.2
	c-0.5,1.4-0.5,2.8-0.7,4.3c-0.7,6-4.1,11.6-4.2,17.6c-0.1,7.1,4.4,13.4,9,18.9c5,6,10.3,11.7,16,17.1c1.4,1.3,2.8,2.6,4.5,3.4
	c1.2,0.5,2.4,0.7,3.5,1.4c4,2.5,2.9,9,6.4,12.2"/>
<path fill="none" stroke="#D6D6D6" stroke-miterlimit="10" d="M375,299.4c-8,1.7-12.6,11.3-20.7,12.5c-1,0.1-2.1,0.3-2.6,1.1
	c-0.3,0.5-0.2,1.1-0.5,1.6c-0.5,0.9-1.8,0.9-2.9,1.1c-3.2,0.6-4.8,4-7,6.4c-5.1,5.4-14.2,5.8-18.6,11.8c-0.7,1-1.3,2.2-2.3,3
	c-1.9,1.7-4.8,1.7-7.4,1.8c-0.7,0-1.5,0.1-2.1,0.4c-1,0.4-1.8,1.2-2.5,2c-4.2,4.6-8.7,9-13.3,13.2c-1.9,1.7-4.7,3.4-6.6,1.8
	c-0.7-0.6-1.1-1.5-1.7-2.2c-1.3-1.4-3.5-1.6-5.3-1s-3.3,1.8-4.8,3c-7.7,6.1-15.8,11.7-24.2,16.8"/>
<path fill="#EAEAEA" stroke="#D6D6D6" stroke-miterlimit="10" d="M274.2,230.9c-0.2,0.5-0.5,0.9-0.8,1.3c-1.1,1.8-2.1,4.3-1.3,6.2
	c0.3,0.6,1.3,0.5,1.9,0c0.5-0.4,0.8-1.1,1.1-1.8c1.1-2.8,2.2-5.5,3.4-8.3c0.2-0.5,0.4-1,0.5-1.5c0.1-0.6-0.1-1.3-0.3-1.9
	c-0.2-0.7-0.6-1.5-1.3-1.5c-0.3,0-0.5,0.2-0.7,0.4c-0.7,0.6-1.5,1.2-1.9,2.1C274.2,227.6,274.8,229.4,274.2,230.9z"/>
<path fill="#EAEAEA" stroke="#D6D6D6" stroke-miterlimit="10" d="M227.3,157.3c-0.6,0.5-1,1.2-1.2,2c-0.1,0.7,0,1.5-0.1,2.2
	c-0.1,0.7-0.7,1.3-1.4,1.5c-0.9,0.3-0.4,1.9,0.4,2.3c0.8,0.4,1.9,0.2,2.7-0.2c0.8-0.4,2-0.5,2.5-1.3c1-1.4-0.2-3.4-0.3-5.1
	c0-0.5-0.1-1.1-0.4-1.5C229.1,156.6,228,156.8,227.3,157.3z"/>
<path fill="#EAEAEA" stroke="#D6D6D6" stroke-miterlimit="10" d="M218.2,170.4c0.9-1.2,0.4-2.9-0.1-4.4c-0.1-0.4-0.3-0.8-0.4-1.2
	c-0.3-0.9-0.9-2-1.9-1.9c-0.7,0.1-1.1,0.8-1.2,1.5c-0.1,0.7,0,1.4-0.1,2c-0.2,1.7-2.2,3.8-0.9,4.9
	C214.9,172.3,217.2,171.7,218.2,170.4z"/>
<path fill="#EAEAEA" stroke="#D6D6D6" stroke-miterlimit="10" d="M253.6,143c0.1-1.4-1.3-2.6-1.1-4c0.1-0.7,0.5-1.3,0.5-1.9
	c0-1-0.7-1.7-1.4-2.4c-0.7-0.6-1.5-1.3-2.4-1c-0.5,0.2-0.8,0.6-1.1,1c-0.5,0.6-1,1.3-1.1,2.1c-0.2,1,0.3,2,0.7,3
	c0.7,1.4,1.3,2.9,2,4.3c0.4,0.9,1.1,1.9,2.1,1.8c0.7-0.1,1.1-0.8,1.4-1.5C253.4,143.9,253.6,143.5,253.6,143z"/>
<path fill="#EAEAEA" stroke="#D6D6D6" stroke-miterlimit="10" d="M288.9,157.8c-0.4-1.2-2.3-2.4-2.5-3.7c-0.2-1.2,0.3-2.3,0.7-3.4
	c1.2-2.7,2.3-5.3,3.5-8c0.9-2,2.4-4.3,4.5-3.8c0.9,0.2,2.7,1.3,3.2,2.1c1.2,2.3-0.2,5-1,7.5s-2.1,4.9-2.6,7.5
	c-0.3,1.5-0.4,3-0.6,4.5c-0.8,5.5-3.4,10.5-6,15.4c-1.9,3.7-3.8,7.3-5.7,11c-0.6,1.1-1.3,2.4-2.5,2.8c-1.5,0.6-3.3-0.4-4.1-1.8
	s-0.9-3.1-0.9-4.8c0-2.7,0.2-5.3,0.5-8c0.2-2.1,0.3-4.1,0.5-6.2c0.1-1.5,0.3-3,1-4.3s2.1-2.4,3.6-2.1c0.5,0.1,0.9,0.3,1.2,0.7
	c0.4,0.6,0.4,1.4,0.3,2.1c-0.2,2.5-2.7,7-0.6,8.3c0.4,0.2,1.2-1.1,1.4-1.2c2.9-3,4.1-6.7,5.1-10.7
	C288.2,160.2,289.3,159.1,288.9,157.8z"/>
<path fill="none" stroke="#D6D6D6" stroke-miterlimit="10" d="M252.3,145.6c1.3,1.4,2.4,1.4,3.2,2.4c0.7,0.9,1.4,2.1,2.5,2.5
	c0.6,0.2,1.2,0.2,1.7,0.6c0.4,0.3,0.6,0.9,0.7,1.4c1.1,4.4,0.3,9.3,2.5,13.2c1.5,2.7,4.1,4.5,6.8,5.9c1.8,1,3.6,1.9,5.7,2"/>
<path fill="none" stroke="#D6D6D6" stroke-miterlimit="10" d="M298.3,141c1.3-3.9,3-8.5,4.3-12.4c0.4-1.1,0.8-2.3,1.5-3.2
	c2.4-3.5,7.3-4.1,10.2-7.2c1.2-1.3,2-2.9,3.1-4.3c1.1-1.4,2.8-2.5,4.6-2.2c1.5,0.3,2.5,1.5,3.7,2.4c2.2,1.6,5,2.2,7,4
	c2.6,2.3,3.4,6,3.6,9.4c0.7,8.7-0.9,17.4-0.7,26.1c0.3,8.7,2.8,18.1,9.8,23.3c1,0.8,2.1,1.5,2.7,2.5c1.1,1.9,0.4,4.2-0.2,6.3
	c-2.7,8.8-4.7,20.1-5.1,27.1c-0.1,2.3,4,2.4,6,3.7c5.8,3.6,11.8,7.3,16,12.7c0.9,1.2,1.8,2.6,2.6,3.9c0.4,0.7,0.8,1.4,0.9,2.1
	c0,0.8-0.4,1.5-0.7,2.2c-2.7,5.3-4.6,11.3-3.6,17.1c0.2,1.2,0.5,2.3,1.3,3.2c0.6,0.7,1.5,1.1,2.4,1.6c3.1,1.4,6.1,2.9,9.2,4.3"/>
<path fill="#EAEAEA" stroke="#D6D6D6" stroke-miterlimit="10" d="M73.9,209.1c-0.6,0.1-1.1,0.8-1.2,1.4s0,1.3,0.2,1.9
	c0.6,2.2,1.5,4.2,2.7,6.1c0.1,0.2,0.4,0.5,0.6,0.3c1.9-2.5,1.7-6.5-0.4-8.8C75.4,209.4,74.7,208.9,73.9,209.1z"/>
<path fill="none" stroke="#D6D6D6" stroke-miterlimit="10" d="M159.7-11.8c-0.3,2.6-0.9,7.8-3.4,6.9c-0.7-0.3-0.1-1.6-0.5-2.2
	s-1.4-0.9-2-0.4c-0.8,0.7-0.2,1.9-0.2,3c0,1.5-2.1,3.2-3.1,2.1c-1-1-1.6-3.8-2.7-3c-3.2,2.2,1.7,10.8-2.2,11.5
	c-2.3,0.4-2.3-4-2.9-6.2c-0.4-1.2-2.5-0.9-3.2,0.3s-0.3,2.5,0.2,3.7s1.3,2.3,1.5,3.5c0.1,0.4,0.1,0.9-0.1,1.2
	c-0.4,0.6-1.3,0.6-1.9,0.2s-1-1-1.5-1.6c-2.3-2.6-8.3-3.6-9.2-0.3c-0.3,1.2,1.3,2,2.1,3c0.8,1,1.3,2.4,0.5,3.4
	c-0.4,0.5-1.1,0.7-1.7,0.9c-2.8,0.9-5.5,1.7-8.3,2.6c-0.5,0.1-1,0.3-1.1,0.8c-0.1,0.4,0.1,0.8,0.1,1.2c0.2,1.5-1.6,2.4-3,2.9
	s-3.1,1.6-2.7,3.1c0.1,0.4,0.4,0.8,0.7,1.1c1.9,2,4.4,0,7.1,0.2c2.7,0.3-0.7,5.8-3.3,6.6c-2.8,0.8-8.4-2.5-8.5,0.4
	c-0.1,1.3,1.2,2.3,0.6,3.5c-0.5,1.2-1.6,2-2.4,3c-2.6,3-3.9,7.2-3.1,11c0.2,1.1,0.6,2.2,0.5,3.3c-0.4,2.4-3.1,3.5-4.7,5.3
	c-1.2,1.3-1.8,2.9-2.7,4.4c-2.5,3.8-7.2,4.7-11.6,5.9c-2.5,0.6-3.9,3.6-4.7,6c-0.3,0.9-0.5,1.9-1,2.7c-0.5,0.9-1.4,1.5-2,2.3
	c-2.4,3.1-3.4,6.7-5.3,10.1c-0.7,1.3,1.9,2.4,2.1,3.8c0.3,2.3-1.4,5.6-3.7,6.1c-4.5,1-11,6.1-12.9,14.5c-2.5,11.2-4.1,8.5-4.5,13.4
	c-0.2,2.5,0.2,4.5-2.9,6.5c-0.7,0.4-1.6,0.4-2.1,1c-0.8,0.9-0.3,2.2-0.6,3.3c-0.5,1.7-2.6,2.3-3.6,3.6c-1.3,1.7-0.8,4-0.7,6.1
	c0.2,5.6-3.2,11.2-8.3,13.6c-1.1,0.5-2.3,0.9-3.3,1.7c-5.1,4,0.2,13.9-4.9,18c-0.8,0.7-1.8,1.1-2.6,1.7c-0.8,0.7-1.4,1.7-1.9,2.6
	c-3.3,6.1-4.5,13.1-4.6,20c0,1.3,0,2.5-0.2,3.8c-0.3,2-1.2,3.8-2.1,5.6c-3.6,7.3-7.7,14.8-14.3,19.5c-2,1.4-4.2,2.6-5.9,4.4
	c-3,3-4.4,7.5-7.9,10.1"/>
<path fill="none" stroke="#D6D6D6" stroke-miterlimit="10" d="M-9.8-5.4c0.2,0,0.4-0.1,0.6,0c1,0.4,1.1,1.8,1.6,2.7s1.3,1.8,2.4,1.9
	c0.8,0,1.6-0.1,2.3,0.4c1.5,1,1.6,2.5,3.2,3.4c1.6,0.9,3.7,0.4,4.6,2s1.5,3.6,2.9,4.8c0.9,0.8,2.2,1.2,3,2.1
	c0.6,0.7,0.9,1.5,1.3,2.3c1.6,3.5,4.7,6.2,7.7,8.6c2.2,1.7,4.4,3.3,6.3,5.2c0.9,0.9,1.6,1.9,2.7,2.5c1.2,0.7,2.6,0.9,3.9,1.2
	c3,0.6,5.8,1.8,8.3,3.5c2.4,1.6,6.5,5.4,8.5,7.4c1.8,1.7,1.9,2.3,4.2,3.3c2.4,1.1,4.3,0.5,6.9,0.8c0.4,0.1,0.9,0.1,1.3,0.3
	c0.7,0.3,1.3,0.8,1.9,1.3c3.9,3.1,10.3,2.6,13.4-1.2c1.1-1.3,1.8-3,2.8-4.4c1-1.4,2.4-2.7,4.1-2.9c1-0.1,2,0.2,2.8-0.3
	c0.7-0.4,1-1.2,1.3-1.9c0.7-1.5,1.5-3,2.8-4.1c1.3-1.1,2.5-2.4,4.1-1.8c1,0.4,3.1,1,3.9,1.7c2.4,2.5,5,6.4,7.4,8.9"/>
<g>
	<g>
		<path fill="none" stroke="#585858" stroke-miterlimit="10" d="M373.7,17.2c-0.4,0.5-0.8,1.1-1.1,1.6"/>
		<path fill="none" stroke="#585858" stroke-miterlimit="10" stroke-dasharray="4.0038,1.0009" d="M372.1,19.7
			c-2.3,4.8-2,10.8-5.4,15.2c-0.7,0.9-2.6-0.8-3.3,0c-0.7,0.9-0.9,2.1-2,2.3c-1.1,0.3-2.3,0.2-3.3,0.6c-2.4,1.1-3,4.8-5.5,5.3
			c-1.7,0.3-3.5-1-5.1-0.5c-0.9,0.3-1.5,1.1-2.1,1.9c-4.4,5.9-9.4,11.4-14.4,16.8c-3.2,3.6-6.5,7.1-9.7,10.7c-0.9,1-1.8,2-2.9,2.8
			c-1.7,1.3-3.7,2.1-5.5,3.2c-1.5,0.9-2.8,1.9-4.2,2.9c-2,1.5-4.2,3.2-4.9,5.7c-0.4,1.3-0.3,2.8-0.9,4c-1.5,3.2-6.1,3.2-9,5.2
			c-3.9,2.7-4.3,9-8.6,11.1c-2.6,1.2-5.8,0.4-8.1-1.2c-0.6-0.4-1.2-0.9-1.9-1c-0.6-0.1-1.2,0.1-1.7,0.2c-4.3,1.3-8.3,3.5-11.6,6.6
			c-2.7,2.5-3.4,7.1-6.6,9.1c-0.7,0.4-1.5,0.8-2.1,1.3c-1.1,0.9-1.7,2.2-2.7,3.3c-2.5,2.6-7.5,4.7-10.1,2.2
			c-1.8-1.7-2.9-3.9-5.3-4.6c-1.3-0.4-2.8-0.6-3.8,0.3c-0.5,0.4-0.8,1-1.1,1.6c-2.5,4.5-6.9,7.5-10.7,10.9c-4.1,3.6-7.5,7.9-11.2,12
			c-5.6,6.3-12,12.4-20.1,14.6c-0.5,0.1-1.1,0.3-1.6,0.2c-1.8-0.3-2.4-2.6-2.1-4.3s1.2-3.5,0.9-5.3c-0.1-0.8-0.5-1.6-0.4-2.4
			c0.1-0.7,0.5-1.3,0.8-1.9c1.7-2.9,2-6.5,0.9-9.6c-0.5-1.4-1.1-3.1,0-4c0.5-0.4,1.2-0.5,1.7-0.8c1.6-0.9,1.2-3.3,1.4-5.1
			c0.1-1,0.3-2.1,0.8-3c8.2-16.7,3.4-23.9,5.4-24.9c1.2-0.6,2.5,2.8,3.5,1.9c1.1-0.9-0.8-3.3,0.3-4.1c1.1-0.9,1.4,2,2.1,3.2
			c0.5,0.8,1.7-0.7,2-1.6s0.3-1.9,0.8-2.7c0.7-1.1,2.2-1.5,3-2.6c0.5-0.7,0.6-1.5,0.7-2.3c0.9-6.2,1.9-12.5,2.8-18.7
			c0.3-1.8,0.4-3.1-0.1-4.8c-0.2-0.6-0.4-1.3-0.4-1.9c0-0.9,0.4-1.8,0.7-2.7c2.1-5.1,4.8-14,3.6-16.2c-0.5-0.8-1.7-1.2-0.9-1.8
			c0.2-0.2,0.5-0.3,0.7-0.4c1-0.6-0.2-1.6-0.6-2.7c-0.3-0.9,2.1-1.5,1.8-2.4c-0.2-0.5-1.1-0.4-1.4-0.8s-0.4-1.2,0.1-1.4
			c0.3-0.1,0.6-0.1,0.9-0.2c1-0.3-0.1-1.1-0.2-2.1c-0.1-0.7,1.8-0.9,1.5-1.5c-0.3-0.5-1.7-0.5-1.4-1.1c0.3-0.9,2.3-0.3,2.6-1.2
			c0.3-0.8-1.8-0.7-2.1-1.5c-0.3-1.2,2.9-1.9,2.3-3c-0.3-0.6-1.9-0.1-2-0.9c-0.1-1.1,2.6-1.1,2.6-2.2c0-0.7-0.7-1.2-0.4-1.9
			c0.3-0.6,1.8-0.9,1.5-1.5c-0.6-1-2.3-0.3-2.9-1.3s-0.4-2.3-0.4-3.4c0.2-2.2,0.3-4.4,0.5-6.5c0.1-2,0.3-4.1,1.4-5.8
			c0.4-0.6,1-1.2,1-2c0.1-1-0.8-1.8-1.2-2.7c-0.7-1.6,1.2-2.4,2.4-3.7c0.6-0.7-1.6-1.2-1.7-2.1c0-1,0.8-1.8,1.7-2.5"/>
		<path fill="none" stroke="#585858" stroke-miterlimit="10" d="M221.2-8.4c0.5-0.5,1-1,1.1-1.6"/>
	</g>
</g>
<g>
	<g>
		<path fill="none" stroke="#585858" stroke-miterlimit="10" d="M146.7-10.5c-0.7,0.1-1.2,0.6-1.6,1.2"/>
		<path fill="none" stroke="#585858" stroke-miterlimit="10" stroke-dasharray="4.0372,1.0093" d="M144.6-8.4
			c-0.3,0.5-0.6,1.1-1,1.6c-2,2.3-5.9,1.4-8.4,3c-1,0.7-1.8,1.7-2.9,2.3c-0.7,0.3-1.4,0.5-2.1,0.6c-6.9,1.6-12.2,7-17.1,12.1
			c-1.1,1.2-2.2,2.3-2.9,3.8c-0.4,1-0.6,2-1,3c-1.2,3.3-4.3,5.4-7.2,7.4c-2.1,1.4-4.3,2.8-6.8,3.4c-1.4,0.3-3,0.4-4.3,1
			c-1.4,0.6-1.3,2.4-2.5,3.3c-1.1,0.8-1.9,1.6-3,2.4c-0.8,0.6-2,0.5-2.6,1.2c-0.6,0.6-0.6,1.6-1,2.3c-0.3,0.4-0.8,0.7-1.3,1
			c-2,1.3-2.6,5.1-5,5.1c-0.7,0-1.1-0.4-1.5,0.1c-0.5,0.5,0,1.7-0.7,1.9c-0.6,0.1-0.8-1.5-1.3-1.2c-0.4,0.2-0.2,1-0.5,1.4
			c-0.3,0.4-0.9,0.9-1.3,0.5c-0.7-0.6,0.7-2,0-2.6c-0.5-0.5-1.3,0.1-1.7,0.6c-0.5,0.7-0.8,2.3-1.6,2c-1-0.4,0.1-2.2,0.2-3.3
			c0-0.4,0-0.9-0.4-1.1c-0.5-0.2-0.9,0.3-1.1,0.8c-0.2,0.5-0.7,1.4-1,1c-0.6-0.7,0.4-2.1-0.2-2.8c-0.4-0.5-1.1,1.2-1.7,0.9
			c-0.4-0.2-0.1-1-0.6-1.2c-0.4-0.2-1-0.2-1.3,0.2c-0.2,0.2-0.3,0.5-0.5,0.7c-0.5,0.6-1.5,1.2-2.1,0.7c-0.5-0.3-0.7-1.4-1.2-1.1
			c-0.7,0.3,0.1,1.8-0.6,2.1c-0.5,0.2-0.6-0.8-1-1s-0.6,0.4-1,0.5c-1.1,0.3-1-2-1.7-2.8c-0.3-0.3-0.6-0.7-1.1-0.8
			c-0.4-0.1-0.8,0.2-1.2,0.3c-0.5,0.1-0.8-0.7-1-1.3c-0.2-0.7-0.1-1.4-0.4-2.1c-0.3-0.7-1-0.4-1.7-0.5c-0.6-0.1-0.3-1.2-0.4-1.8
			c-0.1-0.4-0.2-0.8-0.6-0.9c-0.4-0.1-0.8,0.1-1,0.5s-0.2,1-0.6,1c-0.8,0-0.6-1.7-1.3-2.1c-1.6-1-3.4-1.1-5-1.9
			c-1.7-0.9-3.4-2.1-4.8-3.4c-2-1.9-4.2-3.6-6.6-4.9c-0.9-0.5-1.8-1-2.7-1.2c-0.7-0.2-1.6-0.2-2.2-0.6c-0.4-0.3-0.7-0.7-1-1.2
			c-0.5-0.7-0.9-1.4-1.4-2.1c-1.3-2-2.7-4.1-4.5-5.6c-0.7-0.6-1.5-1.2-2.3-1.7c-1-0.7-2-1.3-3-2C8.9,8.7,8.3,8.4,7.7,8.2
			C7,8.1,6.2,8.2,5.8,8.8C5.6,9,5.5,9.4,5.2,9.5C4.7,9.6,4.3,9.1,4,8.7C2.8,7.1,0.6,6.8-1.2,5.9c-2.3-1.2-4-3.5-6.1-5"/>
		<path fill="none" stroke="#585858" stroke-miterlimit="10" d="M-7.6,0.6c-0.5-0.4-1.1-0.7-1.8-0.9"/>
	</g>
</g>
<text transform="matrix(1 0 0 1 149.2734 197.0855)"><tspan x="0" y="0" fill="#7BBCEB" font-family="'Verdana-Italic'" font-size="8">Miller</tspan><tspan x="2.8" y="9.6" fill="#7BBCEB" font-family="'Verdana-Italic'" font-size="8">Lake</tspan></text>
<text transform="matrix(0.4543 -0.8908 0.8908 0.4543 59.5089 150.9356)" fill="#585858" font-family="'Verdana-Italic'" font-size="8">Matterhorn</text>
<text transform="matrix(0.6015 -0.7989 0.7989 0.6015 112.3793 55.5283)" fill="#585858" font-family="'Verdana-Italic'" font-size="8">Creek</text>
<text transform="matrix(1 0 0 1 293.191 197.5009)" fill="#585858" font-family="'Verdana-Italic'" font-size="8">× 9671</text>
<text transform="matrix(1 0 0 1 97.0099 222.7037)" fill="#585858" font-family="'Verdana-Italic'" font-size="8">× 10002</text>
<text transform="matrix(1 0 0 1 203.3603 249.5639)" fill="#585858" font-family="'Verdana-Italic'" font-size="8">× 9596</text>
<path fill="none" d="M292.8,326.2c10-3.9,19.4-9.3,27.9-16c5.8-4.6,11.7-10,19-10.5"/>
<text transform="matrix(0.8637 -0.504 0.504 0.8637 307.4371 322.1494)"><tspan x="0" y="0" fill="#7D7D7D" font-family="'Verdana-Italic'" font-size="7">8</tspan><tspan x="4.5" y="0" fill="#7D7D7D" font-family="'Verdana-Italic'" font-size="7" rotate="-2.3">2</tspan><tspan x="9.1" y="-0.2" fill="#7D7D7D" font-family="'Verdana-Italic'" font-size="7" rotate="-4.7">0</tspan><tspan x="13.6" y="-0.6" fill="#7D7D7D" font-family="'Verdana-Italic'" font-size="7" rotate="-7.1">0</tspan></text>
<path fill="none" d="M258.4,261.2c7.1-1.7,13.2-5.5,18.6-10.3c1.8-1.5,2.9-3.6,4.1-5.7"/>
<text transform="matrix(0.9016 -0.4327 0.4327 0.9016 264.8043 261.8788)"><tspan x="0" y="0" fill="#7D7D7D" font-family="'Verdana-Italic'" font-size="7">9</tspan><tspan x="4.7" y="0" fill="#7D7D7D" font-family="'Verdana-Italic'" font-size="7" rotate="-6">4</tspan><tspan x="9.4" y="-0.5" fill="#7D7D7D" font-family="'Verdana-Italic'" font-size="7" rotate="-11.1">0</tspan><tspan x="13.9" y="-1.4" fill="#7D7D7D" font-family="'Verdana-Italic'" font-size="7" rotate="-15.2">0</tspan></text>
<path fill="none" d="M132,249.4c6.8-4.9,11.4-13.1,19.5-15.2"/>
<text transform="matrix(0.7273 -0.6863 0.6863 0.7273 135.8121 249.6572)"><tspan x="0" y="0" fill="#7D7D7D" font-family="'Verdana-Italic'" font-size="7">9</tspan><tspan x="4.5" y="0" fill="#7D7D7D" font-family="'Verdana-Italic'" font-size="7" rotate="-2.2">6</tspan><tspan x="8.9" y="-0.2" fill="#7D7D7D" font-family="'Verdana-Italic'" font-size="7" rotate="0.1">0</tspan><tspan x="13" y="-0.3" fill="#7D7D7D" font-family="'Verdana-Italic'" font-size="7" rotate="7.3">0</tspan></text>
<path fill="none" d="M16.7,251.6c1.5-3,4.3-5,6.7-7.2c3.3-3,6.3-6.3,8.8-10"/>
<text transform="matrix(0.7309 -0.6825 0.6825 0.7309 20.3537 250.5644)"><tspan x="0" y="0" fill="#7D7D7D" font-family="'Verdana-Italic'" font-size="7">8</tspan><tspan x="4.4" y="0.1" fill="#7D7D7D" font-family="'Verdana-Italic'" font-size="7" rotate="1">6</tspan><tspan x="9.1" y="0.1" fill="#7D7D7D" font-family="'Verdana-Italic'" font-size="7" rotate="-3.6">0</tspan><tspan x="13.7" y="-0.2" fill="#7D7D7D" font-family="'Verdana-Italic'" font-size="7" rotate="-8.2">0</tspan></text>
<path fill="none" d="M48.1,21.4c2.9-2.5,5.7-4.9,8.6-7.4c1.6-1.4,4.2-4.6,4.8-6.6"/>
<text transform="matrix(0.7573 -0.6531 0.6531 0.7573 49.736 23.2905)"><tspan x="0" y="0" fill="#7D7D7D" font-family="'Verdana-Italic'" font-size="7">9</tspan><tspan x="4.5" y="0" fill="#7D7D7D" font-family="'Verdana-Italic'" font-size="7">0</tspan><tspan x="8.9" y="0" fill="#7D7D7D" font-family="'Verdana-Italic'" font-size="7">0</tspan><tspan x="13.9" y="-0.1" fill="#7D7D7D" font-family="'Verdana-Italic'" font-size="7" rotate="-12.7">0</tspan></text>
<path fill="none" d="M258.1,26.8c3.1-0.5,5.3-3.1,7.3-5.5c3.3-4.1,6.7-8.2,9-12.9c2.9-5.9,4.1-12.4,5.8-18.7"/>
<text transform="matrix(0.7291 -0.6844 0.6844 0.7291 262.8492 27.6318)"><tspan x="0" y="0" fill="#7D7D7D" font-family="'Verdana-Italic'" font-size="7">9</tspan><tspan x="4.8" y="-0.1" fill="#7D7D7D" font-family="'Verdana-Italic'" font-size="7" rotate="-7.6">6</tspan><tspan x="9.3" y="-0.7" fill="#7D7D7D" font-family="'Verdana-Italic'" font-size="7" rotate="-8.8">0</tspan><tspan x="13.8" y="-1.4" fill="#7D7D7D" font-family="'Verdana-Italic'" font-size="7" rotate="-12.2">0</tspan></text>
<path fill="none" d="M108.7,120.7c6.6-26.7,21.6-51.1,42.5-69"/>
<text transform="matrix(0.3654 -0.9308 0.9308 0.3654 115.5412 107.1996)"><tspan x="0" y="0" fill="#7D7D7D" font-family="'Verdana-Italic'" font-size="7">8</tspan><tspan x="4.4" y="0" fill="#7D7D7D" font-family="'Verdana-Italic'" font-size="7" rotate="1.9">8</tspan><tspan x="8.7" y="0.1" fill="#7D7D7D" font-family="'Verdana-Italic'" font-size="7" rotate="3.8">0</tspan><tspan x="13.1" y="0.4" fill="#7D7D7D" font-family="'Verdana-Italic'" font-size="7" rotate="5.7">0</tspan></text>
<g>
	<g>
		<polyline fill="none" stroke="#7D7D7D" stroke-miterlimit="10" points="86.9,432.1 86.9,439.3 277,439.3 277,432.3 		"/>
		<line fill="none" stroke="#7D7D7D" stroke-miterlimit="10" x1="182.2" y1="432" x2="182.2" y2="439.3"/>
		<line fill="none" stroke="#7D7D7D" stroke-miterlimit="10" x1="162.9" y1="439.7" x2="162.9" y2="434.2"/>
		<line fill="none" stroke="#7D7D7D" stroke-miterlimit="10" x1="144" y1="439.7" x2="144" y2="434.3"/>
		<line fill="none" stroke="#7D7D7D" stroke-miterlimit="10" x1="125" y1="439.7" x2="125" y2="434"/>
		<line fill="none" stroke="#7D7D7D" stroke-miterlimit="10" x1="106.3" y1="439.7" x2="106.3" y2="434.2"/>
	</g>
	<text transform="matrix(1 0 0 1 85.4549 429.6937)" fill="#7D7D7D" font-family="'Verdana'" font-size="8">0</text>
	<text transform="matrix(1 0 0 1 175.966 429.6937)" fill="#7D7D7D" font-family="'Verdana'" font-size="8">0.5</text>
	<text transform="matrix(1 0 0 1 260.0129 429.6937)" fill="#7D7D7D" font-family="'Verdana'" font-size="8">1 mi</text>
</g>
</svg>
