<?xml version="1.0" encoding="utf-8"?>
<!-- Generator: Adobe Illustrator 17.1.0, SVG Export Plug-In . SVG Version: 6.00 Build 0)  -->
<!DOCTYPE svg PUBLIC "-//W3C//DTD SVG 1.1//EN" "http://www.w3.org/Graphics/SVG/1.1/DTD/svg11.dtd">
<svg version="1.1" id="Layer_1" xmlns="http://www.w3.org/2000/svg" xmlns:xlink="http://www.w3.org/1999/xlink" x="0px" y="0px"
	 viewBox="0 0 360 360" enable-background="new 0 0 360 360" xml:space="preserve">
<path fill="none" stroke="#E1E1E1" stroke-miterlimit="10" d="M372.6,362.2c-1.8-1-3.7-1.9-5.4-3c-6.5-4.1-9.7-9.4-11.9-16.9
	c-0.2-0.6-2.2-3.2-2.8-3.4c-0.6-0.2-1.3-4.3-1.5-5.7c-0.2-1.1-0.3-2.2,0-3.3c1-2.9,6.1-4,9-3.1c2.9,0.9,7.5,1.5,9.2,0.7
	c1.4-0.7,2.1-1.8,2.4-3.1"/>
<path fill="none" stroke="#E1E1E1" stroke-miterlimit="10" d="M327.3,369.3c5.7-3.5,13.4-3.4,18.1-8.1c0.5-0.5,0.9-1.1,1.1-1.7
	c0.7-2.3-1.6-4.2-3.4-5.8c-4.3-3.7-3.6-10.5-7.3-14.7c-1.4-1.6-4.3,0.9-5.6,2.7s-2.1,3.8-3.3,5.7c-6.6,10.9-22.9,12.3-30.7,22"/>
<path fill="none" stroke="#E1E1E1" stroke-miterlimit="10" d="M274.8,368.2c2.6-4.7,5.3-9.4,8.1-13.9c2.4-3.8,4.9-7.6,8.7-10
	c2.4-1.5,5.2-2.4,7.8-3.5c9.9-4,18.4-11.4,23.9-20.6c0.6-1.1,1.3-2.2,1.3-3.5c0-2-1.4-3.6-2.4-5.3c-2.2-3.8-2.1-8.4-2.8-12.8
	c-1.9-12.1-13.8-20.4-16.6-32.3c-1.1-4.7,7.9-5.4,9.4-10c3.2-10-3.2-22.3,6.7-25.8c2.3-0.8,4.7-1.1,6.9-2.2c3.4-1.7,5.7-5,7.1-8.6
	c4.7-12.4-1-26.1-7.3-37.8c-4-7.5-8.4-14.9-13-22.1c-2.6-4.2-5.5-8.4-9.6-11.1c-7.9-5.2-19.1,2.4-27.6-1.8
	c-9.3-4.6-9.2-18.6-13.8-27.9c-1.2-2.5-1.5-6-4-7.1c-2.5-1.1-2.5,2.4-4.7,4c-2,1.5-5.1-4.3-6.7-2.3c-2.8,3.5,6,12.4,0.3,15.5
	c-4.3,2.3-3.8,10.5-5.3,12.2c-3.9,4.3-3.7,8.1-2.8,13.8s2.3,8.8,1.1,14.4c-1.8,8.8-10.1,15.5-11.1,24.4c-1.1,10.5,8.2,20.2,6.3,30.6
	c-1.1,6.2-6,10.9-10.6,15.1c-0.7,0.6-1.4,1.3-2.3,1.5c-3.2,0.7-4.4-3.8-4.9-7.1c-1.9-14-15.9-24.9-15.6-39.1
	c0.2-8.5,5.6-17,2.9-25.1c-1.6-4.8-5.8-8.2-9.7-11.3c-8.1-6.4-16.3-12.8-24.4-19.3c-5-4-11.4-2.3-17.4-4.5
	c-6.5-2.4,1.6-19.9-5.3-20.1c-5.5-0.2-3.5,10.7-7.4,14.7c-3.9,4-10.4,6-15.1,3c-3.5-2.2-1.2-5.2-3.9-8.3c-4.4-5.1-8.2-6.6-7.5-0.5
	c0.2,1.9,0.7,5.9,1.8,7.5c1.2,2,0.7,5.6,2.2,7.3c2.5,2.7,1.6,7.3-0.7,10.2c-1.3,1.7-3.6,2.5-4.7,4.3c-4.4,7.1,11.4,19.2,4.6,24
	c-2.4,1.7-5.8-1.2-8.7-1.8c-0.6-0.1-1.2-0.2-1.8-0.1c-1.6,0.5-1.9,3.1-3.6,3.6c-0.8,0.2-1.7-0.2-2.3-0.7c-2.2-1.9-2.9-5-2.9-7.9
	c0-2.9,0.4-5.9-0.2-8.7c-0.9-4.3-4.2-7.8-7.2-10.9c-0.7-0.7-1.3-1.4-2.2-1.7c-1.1-0.5-2.3-0.4-3.4-0.5c-2.6-0.3-5-1.8-6.3-4
	c-0.6-0.9-1-2-1.8-2.8c-1.6-1.5-4.1-1.3-6.1-2.2c-3.3-1.5-4.3-5.7-4.1-9.3c0.1-3.6,1-7.3-0.2-10.8c-1.4-4.1-5.6-7.7-4.5-11.9
	c0.2-0.8,0.6-1.6,0.8-2.4c0.6-3.4-0.1-7.5-2.6-9.9c-1.6-1.6-4.4,1.4-6.5,2.1c-1.2,0.4-2.4,0.8-3.5,1.4c-1,0.7-1.9,1.6-2.8,2.5
	c-4.6,5-9.3,9.9-13.9,14.9c-2.3,2.4-4.6,4.9-5.6,8.1c-1.5,4.8,0.2,10.5-2.6,14.7c-0.9,1.4-2.3,2.5-3.5,3.7c-4.2,4.1-7,9.4-9.3,14.8
	c-1.7,4.1-3.2,8.4-3.6,12.9c-0.1,0.9-0.1,1.7,0.1,2.6c0.2,1.2,0.9,2.2,1.4,3.3c1.6,3.3,2.1,7,1.4,10.6c-0.4,2.1-1.3,4.3-3,5.6
	c-1.7,1.3-5.3,2.2-6,0.1c-1.6-4.8,0.1-10.3-2.6-14.7c-0.3-0.4-0.6-0.9-1.1-1.1c-0.7-0.3-1.4,0-2.1,0.3c-3.7,1.8-7.1,3.9-10.3,6.5"/>
<path fill="none" stroke="#E1E1E1" stroke-miterlimit="10" d="M240.8,368.7c0.8-1.7,1.2-3.5,3.3-3.8c3.1-0.4,8.1,1.2,10.8-0.5
	c4.9-3,3.8-12.1,9.5-12c1.2,0,2.5,0.5,3.7,0.2c1.3-0.3,2.2-1.6,3-2.7c5-7.7,10.1-15.4,15.1-23.1c3.2-4.8,10-8.8,9.4-14.5
	c-0.7-6.6-9.1-9.8-13.4-14.9c-2.3-2.7-2.8-6-1.8-9.5c1.4-4.7-8.3-5.7-10.2-10.2c-0.8-2-0.5-4.3-0.3-6.5c0.5-8.1,1.9-19.9-5.3-23.6
	c-3-1.5-3.4,10.9-26.4,10.3c-10.6-0.3-20.3-5.8-30.6-8.1c-4.9-1.1-10.4-1.3-14.1-4.7c-4.2-3.8-4.7-10.2-4.7-15.9
	c0-2.4-0.2-5.1-1.9-6.8c-1.8-1.7-4.5-1.7-6.9-2.3c-5.8-1.3-4.7-11.2-10.4-12.9c-2.8-0.8-5,3.5-7.7,2.5c-0.9-0.3-1.7-0.8-2.6-0.8
	c-0.9,0-1.7,0.6-2.5,1.2c-2.3,1.7-4.5,3.4-6.8,5.1c-0.7,0.5-1.3,1-1.7,1.8c-0.9,1.9,0.7,3.9,2,5.5c3.8,4.7,6.1,11.8,2.4,16.6
	c-1.8,2.3-4.7,3.6-6.2,6.2c-0.7,1.3-1,2.8-1.6,4.1c-2.3,5.1-9.9,6.8-14.1,3.2c-1.8-1.5-3.2-3.9-5.5-4.4c-1.2-0.3-2.8-1.9-3.9-1.6
	c-4.5,1-6,3.2-13.5,0.2c-0.9-0.4-1-1.5-1.9-2.1c-4.4-3-10.8-2.4-14.7-6.1c-3.4-3.1-2.5-9-3.7-13.5c-0.7-2.4-1.4-4.9-2.9-6.9
	c-1.4-1.8-3.4-3.2-4.1-5.4c-1.4-3.9,2.1-7.8,2.8-12c0.3-1.5-0.2-3.5-1.7-3.7c-1.1-0.2-2,0.8-2.8,1.6c-5.7,6.4-12.7,12.1-21,14.2
	c-2.5,0.6-5.3,0.9-7.5-0.5c-0.5-0.3-1-0.7-1.6-0.9c-0.8-0.2-1.7,0.1-2.5,0.5c-3.3,1.5-6.2,3.7-9.6,4.9c-3.4,1.2-7.6,1.3-10.2-1.2
	c-0.4-0.3-0.7-0.7-1.2-0.9c-0.4-0.1-0.9,0.1-1.3,0.2c-3.9,1.2-8-1.3-12.1-1.4c-4.7-0.1-8.8,2.8-13.4,3.7c-3.8,0.8-7.9,0.1-11.3-2"/>
<path fill="none" stroke="#E1E1E1" stroke-miterlimit="10" d="M67.5,368c1.1-1.3,2.1-2.6,3.2-3.9c0.7-0.9,1.4-1.8,1.7-2.8
	c0.2-0.8,0.2-1.6,0.3-2.5c0.5-2.7,3-4.5,5.5-5.6c2.5-1.1,5.2-1.9,7.2-3.8c1-0.9,1.8-2.1,3-2.6c2.5-1,5,1.2,7.7,1.7
	c1.3,0.2,2.7,0,4,0.1c1.3,0.2,3.4,0.6,3.9,1.9c5,12.4,22.1,2,29.2-6.5c0.6-0.8,1.2-1.6,1.5-2.5c0.3-1.1,0-2.2-0.2-3.2
	c-1.4-6.4-2.9-13.1-7.1-18.3c-1-1.2-2.1-2.3-2.9-3.6c-1.2-2-1.8-4.3-3.1-6.2c-3.1-4.5-8.5,0.7-11.1-4.1c-0.7-1.2-0.9-2.1-1.6-3.4
	c-0.3-0.7-0.5-1.4-1-2c-0.3-0.4-0.7-0.7-1.1-1c-1.2-0.9-2.3-1.7-3.5-2.6c-0.8-0.6-2.1-1.7-1.4-2.4c1-1.1,2.9,0.3,4.3,0.8
	c2,0.7,4.2,0.7,6.3,0.3c1.3-0.2,2.5-0.6,3.5-1.3c1-0.7,1.8-1.9,2-3.1c0.1-1.4-1.1-2.6-1.3-4.1c-0.3-1.8-0.4-6.1,1-7.3
	c7-5.8,7.3-2.1,13.8-6.6c3.5-2.4,6.5,6.1,10.7,6.1c2.9,0,4.7-3.1,7.3-4.3c3.4-1.6,8.1,0,10.6-2.7c0.6-0.6,1.1-1.5,1.9-1.8
	c1.2-0.5,2.6,0.4,3.6,1.3c6.3,5.5,12.3,12.7,20.6,13.7c2.8,0.4,5.7-0.1,8.5,0.5c2.6,0.5,4.9,1.7,7.4,2.5s5.4,0.9,7.5-0.6
	c2.3-1.7,3.8-5.3,6.6-4.8c2.3,0.4,2.9,3.3,3.6,5.5c0.7,2.3,1.9,4.4,3.6,6.2c0.7,0.8,1.7,0.9,2.7,1.3c1.2,0.6,3.1,0,3.6-0.8
	c2.2-3.3,3.8-8.8,6.5-8.5c4.5,0.6-6.1,12.5-3.2,18.8c1.1,2.4,5.1-1.4,5.3,1.2c0.3,4.7-6.2,7.1-9.3,10.7c-0.3,0.3-0.6,0.7-0.6,1.1
	c-0.1,1.2,1.6,1.5,2.7,1.4c5.9-0.4,11.9,1,17,4c0.4,0.2,0.7,0.4,1,0.8c0.4,0.6,0.3,1.4,0.2,2.1c-0.6,3.4,1.3,8.5-1.7,10.1
	c-4.6,2.3-10.3-1.7-15,0.7c-4.6,2.3-7,9.2-12.1,9.6c-4.7,0.4-10.1,0.5-10.2,5.2c0,3.4,5.4,8.2,2.2,9.4c-2.4,0.9-3.3-1.5-4.8,0.5
	c-0.9,1.1-2.1,3.5-3.1,5.9"/>
<path fill="none" stroke="#E1E1E1" stroke-miterlimit="10" d="M201.7,368.3c1-2.2,0.8-3.9,1.7-6.2c0.5-1.2,1.4-2.1,2.2-3.1
	c0.9-1.1,1.6-2.2,2.2-3.5c0.1-0.2,0.2-0.5,0.2-0.8c0-0.4-0.3-0.7-0.6-0.9c-1.5-1.1-3.5-1.5-5.4-1.1c-1.2,0.3-2.3,1-3.5,0.9
	c-1.5,0-2.8-1.1-4.3-1.3c-2.7-0.4-4.8,2.3-6.2,4.6c-1,1.8-2,3.6-2.4,5.6c-0.4,2-0.3,4.2,0.8,5.9"/>
<path fill="none" stroke="#E1E1E1" stroke-miterlimit="10" d="M108.4-15.7c-0.2,1.5-0.1,3.1,0.8,4.3c1.2,1.5,3.4,1.7,5.1,2.7
	c1.6,0.9,2.8,2.5,4.5,3.2c0.8,0.3,1.6,0.4,2.5,0.5c2.1,0.2,5.1-0.6,6.4,1c2.4,2.8,2.4,6.9,5,9.6c3.6,3.9,7.3,7.9,10.9,11.8
	c2.6,2.8,5.3,5.6,8.8,6.9c1.5,0.5,3.1,0.8,4.6,0.2c1.1-0.5,2-1.4,2.8-2.2c7.4-7.9,14.1-16.4,20.2-25.3c1.5-2.3,3.3-4.5,5.4-6.2
	c0.9-0.7,1.8-1.4,2.5-2.3c1.2-1.5,2.1-3.4,3.8-4.2"/>
<path fill="none" stroke="#E1E1E1" stroke-miterlimit="10" d="M62.9-18c-0.6,2.2,0.2,4.6,1.4,6.6c1.2,2,2.7,3.8,3.9,5.8
	c1.7,2.9,2.4,6.3,2.9,9.6c0.9,6.2-1.6,14.8,3.6,18.2c3,2,7.2-1,10.2-3c0.8-0.5,1.6-1.2,2.5-1.4c0.7-0.1,1.4,0,2.1,0.1
	c2.6,0.4,5.2,0.8,7.8,1.2c0.6,0.1,1.3,0.2,1.9,0.1c0.9-0.1,1.8-0.6,2.7-0.7c3.2-0.3,5.8,3.9,8.9,3.4c4.5-0.7,8.5,3,12.2,5.5
	c7.6,5.1,14.9,10.5,22,16.3c2,1.6,3.9,3.2,5.9,4.8c0.9,0.8,1.9,1.6,2.8,2.4c5.1,4.2,10.2,8.5,14.2,13.8c1.1,1.4,2.3,3.1,4.1,3.2
	c1.9,0.2,3.5-1.4,4.5-3c3.1-4.8,3.9-11.1,2.1-16.5c-0.7-2-1.7-4-1.2-6.1c0.2-1,0.8-1.9,1.4-2.8c2.1-3.1,4.5-5.9,7.3-8.4
	c1.5-1.4,3.2-2.7,4.1-4.6c1.3-2.4,1.1-5.4,2.2-7.9c0.8-1.8,2.2-3.3,3.6-4.7C201.1,8.3,204,0.3,208.2-4c1-1,1.6-1.9,3-2.2
	c2.5-0.5,4.5,1.9,6.7,3.2c1.8,1,4,1.3,6,0.8c1.5-0.4,2.9-1.2,4.5-1c1.3,0.2,2.5,1.1,3.8,1c1-0.1,1.8-1,2.5-1.8
	c3.5-4,6.7-8.4,9.4-12.9"/>
<path fill="none" stroke="#E1E1E1" stroke-miterlimit="10" d="M370.9,256.1c-1.3,5.8-1,12.1-4.3,17.1c-4.4,6.8-9.9,13-13,20.5
	c-1.1,2.7-2,5.7-4.2,7.7c-2.2,2-6.2,2.3-7.7-0.2c-0.3-0.6-0.5-1.2-0.7-1.9c-3.4-14.7,5-29.2,7.9-44.1c3.7-19.3-2.2-39-9.3-57.4
	s-15.5-36.5-17.1-56.1c-0.8-10.1,0.2-20.6-2.8-30.3c-2.4-8-7.5-15.1-13.6-20.8c-5.4-5-11.5-9-17.7-12.9c-3.7-2.4-7.5-4.8-11.2-7.2
	c-2.2-1.4-4.5-2.8-7.1-3.4c-2.1-0.5-4.4-0.3-6.5-0.6c-2.8-0.3-5.2-4-7.8-3.1c-4.5,1.7-7.6,7.1-11.5,4.3c-1.6-1.2-2.9-3-4.8-3.6
	c-3.3-0.9-6.2,2.3-8,5.2c-5.4,8.2-10.8,16.4-16.2,24.5c-0.9,1.4-1.8,2.7-2.4,4.3c-0.9,2.3-1,4.7-1,7.1c-0.2,5.3-0.4,10.5-0.6,15.8
	c-0.2,4.4-0.3,8.8,0.8,13.1c0.9,3.7,2.8,7.7,1.2,11.1c-0.3,0.6-0.7,1.2-1.4,1.5c-0.9,0.4-1.9,0.1-2.9-0.2c-6.2-2-12.5-4.2-18-7.8
	c-5.5-3.6-10.2-8.7-12-15c-1.4-4.8-0.9-10-1.6-14.9c-1.7-12.6-10.5-23.3-21-30.5c-6.1-4.2-12.8-7.5-19.5-10.7
	c-2.1-1-4.3-2.1-6.4-3.1c-6.4-3.1-16.4-2.1-19.6-8.5c-0.6-1.1-1.1-2.4-2.3-2.3c-1.2,0.1-2.2,0.9-3.1,1.8c-3.2,2.8-6.4,5.6-9.5,8.5
	c-3.4,3.1-6.9,6.2-9.2,10.2c-1.3,2.4-2.4,7.6-4.8,6.4c-3.7-1.8-2.3-7.8-4.3-11.4c-0.8-1.4-1.9-2.9-3.5-2.7c-0.4,0.1-0.9,0.3-1.3,0.5
	c-3.9,1.9-8,3.5-12.2,4.6c-6.1,1.7-12.6,2.7-17.8,6.3C35.6,83.1,31.3,92.7,22.7,94c-4.4,0.7-8.7-1.1-12.8-2.8
	C4.3,88.8-1.3,86.4-6.8,84c-0.5-0.2-1.1-0.5-1.4-0.9c-0.3-0.5-0.4-1.1-0.4-1.6c0.1-3.2,2.4-6,4.7-8.2c2.3-2.2,4.8-4.3,7.4-6.1
	c1.6-1.1,3.2-2.2,4.3-3.8C8.6,62,9,60.5,9.4,59.1c1.4-5,4.2-10,8.9-12.2c1.9-0.9,4-1.3,5.9-2.4c5.5-3.3,8.9-8.7,13.3-13.4
	c6.7-7,2.9-19.1,3.6-28.7c0.3-4.1,0.4-8.4-1.4-12.2c-1.4-2.9-4.1-6-2.8-9"/>
<path fill="none" stroke="#E1E1E1" stroke-miterlimit="10" d="M372.3,223.6c-5.4-1.9-9.4-7-12.7-11.9c-6.1-9.3-11.4-19-15.9-29.2
	c-1.7-4-3.3-8.8-0.8-12.4c2.8-4.2,9.2-3.9,13.1-7.1c2.4-2,3.6-5.1,5.9-7.3c2.3-2.2,4.9,0.7,8,0.2c7.5-1.3-0.2-16.1-5.7-21.4
	c-3.6-3.4-8.5-4.8-12.7-7.4c-4.9-3.1-8.6-8.1-10.2-13.8c-1.2-4.4-1.2-9.1-2.2-13.6c-2.7-12.6-12.9-22-22.6-30.6
	c-2.1-1.9-4.3-3.8-7-4.8c-2.3-0.9-4.9-1-7.1-2.1c-6.6-3.2-6.9-12.3-9-19.3c-2.5-8.6-9-16.2-9.2-25.2c-0.1-7.2,0.5-21.1,7.6-19.8
	c0.7,0.1,0.6,1.2,1.3,1.2c0.7,0,1.3-0.5,1.4-1.2c0.1-0.7-0.3-1.4-0.6-2.1c-1.8-3.6-0.6-8.3,2.6-10.7"/>
<path fill="none" stroke="#E1E1E1" stroke-miterlimit="10" d="M369.6,64.1c-2.4,0.1-4.9-0.6-6.9-2c-1.5-1.1-2.8-2.7-4.6-2.7
	c-2.9-0.1-4.9,3.6-7.8,3.4c-3.1-0.2-4.1-4.3-6.2-6.7c-2.1-2.5-5.7-3.1-8.2-5.1c-4.4-3.5-4.8-10.3-2.9-15.6s5.7-9.7,8.4-14.7
	c1.7-3,3-6.3,3.9-9.6c0.7-2.7,1.2-5.6,1.6-8.4c0.2-1.5-0.3-3.3,0.7-4.4c0.7-0.7,1.3-1.3,1.6-2.2s0.2-1.8,0.2-2.8
	c-0.1-2-0.2-3.9-0.3-5.9c-0.1-1.4-0.2-2.9-0.3-4.3c0-0.3-0.2-0.8-0.5-0.7"/>
<path fill="none" stroke="#E1E1E1" stroke-miterlimit="10" d="M-13.4,279.5c3.1,2.2,5.3,5.7,6,9.5c0.4,2.2,0.3,4.5,0.1,6.7
	c-0.3,5.8-0.6,11.6-0.9,17.4c-0.1,2.4-0.2,4.8,0.4,7s2.3,4.4,4.6,5c1.9,0.5,4-0.1,5.8,0.8c1.5,0.8,2.3,2.4,3.6,3.5
	c1.6,1.3,4-0.4,5.7,0.7c1.3,0.8,0,3.1,0,4.6c0,3.9,0.2,8.3,2.9,11.2c2.2,2.3,5.5,3.2,8.7,3.3c0.9,0,1.9,0,2.6,0.5
	c1.2,0.9,1.2,2.8,0.4,4.1c-0.8,1.3-2.1,2.2-3.1,3.3c-1.1,1.1-2,2.6-1.6,4c0.3,1.4,1.7,2.3,2.7,3.3c1.2,1.2,2.1,2.7,2.5,4.4"/>
<path fill="none" stroke="#E1E1E1" stroke-miterlimit="10" d="M-12,60.9c2.4-6.5,9.7-9.6,14.5-14.7C3.8,44.7,5.1,43,7,42.8
	c1-0.1,2.1,0.1,2.8-0.5c0.6-0.4,0.7-1.2,1-1.8c0.6-1.5,1.9-2.8,3.4-3.4c1.1-0.5,2.5-0.7,3.2-1.6c0.5-0.6,0.6-1.5,0.8-2.2
	c0.4-1.5,1.3-2.8,2.4-3.8c1-0.8,2.2-1.5,2.6-2.7c0.3-0.8,0.2-1.6,0.1-2.4C22.8,17.8,24,11,26.8,4.9c0.5-1.2,1.1-2.4,1.1-3.7
	c-0.1-1.8-1.6-3.3-2-5.1c-0.5-2.1,0.5-4.3-0.1-6.4c-0.2-0.8-0.7-1.4-1-2.2c-0.9-2.1-0.9-4.5,0.1-6.6"/>
<path fill="none" stroke="#D6D6D6" stroke-miterlimit="10" d="M309.6,311.5c-4.8-0.4-9.6,0-14.3,1.2c-1.9,0.5-3.8,1.1-5.7,1.2
	c-2.9,0.1-5.8-0.9-8.7-0.5c-3.2,0.4-5.9,2.4-8.7,3.9c-2.4,1.3-5,2.4-7.6,3.4c-2.1,0.8-4.1,1.6-6.3,1.9c-1.5,0.2-3,0.1-4.4,0.4
	c-2.3,0.4-4.4,1.7-6.6,2.4c-3.2,1.1-6.7,0.9-10.1,0.9c-7.3,0-11.4-1.3-17.2-2.6c-0.9-0.2-2.5-0.7-3.5-1"/>
<path fill="none" stroke="#D6D6D6" stroke-miterlimit="10" d="M280.7,216.8c-3.5-2.8-7-5.6-10.5-8.4c-2.7-2.2-5.5-4.5-6.7-7.7
	c-1.9-5.5,1.5-11.2,2.8-16.8c1.8-7.9-1.2-16.7-7.3-22c-2.2-1.9-4.7-3.3-6.7-5.3c-2-2-3.5-4.8-3-7.6c0.5-2.5,2.5-4.4,3.5-6.8
	c1.3-3.3,0.5-7-0.4-10.4c-2.1-8.1-4.3-16.6-9.5-23.1c-1.8-2.3-4.1-4.4-4.6-7.3c-0.3-1.5-0.1-3,0.2-4.5c1.8-8.6,6.3-16.5,8.2-25.1
	c1.8-8.3,1.1-17,2.8-25.3c1.6-8,4.6-15.7,7.5-23.3c3.2-8.2,1.2-13.9-2-20.7c-0.8-1.8,0.5-4.3,0.7-4.5c1.8-2.7,2.3-4.1,4.4-6.6
	c1.8-2,3.7-4.1,4.2-6.8"/>
<path fill="#EAEAEA" stroke="#D6D6D6" stroke-miterlimit="10" d="M312.4,179.2c-0.6-1.1-2.1-1.2-3-2c-0.9-0.9-0.8-2.3-0.8-3.6
	c0-1.2,0.1-2.9-1.1-3.2c-1.9-0.4-3.4,2.4-5.2,3.1c-0.7,0.2-1.4,0.2-2,0.6c-0.5,0.4-0.7,1-0.9,1.6c-1.8,5.9-3.3,11.9-4.4,18
	c-0.1,0.5-0.2,1,0,1.5c0.2,0.6,0.7,1.1,1.2,1.5c1.7,1.4,3.5,2.8,5.2,4.2c1.1,0.9,2.3,1.8,3.6,2.2c1.4,0.4,3.1,0.4,3.9-0.8
	c0.2-0.3,0.4-0.7,0.7-1c1.5-1.5,3.9,0.6,6-0.7c1-0.6,1-2,1.1-3.1c0-1.5,0-3.1,0-4.6c0-2.2,0.7-4.4-0.5-6.3c-0.9-1.5-3-3.1-3.2-4.8
	C312.9,180.9,312.9,180.1,312.4,179.2z"/>
<path fill="#7BBCEB" stroke="#4E9BD7" stroke-miterlimit="10" d="M174.7,184.1c1.1,1.7,2.4,3.6,4.4,3.7c1.4,0.1,2.7-0.7,3.8-1.5
	c0.5-0.4,1.1-0.8,1.4-1.3c0.2-0.5,0.2-1,0.2-1.5c0-1.2,0.2-2.2,0.1-3.4c0-1.5,0.5-3.5,0.9-5c0.6-2.2,2-4.4,1.4-6.5
	c-0.6-2-2.8-3.1-4.9-3.6c-0.9-0.2-2.6,0.2-3.4,0.5c-1.2,0.4-2,1.5-2.5,2.7c-0.5,1.1-0.6,2.8-1.1,3.9c-0.7,1.7-2.2,2.7-2.6,4.5
	C171.8,179.1,173.3,181.8,174.7,184.1z"/>
<path fill="none" stroke="#D6D6D6" stroke-miterlimit="10" d="M297.8,198.2c-7.4,4.8-14.5,11.9-18,20.1c-3,7.2-4,15.4-8.8,21.5
	c-1.8,2.3-4.1,4.2-5.5,6.8c-3,5.5-1.1,13-4.9,18c-3.7,5-11.6,5.7-14.8,11c-0.8,1.2-1.2,2.7-2.1,3.8c-1.3,1.9-3.4,3-5,4.5
	c-4.2,3.9-5.3,10.1-8.2,15c-2.3,3.9-5.6,7-8.1,10.8c-2.5,3.9-4.2,12.6-6,12.7c-5.5,0.5-9.8,2.5-14.8,3.8c-1,0.3-2,0.5-3.1,0.8
	c-2.7,0.7-5.5,1.4-8.1,0.4c-2.3-0.8-4-2.7-5.5-4.6c-6-7.9-6.4-8.4-8.3-8.7"/>
<path fill="none" stroke="#D6D6D6" stroke-miterlimit="10" d="M164.4,335.1c-0.1,0.6-0.6,1.4-0.2,1.9c0.6,0.8,2,0.5,2.8,1.1
	s1.3,1.7,1.1,2.6c-0.4,1.4-2.1,1.9-2.9,3.1c-0.9,1.5-0.1,3.6-1,5c-0.4,0.6-1,1-1.6,1.4c-8.1,5.2-15.8,11.1-23.5,17
	c-0.8,0.6-1.5,1.2-2.3,1.8"/>
<path fill="#EAEAEA" stroke="#D6D6D6" stroke-miterlimit="10" d="M157.5,332.8c1.4,0.6,2.8,1.6,4.3,1.8c2.9,0.5,5.9-0.6,8.3-2.2
	c2.9-2,4.8-3.2,2.9-9c-0.2-0.7,1.4,0.3,1.9-0.3c0.6-0.6-1.1-1.5-1-2.4c0.2-1.2,1.9-1,2.1-2.2c0.2-1.1,0.1-2.8,0.3-3.9
	c0.1-0.3,0.1-0.5,0.1-0.8c-0.1-1.2-0.9-2.3-2-1.7c-2.1,1.1-1.9,2.2-6.5,2.2c-2.9,0-0.8-3.5-1.9-4.6c-1.2-1.2-4.2-1.4-5-2.9
	c-0.3-0.6-0.5-1.3-0.8-1.9c-0.7-1.2-2.3-1.6-3.7-1.4s-2.6,0.9-3.8,1.5c-0.6,0.4-1.3,0.7-1.7,1.3c-0.4,0.5-0.6,1.2-0.9,1.7
	c-2.3,4.8-8.8,3.4-9.8,6.9c-0.6,1.9,0.6,3.9,1.8,5.6C146.1,325.8,151.5,330.1,157.5,332.8z"/>
<path fill="#EAEAEA" stroke="#D6D6D6" stroke-miterlimit="10" d="M185.7,239.8c-0.1-0.6,0-1.3-0.3-1.8c-0.4-0.7-0.6-0.8-1.4-0.9
	c-0.9-0.1-1.8-0.3-2.6-0.7s-2.2-3-2.3-3.5c-0.2-0.6-0.9-1.3-1.4-1c-1.1,0.6,0,2.8,0.5,4c0.6,1.3,1,2.3,1.6,3.4
	c1.5,2.3,1.7,4.3,3.2,6.7c0.4,0.7,1,1.5,1.9,1.5c0.6,0,1.1-0.4,1.4-0.9c0.8-1.1,1.1-2.6,0.6-3.9
	C186.6,241.8,185.9,240.9,185.7,239.8z"/>
<path fill="none" stroke="#D6D6D6" stroke-miterlimit="10" d="M120.7,246.3c1,3.6,2.1,7.2,3.1,10.8c0.6,2.1,1.2,4.3,2.3,6.2
	c0.9,1.7,2.2,3.1,3.2,4.7c2.6,4.1,3.5,9.2,2.6,14c-0.3,1.6-0.8,3.2-0.6,4.8c0.3,1.9,1.4,3.7,2.9,5c6.1,5.2,12.3,11.1,15.4,16.8"/>
<path fill="none" stroke="#D6D6D6" stroke-miterlimit="10" d="M50.3,129.3c-1.2,3.8,1,7.6,2.7,11.2c2.5,5.3,4.1,11.1,5.4,16.8
	c1.1,4.9,3.6,7.2,4.9,12.1c3.2,11.8,14.1,18.8,18.6,28c0.3,0.6,0.5,1.3,0.4,2c-0.1,1.1-0.8,1.9-1.4,2.8c-4.6,6.1-6.7,14.1-5.6,21.7
	c0.3,2.5,1,5,0.9,7.5c-0.2,2.5-1.1,4.8-1.7,7.2c-1.8,7.3-0.1,15.5,4.5,21.5c1.2,1.6,2.1,3.5,3.6,4.8c3.8,3.3,3.1,5.6,1.4,10.7
	c-0.3,0.9-0.2,4.7-0.8,5.5c-1.2,1.6-3.6,1.6-5.2,2.9c-1.6,1.2-2,3.4-2.2,5.5c-0.1,2-0.1,4.2-1.2,5.9c-1.1,1.7-3.3,2.2-5.3,2
	c-2.2-0.2-6.4,3-6.6,0.7c-0.1-1.6,1.7-3,0.5-4c-1.2-1-2.4,1.6-3.9,1.1c-1.2-0.4-1.4-2.1-2.6-1.6s-2,1.6-3,2.4c-1,0.8-2.1,0-3.4,0.1
	c-1.9,0,1.3,2.9,1.5,4.8c0.2,2.1-4.1,1.3-5.9,0.3c-0.6-0.3-1.2-0.8-1.8-1.1c-1.5-0.6-3.3,0.1-4.8-0.7c-0.7-0.4-1.3-1.1-2.1-1
	c-2.4,0.2-0.6,6.1-3,5.7c-2.6-0.4-4.9-2.2-7.3-3.2c-2.7-1.2-5.2-3.7-7.9-4.9c-3.5-1.6-7.3-1.8-10.4-4.1c-2.1-1.5-4-3.4-6.4-4.5
	c-4.9-2.3-10.7-1-15.9,0.7"/>
<g>
	<g>
		<path fill="none" stroke="#585858" stroke-miterlimit="10" d="M270.1,322.8c0.1-0.6,0.1-1.3,0.1-2"/>
		<path fill="none" stroke="#585858" stroke-miterlimit="10" stroke-dasharray="4.0221,1.0055" d="M270.1,319.8
			c-0.4-3-1.7-6.4-1.1-9c0.3-1.4,1.2-2.7,1.4-4.1c0.2-1,0-2.1,0-3.1c-0.1-2.3,0.1-4.7,0-7c-0.7-8.5-7.1-16.1-5.8-24.5
			c0.6-4.2,3.1-7.8,4.3-11.8c1.7-5.4-0.4-12.2,3-16.8c3.5-4.9,7-15.2,10.5-19.4c3.4-4,2.3-6.7,5.6-13.4c1-2,3.8-2.2,5.2-3.9
			c2.1-2.6,1.3-6.6-0.3-9.6c-5-9.3-16-14.5-20-24.3c-1.9-4.6-1.9-10-0.1-14.6c1.6-4.1,4.4-7.5,6.1-11.5c2.4-5.6,2.3-12,2.2-18.1
			c-0.1-3.3-0.1-6.6-0.8-9.9c-1.3-6.1-4.8-11.9-3.8-18c1-6.3,6.5-12.4,3.8-18.2c-1.4-3-4.7-4.7-7.4-6.7c-2.7-2-5.1-5.4-3.8-8.5
			c0.4-1.1,1.3-2,1.4-3.1c0.2-2.3-2.5-3.6-4.4-5c-4-3-4.8-8.6-4.9-13.6c-0.1-5,0.2-10.4-2.7-14.5c-1.5-2.2-3.7-3.7-5.1-5.9
			c-1.5-2.2-1.3-8.1-2-10.7c-1.6-6.7-5.8-9.9-5.6-16.8c0-1.6,1.9-2.8,3.2-3.5c1.6-0.8,3.3-1.5,4.9-2.5c1.5-1,3-2.3,3.7-3.9
			c0.7-1.8,0.6-3.8,0.7-5.8"/>
		<path fill="none" stroke="#585858" stroke-miterlimit="10" d="M258.2-18.3c0.1-0.7,0.2-1.3,0.3-2"/>
	</g>
</g>
<g>
	<g>
		<path fill="none" stroke="#585858" stroke-miterlimit="10" d="M371.2,319.5c-0.7,0-1.3,0.3-1.9,0.6"/>
		<path fill="none" stroke="#585858" stroke-miterlimit="10" stroke-dasharray="3.9784,0.9946" d="M368.4,320.5
			c-0.5,0.3-1,0.6-1.5,0.9c-1.4,0.8-3.9,1.7-4.5,0.2c-0.8-2.1-2.4-3.8-4.6-3.7c-2.3,0.1-4.4,1.2-6.6,1.5c-2.2,0.3-4.4-0.2-6.5-0.7
			c-2.3-0.5-4.6-1-6.9-1.6c-2.6-0.6-5.6-1.1-7.8,0.4c-1.2,0.9-2.1,2.3-3.6,2.7c-0.8,0.2-1.7,0-2.4-0.5c-1.2-1-1.4-2.7-1.8-4.2
			s-1.2-3.2-2.8-3.3c-1.3-0.1-2.3,1-3.3,1.9s-3,2.2-3.4,1c-0.3-0.7,0.3-1.8-0.4-2.2c-4.2-2.5-9.9,1.5-13.5,4.9
			c-1.2,1.2-2.4,2.7-4.1,3.1c-1.1,0.3-2.2,0.1-3.3-0.1c-2.1-0.3-4.2-0.7-6.2-1c-4.2-0.7-8.7-1.3-12.5,0.7c-3.4,1.9-5.6,7.7-9.5,7.4
			c-2-0.2-4.7-1.7-6.7-0.9c-14.5,5.5-29,1-44,1c-3,0-5,2-8,2c-2,0-3.9-1.1-5-2c-4.8-4.3-4-11-8-15c-1-1-2-2.9-4-4
			c-7.1-3.8-13-6-20-9c-9-3.9-18.4-1.6-26,5c-1.1,0.9-4.2,0.5-5,0c-6.9-4.5-13.4-7.5-22.6-5.7c-3.9,0.8-7.6,3.1-11.2,4.6
			c-1.9,0.8-3.8,1.6-5.8,1.6c-3.2-0.1-6.2-2.3-9.3-1.6c-1.5,0.3-2.8,1.4-4.4,1.5c-1.5,0.1-3-0.7-4.4-1.3c-4.3-1.8-9.2-2.1-13.6-0.8
			c-3.2,0.9-6.1,2.6-9.2,3.7c-3.1,1.1-6.7,1.5-9.6-0.1c-0.9-0.5-1.7-1.1-2.7-1.3c-2.1-0.3-3,2.1-3.9,4c-0.9,1.9-2.8,3.8-4.9,3.9
			c-2.1,0.2-3.7-1.8-5.6-2.6c-4.7-2-9.9,3-15,2c-1.6-0.3-3-1.2-4.6-1.2c-2.6,0-5.1,5.7-7.3,7.1c-4.3,2.7-9,1.1-13,4"/>
		<path fill="none" stroke="#585858" stroke-miterlimit="10" d="M-10.9,323.3c-0.5,0.4-1,0.9-1.4,1.4"/>
	</g>
</g>
<g>
	<g>
		<path fill="none" stroke="#585858" stroke-miterlimit="10" d="M140.4,305.6c0.6,0.6,0.7,0.8,0.9,1.6c0,0.1,0,0.1,0,0.2"/>
		<path fill="none" stroke="#585858" stroke-miterlimit="10" stroke-dasharray="3.6165,0.9041" d="M141.4,308.3
			c-0.2,2.4-3.4,4-3.6,6.8c-0.2,4,1.6,7.1,3.3,9"/>
		<path fill="none" stroke="#585858" stroke-miterlimit="10" d="M141.5,324.4c0.5,0.5,1.1,1,1.5,1.3"/>
	</g>
</g>
<text transform="matrix(1 0 0 1 145.049 162.5989)"><tspan x="0" y="0" fill="#7BBCEB" font-family="'Verdana-Italic'" font-size="8">Minnow</tspan><tspan x="0" y="9.6" fill="#7BBCEB" font-family="'Verdana-Italic'" font-size="8">Lake</tspan></text>
<text transform="matrix(1 0 0 1 240.9629 192.9138)"><tspan x="0" y="0" fill="#585858" font-family="'Verdana-Italic'" font-size="8">Royal Arch</tspan><tspan x="24.3" y="9.6" fill="#585858" font-family="'Verdana-Italic'" font-size="8">Lake</tspan></text>
<text transform="matrix(1 0 0 1 141.5054 286.6147)"><tspan x="0" y="0" fill="#585858" font-family="'Verdana-Italic'" font-size="8">Johnson</tspan><tspan x="0" y="9.6" fill="#585858" font-family="'Verdana-Italic'" font-size="8">Lake</tspan></text>
<path fill="none" d="M193.7,245.3c3.7,3.4,9.2,3.6,14.1,4.7c10.3,2.3,20,7.8,30.6,8.1"/>
<text transform="matrix(0.9746 0.2241 -0.2241 0.9746 205.3221 251.9967)"><tspan x="0" y="0" fill="#7D7D7D" font-family="'Verdana-Italic'" font-size="7">8</tspan><tspan x="4.3" y="0" fill="#7D7D7D" font-family="'Verdana-Italic'" font-size="7" rotate="3.8">6</tspan><tspan x="8.7" y="0.3" fill="#7D7D7D" font-family="'Verdana-Italic'" font-size="7" rotate="5.8">0</tspan><tspan x="13" y="0.8" fill="#7D7D7D" font-family="'Verdana-Italic'" font-size="7" rotate="6.1">0</tspan></text>
<path fill="none" d="M309.5,64.2c2.7,1,4.9,2.9,7,4.8c9.7,8.6,19.9,18,22.6,30.6"/>
<text transform="matrix(0.736 0.677 -0.677 0.736 317.4876 73.3419)"><tspan x="0" y="0" fill="#7D7D7D" font-family="'Verdana-Italic'" font-size="7">9</tspan><tspan x="4.4" y="0" fill="#7D7D7D" font-family="'Verdana-Italic'" font-size="7" rotate="1.7">2</tspan><tspan x="8.7" y="0.1" fill="#7D7D7D" font-family="'Verdana-Italic'" font-size="7" rotate="4.3">0</tspan><tspan x="13" y="0.4" fill="#7D7D7D" font-family="'Verdana-Italic'" font-size="7" rotate="7.8">0</tspan></text>
<path fill="none" d="M291.6,344.4c2.4-1.5,5.2-2.4,7.8-3.5c9.9-4,18.4-11.4,23.9-20.6"/>
<text transform="matrix(0.8874 -0.461 0.461 0.8874 302.6449 342.3209)"><tspan x="0" y="0" fill="#7D7D7D" font-family="'Verdana-Italic'" font-size="7">8</tspan><tspan x="4.7" y="0" fill="#7D7D7D" font-family="'Verdana-Italic'" font-size="7" rotate="-5.2">8</tspan><tspan x="9.3" y="-0.4" fill="#7D7D7D" font-family="'Verdana-Italic'" font-size="7" rotate="-10.3">0</tspan><tspan x="13.9" y="-1.3" fill="#7D7D7D" font-family="'Verdana-Italic'" font-size="7" rotate="-15.3">0</tspan></text>
<path fill="none" d="M27.1,123.9c1-3.2,3.3-5.7,5.6-8.1c4.6-5,9.3-9.9,13.9-14.9"/>
<text transform="matrix(0.6831 -0.7304 0.7304 0.6831 33.1405 119.0303)"><tspan x="0" y="0" fill="#7D7D7D" font-family="'Verdana-Italic'" font-size="7">8</tspan><tspan x="4.4" y="0" fill="#7D7D7D" font-family="'Verdana-Italic'" font-size="7">8</tspan><tspan x="8.9" y="0" fill="#7D7D7D" font-family="'Verdana-Italic'" font-size="7">0</tspan><tspan x="13.4" y="0" fill="#7D7D7D" font-family="'Verdana-Italic'" font-size="7" rotate="0">0</tspan></text>
<path fill="none" d="M159.8,22.1c7.4-7.9,14.1-16.4,20.2-25.3"/>
<text transform="matrix(0.6595 -0.7517 0.7517 0.6595 164.6952 20.5596)"><tspan x="0" y="0" fill="#7D7D7D" font-family="'Verdana-Italic'" font-size="7">9</tspan><tspan x="4.5" y="0" fill="#7D7D7D" font-family="'Verdana-Italic'" font-size="7" rotate="-1.2">4</tspan><tspan x="9" y="-0.1" fill="#7D7D7D" font-family="'Verdana-Italic'" font-size="7" rotate="-2.5">0</tspan><tspan x="13.5" y="-0.3" fill="#7D7D7D" font-family="'Verdana-Italic'" font-size="7" rotate="-3.7">0</tspan></text>
<g>
	<g>
		<polyline fill="none" stroke="#7D7D7D" stroke-miterlimit="10" points="85.2,341.6 85.2,348.7 275.4,348.7 275.4,341.7 		"/>
		<line fill="none" stroke="#7D7D7D" stroke-miterlimit="10" x1="180.5" y1="341.4" x2="180.5" y2="348.7"/>
		<line fill="none" stroke="#7D7D7D" stroke-miterlimit="10" x1="161.2" y1="349.2" x2="161.2" y2="343.7"/>
		<line fill="none" stroke="#7D7D7D" stroke-miterlimit="10" x1="142.4" y1="349.2" x2="142.4" y2="343.7"/>
		<line fill="none" stroke="#7D7D7D" stroke-miterlimit="10" x1="123.3" y1="349.2" x2="123.3" y2="343.5"/>
		<line fill="none" stroke="#7D7D7D" stroke-miterlimit="10" x1="104.6" y1="349.2" x2="104.6" y2="343.7"/>
	</g>
	<text transform="matrix(1 0 0 1 83.7836 339.1469)" fill="#7D7D7D" font-family="'Verdana'" font-size="8">0</text>
	<text transform="matrix(1 0 0 1 174.2947 339.1469)" fill="#7D7D7D" font-family="'Verdana'" font-size="8">0.5</text>
	<text transform="matrix(1 0 0 1 258.3416 339.1469)" fill="#7D7D7D" font-family="'Verdana'" font-size="8">1 mi</text>
</g>
</svg>
