<?xml version="1.0" encoding="utf-8"?>
<!-- Generator: Adobe Illustrator 17.1.0, SVG Export Plug-In . SVG Version: 6.00 Build 0)  -->
<!DOCTYPE svg PUBLIC "-//W3C//DTD SVG 1.1//EN" "http://www.w3.org/Graphics/SVG/1.1/DTD/svg11.dtd">
<svg version="1.1" id="Layer_1" xmlns="http://www.w3.org/2000/svg" xmlns:xlink="http://www.w3.org/1999/xlink" x="0px" y="0px"
	 viewBox="0 0 360 360" enable-background="new 0 0 360 360" xml:space="preserve">
<path fill="none" stroke="#E1E1E1" stroke-miterlimit="10" d="M302.3,366.2c1.3-2.7,4.8-3.4,7.8-3.8c8.9-1,17.7-2.1,26.6-3.1
	c3-0.3,6-0.7,9-0.2c2.1,0.4,4.2,1.2,6.3,1.8c3.4,0.9,7.7,2.7,10.6,0.7c2.8-1.9,5.7-3.2,9.1-3.2"/>
<path fill="none" stroke="#E1E1E1" stroke-miterlimit="10" d="M178,370c0.3-2.5,1.7-4.9,3.7-6.5c1.1-0.9,2.6-1.7,2.9-3.1
	c0.6-2.9-4.9-6.2-2.5-8c1.6-1.3,4.4,0.1,6.1-1.1c3.3-2.3,4.9-6.2,8.3-8.3c0.8-0.5,1.6-0.9,2.5-0.9c0.7,0,1.4,0.4,2,0.7
	c1.3,0.8,2.7,1.5,4,2.3c2.2,1.2,2.5,3.4,3.4,5.7c1.3,3.4,6.3,3.3,9.6,4.9c1.8,0.9-0.7,4,0.8,5.2c0.5,0.4,1.1,0.3,1.7,0.4
	c1.7,0.3,1.3,2.6,2.5,3.8c1.3,1.3,3.8-0.5,5.5,0.4s2.8,2.9,2.2,4.7"/>
<path fill="none" stroke="#E1E1E1" stroke-miterlimit="10" d="M283.7,352.1c-0.7,0.7-0.8,1.9-0.3,2.8c0.5,0.9,1.8,1.7,2.6,1.1
	c1.3-1.1,2-4,0.7-5C285.8,350.4,284.4,351.3,283.7,352.1z"/>
<path fill="none" stroke="#E1E1E1" stroke-miterlimit="10" d="M130.5,368c-1.9-1.4-0.2-4.5,1.9-5.5c2.1-0.9,4.7-1,6.4-2.7
	c0.8-0.8,1.3-1.9,2-2.7c1.1-1.3,2.7-2.1,4.3-2.8c6-2.8,12.1-5.5,18.1-8.3c2.7-1.2,5.3-2.4,7.8-4c5-3.1,9.2-7.6,14.5-10.2
	c5.8-2.8,12.4-3,18.8-3.2c7.7-0.2,16.2-0.2,22.1,4.7c1.9,1.6,3.5,3.7,5.8,4.4c7.2,2.3,14.7-1.7,20.9-6.1c3.3-2.4,2-8.3,5.8-10
	c1.3-0.6,2.9-1,3.8-2.1c0.7-0.8,0.9-1.9,1.4-2.9c2.8-6.1,12.2-6,16-11.5c0.6-0.9,1.1-2,1.9-2.8c0.8-0.8,1.9-1.2,2.9-1.6
	c3.6-1.5,7.3-3,10.9-4.5c8.6-3.5,17.7-7.1,27-6.3c7.9,0.7,15.1,4.6,22.1,8.5c3.3,1.8,6.7,3.7,9.2,6.5c2.6,3,4,6.8,6.3,9.9
	c2.3,3.2,6.2,5.8,10,4.9"/>
<path fill="none" stroke="#E1E1E1" stroke-miterlimit="10" d="M101.9,371.5c2.3-6.1,7.8-10.9,14.1-12.5c1.1-0.3,2.3-0.5,3.2-1.1
	c0.8-0.5,1.3-1.2,2-1.9c2.9-2.7,7.1-3.1,10.9-4.4c3.7-1.3,4.6-5.1,6.7-8.4c3-4.6,10.6-2.9,15.5-5.4c2-1,2.6-3.2,4.2-4.9
	c4.6-5.1,13.5-3.1,19-7.2c1.3-1,2.6-2.1,4-3c3-1.9,6.5-2.9,10-2.9c4,0,7.9,1.4,11.9,1.4c1.2,0,2.4-0.1,3.6,0.2
	c1.2,0.3,2.2,1.1,3.3,1.5c2.1,0.6,4.2-0.2,6.4-0.3c6.3-0.2,11.5,4.7,17.1,7.7c1.7,0.9,8.7-0.4,11.2-3.7c6.7-9,2.4-10.2,4.6-11.3
	c3.9-2,6-4.3,8.3-8.3c1.3-2.3,2.9-3.4,5-5c2.2-1.6,4.8-1.3,6.8-3.1c3.2-2.9,5.6-6.4,9.5-8.4c1.4-0.7,3.2-0.4,4.6-1.1
	c9.9-4.8,20.8-7.1,31.6-9.3c6.5-1.3,14.1-2.4,19,2.1c1.8,1.7,3,4,4.9,5.6c1.9,1.6,5.1,2.1,6.7,0.2c0.3-0.3,0.5-0.8,0.9-0.9
	c0.9-0.4,1.6,0.9,2,1.8c1.4,3.4,5.7,3.2,9.1,4.8c3.6,1.7,3.7,7.1,5.5,10.6c0.4,0.9,0.9,1.7,1.6,2.4c1.9,1.6,5.5,1.7,5.7,4.1"/>
<path fill="none" stroke="#E1E1E1" stroke-miterlimit="10" d="M71.5,369.3c4.5-5.1,10.8-8.2,15.8-12.8c6-5.5,10-12.8,12.6-20.5
	c0.8-2.4,1.7-5.1,3.7-6.7c1.3-1,2.9-1.4,4.4-1.7c3.4-0.8,6.8-1.4,10.3-1.9c0.6-0.1,1.2-0.2,1.8,0c1.1,0.3,1.7,1.5,2.5,2.4
	s1.8,0.3,3,0.4c1.1,0,0.7,2.2,1.6,2.7c1.4,0.9,3.1-1.1,3.7-2.5c0.6-1.5-0.8-4.1,0.7-4.7c1.6-0.7,3.3,1.1,4.9,0.6
	c1.7-0.5,3.2-1.4,4.9-1.9c1.5-0.4,3.1-0.4,4.6-0.8s3-1.4,3.4-2.9c0.6-2.2-1.4-4.3-3.5-5.5c-2-1.1-4.4-2.1-5.4-4.3
	c-0.5-1.2-0.5-2.6-0.4-4c0.3-3.5-1.9-8.8,1.2-10.5c1.9-1,4.4,0.6,6.1-0.7c0.5-0.4,1-0.9,1.6-1.1c0.7-0.3,1.4-0.2,2.2-0.1
	c4.5,0.5,8.9,1.6,13.1,3.2c0.8,0.3,1.7,0.7,2,1.5c0.2,0.6,0.1,1.2-0.1,1.8c-1,3.8-6.5,6.3-5.6,10.1c0.6,2.3,4.2,2.6,5.2,4.7
	c0.3,0.6,0.5,1.2,1.1,1.5c0.7,0.3,1.6-0.1,2.4-0.3c0.8-0.1,1.5,0.1,2.3,0.3c4.9,0.9,9.1-1.2,13-4.4c0.8-0.6,3.2-3.4,4.2-3.5
	c0.8-0.1,1.9,0.4,2.7,0.7c3.3,1,7.5,2.5,8.3,3.6c0.3,0.4,4.2,0.9,4.7,0.9c5.8,0,10.6,3.5,19.3,3.9c4.6,0.2,9-1.1,13.4-2.3
	c1.8-0.5,3.7-1.1,5.2-2.2c3.1-2.4,0.4-6.8,1.6-10.6c1.2-3.9,7-3.8,10.6-5.7c8.6-4.6,15.5-12,24.7-15.5c2.3-0.9,4.7-1.2,6.9-2.2
	c11.3-5.1,24.4-3.3,36.6-1.3c3.7,0.6,7.4,1.2,10.7,2.9c1.5,0.8,2.9,1.7,4.5,2.2c1.6,0.4,2.9-1.3,4.6-1.1c1.6,0.2,0.3,3.9,1.8,4.5
	c2.2,0.8,2.2-4.5,4.4-5.2c4.5-1.5,8.6,4.8,11.4,8.6c3.1,4.3,6.9,8.5,12.2,8.1"/>
<path fill="none" stroke="#E1E1E1" stroke-miterlimit="10" d="M76.6,312.9c-0.8,0.5-1.6,1-2.1,1.8s0.3,1.8-0.3,2.5
	c-0.7,0.8-2,0.1-2.5,1.2s0,2.6-0.4,3.8c-1.2,3.6-2.5,7.5-2.8,11.4c-0.2,2.2-2.4,3.8-3.1,5.9c-0.7,2.4-0.5,4.9-0.3,7.4
	c0.2,1.9,0.3,3.7,0.5,5.6c0.1,1,0.3,2.1,1.1,2.6c0.6,0.3,1.4,0.2,2,0c2.7-1,4.5-2.6,6-5c1.1-1.8,3.2-3.9,4.3-5.7
	c2.5-3.9,4.7-7.1,4-11.7c-0.3-1.8-1.3-5.6-1-7.3c0.2-1.1,0.2-1.6,0.7-2.5c1.1-2.2,1.9-4.7,1.3-7.1s-2.9-4.4-5.3-3.9
	C77.9,312,77.2,312.4,76.6,312.9z"/>
<path fill="none" stroke="#E1E1E1" stroke-miterlimit="10" d="M107.4,300.1c1.4,1.5,3.5,2.5,5.5,2.5c2.1,0,3.8-1.5,5-3.1
	c1.7-2.2,3.4-7.2,4-10.9c0.5-2.9,0.4-6,1-8.9c0.7-3.1,2.1-6,3.5-8.8c1.9-3.7,6.2-7.1,5.6-11.2c-0.2-1.3-2.4-1.2-3.7-0.8
	c-1.3,0.4-2.4,1.2-3.4,1.9c-9.2,6.8-18.4,13.6-27.3,20.8c-1.3,1.1-2.6,2.2-3.3,3.7s-0.5,3.6,0.8,4.6c0.7,0.5,1.6,0.7,2.2,1.2
	c2.3,1.7,1.4,6.1,4.1,7.2c1.4,0.6,3-0.1,4.4,0.5C106.4,299,106.9,299.6,107.4,300.1z"/>
<path fill="none" stroke="#E1E1E1" stroke-miterlimit="10" d="M191.2,243.2c0.7,1,2.1,1.4,3.3,1.3s2.8-1.3,2.2-2.3
	c-0.7-1.2-2.6-1.3-4-1C191.9,241.4,190.7,242.4,191.2,243.2z"/>
<path fill="none" stroke="#E1E1E1" stroke-miterlimit="10" d="M197.8,232.3c0.9-1.1,0.7-3-0.5-3.8c-1.3-0.8-3.2-0.2-3.8,1.2
	c-0.4,1.1,0.1,2.5,1.1,3.1C195.6,233.4,197,233.2,197.8,232.3z"/>
<path fill="none" stroke="#E1E1E1" stroke-miterlimit="10" d="M218.7,217.3c-0.5,0.3-0.9,0.6-1.2,1c-0.5,0.7-0.4,1.7,0.2,2.3
	c0.4,0.4,1.1,0.6,1.6,0.9c0.6,0.3,1.1,0.7,1.1,1.4c0,0.2,0,0.5,0.1,0.7c0.1,0.2,0.4,0.3,0.6,0.3c3.6,0.6,7.5-1.1,9.5-4.1
	c0.3-0.5,0.7-1.1,0.6-1.7c-0.1-0.7-0.7-1.3-1.4-1.7c-0.7-0.4-1.4-0.6-2-1.1c-1.2-1-1.5-2.7-2.3-4.1c-0.4-0.6-0.9-1.2-1.5-1.5
	c-0.7-0.3-1.5-0.2-2,0.4c-0.5,0.5-0.5,1.3-0.3,2c0.2,0.7,0.6,1.2,1,1.8c0.1,0.2,0.2,0.3,0.2,0.5c0,0.3-0.3,0.6-0.6,0.7
	C221.1,215.8,219.9,216.5,218.7,217.3z"/>
<path fill="none" stroke="#E1E1E1" stroke-miterlimit="10" d="M366.4,212.5c-1,1.2-1.9,2.5-2.9,3.7c-1,1.3-2,2.7-3.3,3.7
	c-4.1,3.4-10.1,3.4-15,5.7c-3.4,1.6-6.1,4.4-8.8,7.1c-1.5,1.5-3,3.1-4.5,4.6c-1.2,1.2-2.5,2.4-4.1,2.6c-2.9,0.3-5-2.8-5.5-5.7
	c-0.3-1.7-0.3-3.4,0-5c0.6-3.4,2.4-6.6,4.2-9.5c1.4-2.3,3-4.5,5.1-6.2c2.7-2.1,6.1-3,9.4-3.9c1.7-0.4,3.3-0.9,5.1-1
	c1.7-0.1,3.4,0,5.2-0.1c2.1-0.2,4.1-0.9,6.1-1.6c3.8-1.3,7.5-2.6,11.3-3.9"/>
<path fill="none" stroke="#E1E1E1" stroke-miterlimit="10" d="M368.4,186.1c-4.1,1.9-8.1,3.7-12.4,5.1c-9,3-18.5,4.2-28,5.3
	c-2.1,0.3-4.2,0.5-6.3,0.1c-1.1-0.2-2.1-0.7-3.2-1c-1.6-0.5-3.4-0.8-5-0.2c-1.6,0.6-2.7,2.5-2.1,4c0.5,1.3,1.9,2,2.6,3.2
	c0.7,1.4,0.1,3.3,0.8,4.7c0.4,0.9,1.1,1.7,0.9,2.6c-0.2,0.7-0.9,1.1-1.5,1.6c-3.6,2.6-3.6,8-2.4,12.2c1.3,4.2,3.6,8.3,3.4,12.8
	c-0.1,1.3-0.3,2.6-0.6,3.8c-0.3,1.4-0.6,2.9-0.9,4.3c-0.4,1.7-0.7,3.3-1.4,4.9c-0.7,1.5-1.8,3.3-1.1,4.8c1,2,3.8,1.6,5.9,0.8
	c3-1,5.9-2.1,8.9-3.1c0.8-0.3,1.7-0.6,2.4-1c0.9-0.5,1.7-1.2,2.5-1.9c2.7-2.4,5.4-4.7,8.1-7.1c0.5-0.5,1.1-1,1.8-1.2
	c0.7-0.3,1.5-0.3,2.2-0.6c1-0.3,1.8-1,2.5-1.7c3.9-3.3,8.4-6,13.2-7.8c3.6-1.4,7.7-2.6,9.8-5.9"/>
<path fill="none" stroke="#E1E1E1" stroke-miterlimit="10" d="M367.5,232.1c-3.1,3.1-5.7,6.7-7.6,10.7c-0.3,0.6-0.6,1.3-1,1.8
	c-0.8,0.8-1.9,1.1-3,1.5c-2.4,0.7-4.7,1.6-6.7,2.9c-4.7,2.9-8.2,7.6-12.8,10.6c-5.8,3.7-13,4.6-19.9,5.4c-3.3,0.4-6.7,0.7-9.8-0.4
	c-2.1-0.7-4.1-2.1-6.3-1.9c-0.9,0.1-1.9,0.5-2.8,0.3c-1.6-0.4-2.2-2.5-1.5-4c0.7-1.5,2.3-2.3,3.8-2.7c0.8-0.2,1.7-0.4,2.2-1
	c0.3-0.3,0.5-0.7,0.7-1.1c1.3-2.7,2.6-5.3,3.8-8c0.4-0.8,0.8-1.7,0.8-2.6c0-0.9-0.3-1.8-0.7-2.7c-1.5-3.8-3-7.7-4.5-11.5
	c-2.3-5.9-4.7-12.1-3.6-18.3c0.3-2,1-4.3-0.2-5.9c-0.4-0.6-1.1-1.1-1.4-1.7c-0.8-1.5,0-3.4-0.3-5c-0.3-1.7-1.9-3.3-1.2-4.9
	c0.3-0.6,0.8-1,1.1-1.7c0.8-1.8-1.6-3.8-1-5.7c0.2-0.6,0.6-1,1-1.4c4-3.8,9.7-5.5,15.2-5.9s11.1,0.2,16.6,0.2
	c12.5,0,35-5.2,36.1-8.9c0.7-2.3,1.3-4.1,1-6.5c-0.8-5.9-10.7-5.3-15.4-9c-2-1.6-4-3.3-5.1-5.6c-1.1-2.3,1.3-4.9,0.3-7.2
	c-1-2.3-4.9,0.6-7.3,1.2c-4.1,1.1-8.4,1.9-12.6,2.3c-0.6,0.1-1.2,0.1-1.8-0.1c-1.5-0.4-1.6-2.3-2.3-3.7c-1.2-2.4-5.6-2.8-8.1-1.7
	c-0.7,0.3-1.5,0.8-2.2,0.6c-1.4-0.3-1.8-2.1-1.8-3.6c0-1.4,0-2.9,1-3.8c0.9-0.9,2.4-1.4,2.6-2.6c0.1-0.5-0.1-0.9-0.3-1.4
	c-1-2.8-1.8-6.3,0.2-8.4c1.3-1.4,3.4-1.6,5.2-2.3c3.2-1.2,5.6-3.9,8.7-5.2c1.1-0.4,2.2-0.7,3.3-1.2c1.2-0.6,2.2-1.7,3.2-2.7
	c2.2-2.1,4.5-4.1,7-5.9c1.6-1.1,3.3-2.2,5.1-2.7c1.9-0.5,3.8-0.4,5.7-0.3c6.8,0.4,13.7,0.8,20.5,1.2"/>
<path fill="none" stroke="#E1E1E1" stroke-miterlimit="10" d="M368.9,115.9c-1-0.7-2.3-0.6-3.4-0.1c-1.1,0.5-2,1.3-2.8,2.2
	c-1.1,1.1-2.2,2.2-2.9,3.5c-0.7,1.4-0.8,3.1,0.1,4.4c0.4,0.6,1.1,1.1,1.5,1.8c1,1.7,0.1,3.7-0.4,5.6c-0.9,3.6-0.2,7.3,0.5,10.9
	c0.2,1,0.5,2.1,1.3,2.6c0.4,0.2,0.8,0.3,1.2,0.6c0.5,0.4,0.8,1.1,1.1,1.7c0.9,1.7,2.7,2.9,4.6,3"/>
<path fill="none" stroke="#E1E1E1" stroke-miterlimit="10" d="M367.4,86c-6.5,3.5-13.9,5.1-21.2,4.6c-3.3-0.2-6.6-0.8-9.7,0.1
	c-6.3,2-9.3,9.8-15.5,12.3c-5.1,2.1-12,0.4-15.5,4.6c-1.9,2.3-2,5.6-2.7,8.6c-1.5,6-6.2,11-12.1,12.9c-2,0.7-4.8,1.6-4.6,3.8
	c0,0.6,0.3,1.1,0.6,1.6c1.2,2.2,2.4,4.5,4.2,6.1c1.9,1.7,6.4,0.9,6.9,1.9c0.5,0.9-5.2,5-2.9,7.4c0.7,0.8,1.7,1.3,2.1,2.2
	c0.4,0.9,0.1,1.9-0.5,2.8c-2.2,3.3-7,3-10.8,4.1c-4.6,1.3-7.9,5.1-11.7,8c-12,9.4-28.3,11.3-41.3,19.3c-1.6,1-3.2,2.1-5,2.6
	c-1.4,0.5-2.9,0.6-4.4,0.8c-11.3,1.4-22.7,6.1-31.2,13.2c-1.9,1.6-4,3.2-6.3,4c-2.8,1.1-5.6,2.1-8.4,3.2c-3.1,1.2-6.3,2.4-9.5,2
	c-1.8-0.2-3.5-0.9-5.3-1.1c-2.8-0.5-6.8-1.8-8.6,0.5c-1,1.3,1.5,2.9,2.9,3.7c1.4,0.8,3,1.3,4.4,2.2c1.2,0.7,2.3,2.1,1.7,3.4
	c-0.4,1-1.7,1.7-1.4,2.7c0.2,0.6,0.7,0.9,1.1,1.4c1,1.6-1.6,3.5-1.4,5.4c0,0.6,0.4,1.2,0.4,1.9c-0.1,1.2-1.3,1.9-1.8,3
	c-0.5,1.2,0.1,2.5-0.2,3.8c-0.3,1.5-1.6,2.6-2.8,3.7c-2.9,2.6-4.9,6.1-5.9,9.9c-0.1,0.5-0.2,1,0.1,1.4c0.3,0.4,1,0.4,1.5,0.4
	c1.2-0.1,2.5-0.2,3.7-0.2c0.8-0.1,1.7,0,2.2,0.6c0.3,0.4,0.3,1,0.4,1.4c0.6,2.1,4.1,0.3,5.7,1.8c2.2,2.2-4.1,10.9,6.3,18.7
	c3.3,2.5,7.7,3.1,11.8,3.6c0.4,0.1,0.9,0.1,1.3-0.1c0.5-0.2,0.9-0.7,1.2-1.3c2.4-4.1,4.4-8.5,5.9-13.1c0.8-2.4,1.4-4.8,2.1-7.2
	c0.1-0.4,0.2-0.8,0.5-1.1c0.4-0.4,1.1-0.4,1.7-0.4c1.8,0.2,3.6,0.8,5.1,1.8c0.5,0.3,0.9,0.7,1.4,0.8c0.4,0.1,0.8,0,1.2-0.2
	c3-0.9,6.2-3,9.1-1.8c1.4,0.6,2.3,1.8,3.6,2.6c1.5,0.9,3.4,1,5,1.5c3.4,1.1,6,4.1,6.7,7.5c0.5,2.6,0,5.3-1.1,7.6
	c-0.7,1.4-1.6,3-1,4.5c0.7,1.8,3.2,2.4,4.1,4.2c1.2,2.4-2.2,4.1-3.3,6.5c-1.8,3.7-1.7,8.5-2.6,12.5c-0.1,0.6-0.2,1.3,0.2,1.7
	c0.3,0.2,0.6,0.2,0.9,0.2c2.9,0,6-0.1,8.6-1.3c2.7-1.2,4.9-3.9,4.7-6.8c-0.1-1.7-1-3.2-1.4-4.8c-0.6-2.5-0.1-5.3,1.3-7.4
	c0.2-0.3,0.4-0.5,0.7-0.7c0.9-0.4,1.8,0.7,2.7,1.2c2.4,1.6,5.2-0.9,7.5-2.6c3.5-2.6,8.1-4.3,12.3-3.1c4.7,1.4,10.2,0.3,13-3.8
	c1.8-2.6,3-6.5,6.2-6.7c1.6-0.1,3.1,1,4.7,1.4c4.5,1.1,8.8-3.1,13.4-2.7c1.5,0.2,2.9,0.8,4.4,1.2c5.9,1.4,12.4-1.9,17.8,0.7
	c1.9,0.9,3.5,2.5,5.5,3.2c2.1,0.7,4.5,0.3,6.6-0.2c6-1.6,10.1-10.4,16-8.9c4.7,1.2,5.9,8,10.7,8.4c1,0.1,2,0,2.8-0.5
	s0.7-1.6,0.7-2.5c0-1.1,1.8-2.7,2.2-3.6c0.9-1.8,1.4-3.7,2.1-5.5"/>
<path fill="none" stroke="#E1E1E1" stroke-miterlimit="10" d="M265.5,161.2c-0.4,0.3-0.8,0.6-1.1,1c-0.3,0.4-0.4,1.1,0,1.4
	c2.7,2.3,7.3,0.9,9.9-1.5c0.9-0.8,2.4-2.4,1.5-3.3C273.1,156.4,268.5,159.3,265.5,161.2z"/>
<path fill="none" stroke="#E1E1E1" stroke-miterlimit="10" d="M56.3,369.6c-6.8-7.3-9.9-18-8-27.8c0.9-4.7,2.9-9.2,3.5-14
	c0.5-3.9,0.1-7.8,0.5-11.7c0.6-5.8,3-11.2,5.3-16.5c1-2.2,2-4.4,2.9-6.7c1.5-3.4,3-6.8,5.2-9.8c1.5-2,3.2-3.7,5-5.5
	c8.4-8.4,16.8-16.8,25.2-25.3c1.6-1.6,3.4-3.2,5.6-3.4c2.3-0.1,5.5,1,6.3-1.2c0.3-0.8-0.1-1.7-0.3-2.5c-1.3-4.9,5.3-6.3,7.8-10.7
	c1.4-2.4-0.8-5.6,0.9-7.7c1.9-2.3,4.9-3.2,7.2-5c2.3-1.8,4-7.5,1.1-7.5c-6.2-0.1-10.5,6.5-15.8,9.7c-1.5,0.9-3.6,1.8-4.9,0.6
	c-1.9-1.6,0-4.5,1.1-6.7c2.7-5.4-3.9-8.8-6.9-14c-1.2-2,2.8-3.6,4.8-4.9c6.3-4.2,14.4-6.4,18.9-12.5c2.3-3.2,2.7-7.6,3.8-11.4
	c0.3-0.9,0.6-1.9,1.4-2.3c0.8-0.4,1.8,0.1,2.7,0.4c4.9,1.6,10.1-1.6,14.3-4.7c0.8-0.6,1.7-1.2,2-2.2c0.5-1.4-0.3-2.9-0.7-4.4
	c-0.4-1.5,1.7-1.5,1.5-3c-0.2-1-2.6-1-2.5-2.2c0.1-1.2,1.3-3,2.2-3.8c5.6-4.6,13.4-5.3,20.7-5.7c2.7-0.2,5.3,0.2,7.9,0.6
	c5.3,0.8,3,6.1,4.1,5.9c3.8-0.7,8.3,1.4,5.6,6.1c-1.8,3.1-6.1,5.4-8.9,3.2c-2-1.5,2-5.4-0.5-5.5c-4.3-0.3-21.3,16.1-30.2,26.3
	c-1.8,2.1-4.5,5.6-4.3,9.4c0.1,2.6-3.4,4.3-1.3,5.2c3.5,1.5,39.3-6.9,56.6-16.4c5.3-2.9,10.3-6.4,15.6-9.2
	c9.6-5.1,20.3-7.9,31.2-8.3c1.8-0.1,3.6-0.1,5.2-0.8c2.4-1.1,5-2.8,5.8-5.3c3.4-11.7,22.3-20.2,22.9-22c1.2-3.6-10.7,0.9-11.1-2.9
	c-1-10.7,19.1-10.3,26.8-17.8c1.9-1.8,3.6-3.7,5.2-5.7c2.1-2.6,4-5.5,5-8.7c0.6-2,0.9-4.2,2.1-5.9c1.6-2.3,4.4-3.4,7-4.3
	c19.1-6.8,38.5-12.8,58.1-18"/>
<path fill="none" stroke="#E1E1E1" stroke-miterlimit="10" d="M216.3,159.8c0.9-1.3,0.6-3.7-0.5-4.7c-0.6-0.6-1.5-0.7-2.2-0.9
	c-2.1-0.6-4-1.8-5.3-3.5c-0.6-0.7-1.2-1.6-2.1-2c-0.5-0.2-1.2-0.3-1.7-0.3c-4.8-0.1-9.6,0.8-14.1,2.5c-0.8,0.3-1.8,0.7-2.1,1.6
	c-0.3,0.9,0.1,1.8,0.7,2.5c2.3,2.6,6.6,2.6,9.6,0.8c1.1-0.6,2.2-1.5,3.4-1.1c0.7,0.2,1.3,0.9,1.8,1.5c1.2,1.5,2.7,2.6,2.9,4.5
	c0.1,0.5,0.8,2,1.1,2.4c0.5,0.7,1.7,0.7,2.5,0.6C212.8,163.3,214.8,162,216.3,159.8z"/>
<path fill="none" stroke="#E1E1E1" stroke-miterlimit="10" d="M81.9,237.7c-0.7-2.4-0.7-5.2,0.9-7.1c0.6-0.8,1.5-1.4,2.2-2.1
	c1.9-1.9,2.8-4.6,2.9-7.3c0.1-2.7-2-5.4-1.1-7.9c0.6-1.6,2.8-2.2,3.6-3.7c0.8-1.5,1.1-3.5,0.2-5c-0.4-0.7-1.1-1.3-1.9-1.6
	c-2-0.8-4.2,0.1-6.1,1c-2.4,1.1-4.7,2.2-7.1,3.3c-0.3,0.2-0.7,0.3-1.1,0.3c-0.3,0-0.6-0.1-0.9-0.2c-2.9-0.8-6-0.6-8.7,0.6
	c-2.5,1.2-4.6,3.1-7.1,4.2c-2.7,1.1-5.7,1.2-8.3,2.3s-2,4.5-3.8,6.7c-0.6,0.8-2,0.9-2,1.9s1.4,1.8,1.2,2.8c-0.5,2.6-4.7,2.6-7.1,3.9
	c-2,1.1-5.9,3.4-4.2,5c0.6,0.6,2-0.7,2.5,0c0.7,0.9,0.1,2.3,0.9,2.9c0.9,0.7,2.2-0.7,3-0.1c2.1,1.8-2.8,4.8-4.1,7.3
	c-1.2,2.4-2.4,4.9-2.7,7.5c-0.2,2.6,0.5,5.1,1.1,7.6c1.3,6.3-3.5,13.6-0.2,19.1c2.1,3.5,8.5-0.7,10.6-4.2c1.7-2.8,1.8-6.2,2.5-9.3
	c1-4.5,3.3-8.7,5.9-12.6c0.9-1.3,1.8-2.6,3-3.7c2.8-2.6,6.7-3.9,10.4-3.4c0.9,0.1,1.8,0.3,2.7,0.3c0.8,0,1.6-0.3,2.4-0.5
	c2.4-0.7,4.8-1.4,7.2-2c1.3-0.4,2.8-0.9,3.4-2.1C82.8,240.4,82.3,239,81.9,237.7z"/>
<path fill="none" stroke="#E1E1E1" stroke-miterlimit="10" d="M84.4,245.5c0-0.4-0.4-0.6-0.7-0.8c-1.1-0.5-2.3-0.4-3.3,0.3
	s-2.2,1.9-1.6,2.9c0.2,0.5,0.9,0.6,1.4,0.7c1.6,0.3,2.9-1.1,3.9-2.3C84.3,246,84.4,245.8,84.4,245.5z"/>
<path fill="none" stroke="#E1E1E1" stroke-miterlimit="10" d="M65.6,250.4c0.9,0.6,2.2,0.3,3.3,0.5c0.5,0.1,1,0.1,1.4-0.2
	c0.2-0.2,0.3-0.5,0.4-0.7c0.1-0.9-0.5-1.8-1.3-2.2c-0.8-0.4-1.8-0.3-2.6,0.1C65.8,248.4,64.7,249.9,65.6,250.4z"/>
<path fill="none" stroke="#E1E1E1" stroke-miterlimit="10" d="M99.2,225.8c-0.6,0.6-0.3,1.7,0.3,2.3c1,0.9,2.9,1.7,3.8,0.7
	c0.7-0.8,0.3-2.4-0.6-2.9c-0.4-0.2-0.8-0.1-1.3-0.2C100.7,225.6,99.8,225.3,99.2,225.8z"/>
<path fill="none" stroke="#E1E1E1" stroke-miterlimit="10" d="M35.4,369.1c-2.6-8.1-3.8-16.6-3.6-25.1c0-0.9,0-1.9-0.5-2.7
	c-0.9-1.1-2.6-1-3.6-1.8c-2.5-2,0.1-7.6-3-8.6c-0.8-0.3-1.8,0-2.6-0.2c-1.5-0.4-2.1-2.1-2.6-3.6c-1.7-5.9,4.6-11.5,2-17.1
	c-1.7-3.7-6.3-4.1-8.9-7.2c-2.6-3-6.3-4.7-9.5-7.1c-3.2-2.3-6.1-6-5.3-9.9c0.8-4.2,5.3-6.5,9.2-8.3c4-1.8,8-3.8,12-5.8
	c1.3-0.7,2.7-1.4,3.7-2.5c1.8-2.1,1.8-5.2,1.7-8c-0.3-7.4-0.5-14.9-0.8-22.3c-0.1-2.4-0.2-4.9-1.2-7c-1-2.2-3.8-2.2-5.6-3.7
	c-2.8-2.4,2.4-7.1,5.5-9.1s6.8-3.1,10.1-4.7c4.7-2.2,10.8-4.5,12-9.6c0.4-1.9,1.6-3.7,3.5-4c2-0.3,4,0.3,5.9,0.4
	c4.2,0.1,8.1-2.3,12.1-3.8c10.1-3.8,22.2-2,31.2-7.9c8.4-5.4,9.1-22,19-23c1.1-0.1,2-0.2,2.8-0.9s1.5-1.7,2.4-2.2
	c1-0.7,2.3-0.8,3.5-1.2c1.9-0.6,3.6-1.9,5.2-3.2c4.7-3.7,9.4-7.3,14.2-11c0.8-0.6,2.5-1,2.3-2c-0.3-1.5-3.5-0.4-4.3-1.7
	c-1.1-1.7,1.8-3.7,3.7-4.4c1.9-0.7,4-0.8,6-0.9c8-0.6,15.6-3.4,23.3-5.4c0.5-0.1,1.1-0.3,1.6-0.1c1,0.3,1.6,1.5,2.6,1.9
	c1.3,0.5,2.7-0.5,3.8-1.2c3.8-2.4,8.5-2.5,13-2.5c0.7,0,1.5,0,2,0.5c0.4,0.4,0.5,0.9,0.7,1.3c0.9,2,3.4,2.8,5.6,3.3
	c4.5,1,9.1,1.9,13.7,1.2c3.4-0.5,6.7-1.7,10.1-1.5c2.4,0.2,4.4,3.4,6.7,2.7c3.8-1.3,5.3-5.5,9.3-5.6c3.5-0.1,5.3-3.8,8.3-5.7
	s8.5,0.9,10-2.3c0.9-1.8-4.9-2.2-4.5-4.2c0.7-3.1,5.7-2.6,8.6-3.8c3.1-1.4,6.2-2.8,8.6-5.2c3.2-3.3,4.5-8.1,5.4-12.7
	c0.3-1.5,0.5-3,1.4-4.2c0.8-1.1,2.1-1.8,3.3-2.4c2.9-1.5,5.7-3,8.6-4.6c3.3-1.8,6.7-3.6,10.2-4.8c5.9-2.1,12.3-2.7,18-5.3
	c3.1-1.4,5.9-3.2,8.8-5c5.4-3.2,11.1-5.8,17-7.9c3-1,6.1-1.9,8.8-3.7c4.1-2.8,6.9-7.8,11.8-8.9"/>
<path fill="none" stroke="#E1E1E1" stroke-miterlimit="10" d="M86.9,187.3c-1.8,0.4-3.5,2.7-2.5,4.3c0.3,0.5,1,0,1.4-0.4
	s0.9-0.3,1.4-0.6c0.9-0.6,1.6-1.7,1.3-2.7C88.2,187.3,87.5,187.2,86.9,187.3z"/>
<path fill="none" stroke="#E1E1E1" stroke-miterlimit="10" d="M-14.6,278.6c3.9-5,9.4-8.7,15.5-10.4c1.3-0.4,2.9-0.7,3.6-1.9
	c0.9-1.4,0.3-3.2,0.2-4.9c0-1.7,1.6-1.9,3-2.7c5.2-3.1-2-12-4.3-17.6c-0.2-0.5-0.4-1-0.8-1.3c-0.7-0.6-1.9-0.5-2.5-1.2
	c-0.3-0.3-0.4-0.8-0.5-1.3c-0.5-3.4,1.3-6.7,3.1-9.7c0.4-0.7,0.9-1.5,1.5-2.1c0.8-0.7,1.8-1.1,2.7-1.6c3.9-2.3,5.6-7.4,9.6-9.6
	c1.1-0.6,2.4-1,3.3-1.9c2.2-2.2-1.2-5.8-0.2-8.7c0.7-2,2.1-3.5,3.6-5.1c1.8-2,5.7,1.4,8,0c1.9-1.2,3.3-2.9,5.5-3.2
	c5.1-0.9,10.2-2.1,15.2-3.6c1.2-0.4,2.6-0.9,3.2-2c0.3-0.6,0.4-1.4,0.7-2.1c0.7-1.4,2.4-2,4-2c1.6,0,3.2,0.4,4.7,0.2
	c2-0.3,3.6-1.4,5.5-2.2c3.9-1.6,8.2-1.1,12.4-1.2c4.2-0.1,7.8-2.2,11.3-4.3c2-1.2,2.3-3.6,3.8-5.4c0.8-1,2.9,0.6,3.9-0.2
	c1.2-1.1,0.5-3.3,1.3-4.7c0.8-1.4,2.8-1.3,4-2.5c3.4-3.5,2-9.5,4.3-13.9c1-1.9,4.6-4.2,3.1-5.8c-2.5-2.5-6.3,3.2-9.5,4.7
	c-1.2,0.6-2.4,1.2-3.7,1.2c-1.3,0.1-2.7-0.6-3.2-1.8c-0.5-1.4,0.4-2.9,1.3-4c1.9-2.3,4.2-4.3,6.7-5.9c3.4-2.1,7.2-3.5,11-4.8
	c4.1-1.5,8.1-2.9,12.2-4.4c3.6-1.3,8.8-5.4,11.2-2.4c0.4,0.5-0.2,1.7,0.5,1.8c4.1,0.5,8.6-5,11.8-2.3c0.6,0.5,0.8,1.6,1.6,1.6
	c12.5,0.9,24.5-5.8,37-7c2.2-0.2,3.9,1.2,6.1,1.4c4.8,0.6,8.7-4.6,13.6-4.8c1.6-0.1,2.4,1.8,3.9,2.1c0.5,0.1,1.1-0.1,1.6-0.2
	c2.3-0.7,4.5-1.4,6.8-2.1c0.6-0.2,1.3-0.4,1.9-0.2c2.1,0.5,2.9,3.1,3.4,5.2c0.2,0.8,0.7,2,1.3,1.5c2.6-2.2,4.1-5.3,7.5-5.9
	c3.4-0.6,7-0.5,9.9-2.3c0.9-0.6,1.8-1.3,2.1-2.4c0.5-1.8-0.6-3.5-1.2-5.3c-1.5-4.8,1.8-9.9,6.1-12.6s9.4-3.6,14-5.5
	c8.9-3.5,16.1-10.2,24.5-14.8c9.7-5.4,20.7-7.9,31.6-10.4c1.8-0.4,3.6-0.9,4.9-2.1c2-2,2.2-5.4,4.5-7c1-0.7,2.2-0.9,3.2-1.7
	c0.8-0.7,1.3-1.7,1.8-2.5c2.8-4.2,8.3-5.6,12.3-8.6c3.1-2.3,5.3-5.5,8.1-8.1c3.4-3.1,7.6-5.4,12.1-6.4"/>
<path fill="none" stroke="#E1E1E1" stroke-miterlimit="10" d="M261,100.9c-0.5,1.6-2.1,3.2-1.5,4.7c0.6,1.5,3.1-0.1,4.4-0.9
	c5.7-3.8,13.4-6.2,16.4-12.4c0.2-0.4,0.3-0.9,0-1.2c-1.3-1.9-4.5,0.2-6.7,1.1c-2.6,1.1-5.3,2.2-7.8,3.5c-1.6,0.8-3.1,1.8-4,3.3
	C261.5,99.6,261.3,100.3,261,100.9z"/>
<path fill="none" stroke="#E1E1E1" stroke-miterlimit="10" d="M-13.7,228.5c0.9-4.4,1.9-8.9,4.5-12.6c2.6-3.7,8.8-1.7,11.6-5.2
	c1.9-2.3,1.7-5.2,4.1-7.1c11-9,30.5-17.5,29.6-19.1c-1.2-2.2-10.8,2.6-11.3-3.7c-0.2-2.7,2.3-4.7,4.5-6.2c5.7-3.9,11.5-7.8,18.1-9.5
	c6.4-1.7,13.1-1.2,19.6-0.2c2.6,0.4,5.6,0.8,7.6-1c1-0.8,1.5-2.1,2.1-3.2c5.7-11.7,16.1-20.6,27.6-26.7c11.5-6.1,24.1-9.6,36.7-13.1
	c5.5-1.5,11-3.1,16.6-4.6c7.1-2,14.2-4,21.6-5c5.1-0.7,10.3-1,15.3-2c7.2-1.4,14-4.5,21.2-5.8c19.1-3.3,18.1,4,21.3,2.6
	c6.4-2.9-7.4-6.4,21.3-23.2c1.7-1,13.7-8.7,14.9-10.2c1.5-2,3.6-6.1,1.3-7.2c-7.3-3.2-23.1,8-22.6,0.1c0.3-4.5,11-8,7.6-11
	c-2.6-2.2-6.5,5.7-9.4,3.8c-3.4-2.2,8.1-5.7,6.4-9.4c-1.2-2.6-37.5,7.9-56.3,11.8c-2.5,0.5-5,1-7.4,0.7c-2-0.3-3.9-1.2-5.9-1.3
	c-2.2-0.2-4.4,0.6-6.5,1.3c-5.5,1.9-11.1,3.9-16.6,5.8c-3.3,1.2-6.8,2.3-10.3,1.6c-2-0.4-3.7-1.5-5.6-2.2
	c-6.7-2.5-18.3,2.1-14.7,8.2c3.7,6.4,7.8,15,4.5,19.2c-4.4,5.5-13.3,11.3-19.9,14.7c-12.3,6.2-24.8,12-37.9,16
	c-7.3,2.2-14.8,3.9-22.2,5.5c-2.9,0.6-5.7,1.3-8.6,1.9c-2.1,0.5-4.3,0.9-6.4,0.3c-2.1-0.6-1.5-4-3.5-4.7c-3.7-1.4-7,4.6-10.3,2.5
	c-1.1-0.7-2.1-1.8-3.4-2.1c-2-0.5-3.9,0.8-5.5,2c-4.5,3.3-9,6.7-13.5,10c-1.7,1.3-3.7,2.6-5.8,2.2c-1.2-0.2-2.3-1-3.6-1.1
	c-1.4-0.1-2.7,0.9-3.9,1.8c-3.2,2.5-6.4,5.1-9.6,7.6"/>
<path fill="none" stroke="#E1E1E1" stroke-miterlimit="10" d="M21.3,170.4c-1.1-0.6-2.4,0.2-3.5,0.7c-0.9,0.5-1.9,0.8-3,1
	c-1,0.2-2.1,0.3-3,0.6c-0.6,0.2-1.2,0.5-1.7,0.9c-2.1,1.4-4,3.7-3.9,6.2c0,1.9-0.7,4.1,0.3,5.7c0.9,1.4,3.1-1,4.4-2s3.4-0.1,4.5-1.3
	c0.4-0.4,0-1.2,0.3-1.6c0.4-0.5,0.8-0.8,1.2-1.3c0.6-0.7,0.8-1.6,1.3-2.4s1-1.6,1.9-1.8c0.5-0.1,1.1,0,1.5-0.4
	c0.2-0.2,0.3-0.4,0.4-0.6C22.6,172.9,22.5,171.1,21.3,170.4z"/>
<path fill="none" stroke="#E1E1E1" stroke-miterlimit="10" d="M4.8,173c-0.5-0.5-1.4-0.1-1.9,0.4c-1.2,1.2-1.8,3.9-0.3,4.6
	c0.5,0.2,1.3,0.3,1.7-0.1c0.8-0.7,0.4-2,0.7-3.1C5.1,174.2,5.2,173.4,4.8,173z"/>
<path fill="none" stroke="#E1E1E1" stroke-miterlimit="10" d="M64.8,158.5c1-1.5,3-3.4,2-4.9c-0.8-1.1-2.7,0.3-3.4,1.4
	c-0.7,1.1-1.5,2.8-0.7,3.9c0.3,0.5,1.2,0.4,1.7,0.1C64.6,158.9,64.7,158.7,64.8,158.5z"/>
<path fill="none" stroke="#E1E1E1" stroke-miterlimit="10" d="M241.6,59.1c0.6-0.3,1.4-1,1-1.5c-0.3-0.3-0.8-0.2-1.1-0.3
	c-0.6-0.1-1.2-0.3-1.8-0.2s-1.2,0.6-1.2,1.2c-0.1,0.7,0.6,1.3,1.2,1.4S241,59.5,241.6,59.1z"/>
<path fill="none" stroke="#E1E1E1" stroke-miterlimit="10" d="M79,127c0,1.3,1.8,1,2.4,0.8c1.2-0.4,1.4-1.3,0.5-2.1
	C81.5,125.4,79,126.1,79,127z"/>
<path fill="none" stroke="#E1E1E1" stroke-miterlimit="10" d="M-14.2,18.7c1.8-2.3,3.3-4.9,4.4-7.6c0.4-0.9,0.7-1.8,1.3-2.5
	c0.4-0.5,0.9-0.9,1.3-1.5c1.6-2,1.1-4.9,1.1-7.4c0-5.3,2.5-10.5,6.5-13.8"/>
<path fill="none" stroke="#E1E1E1" stroke-miterlimit="10" d="M29.7-13.5c0.5,0.9-0.3,2.1-1.3,2.3s-2-0.1-3-0.3
	c-3.2-0.8-6.7-0.4-9.8,0.9c-2.5,1.1-4.9,3.5-4.4,6.2c0.4,2.2,2.6,3.6,4.6,4.4s4.4,1.3,6,2.8c0.3,0.3,0.6,0.7,0.7,1.1
	c0.4,1.3-1,2.4-2.1,3.2C11.8,13.3,8.6,24.3,6.2,34.6c-0.1,0.5-0.2,1.1,0,1.6c0.3,0.6,0.9,0.9,1.5,1.1c4.1,1.6,8.4,3.1,12.8,2.8
	c1.7-0.1,3.3-0.6,5-0.7c2.5-0.2,5.2,0.2,7.4-1c1.3-0.7,2.2-1.8,3.4-2.7c1.4-1.1,3.1-1.8,4.7-2.7c2.9-1.5,5.5-3.4,8.2-5.2
	c7.3-5.2,14.5-10.3,21.8-15.5c2.7-1.9,5.5-4,7-7c0.9-1.8,1.3-3.9,2.1-5.8c0.8-1.9,2.4-3.6,4.5-3.8c2-0.1,3.8,1.3,5.8,1.7
	c2.6,0.5,5.1-1,7.6-2c1.7-0.6,3.5-1,5.3-1.4c6.7-1.4,13.4-2.8,20.1-4.1c2.5-0.5,5-1,7.2-2.2c2.2-1.2,4.2-3.2,4.7-5.7"/>
<path fill="none" stroke="#E1E1E1" stroke-miterlimit="10" d="M-15.7,54.4c3.5,1.2,7.4,1.3,10.9,0.2c3.3-1,6.2-3,9.3-4.5
	c4.2-2,8.7-3.1,13.4-3.2c6.1-0.2,12.4,1.3,18.4,0c5-1.1,9.3-4,13.5-6.9c3.1-2.1,6.1-4.2,9.2-6.2c7.6-5.2,15.1-10.3,22.4-15.9
	c3-2.3,6-4.7,9.3-6.5C95,9,99.9,7.8,104.7,6.7c12.4-3,24.8-6,37.2-8.9c0.8-0.2,1.7-0.4,2.6-0.3c0.8,0.1,1.5,0.4,2.3,0.6
	c4.5,1.2,8.9-1.9,13.2-3.9c5.3-2.5,11.4-3.3,17.2-2.4c2.8,0.4,5.4,1.3,8.1,2.1c7.2,2.2,14.5,4.5,21.7,6.7c2.4,0.7,4.9,1.6,6.3,3.6
	c2.3,3.2,7.8,1.3,11.7,1.1c2.1-0.1,4.3-0.3,6.3-1c1.6-0.5,3-1.4,4.4-2.2c4.1-2.1,8.7-3.3,13.3-3.5c3.7-0.2,6.6-3.2,10.3-3.1
	c2.2,0.1,3.3,3,5.5,3c2.2-0.1,4.3-1.4,5.2-3.3c0.7-1.4,1-3.1,2.5-3.7c0.5-0.2,1.1-0.2,1.7-0.2c2.6-0.4,4.2-3.7,2.9-5.9"/>
<path fill="none" stroke="#E1E1E1" stroke-miterlimit="10" d="M185.1-14.3c1.5-0.1,2.4,1.6,3.5,2.7c1.9,1.8,4.8,1.8,7.5,2
	c8.3,0.6,16.3,4.9,24.6,3.9c3.9-0.5,7.6-2.2,11.5-2.7c2.4-0.3,4.9-0.2,7.3-0.3c2-0.1,4-0.3,5.9-0.9c3.9-1.2,7.2-4,9.2-7.5"/>
<path fill="none" stroke="#E1E1E1" stroke-miterlimit="10" d="M-14.6,79.9c0.3-2.5,2.8-4.5,5.3-4.2c1,0.1,1.9,0.5,2.9,0.3
	c1-0.2,1.7-1,2.4-1.7c3.5-3.8,7-7.7,10.5-11.5c1.4-1.6,3.3-3.2,5.3-2.8c1.5,0.3,2.8,1.7,4.3,1.6c1.1-0.1,1.9-1.1,2.8-1.8
	c3.5-3.2,9.4-3.3,13.1-0.3c1.8,1.5,1,3.7,1.4,6c0.6,3.5,7.3,1.3,10.2-0.9c2.9-2.1,2-6.4,3.8-9.5c3.7-6.6,12.6-8,19-12
	c3.2-2,3.9-6.6,7.4-8.1c2-0.8,4.1-0.6,5.6-2.1c3.9-3.9,7.7-7.7,11.6-11.6c0.8-0.8,1.7-1.7,2.8-2.1c1-0.4,2.2-0.3,3.3-0.4
	c3.4-0.3,6.5-2.3,9.8-3.1c1.4-0.3,2.9-0.4,4.4-0.6c6.1-0.6,12.1-1.7,18.2-2.9c2.4-0.5,4.9-0.9,7.3-1.4c3.8-0.7,7.5-1.4,11.3-2.2
	c5.7-1.1,15.3-5,16.9-4.1c0.7,0.4,2.2,2.3,2.9,2.6c2.3,1,3.3,0.1,6.7,0.3c3.4,0.2,6.1,2.2,8.9,4.3c1.7,1.3,4.6-0.2,6.7,0.2
	c0.8,0.2,1.8,0.3,2.5-0.1c1.1-0.6,1.3-2.2,2.3-2.8c1.4-0.7,2.9,0.7,4.3,1.4c2.3,1,4.9,0,7.4-0.4c7.9-1.1,16,5.3,23.3,2.4
	c1.7-0.7,3.3-1.9,5.2-1.9c1.2,0,2.4,0.4,3.5,0.2c1.3-0.2,2.3-1.3,3.5-2c4.7-3.1,11.3-0.8,16.5-2.9c0.6-0.2,1.2-0.5,1.8-0.7
	c1.3-0.3,2.6-0.1,3.9-0.1c2.6-0.1,4.9-1.4,7.2-2.7c1.1-0.6,2.2-1.3,3.3-1.9c2.4-1.4,4.8-2.8,6.4-5.1c1.1-1.6,1.6-3.5,2.2-5.4
	c0.7-2.5,1.4-5,2.1-7.6"/>
<path fill="none" stroke="#E1E1E1" stroke-miterlimit="10" d="M-13.8,86.9c5-1.8,10.1-3.2,15.3-4.2c4.4-0.9,9.1-1.6,12.8-4.1
	c2-1.4,3.8-3.3,6.2-3.9c3.9-1,7.7,2,11.7,2.3c3.2,0.2,6.2-1.4,9.1-3c7.9-4.5,15.6-9.3,23.1-14.4c10.8-7.4,15.9-22.4,28.2-26.7
	c2.9-1,4.1-4,6.9-5.3c1.8-0.9,4-0.1,5.8-0.9c1.4-0.6,2.3-2,3.6-2.8c0.9-0.5,1.9-0.6,2.9-0.7c10.4-1.1,20.8-2.2,31.3-3.3
	c8.9-0.9,17.8-1.9,26.7-2.8c3.1-0.3,6.2-0.7,9.3-0.6c2.2,0.1,4.5,0.4,6.7,0.6c8.6,1.1,17.2,2.2,25.8,3.3c0.9,0.1,1.4-1.2,2.3-1.4
	c4.1-0.7,8.4-0.1,12.5,0.4c1.3,0.2,2.7,0.4,4,0.7c0.9,0.3,1.7,0.6,2.6,0.7c2.9,0.5,5.7-0.9,8.3-2.2c3.2-1.6,6.5-3.1,9.9-4.5
	c1.2-0.5,2.6-1,3.7-0.3c0.7,0.4,1.1,1.1,1.7,1.7c1.5,1.5,3.9,1.5,5.9,0.7c2-0.7,3.7-2,5.5-2.9c2.5-1.2,5.5-1.9,7-4.2
	c0.3-0.5,0.5-1,0.9-1.4c0.5-0.5,1.2-0.8,1.9-1.1c5-2.2,6.2-8.7,10.5-11.9C293.1-8.9,300-9.4,302-15"/>
<path fill="none" stroke="#E1E1E1" stroke-miterlimit="10" d="M-15.1,101.3c1.2-1.5,2.5-3,4.2-3.9s3.9-1,5.4,0.3
	c0.5,0.4,0.8,0.9,1.4,1.2c0.7,0.4,1.5,0.2,2.3,0.1c4.4-0.9,8.7-2.1,12.9-3.8c0.8-0.3,1.7-0.7,2.3-1.3c0.5-0.5,0.9-1.2,1.4-1.7
	c1.7-1.6,4.7-1,6.3-2.7c0.9-0.9,1.2-2.4,2.2-3.3c0.6-0.5,1.4-0.7,2.2-0.9C35.8,82.7,45.9,78.9,56,75c1.7-0.6,3.4-1.3,4.9-2.3
	c0.5-0.4,1-0.8,1.6-1c0.5-0.2,1.1-0.2,1.7-0.2c3.6-0.2,8-2.7,10.9-0.5c0.3,0.2,0,0.8,0.2,1.1c2.4,2.6,8.6-2.1,10.6,0.8
	c0.4,0.5,0.5,0.9,1,1.2c2.6,1.5,2.5,5.8,4.1,8.3c0.5,0.9,1.1,1.7,1.2,2.7c0.2,1.1,0,2.2,0.1,3.4c0.1,1.1,0.8,2.3,1.9,2.5
	c0.5,0.1,1.1-0.1,1.6-0.1c1,0.1,1.7,0.9,2.5,1.4c1.9,1.2,4.6,0.5,5.8-1.3c0.5-0.7,0.7-1.6,1.1-2.4c0.8-1.5,2.1-2.8,2.2-4.5
	c0-2.8-3.4-3.9-5.4-5.9c-1.8-1.8-2.6-4.6-4.8-5.8c-1.6-0.9-3.5-0.8-5.2-1.3s-3.5-2.8-2.2-4.1c1.5-1.4,3-2.6,4.2-4.2
	c0.6-0.9,1.3-1.7,1.9-2.6c1.8-2.4,3.7-5,4.2-8c0.3-2-0.1-4,0-5.9s1.1-4.1,3-4.8c0.6-0.2,1.3-0.2,1.9-0.6c1-0.7,1.1-2.1,1.9-3
	c1.2-1.4,3.5-1.3,4.9-2.4c0.6-0.5,1-1.1,1.6-1.5c0.6-0.5,1.4-0.6,2.2-0.8c4.9-1,9.9-1.5,15-1.6c3.4,0,6.9,0.1,10.2-0.8
	c1.7-0.5,3.3-1.2,5.1-1.6c5.4-1.3,10.9,0.6,16.3,1.8c1.2,0.3,2.5,0.5,3.8,0.6c3,0.2,5.9-0.7,8.8-1.4c6.5-1.6,13.1-2.8,19.7-3.4
	c4.9-0.5,9.8,2.1,14.6,1.1c2.4-0.5,5.1-1.4,7.2-0.2c1.1,0.6,1.9,1.8,3.1,2c0.9,0.1,1.7-0.3,2.5-0.4c3.1-0.6,6,1.9,9.1,2.4
	c4.1,0.6,7.8-2.1,11.6-3.8c1.4-0.6,2.9-1.1,4.3-0.8c0.9,0.2,1.8,0.7,2.7,1c3.3,1,6.8-1.2,9.6-3.2c1.2-0.9,2.3-1.7,3.5-2.6
	c2.1-1.5,4.1-3,6.5-4c3.1-1.2,6.8-1.5,9-4c0.5-0.6,1-1.4,1.8-1.7c0.9-0.3,1.9,0.1,2.8-0.4c1.3-0.7,1-2.7,1.9-3.9
	c0.5-0.7,1.4-1,2.2-1.3c2.6-1.1,3.7-4.3,6.1-5.8c4.2-2.7,10-1.3,14.5-3.4c0.6-0.3,1.1-0.6,1.5-1c0.5-0.5,0.7-1.2,1.2-1.6
	c0.6-0.5,1.5-0.6,2.3-0.7c4.7-0.8,8.6-4.2,12.1-7.5c1-0.9,2-2.3,1.3-3.4"/>
<path fill="none" stroke="#E1E1E1" stroke-miterlimit="10" d="M-15.7,118.5c3.6,1.7,7.7-0.3,11.2-2.1c5.2-2.8,10.6-11.5,15.6-8.4
	c2.2,1.3,3,4.2,5.5,3.8c2.5-0.4,4.5-2.3,6.4-3.9c6.1-5.3,13-9.8,20.4-13.2c0.7-0.3,1.4-0.6,2.2-0.4c0.9,0.2,1.5,1.2,2.3,1.5
	c1.5,0.5,2.9-0.9,4.3-1.8c1.4-0.8,2.2,0.2,3.2,1.5c1,1.3,2.7-2.6,4.3-2.4c1.5,0.2,0.7,3.5,2.1,4c1.3,0.5,3.1-1.9,4-0.9
	c1.2,1.4-1.3,4.2,0,5.5c0.6,0.6,2.4-0.5,2.7,0.3c0.8,2.2-4.6,4.3-3.2,6.1c1.1,1.3,4.5-1.5,5.1,0.1c0.7,1.9,0.6,3.7,2.6,4.2
	c2,0.4,3.6,1.3,5.3,2.4c5.4,3.7,12.9-2.2,18.9-4.9c4.9-2.2,9.7-4.8,14.3-7.6c1.7-1,3.5-1.9,5.2-2.7c5.5-2.6,7.7-10.2,6.1-16.1
	c-1.5-5.7-6.3-10-8.4-15.4c-3.4-8.9,2.3-20.3,11.6-22.4c3.7-0.8,7.6-0.3,11.4,0.2c6.1,0.9,12.1,1.7,18.2,2.6c2.9,0.4,6,0.8,8.8-0.1
	c1.8-0.6,3.4-1.8,5.2-2.3c6.5-1.9,14,4.8,19.8,1.3c4.3-2.6,9.2-3.2,13.9-5.1c4.5-1.8,9.2-3.7,14-3.4c7.5,0.4,15,6,22,3.3
	c0.9-0.3,1.7-0.8,2.6-1.1c2.3-0.7,4.7-0.1,7.1,0c7.4,0.3,14.3-3.8,20.2-8.4c9.4-7.3,18.1-16.3,29.5-19.5c3.4-0.9,7.2-1.5,9.6-4
	c0.7-0.8,1.3-1.8,2.2-2.4c1-0.7,2.2-1,3.4-1.4c4.2-1.4,7.6-4.7,11.4-6.9c4.5-2.6,9.6-3.9,14.4-6.1s9.4-5.6,10.9-10.5"/>
<path fill="#7BBCEB" stroke="#4E9BD7" stroke-miterlimit="10" d="M189.6,159.8c-1,0.4-1.8,1.2-2.6,1.9c-3.9,3.5-8.9,5.9-14.1,6.8
	c-1.3,0.2-2.7,0.3-3.6-0.7c-0.2-0.3-0.4-0.6-0.7-0.9c-0.5-0.5-1.3-0.6-2-0.4c-0.9,0.2-1.7,0.9-2.4,1.5c-3.5,3.1-6.7,6.4-9.7,9.9
	c-0.7,0.8-1.4,1.7-2.3,2.2c-0.7,0.4-1.5,0.6-2.2,1.1c-1.8,1.1-2.4,3.4-3.7,5c-0.7,0.8-1.7,1.4-2.4,2.3c-0.7,0.8-1.2,2-0.8,3
	c0.3,0.8,1.2,1.3,1.5,2.2c0.2,0.6,0.1,1.3,0.5,1.7c0.4,0.3,1,0.3,1.5,0.2c4.1-0.8,8.1-1.6,12.2-2.4c1.6-0.3,3.2-0.6,4.6-1.4
	c2.4-1.3,4.1-3.9,6.8-4.5c2-0.4,4,0.4,5.9,0.1c1.8-0.3,3.4-1.5,5.2-1.8c0.8-0.1,1.6,0,2.3-0.1c1.4-0.1,2.7-0.7,4-1.3
	c1.9-0.9,3.9-1.8,5.4-3.3c1.5-1.5,2.3-3.9,1.5-5.8c-0.2-0.4-0.4-0.9-0.3-1.4c0.1-0.4,0.3-0.6,0.6-0.9c2.7-2.6,6.4-4.2,10.1-4.2
	c0.3,0,0.6,0,0.8-0.2c0.2-0.2,0.2-0.4,0.2-0.7c0.2-2,0.3-4-0.8-5.9c-0.7-1.3-2.8,0.3-4.1-0.2c-1.4-0.5-1.9-2.3-3.2-2.8
	c-0.7-0.3-1.4-0.2-2.1-0.1c-1.3,0.2-2.7,0.3-4,0.5C191,159.4,190.3,159.5,189.6,159.8z"/>
<path fill="#EAEAEA" stroke="#D6D6D6" stroke-miterlimit="10" d="M255.2,199.2c-1.5,0.8-2.9,1.9-3.7,3.3c-0.8,1.5-0.9,3.4,0,4.8
	c0.2,0.2,0.3,0.4,0.6,0.5c0.2,0.1,0.4,0.1,0.7,0.2c1.7,0.2,3.3-0.7,4.8-1.4c1.5-0.7,3.3-0.3,4.9-0.8c2.2-0.7,3.1-3.4,5.2-4.3
	c0.4-0.2,0.9-0.4,1.2-0.8c0.2-0.3,0.2-0.6,0.3-0.9c0.1-0.6,0.2-1.3-0.1-1.9c-0.5-1.1-1.9-1.4-3.1-1.2c-1.2,0.2-2.2,0.8-3.4,1.1
	c-1.3,0.3-2.7,0-4,0.2C257.4,198.1,256.3,198.6,255.2,199.2z"/>
<path fill="#EAEAEA" stroke="#D6D6D6" stroke-miterlimit="10" d="M217.6,236.4c-0.1-0.5-0.3-1-0.7-1.3c-0.2-0.1-0.4-0.2-0.7-0.3
	c-0.9-0.2-1.8,0-2.5,0.4c-0.5,0.3-0.8,0.7-1.2,1.1c-0.7,0.8-1.4,1.6-2.1,2.4c-0.4,0.4-0.7,0.8-0.9,1.3c-0.2,0.5-0.2,1.1,0.2,1.5
	c0.1,0.1,0.3,0.2,0.4,0.3c1.1,0.8,2.4,1.1,3.7,0.9s3.2-0.5,3.4-1.8c0.2-0.9,0.2-1.8,0.4-2.7C217.7,237.9,217.7,237.2,217.6,236.4z"
	/>
<path fill="#EAEAEA" stroke="#D6D6D6" stroke-miterlimit="10" d="M131.2,224.5c-2.5,0.1-4.9,1.3-6.3,3.3c-2,2.8-2.4,6.9-5.3,8.8
	c-1.3,0.9-3,1.1-4.3,2c-0.2,0.1-0.4,0.3-0.5,0.5c-0.4,0.8,0.6,1.6,1.5,1.9c1.8,0.5,3.7,0.1,5.3-0.8s3-2.1,4.2-3.5
	c0.7-0.8,1.5-1.6,2.6-1.4c0.3,0,0.5,0.2,0.8,0.3c1.1,0.6,2.4,1.2,3.6,0.7c1.2-0.5,1.7-1.9,2.4-2.9c0.5-0.6,1.1-1.2,1.3-1.9
	c0.3-0.9,0.1-2-0.3-2.9c-0.5-1.2-1.3-2.3-2.4-3.2c-0.4-0.3-0.8-0.6-1.3-0.8C132.1,224.5,131.7,224.5,131.2,224.5z"/>
<path fill="#EAEAEA" stroke="#D6D6D6" stroke-miterlimit="10" d="M293.4,225.2c-1.1-3.5-2.2-6.9-3.3-10.4c-0.1-0.4-0.2-0.8-0.5-1.1
	c-0.3-0.4-0.7-0.6-1.1-0.9c-0.3-0.3-0.5-0.8-0.7-1.2c-0.5-1.2-1.3-2.2-2.1-3.1c-0.9-1.1-2-2.3-3.4-2.2c-0.7,0-1.4,0.4-2,0.9
	c-3.4,2.5-5.4,6.6-8,9.9c-1.3,1.7-2.9,3.2-3.8,5.1c-0.9,1.7-1.1,3.7-1.8,5.5c-1.4,4.1-4.6,7.7-5.2,12c-0.3,2.1,0.1,4.3,0,6.5
	c-0.1,4.4-2.1,8.6-3.7,12.8c-0.6,1.6-1.1,3.6,0.1,4.9c0.3,0.3,0.6,0.5,1,0.8c1.2,1.1,1.7,2.8,2.3,4.3c0.2,0.5,0.5,1,1,1.4
	c0.9,0.6,2.1,0.5,3.1,0.2c2.8-0.6,5.6-1.6,7.8-3.5c2.8-2.3,4.4-5.6,5.9-8.9c0.8-1.8,1.7-3.5,2.9-5c0.6-0.7,1.3-1.4,1.9-2.1
	c1.3-1.5,2.4-3.4,4-4.5c3-2,7.3-1.4,9.7-4c0.2-0.2,0.4-0.5,0.5-0.8c0.1-0.4-0.1-0.8-0.3-1.2c-0.5-1.4-0.4-2.8-0.9-4.2
	c-0.4-1.4-1.8-1.8-3.1-2.4c-1.4-0.6,0-3,0.2-4.6C294.2,227.9,293.8,226.5,293.4,225.2z"/>
<path fill="#EAEAEA" stroke="#D6D6D6" stroke-miterlimit="10" d="M297.3,328.4c1.4,1,3.2,1.6,4.9,1c0.4-0.1,0.4-0.6,0.1-0.9
	c-0.2-0.3-0.6-0.5-0.7-0.8c-0.2-0.5,0-1.1,0.5-1.5s1-0.5,1.5-0.8c1-0.5,2.3-1.1,3-0.3c0.2,0.2,0.3,0.5,0.5,0.7
	c0.8,1.3,2.6,1.4,4.1,1.3c1.7,0,3.3-0.1,5-0.1c0.4,0,0.8,0,0.9-0.3c0.2-0.3,0-0.7-0.1-1.1c-0.4-1.5,0.6-3,1.2-4.4
	c0.8-1.7,1.1-3.6,1.1-5.4c0-0.6-0.1-1.1,0-1.7c0.4-1.8,2.4-2.6,3.7-3.9c1.2-1.2,1.8-2.9,1.6-4.6c-0.1-1.2-0.6-2.2-1.7-2.3
	c-0.5-0.1-1.5,0.1-2,0.2c-2.5,0.6-4.8,0.4-7.4,0.8c-2.6,0.4-5.3,1.2-7,3.1c-1.3,1.4-2.1,3.3-3.5,4.6c-0.9,0.8-2,1.3-2.9,2.1
	c-0.7,0.7-1.1,1.6-1.5,2.5c-1.1,2.7-2,5.5-2.7,8.3c-0.1,0.4-0.2,0.8-0.1,1.2C295.8,327.1,296.5,327.9,297.3,328.4z"/>
<path fill="#EAEAEA" stroke="#D6D6D6" stroke-miterlimit="10" d="M343.5,310.3c-1.5-1.1-3.6-0.9-5.5-0.6c-1,0.1-2.2,0.5-2.4,1.5
	c-0.1,0.4,0.1,0.8,0.2,1.1c0.3,0.8,0.6,1.6,0.8,2.5c0,0.1,0.1,0.3,0,0.4c-0.1,0.1-0.2,0.2-0.3,0.2c-0.8,0.3-1.8,0.2-2.4,0.8
	c-0.6,0.6,0.3,1.8,1.1,2.2s1.7,0.3,2.6,0c1.1-0.4,2.1-1.1,3-1.8c0.5-0.5,1.1-1,1.8-1.3c0.9-0.3,1.9-0.1,2.8-0.2s2-0.7,1.9-1.7
	c-0.1-1-1.3-1.3-2.1-1.9C344.4,311.2,344,310.7,343.5,310.3z"/>
<path fill="#EAEAEA" stroke="#D6D6D6" stroke-miterlimit="10" d="M360.6,337.6c0.6,0.8,1.7,0.9,2.7,0.8s2-0.3,2.9-0.2
	c0.5,0.1,1.1,0.4,1.3,0.8c0.2,0.4,0.1,0.9,0.1,1.4c-0.3,1.6-0.6,3.2-1.4,4.7s-2.1,2.6-3.7,3c-0.7,0.2-1.5,0.1-2.3,0.1
	c-1.9-0.1-3.8-0.2-5.7-0.3c-2.2-0.1-4.5-0.3-6.1-1.8c-1-0.9-1.5-2.2-2-3.5c-0.3-0.7-0.5-1.4-0.3-2.1c0.2-0.4,0.5-0.8,0.8-1.1
	c3.3-2.9,8-3.6,12.3-2.6c0.3,0.1,0.5,0.1,0.7,0.3C360.3,337.2,360.4,337.4,360.6,337.6z"/>
<path fill="#EAEAEA" stroke="#D6D6D6" stroke-miterlimit="10" d="M267.6,368.4c-0.1-0.1-0.1-0.2-0.1-0.3c0-0.1,0,0.2-0.1,0.1
	c-0.1-0.1,0-0.2,0-0.3c0.4-1,1-2,1.5-2.9c0.6-1.1,1.1-2.1,1.7-3.2c0.1-0.3,0.3-0.6,0.6-0.8c0.4-0.3,1-0.4,1.4-0.2
	c0.5,0.2,0.9,0.5,1.2,0.9c0.5,0.6,1,1.3,1.2,2c0,0.1,0.1,0.2,0.1,0.4c0,0.1-0.1,0.3-0.3,0.4c-1.1,1-1.9,2.1-2.5,3.4
	c-0.1,0.2-0.2,0.4-0.4,0.6c-0.3,0.2-0.6,0.2-1,0.2C269.8,368.6,268.2,369.4,267.6,368.4z"/>
<path fill="#EAEAEA" stroke="#D6D6D6" stroke-miterlimit="10" d="M268,358.4c-0.1-0.4-0.3-0.9-0.7-1.1c-0.3-0.2-0.6-0.3-0.9-0.5
	c-0.8-0.5-1.8-0.1-2.6,0.3c-1,0.5-2,1.1-3.1,1.6c-0.2,0.1-0.3,0.2-0.4,0.3c-0.1,0.2-0.1,0.4-0.1,0.7c0,1-0.2,2-0.1,3
	c0.2,1,1,2.4,1.9,2c1-0.5,1.4-1.7,1.8-2.7c0-0.1,0.1-0.3,0.2-0.4c0.2-0.2,0.5-0.2,0.8-0.2c1.1-0.1,2-1,2.8-1.9
	C267.7,359.2,268,358.8,268,358.4z"/>
<path fill="none" stroke="#D6D6D6" stroke-miterlimit="10" d="M275,363.8c0.5,1.3,2.1,2.2,3.5,2.4c1.4,0.3,2.8,0,4.2-0.3
	c6.1-1.2,12.4-2.6,17.7-5.9c5.3-3.3,9.7-8.7,10.3-14.9c0.2-2,0-4-1-5.7c-0.9-1.6-2.6-3.2-2.2-5c0.4-1.9,2.6-2.6,4.5-2.8
	c2.9-0.3,5.8-0.2,8.6,0.3c0.7,0.1,1.5,0.3,1.9,0.9c0.4,0.6,0.4,1.4,0.4,2.1c-0.1,3.5,0.3,7.1,1.1,10.5c0.6,2.7,1.7,5.5,4,7
	c2.3,1.5,5.2,1.3,7.8,0.6c2.6-0.7,5.1-1.9,7.7-2.4c4.1-0.8,8.2,0.2,12.3,0.7c4.1,0.5,8.6,0.6,12-1.7"/>
<path fill="#EAEAEA" stroke="#D6D6D6" stroke-miterlimit="10" d="M211.4,357.4c0.3-0.2,0.6-0.3,0.7-0.7c0.2-0.6-0.3-1.2-0.9-1.5
	c-0.6-0.3-1.2-0.4-1.7-0.7c-0.4-0.2-0.8-0.3-1.2-0.5c-1.4-0.7-2.7,0.1-4.2,0.7c-1.1,0.5-2.5,0.6-3.7,0.8c-0.6,0.1-1.2,0.2-1.7,0
	c-0.9-0.2-1.6-0.8-2.4-1.2c-2.2-1.3-5-1.2-7.2,0.1c-0.4,0.2-0.7,0.5-0.9,0.8c-0.2,0.4-0.2,0.8-0.2,1.3c0,3-0.1,6-0.1,9
	c0,0.5,0,1,0.3,1.4c0.5,0.9,2.3,1.5,2.9,0.6c1.3-1.8-0.6-4.4-0.8-6.6c-0.2-1.3-0.3-2.6,0-3.8c0.1-0.3,0.2-0.5,0.4-0.8
	c0.2-0.2,0.5-0.4,0.8-0.5c1-0.4,2.1-0.7,3.1-0.3c0.4,0.2,0.8,0.6,1.2,0.8c1.5,0.9,3.6,0.1,5,1.1c0.9,0.7,1.2,1.9,1.5,3
	c0.4,1.1,1.4,2.9,2.3,2.2c1.3-0.9-0.7-3.2-0.1-4.7c0.5-1.4,3,0.6,4.5,0.4C209.9,358.5,210.7,357.9,211.4,357.4z"/>
<path fill="#EAEAEA" stroke="#D6D6D6" stroke-miterlimit="10" d="M54.6,279.2c1,0.1,2-0.1,2.8-0.6c0.1-0.1,0.3-0.2,0.4-0.3
	c1.2-0.8,2.3-1.7,3.5-2.5c0.2-0.1,0.4-0.3,0.5-0.5c0.2-0.5-0.3-1.1-0.6-1.5c-0.8-1.3-0.6-3-1.3-4.3c-0.7-1.1-1.5-2.1-2.2-3.2
	c-0.6-0.9-2.2-0.3-3,0.4c-0.8,0.7-1.3,1.7-1.7,2.8c-0.4,1-0.7,2.1-1.4,3c-0.6,0.9-1.6,1.8-1.3,2.8c0.3,1,1.5,1.3,2.2,2.1
	c0.4,0.5,0.6,1.2,1.1,1.5C53.9,279.1,54.2,279.2,54.6,279.2z"/>
<path fill="none" stroke="#D6D6D6" stroke-miterlimit="10" d="M-12.9,181.3c0.6-0.6,1.2-1.3,1.8-1.9c1.3-1.4,2.5-2.8,3.8-4.1
	c2.2-2.5,4.5-4.9,5.9-7.9c1.1-2.3,1.6-5.1,0.5-7.4c-0.2-0.3-0.4-0.6-0.4-1c0-0.8,0.9-1.3,1.7-1.6c0.5-0.2,2.4-0.8,2.5-1.6"/>
<path fill="none" stroke="#D6D6D6" stroke-miterlimit="10" d="M-13.5,157.8c2.2-1,4.5-1.9,6.7-2.9c1.4-0.6,2.8-1.2,4.3-1.2
	c2.5-0.1,4.7,1.3,6.9,2.6c0.4,0.2,0.7,0.4,1.1,0.4c0.7,0,1.2-0.4,1.9-0.5c1.5-0.1,2.4,2.1,3.9,2.2c0.4,0,0.8-0.1,1.2-0.3
	c4.3-1.5,8.6-3,12.9-4.5c1.1-0.4,2.6-0.6,3.1,0.5c0.3,0.7,0,1.7,0.7,1.9c0.2,0.1,0.5,0,0.7-0.1c4.8-2.1,9.5-4.4,14.6-5.9
	c2.9-0.8,5.9-1.5,8.1-3.5c0.9-0.8,1.6-1.9,2.5-2.7c1.9-1.7,4.6-2.3,7.1-2.8"/>
<path fill="none" stroke="#D6D6D6" stroke-miterlimit="10" d="M366.9-12.6c-0.5-0.3-1.2,0.1-1.5,0.7s-0.3,1.2-0.4,1.8
	c-0.5,2.9-3.6,4.5-6.3,5.7c-2.9,1.3-5.7,2.5-8.7,3.5c-3.1,1.1-6.4,2-8.6,4.4c-0.4,0.5-0.8,1-1.3,1.5c-2.7,2.6-7.4,2.4-9.8,5.3
	c-1.6,1.9-1.9,5-4,6.1c-0.7,0.4-1.6,0.5-2.3,0.8c-2.2,0.9-3.4,3.6-5.7,4.1c-0.9,0.2-2,0.1-2.7,0.7c-0.5,0.5-0.5,1.2-0.9,1.8
	c-0.7,1.2-2.2,1.5-3.4,2.2c-1.5,0.8-2.5,2.3-3.8,3.3c-4.3,3.4-11.3,2.5-15,6.6c-0.6,0.6-1,1.3-1.6,1.8c-1.4,1.2-3.5,1.4-5.1,0.6
	c-0.5-0.2-0.9-0.5-1.4-0.6c-0.6-0.1-1.3,0.1-1.9,0.3c-1.7,0.6-3.4,1.2-5.1,1.8c-1,0.4-1.8,1.1-2.6,1.8c-4.4,3.9-10.5,7-14.4,11.3
	c-3.2,3.6-6.7,7.1-10.7,9.9c-6.3,4.3-13.8,6.4-21.2,8.2c-1.7,0.4-3.6,0.8-5.2,1.6"/>
<path fill="#EAEAEA" stroke="#D6D6D6" stroke-miterlimit="10" d="M187.5,105.3c1.5-0.1,2.8-0.6,4.3-1c1.2-0.3,2.4-0.3,3.7-0.5
	c3.4-0.4,6.7-1.7,9.8-3c0.4-0.2,0.8-0.3,1.2-0.6c0.4-0.3,0.6-0.8,0.9-1.2c1-1.2,2.5-1.6,4-2c1.3-0.3,2.5-0.7,3.8-1
	c0.9-0.2,1.9-0.6,2.1-1.5c0.4-1.7-2.7-2.6-2.6-4.4c0.1-1,1.1-1.6,2-1.9c0.9-0.3,2-0.6,2.5-1.5c0.3-0.5,0.3-1.1,0.5-1.6
	c0.4-1.6,1.7-2.7,2.7-3.9c1.1-1.2,2.1-2.7,1.8-4.3c-0.2-0.9-0.7-1.7-1-2.6c-0.2-0.9-0.1-2.1-0.9-2.7c-0.5-0.4-1.2-0.4-1.7-0.6
	c-2-0.6-2.7-3.2-4.3-4.5c-1.1-0.9-2.6-1.2-4-1.4c-1.1-0.2-2.2-0.4-3.3-0.5c-0.8-0.1-1.6-0.3-2.4,0c-0.8,0.3-1.4,0.9-2.2,1.3
	c-1.2,0.6-2.7,0.6-4,0.6c-2.1,0-4.2,0.2-6.2,0.5c-1.2,0.2-2.4,0.5-3.3,1.2c-0.7,0.5-1.2,1.3-1.8,1.8c-1.3,1.1-3,1.3-4.6,1.6
	c-1.3,0.2-2.6,0.4-3.9,0.6c-1.4,0.2-3.2,0.2-3.7-1.1c-0.2-0.4-0.1-1-0.5-1.3c-0.3-0.3-0.7-0.3-1.1-0.3c-1.6,0-4.4,1.3-6,2
	c-3.4,1.4-5.4,1.4-8.9,2.4c-0.7,0.2-1.4,0.4-1.9,0.8c-1.6,1.1-1.7,3.4-1.9,5.3c-0.3,2.7-0.9,5.3-2.4,7.6c-1.5,2.2-3.8,4-6.5,4.3
	c-1.1,0.1-2.2,0.1-3.1,0.6c-1.5,0.9-2,2.8-2.8,4.4c-1.9,3.7-5.3,1.5-6.8,3.7c-0.9,1.3,3.3,0.7,3.8,2.3c0.6,1.8-3.5,2.8-2.9,7
	c0.1,0.8,0.1,1.7-0.2,2.5c-0.3,0.8-1.2,2-1.8,1.5c-1.3-1.1-0.9-3.4-1.9-4.8c-1-1.4-2.7-2.4-4.4-2.2c-0.9,0.1-1.7,0.6-2.4,1.1
	c-5.9,3.5-11.8,6.7-18,9.8c-1.5,0.7-3,1.5-4.6,1.9c-1.7,0.5-3.4,0.6-5.1,1.2c-1.6,0.6-3.2,1.7-3.8,3.4c-0.2,0.7,0.1,2-0.1,2.7
	c-0.3,0.8-2.8,2-3.4,2.6c-2.1,2.2-0.3,1.9-2.3,4.1c-1.2,1.3-5,3.7-6.7,4.1c-1.7,0.4-3.5-0.3-3.6-2c-0.1-2,2.6-2.9,3.4-4.7
	c0.3-0.6-0.7-1.1-1.3-0.9c-0.6,0.2-1,0.8-1.5,1.2c-1.8,2.1-4.5,3.1-7.3,3.3c-1.1,0.1-1.6,1.5-2.3,2.4c-1.2,1.6-4.1,1.1-5.6,2.4
	c-0.4,0.3-0.7,0.7-0.8,1.2s0.1,1,0.6,1.2c0.4,0.1,0.8-0.1,1.2-0.3c1.5-0.7,3.3-1.1,5-1.1c0.3,0,0.7,0,1,0.3c0.2,0.2,0.3,0.4,0.4,0.6
	c0.5,0.8,1.7,0.8,2.5,0.6c0.9-0.3,1.7-0.8,2.6-1.1c1.4-0.4,3-0.1,4.4-0.3c2.1-0.4,3.8-2,5.9-2.5c1.6-0.3,3.3,0,4.6-1
	c0.6-0.5,1-1.2,1.6-1.7c0.7-0.6,1.6-0.8,2.5-0.9c2.3-0.5,4.7-0.9,7-1.4c0.7-0.1,1.6-0.4,1.9-1c0.1-0.3,0.2-0.6,0.3-0.8
	c0.4-0.8,1.3-1.1,2.2-1.3c1.9-0.4,3.8-1,5.3-2.3c1.4-1.2,2.6-2.4,4.2-3.2c4.7-2.2,8.8-3.4,13.3-4.9c1.1-0.4,2.2-0.7,3.3-0.8
	c0.8,0,1.7,0.1,2.5,0c1.8-0.2,3.2-1.5,4.9-1.9c2-0.5,4.2,0.1,6.2-0.5c2.4-0.7,5.5-4,5.3-5.3c-0.2-1.4-3.8,0.7-4.3-0.7
	c-0.7-2.3,3.6-3.3,5.5-4.8c0.8-0.6,2-1.1,2.5-0.4c0.3,0.3,0.3,0.8,0.3,1.3c0.2,2.7,3.1,4.8,5.8,4.3c2.6-0.5,4.2-3,5.3-5.4
	c0.1-0.3,0.2-0.5,0.4-0.7c0.3-0.3,0.6-0.4,0.9-0.5c4.6-1.7,13.5-3.8,14.4-3c1.2,1.1-1.5,3.8-0.1,4.8
	C183.2,107.1,185.5,105.3,187.5,105.3z"/>
<path fill="#FFFFFF" stroke="#4E9BD7" stroke-miterlimit="10" d="M168.8,172.7c-0.4,0.4-0.1,1,0.2,1.4c0.3,0.3,0.6,0.7,0.9,0.8
	c0.5,0.2,1,0.3,1.5,0.2c0.9-0.1,1.8-0.4,2.6-0.9c0.2-0.1,0.4-0.3,0.4-0.6c0-0.1-0.1-0.3-0.2-0.4c-0.2-0.3-0.5-0.5-0.7-0.8
	c-0.1-0.1-0.2-0.2-0.4-0.3c-0.1-0.1-0.3,0-0.4,0c-1.1,0.1-2.2,0.1-3.3,0.2C169.3,172.5,169,172.6,168.8,172.7z"/>
<path fill="#FFFFFF" stroke="#D6D6D6" stroke-miterlimit="10" d="M116.5,118.7c-0.8-0.8-1.8-1.7-2.9-1.5c-1,0.1-1.7,1.1-1.8,2.1
	c-0.1,1-0.3,2.7,0.7,2.9c0.9,0.1,1.4-1.3,2.2-1.5c0.5-0.1,1-0.1,1.5-0.4c0.5-0.2,0.8-0.8,0.6-1.2
	C116.7,118.9,116.6,118.8,116.5,118.7z"/>
<path fill="#FFFFFF" stroke="#D6D6D6" stroke-miterlimit="10" d="M98.5,124.5c-0.2-0.2-0.4-0.3-0.7-0.3c-0.7-0.2-1.6,0.1-1.9,0.7
	c-0.4,0.6,0.1,1.7,0.8,1.7c0.5,0,1.4-0.4,2.1-0.7C99.3,125.7,98.9,124.9,98.5,124.5z"/>
<g>
	<g>
		<path fill="none" stroke="#585858" stroke-miterlimit="10" d="M160.9,368.6c0-0.7,0-1.4,0.3-2"/>
		<path fill="none" stroke="#585858" stroke-miterlimit="10" stroke-dasharray="4.0172,1.0043" d="M161.6,365.7
			c1.3-2.4,4.2-4.1,6.7-5.3c4.4-2.1,8.9-4.2,13.5-6c4.4-1.7,9.2-3,13.8-1.9c1.6,0.4,3.1,1,4.8,1.2c2.1,0.2,4.4-1.2,6.5-1.5
			c4.5-0.7,9.1,0.9,12.9,3.4c0.4,0.2,0.8,0.5,1.2,0.5c0.4,0,0.7-0.3,1.1-0.5c2.7-2,5.5-4,8.2-6c0.6-0.4,1.2-0.9,1.7-1.5
			c0.4-0.6,0.6-1.3,1.1-1.8c0.6-0.6,1.4-0.9,2.2-1.1c6.8-1.9,13.7-3.9,20.7-4.3c6.2-0.4,12.8,1.5,18.6-0.9
			c16.7-6.8,9.4-10.2,13-11.7c1.7-0.7,5,1.2,5.2-0.6c0.3-2.5-3.4-3.2-2.7-5.6c0.7-2.4,3.5-5.8,5.1-7.8c1.2-1.5,2.4-3,4.1-3.9
			c0.9-0.5,2-0.7,2.9-1.3c1.4-1,2-2.8,3.3-3.8c0.9-0.7,2.1-0.7,3.1-1.1c3.6-1.3,7.5-2,11.3-2.3c1.1-0.1,2.9-0.1,4,0.2
			c1.7,0.6,1.9,2.4,3.1,3.8c1.1,1.4,2.9,0.6,4.6,1.2c2.6,0.9-0.4,5.2-0.2,7.9c0.1,1.6,0.7,2.5,1.5,3.9c0.3,0.4,0.6,0.9,1,1.2
			c0.3,0.2,0.6,0.3,0.9,0.5c1,0.6,1.4,1.8,1.6,2.9c0.1,1.1,0,2.3,0.1,3.4c0.1,2.6,1.2,5,2.4,7.3c1.9,3.7,4,7.2,6.4,10.6
			c0.7,1,1.3,2.6,2.4,3.2c0.9,0.5,2.4,0.8,3.4,0.9c1.6,0.2,3.2,0.2,4.8,0.3c3.6,0.4,7.2,0.4,10.6-0.8"/>
		<path fill="none" stroke="#585858" stroke-miterlimit="10" d="M366.7,348.5c0.6-0.2,1.2-0.5,1.8-0.9"/>
	</g>
</g>
<text transform="matrix(1 0 0 1 125.4146 77.024)"><tspan x="0" y="0" fill="#585858" font-family="'Verdana-Italic'" font-size="8">Bearup</tspan><tspan x="0" y="9.6" fill="#585858" font-family="'Verdana-Italic'" font-size="8">Lake</tspan></text>
<text transform="matrix(1 0 0 1 127.6098 171.0929)"><tspan x="0" y="0" fill="#7BBCEB" font-family="'Verdana-Italic'" font-size="8">Miwok</tspan><tspan x="0" y="9.6" fill="#7BBCEB" font-family="'Verdana-Italic'" font-size="8">Lake</tspan></text>
<text transform="matrix(1 0 0 1 238.3306 221.8575)"><tspan x="0" y="0" fill="#585858" font-family="'Verdana-Italic'" font-size="8">Ardeth</tspan><tspan x="0" y="9.6" fill="#585858" font-family="'Verdana-Italic'" font-size="8">Lake</tspan></text>
<text transform="matrix(1 0 0 1 307.2476 227.274)" fill="#585858" font-family="'Verdana-Italic'" font-size="8">9149 ×</text>
<text transform="matrix(1 0 0 1 37.331 65.1073)" fill="#585858" font-family="'Verdana-Italic'" font-size="8">× 8455</text>
<text transform="matrix(1 0 0 1 264.2476 101.6907)" fill="#585858" font-family="'Verdana-Italic'" font-size="8">× 8057</text>
<text transform="matrix(1 0 0 1 60.4143 224.9407)" fill="#585858" font-family="'Verdana-Italic'" font-size="8">× 8331</text>
<path fill="none" d="M295.9,296.4c8.6-3.5,17.7-7.1,27-6.3c7.9,0.7,15.1,4.6,22.1,8.5"/>
<text transform="matrix(0.9869 -0.1612 0.1612 0.9869 312.4107 293.4088)"><tspan x="0" y="0" fill="#7D7D7D" font-family="'Verdana-Italic'" font-size="7">7</tspan><tspan x="4.2" y="0" fill="#7D7D7D" font-family="'Verdana-Italic'" font-size="7" rotate="6.8">8</tspan><tspan x="8.2" y="0.4" fill="#7D7D7D" font-family="'Verdana-Italic'" font-size="7" rotate="15">0</tspan><tspan x="12.2" y="1.5" fill="#7D7D7D" font-family="'Verdana-Italic'" font-size="7" rotate="22.9">0</tspan></text>
<path fill="none" d="M232.6,186.4c13-8,29.3-9.9,41.3-19.3"/>
<text transform="matrix(0.937 -0.3492 0.3492 0.937 246.3111 182.651)"><tspan x="0" y="0" fill="#7D7D7D" font-family="'Verdana-Italic'" font-size="7">8</tspan><tspan x="4.4" y="0" fill="#7D7D7D" font-family="'Verdana-Italic'" font-size="7" rotate="0.4">4</tspan><tspan x="8.9" y="0" fill="#7D7D7D" font-family="'Verdana-Italic'" font-size="7" rotate="-0.2">0</tspan><tspan x="13.4" y="0" fill="#7D7D7D" font-family="'Verdana-Italic'" font-size="7" rotate="-2">0</tspan></text>
<path fill="none" d="M52.3,316.1c0.6-5.8,3-11.2,5.3-16.5c1-2.2,2-4.4,2.9-6.7c1.5-3.4,3-6.8,5.2-9.8"/>
<text transform="matrix(0.2981 -0.9545 0.9545 0.2981 55.4922 312.1588)"><tspan x="0" y="0" fill="#7D7D7D" font-family="'Verdana-Italic'" font-size="7">8</tspan><tspan x="4.3" y="0" fill="#7D7D7D" font-family="'Verdana-Italic'" font-size="7" rotate="4.3">2</tspan><tspan x="8.6" y="0.4" fill="#7D7D7D" font-family="'Verdana-Italic'" font-size="7" rotate="6.3">0</tspan><tspan x="13" y="0.8" fill="#7D7D7D" font-family="'Verdana-Italic'" font-size="7" rotate="6.5">0</tspan></text>
<path fill="none" d="M236.9,106.1c6.4-2.9-7.4-6.4,21.3-23.2c1.7-1,13.7-8.7,14.9-10.2"/>
<text transform="matrix(0.7986 -0.6019 0.6019 0.7986 247.8091 92.8482)"><tspan x="0" y="0" fill="#7D7D7D" font-family="'Verdana-Italic'" font-size="7">7</tspan><tspan x="4.3" y="0" fill="#7D7D7D" font-family="'Verdana-Italic'" font-size="7" rotate="3.1">6</tspan><tspan x="8.6" y="0.2" fill="#7D7D7D" font-family="'Verdana-Italic'" font-size="7" rotate="5.4">0</tspan><tspan x="13.1" y="0.7" fill="#7D7D7D" font-family="'Verdana-Italic'" font-size="7" rotate="5">0</tspan></text>
<path fill="none" d="M36.2,46.9c5-1.1,9.3-4,13.5-6.9c3.1-2.1,6.1-4.2,9.2-6.2c7.6-5.2,15.1-10.3,22.4-15.9"/>
<text transform="matrix(0.8216 -0.57 0.57 0.8216 66.9146 31.3458)"><tspan x="0" y="0" fill="#7D7D7D" font-family="'Verdana-Italic'" font-size="7">8</tspan><tspan x="4.4" y="0" fill="#7D7D7D" font-family="'Verdana-Italic'" font-size="7" rotate="-0.5">6</tspan><tspan x="8.9" y="0" fill="#7D7D7D" font-family="'Verdana-Italic'" font-size="7" rotate="-1.1">0</tspan><tspan x="13.4" y="-0.1" fill="#7D7D7D" font-family="'Verdana-Italic'" font-size="7" rotate="-2">0</tspan></text>
<path fill="none" d="M53.7,201.3c4.2,0.1,8.1-2.3,12.1-3.8c10.1-3.8,22.2-2,31.2-7.9"/>
<text transform="matrix(0.9185 -0.3953 0.3953 0.9185 62.7608 201.5006)"><tspan x="0" y="0" fill="#7D7D7D" font-family="'Verdana-Italic'" font-size="7">8</tspan><tspan x="4.2" y="0" fill="#7D7D7D" font-family="'Verdana-Italic'" font-size="7" rotate="6.8">0</tspan><tspan x="8.3" y="0.5" fill="#7D7D7D" font-family="'Verdana-Italic'" font-size="7" rotate="12.4">0</tspan><tspan x="12.6" y="1.4" fill="#7D7D7D" font-family="'Verdana-Italic'" font-size="7" rotate="15.3">0</tspan></text>
<g>
	<g>
		<polyline fill="none" stroke="#7D7D7D" stroke-miterlimit="10" points="85.2,341.6 85.2,348.7 275.4,348.7 275.4,341.7 		"/>
		<line fill="none" stroke="#7D7D7D" stroke-miterlimit="10" x1="180.5" y1="341.4" x2="180.5" y2="348.7"/>
		<line fill="none" stroke="#7D7D7D" stroke-miterlimit="10" x1="161.2" y1="349.2" x2="161.2" y2="343.7"/>
		<line fill="none" stroke="#7D7D7D" stroke-miterlimit="10" x1="142.4" y1="349.2" x2="142.4" y2="343.7"/>
		<line fill="none" stroke="#7D7D7D" stroke-miterlimit="10" x1="123.3" y1="349.2" x2="123.3" y2="343.5"/>
		<line fill="none" stroke="#7D7D7D" stroke-miterlimit="10" x1="104.6" y1="349.2" x2="104.6" y2="343.7"/>
	</g>
	<text transform="matrix(1 0 0 1 83.7835 339.1469)" fill="#7D7D7D" font-family="'Verdana'" font-size="8">0</text>
	<text transform="matrix(1 0 0 1 174.2946 339.1469)" fill="#7D7D7D" font-family="'Verdana'" font-size="8">0.5</text>
	<text transform="matrix(1 0 0 1 258.3415 339.1469)" fill="#7D7D7D" font-family="'Verdana'" font-size="8">1 mi</text>
</g>
</svg>
