<?xml version="1.0" encoding="utf-8"?>
<!-- Generator: Adobe Illustrator 17.1.0, SVG Export Plug-In . SVG Version: 6.00 Build 0)  -->
<!DOCTYPE svg PUBLIC "-//W3C//DTD SVG 1.1//EN" "http://www.w3.org/Graphics/SVG/1.1/DTD/svg11.dtd">
<svg version="1.1" id="Layer_1" xmlns="http://www.w3.org/2000/svg" xmlns:xlink="http://www.w3.org/1999/xlink" x="0px" y="0px"
	 viewBox="0 0 360 360" enable-background="new 0 0 360 360" xml:space="preserve">
<path fill="none" stroke="#E1E1E1" stroke-miterlimit="10" d="M209.9-13.5c-2.7,1.5-5.7,2.6-7.8,4.9c-1,1.2-1.8,2.6-2.9,3.7
	c-2,2-5,2.7-7.7,3.7c-4.6,1.8-8.8,4.2-12.9,6.9c-2.1,1.4-4.2,2.9-5.8,4.9c-1.1,1.5-1.9,3.2-3,4.6c-1.9,2.3-4.8,3.7-7.2,5.5
	c-2.4,1.8-6.3,5.5-4.1,7.6c1.9,1.8,5.1,0.8,7.6,1.5c0.9,0.3,1.9,0.6,2.4,1.4c0.4,0.6,0.6,1.3,0.7,2c0.7,4.4,0.7,8.9,0.6,13.4
	c0,3-0.1,6.3-2.1,8.6c-1.6,1.9-4.3,2.8-5.6,5c-0.7,1.3-0.9,2.8-0.8,4.2c0,1.1,0.2,2.3,0.7,3.3c0.9,1.9,3,3.2,5.1,3.6
	c2.1,0.5,4.8-1.3,6.4,0.2c1.1,1-1,2.8-2.1,3.9c-1.1,1-2.4,2-3,3.4c-0.6,1.4-0.2,3.4,1.3,3.8c0.8,0.2,1.7-0.1,2.4-0.4
	c2.2-0.8,4.5-3.4,6.7-2.5c1,0.4-0.2,2.4,0.6,3.1c2.9,2.7,7.6-2.5,10.4-5.3c0.9-0.9,1.8-1.9,3.1-1.9c0.8,0,1.5,0.3,2.2,0.6
	c1.7,0.6,4.1,1.7,5.3,0.4c4.6-5.2,1.2-13.8,1.9-20.8c0.1-1.1,0.2-2.2,0.7-3.1c0.4-0.8,1.1-1.4,1.8-2c3.1-2.7,6.1-5.3,9.2-8
	c2.3-2,4.5-4,7.2-5.4c6.5-3.4,14.3-2.9,21.3-5.3c2.4-0.8,4.6-2,7.1-2.6c5-1.4,9.7,2.5,14.8,2.3c4.3-0.1,8.8-1.5,13-0.3
	c3.8,1.1,8.9,0.2,11.3,3.3c1.5,2.1,1.4,7.2,3.8,6.3c1.5-0.6,0.3-3.7,1.7-4.5c5.8-3.2,13.3,1.2,19.6,3.1c2.2,0.6,0.9,4,0.9,6.2
	c-0.1,3.8,3.6,6.7,7.3,7.7s7.6,0.7,11.3,1.8c4.5,1.3,8.2,4.5,11.7,7.5c1.5,1.3,2.9,2.6,4.4,3.9c2,1.7,4,3.5,5.5,5.7
	c3.7,5.4,3.6,12.4,3.2,19c-0.1,0.8-0.1,1.6-0.6,2.2c-0.6,0.8-1.8,1-2.8,1.3c-4,1.4-5.7,6.2-8.5,9.4c-2.8,3.1-6.7,4.7-10.5,6.3
	c-3.7,1.5-7.4,3-11.3,3.2c-5.3,0.2-10.5-2-15.3-4.3c-11.1-5.2-22.3-11-30.7-20c-0.9-0.9-1.8-2-2.2-3.2c-0.4-1.1-0.5-2.4-1.4-3.3
	c-1-0.9-2.5-0.8-3.8-0.6c-7,1.2-19.9,7-15.4,12.4c0.9,1.1,3.8-0.9,4.3,0.5c0.6,1.5-2.1,2.8-2.1,4.4c0,1,0.5,2,0.6,3
	c0.2,2.6-2.1,4.7-4.4,5.7c-2.3,1.1-5,1.6-6.9,3.3c-2,1.7-2.8,5.1-0.8,6.7c0.7,0.6,1.6,0.8,2.2,1.5c1.3,1.4,0.4,3.7,0.2,5.6
	c-0.4,4.8,4.3,8.6,5.3,13.4c1.6,7.2-5.4,14.4-3.5,21.5c0.2,0.9,0.6,1.8,0.6,2.7c-0.1,2.6-3.4,3.8-6,4.3c-4,0.8-8.1,1.5-12.1,2.3
	c-3.4,0.7-7.3,1.6-9.1,4.7c-1.7,3-0.6,6.7,0.5,10c1.8,5.1,3.5,10.1,5.3,15.2c1.5,4.4,3.1,8.9,6.3,12.3c2.2,2.3,0.7,6.8-0.6,9.7
	s-3.4,5.4-5.5,7.8c-0.6,0.7-1.2,1.4-2.1,1.9c-1.1,0.6-2.3,0.6-3.5,0.8c-4.1,0.5-8.3,2.6-12.3,1.5c-1.2-0.3-2.2-0.9-3.4-1
	s-1.9,1.6-3.1,1.3c-1.8-0.4-2.4-2.6-4.2-2.9c-3.7-0.6-8.9,1.3-11.2-1.7c-1.2-1.6-1.3-3.9-3.2-4.7c-1.8-0.8-4.2-1.8-6-0.8
	c-0.8,0.5-0.8,2.1-1.7,2.2c-1.8,0.1-3.2-1.7-4.9-1.8c-0.7,0-1.5,0-2.1-0.3c-0.7-0.3-1.1-1-1.5-1.6c-1.6-2.5-3.8-4.6-6.3-6.2
	c-1.9-1.2-4-2.1-5.6-3.6c-3-2.6-4.4-6.6-6.6-10c-2.1-3.4-6.7-8.1-9.8-5.5c-4.9,4.2-6.5,11.2-11.4,15.3c-2.5,2.1-5.2,3.9-7.8,5.8
	c-14.1,10.6-24.6,26-29.2,43.1c-0.8,2.9-0.6,5.9-0.7,8.8c-0.1,1.6-0.1,3.2,0.5,4.7c0.8,2.2,2.9,3.7,5.1,4.4c2.2,0.7,5.3-0.9,6.9,0.9
	c0.8,0.8-1.1,1.9-1.8,2.8s0.4,1.8,0.2,2.9c-0.3,1.3-2.6,1.2-2.3,2.5c0.1,0.4,0.4,0.8,0.4,1.2c0,0.8-0.7,1.4-1.2,2.1
	c-1.1,1.4-1,3.4-0.3,5c0.7,1.6,1.8,3,2.8,4.5c3.2,4.6,4.8,10.1,7.4,15.1c0.8,1.6,1.8,3.2,3.2,4.5c2.5,2.2,6,3,9.3,3.2
	s6.7-0.2,10,0.1c1.9,0.2,3.8,0.6,5.5,1.4c1.5,0.8,2.9,1.9,4.1,3.1c5.1,5.3,7.5,12.7,9.4,19.8c0.4,1.5,0.8,3,0.7,4.6
	c-0.1,2.2-1.2,4.2-2.3,6.2c-2.5,4.6-5.1,9.2-7.6,13.8"/>
<path fill="none" stroke="#E1E1E1" stroke-miterlimit="10" d="M303.4-13.3c0,0.2,0,0.4-0.1,0.7c-0.2,1.7-1.1,3.1-1.9,4.6
	c-1.3,2.2-2.7,4.5-4.9,5.8c-2.2,1.3-5.5,1.1-6.9-1c-0.9-1.4-0.9-3.4-2.2-4.5c-1.3-1.1-3.3-0.7-5-1.1c-2.5-0.5-4-2.5-5.2-4.8"/>
<path fill="none" stroke="#E1E1E1" stroke-miterlimit="10" d="M350.8-13.4c0.4,0.6,0.9,1.3,1,2.1c0.2,1.7-1.1,3.1-2.1,4.5
	c-1.7,2.5-2.3,5.7-1.6,8.6c0.3,1.3,0.8,2.5,1,3.8c0.4,3-1.9,6-4.6,7.3c-1.3,0.6-2.8,0.9-3.9,1.8c-1.1,0.9-1.6,2.9-0.4,3.7
	c0.4,0.3,1,0.4,1.5,0.6c1.6,0.8,1.8,3,1.8,4.8c-0.1,3.7-0.2,7.4-0.3,11c0,0.4,0,0.8-0.2,1.1c-0.4,0.9-1.8,1-2.7,0.5
	s-1.5-1.3-2.4-1.9c-2-1.4-5.2-0.9-6.6,1.2c-1.4,2-0.9,5.2,1.1,6.6c1.6,1.1,3.8,1.2,5.6,2c1.4,0.6,2.5,1.6,3.8,2.4
	c5.2,3.3,12.6,3.3,16.5,8.1c1.7,2.1,2.5,5,4.9,6.3"/>
<path fill="none" stroke="#E1E1E1" stroke-miterlimit="10" d="M363.2,161.9c-1.6,0-3.3,0-4.9-0.2c-0.4,0-0.9-0.1-1.3-0.4
	c-1.1-0.9,0-2.6,0.2-3.9c0.2-1.3-0.6-2.6-1.8-3.1c-1.1-0.4-2.2-0.2-3.4-0.2c-2.3-0.1-4-2-5.5-3.8c-1.9-2.3-5.3-3.2-7.7-4.9
	c-7.8-5.3-15.6-10.6-23.4-15.8c-2.7-1.8-5.4-3.7-8.2-5.4c-3.7-2.3-7.6-4.3-11.5-6.4c-5.1-2.7-10.8-5.5-16.4-4.1
	c-3.5,0.9-6.9,4.6-5.4,7.9c0.3,0.8,0.9,1.4,1.1,2.3c0.2,1.6-1.3,3.4-0.4,4.8c0.5,0.8,1.5,1,2.4,1.1c5.7,1,14.9,2,15.4,7.8
	c0.3,3-2.7,5.6-2.4,8.6c0.3,2.6,1.3,5.2,0.6,7.7c-0.3,1-0.9,1.9-1.5,2.9c-2.5,4.2-7.5,10.1-4.5,14c3.5,4.6,14.1-1.9,16.9,3.1
	c2.1,3.7,1.8,7.9,3.2,11.9c2.4,6.9-1.1,14.5,0,21.7c0.1,0.8,0.3,1.7,0.9,2.3c1.2,1.3,3.5,0.9,4.9-0.2c1.4-1.1,2.3-2.7,3.6-4
	c3.2-3.2,9-3.3,12.4-0.3c0.8,0.8,1.6,1.7,2.6,2.2c3.5,1.9,6-5.1,9.9-4.6c7.5,1,0.7,15.8,5.1,22c1.5,2.2,6.1,1.8,7.7-0.4
	c5.4-7.6,6.2-17.7,11.1-25.4"/>
<path fill="none" stroke="#E1E1E1" stroke-miterlimit="10" d="M362.7,17.9c-1.3,1.9-2.6,3.9-3.7,6c-2.1,3.9-4,9-4,14
	c0,3,0.9,7.5,7,8c0.9,0.1,1.8,0.2,2.7,0.3"/>
<path fill="none" stroke="#E1E1E1" stroke-miterlimit="10" d="M237-13.6c-0.4,0.3-0.8,0.6-1.2,0.9c-2.2,2-3.6,4.6-5.2,7.1
	c-2.1,3-4.6,5.7-7.2,8.3c-4.1,4-8.5,7.7-13.1,11.1c-0.7,0.5-2.4,2.3-3.1,2.8c-3.2,2.5-6.3,5-9.5,7.5c-5,3.9-10,7.9-13.3,13.4
	c-0.4,0.7-0.9,1.6-0.8,2.4c0.1,1.9,2.3,2.9,4.2,3c2.5,0,4.9-1,7.2-2c3.7-1.6,7.3-3.2,11-4.7c1.1-0.5,2.2-1,3.2-1.7
	c0.7-0.5,1.3-1.2,2.1-1.6c1.9-1.1,4.4-0.4,6.5-0.9c3.9-0.9,5.8-5.2,9.2-7.4c1.4-0.9,2.9-1.4,4.4-1.9c5.2-1.7,10.3-3.4,15.7-4.5
	c7.1-1.5,14.4-1.9,21.6-2.2c2.1-0.1,4.1-0.2,6.2,0c3.2,0.4,6.3,1.7,9.4,2.6c3.1,0.8,8.3,1.7,9.9-1.2c0.7-1.3-1.1-2.8-2.3-3.6
	c-0.7-0.4-1.6-0.6-2.1-1.2c-0.4-0.4-0.6-0.9-0.9-1.3c-0.8-0.9-2.1-1.1-3.3-1.2c-2-0.2-4-0.3-5.8-1c-1.9-0.7-3.6-2.1-4.2-4
	c-0.4-1.4-0.3-3.1-1.5-4c-1-0.7-2.4-0.5-3.4-1.2c-1.3-0.8-1.4-2.7-2.4-3.9c-1.1-1.5-3.3-1.9-4.5-3.4c-1.2-1.6-0.9-3.8-0.9-5.8
	c0-0.3,0-0.6-0.1-1"/>
<path fill="none" stroke="#E1E1E1" stroke-miterlimit="10" d="M298.8,18.2c-0.3-0.5-1-0.6-1.5-0.5c-0.5,0-0.9,0.1-1.3,0.4
	c-0.4,0.3-0.8,0.8-0.5,1.2c0.3,0.4,1.1,0,1.5,0.3c0.7,0.5,1.3,2.2,1.8,1.5C299.4,20.2,299.3,19,298.8,18.2z"/>
<path fill="none" stroke="#E1E1E1" stroke-miterlimit="10" d="M323,10.7c-3.1-0.8-6.6,0-9.1,2.2c-1.2,1-2.4,2.5-4,2.6
	c-1.7,0.1-3-1.2-4.4-2.2c-0.8-0.5-1.7-1-2.6-1s-1.9,0.4-2.3,1.3c-0.4,0.8-0.1,1.8,0.4,2.5c0.6,0.7,1.4,1.1,2.2,1.4
	c1.2,0.5,2.6,0.7,3.9,0.7c0.8,0,1.6-0.1,2.4,0c0.8,0.1,1.6,0.5,2.4,0.9c4.5,1.9,11.4,4.3,14.4,0.4c1.1-1.4,0.2-3.4,0-5.1
	c-0.1-0.5-0.1-1-0.3-1.5C325.6,11.6,324.3,11,323,10.7z"/>
<path fill="none" stroke="#E1E1E1" stroke-miterlimit="10" d="M175.2,48.9c0,0.6-0.3,1.3,0.2,1.6c0.2,0.1,0.4,0.2,0.7,0.2
	c1.2,0.1,2.4,0.1,3.7,0c0.4,0,0.9-0.1,1.1-0.4c0.2-0.3,0.2-0.6,0.2-0.9c0-0.9,0.3-1.9-0.2-2.7c-0.2-0.4-0.6-0.7-0.8-1.1
	c-0.2-0.3-0.3-0.7-0.4-1c-0.6-1.5-1.8-2.7-3.2-3.3c-0.2-0.1-0.4-0.2-0.6-0.2c-0.5,0-1,0.4-1.3,0.8c-0.3,0.5-0.3,1-0.3,1.6
	c0,1.2,0.2,2.4,0.6,3.6C175,47.7,175.2,48.3,175.2,48.9z"/>
<path fill="none" stroke="#E1E1E1" stroke-miterlimit="10" d="M360.1,179.4c0.5-0.9,0.3-2.1-0.3-3c-0.6-0.9-1.4-1.6-2.3-2.2
	c-1.7-1.2-3.4-2.4-5.2-3.5c-2.3-1.4-4.6-2.7-7-3.9c-0.7-0.4-1.5-0.8-2.1-1.3c-1.3-1.1-2.2-2.6-3-4.2c-0.6-1.1-1.1-2.1-1.5-3.3
	c-0.8-2.9,0.2-6-0.8-8.8c-1-2.6-3.4-4.4-6-5.6c-2.5-1.2-5.3-2-7.5-3.6c-1.4-0.9-2.5-2.2-4-2.9c-2.2-1.1-4.7-1.1-7.2-1.1
	c-1.4,0-2.8,0-4.2,0.5s-2.5,1.5-2.9,2.8c-0.4,1.4,0.2,2.8,0.5,4.2c0.8,3.8-0.7,7.8-0.4,11.7c0.1,1.4,0.5,2.9,1.7,3.7
	c0.5,0.3,1,0.5,1.6,0.6c3.1,0.6,6.3-0.2,9.5,0c3.2,0.2,6.7,1.9,7.2,5c0.1,0.7,0.1,1.5,0,2.2c-0.2,2.8-0.5,5.6-0.7,8.3
	c0,0.4-0.1,0.8-0.3,1.1c-0.5,0.6-1.5,0.4-2.2,0.2c-4.3-1.2-9.7,0-11.8,4c-0.2,0.4-0.4,0.8-0.3,1.2c0,0.5,0.3,1,0.4,1.6
	c0.6,2.2-1.3,4.4-0.9,6.7c0.1,0.9,0.7,1.8,0.8,2.7c0.1,0.6-0.1,1.3,0,1.9c0.1,0.6,0.6,1.3,1.2,1.3c0.3,0,0.6-0.2,0.8-0.3
	c1.9-1.3,3-3.7,5.2-4.4c0.6-0.2,1.4-0.2,1.9-0.6c0.7-0.5,0.9-1.6,1.6-2.2c0.7-0.6,1.8-0.5,2.7-0.5c1.9-0.2,3.5-1.4,4.8-2.7
	s2.4-2.9,3.8-4.1c2.7-2.4,6.4-3.2,10-4c0.9-0.2,1.9-0.4,2.8-0.2c0.5,0.1,1,0.4,1.4,0.7c1.9,1.2,3.8,2.3,5.7,3.5
	c0.7,0.4,1.4,0.8,2.1,1c1.3,0.2,2.6-0.3,3.6-1.1C359.4,180.3,359.9,179.9,360.1,179.4z"/>
<path fill="none" stroke="#E1E1E1" stroke-miterlimit="10" d="M363.3,146.9c-2.4-0.7-4.7-1.5-7.3-3.1c-5-3-7.6-9.5-13-13
	c-3.8-2.4-7.9-3.5-13-4c-2-0.2-5,0.3-7,0c-10.3-1.5-19.2-7.6-28-13c-6.2-3.8-14-7-21.3-4.3c-2.8,1-4.2,4-5.1,6.9s-1.1,5.9-1.3,8.8
	c-0.1,2.5-0.3,5.1,0.8,7.4c0.5,1.1,1.2,2.1,1.6,3.2c0.6,1.9,0.1,4.3,1.6,5.6c0.7,0.7,1.8,0.9,2.7,1.1c2.9,0.7,5.7,2.1,8.1,4.1
	c0.4,0.3,0.8,0.7,0.8,1.1c0.1,0.5-0.3,1-0.6,1.5c-3.6,5.6-0.5,13.4-3.2,19.4c-1.2,2.7-3.6,5.4-2.7,8.2c0.4,1.3,1.4,2.3,2.5,3.1
	c3.5,2.7,10.2,0.2,12.5,4.1c1.2,2-0.8,4.9,0.8,6.6c0.7,0.7,1.6,1.3,1.8,2.2c0.1,0.5,0,1.1-0.1,1.7c-0.5,1.9-1.4,3.8-1.4,5.8
	s1.6,3.2,3.2,4.5c3.8,3.2,0.2,9.7,0.2,14.6c0,1.2-0.9,2-1.8,2.8c-2.7,2.6-5.4,5.1-8.1,7.7c-0.8,0.7-1.6,1.5-2.6,2
	c-1,0.5-2,0.6-3,1.1c-1.9,0.9-3.2,2.9-5.2,3.5c-1.1,0.3-2.3,0.2-3.4,0.2c-5.4,0.1-9.9,4-15.2,5.3c-2,0.5-4.1,0.6-6,1.2
	c-4.4,1.4-7.9,5.4-12.6,5.7c-0.9,0.1-1.9,0-2.8,0.1c-1.5,0.2-2.9,1-4.2,1.7c-2.4,1.3-4.8,2.7-7.2,4c-1.5,0.8-2.9,1.6-4.2,2.8
	c-0.6,0.6-1.2,1.2-2,1.4c-0.4,0.1-0.9,0.1-1.3,0.1c-2.8-0.2-5.5-0.5-8.3-1.1c-2.7-0.6-5.4-1.4-8.1-1.9c-2-0.4-3.9-1.1-5.7-1.9
	c-1.7-0.7-3.4-1.3-4.9-2.3c-2.9-1.8-5.1-4.7-8.1-6.3c-1-0.5-2.2-0.9-3.1-1.7c-0.9-0.7-1.5-1.7-2.5-2.2c-1-0.5-2.2-0.5-3.1-1.2
	c-0.3-0.2-0.6-0.6-0.9-0.9c-2.5-2.9-5.8-4.9-9-6.9c-3.6-2.2-7.1-4.5-10.8-6.5c-0.8-0.4-1.7-0.9-2.3-1.6c-1.8-1.9-0.8-7.1-3.4-6.9
	c-3.8,0.2-4,7.2-7.6,8.7c-1.7,0.7-2.1,2.1-3.5,3.3c-0.8,0.7-1.9,0.6-2.7,1.3c-2.2,2.1-4.2,4.4-6.1,6.7c-0.4,0.5-0.8,1.1-0.7,1.7
	c0.2,0.8,1.2,1.2,2,1.3c3,0.5,6,0.1,8.9-0.1c6.8-0.5,13.7-0.2,20.4,0.8c0.3,0,0.6,0.1,0.9,0.3c0.2,0.2,0.3,0.4,0.4,0.6
	c2.3,5.5,3.5,11.9,0.9,17.3c-1.7,3.4-3.8,6.2-6,9.3c-2.2,3.1-4,6.8-3.3,10.5c0.6,3.2,3,5.7,5.3,8.1c2.1,2.1,4.2,4.3,6.6,6
	c3.7,2.7,8,4.5,11.7,7c4.4,3,8,7.2,10.3,12c1.6,3.2,2.6,6.7,4.6,9.6c4.7,6.7,13.4,8.9,21.4,10.7c3.4,0.8,6.9,1.5,10.3,2.3
	c1.5,0.3,2.9,0.6,4.4,0.6c4.2-0.1,7.9-3.4,9.8-7.2c1-2,1.7-4.2,3.3-5.8c3.1-3.1,8.3-2.5,12.6-3.1c0.6-0.1,1.3-0.2,1.8-0.6
	c1.1-0.8,1.2-2.3,1.3-3.6c0.1-4.5-0.1-8.9-0.6-13.4c-0.2-1.6-0.4-3.3,0-4.9c0.3-1.3,1-2.6,1.4-3.9c0.9-2.7,0.6-5.7,1.8-8.3
	c0.8-1.7,2.1-3.2,3.2-4.7c2-3,2.3-6.7,2.9-10.2c0.4-2.3,2.3-6.6,3.5-8.5c4.2-6.7,10.9-12,18.2-15.2c0.9-0.4,1.7-0.7,2.5-1.3
	c0.6-0.5,1.2-1.1,1.9-1.4c2.3-0.9,5.3,1.6,7.2-0.1c1.3-1.1,0.9-3.4,2.2-4.4c0.6-0.4,1.4-0.5,2.1-0.7c4.7-0.9,8.1-4.7,11.1-8.4
	c1.2-1.4,2.6-2.9,4.5-2.8c1,0.1,1.9,0.7,2.8,1.2c3.8,2.1,8.9-0.5,12.8,1.4c1.6,0.7,1.2,3.2,1.3,4.9c0.2,2.7,0.5,5.4,0.7,8.1
	c0.2,2.3,0.4,4.6-0.1,6.9c-0.5,2.1-1.1,4.3-2.7,5.8c-0.4,0.4-1.7,0.8-2.1,1.2c-1.9,2.1-3.4,4.7-6.1,5.7c-0.6,0.2-1.2,0.4-1.7,0.7
	c-0.8,0.5-1.2,1.4-1.6,2.2c-0.6,1.4-2.5,3.5-1.3,4.5c1,0.8,2.5,0.3,3.4,1.1c0.9,0.9,1.7,2,2.8,2.5c1.5,0.7,3.3,0.4,4.8-0.5
	s2.5-2.2,3.6-3.4c1.2-1.5,2.4-2.9,3.7-4.4c0.6-0.7,1.3-1.5,1.7-2.4c0.5-1,0.6-2.2,0.9-3.3c0.9-3.3,5.4-5.7,5.6-6.1
	c1-1.3,3.2-3.3,3.5-3.8c1.3-2.6,2.9-3.8,5.6-4.9c2.2-0.9,4.1-2.2,6.4-2.7c1.3-0.3,2.1,0.9,2.7,2.3"/>
<path fill="none" stroke="#E1E1E1" stroke-miterlimit="10" d="M336.2,368.8c-2.8-3-5-6.6-5.8-10.6c-0.5-2.7-0.4-5.4-0.2-8.1
	c0.6-10.7,1.2-21.5,2.5-32.2c0.4-3,0.8-6,0.7-9.1c-0.3-4.1-1.7-8.3-1.1-12.4c0.3-1.9,1.1-3.7,1.2-5.7s-0.5-4.1-2.2-5
	c-1.1-0.6-2.3-0.5-3.5-0.6c-4.9-0.5-9.1-3.6-13.6-5.8c-4.5-2.2-9.6-3.4-14.6-3.4c-0.8,0-1.6,0-2.3-0.4c-0.6-0.4-0.9-1.1-1.2-1.8
	c-1.4-3.4-3.2-6.5-2.6-10.2c0.2-1.4,1.1-3,1.5-4.3c0.2-0.5,0.3-2.7-0.4-2.8c-0.7-0.2-1.4-0.1-2.1-0.3c-0.4-0.1-0.9-0.3-1.3-0.3
	c-0.6,0-2.5-0.5-3-0.1c-0.8,0.6-1.1,1.3-1.3,2.3c-0.2,1.2-3.4,1.7-4.3,0.5c-0.4-0.5-1.2,0.6-1.5,1.2c-0.6,1.1-0.2,2.7-1.1,3.5
	c-2.6,2.4-6.1,5.4-7.5,8.7s-2.1,6.9-3.5,10.1c-1.5,3.5-3.9,6.7-5,10.4c-0.8,2.7-0.9,5.6-0.9,8.4c-0.2,9-0.5,18.1-0.7,27.1
	c-0.1,3-0.7,6.8-3.6,7.5c-4,1-7-4.9-11-4.3c-1.9,0.3-3.3,1.9-4.4,3.5c-3.6,4.8-7.1,9.5-10.7,14.3c-2.8,3.8-5.7,7.6-7,12.1
	c-0.7,2.4-1.2,5.3-3.5,6.4c-3.4,1.6-6.5-2.4-9.4-4.7c-2.7-2.3-6.5-3.3-10-2.8c-8.3,1.2-14.2,10.2-22.6,10.6c-0.6,0-1.2,0-1.6-0.4
	c-0.3-0.3-0.4-0.8-0.5-1.3c-1.2-6.7,1.2-13.7-0.2-20.3c-1.7-8.3-8.9-14.2-13.3-21.4c-4.2-7-6.3-15.8-13.2-20.4
	c-4.3-2.9-9.8-3.4-14.9-4.5c-4.2-0.9-8.3-2.2-12.2-4c-0.7-0.3-1.5-0.7-1.9-1.3c-0.4-0.6-0.6-1.3-0.7-2c-1.2-7.4-0.5-15.7,4.6-21.1
	c2.3-2.4,4.8-4.8,5.5-8.1c0.2-0.8,1-2.3,1.5-2.9c0.6-0.8,2-1,2.4-1.9c0.3-0.8,0.3-2-0.3-2.6c-0.7-0.8-2,0.3-3,0.3
	c-1.1,0-2.2-0.6-3.2-1.1c-3.5-1.3-7.4-0.1-10.7,1.5c-3.3,1.7-6.5,3.9-10.1,4.6c-1.5,0.3-3.4,0.2-4.3-1.1c-0.8-1.1-1.3-2.4-0.8-3.8
	c0.4-1.4,1.1-2.7,1.7-4c1.2-2.5,2.4-5,3.5-7.6c0.9-1.9,1.8-3.8,3-5.5c0.4-0.5,0.8-1,1.1-1.5c0.3-0.6,0.6-1.2,0.9-1.8
	c2.2-4.7,6.4-8,10.3-11.4c5.7-4.8,11.1-10,16.2-15.4c0.3-0.4,0.7-0.7,0.9-1.2c0.2-0.5,0.1-1,0.3-1.5c0.2-0.8,0.7-1.5,1.3-2
	c1.6-1.4,4.4-1.8,5.6,0c0.4,0.5,0.5,1.2,0.8,1.8c0.5,1.4,1.6,2.5,2.1,3.9c0.5,1.4-1.1,2.5-0.9,4c0.2,1.5,2.7,1.5,3.8,2.5
	c2.4,2.3,4.8,4.6,7.2,7c0.8,0.8,1.9,1.1,2.9,1.6c1,0.5,1.8,1.5,2.8,2.1c4.1,2.5,8.3,4.7,12.6,6.7c1.2,0.6,2.4,1.1,3.7,1.5
	c2,0.6,3.5,1.8,4.9,3.3c1.6,1.6,4.4,0.9,6.6,1.4c0.7,0.1,1.4,0.3,2,0.6c0.7,0.3,1.3,0.8,1.9,1.3c2.4,1.5,5.3,1.8,8.1,2
	c2.6,0.2,5.2,0.4,7.7-0.2c4.9-1,9.1-4.7,14-5.7c2-0.4,4.1-0.3,5.9-1.1c1.2-0.5,2.2-1.4,3.3-2.1c5.3-3.3,12.6-1.7,18.1-4.8
	c2.1-1.2,3.8-3,6.1-3.9c1.2-0.5,2.6-0.7,3.9-1.1c4.8-1.3,9.1-4.5,11.6-8.8c0.3-0.5,0.6-1,0.6-1.6c0.1-1.8-1.9-2.9-3.4-3.8
	c-5.1-3.1-7.6-9.5-12.9-12.5c-2.9-1.6-6.9-2.6-7.7-5.9c-0.4-1.8,0.4-3.7,1-5.5c0.5-1.8,0.6-4.1-0.9-5.2c-0.5-0.4-1.2-0.6-1.8-1
	c-1.1-0.8-1.9-3.2-0.5-3.8c1.3-0.6,2.9,0.3,4.4,0.5c0.3,0,0.7,0.1,1-0.1c0.5-0.2,0.6-0.9,0.9-1.3c2-2.3,10.5-2.4,11.5-3.7
	c1.4-1.9,3.5-4,4.2-6.4c0.3-1.1,0.3-2.3,0.3-3.4c-0.1-3-0.2-5.9-0.2-8.9c0-0.6-0.1-1.2-0.5-1.6c-0.3-0.2-0.7-0.3-1-0.3
	c-2.6-0.3-5.4-0.2-7.4-1.9c-2.7-2.3-2.3-6.4-2.5-9.9c-0.2-3.4-1.2-6.8-2.9-9.8c-0.4-0.7-0.9-1.5-1-2.4c-0.1-0.7,0.1-1.3,0-2
	c-0.2-1.1-1.1-1.9-1.4-2.9c-0.3-1,0-2,0.2-2.9c0.9-3.2,1.8-6.6,4-9.1c1-1.2,2.3-2.2,3.2-3.4c1.3-1.9,1.8-4.2,2.6-6.3
	c0.8-2.1,2.3-4.3,4.6-4.8c0.9-0.2,1.7-0.1,2.6,0c1.5,0.2,2.9,0.3,4.4,0.5c3.1,0.3,6.4,0.8,8.6,3.1c1,1.1,1.7,2.6,3,3.4
	c1.1,0.8,2.5,0.9,3.7,1.5c2.8,1.4,4,4.9,6.6,6.6c1.1,0.7,2.3,1.1,3.5,1.5c4.1,1.4,8.2,4.2,12.4,5.6c2.4,0.8,5,0.3,7.5,0.4
	c1.2,0.1,2.4,0.1,3.4-0.4c1-0.5,0.9-1.8,1.4-2.8c1.5-2.7,6.3-1.2,9,0.2c0.6,0.3,1.1,0.7,1.8,0.8c0.5,0.1,1.1,0,1.6-0.1
	c1.8-0.4,3.5-0.9,5.2-1.6c1-0.4,2.1-1,2.6-1.9c0.4-0.7,0.5-1.6,0.6-2.4c0.3-3.1,0.6-6.2,0.9-9.3c0.1-0.7,0.1-1.4,0.4-2
	c0.4-1,1.3-1.8,2.2-2.2c2.3-1.1,5-0.7,7.6-0.5c0.7,0.1,1.4,0.1,2.1,0"/>
<path fill="none" stroke="#E1E1E1" stroke-miterlimit="10" d="M269.4,246.3c0.3,0,0.6,0,0.9-0.1c0.4-0.2,0.7-0.5,1-0.8
	c1.1-1.2,3-2.5,2.4-4c-0.4-0.9-2-0.5-2.9-0.1c-1.7,0.6-3.2,2.1-3.1,3.8c0,0.2,0.1,0.5,0.2,0.7C268.1,246.2,268.8,246.3,269.4,246.3z
	"/>
<path fill="none" stroke="#E1E1E1" stroke-miterlimit="10" d="M255.4,262c2.1-3.2,4.2-6.5,6.8-9.3c1.5-1.6,4-3.9,2.6-5.6
	c-1.3-1.5-3.9,0.1-5.7,1.1c-3.7,2-7.5,4.1-11.2,6.1c-2.6,1.4-5.1,3.1-7.7,4.6c-2,1.2-6.5,2.7-8.4,4.1c-3.3,2.4-5.8,5.9-9.3,7.9
	c-3.5,2-7.9,3.1-11.8,1.9c-1.3-0.4-2.6-1-3.8-1.7c-2.8-1.6-5.6-3.4-8-5.5c-0.8-0.7-0.8-1.9-1.5-2.8c-1.3-1.5-4.1-0.6-4.9-2.4
	c-0.2-0.4-0.1-0.9-0.4-1.3c-0.2-0.2-0.4-0.2-0.6-0.3c-0.8-0.3-1.6-0.4-2.4-0.4c-0.1,0-0.3,0-0.4-0.1c-0.1-0.1-0.1-0.3-0.1-0.5
	c0-0.4-0.3-0.7-0.7-0.8c-0.2,0-0.4,0-0.6,0c-0.8-0.2-0.8-1.5-1.6-1.7c-0.4-0.1-0.9,0.2-1.1,0.6c-0.2,0.4-0.3,0.9-0.4,1.3
	c-0.3,1.2-1,2.2-1.7,3.3c-0.4,0.6-0.8,1.1-1.2,1.7c-1.5,2.2-1.7,5.4-2.7,7.8c-0.5,1.2-1.1,2.3-1.2,3.6c-0.1,0.9,0.1,1.7,0.3,2.5
	c0.9,3.7,3.2,7,6.3,9.1c1.7,1.2,3.6,2,5.3,3.3c1.9,1.4,3.3,3.4,5,4.9c2.6,2.3,5.8,3.6,8.5,5.7c4.5,3.5,7.1,8.8,10.7,13.2
	c0.5,0.6,0.9,1.1,1.6,1.5c0.7,0.3,1.5,0.4,2.3,0.4c3.9,0,7.8,0,11.4-1.4c2.8-1.1,5.2-3.1,8.1-3.9c1.3-0.4,2.9-0.6,3.6-1.8
	c0.4-0.7,0.4-1.5,0.4-2.3c0-3.9-0.1-7.8-0.1-11.8c0-1.4,0-2.8,0.2-4.2c0.8-4.1,3.8-7.4,6.1-10.9c2.1-3.3,2.7-7.2,4.3-10.7
	C252.3,265.7,254.5,263.4,255.4,262z"/>
<path fill="none" stroke="#E1E1E1" stroke-miterlimit="10" d="M117.7,246.8c0.5-0.1,0.9-0.4,1.3-0.7c0.6-0.5,1-1.3,1.4-2
	c0.4-0.7,1.2-2,0.4-2.3c-0.2-0.1-0.4-0.1-0.5-0.3c-0.3-0.5-1.1-0.3-1.6-0.1c-0.5,0.2-0.9,0.7-1.2,1.1c-0.6,0.8-1.1,1.7-1.6,2.6
	c-0.1,0.3-0.3,0.6-0.2,0.9C115.8,246.8,116.9,247,117.7,246.8z"/>
<path fill="none" stroke="#E1E1E1" stroke-miterlimit="10" d="M224.8,23.7c0.8-0.9,1.5-1.9,2.5-2.6c0.9-0.6,1.9-0.9,2.9-1.2
	c1.9-0.7,3.7-1.6,5.3-2.7c0.8-0.5,1.5-1.1,2-1.9c0.5-0.8,0.6-1.9,0.1-2.7c-0.5-0.8-1.5-1.2-2.4-1.1c-0.9,0-1.8,0.4-2.7,0.8
	c-0.9,0.4-1.9,0.8-2.8,1.2c-0.8,0.3-1.6,0.7-2.4,1.1c-1,0.6-1.9,1.4-2.8,2.2c-2.8,2.5-5.6,5.1-8.5,7.6c-0.7,0.7-1.8,1.2-1.9,2.2
	c-0.1,1,1.2,1.6,2.2,1.7s2-0.2,2.9-0.6C221.3,26.8,223.2,25.4,224.8,23.7z"/>
<path fill="none" stroke="#E1E1E1" stroke-miterlimit="10" d="M108.5,372c2.4-5.5,5.6-10.8,9.4-15.5c0.5-0.7,1.1-1.4,1.1-2.3
	c0-0.5-0.2-0.9-0.5-1.4c-1.1-2.1-2.5-4.2-4.5-5.6c-5.5-3.8-14.1-1.3-18.8-6c-2.4-2.4-3.1-5.9-3.7-9.2c-0.6-3.1-1.1-6.2-1.7-9.3
	c-0.3-1.8-0.7-3.8-2-5.2c-0.6-0.7-1.4-1.2-1.9-1.8c-1-1.2-1.4-2.7-1.7-4.3c-0.8-3.9-1.4-7.8-1.7-11.7c-0.1-1.3-0.2-2.7,0.3-3.9
	c0.5-1.2,2.2-1,3-2c1.5-1.8,2-4.4,1.6-6.8c-0.1-0.7-0.4-1.3-0.7-1.9c-0.4-1-0.4-2.1-0.5-3.1c-0.4-5.8-0.8-11.6-1.2-17.4
	c0-0.6-0.1-1.2,0.2-1.7c0.5-0.8,1.3-1.4,1.2-2.3c-1.5-9.5,12.6-25.5,21-37.1c2.9-4,5.8-8,9.4-11.4c2.7-2.5,5.8-4.7,8.7-7
	c5.8-4.7,10.2-10.8,15.1-16.5c2-2.4,5.8,0.6,7.6,3.2c1.8,2.6,4.4,3.3,7.4,4.3c1.9,0.7,3.6,0.9,5.2,2.3c1.8,1.6,3.2,2.8,4.9,4.4
	c1.7,1.5,1.4,4.3,2.6,6.2c0.6,1,1.6,1.8,2.6,2.4c5.9,3.9,12.6,6.5,19.6,7.5c3.4,0.5,7.1,0.6,10.1,2.4c0.8,0.5,1.6,1.1,2.6,1.3
	c0.9,0.1,1.7-0.1,2.5-0.4c6-2.5,9.3-9.3,8.7-15.8c-1.4-16-10.9-8.4-11.1-14.8c-0.1-4.3,8.1-5.2,7.7-9.5c-0.3-4.2-7.7-8-5.1-11.3
	c6-8,16.9-11.8,17.7-21.7c0.1-1.2,0.1-2.4,0.7-3.5c0.4-0.7,1.1-1.2,1.5-1.9c0.7-1,1-2.2,1.3-3.4c0.6-2.4,3.3-5.3,1.7-7.1
	c-1.9-2-7.5,1.8-7.1-0.9c0.2-1.6,2.4-1.3,3.5-2.5c1.1-1.2,1.1-3.4-0.3-4.1c-0.8-0.4-1.8-0.2-2.6-0.1c-3.2,0.6-6.4,0.8-9.6,0.8
	c-5,0-14.2-1.5-12.6-6.3c0.5-1.3,1.2-2.4,0.7-3.8c-1.6-5.1,2.8-13.5-2.1-15.7c-2.6-1.1-4.1-1.8-6.5-3.3c-4.2-2.5-9.2-3.2-14-3
	c-1.4,0-2.8,0.5-4.2,0.4c-3.4-0.3-6.3-2-9.7-2.4c-3.1-0.4,2.1-7.1-0.6-8.7c-0.6-0.4-1.3-0.3-2-0.5c-1.9-0.5-2.9-2.6-3.7-4.4
	c-1.2-2.9-2.5-5.8-3.7-8.7c-0.8-1.8-1.5-3.5-1.7-5.4c-0.2-2.8,0.9-5.5,2-8.1c0.9-2.2,1.9-4.4,2.8-6.6c0.7-1.6,1.4-3.4,0.8-5
	c-0.3-0.8-0.8-1.5-1.3-2.2c-2.2-2.8-4.3-5.6-6.5-8.4c-1.3-1.7-4-1.2-5.2-3c-0.6-1-0.3-2.3-1.4-2.3c-1.1,0-2.1,0.8-2.9,1.6
	c-8.1,7.5-16.3,15.5-20.1,25.8c-0.7,2-1.3,4.1-2.5,6c-2,3.2-5.6,5-9.1,6.3c-5.5,2.2-11.3,3.6-16.7,6.1C84.2,78.4,77,85,69.2,90.2
	c-4.4,2.9-9.8,4.5-13.1,8.5c-5.1,6.1-3.7,15.8-8.8,21.9c-3,3.6-7.8,5.5-10.4,9.4c-1.3,2-1.9,4.4-2.9,6.5
	c-3.8,7.9-12.9,11.5-20.6,15.7c-1.1,0.6-2.2,1.2-2.9,2.2c-1.1,1.4-1.3,3.4-1.8,5.1c-2,6.8-9.1,11.1-11.3,17.7
	c-0.5,1.6-0.8,3.3-1.6,4.8c-0.9,1.6-2.3,2.8-3.4,4.1c-7.4,8.7-4,23.5-12.1,31.6"/>
<path fill="none" stroke="#E1E1E1" stroke-miterlimit="10" d="M69.2,372c2.5-9.7-2.1-19.9-1.2-29.9c0.2-2.7,0.9-5.3,1-8
	c0.3-5.7-1.9-11.3-2.4-17.1c-0.5-5.8,0.6-11.7,3.3-16.9c1.5-2.8,3.3-5.4,5.3-8c0.7-0.9,1.4-1.9,1.3-3c-0.1-2.9-5.1-4.2-4.5-7
	c0.3-1.2,1.5-1.9,2.5-2.7c2.9-2.2,4.3-6.3,3.5-9.8c-0.5-2.2-1.8-4.1-2.2-6.2s0.3-4.9,2.5-5.5c0.5-0.1,1-0.2,1.5-0.4
	c0.5-0.3,0.8-1,1-1.5c2.4-6.3,5.2-12.4,7.7-18.6c0.5-1.2,0.7-2.5,1.3-3.7c0.6-1.2,1.7-2.1,2.6-3.1c1.5-1.6,2.8-3.4,4.1-5.2
	c4.4-6,9-11.8,13.7-17.6c1.9-2.4,3.8-4.7,5.7-7.1c1.5-1.9,3-3.7,4.6-5.4c1.7-1.7,4-2.8,5.8-4.5c2.4-2.2,4.8-4.5,7.2-6.7
	c0.8-0.8,1.7-1.6,1.9-2.8c0.2-1.5-1-3-2.5-3.6c-1.5-0.6-3.1-0.5-4.6-0.6c-0.9,0-1.9-0.2-2.3-0.9c-0.3-0.6-0.2-1.4,0-2
	c2.8-9.3,11.3-16.4,20.9-18.4c3.4-0.7,7.5-0.5,9.5,2.3c1.3,1.8,1.5,4.4,3.2,5.9c0.8,0.7,1.9,1.3,1.9,2.3c0,0.5-0.3,0.9-0.6,1.3
	c-1.7,2.3-3.7,4.3-6,5.9c-0.5,0.4-1.1,0.7-1.4,1.3c-0.2,0.4-0.3,0.9-0.3,1.3c-0.4,6.2,4.6,11.6,10.1,14.6c3.2,1.8,6.8,2.9,10.2,4.1
	c2.1,0.7,4.1,1.4,6.2,2.1c0.8,0.3,1.8,0.6,2.6,0.1c2-1.2,1.5-3.9,2.6-6c0.8-1.4-0.2-3.4,1.1-4.3c1.3-0.9,2.9,0.2,4.5,0.4
	c3.1,0.3,3.7-5.3,2.4-8.2c-0.5-1.1-1.3-2-1.8-3.1c-1.4-2.9-0.9-6.4-0.4-9.6c0.8-4.7,6.1-11.1,2.4-14.2c-5-4.1-17.4,7.7-19.2,1.4
	c-1.2-4.2,9.8-4.6,9.5-9c-0.2-2.7-5.6-0.5-7.8-2.2c-1.2-0.9,1.4-2.6,2.7-3.4c6.7-4.1,11.9-13.3,8.5-20.4c-1.6-3.2-5.1-5.1-8.3-6.8
	c-1.6-0.9-3.4-1.6-4.7-2.9c-1.4-1.5-2.1-3.6-3.6-5s-3.1,0.2-5.1,0.4c-2.2,0.3-3-3.4-5.2-2.8c-0.9,0.2-1.2-1.2-2-1.6
	c-0.7-0.3-1.5,0.6-2.3,0.8c-1.7,0.3-3.4-1.2-4-2.8c-0.6-1.6,1.8-3.1,1.3-4.7c-1.2-4.1-8.5-0.8-12.8-1.2c-2-0.2-4.1-0.4-5.9-1.5
	c-3.7-2.2-4.5-7.2-4.8-11.5c-0.2-2.3,1.5-5.9-0.6-6.8c-6-2.5-11,7.2-17.3,8.7c-2.9,0.7-5.8,1.1-8.6,2c-8.2,2.7-14.3,9.4-20.1,15.9
	c-4.5,5.1-12.7,6.7-17,12.1c-3.9,4.9-5.9,11.2-10,15.9c-3.6,4.3-8.8,7.3-11.8,12c-1.3,2-2.2,4.3-4.2,5.7c-1,0.7-2.2,1-3.4,1.4
	c-8.4,2.8-15.5,8.8-20.8,15.9c-5.3,7.1-9.1,15.2-12.4,23.4c-4.1,10.1-7.6,20.7-8,31.6c-0.1,1.7,0,3.4,1,4.8c0.7,1,1.8,1.6,2.6,2.4
	s1.7,2.5,0.8,3.2c-2.8,2.2-6.9,2.1-9.8,4.2c-1.7,1.2-3.1,2.8-4.5,4.4c-1.7,1.9-3.3,3.7-5,5.6"/>
<path fill="none" stroke="#E1E1E1" stroke-miterlimit="10" d="M51.1,369.9c2.2-13.9,2.9-28,2.1-42c-0.3-6.1-0.7-12.8,3.1-17.5
	c1-1.2,2.3-2.5,2-4.1c-0.2-0.8-0.7-1.4-1.1-2.1c-1-1.9-0.7-4.2,0.4-6.1s2.6-3.3,4.2-4.8c0.3-0.3,0.6-0.6,0.6-1.1
	c0-0.4-0.2-0.7-0.4-1c-1.8-2.9-1.2-7,1.4-9.2c1.3-1,2.9-1.6,3.9-2.9c0.9-1.1,1.1-2.6,1.3-4c0.7-5,1.4-9.9,2.1-14.9
	c0.5-3.6,1.2-7.6,4.1-9.9c0.6-0.4,1.2-0.9,1.4-1.5c0.2-0.6-0.1-1.2-0.2-1.8c-0.2-1.5,0.3-2.9,0.8-4.3c1.3-3.6,2.6-7.1,3.9-10.7
	c1-2.8,3.3-5.5,4.4-8.3c1.4-3.9,2.9-7.9,5.3-11.3c2.6-3.7,6.4-6.7,8.4-10.8c1.7-3.4,2.2-7.6,5.3-9.8c0.8-0.6,1.8-1,2.4-1.8
	c0.4-0.6,0.6-1.3,0.8-2c3.5-13.8,9.8-26.8,18.5-38c2.5-3.1,5.2-6.3,8.9-7.8c2.4-1.1,5.1-1.4,7.6-2.3c4-1.4,7.5-4.2,11.6-5.5
	c0.8-0.2,1.7-0.5,2.1-1.2c0.4-0.6,0.2-1.4-0.1-2c-1.2-2.6-4.8-3.2-6.2-5.7c-0.4-0.7-0.6-1.5-1.1-2.2c-0.4-0.5-0.9-1-1.5-1.2
	c-3.4-1.2-4.3-2.8-6.3-5.1c-0.9-1.1-5.2-0.4-6.3-1.3c-1.3-1.1-4.2-1.5-5.5-2.5c-5-3.6-8.9-5.8-13.9-9.3c-1.4-0.9-2.4,1.7-3.7,2.7
	c-1.5,1.1-3.6,0.4-5.4,0.5c-2.3,0.1-4.3,1.6-6.1,3.1c-3.8,3-7.8,6.6-12.2,8.6c-1.7,0.8-3.6,1.4-5.2,2.3c-1.8,1-3.3,2.3-4.9,3.6
	c-7.4,6.3-14.9,12.6-22.3,18.9c-5.5,4.7-11.1,9.4-16.4,14.3c-2.8,2.6-5.6,5.2-8.6,7.6c-4.5,3.5-9.8,6.8-11.6,12.2
	c-1.3,4-0.5,8.4-1.9,12.4c-1.2,3.4-3.9,6-5.6,9.2c-5.7,10.6,0.5,25.8-7.7,34.6c-1.5,1.6-3.3,2.8-4.9,4.2c-4.1,3.5-6.9,8.3-9.6,12.9
	c-3.2,5.4-6.3,10.8-9.5,16.2"/>
<path fill="none" stroke="#E1E1E1" stroke-miterlimit="10" d="M32,369.6c-0.3-1.9,2.1-2.8,2.6-4.6c0.8-2.8-1.1-5.7,0.1-8.4
	c1.2-2.7,2.7-5.4,2.4-8.4c-0.3-2.8-2.4-5.3-1.9-8.1c0.2-1,0.6-2.3-0.2-3c-0.4-0.3-0.8-0.3-1.2-0.4c-4.7-1.3-3-8.1-5-12.6
	c-3-6.7-0.2-15.4,4-21.4c1.3-1.8,3.1-3.2,4.5-5c1.4-1.8,2.2-4.3,1.1-6.3c-0.4-0.8-1.2-1.5-1.4-2.3c-0.2-0.9,0.2-1.9,0.6-2.8
	c4-8.9,9-17.3,14.8-25.1c0.8-1,1.6-2.1,2.7-2.8c0.8-0.5,1.7-0.8,2.5-1.4c1.5-1.1,2.1-2.9,2.7-4.6c0.8-2.4,1.7-4.9,2.5-7.3
	c0.5-1.4,1-2.8,1.1-4.3c0.1-1.3,0-2.6-0.1-4c-0.1-5.1,2-10.1,5.5-13.7c1.1-1.1,2.3-2.1,3.1-3.4c1.9-3.3,0.5-7.8,2.4-11.1
	c0.8-1.4,2-2.5,2.7-4c1.2-2.7,0-6.1,1.3-8.8c0.5-0.9,1.3-1.8,1.4-2.8c0.1-0.9-0.3-1.7-0.5-2.5c-1.3-5.1,4.4-9.4,7.2-13.8
	c1.6-2.5,0.8-6.1,2.6-8.5c1.4-1.9,3.7-3.1,5.6-4.6c0.4-0.3,0.8-0.7,1-1.2c0.2-0.5,0.2-1,0.3-1.5c0.3-3.1,1.8-6.1,4-8.2
	c1.3-1.3,2.8-2.2,4.1-3.5c1.3-1.3,3.7-4,2.1-4.8c-1.2-0.5-2.6,0.6-3.6-0.2c-1-0.8-0.8-2.3-1.4-3.5c-0.5-0.9-1.8,0.5-2.7,1
	c-1.6,0.9-2.4-1.6-4.2-2.2c-1.6-0.5-2.8,2-4.5,1.9c-3.1-0.2-5.8,0.6-8.2,2.7c-4.5,4-9.1,7.9-13.6,11.9c-1.7,1.5-3.5,3-5,4.7
	c-1.5,1.7-2.9,3.6-4.5,5.2c-2.3,2.2-5.1,3.8-7.8,5.3c-2.1,1.2-4.1,2.3-6.2,3.5c-1.2,0.7-2.4,1.4-3.1,2.6c-0.5,0.9-0.6,1.9-0.9,2.8
	c-1,2.6-3.5,4.1-5.5,5.9s-3.7,4.9-2.3,7.2c0.5,0.8,1.4,1.6,1.1,2.5c-0.2,0.7-1,1-1.6,1.4c-2.2,1.8-0.8,5.6-2.6,7.8
	c-0.9,1.1-2.5,1.9-2.3,3.3c0.2,0.8,0.9,1.3,1.2,2c0.8,2-2.2,4-1.4,6c0.2,0.6,0.8,1.1,1,1.7c0.3,0.7,0.1,1.4-0.1,2.1
	c-1.2,5.1-2.4,10.2-4.7,14.8c-0.4,0.7-0.8,1.5-1,2.3c-0.3,1.1-0.2,2.2-0.3,3.4c-0.2,4.1-1.8,7.9-3.4,11.6c-0.4,0.9-0.8,1.9-1.2,2.8
	c-1.1,2.5-2.1,5-3.2,7.5c-0.8,1.8-1.2,3.6-1.7,5.4c-0.1,0.3-0.2,0.7-0.1,1c0.1,0.3,0.4,0.5,0.6,0.8c0.8,1.2,0.1,2.8-0.7,4
	c-0.7,1.2-1.5,2.5-2.2,3.7c-0.4,0.7-0.8,1.4-1.5,1.9c-0.7,0.5-1.5,0.8-2.2,1.3c-1.9,1.4-2,5.8-4.3,5.4c-1.7-0.3-2.1-3-2-4.7
	c0-1.4,0.4-3.1-0.7-3.9c-0.9-0.7-2.4-0.2-3,0.8s-0.8,2.2-1.1,3.3c-0.2,1.1-0.6,2.4-1.6,3c-0.4,0.3-0.9,0.4-1.4,0.7
	c-1.1,0.8-1.5,2.3-2.1,3.5c-0.6,1.4-1.6,2.6-2.8,3.5c-0.4,0.3-0.9,0.6-1.2,1c-1.6,1.7-1,4.4-0.6,6.8c0.6,4.2-3.8,8.3-2.1,12.2
	c0.6,1.4,3.1-0.3,4.5,0.2c1.3,0.4,0.5,2.7,0.8,4c0.4,1.9,2.3,3.2,3,5c0.4,1,0.4,2.1,0.7,3.2c1.2,4.1,3.4,8.1,6.9,10.6
	c1.2,0.8,2.5,1.4,2,2.7c-0.5,1.3-1.9,2.1-3.1,2.7c-0.4,0.2-0.8,0.4-1.3,0.3c-1.2-0.2-1.2-2-1.9-3c-1-1.4-3-1-4.7-1.4
	c-0.3,0-0.5-0.1-0.7-0.3c-0.2-0.3-0.3-0.7-0.3-1c0-2,0.1-4,0.1-6c0-0.5,0-0.9-0.2-1.3c-0.2-0.4-0.9-0.7-1.1-0.3
	c-3.1,3.8-4.9,8.5-8,12.2"/>
<path fill="none" stroke="#E1E1E1" stroke-miterlimit="10" d="M345.2,367.6c1.1-1.3,2.1-2.5,3.2-3.8c1.9-2.3,4-4.6,6.9-5.3
	c2-0.5,4.1,0,6.1-0.2c1.5-0.1,2.9-0.5,4.2-1.1"/>
<path fill="none" stroke="#E1E1E1" stroke-miterlimit="10" d="M364.7,271.9c-2.8,1.9-5.5,4-8.1,6.3c-1.8,1.6-3.6,3.3-4.8,5.5
	c-1.8,3.2-2,7-2.9,10.5c-2.3,9.3-8.7,17.5-9.6,27.1c-0.2,2.6-0.1,5.3-0.1,7.9c0,4.5-0.6,9.1-1.5,13.5c-0.4,2.3-0.8,5,0.9,6.6
	c1.1,1,2.7,1.1,4.2,1c4.5-0.4,8.7-2.7,11.9-6c3.2-3.2,5.4-7.3,7.1-11.5"/>
<path fill="none" stroke="#E1E1E1" stroke-miterlimit="10" d="M363.4,290.7c-1.9,1.5-3.2,3.6-4.4,5.8c-4.6,8.3-8.4,17.1-12,25.8
	c-0.7,1.6-1.3,3.2-1.4,4.9c0,1.7,0.6,3.6,2.1,4.4c1.5,0.9,3.6,0.5,5.1-0.5s2.5-2.5,3.5-4c4.3-6.3,8.3-12.7,12.2-19.2"/>
<path fill="none" stroke="#E1E1E1" stroke-miterlimit="10" d="M234.5,369.9c2.2-7.9,7.4-15,14.3-19.4c1-0.7,2.2-1.3,3.4-1.4
	c2.5-0.2,4.6,1.7,7.1,2.1c3.8,0.6,7-0.5,10.8-0.2c2,0.2,4.9-0.6,6.4-2c0.8-0.8,0.9-2,1-3.1c0.4-5.3,0.8-10.6,1.3-15.9
	c0.5-6.7,1-13.4-0.6-19.9c-0.4-1.5-0.8-2.9-1.1-4.4c-0.9-5.1,1-10.3,2.9-15.2c0.2-0.5,0.4-1,0.8-1.3c0.4-0.3,0.9-0.4,1.3-0.5
	c7.1-1.3,14.3-2.3,21.5-2.9c3.9-0.3,7.9-0.5,11.5,0.9c3.6,1.4,6.8,4.6,6.9,8.5c0,2.3-1,4.5-0.6,6.8c0.3,1.9,1.5,3.5,2.2,5.2
	c1.6,4.1,0.6,8.6,0.2,13c-0.7,7.9,0.9,15.9-0.9,23.6c-1.1,4.8-3.4,9.1-5,13.8c-1.5,4.6-2.2,9.9,0.1,14.3"/>
<path fill="none" stroke="#E1E1E1" stroke-miterlimit="10" d="M290.4,370.1c-0.2-7.3,1.6-14.6,5-21.1c0.8-1.5,2-3.2,3.7-3.4
	c1.6-0.2,3.1,1,4.1,2.3c0.3,0.4,0.6,0.8,1,0.9c0.4,0.1,0.8,0.1,1.1,0.2c0.9,0.2,1.6,1.2,1.7,2.1c0.1,1-0.2,1.9-0.6,2.8
	c-1.1,3.1-2.5,6.1-4.1,9c-0.6,1.2-1.3,2.3-1.7,3.5c-0.6,1.8-0.7,3.9-0.1,5.7"/>
<path fill="none" stroke="#E1E1E1" stroke-miterlimit="10" d="M238.6,275.9c1.1-1.7,2.7-3.1,3.9-4.7c1.5-2.1,3.4-4.8,2.5-7.2
	c-0.6-1.7-3.4-0.6-4.9,0.2c-0.9,0.5-1.7,1-2.6,1.6c-2.9,1.8-5.7,3.7-8.6,5.5c-3.1,2-6.3,4-9.9,4.3c-1.8,0.2-3.6-0.1-5.4,0.4
	c-1.7,0.5-4.3,2.8-2.9,3.9c1.6,1.3,4.7,0.4,5.5,2.3c0.3,0.6,0.3,1.3,0.6,1.8c0.6,1.3,2.1,1.8,3.4,2.2c1.9,0.6,3.9,1.3,5.8,1.9
	c1.4,0.4,2.8,0.9,4.2,0.7c2.7-0.4,4.5-2.9,5.5-5.5C236.8,280.9,237.2,278.2,238.6,275.9z"/>
<path fill="none" stroke="#E1E1E1" stroke-miterlimit="10" d="M-19.2,166.9c3-1.8,6.3-3.8,7.3-7.2c0.4-1.3,0.4-2.8,0.4-4.2
	c0.1-5.9,1.4-11.8,3.6-17.2c0.8-2,1.8-4,2.4-6.1c0.5-1.8,0.8-3.7,1.3-5.6c1.1-3.6,3.3-6.7,5.4-9.7c0.7-1,1.4-2,2.4-2.7
	c0.7-0.5,1.5-0.8,2.2-1.2c4-2.2,5.9-6.9,9.6-9.7c2.5-1.9,5.5-2.7,8.4-4c3.3-1.5,6.2-3.7,9.4-5.3c3.2-1.6,7.7-4.3,10.4-1.9
	c1.6,1.5,0.8,4.3,0.6,6.5c-0.3,5.8-1.5,11.8-5.1,16.3c-2.4,3.1-5.8,5.3-8,8.5c-1.7,2.7-2.6,5.9-4.6,8.3c-4.3,5.2-12.2,5.3-17.6,9.3
	c-0.6,0.5-1.2,1-1.7,1.7c-0.6,0.9-0.8,2-1,3.1c-1.2,5.4-4.5,10.4-9,13.7c-2.7,2-5.9,3.5-7.5,6.5c-1.2,2.2-1.2,4.8-1.8,7.1
	c-1.4,5.4-5.7,9.5-9.7,13.3"/>
<path fill="none" stroke="#E1E1E1" stroke-miterlimit="10" d="M69.2-14.7c0.4,5.2-0.3,10.4-1.9,15.3c-1.3,3.8-0.1,7.9-1.4,11.7
	c-1,2.8-4.4,3.8-6.5,5.8c-2.1,2.1-4.8,3.9-7.7,3.4c-2.1-0.3-3.8-1.8-5.9-2.1c-3.4-0.5-6.4,2.2-9,4.5c-5,4.4-11.5,8.1-17.9,6.5
	c-3-0.8-5.6-2.7-8.5-4s-6.3-2.1-9-0.7c-1,0.5-0.4,2.1,0.5,2.7c0.9,0.6,2.1,0.8,2.8,1.7C5,30.6,5.1,31.3,5.2,32
	c0.6,3.7,1.1,7.5,1.7,11.2c0.1,1,0.3,2,0.8,2.9c1.2,2,3.8,2.5,6.1,2.3c2.3-0.2,4.6-0.8,6.9-0.4c0.5,0.1,1,0.2,1.4,0.6
	c0.8,0.8,0.6,2,0.7,3.1c0.1,1.1,1,1.7,2.1,1.8c0.8,0.1,0.5,1.6,0,2.3c-0.5,0.7-1.3,1.1-2,1.5c-4.1,2.8-5.1,8.4-5.6,13.4
	c-0.1,0.7-0.1,1.4,0.2,2.1c0.6,1,2.2,1.4,2.4,2.6c0.1,0.6-0.2,1.2-0.5,1.8c-2.4,4.5-4.7,9-7.1,13.6c-0.7,1.3-1.4,2.7-1.1,4.2
	c0.2,0.8,0.6,1.4,0.7,2.2c0.1,1.5-1,2.8-2.2,3.8c-3.4,3-6.9,5.7-10.7,8.2c-1.9,1.3-4,2.5-6.3,2.7c-1.9,0.2-3.7-0.4-5.5-0.9
	c-3.9-1.2-7.8-2.6-11.7-4.1"/>
<path fill="none" stroke="#E1E1E1" stroke-miterlimit="10" d="M-18.8,74.3c1.2-1.5,3.6,0,5.5-0.3c0.8-0.1,1.5-0.6,2.1-1.1
	c7.1-5.5,10-15.7,6.9-24.1c-0.6-1.6-1.5-3.2-3.1-3.7c-0.9-0.3-2-0.2-2.9-0.1c-2.2,0.2-4.5,0.1-6.7-0.3c-0.5-0.1-1-0.2-1.4-0.6
	c-0.8-0.8-0.1-2.2,0.5-3.2c2-3,3.2-6.4,4.5-9.8c0.8-2.1,1.6-4.2,1.7-6.4c0.1-2.4-0.5-4.8,0-7.1c0.6-2.9,3-5.2,5.4-7
	c3-2.3,6.4-4.3,9.9-5.8c5-2.2,10.7-3.6,14.3-7.8c4.2-4.8,4.7-12.6,10.1-16"/>
<path fill="none" stroke="#E1E1E1" stroke-miterlimit="10" d="M-21.7,101c3.4,0,6.8,0,10.2,0.1c1,0,1.9,0,2.9-0.2
	c1.3-0.4,2.4-1.2,3.5-2c1.8-1.4,3.5-2.7,5.3-4.1c1.1-0.9,2.3-1.8,3.2-2.9c1.4-1.9,2-4.2,2.5-6.5c0.8-3.5,1.5-7.1,1.6-10.7
	c0.1-3,1.3-7.1-1.1-8.9c-1-0.8-2.9,0.9-3.9,0.1c-5.3-5.1-0.4-14.7-0.6-22c-0.1-3.2-0.9-7.2-4-7.8c-1.2-0.2-2.6,0.2-3.7-0.2
	c-2.3-0.9-2-4.4-0.6-6.4s3.4-3.9,3.4-6.4c0-1.5-0.9-3.1-0.5-4.5c0.4-1.6,2.3-2.5,3.9-2.5s3.2,0.8,4.8,1.4c5.3,2.2,11.1,3.4,16.8,3.6
	c0.5,0,1.1,0,1.6-0.1c0.8-0.2,1.5-0.6,2.2-1c2.6-1.5,5.1-3,7.7-4.5c0.4-0.2,0.8-0.5,0.9-0.8c0.5-1-0.8-2-1.9-2.5
	c-1.8-0.7-3.6-1.2-5-2.4c-1.4-1.2-2.4-3.3-1.7-5c0.5-1.1,1.5-1.8,1.8-2.9c0.4-1.2,0-2.5,0.4-3.6c0.6-1.9,3-2.6,4.9-2.1
	c1.9,0.5,3.4,1.9,5,3.1c3.7,2.8,8.1,4.8,12.6,5.7C51.8,5,52.9,5.2,54.1,5c4.5-0.6,6.8-5.7,7.4-10.2s0.1-9.3,2.4-13.2"/>
<path fill="#EAEAEA" stroke="#D6D6D6" stroke-miterlimit="10" d="M332.1,83.3c1.8,0.7,5.6,2.1,7.3,3.5c1.5,1.3,3.3,2.6,3.8,4.6
	c0.4,1.6,0.9,3.8-0.7,4.4c-1.4,0.5-3.1-0.4-4.4,0.2c-0.7,0.4-1.3,1-2.1,1.4c-2.6,1.6-6,0.8-9.1,0.3c-0.5-0.1-1.1-0.2-1.6,0
	c-0.6,0.2-1.1,0.6-1.6,1c-1.4,1-3.1,1.7-4.9,1.8c-4.9,0.4-6.7-2-9.1-2.7c-2.3-0.7-1.5,0.8-4.8-0.7c-0.5-0.2-1-0.4-1.4-0.8
	c-0.2-0.2-0.3-0.9-0.4-1.2c-0.4-1.8-2.3-2.5-3.8-3.5c-1.4-0.9-2.6-1.7-4.2-2.8c-1.7-1.3-3.3-4-5.4-4.2c-1.2-0.1-2.1,0.6-3-0.2
	c-0.5-0.4-1.9-1.9-2.2-2.2c-1.7-1-1.6-3.6-3-5c-1.5-1.5-3.8-2-5.5-3.2c-2.8-1.9-6.6-4.2-6.1-9.8c0.2-2.7,1.2-5.8-0.7-7.7
	c-0.2-0.2-0.5-0.4-0.8-0.4c-0.5,0-0.7,0.6-0.9,1.1c-0.7,1.5-2.8,0.4-4.3,1.1c-0.8,0.3,0.3,2.1-0.4,2.4c-1.4,0.7-3.3,0.2-3.5,1.8
	c-0.1,0.8,0.2,1.6,0.5,2.3c0.8,2.2,1.4,4.9,0.1,6.9c-0.6,0.8-1.4,1.4-2.3,2c-2.9,1.9-6.6,4.3-10,3.8c-5.4-0.8-9.5-6.8-14.7-4.6
	c-0.3,0.1-0.7,0.2-1,0.5c-0.3,0.4-0.2,1.1-0.4,1.6c-0.3,0.9-1.5,1-2.4,1.1c-2.2,0.1-4.9,0-5.8-2c-0.4-0.9-0.4-1.9-0.3-2.9
	c0.2-2.7,0.4-5.4,0.6-8.1c0.1-0.9,0.1-1.8,0.7-2.4c1.5-1.7,5.3-0.5,5.9-2.7c0.2-0.6,0-1.2,0.3-1.7c0.3-0.4,0.8-0.6,1.2-0.9
	c3.2-2,1.2-7.8,4.2-10.1c1.4-1.1,4.4-0.5,6.2-0.8c3.5-0.5,2.9-3.7,9-2c1.4,0.4,2.9,1.6,3.8,2.8c0.4,0.6,0.9,1.2,1.6,1.4
	c0.5,0.1,1,0,1.6,0.1c1.6,0.2,2.4,1.9,3.7,2.8c1,0.7,2.7,1,3.8,0.4c1-0.6,0.3-1.9,1.1-2.9c1.1-1.5,2.7-0.1,4.3-1
	c1.5-0.8,4.6-0.8,5.7,1.1c0.7,1.1,0.3,2.6,0.2,3.9c-0.1,1.3,0.3,2.9,1.6,3.2c0.4,0.1,0.7,0,1.1,0.1c0.9,0.3,1.1,1.5,1,2.4
	c-0.2,0.9-0.6,1.9-0.3,2.8c0.3,1.1,1.5,1.8,2.7,1.9c1.2,0.1,2.3-0.3,3.4-0.6c3-0.8,6.2-1,9.2-0.6c1,0.1,2,0.4,2.5,1.2
	c0.4,0.6,0.3,1.4,0.4,2.1c0.4,2.5,3.1,4.1,5.6,4.8c2.5,0.7,4.5,1.5,6.7,2.9c1.5,1,3.1,2.5,4.4,3.8c2.1,2.2,3,1.1,4.6,2.4
	c1,0.8,2.2,3.4,3.6,3.4c2.4,0,0.6-1.7,1.4-2.8c1-1.3,4.4-0.6,5.4,0.7C331.6,80.6,329.4,82.2,332.1,83.3z"/>
<path fill="#7BBCEB" stroke="#4E9BD7" stroke-miterlimit="10" d="M177.8,165.4c-1.5-0.4-2.8-1.7-4.4-1.8c-0.6,0-1.2,0.1-1.8,0
	c-0.5-0.1-1-0.5-1.4-0.8c-1.6-1.1-3.7-1.4-5.5-0.7c-0.4,0.1-0.7,0.3-0.9,0.6c-0.4,0.6-0.1,1.3,0.2,1.9s0.9,1,1,1.7
	c0.3,1.1-0.4,2.2-1.3,2.9s-2,1.1-2.9,1.7c-2.1,1.4-2.9,3.8-2.6,6.3c0.1,0.4-0.3,1.1-0.3,1.5c0,0.4-0.1,0.9-0.1,1.3
	c-0.2,2.2,0.9,4.4,2.6,5.8c0.7,0.6,1.5,1.1,1.9,1.9c0.2,0.4,0.3,1,0.6,1.3c0.3,0.3,0.7,0.5,1.1,0.6c1.9,0.6,3.9,1.2,5.8,1.8
	c0.7,0.2,1.4,0.4,2.1,0.3c1.8-0.4,2.2-3,3.6-4.2c1.8-1.6,4.8-0.6,6.9-1.6c1.7-0.9,2.6-2.9,4-4.1c0.4-0.3,0.8-0.6,1-1
	c0.4-0.6,0.3-1.3,0.2-2c-0.2-1.6-0.1-3.2-0.3-4.9c-0.1-0.7,0.1-1.7-0.2-2.3c-0.3-0.8-0.8-1.5-1.4-2.2c-1.4-1.7-3.6-3.1-5.7-3.5
	C179.5,165.6,178.6,165.6,177.8,165.4z"/>
<path fill="none" stroke="#D6D6D6" stroke-miterlimit="10" d="M158.2,9.4c-3.5,2.1-6.1,5.4-8.3,8.7c-6.4,9.6-10.7,20.5-12.5,31.9
	c-0.7,4.3-1,8.6-2.4,12.7c-4.3,12.8-18.2,21.6-19.8,35c-0.7,6,1.1,12.7-2.3,17.8c-2.5,3.8-7.3,5.4-10.8,8.3c-4,3.3-6.3,8.4-7.3,13.5
	c-1,5.1-0.7,15.1-1.2,16.6"/>
<path fill="none" stroke="#D6D6D6" stroke-miterlimit="10" d="M151.7-27c-2.9,0.3-5.7,2.3-6.9,5c-0.7,1.5-1,3.3-2.1,4.5
	c-1.5,1.5-3.8,1.7-5.9,1.6c-2.2-0.1-4.3-0.3-6.5-0.6c-2.5-0.4-5.3-0.9-7.5,0.3c-1.2,0.7-2.3,1.8-3.7,1.8c-0.5,0-1-0.2-1.5-0.2
	c-1.1-0.1-2.1,0.6-3,1.2c-2.9,1.9-5.9,4.1-6.9,7.4c-0.3,1.1-0.5,2.4-1.5,3.1c-0.3,0.2-0.8,0.3-1.1,0.4c-4.2,2-7.3,6-10.7,9.1
	c-0.4,0.4-0.7,1-0.6,1.6c0.1,0.4,0.4,0.6,0.6,1c0.6,1-0.7,2.2-0.4,3.4c0.1,0.7,1.7,0.5,1.7,1.2c0,1.2-2.1,1.3-3.2,1.6
	c-0.3,0.1-0.6,0.2-1,0.1c-1.4-0.3-1-3-2.3-3.3c-0.2,0-0.4-0.1-0.6,0c-0.6,0.3-1.5,0.2-2,0.7c-0.5,0.4-0.6,1.1-0.7,1.7
	c-0.2,1.3-0.2,2.6-0.1,4"/>
<path fill="#EAEAEA" stroke="#D6D6D6" stroke-miterlimit="10" d="M294.2,45.8c-0.4,0.7-0.3,1.7,0.2,2.3c0.2,0.2,1.4,1.1,1.9,0.8
	c0.5-0.3,0.7-0.9,0.8-1.4c0.2-0.8,0.2-1.8-0.5-2.2C296.1,45,294.6,45.1,294.2,45.8z"/>
<path fill="#FFFFFF" stroke="#D6D6D6" stroke-miterlimit="10" d="M313.6,81.4c0.1,0.1,0.2,0.2,0.3,0.3c0.4,0.3,0.4,0.8,0.4,1.3
	c0.1,0.5,0.2,1.1,0.5,1.5c0.3,0.4,0.8,0.8,1.3,0.7c0.7-0.1,1.1-0.7,1.4-1.3c0.3-0.6,0.5-1.3,1-1.8c0.1-0.1,0.3-0.2,0.4-0.4
	c0.1-0.2,0.1-0.4,0-0.6c-0.3-1-1.4-1.4-2.4-1.7c-0.8-0.3-1.7-0.5-2.5-0.8c-0.1,0-0.2-0.1-0.2,0c-0.2,0-0.3,0.3-0.4,0.5
	c-0.1,0.7-0.1,1.3,0,2C313.5,81.1,313.5,81.3,313.6,81.4z"/>
<path fill="#FFFFFF" stroke="#D6D6D6" stroke-miterlimit="10" d="M308.5,88.1c-0.4,0-0.8-0.1-1.1,0.1c-0.2,0.1-0.3,0.3-0.4,0.4
	c-0.5,0.5-1.2,0.7-1.9,0.5c-0.7-0.2-1.2-0.7-1.4-1.4c-0.2-0.7,0.1-1.5,0.3-2.2c0.2-0.7,0.4-1.3,0.7-2c0.2-0.5,0.3-0.9,0.7-1.2
	c0.4-0.3,0.9-0.3,1.4-0.3c0.7,0,1.4,0,2.1,0c0.6,0,1.2,0,1.7,0.2c0.5,0.2,0.8,0.7,1.2,1.1c0.5,0.7,1,1.3,1.6,2
	c0.4,0.5,0.9,1.2,0.8,1.9c0,0.3-0.1,0.6-0.4,0.7c-0.4,0.2-0.8-0.1-1.1-0.4c-0.6-0.5-1.5-1.2-2.1-0.7
	C309.9,87.3,309.4,88.2,308.5,88.1z"/>
<path fill="none" stroke="#D6D6D6" stroke-miterlimit="10" d="M244.6,76.8c0.4,1.9-0.6,3.9-1.9,5.3c-1.2,1.4-2.7,2.8-2.8,4.6
	c-0.1,1.5,0.8,3.3-0.2,4.5c-0.3,0.4-0.8,0.7-1.2,0.9c-6.7,4-8.7,12.9-7.5,20.6c0.3,1.7,0.7,3.4,0.5,5.1c-0.2,2.8-1.9,5.3-4,7.3
	c-2,2-4.9,3-7.1,4.7c-4.6,3.7-7.8,9-12.1,13.1c-7.8,7.5-17.7,12.6-28.3,14.7c-1.1,0.2-2.1,0.4-3.2,0.3c-1.2-0.1-2.4-0.5-3.6-1.1
	c-7.6-3.6-8.8-1.8-9.1-2.4"/>
<path fill="#EAEAEA" stroke="#D6D6D6" stroke-miterlimit="10" d="M87.5,23.6c-0.2,0.4-0.5,0.9-0.9,1c-0.4,0.1-0.8-0.1-1.2-0.2
	c-0.9,0-1.5,1-2.4,1.3c-0.5,0.2-1.1,0.1-1.5-0.1c-0.3-0.2-0.5-0.4-0.5-0.7c0-0.1,0.1-0.2,0.1-0.4c1.2-2.1,2.7-4,4.6-5.5
	c0.4-0.3,0.7-0.6,1.2-0.7c0.4-0.1,1-0.1,1.3,0.2c0.4,0.3,0.4,0.9,0.4,1.4C88.6,21.1,88,22.4,87.5,23.6z"/>
<path fill="#EAEAEA" stroke="#D6D6D6" stroke-miterlimit="10" d="M74.3,23.2c0.1-0.4,0.6-0.5,1-0.5c0.6-0.1,1.1-0.3,1.6-0.6
	c0.4-0.2,0.8-0.5,1.2-0.6c0.6,0,1.1,0.5,1.3,1c0.1,0.3,0.1,0.6,0.1,0.9c0.1,1.8,1.2,3.7,0.4,5.3c-0.4,0.8-1.8,0.1-2.5-0.5
	c-0.7-0.6-1.1-1.5-1.7-2.1c-0.3-0.3-0.6-0.6-0.8-1c-0.1-0.3-0.1-0.6-0.2-0.9C74.6,24,74.1,23.6,74.3,23.2z"/>
<path fill="none" stroke="#D6D6D6" stroke-miterlimit="10" d="M80,25.6c0.3,0,0.5-0.1,0.7-0.3c0,0,0.2,0,0.1,0.1
	c0,0.1-0.1,0.1-0.2,0"/>
<path fill="none" stroke="#D6D6D6" stroke-miterlimit="10" d="M78,29c-0.6,0.4-1.2,0.8-1.8,1.2c-1.2,0.8-2.5,1.6-3.9,1.5
	c-0.5,0-1-0.2-1.4,0.1c-0.5,0.3-0.5,0.9-0.6,1.4c-0.4,2.1-1.6,4-2.7,5.9c-0.3,0.5-0.6,0.9-1.1,1.2c-3.9,2.4-7.6,5.1-11.1,8
	c-0.6,0.5-1.3,1.1-1.4,2c-0.1,0.6,0.1,1.2,0.1,1.7c-0.1,1.1-1.1,2-2.2,2.3c-1.1,0.3-2.2,0.2-3.3,0.1c-2.5-0.2-4.9-0.1-7.4,0
	c-5.9,0.2-11.8,0.4-17.7,0.6c-1.3,0-2.6,0.1-3.8,0.4c-1.1,0.3-2.6,0.7-3.5,1.3c-0.6,0.5-4.9,3.9-6.7,6c-1.2,1.4-2.2,3-3.2,4.6
	c-3.5,5.2-7.6,10-12.1,14.3c-1.5,1.5-3.2,2.9-5.3,3.4c-1.2,0.3-2.5,0.2-3.8,0.1c-2.6-0.2-5.2-0.4-7.8-0.6"/>
<path fill="none" stroke="#D6D6D6" stroke-miterlimit="10" d="M283.1,263.9c1.7,3.2,3,6.6,3.4,10.2s-0.1,7.3-2.1,10.4
	c-0.7,1.1-1.7,2.2-2.1,3.5c-0.4,1.3-0.2,2.9,1,3.6c0.3,0.2,0.6,0.2,0.9,0.4c0.4,0.3,0.7,0.7,1,1.1c1.4,2.1,3,4.1,4.7,6
	c0.6,0.6,1.2,1.3,2,1.6c0.6,0.2,1.3,0.2,2,0.2c2.4-0.1,4.8-0.2,7.2-0.3c0.8,0,1.6,0,2.2,0.5c0.7,0.6,0.7,1.6,0.3,2.4
	c-0.4,0.8-1,1.4-1.5,2.1c-2.1,2.6-2.7,6.1-2.7,9.4c0,3.3,0.7,6.6,0.9,10c0.4,5.9-0.5,11.7-1.4,17.6c-0.6,3.8-1.2,7.6-1.7,11.3
	c-0.3,2.1-0.7,4.2-1.7,6c-0.8,1.4-2,2.6-2.3,4.1c-0.4,2.2,1,4.4,0.5,6.5"/>
<path fill="none" stroke="#4E9BD7" stroke-miterlimit="10" d="M-2.8,370c2.4-10,14.1-16.3,14.8-26.5c0.3-4.8-1.9-9.4-1.9-14.2
	c0-4.7,2.3-9.1,3.8-13.6c0.2-0.6,0.4-1.2,0.1-1.8c-0.4-0.7-1.3-0.9-1.9-1.3c-1.6-1.2-1-3.7-0.3-5.5c0.7-1.9,1.2-4.4-0.5-5.5
	c-0.5-0.3-1-0.4-1.4-0.8c-0.5-0.6-0.1-1.5,0.2-2.3c0.9-1.9,1.9-3.8,2.8-5.7c2.6-5.2,5.2-10.3,7.7-15.5c0.2-0.5,1.1-1,1.2-0.5
	c0.2,1.1-0.2,2.4,0.7,3.1c0.9,0.6,2.3,0,2.9-0.9c0.6-1,0.5-2.2,0.5-3.3c-0.1-3.7-0.1-7.5,1-11.1c0.8-2.6,2.2-5.1,1.9-7.8
	c-0.1-1.2-0.6-2.4-0.6-3.6c0-1.2,0.9-2,1.8-2.8c1.6-1.3,0.7-4.6,2-6.3c0.8-1,0.5-2.6,0.3-3.9s-0.1-3,1.1-3.6
	c0.4-0.2,0.8-0.2,1.2-0.4c0.8-0.4,1.1-1.2,1.4-2c0.6-1.5,1.2-3,1.7-4.6c0.1-0.3,0.2-0.6,0.2-0.9c-0.1-0.3-0.4-0.6-0.5-0.9
	c-0.5-1.1,1.1-1.9,1.9-2.8c0.5-0.6,0.7-1.4,0.9-2.2c0.2-0.8,0.6-1.5,1.3-1.9c0.7-0.3,1,0.6,1.8,0.9c0.5,0.2,0.7-1.2,1.2-1
	c0.5,0.2,0.3,1.2,0.8,1.5c0.4,0.2,0.6-0.7,1-0.8c0.6-0.2,0.9,1.2,1.5,1.3c0.6,0.1,0.7-1.3,1.3-1.2c0.6,0.2,0.8,1,1.4,0.7
	c0.6-0.3,0.7-1.1,0.9-1.8s1-0.6,1.4-1.1c0.6-0.9-0.2-2,0.4-2.9c1.3-2.1,2.5-4.2,3.5-6.3c0.9-1.9,1.8-3.9,1.9-6c0.1-2,0-4.2-1.1-5.9
	c-0.5-0.8-1.9-0.2-2.9,0s-2.7-1.3-1.7-1.5c0.8-0.2,1.6-0.5,1.7-1.4s0-1.8,0.5-2.5c0.2-0.3,0.6-0.6,0.8-0.9c0.6-1.1-0.7-2.3-1-3.5
	c-0.3-1.1,0.4-2.3,1-3.3c1.8-3.3,2.3-7,3.4-10.6c1-3.6,2.7-7.2,5.9-9.2c4.5-2.7,10.8-0.8,15.4-3.3c3.2-1.8,6.4-3.6,9.5-5.4
	c0.7-0.4,1.3-0.7,1.9-1.2c0.7-0.6,1.3-1.3,1.8-2c1.7-2,3.8-3.6,5.9-5.2c0.6-0.5,1.3-1,2.1-1.1c0.3,0,0.7,0,1-0.1
	c0.3-0.1,0.5-0.3,0.7-0.5c4.1-3.6,8.7-6.6,13.7-8.8c1.4-0.6,2.9-1.2,4.2-2c2.4-1.4,4.4-3.5,5.7-5.9c0.4-0.7,0.7-1.5,1.4-2
	c1.2-1,3-0.7,4.4-0.1c1.4,0.5,2.9,1.3,4.4,1c1.1-0.2,2.2-0.9,3.3-0.8c2.5,0.2,3.2,3.9,5.5,4.8c1.5,0.6,3.2-0.1,4.7-0.6
	c1.6-0.5,3.7-0.2,5,0.7c2,1.5,7.1,2.1,6.1,4.4c-2.2,5.2-2.1,7.4,2.8,9.7c2.3,1-1.1,4.8-0.9,7.2c-0.1,1.4-0.3,3.2-0.3,4.6
	c0,0.5,0,1,0,1.4c0.1,0.6,0.3,1.2,0.7,1.8"/>
<g>
	<g>
		<path fill="none" stroke="#585858" stroke-miterlimit="10" d="M186.3-16.5c-0.5,0.4-1,0.7-1.5,1.1c0,0-0.1,0.1-0.1,0.1"/>
		<path fill="none" stroke="#585858" stroke-miterlimit="10" stroke-dasharray="3.9977,0.9994" d="M183.9-14.8
			c-3,1.8-6.4,3.1-9.4,4.9c-9.6,5.8-14.8,17-24.2,23.1c-2,1.3-4.1,2.3-5.9,3.9c-3.3,3-4.7,7.5-5.9,11.8c-2.4,8.3-4.9,16.6-7.3,24.9
			c-2.1,7.1-4.3,14.3-8.4,20.5c-4.1,6.1-10.5,11.2-17.9,11.8c-1.4,0.1-2.9,0.1-4.2,0.7c-2,0.9-3.1,3.2-4.1,5.2
			c-3.6,7.4-11.8,12.2-13.9,20.1c-0.5,1.8-0.7,3.7-1.6,5.4c-2.8,5.6-5.6,11.3-9.7,16c-0.9,1-2.5,2.9-1.3,3.6c1.3,0.7,3-2.1,4.3-1.2
			c1.2,0.8-1.3,3.8,0,4.4c2,1,3.5-5.1,5.5-4c2.3,1.3-0.2,5.3,0,7.9c0.2,2,0.4,4.3-0.6,6c-1.7,3-6.3,3.3-8,6.3
			c-1.6,2.6-0.3,6.2-1.6,9c-0.9,2-3,3.2-4.9,4.3c-1,0.6-2,1.1-3.2,1.4c-0.9,0.2-1.8,0.2-2.6,0.5c-2.6,0.8-3.8,3.9-4.7,6.5
			c-1.2,3.9-2.5,7.9-3.7,11.8c-2,6.2-5.5,11.9-8.7,17.5c-9,15.9-15.1,33.5-18,51.6c-0.3,1.9-0.5,3.8-1,5.6c-0.6,2.2-1.5,4.2-2.5,6.2
			c-3.3,6.7-7.5,12.8-10.3,19.7c-2.8,6.9-3.1,8.4-3.2,15.8c-0.1,4.2,1.5,14.5,0.5,18.6c-0.3,1.2-0.8,2.3-1,3.5
			c-0.4,2.4,0.4,4.9,0.9,7.3c0.4,1.9,0.6,3.8,0.8,5.7c0.3,2.6,0.4,5.5-1.4,7.4c-0.4,0.5-1,0.9-1.1,1.5c-0.1,0.5,0.1,1-0.1,1.4
			c-0.5,1.5-3.1,0.7-4.1,2c-0.4,0.5-0.4,1.2-0.5,1.8s-0.6,1.3-1.2,1.2c-0.4,0-0.8-0.4-1.2-0.4c-0.2,0-0.4,0.1-0.6,0.2
			c-2.2,1.4-3.4,3.9-4.2,6.4c-0.5,1.7-0.9,3.5-1.4,5.2"/>
		<path fill="none" stroke="#585858" stroke-miterlimit="10" d="M-7.7,368.8c-0.2,0.6-0.5,1.2-0.8,1.8"/>
	</g>
</g>
<g>
	<g>
		<path fill="none" stroke="#585858" stroke-miterlimit="10" d="M290.6-13.7c0.5,0.5,1.1,0.6,1.8,0.7"/>
		<path fill="none" stroke="#585858" stroke-miterlimit="10" stroke-dasharray="4.0207,1.0052" d="M293.4-13c1,0,2.1-0.1,3,0.4
			c0.8,0.4,1.3,1.1,1.9,1.8c0.6,0.6,1.5,1.1,2.3,0.8c0.7-0.3,1.1-1,1.6-1.6c0.5-0.6,1.5-1.4,2-0.8c0.6,0.8-0.4,2.6,0.6,3.1
			c0.9,0.4,1.7-2,2.5-1.5c1.2,0.7-1.3,2.8-0.6,4c0.5,0.8,1.6-0.6,2.4-1c0.8-0.4,2.1-0.1,2,0.8c-0.1,0.3-0.4,0.6-0.6,0.8
			c-1.3,1.1-3,2.7-2.5,4.4c0.3,1,1.7-2,2.5-1.3c0.2,0.2,0.2,0.4,0.2,0.6c0,1.8-0.7,3.6-1.9,4.9c-0.7,0.8-2.5,2.3-1.5,2.7
			c0.7,0.4,1.6,0.4,1.8,1.2c0.2,0.8-0.2,1.6-0.4,2.4c-0.7,2.5,0.4,5.1,0,7.7c-0.2,1.5-0.9,3-1,4.6c0,0.6,0,1.3-0.2,1.9
			c-0.5,1.1-0.7,2.1-1.2,3.2c-0.6,1.2-4.3,0.7-3.4,1.7c0.3,0.4,1.4,0.5,1,0.9c-0.7,0.8-2.5-0.8-3.1,0c-0.5,0.8,2.1,1.6,1.6,2.5
			c-0.6,1-2.6-0.5-3.4,0.3c-1.3,1.3-0.2,3.5-0.9,5.2c-0.3,0.7-0.8,1.2-1.3,1.8c-0.9,1.2-0.5,3.1-1.7,4c-1.9,1.5-3.6,2.2-5.3,3.8
			c-0.4,0.3-1.3,0.3-1.5-0.2c-0.4-0.9-1.1-1.7-2-1.3c-0.9,0.4-0.7,2-1.6,2.4c-1.9,0.9-3.6-2.2-4.3-4.1c-0.3-0.7-0.5-1.4-1.1-1.8
			c-0.5-0.4-1.2-0.4-1.8-0.3c-3.1,0.3-5.9,1.8-9,2.1c-2.1,0.2-3.9-1.5-6-1.3c-0.3,0-11.6-4.2-17.1-4.2c-4.8-0.1-9.1,2.9-12.8,5.9
			c-4.4,3.6-8.9,7.5-11.2,12.7c-1,2.2-1.6,4.6-1.6,7c0,2.5,1,4.7,1.6,7.1c0.4,1.6-0.1,3.6,0.8,4.9c0.6,1,3.3,2.1,3.8,3.2
			c0.4,0.9-0.3,3.8-0.2,4.8c0.5,4.4,0.9,6.7,0.8,11.1c-0.2,5.8-1.7,11.4-2.6,17.1c-0.7,4.7-1.5,9.6-4,13.7
			c-2.7,4.4-7.1,7.5-11.7,9.9c-9.6,5-20.3,7.5-30.9,10c-2,0.5-4,0.9-6,1.4c-1.3,0.3-2.8,0.5-3.8-0.4c-0.3-0.3-0.5-0.7-0.8-1.1
			c-1.4-2.6-2.6-6.2-0.4-8.2c1.2-1.1,3-1.2,4-2.5c0.8-1,0.7-2.6-0.2-3.5c-0.9-0.9-2.2,0-3.5-0.3c-0.8-0.2-0.3-1.7-0.9-2.2
			c-2.1-1.5-4.3,3.7-6.7,3c-0.6-0.2-1.1-0.6-1.6-1.1c-1.7-1.5-2.7-4.7-5-4.6c-2.4,0.1-2.6,4.5-4.9,5.1c-2.3,0.6-1.7-4.4-3.5-5.9
			c-2.3-1.9-6.2,2.2-8.6,0.5c-0.5-0.4-0.4-1.5-1.1-1.6c-1.3-0.2-3.2-0.6-4-1.6c-0.7-1-1.8-2.3-3-1.8c-0.4,0.2-0.7,0.5-1.1,0.8
			c-0.9,0.7-2.2,0.4-3.3,0.6c-0.9,0.2-0.9,1.6-0.5,2.5c0.4,0.9,0.9,1.7,0.9,2.6c-0.1,0.9-1.3,1.8-1.9,1c-0.2-0.2-0.2-0.5-0.4-0.8
			c-0.6-1-2.3,0-2.4,1.2c-0.2,1.1,0.9,2.6,0.2,3.5c-0.7,0.8-1.8-0.5-2.4-1.4c-0.8-1.1-2.5,0.7-3.1,1.9s-1.6,2.6-2.9,2.3
			c-0.6-0.2-1.1-0.7-1.7-0.9c-1.2-0.4-2.4,0.4-3.3,1.3c-0.8,0.9-1.5,2.1-2.6,2.6c-0.4,0.2-0.9,0.3-1.3,0.5c-1.8,1.2-0.7,4.4-2.2,6
			c-1.4,1.4-4,0.5-5.6,1.7c-0.7,0.5-1,1.4-1.7,2c-1.1,1-2.8,1.1-4.3,0.9c-0.8-0.1-1.7-0.1-2.2-0.7c-0.7-0.7-1.1-1.7-2-1.9
			c-0.1,0-0.3,0-0.4-0.1"/>
		<path fill="none" stroke="#585858" stroke-miterlimit="10" d="M82.3,146c-0.7,0.1-1.3,0.4-1.7,0.9"/>
	</g>
</g>
<path fill="none" stroke="#585858" stroke-miterlimit="10" stroke-dasharray="4,1" d="M168.4,146.6c0.4,1.4-1.1,3.2-1.5,4.6
	c0,0.1-0.1,0.2,0,0.3c0,0.3,0.4,0.5,0.7,0.7c0.8,0.6,1.1,1.9,0.5,2.8c-0.3,0.4-0.7,0.8-1.1,1.1c-1.2,1.2-1.6,2.8-1,4.4"/>
<text transform="matrix(1 0 0 1 301.391 52.2543)"><tspan x="0" y="0" fill="#7BBCEB" font-family="'Verdana-Italic'" font-size="8">Rodgers</tspan><tspan x="0" y="9.6" fill="#7BBCEB" font-family="'Verdana-Italic'" font-size="8">Lake</tspan></text>
<text transform="matrix(1 0 0 1 193.9105 166.4273)"><tspan x="0" y="0" fill="#585858" font-family="'Verdana-Italic'" font-size="8">Neall</tspan><tspan x="0" y="9.6" fill="#585858" font-family="'Verdana-Italic'" font-size="8">Lake</tspan></text>
<text transform="matrix(1 0 0 1 293.497 168.6267)"><tspan x="0" y="0" fill="#585858" font-family="'Verdana-Italic'" font-size="8">Regulation</tspan><tspan x="23.5" y="9.6" fill="#585858" font-family="'Verdana-Italic'" font-size="8">Peak</tspan></text>
<text transform="matrix(1 0 0 1 319.6688 149.5781)" fill="#585858" font-family="'Verdana-Italic'" font-size="8">× 10554</text>
<text transform="matrix(1 0 0 1 35.4386 33.2769)" fill="#585858" font-family="'Verdana-Italic'" font-size="8">× 9546</text>
<text transform="matrix(1 0 0 1 114.6197 246.7868)" fill="#585858" font-family="'Verdana-Italic'" font-size="8">× 10025</text>
<text transform="matrix(1 0 0 1 159.8992 75.4187)" fill="#585858" font-family="'Verdana-Italic'" font-size="8">9709 ×</text>
<path fill="none" d="M125.8,174.3c2.8-9.3,11.3-16.4,20.9-18.4c3.4-0.7,7.5-0.5,9.5,2.3"/>
<text transform="matrix(0.7098 -0.7044 0.7044 0.7098 132.5323 167.0018)"><tspan x="0" y="0" fill="#7D7D7D" font-family="'Verdana-Italic'" font-size="7">9</tspan><tspan x="4.1" y="0" fill="#7D7D7D" font-family="'Verdana-Italic'" font-size="7" rotate="9">2</tspan><tspan x="8.1" y="0.6" fill="#7D7D7D" font-family="'Verdana-Italic'" font-size="7" rotate="17.8">0</tspan><tspan x="12" y="1.8" fill="#7D7D7D" font-family="'Verdana-Italic'" font-size="7" rotate="26.7">0</tspan></text>
<path fill="none" d="M253.8,195c0.8,3.3,4.8,4.2,7.7,5.9c5.2,3,7.7,9.4,12.9,12.5"/>
<text transform="matrix(0.8804 0.4742 -0.4742 0.8804 258.0215 201.8612)"><tspan x="0" y="0" fill="#7D7D7D" font-family="'Verdana-Italic'" font-size="7">9</tspan><tspan x="3.8" y="-0.1" fill="#7D7D7D" font-family="'Verdana-Italic'" font-size="7" rotate="16.2">8</tspan><tspan x="7.8" y="1.2" fill="#7D7D7D" font-family="'Verdana-Italic'" font-size="7" rotate="22.5">0</tspan><tspan x="12" y="3" fill="#7D7D7D" font-family="'Verdana-Italic'" font-size="7" rotate="19">0</tspan></text>
<text transform="matrix(1 0 0 1 234.8992 271.8183)" fill="#585858" font-family="'Verdana-Italic'" font-size="8">× 10529</text>
<text transform="matrix(1 0 0 1 245.773 261.8505)" fill="#585858" font-family="'Verdana-Italic'" font-size="8">West Peak</text>
<text transform="matrix(0.4325 -0.9017 0.9017 0.4325 24.2275 301.2865)" fill="#585858" font-family="'Verdana-Italic'" font-size="8">Rodgers         Meadow</text>
<path fill="none" d="M282.1,288.8c7.1-1.3,14.3-2.3,21.5-2.9c3.9-0.3,7.9-0.5,11.5,0.9c3.6,1.4,6.8,4.6,6.9,8.5"/>
<text transform="matrix(0.9929 -0.1187 0.1187 0.9929 293.6559 289.5214)"><tspan x="0" y="0" fill="#7D7D7D" font-family="'Verdana-Italic'" font-size="7">9</tspan><tspan x="4.4" y="0" fill="#7D7D7D" font-family="'Verdana-Italic'" font-size="7" rotate="1.2">6</tspan><tspan x="8.8" y="0.1" fill="#7D7D7D" font-family="'Verdana-Italic'" font-size="7" rotate="2.7">0</tspan><tspan x="13" y="0.2" fill="#7D7D7D" font-family="'Verdana-Italic'" font-size="7" rotate="8.2">0</tspan></text>
<path fill="none" d="M51.1,369.9c2.2-13.9,2.9-28,2.1-42c-0.3-6.1-0.7-12.8,3.1-17.5"/>
<text transform="matrix(-2.996704e-02 -0.9996 0.9996 -2.996704e-02 56.0235 335.1337)"><tspan x="0" y="0" fill="#7D7D7D" font-family="'Verdana-Italic'" font-size="7">9</tspan><tspan x="4.5" y="0" fill="#7D7D7D" font-family="'Verdana-Italic'" font-size="7" rotate="-1.3">0</tspan><tspan x="8.9" y="-0.1" fill="#7D7D7D" font-family="'Verdana-Italic'" font-size="7" rotate="0">0</tspan><tspan x="13.1" y="-0.2" fill="#7D7D7D" font-family="'Verdana-Italic'" font-size="7" rotate="6">0</tspan></text>
<path fill="none" d="M69.2,90.2c7.8-5.1,15-11.7,23.4-15.7c5.4-2.5,11.1-3.9,16.7-6.1"/>
<text transform="matrix(0.8105 -0.5857 0.5857 0.8105 80.8629 84.8739)"><tspan x="0" y="0" fill="#7D7D7D" font-family="'Verdana-Italic'" font-size="7">9</tspan><tspan x="4.4" y="0" fill="#7D7D7D" font-family="'Verdana-Italic'" font-size="7" rotate="2.1">4</tspan><tspan x="8.7" y="0.1" fill="#7D7D7D" font-family="'Verdana-Italic'" font-size="7" rotate="5.7">0</tspan><tspan x="12.9" y="0.5" fill="#7D7D7D" font-family="'Verdana-Italic'" font-size="7" rotate="10.4">0</tspan></text>
<path fill="none" d="M231.5,22.6c5.2-1.7,10.3-3.4,15.7-4.5c7.1-1.5,14.4-1.9,21.6-2.2c2.1-0.1,4.1-0.2,6.2,0"/>
<text transform="matrix(0.9879 -0.1553 0.1553 0.9879 249.0523 20.3056)"><tspan x="0" y="0" fill="#7D7D7D" font-family="'Verdana-Italic'" font-size="7">9</tspan><tspan x="4.3" y="0" fill="#7D7D7D" font-family="'Verdana-Italic'" font-size="7" rotate="2.6">8</tspan><tspan x="8.7" y="0.2" fill="#7D7D7D" font-family="'Verdana-Italic'" font-size="7" rotate="4.4">0</tspan><tspan x="13.1" y="0.5" fill="#7D7D7D" font-family="'Verdana-Italic'" font-size="7" rotate="5.5">0</tspan></text>
<g>
	<g>
		<polyline fill="none" stroke="#7D7D7D" stroke-miterlimit="10" points="85.2,341.6 85.2,348.7 275.4,348.7 275.4,341.7 		"/>
		<line fill="none" stroke="#7D7D7D" stroke-miterlimit="10" x1="180.5" y1="341.4" x2="180.5" y2="348.7"/>
		<line fill="none" stroke="#7D7D7D" stroke-miterlimit="10" x1="161.2" y1="349.2" x2="161.2" y2="343.7"/>
		<line fill="none" stroke="#7D7D7D" stroke-miterlimit="10" x1="142.4" y1="349.2" x2="142.4" y2="343.7"/>
		<line fill="none" stroke="#7D7D7D" stroke-miterlimit="10" x1="123.3" y1="349.2" x2="123.3" y2="343.5"/>
		<line fill="none" stroke="#7D7D7D" stroke-miterlimit="10" x1="104.6" y1="349.2" x2="104.6" y2="343.7"/>
	</g>
	<text transform="matrix(1 0 0 1 83.7838 339.1468)" fill="#7D7D7D" font-family="'Verdana'" font-size="8">0</text>
	<text transform="matrix(1 0 0 1 174.2949 339.1468)" fill="#7D7D7D" font-family="'Verdana'" font-size="8">0.5</text>
	<text transform="matrix(1 0 0 1 258.3418 339.1468)" fill="#7D7D7D" font-family="'Verdana'" font-size="8">1 mi</text>
</g>
</svg>
