<?xml version="1.0" encoding="utf-8"?>
<!-- Generator: Adobe Illustrator 17.1.0, SVG Export Plug-In . SVG Version: 6.00 Build 0)  -->
<!DOCTYPE svg PUBLIC "-//W3C//DTD SVG 1.1//EN" "http://www.w3.org/Graphics/SVG/1.1/DTD/svg11.dtd">
<svg version="1.1" id="Layer_1" xmlns="http://www.w3.org/2000/svg" xmlns:xlink="http://www.w3.org/1999/xlink" x="0px" y="0px"
	 viewBox="0 0 360 360" enable-background="new 0 0 360 360" xml:space="preserve">
<path fill="none" stroke="#E1E1E1" stroke-miterlimit="10" d="M244.6,383.2c-1.8-4.7-4.2-9.2-5.3-14.1c-1.5-7-0.1-14.4-2-21.3
	c-1.7-6.2-6-11.8-6.1-18.3c0-1.4,0.2-2.8-0.2-4.2c-0.4-1.5-1.4-2.8-2.3-4c-1.6-2.2-2.9-4.2-4.9-6.2c-2.7-2.6-5.2-5.4-7.1-8.7
	c-1.5-2.6-2-5.5-3.2-8.2c-3.4-7.8-1.3-17.7,5-23.5c3.4-3.1,8-5.3,9.8-9.6c0.4-0.9,0.6-1.8,1.2-2.5c2.9-3.3,9.7,1.8,12.3-1.7
	c0.8-1.1,0.8-2.6,0.9-4c0.5-7.8,10-16.6,15.3-15c5.5,1.7-3.7,10.7-3.6,16.5c0,0.7,0.1,1.3,0,2c-0.1,0.8-0.5,1.5-0.8,2.2
	c-1,1.9-1.9,3.9-2.9,5.8c-1.4,2.7-2.7,5.5-3.1,8.5c-0.4,3.6,0.9,7.2,3.3,9.9c2.7,3,6.8,4.4,10.7,5.1c3.8,0.6,7.6,0.6,11.4,0
	c1-0.2,2-0.4,2.6-1.1c0.7-0.8,0.8-2,1.7-2.4c1.1-0.6,3,0.2,3.6-0.9c0.2-0.4,0.1-1,0.2-1.5c0.1-2.2,2.7-3.3,4.9-3.8
	c3-0.7,6.1-1.5,9.2-1.3c3.1,0.2,6.3,1.4,8.1,4c0.7,1,1.2,2.3,1.9,3.4c1.3,2.1,3.3,3.8,5.3,5.2c3.5,2.4,7.5,4.5,11.7,4.1
	c4.8-0.5,8.7-4.3,10.7-8.7c1.3-2.8,2.8-6.6,6-6.5c0.8,0,1.6,0.3,2.3,0.1c0.8-0.2,1.4-0.9,1.8-1.7c3-4.8,3.8-11.2,8.3-14.6
	c3.5-2.7,8.2-2.8,12.6-2.4c4.3,0.5,11.4-3.5,13,0.5c0.2,0.6-1.1,0.7-1.7,1"/>
<path fill="none" stroke="#E1E1E1" stroke-miterlimit="10" d="M376,316.3c-2.8,0.5-5.2,2.3-7.5,4c-2.4,1.8-5,3.8-6,6.6
	c-0.6,1.7-0.6,3.6-0.5,5.5c0.1,2.9,0.4,5.8,1,8.6c0.6,2.9,1.6,5.7,2.6,8.5c0.5,1.3,0.9,2.6,1.4,3.9c0.5,1.4,1.1,3,2.4,3.8
	c0.6,0.4,1.4,0.5,2.1,0.9c1.1,0.5,2,1.5,3,2.2c1.8,1.3,4.1,1.9,6.2,1.6"/>
<path fill="none" stroke="#E1E1E1" stroke-miterlimit="10" d="M370.4,311.9c-3.2,1.2-6.3,2.8-9.1,4.9c-1.6,1.2-3.2,2.7-3.5,4.7
	c-0.1,1,0.1,1.9-0.1,2.9c-0.3,2.3-2.6,4.1-2.8,6.5c-0.1,0.8,0.1,1.6-0.2,2.3c-0.2,0.8-0.9,1.4-1.3,2.2c-1.2,2.2-0.3,5.1-1.7,7.2
	c-1,1.5-4.1,3.4-2.7,4.5c1.2,1,3.2,0.7,4.4,1.7c1.2,1.1,0.2,3,1,4.3c1.3,2.1,4.4,2.3,5.3,4.7c1,2.3,1.6,5,3.4,6.6
	c1.2,1.1,3,1.7,3.8,3.2c1.4,2.4-0.3,5.3-0.2,8.1c0.1,2.4,1.7,4.5,3.7,5.9c0.5,0.4,1,0.7,1.6,0.9"/>
<path fill="none" stroke="#E1E1E1" stroke-miterlimit="10" d="M338.6,382.8c-0.6-0.5-1.2-1-1.8-1.6c-2.2-2.2-3-5.4-3.4-8.4
	c-1-6.1-1.1-12.3-0.4-18.4c0.7-5.9,2.2-11.9,6.2-16.4c1.2-1.3,2.5-2.4,4-3.3c1.4-0.8,2.9-1.4,4-2.4c1.2-1,0.5-3,1.5-4.2
	c0.6-0.7,1.5-0.8,1.8-1.7c1.6-4.4,2.5-9.1,2.6-13.8c0-1.3,1-2.1,2.1-2.7c1.5-0.8,3-1.6,4.7-1.8c1.2-0.1,2.5,0.2,3.5-0.4
	c0.5-0.2,0.8-0.6,1.2-0.9c3-2.4,7.3-2.1,11.1-1.6"/>
<path fill="none" stroke="#E1E1E1" stroke-miterlimit="10" d="M252,383.1c0.2-3.9,1.3-7.7,3.5-11.1c0.8-1.2,1.9-2,2-3
	c1.5-10.3,3.5-20.9,2-31c-1.6-10.9-15.6-12.2-21-21c-1.9-3.1-3-6-5-7.8c-1.5-1.3-3.5-2.1-5-3.4c-0.4-0.3-0.8-0.7-1.2-1
	c-0.4-0.4-0.8-0.7-1.1-1.1c-1.3-1.8-1.3-4.8-3.5-5.4c-0.5-0.1-1-0.1-1.4-0.4c-0.8-0.5-0.7-1.8-0.4-2.7c1.1-3.9,2.2-7.7,4-11.3
	c0.5-1,1.1-1.9,1.6-2.8c1-1.8,2.1-3.6,3.3-5.3c0.8-1.2,1.8-2.3,3.1-2.9c0.7-0.3,1.5-0.5,2.3-0.4c3.5,0.2,5.6,4.1,6.1,7.6
	c0.5,3.5,0,7.2,1.5,10.4c1.8,4,6.8,6.2,11,5c0.8-0.2,1.6-0.6,2.5-0.5c0.9,0.1,1.7,0.7,2.6,1.2c2.5,1.4,5.4,1.6,8.3,1.8
	c4.5,0.2,9.3,0.3,12.9-2.2c2.3-1.7,4-4.3,6.6-5.5c3-1.3,6.5-0.2,9.7,0.9c0.9,0.3,1.8,0.6,2.5,1.3c0.6,0.5,0.9,1.2,1.2,1.9
	c0.7,1.4,1.1,2.9,2,4.1c1.8,2.4,4.3,4.1,6.5,6.1c0.5,0.4,0.9,0.9,1.2,1.5c0.5,1.1,0.3,2.3,0.7,3.5c0.5,1.5,2.3,1.9,3.9,2
	c1.7,0.2,4.7,2.4,6.3,3.1c2,0.9,4.2,0.6,6.4,1c3.3,0.7,6.1,3,9.4,3.3c2.6,0.3,5.7-0.4,7.4,1.6c1.1,1.3,1,3.4,0,4.8
	c-1,1.4-2.7,2.1-4.5,2.3c-1.4,0.1-3.3,0.2-3.8,1.5c-0.3,0.8,0.2,1.8-0.1,2.6c-0.2,0.6-0.9,1-1.4,1.3c-1.6,0.8-3.3,1.6-4.5,3
	c-1.2,1.3-0.1,3.5-1.2,5c-0.7,1-2.3,0.9-2.7,2c-0.4,1.1-0.4,2.4-0.6,3.6c-0.2,1.2-0.7,2.3-1.2,3.5c-2.7,6.4-4.4,13.2-6.1,20
	c-0.9,3.7-1.9,7.7-0.5,11.3c0.5,1.4,1.4,2.7,2.3,4"/>
<path fill="none" stroke="#E1E1E1" stroke-miterlimit="10" d="M273.1,383.4c-0.2-0.5-0.3-1.1-0.4-1.6c-0.8-4.2,0.4-8.5,1.5-12.7
	c1.9-6.7,3.8-13.4,5.6-20.1c1-3.7,2.1-7.4,1.6-11.2c-1.3-11.5-7.1-24.7-17.7-29.4c-1.4-0.6-4.2-0.5-4-2c0.1-1.4,1.7-2.3,3.1-2.3
	s2.7,0.6,4.1,1c4.9,1.4,10.5-0.3,13.7-4.2c0.8-0.9,1.5-2,2.5-2.7c0.8-0.5,1.8-0.7,2.8-0.9c1.7-0.3,3.5-0.5,5.2,0.1s3.2,2.1,2.9,3.9
	c-0.1,0.4-0.3,1.3-0.3,1.7c-0.8,3.8-1.5,7.7-2.2,11.6c-0.6,3.2-1.2,6.5-0.5,9.7c0.7,3.2,3,6.3,6.3,6.8c1.9,0.3,3.9-0.3,5.9-0.2
	c1.6,0.2,3.2,0.9,4.8,1.1c1.9,0.3,3.9-0.2,5.9-0.5c1.9-0.3,4-0.4,5.8,0.4c1.8,0.9,3.1,3,2.3,4.8c-0.5,1.2-2,1.3-3.1,1.9
	c-3.7,1.9-4.3,7.3-4.4,11.4c0,1.2,0.2,2.5-0.2,3.6c-0.4,1.5-1.5,2.7-2.1,4.2c-1.6,4,1.2,8.5,0.8,12.8c-0.3,2.9-2,5.7-1.6,8.6
	c0.2,1.4,0.9,2.6,1.4,3.9c0.2,0.5,0.4,1.1,0.6,1.6"/>
<path fill="none" stroke="#E1E1E1" stroke-miterlimit="10" d="M299.3,347.1c-0.6,0-1.2,0.1-1.7,0.4c-1.1,0.8-0.7,2.4-0.3,3.7
	c1.1,3.1,2.1,6.1,3.2,9.2c0.3,1,0.7,1.9,1,2.9c0.5,1.4,1.5,4.2,2.7,3.3c2.4-1.9,0.4-6.1,0.6-9.1c0.1-1.7,0.2-3.5,0.4-5.2
	c0.1-1.1,0.1-2.2-0.4-3.2C303.8,347.3,301.3,347,299.3,347.1z"/>
<path fill="none" stroke="#E1E1E1" stroke-miterlimit="10" d="M208.5,383.7c-1.5-4.7-1.4-9.9-0.5-14.8c0.4-2.2,0.9-4.7-0.4-6.5
	c-0.3-0.5-0.8-0.9-1.2-1.5c-0.6-0.9-0.8-2-1-3.1c-0.9-4.7-1.7-9.4-2.6-14.2c-0.6-3.1-1.2-6.2-2.8-8.9c-0.6-1-1.4-1.9-2.1-2.9
	c-2-2.7-3.6-5.6-5.2-8.5c-1.3-2.3-2.5-4.6-3.8-6.9c-1.8-3.2-3.5-6.5-4.7-9.9c-6.3-18.3,3-39.9,14.5-55.4c0.8-1.1,1.6-2.1,2.7-2.9
	c1-0.7,2.1-1.2,3.2-1.9c2-1.2,3.5-3,5-4.8c6.8-8.2,13.7-16.4,20.5-24.5c2.5-2.9,4.9-5.9,6.8-9.3c3.2-5.8,4.5-12.6,8.8-17.5
	c3.2-3.5,7.6-5.6,11.3-8.5c6.7-5.2,11.1-13.3,11.8-21.8c0.1-1.1,0.4-2.5,1.5-2.8c1.3-0.2,2,1.3,2.6,2.4c1.8,3.1,5.8,4,9.1,5.5
	c3.3,1.5,6.6,5,5,8.3c-0.7,1.4-2,2.2-3.1,3.2c-3.2,3-4.3,7.7-4.8,12.1c-0.8,8,0.2,16.1,2.8,23.7c1,2.8,3,6.1,6,5.7
	c1.1-0.2,2.1-0.8,3.1-1c3.1-0.6,5.4,2.7,6.4,5.7c0.9,3,1.5,6.5,4,8.2c1.2,0.8,2.7,1.1,3.9,2.1c1.7,1.5,2.1,4,3.1,6
	c1.8,3.5,5.8,5.4,9.7,5.8c3.9,0.3,7.8-0.6,11.6-1.6c6.1-1.6,12.5-3.3,17.4-7.3c4.7-3.9,7.6-9.6,10.9-14.8c4.3-6.8,9.6-13,15.7-18.4"
	/>
<path fill="none" stroke="#E1E1E1" stroke-miterlimit="10" d="M225.6,382.3c-0.4-1.8-0.8-3.5-1.2-5.3c-0.5-2.4-1.1-4.8-1.6-7.1
	c-2.7-12.5-5.5-24.9-9.3-37.1c-1-3-2-6.1-3.6-8.9c-1.8-3.1-4.3-5.7-6.2-8.8c-2.7-4.4-5.9-8.6-7.6-13.4c-1.4-4-2.8-8-3.2-12.2
	c-0.4-4.2,0.4-8.6,3-11.9c1.2-1.6,2.9-2.9,3.4-4.9c0.4-1.3,0.2-2.7,0.5-4c1-4.4,6.9-5.9,8.7-10.1c0.7-1.6,1-3.8,2.6-4.3
	c0.8-0.3,1.8,0,2.5-0.5c0.6-0.5,0.7-1.3,1-2c0.7-1.9,3.5-1.4,4.7-3.1c1-1.3,0.2-3.3,1.4-4.4c1.2-1.1,2.8-1.7,4.2-2.5
	c4-2.2,6.8-6.2,8-10.6c0.6-2.1,0.9-4.4,2.4-6c1.5-1.5,3.8-1.8,5.5-3c1.1-0.8,1.9-2,2.6-3.2c1.6-2.8,2.9-5.7,3.9-8.8
	c0.9-2.7,1.5-5.6,2.9-8.1c1.4-2.5,3.8-4.7,6.7-4.8c0.8,0,1.6,0.1,2.4-0.1c1.2-0.3,2-1.3,2.8-2.2c3.2-3.5,7.5-8.3,12.2-7.2
	c2.1,0.5,0.5,4-0.1,6.1c-1.3,4.4,0.6,9,0.9,13.6c0.2,3.5-0.7,7-1.1,10.5c-0.9,6.4-0.4,12.8,0,19.3c0.1,2,0.4,4.2,1.9,5.4
	c2.5,1.9,6.2,0,9.1,1.1c2.8,1.1,3.7,4.5,4,7.4c0.2,3,0.2,6.2,2,8.5c1.7,2.2,4.7,2.9,7.5,3.2c5.2,0.6,11.2-3.4,15.8-0.7
	c1.3,0.8,2.3,1.5,3.5,2.4c1.3,1,1.9,2.7,3.6,3c1.6,0.3,3.4-0.3,4.4-1.7c0.2-0.3,0.4-0.7,0.7-0.9c0.6-0.4,1.4,0,2.1,0.1
	c2.2,0.5,4.5-0.5,6.1-2.1s2.6-3.6,3.8-5.6c1.2-1.9,3-2.9,4.9-4.1c1.4-0.9,1.7-2.8,2.5-4.2c0.3-0.4,0.6-0.9,1.1-1.1
	c0.5-0.1,1,0.1,1.4-0.1c1.1-0.4,0.8-2.2,1.7-2.8c1-0.7,2.5,0.4,3.5-0.4c0.8-0.7,0.3-1.9,0.4-3c0.1-1,0.7-1.9,1.6-2.2
	c0.7-0.3,1.4-0.2,2.1-0.6c1.6-0.8,1.3-3.1,1.1-4.9c-0.2-1.8,0.6-4.3,2.4-3.9c1.5,0.3,1.7,2.3,2.8,3.4c0.7,0.8,1.8,1,2.8,1.2
	c3,0.5,6.1,0.1,9-1.1"/>
<path fill="none" stroke="#E1E1E1" stroke-miterlimit="10" d="M236.4,383C232,376,229,369.2,228,361c-0.6-5-1.5-9.9-2-15
	c-0.2-2,0.2-5,0-7c-1-11.1-8.8-19.4-17-27c-8.6-7.9-8.2-21.1-3-32c1-2,1.7-5.2,3-7c3.3-4.6,4.4-9.4,9-13c1.1-0.9,2,0,3-1
	s0.9-3.1,2-4c9.2-7.2,14.3-15.8,23-23c2.8-2.3,5.7-3.1,9-7c3.4-4.1,8.3-6,9-10.7c0.1-1,0.5-1.8,1.5-2c2.9-0.7,1.4-5.1,3-7.6
	c0.4-0.6,1.4-1,2.1-0.7c3.2,1.7,0.8,7.3,0.6,11c-0.3,4.9-0.6,9.7-1.2,14.5c-0.6,4.3-1.4,8.6-2.2,12.9c-0.2,1.2-0.5,2.3-1,3.4
	c-1,2-2.9,3.6-3.1,5.8c-0.1,0.9,0.2,1.9-0.2,2.8c-0.6,1.2-2.3,1.5-3.1,2.6c-0.9,1.2-0.5,2.9-0.7,4.5c-0.3,1.9-1.6,3.5-2.1,5.4
	c-0.9,3,0.5,6.4,2.7,8.6c2.2,2.2,5.2,3.5,8.1,4.6c1.3,0.5,2.6,0.9,4,0.9c1.3-0.1,2.5-0.6,3.7-1.1c2.4-1,4.9-2,6.9-3.7
	c1.3-1.1,2.4-2.4,3.8-3.4c1.4-1,3.2-1.6,4.8-0.9c0.8,0.3,1.5,0.9,2.2,1.3c1.5,0.7,3.2,0.7,4.9,0.9c8.7,1.3,15.6,10.4,24.3,9.1
	c2-0.3,4-1.2,5.7-2.4c2.5-1.6,4.8-3.7,6.6-6.1c1.2-1.6,2.9-2.4,4.7-3.3c2.4-1.3,0.7-5.3,1.2-8s3.4-2.7,5.6-4.2
	c2.5-1.7,1.8-6.1,4.6-7.4s5.5,1.4,8.5,1.5c5.9,0.1,11.5-0.6,17.2-2.1"/>
<path fill="none" stroke="#E1E1E1" stroke-miterlimit="10" d="M185.3,383c-3.9-15.3-8.8-29.5-17.8-43.9c-2.1-3.3-3.5-7.3-6.2-10.2
	c-0.9-1-2-2-2.6-3.2c-0.7-1.3-0.8-2.7-1.1-4.2c-1.2-5.6-4.4-10.6-5.5-16.3c-0.8-4.5-0.2-9.1,0.8-13.5c1.7-7.8,4.3-15.4,7.8-22.5
	c0.8-1.7,1.7-3.4,2-5.2c0.2-1.3,0.2-2.6,0.3-3.9c0.7-5.5,5.2-10.5,3.9-15.9c-0.2-0.9-0.6-1.8-0.5-2.8c0.2-2,2.4-3.1,4.1-4.2
	c4.7-3.1,6.7-8.9,10.1-13.4c3.6-4.8,8.7-8.2,13.8-11.4c4.5-2.8,9-5.5,13.3-8.5c1.3-0.9,2.6-1.8,3.5-3c0.9-1.2,1.3-2.7,1.7-4.2
	c0.9-3.4,1.8-6.9,1.7-10.4s-1.6-7.2-4.4-9.3c-4.1-3-8.6-6.8-13.4-8.5c-2.1-0.7-4.5-1.3-6.2-2.7c-0.9-0.8-1.5-1.8-2.4-2.6
	c-3.1-2.9-8-2.6-12-4.1c-3.8-1.4-7.6-0.2-11.2-1.8c-5.7-2.5-10.1-7-12.7-12.6c-1.1-2.3-0.7-5-0.3-7.5c1-5.9,2-12,5.2-17.1
	c2.8-4.5,7.1-7.9,11.5-10.7c7.7-5.1,16.2-9,24.6-12.8c3-1.4,6-2.8,9-4.2c3.3-1.5,6.7-3.1,10.3-2.9c2.6,0.2,5.1,1.2,7.5,2.3
	c3.2,1.4,6.3,2.8,9.5,4.2c1.9,0.9,4,1.8,5.2,3.5c0.9,1.2,1.3,2.7,1.5,4.2c1.3,8.7-7.7,22.9,0.5,26.1c4.5,1.8,9.7-2,14.2-0.3
	c7.8,2.8,13,10.1,19.9,14.7c2.4,1.6,5.1,2.9,8,2.8c1.5-0.1,2.9-0.5,4.4-0.7c2.3-0.3,4.7,0,6.9,0.5c4.9,1.1,10,3.1,13,7.1
	c3.6,5,3.3,11.7,4,17.9c0.7,6.1,3.8,13.2,9.9,14.1c4.7,0.7,8.3-3.7,12.5-6c3.2-1.8,7-1.6,10.6-2.1c1-0.1,2-0.2,3,0.1
	c1,0.3,1.8,1.1,2.8,1.4c2.4,0.7,4.9-1.2,7.4-1c1.5,0.1,2.8,0.9,4.2,1.2s3.3-0.3,3.6-1.7c0.2-0.8-0.2-1.8,0.4-2.3
	c0.7-0.6,1.7,0,2.5-0.3c0.8-0.3,1-1.4,1.4-2.1c1.2-2.2,4.2-2.2,6.6-2"/>
<path fill="none" stroke="#E1E1E1" stroke-miterlimit="10" d="M170.4,383.3c-1.7-7.8-4.3-15.5-7.6-22.8c-2-4.4-4-8.8-6.9-12.7
	c-2.7-3.6-6.4-6.5-8.1-10.6c-0.6-1.5-0.9-3.1-1.8-4.4c-1.4-1.9-3.8-2.9-5.2-4.8c-1.5-2.1-1.5-5-1.5-7.7c-0.1-2.3-0.4-5.2-1.3-7.4
	c-5.2-11.4-1.9-24.8,1.4-36.9c0.5-1.8,1-3.7,2.1-5.2c0.5-0.8,1.2-1.5,1.4-2.4c0.3-0.9,0-1.9,0-2.8c-0.3-3.9,1.7-7.6,2.9-11.3
	c2-6.1,2-12.8-0.1-18.9c-0.3-1-0.7-1.9-0.7-3c0-0.7,0.3-1.4,0.5-2c2.2-6.3,9-12.6,6.6-18.8c-0.4-1.2-1.5-1.9-1.9-3.1
	c-1-3.5-2.1-7.1-1.9-10.7c0.1-3.6,1.7-7.4,4.8-9.4c1.8-1.1,4.4-2.8,3.3-4.6c-0.4-0.7-1.2-0.9-2-1.1c-6.5-2.1-11.7-6.8-17.2-10.9
	s-12.6-3.9-18.8-6.8c-1.8-0.8,0.1-3.8,1.2-5.4c2.5-3.8,5-7.5,7.6-11.3c0.4-0.7,0.9-1.3,1.3-2c4-5.9,8-11.9,11.9-17.8
	c6-8.9,11.6-18.4,19.9-25.2c2.7-2.2,5.5-4.3,8.5-6c10.5-5.9,23-7.4,33.4-13.3c2-1.1,3.8-2.4,5.9-3.1c4.5-1.6,9.9-0.8,13.6,2.3
	c1,0.8,1.9,1.8,3.2,2.3c1.5,0.6,3.1,0.3,4.6,0.4c7.8,0.5,12.1,9.2,18.3,14c0.8,0.6,1.6,1.2,2,2.1c1.2,2.8-2.6,5.4-2.6,8.4
	c0,1.1,0.5,2.2,1.1,3.2c4,6.8,10.2,12.3,17.5,15.4c3.8,1.6,8,2.7,10.8,5.8c1,1.2,2,2.7,3.5,3c0.8,0.1,1.5-0.1,2.3-0.3
	c4.2-1.1,8.5-5,12.5-3.3c2.1,0.9,3.7,2.7,5.9,2.8c2.3,0.1,4.6-0.3,6.8,0.3c2.9,0.8,5.5,3.3,8.5,3.1c1.5-0.1,2.9-1,4.4-1.5
	c1.5-0.4,2.6,1.1,4.2,1.1c7.1-0.3-2.4-16.6,3.4-20.7c3.7-2.6,14,1.9,12.1,5.9c-0.2,0.4-0.1,0.3,0.3,0.4c4.2,1.7,8.7,3,13.1,3.8
	c1,0.2,2,0.3,2.9,0.2c1.2-0.1,2.4-0.6,3.7-0.7c3-0.2,4.3,3,6,5.5c1.2,1.8,4.3,0.1,6.2-1.1c1.9-1.1,3.7-2.5,5.9-2.8"/>
<path fill="none" stroke="#E1E1E1" stroke-miterlimit="10" d="M153.4,383.7c-5.2-15.7-11.6-30.9-21.2-44.2c-2.3-3.2-4.8-6.3-6-10
	c-1.2-3.4-1.3-7.1-1.9-10.6c-0.7-3.5-3.1-6.2-5.1-9.2c-2.8-4.1-1.5-10.1-0.7-15.1c1.6-9.7,4.9-19.2,4.1-29c-0.7-8.8-4.6-17.7-2-26.1
	c1.2-3.9,0.1-7.7,1.1-11.7c1.1-4.3,4.7-7,4.7-11.4c-0.1-6.6-0.2-13.1-0.3-19.7c0-0.8,0-1.7-0.5-2.4c-0.7-1.1-2.1-1.4-3.3-2
	c-3.8-2.2-3.8-8.5-7.8-10.4c-1.3-0.6-2.9-0.6-4.1-1.3c-1.9-1-2.8-3.1-3.5-5.1c-1.6-4.1-3.2-8.4-2.8-12.7c0.4-5.1,3.4-9.6,6.3-13.9
	c3.6-5.2,7.1-10.4,10.7-15.7c1.5-2.1,2.9-4.3,4.4-6.4c2.9-4.3,5.9-8.6,8.9-12.9c0.9-1.3,1.8-2.5,2.6-3.8c3.7-5.3,6.6-11.5,11.8-15.4
	c5.4-4.2,1.7-9.6,4-10c1.3-0.2,2,9,29.9-3.4c2.7-1.2,4-1.5,7-2c1.7-0.3,4.3-1.8,6-2.2c3.6-0.9,5.8-1.8,9.1-3.5
	c3.6-1.8,3.9-2.9,7.9-3.3c2.6-0.2,9-0.2,11.5,0.7c2,0.7,3.8,1.9,5.7,2.9c6.9,3.7,15.2,4.4,22.7,2.2c1.8-0.6,3.8-1.6,4-3.5
	c0.1-0.7-0.2-1.5,0-2.2c0.4-1.5,2.6-2.5,3.9-1.7c0.6,0.4,0.4,1.5,1,2c0.9,0.6,2.3-0.3,3.1,0.3c3.3,2.4,3.2,7.9,2.1,11.9
	c-0.6,2.3-2.1,4.8-0.8,6.8c0.8,1.2,2.3,1.6,3.4,2.5c2.2,1.8,2.4,5.2,1.4,7.9c-0.9,2.7-2.7,5-3.9,7.7c-0.5,1.1-0.8,2.3-0.2,3.3
	c0.4,0.6,1,1.1,1.6,1.5c1.6,1,3.1,1.9,4.7,2.9c2.3,1.4,4.6,2.8,6.8,4.3c1.9,1.2,3.9,2.4,6.2,3c2.7,0.7,5.8,0.3,8.3,1.6
	c1.3,0.7,4.1,0.6,7.2,1c2.2,0.2,5.8-0.4,8.8-1.4c1-0.3,2-0.8,2.6-1.6c1.4-1.9,0.1-5.1,1.8-6.7c0.5-0.5,1.3-0.8,1.8-1.3
	c1-1.1,0.6-3,1.5-4.3c0.5-0.8,1.5-1.3,2.3-1.8c1.6-1.2,2.6-3,3.8-4.6c1.2-1.6,3.1-3,5.1-2.8c2,0.2,3.4,2,5.1,3.1
	c4.3,2.7,9.7,0.7,14.7-0.2c1.1-0.2,2.3-0.4,3.2-1c0.7-0.4,1.2-1,1.8-1.6c2.8-3.1,5.8-6.1,8.7-9.1c1.6-1.6,3.1-3.2,4.7-4.9
	c1-1,2-2.1,3.2-2.8c1.2-0.7,2.6-1.1,3.8-1.7"/>
<path fill="none" stroke="#E1E1E1" stroke-miterlimit="10" d="M130.9,383c-0.8-3.7-1.7-7.1-2.8-10c-2.7-6.9-6.5-13.2-10.3-19.6
	c-2.8-4.6-5.6-9.3-8.4-13.9c-0.7-1.2-1.4-2.4-1.8-3.7c-0.3-1.1-0.4-2.2-0.5-3.3c-0.4-4.8-0.8-9.7-1.2-14.5c-0.2-2.6-0.5-5.3-1.8-7.6
	c-4.3-7.5-2.9-17.6-1.9-26.3c0.2-2.2,0.5-4.3,0.2-6.5c-0.4-2.2-1.5-4.2-2.1-6.3c-2.3-7.6,1.5-15.7,0.6-23.6
	c-0.3-2.7-1.2-5.4-1.8-8.1c-1.6-6.8-1.6-14,0-20.8c1.2-5,2.8-11.2-1.1-14.5c-2-1.7-4.9-1.9-7-3.4c-1.9-1.4-3-3.6-4.1-5.7
	c-3.2-6.7-6.5-13.9-5.7-21.3c0.5-4.8,2.7-9.4,5-13.6c3-5.5,6.2-10.8,9.8-15.9c1-1.5,2.1-3,2.8-4.7c1.8-4.6,0.5-10,1.7-14.8
	c0.9-3.9,3.5-7.3,5.7-10.7c7.4-11,17.5-23.4,15.2-36.4c-0.4-2.1-1.7-3.8-2.8-5.6c-1.5-2.7-4.8-4-7.9-4.6c-3.1-0.6-6.3-0.6-9.2-2
	c-2-0.9-3.7-2.4-5.7-3.2c-1.8-0.6-3.7-0.7-5.6-0.9c-2.5-0.3-4.9-1-7.2-2.1C77.2,56.8,73,52.2,69,47.7c-6.2-6.9-12.5-13.9-17.2-22
	c-2.4-4-4.3-8.3-5.7-12.8c-0.6-1.9-1-3.8-1.6-5.6c-1.5-4.7-3.9-9.1-7-13"/>
<path fill="none" stroke="#E1E1E1" stroke-miterlimit="10" d="M77.8,383.6c2.1-1.2,4.2-2.4,6.5-2.7c2.5-0.3,5.9-0.1,6.7-2.5
	c0.3-0.8,0.2-1.9,0.9-2.4c0.5-0.3,1.1-0.3,1.7-0.4c1.4-0.2,2.4-1.6,2.6-3.1c0.2-1.4-0.3-2.8-1-4.1c-2.1-4.1-5.8-7.3-7.7-11.6
	c-1.2-2.6-1.6-5.5-2-8.4c-0.5-4-1.1-8.1-1.6-12.1c-0.5-4-1.1-8.3,0.4-12.1c0.8-2,1.5-4,2.8-5.7c1.1-1.4,2-3.6,1.9-5.4
	s-0.7-3.6-1.3-5.3c-1.8-6-2.4-12.2-2.9-18.4c-0.1-1-0.2-2-0.1-3c0.1-1.2,0.5-2.4,0.7-3.7c0.6-3.3-0.2-6.7-1.2-9.9
	c-2-6.2-5.1-12.5-4.3-19c0.4-3.5,1.9-7,1.3-10.4c-0.3-1.4-0.8-2.6-1-4c-0.5-3.8,2.2-7.4,2.6-11.2c0.2-1.7,0-3.4,0.6-5
	c0.8-1.9,3.7-4.3,2.1-5.6c-4.6-3.9-10,2.3-14.9-8.4c-0.9-2-0.9-4.2-1.4-6.3c-1.1-3.7-3.7-6.8-5.1-10.5c-1.3-3.6-1.2-7.6-1.1-11.5
	c0.2-5.8-3.1-13.6,0.9-17.8c0.9-0.9,1.9-1.6,2.8-2.5c3.7-3.9,2.5-10.4,5-15.1c1.2-2.3,3.3-4.1,4.4-6.5c1.2-2.6,1.2-5.5,1.4-8.3
	c0.6-8.1,3.2-16.1,7.6-22.9c2-3.1,4.3-5.9,5.7-9.3c1.4-3.4,1.7-7.5-0.4-10.5c-1.9-2.8-5.4-3.9-8.6-5c-8.4-2.8-17.1-6.5-21.9-14
	c-1-1.6-1.8-3.4-3.2-4.7c-1.3-1.3-3.4-2.2-5.1-1.5c-1.6,0.7-2.5,2.4-4.1,3c-1.7,0.7-3.8-0.2-4.9-1.7c-1.2-1.4-1.7-3.3-2.2-5.1
	c-2-7.3-4-14.6-6.1-21.9c-0.5-1.9-1.1-3.9-2.2-5.5c-1.4-2-3.5-3.4-4.8-5.4c-1.5-2.3-1.9-5.1-2.3-7.9c-1-7.8-2-15.6-3-23.4"/>
<path fill="none" stroke="#E1E1E1" stroke-miterlimit="10" d="M32.9,383.1c4.8-2.9,9.2-6.5,13-10.6c0.5-0.6,1.1-1.2,1.8-1.5
	c0.5-0.3,1.1-0.4,1.7-0.6c2.5-0.6,4.9-1.1,7.4-1.7c1.6-0.4,3.3-0.8,4.6-1.8c1.3-1,2.2-2.8,1.6-4.3c-0.5-1.3-1.8-2.1-3-2.7
	c-2.4-1.3-4.8-2.6-7.1-3.9c-0.6-0.3-1.2-0.7-1.4-1.3c-0.3-0.6-0.1-1.3,0-1.9c0.7-3.4,2.2-6.3,1.6-9.8c-0.5-2.8-1.6-10-0.7-12.7
	c2.6-7.9,9.1-11.9,11.8-18.7c2.3-5.7,0.6-12.2,2.3-18.1c1.7-5.8,4.6-12,2.2-17.6c-0.5-1.2-1.3-2.4-1.9-3.6c-0.6-1.5-0.9-3.1-1-4.6
	c-0.7-6.6,0.1-13.4,1.8-19.8c0.8-3,0-5.8-0.8-8.8c-0.9-3.1,3.8-7.1,1.6-9.4c-2.1-2.2-6.4,2.2-9.1,0.9c-1.9-0.9-1.7-4-1.9-6.1
	c-0.2-1.9,0.2-3.9,0-5.8c-0.1-1.6-0.6-3.2-1.1-4.7c-1.6-5.4-2.7-11-3.4-16.6c0-0.4-0.1-0.8-0.3-1.1c-0.3-0.3-0.7-0.5-1.1-0.7
	c-2.6-1-5.1-1.9-7.7-2.9c-3.5-1.3-8.6-8.5-5.7-10.9c1.3-1.1,3.9,2.1,5,0.8c2.9-3.3-1-8.8,1-12.7c2.7-5.3,8.3-9.9,7.3-15.8
	c-0.2-1.1-0.6-2.1-0.7-3.2c-0.2-3.3,2.6-5.8,4.4-8.5c4.2-6.2,3.7-14.4,2.3-21.8c-0.7-3.4-1.4-7.1,0.3-10.1c0.4-0.7,0.9-1.4,0.8-2.2
	c-0.1-0.7-0.6-1.3-1.1-1.8c-3-3-6.4-5.6-10.1-7.7c-1.5-0.8-3.1-1.7-3.6-3.4c-0.4-1.2,0-2.8-1-3.7c-1-0.9-2.5-0.4-3.7-0.1
	c-4.6,0.9-9.2-2.3-11.5-6.4s-2.9-8.8-3.8-13.4c-0.8-4.6-2.1-9.4-5.2-12.8c-1.6-1.8-3.8-3.1-4.9-5.3c-1.5-2.7-1.1-5.9-0.9-9
	c0.4-5.1,0.1-10.2-0.7-15.2c-0.2-1.3-0.8-2.9-2.1-3c-2.5-0.3-2.2,4.2-4.4,5.5c-1.2,0.7-3,0.3-3.7,1.5c-0.5,0.8-0.2,1.8-0.1,2.7
	c0.1,2.9-3,4.8-4.3,7.4c-0.8,1.5-1,3.3-1.6,4.9c-2,4.7-7.5,6.6-12.4,7.9"/>
<path fill="none" stroke="#E1E1E1" stroke-miterlimit="10" d="M-4.2,382.5c0.6-0.4,1.2-0.8,1.6-1.4c0.5-0.7,0.9-1.5,1.4-2.2
	c1.4-1.7,3.8-2.1,5.4-3.6c1.3-1.2,2-2.9,2.6-4.5c2.3-5.6,5.4-10.8,9-15.7c0.5-0.7,1.1-1.4,2-1.7c1.9-0.6,3.9,1.5,5.7,0.7
	c1.3-0.6,1.5-2.6,0.6-3.8s-1.8-2.4-3.2-2.9c-0.4-0.1-0.8-0.2-1.1-0.6c-0.3-0.3-0.4-0.8-0.4-1.2c-0.4-4.5,3.7-7.4,4.3-11.8
	c0.2-1.6-0.1-3.2,0.2-4.8c0.7-4.2,4.9-7.2,5.7-11.4c2.2-11.7,8.5-22.3,13.7-33c4.8-9.8,15.2-27.3,5-31c-1.6-0.6-3.2,2.9-4.7,2.1
	c-12-6.8-3.3-27.5-5-41.3c-0.2-1.8-0.5-3.7-1.3-5.4c-1.8-3.5-5.9-5.3-7.9-8.7c-2.5-4.4-1-10.7-4.6-14.3c-2.1-2.1-5.6-2.9-6.9-5.6
	c-1.7-3.6,1.8-7.3,3.8-10.8c7-11.8-3-27.2,0-40.6c1.3-5.6,4.7-11.9,1.2-16.5c-1.7-2.2-4.5-3.2-7.1-4c-5.5-1.7-14,0-16.5-5.2
	c-1.1-2.2,0.7-7.6-1.6-6.7c-4.8,2-6.8,9-11.4,6.6"/>
<path fill="none" stroke="#E1E1E1" stroke-miterlimit="10" d="M-15.6,218.5c-0.1-0.3-0.6-0.7-0.4-0.9c2.7-3.1,7.6,3,10.7,5.6
	c1.4,1.1,3.2,2.5,4.7,1.5c1.3-0.9,1-3,0-4.2s-2.5-2-3.4-3.3s-1.3-3.3,0-4.2c0.7-0.5,1.7-0.4,2.6-0.5c2.1-0.1,3.9-1.9,6-2
	c1.9-0.1,2.4,2.9,2.4,4.8c0,1.9-0.6,3.7-1.1,5.5c-0.9,2.7-1.8,5.5-2.7,8.2c-0.1,0.4-0.2,0.8-0.1,1.1c0.2,1,1.5,1.1,2.5,1.1
	c4.4,0,8.7,2.5,11,6.2s2.5,8.7,0.5,12.6c-1.3,2.6-3.5,4.8-4.7,7.5c-0.2,0.6-0.4,1.2-0.9,1.6c-0.9,0.9-2.4,0.7-3.7,0.7
	c-3.1-0.1-6.2,1.2-8.3,3.4c-0.6,0.6-1.2,1.4-1.1,2.3c0.1,2,3,2.4,4.8,1.7s4.8-2.5,5.7-0.7c1.1,2.2-0.5,4.9-0.7,7.4
	c-0.1,0.7-0.1,1.4-0.5,1.9c-0.4,0.6-1.1,0.9-1.8,1.2c-2.7,1.2-5.5,3-6.2,5.8c-0.3,1.1-0.2,2.3-0.4,3.5c-0.6,4.7-5,8.4-5.3,13.2
	c-0.2,2.9,1.3,5.8,1.1,8.7c-0.1,2-0.9,3.8-1.1,5.8c-0.2,2.7,0.9,5.3,0.7,8c-0.4,3.7-3.4,6.6-6.2,9c-1.9,1.7-3.8,3.3-5.6,5"/>
<path fill="none" stroke="#E1E1E1" stroke-miterlimit="10" d="M32,77.2c-0.9,0.3-0.8,1.6-0.6,2.5c0.3,1.2,0.1,2.6,0.9,3.6
	c0.6,0.8,2.1-0.4,2.3-1.4c0.2-1-0.2-2.1-0.6-3C33.6,77.9,32.9,76.9,32,77.2z"/>
<path fill="none" stroke="#E1E1E1" stroke-miterlimit="10" d="M195,382.9c-0.5-1.6-0.9-3.1-1.4-4.7c-0.4-1.5-0.8-3.1-0.4-4.6
	c0.2-0.8,0.6-1.7,0.4-2.5c-0.3-0.8-1.1-1.2-1.5-1.9c-1.4-2.2,1.6-5.4,0.2-7.6c-0.6-1-1.8-1.4-2.7-2.2c-1.9-1.9-1.1-5.1-1.6-7.8
	c-0.3-1.9-1.4-3.7-2.4-5.4c-1.6-2.9-2.8-6.1-3.6-9.3c-0.2-0.8-0.4-1.6-0.8-2.4c-0.7-1.3-2.1-2.1-2.9-3.4c-1.4-2.2-0.9-5.4-2.8-7.1
	c-0.5-0.4-1.1-0.8-1.5-1.2c-0.6-0.7-0.8-1.6-1-2.5c-1-4.3-4-8.3-5.1-12.6c-0.8-3.2-0.3-6.5,0.3-9.7c2.8-15,7.5-29.6,13.8-43.5
	c1.1-2.4,2.3-4.9,4.3-6.7c1.1-1,2.4-1.8,3.3-2.9c0.9-1.1,1.5-2.4,2.1-3.7c5.4-11.6,13.8-21.8,24.1-29.4c3.7-2.7,7.7-5.2,10.6-8.7
	c4.8-5.9,5.9-13.9,6.9-21.4c0.3-2.7,0.7-5.4,1-8.1c0.3-2.1,1.3-4,0.9-6c-0.2-1-0.7-2.1-1.7-2.5c-4.9-2.1-7.9-5-9-8.9
	c-0.4-1.3-1.9-1.9-3.1-2.4c-1.9-0.9-4.2-0.6-6.3-0.5c-5.3,0.2-10.5-0.6-15.7-1.4c-2.4-0.4-4.8-0.7-7.1-1.4
	c-6.8-1.8-13-5.6-17.6-10.8c-2.5-2.8-4.6-6.1-5.5-9.8c-0.8-3.6-0.4-7.6,1.8-10.6c2.1-2.9,5.5-4.6,8.8-6.1c7.1-3.3,14.2-6.6,21.3-10
	c4.3-2,8.7-4,13.4-4.7c5.5-0.9,13.4-1.7,15.9,1.8c3.8,5.3-3.8,12.2-5.2,18.6c-2.3,10.1,0.7,21.2,7.8,28.7c0.4,0.4,0.9,0.9,1.4,0.9
	c0.7,0,1.2-0.7,1.7-1.3c2.2-3.3,5-6.6,8.9-7.2c5.7-0.9,10.1,4.4,15.2,7.2c3.1,1.7,6.6,2.4,9.8,3.8c3.2,1.4,3.9,6.4,7.4,7
	c1.9,0.3,2.5-4.4,4.4-3.9c3.4,1,6.1,3.2,9.1,5.2c3.5,2.4,4.3,7.2,4.7,11.4c0.3,3.2,0.6,6.5-0.2,9.6c-0.7,2.9-2.3,5.4-3.2,8.3
	c-0.9,2.8-0.9,6.3,1.2,8.4c0.5,0.5,1.2,1,1.9,1.1c0.8,0.1,1.5-0.2,2.3-0.3c4.6-1.2,8.9,1.6,13.4,3.3c0.5,0.2,1.6-0.3,2.1-0.1
	c2.2,1.2,2.5,4.4,3.8,6.5c0.6,1,1.6,1,2.8,1.1c2.1,0.2,1.9,4.2,4,4.3c4.1,0.1,4.5-7.9,8.5-7.7c1.1,0.1,2.2,0.8,3.2,0.4
	c0.7-0.3,1.1-1.1,1.6-1.7c1.2-1.7,3.4-2.7,5.5-2.4c1,0.1,1.9,0.4,2.9,0.2c0.9-0.2,1-1.2,1.2-2.1c0.5-1.6,3.5,0.5,5-0.3
	c1.3-0.7,1.9-2.2,3.3-2.5c1.4-0.2,2.9,0,4.3,0.1c4.5,0.4,9.1-0.5,13.1-2.5"/>
<path fill="none" stroke="#E1E1E1" stroke-miterlimit="10" d="M199.9,136.7c1.1-0.3,2.2-0.8,3.3-0.5c0.7,0.2,1.3,0.6,2,0.8
	c1.9,0.5,3.7-0.9,5.7-0.9c1.7,0,3.5,1,5,0.1c1.4-0.8,1.4-2.9,0.8-4.4s-1.4-3-1.3-4.6c0.3-2.6,3.2-4.9,2.2-7.3
	c-0.2-0.6-0.7-1-0.9-1.6c-0.3-1,0.2-2.1,0.7-3.1c1.2-2.4,1.6-5.9-0.7-7.4c-0.2-0.1-0.5-0.3-0.8-0.3c-0.7,0-1.1,0.9-1.3,1.6
	c-1.3,3-5,4.1-8.2,4.8c-5,1.2-10,2.4-14.9,3.9c-3.8,1.1-8,2.7-9.6,6.3c-0.2,0.5-0.4,1-0.2,1.6c0.2,0.8,0.9,1.2,1.4,1.8
	c0.6,0.6,1,1.5,1.2,2.3c0.1,0.6,0.2,1.2,0.4,1.7c0.2,0.4,0.5,0.8,0.8,1.1C189.1,136.6,194.9,138.2,199.9,136.7z"/>
<path fill="none" stroke="#E1E1E1" stroke-miterlimit="10" d="M203.2,122.3c1.1,1.1,3,1.2,4.2,0.3c1.3-0.9,2.2-3,1.1-4.1
	c-1.2-1.2-3.3,0.3-4.7,1.2c-0.6,0.4-1.3,1-1.2,1.7C202.7,121.8,202.9,122.1,203.2,122.3z"/>
<path fill="none" stroke="#E1E1E1" stroke-miterlimit="10" d="M358.2-2c0.3-0.2,0-0.7-0.3-0.7s-0.6,0.3-0.8,0.6
	c-1.8,2.5-3.5,5-5.3,7.6c-0.6,0.9-1.2,1.7-1.9,2.5c-0.8,0.8-1.8,1.5-2.8,2.2c-6.4,4.6-11,11.1-15.5,17.5c-1.5,2.2-3,4.3-4.6,6.5
	c-1.2,1.7-2.5,3.5-3.3,5.4c-1.1,2.4-1.6,5.1-3.2,7.2c-1.5,2-4,3.3-4.9,5.6c-0.4,0.9-0.5,1.9-0.7,2.9c-0.7,3.4-2.4,6.7-4.8,9.2
	c-0.5,0.6-1.1,1.1-1.5,1.8c-0.3,0.6-0.3,1.2-0.4,1.9c-1,5.3-5.8,9.2-7.3,14.4c-0.3,1.1-0.3,2.7,0.7,3.2c0.8,0.4,1.7-0.1,2.5-0.6
	c4-2.5,7.5-5.9,10.1-9.9c2.3-3.5,4.4-7.9,8.4-9.1c0.8-0.2,1.6-0.3,2.3,0.1c0.5,0.3,0.8,0.7,1.1,1.2c1.8,2.8,3.1,6,3.9,9.2
	c0.6,2.4,1.2,5.2,3.6,5.9c0.4,0.1,0.9,0.2,1.3,0.1c2.7-0.4,3.9-4,6.5-4.8c0.9-0.3,1.9-0.2,2.8-0.6c1.4-0.6,2.2-2.2,3.6-2.7
	c0.8-0.3,1.6-0.2,2.4-0.4c1-0.3,1.9-1,2.7-1.7c1.7-1.5,3.3-3,5-4.5c0.6-0.5,1.2-1.1,1.6-1.8c0.5-1,0.5-2.1,0.8-3.1
	c0.7-2,2.6-3.4,4.4-4.5c3.9-2.4,8-4.5,12.2-6.3"/>
<path fill="none" stroke="#E1E1E1" stroke-miterlimit="10" d="M57.8-3.2c0,10.3,6,19.6,11.8,28.2c3.2,4.7,6.4,9.4,9.6,14.1
	c1.7,2.5,3.6,5.2,6.5,6.1c1.9,0.6,3.9,0.3,5.9,0.4c1.4,0.1,2.8,0.3,4.2,0.6c1.7,0.3,3.4,0.6,5.1,1c5.9,1.1,11.7,2.2,17.6,3.3
	c4.1,0.8,8.2,1.5,12.3,2.3c5.3,1,10.5,2,15.8,3c1.8,0.3,3.9,0.9,4.5,2.6c0.3,0.9,1.3,2.6,1.7,1.7c0.8-1.9,1.6-4.1,3.6-4.6
	c0.7-0.2,1.5-0.1,2.1-0.5c0.7-0.4,1.1-1.1,1.6-1.7c1.6-1.8,4.4-1.8,6.8-2c7.3-0.4,13.4-5,20.3-7.1c3.5-1.1,7-1,10.6-1.8
	c7.9-1.8,15.5-4.8,23.5-6.5c8-1.7,16.6-1.8,23.9,1.8c2.3,1.2,4.5,2.8,7.1,3.4c1.5,0.4,3,0.4,4.5,0.9c2.5,0.9,4.4,3,6.2,5
	c4.5,5,10.5,9.9,17.3,9.1c5-0.6,6.3-6.6,10.2-9.8c2.9-2.3,7.5,0.4,11.2,0.6c1.5,0.1,3.1,0.1,4.6-0.5c1.6-0.7,2.8-2.1,3.9-3.6
	c5.4-7.1,10.7-14.3,15.7-21.7c0.6-0.8,1.1-1.7,2-2.2c0.5-0.3,1.1-0.5,1.6-0.8c2-1.2,0.8-4.4,2.1-6.4c1.1-1.6,2.6-2.6,3.7-4.2
	c3.5-4.8,9.4-7.5,12.2-12.7"/>
<path fill="none" stroke="#E1E1E1" stroke-miterlimit="10" d="M69.1-3.9c3,11.3,6.4,23.4,15.2,31.2c8.9,8,21.7,9.9,33.7,9.7
	c7.3-0.2,14.6-1,21.8-1.9c16.5-1.9,33.2-3.9,48.4-10.6c2.8-1.2,5.5-2.6,8.4-3.5c4.8-1.4,9.9-1.4,14.8-2.3c3.1-0.6,6.1-1.5,9.2-1.6
	c4.2-0.2,8.3,1.2,12.4,1.1c4-0.1,7.9-1.5,11.8-2.4c9.8-2.2,20.4-0.6,29.2,4.3c1.7,1,3.4,2,5.3,2.6c1.8,0.6,3.7,0.7,5.6,1.2
	c1.4,0.3,2.7,0.9,4,1.3c4.9,1.4,10.1,0.8,15.2,0.2c2.8-0.4,5.8-0.7,8.3-2.1c3.3-1.7,5.6-4.7,7.8-7.7c5.3-7,10.5-14,15.8-20.9"/>
<path fill="none" stroke="#E1E1E1" stroke-miterlimit="10" d="M82.4-6c-0.1-0.4-0.7,0.2-0.6,0.6c0.3,3.6,0.6,7.2,0.9,10.7
	c0.1,1.2,0.2,2.4,0.5,3.5c0.3,1.1,0.8,2,1.3,3c1,1.9,2,3.9,3,5.8c0.9,1.6,1.8,3.4,3.4,4.3c1.8,1,3.9,0.9,5.9,0.7
	c9-0.6,18.1-0.3,27.1,1c1.7,0.2,3.3,0.5,5,0.4c2.9-0.2,5.6-1.3,8.3-2.1c4-1.1,8.2-1.3,12.4-1.7c12.6-1.4,25-5.2,36.2-11.2
	c0.9-0.5,1.7-1,2.7-1.2c0.9-0.3,1.9-0.3,2.9-0.3c2,0,4-0.1,5.9-0.5c5.2-1.1,9.4-4.7,13.3-8.2"/>
<path fill="none" stroke="#E1E1E1" stroke-miterlimit="10" d="M92.5-4.4c-0.4-0.4-0.9,0.4-1,1c-0.2,2.7-0.3,5.7,0.9,8.1
	c0.7,1.4,1.8,2.5,2.9,3.6c1.2,1.3,2.5,2.5,3.7,3.8c0.6,0.7,1.4,1.4,2.3,1.4c1,0.1,1.9-0.6,2.8-1.1c4.5-2.6,10.2-1,15.3-0.4
	c5.3,0.6,10.7,0.2,15.8-1.3c2.4-0.7,5-1.5,7.1-0.2c1.7,1.1,3.9,4.1,5,2.5c1.2-1.6,2.1-3.4,4-4.2c1.9-0.7,3.9-0.9,5.9-1.2
	c8-1.2,15.5-5.3,20.8-11.3"/>
<path fill="none" stroke="#D6D6D6" stroke-miterlimit="10" d="M-8.9,339.9c3.4,3.3,9.4,1.8,13.3,4.5c1.4,1,2.4,2.6,3.9,3.4
	c2.2,1.2,5,0.1,7.4,0.5c1.9,0.3,4.6,1,6.7,2.4c0.4,0.3,0.4,0.9,0.8,1.2c0.7,0.5,1.7,0,2.5,0.2c1.4,0.3,1.7,2.1,2.2,3.5
	c0.7,2,2.4,3.4,4,4.7c0.7,0.6,1.5,1.3,2.5,1.4c0.8,0.1,1.6-0.1,2.3-0.3c3.1-0.7,6.3-0.7,9.4,0c3,0.7,6,2,9.1,2.1
	c2.3,0.1,4.5-0.5,6.8-0.6c2.3-0.1,4.8,0.4,6.3,2.1c0.6,0.7,1,1.5,1.7,2c1.9,1.5,4.2,1.7,6.4,2.6c1.5,0.6,3.8-2,4.9-0.7
	c0.9,1,1.8,1.9,3.1,1.6c1.3-0.3,2.5-1.1,3.9-0.9c0.7,0.1,1.3,0.5,1.9,0.9c5.2,3.4,8.6,10,14.6,11.4c1.1,0.2,1.7-1.4,2.4-0.5
	c0.4,0.4,0.7,1,1,1.4"/>
<path fill="#7BBCEB" stroke="#4E9BD7" stroke-miterlimit="10" d="M184.8,184.1c-0.5,0-0.9,0.3-1.3,0.4c-1.3,0.3-2.3-1.3-3.6-1.4
	c-1-0.1-1.9,0.8-2.8,0.3c-0.4-0.2-0.6-0.6-1-0.8c-0.7-0.5-1.7-0.4-2.6-0.2c-0.8,0.2-1.8,0.5-2,1.3c-0.2,0.7,0.3,1.5,0.6,2.2
	c0.3,0.7,0.4,1.5,0.5,2.3c0.3,2.6,1.2,5.2,1.4,7.8c0.1,0.9,0.2,1.9,0.9,2.5c0.6,0.5,1.5,0.6,2.4,0.6c3.2,0.1,5.3,0.5,8-1.4
	c0.2-0.2,1.2-0.7,1.3-0.9c0.1-0.5-0.3-1-0.2-1.5c0.1-0.7,0.9-0.9,1.4-1.3c1.1-0.7,1.4-2.4,0.6-3.5c-0.2-0.2-0.3-0.4-0.4-0.7
	c-0.1-0.4,0-0.8,0.1-1.2c0.2-1.6-1.1-2.9-2.3-4C185.4,184.4,185.1,184.2,184.8,184.1z"/>
<path fill="none" stroke="#D6D6D6" stroke-miterlimit="10" d="M-11.3,247.6c2.6-1.8,4.6-4.3,5.8-7.2c0.9-2.4,1.2-5.1,2.5-7.4
	c1.2-2.1,3.1-3.7,4.6-5.7s2.7-4.5,1.9-6.8c-0.3-1-1-1.9-0.8-3c0.1-0.7,0.7-1.3,1.1-2c0.9-1.5,0.7-3.4,0.5-5.1
	c-0.9-7.6-1.9-15.2-2.8-22.9c-0.2-1.6-0.4-3.3,0-4.9c0.3-1.3,1.1-2.5,1.6-3.7c0.6-1.7,0.8-3.5,1-5.2c0.7-6.2,1-13.4-3.5-17.7
	c-0.6-0.6-1.4-1.2-1.7-2c-0.2-0.6-0.2-1.2-0.2-1.8c-0.3-2.6-2.8-4.4-3.5-6.9c-0.4-1.4-0.2-3-0.5-4.5c-0.2-1.1-0.8-2.2-1.3-3.2
	c-1.9-3.8-3.8-7.5-5.7-11.3"/>
<path fill="none" stroke="#D6D6D6" stroke-miterlimit="10" d="M-12.7,86.1c1.4,0.1,2.8,0.2,4.2,0.3c0.7,0.1,1.5,0.1,2.2-0.2
	c1.3-0.5,1.9-2,2.1-3.3c0.2-1.4,0.1-2.8,0.5-4.1c1.4-4.4,7.5-5.4,9.9-9.4c1.2-1.9,1.3-4.2,1.4-6.5c0.1-2.8,0.3-5.5,0.4-8.3
	c0.1-2.5,0.2-5-0.3-7.4c-0.3-1.6-0.9-3.3-0.9-4.9c0-2.8,1.6-5.2,2.4-7.9c0.5-1.7,0.7-3.5,0.9-5.3c0.3-2.8,0.5-5.5,0.8-8.3
	c0.3-2.6,0.5-5.3,0.4-7.9c0-0.9-0.1-1.9-0.1-2.8c0.1-1.2,0.4-2.3,0.7-3.5c0.6-2.9,0.4-6-0.5-8.9"/>
<path fill="none" stroke="#4E9BD7" stroke-miterlimit="10" d="M-11.2,247.9c2.9-2.7,7.2-3.9,11-2.8c2.4,0.6,5,2,7.1,0.8
	c0.7-0.4,1.2-1,1.9-1.5c2.4-1.5,5.6-0.3,7.8,1.5c2.2,1.8,4.1,4.1,6.8,5c2.2,0.7,4.7,0.4,6.8,1.5c3.9,2,4.8,8.1,9.1,9.3
	c3.3,0.9,6.5-1.8,8.2-4.8c1.7-3,2.5-6.5,4.7-9.1c2.1-2.5,5.3-3.8,7.4-6.3c2-2.3,4-5,4.7-8c0.7-3.1,3.9-4.8,7.2-6.2
	c1.2-0.5,2.5,0,3.4-0.9c2.4-2.4,4.5-6.1,8.6-6.8c1.5-0.3,2.8-1.4,3.9-2.5c1.7-1.7,2.5-4.2,4.4-5.8c1.9-1.6,4.5-1.8,6.9-2.2
	c6.1-1.1,11.9-3.7,17.6-6.3c1.9-0.9,3.2-2.6,4.9-3.8c1-0.7,2.8,0,3.4-1.1c0.6-1,1-3.6,2-4.3c5.1-3.8,7.1,0.4,13.8-5.2
	c0.8-0.7,10-1.9,12.6-2.1c0.9-0.1,2.3-1,3.2-1.3c2.4-0.9,8.5-5.2,10.3-4.2c0.6,0.4,0.1,1.6,0.6,2.1c0.9,1,2.6,0.2,3.9,0.8"/>
<path fill="none" stroke="#D6D6D6" stroke-miterlimit="10" d="M3.1,160.3c0.6-4.1-0.9-8.2-1.3-12.3c-0.3-3.4,0.3-6.9,1.4-10.1
	c1.1-3.1,2.6-6,4.1-8.9c1.4-2.7,2.8-5.4,4.2-8c0.8-1.5,1.8-3.2,3.5-3.4c0.8-0.1,1.6,0.1,2.4,0.4c2.8,0.9,5.6,1.8,8.4,2.7
	c1.5,0.5,3.2,1.1,4,2.5c0.8,1.3,1.2,3.4,2.7,3.2c0.4-0.1,0.8-0.4,1.1-0.7c2.3-2.1,3.2-5.2,4.7-8c0.5-1,2,0,3.1,0.2
	c1,0.1,2-0.4,2.9-1c3.8-2.4,7.5-4.8,11.3-7.1c2.9-1.8,5.8-3.7,9.1-4.4c1.1-0.3,2.3-0.4,3.4-0.9c0.9-0.4,1.7-1.2,2.6-1.8
	c2.8-2,6.5-2.9,9.9-2.5c0.7,0.1,1.6,0.2,2.1-0.3c0.6-0.6,1.5-2.3,1.5-3.1c0-2.3,1.2-3.2,3.4-3.7c2.2-0.5,4.6-0.4,6.6-1.4
	c2.3-1.1,3.8-3.3,5.9-4.7c1.7-1.1,3.7-1.6,5.6-2c3.5-0.8,7.1-1.7,10.6-2.5"/>
<path fill="#EAEAEA" stroke="#D6D6D6" stroke-miterlimit="10" d="M224.9,41.1c-1.6,0.5-3.4-0.2-5.1-0.1c-1.6,0.1-3,0.9-4.4,1.6
	c-4.5,2.3-9.4,3.7-14.4,4.2c-2.5,0.3-5.1,0.3-7.5,0.8c-2.2,0.4-4.3,1.2-6.5,1.9c-2.5,0.9-4.6,2.3-7.1,3.2c-3.4,1.2-7.1,1.8-10.2,3.6
	c-2.7,1.7-5.1,3.8-7.5,5.9c-1.4,1.3-2.9,2.6-4.3,3.9c-0.6,0.6-1.3,1.1-1.7,1.8c-1.2,2-0.7,4.5-0.2,6.8c0.6,2.7,1.5,5.7,3.9,7.1
	c0.8,0.5,1.7,0.7,2.6,0.9c1.1,0.3,2.3,0.6,3.4,0.9c1.1,0.3,2.3,0.6,3.3,0.1s0.9-1.4,1.3-2.4c0.6-1.4,1.6-0.1,3.6-2.9
	c1.2-1.7,4.9-1.7,6.9-1.8c8.1-0.4,15.6-4.2,23.2-6.9c8.8-3.2,18.1-4.9,27.4-6.4c0.5-0.1,1-0.1,1.4,0.1c0.4,0.3,0.6,0.9,0.6,1.4
	c0.3,2.1-0.7,4.6,0.5,6.3c2.4,3.5,8.3,0.4,12.3-0.8c2-0.6,4.7-1.2,6.4-2.5c2-1.6,2.6-3.9,3.8-6.2c0.7-1.3,1.4-2.7,1.4-4.3
	c0-2.2-1.4-4.1-3.1-5.5c-1.7-1.4-3.7-3.6-5.4-4.8c-2.3-1.6-4.2-2.3-6.5-3.8c-3.2-2-6.9-2.8-10.6-3.6c-1.6-0.3-3.3-0.7-4.8-0.1
	C226.6,40.2,225.8,40.8,224.9,41.1z"/>
<path fill="none" stroke="#D6D6D6" stroke-miterlimit="10" d="M277.5,110.6c3.4-0.7,6.8-1.5,10.1-2.6c3.7-1.2,7.9-3.3,8.2-7.2
	c0.2-2.6-1.6-5.3-0.4-7.6c1-2.1,4.2-2.9,4.7-5.3c0.2-0.7,0-1.6,0.3-2.3c0.6-1.3,2.5-1.6,2.8-3c0.2-0.7-0.1-1.4,0.2-2
	c0.6-1.4,2.8-0.6,4.2-1.3c1.5-0.8,1.3-3.2,2.7-4.3c0.5-0.4,1.3-0.6,1.8-1.1c1.3-1.4-0.2-3.6,0-5.5c0.1-1.4,1.3-2.5,2.3-3.5
	c2.6-2.4,5.4-4.8,8.9-5.5c1-0.2,2.3-0.4,2.6-1.4c0.2-0.6-0.1-1.3,0.2-1.9c0.5-0.9,1.8-0.7,2.5-1.4c0.9-0.9,0-2.4,0.5-3.6
	c0.2-0.6,0.8-1,1.3-1.5c1.8-1.8,2.5-4.4,3.5-6.7c1-2.3,2.7-4.7,5.2-5c1.5-0.2,3,0.5,4.4,1.2c2.1,1,4.2,2,6.3,3c2.4,1.2,4.4,3.3,7,3
	c2.8-0.4,5.8-3.4,7.6-5.7c1.8-2.2,3.3-4.7,5.6-6.6"/>
<path fill="none" stroke="#D6D6D6" stroke-miterlimit="10" d="M309.6,221.2c-0.5-1.6,1.2-3.2,1.1-5c-0.1-1.1-0.4-2.3-0.1-3.3
	c0.8-3.1,5.3-3.4,7.3-5.9c1.1-1.4,1.3-3.3,1-5.1s-0.9-3.4-1.3-5.2c-0.5-2-0.6-4.1-0.6-6.1c-0.1-4.1,0.4-8.3,2.2-12
	c1.5-3.1,4-5.8,4.7-9.1c0.2-0.9,0.2-1.9,0.5-2.8c0.8-2.4,3.1-3.9,4.9-5.6c1.9-1.7,3.5-4.3,2.6-6.6"/>
<path fill="none" stroke="#D6D6D6" stroke-miterlimit="10" d="M257.8,58c1.8,0,3.7,0.9,4.9,2.2c0.5,0.5,0.9,1.2,1.6,1.5
	c0.8,0.3,1.7,0.1,2.5,0.3c1.4,0.4,2,2.1,2.2,3.5c0.2,1.5,0.1,3,1,4.2c0.7,0.9,1.8,1.4,2.9,2c2.8,1.6,4.8,4.2,6.8,6.7
	c1.1,1.4,2.1,2.8,3.2,4.2c1,1.3,2,2.6,2.7,4.2c0.7,1.6,0.9,3.3,1.5,4.9c0.6,1.6,1.5,3.4,3.2,3.8c1.3,0.3,2.8,0.8,4.8,0.9"/>
<path fill="none" stroke="#D6D6D6" stroke-miterlimit="10" d="M295.8,92.4c0.7,2.6,1.7,6,2.9,8.4c1.6,3.3,3.7,6.5,4.2,10.2
	c0.1,0.8,0.2,1.6,0.6,2.3c0.4,0.8,1.2,1.2,1.9,1.8c4.6,3.4,6.3,9.9,11.1,13.1c0.7,0.4,1.3,0.8,2,1.3c1,0.7,1.8,1.5,2.7,2.4
	c0.5,0.5,1,1,1.5,1.5c0.3,0.3,0.5,0.6,0.8,0.9c0.3,0.5,0.4,1,0.5,1.5c1.1,4.2,2.1,8.3,3.2,12.5c0.3,1,0.5,2,1.2,2.8
	c1,1.2,2.1,2.5,3.4,3.4c2.4,1.6,5.3,2.1,8,3.2c3.4,1.3,6.4,3.5,9,6c0.5,0.5,0.9,0.9,1.6,1.2c0.8,0.3,1.8,0.1,2.6-0.1
	c3.6-0.7,7.5,0.3,10.3,2.6c0.2,0.2,0.5,0.4,0.8,0.5c0.4,0.1,0.8-0.2,1.2-0.3c1.7-0.7,3.8,0.2,4.6,1.8"/>
<path fill="#EAEAEA" stroke="#D6D6D6" stroke-miterlimit="10" d="M316.1,85.9c0.7,0,1.4-0.3,1.9-0.9c0.2-0.2,0.3-0.5,0.3-0.8
	c-0.1-0.5-0.7-0.7-1.2-0.7c-0.5-0.1-1.1-0.2-1.5,0.2c-0.1,0.2-0.2,0.4-0.3,0.6c-0.1,0.5-0.2,1.1,0.2,1.4
	C315.6,85.9,315.8,85.9,316.1,85.9z"/>
<path fill="#EAEAEA" stroke="#D6D6D6" stroke-miterlimit="10" d="M360.1,20.7c-1.6,1.8-4.5,1.8-6.3,3.5c-1.9,1.8-1.5,5.5,0.7,6.9
	c1.2,0.8,2.7,0.9,4.1,1c3.6,0.3,7.3,0.6,10.9,0.9c0.5,0,1,0.1,1.4-0.2c0.6-0.4,0.8-1.2,0.9-2c0.8-7.3,0.7-14.8-0.5-22.1
	c-0.1-0.7-0.4-1.5-1-1.5c-0.3,0-0.6,0.2-0.9,0.3c-3.4,2.4-6.1,5.8-7.6,9.6C361.4,18.4,361,19.7,360.1,20.7z"/>
<g>
	<g>
		<path fill="none" stroke="#585858" stroke-miterlimit="10" d="M-1.2-1.8c-0.1,0.7-0.2,1.3-0.2,2"/>
		
			<line fill="none" stroke="#585858" stroke-miterlimit="10" stroke-dasharray="1.012737e-02,0" x1="-1.3" y1="1.2" x2="-1.3" y2="1.2"/>
		<path fill="none" stroke="#585858" stroke-miterlimit="10" stroke-dasharray="4.0509,1.0026,1.012737e-02,0" d="M-1.3,1.2
			c0.2,2.5,1.1,4.9,1.9,7.3C5.4,23.8,3.2,40.4-0.7,56c-0.8,3.3-1.8,6.7-1.8,10.1c0,4.2,1.4,8.2,2.3,12.3c0.9,4.1,1.1,8.6-0.9,12.2
			c-1.4,2.5-3.8,4.4-5.3,6.9c-2.8,4.5-2.2,10.2-1.6,15.5c0.6,5.3,1.3,10.7,2.8,15.8"/>
		<path fill="none" stroke="#585858" stroke-miterlimit="10" d="M-5.2,128.8c0.2,0.6,0.4,1.3,0.6,1.9"/>
	</g>
</g>
<g>
	<g>
		<path fill="none" stroke="#585858" stroke-miterlimit="10" d="M308.5,92c-0.1,0.7-0.1,1.4,0.1,2"/>
		
			<line fill="none" stroke="#585858" stroke-miterlimit="10" stroke-dasharray="9.941423e-03,0" x1="309.1" y1="94.8" x2="309.1" y2="94.8"/>
		<path fill="none" stroke="#585858" stroke-miterlimit="10" stroke-dasharray="3.9766,0.9842,9.941423e-03,0" d="M309.1,94.8
			c0.4,0.3,0.8,0.4,1.2,0.3c0.6-0.2,0.9-0.9,1.3-1.5c0.4-0.6,1.2-1,1.7-0.6c0.5,0.5,0.1,1.3,0.2,1.9c0.1,0.9,1.3,1.4,2.2,1.2
			c0.9-0.2,1.5-1.9,2.3-1.5c0.8,0.3-0.4,2.1,0.3,2.6c1,0.6,2.5-1.6,3.5-0.9c1.4,0.9-1.4,3.7-0.3,5c0.7,1,2.5,0.1,3.5,0.8
			s0.6,2,0.1,3.1c-0.6,1.3,3.1,0.7,3.4,2.1c0.2,0.6-0.3,1.2-0.8,1.4c-0.5,0.2-1.3-0.3-1.8,0.1c-0.4,0.3-0.3,1.1,0,1.4
			c0.6,0.7,1.8,0.3,2.7,0.5c0.3,0.1,0.6,0.1,0.8,0.3c0.6,0.6-0.1,1.6-0.7,2.2c-2,2-3,4.9-2.7,7.7c0.3,2.8,2.6,4.7,4.5,6.8
			c2.3,2.7,1.9,6.8,1.4,10.3c-0.6,4.2-2.6,8.6-1.1,12.6c0.5,1.5,2,2.9,3.5,2.4c0.8-0.3,1.4-1.1,2.2-1.5c1.2-0.5,2.5,0.3,3.2,1.3
			s2.2,2.4,2.8,3.5c1,1.8,2.2,2,3.8,3.2c0.6,0.5,2.5,2.4,3.2,2.4c1.4,0.1,2.7,0.3,4,0.6c0.5,0.1,0.9,0.3,1.3,0.6
			c0.7,0.7,0.6,1.8,0.8,2.8c0.3,1.7,1.7,3,2.9,4.2c0.6,0.6,1.3,1.1,1.9,1.7c1.6,1.7,0.2,4.7,1.7,6.5c0.4,0.5,1.3-0.4,1.8,0
			c0.9,0.7-0.4,2.3,0.1,3.3c1.2,2.3,4.3,2.8,7,3.6"/>
		<path fill="none" stroke="#585858" stroke-miterlimit="10" d="M370.9,185.6c0.7,0.2,1.3,0.4,1.9,0.7"/>
	</g>
</g>
<g>
	<g>
		<path fill="none" stroke="#585858" stroke-miterlimit="10" d="M-10.2,145c0.4-0.5,0.7-1.1,0.9-1.8"/>
		
			<line fill="none" stroke="#585858" stroke-miterlimit="10" stroke-dasharray="9.969230e-03,0" x1="-9" y1="142.3" x2="-9" y2="142.2"/>
		<path fill="none" stroke="#585858" stroke-miterlimit="10" stroke-dasharray="3.9877,0.987,9.969230e-03,0" d="M-9,142.2
			c0.3-1.5,0.3-3.2,0.6-4.8c0.8-3.5,3.4-6.3,6.1-8.7c4.1-3.7,8.4-7.1,13-10.2c1.3-0.9,2.7-1.8,4.3-2.1c2.2-0.4,4.3,0.4,6.5,0.6
			c2.3,0.2,4.7-0.2,7,0s3.9,4,6,3c0.6-0.3,1.4-6.9,7.6-9.1c4-1.5,8.3-2.4,11.5-5.2c4.1-3.5,4.3-7.9,8.2-11.5
			c7-6.3,19.5-2.8,27.5-7.8c4.5-2.8,7.8-9.6,12.7-11.7c3.5-1.5,7.5-1.2,11.3-0.8c3.4,0.3,6.8,0.6,10.1,1.4c1.3,0.3,2.8,0.7,4,0
			c0.9-0.5,1.4-1.5,2.2-2.2c2.1-1.9,5.5-1,8.3-1.3c4.5-0.5,7.9-4.1,11.3-7.1c5.1-4.4,11.2-7.8,17.6-9.8c4.6-1.4,8.5-3.3,13-4.9
			c12.7-4.6,25.6-8.4,38.7-11.4c4.1-0.9,8.3-1.8,12.6-2c2.5-0.1,5,0,7.4,0.6c2.4,0.6,4.6,1.7,6.8,2.7c1.7,0.8,3.5,1.7,5.2,2.5
			c3.7,1.8,7.3,3.5,10.7,5.8c3.8,2.6,7.1,5.8,9.8,9.5c1.6,2.2,3,4.6,3.4,7.2c0.2,1.4,0.3,2.8,0.7,4.1c1,2.8,4.3,3.7,6.2,5.9
			c3.8,4.2,4.8,10.3,7.8,15.1c1.4,2.3,3.1,4.7,5.6,5.5c2.2,0.7,4.6,0.1,6.8-0.6c3.7-1.1,7.8-2.5,9.8-5.8c1.3-2.1,1.6-4.7,3.1-6.5
			c1.2-1.5,2.9-2.3,4.4-3.5c1.5-1.2,3.9-3.5,2.5-4.8c-1.2-1.1-3.4,0.4-4.8-0.5c-1.5-1,0.2-3.7,1.9-4.5s3.7,0.6,5.4-0.2
			c0.7-0.3-0.2-1.5-0.9-1.9s-1.5-0.5-2-1.1c-0.9-1-0.3-2.7,0.8-3.5s2.6-0.8,3.9-0.9c3.3-0.1,7.3-0.9,8.4-4c0.6-1.7,0-3.7-1-5.2
			c-1-1.5-2.4-2.7-3.6-4.1c-0.3-0.4-0.7-0.8-0.7-1.3c0-0.5,0.3-1,0.6-1.5c1.7-2.4,3.4-4.8,5.1-7.2c0.9-1.3,1.8-2.5,3-3.5
			c0.8-0.6,1.6-1.1,2.4-1.7c2-1.7,2.9-4.4,4.3-6.7c2.3-3.8,6.3-6.6,10.7-7.4c1.6-0.3,3.4-0.4,4.5-1.7c0.5-0.6,0.8-1.4,1.1-2.2
			c1.8-4.3,5.6-7.7,10-9.1"/>
		<path fill="none" stroke="#585858" stroke-miterlimit="10" d="M370.5,6.5c0.6-0.2,1.3-0.4,1.9-0.5"/>
	</g>
</g>
<g>
	<g>
		<path fill="none" stroke="#585858" stroke-miterlimit="10" d="M146.1-1.4c-1,2.9-1.3,5.9-1.2,8.9"/>
		<path fill="none" stroke="#585858" stroke-miterlimit="10" stroke-dasharray="0.9232,2.7696" d="M145.1,10.2
			c0.1,0.8,0.2,1.5,0.3,2.3"/>
		<path fill="none" stroke="#585858" stroke-miterlimit="10" stroke-dasharray="16.6173,2.7696,0.9232,2.7696" d="M145.6,13.9
			c0.9,5.2,2.3,10.4,2.8,15.6c0.3,2.9,0.2,5.8,0.5,8.7c0.7,8.1,3.9,16,3.3,24.1c-0.3,3.3-1.2,6.6-1.1,10c0.1,2.5,0.7,5,1.4,7.5
			c1.3,4.7,2.5,9.4,3.8,14.1c0.4,1.4,0.8,2.9,1.7,3.9c0.8,0.9,2,1.5,3.1,2.1c5.7,3.6,7.6,10.9,10.8,16.9c1.7,3.1,4,7.6,7.6,7.1
			c1-0.1,1.9-0.6,2.8-0.2c2.3,0.8,4.5,0.9,6.9,0.8c1.8-0.1,4.2-0.6,6.5-1.2"/>
		<path fill="none" stroke="#585858" stroke-miterlimit="10" d="M196.9,122.9c4.5-1.2,8.6-2.7,8.6-2.7c0.8,0.8,1,1.1,2.1,1.5
			c2,0.8,2.8,3,3.9,4.9"/>
		<path fill="none" stroke="#585858" stroke-miterlimit="10" stroke-dasharray="1.0019,3.0056" d="M213,129.2
			c0.6,0.6,1.2,1.2,1.8,1.8"/>
		<path fill="none" stroke="#585858" stroke-miterlimit="10" stroke-dasharray="18.0334,3.0056,1.0019,3.0056" d="M215.6,132.3
			c0.3,0.9,0.3,1.8,0.4,2.8c0.5,5.4,4.7,9.7,8.5,13.5c2.9,2.9,5.7,6,9,8.4c0.4,0.3,0.9,0.6,1.4,0.6c0.7,0,1.2-0.5,1.7-1
			c2.4-2.5,4.4-5.4,6.1-8.5c0.5-0.9,1.1-2,2.1-2.2c0.6-0.1,1.1,0,1.7,0.2c3.3,1.3,4.7,5.4,8,6.6c2,0.8,4.2,0.4,6.3,0.9
			c2.7,0.7,4.8,2.9,6,5.4c1.2,2.5,1.6,5.3,2.1,8.1c0.4,2.8,0.9,5.6,1.3,8.5c0.4,2.3,2,3.9,3.4,5.8c2.2,3.1-0.5,7.8-2.2,11.2
			c-0.6,1.2-1.4,2.4-1.8,3.7c-0.5,1.5-0.6,3.1-0.7,4.6c-0.2,3.6,0.6,7.7,0.4,11.3c-0.4,6.8-2.2,11.8-3.6,17.4
			c-0.2,1-0.6,2.1-1.4,2.6c-0.5,0.3-1.2,0.4-1.7,0.7c-1.9,1.1-1.1,3.9-1.7,6c-0.5,1.9-2.2,3.1-3.6,4.4c-5,4.7-6.9,11.7-8.6,18.3
			c-0.6,2.1-1.2,4.4-2.6,6c-2.6,3-7.4,3.6-9.6,6.9c-1.1,1.6-1.3,3.6-1.5,5.6c-0.5,4.5-0.7,9.3,0.9,13.5c1.6,4.3,5.2,8.9,10.1,7.9
			c1.8-0.4,5.4,1,6.1,1.8c1.2,1.3,3.9,0.1,8.5,2.5c5.6,2.9,12.1,3.3,18.4,2.8c1.6-0.1,4.5-1.2,4.7,0.4c0.3,2.4,0.9,28.4,12.3,38.1
			c1.4,1.2,3.7,1.7,4.6,3.3c0.9,1.7,1.3,3.6,1.7,5.5c0.8,4.3,1.6,8.6,2.4,12.8c0.3,1.4,0.5,2.8,0.3,4.3c0,0.3-0.1,0.7-0.2,1"/>
		<path fill="none" stroke="#585858" stroke-miterlimit="10" d="M303.9,375.6c-0.2,0.5-0.4,1.1-0.5,1.6c-0.6,2.4-0.6,4.8-0.1,7.2"/>
	</g>
</g>
<text transform="matrix(0.9669 -0.2551 0.2551 0.9669 179.0719 67.6889)" fill="#585858" font-family="'Verdana-Italic'" font-size="8">Summit Lake</text>
<text transform="matrix(1 0 0 1 158.4815 168.1245)"><tspan x="0" y="0" fill="#7BBCEB" font-family="'Verdana-Italic'" font-size="8">Onion</tspan><tspan x="4.8" y="9.6" fill="#7BBCEB" font-family="'Verdana-Italic'" font-size="8">Lake</tspan></text>
<text transform="matrix(0.3543 0.9351 -0.9351 0.3543 247.0331 81.3436)" fill="#585858" font-family="'Verdana-Bold'" font-size="10" letter-spacing="8">HOOVER  WILDERNESS</text>
<path fill="none" d="M139.7,35.1c16.5-1.9,33.2-3.9,48.4-10.6"/>
<text transform="matrix(0.9857 -0.1688 0.1688 0.9857 158.6613 35.1763)"><tspan x="0" y="0" fill="#7D7D7D" font-family="'Verdana-Italic'" font-size="7">1</tspan><tspan x="4.5" y="0" fill="#7D7D7D" font-family="'Verdana-Italic'" font-size="7" rotate="-1.4">0</tspan><tspan x="9" y="-0.1" fill="#7D7D7D" font-family="'Verdana-Italic'" font-size="7" rotate="-3.1">4</tspan><tspan x="13.6" y="-0.4" fill="#7D7D7D" font-family="'Verdana-Italic'" font-size="7" rotate="-5.1">0</tspan><tspan x="18.1" y="-0.8" fill="#7D7D7D" font-family="'Verdana-Italic'" font-size="7" rotate="-7.3">0</tspan></text>
<path fill="none" d="M170.6,237.2c4.7-3.1,6.7-8.9,10.1-13.4c3.6-4.8,8.7-8.2,13.8-11.4"/>
<text transform="matrix(0.5178 -0.8555 0.8555 0.5178 177.7418 233.2095)"><tspan x="0" y="0" fill="#7D7D7D" font-family="'Verdana-Italic'" font-size="7">1</tspan><tspan x="4.4" y="0" fill="#7D7D7D" font-family="'Verdana-Italic'" font-size="7" rotate="0.7">0</tspan><tspan x="8.5" y="-0.1" fill="#7D7D7D" font-family="'Verdana-Italic'" font-size="7" rotate="8.6">6</tspan><tspan x="12.6" y="0.6" fill="#7D7D7D" font-family="'Verdana-Italic'" font-size="7" rotate="16.7">0</tspan><tspan x="16.6" y="1.8" fill="#7D7D7D" font-family="'Verdana-Italic'" font-size="7" rotate="22.3">0</tspan></text>
<path fill="none" d="M29.5,317.9c2.2-11.7,8.5-22.3,13.7-33"/>
<text transform="matrix(0.3961 -0.9182 0.9182 0.3961 35.5236 306.4858)"><tspan x="0" y="0" fill="#7D7D7D" font-family="'Verdana-Italic'" font-size="7">9</tspan><tspan x="4.4" y="0" fill="#7D7D7D" font-family="'Verdana-Italic'" font-size="7" rotate="2">4</tspan><tspan x="8.8" y="0.2" fill="#7D7D7D" font-family="'Verdana-Italic'" font-size="7" rotate="3.2">0</tspan><tspan x="13.2" y="0.4" fill="#7D7D7D" font-family="'Verdana-Italic'" font-size="7" rotate="3.6">0</tspan></text>
<path fill="none" d="M290.9,324.5c0.7,3.2,3,6.3,6.3,6.8c1.9,0.3,9.1,0.7,10.7,0.9c1.9,0.3,3.9-0.2,5.9-0.5c1.9-0.3,4-0.4,5.8,0.4"
	/>
<text transform="matrix(0.9924 0.1232 -0.1232 0.9924 295.0797 333.6255)"><tspan x="0" y="0" fill="#7D7D7D" font-family="'Verdana-Italic'" font-size="7">1</tspan><tspan x="4.6" y="-0.1" fill="#7D7D7D" font-family="'Verdana-Italic'" font-size="7" rotate="-2.7">2</tspan><tspan x="9" y="-0.3" fill="#7D7D7D" font-family="'Verdana-Italic'" font-size="7" rotate="-2.2">0</tspan><tspan x="14" y="-0.3" fill="#7D7D7D" font-family="'Verdana-Italic'" font-size="7" rotate="-14">0</tspan><tspan x="18.1" y="-1.6" fill="#7D7D7D" font-family="'Verdana-Italic'" font-size="7" rotate="-11.3">0</tspan></text>
<path fill="none" d="M80.9,173.9c0.5-4.8,2.7-9.4,5-13.6c3-5.5,6.2-10.8,9.8-15.9"/>
<text transform="matrix(0.3774 -0.926 0.926 0.3774 84.4166 169.5098)"><tspan x="0" y="0" fill="#7D7D7D" font-family="'Verdana-Italic'" font-size="7">1</tspan><tspan x="4.2" y="0" fill="#7D7D7D" font-family="'Verdana-Italic'" font-size="7" rotate="4.9">0</tspan><tspan x="8.6" y="0.4" fill="#7D7D7D" font-family="'Verdana-Italic'" font-size="7" rotate="7">0</tspan><tspan x="12.9" y="0.9" fill="#7D7D7D" font-family="'Verdana-Italic'" font-size="7" rotate="8.4">0</tspan><tspan x="17.3" y="1.6" fill="#7D7D7D" font-family="'Verdana-Italic'" font-size="7" rotate="9.9">0</tspan></text>
<g>
	<g>
		<polyline fill="none" stroke="#7D7D7D" stroke-miterlimit="10" points="85.2,341.6 85.2,348.7 275.4,348.7 275.4,341.7 		"/>
		<line fill="none" stroke="#7D7D7D" stroke-miterlimit="10" x1="180.5" y1="341.4" x2="180.5" y2="348.7"/>
		<line fill="none" stroke="#7D7D7D" stroke-miterlimit="10" x1="161.2" y1="349.2" x2="161.2" y2="343.7"/>
		<line fill="none" stroke="#7D7D7D" stroke-miterlimit="10" x1="142.4" y1="349.2" x2="142.4" y2="343.7"/>
		<line fill="none" stroke="#7D7D7D" stroke-miterlimit="10" x1="123.3" y1="349.2" x2="123.3" y2="343.5"/>
		<line fill="none" stroke="#7D7D7D" stroke-miterlimit="10" x1="104.6" y1="349.2" x2="104.6" y2="343.7"/>
	</g>
	<text transform="matrix(1 0 0 1 83.7838 339.1468)" fill="#7D7D7D" font-family="'Verdana'" font-size="8">0</text>
	<text transform="matrix(1 0 0 1 174.2948 339.1468)" fill="#7D7D7D" font-family="'Verdana'" font-size="8">0.5</text>
	<text transform="matrix(1 0 0 1 258.3417 339.1468)" fill="#7D7D7D" font-family="'Verdana'" font-size="8">1 mi</text>
</g>
</svg>
