<?xml version="1.0" encoding="utf-8"?>
<!-- Generator: Adobe Illustrator 17.1.0, SVG Export Plug-In . SVG Version: 6.00 Build 0)  -->
<!DOCTYPE svg PUBLIC "-//W3C//DTD SVG 1.1//EN" "http://www.w3.org/Graphics/SVG/1.1/DTD/svg11.dtd">
<svg version="1.1" id="Layer_1" xmlns="http://www.w3.org/2000/svg" xmlns:xlink="http://www.w3.org/1999/xlink" x="0px" y="0px"
	 viewBox="0 0 360 360" enable-background="new 0 0 360 360" xml:space="preserve">
<path fill="none" stroke="#E1E1E1" stroke-miterlimit="10" d="M321.3,308.3c6.6-2.5,13.2-5,19.8-7.5c4.2-1.6,9.1-4.1,9.4-8.6
	c0-0.7-0.1-1.5-0.5-2.1c-0.9-1.3-2.6-1.5-4.2-1.7c-5.4-0.8-10.5-3.3-14.4-7.2c-0.7-0.7-1.4-1.5-1.5-2.5c0-0.7,0.3-1.3,0.2-2
	c-0.1-1.4-1.6-2.4-3-2.5c-1.4,0-2.8,0.6-4.1,1.3c-16.5,8.2-34.9,14.6-53.1,11.7c-0.9-0.1-1.8-0.3-2.5,0.2c-0.8,0.5-1.1,1.5-1.2,2.4
	c-0.4,2.5-0.4,5.3,1,7.4c1.6,2.4,4.7,3.3,7.5,4.1c5.4,1.5,11,3,16.6,2.4c2.7-0.3,5.4-1.1,8-0.6c5.1,0.9,8.7,6.2,13.9,6.9
	C315.9,310.3,318.7,309.3,321.3,308.3z"/>
<path fill="none" stroke="#E1E1E1" stroke-miterlimit="10" d="M368.6,358.2c-9.2-2.1-18.8-2.6-28.1-1.4c-4.2,0.5-8.7,1.3-12.6-0.4
	c-5.9-2.7-8-9.9-12.6-14.5c-2.9-2.8-6.8-4.5-10.5-6c-4.8-2-9.7-4-14.5-6.1c-2.1-0.9-4.3-1.8-6.7-2c-1.9-0.2-3.7,0.1-5.6,0.4
	c-6.3,0.9-12.6,1.9-18.9,2.8c-5.8,0.9-12,1.7-17.3-1c-2.7-1.4-4.8-3.5-6.9-5.6c-2-2.1-4.1-4.3-5-7c-1.7-5.2,1-10.6,3.4-15.5
	c2.4-4.9,4.6-10.8,1.8-15.5c-2.5-4.3-8-5.8-11-9.7c-1.4-1.7-2.1-3.8-3.3-5.7c-1.9-3.2-4.9-5.7-6.4-9.1c-1.5-3.4-0.6-8.4,3-9.4
	c1.4-0.4,2.8-0.1,4.2,0.3c10.2,2.7,19.5,8.4,26.5,16.3c3.3,3.7,7.5,8.4,12.2,6.9c1.5-0.5,2.7-1.5,4.1-1.9c1.6-0.5,3.3-0.2,5-0.4
	c4.9-0.4,8.7-4.2,13.1-6.2c3.8-1.6,8-1.9,12-2.8c11-2.2,21.2-8.7,27.8-17.9c1.2-1.7,3.2-3.6,4.9-2.5c0.5,0.3,0.9,0.9,1.2,1.4
	c1.8,3.1,3.4,6.4,4.7,9.7c1.5,3.8,2.7,7.7,4.7,11.2c2,3.5,5.1,6.7,9,7.8c2.8,0.8,5.8,0.4,8.7,1.1c2.8,0.7,5.8,3,5.4,5.9
	c-0.1,1.2-0.8,2.5-0.4,3.7c0.3,0.9,1.1,1.4,1.9,1.9c3.4,2.2,6.9,4.3,10.3,6.5"/>
<path fill="none" stroke="#E1E1E1" stroke-miterlimit="10" d="M202.9,248c-1.1,0.2-1.9,1-2.6,1.7c-0.3,0.3-0.6,0.7-0.8,1.1
	c-0.4,1.4,1.3,2.4,2.7,2.7c1.5,0.3,3,0.5,4.4,0c1.4-0.5,3.5-2.3,2.5-3.4C207.4,248.6,205,247.6,202.9,248z"/>
<path fill="none" stroke="#E1E1E1" stroke-miterlimit="10" d="M314.1,375.7c-7.5-4.9-12.6-12.8-20-17.9c-8.5-5.8-19.2-7.2-29.4-8.4
	c-5-0.6-10.1-1.2-15.2-1c-7.2,0.3-14.5,2-21.4-0.1c-7.5-2.4-12.9-9.1-16.6-16.1c-2.3-4.3-4.1-8.9-4.3-13.7
	c-0.2-4.8,1.5-9.9,5.3-12.9c0.9-0.7,2-1.4,2.6-2.4c0.5-0.8,0.6-1.9,0.6-2.8c0-3.4-0.2-7.5-2.9-9.6c-7.2-5.4-16.3-8-21.8-15.1
	c-1.2-1.6-2.4-3.3-4.2-4.4c-1.6-1-3.5-1-5.2-1.6c-21.4-7.6-39.8-3.9-40.5-6.9c-1.8-7.2,1.1-15,5.2-21.3c1-1.5,2.2-3,4-3.6
	c2.7-0.9,5.5,0.8,7.9,2.3c6.6,4,14.6,6.8,22.1,5c2.7-0.6,5.2-1.8,8-2.3c2.5-0.5,5-0.3,7.5-0.3c10.2,0.2,20.4-0.8,30.3-3
	c1.3-0.3,2.7-0.6,4-0.2c1.3,0.4,2.3,1.3,3.5,1.9c2,0.9,4.2,0.5,6.4,0.6c6.1,0,11.7,2.8,17.7,4c10.3,2,20.8-0.8,31-3.5
	c1.4-0.4,2.9-0.8,4.1-1.8c0.9-0.7,1.7-1.8,2.8-1.9c1.5-0.1,2.7,1.6,4.2,1.7c2.6,0.2,3.1-3.7,5.1-5.3c1.4-1.1,3.5-1.1,5-2.1
	c5.7-3.7-2.8-15.3,3-18.7c0.8-0.5,1.7-0.6,2.6-0.8c4.7-0.9,9.4-1.8,14.2-2.6c2.8-0.5,5.7-1,8.3,0.1c2.6,1.1,4.3,4.6,2.6,6.8
	c-0.8,1.1-2.3,1.7-3.1,2.8c-1.6,2.1-0.5,5.1,0.7,7.5c2.9,5.9,6,12,10.9,16.4c4,3.7,9.1,6,14.1,8.3c3.9,1.8,7.8,3.6,11.7,5.3"/>
<path fill="none" stroke="#E1E1E1" stroke-miterlimit="10" d="M231.1,374.7c2.9-3.9,1-7.4-2.7-10.5c-10-8.4-18.5-6.5-32-24.7
	c-3.8-5.1-8.2-8.4-11.2-14c-5-9.4,6.6-21.2,1-30.3c-5.4-8.7-18.8-11.6-29-10.6c-10.2,0.9-19.9,4.7-30.1,5.6
	c-9.6,0.9-19.4-0.8-28.1-4.8c-1.6-0.7-3.2-1.6-4.1-3c-2.1-3,0.4-5.1,3.3-7.4c2.9-2.2,7.8-4.5,11.2-5.8c9.7-3.8,15.6-13,18.5-23
	c2.9-10,1-21.3-5.1-29.7c-2-2.8-7.4-5.4-5.8-8.3c0.9-1.6,8.4,1.2,19,0.8c2.5-0.1,4.6,2.3,5.6,4.5c1.3,2.6,0.5,5.8,1.4,8.6
	c2,6.8,11.2,7.7,18.3,7c9.5-1,19.2-2.4,27.7-6.6c6.1-3,12.1-3.5,18.6-1.9c5.5,1.4,10.5-4,15.8-6c2.1-0.8,4.1-1.6,6.3-1.7
	c4-0.2,6.4,3.7,9.6,6.1c9.2,6.9,22.9,1.9,34.3,1.6c3.4-0.1,7.1-0.4,9.6-2.7c3.2-2.9,3.3-7.9,3.2-12.2c-0.3-7.5-0.6-15.4-4.5-21.9
	c-1.4-2.4-3.3-4.6-3.6-7.3c-0.5-4.1,2.9-7.8,6.8-9.2c3.9-1.3,8.1-0.9,12.2-0.3c14.3,1.9,28.5,4.1,42.8,6.3c5.9,0.9,12,1.9,17.9,0.8
	c4.8-0.8,9.3-3,13-6.2"/>
<path fill="none" stroke="#E1E1E1" stroke-miterlimit="10" d="M201.1,373.6c-0.4-0.6-0.7-1.3-1.1-1.9c-1-1.7-2-3.4-3.7-4.3
	c-2.3-1.2-5.1-0.6-7.6-1.2c-4.2-1.1-6.6-5.3-8.6-9.1c-1.9-3.8-3.9-7.5-5.8-11.3c-4.1-7.8-8.1-15.7-11.3-24
	c-2.5-6.5-5.7-14.5-12.7-15.3c-1.6-0.2-3.2,0.1-4.8,0.3c-11.5,1.9-23.1,3.8-34.6,5.6c-2.9,0.5-5.7,0.9-8.6,0.8
	c-11.2-0.3-21-8.7-32.2-9c-4.4-0.1-8.8,1.1-13.2,0.8c-5.9-0.4-11.6-3.6-15-8.6c-3.3-4.9-7.7-14.3-2.4-17.1c9.3-4.9,19.7-7,30.2-6.9
	c4.4,0.1,9.8,1.5,12.4-2.1c1.4-1.9,1.2-4.6,2-6.8c0.7-2,6.2-5,7.4-6.8c5.1-7.8,16.4-11.7,17.7-12.7c2.6-2-3.5-6.9-2.5-11
	c0.9-3.8-2.3-5.7-2.8-9.5c-0.4-2.7,1.4-5.6-0.5-7.5c-3-3-2.6-6.9-1.1-10.9c0.5-1.5,1.2-3,2.5-3.9c1.7-1.1,3.9-1,5.9-1
	c8.8-0.3,16-6.4,24-10c2.2-1,4.9-1.8,7.1-0.7c2.9,1.5,3.4,5.3,3.8,8.6c0.7,5.9,3.1,12.7,8.9,14.2c4.7,1.2,9.3-1.8,14.1-2.4
	c3.7-0.4,7.6,0.6,11.3-0.2c2.1-0.5,3.9-1.5,5.8-2.5c5.5-3.1,10.6-7,13.9-12.4c1.2-2,2-4.2,3.5-6c1.6-1.9,3.8-3.1,5.3-5
	c2.9-3.7,2.9-9.3,6.5-12.2c5.7-4.6,15.1,1,21.2-2.9c2.3-1.5,3.7-4.1,6.1-5.5c2.4-1.4,4.4,0.4,6.1,2.5c1.3,1.7,3.8-2.1,4-4.2
	c0.2-2.1-0.5-4.3-0.6-6.4c-0.5-6,3.7-12.2,9.6-13.8c5.3-1.5,11.4,0.3,16.3-2.3c3.5-1.9,6.8-3,10.6-4.4c2.2-0.8,0.2-4.6-0.1-6.9
	c-0.3-2.3,0.6-5.3,2.9-5.6c1-0.1,2,0.3,2.9,0.7c6.8,2.8,14.2,3.8,21.5,2.9c2.1-0.2,4.4-0.6,6.1,0.6c1,0.7,1.7,1.8,2.2,3
	c1.8,4.4,1.3,9.4,2.3,14.1c1,4.7,4.7,9.6,9.4,9c4.2-0.6,6.7-5.1,10.7-6.5c3.4-1.2,7.4-0.1,10.5-2c4.2-2.7,3.3-9.2,0.5-13.4
	c-0.6-0.9-1.3-1.8-1.3-2.9c0-1.3,0.9-2.4,1.8-3.4c5.9-6.3,12.1-12.4,18.5-18.1"/>
<path fill="none" stroke="#E1E1E1" stroke-miterlimit="10" d="M-20.5,321.8c5.5,4.3,12.5,6.5,18.1,10.6c4.3,3.2,7.7,7.5,12.1,10.7
	s10.4,4.9,15.1,2.3c3.1-1.7,5.6-5.2,9.1-4.9c1.9,0.2,3.5,1.5,4.8,2.8c3,2.9,5.6,6.1,7.6,9.7c1.2,2,2.2,4.1,3.7,5.8
	c3.2,3.7,8.5,5.3,13.2,4c3.2-0.9,6.2-3,9.5-2.6c1,0.1,2,0.5,3,0.5c2.7,0.1,5-1.8,7.3-3.2c4.8-2.9,11-3.6,16.3-1.8
	c1.6,0.5,3.1,1.3,4.8,1.7c4.2,0.9,9.3-0.5,12.4,2.5c1.9,1.9,2.2,4.8,2.4,7.5c0.3,3.7,0.5,7.4,0.8,11.1"/>
<path fill="none" stroke="#E1E1E1" stroke-miterlimit="10" d="M167.6,373.3c-1.5-3.5-3-7-4.6-10.6c-0.6-1.4-1.3-2.8-2.5-3.6
	c-0.9-0.5-2-0.7-3.1-0.8c-5.7-0.6-12.8,2.1-17-1.7c-4.7-4.3-2.6-12.5-3.8-18.8c-0.3-1.6-0.8-3.4-2.3-4.2c-0.8-0.4-1.7-0.4-2.6-0.4
	c-12.4,0.2-24.7,0.5-37.1,0.7c-4.2,0.1-8.3,0.2-12.4,0.8c-6.2,1-12.3,3.2-18.4,2.5c-4.5-0.6-8.7-2.7-12.7-4.8c-7.7-4-15.4-8-23-12.1
	c-8.1-4.2-16.2-8.5-23.4-14.1c-1-0.8-2.1-1.8-2.3-3c-0.4-2.4,1.9-4.4,4-5.5c16-7.4,9.8-22.4,12-28.8c2.1-6.3,14.2-0.7,19.5-4.7
	s12.5-9.5,14.7-8.3c1.3,0.7,3.9,2.8,5.3,3c3.9,0.7,8.6-4.7,10.8-8s4-7.1,7.5-8.8c2.1-1,4.9-1.4,5.7-3.6c1.1-3.1-1.8-4.4-2.8-7.6
	c-1.1-3.6,1.7-3.7,2.9-7.2c1.2-3.5,1.2-8.8-1.9-10.8c-1.2-0.7-2.9-1.2-3.8-2.2c-3-3.1-2.8-4.4-1.5-8.5c1.3-3.9,7-1.6,11.1-1.6
	s10.9-5.8,7.1-7.5c-2.2-1-5,3.3-7,2c-2.4-1.6,2-8.7,4.4-10.4c2.4-1.6,5.6,0.5,8.3-0.5c9.4-3.4,13.2-5,20.8-9.8
	c3.7-2.3,9.7-12.4,12.2-16c2.3-3.3,3.8-7.1,6.1-10.4c4.7-6.7,12.2-10.7,19.2-14.8c2-1.2,4.1-2.6,4.7-4.8c1.5-6-6.4-9.7-10.9-14
	c-8.1-7.9-21-8.7-31.8-12.2c-1.8-0.6-3.9-1.5-4.3-3.4c-0.2-1.1,0.2-2.2,0.8-3.1c3.6-6.3,15-5.2,17.9-11.9c2.1-5-6.9-8.4-11-12.1
	c-4.1-3.6-8.1-8.3-8-13.8c0.1-4.5,3.1-8.6,6.9-11.2c3.8-2.5,8.2-3.8,12.6-4.9c5.3-1.3,10.7-2.5,16.1-2.2c8.1,0.5,15.5,4.3,22.6,8.2
	c5.3,2.9,10.8,6.1,14.7,10.7c1.6,1.8,2.9,3.9,5,5.1s3.9-1.3,6.3-1.2c2.9,0.1,9.7,22.8,27.1,49c2.7,4.1,3.8,10.4,8.7,11
	c5,0.6,8.3-4.7,11.6-8.6c10-12,27.6-13.1,43.1-15c5.3-0.7,10.7-1.6,15.4-4.1c4.6-2.5,8.6-6.6,13.7-7.6c5.5-1.1,11.3,1.8,15.1,6
	c3.8,4.2,6,13.9,9.4,14.9c6.5,1.9,19.2-27.7,34.3-34.4"/>
<path fill="none" stroke="#E1E1E1" stroke-miterlimit="10" d="M177.6,84.2c0.4,1.1,0.7,2.4,0,3.3c-0.4,0.5-1.1,0.8-1.7,0.8
	c-2.2,0.2-4.3-1.2-5.8-3c-1.4-1.7-2.4-3.8-3.9-5.5c-1.5-1.6-3.4-2.8-4.9-4.4s-3.9-4-2.6-5.8c1-1.5,3.5-0.9,5.3-0.4
	c2.2,0.5,4.2,1.8,6.2,3.1c1.8,1.1,3.6,2.4,4.6,4.2c0.4,0.7,0.6,1.4,0.9,2.2C176.3,80.5,177,82.3,177.6,84.2z"/>
<path fill="none" stroke="#E1E1E1" stroke-miterlimit="10" d="M175,113.4c0.7,1.7,7.8,5.2,9.5,5.7c1.5,0.4,4.4,3.8,5.7,5.2
	c0.8,0.9,1.2,2.1,2.1,2.7c1.2,0.9,3,0.5,4.1-0.5c1.1-1,1.5-2.5,1.8-4c0.3-1.6-1.8-3.5-2.9-4.5c-1.2-1-2.6-1.8-4.2-2.3
	c-0.6-0.2-2.4-2.6-2.6-3.7c-0.6-3.4-2.8-6.3-4.6-9.3c-0.3-0.6-2.3-1.9-2.8-1.9c-2.8-0.3-6.7-0.8-8.2,1.6
	C170.9,105.7,173.2,108.9,175,113.4z"/>
<path fill="none" stroke="#E1E1E1" stroke-miterlimit="10" d="M299.5,1.6c-0.4-1.1-1-2.4-2.1-2.8c-1.4-0.4-2.7,0.7-3.5,1.9
	c-0.5,0.9-0.9,1.9-1,3c-0.1,0.5-0.1,1-0.3,1.4c-0.3,0.6-1,0.9-1.5,1.3c-1.6,1.3-1.8,4-0.4,5.5c1.1,1.1,2.8,1.5,4.3,1.5
	c1.5,0,3-0.2,4.3-1c1.3-0.8,2.3-2.1,2.4-3.6c0.1-1-0.3-2-0.6-3C300.5,4.4,300,3,299.5,1.6z"/>
<path fill="none" stroke="#E1E1E1" stroke-miterlimit="10" d="M-15.7,263.9c3.3,2.8,8.6,1,11.7-2.1c3.1-3.1,4.3-5.9,7.8-8.5
	c3.3-2.4,12.4-5,18.4-5.9c6.1-0.9,12.8-3.5,14.7-9.3c0.3-1,0.5-2,1-2.9c0.6-1,1.5-1.6,2.3-2.5c3.4-3.9,1.8-10,3.7-14.8
	c1.6-4.2,6-7.3,6.5-11.8c0.3-2.2-0.4-4.5,0-6.7c1.3-7.8,20.7-15,13.5-18.4c-3-1.4-7.2,3.2-8.8,0.3c-0.7-1.2-0.4-2.7-0.2-4.1
	c1.3-6.7,3.5-14.5,10-16.5c4.1-1.3,8.7,0.3,12.9-0.9c5.4-1.7,8.1-7.5,12.1-11.3c4.1-3.9,15.6-2.1,14.8-7.7c-1.3-9,0.5-11.2,1.6-13
	c0.9-1.5-2.6-3.1-2.9-4.9c-0.2-1.8,0-3.7-0.6-5.3c-0.7-1.9-2.6-3.2-4.3-4.3c-7.4-4.7-15.2-8.6-23.4-11.7c-2.1-0.8-4.5-1.7-5.5-3.7
	c-1.5-2.8,0.2-6.2,2.4-8.5c2.2-2.3,4.9-4.3,6-7.2c0.7-1.8,0.7-4,2.2-5.3c2-1.7,5.5-0.5,7.6-2.2c1.8-1.4,1.6-4.2,1.5-6.5
	c-0.5-9.9,6.2-18.1,9.3-27.6c1.9-5.7,5-9.9,10.1-13.1c1.5-0.9,3.1-2,3.4-3.7c0.2-1.3-0.4-2.7-1-3.9c-3.1-5.9-6.2-13.4-2.4-18.9
	c1.6-2.3,4.1-3.8,6.6-5c11.8-5.7,25.5-8,38.1-4.5c4,1.1,8,3,10.7,6.2c5.2,6.2,4.4,16.3,10.4,21.8c5.9,5.4,12.7,9.9,20.6,11.4
	c2.7,0.5,5.3-2.4,6.6-4.8c2.3-4.6,7.3-7.7,11.8-5.2c4.5,2.5,8.5,18.1,10.6,22.8c5.9,13,12.3,24.3,15,33.7c0.5,1.6,3.7-0.5,5,0.5
	c1,0.7,0.4,2.9,1.5,3.4c3,1.3,4.9-3.2,32.8-2.2c2,0.1,3.9-0.7,5.7-1.5c2.4-1.2,4.2-3.2,6-5.3c4.1-4.7,8.3-9.4,12.4-14
	c1.4-1.6,2.8-3.2,4.5-4.3c2.2-1.5,4.8-2.4,7.4-2.6c25.6-2.1,30.6,18.2,35.3,19.2c3.5,0.7,13.9-16.5,22.5-21.6"/>
<path fill="none" stroke="#E1E1E1" stroke-miterlimit="10" d="M183.7-10.3c-1.2,4.6,3.8,8.9,8.6,9.3s9.5-1.5,14.2-2
	c10.8-1.2,22,5.3,26.3,15.3c1.5,3.6,2.2,7.5,3.9,11c1.7,3.5,4.7,6.8,8.5,7.2c1.1,0.1,2.2,0,3.2,0.3c3.1,0.9,4.1,4.7,4.6,7.9
	c0.7,4.8-0.9,10.5,2.2,14.3c2.7,3.4,5.3,6.8,9.2,8.8c6.5,3.2,13.7-5.2,19-10.2c3.1-2.9,5.8-6.3,8.6-9.5c4.8-5.6,10.7-11.1,18-11.8
	c2.6-0.3,5.3,0.1,7.9,0c8.8-0.3,17.2-5.6,25.9-4.1c2.4,0.4,3.6,3.8,6,3.6c12.7-1.3,0.9-25.3,1.6-38c0.2-3.8,1.1-8.1,4.5-9.8"/>
<path fill="none" stroke="#E1E1E1" stroke-miterlimit="10" d="M-15.6-11.4c6.3,2.2,10.4,8.2,14.9,13S10.9,10.7,17,8
	c2.6-1.2,5.7-0.8,7.5-2.9c1.1-1.3,3.2-0.4,3,1.7c-0.6,6.5,3.7,18.1,2.7,26.5c-0.3,2.7-5.6,1.2-7.7,3s-3.3,4.2-4.5,6.6
	c-2.5,4.8-4.9,10.7-2.1,15.4c0.9,1.5,2.2,2.6,3.1,4c0.9,1.4,1.4,3.4,0.5,4.8c-0.7,1-1.9,1.5-3,2.2c-2.6,1.7-4.1,4.7-5.3,7.6
	c-5.2,11.7-10.5,24.8-6.1,36.8c1.3,3.4,3.1,7.7,0.5,10.3c-2,2-5.9,1.9-6.8,4.5c-0.3,0.9-0.1,2,0.2,2.9c1.4,4.3,4.7,7.7,6.8,11.8
	c3.4,6.5,3.4,14.5,0.1,21.1c-2.8,5.6-9.2,7.6-14.2,11.4c-2.1,1.6,1.6,5,1,7.5c-0.5,2.1-2.9,2.9-4.9,3.5c-3.2,0.8-6.4,1.7-9.6,2.5"/>
<path fill="none" stroke="#E1E1E1" stroke-miterlimit="10" d="M62.1-13.7c8,12.2,28.3,23.1,23.6,37c-1.6,4.7-9.5,3.6-13.2,6.9
	s-2.6,8.9-4.8,13.4c-3.4,6.9-11.5,9.8-15.5,16.4c-2.9,4.8-1.7,9.7-1.4,15.3c0.5,9.2-12.4,13.6-18.6,20.5c-1.7,1.9-3.5,4.5-2.3,6.7
	c1.2,2.1,4.6,2.7,4.7,5.1c0,0.9-0.5,1.8-0.8,2.6c-1.8,4.5,2.5,8.6,5.1,12.6c5,7.6,10.5,7.6,12.3,9.6c2.1,2.3-11.3,8.7-15,23
	c-0.6,2.4-0.7,5-1.5,7.3c-2.4,7.4-6.6,14.2-12,19.7c-3.9,4-12.6,6.2-11,11.6c0.9,3,4.5,4.5,6.8,6.7c0.6,0.6,1.2,1.2,1.5,1.9
	c1,2.3-0.8,4.7-2.5,6.4c-3.1,3.2-6.5,6.9-6.2,11.3c0.2,2.6,1.8,4.9,2.8,7.3s2,8.5-0.4,7.4c-11.8-5.1-29.9-7.5-44.9-11.2"/>
<path fill="none" stroke="#4E9BD7" stroke-miterlimit="10" d="M176.9,154.3c-5.6-4.5-7.7-16.8-13.5-24c-4-4.9-10.6-8.4-16.9-9
	s-12.8,0.1-19.2,0.4c-2.5,0.1-5.3,0.8-7.8,1.4c-2.1,0.5-3.6,1.8-5.7,2.4c-4.6,1.4-9.4,1.5-14.2,1.6c-4.5,0.1-9.1,0.2-13.5-0.7
	c-5.2-1.1-6.5-3.8-11.8-3.9c-6.6-0.1-12.2,2.7-16.2,5.1c-16.2,9.9-27.9,17.2-46.3,21.9c-3.1,0.8-6.2,1.4-9.3,1.3
	c-6.7-0.4-13.1-4.5-19.7-3.2"/>
<path fill="none" stroke="#D6D6D6" stroke-miterlimit="10" d="M198.3,160.9c2-0.7,3.4-2.4,4.7-4c1.3-1.6,2.6-3.4,4.4-4.4
	s4.4-1.1,5.8,0.4c0.5,0.5,0.8,1.1,1.2,1.7c1.5,2.1,3.9,3.2,6.2,4.2c1.8,0.8,3.5,1.6,5.3,2.4c1.4,0.6,2.8,1.3,4.3,1.5
	c2,0.3,3.9-0.1,5.9-0.5c3.3-0.7,6.6-1.4,9.8-2.1c0.8-0.2,1.7-0.3,2.4-0.1c1.7,0.5,2.4,2.8,1.8,4.5s-2,3-3.2,4.3
	c-0.7,0.7-1.4,1.5-1.7,2.5c-0.3,1,0.1,2.2,1,2.6c0.9,0.4,1.9-0.1,2.9-0.1c1.3,0.1,2.3,1.1,2.8,2.2c0.5,1.2,0.5,2.5,0.5,3.7
	c0,3.4-0.4,7.4-3.3,9.2c-0.4,0.3-0.9,0.5-1.2,0.8c-1,1.1,0.1,2.9-0.4,4.4"/>
<path fill="#EAEAEA" stroke="#D6D6D6" stroke-miterlimit="10" d="M207.8,200.4c0,0.1,0.1,0.2,0.2,0.2c0.1,0,0.2,0,0.3,0
	c1.3-0.1,2.5-0.3,3.8-0.4c0.1,0,0.2,0,0.3-0.1c0.1-0.1,0.1-0.2,0.1-0.2c0-0.4,0-0.9-0.2-1.3s-0.7-0.4-1.1-0.7
	c-0.6-0.5-0.6-1.4-1.4-1.6c-0.7-0.2-1.6,0-2,0.6c-0.3,0.4-0.5,0.9-0.5,1.4C207.2,199,207.5,199.7,207.8,200.4z"/>
<path fill="#EAEAEA" stroke="#D6D6D6" stroke-miterlimit="10" d="M245.1,196.9c-0.1,1.6,1.5,3.3,0.7,4.7c-0.1,0.3-0.4,0.5-0.5,0.7
	c-0.4,0.9,0.1,1.9,0.2,2.8c0,0.9-0.3,1.7-0.1,2.5c0.3,0.9,1.4,1.3,2.4,1.4c1,0,1.9-0.2,2.9-0.2c1,0,1.9,0.4,2.9,0.4
	c1,0.1,2.1-0.1,2.7-0.9c1.1-1.5-0.3-3.8,0.7-5.3c0.3-0.4,0.7-0.7,1.2-0.9c1.4-0.6,2.9,0.6,4.4,0.3c0.9-0.2,0.3-1.7-0.1-2.5
	c-0.3-0.8-0.8-1.6-0.9-2.5c-0.1-0.8,0.1-1.9-0.7-2.3c-0.8-0.3-1.6,0.5-2.4,0.5c-0.5,0-0.8-0.4-1.3-0.5c-1.5-0.5-3.3,1-4.6,0.1
	c-0.3-0.2-0.5-0.5-0.9-0.6c-0.7-0.1-1.2,0.9-1.9,0.8c-0.9-0.1-1-1.5-1.8-1.7c-0.5-0.1-0.9,0.3-1.3,0.6
	C246,195.1,245.2,195.9,245.1,196.9z"/>
<path fill="none" stroke="#D6D6D6" stroke-miterlimit="10" d="M-12.8,21.9c1.7,3.4,6.1,4.3,9.9,4.4c2.6,0.1,5.2,0,7.8-0.3
	c2.7-0.4,5.1-1.5,7.7-2.1c4.6-0.9,9.6,3.3,12.9,5.9c3.3,2.7,6.6,5.3,9.9,8c0.8,0.7,1.6,1.3,2.6,1.7c1.3,0.5,2.6,0.4,4,0.3
	c3.8-0.2,7.7-0.4,11.6-0.6c2.8-0.1,5.8-0.2,8.4,0.8c3.9,1.4,6.8,4.7,10,7.3c5.2,4.2,8.6,9.7,10.8,16.1c0.9,2.6,3.3,6.5,5.3,8.4
	c2.2,2,4.5,1.6,7.2,2.7c3.3,1.4,6.6,2.7,10,4.1c4.5,1.9,10.6,1.6,15.5,1.9c4,0.3,6.6,1.7,10.6,2c3.8,0.2,7.5,1.3,11.1,2.4"/>
<path fill="none" stroke="#D6D6D6" stroke-miterlimit="10" d="M-13.4,58.3c-0.4,0,0-0.6,0.4-0.6c3.3-0.1,6.7-0.2,9.8,1
	c1,0.4,2,0.9,3,1.3C1.5,60.7,3.3,61,5,61.4c3.7,0.8,7.3,2.2,10.6,4.1c1.3,0.7,2.5,1.5,4,2c1.1,0.3,2.2,0.4,3.3,0.7
	c1.7,0.4,3.2,1.2,4.8,1.8c1.6,0.6,3.3,0.9,5,1.3c9.1,1.9,18.3,3.7,27.4,5.6"/>
<path fill="none" stroke="#D6D6D6" stroke-miterlimit="10" d="M192.8-11.3c-0.7,9.4,1.2,18.8,0.6,28.3c-0.2,2.9-0.6,5.9-0.2,8.8
	c0.3,2,1,3.9,1.5,5.8c1.1,4.1,1.3,8.4,0.7,12.5"/>
<path fill="none" stroke="#D6D6D6" stroke-miterlimit="10" d="M251.3-12.8c2.6,5.3,3.9,11.1,6.4,16.5c3.3,7.1,6.1,12.5,8.9,19.4
	c2,5,5.9,12.6,6.2,17.9c0.3,6.3-3.8,6.9-5.6,12.9c-1.2,4.1-5,10.3-7.8,12.1c-3.6,2.3-6.6,5.4-9.3,8.8c-4.1,5.2-4.4,12.3-6.9,18.4
	c-1,2.4-2.3,4.7-3.4,7.1c-3.4,7.4-4.4,13.8-2.9,21.8"/>
<path fill="none" stroke="#D6D6D6" stroke-miterlimit="10" d="M334.3-12.8c-0.9,7.1,4.1,14.4,7.4,20.8c2.9,5.5,4.5,10.5,6.4,16.4
	c1.4,4.3,1.1,8.9,1.5,13.4c1.8,17.5,1.4,34-3.2,49.6c-1.4,4.8-2,10.8-3.1,15.7c-3.7,15.6-5.3,30.7-10.1,45.9"/>
<path fill="none" stroke="#D6D6D6" stroke-miterlimit="10" d="M13.7,23.8c4.6-2.9,8.4-8.3,10.9-13.6c0.9-1.8,1-4.2,2.8-5
	c0.9-0.4,2-0.3,3-0.2c3,0.3,6.1,0.7,9.1,1c4,0.4,8.1,0.9,12,1.8c2.6,0.6,5.1,1.4,7.6,2.3c10.5,4,20.2,10.5,31.3,12.6
	c11.1,2,23.1-0.7,33.7,3.3"/>
<path fill="#7BBCEB" stroke="#4E9BD7" stroke-miterlimit="10" d="M199.4,163.2c0,0.5-0.3,0.9-0.4,1.3c-0.3,2.7-0.7,5.2-2.7,7.4
	c-0.6,0.7-1.2,1.8-0.9,2.6c0.2,0.4,0.5,0.8,0.7,1.2c0.2,0.6,0.2,1.2,0.2,1.8c-0.2,2.1-0.3,4.3-0.5,6.4c-0.1,1.4-0.3,3-1.2,4.1
	c-0.3,0.4-0.8,0.7-1.1,1.2c-0.4,0.5-0.6,1.2-0.9,1.8c-0.6,1.6-1.4,3.1-2.3,4.5c-0.5,0.7-1.1,1.5-2,1.7c-0.5,0.1-0.9,0-1.4,0
	c-1.7-0.1-3.3,0.8-4.8,1.6c-5,2.4-10.6,3.6-16.2,3.3c-0.6,0-1.3-0.1-1.9,0.1c-0.7,0.2-1.2,0.7-1.9,0.9c-0.3,0.1-0.7,0.2-1,0.2
	c-2.6,0.3-5.3-0.9-6.8-3c-0.3-0.4-0.6-0.9-0.8-1.4c-0.5-1.6-0.1-3.4,0.7-4.8c0.8-1.5,1.9-2.7,3-4c2.5-3.2,4.2-7.2,4-11.2
	c0-0.6-0.1-1.3,0-1.9c0.4-2.5,3.2-3.8,4.7-5.9c0.9-1.3,1.3-3,2-4.5c1.4-2.6,4-4.5,5.4-7.1c0.7-1.5,1.1-3.2,2.2-4.3
	c1.8-1.8,4.6-1.5,7.1-1.1c2.4,0.4,4.8,0.7,7.1,1.1c0.7,0.1,1.3,0.2,1.9,0.5c0.5,0.3,1,0.7,1.5,1c1.5,1.3,3,2.5,4.5,3.8
	C198.6,161.3,199.5,162.1,199.4,163.2z"/>
<g>
	<g>
		<path fill="none" stroke="#585858" stroke-miterlimit="10" d="M-15.3,15.2c0.6-0.3,1.3-0.2,1.9,0.1"/>
		<path fill="none" stroke="#585858" stroke-miterlimit="10" stroke-dasharray="4.0205,1.0051" d="M-12.5,15.7
			c0.1,0,0.1,0.1,0.2,0.1c1.3,0.7,2.9,1,4.2,1.8c4.5,2.4,9.3,3.5,13.9,1.8c1.8-0.6,3.7-1.2,5.3-2.2c1.5-1,2.4-2.6,3.3-4.2
			C17.6,7.1,20.8,1.2,24-4.7c0.7-1.2,1.4-2.5,2-3.8"/>
		<path fill="none" stroke="#585858" stroke-miterlimit="10" d="M26.2-9c0.3-0.6,0.5-1.2,0.7-1.9"/>
	</g>
</g>
<g>
	<g>
		<path fill="none" stroke="#585858" stroke-miterlimit="10" d="M80.3-10.1c0.5,0.4,1.1,0.7,1.7,1.1"/>
		<path fill="none" stroke="#585858" stroke-miterlimit="10" stroke-dasharray="3.9764,0.9941" d="M82.9-8.6c4.1,2.4,9,4.7,12.6,7.1
			c2.4,1.6,4.8,3.3,7.1,5c2.8,2.2,5.8,3.5,8.7,5.4c2.7,1.7,5.3,4.1,8.2,5.5c9.5,4.5,18.7,9.6,27.6,15.2c1,0.6,2.1,1.6,1.6,2.7
			c-0.1,0.3-0.4,0.6-0.7,0.8c-6.9,6.4-16.4,9.1-24,14.1c-1.1,0.8-2,1.9-2.3,3.2c-0.2,1.1,0.2,2.1,0.4,3.2
			c0.9,7.9,6.5,15.3,14.6,17.5c4.1,1.1,8.2,2.8,11.9,4.9c12.7,7.2,25.2,14.7,37.6,22.3c1.1,0.7,2.4,1.7,2.3,3c0,0.6-0.4,1.1-0.7,1.6
			c-1.6,2.7-2.8,5.7-3.6,8.8c-0.2,0.7-0.3,1.3-0.2,2c0.2,1.6,1.5,2.8,2.9,3.6s3,1.2,4.2,2.2c3.1,2.4,3.6,6.8,3.8,10.7
			c0.1,2.6,0.3,5.2,0.4,7.8c0.1,1.5,0.1,3.1-0.5,4.5c-1.2,2.5-4.4,3.6-5.8,6c-0.5,0.9-0.8,2-1.2,3"/>
		<path fill="none" stroke="#585858" stroke-miterlimit="10" d="M187.5,152.1c-0.3,0.6-0.7,1.1-1.4,1.4"/>
	</g>
</g>
<g>
	<g>
		
			<circle fill="none" stroke="#585858" stroke-miterlimit="10" stroke-dasharray="8.7402,2.1851,1.0925,2.1851" cx="184.2" cy="149.4" r="4.5"/>
	</g>
	<text transform="matrix(1 0 0 1 182.3352 151.7392)" fill="#585858" font-family="'Verdana'" font-size="7">•</text>
</g>
<text transform="matrix(1 0 0 1 190.4944 152.903)" fill="#585858" font-family="'Verdana'" font-size="7">Ski Hut</text>
<text transform="matrix(1 0 0 1 122.3889 160.6893)"><tspan x="0" y="0" fill="#7BBCEB" font-family="'Verdana-Italic'" font-size="8">Ostrander</tspan><tspan x="21.3" y="9.6" fill="#7BBCEB" font-family="'Verdana-Italic'" font-size="8">Lake</tspan></text>
<text transform="matrix(0.9782 0.2078 -0.2078 0.9782 209.0893 247.599)" fill="#585858" font-family="'Verdana-Italic'" font-size="8">Horse</text>
<text transform="matrix(0.9507 0.3102 -0.3102 0.9507 270.1847 275.5963)" fill="#585858" font-family="'Verdana-Italic'" font-size="8">Ridge</text>
<path fill="none" d="M4.7,306.3c7.2,5.6,15.3,9.9,23.4,14.1c7.7,4,15.4,8,23,12.1c4,2.1,8.2,4.3,12.7,4.8"/>
<text transform="matrix(0.886 0.4637 -0.4637 0.886 28.2883 323.4548)"><tspan x="0" y="0" fill="#7D7D7D" font-family="'Verdana-Italic'" font-size="7">8</tspan><tspan x="4.5" y="0" fill="#7D7D7D" font-family="'Verdana-Italic'" font-size="7">4</tspan><tspan x="8.9" y="0" fill="#7D7D7D" font-family="'Verdana-Italic'" font-size="7">0</tspan><tspan x="13.4" y="0" fill="#7D7D7D" font-family="'Verdana-Italic'" font-size="7">0</tspan></text>
<path fill="none" d="M283.5,327.8c2.3,0.2,4.5,1.1,6.7,2c4.8,2,9.7,4,14.5,6.1c3.8,1.6,7.6,3.2,10.5,6c4.6,4.5,6.7,11.8,12.6,14.5"
	/>
<text transform="matrix(0.923 0.3849 -0.3849 0.923 289.2014 332.1296)"><tspan x="0" y="0" fill="#7D7D7D" font-family="'Verdana-Italic'" font-size="7">9</tspan><tspan x="4.5" y="0" fill="#7D7D7D" font-family="'Verdana-Italic'" font-size="7">2</tspan><tspan x="8.9" y="0" fill="#7D7D7D" font-family="'Verdana-Italic'" font-size="7" rotate="0">0</tspan><tspan x="13.4" y="0" fill="#7D7D7D" font-family="'Verdana-Italic'" font-size="7" rotate="0">0</tspan></text>
<path fill="none" d="M239.5,219c9.2,6.9,22.9,1.9,34.3,1.6c3.4-0.1,7.1-0.4,9.6-2.7"/>
<text transform="matrix(0.9987 -5.037402e-02 5.037402e-02 0.9987 252.551 225.2048)"><tspan x="0" y="0" fill="#7D7D7D" font-family="'Verdana-Italic'" font-size="7">8</tspan><tspan x="4.6" y="0" fill="#7D7D7D" font-family="'Verdana-Italic'" font-size="7" rotate="-3.6">8</tspan><tspan x="9.1" y="-0.3" fill="#7D7D7D" font-family="'Verdana-Italic'" font-size="7" rotate="-4.8">0</tspan><tspan x="13.5" y="-0.7" fill="#7D7D7D" font-family="'Verdana-Italic'" font-size="7" rotate="-4">0</tspan></text>
<path fill="none" d="M114.7,98.8c0.4,1.9,2.5,2.8,4.3,3.4c10.7,3.5,23.7,4.4,31.8,12.2c4.5,4.3,12.4,8,10.9,14"/>
<text transform="matrix(0.9704 0.2416 -0.2416 0.9704 123.2864 106.1188)"><tspan x="0" y="0" fill="#7D7D7D" font-family="'Verdana-Italic'" font-size="7">8</tspan><tspan x="4.4" y="0" fill="#7D7D7D" font-family="'Verdana-Italic'" font-size="7" rotate="-0.1">4</tspan><tspan x="8.8" y="0" fill="#7D7D7D" font-family="'Verdana-Italic'" font-size="7" rotate="1.6">0</tspan><tspan x="13.1" y="0.1" fill="#7D7D7D" font-family="'Verdana-Italic'" font-size="7" rotate="5.1">0</tspan></text>
<path fill="none" d="M50.7,75.2c-0.3-5.6-1.5-10.6,1.4-15.3c4-6.5,12.2-9.5,15.5-16.4"/>
<text transform="matrix(0.2093 -0.9778 0.9778 0.2093 52.6131 66.5514)"><tspan x="0" y="0" fill="#7D7D7D" font-family="'Verdana-Italic'" font-size="7">8</tspan><tspan x="3.6" y="-0.1" fill="#7D7D7D" font-family="'Verdana-Italic'" font-size="7" rotate="20.1">0</tspan><tspan x="7.3" y="1.2" fill="#7D7D7D" font-family="'Verdana-Italic'" font-size="7" rotate="32.6">0</tspan><tspan x="10.8" y="3.5" fill="#7D7D7D" font-family="'Verdana-Italic'" font-size="7" rotate="38.4">0</tspan></text>
<path fill="none" d="M302.7,58.3c1.4-1.6,2.8-3.2,4.5-4.3c2.2-1.5,4.8-2.4,7.4-2.6c25.6-2.1,30.6,18.2,35.3,19.2"/>
<text transform="matrix(0.9992 -3.939278e-02 3.939278e-02 0.9992 314.6067 53.8439)"><tspan x="0" y="0" fill="#7D7D7D" font-family="'Verdana-Italic'" font-size="7">8</tspan><tspan x="4.2" y="0" fill="#7D7D7D" font-family="'Verdana-Italic'" font-size="7" rotate="6.3">2</tspan><tspan x="8.3" y="0.4" fill="#7D7D7D" font-family="'Verdana-Italic'" font-size="7" rotate="13.9">0</tspan><tspan x="12.2" y="1.3" fill="#7D7D7D" font-family="'Verdana-Italic'" font-size="7" rotate="22.4">0</tspan></text>
<g>
	<g>
		<polyline fill="none" stroke="#7D7D7D" stroke-miterlimit="10" points="85.2,341.6 85.2,348.7 275.4,348.7 275.4,341.7 		"/>
		<line fill="none" stroke="#7D7D7D" stroke-miterlimit="10" x1="180.5" y1="341.4" x2="180.5" y2="348.7"/>
		<line fill="none" stroke="#7D7D7D" stroke-miterlimit="10" x1="161.2" y1="349.2" x2="161.2" y2="343.7"/>
		<line fill="none" stroke="#7D7D7D" stroke-miterlimit="10" x1="142.4" y1="349.2" x2="142.4" y2="343.7"/>
		<line fill="none" stroke="#7D7D7D" stroke-miterlimit="10" x1="123.3" y1="349.2" x2="123.3" y2="343.5"/>
		<line fill="none" stroke="#7D7D7D" stroke-miterlimit="10" x1="104.6" y1="349.2" x2="104.6" y2="343.7"/>
	</g>
	<text transform="matrix(1 0 0 1 83.7836 339.1469)" fill="#7D7D7D" font-family="'Verdana'" font-size="8">0</text>
	<text transform="matrix(1 0 0 1 174.2947 339.1469)" fill="#7D7D7D" font-family="'Verdana'" font-size="8">0.5</text>
	<text transform="matrix(1 0 0 1 258.3416 339.1469)" fill="#7D7D7D" font-family="'Verdana'" font-size="8">1 mi</text>
</g>
</svg>
