<?xml version="1.0" encoding="utf-8"?>
<!-- Generator: Adobe Illustrator 17.1.0, SVG Export Plug-In . SVG Version: 6.00 Build 0)  -->
<!DOCTYPE svg PUBLIC "-//W3C//DTD SVG 1.1//EN" "http://www.w3.org/Graphics/SVG/1.1/DTD/svg11.dtd">
<svg version="1.1" id="Layer_1" xmlns="http://www.w3.org/2000/svg" xmlns:xlink="http://www.w3.org/1999/xlink" x="0px" y="0px"
	 viewBox="0 0 360 360" enable-background="new 0 0 360 360" xml:space="preserve">
<path fill="none" stroke="#D6D6D6" stroke-miterlimit="10" d="M200.3,195.5c1.2-1.6,3-3.2,4.2-4.8c0.5-0.6,1.2-2.5,1.6-3.1
	c1.5-2.3,4.8-1.4,7.5-1.5c4.8-0.2,9.7-0.5,14.5-0.2c10.8,0.5,23.8,2.7,34.3,0.3"/>
<path fill="none" stroke="#E1E1E1" stroke-miterlimit="10" d="M7-7.1C6.3-6.3,5.6-4.6,6-3.4c0.6,1.8,1.9,0.8,2.5,2
	C9.7,1.1,4.4,4.1,10,5.1c3,0.6,4.6-3.9,6,0.2c0.8,2.5-0.2,2.8,2.3,2.1c1.1-0.3,1.7-0.1,3.2-1.1c2-1.2-0.2-2.9,2.3-4
	C25.3,1.7,27,2,28.6,1.2c1.6-0.8,3.1-2.7,4.2-3.9c0.8-0.8,3.5-3.9,0.2-3.9"/>
<path fill="none" stroke="#E1E1E1" stroke-miterlimit="10" d="M65.2-5.6c-0.3,1.3-0.3,2.3-1.1,3.4c-0.6,0.9-1.9,1.3-2.4,2.3
	c-0.7,1.2-0.1,3.5-0.8,4.5c-1,1.4-2.7,0.7-3.2,2.7c-0.2,0.8,0.2,3.1,0.5,3.8c0.3,0.8,1.7,1.9,1.8,2.4c0.6,2.6,1,1.2,0.9,5.2
	c0,2.1-4.7,1-4,3.8c0.2,0.8,1.6,1.6,2,2.5c0.5,1.1,0.3,1.9,0.5,3c0.9,4.1,2.5,9.3-2,12.1c-2,1.2-4.1,0.4-6.3,0.9
	c-2.6,0.6-3.7,2.5-5.4,4.3c-1.4,1.6-3.3,2.5-2.3,5c0.8,2.2,4.5,3.1,2.4,5.2c-2,2-5.6-1.5-7.9-3c-1.4-0.9-2.1-2.7-4-2.9
	c-1.8-0.2-4,1.4-5.7,1.8c-2.5,0.5-2.6-0.2-4.4-1.1C22,49.6,20,49.3,18,49.1c-3.2-0.2-6.2,0.6-9.2-1.3c-1.1-0.7,1-2.5,0.2-3.4
	c-2.7-3.1-6.9,0.5-11,3.5"/>
<path fill="none" stroke="#E1E1E1" stroke-miterlimit="10" d="M-2.2,87.3c0.9,0.4,1.5,1.1,2.5,1.3c1.9,0.3,4.6-0.9,6.7-1
	c3-0.2,4.2-0.2,6.7-2c1.5-1.1,8.1-11.6,10.8-6.5c2.1,4.1-6.9,7.3-1,11.5c1.3,0.9,0.6,1.5,2.5,2.7c3.5,2.4,6.5-2.8,10.2-1.4
	c4,1.5,7.8-4.2,11.8-2.5c0.2,0.1,0.3,0.7,0.5,0.7c3.1,0.5,3-5.5,6.2-4.7c1.8,0.4,4.9-5.8,7.7-8.1c4.2-3.5,3.1-9,8.2-10.5
	c2.7-0.8,3.7-0.2,6.3,0c1.7,0.1,5-0.1,4.2-1.7c-1.3-2.5-3.6-3.6-4.4-5.8c-0.4-1.1-0.6-1.6-1-2.7c-0.5-1.1-1.1-1-1.3-2.8
	c-0.4-3.2,1-3.9,2.3-6.5c1.2-2.3,0.6-5.1,0.7-7.6c0.1-2.7,1-3.5,3.1-5.2c2.5-2.1,4.3-0.9,4.7-4.6c0.3-2.9-0.6-5.9-0.2-8.7
	c0.3-2.1,2.7-4.2,2.1-6.4c-0.8-2.8-3.2-2.1-1.8-5.6c0.8-2,2.5-3.3,3.5-5.2c1-2,1.3-4.3,2.2-6.3c1-2.3,2.6-3.3,4.1-5"/>
<path fill="none" stroke="#E1E1E1" stroke-miterlimit="10" d="M118.5-6.4c-2.2,1.8-5.4,4-7.1,6.2c-1.5,2-1.8,4.3-3.5,6.2
	c-2.3,2.7-8.3,6.8-4.7,10.7c0.8,0.9,1.8,0.6,2.5,1.8c0.6,1.1,0.1,3.4-0.1,4.6c-0.4,2.7-2,4-3.8,6c-1.4,1.6-3,3.1-3.7,5.2
	c-0.3,1-0.1,2.3-0.6,3.3c-0.8,1.5-1.9,1.3-2.2,3c-0.6,2.6,1,5.2,3.5,5.2c1.7,0,3.9-2,5.5-0.9c1.3,0.9,1.1,5.3,0.8,6.7
	c-0.4,2.3-1.7,3-1.1,5c0.5,1.5,2.3,3.3,2.5,4.8c0.4,2.4-2.2,3.8-1.7,6.2c0.7,3.1,8.4,6.8,6.4,9.2c-1.8,2.2-5.3,0.1-8,0.5
	c-2.4,0.4-4.7,2.1-6.8,3.2c-2.4,1.3-3.1,2.7-4.5,4.8c-1.6,2.5-2.8,1.5-5.3,3c-0.8,0.5-2.4,2.1-2.6,3c-0.4,1.6,0.4,1.2,0.8,2.5
	c0.7,2.7-0.9,3.5-3.1,5.2c-1,0.8-1.9,0.7-2.3,2.3c-0.3,1.1,0.7,2.2-0.2,3.5c-1.4,2-4.2,1.4-6.3,2.2c-3.6,1.3-4.2,4.1-4.8,7.3
	c-0.6,3.6-1.4,3-4.5,2.7c-5.9-0.6-10.2,4.8-14.5,6.7c-2,0.9-3.6,0.8-5.6,1c-3,0.4-3.3,1.6-5.1,3.6c-1.4,1.5-3,2.8-5.1,3.2
	c-0.7,0.1-1.4-0.1-2.1,0c-1.6,0.2-2.7,1-4.2,1.3c-1.5,0.3-3.1-0.3-4.6,0c-1.8,0.4-2.2,1.2-3.7,2.4c-1.3,1.1-1.5,1.3-3.2,1.6
	c-0.7,0.1-1.5-0.2-2.2,0c-0.8,0.3-1.3,1.4-2.2,1.7c-1.8,0.7-4.4-0.4-6.1,0.4c-1.5,0.8-1.4,4-2.7,4.8c-0.8,0.5-3.4-4-4-4.9
	c-1.5-2.4-4.1-2-3-5.2c0.4-1.1,1.1-2.1,1.9-2.9c0.6-0.6,2.8-1.3,3.1-2c0.5-1.1-0.5-1.9-0.8-2.8c-0.9-2.3-0.3-1.7,0.1-3.9
	c0.4-2.2-0.7-4-2.4-5.3"/>
<path fill="none" stroke="#E1E1E1" stroke-miterlimit="10" d="M-4.2,237c1.6,1.5,3.5,2.8,4.8,4.8c1.3,2.2,1.8,4.3,3.4,6.5
	c3.4,4.6,4.6,9.7,8,13.9c2.3,2.7,8.2,5.1,11.7,6c1.9,0.5,3.6,1.7,5.5,2.1c1.4,0.3,2,0.3,3.2-0.6c1.4-1.1,0.6-1.9,1.4-2.9
	c0.6-0.7,1.8-0.4,2.4-1.1c0.7-0.9,0.6-2.1,0.8-3.2c0.4-2.4,1.7-5.1,1.8-7.5c0-2.9-1.5-5.9-1.8-8.8c-0.2-2.3,1.2-4.3,1-6.4
	c-0.1-1.8-1.6-3.5-1.7-5.3c-0.2-1.7,0.9-2.8,1-4.2c0.1-2.7-2.6-4.4-3.4-6.9c-0.6-1.8-0.1-3.3-0.3-5c-0.2-1.8-1.6-3.5-1.4-5.5
	c0.2-3.2,0-7.6,2.5-9.5c2-1.4,3.2-0.7,2.7-3.3c-0.5-2.4-2.8-3.4-3.5-5.8c-0.3-1.1,0.3-2.4,0-3.5c-0.3-1.2-1.5-2.2-1.8-3.5
	c-0.2-1.1,0.2-2.3,0-3.4c-0.3-1.3-1.1-2.1-1.5-3.4c-0.7-2.4,0.5-4.5,0-6.7c-0.3-1.3-1.1-2.2-0.8-3.4c0.2-0.8,1.2-1.4,1.5-2.1
	c0.3-0.7,0.1-1.8,0.3-2.6c1-4.2,3.9-9.1,7.8-11.3c2.2-1.3,4.6-1.7,7-2.5c3-1,4.3-3,6.7-4.7c2.3-1.7,4.8-3.7,7.5-5
	c2.8-1.3,4.3,0.2,6.8-0.2c3.2-0.5,2.5-2.9,4.5-4.6c2-1.7,4.9,0.3,5.5-2.2c0.7-2.6-1.2-2.8,1.2-5.1c1.6-1.5,3.8-2.4,5.1-4.2
	c0.7-1,0.8-2.2,1.3-3.2c0.8-1.7,3.1-2.1,3.4-4.1c0.7-3.4,1.6-4.2,3.5-5.5c2.4-1.6,2.7-4.5,4.6-6.7c0.8-0.9,1.9-1.5,2.5-2.6
	c0.8-1.4,0.4-3.3,0.4-4.9c0-2.6-0.1-2.8,4-3.6c3.2-0.6,2.1-4.2,5.5-4.7c2.3-0.3,4.8-0.1,7-0.6c2.9-0.7,4.5-0.9,7.5-0.5
	c2.8,0.4,5.4-0.2,8.2,0c1.9,0.2,3.8,0.8,5.4,1.8c2.2,1.3,4.5,3.6,6.5,4.8c3,1.7,2.7-1.5,4.2-3.7c1.3-1.9,3.1-1.5,5.3-2.8
	c5.3-3.1-2.6-5.7-7.8-6.7c-3.9-0.7-8.3-1-10.8-3.8c-1.9-2.1,0.8-4.1-0.8-6.5c-1.1-1.7-2.6-3-4.1-4.4c-3.3-3.2-7.5-5.4-9-9.9
	c-0.5-1.6-0.9-3-1.5-4.6c-1-2.5-1-2.6,0.5-4.8c2-2.8,1.4-3.6-0.8-6.2c-2.1-2.5-2.4-4.1-2.5-7.2c-0.1-1.9-1.3-5.4-0.3-7.2
	c1.9-3.3,8.1-2.6,10.5-5.1c2.8-2.8,3.7-3.9,8-4.5c4.2-0.6,6.8,0.2,10.2-2.7c2.6-2.1,2.5-3.9,2.5-7c0-7,5.8-7.8,10.5-7.8
	c1.1,0,2.5,0.5,3.5,0.3c1.5-0.3,2.5-1.5,4-1.8c2.5-0.4,4.9,0.9,7.3,1.2c3.2,0.5,4.4-1.1,7.2-1.9c3-0.9,5,0.7,7.7-0.6
	c4-1.9,5.1-3.6,9.3-1.5c2.8,1.4,4.6,0.4,7.6,0.3c2.5-0.1,6.1-0.6,8.5,0.3c2.5,0.9,5.5,3.7,7.8,5.2c3.2,2.1,6.1,3.7,9.5,5.4
	c1.8,0.9,3.2,2,5.2,2.3c2.6,0.4,5.2,0.3,7.8,1.3c1.7,0.6,3.3,2,5.1,2.4c1.8,0.4,3.8,0.1,5.6,0.5c3.6,0.8,7,2.9,10.6,3.8
	c3.1,0.8,6.3,0.3,9.2,1.2c2.8,0.8,4.3,2.7,7,3.5c4,1.1,8.5,0.5,12.4,2.1c2.8,1.1,4.2,2.7,7.4,2.7c6.9-0.1,14.1-0.3,16-8
	c0.9-3.5-0.9-4.8-3.3-6.9c-1.9-1.6-2.9-3.9-4.8-5.6c-2.3-2.3-2.5-4.3-4.1-6.9c-1.6-2.5-5.3-3.1-7.8-4.1c-1.6-0.6-2.6-1.4-4.4-1.6"/>
<path fill="none" stroke="#E1E1E1" stroke-miterlimit="10" d="M33,22.9c0.2,0.7,0.9,2.7,1.2,3.3c2.1,3.4,7.8,3.8,11.4,3
	C52,27.7,49.3,21,49,16.9c-0.2-2.5,0-5.9-3.5-5.8c-2.2,0.1-4.5,2.6-6.5,3.5C38,15.1,32.5,21,33,22.9z"/>
<path fill="none" stroke="#E1E1E1" stroke-miterlimit="10" d="M58,182.4c1.9,0.6,4.7,1.6,6.5,2.5c2.2,1.1,1.6,2.8,3.3,4.4
	c1.4,1.4,3.9,1.6,5.1,3.5c1.2,1.9,0.7,3.2,3.2,4.1c4.4,1.6,9.8,1.7,14.4,2.1c2.2,0.2,4.3,0.3,6.5,0.9c2.7,0.6,4.9,2,7.6,2.4
	c5,0.8,12,0.2,10.7-6.7c-0.7-3.6-4.3-4.7-5.8-7.7c-1.4-2.7-2.8-5.6-4.8-8.2c-2.3-3.1-8.3-4.5-12.2-4.3c-5.1,0.3-9.9,1-14.7,0
	c-2.5-0.5-4.9,0.1-7.3-0.2c-2-0.3-3.3-1.5-5.5-1.8c-4.4-0.4-10,1.7-14-0.7c-2.4-1.5-2.4-3.8-5.5-4.5c-2.9-0.6-3.9,0-5.9,1.7
	c-2.2,1.9-3.9,1.9-4.6,4.9c-0.3,1.6-1,4.6-0.5,6.3c0.4,1.4,2,4,2.8,5.2c2,3,4.1,0.7,6.7-0.6C48,183.9,54.2,181.3,58,182.4z"/>
<path fill="none" stroke="#E1E1E1" stroke-miterlimit="10" d="M324.7-5.6c-2.6,0.5-1,4.8,0.3,5.9c1.9,1.6,4.6,0.7,6.2,3.1
	c1.1,1.7,0.8,4,1.4,5.8c0.8,2.4,1.9,3.5,2.1,6.2c0.3,5.5-2.7,9.2-5.7,13.5c-1.6,2.3-2.7,4.8-5.2,6.3c-2.7,1.7-5.2,2.4-8.1,3.1
	c-2.8,0.7-5.1,2.3-8,2.3c-2.9,0-5.8-0.5-8.5-1.1c-1.5-0.4-3.3-0.2-4.7-1c-2-1-3.5-2.2-5.8-2.6c-3.2-0.6-8.9,1-11.7-0.6
	c-1.4-0.8-1.5-2.4-3.3-2.9c-1.5-0.5-3.5,0.4-5.2,0.7c-6,1-10-2.9-15.7-3.8c-2.5-0.4-5.3-0.5-7.8-1.4c-2.5-0.9-4.8-0.9-7.2-1.6
	c-2.3-0.7-3.9-2.7-6.3-3.2c-2.3-0.6-5-1-7.2-1.5c-1.9-0.4-4.3,0.2-6-0.8c-0.6-0.4-1.1-1.8-1.9-2.2c-0.7-0.3-2.4-0.2-3.2-0.3
	c-1.7-0.1-3.9,0.7-4.5-0.8c-0.1-0.3,0.6-0.7,0.5-1c-2.2-3.9-9.7-2.2-14.1-3.3c-4.8-1.3-8.8-3.4-13.7-2.4c-4.7,0.9-10,0.7-14.7-0.1
	c-3.8-0.6-9.3-2.5-12.1,1.7c-1.1,1.6-0.7,5.6-0.7,7.6c0,3.2-1.2,2.6-2.4,4.8c-1.1,2.1,0.6,2.9-1.4,4.9c-1.9,1.9-4.5,2.4-6.2,4.5
	c-0.3,0.4-1.3,1.8-1.5,2.2c-0.8,1.8-0.5,2.2-0.3,4.6c0.3,2.4,0.4,5.9-0.2,8.2c-0.7,2.7-2.7,3.9-0.3,6.6c1.8,2,4,4.4,6,6.3
	c1.8,1.7,3.5,2.8,5.4,4.1c2.3,1.6,2.7,2.6,3.6,5.3c0.7,2.1,1.9,5,3.6,6.7c1.4,1.4,3.1,1.8,4.9,3c3.5,2.5,7.7,3.6,11.1,5.7
	c1.9,1.2,3.5,2.9,4.8,4.8c1.1,1.6,3,3.3,3.6,5.1c0.8,2.2-0.2,4.9-1.3,6.7c-1.8,3-1.3,3.3-0.7,6.8c0.5,2.5,0.3,5.2,0.2,7.8
	c0,2.6,0.7,4.7,1.2,7c0.8,3.4,1.2,5.6,3.6,7.9c1.8,1.8,3.5,3.8,4.9,5.9c1.4,2.2,2.6,4.7,3.7,7.1c1.5,3.3,2.1,4.2,4.8,6.2
	c3.8,2.8,6.4,7,10.1,9.8c1.1,0.9,2.6,3.9,4,4.2c1.5,0.4,2.6-1.7,4-0.7c1.5,1,3.1,2.2,4.1,3.5c0.4,0.6-0.1,7.4-0.5,8.7
	c-0.6,1.9,1.4,3,3,3.6c2,0.7,3.7,0.6,5.5,1.9c1.6,1.1,4.3,1.4,4.8,3.3c0.4,1.6-2.7,2-3.3,3.5c-0.6,1.4,0.1,3.1,0.1,4.6
	c-0.1,2.1-1.1,3.7-1.8,5.6c-1.2,3,0.6,2.1,1.5,4.8c1.1,3.2-2.5,7.4-3,10.5c-0.1,0.7-0.1,1.8,0,2.5c0.3,1.5,0.1,0.6,1,1.9
	c0.7,1.1,2.3,1.2,0,3.6c-2.2,2.4,3.2,1.8,0.2,5c-0.9,1-1.3,3.4-4.3,1c0,0-0.6,0-0.7,0c-3.8,1.8,1.9,10.4-3.5,12.4
	c-1.1,0.4-2.6-0.2-3.8,0c-1.1,0.2-2.4,1-3.4,1.6c-2.5,1.3-3.5,3.9-6.3,3.9c-1.2,0-3.3-0.2-4.2-0.8c-1.8-1.2-1.8-3.4-3.3-5.5
	c-1.3-1.7-3.3-5.2-5.4-5.7c-2.7-0.7-4.2,3.8-5.4,6.2c-1.5,3-1.2,5.3-4.8,6.3c-2.1,0.6-5.8,1.6-7.7,1.3c-2.7-0.4-4.8-2.5-7.6-2.4
	c-6.2,0.2-10.6,0-16.2-3c-2.7-1.5-5.8-2.1-8.5-3.6c-3-1.8-5.3-4.6-8.3-6.6c-5.2-3.3-12.1-3.1-16.9,0.7c-3,2.3-5,5.9-7.9,8.3
	c-2.9,2.4-0.9,8.5-4.7,8.5c-2.5,0-6.1-1-8.5-1.9c-2.6-1-5.6-1.8-7.9-3.1c-2.5-1.3-4.7-1.7-7.6-2.2c-2.6-0.5-4.5-1.8-6.8-2.7
	c-2-0.8-3.5-0.5-5-2.3c-0.7-0.8-0.4-1.4-1.7-2.2c-0.9-0.5-2-0.7-3-1c-2.7-0.9-3.3-2.1-5.2-3.6c-1.3-1-3.1-1.3-4.3-2.2
	c-1-0.7-1.2-1.8-2.1-2.6c-0.8-0.7-1.8-0.7-2.7-1.4c-0.9-0.7-0.9-2.1-1.6-2.7c-2.2-1.8-3.2,0.9-3.5,3c-0.4,2.7,0.6,4.5,0.8,7.3
	c0.2,2.3-0.4,4.5-0.8,6.7c-0.3,2.2-0.5,4.7,0.2,7c0.7,2.3,1.9,3.5,2.1,6.1c0.1,2.2,0.3,4.8-0.3,7c-0.6,2.1-2.1,3.1-2.5,5.3
	c-0.6,4.1,0.4,8.5-0.3,12.8c-0.5,3.1-2.4,9.9,3.3,9.2c2.7-0.3,3.4-3,4.9-4.5c1.6-1.5,3.4-1.2,5-2.5c2.8-2.3,2.9-4.7,6.6-4.2
	c2.6,0.4,4.5,1.5,6.9,2.2c3,0.9,4.7-0.2,6.8,2.5c1.4,1.9,2.1,4,3.2,5.8c0.6,0.9,2.2,1.6,3,2.5c0.6,0.6,0.9,1.8,1.5,2.3
	c1.7,1.7,4.5,1.6,6.1,3.7c1.3,1.6,5.6,1.1,6.4,3.2c1.3,3.4-1.2,3.3-3.3,4.1c-2.4,0.9-4,3.7-6.2,4.6c-2.9,1.3-5.3-1.2-8.2-1
	c-2.4,0.2-3.5,1.5-6,1.8c-3,0.3-5.1,0.3-7.8,1.5c-2.2,1-4,0.8-6.2,1.2c-2.7,0.6-3.3,2.7-6.2,1c-2.7-1.5-6.2-8.3-9.8-7.7
	c-3.5,0.6-3.6,8.6-3,11c0.7,2.6,1.5,4.7,2,7.3c0.4,2.1,1.2,3.2,3,4.4c1.8,1.2,3.6,2,5.8,2.3c1.3,0.2,4.6,0.4,5.5,1.3
	c1.8,1.8-0.4,3.4-0.3,5.2c0.1,2.1,3.2,4.3,0.7,5.7c-2.3,1.2-2.9,0.6-4.9,2c-1.4,1-2.8,1.9-4.6,1.9c-4.8,0-3.7-6.2-2.2-9.2
	c0.8-1.5,3.2-3,2-4.8c-0.8-1.2-4-1.5-5.3-1.2c-4.5,1.1,0.6,5.4-1.3,7.7c-1.9,2.4-6,2.6-8.2,4.7c-2.4,2.3-4.2,5.9-6.6,7.2
	c-0.8,0.4-3.4,3.7-4.6,5.1c-1.5,1.8-4.2,2.2-6.1,3.7c-1.7,1.3-2.6,2.9-4.5,4.1c-1.1,0.7-2.1,1.3-3.2,1.8"/>
<path fill="none" stroke="#E1E1E1" stroke-miterlimit="10" d="M90.2,268.1c2,2,4.9,0.4,7.2,1.6c2,1,2.1,2.4,4.8,2.2
	c6-0.4,1.5-8.3-1.5-10.3c-3.3-2.1-8.5-1.8-12.2-2.5c-3.9-0.8-8.7-4.9-12.8-3.2c-2.3,0.9-2.2,2.5-0.5,4.2c1.7,1.8,4.2,2,6.6,2.2
	C84.9,262.7,87.9,265.8,90.2,268.1z"/>
<path fill="none" stroke="#E1E1E1" stroke-miterlimit="10" d="M183.2,304.1c0.2,0.3,1.5,3.3,3,4c2,0.9,3.9-0.5,5.5-1.7
	c1.4-1,3.8-2.6,3.7-4.5c0-1.9-1.8-2.6-3.2-3.6c-3.5-2.3-6.1-4.4-10.5-2.2c-2.5,1.2-1.3,1.2-0.2,3.3
	C182.1,300.5,182.5,303.3,183.2,304.1z"/>
<path fill="none" stroke="#E1E1E1" stroke-miterlimit="10" d="M28.9,364.6c2.6-1.8,5-3.8,7.5-5.8c3.8-2.9,8.2-2.5,12.9-2
	c1.5,0.1,3.1,0,4.5,0.5c1.5,0.6,0.7,1.4,2.6,1.2c2.8-0.4,4.8-2.8,6.4-4.7c1.9-2.2,5.2-3.7,7.5-5.5c2.4-1.8,4.5-4.8,6.9-6.3
	c2.5-1.5,7.4-0.9,10.3-0.4c3,0.5,6.8,2.7,9.7,2.6c2.8-0.1,0.7-0.8,0.6-2.8c0-2,1.5-2.6,2.2-4.5c0.6-1.7,3.5-8.9,4-5.5
	c0.1,0.8,0.6,0.1,1.5-0.2c1.3-0.4,1.9-1.4,2.8-2.5c1.7-2,2.6-2.5,5.2-2.5c2,0,4.1,0,5.8,0.7c2.8,1.1,3.8,2.1,2.9,4.5
	c-0.7,2-4.2,0.2-5.2,2.8c-0.6,1.8,1,4.6,1.8,6.4c0.8,2.1,2,5.1,4.4,5.1c3.5,0,2.8-3.7,4.5-5.5c2.4-2.5,8.5,7.3,10.5,1.5
	c0.7-2.1-1.5-5.5-2.5-7.4c-2.5-4.7-5.8-8.1-9.3-11.6c-4.5-4.6-4.2-7.9-2-13.8c1.1-2.9,0.7-5.2,4-6c2.3-0.6,4.2-1.7,6.5-3.5
	c2.4-1.9,2.5-1.2,1.7-3.5c-0.7-2-1.1-4.2-1.8-6.2c-0.6-1.7-2.1-3.1-2.6-4.6c-0.6-1.9-1.5-3.5-1-5.6c0.4-1.8,3.7,1.5,5.2,0.4
	c1.8-1.3-4.1-3.7-5.5-5.9c-1.4-2.3-2.3-4.3-3.1-6.8c-1.4-4.5-3.4-7.9-6.9-10.8c-3.1-2.6-0.1-3,3-2.7c3.4,0.4,6.5,2.7,9.7,4
	c6.5,2.5,10.7-0.9,17-1.9c3.8-0.6,6.4,0.6,9.8,1.6c2.9,0.9,6,1.6,8.8,2.8c3.9,1.6,8.1,5.6,11.9,3.8c1.4-0.7-0.1-2.6,1.1-3.5
	c0.5-0.4,3.2-0.6,3.9-0.4c1.2,0.4,1.7,1.7,3.3,2c1.6,0.4,3.1,0,4.7-0.1c3.5-0.2,5,0.4,7.5,2.5c2.7,2.2,6.2,3.6,9.7,2.3
	c3.1-1.2,6.1-3.1,9-4.8c1.8-1,2.4-2.1,3.9-3.1c1.2-0.9,3.2-1,4.5-1.7c2.6-1.2,5-3.8,6.8-6.1c1.3-1.7,2.3-3.7,3.8-5.3
	c1.6-1.5,3.6-2.2,5.2-3.6c1.5-1.3,2.6-3.4,4-5c1.7-2,3.7-3.9,5.2-6c1.1-1.6,2.8-3.8,2.8-5.8c0-1.9-1.4-3-1-4.9
	c0.4-1.8,2.5-3.3,3.2-5c0.7-1.6,0.2-3.5,0.5-5.3c0.5-3,3.7-4.4,7.3-5.8c2.4-0.9,4-4.3,6.5-4.7c2.5-0.4,3.6,0.8,5.2,2.7
	c2.7,3.2,6.6,7.2,11.1,7.3c6.3,0.1,11.1,1.8,17.2-1.3c2.6-1.3,4.2-0.7,6.9-1.5c4.1-1.1,5.9-5.2,7.8-8.5c1.3-2.1,4-5.6,2-8.2
	c-1.7-2.2-5.5-1.4-7.3-3.6c-2.1-2.6-2.5-5.3-5.5-7.3c-2.3-1.5-4.6-1.2-7.1-2.1c-3.1-1.1-6.2-2.7-7.7-5.6c-1.3-2.4-2.8-4.7-4.4-7
	c-2.2-3.1-2.7-4.8-2.7-8.5c0-3.4-1.6-4.5-4.1-6.5c-2.2-1.7-3.8-2.6-6.2-3.6c-1.8-0.8-5.3-2-6.7-3.4c-2.1-1.9-1.7-3.2-5-3.7
	c-2.8-0.4-4.6,0.4-7.2,0.4c-2.3,0-3.5-2-5.2-0.4c-0.7,0.7-0.5,1.9-1.3,2.7c-0.9,0.8-2.1,0.8-3.3,1c-2.8,0.5-4.9,2-7.7,2.5
	c-3.4,0.6-6.4,1.1-9.8,2c-6.2,1.7-15.4,5.7-21.3,1.3c-1.9-1.4-2.8-3.7-4-5.6c-1.2-1.8-5.4-3.4-3.9-5.2c0.8-0.9,0.7-0.7,0.7-1.1
	c-0.1-4.7-7.8-5.1-10.1-9.2c-1.1-2.1-2.9-3.5-2.9-6c0-3.8,2.8,0.4,4.7-1.1c2.1-1.7,2.2-0.4,4.5-1.7c2.4-1.3-2.1-5.2-2.8-8
	c-0.5-2.2-0.7-4.2-0.9-6.4c-0.3-3.1-1.2-4.8-2.2-7.5c-0.9-2.4-0.4-5-1.6-7.3c-2-4-7.1-4.8-10.5-7.4c-3.2-2.5-7-4.1-10.6-6.1
	c-1.6-0.9-3.1-1.2-4.4-2.5c-1.4-1.4-2.3-2.8-4-4c-2.4-1.7-6.2-3.7-7.5-6.2c-1.5-3-2.9-7.3-2.8-10.8c0.2-4.1-2.8-8.6,0-11.9
	c1.9-2.2,1.5-5.2,2.6-7.5c0.9-2.1,3.2-2.3,4.3-3.7c1.4-1.9,0.4-3.6,2.4-5.4c2.9-2.5,3.4-2,6.5-0.7c2.3,0.9,4.8,0.4,7.2,0.3
	c2.7-0.1,3.8,0.9,6.1,2.2c4.2,2.5,10,3.4,15,2.5c2.6-0.4,4.1-0.8,6.8-0.5c2.7,0.3,4.2,1,6.7,2.1c2.3,1,4.2,2.3,6.6,3.4
	c2.6,1.2,5.5,1.4,8,2.3c2.3,0.9,4.1,0.1,6.8,0.2c2.6,0.1,4.9,0.7,7.2,1.2c3,0.7,5.8,0.8,9,0.8c1.2,0,2.3,0,3.5,0
	c2.2,0,3.3,0.8,5,1.3c5.1,1.4,9.9-0.5,15,1.5c1.8,0.7,3.5,1.2,4.8,2.8c0.6,0.8,0.7,1.8,1.5,2.4c1.3,1.1,7.1,4.4,8.2,3.2
	c2.8-2.9,12.4,1.8,14.2,2c2.7,0.3,5.2-0.5,7.8-0.8c2.6-0.2,4.7-0.1,7.2-0.7c6.5-1.7,11.6-4.8,16.3-9.5c2.4-2.3,4.1-3.8,5.8-6.7
	c1-1.8,1.9-3.8,3-5.6c0.7-1,2-1.9,2.6-3c0.8-1.7,0.4-3.9,1.2-5.5c0.8-1.6,2-1.7,2.1-3.7c0.1-1.6-0.5-3.4-0.6-5.1
	c0-2.7,4-17.8,0.5-17.4"/>
<path fill="none" stroke="#E1E1E1" stroke-miterlimit="10" d="M360-5.1c0.1,3-1.9,3.2-3.2,5.3c-1.3,2.1-2.5,3.9-2.8,6.3
	c-0.3,2.4,0.4,5.2-0.7,7.5c-0.8,1.6-2.4,2.8-2.8,4.6c-0.2,1.1,0.5,2.3,0.1,3.5c-0.4,1.1-1.7,2-2.3,3c-1.3,2.5-1.1,5.5-2.4,8.1
	c-1.3,2.5-2,5-3.9,7.4c-1.9,2.4-2.6,5.2-4.6,7.4c-1.9,2.1-4.5,3.8-6.5,5.8c-2.4,2.6-4.9,2.2-8.2,2.7c-2.5,0.3-5.3-0.1-7.8,0.2
	c-2.4,0.4-5.7,1.4-8,2.2c-4.8,1.6-9.6,1.6-14.8,1.6c-2.3,0-4.5-0.3-6.8-0.2c-3.1,0.1-5.3-1.2-8.4-1.8c-1.7-0.3-2,0.5-3.4-1
	c-0.9-1-0.9-2.6-1.5-3.8c-1.3-2.4-2.8-3.3-5.5-3.5c-2.7-0.2-3.6-0.3-5.8-1.9c-2-1.5-4.2-3.1-6.7-3.6c-2.1-0.4-3.9-0.8-5.8-1.3
	c-1.2-0.3-2.5-0.1-3.7-0.2c-1.2-0.1-2.4-0.8-3.5-1c-2.3-0.2-6.1,0.5-8.3,1.1c-3.4,1-3.5,1.6-6.5,0c-2.1-1.1-3.7-0.8-6-0.7
	c-2,0.1-3.8-0.3-5.8-0.7c-1.4-0.3-3-1.5-4.2-1.8c-1.7-0.3-4.9,1.7-5.2-0.1c-0.2-1.2,3.1-2.1,2.2-3.1c-2.8-3.2-8.8,1.8-13,2.2
	c-4.3,0.5-9.1,2.5-13.5,2.5c-2.2,0-4.7-2.2-6.5-3.3c-1.8-1-3.1-2.5-5.2-3c-3.8-0.8-8.4,3.7-10.6,6.7c-1.3,1.9-1.3,3.7,0,5.4
	c0.9,1.1,3.6,2.4,4,3.7c0.5,1.7-1.6,2.6-2.1,4.3c-0.6,1.9-0.2,3.9,1.4,5.3c3.9,3.3,9,1.2,12.6,4.9c0.8,0.8,1.2,1.8,2,2.5
	c0.9,0.9,2.1,1.3,3,2.2c2,2.2,1.3,3.8,4.6,4.7c1.7,0.5,2.5,0.5,3.9,1.6c0.6,0.5,1.2,1.7,1.8,2.2c1.9,1.5,3.8,1.9,6,2.6
	c2.7,0.9,2.8,2.6,3.3,5.2c0.4,2.1,1.5,3.8,1.7,5.7c0.3,2.4-0.3,4.5,0.3,7c0.4,1.9,1.1,3.9,2,5.5c2.2,3.8,0.9,6.9,1.7,11.2
	c0.3,1.8,1.6,3,2.5,4.6c0.9,1.8,1.7,4.2,2.2,6c0.9,3.2,2.4,8.2,6,9c2.4,0.5,4-0.5,6-1.5c2.3-1.1,5.1-0.9,7.2-2
	c2.2-1.1,1.7-2.2,4.5-1.8c2.1,0.4,5.8,2.7,7.8,2.7c5.4,0.1,8-2.3,12.7-2.3c2.9,0,3.7-1.3,6-2c2.8-0.9,6.9,1,9.5,1.5
	c5.9,1.1,9.5,3.1,13.6,7.5c3.7,4.1,8.3,7.8,12.7,11.5c2.8,2.3,5.8,4.6,8.2,7.3c1.8,2.1,2.3,4.5,4.5,6.2c2,1.5,4.8,1.3,7.3,1.6
	c1.4,0.1,2-0.3,3.5,0.2c1.6,0.6,2.8,1.8,4.5,2.3c3.2,0.9,6.2,1,9.2,2.6c2.5,1.3,5,3.8,7.1,5.7c1,0.9,2.3,2,3,3.1
	c0.7,1.1,0.7,1.7,1.3,2.8c1.7,3.6,2.3,4.1,0.5,7.7c-2.1,4.2-3.2,8.6-5.1,12.7c-0.8,1.7-1.2,3.5-2.4,4.9c-1.3,1.6-3.2,2.9-4.7,4.4
	c-6.4,6.3-9.6,9.2-18,12c-1.5,0.5-3.8,0.4-5.1-0.4c-2.4-1.3-4.7,0.1-7.4,0.2c-1.8,0.1-3.7-0.1-5.5-0.1c-2.2,0-3.5,1.3-5.4,1.5
	c-3.4,0.5-11.9-4.2-14.1-6.5c-2.6-2.7-4.7-9-9.1-6.4c-5.5,3.2-1.5,6-1.3,10.7c0,0.3,0,0.7,0,1c-0.5,4.2-5.2,7.1-7.4,10.8
	c-1.5,2.5-2.1,4.6-2.9,7.2c-0.9,2.8-3.9,4.3-4.2,7c-0.4,3.1,2.1,4.5-0.9,7.3c-2,1.9-4.1,3.6-6.1,5.4c-2.1,1.9-3.9,3.8-6.5,4.8
	c-2.5,0.9-4.5,0.7-7,2.1c-2.6,1.4-5.6,2.4-7.6,4.6c-1.5,1.6-2,3.6-3.5,5.1c-2.6,2.5-6.7,4.2-9.6,6.5c-2.4,1.9-4.6,4.4-7.2,2.5
	c-1.1-0.8-1.8-0.5-3-0.7c-1.7-0.3-1.6-0.4-3-1.4c-0.5-0.3-1-1.1-1.5-1.3c-0.6-0.3-1.5,0.2-2.1-0.1c-1.6-0.9-2.1-2.5-4.1-3.2
	c-1.2-0.4-2.6,0-3.8-0.3c-1.5-0.4-2.9-1.2-4.5-1.6c-2.6-0.6-4-1.3-6.3-2.5c-2.3-1.3-5.2-2.1-7.7-2.4c-3.5-0.5-4.7-0.7-7-3.5
	c-2.4-2.8-3.9-4.5-7-2c-2.8,2.3-2.3,3.4-3.7,6.2c-0.8,1.6-1.5,1.1-1.5,2.7c0,1.7,1.2,2.7,1.9,4.2c0.8,1.5,0.9,2.2,1.1,3.8
	c0.1,0.9-0.5,3.2-0.3,3.8c0.9,2.3,6.8,2.5,7.2,5c0.1,0.9-1.2,1.8-1.5,2.7c-0.3,1.1-0.1,2,0.1,3c0.4,2.7,1.5,4.9,2.3,7.3
	c1.1,3.3,0.7,4.8,3.4,7.4c2.3,2.2,1.6,4.3,2.6,7.2c0.3,1,1.1,2,1.5,3c0.5,1.4,0.3,1.8,0,3.6c-0.2,1.4,0,3.1,0,4.5
	c0,2.3,1.4,4.9,0.8,7c-0.7,2.3-3.9,5.2-5.5,7c-2,2.4-4.4,4.4-6.6,6.6c-1.8,1.8-2.4,2.8-4.5,4.3c-2.5,1.7-4.9,3.3-7.2,5
	c-1.5,1.1-3.1,2-4.8,2.8"/>
<path fill="none" stroke="#E1E1E1" stroke-miterlimit="10" d="M166.8,366.3c0.5-4.6,1.5-9,2.9-13.5c0.9-2.9,2.8-5.5,4.9-7.5
	c1.4-1.3,2.5-2,3.6-3.4c0.8-1.1,1.2-2.5,2-3.5c3.4-4.3,8.3-9.1,12.5-12.5c4.2-3.4,9.4-4.9,13.9-7.9c2.3-1.5,4-2.9,6.5-4.1
	c2.4-1.2,4.2-3.3,6.7-4.3c5-1.8,11.1-3,16.3-3.8c6.2-1,10.6-0.3,14.9,4.8c1.8,2.1,2.9,3.9,5.8,4.7c2.7,0.8,5.4,1,8.1,1.8
	c3.7,1.1,5,0.7,8-1.5c2.1-1.5,4-2.8,6.4-3.7c4.6-1.7,11.4-0.1,16.2,0.9c3.1,0.7,5.9-0.1,9,0.2c3.3,0.3,5.9,2.4,9,3.3
	c2.3,0.6,4.5,1.2,6.7,1.9c2,0.6,4.4,0.2,6.6,0.3c2.3,0.1,3.8-0.1,5.8,0.6c2.1,0.8,3.4,1.7,5.7,1.9c2.4,0.2,4.7-0.8,7-0.7
	c3.7,0.1,1.5,2.3,3.4,4.4c1.6,1.9,3.9,1.9,6,4c2,2,6.5-2.7,9.5-5.2"/>
<path fill="none" stroke="#E1E1E1" stroke-miterlimit="10" d="M228.3,366.5c0.2-1.6,0.7-3.2,1.6-4.4c3.2-5,4.7-4.7,6.9-10.6
	c0.6-1.6,1.3-7.1,0.8-8.9c-0.7-2.6-6.2,0.7-8.4-1.6c-1.2-1.2-1.2-3.3-2.8-4.1c-1.3-0.5-3.4,0.1-4.8,0c-2.6-0.1-4.3,0.3-7,0.4
	c-2.8,0.1-5.3-1-8.1-0.2c-1.5,0.4-6.5,1.5-8.1,2.8c-1.1,0.8-1.2,1.7-2.6,2.1c-1.1,0.3-2.4-0.1-3.5,0.3c-4.9,1.6-7,8.8-9.1,12.8
	c-1.4,2.6-3.2,5.1-4.3,7.7c-0.5,1.1-0.7,2.2-0.9,3.4"/>
<path fill="none" stroke="#E1E1E1" stroke-miterlimit="10" d="M364.9,331.5c-2.3,0.9-3.7,2.9-6.1,3.6c-1.8,0.5-4.8,0.7-6.3-0.8
	c-1.6-1.6-1.2-3.8-3.5-5.1c-1.8-1.1-4-1.4-5.8-2.3c-1.7-0.7-3.5-2.3-5.4-2.6c-2.5-0.3-4.3,1.8-7,1.8c-3.3-0.1-6.1-0.1-9.2,0.9
	c-2.4,0.8-4.5,1.8-7.1,2.3c-2.5,0.5-4.3,0.7-6.4,2.6c-3.6,3.4-7.9,6-11.6,9.4c-1.6,1.5-3.5,2.1-4.5,3.9c-1.2,2.2-0.9,5.7-0.2,8
	c0.7,2.3,1.5,4.8,2.2,7.2c0.5,1.5,1.4,3.1,2,4.7"/>
<path fill="none" stroke="#E1E1E1" stroke-miterlimit="10" d="M312.3,366c0-0.3,0.1-0.5,0.1-0.8c0.1-0.5-0.7-4-0.4-6.1
	c0.3-1.9,0.8-3.7,1.7-5.3c2.1-3.7,3.9-7.6,6.4-11.2c1.2-1.6,2.4-3.2,4.1-4.4c1.1-0.8,4-3.3,5.2-3.6c1.1-0.3,4.9,0.4,6.3,0.8
	c1.2,0.3,1.4,1.5,2.7,1.5c0.9,0,2.1-2.1,3-1.7c6.7,3,5.8,0.9,10.8,1.7c3.3,0.5,2.2,3.5,4.4,5.5c2.1,1.8,5.1,0.5,7.3-0.5"/>
<path fill="none" stroke="#E1E1E1" stroke-miterlimit="10" d="M305.7,293.6c-1.3,0.9,0.6,2.8,1.6,4c1,1.1,2.8,0,4.2-0.2
	c0.9-0.1,3.4-0.1,4.2-0.6c1.3-0.7,1.7-2.7,1-4c-0.6-1.1-2.3-1.4-3.4-2.2c-1.1-0.8-2.2-1.5-2.8-2.4c-0.5-0.7-0.9-2.8-2.2-3
	c-4.7-0.8-1.3,5-2.3,7.2L305.7,293.6z"/>
<path fill="none" stroke="#E1E1E1" stroke-miterlimit="10" d="M267,273.1c-0.8-1.4,1.6-5-0.5-6c-1.6-0.8-3.7,1.1-4.6,2.2
	c-2.1,2.5-5.3,4.3-5.7,7.6c-0.2,2.1,6.2-0.8,8.3-0.1c0.9,0.3,2.4,2,3.4,1.1C268.7,277.2,267.3,273.6,267,273.1z"/>
<path fill="none" stroke="#E1E1E1" stroke-miterlimit="10" d="M284.2,279.6c2.1,1.5,4.5,1,7.3,0.7c1.1-0.1,2.4-0.1,3.5-0.3
	c0.6-0.1,2.1-0.8,2.5-0.7c1.1,0.2,1.7,1.3,2.7,1.8c0.8,0.4,2.3,0.3,3.2,0.5c2,0.4,4.1,1.1,6.1,1.4c1.9,0.3,4.7,0.8,6.2-0.9
	c0.9-1,0.4-2.1,1-3.2c0.7-1.3,1.7-1.7,3-2.6c1.1-0.7,2.9-1.7,3.6-2.8c0.7-1,0.3-2.7,1-3.6c1.7-2.3,4.8-1.4,4.3-5.4
	c-0.4-3.7-2.9-2.3-0.3-5.9c2.1-3,2.5-6.9,4.9-9.7c1.5-1.8,3.4-2.7,4.3-5.1c0.9-2.3,0.2-4.8,2.4-6.3c2.1-1.4,3.4-1.2,5.1-3.2
	c1.4-1.7,2.3-3.7,3.8-5.2c2-1.9,3.8-1.6,4.2-4.9c0.3-2.6,1.8-5.7,0.2-7.6c-2.3-2.7-6.1,4.4-7.4,7.2c-1.2,2.5-3.1,4.9-5.6,6.5
	c-2.5,1.7-5.1,2.6-7.4,4.6c-1,0.8-2.3,1.6-3.1,2.5c-1.4,1.4-1.7,3.3-3.3,4.5c-1.7,1.4-4.4,1.6-6.5,2.4c-2.5,1-5,2.2-7.6,3.1
	c-5.6,1.8-11.5,1.9-17.2,3.2c-4.5,1.1-9.3,2.4-14.2,1.8c-2.2-0.3-4.9-2.1-7.2-1.2c-1.3,0.5-3.8,3.3-4.6,4.4c-3.1,4.5-2.1,8.3,3.1,9
	c3.3,0.5,3.5,0.3,4.5,3.7c0.7,2.3,1.5,4.8,2.7,7.1c0.6,1.1,1.3,2.7,2.3,3.5C283,279.7,283.4,279,284.2,279.6z"/>
<path fill="none" stroke="#E1E1E1" stroke-miterlimit="10" d="M220.5,107.6c1.6,1.5,5-1.8,4.2-3.4c-0.7-1.4-3.3-1.4-4.1,0.1
	C220.3,105,219.5,106.6,220.5,107.6z"/>
<path fill="none" stroke="#E1E1E1" stroke-miterlimit="10" d="M362.3,55.3c-1,1.3-1.8,2.6-2.3,4.4c-0.9,3.1-2.2,5.5-5.2,6.9
	c-1.3,0.6-2.7,1-4,1.6c-2,1-1.9,1.8-3,3.3c-1.9,2.4-5,2.9-7.5,4.5c-1.2,0.8-2,2.1-3.2,2.8c-1.5,0.9-3.5,1.1-5.2,1.7
	c-2.7,1-5.4,2.8-8.5,2.2c-1.4-0.3-2.8-1-4.2-1.2c-1.6-0.2-3.3,0.2-5,0c-3.9-0.5-3.2,1.5-8.1,2c-2.1,0.2-3.6-4.3-5.9-2.6
	c-2.8,2,0.5,6.1-0.6,8.7c-1.4,3.3-4.2,1-6.4,1c-2.7,0-4.8,2-7.3,2.9c-2.7,1-5.8,1.8-8.3,0.7c-2.7-1.2-4.5-3.1-6.9-4.6
	c-1.4-0.9-5.8-1.1-4.2-4.1c0.5-1,1.7-0.1,2.3-1.2c1-1.8-0.8-2.1-1.8-3c-0.5-0.4-1.1-0.3-1.5-0.8c-0.4-0.4-0.1-1.1-0.4-1.5
	c-0.7-0.8-1.5-1.4-2.5-1.8c-2.7-1.2-4.8-0.2-7.6,0.9c-2.6,1-3.8,1.7-6.5,1.7c-2.2,0-5.1,1-6.7,0.3c-1.5-0.7-3.5-2.4-5.1-3.4
	c-0.9-0.6-2-1.1-2.8-1.7c-0.5-0.4-1.3-1.8-2-2.1c-4.3-2-8.6,5.4-10.3,8c-2.4,3.7-3.8,7.8-7,11c-1.7,1.7-3.1,2.3-2.6,4.8
	c0.4,2,2.1,3.1,3.1,4.7c2.4,3.7,2.5,5.7,5.3,8.5c3.5,3.6,8.7,0.7,12.6,0.1c2.5-0.4,4.8,0.4,6.9,0.7c3,0.4,5.2-1,7.8-2
	c2.3-0.9,4.8-2.1,7.1-2.5c2.7-0.5,5.3,0.7,8,0.2c4.2-0.7,7-4.6,11.7-3.5c2.3,0.5,4.4,2.4,5.6,4.5c0.7,1.2,1.6,6.3,3.2,7.2
	c1.7,1.1,3.9,2,5.8,3.1c2,1.1,4.3,1.3,6.4,2.2c1,0.4,2.8,0.8,3.6,1.5c0.9,0.8,0.8,2.1,1.6,2.8c1.4,1.3,4.6,0.9,6.4,1.5
	c2,0.7,3.2,2.1,5.2,2.8c2.3,0.8,5.5,0.1,7.7,1.6c2.1,1.4,2.8,3.3,5.8,2.9c2.2-0.3,2.1-2,3.5-3.7c1.3-1.6,3.4,1.8,5.5,1.2
	c3-0.8,3.4-4.1,3-6.5c-0.1-0.9-0.1-1.6,0.5-2.5c0.8-1.1,1.8-1.4,3-1.8c1.3-0.4,2.9-0.2,4.1-0.7c1.1-0.4,1.4-2.1,2.6-2
	c1.2,0.1,2.4,3,3.8,3.1c2.3,0,5.4-4.6,6.5-6.2c1.6-2.5,3.1-5.3,4.6-8.1"/>
<g>
	<path fill="none" stroke="#E1E1E1" stroke-miterlimit="10" d="M361.4,43.6c-0.1,0.2-0.2,0.3-0.2,0.5c-0.5,1.1-3.3-0.1-4.2,1.1
		c-11.7,14.8-29,18-46,19.4c-2.3,0.2-4.3-0.2-6.8-0.2c-2.5,0-5-0.1-7.2,0.5c-4,1.1-7.1,5-11.3,5.5c-3.4,0.4-8.4-1.8-11.3-3.4
		c-3.3-1.9-6.6-5.1-10.2-6.3c-1.9-0.6-3.8-0.9-5.5-1.9c-1.1-0.6-1.9-1.6-3.2-2c-1.2-0.4-2.6,0-3.8-0.3c-3.2-1-5.3-4.9-8.2-6.4
		c-2.2-1.2-5.9-1.3-8.5-1c-9.5,1.3-19.6,1.5-29.3,1.2c-2.5-0.1-5.2-1-5.5,2.2c-0.3,3.3,3.1,2.2,4.7,4c1,1.1-1.2,1.9-1.4,3.2
		c-0.3,1.7,1.1,2.2,1.6,3.7c0.7,2.4-0.4,4.2-1.8,5.6c-1.1,1.1-1.3-0.4-1.5,1.7c-0.1,0.7,0.6,2.5,0.8,3.3c0.8,3.1,2.4,3.4,4.5,5.7
		c2.2,2.4,1.1,4.8,1.3,7.5c0.1,2.7,0.4,6.1,1,8.8c0.2,1.1,0.8,1.5,1.2,2.5c0.5,1.2,0.5,2,0.8,3.2c0.6,2.2,2.3,3.9,2.8,6.3
		c0.2,1-0.2,2.2,0,3.3c0.2,0.8,1,2,1.3,2.9c0.7,2.3,1.5,3.9,2.5,6c1,2.3,0.9,3.8,3.6,4.3c3.2,0.6,5.4-0.9,8.2-1.7
		c2.2-0.7,5.1-1.4,7.5-1c1,0.2,1.7,1.2,2.8,1.2c1.3,0,2.8-1.1,4.1-1.6c3.3-1.3,6.2-1.2,9.2-3.1c2.4-1.6,5.5-3.1,8.4-3.1
		c2.9,0,6.3,3,9.1,4.3c1.3,0.6,3.5,1.2,4.7,2.2c1.2,1,1.7,2.9,3.2,3.8c1.7,0.9,3.9,0.4,5.6,1.7c0.6,0.4,0.9,1.4,1.5,1.8
		c0.8,0.5,1.9,0.1,2.6,0.6c2.2,1.4,0.3,7.4,2.6,8.9c2.1,1.4,3.6,2.1,5.4,3.3c2.2,1.4,6.1,3.4,8.5,4.2c1.5,0.5,3.3,0.1,4.8,0.8
		c1,0.5,1.8,1.5,3,2c2.8,1.3,6.3,3.1,9.4,3.9c2.3,0.6,4.8,0.1,6.9,0.9c1.3,0.5,2.7,1.6,4.1,2.2c1.5,0.7,1.8,1.4,3,2
		c2.4,1.3,5.4,1.3,6.4,4.5c0.8,2.3,0.8,4.2,2.1,6.4c2.2,4,5.6,7.4,7.6,11.5c2.2,4.3,1.7,9.4,2.4,14c0.4,2.4,0.5,4.3-1,6.3
		c-1.2,1.6-3.3,3.7-4.8,5.2c-3.7,3.8-7.6,7.2-11.4,10.8c-0.9,0.8-2.1,1.2-2.5,2.5c-0.4,1.2,0.1,2.1-0.5,3.2c-1.1,2-3.6,4.1-5.5,5.5
		c-3.1,2.3-6.6,3.6-9.9,5.7c-2.1,1.4-5.4,2.8-7.8,2.9c-2.9,0.2-5.7-1-8.4-1c-3.1,0-6.1-0.5-9.3-0.2c-4.9,0.4-10.9,3.4-14.7,0.2
		c-1.5-1.3-4.1-3.5-6-2.7c-1.3,0.5-4.3,3.9-5.5,5.1c-1.8,1.9-2.3,5-3,7.5c-0.6,2.1-1.1,4.1-1,6.5c0.2,4.2-2.2,8.7-3.7,12.7
		c-0.7,1.7-0.4,4-1.3,5.7c-1.9,3.3-4,0.5-6.3,1.3c-2.7,1-4.2,2.6-7,2.6c-1.5,0-2.9-0.3-4.5-0.1c-1.8,0.3-3.9,0.2-5.4,1.3
		c-3.6,2.7-4.2,6-7.2,9.4c-1.9,2.2-6.6,7.4-0.1,5.8c4.4-1.1,6.5-3.7,10.9-1.3c3.8,2.1,9.9,4.1,10.1,4.3c1.8,1.6,4.1,2.5,4.3,2.7
		c1.2,0.8,3.1-0.4,4.4,0.3c0.7,0.4,0.8,1.2,1.6,1.7c1.4,0.8,3.3,2.1,5.1,2.8c1,0.4,2.2,0.6,3.1,1.2c1.1,0.8,0.9,2.3,1.8,3
		c4.5,3.5,6.3-10.8,7.7-11.9c0.5-0.3,1.1,0.2,1.7,0.7c0.8,0.6,2.1,3.2,2.8,3.3c2.7,0.7,2.7,2.3,4.3,4.2c2.7,3.2,8.9,3.5,12.2,3.5
		c2.3,0,4.5-0.4,6.8,0c2.1,0.4,4.1,0.9,6.3,1c5,0.2,9-1.1,12.9,2.3c2.8,2.5,5.5,5.9,9.3,6.7c2.8,0.6,3.5,1.8,6.1,0
		c1.8-1.2,4.7-4,7-3.3c1.6,0.5,2.4,3.1,4.7,3.1c3.4,0,3.4-2.8,2.7-5.3c-0.7-2.4-2-4.5-1.4-7.1c0.6-2.6,1.4-4.3,0.5-7.2
		c-0.7-2.3-2.3-4.1-3.8-5.9c-2.2-2.6-1.5-3.7-1.9-7.1c-0.5-3.3-2.1-4.8,0.4-7.3c1-1,2.2-1.5,2.8-2.8c0.6-1.4,0-3.3,0.1-4.7
		c0.3-3,3-4.3,2.8-7c-0.2-2.6-1.8-4.6-1.3-7.5c0.5-3,2-5,2-8.2c0-3.8,0.7-6.1,2.7-9.3c1.8-3.1,4.8-4.6,5.3-8.5
		c0.1-0.8,0.2-1.4,0.2-2"/>
	<path fill="none" stroke="#E1E1E1" stroke-miterlimit="10" d="M361.7,43.1c-0.1,0.2-0.2,0.3-0.2,0.5"/>
	<path fill="none" stroke="#E1E1E1" stroke-miterlimit="10" d="M361.9,42.5c-0.1,0.2-0.2,0.4-0.3,0.6"/>
	<path fill="none" stroke="#E1E1E1" stroke-miterlimit="10" d="M362.7,40.6c-0.2,0.7-0.5,1.3-0.8,2"/>
</g>
<path fill="#EAEAEA" stroke="#D6D6D6" stroke-miterlimit="10" d="M287.1,192c-0.4,0-0.8,0-1.2-0.1c-0.4-0.1-0.8-0.4-1.1-0.7
	c-1.4-0.9-3.2-1.1-4.7-1.8c-1.5-0.7-2.9-2.4-2.3-3.9c0.2-0.4,0.4-0.7,0.5-1.2c0.1-0.8-0.5-0.8-1.1-1.2c-0.7-0.4-1.7-0.7-2.2-1.2
	c-0.6-0.6-0.8-1.5-1.2-2.2c-0.4-0.7-1.1-1.8-1.9-1.6c-0.5,0.1-0.9,0.4-1.4,0.5c-1,0.2-2.4-0.2-2.8-1.2s-0.3-2.5-1.1-3.1
	c-0.8-0.6-2-0.6-2.7-1.3c-0.9-1-0.5-3.7-1.8-3.4c-1.4,0.3-1.2,2.9-2.3,2.1c-1.1-0.8-3.1-1.7-4.4-2c-1.3-0.2-2.9-0.8-3-2.1
	c-0.2-1.3,1.2-2.2,1.7-3.3c0.6-1.2-1-3.1,0-3.9c3.8-3.2,12.1-1.9,17-5.7c0.5-0.4,1.1-0.5,1.7-0.5c1.2,0,2.3,0.8,3.1,1.6
	c2.4,2.2,4.5,4.8,6.3,7.5c0.3,0.4,0.6,0.9,0.7,1.3c0.2,0.6,0,1.3,0.1,2c0.7,3,1.5,4.9,2.6,7.2c0.5,1.1,0.5,2.8,0.9,3.9
	c0.4,1.1,0.7,2.7-0.1,3.6c-0.6,0.7-1.6,0.9-2.4,1.4c-0.8,0.4-1.7,1.1-1.5,1.9c0.4,1.1,2,1.1,3.1,0.8c1.3-0.4,3.1-1.2,4.5-1.3
	c1.4-0.1,3,0.6,3.9,1.6c1.2,1.4,0.4,3.6-0.1,5.3c-0.1,0.3-0.2,0.6-0.4,0.7c-0.2,0.1-0.5,0.2-0.7,0.2
	C290.7,191.9,288.9,191.9,287.1,192z"/>
<path fill="#EAEAEA" stroke="#D6D6D6" stroke-miterlimit="10" d="M268.7,187.5c0.2-0.1,0.4-0.2,0.5-0.4c0.2-0.5-0.4-0.8-0.8-1.1
	c-1-0.6-1.8-1.4-2.8-1.9s-2.3-0.9-3.3-0.3c-0.3,0.2-0.6,0.5-0.7,0.8c-0.1,0.5,0.4,1,0.8,1.3c0.8,0.6,1.6,1.1,2.5,1.4
	C266.1,187.8,267.5,188.1,268.7,187.5z"/>
<path fill="#FFFFFF" stroke="#D6D6D6" stroke-miterlimit="10" d="M259.7,161.9c-0.6-0.3-1.3-0.5-2-0.4c-0.7,0.1-1.3,0.6-1.3,1.3
	c0,0.6,0.7,0.6,1.2,1c0.1,0.1-0.1,0.4,0,0.6c0.6,0.5,1.5-0.3,2.1-0.8c0.4-0.3,0.7-1,0.4-1.4C260.1,162,259.9,161.9,259.7,161.9z"/>
<path fill="#7BBCEB" stroke="#4E9BD7" stroke-miterlimit="10" d="M145.6,140.8c-0.1,1.2,0.2,2.4,1,3.4c0.1,0.2,0.3,0.4,0.4,0.6
	c0.1,0.2,0.1,0.5,0.1,0.7c0,1.4,1,4.2,2.1,3.3c1-0.8-0.5-2.7,0.2-3.8c0.2-0.3,0.4-0.7,0.7-1c0.2-0.2,0.1-0.6,0-1
	c-0.3-0.8-0.5-1.7-1-2.4s-1.5-1.1-2.3-0.9c-0.2,0.1-0.5,0.2-0.7,0.4C145.7,140.2,145.6,140.5,145.6,140.8z"/>
<path fill="#7BBCEB" stroke="#4E9BD7" stroke-miterlimit="10" d="M150.5,154.9c-0.2,1.3,0.5,2.6,1.6,3.4c1.1,0.8,2.5,1.5,2.8,2.8
	c0.4,1.6-1.1,3.3-0.7,4.9c0.2,0.6,0.6,1.2,0.6,1.8c0.1,0.8-0.4,1.6-0.4,2.4c0,1.7,2.1,2.8,2.5,4.5c0.2,1.2-0.6,2.9,0.3,3.8
	c0.4,0.4,3.4,0.7,3.8,1.1c0.7,0.9,2.5,4.2,1.8,5c-0.5,0.6-1.6-0.1-1.9,0.6c-0.3,0.7,1,1.4,0.8,2.2c-0.4,1.9-0.4,4,1.4,5.5
	c0.6,0.5,1.1,1.2,1.5,1.8c1.2,1.9,0.9,4.5,2.1,6.3c1.4,2.1,4.2,2.8,6.7,3.2c1,0.2,2.1,0.4,3.1,0s1.8-1.5,1.4-2.5
	c-0.4-1.2-2.1-1.1-3.3-1.6c-2.9-1.2-6.2-4.2-6.1-5.2c0.2-1.3,2.6-0.5,3.9-0.2c1.4,0.3,2.8,0.6,4.3,0.9c0.4,0.1,0.8,0.2,1.2,0.4
	c0.3,0.2,0.6,0.6,0.9,0.8c1.9,1.8,5.1,0.9,7.4-0.5c0.4-0.3,1-1,1.2-1.5c0.2-0.6-0.4-1.1-0.7-1.6c-1.7-2.6-5.1-6.7-7.1-6
	c-1,0.4,0.5,2.1-0.2,2.9c-1.8,2.2-2.1-3.9-7.5-3.7c-1.4,0-2.7,0.9-4.1,1.1c-1.4,0.2-3.2-1-2.6-2.3c0.3-0.5,0.9-0.8,1.3-1.3
	c1.3-1.3-0.8-3.5-0.1-5.1c0.2-0.4,1.1,0,1.4-0.4c0.5-0.5,0-1.5,0.5-1.9c1-0.7,2,1.3,2.8,2.3c1.9,2.3,4.8,6.2,7.4,4.7
	c2-1.2-0.4-4.7-1.7-6.7s-3-3.7-4.3-5.7c-1.7-2.5-2.8-5.3-4.4-7.8c-1.6-2.5-4.1-4.7-7-5c-0.5,0-1,0-1.4-0.3c-0.4-0.2-0.7-0.7-1.1-1.1
	c-0.8-0.9-2.2-0.7-3.4-0.9c-0.9-0.2,0.3-1.6,1.1-2c0.8-0.4,1.6-0.8,1.9-1.6c0.1-0.4,0.1-0.9,0-1.3c-0.7-3.2-2.1-6.2-4.1-8.8
	c-1.6-2.1-4-3.5-5.1-6s-0.8-6.2,1.4-7.8c0.6-0.5,1.7-0.7,2.2-1.2c0.7-0.7,0.6-1.9,0.8-2.7c0.9-5.4-0.6-8.4,0.7-12
	c0.5-1.3,3-0.3,4.3-0.9c0.7-0.3,0.9-0.5,1.7-0.8c2.6-0.9,6.4,0.8,7.4,3.4c0.5,1.2-1,1.6-2.1,2.3c-1.1,0.8-2.1,2.3-1.2,3.3
	c1,1.1,3.1,0.1,4.2,1.2c1.1,1.1-0.3,3-0.2,4.6c0.1,0.9,0.7,1.6,1.1,2.4c0.4,0.8,0.9,2.5,0,2.5c-1.3,0-2.8-0.6-3.3,0.6
	c-0.8,1.6,0.7,3.4,2.1,4.6c1.4,1.2,2.9,2.4,3.8,4c1,1.6,1.4,3.6,0.5,5.3c-0.2,0.4-0.4,0.7-0.8,0.9c-0.3,0.2-0.6,0.2-1,0.2
	c-2.4,0.3-4.4-0.7-6.6-1.5c-0.8-0.3-0.8,1.6-0.2,2.2c0.6,0.7,1.5,1.1,1.8,2c0.4,1.2-0.6,2.6,0,3.8c0.9,1.9,4.6,0.7,5.4,2.7
	c0.4,1-0.3,2.2,0.2,3.2c0.6,1.2,2.5,1.4,3.8,1.2c1.3-0.2,3-0.3,3,1c0,1.5-2.6,2.2-2.3,3.7c0.1,0.5,0.5,0.8,0.9,1.1
	c1.5,1.2,2.9,2.4,4.4,3.6c0.5,0.4,1,0.9,1.3,1.5c0.5,1.1,0.1,2.5,0.5,3.7c0.3,1,0.8,1.8,1.5,2.6c0.6,0.7,2,1,2.4,2.3
	c0.3,1,0,2.7,0.2,3.4c0.7,1.8,2.3,2,2.7,3.9c0.4,1.6-1.4,4.3,0.2,4.7c0.8,0.2,1.9-1,2.9-1c1.1,0,1.9,1.3,2.2,2.2
	c0.5,1.7-3.3,4.6-1.8,5.4c2.5,1.2,4.4-5.2,7.2-2.3c0.8,0.8-0.5,3.4,0.6,3.8c0.2,0.1,0.5,0.1,0.7,0.2c0.5,0.3,0.4,1.1,0.3,1.7
	c-0.3,1.4,1.7,3,0.9,4.2c-0.6,0.9-2.3,0-3,0.9c-0.6,0.9-0.3,2.4,0.8,2.7c0.7,0.2,1.4-0.1,2,0.2c0.3,0.2,0.7,0.4,0.7,0.8
	c0,1.3,1.6,3.5,2.6,4.8c0.7,0.9-1.5,1.5-0.6,1.9c2,0.7,5.9,2.9,3.7,3.9c-1.3,0.7-5,0.3-6.3-0.6c-0.5-0.3-0.6-1-0.9-1.5
	c-3.4-5.1-5,0-7.1-1.6c-0.6-0.4-0.7-1.3-1.4-1.2c-0.7,0.1-1.2,0.9-1,1.5c0.3,1.2,2.8,2.2,1.8,2.9c-1.8,1.3-4.3,1.4-4.8,3.5
	c-0.1,0.6-0.2,1.2-0.3,1.7c-0.4,1.4-1.8,2.4-3.3,2.8c-1.4,0.4-3,0.3-4.5,0.2c-0.6,0-1.1-0.1-1.6-0.5c-0.3-0.3-0.5-0.7-0.6-1.2
	c-0.6-2-0.6-4.6-2.5-5.4c-0.5-0.2-1-0.2-1.4,0.1c-0.2,0.2-0.3,0.5-0.4,0.8c-0.3,1.3-0.3,2.5,0,3.8c0.1,0.5,0.4,1.1,0.4,1.6
	c-0.1,0.7-0.8,1.1-1.5,1.1c-0.7,0-1.3-0.3-1.9-0.6c-5.7-3.2-9.7-8.7-13.1-14.2c-1.9-3-3.6-6.1-5.4-9.2c-0.6-1-0.6-2-1.1-3.1
	c-1.1-2.5-1.7-5.5-2.2-8.2c-0.4-2.9-0.8-5.1,0.2-7.8c0.5-1.3,1-3.2,0.8-4.5c-0.3-1.5-1.9-2.4-2.2-3.9c-0.2-1,0.1-2,0.4-2.9
	c0.7-2.6,0.5-5.4-0.5-7.9c-0.6-1.6-1-3.3-2.2-4.5c-0.9-1-2.1-1.9-2.4-3.1c-0.2-0.8,0-1.6,0-2.5c0-3.1-2.2-6.1-1.6-9.1
	c0.1-0.3,0.1-0.5,0.4-0.7c0.2-0.1,0.5-0.1,0.7-0.1c1.2,0.2,2.3,1.2,2.7,2.3c0.2,0.5,0.2,1,0.4,1.4c0.5,1,1.9,0.5,2.8,1.1
	C150.5,151.8,150.6,153.5,150.5,154.9z"/>
<path fill="#EAEAEA" stroke="#D6D6D6" stroke-miterlimit="10" d="M111.9,227.9c1.8-0.6,2.6-3.2,1.5-4.7c-0.5-0.7-1.3-1.2-1.5-2.1
	c-0.2-0.7,0-1.5-0.2-2.1c-0.5-1.3-2.3-1.4-3.5-2c-1.7-0.9-2.4-3.1-4.1-4.2c-1.4-0.9-3.2-0.8-4.5-1.7c-0.4-0.3-0.7-0.6-1.1-0.8
	c-1.7-0.9-3.5,0.9-5.3,1.4c-1.2,0.3-2.4,0.1-3.6,0c-3.9-0.5-8.1-0.1-10-1.4c-2.3-1.5-3.2,0.8-1.6,2.8c0.2,0.3,1,0.8,1.3,0.9
	c1.7,0.6,1.6,2.7,1.1,4.7c-0.6,2.2,0,4.1,1,6.1c1,2,2.8,3.7,5,4c1.2,0.2,2.8,0.5,4,0.8c1.2,0.3,1.2,1.4,1.7,2.5
	c0.5,1.1,2.1-0.7,3.2-0.2c1.9,0.8,2.3,3.4,4.3,3.7c0.8,0.1,1.6-0.1,2.3-0.2c2.1-0.4,4.4-1.1,5.4-2.9c0.7-1.3,0.8-3,2-3.8
	C110.1,228.1,111.1,228.2,111.9,227.9z"/>
<path fill="#EAEAEA" stroke="#D6D6D6" stroke-miterlimit="10" d="M69,207.2c0.7,0,1.4-0.6,2.1-0.6c0.6,0,1.1,0.4,1.7,0.7
	s1.2,0.5,1.7,0.3c0.7-0.4,0.7-1.5,0.4-2.2c-0.3-0.8-0.9-1.6-1.5-2.2c-0.3-0.2-0.6-0.5-0.9-0.7c-0.9-0.6-1.7-1.3-2.6-1.9
	c-0.2-0.2-0.5-0.3-0.8-0.4c-0.3-0.1-0.6,0-0.9,0c-0.7,0-1.4-0.4-2.1-0.5c-1.3-0.1-2.4,1-3.5,1.6c-0.6,0.4-1.3,0.6-1.8,1.1
	s-0.9,1.2-0.8,1.8c0.2,0.6,0.7,1,1.3,1.1c0.6,0.1,1.2-0.1,1.8-0.4c0.8-0.4,1.6-1.1,2.4-0.8c0.7,0.2,1,1,1.3,1.6
	C67.3,206.6,68.1,207.3,69,207.2z"/>
<path fill="#EAEAEA" stroke="#D6D6D6" stroke-miterlimit="10" d="M67.6,279.9c0.6-0.1,1.1,0.2,1.7,0.4c3.8,1.7,8.6,1.2,11.8,3.9
	c1.4,1.2,2.4,2.9,2.6,4.8c0.1,0.7,0.1,1.3-0.2,2c-0.2,0.4-0.5,0.8-0.6,1.2c-0.5,1.2,0.4,2.7-0.1,3.9c-0.3,0.8-1.1,1.3-1.3,2.2
	c-0.5,2.4,6,4.9,3.8,5.8c-1.5,0.6-3.3-1-4.5,0.1c-0.4,0.4-0.7,0.8-1.2,1.1c-0.7,0.4-1.5,0.2-2.2,0.2c-2.2-0.2-4.5,0.5-6.3,1.9
	c-0.3,0.2-0.6,0.5-0.9,0.5c-0.4,0.1-0.8-0.1-1.2-0.1c-1.1,0-2,1.2-3.1,1.3c-0.7,0-1.4-0.4-2.1-0.3c-0.4,0.1-0.8,0.3-1.2,0.5
	c-2.1,0.9-4.3-0.8-5.8-2.5s-2.8-3.8-5.1-4.2c-1.6-0.3-5,0.6-4.5-0.9c0.4-1.6,3.3-1,4-2.5c1.1-2.7-2-6.1-0.2-8.4
	c0.6-0.7,1.5-1,2.2-1.6c1.7-1.4,2.3-4.3,4.5-4.5c0.6-0.1,1-0.2,1.5-0.4c0.9-0.4,1.1-1.6,1.8-2.3c1.3-1.4,3.8-0.3,5.5-1.2
	C66.8,280.2,67.2,279.9,67.6,279.9z"/>
<path fill="none" stroke="#D6D6D6" stroke-miterlimit="10" d="M75,207.2c0.9,0.4,2.7,3.1,2.4,2.6"/>
<path fill="none" stroke="#D6D6D6" stroke-miterlimit="10" d="M59.9,204.1c-1.2,0.5-6.4-1.5-8.8-2.5c-2.3-0.9-4.5-1.9-6.8-2.8
	c-0.4-0.2-0.9-0.4-1.4-0.4c-0.6-0.1-1.3,0.1-1.9,0.3c-2.4,0.7-4.8,1.4-7.2,2.1c-2.4,0.7-4.8,1.4-7.2,1.6c-3.1,0.3-6.3-0.2-9.4-1
	c-0.9-0.2-1.8-0.5-2.5-1.1c-0.8-0.6-1.1-1.7-1.8-2.4c-3.4-3.3-3.6-7.7-3.1-12.1"/>
<path fill="none" stroke="#D6D6D6" stroke-miterlimit="10" d="M2,169.8c-0.4-0.4-1.1-1.6-1.1-2.2c0-0.1,0-0.3-0.1-0.4"/>
<path fill="none" stroke="#D6D6D6" stroke-miterlimit="10" d="M0.7,161.6c0.2-1.3,1.6-2.5,1.4-4.4c-0.2-1.9-1-3.6-1.2-5.5
	c-0.5-4.2,1.7-8.4,1-12.6c-0.3-1.7-1-3.5-0.1-5c0.5-0.8,1.4-1.4,2.2-1.9c4.9-3.1,8.8-7.6,11.1-12.9c1.5-3.3,2.3-7,3.8-10.3
	c1.2-2.5,2.7-4.9,3.7-7.5c1.5-4,1.7-8.4,3.3-12.3c1.9-4.6,5.7-8.1,9.6-11.3c1.2-1,2.5-2,3-3.5c0.4-1.1,0.4-2.4,0.3-3.6
	c-0.1-1.7-0.1-3.5,0.5-5.2c0.6-1.6,2.9-4.8,4.3-5.8c1.3-1,2-2.2,2.8-3.7"/>
<path fill="none" stroke="#4E9BD7" stroke-miterlimit="10" d="M153.9,112.4c-1.3-0.7-2.6-3.9-1.9-5.1c0.7-1.3,2.4-2.7,2.8-4.1
	c0.3-1.2,0.3-2.1-0.6-3c-2.2-2.2-6.1,0.3-8.5-1.6c-2.7-2.2-1.7-8-3.8-10.8c-1.1-1.5-1.8-3.5-3.6-3.9c-5-1.1-11-1.7-15.5-4.1
	c-0.9-0.5-1.9-0.7-2.8-1c-1.4-0.5-2.7-1-4.1-1.4c-2.2-0.6-4.4-1-6.6-1.4c-0.7-0.1-1.3-0.2-2-0.3c-1.3-0.2-2.6-0.4-3.9-0.7
	c-1.4-0.2-2.8-2.4-4.1-2.8c-4-1.3-7.1-1.6-10.9-3.3c-1.8-0.8-3.7-2.3-5.6-2.9c-3.8-1.2-7.5-2.9-11-4.9c-1.2-0.7-2.3-1.4-3.6-1.8
	c-2.5-0.7-5.1,0-7.7,0.1c-2.5,0.1-4.8-1-7.3-1.4c-3.1-0.5-7-1.1-8.9-3.6c-0.9-1.1-1.7-1.8-2.3-3.1c-1.6-3.4-4.3-5.7-5.7-9.2
	c-0.5-1.3-1.6-2.7-2.1-4c-0.8-2.1-2.5-3.7-4.2-5.2c-5.1-4.8-4.2-1.7-9.3-6.5c-0.8-0.7-4.5-9.2-5.5-9.7c-0.9-0.5-5-0.9-6-1.2
	c-2.4-0.7-4.3-4.2-6.6-3.3c-2,0.8-2,3.9-3.9,4.8c-0.5,0.2-1,0.5-1.5,0.6"/>
<path fill="none" stroke="#D6D6D6" stroke-miterlimit="10" d="M269.4,186.8c2.2-0.3,5.8,0.2,7.9,0.1"/>
<path fill="none" stroke="#D6D6D6" stroke-miterlimit="10" d="M50.7,290.4c-1.6-0.9-4.5,1.2-5.1,0c-0.5-0.9-0.3-1.9-1.2-2.2
	c-0.9-0.3-2.1-0.5-2.5-1.4c-0.3-0.8,0.2-1.9-0.5-2.5c-0.2-0.2-0.5-0.3-0.8-0.4c-3-1-4.8-4.6-3.9-7.6c0.4-1.2,1.1-2.4,1-3.7
	c-0.3-2.2-2.9-3.2-5-3.8c-0.7-0.2-1.5-0.5-2-1c-2.1-2,0.1-5.2-2-7.2c-0.6-0.5-1.4-1-1.6-1.8c-0.1-0.4,0-1.7,0-2.1
	c-0.2-1.2,0.1-2.6-0.1-3.4c-0.3-1.1-6.1-0.8-4.7-3.2c1.2-2.2,4.5-7,3.7-9.5c-0.5-1.6-2-3.9-3.3-5"/>
<path fill="none" stroke="#D6D6D6" stroke-miterlimit="10" d="M14.1,220.5c-2.4-2-3.1-5.7-1.7-8.4c0.3-0.6,0.7-1.1,1.1-1.7
	c0.9-1.3,1.6-2.7,2.2-4.1c0.2-0.5,0.4-0.9,0.4-1.4c-0.1-1.5-2-1.9-3.2-2.8c-1.4-1.1-1.7-3.4-0.7-4.9"/>
<path fill="#EAEAEA" stroke="#D6D6D6" stroke-miterlimit="10" d="M5.5,169.7c-1.7-1-4.3,0.1-4.8,2.1c-0.1,0.3-0.1,0.6,0,0.9
	c0.2,0.3,0.5,0.5,0.8,0.7c1,0.8,1.2,2.2,1.4,3.5c0.1,0.5,0.2,1,0.5,1.3c0.2,0.2,0.6,0.4,0.9,0.4c0.8,0.2,1.7,0.3,2.6,0.2
	c0.7-0.1,1.7-0.1,1.8,0.6c0.1,0.3-0.1,0.6-0.2,0.8c-0.3,0.6-0.4,1.3-0.9,1.8c-0.4,0.4-1-0.1-1.3-0.5c-0.3-0.4-0.5-0.9-0.8-1.3
	s-1-0.5-1.3-0.1c-0.1,0.2-0.2,0.4-0.2,0.6c-0.1,1.7,0.5,3.5,1.6,4.8c1.7,2,3.6,1.5,4.4-0.7c0.5-1.3,1.5-1.6,1.4-3.1
	c-0.1-1.4,0.1-3.3-1.1-4.1c-0.3-0.2-0.7,0.2-1,0c-0.8-0.9,0.8-2.6,0-3.5c-0.3-0.4-1.1-1-1.3-1.5c-0.1-0.3-0.9-0.8-0.9-1.2
	C7.1,170.6,6.4,170.2,5.5,169.7z"/>
<path fill="#EAEAEA" stroke="#D6D6D6" stroke-miterlimit="10" d="M14.5,235.2c0.8,1.1,2.4,1,3.7,0.8c1.2-0.2,2.4-0.3,3.7-0.5
	c0.8-0.1,1.6-0.2,2.3-0.6c1.2-0.6,1.3-2.6,1.4-4c0.1-1.4-0.1-1.9-0.4-3.3c-0.6-2.2-2.7-2.6-4.5-3.1c-0.7-0.2-1.5-0.3-2-0.9
	c-0.3-0.5-0.4-1.1-0.5-1.6c-0.3-1.1-1.4-1.9-2.5-2c-1.1-0.1-2.3,0.6-2.8,1.6c-0.8,1.6,0.1,3.5,1,5.1c0.1,0.2,0.3,0.5,0.3,0.7
	c0.1,0.8-0.6,1.5-1.2,2.1c-0.6,0.6-1.1,1.5-0.6,2.2c0.2,0.3,0.6,0.4,0.9,0.7C14,233.1,13.9,234.4,14.5,235.2z"/>
<path fill="#FFFFFF" stroke="#4E9BD7" stroke-miterlimit="10" d="M181.6,221.2c-0.1,0.5-0.7,0.6-1.1,0.6c-0.7,0-1.5-0.5-1.4-1.1
	c0-0.5,0.5-0.9,1-0.9s0.9,0.2,1.3,0.6C181.5,220.6,181.6,220.9,181.6,221.2z"/>
<path fill="#FFFFFF" stroke="#4E9BD7" stroke-miterlimit="10" d="M193.4,213c-0.5-0.5-1.1-1.1-1.8-1.3c-0.7-0.2-1.6-0.1-2,0.5
	c-0.3,0.5-0.2,1.3,0.2,1.7c0.3,0.2,0.6,0.4,1,0.4c0.6,0.1,1.1,0.1,1.7,0c0.5,0,1.3-0.3,1.2-0.8C193.7,213.3,193.6,213.1,193.4,213z"
	/>
<path fill="#FFFFFF" stroke="#4E9BD7" stroke-miterlimit="10" d="M184.4,203c0.6,0.9,1.2,1.8,2.1,2.2c1,0.4,2.4-0.3,2.3-1.3
	c-0.1-0.8-0.9-1.2-1.6-1.6s-1.4-1.1-1.1-1.9c0.2-0.5,0.8-0.7,1.3-0.8c0.4-0.1,0.8-0.1,1.1,0c0.3,0.1,0.6,0.3,0.9,0.5
	c1,0.8,1.9,1.6,2.9,2.4c0.3,0.2,0.5,0.4,0.7,0.7c0.2,0.3,0.2,0.6,0.3,1c0.1,1.9-1.3,3.6-2.9,4.5c-1.7,0.9-3.6,1.2-5.3,2
	c-0.5,0.2-1,0.4-1.4,0.3c-0.5-0.1-0.2-0.9-0.7-1.1c-0.5-0.3-1.1,0.3-1.5-0.1s-0.7-1-1.3-1.1c-0.5-0.1-1,0.2-1.2,0.6
	c-0.3,0.4-0.4,0.9-0.5,1.4c-0.1,0.5-0.2,1-0.3,1.5c-0.1,0.4-0.2,1,0.1,1.3c0.3,0.4,1,0.4,1.4,0.1c0.5-0.2,0.9-0.6,1.3-0.8
	c0.6-0.2,1.3-0.1,1.7-0.5c0.7-0.6,0.4-1.7,0.1-2.6c-0.5-1.7-0.8-3.4-0.9-5.2c0-0.5,0-1,0.2-1.4c0.2-0.4,0.7-0.8,1.2-0.7
	C183.8,202.1,184.1,202.6,184.4,203z"/>
<path fill="#FFFFFF" stroke="#4E9BD7" stroke-miterlimit="10" d="M161.4,134.6c-0.1-0.4-0.4-0.7-0.6-1c-0.1-0.1-0.2-0.2-0.3-0.3
	c-0.2-0.2-0.5-0.2-0.8-0.1c-0.6,0.1-1.2,0.4-1.5,0.9c-0.4,0.5,0.1,1.2-0.2,1.7c-0.3,0.4-0.9,0.6-0.7,1c0.1,0.5,0.7,0.8,1.2,0.8
	c0.5,0,1-0.2,1.4-0.4c0.5-0.3,0.9-0.6,1.3-1C161.4,135.7,161.6,135.2,161.4,134.6z"/>
<path fill="#EAEAEA" stroke="#D6D6D6" stroke-miterlimit="10" d="M-1.6,163.3c0.1,0.2,0.3,0.2,0.5,0.4c0.6,0.4,0.6,1.2,0.4,1.9
	c-0.1,0.3-0.3,0.6-0.3,0.9c0,0.3,0.1,0.7,0.4,0.8c0.1,0,0.2,0.1,0.4,0.1c0.4,0,0.9,0,1.2-0.2c0.5-0.3,0.8-0.9,1-1.5
	c0.1-0.3,0.2-0.6,0.2-0.8c0-0.5-0.3-1-0.4-1.5c0-0.2,0-0.5-0.1-0.7c-0.1-0.2-0.2-0.3-0.4-0.5c-0.4-0.3-0.8-0.7-1.3-0.7
	c-0.5,0-0.9,0.5-1.4,0.7c-0.1,0-0.3,0.1-0.4,0.2c-0.1,0.1-0.1,0.2-0.1,0.3C-1.7,162.9-1.7,163.1-1.6,163.3z"/>
<path fill="#FFFFFF" stroke="#D6D6D6" stroke-miterlimit="10" d="M77,289.1c0.1-0.2,0.4-0.4,0.6-0.6c0.4-0.6,0.1-1.5-0.5-1.9
	c-0.6-0.4-1.3-0.5-2-0.8c-1.1-0.4-2-1.2-3.1-1.5c-0.5-0.2-1-0.2-1.5-0.3c-0.6-0.1-1.3-0.2-1.9-0.3c-1.1-0.2-2.2-0.4-3.3-0.4
	c-1.3,0-3-0.1-3.4,1.1c-0.6,1.7,2.9,0.9,4,2.4c0.4,0.6-0.7,1.2-1.1,1.8c-0.4,0.6-0.6,1.5,0,1.9c0.3,0.2,0.7,0.2,1,0.4
	c0.4,0.3,0.4,0.8,0.5,1.3c0.1,0.9,0.6,2.8,0.7,3.6c0.1,1,0.1,1.9,0.5,2.8c0.4,0.9,0.6,0.7,1.5,0.9c3.2,0.6,5-2.8,6.7-2.2
	c0.6,0.2,1.3,0.7,1.8,0.2c0.1-0.1,0.2-0.3,0.2-0.4c0.2-0.8,0-1.7,0.1-2.6c0.1-0.9,0.7-1.5,1.5-1.8c0.7-0.3-0.3-1.4-1-1.8
	C77.5,290.4,76.6,289.7,77,289.1z"/>
<path fill="none" stroke="#D6D6D6" stroke-miterlimit="10" d="M85.5,303.7c0.8,0.3,2.5,0.6,3.2,0.2c0.3-0.1,0.5-0.3,0.8-0.4
	c1.2-0.5,2.7,0.4,3.7-0.4c1.1-0.8,0.8-2.8,1.9-3.5c0.6-0.4,1.4-0.2,2.1,0.1c1.1,0.3,2.3,0.7,3.4,1c1.2,0.4,2.5,0.8,3.4,1.5
	c1.3,1.1,2.1,2.7,2.8,4.2c1,2.2,1.9,4.3,2.9,6.5c0.7,1.5,1.4,3.1,2.7,4.2c1.3,1.1,3.2,1.4,4.4,2.5c0.7,0.6,1.2,1.5,1.8,2.2
	c1.9,2.5,4.7,4.4,6.1,7.2"/>
<text transform="matrix(1 0 0 1 288.6582 161.7851)"><tspan x="0" y="0" fill="#585858" font-family="'Verdana-Italic'" font-size="8">Upper</tspan><tspan x="0" y="9.6" fill="#585858" font-family="'Verdana-Italic'" font-size="8">Peninsula Lake</tspan></text>
<text transform="matrix(1 0 0 1 319.4235 251.4205)"><tspan x="0" y="0" fill="#585858" font-family="'Verdana-Italic'" font-size="8">Schofield</tspan><tspan x="0" y="9.6" fill="#585858" font-family="'Verdana-Italic'" font-size="8">Peak</tspan></text>
<text transform="matrix(1 0 0 1 117.6576 222.7854)"><tspan x="0" y="0" fill="#585858" font-family="'Verdana-Italic'" font-size="8">Bear</tspan><tspan x="0" y="9.6" fill="#585858" font-family="'Verdana-Italic'" font-size="8">Lake</tspan></text>
<text transform="matrix(1 0 0 1 87.9909 284.4521)"><tspan x="0" y="0" fill="#585858" font-family="'Verdana-Italic'" font-size="8">Big Island</tspan><tspan x="0" y="9.6" fill="#585858" font-family="'Verdana-Italic'" font-size="8">Lake</tspan></text>
<text transform="matrix(1 0 0 1 181.6582 150.1184)"><tspan x="0" y="0" fill="#7BBCEB" font-family="'Verdana-Italic'" font-size="8">Peninsula</tspan><tspan x="0" y="9.6" fill="#7BBCEB" font-family="'Verdana-Italic'" font-size="8">Lake</tspan></text>
<text transform="matrix(1 0 0 1 177.7933 103.7853)"><tspan x="0" y="0" fill="#585858" font-family="'Verdana-Italic'" font-size="8">Haystack</tspan><tspan x="17.4" y="9.6" fill="#585858" font-family="'Verdana-Italic'" font-size="8">Peak</tspan></text>
<text transform="matrix(1 0 0 1 218.8685 109.1182)" fill="#585858" font-family="'Verdana-Italic'" font-size="8">× 10003</text>
<text transform="matrix(1 0 0 1 283.1422 256.7849)" fill="#585858" font-family="'Verdana-Italic'" font-size="8"> 9944 ×</text>
<path fill="none" d="M314.1,222.9c8.4-2.8,11.5-5.6,18-12c1.5-1.5,3.4-2.7,4.7-4.4"/>
<text transform="matrix(0.86 -0.5102 0.5102 0.86 321.3486 222.7522)"><tspan x="0" y="0" fill="#7D7D7D" font-family="'Verdana-Italic'" font-size="7">9</tspan><tspan x="4.8" y="0" fill="#7D7D7D" font-family="'Verdana-Italic'" font-size="7" rotate="-8.1">4</tspan><tspan x="9.4" y="-0.7" fill="#7D7D7D" font-family="'Verdana-Italic'" font-size="7" rotate="-12.6">0</tspan><tspan x="13.8" y="-1.7" fill="#7D7D7D" font-family="'Verdana-Italic'" font-size="7" rotate="-13.5">0</tspan></text>
<path fill="none" d="M182.6,110.2c0.5,2.5,0.3,5.2,0.2,7.8c0,2.6,0.7,4.7,1.2,7c0.8,3.4,1.2,5.6,3.6,7.9c1.8,1.8,3.5,3.8,4.9,5.9"/>
<text transform="matrix(0.173 0.9849 -0.9849 0.173 180.2197 118.946)"><tspan x="0" y="0" fill="#7D7D7D" font-family="'Verdana-Italic'" font-size="7">9</tspan><tspan x="4.6" y="-0.1" fill="#7D7D7D" font-family="'Verdana-Italic'" font-size="7" rotate="-2.6">0</tspan><tspan x="9.4" y="-0.2" fill="#7D7D7D" font-family="'Verdana-Italic'" font-size="7" rotate="-11.5">0</tspan><tspan x="14.8" y="-1.6" fill="#7D7D7D" font-family="'Verdana-Italic'" font-size="7" rotate="-35.3">0</tspan></text>
<path fill="none" d="M280.1,107.2c0.7,1.2,1.6,6.3,3.2,7.2c1.7,1.1,3.9,2,5.8,3.1c2,1.1,4.3,1.3,6.4,2.2c1,0.4,2.8,0.8,3.6,1.5
	c0.9,0.8,0.8,2.1,1.6,2.8"/>
<text transform="matrix(0.8898 0.4564 -0.4564 0.8898 282.916 117.2263)"><tspan x="0" y="0" fill="#7D7D7D" font-family="'Verdana-Italic'" font-size="7">9</tspan><tspan x="4.7" y="0.2" fill="#7D7D7D" font-family="'Verdana-Italic'" font-size="7" rotate="-4.9">8</tspan><tspan x="9.3" y="-0.5" fill="#7D7D7D" font-family="'Verdana-Italic'" font-size="7" rotate="-9.6">0</tspan><tspan x="13.2" y="-1.4" fill="#7D7D7D" font-family="'Verdana-Italic'" font-size="7" rotate="0.5">0</tspan></text>
<path fill="none" d="M124,253.6c3.4,0.4,6.5,2.7,9.7,4c6.5,2.5,10.7-0.9,17-1.9c3.8-0.6,6.4,0.6,9.8,1.6c2.9,0.9,6,1.6,8.8,2.8"/>
<text transform="matrix(0.9922 0.1244 -0.1244 0.9922 134.3476 260.6389)"><tspan x="0" y="0" fill="#7D7D7D" font-family="'Verdana-Italic'" font-size="7">9</tspan><tspan x="5.3" y="-0.2" fill="#7D7D7D" font-family="'Verdana-Italic'" font-size="7" rotate="-18.6">2</tspan><tspan x="9.7" y="-1.8" fill="#7D7D7D" font-family="'Verdana-Italic'" font-size="7" rotate="-24.6">0</tspan><tspan x="13.5" y="-3.6" fill="#7D7D7D" font-family="'Verdana-Italic'" font-size="7" rotate="-18.2">0</tspan></text>
<path fill="none" d="M54.7,85.5c1.8,0.4,4.9-5.8,7.7-8.1c4.2-3.5,3.1-9,8.2-10.5"/>
<text transform="matrix(0.5949 -0.8038 0.8038 0.5949 59.5727 84.925)"><tspan x="0" y="0" fill="#7D7D7D" font-family="'Verdana-Italic'" font-size="7">8</tspan><tspan x="4.2" y="-0.1" fill="#7D7D7D" font-family="'Verdana-Italic'" font-size="7" rotate="6.9">4</tspan><tspan x="9.1" y="0.8" fill="#7D7D7D" font-family="'Verdana-Italic'" font-size="7" rotate="-5.8">0</tspan><tspan x="13.7" y="0.1" fill="#7D7D7D" font-family="'Verdana-Italic'" font-size="7" rotate="-11">0</tspan></text>
<path fill="none" d="M205.7,50.1c9.7,0.3,19.8,0.1,29.3-1.2"/>
<text transform="matrix(1 4.968204e-05 -4.968204e-05 1 211.0078 52.7712)"><tspan x="0" y="0" fill="#7D7D7D" font-family="'Verdana-Italic'" font-size="7">9</tspan><tspan x="4.5" y="0" fill="#7D7D7D" font-family="'Verdana-Italic'" font-size="7" rotate="-1.2">6</tspan><tspan x="9" y="-0.1" fill="#7D7D7D" font-family="'Verdana-Italic'" font-size="7" rotate="-2.5">0</tspan><tspan x="13.5" y="-0.3" fill="#7D7D7D" font-family="'Verdana-Italic'" font-size="7" rotate="-4.1">0</tspan></text>
<g>
	<g>
		<polyline fill="none" stroke="#7D7D7D" stroke-miterlimit="10" points="85.2,341.6 85.2,348.7 275.4,348.7 275.4,341.7 		"/>
		<line fill="none" stroke="#7D7D7D" stroke-miterlimit="10" x1="180.5" y1="341.4" x2="180.5" y2="348.7"/>
		<line fill="none" stroke="#7D7D7D" stroke-miterlimit="10" x1="161.2" y1="349.2" x2="161.2" y2="343.7"/>
		<line fill="none" stroke="#7D7D7D" stroke-miterlimit="10" x1="142.4" y1="349.2" x2="142.4" y2="343.7"/>
		<line fill="none" stroke="#7D7D7D" stroke-miterlimit="10" x1="123.3" y1="349.2" x2="123.3" y2="343.5"/>
		<line fill="none" stroke="#7D7D7D" stroke-miterlimit="10" x1="104.6" y1="349.2" x2="104.6" y2="343.7"/>
	</g>
	<text transform="matrix(1 0 0 1 83.7833 339.1469)" fill="#7D7D7D" font-family="'Verdana'" font-size="8">0</text>
	<text transform="matrix(1 0 0 1 174.2945 339.1469)" fill="#7D7D7D" font-family="'Verdana'" font-size="8">0.5</text>
	<text transform="matrix(1 0 0 1 258.3413 339.1469)" fill="#7D7D7D" font-family="'Verdana'" font-size="8">1 mi</text>
</g>
</svg>
