<?xml version="1.0" encoding="utf-8"?>
<!-- Generator: Adobe Illustrator 17.1.0, SVG Export Plug-In . SVG Version: 6.00 Build 0)  -->
<!DOCTYPE svg PUBLIC "-//W3C//DTD SVG 1.1//EN" "http://www.w3.org/Graphics/SVG/1.1/DTD/svg11.dtd">
<svg version="1.1" id="Layer_1" xmlns="http://www.w3.org/2000/svg" xmlns:xlink="http://www.w3.org/1999/xlink" x="0px" y="0px"
	 viewBox="0 0 360 360" enable-background="new 0 0 360 360" xml:space="preserve">
<path fill="none" stroke="#E1E1E1" stroke-miterlimit="10" d="M363.8,355.4c-8.6,6.2-18.4,10.7-27.8,15.7c-3.6,1.9-7.2,4-10.1,7
	s-4.7,7.1-4.2,11.1"/>
<path fill="none" stroke="#E1E1E1" stroke-miterlimit="10" d="M301.3,384.1c-0.1-4.9,2.2-9.6,5.3-13.4c3.1-3.8,7-6.9,10.6-10.2
	c4.7-4.3,9-9.1,12.7-14.3c2.3-3.1,4.4-6.4,6.6-9.6c3-4.3,6.2-8.4,9.6-12.4c5.3-6.1,11.1-11.9,17.8-16.4"/>
<path fill="none" stroke="#E1E1E1" stroke-miterlimit="10" d="M295.3,385.6c2.3-11,7-21.4,13.7-30.5c2.8-3.9,6-7.5,8.2-11.8
	c1.2-2.4,2.1-5,3.2-7.5c1.4-3.1,3.1-6,4.8-8.9c2.5-4.2,4.7-8.6,7.5-12.6c2-2.9,4.4-5.4,6.6-8.2c1.1-1.5,2.7-2.6,3.8-4
	c1.2-1.4,1.9-3.5,1.1-5.2c-0.4-0.8-1.2-1.5-2.1-1.7c-2.7-0.3-3.7,3.6-6,5c-1,0.6-2.2,0.6-3.3,0.9c-4,0.8-7.1,3.9-9.3,7.3
	c-2.2,3.4-3.6,7.3-5.5,10.9c-5.8,10.8-15.9,18.6-23.9,27.9c-10.5,12.1-17.4,26.8-24.2,41.2"/>
<path fill="none" stroke="#E1E1E1" stroke-miterlimit="10" d="M363.5,20c-1.5,0.7-3.1,2.2-4.6,3.1c-4.7,3.1-11.2-0.6-16.6,1.1
	c-6.2,1.9-14.9,14.9-16.8,8.6c-1-3.3,2-5.8-8.8-8.8c-16.5-4.6-31.3-13.9-46.3-22.2c-7.9-4.4-16.1-7.4-25.1-8
	c-10.4-0.7-21.1,0.5-31.5,0.8c-5.8,0.1-11.3,0.9-16.5,3.3c-2.1,1-4,2.5-6.2,2.7c-2.4,0.2-4.7-1.1-7.1-1.4
	c-5.3-0.9-10.4,2.9-13.5,7.3c-1.6,2.2-3.1,4.8-5.6,6c-2.5,1.2-3.9,4.1-6.7,4.2c-2.1,0.1-2.7-3.2-4.7-2.9s-3.8,1.5-5.5,2.7
	c-5.7,4.2-10.2,13.6-17.2,12.7c-1.6-0.2-1.5-3.2-3-3.6c-1.8-0.5-3.8,2.7-5.3,1.7c-5.1-3.4,9.2-10.2,7.5-16.1c-0.5-1.6-2.5-2.4-3-4
	c-0.6-1.9-0.1-4.4-1-6.1c-0.9-1.8-3.5-2.7-4.9-1.2c-0.8,0.9-0.8,2.3-1.3,3.4s-2.6,2-2.8,0.8c-0.4-2.1,0.7-4.1,1.1-6.2
	c0.1-0.6,0.2-1.2,0.3-1.7c0.1-0.7,0.2-1.3,0.4-2"/>
<path fill="none" stroke="#E1E1E1" stroke-miterlimit="10" d="M267.1,385.4c0.4-15.2,5.3-30.3,14.1-42.8
	c12.2-17.3,31.8-30.6,36.3-51.3c0.9-4,1.1-8.1,1.8-12.1c1.1-6.4,3.2-12.5,5.3-18.7c2.6-7.5,5.2-15.2,9.8-21.7
	c4.1-5.8,9.5-10.6,14.4-15.8c6.1-6.5,11.3-13.8,15.6-21.7"/>
<path fill="none" stroke="#E1E1E1" stroke-miterlimit="10" d="M-15.6,50.1c1.4-2.1,2.7-4.2,4.1-6.3c4.4-6.8,8.8-13.6,12.2-21
	C3.8,16.2,6,9.2,9.7,2.9c1.5-2.6,3.4-5.2,5.5-7.4"/>
<path fill="none" stroke="#E1E1E1" stroke-miterlimit="10" d="M325.5-4.7c4.6,2.7,9.2,5.4,14.2,7.4c7.7,3.1,16.7,4.3,24.2,0.9"/>
<path fill="none" stroke="#E1E1E1" stroke-miterlimit="10" d="M358.4,55.2c0.4-0.8,0.7-2-0.1-2.5c-0.6-0.5-1.5,0-2.2,0.4
	c-1.6,1-3.4,2.1-5.2,1.4c-0.5-0.2-1-0.6-1.5-0.7c-1-0.2-2,0.5-2.9,1c-3.1,1.8-7,1.5-10.6,1.3c-1.4-0.1-2.8-0.1-4.1,0.4
	c-1.3,0.5-2.4,1.6-2.5,3c-0.1,1.7,1.3,3.2,2.8,4c1.1,0.6,2.2,1.1,3.4,1.4c0.6,0.2,1.2,0.3,1.8,0.5c0.7,0.2,1.4,0.6,2.2,0.9
	c3.3,1.4,7.3,1.5,10.5-0.1C354.2,64.1,356.5,59.5,358.4,55.2z"/>
<path fill="none" stroke="#E1E1E1" stroke-miterlimit="10" d="M359.3,37c-0.1-1.8-2.6-1.2-3.9-2.3c-2.6-2.1-5.9-3.3-9.2-3.4
	c-2.2,0-4.9,0.9-5.3,3.1c-0.1,0.6,0,1.4-0.5,1.8c-0.2,0.3-0.6,0.4-0.9,0.5c-1.3,0.4-2.5,0.9-3.8,1.3c-1.4,0.5-3,1.1-3.7,2.4
	c-0.8,1.5-0.3,3.2,0.2,4.8c0.5,1.4,0.9,2.8,1.4,4.2c0.1,0.4,0.3,0.9,0.6,1.3c0.8,1,2.3,0.9,3.5,1.2c3.4,0.5,13.1-2.7,13.9-3.2
	c1.2-0.8,2.7-2,4-3.8C357,43,359.4,39.5,359.3,37z"/>
<path fill="none" stroke="#E1E1E1" stroke-miterlimit="10" d="M209.7,92.4c-2.2,0.4-4.1,2-4.9,4.1c-0.2,0.6-0.3,1.2-0.2,1.8
	c0.1,0.3,0.2,0.5,0.3,0.7c0.9,1.2,2.8,1.1,4.1,0.4c0.9-0.5,1.8-1.1,2.4-1.9c0.6-0.7,1.1-1.6,1.2-2.6c0-1-0.5-2-1.4-2.4
	C210.9,92.3,210.3,92.3,209.7,92.4z"/>
<path fill="none" stroke="#E1E1E1" stroke-miterlimit="10" d="M208.8,60.3c2.5-1.5,3.9-1.3,6.4-2.9c1.3-0.8,2.7-3.2,1.3-3.9
	c-2.6-1.4-6-0.3-8.8,0.6c-0.6,0.2-1.2,0.5-1.7,0.9c-1.3,1.2-2.1,3.4-1.2,4.9C205.3,60.8,206.8,61.4,208.8,60.3z"/>
<path fill="none" stroke="#E1E1E1" stroke-miterlimit="10" d="M270.6,24.4c-12.9-3.9-25.7-7.8-38.9-10.3c-2.7-0.5-5.4-1-8.2-1.1
	c-10.8-0.4-21.3,5.3-28.6,13.2c-7.4,7.9-12,18-15.6,28.3c-1.9,5.6-6.4,14.8-1,17.2c2.8,1.2,4.9-5.3,7.8-4.4c2.2,0.6-0.1,4.6-0.7,6.9
	s-1.3,4.7-0.5,6.9s3.7,1,5.6,2.4c4.3,3.1-3.5,10.1-3.9,15.4c-0.4,5.3,0.6,10.9,4,15c1.8,2.2,4.1,3.9,6.4,5.5
	c1.8,1.3,3.9,2.7,6.1,2.7c1.8,0,3.4-0.9,4.9-1.8c19.2-10.9,38.2-22.4,56.8-34.4c2.8-1.8,5.8-3.9,6.9-7c0.7-2.1,0.5-4.3,0.6-6.5
	c0.5-8.4,6.3-16.3,5-24.7c-0.2-1.1-0.5-2.2-0.3-3.3c0.1-0.8,0.5-1.5,0.8-2.3c1.5-4.1-0.2-8.6-1.9-12.6c-0.6-1.4-1.2-2.8-2.3-3.7
	C272.7,25,271.6,24.7,270.6,24.4z"/>
<path fill="none" stroke="#E1E1E1" stroke-miterlimit="10" d="M154.8,176.9c1.4-2.1,2.8-4.2,3.6-6.6c0.8-2.4,1.5-5.5-0.3-7.4
	c-3.7-3.8-11.3-1-14.1,3.6c-0.6,0.9-1,1.9-1.5,3c-1.4,3.2-2.8,6.4-4.1,9.6c-1,2.2-1.9,4.5-2,6.9c0,1.2,0.4,2.7,1.6,3.1
	c0.8,0.3,1.6,0,2.4-0.3c1.9-0.7,3.8-1.4,5.8-2.1c0.8-0.3,1.6-0.6,2.3-1.1c1-0.7,1.6-1.7,2.3-2.7
	C152.1,180.9,153.5,178.9,154.8,176.9z"/>
<path fill="none" stroke="#E1E1E1" stroke-miterlimit="10" d="M247.6,383.9c11-6.7,13.6-21.3,14.7-34.1c0.2-2.2,0.4-4.5,1.5-6.5
	c0.9-1.5,2.2-2.7,3.5-3.8c6.1-5.4,12.1-11.1,17.3-17.4c8.5-10.1,15.2-21.6,19.8-34c6.4-17.4,8.7-36.7,19.6-51.7
	c1.7-2.4,3.7-4.7,6-6.5c2.3-1.8,4.9-3.1,7.3-4.9c10-7.3,13.8-20.3,17-32.3c1.1-4.4,2.3-9.1,0.9-13.4c-1.3-3.9-4.4-6.9-7.1-10
	c-10.9-13.1-3.8-31-5.5-47.9c-0.2-2.2-4.3-3-4.1-5.2c0.3-3.2,5-6.3,2.8-8.7c-1.1-1.2-4.2,0.1-4.7-1.4c-1.2-3.5,0.4-7.5-2.6-9.6
	c-3.1-2.1-7-2.4-10.7-2.6c-4.4-0.3-8.7-0.5-13.1-0.8c-1.5-0.1-3.1-0.2-4.4,0.6c-1.7,1.1-2.3,3.2-2.8,5.2c-2,6.6-5.9,12.5-11.3,16.8
	c-4,3.3-8.8,5.6-12.6,9.1c-4,3.7-6.8,8.5-10.8,12.1c-8.4,7.8-20.4,9.6-31.3,13.1s-22.5,10.5-24,21.8c-0.3,2.1-0.2,4.4-0.7,6.5
	c-0.6,2.5-2.1,4.8-3.5,6.9c-5.4,8.3-11.3,16.9-20.3,21.1c-10.9,5-24.3,2.5-34.8,8.2c-5.1,2.7-9,7.2-12.6,11.7
	c-3.8,4.8-7.4,9.8-10.7,15c-3,4.8-5.7,11.2-2.4,15.7c1.3,1.7,3.3,2.8,4.8,4.4c1.6,1.6,2.7,3.7,3.8,5.7c2.5,4.8,5,9.5,7.5,14.3
	c3.4,6.4,6.8,12.9,8.2,19.9c1.5,7.1,1,14.5-0.2,21.6c-2.2,12.8-8,30.6-21,30.3c-4.5-0.1-8.9,1.8-10.8,5.9c-1.8,4.1-3.7,9.5-1.2,13.3
	c3,4.6,7.9,8.3,7.1,13.7"/>
<path fill="none" stroke="#E1E1E1" stroke-miterlimit="10" d="M98.8,261.5c-0.4,0.8-1.1,7.6-0.5,9.8c0.3,1.1-0.2,7.9,1,9.7
	c0.6,0.8,1.5-0.5,2.1-1.2c0.9-1,1.8-2,1.9-3.4c0.2-2.2,0.2-4.5,0-6.7c-0.2-2.8,1.5-5.6-0.6-7.6C102.4,261.6,99.2,260.7,98.8,261.5z"
	/>
<path fill="none" stroke="#E1E1E1" stroke-miterlimit="10" d="M141.6,385.1c4.4-5.3,8.8-10.7,13.2-16c2.4-2.9,4.8-5.8,6.3-9.2
	c1.6-3.5,2.1-7.3,3-11.1c2-8.1,5.7-15.8,7.9-23.9c2.2-8.1,2.7-17.2-1.5-24.5c-1.2-2.1-2.7-3.9-3.7-6.1c-1-2-1.5-4.2-2-6.4
	c-0.9-4.2-1.9-8.4-2.8-12.6c-1.8-8.2-3.6-17.2,0.2-24.7c0.6-1.2,1.4-2.4,1.5-3.8c0.1-2.5-1.9-4.5-2.7-6.8c-1.2-3.7,1-7.9,4.2-10.2
	c3.2-2.3,7.2-3.2,10.9-4.3c13.1-3.8,25.5-10.6,34.8-20.7c3.7-4,6.9-8.6,10.8-12.4c4.8-4.8,10.7-8.4,16.4-11.9
	c6.1-3.7,12.2-7.5,19.2-9.2c6.9-1.7,14.8-0.9,20.2,3.7c1,0.9,2,1.9,3.3,2.2c0.9,0.2,1.7,0,2.6-0.2c3.3-0.7,6.9-0.6,9.9-2.2
	c6.1-3.4,14.6-7.2,19.2-1.9c5.6,6.4,6.5,15.7,8,24.1c0.6,3.1,1,6.3,0.7,9.5c-0.3,3.2-1.3,6.2-2.3,9.3c-1.2,3.7-2.5,7.4-3.7,11.2
	c-2.4,7.3-4.8,14.5-7.6,21.7c-1.5,3.9-3.1,7.7-4.7,11.6c-1.1,2.7-2.2,5.3-3.4,8c-4.6,11-9.3,22.1-15.7,32.2c-3,4.8-6.5,9.3-9.9,13.8
	c-4.3,5.6-8.6,11.3-12.9,16.9c-5.7,7.5-11.4,15-15.2,23.6c-4.8,10.8-6.5,23-13.1,32.9"/>
<path fill="none" stroke="#E1E1E1" stroke-miterlimit="10" d="M219.6,384.2c5.6-8.6,5-21,12.5-28c3.5-3.3,4.7-6.6,6.9-10.9
	c1.6-3.2,2.6-5.8,4.6-8.7c3.8-5.5,12.3-5.4,16.6-10.5c3.3-4,6-8.6,7.9-13.4c1.3-3.5-0.2-7,0-10.7c0.4-6,8.1-8.9,12.2-13.4
	c3.7-4,7.6-8.6,7.3-14.1c-0.2-3.5-2.1-7-1.1-10.3c0.4-1.5,1.4-2.7,2.2-4c2-3.1,3.3-6.6,4.6-10c2.1-5.6,4.2-11.4,4.5-17.3
	c0.3-6.7-1.5-13.2-2.5-19.8c-0.9-6.6,7.3-13.9,3.3-19.2c-4.3-5.7-12.4,7.7-15.4,14.1c-1.2,2.5-2.1,5.3-4.4,6.9c-1.5,1-3.3,1.4-5,2
	c-7.9,3-11.8,12.1-19.1,16.5c-6.4,3.9-17.3,5.2-21-1.3c-2.3-4-1.9-9-3.6-13.2c-0.5-1.2-1.1-2.5-2.1-3.4c-3.1-2.9-8-1.2-11.8,0.6
	c-4.4,2.1-8.9,4.2-13.3,6.4c-6.7,3.2-13.5,6.5-18.5,12c-6.1,6.7-8.7,15.7-11.1,24.4c-0.5,1.9-1,3.8-1.3,5.7c-0.4,3.1,0,6.2,0.4,9.2
	c0.5,3.6,1,7.5,3.5,10.2c1.3,1.5,3.1,2.5,4.6,4c7.6,7.5,2.1,20.8,6.3,30.6c0.9,2.1,2.2,4,2.9,6.1c2.4,7.1-2.1,14.4-5.9,20.8
	c-8.1,13.5-14,28.2-17.6,43.5"/>
<path fill="none" stroke="#E1E1E1" stroke-miterlimit="10" d="M178.9,385.8c1.1-11.7,8.9-21.5,16.3-30.7s14.9-19.4,15.2-31.1
	c0.2-6.3-1.8-12.5-2.7-18.7c-2.1-13.3,0.4-26.9,2.8-40.2c1-5.3,2.9-11.7,8.2-12.9c1.6-0.4,3.3-0.2,4.9,0c9.8,0.9,19.8-0.6,28.9-4.4
	c3.6-1.5,7.1-3.3,9.8-6.1c4.1-4.3,6.7-15.6,12-12.8c11.4,6.1-2.5,25.7-1.7,38.6c0.4,6.7,2.4,14.1-1.3,19.7c-1.5,2.2-3.8,3.9-5.3,6.1
	c-3,4.3-2.7,10.1-4.7,15c-4.4,10.9-18,14.5-25.9,23.1c-8.6,9.4-9.5,23.4-14.8,34.9c-3.2,7-8.2,13.5-8.9,21.2"/>
<path fill="none" stroke="#E1E1E1" stroke-miterlimit="10" d="M212.7,355.1c-0.5-0.2-1.2,0-1.6,0.5c-0.4,0.5-0.5,1.1-0.6,1.6
	c-0.1,0.6-0.3,1.2-0.1,1.8c0.2,0.6,0.9,1.4,1.3,0.9c0.6-0.7,0.8-1.6,1.2-2.4C213.5,356.7,213.6,355.5,212.7,355.1z"/>
<path fill="none" stroke="#E1E1E1" stroke-miterlimit="10" d="M230.5,305.4c2.3-2.5,4.5-5.1,6.8-7.6c1.9-2.1,4-4.3,6.8-4.7
	c1.4-0.2,2.9,0.1,4.3-0.3c1.4-0.4,2.9-2.6,1.7-3.3c-1.1-0.7-3.1-1.3-2.7-2.5c1-2.7,4.4-3.6,6.4-5.7c0.4-0.4,0.8-0.8,0.9-1.3
	c0.7-2.1-2.3-3.5-3.1-5.5c-0.5-1.3-0.1-2.7,0.2-4c0.5-2.5,0.4-5,0.2-7.5c-0.2-3.1-0.9-7-3.9-7.9c-1.6-0.5-3.4,0.2-5,0.8
	c-3.8,1.2-7.8,1.6-11.8,1.2c-1.3-0.1-2.5-0.4-3.8-0.1c-1.2,0.2-2.2,0.9-3.1,1.7c-4.5,3.8-6.1,10-6.6,15.8
	c-0.5,5.8-0.2,11.8-2.1,17.4c-1.2,3.6-3.2,7-3.4,10.8c-0.2,4,1.8,7.8,2.4,11.8c0.9,6.2-3.6,17.4,2.6,18.2c4.7,0.6,6.3-7.4,6.8-12.1
	c0.2-2.1,0.1-4.3,0.6-6.4C225.7,310.8,228.2,308,230.5,305.4z"/>
<path fill="none" stroke="#E1E1E1" stroke-miterlimit="10" d="M243.4,268.8c1.7-0.9-0.6-5-2.3-4.1c-1.3,0.7-2.3,3.1-1.2,4.1
	C240.8,269.6,242.4,269.3,243.4,268.8z"/>
<path fill="none" stroke="#E1E1E1" stroke-miterlimit="10" d="M113.9,383.8c-5.3-17.7,10.4-37.7,2.5-54.4c-1.1-2.3-2.4-3.6-2.9-6.1
	c-0.8-3.8-1.1-9.2-4.8-10.3c-4.7-1.4-7.8,7.9-12.3,5.8c-2.3-1.1-3.6-3.6-4.8-5.8c-0.9-1.7-1.7-3.5-2.6-5.2c-1.1-2.3-2.3-4.6-3-7
	c-1.1-3.7-1.2-7.7-1.4-11.6c-0.4-13.2-0.7-26.6,3.1-39.2c5.4-18,18.7-32.3,30.4-47c1.4-1.7,2.8-3.8,2.1-5.9
	c-0.2-0.7-0.7-1.3-1.1-1.9c-4.5-7.4,4.4-16.3,3.7-24.9c-0.2-2.2-1-4.4-1-6.6c0-1.8,1-3.5,0.9-5.3c-0.3-4,4.9-8.8,3.6-13.1
	c-1.4-4.9-0.7-6.5,3.3-8.5c4-2-9.5-5.1-13.7-3.8c-5.3,1.7,1.7,10.6,1.2,16.1c-0.2,2.1-1.2,4-2.1,5.9c-1.7,3.2-3.4,6.5-5,9.7
	c-0.5,0.9-0.9,1.8-1.7,2.5c-1,0.8-2.3,1.1-3.4,1.5c-5,1.8-5.4,7.9-7.8,12.6c-0.8,1.6-3.4-0.9-4.1-2.6c-0.7-1.7-1-3.8-2.6-4.7
	c-3.1-1.8-6,2.6-7.4,5.9c-3,7.1-8.6,13-15.4,16.5c-2.8,1.4-5.7,2.5-8.5,4c-6.1,3.3-10.9,8.6-15.6,13.7c-6.7,7.4-13.7,15.5-14.9,25.4
	c-0.5,4.2,0.2,8.4,0.7,12.5c3,24,2.4,48.4-1.7,72.2c-0.7,4-1.5,8.1-1.4,12.2c0.1,2.7,0.5,5.3,0.9,7.9c2.4,15.2,4.8,30.5,7.3,45.7"/>
<path fill="none" stroke="#E1E1E1" stroke-miterlimit="10" d="M11.8,385.1c4.5-5,6.2-12.1,5.9-18.8c-0.3-6.7-2.3-13.3-4.4-19.7
	c-0.6-2-1.3-3.9-1.4-6c-0.2-2.7,0.6-5.4,1.2-8.1c4.2-17.4,5.2-35.6,3-53.3c-2.5-19.1-8.7-38.8-3-57.2c4-12.8,13.4-23.6,16-36.8
	c1.3-6.5,0.8-13.2,2.4-19.6c1.6-6.4,6.3-12.8,12.9-13.4c0.7-0.1,1.5,0,2.1,0.3c0.8,0.5,1.1,1.5,1.3,2.5c1.6,6.6-1.6,14.8,2.5,20.2
	c1.2,1.6,2.4-2.1,4.1-3.1c3.5-2,8.4,1.1,10.7-2.1c1.6-2.2,1.9-5,2.6-7.6c2.7-9.6,10.7-16.6,18.3-22.9c1.7-1.4,3.7-3,5.9-2.8
	c1.7,0.1,3.2,1.3,5,1.4c2.5,0.2,4.7-2.1,5.4-4.5c0.7-2.5,0.2-5.1-0.3-7.6c-1.4-6.9-3-13.8-4.6-20.7c-1.4-6-8.8-9.6-14.1-12.6
	c-0.9-0.5-1.8-1-2.8-0.9c-1,0-1.9,0.6-2.8,1.1c-7.2,4.4-14.1,9.2-20.7,14.4c-1.4,1.1-2.8,2.3-4.5,3c-1.9,0.8-4.1,1-6.1,1.4
	c-10.5,2.2-18.2,11-24.8,19.4c-3.2,4.1-7.1,8.7-12.3,8.4c-4.7-0.2-8.3-4.7-9.2-9.4c-1-4.6,0-9.4,0.7-14.1C2.8,101.7,2,86.9,5.1,72.8
	c1-4.4,2.3-8.7,3.7-13c4.3-12.7,9.4-25.4,17.3-36.3s18.7-20,31.6-23.9c3.9-1.2,8-1.9,11.6-3.6"/>
<path fill="none" stroke="#E1E1E1" stroke-miterlimit="10" d="M-16.5,155.4c0.6,5.1,4.9,8.8,8.7,12.2c5.1,4.7,9.7,10,13.6,15.7
	c1,1.5,2,3,2.6,4.7c0.8,2.2,0.8,4.6,0.7,6.9C8.8,201.9,7,209,3.9,215.4c-0.8,1.6-1.6,3.2-2.1,4.9c-0.5,1.9-0.6,3.9-0.6,5.9
	c0,16.4,1.2,32.8,3.6,49.1c2.1,13.6,5,27.4,2.3,40.9c-1,4.9-2.7,9.7-3.3,14.7c-0.8,6.4,0.3,12.9,0.7,19.4c0.2,3.9,1.1,9.3,0.3,13.3"
	/>
<path fill="none" stroke="#D6D6D6" stroke-miterlimit="10" d="M364.4,239.6c-3.5,4.8-5.8,10.7-7.8,16.4c-2.4,7-4.5,14.1-6.3,21.3
	c-0.5,2.1-1.1,4.3-2.2,6.2c-1.6,2.6-4.2,4.5-5.6,7.2c-1.4,2.8,1.8,6,0.1,8.7c-1.4,2.1-5.7,6.2-7.6,8c-0.8,0.7-0.8-1.2-1.5-0.4
	c-17.5,20.2-33.5,52.4-48.5,78.9"/>
<path fill="none" stroke="#D6D6D6" stroke-miterlimit="10" d="M365.3,266.6c-4-1.1-7.9-1.8-11.8-0.6"/>
<path fill="#EAEAEA" stroke="#D6D6D6" stroke-miterlimit="10" d="M132.3,141.3c-0.7-0.4-1.7-0.4-2.4,0.1c-0.7,0.5-1.3,1.5-0.9,2.3
	c0.4,0.7,1.6,0.7,2.4,0.3s1.3-1.2,1.3-2c0-0.1,0-0.2-0.1-0.3C132.6,141.5,132.4,141.4,132.3,141.3z"/>
<path fill="#EAEAEA" stroke="#D6D6D6" stroke-miterlimit="10" d="M132.3,107.9c-0.4,0.1-0.7,0.4-0.9,0.8c-1.2,1.9-1.5,4.3-1.8,6.5
	c-0.1,1.1-0.6,2.2-0.4,3.3c0,0.3,0.5,0.3,0.7,0.1c2-2.5,3.6-5.5,3.7-8.8C133.6,108.9,133.1,107.7,132.3,107.9z"/>
<path fill="#EAEAEA" stroke="#D6D6D6" stroke-miterlimit="10" d="M141.1,109.9c0-0.3,0-0.5-0.2-0.7c-0.3-0.4-0.9-0.2-1.3,0.1
	s-0.8,0.6-1.3,0.6c-0.9,0-1.8-1.8-2.5-1.1c-0.8,0.9,0.3,2.1,0.8,3.1c0.3,0.6-0.1,1.3-0.1,2c0,0.1,0,0.3,0,0.4
	c0.2,0.6,1.1,0.5,1.7,0.2C139.8,113.6,141,111.8,141.1,109.9z"/>
<path fill="#EAEAEA" stroke="#D6D6D6" stroke-miterlimit="10" d="M151.1,106.3c-0.1-0.4-0.3-0.7-0.6-0.9c-1.3-1.1-3.7,2.7-2.4,3.7
	c0.4,0.3,1.1,0.3,1.5,0.1C150.6,108.6,151.4,107.3,151.1,106.3z"/>
<path fill="#EAEAEA" stroke="#D6D6D6" stroke-miterlimit="10" d="M155.2,107c0-0.8-0.7-1.9-1.5-1.5c-0.2,0.1-0.4,0.3-0.5,0.5
	c-0.5,0.9-0.3,2.1,0.5,2.7C154.5,109.2,155.3,107.9,155.2,107z"/>
<path fill="#EAEAEA" stroke="#D6D6D6" stroke-miterlimit="10" d="M158.2,97c0.9-0.3,1.9-2,1.1-2.5c-0.6-0.4-1.4,0.2-1.9,0.8
	c-0.5,0.5-0.9,1.7-0.2,2C157.4,97.3,157.9,97.1,158.2,97z"/>
<path fill="#EAEAEA" stroke="#D6D6D6" stroke-miterlimit="10" d="M158.7,91.8c0.7-0.4,1.4-1.6,0.8-2.2c-0.5-0.5-1.6-0.5-2.2,0
	c-0.9,0.8-1,2.2,0.2,2.4C157.9,92,158.5,92,158.7,91.8z"/>
<path fill="#EAEAEA" stroke="#D6D6D6" stroke-miterlimit="10" d="M155.4,79.4c0-0.3-0.1-0.7-0.2-1c-0.3-1-1.1-2.3-2.1-2
	c-0.9,0.2-1.1,1.3-1.1,2.2c0,0.5-0.1,1-0.1,1.5c0,0.2,0,0.3,0.1,0.4c0.1,0.2,0.4,0.2,0.6,0.2C153.7,80.9,155.3,80.6,155.4,79.4z"/>
<path fill="#EAEAEA" stroke="#D6D6D6" stroke-miterlimit="10" d="M149.6,82.6c0.1,0.6,0.3,1.2,0.1,1.7c-0.3,0.7-1.7,0.1-2-0.6
	c-0.4-0.7-0.5-1.8,0.2-2.3C148.7,80.9,149.5,82.3,149.6,82.6z"/>
<path fill="#EAEAEA" stroke="#D6D6D6" stroke-miterlimit="10" d="M152.6,59.1c1.5-0.7,1.2-1.6,0.5-3c-0.7-1.4-1.3-1.8-2.4-2.9
	c-0.8-0.8-3.4-0.8-2.8,0.7c0.9,2.3,0.4,4.1-0.2,6.4c-0.2,0.8,0.9,1.1,1.6,0.7c0.7-0.4,1.3-1.1,2.1-1.4
	C151.8,59.4,152.2,59.3,152.6,59.1z"/>
<path fill="#EAEAEA" stroke="#D6D6D6" stroke-miterlimit="10" d="M154.8,31c-0.7-0.9-2.2-0.4-2.9,0.5c-0.7,0.9-1.4,2.3-0.8,3.2
	c0.2,0.3,0.7,0.5,1,0.3c0.8-0.4,1.1-1.3,1.8-1.8C154.6,32.7,155.3,31.7,154.8,31z"/>
<path fill="#EAEAEA" stroke="#D6D6D6" stroke-miterlimit="10" d="M142.7,40.2c-0.1,0.1-0.2,0.2-0.3,0.3c-0.6,0.6-0.8,1.5-0.4,2.2
	c0.4,0.7,1.6,1.1,2,0.4c0.2-0.4,0.5-0.8,0.6-1.3C145,40.7,143.6,39.7,142.7,40.2z"/>
<path fill="#EAEAEA" stroke="#D6D6D6" stroke-miterlimit="10" d="M134,49.8c0.7-0.4,0.7-1.4,1.1-2c0.1-0.3,0.3-0.5,0.3-0.8
	c0.1-0.6-0.4-1.2-0.9-1.5c-0.6-0.3-1.3-0.7-1.8-0.4c-1,0.6-1,2.1-1.5,3.1c-0.1,0.3-0.3,0.6-0.6,0.9c-0.2,0.2-0.5,0.3-0.7,0.4
	c-0.9,0.7-0.2,2.4,0.9,2.3C132.1,51.6,132.9,50.4,134,49.8z"/>
<path fill="#EAEAEA" stroke="#D6D6D6" stroke-miterlimit="10" d="M114.3,19.2c0.1,0.2,0.2,0.4,0.3,0.5c0.4,0.4,1.2,0.2,1.5-0.3
	c0.3-0.5,0.6-1.4,0.7-2c0.2-1.1-0.8-2.7-1.1-3.2s-1.1-0.7-1.5-0.2c-0.1,0.1-0.2,0.3-0.2,0.5C113.5,16,113.7,17.7,114.3,19.2z"/>
<path fill="#EAEAEA" stroke="#D6D6D6" stroke-miterlimit="10" d="M52.1,64.4c-1-0.4-2.4,0.5-2.6,0.6c-0.6,0.4-1.5,1.1-1.3,1.8
	C49.7,71.7,53.5,64.9,52.1,64.4z"/>
<path fill="#EAEAEA" stroke="#D6D6D6" stroke-miterlimit="10" d="M125.8,71.3c0.5,0.9,2.1,0.2,2.9-0.3c0.8-0.6,1-2,0.2-2.5
	c-0.7-0.4-1.6,0-2.1,0.6C126.3,69.7,125.4,70.6,125.8,71.3z"/>
<path fill="#EAEAEA" stroke="#D6D6D6" stroke-miterlimit="10" d="M134.6,59.1c-0.5-0.9-2.2-0.4-2.9,0.4c-0.7,0.8-0.6,2.1,0,2.9
	c0.6,0.8,2,0.5,2.5-0.3S135.1,59.9,134.6,59.1z"/>
<path fill="#EAEAEA" stroke="#D6D6D6" stroke-miterlimit="10" d="M127,65.7c-0.5-0.7-1.6-0.7-2.4-0.3c-0.7,0.4-1,1.6-0.4,2.2
	c0.5,0.5,1.4,0.4,2,0C126.8,67.2,127.3,66.3,127,65.7z"/>
<path fill="#EAEAEA" stroke="#D6D6D6" stroke-miterlimit="10" d="M135.4,122.7c-0.8,0.7-1.3,1.7-1.7,2.7c-0.2,0.4-0.4,0.9-0.4,1.4
	c0,1,0.9,1.9,1.2,2.9c0.2,0.6,0.1,1.3,0.1,1.9c0.1,0.6,0.5,1.3,1.1,1.3c0.5,0,1-0.3,1.5-0.3c0.1,0,0.3,0.1,0.4,0
	c0.1-0.1,0.1-0.2,0.1-0.4c0-0.8,0-1.7,0-2.5c0-0.4,0-0.8,0.3-1.1c0.6-0.7,1.9,0.1,2.7-0.4c0.3-0.2,0.4-0.5,0.6-0.7
	c0.6-1.1,1.1-2.2,1.3-3.4c0.2-1.2,0-2.5-0.9-3.4c-0.1-0.1-0.2-0.2-0.4-0.3c-0.5-0.2-1,0.3-1.3,0.8c-0.3,0.6-0.6,1.2-0.8,1.9
	c-0.1,0.3-0.2,0.7-0.4,1s-0.6,0.4-0.9,0.2c-0.5-0.3-0.2-1-0.4-1.5c-0.2-0.3-0.6-0.5-1-0.5C136.1,122.3,135.7,122.5,135.4,122.7z"/>
<path fill="#EAEAEA" stroke="#D6D6D6" stroke-miterlimit="10" d="M185.5,127.6c-0.2,0.1-0.4,0.3-0.6,0.4c-0.2,0.1-0.3,0.2-0.5,0.4
	c-0.1,0-0.1,0.1-0.2,0.2c-0.1,0.2-0.1,0.4,0,0.7c0.1,0.2,0.1,0.4,0.3,0.6c0.2,0.2,0.6,0.3,0.9,0.2s0.6-0.2,0.9-0.4
	c0.4-0.3,0.8-0.7,1-1.2c0.2-0.5-0.1-1.1-0.5-1.3C186.3,127,185.9,127.3,185.5,127.6z"/>
<path fill="#EAEAEA" stroke="#D6D6D6" stroke-miterlimit="10" d="M193.2,143.5c-0.5-0.2-1.1-0.3-1.6-0.1s-0.8,1-0.4,1.4
	c0.1,0.2,0.2,0.3,0.4,0.5c0.4,0.5,1.4,0.1,1.9-0.4c0.2-0.2,0.5-0.5,0.4-0.8C193.8,143.8,193.5,143.6,193.2,143.5z"/>
<path fill="#EAEAEA" stroke="#D6D6D6" stroke-miterlimit="10" d="M196.3,148.2c0.1,0.7,1,1.1,1.6,0.7c0.2-0.1,0.4-0.3,0.5-0.5
	c0.5-0.6,1-1.3,1-2.1c0-0.1,0-0.2-0.1-0.3c-0.1-0.1-0.1-0.1-0.2-0.1c-1.1-0.2-2.3,0.4-2.7,1.4C196.3,147.6,196.2,147.9,196.3,148.2z
	"/>
<path fill="#EAEAEA" stroke="#D6D6D6" stroke-miterlimit="10" d="M204.2,143.2c-0.2,0.5,0.1,1,0.5,1.3c0.3,0.3,0.8,0.4,1.1,0.1
	c0.1-0.1,0.1-0.2,0.2-0.2c0.1-0.1,0.3-0.1,0.5-0.1c0.4-0.1,0.9-0.7,0.6-1.1c-0.4-0.5-1.2-0.5-1.8-0.5
	C204.9,142.8,204.4,142.9,204.2,143.2z"/>
<path fill="#EAEAEA" stroke="#D6D6D6" stroke-miterlimit="10" d="M214.2,140.1c-0.4-0.3-1-0.1-1.5,0.2c-0.4,0.2-0.8,0.5-1,0.8
	c-0.3,0.3-0.4,0.8-0.3,1.2c0.1,0.4,0.7,0.8,1,0.5c0.4-0.4,0.8-0.8,1.3-0.7c0.1,0,0.2,0.1,0.4,0c0.3-0.1,0.3-0.4,0.4-0.6
	C214.6,141.1,214.6,140.4,214.2,140.1z"/>
<path fill="#EAEAEA" stroke="#D6D6D6" stroke-miterlimit="10" d="M198.5,137.4c0,0.2-0.1,0.5,0,0.7c0.1,0.2,0.3,0.5,0.5,0.5
	c0.2,0,0.3-0.1,0.5-0.1c0.3-0.1,0.6-0.3,0.9-0.4c0.2-0.1,0.4-0.2,0.5-0.3c0.5-0.5,0.7-1.5,0.3-2.1c-0.3-0.5-1.2-0.1-1.7,0
	c-0.1,0-0.2,0-0.2,0.1c-0.1,0.1-0.1,0.2-0.2,0.3C198.8,136.4,198.6,136.9,198.5,137.4z"/>
<path fill="#EAEAEA" stroke="#D6D6D6" stroke-miterlimit="10" d="M216.3,133c0.6,0.1,0.5,1.2,0.2,1.8c-0.1,0.2-0.3,0.4-0.3,0.7
	c0,0.4,0.4,0.8,0.8,0.9s0.9,0,1.3,0c1.4,0,2.6,1.2,3.8,1.8c2.4,1.3,5.7,0.6,7.4-1.5c0.3-0.4,0.6-0.9,0.6-1.4c0-1.3-2.7-1.8-2.2-3
	c0.3-0.7,1.3-0.7,1.5-1.4s-0.2-1.5-0.9-1.7c-0.6-0.2-1.2,0-1.8,0c-0.6-0.1-1.2-0.7-0.9-1.2c0.1-0.2,0.4-0.3,0.6-0.4
	c1.3-0.5,2.4-1.4,3.3-2.4c0.4-0.4,0.7-0.9,0.6-1.4c-0.1-0.5-0.6-0.7-1.1-0.8c-1.7-0.3-3.3,1.1-4.6,2.3c-2,1.7-4.4,2.9-6.9,3.6
	c-0.4,0.1-0.7,0.2-1,0.4c-0.5,0.3-0.8,0.8-1.2,1.2c-1,1.1-2.4,1.8-3.8,2.5c-0.7,0.4-1.5,1.2-1,1.8c0.4,0.6,1.3,0.3,1.9,0
	C213.8,134.2,214.9,132.7,216.3,133z"/>
<path fill="#EAEAEA" stroke="#D6D6D6" stroke-miterlimit="10" d="M251,115.3c-0.6-0.1-1.1-0.1-1.6,0.1c-0.9,0.4-1.3,1.4-1.6,2.3
	c-0.8,2.3-1.7,4.8-3.6,6.4c-0.3,0.2-0.6,0.4-0.7,0.7c-0.2,0.4-0.2,0.8-0.1,1.3c0.1,0.6,0.2,1.2,0.6,1.8c0.4,0.5,1.2,1.1,1.6,0.7
	c1-0.9,0.7-2.9,1.8-3.7c0.6-0.4,1.3,0.4,1.7,1s0.7,1.3,1.3,1.6c0.9,0.5,2-0.1,2.8-0.7c0.8-0.6,1.7-1.3,2.1-2.3
	c0.6-1.2,0.5-2.5,0.3-3.8c-0.1-1.5-0.3-3.1-1.4-4.1C253.2,115.7,252.1,115.4,251,115.3z"/>
<path fill="#7BBCEB" stroke="#4E9BD7" stroke-miterlimit="10" d="M178.1,199.4c-2.5-1.7-5.8-1.8-8.5-3.2c-1.4-0.7-2.6-1.8-3.8-2.9
	c-0.8-0.8-1.7-1.6-2-2.6c-0.2-0.6-0.2-1.3-0.3-2c0-2.2,0.2-4.4,0.7-6.5c0.1-0.4,0.2-0.9,0.5-1.2c0.5-0.8,1.4-1.2,2.1-1.7
	c3.3-2.4,3.2-7.9,6.5-10.2c1.4-1,3.3-1.4,4.2-2.9c0.5-0.9,0.5-2.1,1-3.1c0.4-0.8,1.1-1.4,1.8-1.9c2.2-1.7,4.8-3.5,5.2-6.3
	c0.2-1.1-0.1-2.2,0.1-3.3s1-2.2,2.1-2.1c0.7,0.1,1.2,0.6,1.7,1c2.2,2.2,4.5,4.3,6.7,6.5c0.4,0.4,0.8,0.8,0.8,1.4
	c0,0.9-1,1.4-1.8,1.8c-1.6,0.8-4.8,2.7-3.5,4c0.7,0.8,2-0.6,3.1-0.8c0.3-0.1,0.6-0.2,0.8-0.1c1,0.1,1.6,1.4,1.3,2.4
	c-0.3,1-1,1.8-1.7,2.6c-1.1,1.4-1.9,3.1-2.8,4.6c-1,1.5-2.2,3-3.9,3.6c-0.4,0.1-0.8,0.3-1.1,0.6c-0.3,0.3-0.3,0.8-0.2,1.3
	c0.5,2.5,4.5,4.3,3.5,6.6c-0.4,0.9-1.9,0.3-2.7-0.2c-0.8-0.5-1.9-1.8-2.6-1.1c-0.5,0.5-0.1,1.4,0.1,2c0.2,0.6,0.7,1.2,1.4,1.4
	c0.4,0.1,0.9,0,1.3,0.1c0.8,0.2,1.1,1.3,1.9,1.6c0.9,0.3,1.9-0.3,2.8,0c1,0.4,1,1.8,0.7,2.8c-0.6,2.1-2.2,3.9-3.9,5.3
	c-1.8,1.4-3.8,2.3-5.8,3.3c-1.2,0.6-2.6,1.2-3.9,0.8C179.3,200.3,178.7,199.8,178.1,199.4z"/>
<path fill="#EAEAEA" stroke="#D6D6D6" stroke-miterlimit="10" d="M308.7,121.7c0.2,0,0.4-0.2,0.5-0.4c0.8-1,1.4-2.1,1.9-3.2
	c0.1-0.2,0.2-0.5,0.2-0.7c0-0.3-0.2-0.6-0.4-0.8c-0.7-0.9-2-1-3.1-0.7c-1.1,0.3-2.1,0.8-3.2,1.1c-0.8,0.2-1.7,0.2-2.5,0.5
	c-1.3,0.4-2.3,1.2-3.4,2c-0.3,0.2-0.7,0.5-0.7,1c-0.1,0.7,0.8,1.2,1.5,1.3c1.5,0.4,3.2,0.7,4.3-0.3c0.4-0.3,0.7-0.8,1.1-1.1
	c1-0.6,2.3,0.1,3.1,1C308.3,121.5,308.5,121.7,308.7,121.7z"/>
<path fill="#EAEAEA" stroke="#D6D6D6" stroke-miterlimit="10" d="M280.8,110.3c0.1-0.6,0.3-1.3,0.2-1.9c-0.1-0.6-0.5-1.3-1.1-1.5
	c-0.2-0.1-0.5-0.1-0.8,0.1c-0.2,0.2-0.3,0.5-0.3,0.8c-0.1,1.2,0,2.4,0.4,3.5c0.1,0.4,0.4,0.8,0.8,0.7
	C280.2,112,280.8,110.5,280.8,110.3z"/>
<path fill="none" stroke="#4E9BD7" stroke-miterlimit="10" d="M185.4,150.8c-1.2-0.5-2.4-0.8-2.1-2.6c1.5-7.2-1.1-12.9-8.2-16
	c-0.7-0.3-1.5-4.2-4.3-4.3c-1.5,0-5.2,3.9-6.6,4.6c-4.5,2.3-6.2,2-10.7,4.3c-1.3,0.7-2.7,1.4-4.2,1.2c-1.5-0.2-2.8-1.2-4.1-2
	c-6.6-4.1-16-2.8-21.8,2.3c-1.8,1.6,0.5,5.9,0.7,8.3c0.7,8.2-8.8,14.6-5.9,22.2c0.5,1.4,1.4,2.8,1,4.2c-0.4,1.4-1.8,2.2-2.8,3.2
	c-5.5,5.4,0.1,17.1-6.3,21.4c-2,1.3-4.6,1.4-6.7,2.7c-1.4,0.9-2.4,2.2-3.4,3.5c-7.8,10-17.8,18.4-29.1,24.2
	c-2.9,1.5-6.1,3.1-7.3,6.1c-0.7,1.7-0.6,3.8-1.8,5.2c-1.1,1.3-2.8,1.7-4.2,2.6c-1.4,0.9-2.8,4-1.1,4.2c2.5,0.4,5,1,5.6,3.4
	s-0.3,5-1.1,7.4c-4,11.6-6.6,23.6-7.7,35.8c-0.1,1.6-0.3,3.3,0.3,4.9c0.8,2.4,3.1,4,4.8,5.8c1.7,1.9,3.1,4.7,1.8,6.9
	c-0.9,1.5-2.7,2.1-3.7,3.4c-1,1.2-1.2,2.9-1.4,4.4c-1,7.4-1.8,15.5,2.3,21.8c4.1,6.3,12,8.8,17.4,13.9c8.8,8.3,9.8,22.5,5,33.5"/>
<path fill="#FFFFFF" stroke="#4E9BD7" stroke-miterlimit="10" d="M188.6,154.6c-0.2-0.1-0.4-0.1-0.6-0.1c-0.5,0.1-0.8,0.7-0.8,1.2
	c0,0.4,0,0.8,0,1.1c0.1,0.3,0.2,0.7,0.5,0.9c0.1,0.1,0.3,0.1,0.5,0.1c0.7-0.1,1.4-0.7,1.5-1.4C189.7,155.6,189.3,154.8,188.6,154.6z
	"/>
<path fill="none" stroke="#585858" stroke-miterlimit="10" stroke-dasharray="4,1" d="M20.1-4.1C15.5,6.5,14,18.5,17.2,29.5
	c0.2,0.6,0.5,1.4,1.1,1.6c0.6,0.2,1.3-0.1,1.9-0.5c1.7-1,3.3-2,5-3c1.6-0.9,3.8-1.8,5-0.5c0.8,0.8,0.8,2.1,0.8,3.2
	c-0.2,5.3-0.4,10.7-2.3,15.7c-1,2.6-2.3,4.9-3.4,7.4C20.8,63.6,20.9,75,21.2,86c0.1,5.7,0.2,11.4,0.3,17.1c0.1,4.8,1,13.3,5.7,12.2
	c2.9-0.7,4.4-3.9,6.6-5.9c2.8-2.5,6.7-2.9,10.1-4.7c1.8-1,3.6-2,5-3.5c1-1.2,1.7-2.6,2.7-3.8c2.7-3.2,7-4.4,10.5-6.7
	C67.7,87,71.3,80.5,77.5,78c1.7-0.7,3.4-1,5.1-1.7c4.3-1.8,7.3-5.6,11.1-8.1c3.9-2.5,9.8-3.3,12.5,0.5c1.2,1.7,1.4,3.8,1.8,5.9
	c0.7,3.5,2,7,4.1,9.9c2.2,2.9,5.2,5.3,8.6,6.4c1.1,0.4,2.4,0.7,3,1.7c0.7,1.1,0.3,2.6,0.5,4c0.3,3,3.4,5,4.8,7.7c2,4.1,0,9-1.9,13.1
	c-2.8,5.9-5.7,11.8-8.5,17.7c-0.5,1-1,2.1-1.2,3.2c-0.3,1.7,0,3.5,0.3,5.2c0.6,3.6,1.1,7.4,0.3,11c-0.5,2.6-1.7,4.9-2.8,7.3
	c-3,6.2-6,12.5-9,18.7c-1,2.1-0.6,4.6-1.5,6.7c-0.9,1.9-1.9,3.3-2.1,5.4c-0.3,4.7-4.2,8.6-6.5,12.8c-0.3,0.6-0.7,1.2-1.3,1.6
	c-0.7,0.4-1.6,0.3-2.4,0.5c-2.1,0.5-3.3,2.8-3.7,4.9c-0.4,2.1-0.2,4.4-0.9,6.4c-1.4,3.9-5.5,5.9-8.8,8.5c-4.8,3.8-8.1,9.1-11.3,14.4
	c-1,1.7-2.1,3.4-2.3,5.4c-0.3,2.6,0.8,5.2,1,7.8c0.3,3.2-0.8,6.4-1.4,9.6c-0.9,4.8,1.8,18.6,2.1,23.5c0.8,12.3-0.3,15.7,2.1,27.8
	c1.5,7.8,3.3,15.6,5.8,23.2c3.5,10.8,8.2,21.2,12.9,31.6c0.9,1.9,1.7,3.8,3,5.6c1.9,2.7,4.6,4.9,5.5,8.1"/>
<path fill="none" stroke="#585858" stroke-miterlimit="10" stroke-dasharray="4,1" d="M365.5,264.7c-0.8,0.9-1.6,1.7-2.5,2.6
	c-1.6,1.7-3.2,3.4-4.2,5.6c-1.1,2.4-0.9,5.3-1.9,7.8c-5.5,12.7-14.9,25.2-22.2,33.4c-1.7,1.9-4.6,2.1-6.1,4.2s-2.7,4.4-4.4,6.4
	c-0.9,1-1.9,1.8-2.6,2.9c-0.6,1-1,2.1-1.5,3.1c-1.5,3.2-4.3,5.8-7.6,7.1c-1,0.4-2.1,0.7-3.1,1.1c-2.7,1.3-4.7,3.8-6.5,6.2
	c-3.8,5-7.6,10-10.2,15.7c-1.2,2.8-2.2,5.6-3.2,8.5c-2.1,5.9-4.7,11.6-7.7,17.1"/>
<path fill="none" stroke="#585858" stroke-miterlimit="10" stroke-dasharray="4,1" d="M141.3-6.1c-1.8,5-2.1,10.6-3,15.9
	c-1.1,7.1-4,14.9-10.5,17.7c-0.6,0.3-1.2,0.5-1.6,0.9c-0.6,0.6-0.7,1.5-0.8,2.3c-0.6,4-1.9,8-3.9,11.5c-0.4,0.8-1,1.6-1.7,2.1
	c-1.1,0.7-2.6,0.6-3.9,0.8c-5.2,0.9-7.7,6.6-9.4,11.6c-1.2,3.7-1.4,9.3-1.1,10.5"/>
<path fill="none" stroke="#585858" stroke-miterlimit="10" stroke-dasharray="4,1" d="M47.2,103c-0.1,15.3-1,30.6-2.8,45.9
	c-0.7,6.3-1.7,12.6-3.5,18.6c-3,9.5-8.4,18.4-9.4,28.3c-0.8,7.4-1.6,21.4-5.5,20.9c-2.3-0.3-3.1-4.4-5.2-3.4
	c-1.2,0.5-1.7,1.9-2.1,3.2c-2.9,9.2-4,18.5-7.9,27.5c-4.8,11.3-3.9,24.2-4.8,27.5c-0.3,0.9-1.9-1.7-2.7-1.1
	c-2.7,2.1,4.4,8.5,1.4,10.1c-2.6,1.3-3.9-7.8-6.4-6.2c-0.4,0.2-1.1,2.7-2,6.2"/>
<g>
	<path fill="none" stroke="#585858" stroke-width="2" stroke-miterlimit="10" d="M278.8,385.2c4.4-16.7,13.2-32.1,25.2-44.5
		c3.9-4,8.2-7.7,11.5-12.3c3.5-4.8,7.2-11,10.1-16.3c4.8-8.8,9.7-16.1,14.7-24.9c8.6-15.3,12.5-32.8,20.1-48.7
		c1.1-2.2,2.2-4.4,3.4-6.5"/>
	<g>
		<path fill="none" stroke="#FFFFFF" stroke-miterlimit="10" d="M278.8,385.2c0.3-1.3,0.7-2.6,1.1-3.8"/>
		<path fill="none" stroke="#FFFFFF" stroke-miterlimit="10" stroke-dasharray="8.0294,8.0294" d="M282.5,373.8
			c4.9-12.3,12.2-23.6,21.4-33c3.9-4,8.2-7.7,11.5-12.3c3.5-4.8,7.2-11,10.1-16.3c4.8-8.8,9.7-16.1,14.7-24.9
			c8.5-15.1,12.4-32.4,19.8-48.1"/>
		<path fill="none" stroke="#FFFFFF" stroke-miterlimit="10" d="M361.8,235.6c0.6-1.2,1.2-2.4,1.9-3.5"/>
	</g>
</g>
<text transform="matrix(1 0 0 1 196.7042 177.2908)"><tspan x="0" y="0" fill="#7BBCEB" font-family="'Verdana-Italic'" font-size="8">Polly Dome</tspan><tspan x="0" y="9.6" fill="#7BBCEB" font-family="'Verdana-Italic'" font-size="8">Lakes (west)</tspan></text>
<text transform="matrix(1 0 0 1 258.6411 120.4079)"><tspan x="0" y="0" fill="#585858" font-family="'Verdana-Italic'" font-size="8">Polly Dome</tspan><tspan x="0" y="9.6" fill="#585858" font-family="'Verdana-Italic'" font-size="8">Lakes (east)</tspan></text>
<text transform="matrix(1 0 0 1 224.8573 147.8854)"><tspan x="0" y="0" fill="#585858" font-family="'Verdana-Italic'" font-size="8">Polly Dome</tspan><tspan x="0" y="9.6" fill="#585858" font-family="'Verdana-Italic'" font-size="8">Lakes (middle)</tspan></text>
<text transform="matrix(1 0 0 1 245.0212 265.3266)"><tspan x="0" y="0" fill="#585858" font-family="'Verdana-Italic'" font-size="8">Polly</tspan><tspan x="0" y="9.6" fill="#585858" font-family="'Verdana-Italic'" font-size="8">Dome </tspan></text>
<text transform="matrix(1 0 0 1 217.778 270.5024)" fill="#585858" font-family="'Verdana-Italic'" font-size="8">9806</text>
<text transform="matrix(1 0 0 1 204.278 60.0024)" fill="#585858" font-family="'Verdana-Italic'" font-size="8">× 9020</text>
<path fill="none" d="M342.7,121.5c1.7,16.9-5.4,34.8,5.5,47.9"/>
<text transform="matrix(-6.785698e-02 0.9977 -0.9977 -6.785698e-02 340.1833 134.2802)"><tspan x="0" y="0" fill="#7D7D7D" font-family="'Verdana-Italic'" font-size="7">8</tspan><tspan x="4.4" y="0" fill="#7D7D7D" font-family="'Verdana-Italic'" font-size="7" rotate="-0.1">8</tspan><tspan x="9" y="0" fill="#7D7D7D" font-family="'Verdana-Italic'" font-size="7" rotate="-1.7">0</tspan><tspan x="13.6" y="-0.1" fill="#7D7D7D" font-family="'Verdana-Italic'" font-size="7" rotate="-4.9">0</tspan></text>
<path fill="none" d="M176.2,225.5c13.1-3.8,25.5-10.6,34.8-20.7"/>
<text transform="matrix(0.914 -0.4058 0.4058 0.914 186.2277 224.7094)"><tspan x="0" y="0" fill="#7D7D7D" font-family="'Verdana-Italic'" font-size="7">9</tspan><tspan x="4.6" y="0" fill="#7D7D7D" font-family="'Verdana-Italic'" font-size="7" rotate="-3.1">0</tspan><tspan x="9.2" y="-0.3" fill="#7D7D7D" font-family="'Verdana-Italic'" font-size="7" rotate="-6.4">0</tspan><tspan x="13.7" y="-0.8" fill="#7D7D7D" font-family="'Verdana-Italic'" font-size="7" rotate="-9.8">0</tspan></text>
<path fill="none" d="M324.8,260.4c2.6-7.5,5.2-15.2,9.8-21.7c4.1-5.8,9.5-10.6,14.4-15.8"/>
<text transform="matrix(0.4617 -0.887 0.887 0.4617 332.5202 247.2856)"><tspan x="0" y="0" fill="#7D7D7D" font-family="'Verdana-Italic'" font-size="7">8</tspan><tspan x="4.2" y="0" fill="#7D7D7D" font-family="'Verdana-Italic'" font-size="7" rotate="4.9">6</tspan><tspan x="8.4" y="0.3" fill="#7D7D7D" font-family="'Verdana-Italic'" font-size="7" rotate="10.5">0</tspan><tspan x="12.6" y="1.1" fill="#7D7D7D" font-family="'Verdana-Italic'" font-size="7" rotate="14.6">0</tspan></text>
<path fill="none" d="M179.2,54.4c3.6-10.2,8.2-20.3,15.6-28.3c7.4-7.9,17.8-13.6,28.6-13.2"/>
<text transform="matrix(0.5131 -0.8583 0.8583 0.5131 188.5729 39.2309)"><tspan x="0" y="0" fill="#7D7D7D" font-family="'Verdana-Italic'" font-size="7">8</tspan><tspan x="4.3" y="0" fill="#7D7D7D" font-family="'Verdana-Italic'" font-size="7" rotate="3.9">8</tspan><tspan x="8.5" y="0.3" fill="#7D7D7D" font-family="'Verdana-Italic'" font-size="7" rotate="8.3">0</tspan><tspan x="12.7" y="0.9" fill="#7D7D7D" font-family="'Verdana-Italic'" font-size="7" rotate="13.3">0</tspan></text>
<path fill="none" d="M87.4,250.4c5.4-18,18.7-32.3,30.4-47"/>
<text transform="matrix(0.4798 -0.8774 0.8774 0.4798 94.3683 239.9917)"><tspan x="0" y="0" fill="#7D7D7D" font-family="'Verdana-Italic'" font-size="7">8</tspan><tspan x="4.3" y="0" fill="#7D7D7D" font-family="'Verdana-Italic'" font-size="7" rotate="2.7">6</tspan><tspan x="8.7" y="0.2" fill="#7D7D7D" font-family="'Verdana-Italic'" font-size="7" rotate="5">0</tspan><tspan x="13" y="0.6" fill="#7D7D7D" font-family="'Verdana-Italic'" font-size="7" rotate="6.8">0</tspan></text>
<path fill="none" d="M207.7,304.9c-2.1-13.3,0.4-26.9,2.8-40.2"/>
<text transform="matrix(-6.750101e-02 -0.9977 0.9977 -6.750101e-02 209.7883 301.4526)"><tspan x="0" y="0" fill="#7D7D7D" font-family="'Verdana-Italic'" font-size="7">9</tspan><tspan x="4.3" y="0" fill="#7D7D7D" font-family="'Verdana-Italic'" font-size="7" rotate="3.4">6</tspan><tspan x="8.6" y="0.3" fill="#7D7D7D" font-family="'Verdana-Italic'" font-size="7" rotate="6.3">0</tspan><tspan x="12.9" y="0.7" fill="#7D7D7D" font-family="'Verdana-Italic'" font-size="7" rotate="8.8">0</tspan></text>
<g>
	<g>
		<polyline fill="none" stroke="#7D7D7D" stroke-miterlimit="10" points="85.2,341.6 85.2,348.7 275.4,348.7 275.4,341.7 		"/>
		<line fill="none" stroke="#7D7D7D" stroke-miterlimit="10" x1="180.5" y1="341.4" x2="180.5" y2="348.7"/>
		<line fill="none" stroke="#7D7D7D" stroke-miterlimit="10" x1="161.2" y1="349.2" x2="161.2" y2="343.7"/>
		<line fill="none" stroke="#7D7D7D" stroke-miterlimit="10" x1="142.4" y1="349.2" x2="142.4" y2="343.7"/>
		<line fill="none" stroke="#7D7D7D" stroke-miterlimit="10" x1="123.3" y1="349.2" x2="123.3" y2="343.5"/>
		<line fill="none" stroke="#7D7D7D" stroke-miterlimit="10" x1="104.6" y1="349.2" x2="104.6" y2="343.7"/>
	</g>
	<text transform="matrix(1 0 0 1 83.7834 339.1469)" fill="#7D7D7D" font-family="'Verdana'" font-size="8">0</text>
	<text transform="matrix(1 0 0 1 174.2945 339.1469)" fill="#7D7D7D" font-family="'Verdana'" font-size="8">0.5</text>
	<text transform="matrix(1 0 0 1 258.3414 339.1469)" fill="#7D7D7D" font-family="'Verdana'" font-size="8">1 mi</text>
</g>
</svg>
