<?xml version="1.0" encoding="utf-8"?>
<!-- Generator: Adobe Illustrator 17.1.0, SVG Export Plug-In . SVG Version: 6.00 Build 0)  -->
<!DOCTYPE svg PUBLIC "-//W3C//DTD SVG 1.1//EN" "http://www.w3.org/Graphics/SVG/1.1/DTD/svg11.dtd">
<svg version="1.1" id="Layer_1" xmlns="http://www.w3.org/2000/svg" xmlns:xlink="http://www.w3.org/1999/xlink" x="0px" y="0px"
	 viewBox="0 0 360 360" enable-background="new 0 0 360 360" xml:space="preserve">
<path fill="none" stroke="#E1E1E1" stroke-miterlimit="10" d="M340.8,371.8c-1.1-0.8-0.4-2.5,0.3-3.5c1.2-1.7,2.4-3.3,3.3-5.1
	c3.2-6.2,3.1-13.6,4.5-20.5c1.7-8.2,6.4-16.2,14-19.7c0.6-0.3,1.2-0.5,1.6-1c0.9-1.2-0.1-2.9-0.4-4.4c-0.5-2.5,1.3-4.9,3.3-6.7
	s4.2-3.3,5.1-5.7"/>
<path fill="none" stroke="#E1E1E1" stroke-miterlimit="10" d="M371.6,200.7c-1.7-0.2-3.6-0.5-5.2,0.2c-1.6,0.7-2.9,2.5-2.3,4.2
	c0.3,0.7,0.8,1.3,0.9,2c0.4,2.2-2.5,3.1-4.6,3.9c-4.8,1.8-7.2,7.1-9.4,11.7c-6,12.6-14,24.2-21.9,35.6c-1.8,2.6-3.6,5.1-5.4,7.7
	c-1.1,1.5-2.1,3-3.4,4.3c-2,2-4.6,3.4-6.9,5.2c-3.5,2.7-6.2,6.2-8.9,9.7c-1.8,2.3-3.5,4.6-4.9,7.2c-1.4,2.7-3.2,5.8-2.5,8.8
	c0.4,2,0.3,4-0.8,5.6c-1.1,1.7-2.6,3.2-3,5.2c-0.3,1.1-0.2,2.3-0.3,3.5c-0.6,5.7-6.2,10-6.4,15.7c-0.1,2.2,0.7,4.3,1.5,6.4
	c1.6,4.1,1.1,9.8,4.7,12.4c2.1,1.6,4.9,2.1,6.1,4.4c1.2,2.3,1.7,5,2.1,7.6c0.6,3.9,1.2,7.8,1.8,11.8"/>
<path fill="none" stroke="#E1E1E1" stroke-miterlimit="10" d="M289.4,371.6c0.1-4.7-1.1-9.4-2.3-14c-0.5-1.7-0.9-3.5-1.4-5.2
	c-1.2-4.6-3.1-10-7.7-11.4c-1-0.3-2-0.4-2.9-0.9c-2.3-1.4-2.4-5.3-5-6c-1.1-0.3-2.4,0.1-3.5-0.3c-0.8-0.3-1.3-0.9-1.8-1.6
	c-3.3-4-6.5-7.9-9.8-11.9c-0.9-1.1-1.9-2.3-2.2-3.8c-0.2-1.2,0-2.4,0.2-3.5c1-5.7-2.3-14.8,3-17.2c2.9-1.3,6-0.9,8.2-3.3
	c13.5-14.9,25.1-31.5,34.3-49.4c1-1.9,2-3.9,3.7-5.3c1.5-1.3,3.5-1.9,5.4-2.5c7.6-2.5,15.6-6,19.7-12.9c4.2-7.2,3.1-16.1,3-24.4
	c-0.2-12,1.9-24.1,6.2-35.3c1.4-3.7,5.4-6.7,7.4-10.1c3.6-5.9,5.4-12.8,8.6-18.9c1.7-3.2,3.8-6.3,5.3-9.6c1.6-3.4,2.6-7.2,5-10
	c3.7-4.3,10-5.7,13.2-10.3"/>
<path fill="none" stroke="#E1E1E1" stroke-miterlimit="10" d="M371,44.3c-4.1,2.6-7.2,6.8-8.7,11.4c-2.2,7-0.8,14.9-4,21.5
	c-3.1,6.3-9.8,10-15.5,14.1c-5.3,3.8-10,8.3-14,13.4c-1,1.3-2,2.8-1.7,4.4c0.2,0.9,0.9,1.7,1.1,2.7c0.2,1.4-0.9,2.7-1.9,3.7
	c-15.6,16.2-21,39.7-22.4,62.2c-0.5,7.1-0.6,14.3-2.1,21.3c-2.3,10.4-11.7,16.3-18.6,24.4c-1.1,1.3,0.1,3.7-0.9,5
	c-4.2,5.2-11.5,7.3-14.9,13.2c-0.9,1.6-1.5,4,0,5.1c1.5,1.1,3.5-0.2,4.9-1.5c6.3-5.8,12.4-11.6,18.6-17.5c7-6.8,14-13.7,20-21.3
	c0.6-0.7,1.3-1.5,2.2-1.6c1.2-0.1,2,1.1,3,1.7c3,1.8,6.5-1.7,7.8-5c2.3-5.7,2.8-12.1,1.5-18.1c-0.6-2.7-1.5-5.4-2-8.1
	c-1.4-8.4,2-16.9,6.7-24s10.6-13.3,15.4-20.3c10.7-15.8,15.5-36.4,30.8-47.8"/>
<path fill="none" stroke="#E1E1E1" stroke-miterlimit="10" d="M332.9,131.2c0.4-0.7,0.7-1.6,0.5-2.4c-0.2-0.8-1-1.5-1.8-1.4
	c-0.7,0.1-1.3,0.7-1.7,1.3c-1.2,1.8-3.1,4.3-1.9,6c0.8,1.1,2.5-0.6,3.4-1.6C331.9,132.5,332.5,131.9,332.9,131.2z"/>
<path fill="none" stroke="#E1E1E1" stroke-miterlimit="10" d="M355.6,95.5c-0.6-1-2.2,0.2-3,1c-5.7,5.6-10.8,12.2-13.3,19.9
	c-0.4,1.2-0.6,2.8,0.4,3.5c0.6,0.4,1.5,0.4,2.2,0c0.7-0.4,1.2-1,1.7-1.6c1-1.3,2.1-2.5,3.1-3.8c2.3-2.8,4.6-5.5,6.3-8.7
	S357.3,98.6,355.6,95.5z"/>
<path fill="none" stroke="#E1E1E1" stroke-miterlimit="10" d="M370.5,3.7c-2.3,1.3-3.9,3.7-4.8,6.2c-0.9,2.5-1.1,5.2-1.2,7.9
	c0,0.8,0,1.6,0.3,2.3c0.4,0.7,1.1,1.2,1.6,1.9c1.3,1.8,0.7,4.2,0.9,6.4c0.3,3,2.4,5.7,5.2,6.7"/>
<path fill="none" stroke="#E1E1E1" stroke-miterlimit="10" d="M127.4,371.3c-0.8-2.1,0.2-4.5,1.3-6.5c0.4-0.8,0.8-1.7,1.5-2.2
	c0.7-0.6,1.7-0.9,2.5-0.4c0.3,0.1,0.5,0.4,0.7,0.6c3.1,3,5.4,7.1,9.3,9c0.2,0.1,0.1,0.4-0.1,0.3"/>
<path fill="none" stroke="#E1E1E1" stroke-miterlimit="10" d="M199.3,371.8c0.4-2-0.1-4.5,1.3-6.1c0.6-0.7,1.9,0.6,2.9,0.2
	c0.7-0.3,0-1.8,0.7-2.3c0.6-0.5,1.9,0.7,2.4,0c1.1-1.4,1.5-3,3.1-3.8c1.6-0.9,1.3-2.4,1.4-4.2c0.1-1.7,3.1-1.4,4.7-2
	c1.7-0.7,4.5-0.3,5.3-2.1c0.6-1.4,1.7-2.2,3.1-1.7s2.8,1.7,4.2,1.3c1.9-0.6,2.9-3.7,4.8-3.1c0.8,0.3,1.2,1.1,1.8,1.7
	c1.1,0.9,2.8,0.6,4.1-0.1c3.3-1.7,1.9-7.1,4.9-9.3c2.1-1.6,5.4,0.9,7.7-0.3c1.4-0.8,2.7-2.2,2.3-3.8c-0.2-0.7-0.6-1.3-1.1-1.9
	c-3.3-3.8-10.9-4.5-11.9-9.5c-0.6-2.9,2.4-5.4,2.1-8.3s0.3-7.4-2.4-8.4c-1.3-0.5-2.8,0-3.5-1.2s-0.9-2.6-1-3.9
	c-0.2-2,0.7-4.4-0.5-6.1c-0.6-0.9-2.6,0.5-3.3-0.4c-1.6-2,0.1-5-0.9-7.3c-0.5-1.1-1-2.3-2-3c-1-0.7-2,0.7-3.2,0.4
	c-2.2-0.6-2.8-3.6-5.1-3.5c-4.4,0.2-4.8,7.9-9.1,8c-1.5,0-1.8-2.4-3.2-2.7c-1.5-0.2-3,0.1-4.4,0.3c-3.3,0.5-6.7,0.4-10-0.1
	c-0.6-0.1-1.2-0.2-1.5-0.7c-0.2-0.3-0.3-0.7-0.4-1.1c-0.4-1.6-1.5-3.2-1.2-4.8c0.4-2.1,3.1-3,4.7-4.4c1.6-1.4,3-3.5,2.7-5.6
	c-0.3-1.6-1.4-2.8-2-4.3c-0.9-2.2-0.3-4.7-0.1-7.1c0.3-3.5,0-7-0.9-10.4c-0.2-0.9-0.5-1.8-1.1-2.5c-1.1-1.4-3.1-1.8-4.8-1.4
	c-1.7,0.3-3.3,1.2-4.8,2.1c-2.4,1.4-4.6,5.3-7.1,4.2c-4-1.7-6.7-6.2-11.1-6c-0.8,0-1.7,0.2-2.2,0.8c-0.4,0.4-0.5,1.1-0.6,1.6
	c-0.9,3.3-4.5,7.7-7.5,6.1c-1.7-0.9-3.3-1.4-4.9-2.6c-2.9-2.1-2.5-7.4-6-8.5c-0.7-0.2-1.5-0.3-2.2-0.7c-1.2-0.7-1.6-2.2-2.2-3.4
	c-1.6-3.9-6.2-7.2-9.8-5.2c-0.7,0.4-1.5,1.1-2.3,0.9c-0.4-0.1-0.7-0.3-1-0.6c-2.2-1.9-3.7-4.5-4.1-7.4c-0.2-1.6-0.2-3.2-0.6-4.8
	c-0.5-2-1.8-3.7-3-5.3c-5.4-7.3-10.7-14.5-16.1-21.8c-2.7-3.7-6.3-7.8-10.9-7.6c-4.2,0.2-7.2,3.9-9.4,7.5c-2.2,3.5-5,10.9-8.5,8.7
	c-3.1-1.9-0.3-7.4,0.8-11c0.5-1.8,1.3-3.7,0.5-5.4c-0.8-1.9-3.1-2.9-3.6-4.9c-0.2-0.9,0-2-0.2-2.9c-0.3-1-1-1.7-1.7-2.5
	c-3.2-3.8-4.6-9.1-3.6-13.9c0.4-1.9,1.1-3.9,0.5-5.7c-0.3-0.8-0.8-1.5-0.7-2.4c0.1-0.7,0.6-1.3,0.8-1.9c1-3-3.4-5.9-2.2-8.8
	c1.1-2.7-1.3-5.2-1-8.1c0.6-5.9,2.2-10.5,3.4-16.3c0.5-2.2,2.7-3.7,2.9-5.9c0.1-1,0.1-2.1,0.3-3.1c0.4-1.9,1.6-3.5,2.6-5.1
	c2-3.4-0.3-9.5,3.2-11.2c1-0.4,2-0.2,2.6-1c3.5-4.5,5.1-10.4,4.4-16c-0.2-1.5-0.5-3-0.3-4.4c0.3-1.9,1.4-3.9,0.6-5.6
	c-0.4-0.8-1.2-1.5-1.2-2.4c0-0.7,0.5-1.2,0.8-1.8c0.5-1,0.6-2.3,0.1-3.4c-0.3-0.6-0.8-1.2-0.9-1.9c-0.1-0.7,0.2-1.3,0.5-1.9
	c2.4-5.4,4.9-10.8,7.3-16.2c3.3-7.2,6.6-14.5,8.5-22.2c1.1-4.2,1.7-8.5,3.6-12.4c0.8-1.7,1.9-3.4,2.5-5.2c0.8-2.4,0.8-5,1.2-7.6
	s1.4-5.2,3.6-6.5"/>
<path fill="none" stroke="#E1E1E1" stroke-miterlimit="10" d="M121.6-12.3c-2.8,6.9-5.6,13.8-8.4,20.7c-1.7,4.2-3.4,8.3-5.4,12.3
	c-1.8,3.4-3.8,6.7-5.5,10.2c-4.2,9-5.7,19-7,28.9c-0.4,2.9-0.8,5.8-1.2,8.7c-0.7,4.8-1.3,9.5-2.3,14.2c-1.9,9.8-5,19.4-9.1,28.6
	c-0.6,1.2-1.1,2.5-1.6,3.7c-1.2,3-1.8,6.1-2.5,9.3c-0.3,1.4-0.6,2.8-0.9,4.2c-0.5,2.1-0.9,4.2-1.1,6.3c-0.3,2.6-0.2,5.2-0.2,7.7
	c0.1,4.1-2,8.9,0.2,12.3c1.7,2.6,3.1,4.8,4.2,7.6c1.4,3.5,4.8,6.1,4.8,9.9c0,0.8-0.1,1.7,0.3,2.4c0.8,1.6,3.3,1.4,4.8,0.5
	c1.6-0.9,2.8-2.4,4.6-2.8c3.5-0.9,6.5,2.6,8.5,5.7c2.5,4,5.1,8,8.5,11.4c1.8,1.7,3.7,3.3,4.9,5.5c0.7,1.3,1.2,2.7,2.2,3.8
	c2,2.3,5.5,2.3,8.3,3.4c3.9,1.6,2.9,7.3,6,10.1c3.8,3.4,10.2-1.8,15-0.4c3.1,0.9,5.8,2.7,8.5,4.5c1.5,1,2.6,2.9,4.4,2.9
	c3.4-0.1,6.9-0.9,9.2,1.6s0.7,7.1,3.1,9.5c0.6,0.6,1.7-0.3,2.4,0c1.4,0.7,0,3.6,1.4,4.4c3.7,2.2,15.2-1.7,19-4.1
	c1.8-1.1,0.9-4.1,2.5-5.5c1.6-1.4,3.4-2.4,5.1-3.7c4.8-3.8,3.3-11.1,6.5-16.4c1.6-2.6,4-4.2,5.1-7s3.7-8,6-6
	c2.9,2.5-4.6,8.5-1.9,11.2c1.1,1.1,3-0.8,4.6-0.9c5.9-0.7,16.9-7,17.2-1c0.1,1.7-2.1,2.9-1.3,4.4c0.7,1.6,3.3,1.1,4.1,2.6
	c1.6,2.6-1.9,5.9-1.9,9c0,1.7,1.1,4,2.6,3.3c0.6-0.3,0.9-0.8,1.1-1.4c1.1-2.3,2-4.8,3.9-6.4c1.9-1.7,5.2-2,6.8-0.1
	c1.1,1.4,1.1,4.8,2.8,4.6c3.9-0.4,7.8,1.2,11-1.1c1.1-0.7,1.5-2.1,2-3.3c1.3-3.1,3.2-5.9,5.7-8.2c1-0.9,2.2-1.8,2.8-3
	c0.8-1.4,0.8-3.2,0.8-4.8c0-14.8,0-29.5,0-44.3c0-2.1,0-4.2-0.3-6.3c-0.4-2.8-1.4-5.8-0.2-8.3c1.3-2.7,4.5-3.8,7.1-5.1
	c7.5-3.8,12-11.5,16.3-18.7c0.6-1,1.2-2,1.8-3.1c2.3-4,4.7-8.1,7.5-11.9c5.4-7.4,12.3-13.6,20.2-18.1c2.9-1.7,6.1-3.1,8.4-5.6
	c5.6-5.8,5.1-15,4.1-23.1s5-15.4,3.4-23.3c-0.5-2.6-4.9-2.5-6.6-4.5c-1.7-2.1-2.2-5-1.2-7.5c1.9-5,4.9-9.9,9.8-12.1
	c2.8-1.3,6-1.9,8.7-3.5c5.2-3.1,7.5-9.2,9.5-14.9"/>
<path fill="none" stroke="#E1E1E1" stroke-miterlimit="10" d="M267.1,367.8c0.2,0.4,0.5,0.7,0.9,0.8c0.6,0.1,1.1-0.5,1.4-1.1
	c0.3-0.8,0.4-1.7,0.2-2.6c-0.3-1.2-1.4-2.4-2.6-2.1c-0.1,0-0.2,0.1-0.3,0.1c-0.1,0.1-0.1,0.3-0.2,0.5
	C266.4,364.9,266.3,366.5,267.1,367.8z"/>
<path fill="none" stroke="#E1E1E1" stroke-miterlimit="10" d="M141.3-11.5C128,1.4,119.8,18.6,111.8,35.4c-1.8,3.8-3.6,7.6-4.1,11.8
	c-0.5,3.9,0.1,7.8,0.1,11.7c-0.1,7.4-2.7,14.5-3.5,21.8c-1,9.2,0.8,18.4,0.2,27.6c-0.7,11-8.9,20.7-9,31.7
	c-0.1,7.2-5.8,15.8-0.8,20.9c1.9,1.9,5.5,0.1,7.4,2c1.9,1.9,3.1,4.4,4.6,6.7c3.2,5,7.8,9,13.2,11.3c1.3,0.6,2.7,1.1,4.1,1
	c6.9-0.3,13.3-6.8,14.6-13.6c0.5-2.5-2.9-4.5-2.2-7c0.7-2.5,4.2-2.5,5.6-4.7c1.2-1.8-3.7-4.8-2-6.1c0.8-0.6,2.5,0.8,2.7-0.2
	c0.3-1.8-1.8-3.5-1.3-5.2c0.6-1.8,3.1,0.9,4.2-0.6c2.3-3.2-3.1-14.3,3.5-18.7c1.1-0.8,1.7-2.2,1.9-3.6c0.2-1.5-0.6-2.9-0.8-4.3
	c-0.3-2.4,1-4.8,2.4-6.8c4.8-7.4,10-14.6,13.4-22.7c4-9.5,5.5-20.3,12-28.3c1.2-1.5,2.6-2.9,3.1-4.7c0.4-1.6,0.1-3.3,0.4-4.9
	c0.8-4.4,8.8-8.2,10.5-4c2.6,6.5-2.9,18.7-1.2,20.9c2.2,2.9,7.3-0.2,10.9,0.6c2,0.5,4.1,1.2,5.2,3c0.7,1.1,0.9,2.4,1.2,3.6
	c1.3,7.3,2.6,14.5,3.9,21.8c0.3,1.8,0.6,3.6,0.4,5.5c-0.3,1.8-1.1,3.4-1.7,5.2c-1.7,5.1-3,14.7,2.4,15.3c5.6,0.5,9.6-9.4,14.8-7.3
	c1.2,0.5,2,0,2.9-1s1.3-2.2,2.1-3.1c1.9-2,5.1-1.9,7.5-3.3c2.3-1.4,0.8-5.1,2.7-7c1.6-1.6,4.2-1.4,5.4-3.4c1.2-1.9,2.8-4.2,5.1-4.1
	c3.1,0.1,4.2,4.4,7,6c2.3,1.3,5.2,0.4,7.8,0.6c0.7,0.1,1.5,0.2,2.2,0.1c1.3-0.2,2.2-1.3,3.4-1.8c2.1-1,4.8-0.2,6.4,1.5
	c1.6,1.7,2.1,4.2,1.9,6.6c-0.1,0.6-0.1,1.4,0.3,1.8c0.3,0.3,0.7,0.3,1.1,0.4c3.3,0.4,6.6-1,9.1-3.2s4-5.3,4.8-8.5
	c0.4-1.5,0.6-3.1,0.9-4.7c1.3-6,4.4-11.5,7.9-16.5c0.7-1,1.4-2,1.7-3.2c0.1-0.6,0.1-1.2,0.1-1.8c0-0.8,0-1.6,0-2.4
	c0-3.1,0.1-6.1,0.1-9.2c0-0.5,0-1.1-0.5-1.4c-0.3-0.2-0.8-0.2-1.2-0.1c-2.1,0.3-4.3,1.7-6.3,1c-1.6-0.6-0.8-3.2-1-5
	c0-0.4-0.6-1-0.7-1.3c-0.6-1.7,0.6-3.5,0.7-5.3c0.1-1.8-0.8-3.4-1.3-5.1c-0.6-1.7-0.8-3.7,0.3-5.1c0.8-1,2-1.4,3-2.2
	c1-0.7,1.8-2.1,1.1-3.2c-0.7-1.2-2.8-1.2-3.1-2.6c-0.3-1.4,1.8-2.5,1.3-3.8c-0.2-0.4-0.5-0.6-0.8-0.8c-2-1.4-5.5-1.4-6.4-3.7
	c-0.7-1.7,1.3-3.4,1-5.2c-0.3-1.5-1.3-3-1-4.5c0.2-0.7,0.6-1.3,1.1-1.8c0.7-0.7,1.6-1.1,2.5-1.5c0.5-0.2,1-0.5,1.6-0.7
	c4.2-2,8.3-3.9,12.2-6.4c4.1-2.6,7.8-5.7,11-9.3c3.5-3.8,6.7-8.4,11.6-10.2"/>
<path fill="none" stroke="#E1E1E1" stroke-miterlimit="10" d="M287.9,22.7c-0.9-0.4-2.4,0.3-2.8-0.6c-0.4-0.7,0-1.6-0.7-1.9
	c-0.7-0.3-1.6-0.1-2.2,0.4s-1,1.2-1.3,1.9c-0.4,0.9-0.7,1.9-0.6,2.9c0.1,1,0.6,2.1,1.5,2.4c1.1,0.3,2.2,0.4,3.3,0.6
	c0.5,0.1,1.1,0.2,1.6,0c1-0.3,1.5-1.2,2-2.1c0.5-0.9,0.9-2,0.3-2.8C288.7,23.1,288.3,22.9,287.9,22.7z"/>
<path fill="none" stroke="#E1E1E1" stroke-miterlimit="10" d="M282.2-12.2c-4,1.6-3.9,7.6-7.4,10c-1.1,0.8-2.5,1.1-3.8,1.2
	c-5.8,0.7-11.8-1.1-17.3,0.5c-3.7,1.1-6.7,3.5-9.7,5.8c-4.6,3.6-9.3,7.3-13.1,11.8s-6.9,9.8-7.6,15.6c-0.1,0.5-0.1,1,0,1.5
	c0.2,0.7,0.8,1.2,1.4,1.6c3.5,2.5,7.4,4.5,11.5,5.6c3.4,1,6.9,1.4,10.2,2.8c3.3,1.3,6.4,3.8,7.3,7.2c0.9,3.1-0.2,6.6,1,9.6
	c0.4,0.9,0.9,1.6,1.1,2.5c0.3,1,0.2,2.1,0.1,3.2c-0.8,6.1-2.6,12.1-5.5,17.5c-0.3,0.6-0.6,1.2-1.2,1.5c-0.7,0.4-1.5,0.2-2.3,0.1
	c-2.3-0.2-4.6,0.6-6.3,2.2c-1.3,1.3-2.1,3-3.8,3.7c-1.1,0.5-2.3,0.5-3.6,0.5c-3.1,0-7.8,2.6-9.3-0.1c-0.9-1.5,0.1-3.5-1.1-4.8
	c-1.2-1.3-2.8-2.1-4.1-3.3c-2.8-2.8-3-7.2-3.1-11.2c-0.1-2.9-0.1-5.7-0.2-8.6c-0.1-2.9-0.4-6.4-3-7.9c-1.2-0.7-2.8-0.7-3.9-1.5
	c-1.9-1.3-2.2-3.8-2.7-6.1c-0.7-3.6-2.1-7-4.1-10.1c-0.5-0.8-1.1-1.6-2-2.1c-2.1-1.3-4.8-0.4-7.1,0.2c-6.7,1.6-14,0.4-19.8-3.3
	c-3.1-2-8.7-6.1-9.9-2.7c-0.8,2.2-3.3,4.9-4.3,2.8c-1.6-3.4-0.4-7.6,0.8-11.2c0.9-2.7,2.5-5.1,3.6-7.7s1.7-5.7,0.5-8.3
	c-0.7-1.5-1.9-2.8-2.1-4.4c-0.1-1.4,0.7-2.8,1.4-3.9c2.8-4.3,6-8.4,9.6-12.1"/>
<path fill="none" stroke="#E1E1E1" stroke-miterlimit="10" d="M190.4-12.1c-1.3,3.6-2.1,7.4-2.3,11.2c-0.2,3.1-0.2,6.6-2.4,8.9
	c-0.8,0.9-2,1.5-2.3,2.7c-0.1,0.5,0,1,0,1.5c0.4,2.6,0.8,5.3,1.2,7.9c0.1,0.4,0.1,0.8,0.4,1c1.2,0.8,2.5-2.8,3.4-1.6
	c0.9,1.2,1.2,2.9,2.5,3.8c1.2,0.9,1.9,0.1,3.5,0.3c0,0,1.6,1.2,2.1,0.9c2.4-1.5,0.9-5.8,3-7.7c1.8-1.6,4.3-2.1,6.4-3.2
	c2.9-1.4,5.2-3.9,7.8-6c2.4-2,5.1-3.7,7.9-5c2.6-1.3,5.4-2.2,7.8-3.9c1.2-0.8,2.2-1.8,3.4-2.6c2.1-1.4,4.7-1.9,7.2-1.7
	c1.4,0.2,2.7,0.6,4.1,0.5c1.6-0.1,3-1,4.4-1.8c4-2.5,7.8-5.2,11.5-8.3"/>
<path fill="none" stroke="#E1E1E1" stroke-miterlimit="10" d="M17.3-14.2c-2.1,6.3-3.1,12.9-3.1,19.5c0,6-0.8,11.8-1.5,17.7
	c-0.1,1.1,1.4,1.6,2.5,1.6c1.1,0,2-0.5,3-0.9c7.7-2.8,17.2,4.4,24.3,0.4c2.8-1.5,1.6-6.1,3-9c1.6-3.2,5.4-4.5,8.4-6.5
	c6.8-4.3,9.9-12.5,15.5-18.3c2.3-2.3,4.9-4.1,7.5-6"/>
<path fill="none" stroke="#E1E1E1" stroke-miterlimit="10" d="M-12.3,67.6c2.9-0.5,5.7,0.8,8.5,1.9s6,1.8,8.5,0.2
	c1.8-1.1,2.7-3.2,4.4-4.4c1.8-1.2,4.2-1.4,5.7-2.9c2.1-2.1,1.4-5.5,1-8.5c-0.8-5.9,0-11.9,2.3-17.4c0.4-0.9,0.8-1.7,1.4-2.4
	c1.2-1.4,3-2,4.8-2.5c5.5-1.4,11.8-1.7,16.2,1.9c0.6,0.5,1.2,1.1,2,1.1c1.4,0.1,2.3-1.3,2.9-2.6c0.7-1.2,2.1-1.3,3.2-2.1
	c2.3-1.8,2.4-5.1,4.7-6.9c8.2-6.1,15.8-13,22.7-20.5c1.4-1.5,2.8-3.1,3.8-4.8c2-3.4-2-9.9,1.6-11.5c0.4-0.2,0.3,0.9,0,1.3"/>
<path fill="none" stroke="#E1E1E1" stroke-miterlimit="10" d="M-13.4,76.5c9.5,1.3,20.4,2.2,27.6-4.1c2-1.7,3.6-4,6-5.1
	c1.7-0.8,3.8-1.2,4.8-2.8c1.1-1.8,0.1-4.2-0.5-6.2c-1.7-5.3-0.9-11.4,2.2-16c0.3-0.5,0.8-1,1.4-1.2c0.8-0.1,1.5,0.4,2,1
	c2.4,2.4,3.2,6.1,5.6,8.5c1.4,1.4,3.6-1.1,5.3-2.1c3.2-1.9,7.3-1.3,10.9-2.2c5.5-1.3,9.5-5.9,13.1-10.2c3.6-4.3,7.2-8.6,10.8-13
	c3-3.7,6.1-7.3,8.4-11.5c3.8-6.9,5.5-15.1,11-20.8c0.8-0.8,2.1-1.8,2.8-1.1C99.5-8.5,96.5-6,95.3-4c-1.6,2.7-1.1,6.2-0.9,9.3
	c0.5,8.1-1.6,16.3-5.9,23.1c-0.8,1.3-1.8,2.6-2.3,4.1c-0.4,1.2-0.5,2.6-0.9,3.8c-1.7,6.3-8.6,9.7-12.1,15.1
	c-3.1,4.8-3.3,11.2-0.7,16.2c1.2,2.2,2.8,4.1,3.4,6.5c0.9,3.6-0.8,7.3-2.8,10.4c-2.1,3.1-4.6,6-5.6,9.5c-0.5,1.8-0.6,3.6-0.8,5.5
	c-0.9,7.2-4.1,14.4-10.1,18.6c-0.4,0.3-0.9,0.6-1,1.1c-0.1,0.5,0.1,1,0.3,1.4c1.6,4-2.6,8-1.9,12.3c0.3,2,2,3.4,1.8,5.4
	c-0.8,9.1-2.9,18.2-1.2,27.2c0.3,1.7,0.7,3.1,1.1,4.8c1.1,4.3,1.8,8.9,5.2,11.8c2,1.7,4.1,2.8,4.6,5.4c0.8,4.4,1.6,9,0.6,13.4
	c-1.2,4.9-8.7,13.3-3.7,14.1c4.2,0.7,1.5,4.1,1.8,6c0.5,2.9,19.1-9.3,31.3-7.5c0.8,0.1,6.2,1.8,7.7,4.3c4.7,7.8,3,17.4-1.2,25.5
	c-1.9,3.6-4.5,6.8-7.3,9.7c-1.2,1.3-2.5,2.5-3.3,4c-1.2,2.2-1.2,4.8-1.1,7.3c0.3,7.3,1.7,14.7,4.9,21.3c3.2,6.6,8.1,13.3,15.1,15.5
	c2.5,0.8,4.9-1.2,7.5-1.9c3.6-1,6.8,0.6,10.4-0.2c1.2-0.3,2.4-0.6,3.7-0.5c1.2,0.1,2.5,0.8,3,1.9c0.4,1.2-0.2,2.6-1,3.6
	c-0.7,0.9-1.4,2.2-0.7,2.9c0.2,0.2,0.7,0.2,0.9,0.5c2.5,2.4,3.5,5.8,5.9,8.1c0.9,0.9,1.9,1.8,3.2,2.3c3.4,1.1,6.7-1.8,10.3-2
	c2.8-0.2,5.4,1.4,8.1,2.2c3.6,1,7.5,0.6,11.2,0.1c1.5-0.2,3.2-0.4,4.5-1.2c1-0.7,1.8-1.6,2.7-2.4c2.2-1.9,5.3-2.6,8.2-3.1
	c4.7-0.8,9.4-1.2,14.1-1.7c0.4,0,0.8-0.1,1.1,0.1c1.2,0.4,1.1,2.1,0.8,3.2c-0.3,1.2-0.5,2.8,0.6,3.3c0.4,0.2,0.9,0.2,1.4,0.3
	c1.6,0.3,2.7,2,2.8,3.6c0.1,1.7-0.6,3.2-1.6,4.6c-3,4.5-8.1,7-13,9.4c-2.7,1.3-5.4,2.6-8,3.9c-5.4,2.6-10.9,5.3-16.8,6.3
	c-1.4,0.2-2.8,0.4-4,1.1c-1.4,0.8-2.3,2.2-3.6,3.2c-2.7,2.2-6.6,2.3-9.7,3.8c-1,0.5-2,1.2-2.5,2.2c-1,2.3,1,4.7,2.8,6.4
	c0.7,0.7,1.5,1.3,2.4,1.7c1,0.4,2,0.3,3,0.4c5.6,0.3,10.8,3.9,13.1,9c0.1,0.3,0.3,0.6,0.7,0.6c0.3,0,0.1-0.7-0.1-0.4"/>
<path fill="none" stroke="#E1E1E1" stroke-miterlimit="10" d="M152.8,330.1c0.1,0.5,0.6,0.9,1,1.3c0.4,0.4,0.9,0.8,1.3,1.1
	c0.1,0.1,0.2,0.2,0.4,0.3c0.2,0.1,0.5,0,0.8-0.1c1.1-0.4,2.3-1.3,2-2.3c-0.1-0.3-0.4-0.6-0.6-0.9c-0.8-0.8-1.7-1.5-2.8-1.5
	C153.6,328.1,152.5,329.1,152.8,330.1z"/>
<path fill="none" stroke="#E1E1E1" stroke-miterlimit="10" d="M126.5,331.1c-0.3,0.1-0.7,0.1-1.1,0.1c-1.9,0.1-3.7,1.6-4.2,3.4
	c-0.3,1-0.3,2-0.7,2.9c-0.4,0.9-1.4,1-2.3,1.4c-1,0.5-0.7,2.1-0.6,3.2c0.1,1.1,0.6,2.2,1.6,2.6c0.5,0.2,1.1,0.2,1.7,0.2
	c2.6-0.2,4.9-1.7,7.5-2.2c2-0.4,4.6-0.4,5.6-2.3c0.3-0.5,0.4-1.1,0.7-1.6c0.3-0.6,0.9-1,1.6-1.4c1.9-1.1,4.2-1.5,6.1-2.5
	c2-1,4.9-3.2,3.7-5c-1.7-2.5-6.1,0.3-8.8-0.8c-0.7-0.3-1.3-0.8-2-1.1c-2.5-1.2-5.7-0.5-7.4,1.7C127.4,330.3,127.1,330.9,126.5,331.1
	z"/>
<path fill="none" stroke="#E1E1E1" stroke-miterlimit="10" d="M-13.3,87.2C-5,87,3.1,88.5,11,86c8.2-2.5,12.6-9.6,20-14
	c3.8-2.3,7.9-2.5,12-3c2-0.2,3,0.3,5,0c3.1-0.5,5-2,8-2c2,0,5-1,7,0c4,2,2.2,8.1,0,11c-4.7,6.3-3.2,14.5-8,20c-5,5.7-19.5-3-19,7
	c0.3,7,4,13,7,19c2,4,1.6,9.1,3,13c3.1,8.4-4.9,16.6-6.2,23.6c-0.1,0.4,1.1,0.9,1.2,1.4c0.7,3.1-2.2,6.1-1,8c3.5,5.4,7,10,7,16
	c0,3,4.3,3.8,6,7c3.6,6.7-0.6,13.2-3,19c-0.9,2.1-5-4.9-3.8,3.7c0.1,0.8,1.9-0.1,2.8,0.3c10.8,5.6-7.6,19.5-16,21
	c-1,0.2-2.1,0.4-3,0c-1.3-0.5-2.8-0.7-3.7-2.7c-2-4.6-6.1-5.1-8.3-3.3c-1.8,1.5-3.3,3.9-5.6,5.9c-1.1,1,3.2,2.4,2.9,4.1
	c-0.6,4.3-2.6,8.1-0.3,12c0.5,0.9,0.5,1.8,1,2c10.4,3.8,20.1-0.7,33.1-4.3c0.5-0.2,2,0.7,2.2,1.2c1,1.9,0.9,5,2.9,5.7
	c7.7,2.6,10.9-13.4,18.9-15c1.2-0.2,2.5-0.2,3.4,0.6c0.7,0.6,1,1.6,1.5,2.4c0.6,1,1.4,1.8,1.9,2.9c2.2,4-0.7,8.9-0.8,13.5
	c-0.1,4.8,2.9,9.1,3.3,13.8c0.1,1.7-0.1,3.5,0.1,5.2c0.4,2.6,1.9,4.8,2.7,7.3c0.5,1.6,0.7,3.2,1.2,4.8c1.7,5.7,6.3,10,10.4,14.4
	c4.1,4.4,4.1,10.9,7.7,15.7c1.3,1.7,2.4,3.1,2.2,5.2c-0.3,2.8-0.8,5.7-2.4,8c-1.3,2-3.3,3.4-4.9,5.2c-2.6,2.9-4.2,6.5-5.8,10
	c-1.4,3.3-2.9,6.5-4.3,9.8c-0.5,1.2-1.1,2.6-0.8,3.9c0.6,2.2,3.5,3.7,2.9,5.9"/>
<path fill="none" stroke="#E1E1E1" stroke-miterlimit="10" d="M-10.9,112.1c3.1,0.1,5.8-2.1,8.4-3.8c4.1-2.8,8.8-4.7,13.4-6.6
	c6.1-2.5,11.8-8.2,18.3-7.4c2.3,0.3,1.9,4.2,1.4,6.5c-0.6,2.3-1.6,4.6-1.1,6.9c0.3,1.4,1.2,2.8,1,4.3c-0.2,1.1-0.9,2.1-1.3,3.2
	c-0.4,1.4,0,2.8,0.3,4.2c1.1,5.2,1.2,10.5,1.3,15.8c0.1,4.5,0.1,9.1-1,13.4c-0.4,1.6-0.9,3.1-1,4.8c0,1.6,0.5,3.3,0.2,4.9
	c-0.5,2.3-2.7,4.1-2.8,6.5c0,0.9,0.2,1.7,0.3,2.6c0.2,1.6-0.1,3.2-0.5,4.7c-2.1,10.1-4.4,20.7-11.2,28.5c-2.3,2.7-5.3,5.1-6.2,8.5
	c-1.3,4.6,1.5,9.5,0.9,14.3c-1.2,9.2-20.9,13-16.9,21.4c0.9,2,3.8-1.2,5.9-1.4c3.7-0.3,3.9,6.2,5.1,9.8c1.7,5.2,4.2,10,7.5,14.4
	c1.9,2.6,5.4,5.1,8,3.3c5.8-4,13.2-2.9,20.2-2.1c0.7,0.1,1.5,0.2,1.9,0.8c0.5,0.7,0.2,1.7,0,2.5c-0.6,2.5-0.4,5-0.2,7.6
	c0.4,5.6,0.9,11.2,1.3,16.8c0.1,0.7,0.1,1.4-0.3,2c-0.3,0.5-0.8,0.7-1.2,1.1c-1,1.3,0.7,3.4,2.3,3.3c1.7-0.1,3-1.4,4.2-2.6
	c4.5-4.7,9.1-9.3,13.6-14c1-1,1.9-2,3.2-2.6c2.2-1,5-0.4,6.6,1.4c1.7,1.9,1.9,4.6,2.1,7.2c0.9,7.9,3.3,15.7,7.2,22.7
	c2,3.6,4.4,7.4,4,11.5c-0.4,3.7-6.6,5.7-5.8,9.4c0.3,1.2,2.4,0.9,3.6,1.4c0.3,0.1,0.6,0.2,0.8,0.5c0.3,0.4,0.2,0.9,0.2,1.4
	c-0.7,4.6-2.8,8.9-5.8,12.4c-0.9,1-1.8,1.9-2.5,3c-0.9,1.5-1.2,3.2-2,4.7c-0.5,1-1.2,2-1.5,3.1c-0.5,2.2,0.1,5.1,2.1,6.1
	c2.1,1,3.9,3.2,2.3,4.9"/>
<path fill="none" stroke="#E1E1E1" stroke-miterlimit="10" d="M-14.3,128.8c6-3.5,12.8-5.8,19.8-6.7c1.8-0.2,3.7-0.3,5.2,0.7
	c1.3,0.9,2,2.4,2.6,3.9c1.7,4.7,2.6,9.6,3.1,14.5c0.5,5.3,0.5,10.7-0.2,16c-1,7.4-3.3,14.5-6.1,21.4c-1.4,3.5-3.2,7.3-6.8,8.5
	c-2.3,0.8-5.1,0.5-6.9,2.1c-2,1.8-1.8,4.9-2.4,7.6c-0.4,2-1.4,3.9-2.4,5.8c-0.8,1.5-1.7,3.1-2.9,4.2c-1.3,1.2-3.1,1.8-4.8,1.3"/>
<path fill="none" stroke="#E1E1E1" stroke-miterlimit="10" d="M-13.7,140.7c2.6-1.7,5.3-3.4,7.9-5.1c1.4-0.9,2.9-1.8,4.5-2.1
	c3.1-0.5,7.4-0.2,8.8,3c1.3,2.9,1.2,7.4,1.6,10.5c0.2,1.7,0.4,3.3,0.3,5c-0.1,1.6-0.6,3.1-1.2,4.6c-1.8,4.3-4.7,8.1-7.7,11.7
	c-3.8,4.6-8.3,9.4-14.3,10.4"/>
<path fill="none" stroke="#E1E1E1" stroke-miterlimit="10" d="M-12.5,149.8c-0.2,0.4-0.8,0.9-0.5,1.3c1.8,2.1,4.7-2.9,6-5.4
	c0.3-0.5,0.6-1.1,1-1.5c0.4-0.4,0.9-0.6,1.4-0.9c1-0.5,2-1,3-1.5c0.3-0.2,0.7-0.3,1.1-0.3c0.4,0.1,0.6,0.5,0.9,0.8
	c0.7,1.1,1.4,2.2,2.1,3.3c0.7,1,1.4,2.2,1.4,3.4c0.1,1.7-0.9,3.3-1.9,4.7c-1,1.5-2.1,3-3.1,4.5c-0.8,1.1-1.6,2.3-2.6,3.2
	c-1.5,1.4-3.3,2.4-5.2,3.3c-2.6,1.4-5.3,2.7-7.9,4.1"/>
<path fill="none" stroke="#E1E1E1" stroke-miterlimit="10" d="M-13.4,270.3c1.1-1.1,2.9,0,4,1c4.4,4.2,8.7,8.4,13.1,12.6
	c3.2,3,3,7.6,5.5,11.3c1.1,1.6,2.9,2.6,3,4.6c0.3,5.8-2.5,11.3-4.4,16.8c-0.2,0.7-0.5,1.4-0.4,2.1c0.1,0.9,0.6,1.6,1.1,2.4
	c3.5,6.1,2.2,13.6,1.8,20.6c0,0.5,0,1.1,0.3,1.5c0.3,0.3,0.7,0.4,1.1,0.4c6.1,0.8,12.4-0.3,18.5-1.4c2-0.4,4.1-0.7,6-1.6
	c2.1-0.9,3.9-2.4,5.7-3.8c2.3-1.8,4.6-3.7,6.9-5.5c2.4-2,5.1-4.7,4.3-7.7c-0.2-0.6-0.5-1.2-0.6-1.8c-0.2-1.3,0.7-2.5,1.8-3.1
	c1.1-0.6,2.6-1.4,3.7-0.8c1.3,0.6-0.2,2.7-0.4,4.1c-0.5,3.1-1.2,6.3,0.3,9c1,1.7,4.1-0.2,5.7,0.9s2.4,3.5,1.4,5.2
	c-0.7,1.2-2,1.8-3.1,2.6c-4.6,3.4-4.9,10.3-8.7,14.7c-0.6,0.7-1.4,1.9-0.7,2.6c1,0.9,3-0.9,3.8,0.2c2.1,2.7,3.8,5.8,4.7,9.1
	c0.8,3,2.6,5.1,4.6,7.4c0.6,0.7-0.2,2-0.7,2.8"/>
<path fill="none" stroke="#E1E1E1" stroke-miterlimit="10" d="M-11.5,357.8c0.3,0.5,1.2,0,1-0.5c-0.2-0.5-1.5-0.1-1.1,0.3
	c3.6,3.5,10,1.6,14.7,3.3c1.9,0.7,3.8,1.5,5.9,1.8c2.6,0.5,5.2,0.2,7.9-0.1c4.6-0.5,9.3-0.9,13.9-1.4c2.5-0.3,5.4-0.3,7,1.6
	c0.5,0.6,0.7,1.2,1,1.9c1.5,4,1.6,8.6,0.2,12.6"/>
<path fill="none" stroke="#D6D6D6" stroke-miterlimit="10" d="M369.4,263.4c-2.7-0.4-4.9,2.4-7.7,2.6c-1,0.1-2.1-0.2-3.1,0.1
	c-0.5,0.2-0.9,0.5-1.4,0.8c-1,0.6-2.1,1-3.3,1.1c-0.5,0-1.1,0-1.5,0.4c-0.2,0.2-0.3,0.6-0.3,0.9c-0.3,1.6-0.5,3.2-0.6,4.9
	c-0.1,0.7,0,1.6,0.7,1.7c0.8,0.2,1.7-0.8,2.2-0.2c0.1,0.1,0.2,0.3,0.2,0.5c0.2,0.9,0.2,1.9,0,2.8"/>
<path fill="none" stroke="#D6D6D6" stroke-miterlimit="10" d="M352.8,284.9c-1.3,5.3-6.6,9-10.4,12.9c-2.9,2.9-5.3,6.2-7.7,9.4
	c-1.8,2.4-3.6,5.1-3.3,8.1c0.1,0.7,0.2,1.3,0,1.9c-0.2,0.4-0.5,0.7-0.8,0.9c-1.7,1.3-4.1,2.6-3.9,4.7c0.1,1.1,1,1.9,1.1,3
	c0.1,1.3-0.9,2.5-2.1,3.2c-1.2,0.7-2.5,1.1-3.5,2c-2.1,2-1.9,5.3-1.6,8.1c0.2,1.8,0.4,3.7,0.7,5.5c0,0.4,0.1,0.8,0.3,1.2
	c0.3,0.6,0.8,1,1,1.6c0.2,0.6,0,1.3-0.2,2c-2.2,7.7,0,16.5,5.6,22.2"/>
<path fill="#EAEAEA" stroke="#D6D6D6" stroke-miterlimit="10" d="M348.7,295c-0.1-0.2,0-0.4,0-0.6c0.3-0.8,1.2-1.4,2.1-1.3
	c0.7,0.1,1.4,0.5,2,1c0.5,0.4,1,0.8,1.4,1.3c0.1,0.2,0.2,0.4,0.3,0.6c0.3,0.7,0.6,1.5,0.5,2.3s-0.7,1.9-1.4,1.7
	c-0.4-0.1-0.5-0.8-0.5-1.2c0-0.5,0.1-0.9,0-1.4c0-0.3-0.1-0.6-0.4-0.7c-0.1-0.1-0.3,0-0.4,0c-0.4,0.1-0.8,0.1-1.1-0.1
	c-0.3-0.1-0.3-0.6-0.5-0.9c-0.2-0.4-0.8-0.2-1.2-0.3C349.1,295.3,348.8,295.2,348.7,295z"/>
<path fill="#EAEAEA" stroke="#D6D6D6" stroke-miterlimit="10" d="M347,301c-0.4,0.4-0.9,0.6-1.4,0.5c-0.1,0-0.2,0-0.2-0.1
	c-0.1-0.1-0.1-0.2-0.1-0.3c0-0.5-0.2-0.9-0.4-1.3c-0.2-0.5-0.6-0.9-0.6-1.5c0-0.5,0.4-0.9,0.9-1s1,0,1.4,0.4
	C347.1,298.2,347.5,300.6,347,301z"/>
<path fill="#EAEAEA" stroke="#D6D6D6" stroke-miterlimit="10" d="M344.9,304.1c0.4,0,0.8,0.4,1,0.7c0.1,0.1,0.2,0.2,0.2,0.4
	c0.1,0.2-0.1,0.5-0.2,0.7c-0.6,0.9-1.5,2.3-2.6,1.9c-0.5-0.2-0.3-1-0.2-1.5c0.1-0.5,0.4-0.9,0.7-1.4
	C344.1,304.6,344.4,304.1,344.9,304.1z"/>
<path fill="#EAEAEA" stroke="#D6D6D6" stroke-miterlimit="10" d="M336.6,318.1c0.7-0.6,2.3-1.1,1.9-2c-0.4-0.9-2-0.7-3-0.3
	c-1,0.4-2,1.5-2,2.6c0,0.8,1.8,1,2.3,0.2C335.9,318.4,336.5,318.3,336.6,318.1z"/>
<path fill="#EAEAEA" stroke="#D6D6D6" stroke-miterlimit="10" d="M355.7,279.9c-0.1-0.4-0.3-0.7-0.7-0.9s-0.8-0.2-1.1,0
	c-0.2,0.1-0.2,0.3-0.3,0.5c-0.7,1.5-1.1,3-1.2,4.6c0,0.2,0,0.4,0.1,0.6c0.2,0.2,0.6,0,0.8-0.1c0.7-0.4,1.4-0.9,1.8-1.5
	C355.9,282.2,356.1,281,355.7,279.9z"/>
<path fill="#EAEAEA" stroke="#D6D6D6" stroke-miterlimit="10" d="M217,320.4c-0.3,0-0.5,0-0.8,0.1c-0.6,0.3-0.7,1-0.7,1.7
	c0,0.1,0,0.2,0,0.3c0,0.1,0.1,0.3,0.2,0.4c0.7,1.3,0.6,3.2,1.7,4.2c0.4,0.3,1.1,0.1,1.4-0.3c0.1-0.2,0.2-0.4,0.2-0.6
	c0.1-0.9,0.2-1.9,0-2.8c-0.3-0.8-0.3-1.6-0.6-2.4C218.2,320.5,217.5,320.4,217,320.4z"/>
<path fill="#EAEAEA" stroke="#D6D6D6" stroke-miterlimit="10" d="M103.8,356.9c1.8-0.4,3.7,0.2,5.5-0.1c1.1-0.2,2.2-0.7,3.3-1.2
	c1.6-0.7,3.2-1.2,4.9-1.7c2.1-0.6,4.2-1.3,6.4-1.3c1.3,0,2.9-0.3,4,0.4c0.7,0.4-0.2,1.5-0.8,2c-1.5,1.3-2.9,2.6-4.4,3.9
	c-0.4,0.4-0.9,0.8-1.2,1.3c-0.3,0.5-0.4,1-0.5,1.5c-1.1,3.4-3.9,5.9-6.6,8.1c-0.6,0.5-1.3,1.1-2.1,1.3c-0.8,0.3-1.7,0.3-2.5,0.3
	c-3.6,0-8.4,2.6-10.9,0c-0.6-0.6,0.1-1.8,0.1-2.7c0-0.7,0-1.5-0.3-2.1c-0.4-0.6-1.2-0.2-1.8-0.4c-1.8-0.7,0.3-3.8,1.4-5.4
	c0.5-0.7,1.1-1.2,1.7-1.8C101.1,358.1,102.3,357.2,103.8,356.9z"/>
<path fill="#EAEAEA" stroke="#D6D6D6" stroke-miterlimit="10" d="M169.8,363c0.6,0.4,1.2,0.8,1.9,0.9c0.8,0.1,1.7,0.2,2.5,0.3
	c0.5,0,0.9,0.1,1.4,0.1c0.4,0,0.8,0.1,1-0.2c0.1-0.1,0.1-0.3,0.2-0.4c0.1-0.7-0.1-1.4-0.6-2c-0.8-1-2.4-1.3-3-2.5
	c-0.2-0.4-0.2-0.8-0.6-1.1c-0.5-0.3-1,0.1-1.5,0.3C169.8,358.9,168.9,362.5,169.8,363z"/>
<path fill="#EAEAEA" stroke="#D6D6D6" stroke-miterlimit="10" d="M108.3,346c0,0.6-0.7,0.9-0.7,1.5c-0.1,0.5,0.4,0.9,0.8,1.1
	c0.5,0.2,1.6,0.7,1.7,0.8c0.4,0.1,0.8-0.1,1-0.5c0.2-0.3,0.6-2.6,0.5-3.3c-0.1-0.8-0.6-1.6-1.3-2c-0.7-0.4-1.6-0.5-2.4-0.1
	c-0.3,0.1-0.6,0.4-0.7,0.8c0,0.3,0.2,0.6,0.4,0.9C108,345.4,108.3,345.7,108.3,346z"/>
<path fill="none" stroke="#D6D6D6" stroke-miterlimit="10" d="M127.9,352.8c0.8-1.9,2.2-3.1,4.4-3.6c2.2-0.4,4.5,0.2,6.6,1.1
	c2.1,0.9,4,2.1,6.1,3c4,1.6,8.4,1.9,12.8,2.3c1.8,0.2,3.6,0.4,5.3,0.9c0.9,0.3,1.7,0.6,2.6,0.6c1,0,1.9-0.3,2.9-0.4
	c1,0,1.9,0.5,2.4,1.4"/>
<path fill="none" stroke="#D6D6D6" stroke-miterlimit="10" d="M177,363.5c1.8,0.2,3.7-0.6,4.8-2.1c0.3-0.3,0.5-0.7,0.9-0.9
	c0.6-0.2,1.3,0.2,1.6,0.8c0.3,0.6,0.5,1.3,0.8,1.8s1.1,1,1.7,0.7c0.3-0.2,0.6-0.5,0.8-0.8c1.1-1.1,3-0.5,4.3,0.4
	c0.3,0.2,0.6,0.4,1,0.5c0.6,0.1,1.2-0.2,1.8-0.5c1.7-0.8,3.9-0.9,5.3,0.4c0.6,0.5,1,1.3,1.3,2c0.8,1.5,1.5,3,2.3,4.6"/>
<path fill="#EAEAEA" stroke="#D6D6D6" stroke-miterlimit="10" d="M156.1,301.3c-0.2-0.2-0.3-0.4-0.4-0.7c-0.1-0.3,0-0.6,0.1-0.8
	c0.5-1.4,1.6-2.6,3-3.2c0.2-0.1,0.4-0.2,0.7-0.2c0.8-0.1,1.6,0.3,2.2,0.8c0.6,0.5,1.1,1,1.5,1.7s0.5,1.5,0.2,2.2
	c-0.2,0.6-0.6,1-1,1.5c-0.3,0.4-0.7,0.7-1,1.1c-0.7,0.7-1.4,1.5-2.3,1.8c-0.4,0.1-0.8,0.1-1.1-0.1c-0.5-0.3-0.6-0.9-0.8-1.5
	C156.9,302.8,156.6,302,156.1,301.3z"/>
<path fill="#EAEAEA" stroke="#D6D6D6" stroke-miterlimit="10" d="M137.6,288.7c-0.2,0.4-0.7,0.7-0.8,1.1c-0.1,0.5,0.4,0.9,0.9,0.9
	c0.9,0,1.6-1,1.7-1.9c0.1-0.4,0-0.9,0-1.3c0-0.4-0.1-0.9-0.3-1.2c-0.2-0.4-0.7-0.7-1.1-0.4c-0.5,0.4-0.7,1.1-0.6,1.7
	C137.5,288,137.7,288.4,137.6,288.7z"/>
<path fill="#EAEAEA" stroke="#D6D6D6" stroke-miterlimit="10" d="M167.2,284.1c0.3-0.1,0.5-0.4,0.8-0.6c0.8-0.4,1.4-1.2,1.7-2
	c0.2-0.4,0.3-0.9,0.1-1.3c-0.2-0.5-0.8-0.8-1.4-0.8s-1.1,0.3-1.6,0.7c-0.6,0.5-1.2,1.1-1.4,1.8c-0.2,0.8,0.2,1.7,1,1.9
	C166.7,284,166.9,284.1,167.2,284.1z"/>
<path fill="#EAEAEA" stroke="#D6D6D6" stroke-miterlimit="10" d="M182.8,268.1c0.3-0.1,0.6-0.1,0.8-0.1c1.5-0.2,2.2-1.9,2.3-3.4
	c0-0.3,0-0.7-0.3-1c-0.2-0.1-0.4-0.2-0.6-0.2c-0.9-0.1-1.9-0.1-2.6,0.5c-0.4,0.4-0.6,0.9-1,1.3c-0.7,0.8-2,1-3,0.9
	c-1.1-0.1-2.1-0.5-3.2-0.6c-0.6-0.1-1.4,0.1-1.6,0.6c-0.1,0.3-0.1,0.6-0.1,0.9c-0.2,1.3-1.6,2-2.4,3.1c-0.8,1-1,2.5-0.4,3.7
	s2.1,1.8,3.3,1.2c1.5-0.7,1.9-2.6,2.2-4.2c0.1-0.4,0.2-0.7,0.4-1c0.5-0.8,1.6-0.8,2.6-0.7c0.9,0.1,1.9,0.3,2.7-0.1
	C182.1,268.6,182.3,268.2,182.8,268.1z"/>
<path fill="#EAEAEA" stroke="#D6D6D6" stroke-miterlimit="10" d="M179.5,263.6c0.3,0.2,0.7,0.2,1.1,0c0.3-0.2,0.6-0.4,0.8-0.7
	c0.8-0.9,1.3-1.9,1.7-3.1c0.1-0.2,0.1-0.4,0.1-0.6c-0.1-0.6-0.9-0.8-1.4-0.6s-0.9,0.7-1.2,1.2c-0.3,0.5-0.6,0.9-0.9,1.4
	c-0.2,0.4-0.5,0.7-0.5,1.2C179,262.8,179.1,263.3,179.5,263.6z"/>
<path fill="#EAEAEA" stroke="#D6D6D6" stroke-miterlimit="10" d="M208.8,250.8c0-0.1,0-0.2,0-0.3c-0.1-0.3-0.4-0.5-0.8-0.5
	c-0.4-0.1-0.9-0.2-1.3-0.1c-0.4,0.1-0.9,0.6-0.7,1c0.2,0.5,0.9,0.8,1.5,0.9C208,251.7,208.6,251.4,208.8,250.8z"/>
<path fill="#EAEAEA" stroke="#D6D6D6" stroke-miterlimit="10" d="M210.5,275.5c-0.2,0-0.3-0.1-0.4-0.1c-0.8-0.2-1.9-0.3-2.3,0.4
	c-0.6,0.9,0.3,2.3,1.1,2.9c0.8,0.6,1.8,0.5,2.8,0.7c0.8,0.2,1.6,0.6,2.3,0.3c0.4-0.2,0.6-0.5,0.9-0.9c0.4-0.5,0.8-0.9,1.2-1.4
	c0.3-0.5,0.5-1.2,0.3-1.8c-0.3-1-1.5-1.4-2.5-1.3c-1,0.1-1.9,0.7-2.9,1C210.7,275.4,210.6,275.5,210.5,275.5z"/>
<path fill="#EAEAEA" stroke="#D6D6D6" stroke-miterlimit="10" d="M228.8,276.2c0.4-0.8,0.7-1.6,1.2-2.4s1.2-1.4,2.1-1.5
	c0.7,0,1.4,0.4,2.1,0.6c0.7,0.2,1.5,0.3,2-0.3c0.3-0.4,0.3-0.9,0.3-1.4c0-1.5-0.1-3.1-1.2-4.1c-0.5-0.4-1.1-0.7-1.6-1.1
	c-1.6-1.3-1.6-3.6-1.6-5.6c0-0.4,0-0.8-0.3-1.1c-0.5-0.4-1.1-0.1-1.6,0.3c-1.7,1.3-2.4,3.5-4,4.9c-0.5,0.4-0.9-0.7-1.4-1.2
	c-0.5-0.6-1.5-0.5-2.2-0.4c-0.6,0.1-1.2,0.3-1.4,0.8c-0.1,0.4,0.2,0.8,0.4,1.2c1.7,2.6,1.6,6.3-0.2,8.9c-0.4,0.5-0.8,1.1-0.7,1.7
	c0.1,0.3,0.2,0.5,0.4,0.7c0.3,0.5,0.7,1,1.1,1.4c1,0.9,2.4,1.2,3.7,0.8C227.1,278.2,228.1,277.3,228.8,276.2z"/>
<path fill="#EAEAEA" stroke="#D6D6D6" stroke-miterlimit="10" d="M158.6,258.2c0-0.1,0.1-0.2,0.2-0.3c0.1-0.3-0.2-0.6-0.5-0.8
	s-0.6-0.1-1-0.2c-0.3-0.1-0.8-0.2-1,0.1c-0.2,0.2-0.1,0.5,0,0.7c0.1,0.4,0.3,0.9,0.5,1.2c0.3,0.3,0.7,0.6,1.2,0.5
	c0.2,0,0.4-0.1,0.5-0.3C158.6,258.9,158.5,258.6,158.6,258.2z"/>
<path fill="none" stroke="#D6D6D6" stroke-miterlimit="10" d="M256.1,185.8c-5.1,15-10.6,29.9-16.6,44.7c-0.7,1.7-1.4,3.4-1.8,5.1
	c-0.5,1.7-0.7,3.5-1,5.3c-1,6.2-2.8,12.2-5.3,17.9"/>
<path fill="#EAEAEA" stroke="#D6D6D6" stroke-miterlimit="10" d="M115.2,280.6c0-0.2,0-0.4-0.1-0.6c-0.2-0.4-0.8-0.4-1.3-0.3
	c-1.1,0.4-2,1.3-2.3,2.4c-0.1,0.4-0.1,0.8,0,1.1c0.2,0.3,0.6,0.3,0.9,0.4C113.1,283.8,115.4,282.1,115.2,280.6z"/>
<path fill="#EAEAEA" stroke="#D6D6D6" stroke-miterlimit="10" d="M255.6,185.5c0,0.1,0.1,0.3,0.2,0.3c0.1,0.1,0.2,0,0.4,0
	c1.1-0.2,2.2-0.6,3.2-1.1c0.8-0.4,1.7-1,1.6-1.9c0-0.4-0.3-0.8-0.6-1.1c-0.2-0.2-0.4-0.5-0.5-0.8s0-0.7,0.3-0.8
	c0.4-0.2,1.1,0.2,1.2-0.1c0.5-1.1-0.4-2.5-1.2-3.4c-0.2-0.2-0.4-0.4-0.7-0.5c-0.4-0.1-0.8,0.1-1,0.3c-0.3,0.3-0.4,0.6-0.6,0.9
	c-0.4,0.8-0.7,1.7-0.9,2.5c-0.2,0.9-0.5,1.9-1.3,2.4c-0.2,0.1-0.4,0.2-0.5,0.4c-0.1,0.1-0.1,0.3-0.1,0.4
	C255.3,184,255.4,184.8,255.6,185.5z"/>
<path fill="none" stroke="#4E9BD7" stroke-miterlimit="10" d="M170.1,187.7c0.5-0.3,1.3-0.9,1.8-1.2"/>
<path fill="none" stroke="#D6D6D6" stroke-miterlimit="10" d="M139.6,196.8c-1.4,3-2.2,6.2-2.2,9.5c0,0.5,0,0.9-0.2,1.4
	c-0.2,0.4-0.5,0.8-0.7,1.1c-5.8,6.9-7.9,16.3-8.1,25.3c-0.2,9,1.3,18,2.1,27"/>
<path fill="#EAEAEA" stroke="#D6D6D6" stroke-miterlimit="10" d="M109.4,274.6c-0.1,0.3,0.1,0.5,0.3,0.7c0.5,0.5,1.2,0.7,1.8,0.6
	c0.7-0.1,1.3-0.5,1.6-1.1c0.3-0.5,0.4-1.3-0.2-1.5c-1.1-0.5-2.4,0.1-3.2,0.9C109.5,274.4,109.4,274.5,109.4,274.6z"/>
<path fill="#EAEAEA" stroke="#D6D6D6" stroke-miterlimit="10" d="M124.6,275.7c0.6,0.6,0,1.7,0.5,2.4c0.4,0.4,1.1,0.4,1.6,0.1
	c1.4-0.6,2.4-1.9,2.6-3.4c0.1-0.5,0.1-1.1,0.2-1.6c0.2-0.8,0.6-1.6,1-2.3c1.3-2.7,1.7-5.8,1-8.7c-0.1-0.4-0.2-0.8-0.6-1
	c-0.6-0.3-1.2,0.2-1.6,0.6c-0.4,0.5-1.1,1.2-1.6,0.9c-0.6-0.4-0.6-1.3-1.1-1.7c-1.3-0.8-2.6,1.5-3,3c-0.3,1.5-0.3,3.1-1.3,4.3
	c-0.6,0.8-1.6,1.2-2.4,1.8c-0.8,0.6-1.6,1.4-1.6,2.4c0,0.5,0.2,1,0.7,1.3c0.6,0.3,1.4,0,2.1-0.4c1.2-0.7,2.4-1.3,3.7-2
	c0.5-0.3,1.1-0.6,1.7-0.3c0.6,0.3,0.7,1.1,0.4,1.7c-0.3,0.6-1,0.9-1.6,1c-0.4,0.1-0.8,0.1-1.1,0.4c-0.3,0.2-0.5,0.7-0.3,1
	C124,275.5,124.4,275.5,124.6,275.7z"/>
<path fill="none" stroke="#D6D6D6" stroke-miterlimit="10" d="M34.6,316.7c3.9-1.9,5.7-6.5,7-10.6c1.6-4.8,3.2-9.5,4.7-14.3
	c0.5-1.7,1.2-3.4,2.7-4.4c0.7-0.5,1.6-0.7,2.3-1.2c0.6-0.5,0.9-1.3,1.1-2c1.7-5.6,0.6-11.7,0.6-17.5c0.1-7.1,1.8-14.1,5.2-20.3
	c0.7-1.4,1.6-2.8,1.7-4.4c0.1-2.1-1-4-2-5.9c-0.9-1.9-1.6-4.2-0.6-6c0.7-1.3,2.2-2.1,3.3-3c1.6-1.3,2.7-3,3.7-4.8
	c3.2-5.4,8.1-9.6,11.4-15c2.3-3.7,2.1-8.4,3.9-12.4c1.3-2.9,2.6-5.9,3.9-8.8c0.4-1,0.9-1.9,1.1-2.9c0.4-1.3,0.5-2.6,0.7-3.9
	c0.8-4.5,2.9-8.6,4.9-12.6c1.3-2.6,2.8-5.3,5.2-7c4.1-2.8,9.7-1.8,14.6-2.8c2.1-0.4,4.2-1.3,5.4-3c1.1-1.6,1.5-3.8,1.6-5.6"/>
<path fill="none" stroke="#D6D6D6" stroke-miterlimit="10" d="M131.4,85.9c0-2.7,1-5.5,1.8-8.1c0.9-3.6,0.9-7.3,1.9-10.9
	c1-3.6,3.1-6.9,5-10.2c0.8-1.4,1.6-3,1.4-4.7c-0.1-1-0.5-1.9-0.6-2.9c-0.4-3.1,1.9-6.4,3.9-8.8"/>
<path fill="none" stroke="#D6D6D6" stroke-miterlimit="10" d="M148.8,33.5c2,0.1,4.5,0.4,6.3,1.3c0.4,0.2,0.9,0.5,1.4,0.3
	c0.4-0.1,0.7-0.5,1-0.8c1.5-2,3-4,4.4-6c0.8-1,1.6-2.1,2-3.3c0.3-1,0.5-2,0.8-2.9c0.6-1.7,1.7-3.2,2.8-4.6c1.6-1.9,3.2-4,5.4-5
	c3.6-1.7,7.8-0.7,11.7-1.5c0.5-0.1,0.9-0.2,1.3-0.5c0.4-0.3,0.7-0.7,0.9-1c2.1-3,3.8-6.2,5.2-9.5c0.3-0.7,0.5-1.3,0.9-1.9
	c1.3-2.1,3.8-3.5,4.4-5.9c0.3-1.3,0.1-2.9,1.2-3.6"/>
<path fill="#EAEAEA" stroke="#D6D6D6" stroke-miterlimit="10" d="M153.7,14.2c-0.2-0.2-0.4-0.3-0.7-0.3c-0.5,0.1-0.7,0.7-1,1.2
	c-0.3,0.5-0.9,0.6-1.5,0.8c-0.3,0.1-0.7,0.4-0.6,0.7c0,0.1,0.1,0.1,0.1,0.2c0.8,0.7,2.1,1.9,2.7,1.1c0.1-0.2,0.2-0.4,0.4-0.5
	c0.6-0.3,1-0.9,1.1-1.5C154.3,15.3,154.1,14.7,153.7,14.2z"/>
<path fill="#EAEAEA" stroke="#D6D6D6" stroke-miterlimit="10" d="M149.7,23.1c0.6,0.2,1.4-0.1,1.7-0.7c0.3-0.6,0.3-1.5-0.2-1.9
	c-0.4-0.2-0.9,0-1.2,0.2s-0.6,0.7-0.8,1c-0.1,0.2-0.2,0.4-0.2,0.6C149.1,22.7,149.4,23,149.7,23.1z"/>
<path fill="#EAEAEA" stroke="#D6D6D6" stroke-miterlimit="10" d="M144.2,38c-0.1,0.4-0.2,0.8-0.2,1.2c0,0.5,0.4,1,0.8,1.2
	s1,0.2,1.4-0.1c0.6-0.4,0.7-1.2,0.7-1.9c0-0.7-0.1-1.4,0.1-2.1c0.2-0.6,0.5-1.1,0.9-1.5c0.1-0.1,0.1-0.1,0.2-0.2
	c0.4-0.9,0.6-2.2,0-3.1c-0.2-0.3-0.6-0.1-0.9,0c-0.7,0.3-1.2,1-1.5,1.6c-0.3,0.7-0.5,1.4-0.7,2.2c-0.2,0.6-0.6,1.2-0.7,1.8
	C144.2,37.3,144.3,37.6,144.2,38z"/>
<path fill="none" stroke="#4E9BD7" stroke-miterlimit="10" d="M202.5,163.8c3.9-2,7.5-3.9,11.5-5.9c0.7-0.4,1.5-0.9,1.5-1.7
	c0-0.5-0.3-0.8-0.6-1.2c-2.4-3.3-3.3-7.5-2.5-11.5c0.2-0.9,0.4-1.7,0.3-2.6c-0.1-1.2-0.8-2.3-1-3.5c-0.3-1.9,0.6-3.8,1.2-5.7
	c1.2-4.1,0.3-8.6,0.9-12.8c0.4-2.4,1.3-4.8,2.1-7.1c3.4-8.9,6.9-18,12.9-25.5c0.6-0.8,1.3-1.6,2.3-2c0.9-0.4,1.8-0.3,2.7-0.5
	c1.9-0.3,3.6-1.4,4.7-2.9c0.2-0.3,0.4-0.6,0.4-0.9c0.1-0.9-0.8-1.6-1.6-2.1c-1.7-1-3.3-2.6-5.2-3c-1.5-0.3-3.3,0.4-4.4-0.6
	c-0.6-0.5-0.9-1.3-1.3-1.9c-0.8-1.1-1.9-1.8-3.1-2.3c-0.4-0.1-0.8-0.3-1.1-0.5c-0.4-0.3-0.7-0.9-0.8-1.4c-0.2-1,0.1-2.1,0-3.1
	c-0.1-1.2-0.6-2.3-1.1-3.4c-0.5-1.1-0.9-2.3-0.7-3.5c0.2-1.2,1.6-0.8,2.7-1.6"/>
<path fill="none" stroke="#4E9BD7" stroke-miterlimit="10" d="M206.7-10.4c-0.3,2.6-1.5,5.2-3.4,7c-0.9,0.8-1.9,1.6-2.5,2.6
	c-0.5,1-0.6,2.1-0.8,3.1c-0.5,2.2-1.6,4.2-2.7,6.1c-1,1.8-1.9,3.7-2.8,5.6c-0.9,1.8-1.7,3.9-1,5.9c0.6,1.4,1.9,2.4,3.1,3.3
	c2,1.4,4.1,2.9,6.1,4.3c1.2,0.9,2.5,1.8,3.5,2.9c0.5,0.6,1,1.3,1.6,1.8c0.8,0.8,1.8,1.3,2.8,1.9c5.2,2.9,10.4,6.7,12.9,12.1"/>
<path fill="#EAEAEA" stroke="#D6D6D6" stroke-miterlimit="10" d="M180,86.5c0,0.3,0,0.5,0.1,0.8c0.3,0.5,1.1,0.3,1.5-0.2
	s0.5-1.1,0.8-1.6c0.4-0.7,1.2-1.1,1.5-1.8c0.5-0.9,0.3-2.1,0.9-3c0.1-0.2,0.3-0.4,0.4-0.7c0.1-0.4,0-0.9-0.2-1.2
	c-0.2-0.4-0.4-0.8-0.8-1c-0.5-0.3-1.1,0.2-1.5,0.5c-0.4,0.4-0.7,0.9-1,1.4c-0.2,0.4-0.4,0.7-0.6,1.1c-0.3,0.6-0.7,1.2-1.3,1.5
	c-0.2,0.1-0.5,0.2-0.7,0.4c-0.2,0.2-0.4,0.5-0.3,0.7c0.1,0.2,0.3,0.4,0.4,0.6c0.2,0.2,0.7,0,0.9,0.3C180.5,84.9,180,85.8,180,86.5z"
	/>
<path fill="#EAEAEA" stroke="#D6D6D6" stroke-miterlimit="10" d="M167.2,92.7c0.1,0.1,0.3,0.2,0.5,0.2c0.4,0,0.8,0.1,1.2,0.1
	c0.5,0,1.1,0.1,1.5-0.2c0.4-0.3,0.6-0.7,0.7-1.1c0.1-0.3,0.2-0.5,0.1-0.8c-0.2-0.5-0.8-0.5-1.3-0.3c-0.9,0.2-1.7,0.6-2.4,1.2
	C167.2,92,166.9,92.4,167.2,92.7z"/>
<path fill="#EAEAEA" stroke="#D6D6D6" stroke-miterlimit="10" d="M177.7,96.1c-0.5-0.6,0.4-1.4,0.6-2.1c0.2-0.7,0.3-1.6-0.2-2.1
	c-0.2-0.2-0.4-0.3-0.6-0.3c-0.2,0-0.4,0.3-0.5,0.5c-1.3,2.3-3.4,7-0.8,7.7c0.2,0,1.5,0.4,1.9,0c0.3-0.2,0.4-0.5,0.5-0.8
	c0.2-0.6,0.4-1.2,0.2-1.8C178.7,96.6,178.1,96.5,177.7,96.1z"/>
<path fill="#EAEAEA" stroke="#D6D6D6" stroke-miterlimit="10" d="M175,102.8c-0.2-0.1-1-0.1-1.2,0.3c-0.9,1.5-1.8,2.9-2.7,4.4
	c-0.3,0.5-0.6,1-0.6,1.5c0,0.6,0.3,1.2,0.7,1.5c0.2,0.1,0.4,0.2,0.6,0.2c0.5-0.1,0.8-0.6,0.9-1.1c0.4-0.9,0.7-1.8,1.1-2.8
	c0.2-0.4,0.3-0.8,0.5-1.2C174.7,104.7,175.8,103.3,175,102.8z"/>
<path fill="#EAEAEA" stroke="#4E9BD7" stroke-miterlimit="10" d="M221.5,50.4c0,0.2,0.1,0.5,0.2,0.7c0.9,1.7,0.3,3.7,0.9,5.5
	c0.2,0.4,0.8,0.5,1.3,0.5c1.1,0,2-0.8,2.8-1.6c1-1.1,2.2-2.4,3.7-2.2c0.5,0.1,1.1,0.4,1.6,0.2c0.7-0.2,1.3-0.9,1.8-0.5
	c0.4,0.3,0.3,0.8,0.4,1.3c0,1,0.7,1.9,1.6,2.3s2.4,0.4,2.8-0.5c0.5-1.4-1.1-2.8-2.5-3.4c-0.2-0.1-0.5-0.2-0.6-0.4
	c-0.1-0.2-0.1-0.4-0.2-0.6c-0.3-1.1-1.4-1.7-2.4-2.3c-1.2-0.7-2.8-0.1-4-0.9c-1-0.7-1.2-2.1-2.3-2.8c-0.7-0.4-1.6-0.8-2.3-0.4
	c-1.4,0.7-0.7,3.1-1.9,4C222.1,49.8,221.6,50,221.5,50.4z"/>
<path fill="#EAEAEA" stroke="#D6D6D6" stroke-miterlimit="10" d="M305.8,50.8c-0.2,0-0.4,0.1-0.6,0.2c-0.5,0.3-1.1,0.6-1.6,0.9
	c-0.4,0.2-0.7,0.4-0.9,0.8c-0.1,0.4,0.1,0.9,0.5,1.1s0.8,0.3,1.2,0.2c0.2,0,0.3,0,0.4,0.2c0.4,0.4,1.1,0,1.5-0.3
	c0.5-0.3,0.8-0.7,0.8-1.3c0-0.4-0.2-0.7-0.4-1C306.6,51.2,306.3,50.8,305.8,50.8z"/>
<path fill="#EAEAEA" stroke="#D6D6D6" stroke-miterlimit="10" d="M313.6,51.4c0.1-0.5-0.3-0.9-0.8-1c-0.5-0.1-0.9,0.1-1.4,0.3
	c-0.7,0.3-1.4,0.7-1.4,1.4c0,0.2,0.1,0.3,0.2,0.5c0.1,0.2,0.2,0.4,0.3,0.6c0,0.1,0,0.1,0.1,0.2c0.3,0.4,0.9,0.2,1.3-0.1
	c0.5-0.4,1-0.9,1.4-1.4C313.5,51.7,313.6,51.6,313.6,51.4z"/>
<path fill="#EAEAEA" stroke="#D6D6D6" stroke-miterlimit="10" d="M312.1,47.5c0-0.3-0.1-0.6-0.3-0.8c-0.5-0.4-1.3-0.2-1.8,0.2
	c-0.6,0.3-1.3,0.8-1.4,1.5c0,0.4,0.2,0.8,0.5,1c0.6,0.3,1.3,0.1,1.8-0.2C311.6,48.9,312.1,48.2,312.1,47.5z"/>
<path fill="#EAEAEA" stroke="#D6D6D6" stroke-miterlimit="10" d="M350.8,165.4c0.6-0.4,1.5-0.6,2.1-0.2c0.7,0.4,0.8,1.3,1.1,2
	c0.3,0.5,0.6,1,0.8,1.5c0,0.1,0.1,0.2,0,0.3c0,0.1-0.2,0.2-0.3,0.3c-0.2,0.2-0.4,0.3-0.7,0.5c-0.3,0.2-0.7,0.4-1,0.4
	c-0.1,0-0.3-0.1-0.4-0.2c-1.2-0.9-2-2.2-2.2-3.7c0-0.2,0-0.4,0.1-0.6C350.6,165.5,350.7,165.5,350.8,165.4z"/>
<path fill="#EAEAEA" stroke="#D6D6D6" stroke-miterlimit="10" d="M358.3,161.1c-0.8,0.5-1.4,1.2-1.7,2c-0.2,0.5-0.3,1.2,0.1,1.6
	c0.5,0.4,1.2,0.6,1.8,0.4c1-0.3,0.9-1.8,1-2.9c0.1-0.5-0.1-1.2-0.6-1.3C358.8,160.8,358.5,160.9,358.3,161.1z"/>
<path fill="none" stroke="#D6D6D6" stroke-miterlimit="10" d="M34,318.7c0.5,0.3,0.7,1.2,0.9,2.1"/>
<path fill="none" stroke="#D6D6D6" stroke-miterlimit="10" d="M24.5,321.3c0.1-0.7,0.3-1.8,0.4-2.4c0.2-1.5,0.4-3,0.9-4.5
	c0.2-0.7,0.6-1.3,0.7-2c0.1-0.4,0.2-0.7,0.2-1.1c0.1-0.8,0.2-1.5,0.4-2.3"/>
<path fill="none" stroke="#D6D6D6" stroke-miterlimit="10" d="M29,305.8c2.1-1.9,5.2-2.2,7.6-3.7c2.3-1.3,4.1-3.8,6.7-3.9
	c0.2,0,0.4,0,0.5,0.1c0.1,0.1,0,0.4-0.2,0.3"/>
<path fill="#EAEAEA" stroke="#D6D6D6" stroke-miterlimit="10" d="M32.4,317.3c-0.1,0.3-0.2,0.6-0.2,0.9s0.2,0.6,0.5,0.7
	c0.2,0,0.4,0,0.7-0.1c0,0,0.1,0,0.1,0c1-0.4,1.7-2,0.8-2.7c-0.3-0.3-0.9,0-1.2,0.2C32.8,316.5,32.5,316.9,32.4,317.3z"/>
<path fill="#EAEAEA" stroke="#D6D6D6" stroke-miterlimit="10" d="M35,320.7c0.4-0.1,0.9,0.1,1.2,0.4c0.4,0.4,0.6,0.9,0.6,1.5
	c0,0.3,0,0.6-0.3,0.8c-0.1,0.1-0.3,0.1-0.4,0.1c-0.5,0-1.2-0.1-1.5-0.5c-0.1-0.2-0.2-0.4-0.2-0.6C34.3,321.7,34.4,320.9,35,320.7z"
	/>
<path fill="#EAEAEA" stroke="#D6D6D6" stroke-miterlimit="10" d="M25.1,321.6c0.2,0.1,0.3,0.4,0.3,0.6c0.1,0.6,0.2,1.3,0,1.9
	c-0.1,0.6-0.4,1.2-1,1.6c-0.6,0.4-1.6,0.9-2.1,0.3c-0.6-0.7,0.4-1.9,0.8-2.7c0.2-0.5,0.1-1.1,0.6-1.4
	C24.2,321.6,24.7,321.3,25.1,321.6z"/>
<path fill="#EAEAEA" stroke="#D6D6D6" stroke-miterlimit="10" d="M27.3,306c-0.5,0.3-1.1,0.8-1.3,1.4c-0.2,0.5,0,1,0.3,1.4
	c0.3,0.4,0.8,0.6,1.3,0.5c0.5-0.1,1-0.4,1.3-0.8c0.5-0.5,0.8-1.2,0.8-1.8c0-0.2-0.1-0.4-0.2-0.6c-0.1-0.2-0.3-0.4-0.5-0.5
	C28.5,305.4,27.8,305.7,27.3,306z"/>
<path fill="none" stroke="#D6D6D6" stroke-miterlimit="10" d="M28.4,242.5c0.4,0,0.8,0,1.2,0c4.4-0.4,6.9-5.8,11.2-6.8
	c0.8-0.2,1.6-0.2,2.3-0.4c1.2-0.4,2.3-1.2,3.5-1.7c0.9-0.4,2-0.5,3-0.6c2.2-0.3,4.4-0.5,6.7-0.8"/>
<path fill="#EAEAEA" stroke="#D6D6D6" stroke-miterlimit="10" d="M17.2,234.2c-0.3,0.8,0,2,0.9,2.2c0.3,0.1,1.8-0.1,2.1-0.3
	c1-0.8,2.3-0.9,3.2-1.8c0.4-0.4,0.1-1.2-0.4-1.5c-0.3-0.2-0.7-0.1-1.1-0.1c-0.6,0.1-1.3-0.1-1.8-0.3
	C19.8,232.2,17.5,233.4,17.2,234.2z"/>
<path fill="#EAEAEA" stroke="#D6D6D6" stroke-miterlimit="10" d="M21.3,242c-0.2-0.6,0.2-1.2,0.7-1.6c0.4-0.4,1-0.8,1.2-1.4
	c0.1-0.1,0.1-0.2,0.1-0.4c0-0.2-0.2-0.3-0.4-0.4c-0.8-0.4-1.9-0.1-2.6,0.5c-0.7,0.6-1.1,1.5-1.4,2.4c-0.3,0.9-0.6,1.8-1,2.6
	c-0.3,0.6-0.7,1.1-1,1.7c-0.4,0.9-0.5,1.8-0.5,2.8c-0.1,0.7,0,1.5,0.6,1.8c0.6,0.3,1.3-0.1,1.6-0.6c0.3-0.6,0.4-1.2,0.6-1.9
	c0.2-0.7,0.6-1.4,1.1-2c0.4-0.4,0.8-0.7,1.1-1.1s0.5-1,0.4-1.5C21.6,242.6,21.3,242.3,21.3,242z"/>
<path fill="#EAEAEA" stroke="#D6D6D6" stroke-miterlimit="10" d="M25.6,241.5c-0.1,0.1-0.3,0.1-0.4,0.3c-0.1,0.1-0.1,0.3-0.2,0.4
	c-0.3,1.2-0.9,2.7-0.2,3.8c0.3,0.5,1.2,0,1.7-0.4c0.7-0.6,1.3-1.4,1.5-2.3c0.1-0.7-0.1-1.6-0.7-1.9
	C26.8,241.1,26.1,241.3,25.6,241.5z"/>
<path fill="#EAEAEA" stroke="#D6D6D6" stroke-miterlimit="10" d="M33.4,204.5c0.3-0.3,0.8-0.3,1,0.1c0.7,1.3,0.4,3-0.3,4.3
	c-0.2,0.4-0.5,0.7-0.9,0.7c-0.4,0-0.8-0.2-1-0.5c-0.2-0.3-0.1-0.6-0.2-0.9c-0.1-0.3,0.1-0.6,0.2-0.9c0.3-0.8,0.6-1.5,0.9-2.3
	C33.2,204.8,33.3,204.6,33.4,204.5z"/>
<path fill="#EAEAEA" stroke="#D6D6D6" stroke-miterlimit="10" d="M28.2,197.3c-0.8,0.1-1.5,0.5-1.9,1.1c-0.4,0.6-0.6,1.5-0.2,2.2
	c0.2,0.3,0.4,0.6,0.6,0.9c0.6,1.2-0.2,2.9,0.6,3.9c0.7,0.8,2,0.7,3.1,0.3c0.8-0.3,1.6-0.7,1.9-1.4c0.3-0.7,0.1-1.6,0.5-2.2
	c0.4-0.6,1.3-0.8,1.7-1.4c0.2-0.3,0.2-0.7,0.3-1.1c0.1-1.4,0.7-3,0-4.2c-0.3-0.5-1.1-0.1-1.6,0.2s-0.8,0.8-1.3,1.1
	C30.7,197.5,29.4,197.1,28.2,197.3z"/>
<path fill="#EAEAEA" stroke="#D6D6D6" stroke-miterlimit="10" d="M39,110.3c0.3,0.7,1.5,0.6,2.2,0.6c0.8,0.1,1.6,0.1,2.3-0.2
	c0.2-0.1,0.4-0.3,0.7-0.4c0.6-0.3,1.4-0.3,1.8-0.7c0.7-0.6,0.5-1.7,0.2-2.6c-0.1-0.3-0.2-0.6-0.3-0.9c-0.1-0.3-0.2-0.5-0.3-0.7
	c-0.1-0.2-0.3-0.4-0.4-0.6c-0.3-0.3-0.6-0.7-0.8-1c-0.4-0.5-1.1-1.1-1.7-1c-0.3,0.1-0.5,0.3-0.7,0.4c-0.5,0.4-0.9,0.8-1.4,1.2
	c-0.1,0.1-0.3,0.2-0.4,0.4c-0.1,0.1-0.1,0.3-0.1,0.4C39.8,106.9,38.4,108.6,39,110.3z"/>
<path fill="#EAEAEA" stroke="#D6D6D6" stroke-miterlimit="10" d="M48.9,89c-0.1-0.5-0.7-0.7-1.2-0.8c-0.7-0.1-1.4,0-1.9,0.5
	c-0.6,0.6-0.3,1.8,0.4,2.2c0.2,0.1,0.5,0.2,0.7,0.1c0.4-0.1,0.6-0.5,0.9-0.7C48.3,89.9,48.9,89.6,48.9,89z"/>
<path fill="#EAEAEA" stroke="#D6D6D6" stroke-miterlimit="10" d="M36.2-3.4c0.5-0.3,0.9-0.9,0.9-1.5s-0.2-1.2-0.6-1.7
	C36-7,35.3-7.2,34.7-6.9c-0.6,0.2-1.2,1.2-0.7,1.6c0.2,0.2,0.4,0.4,0.5,0.6c0.2,0.5,0.6,1,1.1,1.3c0.1,0,0.1,0.1,0.2,0.1
	C36-3.3,36.1-3.3,36.2-3.4z"/>
<path fill="#EAEAEA" stroke="#D6D6D6" stroke-miterlimit="10" d="M38.5-2.2c-0.6,0.6-0.1,1.7,0.2,2.4c0.1,0.3,0.3,0.6,0.4,0.9
	c0.2,1.1-0.8,2-1.7,2.5S35.3,4.7,35,5.8c-0.2,0.8,0.2,1.6-0.3,2.3c-0.4,0.6-1.3,0.7-1.7,1.3c-0.3,0.5-0.2,1.1-0.5,1.6
	c-0.2,0.3-0.5,0.5-0.8,0.7c-1.2,0.9-1.5,2.7-0.7,3.9c0.7,1.1,2.1,1.6,3.5,1.5c1.3-0.1,2.5-0.6,3.7-1.2c1.2-0.6,2.5-1.4,3.3-2.4
	c1.2-1.5,1.6-3.5,1.9-5.5c0.1-0.7,0.2-1.4,0-2.1c-0.3-0.9-1.1-1.6-1.2-2.5C42.3,2,43.8,1,44-0.3c0-0.3,0-0.7,0.1-1
	c0.2-1.1,1.8-1.6,2.6-0.9c0.2,0.1,0.3,0.3,0.5,0.4c0.7,0.3,1.3-0.5,1.4-1.3s-0.1-1.5,0.2-2.2c0.5-0.9,1.7-0.9,2.7-0.9
	c1.5-0.1,2.9-0.4,4.3-1.1c0.4-0.2,0.9-0.5,1.2-0.9c0.6-0.9,0-2.2-1-2.7s-2.1-0.5-3.2-0.4c-3.4,0.2-7.8-1.8-10.2,0.6
	c-1.6,1.6,2.7,4,2.2,6.2c-0.3,1.2-2.4-0.4-3.6-0.2c-0.7,0.2-0.1,1.5-0.6,2C40.2-2.2,39-2.8,38.5-2.2z"/>
<path fill="none" stroke="#D6D6D6" stroke-miterlimit="10" d="M-10.4,53.3c-0.1,0.2,0.3,0.2,0.4,0.1c1.1-0.9,1.3-2.5,2-3.7
	c0.7-1.2,1.8-2,2.5-3.1c0.6-1.1,0.8-2.5,1.7-3.4c0.8-0.8,2-1,3-1.4c0.4-0.2,0.8-0.4,1-0.8c0.3-0.4,0.3-1,0.4-1.5
	c0.4-1.5,1.9-2.7,3.5-2.6c0.4,0,0.8,0.1,1.1-0.1c0.4-0.3,0.4-0.9,0.4-1.3c-0.2-2.3,0-4.6,0.5-6.8c0.5-2,1.4-4.1,3.3-4.8
	c2-0.8,4.6,0.2,6.2-1.3c0.4-0.4,0.7-1,1-1.5c0.8-1.5,1.9-3.1,3.6-3.5c1.1-0.3,2.4,0,3.3-0.8c0.3-0.2,0.5-0.6,0.8-0.8
	c0.4-0.3,0.9-0.3,1.4-0.3c1.6,0,3.6,0,5.1-0.2"/>
<path fill="#EAEAEA" stroke="#D6D6D6" stroke-miterlimit="10" d="M120.2,127c-0.3-0.8,0.4-1.7,1.1-2.3c1.2-1.1,2.4-2.1,3.9-2.5
	c0.6-0.1,1.3-0.2,1.8-0.5c0.9-0.7,0.8-2.1,1-3.2c0.7-3,4.3-4.3,5.6-7c0.9-1.9,0.6-4.1,0.3-6.2c-0.2-1.3-0.4-2.6-0.7-3.9
	c-0.1-0.5-0.2-1.1,0-1.5c0.1-0.3,0.3-0.6,0.5-0.9c0.5-1.6-1.9-2.8-1.7-4.5c0.2-1.7,3-2.1,3.2-3.8c0-0.4-0.1-0.8-0.3-1.2
	c-0.3-0.8-0.7-1.6-1.3-2.2c-0.9-0.9-2.3-1.2-3.5-0.8s-2.1,1.5-2.3,2.8c-0.1,0.8,0,1.6-0.4,2.3c-0.2,0.2-0.4,0.4-0.7,0.6
	c-1.1,1-1.5,2.6-1.5,4.1s0.5,3,0.8,4.4c0.6,2.8,0.7,5.7,0.3,8.5c-0.1,0.6-0.2,1.2,0.1,1.7c0.5,0.9,1.8,1,2.6,0.4
	c0.8-0.6,1.2-1.6,1.3-2.6c0.1-0.6,0.1-1.3,0.5-1.9s1.4-0.6,1.6,0c0.1,0.3,0,0.6-0.1,1c-0.6,1.7-1.2,3.4-2.4,4.8
	c-0.8,0.9-1.8,1.6-2.7,2.3c-2,1.7-3.7,3.7-5.3,5.9c-0.8,1.1-1.6,2.2-2.9,2.7c-0.3,0.1-0.7,0.2-1,0.4c-0.3,0.2-0.5,0.4-0.6,0.6
	c-0.8,1.1-0.7,2.7,0.1,3.8c0.8,1,2.2,1.8,2,3.1c-0.1,0.5-0.4,0.9-0.6,1.3c-0.8,1.6-0.1,3.6-0.9,5.2c-0.8,1.5-2.8,2.4-2.9,4
	c-0.1,1.1,0.7,2.2,1.3,3.1c0.7,0.9,0.1,2.3,0.7,3.2c0.7,0.9,2.2-0.5,3.2-1c1.1-0.5,2.1-1.3,2.7-2.3c0.6-1,1-1.9-0.3-2.7
	c-0.6-0.4-0.6-1.8-1-2.4c-0.4-0.6-0.5-1.5,0-2c0.2-0.2,0.6-0.3,0.8-0.5c0.7-0.5,0.6-1.7,0.9-2.6c0.3-0.7,0.8-1.2,1.3-1.8
	c0.8-0.9,1.4-2.1,1.5-3.4c0.1-1.2-0.2-3.6-1.4-3.3c-1.4,0.4-2.3,2-3.7,1.5C120.7,127.7,120.3,127.4,120.2,127z"/>
<path fill="#EAEAEA" stroke="#D6D6D6" stroke-miterlimit="10" d="M193.4,144.6c0.4-0.7,0.4-1.5,0.4-2.3c0-0.5-0.1-1.1-0.5-1.4
	c-0.3-0.1-0.6-0.1-0.9,0c-1,0.4-1.6,1.6-2,2.6c-0.3,0.8-0.6,1.6-0.8,2.4c0,0.1,0,0.3,0,0.4c0.1,0.2,0.4,0.3,0.6,0.3
	c1,0,1.9-0.8,2.6-1.5C193,145.1,193.2,144.9,193.4,144.6z"/>
<path fill="#EAEAEA" stroke="#D6D6D6" stroke-miterlimit="10" d="M166.5,162.9c0.3,0.6,0.4,1.4-0.1,1.8c-0.7,0.4-1.8-1.7-2-1.8
	c-0.3-0.2-0.2-0.8-0.2-1.2c0-0.4,0.1-0.9,0.5-1c0.3-0.1,0.7,0.1,0.9,0.3S166.3,162.5,166.5,162.9z"/>
<path fill="#7BBCEB" stroke="#4E9BD7" stroke-miterlimit="10" d="M148.3,189.6c-0.8-0.1-1.7-0.5-1.6-1.3c0.1-0.8,1.2-0.9,1.7-1.5
	c0.6-0.5,0.7-1.9-0.1-2.1c-1.5-0.5-2.9,1.1-3.9,2.3c-1,1.2-1.8,2.6-3,3.7c-0.3,0.3-0.7,0.6-1.2,0.7c-0.6,0.1-1.2-0.2-1.8-0.3
	c-1.1-0.2-2.3,0.4-2.8,1.4c-0.5,1,0.1,2.4,1.2,2.7c0.4,0.1,0.9,0.1,1.3,0.2c0.7,0.2,1.2,0.8,1.7,1.3c0.5,0.6,1,1.2,1.5,1.7
	c0.3,0.3,0.5,0.6,0.9,0.7c0.3,0,0.6-0.1,0.8-0.2c1.4-0.8,2.4-2.6,4.1-2.6c0.8,0,1.5,0.4,2.2,0.2c0.6-0.2,1-0.6,1.6-0.7
	c0.8-0.1,1.4,0.8,1.9,1.4c1.4,1.7,5.7,3.5,6.8,1.9c0.7-1.1-2.3-1.7-1.6-2.8c0.3-0.5,1.6-0.2,1.7-0.8c0.1-0.7,0-1.3,0.7-1.5
	c0.6-0.2,1.4-0.4,1.7-1c0.3-0.9-1.3-1.7-0.9-2.5c0.3-0.9,1.5-1.1,2.4-1.3c0.4-0.1,0.8-0.1,1.2-0.3c0.8-0.4,1.7-2.1,2.1-1.3
	c0.7,1.3-1,2.7-1.2,4.2c0,0.3-0.1,0.7,0.1,1c0.3,0.7,1.4,0.8,2,0.4s0.3-1.5,0.8-2.1c0.9-1,2.1-1.8,1.7-3c-0.4-1.3-2.3-1.3-3-2.4
	c-0.4-0.6,0.2-1.5-0.4-1.9c-0.6-0.4-1.5,0-2.1,0.5c-1.4,1.1-2.8,2.1-4.2,3.2c-0.2,0.1-0.4,0.3-0.5,0.5c-0.1,0.2-0.1,0.4-0.1,0.6
	c-0.1,0.9-1,1.6-1.8,1.8s-2.4,0.9-2.7,0c-0.3-0.7-0.1-1.5-0.8-1.6c-0.7-0.2-1.4,0.1-2.1,0.3C151.2,189.6,149.7,189.8,148.3,189.6z"
	/>
<path fill="#7BBCEB" stroke="#4E9BD7" stroke-miterlimit="10" d="M182.6,193.8c-0.5,1.1-2.7,0.1-3.3,1.1c-0.5,0.8,0.3,2,0.8,2.8
	s1.3,1.6,2.3,1.6c0.4,0,0.7,0,1,0.1c0.3,0.2,0.5,0.5,0.8,0.8c0.7,0.7,1.7,1,2.7,0.8c0.9-0.3,1.7-1.1,1.9-2c0.1-0.4,0.1-0.9,0.2-1.3
	c0.3-0.8,1-1.3,1.7-1.7c1.7-0.8,4-0.9,5,0.6c0.9,1.3,0.4,3-0.2,4.4c-0.7,1.9-1.4,3.9-2.6,5.6c-0.3,0.5-0.7,0.9-1,1.4
	c-1.1,1.4-2.5,2.9-4.3,2.9c-1.1,0-2.2-0.6-3.4-0.6c-1.1,0.1-2.6,1.4-3.4,0.5c-0.6-0.7,0.9-1.8,0.5-2.6c-0.4-0.8-2.2,0.6-2.8-0.1
	c-0.5-0.7-0.3-1.6-1-2c-0.7-0.4-1.6-0.5-2.3-0.9s-1.4-1.1-1.2-2c0.2-0.9,1.4-1.4,1.6-2.3c0.3-1.1-0.9-2.1-0.7-3.3
	c0.2-1.1,1.6-1.6,1.6-2.7c0-0.7-0.6-1.2-0.9-1.8c-0.6-1,0.2-2.3,0-3.5c-0.1-0.8-1.4-0.8-2.2-0.8c-0.3,0-0.5,0-0.7-0.1
	c-0.2-0.1-0.4-0.4-0.5-0.6c-1.5-2.7-1.2-6.1-0.5-9.1c0.7-3,1.8-6,1.9-9.1c0-1.3,0.1-2.8,1.3-3.3c0.5-0.2,1-0.1,1.5-0.1
	c1.5,0,3.1-0.3,4.5-1.1c0.5-0.3,1-0.7,1-1.2c0-0.3-0.2-0.6-0.3-0.9c-0.4-1,0.1-2.4,1.1-2.4c0.8,0,1.3,0.7,1.8,1.3s1.7,1,2,0.3
	c0.3-0.6-0.4-1.3-0.1-1.9c0.2-0.5,0.9-0.6,1.5-0.6c2.6-0.2,5-1.8,6.2-4.1c0.1-0.3,0.3-0.6,0.5-0.7c0.6-0.3,1.3,0.2,1.5,0.9
	c0.2,0.6,0.3,1.3,0.6,1.8c0.7,1,2.8-0.5,3.4,0.6c0.7,1.1,0.2,3.6,1.9,5c0.3,0.2,0.4,0.6,0.4,0.9c0,0.2-0.1,0.4-0.2,0.5
	c-0.5,0.8-1.3,1.3-2.2,1.4c-0.6,0.1-1.2,0-1.7,0.3c-0.4,0.3-0.6,0.7-0.9,1.2c-0.9,1.8-0.7,4-1.7,5.8c-0.5,0.9-2.5,0-2.8,1
	c-0.1,0.4,0.1,0.8,0,1.2c-0.1,1.6-3.2,2.9-2,3.9c0.9,0.8,1.2,1.6,0.8,2.7s-2.1,2.1-1.6,3.1c0.4,0.7,1.7,0.5,2.1,1.2
	c0.5,0.7,0.4,1.8-0.3,2.2c-1.3,0.8-3-1.1-4.3-0.3c-0.6,0.4-0.8,1.3-1.4,1.6c-0.4,0.2-0.8,0.2-1.2,0.2c-1.1,0.2-2,1.1-2.2,2.2
	C182.7,193.1,182.7,193.5,182.6,193.8z"/>
<path fill="#FFFFFF" stroke="#D6D6D6" stroke-miterlimit="10" d="M182.8,266.6c0.4,0.2,0.8-0.3,1.1-0.7c0.1-0.2,0.2-0.4,0.1-0.5
	c-0.1-0.1-0.1-0.1-0.2-0.1c-0.2-0.1-0.4-0.1-0.6-0.2c-0.1,0-0.2,0-0.2,0c0,0-0.1,0.1-0.1,0.1c-0.1,0.2-0.3,0.5-0.3,0.7
	C182.5,266.2,182.6,266.5,182.8,266.6z"/>
<path fill="#FFFFFF" stroke="#D6D6D6" stroke-miterlimit="10" d="M32.6,198.9c-1-0.9-2.7,0.7-3.2,2c-0.1,0.3-0.2,0.7,0,1
	c0.1,0.2,0.3,0.3,0.5,0.3c0.8,0.2,1.5-0.5,1.9-1.2C32.3,200.4,33.2,199.4,32.6,198.9z"/>
<path fill="#FFFFFF" stroke="#D6D6D6" stroke-miterlimit="10" d="M128.3,98.6c-0.6,0.7-0.2,1.8,0.2,2.6c0.1,0.3,0.3,0.6,0.5,0.7
	c0.4,0.2,0.9-0.1,1.2-0.4c0.6-0.6,1.1-1.4,1.3-2.3c0.1-0.2,0.1-0.4,0-0.5c-0.1-0.1-0.1-0.1-0.2-0.1c-0.5-0.3-1-0.5-1.5-0.5
	C129.2,98,128.7,98.2,128.3,98.6z"/>
<path fill="#FFFFFF" stroke="#4E9BD7" stroke-miterlimit="10" d="M181,184.7c0.1,0.3,0.3,0.5,0.5,0.8c0.6,0.8-0.1,2,0.2,3
	c0.3,0.7,1.5-0.3,2-0.8c0.2-0.2,0.4-0.4,0.5-0.7c0.1-0.3,0.1-0.6,0.1-0.9c0-1.1,0.1-2.7,1.1-2.9c0.5-0.1,0.8-0.4,1-0.8
	c0.1-0.4,0.3-1,0.7-1.1c0.3-0.1,0.7,0.1,1,0c0.5-0.1,0.6-0.7,0.7-1.2c0.1-0.7,0.3-1.6-0.2-2.2c-1.2-1.4-2.1,2-3.7,2.8
	c-0.7,0.4-1.6,0.1-2.2,0.6c-0.6,0.5-1,1.2-1.4,1.9C181.1,183.6,180.8,184.2,181,184.7z"/>
<path fill="none" stroke="#585858" stroke-miterlimit="10" stroke-dasharray="4,1" d="M-2.7,369.9c0.8-0.7,2.4-1,2.5-2
	c0.1-1.3-2.6-1-3.4-2c-0.7-0.9,2-1.7,1.7-2.8c-0.3-1.2-0.8-1.4-1.1-2.6c-0.2-0.8-2.1,0-2.2-0.7c-0.2-0.8,0-1.4,0.2-2.2
	c0.2-0.8,1.8-0.2,2.3-0.8c0.5-0.5-0.8-1-0.9-1.7c-0.2-1.9,0.7-3.6-0.5-5.2c-1.2-1.5-2.7-3.5-1.8-5.2c1.2-2.4,4.9-1,6.8,0.9
	c1.9,1.9,5.9,5.6,6.8,3c0.3-0.9-1.7-1.8-1.1-2.6c1.9-2.5,6.5-0.7,8.6-3c6.6-7.3-2.8-29.6,6.9-27.8c3.3,0.6,3.9,8.5,7,7.1
	c3-1.4,1.5-6.5,2.2-9.7c0.1-0.5,0.3-1.1,0.7-1.5c1.1-0.8,2.6,0.6,3.9,0.2c1.4-0.4,1.4-2.4,1.3-3.8c-0.4-6,3-12,8.3-14.8
	c1-0.6,2.2-1,2.8-2.1c0.6-0.9,0.5-2.1,0.7-3.1c0.3-1.5,1-2.9,2.1-4c0.7-0.7,1.6-1.3,2.3-2.2c0.8-1,1-2.3,1.4-3.5
	c1.3-4.4,3.8-8.4,6.3-12.3c0.6-0.9,1.5-1.1,2.6-1.4c2-0.6,3.3-2.5,4.9-3.7c1.7-1.3,0.1-2.8,0-4.9c0-2.3,3.9,3,6.2,2.4
	c2.1-0.6-1.9-3.8-1.9-5.9c0-1.8,3.2-0.6,4.7-1.5c2.2-1.3-1.4-6.3,0.9-7.4c0.8-0.4,1.9,1.1,2.6,0.6c0.8-0.6-0.4-2.4,0.4-3
	c2-1.5,5.3,0.6,7.2-0.9c2.2-1.8,2.2-5,2.9-7.7c0.6-2.7,4.2-6.9,5.7-4.6c1.1,1.7,2.6,2.1,3.8,3.8c1.6,2.2-1.1,5.3-0.6,8
	c0.4,1.6,1.1,3.3,2.5,4.3c1.4,0.9,3-1.4,4.5-0.5c1.2,0.7-2.7,2.7-1.9,3.9c1,1.4,4.3-2.2,5.1-0.7c1.6,3.4-10.3,4.4-8.3,7.6
	c1.3,2.1,4.4,1.7,5.4,4c0.9,2.3,2.3,5.2,4.8,5.2c1.2,0,2.2-0.7,3.2-1.3c4.3-2.7,9.6-4.6,14.3-2.8c3.7,1.4,7.2,2.2,10.9,3.3
	c2.6,0.8,3.7,4.1,6.3,4.7c4.2,0.9,8.7-0.7,12.7,1c1,0.4,1.9,1.1,2.9,1.5c1.1,0.4,2.3,0.4,3.1,1.3c0.9,1,0.5,2.6,0.7,4
	c0.3,2.2,2.1,3.8,4.1,4.7c2,0.9,4.2,1.2,6.3,1.9c0.4,0.1,0.9,0.3,1.2,0.7c0.4,0.4,0.4,1,0.6,1.6c0.5,2.2,2.8,4.1,4.8,3.2
	c1.6-0.7,3-2.9,4.5-2c0.4,0.2,0.7,0.7,1.1,1c1.2,0.8,2.7-0.4,3.6-1.5c2.8-3.3,5.6-6.6,7.6-10.4c2-3.8-0.7-9.4,2.3-12.4
	c0.9-0.9,1.2,1.7,1.9,2.8c0.5,0.6,1.2-0.9,1.3-1.6c0.5-2.5,1.6-4.8,3.2-6.6c1.6-1.8,3.7-3.2,4.7-5.4c0.3-0.8,0.5-1.6,0.8-2.3
	c0.5-1.1,1.2-2,1.9-2.9c2-2.5,4-5,6.8-6.5c1.4-0.7,3-1.2,4.3-2.1c1.3-0.9,0.6-3.1,1.8-4.1c0.9-0.7,1.9,1.2,2.9,1.6
	c1,0.4,2.2-0.8,3.2-0.3c2.5,1.4,1.5,5.5,3.1,7.8c1.7,2.3,3.3,5.2,2.4,7.9c-0.8,2.3-3.3,4.2-3,6.6c0.2,1.1,1,2.2,0.7,3.3
	c-0.2,0.8-0.8,1.4-1.2,2.1c-0.9,1.5-0.6,3.5,0.2,5c0.8,1.5,2.9,2.2,3.5,3.9c0.6,1.6,1.9,1.5,3.6,1.7c1.7,0.3,2.4,2.3,3.9,3
	c1.4,0.6,2.8,1.2,4.3,1.3c0.9,0,1.8-0.1,2.6,0.2c2,0.7,2.5,3.2,2.3,5.3c-0.2,2.1-0.9,4.2-0.2,6.2c0.5,1.3,1.5,2.2,2.3,3.3
	c1.9,2.7,2.3,6.2,1.9,9.5c-0.3,3.3-3.5,7-1.7,9.7c1.2,1.7,3.5-3.5,5.2-2.4c1,0.6,0.5,2.1,0.4,3.3c-0.1,2,2.2,2.6,3.8,3.9
	c0.8,0.7-0.4,2.5,0.4,3.2c0.7,0.6,1.7-0.7,2.5-1.2c0.8-0.5,2-0.8,2.6-0.1c0.4,0.4,0.4,1.1,0.4,1.7c-0.1,1.9-1.8,4.6-0.3,5.8
	c0.8,0.7,2.1-1.3,3.1-0.9c1.5,0.6,0.9,3.7,2.5,4.1c1.1,0.3,2-1.2,3.1-1.2c1.1,0,1.5,1.2,2.4,1.9c2.3,1.8,5.5,1.5,7.6,3.6
	c2.3,2.2,4.9,5.1,4.1,8.2c-0.4,1.5-1.4,3.1-0.4,4.3c1.2,1.4,4.3-0.2,5,1.4c1,2.3-2.9,4.8-1.7,7c0.3,0.6,0.9,1,1.5,1.4
	c0.9,0.6,1.9,2.6,2.8,1.9c0.2-0.2,0.3-0.1,0.5,0.1c1.1,1,1.8,2.2,2.7,3.3s2.2,2,3.6,2c0.8,0,1.5-0.3,2.3-0.4c1.2-0.1,2.4,0.5,3.5,0
	c0.6-0.3,1-0.8,1.5-1.3c0.9-0.8,2.1-1.2,3.3-1.1c0.3,0,0.5,0.1,0.8,0.2c0.3,0.3,0.4,0.8,0.5,1.2c0.4,1.5,1.8,2.4,2.7,3.6
	c1.9,2.5,2,6,3.9,8.5"/>
<path fill="none" stroke="#585858" stroke-miterlimit="10" stroke-dasharray="4,1" d="M348.9,372.3c-0.2-2.6,1.4-4.9,2.2-7.3
	c0.6-1.9,0.8-3.9,0.9-5.9c0.1-1.5,0.2-3.1,0.4-4.6c0.1-1.8,0.3-3.6,1.1-5.2c0.1-0.3,0.3-0.6,0.6-0.7c0.5-0.3,1.2,0,1.6,0.4
	s0.6,1,1,1.5c0.7,1.1,2,2.2,3.2,1.8c2.2-0.8,0.8-4.7,2.4-6.4c0.7-0.8,1.8-1.1,2.5-1.9c0.4-0.5,0.6-1.1,0.9-1.7
	c1.5-3.8,4.1-7.1,7.5-9.4"/>
<text transform="matrix(1 0 0 1 200.3153 178.373)"><tspan x="0" y="0" fill="#7BBCEB" font-family="'Verdana-Italic'" font-size="8">Red Devil</tspan><tspan x="0" y="9.6" fill="#7BBCEB" font-family="'Verdana-Italic'" font-size="8">Lake</tspan></text>
<path fill="none" d="M93.2,188.2c4.6-0.2,8.1,3.9,10.9,7.6c5.4,7.3,10.7,14.5,16.1,21.8c1.2,1.7,2.5,3.4,3,5.3"/>
<text transform="matrix(0.5938 0.8046 -0.8046 0.5938 101.1255 195.9976)"><tspan x="0" y="0" fill="#7D7D7D" font-family="'Verdana-Italic'" font-size="7">1</tspan><tspan x="4.4" y="0" fill="#7D7D7D" font-family="'Verdana-Italic'" font-size="7">0</tspan><tspan x="8.9" y="0" fill="#7D7D7D" font-family="'Verdana-Italic'" font-size="7">0</tspan><tspan x="13.3" y="0" fill="#7D7D7D" font-family="'Verdana-Italic'" font-size="7">0</tspan><tspan x="17.8" y="0" fill="#7D7D7D" font-family="'Verdana-Italic'" font-size="7" rotate="0">0</tspan></text>
<path fill="none" d="M70.8,284.8c1.7,1.9,1.9,4.6,2.1,7.2c0.9,7.9,3.3,15.7,7.2,22.7c2,3.6,4.4,7.4,4,11.5"/>
<text transform="matrix(0.1657 0.9862 -0.9862 0.1657 70.5288 293.6553)"><tspan x="0" y="0" fill="#7D7D7D" font-family="'Verdana-Italic'" font-size="7">1</tspan><tspan x="4.7" y="0" fill="#7D7D7D" font-family="'Verdana-Italic'" font-size="7" rotate="-4.2">0</tspan><tspan x="9.3" y="-0.4" fill="#7D7D7D" font-family="'Verdana-Italic'" font-size="7" rotate="-8.4">6</tspan><tspan x="13.9" y="-1" fill="#7D7D7D" font-family="'Verdana-Italic'" font-size="7" rotate="-12.6">0</tspan><tspan x="18.4" y="-2.1" fill="#7D7D7D" font-family="'Verdana-Italic'" font-size="7" rotate="-16.8">0</tspan></text>
<path fill="none" d="M320.1,270.5c1.3-1.3,2.4-2.8,3.4-4.3c1.8-2.6,3.6-5.1,5.4-7.7c8-11.5,16-23,21.9-35.6"/>
<text transform="matrix(0.5705 -0.8213 0.8213 0.5705 329.1953 262.5313)"><tspan x="0" y="0" fill="#7D7D7D" font-family="'Verdana-Italic'" font-size="7">9</tspan><tspan x="4.5" y="0" fill="#7D7D7D" font-family="'Verdana-Italic'" font-size="7" rotate="-0.1">6</tspan><tspan x="8.9" y="0" fill="#7D7D7D" font-family="'Verdana-Italic'" font-size="7" rotate="-0.3">0</tspan><tspan x="13.4" y="0" fill="#7D7D7D" font-family="'Verdana-Italic'" font-size="7" rotate="-0.8">0</tspan></text>
<path fill="none" d="M72.6,67.7c-2.7-5-2.4-11.4,0.7-16.2c3.6-5.5,10.4-8.8,12.1-15.1"/>
<text transform="matrix(6.639321e-02 -0.9978 0.9978 6.639321e-02 73.1343 61.4795)"><tspan x="0" y="0" fill="#7D7D7D" font-family="'Verdana-Italic'" font-size="7">1</tspan><tspan x="3.8" y="-0.1" fill="#7D7D7D" font-family="'Verdana-Italic'" font-size="7" rotate="15.5">0</tspan><tspan x="7.4" y="0.8" fill="#7D7D7D" font-family="'Verdana-Italic'" font-size="7" rotate="31.9">2</tspan><tspan x="10.8" y="3" fill="#7D7D7D" font-family="'Verdana-Italic'" font-size="7" rotate="41.3">0</tspan><tspan x="14.1" y="5.9" fill="#7D7D7D" font-family="'Verdana-Italic'" font-size="7" rotate="42.2">0</tspan></text>
<path fill="none" d="M281.5,138.3c1.3-2.7,4.5-3.8,7.1-5.1c7.5-3.8,12-11.5,16.3-18.7"/>
<text transform="matrix(0.8324 -0.5542 0.5542 0.8324 290.4082 135.1978)"><tspan x="0" y="0" fill="#7D7D7D" font-family="'Verdana-Italic'" font-size="7">9</tspan><tspan x="4.9" y="-0.1" fill="#7D7D7D" font-family="'Verdana-Italic'" font-size="7" rotate="-9.5">8</tspan><tspan x="9.6" y="-0.9" fill="#7D7D7D" font-family="'Verdana-Italic'" font-size="7" rotate="-16.8">0</tspan><tspan x="14.1" y="-2.2" fill="#7D7D7D" font-family="'Verdana-Italic'" font-size="7" rotate="-21.8">0</tspan></text>
<path fill="none" d="M163,30.8c1.2-3.4,6.8,0.7,9.9,2.7c5.8,3.7,13.1,5,19.8,3.3c2.4-0.6,5.1-1.5,7.1-0.2"/>
<text transform="matrix(0.8518 0.5238 -0.5238 0.8518 170.1055 34.7847)"><tspan x="0" y="0" fill="#7D7D7D" font-family="'Verdana-Italic'" font-size="7">9</tspan><tspan x="4.9" y="0" fill="#7D7D7D" font-family="'Verdana-Italic'" font-size="7" rotate="-10.2">4</tspan><tspan x="9.7" y="-1" fill="#7D7D7D" font-family="'Verdana-Italic'" font-size="7" rotate="-20.1">0</tspan><tspan x="14.3" y="-2.7" fill="#7D7D7D" font-family="'Verdana-Italic'" font-size="7" rotate="-29.9">0</tspan></text>
<g>
	<g>
		<polyline fill="none" stroke="#7D7D7D" stroke-miterlimit="10" points="85.2,341.6 85.2,348.7 275.4,348.7 275.4,341.7 		"/>
		<line fill="none" stroke="#7D7D7D" stroke-miterlimit="10" x1="180.5" y1="341.4" x2="180.5" y2="348.7"/>
		<line fill="none" stroke="#7D7D7D" stroke-miterlimit="10" x1="161.2" y1="349.2" x2="161.2" y2="343.7"/>
		<line fill="none" stroke="#7D7D7D" stroke-miterlimit="10" x1="142.4" y1="349.2" x2="142.4" y2="343.7"/>
		<line fill="none" stroke="#7D7D7D" stroke-miterlimit="10" x1="123.3" y1="349.2" x2="123.3" y2="343.5"/>
		<line fill="none" stroke="#7D7D7D" stroke-miterlimit="10" x1="104.6" y1="349.2" x2="104.6" y2="343.7"/>
	</g>
	<text transform="matrix(1 0 0 1 83.7835 339.1469)" fill="#7D7D7D" font-family="'Verdana'" font-size="8">0</text>
	<text transform="matrix(1 0 0 1 174.2946 339.1469)" fill="#7D7D7D" font-family="'Verdana'" font-size="8">0.5</text>
	<text transform="matrix(1 0 0 1 258.3415 339.1469)" fill="#7D7D7D" font-family="'Verdana'" font-size="8">1 mi</text>
</g>
</svg>
