<?xml version="1.0" encoding="utf-8"?>
<!-- Generator: Adobe Illustrator 17.1.0, SVG Export Plug-In . SVG Version: 6.00 Build 0)  -->
<!DOCTYPE svg PUBLIC "-//W3C//DTD SVG 1.1//EN" "http://www.w3.org/Graphics/SVG/1.1/DTD/svg11.dtd">
<svg version="1.1" id="Layer_1" xmlns="http://www.w3.org/2000/svg" xmlns:xlink="http://www.w3.org/1999/xlink" x="0px" y="0px"
	 viewBox="0 0 360 360" enable-background="new 0 0 360 360" xml:space="preserve">
<path fill="none" stroke="#E1E1E1" stroke-miterlimit="10" d="M253.8,370.3c1.2-2.9,2.3-5.7,3.4-8.6c1.6-3.9,3.1-7.9,4.7-11.8
	c4.8-12,9.6-24,11.8-36.7c1-5.6,1.3-11.4,1.9-17.1c0.1-0.8,0.2-1.5,0.5-2.2c0.7-1.6,2.3-2.5,3.9-3.2c1.8-0.8,3.7-1.4,5.6-1.3
	c1.9,0.1,3.9,1,4.8,2.8c0.3,0.5,0.4,1.1,0.9,1.4c0.5,0.4,1.3,0.4,2,0.5c2.9,0.5,6.2,6.1,7.6,3.6c1.1-1.9-1-4.3-1.5-6.4
	c-0.2-0.7-0.3-1.4-0.2-2c0.2-0.8,0.8-1.5,1.4-2.1c3.4-3.9,5.2-9.2,5-14.3c-0.2-4.9-2.3-9.6-2.8-14.5c-0.1-0.4-0.1-0.9,0.1-1.3
	c0.4-0.9,1.7-1,2.7-0.7c1,0.3,2.2,0.9,3,0.3c1.8-1.5,4.1-1,6-2.2c7.6-5-4.6-17.5-4.6-26.6c0-0.8,0.1-1.8,0.6-2.4
	c0.5-0.5,1.2-0.8,1.7-1.4c1.8-2.1-1.8-6.2,0.4-8c1.6-1.3,3.7,0.7,5.4,1.8c2.3,1.4,5-1.3,7.6-0.7c6.6,1.4,5.6,12.3,8.3,18.4
	c0.5,1,0.9,2.1,1.2,3.2c0.2,1,0.3,2.1,0.5,3.1c0.3,1.2,0.9,2.2,1.4,3.3c5.4,11.5,3.1,26.2,10.8,36.4c1.1,1.4,2.3,2.7,3.2,4.1
	c3,4.8,2.8,10.8,2.9,16.5s1,11.9,5.4,15.5c0.7,0.5,1.4,1,2.3,1.2c2.2,0.5,4.3-1,6.3-1.9c2-0.9,5.1-0.8,5.8,1.3
	c0.3,0.8,0.5,1.6,1.2,2.2c0.6,0.6,1.3,1,1.9,1.7c0.4,0.5,0.8,1.2,0.5,1.8"/>
<path fill="none" stroke="#E1E1E1" stroke-miterlimit="10" d="M240.2,370c0.9-3.1,2.5-6,3.9-8.9c1.4-3.1,2.5-6.3,3.7-9.5
	c2.7-7.9,5.5-15.7,8-23.7c2.7-8.5,5.1-17.1,5.3-26c0.1-7.3-0.8-15.6,1.9-22.3c0.9-2.2,2.9-4,2.8-6.4c0-1.6-0.2-3.6,1.2-4.2
	c0.6-0.2,1.3-0.1,1.9,0c3.4,0.8,7.3,4.3,10.2,2.4c1.1-0.7-0.8-3.1,0.2-3.8c2.7-1.8,8,3.5,9.5,0.6c0.7-1.4-1.5-2.7-2.3-4
	c-2.7-3.9-4.5-8.5-5.1-13.3c-0.1-0.8-0.2-1.7,0.3-2.4c0.9-1.4,3.6-1.7,3.5-3.4c0-0.5-0.3-0.9-0.6-1.3c-3.1-4.1-6.6-8-10.4-11.4
	c-1.1-1-2.3-2.1-2.7-3.5c-0.4-1.4,0.3-3.3,1.7-3.6c0.6-0.1,1.3,0.1,2,0c1.3-0.3,1.7-2.1,1.3-3.5c-1.1-4.5-6-6.7-10-8.9
	c-8.2-4.6-11.2-14.8-18.5-20.7c-1.3-1.1-2.8-2.4-3-4.2c-0.2-1.7,0.3-3.4,0.8-5.1c1-3.4,2.1-6.8,3.1-10.2c0.4-1.4,0.8-2.8,0.7-4.2
	c-0.2-2.1-1.5-3.9-1.4-6c0.1-1.4,0.8-2.6,1.5-3.8c1.3-2.2,2.5-4.4,3.8-6.6c2.5-4.4-0.3-10.1,2.6-14.2c2.5-3.4,8.3,1.5,12.5,2.3
	c3,0.6,6.2,1.2,8.7,2.9c1.6,1.1,2.9,2.7,4.3,4.1c5.3,5.2,12.5,8,18.4,12.4c5.7,4.3,10.1,10.1,12.7,16.7c0.7,1.7,1.2,3.5,2.3,4.9
	c2.7,3.6,7.8,4.3,11.6,6.7c2.8,1.8,4.8,4.4,6.9,7c4.9,6.3,9.9,12.7,12.6,20.2c1.2,3.5,2,7.1,3,10.6c1,3.4,2.4,6.6,3.7,9.9
	c5,12.3,10.1,24.5,15.1,36.8c3,7.4,6.4,15.3,13.2,19.6"/>
<path fill="none" stroke="#E1E1E1" stroke-miterlimit="10" d="M231.4,369.4c1.2-2.1,2.4-4.3,3.5-6.5c2.3-4.6,4.1-9.4,5.6-14.3
	c4.5-15.1,4.9-31.1,5.4-46.9c0.1-3.5-1.3-6.9-1.8-10.4c-0.3-2.2,0-4.4,0.4-6.6c0.7-4.5,1.5-9,2.2-13.6c0.1-0.8,0.3-1.7,0.4-2.5
	c0.1-0.8,0.3-1.5,0.4-2.3c0.7-4.2,1.4-8.4,2-12.6c0.5-3.3,1-6.6,1.5-9.9c0.1-0.9,0.3-2,1.1-2.5c0.3-0.2,0.8-0.4,1.1-0.5
	c2.8-1.1,4.3-4.3,4.3-7.3s-1.4-5.9-2.9-8.4c-1.8-3-4-5.8-5.7-8.9c-1.4-2.6-2.5-5.5-4.3-7.9c-1.5-2.1-3.4-3.8-5.4-5.4
	c-3.5-3-7.2-5.9-11.1-8.4c-3-2-6.4-4.1-7.1-7.6c-0.8-3.7-5.2-5.4-7.7-8.3c-1.7-1.9-3.4-4.8-1.8-6.7c0.6-0.7,1.5-1.1,2.3-1.6
	c4.9-3.2,4.4-10.4,3.6-16.2c-0.9-6.9-1.3-13.9-1.1-20.8c0.1-4.7,0.6-9.8,3.5-13.5c2-2.4,4.8-4.1,6.4-6.8c2.2-3.7,1.5-11.7,5.8-11.3
	c10.2,1,19.7,4.7,29.5,7.7c6.5,2,12.3,5.9,17.9,9.7c8.7,5.9,17.6,12,24.4,20c7.2,8.4,12,18.8,20.2,26.3c3,2.7,6.3,5.1,9.4,7.7
	c3.9,3.5,7.2,7.5,10.3,11.7c12.3,16.5,21.5,35.3,27.2,55.1c0.9,3.1,1.7,6.3,3.1,9.2c1.5,3,3.6,5.7,6.3,7.8"/>
<path fill="none" stroke="#E1E1E1" stroke-miterlimit="10" d="M-5.3,303.3C6,307,10.5,293.3,14,286c2.3-4.8,3-10,3-15
	c0-3-0.8-5.1-2-8c-1.7-4.1-3.7-8.4-8-11c-1.9-1.2-5.7-2-6-3c-2.6-10,0.7-20.6,9-24c5.8-2.4,12.2,0.4,18-2c4.1-1.7,9-4,12-7
	c4-4,3.4-10.6,7-14c2.6-2.5,4.2-4.2,7-7c1.4-1.4,4.4-0.7,5-2c4.3-9.1-10.4-16.4-17-24c-0.9-1.1-1.1-2-1-3c1-7.2,3.2-13,2-20
	c-2.7-16.1-5.9-30-9-46c-1.9-10,0-19-1.5-27.7c-1.8-10.1-2-20.8-2.9-31.1c-0.6-6.2-1.1-12.4-0.5-18.6c0.1-1,0.3-2.1,0-3.1
	c-0.3-1.6-1.4-2.9-2.1-4.3c-1.2-3-0.4-6.3-0.1-9.5c0.7-9.1-3.6-18.2-2.3-27.3"/>
<path fill="none" stroke="#E1E1E1" stroke-miterlimit="10" d="M219.2,368.9C230,357,233.5,341,234,326c0.5-16-2-32-2-48
	c0-10,2.8-20.8,10-30c8.4-10.7-2.9-26.1-10-37c-3.9-6-11.8-6.2-17-12c-2.4-2.7-4.1-5.8-7-7c-2.1-0.9-6.4-3.2-8,1
	c-2.6,6.8-3.9,14.5-11,15c-2,0.1-3-3-5-4c-8-4-15.8,3-24,4c-2,0.2-5.2,1.2-7-1c-4.6-5.6-5.6-15.4-1-21c0.9-1.1,4.5-0.8,5-3
	c0.7-2.9,0.3-6.3,2-9c1.5-2.4,4-2,6-4c5-5,6-12,12-16c3-2,0.8-7.3,3-9c6.4-4.9-0.8-14.2,5-17c0.9-0.4,3.1,0.4,4,0
	c3.9-1.6,0.5-7.4,3-10c6-6.2,8.7-14.9,6-22c-1.1-3-5.7-4.9-6-8c-0.3-3.8,3.2-6.1,2.2-12.5c-0.2-1,4.1-0.9,4.2-1.8
	c0.3-4.4-9.8-10.6-8.4-15.6c2-7,11.4,8.3,14.2,7.3c1.1-0.4-0.6-3,0.5-3.3c7.4-2.3,6.6,12.8,7,13.9c1.6,4.1,2.3-8.8,6.7-7
	c2.2,0.9,3.4,3.9,5.2,1.3c1.5-2,0.9-4.9,2-7.1c3-5.8,9.3,2.6,12.1,4.9c5.5,4.6,11.4,2.4,17.9,4.5c8.5,2.8,14,11.9,18.6,19.6
	c1.3,2.1,2.4,4.3,4,6.1c3,3.4,7.4,5.3,11.2,7.7c6.5,4.1,11.9,10,15.4,16.8c1.6,3.1,2.8,6.3,4.9,9c1.3,1.6,2.9,3,4.4,4.4
	c6.3,5.4,12.6,10.9,18.8,16.3c1.4,1.2,2.9,2.5,4.7,3.2c1.8,0.7,3.8,0.7,5.6,1.4c4.2,1.7,5.8,6.7,7.4,11c7,19.5,22,35.5,28.6,55.2"/>
<path fill="none" stroke="#E1E1E1" stroke-miterlimit="10" d="M154.4,370.9c4.6-6.9,13.3-9.1,20.6-8.9c8.5,0.3,15.6,2.5,25,1
	c2-0.3,5,1.9,7,2c7.1,0.5,10.8-6.1,13-11c0.9-2,0.8-3,1-5c0.5-4.1,4.3-6.9,5-11c3.2-17.8,2-35.9,3-54c0.3-5-3.1-10-2-15
	c1.8-8,2-15,0-23c-1-4,0.2-7,0-11c-0.5-10-11-11-19-11c-3,0-0.5-7.7-4-7c-8.5,1.6-2.6,16.2-6,24c-0.9,2-3.2,1.7-5,3
	c-2.3,1.7,0.1,6-1,8c-2.8,5.1-12.5,4.9-14-1c-2.3-9.2,1.7-23.2-8-27c-4.2-1.6-9.1-2.2-14,0c-2,0.9-3.9,3.2-6,4
	c-6.8,2.6-12.2,8.4-20,5c-2-0.9-4.1-1.9-5-3c-5.6-6.6-1.2-15,1-22c0.9-3,2.8-6.2,5-8c2.8-2.3,5-4,7-7s1.6-6.2,3-9
	c4.8-9.7,15.2-16,16-26c1.4-19,4.6-36.9,8-56c1.2-7-1.4-13.1,0-20c0.8-4,3.1-5.8,6-10c4.1-5.8-12-12.4-12.2-15.2
	c-0.4-5.7,10.9-9.2,13.6-16c2.9-7.2,12.7-5.4,19.9-6.4c31.6-4.5,32.8,13.2,34.4,13.9c2.4,1.2,8.2-11.2,23.8,4.2
	C264.1,66,275.7,81.3,289,95c1,1,3,2,5,3s5,0,7,0c1,0,1,1.1,2,2c6.3,5.7,9.1-1.7,12-4c3.5-2.7,4.4,0.4,8.7-7.2
	c0.8-1.5,2.5-0.4,3.3-0.8c3.2-1.7,1-7,1-10c0-6,4-11,7-16c4.9-8,13-11,20.3-17c1-0.8,1-2.2,1-3.5c-0.1-2.8-0.2-5.7-1-8.4
	s-2.5-5.3-5-6.6c-1.1-0.6-2.5-1-3.2-2.1c-1.2-2,0.9-4.4,1-6.7c0-2.1-1.5-3.7-2.4-5.6c-1.4-2.8-1.2-6.4,0.9-8.6
	c3.2-3.4,8.8-2.5,13-4.3c2.6-1.1,4.6-3.3,6.7-5.2c3.8-3.5,8-6.6,12.5-9"/>
<path fill="none" stroke="#E1E1E1" stroke-miterlimit="10" d="M83.9,370.1c1.4-1.5,2.8-2.8,4.3-4.2c4.8-4.6,9.7-9.1,14.8-13.3
	c3.3-2.8,6.7-5.5,10.1-8.2c1.7-1.4,3.5-2.7,5.4-3.6c2.7-1.2,5.8-1.5,8.8-1.8c4-0.3,8.2-0.7,12,0.5c2.3,0.7,4.4,1.9,6.8,1.9
	c0.8,0,1.6-0.1,2.4,0.2c3,1.1,1.5,6.1,3.6,8.5c1,1,2.4,1.3,3.8,1.4c2.1,0.2,4.2,0,6.3-0.4c4.6-1,10,1.1,14.6,0.1
	c1.1-0.2,2.2-0.5,3.3-0.3c0.8,0.2,1.5,0.5,2.2,0.8c2.5,1,5.4,1,8.1,1.6c5.2,1.1,10.3,4.7,15.4,3.2c2.6-0.8,4.7-2.8,6-5.1
	c1.4-2.3,2.2-4.9,2.9-7.5c1.2-4,2.4-8,3.6-12.1c0.7-2.2,1.3-4.4,1.4-6.6c0.1-1.7-0.2-3.4,0-5c0.3-3.2,2-6.2,2.2-9.4
	c0.3-5.5-3.9-10.5-3.4-15.9c0.2-2,0.9-4.4-0.6-5.7c-0.5-0.4-1-0.6-1.6-1c-3.1-2.1-1.8-7.6-4.7-9.9c-2.1-1.6-5.2-0.6-7.3,1
	c-2.1,1.6-3.8,3.8-6.2,4.9c-2.2,1-4.6,1-7,1c-2.3,0-4.7,0-7,0c-1.2,0-2.5,0-3.6,0.3c-1.2,0.3-2.2,1-3.2,1.6c-3.9,2.5-9.3,4-11.1,8.2
	c-0.3,0.8,0.6,2.7,0.2,3.4c-1.3,2.5-5.1,2.2-7.9,2c-2-0.2-3.9-0.8-5.7-1.4c-0.9-0.3-3.4-4.5-9.3-4.9c-1.6-0.1-3.9-0.1-5.5,0.2
	c-2.2,0.4-4.3,0.7-6.5,1.1c-2.7,0.5-5.8,0.8-8-0.8c-2.9-2.2-2.5-6.7-1.9-10.3c0.4-1.9,0.7-3.9,1.1-5.8c0.2-1,0.4-2.1,1-2.9
	c0.6-0.8,1.6-1.3,2.3-2.1c0.8-1,0.9-2.3,1-3.6c0.1-2.4-0.1-5-1.4-7c-1.3-2-4.1-3.3-6.3-2.3c-1.5,0.7-3.1,2.4-4.5,1.6
	c-0.7-0.4-1-1.4-1.5-2.1c-1.7-2.2-5.8-1.7-7-4.3c-0.5-1.1-0.2-2.4-0.1-3.6c0.1-2.2-0.9-4.3-1.5-6.4c-1.7-5.3-1.6-11-1.6-16.6
	c0-4.3,0.2-9,2.7-12.5c0.6-0.8,1.3-1.6,1.5-2.6c0.8-3-3.2-5.4-3.2-8.5c0-2.3,2.3-3.9,4.4-4.9c2.1-1,4.5-1.9,5.4-4
	c0.8-1.7,0.4-3.9,1.5-5.4c0.9-1.3,2.5-1.8,4-2.4c1.4-0.6,2.5-1.8,3.1-3.2c1.1-2.8,3.4-4.3,5.3-6.6c3-3.4,6-6.8,8.6-10.5
	c2.1-3,4-6.1,5.6-9.4c1.2-2.5,2.3-5,2.9-7.7c1.3-5.8,0.3-11.9,1.2-17.7c0.8-5.3,3-10.3,4.2-15.5c1.2-5.2-4.1-10.8-1.5-15.5
	c1-1.9,3.7-2,4.3-4.1c0.5-2.1,0.4-4.3,0.9-6.3c0.8-3.1,3.3-6,3-9.2c-0.2-2.8-2.6-5.5-1.6-8.2c0.4-1.3,1.6-2.2,2.2-3.4
	c1.4-2.5,0.3-5.8-1.8-7.8c-2.1-2-5.9-1.7-7.5-4c-5.2-7.5,12.6-12.7,15.3-21.4c1.1-3.4-0.2-7.5,2.4-10c2.6-2.5,7.1-0.1,10.1-2.2
	c1.2-0.9-1-3.4,0-4.5c5.6-5.9,16.2-0.6,24.4-0.4c8.4,0.2,17.2,0.7,24.4,5.1c2.9,1.7,6,4.1,9.2,3.3c1.4-0.4,2.6-1.3,4-1.9
	c4.4-2,10.2,0.6,11.7,5.2c0.4,1.2,0.5,2.5,1,3.6c0.7,1.7,2.1,2.9,3.5,4.1c8.9,7.5,23.1,11.4,26.7,22.5c0.5,1.4,0.6,2.1,1.7,3.1
	c1.6,1.6,3.2,3.3,4.8,4.9c4.9,5,9.9,10,15.9,13.6c1.8,1.1,4.1,2.1,6.1,1.3c2-0.7,3-2.9,4.5-4.3c2.9-2.9,8-3.6,9.8-7.3
	c1.6-3.1,0.4-7.7,3.3-9.7c0.6-0.4,1.3-0.7,1.9-1.1c1.8-1.4,0.2-4.5,1.4-6.4c0.6-0.9,2.1-0.9,3-1.6c4.6-3.3,10.8-8.6,8.9-13.9
	c-0.5-1.3-2.6-0.1-3.8-0.7c-0.6-0.3-1-0.9-1.5-1.3c-1.7-1.8-4.8-0.2-6.8-1.6c-2-1.4-2.9-3.6-4.8-5.2c-0.9-0.8-1.6-1.9-2.3-2.9
	c-3.1-4.8-6.4-9.6-11-12.9c-1-0.7-2.1-1.4-2.9-2.5c-0.5-0.7-0.8-1.6-1.1-2.5c-1.1-3-1.9-7,0.5-9c1-0.8,2.3-1.1,3.6-1.4
	c5.9-1.2,11.8-2.3,17.7-3.2c0.9-0.1,1.8-0.3,2.6-0.6c0.8-0.3,1.5-0.7,2.3-1.1c3.9-2.1,7.8-4.2,11.6-6.4c0.6-0.3,1.3-0.7,2-0.9
	c0.9-0.2,1.8-0.2,2.7-0.2c4.8-0.2,9.4-2.6,12.3-6.4"/>
<path fill="none" stroke="#E1E1E1" stroke-miterlimit="10" d="M63.3,369.3c6.4-11.5,17.8-19.4,29.6-25.1c4.9-2.4,10.2-4.6,13.1-9.1
	c0.7-1.1,1.3-2.3,2.1-3.2c3.2-3.7,10.5,1.4,13.8-2.2c1.5-1.6,0-5-1.8-6.2c-1.5-1-3.7-1.4-4.6-2.9c-1-1.5-1.7-3.2-3.2-4.2
	c-1-0.7-2.3-1-3.4-1.6c-2.7-1.6-3.8-5.6-6.9-6.2c-3.8-0.6-6.8,4.5-10.5,3.7c-1-0.2-1.8-0.9-2.6-1.5c-3.5-2.7-7-5.4-10.4-8
	c-1.4-1-2.7-2.1-3.6-3.6c-1.9-3.5-0.3-7.8,1.2-11.5c2.7-7.1,4.4-14.6,5-22.2c0.1-1.2,0.2-2.5,0.5-3.7c0.3-1.1,0.9-2.1,1.3-3.1
	c2.9-7.6-1.7-16.2,0-24.2c0.4-1.7,1.1-3.4,1.4-5.1c0.3-1.8,0.3-3.6,0.4-5.4c0.3-10.5,3.5-21.2,10.6-29c4.3-4.6,8.9-8.8,13.9-12.7
	c17.1-13.5,31.6-29.8,26.7-51.9c-0.4-1.8-0.5-3.9,0.6-5.4c0.6-0.8,1.5-1.2,2.2-1.8c5.5-4.6,0.8-14.6,5.1-20.3
	c1.1-1.5,2.8-2.6,3.7-4.3c1.9-3.6-0.9-8-4.2-10.3c-3.3-2.3-7.4-3.8-9.8-7.1c-1.1-1.5-2-3.5-3.8-3.9c-0.9-0.2-2-0.1-2.7-0.7
	c-0.8-0.6-0.7-1.8-0.6-2.8c0.5-4.3,1.7-8.5,3.6-12.5c2.9-6.1,4.9-15.6,11.6-16.7c1.4-0.2,2.9,0,3.9-1.1c0.9-1.1,1.3-2.6,1.9-3.9
	c1.4-3.1,4-5.6,5.8-8.5s-1-6.5,0.3-9.6c1.7-3.9,8.5-0.5,12.7-0.7c1-0.1,2.1-0.2,2.8-0.9c0.6-0.7,0.7-1.8,0.8-2.7
	c0.6-3.1,3.6-5.2,6.6-6s6.2-0.2,9.3,0.2c13.6,2.1,27.2,4.1,40.8,6.2c1.6,0.2,3.3,0.5,4.9-0.1c4.8-1.9,4.7-10.6,9.8-11.3
	c2.5-0.4,4.8,1.8,5.8,4.1c1,2.4,1,5,1.5,7.5c1.3,6.8,6.2,12.9,12.6,15.6c5.4,2.3,11.5,2.3,17,4.4c5.5,2,9,5.1,9,11.7
	c0,0.9,0.8,2.4,1.3,3.2s0.7,0.9,1.4,1.5c1.4,1.2,2.2,3.1,1.9,5c-0.1,0.6-0.3,1.2-0.1,1.8c0.4,1.6,2.6,1.7,4,2.6
	c0.9,0.5,1.3,2.6,1.9,3.5c1.1,1.5,2.9,1.7,3.6,3.4c1.6,4.3,4.5,8.1,9.3,6.6c3.5-1.1,6.6-4.3,5.5-7.9c-0.3-0.8-0.7-1.6-0.9-2.4
	c-0.6-2.9,2.6-5.5,5.5-5.1c1.4,0.2,2.9,0.9,4.1,0.2c1.5-0.8-0.1-3.6-0.1-5.4c0-1.7,2.3-3.4,4-3.2c1.1,0.2,2.4,1.9,3,1
	c1.2-1.8,0.4-4.3,0.7-6.4c0.2-2.1,0-4.6-1.6-6c-1.9-1.8-5-1.5-7.2-3c-1-0.7-1.8-1.7-2.9-2.3c-1.3-0.7-2.9-0.6-4.3-1
	c-3.3-1-4.9-4.5-7.1-7.1c-3.1-3.7-7.7-6.1-12.5-6.4c-1.7-0.1-3.6-0.1-4.7-1.3c-1.2-1.3-0.9-3.4-0.2-5s1.8-3.1,2-4.9
	c0.1-1,0-1.9,0-2.9c0.2-3.2,2.4-5.9,4.8-7.9c3.2-2.7,6.9-4.8,10.9-6c6.3-2,13-2,19.4-3.5c6.4-1.5,13-5.2,14.9-11.5"/>
<path fill="none" stroke="#E1E1E1" stroke-miterlimit="10" d="M-5.1,351.2c7.1,5,13.4,11.2,18.6,18.3"/>
<path fill="none" stroke="#E1E1E1" stroke-miterlimit="10" d="M-4.9,312.6c5-2.2,10.2-4.1,14.8-7.1c9.3-6,15.5-15.8,20.4-25.8
	c1.6-3.3,3.2-7.1,2-10.6c-1.1-3.4-4.5-5.5-7.2-7.9c-7-6.1-10.6-15.8-9.3-25c0.1-1,0.3-2,1-2.7c1.1-1.3,3.1-1.2,4.7-1.3
	c10.4-0.5,18.1-9.6,26.5-15.8c6.7-4.9,14.4-8.3,20.9-13.5c5.8-4.6,10.6-11.3,10.9-18.5c0-1.1,0.2-2.2,0.7-3.1c0.7-1.3,0-4.6-1.2-5.3
	c-1.5-0.9-3.7-1.2-4.5-2.8c-1.1-2.1,1-5.5-1.1-6.7c-0.7-0.4-1.6-0.3-2.3-0.6c-2.5-0.9-2-4.5-2.5-7.1c-0.6-3.7-3.9-6.4-6.4-9.2
	c-3.7-4.2-6.3-9.4-7.2-15c-0.3-1.8-0.4-3.6-1.1-5.3c-0.7-1.9-1.9-3.5-2.9-5.2c-1.8-3.4-2.6-7.3-3.3-11.1c-1.1-6.1-2.2-12.1-3.3-18.2
	c-0.9-4.7-1.7-9.4-2.6-14.1c-0.2-1.1-0.4-2.2,0-3.2c0.7-1.5,2.7-2.4,2.9-4c0.1-0.9-0.3-1.7-0.6-2.5c-1.5-3.6-1.7-7.7-1.8-11.6
	c-0.2-6.4-0.2-12.9-0.1-19.3c0.1-4.8,0.3-9.7-0.1-14.5c-0.5-6.3-1.8-12.5-2.7-18.7c-1.1-8.2-1.4-16.5-1.6-24.8"/>
<path fill="none" stroke="#E1E1E1" stroke-miterlimit="10" d="M51.9-19.5c-0.8,18-0.8,36.1-0.8,54.2c0,2.9,0,5.9,0.4,8.8
	c0.4,2.6,1.1,5.1,1.6,7.7c0.5,3.2,0.6,6.5,0.6,9.8c0.1,17.5-0.4,35.5,5,52.2c1.7,5.2,4,10.3,4.7,15.8c0.5,3.6,0.3,7.4,2,10.6
	c1.8,3.6,5.5,5.7,8.6,8.2c3.7,3.1,6.7,7.1,9.6,10.9c3.1,4.1,6.2,8.4,7,13.5c0.8,5.1-3.5,8.7-6.6,12.8c-1.1,1.5,0,3.7-0.1,5.5
	c0,0.3,0,0.6,0.1,0.9c0.3,0.7,1.3,0.7,1.9,0.3s1-1.1,1.4-1.7c1.1-1.8,2.5-3.4,4.2-4.6c0.6-0.5,0.6-1.4,1.3-1.8
	c8.2-5.1,13.8-10.5,20.8-15.8c2.1-1.6,4.9-1.9,6.9-3.5c1.7-1.4-1.2-5,0.3-6.7c1.6-1.8,4.9-1.4,5.8-3.6c0.9-2.2-1.8-4.3-1.5-6.7
	c0.4-2.8,2.8-4.8,1.9-7.5c-0.9-2.7-2.5-5.2-2.6-8c-0.2-3.9,2.6-7.2,4.8-10.4c3.5-5.1,5.9-10.9,7.1-17c0.5-2.9,0.7-6.1-1.1-8.4
	c-2.4-3-7-3-10.5-1.5c-3.5,1.5-7.4,2.6-10.1,5.3c-4.6,4.6-10.7,8-16.3,4.9c-5.6-3.2-8.5-9.8-8.9-16.3c-0.5-7.7-3-16.8,1.6-23.1
	c2-2.8,6.2-3.1,8-6c1-1.6,1.8-3.3,2.7-5c4.4-8,16.7-6.1,22.4-13.3c5.2-6.5,5.1-15.3,7.5-23.2c1.2-4-0.2-8.5,2.3-11.8
	c6.3-8.2,20.8,13.5,29.7,8.1c5.8-3.5,5.9-12.6,12.4-14.4c6.6-1.8,13.6-0.6,20.2,1.2c10.1,2.7,25.9,12.8,29.2,11.5
	c3.2-1.3,2.4-6.4,3.4-9.7c2-6.8,3.1-13.9,3.3-21"/>
<path fill="none" stroke="#E1E1E1" stroke-miterlimit="10" d="M54.3,368.9c2.4-9.2,5.7-17.9,13.1-24.3c2.7-2.3,6.2-2.7,9-5
	c2.2-1.8,5.8-5.6,4-8c-6.9-9.1-26.6,0.8-32-11c-2.8-6.1-2-13,1-19c4-8,5.5-16,6-24c0.1-2,0.7-5.2,2-7c0.8-1.1,1.8-3.1,3-5
	c4.3-6.5,6.5-13.1,8-21c2-10.1,6.5-20,7-31c0-1,1.2-0.9,2-2c1.3-1.8,1-3,1-5c0-1,3-4.9-4,0c-12.9,9.1-22.8,19.4-37,27
	c-3.9,2.1-8.4,0.4-12,3c-1.1,0.8-1.4,3-1,5c2.5,13.7,19.8,21,17,36c-1.1,6-4.1,10.9-8,15c-8.3,8.8-17.7,14.4-28,22
	c-2.9,2.1-6.3,2.3-9,4c-0.2,0.1-0.4,0.3-0.6,0.4"/>
<path fill="none" stroke="#E1E1E1" stroke-miterlimit="10" d="M-4.7,340.9c9.8,6.6,20.8,15.6,28.2,28.4"/>
<path fill="none" stroke="#E1E1E1" stroke-miterlimit="10" d="M50.6,369.1c0.5-1.1,1-2.3,1.5-3.4c0.3-0.8,0.7-1.6,0.7-2.4
	s-0.3-2.2-1.2-2.1c-3.5,0.3-6.1,3.9-7.4,7.3"/>
<path fill="none" stroke="#E1E1E1" stroke-miterlimit="10" d="M-4.4,338.1c1,0.7,2,1.9,3.1,1.6c1.1-0.3,0.6-2.3,0.9-3.4
	c0.4-1.4,0.8-2.8,1.1-4.2c0.2-0.6,0.3-1.2,0.5-1.9c0.2-0.7,0.4-1.5,0.2-2.3s-0.8-1.5-1.5-1.5c-0.7,0-1.3,0.6-1.7,1.2
	c-0.6,0.7-1.3,1.4-2,2"/>
<path fill="none" stroke="#E1E1E1" stroke-miterlimit="10" d="M59,244.4c0-3.6,2.5-6.7,4.4-9.7c1.4-2.3,2.5-4.9,3.3-7.5
	c0.2-0.6,0.3-1.2,0.2-1.8c-0.2-1.7-2.3-2.6-3.9-2.3c-1.7,0.3-3,1.5-4.3,2.6c-6.5,5.4-13.8,9.8-21.7,12.9c-1.9,0.8-4.3,2-4.2,4.1
	c0,0.7,0.4,1.4,0.8,2.1c2.3,4,4.6,8,6.9,12c0.8,1.5,1.7,3,1.9,4.7c0.1,0.9,0,1.7,0.3,2.6c0.7,2.2,3.6,3.2,5.8,2.4
	c2.2-0.8,3.7-2.8,4.7-4.9c1-2.1,1.6-4.4,2.8-6.4c1.2-2.1,3-3.9,3.3-6.3C59.4,247.3,59,245.9,59,244.4z"/>
<path fill="none" stroke="#E1E1E1" stroke-miterlimit="10" d="M52.1,241.1c-1.7-1.7-4.8,0-7.2,0.5c-1.8,0.4-3.8,0.1-5.3,1.1
	c-0.7,0.4-0.1,1.5,0.4,2.2c1.5,2.2,4.7,5.6,6.7,3.9c1.4-1.2,1.2-3.7,2.7-4.7c0.6-0.4,1.3-0.7,1.8-1.1
	C51.8,242.6,52.6,241.7,52.1,241.1z"/>
<path fill="none" stroke="#E1E1E1" stroke-miterlimit="10" d="M-4.6,218.2c3.2-1.9,7.8-2.3,11.7-1.9c2.6,0.3,5.8,0.5,7.3-1.7
	c0.4-0.6,0.6-1.2,1-1.8c1.4-2.1,5.3-0.1,7.1-2c1.4-1.6,0.9-4.3,2.8-5.2c1.5-0.7,3.2-0.6,4.8-1.2c3.2-1.3,4.3-5.3,5-8.7
	c0.5-2.5,1.1-5.4-0.1-7.6c-3.5-6.5-9.4-12-8.2-19.2c0.4-2.7,1.4-5.3,1.5-8.1c0.1-1.7-0.2-3.4,0.1-5.1c0.4-2.2,1.7-4.2,2.5-6.3
	c4.1-11.6-9.3-24.3-4.6-35.6c1.5-3.6,4.7-7.2,3.1-10.7c-0.4-0.9-1.2-1.7-1.8-2.5c-4.9-6.3-3.4-15.1-3.9-23.1
	c-0.3-4.1-1.2-8-1.7-12.1c-0.7-5-1-10.2-1-15.3c-0.2-18.4,2-37.5-5.2-54.4C13.4-9.9,10.1-15.1,9.6-21"/>
<path fill="none" stroke="#E1E1E1" stroke-miterlimit="10" d="M-5,196.3c1,0.2,2,0.9,2.9,0.4c3.6-2,7.4-4,9.4-7.6
	c3.4-6.1,9.1-11.4,8.6-18.3c-0.1-1.8-1-3.5-1.2-5.2c-0.3-3.1,1.4-6,2.3-9c1.5-4.6,1.4-9.6,1.3-14.4c-0.1-3.2-0.2-6.3-0.2-9.5
	c-0.4-14.9-0.7-29.8-1.1-44.7C16.3,58.4,15.5,28.2,5.8,0.2C3.3-7.1-0.1-14.5-6.3-19.3"/>
<path fill="none" stroke="#E1E1E1" stroke-miterlimit="10" d="M268.4,370.5c3.2-8.8,6.1-17,8.4-24.6c0.7-2.2,4.7-5.1,4.8-5.4
	c1.1-2.1,1.2-4.6,1.4-7c0.4-5.1,1.2-10.1,2.4-15c0.4-1.6,0.8-3.1,1.5-4.5c1.2-2.2,3.1-3.9,5-5.6c1.2-1.1,2.5-2.2,3.7-3.3
	c0.4-0.3,0.8-0.7,1.3-0.9c1.3-0.5,2.7,0.4,3.9,1c3.2,1.6,7.2,1.2,10.1-0.9c4-2.9,4.4-8.5,6.4-13c1.4-3.2,5.6-3.8,7.6-6.5
	c0.9-1.3,0-3.2,0.8-4.5c0.9-1.3,3-1.9,4-0.7c0.8,1,0.5,2.4,0.3,3.6c-1.5,7-0.2,14.2,1,21.2c0.2,0.9,0.3,1.8,0.9,2.5
	c0.7,0.9,1.9,1.4,2.9,1.9c5,2.7,6.6,8.9,7.8,14.5c1.3,6.2,2.6,12.6,5.9,18.1c0.5,0.8,1.1,1.6,1.9,2.1c0.9,0.5,2.1,0.6,3.1,0.6
	c1.5,0,3,0.1,4.5,0.1c1.2,0,2.8,0.3,3.1,1.5c0.3,1-0.4,2,0,2.9c0.5,1.3,2.3,1.1,3.6,1.4c1.5,0.4,2.5,1.8,3.6,2.9c0.9,1,2,1.8,3,2.7
	c1.9,1.6,3.8,3.1,5.7,4.7"/>
<path fill="none" stroke="#E1E1E1" stroke-miterlimit="10" d="M290.6,370.3c2.1-5.8,4.9-16.3,10.3-13.8c1.4,0.6-0.1,4.1,1.5,4.4
	c2.4,0.4,2.1-5.6,4.6-5.7c2.7-0.1,5.8,1.2,7.3-1c0.9-1.4,1.5-4.6,3-3.9c1.2,0.6,0,2.6,0.2,3.9c0.2,1.5,1.4,2.8,2.7,3.6
	c1.4,0.7,2.9,1,4.5,1.2c2.4,0.4,4.8,0.8,7.3,1.2c2.4,0.4,4.9,0.8,7,2.2s3.5,3.9,2.8,6.3c-0.1,0.2-0.2,0.5-0.4,0.5
	c-0.2,0-0.4-0.3-0.2-0.4"/>
<path fill="none" stroke="#E1E1E1" stroke-miterlimit="10" d="M208.2,306.9c-0.8-0.2-1.4-0.8-2.1-1.4c-3.5-3-8.1-4.6-12.7-4.6
	c-0.6,0-1.2,0-1.8,0.3c-0.6,0.3-1.1,0.7-1.7,1.1c-2,1.3-4.5,1.8-6.3,3.3c-1.6,1.3-2.5,3.3-2.9,5.3c-0.4,2-0.3,4.1-0.2,6.2
	c0.1,1.9,0.2,3.8,0.7,5.7c0.7,2.6,2.1,4.9,2.5,7.5c0.1,0.9,0.1,1.8,0.4,2.7c0.3,1.3,1,2.4,1.7,3.5c2.3,3.4,5,6.4,8.2,9
	c2.1,1.7,4.5,3.2,7.1,3.5c2.7,0.3,5.7-1,6.6-3.5c0.3-0.7,0.4-1.5,0.4-2.3c0.2-1.9,0.4-3.8,0.6-5.7c0.1-1,0.2-2-0.2-2.9
	c-0.2-0.6-0.7-1.1-0.8-1.7c-0.3-1.3,0.8-2.4,1.6-3.4c1.9-2.3,2.8-5.3,3.1-8.3s0-6-0.2-9c-0.2-1.9-0.7-4.3-2.5-4.9
	C209.3,307.1,208.8,307.1,208.2,306.9z"/>
<path fill="none" stroke="#E1E1E1" stroke-miterlimit="10" d="M192.7,321.7c0.2,1,0,2,0.3,3c0.2,1,0.8,1.9,1.3,2.7
	c1.4,2.1,2.7,4.2,4.1,6.3c0.5,0.7,1,1.5,1.9,1.7c1.1,0.2,2.1-0.7,2.4-1.8c0.3-1.1,0-2.2-0.2-3.2c-0.3-1.1-0.6-2.2-0.3-3.2
	c0.2-0.9,0.8-1.7,1.3-2.5c1.1-1.8,1.8-3.9,1.5-5.9c-0.5-3.1-3.2-5.3-6.1-6.4c-0.9-0.3-1.8-0.6-2.7-0.5c-1.6,0.1-3,1.1-3.7,2.5
	c-0.8,1.4-0.9,3.1-0.5,4.6C192.1,319.8,192.5,320.7,192.7,321.7z"/>
<path fill="none" stroke="#E1E1E1" stroke-miterlimit="10" d="M352.3,334.1c-0.2-1,0.6-2.2,0-3c-0.3-0.4-0.8-0.5-1.3-0.6
	c-0.7-0.2-1.7-0.3-2,0.4c-0.2,0.3-0.1,0.7,0,1.1c0.1,0.4,0.2,0.8,0.2,1.3c0.2,1,0.4,2,1.2,2.6c0.8,0.6,2.2,0.2,2.2-0.8
	C352.6,334.7,352.4,334.4,352.3,334.1z"/>
<path fill="none" stroke="#E1E1E1" stroke-miterlimit="10" d="M377.5,123.6c-2.7-1.2-5.3,1.6-7.9,3.1c-2.6,1.5-5.7,1.7-8.6,2
	c-3,0.3-6.1,1-8.5,2.8s-3.8,5.3-2.6,8c1.3,2.7,4.5,3.8,7.1,5.2c3.4,1.7,6.4,4.4,8.3,7.8c0.2,0.3,0.4,0.7,0.4,1
	c0.1,0.7-0.3,1.3-0.7,1.8c-2.2,3.7-2.8,8.7-0.2,12.1c0.8,1,1.9,1.9,2.7,2.9c1.6,2,2.2,4.7,2.9,7.2c1.7,5.8,4.3,11.2,6.9,16.6
	c1,2.1,2,4.2,3,6.3"/>
<path fill="none" stroke="#E1E1E1" stroke-miterlimit="10" d="M378.4,30.5c-4.6,3.9-6.9,10.3-5.9,16.2c0.3,1.5,0.7,3.2,0,4.6
	c-0.3,0.7-0.9,1.3-1.4,1.9c-2.5,3.9,1.6,10.1-1.8,13.2c-0.6,0.5-1.3,0.8-1.7,1.5c-1.1,1.8,1.4,4.3,0.5,6.2c-0.3,0.8-1.1,1.3-1.4,2
	c-0.3,0.6-0.2,1.3-0.1,2c0.3,2.1-1,5.2,0.8,6.2c3.8,2,8.7-1.6,12.3,0.7"/>
<path fill="none" stroke="#E1E1E1" stroke-miterlimit="10" d="M376.3,3c-1.5,6.2-1,12.8-3.1,18.8c-0.4,1.2-2.6,0-3.7,0.7
	c-0.5,0.3-0.7,0.9-0.8,1.4c-1.2,5.1,1,11.2-2.4,15.1c-0.6,0.7-1.3,1.2-1.8,1.9c-0.6,0.9-1,1.9-1.3,2.9c-1.2,3.9-2.5,7.8-3.7,11.7
	c-0.8,2.6-1.8,5.4-4.1,6.9c-2.2,1.5-5.2,1.4-7.4,2.9c-4.9,3.4-3.3,12.2-8.3,15.4c-1.7,1-4,1.3-5.1,2.9c-1.9,2.7,0.9,6.6-0.2,9.7
	c-0.7,1.8-2.5,2.9-3.6,4.5c-2,2.8-1.4,6.7-0.4,10.1c0.6,1.9,1.3,4,3,5.2c1.5,1.1,3.5,1.2,5.1,2.1c4.1,2.2,4.9,8.7,9.4,10.1
	c2.3,0.7,4.7-0.3,6.9-1.2c3.9-1.7,7.9-3.4,11.4-5.7c2.7-1.8,5.2-3.9,8.3-4.7c4.8-1.2,10.5,1,14.7-1.9"/>
<path fill="none" stroke="#E1E1E1" stroke-miterlimit="10" d="M-5.6,19c0.2,1.8,2.2,2.8,3.6,4c2.3,2,2.8,5.3,3.2,8.4
	c1,8.4,1.5,16.8,1.4,25.2c0,2.7-0.1,5.4,0.4,8.1c0.7,3.7,2.4,7.2,3.4,10.8c1.9,7,1.3,14.3,0.7,21.5c-0.7,7.9-1.4,15.7-2,23.6
	c-0.7,8.7-1.6,17.7-5.8,25.4c-1.4,2.6-3.2,5.6-2.1,8.3c0.3,0.7,0.8,1.4,0.9,2.1c0.1,1-0.6,1.9-1.3,2.7c-1.7,1.8-3.7,3.2-5.9,4.2"/>
<path fill="none" stroke="#E1E1E1" stroke-miterlimit="10" d="M63.9-16C63,13,59.8,41,61,70c0.5,12,8,23.9,9,36c0.7,8,0.3,16,1,24
	c0.5,6.1,0.8,12.2,7,16c8.8,5.4,11,18.2,21.2,21.1c1.8,0.5,4-0.5,5.2-2c2.6-3,2.2-5.4,5.1-6.7c3.2-1.4,2.3-5.1,5.3-7.1
	c0.8-0.5,2.5-0.3,3.3-0.9c3.5-2.7,3.2-8.4,1.8-12.5c-0.7-2-2-3.9-2.5-6c-2.4-9.9,11-18.5,8.6-28.4c-0.1-0.4-0.2-0.8-0.5-1.1
	c-1-0.9-2.5,0.4-3.2,1.6c-1.8,3.2-3.1,6.8-5.6,9.5c-5.1,5.6-14.4,6.2-20.9,2.3c-8.3-5.1-11.6-15.4-14.2-24.8c-1-3.6-2-7.3-3-10.9
	c-0.9-3.2-1.8-6.5-1.7-9.8c0.1-5.9,3.4-11.7,8.5-14.7c1.1-0.7,2.4-1.2,3.4-2.1c1.3-1.1,2.1-2.7,3-4.2c2.9-5,5.3-11.5,10.7-13.7
	c5.3-2.2,9.6-5.7,12.4-10.6c1.9-3.3,3.9-6.9,3.8-10.7c-0.1-1.8-0.6-3.7,0-5.3c0.6-1.7,2.4-0.8,4.2-1.1c4.3-0.8,1.5-8.7,2.2-13.1
	c0.1-0.5,0.2-1,0.5-1.3c0.4-0.4,1-0.3,1.6-0.2c5.3,0.7,10.3,2.8,14.5,6c5.3,4.1,11,12.2,17.1,9.4c4.8-2.1-1.9-10.6,1-14.9
	c1.4-2,4.1-2.5,6.5-2.7c5.1-0.6,10.2-1.2,15.3-1.8c2.3-0.3,4.6-0.5,6.9-0.3c3.2,0.3,6.2,1.5,9.1,2.7c6.8,2.8,17.7,11,19.4,10.6
	c2.8-0.6,4.9-12.3,2.9-18.3"/>
<path fill="none" stroke="#E1E1E1" stroke-miterlimit="10" d="M74.3-15.8c-2,2-2,5.1-1.9,7.9c0,4.7-0.3,9.3-1,13.9
	c-0.5,3.1-1.1,6.2-0.9,9.4c0.1,1.7,0.5,3.5,0.4,5.2c-0.1,2.2-0.8,4.3-1.3,6.4c-1.2,4.9-1.2,10-0.1,14.9c0.2,0.9,0.5,1.8,1.2,2.3
	c0.9,0.6,2.1,0.4,3-0.2c0.9-0.6,1.5-1.5,2.1-2.3c2.4-3.3,5.7-6.2,9.7-6.7c1.1-0.1,2.1-0.1,3.2-0.4c3.5-1.1,4.5-5.6,7.6-7.5
	c2.1-1.3,5.2-1.4,6.1-3.7c0.6-1.5-0.1-3.2-0.5-4.8c-0.9-3.9,0.5-7.9,1.9-11.6c0.9-2.3,1.7-4.7,3-6.9c0.3-0.6,0.7-1.2,0.9-1.8
	c0.1-0.6,0-1.2,0.1-1.9c0.2-4.3,5.9-7.4,4.8-11.6"/>
<path fill="none" stroke="#E1E1E1" stroke-miterlimit="10" d="M81.1-14.2c0.8,4.5,0.4,9.1-1.1,13.4c-0.5,1.6-1.2,3.3-0.5,4.8
	c0.2,0.4,0.5,0.9,0.5,1.3c0,0.8-0.8,1.2-1.3,1.9c-1.1,1.5,0.1,3.7-0.5,5.5c-0.2,0.6-0.7,1.2-0.9,1.8c-0.3,0.9-0.1,1.9,0,2.8
	c0.5,3.6-1.8,7.4-0.5,10.8c0.4,0.9,2,0,2.6-0.8s0.9-1.8,1.6-2.6c2.2-2.5,7-1.1,8.8-3.9c0.8-1.2,0.6-2.8,0.6-4.3
	c-0.1-6.2,2.8-12,5.6-17.4c0.5-1,1.1-2,1.9-2.8c0.8-0.8,2-1.3,2.5-2.3c0.3-0.7,0.4-1.6,0.9-2.1c0.4-0.4,1-0.5,1.6-0.7
	c2.1-0.8,3.1-3.6,2-5.5"/>
<path fill="none" stroke="#E1E1E1" stroke-miterlimit="10" d="M85.3-12.7c-0.1-0.3,0.4-0.7,0.6-0.5c1.6,2.4,0.7,5.7,0.2,8.6
	c-0.4,2.1-1.7,5.4,0.3,6.2c0.5,0.2,1-0.6,1.1-1.2c0.1-0.6,0.1-1.1,0-1.7c-0.2-3.1,1-6.3,3.2-8.6c1.7-1.8,4.1-3.2,4.7-5.6"/>
<path fill="none" stroke="#E1E1E1" stroke-miterlimit="10" d="M131.2-14.8c0.6,1.6,1.4,3.1,2.7,4.3c2.1,1.8,5,2.3,7.5,3.4
	c3,1.3,5.9,3.7,9.2,3.5c1.2-0.1,2.6-0.8,2.7-2c0.1-1.1-0.9-1.9-1.4-2.8c-1.2-2.2,0.2-5.9-2-7.1c-0.3-0.2-0.6-0.2-0.9-0.3"/>
<path fill="none" stroke="#E1E1E1" stroke-miterlimit="10" d="M246.6-15.7c-1.3,2.2-1,5-0.1,7.4c0.9,2.4,2.5,4.5,3.5,6.8
	c1.6,3.3,2.2,6.9,3.5,10.2c2.2,5.6,6.2,10.5,11.3,13.8c5.3,3.4,11.6,7.9,17.7,6.3c2.2-0.6,1.7-4.2,1.1-6.4c-0.7-2.2-1.9-4.3-2.1-6.6
	c-0.5-4.3,2.4-8.6,1.6-12.9c-0.1-0.6-0.3-1.3-0.7-1.7c-0.4-0.4-1.1-0.6-1.6-0.8c-5.5-1.7-11.1-3.5-15.6-7c-4.5-3.5-7.9-9.2-6.8-14.9
	"/>
<path fill="none" stroke="#E1E1E1" stroke-miterlimit="10" d="M320.8,46.4c-0.1-0.2-0.3-0.3-0.5-0.4c-3-2.2-6.1-4.4-9.1-6.6
	c-0.4-0.3-0.8-0.6-1.3-0.6c-0.8-0.1-1.4,0.5-2.1,0.9c-2.9,1.5-6.9-3.4-9.5-1.4c-2.5,1.9-0.5,6.4,0.6,9.3c1.2,3,3,5.6,4.8,8.2
	c1.2,1.8,2.6,3.7,4.6,4.5c2,0.8,4.8,0.1,5.4-2c0.2-0.8,0.1-1.7,0.2-2.5c0.1-1.4,0.9-2.6,1.9-3.7c0.9-1,1.9-1.8,3-2.4
	c0.6-0.4,1.3-0.7,1.8-1.3C321,47.9,321.2,47,320.8,46.4z"/>
<path fill="none" stroke="#E1E1E1" stroke-miterlimit="10" d="M311.7,42.3c0.1,0,0.3,0.1,0.4,0.2c0.6,0.6,0.8,1.6,0.5,2.4
	s-0.8,1.5-1.4,2.2c-0.4,0.5-0.8,1-1.4,1.2c-0.7,0.2-1.5-0.1-2-0.6s-0.9-1.2-1.2-1.9c-0.1-0.1-0.1-0.3-0.1-0.4c0-0.2,0.3-0.4,0.4-0.5
	c1.3-0.7,2.6-1.5,3.8-2.2C311.1,42.4,311.4,42.2,311.7,42.3z"/>
<path fill="none" stroke="#E1E1E1" stroke-miterlimit="10" d="M269.5,7.2c0.1,0.3,0,0.7,0.1,1c0.2,1.2,2.1,1.2,2.9,2.2
	c0.7,0.7,0.6,1.8,0.5,2.8c0,0.2,0,0.3-0.1,0.5c-0.1,0.2-0.4,0.2-0.6,0.2c-1.2,0-2.2-0.9-3.2-1.6c-1.1-0.7-2.3-1.1-3.3-1.7
	s-2.1-1.6-2.3-2.8c-0.1-0.5,0-1,0.4-1.3c0.7-0.5,1.6,0,2.4,0.1c0.6,0.1,1.2-0.1,1.7-0.1C268.7,6.4,269.3,6.7,269.5,7.2z"/>
<path fill="none" stroke="#E1E1E1" stroke-miterlimit="10" d="M110.7,139.6c-0.4-0.7-0.9-1.3-1.2-2.1c-0.7-2.2,1.1-4.5,0.6-6.7
	c-0.2-1.2-1.1-2.2-2.1-3c-3.2-2.7-7.3-3.7-11.4-4.7c-3.5-0.9-7.1-1.8-10.6-2.6c-1.1-0.3-2.3-0.5-3.3,0.1c-1,0.7-1.2,2.1-1.2,3.3
	c-0.3,5.7-5,13.7-0.4,17.2c3.4,2.5,6,3.7,9.7,5.7c1,0.5,2.2,0.3,2.9,1.2s1,2,1.4,3c1.1,2.3,4.6,6.5,5.9,4.3c0.7-1.1-1.2-2.4-1.1-3.6
	c0.1-1.3,1.2-2.6,2.5-2.3c0.6,0.1,1.1,0.5,1.6,0.3c0.5-0.2,0.6-1,0.9-1.5c1.1-2.4,6-0.9,6.9-3.4C112.3,143,111.6,141.1,110.7,139.6z
	"/>
<path fill="none" stroke="#E1E1E1" stroke-miterlimit="10" d="M93.8,140.7c0.2,0.2,0.2,0.5,0.3,0.8c0.2,0.6,0.9,0.9,1.4,1.2
	c0.9,0.4,1.9,0.9,3,0.9s2.2-0.7,2.3-1.7c0-0.2,0-0.4,0.1-0.6c0.3-0.7,1.4-0.3,2.2-0.4c0.8-0.1,1.3-1.1,1.4-1.9
	c0.2-1.9-1.5-3.2-2.5-4.8c-0.8-1.2,0.7-3,0.3-4.4c-0.7-2.1-4.3-0.4-6.5-1c-1.5-0.4-2.7-1.7-4.2-1.7c-0.3,0-0.6,0-0.8,0.2
	c-0.5,0.3-0.7,1-0.5,1.6s0.4,1.1,0.7,1.6c0.5,1.1,0.7,2.4,0.6,3.7c-0.2,1.3-0.7,2.5-0.4,3.8c0.2,1.1,1,2,2,2.4
	C93.3,140.4,93.6,140.5,93.8,140.7z"/>
<path fill="none" stroke="#E1E1E1" stroke-miterlimit="10" d="M97.6,135.6c0-1.2-1-3.8-1.9-2.9c-0.4,0.4,0,1.2-0.1,1.7
	s0.1,1.2,0.6,1.6C96.7,136.4,97.6,136.2,97.6,135.6z"/>
<path fill="#EAEAEA" stroke="#D6D6D6" stroke-miterlimit="10" d="M134.8,371.3c-0.1-1.3,0.1-2.6-0.9-3.3c-0.4-0.3-1-0.4-1.3-0.8
	c-0.7-0.8-0.3-2-0.5-3c-0.4-2.1-3.4-2.6-4.3-4.6c-0.1-0.3-0.2-0.6-0.4-0.9c-0.3-0.4-0.8-0.6-1.3-0.7c-1.6-0.6-3.5-1.1-4.8-0.1
	c-0.4,0.3-0.7,0.6-1.1,0.6c-0.4,0-0.7-0.4-1.1-0.4c-0.2,0-0.5,0.1-0.6,0.3c-1.8,1.4-2.5,3.6-4.6,4.4c-0.7,0.2-2,0.2-2.7,0.5
	c-1.1,0.4-2,1.2-2.9,2c-2.2,2-2.3,1.8-4.2,4.1c-0.5,0.6-2,4.3-2.4,4.9c-0.6,0.7-1.9,1-2.3,1.8c-0.8,1.2-0.9,3-1.4,4.3
	c-0.5,1.3-1.5,2.2-2,3.5c-0.5,1.3-1.1,2.6-1.2,3.9c-0.3,4,3.1,8.1,6.7,9.9c0.6,0.3,4,2.2,4.2,2.7c1.3,2.3,2.4,2.5,5.2,2
	c0.5-0.1,2.8,0.2,3.6,0.7c1.7,1,3.8-0.4,5.7,0.1c1.3,0.3,2.6,1.3,3.8,0.6c0.4-0.2,1.3-0.7,1.5-1.1c1.7-3.9,3-7.7,5.4-11.2
	c2.2-3.2,3.2-7.1,3.9-10.9C135.1,377.5,135,374.4,134.8,371.3z"/>
<path fill="#EAEAEA" stroke="#D6D6D6" stroke-miterlimit="10" d="M132.7,286.8c-0.4-0.3,0.2-1,0.1-1.5c-0.1-0.6-0.1-1.1-0.1-1.7
	c0.1-0.7-0.2-1.5-0.9-1.5c-0.5,0-0.8,0.5-1.2,0.7c-0.6,0.3-1.3,0.1-2,0.2c-0.7,0-1.5,0.5-1.4,1.1c0.1,0.4,0.4,0.6,0.6,0.9
	c0.9,1.2-0.1,3.1,0.7,4.5c0.4,0.6,1,0.9,1.6,1.2c0.8,0.4,1.6,0.7,2.4,0.8c0.7,0,1.4-0.2,2-0.5c1-0.3,2-0.8,2.3-1.8
	c0.3-1-0.4-2-1.2-2.8c-0.2-0.2-0.4-0.4-0.6-0.4c-0.2,0-0.3,0-0.5,0.1C134.2,286.3,133.4,287.2,132.7,286.8z"/>
<path fill="#EAEAEA" stroke="#D6D6D6" stroke-miterlimit="10" d="M135.9,274.5c0.6,0.1,1.2-0.3,1.5-0.8c0.3-0.5,0.4-1.2,0.5-1.8
	c0.2-0.8,0.3-1.9-0.4-2.4c-0.4-0.3-1-0.3-1.5-0.1s-0.8,0.6-1.2,1c-0.6,0.8-1.2,1.9-0.7,2.8c0.2,0.3,0.5,0.5,0.7,0.8
	C135.2,274.2,135.5,274.4,135.9,274.5z"/>
<path fill="#EAEAEA" stroke="#D6D6D6" stroke-miterlimit="10" d="M138.3,263.5c-0.7-0.2-1.7,0-1.8,0.8c-0.1,0.7,0.4,1.6,1.1,1.8
	c0.7,0.2,1.1-1.2,1.1-1.9c0-0.2,0-0.4-0.2-0.6C138.5,263.6,138.4,263.5,138.3,263.5z"/>
<path fill="#EAEAEA" stroke="#D6D6D6" stroke-miterlimit="10" d="M139.7,257.2c0.1,0.3,0.2,0.5,0.4,0.7c0.4,0.3,0.9-0.1,1.2-0.4
	c0.9-1.1,1.5-2.9,0.7-4.1c-0.4-0.6-1.4-0.5-1.9,0c-0.5,0.4-0.8,1.2-0.8,1.9S139.5,256.5,139.7,257.2z"/>
<path fill="none" stroke="#D6D6D6" stroke-miterlimit="10" d="M132.3,282.4c1.7-2.3,1.3-5.6,2.5-8.3"/>
<path fill="none" stroke="#D6D6D6" stroke-miterlimit="10" d="M136.9,269.2c0.4-0.7,0.5-1.9,0.8-2.8"/>
<path fill="none" stroke="#D6D6D6" stroke-miterlimit="10" d="M138.3,263.5c0.4-0.7,0.5-1.6,0.7-2.3c0.2-0.8,0.4-2.9,1.1-3.3"/>
<path fill="none" stroke="#D6D6D6" stroke-miterlimit="10" d="M141.6,252.9c0.5-3.3,0.8-7.2,0-10.4c-0.2-1.1-0.6-2.3-1.3-3.2
	c-0.4-0.5-0.9-0.9-1.3-1.5c-0.9-1.4-0.7-3.2-0.8-4.8c-0.1-2.3-0.8-4.6-2-6.6c-0.9-1.4-1.7-4.3-2.1-5.2"/>
<path fill="none" stroke="#D6D6D6" stroke-miterlimit="10" d="M108.2,286.7c-0.9-1.8-0.3-4.1,0.7-5.9c1-1.8,2.3-3.5,2.8-5.4
	c0.4-1.6,0.3-3.2,0.5-4.8c0.5-5.9,4.1-11.3,4.4-17.2c0.1-2-0.2-4,0.4-5.9c0.5-1.5,1.5-2.8,2.2-4.2c1.4-2.6,1.8-5.6,1.6-8.5
	c-0.1-1.8-0.5-3.7,0.3-5.2c1-2,3.3-2.9,5.4-3.8c6.1-2.7,10.9-7.6,16.3-11.5c1.2-0.9,2.5-1.7,4-2.1c1.1-0.2,2.3-0.1,3.4-0.6
	c2-0.9,2.6-3.4,3.6-5.4c1.3-2.6,2.9-4.4,4.8-6.6c1.6-1.9,3.4-3.1,4.8-5.1c0.9-1.1,1.8-3,3.2-3.5c1.7-0.6,2.6-0.7,4.1-1.6
	c0.7-0.4,1.4-0.8,1.8-1.5"/>
<path fill="#EAEAEA" stroke="#D6D6D6" stroke-miterlimit="10" d="M152.2,274.4c0.2-0.1,0.2-0.3,0.3-0.5c0.1-0.5,0.3-1.1,0.4-1.6
	c0.3-1.1,0.5-2.6-0.4-3.3c-0.8-0.6-2.3-0.1-2.4,1c-0.1,0.5,0.1,1,0.3,1.4c0.3,0.8,0.6,1.6,1,2.4
	C151.4,274.2,151.8,274.7,152.2,274.4z"/>
<path fill="#EAEAEA" stroke="#D6D6D6" stroke-miterlimit="10" d="M157.3,279.3c0.2,0,0.5,0,0.7,0.1c0.1,0.1,0.2,0.3,0.2,0.4
	c0.3,1,0.1,2.1-0.6,2.9c-0.3,0.4-0.7,0.6-1,1c-0.9,1-0.9,3.7-2.2,3.4c-0.9-0.2-0.8-1.7-0.9-2.6s0-1.9,0.6-2.7
	c0.2-0.2,0.4-0.4,0.5-0.7c0.1-0.2,0.1-0.4,0.1-0.6C155,279.5,156.3,279.3,157.3,279.3z"/>
<path fill="none" stroke="#D6D6D6" stroke-miterlimit="10" d="M180.5,252.4c-0.3-5.5,5.7-9.6,6.5-15.1c0.4-2.8-0.6-5.6-0.4-8.3
	c0.2-1.6,0.8-3.1,1.2-4.7c1.1-3.5,1.5-7.3,1.3-11c-0.2-2.9-0.1-6.1-0.7-8.9c-0.9-4.9-2-9.3-2.6-14.3c-0.2-1.6-0.3-3.3,0.2-4.8"/>
<path fill="#EAEAEA" stroke="#D6D6D6" stroke-miterlimit="10" d="M221,253.4c-0.2-0.4-0.4-0.8-0.6-1.2c-0.1-0.2-0.8-0.4-0.9-0.3
	c-0.5,0.4-1.3,0.7-1.5,1.3c-0.1,0.4-0.3,0.8-0.2,1.2c0.1,0.4,0.4,0.9,0.8,1c0.5,0.1,1.3,0.4,1.8,0.3s0.7-0.8,0.8-1.3
	C221.3,254.1,221.1,253.7,221,253.4z"/>
<path fill="#EAEAEA" stroke="#D6D6D6" stroke-miterlimit="10" d="M271.7,244.3c0.4,1.1,1.1,2.9,2.2,2.5c1-0.3,1.3-1.8,1.1-2.9
	c-0.2-1.1-1.3-1.9-2.3-1.9c-0.3,0-0.6,0.1-0.8,0.3C271.3,242.8,271.5,243.6,271.7,244.3z"/>
<path fill="none" stroke="#D6D6D6" stroke-miterlimit="10" d="M182.4,112.8c1,0.3,2.7,0.3,3.6,1.1s1.6,1.9,2.5,2.7
	c0.9,0.8,2,1.5,3.2,1.7c0.6,0.1,1.3,0.1,1.8,0.5c0.6,0.4,0.8,1.1,1.3,1.6c1.1,1.5,3.1,1.9,5,2.2c0.2,0,0.3,0.1,0.5,0.1
	c1.6,0.3,3.1,0.5,4.7,0.9c3.5,0.9,7,2.6,10.6,2c1.2-0.2,2.3-0.7,3.4-0.8c1.2-0.1,2.5,0.1,3.2,1c0.5,0.6,0.8,1.6,1.6,1.9
	c0.5,0.2,1.1-0.1,1.7,0c1,0.1,1.8,0.9,2.3,1.8c1.3,1.8,2.6,3.9,4.7,4.5c0.9,0.3,1.9,0.2,2.9,0.3c2.6,0.4,3.8,3,5.8,4.6
	c0.6,0.5,1.5-0.5,2.2-0.4c0.7,0.1,1.1,0.7,1.9,0.8c1.3,0.3,2.2,1.4,3.3,1.9c0.9,0.4,1.8,0.4,2.7,0.7s1.8,1,1.8,1.9
	c0,0.4-0.2,0.9-0.2,1.3c-0.2,1.6,1.3,2.9,2.6,3.9c2.9,2.3,5.4,5.2,7.9,8c0.4,0.4,0.7,0.8,1,1.3c0.6,1.2,0.3,2.7,0.6,4
	c0.3,1.6,1.5,2.9,1.7,4.5c0.4,2.4-1.2,4.7-2.1,7c-0.9,2.4-1.1,5-0.5,7.5c0.4,1.5,1.9,3.6,2.6,5"/>
<path fill="none" stroke="#D6D6D6" stroke-miterlimit="10" d="M119.7,78.3c1.8-1.4,4.1-2.2,6.3-2.3c0.6,0,1.1,0,1.6-0.2
	c0.4-0.2,0.7-0.5,0.9-0.8c1.1-1.1,2.1-2.4,3.5-2.9c0.8-0.2,1.7-0.2,2.5-0.4c1.3-0.4,2.4-1.5,3-2.8c0.6-1.3,0.7-2.7,0.7-4.1
	c0-1.1,0-2.4,0.9-3c0.3-0.2,0.6-0.3,1-0.3c1.5-0.3,2.9-0.6,4.4-1c3.6-0.8,7.1-1.6,10.7-2.2c2-0.4,3.3-1,4.9-2.2
	c0.8-0.7,2-0.9,2.2-0.8c3.2,0.3,5,2.2,8.1,2.4c2.3,0.1,5.2-0.6,7,0.8"/>
<path fill="#EAEAEA" stroke="#D6D6D6" stroke-miterlimit="10" d="M146.5,78.1c0.6-0.2,1.2-0.6,1.3-1.2c0.1-0.5-0.4-1.1-0.8-1.3
	c-0.5-0.2-1.1-0.3-1.6-0.3c-0.4,0-0.9,0-1.2,0.1c-0.6,0.3-0.9,1-0.7,1.6c0.2,0.5,0.7,0.9,1.3,1C145.3,78.3,145.9,78.3,146.5,78.1z"
	/>
<path fill="#EAEAEA" stroke="#D6D6D6" stroke-miterlimit="10" d="M99,89c-0.4-0.4-0.8-0.7-1-1.2c-0.1-0.3-0.1-0.6-0.1-1
	c0.1-2.4,0.2-4.8,0.3-7.2c0-0.8,0.1-1.7,0.7-2.3c0.7-0.7,1.6-0.9,2.6-0.8c1.2,0.1,2.1,0.2,3.1,0.1c1.2-0.2,2.3,0,3.3-0.5
	c0.8-0.3,1.6-0.4,2.4-0.5c2.2-0.2,4.4-0.4,6.6-0.5c0.3,0,0.5,0,0.8,0c0.2,0.1,0.4,0.2,0.6,0.4c0.9,1,1.2,2.5,1.3,3.9
	c0.1,1.8,0.4,3.7-0.4,5.3c-0.4,0.9-1.9,0.3-2.5-0.5c-0.6-0.8-0.9-1.8-1.8-2.3c-0.9-0.6-2.3-0.2-2.8,0.8c-0.3,0.5-0.3,1.2-0.4,1.8
	c-0.3,2.7-1.3,5.3-2.4,7.8c-0.2,0.6-0.5,1.2-1.1,1.4c-0.4,0.2-0.8,0.2-1.2,0.2c-2,0-4.2-0.1-5.7-1.5C100.5,91.5,100,90.1,99,89z"/>
<path fill="#EAEAEA" stroke="#D6D6D6" stroke-miterlimit="10" d="M178.2,57.7c-0.1,0.1-0.1,0.2-0.2,0.2c-0.3,0.6-0.6,1.2-0.5,1.9
	c0.1,1,1,1.7,1.8,2.4c0.8,0.7,1.5,1.6,2.3,2.4c0.8,0.7,1.7,1.4,2.8,1.6c0.6,0.1,1.4,0,1.7-0.6c0.2-0.4,0.2-0.8,0.1-1.2
	c-0.2-1.8-0.6-3.6-1.7-5c-0.2-0.2-0.4-0.5-0.6-0.7c-0.3-0.2-0.7-0.4-1.1-0.5c-1.4-0.5-2.8-0.9-4.3-0.7
	C178.4,57.6,178.3,57.6,178.2,57.7z"/>
<path fill="#EAEAEA" stroke="#D6D6D6" stroke-miterlimit="10" d="M182.6,112c-0.2-0.6-1-0.7-1.5-1.1c-0.5-0.3-0.9-0.8-1.4-0.9
	c-0.6-0.1-1.1,0.2-1.6,0.5c-1.1,0.5-2.8,0-3.5,1c-0.2,0.3,0.3,0.7,0.5,1c0.3,0.5,0.6,1,1.1,1.2c0.3,0.1,0.7,0.2,1,0.2
	c1.3,0,2.6-0.1,3.8-0.3c0.4-0.1,0.8-0.2,1.2-0.4C182.5,112.8,182.7,112.4,182.6,112z"/>
<path fill="none" stroke="#D6D6D6" stroke-miterlimit="10" d="M184.7,59.4c2.6-0.5,5.4-0.5,7.6,0.9c3.7,2.3,5.1,6.4,8.4,9.3
	c2.8,2.4,6.4,4.2,8.4,7.2c1.1,1.7,1.3,4,2.9,5.2c0.6,0.5,1.4,0.7,1.9,1.3c0.6,0.7,0.8,1.7,1.2,2.5c0.9,1.5,2.8,2.1,4.3,2.9
	c2.6,1.3,4.7,3.5,6.7,5.7c2.6,2.8,5.3,5.6,6.7,9.2c2,5.1,1.2,10.9,2.5,16.3c0.3,1.1,0.7,2.2,1.7,2.6c0.5,0.2,1,0.2,1.4,0.5
	c0.8,0.6,0.5,1.9,0.9,2.8c0.2,0.6,0.7,1,1.2,1.4c1.8,1.6,3.6,3.2,5.5,4.8c2.3,2,4.6,4,7.4,5.1c1.7,0.7,3.7,1,5.1,2.2
	c1.6,1.4,2.1,3.6,3.5,5.2c1.7,2,4.4,2.6,6.6,4.1c3.7,2.5,5.4,7.4,4.1,11.6c-0.3,0.9,0.8,1.9,1.5,2.5c0.3,0.2,0.6,0.3,0.8,0.6
	c0.4,0.6,0.1,1.4,0.2,2.1c0.1,0.8,0.7,1.6,1.5,1.9c1.1,0.4,2.3-0.2,3.4,0.1c1.1,0.3,1.9,1.5,2.1,2.6c0.2,1.2,0.1,2.3,0,3.5
	s0.1,2.4,0.8,3.4c0.4,0.6,1,1,1.6,1.4c3.9,2.7,7.6,5.7,11.2,8.8"/>
<path fill="#EAEAEA" stroke="#D6D6D6" stroke-miterlimit="10" d="M327.7,119.9c-0.4-0.5-1-0.6-1.6-0.6c-0.6,0-0.9,0-1.4-0.2
	c-0.3-0.1-1-0.3-1.2-0.1c-0.1,0.1-0.2,1.4,0.2,1.8c0.2,0.2,0.9,1,1.1,1.2c0.2,0.2,2,1.6,2.6,1.7c0.3,0.1,0.7,0,0.9-0.1
	c0.3-0.2,0.4-0.6,0.4-1c0-0.4-0.1-0.7-0.3-1.1c-0.1-0.3-0.2-0.6-0.3-0.9C328,120.4,327.9,120.1,327.7,119.9z"/>
<path fill="#EAEAEA" stroke="#D6D6D6" stroke-miterlimit="10" d="M321.2,5.7c-0.6-0.5-1.5-0.4-2.2-0.3c-0.7,0.1-1.4,0.2-2.2,0.4
	c-0.1,0-0.2,0-0.3,0.1c-0.2,0.1-0.3,0.5-0.2,0.7c0.1,0.2,0.4,0.4,0.6,0.5c1.1,0.6,2.3,0.8,3.6,0.6c0.2,0,0.4-0.1,0.6-0.2
	C321.7,7.2,321.7,6.2,321.2,5.7z"/>
<path fill="#EAEAEA" stroke="#D6D6D6" stroke-miterlimit="10" d="M344.6,28.5c0,0.3,0,0.5,0.1,0.8c0,0.5,0,1.1,0.1,1.6
	c0.2,0.5,0.6,1,1.1,0.9c0.4-0.1,0.8-0.5,0.9-0.9c0.4-1.3,0.2-3.4-1.1-3.8C345.1,26.9,344.7,27.8,344.6,28.5z"/>
<path fill="none" stroke="#D6D6D6" stroke-miterlimit="10" d="M221,55.7c0.7,1.1,2.3,1.3,2.8,2.4c0.3,0.7,0.1,1.5,0,2.3
	c-0.1,1.4,0.5,2.8,1.5,3.7c0.6,0.5,1.2,0.9,1.6,1.5c0.4,0.6,0.4,1.3,0.5,2c0.1,1.3,0.3,2.6,0.6,3.9c0.2,0.7,0.3,1.5,0.8,2.1
	c0.4,0.4,0.8,0.7,1.3,1c1.3,0.8,2.7,1.8,3.1,3.2c0.2,0.8,0.2,1.7,0.7,2.3c0.3,0.3,0.7,0.5,1,0.8c0.8,0.8,0.7,2.1,0.6,3.2
	c-0.2,1.6-0.5,3.3-0.7,4.9c-0.1,0.8-0.2,1.6-0.6,2.3c-0.2,0.4-0.5,0.8-0.7,1.3c-0.3,0.6-0.4,1.2-0.5,1.9c-0.4,1.6-1.1,3.3-2.4,4.3"
	/>
<path fill="none" stroke="#D6D6D6" stroke-miterlimit="10" d="M182.7,79.9c0.5,0.4,0.2,1.2,0.3,1.9c0.2,1.3,1.9,1.6,3.1,2.2
	c1.5,0.8,2.6,2.3,4.2,2.7c1,0.3,2.1,0.1,2.9,0.6c0.6,0.4,1,1.1,1.4,1.7c0.4,0.6,1.1,1.2,1.8,1.1c0.5,0,1-0.4,1.4-0.6
	c1.8-1.1,4.1-1.3,6.2-0.8s3.9,1.7,5.5,3.2c0.6,0.5,1.2,1.1,2,1.4c2.1,0.8,4.4-1.3,6.6-0.8c1.8,0.4,2.8,2.3,3.9,3.9
	c2.4,3.6,6.6,6.1,10.8,7"/>
<path fill="#EAEAEA" stroke="#D6D6D6" stroke-miterlimit="10" d="M200.3,79.9c0.1-0.4-0.1-0.8-0.3-1.2c-0.3-0.7-0.7-1.4-1.3-1.7
	c-0.6-0.4-1.4-0.4-2.1-0.3c-0.1,0-0.3,0.1-0.4,0.1c-0.5,0.3-0.4,0.9-0.2,1.4c0.2,0.5,0.5,1.1,0.8,1.6c0.2,0.3,0.5,0.7,0.9,0.9
	c0.5,0.3,1.1,0.4,1.6,0.2C199.7,80.8,200.2,80.4,200.3,79.9z"/>
<path fill="#EAEAEA" stroke="#D6D6D6" stroke-miterlimit="10" d="M201.6,79.5c0.5,0.2,1,0.7,1.4,0.4c0.6-0.4,0.3-1.5,0-2.1
	s-1.2-1.6-1.7-1.1C200.7,77.2,201.3,79.4,201.6,79.5z"/>
<path fill="none" stroke="#D6D6D6" stroke-miterlimit="10" d="M156.9-12.7c0.6,1.7,2.2,2.8,3.4,4.1c1.3,1.3,2.2,2.9,3.1,4.5
	c4.7,7.9,9.1,16,13.4,24.1c1.3,2.4,2.5,4.9,3.4,7.4c2.4,7.1,2.1,15.4,6.5,21.5c1.2,1.7,2.7,3.1,3.9,4.8c1.1,1.7,1.9,3.8,1.4,5.8"/>
<path fill="none" stroke="#D6D6D6" stroke-miterlimit="10" d="M236.6-13.5c4,11.7,4.6,24.3,5.2,36.7c0.4,7.7,0.7,15.7-2.3,22.8
	c-1.6,3.8-4.1,7.2-7.2,9.9c-0.9,0.8-1.9,1.5-2.5,2.5c-1.4,2.3-0.8,5.5-2.4,7.7"/>
<path fill="none" stroke="#D6D6D6" stroke-miterlimit="10" d="M52.4,187.7c-3.1-0.1-6.2-0.2-9.3-0.4c-1.3-0.1-2.6-0.1-3.9-0.6
	c-0.6-0.3-1.3-0.6-1.9-0.6c-0.6,0.1-1.1,0.5-1.6,0.9c-2.6,2.3-5.3,5.3-8.8,5.5c-2.5,0.1-4.8-1.3-7.1-2.1c-2.6-0.9-5.4-1.2-8.1-0.7
	c-0.9,0.2-1.9,0.4-2.8,0c-1.1-0.5-1.5-1.7-1.7-2.9c-0.2-1.2-0.2-2.4-0.7-3.4c-0.3-0.5-0.7-0.9-0.8-1.5c-0.1-0.5-0.1-1-0.4-1.4
	c-0.2-0.2-0.5-0.3-0.8-0.4c-1.9-0.4-3.9-0.9-5.9-0.6c-1.9,0.3-4.5,0.3-5.4,2.1c-0.1,0.2,0.1,0.5,0.1,0.8"/>
<path fill="#7BBCEB" stroke="#4E9BD7" stroke-miterlimit="10" d="M202.8,167.8c-1.4-0.3-2.2,1-3.6,0.9c-0.9-0.1-2-0.5-2.9-0.8
	c-2.1-0.6-3.3,0.6-5.5,0.6c-0.8,0-2.4-0.4-3.2-0.2c-0.4,0.1-0.7,0.4-1,0.6c-2.2,1.4-5.2,0.5-7.5,1.6c-1.7,0.8-2.7,2.6-3.4,4.3
	c-0.7,1.7-1.3,3.6-2.4,5c-0.4,0.4-0.8,0.8-1.1,1.3c-1,1.6-1,4.3-0.1,5.9c0.6,1,1.3,0.6,1.7,1.7c0.1,0.3,0.1,0.6,0.3,0.8
	c0.4,0.7,1.2,1,2,1c1.9,0,3.7-1,5.1-2.2c1.4-1.2,2.6-2.6,4.3-3.2c1.8-0.6,3.9-0.3,5.5-1.3c1.4-0.9,2.2-2.5,3.2-3.8
	c1.3-1.5,3.1-2.6,5-2.9c1.1-0.2,2.2-0.2,3.2-0.8c0.8-0.5,1.3-1.3,1.6-2.1c0.5-1.2,0.7-2.6,0.5-3.9
	C204.5,169.2,203.9,168,202.8,167.8z"/>
<path fill="none" stroke="#4E9BD7" stroke-miterlimit="10" d="M204.8,171.4c2.7,0.9,5.9-0.4,8.3,1.1c0.9,0.6,1.6,1.5,2.6,1.6
	c0.8,0.1,1.6-0.3,2.4-0.3c2.4,0,3.6,3.1,5.8,3.7c1.3,0.4,2.6-0.1,4-0.2c3.9-0.4,9.7,2.3,13,4.5c3.3,2.2,4.9,4,8.8,3.2
	c2.8-0.5,3.9-2.5,6.6-1.4c0.8,0.3,3.4,1.4,4.2,1.8c2.7,1.6,6,0.6,9.2,0.8c3.9,0.3,7.6,1.7,11.5,1.8c5,0.2,10.1-1.8,15-0.9
	c3.8,0.7,5.8,5.3,6.7,9c0.2,0.7,0.3,1.5,0.8,2.1c0.3,0.4,0.8,0.7,1.3,1c2,1.2,3.8,2.8,5.2,4.6c0.6,0.7,1.1,1.5,1.2,2.4
	c0.1,1.3-0.8,2.4-1.7,3.3c-0.2,0.2-0.4,0.4-0.4,0.7c0,0.2,0,0.4,0.1,0.5c1.1,2.9,3.9,4.6,6.5,6.3c1,0.6,1.9,1.3,2.5,2.3
	c0.8,1.3,0.7,2.9,0.3,4.4s-1,2.9-1.3,4.3c-0.6,3.3,0.6,6.8,3.1,9c1.7,1.4,3.8,2.2,5.4,3.6c1.9,1.7,2.9,4.2,3.6,6.7
	c1.3,4.7,1.4,9.7,0.5,14.4c-0.4,1.9-0.9,3.9-0.6,5.8c0.1,0.7,0.3,1.4,0.2,2.2c-0.1,0.7-0.3,1.3-0.6,2c-1.8,5.1-0.2,10.9-1.7,16.2
	c-0.4,1.3-0.9,2.6-1.3,3.9c-0.5,1.8-0.6,3.8-0.4,5.6c0.2,1.7,0.6,3.4,0.6,5.1c0,1.9-0.5,3.8-0.6,5.7c-0.2,2.6,0.2,5.2,0.2,7.8
	c0,2.6-0.5,5.3-2.2,7.3c-0.9,1-2,1.7-3.2,2.4c-1.2,0.7-2.3,1.4-3.5,2.1c-1,0.6-2,1.2-2.6,2.2c-0.8,1.4-0.5,3-0.5,4.6s-0.5,3.4-2,3.9
	c-0.6,0.2-1.3,0.1-2,0.2c-1,0.2-1.6,1-2.3,1.7c-0.9,1-2.4,1.3-3.7,1.6c-0.6,0.2-1.3,0.3-1.8,0.6c-1.4,0.8-1.8,2.8-1,4.1
	c0.2,0.3,0.4,0.5,0.4,0.8c0.2,0.8-0.7,1.4-1.2,2.1c-0.9,1.2-0.6,2.9-0.6,4.4c-0.1,2.5-1.5,4.8-1.8,7.3c-0.2,2.6,0.9,5.2,0.5,7.8"/>
<path fill="none" stroke="#585858" stroke-miterlimit="10" stroke-dasharray="4,1" d="M345.1,139.7c-3.7,4.5,4.4,9.7,0.4,14.9
	c-1.7,2.2-3.9,3.5-4.7,6.3c-0.8,2.8,2.1,6.4,0.4,8.7c-1.7,2.3-7.8-1.9-8.6,0.9c-0.8,3.1,0.6,2.7-2.4,4.3c-1.1,0.6,1,2.9,0.1,3.7
	c-1.2,0.9-3.3-2.2-4.4-1.2c-1.5,1.4,1.4,4-0.2,5.1c-1.4,1-6-0.3-7,1.1c-0.8,1.1,2.3,2.3,1.9,3.6c-0.3,1-2.1,0.3-3,0.5
	c-0.4,0.1-0.8,0.1-1.2,0.2c-1,0.4-0.4,0.6-0.8,1.4c-0.2,0.4,0.2,1-0.2,1.3c-1.7,1.7-0.6,1.8-1.7,2.5c-4.7,3.4-12.8-6.8-17.1-2.9
	c-2,1.8,1.3,4.7,3.3,6.7c1,1,0.4,2.7,1,4c2.8,5.7,5.9,10.1,10,16c2.3,3.4-3.1,7.1-1,11c7.6,14.2,7.9,27.5,11,42.7
	c1.4,6.9,1.3,14.3,0,21.2c-1.7,9.1-5.7,18-5,27c0.5,6.1,4.5,12.1,3,19c-1.5,7.1-8,11-9,17.9c-0.1,0.7-0.6,1.3-0.7,2
	c-0.6,3.9,1,7.7,1,11.6c0,1.2-0.1,2.5,0.6,3.5"/>
<path fill="none" d="M240.7,348.1c4.5-15.1,4.9-31.1,5.4-46.9"/>
<text transform="matrix(8.834211e-02 -0.9961 0.9961 8.834211e-02 247.3036 326.5467)"><tspan x="0" y="0" fill="#7D7D7D" font-family="'Verdana-Italic'" font-size="7">1</tspan><tspan x="4.5" y="0" fill="#7D7D7D" font-family="'Verdana-Italic'" font-size="7" rotate="-1.2">0</tspan><tspan x="9" y="-0.1" fill="#7D7D7D" font-family="'Verdana-Italic'" font-size="7" rotate="-2.2">2</tspan><tspan x="13.5" y="-0.3" fill="#7D7D7D" font-family="'Verdana-Italic'" font-size="7" rotate="-2.9">0</tspan><tspan x="17.9" y="-0.5" fill="#7D7D7D" font-family="'Verdana-Italic'" font-size="7" rotate="-3.3">0</tspan></text>
<path fill="none" d="M166.4,295.4c1.8-4.2,7.2-5.7,11.1-8.2c1-0.7,5.6-2,6.9-2c2.3,0,4.7,0,7,0c2.4,0,4.8,0,7-1"/>
<text transform="matrix(0.8788 -0.4773 0.4773 0.8788 171.3778 293.4134)"><tspan x="0" y="0" fill="#7D7D7D" font-family="'Verdana-Italic'" font-size="7">1</tspan><tspan x="4.5" y="0.1" fill="#7D7D7D" font-family="'Verdana-Italic'" font-size="7" rotate="-0.5">0</tspan><tspan x="8.4" y="-0.1" fill="#7D7D7D" font-family="'Verdana-Italic'" font-size="7" rotate="11.4">8</tspan><tspan x="12.2" y="0.2" fill="#7D7D7D" font-family="'Verdana-Italic'" font-size="7" rotate="28.8">0</tspan><tspan x="16.1" y="2.3" fill="#7D7D7D" font-family="'Verdana-Italic'" font-size="7" rotate="28.8">0</tspan></text>
<text transform="matrix(1 0 0 1 8.6034 240.7961)"><tspan x="0" y="0" fill="#585858" font-family="'Verdana-Italic'" font-size="8">Stanton</tspan><tspan x="12.5" y="9.6" fill="#585858" font-family="'Verdana-Italic'" font-size="8">Peak</tspan></text>
<text transform="matrix(1 0 0 1 172.4691 317.0008)"><tspan x="0" y="0" fill="#585858" font-family="'Verdana-Italic'" font-size="8">Grey</tspan><tspan x="-2.5" y="9.6" fill="#585858" font-family="'Verdana-Italic'" font-size="8">Butte</tspan></text>
<text transform="matrix(1 0 0 1 61.6845 131.5261)"><tspan x="0" y="0" fill="#585858" font-family="'Verdana-Italic'" font-size="8">Virginia</tspan><tspan x="11.2" y="9.6" fill="#585858" font-family="'Verdana-Italic'" font-size="8">Peak</tspan></text>
<text transform="matrix(1 0 0 1 304.9729 141.512)"><tspan x="0" y="0" fill="#585858" font-family="'Verdana-Italic'" font-size="8">Virginia</tspan><tspan x="12.3" y="9.6" fill="#585858" font-family="'Verdana-Italic'" font-size="8">Pass</tspan></text>
<text transform="matrix(1 0 0 1 184.0929 152.536)"><tspan x="0" y="0" fill="#7BBCEB" font-family="'Verdana-Italic'" font-size="8">Return</tspan><tspan x="0" y="9.6" fill="#7BBCEB" font-family="'Verdana-Italic'" font-size="8">Lake</tspan></text>
<path fill="none" d="M248.3,17.4c1.3,6.8,6.2,12.9,12.6,15.6c5.4,2.3,11.5,2.3,17,4.4c5.5,2,9,5.1,9,11.7"/>
<text transform="matrix(0.9384 0.3457 -0.3457 0.9384 259.0865 35.1192)"><tspan x="0" y="0" fill="#7D7D7D" font-family="'Verdana-Italic'" font-size="7">1</tspan><tspan x="4.8" y="-0.1" fill="#7D7D7D" font-family="'Verdana-Italic'" font-size="7" rotate="-7.5">1</tspan><tspan x="9.3" y="-0.7" fill="#7D7D7D" font-family="'Verdana-Italic'" font-size="7" rotate="-9.3">0</tspan><tspan x="13.5" y="-1.4" fill="#7D7D7D" font-family="'Verdana-Italic'" font-size="7" rotate="-5.5">0</tspan><tspan x="17.5" y="-1.9" fill="#7D7D7D" font-family="'Verdana-Italic'" font-size="7" rotate="3.2">0</tspan></text>
<path fill="none" d="M157,156.5c1.4-19,4.6-36.9,8-56"/>
<text transform="matrix(0.1293 -0.9916 0.9916 0.1293 161.1636 140.7022)"><tspan x="0" y="0" fill="#7D7D7D" font-family="'Verdana-Italic'" font-size="7">1</tspan><tspan x="4.4" y="0" fill="#7D7D7D" font-family="'Verdana-Italic'" font-size="7" rotate="0.6">0</tspan><tspan x="8.9" y="0" fill="#7D7D7D" font-family="'Verdana-Italic'" font-size="7" rotate="1.1">6</tspan><tspan x="13.3" y="0.1" fill="#7D7D7D" font-family="'Verdana-Italic'" font-size="7" rotate="1.5">0</tspan><tspan x="17.7" y="0.2" fill="#7D7D7D" font-family="'Verdana-Italic'" font-size="7" rotate="1.9">0</tspan></text>
<path fill="none" d="M326.8,188.4c2.8,1.8,4.8,4.4,6.9,7c4.9,6.3,9.9,12.7,12.6,20.2c1.2,3.5,2,7.1,3,10.6"/>
<text transform="matrix(0.6024 0.7982 -0.7982 0.6024 333.4791 199.2076)"><tspan x="0" y="0" fill="#7D7D7D" font-family="'Verdana-Italic'" font-size="7">1</tspan><tspan x="4.4" y="0" fill="#7D7D7D" font-family="'Verdana-Italic'" font-size="7" rotate="2.1">0</tspan><tspan x="8.7" y="0.1" fill="#7D7D7D" font-family="'Verdana-Italic'" font-size="7" rotate="5.4">0</tspan><tspan x="12.9" y="0.5" fill="#7D7D7D" font-family="'Verdana-Italic'" font-size="7" rotate="10">0</tspan><tspan x="17" y="1.2" fill="#7D7D7D" font-family="'Verdana-Italic'" font-size="7" rotate="15.9">0</tspan></text>
<path fill="none" d="M33.8,99.7c3.1,16,6.3,29.9,9,46"/>
<text transform="matrix(0.1966 0.9805 -0.9805 0.1966 31.9835 103.46)"><tspan x="0" y="0" fill="#7D7D7D" font-family="'Verdana-Italic'" font-size="7">1</tspan><tspan x="4.4" y="0" fill="#7D7D7D" font-family="'Verdana-Italic'" font-size="7" rotate="-0.2">0</tspan><tspan x="8.9" y="0" fill="#7D7D7D" font-family="'Verdana-Italic'" font-size="7" rotate="-0.3">8</tspan><tspan x="13.3" y="0" fill="#7D7D7D" font-family="'Verdana-Italic'" font-size="7" rotate="-0.3">0</tspan><tspan x="17.8" y="-0.1" fill="#7D7D7D" font-family="'Verdana-Italic'" font-size="7" rotate="-0.2">0</tspan></text>
<path fill="none" stroke="#585858" stroke-miterlimit="10" stroke-dasharray="18,3,1,3" d="M253.2-15.5c-0.8,2.1-1.6,4.3-1.3,6.5
	s2.1,4.4,4.3,4.4c0.6,0,1.3-0.2,1.9,0c1.2,0.5,1,2.1,1.1,3.4c0.2,4.7,5.1,7.4,8.6,10.3c4.8,4,7.9,9.6,11.7,14.5
	c6.2,7.9,14.5,13.9,22.7,19.8c1.2,0.9,2.5,1.8,4,1.8c1.6,0,3.7-0.8,4.3,0.7c0.2,0.4,0.1,0.8,0,1.2c-0.4,2.9-0.8,5.9-1.1,8.8
	c-0.5,4-1,8.2,0.8,11.8c0.4,0.9,1,1.7,0.8,2.7c-0.2,1.8-2.4,2.4-3.6,3.7c-1,1.2-1.7,2.9-1.3,4.4c2.4,9.2-1.9,11.6,0.8,16.6
	c1.5,2.8,5.4,4.8,6.7,7.8c3.5,8.1,1.8,19.6,9.1,26.4c4,3.7,9.8,5.2,13.8,9c1.1,1.1,2.1,2.4,3.6,2.9c3.2,1.2,6.3-1.7,9.4-2.8
	c4.6-1.7,14.9-0.5,19.7-1.2c5.4-0.9-0.8-2.5,11.9-8.8"/>
<g>
	<g>
		<polyline fill="none" stroke="#7D7D7D" stroke-miterlimit="10" points="85.2,341.6 85.2,348.7 275.4,348.7 275.4,341.7 		"/>
		<line fill="none" stroke="#7D7D7D" stroke-miterlimit="10" x1="180.5" y1="341.4" x2="180.5" y2="348.7"/>
		<line fill="none" stroke="#7D7D7D" stroke-miterlimit="10" x1="161.2" y1="349.2" x2="161.2" y2="343.7"/>
		<line fill="none" stroke="#7D7D7D" stroke-miterlimit="10" x1="142.4" y1="349.2" x2="142.4" y2="343.7"/>
		<line fill="none" stroke="#7D7D7D" stroke-miterlimit="10" x1="123.3" y1="349.2" x2="123.3" y2="343.5"/>
		<line fill="none" stroke="#7D7D7D" stroke-miterlimit="10" x1="104.6" y1="349.2" x2="104.6" y2="343.7"/>
	</g>
	<text transform="matrix(1 0 0 1 83.7833 339.1469)" fill="#7D7D7D" font-family="'Verdana'" font-size="8">0</text>
	<text transform="matrix(1 0 0 1 174.2944 339.1469)" fill="#7D7D7D" font-family="'Verdana'" font-size="8">0.5</text>
	<text transform="matrix(1 0 0 1 258.3413 339.1469)" fill="#7D7D7D" font-family="'Verdana'" font-size="8">1 mi</text>
</g>
</svg>
