<?xml version="1.0" encoding="utf-8"?>
<!-- Generator: Adobe Illustrator 17.1.0, SVG Export Plug-In . SVG Version: 6.00 Build 0)  -->
<!DOCTYPE svg PUBLIC "-//W3C//DTD SVG 1.1//EN" "http://www.w3.org/Graphics/SVG/1.1/DTD/svg11.dtd">
<svg version="1.1" id="Layer_1" xmlns="http://www.w3.org/2000/svg" xmlns:xlink="http://www.w3.org/1999/xlink" x="0px" y="0px"
	 viewBox="0 0 360 360" enable-background="new 0 0 360 360" xml:space="preserve">
<path fill="none" stroke="#E1E1E1" stroke-miterlimit="10" d="M136.8-10.4c-0.3,1.2-0.9,2.6-0.9,3.9c-0.2,7.8,8.2,16.9,16,16.9
	c2,0,1-4.6,2.9-5.2c8.5-2.9,18.4,4.5,24.4-2.1c1.9-2.1,3.3-4.6,5.3-6.5c2-1.9,5-3.3,7.6-2.3c1.2,0.5,2.3,1.4,3.6,1.5
	c1.7,0.1,3-1.1,4.6-1.8c2-0.8,4.3-0.6,6.4-0.6c4.6,0.1,9.4-0.9,13.1-3.7"/>
<path fill="none" stroke="#E1E1E1" stroke-miterlimit="10" d="M116-9.8c0.1,2.4,0.5,4.7-1.3,6.3c-2.4,2.2-5.7,3-8.9,3.7
	c-5.6,1.2-11.8,2.3-16.9-0.4C86.2-1.7,84.1-4,82-6.2c-1.5-1.5-4-2.3-6-3c-0.3-0.1-0.7-0.2-0.9-0.5c-0.2-0.3-0.2-0.8,0.1-0.9"/>
<path fill="none" stroke="#E1E1E1" stroke-miterlimit="10" d="M241.6-10.1c-1.3,0.7-2.7,1.3-3.8,2.2c-2.6,2-3.9,5.4-6.5,7.4
	c-1.3,1-2.9,1.7-4.2,2.8c-2.3,1.9-3.4,4.8-4.7,7.5s-3.4,5.9-6.3,5.7c-5.6-0.4-11.3-0.7-16.7,0.9c-0.7,0.2-1.5,0.5-2,1.1
	c-0.4,0.4-0.6,0.9-0.8,1.4c-1.1,2.2-3.1,5.4-5.4,4.6c-2.1-0.8-0.8-4.3-1.1-6.5s-1.9-4.7-4.1-4.3c-0.9,0.2-1.6,0.7-2.3,1.3
	c-3.5,3.1-6.8,6.4-9.7,10c-0.8,1-1.6,2.1-1.6,3.3c0,1,0.5,1.9,0.8,2.8c1.6,5.1,1.7,11.8-2.1,15.4c-1.1,1.1-3.2-2.7-4.4-1.8
	c-3.3,2.6-2.1,8.5-6,9.8c-0.7,0.2-1.3,0.3-2,0.4c-0.5,0-1,0-1.5-0.1c-3.1-0.3-6.3-0.8-9.1-2.2c-2.8-1.5-5.1-4.2-5.1-7.4
	c0-1.3,0.3-2.6,0.4-3.9c0.2-3.3-1.6-6.7-4.5-8.3c-0.8-0.5-1.7-0.8-2.6-0.8c-1.3,0-2.5,0.8-3.7,1.2c-3,0.9-6.7-0.6-9.1,1.4
	c-0.7,0.6-1.2,1.5-2,1.9c-1.7,0.9-3.7-0.2-5.6-0.2c-2.6,0-5.5,2.2-7.4,0.4c-1.2-1.1-0.9-3-0.3-4.5s1.6-3,1.5-4.6
	c-0.1-2-1.8-3.6-3.3-4.9c-1.3-1.1-2.7-2.3-4-3.4c-0.2-0.2-1.1-1-1.4-1.2c-5.4-4.8-12.6-7.1-18.7-11C77.6,3.5,72.3,1.9,68.6-2
	c-3.7-3.9-7.3-8.2-12.2-10.5"/>
<path fill="none" stroke="#E1E1E1" stroke-miterlimit="10" d="M370.3,67.1c-1.3-1-2.6-2.1-4-1.5c-1,0.4-1.7,1.8-2.8,1.6
	c-0.5-0.1-1-0.5-1.5-0.7c-1.2-0.7-2.8-0.2-4.2-0.6c-2.4-0.6-3.4-3.4-4.7-5.4c-3.1-4.6-9.2-6.9-11.2-12.1c-0.2-0.5-0.3-1-0.6-1.5
	c-0.9-1.7-3-2.4-4.3-3.9c-1-1.1-1.5-2.6-2-4.1c-0.6-1.8-1.1-3.5-1.7-5.3c-0.7-2-1.6-4.4-3.6-5c-0.4-0.1-0.9-0.2-1.3-0.5
	c-0.4-0.3-0.6-0.8-0.8-1.2c-1.5-3.1-4.7-5.3-8.1-5.6c-0.7-0.1-1.5-0.1-2.2-0.3c-1.6-0.6-2.4-1.8-3.6-3.1c-3.6-3.6-6.6-7.7-8.9-12.2
	c-0.8-1.6-2.1-2.7-3.7-3.3c-1.7-0.7,0.2-3.6-0.5-5.3c-0.6-1.5-1.4-2.9-2.6-4c-0.8-0.8-2.4-0.6-2.5-1.8c-0.1-0.5,0-1,0.1-1.5
	c0-0.3,0-0.6,0-1"/>
<path fill="none" stroke="#E1E1E1" stroke-miterlimit="10" d="M370.3,89.9c-0.9,0.4-1.7,0.8-2.5,1.1c-2.9,0.8-6.7,1.4-8.5-1
	c-0.7-1-1.5-2.5-2.6-2.1c-0.8,0.3-0.9,1.4-1.4,2.1c-0.9,1.3-3,1.1-4.1-0.1c-1.1-1.1-1.3-2.8-1.3-4.4s0.2-3.2-0.2-4.7
	c-0.8-3-3.6-4.8-5.9-6.9c-3.2-3.1-5.4-7.1-8.3-10.6c-4.1-4.9-9.7-8.6-13.2-13.9c-2.3-3.4-3.7-7.5-6.6-10.4c-1.3-1.3-3-2.4-4.8-2.2
	c-1,0.1-2.1,0.6-3.1,0.4c-0.9-0.2-1.5-0.8-2.1-1.5c-5.1-5.2-7.1-12.9-12.6-17.6c-1.9-1.6-6.7-3.6-6.8-3.7c-2.3-2.6,2.1-6.7,1.4-10.1
	c-0.6-2.8-4.3-4-4.9-6.8c-0.3-1.5,1.8-2.7,1.5-4.3c-0.3-1.6-2-2.6-3.6-3.2c-3.3-1.2-6.9-1.5-10.4-1.4c-2.3,0.1-4.7,0.4-6.5,1.8
	c-1.3,1.1-2.1,2.6-3,4c-3,4.7-7.2,8.6-11.3,12.3c-1,0.9-2.2,1.8-3.5,1.4c-0.5-0.2-1-0.5-1.4-0.9C243,5.9,242,3.6,240,3.2
	c-1.3-0.2-2.6-0.5-3.9-0.5c-2.4,0-3.7,2.9-4.2,5.3c-0.6,2.9,1.1,7.2-1.4,8.9c-2.7,1.8-5.9,2.8-8.5,4.5c-1.7,1.1-3.8,1.6-5.4,2.9
	c-1.4,1.1-2.2,2.6-2.9,4.2c-4.7,10.7-2,23.1-3.5,34.6c-0.3,2-0.7,4-1.8,5.6c-0.8,1.2-2,2.2-2.9,3.4c-4.2,5.2-3.5,12.8-1.3,19.1
	c0.7,2,1.5,4.1,1.2,6.2c-0.2,1.7-1.1,3.1-1.9,4.6c-1.3,2.2-2.7,4.5-4.9,5.8c-2.2,1.3-5.5,1.1-6.9-1c-0.9-1.4-0.9-3.4-2.2-4.5
	c-1.3-1.1-3.3-0.7-5-1.1c-3.8-0.8-5.4-5.2-7-8.8c-1.8-4-4.3-7.6-7.4-10.6c-0.8-0.8-1.7-1.6-2.8-2c-1.6-0.6-3.3-0.3-4.9,0
	c-8.8,1.7-17,3.4-25.8,5c-4.9,0.9-10.6,1.9-14.9,4.6c-3,1.9-5.5,4.5-8.5,6.4c-3,1.9-6.7,3-9.1,5.7c-1,1.2-1.8,2.6-2.9,3.7
	c-2,2-5,2.7-7.7,3.7c-4.6,1.8-8.8,4.2-12.9,6.9c-2.1,1.4-4.2,2.9-5.8,4.9c-1.1,1.5-1.9,3.2-3,4.6c-1.9,2.3-4.8,3.7-7.2,5.5
	c-2.4,1.8-6.3,5.5-4.1,7.6c1.9,1.8,5.1,0.8,7.6,1.5c0.9,0.3,1.9,0.6,2.4,1.4c0.4,0.6,0.6,1.3,0.7,2c0.7,4.4,0.7,8.9,0.6,13.4
	c0,3-0.1,6.3-2.1,8.6c-1.6,1.9-4.3,2.8-5.6,5c-0.7,1.3-0.9,2.8-0.8,4.2c0,1.1,0.2,2.3,0.7,3.3c0.9,1.9,3,3.2,5.1,3.6
	c2.1,0.5,4.8-1.3,6.4,0.2c1.1,1-1,2.8-2.1,3.9c-1.1,1-2.4,2-3,3.4c-0.6,1.4-0.2,3.4,1.3,3.8c0.8,0.2,1.7-0.1,2.4-0.4
	c2.2-0.8,4.5-3.4,6.7-2.5c1,0.4-0.2,2.4,0.6,3.1c2.9,2.7,7.6-2.5,10.4-5.3c0.9-0.9,1.8-1.9,3.1-1.9c0.8,0,1.5,0.3,2.2,0.6
	c1.7,0.6,4.1,1.7,5.3,0.4c4.6-5.2,1.2-13.8,1.9-20.8c0.1-1.1,0.2-2.2,0.7-3.1c0.4-0.8,1.1-1.4,1.8-2c3.1-2.7,6.1-5.3,9.2-8
	c2.3-2,4.5-4,7.2-5.4c6.5-3.4,14.3-2.9,21.3-5.3c2.4-0.8,4.6-2,7.1-2.6c5-1.4,9.7,2.5,14.8,2.3c4.3-0.1,8.8-1.5,13-0.3
	c3.8,1.1,8.9,0.2,11.3,3.3c1.5,2.1,1.4,7.2,3.8,6.3c1.5-0.6,0.3-3.7,1.7-4.5c5.8-3.2,13.3,1.2,19.6,3.1c2.2,0.6,0.9,4,0.9,6.2
	c-0.1,3.8,3.6,6.7,7.3,7.7s7.6,0.7,11.3,1.8c4.5,1.3,8.2,4.5,11.7,7.5c1.5,1.3,2.9,2.6,4.4,3.9c2,1.7,4,3.5,5.5,5.7
	c3.7,5.4,3.6,12.4,3.2,19c-0.1,0.8-0.1,1.6-0.6,2.2c-0.6,0.8-1.8,1-2.8,1.3c-4,1.4-5.7,6.2-8.5,9.4c-2.8,3.1-6.7,4.7-10.5,6.3
	c-3.7,1.5-7.4,3-11.3,3.2c-5.3,0.2-10.5-2-15.3-4.3c-11.1-5.2-22.3-11-30.7-20c-0.9-0.9-1.8-2-2.2-3.2c-0.4-1.1-0.5-2.4-1.4-3.3
	c-1-0.9-2.5-0.8-3.8-0.6c-7,1.2-19.9,7-15.4,12.4c0.9,1.1,3.8-0.9,4.3,0.5c0.6,1.5-2.1,2.8-2.1,4.4c0,1,0.5,2,0.6,3
	c0.2,2.6-2.1,4.7-4.4,5.7c-2.3,1.1-5,1.6-6.9,3.3s-2.8,5.1-0.8,6.7c0.7,0.6,1.6,0.8,2.2,1.5c1.3,1.4,0.4,3.7,0.2,5.6
	c-0.4,4.8,4.3,8.6,5.3,13.4c1.6,7.2-5.4,14.4-3.5,21.5c0.2,0.9,0.6,1.8,0.6,2.7c-0.1,2.6-3.4,3.8-6,4.3c-4,0.8-8.1,1.5-12.1,2.3
	c-3.4,0.7-7.3,1.6-9.1,4.7c-1.7,3-0.6,6.7,0.5,10c1.8,5.1,3.5,10.1,5.3,15.2c1.5,4.4,3.1,8.9,6.3,12.3c2.2,2.3,0.7,6.8-0.6,9.7
	c-1.3,2.9-3.4,5.4-5.5,7.8c-0.6,0.7-1.2,1.4-2.1,1.9c-1.1,0.6-2.3,0.6-3.5,0.8c-4.1,0.5-8.3,2.6-12.3,1.5c-1.2-0.3-2.2-0.9-3.4-1
	c-1.2-0.2-1.9,1.6-3.1,1.3c-1.8-0.4-2.4-2.6-4.2-2.9c-3.7-0.6-8.9,1.3-11.2-1.7c-1.2-1.6-1.3-3.9-3.2-4.7c-1.8-0.8-4.2-1.8-6-0.8
	c-0.8,0.5-0.8,2.1-1.7,2.2c-1.8,0.1-3.2-1.7-4.9-1.8c-0.7,0-1.5,0-2.1-0.3c-0.7-0.3-1.1-1-1.5-1.6c-1.6-2.5-3.8-4.6-6.3-6.2
	c-1.9-1.2-4-2.1-5.6-3.6c-3-2.6-4.4-6.6-6.6-10c-2.1-3.4-6.7-8.1-9.8-5.5c-4.9,4.2-6.5,11.2-11.4,15.3c-2.5,2.1-5.2,3.9-7.8,5.8
	c-14.1,10.6-24.6,26-29.2,43.1c-0.3,1.2,0.2,3.2,1.3,2.6"/>
<path fill="none" stroke="#E1E1E1" stroke-miterlimit="10" d="M371.6,102.4c-1,0.2-1.9,0.4-2.8,0.8c-3.8,1.8-6,5.8-7.4,9.8
	c-0.7,2.2-1.3,4.4-2.6,6.3s-3.6,3.3-5.8,2.7c-1-0.3-2-0.9-2.8-1.5c-4.4-3.2-9.1-7-9.5-12.4c-0.4-5,3.3-10.5,0.6-14.8
	c-0.3-0.4-0.9-0.4-1.2-0.8c-1.5-2,4.5-4.8,3.1-6.9c-1-1.4-3.9,1.5-5,0.3c-2.1-2.4-3.2-3.8-5.9-5.4c-2.5-1.5-1.3-5.6-1.9-8.4
	c-0.1-0.7-0.3-1.3-0.4-2c-0.5-2.3-1.1-4.7-2.5-6.6c-2.6-3.4-5-7-8.8-9.1c-2.1-1.2-4.6,0-6.7-1.1c-1-0.5-1.8-1.2-2.3-2.1
	c-0.5-0.9-0.5-2.2,0.2-3c0.3-0.3,0.7-0.6,0.8-1c0.2-0.7-0.5-1.3-1.1-1.6c-2.6-1.4-5.4,1.9-8.1,0.8c-2.1-0.8-1.9-4-3.7-5.3
	c-1.8-1.2-3.9-2-5.9-3.1c-2.7-1.5-5.1-3.7-6.9-6.3c-0.4-0.6-0.8-1.2-1.4-1.6c-0.6-0.4-1.3-0.6-2-0.7c-1.4-0.3-2.9-0.7-4.4-0.3
	c-1.3,0.4-2.4,1.3-3.7,1.7c-1.3,0.5-3.1,0.2-3.5-1.1c-0.2-0.6-0.1-1.3,0-1.9c0.5-2.9,2.2-6.8,0-8.7c-0.2-0.2-1,0.1-1.3-0.1
	c-1.7-0.9-2.2-3.3-2.6-5.2c-0.2-0.8-0.4-1.7-1.1-2.1c-0.3-0.2-0.8-0.2-0.9-0.6c-0.1-0.2,0-0.4,0-0.7c0.1-1-1.2-1.7-1.4-2.7
	c0-0.3,0-0.5-0.2-0.8c-0.2-0.3-0.6-0.3-1-0.3c-1.2,0.2-2.4,0.7-3.2,1.6c-0.6,0.6-1.1,1.4-1.7,2c-0.7,0.7-1.5,1.3-2.3,2
	c-1.2,1.1-2.1,2.5-3,3.8c-0.3,0.4-0.3,1.1-0.8,1.4c-0.4,0.2-1.2-0.2-1.7-0.1c-8.2,1.4-15.4,6.5-23.1,9.7c-2,0.8-4.1,1.8-5.1,3.7
	c-1.1,2.1-0.3,4.7-0.2,7.1c0.3,5.2-2.2,10.2-2,15.3c0.1,2.5,0.7,4.9,0.9,7.4c0.4,5.3-1.6,10.7-5.4,14.5c-0.9,0.9-2,1.8-2.6,3
	c-0.7,1.1-0.8,2.7,0,3.7c0.5,0.6,1.1,0.9,1.8,1.2c3,1.4,6.1,2.8,9.1,4.2c0.5,0.3,1.1,0.5,1.4,1.1c0.4,0.8-0.1,2,0.4,2.8
	c0.4,0.8,1.4,1,2.3,1c4.1,0.3,8.2-0.8,11.6-3.1c1.1-0.7,2.3-1.6,3.6-1.5c0.5,0.1,1,0.3,1.5,0.6c3.9,2.1,7.3,5.1,9.9,8.7
	c0.4,0.6,0.9,1.3,1,2.1c0.2,1.7-1.1,3.1-2.1,4.5c-1.7,2.5-2.3,5.7-1.6,8.6c0.3,1.3,0.8,2.5,1,3.8c0.4,3-1.9,6-4.6,7.3
	c-1.3,0.6-2.8,0.9-3.9,1.8c-1.1,0.9-1.6,2.9-0.4,3.7c0.4,0.3,1,0.4,1.5,0.6c1.6,0.8,1.8,3,1.8,4.8c-0.1,3.7-0.2,7.4-0.3,11
	c0,0.4,0,0.8-0.2,1.1c-0.4,0.9-1.8,1-2.7,0.5c-0.9-0.5-1.5-1.3-2.4-1.9c-2-1.4-5.2-0.9-6.6,1.2c-1.4,2-0.9,5.2,1.1,6.6
	c1.6,1.1,3.8,1.2,5.6,2c1.4,0.6,2.5,1.6,3.8,2.4c5.2,3.3,12.6,3.3,16.5,8.1c1.7,2.1,2.5,5,4.9,6.3c1.9,1,4.4,0.7,5.8,2.2
	c0.7,0.8,1,1.9,1.2,3c0.5,2.6,1.1,5.1,1.6,7.7c0.2,1.1,0.5,2.3,1.2,3.1c0.5,0.6,1.2,1,1.6,1.6c0.8,1.2,0.2,2.9-0.4,4.2
	c-1.8,4.1-3.5,8.3-5.3,12.4c-0.3,0.8-0.6,1.5-1.2,2.1c-1.6,2-4.5,2.2-7.1,2c-2.6-0.2-5.3-0.7-7.6,0.5c-1,0.5-1.8,1.2-2.2,2.2
	c-0.3,0.6-0.3,1.3-0.4,2c-0.3,3.1-0.6,6.2-0.9,9.3c-0.1,0.8-0.2,1.7-0.6,2.4c-0.6,0.9-1.6,1.5-2.6,1.9c-1.7,0.7-3.4,1.3-5.2,1.6
	c-0.5,0.1-1.1,0.2-1.6,0.1c-0.7-0.1-1.2-0.5-1.8-0.8c-2.7-1.4-7.6-2.9-9-0.2c-0.6,1-0.4,2.3-1.4,2.8s-2.3,0.4-3.4,0.4
	c-2.5-0.1-5.1,0.4-7.5-0.4c-4.2-1.4-8.2-4.2-12.4-5.6c-1.2-0.4-2.5-0.8-3.5-1.5c-2.6-1.8-3.8-5.3-6.6-6.6c-1.2-0.6-2.6-0.7-3.7-1.5
	c-1.3-0.8-1.9-2.3-3-3.4c-2.1-2.3-5.5-2.7-8.6-3.1c-1.5-0.2-2.9-0.3-4.4-0.5c-0.9-0.1-1.8-0.2-2.6,0c-2.3,0.5-3.7,2.6-4.6,4.8
	c-0.8,2.1-1.3,4.5-2.6,6.3c-0.9,1.3-2.2,2.2-3.2,3.4c-2.2,2.5-3.1,5.9-4,9.1c-0.3,1-0.5,2-0.2,2.9c0.3,1,1.2,1.9,1.4,2.9
	c0.1,0.7-0.1,1.3,0,2c0.1,0.9,0.6,1.6,1,2.4c1.7,3,2.7,6.3,2.9,9.8c0.2,3.5-0.2,7.6,2.5,9.9c2,1.7,4.8,1.6,7.4,1.9
	c0.4,0,0.8,0.1,1,0.3c0.4,0.4,0.5,1,0.5,1.6c0.1,3,0.2,5.9,0.2,8.9c0,1.1,0.1,2.3-0.3,3.4c-0.7,2.5-2.8,4.6-4.2,6.4
	c-1,1.3-9.5,1.4-11.5,3.7c-0.4,0.4-0.4,1-0.9,1.3c-0.3,0.2-0.7,0.1-1,0.1c-1.5-0.2-3-1.1-4.4-0.5c-1.3,0.6-0.6,3,0.5,3.8
	c0.5,0.4,1.2,0.6,1.8,1c1.5,1.1,1.4,3.4,0.9,5.2c-0.5,1.8-1.4,3.6-1,5.5c0.8,3.3,4.8,4.2,7.7,5.9c5.2,3,7.7,9.4,12.9,12.5
	c1.5,0.9,3.6,2,3.4,3.8c0,0.6-0.3,1.1-0.6,1.6c-2.5,4.3-6.8,7.6-11.6,8.8c-1.3,0.3-2.6,0.6-3.9,1.1c-2.2,0.9-4,2.7-6.1,3.9
	c-5.5,3.1-12.7,1.5-18.1,4.8c-1.1,0.7-2.1,1.6-3.3,2.1c-1.8,0.8-3.9,0.8-5.9,1.1c-5,0.9-9.1,4.6-14,5.7c-2.5,0.5-5.1,0.4-7.7,0.2
	c-2.8-0.2-5.7-0.5-8.1-2c-0.6-0.4-1.2-0.9-1.9-1.3c-0.6-0.3-1.3-0.5-2-0.6c-2.2-0.5-5,0.2-6.6-1.4c-1.5-1.5-2.9-2.7-4.9-3.3
	c-1.3-0.4-2.5-0.9-3.7-1.5c-4.3-2-8.5-4.2-12.6-6.7c-1-0.6-1.8-1.5-2.8-2.1c-1-0.5-2.1-0.8-2.9-1.6c-2.4-2.3-4.8-4.6-7.2-7
	c-1.1-1.1-3.6-1-3.8-2.5c-0.2-1.5,1.4-2.6,0.9-4c-0.5-1.4-1.6-2.5-2.1-3.9c-0.2-0.6-0.4-1.3-0.8-1.8c-1.2-1.8-4-1.4-5.6,0
	c-0.6,0.5-1.2,1.2-1.3,2c-0.1,0.5-0.1,1-0.3,1.5c-0.2,0.5-0.5,0.9-0.9,1.2c-5.1,5.4-10.5,10.6-16.2,15.4c-3.9,3.3-8.1,6.7-10.3,11.4
	c-0.3,0.6-0.5,1.2-0.9,1.8c-0.3,0.5-0.7,1-1.1,1.5c-1.2,1.7-2.1,3.6-3,5.5c-1.2,2.5-2.4,5-3.5,7.6c-0.6,1.3-1.2,2.6-1.7,4
	c-0.7,2.2-1,4.5-1.5,6.7"/>
<path fill="none" stroke="#E1E1E1" stroke-miterlimit="10" d="M292.5,125.9c0.6-1.8,1.9-3.3,2.1-5.2c0.1-1.1,0-2.1,0.1-3.2
	c0.1-1.7,0.4-3.4,0.7-5.1c0.4-2,1-4.3,2.8-5.4c1.4-0.8,3.1-0.7,4.6-0.4c1.7,0.3,3.5,0.7,5.1,1.3c1.2,0.4,2.5,1.1,2.4,2.4
	c-0.1,0.9-0.9,1.4-1.4,2.1c-1,1.2-1.3,2.9-1.6,4.5c-0.3,1.8-0.5,3.5-0.4,5.3c0.3,3.1,0.3,6.2,1.5,9.1c0.3,0.7,0.6,1.4,1.1,2
	c0.7,0.8,1.8,1.2,2.8,1.8c3.2,2,4.1,6.1,4.8,9.9c0.6,3.3,1.2,6.7,1.3,10.1c0.1,3.5,0.2,7.4-1.6,10.4c-1,1.8-4.1,0-5.9,0.9
	c-0.4,0.2-0.8,0.6-1.3,0.8c-1.3,0.6-2.9,0-3.9-1.1s-1.6-2.4-2.4-3.7c-1-1.7-2.5-3.1-4.1-4.2c-0.5-0.3-1.1-0.6-1.4-1.1
	c-0.4-0.5-0.6-1-0.8-1.6c-0.8-2.6-1.2-5.4-1-8.1c0.1-2.3,0.4-5-1.4-6.3c-0.5-0.3-1-0.5-1.5-0.8c-1.3-0.7-2.1-2.2-2-3.7
	c0-0.8,0.3-1.6,0.5-2.3C292.3,131.6,291.6,128.4,292.5,125.9z"/>
<path fill="none" stroke="#E1E1E1" stroke-miterlimit="10" d="M371.5,148.8C365,157,354,154,346,154c-2,0-5-1-7-2s-4-2-4-4
	s2.1-6.5-2-6c-2,0.2-5.8,2-6,1c-1.5-7.5-4.9-13.2-12-17c-2-1.1-1.4-5-1-8c1.5-10.3,5.8-19.9,1-29c-2.1-4-3.8-9.4-8-11
	c-3.9-1.4-7.4-1.4-11-4c-1.1-0.8-2.2-3.7-4-5c-1.1-0.8-3,0-4-1s0-3,0-5c0-1-1-2.2-2-2c-2.2,0.5-5.5,1.8-6,4c-0.2,1,1.3,2.6,3,4
	c3.8,3.2-0.5,9.9,0,15c0.3,3,1.9,5,3,7c2.8,5.1-1.5,7.9-2,12c-0.1,1,1.2,2,1,3c-1,4.4,0.9,8,0,12c-2.4,10.9-17.5,22.7-6,31
	c1.8,1.3,4,1,6,1c1,0,2,1,3,2c5.3,5.8,4.7,14.1,7,22c0.9,3-1,7-2,10c-2,6,5.6,4.2,8,8c0.2,0.3,0,1,0.2,1.6c0.5,2,2,4,4,4.3
	c2.1,0.3,4.1-0.4,6.2-0.9c3.8-1.1,8.5-1.5,11,1.5c1.9,2.2,1.8,5.4,1.7,8.2c-0.2,5.1-0.8,10.9-4.9,14c-1.4,1.1-3.1,1.7-4.5,2.8
	c-2.1,1.6-3.5,4.1-3.7,6.8c-0.1,1.5,0,3.4-1.3,4.2c-0.8,0.5-1.8,0.5-2.6,0.7c-1.5,0.5-2.5,1.9-3,3.4c-0.5,1.5-0.4,3.1-0.4,4.6
	c0,1.6,0.1,3.2,0.1,4.9c0.2,5.8,0.2,12.1-3.2,16.8c-1.8,2.6-4.5,4.4-6.4,7c-0.3,0.4-0.6,0.9-1,1.2c-0.5,0.4-1.1,0.5-1.7,0.6
	c-3.2,0.6-6.5,1.3-9.6,0.4c-2.6-0.7-4.8-2.4-7.5-2.7c-1.4-0.2-2.9,0-4.3,0.2c-3.3,0.4-6.6,0.4-9.9,0.1c-0.4,0-0.9-0.1-1.3-0.4
	c-1.1-0.9,0-2.6,0.2-3.9c0.2-1.3-0.6-2.6-1.8-3.1c-1.1-0.4-2.2-0.2-3.4-0.2c-2.3-0.1-4-2-5.5-3.8c-1.9-2.3-5.3-3.2-7.7-4.9
	c-7.8-5.3-15.6-10.6-23.4-15.8c-2.7-1.8-5.4-3.7-8.3-5.4c-3.7-2.3-7.6-4.3-11.5-6.4c-5.1-2.7-10.8-5.5-16.4-4.1
	c-3.5,0.9-6.9,4.6-5.4,7.9c0.3,0.8,0.9,1.4,1.1,2.3c0.2,1.6-1.3,3.4-0.4,4.8c0.5,0.8,1.5,1,2.4,1.1c5.7,1,14.9,2,15.4,7.8
	c0.3,3-2.7,5.6-2.4,8.6c0.3,2.6,1.3,5.2,0.6,7.7c-0.3,1-0.9,1.9-1.5,2.9c-2.5,4.2-7.5,10.1-4.5,14c3.5,4.6,14.1-1.9,16.9,3.1
	c2.1,3.7,1.8,7.9,3.2,11.9c2.4,6.9-1.1,14.5,0,21.7c0.1,0.8,0.3,1.7,0.9,2.3c1.2,1.3,3.5,0.9,4.9-0.2c1.4-1.1,2.3-2.7,3.6-4
	c3.2-3.2,9-3.3,12.4-0.3c0.8,0.8,1.6,1.7,2.6,2.2c3.5,1.9,6-5.1,9.9-4.6c7.5,1,0.7,15.8,5.1,22c1.5,2.2,6.1,1.8,7.7-0.4
	c6.1-8.6,6.3-20.3,13.3-28.3c1.3-1.5,2.7-2.9,4.6-3.7c1.8-0.7,4.1-0.6,5.5,0.9c1.2,1.3,1.4,3.3,1.7,5.1c1.1,5.8,4.7,10.8,6,16.5
	c0.6,2.9,0.7,6-0.6,8.7c-0.9,1.8-2.3,3.4-3,5.3c-0.7,1.9-0.6,3.9-0.6,5.9c0.3,9.9,0.6,19.8,0.9,29.7"/>
<path fill="none" stroke="#E1E1E1" stroke-miterlimit="10" d="M370.2,130.9c-2.3,5.5-12.5,14.9-18.4,9c-1.4-1.4-2.1-3.5-3.4-4.9
	c-1.5-1.6-3.5-0.7-4.9-2.1c-1.2-1.3-0.1-3.2-0.7-4.6c-0.5-1.2-3.8-0.9-5-1.4c-3.6-1.5-5.3-4.2-7.7-6c-9.7-7.1,3-19.8,1.9-30.9
	c-0.2-2-0.9-4.1-2-5c-6.6-5.6-11.2-11.9-16-18c-3.1-3.9-6,0-9,0c-1,0-1.7-1.2-3-3c-1.7-2.3-5.5-0.6-7-3c-1.7-2.7-1.8-5.1-3-8
	c-4.3-10.3-18.2-7.6-26-13c-5.3-3.7-1-15.5-10-16c-2-0.1-3.8,2.5-6,2c-8.8-2.1-20.4-1.1-23,8c-0.3,1-0.1,3,0,5c0.5,7.1,6,12,6,19
	c0,1-1.9,1-2,2c-0.5,4.1,1.9,6.5,5,7c5.9,1,11.9-4.5,18-5c5-0.4,10.6,3.1,12,7c1.6,4.2,4,7,7,10c1,1,1,2,1,3c0,2-2,4-2,6
	c0,8,1,17,0,25s-7.2,13.9-11,21c-2.1,3.9-4,9-4,14c0,3,0.9,7.5,7,8c6,0.5,13.3,1.7,17,6c5.6,6.6,5.5,15,6,23c0.1,2-0.3,4-1,5
	c-11,15.8-7.6,30.3,0,43c1.9,3.1,4.2,4.9,6,8c1.1,1.9,1.5,4.8,2,7c0.5,1.9,0.1,4.1-1,5c-6.4,4.9-13.2,8.5-21,6c-5.1-1.7-9-2-14-5
	c-5-3-7.6-9.5-13-13c-3.8-2.4-7.9-3.5-13-4c-2-0.2-5,0.3-7,0c-10.3-1.5-19.2-7.6-28-13c-6.2-3.8-14-7-21.3-4.3c-2.8,1-4.2,4-5.1,6.9
	s-1.1,5.9-1.3,8.8c-0.1,2.5-0.3,5.1,0.8,7.4c0.5,1.1,1.2,2.1,1.6,3.2c0.6,1.9,0.1,4.3,1.6,5.6c0.7,0.7,1.8,0.9,2.7,1.1
	c2.9,0.7,5.7,2.1,8.1,4.1c0.4,0.3,0.8,0.7,0.8,1.1c0.1,0.5-0.3,1-0.6,1.5c-3.6,5.6-0.5,13.4-3.2,19.4c-1.2,2.7-3.6,5.4-2.7,8.2
	c0.4,1.3,1.4,2.3,2.5,3.1c3.5,2.7,10.2,0.2,12.5,4.1c1.2,2-0.8,4.9,0.8,6.6c0.7,0.7,1.6,1.3,1.8,2.2c0.1,0.5,0,1.1-0.1,1.7
	c-0.5,1.9-1.4,3.8-1.4,5.8c0,2,1.6,3.2,3.2,4.5c3.8,3.2,0.2,9.7,0.2,14.6c0,1.2-0.9,2-1.8,2.8c-2.7,2.6-5.4,5.1-8.1,7.7
	c-0.8,0.7-1.6,1.5-2.6,2c-1,0.5-2,0.6-3,1.1c-1.9,0.9-3.2,2.9-5.2,3.5c-1.1,0.3-2.3,0.2-3.4,0.2c-5.4,0.1-9.9,4-15.2,5.3
	c-2,0.5-4.1,0.6-6,1.2c-4.4,1.4-7.9,5.4-12.6,5.7c-0.9,0.1-1.9,0-2.8,0.1c-1.5,0.2-2.9,1-4.2,1.7c-2.4,1.3-4.8,2.7-7.2,4
	c-1.5,0.8-2.9,1.6-4.2,2.8c-0.6,0.6-1.2,1.2-2,1.4c-0.4,0.1-0.9,0.1-1.3,0.1c-2.8-0.2-5.5-0.5-8.3-1.1c-2.7-0.6-5.4-1.4-8.1-1.9
	c-2-0.4-3.9-1.1-5.7-1.9c-1.7-0.7-3.4-1.3-4.9-2.3c-2.9-1.8-5.1-4.7-8.1-6.3c-1-0.5-2.2-0.9-3.1-1.7c-0.9-0.7-1.5-1.7-2.5-2.2
	c-1-0.5-2.2-0.5-3.1-1.2c-0.3-0.2-0.6-0.6-0.9-0.9c-2.5-2.9-5.8-4.9-9-6.9c-3.6-2.2-7.1-4.5-10.8-6.5c-0.8-0.4-1.7-0.9-2.3-1.6
	c-1.8-1.9-0.8-7.1-3.4-6.9c-3.8,0.2-4,7.2-7.6,8.7c-1.7,0.7-2.1,2.1-3.5,3.3c-0.8,0.7-1.9,0.6-2.7,1.3c-2.2,2.1-4.2,4.4-6.1,6.7
	c-0.4,0.5-0.8,1.1-0.7,1.7c0.2,0.8,1.2,1.2,2,1.3c3,0.5,6,0.1,8.9-0.1c6.8-0.5,13.7-0.2,20.4,0.8c0.3,0,0.6,0.1,0.9,0.3
	c0.2,0.2,0.3,0.4,0.4,0.6c2.3,5.5,3.5,11.9,0.9,17.3c-0.8,1.7-2,3.4-1.5,5.2"/>
<path fill="none" stroke="#E1E1E1" stroke-miterlimit="10" d="M269.4,51.8c-0.6,0.3-0.7,1.1-0.5,1.7s0.8,1.1,1.3,1.5
	c1.8,1.5,3.8,3,6.2,3.6c1.1,0.3,2.3,0.4,3.5,0.4c1.2,0,2.7,0.5,3.7-0.2c0.4-0.3-0.1-0.8-0.3-1.2c-0.6-0.8-1.2-1.6-2.1-2
	c-1.2-0.4-2.7,0.2-3.9-0.3c-0.8-0.3-1.3-1-1.9-1.6c-1.4-1.3-3.3-2.1-5.2-2.1C269.9,51.7,269.6,51.7,269.4,51.8z"/>
<path fill="none" stroke="#E1E1E1" stroke-miterlimit="10" d="M253.6,47.7c0.7-1.2,0.6-2.7,0.7-4.1c0.2-2,1-4,1.2-6
	c0.2-2-0.3-4.3-2-5.5c-2.4-1.7-5.8-0.1-8.7-1c-1.6-0.4-2.9-1.6-4.4-2c-2.2-0.6-4.5,0.3-6.4,1.5c-0.9,0.6-1.8,1.3-2.4,2.3
	c-1.2,2.3,0,5,1,7.4c1.2,3,1.9,6.2,2.2,9.4c0.1,0.9,0.1,1.9,0.5,2.8c0.3,0.9,1.1,1.7,2,1.8c0.5,0.1,1-0.1,1.5-0.2
	c2.1-0.6,4.2-1.1,6.2-1.7c1.2-0.3,2.3-0.6,3.4-1.1c1.3-0.5,2.4-1.2,3.5-2C252.5,49,253.2,48.4,253.6,47.7z"/>
<path fill="none" stroke="#E1E1E1" stroke-miterlimit="10" d="M245.1,41c0.2-0.3,0.3-0.6,0.3-0.9c0.3-1.1,0.7-2.3,0.1-3.3
	c-0.3-0.6-0.9-0.9-1.4-1.3c-0.5-0.3-1-0.6-1.6-1c-0.5-0.3-1.1-0.6-1.7-0.8c-0.6-0.1-1.3,0-1.8,0.4c-0.5,0.4-0.7,1.1-0.7,1.8
	c0,1.9,0.9,3.7,0.9,5.6c0,0.7-0.1,1.4,0.1,2.1s0.8,1.3,1.5,1.2c0.7-0.1,1.1-0.9,1.6-1.5C243.2,42.5,244.5,42,245.1,41z"/>
<path fill="none" stroke="#E1E1E1" stroke-miterlimit="10" d="M196.3,127.5c0.7-1.3-1.1-2.8-2.3-3.6c-0.7-0.4-1.6-0.6-2.1-1.2
	c-0.4-0.4-0.6-0.9-0.9-1.3c-0.8-0.9-2.1-1.1-3.3-1.2c-2-0.2-4-0.3-5.8-1s-3.6-2.1-4.2-4c-0.4-1.4-0.3-3.1-1.5-4
	c-1-0.7-2.4-0.5-3.4-1.2c-1.3-0.8-1.4-2.7-2.4-3.9c-1.1-1.5-3.3-1.9-4.5-3.4c-1.2-1.6-0.9-3.8-0.9-5.8c-0.1-3.1-1.6-6.4-4.6-7.4
	c-0.6-0.2-1.1-0.3-1.7-0.3c-2.7-0.2-5.4,0.8-7.9,1.8c-3.1,1.2-6.1,2.4-9,4c-1.4,0.7-2.7,1.5-3.8,2.5c-2.2,2-3.6,4.6-5.2,7.1
	c-2.1,3-4.6,5.7-7.2,8.3c-4.1,4-8.5,7.7-13.1,11.1c-0.7,0.5-2.4,2.3-3.1,2.8c-3.2,2.5-6.3,5-9.5,7.5c-5,3.9-10,7.9-13.3,13.4
	c-0.4,0.7-0.9,1.6-0.8,2.4c0.1,1.9,2.3,2.9,4.2,3c2.5,0,4.9-1,7.2-2c3.7-1.6,7.3-3.2,11-4.7c1.1-0.5,2.2-1,3.2-1.7
	c0.7-0.5,1.3-1.2,2.1-1.6c1.9-1.1,4.4-0.4,6.5-0.9c3.9-0.9,5.8-5.2,9.2-7.4c1.4-0.9,2.9-1.4,4.4-1.9c5.2-1.7,10.3-3.4,15.7-4.5
	c7.1-1.5,14.4-1.9,21.6-2.2c2.1-0.1,4.1-0.2,6.2,0c3.2,0.4,6.3,1.7,9.4,2.6C189.6,129.6,194.7,130.4,196.3,127.5z"/>
<path fill="none" stroke="#E1E1E1" stroke-miterlimit="10" d="M-15.3,23.3c1.3-2.7,4.2-4.1,6.6-5.9c3.5-2.8,5.7-7.1,9.4-9.7
	c2-1.4,4.5-2.6,4.8-5c0.1-0.8-0.1-1.6,0-2.4c0.1-1.1,0.8-2,1.4-2.9c0.8-1.2,1.7-2.5,3-2.9c1.2-0.4,2.4-0.1,3.7,0.1
	c7.5,1.1,15.6-2.5,19.7-8.9"/>
<path fill="none" stroke="#E1E1E1" stroke-miterlimit="10" d="M-12,34c2.8,0.1,5.7,0.3,7.9,2c0.7,0.5,1.3,1.2,2,1.7
	c3.4,2.1,8.4-0.9,11.4,1.5c0.7,0.6,1.2,1.4,1.9,2.1c0.9,0.8,2.1,1.3,3.1,1.9c1,0.6,2,1.6,2.2,2.8c0.1,0.9-0.2,1.7-0.6,2.5
	c-0.7,1.8-1.5,3.6-2.2,5.3c-0.6,1.5-1.4,3.1-2.8,3.9c-0.8,0.4-1.7,0.5-2.6,0.8c-1.8,0.7-3.1,2.3-3.8,4c-0.8,1.7-1.1,3.6-1.6,5.5
	c-2.1,7.4-7.2,14-13.8,17.9c-1.7,1-3.5,1.8-5.4,1.9"/>
<path fill="none" stroke="#E1E1E1" stroke-miterlimit="10" d="M25.2,58.8c-0.3,0.2-0.6,0.4-0.7,0.7c-0.2,0.6,0.6,1.1,1.2,1.1
	c0.5,0,1-0.2,1.4-0.4c0.2-0.1,0.4-0.3,0.6-0.5c1-0.9,1.9-1.9,2.7-3c1.4-1.6,4.5-4.9,2.6-5.7c-0.2-0.1-0.4-0.1-0.5-0.3
	c-0.6-0.9-2-1.1-2.7-0.3c-0.3,0.3-0.5,0.6-0.6,1c-0.5,0.9-0.9,1.9-1,2.9c0,0.4,0,0.8-0.1,1.1c-0.1,0.3-0.3,0.5-0.4,0.7
	C27,57.2,26.2,58.2,25.2,58.8z"/>
<path fill="none" stroke="#E1E1E1" stroke-miterlimit="10" d="M53.3,3.1c0.6-0.3,0.5-1.2,0.1-1.8s-1-0.8-1.6-1.1
	c-1.1-0.5-2.3-1-3.4-1.5c-0.7-0.3-1.6-0.6-2.1,0c-0.4,0.5-0.2,1.3,0.2,1.8C47,1.4,52.8,3.4,53.3,3.1z"/>
<path fill="none" stroke="#E1E1E1" stroke-miterlimit="10" d="M13.9,8.8c-1.7-0.2-3,1.5-4.6,2.2c-1.2,0.5-2.7,0.5-3.8,1.2
	c-1.1,0.7-1.7,2.1-2.9,2.7c-1.1,0.5-2.6,0.2-3.4,1.2c-0.7,0.7-0.5,1.9-0.1,2.8c0.4,0.9,0.9,1.8,1,2.8c0,0.7-0.2,1.4-0.1,2
	c0.3,1.7,2.5,2.3,4.3,2.4c2,0.1,4,0.2,5.9,0.1c1.4,0,2.9-0.1,4.3-0.6c1.3-0.5,2.5-1.3,3.7-1.8c2.7-1.2,5.9-1.2,8.7-0.4
	s5.5,2.1,8.1,3.6c1,0.6,2,1.2,2.6,2.2c0.4,0.7,0.5,1.5,0.9,2.2c1,2,3.6,2.6,5.9,2.8c1.7,0.2,3.4,0.3,5.1,0.4c0.8,0,1.7,0.1,2.5-0.1
	c1-0.2,1.8-0.7,2.6-1.2c4.6-2.7,9.3-5.6,12.2-10.1c1.1-1.7,1.8-3.8,1.2-5.7c-0.2-0.8-0.7-1.5-1.1-2.1c-1.6-2.6-3.3-5.1-4.9-7.7
	c-3.4-5.3-7.3-11-13.3-13.1c-1.2-0.4-2.5-0.7-3.6-1.3c-1.2-0.6-2.2-1.6-3.5-1.6c-1.3,0-2.5,0.9-3.4,1.9c-2.3,2.4-4,5.2-5.9,7.9
	s-4.1,5.3-7,7s-6.4,2.4-9.5,1.1C15.2,9.2,14.6,8.8,13.9,8.8z"/>
<path fill="none" stroke="#E1E1E1" stroke-miterlimit="10" d="M49.4-9.4C54.8-5.3,59.6-1,64,2.9c1.1,0.9,2.5,1.4,3.5,2.3
	c1.4,1.3,2.3,3,3.3,4.6c4.6,7,12.3,11.1,18.7,16.5c0.4,0.3,0.8,0.7,0.9,1.2c0.1,0.5-0.1,1-0.4,1.5c-1.5,2.6-3.8,4.8-6.1,6.8
	c-4.6,4.3-9.2,8.5-13.9,12.8c-4.7,4.3-9.6,8.7-15.7,10.4c-1.7,0.5-3.5,0.7-5.1,1.4c-2.6,1.2-4.4,3.5-6.3,5.5
	c-3.7,3.8-8.4,6.6-13.4,8.1c-1.5,0.4-3,0.8-4.4,1.4c-2.1,0.9-3.8,2.4-5.6,3.8C12.8,84.3,5.1,87.8-2.1,92C-8,95.3-13.6,99.1-19,103.3
	"/>
<path fill="none" stroke="#E1E1E1" stroke-miterlimit="10" d="M200.8,128.4c-0.3-0.5-1-0.6-1.5-0.5c-0.5,0-0.9,0.1-1.3,0.4
	c-0.4,0.3-0.8,0.8-0.5,1.2c0.3,0.4,1.1,0,1.5,0.3c0.7,0.5,1.3,2.2,1.8,1.5C201.4,130.4,201.3,129.2,200.8,128.4z"/>
<path fill="none" stroke="#E1E1E1" stroke-miterlimit="10" d="M225.1,120.9c-3.1-0.8-6.6,0-9.1,2.2c-1.2,1-2.4,2.5-4,2.6
	c-1.7,0.1-3-1.2-4.4-2.2c-0.8-0.5-1.7-1-2.6-1c-0.9,0-1.9,0.4-2.3,1.3c-0.4,0.8-0.1,1.8,0.4,2.5c0.6,0.7,1.4,1.1,2.2,1.4
	c1.2,0.5,2.6,0.7,3.9,0.7c0.8,0,1.6-0.1,2.4,0c0.8,0.1,1.6,0.5,2.4,0.9c4.5,1.9,11.4,4.3,14.4,0.4c1.1-1.4,0.2-3.4,0-5.1
	c-0.1-0.5-0.1-1-0.3-1.5C227.6,121.8,226.3,121.2,225.1,120.9z"/>
<path fill="none" stroke="#E1E1E1" stroke-miterlimit="10" d="M77.3,159.1c0,0.6-0.3,1.3,0.2,1.6c0.2,0.1,0.4,0.2,0.7,0.2
	c1.2,0.1,2.4,0.1,3.7,0c0.4,0,0.9-0.1,1.1-0.4c0.2-0.3,0.2-0.6,0.2-0.9c0-0.9,0.3-1.9-0.2-2.7c-0.2-0.4-0.6-0.7-0.8-1.1
	c-0.2-0.3-0.3-0.7-0.4-1c-0.6-1.5-1.8-2.7-3.2-3.3c-0.2-0.1-0.4-0.2-0.6-0.2c-0.5,0-1,0.4-1.3,0.8c-0.3,0.5-0.3,1-0.3,1.6
	c0,1.2,0.2,2.4,0.6,3.6C77,157.9,77.3,158.5,77.3,159.1z"/>
<path fill="none" stroke="#E1E1E1" stroke-miterlimit="10" d="M296.6,123.5c-0.2,1.9-0.1,3.8,0.2,5.6c0.2,1.1,0.5,2.3,1.4,3
	c0.7,0.5,1.7,0.6,2.6,0.6c0.2,0,0.4,0,0.6-0.1c0.1-0.1,0.2-0.3,0.2-0.5c0.2-1.3,0.3-2.6,0.3-3.9c0-0.3,0-0.5,0-0.8
	c0-0.3,0-0.5,0-0.8c0-1.2-0.1-2.3-0.1-3.5c0-0.7-0.1-1.5-0.6-2c-0.6-0.6-1.5-0.6-2.2-0.5c-0.3,0-0.7,0-1,0.2
	C296.9,121.4,296.7,122.5,296.6,123.5z"/>
<path fill="none" stroke="#E1E1E1" stroke-miterlimit="10" d="M262.2,289.6c0.5-0.9,0.3-2.1-0.3-3c-0.6-0.9-1.4-1.6-2.3-2.2
	c-1.7-1.2-3.4-2.4-5.2-3.5c-2.3-1.4-4.6-2.7-7-3.9c-0.7-0.4-1.5-0.8-2.1-1.3c-1.3-1.1-2.2-2.6-3-4.2c-0.6-1.1-1.1-2.1-1.5-3.3
	c-0.8-2.9,0.2-6-0.8-8.8c-1-2.6-3.4-4.4-6-5.6c-2.5-1.2-5.3-2-7.5-3.6c-1.4-0.9-2.5-2.2-4-2.9c-2.2-1.1-4.7-1.1-7.2-1.1
	c-1.4,0-2.8,0-4.2,0.5c-1.3,0.5-2.5,1.5-2.9,2.8c-0.4,1.4,0.2,2.8,0.5,4.2c0.8,3.8-0.7,7.8-0.4,11.7c0.1,1.4,0.5,2.9,1.7,3.7
	c0.5,0.3,1,0.5,1.6,0.6c3.1,0.6,6.3-0.2,9.5,0c3.2,0.2,6.7,1.9,7.2,5c0.1,0.7,0.1,1.5,0,2.2c-0.2,2.8-0.5,5.6-0.7,8.3
	c0,0.4-0.1,0.8-0.3,1.1c-0.5,0.6-1.5,0.4-2.2,0.2c-4.3-1.2-9.7,0-11.8,4c-0.2,0.4-0.4,0.8-0.3,1.2c0,0.5,0.3,1,0.4,1.6
	c0.6,2.2-1.3,4.4-0.9,6.7c0.1,0.9,0.7,1.8,0.8,2.7c0.1,0.6-0.1,1.3,0,1.9c0.1,0.6,0.6,1.3,1.2,1.3c0.3,0,0.6-0.2,0.8-0.3
	c1.9-1.3,3-3.7,5.2-4.4c0.6-0.2,1.4-0.2,1.9-0.6c0.7-0.5,0.9-1.6,1.6-2.2c0.7-0.6,1.8-0.5,2.7-0.5c1.9-0.2,3.5-1.4,4.8-2.7
	c1.3-1.4,2.4-2.9,3.8-4.1c2.7-2.4,6.4-3.2,10-4c0.9-0.2,1.9-0.4,2.8-0.2c0.5,0.1,1,0.4,1.4,0.7c1.9,1.2,3.8,2.3,5.7,3.5
	c0.7,0.4,1.4,0.8,2.1,1c1.3,0.2,2.6-0.3,3.6-1.1C261.4,290.5,261.9,290.1,262.2,289.6z"/>
<path fill="none" stroke="#E1E1E1" stroke-miterlimit="10" d="M346.9,235.9c0.2,1.4,0.5,2.8,1.2,3.9c0.9,1.3,2.2,2.1,3.6,2.9
	c0.5,0.3,1.1,0.6,1.7,0.7c1,0.1,1.9-0.6,2.6-1.3c1.8-1.5,3.7-3.2,4.5-5.4c0.8-2,0.6-4.2,0-6.2c-0.7-2-1.8-3.8-3.1-5.5
	c-0.2-0.3-0.4-0.5-0.7-0.6c-0.3-0.1-0.6,0-0.9,0c-0.8-0.2-0.9-1.2-0.7-2s0.5-1.7,0-2.3c-0.2-0.2-0.4-0.3-0.6-0.5
	c-2.1-1.1-5.1-0.1-6.1,2.1c-0.3,0.6-0.4,1.3-0.8,1.9c-0.3,0.4-0.7,0.8-1,1.2c-1.2,1.6-0.9,3.9-0.6,5.8
	C346.3,232.4,346.6,234.1,346.9,235.9z"/>
<path fill="none" stroke="#E1E1E1" stroke-miterlimit="10" d="M368.1,169.8c-6.4-4.6-15.1-3.5-22.9-2.2c-1.3,0.2-2.6,0.4-3.7,1.1
	c-0.8,0.5-1.5,1.2-2.4,1.5c-1.7,0.7-3.6,0.2-5.4,0.5c-2.5,0.4-4.5,2.3-5.5,4.6c-1,2.3-1.1,4.9-0.7,7.3c0.3,1.8,0.9,3.7,2.3,5
	c0.8,0.7,1.7,1.1,2.5,1.8c3.1,2.3,3.8,7.2,1.6,10.3c-1.4,2.1-3.9,3.4-5,5.6c-0.6,1.2-0.7,2.4-0.9,3.7c-0.9,5.5-2.6,11-5.1,16
	c-0.3,0.7-0.7,1.4-0.6,2.2c0.3,1.7,2.5,2.1,3.9,3.1c1.7,1.2,2.4,3.4,2.1,5.5s-1.1,3.9-2.1,5.8c-0.4,0.9-0.9,1.8-1.7,2.3
	c-1.3,0.9-3.1,0.6-4.6-0.1c-1.5-0.7-2.8-1.6-4.4-1.9c-3.6-0.6-7.6,4-5.7,7.1c1,1.6,3.3,1,5,1.6c2.6,0.8,1.3,5.2,0,7.6
	c-1.3,2.4-3.2,4.4-4.2,6.9c-1.1,2.5-1.3,5.4-2.4,7.9c-0.4,0.7-0.8,1.5-1.5,1.9c-0.8,0.5-1.9,0.6-2.8,0.8c-2.9,0.6-5.4,2.6-6.6,5.2
	c-1.2,2.7-1,5.9,0.4,8.4c2.3,4,0.3,9.4-0.1,14c-0.3,3.5-0.9,7.3,0.7,10.4c1.3,2.6,3.9,4.4,4.9,7.1c1.1,3,0.1,6.7,2.2,9
	c2.3,2.6,6.4,1.6,9.8,2.1c5.1,0.8,8.7,5.2,12.2,9s8.1,7.6,13.2,6.8c0.5-0.1,1.1-0.2,1.6-0.2c0.5,0.1,1,0.3,1.4,0.5
	c1.5,0.7,3.5,1.7,4.9,0.8c4.3-2.9,3.6-9.9,2.8-15c-0.2-1.5-0.6-3-1-4.4c-1.4-5.1-2.8-10.1-4.9-14.9c-1.5-3.5-3.4-6.9-4.4-10.6
	c-1.3-4.9-0.8-10.1-1.5-15.1c-0.9-5.9-3.5-11.6-3-17.6c0.2-2.2,0.7-4.5,0.1-6.6c-0.2-0.7-0.5-1.3-0.5-2c0.1-2.1,3-2.7,4.9-2
	c2,0.7,3.6,2.3,4.5,4.2c0.4,0.9,0.7,2,1.2,2.8c0.9,1.5,2.4,2.6,3.9,3.6c0.7,0.5,1.5,1,2.4,1c2.4,0,3.3-3.6,5.6-4.2
	c0.8-0.2,1.7-0.1,2.5-0.2c1.9-0.2,3.3-1.7,4.5-3.1c1.5-1.8,2.9-3.6,4.3-5.4"/>
<path fill="none" stroke="#E1E1E1" stroke-miterlimit="10" d="M316.2,299.5c0.1-1.2,0.3-2.5,0.2-3.7c-0.3-2.7-2-4.9-3.5-7.2
	c-1.2-1.8-2.2-3.9-2-6c0-0.6,0.2-1.2,0.6-1.7c0.8-1.1,2.4-1.2,3.6-1.9c2.6-1.4,3.2-4.9,5.4-6.8c0.4-0.4,0.9-0.7,1.3-1.1
	c0.5-0.5,0.7-1.2,1-1.8c0.5-1.3,1.1-2.6,1.6-3.9c0.2-0.5,0.5-1.1,0.9-1.5s1.3-0.3,1.6,0.2c0.3,0.4,0.1,1,0,1.5c-0.4,2,0.6,4,1.2,6
	c0.3,1.2,0.5,2.4,0.6,3.6c0.4,5,0.2,9.9,0.4,14.9c0.2,5,1,10,3.4,14.4c0.7,1.2,1.5,2.4,2,3.7c1.2,3,1,6.3,2.2,9.3
	c0.8,1.9,2.1,3.5,3.1,5.4c0.7,1.3,1.1,2.8,1.4,4.2c1,3.9,4.6,9,1.8,12c-1.1,1.2-3-1-4-2.2c-1-1.2-1.7-2.7-2.7-3.9
	c-3.1-4-8.4-6.1-10.7-10.7c-0.6-1.2-0.9-2.4-1.4-3.7c-1.6-3.9-4.7-6.9-6.4-10.7C316.5,305,316,302.2,316.2,299.5z"/>
<path fill="none" stroke="#E1E1E1" stroke-miterlimit="10" d="M290,372.7c-1-5.6,6.9-6.7,9-9.6c4.9-7.1,12.1-13.4,20-11
	c11.2,3.4,22.2,4.4,33,9c2.1,0.9,3.2,2.7,5,4c1.1,0.8,3,2,5,1c4-2,3.5-7,3-11c-0.5-4.1-3-8-1.8-11.5c0.9-2.5-0.3-4.8-1.4-7.2
	c-0.6-1.3-1.5-2.4-1.7-3.8c-0.2-1.2,0.2-2.4,0.5-3.6c0.9-4.4-0.3-8.9-1.5-13.2c-0.7-2.7-1.5-5.5-2.9-7.8c-0.4-0.7-0.9-1.3-1.1-2.1
	c-0.3-1.1-0.1-2.2,0-3.4c0.4-3,0.5-6,0.3-9c0-0.8-0.1-1.6,0.4-2.2c0.7-0.9,2.1-0.6,3.2-0.8c1.6-0.2,2.9-1.3,4.2-2.3
	c2.3-1.9,4.5-3.9,6.8-5.8"/>
<path fill="none" stroke="#E1E1E1" stroke-miterlimit="10" d="M240.8,372c-0.2,0.3-0.5-0.3-0.4-0.7c1.3-3.1,3.6-5.8,6.5-7.5
	c0.4-0.2,0.8-0.4,1.1-0.7c0.4-0.4,0.7-1,1-1.5c1.3-2.6,3.1-5.2,5.7-6.2c2.2-0.9,4.1-2.2,6.4-2.7c2.1-0.5,3.1,3,3.4,5.1
	c0.3,2.1-0.1,4.2-0.8,6.3c-0.3,0.9-0.7,1.9-0.5,2.9c0.4,1.9,2.7,3.1,3,5"/>
<path fill="none" stroke="#E1E1E1" stroke-miterlimit="10" d="M167.4,371.9c5.3-5.9,10.9-12,18.2-15.2c0.9-0.4,1.7-0.7,2.5-1.3
	c0.6-0.5,1.2-1.1,1.9-1.4c2.3-0.9,5.3,1.6,7.2-0.1c1.3-1.1,0.9-3.4,2.2-4.4c0.6-0.4,1.4-0.5,2.1-0.7c4.7-0.9,8.1-4.7,11.1-8.4
	c1.2-1.4,2.6-2.9,4.5-2.8c1,0.1,1.9,0.7,2.8,1.2c3.8,2.1,8.9-0.5,12.8,1.4c1.6,0.7,1.2,3.2,1.3,4.9c0.2,2.7,0.5,5.4,0.7,8.1
	c0.2,2.3,0.4,4.6-0.1,6.9c-0.5,2.1-1.6,4-2.7,5.8c-1.7,2.9-3.4,5.8-5.1,8.6"/>
<path fill="none" stroke="#E1E1E1" stroke-miterlimit="10" d="M138.4,372.3c1.2-1.1,2.5-2.2,3.9-3.2c2.4-1.7,5-3.2,7.7-4.6
	c3.7-2,7.5-4.1,11.2-6.1c1.8-1,4.4-2.6,5.7-1.1c1.4,1.6-1.1,4-2.6,5.6c-2.6,2.8-4.9,5.9-6.8,9.3"/>
<path fill="none" stroke="#E1E1E1" stroke-miterlimit="10" d="M171.4,356.5c0.3,0,0.6,0,0.9-0.1c0.4-0.2,0.7-0.5,1-0.8
	c1.1-1.2,3-2.5,2.4-4c-0.4-0.9-2-0.5-2.9-0.1c-1.7,0.6-3.2,2.1-3.1,3.8c0,0.2,0.1,0.5,0.2,0.7C170.1,356.4,170.8,356.5,171.4,356.5z
	"/>
<path fill="none" stroke="#E1E1E1" stroke-miterlimit="10" d="M19.7,356.9c0.5-0.1,0.9-0.4,1.3-0.7c0.6-0.5,1-1.3,1.4-2
	c0.4-0.7,1.2-2,0.4-2.3c-0.2-0.1-0.4-0.1-0.5-0.3c-0.3-0.5-1.1-0.3-1.6-0.1c-0.5,0.2-0.9,0.7-1.2,1.1c-0.6,0.8-1.1,1.7-1.6,2.6
	c-0.1,0.3-0.3,0.6-0.2,0.9C17.8,356.9,18.9,357.2,19.7,356.9z"/>
<path fill="none" stroke="#E1E1E1" stroke-miterlimit="10" d="M126.8,133.9c0.8-0.9,1.5-1.9,2.5-2.6c0.9-0.6,1.9-0.9,2.9-1.2
	c1.9-0.7,3.7-1.6,5.3-2.7c0.8-0.5,1.5-1.1,2-1.9c0.5-0.8,0.6-1.9,0.1-2.7c-0.5-0.8-1.5-1.2-2.4-1.1c-0.9,0-1.8,0.4-2.7,0.8
	c-0.9,0.4-1.9,0.8-2.8,1.2c-0.8,0.3-1.6,0.7-2.4,1.1c-1,0.6-1.9,1.4-2.8,2.2c-2.8,2.5-5.6,5.1-8.5,7.6c-0.7,0.7-1.8,1.2-1.9,2.2
	c-0.1,1,1.2,1.6,2.2,1.7s2-0.2,2.9-0.6C123.3,137,125.3,135.6,126.8,133.9z"/>
<path fill="none" stroke="#E1E1E1" stroke-miterlimit="10" d="M-11.5,370.9c4.1-13.7,12.6-25.5,21-37.1c2.9-4,5.8-8,9.4-11.4
	c2.7-2.5,5.8-4.7,8.7-7c5.8-4.7,10.2-10.8,15.1-16.5c2-2.4,5.8,0.6,7.6,3.2s4.4,3.3,7.4,4.3c1.9,0.7,3.6,0.9,5.2,2.3
	c1.8,1.6,3.2,2.8,4.9,4.4c1.7,1.5,1.4,4.3,2.6,6.2c0.6,1,1.6,1.8,2.6,2.4c5.9,3.9,12.6,6.5,19.6,7.5c3.4,0.5,7.1,0.6,10.1,2.4
	c0.8,0.5,1.6,1.1,2.6,1.3c0.9,0.1,1.7-0.1,2.5-0.4c6-2.5,9.3-9.3,8.7-15.8c-1.4-16-10.9-8.4-11.1-14.8c-0.1-4.3,8.1-5.2,7.7-9.5
	c-0.3-4.2-7.7-8-5.1-11.3c6-8,16.9-11.8,17.7-21.7c0.1-1.2,0.1-2.4,0.7-3.5c0.4-0.7,1.1-1.2,1.5-1.9c0.7-1,1-2.2,1.3-3.4
	c0.6-2.4,3.3-5.3,1.7-7.1c-1.9-2-7.5,1.8-7.1-0.9c0.2-1.6,2.4-1.3,3.5-2.5s1.1-3.4-0.3-4.1c-0.8-0.4-1.8-0.2-2.6-0.1
	c-3.2,0.6-6.4,0.8-9.6,0.8c-5,0-14.2-1.5-12.6-6.3c0.5-1.3,1.2-2.4,0.7-3.8c-1.6-5.1,2.8-13.5-2.1-15.7c-2.6-1.1-4.1-1.8-6.5-3.3
	c-4.2-2.5-9.2-3.2-14-3c-1.4,0-2.8,0.5-4.2,0.4c-3.4-0.3-6.3-2-9.7-2.4c-3.1-0.4,2.1-7.1-0.6-8.7c-0.6-0.4-1.3-0.3-2-0.5
	c-1.9-0.5-2.9-2.6-3.7-4.4c-1.2-2.9-2.5-5.8-3.7-8.7c-0.8-1.8-1.5-3.5-1.7-5.4c-0.2-2.8,0.9-5.5,2-8.1c0.9-2.2,1.9-4.4,2.8-6.6
	c0.7-1.6,1.4-3.4,0.8-5c-0.3-0.8-0.8-1.5-1.3-2.2c-2.2-2.8-4.3-5.6-6.5-8.4c-1.3-1.7-4-1.2-5.2-3c-0.6-1-0.3-2.3-1.4-2.3
	c-1.1,0-2.1,0.8-2.9,1.6c-8.1,7.5-16.3,15.5-20.1,25.8c-0.7,2-1.3,4.1-2.5,6c-2,3.2-5.6,5-9.1,6.3c-5.5,2.2-11.3,3.6-16.7,6.1
	c-5.4,2.5-10.4,6.3-12.7,11.8"/>
<path fill="none" stroke="#E1E1E1" stroke-miterlimit="10" d="M-15.1,209c5.7-6.5,11.8-13.2,20.1-15.9c2.8-0.9,5.8-1.3,8.6-2
	c6.3-1.5,11.3-11.2,17.3-8.7c2.1,0.9,0.4,4.5,0.6,6.8c0.4,4.3,1.1,9.3,4.8,11.5c1.7,1,3.8,1.3,5.9,1.5c4.3,0.4,11.6-2.9,12.8,1.2
	c0.5,1.7-1.9,3.1-1.3,4.7c0.6,1.6,2.3,3.1,4,2.8c0.8-0.1,1.5-1.1,2.3-0.8c0.8,0.4,1.1,1.8,2,1.6c2.2-0.6,3,3,5.2,2.8
	c2-0.2,3.7-1.8,5.1-0.4c1.5,1.4,2.1,3.5,3.6,5c1.3,1.3,3.1,2.1,4.7,2.9c3.2,1.7,6.7,3.6,8.3,6.8c3.4,7.1-1.8,16.2-8.5,20.4
	c-1.3,0.8-3.9,2.4-2.7,3.4c2.2,1.7,7.6-0.6,7.8,2.2c0.3,4.4-10.7,4.8-9.5,9c1.8,6.3,14.2-5.6,19.2-1.4c3.7,3.1-1.6,9.5-2.4,14.2
	c-0.6,3.2-1.1,6.7,0.4,9.6c0.5,1.1,1.3,2,1.8,3.1c1.2,2.8,0.6,8.5-2.4,8.2c-1.6-0.2-3.1-1.3-4.5-0.4c-1.3,0.9-0.3,2.9-1.1,4.3
	c-1.2,2-0.6,4.8-2.6,6c-0.8,0.4-1.7,0.2-2.6-0.1c-2.1-0.7-4.1-1.4-6.2-2.1c-3.5-1.2-7-2.4-10.2-4.1c-5.5-3-10.4-8.4-10.1-14.6
	c0-0.5,0.1-0.9,0.3-1.3c0.3-0.6,0.9-0.9,1.4-1.3c2.3-1.6,4.3-3.6,6-5.9c0.3-0.4,0.6-0.8,0.6-1.3c0-1-1.1-1.6-1.9-2.3
	c-1.7-1.5-1.9-4.1-3.2-5.9c-2-2.8-6.2-3-9.5-2.3c-9.5,1.9-18.1,9-20.9,18.4c-0.2,0.7-0.4,1.4,0,2c0.4,0.7,1.4,0.9,2.3,0.9
	c1.6,0,3.2,0,4.6,0.6c1.5,0.6,2.7,2,2.5,3.6c-0.2,1.1-1.1,2-1.9,2.8c-2.4,2.2-4.8,4.5-7.2,6.7c-1.8,1.7-4.1,2.7-5.8,4.5
	c-1.7,1.7-3.2,3.6-4.6,5.4c-1.9,2.4-3.8,4.7-5.7,7.1c-4.6,5.8-9.3,11.6-13.7,17.6c-1.3,1.8-2.6,3.6-4.1,5.2c-0.9,1-1.9,1.9-2.6,3.1
	c-0.6,1.1-0.8,2.5-1.3,3.7c-0.9,2.1-2.6,3.9-4.7,4.7"/>
<path fill="none" stroke="#E1E1E1" stroke-miterlimit="10" d="M-12.7,333.8c1.4-3.9,2.9-7.9,5.3-11.3c2.6-3.7,6.4-6.7,8.4-10.8
	c1.7-3.4,2.2-7.6,5.3-9.8c0.8-0.6,1.8-1,2.4-1.8c0.4-0.6,0.6-1.3,0.8-2c3.5-13.8,9.8-26.8,18.5-38c2.5-3.1,5.2-6.3,8.9-7.8
	c2.4-1.1,5.1-1.4,7.6-2.3c4-1.4,7.5-4.2,11.6-5.5c0.8-0.2,1.7-0.5,2.1-1.2c0.4-0.6,0.2-1.4-0.1-2c-1.2-2.6-4.8-3.2-6.2-5.7
	c-0.4-0.7-0.6-1.5-1.1-2.2c-0.4-0.5-0.9-1-1.5-1.2c-3.4-1.2-4.3-2.8-6.3-5.1c-0.9-1.1-5.2-0.4-6.3-1.3c-1.3-1.1-4.2-1.5-5.5-2.5
	c-5-3.6-8.9-5.8-13.9-9.3c-1.4-0.9-2.4,1.7-3.7,2.7c-1.5,1.1-3.6,0.4-5.4,0.5c-2.3,0.1-4.3,1.6-6.1,3.1c-6.5,5.3-13,10.5-19.5,15.8"
	/>
<path fill="none" stroke="#E1E1E1" stroke-miterlimit="10" d="M-13.4,250.6c1.8,0,3.5,1,5.3,1.2c1.7,0.1,2.9-2.4,4.5-1.9
	c1.8,0.6,2.6,3.1,4.2,2.2c0.9-0.5,2.3-1.9,2.7-1c0.6,1.2,0.4,2.7,1.4,3.5c1,0.8,2.4-0.4,3.6,0.2c1.6,0.7-0.8,3.5-2.1,4.8
	c-1.3,1.3-2.8,2.3-4.1,3.5c-2.2,2.2-3.7,5.1-4,8.2c-0.1,0.5-0.1,1-0.3,1.5c-0.2,0.5-0.6,0.8-1,1.2c-1.9,1.5-4.1,2.7-5.6,4.6
	c-1.8,2.4-2,5.6-2.6,8.5c-0.6,2.9-1.8,6.1-4.6,7.2"/>
<path fill="none" stroke="#D6D6D6" stroke-miterlimit="10" d="M331.7-11.5c0.2,0.8-0.3,1.9,0.1,2.9c1,2.4,1.5,5-0.5,6.5
	c-0.4,0.3-0.8,0.9-0.6,1.4c0.1,0.3,0.3,0.4,0.5,0.7c0.6,0.7,0.6,1.6,0.7,2.5c0.2,3,0.9,5.9,2,8.6c0.5,1.3,1.3,2.7,2.7,2.8
	c0.5,0,1-0.2,1.4-0.3c1.6-0.6,3.2-2.6,4.7-1.8c1.4,0.8,1.4,4,0,4.7c-1.1,0.5-2.6,1.3-1.9,2.3c1.5,2,5.1-1.4,7,0.2
	c0.4,0.3,0.6,0.8,0.7,1.3c0.7,2.1-1.6,5.9,0.5,6.5c3,0.8,4.9,2,4,5.3c-0.6,2.4,0.1,5.2,1.9,6.9c1.7,1.6,4.8,1.8,5.6,4.1
	c0.7,2.1-1.3,4.6-0.3,6.6c0.2,0.5,0.6,0.8,1,1.2c1.6,1.5,3.3,3,5.4,3.2c1.2,0.1,2.4-0.3,3.5-0.8"/>
<path fill="none" stroke="#D6D6D6" stroke-miterlimit="10" d="M352.2,28.2c1,1.1,2.8,0.5,4-0.2c1.2-0.8,2.7-1.7,4-1.1
	c1.7,0.7,2.5,4.5,4,3.5c1-0.6,1.6-1.7,2.7-1.7c0.4,0,0.9,0.2,1.3,0.1c0.5-0.1,0.9-0.3,1.2-0.7"/>
<path fill="#7BBCEB" stroke="#4E9BD7" stroke-miterlimit="10" d="M234.2,193.5c1.8,0.7,5.6,2.1,7.3,3.5c1.5,1.3,3.3,2.6,3.8,4.6
	c0.4,1.6,0.9,3.8-0.7,4.4c-1.4,0.5-3.1-0.4-4.4,0.2c-0.7,0.4-1.3,1-2.1,1.4c-2.6,1.6-6,0.8-9.1,0.3c-0.5-0.1-1.1-0.2-1.6,0
	c-0.6,0.2-1.1,0.6-1.6,1c-1.4,1-3.1,1.7-4.9,1.8c-4.9,0.4-6.7-2-9.1-2.7c-2.3-0.7-1.5,0.8-4.8-0.7c-0.5-0.2-1-0.4-1.4-0.8
	c-0.2-0.2-0.3-0.9-0.4-1.2c-0.4-1.8-2.3-2.5-3.8-3.5c-1.4-0.9-2.6-1.7-4.2-2.8c-1.7-1.3-3.3-4-5.4-4.2c-1.2-0.1-2.1,0.6-3-0.2
	c-0.5-0.4-1.9-1.9-2.2-2.2c-1.7-1-1.6-3.6-3-5c-1.5-1.5-3.8-2-5.5-3.2c-2.8-1.9-6.6-4.2-6.1-9.8c0.2-2.7,1.2-5.8-0.7-7.7
	c-0.2-0.2-0.5-0.4-0.8-0.4c-0.5,0-0.7,0.6-0.9,1.1c-0.7,1.5-2.8,0.4-4.3,1.1c-0.8,0.3,0.3,2.1-0.4,2.4c-1.4,0.7-3.3,0.2-3.5,1.8
	c-0.1,0.8,0.2,1.6,0.5,2.3c0.8,2.2,1.4,4.9,0.1,6.9c-0.6,0.8-1.4,1.4-2.3,2c-2.9,1.9-6.6,4.3-10,3.8c-5.4-0.8-9.5-6.8-14.7-4.6
	c-0.3,0.1-0.7,0.2-1,0.5c-0.3,0.4-0.2,1.1-0.4,1.6c-0.3,0.9-1.5,1-2.4,1.1c-2.2,0.1-4.9,0-5.8-2c-0.4-0.9-0.4-1.9-0.3-2.9
	c0.2-2.7,0.4-5.4,0.6-8.1c0.1-0.9,0.1-1.8,0.7-2.4c1.5-1.7,5.3-0.5,5.9-2.7c0.2-0.6,0-1.2,0.3-1.7c0.3-0.4,0.8-0.6,1.2-0.9
	c3.2-2,1.2-7.8,4.2-10.1c1.4-1.1,4.4-0.5,6.2-0.8c3.5-0.5,2.9-3.7,9-2c1.4,0.4,2.9,1.6,3.8,2.8c0.4,0.6,0.9,1.2,1.6,1.4
	c0.5,0.1,1,0,1.6,0.1c1.6,0.2,2.4,1.9,3.7,2.8c1,0.7,2.7,1,3.8,0.4s0.3-1.9,1.1-2.9c1.1-1.5,2.7-0.1,4.3-1c1.5-0.8,4.6-0.8,5.7,1.1
	c0.7,1.1,0.3,2.6,0.2,3.9c-0.1,1.3,0.3,2.9,1.6,3.2c0.4,0.1,0.7,0,1.1,0.1c0.9,0.3,1.1,1.5,1,2.4c-0.2,0.9-0.6,1.9-0.3,2.8
	c0.3,1.1,1.5,1.8,2.7,1.9c1.2,0.1,2.3-0.3,3.4-0.6c3-0.8,6.2-1,9.2-0.6c1,0.1,2,0.4,2.5,1.2c0.4,0.6,0.3,1.4,0.4,2.1
	c0.4,2.5,3.1,4.1,5.6,4.8c2.5,0.7,4.5,1.5,6.7,2.9c1.5,1,3.1,2.5,4.4,3.8c2.1,2.2,3,1.1,4.6,2.4c1,0.8,2.2,3.4,3.6,3.4
	c2.4,0,0.6-1.7,1.4-2.8c1-1.3,4.4-0.6,5.4,0.7C233.6,190.8,231.5,192.4,234.2,193.5z"/>
<path fill="#EAEAEA" stroke="#D6D6D6" stroke-miterlimit="10" d="M315.5,215.9c0.3,0,0.5,0.2,0.8,0.2c0.6,0,0.7-0.8,0.8-1.3
	c0.1-1.3,0.1-2.6,0.1-3.9c0-0.4,0-0.7-0.1-1.1c-0.2-0.5-0.6-0.8-1.1-1.1c-1.4-0.9-2.9-1.7-4.5-2.4c-0.4-0.2-0.8-0.3-1-0.7
	c-0.1-0.2-0.1-0.5-0.2-0.7c-0.3-0.8-1.4-1-2.3-1.1c-1.5-0.1-2.9-0.3-4.4-0.4c-0.6-0.1-1.4-0.1-1.8,0.5c-0.5,0.7,0,1.7-0.4,2.5
	c-0.4,0.7-1.4,0.8-2,1.4c-0.5,0.5-0.5,1.3-0.5,2c0,1.2,0,2.4,0,3.7c0,0.4,0,0.9,0.2,1.2c0.3,0.5,1,0.6,1.4,1.1c0.9,1-0.2,3.1,1,3.7
	c0.3,0.2,0.7,0.1,1.1,0.1c1.9-0.2,3.8-0.4,5.7-0.5c0.6-0.1,1.2-0.1,1.7,0.1c0.4,0.2,0.7,0.4,1,0.6c1.3,0.7,3.2-0.2,3.5-1.7
	C314.6,217.1,314.7,215.9,315.5,215.9z"/>
<path fill="#EAEAEA" stroke="#D6D6D6" stroke-miterlimit="10" d="M79.8,275.6c-1.5-0.4-2.8-1.7-4.4-1.8c-0.6,0-1.2,0.1-1.8,0
	c-0.5-0.1-1-0.5-1.4-0.8c-1.6-1.1-3.7-1.4-5.5-0.7c-0.4,0.1-0.7,0.3-0.9,0.6c-0.4,0.6-0.1,1.3,0.2,1.9c0.4,0.6,0.9,1,1,1.7
	c0.3,1.1-0.4,2.2-1.3,2.9s-2,1.1-2.9,1.7c-2.1,1.4-2.9,3.8-2.6,6.3c0.1,0.4-0.3,1.1-0.3,1.5c0,0.4-0.1,0.9-0.1,1.3
	c-0.2,2.2,0.9,4.4,2.6,5.8c0.7,0.6,1.5,1.1,1.9,1.9c0.2,0.4,0.3,1,0.6,1.3c0.3,0.3,0.7,0.5,1.1,0.6c1.9,0.6,3.9,1.2,5.8,1.8
	c0.7,0.2,1.4,0.4,2.1,0.3c1.8-0.4,2.2-3,3.6-4.2c1.8-1.6,4.8-0.6,6.9-1.6c1.7-0.9,2.6-2.9,4-4.1c0.4-0.3,0.8-0.6,1-1
	c0.4-0.6,0.3-1.3,0.2-2c-0.2-1.6-0.1-3.2-0.3-4.9c-0.1-0.7,0.1-1.7-0.2-2.3c-0.3-0.8-0.8-1.5-1.4-2.2c-1.4-1.7-3.6-3.1-5.7-3.5
	C81.5,275.8,80.6,275.8,79.8,275.6z"/>
<path fill="#EAEAEA" stroke="#D6D6D6" stroke-miterlimit="10" d="M71.9,83.8c-0.5,1.2-0.3,2.7-0.4,4c0,0.4-0.1,0.7-0.3,1
	c-0.3,0.4-0.6,0.9-1.1,1.1c-1.8,0.7-3.6,1-5.3,0c-0.9-0.5-2-1.5-2.8-2.3c-1.3-1.4-3-2.4-4.8-2.9c-0.8-0.2-1.6-0.3-2.3-0.7
	c-0.7-0.4-1.4-0.9-0.8-1.4c1.4-1.1,2.4-2.4,2.7-4.1c0.2-1.8,0.1-3.8,1.4-5c0.5-0.5,1.3-1.4,1.9-1.7c3.6-1.6,7.4-2.7,11.3-1.8
	c2.1,0.5,4.2,2,4.4,4.1c0.1,0.9,0,2.1-0.2,2.9C75,78.8,74.1,80.4,73,82C72.6,82.6,72.2,83.1,71.9,83.8z"/>
<path fill="none" stroke="#D6D6D6" stroke-miterlimit="10" d="M60.2,119.6c-3.5,2.1-6.1,5.4-8.3,8.7c-6.4,9.6-10.7,20.5-12.5,31.9
	c-0.7,4.3-1,8.6-2.4,12.7c-4.3,12.8-18.2,21.6-19.8,35c-0.7,6,1.1,12.7-2.3,17.8c-2.5,3.8-7.3,5.4-10.8,8.3c-4,3.3-6.3,8.4-7.3,13.5
	c-1,5.1-0.7,15.1-1.2,16.6"/>
<path fill="none" stroke="#D6D6D6" stroke-miterlimit="10" d="M53.8,83.2c-2.9,0.3-5.7,2.3-6.9,5c-0.7,1.5-1,3.3-2.1,4.5
	c-1.5,1.5-3.8,1.7-5.9,1.6c-2.2-0.1-4.3-0.3-6.5-0.6c-2.5-0.4-5.3-0.9-7.5,0.3c-1.2,0.7-2.3,1.8-3.7,1.8c-0.5,0-1-0.2-1.5-0.2
	c-1.1-0.1-2.1,0.6-3,1.2c-2.9,1.9-5.9,4.1-6.9,7.4c-0.3,1.1-0.5,2.4-1.5,3.1c-0.3,0.2-0.8,0.3-1.1,0.4c-4.2,2-7.3,6-10.7,9.1
	c-0.4,0.4-0.7,1-0.6,1.6c0.1,0.4,0.4,0.6,0.6,1c0.6,1-0.7,2.2-0.4,3.4c0.1,0.7,1.7,0.5,1.7,1.2c0,1.2-2.1,1.3-3.2,1.6
	c-0.3,0.1-0.6,0.2-1,0.1c-1.4-0.3-1-3-2.3-3.3c-0.2,0-0.4,0-0.6,0c-1.9,0.2-3.7,0.4-5.6,0.6"/>
<path fill="none" stroke="#D6D6D6" stroke-miterlimit="10" d="M66.2,264.3c-0.1,1.4-0.3,3.2-0.3,4.6c0,0.5,0,1,0,1.4
	c0.1,0.6,0.3,1.2,0.7,1.8"/>
<path fill="#EAEAEA" stroke="#D6D6D6" stroke-miterlimit="10" d="M196.2,156c-0.4,0.7-0.3,1.7,0.2,2.3c0.2,0.2,1.4,1.1,1.9,0.8
	s0.7-0.9,0.8-1.4c0.2-0.8,0.2-1.8-0.5-2.2C198.1,155.2,196.6,155.3,196.2,156z"/>
<path fill="#FFFFFF" stroke="#4E9BD7" stroke-miterlimit="10" d="M215.7,191.6c0.1,0.1,0.2,0.2,0.3,0.3c0.4,0.3,0.4,0.8,0.4,1.3
	c0.1,0.5,0.2,1.1,0.5,1.5c0.3,0.4,0.8,0.8,1.3,0.7c0.7-0.1,1.1-0.7,1.4-1.3c0.3-0.6,0.5-1.3,1-1.8c0.1-0.1,0.3-0.2,0.4-0.4
	c0.1-0.2,0.1-0.4,0-0.6c-0.3-1-1.4-1.4-2.4-1.7c-0.8-0.3-1.7-0.5-2.5-0.8c-0.1,0-0.2-0.1-0.2,0c-0.2,0-0.3,0.3-0.4,0.5
	c-0.1,0.7-0.1,1.3,0,2C215.5,191.3,215.6,191.4,215.7,191.6z"/>
<path fill="#FFFFFF" stroke="#4E9BD7" stroke-miterlimit="10" d="M210.5,198.3c-0.4,0-0.8-0.1-1.1,0.1c-0.2,0.1-0.3,0.3-0.4,0.4
	c-0.5,0.5-1.2,0.7-1.9,0.5c-0.7-0.2-1.2-0.7-1.4-1.4c-0.2-0.7,0.1-1.5,0.3-2.2c0.2-0.7,0.4-1.3,0.7-2c0.2-0.5,0.3-0.9,0.7-1.2
	c0.4-0.3,0.9-0.3,1.4-0.3c0.7,0,1.4,0,2.1,0c0.6,0,1.2,0,1.7,0.2c0.5,0.2,0.8,0.7,1.2,1.1c0.5,0.7,1,1.3,1.6,2
	c0.4,0.5,0.9,1.2,0.8,1.9c0,0.3-0.1,0.6-0.4,0.7c-0.4,0.2-0.8-0.1-1.1-0.4c-0.6-0.5-1.5-1.2-2.1-0.7
	C211.9,197.5,211.4,198.4,210.5,198.3z"/>
<path fill="none" stroke="#4E9BD7" stroke-miterlimit="10" d="M146.6,187c0.4,1.9-0.6,3.9-1.9,5.3c-1.2,1.4-2.7,2.8-2.8,4.6
	c-0.1,1.5,0.8,3.3-0.2,4.5c-0.3,0.4-0.8,0.7-1.2,0.9c-6.7,4-8.7,12.9-7.5,20.6c0.3,1.7,0.7,3.4,0.5,5.1c-0.2,2.8-1.9,5.3-4,7.3
	c-2,2-4.9,3-7.1,4.7c-4.6,3.7-7.8,9-12.1,13.1c-7.8,7.5-17.7,12.6-28.3,14.7c-1.1,0.2-2.1,0.4-3.2,0.3c-1.2-0.1-2.4-0.5-3.6-1.1
	c-8.7-4.1-9.1-1-9.2-2.6c-0.1-2.4,3.2-6.2,0.9-7.2c-5-2.2-5.1-4.4-2.8-9.7c1-2.3-4.1-2.9-6.1-4.4c-1.3-0.9-3.5-1.2-5-0.7
	s-3.2,1.2-4.7,0.6c-2.3-0.9-3-4.6-5.5-4.8c-1.1-0.1-2.2,0.6-3.3,0.8c-1.5,0.3-3-0.5-4.4-1c-1.4-0.5-3.2-0.8-4.4,0.1
	c-0.6,0.5-1,1.3-1.4,2c-1.3,2.4-3.3,4.5-5.7,5.9c-1.3,0.8-2.8,1.4-4.2,2c-5,2.2-9.6,5.2-13.7,8.8c-0.2,0.2-0.4,0.4-0.7,0.5
	c-0.3,0.1-0.7,0.1-1,0.1c-0.8,0.1-1.4,0.6-2.1,1.1c-2.1,1.6-4.2,3.3-5.9,5.2c-0.6,0.7-1.2,1.4-1.8,2c-0.6,0.5-1.2,0.9-1.9,1.2
	c-3.2,1.8-6.4,3.6-9.5,5.4"/>
<g>
	<g>
		<path fill="none" stroke="#585858" stroke-miterlimit="10" d="M144.8-9.8c0.4,0.4,1.4,0.2,1.6,0.7c0,0.1,0,0.1,0,0.2"/>
		<path fill="none" stroke="#585858" stroke-miterlimit="10" stroke-dasharray="3.988,0.997" d="M146.1-8c-0.4,0.6-1.1,1.3-0.8,1.8
			c0.7,1.1,3.8,1.4,2.9,2.4c-0.6,0.7-2.5,0.1-2.4,1c0.1,0.9,1.9,0.5,2.4,1.2c1.6,2.9-0.9,6.6-0.6,9.9c0.1,1,0.1,2.1,0.6,3
			c0.4,0.9,1.6,2.5,2.3,1.8c0.4-0.4,1-1.1,1.3-0.5c0.6,1.4,0.3,3,0.8,4.5c0.2,0.7-0.9,1.9-1.7,1.8c-1-0.2-1.3-2.4-2.4-2.1
			c-3.1,0.7-1.4,6.3-0.7,9.4c0.2,1,0.6,2.1,0.5,3.1c0,0.7-0.2,1.3-0.1,2c0.3,1.5,2.1,2.2,2.6,3.7c0.6,1.8-1,3.5-2.5,4.7
			c-1.4,1.2-2.9,3.1-2.1,4.8c0.2,0.5,0.6,0.8,0.7,1.3c0.1,0.7-0.5,1.4-1.1,1.8c-2.5,2.1-4.9,4.1-7.4,6.2c-1,0.8-1.9,1.6-2.9,2.5
			c-1.5,1.3-1.9,3.7-3.7,4.7c-1.4,0.8-3.2-0.1-4.7,0.3c-1.1,0.3-2.3,0.9-2.7,2c-0.3,0.8-0.1,1.6-0.1,2.5c0,2-1,3.8-2.3,5.3
			c-2.5,3-6,5.1-9.3,7.1c-2,1.2-4,2.4-6.1,3.6c-4.4,2.6-9.4,4.7-13.4,7.8c-2.2,1.7-4.1,3.7-6.4,5.2c-3.2,2.2-7,3.5-10.4,5.5
			c-9.6,5.8-14.8,17-24.2,23.1c-2,1.3-4.1,2.3-5.9,3.9c-3.3,3-4.7,7.5-5.9,11.8c-2.4,8.3-4.9,16.6-7.3,24.9
			c-2.1,7.1-4.3,14.3-8.4,20.5c-4.1,6.1-10.5,11.2-17.9,11.8c-1.4,0.1-2.9,0.1-4.2,0.7c-2,0.9-3.1,3.2-4.1,5.2
			c-3.2,6.6-7.3,12.8-12.2,18.3"/>
		<path fill="none" stroke="#585858" stroke-miterlimit="10" d="M-13.7,220.8c-0.4,0.5-0.9,1-1.4,1.5"/>
	</g>
</g>
<g>
	<g>
		<path fill="none" stroke="#585858" stroke-miterlimit="10" d="M201.7-10.6c-0.3,0.8-0.6,1.3-0.9,1.8"/>
		<path fill="none" stroke="#585858" stroke-miterlimit="10" stroke-dasharray="3.9953,0.9988" d="M200.1-8.1
			c-0.5,0.6-0.9,1.1-1.5,2.4c-0.4,0.9-0.4,0.6,1,2c0.7,0.7-2.3,2.5-1,3c0.2,0.1,1-0.2,1,0c0,1-1.8,0.5-2,1c-0.8,1.8,0.4,3.6-1,5
			c-0.7,0.7-1.5-0.2-2,0c-1.3,0.5,0,1,1,2s-0.6,0.1-1,1c-0.5,1.3,3.5,0.7,4,2c0.4,0.9-2.1,0.5-3,1c-1.9,1.2,2.3,3,2,5
			c-0.5,3.1-6,0-6,2c0,3,6,0,6,4c0,3-6.9,4.9-4,9c2.1,2.9,0.8,7,0,10c-2.5,8.9-1,17.8-2,27c-0.4,4-4.5,6.9-5,11c-0.2,2,4,4,1.1,6.1
			c-1,0.7-3-0.4-3.9,0.5c-0.7,0.8,1.7,1.8,1.3,2.8c-0.6,1.5-5,1.5-3.7,2.5c1.5,1.3,4.1,0.3,4.9,2.1c0.2,0.4,0.3,0.9,0.7,1.1
			c0.3,0.2,0.7,0.1,1,0.1c1.3-0.1,2.7,0,3.6,0.9c0.3,0.3,0.5,0.7,0.9,1c1.5,1.4,4,0.2,5.8,1.1c0.8,0.4,1.3,1.1,1.9,1.8
			s1.5,1.1,2.3,0.8c0.7-0.3,1.1-1,1.6-1.6c0.5-0.6,1.5-1.4,2-0.8c0.6,0.8-0.4,2.6,0.6,3.1c0.9,0.4,1.7-2,2.5-1.5
			c1.2,0.7-1.3,2.8-0.6,4c0.5,0.8,1.6-0.6,2.4-1s2.1-0.1,2,0.8c-0.1,0.3-0.4,0.6-0.6,0.8c-1.3,1.1-3,2.7-2.5,4.4
			c0.3,1,1.7-2,2.5-1.3c0.2,0.2,0.2,0.4,0.2,0.6c0,1.8-0.7,3.6-1.9,4.9c-0.7,0.8-2.5,2.3-1.5,2.7c0.7,0.4,1.6,0.4,1.8,1.2
			c0.2,0.8-0.2,1.6-0.4,2.4c-0.7,2.5,0.4,5.1,0,7.7c-0.2,1.5-0.9,3-1,4.6c0,0.6,0,1.3-0.2,1.9c-0.5,1.1-0.7,2.1-1.2,3.2
			c-0.6,1.2-4.3,0.7-3.4,1.7c0.3,0.4,1.4,0.5,1,0.9c-0.7,0.8-2.5-0.8-3.1,0c-0.5,0.8,2.1,1.6,1.6,2.5c-0.6,1-2.6-0.5-3.4,0.3
			c-1.3,1.3-0.2,3.5-0.9,5.2c-0.3,0.7-0.8,1.2-1.3,1.8c-0.9,1.2-0.5,3.1-1.7,4c-1.9,1.5-3.6,2.2-5.3,3.8c-0.4,0.3-1.3,0.3-1.5-0.2
			c-0.4-0.9-1.1-1.7-2-1.3c-0.9,0.4-0.7,2-1.6,2.4c-1.9,0.9-3.6-2.2-4.3-4.1c-0.3-0.7-0.5-1.4-1.1-1.8c-0.5-0.4-1.2-0.4-1.8-0.3
			c-3.1,0.3-5.9,1.8-9,2.1c-2.1,0.2-3.9-1.5-6-1.3c-0.3,0-11.6-4.2-17.1-4.2c-4.8-0.1-9.1,2.9-12.8,5.9c-4.4,3.6-8.9,7.5-11.2,12.7
			c-1,2.2-1.6,4.6-1.6,7c0,2.5,1,4.7,1.6,7.1c0.4,1.6-0.1,3.6,0.8,4.9c0.6,1,3.3,2.1,3.8,3.2c0.4,0.9-0.3,3.8-0.2,4.8
			c0.5,4.4,0.9,6.7,0.8,11.1c-0.2,5.8-1.7,11.4-2.6,17.1c-0.7,4.7-1.5,9.6-4,13.7c-2.7,4.4-7.1,7.5-11.7,9.9
			c-9.6,5-20.3,7.5-30.9,10c-2,0.5-4,0.9-6,1.4c-1.3,0.3-2.8,0.5-3.8-0.4c-0.3-0.3-0.5-0.7-0.8-1.1c-1.4-2.6-2.6-6.2-0.4-8.2
			c1.2-1.1,3-1.2,4-2.5c0.8-1,0.7-2.6-0.2-3.5c-0.9-0.9-2.2,0-3.5-0.3c-0.8-0.2-0.3-1.7-0.9-2.2c-2.1-1.5-4.3,3.7-6.7,3
			c-0.6-0.2-1.1-0.6-1.6-1.1c-1.7-1.5-2.7-4.7-5-4.6c-2.4,0.1-2.6,4.5-4.9,5.1c-2.3,0.6-1.7-4.4-3.5-5.9c-2.3-1.9-6.2,2.2-8.6,0.5
			c-0.5-0.4-0.4-1.5-1.1-1.6c-1.3-0.2-3.2-0.6-4-1.6c-0.7-1-1.8-2.3-3-1.8c-0.4,0.2-0.7,0.5-1.1,0.8c-0.9,0.7-2.2,0.4-3.3,0.6
			c-0.9,0.2-0.9,1.6-0.5,2.5c0.4,0.9,0.9,1.7,0.9,2.6c-0.1,0.9-1.3,1.8-1.9,1c-0.2-0.2-0.2-0.5-0.4-0.8c-0.6-1-2.3,0-2.4,1.2
			c-0.2,1.1,0.9,2.6,0.2,3.5c-0.7,0.8-1.8-0.5-2.4-1.4c-0.8-1.1-2.5,0.7-3.1,1.9c-0.6,1.2-1.6,2.6-2.9,2.3c-0.6-0.2-1.1-0.7-1.7-0.9
			c-1.2-0.4-2.4,0.4-3.3,1.3c-0.8,0.9-1.5,2.1-2.6,2.6c-0.4,0.2-0.9,0.3-1.3,0.5c-1.8,1.2-0.7,4.4-2.2,6c-1.4,1.4-4,0.5-5.6,1.7
			c-0.7,0.5-1,1.4-1.7,2c-1.1,1-2.8,0.8-4.3,0.9c-0.6,0-1.3,0.1-2,0.3"/>
		<path fill="none" stroke="#585858" stroke-miterlimit="10" d="M-12.9,259.3c-0.6,0.3-1.1,0.8-1.3,1.5"/>
	</g>
</g>
<g>
	<g>
		<path fill="none" stroke="#585858" stroke-miterlimit="10" d="M370.4,4.3c-0.6-0.4-1.2-0.6-1.9-0.4"/>
		<path fill="none" stroke="#585858" stroke-miterlimit="10" stroke-dasharray="4.1118,1.028" d="M367.6,4.4c-2.3,1.6-4,0.9-5,2
			c-6.3,6.8-17.6,4.5-26,3c-1-0.2-0.8-3.5-3-4c-2.9-0.7-6.1,0.1-7-2c-1.2-2.9-0.5-6.2-2-9c-1.2-2.2-2.9-3.1-4.8-4"/>
		<path fill="none" stroke="#585858" stroke-miterlimit="10" d="M319.4-9.8c-0.6-0.3-1.2-0.6-1.8-0.9"/>
	</g>
</g>
<path fill="none" stroke="#585858" stroke-miterlimit="10" stroke-dasharray="4,1" d="M146.7,46.8c1.3,0.6,0.9,1.1,1.6,1.2
	c0.5,0.1,0.5,0.3,1,0.3c2.9-0.2,5.9-0.5,8.8-0.7c2.5-0.2,5.2-0.4,7.3-1.7c1.1-0.7,2.7-1.6,3.6-0.6c0.2,0.3,0.4,0.7,0.4,1
	c0.4,1.7,0.7,3.8,2.4,4.4c0.7,0.2,1.5,0.1,2.3,0.1c2.3,0.1,4.1,2.1,6.4,2.6c0.4,0.1,0.8,0.1,1.2,0c1.2-0.5,0.9-2.3,0.9-3.7
	c0.1-2.9,2.8-4.8,5.3-6.3c1.8-1,4.3-2.7,6.1-2.4"/>
<path fill="none" stroke="#585858" stroke-miterlimit="10" stroke-dasharray="4,1" d="M70.4,256.8c0.4,1.4-1.1,3.2-1.5,4.6
	c0,0.1-0.1,0.2,0,0.3c0,0.3,0.4,0.5,0.7,0.7c0.8,0.6,1.1,1.9,0.5,2.8c-0.3,0.4-0.7,0.8-1.1,1.1c-1.2,1.2-1.6,2.8-1,4.4"/>
<text transform="matrix(1 0 0 1 198.131 35.5658)"><tspan x="0" y="0" fill="#585858" font-family="'Verdana-Italic'" font-size="8">Volunteer</tspan><tspan x="19.6" y="9.6" fill="#585858" font-family="'Verdana-Italic'" font-size="8">Peak</tspan></text>
<text transform="matrix(1 0 0 1 239.4667 40.6717)" fill="#585858" font-family="'Verdana-Italic'" font-size="8">× 10481</text>
<path fill="none" d="M121.6,89.5c4.2-2.6,9.2-3.6,14.1-4.6c8.8-1.7,17.7-3.4,26.5-5"/>
<text transform="matrix(0.9816 -0.1907 0.1907 0.9816 132.6467 88.1045)"><tspan x="0" y="0" fill="#7D7D7D" font-family="'Verdana-Italic'" font-size="7">9</tspan><tspan x="4.5" y="0" fill="#7D7D7D" font-family="'Verdana-Italic'" font-size="7" rotate="0.2">6</tspan><tspan x="8.9" y="0" fill="#7D7D7D" font-family="'Verdana-Italic'" font-size="7" rotate="0.2">0</tspan><tspan x="13.4" y="0" fill="#7D7D7D" font-family="'Verdana-Italic'" font-size="7" rotate="0.2">0</tspan></text>
<text transform="matrix(1 0 0 1 80.2028 69.9265)"><tspan x="0" y="0" fill="#585858" font-family="'Verdana-Italic'" font-size="8">Murdock</tspan><tspan x="0" y="9.6" fill="#585858" font-family="'Verdana-Italic'" font-size="8">Lake</tspan></text>
<text transform="matrix(1 0 0 1 203.431 162.4463)"><tspan x="0" y="0" fill="#7BBCEB" font-family="'Verdana-Italic'" font-size="8">Rodgers</tspan><tspan x="0" y="9.6" fill="#7BBCEB" font-family="'Verdana-Italic'" font-size="8">Lake</tspan></text>
<text transform="matrix(1 0 0 1 95.9505 276.6193)"><tspan x="0" y="0" fill="#585858" font-family="'Verdana-Italic'" font-size="8">Neall</tspan><tspan x="0" y="9.6" fill="#585858" font-family="'Verdana-Italic'" font-size="8">Lake</tspan></text>
<text transform="matrix(1 0 0 1 195.537 278.8187)"><tspan x="0" y="0" fill="#585858" font-family="'Verdana-Italic'" font-size="8">Regulation</tspan><tspan x="23.5" y="9.6" fill="#585858" font-family="'Verdana-Italic'" font-size="8">Peak</tspan></text>
<text transform="matrix(1 0 0 1 297.9403 302.4416)"><tspan x="0" y="0" fill="#585858" font-family="'Verdana-Italic'" font-size="8">Petit</tspan><tspan x="-1" y="9.6" fill="#585858" font-family="'Verdana-Italic'" font-size="8">Peak</tspan></text>
<text transform="matrix(1 0 0 1 221.7088 259.7701)" fill="#585858" font-family="'Verdana-Italic'" font-size="8">× 10554</text>
<text transform="matrix(1 0 0 1 319.5336 307.4768)" fill="#585858" font-family="'Verdana-Italic'" font-size="8">× 10788</text>
<text transform="matrix(1 0 0 1 151.327 99.4315)" fill="#585858" font-family="'Verdana-Italic'" font-size="8">× 9943</text>
<text transform="matrix(1 0 0 1 61.9391 185.6107)" fill="#585858" font-family="'Verdana-Italic'" font-size="8">9709 ×</text>
<path fill="none" d="M27.9,284.5c2.8-9.3,11.3-16.4,20.9-18.4c3.4-0.7,7.5-0.5,9.5,2.3"/>
<text transform="matrix(0.7098 -0.7044 0.7044 0.7098 34.5723 277.1938)"><tspan x="0" y="0" fill="#7D7D7D" font-family="'Verdana-Italic'" font-size="7">9</tspan><tspan x="4.1" y="0" fill="#7D7D7D" font-family="'Verdana-Italic'" font-size="7" rotate="9">2</tspan><tspan x="8.1" y="0.6" fill="#7D7D7D" font-family="'Verdana-Italic'" font-size="7" rotate="17.8">0</tspan><tspan x="12" y="1.8" fill="#7D7D7D" font-family="'Verdana-Italic'" font-size="7" rotate="26.7">0</tspan></text>
<path fill="none" d="M155.9,305.2c0.8,3.3,4.8,4.2,7.7,5.9c5.2,3,7.7,9.4,12.9,12.5"/>
<text transform="matrix(0.8804 0.4742 -0.4742 0.8804 160.0616 312.0532)"><tspan x="0" y="0" fill="#7D7D7D" font-family="'Verdana-Italic'" font-size="7">9</tspan><tspan x="3.8" y="-0.1" fill="#7D7D7D" font-family="'Verdana-Italic'" font-size="7" rotate="16.2">8</tspan><tspan x="7.8" y="1.2" fill="#7D7D7D" font-family="'Verdana-Italic'" font-size="7" rotate="22.5">0</tspan><tspan x="12" y="3" fill="#7D7D7D" font-family="'Verdana-Italic'" font-size="7" rotate="19">0</tspan></text>
<path fill="none" d="M257,148.2c0-5,1.9-10.1,4-14c3.8-7.1,10-13,11-21"/>
<text transform="matrix(0.3618 -0.9323 0.9323 0.3618 260.565 141.5234)"><tspan x="0" y="0" fill="#7D7D7D" font-family="'Verdana-Italic'" font-size="7">1</tspan><tspan x="4.2" y="0" fill="#7D7D7D" font-family="'Verdana-Italic'" font-size="7" rotate="6.5">0</tspan><tspan x="8.4" y="0.5" fill="#7D7D7D" font-family="'Verdana-Italic'" font-size="7" rotate="11.7">0</tspan><tspan x="12.6" y="1.4" fill="#7D7D7D" font-family="'Verdana-Italic'" font-size="7" rotate="13.1">0</tspan><tspan x="17.1" y="2.5" fill="#7D7D7D" font-family="'Verdana-Italic'" font-size="7" rotate="10.5">0</tspan></text>
<g>
	<g>
		<polyline fill="none" stroke="#7D7D7D" stroke-miterlimit="10" points="85.2,341.6 85.2,348.7 275.4,348.7 275.4,341.7 		"/>
		<line fill="none" stroke="#7D7D7D" stroke-miterlimit="10" x1="180.5" y1="341.4" x2="180.5" y2="348.7"/>
		<line fill="none" stroke="#7D7D7D" stroke-miterlimit="10" x1="161.2" y1="349.2" x2="161.2" y2="343.7"/>
		<line fill="none" stroke="#7D7D7D" stroke-miterlimit="10" x1="142.4" y1="349.2" x2="142.4" y2="343.7"/>
		<line fill="none" stroke="#7D7D7D" stroke-miterlimit="10" x1="123.3" y1="349.2" x2="123.3" y2="343.5"/>
		<line fill="none" stroke="#7D7D7D" stroke-miterlimit="10" x1="104.6" y1="349.2" x2="104.6" y2="343.7"/>
	</g>
	<text transform="matrix(1 0 0 1 83.7833 339.1469)" fill="#7D7D7D" font-family="'Verdana'" font-size="8">0</text>
	<text transform="matrix(1 0 0 1 174.2944 339.1469)" fill="#7D7D7D" font-family="'Verdana'" font-size="8">0.5</text>
	<text transform="matrix(1 0 0 1 258.3412 339.1469)" fill="#7D7D7D" font-family="'Verdana'" font-size="8">1 mi</text>
</g>
</svg>
