<?xml version="1.0" encoding="utf-8"?>
<!-- Generator: Adobe Illustrator 17.1.0, SVG Export Plug-In . SVG Version: 6.00 Build 0)  -->
<!DOCTYPE svg PUBLIC "-//W3C//DTD SVG 1.1//EN" "http://www.w3.org/Graphics/SVG/1.1/DTD/svg11.dtd">
<svg version="1.1" id="Layer_1" xmlns="http://www.w3.org/2000/svg" xmlns:xlink="http://www.w3.org/1999/xlink" x="0px" y="0px"
	 viewBox="0 0 360 360" enable-background="new 0 0 360 360" xml:space="preserve">
<path fill="none" stroke="#E1E1E1" stroke-miterlimit="10" d="M358.6,369.2c-3.7-7.3-0.1-16,0.1-24.1c0.1-2.9-0.2-5.9,0.2-8.8
	c0.5-3.2,1.8-6.1,2.8-9.1c0.8-2.7,1.3-5.5,1.8-8.3c1-5.8,1.9-11.7,1.5-17.5s-2.6-11.8-6.9-15.8c-1.6-1.5-3.6-3-3.7-5.1
	c0-1,0.4-1.9,0.4-2.9c0.1-1.7-0.8-3.3-1.6-4.7c-1.3-2.2-3.9-4.1-3.8-6.6c0.2-2.8,3.4-4.6,4.2-7.4s0.5-6-1.5-8
	c-1.7-1.7-6.5-2.7-5.3-4.8c0.6-0.9,2.6,0.2,3.2-0.8c0.9-1.6-2-4.3-0.6-5.5c1.9-1.6,5.2,0,7.1-1.6c0.9-0.8,1.7-1.7,2.6-2.5
	c1.1-0.8,2.5-1.3,3.8-1.7c2.5-0.8,5.1-1.6,7.7-1.9c2.9-0.3,5.8,0.1,8.5,1"/>
<path fill="none" stroke="#E1E1E1" stroke-miterlimit="10" d="M332.7,371.5c5.9-12.6,8.2-26.5,10.5-40.2c1.8-11.2,3.6-23.1-1-33.5
	c-3.1-7-8.7-12.5-12.3-19.2c-5.4-10.2-6-23.1-14.4-31c-8-7.5-20.3-7.8-31.2-6.8c-10.7,0.9-22.8,3.5-28,12.8
	c-1.1,1.9-1.8,4.4-0.7,6.3c0.5,0.8,1.2,1.6,1.3,2.5c0,0.9-0.6,1.7-1.1,2.3c-3.6,4.2-7.2,8.4-10.7,12.7c-1.7,2-3.6,4.1-6.2,4.5
	c-1.6,0.3-3.3-0.1-4.7,0.5c-1.3,0.6-2.1,2.1-3.3,2.9c-2.7,1.9-6.3,0.2-9.2-1.3c-4.8-2.5-9.9-4.8-15.3-5.4
	c-5.4-0.6-11.2,0.6-15.3,4.2c-4.7,4.2-6.4,10.8-6.6,17.1c-0.3,6.3,0.6,12.6-0.2,18.9c-0.7,6.1-3,11.9-5.3,17.6
	c-3.2,7.8-6.8,15.7-13.1,21.4c-6.4,5.8-16,9.7-17.7,18.2"/>
<path fill="none" stroke="#E1E1E1" stroke-miterlimit="10" d="M179.6,369.2c3.4-2.5,6.9-5,10.3-7.5c3.8-2.7,7.7-5.6,9.7-9.8
	c2.5-5.3,1.5-11.7,3.8-17.1c1.2-3,3.4-5.5,4.8-8.3c0.4-0.9,0.8-1.9,0.7-2.9c-0.1-1.2-0.6-2.2-1.2-3.2c-2-3.4-4.3-6.8-4.8-10.7
	c-0.4-3,0.7-6.6,3.6-7.6c3-1,6,1.1,8.1,3.4c2.1,2.3,4.2,5,7.3,5.5c1.5,0.2,2.9-0.1,4.4-0.4c15.3-3.7,29.7-11.1,41.7-21.2
	c1.8-1.5,3.6-3.2,4.7-5.3c1.8-3.3,1.6-7.4,2.3-11.1c0.8-4.1,3-8,6-11c1.7-1.7,4-3.1,6.3-2.5c0.9,0.2,1.7,0.7,2.4,1.3
	c3.4,2.3,6.9,4.7,9,8.2c2.6,4.2,2.9,9.5,5,13.9c1.9,3.9,5,7,8,10.2c3.6,3.9,7,8.1,8.6,13.2c1.3,4,1.5,8.3,1.6,12.5
	c0.2,5.3,0.4,10.6,0.5,15.9c0.1,4.4,0.1,8.9-0.9,13.1c-0.6,2.5-1.6,4.9-2.6,7.3c-0.9,2.1-1.7,4.2-2.6,6.2c-2.1,5.1-4.2,10.3-8,14.2"
	/>
<path fill="none" stroke="#E1E1E1" stroke-miterlimit="10" d="M221.5,370.4c0.9-3.1-1.3-6.2-1.7-9.5c-0.2-1.8,0.2-3.5,0.4-5.3
	c0.9-8.1-2.3-16.1-1.8-24.2c0-0.5,0.1-1,0.3-1.4c0.5-0.9,1.7-1.2,2.7-0.9c1,0.2,1.9,0.9,2.7,1.4c8.4,5.4,19.6,3.9,28.7-0.2
	c2.2-1,4.3-2.1,6-3.8c1.1-1.2,2-2.5,3-3.9c1.8-2.6,3.9-5.1,6.1-7.4c1.9-2,4.4-4.8,7-3.8c3,1.2,4,5.1,4.6,8.3
	c0.3,1.9,0.2,3.9,0.1,5.8c-0.5,12.2-1.1,24.5-1.6,36.7c-0.2,5-0.4,10-0.9,14.9"/>
<path fill="none" stroke="#E1E1E1" stroke-miterlimit="10" d="M121.8,371.1c5.7-7.6,13.2-13.9,21.7-18.3c3-1.5,6.2-2.9,8.3-5.5
	c1.7-2.1,2.6-4.7,3.4-7.3c2-6.2,4-12.3,6-18.5c0.7-2.1,1.4-4.2,1.5-6.4c0.1-2.8-0.7-5.6-1.2-8.4c-1.5-9.1,0.8-18.4,3.1-27.3
	c1.4-5.6,3-11.4,7.1-15.4c3.7-3.6,8.8-5.2,13.7-6.7c12.3-3.7,24.6-7.5,36.9-11.2c10.8-3.3,8.1,1.7,12.4,0.8
	c5.9-1.3-5.8-4.3,14.4-22.6c6.7-6.1,15.9-9.8,24.8-8.3c5.9,1,11.2,4,17,5.3c4.1,0.9,8.3,0.9,12.5,0.9c1.1,0,2.2,0,3-0.7
	c0.9-0.7,1.3-1.9,1.8-2.9c5.2-11,18.5-1.7,21.5-9c1.5-3.7-4.8-5.9-3.8-9.7c2.8-10,30.4-5.7,38.5-17.3c3.5-5-6.6-20.8-7.5-36.8
	c-0.1-2.4,3.4-13.4,4.4-15.6c3-6.7,12.6-6,19.7-4.1"/>
<path fill="none" stroke="#E1E1E1" stroke-miterlimit="10" d="M66.3,370.3c12.9-9,25.8-18,38.7-27c6.1-4.3,12.8-8.7,20.3-8.5
	c3.6,0.1,7.4,1.3,10.6-0.4c3-1.7,4.1-5.7,3.4-9c-0.7-3.4-1.5-7.8-4.6-9.1c-13.4-5.7-28.6-13.2-25-27.3c2.4-9.4,15.5-11.7,19.1-20.7
	c1.8-4.6-2.1-11,2.2-13.5c1.8-1.1,4.1-1.1,6.2-1.1c35.4-1.2,62.3-31.5,95.2-44.7c11.5-4.6,23.7-7.1,35.9-9.5
	c10.8-2.2,24.4,1.1,32.5-6.5c7.7-7.3,4-20.8,4.2-31.4c0.1-5.3-0.2-10.6,1.3-15.7c1.4-5.1,6.2-7.7,10-11.3c4.2-4,4.3-10.9,7.4-15.9
	c1.5-2.4,3.2-4.9,5.6-6.5c5.8-4,13.5-2.4,20.5-1.9c11.3,0.9,22.9-1.6,33-6.9"/>
<path fill="none" stroke="#E1E1E1" stroke-miterlimit="10" d="M89.7,223.4c1-2.8,0.6-6.4-1.7-8.3c-0.3-0.2-0.7-0.5-1-0.6
	c-0.6-0.2-1.3-0.2-1.9,0.1c-0.7,0.5-1,1.4-1.2,2.2c-0.3,1.4-0.6,2.9-0.4,4.3c0.2,1.4,0.8,2.9,2,3.7c1,0.7,2.5,0.8,3.4,0
	C89.2,224.4,89.5,223.9,89.7,223.4z"/>
<path fill="none" stroke="#E1E1E1" stroke-miterlimit="10" d="M-4.9,367.7c6.6-15.4,9.5-32.4,8.4-49.2c-0.1-1.5-0.2-3-0.8-4.4
	c-1.9-4.2-7.3-5.5-11.9-5.3"/>
<path fill="none" stroke="#E1E1E1" stroke-miterlimit="10" d="M40.2,137.5c-0.5-2.1-0.9-4.3-1.4-6.4c-0.4-1.8-0.8-3.7-1.7-5.3
	c-2.1-3.6-6.4-5.2-10.4-5.8c-4.3-0.6-9.7,0.4-11.4,4.5c-0.8,1.9-0.6,4.1-0.8,6.2c-0.5,4.1-2.9,7.8-5.7,10.9c-2.8,3.1-6,5.8-8.7,9
	c-1.7,2.1-3.3,4.6-3.3,7.3s1.8,5.6,4.5,5.9c1.9,0.2,3.7-1,5.4-2c3-1.8,6.3-3.3,9.7-3.2c2.2,0.1,4.4,0.9,6.6,0.9c3,0,5.8-1.4,8.3-3
	c4.4-2.7,8.9-6.5,9.6-11.6C41.2,142.4,40.7,139.9,40.2,137.5z"/>
<path fill="none" stroke="#E1E1E1" stroke-miterlimit="10" d="M-7.2,86.3C-2,97,9.9,101.3,21,105c19.8,6.6,38.4,16,60,19
	c1,0.1,3-0.2,4,0c7.5,1.5,18.5,4.7,20.6,12c7.6,26.9-17.2,32.3-17.3,35.3c-0.2,3.6,10.1,2.2,15,2.2c9.8,0,19.4-2.2,28.6-6
	c3.9-1.6,7.8-3.7,9.7-7.4c1.5-2.8,1.6-6.3,3.9-8.6c3.7-3.7,11.1-1.8,14.3-5.9c2.9-3.7,0.3-9.4,1.7-13.9c1.4-4.4,6.3-6.5,10.6-8.1
	c4.7-1.8,9.4-3.5,14.1-5.3c4.4-1.6,8.8-3.3,13.5-3.6c4.7-0.3,9.6,0.8,12.9,4.1c1.9,1.9,4.6,4.7,6.7,3c0.7-0.6,1-1.5,1.6-2.3
	c1.9-2.7,6-2.3,9.1-1.1s8.8,4.7,9.5,1.5c1.7-7.4-5-14.3-8.7-20.9c-2.4-4.4-6.4-7.6-9.9-11.3c-5.5-5.7-9.9-12.6-12.8-20
	c-1.8-4.5-3.6-9.8-8.1-11.4c-3.1-1.1-6.1,0.7-9.3,1.7c-5,1.7-8.5,4-12.1,4.9c-1,0.2-5-0.1-6-0.4c-1.3-0.4-5.2-1.9-6.1-3
	c-2.2-2.6-2.5-3.7-4.9-6.1c-1.7-1.8-2.7-4-3.8-6.2c-2.5-5.4-2.7-11-6.5-15.5c-2.9-3.5-14,1.8-28.2-0.5c-5.1-0.8-10.8-1.8-15.4-4.2
	c-1.9-1-1-3.2-3.1-3.6c-1.5-0.3-5.7,0.8-7.2,1c-2.8,0.4-5.7,0.9-8.5,1.3c-1.5,0.2-3,0.5-4.3,1.1C82,28.3,83.3,31.1,81,33
	c-2.3,1.9-9.7,1.2-10.6-1.6c-1.6-4.6,3.8-7.1,8.2-9.8c0.9-0.5-0.4-2.5-0.7-3.5C76.5,14,76,9,78.5,5.3c2.5-3.7,7.1-5.1,11.4-6.2
	c4.8-1.3,9.6-2.6,14.4-3.9c4.7-1.3,9.4-2.5,14.1-3.8c6.4-1.7,12.8-3.4,19.3-4.5"/>
<path fill="none" stroke="#E1E1E1" stroke-miterlimit="10" d="M-11.4,19.2c0.1-0.7,0.9-0.9,1.6-1c6.9-0.9,14.4-1.7,20.2,2.1
	c1.6,1,2.9,2.4,4.3,3.6c3.6,3.2,8,6.2,12.8,5.7c4-0.4,8.1-3.1,11.7-1.5c1.5,0.7,2.6,2,3.7,3.2c4.3,5.2,11,8.2,15.8,13
	c2.4,2.4,5.1,5.4,7.6,7.6c3.9,3.4,5.3,8.2,9.2,11.6c3.2,2.8,3.6,7.7,7.2,10c4.4,2.8,6.5,7.1,5.9,8.8c-1.1,2.9-8.1,2.5-11.1,1.9
	c-9.1-2-16.7-2.3-25.9-0.9c-1.4,0.2-2.9,0.5-4.4,0.5c-1.7-0.1-3.4-0.6-4.9-1.3c-6.9-3.2-12.5-9.8-20-10.6c-3.3-0.3-6.7,0.6-9.4,2.5
	c-1,0.7-2,1.6-3.2,1.9C7,77,4.9,74.6,3.1,72.7c-3.7-3.7-8.6-6.2-13.8-6.9"/>
<path fill="none" stroke="#E1E1E1" stroke-miterlimit="10" d="M-5.7,267.3C-2,259,7.5,254.2,15,259c5.4,3.5,10.7,5.7,14,5
	c4.1-0.8,4-8,8-12c2-2,0.8-6.1,3-9c5.6-7.3,15.8-9.1,20-18c1.9-4,1.6-9,2-14c1-11.1,13.4-17.9,23-15c7.5,2.3,12.2,10.8,19.2,10.8
	c3,0,1.5-3.8,4.8-3.8c16,0,27.9-11.1,40-21c5-4,11-6,17.1-7.2c2.5-0.5,5.5,0.6,7.1,2.5c1.6,1.9,2.3,4.4,3,6.8c2.2,8,3.7,16.2,6.5,24
	c0.5,1.3,1.1,2.7,2.4,3c0.6,0.1,1.3,0,1.9-0.2c7.6-2.2,14.2-6.9,21.1-10.9s14.4-7.6,22.3-7.1c5.8,0.4,14.5,5.7,17,0.5
	c1.4-2.8,2.1-6.4,5.2-6.4c1.3,0,2.8,0.5,3.9-0.2c0.9-0.6,1.2-1.6,1.7-2.6c2.1-3.8,7.5-4.9,9.4-8.7c0.8-1.7,0.8-3.7,1-5.6
	c0.5-6.1,2.9-11.8,5.1-17.4c1.7-4.2,3.4-8.4,5.8-12.3c1.9-3.1,4.1-5.9,6-9c5.9-9.8,10.8-28.7,9.1-31c-2-2.7-7.4-5.9-10-8
	c-2.9-2.4-5.4-1.8-8.8-3.5c-4.5-2.2-6.7-8-7.1-13c-0.5-5.3-3.7-10.5-5.5-15.5c-0.4-1.1-0.8-2.3-1.4-3.3c-0.7-1-1.5-1.9-2.4-2.8
	c-6.6-6.7-12.7-13.8-18.4-21.4c-1.4-1.8-2.7-3.7-3.7-5.8c-1.1-2.3-1.7-4.8-2.2-7.2c-1-4.1-1.9-8.1-2.9-12.2
	c-0.2-0.9-0.3-2.1,0.4-2.6c0.8-0.5,1.8,0,2.8-0.1c1.3-0.2,2-1.6,2.7-2.8c2.4-3.9,7.4-6,12-5.6s8.9,2.9,12,6.3
	c4.5,4.8,5.7,10.8,8.1,16.9c1.2,3.1,2.3,7.2,3.5,10.4c1.5,3.8,2.7,6,3.8,9.9c0.8,3.1,3.5,11.4,5.9,13.6c2.9,2.7,0.7-1.3,9.6-0.9
	c2.2,0.1,6.4,0.9,7.9-0.6c4.8-4.7,3.7-13.3,9.1-17.4c4-3,8.8-4.6,13.2-6.7c6.9-3.3,13-8.1,17.9-14c0.6-0.8,1.3-1.6,1.4-2.6
	c0.1-0.9-0.2-1.9-0.4-2.8c-1.6-5-2.5-10.3-2.6-15.5c-0.1-2.6-0.3-5.7-2.7-6.8"/>
<path fill="none" stroke="#E1E1E1" stroke-miterlimit="10" d="M209.5-12.3c1.9,1.2,3.2,3.2,3.6,5.4c0.1,0.4,0.1,0.8,0,1.1
	c-0.1,0.4-0.4,0.7-0.7,0.9c-1.6,1.5-3.4,2.6-5,4.1c-1.6,1.4-3,3.1-3.6,5.2c-0.6,2.1,0,4.5,1.7,5.8c1.2,0.9,2.7,1.1,4.2,1
	c3.3-0.2,6.4-2,9.2-3.7c2.5-1.5,5.1-3.1,7-5.3s3-5.4,2.1-8.2c-0.7-2.3-2.7-4.1-3.7-6.4"/>
<path fill="none" stroke="#E1E1E1" stroke-miterlimit="10" d="M379.7,21c-2.5,1.1-4.5,1.6-6.5,3.5c-6.7,6.6-15.5,9.1-22.8,15
	c-1.3,1-4.8,4.1-5.2,5.5c-1.2,3.5-3.9,21.3-0.2,24.4c1.5,1.3,2.5,3.2,4,4.6c1.1,1,2.3,2.1,3.6,2.8c2.4,1.4,5.3,1.8,8.1,1.7
	c6.8,0,13.5-2,19.2-5.7"/>
<path fill="none" stroke="#E1E1E1" stroke-miterlimit="10" d="M218.1,170.9c-0.3-0.6-2.4-4.3-3.4-5.2c-0.4-0.4-3.6-3.3-4.9-4.5
	c-1.4-1.3-3.4-1.8-5.2-2.2c-1.8-0.4-3.6-0.7-5.3-1.1c-1.3-0.3-3-1-4.3-0.6c-1.2,0.4-2.7,1.2-2.5,2.5c0.1,0.5,1.2,2.8,1.5,3.2
	c1.3,2,3.3,3.2,4.6,5.1c1.6,2.4,2.5,4.5,4.5,6.6c1.6,1.7,3.7,3.2,6.1,3.1c1.8,0,4.2,0.7,5.8-0.2c0.9-0.5,1.7-2.3,2.4-3.1
	S218.6,171.9,218.1,170.9z"/>
<path fill="#EAEAEA" stroke="#D6D6D6" stroke-miterlimit="10" d="M162.9,218.1c-0.7,0.1-1.5-0.1-2.1,0.2c-0.7,0.4-1,1.3-1,2.1
	c0,0.6,0.2,1.2,0.7,1.5c0.2,0.2,0.5,0.2,0.8,0.3c2.4,0.4,4.9,0.9,7.1-0.1c0.5-0.2,1-0.5,1.2-1c0.3-0.7,0.4-1.6,0.1-2.3
	c-0.7-1.6-3.4-1.5-5.2-1.1C164,217.9,163.5,218.1,162.9,218.1z"/>
<path fill="#7BBCEB" stroke="#4E9BD7" stroke-miterlimit="10" d="M185.5,170.7c-0.5-0.6-1-1.4-1.7-1.7c-1-0.4-2.1,0.1-2.8,0.8
	c-0.7,0.8-1.2,1.8-1.3,2.8c-0.4,4.9-0.4,11,1.8,16c0.1,0.3,0.4,0.5,0.7,0.7c0.8,0.5,1.8,0,2.4-0.7c0.6-0.7,1-1.5,1.6-2.2
	c0.9-1,2.3-1.5,3.6-2.2s2.5-1.5,2.9-2.9c0.3-1.1-0.1-2.2-0.6-3.2c-0.8-1.6-1.8-3-3.1-4.2C187.8,172.9,186.5,171.9,185.5,170.7z"/>
<path fill="none" stroke="#D6D6D6" stroke-miterlimit="10" d="M55.6,349.6C45,321,38.3,289.8,28,261c-5.7-16-18.1-34-8-50
	c13.9-22.1,36.8-37,63-39c3-0.2,5.1,0.1,8-1c9.2-3.6,19.2-3.8,26-11c8.3-8.8,12.3-20.4,9-32c-0.6-2.2-1-5-2-7
	c-4.2-8.9-10.6-12.1-16.9-18.9c-1-1-2.6-4.3-2.8-4.6c-1.3-3.4-3.8-6-5.8-9c-1.3-2-2.3-3.3-3.7-5.2"/>
<path fill="none" stroke="#D6D6D6" stroke-miterlimit="10" d="M258.3,142.9c-9.4-8.9-17.8-18.8-25-29.5c-2.4-3.5-4.8-7.4-8.7-9.2
	c-2.8-1.3-5.9-1.4-8.9-1.9c-8.5-1.4-16.1-5.9-24.1-9.1c-8-3.2-17.2-5.2-25-1.6c-1.2,0.5-2.4,1.2-3.6,1c-1.1-0.2-1.9-1.1-2.8-1.7
	c-8.1-6.4-12.6-11.7-21.3-16c-1.5-0.8-7.6-1.3-8.9-2.5c-1.2-1-2-2.4-3.3-3.2c-1.8-1.1-4.1-0.7-6.1-0.2c-5.2,1.2-10.5,2.8-14.8,6.1
	c-3.7,2.9-6.7,7.1-11.3,7.9c-5.6,1-10.1-2.7-15.3-4.8c-4.7-1.8-8.5-5.7-11.5-9.7c-1-1.3-2-2.7-3.6-3c-2.5-0.4-5.1,2.6-7.3,1.3
	c-0.5-0.3-0.9-0.7-1.3-1.1c-2.8-2.8-7.6-3-9.9-6.2c-0.9-1.3-1.3-2.9-1.8-4.4c-1-2.9-2.7-5.6-4.8-7.7c-1.6-1.6-3.6-3-5.8-3.3
	c-1.5-0.2-3,0.2-4.5,0.6c-2.9,0.8-5.8,1.7-8.7,2.1s-6.1,0.1-8.7-1.4c-1.6-0.9-2.9-2.2-4.4-3.2c-1-0.6-2.2-1-3.2-1.7
	c-1.5-1-2.6-2.6-3.8-4c-2.1-2.5-4.7-4.6-7.5-6.2"/>
<path fill="none" stroke="#585858" stroke-miterlimit="10" d="M302.6-13.2c0.7,6-0.7,12.1-2.3,17.9c-0.7,2.7-1.6,5.4-3.1,7.7
	c-2.7,3.9-7.3,6.1-9.9,10c-2.4,3.7-2.6,8.4-2.7,12.8c-0.1,3.6-0.2,7.3-0.3,10.9c-0.1,3.9-0.3,8.1-2.2,11.5c-0.5,0.9-1.1,1.7-1.4,2.6
	c-0.3,0.9-0.5,1.9-0.6,2.9c-0.2,2.4-0.4,4.9,0.5,7.2c1.8,4.2,6.8,5.9,11.2,7.1c1.8,0.5,3.6,1,5.4,1.5c4.9,1.3,9.8,2.6,14.8,4
	c1.6,0.4,3.2,0.9,4.4,2.1c0.8,0.8,1.3,1.8,1.8,2.7c1.5,2.7,4.7,6.5,7.1,8.6"/>
<g>
	<path fill="none" stroke="#585858" stroke-width="2" stroke-miterlimit="10" d="M-11.6,243.9C9,231.8,26.8,216,46.1,201.2
		C53,195.9,58.6,190.3,66,187c5.8-2.6,12-3,18-3c13,0,27.9,1.6,40.9,0.2c15-1.6,19.3-10.1,32.5-16.6c10.8-5.4,27.2-5.6,36.9,6.5
		c16.2,20.4,47.6,16.4,66.8,4.9c6.7-4,10.8-10.4,14.4-16.6c1.7-2.9,1.2-9.7,7.4-16.4c4.3-4.7,16-16.5,19.3-22
		c0.9-1.6,6-8.5,7.6-10.1c2.9-2.9,5.1-5.8,7.7-9c5.6-6.9,12.4-13,20.3-17c7.9-4,16.5-4.1,25.2-2.6c3.5,0.6,6.8,1.6,10.2,2.7
		c5.3,1.7,10.7,3.4,16,5"/>
	<g>
		<path fill="none" stroke="#FFFFFF" stroke-miterlimit="10" d="M-11.6,243.9c1.2-0.7,2.3-1.4,3.4-2.1"/>
		<path fill="none" stroke="#FFFFFF" stroke-miterlimit="10" stroke-dasharray="7.9986,7.9986" d="M-1.5,237.5
			c16.5-11,31.5-24,47.6-36.4C53,195.9,58.6,190.3,66,187c5.8-2.6,12-3,18-3c13,0,27.9,1.6,40.9,0.2c15-1.6,19.3-10.1,32.5-16.6
			c10.8-5.4,27.2-5.6,36.9,6.5c16.2,20.4,47.6,16.4,66.8,4.9c6.7-4,10.8-10.4,14.4-16.6c1.7-2.9,1.2-9.7,7.4-16.4
			c4.3-4.7,16-16.5,19.3-22c0.9-1.6,6-8.5,7.6-10.1c2.9-2.9,5.1-5.8,7.7-9c5.6-6.9,12.4-13,20.3-17c7.9-4,16.5-4.1,25.2-2.6
			c3.5,0.6,6.8,1.6,10.2,2.7c2.8,0.9,5.6,1.8,8.4,2.6"/>
		<path fill="none" stroke="#FFFFFF" stroke-miterlimit="10" d="M385.3,91.7c1.3,0.4,2.5,0.8,3.8,1.2"/>
	</g>
</g>
<text transform="matrix(1 0 0 1 150.0183 187.9815)"><tspan x="0" y="0" fill="#7BBCEB" font-family="'Verdana-Italic'" font-size="8">Siesta</tspan><tspan x="5.8" y="9.6" fill="#7BBCEB" font-family="'Verdana-Italic'" font-size="8">Lake</tspan></text>
<text transform="matrix(1 0 0 1 23.3672 134.4629)" fill="#585858" font-family="'Verdana-Italic'" font-size="8">× 8056</text>
<path fill="none" d="M225.9,310.8c15.3-3.7,29.7-11.1,41.7-21.2"/>
<text transform="matrix(0.9123 -0.4096 0.4096 0.9123 242.4994 307.93)"><tspan x="0" y="0" fill="#7D7D7D" font-family="'Verdana-Italic'" font-size="7">8</tspan><tspan x="4.6" y="0" fill="#7D7D7D" font-family="'Verdana-Italic'" font-size="7" rotate="-2.5">8</tspan><tspan x="9.1" y="-0.2" fill="#7D7D7D" font-family="'Verdana-Italic'" font-size="7" rotate="-4.9">0</tspan><tspan x="13.7" y="-0.6" fill="#7D7D7D" font-family="'Verdana-Italic'" font-size="7" rotate="-7.4">0</tspan></text>
<path fill="none" d="M195.2,157.3c1.2-0.4,3,0.3,4.3,0.6c1.8,0.4,3.6,0.7,5.3,1.1c1.9,0.4,3.9,0.8,5.2,2.2c1.3,1.2,4.5,4.1,4.9,4.5
	c1,0.9,3.1,4.7,3.4,5.2"/>
<text transform="matrix(0.9789 0.2045 -0.2045 0.9789 199.5355 160.4979)"><tspan x="0" y="0" fill="#7D7D7D" font-family="'Verdana-Italic'" font-size="7">8</tspan><tspan x="4.3" y="-0.1" fill="#7D7D7D" font-family="'Verdana-Italic'" font-size="7" rotate="3.3">0</tspan><tspan x="7.6" y="-0.2" fill="#7D7D7D" font-family="'Verdana-Italic'" font-size="7" rotate="31.4">0</tspan><tspan x="11.5" y="2.1" fill="#7D7D7D" font-family="'Verdana-Italic'" font-size="7" rotate="30.4">0</tspan></text>
<path fill="none" d="M107.8,27c4.6,2.4,10.3,3.4,15.4,4.2c14.2,2.2,25.4-3,28.2,0.5"/>
<text transform="matrix(0.9892 0.1465 -0.1465 0.9892 120.912 33.3997)"><tspan x="0" y="0" fill="#7D7D7D" font-family="'Verdana-Italic'" font-size="7">7</tspan><tspan x="4.7" y="0" fill="#7D7D7D" font-family="'Verdana-Italic'" font-size="7" rotate="-5.3">8</tspan><tspan x="9.3" y="-0.5" fill="#7D7D7D" font-family="'Verdana-Italic'" font-size="7" rotate="-9.9">0</tspan><tspan x="13.9" y="-1.3" fill="#7D7D7D" font-family="'Verdana-Italic'" font-size="7" rotate="-13.5">0</tspan></text>
<path fill="none" d="M237.2,26.6c1,2.1,2.3,3.9,3.7,5.8c5.6,7.5,11.8,14.7,18.4,21.4c0.9,0.9,1.7,1.8,2.4,2.8"/>
<text transform="matrix(0.6182 0.786 -0.786 0.6182 240.4594 35.952)"><tspan x="0" y="0" fill="#7D7D7D" font-family="'Verdana-Italic'" font-size="7">8</tspan><tspan x="4.5" y="0" fill="#7D7D7D" font-family="'Verdana-Italic'" font-size="7" rotate="-1.2">0</tspan><tspan x="9" y="-0.1" fill="#7D7D7D" font-family="'Verdana-Italic'" font-size="7" rotate="-2.4">0</tspan><tspan x="13.5" y="-0.3" fill="#7D7D7D" font-family="'Verdana-Italic'" font-size="7" rotate="-3.6">0</tspan></text>
<path fill="none" d="M171.6,264c3.7-3.6,8.8-5.2,13.7-6.7c12.3-3.7,24.6-7.5,36.9-11.2c10.8-3.3,8.1,1.7,12.4,0.8"/>
<text transform="matrix(0.9564 -0.292 0.292 0.9564 189.4935 258.6819)"><tspan x="0" y="0" fill="#7D7D7D" font-family="'Verdana-Italic'" font-size="7">8</tspan><tspan x="4.4" y="0" fill="#7D7D7D" font-family="'Verdana-Italic'" font-size="7" rotate="0">4</tspan><tspan x="8.9" y="0" fill="#7D7D7D" font-family="'Verdana-Italic'" font-size="7" rotate="0">0</tspan><tspan x="13.3" y="0" fill="#7D7D7D" font-family="'Verdana-Italic'" font-size="7" rotate="0">0</tspan></text>
<g>
	<g>
		<polyline fill="none" stroke="#7D7D7D" stroke-miterlimit="10" points="85.2,341.6 85.2,348.7 275.4,348.7 275.4,341.7 		"/>
		<line fill="none" stroke="#7D7D7D" stroke-miterlimit="10" x1="180.5" y1="341.4" x2="180.5" y2="348.7"/>
		<line fill="none" stroke="#7D7D7D" stroke-miterlimit="10" x1="161.2" y1="349.2" x2="161.2" y2="343.7"/>
		<line fill="none" stroke="#7D7D7D" stroke-miterlimit="10" x1="142.4" y1="349.2" x2="142.4" y2="343.7"/>
		<line fill="none" stroke="#7D7D7D" stroke-miterlimit="10" x1="123.3" y1="349.2" x2="123.3" y2="343.5"/>
		<line fill="none" stroke="#7D7D7D" stroke-miterlimit="10" x1="104.6" y1="349.2" x2="104.6" y2="343.7"/>
	</g>
	<text transform="matrix(1 0 0 1 83.7834 339.1468)" fill="#7D7D7D" font-family="'Verdana'" font-size="8">0</text>
	<text transform="matrix(1 0 0 1 174.2945 339.1468)" fill="#7D7D7D" font-family="'Verdana'" font-size="8">0.5</text>
	<text transform="matrix(1 0 0 1 258.3414 339.1468)" fill="#7D7D7D" font-family="'Verdana'" font-size="8">1 mi</text>
</g>
</svg>
