<?xml version="1.0" encoding="utf-8"?>
<!-- Generator: Adobe Illustrator 17.1.0, SVG Export Plug-In . SVG Version: 6.00 Build 0)  -->
<!DOCTYPE svg PUBLIC "-//W3C//DTD SVG 1.1//EN" "http://www.w3.org/Graphics/SVG/1.1/DTD/svg11.dtd">
<svg version="1.1" id="Layer_1" xmlns="http://www.w3.org/2000/svg" xmlns:xlink="http://www.w3.org/1999/xlink" x="0px" y="0px"
	 viewBox="0 0 360 360" enable-background="new 0 0 360 360" xml:space="preserve">
<path fill="none" stroke="#E1E1E1" stroke-miterlimit="10" d="M237.1,364.3c-1.2-3.5-2.7-7.2-4.7-11.2c-0.4-0.9,0.7-2.3,0-3
	c-1.4-1.4-2.3,0.3-3.7-1.5c-1-1.3,1.9-6.3,5.7-12.5c10.8-17.7,8.6-44.1,22-64c5.3-7.9,7.3-22.6-3.5-29.8c-1.2-0.8-1.7,2.5-5.4,3.1
	c-4.4,0.8-9.7-7.1-12.1-3.3c-3.2,5.1,2.1,15.2-4,18c-11.2,5.2-23-1-33,6c-7,5-14,8.1-19,15c-1.3,1.8-3,4-5,6c-1,1-2.1,1.3-3,1
	c-4.7-1.6,0.2-11.8-9-11c-9,0.8-17,3.9-25-1c-5-3-5.7-11.4-11-16c-3.8-3.3-7.8-3.5-12-5c-8.7-3.1-18.1-4.1-27-3c-4.1,0.5-8,1-12,1
	c-3,0-7.1,0.8-10,3c-7.3,5.6-13,12.4-22.7,12.4c-4.6,0-8.6-4.1-10.5-8.3c-0.3-0.7-0.6-1.4-1-2c-0.5-0.7-1.3-1.1-2-1.6
	c-1.9-1.2-3.8-2.3-5.9-2.9s-4.5-0.5-6.4,0.7c-2.5,1.6-3.6,5-6.1,6.6c-1.8,1.1-4.3,1.2-5.5,3c-0.7,1-0.7,2.2-0.8,3.3
	c-0.4,7.2-0.8,14.5-1.2,21.7c-0.3,5.5-0.7,11.2-3.1,16.1c-0.6,1.3-1.4,2.4-2.2,3.6"/>
<path fill="none" stroke="#E1E1E1" stroke-miterlimit="10" d="M-1.9,322.2c1.8-3.8,3.8-7.4,6.9-10.2c1.9-1.6,4.1-2.9,5.3-5
	c0.7-1.2,1-2.6,1.5-3.9c2.3-5.1,8.7-7.1,11.8-11.7c1.2-1.8,1.9-3.9,3.1-5.6c1.7-2.3,4.2-3.7,6.7-5c18.1-9.8,36.9-19.8,57.3-21.7
	c3.4-0.3,6.9-0.4,10,0.8c6.8,2.4,12.8,6.4,18.4,10.9c2.2,1.8,4.4,3,6.8,4.4c3.5,2,4.9,6.3,7.4,9.6c2.9,3.9,7.5,6.4,12.3,6.7
	c6.7,0.5,14.3-2.9,19.7,1.1c1,0.7,1.8,1.7,2.8,2.4c2.8,2,6.6,2.1,9.8,0.8s5.8-3.7,8-6.3c3.1-3.6,6.8-6.2,10.6-9.1
	c1.2-0.9,2.4-0.6,3.9-0.1c6.8,2.5,12.8-8.2,19.9-7c4.4,0.7,8.6,2.2,12.7,4.2c3.1,1.5,3.4,6.4,2,9.6c-0.6,1.4-1.7,2.7-1.5,4.3
	c0.1,0.8,0.5,1.6,0.6,2.4c0.1,1.4-0.7,2.6-1.5,3.8c-5,7-9.9,13.9-14.9,20.9c-1.6,2.2-3.2,4.5-5.6,5.8c-2.8,1.6-6.4,1.7-8.9,3.7
	c-1.5,1.2-2.4,2.9-3.8,4.1c-1.4,1.2-3.6,1.9-5.1,0.7c-0.4-0.3-0.8-0.9-1.3-0.9c-0.5-0.1-0.9,0.2-1.3,0.5c-4.2,2.8-8.5,5.7-11,10.2
	c-2.2,4.1-2.6,9.1-5.7,12.6c-2.4,2.7-4.4,5.2-5.6,8.6c-0.3,0.8-0.6,1.6-0.9,2.4"/>
<path fill="none" stroke="#E1E1E1" stroke-miterlimit="10" d="M-2.7,330.5c23.4-33.3,52.8-67.3,97.1-58.4c5,1,9.5,1,14,4
	c1.2,0.8,3,2,3,4c0,1-0.2,1.5,0,2c1.1,2.6,5.2,1.6,8,3c6.5,3.2,0.5,10.9,0,17c-0.1,1-0.4,3.1,0,4c2.8,5.8,13.1,3.8,19,6
	c7.1,2.7,16.2,6,17,14c1.2,12,1.3,24.1-3,36c-0.5,1.3-0.9,2.5-1.4,3.8"/>
<path fill="none" stroke="#E1E1E1" stroke-miterlimit="10" d="M-2.7,347.6c6.2-5.4,12-11.1,17.1-17.5c4.9-6.2,9.1-12.9,14.6-18.5
	c4.1-4.1,9-7.5,13.7-10.9c3.1-2.2,6.2-4.3,9.5-6c10.3-5.1,27.5-9,33.2,1c1.4,2.5,1.7,5.7,1.3,8.6c-0.7,5-5.7,8.4-8.6,12.5
	c-1.2,1.8-2.5,4-1.6,5.9c1,2.4,4.3,2.8,5.9,4.8c2.4,3.2-0.7,8.4,1.5,11.7c1.5,2.3,4.7,2.6,7.5,2.7c3.2,0.1,6.4,0.1,9.6,0.2
	c3.4,0.1,7.4-4.2,9.9-1.9c1.9,1.7,3,2.7,4.4,4.9c2,3.2,1.2,7.3,2.5,10.8c1,2.7,1.5,5.5,1.6,8.3"/>
<path fill="none" stroke="#E1E1E1" stroke-miterlimit="10" d="M185.9,364.6c0.9-1.4,2.1-2.8,2.4-4.4c0.3-1.7-1.2-3.7-2.8-3.1
	c-0.6,0.2-1,0.8-1.4,1.4c-1.1,1.6-2.3,3.1-3.5,4.5c-0.5,0.6-0.9,1.1-1.4,1.7"/>
<path fill="none" stroke="#E1E1E1" stroke-miterlimit="10" d="M186.1,190.9c2.7-2.9,4-6.9,5.1-10.8c1.1-3.6,2.1-7.5,1.1-11.1
	c-1.3-4.6-5.8-8.6-10.6-8.1c-3.9,0.4-7.7,3.8-9.8,7.1c-2.1,3.3-2.4,7.4-3.6,11.1c-1.3,4.1-2.3,8-0.7,12.1c0.9,2.2,2.6,5.4,4.8,6.2
	c2.5,1,5.2-0.7,7.5-2C182.1,194.1,184.3,192.8,186.1,190.9z"/>
<path fill="none" stroke="#E1E1E1" stroke-miterlimit="10" d="M-2.8,241.6c2.3-0.6,4.7-1.4,7.1-0.8c0.8,0.2,1.5,0.6,2.3,0.6
	c0.9,0,1.7-0.6,2.5-1c8.5-5.1,19.8-4.3,27.9-9.9c5.4-3.7,8.7-9.7,13.9-13.7c1.6-1.2,3.5-2.3,4.6-4.1c1.3-2.2,1.2-4.9,1-7.4
	c-0.7-7.9-1.9-15.9-0.6-23.8c0.8-5,2.6-9.8,3.8-14.7c1.9-7.9,2.3-16.1,1.1-24.1c-0.1-0.9-0.3-1.9-0.1-2.8c0.2-0.7,0.6-1.4,1-2
	c5.8-9.1,14.1-17,16.8-27.4c1.3-5,1.5-10.5,4.2-14.9c2.3-3.7,5.6-7.1,6.1-11.4c0.2-1.9-0.1-3.9,0.2-5.8c0.2-1.8,1-3.5,1.6-5.2
	c1.4-4.2,2-8.7,1.8-13.1c-0.1-2-0.4-4.1-1.5-5.8c-1.7-2.8-5.4-1.4-8.6-2.2c-1.2-0.3-0.4-2.8-1.5-3.3c-1.3-0.7-2.7,1.8-4.1,1.4
	c-1.7-0.6-1.9-3.2-3.4-4.3c-1.5-1.1-3.7-2-5.2-0.8c-4,3.2-9,4.5-13.7,6.5c-3.3,1.5-6.1,3.9-8.8,6.4C38.3,64.5,31,70.9,23.8,77.4
	c-1.6,1.4-3.2,2.8-5,3.8c-3.2,1.7-7,2-10.6,2.3C3.8,83.7-0.6,84-4.7,82.7"/>
<path fill="none" stroke="#E1E1E1" stroke-miterlimit="10" d="M-3,91.1c0.6,0.1,1.2,0.3,1.7,0.4c1,0.2,2.1,0.5,2.8,1.3
	c0.6,0.6,0.9,1.4,1.4,2.1c1.4,1.9,4,2.3,6.4,2.4c6.1,0.4,14.4-5.7,18.2-0.9c1,1.3-0.7,4,0.9,4.2c1.2,0.1,1.9-1.2,2.3-2.3
	c3.4-8.6,8.9-16.3,15.8-22.5c2-1.7,4.2-3.4,6.8-3.7c4.6-0.6,10.2-1.5,13.8,1.5c6,5.2-4.5,15.4-9,22c-3.4,5-7.8,9.8-8.8,15.8
	c-0.7,4.6,0.6,9.8-1.9,13.8c-0.7,1.1-1.7,2.2-1.6,3.5c0.1,0.7,0.5,1.3,0.9,2c3.9,6.8-1.1,15.4-0.1,23.2c0.5,3.6,2.2,7,2.2,10.6
	c0,1.8-0.5,3.6-0.9,5.4c-2.5,9.9-5.1,19.8-7.6,29.6c-1.5,5.9-3.1,12-7.1,16.7c-3.5,4.1-8.6,6.6-13.5,9c-5.2,2.5-10.6,5.1-16.4,5.3
	c-2.4,0.1-4.7,1.4-6.9,2"/>
<path fill="none" stroke="#E1E1E1" stroke-miterlimit="10" d="M-3.3,106c3.4,1.4,6.9,2.6,10.4,3.5c1.5,0.4,3.1,0.7,4.5,1.5
	c3.8,2.2,5.4,7.5,9.5,8.9c2.7,0.9,7.3-1.6,8.3,1c0.7,1.8-0.6,3.9,0.6,5.4c0.4,0.5,0.9,0.9,1.2,1.5c0.3,0.6,0.4,1.2,0.5,1.9
	c0.9,7.4-0.7,15.2,1.7,22.4c1.2,3.7,3.5,7.1,4.2,11c1,5.3-1.4,11.1-5.9,14.2c-1.8,1.3-4,2.1-6,2.9c-1.4,0.5-3,1.1-4.5,0.6
	c-0.6-0.2-1.2-0.7-1.8-0.8c-0.7-0.1-1.3,0-2,0.2c-2.6,0.8-5.1,2.2-7.7,3.1s-5.4-0.3-8.1,0.2c-1.1,0.2-0.5,2.1-1.3,2.9
	c-1,1-2.5-1.1-3.2-2.4"/>
<path fill="none" stroke="#E1E1E1" stroke-miterlimit="10" d="M-2.9,168.1c0.4-0.1,0.9-0.1,1.3-0.2c3.5-0.6,6.9-1.9,10.3-3.2
	c1.5-0.6,3-1.2,4.2-2.2c1.7-1.5,2.6-3.6,3.2-5.7c0.2-0.7,0.4-1.3,0.2-2c-0.2-0.7-0.7-1.2-1.1-1.8c-1.8-2.4-2.4-5.7-1.7-8.6
	c0.1-0.5,0.3-1.1,0.3-1.6c0-1.5-1.6-2.5-2.9-3.2c-4.9-2.6-9.8-5.1-14.7-7.7"/>
<path fill="none" stroke="#E1E1E1" stroke-miterlimit="10" d="M-3.4,72.6c3.9,0.8,7.9,0.9,11.8,0c6.7-1.6,12.2-6,17.5-10.3
	c7.8-6.3,15.6-12.7,22-20.4c1.7-2,3.3-4.1,5.4-5.5c3.7-2.4,6.7-5,10.2-7.7c2.3-1.8,5.8-1.9,8.6-1c6.5,2,13.3,2.4,17.9,7.4
	c3.3,3.5,4.5,6.5,9.4,6.9c3.6,0.3,1.5,6.8,3.8,9.5c0.7,0.8,2.3-0.6,3.1,0c1.6,1.3,0.6,4.8,2.5,5.5c1.3,0.5,2.9-1.7,4.1-1
	c4.1,2.6,0.2,9.9-2.4,14.1c-0.8,1.3-1.7,2.5-1.8,4c-0.1,0.9,0.2,1.8,0.2,2.7c0,1.6-0.8,3.1-1.5,4.6c-2.4,4.6-4.8,9.3-7.2,13.9
	c-4.9,9.4-9.8,18.9-15.5,27.9c-3,4.9-6.3,9.6-10.3,13.7c-1.2,1.2-2.5,2.4-3,4.1c-0.5,1.6,1.5,2.4,2,4.1c1.5,5.7-8.4,25.8-6.3,39
	c0.6,3.5,1.6,7,2.1,10.5c1.4,9.8-1.1,20.2-7,28.2s-17.3,8.6-24.8,15.2c-1.6,1.4,2,3.5,4.1,4c7.7,2,16.2,3.9,23.3,0.4
	c6.5-3.2,9.2-14.1,16.5-14.1c2.2,0,1.3,4.3,2.8,5.9c1.2,1.3,3.3,1,5,0.5c1.7-0.6,3.4-1.4,5.2-1c1.7,0.4,1.1,2.3,1.7,4
	c1.2,3.5,7.4,0.4,11,0.6c7.7,0.4,17.2,2.1,19.6,9.5c1.4,4.2,8.7,1.2,12.3,3.8c4.4,3.2,2.7,10.5,4.1,15.8c0.2,0.9,0.6,1.9,1.4,2.2
	c0.5,0.2,1,0.1,1.5,0c4.3-0.9,8.6-1.9,12.8-2.8c4-0.9,8.2-1.8,11.4-4.3c6.4-4.8,7.9-14.3,14.5-18.8c0.8-0.6,1.8-1.1,2.8-1
	c0.8,0,1.5,0.4,2.3,0.2c1.2-0.2,1.8-1.5,2.5-2.4c1.4-1.7,3.5-2.5,5.5-3.4c6.1-2.7,11.7-6.6,16.3-11.5c5.8-6.2,14.9-19.2,18-17.5
	c3,1.6-3.7,5.5-6.2,7.8c-2.5,2.3-6.4,8.3-3,8.9c2.3,0.3,2.4-3.9,3.9-5.6s3.7-0.5,6-0.9c0.8-0.1,0.1-1.9,0.8-2.3
	c0.8-0.5,2.8,1.2,2.9,0.3c1-7.5,6.7-13.7,13.8-12.7c1.2,0.2,2.6,0.5,3.7-0.1c0.6-0.3,1.1-1,1.5-1.6c1.2-2.2,1.7-4.7,2.9-6.9
	c1.2-2.2,3.8-4,6.1-3.2c0.7,0.2,1.3,0.7,2.1,0.8c1.3,0.1,2.2-1,3.3-1.7c2.8-1.8,6.6-0.9,9.1,1.2s4,5.2,5.4,8.2
	c3.3,7,6.7,14.8,4.3,22.1c-1.5,4.4-4.9,7.9-8.2,11.2c-2.4,2.4-4.8,4.8-7.2,7.2c-1.1,1.1-2.3,2.3-2.9,3.7c-0.5,1.2-0.6,2.5-0.7,3.8
	c-0.5,8-1,16-1.5,23.9c-0.2,3.4-0.6,7.2-3.2,9.5c-0.8,0.7-1.7,1.2-2.4,1.8c-1.2,1.1-2,2.7-2.7,4.2c-5.6,12.2-9.8,25.1-12.3,38.3
	c-1.2,6,6,9.8,10.1,14.4c6.1,6.8,6.5,16.7,6.7,26.1"/>
<path fill="none" stroke="#E1E1E1" stroke-miterlimit="10" d="M253,220.1c0.8-1.2,1.6-2.4,1.8-3.8c0.2-0.9,0.1-1.8,0.2-2.8
	c0.1-1.1,0.3-2.2,0.3-3.3c0-1.1-0.1-2.3-0.8-3.2c-0.7-0.9-1.9-1.4-2.9-1.1c-1,0.4-1.6,1.8-0.9,2.7c0.3,0.4,0.8,0.6,1.3,0.9
	c0.9,0.8,1.2,2.3,0.5,3.3c-0.2,0.4-0.6,0.6-0.9,1c-1.2,1.2-1.9,2.9-1.9,4.6c0,0.7,0.1,1.5,0.5,2c0.4,0.6,1.2,0.9,1.9,0.6
	C252.5,220.9,252.7,220.5,253,220.1z"/>
<path fill="none" stroke="#E1E1E1" stroke-miterlimit="10" d="M281.9,365c0.3-1.8,0.4-3.5,0.1-5.3c-0.5-3.4-2.4-6.4-4.2-9.4
	c-8.1-13.8-12.7-29.7-13.4-45.7c-0.2-5.2,1.6-10,5.4-13.6c7.8-7.4,6.8-20.4,8.5-31.1c0.9-5.7,1.9-11.8,5.5-16.3
	c2.4-3,5.8-5.1,8.6-7.7c2.6-2.5,4.7-5.5,6.1-8.8c2.1-4.9,2.7-10.3,2.4-15.6c-0.4-6.7-2.3-13.3-5.5-19.2c-2.1-3.9-4.8-7.7-5.3-12.1
	c-0.6-5.5-5.6-10.2-10.9-11.7c-3.3-1-6.9-0.2-10.3,0.6c-15.5,3.8-32.4,4.9-45.9,13.4c-10.3,6.4-17.9,16.4-28,23.1
	c-3.9,2.6-7.9,5-11.3,8.3c-5.2,5-8.6,11.7-11.9,18.1c-4.9,9.8-10.4,28.2-14.7,29.3c-4.8,1.2-1.1-10.9-5-13.9
	c-5-3.9-13.1-1.6-17.4-6.2c-3.6-3.9-4.9-9.8-9.4-12.7c-1.9-1.2-4.1-1.7-6.2-2.4c-8.3-2.5-15.9-7.4-21.6-13.9c-0.9-1-1.8-2.1-3.1-2.5
	c-1.7-0.6-3.6,0.2-5.4,0.2c-5.3,0-8-6.2-9.4-11.3c-1.4-5-2.7-10-3.5-15.2c-2.4-17.6,3.4-36.2,15.4-49.3c4.3-4.7,9.5-9,11.2-15.1
	c0.4-1.3,0.5-2.6,1.1-3.9c0.6-1.4,1.7-2.6,2.7-3.7c6.1-7.1,10.5-15.7,12.6-24.9c2-8.7,6.4-16.7,7-25.6c0.3-4.2,0.2-8.5-0.2-12.7
	c-0.2-2.6-0.6-5.2-1.6-7.6c-2.6-5.9-8.8-9.2-14.7-11.8c-8.6-3.7-17.5-6.6-26.4-9.6c-2.3-0.8-4.6-1.5-7.1-1.9
	c-5.6-0.7-11.2,1-16.2,3.5c-7.6,3.8-14.4,9.1-21,14.4c-7.7,6.1-15.3,12.2-23,18.4c-4.6,3.7-9.4,7.5-14.9,9.7c-1.4,0.6-2.8,1-4.3,1.4
	"/>
<path fill="none" stroke="#E1E1E1" stroke-miterlimit="10" d="M-3.9,11.1c1.3-0.8,2.1-2.3,3.3-3.4c1.9-1.9,5.4-0.9,7.8-2.1
	c3.7-1.8,6.5-5,8.9-8.3c3-4,5.9-8.4,6-13.4"/>
<path fill="none" stroke="#E1E1E1" stroke-miterlimit="10" d="M16.4,9.1c0.1-0.1,0.3-0.3,0.3-0.4c0-0.4-0.4-0.6-0.8-0.6
	c-2-0.2-5.4,1.1-4.7,3c0.3,1,2,0.4,2.9,0C14.9,10.6,15.7,9.8,16.4,9.1z"/>
<path fill="none" stroke="#E1E1E1" stroke-miterlimit="10" d="M-4.2,32.5c1-0.5,2.1-1,3.2-1.4c6.6-2.8,13-6,19.3-9.4
	c2.1-1.1,4.1-2.3,5.9-3.8c2.4-2.1,4.2-4.8,6-7.4c2.7-4.1,5.5-8.2,8.2-12.2c0.7-1.1,1.5-2.2,2-3.4c0.5-1.2,0.8-2.5,1.2-3.7
	c1.5-4.1,4.9-7.1,8.2-10"/>
<path fill="none" stroke="#E1E1E1" stroke-miterlimit="10" d="M364,232.3c-1.6-1-2.9-2.3-3.8-4c-0.7-1.3-1.1-2.8-1.4-4.3
	c-0.6-2.6-0.8-5.3-1-8c-0.2-4.1-0.2-8.2-0.2-12.3c0-5.9-1.7-12.1,0.1-17.8c1.4-4.6,0.1-9.6-3.8-12.4c-4-2.8-9-3.3-13.8-3.7
	c-6.9-0.6-13.8-1.2-20.7-1.8c-2.9-0.2-5.9-0.5-8.3-2.1c-2.8-1.9-4.3-5.2-6.7-7.6c-3.1-3.2-7.6-4.9-10.9-8c-2.5-2.4-4.1-5.5-6.6-7.9
	c-5.5-5.3-14.6-6.4-18.7-12.9c-3.6-5.7-1.9-13.4-5.2-19.2c-0.6-1.1-1.6-2.2-2.9-2.1c-0.9,0.1-1.7,0.7-2.4,1.3
	c-4.5,3.5-10.8,3.5-16.4,2.5c-5.6-1-11.1-3.1-16.8-3.2c-6-0.2-12,1.7-18.1,1.4c-13.6-0.8-25-14.8-22.9-28.3c1-6.6,4.7-12.5,9-17.6
	c1.1-1.3,2.3-2.6,3.8-3.4c2-1.1,4.3-1.3,6.6-1.6c6.6-1,13-3.4,18.6-7c3.2-2,7-5.7,5.3-9.1c-2.5-4.6-9.5-3.7-13.6-6.9
	c-4.1-3.2-7.5-4.1-12.7-5.2c-2-0.4-3.8-4.3-5.3-2.9c-2.6,2.4-0.3,7.6-2.9,10c-1.2,1.1-2.7,1.7-4.2,2.2c-3.8,1.5-7.7,3-11.5,4.5
	c-3.2,1.3-6.8,3.7-10.1,2.4c-1.6-0.6-3.4-2-5.1-2.2c-1.1-0.1-2.2-0.1-3.1-0.5c-1.3-0.6-2-2-2.8-3.2c-1.9-2.9-4.8-5-7.4-7.2
	c-2.1-1.7-4.1-3.6-5.7-5.7c-0.7-0.9-0.4-2.2-1.2-3c-0.7-0.8-2.4,0-3.1-0.8c-1.4-1.4-1.4-3.6-1.4-5.5c0-0.5,0-1.1-0.2-1.6
	c-0.2-0.6-0.6-1.2-0.9-1.7c-2.8-4-5.6-7.9-8.5-11.9c-0.7-1-1.5-2.1-2.2-3.1c-2.7-3.8-5.3-7.5-8-11.3"/>
<path fill="none" stroke="#E1E1E1" stroke-miterlimit="10" d="M296.6,364.6c1.8-1.6,3.6-3.5,5.8-5.4c1.7-1.4,4-2,6-2
	c19.2,0.5,38.6-0.5,55.7-13.2"/>
<path fill="none" stroke="#E1E1E1" stroke-miterlimit="10" d="M-3.6,58.1c21.4-9.5,35.2-45.2,60.1-52c24.4-6.7,51.6,5.9,74,19
	c1.2,0.7,3,2,5,3s3,2,4,4s2.1,5,2,7c-0.5,19-8.6,36.1-13,55c-1.8,8-3.9,16.1-8,24c-6.8,13.1-19,20-28,31s-15,27-5,39
	c15,18,39.1,18.8,60,29c4,2,4.7,7.2,7,10c3.6,4.4,9.6-1,10-5c1-9.2,8.2-16.4,17-20c2.1-0.9,4.2-5.6,8.5-7.8
	c13.8-7,14.8-9.8,12.5-22.8c-2-11.8,19.9-13.6,30-18.5c14.9-7.2,29.9,2,45,3c3,0.2,7.1-1.1,10,1c10.3,7.6,11.9,20.1,20,30
	c10.8,13.2,11.6,33.6,0,45c-7.6,7.4-20.3,13.4-22,24c-2.2,13.9-4.4,26.8-10,39c-3.2,6.9-5.5,14.3-1,21
	c14.8,21.7,15.3,37.4,13.9,46.6"/>
<path fill="none" stroke="#E1E1E1" stroke-miterlimit="10" d="M91-12.7c-0.4-0.1-0.7-0.5-1.1-0.4c-1.7,0.5-0.3,3.4,1,4.6
	c1.3,1.1,3,1.8,4.2,3c0.9,0.9,1.5,2.1,2.2,3.2c3.7,6.2,10.5,10.2,17.6,11.4c1.8,0.3,3.8,0.4,5.4-0.4c1.7-0.8,2.9-2.8,2.3-4.5
	c-0.4-1.1-1.3-1.8-2-2.6c-1.7-2-2.5-4.6-3.9-6.7c-3.4-4.9-10.3-6.9-12.7-12.3"/>
<path fill="none" stroke="#E1E1E1" stroke-miterlimit="10" d="M151.9,124.6c1.2,1.2,3.3,0.4,5,0.5c0.6,0.1,1.1,0.1,1.6-0.1
	c0.5-0.2,0.9-0.7,1.3-1.1c2.7-2.9,6.5-4.8,10.5-5.2c0.8-0.1,1.6-0.1,2.3-0.5c0.7-0.4,1.1-1.4,0.6-2c-2.3-2.4-4.8-4.5-7.2-6.8
	c-0.9-0.8-1.7-1.6-2.5-2.6c-2-2.3-3.3-5.2-3.8-8.3c-0.1-0.7-0.2-1.5-0.6-2.1c-0.4-0.6-1.2-1-1.9-0.6c-0.2,0.2-0.4,0.4-0.6,0.6
	c-0.9,1.3-1.7,2.6-2.6,3.9c-0.3,0.5-0.7,1-0.8,1.6c-0.2,1.2,0.7,2.4,1.2,3.5c1.2,2.6,0.4,5.7-0.4,8.4c-0.5,1.7-1,3.4-1.4,5.1
	C152.2,120.9,150.6,123.3,151.9,124.6z"/>
<path fill="none" stroke="#E1E1E1" stroke-miterlimit="10" d="M139.3,140.4c-1.3,0.2-3,2-2.1,2.9c0.8,0.8,2.2-0.2,2.9-1
	c0.4-0.5,0.7-1.3,0.2-1.7C140.1,140.4,139.7,140.3,139.3,140.4z"/>
<path fill="none" stroke="#E1E1E1" stroke-miterlimit="10" d="M151,132.7c0.6-0.4,0.2-1.5-0.4-1.9c-0.6-0.4-1.6-0.9-2.1-0.4
	c-0.3,0.3-0.4,0.9-0.2,1.4C148.5,132.7,150.1,133.2,151,132.7z"/>
<path fill="none" stroke="#E1E1E1" stroke-miterlimit="10" d="M142.9,194c-0.1-0.1-0.2-0.2-0.4-0.3c-0.3-0.1-0.6,0.3-0.8,0.6
	c-0.5,1.3,0,3.7,1.4,3.5c0.7-0.1,0.9-1,0.9-1.7C144.1,195.3,143.5,194.6,142.9,194z"/>
<path fill="none" stroke="#E1E1E1" stroke-miterlimit="10" d="M135.8,95.8c-0.8,2.3-0.6,4.9-0.7,7.3c-0.4,9.6-5.1,18.4-10.2,26.5
	c-3.4,5.3-9.6,6.6-14.3,10.8c-2.8,2.5-0.8,7.8-3.6,10.2c-2.4,2.1-6,2.4-8.4,4.5c-2,1.7-2.8,4.3-3.6,6.8c-1.7,5.2-3,11.7,1.1,15.3
	c3.2,2.8,8,2.2,12.1,3c2.8,0.6,5.4,1.9,8.1,3c4.3,1.8,8.9,3.3,13.5,4.3c3.6,0.8,7.3,1.3,11,0.8c5.1-0.7,9.8-3.2,14.4-5.7
	c2.6-1.4,5.4-3,6.8-5.7c1-1.9,1.1-4,1.3-6.1c0.7-6.1,3.1-12.9,8.8-15.1c3.1-1.2,6.6-0.7,10-0.6c3.7,0.1,7.4-0.3,11-1.1
	c13.8-3.3,24.9-13.1,35.5-22.6c2.1-1.9,4.3-3.9,5.3-6.6c0.9-2.7,0.1-6.2-2.5-7.4c-0.8-0.3-1.6-0.4-2.5-0.5
	c-3.8-0.4-7.6-0.8-11.3-1.2c-2.4-0.3-5.2-0.4-7.1,1.2c-0.6,0.5-1,1.1-1.6,1.5c-1.1,0.7-2.4,0.5-3.7,0.4c-2.4-0.3-4.9-0.6-7.3-0.9
	c-2.8-0.3-5.7-0.7-8.1-2.1c-1.9-1.1-3.4-2.7-4.8-4.3c-5.4-5.8-11-12.1-11.9-19.9c-0.6-5.1,0.9-10.3,2.8-15
	c3.4-8.3,17.3-14.1,14.6-22.7c-1-3.1-5.9,1.8-8.7,3.5c-7.9,4.8-19.3,2.5-24.7-5c-1.4-1.9-4.7-6-5.6-3.7c-1.4,3.4,0,7.3-2,10.5
	c-2,3.1-4.4,6.4-4.3,10.1c0,1.4,0.4,2.9-0.3,4.1c-0.4,0.9-1.3,1.5-2,2.2c-3.6,3.7-2.4,9.8-4.3,14.6
	C137.7,92.1,136.4,93.8,135.8,95.8z"/>
<path fill="none" stroke="#E1E1E1" stroke-miterlimit="10" d="M159.4,67.1c-0.3-0.5-0.7-1.2-1.4-1.1c-0.3,0-0.6,0.2-0.8,0.4
	c-2.9,2.9-1.9,7.8-3.4,11.5c-2,4.7-8.1,7.6-7.9,12.8c0,0.9,0.3,1.9,0,2.8c-0.5,1.5-2.4,2.6-2.2,4.2c0.1,0.7,0.6,1.3,0.7,2
	c0.3,1.7-1.6,3.1-2.2,4.7c-0.7,1.7-0.1,3.5,0.1,5.3c0.4,3.6-0.8,7.2-2.3,10.5c-2.5,5.6-5.6,10.9-8.8,16.2c-0.6,1-1.3,2-2.4,2.3
	c-0.5,0.1-1.1,0.1-1.5,0.4c-0.5,0.3-0.6,1-0.8,1.5c-0.5,2.1-1.6,4.5-3.7,5c-1.9,0.5-4.4-0.4-5.4,1.3c-0.8,1.4,0.4,3.1-0.1,4.6
	c-0.3,0.9-1.2,1.6-2,2.1c-2.2,1.5-4.5,3-6.7,4.5c-1.4,1-2.9,2-3.4,3.6c-0.7,2.1,0.7,4.5,2.6,5.7c2,1.1,4.3,1.3,6.6,1.2
	c8.2-0.2,16.3-2.6,24.1-5c3.4-1,6.9-2.1,10.3-3.1c3.9-1.2,7.9-2.4,10.8-5.3c2-2,3.2-4.8,5.6-6.4c4-2.9,9.8,2,14.1-0.2
	c0.9-0.5,0.1-2.5,1-2.9c4.3-1.5,9.1,1.3,12.8-1.3s6.2-6.6,8.5-10.5c0.7-1.1,1.3-2.5,0.9-3.7c-0.3-0.7-0.9-1.3-1.4-1.8
	c-1.6-1.4-3.2-2.8-4.7-4.2c-1.3-1.2-3-2.5-4.7-2.1c-1.5,0.3-2.7,1.9-4.2,1.5c-0.8-0.2-1.3-0.8-1.9-1.4c-1.9-2.1-3.7-4.2-5.6-6.4
	c-4.1-4.6-8.1-9.3-12.2-13.9c-0.4-0.5-0.9-1-1-1.6c-0.1-0.6,0.1-1.2,0.3-1.7c1.1-4.2-1.3-8.5-0.9-12.8c0.4-3.9,5.6-8.4,3-11.4
	C166.6,71.2,161.5,70.8,159.4,67.1z"/>
<path fill="none" stroke="#E1E1E1" stroke-miterlimit="10" d="M260.9,115.2c-1.4-0.3-2.2,1.4-3.3,2.2c-0.9,0.6-2.1,0.9-2.4,1.9
	c-0.3,0.8,0.3,1.7,1,2.2c0.7,0.5,1.8,0.4,2.3,1.1c0.2,0.3-0.1,0.7,0,1c0.3,0.8,1.6,0.6,2.3,0s0.9-1.4,1.2-2.2c0.6-1.8,1.2-4,0-5.5
	C261.7,115.6,261.3,115.3,260.9,115.2z"/>
<path fill="none" stroke="#E1E1E1" stroke-miterlimit="10" d="M283.3,143.3c-1.7-1.2-3.4-2.4-5.4-3c-0.5-0.1-1-0.2-1.4,0
	c-0.2,0.2-0.4,0.4-0.5,0.7c-0.6,1.6,0.1,3.5,1.3,4.7s3,1.7,4.7,1.9c1.1,0.1,2.4,0,2.9-0.9C285.6,145.5,284.4,144.1,283.3,143.3z"/>
<path fill="none" stroke="#E1E1E1" stroke-miterlimit="10" d="M363.5,246.4c-0.9-0.3-1.8-0.5-2.7-0.7c-1.4-0.3-3-0.6-4-1.6
	c-1.2-1.2-1.6-3-2.4-4.4c-2.2-3.6-7.2-4.5-9.7-8c-1.3-1.9-1.7-4.3-2-6.6c-2.2-16.2,7.1-34.2-0.3-48.8c-2.2-4.3-9.2-2.8-14-2.9
	c-0.7,0-1.5,0.1-1.9,0.6c-0.4,0.6-0.2,1.5-0.5,2.1c-0.5,0.9-1.7,0.8-2.7,0.7c-4.5-0.6-10.8-5.6-13.4-1.9c-3.2,4.4,4.8,9.9,6.9,14.9
	c2.5,5.8,4.7,11.9,4.4,18.2c-0.1,1.5-0.3,3.1,0.2,4.6c0.5,1.5,1.6,2.7,1.6,4.3c-0.1,1.6-1.5,2.8-2.8,3.9c-3.8,3.3-6.7,7.7-8.3,12.6
	c-0.4,1.2-0.8,2.6-1.8,3.3c-1,0.8-1.7-1-3-1c-2-0.1-2.4,3.1-4.2,4.1c-1.8,1-1.9,2.8-2.3,4.9c-0.3,1.4-3.1,0.7-3.8,2
	c-0.6,1.2,0.8,2.8,0.3,4c-2.3,5.9-0.3,12.6-4.3,17.5c-1.4,1.6-2.2,2.3-3.3,4.1c-0.4,0.7-2.6-0.5-2.5,0.3c2.1,11.8-3.7,19-3.6,28.7
	c0.1,4.6,0.8,9.3,3.1,13.3c7.5,13,6.2,27.3,9.5,30.6c1.4,1.4,3.7-1.5,5.6-2.1c5.3-1.6,11-1.8,16.5-2c3.6-0.1,7.1-0.2,10.7-0.3
	c6.8-0.2,14.5-0.8,18.7-6.2c1.7-2.2,2.5-4.8,3.9-7.2c2.8-4.8,7.5-7.8,12.6-10.4"/>
<path fill="none" stroke="#E1E1E1" stroke-miterlimit="10" d="M363,262.8c-1.7-0.5-3.6-0.8-5.3-1c-0.7-0.1-1.6-0.2-2.1,0.4
	c-0.3,0.4-0.3,0.8-0.3,1.3c0.1,8.6,2.2,17.1,6.3,24.7"/>
<path fill="none" stroke="#E1E1E1" stroke-miterlimit="10" d="M295.2,280.2c-0.9,3.5-0.9,7.3,0.1,10.9c0.5,1.9,1.4,3.8,1.6,5.8
	c0.4,3.8-1.5,7.5-1.5,11.3c0,4.1,2.2,7.8,2.4,11.9c0.1,1.5-0.2,3,0.3,4.4c0.4,1.4,2.9,3.7,3.3,2.3c1.1-3.9,0-13.4,0.6-20.1
	c0.4-4.1,1.5-8.1,2.8-12c2.2-6.7,4.8-13.4,7.7-19.9c2.8-6.3,6-12.6,11.1-17.2c2.2-2,4.7-3.6,6.8-5.6s4-4.6,4.2-7.6
	c0.4-4.9-3.4-9-4.6-13.7c-1.3-5,0.3-10.2-0.2-15.3c-0.1-1-0.5-2.2-1.5-2.3c-1-0.1-1.6,1-2,1.9c-1.5,3.8-3,7.6-3.8,11.6
	c-0.3,1.4-0.5,2.7-1,4c-0.8,1.8-2.3,3.2-3.6,4.7c-1.3,1.5-2.4,3.2-3.3,4.9c-0.5,1-1,2.1-1.8,3c-0.6,0.6-1.3,1-1.9,1.5
	c-2.1,1.5-4.1,3.3-4.7,5.8c-0.2,0.8-0.3,1.8-0.7,2.5c-0.4,0.7-1.1,1.1-1.6,1.7c-0.9,1.1-1.2,2.5-1.7,3.8c-0.5,1.3-2.4,1.4-2.9,2.7
	c-1.5,4,4,9.4,0.7,12c-1.4,1.1-1.2,2.5-2.1,4C297.1,278.5,295.6,278.9,295.2,280.2z"/>
<path fill="none" stroke="#E1E1E1" stroke-miterlimit="10" d="M135.7-10c0.3,4.8,0.6,9.5,0.9,14.3c0.3,4.6,0,8.2,3.6,11.5
	c2.3,2.1,4.1,6,7.2,7.1c2.8,1,5.8,2.5,9.2,1.8c2.1-0.4,0.9-5.6,3.1-5.6c4.1,0,5.2,6.5,8.7,10c4.5,4.6,11.1,2.1,16-1c3-1.9,5-6,8-9
	c1-1,2-1.1,3-1c8.2,1,13.9,7.1,21,12c8.9,6.1,19,2,27-2c2-1,4.6-1.5,6,0c11,11.7-8.5,31.5-21,43c-3.1,2.9-7.6,3.5-11,6
	c-1.8,1.3-4,2-6,2c-5,0-10.4-5.2-13.9-1.1c-3,3.5,1.1,9.9,4.5,13.1c1.1,1,1.5-1.2,2.5-1c4.4,1,4,8.1,9,9c7,1.2,13.4,5.1,20,4
	c4.2-0.7,3.6-10.3,6.8-8c1.5,1.1,1.2,5.5,2.8,4.4c2.8-2,3.4-5.3,4.5-4.4c6.6,5.6,18.7-4.2,22,0.2c2,2.6-4.5,21.2,5.5,25.2
	c5,2,12.8,1.2,16.5,5.5c6.6,7.6,16,13,23,20c2,2,1.9,4,3,6c3.8,7.1,13.2,7.3,19,2c2.1-1.9,3-6.9,6-6c6.1,1.8,7.9,0.9,12-2
	c2.9-2.1,4.1,3,4,5c-0.5,9.4-1.6,19.5,4.7,27.5"/>
<path fill="none" stroke="#E1E1E1" stroke-miterlimit="10" d="M142.9-10.5c1,7.5,4.4,17.3,12,16.8c1.8-0.1,3.5-0.9,5.3-0.6
	c3.7,0.5,6.1,4.9,9.9,4.9c4.4,0,6.2-5.7,10-8c3.1-1.9,7.1-1.3,10.4,0.1c8.9,3.8,14.9,12.4,23.3,17.2c10.2,5.9,23.8,5.5,33.6-1.1
	c1-0.6,2-1.4,3.1-1.4c1.3,0,2.5,0.8,3.5,1.6c4.8,3.8,13.6,5.3,14.4,11.3c1.8,13.9-15.8,23.2-21.9,35.8c-1.5,3-2.8,6.7-1.3,9.6
	c0.8,1.5,2.3,2.4,3.6,3.4c17.9,13.8,25.2-3.2,33.2-12.2c8.8-9.8-2.1,25.9,3.1,38c1.4,3.4,4.1,6.1,6.8,8.6
	c6.2,5.8,12.8,11.2,19.8,16.1c4.9,3.5,11.3,6.8,16.7,4.1c2.6-1.3,4.4-3.9,6.9-5.6c2.2-1.5,4.9-2.3,7.4-3.2
	c7.5-2.8,11.2-13.5,19.2-13.8c0.7,0,1.3,0,1.9,0.2"/>
<path fill="none" stroke="#E1E1E1" stroke-miterlimit="10" d="M188.7-6.7c8.4,0.5,10.6,11.9,18.5,14.8c4.7,1.7,9.4,1.1,14.1,3.2
	c4.2,1.8,9,2,13.6,2c8.5,0,17.7-4.9,25.4-1.4c6.5,2.9,12.1,4.9,19,6.8c5.1,1.4,5.1,9.1,6.5,14.2c0.5,1.9,1,3.8,1.6,5.7
	c4.7,17.2,9.5,35.1,6.3,52.6c-0.6,3.4-1.5,7,0,10.1c0.8,1.5,2,2.7,3.3,3.9c3.5,3.3,6,8.4,10.5,10c8.7,2.8,18.1-2.2,27.1-3.3
	c1.9-0.2,3.8-0.5,5.6-1.2c3.3-1.4,5.6-4.4,7.8-7.3c4.5-6,0.6-14.3,4.9-20.5c2.1-3,5.7-0.9,9.2,2.4"/>
<path fill="none" stroke="#E1E1E1" stroke-miterlimit="10" d="M203.4-9.8c-0.9,3.9,4,6.4,7.8,7.3c5.5,1.4,11.1,2.8,16.6,4.2
	c3,0.8,6,1.5,9.1,1.7c5.5,0.3,10.9-1.4,16.4-1.6c4.4-0.2,8.9,0.6,13.2,1.3c7,1.2,14.1,2.4,21.1,3.6c1.2,0.2,2.5,0.4,3.5,1.1
	c1.6,1.1,2.2,3,2.8,4.8c1.2,3.7,2.3,7.5,3.5,11.2c0.6,1.9,1.2,3.9,2.6,5.3c1.4,1.4,3.6-0.1,5.4,0.8c3,1.6,2.5,6.6,5.8,7.1
	c1.6,0.2,3.3-0.1,4.9,0.3c2.4,0.6,4,2.7,5.9,4.2c1.9,1.5,4.1,0.4,6.6,0.5c9.9,0.3,11.6,21,21.6,20.5c4.3-0.2,8.5-1.6,12.3-0.7"/>
<path fill="none" stroke="#E1E1E1" stroke-miterlimit="10" d="M271.5-10.9c0.2,6.7,7.4,12.4,14,11c2.9-0.6,5.7-2.3,8.6-1.6
	c5,1.1,6,8.2,10.2,11.2c2.4,1.7,5.7,2,7.7,4.1c1.4,1.5,1.9,3.6,2.8,5.5c2.3,4.8,7.7,7.8,12.9,7.4c0.8-0.1,1.6-0.2,2.3,0.1
	c1.2,0.5,1.5,2,1.9,3.3c1.1,4.2,3.7,8.2,7.5,10.2c0.8,0.4,2,0.3,2.6,1c1.4,1.9,1.5,4.6,3.6,5.7c5.2,2.7,11.5,1,17.2,1.9"/>
<path fill="none" stroke="#E1E1E1" stroke-miterlimit="10" d="M298.3-9.4c-1.2,2.2,0.5,5.1,2.7,6.2c2.3,1.1,4.9,0.9,7.4,0.7
	c10.1-0.5,20.3,0.9,29.9,3.9c2.1,0.7,4.9,1.2,6-0.7c0.5-0.8,0.5-1.8,0.9-2.6c0.6-1.1,1.6-1.6,2.9-2"/>
<path fill="#7BBCEB" stroke="#4E9BD7" stroke-miterlimit="10" d="M169,188.2c0.2,0.7,0.5,1.3,0.8,1.9c0.8,1.6,1.6,3.2,2.3,4.7
	c0.2,0.4,0.4,0.8,0.9,0.9c0.3,0,0.6-0.1,0.8-0.3c4.2-2.7,8.2-5.8,11.6-9.5c1.1-1.3,2.2-2.6,2.9-4.1c0.6-1.2,0.9-2.5,1.2-3.8
	c0.3-1.3,0.5-2.6,0.6-3.9c0.2-2,0.2-4.1-0.7-5.9c-0.8-1.5-2.1-2.7-3.4-3.8c-0.6-0.5-1.2-1-1.7-1.5c-0.2-0.2-0.4-0.3-0.6-0.4
	c-0.4-0.1-0.7,0.1-1,0.3c-2.8,1.7-4.6,5-7.8,5.8c-0.3,0.1-0.7,0.1-0.9,0.4c-0.2,0.2-0.2,0.4-0.3,0.7c-0.5,1.8-1.3,3.4-2.2,5
	c-0.4,0.7-0.4,1.6-0.6,2.4c-0.2,0.6-0.2,1.4-0.3,2c-0.3,2-1.1,3.5-1.4,5.4C168.9,185.6,168.7,186.9,169,188.2z"/>
<path fill="#EAEAEA" stroke="#D6D6D6" stroke-miterlimit="10" d="M274.4,198.6c0.3,0.2,0.5,0.6,0.7,0.8c0.7,1,1.9,1.7,2.4,2.8
	c0.3,0.5,0.4,1.1,0.5,1.6c0.5,1.6,1.7,2.9,2.5,4.4c1.3,2.4,1.5,5.2,1.8,7.9c0.1,0.7,0.1,1.4-0.1,2.1c-0.3,1-1.3,1.7-2,2.5
	c-0.9,1-1.6,2.2-2.6,3.2s-2.2,1.8-3.6,1.7c-1.5-0.2-2.6-1.5-3.3-2.8c-0.7-1.2-1.1-2.6-1.4-4c-0.4-2.1-0.3-4.7-2.1-6
	c-0.2-0.1-0.4-0.3-0.4-0.5c0-0.2,0.1-0.3,0.1-0.5c0.4-0.6,0.7-1.3,1.1-1.9c0.6-1,1.1-2.4,0.2-3.1c-0.7-0.6-1.7-0.2-2.5,0.2
	c-0.8,0.4-1.9,1.3-2.5,0.7c-0.4-0.5,0.4-1.3,1-1.7s1.4-0.6,1.7-1.2c0.3-0.5,0.1-1.2-0.1-1.7c-0.1-0.3-0.5-0.7-0.7-0.9
	c-0.5-0.4-0.2-1,0.1-1.6c0.3-0.6,0.8-1,1.4-1.3c2.1-1.3,4.6-1.7,7-1.1C273.9,198.4,274.2,198.5,274.4,198.6z"/>
<path fill="#EAEAEA" stroke="#D6D6D6" stroke-miterlimit="10" d="M212,291.3c-0.1-0.5-0.5-1.3-0.5-1.8c0.1-1.1,0.3-2-0.3-3
	c-0.1-0.2-0.3-0.5-0.6-0.6c-0.2-0.1-0.5-0.1-0.7-0.1c-1.8-0.1-3.6-0.7-5.4-0.8c-1.8-0.1-3.8,0.2-5.1,1.6c-0.7,0.7-1.1,1.6-1.6,2.4
	c-0.6,0.8-1.5,1.5-2.4,1.3c-0.7-0.1-1.4-0.6-2-0.4c-0.8,0.3-0.9,1.2-1.3,1.9c-0.4,0.7-1,1.1-1.6,1.7c-1.6,1.6-2.5,3.8-2.9,6
	c-0.4,2.2-0.2,4.5-0.1,6.8c0,0.5,0.1,1.1,0.3,1.5c0.3,0.4,0.7,0.7,1.1,1c2.9,1.8,4.6,4.8,7.9,5.6c0.9,0.2,1.5-0.3,2.3-0.5
	c0.4-0.1,1.4,0.1,1.8,0.2c1.4,0.3,2.2,0.2,3.7,0.1c0.8,0,1.5-0.1,2.2-0.3c1.1-0.4,2.3-0.3,3.3-0.9c1.7-1.1,2.7-3,3.8-4.7
	c0.8-1.2,1-2.8,2.1-3.7c0.5-0.4,1.1-0.6,1.5-1.1c0.3-0.4,0.4-0.9,0.5-1.3c0.4-2.1,0.6-4.2,0.6-6.4c0-0.2,0-0.4-0.1-0.6
	c-0.2-0.4-0.6-0.5-1-0.5c-1.2-0.1-2.5,0.1-3.5-0.5c-0.5-0.3-0.9-0.8-1.3-1.3C212.5,292.5,212.1,292,212,291.3z"/>
<path fill="none" stroke="#D6D6D6" stroke-miterlimit="10" d="M106.2,349c-1.6-3.6,3.3-7.3,6.7-9.3c2.6-1.5,4.6-3.8,7.4-4.9
	c1.9-0.7,3.7-1.3,5.5-2.2c1-0.5,2.1-0.7,3.1-1.1c1.6-0.6,3.1-1.6,4.5-2.6c2-1.4,4.1-2.8,6.1-4.2c0.4-0.2,0.7-0.5,1.1-0.6
	c1.1-0.2,2.3,0.6,3.1-0.1c0.5-0.4,0.8-1.2,1.3-1c0.3,0.1,0.5,0.4,0.8,0.4c0.2,0,0.4-0.2,0.6-0.4c1.1-1.1,2.8-0.9,4.3-0.5
	c1.5,0.4,2.5,0.2,3.8-0.6c1.1-0.7,2.3-2.3,3.2-3.2c1.7-1.8,4.5-1.6,7-2c4.1-0.6,9.5-2.9,10.2-1.8"/>
<path fill="none" stroke="#D6D6D6" stroke-miterlimit="10" d="M135.6,254.1c-3.8,2.9-7.6,5.9-11.4,8.8c-0.9,0.7-1.9,1.5-2.6,2.4
	c-0.6,0.9-1.1,1.9-1.6,2.8c-3.1,5.9-9.1,9.3-14.8,12.8c-7.9,4.9-15.5,10.3-22.7,16.2c-3.7,3.1-7.4,6.3-10.2,10.3
	c-2.3,3.3-3.9,7.1-6.1,10.5c-2.2,3.4-5.1,6.6-9,7.9c-1.9,0.6-4.3,1-5.2,2.8c-0.4,0.8-0.3,1.8-0.6,2.7c-1,2.9-4.9,3.4-6.9,5.7
	c-1.6,1.9-1.6,4.7-2.2,7.2c-0.9,3.7-3.4,6.9-6.8,8.6c-2.4,1.2-5.7,2.5-5.5,5.2c0.1,1.1-0.1,2.3-0.6,3.3"/>
<path fill="none" stroke="#D6D6D6" stroke-miterlimit="10" d="M188.1,308.2c-5,2.6-10.5,5.7-15.5,8.3c-1.6,0.8-4.4,1-5.6,2.3
	c-3.8,3.9-7.9,5.1-12.8,7.4c-1.3,0.6-2.2,2-3.5,2.7c-1.3,0.7-2.8,0.8-4.2,1.2c-8.5,1.9-15.2,9.3-23.8,10.5c-0.8,0.1-1.7,0.2-2.4,0.5
	c-1.5,0.8-2.2,2.6-3.7,3.6c-0.9,0.6-2.1,0.8-3.1,1.1c-4.1,1.1-7.5,3.8-10.6,6.7c-3.6,3.4-7,7.1-10,11"/>
<path fill="#EAEAEA" stroke="#D6D6D6" stroke-miterlimit="10" d="M262.9,73.3c-2,0.8-5.1-0.5-5-2.6c0.1-1.9,1.6-2.3,1.7-4.2
	c0-0.6,0-1.2,0-1.7c0.2-1.4,1-2.6,2.1-3.6c1-1,2.2-1.8,3.1-2.9c2.6-2.8,3.6-7.1,7-8.8c1-0.5,2.2-0.7,3.4-0.9c1-0.2,2-0.3,3-0.4
	c0.8-0.1,1.7-0.1,2.2,0.5c0.4,0.5,0.3,1.3,0,1.9c-0.3,0.6-0.8,1.1-1.1,1.7c-0.9,1.8,0,4-0.9,5.7c-0.6,1.2-1.9,1.9-2.9,2.7
	c-1.1,0.9-2,2.2-2.9,3.3c-2.3,2.8-4.9,5.4-7.5,7.9C264.3,72.4,263.6,73,262.9,73.3z"/>
<path fill="#EAEAEA" stroke="#D6D6D6" stroke-miterlimit="10" d="M331.3,68.2c-0.2,0.2-0.5,0.3-0.7,0.6s-0.3,0.6-0.2,0.8
	c0.1,0.1,0.2,0.2,0.3,0.3c0.6,0.5,1.7,1.1,2.3,0.5c0.8-0.9,2.1-0.8,2.6-1.9c0.4-0.9-1.4-1.2-2.2-1.8c-0.2-0.2-0.5-0.3-0.8-0.1
	c-0.1,0.1-0.2,0.2-0.2,0.3C332,67.5,331.7,67.9,331.3,68.2z"/>
<path fill="#EAEAEA" stroke="#D6D6D6" stroke-miterlimit="10" d="M306,53.8c0.3-0.4,0.2-1.1-0.2-1.6c-0.4-0.6-1.4-0.9-2-0.6
	c-0.5,0.3-0.6,1.2-0.3,1.7C304,54.1,305.4,54.5,306,53.8z"/>
<path fill="#EAEAEA" stroke="#D6D6D6" stroke-miterlimit="10" d="M322.9,88.3c-0.4,0-0.7-0.2-1.1-0.4c-1.5-0.7-3.1-0.9-4.7-1.1
	c-0.6-0.1-1.2-0.1-1.8,0c-1.6,0.3-2.8,2.9-4.2,2.2c-0.9-0.5,0-2.2,0.6-3c0.4-0.5,0.9-0.9,1.2-1.5c0.5-1,0.2-2.3,0.2-3.4
	c0-1.2,1.2-3.3,1.9-2.3c0.4,0.5-0.1,1.2,0.1,1.8c0.2,0.6,0.7,1.1,1.3,1.1c0.4,0,0.7-0.2,1-0.3c1.4-0.8,3.1-2.4,2.8-3.3
	c-0.3-1.2-2.8-1.1-4.5-1.5c-0.9-0.2-1.9-0.4-2.8-0.1c-1.4,0.4-2.2,2.2-1.7,3.5c0.1,0.3,0.3,0.7,0.3,1c0,0.4-0.3,0.7-0.6,1
	c-0.8,0.8-1.3,2.8-2.4,2.4c-0.8-0.2-0.8-1.5-1.3-2.2c-1.1-1.6-1.3-3.5-1.6-5.4c-0.5-4.2-1.1-8.4-0.5-12.5c0-0.2,0.1-0.4,0.2-0.6
	c0.3-0.3,0.8-0.2,1.2-0.4c0.5-0.2,0.7-1,0.6-1.5c-0.1-0.6-0.3-1.2-0.2-1.8c0.1-0.6,0.7-1.2,1.2-1c0.2,0.1,0.4,0.2,0.5,0.4
	c0.7,0.8,1.2,1.7,1.5,2.6c0.3,0.9,0.6,2.1,1.6,2.3c0.9,0.2,1.9-0.7,2.7-0.1c0.6,0.4,0.5,1.4,0.9,2c0.5,0.8,1.6,0.8,2.6,1.1
	c1.9,0.4,3.4,2,3.8,3.9c0.1,0.7,0.1,1.5,0.3,2.3c0.3,1.5,1.3,2.8,1.8,4.2c0.5,1.4,0.7,2.8,1.4,4.2c0.7,1.5,2,2.7,3.6,2.7
	c0.5,0,1-0.1,1.4,0.2c0.3,0.3,0.4,0.7,0.5,1.1c0.1,1.1,0.2,2.4-0.7,3c-0.7,0.5-1.7,0.2-2.5-0.2c-0.8-0.4-1.6-0.9-2.4-0.8
	C324.3,87.8,323.6,88.4,322.9,88.3z"/>
<path fill="none" stroke="#D6D6D6" stroke-miterlimit="10" d="M305.1,54.4c0.2,0.8,0.2,1.3,0.7,1.7c0.4,0.4,0.9,0.6,1.3,0.9
	s0,1.4,0.4,1.7"/>
<path fill="#EAEAEA" stroke="#D6D6D6" stroke-miterlimit="10" d="M353.9,13.4c-0.7-0.1-1.6,0-2.1-0.6c-0.4-0.5-0.2-1.3,0.2-1.9
	s0.9-1.1,1-1.7c0-0.2,0-0.4,0-0.5c-0.2-0.3-0.6-0.4-1-0.3c-2.1,0.1-4.2,0.2-6.3,0.4c-0.5,0-1.1,0.1-1.6,0.2
	c-1.1,0.4-1.9,1.6-1.9,2.8c0,1.2,0.8,2.3,1.8,2.9c0.6,0.3,1.5,0.5,1.7,1.2c0.2,0.4,0,0.9-0.1,1.4c-0.6,1.8-2.3,4.2-1.5,5.9
	c0.5,1.1,1.6,1,1.7,2.2c0.1,0.6,0,1.4,0.5,1.8c0.2,0.1,0.4,0.2,0.6,0.3c0.8,0.5,0.8,1.7,1.2,2.6c0.7,1.6,2.8,2,4.6,2.2
	c1.8,0.2,3.8,0.3,5.1-0.9c0.4-0.4,0.7-0.8,1.1-1c0.3-0.1,0.7-0.1,1-0.2c1.3-0.2,2.2-1.2,2.7-2.4c0.5-1.2,0.5-2.5,0.5-3.7
	c0-0.8,0-1.6-0.3-2.3c-0.7-1.4-2.5-1.8-3.7-2.8c-1-0.8-1.6-2-2.4-3S355.1,13.7,353.9,13.4z"/>
<path fill="none" stroke="#D6D6D6" stroke-miterlimit="10" d="M338.4-7.3c0.7,1.6,1.5,3.1,2.2,4.7c1.4,2.9,2.7,5.8,4.1,8.8
	c0.1,0.3,0.3,0.5,0.5,0.7c0.4,0.3,0.9,0.4,1.3,0.5s0.9,0.6,0.7,1.1"/>
<path fill="#FFFFFF" stroke="#D6D6D6" stroke-miterlimit="10" d="M269.2,202c-0.4-0.3-0.9-0.4-1.3-0.1c-0.4,0.3-0.6,0.8-0.4,1.3
	c0,0.1,0.1,0.2,0.1,0.2c0.1,0.3,0.3,0.6,0.4,0.9c0.1,0.3,0.3,0.6,0.6,0.5c0.2,0,0.3-0.2,0.4-0.3c0.3-0.4,0.5-0.8,0.6-1.2
	S269.5,202.4,269.2,202z"/>
<path fill="#FFFFFF" stroke="#D6D6D6" stroke-miterlimit="10" d="M307.7,65.3c0.1,0.5,0.9,0.7,1.4,0.5c0.5-0.2,0.7-1,0.3-1.4
	c-0.3-0.3-0.8-0.4-1.2-0.2C307.9,64.5,307.6,64.9,307.7,65.3z"/>
<path fill="#FFFFFF" stroke="#D6D6D6" stroke-miterlimit="10" d="M312.2,71.4c0.1-0.1,0-0.2,0.1-0.3c0.3-0.7,0.9-1.3,1-2.1
	c0-0.2,0.1-0.5-0.1-0.6c-0.1-0.1-0.2-0.1-0.3-0.2c-0.4-0.1-0.8-0.2-1.2-0.3c-0.2,0-0.3,0-0.4,0.1c-0.1,0.1-0.1,0.2-0.1,0.2
	c-0.1,0.6-0.2,1.2-0.1,1.8C311.1,70.7,311.6,71.7,312.2,71.4z"/>
<path fill="#FFFFFF" stroke="#D6D6D6" stroke-miterlimit="10" d="M317,73.2c0.2,0.2,0.4,0.3,0.5,0.5c0.1,0.2,0.6,0,0.7-0.2
	c0.2-0.2,0.2-0.5,0.3-0.8c0.1-0.6-0.4-1.2-0.1-1.8c0.3-0.6,1.2-1,0.8-1.5c-0.5-0.7-1.7-0.2-2.4,0.3c-0.7,0.5-1.7,1.8-1,2.2
	c0.3,0.2,0.6,0.2,0.7,0.4S316.7,73,317,73.2z"/>
<path fill="#FFFFFF" stroke="#D6D6D6" stroke-miterlimit="10" d="M320.9,74.2c0-0.1,0-0.2-0.1-0.2c-0.1-0.1-0.1-0.1-0.2-0.1
	c-0.8-0.1-1.9,0.7-1.5,1.4c0.2,0.4,0.9,0.3,1.3,0.1S320.9,74.7,320.9,74.2z"/>
<path fill="#FFFFFF" stroke="#D6D6D6" stroke-miterlimit="10" d="M321.2,80.8c0,0.1,0,0.2,0.1,0.3c0.1,0.1,0.2,0.1,0.3,0.2
	c0.2,0.1,0.4,0.2,0.6,0.3c0.2,0.1,0.5,0.2,0.7,0c0.1-0.1,0.1-0.2,0.1-0.3c0.1-0.4,0.1-0.8,0.1-1.1c-0.1-0.4-0.4-0.7-0.8-0.8
	c-0.3,0-0.7,0.2-0.9,0.5C321.2,80.1,321.2,80.4,321.2,80.8z"/>
<path fill="#FFFFFF" stroke="#D6D6D6" stroke-miterlimit="10" d="M318.4,85c-0.2-0.2-0.2-0.4-0.2-0.6c0.1-0.7,0.6-1.2,1.3-1.3
	c0.7-0.1,1.4,0.4,1.6,1c0,0.1,0.1,0.2,0,0.2c0,0.2-0.3,0.3-0.4,0.3c-0.4,0.1-0.9,0.3-1.3,0.4C319,85.2,318.6,85.3,318.4,85z"/>
<path fill="#FFFFFF" stroke="#D6D6D6" stroke-miterlimit="10" d="M349.6,13c-0.1-0.2-0.4-0.4-0.6-0.5c-0.2-0.1-0.3-0.2-0.5-0.2
	c-0.3,0-0.6,0.2-0.8,0.5c-0.7,0.8-0.5,1.9-0.3,3c0.2,0.6,0.4,1.6,0.9,1.2c0.5-0.5,0.7-1.2,1-1.9C349.6,14.4,350,13.6,349.6,13z"/>
<text transform="matrix(1 0 0 1 195.6059 164.624)"><tspan x="0" y="0" fill="#7BBCEB" font-family="'Verdana-Italic'" font-size="8">Skelton Lakes</tspan><tspan x="0" y="9.6" fill="#7BBCEB" font-family="'Verdana-Italic'" font-size="8">(upper)</tspan></text>
<text transform="matrix(1 0 0 1 221.6407 192.5593)"><tspan x="0" y="0" fill="#585858" font-family="'Verdana-Italic'" font-size="8">Skelton Lakes</tspan><tspan x="0" y="9.6" fill="#585858" font-family="'Verdana-Italic'" font-size="8">(middle)</tspan></text>
<text transform="matrix(1 0 0 1 214.1498 272.236)"><tspan x="0" y="0" fill="#585858" font-family="'Verdana-Italic'" font-size="8">Skelton Lakes</tspan><tspan x="0" y="9.6" fill="#585858" font-family="'Verdana-Italic'" font-size="8">(lower)</tspan></text>
<text transform="matrix(1 0 0 1 159.4266 99.3203)"><tspan x="0" y="0" fill="#585858" font-family="'Verdana-Italic'" font-size="8">White</tspan><tspan x="0" y="9.6" fill="#585858" font-family="'Verdana-Italic'" font-size="8">Mountain</tspan></text>
<text transform="matrix(1 0 0 1 222.6336 53.1263)"><tspan x="0" y="0" fill="#585858" font-family="'Verdana-Italic'" font-size="8">Big Horn</tspan><tspan x="16.1" y="9.6" fill="#585858" font-family="'Verdana-Italic'" font-size="8">Lake</tspan></text>
<text transform="matrix(1 0 0 1 333.776 80.1265)"><tspan x="0" y="0" fill="#585858" font-family="'Verdana-Italic'" font-size="8">Finger</tspan><tspan x="0" y="9.6" fill="#585858" font-family="'Verdana-Italic'" font-size="8">Lake</tspan></text>
<path fill="none" d="M157.5,261c4.3-1.1,9.8-19.5,14.7-29.3c3.3-6.5,6.6-13.1,11.9-18.1c3.4-3.2,7.4-5.7,11.3-8.3"/>
<text transform="matrix(0.4687 -0.8834 0.8834 0.4687 175.8799 230.0863)"><tspan x="0" y="0" fill="#7D7D7D" font-family="'Verdana-Italic'" font-size="7">1</tspan><tspan x="4.3" y="0" fill="#7D7D7D" font-family="'Verdana-Italic'" font-size="7" rotate="2.8">1</tspan><tspan x="8.6" y="0.2" fill="#7D7D7D" font-family="'Verdana-Italic'" font-size="7" rotate="7.2">2</tspan><tspan x="12.7" y="0.7" fill="#7D7D7D" font-family="'Verdana-Italic'" font-size="7" rotate="13.3">0</tspan><tspan x="16.8" y="1.6" fill="#7D7D7D" font-family="'Verdana-Italic'" font-size="7" rotate="20.7">0</tspan></text>
<path fill="none" d="M114.7,168.7c8.2-0.2,16.3-2.6,24.1-5c3.4-1,6.9-2.1,10.3-3.1c3.9-1.2,7.9-2.4,10.8-5.3"/>
<text transform="matrix(0.9676 -0.2524 0.2524 0.9676 128.3276 169.349)"><tspan x="0" y="0" fill="#7D7D7D" font-family="'Verdana-Italic'" font-size="7">1</tspan><tspan x="4.5" y="0" fill="#7D7D7D" font-family="'Verdana-Italic'" font-size="7" rotate="-1.6">1</tspan><tspan x="9" y="-0.1" fill="#7D7D7D" font-family="'Verdana-Italic'" font-size="7" rotate="-2.2">8</tspan><tspan x="13.4" y="-0.3" fill="#7D7D7D" font-family="'Verdana-Italic'" font-size="7" rotate="-2.2">0</tspan><tspan x="17.9" y="-0.5" fill="#7D7D7D" font-family="'Verdana-Italic'" font-size="7" rotate="-2.2">0</tspan></text>
<path fill="none" d="M301.6,343.1c5.3-1.6,11-1.8,16.5-2c3.6-0.1,7.1-0.2,10.7-0.3c6.8-0.2,14.5-0.8,18.7-6.2"/>
<text transform="matrix(0.9993 -3.813750e-02 3.813750e-02 0.9993 312.77 343.8245)"><tspan x="0" y="0" fill="#7D7D7D" font-family="'Verdana-Italic'" font-size="7">1</tspan><tspan x="4.4" y="0" fill="#7D7D7D" font-family="'Verdana-Italic'" font-size="7" rotate="0.6">1</tspan><tspan x="8.9" y="0.1" fill="#7D7D7D" font-family="'Verdana-Italic'" font-size="7" rotate="0.6">6</tspan><tspan x="13.3" y="0.1" fill="#7D7D7D" font-family="'Verdana-Italic'" font-size="7" rotate="0.6">0</tspan><tspan x="17.9" y="0.2" fill="#7D7D7D" font-family="'Verdana-Italic'" font-size="7" rotate="-1.9">0</tspan></text>
<path fill="none" d="M126.3,275.2c3.5,2,4.9,6.3,7.4,9.6c2.9,3.9,7.5,6.4,12.3,6.7c6.7,0.5,14.3-2.9,19.7,1.1"/>
<text transform="matrix(0.9236 0.3833 -0.3833 0.9236 137.749 291.7308)"><tspan x="0" y="0" fill="#7D7D7D" font-family="'Verdana-Italic'" font-size="7">1</tspan><tspan x="5.2" y="-0.1" fill="#7D7D7D" font-family="'Verdana-Italic'" font-size="7" rotate="-15.3">0</tspan><tspan x="9.9" y="-1.5" fill="#7D7D7D" font-family="'Verdana-Italic'" font-size="7" rotate="-26.9">6</tspan><tspan x="14" y="-3.6" fill="#7D7D7D" font-family="'Verdana-Italic'" font-size="7" rotate="-29.3">0</tspan><tspan x="17.6" y="-5.7" fill="#7D7D7D" font-family="'Verdana-Italic'" font-size="7" rotate="-23.3">0</tspan></text>
<path fill="none" d="M274.9,120.6c5,2,12.8,1.2,16.5,5.5c6.6,7.6,16,13,23,20c2,2,1.9,4,3,6"/>
<text transform="matrix(0.7238 0.69 -0.69 0.7238 291.3383 129.8333)"><tspan x="0" y="0" fill="#7D7D7D" font-family="'Verdana-Italic'" font-size="7">1</tspan><tspan x="4.6" y="0" fill="#7D7D7D" font-family="'Verdana-Italic'" font-size="7" rotate="-3.4">1</tspan><tspan x="9.1" y="-0.3" fill="#7D7D7D" font-family="'Verdana-Italic'" font-size="7" rotate="-5.2">2</tspan><tspan x="13.6" y="-0.7" fill="#7D7D7D" font-family="'Verdana-Italic'" font-size="7" rotate="-5.6">0</tspan><tspan x="17.9" y="-1.1" fill="#7D7D7D" font-family="'Verdana-Italic'" font-size="7" rotate="-4.6">0</tspan></text>
<path fill="none" d="M61.3,138.4c5.8-9.1,14.1-17,16.8-27.4c1.3-5,1.5-10.5,4.2-14.9"/>
<text transform="matrix(0.599 -0.8007 0.8007 0.599 69.3808 131.5623)"><tspan x="0" y="0" fill="#7D7D7D" font-family="'Verdana-Italic'" font-size="7">1</tspan><tspan x="4.5" y="0" fill="#7D7D7D" font-family="'Verdana-Italic'" font-size="7" rotate="-1.8">0</tspan><tspan x="9.1" y="-0.1" fill="#7D7D7D" font-family="'Verdana-Italic'" font-size="7" rotate="-5.4">8</tspan><tspan x="13.8" y="-0.6" fill="#7D7D7D" font-family="'Verdana-Italic'" font-size="7" rotate="-10.9">0</tspan><tspan x="18.5" y="-1.5" fill="#7D7D7D" font-family="'Verdana-Italic'" font-size="7" rotate="-18.3">0</tspan></text>
<path fill="none" d="M37.5,237.8c7.4-6.6,18.9-7.2,24.8-15.2s8.4-18.4,7-28.2"/>
<text transform="matrix(0.9168 -0.3994 0.3994 0.9168 49.4721 233.9105)"><tspan x="0" y="0" fill="#7D7D7D" font-family="'Verdana-Italic'" font-size="7">1</tspan><tspan x="4.6" y="0" fill="#7D7D7D" font-family="'Verdana-Italic'" font-size="7" rotate="-4">1</tspan><tspan x="9.5" y="-0.3" fill="#7D7D7D" font-family="'Verdana-Italic'" font-size="7" rotate="-12.9">0</tspan><tspan x="14.4" y="-1.5" fill="#7D7D7D" font-family="'Verdana-Italic'" font-size="7" rotate="-26.5">0</tspan><tspan x="18.7" y="-3.7" fill="#7D7D7D" font-family="'Verdana-Italic'" font-size="7" rotate="-35.4">0</tspan></text>
<path fill="none" d="M304.8,294.7c2.2-6.7,4.8-13.4,7.7-19.9c2.8-6.3,6-12.6,11.1-17.2"/>
<text transform="matrix(0.3651 -0.931 0.931 0.3651 310.3647 286.5638)"><tspan x="0" y="0" fill="#7D7D7D" font-family="'Verdana-Italic'" font-size="7">1</tspan><tspan x="4.4" y="0" fill="#7D7D7D" font-family="'Verdana-Italic'" font-size="7" rotate="1.2">1</tspan><tspan x="8.8" y="0.1" fill="#7D7D7D" font-family="'Verdana-Italic'" font-size="7" rotate="2.3">8</tspan><tspan x="13.1" y="0.3" fill="#7D7D7D" font-family="'Verdana-Italic'" font-size="7" rotate="4.2">0</tspan><tspan x="17.4" y="0.6" fill="#7D7D7D" font-family="'Verdana-Italic'" font-size="7" rotate="7.7">0</tspan></text>
<path fill="none" stroke="#585858" stroke-miterlimit="10" stroke-dasharray="18,3,1,3" d="M107.5-12c1,1.2,0.9,3.3,2,4.2
	c2.8,2.3,4.7,3.9,6.5,7c7.9,13.5,19,23,28,36c13.1,19,17.7,41.3,13.5,63c-1.2,6.5-0.4,11.5,2.5,14.9c2.5,3,6.1,0.7,10.4,2.5
	c6.6,2.7,7.9,6.6,17.5,11.4c5,2.5,5.1-1.2,6.4-1c5.9,1.2,10.1,3,15.6,0c7.2-4,3.6-6.6,18.6-5.8c3.2,0.2,5.8,4.4,9,6
	c8.5,4.2,18.5-3.6,21.5-7.8c1.6-2.2,1.8,2.1,2.3,4.1c1.5,5.1,3.3,10.7,7.3,14.3c4.4,4,10.1,5.2,14.5,8.5c1.8,1.3,2.8,3.8,4,5.7
	c4.5,7,13.1,8.8,17.9,15.7c1.2,1.7,2.7,4,4.1,5.5c1.4,1.6,3.8,2.7,4.9,4.5c1,1.6,1.1,3,2.3,4.4c1.9,2.5,6.1,1.7,8.6,3.6
	c2.3,1.7,2.6,4.8,2.8,7.6c0.3,4.4,0.5,8.7,0.8,13.1c0.2,2.6,0.3,5.3-0.2,7.9c-0.7,3.8-2.1,7.4-3,11.2c-0.8,3.3-1.3,6.7-1.2,10.1
	c0,1.4,0.2,3.1,1.4,3.8c0.4,0.2,1,0.3,1.4,0.5c1,0.5,1.5,1.5,2,2.5c2.5,4.9,6,10.3,11.4,10.9c2.4,0.3,5-0.5,7.2,0.5
	c1.4,0.6,3.8,0.7,4.8,1.8c2.8,3.4,4.1,8.2,6.5,11.9c1.2,1.9,2.4,3.9,3.6,5.9"/>
<g>
	<g>
		<polyline fill="none" stroke="#7D7D7D" stroke-miterlimit="10" points="85.2,341.6 85.2,348.7 275.4,348.7 275.4,341.7 		"/>
		<line fill="none" stroke="#7D7D7D" stroke-miterlimit="10" x1="180.5" y1="341.4" x2="180.5" y2="348.7"/>
		<line fill="none" stroke="#7D7D7D" stroke-miterlimit="10" x1="161.2" y1="349.2" x2="161.2" y2="343.7"/>
		<line fill="none" stroke="#7D7D7D" stroke-miterlimit="10" x1="142.4" y1="349.2" x2="142.4" y2="343.7"/>
		<line fill="none" stroke="#7D7D7D" stroke-miterlimit="10" x1="123.3" y1="349.2" x2="123.3" y2="343.5"/>
		<line fill="none" stroke="#7D7D7D" stroke-miterlimit="10" x1="104.6" y1="349.2" x2="104.6" y2="343.7"/>
	</g>
	<text transform="matrix(1 0 0 1 83.7834 339.1468)" fill="#7D7D7D" font-family="'Verdana'" font-size="8">0</text>
	<text transform="matrix(1 0 0 1 174.2945 339.1468)" fill="#7D7D7D" font-family="'Verdana'" font-size="8">0.5</text>
	<text transform="matrix(1 0 0 1 258.3413 339.1468)" fill="#7D7D7D" font-family="'Verdana'" font-size="8">1 mi</text>
</g>
</svg>
