<?xml version="1.0" encoding="utf-8"?>
<!-- Generator: Adobe Illustrator 17.1.0, SVG Export Plug-In . SVG Version: 6.00 Build 0)  -->
<!DOCTYPE svg PUBLIC "-//W3C//DTD SVG 1.1//EN" "http://www.w3.org/Graphics/SVG/1.1/DTD/svg11.dtd">
<svg version="1.1" id="Layer_1" xmlns="http://www.w3.org/2000/svg" xmlns:xlink="http://www.w3.org/1999/xlink" x="0px" y="0px"
	 viewBox="0 0 360 360" enable-background="new 0 0 360 360" xml:space="preserve">
<path fill="none" stroke="#E1E1E1" stroke-miterlimit="10" d="M366.2,330c-6.2,2.1-12.2,5-17.7,9c-6.3,4.6-10.7,9.2-16,15
	c-2.9,3.1-9.2,7.2-13,3c-11.5-12.5-17-31.1-36-34c-7-1.1-13,1.2-20-1c-3-0.9-4.1-3.9-7-6c-4.1-2.9-8.6,0-13,1c-1,0.2-4-1-4-2
	c0-2,2-3,1-5c-2-4-4.7-8.6-7-13c-1.5-2.8-0.6-7.8-3.8-9.8c-1.3-0.8-2.8,3.1-4.2,2.2c-4.7-2.8,0.2-10.6-2-15.5c-0.9-2-2.5-3.9-3-7
	c-0.2-1-1.9-2-2-3c-1.5-11.3-3.5-19.5-9-31c-0.4-0.9,0.7-2.3,0-3c-1.4-1.4-2.3,0.3-3.7-1.5c-1-1.3,1.9-6.3,5.7-12.5
	c10.8-17.7,8.6-44.1,22-64c5.3-7.9,7.3-22.6-3.5-29.8c-1.2-0.8-1.7,2.5-5.4,3.1c-4.4,0.8-9.7-7.1-12.1-3.3c-3.2,5.1,2.1,15.2-4,18
	c-11.2,5.2-23-1-33,6c-7,5-14,8.1-19,15c-1.3,1.8-3,4-5,6c-1,1-2.1,1.3-3,1c-4.7-1.6,0.2-11.8-9-11c-9,0.8-17,3.9-25-1
	c-5-3-5.7-11.4-11-16c-3.8-3.3-7.8-3.5-12-5c-8.7-3.1-18.1-4.1-27-3c-4.1,0.5-8,1-12,1c-3,0-7.1,0.8-10,3
	c-7.3,5.6-13,12.4-22.7,12.4c-4.6,0-8.6-4.1-10.5-8.3c-0.3-0.7-0.6-1.4-1-2c-0.5-0.7-1.3-1.1-2-1.6c-1.9-1.2-3.8-2.3-5.9-2.9
	c-1.5-0.4-3.1-0.5-4.6-0.1"/>
<path fill="none" stroke="#E1E1E1" stroke-miterlimit="10" d="M-4.1,175.9c1.8-1.4,3.6-2.8,4.9-4.7c1.2-1.8,1.9-3.9,3.1-5.6
	c1.7-2.3,4.2-3.7,6.7-5c18.1-9.8,36.9-19.8,57.3-21.7c3.4-0.3,6.9-0.4,10,0.8c6.8,2.4,12.8,6.4,18.4,10.9c2.2,1.8,4.4,3,6.8,4.4
	c3.5,2,4.9,6.3,7.4,9.6c2.9,3.9,7.5,6.4,12.3,6.7c6.7,0.5,14.3-2.9,19.7,1.1c1,0.7,1.8,1.7,2.8,2.4c2.8,2,6.6,2.1,9.8,0.8
	c3.2-1.3,5.8-3.7,8-6.3c3.1-3.6,6.8-6.2,10.6-9.1c1.2-0.9,2.4-0.6,3.9-0.1c6.8,2.5,12.8-8.2,19.9-7c4.4,0.7,8.6,2.2,12.7,4.2
	c3.1,1.5,3.4,6.4,2,9.6c-0.6,1.4-1.7,2.7-1.5,4.3c0.1,0.8,0.5,1.6,0.6,2.4c0.1,1.4-0.7,2.6-1.5,3.8c-5,7-9.9,13.9-14.9,20.9
	c-1.6,2.2-3.2,4.5-5.6,5.8c-2.8,1.6-6.4,1.7-8.9,3.7c-1.5,1.2-2.4,2.9-3.8,4.1c-1.4,1.2-3.6,1.9-5.1,0.7c-0.4-0.3-0.8-0.9-1.3-0.9
	c-0.5-0.1-0.9,0.2-1.3,0.5c-4.2,2.8-8.5,5.7-11,10.2c-2.2,4.1-2.6,9.1-5.7,12.6c-2.4,2.7-4.4,5.2-5.6,8.6
	c-3.5,10.1-11.8,17.8-13.1,28.5c-2.2,17.8,0.4,35.8,3,53.5c0.2,1.5,0.5,3.1,1.3,4.5c0.7,1,1.6,1.8,2.3,2.9c1.4,2.1,1.4,4.9,2,7.4
	c0.5,2.5,2.5,6.8,4.7,5.4c8.2-5.3,7-18.2,10.5-27.3c2.4-6.2-0.3-15.3,5.1-19.2c0.9-0.7,2.3,1.4,3.3,0.9c3.9-1.8,5.4-5.5,9.2-7.5
	c3-1.6,5-1.3,8.4-1.4c4.3-0.1,8.3-8.2,11.4-5.1c1,0.9-0.8,3.2,0.3,4c4.6,3.3,11.7,0.4,15.5,4.7c0.7,0.8,1.4,1.8,1.6,2.9
	c0.2,0.9,0.1,1.8-0.1,2.7c-0.5,3.7-0.1,7.8-1.6,11.2c-0.5,1.2-0.4,2.8,0.4,3.9c0.7,1.1,1.9,1.7,3,2.4c1,0.6,2,1.1,3.1,1.2
	s2.4-0.4,2.8-1.4c0.2-0.5,0.2-1,0.6-1.3c0.3-0.3,0.8-0.2,1.2-0.2c1.9,0.3,2.7,2.5,4.3,3.6c1.3,0.9,2.8-1.3,4-2.2
	c1.2-0.9,3.1-1.6,4.2-0.6c0.5,0.4,0.7,1,1.1,1.5c1,1.4,2.8,1.9,4.5,2s3.3-0.4,5-0.6c0.9-0.1,2-0.1,2.7,0.4c0.6,0.4,0.9,1.1,1.2,1.7
	c1,2.1,1.8,4.2,2.4,6.4c0.1,0.5,0.3,1,0.7,1.4c0.5,0.4,1.2,0.4,1.8,0.5c2.6,0.6,3.6,3.9,5.9,5.4c0.9,0.6,1.9,0.8,2.9,1.2
	c2.9,1.1,5.2,3.5,6.3,6.4c0.3,0.7,0.5,1.5,1,2.1c0.9,1,2.3,1.2,3.6,1.4c6.1,1.3,10.7,6.2,14.9,10.8c2.4,2.7,4.9,5.5,6.8,8.6"/>
<path fill="none" stroke="#E1E1E1" stroke-miterlimit="10" d="M155.2,365c1.4-2.4,2.7-4.1,4.5-2.5c0.9,0.8,1.3,1.2,2.5,0.9
	c7.3-2.2,14.7-4.4,22-6.6c0.9-0.3,1.8-0.5,2.6-1c1.1-0.6,1.9-1.4,2.8-2.3c3.3-3.2,6.6-6.5,8.8-10.6c1.4-2.7,2.3-5.7,3.9-8.3
	c1.5-2.7,3.9-5.1,6.9-5.6c3.8-0.6,7.8,1.9,11.3,0.5c1.7-0.7,3-2.1,4.7-2.5s1.9,1.5,3.2,2.8c2.1,2,5.6-3,8-1.4
	c1.8,1.2,2.2,3.6,3.2,5.5c1.7,3.4,6.9,3.4,8.7,6.6c1.3,2.3-0.6,5.2-0.1,7.8c0.2,0.9,0.6,1.8,1.4,2.1c0.4,0.1,0.8,0,1.2,0.1
	c2.2,0.3,2.2,3.9,4.1,5.1c0.7,0.4,1.6,0.5,2.4,0.5c6.5,0.4,13.4,2.2,17.3,7.4c0.4,0.5,0.7,1,1,1.6"/>
<path fill="none" stroke="#E1E1E1" stroke-miterlimit="10" d="M-3.7,182.5c19.7-21.4,43.6-36.9,75.2-30.5c5,1,9.5,1,14,4
	c1.2,0.8,3,2,3,4c0,1-0.2,1.5,0,2c1.1,2.6,5.2,1.6,8,3c6.5,3.2,0.5,10.9,0,17c-0.1,1-0.4,3.1,0,4c2.8,5.8,13.1,3.8,19,6
	c7.1,2.7,16.2,6,17,14c1.2,12,1.3,24.1-3,36c-9.4,26.2-25.3,54.8-14,83c0.8,2.1,2.1,3.9,4,6c4.3,4.8,8.7,8.2,13,13
	c1.9,2.1,4.1,2.9,6,5c3.7,4.2,4.8,9.5,5,14.7"/>
<path fill="none" stroke="#E1E1E1" stroke-miterlimit="10" d="M-5.6,206.1c3.7-5,7.3-10.2,11.7-14.6c4.1-4.1,9-7.5,13.7-10.9
	c3.1-2.2,6.2-4.3,9.5-6c10.3-5.1,27.5-9,33.2,1c1.4,2.5,1.7,5.7,1.3,8.6c-0.7,5-5.7,8.4-8.6,12.5c-1.2,1.8-2.5,4-1.6,5.9
	c1,2.4,4.3,2.8,5.9,4.8c2.4,3.2-0.7,8.4,1.5,11.7c1.5,2.3,4.7,2.6,7.5,2.7c3.2,0.1,6.4,0.1,9.6,0.2c3.4,0.1,7.4-4.2,9.9-1.9
	c1.9,1.7,3,2.7,4.4,4.9c2,3.2,1.2,7.3,2.5,10.8c4.8,13.4-2.1,27.8-6.5,41.3c-7.9,24.5-7.3,51.6,1.8,75.6c0.5,1.4,1.1,2.8,2.3,3.7
	c0.9,0.6,2,0.8,2.9,1.4c2.4,1.4,0.8,5.9,3.2,7.3"/>
<path fill="none" stroke="#E1E1E1" stroke-miterlimit="10" d="M-4.5,245.8c4.5-3.4,11.1-8.7,14.4-4.6c1,1.2-0.4,3.6,0.9,4.5
	c1.2,0.8,2.4-1.4,3.6-2.2c2.1-1.4,4.8-0.5,7.2,0.4c3.1,1.2,6.2,2.3,9.4,3.5c0.6,0.2,1.3,0.5,1.8,0.8c1.5,1,0.7,3.2,1.4,4.9
	c1.3,3.1,3.1,5.7,5.9,7.5c4.4,2.8,11.6-5.6,15.5-2.1c3.1,2.8,2.1,8,2.8,12.2c0.7,4.4,1,8.9,1.3,13.4c1.1,16.3,2.2,32.5,2.8,48.8
	c0.4,10.9,0.5,21.9-1,32.7"/>
<path fill="none" stroke="#E1E1E1" stroke-miterlimit="10" d="M-2.8,313.5c1,0,2.1,0.6,2.5,1.5c0.7,1.7-1.8,3.8-0.8,5.4
	c2.3,3.4,8.6-0.1,11.6,2.7c0.5,0.5,0.9,1,1.6,1.2c0.6,0.2,1.2,0,1.8-0.1c2.9-0.8,5.9-1.2,9-1.4c0.4,0,0.9,0,1.2,0.2
	c0.8,0.5,0.5,1.8-0.1,2.7c-0.5,0.8-1.6,2.4-0.7,2.7c1.7,0.5,3.5,0.9,3.7,2.6c0.3,1.7-0.5,3.5-1,5.2c-0.5,1.7-0.7,3.7,0.5,5.1
	c0.3,0.3,0.7,0.6,0.9,1c0.6,0.9,0.4,2.1,0.2,3.2c-0.3,2-0.4,4-0.2,6c0.2,1.7,0.5,3.5,0.1,5.1c-0.5,2.1-1.9,3.8-2.6,5.8
	c-0.2,0.6-0.3,1.2-0.3,1.8"/>
<path fill="none" stroke="#E1E1E1" stroke-miterlimit="10" d="M141.1,290.5c0.2,1.2,0.9,2.7,2.2,2.6c0.5,0,1-0.3,1.3-0.7
	c2.9-2.7,2.7-7.3,4.4-10.9c0.8-1.8,2.1-3.3,3.2-4.9c2.1-3,3.7-6.3,5-9.7c1.6-4.1,2.7-8.4,3.3-12.7c0.5-3.3,0.7-6.8,2.4-9.7
	c0.9-1.4,2.1-2.8,2.4-4.4c0.3-1.7-1.2-3.7-2.8-3.1c-0.6,0.2-1,0.8-1.4,1.4c-1.1,1.6-2.3,3.1-3.5,4.5c-1.3,1.6-2.7,3-4,4.5
	c-1.1,1.2-2.1,2.3-3.2,3.5c-2.2,2.5-4.4,5-5.9,7.9c-3.8,7-3.9,15.3-3.9,23.3C140.6,284.9,140.6,287.7,141.1,290.5z"/>
<path fill="none" stroke="#E1E1E1" stroke-miterlimit="10" d="M163.1,70.8c2.7-2.9,4-6.9,5.1-10.8c1.1-3.6,2.1-7.5,1.1-11.1
	c-1.3-4.6-5.8-8.6-10.6-8.1c-3.9,0.4-7.7,3.8-9.8,7.1c-2.1,3.3-2.4,7.4-3.6,11.1c-1.3,4.1-2.3,8-0.7,12.1c0.9,2.2,2.6,5.4,4.8,6.2
	c2.5,1,5.2-0.7,7.5-2C159.1,74,161.4,72.6,163.1,70.8z"/>
<path fill="none" stroke="#E1E1E1" stroke-miterlimit="10" d="M-5.8,116.9c6.8-1.9,14-2.6,19.8-6.6c5.4-3.7,8.7-9.7,13.9-13.7
	c1.6-1.2,3.5-2.3,4.6-4.1c1.3-2.2,1.2-4.9,1-7.4c-0.7-7.9-1.9-15.9-0.6-23.8c0.8-5,2.6-9.8,3.8-14.7c1.9-7.9,2.3-16.1,1.1-24.1
	c-0.1-0.9-0.3-1.9-0.1-2.8c0.2-0.7,0.6-1.4,1-2C43.8,9.7,51,2.5,54.4-6.3"/>
<path fill="none" stroke="#E1E1E1" stroke-miterlimit="10" d="M26.2-6.5c-0.2,4.1,0.4,8.3-1.7,11.7c-0.7,1.1-1.7,2.2-1.6,3.5
	c0.1,0.7,0.5,1.3,0.9,2c3.9,6.8-1.1,15.4-0.1,23.2c0.5,3.6,2.2,7,2.2,10.6c0,1.8-0.5,3.6-0.9,5.4c-2.5,9.9-5.1,19.8-7.6,29.6
	c-1.5,5.9-3.1,12-7.1,16.7c-3.5,4.1-8.6,6.6-13.5,9c-1,0.5-2,1-3,1.4"/>
<path fill="none" stroke="#E1E1E1" stroke-miterlimit="10" d="M-5.7-3c1.1,1.2,2.3,2.3,3.8,2.8c2.7,0.9,7.3-1.6,8.3,1
	C7.1,2.6,5.9,4.7,7,6.2c0.4,0.5,0.9,0.9,1.2,1.5c0.3,0.6,0.4,1.2,0.5,1.9c0.9,7.4-0.7,15.2,1.7,22.4c1.2,3.7,3.5,7.1,4.2,11
	c1,5.3-1.4,11.1-5.9,14.2c-1.8,1.3-4,2.1-6,2.9c-1.4,0.5-3,1.1-4.5,0.6c-0.6-0.2-1.2-0.7-1.8-0.8c-0.7-0.1-1.3,0-2,0.2"/>
<path fill="none" stroke="#E1E1E1" stroke-miterlimit="10" d="M67.1-6c-1.7,3-3.5,6-5.3,8.9c-3,4.9-6.3,9.6-10.3,13.7
	c-1.2,1.2-2.5,2.4-3,4.1c-0.5,1.6,1.5,2.4,2,4.1c1.5,5.7-8.4,25.8-6.3,39c0.6,3.5,1.6,7,2.1,10.5c1.4,9.8-1.1,20.2-7,28.2
	s-17.3,8.6-24.8,15.2c-1.6,1.4,2,3.5,4.1,4c7.7,2,16.2,3.9,23.3,0.4c6.5-3.2,9.2-14.1,16.5-14.1c2.2,0,1.3,4.3,2.8,5.9
	c1.2,1.3,3.3,1,5,0.5c1.7-0.6,3.4-1.4,5.2-1s1.1,2.3,1.7,4c1.2,3.5,7.4,0.4,11,0.6c7.7,0.4,17.2,2.1,19.6,9.5
	c1.4,4.2,8.7,1.2,12.3,3.8c4.4,3.2,2.7,10.5,4.1,15.8c0.2,0.9,0.6,1.9,1.4,2.2c0.5,0.2,1,0.1,1.5,0c4.3-0.9,8.6-1.9,12.8-2.8
	c4-0.9,8.2-1.8,11.4-4.3c6.4-4.8,7.9-14.3,14.5-18.8c0.8-0.6,1.8-1.1,2.8-1c0.8,0,1.5,0.4,2.3,0.2c1.2-0.2,1.8-1.5,2.5-2.4
	c1.4-1.7,3.5-2.5,5.5-3.4c6.1-2.7,11.7-6.6,16.3-11.5c5.8-6.2,14.9-19.2,18-17.5c3,1.6-3.7,5.5-6.2,7.8c-2.5,2.3-6.4,8.3-3,8.9
	c2.3,0.3,2.4-3.9,3.9-5.6c1.5-1.7,3.7-0.5,6-0.9c0.8-0.1,0.1-1.9,0.8-2.3c0.8-0.5,2.8,1.2,2.9,0.3c1-7.5,6.7-13.7,13.8-12.7
	c1.2,0.2,2.6,0.5,3.7-0.1c0.6-0.3,1.1-1,1.5-1.6c1.2-2.2,1.7-4.7,2.9-6.9c1.2-2.2,3.8-4,6.1-3.2c0.7,0.2,1.3,0.7,2.1,0.8
	c1.3,0.1,2.2-1,3.3-1.7c2.8-1.8,6.6-0.9,9.1,1.2c2.5,2.1,4,5.2,5.4,8.2c3.3,7,6.7,14.8,4.3,22.1c-1.5,4.4-4.9,7.9-8.2,11.2
	c-2.4,2.4-4.8,4.8-7.2,7.2c-1.1,1.1-2.3,2.3-2.9,3.7c-0.5,1.2-0.6,2.5-0.7,3.8c-0.5,8-1,16-1.5,23.9c-0.2,3.4-0.6,7.2-3.2,9.5
	c-0.8,0.7-1.7,1.2-2.4,1.8c-1.2,1.1-2,2.7-2.7,4.2c-5.6,12.2-9.8,25.1-12.3,38.3c-1.2,6,6,9.8,10.1,14.4c6.6,7.4,6.5,18.4,6.8,28.3
	c0.4,17.1,2.7,34.2,7,50.8c0.2,0.9,0.5,1.9,1.3,2.5c0.7,0.5,1.5,0.6,2.3,0.6c6,0,11.5-3.1,16.9-5.7c9.1-4.5,18.9-7.9,29.1-8.4
	c4.9-0.2,9.8,0.2,14.6,1.3c2.1,0.5,4.1,1.1,6,2.2c2.2,1.2,4,2.9,5.8,4.7c8.1,7.7,13.6,19.9,24.3,23.2c5.8,1.8,11.7,0,17.2-3.3"/>
<path fill="none" stroke="#E1E1E1" stroke-miterlimit="10" d="M230,100c0.8-1.2,1.6-2.4,1.8-3.8c0.2-0.9,0.1-1.8,0.2-2.8
	c0.1-1.1,0.3-2.2,0.3-3.3c0-1.1-0.1-2.3-0.8-3.2s-1.9-1.4-2.9-1.1s-1.6,1.8-0.9,2.7c0.3,0.4,0.8,0.6,1.3,0.9
	c0.9,0.8,1.2,2.3,0.5,3.3c-0.2,0.4-0.6,0.6-0.9,1c-1.2,1.2-1.9,2.9-1.9,4.6c0,0.7,0.1,1.5,0.5,2c0.4,0.6,1.2,0.9,1.9,0.6
	C229.5,100.7,229.8,100.3,230,100z"/>
<path fill="none" stroke="#E1E1E1" stroke-miterlimit="10" d="M366.9,245.1c-0.9,0.7-1.8,1.2-2.9,1.6c-2,0.7-4.1,0.7-6.1,1.3
	c-1.6,0.5-3,1.5-4.5,2.2c-3.2,1.6-6.8,2.4-10.3,3.2c-6.1,1.3-12.3,2.7-18.4,1.4c-1.6-0.3-3.1-0.8-4.7-0.5c-1.4,0.2-2.6,1-4,1.2
	c-3.1,0.4-5.8-2.3-8.9-2.8c-6.1-1.1-11.3,6.1-17.4,5.2c-6.5-1-12.9,3.4-17.2,8.3c-3.8,4.3-5.8,10-8.8,15c-2.5,4.1-5.6,13.7-9.5,10.9
	c-3.4-2.5,1.6-30.2,4.4-45.2c0.4-2.4,0.8-4.9,0.5-7.3c-0.5-3.4-2.4-6.4-4.2-9.4c-8.1-13.8-12.7-29.7-13.4-45.7
	c-0.2-5.2,1.6-10,5.4-13.6c7.8-7.4,6.8-20.4,8.5-31.1c0.9-5.7,1.9-11.8,5.5-16.3c2.4-3,5.8-5.1,8.6-7.7c2.6-2.5,4.7-5.5,6.1-8.8
	c2.1-4.9,2.7-10.3,2.4-15.6c-0.4-6.7-2.3-13.3-5.5-19.2c-2.1-3.9-4.8-7.7-5.3-12.1c-0.6-5.5-5.6-10.2-10.9-11.7
	c-3.3-1-6.9-0.2-10.3,0.6c-15.5,3.8-32.4,4.9-45.9,13.4c-10.3,6.4-17.9,16.4-28,23.1c-3.9,2.6-7.9,5-11.3,8.3
	c-5.2,5-8.6,11.7-11.9,18.1c-4.9,9.8-10.4,28.2-14.7,29.3c-4.8,1.2-1.1-10.9-5-13.9c-5-3.9-13.1-1.6-17.4-6.2
	c-3.6-3.9-4.9-9.8-9.4-12.7c-1.9-1.2-4.1-1.7-6.2-2.4c-8.3-2.5-15.9-7.4-21.6-13.9c-0.9-1-1.8-2.1-3.1-2.5c-1.7-0.6-3.6,0.2-5.4,0.2
	c-5.3,0-8-6.2-9.4-11.3c-1.4-5-2.7-10-3.5-15.2c-2.4-17.6,3.4-36.2,15.4-49.3C73.1,9.5,78.3,5.1,80-1c0.4-1.3,0.5-2.6,1.1-3.9
	c0.2-0.4,0.4-0.8,0.7-1.2"/>
<path fill="none" stroke="#E1E1E1" stroke-miterlimit="10" d="M364.8,125.1c-1.1-0.6-2.2-1.4-3.2-2.1c-4.1-2.8-8.5-5.2-13-7.2
	c-4.3-1.8-9.1-3.5-11.3-7.6c-0.7-1.3-1.1-2.8-1.4-4.3c-0.6-2.6-0.8-5.3-1-8c-0.2-4.1-0.2-8.2-0.2-12.3c0-5.9-1.7-12.1,0.1-17.8
	c1.4-4.6,0.1-9.6-3.8-12.4c-4-2.8-9-3.3-13.8-3.7c-6.9-0.6-13.8-1.2-20.7-1.8c-2.9-0.2-5.9-0.5-8.3-2.1c-2.8-1.9-4.3-5.2-6.7-7.6
	c-3.1-3.2-7.6-4.9-10.9-8c-2.5-2.4-4.1-5.5-6.6-7.9c-5.5-5.3-14.6-6.4-18.7-12.9c-2.7-4.2-2.4-9.7-3.5-14.6"/>
<path fill="none" stroke="#E1E1E1" stroke-miterlimit="10" d="M99.4-6.1c-0.6,1.4-1.2,2.7-1.9,4.1c-6.8,13.1-19,20-28,31
	s-15,27-5,39c15,18,39.1,18.8,60,29c4,2,4.7,7.2,7,10c3.6,4.4,9.6-1,10-5c1-9.2,8.2-16.4,17-20c2.1-0.9,4.2-5.6,8.5-7.8
	c13.8-7,14.8-9.8,12.5-22.8c-2-11.8,19.9-13.6,30-18.5c14.9-7.2,29.9,2,45,3c3,0.2,7.1-1.1,10,1c10.3,7.6,11.9,20.1,20,30
	c10.8,13.2,11.6,33.6,0,45c-7.6,7.4-20.3,13.4-22,24c-2.2,13.9-4.4,26.8-10,39c-3.2,6.9-5.5,14.3-1,21
	c24.2,35.5,10.3,54.9,11.9,55.9c2.4,1.6,4-4.2,6.1-4.9c3.9-1.4,6.2-4.8,10-8c1.7-1.4,4-2,6-2c20,0.5,40.4-0.5,58-15
	c1.7-1.4,2.7-3.3,5-5c1.8-1.3,3.8-2.5,6-3c4-0.9,8.2-0.9,11.7-2"/>
<path fill="none" stroke="#E1E1E1" stroke-miterlimit="10" d="M130.9-5c-0.4,1.4-0.8,2.7-1.2,4.1c-0.5,1.8-2.1,4.1-0.8,5.4
	c1.2,1.2,3.3,0.4,5,0.5c0.6,0.1,1.1,0.1,1.6-0.1c0.5-0.2,0.9-0.7,1.3-1.1c2.7-2.9,6.5-4.8,10.5-5.2c0.8-0.1,1.6-0.1,2.3-0.5
	c0.7-0.4,1.1-1.4,0.6-2c-0.8-0.9-1.7-1.7-2.6-2.6"/>
<path fill="none" stroke="#E1E1E1" stroke-miterlimit="10" d="M116.4,20.3c-1.3,0.2-3,2-2.1,2.9c0.8,0.8,2.2-0.2,2.9-1
	c0.4-0.5,0.7-1.3,0.2-1.7C117.2,20.2,116.7,20.2,116.4,20.3z"/>
<path fill="none" stroke="#E1E1E1" stroke-miterlimit="10" d="M128,12.6c0.6-0.4,0.2-1.5-0.4-1.9s-1.6-0.9-2.1-0.4
	c-0.3,0.3-0.4,0.9-0.2,1.4C125.6,12.6,127.2,13.1,128,12.6z"/>
<path fill="none" stroke="#E1E1E1" stroke-miterlimit="10" d="M120,73.9c-0.1-0.1-0.2-0.2-0.4-0.3c-0.3-0.1-0.6,0.3-0.8,0.6
	c-0.5,1.3,0,3.7,1.4,3.5c0.7-0.1,0.9-1,0.9-1.7C121.2,75.2,120.6,74.5,120,73.9z"/>
<path fill="none" stroke="#E1E1E1" stroke-miterlimit="10" d="M109.8-5.6C107.9-0.3,105,4.7,102,9.5c-3.4,5.3-9.6,6.6-14.3,10.8
	c-2.8,2.5-0.8,7.8-3.6,10.2c-2.4,2.1-6,2.4-8.4,4.5c-2,1.7-2.8,4.3-3.6,6.8c-1.7,5.2-3,11.7,1.1,15.3c3.2,2.8,8,2.2,12.1,3
	c2.8,0.6,5.4,1.9,8.1,3c4.3,1.8,8.9,3.3,13.5,4.3c3.6,0.8,7.3,1.3,11,0.8c5.1-0.7,9.8-3.2,14.4-5.7c2.6-1.4,5.4-3,6.8-5.7
	c1-1.9,1.1-4,1.3-6.1c0.7-6.1,3.1-12.9,8.8-15.1c3.1-1.2,6.6-0.7,10-0.6c3.7,0.1,7.4-0.3,11-1.1c13.8-3.3,24.9-13.1,35.5-22.6
	c2.1-1.9,4.3-3.9,5.3-6.6c0.9-2.7,0.1-6.2-2.5-7.4c-0.8-0.3-1.6-0.4-2.5-0.5c-3.8-0.4-7.6-0.8-11.3-1.2c-2.4-0.3-5.2-0.4-7.1,1.2
	c-0.6,0.5-1,1.1-1.6,1.5c-1.1,0.7-2.4,0.5-3.7,0.4c-2.4-0.3-4.9-0.6-7.3-0.9c-2.8-0.3-5.7-0.7-8.1-2.1c-0.9-0.5-1.8-1.2-2.6-1.9"/>
<path fill="none" stroke="#E1E1E1" stroke-miterlimit="10" d="M119.1-5.4c-0.4,1.9-1.1,3.7-1.9,5.4c-2.5,5.6-5.6,10.9-8.8,16.2
	c-0.6,1-1.3,2-2.4,2.3c-0.5,0.1-1.1,0.1-1.5,0.4c-0.5,0.3-0.6,1-0.8,1.5c-0.5,2.1-1.6,4.5-3.7,5c-1.9,0.5-4.4-0.4-5.4,1.3
	c-0.8,1.4,0.4,3.1-0.1,4.6c-0.3,0.9-1.2,1.6-2,2.1c-2.2,1.5-4.5,3-6.7,4.5c-1.4,1-2.9,2-3.4,3.6c-0.7,2.1,0.7,4.5,2.6,5.7
	c2,1.1,4.3,1.3,6.6,1.2c8.2-0.2,16.3-2.6,24.1-5c3.4-1,6.9-2.1,10.3-3.1c3.9-1.2,7.9-2.4,10.8-5.3c2-2,3.2-4.8,5.6-6.4
	c4-2.9,9.8,2,14.1-0.2c0.9-0.5,0.1-2.5,1-2.9c4.3-1.5,9.1,1.3,12.8-1.3s6.2-6.6,8.5-10.5c0.7-1.1,1.3-2.5,0.9-3.7
	c-0.3-0.7-0.9-1.3-1.4-1.8c-1.6-1.4-3.2-2.8-4.7-4.2c-1.3-1.2-3-2.5-4.7-2.1c-1.5,0.3-2.7,1.9-4.2,1.5c-0.8-0.2-1.3-0.8-1.9-1.4
	c-1.9-2.1-3.7-4.2-5.6-6.4c-0.5-0.6-1.1-1.2-1.6-1.8"/>
<path fill="none" stroke="#E1E1E1" stroke-miterlimit="10" d="M238-4.9c-1.4-0.3-2.2,1.4-3.3,2.2c-0.9,0.6-2.1,0.9-2.4,1.9
	c-0.3,0.8,0.3,1.7,1,2.2s1.8,0.4,2.3,1.1c0.2,0.3-0.1,0.7,0,1c0.3,0.8,1.6,0.6,2.3,0s0.9-1.4,1.2-2.2c0.6-1.8,1.2-4,0-5.5
	C238.8-4.5,238.4-4.8,238-4.9z"/>
<path fill="none" stroke="#E1E1E1" stroke-miterlimit="10" d="M260.4,23.2c-1.7-1.2-3.4-2.4-5.4-3c-0.5-0.1-1-0.2-1.4,0
	c-0.2,0.2-0.4,0.4-0.5,0.7c-0.6,1.6,0.1,3.5,1.3,4.7c1.3,1.2,3,1.7,4.7,1.9c1.1,0.1,2.4,0,2.9-0.9C262.6,25.4,261.5,24,260.4,23.2z"
	/>
<path fill="none" stroke="#E1E1E1" stroke-miterlimit="10" d="M365.1,144.4c-2.4-1.6-4.1-4.1-6.1-6.3c-5.5-6.2-13-10.7-21.1-12.6
	c-1.4-0.3-3-0.6-4-1.6c-1.2-1.2-1.6-3-2.4-4.4c-2.2-3.6-7.2-4.5-9.7-8c-1.3-1.9-1.7-4.3-2-6.6c-2.2-16.2,7.1-34.2-0.3-48.8
	c-2.2-4.3-9.2-2.8-14-2.9c-0.7,0-1.5,0.1-1.9,0.6c-0.4,0.6-0.2,1.5-0.5,2.1c-0.5,0.9-1.7,0.8-2.7,0.7c-4.5-0.6-10.8-5.6-13.4-1.9
	c-3.2,4.4,4.8,9.9,6.9,14.9c2.5,5.8,4.7,11.9,4.4,18.2c-0.1,1.5-0.3,3.1,0.2,4.6c0.5,1.5,1.6,2.7,1.6,4.3c-0.1,1.6-1.5,2.8-2.8,3.9
	c-3.8,3.3-6.7,7.7-8.3,12.6c-0.4,1.2-0.8,2.6-1.8,3.3c-1,0.8-1.7-1-3-1c-2-0.1-2.4,3.1-4.2,4.1s-1.9,2.8-2.3,4.9
	c-0.3,1.4-3.1,0.7-3.8,2c-0.6,1.2,0.8,2.8,0.3,4c-2.3,5.9-0.3,12.6-4.3,17.5c-1.4,1.6-2.2,2.3-3.3,4.1c-0.4,0.7-2.6-0.5-2.5,0.3
	c2.1,11.8-3.7,19-3.6,28.7c0.1,4.6,0.8,9.3,3.1,13.3c7.5,13,6.2,27.3,9.5,30.6c1.4,1.4,3.7-1.5,5.6-2.1c5.3-1.6,11-1.8,16.5-2
	c3.6-0.1,7.1-0.2,10.7-0.3c6.8-0.2,14.5-0.8,18.7-6.2c1.7-2.2,2.5-4.8,3.9-7.2c3.9-6.7,11.7-10.1,18.8-13.3c6.4-3,12.1-8.3,17.9-13"
	/>
<path fill="none" stroke="#E1E1E1" stroke-miterlimit="10" d="M351.5,165.2c0.1-5.3-0.5-10.7-2.9-15.4c-0.7-1.4-1.5-2.8-2.7-3.9
	c-2.9-2.8-7.2-3.6-11.3-4.2c-0.7-0.1-1.6-0.2-2.1,0.4c-0.3,0.4-0.3,0.8-0.3,1.3c0.1,9.3,2.6,18.6,7.3,26.6c1.5,2.6,3.4,5.2,6.1,6.6
	c1,0.5,2.3,0.9,3.2,0.3c0.9-0.5,1.2-1.6,1.4-2.5C351.1,171.3,351.4,168.3,351.5,165.2z"/>
<path fill="none" stroke="#E1E1E1" stroke-miterlimit="10" d="M272.3,160.1c-0.9,3.5-0.9,7.3,0.1,10.9c0.5,1.9,1.4,3.8,1.6,5.8
	c0.4,3.8-1.5,7.5-1.5,11.3c0,4.1,2.2,7.8,2.4,11.9c0.1,1.5-0.2,3,0.3,4.4c0.4,1.4,2.9,3.7,3.3,2.3c1.1-3.9,0-13.4,0.6-20.1
	c0.4-4.1,1.5-8.1,2.8-12c2.2-6.7,4.8-13.4,7.7-19.9c2.8-6.3,6-12.6,11.1-17.2c2.2-2,4.7-3.6,6.8-5.6c2.1-2,4-4.6,4.2-7.6
	c0.4-4.9-3.4-9-4.6-13.7c-1.3-5,0.3-10.2-0.2-15.3c-0.1-1-0.5-2.2-1.5-2.3c-1-0.1-1.6,1-2,1.9c-1.5,3.8-3,7.6-3.8,11.6
	c-0.3,1.4-0.5,2.7-1,4c-0.8,1.8-2.3,3.2-3.6,4.7c-1.3,1.5-2.4,3.2-3.3,4.9c-0.5,1-1,2.1-1.8,3c-0.6,0.6-1.3,1-1.9,1.5
	c-2.1,1.5-4.1,3.3-4.7,5.8c-0.2,0.8-0.3,1.8-0.7,2.5c-0.4,0.7-1.1,1.1-1.6,1.7c-0.9,1.1-1.2,2.5-1.7,3.8c-0.5,1.3-2.4,1.4-2.9,2.7
	c-1.5,4,4,9.4,0.7,12c-1.4,1.1-1.2,2.5-2.1,4C274.1,158.4,272.6,158.7,272.3,160.1z"/>
<path fill="none" stroke="#E1E1E1" stroke-miterlimit="10" d="M247-5.6c0.8,2.7,2.3,4.9,5,6.1c5,2,12.8,1.2,16.5,5.5
	c6.6,7.6,16,13,23,20c2,2,1.9,4,3,6c3.8,7.1,13.2,7.3,19,2c2.1-1.9,3-6.9,6-6c6.1,1.8,7.9,0.9,12-2c2.9-2.1,4.1,3,4,5
	c-0.5,10-1.8,20.8,6,29c7.2,7.6,16.2,18.3,21.2,25.1"/>
<path fill="none" stroke="#E1E1E1" stroke-miterlimit="10" d="M271.7-4c5.4,4.8,11,9.3,16.9,13.5c4.9,3.5,11.3,6.8,16.7,4.1
	c2.6-1.3,4.4-3.9,6.9-5.6c2.2-1.5,4.9-2.3,7.4-3.2c7.5-2.8,11.2-13.5,19.2-13.8c9.3-0.4,10.1,16,9.9,25.2c-0.1,6.7-4.8,14-1.6,19.9
	c4.9,9,11.1,16.9,17.4,24.6"/>
<path fill="none" stroke="#E1E1E1" stroke-miterlimit="10" d="M355.6-6.4c3.4,11.8,3.1,26.4,9,36.2"/>
<path fill="#EAEAEA" stroke="#D6D6D6" stroke-miterlimit="10" d="M146.1,68c0.2,0.7,0.5,1.3,0.8,1.9c0.8,1.6,1.6,3.2,2.3,4.7
	c0.2,0.4,0.4,0.8,0.9,0.9c0.3,0,0.6-0.1,0.8-0.3c4.2-2.7,8.2-5.8,11.6-9.5c1.1-1.3,2.2-2.6,2.9-4.1c0.6-1.2,0.9-2.5,1.2-3.8
	c0.3-1.3,0.5-2.6,0.6-3.9c0.2-2,0.2-4.1-0.7-5.9c-0.8-1.5-2.1-2.7-3.4-3.8c-0.6-0.5-1.2-1-1.7-1.5c-0.2-0.2-0.4-0.3-0.6-0.4
	c-0.4-0.1-0.7,0.1-1,0.3c-2.8,1.7-4.6,5-7.8,5.8c-0.3,0.1-0.7,0.1-0.9,0.4c-0.2,0.2-0.2,0.4-0.3,0.7c-0.5,1.8-1.3,3.4-2.2,5
	c-0.4,0.7-0.4,1.6-0.6,2.4c-0.2,0.6-0.2,1.4-0.3,2c-0.3,2-1.1,3.5-1.4,5.4C145.9,65.5,145.8,66.8,146.1,68z"/>
<path fill="#EAEAEA" stroke="#D6D6D6" stroke-miterlimit="10" d="M251.5,78.5c0.3,0.2,0.5,0.6,0.7,0.8c0.7,1,1.9,1.7,2.4,2.8
	c0.3,0.5,0.4,1.1,0.5,1.6c0.5,1.6,1.7,2.9,2.5,4.4c1.3,2.4,1.5,5.2,1.8,7.9c0.1,0.7,0.1,1.4-0.1,2.1c-0.3,1-1.3,1.7-2,2.5
	c-0.9,1-1.6,2.2-2.6,3.2c-0.9,1-2.2,1.8-3.6,1.7c-1.5-0.2-2.6-1.5-3.3-2.8c-0.7-1.2-1.1-2.6-1.4-4c-0.4-2.1-0.3-4.7-2.1-6
	c-0.2-0.1-0.4-0.3-0.4-0.5c0-0.2,0.1-0.3,0.1-0.5c0.4-0.6,0.7-1.3,1.1-1.9c0.6-1,1.1-2.4,0.2-3.1c-0.7-0.6-1.7-0.2-2.5,0.2
	c-0.8,0.4-1.9,1.3-2.5,0.7c-0.4-0.5,0.4-1.3,1-1.7c0.6-0.4,1.4-0.6,1.7-1.2c0.3-0.5,0.1-1.2-0.1-1.7c-0.1-0.3-0.5-0.7-0.7-0.9
	c-0.5-0.4-0.2-1,0.1-1.6c0.3-0.6,0.8-1,1.4-1.3c2.1-1.3,4.6-1.7,7-1.1C250.9,78.2,251.2,78.3,251.5,78.5z"/>
<path fill="#7BBCEB" stroke="#4E9BD7" stroke-miterlimit="10" d="M189.1,171.2c-0.1-0.5-0.5-1.3-0.5-1.8c0.1-1.1,0.3-2-0.3-3
	c-0.1-0.2-0.3-0.5-0.6-0.6c-0.2-0.1-0.5-0.1-0.7-0.1c-1.8-0.1-3.6-0.7-5.4-0.8c-1.8-0.1-3.8,0.2-5.1,1.6c-0.7,0.7-1.1,1.6-1.6,2.4
	s-1.5,1.5-2.4,1.3c-0.7-0.1-1.4-0.6-2-0.4c-0.8,0.3-0.9,1.2-1.3,1.9c-0.4,0.7-1,1.1-1.6,1.7c-1.6,1.6-2.5,3.8-2.9,6
	s-0.2,4.5-0.1,6.8c0,0.5,0.1,1.1,0.3,1.5c0.3,0.4,0.7,0.7,1.1,1c2.9,1.8,4.6,4.8,7.9,5.6c0.9,0.2,1.5-0.3,2.3-0.5
	c0.4-0.1,1.4,0.1,1.8,0.2c1.4,0.3,2.2,0.2,3.7,0.1c0.8,0,1.5-0.1,2.2-0.3c1.1-0.4,2.3-0.3,3.3-0.9c1.7-1.1,2.7-3,3.8-4.7
	c0.8-1.2,1-2.8,2.1-3.7c0.5-0.4,1.1-0.6,1.5-1.1c0.3-0.4,0.4-0.9,0.5-1.3c0.4-2.1,0.6-4.2,0.6-6.4c0-0.2,0-0.4-0.1-0.6
	c-0.2-0.4-0.6-0.5-1-0.5c-1.2-0.1-2.5,0.1-3.5-0.5c-0.5-0.3-0.9-0.8-1.3-1.3C189.6,172.4,189.2,171.8,189.1,171.2z"/>
<path fill="none" stroke="#4E9BD7" stroke-miterlimit="10" d="M83.2,228.9c-1.6-3.6,3.3-7.3,6.7-9.3c2.6-1.5,4.6-3.8,7.4-4.9
	c1.9-0.7,3.7-1.3,5.5-2.2c1-0.5,2.1-0.7,3.1-1.1c1.6-0.6,3.1-1.6,4.5-2.6c2-1.4,4.1-2.8,6.1-4.2c0.4-0.2,0.7-0.5,1.1-0.6
	c1.1-0.2,2.3,0.6,3.1-0.1c0.5-0.4,0.8-1.2,1.3-1c0.3,0.1,0.5,0.4,0.8,0.4c0.2,0,0.4-0.2,0.6-0.4c1.1-1.1,2.8-0.9,4.3-0.5
	s2.5,0.2,3.8-0.6c1.1-0.7,2.3-2.3,3.2-3.2c1.7-1.8,4.5-1.6,7-2c4.1-0.6,9.5-2.9,10.2-1.8"/>
<path fill="none" stroke="#D6D6D6" stroke-miterlimit="10" d="M112.7,134c-3.8,2.9-7.6,5.9-11.4,8.8c-0.9,0.7-1.9,1.5-2.6,2.4
	c-0.6,0.9-1.1,1.9-1.6,2.8c-3.1,5.9-9.1,9.3-14.8,12.8c-7.9,4.9-15.5,10.3-22.7,16.2c-3.7,3.1-7.4,6.3-10.2,10.3
	c-2.3,3.3-3.9,7.1-6.1,10.5s-5.1,6.6-9,7.9c-1.9,0.6-4.3,1-5.2,2.8c-0.4,0.8-0.3,1.8-0.6,2.7c-1,2.9-4.9,3.4-6.9,5.7
	c-1.6,1.9-1.6,4.7-2.2,7.2c-0.9,3.7-3.4,6.9-6.8,8.6c-2.4,1.2-5.7,2.5-5.5,5.2c0.3,4-3.3,7.7-6.3,10.4c-0.9,0.8-2,1.6-2.5,2.8
	c-1.2,2.8,1.7,5.6,3.7,7.9c4.8,5.7,5.2,14.4,1.8,21.1c-1.3,2.5-3,4.7-4.4,7.1c-0.4,0.7-0.7,1.3-1.1,2"/>
<path fill="none" stroke="#4E9BD7" stroke-miterlimit="10" d="M165.2,188.1c-5,2.6-10.5,5.7-15.5,8.3c-1.6,0.8-4.4,1-5.6,2.3
	c-3.8,3.9-7.9,5.1-12.8,7.4c-1.3,0.6-2.2,2-3.5,2.7c-1.3,0.7-2.8,0.8-4.2,1.2c-8.5,1.9-15.2,9.3-23.8,10.5c-0.8,0.1-1.7,0.2-2.4,0.5
	c-1.5,0.8-2.2,2.6-3.7,3.6c-0.9,0.6-2.1,0.8-3.1,1.1c-4.1,1.1-7.5,3.8-10.6,6.7c-4.9,4.6-9.4,9.8-13.2,15.4
	c-2.5,3.6-4.8,7.5-8.2,10.4c-3.4,2.9-7.7,4.7-10.5,8.1c-1.3,1.7-1.8,3.8-3,5.5c-5.7,8.1-7.5,18.4-11.1,27.4
	c-0.5,1.2-0.9,2.1-1.2,3.3c-0.4,1.5-1.5,2.7-2.4,3.9c-1.4,1.8-2.6,3.8-3.6,5.8c-0.4,0.8-0.7,1.6-0.6,2.5c0.1,1.4,1,2.5,1.7,3.7
	c0.7,1.2,1,2.9-0.1,3.8c-0.3,0.3-0.7,0.4-1.1,0.6c-2,0.7-4.1,1.5-6.1,2.2c-2.6,0.9-5.5,2.3-6,5c-0.4,2.2,1.1,4.3,2.4,6.1
	c0.2,0.2,0.3,0.5,0.3,0.8c-0.1,0.3-0.4,0.5-0.7,0.7c-2.2,1.2-4.3,2.4-6.5,3.6c-1.9,1.1-4,2.5-4.2,4.7c-0.1,1.1,0.4,2.2,0.4,3.4
	c0,1.8-1.3,3.4-1.5,5.2c-0.2,2.4,3.8,5.4,1.9,7.1c-1.3,1.1-3.9-0.5-4.5,1.1c-0.2,0.5-0.2,1.1-0.3,1.6"/>
<path fill="none" stroke="#D6D6D6" stroke-miterlimit="10" d="M189.6,270.6c-2.9,4-0.7,10-3,14.4c-0.3,0.6-0.7,1.2-0.8,1.9
	c-0.3,2,1.8,3.4,3.5,4.4c0.5,0.3,0.9,0.7,0.9,1.2c0,0.3-0.2,0.5-0.3,0.8c-1.3,1.8-3.2,3.3-3.9,5.5c-0.7,2.4,0.1,4.9,0.3,7.3
	c0.2,2.9-0.6,5.8-0.5,8.7c0.1,4.6,2.1,8.9,4.5,12.9c1.3,2.1,2.6,4.2,4.6,5.8c1.3,1,2.7,1.7,4.1,2.5c3.3,1.9,6.3,4.4,9.3,6.8
	c0.5,0.4,1.1,0.9,1.3,1.6c0.2,0.6,0,1.2-0.2,1.8c-0.8,2.5-1.7,5.1-2.5,7.6c-0.4,1.1-0.7,2.3-0.2,3.3c0.4,0.8,1.1,1.3,1.9,1.8
	c1.9,1.2,3.9,2.5,5.8,3.7c0.5,0.3,1.1,0.7,1.4,1.3c0.2,0.4,0.2,0.8,0.2,1.2"/>
<path fill="#FFFFFF" stroke="#D6D6D6" stroke-miterlimit="10" d="M246.3,81.9c-0.4-0.3-0.9-0.4-1.3-0.1c-0.4,0.3-0.6,0.8-0.4,1.3
	c0,0.1,0.1,0.2,0.1,0.2c0.1,0.3,0.3,0.6,0.4,0.9c0.1,0.3,0.3,0.6,0.6,0.5c0.2,0,0.3-0.2,0.4-0.3c0.3-0.4,0.5-0.8,0.6-1.2
	S246.6,82.2,246.3,81.9z"/>
<text transform="matrix(1 0 0 1 172.6641 44.4977)"><tspan x="0" y="0" fill="#585858" font-family="'Verdana-Italic'" font-size="8">Skelton Lakes</tspan><tspan x="0" y="9.6" fill="#585858" font-family="'Verdana-Italic'" font-size="8">(upper)</tspan></text>
<text transform="matrix(1 0 0 1 198.6989 72.433)"><tspan x="0" y="0" fill="#585858" font-family="'Verdana-Italic'" font-size="8">Skelton Lakes</tspan><tspan x="0" y="9.6" fill="#585858" font-family="'Verdana-Italic'" font-size="8">(middle)</tspan></text>
<text transform="matrix(1 0 0 1 191.2079 152.1096)"><tspan x="0" y="0" fill="#7BBCEB" font-family="'Verdana-Italic'" font-size="8">Skelton Lakes</tspan><tspan x="0" y="9.6" fill="#7BBCEB" font-family="'Verdana-Italic'" font-size="8">(lower)</tspan></text>
<path fill="none" d="M134.5,140.9c4.3-1.1,9.8-19.5,14.7-29.3c3.3-6.5,6.6-13.1,11.9-18.1c3.4-3.2,7.4-5.7,11.3-8.3"/>
<text transform="matrix(0.4687 -0.8834 0.8834 0.4687 152.938 109.96)"><tspan x="0" y="0" fill="#7D7D7D" font-family="'Verdana-Italic'" font-size="7">1</tspan><tspan x="4.3" y="0" fill="#7D7D7D" font-family="'Verdana-Italic'" font-size="7" rotate="2.8">1</tspan><tspan x="8.6" y="0.2" fill="#7D7D7D" font-family="'Verdana-Italic'" font-size="7" rotate="7.2">2</tspan><tspan x="12.7" y="0.7" fill="#7D7D7D" font-family="'Verdana-Italic'" font-size="7" rotate="13.3">0</tspan><tspan x="16.8" y="1.6" fill="#7D7D7D" font-family="'Verdana-Italic'" font-size="7" rotate="20.7">0</tspan></text>
<path fill="none" d="M91.7,48.6c8.2-0.2,16.3-2.6,24.1-5c3.4-1,6.9-2.1,10.3-3.1c3.9-1.2,7.9-2.4,10.8-5.3"/>
<text transform="matrix(0.9676 -0.2524 0.2524 0.9676 105.3857 49.2227)"><tspan x="0" y="0" fill="#7D7D7D" font-family="'Verdana-Italic'" font-size="7">1</tspan><tspan x="4.5" y="0" fill="#7D7D7D" font-family="'Verdana-Italic'" font-size="7" rotate="-1.6">1</tspan><tspan x="9" y="-0.1" fill="#7D7D7D" font-family="'Verdana-Italic'" font-size="7" rotate="-2.2">8</tspan><tspan x="13.4" y="-0.3" fill="#7D7D7D" font-family="'Verdana-Italic'" font-size="7" rotate="-2.2">0</tspan><tspan x="17.9" y="-0.5" fill="#7D7D7D" font-family="'Verdana-Italic'" font-size="7" rotate="-2.2">0</tspan></text>
<path fill="none" d="M278.7,222.9c5.3-1.6,11-1.8,16.5-2c3.6-0.1,7.1-0.2,10.7-0.3c6.8-0.2,14.5-0.8,18.7-6.2"/>
<text transform="matrix(0.9993 -3.813750e-02 3.813750e-02 0.9993 289.8281 223.6982)"><tspan x="0" y="0" fill="#7D7D7D" font-family="'Verdana-Italic'" font-size="7">1</tspan><tspan x="4.4" y="0" fill="#7D7D7D" font-family="'Verdana-Italic'" font-size="7" rotate="0.6">1</tspan><tspan x="8.9" y="0.1" fill="#7D7D7D" font-family="'Verdana-Italic'" font-size="7" rotate="0.6">6</tspan><tspan x="13.3" y="0.1" fill="#7D7D7D" font-family="'Verdana-Italic'" font-size="7" rotate="0.6">0</tspan><tspan x="17.9" y="0.2" fill="#7D7D7D" font-family="'Verdana-Italic'" font-size="7" rotate="-1.9">0</tspan></text>
<path fill="none" d="M103.4,155.1c3.5,2,4.9,6.3,7.4,9.6c2.9,3.9,7.5,6.4,12.3,6.7c6.7,0.5,14.3-2.9,19.7,1.1"/>
<text transform="matrix(0.9236 0.3833 -0.3833 0.9236 114.8071 171.6045)"><tspan x="0" y="0" fill="#7D7D7D" font-family="'Verdana-Italic'" font-size="7">1</tspan><tspan x="5.2" y="-0.1" fill="#7D7D7D" font-family="'Verdana-Italic'" font-size="7" rotate="-15.3">0</tspan><tspan x="9.9" y="-1.5" fill="#7D7D7D" font-family="'Verdana-Italic'" font-size="7" rotate="-26.9">6</tspan><tspan x="14" y="-3.6" fill="#7D7D7D" font-family="'Verdana-Italic'" font-size="7" rotate="-29.3">0</tspan><tspan x="17.6" y="-5.7" fill="#7D7D7D" font-family="'Verdana-Italic'" font-size="7" rotate="-23.3">0</tspan></text>
<path fill="none" d="M90.4,353.4c-9-24.1-9.6-51.2-1.8-75.6c4.4-13.5,11.3-27.9,6.5-41.3"/>
<text transform="matrix(0.2497 -0.9683 0.9683 0.2497 88.7285 286.9199)"><tspan x="0" y="0" fill="#7D7D7D" font-family="'Verdana-Italic'" font-size="7">1</tspan><tspan x="4.3" y="0" fill="#7D7D7D" font-family="'Verdana-Italic'" font-size="7" rotate="2.3">0</tspan><tspan x="8.7" y="0.2" fill="#7D7D7D" font-family="'Verdana-Italic'" font-size="7" rotate="4.2">2</tspan><tspan x="13.1" y="0.5" fill="#7D7D7D" font-family="'Verdana-Italic'" font-size="7" rotate="4.9">0</tspan><tspan x="17.6" y="0.9" fill="#7D7D7D" font-family="'Verdana-Italic'" font-size="7" rotate="4.5">0</tspan></text>
<path fill="none" d="M252,0.5c5,2,12.8,1.2,16.5,5.5c6.6,7.6,16,13,23,20c2,2,1.9,4,3,6"/>
<text transform="matrix(0.7238 0.69 -0.69 0.7238 268.3965 9.707)"><tspan x="0" y="0" fill="#7D7D7D" font-family="'Verdana-Italic'" font-size="7">1</tspan><tspan x="4.6" y="0" fill="#7D7D7D" font-family="'Verdana-Italic'" font-size="7" rotate="-3.4">1</tspan><tspan x="9.1" y="-0.3" fill="#7D7D7D" font-family="'Verdana-Italic'" font-size="7" rotate="-5.2">2</tspan><tspan x="13.6" y="-0.7" fill="#7D7D7D" font-family="'Verdana-Italic'" font-size="7" rotate="-5.6">0</tspan><tspan x="17.9" y="-1.1" fill="#7D7D7D" font-family="'Verdana-Italic'" font-size="7" rotate="-4.6">0</tspan></text>
<path fill="none" d="M14.5,117.6c7.4-6.6,18.9-7.2,24.8-15.2s8.4-18.4,7-28.2"/>
<text transform="matrix(0.9168 -0.3994 0.3994 0.9168 26.5303 113.7842)"><tspan x="0" y="0" fill="#7D7D7D" font-family="'Verdana-Italic'" font-size="7">1</tspan><tspan x="4.6" y="0" fill="#7D7D7D" font-family="'Verdana-Italic'" font-size="7" rotate="-4">1</tspan><tspan x="9.5" y="-0.3" fill="#7D7D7D" font-family="'Verdana-Italic'" font-size="7" rotate="-12.9">0</tspan><tspan x="14.4" y="-1.5" fill="#7D7D7D" font-family="'Verdana-Italic'" font-size="7" rotate="-26.5">0</tspan><tspan x="18.7" y="-3.7" fill="#7D7D7D" font-family="'Verdana-Italic'" font-size="7" rotate="-35.4">0</tspan></text>
<path fill="none" d="M281.8,174.6c2.2-6.7,4.8-13.4,7.7-19.9c2.8-6.3,6-12.6,11.1-17.2"/>
<text transform="matrix(0.3651 -0.931 0.931 0.3651 287.4229 166.4375)"><tspan x="0" y="0" fill="#7D7D7D" font-family="'Verdana-Italic'" font-size="7">1</tspan><tspan x="4.4" y="0" fill="#7D7D7D" font-family="'Verdana-Italic'" font-size="7" rotate="1.2">1</tspan><tspan x="8.8" y="0.1" fill="#7D7D7D" font-family="'Verdana-Italic'" font-size="7" rotate="2.3">8</tspan><tspan x="13.1" y="0.3" fill="#7D7D7D" font-family="'Verdana-Italic'" font-size="7" rotate="4.2">0</tspan><tspan x="17.4" y="0.6" fill="#7D7D7D" font-family="'Verdana-Italic'" font-size="7" rotate="7.7">0</tspan></text>
<path fill="none" d="M252.3,301.8c6,0,11.5-3.1,16.9-5.7c9.1-4.5,18.9-7.9,29.1-8.4c4.9-0.2,9.8,0.2,14.6,1.3"/>
<text transform="matrix(0.8965 -0.443 0.443 0.8965 267.6328 299.6318)"><tspan x="0" y="0" fill="#7D7D7D" font-family="'Verdana-Italic'" font-size="7">1</tspan><tspan x="4.4" y="0" fill="#7D7D7D" font-family="'Verdana-Italic'" font-size="7" rotate="2">1</tspan><tspan x="8.7" y="0.1" fill="#7D7D7D" font-family="'Verdana-Italic'" font-size="7" rotate="4.4">0</tspan><tspan x="13" y="0.5" fill="#7D7D7D" font-family="'Verdana-Italic'" font-size="7" rotate="7.3">0</tspan><tspan x="17.3" y="1" fill="#7D7D7D" font-family="'Verdana-Italic'" font-size="7" rotate="10.6">0</tspan></text>
<path fill="none" stroke="#585858" stroke-miterlimit="10" stroke-dasharray="18,3,1,3" d="M144.2-5.4c1,0.1,2,0.3,3.1,0.7
	c6.6,2.7,7.9,6.6,17.5,11.4c5,2.5,5.1-1.2,6.4-1c5.9,1.2,10.1,3,15.6,0c7.2-4,3.6-6.6,18.6-5.8c3.2,0.2,5.8,4.4,9,6
	C223,10.2,233,2.4,236-1.8c1.6-2.2,1.8,2.1,2.3,4.1c1.5,5.1,3.3,10.7,7.3,14.3c4.4,4,10.1,5.2,14.5,8.5c1.8,1.3,2.8,3.8,4,5.7
	c4.5,7,13.1,8.8,17.9,15.7c1.2,1.7,2.7,4,4.1,5.5c1.4,1.6,3.8,2.7,4.9,4.5c1,1.6,1.1,3,2.3,4.4c1.9,2.5,6.1,1.7,8.6,3.6
	c2.3,1.7,2.6,4.8,2.8,7.6c0.3,4.4,0.5,8.7,0.8,13.1c0.2,2.6,0.3,5.3-0.2,7.9c-0.7,3.8-2.1,7.4-3,11.2c-0.8,3.3-1.3,6.7-1.2,10.1
	c0,1.4,0.2,3.1,1.4,3.8c0.4,0.2,1,0.3,1.4,0.5c1,0.5,1.5,1.5,2,2.5c2.5,4.9,6,10.3,11.4,10.9c2.4,0.3,5-0.5,7.2,0.5
	c1.4,0.6,3.8,0.7,4.8,1.8c2.8,3.4,4.1,8.2,6.5,11.9c2.9,4.5,5.7,9.5,7.8,14.4c0.6,1.4,1.3,3,2.6,3.9c0.8,0.6,1.7,0.8,2.7,1.1
	c3.2,0.9,6.4,1.6,9.7,1.2c2.2-0.3,4.3-1.1,6.4-1.9"/>
<g>
	<g>
		<polyline fill="none" stroke="#7D7D7D" stroke-miterlimit="10" points="85.2,341.6 85.2,348.7 275.4,348.7 275.4,341.7 		"/>
		<line fill="none" stroke="#7D7D7D" stroke-miterlimit="10" x1="180.5" y1="341.4" x2="180.5" y2="348.7"/>
		<line fill="none" stroke="#7D7D7D" stroke-miterlimit="10" x1="161.2" y1="349.2" x2="161.2" y2="343.7"/>
		<line fill="none" stroke="#7D7D7D" stroke-miterlimit="10" x1="142.4" y1="349.2" x2="142.4" y2="343.7"/>
		<line fill="none" stroke="#7D7D7D" stroke-miterlimit="10" x1="123.3" y1="349.2" x2="123.3" y2="343.5"/>
		<line fill="none" stroke="#7D7D7D" stroke-miterlimit="10" x1="104.6" y1="349.2" x2="104.6" y2="343.7"/>
	</g>
	<text transform="matrix(1 0 0 1 83.7834 339.1468)" fill="#7D7D7D" font-family="'Verdana'" font-size="8">0</text>
	<text transform="matrix(1 0 0 1 174.2945 339.1468)" fill="#7D7D7D" font-family="'Verdana'" font-size="8">0.5</text>
	<text transform="matrix(1 0 0 1 258.3414 339.1468)" fill="#7D7D7D" font-family="'Verdana'" font-size="8">1 mi</text>
</g>
</svg>
