<?xml version="1.0" encoding="utf-8"?>
<!-- Generator: Adobe Illustrator 17.1.0, SVG Export Plug-In . SVG Version: 6.00 Build 0)  -->
<!DOCTYPE svg PUBLIC "-//W3C//DTD SVG 1.1//EN" "http://www.w3.org/Graphics/SVG/1.1/DTD/svg11.dtd">
<svg version="1.1" id="Layer_1" xmlns="http://www.w3.org/2000/svg" xmlns:xlink="http://www.w3.org/1999/xlink" x="0px" y="0px"
	 viewBox="0 0 360 360" enable-background="new 0 0 360 360" xml:space="preserve">
<path fill="none" stroke="#E1E1E1" stroke-miterlimit="10" d="M376.9,312.9c-7.6,0.8-15.3,1.5-22.9,2.3c-3.4,0.3-7,0.7-9.8,2.6
	c-1.7,1.1-3.1,2.6-4.5,4.2c-2.1,2.3-4.2,4.7-6.3,7c-1.7,1.9-3.4,3.8-4.6,6.1c-1.4,2.7-1.9,5.7-2.1,8.6c-0.2,4.4,0.3,8.8,1,13.2
	c0.1,0.7,0.2,1.3,0.6,1.9c0.9,1.4,2.9,1.5,4.4,2.4c0.7,0.4,1.2,1,1.7,1.7"/>
<path fill="none" stroke="#E1E1E1" stroke-miterlimit="10" d="M377.8,297.1c-5,3.9-12.7,2.4-18.1,5.9c-1.1,0.7-2,1.5-3.2,2
	c-2.1,0.8-4.5,0.2-6.8,0c-5-0.4-10.1,1.6-13.5,5.2c-0.7,0.8-1.4,1.7-2.3,2.3c-2.1,1.5-5.3,1.4-6.7,3.5c-1.3,1.9-0.8,5.1-2.9,6
	c-0.8,0.3-1.6,0.2-2.4,0.4c-2.5,0.7-2.6,4.1-3.8,6.4c-0.6,1.1-1.5,2-2.1,3.1c-0.9,1.5-1,3.3-1.2,5.1c-0.2,2.4-0.4,5,0.8,7
	c0.7,1.2,1.8,2.1,2.3,3.4c1.2,3.2-2.1,6.4-2.3,9.8c-0.1,2,0.9,3.9,2,5.5c0.2,0.3,0.4,0.7,0.7,1"/>
<path fill="none" stroke="#E1E1E1" stroke-miterlimit="10" d="M152.5,364.4c0.1-1.5,0-2.9-0.6-4.1c-0.9-2-2.5-3.9-3-7
	c-0.2-1-1.9-2-2-3c-1.5-11.3-3.5-19.5-9-31c-0.4-0.9,0.7-2.3,0-3c-1.4-1.4-2.3,0.3-3.7-1.5c-1-1.3,1.9-6.3,5.7-12.5
	c10.8-17.7,8.6-44.1,22-64c5.3-7.9,7.3-22.6-3.5-29.8c-1.2-0.8-1.7,2.5-5.4,3.1c-4.4,0.8-9.7-7.1-12.1-3.3c-3.2,5.1,2.1,15.2-4,18
	c-11.2,5.2-23-1-33,6c-7,5-14,8.1-19,15c-1.3,1.8-3,4-5,6c-1,1-2.1,1.3-3,1c-4.7-1.6,0.2-11.8-9-11c-9,0.8-17,3.9-25-1
	c-5-3-5.7-11.4-11-16c-3.8-3.3-7.8-3.5-12-5c-7.6-2.7-15.6-3.8-23.5-3.3"/>
<path fill="none" stroke="#E1E1E1" stroke-miterlimit="10" d="M-4.2,225.3c0.2,0,0.4,0,0.6-0.1c3.4-0.3,6.9-0.4,10,0.8
	c6.8,2.4,12.8,6.4,18.4,10.9c2.2,1.8,4.4,3,6.8,4.4c3.5,2,4.9,6.3,7.4,9.6c2.9,3.9,7.5,6.4,12.3,6.7c6.7,0.5,14.3-2.9,19.7,1.1
	c1,0.7,1.8,1.7,2.8,2.4c2.8,2,6.6,2.1,9.8,0.8c3.2-1.3,5.8-3.7,8-6.3c3.1-3.6,6.8-6.2,10.6-9.1c1.2-0.9,2.4-0.6,3.9-0.1
	c6.8,2.5,12.8-8.2,19.9-7c4.4,0.7,8.6,2.2,12.7,4.2c3.1,1.5,3.4,6.4,2,9.6c-0.6,1.4-1.7,2.7-1.5,4.3c0.1,0.8,0.5,1.6,0.6,2.4
	c0.1,1.4-0.7,2.6-1.5,3.8c-5,7-9.9,13.9-14.9,20.9c-1.6,2.2-3.2,4.5-5.6,5.8c-2.8,1.6-6.4,1.7-8.9,3.7c-1.5,1.2-2.4,2.9-3.8,4.1
	c-1.4,1.2-3.6,1.9-5.1,0.7c-0.4-0.3-0.8-0.9-1.3-0.9c-0.5-0.1-0.9,0.2-1.3,0.5c-4.2,2.8-8.5,5.7-11,10.2c-2.2,4.1-2.6,9.1-5.7,12.6
	c-2.4,2.7-4.4,5.2-5.6,8.6c-3.5,10.1-11.8,17.8-13.1,28.5c-0.3,2.5-0.5,5-0.6,7.4"/>
<path fill="none" stroke="#E1E1E1" stroke-miterlimit="10" d="M-4,237.6c1.3,0.2,2.6,0.4,4,0.7c5,1,9.5,1,14,4c1.2,0.8,3,2,3,4
	c0,1-0.2,1.5,0,2c1.1,2.6,5.2,1.6,8,3c6.5,3.2,0.5,10.9,0,17c-0.1,1-0.4,3.1,0,4c2.8,5.8,13.1,3.8,19,6c7.1,2.7,16.2,6,17,14
	c1.2,12,1.3,24.1-3,36c-4.4,12.2-10.1,24.9-13.9,37.8"/>
<path fill="none" stroke="#E1E1E1" stroke-miterlimit="10" d="M-4.3,308.2c0.4,0,0.8,0,1.2,0c3.2,0.1,6.4,0.1,9.6,0.2
	c3.4,0.1,7.4-4.2,9.9-1.9c1.9,1.7,3,2.7,4.4,4.9c2,3.2,1.2,7.3,2.5,10.8c4.8,13.4-2.1,27.8-6.5,41.3c-0.3,0.9-0.6,1.9-0.9,2.8"/>
<path fill="none" stroke="#E1E1E1" stroke-miterlimit="10" d="M78.9,365.3c0.6-0.8,1.2-1.7,1.8-2.5c2.1-3,3.7-6.3,5-9.7
	c1.6-4.1,2.7-8.4,3.3-12.7c0.5-3.3,0.7-6.8,2.4-9.7c0.9-1.4,2.1-2.8,2.4-4.4c0.3-1.7-1.2-3.7-2.8-3.1c-0.6,0.2-1,0.8-1.4,1.4
	c-1.1,1.6-2.3,3.1-3.5,4.5c-1.3,1.6-2.7,3-4,4.5c-1.1,1.2-2.1,2.3-3.2,3.5c-2.2,2.5-4.4,5-5.9,7.9c-3.3,6.1-3.8,13.1-3.8,20.1"/>
<path fill="none" stroke="#E1E1E1" stroke-miterlimit="10" d="M91.6,157c2.7-2.9,4-6.9,5.1-10.8c1.1-3.6,2.1-7.5,1.1-11.1
	c-1.3-4.6-5.8-8.6-10.6-8.1c-3.9,0.4-7.7,3.8-9.8,7.1c-2.1,3.3-2.4,7.4-3.6,11.1c-1.3,4.1-2.3,8-0.7,12.1c0.9,2.2,2.6,5.4,4.8,6.2
	c2.5,1,5.2-0.7,7.5-2C87.6,160.2,89.9,158.9,91.6,157z"/>
<path fill="none" stroke="#E1E1E1" stroke-miterlimit="10" d="M312.8,362.8c-6.7-8.8-9.8-20.2-8.4-31.2c0.6-4.8,2-9.5,3.5-14.1
	c0.6-2.1,1.3-4.2,2.4-6c0.8-1.3,1.8-2.4,2.9-3.5c5.4-5.5,12.1-9.7,19.4-12.2c7.3-2.5,15.2-3.4,21.9-7.2c2.6-1.5,5-3.4,7.9-4.2
	c4-1.2,8.3,0,12.5,0.2c4.2,0.2,9.1-1.2,10.5-5.1"/>
<path fill="none" stroke="#E1E1E1" stroke-miterlimit="10" d="M-5.2,200.5c1.7-0.6,3.4-1.4,5.2-1s1.1,2.3,1.7,4
	c1.2,3.5,7.4,0.4,11,0.6c7.7,0.4,17.2,2.1,19.6,9.5c1.4,4.2,8.7,1.2,12.3,3.8c4.4,3.2,2.7,10.5,4.1,15.8c0.2,0.9,0.6,1.9,1.4,2.2
	c0.5,0.2,1,0.1,1.5,0c4.3-0.9,8.6-1.9,12.8-2.8c4-0.9,8.2-1.8,11.4-4.3c6.4-4.8,7.9-14.3,14.5-18.8c0.8-0.6,1.8-1.1,2.8-1
	c0.8,0,1.5,0.4,2.3,0.2c1.2-0.2,1.8-1.5,2.5-2.4c1.4-1.7,3.5-2.5,5.5-3.4c6.1-2.7,11.7-6.6,16.3-11.5c5.8-6.2,14.9-19.2,18-17.5
	c3,1.6-3.7,5.5-6.2,7.8c-2.5,2.3-6.4,8.3-3,8.9c2.3,0.3,2.4-3.9,3.9-5.6c1.5-1.7,3.7-0.5,6-0.9c0.8-0.1,0.1-1.9,0.8-2.3
	c0.8-0.5,2.8,1.2,2.9,0.3c1-7.5,6.7-13.7,13.8-12.7c1.2,0.2,2.6,0.5,3.7-0.1c0.6-0.3,1.1-1,1.5-1.6c1.2-2.2,1.7-4.7,2.9-6.9
	c1.2-2.2,3.8-4,6.1-3.2c0.7,0.2,1.3,0.7,2.1,0.8c1.3,0.1,2.2-1,3.3-1.7c2.8-1.8,6.6-0.9,9.1,1.2c2.5,2.1,4,5.2,5.4,8.2
	c3.3,7,6.7,14.8,4.3,22.1c-1.5,4.4-4.9,7.9-8.2,11.2c-2.4,2.4-4.8,4.8-7.2,7.2c-1.1,1.1-2.3,2.3-2.9,3.7c-0.5,1.2-0.6,2.5-0.7,3.8
	c-0.5,8-1,16-1.5,23.9c-0.2,3.4-0.6,7.2-3.2,9.5c-0.8,0.7-1.7,1.2-2.4,1.8c-1.2,1.1-2,2.7-2.7,4.2c-5.6,12.2-9.8,25.1-12.3,38.3
	c-1.2,6,6,9.8,10.1,14.4c6.6,7.4,6.5,18.4,6.8,28.3c0.2,9.9,1.1,19.7,2.6,29.5"/>
<path fill="none" stroke="#E1E1E1" stroke-miterlimit="10" d="M-5,0.5c0.2,0.2,0.4,0.4,0.6,0.7C-1,4.6,0.2,7.6,5.1,8
	c3.6,0.3,1.5,6.8,3.8,9.5c0.7,0.8,2.3-0.6,3.1,0c1.6,1.3,0.6,4.8,2.5,5.5c1.3,0.5,2.9-1.7,4.1-1c4.1,2.6,0.2,9.9-2.4,14.1
	c-0.8,1.3-1.7,2.5-1.8,4c-0.1,0.9,0.2,1.8,0.2,2.7c0,1.6-0.8,3.1-1.5,4.6c-2.4,4.6-4.8,9.3-7.2,13.9c-2.8,5.3-5.6,10.7-8.5,16"/>
<path fill="none" stroke="#E1E1E1" stroke-miterlimit="10" d="M158.5,186.2c0.8-1.2,1.6-2.4,1.8-3.8c0.2-0.9,0.1-1.8,0.2-2.8
	c0.1-1.1,0.3-2.2,0.3-3.3c0-1.1-0.1-2.3-0.8-3.2c-0.7-0.9-1.9-1.4-2.9-1.1s-1.6,1.8-0.9,2.7c0.3,0.4,0.8,0.6,1.3,0.9
	c0.9,0.8,1.2,2.3,0.5,3.3c-0.2,0.4-0.6,0.6-0.9,1c-1.2,1.2-1.9,2.9-1.9,4.6c0,0.7,0.1,1.5,0.5,2c0.4,0.6,1.2,0.9,1.9,0.6
	C158,187,158.3,186.6,158.5,186.2z"/>
<path fill="none" stroke="#E1E1E1" stroke-miterlimit="10" d="M-2.8,100.4c4.3-4.7,9.5-9,11.2-15.1C8.8,84,9,82.7,9.5,81.4
	c0.6-1.4,1.7-2.6,2.7-3.7c6.1-7.1,10.5-15.7,12.6-24.9c2-8.7,6.4-16.7,7-25.6c0.3-4.2,0.2-8.5-0.2-12.7c-0.2-2.6-0.6-5.2-1.6-7.6
	c-1.9-4.3-5.7-7.2-9.9-9.5"/>
<path fill="none" stroke="#E1E1E1" stroke-miterlimit="10" d="M182.1,364c1.1-9.8,3.3-22.3,4.9-30.8c0.4-2.4,0.8-4.9,0.5-7.3
	c-0.5-3.4-2.4-6.4-4.2-9.4c-8.1-13.8-12.7-29.7-13.4-45.7c-0.2-5.2,1.6-10,5.4-13.6c7.8-7.4,6.8-20.4,8.5-31.1
	c0.9-5.7,1.9-11.8,5.5-16.3c2.4-3,5.8-5.1,8.6-7.7c2.6-2.5,4.7-5.5,6.1-8.8c2.1-4.9,2.7-10.3,2.4-15.6c-0.4-6.7-2.3-13.3-5.5-19.2
	c-2.1-3.9-4.8-7.7-5.3-12.1c-0.6-5.5-5.6-10.2-10.9-11.7c-3.3-1-6.9-0.2-10.3,0.6c-15.5,3.8-32.4,4.9-45.9,13.4
	c-10.3,6.4-17.9,16.4-28,23.1c-3.9,2.6-7.9,5-11.3,8.3c-5.2,5-8.6,11.7-11.9,18.1c-4.9,9.8-10.4,28.2-14.7,29.3
	c-4.8,1.2-1.1-10.9-5-13.9c-5-3.9-13.1-1.6-17.4-6.2c-3.6-3.9-4.9-9.8-9.4-12.7c-1.9-1.2-4.1-1.7-6.2-2.4
	c-8.3-2.5-15.9-7.4-21.6-13.9c-0.9-1-1.8-2.1-3.1-2.5c-1.3-0.4-2.6-0.1-4,0.1"/>
<path fill="none" stroke="#E1E1E1" stroke-miterlimit="10" d="M376.7,274.7c-3.1-3.8-8.8-4.8-13.5-3.4c-4.7,1.3-8.7,4.6-12.3,8
	c-1.8,1.8-3.7,3.7-6.1,4.5c-2.2,0.8-4.7,0.6-6.9,1.2c-3.2,0.9-5.8,3.3-8.8,4.7c-2.9,1.3-6.1,1.8-9.1,2.8c-7.9,2.6-14.3,9.1-16.7,17
	c-1.3,4.3-1.5,9-2.7,13.3s-3.8,8.8-8.1,10.2c-2,0.7-4.1,0.7-6.1,1.3c-1.6,0.5-3,1.5-4.5,2.2c-3.2,1.6-6.8,2.4-10.3,3.2
	c-6.1,1.3-12.3,2.7-18.4,1.4c-1.6-0.3-3.1-0.8-4.7-0.5c-1.4,0.2-2.6,1-4,1.2c-3.1,0.4-5.8-2.3-8.9-2.8c-6.1-1.1-11.3,6.1-17.4,5.2
	c-6.5-1-12.9,3.4-17.2,8.3c-3.2,3.6-5.1,8.1-7.3,12.4"/>
<path fill="none" stroke="#E1E1E1" stroke-miterlimit="10" d="M-3.1,158.4c15.1,14.1,36.9,15.5,56.1,24.9c4,2,4.7,7.2,7,10
	c3.6,4.4,9.6-1,10-5c1-9.2,8.2-16.4,17-20c2.1-0.9,4.2-5.6,8.5-7.8c13.8-7,14.8-9.8,12.5-22.8c-2-11.8,19.9-13.6,30-18.5
	c14.9-7.2,29.9,2,45,3c3,0.2,7.1-1.1,10,1c10.3,7.6,11.9,20.1,20,30c10.8,13.2,11.6,33.6,0,45c-7.6,7.4-20.3,13.4-22,24
	c-2.2,13.9-4.4,26.8-10,39c-3.2,6.9-5.5,14.3-1,21c24.2,35.5,10.3,54.9,11.9,55.9c2.4,1.6,4-4.2,6.1-4.9c3.9-1.4,6.2-4.8,10-8
	c1.7-1.4,4-2,6-2c20,0.5,40.4-0.5,58-15c1.7-1.4,2.7-3.3,5-5c1.8-1.3,3.8-2.5,6-3c4.9-1.1,10.1-0.8,14-3c8.2-4.6,11.8-14.4,21-18
	c5.9-2.3,11.5-4,16-7c1.2-0.8,1-2,2-3c7.8-7.3,16-12.5,22.3-23.2c1.5-2.5,3.1-5.1,2.5-8c-0.6-2.9-2.4-5.4-4.3-7.6
	c-4-4.6-9.1-8.4-14.7-10.9c-0.9-0.4-1.9-0.8-2.6-1.5c-0.6-0.7-1-1.5-1.6-2.2c-0.7-0.9-1.8-1.4-2.8-1.8c-6.2-2.7-13.5-2.9-19.9-0.7
	c-0.9,0.3-1.8,0.7-2.8,0.6c-1.6-0.2-2.7-1.9-4.2-2.5c-2.9-1.3-6,1.3-9.2,1.6c-3.2,0.3-6-1.8-8.7-3.6c-4.1-2.8-8.5-5.2-13-7.2
	c-4.3-1.8-9.1-3.5-11.3-7.6c-0.7-1.3-1.1-2.8-1.4-4.3c-0.6-2.6-0.8-5.3-1-8c-0.2-4.1-0.2-8.2-0.2-12.3c0-5.9-1.7-12.1,0.1-17.8
	c1.4-4.6,0.1-9.6-3.8-12.4c-4-2.8-9-3.3-13.8-3.7c-6.9-0.6-13.8-1.2-20.7-1.8c-2.9-0.2-5.9-0.5-8.3-2.1c-2.8-1.9-4.3-5.2-6.7-7.6
	c-3.1-3.2-7.6-4.9-10.9-8c-2.5-2.4-4.1-5.5-6.6-7.9c-5.5-5.3-14.6-6.4-18.7-12.9c-3.6-5.7-1.9-13.4-5.2-19.2
	c-0.6-1.1-1.6-2.2-2.9-2.1c-0.9,0.1-1.7,0.7-2.4,1.3c-4.5,3.5-10.8,3.5-16.4,2.5c-5.6-1-11.1-3.1-16.8-3.2c-6-0.2-12,1.7-18.1,1.4
	c-13.6-0.8-25-14.8-22.9-28.3c1-6.6,4.7-12.5,9-17.6c1.1-1.3,2.3-2.6,3.8-3.4c2-1.1,4.3-1.3,6.6-1.6c6.6-1,13-3.4,18.6-7
	c3.2-2,7-5.7,5.3-9.1c-2.5-4.6-9.5-3.7-13.6-6.9c-4.1-3.2-7.5-4.1-12.7-5.2c-2-0.4-3.8-4.3-5.3-2.9c-2.6,2.4-0.3,7.6-2.9,10
	c-1.2,1.1-2.7,1.7-4.2,2.2c-3.8,1.5-7.7,3-11.5,4.5c-3.2,1.3-6.8,3.7-10.1,2.4c-1.6-0.6-3.4-2-5.1-2.2c-1.1-0.1-2.2-0.1-3.1-0.5
	c-1.3-0.6-2-2-2.8-3.2c-1.9-2.9-4.8-5-7.4-7.2c-1.4-1.1-2.7-2.3-4-3.7"/>
<path fill="none" stroke="#E1E1E1" stroke-miterlimit="10" d="M44.5-2.6c0.2,0.3,0.3,0.6,0.5,0.9c1,2,2.1,5,2,7
	c-0.5,19-8.6,36.1-13,55c-1.8,8-3.9,16.1-8,24c-6.8,13.1-19,20-28,31"/>
<path fill="none" stroke="#E1E1E1" stroke-miterlimit="10" d="M57.5,90.7c1.2,1.2,3.3,0.4,5,0.5c0.6,0.1,1.1,0.1,1.6-0.1
	c0.5-0.2,0.9-0.7,1.3-1.1c2.7-2.9,6.5-4.8,10.5-5.2c0.8-0.1,1.6-0.1,2.3-0.5c0.7-0.4,1.1-1.4,0.6-2c-2.3-2.4-4.8-4.5-7.2-6.8
	c-0.9-0.8-1.7-1.6-2.5-2.6c-2-2.3-3.3-5.2-3.8-8.3c-0.1-0.7-0.2-1.5-0.6-2.1c-0.4-0.6-1.2-1-1.9-0.6c-0.2,0.2-0.4,0.4-0.6,0.6
	c-0.9,1.3-1.7,2.6-2.6,3.9c-0.3,0.5-0.7,1-0.8,1.6c-0.2,1.2,0.7,2.4,1.2,3.5c1.2,2.6,0.4,5.7-0.4,8.4c-0.5,1.7-1,3.4-1.4,5.1
	C57.7,87.1,56.2,89.4,57.5,90.7z"/>
<path fill="none" stroke="#E1E1E1" stroke-miterlimit="10" d="M44.8,106.5c-1.3,0.2-3,2-2.1,2.9c0.8,0.8,2.2-0.2,2.9-1
	c0.4-0.5,0.7-1.3,0.2-1.7C45.6,106.5,45.2,106.5,44.8,106.5z"/>
<path fill="none" stroke="#E1E1E1" stroke-miterlimit="10" d="M56.5,98.8c0.6-0.4,0.2-1.5-0.4-1.9c-0.6-0.4-1.6-0.9-2.1-0.4
	c-0.3,0.3-0.4,0.9-0.2,1.4C54,98.9,55.6,99.4,56.5,98.8z"/>
<path fill="none" stroke="#E1E1E1" stroke-miterlimit="10" d="M48.4,160.2c-0.1-0.1-0.2-0.2-0.4-0.3c-0.3-0.1-0.6,0.3-0.8,0.6
	c-0.5,1.3,0,3.7,1.4,3.5c0.7-0.1,0.9-1,0.9-1.7C49.7,161.5,49,160.8,48.4,160.2z"/>
<path fill="none" stroke="#E1E1E1" stroke-miterlimit="10" d="M41.3,62c-0.8,2.3-0.6,4.9-0.7,7.3c-0.4,9.6-5.1,18.4-10.2,26.5
	c-3.4,5.3-9.6,6.6-14.3,10.8c-2.8,2.5-0.8,7.8-3.6,10.2c-2.4,2.1-6,2.4-8.4,4.5c-2,1.7-2.8,4.3-3.6,6.8c-1.7,5.2-3,11.7,1.1,15.3
	c3.2,2.8,8,2.2,12.1,3c2.8,0.6,5.4,1.9,8.1,3c4.3,1.8,8.9,3.3,13.5,4.3c3.6,0.8,7.3,1.3,11,0.8c5.1-0.7,9.8-3.2,14.4-5.7
	c2.6-1.4,5.4-3,6.8-5.7c1-1.9,1.1-4,1.3-6.1c0.7-6.1,3.1-12.9,8.8-15.1c3.1-1.2,6.6-0.7,10-0.6c3.7,0.1,7.4-0.3,11-1.1
	c13.8-3.3,24.9-13.1,35.5-22.6c2.1-1.9,4.3-3.9,5.3-6.6c0.9-2.7,0.1-6.2-2.5-7.4c-0.8-0.3-1.6-0.4-2.5-0.5
	c-3.8-0.4-7.6-0.8-11.3-1.2c-2.4-0.3-5.2-0.4-7.1,1.2c-0.6,0.5-1,1.1-1.6,1.5c-1.1,0.7-2.4,0.5-3.7,0.4c-2.4-0.3-4.9-0.6-7.3-0.9
	c-2.8-0.3-5.7-0.7-8.1-2.1c-1.9-1.1-3.4-2.7-4.8-4.3C85,72,79.4,65.7,78.4,57.9c-0.6-5.1,0.9-10.3,2.8-15
	c3.4-8.3,17.3-14.1,14.6-22.7c-1-3.1-5.9,1.8-8.7,3.5c-7.9,4.8-19.3,2.5-24.7-5c-1.4-1.9-4.7-6-5.6-3.7c-1.4,3.4,0,7.3-2,10.5
	s-4.4,6.4-4.3,10.1c0,1.4,0.4,2.9-0.3,4.1c-0.4,0.9-1.3,1.5-2,2.2c-3.6,3.7-2.4,9.8-4.3,14.6C43.2,58.3,41.9,60,41.3,62z"/>
<path fill="none" stroke="#E1E1E1" stroke-miterlimit="10" d="M65,33.3c-0.3-0.5-0.7-1.2-1.4-1.1c-0.3,0-0.6,0.2-0.8,0.4
	c-2.9,2.9-1.9,7.8-3.4,11.5c-2,4.7-8.1,7.6-7.9,12.8c0,0.9,0.3,1.9,0,2.8c-0.5,1.5-2.4,2.6-2.2,4.2c0.1,0.7,0.6,1.3,0.7,2
	c0.3,1.7-1.6,3.1-2.2,4.7c-0.7,1.7-0.1,3.5,0.1,5.3c0.4,3.6-0.8,7.2-2.3,10.5c-2.5,5.6-5.6,10.9-8.8,16.2c-0.6,1-1.3,2-2.4,2.3
	c-0.5,0.1-1.1,0.1-1.5,0.4c-0.5,0.3-0.6,1-0.8,1.5c-0.5,2.1-1.6,4.5-3.7,5c-1.9,0.5-4.4-0.4-5.4,1.3c-0.8,1.4,0.4,3.1-0.1,4.6
	c-0.3,0.9-1.2,1.6-2,2.1c-2.2,1.5-4.5,3-6.7,4.5c-1.4,1-2.9,2-3.4,3.6c-0.7,2.1,0.7,4.5,2.6,5.7s4.3,1.3,6.6,1.2
	c8.2-0.2,16.3-2.6,24.1-5c3.4-1,6.9-2.1,10.3-3.1c3.9-1.2,7.9-2.4,10.8-5.3c2-2,3.2-4.8,5.6-6.4c4-2.9,9.8,2,14.1-0.2
	c0.9-0.5,0.1-2.5,1-2.9c4.3-1.5,9.1,1.3,12.8-1.3s6.2-6.6,8.5-10.5c0.7-1.1,1.3-2.5,0.9-3.7c-0.3-0.7-0.9-1.3-1.4-1.8
	c-1.6-1.4-3.2-2.8-4.7-4.2c-1.3-1.2-3-2.5-4.7-2.1c-1.5,0.3-2.7,1.9-4.2,1.5c-0.8-0.2-1.3-0.8-1.9-1.4c-1.9-2.1-3.7-4.2-5.6-6.4
	c-4.1-4.6-8.1-9.3-12.2-13.9c-0.4-0.5-0.9-1-1-1.6c-0.1-0.6,0.1-1.2,0.3-1.7c1.1-4.2-1.3-8.5-0.9-12.8c0.4-3.9,5.6-8.4,3-11.4
	C72.2,37.3,67.1,36.9,65,33.3z"/>
<path fill="none" stroke="#E1E1E1" stroke-miterlimit="10" d="M166.4,81.4c-1.4-0.3-2.2,1.4-3.3,2.2c-0.9,0.6-2.1,0.9-2.4,1.9
	c-0.3,0.8,0.3,1.7,1,2.2c0.7,0.5,1.8,0.4,2.3,1.1c0.2,0.3-0.1,0.7,0,1c0.3,0.8,1.6,0.6,2.3,0c0.6-0.5,0.9-1.4,1.2-2.2
	c0.6-1.8,1.2-4,0-5.5C167.2,81.8,166.9,81.5,166.4,81.4z"/>
<path fill="none" stroke="#E1E1E1" stroke-miterlimit="10" d="M188.8,109.4c-1.7-1.2-3.4-2.4-5.4-3c-0.5-0.1-1-0.2-1.4,0
	c-0.2,0.2-0.4,0.4-0.5,0.7c-0.6,1.6,0.1,3.5,1.3,4.7c1.3,1.2,3,1.7,4.7,1.9c1.1,0.1,2.4,0,2.9-0.9
	C191.1,111.7,189.9,110.3,188.8,109.4z"/>
<path fill="none" stroke="#E1E1E1" stroke-miterlimit="10" d="M275.5,280.3c13.3-6.1,23.3-22.4,37.9-21.9c3.8,0.1,7.4,0.6,10.7-1.3
	c5.8-3.3,12.2-7.7,12.4-14.3c0.1-2.8-1.5-6-4.3-6.5c-1.7-0.3-3.3,0.4-5,0.9c-4.8,1.5-10.1,1.6-15,0.3c-2.8-0.8-5.5-2-8.3-2.9
	c-3.5-1.1-7.3-1.7-10.4-3.8c-2.4-1.6-4.1-4.1-6.1-6.3c-5.5-6.2-13-10.7-21.1-12.6c-1.4-0.3-3-0.6-4-1.6c-1.2-1.2-1.6-3-2.4-4.4
	c-2.2-3.6-7.2-4.5-9.7-8c-1.3-1.9-1.7-4.3-2-6.6c-2.2-16.2,7.1-34.2-0.3-48.8c-2.2-4.3-9.2-2.8-14-2.9c-0.7,0-1.5,0.1-1.9,0.6
	c-0.4,0.6-0.2,1.5-0.5,2.1c-0.5,0.9-1.7,0.8-2.7,0.7c-4.5-0.6-10.8-5.6-13.4-1.9c-3.2,4.4,4.8,9.9,6.9,14.9
	c2.5,5.8,4.7,11.9,4.4,18.2c-0.1,1.5-0.3,3.1,0.2,4.6c0.5,1.5,1.6,2.7,1.6,4.3c-0.1,1.6-1.5,2.8-2.8,3.9c-3.8,3.3-6.7,7.7-8.3,12.6
	c-0.4,1.2-0.8,2.6-1.8,3.3c-1,0.8-1.7-1-3-1c-2-0.1-2.4,3.1-4.2,4.1s-1.9,2.8-2.3,4.9c-0.3,1.4-3.1,0.7-3.8,2
	c-0.6,1.2,0.8,2.8,0.3,4c-2.3,5.9-0.3,12.6-4.3,17.5c-1.4,1.6-2.2,2.3-3.3,4.1c-0.4,0.7-2.6-0.5-2.5,0.3c2.1,11.8-3.7,19-3.6,28.7
	c0.1,4.6,0.8,9.3,3.1,13.3c7.5,13,6.2,27.3,9.5,30.6c1.4,1.4,3.7-1.5,5.6-2.1c5.3-1.6,11-1.8,16.5-2c3.6-0.1,7.1-0.2,10.7-0.3
	c6.8-0.2,14.5-0.8,18.7-6.2c1.7-2.2,2.5-4.8,3.9-7.2C260.7,286.8,268.4,283.5,275.5,280.3z"/>
<path fill="none" stroke="#E1E1E1" stroke-miterlimit="10" d="M280,251.5c0.1-5.3-0.5-10.7-2.9-15.4c-0.7-1.4-1.5-2.8-2.7-3.9
	c-2.9-2.8-7.2-3.6-11.3-4.2c-0.7-0.1-1.6-0.2-2.1,0.4c-0.3,0.4-0.3,0.8-0.3,1.3c0.1,9.3,2.6,18.6,7.3,26.6c1.5,2.6,3.4,5.2,6.1,6.6
	c1,0.5,2.3,0.9,3.2,0.3c0.9-0.5,1.2-1.6,1.4-2.5C279.6,257.6,279.9,254.5,280,251.5z"/>
<path fill="none" stroke="#E1E1E1" stroke-miterlimit="10" d="M200.8,246.4c-0.9,3.5-0.9,7.3,0.1,10.9c0.5,1.9,1.4,3.8,1.6,5.8
	c0.4,3.8-1.5,7.5-1.5,11.3c0,4.1,2.2,7.8,2.4,11.9c0.1,1.5-0.2,3,0.3,4.4c0.4,1.4,2.9,3.7,3.3,2.3c1.1-3.9,0-13.4,0.6-20.1
	c0.4-4.1,1.5-8.1,2.8-12c2.2-6.7,4.8-13.4,7.7-19.9c2.8-6.3,6-12.6,11.1-17.2c2.2-2,4.7-3.6,6.8-5.6s4-4.6,4.2-7.6
	c0.4-4.9-3.4-9-4.6-13.7c-1.3-5,0.3-10.2-0.2-15.3c-0.1-1-0.5-2.2-1.5-2.3c-1-0.1-1.6,1-2,1.9c-1.5,3.8-3,7.6-3.8,11.6
	c-0.3,1.4-0.5,2.7-1,4c-0.8,1.8-2.3,3.2-3.6,4.7c-1.3,1.5-2.4,3.2-3.3,4.9c-0.5,1-1,2.1-1.8,3c-0.6,0.6-1.3,1-1.9,1.5
	c-2.1,1.5-4.1,3.3-4.7,5.8c-0.2,0.8-0.3,1.8-0.7,2.5c-0.4,0.7-1.1,1.1-1.6,1.7c-0.9,1.1-1.2,2.5-1.7,3.8s-2.4,1.4-2.9,2.7
	c-1.5,4,4,9.4,0.7,12c-1.4,1.1-1.2,2.5-2.1,4C202.6,244.7,201.1,245,200.8,246.4z"/>
<path fill="none" stroke="#E1E1E1" stroke-miterlimit="10" d="M157-2.8c5.8,11.8-11.5,29.4-23.1,40c-3.1,2.9-7.6,3.5-11,6
	c-1.8,1.3-4,2-6,2c-5,0-10.4-5.2-13.9-1.1c-3,3.5,1.1,9.9,4.5,13.1c1.1,1,1.5-1.2,2.5-1c4.4,1,4,8.1,9,9c7,1.2,13.4,5.1,20,4
	c4.2-0.7,3.6-10.3,6.8-8c1.5,1.1,1.2,5.5,2.8,4.4c2.8-2,3.4-5.3,4.5-4.4c6.6,5.6,18.7-4.2,22,0.2c2,2.6-4.5,21.3,5.5,25.3
	c5,2,12.8,1.2,16.5,5.5c6.6,7.6,16,13,23,20c2,2,1.9,4,3,6c3.8,7.1,13.2,7.3,19,2c2.1-1.9,3-6.9,6-6c6.1,1.8,7.9,0.9,12-2
	c2.9-2.1,4.1,3,4,5c-0.5,10-1.8,20.8,6,29c9.3,9.8,21.5,24.8,24.3,29.7c0.2,0.3,2.1,3.3,2,4.7c-0.1,0.9-0.4,1.8-0.8,2.6
	c-1,2.3-1.8,4.8-1.8,7.3s0.8,5.2,2.8,6.8c0.7,0.6,1.4,1,2.1,1.5c0.9,0.7,1.6,1.6,2.5,2.2c0.9,0.6,1.8,0.9,2.8,1.2
	c7,1.7,14.1-1.5,21.3-1.5c4.6,0,9,1.4,13.4,2.7c3,0.9,6.1,1.8,9.1,2.8c1.4,0.4,2.8,0.8,4,1.7c3.5,2.3,4.2,7.1,7.1,10.2
	c1,1.1,2.3,2,3.6,2.9c2.9,2,5.9,3.9,8.8,5.9c3,2,6,4,9.5,5"/>
<path fill="none" stroke="#E1E1E1" stroke-miterlimit="10" d="M173.8-2.8c1,13.5-16,22.6-21.9,35c-1.5,3-2.8,6.7-1.3,9.6
	c0.8,1.5,2.3,2.4,3.6,3.4c17.9,13.8,25.2-3.2,33.2-12.2c8.8-9.8-2.1,25.9,3.1,38c1.4,3.4,4.1,6.1,6.8,8.6
	c6.2,5.8,12.8,11.2,19.8,16.1c4.9,3.5,11.3,6.8,16.7,4.1c2.6-1.3,4.4-3.9,6.9-5.6c2.2-1.5,4.9-2.3,7.4-3.2
	c7.5-2.8,11.2-13.5,19.2-13.8c9.3-0.4,10.1,16,9.9,25.2c-0.1,6.7-4.8,14-1.6,19.9c11.6,21.4,31.3,36.8,39.6,58.6
	c3.2,8.3,20.5,5.9,29,8.8c2.4,0.8,4.7,1.6,7.1,2.4c5.9,2,9,8.3,14.9,10.2c2,0.6,4.3-2.5,6.1-1.5c1.3,0.7,0.1,3.2,1.2,4.2
	c2.3,2.3,6.3-1.7,8.6-3.9"/>
<path fill="none" stroke="#E1E1E1" stroke-miterlimit="10" d="M190.9-3c0.1,0.7,0.3,1.3,0.5,1.9c0.5,1.9,1,3.8,1.6,5.7
	c4.7,17.2,9.5,35.1,6.3,52.6c-0.6,3.4-1.5,7,0,10.1c0.8,1.5,2,2.7,3.3,3.9c3.5,3.3,6,8.4,10.5,10c8.7,2.8,18.1-2.2,27.1-3.3
	c1.9-0.2,3.8-0.5,5.6-1.2c3.3-1.4,5.6-4.4,7.8-7.3c4.5-6,0.6-14.3,4.9-20.5c3.7-5.3,12,5.2,16,10.2c4.1,5.2,6.4,11.5,8.7,17.7
	c5.5,15.4,2.8,37.2,16.4,46.1c5.7,3.8,13.1,3.3,18.9,7c6.6,4.2,13.5,8.5,17.8,15.1c4.2,6.6-3.9,14.9-0.3,21.8
	c3.6,6.8,9.9-13.4,17.7-13.4c2,0,0.9,4.2,2.5,5.4c2.2,1.6,4.3-1.2,6-3.3c4.1-5.1,13.1,1.8,18.5,5.5"/>
<path fill="none" stroke="#E1E1E1" stroke-miterlimit="10" d="M211.8-3.3c2.1,1.9,2,6.1,5,6.5c1.6,0.2,3.3-0.1,4.9,0.3
	c2.4,0.6,4,2.7,5.9,4.2s4.1,0.4,6.6,0.5c9.9,0.3,11.6,21,21.6,20.5c5.7-0.3,11.4-2.6,15.8,1.1s6.9,9.1,9.2,14.4
	c3.4,7.9,6.8,15.8,9.1,24c2.3,8.2,3.6,16.6,6.7,24.6s8.1,15.6,15.7,19.3c7,3.4,15.7,3.1,22.4-0.9c1.5-0.9,3.1-2,4.9-1.9
	c0.9,0.1,1.7,0.5,2.5,0.8c3.3,1.6,6.3,4.4,10,4.8c9.4,1,19.3,0.3,26.5,6.4"/>
<path fill="none" stroke="#E1E1E1" stroke-miterlimit="10" d="M237.6-3.3c1.2,4,3.7,7.7,7.4,9.6c0.8,0.4,2,0.3,2.6,1
	c1.4,1.9,1.5,4.6,3.6,5.7c6.2,3.2,13.9,0.2,20.3,2.8c4.8,1.9,8.9,4.2,13.4,6.8c3.6,2.1,2.9,7.8,2.8,12c-0.1,2-0.4,4.1-0.1,6.1
	c0.2,1.7,0.9,3.3,1.6,4.9c6,14.3,12.1,28.7,18.1,43c1,2.4,2.1,4.9,4,6.7c4.5,4.2,17.1,2,15.1-3.9c-1.7-4.9-11.3-3.1-12.6-8.1
	c-0.7-2.7,0.8-5.6,3.1-7.3c2.2-1.7,5-3.8,7.7-3.1c1.6,0.4,0.6,3.4,1.8,4.5c1.3,1.2,2.6-2,4.2-2.7c6.2-2.9,10.2,11.3,17,10.4
	c1.3-0.2,2.5-0.7,3.8-0.6c3.1,0.3,4.3,4.5,7.1,5.9c1.8,1,3.9,0.7,6,0.6c6.4-0.2,12.8,2.1,17.6,6.3"/>
<path fill="none" stroke="#E1E1E1" stroke-miterlimit="10" d="M378,21.7c-3.8,1.2-7.6,2.3-11.3,3.5c-0.8,0.2-1.6,0.5-2.3,1
	c-1.3,0.9-2,2.5-3.1,3.6c-1.4,1.2-3.5,2-3.6,3.8c0,0.6,0.2,1.3,0,1.9c-0.6,1.3-2.5,0.6-3.9,1c-1.6,0.5-2.5,2.7-4.2,2.7
	c-0.7,0-1.4-0.4-2.1-0.3c-1.1,0.1-1.6,1.4-2.5,2c-0.8,0.5-1.9,0.5-2.8,0.7c-2.5,0.5-4.6,2.3-6.5,4.1c-1.1,1-2.3,2.2-2.4,3.7
	c-0.2,2.5,2.8,4.3,3.2,6.8c0.1,0.7,0,1.5,0.2,2.2c0.8,2.3,4.2,2.2,6,3.9c0.7,0.7,1.2,1.6,2.1,1.9c0.9,0.3,1.9-0.2,2.8,0
	c2,0.5,2,3.6,3.8,4.6c1.3,0.7,3,0,4.2,0.9c0.8,0.6,1.4,1.8,2.4,1.5c0.4-0.1,0.7-0.5,1.1-0.6c0.7-0.2,1.3,0.4,1.5,1.1s0.1,1.3,0.2,2
	c0.3,2,2.4,3.3,4.3,3.9c1.9,0.6,4.1,0.9,5.7,2.1c1.4,1,2.3,2.6,3.4,3.9c1.1,1.3,2.8,2.4,4.5,2"/>
<path fill="none" stroke="#E1E1E1" stroke-miterlimit="10" d="M328.9,25.9c3.9-0.6,7.6-1.8,11.1-3.5c2.9-1.4,5.8-3.4,7.1-6.3
	s0.6-7.1-2.3-8.5C344,7.1,343,7,342.1,6.8c-3.3-0.7-6.5-2.2-9.2-4.2c-0.7-0.5-1.5-1.1-2.3-1.5c-1.8-0.7-3.9-0.2-5.8,0.4
	c-2.1,0.6-4.2,1.3-6.3,1.9c-0.7,0.2-1.5,0.5-2,1.1c-0.8,1-0.2,2.5-0.1,3.8c0.1,1.1-0.2,2.3-0.3,3.4c-0.4,3,0,6,1.1,8.8
	c0.5,1.3,1.3,2.6,2.4,3.6C321.9,26.3,325.6,26.4,328.9,25.9z"/>
<path fill="#EAEAEA" stroke="#D6D6D6" stroke-miterlimit="10" d="M74.5,154.3c0.2,0.7,0.5,1.3,0.8,1.9c0.8,1.6,1.6,3.2,2.3,4.7
	c0.2,0.4,0.4,0.8,0.9,0.9c0.3,0,0.6-0.1,0.8-0.3c4.2-2.7,8.2-5.8,11.6-9.5c1.1-1.3,2.2-2.6,2.9-4.1c0.6-1.2,0.9-2.5,1.2-3.8
	c0.3-1.3,0.5-2.6,0.6-3.9c0.2-2,0.2-4.1-0.7-5.9c-0.8-1.5-2.1-2.7-3.4-3.8c-0.6-0.5-1.2-1-1.7-1.5c-0.2-0.2-0.4-0.3-0.6-0.4
	c-0.4-0.1-0.7,0.1-1,0.3c-2.8,1.7-4.6,5-7.8,5.8c-0.3,0.1-0.7,0.1-0.9,0.4c-0.2,0.2-0.2,0.4-0.3,0.7c-0.5,1.8-1.3,3.4-2.2,5
	c-0.4,0.7-0.4,1.6-0.6,2.4c-0.2,0.6-0.2,1.4-0.3,2c-0.3,2-1.1,3.5-1.4,5.4C74.4,151.8,74.2,153.1,74.5,154.3z"/>
<path fill="#7BBCEB" stroke="#4E9BD7" stroke-miterlimit="10" d="M180,164.8c0.3,0.2,0.5,0.6,0.7,0.8c0.7,1,1.9,1.7,2.4,2.8
	c0.3,0.5,0.4,1.1,0.5,1.6c0.5,1.6,1.7,2.9,2.5,4.4c1.3,2.4,1.5,5.2,1.8,7.9c0.1,0.7,0.1,1.4-0.1,2.1c-0.3,1-1.3,1.7-2,2.5
	c-0.9,1-1.6,2.2-2.6,3.2c-0.9,1-2.2,1.8-3.6,1.7c-1.5-0.2-2.6-1.5-3.3-2.8c-0.7-1.2-1.1-2.6-1.4-4c-0.4-2.1-0.3-4.7-2.1-6
	c-0.2-0.1-0.4-0.3-0.4-0.5c0-0.2,0.1-0.3,0.1-0.5c0.4-0.6,0.7-1.3,1.1-1.9c0.6-1,1.1-2.4,0.2-3.1c-0.7-0.6-1.7-0.2-2.5,0.2
	c-0.8,0.4-1.9,1.3-2.5,0.7c-0.4-0.5,0.4-1.3,1-1.7c0.6-0.4,1.4-0.6,1.7-1.2c0.3-0.5,0.1-1.2-0.1-1.7c-0.1-0.3-0.5-0.7-0.7-0.9
	c-0.5-0.4-0.2-1,0.1-1.6c0.3-0.6,0.8-1,1.4-1.3c2.1-1.3,4.6-1.7,7-1.1C179.4,164.5,179.7,164.6,180,164.8z"/>
<path fill="#EAEAEA" stroke="#D6D6D6" stroke-miterlimit="10" d="M117.6,257.5c-0.1-0.5-0.5-1.3-0.5-1.8c0.1-1.1,0.3-2-0.3-3
	c-0.1-0.2-0.3-0.5-0.6-0.6c-0.2-0.1-0.5-0.1-0.7-0.1c-1.8-0.1-3.6-0.7-5.4-0.8c-1.8-0.1-3.8,0.2-5.1,1.6c-0.7,0.7-1.1,1.6-1.6,2.4
	c-0.6,0.8-1.5,1.5-2.4,1.3c-0.7-0.1-1.4-0.6-2-0.4c-0.8,0.3-0.9,1.2-1.3,1.9c-0.4,0.7-1,1.1-1.6,1.7c-1.6,1.6-2.5,3.8-2.9,6
	c-0.4,2.2-0.2,4.5-0.1,6.8c0,0.5,0.1,1.1,0.3,1.5c0.3,0.4,0.7,0.7,1.1,1c2.9,1.8,4.6,4.8,7.9,5.6c0.9,0.2,1.5-0.3,2.3-0.5
	c0.4-0.1,1.4,0.1,1.8,0.2c1.4,0.3,2.2,0.2,3.7,0.1c0.8,0,1.5-0.1,2.2-0.3c1.1-0.4,2.3-0.3,3.3-0.9c1.7-1.1,2.7-3,3.8-4.7
	c0.8-1.2,1-2.8,2.1-3.7c0.5-0.4,1.1-0.6,1.5-1.1c0.3-0.4,0.4-0.9,0.5-1.3c0.4-2.1,0.6-4.2,0.6-6.4c0-0.2,0-0.4-0.1-0.6
	c-0.2-0.4-0.6-0.5-1-0.5c-1.2-0.1-2.5,0.1-3.5-0.5c-0.5-0.3-0.9-0.8-1.3-1.3C118.1,258.6,117.7,258.1,117.6,257.5z"/>
<path fill="none" stroke="#D6D6D6" stroke-miterlimit="10" d="M11.7,315.2c-1.6-3.6,3.3-7.3,6.7-9.3c2.6-1.5,4.6-3.8,7.4-4.9
	c1.9-0.7,3.7-1.3,5.5-2.2c1-0.5,2.1-0.7,3.1-1.1c1.6-0.6,3.1-1.6,4.5-2.6c2-1.4,4.1-2.8,6.1-4.2c0.4-0.2,0.7-0.5,1.1-0.6
	c1.1-0.2,2.3,0.6,3.1-0.1c0.5-0.4,0.8-1.2,1.3-1c0.3,0.1,0.5,0.4,0.8,0.4c0.2,0,0.4-0.2,0.6-0.4c1.1-1.1,2.8-0.9,4.3-0.5
	s2.5,0.2,3.8-0.6c1.1-0.7,2.3-2.3,3.2-3.2c1.7-1.8,4.5-1.6,7-2c4.1-0.6,9.5-2.9,10.2-1.8"/>
<path fill="none" stroke="#D6D6D6" stroke-miterlimit="10" d="M41.1,220.3c-3.8,2.9-7.6,5.9-11.4,8.8c-0.9,0.7-1.9,1.5-2.6,2.4
	c-0.6,0.9-1.1,1.9-1.6,2.8c-3.1,5.9-9.1,9.3-14.8,12.8c-4.9,3-9.7,6.2-14.3,9.7"/>
<path fill="none" stroke="#D6D6D6" stroke-miterlimit="10" d="M93.6,274.4c-5,2.6-10.5,5.7-15.5,8.3c-1.6,0.8-4.4,1-5.6,2.3
	c-3.8,3.9-7.9,5.1-12.8,7.4c-1.3,0.6-2.2,2-3.5,2.7c-1.3,0.7-2.8,0.8-4.2,1.2c-8.5,1.9-15.2,9.3-23.8,10.5c-0.8,0.1-1.7,0.2-2.4,0.5
	c-1.5,0.8-2.2,2.6-3.7,3.6c-0.9,0.6-2.1,0.8-3.1,1.1c-4.1,1.1-7.5,3.8-10.6,6.7c-4.5,4.2-8.6,8.9-12.2,14"/>
<path fill="#EAEAEA" stroke="#D6D6D6" stroke-miterlimit="10" d="M168.4,39.5c-2,0.8-5.1-0.5-5-2.6c0.1-1.9,1.6-2.3,1.7-4.2
	c0-0.6,0-1.2,0-1.7c0.2-1.4,1-2.6,2.1-3.6s2.2-1.8,3.1-2.9c2.6-2.8,3.6-7.1,7-8.8c1-0.5,2.2-0.7,3.4-0.9c1-0.2,2-0.3,3-0.4
	c0.8-0.1,1.7-0.1,2.2,0.5c0.4,0.5,0.3,1.3,0,1.9s-0.8,1.1-1.1,1.7c-0.9,1.8,0,4-0.9,5.7c-0.6,1.2-1.9,1.9-2.9,2.7
	c-1.1,0.9-2,2.2-2.9,3.3c-2.3,2.8-4.9,5.4-7.5,7.9C169.8,38.5,169.2,39.1,168.4,39.5z"/>
<path fill="#EAEAEA" stroke="#D6D6D6" stroke-miterlimit="10" d="M236.8,34.4c-0.2,0.2-0.5,0.3-0.7,0.6c-0.2,0.2-0.3,0.6-0.2,0.8
	c0.1,0.1,0.2,0.2,0.3,0.3c0.6,0.5,1.7,1.1,2.3,0.5c0.8-0.9,2.1-0.8,2.6-1.9c0.4-0.9-1.4-1.2-2.2-1.8c-0.2-0.2-0.5-0.3-0.8-0.1
	c-0.1,0.1-0.2,0.2-0.2,0.3C237.5,33.6,237.2,34,236.8,34.4z"/>
<path fill="#EAEAEA" stroke="#D6D6D6" stroke-miterlimit="10" d="M211.5,20c0.3-0.4,0.2-1.1-0.2-1.6c-0.4-0.6-1.4-0.9-2-0.6
	c-0.5,0.3-0.6,1.2-0.3,1.7C209.5,20.3,211,20.7,211.5,20z"/>
<path fill="#EAEAEA" stroke="#D6D6D6" stroke-miterlimit="10" d="M228.4,54.4c-0.4,0-0.7-0.2-1.1-0.4c-1.5-0.7-3.1-0.9-4.7-1.1
	c-0.6-0.1-1.2-0.1-1.8,0c-1.6,0.3-2.8,2.9-4.2,2.2c-0.9-0.5,0-2.2,0.6-3c0.4-0.5,0.9-0.9,1.2-1.5c0.5-1,0.2-2.3,0.2-3.4
	c0-1.2,1.2-3.3,1.9-2.3c0.4,0.5-0.1,1.2,0.1,1.8c0.2,0.6,0.7,1.1,1.3,1.1c0.4,0,0.7-0.2,1-0.3c1.4-0.8,3.1-2.4,2.8-3.3
	c-0.3-1.2-2.8-1.1-4.5-1.5c-0.9-0.2-1.9-0.4-2.8-0.1c-1.4,0.4-2.2,2.2-1.7,3.5c0.1,0.3,0.3,0.7,0.3,1c0,0.4-0.3,0.7-0.6,1
	c-0.8,0.8-1.3,2.8-2.4,2.4c-0.8-0.2-0.8-1.5-1.3-2.2c-1.1-1.6-1.3-3.5-1.6-5.4c-0.5-4.2-1.1-8.4-0.5-12.5c0-0.2,0.1-0.4,0.2-0.6
	c0.3-0.3,0.8-0.2,1.2-0.4c0.5-0.2,0.7-1,0.6-1.5c-0.1-0.6-0.3-1.2-0.2-1.8c0.1-0.6,0.7-1.2,1.2-1c0.2,0.1,0.4,0.2,0.5,0.4
	c0.7,0.8,1.2,1.7,1.5,2.6c0.3,0.9,0.6,2.1,1.6,2.3c0.9,0.2,1.9-0.7,2.7-0.1c0.6,0.4,0.5,1.4,0.9,2c0.5,0.8,1.6,0.8,2.6,1.1
	c1.9,0.4,3.4,2,3.8,3.9c0.1,0.7,0.1,1.5,0.3,2.3c0.3,1.5,1.3,2.8,1.8,4.2c0.5,1.4,0.7,2.8,1.4,4.2c0.7,1.5,2,2.7,3.6,2.7
	c0.5,0,1-0.1,1.4,0.2c0.3,0.3,0.4,0.7,0.5,1.1c0.1,1.1,0.2,2.4-0.7,3c-0.7,0.5-1.7,0.2-2.5-0.2c-0.8-0.4-1.6-0.9-2.4-0.8
	C229.9,54,229.2,54.5,228.4,54.4z"/>
<path fill="none" stroke="#D6D6D6" stroke-miterlimit="10" d="M210.6,20.6c0.2,0.8,0.2,1.3,0.7,1.7c0.4,0.4,0.9,0.6,1.3,0.9
	c0.4,0.3,0,1.4,0.4,1.7"/>
<path fill="#EAEAEA" stroke="#D6D6D6" stroke-miterlimit="10" d="M326.3,43.4c-0.2-0.2-0.4-0.2-0.6-0.3c-1.5-0.4-3.6,0.1-4.5-1.2
	c-0.5-0.6-0.6-1.4-1.3-1.8s-1.5-0.6-2-1.2c-0.6-0.6-0.9-1.4-1.3-2.2c-0.4-0.7-1.2-1.4-2-1.4c-1,0.1-1.5,1.1-2.3,1.7
	c-0.5,0.4-1.2,0.6-1.7,1c-0.5,0.4-0.9,1-1.2,1.5c-1.3,2.1-2.6,4.2-3.5,6.5c-0.9,2.3-1.4,5.8-0.9,7.3c0.2,0.7,2-1,2.3-0.3
	c0.5,1,0.8,2.9,2.6,3.6c1.4,0.6,2.9,1.1,4.4,1.4c1.1,0.2,2.4,0.3,3-0.6c0.4-0.7,0.2-1.6-0.2-2.3c-0.4-0.7-1-1.4-1.1-2.2
	c-0.2-0.9,0.1-1.9,0.8-2.5c0.7-0.6,1.7-0.8,2.6-0.5c0.3,0.1,0.6,0.3,0.9,0.3c0.3,0,0.7-0.2,0.9-0.4c2-1.3,3.8-3.1,5.1-5.2
	C326.4,44.4,326.7,43.8,326.3,43.4z"/>
<path fill="none" stroke="#D6D6D6" stroke-miterlimit="10" d="M326.5,43.8c1.7-0.5,3.6,0.2,4.9,1.3c1.3,1.2,2.2,2.8,2.9,4.4
	c0.3,0.6,0.5,1.3,1.1,1.7c0.7,0.5,2-0.4,2.6,0.2c0.6,0.6,0.9,1.4,1.7,1.3c0.8-0.1,1.6-0.5,2.5-0.4c1.1,0.2,1.7,1.4,2.5,2.1
	c1.4,1.3,3.5,1.6,5.3,1.2c2-0.4,3.7-1.5,5.7-2.2c1.9-0.7,4.2-0.8,5.8,0.5c0.4,0.3,0.7,0.7,1.2,0.8c1.3,0.4,2.4-1.3,3.7-1
	c1.1,0.3,1.3,1.7,2.1,2.5c1.2,1.4,3.6,0.9,5.2,1.8c2,1.1,3.3,6.1,4.9,4.5c0.1-0.1-0.1-0.3-0.1-0.5"/>
<path fill="#FFFFFF" stroke="#4E9BD7" stroke-miterlimit="10" d="M174.7,168.2c-0.4-0.3-0.9-0.4-1.3-0.1c-0.4,0.3-0.6,0.8-0.4,1.3
	c0,0.1,0.1,0.2,0.1,0.2c0.1,0.3,0.3,0.6,0.4,0.9c0.1,0.3,0.3,0.6,0.6,0.5c0.2,0,0.3-0.2,0.4-0.3c0.3-0.4,0.5-0.8,0.6-1.2
	S175.1,168.5,174.7,168.2z"/>
<path fill="#FFFFFF" stroke="#D6D6D6" stroke-miterlimit="10" d="M213.2,31.5c0.1,0.5,0.9,0.7,1.4,0.5c0.5-0.2,0.7-1,0.3-1.4
	c-0.3-0.3-0.8-0.4-1.2-0.2C213.4,30.6,213.1,31.1,213.2,31.5z"/>
<path fill="#FFFFFF" stroke="#D6D6D6" stroke-miterlimit="10" d="M217.7,37.5c0.1-0.1,0-0.2,0.1-0.3c0.3-0.7,0.9-1.3,1-2.1
	c0-0.2,0.1-0.5-0.1-0.6c-0.1-0.1-0.2-0.1-0.3-0.2c-0.4-0.1-0.8-0.2-1.2-0.3c-0.2,0-0.3,0-0.4,0.1c-0.1,0.1-0.1,0.2-0.1,0.2
	c-0.1,0.6-0.2,1.2-0.1,1.8C216.6,36.8,217.2,37.9,217.7,37.5z"/>
<path fill="#FFFFFF" stroke="#D6D6D6" stroke-miterlimit="10" d="M222.5,39.4c0.2,0.2,0.4,0.3,0.5,0.5c0.1,0.2,0.6,0,0.7-0.2
	c0.2-0.2,0.2-0.5,0.3-0.8c0.1-0.6-0.4-1.2-0.1-1.8c0.3-0.6,1.2-1,0.8-1.5c-0.5-0.7-1.7-0.2-2.4,0.3s-1.7,1.8-1,2.2
	c0.3,0.2,0.6,0.2,0.7,0.4C222.2,38.9,222.3,39.2,222.5,39.4z"/>
<path fill="#FFFFFF" stroke="#D6D6D6" stroke-miterlimit="10" d="M226.4,40.4c0-0.1,0-0.2-0.1-0.2c-0.1-0.1-0.1-0.1-0.2-0.1
	c-0.8-0.1-1.9,0.7-1.5,1.4c0.2,0.4,0.9,0.3,1.3,0.1C226.2,41.3,226.5,40.8,226.4,40.4z"/>
<path fill="#FFFFFF" stroke="#D6D6D6" stroke-miterlimit="10" d="M226.7,46.9c0,0.1,0,0.2,0.1,0.3c0.1,0.1,0.2,0.1,0.3,0.2
	c0.2,0.1,0.4,0.2,0.6,0.3c0.2,0.1,0.5,0.2,0.7,0c0.1-0.1,0.1-0.2,0.1-0.3c0.1-0.4,0.1-0.8,0.1-1.1s-0.4-0.7-0.8-0.8
	c-0.3,0-0.7,0.2-0.9,0.5C226.8,46.2,226.7,46.6,226.7,46.9z"/>
<path fill="#FFFFFF" stroke="#D6D6D6" stroke-miterlimit="10" d="M223.9,51.2c-0.2-0.2-0.2-0.4-0.2-0.6c0.1-0.7,0.6-1.2,1.3-1.3
	s1.4,0.4,1.6,1c0,0.1,0.1,0.2,0,0.2c0,0.2-0.3,0.3-0.4,0.3c-0.4,0.1-0.9,0.3-1.3,0.4C224.6,51.3,224.1,51.4,223.9,51.2z"/>
<text transform="matrix(1 0 0 1 101.1292 130.7719)"><tspan x="0" y="0" fill="#585858" font-family="'Verdana-Italic'" font-size="8">Skelton Lakes</tspan><tspan x="0" y="9.6" fill="#585858" font-family="'Verdana-Italic'" font-size="8">(upper)</tspan></text>
<text transform="matrix(1 0 0 1 127.164 158.7072)"><tspan x="0" y="0" fill="#7BBCEB" font-family="'Verdana-Italic'" font-size="8">Skelton Lakes</tspan><tspan x="0" y="9.6" fill="#7BBCEB" font-family="'Verdana-Italic'" font-size="8">(middle)</tspan></text>
<text transform="matrix(1 0 0 1 119.6731 238.3839)"><tspan x="0" y="0" fill="#585858" font-family="'Verdana-Italic'" font-size="8">Skelton Lakes</tspan><tspan x="0" y="9.6" fill="#585858" font-family="'Verdana-Italic'" font-size="8">(lower)</tspan></text>
<text transform="matrix(1 0 0 1 64.9498 65.4682)"><tspan x="0" y="0" fill="#585858" font-family="'Verdana-Italic'" font-size="8">White</tspan><tspan x="0" y="9.6" fill="#585858" font-family="'Verdana-Italic'" font-size="8">Mountain</tspan></text>
<text transform="matrix(1 0 0 1 128.1568 19.2742)"><tspan x="0" y="0" fill="#585858" font-family="'Verdana-Italic'" font-size="8">Big Horn</tspan><tspan x="16.1" y="9.6" fill="#585858" font-family="'Verdana-Italic'" font-size="8">Lake</tspan></text>
<text transform="matrix(1 0 0 1 239.2992 46.2743)"><tspan x="0" y="0" fill="#585858" font-family="'Verdana-Italic'" font-size="8">Finger</tspan><tspan x="0" y="9.6" fill="#585858" font-family="'Verdana-Italic'" font-size="8">Lake</tspan></text>
<text transform="matrix(1 0 0 1 273.5462 42.6075)"><tspan x="0" y="0" fill="#585858" font-family="'Verdana-Italic'" font-size="8">Spuller</tspan><tspan x="9.4" y="9.6" fill="#585858" font-family="'Verdana-Italic'" font-size="8">Lake</tspan></text>
<path fill="none" d="M63,227.2c4.3-1.1,9.8-19.5,14.7-29.3c3.3-6.5,6.6-13.1,11.9-18.1c3.4-3.2,7.4-5.7,11.3-8.3"/>
<text transform="matrix(0.4687 -0.8834 0.8834 0.4687 81.4031 196.2341)"><tspan x="0" y="0" fill="#7D7D7D" font-family="'Verdana-Italic'" font-size="7">1</tspan><tspan x="4.3" y="0" fill="#7D7D7D" font-family="'Verdana-Italic'" font-size="7" rotate="2.8">1</tspan><tspan x="8.6" y="0.2" fill="#7D7D7D" font-family="'Verdana-Italic'" font-size="7" rotate="7.2">2</tspan><tspan x="12.7" y="0.7" fill="#7D7D7D" font-family="'Verdana-Italic'" font-size="7" rotate="13.3">0</tspan><tspan x="16.8" y="1.6" fill="#7D7D7D" font-family="'Verdana-Italic'" font-size="7" rotate="20.7">0</tspan></text>
<path fill="none" d="M20.2,134.9c8.2-0.2,16.3-2.6,24.1-5c3.4-1,6.9-2.1,10.3-3.1c3.9-1.2,7.9-2.4,10.8-5.3"/>
<text transform="matrix(0.9676 -0.2524 0.2524 0.9676 33.8509 135.4968)"><tspan x="0" y="0" fill="#7D7D7D" font-family="'Verdana-Italic'" font-size="7">1</tspan><tspan x="4.5" y="0" fill="#7D7D7D" font-family="'Verdana-Italic'" font-size="7" rotate="-1.6">1</tspan><tspan x="9" y="-0.1" fill="#7D7D7D" font-family="'Verdana-Italic'" font-size="7" rotate="-2.2">8</tspan><tspan x="13.4" y="-0.3" fill="#7D7D7D" font-family="'Verdana-Italic'" font-size="7" rotate="-2.2">0</tspan><tspan x="17.9" y="-0.5" fill="#7D7D7D" font-family="'Verdana-Italic'" font-size="7" rotate="-2.2">0</tspan></text>
<path fill="none" d="M207.2,309.2c5.3-1.6,11-1.8,16.5-2c3.6-0.1,7.1-0.2,10.7-0.3c6.8-0.2,14.5-0.8,18.7-6.2"/>
<text transform="matrix(0.9993 -3.813750e-02 3.813750e-02 0.9993 218.2932 309.9724)"><tspan x="0" y="0" fill="#7D7D7D" font-family="'Verdana-Italic'" font-size="7">1</tspan><tspan x="4.4" y="0" fill="#7D7D7D" font-family="'Verdana-Italic'" font-size="7" rotate="0.6">1</tspan><tspan x="8.9" y="0.1" fill="#7D7D7D" font-family="'Verdana-Italic'" font-size="7" rotate="0.6">6</tspan><tspan x="13.3" y="0.1" fill="#7D7D7D" font-family="'Verdana-Italic'" font-size="7" rotate="0.6">0</tspan><tspan x="17.9" y="0.2" fill="#7D7D7D" font-family="'Verdana-Italic'" font-size="7" rotate="-1.9">0</tspan></text>
<path fill="none" d="M31.8,241.3c3.5,2,4.9,6.3,7.4,9.6c2.9,3.9,7.5,6.4,12.3,6.7c6.7,0.5,14.3-2.9,19.7,1.1"/>
<text transform="matrix(0.9236 0.3833 -0.3833 0.9236 43.2722 257.8787)"><tspan x="0" y="0" fill="#7D7D7D" font-family="'Verdana-Italic'" font-size="7">1</tspan><tspan x="5.2" y="-0.1" fill="#7D7D7D" font-family="'Verdana-Italic'" font-size="7" rotate="-15.3">0</tspan><tspan x="9.9" y="-1.5" fill="#7D7D7D" font-family="'Verdana-Italic'" font-size="7" rotate="-26.9">6</tspan><tspan x="14" y="-3.6" fill="#7D7D7D" font-family="'Verdana-Italic'" font-size="7" rotate="-29.3">0</tspan><tspan x="17.6" y="-5.7" fill="#7D7D7D" font-family="'Verdana-Italic'" font-size="7" rotate="-23.3">0</tspan></text>
<path fill="none" d="M180.5,86.8c5,2,12.8,1.2,16.5,5.5c6.6,7.6,16,13,23,20c2,2,1.9,4,3,6"/>
<text transform="matrix(0.7238 0.69 -0.69 0.7238 196.8616 95.9812)"><tspan x="0" y="0" fill="#7D7D7D" font-family="'Verdana-Italic'" font-size="7">1</tspan><tspan x="4.6" y="0" fill="#7D7D7D" font-family="'Verdana-Italic'" font-size="7" rotate="-3.4">1</tspan><tspan x="9.1" y="-0.3" fill="#7D7D7D" font-family="'Verdana-Italic'" font-size="7" rotate="-5.2">2</tspan><tspan x="13.6" y="-0.7" fill="#7D7D7D" font-family="'Verdana-Italic'" font-size="7" rotate="-5.6">0</tspan><tspan x="17.9" y="-1.1" fill="#7D7D7D" font-family="'Verdana-Italic'" font-size="7" rotate="-4.6">0</tspan></text>
<path fill="none" d="M277.2,102.3c-0.1,6.7-4.8,14-1.6,19.9c11.6,21.4,31.3,36.8,39.6,58.6"/>
<text transform="matrix(0.614 0.7893 -0.7893 0.614 284.3919 140.1121)"><tspan x="0" y="0" fill="#7D7D7D" font-family="'Verdana-Italic'" font-size="7">1</tspan><tspan x="4.5" y="0" fill="#7D7D7D" font-family="'Verdana-Italic'" font-size="7" rotate="-0.7">1</tspan><tspan x="8.9" y="-0.1" fill="#7D7D7D" font-family="'Verdana-Italic'" font-size="7" rotate="-1">0</tspan><tspan x="13.4" y="-0.1" fill="#7D7D7D" font-family="'Verdana-Italic'" font-size="7" rotate="-0.9">0</tspan><tspan x="17.8" y="-0.2" fill="#7D7D7D" font-family="'Verdana-Italic'" font-size="7" rotate="-0.3">0</tspan></text>
<path fill="none" d="M210.3,260.8c2.2-6.7,4.8-13.4,7.7-19.9c2.8-6.3,6-12.6,11.1-17.2"/>
<text transform="matrix(0.3651 -0.931 0.931 0.3651 215.888 252.7117)"><tspan x="0" y="0" fill="#7D7D7D" font-family="'Verdana-Italic'" font-size="7">1</tspan><tspan x="4.4" y="0" fill="#7D7D7D" font-family="'Verdana-Italic'" font-size="7" rotate="1.2">1</tspan><tspan x="8.8" y="0.1" fill="#7D7D7D" font-family="'Verdana-Italic'" font-size="7" rotate="2.3">8</tspan><tspan x="13.1" y="0.3" fill="#7D7D7D" font-family="'Verdana-Italic'" font-size="7" rotate="4.2">0</tspan><tspan x="17.4" y="0.6" fill="#7D7D7D" font-family="'Verdana-Italic'" font-size="7" rotate="7.7">0</tspan></text>
<path fill="none" stroke="#585858" stroke-miterlimit="10" stroke-dasharray="18,3,1,3" d="M47.1-2.1c0.8,1.1,1.6,2.2,2.4,3.3
	c13.1,19,17.7,41.3,13.5,63c-1.2,6.5-0.4,11.5,2.5,14.9c2.5,3,6.1,0.7,10.4,2.5c6.6,2.7,7.9,6.6,17.5,11.4c5,2.5,5.1-1.2,6.4-1
	c5.9,1.2,10.1,3,15.6,0c7.2-4,3.6-6.6,18.6-5.8c3.2,0.2,5.8,4.4,9,6c8.5,4.2,18.5-3.6,21.5-7.8c1.6-2.2,1.8,2.1,2.3,4.1
	c1.5,5.1,3.3,10.7,7.3,14.3c4.4,4,10.1,5.2,14.5,8.5c1.8,1.3,2.8,3.8,4,5.7c4.5,7,13.1,8.8,17.9,15.7c1.2,1.7,2.7,4,4.1,5.5
	c1.4,1.6,3.8,2.7,4.9,4.5c1,1.6,1.1,3,2.3,4.4c1.9,2.5,6.1,1.7,8.6,3.6c2.3,1.7,2.6,4.8,2.8,7.6c0.3,4.4,0.5,8.7,0.8,13.1
	c0.2,2.6,0.3,5.3-0.2,7.9c-0.7,3.8-2.1,7.4-3,11.2c-0.8,3.3-1.3,6.7-1.2,10.1c0,1.4,0.2,3.1,1.4,3.8c0.4,0.2,1,0.3,1.4,0.5
	c1,0.5,1.5,1.5,2,2.5c2.5,4.9,6,10.3,11.4,10.9c2.4,0.3,5-0.5,7.2,0.5c1.4,0.6,3.8,0.7,4.8,1.8c2.8,3.4,4.1,8.2,6.5,11.9
	c2.9,4.5,5.7,9.5,7.8,14.4c0.6,1.4,1.3,3,2.6,3.9c0.8,0.6,1.7,0.8,2.7,1.1c3.2,0.9,6.4,1.6,9.7,1.2c2.7-0.4,5.3-1.5,7.9-2.4
	c5-1.8,10.4-2.8,15.7-2.9c2.4-0.1,4.9,0.1,6.7,1.7c0.8,0.7,1.4,1.7,2.5,2c1.4,0.4,2.9-0.6,4-1.6c4.2-3.7,8.4-7.4,12.6-11
	c2.9-2.5,6.2-5.2,10-4.8c1.4,0.1,2.7,0.7,4,1.2c4.3,1.8,6.5,5.6,10.8,7.4c3.7,1.5,7.5,2.7,11.5,3.3c2.8,0.4,5.5-0.6,8.1-1.6"/>
<g>
	<g>
		<polyline fill="none" stroke="#7D7D7D" stroke-miterlimit="10" points="85.2,341.6 85.2,348.7 275.4,348.7 275.4,341.7 		"/>
		<line fill="none" stroke="#7D7D7D" stroke-miterlimit="10" x1="180.5" y1="341.4" x2="180.5" y2="348.7"/>
		<line fill="none" stroke="#7D7D7D" stroke-miterlimit="10" x1="161.2" y1="349.2" x2="161.2" y2="343.7"/>
		<line fill="none" stroke="#7D7D7D" stroke-miterlimit="10" x1="142.4" y1="349.2" x2="142.4" y2="343.7"/>
		<line fill="none" stroke="#7D7D7D" stroke-miterlimit="10" x1="123.3" y1="349.2" x2="123.3" y2="343.5"/>
		<line fill="none" stroke="#7D7D7D" stroke-miterlimit="10" x1="104.6" y1="349.2" x2="104.6" y2="343.7"/>
	</g>
	<text transform="matrix(1 0 0 1 83.7837 339.1468)" fill="#7D7D7D" font-family="'Verdana'" font-size="8">0</text>
	<text transform="matrix(1 0 0 1 174.2948 339.1468)" fill="#7D7D7D" font-family="'Verdana'" font-size="8">0.5</text>
	<text transform="matrix(1 0 0 1 258.3416 339.1468)" fill="#7D7D7D" font-family="'Verdana'" font-size="8">1 mi</text>
</g>
</svg>
