<?xml version="1.0" encoding="utf-8"?>
<!-- Generator: Adobe Illustrator 17.1.0, SVG Export Plug-In . SVG Version: 6.00 Build 0)  -->
<!DOCTYPE svg PUBLIC "-//W3C//DTD SVG 1.1//EN" "http://www.w3.org/Graphics/SVG/1.1/DTD/svg11.dtd">
<svg version="1.1" id="Layer_1" xmlns="http://www.w3.org/2000/svg" xmlns:xlink="http://www.w3.org/1999/xlink" x="0px" y="0px"
	 viewBox="0 0 360 360" enable-background="new 0 0 360 360" xml:space="preserve">
<path fill="none" stroke="#E1E1E1" stroke-miterlimit="10" d="M181.4,372.3c1.6-3.2,3.5-5.3,5.6-8.2c6.7-9.2,12.8-17.2,19-25
	c4.8-6.1,7.1-12.4,12.4-17.7c2.3-2.3,0.5-8.4,3.8-8.9c0.9-0.1,1.8,0.4,2.6,0.5c2.7,0.5,4.9-2.4,5.6-5c0.7-2.7,0.7-5.6,2.4-7.8
	c2.5-3.3,7.7-3.3,11-5.9c2.3-1.8,3.7-4.9,6.6-5.9c1.4-0.5,2.9-0.4,4.3-0.8c1.7-0.5,2.9-1.8,4.1-3.1c5.1-5.6,9.5-11.8,13.1-18.4
	c3.4-6.2,6-12.7,7.7-19.6c0.5-1.9,0.9-3.9,2.4-5.2c0.9-0.8,2.1-1.2,3-2c3.2-2.8,1.3-8.5,3.9-11.8c0.7-0.9,1.8-1.6,2.7-2.4
	c1.2-1.1,2-2.5,2.9-3.9c8.1-13.6,15.3-27.8,21.5-42.3c2.3-5.3,4.4-10.7,6.6-16.1c1.6-3.9,3.1-7.9,4.7-11.8c4.8-12,9.6-24,11.8-36.7
	c1-5.6,1.3-11.4,1.9-17.1c0.1-0.8,0.2-1.5,0.5-2.2c0.7-1.6,2.3-2.5,3.9-3.2c1.8-0.8,3.7-1.4,5.6-1.3c1.9,0.1,3.9,1,4.8,2.8
	c0.3,0.5,0.4,1.1,0.9,1.4c0.5,0.4,1.3,0.4,2,0.5c2.9,0.5,6.2,6.1,7.6,3.6c1.1-1.9-1-4.3-1.5-6.4c-0.2-0.7-0.3-1.4-0.2-2
	c0.2-0.8,0.8-1.5,1.4-2.1c3.4-3.9,5.2-9.2,5-14.3c-0.2-4.9-2.3-9.6-2.8-14.5c-0.1-0.4-0.1-0.9,0.1-1.3c0.4-0.9,1.7-1,2.7-0.7
	s2.1,0.7,3,0.3"/>
<path fill="none" stroke="#E1E1E1" stroke-miterlimit="10" d="M164.2,371.1c3.1-2.9,5.7-6.4,7.6-10.2c0.8-1.8,1.6-3.6,2.6-5.2
	c2.1-3.3,5.6-5.5,7.7-8.8c0.8-1.3,1.4-2.8,2.2-4.1c1.6-2.3,4.2-3.8,6.1-5.9c5.7-6.1,5.2-15.6,7.1-23.8c0.5-2.3,1.3-4.5,2.3-6.6
	c1.5-3.3,3.8-6.6,7.3-7.6c1.3-0.4,2.6-0.4,3.9-0.8c1.3-0.4,2.5-1.3,2.8-2.6c0.2-1.2-0.4-2.3-0.8-3.4s-0.4-2.6,0.6-3.3
	c0.3-0.2,0.6-0.2,0.9-0.3c4.5-1.1,9-2.1,13.4-3.2c7.2-1.7,14.7-5.1,18.7-11.4c3.9-6.3,5.9-13.6,9.8-20c3.3-5.5,8.1-10.3,10.1-16.5
	c0.9-2.7,1.2-5.7,2.8-8c1.4-2,3.8-3.7,3.5-6.1c-0.1-1.4-1.1-2.7-0.6-4c0.3-0.8,1-1.2,1.7-1.7c3.2-2.3,5.8-5.3,8.3-8.3
	c4.6-5.4,9.1-10.9,13.7-16.3c3.2-3.8,6.5-7.9,7.9-12.7c0.9-3.1,0.9-6.4,1.7-9.4c0.9-3.1,2.5-6,3.9-8.9c1.4-3.1,2.5-6.3,3.7-9.5
	c2.7-7.9,5.5-15.7,8-23.7c2.7-8.5,5.1-17.1,5.3-26c0.1-7.3-0.8-15.6,1.9-22.3c0.9-2.2,2.9-4,2.8-6.4c0-1.6-0.2-3.6,1.2-4.2
	c0.6-0.2,1.3-0.1,1.9,0c3.4,0.8,7.3,4.3,10.2,2.4c1.1-0.7-0.8-3.1,0.2-3.8c2.7-1.8,8,3.5,9.5,0.6c0.7-1.4-1.5-2.7-2.3-4
	c-2.7-3.9-4.5-8.5-5.1-13.3c-0.1-0.8-0.2-1.7,0.3-2.4c0.9-1.4,3.6-1.7,3.5-3.4c0-0.5-0.3-0.9-0.6-1.3c-3.1-4.1-6.6-8-10.4-11.4
	c-1.1-1-2.3-2.1-2.7-3.5c-0.4-1.4,0.3-3.3,1.7-3.6c0.6-0.1,1.3,0.1,2,0c1.3-0.3,1.7-2.1,1.3-3.5c-1.1-4.5-6-6.7-10-8.9
	c-8.2-4.6-14.8-12-18.5-20.7c-1-2.4-2.4-5.4-5-5.5"/>
<path fill="none" stroke="#E1E1E1" stroke-miterlimit="10" d="M149.5,370.6c6.8-8.7,13.5-17.3,20.3-26c0.9-1.2,1.8-2.3,3-3.3
	c1.5-1.2,3.3-2,5-3c6.5-3.9,10.3-11.4,11.2-18.9s-7.5-16.2-3.1-22.4c1.1-1.6,4-0.1,5.6-1.1c1.7-1,2.7-3.3,1.7-4.9
	c-0.8-1.3-2.5-1.8-3.5-2.9c-0.6-0.7-0.9-1.7-1.1-2.6c-0.7-2.7-1.5-5.4-2.2-8.2c-0.2-0.7-0.4-1.4-0.2-2c0.2-0.9,1-1.5,1.8-2.1
	c4.8-3.6,10.6-7.3,16.3-5.6c1.6,0.5,3,1.3,4.6,1.5c2.1,0.3,4.5-0.5,6.3,0.6c0.7,0.4,1.2,1.1,1.9,1.5c1.1,0.8,2.5,0.9,3.9,1
	c2.9,0.2,5.8-0.1,8.7-0.7c6.9-1.6,10.1-10.1,12.2-16.9c3.4-11.4-0.1-24.4,5.2-35.1c1.8-3.6,4.5-6.8,6.4-10.4s-0.3-7.7,0.5-11.7
	c1.1-5.8,10.6-5.5,16.6-5.7c2.3-0.1,4.7,0.1,7-0.3c6.6-1.3,10.9-7.6,14.4-13.4c2.9-4.7,5.8-9.5,8.2-14.4c2.3-4.6,4.1-9.4,5.6-14.3
	c4.5-15.1,4.9-31.1,5.4-46.9c0.1-3.5-1.3-6.9-1.8-10.4c-0.3-2.2,0-4.4,0.4-6.6c0.7-4.5,1.5-9,2.2-13.6c0.1-0.8,0.3-1.7,0.4-2.5
	c0.1-0.8,0.3-1.5,0.4-2.3c0.7-4.2,1.4-8.4,2-12.6c0.5-3.3,1-6.6,1.5-9.9c0.1-0.9,0.3-2,1.1-2.5c0.3-0.2,0.8-0.4,1.1-0.5
	c2.8-1.1,4.3-4.3,4.3-7.3c0-3-1.4-5.9-2.9-8.4c-1.8-3-4-5.8-5.7-8.9c-1.4-2.6-2.5-5.5-4.3-7.9c-1.5-2.1-3.4-3.8-5.4-5.4
	c-3.5-3-7.2-5.9-11.1-8.4c-3-2-6.4-4.1-7.1-7.6"/>
<path fill="none" stroke="#E1E1E1" stroke-miterlimit="10" d="M126,372c1-2,1-5,3-7c2-1,5,2,8,1c6-4,10-10,15-16c1-1,3-2,4-3
	c7-9,15.2-15.8,23-25c4.1-4.9-3.4-9.7-6-14c-1.2-1.9-2.3-5-2-7c0.5-3.1,1.9-6,3-9c2.9-8.1-7-6-12-10c-2-1-5-3-7-6c-1-4-2-9-6-12
	c-1-10,4.9-23,17-22c2,0.2,3.9,1.1,5,2c3.8,3.3,5,9.9,11,9c14-2.2,23.7,6.5,37,8c2,0.2,3,0,4.7,0.3c3.4,0.6,5.2-3.7,6.2-6.9
	c0.9-3.3,0.7-6.8,0.5-10.2c-0.6-9.2-1.1-18.4-1.7-27.6c-0.1-1.2-0.2-2.5-1-3.4c-0.7-0.8-1.9-1.1-2.7-1.9c-1-1-1.2-2.6-1.2-4.1
	c-0.2-3.8-0.3-7.5-0.5-11.3c0-1,0-2.1,0.7-2.7c0.6-0.6,1.5-0.6,2.4-0.8c3.9-0.8,6-4.9,8.6-8c5.2-6.2,13.6-8.4,21.4-10.4
	c2.1-0.5,4.2-1,6.3-0.7c3.9,0.7,7,4.4,11,4.3c2.7-0.1,5.1-2,7-3.9c9.6-9.5,16.1-22.2,18.1-35.5c0.5-3.4,0.8-6.9,1-10.4
	c1.7-26.1-10.4-57.3,5.2-78.3c0.5-0.7,1.8-0.3,2.4-0.9c2.4-2.7,0.8-7.5,0.4-11.1c-0.9-8.9-5.4-16.9-9.8-24.7c-0.6-1-1.1-2-1.9-2.8
	c-3.3-3.3-9.8-3-11.7-7.3c-0.3-0.8-0.5-1.6-1-2.3c-1.5-2-5.2-1.5-6.1-3.8c-0.2-0.5-0.2-1.1-0.5-1.6c-0.4-0.8-1.4-1.1-1.9-1.8
	c-1.3-1.5-0.5-4-1.7-5.4"/>
<path fill="none" stroke="#E1E1E1" stroke-miterlimit="10" d="M207.6,233.6c-0.5-0.3-1-0.7-1.4-1.1c-0.5-0.5-0.9-1.1-1.3-1.6
	c-1.3-1.7-3.1-3.1-5.2-3.6c-1.7-0.5-3.6-0.4-5.2,0.4s-2.8,2.3-3.2,4c-0.1,0.4-0.1,0.8,0.1,1.2c0.1,0.2,0.2,0.3,0.4,0.4
	c1.2,0.9,2.7,1.4,4.1,1.8c0.7,0.2,1.4,0.4,2.2,0.6c1.4,0.4,2.8,0.8,4.2,1.2c1.6,0.4,3.2,0.4,4.8,0.2c1.2-0.1,3.1-1,2.5-2
	C209.2,234.3,208.3,234,207.6,233.6z"/>
<path fill="none" stroke="#E1E1E1" stroke-miterlimit="10" d="M45.4,370.8c3.6-8.1,3.9-17.5,0.9-25.8c-0.8-2.3-2-4.6-3.7-6.4
	c-3.5-3.5-8.8-4.2-13.7-4.8c-1.7-0.2-3.7,0.4-5.1-0.6c-1.4-1-0.7-4-2.3-4.7c-1.5-0.7-1.6,2.9-3.1,3.6c-3.5,1.5-6.7-3.6-10.5-3.8
	c-1.1-0.1-2.3-0.1-3.2-0.6c-1.2-0.8-1.7-2.3-1.9-3.8c-0.8-6.5,2.2-12.7,4-19c1.8-6.3,3.7-19.9-2.6-18.4c-2.7,0.6-5.3,0.7-5.8-2.1
	c-0.4-2.7,0.9-5.5,0.6-8.3c-0.2-1.6-1-3-1.5-4.4c-0.7-2.2-0.9-4.5-1.1-6.8c-0.4-4.8-0.7-9.6-1.1-14.3c-0.4-5.4-0.7-11.2,2.1-15.8
	c3.2-5.4,10.3-9,10.5-15.3c0-1.5-0.3-3.2,0.5-4.4c0.7-1,1.9-1.4,3.1-1.8c15.1-4.6,30.7-7.6,46.4-9.1c1-0.1,2.1-0.2,3-0.8
	c0.8-0.5,1.3-1.4,1.9-2.2c2.2-3.5,4.4-7.1,6.5-10.6c1.5-2.5,3.1-5.1,3.3-8c0.1-2.5-0.8-4.9-2-7c-3.7-6.6-10-11.4-16.1-16
	c-2.4-1.8-4.9-3.7-7.3-5.5c-3.3-2.5-6.7-5-10.7-6.2c-3.9-1.1-8.1-0.9-11.8-2.5s-6.6-6.3-4.4-9.6c1.8-2.6,5.7-2.8,8.3-4.5
	c2.9-1.9,4-5.4,5.5-8.5c1.4-3.1,4.8-4.1,7.2-6.5c3.7-3.6,6.2-10.3,11.4-9.9c1,0.1,2,0.3,2.9,0c1.1-0.4,1.9-1.4,2.9-1.9
	c2.6-1.3,6.1,0.8,8.7-0.5c0.7-0.4,1.3-1,1.9-1.6c4.4-5,7.9-10.7,10.5-16.8c1.9-4.5,3.2-9.4,2.6-14.2c-0.7-5.5-3.9-10.3-7.1-14.9
	c-1.2-1.8-2.6-3.6-4.5-4.7c-1.6-0.9-3.6-1.1-5-2.3c-3-2.6-1.6-7.4,0.1-11c2.4-5.1,5.2-10.8,10.5-12.7c2.9-1.1,6.1-0.9,9.1-1
	c9.6-0.5,19.6-5.2,23.4-14c1.5-3.5,2.5-8.1,6.2-9.2c0.7-0.2,1.5-0.2,2.1-0.6c1.3-0.6,0.7-2.3,1.1-3.6c0.5-1.5,2.9-1.4,4.4-2.2
	c0.4-0.2,0.9-0.5,1.2-0.8c0.5-0.6,0.5-1.5,0.5-2.2c0-3.1,0.1-6.2,0.1-9.3"/>
<path fill="none" stroke="#E1E1E1" stroke-miterlimit="10" d="M217.2-13.1c-1.8,4.2-2.6,8.8-2.1,13.4c0.2,1.7,0.5,3.5,1.3,5
	c0.8,1.5,2.1,2.9,3.7,3.5c2.6,0.9,5.3-0.9,8-1.3C232.4,7,235.8,4,240.1,4c1.4,0,2.8,0.4,4.2,0.2c0.7-0.1,1.3-0.4,2-0.5
	c2.4,0,3.4,3.2,5.5,4.5c2.5,1.6,5.8-0.2,8.2-2c0.9-0.7,1.8-1.4,2.4-2.3c2.4-3.3,1.6-8.2,4.1-11.5c1.3-1.8,3.4-3.1,3.6-5.3"/>
<path fill="none" stroke="#E1E1E1" stroke-miterlimit="10" d="M207.5-14c-1.4,1.5-2.2,3.5-3.2,5.3c-3.9,7-11.3,11.8-13.8,19.4
	c-0.8,2.4-1,5-1.2,7.5c-0.2,1.9-0.3,3.9-0.5,5.8c-0.1,1.1-0.2,2.2,0,3.3c0.5,2.8,2.8,4.9,5.4,6c2.6,1.1,5.4,1.2,8.2,1.4
	c0.6,0,1.2,0.1,1.8-0.1c1.8-0.5,2.7-2.6,4.2-3.6c1.6-1.1,3.8-0.8,5.6-1.5c1.3-0.5,2.3-1.5,3.4-2.3c3-2.3,6.8-3.5,10.6-3.5
	c2.9,0,6.1-0.5,8.5,1.1c4.2,2.8,5.2,8.5,5.2,13.5c0,5-0.7,10.3,1.4,14.9c0.3,0.6,0.6,1.1,1,1.5c0.8,0.7,2,0.8,3.1,0.9
	c3.7,0.3,8.5,0.1,9.9-3.4c0.9-2.3-1.8-5.9,0.2-7.3c2.2-1.5,5.1-1.6,6-4.1c1-2.5,0.8-5.2,1.1-7.8c0.3-3.7,1.3-7.4,2.4-11
	c0.4-1.6,1.1-4.9,2.5-4.1c2.3,1.3,0.8,5.9,3.3,6.7c1.4,0.4,2.9-0.1,4.3-0.4c6-1.2,12.6,2.8,14.5,8.6c1.5,4.8,0.1,10,0.7,15.1
	c0.4,3.7,1.9,7.3,2,11.1c0.2,5.6-2.6,11.1-2.1,16.7c0.3,3.5,2,6.9,2.2,10.4c0.2,3.8-1.2,7.5-1.8,11.3c-0.5,3.1-0.6,6.3-0.6,9.5
	c-0.1,8.8-0.2,17.6-0.3,26.3c0,1.3,0,2.6-0.4,3.8c-0.3,1-0.8,1.9-1.2,2.9c-3.7,8.2-4.2,18.4-11.2,24.1c-1.6,1.3-3.7,2.3-5.8,2.1
	c-2-0.3-3.7-1.6-5.6-2.1c-3.8-1-7.7,1.3-11.6,1.8c-6.5,0.7-12.9-3.9-19.3-2.6c-1.6,0.3-3.1,1-4.5,1.7c-3.8,1.7-8.5,2.3-11.5,5.2
	c-0.8,0.8-1.3,3.3-2,4.3c-1.2,1.8-3.7,3.2-5.5,4.6c-3.8,3.2-7.3,5.7-10,9c-7.8,9.4,1.8,21,5,31c1,3,4.8,5.1,7,8c4.7,6.3,6.5,13,6,21
	c-0.1,1-0.9,1.2-2,2c-1.8,1.3-4,1.3-6,1c-7.2-1-13.1-5.6-20-7c-8.1-1.6-10-10.1-15-13c-7-4.1-14-6-20-10c-2-1-5-2-7-1
	c-10,6-8,18-7,28c0,1-1,2-2,3c-3,8,3,18-5,22c-2,2-6,1-8,3c-1,1,0,3,1,5c2,2,4,3,5,6c1,1,2,3,4,3c5,0,9-2,13,1c5,5,10,11,15,16
	s7.4,15.5-1,17c-1,0.2-2.1,0.4-3,0c-3.9-1.6-6-5-9-2c-1,1-1,2-2,3c-4,2-9,2-13,2c-23,3-26,28-30.6,45.6"/>
<path fill="none" stroke="#E1E1E1" stroke-miterlimit="10" d="M187.8-12.7c-0.1,1.6-1.6,2.6-3.1,3.2c-1.4,0.6-3.1,1.1-4,2.4
	c-1.1,1.5-0.7,3.7-1.5,5.4c-1,2.1-3.3,3-5.4,4s-4.3,2.6-4.4,4.9c-0.1,3.1,3.9,5.5,3.2,8.5c-0.2,1-1,1.7-1.5,2.6
	c-2.5,3.5-2.7,8.2-2.7,12.5c-0.1,5.6-0.1,11.3,1.6,16.6c0.7,2.1,1.6,4.2,1.5,6.4c0,1.2-0.4,2.5,0.1,3.6c1.1,2.6,5.3,2.1,7,4.3
	c0.5,0.7,0.8,1.6,1.5,2.1c1.5,0.8,3-0.9,4.5-1.6c2.2-1,5,0.2,6.3,2.3c1.3,2,1.5,4.6,1.4,7c-0.1,1.2-0.2,2.6-1,3.6
	c-0.6,0.8-1.6,1.3-2.3,2.1c-0.6,0.8-0.8,1.9-1,2.9c-0.4,1.9-0.7,3.9-1.1,5.8c-0.7,3.6-1,8,1.9,10.3c2.2,1.7,5.3,1.3,8,0.8
	c2.2-0.4,4.3-0.7,6.5-1.1c1.6-0.3,3.9-0.3,5.5-0.2c5.9,0.3,8.3,4.6,9.3,4.9c1.9,0.6,3.8,1.2,5.7,1.4c2.8,0.2,6.7,0.5,7.9-2
	c0.4-0.8-0.5-2.7-0.2-3.4c1.8-4.2,7.2-5.7,11.1-8.2c1-0.7,2.1-1.3,3.2-1.6c1.2-0.3,2.4-0.3,3.6-0.3c2.3,0,4.7,0,7,0c2.4,0,4.8,0,7-1
	c2.4-1.1,4.1-3.3,6.2-4.9s5.2-2.6,7.3-1c3,2.3,1.6,7.8,4.7,9.9c0.5,0.3,1.1,0.5,1.6,1c1.5,1.3,0.8,3.7,0.6,5.7
	c-0.5,5.4,3.7,10.4,3.4,15.9c-0.2,3.2-1.9,6.2-2.2,9.4c-0.2,1.7,0.1,3.4,0,5c-0.1,2.3-0.8,4.5-1.4,6.6c-1.2,4-2.4,8-3.6,12.1
	c-0.8,2.6-1.6,5.2-2.9,7.5c-1.4,2.3-3.5,4.3-6,5.1c-5.1,1.5-10.2-2.1-15.4-3.2c-2.7-0.6-5.5-0.5-8.1-1.6c-0.7-0.3-1.4-0.7-2.2-0.8
	c-1.1-0.2-2.2,0.1-3.3,0.3c-4.6,0.9-10-1.1-14.6-0.1c-2.1,0.4-4.2,0.6-6.3,0.4c-1.4-0.1-2.9-0.4-3.8-1.4c-2.2-2.3-0.6-7.4-3.6-8.5
	c-0.8-0.3-1.6-0.2-2.4-0.2c-2.4-0.1-4.5-1.3-6.8-1.9c-3.9-1.2-8-0.8-12-0.5c-3,0.3-6,0.5-8.8,1.8c-2,0.9-3.7,2.3-5.4,3.6
	c-3.4,2.7-6.8,5.4-10.1,8.2c-5.1,4.3-10,8.7-14.8,13.3c-2.7,2.5-5.3,5.1-7.5,8c-4.7,6.2-9.1,14.3-6.8,21.8c0.3,1.1,0,2.7,1,3.2
	c0.9,0.5,2.3-0.7,3,0c2.7,2.7,5.5,4.3,8.4,6.9c1.9,1.8-1.1,5.1-3,6.9s-4.2,3.1-6.3,4.7c-7,5.5-10.6,15.1-8.9,23.9
	c0.8,4,2.5,7.9,2.2,11.9c-0.3,4.1-3.9,8.3-7.8,7.3c-1.3-0.3-2.5-1.2-3.8-1.2c-1.3,0-2.4,1-3.4,1.8c-3.9,3.5-10.7,5.3-11.8,10.5
	c-1.1,4.9,4.2,9.3,7.7,12.9c4.6,4.8,12,5.6,17.5,9.4c1,0.7-0.6,2.1-0.7,3.3c-0.1,1.8,2.7,2.2,4.2,1.2c1.5-1,2.6-2.7,4.4-3
	c2.4-0.4,4.5,2.2,4.5,4.6c0,2.4-1.5,4.6-3.1,6.5c-4.7,5.9-10.5,11-16.9,15c-0.9,0.5-1.8,1.1-2.8,1c-0.9-0.1-1.7-0.6-2.5-1
	c-1.8-0.9-3.9-1-5.9-0.9c-4.9,0.2-9.7,1.8-13.7,4.5c-0.8,0.6-1.7,1.3-1.9,2.2c-0.3,1.5,1.1,2.9,1.1,4.5c0,0.9-0.4,1.8-0.8,2.7
	c-3.4,8.4,0.5,18.8-4.1,26.6c-1.6,2.7-4.8,4.9-7.6,3.7c-3.2-1.3-4.4-7.4-7.8-6.6c-3.4,0.8-5.9,3.9-8.4,6.3c-0.9,0.9-1.8,1.8-2.9,2.2
	c-1.4,0.5-2.9,0.3-4.3,0.6s-2.8,1.8-2.2,3.1"/>
<path fill="none" stroke="#E1E1E1" stroke-miterlimit="10" d="M144.7-17.4c1.1,8.2-4.2,16-10.7,21.2c-6.5,5.2-14.2,8.5-20.9,13.5
	c-8.4,6.2-16,15.3-26.5,15.8c-1.7,0.1-3.6,0-4.7,1.3c-0.6,0.7-0.8,1.7-1,2.7c-1.3,9.2,2.4,18.9,9.3,25c2.7,2.4,6,4.5,7.2,7.9
	c1.2,3.5-0.4,7.3-2,10.6c-4.9,10-11,19.8-20.4,25.8c-6.2,4-13.5,6.2-20.2,9.6s-13,8.7-14.6,16c-0.4,1.8-0.5,3.7,0,5.4
	c1.4,4.7,6.4,7.1,10.7,9.3c13.8,7.2,25.4,18.6,33,32.2c2.2,3.9,4,8.7,2.1,12.7c-1,2.2-3,3.7-4.6,5.4c-3.8,3.9-6.3,8.9-9.4,13.3
	c-3.2,4.4-7.4,8.6-12.8,9.4c-4.5,0.7-9-1-13.6-1.7c-7-1-13.3,5.3-20.3,4.3c-1.2-0.2-3.5-0.2-4.3,0.8c-0.8,0.9-1.4,2.2-2.5,2.7
	c-0.4,0.2-1,0.3-1.4,0.6c-1.9,1.3-0.4,4.9-2.3,6.2c-0.6,0.4-1.4,0.4-2.2,0.6c-3.7,0.8-5.1,5.1-5.8,8.8c-0.4,2.2-0.9,4.4-1.3,6.6
	c-0.5,2.4-1,4.9-0.2,7.3c0.3,1,0.8,1.8,1.1,2.8c0.5,1.8,0.2,3.8,0.4,5.7c0.2,1.9,1.1,4,2.9,4.5c0.9,0.3,1.8,0.1,2.7,0.2
	c2.4,0.1,4.6,1.4,6.7,2.7c0.5,0.3,0.9,0.6,1.3,1c0.2,0.3,0.3,0.8,0.4,1.2c0.7,3.5-0.7,7.3,1,10.5c0.4,0.7,0.9,1.4,1.1,2.2
	c0.2,0.6,0.1,1.3,0,1.9c-0.2,1.5-0.5,3.1-0.6,4.6c0,0.8,0.4,2.4,0.1,3.1c-2.2,5.5-2.4,11.2-0.4,16.8c0.5,1.4,0.2,3.3,1.5,4.1
	c12.7,7.1,30,6,34.7,19.8c0.9,2.5,2.2,5.8,4.9,5.5c1-0.1,1.8-0.7,2.5-1.3c4.9-4,7.9-10.3,8.1-16.7c0-1.7-0.1-3.5,0.6-5
	c1.1-2.2,3.7-3.1,5.2-5c1.6-1.9,2-4.8,4.2-6.1c1.3-0.8,2.9-0.8,4.3-1.1c5.7-1.1,5-9.5,10-12.5c3.5-2.1,8.7,1.6,11-1.7
	c2.3-3.3-0.1-9.1-4.2-8.9c-1.1,0.1-2.2,0.5-3.2,0c-1.6-0.7-1.4-3-1.8-4.7c-1.1-4.5-6.7-5.6-11-7.3c-8.6-3.3-14.6-14.4-9.5-22
	c1.9-2.9,5-4.8,6.8-7.8c1.2-2,1.7-4.4,2.9-6.4c1.2-1.9,3-3.4,4.9-4.7c9.4-6.7,20.5-11,32-12.3c4.2-0.5,9.8-2,9.5-6.2
	c-0.2-2.2-2-3.8-3.6-5.4c-9.4-9.4-9.6-25.4-3.3-37.1s17.9-19.7,29.9-25.5c4.9-2.4,10.2-4.6,13.1-9.1c0.7-1.1,1.3-2.3,2.1-3.2
	c3.2-3.7,10.5,1.4,13.8-2.2c1.5-1.6,0-5-1.8-6.2c-1.5-1-3.7-1.4-4.6-2.9c-1-1.5-1.7-3.2-3.2-4.2c-1-0.7-2.3-1-3.4-1.6
	c-2.7-1.6-3.8-5.6-6.9-6.2c-3.8-0.6-6.8,4.5-10.5,3.7c-1-0.2-1.8-0.9-2.6-1.5c-3.5-2.7-7-5.4-10.4-8c-1.4-1-2.7-2.1-3.6-3.6
	c-1.9-3.5-0.3-7.8,1.2-11.5c2.7-7.1,4.4-14.6,5-22.2c0.1-1.2,0.2-2.5,0.5-3.7c0.3-1.1,0.9-2.1,1.3-3.1c2.9-7.6-1.7-16.2,0-24.2
	c0.4-1.7,1.1-3.4,1.4-5.1c0.3-1.8,0.3-3.6,0.4-5.4c0.3-10.5,3.5-21.2,10.6-29c4.3-4.6,9.8-8,13.9-12.7"/>
<path fill="none" stroke="#E1E1E1" stroke-miterlimit="10" d="M149.3-14.2c0,1.8,0,3.7-0.1,5.5c0,0.3,0,0.6,0.1,0.9
	c0.3,0.7,1.3,0.7,1.9,0.3c0.6-0.4,1-1.1,1.4-1.7c1.1-1.8,2.5-3.4,4.2-4.6c0.6-0.5,1.4-1.1,1.3-1.8"/>
<path fill="none" stroke="#E1E1E1" stroke-miterlimit="10" d="M99.7,203.3c4.8-2.7,11.7-4.8,13.8-10.7c5.7-16.1,5.5-35.5,19-47
	c2.7-2.3,6.2-2.7,9-5c2.2-1.8,5.8-5.6,4-8c-6.9-9.1-26.6,0.8-32-11c-2.8-6.1-2-13,1-19c4-8,5.5-16,6-24c0.1-2,0.7-5.2,2-7
	c0.8-1.1,1.8-3.1,3-5c4.3-6.5,6.5-13.1,8-21c2-10.1,6.5-20,7-31c0-1,1.2-0.9,2-2c1.3-1.8,1-3,1-5c0-1,3-4.9-4,0
	c-12.9,9.1-22.8,19.4-37,27c-3.9,2.1-8.4,0.4-12,3c-1.1,0.8-1.4,3-1,5c2.5,13.7,19.8,21,17,36c-1.1,6-4.1,10.9-8,15
	c-8.3,8.8-17.7,14.4-28,22c-2.9,2.1-6.3,2.3-9,4c-1.2,0.7-1.8,1.1-3,3c-0.3,0.5,4,1-3.9,4.5c-4.7,2.1-5.4,7.7-4.1,8.5
	c12.1,7.2,30.2,18.6,40,38c1,2,2.1,5,3,7c6,13.5-4.9,20-12.7,27.7c-3.7,3.6-3.6,7.5-7.5,10.3c-5.1,3.7-12.8,8.3-19.8,10
	c-5,1.2-9-3.9-13-3c-10.9,2.4-20,11.9-21,23c-0.1,1-0.1,3.2,2,4c3.9,1.4,7.4-1.6,11,1c1.1,0.8,2.2,1.8,3,3c8.5,12.6-2.5,29-2,43
	c0.1,3,1.9,7.2,5,8c4.9,1.3,8.4,3.7,13,7c1.8,1.3,4,2.1,5,2c3-0.2,5.4-19.9,7-30c1.4-8.9-2.2-17-1-25c1.7-11.1,12.5-27,14.1-28.4
	c2.1-1.7,3.7-5.3,6-6.7c1.1-0.7,2.4-1.3,3.4-2.2c1-0.9,1.7-2,2.3-3.1C91.9,215,93.5,206.8,99.7,203.3z"/>
<path fill="none" stroke="#E1E1E1" stroke-miterlimit="10" d="M53.8,240.4c-0.1,0.5-0.1,0.9,0,1.4c0.2,0.9,1.1,1.5,1.9,1.7
	c0.3,0.1,0.6,0.2,0.9,0.1c0.5-0.1,1-0.4,1.4-0.7c2.2-1.8,4.4-3.6,5.9-6c1-1.7,1.6-3.6,3-5c0.7-0.7,1.5-1.2,2.1-2
	c0.8-0.9,2.1-2.4,1.3-3.2c-1.4-1.5-3.9,1.5-5.8,2.2c-1.6,0.6-3.4,0.6-5,1.2c-0.8,0.3-1.6,0.7-2.4,1c-1.1,0.4-2.4,0.4-3.4,1
	s-1.7,2.2-0.8,3c0.3,0.3,0.7,0.4,0.9,0.7c0.3,0.3,0.3,0.8,0.4,1.3C54,238.3,53.9,239.4,53.8,240.4z"/>
<path fill="none" stroke="#E1E1E1" stroke-miterlimit="10" d="M102.3,183.6c0.6,1.4,3.1,0,4.3-0.8c1.2-0.8,1.4-2.7,2.5-3.6
	c0.8-0.6,1.8-0.7,2.6-1.3c0.8-0.6,1.2-1.5,1.6-2.4c1.3-3,2.6-6,3.9-9c0.3-0.8,0.7-1.6,0.7-2.4c0-0.8-0.3-2.2-1.2-2.1
	c-4,0.4-6.8,4.8-7.9,8.7c-0.2,0.6-0.3,1.2-0.6,1.7c-0.4,0.6-1.2,1-1.9,1.2c-1.8,0.6-4,1.3-4.5,3.2
	C101.2,179.1,101.4,181.5,102.3,183.6z"/>
<path fill="none" stroke="#E1E1E1" stroke-miterlimit="10" d="M66.5,131c0.2-0.7,0.4-1.5,0.2-2.3s-0.8-1.5-1.5-1.5
	c-0.7,0-1.3,0.6-1.7,1.2c-2.3,2.8-6.6,4.9-6.9,8.5c-0.1,1.2,2.1,1.2,3.3,1.5c1.5,0.3,2.7,2.5,4.2,2.1c1.1-0.3,0.6-2.3,0.9-3.4
	c0.4-1.4,0.8-2.8,1.1-4.2C66.1,132.3,66.3,131.7,66.5,131z"/>
<path fill="none" stroke="#E1E1E1" stroke-miterlimit="10" d="M124.2,45.3c0-3.6,2.5-6.7,4.4-9.7c1.4-2.3,2.5-4.9,3.3-7.5
	c0.2-0.6,0.3-1.2,0.2-1.8c-0.2-1.7-2.3-2.6-3.9-2.3c-1.7,0.3-3,1.5-4.3,2.6c-6.5,5.4-13.8,9.8-21.7,12.9c-1.9,0.8-4.3,2-4.2,4.1
	c0,0.7,0.4,1.4,0.8,2.1c2.3,4,4.6,8,6.9,12c0.8,1.5,1.7,3,1.9,4.7c0.1,0.9,0,1.7,0.3,2.6c0.7,2.2,3.6,3.2,5.8,2.4
	c2.2-0.8,3.7-2.8,4.7-4.9c1-2.1,1.6-4.4,2.8-6.4c1.2-2.1,3-3.9,3.3-6.3C124.6,48.2,124.2,46.8,124.2,45.3z"/>
<path fill="none" stroke="#E1E1E1" stroke-miterlimit="10" d="M117.3,42c-1.7-1.7-4.8,0-7.2,0.5c-1.8,0.4-3.8,0.1-5.3,1.1
	c-0.7,0.4-0.1,1.5,0.4,2.2c1.5,2.2,4.7,5.6,6.7,3.9c1.4-1.2,1.2-3.7,2.7-4.7c0.6-0.4,1.3-0.7,1.8-1.1S117.8,42.5,117.3,42z"/>
<path fill="none" stroke="#E1E1E1" stroke-miterlimit="10" d="M-12,113.3c0.6,0.1,1.2,0.2,1.7,0.4c1.4,0.5,2.6,1.6,4,2.3
	c4.2,2.4,9.3,2.2,14.1,2c1.6-0.1,3.2-0.2,4.8-0.3c2.4-0.1,5-0.4,6.5-2.3c1.5-1.9,1.2-4.7,2.5-6.7c2.4-3.6,8.3-2.4,11.5-5.3
	c2.3-2.1,3.1-6.1,6.2-6.7c1.3-0.2,2.6,0.3,3.9,0.1c3-0.5,4-4.4,6.5-6.1c1-0.7,2.1-1,3.2-1.5c3.8-1.8,6.2-5.6,7.2-9.7
	s0.6-8.3-0.1-12.4c-0.2-1.2-0.4-2.4-1.2-3.3c-0.7-1-1.8-1.5-2.9-2.1c-3.2-1.6-5.9-4.6-9.5-4.8c-1.8-0.1-3.7-0.9-4.3-2.5
	c-0.6-1.7-0.3-3.5,0.1-5.2c0.9-4.4,2.1-8.7,3.4-12.9c1.1-3.4,2.6-7,5.8-8.4c1.2-0.5,2.6-0.7,3.6-1.5c1-0.9,1.4-2.3,2-3.6
	c2.5-5.2,9.4-6.2,15.2-5.6c2.6,0.3,5.8,0.5,7.3-1.7c0.4-0.6,0.6-1.2,1-1.8c1.4-2.1,5.3-0.1,7.1-2c1.4-1.6,0.9-4.3,2.8-5.2
	c1.5-0.7,3.2-0.6,4.8-1.2c3.2-1.3,4.3-5.3,5-8.7c0.8-4,1.6-8,2.4-11.9"/>
<path fill="none" stroke="#E1E1E1" stroke-miterlimit="10" d="M-9.9,230.6c1-2.4,2.2-4.8,3.8-7.2c3.5-5.2,7.6-10.6,8-17
	c0.2-3.2-1.2-6-1.5-9.1c-0.2-1.6-0.6-2.6-3.6-4.8c-4.2-3.1-7.3-5.9-9.8-6"/>
<path fill="none" stroke="#E1E1E1" stroke-miterlimit="10" d="M31.7,370.7c2.8-4-1-9-3.5-12.1c-3.1-3.9-6.4-7.8-10.2-11.1
	c-7.8-6.9-22.5-3.3-27.5-12.1c-2.8-4.9,2.8-10.8,3.7-16.4c0.8-5.2,2.1-11.4,1.6-16.7c-0.4-4-4-1.9-6.4-3.2"/>
<path fill="none" stroke="#E1E1E1" stroke-miterlimit="10" d="M-11.5,87c2-1.7,4.2-3.4,6.8-3.5c2-0.1,4.2,0.9,6.1-0.1
	c1.6-0.9,2.3-3,3.9-3.8c2.6-1.3,5.5,1.6,6.2,4.5c0.7,2.9-0.4,7.2,2.3,8.4c6.4,3,14-2.6,19.8-6.5c2-1.4,4-3.1,4.7-5.5
	c1-3.6-1.7-7.4-5-9.1s-7.1-2.1-10.8-2.7c-1.3-0.2-2.8-0.8-2.9-2c-0.1-0.5,0.1-1,0.3-1.5C28.1,43,36.5,20.5,50.6,1.5
	c1.7-2.3,3.8-4.6,6.6-4.8c2-0.1,3.9,1,5.8,0.8c6.1-0.5,7.5-11.6,13.6-10.9"/>
<path fill="none" stroke="#E1E1E1" stroke-miterlimit="10" d="M13.7,371.2c-4.9-10.2-14-18.3-24.6-22.1c-0.8-0.3-1.6-0.5-2.4-0.9"/>
<path fill="none" stroke="#E1E1E1" stroke-miterlimit="10" d="M-11.6,68.1c0.3-0.2,0.6-0.4,0.9-0.6C-8,66-5,64.9-2.4,63.1
	c2.8-2,5-4.8,7-7.6c10.6-14.8,19-31.1,24.9-48.3C32.3-1.1,36.3-11,45-12"/>
<path fill="none" stroke="#E1E1E1" stroke-miterlimit="10" d="M-10.8,26.6C-0.1,15.5,6,0.8,11.8-13.6"/>
<path fill="none" stroke="#E1E1E1" stroke-miterlimit="10" d="M203.6,374c-0.6-2.9,1.3-6.1,3.4-6.9c9.7-3.8,15.4-10.7,21-19
	c3.3-4.8,6-8,9-13s1.1-12.9,5-16c7.2-5.8,14.5-10.3,19-18c1.8-3.1,5.1-2.9,8-5c17.7-13.1,21.8-33.5,32-52c1.1-2,1-4,1-6
	c0-1-1.3-2.1-1-3c5.9-16,19.2-26.9,25-43c6.2-16.9,12-32.1,16-45.2c0.7-2.2,4.7-5.1,4.8-5.4c1.1-2.1,1.2-4.6,1.4-7
	c0.4-5.1,1.2-10.1,2.4-15c0.4-1.6,0.8-3.1,1.5-4.5c1.2-2.2,3.1-3.9,5-5.6c1.2-1.1,2.5-2.2,3.7-3.3c0.4-0.3,0.8-0.7,1.3-0.9
	c1.3-0.5,2.7,0.4,3.9,1c3.2,1.6,7.2,1.2,10.1-0.9"/>
<path fill="none" stroke="#E1E1E1" stroke-miterlimit="10" d="M230.1,373.4c1.8-3.5,3.6-7,6.3-9.8c4.3-4.5,6.4-9.7,10.1-14.7
	c3.3-4.5,6.6-7.5,10.9-10.9c3.3-2.6,7.3-3.9,9.3-7.6c3.7-6.7,7.4-13.5,11-20.2c3.2-5.9,6.6-12,11.9-16.2c2.2-1.8,4.8-3.2,6.3-5.6
	c1.9-3,2.5-7.7,6-8.4c1.6-0.3,3.6,0.3,4.8-0.8c1.7-1.7-0.2-5.1,1.5-6.8c0.7-0.6,1.6-0.7,2.4-1.2c1.1-0.7,1.6-2.1,2-3.4
	c2.2-7,1.3-16,6.6-21.1c5.6-5.4,9.7-10.6,15-16.4c3.4-3.8,6.8-7.4,7.9-12.4c3.5-15.7,8-31.1,13.5-46.2c2.1-5.7,4.9-16.7,10.4-14.2
	c1.4,0.6-0.1,4.1,1.5,4.4c2.4,0.4,3.1-3.8,4.6-5.7"/>
<path fill="none" stroke="#E1E1E1" stroke-miterlimit="10" d="M251.6,372.8c1.5-10.1,12-15.7,18.2-23.8c1.6-2.1,4.4-3.1,5.8-5.4
	c0.8-1.3,1.3-2.6,2.1-3.8c0.9-1.5,2.1-2.7,3.3-4c2.9-3.1,5.8-6.1,8.7-9.2c2.8-3,5.6-6,7.6-9.6c2.4-4.6,3.8-10.4,8.6-12.4
	c2.3-1,5-0.7,7.5-0.6c2.5,0.2,5.2,0.3,7.4-0.9c2.2-1.2,1.3-4.1,2.5-6.3c2.5-4.4,9.5-3.7,12.6-7.7c2.2-3,4.4-6.6,8-7.3
	c3-0.6,6,1,8.9,2c4.2,1.6,8.8,2.1,13.2,1.6c0.9-0.1,1.7-0.3,2.5-0.7c1.7-1,2.2-3.1,3.1-4.9c1.2-2.3,3.3-4.2,5.7-5.1"/>
<path fill="none" stroke="#E1E1E1" stroke-miterlimit="10" d="M273.4,107.8c-0.8-0.2-1.4-0.8-2.1-1.4c-3.5-3-8.1-4.6-12.7-4.6
	c-0.6,0-1.2,0-1.8,0.3c-0.6,0.3-1.1,0.7-1.7,1.1c-2,1.3-4.5,1.8-6.3,3.3c-1.6,1.3-2.5,3.3-2.9,5.3c-0.4,2-0.3,4.1-0.2,6.2
	c0.1,1.9,0.2,3.8,0.7,5.7c0.7,2.6,2.1,4.9,2.5,7.5c0.1,0.9,0.1,1.8,0.4,2.7c0.3,1.3,1,2.4,1.7,3.5c2.3,3.4,5,6.4,8.2,9
	c2.1,1.7,4.5,3.2,7.1,3.5c2.7,0.3,5.7-1,6.6-3.5c0.3-0.7,0.4-1.5,0.4-2.3c0.2-1.9,0.4-3.8,0.6-5.7c0.1-1,0.2-2-0.2-2.9
	c-0.2-0.6-0.7-1.1-0.8-1.7c-0.3-1.3,0.8-2.4,1.6-3.4c1.9-2.3,2.8-5.3,3.1-8.3s0-6-0.2-9c-0.2-1.9-0.7-4.3-2.5-4.9
	C274.5,107.9,273.9,107.9,273.4,107.8z"/>
<path fill="none" stroke="#E1E1E1" stroke-miterlimit="10" d="M257.8,122.5c0.2,1,0,2,0.3,3c0.2,1,0.8,1.9,1.3,2.7
	c1.4,2.1,2.7,4.2,4.1,6.3c0.5,0.7,1,1.5,1.9,1.7c1.1,0.2,2.1-0.7,2.4-1.8s0-2.2-0.2-3.2c-0.3-1.1-0.6-2.2-0.3-3.2
	c0.2-0.9,0.8-1.7,1.3-2.5c1.1-1.8,1.8-3.9,1.5-5.9c-0.5-3.1-3.2-5.3-6.1-6.4c-0.9-0.3-1.8-0.6-2.7-0.5c-1.6,0.1-3,1.1-3.7,2.5
	c-0.8,1.4-0.9,3.1-0.5,4.6C257.2,120.7,257.7,121.6,257.8,122.5z"/>
<path fill="none" stroke="#D6D6D6" stroke-miterlimit="10" d="M315.5,355.2c3.1,0.1,5.5-2.4,7.8-4.4c3.1-2.7,6.6-4.8,10.1-6.8
	c0.7-0.4,1.4-0.8,2.2-1c0.7-0.1,1.5,0,2.3-0.3c1.5-0.5,2-2.3,2.8-3.7c0.8-1.4,2-2.5,3.4-3.2c0.6-0.3,1.3-0.5,1.9-1
	c0.8-0.7,1.3-1.7,1.8-2.6c2.6-4.6,7.8-7.7,13.1-7.8c0.9,0,1.9,0,2.8-0.4c1-0.6,1.5-1.7,1.9-2.8c1.2-3.4,2.5-6.9,3.7-10.3
	c0.5-1.3,0.9-2.6,1.6-3.9c1.3-2.4,3.2-4.5,5.5-5.9"/>
<path fill="none" stroke="#D6D6D6" stroke-miterlimit="10" d="M160,265.1c4-0.1,6.7,2.2,9,4.9c2.7,3.3,7,2.4,11,3c7.2,1,14,2.7,20,8
	c6.2,5.5,13,9.5,20.1,11c0.9,0.2,1.3,0.8,1.7,1.7c0.3,0.9,0.3,1.8,0.2,2.7c-0.4,5.9-0.3,10.3-0.3,15.6c0,3.9,8,4.6,22.2,14.5
	c3.3,2.3,6.7,4.3,9.6,7c5.7,5.2,9.8,12.1,16.3,16.1c0.8,0.5,1.6,0.9,2.5,1.3c3.3,1.2,6.9,0.6,10.4,1.4c1.3,0.3,2.6,0.8,3.5,1.8
	c1.3,1.5,1.3,3.7,0.8,5.6c-0.5,1.9-1.6,3.6-2.3,5.5c-0.9,2.5-1.3,5.1-1.6,7.8"/>
<path fill="#7BBCEB" stroke="#4E9BD7" stroke-miterlimit="10" d="M200,172.2c-0.1-1.3,0.1-2.6-0.9-3.3c-0.4-0.3-1-0.4-1.3-0.8
	c-0.7-0.8-0.3-2-0.5-3c-0.4-2.1-3.4-2.6-4.3-4.6c-0.1-0.3-0.2-0.6-0.4-0.9c-0.3-0.4-0.8-0.6-1.3-0.7c-1.6-0.6-3.5-1.1-4.8-0.1
	c-0.4,0.3-0.7,0.6-1.1,0.6c-0.4,0-0.7-0.4-1.1-0.4c-0.2,0-0.5,0.1-0.6,0.3c-1.8,1.4-2.5,3.6-4.6,4.4c-0.7,0.2-2,0.2-2.7,0.5
	c-1.1,0.4-2,1.2-2.9,2c-2.2,2-2.3,1.8-4.2,4.1c-0.5,0.6-2,4.3-2.4,4.9c-0.6,0.7-1.9,1-2.3,1.8c-0.8,1.2-0.9,3-1.4,4.3
	c-0.5,1.3-1.5,2.2-2,3.5c-0.5,1.3-1.1,2.6-1.2,3.9c-0.3,4,3.1,8.1,6.7,9.9c0.6,0.3,4,2.2,4.2,2.7c1.3,2.3,2.4,2.5,5.2,2
	c0.5-0.1,2.8,0.2,3.6,0.7c1.7,1,3.8-0.4,5.7,0.1c1.3,0.3,2.6,1.3,3.8,0.6c0.4-0.2,1.3-0.7,1.5-1.1c1.7-3.9,3-7.7,5.4-11.2
	c2.2-3.2,3.2-7.1,3.9-10.9C200.3,178.4,200.2,175.3,200,172.2z"/>
<path fill="#EAEAEA" stroke="#D6D6D6" stroke-miterlimit="10" d="M197.9,87.7c-0.4-0.3,0.2-1,0.1-1.5c-0.1-0.6-0.1-1.1-0.1-1.7
	c0.1-0.7-0.2-1.5-0.9-1.5c-0.5,0-0.8,0.5-1.2,0.7c-0.6,0.3-1.3,0.1-2,0.2s-1.5,0.5-1.4,1.1c0.1,0.4,0.4,0.6,0.6,0.9
	c0.9,1.2-0.1,3.1,0.7,4.5c0.4,0.6,1,0.9,1.6,1.2c0.8,0.4,1.6,0.7,2.4,0.8c0.7,0,1.4-0.2,2-0.5c1-0.3,2-0.8,2.3-1.8
	c0.3-1-0.4-2-1.2-2.8c-0.2-0.2-0.4-0.4-0.6-0.4c-0.2,0-0.3,0-0.5,0.1C199.3,87.2,198.5,88.1,197.9,87.7z"/>
<path fill="#EAEAEA" stroke="#D6D6D6" stroke-miterlimit="10" d="M201.1,75.4c0.6,0.1,1.2-0.3,1.5-0.8c0.3-0.5,0.4-1.2,0.5-1.8
	c0.2-0.8,0.3-1.9-0.4-2.4c-0.4-0.3-1-0.3-1.5-0.1s-0.8,0.6-1.2,1c-0.6,0.8-1.2,1.9-0.7,2.8c0.2,0.3,0.5,0.5,0.7,0.8
	C200.4,75.1,200.7,75.3,201.1,75.4z"/>
<path fill="#EAEAEA" stroke="#D6D6D6" stroke-miterlimit="10" d="M203.4,64.4c-0.7-0.2-1.7,0-1.8,0.8c-0.1,0.7,0.4,1.6,1.1,1.8
	c0.7,0.2,1.1-1.2,1.1-1.9c0-0.2,0-0.4-0.2-0.6C203.7,64.4,203.5,64.4,203.4,64.4z"/>
<path fill="#EAEAEA" stroke="#D6D6D6" stroke-miterlimit="10" d="M204.9,58c0.1,0.3,0.2,0.5,0.4,0.7c0.4,0.3,0.9-0.1,1.2-0.4
	c0.9-1.1,1.5-2.9,0.7-4.1c-0.4-0.6-1.4-0.5-1.9,0s-0.8,1.2-0.8,1.9C204.5,56.7,204.7,57.4,204.9,58z"/>
<path fill="none" stroke="#D6D6D6" stroke-miterlimit="10" d="M197.4,83.2c1.7-2.3,1.3-5.6,2.5-8.3"/>
<path fill="none" stroke="#D6D6D6" stroke-miterlimit="10" d="M202.1,70.1c0.4-0.7,0.5-1.9,0.8-2.8"/>
<path fill="none" stroke="#D6D6D6" stroke-miterlimit="10" d="M203.5,64.4c0.4-0.7,0.5-1.6,0.7-2.3c0.2-0.8,0.4-2.9,1.1-3.3"/>
<path fill="none" stroke="#D6D6D6" stroke-miterlimit="10" d="M206.8,53.7c0.5-3.3,0.8-7.2,0-10.4c-0.2-1.1-0.6-2.3-1.3-3.2
	c-0.4-0.5-0.9-0.9-1.3-1.5c-0.9-1.4-0.7-3.2-0.8-4.8c-0.1-2.3-0.8-4.6-2-6.6c-0.9-1.4-1.7-4.3-2.1-5.2"/>
<path fill="none" stroke="#4E9BD7" stroke-miterlimit="10" d="M197.9,188.9c1.1,1.2,2.1,2.2,3.1,2.2s3-2,4-2s0.9,0.1,5-1
	c7.9-2.2,15.1,4.6,21,12c0.9,1.1,2.3-1.3,5-2c10-2.4,19.9-2.8,25.3,6.3c0.3,0.5,1.7,3,2.6,3.5c1.9,1.2,0.7,3.7,3.1,6.3
	c2.1,2.3,4.8-0.1,5.1,4.9c0,0.6,1,1.2,2,1c3.1-0.5,6.1-2.1,8-1c3.1,1.8,3.8,6.2,7,9c3.8,3.3,9.1,2.8,13,5c5.1,2.8,11,5,15,10
	c1.4,1.7,3.3,2.8,5,5c3.6,4.6,0.2,12.8,4,16c1.7,1.4,5.3-1.5,7,0c2.7,2.4,1.9,7.5,7,8c1,0.1,1.8,1,2,2c0.5,2.2,1.8,4,2,6
	c0.5,4.1,2.1,7.7,1,12c-3,12.2-13.9,23.2-16.8,35.7c-0.6,2.4-1.9,4.5-3.1,6.7c-1,1.9-2.3,3.6-2.9,5.7c-0.3,1.1-0.4,2.3-0.7,3.5
	c-0.4,1.7-1.2,3.2-2,4.7c-1.8,3.4-3.6,6.9-6.3,9.7c-1.1,1.2-2.3,2.2-3.4,3.4c-2.8,3.1-4.6,7.1-5,11.3"/>
<path fill="none" stroke="#D6D6D6" stroke-miterlimit="10" d="M173.4,87.6c-0.9-1.8-0.3-4.1,0.7-5.9c1-1.8,2.3-3.5,2.8-5.4
	c0.4-1.6,0.3-3.2,0.5-4.8c0.5-5.9,4.1-11.3,4.4-17.2c0.1-2-0.2-4,0.4-5.9c0.5-1.5,1.5-2.8,2.2-4.2c1.4-2.6,1.8-5.6,1.6-8.5
	c-0.1-1.8-0.5-3.7,0.3-5.2c1-2,3.3-2.9,5.4-3.8c6.1-2.7,10.9-7.6,16.3-11.5c1.2-0.9,2.5-1.7,4-2.1c1.1-0.2,2.3-0.1,3.4-0.6
	c2-0.9,2.6-3.4,3.6-5.4c1.3-2.6,2.9-4.4,4.8-6.6c1.6-1.9,2.9-3.5,4.3-5.4c0.9-1.1,1.8-2.2,2.7-3.3"/>
<path fill="#EAEAEA" stroke="#D6D6D6" stroke-miterlimit="10" d="M14.1,176.2c1.1,0.4,0.3,2.3,0,3.4c-0.2,0.6-0.5,1.1-0.3,1.7
	c0.1,0.4,0.3,0.7,0.5,1c1,1.6,0.4,3.7,0.1,5.5c-0.4,1.9-0.4,4.1,1,5.3c1.6,1.2,3.8,0.5,5.8,0.5c0.4,0,0.8,0,1.2,0.2
	c0.4,0.3,0.6,0.7,0.9,1.2c0.9,1.4,2.5,2.1,4.1,2.4c1.6,0.3,3.2,0.1,4.8-0.1c3-0.4,6.1-1.1,8.5-3c0.9-0.7,1.7-1.6,2.7-2.2
	c2.2-1.3,5-0.8,7.6-0.5c2.6,0.2,5.7-0.2,6.9-2.5c0.4-0.7,0.5-1.6,0.6-2.4c0.1-1.1,0-2.3-0.7-3.1c-0.4-0.4-0.9-0.7-1.3-1
	c-1-1-1.1-2.6-0.9-4c0.2-1.4,0.6-2.8,0.3-4.2c-0.6-2.4-3-3.7-5.2-4.8c-4.5-2.2-9.3-4.7-11.5-9.3c-0.4-0.8-0.7-1.7-1.5-2.3
	c-0.5-0.4-1.1-0.5-1.8-0.7c-3.2-0.7-6.6-1.1-9.8-0.5s-6.4,2.5-7.9,5.4c-0.3,0.5-0.5,1.1-0.9,1.6c-1.1,1.4-3,1.7-4.7,1.2
	c-1.6-0.5-3-1.6-4.3-2.7c-0.7-0.7-1.5-1.4-2.4-1.7s-2.2,0.1-2.5,1.1c-0.3,1,0.5,2,0.7,3c0.4,2-1.3,4.3,0,5.9c0.3,0.4,0.8,0.7,1.2,1
	c0.7,0.8,0.1,1.8,0.1,2.9c0,1.6,3.1-0.1,4.7,0.4c0.7,0.2,1.3,0.7,1.9,1.1C12.7,176.4,13.4,176,14.1,176.2z"/>
<path fill="#EAEAEA" stroke="#D6D6D6" stroke-miterlimit="10" d="M14.4,84.8c-0.3-0.9-0.6-1.7-1-2.6c-0.4-1,0.3-4.7,0.7-5.4
	c0.6-0.8,2-0.5,2.6-1.2c0.5-0.5,0.7-1.2,1.3-1.6c0.5-0.4,1.2-0.4,1.8-0.4c1.6,0,3.4-0.5,4.6,0.5c0.9,0.7-1.5,1.9-1.2,3
	c0.1,0.4,0.4,0.6,0.7,0.9c1.6,1.5,1.6,4.2,0.1,5.7c-0.2,0.2-0.5,0.5-0.9,0.6c-0.5,0.2-1.1,0.1-1.6,0.1c-1.2,0.1-2.1,1-3.1,1.7
	c-1,0.7-2.4,1.1-3.3,0.3C14.8,85.9,14.6,85.3,14.4,84.8z"/>
<path fill="none" stroke="#D6D6D6" stroke-miterlimit="10" d="M5.9,175.1c-5.4,5.2-4.1,12.4-7.4,18.2c-1.8,3.1-6,4-9,7c-1,1-1,2-2,3
	c-0.6,0.6-1.2,1-1.8,1.4"/>
<path fill="none" stroke="#D6D6D6" stroke-miterlimit="10" d="M14.3,77c0-0.5-0.7-0.5-1-0.8c-0.9-1.1,0.7-2.9,0.1-4.2
	c-0.8-1.5-2.5-2-4.1-2.5C7.7,69,5.9,68,5.8,66.3c0-0.7,0.3-1.5-0.1-2.2c-0.4-0.7-1.3-0.9-2.1-1.1c-2.4-0.6-4.4-2-6.4-3.4
	C-3.8,58.8-5,58-5.8,56.8c-0.4-0.6-0.6-1.2-1-1.8c-1.1-1.6-2.9-2.4-3.9-4c-0.5-0.9-1.2-1.5-1.8-2.2"/>
<path fill="#EAEAEA" stroke="#D6D6D6" stroke-miterlimit="10" d="M217.3,75.3c0.2-0.1,0.2-0.3,0.3-0.5c0.1-0.5,0.3-1.1,0.4-1.6
	c0.3-1.1,0.5-2.6-0.4-3.3c-0.8-0.6-2.3-0.1-2.4,1c-0.1,0.5,0.1,1,0.3,1.4c0.3,0.8,0.6,1.6,1,2.4C216.6,75.1,217,75.5,217.3,75.3z"/>
<path fill="#EAEAEA" stroke="#D6D6D6" stroke-miterlimit="10" d="M222.5,80.2c0.2,0,0.5,0,0.7,0.1c0.1,0.1,0.2,0.3,0.2,0.4
	c0.3,1,0.1,2.1-0.6,2.9c-0.3,0.4-0.7,0.6-1,1c-0.9,1-0.9,3.7-2.2,3.4c-0.9-0.2-0.8-1.7-0.9-2.6c-0.1-0.9,0-1.9,0.6-2.7
	c0.2-0.2,0.4-0.4,0.5-0.7c0.1-0.2,0.1-0.4,0.1-0.6C220.2,80.4,221.5,80.2,222.5,80.2z"/>
<path fill="none" stroke="#D6D6D6" stroke-miterlimit="10" d="M245.7,53.3c-0.3-5.5,5.7-9.6,6.5-15.1c0.4-2.8-0.6-5.6-0.4-8.3
	c0.2-1.6,0.8-3.1,1.2-4.7c1.1-3.5,1.5-7.3,1.3-11c-0.2-2.9-0.7-5.7-1.3-8.5c-1.4-7.4-2.9-14.7-4.3-22.1"/>
<path fill="#EAEAEA" stroke="#D6D6D6" stroke-miterlimit="10" d="M286.1,54.2c-0.2-0.4-0.4-0.8-0.6-1.2c-0.1-0.2-0.8-0.4-0.9-0.3
	c-0.5,0.4-1.3,0.7-1.5,1.3c-0.1,0.4-0.3,0.8-0.2,1.2c0.1,0.4,0.4,0.9,0.8,1c0.5,0.1,1.3,0.4,1.8,0.3c0.5-0.1,0.7-0.8,0.8-1.3
	C286.5,55,286.3,54.6,286.1,54.2z"/>
<path fill="#EAEAEA" stroke="#D6D6D6" stroke-miterlimit="10" d="M336.9,45.1c0.4,1.1,1.1,2.9,2.2,2.5c1-0.3,1.3-1.8,1.1-2.9
	c-0.2-1.1-1.3-1.9-2.3-1.9c-0.3,0-0.6,0.1-0.8,0.3C336.5,43.7,336.7,44.5,336.9,45.1z"/>
<path fill="none" stroke="#585858" stroke-miterlimit="10" stroke-dasharray="4,1" d="M296,378.3c-1.5-8.1,1.7-16.8,7.9-22.1
	c1.7-1.5,3.7-2.7,5.2-4.4c1.3-1.4,2.2-3.1,3.6-4.4c3.4-2.9,9-2.5,12-5.9c2.7-3.1,2.7-8.8,6.6-10.1c1-0.3,2.1-0.3,3-0.9
	c0.9-0.6,1.3-1.7,1.6-2.7c3.2-10.2,4.2-21.5,10.5-30.2c5.1-7,13.4-11.9,16.1-20.1c2.3-6.8,0.1-14.4,1.5-21.4
	c1.1-5.6,4.3-10.6,7.5-15.4c2.3-3.5,4.7-7.1,8-9.7"/>
<path fill="none" d="M280.9,335.8c2.9-3.1,5.8-6.1,8.7-9.2c2.8-3,5.6-6,7.6-9.6c2.4-4.6,3.8-10.4,8.6-12.4"/>
<text transform="matrix(0.6863 -0.7273 0.7273 0.6863 289.1558 330.7728)"><tspan x="0" y="0" fill="#7D7D7D" font-family="'Verdana-Italic'" font-size="7">9</tspan><tspan x="4.5" y="0" fill="#7D7D7D" font-family="'Verdana-Italic'" font-size="7" rotate="-1.2">2</tspan><tspan x="9.2" y="-0.1" fill="#7D7D7D" font-family="'Verdana-Italic'" font-size="7" rotate="-6.2">0</tspan><tspan x="14" y="-0.6" fill="#7D7D7D" font-family="'Verdana-Italic'" font-size="7" rotate="-15.5">0</tspan></text>
<path fill="none" d="M305.9,148.9c4.5-15.1,4.9-31.1,5.4-46.9"/>
<text transform="matrix(0.1657 -0.9862 0.9862 0.1657 310.8169 139.158)"><tspan x="0" y="0" fill="#7D7D7D" font-family="'Verdana-Italic'" font-size="7">1</tspan><tspan x="4.5" y="0" fill="#7D7D7D" font-family="'Verdana-Italic'" font-size="7" rotate="-1.9">0</tspan><tspan x="9.1" y="-0.2" fill="#7D7D7D" font-family="'Verdana-Italic'" font-size="7" rotate="-3.6">2</tspan><tspan x="13.6" y="-0.4" fill="#7D7D7D" font-family="'Verdana-Italic'" font-size="7" rotate="-5">0</tspan><tspan x="18" y="-0.8" fill="#7D7D7D" font-family="'Verdana-Italic'" font-size="7" rotate="-6.1">0</tspan></text>
<text transform="matrix(1 0 0 1 73.7652 41.6652)"><tspan x="0" y="0" fill="#585858" font-family="'Verdana-Italic'" font-size="8">Stanton</tspan><tspan x="12.5" y="9.6" fill="#585858" font-family="'Verdana-Italic'" font-size="8">Peak</tspan></text>
<text transform="matrix(1 0 0 1 62.2258 180.7835)"><tspan x="0" y="0" fill="#585858" font-family="'Verdana-Italic'" font-size="8">Spiller</tspan><tspan x="0" y="9.6" fill="#585858" font-family="'Verdana-Italic'" font-size="8">Lake</tspan></text>
<text transform="matrix(1 0 0 1 167.134 213.7124)"><tspan x="0" y="0" fill="#7BBCEB" font-family="'Verdana-Italic'" font-size="8">Soldier</tspan><tspan x="0" y="9.6" fill="#7BBCEB" font-family="'Verdana-Italic'" font-size="8">Lake</tspan></text>
<path fill="none" d="M10.5,213.4c15.1-4.6,30.7-7.6,46.4-9.1"/>
<text transform="matrix(0.974 -0.2267 0.2267 0.974 23.7124 212.4144)"><tspan x="0" y="0" fill="#7D7D7D" font-family="'Verdana-Italic'" font-size="7">1</tspan><tspan x="4.4" y="0" fill="#7D7D7D" font-family="'Verdana-Italic'" font-size="7" rotate="1.1">0</tspan><tspan x="8.8" y="0.1" fill="#7D7D7D" font-family="'Verdana-Italic'" font-size="7" rotate="2.1">8</tspan><tspan x="13.2" y="0.2" fill="#7D7D7D" font-family="'Verdana-Italic'" font-size="7" rotate="3.2">0</tspan><tspan x="17.6" y="0.5" fill="#7D7D7D" font-family="'Verdana-Italic'" font-size="7" rotate="4.3">0</tspan></text>
<path fill="none" d="M93.3,231.6c9.4-6.7,20.5-11,32-12.3"/>
<text transform="matrix(0.8808 -0.4734 0.4734 0.8808 99.7798 230.4076)"><tspan x="0" y="0" fill="#7D7D7D" font-family="'Verdana-Italic'" font-size="7">1</tspan><tspan x="4.3" y="0" fill="#7D7D7D" font-family="'Verdana-Italic'" font-size="7" rotate="3.7">1</tspan><tspan x="8.6" y="0.3" fill="#7D7D7D" font-family="'Verdana-Italic'" font-size="7" rotate="7.4">0</tspan><tspan x="12.8" y="0.8" fill="#7D7D7D" font-family="'Verdana-Italic'" font-size="7" rotate="11.1">0</tspan><tspan x="17" y="1.6" fill="#7D7D7D" font-family="'Verdana-Italic'" font-size="7" rotate="14.8">0</tspan></text>
<path fill="none" d="M190.4,336.9c5.7-6.1,5.2-15.6,7.1-23.8c0.5-2.3,1.3-4.5,2.3-6.6c1.5-3.3,3.8-6.6,7.3-7.6"/>
<text transform="matrix(0.1867 -0.9824 0.9824 0.1867 197.5269 328.0726)"><tspan x="0" y="0" fill="#7D7D7D" font-family="'Verdana-Italic'" font-size="7">1</tspan><tspan x="4.6" y="0" fill="#7D7D7D" font-family="'Verdana-Italic'" font-size="7" rotate="-2.5">0</tspan><tspan x="9" y="-0.2" fill="#7D7D7D" font-family="'Verdana-Italic'" font-size="7" rotate="-1.2">0</tspan><tspan x="13.2" y="-0.4" fill="#7D7D7D" font-family="'Verdana-Italic'" font-size="7" rotate="4.1">0</tspan><tspan x="17.3" y="-0.1" fill="#7D7D7D" font-family="'Verdana-Italic'" font-size="7" rotate="11">0</tspan></text>
<path fill="none" d="M231.5,96.3c1.8-4.2,7.2-5.7,11.1-8.2c1-0.7,5.6-2,6.9-2c2.3,0,4.7,0,7,0c2.4,0,4.8,0,7-1"/>
<text transform="matrix(0.8788 -0.4773 0.4773 0.8788 236.5396 94.2825)"><tspan x="0" y="0" fill="#7D7D7D" font-family="'Verdana-Italic'" font-size="7">1</tspan><tspan x="4.5" y="0.1" fill="#7D7D7D" font-family="'Verdana-Italic'" font-size="7" rotate="-0.5">0</tspan><tspan x="8.4" y="-0.1" fill="#7D7D7D" font-family="'Verdana-Italic'" font-size="7" rotate="11.4">8</tspan><tspan x="12.2" y="0.2" fill="#7D7D7D" font-family="'Verdana-Italic'" font-size="7" rotate="28.8">0</tspan><tspan x="16.1" y="2.3" fill="#7D7D7D" font-family="'Verdana-Italic'" font-size="7" rotate="28.8">0</tspan></text>
<text transform="matrix(1 0 0 1 237.6309 117.8699)"><tspan x="0" y="0" fill="#585858" font-family="'Verdana-Italic'" font-size="8">Grey</tspan><tspan x="-2.5" y="9.6" fill="#585858" font-family="'Verdana-Italic'" font-size="8">Butte</tspan></text>
<g>
	<g>
		<polyline fill="none" stroke="#7D7D7D" stroke-miterlimit="10" points="85.2,341.6 85.2,348.7 275.4,348.7 275.4,341.7 		"/>
		<line fill="none" stroke="#7D7D7D" stroke-miterlimit="10" x1="180.5" y1="341.4" x2="180.5" y2="348.7"/>
		<line fill="none" stroke="#7D7D7D" stroke-miterlimit="10" x1="161.2" y1="349.2" x2="161.2" y2="343.7"/>
		<line fill="none" stroke="#7D7D7D" stroke-miterlimit="10" x1="142.4" y1="349.2" x2="142.4" y2="343.7"/>
		<line fill="none" stroke="#7D7D7D" stroke-miterlimit="10" x1="123.3" y1="349.2" x2="123.3" y2="343.5"/>
		<line fill="none" stroke="#7D7D7D" stroke-miterlimit="10" x1="104.6" y1="349.2" x2="104.6" y2="343.7"/>
	</g>
	<text transform="matrix(1 0 0 1 83.7833 339.1469)" fill="#7D7D7D" font-family="'Verdana'" font-size="8">0</text>
	<text transform="matrix(1 0 0 1 174.2944 339.1469)" fill="#7D7D7D" font-family="'Verdana'" font-size="8">0.5</text>
	<text transform="matrix(1 0 0 1 258.3412 339.1469)" fill="#7D7D7D" font-family="'Verdana'" font-size="8">1 mi</text>
</g>
</svg>
