<?xml version="1.0" encoding="utf-8"?>
<!-- Generator: Adobe Illustrator 17.1.0, SVG Export Plug-In . SVG Version: 6.00 Build 0)  -->
<!DOCTYPE svg PUBLIC "-//W3C//DTD SVG 1.1//EN" "http://www.w3.org/Graphics/SVG/1.1/DTD/svg11.dtd">
<svg version="1.1" id="Layer_1" xmlns="http://www.w3.org/2000/svg" xmlns:xlink="http://www.w3.org/1999/xlink" x="0px" y="0px"
	 viewBox="0 0 360 360" enable-background="new 0 0 360 360" xml:space="preserve">
<path fill="none" stroke="#E1E1E1" stroke-miterlimit="10" d="M326.9,375.8c2.6-6.4,9.5-10.3,11.9-16.8c0.4-1.1,0.7-2.2,1.3-3.2
	c0.5-0.8,1.3-1.5,2-2.1c8.3-7.5,14.7-16.9,20.4-26.6c0.8-1.4,1.7-2.9,3-3.9c0.4-0.3,0.9-0.6,1.2-1.1c0.3-0.5,0.3-1.2,0.3-1.8
	c0.3-4,4.2-6.7,7.8-8.6"/>
<path fill="none" stroke="#E1E1E1" stroke-miterlimit="10" d="M309.7,374.6c3.1-2.9,5.7-6.4,7.6-10.2c0.8-1.8,1.6-3.6,2.6-5.2
	c2.1-3.3,5.6-5.5,7.7-8.8c0.8-1.3,1.4-2.8,2.2-4.1c1.6-2.3,4.2-3.8,6.1-5.9c5.7-6.1,5.2-15.6,7.1-23.8c0.5-2.3,1.3-4.5,2.3-6.6
	c1.5-3.3,3.8-6.6,7.3-7.6c1.3-0.4,2.6-0.4,3.9-0.8c1.3-0.4,2.5-1.3,2.8-2.6c0.2-1.2-0.4-2.3-0.8-3.4c-0.4-1.1-0.4-2.6,0.6-3.3
	c0.3-0.2,0.6-0.2,0.9-0.3c4.5-1.1,9-2.1,13.4-3.2"/>
<path fill="none" stroke="#E1E1E1" stroke-miterlimit="10" d="M295,374.1c6.8-8.7,13.5-17.3,20.3-26c0.9-1.2,1.8-2.3,3-3.3
	c1.5-1.2,3.3-2,5-3c6.5-3.9,10.3-11.4,11.2-18.9s-7.5-16.2-3.1-22.4c1.1-1.6,4-0.1,5.6-1.1c1.7-1,2.7-3.3,1.7-4.9
	c-0.8-1.3-2.5-1.8-3.5-2.9c-0.6-0.7-0.9-1.7-1.1-2.6c-0.7-2.7-1.5-5.4-2.2-8.2c-0.2-0.7-0.4-1.4-0.2-2c0.2-0.9,1-1.5,1.8-2.1
	c4.8-3.6,10.6-7.3,16.3-5.6c1.6,0.5,3,1.3,4.6,1.5c2.1,0.3,4.5-0.5,6.3,0.6c0.7,0.4,1.2,1.1,1.9,1.5c1.1,0.8,2.5,0.9,3.9,1
	c2.9,0.2,5.8-0.1,8.7-0.7"/>
<path fill="none" stroke="#E1E1E1" stroke-miterlimit="10" d="M271.5,375.5c0.4-2.3,1.4-4.6,2.8-6.5c0.3-0.5,0.8-1,1.3-1.1
	c1.2-0.4,2.2,0.9,3.4,1.4c2.4,1.1,5-1,6.9-3c6.1-6.5,12.3-13,18.4-19.5c6.3-6.7,12.7-13.4,19-20.1c0.7-0.7,1.3-1.4,1.8-2.3
	c1.1-2.3,0.1-5.1-1.4-7.2c-1.7-2.3-4-4.1-5.5-6.5c-3.2-4.9-0.1-10.5,1.5-16.2c0.9-3.3-2.5-7.5-5.9-7.1c-1,0.1-2,0.6-3,0.6
	c-3.2-0.1-3.9-4.9-6.7-6.4c-0.7-0.3-1.5-0.5-2.2-0.9c-2.7-1.6-1.4-5.9-2.7-8.7c-1.1-2.4-4.2-3.6-4.8-6.2c-0.2-1,0-2.1,0.2-3.1
	c0.8-3.8,1.9-7.6,4-10.8c2.1-3.2,5.3-5.9,9.2-6.6c4.9-0.9,10.2,1.8,12.3,6.2c0.6,1.3,1,2.6,1.9,3.7c1.4,1.6,3.7,2.1,5.9,1.9
	c2.1-0.2,4.2-0.8,6.3-1c4.9-0.5,9.7,1.4,14.3,3.2c8.1,3.1,16.6,5.9,25.3,5.7"/>
<path fill="none" stroke="#E1E1E1" stroke-miterlimit="10" d="M253.9,376.1c1.5-5.3,3.1-10.5,4.6-15.8c1.2-4.2,2.4-8.4,4.3-12.4
	c3.7-8.2,10.7-15.7,19.7-16.9c4.7-0.6,10,0.4,13.9-2.4c1.5-1.1,2.6-2.6,4.2-3.7s4.4-2,5.1-0.3c1.3,2.8,4.6,3.9,7.2,2.2
	c3.8-2.5,5.2-7.8,3.3-11.9c-0.9-1.8-2.4-3.3-3.8-4.8c-4.6-4.6-9.2-9.2-13.8-13.9c-1.5-1.5-3.2-3.1-5.3-3.5
	c-3.4-0.6-7.3,2.3-10.2,0.4c-1.5-1-2.1-3-2.8-4.7c-0.7-1.7-2.7-1.9-4.1-3.1c-1.6-1.5-2-4.7-0.8-6.5c1.5-2.2,5.5-0.3,7.6-1.9
	c2.8-2,3.7-5.8,3.7-9.3s-0.6-7,0.2-10.4c0.8-3.6,3.2-6.9,2.9-10.6c-0.2-2.6-1.7-5-1.5-7.6c0.1-1.3,0.6-2.5,1.2-3.8
	c1.6-3.6,2-7.9,4.8-10.7c5-5,13.1,3,19.7,5.5c3.7,1.3,8,1.7,10.7,4.5c2.1,2.1,2.9,5.3,4.9,7.6c1.9,2.2,4.8,3.3,7.6,4.3
	c6.3,2.3,12.6,4.6,18.9,6.9c2.5,0.9,5.4,1.8,7.7,0.5c3.6-2,3-7.3,1.9-11.4c-1.6-5.7-3.4-11.7-8-15.3c-1.7-1.3-3.8-2.3-4.9-4.2
	c-0.8-1.3-1-3-1.2-4.5c-1-8.8-8.8-19.7-3.1-26.4c2.6-3.1,6.3-4.6,8.7-7.9c3.6-5,9.2-8.5,15.3-9.5"/>
<path fill="none" stroke="#E1E1E1" stroke-miterlimit="10" d="M353.1,237.1c-0.5-0.3-1-0.7-1.4-1.1c-0.5-0.5-0.9-1.1-1.3-1.6
	c-1.3-1.7-3.1-3.1-5.2-3.6c-1.7-0.5-3.6-0.4-5.2,0.4s-2.8,2.3-3.2,4c-0.1,0.4-0.1,0.8,0.1,1.2c0.1,0.2,0.2,0.3,0.4,0.4
	c1.2,0.9,2.7,1.4,4.1,1.8c0.7,0.2,1.4,0.4,2.2,0.6c1.4,0.4,2.8,0.8,4.2,1.2c1.6,0.4,3.2,0.4,4.8,0.2c1.2-0.1,3.1-1,2.5-2
	C354.7,237.8,353.8,237.5,353.1,237.1z"/>
<path fill="none" stroke="#E1E1E1" stroke-miterlimit="10" d="M207.9,375.2c-0.6-1.3,0.8-2.8,2.2-3.1s3-0.1,4.3-0.6
	c1.2-0.4,2-1.4,2.9-2.2c2.5-2.5,5-5.6,8.4-6.3c3.4-0.8,4.6,5.3,7.8,6.6c2.8,1.2,6-1.1,7.6-3.7c4.6-7.8,0.7-18.2,4.1-26.6
	c0.4-0.9,0.8-1.8,0.8-2.7c-0.1-1.6-1.5-3-1.1-4.5c0.2-1,1.1-1.7,1.9-2.2c4-2.7,8.8-4.3,13.7-4.5c2-0.1,4.1,0.1,5.9,0.9
	c0.8,0.4,1.6,0.9,2.5,1c1,0.1,1.9-0.5,2.8-1c6.4-4,12.2-9.1,16.9-15c1.5-1.9,3-4.1,3.1-6.5s-2.1-5-4.5-4.6c-1.8,0.3-2.9,2-4.4,3
	s-4.3,0.6-4.2-1.2c0.1-1.2,1.6-2.6,0.7-3.3c-5.5-3.8-12.8-4.6-17.5-9.4c-3.5-3.6-8.8-8-7.7-12.9c1.1-5.1,7.9-7,11.8-10.5
	c1-0.9,2.1-1.8,3.4-1.8c1.3,0,2.5,0.8,3.8,1.2c3.9,1,7.5-3.2,7.8-7.3s-1.5-7.9-2.2-11.9c-1.7-8.8,1.9-18.4,8.9-23.9
	c2.1-1.6,4.4-2.9,6.3-4.7c1.9-1.8,4.9-5.2,3-6.9c-2.8-2.6-5.6-4.2-8.4-6.9c-0.7-0.7-2.1,0.5-3,0c-1-0.6-0.7-2.2-1-3.2
	c-2.3-7.5,2.1-15.6,6.8-21.8c2.2-2.9,4.9-5.5,7.5-8c4.8-4.6,9.7-9.1,14.8-13.3c3.3-2.8,6.7-5.5,10.1-8.2c1.7-1.4,3.5-2.7,5.4-3.6
	c2.7-1.2,5.8-1.5,8.8-1.8c4-0.3,8.2-0.7,12,0.5c2.3,0.7,4.4,1.9,6.8,1.9c0.8,0,1.6-0.1,2.4,0.2c3,1.1,1.5,6.1,3.6,8.5
	c1,1,2.4,1.3,3.8,1.4c2.1,0.2,4.2,0,6.3-0.4"/>
<path fill="none" stroke="#E1E1E1" stroke-miterlimit="10" d="M190.9,374.3c3.6-8.1,3.9-17.5,0.9-25.8c-0.8-2.3-2-4.6-3.7-6.4
	c-3.5-3.5-8.8-4.2-13.7-4.8c-1.7-0.2-3.7,0.4-5.1-0.6c-1.4-1-0.7-4-2.3-4.7c-1.5-0.7-1.6,2.9-3.1,3.6c-3.5,1.5-6.7-3.6-10.5-3.8
	c-1.1-0.1-2.3-0.1-3.2-0.6c-1.2-0.8-1.7-2.3-1.9-3.8c-0.8-6.5,2.2-12.7,4-19c1.8-6.3,3.7-19.9-2.6-18.4c-2.7,0.6-5.3,0.7-5.8-2.1
	s0.9-5.5,0.6-8.3c-0.2-1.6-1-3-1.5-4.4c-0.7-2.2-0.9-4.5-1.1-6.8c-0.4-4.8-0.7-9.6-1.1-14.3c-0.4-5.4-0.7-11.2,2.1-15.8
	c3.2-5.4,10.3-9,10.5-15.3c0-1.5-0.3-3.2,0.5-4.4c0.7-1,1.9-1.4,3.1-1.8c15.1-4.6,30.7-7.6,46.4-9.1c1-0.1,2.1-0.2,3-0.8
	c0.8-0.5,1.3-1.4,1.9-2.2c2.2-3.5,4.4-7.1,6.5-10.6c1.5-2.5,3.1-5.1,3.3-8c0.1-2.5-0.8-4.9-2-7c-3.7-6.6-10-11.4-16.1-16
	c-2.4-1.8-4.9-3.7-7.3-5.5c-3.3-2.5-6.7-5-10.7-6.2c-3.9-1.1-8.1-0.9-11.8-2.5s-6.6-6.3-4.4-9.6c1.8-2.6,5.7-2.8,8.3-4.5
	c2.9-1.9,4-5.4,5.5-8.5s4.8-4.1,7.2-6.5c3.7-3.6,6.2-10.3,11.4-9.9c1,0.1,2,0.3,2.9,0c1.1-0.4,1.9-1.4,2.9-1.9
	c2.6-1.3,6.1,0.8,8.7-0.5c0.7-0.4,1.3-1,1.9-1.6c4.4-5,7.9-10.7,10.5-16.8c1.9-4.5,3.2-9.4,2.6-14.2c-0.7-5.5-3.9-10.3-7.1-14.9
	c-1.2-1.8-2.6-3.6-4.5-4.7c-1.6-0.9-3.6-1.1-5-2.3c-3-2.6-1.6-7.4,0.1-11c2.4-5.1,5.2-10.8,10.5-12.7c2.9-1.1,6.1-0.9,9.1-1
	c9.6-0.5,19.6-5.2,23.4-14c1.5-3.5,2.5-8.1,6.2-9.2c0.7-0.2,1.5-0.2,2.1-0.6c1.3-0.6,0.7-2.3,1.1-3.6c0.5-1.5,2.9-1.4,4.4-2.2
	c0.4-0.2,0.9-0.5,1.2-0.8c0.5-0.6,0.5-1.5,0.5-2.2c0-3.1,0.1-6.2,0.1-9.3"/>
<path fill="none" stroke="#E1E1E1" stroke-miterlimit="10" d="M353-10.4c-1.4,1.5-2.2,3.5-3.2,5.3c-3.9,7-11.3,11.8-13.8,19.4
	c-0.8,2.4-1,5-1.2,7.5c-0.2,1.9-0.3,3.9-0.5,5.8c-0.1,1.1-0.2,2.2,0,3.3c0.5,2.8,2.8,4.9,5.4,6s5.4,1.2,8.2,1.4
	c0.6,0,1.2,0.1,1.8-0.1c1.8-0.5,2.7-2.6,4.2-3.6c1.6-1.1,3.8-0.8,5.6-1.5c1.3-0.5,2.3-1.5,3.4-2.3c3-2.3,6.8-3.5,10.6-3.5"/>
<path fill="none" stroke="#E1E1E1" stroke-miterlimit="10" d="M333.3-9.2c-0.1,1.6-1.6,2.6-3.1,3.2s-3.1,1.1-4,2.4
	c-1.1,1.5-0.7,3.7-1.5,5.4c-1,2.1-3.3,3-5.4,4c-2.1,1-4.3,2.6-4.4,4.9c-0.1,3.1,3.9,5.5,3.2,8.5c-0.2,1-1,1.7-1.5,2.6
	c-2.5,3.5-2.7,8.2-2.7,12.5c-0.1,5.6-0.1,11.3,1.6,16.6c0.7,2.1,1.6,4.2,1.5,6.4c0,1.2-0.4,2.5,0.1,3.6c1.1,2.6,5.3,2.1,7,4.3
	c0.5,0.7,0.8,1.6,1.5,2.1c1.5,0.8,3-0.9,4.5-1.6c2.2-1,5,0.2,6.3,2.3c1.3,2,1.5,4.6,1.4,7c-0.1,1.2-0.2,2.6-1,3.6
	c-0.6,0.8-1.6,1.3-2.3,2.1c-0.6,0.8-0.8,1.9-1,2.9c-0.4,1.9-0.7,3.9-1.1,5.8c-0.7,3.6-1,8,1.9,10.3c2.2,1.7,5.3,1.3,8,0.8
	c2.2-0.4,4.3-0.7,6.5-1.1c1.6-0.3,3.9-0.3,5.5-0.2c5.9,0.3,8.3,4.6,9.3,4.9c1.9,0.6,3.8,1.2,5.7,1.4c2.8,0.2,5.6-0.5,7.9-2"/>
<path fill="none" stroke="#E1E1E1" stroke-miterlimit="10" d="M290.2-13.9c1.1,8.2-4.2,16-10.7,21.2s-14.2,8.5-20.9,13.5
	c-8.4,6.2-16,15.3-26.5,15.8c-1.7,0.1-3.6,0-4.7,1.3c-0.6,0.7-0.8,1.7-1,2.7c-1.3,9.2,2.4,18.9,9.3,25c2.7,2.4,6,4.5,7.2,7.9
	c1.2,3.5-0.4,7.3-2,10.6c-4.9,10-11,19.8-20.4,25.8c-6.2,4-13.5,6.2-20.2,9.6c-6.6,3.4-13,8.7-14.6,16c-0.4,1.8-0.5,3.7,0,5.4
	c1.4,4.7,6.4,7.1,10.7,9.3c13.8,7.2,25.4,18.6,33,32.2c2.2,3.9,4,8.7,2.1,12.7c-1,2.2-3,3.7-4.6,5.4c-3.8,3.9-6.3,8.9-9.4,13.3
	c-3.2,4.4-7.4,8.6-12.8,9.4c-4.5,0.7-9-1-13.6-1.7c-7-1-13.3,5.3-20.3,4.3c-1.2-0.2-3.5-0.2-4.3,0.8c-0.8,0.9-1.4,2.2-2.5,2.7
	c-0.4,0.2-1,0.3-1.4,0.6c-1.9,1.3-0.4,4.9-2.3,6.2c-0.6,0.4-1.4,0.4-2.2,0.6c-3.7,0.8-5.1,5.1-5.8,8.8c-0.4,2.2-0.9,4.4-1.3,6.6
	c-0.5,2.4-1,4.9-0.2,7.3c0.3,1,0.8,1.8,1.1,2.8c0.5,1.8,0.2,3.8,0.4,5.7c0.2,1.9,1.1,4,2.9,4.5c0.9,0.3,1.8,0.1,2.7,0.2
	c2.4,0.1,4.6,1.4,6.7,2.7c0.5,0.3,0.9,0.6,1.3,1c0.2,0.3,0.3,0.8,0.4,1.2c0.7,3.5-0.7,7.3,1,10.5c0.4,0.7,0.9,1.4,1.1,2.2
	c0.2,0.6,0.1,1.3,0,1.9c-0.2,1.5-0.5,3.1-0.6,4.6c0,0.8,0.4,2.4,0.1,3.1c-2.2,5.5-2.4,11.2-0.4,16.8c0.5,1.4,0.2,3.3,1.5,4.1
	c12.7,7.1,30,6,34.7,19.8c0.9,2.5,2.2,5.8,4.9,5.5c1-0.1,1.8-0.7,2.5-1.3c4.9-4,7.9-10.3,8.1-16.7c0-1.7-0.1-3.5,0.6-5
	c1.1-2.2,3.7-3.1,5.2-5c1.6-1.9,2-4.8,4.2-6.1c1.3-0.8,2.9-0.8,4.3-1.1c5.7-1.1,5-9.5,10-12.5c3.5-2.1,8.7,1.6,11-1.7
	c2.3-3.3-0.1-9.1-4.2-8.9c-1.1,0.1-2.2,0.5-3.2,0c-1.6-0.7-1.4-3-1.8-4.7c-1.1-4.5-6.7-5.6-11-7.3c-8.6-3.3-14.6-14.4-9.5-22
	c1.9-2.9,5-4.8,6.8-7.8c1.2-2,1.7-4.4,2.9-6.4c1.2-1.9,3-3.4,4.9-4.7c9.4-6.7,20.5-11,32-12.3c4.2-0.5,9.8-2,9.5-6.2
	c-0.2-2.2-2-3.8-3.6-5.4c-9.4-9.4-9.6-25.4-3.3-37.1s17.9-19.7,29.9-25.5c4.9-2.4,10.2-4.6,13.1-9.1c0.7-1.1,1.3-2.3,2.1-3.2
	c3.2-3.7,10.5,1.4,13.8-2.2c1.5-1.6,0-5-1.8-6.2c-1.5-1-3.7-1.4-4.6-2.9c-1-1.5-1.7-3.2-3.2-4.2c-1-0.7-2.3-1-3.4-1.6
	c-2.7-1.6-3.8-5.6-6.9-6.2c-3.8-0.6-6.8,4.5-10.5,3.7c-1-0.2-1.8-0.9-2.6-1.5c-3.5-2.7-7-5.4-10.4-8c-1.4-1-2.7-2.1-3.6-3.6
	c-1.9-3.5-0.3-7.8,1.2-11.5c2.7-7.1,4.4-14.6,5-22.2c0.1-1.2,0.2-2.5,0.5-3.7c0.3-1.1,0.9-2.1,1.3-3.1c2.9-7.6-1.7-16.2,0-24.2
	c0.4-1.7,1.1-3.4,1.4-5.1c0.3-1.8,0.3-3.6,0.4-5.4c0.3-10.5,3.5-21.2,10.6-29c4.3-4.6,9.8-8,13.9-12.7"/>
<path fill="none" stroke="#E1E1E1" stroke-miterlimit="10" d="M294.8-10.7c0,1.8,0,3.7-0.1,5.5c0,0.3,0,0.6,0.1,0.9
	c0.3,0.7,1.3,0.7,1.9,0.3s1-1.1,1.4-1.7c1.1-1.8,2.5-3.4,4.2-4.6c0.6-0.5,1.4-1.1,1.3-1.8"/>
<path fill="none" stroke="#E1E1E1" stroke-miterlimit="10" d="M245.2,206.8C250,204,256.9,202,259,196c5.7-16.1,5.5-35.5,19-47
	c2.7-2.3,6.2-2.7,9-5c2.2-1.8,5.8-5.6,4-8c-6.9-9.1-26.6,0.8-32-11c-2.8-6.1-2-13,1-19c4-8,5.5-16,6-24c0.1-2,0.7-5.2,2-7
	c0.8-1.1,1.8-3.1,3-5c4.3-6.5,6.5-13.1,8-21c2-10.1,6.5-20,7-31c0-1,1.2-0.9,2-2c1.3-1.8,1-3,1-5c0-1,3-4.9-4,0
	c-12.9,9.1-22.8,19.4-37,27c-3.9,2.1-8.4,0.4-12,3c-1.1,0.8-1.4,3-1,5c2.5,13.7,19.8,21,17,36c-1.1,6-4.1,10.9-8,15
	c-8.3,8.8-17.7,14.4-28,22c-2.9,2.1-6.3,2.3-9,4c-1.2,0.7-1.8,1.1-3,3c-0.3,0.5,4,1-3.9,4.5c-4.7,2.1-5.4,7.8-4.1,8.5
	c12.1,7.2,30.2,18.6,40,38c1,2,2.1,5,3,7c6,13.5-4.9,20-12.7,27.7c-3.7,3.6-3.6,7.5-7.5,10.3c-5.1,3.7-12.8,8.3-19.8,10
	c-5,1.2-9-3.9-13-3c-10.9,2.4-20,11.9-21,23c-0.1,1-0.1,3.2,2,4c3.9,1.4,7.4-1.6,11,1c1.1,0.8,2.2,1.8,3,3c8.5,12.6-2.5,29-2,43
	c0.1,3,1.9,7.2,5,8c4.9,1.3,8.4,3.7,13,7c1.8,1.3,4,2.1,5,2c3-0.2,5.4-19.9,7-30c1.4-8.9-2.2-17-1-25c1.7-11.1,12.5-27,14.1-28.4
	c2.1-1.7,3.7-5.3,6-6.7c1.1-0.7,2.4-1.3,3.4-2.2c1-0.9,1.7-2,2.3-3.1C237.4,218.5,239,210.3,245.2,206.8z"/>
<path fill="none" stroke="#E1E1E1" stroke-miterlimit="10" d="M199.3,243.9c-0.1,0.5-0.1,0.9,0,1.4c0.2,0.9,1.1,1.5,1.9,1.7
	c0.3,0.1,0.6,0.2,0.9,0.1c0.5-0.1,1-0.4,1.4-0.7c2.2-1.8,4.4-3.6,5.9-6c1-1.7,1.6-3.6,3-5c0.7-0.7,1.5-1.2,2.1-2
	c0.8-0.9,2.1-2.4,1.3-3.2c-1.4-1.5-3.9,1.5-5.8,2.2c-1.6,0.6-3.4,0.6-5,1.2c-0.8,0.3-1.6,0.7-2.4,1c-1.1,0.4-2.4,0.4-3.4,1
	c-1,0.6-1.7,2.2-0.8,3c0.3,0.3,0.7,0.4,0.9,0.7c0.3,0.3,0.3,0.8,0.4,1.3C199.5,241.8,199.4,242.9,199.3,243.9z"/>
<path fill="none" stroke="#E1E1E1" stroke-miterlimit="10" d="M247.8,187.1c0.6,1.4,3.1,0,4.3-0.8c1.2-0.8,1.4-2.7,2.5-3.6
	c0.8-0.6,1.8-0.7,2.6-1.3c0.8-0.6,1.2-1.5,1.6-2.4c1.3-3,2.6-6,3.9-9c0.3-0.8,0.7-1.6,0.7-2.4c0-0.8-0.3-2.2-1.2-2.1
	c-4,0.4-6.8,4.8-7.9,8.7c-0.2,0.6-0.3,1.2-0.6,1.7c-0.4,0.6-1.2,1-1.9,1.2c-1.8,0.6-4,1.3-4.5,3.2
	C246.7,182.6,246.9,185,247.8,187.1z"/>
<path fill="none" stroke="#E1E1E1" stroke-miterlimit="10" d="M212,134.5c0.2-0.7,0.4-1.5,0.2-2.3c-0.2-0.8-0.8-1.5-1.5-1.5
	c-0.7,0-1.3,0.6-1.7,1.2c-2.3,2.8-6.6,4.9-6.9,8.5c-0.1,1.2,2.1,1.2,3.3,1.5c1.5,0.3,2.7,2.5,4.2,2.1c1.1-0.3,0.6-2.3,0.9-3.4
	c0.4-1.4,0.8-2.8,1.1-4.2C211.6,135.8,211.8,135.2,212,134.5z"/>
<path fill="none" stroke="#E1E1E1" stroke-miterlimit="10" d="M269.7,48.8c0-3.6,2.5-6.7,4.4-9.7c1.4-2.3,2.5-4.9,3.3-7.5
	c0.2-0.6,0.3-1.2,0.2-1.8c-0.2-1.7-2.3-2.6-3.9-2.3c-1.7,0.3-3,1.5-4.3,2.6c-6.5,5.4-13.8,9.8-21.7,12.9c-1.9,0.8-4.3,2-4.2,4.1
	c0,0.7,0.4,1.4,0.8,2.1c2.3,4,4.6,8,6.9,12c0.8,1.5,1.7,3,1.9,4.7c0.1,0.9,0,1.7,0.3,2.6c0.7,2.2,3.6,3.2,5.8,2.4s3.7-2.8,4.7-4.9
	c1-2.1,1.6-4.4,2.8-6.4c1.2-2.1,3-3.9,3.3-6.3C270.1,51.7,269.7,50.3,269.7,48.8z"/>
<path fill="none" stroke="#E1E1E1" stroke-miterlimit="10" d="M262.8,45.5c-1.7-1.7-4.8,0-7.2,0.5c-1.8,0.4-3.8,0.1-5.3,1.1
	c-0.7,0.4-0.1,1.5,0.4,2.2c1.5,2.2,4.7,5.6,6.7,3.9c1.4-1.2,1.2-3.7,2.7-4.7c0.6-0.4,1.3-0.7,1.8-1.1
	C262.5,46.9,263.3,46,262.8,45.5z"/>
<path fill="none" stroke="#E1E1E1" stroke-miterlimit="10" d="M177.2,374.2c2.8-4-1-9-3.5-12.1c-3.1-3.9-6.4-7.8-10.2-11.1
	c-7.8-6.9-22.5-3.3-27.5-12.1c-2.8-4.9,2.8-10.8,3.7-16.4c0.8-5.2,2.1-11.4,1.6-16.7c-0.5-4.4-4.9-1.3-7.2-3.9
	c-1.5-1.6,0.1-4.3,0.6-6.1c0.6-2.7,0.8-5.4,0.8-8.1c-0.3-21-8.7-41.9,4-60.9c3.5-5.2,7.6-10.6,8-17c0.2-3.2-1.2-6-1.5-9.1
	c-0.2-1.6-0.6-2.6-3.6-4.8c-5-3.6-8.4-6.9-11.2-5.8c-2.1,0.9-4.8,1.6-6.4,0c-1.5-1.6-2-3.9-2.5-6.1c-0.6-2.6-1.2-5.1-2-7.6
	c-0.3-1.2-0.8-2.5-1.9-3.1c-1.3-0.7-2.8-0.1-4.2-0.4c-4.6-0.9-3.7-8.7-7.6-11.2c-0.7-0.4-1.5-0.7-1.9-1.3c-0.5-0.7-0.4-1.7-0.3-2.5
	c0.9-7.2,2.1-14.9,7.1-20.2c2.9-3,7-5.3,8-9.3c0.3-1.2,0.3-2.5,0.7-3.7c0.7-1.8,2.4-3.1,4-4.2c3.4-2.3,7.4-4.7,11.3-3.3
	c1.4,0.5,2.6,1.6,4,2.3c4.2,2.4,9.3,2.2,14.1,2c1.6-0.1,3.2-0.2,4.8-0.3c2.4-0.1,5-0.4,6.5-2.3c1.5-1.9,1.2-4.7,2.5-6.7
	c2.4-3.6,8.3-2.4,11.5-5.3c2.3-2.1,3.1-6.1,6.2-6.7c1.3-0.2,2.6,0.3,3.9,0.1c3-0.5,4-4.4,6.5-6.1c1-0.7,2.1-1,3.2-1.5
	c3.8-1.8,6.2-5.6,7.2-9.7s0.6-8.3-0.1-12.4c-0.2-1.2-0.4-2.4-1.2-3.3c-0.7-1-1.8-1.5-2.9-2.1c-3.2-1.6-5.9-4.6-9.5-4.8
	c-1.8-0.1-3.7-0.9-4.3-2.5c-0.6-1.7-0.3-3.5,0.1-5.2c0.9-4.4,2.1-8.7,3.4-12.9c1.1-3.4,2.6-7,5.8-8.4c1.2-0.5,2.6-0.7,3.6-1.5
	c1-0.9,1.4-2.3,2-3.6c2.5-5.2,9.4-6.2,15.2-5.6c2.6,0.3,5.8,0.5,7.3-1.7c0.4-0.6,0.6-1.2,1-1.8c1.4-2.1,5.3-0.1,7.1-2
	c1.4-1.6,0.9-4.3,2.8-5.2c1.5-0.7,3.2-0.6,4.8-1.2c3.2-1.3,4.3-5.3,5-8.7c0.8-4,1.6-8,2.4-11.9"/>
<path fill="none" stroke="#E1E1E1" stroke-miterlimit="10" d="M159.2,374.7c-4.9-10.2-14-18.3-24.6-22.1c-1.7-0.6-3.5-1.1-5-2.1
	c-7.2-4.7-5-15.6-3-23.9c1.5-6.1,2.3-8.8,1.4-13c-3.3-15.1-1.2-42.1-2.5-44.2c-2-3.3-4.6-0.8-4.4-8.8c0.5-16.2,2.5-38.6,4.4-48.3
	c0.3-1.6-2.2-3.8-3.5-4.7c-11.5-8.6-12.4-24.9-21.5-37.1c-6-7.9-6.8-11.2-4.2-18.2c1.4-4-6.9-3.3-6.4-7.5s3.7-11.6,6.3-15
	c11.2-14.4,23.9-27.6,37.9-39.3c2-1.7,4.2-3.4,6.8-3.5c2-0.1,4.2,0.9,6.1-0.1c1.6-0.9,2.3-3,3.9-3.8c2.6-1.3,5.5,1.6,6.2,4.5
	c0.7,2.9-0.4,7.2,2.3,8.4c6.4,3,14-2.6,19.8-6.5c2-1.4,4-3.1,4.7-5.5c1-3.6-1.7-7.4-5-9.1s-7.1-2.1-10.8-2.7c-1.3-0.2-2.8-0.8-2.9-2
	c-0.1-0.5,0.1-1,0.3-1.5C173.6,46.5,182,24,196.1,5c1.7-2.3,3.8-4.6,6.6-4.8c2-0.1,3.9,1,5.8,0.8c6.1-0.5,7.5-11.6,13.6-10.9"/>
<path fill="none" stroke="#E1E1E1" stroke-miterlimit="10" d="M128.9,166.1c1.1,0.6,2.4,0.4,3.6,0.2c1-0.1,2.1,0.1,2.9-0.4
	c2.7-1.8,4.2-8.3,1.2-9.5c-0.3-0.1-0.7-0.1-1-0.3c-1-1-1.9-2.3-1.8-3.7c0-0.6,0.3-1.2,0.3-1.9c0.1-0.6-0.2-1.4-0.7-1.6
	c-0.5-0.2-1.1,0-1.6,0c-1.6-0.1-1.9-2.3-3-3.5c-1.1-1.1-3.3-0.1-4.5,0.9c-0.7,0.6-1.2,1.4-1.9,2c-0.7,0.6-1.6,1.1-2.5,1
	c-0.4-0.1-0.9-0.4-1.3-0.1c-0.2,0.1-0.4,0.4-0.5,0.6c-0.5,1-0.7,2.1-0.8,3.2c-0.1,1.1,0,2.3,0.5,3.4c0.5,1,2,1,2.7,1.9
	c0.8,1.1-1.3,3.1-0.3,4c1.4,1.3,4-0.4,5.5,0.7C126.9,163.9,127.6,165.4,128.9,166.1z"/>
<path fill="none" stroke="#E1E1E1" stroke-miterlimit="10" d="M116.9,376.3c-1.6-4.1-0.5-10.8-4.7-12.3c-1.4-0.5-2.6,2.8-4,2.3
	c-1.8-0.7-3.1-1.8-4.5-3.2c-1.4-1.3,1.6-5.2-0.3-5.7c-4.3-1.4-3.9,11.5-8.3,10.5c-4.3-0.9,1.2-8.5,3.2-12.4
	c7.4-14.2,12.8-29.4,16-45c1.3-6.6,2.3-13.4,1.7-20.1c-0.5-5.4-1.9-10.6-3-15.8c-3.8-16.7,5.5-39-6.9-51c-2.5-2.4-5.8-3.7-6.3-7.1
	s0.2-6.8,0.1-10.3c-0.1-2.1-0.5-4.2-1.4-6.2c-0.7-1.5-1.6-2.8-2.5-4.2c-6.7-10.5-9.5-23.5-7.8-35.9c0.2-1.7,0.6-3.4,0-5
	c-0.5-1.4-1.7-2.5-2.6-3.6c-4.3-5.3-4.5-13.1-2-19.6c2.4-6.4,7-11.8,11.4-17c9.2-10.8,18.5-21.6,27.7-32.4
	c3.6-4.2,7.3-8.5,12.1-11.3c2.7-1.6,5.7-2.7,8.3-4.5c2.8-2,5-4.8,7-7.6c10.6-14.8,19-31.1,24.9-48.3c2.8-8.2,6.8-18.2,15.5-19.2"/>
<path fill="none" stroke="#E1E1E1" stroke-miterlimit="10" d="M65.7,374.4c0.7-25.1,27.3-43.3,29.3-68.4c0.6-8-1.4-15.9-3.4-23.7
	c-2-7.9-4-15.8-6.1-23.7c-1.8-7.2-3.7-14.6-3.2-22c0.3-5.4,7.1-11.8,3.4-15.8c-1.3-1.5-3-2.2-3.2-4.2c-3-23.6-5.9-47.1-8.9-70.7
	c-0.7-5.9-1.5-11.9-0.1-17.7c1.1-4.3,3.3-8.3,5.5-12.1c5.9-10.3,11.9-20.6,17.9-30.8c5.3-9.2,10.7-18.3,16-27.5
	c4.1-7,8.3-14.2,13.9-20c2.4-2.5,5-4.7,7.4-7.1c11.1-11.2,17.2-26.2,23.1-40.8"/>
<path fill="none" stroke="#E1E1E1" stroke-miterlimit="10" d="M53.2,374.8c1.7-18.4,4.2-36.8,6.7-55.1c0.8-5.7,1.6-11.4,2.3-17.1
	c0.3-2.4,0.7-4.8,1-7.2c1-7.6,9.5-18.5,3.1-22.9c-2.5-1.7-4.3-3.1-3.9-6.1c2.3-17.8,3-35.8,2.2-53.7c-0.9-18.9-3.4-37.7-5.3-56.6
	c-0.5-4.8-0.9-9.7-0.6-14.5c0.5-7.5,2.7-14.8,4.9-22.1c8.7-28.8,17.7-58.1,34.8-82.7c5.8-8.3,12.4-15.9,19.1-23.4
	c5.6-6.3,11.7-13.1,12.3-21.5"/>
<path fill="none" stroke="#E1E1E1" stroke-miterlimit="10" d="M40.1,374c-0.3-21.5,3.5-42.9,6.2-64.3c1.9-15.2,3.2-30.4,3.9-45.7
	c0.5-11.4,0.7-22.9-0.1-34.4c-1-13.6-4.8-26.7-7.7-40c-2-9.1-2.3-18.5-3.4-27.7c-1-7.8-1.9-15.6-1.8-23.5
	c0.5-42.5,30.7-78.8,40.3-120.3c1.2-5.3,2.2-10.9,5.2-15.5c3.2-4.8,8.5-8,11.8-12.8"/>
<path fill="none" stroke="#E1E1E1" stroke-miterlimit="10" d="M24.5,374.4c0.9-12.4,1.8-24.9,2.7-37.3c0.5-6.6,0.9-13.3,2.2-19.8
	c1-5.2,2.4-10.3,3.1-15.6c0.8-6,0.5-12,0.2-18c-0.8-15-2.2-29.9-4.1-44.8c-0.6-4.6-1.3-9.3-1.9-13.9c-0.4-3-0.9-6-1.3-9
	c-4-27.5-7.9-55.2-7.4-82.9c0.3-14.8,1.7-30.5-5.2-43.7c-1.1-2-0.5-3.7,1-5.4c1-1.2,1.7-1.3,3.2-1.8c1.5-0.5,2.7-4.6,1.1-4.4
	C1.1,80.2-9.6,90.5-16.6,99.2"/>
<path fill="none" stroke="#E1E1E1" stroke-miterlimit="10" d="M12.3,374.2c-1-9.7-1.4-19.5-1.1-29.3c0.1-2.5,0.2-5-0.5-7.3
	c-0.7-2.4-2.3-4.6-4.7-5.3c-0.8-0.2-1.7-0.3-2.2-1c-0.3-0.4-0.4-0.9-0.5-1.4c-1.7-9.2-1.2-18.8,1.4-27.8c0.6-2,1.3-4.2,0.5-6.1
	c-1-2.7-1.7-5.8-4.2-7.2c-1.1-0.6-1.9,2.7-3.1,2.2c-4.9-2,5.6-9.8,3.9-14.8c-0.7-1.9-3.4-2.5-3.7-4.5c-0.3-2,2-4.4,0.8-6.1
	c-1.7-2.4-5.5-2.5-6.3-5.3c-0.4-1.6-0.3-3.3-0.8-4.9c-0.5-1.6-2.5-4-3.6-2.8c-3.1,3.3,3,8.6,3,13.1c0,2.1-0.9,4.1-1,6.2
	c-0.1,2.1,0.8,4.6,2.8,5.1c0.8,0.2,1.8,0.2,2,1c0.1,0.4-0.2,0.9-0.4,1.3c-3.3,4.6-7.1,8.9-11.3,12.6"/>
<path fill="none" stroke="#E1E1E1" stroke-miterlimit="10" d="M-12.7,61.7C-1,47.8,10.7,33.9,22.4,20C30.9,9.9,39.5-0.3,50.2-8
	c1.4-1,2.8-1.9,4-3.2"/>
<path fill="none" stroke="#E1E1E1" stroke-miterlimit="10" d="M-16.4,47.1C-10,40-3.6,32.9,2.7,25.7c2.5-2.8,5-5.6,7.3-8.6
	c3.2-4.4,5.9-9.2,8.9-13.7c4.3-6.6,9.4-12.7,15-18.2"/>
<path fill="none" stroke="#E1E1E1" stroke-miterlimit="10" d="M-12.3,27.1c2.1,0.7,4-1.3,5.3-3.1c3.3-4.5,6.7-8.9,10-13.4
	c1.7-2.2,3.3-4.5,4.9-6.8C11-0.7,13.5-5.7,15.4-11"/>
<path fill="none" stroke="#D6D6D6" stroke-miterlimit="10" d="M306.6,268.8c1.4,0.2,2.7,0.3,4.1,0.5c1.5,0.2,3.4,0.7,3.6,2.2
	c0.1,0.5,0,1.1,0.2,1.5c0.3,0.5,0.9,0.5,1.5,0.7c1.3,0.4,2,1.7,3.1,2.4c1.8,1.2,4.1,0.9,6.2,0.7c0.6-0.1,1.2-0.1,1.7,0
	c0.6,0.1,1.2,0.4,1.8,0.7c3.1,1.5,6.2,3.1,9.1,5c0.9,0.6,1.8,1.3,2.9,1.4c0.9,0.1,1.8-0.2,2.7-0.1c2.1,0.3,3.3,2.3,4.7,4
	c1.9,2.2,4.5,3.8,7.4,4.5c1.2,0.3,2.5,0.4,3.6,0.9c0.6,0.3,1.1,0.7,1.6,1c3.1,1.9,6.8,1.8,10.4,1.7"/>
<path fill="#EAEAEA" stroke="#D6D6D6" stroke-miterlimit="10" d="M346.5,175.9c-0.1-1.3,0.1-2.6-0.9-3.3c-0.4-0.3-1-0.4-1.3-0.8
	c-0.7-0.8-0.3-2-0.5-3c-0.4-2.1-3.4-2.6-4.3-4.6c-0.1-0.3-0.2-0.6-0.4-0.9c-0.3-0.4-0.8-0.6-1.3-0.7c-1.6-0.6-3.5-1.1-4.8-0.1
	c-0.4,0.3-0.7,0.6-1.1,0.6c-0.4,0-0.7-0.4-1.1-0.4c-0.2,0-0.5,0.1-0.6,0.3c-1.8,1.4-2.5,3.6-4.6,4.4c-0.7,0.2-2,0.2-2.7,0.5
	c-1.1,0.4-2,1.2-2.9,2c-2.2,2-2.3,1.8-4.2,4.1c-0.5,0.6-2,4.3-2.4,4.9c-0.6,0.7-1.9,1-2.3,1.8c-0.8,1.2-0.9,3-1.4,4.3
	c-0.5,1.3-1.5,2.2-2,3.5c-0.5,1.3-1.1,2.6-1.2,3.9c-0.3,4,3.1,8.1,6.7,9.9c0.6,0.3,4,2.2,4.2,2.7c1.3,2.3,2.4,2.5,5.2,2
	c0.5-0.1,2.8,0.2,3.6,0.7c1.7,1,3.8-0.4,5.7,0.1c1.3,0.3,2.6,1.3,3.8,0.6c0.4-0.2,1.3-0.7,1.5-1.1c1.7-3.9,3-7.7,5.4-11.2
	c2.2-3.2,3.2-7.1,3.9-10.9C346.8,182.1,346.7,179,346.5,175.9z"/>
<path fill="#EAEAEA" stroke="#D6D6D6" stroke-miterlimit="10" d="M344.4,91.4c-0.4-0.3,0.2-1,0.1-1.5c-0.1-0.6-0.1-1.1-0.1-1.7
	c0.1-0.7-0.2-1.5-0.9-1.5c-0.5,0-0.8,0.5-1.2,0.7c-0.6,0.3-1.3,0.1-2,0.2s-1.5,0.5-1.4,1.1c0.1,0.4,0.4,0.6,0.6,0.9
	c0.9,1.2-0.1,3.1,0.7,4.5c0.4,0.6,1,0.9,1.6,1.2c0.8,0.4,1.6,0.7,2.4,0.8c0.7,0,1.4-0.2,2-0.5c1-0.3,2-0.8,2.3-1.8
	c0.3-1-0.4-2-1.2-2.8c-0.2-0.2-0.4-0.4-0.6-0.4c-0.2,0-0.3,0-0.5,0.1C345.9,90.9,345.1,91.8,344.4,91.4z"/>
<path fill="#EAEAEA" stroke="#D6D6D6" stroke-miterlimit="10" d="M347.6,79.1c0.6,0.1,1.2-0.3,1.5-0.8c0.3-0.5,0.4-1.2,0.5-1.8
	c0.2-0.8,0.3-1.9-0.4-2.4c-0.4-0.3-1-0.3-1.5-0.1c-0.5,0.2-0.8,0.6-1.2,1c-0.6,0.8-1.2,1.9-0.7,2.8c0.2,0.3,0.5,0.5,0.7,0.8
	C347,78.8,347.3,79,347.6,79.1z"/>
<path fill="#EAEAEA" stroke="#D6D6D6" stroke-miterlimit="10" d="M350,68.1c-0.7-0.2-1.7,0-1.8,0.8c-0.1,0.7,0.4,1.6,1.1,1.8
	c0.7,0.2,1.1-1.2,1.1-1.9c0-0.2,0-0.4-0.2-0.6C350.2,68.1,350.1,68.1,350,68.1z"/>
<path fill="#EAEAEA" stroke="#D6D6D6" stroke-miterlimit="10" d="M351.4,61.7c0.1,0.3,0.2,0.5,0.4,0.7c0.4,0.3,0.9-0.1,1.2-0.4
	c0.9-1.1,1.5-2.9,0.7-4.1c-0.4-0.6-1.4-0.5-1.9,0S351,59,351,59.7C351,60.4,351.2,61.1,351.4,61.7z"/>
<path fill="none" stroke="#D6D6D6" stroke-miterlimit="10" d="M344,87c1.7-2.3,1.3-5.6,2.5-8.3"/>
<path fill="none" stroke="#D6D6D6" stroke-miterlimit="10" d="M348.6,73.8c0.4-0.7,0.5-1.9,0.8-2.8"/>
<path fill="none" stroke="#D6D6D6" stroke-miterlimit="10" d="M350,68.1c0.4-0.7,0.5-1.6,0.7-2.3s0.4-2.9,1.1-3.3"/>
<path fill="none" stroke="#D6D6D6" stroke-miterlimit="10" d="M353.3,57.4c0.5-3.3,0.8-7.2,0-10.4c-0.2-1.1-0.6-2.3-1.3-3.2
	c-0.4-0.5-0.9-0.9-1.3-1.5c-0.9-1.4-0.7-3.2-0.8-4.8c-0.1-2.3-0.8-4.6-2-6.6c-0.9-1.4-1.7-4.3-2.1-5.2"/>
<path fill="none" stroke="#D6D6D6" stroke-miterlimit="10" d="M344.5,192.6c0.8-0.1,1.2,0.7,1.5,1.4c0.3,0.8,1.5,0.5,2.3,0.2
	c0.7-0.3,1.4-0.8,2.2-1c1.6-0.3,3.5,0.9,4.9,0c0.3-0.2,0.6-0.5,0.9-0.7c1-0.6,2.2,0,3.2,0.6c1,0.6,2.1,1.3,3.2,0.9
	c0.4-0.1,0.7-0.4,1.1-0.4c0.3,0,0.6,0.1,0.9,0.3c1.7,0.8,3.4,1.7,5.2,2.5"/>
<path fill="none" stroke="#D6D6D6" stroke-miterlimit="10" d="M320,91.3c-0.9-1.8-0.3-4.1,0.7-5.9c1-1.8,2.3-3.5,2.8-5.4
	c0.4-1.6,0.3-3.2,0.5-4.8c0.5-5.9,4.1-11.3,4.4-17.2c0.1-2-0.2-4,0.4-5.9c0.5-1.5,1.5-2.8,2.2-4.2c1.4-2.6,1.8-5.6,1.6-8.5
	c-0.1-1.8-0.5-3.7,0.3-5.2c1-2,3.3-2.9,5.4-3.8c6.1-2.7,10.9-7.6,16.3-11.5c1.2-0.9,2.5-1.7,4-2.1c1.1-0.2,2.3-0.1,3.4-0.6
	c2-0.9,2.6-3.4,3.6-5.4c1.3-2.6,3.8-4.6,6.6-5.4"/>
<path fill="#7BBCEB" stroke="#4E9BD7" stroke-miterlimit="10" d="M160.7,180c1.1,0.4,0.3,2.3,0,3.4c-0.2,0.6-0.5,1.1-0.3,1.7
	c0.1,0.4,0.3,0.7,0.5,1c1,1.6,0.4,3.7,0.1,5.5c-0.4,1.9-0.4,4.1,1,5.3c1.6,1.2,3.8,0.5,5.8,0.5c0.4,0,0.8,0,1.2,0.2
	c0.4,0.3,0.6,0.7,0.9,1.2c0.9,1.4,2.5,2.1,4.1,2.4s3.2,0.1,4.8-0.1c3-0.4,6.1-1.1,8.5-3c0.9-0.7,1.7-1.6,2.7-2.2
	c2.2-1.3,5-0.8,7.6-0.5c2.6,0.2,5.7-0.2,6.9-2.5c0.4-0.7,0.5-1.6,0.6-2.4c0.1-1.1,0-2.3-0.7-3.1c-0.4-0.4-0.9-0.7-1.3-1
	c-1-1-1.1-2.6-0.9-4c0.2-1.4,0.6-2.8,0.3-4.2c-0.6-2.4-3-3.7-5.2-4.8c-4.5-2.2-9.3-4.7-11.5-9.3c-0.4-0.8-0.7-1.7-1.5-2.3
	c-0.5-0.4-1.1-0.5-1.8-0.7c-3.2-0.7-6.6-1.1-9.8-0.5c-3.2,0.6-6.4,2.5-7.9,5.4c-0.3,0.5-0.5,1.1-0.9,1.6c-1.1,1.4-3,1.7-4.7,1.2
	c-1.6-0.5-3-1.6-4.3-2.7c-0.7-0.7-1.5-1.4-2.4-1.7c-1-0.3-2.2,0.1-2.5,1.1c-0.3,1,0.5,2,0.7,3c0.4,2-1.3,4.3,0,5.9
	c0.3,0.4,0.8,0.7,1.2,1c0.7,0.8,0.1,1.8,0.1,2.9c0,1.6,3.1-0.1,4.7,0.4c0.7,0.2,1.3,0.7,1.9,1.1C159.2,180.1,160,179.7,160.7,180z"
	/>
<path fill="#EAEAEA" stroke="#D6D6D6" stroke-miterlimit="10" d="M160.9,88.5c-0.3-0.9-0.6-1.7-1-2.6c-0.4-1,0.3-4.7,0.7-5.4
	c0.6-0.8,2-0.5,2.6-1.2c0.5-0.5,0.7-1.2,1.3-1.6c0.5-0.4,1.2-0.4,1.8-0.4c1.6,0,3.4-0.5,4.6,0.5c0.9,0.7-1.5,1.9-1.2,3
	c0.1,0.4,0.4,0.6,0.7,0.9c1.6,1.5,1.6,4.2,0.1,5.7c-0.2,0.2-0.5,0.5-0.9,0.6c-0.5,0.2-1.1,0.1-1.6,0.1c-1.2,0.1-2.1,1-3.1,1.7
	c-1,0.7-2.4,1.1-3.3,0.3C161.4,89.6,161.1,89,160.9,88.5z"/>
<path fill="none" stroke="#4E9BD7" stroke-miterlimit="10" d="M152.4,178.9c-5.4,5.2-4.1,12.4-7.4,18.2c-1.8,3.1-6,4-9,7
	c-1,1-1,2-2,3c-3,3-7.2,2.6-11,5c-9.6,6.1-17.9,10.5-27,17c-1.1,0.8-2.9,0.2-4,1c-5.4,3.9-12.2,6.1-20,8c-7,1.7-9,11.5-17,11
	c-4-0.2-8,0.4-12,0c-10.1-1-18.7,7.5-28.1,8.8c-1.4,0.2-3.2,0.5-4.5,0.9c-3.8,1.1-7.5,2.6-10.9,4.7c-0.4,0.3-0.9,0.5-1.1,1
	c-0.3,0.5-0.3,1.1-0.6,1.5c-0.2,0.2-0.4,0.4-0.7,0.6c-1,0.7-2.4,1.5-3.4,2.2"/>
<path fill="none" stroke="#D6D6D6" stroke-miterlimit="10" d="M160.8,80.7c0-0.5-0.7-0.5-1-0.8c-0.9-1.1,0.7-2.9,0.1-4.2
	c-0.8-1.5-2.5-2-4.1-2.5c-1.6-0.5-3.3-1.5-3.4-3.2c0-0.7,0.3-1.5-0.1-2.2c-0.4-0.7-1.3-0.9-2.1-1.1c-2.4-0.6-4.4-2-6.4-3.4
	c-1.1-0.8-2.3-1.6-3.1-2.8c-0.4-0.6-0.6-1.2-1-1.8c-1.1-1.6-2.9-2.4-3.9-4c-1.2-1.8-2.8-2.9-3.8-4.8c-1.1-2.1,0.2-4.7,0.8-7
	c0.6-2.4,3.2-4.1,3.2-6.5c0-2.3-2.1-3.8-3.6-5.6c-1.6-1.9-1.7-4.6-2.7-6.8c-1.3-2.6-5.1-2.8-7.5-4.4c-2.4-1.6-4.1-4.1-6-6.4
	c-2.6-3.2-5.5-6.1-8.7-8.7c-0.6-0.5-1.3-1-2.1-1.2c-2.2-0.6-5.2,3-6.7,1.2C98.1,3.9,98,3,97.2,2.6c-0.8-0.3-1.7-0.5-2.4-1.1
	c-1-1-0.8-2.7-1.5-4c-0.8-1.6-2.9-2.1-4.6-1.9s-3.4,0.9-5.2,1.3c-1.3,0.3-2.6,0.4-3.9,0.5c-5.1,0.7-10.1,2.8-14.1,6.2
	c-2.3,1.9-5.1,2.3-7.7,3.7c-2.2,1.2-3.3,3.6-4.5,5.8c-2.1,3.8-4.8,7.3-7.9,10.2c-1.6,1.5-3.3,2.8-4.4,4.7c-0.8,1.4-1.3,3-1.7,4.5
	c-2,6.7-5.1,13.1-9,18.8c-0.5,0.7-1,1.5-1.3,2.4c-0.3,0.9-0.3,1.8-0.4,2.8c-0.7,10-5.2,20.8-14.5,24.6c-2.6,1-3.9,3.6-5.1,5.7
	c-1.1,2.1-2.8,3.8-3.9,5.8c-2.7,5.2-4.7,10.7-6,16.4c-0.4,1.9-0.8,3.7-1.1,5.6c-0.3,1.6-0.6,3.2-0.9,4.8c-1.4,7.8-2.9,15.6-4.3,23.4
	c-0.5,3-1.1,6.1,0,8.9c0.9,2.3,2.8,4.1,4.1,6.2c1.3,2.1,2,5,0.4,6.9c-0.4,0.5-1.1,1-1.2,1.7c-0.4,1.3,1,2.4,1.9,3.4
	c2.8,3.1,2,7.9,0.9,12c-1.2,4.8-2.5,9.9-1.2,14.7c0.6,2.4,1.6,4.9,0.9,7.3c-0.2,0.9-0.7,1.7-0.8,2.6c-0.3,1.9,0.8,3.8,1.2,5.7
	c0.7,3.8-1.3,7.5-3.5,10.7c-0.9,1.4-1.9,2.7-2.3,4.3c-0.3,1.2-0.2,2.5-0.3,3.7c-0.2,3.4-1.3,6.7-2.4,9.9c-0.9,2.7-1.9,5.4-1.7,8.3
	c0.1,1.5,0.4,2.9,0.8,4.3c1.5,5.7,2.9,11.5,4.4,17.2c0.3,1.3,0.7,2.5,1.4,3.6c0.9,1.3,2.4,2.5,2.4,4c0,0.8-0.4,1.5-0.9,2.2
	c-2.2,3.5-4.6,7.1-4.4,11.2c0.2,2.6,1.5,5.1,1.8,7.7c0.3,2.4-0.2,4.9-1,7.2c-1.5,4.5-4,8.8-7.7,11.7"/>
<text transform="matrix(1 0 0 1 219.1504 45.1578)"><tspan x="0" y="0" fill="#585858" font-family="'Verdana-Italic'" font-size="8">Stanton</tspan><tspan x="12.5" y="9.6" fill="#585858" font-family="'Verdana-Italic'" font-size="8">Peak</tspan></text>
<text transform="matrix(1 0 0 1 139.1111 150.2761)"><tspan x="0" y="0" fill="#7BBCEB" font-family="'Verdana-Italic'" font-size="8">Spiller</tspan><tspan x="0" y="9.6" fill="#7BBCEB" font-family="'Verdana-Italic'" font-size="8">Lake</tspan></text>
<text transform="matrix(1 0 0 1 312.5193 217.205)"><tspan x="0" y="0" fill="#585858" font-family="'Verdana-Italic'" font-size="8">Soldier</tspan><tspan x="0" y="9.6" fill="#585858" font-family="'Verdana-Italic'" font-size="8">Lake</tspan></text>
<path fill="none" d="M82.3,237.4c-0.5,7.4,1.4,14.8,3.2,22c2,7.9,4,15.8,6.1,23.7c2,7.8,4,15.7,3.4,23.7"/>
<text transform="matrix(0.2477 0.9688 -0.9688 0.2477 82.4077 257.5857)"><tspan x="0" y="0" fill="#7D7D7D" font-family="'Verdana-Italic'" font-size="7">1</tspan><tspan x="4.5" y="0" fill="#7D7D7D" font-family="'Verdana-Italic'" font-size="7" rotate="0">0</tspan><tspan x="8.9" y="0" fill="#7D7D7D" font-family="'Verdana-Italic'" font-size="7" rotate="0">0</tspan><tspan x="13.4" y="0" fill="#7D7D7D" font-family="'Verdana-Italic'" font-size="7" rotate="0">0</tspan><tspan x="17.8" y="0" fill="#7D7D7D" font-family="'Verdana-Italic'" font-size="7" rotate="0">0</tspan></text>
<path fill="none" d="M37.2,138.6C37.7,96,67.9,59.7,77.5,18.3"/>
<text transform="matrix(0.3878 -0.9217 0.9217 0.3878 51.1318 90.823)"><tspan x="0" y="0" fill="#7D7D7D" font-family="'Verdana-Italic'" font-size="7">9</tspan><tspan x="4.4" y="0" fill="#7D7D7D" font-family="'Verdana-Italic'" font-size="7" rotate="0.7">6</tspan><tspan x="8.8" y="0.1" fill="#7D7D7D" font-family="'Verdana-Italic'" font-size="7" rotate="1.3">0</tspan><tspan x="13.3" y="0.2" fill="#7D7D7D" font-family="'Verdana-Italic'" font-size="7" rotate="1.7">0</tspan></text>
<path fill="none" d="M155.8,216.9c15.1-4.6,30.7-7.6,46.4-9.1"/>
<text transform="matrix(0.974 -0.2267 0.2267 0.974 169.0977 215.907)"><tspan x="0" y="0" fill="#7D7D7D" font-family="'Verdana-Italic'" font-size="7">1</tspan><tspan x="4.4" y="0" fill="#7D7D7D" font-family="'Verdana-Italic'" font-size="7" rotate="1.1">0</tspan><tspan x="8.8" y="0.1" fill="#7D7D7D" font-family="'Verdana-Italic'" font-size="7" rotate="2.1">8</tspan><tspan x="13.2" y="0.2" fill="#7D7D7D" font-family="'Verdana-Italic'" font-size="7" rotate="3.2">0</tspan><tspan x="17.6" y="0.5" fill="#7D7D7D" font-family="'Verdana-Italic'" font-size="7" rotate="4.3">0</tspan></text>
<path fill="none" d="M238.7,235.1c9.4-6.7,20.5-11,32-12.3"/>
<text transform="matrix(0.8808 -0.4734 0.4734 0.8808 245.165 233.9002)"><tspan x="0" y="0" fill="#7D7D7D" font-family="'Verdana-Italic'" font-size="7">1</tspan><tspan x="4.3" y="0" fill="#7D7D7D" font-family="'Verdana-Italic'" font-size="7" rotate="3.7">1</tspan><tspan x="8.6" y="0.3" fill="#7D7D7D" font-family="'Verdana-Italic'" font-size="7" rotate="7.4">0</tspan><tspan x="12.8" y="0.8" fill="#7D7D7D" font-family="'Verdana-Italic'" font-size="7" rotate="11.1">0</tspan><tspan x="17" y="1.6" fill="#7D7D7D" font-family="'Verdana-Italic'" font-size="7" rotate="14.8">0</tspan></text>
<path fill="none" d="M335.8,340.4c5.7-6.1,5.2-15.6,7.1-23.8c0.5-2.3,1.3-4.5,2.3-6.6c1.5-3.3,3.8-6.6,7.3-7.6"/>
<text transform="matrix(0.1867 -0.9824 0.9824 0.1867 342.9121 331.5652)"><tspan x="0" y="0" fill="#7D7D7D" font-family="'Verdana-Italic'" font-size="7">1</tspan><tspan x="4.6" y="0" fill="#7D7D7D" font-family="'Verdana-Italic'" font-size="7" rotate="-2.5">0</tspan><tspan x="9" y="-0.2" fill="#7D7D7D" font-family="'Verdana-Italic'" font-size="7" rotate="-1.2">0</tspan><tspan x="13.2" y="-0.4" fill="#7D7D7D" font-family="'Verdana-Italic'" font-size="7" rotate="4.1">0</tspan><tspan x="17.3" y="-0.1" fill="#7D7D7D" font-family="'Verdana-Italic'" font-size="7" rotate="11">0</tspan></text>
<g>
	<g>
		<polyline fill="none" stroke="#7D7D7D" stroke-miterlimit="10" points="85.2,341.6 85.2,348.7 275.4,348.7 275.4,341.7 		"/>
		<line fill="none" stroke="#7D7D7D" stroke-miterlimit="10" x1="180.5" y1="341.4" x2="180.5" y2="348.7"/>
		<line fill="none" stroke="#7D7D7D" stroke-miterlimit="10" x1="161.2" y1="349.2" x2="161.2" y2="343.7"/>
		<line fill="none" stroke="#7D7D7D" stroke-miterlimit="10" x1="142.4" y1="349.2" x2="142.4" y2="343.7"/>
		<line fill="none" stroke="#7D7D7D" stroke-miterlimit="10" x1="123.3" y1="349.2" x2="123.3" y2="343.5"/>
		<line fill="none" stroke="#7D7D7D" stroke-miterlimit="10" x1="104.6" y1="349.2" x2="104.6" y2="343.7"/>
	</g>
	<text transform="matrix(1 0 0 1 83.7835 339.1469)" fill="#7D7D7D" font-family="'Verdana'" font-size="8">0</text>
	<text transform="matrix(1 0 0 1 174.2946 339.1469)" fill="#7D7D7D" font-family="'Verdana'" font-size="8">0.5</text>
	<text transform="matrix(1 0 0 1 258.3415 339.1469)" fill="#7D7D7D" font-family="'Verdana'" font-size="8">1 mi</text>
</g>
</svg>
