<?xml version="1.0" encoding="utf-8"?>
<!-- Generator: Adobe Illustrator 17.1.0, SVG Export Plug-In . SVG Version: 6.00 Build 0)  -->
<!DOCTYPE svg PUBLIC "-//W3C//DTD SVG 1.1//EN" "http://www.w3.org/Graphics/SVG/1.1/DTD/svg11.dtd">
<svg version="1.1" id="Layer_1" xmlns="http://www.w3.org/2000/svg" xmlns:xlink="http://www.w3.org/1999/xlink" x="0px" y="0px"
	 viewBox="0 0 360 360" enable-background="new 0 0 360 360" xml:space="preserve">
<path fill="none" stroke="#E1E1E1" stroke-miterlimit="10" d="M362.3,351.5c-0.4,0.2-0.7,0.4-1.1,0.7c-1.4,0.9-2.9,1.8-3.8,3.1
	c-0.5,0.8-0.8,1.6-1.3,2.4c-0.8,1.3-2,2.2-3.3,3.1c-2.9,2.1-5.8,4.2-8.7,6.3c-1.4,1-2.9,2.2-2.9,3.9"/>
<path fill="none" stroke="#E1E1E1" stroke-miterlimit="10" d="M363.3,224.3c-10.6,3.6-26.9,13.3-32.6,3.7c-1.7-2.8-2.6-5.8-5.3-7.5
	c-4.7-3-9.9-6-15.3-5.2c-5.5,0.8-4.5,6.8-6.3,12c-0.4,1.3-2.7,1.1-4.1,0.9c-2.4-0.4-2.3-4.1-2.9-6.5c-0.5-2.4-4.1-5.9-5.1-3.7
	c-1.5,3.3,4.6,9.1,1.4,10.8c-8,4.4-12.1,12.5-14.4,18.2c-2,5.2-17.7-6.7-25.1-10.9c-4-2.3-9-7.1-12.9-4.6c-3.2,2.1,0.6,7.9-1,11.3
	c-1,2.1-3,3.4-4.9,4.6c-18.8,12.2-34.4,32.9-32.4,55.3c0.4,4.9,1.4,10.7-2.4,13.9c-1.8,1.5-4.3,1.9-6.6,2.2c-3.8,0.5-8.1,0.8-10.7-2
	c-2.2-2.3-2.3-5.8-2.2-8.9c0.1-7.5,0.1-14.9,0.2-22.4c0-4.6,2-9.3,0.3-13.7c-1.7-4.3-4.1-8.5-4.6-13.1c-0.3-2.6,0-5.2-0.5-7.7
	c-0.8-3.7-3.4-6.7-5.3-10c-1.9-3.3-4.4-8.7-1.2-10.8c3.1-2,4.6,5,7.3,7.5c2.5,2.2,6.3,1.8,9.6,1.3c8.8-1.4,17.7-2.9,25.6-6.8
	c4.2-2,9.2-2.3,12.8-5.2c2.1-1.6,1.6-5,2.5-7.5c0.3-0.9,0.6-1.8,1.2-2.5c1.4-1.7,4-1.6,6.2-1.5c9.7,0.7,20.1,0.8,28.4-4.2
	c1.7-1,3.3-2.2,5.2-2.8c3-1,7.1-0.7,8.3-3.6c0.5-1.3,0.2-2.8,0.1-4.3c-0.8-8.1,5.9-15.4,6-23.5c0.1-4.8-1.9-10.4,1.4-13.9
	c0.8-0.9,1.9-1.5,2.7-2.4c0.9-1,1.4-2.4,1.8-3.7c2.7-8,5.5-16,8.2-24c0.7-2.2,1.5-4.5,1-6.8c-0.7-3.3-4-5.5-7.3-6.6
	c-3.3-1.1-6.8-1.5-9.8-3.1c-2.3-1.2-4.3-3.2-6.9-3.9c-2.6-0.7-3.5,2.3-5.9,3.4c-7.8,3.6-7.4-15.3-7-23.8c0.3-6.7,1.3-13.5,0.8-20.2
	c-0.2-2.9,2-7.8-0.5-9.2c-3.5-1.9-8.5,4.4-11.5,1.8c-2.1-1.8-1.5-6.4-4.2-7c-3.4-0.9-6.3-2.4-8.1-5.4c-1.2-1.9-2.3-3.8-3.5-5.7
	c-1.3-2.1-2.6-4.4-2.2-6.8c0.3-1.9,1.7-3.4,2.6-5.1s2.3-4.8,0.4-5.4c-3.5-1.1-5.9,4.1-8.5,6.8c-2.5,2.6-6.8,7.1-9.5,4.7
	c-1.5-1.4,0.4-5-1.3-6.2c-2.8-2-6.7-2.8-6.3-6.1c0.2-1.8,1-4.1-0.5-5.1c-0.9-0.6-2.1-0.2-3.1-0.3c-2.7-0.2-4.2-3.1-5.2-5.7
	c-1.7-4.3-3.3-9.4-0.8-13.2c0.9-1.5,2.3-2.6,3.7-3.6c3.1-2.4,6.2-4.7,9.3-7.1c0.7-0.5,1.5-1.1,2.4-1.3c2-0.3,3.6,1.4,5.3,2.5
	c1.8,1.1,4.1,1.5,6.2,1c1.7-0.4,3.2-1.3,4.9-1.7c3-0.7,6.2,0.5,8.6,2.4c2.4,2,4,4.7,5.3,7.5c0.8,1.8,1.6,3.6,2.7,5.1
	c1.2,1.6,2.8,2.9,4.4,4.1c6.6,5.1,17.2,17.2,22,10.4c1-1.4,0.5-3.6,1.9-4.5c1.5-1,3.3-1.2,5.1-1.3c3.5-0.3,7-0.5,10.6-0.5
	c0.9,0,1.8,0,2.5-0.6c0.4-0.3,0.7-0.9,1.1-1.2c1.8-1.7,4.8,0,7.1-0.9c2.4-1,2.7-4.3,4.6-6.1c0.7-0.6,1.5-1.1,2.3-1.5
	c1.6-0.9,3-2.1,4.3-3.3c5.7-5.2,10.2-11.8,12.9-19"/>
<path fill="none" stroke="#E1E1E1" stroke-miterlimit="10" d="M362,335.7c-4.4,2.5-8.3,5.7-11.4,9.7c-2.4,3-4.1,11.2-7.3,8.9
	c-2-1.5-3.8-3.2-4.2-5.7c-0.1-0.8,0.3-1.6,0.6-2.3c6.7-13,13.4-25.9,20.2-38.9c0.9-1.7,1.8-3.4,3.3-4.7c0.1-0.1,0.3-0.2,0.5-0.3"/>
<path fill="none" stroke="#E1E1E1" stroke-miterlimit="10" d="M246.6-16.9c1.2,8.8,11,11.2,18.4,16.1c4.4,2.9,7.9,7.7,13,6.5
	c0.7-0.2,1.5-0.4,2.2-0.2c0.4,0.1,0.8,0.5,1.1,0.7c1.3,0.8,3.1,0.6,4.6,0.3c4.1-0.7,8.3-1.4,11.4-4.1c1-0.9,1.9-2,2.7-3.1
	c3.5-4.5,7.1-9.1,10.6-13.6c0.7-0.9,1.5-2,1.3-3.1"/>
<path fill="none" stroke="#E1E1E1" stroke-miterlimit="10" d="M341.1-12.4c-1.8,2,0.7,5.3-0.3,7.8c-0.5,1.2-1.7,2-2.9,2.7
	c-8.8,5.1-17.5,11.1-22.7,19.9c-0.9,1.5-1.8,3.2-3.3,4.1c-3.2,2-7.5-0.3-11.2,0.8c-4.2,1.2-5.9,6.3-6.2,10.7
	c-0.3,4.4,1.7,10.9-2.3,12.8c-9.5,4.3-19.6-13.6-29.4-10c-3.9,1.4,1,8,3.5,11.2c2.5,3.2,5.5,6.5,5.8,10.6c0.1,1,0,2.1,0.5,3.1
	c0.4,0.7,1,1.1,1.5,1.7c0.9,1.1,1.1,2.6,1.3,4c1,8.8-3.4,20.3,3.1,26.3c5.6,5.2,15.2,3.4,20.9,8.5c1.7,1.5,3.2,3.1,5.3,4
	c5.2,2.2,12.5-1.5,16.3,2.8c1.7,1.9,1.9,4.6,2,7.1c0.4,9,0.3,19.2-6.4,25.2c-4.4,4-11.4,5.8-13.2,11.5c-0.5,1.5-0.5,3.1-0.7,4.7
	c-0.9,5.2-4.5,9.4-7.1,14c-2.6,4.8-4.1,10.2-4.3,15.6c-0.1,2.1,0.3,4.5,2.2,5.4c2.8,1.2,5.2-2.4,6.9-4.9c2.3-3.4,6-5.9,10-6.2
	c4.1-0.3,8.4,1.9,10,5.7c1,2.3,0.9,5,2,7.3c1.2,2.6,3.6,4.4,5.9,6c3.5,2.5,6.9,4.9,10.4,7.4c0.6,0.4,1.2,0.8,1.8,0.9
	c1.2,0.2,2.4-0.6,3.4-1.3c1.7-1.3,3.3-2.5,5-3.8c3.1-2.3,7.5-2.5,11.1-3.6c1.4-0.4,3.1-0.9,4.2,0.1c0.2,0.2,0.4,0.4,0.6,0.7"/>
<path fill="none" stroke="#E1E1E1" stroke-miterlimit="10" d="M364.2,182.4c-4.5,0.2-8.9,0.2-13.3-0.6c-8.8-1.7-16.5-6.8-23.6-12.3
	c-3.1-2.4-6.3-5.1-7.5-8.8c-1.2-3.7,0.6-8.6,4.4-9.4c1.3-0.3,2.7,0,4-0.5c2.7-1,3.2-4.5,3.9-7.4c2.1-8.2,8.9-14.1,13.2-21.4
	c4.6-7.9,6-17.5,3.8-26.3c-0.2-1-0.5-2-1.3-2.6c-1-0.8-2.5-0.9-3.1-2c-0.4-0.9,0-1.9-0.1-2.8c-0.1-2.3-2.7-3.5-5-3.8
	c-2.3-0.3-4.7,0-6.6-1.3c-2-1.3-3.9-4.3-6-3.1c-1.8,1-1,3.7-1.5,5.6c-0.7,2.6-4.6,3.7-6.6,1.8c-0.6-0.5-1-1.3-1.6-1.7
	c-0.9-0.7-2.1-0.8-3.1-1.1c-1.6-0.5-3-1.6-4.3-2.6c-3.9-3.1-7.8-6.2-11.6-9.3c-1.6-1.3-3.2-2.5-4.2-4.3c-2.3-4.1-0.2-10,4.2-11.6
	c1.1-0.4,2.2-0.6,3.1-1.2c2.1-1.5,2-4.6,2.6-7.2c0.9-4.6,4.5-8.3,8.4-10.9s8.3-4.4,12.3-7c5.2-3.4,9.4-8,13.6-12.5
	c3.2-3.5,6.4-7,9.6-10.4c2.1-2.3,4.3-4.7,5.7-7.6c2.1-4.5,2-9.9-0.4-14.2"/>
<path fill="none" stroke="#E1E1E1" stroke-miterlimit="10" d="M361.7-16.8c-1,1-0.1,2.7,0.5,4c1.2,2.6,0.7,5.7-0.5,8.3
	c-1.2,2.6-3.1,4.8-4.8,7.1c-2.6,3.4-4.9,7.1-6.8,10.9c-0.4,0.7-0.8,1.5-1.3,2.1c-0.4,0.5-0.8,0.8-1.2,1.3c-1.1,1.3-1.6,3-2.3,4.6
	c-2.4,5.4-7.1,9.2-11.7,12.8c-1.8,1.4-3.6,2.8-5.7,3.5c-0.7,0.2-1.4,0.4-2,0.7c-0.7,0.4-1.1,1.1-1.8,1.5c-0.9,0.7-2.1,0.8-3.2,1.1
	c-4.9,1.5-8.1,7-7,12c0.1,0.5,0.3,1,0.6,1.4c0.3,0.3,0.7,0.5,1.1,0.7c4.1,1.9,8.1,3.8,12.2,5.8c2.4,1.1,4.8,2.3,7.2,3.4
	c4.5,2.1,9.1,4.3,14,5.3c0.7,0.1,1.5,0.2,2.1-0.1c0.7-0.4,1-1.2,1.1-2.1c0.3-2.7-1.2-5.3-1.9-7.9c-0.5-1.7-0.6-3.4-0.7-5.2
	c-0.2-10.2,3.9-20.5,11.1-27.8c0.7-0.7,1.4-1.4,2.1-2.1"/>
<path fill="none" stroke="#E1E1E1" stroke-miterlimit="10" d="M338.8,45.5c0.6,0,1.2,0,1.7-0.3c0.4-0.3,0.7-0.7,1-1.2
	c1.6-2.8,4.8-6,3.4-8.8c-1-2.2-5-1-6.8,0.6c-0.8,0.7-1.4,1.6-1.9,2.5c-0.6,1-1.3,2.1-1.5,3.3c-0.2,1.2,0.1,2.6,1.1,3.3
	C336.6,45.5,337.7,45.6,338.8,45.5z"/>
<path fill="none" stroke="#E1E1E1" stroke-miterlimit="10" d="M363.3,75.3c-2.7-1.1-5.4-2.3-8.1-3.4c-0.9-0.4-3-0.5-2.6,0.5
	c1.7,3.9,4.5,7,5.1,11.2c0.4,2.5,0.7,5,1.1,7.5c0.7,5.2,1.5,10.4,1.5,15.6c0,2.9-0.2,5.8-0.6,8.7c-0.4,2.9-0.9,5.7-1.8,8.5
	c-0.8,2.5-2,5-3.2,7.4c-1.9,3.9-3.8,7.9-5.7,11.8c-1.9,4-4.1,8.3-8.1,10.4c-1,0.5-2.5,1.4-1.9,2.5c1.5,2.8,5.1,3.5,7.8,5.2
	c1.2,0.8,2.2,1.7,3.3,2.5c3.6,2.3,8,2.8,12.3,2.6c0.5,0,1.1-0.1,1.6-0.1"/>
<path fill="none" stroke="#E1E1E1" stroke-miterlimit="10" d="M364.1,132.4c-0.4,0.3-0.7,0.6-1,1c-0.8,1.3-0.9,2.9-1.3,4.4
	c-0.9,3.5-3.2,6.5-4.1,9.9c-0.1,0.5-0.2,1-0.1,1.5c0.1,0.3,0.2,0.6,0.3,0.8c0.7,1.5,1.7,2.8,3,3.7c1.3,0.8,2.8,1.2,4.3,1.3"/>
<path fill="none" stroke="#E1E1E1" stroke-miterlimit="10" d="M258.1,371.4c1.6-3.8,6.3-5.3,9-8.4c2.3-2.6,4.8-10.3,7-7.5
	c0.9,1.1,0.3,2.8,1.6,3.3c1.3,0.5,2.9-1.1,4.1-0.3c2,1.2-2.8,4.5-1.8,6.6c0.8,1.6,3.5,0.8,5.3,1.2c1.1,0.3,2.2,0.6,3,1.3
	c1.6,1.3,2.1,3.6,2.4,5.6"/>
<path fill="none" stroke="#E1E1E1" stroke-miterlimit="10" d="M298.5,371.8c-0.3-2.6,1.8-4.9,3.2-7.1c1.5-2.4,2.3-5.2,2.3-7.9
	c0-4.3-1.8-8.6-1.3-12.9c0.2-1.8,0.9-3.5,1.3-5.3c1.4-5,1.5-10.2,1.6-15.4c0-2.3,0.1-4.6-0.5-6.8s-2.1-4.3-4.2-5.1
	c-1-0.4-2.2-0.6-2.8-1.5c-0.2-0.3-0.4-0.8-0.6-1.1c-0.9-1.4-3.1-1.2-4.4-0.3s-2.3,2.4-3.5,3.5c-1.2,1.1-3.1,1.8-4.5,0.9
	c-0.6-0.4-0.9-1-1.5-1.4c-1.5-1.2-3.8-0.9-5.3,0.3c-1.5,1.2-2.5,2.9-3.3,4.6c-3,5.8-6.1,11.5-9.4,17.1c-1.6,2.8-3.3,5.6-5.6,7.8
	c-3.4,3.3-8,5-11.8,8c-2.6,2.1-4.9,4.8-8,6.1c-1,0.4-2,0.7-2.9,1.2c-0.7,0.5-1.3,1.1-1.9,1.7c-4.2,4.7-7.2,10.5-8.4,16.7"/>
<path fill="none" stroke="#E1E1E1" stroke-miterlimit="10" d="M214.5,371.7c0.7-3.3,2.1-6.4,4.2-9.1c0.9-1.1,1.8-2.1,2.4-3.4
	c0.6-1.3,0.8-2.7,1.1-4c1.2-6,4.5-11.3,7.7-16.5c0.6-1,1.2-2,2.1-2.7c0.9-0.8,2.1-1.2,3.2-1.8c2.4-1.3,4.2-3.4,6.1-5.3
	c6.2-6.3,13.8-11.1,22.1-14.2c0.8-0.3,1.7-0.6,2-1.4c0.3-0.6,0.2-1.3,0.3-2c0.4-2.1,2.8-3.1,4.4-4.5c2-1.7,2.9-4.3,4.3-6.5
	c5.1-8.4,15.3-11.9,24.7-14.8c1.3-0.4,2.7-0.8,4.1-0.6c1.5,0.2,2.7,1.1,3.8,2.1c1.7,1.7,2.8,3.9,3.9,6.1c1.5,3.1,3.1,6.1,4.6,9.2
	c0.8,1.6,1.7,3.3,2.2,5c2.4,7.9,1.9,16.4,0.8,24.6c-0.8,5.7-4.4,10.8-3.5,16.5c0.5,2.9,1.5,5.8,0.9,8.6c-0.3,1.6-1.2,3.1-1.9,4.6
	c-2,4.5-2.5,9.6-1.4,14.4"/>
<path fill="none" stroke="#E1E1E1" stroke-miterlimit="10" d="M363.8,239.7c-0.1,0-0.3,0-0.4,0c-2.2,0-4.4,0.5-6.5,0.2
	c-2.5-0.3-4.8-1.4-7.2-1.7c-2.5-0.3-5,0.3-7.5,0.6c-7.1,0.8-14.7-1-21.3,1.8c-3.7,1.6-7,7.3-10.6,5.5c-2-1-3.9-1.3-5.7-0.1
	c-3.3,2.1-5.5,6.1-9.3,7.3c-1.8,0.6-3.2-3-5-2.5c-0.5,0.2-1,0.5-1.4,0.9c-6.3,5.7-12.8,11.6-16,19.5c-0.6,1.4-1.1,3-2.3,3.9
	c-0.9,0.7-2.2,1-3.4,1.2c-2,0.4-4.1,0.8-6.2,0.3s-4-1.9-4.3-4c-0.2-1.1,0.1-2.3-0.2-3.4c-1.1-2.9-5.5-1.8-8.4-2.9
	c-2-0.7-2.5-3-3.3-4.9c-0.6-1.5-2.8,0.6-3.6,1.9c-5.1,8.1-16.9,10-21.8,18.3c-2.4,4-2.7,8.9-2.9,13.6c-0.1,1.7-0.2,3.3,0.2,5
	c0.4,1.6,1.1,3.2,1.5,4.8c0.6,2.9-0.2,5.9-1.3,8.6c-4.1,11.1-11.5,20.5-18.9,29.7c-0.4,0.5-0.9,1.1-1.5,1.2
	c-0.8,0.2-1.7-0.4-2.3-0.9c-3.4-2.6-7.2-5.1-11.4-5c-2.3,0.1-4.6,0.9-6.9,1.2c-2.3,0.3-5-0.1-6.3-2c-0.5-0.8-0.8-1.7-1.1-2.6
	c-2.3-7.6-4.5-15.2-5-23.1c-0.2-3.8-0.4-8.4-3.6-10.4c-0.9-0.6-2.1-0.8-3-1.4c-2.1-1.2-1.8-4-2.5-6.4c-4.5-17.4-21.6-29.2-22.9-47.1
	c-0.2-3.5-0.2-7.2,1.3-10.4s5.4-3.5,8.2-5.7c2.4-1.9,1.1-6.1,2.9-8.5s5.5-0.9,8-2.7c2.7-1.9,0.1-6.6,1.2-9.6
	c0.3-0.8,0.7-1.6,1.3-2.1c1.2-1,3-0.9,4.5-1s1.9-2.1,3.3-2.7c5.4-1.9,7,9.2,10.4,13.7c2.1,2.8,5.5,6,8.7,4.6
	c1.1-0.5,1.9-1.4,2.9-1.8c1.2-0.5,2.7-0.4,4-0.2c5,0.9,10.5,2.7,14.9,0.1c1.4-0.9,2.6-2.2,4.2-2.9c1.3-0.6,2.7-0.7,4-1.2
	c1.4-0.6,2.5-1.6,3.6-2.5c6.8-5.5,15.5-8.7,24.3-8.7c0.9,0,1.9,0,2.7-0.4c0.8-0.4,1.3-1.3,2-1.9c1.6-1.5,4.1-1.9,6-1
	c1.2,0.5,2.2,1.5,3.4,1.8c0.9,0.2,1.8,0,2.7-0.3c9.3-2.7,15.2-12.4,16.2-22.1c0.9-7.9-1-16.1-5.1-23c-0.5-0.8-1-1.5-1.7-2
	c-2.1-1.2-4.6,0.4-7,0.4c-3.4-0.1-5.7-3.7-6.4-7c-0.6-3.4-0.2-6.9-1.2-10.2c-1-3.3-4.5-3.7-7.7-5c-4.1-1.7-0.2-8.9,2-12.8
	c2.2-3.9,5-7.7,5.7-12.1c0.7-4.3-0.6-8.7-1.9-12.9c-0.9-2.8,0-5.6-1-8.4c-0.6-1.8-2.2-2.8-4.1-3.2c-3.7-0.9-1.7-7.3-4.5-9.9
	c-1.9-1.8-5-1.1-6.9-3c-2.6-2.7-5-5.7-7.2-8.8c-0.6-0.9-1.3-1.9-2.4-1.9c-1.1,0-2,1-2.7,1.9c-3.6,4.4-8.7,7.6-14.2,9
	c-1,0.2-2,0.4-2.9,1c-1.7,1.1-2.3,3.2-3.1,5s-3.1,4.2-4.7,2.9c-2-1.8-1.6-5.2-1.1-7.8c0.3-1.6,1-3.2,1-4.8c0-1.2-0.4-2.4-0.8-3.6
	c-3.7-11.6-7.5-23.2-11.2-34.7c-0.5-1.6-1.1-3.3-2.2-4.6s-3-2.1-4.6-1.5c-0.8,0.3-1.4,0.9-2.1,1.3c-3.8,2.2-8.4-0.6-11.9-3.3
	c-0.7-0.6-1.5-1.1-2-1.9c-0.7-0.9-0.9-2.1-1.2-3.2c-1.5-6.5-2.8-13-4.1-19.6c-1.1-5.8-2.1-12.4,1.6-17.1"/>
<path fill="none" stroke="#E1E1E1" stroke-miterlimit="10" d="M330,372.8c-0.3-5.2,3.4-9.7,5.2-14.7c0.3-0.8,0.5-1.7,0.3-2.5
	c-0.3-0.9-1.1-1.6-1.8-2.3c-3.8-4-2.4-10.7,0.7-15.3s7.4-8.4,9.5-13.5c3.6-8.8-0.1-19.9,5.5-27.5c1.4-1.8,3.2-3.3,5.3-4.3
	c2.8-1.3,5.9-1.5,8.8-2.4"/>
<path fill="none" stroke="#E1E1E1" stroke-miterlimit="10" d="M267.8,120.3c-0.5-0.7-1.9,0-2.5,0.7c-0.6,0.7-1.1,1.9-0.4,2.5
	c0.6,0.6,1.7-0.1,2.2-0.8C267.6,122,268.3,121,267.8,120.3z"/>
<path fill="none" stroke="#E1E1E1" stroke-miterlimit="10" d="M172.8,38.9c0.3-0.6,0.6-1.1,1.2-0.9c0.6,0.1,1.4,0.8,1.8,0.4
	c1.7-1.7-1.3-4.5-2.9-6.2c-1.4-1.4-2.8-2.9-4.5-3.8c-1.8-1-3.9-1.4-6-1.7c-0.8-0.1-1.8-0.2-2.2,0.5c-0.2,0.4-0.2,0.8-0.1,1.3
	c0.3,1.2,1,2.2,1.8,3.2c0.9,1.2,1.8,2.4,3,3.3c0.4,0.3,0.9,0.6,1.3,0.9c1,0.6,1.9,1.3,2.9,1.9C170.1,38.4,172.2,40.1,172.8,38.9z"/>
<path fill="none" stroke="#E1E1E1" stroke-miterlimit="10" d="M141.6-10.6c1.3,2.7,2.6,5.5,2.4,8.5c-0.1,3-2.2,6.1-5.2,6.3
	c-2.5,0.2-5.1-1.6-7.2-0.3c-2.7,1.7-1,6.4-3.1,8.8c-2.5,2.8-6.9,0.2-10.4-0.9c-3.4-1-7.4-0.2-10.1,2.2c-1.8,1.6-0.6,4.5,0.5,6.6
	c3.5,6.6,6.5,13.6,8.7,20.8c1.4,4.3,2.4,9.2,0.4,13.3c-1,2-2.8,3.7-3.5,5.8c-1.3,3.7,1.2,8.3,5,9.2s8.1-2.1,8.6-6
	c0.5-4-2.2-12,1.8-11.3c6.7,1.2,9.4,9.8,14.1,14.7c1.1,1.1,2.2,2.3,3.6,3c4,2,7.8-1.7,9.9-5.6c1.7-3.1,6.6,1.7,7.3,5.2
	c0.7,3.5,0.9,7.8,4,9.5c0.9,0.5,1.9,0.6,2.7,1.1c2.2,1.3,2.8,4.2,3.4,6.7c1.8,7.9,6.2,15.1,12.3,20.4c0.6,0.6,1.3,1.1,2.2,1.4
	c1,0.3,2,0.1,2.9-0.2c4.9-1.7,11.4-10.1,13.9-5.6c2.3,4.1-1.2,10,2.2,13.2c1.1,1.1,2.6,1.7,3.7,2.7c1.6,1.3,2.7,3.2,3.7,5
	c4.1,7.5,7.6,15.3,10.4,23.4c2,5.7,3.4,12.9-0.9,17.3c-0.8,0.9-1.9,1.6-2.6,2.6c-2.3,3.3-4.5,9.8-1,11.9c3.5,2.1,16.7-0.3,15,6.1
	c-0.7,2.5-5.9-0.2-7.5,1.8c-1.8,2.1,1.5,6.5-0.5,8.4c-1.8,1.7-5,0.1-7.5,0.2c-0.7,0-1.4,0-2,0.4c-0.7,0.4-1.1,1.3-1.5,2
	c-1.9,3.4-5.3,5.6-8.6,7.6c-3.8,2.4-7.7,4.8-12.1,5.6c-10.6,1.9-20.2-6-28.1-13.3c-5.2-4.8-8.6-16-15.5-14.4
	c-5.2,1.2-5.1,9.4-8.2,13.8c-1.7,2.4-3.6,5-6.4,6.1s-4.3-3-7.3-3c-6.1,0-2.4,11.9-3.7,17.8c-0.5,2.2-2.3,3.5-3.7,5.3
	c-4.4,5.8-1.6,14.3-3,21.4c-1.4,7.1-4,14-7.7,20.3c-4.5,7.7-14,17.1-9,24.4c2.5,3.6,8.5,0.9,12.8,1c9.9,0.3,17.1,9.4,21.7,18.2
	c1,1.9,1.9,3.8,2,5.9c0.1,2.4-0.8,4.8-1.3,7.2c-2,9.3,2.9,18.8,9.4,25.7c7.8,8.3,19.7,14.4,30.5,10.8c1.7-0.5,3.4-1.3,5.1-0.9
	c1.3,0.3,2.4,1.2,3.4,2.2c3.5,3.3,5.2,10.7,9.9,10.3c13.6-1.2,14.3-23.3,21.4-35c5.8-9.4,11.7-19.3,12.7-30.3c0.2-2.2,0.4-4.7,2.1-6
	c2.9-2.3,7,0.7,10.4,2.3c7.1,3.2,15.5-0.8,21-6.4c5.4-5.6,9.1-12.8,14.7-18.2c11.2-10.9,28.3-13.2,40.9-22.3
	c3.3-2.4,6.7-5.4,10.8-5.4c5.7,0,12,1.1,16.1,5.1c3.3,3.2,6.4,3.1,9.5,6.5c3.6,4.1,3.3,12-0.7,15.8c-1.9,1.8-4.9,1.5-7.2,2.7
	c-2.6,1.5-3.8,4.8-6.5,6.2c-4.1,2.2-9.2-1.4-13.7-0.4c-6,1.4-7.2,9.6-5.1,15.4c2.1,5.8,6.2,10.9,6.6,17c0.5,8.1-5.9,15.5-5.4,23.6
	c0.2,3.4,1.5,6.6,1.8,10c0.6,8.7-6.3,16.8-4.8,25.4"/>
<path fill="none" stroke="#E1E1E1" stroke-miterlimit="10" d="M139.9,368.2c-5.6-2.6-10.2-7.2-12.8-12.7c-1.2-2.5-1.9-5.1-3.3-7.5
	c-1.6-2.9-4-5.3-5.5-8.3c-2.2-4.4-2.2-9.6-2.4-14.5c-0.1-3.3-0.5-7-3-9.2c-2.6-2.3-6.6-2.2-9.9-1.1c-3.3,1-6.4,2.8-9.9,3.4
	c-3.4,0.5-7.5-0.6-8.9-3.8c-1.1-2.7,0-5.7,0.3-8.6c0.6-6.1-2.7-12.3-1.3-18.3c0.8-3.7,3.3-6.9,5.8-9.8c2.3-2.8,4.5-5.5,6.8-8.3
	c1.4-1.7,2.8-3.4,4.7-4.7c1.2-0.8,2.6-1.4,3.3-2.6c1-1.6,0.7-3.6,0.8-5.5c0.1-1.7,0.5-3.3,1.4-4.8c0.8-1.4,1.8-2.6,2.6-3.9
	c6.3-10,0.6-23.5,4.3-34.8c1.4-4.4,4.3-8.8,3.1-13.2c-0.5-1.6-1.4-3.1-2-4.7c-1.4-4.4,0.8-9.6-1.2-13.7c-0.7-1.5-2-2.7-2.9-4.2
	c-2.7-4-2.5-9.7,0.4-13.5c2.9-3.9,8.5-2.2,12.9-4.2c4-1.7,7.9-8.4,10.9-5.3c5.8,6.1-3.9,24.5,4.5,24.8c7.8,0.3,3.8-15.2,5.8-22.8
	c0.5-1.8,1.5-3.3,3.3-3.7c2.6-0.5,2.2-4.6,1.2-7.1c-1-2.5-3-5.7-1.1-7.6c2.5-2.6,6.5,1.8,10.1,1.7c1.6-0.1,2.7,1.7,4,2.6
	c0.3,0.2,0.7,0.4,1.1,0.5c0.8,0.2,1.6-0.3,2.3-0.8c2.4-1.6,4.7-3.2,7.1-4.8c0.9-0.6,2.1-1.3,3.2-1c2.5,0.8,1.6,5.6,4.1,6.2
	c1.5,0.3,2.7-1.1,3.5-2.4c1.5-2.4,3-4.7,4.5-7.1c0.7-1.1,1.4-2.3,1.6-3.6c0.2-1.3-0.4-2.8-1.6-3.3c-2.2-0.9-4,1.7-5.7,3.4
	c-1.4,1.4-3.4,2.3-5.3,2c-1.9-0.3-3.7-2-3.7-4c0-1.7,1.1-3.2,1.3-4.8c0.4-2.7-1.6-5.3-1-7.9c0.3-1.4,1.3-2.8,0.6-4.1
	c-0.9-1.6-3.5-1-4.8-2.3c-1.2-1.1-1.4-3.4-3-3.4c-0.7,0-1.2,0.5-1.9,0.7c-1.6,0.5-3.1-0.9-4.3-2.1s-3.1-2.3-4.4-1.2
	c-0.6,0.5-0.9,1.3-1.4,1.9c-1.7,1.8-4.9,0.4-6.2-1.7c-0.6-1-1.1-2.3-2.1-2.9c-1.4-0.9-3.3-0.4-4.8,0.4c-1.5,0.8-2.9,2.7-4.5,2.2
	c-3.8-1.3-5.7-5.8-7.6-9.3c-0.5-0.9-0.9-1.8-1.5-2.5c-2.3-2.6-6.4-1.6-9.9-2c-6.1-0.6-10.8-5.4-14.9-9.9c-0.5-0.5-0.9-1-1.4-1.5
	c-1.6-1.8-3.2-3.5-4.9-5.2c-3.5-3.5-7.4-7-8.9-11.7c-2-6.1-6.1-11.4-9.2-17.1c-0.4-0.7-0.8-1.4-1.4-1.9c-1.2-0.9-2.8-0.8-4-1.6
	c-1.2-0.8-1.6-2.6-0.9-3.9c0.5-0.9,1.4-1.5,2.1-2.2c2-2.1,2.4-5.2,2.1-8.1c-0.3-2.9-1-5.7-0.9-8.5c0.2-4.7,2.9-9.3,1.4-13.7
	c-1.7-4.9-8.1-7.5-8.5-12.7c-0.1-1.9,0.7-3.9,2.2-5.1"/>
<path fill="none" stroke="#E1E1E1" stroke-miterlimit="10" d="M26.4-12.1c-1,2.6,1.6,5.4,4.3,5.9s5.5-0.4,8.3-0.7
	c6.3-0.7,12.5,1.7,18.4,4.1c1,0.4,2.1,0.9,2.8,1.8c1.8,2.3,0,5.5-1.7,7.9c-2.6,3.8-4.9,7.8-6.9,12c-0.6,1.4-1.2,3.1-0.3,4.3
	c0.7,0.9,1.8,1.1,2.8,1.6c3.4,1.8,3.5,6.4,3.8,10.2c0.8,7.7,4.6,15.1,10.5,20c2.5,2.1,5.4,3.8,7.3,6.4c2.6,3.4,3.2,7.8,3.8,12.1
	c0.5,3.4,0.9,7.1-0.7,10.1c-1.6,2.9-4.7,4.5-7.3,6.6c-8.5,6.9-10.5,20.7-4,29.6c1.8,2.4,4.6,4.6,7.5,4.1c2.7-0.4,6.1-4.8,7.8-2.5
	c1.9,2.5-3.4,5-5.3,7.4s-0.7,8.3,2,6.8c6.1-3.4,20.9-3.5,17.8,2.8c-1.5,3-3.7,4.7-5.7,7.5c-1.8,2.5-5.8-1.8-8.3-3.5
	c-7.1-4.7-17-2.8-23.7-8.1c-1.1-0.8-2.1-1.8-3.4-2.2c-1.2-0.4-2.4-0.3-3.7-0.2c-4.7,0.4-9.4,0.8-14.1,1.2
	c-7.1,0.6-22.8,2.3-18.8,8.2c4.6,6.7,13.7,6.3,21.1,9.8c4.8,2.3,3.3,10.1,6.3,14.4s9.8,4.2,12.7,8.6c0.8,1.2-2.3,3.2-1.3,4.2
	c4,3.8,11.2-0.5,15.9,2.5s11.1,6.1,11.8,11.6c0.8,5.9-5,10.8-7.4,16.2c-0.7,1.6-1.4,3.2-1.2,4.9c0.3,1.7,2.5,1.4,3.6,2.8
	c2.7,3.3,1.4,8,4.6,10.8c2,1.8,3.9,3.5,5.9,5.3c2.5,2.3,5.9,3,8.6,5c4,3.1-2,8.7-4.5,13.1c-0.7,1.2,0.9,2.9,0.1,4.1
	c-0.5,0.8-1.8,0.5-2.4,1.2c-4.8,4.6-8.6,11-14.6,13.8c-1.1,0.5-2.2,0.9-3.4,1c-2.3,0.1-4.3-1.4-6.6-1.7c-2.8-0.4-5.5,1.2-8,2.7
	c-1.7,1.1-3.5,2.1-5.2,3.2c-0.7,0.4-1.4,0.9-2,1.5c-2.4,2.5-1.5,7.3,1.7,8.7c0.8,0.3,1.7,0.6,2,1.4c0.2,0.5,0,1.1-0.3,1.7
	c-2,4.6-4.5,9.3-4.1,14.3c0.1,1,0.3,2,0.1,3c-0.3,1.4-1.3,2.6-2.2,3.7c-3,3.6-5.3,7.8-7.7,11.9c-1,1.8-2.1,3.6-2.7,5.6
	c-0.5,1.7-0.8,3.6-1,5.4c-1.2,10.2-2.3,20.4-2.2,30.7c0.1,4.3,0.4,8.6,0.9,12.9"/>
<path fill="none" stroke="#E1E1E1" stroke-miterlimit="10" d="M65.8,372.5c-0.6-0.1-1.5,0.2-1.8-0.3c-1.1-1.7,0.7-4.6,2.6-5.5
	c2.4-1.2,5.5-0.1,7.9-1.3c3.7-2,6.2-6.7,10.4-7c1.5-0.1,3.2,0.5,3.8,1.9c0.7,1.3,0.2,3.1-0.7,4.2s-2.3,1.9-3.7,2.5
	c-1,0.5-2.1,0.9-2.8,1.8c-0.3,0.4-0.5,1-0.7,1.5c-0.8,2.2-1.2,4.6-1.4,7"/>
<path fill="none" stroke="#E1E1E1" stroke-miterlimit="10" d="M223.8,237.3c-1-0.4-2.1,0.2-3.1,0.8c-3.4,1.9-7.1,3.1-11,3.5
	c-6.4,0.8-15.2-4-19.4,0.9c-4.4,5.2,1.6,13.8,5.8,19.2c1.4,1.9,3.4,3.7,5.7,3.5c1.7-0.1,3.1-1.3,4.4-2.4
	c6.6-5.9,12.6-12.6,17.6-19.9c0.6-0.9,1.2-1.8,1.4-2.9C225.3,238.9,224.8,237.7,223.8,237.3z"/>
<path fill="none" stroke="#E1E1E1" stroke-miterlimit="10" d="M289.6,208.1c0-0.6-0.7-1-1.3-1.1c-0.6-0.1-1.2,0.2-1.8,0.4
	c-3.4,1.6-6.8,3.7-10.6,3.8c-0.8,0-1.7-0.1-2.5,0.2c-2.6,0.7-3.4,4.2-5.5,5.9c-0.3,0.2-0.6,0.4-0.8,0.7c-1,1-0.9,2.9,0.1,4
	s2.3,1.7,3.7,2.2c1.7,0.5,3.6,1.7,5.3,1.1c2.2-0.8,3.3-3.3,5-4.9c0.3-0.3,0.7-0.7,0.9-1.1c0.3-0.5,0.4-1,0.6-1.5
	c0.4-1.1,1.2-2,1.9-2.9c1.5-1.8,2.9-3.7,4.4-5.5C289.3,209,289.6,208.6,289.6,208.1z"/>
<path fill="none" stroke="#E1E1E1" stroke-miterlimit="10" d="M4.7,370.1c-1-4.1-2.1-8.2-1.5-12.4s3-8.3,7-9.7
	c1.2-0.4,2.5-0.5,3.7-0.9c1.4-0.4,2.7-1.1,3.8-2c2.6-2.1,4-5.2,5.3-8.3c1.6-3.8,3.3-7.5,4.9-11.3c3.2-7.3,6.4-14.7,7.1-22.6
	c0.2-1.8,0.2-3.7-0.1-5.5c-1.4-8.2-9.4-14-11.2-22.1c-0.9-3.8-0.4-8.1-2.5-11.4c-1-1.5-2.4-2.6-3.5-3.9c-3-3.3-4.7-7.9-4.5-12.4
	c0-0.8,0.2-1.7,0.7-2.3c1.1-1.3,3.3-1.1,4.1-2.5c0.6-1.1-0.1-2.7,0.6-3.8c0.3-0.5,0.9-0.8,1.4-1.3c1.4-1.4,0.8-3.7,0.4-5.7
	c-1.5-5.9-1.4-12.1-3.1-18c-1.5-5.1-2.7-10.1-2.2-15.3c0.4-3.7,0.1-7.3,2.4-10.2s6.1-4.5,9.8-4.2c3,0.3,5.4,3.6,8.4,3.4
	c2.9-0.2-1.1-4.2-1.7-7c-0.3-1.5,2.3-2.8,1.5-4.1c-0.8-1.4-2.9-1.1-4.3-1.9c-1.2-0.7-0.7-2.4-1.1-3.7c-0.5-1.4-2.8-0.5-4.3-0.2
	c-4.2,0.7-9.1,4.7-12.5,2.1c-1.4-1,1.6-3,1.6-4.7c0-2.2-4.7-1.4-5.6-3.4c-0.3-0.7-0.3-1.4-0.3-2.2c-0.1-3.3-1.6-6.4-3.2-9.3
	c-2.4-4.5-5.1-8.9-8-13.1c-0.8-1.2-1.7-2.5-2-3.9c-0.2-0.9-0.1-1.9,0-2.9c0.1-1.7,0.3-3.5,0.4-5.2c0.3-3.1,0.5-6.3,1.7-9.2
	c3.2-8.1,12.8-12.4,21.5-11.6c1.2,0.1,2.6,0.2,3.3-0.7c0.3-0.3,0.4-0.7,0.6-1.1c0.6-1.7,2.5-3.4,1.9-5.1c-1.3-3.3-2.7-6.4-5-9.1
	c-0.5-0.5-1.1-1-1.5-1.5c-2-2.2-1.8-5.5-1.6-8.5c0.3-3.6,2.1-7.4,0.3-10.5c-0.4-0.7-0.9-1.3-1.2-1.9c-1.1-2.2-0.1-5,1.5-6.8
	c1.6-1.9,5.8-2.3,5.7-4.7c-0.1-1.4-2.6-0.9-3.9-1.3c-1.3-0.3-2.8-1.1-3.1-2.5c-0.2-0.7,0.1-1.5-0.1-2.3c-0.2-0.9-0.9-1.7-1.6-2.3
	c-1.9-1.9-3.8-3.8-5.7-5.7c-0.4-0.4-0.9-0.8-1.4-0.9c-0.7-0.1-1.3,0.4-1.8,0.8c-2,1.7-3.9,3.4-6.3,4.6c-8.1,4.1-18.2,0.3-26.6,3.4"
	/>
<path fill="none" stroke="#E1E1E1" stroke-miterlimit="10" d="M5.9,85.3c-0.5,0.2-0.1,1.1,0.4,1.3c0.5,0.2,1.1,0.1,1.6,0
	c0.5-0.1,1.2,0.3,1.6,0c0.4-0.2,0.3-1,0-1.3C8.7,84.4,7,84.8,5.9,85.3z"/>
<path fill="#EAEAEA" stroke="#D6D6D6" stroke-miterlimit="10" d="M332.5,259.2c-0.5,0.2-0.8,0.6-1.2,0.9c-0.2,0.2-0.2,0.6,0,0.9
	s0.4,0.5,0.7,0.6c0.3,0.2,0.7,0.5,1,0.7c0.4,0.3,0.9,0.6,1.2,1c0.1,0.2,0.3,0.4,0.4,0.5c0.6,0.4,1.2,0.5,1.8,0.8
	c1,0.4,1.3-1.6,1.6-2.6c0.2-0.7,0.5-1.4,0.7-2.2c0.4-1.2,1.5-2.7,0.6-3.6c-0.5-0.5-1.4-0.6-2.2-0.5c-0.9,0.1-1.5,0.8-2,1.5
	c-0.5,0.7-1.1,1.5-1.9,1.7C333,259.1,332.7,259.1,332.5,259.2z"/>
<path fill="#EAEAEA" stroke="#D6D6D6" stroke-miterlimit="10" d="M299.3,234.7c-0.6-0.4-1.3-0.7-2-0.8c-0.5,0-1.1,0.1-1.6,0.2
	c-1,0.2-1.9,0.5-2.9,0.7c-0.5,0.1-1.1,0.4-1.1,0.9c0,0.2,0.1,0.4,0.3,0.6c0.3,0.3,0.5,0.7,0.9,0.9c0.3,0.2,2.8-0.9,3.7-1
	c1-0.2,2.1,0.2,2.8-0.5c0.2-0.2,0.3-0.5,0.2-0.8C299.5,234.8,299.4,234.7,299.3,234.7z"/>
<path fill="#EAEAEA" stroke="#D6D6D6" stroke-miterlimit="10" d="M285.5,237.8c-0.2,0.3-0.4,0.7-0.5,1.1c-0.1,0.2-0.1,0.4,0,0.5
	c0,0.2,0.2,0.3,0.3,0.4c0.5,0.3,1.1,0.1,1.5-0.4c0.3-0.4,0.4-1,0.3-1.6c0-0.1,0-0.2-0.1-0.3c-0.2-0.2-0.5-0.3-0.8-0.2
	C285.8,237.4,285.6,237.6,285.5,237.8z"/>
<path fill="none" stroke="#D6D6D6" stroke-miterlimit="10" d="M335.2,264.3c-2,5.2-7.9,7.7-12.8,10.4c-8,4.4-15.2,11.6-16.2,20.6
	c-0.1,1-0.2,2.1-0.6,3c-0.4,0.7-1,1.3-1.6,1.8c-2.4,2.2-4.8,4.3-7.1,6.5c-0.7,0.6-1.4,1.2-1.6,2.1c-0.3,0.9,0,1.9,0.2,2.9
	c0.8,4.8-0.3,9.6-0.6,14.4c-0.1,1.9-1.5,3.5-1.8,5.4c-0.6,3.3-3,6.1-5.6,8.2c-2.6,2.1-5.6,3.9-7.9,6.3c-4.3,4.4-6.2,10.5-7.7,16.5
	c-0.7,2.9-1.4,5.8-2,8.8"/>
<path fill="#EAEAEA" stroke="#D6D6D6" stroke-miterlimit="10" d="M75,251.7c-0.5-0.2-1-0.8-0.9-1.3c1.2-4,6.5-5.4,10.6-5.9
	c0.6-0.1,1.3-0.1,1.8,0.3c0.6,0.5,0.6,1.4,0.5,2.2c-0.1,1-0.2,2-0.9,2.7c-0.8,0.9-2,1.1-3.2,1.2c-2.1,0.3-4.1,0.5-6.2,0.8
	C76.2,251.9,75.6,251.9,75,251.7z"/>
<path fill="#EAEAEA" stroke="#D6D6D6" stroke-miterlimit="10" d="M52.1,249c0.2-0.9-0.1-1.9,0.3-2.6c0.5-0.8,1.7-0.9,2.3-0.2
	c0.5,0.6,0.5,1.4,1,2c0.3,0.4,1,0.4,1.3,0.8c0.3,0.4,0.8,0.5,1.1,0.9c0.3,0.5-0.7,0.8-1.2,1.1c-0.9,0.4-1.8,0.7-2.7,0.5
	c-0.6-0.2-1.2-0.6-1.6-1.1c-0.3-0.3-0.5-0.6-0.5-1C52,249.3,52.1,249.2,52.1,249z"/>
<path fill="#EAEAEA" stroke="#D6D6D6" stroke-miterlimit="10" d="M30.1,240.8c0.4-0.3,0.8-0.4,1.2-0.7c0.4-0.3,0.8-0.9,0.5-1.2
	c-0.6-0.7-1.7-0.4-2.5-0.2s-1.6,0.7-2.2,1.2c-0.3,0.2-0.6,0.5-0.8,0.9c-0.2,0.4-0.1,0.8,0.2,1.1c0.2,0.2,0.6,0.2,0.8,0.2
	c0.5,0,1.1,0,1.5-0.3C29.3,241.4,29.6,241.1,30.1,240.8z"/>
<path fill="none" stroke="#D6D6D6" stroke-miterlimit="10" d="M58.2,250.1c1.7,0.4,3.5,0.4,5.3,0c0.5-0.1,0.9-0.2,1.4-0.2
	c1,0.1,1.6,0.9,2.5,1.3c0.6,0.3,1.4,0.3,2.1,0.3c0.9,0,1.8,0.1,2.7,0.1c0.6,0,1.6-0.3,2-0.6"/>
<path fill="none" stroke="#D6D6D6" stroke-miterlimit="10" d="M31.9,239c-0.1,0.1,3.2-0.3,4.5,0.4c1.3,0.6,2.6,1.4,4,1.6
	c0.5,0,1.3,0.3,1.1,0.8c-0.8,2.8-0.6,5.9,0.5,8.7c0.1,0.3,0.2,0.5,0.5,0.7c0.2,0.1,0.5,0.2,0.7,0.2c2.8,0.2,5.8,0.3,8.3-1
	c0,0,0.1,0,0.1-0.1"/>
<path fill="none" stroke="#D6D6D6" stroke-miterlimit="10" d="M-19.1,235.6c1.5-0.4,2.6-1.5,3.6-2.7c1.3-1.5,2.6-2.9,3.9-4.4
	c0.8-0.9,1.7-1.9,2.9-2.1c0.7-0.2,1.4,0,2.2,0c3,0.2,6.1-0.7,8.9-1.7c1.3-0.5,2.7-0.9,3.9-0.4c1.3,0.5,2,1.8,2.5,3.1
	c0.8,1.8,1.3,3.7,1.8,5.6c0.1,0.6,0.3,1.3,0.5,1.9c0.3,0.7,0.7,1.4,1.1,2c1.2,1.8,2.4,3.8,4.4,4.8c1.6,0.8,3.4,0.8,5.1,0.9
	c1.7,0,3.5,0,4.8-1"/>
<path fill="#EAEAEA" stroke="#D6D6D6" stroke-miterlimit="10" d="M252.8,186.7c1.4,0.1,5.7,0.3,6.8,0.1c0.4-0.1,0.8-0.2,1.1-0.4
	c0.6-0.4,0.6-1.4,0.7-2.1c0.2-1.1,0.5-2.1,0.2-3.1c-0.2-0.5-0.4-1-0.7-1.5c-0.6-1.1-1.3-2.1-1.9-3.2c-0.1-0.2-0.3-0.4-0.5-0.5
	c-0.5-0.2-1,0.4-1.4,0.8c-1,1.1-2.7,1.5-4.3,1.4c-0.3,0-0.7-0.1-1,0.1c-0.4,0.2-0.6,0.6-0.8,1c-0.6,1.2-1.2,2.5-1.7,3.7
	c-0.1,0.3-0.3,0.6-0.3,0.9c0,0.3,0.1,0.6,0.2,0.8c0.2,0.4,0.3,0.9,0.5,1.3c0.1,0.2,0.1,0.3,0.3,0.5c0.1,0.2,0.4,0.2,0.6,0.3
	C251.3,186.8,252.1,186.6,252.8,186.7z"/>
<path fill="#EAEAEA" stroke="#D6D6D6" stroke-miterlimit="10" d="M192.5,138.4c-0.1,0.1-0.1,0.2-0.1,0.2c-0.1,0.5-0.2,1,0.1,1.5
	c0.1,0.1,0.2,0.3,0.4,0.4c0.6,0.5,1.1,1.3,1.8,1.2c0.3,0,0.6-0.3,0.8-0.6c0.2-0.2,0.4-0.5,0.4-0.8c0-0.3-0.3-0.5-0.5-0.8
	c-0.2-0.3-0.3-0.6-0.6-0.9c-0.5-0.5-1.3-0.5-2-0.4C192.7,138.3,192.6,138.3,192.5,138.4z"/>
<path fill="#EAEAEA" stroke="#D6D6D6" stroke-miterlimit="10" d="M158.1,123.2c-0.1-0.4,0-0.9-0.3-1.2c-0.4-0.4-1-0.2-1.3,0.2
	c-0.3,0.4-0.3,1-0.3,1.5c0,0.5,0,1.1,0.2,1.6c0.2,0.5,0.4,0.8,0.7,1.2c0,0.1,0.1,0.1,0.2,0.2c0.3,0.2,0.6-0.2,0.7-0.5
	c0.2-0.4,0.4-0.8,0.5-1.2c0.1-0.1,0.1-0.2,0.1-0.4C158.6,124.1,158.2,123.7,158.1,123.2z"/>
<path fill="none" stroke="#D6D6D6" stroke-miterlimit="10" d="M191,195.9c1,0.6,2.3,0.3,3.3-0.3c1-0.5,2-1.3,3.2-1.3
	c0.6,0,1.2,0.1,1.9,0.2c3,0.4,6-1.4,8.2-3.5c1.1-1,2.2-2.2,3.5-2.9c1.3-0.8,3-1.1,4.4-0.5c0.9,0.4,1.5,1.1,2.3,1.6
	c0.7,0.4,1.4,0.7,2.2,0.9c1.8,0.5,4,0.8,5.2-0.6c1.3-1.6,0.3-4.5,1.8-6c0.8-0.8,2-0.9,3.1-0.9c2.9-0.1,6.3-0.1,8.3,2.1
	c0.3,0.3,0.6,0.7,1,0.9c0.3,0.2,0.6,0.2,0.9,0.3c0.8,0.3,1.4,0.9,2.1,1.4c2.4,1.6,5.9,1.1,7.8-0.9"/>
<path fill="#EAEAEA" stroke="#D6D6D6" stroke-miterlimit="10" d="M271.9,141c0.3,0.3,0.8,0.3,1.2,0.3c0.6-0.1,1.2-0.4,1.7-0.7
	c1-0.5,0.5-2.5-0.4-2.4c-0.4,0-0.8,0.1-1.1,0.2c-0.6,0.2-1.1,0.5-1.5,1S271.5,140.6,271.9,141z"/>
<path fill="#EAEAEA" stroke="#D6D6D6" stroke-miterlimit="10" d="M277.3,118.4c-0.5,0.5-0.4,1.5,0.1,1.9c0.6,0.5,1.4,0.5,2,0.1
	c0.2-0.1,0.4-0.3,0.5-0.6c0.3-0.6-0.3-1.3-0.9-1.6C278.5,117.9,277.8,117.9,277.3,118.4z"/>
<path fill="#EAEAEA" stroke="#D6D6D6" stroke-miterlimit="10" d="M314,115.3c0.6,0.1,1.3-0.1,1.8-0.4c0.1-0.1,0.2-0.1,0.3-0.2
	c0.2-0.3,0-0.6-0.2-0.9c-0.4-0.5-1.2-0.8-1.8-0.8c-0.3,0-0.6,0.1-0.9,0.3c-0.2,0.2-0.3,0.6-0.2,0.8
	C313.2,114.4,313.6,115.2,314,115.3z"/>
<path fill="#EAEAEA" stroke="#D6D6D6" stroke-miterlimit="10" d="M237.1,121c-0.3,0-0.6,0.2-0.7,0.5c-0.2,0.3-0.2,0.6-0.2,0.9
	c0,0.5,0.1,1.1,0.6,1.1c0.1,0,0.1,0.1,0.2,0.2c0,0.1,0.2-0.1,0.2-0.1c0.5-0.6,1.2-1.6,0.7-2.3C237.7,121,237.4,121,237.1,121z"/>
<path fill="#EAEAEA" stroke="#D6D6D6" stroke-miterlimit="10" d="M241.4,113.4c-0.2-0.5-0.9-0.8-1.5-0.5c-0.5,0.2-0.9,0.8-0.9,1.4
	c-0.1,0.7,0.3,1.7,1,1.5c0.4-0.1,0.6-0.5,0.9-0.7C241.3,114.5,241.6,113.9,241.4,113.4z"/>
<path fill="#EAEAEA" stroke="#D6D6D6" stroke-miterlimit="10" d="M236.9,96.7c-0.9,0.3-1.2,1.4-1.5,2.3c-0.2,0.6-0.4,1.3-0.5,1.9
	c-0.1,0.5-0.3,1-0.3,1.5c-0.1,1.1,0.4,2.2,1.2,3c0.5,0.5,1.2,0.8,1.8,1.1c0.5,0.3,1.1,0.5,1.6,0.8c0.5,0.3,1.1,0.5,1.7,0.5
	c0.9,0,1.7-0.7,2.1-1.5c0.4-0.8,0.4-1.7,0.4-2.6c0-1.2-0.1-2.3-0.7-3.4c-0.6-1.2-1.8-2-2.9-2.7c-0.5-0.4-1.1-0.7-1.8-0.8
	C237.6,96.6,237.2,96.6,236.9,96.7z"/>
<path fill="#EAEAEA" stroke="#D6D6D6" stroke-miterlimit="10" d="M228.2,94.2c-0.4,0-0.6,0.3-0.8,0.7c-0.1,0.3-0.2,0.7-0.2,1.1
	c0,0.2,0,0.5,0.1,0.6c0.1,0.1,0.1,0.1,0.2,0.2c0.3,0.2,0.7,0.3,1,0.1c0.2-0.1,0.4-0.4,0.5-0.7c0.1-0.4,0.2-0.9,0.1-1.3
	C229,94.5,228.6,94.2,228.2,94.2z"/>
<path fill="#EAEAEA" stroke="#D6D6D6" stroke-miterlimit="10" d="M225.9,90.5c-0.7-0.2-1.6-0.1-2,0.5c-0.3,0.6,0.5,1.4,1.2,1.5
	s1.4-0.6,1.4-1.3c0-0.1,0-0.2-0.1-0.3C226.3,90.7,226.1,90.6,225.9,90.5z"/>
<path fill="none" stroke="#4E9BD7" stroke-miterlimit="10" d="M91.4,136.9c1.9,0.2,3.7,0.4,5.6,0.6c1.8,0.2,3.8,0.5,5.1,1.7
	c2.4,2.2,2.1,6.9,5.1,8.2c1.8,0.8,3.9-0.1,5.2-1.5c1.4-1.4,2.2-3.1,3.4-4.6c2.2-2.8,5.4-4.7,8.8-5.2c1.3-0.2,2.7-0.3,4-0.4
	c1.8-0.2,3.6-0.6,5.3-1.2c0.6-0.2,1.2-0.4,1.6-0.9c0.7-0.8,0.8-2,0.8-3c-0.1-3.6-0.5-7.2-1.3-10.8c-0.3-1.3-0.6-2.6-0.5-3.8
	c0.2-1.3,0.9-2.6,2.1-3c1.4-0.4,2.9,0.4,3.9,1.4c1,1,1.8,2.1,2.4,3.4c0.9,2,1.3,4.3,2.8,5.9c0.9,0.9,2,1.4,3.1,1.9
	c2.5,1.3,4.9,3,7.2,4.7c1.4,1,2.8,2,4.2,3c0.6,0.5,1.3,1,1.7,1.7c0.3,0.5,0.4,1.2,0.5,1.8c0.4,2.5,0.8,5,1.2,7.5
	c0.5,3,1.1,6.6,2.8,9.1"/>
<path fill="none" stroke="#4E9BD7" stroke-miterlimit="10" d="M-18.3,97.8c1.1-1,2.7-1.5,4.1-1.8c4.3-1,8.9-1.1,13.3-0.4
	c3.6,0.6,7.5,1.8,10.8,0.4c1.8-0.8,3.3-2.3,5.3-2.5c1.9-0.2,3.8,0.8,5.1,2.1c1.4,1.3,2.4,2.9,3.7,4.4c0.4,0.5,0.9,0.9,1.6,1
	c1.1,0.2,2.3-0.8,3.1-0.1c0.3,0.3,0.5,0.8,1,0.9c0.5,0.1,0.9-0.2,1.3-0.4c2.5-1.2,4.6,2.7,7.4,2.9c0.9,0.1,1.8-0.2,2.7-0.2
	c3.1,0.1,4.8,3.6,5.7,6.5c0.6,2,1.3,3.9,1.9,5.9c0.2,0.6,0.4,1.2,0.8,1.5c0.4,0.3,0.8,0.4,1.3,0.5c3.7,1,7.4,1.9,11.1,2.9
	c2.9,0.8,6.2,2,7,4.8c0.7,2.9-1.5,6.3,0.3,8.6c1.5,1.9,4.5,1.4,6.7,2.3c1.1,0.5,2.1,1.3,3.3,1.6c2,0.6,4-0.3,5.9-1.2"/>
<path fill="#EAEAEA" stroke="#D6D6D6" stroke-miterlimit="10" d="M181.6,32.2c-0.3-0.4-1.5-1-1.6-1.1c-0.1-0.1-0.3-0.1-0.5-0.2
	c-0.4-0.1-0.9-0.1-1.3,0c-0.4,0.1-0.8,0.4-1,0.8c-0.1,0.4,0.1,0.9,0.3,1.3c0.1,0.1,0.7,0.7,0.9,0.9c0.2,0.1,0.5,0.3,0.7,0.4
	c0.6,0.3,1.2,0.6,1.8,0.3c0.5-0.3,0.7-0.9,0.7-1.5C181.7,32.8,181.7,32.5,181.6,32.2z"/>
<path fill="#EAEAEA" stroke="#4E9BD7" stroke-miterlimit="10" d="M85.5,136.3c-0.3,0.4-0.4,0.9-0.4,1.4c0,1.3,0.6,2.4,1.2,3.5
	c0.5,0.8,0.9,1.6,1.6,2.3c0.5,0.5,1.2,1,1.9,0.9c1-0.1,1.5-1.2,1.5-2.2c0-1-0.3-1.9-0.3-2.9c0-1.1,0.4-2.3-0.3-3.1
	c-0.3-0.3-0.7-0.5-1.2-0.7c-0.7-0.2-1.5-0.4-2.2-0.3C86.6,135.3,85.9,135.6,85.5,136.3z"/>
<text transform="matrix(1 0 0 1 162.906 307.5532)" fill="#585858" font-family="'Verdana-Bold'" font-size="10" letter-spacing="8">WILDERNESS</text>
<text transform="matrix(1 0 0 1 50.1682 200.8158)" fill="#585858" font-family="'Verdana-Bold'" font-size="10" letter-spacing="8">ANSEL</text>
<text transform="matrix(1 0 0 1 72.8102 271.0799)" fill="#585858" font-family="'Verdana-Bold'" font-size="10" letter-spacing="8">ADAMS</text>
<text transform="matrix(1 0 0 1 171.2035 248.2368)" fill="#585858" font-family="'Verdana-Italic'" font-size="8">Redtop</text>
<text transform="matrix(1 0 0 1 252.3388 162.0161)"><tspan x="0" y="0" fill="#585858" font-family="'Verdana-Italic'" font-size="8">Spotted Lakes</tspan><tspan x="0" y="9.6" fill="#585858" font-family="'Verdana-Italic'" font-size="8">(upper)</tspan></text>
<text transform="matrix(1 0 0 1 189.1341 171.6617)"><tspan x="0" y="0" fill="#7BBCEB" font-family="'Verdana-Italic'" font-size="8">Spotted Lakes</tspan><tspan x="0" y="9.6" fill="#7BBCEB" font-family="'Verdana-Italic'" font-size="8">(lower)</tspan></text>
<text transform="matrix(1 0 0 1 52.3387 158.0795)" fill="#585858" font-family="'Verdana-Italic'" font-size="8">× 8956</text>
<text transform="matrix(1 0 0 1 30.4804 221.3629)" fill="#585858" font-family="'Verdana-Italic'" font-size="8">× 8793</text>
<text transform="matrix(1 0 0 1 203.315 248.5283)" fill="#585858" font-family="'Verdana-Italic'" font-size="8">× 9973</text>
<path fill="none" d="M319.8,160.6c1.2,3.7,4.4,6.4,7.5,8.8c7.1,5.5,14.8,10.6,23.6,12.3"/>
<text transform="matrix(0.7891 0.6143 -0.6143 0.7891 323.6734 169.8414)"><tspan x="0" y="0" fill="#7D7D7D" font-family="'Verdana-Italic'" font-size="7">1</tspan><tspan x="4.6" y="0" fill="#7D7D7D" font-family="'Verdana-Italic'" font-size="7" rotate="-1.9">0</tspan><tspan x="9.1" y="-0.1" fill="#7D7D7D" font-family="'Verdana-Italic'" font-size="7" rotate="-4.6">0</tspan><tspan x="13.7" y="-0.5" fill="#7D7D7D" font-family="'Verdana-Italic'" font-size="7" rotate="-8.3">0</tspan><tspan x="18.3" y="-1.2" fill="#7D7D7D" font-family="'Verdana-Italic'" font-size="7" rotate="-13.1">0</tspan></text>
<path fill="none" d="M211.8,119.1c1.6,1.3,2.7,3.2,3.7,5c4.1,7.5,7.6,15.3,10.4,23.4"/>
<text transform="matrix(0.4486 0.8938 -0.8938 0.4486 214.7711 128.191)"><tspan x="0" y="0" fill="#7D7D7D" font-family="'Verdana-Italic'" font-size="7">9</tspan><tspan x="4.4" y="0" fill="#7D7D7D" font-family="'Verdana-Italic'" font-size="7" rotate="1.7">2</tspan><tspan x="8.7" y="0.1" fill="#7D7D7D" font-family="'Verdana-Italic'" font-size="7" rotate="3.3">0</tspan><tspan x="13.1" y="0.4" fill="#7D7D7D" font-family="'Verdana-Italic'" font-size="7" rotate="5">0</tspan></text>
<path fill="none" d="M240.7,231.4c3.8-2.5,8.9,2.3,12.9,4.6c7.4,4.2,23.1,16,25.1,10.9"/>
<text transform="matrix(0.8397 0.5431 -0.5431 0.8397 248.9195 236.0894)"><tspan x="0" y="0" fill="#7D7D7D" font-family="'Verdana-Italic'" font-size="7">9</tspan><tspan x="4.5" y="-0.1" fill="#7D7D7D" font-family="'Verdana-Italic'" font-size="7" rotate="-1.1">6</tspan><tspan x="8.9" y="-0.2" fill="#7D7D7D" font-family="'Verdana-Italic'" font-size="7" rotate="-0.4">0</tspan><tspan x="13.4" y="-0.2" fill="#7D7D7D" font-family="'Verdana-Italic'" font-size="7" rotate="-1">0</tspan></text>
<path fill="none" d="M67.7,119.9c-6.5-8.9-4.5-22.7,4-29.6c2.6-2.1,5.7-3.7,7.3-6.6"/>
<text transform="matrix(0.4314 -0.9021 0.9021 0.4314 67.5137 100.5865)"><tspan x="0" y="0" fill="#7D7D7D" font-family="'Verdana-Italic'" font-size="7">8</tspan><tspan x="3.9" y="-0.1" fill="#7D7D7D" font-family="'Verdana-Italic'" font-size="7" rotate="11.8">8</tspan><tspan x="7.8" y="0.7" fill="#7D7D7D" font-family="'Verdana-Italic'" font-size="7" rotate="24.4">0</tspan><tspan x="11.7" y="2.6" fill="#7D7D7D" font-family="'Verdana-Italic'" font-size="7" rotate="27.6">0</tspan></text>
<path fill="none" d="M183.1,30.5c3.7,11.6,7.5,23.2,11.2,34.7"/>
<text transform="matrix(0.3081 0.9513 -0.9513 0.3081 185.2188 45.2984)"><tspan x="0" y="0" fill="#7D7D7D" font-family="'Verdana-Italic'" font-size="7">9</tspan><tspan x="4.4" y="0" fill="#7D7D7D" font-family="'Verdana-Italic'" font-size="7">4</tspan><tspan x="8.9" y="0" fill="#7D7D7D" font-family="'Verdana-Italic'" font-size="7">0</tspan><tspan x="13.3" y="0" fill="#7D7D7D" font-family="'Verdana-Italic'" font-size="7">0</tspan></text>
<g>
	<g>
		<path fill="none" stroke="#585858" stroke-miterlimit="10" d="M363.4,147.8c-2.3,1.8-4.9,3.6-7.5,5"/>
		<path fill="none" stroke="#585858" stroke-miterlimit="10" stroke-dasharray="0.9913,2.9738" d="M353.2,154.1
			c-0.8,0.3-1.5,0.7-2.3,0.9"/>
		<path fill="none" stroke="#585858" stroke-miterlimit="10" stroke-dasharray="17.8429,2.9738,0.9913,2.9738" d="M349.5,155.5
			c-0.9,0.2-1.7,0.4-2.5,0.5c-15,2.1-28.8,0.5-32,4.7c-3.9,5.1-16.2,18.2-19,23.3c-2.2,3.9-1.5,9-2,14c-1.5,16.2-20.2,20.1-34,23
			c-7.1,1.5-15-0.1-22,1c-6,0.9-6.9,8.1-10,13c-1.9,3-5,7-9,7c-1,0-2-0.2-3,0c-3.1,0.5-6.4,1.2-9,3c-8.1,5.5-17.2,8.8-25,14
			c-7.2,4.8-16,17-21.1,13c-4.1-3.2-0.9-10.3-3.2-15c-2.1-4.1-1.5-9.1-4.3-13.1c-0.7-0.9-1.6-7.8-1.8-9.5
			c-1.2-9.3-9.5-13.4-14.5-19.4s-2.7-14.6-6-22c-3.7-8.3-11.2-32.6-14.5-28.2c-4.6,6-13.6,11.2-22.5,5.2c-8.3-5.6-17.5-6-25.3-9.5
			c-2-0.9-3.5-2.3-6.5-2.7c-6.9-0.8-13.4-8.4-22-14.7c-6.5-4.8-14.9-1.9-21.2-6.2c-1.2-0.8-1-3-1.4-3.9c-1.4-2.8-8-3.1-10.9-1.8
			c-2.1,0.9-3,4-23.4,20.9"/>
		<path fill="none" stroke="#585858" stroke-miterlimit="10" d="M-17.8,153.2c-2.1,1.7-4.4,3.6-7,5.7"/>
	</g>
</g>
<g>
	<g>
		<path fill="none" stroke="#585858" stroke-miterlimit="10" d="M361.9,80.6c1.2,2.6,2,5.4,2.1,8.7"/>
		<path fill="none" stroke="#585858" stroke-miterlimit="10" stroke-dasharray="0.9117,2.735" d="M364,92.1c0,0.8,0,1.5,0,2.3"/>
		<path fill="none" stroke="#585858" stroke-miterlimit="10" stroke-dasharray="16.4098,2.735,0.9117,2.735" d="M364.1,95.7
			c0.5,13.4,2.6,24.6,2.6,38.7c0,1.1,0.7,3.3,1.2,5.3"/>
		<path fill="none" stroke="#585858" stroke-miterlimit="10" d="M368.2,141c0.2,1.2,0.3,2.2,0,2.5c-1.4,1.4-3,2.8-4.8,4.2"/>
	</g>
</g>
<g>
	<g>
		<path fill="none" stroke="#585858" stroke-miterlimit="10" d="M372-15.1c-2,2.3-3.7,4.7-5.3,7.3"/>
		<path fill="none" stroke="#585858" stroke-miterlimit="10" stroke-dasharray="0.8785,2.6356" d="M365.4-5.5c-0.3,0.6-0.7,1.3-1,2"
			/>
		<path fill="none" stroke="#585858" stroke-miterlimit="10" stroke-dasharray="15.8134,2.6356,0.8785,2.6356" d="M363.8-2.4
			C360.4,4.9,358,12.8,355,20c-2.6,6.2-10.3,8.9-13,16c-3.4,8.9-1.3,20.2,5,27c2.9,3.2,6.1,6.1,8.9,9.2"/>
		<path fill="none" stroke="#585858" stroke-miterlimit="10" d="M356.8,73.2c2,2.3,3.8,4.7,5.1,7.4"/>
	</g>
</g>
<g>
	<g>
		<polyline fill="none" stroke="#7D7D7D" stroke-miterlimit="10" points="85.2,341.6 85.2,348.7 275.4,348.7 275.4,341.7 		"/>
		<line fill="none" stroke="#7D7D7D" stroke-miterlimit="10" x1="180.5" y1="341.4" x2="180.5" y2="348.7"/>
		<line fill="none" stroke="#7D7D7D" stroke-miterlimit="10" x1="161.2" y1="349.2" x2="161.2" y2="343.7"/>
		<line fill="none" stroke="#7D7D7D" stroke-miterlimit="10" x1="142.4" y1="349.2" x2="142.4" y2="343.7"/>
		<line fill="none" stroke="#7D7D7D" stroke-miterlimit="10" x1="123.3" y1="349.2" x2="123.3" y2="343.5"/>
		<line fill="none" stroke="#7D7D7D" stroke-miterlimit="10" x1="104.6" y1="349.2" x2="104.6" y2="343.7"/>
	</g>
	<text transform="matrix(1 0 0 1 83.7837 339.1468)" fill="#7D7D7D" font-family="'Verdana'" font-size="8">0</text>
	<text transform="matrix(1 0 0 1 174.2948 339.1468)" fill="#7D7D7D" font-family="'Verdana'" font-size="8">0.5</text>
	<text transform="matrix(1 0 0 1 258.3417 339.1468)" fill="#7D7D7D" font-family="'Verdana'" font-size="8">1 mi</text>
</g>
<path fill="#7BBCEB" stroke="#4E9BD7" stroke-miterlimit="10" d="M179.8,160.9c-0.8,1.1-0.4,2.6-0.6,3.9c-0.1,1-0.4,1.9-0.7,2.8
	c-0.3,1.1,0.3,2.8-0.7,3.4c-0.6,0.4-1.3-0.4-2-0.3c-0.7,0.1-1.1,0.7-1.7,1c-0.7,0.4-1.6-0.3-2.2-0.7c-0.6-0.4-1.1-1.2-1-2
	c0.1-0.5,0.5-1,0.5-1.6c0.1-1.1-1-1.9-1.3-3c-0.2-0.9,0.1-1.8,0.6-2.5s1.2-1.3,1.7-2.1c0.8-1.2,1.2-2.7,1.1-4.1
	c0-0.2-0.1-0.5-0.2-0.7c-0.4-0.4-1.1-0.2-1.5,0.1c-0.5,0.3-1.1,1.1-1.5,0.7c-0.2-0.3-0.4-0.5-0.7-0.6c-1-0.5-0.9-2.1-2-2.2
	c-1.1-0.1-2.1,1.5-1.8,2.5s1.1,1.9,1.5,2.9c0.5,1.5-0.1,3.1-0.5,4.6c-0.5,2.2-0.4,4.5,0.3,6.6c0.6,2,1.8,3.9,2.9,5.7
	c0.4,0.6,0.8,1.3,1.5,1.6c0.3,0.2,0.6,0.2,0.8,0.4c0.5,0.5,0.5,1.3,0.6,2c0.4,2.7,3.6,4,5,6.4c0.4,0.7,0.7,1.6,1,2.4
	c1,2.6,2.7,5,4.7,6.9c0.5,0.4,1,0.8,1.6,1c1,0.3,2.1,0,3.1,0.3c0.3,0.1,0.6,0.3,1,0.3c0.5,0,0.9-0.3,1.2-0.7c1.1-1,2.2-2.4,1.9-3.9
	c-0.3-1.4-1.6-2.3-2.8-3c-1.2-0.7-2.3-1.4-3.5-2.1c-0.6-0.4-1.3-0.8-1.7-1.4c-0.4-0.5-0.6-1.1-0.9-1.5c-0.4-0.5-0.9-0.8-1.4-1.1
	c-2.8-1.8-5.4-3.9-7.8-6.2c-0.5-0.5-1-1.5-0.5-1.9c0.2-0.2,0.4-0.2,0.7-0.2c3.2-0.3,6.3,1.6,9.5,1.3c0.5,0,1-0.2,1.3-0.5
	c0.4-0.3,0.6-1,0.3-1.3c-1.3-1.2-3.1-1.7-4.6-2.7c-0.3-0.2-0.6-0.4-0.6-0.8c0-0.3,0.2-0.5,0.3-0.8c0.8-1.1,0.1-2.7,0.7-3.9
	c0.5-0.8,1.8-0.6,2.7-0.9c0.3-0.1,0.6-0.2,0.8-0.4c0.4-0.5,0.3-1.3-0.1-1.8s-1-0.8-1.5-1.3c-0.1-0.1-0.3-0.2-0.3-0.4
	c-0.1-0.3,0-0.5,0.2-0.8c0.7-1.5,1.5-3,3-3.6c0.6-0.3,1.3-0.3,1.9-0.7c0.9-0.7,1-2.1,0.9-3.2c0-0.6-0.1-1.3-0.4-1.8
	c-0.3-0.6-0.8-1-1.5-1c-0.5,0-0.9,0.3-1.3,0.6c-0.7,0.5-1.4,0.9-1.9,1.6c-1.7,2.1-1.2,5.3-3,7.3
	C180.5,160.1,180.1,160.4,179.8,160.9z"/>
</svg>
