<?xml version="1.0" encoding="utf-8"?>
<!-- Generator: Adobe Illustrator 17.1.0, SVG Export Plug-In . SVG Version: 6.00 Build 0)  -->
<!DOCTYPE svg PUBLIC "-//W3C//DTD SVG 1.1//EN" "http://www.w3.org/Graphics/SVG/1.1/DTD/svg11.dtd">
<svg version="1.1" id="Layer_1" xmlns="http://www.w3.org/2000/svg" xmlns:xlink="http://www.w3.org/1999/xlink" x="0px" y="0px"
	 viewBox="0 0 360 360" enable-background="new 0 0 360 360" xml:space="preserve">
<path fill="none" stroke="#E1E1E1" stroke-miterlimit="10" d="M372,323.3c-5.3,0.7-10.7-0.5-15.9-1.7c-2.7-0.6-5.4-1.2-7.7-2.8
	c-2.4-1.7-4-4.4-6.2-6.4c-2.5-2.3-5.8-3.6-8-6.1c-1.8-2.1-2.7-4.8-3.5-7.5c-1.1-3.5-2.2-7-3.2-10.5c-1-3.2-2-6.4-2-9.8
	c-0.1-4.3,1.4-8.5,2.9-12.6c0.9-2.4,1.8-4.8,3.2-6.8c1.3-1.9,3.1-3.4,4.9-4.8c6.1-4.8,13-8.5,20.3-10.9c5.8-1.9,12-3.1,17.2-6.3"/>
<path fill="none" stroke="#E1E1E1" stroke-miterlimit="10" d="M369.6,201C358,213,345.3,225.8,329,232c-3,1.1-6.2-0.6-9-2
	c-9.7-4.8-17.9-13.9-29-10c-3,1-7.2,0.9-9,4c-1.1,1.9-3.1,2.9-5,5c-4.3,4.8-11.2,11.3-9,18c1.8,5.4,12.8,1.7,16,6
	c6.6,8.9-12.3,14.5-20,19c-3.1,1.8-6.1,5-4,9c4.8,9.1,17.4,18.7,11,30c-2.5,4.3-3.4,14.9-7.7,12.9c-3.5-1.6,5.7,2.6,0,0
	c-3.5-1.6-2.5-7-5.9-7.7c-4.5-1-8.9,1.8-12.6,4c-1.9,1.1-3.8,2.3-5.9,3c-2.6,0.9-4.2,1.4-5.8-0.8c-2.4-3.3-4.8-6.6-7.9-9.3
	c-12.7-11.5-21.8,8.6-38.2,11.4c-9.4,1.6-14.9,0.8-17,7.2c-0.8,2.4-1.1,5.4-1,7.4c0.5,7.1,7.6,18.1,0,22c-0.9,0.5-2.1,0.3-3,0
	c-7.3-2.7-8.5-14.3-4-21c3.6-5.3,1.1-9-1-15c-0.3-0.9,0.6-4.2,2-6c7.3-9.6,14.1-20.1,7-31c-2-3-4.9-5.2-8-7c-1.9-1.1-3-2-5-2
	s-3.4,1.7-4,3c-5.9,11.7-14.9,35-22.9,24.7c-3.6-4.6,9-11.1,6.4-16.4c-2.4-5.1-12-2.2-16.8,1.3c-3.8,2.8-0.5,9-3.8,12.8
	c-9.9,11.5-28.6,7.3-42.9,2.7c-5.1-1.7-7.9-8-10.5-12.7c-0.9-1.6-1.7-3.3-3.1-4.5c-1.9-1.7-4.6-2.1-6.9-3c-1.4-0.6-2.8-1.5-4.3-1.9
	c-2.6-0.8-5.4-0.4-8.1-0.5c-4.1-0.1-8-1.4-11.8-2.7c-3.4-1.1-6.9-2.3-10.3-3.4c-1.9-0.6-3.7-1.2-5.4-2.1c-1.3-0.7-2.5-1.5-3.8-2.2
	c-8.5-4.8-19-4.2-28.3-1.4"/>
<path fill="none" stroke="#E1E1E1" stroke-miterlimit="10" d="M142.9,378.3c-2.8-3.8-4.9-8.1-6.1-12.7c-0.8-3.1-1.3-6.4-2.6-9.4
	c-2.1-4.9-6.3-8.8-8.3-13.8c-0.7-1.7-1.1-3.5-1.9-5.1c-1.7-3.1-4.9-5-8-6.7c-7.2-3.8-15.4-7.3-23.4-5.3c-6.3,1.6-11.8,8.8-18,7
	c-6.3-1.8-10.7-7.7-14.6-12.9c-6-8.1-8.6-19.3-17.4-24.1c-3.3-1.8-7.2-2.4-10.9-2.9c-8.2-1.2-16.4-2.4-24.6-3.6
	c-1.3-0.2-2.6-0.4-3.8,0.1c-1.1,0.4-1.9,1.3-2.7,2.3c-4.1,5.5-5.3,13-3.2,19.5c0.4,1.4,1,2.7,1.2,4.1c0.2,1.7-0.3,3.4-0.7,5.1
	c-1.5,6.2-2.2,12.5-2.1,18.9c0,2,0.4,4.4,2.3,5.1c1.3,0.5,2.8-0.2,4-0.8c7.3-3.7,15.2-6.2,23.3-7.5c3.9-0.6,7.8-0.9,11.3-2.7
	c2.5-1.2,4.8-3.2,7.6-3.1c2,0.1,3.7,1.1,5.4,2.2c4.7,3,9.6,6.2,11.8,11.3c1.4,3.3,1.5,6.9,1.6,10.5c0.2,9.8,0.4,19.7,0.6,29.5"/>
<path fill="none" stroke="#E1E1E1" stroke-miterlimit="10" d="M73.7,382.7c0.1-6.2,0.6-12.5,1.4-18.7c0.4-3.2,0.9-6.4,2.2-9.3
	s3.7-5.5,6.8-6.4c3.1-0.9,6.4,0,9.6-0.6c1.7-0.3,3.3-1,5-1.3c4-0.6,8,1.1,11.6,3c3,1.6,6.1,3.3,8.4,5.9c3,3.4,4.4,7.9,5.7,12.2
	c1.6,5.2,3.2,10.4,4.8,15.6"/>
<path fill="none" stroke="#E1E1E1" stroke-miterlimit="10" d="M112.7,381.6c1.2-2.6,0-5.7-1.2-8.3c-1.5-3.3-3-6.5-5.2-9.4
	c-2.3-3-5.6-5.6-9.4-6c-5.3-0.6-10.2,3.1-13.5,7.3c-1.4,1.8-2.7,3.8-3.5,5.9c-1.9,4.5-2.2,9.6-0.8,14.2"/>
<path fill="none" stroke="#E1E1E1" stroke-miterlimit="10" d="M-12.8,360.2c3.3,2.5,7.9,2,12,1.4c3.5-0.5,6.9-1,10.4-1.5
	c5.7-0.8,11.4-1.6,16.8-3.5c5.3-1.8,10.9-4.7,16.2-2.9c0.9,0.3,1.7,0.7,2.3,1.4c1.9,2.1,0.8,5.3,0.8,8.1c0,4.2,2.5,7.8,4.5,11.5
	s3.6,8.1,1.8,11.8"/>
<path fill="none" stroke="#E1E1E1" stroke-miterlimit="10" d="M-12,36.1c1.5-2,2.3-4.4,3.6-6.6c2.5-4.2,6.5-7.2,10.5-10
	c3-2.1,6.1-4.3,9.7-4.7c2.2-0.2,4.5,0.3,6.7,0.1c3.1-0.2,5.9-1.6,8.6-2.9C34,8.6,40.8,5.3,47.6,1.9c5.6-2.8,11.5-5.8,14.8-11"/>
<path fill="none" stroke="#E1E1E1" stroke-miterlimit="10" d="M-13.8,86.9c2,1.5,4.8-0.9,5.5-3.3s0.8-5.3,2.7-6.9
	c2.7-2.2,7.1,0,8.3,3.3C4,83.3-1.2,88.8,2,90.3c10.1,4.5,21.5-3.1,30.8-9c5-3.2,7.2-9.4,9-15.1c0.4-1.3,0.8-2.6,0.8-3.9
	c-0.1-2.6-4.9-3-4.6-5.5c0.3-2.7,6.3,2.1,8.2,0c1.1-1.2-1.8-3.8-0.5-4.8c9.4-8.2,50.1-19.7,75.2-29.5c4.1-1.6,8.2-3.2,12.6-3.4
	c7.2-0.4,14.1,3.1,21.3,2.9c7.1-0.1,14.5-3.8,21-1c7.7,3.2,9.7,12.9,13.4,20.3c2.6,5.1,6.4,9.5,10.6,13.3
	c11.3,10.2,25.8,16.7,40.9,18.3c3.1,0.3,6.1,0.4,9.2,0.6c2.4,0.1,4.9,0.2,7.3,0.3c25.1,1,50.7,2,74.9-4.9c4.5-1.3,9-2.9,13.7-2.8
	c2.3,0,4.5,0.5,6.8,0.6c7.5,0.6,15.1-1.2,21.5-5.3"/>
<path fill="none" stroke="#E1E1E1" stroke-miterlimit="10" d="M-15.8,104.4c1.8-4.2,7.2-6.3,11.3-4.6c4.2,1.8,2.2,7.5,4.6,11.3
	c7.9,13.1,27.1-16.4,42.3-15.5c4.7,0.3,9.2,2.3,13.8,1.9c7.6-0.7,13.2-7.9,15-15.3c1.8-7.4,0.9-15.2,0.9-22.8c0-1.6,0.1-3.2,0.9-4.6
	c1.3-2,4-2.6,6.3-3.1c21-4.2,40.7-16.2,59.5-23.4c8.6-3.3,35.3,24.7,52.2,38.8c16.2,13.5,36.5,21.8,57.5,23.7
	c10.5,0.9,23.6-6.4,28-5.9c3.3,0.4,5.8,4.1,9.2,4.1c29.9-0.2,59.9-3.2,89.2-9"/>
<path fill="none" stroke="#E1E1E1" stroke-miterlimit="10" d="M374,89.2c-7.9,2.9-15.2,8.8-23.6,8.6c-36.5-1-74.6,14-75.5,10.8
	c-2.9-10.6-19.5-8.7-30.5-10c-27.8-3.1-51.6-20.3-74.1-37c-2-1.5-4-3-6.1-4.5c-8.4-6.2-14.7-17.7-25.1-18.6
	C123,37.1,110,53.1,95.4,60.4c-3.1,1.6-6.8,3.9-6.5,7.4c0.1,1.9,1.4,3.5,2.5,5.1c4.3,6.5,7.2,17.2,1.3,22.3
	c-9.1,8-19.8,13.3-30,19.8c-17.4,10.9-40,9.5-60.5,10.4c-3.2,0.1-6.7,0.1-9.3-1.8s1-5.3-0.5-8.1c-1.5-2.9-6,2.7-8.9,4.1"/>
<path fill="none" stroke="#E1E1E1" stroke-miterlimit="10" d="M-18.2,138.5c1.4-2.8,5.2-3.1,8.4-3.1c19.5,0.1,38.9-1.8,58-5.4
	c6.6-1.3,13.7,2.2,19.9-0.3c11.4-4.7,18.3-15.8,29.7-20.5c11.5-4.6,24-12.7,24.3-25.1c0.1-5.3-2.1-10.6-1-15.8
	c1.9-9,12.4-12.9,21.3-15.2c1.1-0.3,2.4-0.6,3.5-0.3c1.8,0.5,2.9,2.2,3.9,3.8c5.7,9.1,12.6,17.7,21.6,23.6
	c6.3,4.1,13.4,6.8,20.5,9.5c17.8,6.7,35.5,13.3,53.3,20c5.2,1.9,10.4,3.9,14.9,7.2c1.7,1.3,3.4,2.7,5.5,3.4c2.2,0.7,4.6,0.3,6.8,0
	c22.2-3.4,44.4-6.8,66.6-10.2c11.8-1.8,23.9-3.7,34.4-9.3"/>
<path fill="none" stroke="#E1E1E1" stroke-miterlimit="10" d="M373.8,106.6c-10.7,5.5-22.3,23.4-32,16.4c-3.2-2.3-5.2-4.8-9-4.1
	c-25.6,4.8-50.8,26.3-75.7,18.9c-4.7-1.4-7.4-6.4-11.6-8.9c-21.9-13.2-44.3-26.6-69.2-32.4c-5.6-1.3-11.4-2.2-16.6-4.7
	c-5.2-2.5-9.9-6.9-10.9-12.6c-0.3-1.7-0.3-3.6-1.1-5.1c-0.8-1.6-3-2.8-4.3-1.7c-3.2,2.6,0.4,7.5,1.7,11.4c1.8,5.3-0.5,11.1-3.7,15.7
	c-12.6,18.1-45,10.9-57.8,28.9c-2.4,3.4,2.8,10.9-1.1,12.2c-7.8,2.7-42.6,5.8-63.9,8.7c-9.2,1.3-18.8,2.6-26.6,7.8
	c-4.6,3-8.4,7.3-10.8,12.2"/>
<path fill="none" stroke="#E1E1E1" stroke-miterlimit="10" d="M-15.6,197.5c3.3-2.2,7.9,0.3,11.9-0.2c4.9-0.6,7.8-5.5,10.5-9.6
	c6.4-9.3,15.7-16.2,24.7-23c3.4-2.6,6.9-5.2,11-6.5c11.2-3.7,24.2,3,34.9-1.9c3.2-1.5,5.9-3.9,9.1-5.4c6.7-3.3,14.7-2.6,21.5-5.7
	c3.4-1.6,6.3-4.1,9.2-6.5c10.8-8.8,22.9-15.8,35.9-20.7c5.7-2.1,11.5-3.9,17.5-4.4c6.5-0.5,13.1,0.5,19.5,2
	c12.1,2.8,23.9,7.1,35,12.7c4.7,2.4,7.3,7.1,11.5,10.4c4.9,3.8,8.3,8,13.7,11c22,12.1,48.9-11.3,73.3-16.9c2.9-0.7,6-1.4,8.9-0.8
	c2.1,0.4,4,1.4,6,1.8c13.8,2.9,22.4-19.6,36.4-18.1"/>
<path fill="none" stroke="#E1E1E1" stroke-miterlimit="10" d="M374.2,120.1c-4.5-0.8-8.5,3.1-10.6,7.2c-2.1,4.1-3.5,8.7-7,11.7
	c-5.7,4.9-14.6,11.7-21,7.8c-3.8-2.3-5.9-5.6-10.2-4.8c-10,1.7-20.3,3.5-29.1,8.6c-5.2,3-9.7,7-15.1,9.6c-5.4,2.6-11.9-3.3-17-0.2
	c-3.9,2.4,8.5,7.5,6.6,11.6c-2.5,5.6-10.4,14.1-13.4,15.2c-0.9,0.3-12.7-20.3-19-30.4c-2.8-4.5-7.4-5.1-11.1-8.9
	c-2.4-2.4,0.4-9.8-24.4-16.8c-28.4-7.9-60.6-0.1-82.7,19.4c-2.9,2.5-5.6,5.3-9,7c-2,1-4.2,1.6-6.3,2.2c-5.5,1.5-10.9,3-16.4,4.5
	c-9.4,2.6-21.3,14.7-28.2,7.7c-1.4-1.4-1.7-3.9-3.5-3.2c-11.4,4.1-20.4,14.4-22.5,26.4c-0.9,5.3-0.6,10.7-1.4,16
	c-0.9,5.3-3.3,10.8-8.1,13.2c-2.9,1.5-6.4,1.7-9.7,1.9c-10.9,0.5-21.9,1.1-32.8,1.6"/>
<path fill="none" stroke="#E1E1E1" stroke-miterlimit="10" d="M-14.1,238.4c10.2,2.9,20.4,5.9,30.7,8.8c2.9,0.8,5.8,1.7,8.9,1.8
	c8.8,0.3,22.8,2.3,25.6-6c1.2-3.5-3.1-6.7-2-10.2s3.4-6.5,5.4-9.6c7.4-11.9,9.6-26.3,15.7-38.9c0.8-1.6,1.7-3.3,3.1-4.4
	c2.2-1.7,5.3-1.6,8-1.9c13.5-1.2,27.2-1.1,39.4-7c10.2-5,13.9-17.7,23.3-24.2c3.6-2.5,7.2-5,11.4-6.3c4.3-1.3,8.9-1.1,13.4-0.9
	c7.1,0.3,14.3,0.6,21.4,0.9c7.4,0.3,15,0.7,21.6,3.9c7,3.4,12.4,10.1,14.3,17.7c0.9,3.8,1.1,7.7,2.5,11.3c1.4,3.6,5.1,4.9,8.6,6.5
	c5.1,2.4,4.9,10.3,4.5,16c-0.3,4.3-1.6,9.2,1.1,12.5c3.8,4.7,11.6,1.9,15.7-2.5s7.3-10.3,13.1-12.2c4.7-1.5,10.8-0.1,13.9-3.9
	c1.2-1.4,1.6-3.4,2.8-4.8c1.4-1.7,3.5-2.5,5.6-3c5-1.2,10.4-0.9,15.3,0.7c4.4,1.5,8.6,4.2,13.3,4.2c4.7,0.1,4.8-5.4,8.2-8.6
	c5-4.7,12.7-3.4,16.9-8.8c1.7-2.2,3.5-4.4,5.2-6.6c5.6-7.1,11.9-14.7,20.8-16.4"/>
<path fill="none" stroke="#E1E1E1" stroke-miterlimit="10" d="M371.5,184.2c-2.7-3.9-8.9-2.9-12.6,0.1s-6.3,7.2-10.3,9.6
	c-2.9,1.7-6.2,2.3-9.1,3.9s-2.4,5.5-4.7,7.9c-15.4,16.6-47-7.3-66.3,4.7c-7.7,4.8-14.2,12-23.1,14.2c-12.2,3.1-27.8,7.9-37.5-0.2
	c-3.2-2.7,5.2-6.3,9.3-7c4.1-0.7,8.6-0.6,12-3c6.6-4.6,5.1-15,1-21.9s-10.3-13.2-11.1-21.3c-0.3-2.8,0.1-5.7-0.4-8.4
	c-1.5-8-10.3-12.7-18.5-13.1c-8.1-0.4-16.1,2.1-24.3,2.8c-9.1,0.8-18.9-0.7-26.9,3.8c-10.3,5.8-13.2,19-19.6,28.9
	c-1.8,2.7-4.2,5.5-7.5,5.6c-1.7,0.1-3.4-0.6-5.1-1.2c-10.1-3.6-21.7-2.6-31.1,2.5c-1.9,1-3.7,2.3-4.9,4.1c-1.2,1.9-1.6,4.3-1.9,6.5
	c-1.3,10.2-2.4,20.4-3.2,30.6c-0.2,2.1-0.3,4.2,0.4,6.2c2.6,6.9,19.1,5.8,17.3,12.9c-2,7.7-18.8-0.1-22.6,6.9
	c-2.8,5.3,6.4,10.1,9.6,15.1c0.7,1,1.3,2.1,1.4,3.3c0.1,2.9-3.6,4.7-6.5,4.1c-2.9-0.7-5.1-2.9-7.4-4.7c-5.1-3.8-11.4-5.8-17.5-7.6
	c-23.3-6.7-47.1-11.7-71.1-14.8"/>
<path fill="none" stroke="#E1E1E1" stroke-miterlimit="10" d="M112.4,230.9c0.5,0.2,1.1,0.4,1.6,0.3c0.4-0.1,0.7-0.4,0.9-0.6
	c3.3-3.1,4.9-7.8,4.3-12.2c-0.1-0.7-0.2-1.3-0.6-1.9c-0.4-0.7-1-1.3-1.6-1.8c-4-3.6-6.9-8.4-11.5-11.2c-1.4-0.9-3.2-0.8-4.8-1.1
	c-0.9-0.1-2-0.2-2.8,0.4c-0.4,0.3-0.6,0.8-0.8,1.2c-0.9,2.3-0.6,4.9,0.2,7.2c0.7,2.3,1.8,4.5,2.5,6.9c0.7,2.4,0.9,5.1,2.6,7
	c0.5,0.6,1.2,1.1,1.9,1.5C106.9,228.3,109.6,229.7,112.4,230.9z"/>
<path fill="none" stroke="#E1E1E1" stroke-miterlimit="10" d="M155.1,170.2c0.6-1.9,0.2-4.3-1.5-5.3c-1.9-1.2-4.5,0.3-5.8,2.1
	s-1.8,4-2.3,6.2c-0.2,1.1-0.4,2.1-0.7,3.2c-0.2,0.7-0.3,1.6,0.3,2.1c0.8,0.8,2.1,0.6,3.1,0.2c2-0.7,2.9-3.1,4.3-4.6
	C153.6,172.8,154.6,171.7,155.1,170.2z"/>
<path fill="none" stroke="#E1E1E1" stroke-miterlimit="10" d="M11.6,310.1c0,1.6-0.4,3.3-0.4,4.9c0,2.8-0.1,6.6,2.2,8.2
	c3,2.1,7.4-0.3,11-1.2c2.5-0.7,5.2-1.7,6.7-3.8c1.9-2.5,1.9-6.2,4-8.5c0.6-0.6,1.3-1.2,1.2-2.1c-0.1-1.1-1.5-1.6-2.6-1.8
	c-2.7-0.6-5.4-1.4-7.8-2.7c-0.9-0.5-1.7-1-2.6-1.4c-3.6-1.9-7.7-2.8-11.7-3.7c-0.4-0.1-0.8-0.2-1.2,0.1c-0.3,0.2-0.3,0.6-0.3,1
	C10.2,302.8,11.7,306.4,11.6,310.1z"/>
<path fill="none" stroke="#D6D6D6" stroke-miterlimit="10" d="M211.5,221.4c-6.2,4.2-11.1,11.9-12.1,19.3c-0.3,2.5-0.3,5-0.9,7.4
	c-1.3,5.8-5.5,10.4-8.6,15.5c-3.6,6-5.7,12.9-6,19.9c-0.1,3.5,0.2,7-0.4,10.5c-1.7,10.9-11,19-14.6,29.3c-1.3,3.8-1.9,7.8-2.4,11.8
	c-0.8,6.3-1.7,12.6-1.2,18.9c0.5,6.3,2.4,12.7,6.4,17.6"/>
<path fill="none" stroke="#D6D6D6" stroke-miterlimit="10" d="M200.1,237.4c3.6,3.3,7.6,6.1,9.9,9.7c0.8,1.3,1.1,2.9,1.9,4.2
	c3.4,5.4,11.5,5.4,16.3,9.6c2.3,2,4.5,6.9,6.1,9.5c7.6,12,21.4,16.7,26.5,30c1.4,3.7,1,9,1.9,12.9c1.8,7.8,4.5,15.4,7.1,23.1
	c1.9,5.5,3.9,11.2,8,15.4c1.8,1.9,4,3.4,6.2,4.9c6,4.1,12,8.2,18,12.3c5.6,3.8,11.5,7.8,18.2,9c10.1,1.9,20.3-2.7,29-8.2
	c8.7-5.5,16.9-12.2,26.7-15.2"/>
<path fill="none" stroke="#4E9BD7" stroke-miterlimit="10" d="M185.6,201.9c3.5,7.4,13.7,12.6,21.4,17.4c1.3,0.8,2.7,1.7,4.2,1.9
	c1.4,0.3,2.9,0,4.3-0.2c5.2-0.8,10.5-1.7,15.7-2.8c4-0.8,8.1-1.8,11.3-4.4c2.4-1.9,4-4.6,5.7-7.2c5.8-9.3,11.8-19.1,12.2-30.1
	c0-1.1,0-2.2-0.3-3.2c-0.4-1.2-2.1-2.8-3.1-3.7c-5.9-5.2-7-11.8-6.3-18.8c0.4-4.1,3-8.2,4.4-12.1c1.1-3.4,2.3-6.8,4.2-9.9
	c3.5-5.8,9.2-9.8,13.5-15.1c5.5-6.8,8.4-15.6,9.3-24.3c0.9-8.7,0.1-17.6-1-26.3c-0.3-2-0.6-4.1-1.7-5.8c-1-1.6-2-5.6-2.1-7.5
	c-0.2-2.6,2.6-4.9,2.2-7.5c-0.2-1.1-0.4-2.7-0.7-4.3c-0.4-1.7-0.8-5.3-1.1-6.5"/>
<path fill="none" stroke="#D6D6D6" stroke-miterlimit="10" d="M344.2,34.8c1.8,5.5,3.2,10,5,15.4c0.8,2.6,1.7,5.3,1.3,8
	c-0.2,1.7-0.9,3.2-1.4,4.8c-0.6,2.1-0.8,4.3-1,6.5c-0.3,3.4,0.5,5.4,0.2,8.8c-0.1,1.6,0.6,4.3,0.8,5.9c0.2,1,0,4.4,0.2,5.4
	c2.1,7.8-0.8,13.9-3.3,21.6s-6,14.9-8.2,22.7c-1.5,5.2-2.4,10.7-2.7,16.1c-0.1,2.4,0,5.1,1.7,6.7c2.7,2.6,7.5,1.1,10.6,3.1
	c1.3,0.8,2.2,2.2,3.1,3.5c3.9,5.5,9,10.2,14.8,13.6c2.5,1.5,5.5,3.1,6.2,5.9"/>
<path fill="none" stroke="#D6D6D6" stroke-miterlimit="10" d="M3.8,50.2c2.6,4.2,7.2,6.8,12.5,7.3c3.1,0.3,7.8,0.2,9.8,2.6
	c3.3,3.9-1.1,11.5,2.4,15.1c1.2,1.2,3,1.8,4.7,2.3c5.6,1.6,11.1,3.3,16.7,4.9c1.3,0.4,2.7,0.8,3.6,1.8c0.7,0.8,1,1.7,1.3,2.7
	c3.8,11.8,5,24.3,9.6,35.8c2.4,6.1,6.2,12.3,12.2,15c5.9,2.6,12.8,1.4,18.9-0.5c1.1-0.3,2.2-0.7,3.3-0.3c1,0.4,1.6,1.3,2.2,2.3
	c5.4,8.8,10,18,13.9,27.5"/>
<path fill="#7BBCEB" stroke="#4E9BD7" stroke-miterlimit="10" d="M170,181c0.7-1.2,1.8-2.2,3-3.1c1.6-1.2,3.4-2.2,5.3-2.4
	c2-0.3,4.1,0.3,5.4,1.8c0.6,0.7,1,1.6,1.3,2.5c0.8,2,1.7,4,2.3,6.1c0.9,3.2,1.2,6.6,0.9,10c-0.2,2.4-1.1,6.7-3.3,5.9
	c-1.5-0.5-2.3-2-3.7-2.7c-3.8-1.8-7.7-3.7-10.6-6.7c-1.2-1.2-2.2-2.7-2.4-4.3c-0.2-1.4,0.2-2.9,0.7-4.2
	C169.1,182.9,169.5,181.9,170,181z"/>
<path fill="#7BBCEB" stroke="#4E9BD7" stroke-miterlimit="10" d="M144.3-3c1.4,3.3-9.1,7.8-12.1,9.8c-1.2,0.8-2.5,1.5-3.6,2.5
	c-1,0.9-1.9,2-2.9,2.9c-3.4,3-8.2,3.8-12.7,3.8c-4.5,0-9-0.6-13.4,0.1c-8.1,1.2-16.1,3.5-23.7,6.6c-1.2,0.5-2.4,1-3.7,1.1
	c-2.3,0.1-4.3-1.3-6.4-2.2c-6.9-3.1-15-1.6-22.3,0.2C31.9,24.6,21,29,13.5,38c-3.1,3.7-6.2,7.7-9.3,11.4
	c-4.1,4.8-28.5,21.9-34.3,19.5c-0.6-0.3,9.8-4.5,10.3-5c4.3-3.7,19.2-12.4,23.3-17.2c3.1-3.7,5.3-8,8.4-11.8
	c7.5-9,19.4-13,30.8-15.9C50,17.3,58,15.8,65,18.9c2.1,0.9,4.1,2.3,6.4,2.2c1.3-0.1,2.5-0.6,3.7-1.1c7.6-3.1,15.6-5.3,23.7-6.6
	c4.5-0.7,8.9-0.1,13.4-0.1c4.5,0,9.3-0.8,12.7-3.8c1-0.9,1.9-2,2.9-2.9c1.1-1,2.4-1.7,3.6-2.5c3-2,5.1-5.4,8.4-6.7
	C140.9-3.1,143.8-4,144.3-3z"/>
<path fill="#7BBCEB" stroke="#4E9BD7" stroke-miterlimit="10" d="M158.6-2.5c-0.3,1.1,1.3,1.9,2.2,2.7c3.8,3.7,8.8,6.2,14,7
	c1.2,0.2,2.6,0.3,3.6-0.5c0.6-0.5,0.9-1.2,1.1-1.9c1.2-3.1,5-6.2,3.7-9.2c-0.6-1.4-3.9-0.8-4.6,0.5c-1.4,2.5-0.2,6-2,8.3
	c-0.3,0.4-0.7,0.7-1.1,0.8c-0.4,0.1-0.7,0-1.1-0.1c-3.9-1.1-7.5-3.4-10.1-6.5c-0.5-0.6-1.1-1.3-1.8-1.7C161.1-3.8,159-3.8,158.6-2.5
	z"/>
<path fill="#7BBCEB" stroke="#4E9BD7" stroke-miterlimit="10" d="M371.5,2.4c-2.3,1.8,0.2,0-2.5,1.1c-0.9,0.4-3.5,1.2-4.2,1.8
	c-1.5,1.4-0.8,4.3-1.2,6.3c-0.7,3.3-3.8,7.2-6.8,8.9c-1.1,0.7-4.2,1.6-5.2,2.4c-0.8,0.6-1.6,2.1-2.2,2.9c-1.6,2.3-0.4,3.5-2.1,5.8
	c-0.5,0.7-2.6,2.6-3.4,2.8c-1.9,0.5-5.8-2.7-6.5-2.9c-7.1-1.6-8.4-1.3-14.7-4.9c-0.8-0.5-3.1-2.8-4-2.8c-0.7,0.1-3.1,1.9-3.7,2.3
	c-3.7,2.4-6,4.5-10.4,5.1c-6,0.8-11.3-0.9-15.6-5.2c-0.7-0.7-2.8-3-3.7-3.3c-2.3-0.7-2.9,3.2-3.7,5.4c-0.9,2.2-5.1,3.9-7.5,4
	c-2.5,0.1-3.4-2.5-4.3-4.8c-1.2-3-2.5-7-4.7-7.4c-3.2-0.5-6,5.9-7.4,9.6c-1.3,3.8-4.2,6.8-6.8,7.5c-2.2,0.6-6.1-0.8-8.1-1.8
	c-2.2-1.1-5.6-1.3-6.8-4.4c-0.4-1.1-0.5-5.7-0.7-6.8c-0.9-7-8.4-6.2-9.8-8.8c-1.3-2.5,1.9-5.1,0.1-7.1c-1.5-1.7-6.6-5.9-8.2-7.6
	c-1.5-1.7-3.8-1.5-2.2-3.2c0.6-0.7,2.8-1.6,3.4-1c1.6,1.5,1.3,4.3,3.3,5.4s4.1,2,5.8,3.5c2.7,2.4,0.2,6.2,1.1,8
	c1.8,3.5,9.3,4.3,9.1,11.2c0,1.2,0,3.9,0.4,5c0.9,2.3,3,2.2,5.2,3.3c2,1,4.1,2,6.3,1.7c3.9-0.6,5.8-5.1,7.1-8.9
	c1.3-3.8,3.9-8.1,7.9-7.8c3.3,0.3,5.3,3.7,6.5,6.7c0.9,2.3,2.4,5,4.8,4.9c2.4-0.1,3.7-2.8,4.5-5.1s2.8-4.8,5.1-4.1
	c0.9,0.3,1.6,1,2.2,1.7c4.2,4.3,11,7.6,17,6.8c4.3-0.6,7.6-3.5,11.3-5.9c0.6-0.4,2.2-1.4,3-1.5c0.9-0.1,2.5,1.4,3.3,1.9
	c5.5,4.3,11,6.3,18.7,7.5c0.7,0.1,1.5,0.3,2.1,0.1c0.8-0.3,1.3-1,1.8-1.7c1.6-2.3,3.2-4.5,4.8-6.8c0.6-0.8,1.2-1.6,1.9-2.3
	c1-0.8,2.2-1.3,3.3-2c2.9-1.7,5.1-4.7,5.8-8c0.4-2,0.5-4.3,2-5.7c0.7-0.7,1.6-1,2.5-1.4c2.7-1.1,6.3-5.5,8.1-3.3
	C374,0.2,372.2,1.9,371.5,2.4z"/>
<path fill="none" stroke="#D6D6D6" stroke-miterlimit="10" d="M335.2,152.7c-5.8,7.2-9.3,16.2-9.6,25.5c-0.1,1.5,0,3.1,0.3,4.6
	c0.3,1.4,1,2.8,1.6,4.1c1,2.2,2,4.3,3,6.5c0.9,1.9,1.8,3.9,2.3,6c1.2,5.1-0.2,10.4-2.1,15.4c-1.8,4.9-4.1,9.7-4.8,14.9"/>
<g>
	<g>
		<path fill="none" stroke="#585858" stroke-miterlimit="10" d="M-14.3,44.3c0.6-0.3,1.2-0.6,1.8-0.9"/>
		<path fill="none" stroke="#585858" stroke-miterlimit="10" stroke-dasharray="4.0603,1.0151" d="M-11.6,43
			C-4,38.6,1.6,31.1,9,26.4c7-4.5,15.4-6.3,23.5-8c15.8-3.4,31.7-6.7,47.5-10.1c13.5-2.9,27.4-5.9,39.3-12.9"/>
		<path fill="none" stroke="#585858" stroke-miterlimit="10" d="M119.8-4.9c0.6-0.3,1.1-0.7,1.7-1.1"/>
	</g>
</g>
<g>
	<g>
		<path fill="none" stroke="#585858" stroke-miterlimit="10" d="M295.8-3.5c-0.4,0.6-0.3,1.3,0,1.9"/>
		<path fill="none" stroke="#585858" stroke-miterlimit="10" stroke-dasharray="4.0374,1.0093" d="M296.4-0.8
			c0.6,0.6,1.4,1.2,2.2,1.5c2.5,1.1,5,2.2,7.7,2.5c5.8,0.6,11.4-2.5,17.2-2.1c3.1,0.2,6.1,1.4,9.3,1.5c3,0,5.9-1.1,8.7-2.2
			c2.6-1,5.2-2,7.8-3.1"/>
		<path fill="none" stroke="#585858" stroke-miterlimit="10" d="M349.8-2.9c0.6-0.2,1.2-0.5,1.9-0.7"/>
	</g>
</g>
<g>
	<g>
		<path fill="none" stroke="#585858" stroke-miterlimit="10" d="M40.9,16.4c0.2,0-0.1,0.3-0.2,0.1s0.1-0.3,0.2-0.5
			c0.3-0.2,0.5-0.4,0.8-0.7"/>
		<path fill="none" stroke="#585858" stroke-miterlimit="10" stroke-dasharray="3.7506,0.9377" d="M42.4,14.9
			c2.2-1.8,4.5-3.7,6.7-5.5c2.6-2.1,5.2-4.2,8.2-5.7c1.4-0.7,2.9-1.2,4.3-2c2.6-1.4,4.8-3.6,7.4-5"/>
		<path fill="none" stroke="#585858" stroke-miterlimit="10" d="M69.5-3.4c0.6-0.3,1.2-0.5,1.9-0.7"/>
	</g>
</g>
<text transform="matrix(1 0 0 1 253.5272 54.3321)" fill="#585858" font-family="'Verdana-Italic'" font-size="8">Little  Yosemite  Valley</text>
<text transform="matrix(0.8933 -0.4494 0.4494 0.8933 20.4072 45.5317)" fill="#585858" font-family="'Verdana-Italic'" font-size="8">Merced</text>
<text transform="matrix(0.937 -0.3493 0.3493 0.937 76.3759 33.4978)" fill="#585858" font-family="'Verdana-Italic'" font-size="8">River</text>
<text transform="matrix(1 0 0 1 169.0866 161.9689)"><tspan x="0" y="0" fill="#7BBCEB" font-family="'Verdana-Italic'" font-size="8">Starr King</tspan><tspan x="0" y="9.6" fill="#7BBCEB" font-family="'Verdana-Italic'" font-size="8">Lake</tspan></text>
<text transform="matrix(1 0 0 1 106.9588 222.3502)" fill="#585858" font-family="'Verdana-Italic'" font-size="8">× 8052</text>
<text transform="matrix(1 0 0 1 299.6556 234.0589)" fill="#585858" font-family="'Verdana-Italic'" font-size="8">× 8129</text>
<path fill="none" d="M199.9,54.4c11.3,10.2,25.8,16.7,40.9,18.3c3.1,0.3,6.1,0.4,9.2,0.6"/>
<text transform="matrix(0.9108 0.4128 -0.4128 0.9108 215.5193 68.0606)"><tspan x="0" y="0" fill="#7D7D7D" font-family="'Verdana-Italic'" font-size="7">6</tspan><tspan x="4.6" y="0" fill="#7D7D7D" font-family="'Verdana-Italic'" font-size="7" rotate="-3.5">2</tspan><tspan x="9.2" y="-0.3" fill="#7D7D7D" font-family="'Verdana-Italic'" font-size="7" rotate="-7">0</tspan><tspan x="13.8" y="-0.9" fill="#7D7D7D" font-family="'Verdana-Italic'" font-size="7" rotate="-10.5">0</tspan></text>
<path fill="none" d="M276.7,119.5c22.2-3.4,44.4-6.8,66.6-10.2"/>
<text transform="matrix(0.9885 -0.1514 0.1514 0.9885 298.5076 118.7677)"><tspan x="0" y="0" fill="#7D7D7D" font-family="'Verdana-Italic'" font-size="7">6</tspan><tspan x="4.5" y="0" fill="#7D7D7D" font-family="'Verdana-Italic'" font-size="7" rotate="0">8</tspan><tspan x="8.9" y="0" fill="#7D7D7D" font-family="'Verdana-Italic'" font-size="7" rotate="0">0</tspan><tspan x="13.3" y="0" fill="#7D7D7D" font-family="'Verdana-Italic'" font-size="7" rotate="0">0</tspan></text>
<path fill="none" d="M154.8,140.4c4.3-1.3,8.9-1.1,13.4-0.9c7.1,0.3,14.3,0.6,21.4,0.9"/>
<text transform="matrix(0.9993 3.852481e-02 -3.852481e-02 0.9993 164.2249 141.9225)"><tspan x="0" y="0" fill="#7D7D7D" font-family="'Verdana-Italic'" font-size="7">7</tspan><tspan x="4.5" y="0" fill="#7D7D7D" font-family="'Verdana-Italic'" font-size="7" rotate="0.3">6</tspan><tspan x="8.9" y="0" fill="#7D7D7D" font-family="'Verdana-Italic'" font-size="7" rotate="0.3">0</tspan><tspan x="13.4" y="0.1" fill="#7D7D7D" font-family="'Verdana-Italic'" font-size="7" rotate="0.3">0</tspan></text>
<path fill="none" d="M260,281c-2.1-4,0.9-7.2,4-9c7.7-4.5,26.6-10.1,20-19"/>
<text transform="matrix(0.8844 -0.4667 0.4667 0.8844 264.4207 274.6568)"><tspan x="0" y="0" fill="#7D7D7D" font-family="'Verdana-Italic'" font-size="7">8</tspan><tspan x="4.3" y="0" fill="#7D7D7D" font-family="'Verdana-Italic'" font-size="7" rotate="2.6">0</tspan><tspan x="8.8" y="0.2" fill="#7D7D7D" font-family="'Verdana-Italic'" font-size="7" rotate="1.9">0</tspan><tspan x="13.4" y="0.4" fill="#7D7D7D" font-family="'Verdana-Italic'" font-size="7" rotate="-1.2">0</tspan></text>
<path fill="none" d="M-20.2,254.8c24,3.1,47.8,8,71.1,14.8c6.2,1.8,12.4,3.8,17.5,7.6"/>
<text transform="matrix(0.965 0.2621 -0.2621 0.965 40.492 269.3004)"><tspan x="0" y="0" fill="#7D7D7D" font-family="'Verdana-Italic'" font-size="7">7</tspan><tspan x="4.4" y="0" fill="#7D7D7D" font-family="'Verdana-Italic'" font-size="7" rotate="0.5">8</tspan><tspan x="8.8" y="0" fill="#7D7D7D" font-family="'Verdana-Italic'" font-size="7" rotate="1.2">0</tspan><tspan x="13.2" y="0.1" fill="#7D7D7D" font-family="'Verdana-Italic'" font-size="7" rotate="3.1">0</tspan></text>
<g>
	<g>
		<polyline fill="none" stroke="#7D7D7D" stroke-miterlimit="10" points="85.2,341.6 85.2,348.7 275.4,348.7 275.4,341.7 		"/>
		<line fill="none" stroke="#7D7D7D" stroke-miterlimit="10" x1="180.5" y1="341.4" x2="180.5" y2="348.7"/>
		<line fill="none" stroke="#7D7D7D" stroke-miterlimit="10" x1="161.2" y1="349.2" x2="161.2" y2="343.7"/>
		<line fill="none" stroke="#7D7D7D" stroke-miterlimit="10" x1="142.4" y1="349.2" x2="142.4" y2="343.7"/>
		<line fill="none" stroke="#7D7D7D" stroke-miterlimit="10" x1="123.3" y1="349.2" x2="123.3" y2="343.5"/>
		<line fill="none" stroke="#7D7D7D" stroke-miterlimit="10" x1="104.6" y1="349.2" x2="104.6" y2="343.7"/>
	</g>
	<text transform="matrix(1 0 0 1 83.7834 339.1468)" fill="#7D7D7D" font-family="'Verdana'" font-size="8">0</text>
	<text transform="matrix(1 0 0 1 174.2945 339.1469)" fill="#7D7D7D" font-family="'Verdana'" font-size="8">0.5</text>
	<text transform="matrix(1 0 0 1 258.3414 339.1468)" fill="#7D7D7D" font-family="'Verdana'" font-size="8">1 mi</text>
</g>
</svg>
