<?xml version="1.0" encoding="utf-8"?>
<!-- Generator: Adobe Illustrator 17.1.0, SVG Export Plug-In . SVG Version: 6.00 Build 0)  -->
<!DOCTYPE svg PUBLIC "-//W3C//DTD SVG 1.1//EN" "http://www.w3.org/Graphics/SVG/1.1/DTD/svg11.dtd">
<svg version="1.1" id="Layer_1" xmlns="http://www.w3.org/2000/svg" xmlns:xlink="http://www.w3.org/1999/xlink" x="0px" y="0px"
	 viewBox="0 0 360 360" enable-background="new 0 0 360 360" xml:space="preserve">
<path fill="none" stroke="#E1E1E1" stroke-miterlimit="10" d="M-9.8,208c3.3,8,6.5,16.1,9.8,24.1c1.1,2.8,2.2,5.5,2.7,8.5
	c0.8,5.8-1.2,11.7-3.1,17.3c-3,8.3-5.9,16.6-8.9,25"/>
<path fill="none" stroke="#E1E1E1" stroke-miterlimit="10" d="M-7,324.1c2.5-7.5,4.9-15.1,6.1-22.8c0.6-3.9,0.6-7.8,0-11.7
	c-0.6-3.7-1.5-7.3-1-11.1c0.9-6.8,5.6-12.2,9.6-17.5c7.7-10.1,13.8-19.4,8.9-34c-0.6-1.7-1.7,1-3.3,0.4c-1-0.4-1.9-4-2.9-4.4
	c-1.5-0.6-4.1,3.4-4.3,1.9C4.1,213.2-3.8,184-9,162.1c-1-4-2-8-1-11c2-6,5.3-13.7,10.7-14c9.5-0.4,7.6,27.3,10.3,32
	c0.4,0.7,2.4,2.2,3.4,2.1c5.1-0.5,3.2-7.3,4.4-10.2c0.9-2.1,1.6-2.5,3.6-0.5s1.3,7,3.6,8.6c3.6,2.6,3.1,10.4,8,7c7-4.9,8-15,8-23
	c0-3-4-5.4-6-9c-0.7-1.2-1.9-2.1-4-3c-2.9-1.2-6,2.1-9,1c-5.1-1.9-7.7-9-13-10c-1-0.2-2,0.3-3,0c-3.5-1-5-5-7.6-8.3
	c-1.1-1.4-1.6-2.2-1.2-3.9s1.3-3.3,1.9-4.9c1-2.8,1-5.9,1.6-8.9c1.8-9.2,8.6-16.4,13.5-24.4c2-3.2,3.7-6.5,5.1-10
	c0.3-0.8,0.6-1.7,0.3-2.5c-0.3-0.7-1-1.1-1.3-1.9c-0.6-1.6,1.5-3.4,0.7-4.8c-0.6-1.1-2.4-0.8-3.5-0.2s-2.5,0.6-3.5,1.4
	c-1.8,1.3-0.8,4.9-2.8,5.9c-1.6,0.8-3.4,0.3-5.1-0.2c-2.9-0.9-6-3.8-8.8-2.7c-4.3,1.7-2.9,8-3.2,13.2"/>
<path fill="none" stroke="#E1E1E1" stroke-miterlimit="10" d="M17.2-11.1c-0.6,1.7-1.1,3.6-0.7,5.4s2,3.4,3.8,3.2
	c1.4-0.2,2.8-1.4,4.1-0.9c1.1,0.4,1.6,1.7,2.7,2.2c2.4,0.9,3.6-3,5.9-4c1.6-0.7,3.4,0.1,5,0.8C43-2.3,48.3-1.2,53.7-1.2
	c3.9,0,5.2-4.1,8.8-5.7c6.2-2.7-3.8,14.4,1,19.1c0.6,0.6,1.4,1.1,1.7,1.8c0.6,1.4-0.6,2.8-1.6,4c-5,6.1-5.2,14.6-6.4,22.4
	c-2.1,13.9-8,27-11.7,40.5c-3.4,12.7-4.7,26.9,1.4,38.6c2.3,4.4,5.9,8.4,10.7,9.7c2.6,0.7,4.7-3,7.3-2c5,1.9,0.4,10.8,3.6,15
	c0.6,0.8,1.3,1.7,1.4,2.7c0.1,1.3-0.8,2.4-1.6,3.4c-3.1,4.1-4,9.4-5.7,14.3c-7,20.7-3.7,25.2-6.5,25.9c-4.1,1,1.3,18.2-13.7,25.1
	c-5,2.3-11,5.2-12,10.6c-0.4,2.3,0.4,4.6,0.8,6.8c1.1,5.4,0.3,11.2-2.1,16.2c-4.7,9.7-11.6,18.2-20.1,24.9
	c-3.5,2.8-7.3,6.8-5.9,11.1c0.4,1.3,1.3,2.3,2.1,3.4c1.6,1.9,3.1,3.9,4.7,5.8c0.7,0.9,1.5,1.9,1.8,3c0.4,1.3,0.1,2.7-0.2,4
	c-1.7,8.8-3.5,17.7-5.2,26.5c-0.8,3.9-1.5,7.8-3.2,11.4c-2.4,5.2-6.6,9.6-7.5,15.2c-0.4,2.5-0.1,5.2-0.6,7.7
	c-0.3,1.3-0.7,2.6-1.3,3.9"/>
<path fill="none" stroke="#E1E1E1" stroke-miterlimit="10" d="M3.1,366.2c0.3-1.2,0.6-2.4,0.8-3.6c0.2-1.2,0.4-2.5,0.9-3.6
	c1.1-2.6,3.8-4.1,5.6-6.2c2.6-3,3.4-7,4.1-10.8c1.8-9.2,3.5-18.3,5.3-27.5c1.7-9,3.5-18.3,1.4-27.3c-0.8-3.6-2.2-7.5-0.5-10.7
	c1.1-2.2,3.4-3.6,5.4-5.1c7.7-5.9,11.5-15.4,14.4-24.6c2.3-7.3,4.9-15.4,11.5-19.3c4-2.3,8.8-2.7,13-4.5c4.2-1.8,8.2-6,7-10.5
	c-1.2-4.6,4.5-8.2,6.4-12.6c2.9-6.5-5.1-13.8,19.1-44.7c0.7-1,2-1.5,2.5-2.6c0.6-1.1,0.6-2.4,0.7-3.7c0.1-6.5,0.2-13.1,1.7-19.5
	c1.5-6.4,4.6-12.6,9.8-16.5c0.7-0.5,1.5-1.1,1.7-2c0.2-0.7-0.1-1.5-0.3-2.1c-2.1-5.6-4.1-11.2-6.2-16.8c-0.3-0.8-0.6-1.7-1.3-2.3
	c-0.6-0.6-1.5-0.8-2.4-1c-4.1-1-8.1-2.1-12.2-3.1c-0.7-0.2-1.4-0.4-2.2-0.3c-2.4,0.2-3.6,3-5.3,4.8c-5.7,6.3-18.5,2.5-22.5,10
	c-1.9,3.6-1.4,13.1-4.9,10.9c-10.3-6.8,1-25.1,6.4-36.3c1.4-2.9,3.1-5.7,4-8.9c0.6-2.4,0.8-4.9,1.9-7.1c1.8-3.7,6-5.8,8.1-9.4
	c1.2-1.9,1.7-4.2,2.6-6.2c2.7-5.6,10.5-4.2,15.3-8.1c10.3-8.4-6.2-26-6.9-39.3c-0.1-1.7-0.1-3.5-0.2-5.3"/>
<path fill="none" stroke="#E1E1E1" stroke-miterlimit="10" d="M103.2-8.6c2.2,6.9,4.4,13.7,6.6,20.6c1,3.2,2.1,6.5,3.9,9.4
	c1.6,2.5,3.9,4.7,5.3,7.3c6.6,11.7-4.4,26.3-1.9,39.5c0.9,5.1,3.8,9.5,6,14.2c4.9,10.4,6.8,22.2,5.5,33.7
	c-0.8,7.3-2.9,14.4-4.9,21.4c-1.5,5-2.9,10.1-4.4,15.1c-0.7,2.5-1.4,5-2.5,7.3c-6,13.7-22.1,23-22.9,38c-0.1,1.4,0,2.9-0.6,4.1
	c-0.5,1-1.2,1.7-1.9,2.5c-5.4,6-6.1,15.1-11,21.5c-5,6.7-13.6,9.5-20.2,14.7c-6.9,5.5-7.1,15.6-12.3,22.8c-2,2.8-3.8,5.1-5.6,8
	c-1.6,2.5-4.3,4.1-6.5,6.2c-2.1,2.1-3.8,5.2-2.7,8c0.6,1.5,2,2.7,2.4,4.3c0.5,2-0.7,4.2-0.3,6.3c0.4,1.9,2.1,3.3,2.5,5.2
	c0.3,1.3-0.1,2.6-0.4,3.9c-3.6,12.7-6.4,25.6-8.4,38.6c-0.7,4.7-1.1,10.4,2.6,13.5c2.8,2.4,6.8,2.3,10.5,2.6
	c4,0.3,11.1-1.2,11.8,2.8"/>
<path fill="none" stroke="#E1E1E1" stroke-miterlimit="10" d="M112.5,366.8c1.4-4.3,1.9-9,1.6-13.6c-0.6-9.1-3.9-17.8-7.2-26.3
	c-0.4-1.1-1-2.3-2.1-2.8c-0.8-0.3-1.7-0.2-2.5-0.1c-5.7,0.8-11.4,1.6-17.1,2.4c-2.9,0.4-6,0.8-8.9,0.4c-4.3-0.7-8.2-3.2-11.4-6.3
	C55,311,44,297.2,46.9,283.6c1.3-5.9,3.6-11.3,5.6-17c3.3-9.3,13.4-15.7,23.3-14.7c1,0.1,2,0.3,2.9-0.1c0.9-0.3,1.6-1.2,2.1-1.9
	c19.6-25.4,39.5-51.5,48.5-82.2c2.3-8,3.9-16.2,4.7-24.5c0.5-5.8,1.5-11.8,2.3-17.6c1.6-11.1-3.1-22.1-3.5-33.3
	c-0.2-4.1,0.3-8.3,2.3-11.8c2.1-3.5,6-6.1,10-5.6c0.8,0.1,1.7,0.3,2.5,0c0.9-0.4,1.4-1.3,2-2.1c1.4-1.9,4.6-1.1,6.1-2.9
	c2.6-3.2-5.1-6.2-7.9-9.2c-5.4-5.8-6.5-14.5-10.9-21.2c-1.3-2-2.9-3.8-4.3-5.7c-3-4.2-5-8.9-7-13.7c-0.5-1.3-1.1-2.7-0.8-4.1
	c0.1-0.7,0.5-1.4,0.7-2.2c0.3-1.7-0.6-3.3-1.5-4.8c-3-4.9-6-9.9-9-14.8c-0.4-0.7-0.9-1.4-1.3-2.1"/>
<path fill="none" stroke="#E1E1E1" stroke-miterlimit="10" d="M128.6-8.3c1.3,4.5,2.7,9,4,13.5c0.6,2,1.4,4.3,3.3,5.2
	c1.1,0.6,2.5,0.5,3.6,1.1c2.1,1.2,2.4,4,3.4,6.3c2.3,5.3,8.5,7.3,13.4,10.1c13.6,7.8,19.3,24.1,24,39.1c0.5,1.6,1,3.3,0.9,5
	c-0.2,2.5-1.9,4.6-3.5,6.6c-8.7,10.5-18.3,20.5-24.6,32.5s-9.3,26.8-4,39.4c0.8,1.8,1.7,3.6,1.5,5.6c-0.2,3-2.8,5.1-4.8,7.4
	c-3.8,4.5-5.4,10.5-6.7,16.3c-1.9,8-3.8,16-5.7,23.9c-0.9,3.7-1.7,7.6-0.4,11.1c2.1,5.2,8.2,7.5,13.8,8.3c5.6,0.8,11.6,1,16.1,4.3
	c5.6,4.1,7,13,2.9,18.6c-3.2,4.4-8.4,7.4-12.6,10.8c-1.1,0.9-2.3,1.8-3.7,1.8c-2.2,0-3.6-2.4-5.3-3.9c-2.5-2.3-6.6,0.6-9.5-1.1
	c-6.3-3.5-3.9-14.2-9.6-18.5c-0.8-0.6-1.7-1.2-2.7-1.2c-1.1,0.1-2,0.8-2.8,1.6c-10.5,9.9-19.7,21.1-27.5,33.3
	c-1.7,2.7-3.4,5.5-6,7.4s-6.2,2.8-8.9,1.2c-1.2-0.7-2.1-1.7-3.2-2.6c-5.7-4.7-16.1-1.7-17.5,5.5c-1,5.5,3.1,11,8.3,13
	c5.2,2,11.1,1.2,16.5-0.4c2.7-0.8,5.3-1.8,8.1-1.7c2,0,4,0.7,6,0.7c4.7,0.2,8.9-2.5,13-4.8c4.5-2.5,9.3-4.8,14.4-4.9
	c5.1-0.2,10.6,2.3,12.8,7c3.3,7.2-2.4,14.9-6,22c-8.4,16.8-4.7,36.3-4.1,55.4"/>
<path fill="none" stroke="#E1E1E1" stroke-miterlimit="10" d="M138.9,367.3c1.3-12.9,3.8-25.8,6.3-38.4c0.5-2.6,1-5.2,2-7.6
	c0.6-1.6,1.5-3.2,1.9-4.9c0.5-1.8,0.5-3.6,0.6-5.4c1.1-15.9,8.3-30.6,15.3-44.9c2.2-4.4,4.4-8.9,7.8-12.4c3.6-3.8,8.7-6.6,10.4-11.5
	c0.8-2.3,0.7-4.8,1.5-7.1c0.7-2.2,2.2-4,3.6-5.8c6-7.6,12-15.2,18-22.7c1.1-1.4,2.3-2.9,2.7-4.7c0.4-1.8,0-3.8-0.4-5.6
	c-3.2-14.3-6.4-28.7-9.7-43c-0.6-2.6-1.9-5.5-3.1-7.9c-0.9-1.8-1.9-3.7-3.6-4.8c-5.2-3.2-12,3.2-17.8,1.2c-3.3-1.2-5-4.8-5.5-8.2
	c-1.1-7.8,2.9-15.3,6.8-22.2c1.5-2.7,3-5.4,4.5-8.1c1.7-3.1,3.5-6.2,6.3-8.4c2-1.5,4.3-2.5,6.6-3.4c1.9-0.8,3.9-1.6,5.8-2.4
	c5.2-2.1,10.5-8,15.8-5.9c2.9,1.2-0.4,6.5,1.3,9.2c1.1,1.8,3.9-1.4,5.1-3.1c4.1-5.4,12.5-12.7,8.4-18.1c-3.9-5.1-9.4-8.3-11.7-14.2
	c-1.2-3-2.5-6.2-5.2-8c-1.2-0.8-2.7-1.3-4-2c-2-1.1-3.7-2.7-5.3-4.4c-5.1-5.2-7.1-18.4-14.2-16.7c-4,1-3.6,10.9-7.4,9.3
	c-7.9-3.4-6.6-15.8-10.7-23.3c-1.2-2.2-2.6-4.5-4.5-6.1c-2.1-1.7-4.7-2.6-7.1-3.9c-3.4-1.9-6.3-4.5-9.2-7.2
	c-0.9-0.8-1.8-1.7-2.6-2.6"/>
<path fill="none" stroke="#E1E1E1" stroke-miterlimit="10" d="M283.8-8.4c1.8,4.8,6.9,8.8,8.3,13.9c1.9,7.1-3.4,14-8.3,19.5
	c-9.4,10.5-19.1,21.2-31.6,27.8c-3.7,2-7.7,3.7-10.3,6.9c-4.9,6-3.5,14.8-5.1,22.4c-3.2,15.4-18.6,25.1-25,39.4
	c-7,15.5-2.4,33.5,2.3,49.8c1.4,4.7,3.7,10.3,8.6,10.9c3.5,0.4,6.7-2.1,8.9-4.9c2.2-2.7,4.1-6,7.1-7.8c3-1.8,5.6,1.5,9.1,1.9
	c1.8,0.2,2.8-3.5,4.6-2.9c4.7,1.4,5.6,11.3,10.4,10.3c2.6-0.5,5.2-2.4,6.3,0c6.9,15.3,24.5,27.1,24.7,43.9
	c0.1,11.2-11.3,19.3-16.9,28.9c-2.3,4-6.6,11.6-10.1,8.5c-1.4-1.2-2.6-2.8-4.3-2.2c-1.8,0.6-3,2.1-4.2,3.5
	c-4.3,5.4-8.7,10.9-13,16.3c-1.6,2-2.3,3.8-3.9,5.8c-0.8,1-2.5,0.5-3.7,0.2c-6.6-1.8-7.6-11.2-7.9-18s0.6-13.8-1.3-20.3
	s-8-12.6-14.7-11.5c-2.6,0.4-5,1.9-7.1,3.4c-13.9,10.1-22.6,25.9-29.2,41.7c-11.6,27.8-18.3,57.4-23.8,87c-0.1,0.4-0.2,0.8-0.2,1.3"
	/>
<path fill="none" stroke="#E1E1E1" stroke-miterlimit="10" d="M206.1-7.3c1.6,5.8,3.8,11.4,6,16.9c1.8,4.7,4.1,9.8,8.6,12
	c4.6,2.2,6.7-2.8,10.4-6.2c4.2-4,11.9-0.2,15.8-4.5c1.7-2,2.9-4.3,4.5-6.5c2.4-3.3,5.5-5.9,8.6-8.6c1.1-0.9,2.2-1.8,3.3-2.8"/>
<path fill="none" stroke="#E1E1E1" stroke-miterlimit="10" d="M241.1,364.8c1.4-5.3,4.7-10.1,7.4-14.9c4.6-8,8.2-16.7,10.6-25.6
	c0.6-2.3,1.1-4.7,0.5-7c-0.6-2.3-2.8-4.3-5.1-3.9c-1.2,0.2-2.2,1-3.2,1.8c-8.4,6.5-20.2,20.8-28.5,14.1c-2.3-1.9-2.2-5.5-3.9-7.9
	c-3.6-4.9-5.3-10.9-7-16.8c-2.4-8.3,0.2-20.4-7.1-25c-3.8-2.4-7.4,4.9-8.9,9.1s-2.2,8.7-4.3,12.6c-1.9,3.5-4.8,6.2-7.3,9.3
	c-4.6,5.8-7.6,12.8-10.2,19.7c-4.7,12.3-8.8,24.8-12.1,37.6"/>
<path fill="none" stroke="#E1E1E1" stroke-miterlimit="10" d="M191.9,366c2.7-3.1,5.4-6.2,8.1-9.3c3.6-4.1,7.1-8.2,10.5-12.3
	c3-3.7,6.4-11.4,10.6-9.3c4.6,2.3,2.4,10.1,2.6,15.2c0.2,5.2-0.4,10.4-0.8,15.6"/>
<path fill="none" stroke="#E1E1E1" stroke-miterlimit="10" d="M314.1,213.1c-0.8,1.2-2.1,1.9-3.3,2.8c-5,3.6-7.8,9.5-10.3,15.1
	c-10.6,24.1-20.1,49.2-21.6,75.5c-0.2,3.7-0.3,7.4,0.9,10.9c0.4,1.3,1,2.6,1.6,3.8c4.2,8.8,8.4,17.6,12.6,26.4
	c0.5,1,1.2,2.2,2.3,2.4c0.9,0.1,1.8-0.4,2.5-1c8.2-6.5,12.2-17.8,10.1-28.1c-0.3-1.4-0.7-2.8-0.9-4.2c-0.2-2.1,0-4.2,0.3-6.2
	c2.2-18,4.4-35.9,6.6-53.9c0.7-5.3,1.3-10.6,2.1-15.8c0.8-5.2,1.9-10.4,2.5-15.7c0.7-5.1,1-10.3,0.9-15.5c0-0.6,0-1.3-0.4-1.8
	c-0.9-1.3-3.2-0.6-4,0.8C315.3,210,315.1,211.8,314.1,213.1z"/>
<path fill="none" stroke="#E1E1E1" stroke-miterlimit="10" d="M307.5,364.3c4.5-6.8,9.1-13.6,13.6-20.4c2.9-4.3,5.8-8.7,6.7-13.8
	c1.2-7.1-1.8-14.2-2.9-21.4c-1.2-7.7-0.2-15.5,0.8-23.3c4.1-31.9,8.2-63.8,12.3-95.7c0.5-4.2,1.1-8.5,0-12.6
	c-1.1-4.1-6.7-4.6-8.4-8.5c-3.1-7,4-14.4,4.7-22.1c0.7-7.3,0.9-16.9,7.4-20.4c3.4-1.9,8.2,0.6,11.2-2c3.1-2.7,3.4-7.4,2.8-11.5
	c-0.8-5.1-2.7-9.9-4-14.8c-1.2-5-1.7-10.4,0.4-15.1c1.9-4.3,5.9-8.2,5.3-12.9c-0.3-2.2-1.7-4.3-1.3-6.5c0.3-2.3,2.3-3.9,3.8-5.7
	c3.3-4,4.3-9.6,3.5-14.7c-0.9-5.1-3.4-9.8-6.5-14c-0.9-1.2-1.8-2.4-2.2-3.8s0.1-3.2,1.5-3.8c0.5-0.2,1-0.3,1.4-0.7
	c0.6-0.6,0.6-1.6,0.9-2.3c0.3-0.6,0.7-1,1.3-1.4"/>
<path fill="none" stroke="#E1E1E1" stroke-miterlimit="10" d="M299.3-8.2c2.1,8.7,1.6,18-1.5,26.3c-8,21.3-31,33.9-40.4,54.6
	c-2.4,5.2-3.8,10.8-5.7,16.3c-3.4,9.6-9.5,17.9-15.9,25.8c-3,3.7-7.2,6.4-8.5,11c-1.3,4.6,2.4,12.2,7,13.5c5.1,1.4,11-3.2,15.4-0.2
	c1.4,1,2.3,2.6,3.7,3.7c1.3,1.1,3.6,1.5,4.6,0.1c0.4-0.5,0.5-1.2,0.9-1.6c0.9-0.9,2.5-0.4,3.4,0.5c0.9,0.9,1.5,2.2,2.5,2.9
	c0.8,0.6,1.8,0.8,2.7,1c3.4,0.8,6.9,1.6,10.3,2.4c3.5,0.8,7,1.6,10.6,1.2s7.1-2.5,8.4-5.8c0.6-1.6,0.7-3.4,1.6-4.9
	c0.9-1.5,3.3-2.2,4.3-0.8c0.4,0.6,0.9,1.9,1.5,1.4c11.4-9.1,11.7-26.8,13.5-41.2c1.8-14.5,1.4-29.1,1.1-43.7
	c-0.1-2.3-0.1-4.7-0.8-6.9c-0.6-2.1-1.7-4-2.6-5.9c-6.6-13.4-6.6-29.3-3.3-43.9c0.3-1.5,0.7-3.1,1.4-4.5"/>
<path fill="none" stroke="#E1E1E1" stroke-miterlimit="10" d="M257.8,98.4c2.3-4,3.2-9.1,6.8-12c1.3-1,2.8-1.7,4.2-2.6
	c3.4-2.3,5.7-5.9,7.6-9.6c3.2-6.2,5.8-13,11-17.6c0.8-0.7,1.6-1.3,2.2-2.2c0.5-0.8,0.7-1.6,1-2.5c1-3.1,2.2-6.1,3.7-8.9
	c0.5-1,1.1-2,2-2.7c0.9-0.7,2.2-1,3.1-0.4c0.9,0.5,1.2,1.6,1.5,2.5c0.7,2.1,1.3,4.1,2,6.2c0.4,1.3,0.8,2.5,1,3.8
	c0.3,1.7,0.3,3.4,0.2,5.1c-0.1,8.3-0.3,16.7-2,24.8c-1,4.4-2.4,8.6-3.8,12.8c-3.9,11.7-8.4,24-18,31.7c-0.9,0.7-1.8,1.4-2.9,1.4
	c-1.6,0.1-2.9-1-4.1-2.1c-2.7-2.4-3.2-7.2-6.5-8.5c-1.6-0.6-3.2,1.7-4.7,1.1c-0.7-0.3-1.3-0.8-1.8-1.2c-2.9-2.3-6.8-1.9-10.4-2.7
	c-2.5-0.6-1.1-4.9,0.4-7C252.6,104.6,255.8,101.9,257.8,98.4z"/>
<path fill="none" stroke="#E1E1E1" stroke-miterlimit="10" d="M361.6,341.8c-6-1-12-1.8-17.3,0.6c-4.9,2.2-6.9,8.4-9.8,13
	c-1.4,2.2-3.2,4.6-4.8,7"/>
<path fill="none" stroke="#E1E1E1" stroke-miterlimit="10" d="M359.4,237.2c-2.8,7.5-5.6,15.2-6.1,23.2c-0.7,10.9,2.5,21.1,7.1,31.1
	"/>
<path fill="#EAEAEA" stroke="#D6D6D6" stroke-miterlimit="10" d="M249.8,25.1c0.4-3.3,1.4-3.5,3.8-5.7c2.7-2.5,6.6-7.7,8.2-11
	c0.3-0.6,0.7-1.1,1.2-1.6c0.8-0.8,1.8-0.3,2.5,0.6c0.6,0.7,1.4,1.4,1.9,2.1c0.7,0.9,1.4,1.4,2.2,2.2c0.9,0.9,2.2,1.5,3.5,1.7
	c4.2,0.5,6.2-5.9,8.8-3.6c1.8,1.5,1.4,4.1,0.3,6.2c-0.6,1-1.5,1.8-2.4,2.6c-6.2,5.2-12.4,10.5-18.6,15.7c-0.8,0.7-1.8,1.4-2.7,1
	c-0.9-0.3-1.5-2-2.4-1.6c-0.9,0.3-0.5,1.8-0.8,2.6c-0.9,2.2-4.8-0.1-6.9,1c-1.5,0.8-2.1,2.4-2.5,3.1c-0.6,1.3-2.5,0.8-3.9,0.9
	c-1.3,0-2.6-0.1-3.6-0.9c-0.7-0.5-1.1-1.4-1.5-2.2c-0.8-1.7-1.5-4-0.2-5.3c0.6-0.6,1.5-0.8,2.3-1.1c1.1-0.3,2.3-0.6,3.4-0.9
	c0.4-0.1,0.7-0.2,1.1,0c0.3,0.1,0.4,0.6,0.8,0.8c2.3,0.9,4.5-0.3,4.7-1.6C249.4,27.6,249.6,26.3,249.8,25.1z"/>
<path fill="#EAEAEA" stroke="#D6D6D6" stroke-miterlimit="10" d="M258.1,218.6c-2.8,1.3-5.8,2.6-7.8,5c-0.7,0.8-1.4,1.9-2.5,1.9
	c-0.3,0-0.7-0.1-1-0.1c-1.6-0.1-3.2,2-4.6,1.2c-0.6-0.3-0.8-1-1.3-1.4c-1.6-1.9-5.2-1-6.7-2.9c-0.7-1-0.7-2.3-1.2-3.4
	c-1.1-2.4-3.8-3.1-6-4.7c-1-0.7-2.2-1.4-3-2.3c-1.2-1.4-2.1-2.9-3.2-4.2c-0.9-1-1.8-2.7-0.5-3.2c2.5-1,4.4-0.3,6.7-1.7
	c2.3-1.4,5.1-3.4,6.9-2.9c0.8,0.2,1.5,0.6,2.3,0.9c0.8,0.2,1.7,0.7,2.5,1.1c1.2,0.5,2.1,1.8,3.4,1.7c0.5,0,1-0.3,1.5-0.4
	c1.9-0.2,3,2.2,4.8,2.8c0.8,0.3,1.8,0.1,2.6,0.4c0.7,0.3,1.3,0.8,1.8,1.3c2.9,2.8,6,2,7.2,1.8c1.8-0.3,2.6,3.7,2.5,5.5
	C262.4,216.8,260.1,217.7,258.1,218.6z"/>
<path fill="#EAEAEA" stroke="#D6D6D6" stroke-miterlimit="10" d="M138.3,245.2c-0.8-0.6-0.5-1.9,0-2.8c0.5-0.9,1-1.9,0.6-2.8
	c-0.2-0.4-0.5-0.7-0.6-1c-0.4-1.2,1.1-2.3,0.8-3.4c-0.2-0.7-1.1-1.3-0.9-2c0.2-0.6,0.9-0.8,1.5-0.9c1.7-0.5,3.1-1.8,4.5-2.9
	c1.4-1.1,3.2-2.1,5-1.7c1.9,0.4,3.1,2.3,4.3,3.9c1.6,2.1,3.4,3.9,5.5,5.4c1.3,0.9,2.8,1.9,3.2,3.4c0.3,1.3-0.1,2.6-0.9,3.7
	c-2.6,4-7.7,5.5-12.4,6.7c-1.2,0.3-2.5,0.6-3.8,0.5s-2.6-0.9-3-2.1c-0.4-1.1-0.2-2.5-1.2-3.1C140.2,245.4,139,245.8,138.3,245.2z"/>
<path fill="#EAEAEA" stroke="#D6D6D6" stroke-miterlimit="10" d="M131.9,224.7c-0.4-0.4-1.2-0.8-1.6-0.4c-0.6,0.6-0.2,1.7-0.1,2.5
	c0,0.1,0,0.3,0.1,0.4c0.1,0.2,0.4,0.4,0.6,0.5c1,0.6,2,1.2,2.8,2.1c0.6,0.8,1.6,2.5,2.3,1.7c1-1.1-0.6-2.9-1.3-4.3
	c-0.4-0.7-0.8-1.5-1.6-1.8c-0.2-0.1-0.5-0.1-0.7-0.3C132.2,225,132.1,224.8,131.9,224.7z"/>
<path fill="none" stroke="#D6D6D6" stroke-miterlimit="10" d="M185.6,185.7c0.5,1.6,1.8,2.8,3,3.9c4,3.4,8.2,6.6,12.7,9.5
	c1.2,0.8,2.4,1.8,3.7,2.3c1,0.4,1.9,0.7,2.9,1c3.7,1.1,7.7,2.2,11.6,2.9"/>
<path fill="#7BBCEB" stroke="#4E9BD7" stroke-miterlimit="10" d="M181.3,167.9c3.4,1.7,3.8,2.5,6.4,5.1c0.8,0.8,1.5,2.4,1.6,3.6
	c0.2,2-0.8,3.2-1.7,4.9c-0.7,1.4-1.3,2.9-2.1,4.2c-1.8,3.1-4.7,4.7-8.3,4.7c-3.5,0-7.6-0.5-10.2-3c-1.3-1.3,1.6-4.4-1-10.8
	c-0.8-2-3.7-3.5-3-5.5c0.3-0.9,1.8-0.8,2.7-0.4c0.9,0.4,1.6,1.1,2.5,1.5c0.9,0.4,2.1,0.4,2.7-0.4c0.3-0.4,0.3-0.9,0.4-1.3
	c0.2-1.3,0.5-2.6,1.3-3.6c0.8-1,2.3-1.9,3.5-1.5c0.5,0.2,1.2,0.6,1.8,0.8C178.6,166.6,180.7,167.6,181.3,167.9z"/>
<path fill="#EAEAEA" stroke="#D6D6D6" stroke-miterlimit="10" d="M14.3,167.6c1.4-0.2,1.4-2.6,1.5-4.2c0-0.5,0.1-1.9,0-2.4
	c-0.2-0.8-0.2-1.3-0.4-2.1c-0.2-0.6-0.8-1.2-1.5-1.3c-0.7-0.1-1.2,0.6-1.5,1.2c-0.7,1.5-0.8,3.2-0.9,4.8c-0.1,0.9-0.1,1.9,0.2,2.7
	S13.4,167.7,14.3,167.6z"/>
<path fill="none" stroke="#D6D6D6" stroke-miterlimit="10" d="M-8.8,100.4c5.1-5.2,10.2-10.3,12-17C4,80.1,4.2,76.1,6.9,74
	c1.4-1.1,3.2-1.5,4.8-2.3c3.9-2.1,6-6.6,6.8-10.9s0.8-8.9,1.8-13.2C23.3,35.9,33.8,28,43.6,21c1.2-0.8,2.5-1.7,3.9-1.7
	c1.6,0,3,1.1,4.5,0.8c1.3-0.2,2.2-1.2,3.2-2.1c3.4-3.1,8.3-4.4,12.9-3.5c5.7,1.1,10.3,5.3,14.5,9.4c5,4.8,10,9.6,14.9,14.4
	c1.9,1.8,3.8,3.7,4.7,6.2c0.4,1.2,0.6,2.6,1.3,3.7c0.9,1.3,2.4,2,3.8,2.6c11.4,4.8,22.8,9.7,34.1,14.5c3.3,1.4,6.7,2.8,10.3,2.9
	c2.7,0.1,5.4-0.6,8.1-0.7c6-0.3,11.9,2.1,17.8,3c6,0.9,13.1-0.2,16.2-5.4c0.9-1.5,1.4-3.3,2.7-4.4c1.4-1.2,3.6-2.9,5.4-3.3
	c3.2-0.7,5.3-1.6,7.5-4.1c1.1-1.2,3-2.9,4.6-3.5c1.4-0.6,3.1-0.4,4.5-0.9c2-0.8,2.5-2,3.9-3.7c1.3-1.7,3.4-1.9,5.5-1.9
	c1.9,0,2.7-1.9,3.9-3.3c1.2-1.4,2.5-3.3,4.3-3.8"/>
<path fill="none" stroke="#D6D6D6" stroke-miterlimit="10" d="M269.1,10.8c1.4-1.3,3-3.1,4.1-4.6c0.8-1.1,1.6-2.5,1-3.8
	c-0.3-0.6-0.9-1.1-1.3-1.6c-0.3-0.5-0.5-1-0.7-1.6c-0.5-2-0.2-4.2,0.6-6.1"/>
<path fill="none" stroke="#D6D6D6" stroke-miterlimit="10" d="M22.5,149c1.3,1.2,1.8,2.8,1.6,4.6c-0.1,0.9-0.3,1.8,0,2.6
	c0.5,1.1,1.9,1.4,3,1.3s2.4-0.4,3.5-0.2c1.5,0.3,2.7,1.7,3.2,3.2c0.5,1.5,0.5,3.1,0.5,4.7c0,2.6-0.1,5.3-0.1,7.9c0,1.7,0,3.4,0.6,5
	c1,2.5,3.6,4.1,6.1,5.2c2.7,1.1,5.6,1.9,8.5,2.3c1.5,0.2,3.1,0.3,4.6,0.8c2.1,0.7,4.3,3.2,6.1,4.5c8.6,6,18.7,7.4,29,9.8
	c5.8,1.4,9.7,2.9,15.4,4.3c2.2,0.5,6.1,1.6,8.4,1.7c3,0.1,6.6-1.4,8.1,2.2c0.3,0.7,0.3,1.5,0.3,2.3c0.2,6,2.9,12.6,8.6,14.4"/>
<path fill="none" stroke="#D6D6D6" stroke-miterlimit="10" d="M359.2,25c0.9,0.4,1.8,0.9,2.7,1.2c2.6,1,6.8,1.4,8.9-0.4"/>
<path fill="none" stroke="#D6D6D6" stroke-miterlimit="10" d="M327.8,13.1c2.5,2,6,2.9,9.2,2.3c0.6-0.1,1.1-0.2,1.7,0
	c0.3,0.1,0.6,0.4,0.8,0.6c0.9,0.8,1.7,1.6,2.6,2.4c1.6,1.5,3.3,3.1,5.4,3.8c2.1,0.7,4.5,0.4,6.7,0.8c1.8,0.3,3.5,1.2,5.1,2"/>
<path fill="none" stroke="#4E9BD7" stroke-miterlimit="10" d="M22.3,148.9c1.7-0.9,3.3-2.3,5.2-2.6c1.9-0.3,4.1,0.3,5.2,1.8
	c1.9,2.5,1,6.9,3.9,8c2.3,0.9,4.5-1.6,5.4-3.9s1.7-5.1,4-6c1.1-0.4,2.4-0.3,3.6-0.2c10.4,0.9,20.9-1.9,31.2-0.3
	c6.5,1,12.8,3.8,19.2,5.2c10.8,2.4,13.9,3.5,25.7,4.6c2.4,0.2,12.8,0.7,15.2,0.8c1.8,0.1,3.6,0.8,5.3,1.2c3.1,0.7,6.1,1.3,8.7,3
	c3.3,2.1,3.5,5,3.5,7.9c0,1.7,2.4,2.2,4.1,2.8"/>
<path fill="none" stroke="#D6D6D6" stroke-miterlimit="10" d="M136,231.5c0.6,0.4,1.3,1.1,2,1.4"/>
<path fill="#FFFFFF" stroke="#4E9BD7" stroke-miterlimit="10" d="M173.8,175.5c0.1,0.6,0.7,1.1,1.3,1.2c0.6,0.2,1.3,0,1.9-0.1
	c0.3-0.1,0.6-0.2,0.8-0.4c0.5-0.4,0.6-1,0.8-1.6c0.1-0.4,0.2-0.7,0-1.1c-0.1-0.4-0.5-0.6-0.8-0.7c-1.4-0.6-3.3,0.2-3.8,1.7
	C173.8,174.7,173.7,175.1,173.8,175.5z"/>
<path fill="none" stroke="#4E9BD7" stroke-miterlimit="10" d="M22.5,148.8c-3.9,1.4-6.3,6.7-8.8,6.4c-2.6-0.3-0.6-9.4-0.3-14.2
	c0.1-1.4,0-2.9-0.7-4.2s-2.1-2.2-3.5-1.9c-0.7,0.1-1.3,0.6-2,0.4c-0.8-0.2-1.2-1.1-1.7-1.7c-1.5-1.7-2,0.5-3.8-0.9
	c-0.8-0.6-3.1-3.7-3.9-4.4c-1.3-1.3-4-0.9-5.8-1.5c-0.2-0.1-0.5-0.2-0.7-0.2"/>
<g>
	<g>
		<path fill="none" stroke="#585858" stroke-miterlimit="10" d="M-11.6,68.8c0.5,0.5,1,1,1.5,1.4"/>
		<path fill="none" stroke="#585858" stroke-miterlimit="10" stroke-dasharray="4.0004,1.0001" d="M-9.3,70.7
			c0.3,0.2,0.6,0.3,0.8,0.3c6.3,0.9,9.3-1,14.5,4c0.7,0.7,3.7-0.6,4.1,0.5c0.5,1.3,0.6,1.8,2,2.2c1.3,0.4,2.9,0.4,3.9,1.4
			c1.6,1.4,1.1,3.9,0.6,5.9c-3,11.4-4.7,23.1-4.9,34.9c-0.1,3.8,0.5,8.4,4,10c2.2,1,5,0.5,7,2c1.2,1,1.7,2.5,2.6,3.8
			c0.6,1,1.4,1.8,2.2,2.6c3.7,3.8,7.1,7.9,10.2,12.3c1.3,1.8,2.5,3.7,3.3,5.8c1.4,3.6,1.5,7.6,1.6,11.5c0.3,13.4,0.6,26.7,0.9,40.1
			c0,1.1,0.1,2.2,0.4,3.2c1.4,4,6.5,4.7,10.7,4.9c2.6,0.1,6.1-2.8,7.5-0.6c2,3.2-6.5,6.4-5.3,10c0.4,1.2,3.2,0.4,3.4,1.7
			c0.2,1.6-3.9,1.7-3.5,3.3c0.3,1.5,3.5-0.3,4.6,0.8c0.9,0.9-1.5,2.7-0.8,3.8c0.5,0.7,1.9-0.8,2.6-0.3c0.7,0.4,0.2,1.8,0.8,2.4
			c4.3,3.5,14.8-3,16.6,2.3c1.2,3.6-9.3,6.3-6.8,9.3c1,1.2,3.3,0.2,4.1,1.6c0.8,1.4,0.4,3.3-0.8,4.3c-0.7,0.6-1.7,1-2.2,1.8
			c-1.3,2.1,1.8,4.1,3.7,5.6c4.3,3.4,4.2,9.9,4,15.4c-0.1,3.5,0.3,7.6,3.3,9.4c3.4,2.1,10.1-0.8,11.2,3c0.9,2.9-3.6,4.5-6.3,5.8
			s-5.6,3.5-5.4,6.4c0.1,1.1,0.6,2.1,0.9,3.2c0.5,2-2.8,4.4-1.3,5.7c3,2.5,3.6,11.2,2,15.5c-2,5.2-7,4.5-6.5,8.1
			c0.3,2.2,3.3,3,3.4,5.2c0.1,2.2-0.7,4.3-1.4,6.4c-1.9,5-3.7,10.1-5.6,15.1c-0.1,0.3-0.2,0.7-0.4,1"/>
		<path fill="none" stroke="#585858" stroke-miterlimit="10" d="M76.2,363c-0.1,0.5-0.1,0.9-0.1,1.4c0,0.2,0.1,0.4,0.1,0.6"/>
	</g>
</g>
<g>
	<g>
		<path fill="none" stroke="#585858" stroke-miterlimit="10" d="M83.2,282.5c0.6-0.2,1.2-0.5,1.9-0.7"/>
		<path fill="none" stroke="#585858" stroke-miterlimit="10" stroke-dasharray="4.025,1.0062" d="M86,281.3
			c10.6-4.2,21.2-8.4,31.8-12.6c2.6-1,5.3-2.1,7.2-4.2c1.9-2.1,2.7-4.8,3.5-7.5c1.7-6.3,3-12.8,5.8-18.7c2.5-5.3,6.1-10,9.8-14.6
			c8.6-10.8,18.9-22.2,32.6-23.4c7.1-0.6,14.2,1.7,20.9,4c8.7,3,17.5,6.3,24.9,11.7c7.4,5.5,13.4,13.5,14.2,22.7
			c0.3,3.1,0.1,6.6,1.9,9.1c2.3,3.2,6.6,3.7,10.3,4.9c9.5,3.3,15.6,12.7,18.6,22.3c4.4,13.9,3.7,28.8,6.9,43
			c1.8,8.1,4.8,15.8,7.1,23.7c1.9,6.4,3.5,13,4,19.7c0,0.2,0,0.4,0,0.6"/>
		<path fill="none" stroke="#585858" stroke-miterlimit="10" d="M285.7,362.7c0,0.7,0.1,1.3,0.1,2"/>
	</g>
</g>
<text transform="matrix(1 0 0 1 231.1887 53.3103)"><tspan x="0" y="0" fill="#585858" font-family="'Verdana-Italic'" font-size="8">Mildred</tspan><tspan x="0" y="9.6" fill="#585858" font-family="'Verdana-Italic'" font-size="8">Lake</tspan></text>
<text transform="matrix(1 0 0 1 230.2569 184.1591)"><tspan x="0" y="0" fill="#585858" font-family="'Verdana-Italic'" font-size="8">Sunrise Lakes</tspan><tspan x="0" y="9.6" fill="#585858" font-family="'Verdana-Italic'" font-size="8">(upper)</tspan></text>
<text transform="matrix(1 0 0 1 163.5895 150.0399)"><tspan x="0" y="0" fill="#7BBCEB" font-family="'Verdana-Italic'" font-size="8">Sunrise Lakes</tspan><tspan x="0" y="9.6" fill="#7BBCEB" font-family="'Verdana-Italic'" font-size="8">(middle)</tspan></text>
<text transform="matrix(1 0 0 1 163.5895 255.837)"><tspan x="0" y="0" fill="#585858" font-family="'Verdana-Italic'" font-size="8">Sunrise Lakes</tspan><tspan x="0" y="9.6" fill="#585858" font-family="'Verdana-Italic'" font-size="8">(lower)</tspan></text>
<text transform="matrix(1 0 0 1 37.0001 283.5329)" fill="#585858" font-family="'Verdana-Italic'" font-size="8">9242 ×</text>
<text transform="matrix(1 0 0 1 254.3503 90.0666)" fill="#585858" font-family="'Verdana-Italic'" font-size="8">10151 ×</text>
<path fill="none" d="M173.9,330.5c2.7-6.9,5.6-13.9,10.2-19.7c2.5-3.1,5.4-5.8,7.3-9.3"/>
<text transform="matrix(0.4338 -0.901 0.901 0.4338 179.2616 324.0309)"><tspan x="0" y="0" fill="#7D7D7D" font-family="'Verdana-Italic'" font-size="7">9</tspan><tspan x="4.3" y="0" fill="#7D7D7D" font-family="'Verdana-Italic'" font-size="7" rotate="3.9">8</tspan><tspan x="8.5" y="0.3" fill="#7D7D7D" font-family="'Verdana-Italic'" font-size="7" rotate="8.9">0</tspan><tspan x="12.7" y="0.9" fill="#7D7D7D" font-family="'Verdana-Italic'" font-size="7" rotate="14.6">0</tspan></text>
<path fill="none" d="M184.6,235.6c0.7-2.2,2.2-4,3.6-5.8c6-7.6,12-15.2,18-22.7"/>
<text transform="matrix(0.6186 -0.7857 0.7857 0.6186 188.4324 233.5554)"><tspan x="0" y="0" fill="#7D7D7D" font-family="'Verdana-Italic'" font-size="7">9</tspan><tspan x="4.4" y="0" fill="#7D7D7D" font-family="'Verdana-Italic'" font-size="7" rotate="0.2">4</tspan><tspan x="8.9" y="0" fill="#7D7D7D" font-family="'Verdana-Italic'" font-size="7" rotate="0.2">0</tspan><tspan x="13.3" y="0" fill="#7D7D7D" font-family="'Verdana-Italic'" font-size="7" rotate="0.2">0</tspan></text>
<path fill="none" d="M78.5,200c2.9-6.5-5.1-13.8,19.1-44.7"/>
<text transform="matrix(0.3897 -0.9209 0.9209 0.3897 83.9295 182.3303)"><tspan x="0" y="0" fill="#7D7D7D" font-family="'Verdana-Italic'" font-size="7">8</tspan><tspan x="4.3" y="0" fill="#7D7D7D" font-family="'Verdana-Italic'" font-size="7" rotate="4.1">6</tspan><tspan x="8.6" y="0.3" fill="#7D7D7D" font-family="'Verdana-Italic'" font-size="7" rotate="7.2">0</tspan><tspan x="12.9" y="0.9" fill="#7D7D7D" font-family="'Verdana-Italic'" font-size="7" rotate="9.7">0</tspan></text>
<path fill="none" d="M214.2,171.3c-4.7-16.3-9.3-34.3-2.3-49.8c6.4-14.3,21.8-24,25-39.4"/>
<text transform="matrix(0.4872 -0.8733 0.8733 0.4872 214.5789 121.5769)"><tspan x="0" y="0" fill="#7D7D7D" font-family="'Verdana-Italic'" font-size="7">9</tspan><tspan x="4.2" y="0" fill="#7D7D7D" font-family="'Verdana-Italic'" font-size="7" rotate="4.9">6</tspan><tspan x="8.5" y="0.4" fill="#7D7D7D" font-family="'Verdana-Italic'" font-size="7" rotate="8.3">0</tspan><tspan x="12.8" y="1" fill="#7D7D7D" font-family="'Verdana-Italic'" font-size="7" rotate="10.2">0</tspan></text>
<path fill="none" d="M324.9,291.7c4.1-31.9,8.2-63.8,12.3-95.7"/>
<text transform="matrix(0.1279 -0.9918 0.9918 0.1279 333.159 247.7722)"><tspan x="0" y="0" fill="#7D7D7D" font-family="'Verdana-Italic'" font-size="7">9</tspan><tspan x="4.5" y="0" fill="#7D7D7D" font-family="'Verdana-Italic'" font-size="7">6</tspan><tspan x="8.9" y="0" fill="#7D7D7D" font-family="'Verdana-Italic'" font-size="7">0</tspan><tspan x="13.4" y="0" fill="#7D7D7D" font-family="'Verdana-Italic'" font-size="7">0</tspan></text>
<g>
	<g>
		<polyline fill="none" stroke="#7D7D7D" stroke-miterlimit="10" points="85.2,341.6 85.2,348.7 275.4,348.7 275.4,341.7 		"/>
		<line fill="none" stroke="#7D7D7D" stroke-miterlimit="10" x1="180.5" y1="341.4" x2="180.5" y2="348.7"/>
		<line fill="none" stroke="#7D7D7D" stroke-miterlimit="10" x1="161.2" y1="349.2" x2="161.2" y2="343.7"/>
		<line fill="none" stroke="#7D7D7D" stroke-miterlimit="10" x1="142.4" y1="349.2" x2="142.4" y2="343.7"/>
		<line fill="none" stroke="#7D7D7D" stroke-miterlimit="10" x1="123.3" y1="349.2" x2="123.3" y2="343.5"/>
		<line fill="none" stroke="#7D7D7D" stroke-miterlimit="10" x1="104.6" y1="349.2" x2="104.6" y2="343.7"/>
	</g>
	<text transform="matrix(1 0 0 1 83.7834 339.1469)" fill="#7D7D7D" font-family="'Verdana'" font-size="8">0</text>
	<text transform="matrix(1 0 0 1 174.2945 339.1469)" fill="#7D7D7D" font-family="'Verdana'" font-size="8">0.5</text>
	<text transform="matrix(1 0 0 1 258.3414 339.1469)" fill="#7D7D7D" font-family="'Verdana'" font-size="8">1 mi</text>
</g>
</svg>
