<?xml version="1.0" encoding="utf-8"?>
<!-- Generator: Adobe Illustrator 17.1.0, SVG Export Plug-In . SVG Version: 6.00 Build 0)  -->
<!DOCTYPE svg PUBLIC "-//W3C//DTD SVG 1.1//EN" "http://www.w3.org/Graphics/SVG/1.1/DTD/svg11.dtd">
<svg version="1.1" id="Layer_1" xmlns="http://www.w3.org/2000/svg" xmlns:xlink="http://www.w3.org/1999/xlink" x="0px" y="0px"
	 viewBox="0 0 360 360" enable-background="new 0 0 360 360" xml:space="preserve">
<path fill="none" stroke="#E1E1E1" stroke-miterlimit="10" d="M-16.8,345.4c-0.6,0.7,1.4,1.3,2.2,1.9c0.6,0.6,1.3,1.2,2.1,1.6
	c1.6,0.8,3.5,0.7,5.2,0.5c0.3,0,0.7-0.1,0.9-0.3c0.4-0.4,0.2-1.2-0.1-1.7c-1.1-1.6-2.9-2.5-4.7-3.2
	C-12.7,343.8-15.8,344.3-16.8,345.4z"/>
<path fill="none" stroke="#E1E1E1" stroke-miterlimit="10" d="M-14.5,338.4c0-0.4,0.7-0.1,0.9,0.2c3.5,5.3,11.3,6.3,14.8,11.5
	c0.7,1,1.1,2.1,1.6,3.2c2,4.5,3.9,9.1,5.9,13.6"/>
<path fill="none" stroke="#E1E1E1" stroke-miterlimit="10" d="M-12,336.9c4.2,3.2,8.5,6.4,12.7,9.6c1.4,1.1,2.8,2.2,4.2,3.3
	c1.5,1.3,2.9,2.7,4.3,4.1c3.9,3.9,7.7,7.7,11.6,11.6"/>
<path fill="none" stroke="#E1E1E1" stroke-miterlimit="10" d="M-12.9,329.1c1.9,2,4.4,3.6,7.1,4.4c1.4,0.4,2.9,0.7,4.2,1.3
	c3.3,1.5,5.3,4.7,7.7,7.4c3.1,3.5,6.9,6.1,10.7,8.7c7.4,4.8,15,9.2,22.7,13.5"/>
<path fill="none" stroke="#E1E1E1" stroke-miterlimit="10" d="M-12.9,325.7c11.6,2.8,23.8,5.9,32.4,14.1c2.6,2.5,4.9,5.4,8,7
	c5.1,2.7,11.3,1.7,16.9,0.4c3.2-0.7,6.5-1.5,8.9-3.7c2.4-2.2,1.1-5.5,1.3-8.7c0.2-2.4,4.7-0.6,7,0.1s4.8-0.2,5.9-2.4
	c1.3-2.4,5.6-1.3,7.3,0.8c1.7,2.1-0.3,4.6-0.4,7.3c-0.2,7.8,8.2,16.9,16,16.9c2,0,1-4.6,2.9-5.2c8.5-2.9,18.4,4.5,24.4-2.1
	c1.9-2.1,3.3-4.6,5.3-6.5c2-1.9,5-3.3,7.6-2.3c1.2,0.5,2.3,1.4,3.6,1.5c1.7,0.1,3-1.1,4.6-1.8c2-0.8,4.3-0.6,6.4-0.6
	c5,0.1,10.1-1.1,13.9-4.3c3.7-3.3,5.6-9,3.4-13.4c-1.2-2.3-0.8-4.4-0.8-7c-0.1-6.8-15.1,0.5-19.4-4.8c-1.9-2.3-2-5.8-0.2-8.2
	s5-1.7,7.8-2.4c3.4-0.8,3.6-6.5,1.9-9.5c-1.7-3-6.1-3.1-8.5-0.6c-1.7,1.7-4.9-0.8-5.4-3.1c-0.5-2.4,2.5-4.6,1.7-6.8
	c-2.2-6.3-8.5-10.2-14.5-13.1c-8.2-4.1-14.1,11.5-22.5,15.3c-0.5,0.2-1,0.4-1.5,0.3c-0.8-0.1-1.3-0.8-1.8-1.4
	c-6.8-9.2-0.7-20.7-0.5-32.2c0.1-4.1-4.8-7.1-8.7-8.3c-1.2-0.4-2.5-0.4-3.7-0.9c-3.6-1.4-5.1-6.2-4-10s5.7-5.6,6.9-9.3
	c0.4-1.2-1.7-2.8-0.8-3.7c3.2-3.6,9.2-2.7,12.6-6.1c3.4-3.4,6.5-7.4,10.7-9.6c1.6-0.8,3.4-1.4,4.5-2.8c1.3-1.5,1.6-3.6,1.9-5.6
	c0.5-4.4,1.1-8.8,1.6-13.1c0.2-1.8,0.3-3.9-0.9-5.1c-2.2-2.2-5.9,0.1-8.5,1.8c-3.9,2.5-9.1,5.3-13.3,3.3c-2.1-1,0.6-4.2,2.5-5.5
	c6.4-4.1,11.8-10.7,19.2-12.2c5.2-1,15.1,3.4,15.6-1.9c0.3-2.8-5.6-1.9-6-4.7c-0.9-6.1,9.4-5.2,14.1-9.2c4.5-3.9,4.6-11.2,4.5-17.3
	c0-2.6-0.3-5.3,1-7.6c0.8-1.4,2.2-2.4,3.4-3.6c4.1-3.8,6.7-9,10.3-13.4c3.6-4.3,9.1-7.9,14.6-6.5c1.2,0.3,2.4,0.8,3.7,0.9
	c1.7,0.1,3.3-0.5,4.9-1.1c3.1-1.2,6.3-2.5,9.4-3.7c2.5-1,5.8-1.9,7.6,0.2c0.6,0.7,0.9,1.5,1.2,2.3c1.4,4,0.7,9.7,4.2,12
	c2.4,1.6,3.7-4.6,6.5-5.1c0.9-0.2,1.7,0.1,2.6,0.3c4.4,1.3,8.8,2.6,13.1,3.9c1.1,0.3,2.3,0.7,3.5,0.5c3.3-0.5,4.6-4.5,6.6-7.3
	c1.9-2.6,4.9-4.3,7.9-5.8c7.7-4,15.4-8.1,23.1-12.1c1-0.5,2.2-1.3,2.4-2.4c0.1-0.5,0-1.1,0-1.6c0.1-2.4,3.1-3.3,5.4-4.3
	c3.4-1.4,6-4.2,8.4-7c2.7-3.1,5.4-6.2,8-9.3c2.1-2.5,4.2-5,6.4-7.4c3.2-3.8,6.5-7.4,10.8-9.8c0.6-0.3,1.3-0.7,2-0.6
	c0.5,0.1,0.9,0.4,1.4,0.4c0.7,0,1.4-0.5,2-1c1.5-1.1,3.6-0.1,5.3-1c4.1-2.1,6.2-6.8,10.8-7.6s9.2-0.2,13.8-0.3
	c2.2-0.1,4.4-0.3,6.2-1.5c0.7-0.5,1.3-1.1,2-1.5c1.2-0.8,2.7-1,4.1-1.5c2-0.7,3.7-2,5.5-3.2c1.6-1.1,3.2-2.3,4.8-3.4"/>
<path fill="none" stroke="#E1E1E1" stroke-miterlimit="10" d="M335.3-19.1c-4,2.8-9.5,10.9-5,12.9c4.8,2.2,10.4,5.7,14.9,2.8
	c0.9-0.6,1.6-1.5,2.7-1.4c0.7,0,1.3,0.6,1.8,1.2c3.1,3.9,6.7,6.9,9.5,11c3.7,5.3-7.9,9.8-14,12c-8.4,3.1-16.8,6.2-25.3,9.3
	c-2.8,1-5.7,2.1-8.2,3.7c-3.6,2.3-6.5,5.6-9.2,8.9c-7.2,8.8-14.2,18.1-23.2,25c-12.6,9.7-28.5,14.2-41.9,22.8c-4.7,3-9.3,6.6-14.7,8
	c-5.4,1.3-12.2-0.4-14.4-5.6c-0.9-2-1.2-4.7-3.3-5.5c-1.2-0.5-2.5-0.1-3.7,0.3c-7.5,2.4-14.9,4.8-22.6,6.4
	c-6.4,1.3-15.2-2.9-19.4,2.1c-5.3,6.3-8.7,12.9-12.4,20.2c-4,7.8-10.4,13.8-15.2,21.1c-3.6,5.6-8.2,10.4-13.2,14.9
	c-1,0.9-2.1,1.9-2.6,3.3c-0.5,1.3,1,1.3,0.8,2.7c-0.2,1.8-13.5,8.5-20.9,11.3c-2.2,0.8-4.4,1.6-6.3,3c-4.3,3.2-6,8.8-9.7,12.8
	c-4.2,4.5-10.4,6.4-16.3,8.4s-12,4.7-15.1,10c-0.6,1-1,2.2-0.7,3.3c0.7,2.4,4,2.4,6.4,2c4.8-0.8,7.8,0.1,12.6-0.7
	c0.6-0.1,3.6-1,4.2-0.7c0.7,0.4,1.4,2.2,1.2,3c-1,3.6-1.9,5.9-0.9,10.3c1.3,5.6-0.1,12.2-4.2,16.3c-1,1,0.8,2.1,2.2,2.4
	c4.4,1,8.5,3.8,10.8,7.7c0.9,1.5,1.7,3.3,3.3,4.1c1.7,0.9,3.9,0.5,5.2,1.9c1.1,1.2,0.7,3.1,0.6,4.7c-0.4,5.7,3.1,11.4,1.8,16.9
	c-0.8,3.3-3.1,6.4-2.4,9.7c0.8,3.9,5.3,5.7,9.1,6.8c0.9,0.3,1.9,0.6,2.9,0.5c1.1-0.1,2.1-0.7,3.1-1.2c4.9-2.5,13.2-6.1,16-1.4
	c1.8,3.1-1.3,8.5,1.8,10.4c0.6,0.4,1.2-0.9,1.9-0.7c5.4,1.7,1.1,11.3,1.7,17c0.2,1.8,0.3,3.6,0.1,5.3c-0.2,1.3-0.5,2.6,0,3.7
	c0.6,1.1,2,2,1.5,3.1c-0.1,0.4-0.5,0.6-0.8,0.9c-3.9,3.2-7.9,6.4-11.8,9.6c-0.9,0.7-1.8,1.5-3,1.6c-0.8,0.1-1.6-0.2-2.5-0.4
	c-1.4-0.2-2.8,0.1-4.2,0.3c-3.5,0.4-7-0.1-10.2-1.5c-2.7-1.2-4.1-4.6-7.1-4.8c-3.3-0.2-6.7,0.5-7.8-2.7c-2.3-6.2-10.1-8.3-16.2-5.9
	c-1.4,0.6-2.7,1.4-4.1,2.1c-11.1,5.9-25.4,1.9-34.8-6.4c-2.9-2.6-5.6-5.7-9.3-7.1c-3.6-1.5-8.6-0.7-10.2,2.9
	c-0.8,1.7,0.1,4.4-1.5,5.4c-6,3.8-14.1,1-21.1,2.2"/>
<path fill="none" stroke="#E1E1E1" stroke-miterlimit="10" d="M29,303.3c0.6,0.4,1.4,0.6,2,0.4c0.1,0,0.3-0.1,0.4-0.2
	c0.1-0.1,0.2-0.2,0.2-0.4c0.3-0.8,0.5-1.6,0.3-2.4c-0.4-1.6-3.2-2.8-4-1.4C27.3,300.6,27.9,302.4,29,303.3z"/>
<path fill="none" stroke="#E1E1E1" stroke-miterlimit="10" d="M-11.6,309.6c8.1-0.4,23.8,0.3,22.8-7.8c-0.2-1.9-4.7-2.9-3.4-4.3
	c1.3-1.4,3.8,0.1,5.6,0.2c4.1,0.2,9.1,0.9,10.7,4.6c0.4,0.8,0.6,3.9,1.2,4.6c0.6,0.8,3,0.5,4,0.5c8,0.3,7.7,6.1,10.9,3
	c2-2-4.6-6.2-2.6-8.1c3.1-2.9,5,9.5,9.1,8.5c2.7-0.6-4.1-9.4,1.6-7.9c2.1-3.5,0.8-10.1,4.9-10.7c5.5-0.9,7.9,7.8,11.8,11.7
	c3.1,3.1,6.2,6.2,10.1,8c1.6,0.8,3.5,1.6,4,3.3c0.3,1.1,0.1,2.6,1.1,3c0.7,0.2,1.4-0.3,2.1-0.6c1.4-0.5,2.9,0.2,4.2,0.9
	c1.2,0.6,2.3,1.2,3.5,1.7c2.5,1.2,5,2.5,7.8,2.7c3.8,0.3,7-2.7,7.1-6.5c0.1-3.6,0-7.2,2.1-10.1c1.4-1.9,3.3-3.7,2.4-6.2
	c-0.4-1-1.2-1.8-2.2-2.3c-2.6-1.2-5.3-0.6-8-0.7c-8-0.2-15.1-7.4-15.2-15.4c-0.1-6.8,4-14.4-0.1-19.8c-1.9-2.5-5.1-3.7-8.1-4.7
	c-4.8-1.6-11.4-0.7-14.5-4.8c-0.7-0.9,1.6-1.8,1.5-2.9c-0.2-2-4-0.6-6-1.1c-5-1.2-8-6.3-10.1-11c-2-4.8-3.4-11-8.3-12.8
	c-6.3-2.4-13.2,2-19.7,4s-14.2,2.9-19.4-1.4c-5-4.1-5.8-11.4-6.9-17.5c-0.4-2.3-0.2-4.8,0.7-6.9c2.2-4.9,6.1-3.6,9.6-4.3
	c5.9-1.3,8.8-7.8,11.1-13.4c3.2-7.7,7.1-15.2,11.6-22.2c0.9-1.4,2-2.9,3.6-3.1c1-0.1,2,0.4,3,0.9c5.1,2.8,9.8,6.4,13.9,10.6
	c0.6,0.6,1.2,1.2,2,1.5c1.2,0.3,2.5-0.4,3.5-1.3c4.9-5,2.4-13.9,6.4-19.6c2-2.9,5.3-4.5,8.5-6c0.6-0.3,1.3-0.6,2-0.4
	c0.8,0.3,0.9,1.3,1.4,2c3.3,4.8-1,10.4,0.3,12.6c0.9,1.5,3.2-2.4,4.6-1.4c2.1,1.5,2.2,4.7,4.7,5.2s5.1-0.2,7.6-1
	c5.1-1.5,10.2-3.1,15.3-4.6c0.7-0.2,1.3-0.4,1.8-0.8c0.9-0.7,1.1-1.9,1.5-3c1.3-3.4,4.1-5.9,6.7-8.5c5.7-5.6,10.7-11.9,14.7-18.9
	c3.4-5.9,10-9.9,14.9-14.7c0.7-0.6,1.3-1.3,1.8-2.1c0.5-1.1,0.6-2.3,0.7-3.5c0.2-2,0.5-3.9,0.9-5.9c1.4-6.2,5.9-13.2,12.2-12.2
	c1.6,0.2,3.3,1,4.8,0.5c1-0.3,1.8-1,2.8-1.1c0.9-0.1,1.7,0.4,2.5,0.6c6.9,2.2,13.3-6.6,20.5-5.8c1,0.1,2.1,0.4,3,0
	c1.1-0.4,1.6-1.6,2.2-2.6c2.1-3.6,6.2-6,10.4-5.9c4.6,0.1,9.1,3.1,10.7,7.5c0.4,1,1.1,1.9,2,2.3c2.3,1.1,4.4,1.8,7,1.9
	c7.4,0.3,11.2-9,18.3-11.4c10.2-3.4,19.4-9.2,27.5-16.3c5.8-5.1,13.2-9.7,17.1-16.8c1.2-2.2,2.1-4.7,3.4-6.9c3.4-5.6,12-6,15.4-11.6
	c0.9-1.5-1.2-4-0.1-5.4c3.1-4.2,10-3,14.9-4.5c2.8-0.8,8.1-3.8,5.8-5.4c-3.9-2.7-9.5-1.4-12.6-5c-3.1-3.6-4.7-8.2-6.3-12.7
	c-1.1-3.1-2.2-6.1-3.3-9.2"/>
<path fill="none" stroke="#E1E1E1" stroke-miterlimit="10" d="M143.7,95.8c-0.6-0.7-2,0.4-2.2,1.3c-0.3,0.9,0.3,2.5,1.2,2.3
	C143.9,99,144.6,96.7,143.7,95.8z"/>
<path fill="none" stroke="#E1E1E1" stroke-miterlimit="10" d="M294.2-20.2C296-15,297.5-8.5,294-5c-5.7,5.7-6.4,6.8-6,14
	c0.3,4.5-5.8,6.3-9,8c-4.8,2.5-14.5,0.6-13,10c0.5,3,7.7,2.2,6,7c-0.7,2.1-3.1,2-4,4c-4.4,9.8-12,17-21,22s-13.2,14.1-28.4,12.4
	c-3.5-0.4-4.6-0.9-7.6-1.4c-6.2-1-13.2-5.2-19-1c-14.4,10.4-30,13-47,13c-5,0-13.5,1-13,8c0.5,7.1,9,14,2,21c-2,2-4,4-6,6
	c-1,1-2,0-3,1c-5.8,5.3-11,11-16.7,16.4c-6.8,6.5-23.3,15.6-27.1,7.1c-0.7-1.5,0.9-3.3,0-4.6c-1-1.3-3.1-0.5-4.4-1.5
	c-1.2-0.9-1.7-2.7-3.2-2.7c-1.5,0-3,0.7-4.3,1.5c-3.3,1.8-6.4,6.5-10,5.5c-1.3-0.4-2.5-0.5-3.7,0.3c-4.3,2.7-9.3,4.2-14.3,4.3
	c-2.5,0.1-5.1-0.2-7.6,0.2c-3.8,0.7-7,2.9-10.1,5.1c-2.3,1.6-4.6,3.3-6.5,5.3c-2.2,2.4-3.7,5.3-4.9,8.2c-1.3,3.2-2.2,6.6-2.5,10.1
	c-0.2,3.1,0,6.6-2,9c-0.9,1-2.1,1.7-3.2,2.5c-5.2,3.3-9.9,7.3-14.6,11.4c-2.4,2.1-4.8,4.1-7.2,6.2"/>
<path fill="none" stroke="#E1E1E1" stroke-miterlimit="10" d="M29.1,205.4c0.8-1.9,1.3-4.2,0.3-6c-1-1.8-3.2-2.6-5.2-2.5
	c-2.3,0.1-4.6,1.2-6.4,2.8s-3.2,3.4-4.6,5.3c-1.5,2-3,4-3.3,6.5c-0.2,1.1,0,2.4,0.9,3.1c1.2,1,2.9,0.5,4.3,0.1
	c1.7-0.6,3.4-1.2,5.1-1.7c2-0.7,4.1-1.4,5.8-2.8C27.4,208.8,28.4,207.1,29.1,205.4z"/>
<path fill="none" stroke="#E1E1E1" stroke-miterlimit="10" d="M42.7,203.9c1.6-1.9,3.1-3.9,3.7-6.3c0.6-2.4,0-5.2-2.1-6.6
	c-0.9-0.6-2-0.8-2.9-1.4c-0.7-0.4-1.4-0.9-2-1.5c-1.6-1.4-3.2-2.7-4.8-4.1c-0.6-0.5-1.2-1-1.9-1.4c-0.7-0.4-1.6-0.6-2.4-0.7
	c-3.5-0.5-6.9,1.1-9.6,3.3c-2.6,2.3-4.6,5.2-6.4,8.2c-1.4,2.3-2.9,4.6-3.8,7.2c-0.5,1.3-0.8,2.7-1.5,3.9c-0.9,1.5-2.3,2.5-3.6,3.7
	c-2,1.9-3.5,4.2-4.4,6.8c-0.8,2.3-1,5,0.7,6.8c1.4,1.5,3.7,1.7,5.8,1.8c1.7,0,3.5,0,5.1-0.7c1.8-0.7,3.2-2.1,4.8-3.1
	c4.2-2.5,9.5-2.4,13.8-4.8c1.8-1,3.4-2.4,4.9-3.9C38.4,208.9,40.6,206.4,42.7,203.9z"/>
<path fill="none" stroke="#E1E1E1" stroke-miterlimit="10" d="M-12.4,178.6c2.1,1.6,5.2,1.8,7.5,0.6c2.1-1.1,3.5-3.2,4.7-5.2
	c5.3-8.7,15.8-17.9,12.9-27.7c-0.5-1.6-3.1,0.1-4.5,1s-3.6,1.5-4.4,0.1c-0.1-0.3-0.2-0.5-0.2-0.8c-0.3-2.9,2.2-5.4,4.9-6.3
	s5.7-0.5,8.6-0.2c9.9,0.9,19.9,0.4,29.6-1.6c5.4-1.1,10.8-2.6,15.9-4.5c1.4-0.5,4-1.8,5.5-2.1c3.7-0.7,5.7-0.2,9.3-1.3
	c6.2-2,13,1,19.1-1.3c3.2-1.3,5.3-4.5,8.4-6.1c1.7-0.8,3.7-1.1,5.4-1.8c5.3-2,8.5-7.3,11.3-12.2c0.7-1.3,1.5-2.6,1.4-4.1
	c0-1.1-0.6-2.2-0.6-3.4c0-1.1,0.5-2.1,0.9-3c3.2-6.8,6.5-13.6,9.7-20.4c0.3-0.7,0.7-1.4,1.2-2c1.9-2,5.1-1.5,7.6-0.5
	c2.5,1,5.1,2.5,7.8,2.1c3.2-0.5,6.1-0.6,9.2-1.6c4.1-1.3,6.4-5.3,10.5-6.7c4.5-1.5,6.9-6.2,11.1-8.4c3.1-1.6,6.5-5,9.5-3.4
	c1.3,0.7-1.4,3.4-0.3,4.5c2.4,2.4,6.7-0.9,9.9-1.9c3.2-1.1,6.6-1.3,9.8-0.1c0.5,0.2,0.9,0.4,1.4,0.3c0.7-0.1,1.3-0.7,1.8-1.3
	c1.2-1.3,2.7-2.3,4.4-2.6s2.7,1.8,4.4,2.1c2.3,0.5,4.3-2.4,6.7-1.9c0.4,0.1,0.9,0.2,1.3,0c0.4-0.1,0.6-0.5,0.8-0.8
	c1.1-1.7,2.1-4,4.1-4.3c1-0.2,2,0.2,3,0.2c2.3,0,4.1-1.9,5.5-3.7s2.7-3.9,4.8-4.8c1.8-0.8,4.3-0.7,5.2-2.5c0.5-1,0.3-2.3,1.1-3.1
	c0.3-0.4,0.8-0.6,1-1.1c0.2-0.4,0-0.9-0.1-1.3c-0.5-2,0.4-4.1,1.2-5.9c2.1-4.7,4.3-9.5,8.1-12.8c1.7-1.5,3.9-2.8,4.9-4.8
	c1-2,0.8-4.4,0.5-6.6c-0.2-1.9-0.5-3.9-0.7-5.8c-0.1-0.9-0.3-1.9-1.1-2.2c-0.8-0.3-2,0-2.2-0.8c-0.1-0.3,0-0.5,0.2-0.8
	c1.3-2.9,3.4-5.5,6-7.3c0.5-0.3,1-0.7,1.3-1.2c0.8-1.1,0.4-2.7,0.6-4.1c0.2-1.5,1.1-2.8,2.3-3.6"/>
<path fill="none" stroke="#E1E1E1" stroke-miterlimit="10" d="M266.8-18.1c-2.1,7.6-4.4,15.3-9,21.7c-2.9,4-6.7,7.2-9.2,11.5
	c-2.4,4-3.5,8.6-5.3,12.8c-1.5,3.7-3.6,7.1-6.1,10.2c-1.8,2.2-3.9,4.3-6.6,5.1c-2.7,0.8-4.6-2.3-7.4-2.6c-9.6-1-16.6,11-25.9,8.6
	c-2.8-0.7-5.6-1.9-8.5-2.1c-6.1-0.5-11.8,3.3-16,7.7c-4.3,4.4-7.8,9.6-12.8,13.1c-1.6,1.1-3.4,2.1-5.3,2.3c-2,0.2-4-0.4-6-0.7
	c-7.4-1.1-14.9,1.8-20.6,6.5s-9.8,11.2-13,17.9c-1.9,4-5.1,6.2-9.4,7.3c-4.5,1.3-6.7,6.6-11,8.3c-2.1,0.9-4.5,1.5-6.2,3.1
	c-1.7,1.6-1.2,3.9-1,6.2c0.4,3.9-7.1-0.1-11.1,0.2c-2.1,0.2-3.8,1.6-5.5,2.8c-9.2,6.6-20.7,9.1-32,8.8c-7.2-0.1-14.5,0.5-21.7,0.9
	c-1.6,0.1-3.3,0.2-4.9,0.6c-1.2,0.3-2.3,0.9-3.4,1.5c-2.1,1.3-4,3-5.8,4.8c-0.5,0.5-1.1,1.1-1.7,1.4c-0.8,0.4-1.7,0.5-2.5,0.7
	c-1.5,0.4-2.9,1.1-4.1,2.1c-1.1,1-2.1,2.2-3,3.4c-2.2,3-4.4,6-6.6,8.9"/>
<path fill="none" stroke="#E1E1E1" stroke-miterlimit="10" d="M-14.9,138.9C-5,131,6.5,125.6,19,122c5.8-1.7,12,1,18,1
	c5,0,6.7-5.4,11-8c1.9-1.2,4.1-0.9,5-2c2.3-2.8-4.2-9.1,0-10c5.3-1.1,6.5,0.1,12.2-1.5c1-0.3,1.1-2.7,4.4-0.8
	C70,101,71,100.2,72,100c3.1-0.5,5-5,8-5c7,0,14.9,0.8,22-3c2-1.1,5.1,0.1,7-2c7.5-8.5,10.9-19.5,21-22c11.5-2.8,18.5-10.5,28-15
	c1.8-0.9,4,0.3,6,0c3.1-0.5,4.1-2.9,5.8-4.3c8.3-7,24.6-9,28.5-11.3c1.7-1,0.2-9.3,0.7-13.4c0.1-1-2.2-1.6-3-1
	c-4.8,3.6-6.4,9.5-10.7,11c-5.4,1.9-13.5-0.9-20.3,1c-8.9,2.5-8.7,17.3-18,19c-5,0.9-8,3-12,5s-8.4-1.2-12.2,0.5
	c-4.9,2.2-9.9,8-14.8,11.5c-4.8,3.3-11,5-15.5,7.6c-3.2,1.8-7.4,2.9-11,3.8c-2.1,0.5-4.4,0.9-6.3-0.1c-0.6-0.3-1.1-0.7-1.8-0.9
	c-1.3-0.4-2.6,0.2-3.7,0.9c-5.2,3.2-9.4,8.5-15.4,9.8c-1.5,0.3-3.1,0.4-4.6,0.8c-6.4,1.8-9.3,9.4-14.9,12.9c-2.9,1.8-6.6,2.5-10,1.7
	c-2.5-0.6-5.1-1.8-7.4-0.8c-0.8,0.3-1.5,0.9-2.4,1c-0.7,0.1-1.4-0.1-2,0c-1.3,0.3-2,1.7-3,2.5c-2.7,2.1-7.3,0-9.9,2.2
	c-1.1,0.9-1.8,2.6-3.2,2.8c-1,0.2-2.3-0.4-3.1,0.2c-0.9,0.6-0.7,2.1-1.6,2.7c-0.5,0.3-1.2,0.3-1.8,0.2c-4.1-0.3-8.3,1.1-11.3,3.9"/>
<path fill="none" stroke="#E1E1E1" stroke-miterlimit="10" d="M-15.4,107.1c2.4,1,5-0.7,7.3-1.9s4.5,0.4,7.1,0.3
	c2-0.1,2.9-3,4.9-2.9c1.2,0,2.4,0.5,3.5,0.1c1.3-0.4,1.9-1.8,2.8-2.8c3-3.3,8.2-2.9,12.5-1.8s9.1,2.4,13,0.2
	c4.2-2.4,5.3-7.9,7.7-12.2c3.1-5.4,11-15.7,14.7-10.6c1.4,1.9,1.8,4.3,4.1,3.6c2.3-0.6,3.9-2.6,6.1-3.6c4.3-1.9,9.2,0.6,13.9,1.3
	c7,1,13.9-2.3,20.1-5.6c3.4-1.8,7-3.7,9.9-6.2c8.3-7.2,6.3-14,12.3-17.6c2.8-1.7,4.4-0.7,7.3-2.3c6.6-3.7,13.5-7,20.6-9.8
	c5.7-2.3,8.9-7.7,13.5-11.8c1.8-1.6,3.7-3.4,4.5-5.8c0.3-0.9,0.5-2,1.3-2.6c0.4-0.3,1-0.4,1.5-0.5c1.9-0.6,3-2.5,3.7-4.3
	c0.2-0.5,0.4-1.1,0.7-1.5c0.4-0.5,1-0.8,1.6-1.1c1.5-0.7,3-1.4,4.5-2.1c1.7-0.8,3.5-1.6,5.4-1.7c1.2,0,2.4,0.3,3.5,0
	c1.1-0.3,2-1,2.9-1.6c4.2-2.6,9.9-2.4,13.8-5.5c0.9-0.7,1.6-1.5,2.4-2.2c0.9-0.7,1.8-1.3,2.8-1.9c2.1-1.3,4.1-2.5,6.2-3.8
	c1.1-0.7,2.2-1.3,3.4-1.7c1.5-0.5,3.1-0.4,4.6-0.8c4.5-1,7.7-4.9,10.6-8.6"/>
<path fill="none" stroke="#E1E1E1" stroke-miterlimit="10" d="M220.3-18.8c-6.2,3.7-12.5,7.4-18.7,11c-5,3-10.6,6.1-16.4,5.5
	c-2.2-0.2-4.6-1-6.6,0c-1.2,0.6-2.1,1.7-3.2,2.3c-4.1,2.1-12.4-2.9-12.9,1.6c-1,8.2,0.6,16.9-4.5,23.4s-13.4,10.4-21.6,10.1
	c-3.5-0.1-7.2-0.9-10.2,0.9c-3.1,1.8-4.3,5.7-5.5,9.1c-1.7,4.5-4,8.8-6.9,12.7c-4.2,5.6-9.8,10.4-16.6,12
	c-6.8,1.6-14.7-0.6-18.5-6.5c-1-1.5-1.7-3.4-3.3-4.3c-2-1.3-4.7-0.6-6.9,0.2c-13.9,5-26,14.6-34.2,27c-1.4,2.1-2.7,4.3-4.8,5.7
	c-4.4,2.9-10.1,1-15-0.9c-1.7-0.6-3.4-1.3-5.2-1c-1.7,0.3-3.1,1.5-4.6,2.5c-6.3,4.5-17.9,10.3-22.3,3.8"/>
<path fill="none" stroke="#E1E1E1" stroke-miterlimit="10" d="M2.5-18.3C1.2-15,0-11.7-1.2-8.4c-0.7,1.8-1.4,3.7-1.4,5.7
	c0,2,0.9,4,2.6,5c0.9,0.5,1.8,0.6,2.7,1s1.7,1.3,1.5,2.2C4.2,6.1,3.8,6.5,3.4,7c-1.3,1.6-2.3,3.4-3,5.3C-1.5,17-1.5,22.5-4.1,27
	c-0.5,0.8-1,1.6-1.2,2.5c-0.3,1.2,0.2,2.5,0.3,3.8c0.2,2.2-0.5,4.5,0.2,6.7c0.5,1.5,1.7,2.7,2.3,4.2c0.7,1.7,0.6,3.7,0.4,5.5
	c-0.4,5.6-1.2,11.8-5.5,15.5c-0.9,0.8-2,1.4-3,2.2c-2,1.6-3.6,3.8-4.8,6.1"/>
<path fill="none" stroke="#E1E1E1" stroke-miterlimit="10" d="M16.2-21.1C11.5-3.9,5,26.7,8,30.5c1.4,1.8,3.5-2.3,5.3,4.4
	c0.6,2.2-0.3,4.6,0.3,6.7c1.4,5,9,8,7.4,13c-0.4,1.1-1.1,1.9-1.8,2.8c-2.6,3.7,0.9,8.8-0.9,12.9c-2.1,5-9.4-5.2-14.8-4.3
	c-1.2,0.2-0.1,3.1-1.2,3.4c-3.5,0.9-7.4-1.3-9.6,1.6s-2.5,6.8-2,10.4c0.2,1.3,0.5,2.7,1.2,3.8c2.4,3.5,7.7,2.8,11.4,1
	s7.5-4.5,11.7-4c2.1,0.3,4,1.3,6.1,1.8s4.6,0.1,5.7-1.7c1.9-3.3-4.4-11.2-0.6-11.1c5.6,0.3,5.6-1.8,6.8-6.1
	c0.9-2.9,13.8,0.4,19.5-2.5c5.8-3,9.8-9.1,16.1-11c2.9-0.9,6.1-0.9,8.7,0.5c3.6,1.9,5.3,6.1,8.3,8.7c4.6,4,11.7,4,17.1,1.3
	s9.3-7.7,12.3-13c3.8-6.6,5.8-20.5,7.5-21.4c4.4-2.4,9.3-3.4,14.2-2.7c1.4,0.2,2.6,0.9,3.9,1.4c4.9,1.7,10.5-0.5,13.9-4.4
	s4.7-9.3,4.7-14.4c0.1-3.8-2.4-6.7-4.1-10c-1.5-2.9,1.8-7.6,5.1-7.2c1.3,0.2,2.4,1.1,3.5,1.8c2,1.2,4.6,1.6,6.8,1
	c2.1-0.6,3.9-1.9,6-2.1c4.8-0.7,10.1,5.4,14.1,2.5c1.9-1.4,0.5-5.4,2.6-6.6c5.3-2.9,12.7-1.2,13.9-7.1"/>
<path fill="none" stroke="#E1E1E1" stroke-miterlimit="10" d="M150.6-20.4c-5.4,6.4-4.7,17.1,1.6,22.7c1,0.9,2.3,1.8,2.7,3.1
	c0.4,1.1,0.2,2.4-0.2,3.5c-0.8,2.6-2.1,5.1-3.9,7.2c-1.8,2.1-4.2,4-7,4c-2.8,0.1-3.4-3-5.3-5c-2.2-2.4-5.7,2.7-8.2,4.8
	s-6.2,3.6-8.8,1.8c-0.9-0.6-1.7-1.7-2.8-1.5c-1.2,0.2-1.5,1.9-1.5,3.1c0,2.8,0,5.6,0,8.4c0,1.5,0,2.9-0.4,4.4
	c-0.4,1.5-1.1,2.9-1.9,4.2c-3.7,6.4-8.6,13.2-15.9,14.2c-6.9,0.9-15.5,1.1-20.4-3.9c-2.1-2.1,0-5.9,0-8.9c0-0.6-0.1-1.2-0.5-1.5
	c-0.5-0.3-1.2,0.1-1.7,0.4C72,43.8,65.7,41,61.1,43.8c-7.6,4.7-11.6,15-20.4,13.6c-2.3-0.3-4.6-1.2-6.1-2.9c-1.1-1.1-1.7-2.6-2.4-4
	c-3.4-7.4-6.8-14.7-10.2-22.1c-0.9-1.9-1.8-3.9-2.2-6c-0.4-2.1-0.3-4.3-0.1-6.4c0.3-4.5,0.5-9,1.6-13.4c0.6-2.4,1.4-4.8,1.9-7.3
	c1.1-5.6,0.5-11.6-1.8-16.9"/>
<path fill="none" stroke="#E1E1E1" stroke-miterlimit="10" d="M144.7,10.9c0,0.1,0.1,0.3,0.2,0.4c0.3,0.4,1,0.5,1.3,0.2
	c0.7-0.7,0.6-2,0.3-2.9c-0.2-0.6-1.4-0.3-1.7,0.3C144.5,9.5,144.6,10.2,144.7,10.9z"/>
<path fill="none" stroke="#E1E1E1" stroke-miterlimit="10" d="M118.9-11.4c0.1-0.4,0-0.8-0.3-1.1c-0.4-0.5-1-0.9-1.6-0.8
	c-0.6,0-1.2,0.6-1.2,1.2c0,0.7,0.9,1.2,1.6,1.3C118-10.7,118.7-10.9,118.9-11.4z"/>
<path fill="none" stroke="#E1E1E1" stroke-miterlimit="10" d="M141.9-18.7c-1.3-0.3-1.5,1.7-1.3,3c1.4,7.2-1.3,14.6-5.2,20.8
	c-1.8,2.9-3.9,5.7-6.7,7.7c-2.8,2-6.3,3.1-9.7,2.5c-1.7-0.3-3.7-1.1-5,0c-1.4,1.2-0.8,3.4-0.4,5.3c1.2,4.9,0.3,10-0.5,15
	c-0.2,1.2-0.4,2.4-1,3.5c-1.6,2.8-5.2,3.7-8.3,4.3c-3.6,0.7-7.1,1.3-10.7,2c-2.4,0.4-5,0.9-7.1-0.2c-2.5-1.2-3.7-4.1-3.8-6.8
	c-0.1-2.7,3-5.6,1.7-8c-1.4-2.6-5.4,1.7-7.8,3.4c-4.4,3.2-10.2,2.8-15.6,3.1c-2.8,0.1-3.4,4.3-4.9,6.7c-2,3-5.8,4.7-9.4,4.1
	c-4.4-0.8-7.6-4.6-10.3-8.2c-2.9-4-5.8-8.4-6.7-13.3c-1.3-6.9,1.2-13.9,1.2-20.9c0-2.6-0.4-5.1-0.8-7.7c-0.2-1.7-0.5-3.3-0.7-5
	c-0.7-4.5-1.3-8.9-2-13.4c-0.1-0.7-0.3-1.4-1-1.6"/>
<path fill="none" stroke="#E1E1E1" stroke-miterlimit="10" d="M32.7-20.2c-0.5,2.9,1.6,5.5,3.1,8.1c2.8,4.8,3.5,10.9,1.8,16.2
	c-0.3,1-0.7,2-0.9,3.1c-0.2,1.2,0.1,2.4,0.3,3.6c0.7,3.6,1.7,7.1,2.9,10.5c0.6,1.7,1.3,3.6,0.8,5.4c-0.2,0.7-0.6,1.3-0.5,2
	c0,0.7,0.5,1.3,1,1.9c1,1.2,1.9,2.4,2.9,3.6c1.6,2,3.6,4.2,6.2,4.1c2.2-0.1,4-1.8,5.5-3.4c1.5-1.6,2.2-4.4,4.4-4.7
	c1.9-0.2,3.5,1.6,5.3,1.6c2.5-0.1,4.8-1.3,6.9-2.6c5.8-3.7,10.6-8.8,15.4-13.8c1.9-2,3.8-4.1,5.7-6.1c0.8-0.9,1.6-1.8,2.2-2.8
	C96.1,5.6,96.4,4.7,97,4c2-2.4,6.7-1.1,8.2-3.8c0.3-0.5,0.4-1.1,0.7-1.5c0.8-1,2.6-1.9,3.5-1c1.1,1.1,0.3,3.1,0.5,4.7
	c0.1,0.6,0.1,1.3,0,1.9c-0.1,0.7-0.5,1.3-0.9,2c-2.2,3.6-4.5,7.3-7.1,10.7c-3.2,4.1-6.8,7.8-10.4,11.6c-0.7,0.7-1.3,1.4-1.5,2.4
	c-0.4,2.3,2.4,3.9,4.7,3.7c2.3-0.2,4.5-1.3,6.8-1.2c2.5,0.1,5.1,1.7,7.2,0.5c1.6-0.9,2.1-3,2-4.8c-0.1-1.8-0.6-3.6-0.5-5.4
	c0.1-1.6,0.7-3.1,0.6-4.7c0-0.7-0.2-1.4-0.1-2.2c0.1-0.6,0.3-1.2,0.6-1.8c0.6-1.5,1.2-2.9,1.9-4.4c0.2-0.5,0.4-1,0.9-1.3
	c0.5-0.3,1.1-0.2,1.6-0.2c3-0.2,4.4-3.7,5.4-6.5c1-2.6,2.2-5.1,3.7-7.4c3.5-5.5,8.5-10.5,9.2-17"/>
<path fill="none" stroke="#E1E1E1" stroke-miterlimit="10" d="M42.6-19.1c0.6,3.6,1.2,7.2,1.9,10.8c0.8,4.6,1.6,9.2,3.2,13.6
	c0.7,1.9,1.6,3.7,2.8,5.3c0.4,0.6,0.9,1.1,1.6,1.3c1.9,0.8,4.2-0.9,5.9,0.1c0.5,0.3,1,0.8,1.6,0.8c0.6,0,1.1-0.7,1.6-1
	c1.3-0.8,3,0.4,4.5,0.1c0.4-0.1,0.9-0.3,1.3-0.2c0.7,0.1,1.3,0.7,1.9,1.2c1.4,1.1,3.4,1,5.1,0.3c1.6-0.7,2.9-2,4.2-3.2
	c4.7-4.5,9.3-8.9,14-13.4c1.8-1.8,3.8-3.7,4.3-6.2c0.1-0.6,0.2-1.4,0.8-1.7c0.3-0.1,0.6-0.1,0.9-0.1c1.3-0.1,1.2-1.7,1.9-2.8
	c2-3.1,6.4-3.8,7.3-7.3"/>
<path fill="none" stroke="#E1E1E1" stroke-miterlimit="10" d="M51.1-21.9c2.3,3.9,4.5,7.8,6.8,11.8c0.8,1.3,1.6,2.7,2.7,3.7
	c1.1,1,2.7,1.7,4.2,1.5c1.4-0.3,2.6-1.3,3.8-1.9c2.2-1.1,4.7-1,7-1.8c2.2-0.8,4.1-2.3,6-3.8c1.9-1.5,3.8-3.1,5.6-4.6
	c1.3-1.1,2.7-2.3,2.7-4"/>
<path fill="none" stroke="#E1E1E1" stroke-miterlimit="10" d="M-14.7,292.3c6.7,0,13.4-0.3,20.2-0.7c2.2-0.2,4.6-0.4,6.5-1.7
	c0.8-0.5,1.5-1.3,2.4-1.5c1.1-0.3,2.2,0.1,3.3,0.1c2.9,0.1,5.5-2.6,5.4-5.5c-0.1-1.4-0.7-2.8-1.1-4.2c-0.3-1.4-0.7-4,0.8-4.1
	c2.4-0.1,3.9,2.9,6.1,3.5c2,0.6,4.1,0.5,6.1,0.5c9.2,0.4,17.9,4.3,26.2,8.2c0.5,0.3,1.2,0.5,1.7,0.3c1.1-0.4,0.9-2.1,0.1-3
	c-1.1-1.3-2.7-1.9-4.2-2.8c-1.5-0.9-4.3-2.9-3-3.9c2.6-1.9,6.6,5.4,9,3.3c1-0.9-0.3-2.8,0.1-4.1c0.7-2.6,4.1-5.8,2.1-7.5
	c-1-0.9-2.6-0.6-3.9-1.2c-1.1-0.5-2.2-1-3.3-1.4c-2.2-1-3.6-2.9-5.4-4.5c-1.6-1.4-3.9-1.6-5.7-2.8c-0.6-0.4-1.3-0.9-1.6-1.5
	c-0.7-1.2-0.1-2.8-0.7-4c-0.5-1-1.6-1.6-2.3-2.5c-0.4-0.4-0.6-1-1-1.4c-0.3-0.4-0.8-0.7-1.2-0.9c-2.2-1.5-4.5-2.9-6.7-4.4
	c-0.2-0.1-0.4-0.3-0.6-0.4c-2-1.3-3.9-2.6-5.9-3.9c-0.3-0.2-0.6-0.4-0.9-0.5c-0.4-0.1-0.9,0-1.3,0.1c-1.9,0.3-3.9,0.3-5.8,0
	c-0.6-0.1-1.1-0.2-1.6-0.6c-0.4-0.3-0.6-0.8-0.9-1.2c-0.9-1.1-2.4-1.4-3.7-1.5C10.9,236,7.5,236,4,236.3c-1.6,0.1-3.1,0.3-4.7,0.1
	c-3.5-0.5-6.5-3.1-8.6-6c-0.5-0.6-0.9-1.3-1.5-1.8c-2-1.9-5.1-1.9-7.8-1.8"/>
<path fill="none" stroke="#E1E1E1" stroke-miterlimit="10" d="M-16.9,237.4c5.1,2.1,10,4.8,14.6,7.9c1,0.7,2,1.4,3,1.8
	c1.1,0.5,2.3,0.8,3.5,1.2c2.5,0.8,4.9,1.9,7.1,3.3c1,0.7,2.1,1.4,3.2,1.9c2.9,1.2,6.4,0.6,8.9,2.4c2.2,1.6,4.9,5,3.4,7.2
	c-1.1,1.7-3.9-1-5.8-0.8c-1.3,0.2-2.5,1.1-3.6,1.7c-1.8,1-3.9,1.5-5.8,2.4c-1.9,0.9-3.6,2.6-3.6,4.7c0,0.8,0.2,1.6,0.2,2.5
	c0,1-0.4,2-0.8,3c-0.4,1-0.9,2.1-1.8,2.8c-1,0.7-2.2,0.8-3.4,0.8c-5.5,0.2-11,0.4-16.3-0.7c-2.7-0.5-5.4-1.4-8.2-1.1"/>
<path fill="none" stroke="#E1E1E1" stroke-miterlimit="10" d="M189.1,364.5c0.2-0.5,0.5-0.9,0.8-1.4c0.9-1.4,1.8-2.7,3-3.8
	c0.7-0.7,1.6-1.2,2.3-2c0.6-0.6,1.1-1.4,1.7-2c0.9-0.8,2-1.4,3.2-1.6c0.4,0,0.8,0,1,0.3c0.2,0.2,0.1,0.5,0.2,0.8
	c0.2,1,1.5,1.6,1.4,2.7c0,0.2-0.1,0.4,0,0.7c0.1,0.3,0.6,0.4,0.9,0.6c0.7,0.4,0.9,1.3,1.1,2.1c0.5,1.9,1.4,3.7,2.6,5.2"/>
<path fill="none" stroke="#E1E1E1" stroke-miterlimit="10" d="M169.2,363.9c0.3-3,0.8-5.9,1.4-8.9c0.5-2.4,1.8-5.3,4.2-5.3
	c1.3,0,2.6,0.2,3.9,0.5c2,0.4,3,2.7,4.5,4.1c0.4,0.4,0.8,0.8,1.4,0.9c1.3,0.4,2.5-0.6,3.5-1.4c4.1-3.8,8.3-7.6,11.3-12.3
	c0.9-1.4,1.7-3,3-4c1.8-1.4,4.2-1.7,6.5-1.8c3.5-0.1,7.1,0.2,10.4,1.4c1.6,0.6,3.2,1.5,3.6,3.2c0.3,1.5-1.9,2.7-1.5,4.3
	c0.6,2.8,4.4,4,4.9,6.8c0.7,3.4-0.4,6.8-1.4,10.1c-0.6,1.8-1.4,3.9-3.1,4.6"/>
<path fill="none" stroke="#E1E1E1" stroke-miterlimit="10" d="M154.7,362.5c2.9-0.4,5-3.1,6.3-5.7c1.4-2.6,2.4-5.6,4.7-7.5
	c1.3-1.1,2.9-1.7,4.2-2.8c2.6-2,3.9-5.4,6.5-7.4c1.5-1.2,3.3-1.8,4.9-2.8s3.2-2.4,3.5-4.3c0.2-1-0.1-2.1,0-3.1s0.6-2.2,1.5-2.5
	c0.5-0.1,0.9-0.1,1.4,0.1c2,0.7,1.2,3.3,1.9,5.3c0.2,0.7,1.2-0.5,1.5-1.2c1.7-3.3,6.4-8.5,8.9-5.7c1,1.2,1.8,3.1,3.1,2.1
	c2.2-1.8,4.8-2.9,7.6-3c5.7-0.2,11.1,2.2,16.2,4.6c1.8,0.8,3.5,1.7,5,3s2.5,3.2,2.4,5.1c0,0.5-0.1,1-0.1,1.5c0.2,1.2,1.7,1,2.5,1.8
	c1.2,1.2,1.9,2.5,2.6,4c0.7,1.7-1.2,4.7,0.5,5.3c1.7,0.6,2.9,1.8,3.7,3.3c2.3,4.5,5.3,8.6,8.9,12.2"/>
<path fill="none" stroke="#E1E1E1" stroke-miterlimit="10" d="M318.4,364.3c1-3.1,3.6-7.1,1.6-9.7c-1.3-1.7-4.9-0.1-6.3-1.7
	c-1.7-1.9-2.6-4.2-4.7-5.6c-3.1-2.1-6.5-4.2-10.2-3.9c-0.8,0.1-1.5,0.2-2.3,0.2c-2.4-0.2-3.9-2.8-4.5-5.2s-0.8-5-2.3-6.8
	c-1-1.3-2.6-2.1-3.4-3.5c-0.7-1.2-0.6-2.6-1.1-3.9c-0.3-0.7-0.7-1.4-1.2-2c-1.8-2.6-3.6-5.2-5.3-7.8c-4.3-6.3-8.8-13-9.1-20.5
	c-0.1-2.7,0.4-5.5,1.9-7.8c2.5-3.8,7.9-6.1,7.9-10.7c0-3.9-4-6.3-6-9.6c-2.1-3.4-5-5.7-7.1-9.2c-2.3-3.9,7.3-8.7,5-12.6
	c-2-3.3-7.9,0.3-11.3,2.1c-1.6,0.8-3.2,1.9-5,1.7c-1.3-0.1-2.4-0.8-3.6-1.3c-1.2-0.5-2.6-0.8-3.9-1c-4.6-0.9-9.2-1.8-13.8-2.6
	c-5.9-1.1-11.9-2.3-17.9-2.9c-6.2-0.7-12.6-0.8-18.8-0.4c-1.4,0.1-2.7,0.2-4,0.6c-1.6,0.5-3,1.5-4.5,2.2c-5.4,2.5-12.3,2.6-17.5-0.2
	c-1.6-0.9-4.1-0.4-5.5,0.7c-1.5,1.1-3.3,2.4-4.9,1.7c-0.7-0.3-1.4-1-2.2-0.8c-1.2,0.3-0.9,2.1-1.4,3.2c-0.9,2.1-4,1.6-6.2,2
	c-1.9,0.3-3.5,1.6-5.1,2.7c-1.6,1.1-3.4,2.2-5.3,2.1c-1.9-0.1-2.2-2.3-3.5-3.7c-2-2.1-5.6,2-7.2,4.4c-0.7,0.9-1.2,2-1.9,2.8
	c-0.9,1-2.1,1.7-3.2,2.4c-5.3,3.1-10.5,6.2-15.8,9.3c-0.5,0.3-1.1,0.6-1.7,0.7c-1.5,0.3-3-0.8-3.8-2.1c-2.4-3.7-1.3-8.7,0.9-12.6
	c2.2-3.8,5.3-7.1,7.1-11.2c0.7-1.6,1.3-3.5,2.7-4.6c1.5-1,2.3,1.2,4.1,1.4c2.6,0.2,0.9-5.2,1.4-7.8c0.2-1.1,0.4-2.4-0.3-3.4
	c-1.2-1.8-4.5-1.4-5.5-3.3c-1-2,1.2-4,3.1-5.1c2.1-1.2,4.2-2.4,6.3-3.6c2-1.1,4-2.3,5.5-4c1.3-1.6,2.1-3.5,3.3-5.2
	c1.2-1.7,3.5-1.8,5.1-3.1c6.2-5.1,4.4-15.6,9.2-22c0.9-1.2,1.9-2.6,1.6-4.1c-0.2-0.6-0.6-1.2-0.6-1.9c0.1-1.3,2-1.6,3.3-1.3
	c1.3,0.3,3.5,1.2,3.9-0.1c0.4-1.5,1.9-2.4,3.4-2.1c4,0.6,6.8,3.6,8.2,7.5c0.7,1.9,1.6,3.9,2,5.9c0.6,2.6,0.5,6.8,3.1,7.3
	c1.2,0.2,2.6-1,3-2.1c0.5-1.2-0.5-3.6,0.9-3.8c2.8-0.4,5.6,1.5,8.2,0.2s4.6-3.5,6.5-5.6c1.9-2.2,3.9-4.7,3.7-7.5
	c-0.2-3.3-0.7-6.3-1.7-9.4c-0.3-1.1-2.4-0.7-3-1.7c-1.3-2.3,2.2-6.4,0.1-8c-6.6-5.2-15,9-23.4,9.4c-2.8,0.1-4.2-3.5-6.5-5.1
	c-3.4-2.3-4.9-6.5-5-10.6c-0.2-12,3.4-24.1,10.2-34.1c2.5-3.6,5.5-7.1,9.3-9.2c3.9-2.1,8.4,0,12.7-0.9c3.6-0.7,5.9-7.6,9.2-5.9
	c1.2,0.6,0.9,2.5,1.4,3.8c1.5,4.2,3.1,8.5,6,11.8c1.1,1.2,2.6,2.4,4.2,2.1c0.7-0.2,1.3-0.6,1.9-1c4.9-3.1,11.2-3.5,17-2.3
	c5.7,1.2,10.7,8.4,16.2,6.5c7.7-2.6,7.3-14.7,13.4-19.9c5.2-4.4,11.8-6.9,17.1-11c3.3-2.6,6.1-5.7,8.8-8.8
	c3.6-4.1,7.3-8.2,10.9-12.4c3.5-3.9,6.9-7.8,10.2-11.9c1.4-1.8,3.7-3.8,5.6-2.6c0.7,0.4,1.1,1.1,1.7,1.6c1.5,1.2,3.8,0.5,5.5-0.4
	c3.8-1.9,7.1-4.6,9.9-7.8c3.8-4.4,7.5-10.5,13.4-10.3c2.6,0.1,4.9,1.5,7.1,2.9c1.1,0.7,2.2,1.4,2.9,2.4c1.3,1.9,1.2,4.9,3.2,6
	c1.5,0.8,3.3,0.1,5,0.1c1.7,0,1.6,1.9,2.8,3c4,3.7,8.6-6.8,12.4-10.7"/>
<path fill="none" stroke="#E1E1E1" stroke-miterlimit="10" d="M370.3,67.8c-3.1-2.8-6.6-5.6-10.7-6.1c-3.4-0.4-9.2,1.8-9.9-1.5
	c-0.2-1.1,1.9-2,1.4-3c-2-4.5-7.8-6.4-12.6-7.2c-3.8-0.6-7.5,1.4-10.4,3.8c-8.6,7-15.3,28.6-24.3,22.2c-1.5-1.1,2.1-4.6,0.5-5.7
	c-5.4-3.6-10.8,7.3-14.9,12.4c-1.7,2.2-3.2,4.5-5.1,6.5c-3.6,3.8-8.3,6.4-12.6,9.5c-6.2,4.6-11.5,10.6-15.3,17.3
	c-1.3,2.3-2.5,4.7-4.5,6.3c-2.5,2-4.2,4.5-7,6.1c-5.5,3.1-11.8-4.6-17.6-6.9c-3.2-1.2-6.9-2.5-9.9-0.9c-1.1,0.6-2,1.4-3.2,1.6
	c-1.2,0.2-2.5-0.3-3.7-0.4c-4.5-0.1-8.7,8.7-11.9,5.5c-2.3-2.2-2.8-5.8-5.6-7.3c-0.7-0.4-1.4-0.7-1.9-1.2c-1.3-1.6,0.1-4.1-0.4-6.2
	c-0.5-2.1-3-1.9-5.1-1.8c-3.5,0.2-8.8-3.1-10.4,0.1c-0.6,1.3-0.3,2.7-0.5,4.1c-0.4,5.2-5.8,8.3-9.5,11.9c-2.1,2.1-1.6,4.7-0.9,7.6
	c0.7,3-3.7,5-4.6,7.9c-0.9,2.9-0.7,6.4,1.2,8.7c2.1,2.5,5.9,3.2,9.1,2.5c3.2-0.7,6.1-2.5,8.9-4.3c4.3-2.8,8.6-5.5,12.9-8.3
	c1.3-0.8,2.8-1.7,4.3-1.5c2.1,0.3,3.4,2.5,3.7,4.5s0.1,4.2,0.6,6.2c0.8,3.3,4.4,8.7,7,6.5c1.5-1.2-1.4-5.1,0.4-5.7
	c3.7-1.1,4.6,6.2,6.9,9.3c0.8,1.1,1.7,2.2,2.8,3c0.9,0.6,2,1,2.9,1.7c2.3,1.7,2.9,4.9,2.9,7.8c-0.1,8.3-4.5,16.5-11.3,21.3
	c-1.4,1-2.9,1.8-4.3,2.8c-4.6,3.2-8.1,7.8-10.4,12.9c-1.4,3.1-2.8,8.3,0.4,9.6c5,2.1,7.8,9,13.3,8.7c1.8-0.1,3.4-1.2,5.2-0.9
	c2.2,0.4,3.4,2.7,5.3,3.9c2.6,1.7,6,1.1,9.1,0.4c10-2.2,20-4.4,30-6.6c2.1-0.5,3.6-2.7,5.7-2.7c5.5,0.1,7.8,9.2,13.2,8.4
	c2.4-0.4,4.5-1.8,6.5-3.3c1.7-1.2,3.5-2.5,4.5-4.4c2.5-4.7-0.7-10.3-1.1-15.6c-0.6-7,3.7-13.3,8.2-18.6c5.7-6.7,14.5-19.4,21.5-14.1
	c1.3,1,0.9,3.6,2.5,3.9c1.8,0.4,3.1-1.7,4-3.4s3.8-4.2,4.3-2.4c0.6,1.8-2.6,3.6-1.9,5.4c2.6,6.7,16.9-4.6,20.8,1.5
	c2.5,3.9-8.3,11-4,12.7c5,2,10.9-11.3,12.6-9.9c2.8,2.3-3.7,6.3-2.4,9.7s3.8,6.1,5.5,9.4c0.3,0.7,0.7,1.4,0.6,2.1
	c-0.1,0.9-0.6,1.6-1.1,2.3c-2.6,4.1-3.6,9.3-2.3,14c0.5,1.6,3,0.5,3.7-0.9c0.8-1.4,1.7-3.7,3.3-3.2c3,0.8,5.6,2.5,8.4,3.8
	c0.4,0.2,0.9,0.5,0.9,1"/>
<path fill="none" stroke="#E1E1E1" stroke-miterlimit="10" d="M188.5,127c-0.6-1-2.3-1-3.5-0.9c-1.2,0.1-2.3,0.8-3.2,1.7
	c-0.9,0.9-1.6,1.9-2.4,2.8c-1.2,1.3-2.6,2.3-3.9,3.5c-1.3,1.2-2.4,2.6-2.8,4.3c-0.2,1,0.1,2.2,1,2.5c0.8,0.2,1.6-0.5,1.9-1.3
	c0.4-0.8,0.5-1.6,1.1-2.3c0.4-0.5,1-0.8,1.6-1.1c2.7-1.3,5.8-2,7.9-4.1C187.6,130.8,189.5,128.7,188.5,127z"/>
<path fill="none" stroke="#E1E1E1" stroke-miterlimit="10" d="M370.7,228.2c-1.2-3.2-6.5,5.8-8,6.3c-2.1,0.7-3-1.1-4.3,1.1
	c-0.8,1.3-0.5,3.3-2,4.2c-1.6,1-4.1,0.2-5.9,1.3c-2.1,1.2-2.7,2.9-3.7,4.9c-1.2,2.6-2.5,2.1-5.1,2.5c-2.4,0.4-4.2,4.5-6.3,3.3
	c-4-2.2,3.9-6-5.7-9.8c-2.7-1.1-4.7-3-7.7-5c-12-8-41.7-4.5-38,6c5.2,14.8,5.2,37.8,2,41c-6.4,6.4-12,14-5,22c0.9,1.1,2,0,3,1
	c4,4,9,5.5,12,10c0.6,0.8-1,1-1,2c0,2,0.1,3.9,1,6c2.4,5.8,8.4,5.6,14,4c1-0.3,2,1.5,3.3,0.9c0.8-0.4,0.3-1.7,0.7-1.9
	c4.6-1.9,8.7,6.4,13.2,3.7c1.6-0.9,1.6-4.3,2.8-2.9c2.5,2.9,7.2-1,8.8,0.2c1.3,0.9,2.3,3.6,3.4,4.7c1.5,1.4,6.8,0.3,6.2,2.2
	c-0.1,0.2-0.3-0.4-0.1-0.3c0.6,0.6,0.4,1.6,0,2.3c-0.4,0.7-1.1,1.3-1.4,2c-0.5,1-0.5,2.1-0.5,3.2c0,0.8,0,1.7,0.4,2.4
	c0.5,1,1.6,1.5,2.4,2.2c2.3,2,2.8,5.4,2.4,8.4c-0.2,1.2-0.5,2.5,0,3.6c0.6,1.4,2.5,2.5,2.1,4"/>
<path fill="none" stroke="#E1E1E1" stroke-miterlimit="10" d="M368.3,334.9c0.1-0.3-0.2-0.5-0.5-0.5c-0.3,0-0.5,0.2-0.7,0.4
	c-1.8,2-2.9,4.7-3,7.4c0,0.5,0,1.1-0.1,1.6c-0.1,0.4-0.4,0.8-0.6,1.2c-0.9,1.7-1,3.7-0.3,5.4s2.2,3.1,3.9,3.8
	c1.1,0.4,2.4,0.5,3.3,1.3"/>
<path fill="none" stroke="#E1E1E1" stroke-miterlimit="10" d="M369.1,266c-3.7,1.8-7.9,4.2-8.7,8.3c-0.3,1.7,0,3.4-0.2,5.1
	c-0.4,2.2-1.8,4.1-3.8,5.1c-1.1,0.6-2.4,0.8-3.5,1.3c-1.4,0.6-2.7,1.6-3.9,2.5c-2.5,1.9-4.9,3.8-7.4,5.7c-0.4,0.3-0.8,0.7-1.1,1.1
	c-0.2,0.5-0.2,1.1-0.3,1.6c-0.4,3-3.7,4.6-5.4,7.2c-1,1.5-1.9,3.6-1.1,5.3c1.1,2.3,3.6,3.7,5.8,5.2c1.7,1.1,3.5,2,5.4,2.7
	c0.6,0.2,1.2,0.4,1.9,0.4c0.6,0,1.2-0.2,1.8-0.3c2.2-0.7,4.1-2,5.7-3.7c0.3-0.3,0.5-0.6,0.9-0.8c0.8-0.3,1.7,0.1,2.1,0.8
	s0.1,1.7,0.6,2.4c0.7,0.9,2.4-0.2,3.1-1.2c0.7-0.9,1-2.1,1.3-3.3c0.5-2.1,1-4.2,1.6-6.3c0.2-0.9,0.5-1.8,1.2-2.3
	c1.1-0.8,2.9-0.3,3.7-1.4"/>
<path fill="none" stroke="#E1E1E1" stroke-miterlimit="10" d="M316.1,280.5c0.7-2.6-1.4-5.5-0.3-8c0.5-1,1.4-1.6,2-2.4
	c0.7-0.8,1.4-2.4,0.5-2.9c-1.3-0.8-4-0.8-3.9-2.3c0.1-1.3,1.9-1.9,2.4-3.1s0.7-2.7-0.1-3.8c-1.3-1.9-4.6-2-5.3-4.2
	c-0.2-0.6-0.2-1.3-0.4-1.9c-0.4-1.2-1.7-2-2-3.2c-0.2-0.7,0-1.5-0.3-2.1c-0.2-0.7-0.9-0.7-1.6-0.8c-0.5-0.1-0.3-1.2-0.7-1.4
	c-2.8-1.2-6,1.7-8.1,3.8c-2.1,2.2-0.2,5.1-0.3,8.1c-0.1,3.7-4.9,5.6-5.8,9.2s-0.4,7.8-0.3,11c0.3,5.1,13.3-5.3,15.4-0.6
	c2.1,4.8-5.4,9.2-4.6,14.4c0.1,0.6,0.2,1.2,0.6,1.6c1.1,1.2,3.1,0.2,4.5-0.8c1.7-1.4,4.5-2.1,5.2-4.2
	C313.9,284.5,315.4,282.8,316.1,280.5z"/>
<path fill="none" stroke="#E1E1E1" stroke-miterlimit="10" d="M371,78.2c-2.9-0.4-6.3,0.6-8.6-1.1c-4.1-3.1-6.2-9.7-11.3-8.6
	c-2,0.4-4,1.9-6,1.3c-4.7-1.3-2.3-10.7-10.2-9.8c-2,0.2-3.9,1.1-5.5,2.3c-1.6,1.2-3.5,2.3-4.5,4c-0.7,1.3-0.9,2.9-1.6,4.3
	c-1.1,2-3.2,3.3-5.1,4.5c-4.6,3.1-8.7,7.1-11.8,11.7c-1,1.5-2,3.2-3.5,4.4c-3.7,2.9-9.8,2.1-12.6,5.9c-0.8,1.1-1.2,2.5-2.1,3.6
	c-1.8,2.1-5,2.3-7.4,3.7c-3.7,2.2-5.5,6.6-6.5,10.7c-2.8,11.4-15.5,18.2-19.6,18.9c-0.8,0.1,3.7,0.8,3.8,1.7c0.1,1-2.9,2.1-2.6,2.8
	c0.7,1.7,0.7,3.5-0.8,4.6c-8.1,5.9-12.3-4.7-18-8.9c-1-0.7-2-1.5-3-2.2c-4.1-3-8.5-6.1-13.6-6.2c-6.1,0-15.3,2.5-15.7,8.6
	c-0.6,8.6,10.8,13.4,16.1,20.1c0.9,1.2,1.9,2.4,3,3.4c1.1,1.1,2.4,2,3.5,3.1c7.6,7,9.2,19.6,3.5,28.2c-2.3,3.4-5.5,6.1-8.1,9.4
	c-2.6,3.2-4.6,7.3-3.8,11.4c0.6,2.9,2.4,5.3,4.3,7.6c0.9,1.2,1.9,2.4,3.1,3.2c3.4,2.4,8.3,1.5,11.8-0.9c3.4-2.4,3.9-8.2,7.8-9.7
	c1.3-0.5,2.1,2.5,3.1-0.8c0.4-1.4-0.4-2.5-1.9-2.2c-3.8,0.6-3.3-4.9-1-6.6c1.4-1.1,3.3-0.2,5-0.5c1.8-0.3,1.4,3.1,0.4,4.6
	c-1,1.5-1.5,3.9,0.3,4.4c1.8,0.5,1.5-1.9,3.2-2.5c5.1-1.9,11.3-1.7,13.5-6.8c1.1-2.6,1.2-5.6,2.3-8.3c1.1-2.6,4.5-2.3,6.5-4.3
	c3-3.1-1.3-8.9,1.7-12c11.8-12.3,22.2-26.2,37.7-33.4c7.7-3.5,16.4-6.3,20.7-14c1.9-3.3,5-5.8,8.8-6.6c2.6-0.6,5.2-1.6,7.6-0.4
	c2.6,1.2,2,5.4,4.7,6.4c2.6,1,6.7-1.7,8.4,0.5c1.6,2.1-2.1,4.9-3.2,7.4c-0.4,1-0.8,1.9-1,2.9c-0.3,1.3-0.3,2.7-0.2,4.1
	c0.1,3.5,0.1,7,0.2,10.6c0,1.6,0.1,3.3,0.8,4.7c2,3.7,7.3,3.6,11.4,3"/>
<path fill="none" stroke="#E1E1E1" stroke-miterlimit="10" d="M367.7,88.1c-4.3,0.7-8.7-0.6-13-1.8c-0.4-0.1-0.8-0.2-1.1-0.5
	c-0.3-0.3-0.4-0.8-0.5-1.2c-0.9-3-4.5-4.1-7.6-4.2c-3.1-0.1-7.9,1.2-9-1.7c-1.2-3.1,2-8.2-1-9.6c-4.2-2.1-8.7,4.1-11.1,8.2
	c-0.7,1.2-1.2,2.4-1.8,3.6c-4.7,9.9-11.1,18.9-18.8,26.6c-1.9,1.9-4.2,3.9-6.9,4.1c-1.2,0.1-2.5-0.1-3.6,0.1c-1.7,0.3-3,1.6-4.2,2.8
	c-7.9,7.9-14.6,16.8-20,26.6c-0.3,0.6-0.7,1.2-0.8,1.9c-0.1,0.9,0.1,1.8,0.4,2.7c0.7,2.9-1.2,6.9,1.1,8.8c2.4,2,7.7,0.4,8.8-2.5
	c0.3-0.7-1.2-1.4-0.9-2.1c1.9-4.4,8.8-4,12.8-6.8c9.1-6.5,16-15.5,22.7-24.4c2.4-3.1,4.8-6.3,6.3-9.9c0.8-1.9,1.3-4,2.3-5.8
	c1.4-2.6,3.6-4.6,5.8-6.6c1.2-1.1,2.4-2.2,3.6-3.3c0.2-0.2,0.5-0.4,0.8-0.5c0.7-0.2,1.3,0.3,1.9,0.7c1.4,1,3.3,1.4,5,1
	c0.6-0.1,1.2-0.3,1.9-0.3c3,0.2,3.9,5.4,6.8,5.1c0.6,0,1.1-0.3,1.7-0.3c1.4,0.1,1.9,1.8,2.9,2.8c1.5,1.5,3.1-1,5.3-1.3
	c1.5-0.2,0.9,3.5,2.3,3.8c4.3,0.8,7.5-4.6,11.8-5.7"/>
<path fill="none" stroke="#E1E1E1" stroke-miterlimit="10" d="M332.7,99.9c1.1-1.2,2.6-3.4,1.3-4.3c-1.5-1-3.2,1.3-4.4,2.7
	c-0.4,0.5-0.8,0.9-1,1.5c-0.4,0.8-0.5,2.1,0.2,2.6C329.7,103,331.9,100.7,332.7,99.9z"/>
<path fill="none" stroke="#E1E1E1" stroke-miterlimit="10" d="M247.5,170.1c0.3,2.2-0.4,4.7,0.8,6.6c1.1,1.7,3.3,2.2,5.1,3
	c1.3,0.5,2.5,1.3,3.9,1.8c1.3,0.5,2.8,0.8,4.2,0.4c1.4-0.4,2.6-1.6,2.6-3c0-1.4-1.5-1.7-2.8-2.4c-0.8-0.4,0.1-2.1-0.6-2.6
	c-0.7-0.4-2.1-0.8-1.5-1.3c1.7-1.4,5.5-3.2,4-4.8c-0.7-0.7-2.2,0.6-3,0c-2.1-1.5-2.3-4.7-4.3-6.3c-1.2-1-2.6-1.8-3.9-2.6
	c-4.1-2.5-8.1-5.4-11.7-8.6c-0.6-0.5-1.1-1-1.5-1.6c-0.3-0.6-0.5-1.2-0.7-1.8c-0.9-2.3-2.7-4.3-4.9-5.4c-1-0.5-2.2-0.9-3.1-1.5
	c-1.5-1-2.5-2.5-3.7-3.7c-1.2-1.3-3-2.3-4.7-1.9c-0.7,0.2-1.3,0.6-1.6,1.2c-0.3,0.7-0.2,1.4-0.1,2.1c0.4,1.6,1.1,3.1,2.1,4.3
	c1.3,1.7,3.1,3.1,3.2,5.2c0,0.7-0.1,1.5,0,2.2c0.3,1.2,1.4,1.9,2.6,2.3c1.2,0.3,2.4,0.4,3.5,0.7c2.4,0.7,4.2,2.7,5.9,4.5
	c1.7,1.9,2,5.1,4.3,6.3c1,0.5,2.6-1.1,3.4-0.3C246.8,164.6,247.1,167.5,247.5,170.1z"/>
<path fill="none" stroke="#D6D6D6" stroke-miterlimit="10" d="M257.7-20.2c-1.6,5.9-4.8,11.3-9.3,15.5c-1.3,1.2-3,2.3-4.6,1.5
	c-0.8-0.4-1.3-1.3-2.1-1.8c-2.5-1.6-5.3,1.4-6.7,4.1s-4,5.8-6.6,4.4c-0.7-0.4-1.2-1-1.9-1.3c-1.3-0.5-2.7,0.3-3.8,1.1
	c-3.7,2.5-7.4,5-11.1,7.5c-4.2,2.9-8.3,6-11.7,9.9c-6.2,7-0.9,11.1-4.9,14.4c-2.9,2.5-10.7,0.9-18.2,6.4c-8.8,6.5-12.4,5.4-17.3,7.2
	c-4,1.5-7.3,5.3-9.8,6.5c-7,3.4-8.2,3.5-15.2,6.9c-1.2,0.6-2.5,1.2-3.8,0.8c-0.8-0.2-1.5-0.8-2.3-0.9c-0.9-0.1-1.7,0.5-2.4,1.1
	c-1.7,1.6-3,3.7-5.1,4.9c-2.3,1.3-5.2,1.1-7.7,2c-5.6,2-7.7,8.6-10.8,13.7c-0.4,0.7-1.1,1.6-1.9,2.6"/>
<path fill="#EAEAEA" stroke="#D6D6D6" stroke-miterlimit="10" d="M166.5,171.2c-0.2-0.5-0.8-0.8-1.3-0.8c-0.5,0-1.1,0.3-1.3,0.8
	c-0.2,0.4-0.2,0.9,0,1.3c0.4,0.8,2.5,0.4,2.6-0.5c0-0.1,0.1-0.2,0.1-0.3C166.6,171.5,166.6,171.3,166.5,171.2z"/>
<path fill="none" stroke="#4E9BD7" stroke-miterlimit="10" d="M167.8,169.2c-2.1-1-4.6,0.1-6.7-0.6c-0.9-0.3-1.9-0.8-2.8-0.4
	c-0.3,0.1-0.6,0.3-0.8,0.5c-1.1,0.6-2.6-0.1-3.2-1.2c-0.2-0.4-0.4-0.8-0.8-0.9c-0.4-0.2-0.8,0-1.2-0.1c-0.8-0.1-1.3-0.9-1.9-1.4
	c-0.8-0.7-1.9-1.1-3-1.4c-2-0.6-4-1.2-6.1-1.3c-1.6-0.1-3.4-0.1-4.4-1.4c-0.2-0.3-0.4-0.6-0.6-0.9c-0.3-0.3-0.6-0.6-0.9-0.9
	c-0.3-0.3-0.6-0.7-1-0.9c-1-0.4-2.1,1.1-3.2,1.1c-1.1,0.1-2.1-0.7-3.2-0.8c-1.3-0.2-2.6,0.2-3.6-0.7c-0.8-0.7-0.8-2.3-1.9-2.3
	c-3.5,0-7.3,1.3-10.6,0.3c-1-0.3-1.7-0.6-2-0.4c-1.5,0.7-3,1.9-4,0.6c-0.4-0.5-1.5-0.8-2.2-0.9c-0.6-0.1-1.3-0.1-1.9-0.5
	c-1.1-0.8-0.9-2.5-0.3-3.6c0.6-1,1.6-1.7,2.4-2.6c1.4-1.5,2.8-2.9,4.1-4.4c0.4-0.5,0.9-0.9,1.3-1.4c1.8-1.9,3.5-3.7,5.3-5.6
	c1.3-1.4,2.7-3.2,1.9-4.9c-0.2-0.5-0.6-0.9-0.9-1.4c-0.3-0.6-0.5-1.3-0.7-2c-0.6-1.5-1.8-2.8-3.4-3.3c-0.9-0.3-2.1-0.6-2.1-1.6
	c0-0.4,0.2-0.7,0.3-1.1c0.1-0.5-0.2-0.9-0.1-1.4c0.1-0.3,0.3-0.6,0.5-0.9c1-1.5,1.8-4.4,0.1-5.1c-1.1-0.5-2.4-0.6-3-1.6
	c-0.6-1-0.8-2.3-1-3.5c-0.3-2.3-0.7-4.7-0.2-7c0.5-2.2,1.6-4.2,2.3-6.4c0.2-0.8,0.4-1.5,0.5-2.3c0.4-2.2,0.3-4.8-1.3-6.4
	c-1.2-1.1-2.8-1.4-4.4-1.6c-0.9-0.1-1.9-0.8-2.7-0.4c-2.9,1.1-4.2,4.3-7.1,3.8c-2.8-0.4-4-3.4-5.3-5.9c-1.2-2.4-6,0.9-8.6,2.4
	c-6,3.6-12.7,6.1-19.2,8.7c-0.6,0.2-1.2,0.5-1.9,0.4c-0.7-0.1-1.3-0.7-1.9-0.6c-0.6,0.1-1,0.6-1.4,1.1c-3.8,4.5-10.4,5.5-15,9.1
	c-1.8,1.5-3.3,3.4-5.3,4.7c-2.4,1.7-5.3,2.5-8.1,3.3c-15.8,4.5-31.4,9.9-45.7,17.8"/>
<path fill="none" stroke="#D6D6D6" stroke-miterlimit="10" d="M169.7,209.3c-0.9-2.8-0.5-6.2,1-8.8c0.8-1.3,1.9-2.6,2-4.2
	c0-0.6-0.1-1.2-0.2-1.8c-0.6-2.7-0.9-5.8-1.6-8.5"/>
<path fill="#EAEAEA" stroke="#D6D6D6" stroke-miterlimit="10" d="M162.6,222.5c0.7,1.3-1.4,2.6-2.4,3.8c-0.2,0.2-0.4,0.4-0.6,0.6
	c-1.1,0.8-2.6,0.2-3.9,0.3c-1.7,0.1-3.2,1.4-4.1,2.9c-0.9,1.5-1.4,3.2-2,4.8c-0.3,0.7-0.8,1.5-1.6,1.7c-0.2,0-0.4,0-0.5-0.1
	c-0.1-0.1-0.1-0.2-0.1-0.3c-0.4-2.7-0.4-5.4,0-8.1c0.1-0.6,0.2-1.2,0.4-1.7c0.5-1.3,1.4-2.4,2.3-3.3c0.8-0.8,1.6-1.5,2.6-2
	c1-0.4,2.2-0.6,3.2-0.1c0.4,0.2,0.8,0.6,1.3,0.8c0.5,0.3,1.1,0.3,1.7,0.4C160.1,222.2,161.9,221.4,162.6,222.5z"/>
<path fill="#EAEAEA" stroke="#D6D6D6" stroke-miterlimit="10" d="M162.7,212.8c-0.1,0.2-0.2,0.5-0.2,0.8c0,0.3,0.2,0.5,0.5,0.6
	c0.4,0.1,0.8-0.3,1.2-0.5c0.5-0.3,1-0.2,1.6-0.2c1.3-0.1,2.5-0.7,3.7-1.3c0.4-0.2,0.9-0.5,1.1-0.9c0.3-0.4,0.3-1-0.1-1.3
	c-0.1-0.1-0.3-0.2-0.5-0.3c-0.2-0.1-0.4-0.3-0.6-0.5c-0.4-0.3-0.9-0.4-1.4-0.4c-1.8,0.1-3.3,1.5-4.5,2.8
	C163.3,212,162.9,212.4,162.7,212.8z"/>
<path fill="none" stroke="#D6D6D6" stroke-miterlimit="10" d="M148.8,236.1c1.8,2.5,4.2,4.6,6.9,6c1,0.5,2.1,1,2.8,2
	c0.3,0.4,0.4,0.9,0.6,1.3c0.3,0.8,0.8,1.4,1.2,2.1c0.7,1,1.3,2,2,3.1c0.9,1.4,1.9,2.9,3.4,3.7c2,1.1,4.8,0.9,6.3,2.6
	c0.5,0.5,0.7,1.2,1,1.8c1.1,2.5,2.4,4.8,3.9,7"/>
<path fill="#EAEAEA" stroke="#D6D6D6" stroke-miterlimit="10" d="M245.3,292.6c1.9-1.4,2.5-3.4,4.4-4.7c0.5-0.3,0.9-0.6,1.3-1.1
	c0.4-0.5,0.6-1.1,0.9-1.7c0.6-1.1,1.5-2,2.7-2.5c1.2-0.5,2.8-0.7,3.4-1.8c0.4-0.7,0.3-1.7,0.2-2.5c-0.1-0.9-0.2-1.7-0.3-2.6
	c-0.1-0.5-0.1-1-0.3-1.5c-0.5-1-1.5-1.6-2.3-2.3c-0.6-0.6-1.2-1.3-1.6-2c-0.7-1.3-1.1-2.9-2.3-3.6c-1-0.5-2.2-0.3-3.3,0.1
	c-1,0.5-2,1.2-3,1.6c-2.4,1-5.4,0.6-7.4-1.1c-0.3-0.2-0.6-0.5-0.9-0.6c-0.3-0.1-0.7-0.1-1-0.1c-1.2,0-2.4,0-3.6,0
	c-0.9,0-1.8,0-2.6,0.3c-0.4,0.2-0.8,0.4-1.3,0.5c-0.4,0.1-0.9,0-1.4,0c-3.3-0.4-6.9-1.1-8.8-3.7c-0.2-0.2-0.3-0.5-0.6-0.6
	c-0.2-0.1-0.4,0-0.6,0c-0.9,0.3-1.7,0.9-2.5,1.3c-2.8,1.6-6.7,1.4-8.8-1c-1-1.2-2.8-1.8-4.3-1.6c-0.7,0.1-1.2,0.5-1.9,0.7
	c-2.7,0.9-5.6-1-8.3-0.1c-2.4,0.7-3.9,3.5-6.4,4c-2.5,0.6-5.3-1.3-7.6-0.1c-0.7,0.4-1.3,1-1.8,1.6c-1.7,2-4.8,4.5-5,6.1
	c-0.1,1,1.9,0.3,2.9,0.1c0.4-0.1,0.9-0.3,1.3-0.1c0.3,0.1,0.5,0.4,0.7,0.7c1.3,2.1,2.7,4.4,2.6,6.9c0,1-0.3,2,0.2,2.8
	c0.4,0.6,1.1,1,1.7,1.4c1.7,1.3,2.4,3.7,4,5.2c0.8,0.7,1.8,1.1,2.5,1.9c0.6,0.6,0.9,1.4,1.3,2.1c1.4,2.7,3.2,5.1,5.4,7.3
	c0.4,0.4,0.9,0.8,1.4,1.1c0.6,0.3,1.3,0.4,2,0.5c2.1,0.3,4.1,0.5,6.2,0.8c1.1,0.1,2.3,0.3,3.4,0.1c1.6-0.3,3-1.4,4.5-2
	c0.8-0.4,1.8-0.7,2.4-1.4c0.9-1.1-0.7-1.6-0.8-3.1c-0.1-2.3,7.8-5.1,12.2-6.5c0.3-0.1,0.5-0.2,0.7-0.4c0.2-0.2,0.2-0.5,0.1-0.8
	c-1.2-2.8,3.3-5.9,6.1-4.5c0.5,0.2-0.2,1.7,0.3,1.8c3.2,0.3,3.3,1.8,3.9,4.1c0.4,1.7,3.3-0.4,5.1,1c0.5,0.5,1,1,1.7,1.2
	c0.6,0.3,1.3,0,1.8-0.4C244.4,293,245.2,292.7,245.3,292.6z"/>
<path fill="#EAEAEA" stroke="#D6D6D6" stroke-miterlimit="10" d="M321.5,302.1c-0.4,0.1-0.8,0.1-1.2-0.2c-0.4-0.3-0.5-0.8-0.4-1.2
	c0.1-0.9,0.4-1.8,1.1-2.4c1.4-1.3,3.7-1.5,4.9-3c0.5-0.6,0.8-1.4,1.5-1.6c0.6-0.2,1.2,0.1,1.6,0.6s0.5,1.1,0.5,1.7
	c0,1.5-0.8,3-2.1,4c-0.3,0.2-0.7,0.4-1.1,0.6C324.7,301.4,323.1,301.9,321.5,302.1z"/>
<path fill="none" stroke="#D6D6D6" stroke-miterlimit="10" d="M253.4,268.4c1.4-0.8,2.4-2.3,3.5-3.4c1.2-1.2,2.4-2.5,3-4.1
	c0.4-1.3,0.4-2.7,0.7-4c0.4-1.5,1.2-2.9,2.1-4.2c1.6-2.3,3.4-4.5,5.4-6.6c0.4-0.4,0.7-0.7,1-1.2c0.2-0.4,0.4-0.8,0.7-1.2
	c0.4-0.6,1.1-1.1,1.7-1.6c3.6-2.6,7.3-5.3,10.9-7.9c1.2-0.9,2.4-1.8,3.7-2.5c0.8-0.4,1.5-0.7,2.2-1.2c1.1-0.7,1.9-1.7,2.7-2.7"/>
<path fill="none" stroke="#D6D6D6" stroke-miterlimit="10" d="M336.7,226.5c1-0.3,2-0.6,3-0.9c0.3-0.1,0.7-0.2,1.1-0.1
	c0.4,0.1,0.6,0.5,0.8,0.8c0.8,1.5,1,3.4,0.5,5c-0.4,1.4-1.3,2.9-0.7,4.2c0.2,0.4,0.6,0.8,0.9,1.2c1.2,1.8,0,4.2-1.2,6
	c-1,1.6-2.1,3.2-3.1,4.8c-0.8,1.2-1.6,2.5-1.9,4c-0.1,0.7-0.1,1.5-0.2,2.2c-0.2,2.3-1.4,4.4-2.3,6.5c-0.8,2-1.3,4.2-1.6,6.4
	c-0.2,1.7-0.1,3.4,0.5,5c0.3,0.9,0.9,1.7,1.4,2.5c0.9,1.4,1.8,2.9,2.8,4.3c0.6,0.9,1.2,1.9,1.2,2.9c0.1,1.3-0.7,2.5-1.4,3.6
	c-2,3-4,5.9-6,8.9c-0.3,0.4-0.6,0.8-1.2,0.9"/>
<path fill="none" stroke="#D6D6D6" stroke-miterlimit="10" d="M225.8,287.5c3.4,2.6,6,6.1,6.8,10.2c0.1,0.4,0.2,1.3,0.4,1.6
	c0.3,0.4,0.8,0.7,1.2,1c1.5,1.3,1.9,4,3.8,4.6c0.4,0.1,0.9,0.2,1.2,0.5c0.2,0.2,0.3,0.5,0.3,0.8c0.7,2.1,2.6,3.5,4.4,4.8
	c0.2,0.1,0.4,0.3,0.6,0.2c0.5-0.1,0.6-0.8,1.1-0.9c0.5-0.2,0.9,0.6,0.9,1.1c0,0.6-0.2,1.2,0.1,1.7c0.4,0.5,1.2,0.3,1.8,0.4
	c1,0.2,1.7,1,2.3,1.9c1.3,1.7,3.9,3,3.8,5.1c-0.1,3.8,1.1,5,3.5,5.6c0.8,0.2,0.2,2.2,0.7,2.8c1,1.3,3.2,1.1,4.8,0.8
	c0.4-0.1,0.9-0.2,1.3-0.2c2.3,0.2,3,3.1,4.8,4.4c1.1,0.8,0,2.2,0.6,3.6c1,2.4,1.5,5-0.5,6.5c-0.4,0.3-0.8,0.9-0.6,1.4
	c0.1,0.3,0.3,0.4,0.5,0.7c0.6,0.7,0.6,1.6,0.7,2.5c0.2,3,0.9,5.9,2,8.6c0.5,1.3,1.3,2.7,2.7,2.8c0.5,0,1-0.2,1.4-0.3
	c1.6-0.6,3.2-2.6,4.7-1.8c1.4,0.8,0.3,3.1,0,4.7"/>
<path fill="#EAEAEA" stroke="#D6D6D6" stroke-miterlimit="10" d="M341.9,214.2c-0.5-0.6-1.1-1.1-1.6-1.6c-1.5-1.9-1.2-4.8-2.5-6.8
	c-0.3-0.4-0.6-0.8-1.1-0.7c-0.3,0-0.5,0.3-0.7,0.5c-0.6,0.7-2,1.1-1.9,2c0.1,0.9,1,1.7,0.7,2.5c-0.4,1.2-2,2.9-2.9,2.1
	c-0.6-0.5-0.5-1.5-1.2-1.9c-0.7-0.4-1.5-0.6-2.2-1c-2.1-1.3-2.3-4.4-4.1-6c-1.1-1-2.7-1.3-4-2.2c-0.8-0.5-1.5-1.3-2.3-1.9
	c-1.2-0.9-2.6-1.4-4-1.9c-2.3-0.8-5-1.5-7.1-0.1c-0.3,0.2-0.5,0.4-0.8,0.4c-0.4,0.1-0.9-0.2-1.3-0.4c-1.1-0.6-2.4-1-3.6-0.6
	c-2,0.7-2.6,3.2-3.8,4.9c-0.6,0.8-1.3,1.5-1.7,2.4c-0.5,1.1-0.5,2.3-0.5,3.5c0,2.5,0,5,0,7.4c0,0.7,0,1.4,0.3,2.1
	c0.2,0.5,0.5,0.9,0.7,1.4c0.2,0.6,0.3,1.2,0.3,1.8c0.1,1.3,0.2,2.7-0.6,3.7c-0.5,0.6-1.2,1-1.9,1.4c-0.7,0.4-1.4,0.8-2.1,1.2
	c-0.6,0.4-1.7,1.1-1.2,1.6c1.7,1.7,4.9-0.4,6.6-2.1c0.3-0.3,0.6-0.7,1.1-0.8c1.2-0.4,2.1,1.1,3.3,1.5c1,0.3,2-0.1,3,0.1
	c1.1,0.3,1.9,1.4,2.9,1.9c0.8,0.4,1.9,0.4,2.7-0.1c1.7-0.9,3.2-4.8,4.5-3.4c0.8,0.9,1.5,2.1,3.2,1.8c1.4-0.2,2.3-1,3-2.3
	c0.3-0.7,1.2-0.5,1.5,0.1c0.2,0.5,0.2,1,0.5,1.4c0.9,1.3,2.8,1.5,4,2.5c0.9,0.7,1.4,1.8,2.3,2.4c1.2,0.8,2.8,0.7,4.2,0.6
	c0.4,0,0.8-0.1,1.2-0.3c0.4-0.2,0.6-0.6,0.7-1c0.7-1.6,0.6-3.5,1.4-5c0.3-0.7,0.7-1.3,1.1-1.9c0.8-1.2,1.6-2.4,2.7-3.4
	c0.5-0.5,0.9-0.9,1.3-1.4C343,217.3,342.9,215.5,341.9,214.2z"/>
<path fill="none" stroke="#D6D6D6" stroke-miterlimit="10" d="M172,274.1c-0.6,0.8-1.5,1.4-2.5,1.6c-0.6,0.1-1.2,0.1-1.8,0.2
	c-0.8,0.2-1.4,0.8-2.1,1.3c-1,0.7-2,1.3-3.2,1.7c-0.7,0.3-1.5,0.4-2,0c-0.6-0.6-0.6-1.9-1.5-2c-0.6-0.1-1,0.5-1.1,1.1
	c-0.1,0.6,0.1,1.2,0,1.8c-0.2,1.4-1.9,2.1-3.2,2.5"/>
<path fill="none" stroke="#D6D6D6" stroke-miterlimit="10" d="M154.5,286.9c-2.7,8.7-14.5,6.1-21.5,9.1c-7,3-14.7,14.1-16.2,13.6
	c-1.3-0.5-1.5-2.7-2.8-4.6c-1.7-2.3-4-3.2-6-3c-4.1,0.5-6.2,1.1-9.4,5.1c-4.3,5.4-17.6-0.6-25.6-5.1c-1.9-1.1-3-3-5-5
	c-1-1-1-3-2-3.6c-2.4-1.4-1.4-5.1-2.9-7.4c-1-1.6-2.8-2.3-4.6-3c-3.2-1.3-6.4-2.6-9.6-3.9c-2.3-0.9-4.6-1.9-6.4-3.6
	c-2.2-2.1-3.3-5.1-5.5-7.2c-1.8-1.7-4.1-2.7-6.3-3.7c-2.5-1.1-5-2.2-7.4-3.3c-2-0.9-4.2-1.8-6.3-1.4c-1.5,0.3-2.8,1.1-4.3,1.3
	c-2.6,0.4-5.1-1.2-7.7-1.3c-3.3-0.1-6.5,2.1-9.8,1.8c-1.1-0.1-2.1-0.5-3.2-0.8c-1.6-0.6-3.1-1.1-4.7-1.7"/>
<path fill="#EAEAEA" stroke="#D6D6D6" stroke-miterlimit="10" d="M88,296.9c-0.3-0.3-0.8-0.4-1.2-0.7c-0.3-0.2-0.5-0.5-0.9-0.7
	c-0.2-0.1-0.4-0.1-0.6-0.2c-0.9-0.1-2.1-0.1-2.4,0.7c-0.3,0.6-0.1,1.4,0.2,2c0.2,0.3,0.4,0.6,0.7,0.8c0.5,0.3,1.1,0.5,1.7,0.5
	c0.8,0.1,1.6,0,2.2-0.5C88.3,298.5,88.5,297.5,88,296.9z"/>
<path fill="#EAEAEA" stroke="#D6D6D6" stroke-miterlimit="10" d="M21.7,330.8c-0.4-0.5-0.9-1-1.4-1.4c-1.5-1.3-3.4-2.2-5.1-3.1
	c-0.6-0.3-1.2-0.7-1.6-1.3c-0.4-0.7-1.1-1.9-0.5-2.3c0.9-0.6,2,0.9,3,1.4c0.9,0.4,1.8,0.5,2.7,0.8c1.5,0.4,2.7,1.6,4.1,2.4
	c0.7,0.4,1.3,0.8,1.8,1.4c0.5,0.6,0.8,1.4,0.6,2.1c-0.3,1.1-1.7,1.6-2.6,1.1C22.3,331.5,22,331.1,21.7,330.8z"/>
<path fill="none" stroke="#D6D6D6" stroke-miterlimit="10" d="M88.1,298.9c1.6,0.8,2.9,2.2,4,3.2c0.4,0.4,1.5,1.7,1.6,2.1
	c0.1,0.3,0.3,1.5,0.3,1.8c0,1.5-0.8,1.6-0.8,3.1"/>
<path fill="none" stroke="#D6D6D6" stroke-miterlimit="10" d="M371.4-6.1c-1.4,0-2.6,1-3.7,2c-2.8,2.7-5.1,5.9-6.6,9.5
	c-0.2,0.5-0.4,1-0.8,1.3c-0.6,0.5-1.6,0.3-2.4,0.3c-2.4-0.2-4.7,0.3-7,0.8c-1.6,0.4-3.3,2.5-4.6,1.6c-1-0.7-1.2-2.2-2.4-2.3
	c-1.2,0-2.4,0.6-3.4,1.3c-1.1,0.6-2.2,1.3-3.4,1.3c-2.5,0-4.3-2.5-6.8-2.7c-2.3-0.2-4.3,1.5-6.5,1.7c-0.6,0.1-1.3,0-1.9,0.2
	c-0.9,0.3-1.5,1-2.4,1.2c-0.8,0.3-1.7,0.2-2.6,0c-3.4-0.5-6.8-1.1-9.7-2.8c-1.7-1-3.1-2.3-4.2-3.9c-1.1-1.6-1.9-3.5-3.3-5
	c-1.6-1.7-3.8-2.6-5.4-4.2c-2.1-2.1-2.9-5.3-2.9-8.2s0.7-5.9,1.3-8.9"/>
<path fill="#EAEAEA" stroke="#D6D6D6" stroke-miterlimit="10" d="M154.2,282.5c-0.3,0.2-0.3,0.6-0.3,1c0.1,1.1,0.2,2.2,0.5,3.3
	c0,0.1,0.1,0.2,0.2,0.2c0.8-0.5,1.2-1.5,1.1-2.4c0-0.2-0.1-0.3-0.1-0.5c-0.1-0.4-0.1-0.8-0.3-1.1C155,282.6,154.5,282.3,154.2,282.5
	z"/>
<path fill="#FFFFFF" stroke="#D6D6D6" stroke-miterlimit="10" d="M226.5,282.9c-0.2,0-0.4-0.1-0.5-0.3c-0.8-0.6-1.3-1.5-1.8-2.4
	c-0.3-0.6-0.8-1.3-0.5-1.9c0.2-0.4,0.7-0.6,1-0.9c0.7-0.5,1.3-1.1,1.6-1.9c0.1-0.3,0.3-0.6,0.6-0.6c0.3,0,0.5,0.2,0.7,0.4
	c0.3,0.4,0.3,0.9,0.5,1.3s0.7,1.1,1.1,0.8c0.3-0.2,0.4-1.5,0.5-2c0.1-0.7,0.9-1.1,1.5-1.5c0.2-0.1,0.4-0.2,0.6-0.2
	c0.2,0.1,0.4,0.3,0.5,0.5c0.3,0.6,0.1,1.3-0.2,2s-0.7,1.2-1,1.8c-0.6,1.5-0.2,2.8-0.6,4.4c-0.1,0.5-0.7,1.1-1.2,1.2
	c-0.9,0.1-1.2-0.9-2.1-0.8C227,282.8,226.7,283,226.5,282.9z"/>
<path fill="#FFFFFF" stroke="#D6D6D6" stroke-miterlimit="10" d="M213.8,271.1c-0.1,0-0.3,0-0.4,0.1c-0.2,0.1-0.4,0.3-0.6,0.4
	c-0.2,0.2-0.4,0.3-0.5,0.6c-0.2,0.4-0.1,1,0.3,1.3c0.4,0.2,0.8,0,1.1-0.2s0.7-0.5,1.1-0.5c0.2,0,0.4,0.1,0.6,0.2
	c0.2,0.1,0.6,0.3,0.6,0.2c0-0.1,0.4,0.3,0.7,0.4c0.3,0.1,0.6,0,0.8-0.2c0.1-0.2,0.1-0.4,0.1-0.6c-0.1-0.2-0.3-0.3-0.4-0.4
	c-0.4-0.4-0.6-0.9-0.7-1.4c0-0.3,0-0.6,0-0.8s-0.2-0.6-0.5-0.6c-0.4-0.1-0.7,0.2-0.9,0.5c-0.2,0.3-0.5,0.6-0.7,0.9
	C214.2,270.8,214.1,271,213.8,271.1z"/>
<path fill="#FFFFFF" stroke="#D6D6D6" stroke-miterlimit="10" d="M219.3,268.2c0.3,0,0.7,0.1,1,0c0.3-0.1,0.6-0.4,0.5-0.8
	c0-0.2-0.2-0.4-0.3-0.5c-0.4-0.5-1-1-1.6-0.9c-0.2,0-0.4,0.2-0.6,0.3c-0.3,0.2-0.7,0.4-1,0.6c-0.2,0.1-0.4,0.2-0.5,0.4
	c-0.1,0.2-0.3,0.5-0.1,0.6C217.4,268.4,218.4,268.1,219.3,268.2z"/>
<path fill="#7BBCEB" stroke="#4E9BD7" stroke-miterlimit="10" d="M184.7,171.5c-0.5,0.8-1.3,1.6-1.8,2.4c-0.5,0.9-0.8,1.9-1.3,2.8
	c-0.7,1.4-1.6,2.6-2.5,3.9c-0.8,1-1.5,2-2.3,3.1c-0.6,0.8-1.2,1.6-2,2.1c-2.1,1.4-5.3,0.4-6.3-1.9c-0.3-0.7-0.4-1.5-0.5-2.3
	c-0.1-2.2,0.3-4.5,1.2-6.6c0.2-0.6,0.5-1.2,0.4-1.8c-0.2-0.9-1.2-1.4-1.5-2.2c-0.5-1.2,0.4-2.5,1.5-3.1s2-1.1,3-1.8
	c1.2-0.9,2.4-2.1,3.5-3.1c0.7-0.7,1.6-1.2,2.5-1.7c0.9-0.5,1.8-1,2.8-1.1c1.2-0.2,2.1,0.2,3.2,0.8c0.6,0.3,1.3,0.8,1.7,1.3
	c0.7,1,0.6,2.2,0.4,3.3C186.3,167.6,185.9,169.7,184.7,171.5z"/>
<g>
	<g>
		<path fill="none" stroke="#585858" stroke-miterlimit="10" d="M-14.6,251.8c0.6,0,1.3,0.2,1.9,0.5"/>
		<path fill="none" stroke="#585858" stroke-miterlimit="10" stroke-dasharray="4.0056,1.0014" d="M-11.7,252.7
			c1.6,0.7,3.1,1.6,4.6,1c1.3-0.6-0.9-3-0.2-4.2c0.7-1.1,1.7,2.4,2.9,2.1c1.3-0.3,0-3.2,1.4-3.4c1.2-0.1,2,1.4,3.1,2
			c1.7,1,3.9-0.6,5.9-0.2c2.9,0.6,3.5,4.6,5.9,6.2c3.4,2.2,8.6-1.1,11.8,1.4c1.5,1.2,2.2,3.5,4,4c1.5,0.5,3.5-0.4,4.6,0.7
			c0.3,0.3,0.4,0.6,0.7,0.8c0.8,0.4,1.7-0.4,2.5-0.5c1.2-0.2,2.1,0.9,3.1,1.7c1.9,1.6,4.5,2.2,7,2.9c6,1.7,11.7,4.5,16.7,8.4
			c2,1.5,1.4,4.1,2.6,6.2c0.5,0.9,2.1-0.1,2.8,0.5s-0.3,1.4-0.2,2.4c0.1,1.6,4.1-1,4.7,0.5c0.4,0.9-0.3,2.1,0.5,2.8
			c0.8,0.7,2.8,0.1,2.9,1.1c0.1,0.8-1,1.2-0.9,2c0.2,0.8,0.7,1.4,1.3,2c2.2,2.5,4.4,4.9,6.7,7.4c2,2.2,4.4,5.6,7.2,4.7
			c0.9-0.3,1.6,0.5,1.9,1.4s0.1,1.9,0.7,2.7c0.3,0.4,0.8,0.6,1.1,1c0.2,0.3,0.3,0.6,0.4,1c0.5,1.6,0.6,3.3,1.5,4.7
			c0.2,0.3,0.9,0.4,0.9,0.8c-0.3,1.6-3.6-1.2-4.8,0c-0.5,0.5,0.9,1.3,1.5,1.6c0.5,0.3,1,0.4,1.5,0.7s0.9,0.8,0.9,1.3
			c0,0.6-0.6,0.5-1.2,0.7c-1.2,0.4,2.7,1.2,2.3,2.4c-0.1,0.2-0.3,0.4-0.5,0.5c-0.8,0.5-1.5,1-2.3,1.5c-0.3,0.2,0.1,0.7,0.5,0.9
			c1.1,0.5,2.7,0.4,3.4,1.4c0.4,0.5-0.7,1.2-1.3,1.2s-1.3-0.2-1.9-0.5c-1.2-0.6-2.4-2.3-3.6-1.7c-1.1,0.5,1.3,2.1,1,3.3
			c-0.3,1.2-2.3-0.6-3.1-1.6c-0.8-0.9-1.9-2.4-3-1.8c-0.6,0.3,0.2,1.1,0.1,1.7c-0.1,0.7-1.8-0.4-2.2,0.2c-0.6,0.8,2.1,1.4,1.9,2.3
			c-0.3,1.1-2.4-0.5-3.5-0.1c-0.3,0.1-0.5,0.6-0.3,0.8c0.5,0.9,2.5,0.5,2.7,1.5c0.1,0.4-0.8,0.6-0.7,1c0.2,0.6,1.7,0.8,1.3,1.4
			c-0.3,0.4-1,0-1.4,0.2c-0.3,0.1-0.6,0.7-0.3,0.9c0.4,0.4,1.4,0.2,1.6,0.7c0.3,1-1.6,2-1.1,2.9c0.7,1.1,3.8,1.4,2.9,2.4
			c-0.6,0.7-2.5,0.1-2.4,1c0.1,0.9,1.9,0.5,2.4,1.2c1.6,2.9-0.9,6.6-0.6,9.9c0.1,1,0.1,2.1,0.6,3c0.4,0.9,1.6,2.5,2.3,1.8
			c0.4-0.4,1-1.1,1.3-0.5c0.3,0.6,0.4,1.3,0.4,2"/>
		<path fill="none" stroke="#585858" stroke-miterlimit="10" d="M90.6,361.3c0.1,0.7,0.1,1.3,0.3,2"/>
	</g>
</g>
<g>
	<g>
		<path fill="none" stroke="#585858" stroke-miterlimit="10" d="M135.4,363.8c0.5-0.6,0.5-1.3,0.2-1.9"/>
		<path fill="none" stroke="#585858" stroke-miterlimit="10" stroke-dasharray="3.9962,0.9991" d="M135.2,361.1
			c-0.5-0.9-1.2-2-1.2-3.1c0-1,2,0.4,2.9,0c0.4-0.2,0.4-1,0.2-1.4c-0.6-1.2-3.4-0.3-3.7-1.7c-0.1-0.5,1.1-0.6,1.2-1.1
			c0.1-0.7-1.5-0.7-1.6-1.4c-0.2-1,2.1-0.1,2.9-0.9c0.6-0.6-1.5-1.3-1.4-2.1c0.1-0.8,1.9-0.1,2.1-0.9c0.2-0.6-1.2-1.1-1-1.7
			c0.1-0.7,1.5,0,2-0.5c0.5-0.5-1.2-1.2-1-1.9c0.2-0.7,1.9,0.2,2.1-0.5c0.3-1.1-2.6-1.1-2.5-2.2c0.2-1.3,2.6-1,3.5-2
			c0.9-1,0.2-2.4,0.5-3.7c0.2-0.8,2-0.4,2.1-1.2c0.2-1.4-3.3-1.6-2.9-2.9c0.4-1.2,2.6,1.1,3.6,0.5c1-0.6,1-2.1,1.9-2.9
			c0.5-0.5-0.2-1.4,0.1-2c0.4-0.7,2.1,0.2,2.4-0.6c0.6-2,0.9-2.7,2.5-4c1.1-0.9,1.6-1.2,2.9-1.6c1.9-0.5,2.2-4,4-3.2
			c0.5,0.2,0.8,0.6,1.2,0.9c1.1,1.2,1.8,4.1,3.2,3.5c1.4-0.6-1.8-3.9-0.4-4.7c1.9-1.2,2.8,5.2,4.9,4.6c1.2-0.3-0.7-3.3,0.4-3.8
			c1.6-0.8,3.1,3.7,4.4,2.7c0.9-0.7-0.6-2.2-1-3.3c-0.2-0.6-0.2-1.5,0.4-1.7c0.4-0.1,0.8,0.2,1.2,0.4c1.8,1,3.1-1.1,4.9-2
			c0.5-0.2,1.2,1.1,1.6,0.7c0.9-0.9,0.1-2.6,1.1-3.3s2.5,0.9,3.5,0.1c0.8-0.6-0.9-1.9-0.7-2.9c0.2-1,1.2-1.9,2.2-1.5
			c1,0.4,2.3,2.4,2.6,1.4c0.4-1.3-0.8-3.6,0.5-3.9c1.4-0.3,2.5,2.9,3.8,2.1c1.4-0.9-1.7-4.3-0.2-5c1.4-0.6,5.5,6.3,18.5,3.1
			c1.5-0.4,2.7-1.6,4.2-2.1c2.6-0.9,5.5-0.2,8.2,0.5c0.7,0.2,1.4,0.3,2.1,0.1c1.5-0.6,2.9-3.9,3.8-2.6c2.3,3.2,3.9,6.8,7.1,9.2
			c4.9,3.6,11.3,5.6,14.7,10.6c0.8,1.3-0.9,2.8-1.5,4.1c-0.9,2.1-0.2,4.9,1.7,6.2c1.2,0.8,3.3,0.3,3.9,1.6c1,2.1,1.8,4.1,4,4.9
			c2.2,0.7,4.8,1.2,6.1,3.1c1.7,2.8-0.2,7.1,2.2,9.3c2.2,2.1,6.6,0.6,8.2,3.2c0.8,1.2,0.5,3,1.5,4.1c1.4,1.6,3.9,0.6,5.9,0.3
			c1.9-0.3,3.8,0,5.7,0.2c4.1,0.3,8.2-0.2,12.1-1.6c1.5-0.5,1.6-3,2.3-3.4c0.9-0.5,1.7,1.2,2.6,0.8s0.6-1.6,1.1-2.5
			c1.1-1.6,4.2-0.3,5.4,1.2c0.5,0.6,0.7,1.4,1.2,2c0.8,1.1,2.3,1.5,3.6,1c1.2-0.5,1-2.3,2-3.2c0.8-0.7,2.5,0.6,3-0.3
			c0.4-0.6-0.6-1.5-0.3-2.1c0.3-0.7,1.3,0.5,2,0.2c0.9-0.3-0.9-2.2-0.2-2.7c0.9-0.6,2.1,1.8,2.9,1.1c0.9-0.7,0.1-3,1.3-3.2
			c0.7-0.2,1.1,1.4,1.8,1.2c1.2-0.4,0.1-2.9,1.2-3.5c0.8-0.4,1.2,1.7,2,1.5c1.2-0.3,0.3-3.1,1.5-3.3c0.8-0.1,1.1,1.8,1.8,1.5
			c1-0.4,0-3.1,1.1-3.2c0.6,0,0.5,1.4,1,1.3c1.3-0.3,0.7-3.7,2-3.5c1.3,0.2,2.3,2.7,3.4,1.8c1.1-0.9-0.8-3-0.2-4.2
			c0.5-0.9,2,0.1,3,0c2-0.3,2.7-3.1,2.5-5c-0.1-0.6-0.2-1.2-0.1-1.7c0.1-0.6,1-1.3,1.3-0.8c0.6,1,0.8,3.2,1.8,2.6
			c1.2-0.7,1.6-0.8,3-1.1c0.9-0.2,0-1.9,0.7-2.6c0.6-0.7,1.2,0.3,2.1,0.4c0.6,0.1,0.1-1.6,0.7-1.8c0.8-0.3,1.7,1.7,2.4,1.1
			c1.4-1.2,1.8-2.8,3.6-3.1c2.6-0.5,5.3-0.9,7.9-1.4"/>
		<path fill="none" stroke="#585858" stroke-miterlimit="10" d="M370.8,321c0.7-0.1,1.3-0.2,2-0.4"/>
	</g>
</g>
<text transform="matrix(0.8956 -0.4449 0.4449 0.8956 32.0708 120.6453)" fill="#585858" font-family="'Verdana-Italic'" font-size="8">Piute</text>
<text transform="matrix(0.8377 -0.5462 0.5462 0.8377 207.2039 25.6455)" fill="#585858" font-family="'Verdana-Italic'" font-size="8">Creek</text>
<text transform="matrix(1 0 0 1 184.3497 183.7324)"><tspan x="0" y="0" fill="#7BBCEB" font-family="'Verdana-Italic'" font-size="8">Surprise</tspan><tspan x="0" y="9.6" fill="#7BBCEB" font-family="'Verdana-Italic'" font-size="8">Lake</tspan></text>
<text transform="matrix(1 0 0 1 320.6392 187.7911)"><tspan x="0" y="0" fill="#585858" font-family="'Verdana-Italic'" font-size="8">Sister</tspan><tspan x="0" y="9.6" fill="#585858" font-family="'Verdana-Italic'" font-size="8">Lake</tspan></text>
<text transform="matrix(1 0 0 1 182.7457 256.4489)" fill="#585858" font-family="'Verdana-Italic'" font-size="8">Smedberg Lake</text>
<text transform="matrix(1 0 0 1 290.4936 132.3087)" fill="#585858" font-family="'Verdana-Italic'" font-size="8"> 10184</text>
<path fill="none" d="M48.5,202.4c3.1-5.4,9.2-8,15.1-10s12.1-3.8,16.3-8.4"/>
<text transform="matrix(0.8283 -0.5602 0.5602 0.8283 53.4678 200.2316)"><tspan x="0" y="0" fill="#7D7D7D" font-family="'Verdana-Italic'" font-size="7">9</tspan><tspan x="4.1" y="0" fill="#7D7D7D" font-family="'Verdana-Italic'" font-size="7" rotate="8.8">0</tspan><tspan x="8.2" y="0.7" fill="#7D7D7D" font-family="'Verdana-Italic'" font-size="7" rotate="14">0</tspan><tspan x="12.5" y="1.8" fill="#7D7D7D" font-family="'Verdana-Italic'" font-size="7" rotate="15.3">0</tspan></text>
<path fill="none" d="M34.3,86.2c8.1-12.3,20.3-21.9,34.2-27"/>
<text transform="matrix(0.6359 -0.7717 0.7717 0.6359 39.1265 83.6627)"><tspan x="0" y="0" fill="#7D7D7D" font-family="'Verdana-Italic'" font-size="7">8</tspan><tspan x="4.3" y="0" fill="#7D7D7D" font-family="'Verdana-Italic'" font-size="7" rotate="3.7">4</tspan><tspan x="8.6" y="0.3" fill="#7D7D7D" font-family="'Verdana-Italic'" font-size="7" rotate="7.4">0</tspan><tspan x="12.8" y="0.8" fill="#7D7D7D" font-family="'Verdana-Italic'" font-size="7" rotate="11">0</tspan></text>
<path fill="none" d="M230,232.2c10-2.2,20-4.4,30-6.6"/>
<text transform="matrix(0.9766 -0.2152 0.2152 0.9766 238.9214 232.8273)"><tspan x="0" y="0" fill="#7D7D7D" font-family="'Verdana-Italic'" font-size="7">9</tspan><tspan x="4.5" y="0" fill="#7D7D7D" font-family="'Verdana-Italic'" font-size="7">6</tspan><tspan x="8.9" y="0" fill="#7D7D7D" font-family="'Verdana-Italic'" font-size="7">0</tspan><tspan x="13.4" y="0" fill="#7D7D7D" font-family="'Verdana-Italic'" font-size="7">0</tspan></text>
<path fill="none" d="M218.6,72.6c15.2,1.7,19.4-7.4,28.4-12.4s16.6-12.2,21-22"/>
<text transform="matrix(0.8248 -0.5654 0.5654 0.8248 235.2056 71.9308)"><tspan x="0" y="0" fill="#7D7D7D" font-family="'Verdana-Italic'" font-size="7">8</tspan><tspan x="4.7" y="0" fill="#7D7D7D" font-family="'Verdana-Italic'" font-size="7" rotate="-4.4">6</tspan><tspan x="9" y="-0.4" fill="#7D7D7D" font-family="'Verdana-Italic'" font-size="7" rotate="-3">0</tspan><tspan x="13.2" y="-0.7" fill="#7D7D7D" font-family="'Verdana-Italic'" font-size="7" rotate="3.7">0</tspan></text>
<g>
	<g>
		<polyline fill="none" stroke="#7D7D7D" stroke-miterlimit="10" points="85.2,341.6 85.2,348.7 275.4,348.7 275.4,341.7 		"/>
		<line fill="none" stroke="#7D7D7D" stroke-miterlimit="10" x1="180.5" y1="341.4" x2="180.5" y2="348.7"/>
		<line fill="none" stroke="#7D7D7D" stroke-miterlimit="10" x1="161.2" y1="349.2" x2="161.2" y2="343.7"/>
		<line fill="none" stroke="#7D7D7D" stroke-miterlimit="10" x1="142.4" y1="349.2" x2="142.4" y2="343.7"/>
		<line fill="none" stroke="#7D7D7D" stroke-miterlimit="10" x1="123.3" y1="349.2" x2="123.3" y2="343.5"/>
		<line fill="none" stroke="#7D7D7D" stroke-miterlimit="10" x1="104.6" y1="349.2" x2="104.6" y2="343.7"/>
	</g>
	<text transform="matrix(1 0 0 1 83.7837 339.1468)" fill="#7D7D7D" font-family="'Verdana'" font-size="8">0</text>
	<text transform="matrix(1 0 0 1 174.2948 339.1468)" fill="#7D7D7D" font-family="'Verdana'" font-size="8">0.5</text>
	<text transform="matrix(1 0 0 1 258.3417 339.1468)" fill="#7D7D7D" font-family="'Verdana'" font-size="8">1 mi</text>
</g>
</svg>
