<?xml version="1.0" encoding="utf-8"?>
<!-- Generator: Adobe Illustrator 17.1.0, SVG Export Plug-In . SVG Version: 6.00 Build 0)  -->
<!DOCTYPE svg PUBLIC "-//W3C//DTD SVG 1.1//EN" "http://www.w3.org/Graphics/SVG/1.1/DTD/svg11.dtd">
<svg version="1.1" id="Layer_1" xmlns="http://www.w3.org/2000/svg" xmlns:xlink="http://www.w3.org/1999/xlink" x="0px" y="0px"
	 viewBox="0 0 360 360" enable-background="new 0 0 360 360" xml:space="preserve">
<path fill="none" stroke="#E1E1E1" stroke-miterlimit="10" d="M-12.3,245.4c7.8-5.9,18-8.6,27.7-7.4c3.9,0.5,8.2,1.4,11.3-0.9
	c1.7-1.3,2.7-3.4,4.2-5c4.6-5.1,12.8-4.5,18.5-8.3c2.3-1.5,4.1-3.7,6.4-5.2c3.6-2.4,9.2-4,13.5-4.9c10.3-2.3,2.9-9.1,7.2-8.4
	c20.1,3.4,72.5,2.7,104.4,18.4c4.9,2.4,9.5,5.2,14.6,7.1c12,4.7,35.6,11.3,37.6-1.4c1-6-3.2-10.8-2.2-16.8c0.3-1.6-1.5-3.1-1.1-4.7
	c0.7-2.3,4.7-0.8,6.7-2.2c1-0.7-1-2.4-0.6-3.6c1.6-5.4,12.2-2.2,15.6-6.7c1.3-1.7-1.4-5.6,0.6-6.4c8.9-3.4,17.9,13.8,26.2,9.2
	c5.4-3,13.5-5.4,14.3-11.6c0.8-5.9-9.4-7.4-14.1-11c-2.3-1.8-4.8-3.7-7.7-4.1c-3-0.5-6,0.6-9,0.6c-3,0-5.9-1-8.8-1.7
	c-5.9-1.4-12.1-1.6-17.8-3.6s-11.2-6.6-11.6-12.6c-0.5-7.3,6.8-13.3,14.1-14.1s14.5,1.9,21.4,4.3c13.7,4.8,27.8,8.5,42.1,11
	c1.8,0.3,3.7,0.6,5.5,0.4c10.9-1.4,14.3-15.8,24-21c2.3-1.2,2.5-4.2,3.5-6.6c0.2-0.6,0.4-1.2,0.2-1.8c-0.1-0.4-0.5-0.8-0.8-1.1
	c-1.4-1.4-2.8-3-4-4.6c-0.5-0.7-1-1.4-1.1-2.3c-0.2-2.1,2.3-3.4,4.4-3.9c2.6-0.6,5.2-0.8,7.8-0.6c0.4,0,0.9,0,1.2-0.3
	c0.4-0.3,0.3-0.9,0.3-1.3c-0.1-1.1-1-2.5-0.3-3.2c4.7-4.9,13.5-3.5,17-9.3c0.8-1.3,1.5-2.7,2.7-3.5c1.1-0.7,2.4-0.8,3.7-0.8
	c2.6-0.2,5.3-0.3,7.9-0.5"/>
<path fill="none" stroke="#E1E1E1" stroke-miterlimit="10" d="M372.3,127.3c-1.6,1.5-3.3,2.9-4.9,4.4c-1.2,1-2.8,2.2-4.2,1.4
	c-0.8-0.5-1.1-1.4-1.6-2.2c-0.5-0.8-1.3-1.6-2.2-1.3c-0.7,0.2-1.1,0.8-1.7,1.2c-1.4,0.8-2.9-0.5-4.4-1c-1.7-0.6-3.6,0-5.3,0.5
	c-0.9,0.3-1.9,0.6-2.3,1.5c-0.9,1.6,0.9,3.3,1.5,5.1c0.6,1.8-0.1,4.1,1.1,5.6c0.4,0.5,0.9,0.8,1.3,1.3c1,1.1,1,2.8,0.9,4.3
	c0,0.4,0,0.8-0.3,1.2c-0.3,0.5-0.9,0.7-1.5,0.9c-4.2,1.2-8.4,2.4-12.7,3c-5.4,0.7-11.5,0.6-15.7,4.1c-0.9,0.8-1.7,1.7-2.8,2.2
	c-0.8,0.4-1.8,0.5-2.7,0.8c-2,0.7-3.7,2.3-4.5,4.3c-0.4,1-0.5,2.1-1,3c-0.4,0.8-1,1.6-1.4,2.4c-1.1,2.1-2.2,5.2-0.6,6.9
	c2.8,3,8.1,0.3,12.2,0c2.4-0.2,5.2-0.7,6.3-2.8c0.5-0.9,0.5-2,0.8-3s0.9-2.1,2-2.2c0.6-0.1,1.2,0.1,1.8,0.3c3.5,1.3,7,2.7,10.6,4
	c1.3,0.5,2.6,1,3.9,1.3c3.9,1,8.1,0.7,11.8-0.9c1.6-0.7,3.3-1.7,5.1-1.5c1.1,0.1,2.1,0.7,3.1,1.1c3.3,1.5,7.1,1.8,10.6,0.9"/>
<path fill="none" stroke="#E1E1E1" stroke-miterlimit="10" d="M370.4,179.1c-1.5,0.6-3.4,0.8-4.2,2.2c-0.5,0.7,0.3,1.8,1,2.3
	c1,0.7,2.4,0.7,3,1.8c0.4,0.8,0.1,1.8,0.7,2.4c0.8,0.9,2.4,0.1,3.5,0.7"/>
<path fill="none" stroke="#E1E1E1" stroke-miterlimit="10" d="M194.7,140.9c-2.8-0.5-5.7-1-8.2-2.4c-1.4-0.7-2.7-1.7-4.2-1.9
	c-1.5-0.2-3.1,0.3-4.5,0.9c-1.4,0.6-2.8,1.2-4.1,1.9c-1.2,0.6-2.5,1.4-3.1,2.6c-0.6,1.4-0.1,3,0.9,4.2c1,1.1,2.4,1.8,3.8,2.4
	c0.8,0.3,1.6,0.7,2.2,1.4c1.4,1.7-1.1,5,0.6,6.4c1.3,1.2,4.4-1,5.3,0.6c1.8,2.9-4.6,5.3-8,5.2c-1-0.1-2.1-0.4-2.8-1.2
	c-1.2-1.5-0.2-4.2-1.7-5.4c-0.6-0.5-1.4-0.6-2.1-0.7c-9.6-1-21.1-5.9-28.9-0.2c-2.6,1.9,0.8,6.7,3.9,7.3c1.5,0.3,3.2-0.1,4.6,0.5
	c2.3,1,2.9,4,4.6,5.9c0.8,0.8,1.8,1.5,2.8,2c5.9,3,13.2,2.9,19-0.2c2-1.1,3.9-2.5,5.8-3.8c2.5-1.7,5-3.4,7.6-4.9
	c1.5-0.9,3.1-1.7,4.9-1.9c2.9-0.2,5.6,1.4,8.4,1.6c2.5,0.2,5-0.7,7.4-1.6c2.2-0.8,4.5-1.7,6.7-2.5c1-0.4,1.9-0.7,2.7-1.4
	c1.4-1.3,1.8-3.3,2.7-5.1c0.4-0.9,1-1.7,1.1-2.7c0.2-1.8-1.4-3.3-3.1-4c-2.6-1.2-5.6-1.3-8.5-1.4C205.3,142.4,200,141.8,194.7,140.9
	z"/>
<path fill="none" stroke="#E1E1E1" stroke-miterlimit="10" d="M371.7,200.3c-3,0.7-6.2-1.9-9.1-0.8c-1.1,0.4-2,1.4-3,2
	c-3.5,1.9-8.2-0.6-11.6,1.3c-1.2,0.7-2.1,1.8-3.2,2.6c-1.6,1.1-3.7,1.3-5.6,1.6c-7.1,1.1-14,3.5-20.4,6.6c-1.3,0.6-2.6,1.3-3.2,2.6
	s-0.1,3.2,1.2,3.4c0.5,0.1,1.1,0,1.6,0.2c1,0.6,0.4,2.1-0.1,3.1c-1.9,3.8-0.9,8.4,0.6,12.4c2.3,5.9,11.3,10,9.9,16.2
	c-0.5,2.3-4.6-0.5-6.7-1.7c-4.3-2.4-8.9-4.1-13.6-5.8c-6.5-2.3-13-4.7-19.8-5.6c-1.3-0.2-2.7-0.3-3.6-1.2c-2.3-2.1-0.4-5.9,1.9-7.9
	c2.3-2.1,5.2-4.4,4.7-7.4c-0.6-3.5-6.2-2.2-8.7-4.8c-2.1-2.2-3-5.7-6-5.5c-1.4,0.1-2.8,0.7-4.2,1c-3.5,0.9-6.8-2.5-10.4-1.8
	c-1.6,0.3,0.8,3.3-0.1,4.8c-0.7,1.1-2.4-1.6-3.7-1.4c-2.3,0.3,2.9,2,3.7,4.2c0.4,1.2-2.6,0.1-3.5,0.9c-0.7,0.6,0.8,2.3,0,2.7
	c-1.6,0.9-4.2-1.8-4.8-0.1c-0.2,0.5-0.1,1.1,0,1.6c0.6,2.8,3.2,6,1.7,8.5c-2,3.3-7.5,2.2-10.8,4.2c-3.3,2.1-4.4,6-6.8,9
	c-2.9,3.5-10.9,6.4-8.2,10.1c2.8,3.9,10.1-1.9,14.3,0.3c5.1,2.8-2.7,11.3-1.4,16.9c0.9,3.9,5.5,6.6,9.4,5.4c1-0.3,1.9-0.8,3-1
	c3.1-0.6,6,2,9.1,2.5c1.7,0.3,3.5-0.1,5.1,0.5c1.6,0.6,3,2.6,1.9,4c-0.5,0.7-1.5,0.9-2,1.5c-1.3,1.4-0.4,3.6,0,5.4
	c0.4,1.9-0.9,2.9-2.7,3.5c-0.9,0.3,0.4,1.8,0.7,2.8c1.1,3.3-4,5.7-4,9.2c0,2.3,2.3,3.9,4.3,5.1c0.8,0.5,1.7,1,2.7,1
	c0.7,0,1.4-0.3,2.1-0.6c5.4-2.2,10.9-4.5,15.2-8.5c2.3-2.2,4.4-5,7.5-5.6c1.8-0.4,3.7,0,5.6-0.3c1.8-0.3,2.2-2.2,3.3-3.7
	c1.6-2.3,4.5,3,7.1,3.9c2.3,0.8,4.7-0.4,7-1.2c8.5-3.3,18-2.7,27-4.2c2.8-0.5,5.7-1.3,7.7-3.2c1.3-1.2,2.1-2.8,2.9-4.4
	c0.7-1.3,1.3-2.5,2-3.8c1.5-2.8,0.1-6.4,1.8-9.1c2.6-4.2,9.8-0.7,14.8-1.1"/>
<path fill="none" stroke="#E1E1E1" stroke-miterlimit="10" d="M339.2,267.1c0.5-0.2,1.1-0.3,1.6-0.2c1.4,0.2,2.2,1.9,2.3,3.4
	c0.1,1.5-0.2,3,0.3,4.4c0.2,0.5,0.5,0.9,0.5,1.5c0.2,1-0.5,2-1.2,2.8c-1,1.3-2.1,2.6-3.1,4c-0.2,0.2-0.4,0.5-0.7,0.4
	c-0.1,0-0.2-0.2-0.3-0.3c-0.4-0.5-0.8-1.1-1.1-1.6c-0.5-0.7-1-1.6-0.7-2.4c0.4-0.8,1.7-0.3,2.3-1c0.5-0.6,0.4-1.7-0.1-2.3
	c-0.9-1-2.6-0.6-3.9-0.8c-0.2,0-0.4-0.1-0.6-0.2c-0.2-0.2-0.2-0.4-0.2-0.6c-0.1-1.2-0.3-2.3-0.4-3.5c-0.1-0.5-0.1-1.1,0.3-1.4
	c0.2-0.2,0.5-0.2,0.7-0.2c0.9-0.1,2.1,0.6,2.8-0.1C338.2,268.2,338.4,267.4,339.2,267.1z"/>
<path fill="none" stroke="#E1E1E1" stroke-miterlimit="10" d="M344.9,237.3c-0.7-1.3-2.1-2.4-3.6-2.5c-1.5-0.1-3.1,0.8-3.6,2.3
	c-0.2,0.7-0.2,1.4-0.1,2.1c0.1,1.4,0.5,2.9,1.7,3.6c0.7,0.4,1.6,0.3,2.5,0.4c1,0.2,1.8,0.6,2.8,0.7c0.6,0.1,1.2,0.1,1.8,0
	c1.9-0.1,3.8-0.5,5.7-1c1.6-0.5,4.9-1.1,4.2-2.7c-0.9-2.2-4.8-0.8-7.2-0.7c-1.1,0.1-2.4,0.2-3.2-0.6
	C345.4,238.5,345.2,237.9,344.9,237.3z"/>
<path fill="none" stroke="#E1E1E1" stroke-miterlimit="10" d="M337.2,313.2c0-0.3-0.1-0.6-0.3-0.9c-0.8-1.4-2.6-2.2-4.2-1.8
	c-0.8,0.2-1.5,0.7-1.8,1.4c-0.4,0.7-0.4,1.7,0.3,2.2c0.7,0.5,1.6,0.6,2.4,0.8c0.8,0.2,1.6,0.3,2.3,0
	C336.6,314.7,337.3,313.9,337.2,313.2z"/>
<path fill="none" stroke="#E1E1E1" stroke-miterlimit="10" d="M-10.2,264.6c-0.6,3.5,5.9,4,9.2,5.4c0.4,0.2,0.7,0.3,1.1,0.2
	c0.5-0.1,0.8-0.7,0.9-1.3c0.6-2.4-0.5-4.8-1.8-6.9c-0.3-0.5-0.6-1-1.1-1.3c-1-0.7-2.3-0.6-3.4-0.4C-7.6,260.7-9.8,262.4-10.2,264.6z
	"/>
<path fill="none" stroke="#E1E1E1" stroke-miterlimit="10" d="M13.4,272.3c-0.4,1.9-4.3,0.7-5.5-0.8c-0.6-0.7-0.8-1.7-1-2.7
	c-0.5-2.7-1.1-5.4-1.6-8.1c-0.1-0.6-0.2-1.2,0.2-1.7c0.3-0.3,0.7-0.5,1.1-0.6c5.1-1.4,10.2-2.8,15.3-4.1c4.4-1.2,9.7-2.2,13.1,0.8
	c2.2,1.9,3,4.9,4.1,7.6c0.5,1.3,1.3,2.7,2.7,2.9c1.8,0.2,3-1.9,3.2-3.7c0.2-1.8-0.1-3.8,0.9-5.3c1.8-2.8,6.4-2,8.7-4.4
	c0.8-0.9,1.2-2.1,1.7-3.2c2-4.5,6.1-7.7,10.3-10.2s8.6-4.8,12.1-8.2c1.1-1,2.1-2.2,3.3-3.1c1.2-0.9,2.6-1.4,4-1.9
	c12.9-4.7,27.2-5.5,40.6-2.4c8.1,1.9,16.4,2.5,24.6,3.9c5.9,1,11.5,3.2,17.1,5.5c7.8,3.1,15.6,6.3,23.4,9.4c1.7,0.7,3.5,1.4,4.9,2.6
	c1.5,1.2,2.6,2.9,4,4.3c4.2,4,12.8,0.1,16.4,4.7c1.7,2.1-1,5.3-1.5,7.9c-0.3,1.4-0.6,2.8-1.3,4c-0.7,1.1-1.6,1.9-2.6,2.8
	c-4.6,3.9-9.8,14.4-14.5,10.6c-2.2-1.8-2-5.4-4.8-5.2s-5.2,2.1-7.3,4c-3.5,3.1-7,6.1-10.5,9.2c-3.8,3.3-8.4,6.8-13.3,5.6
	c-1.5-0.4-3-1.3-4.5-1.5c-3.1-0.4-5.8,1.8-8.1,3.8c-4.4,3.9-9,7.8-12.2,12.8s-5.1,11.1-3.7,16.8c0.3,1.1,0.7,2.3,0.6,3.5
	c-0.2,3.2-3.6,5-6.2,6.9c-4.7,3.3-5.5,9.8-9.5,13.9c-6.8,7.1-19.4-2.1-29.2-2.4c-2.8-0.1-5.6,0.2-8.5,0.1c-1.7-0.1-3.4-0.4-5.1-0.7
	c-8.4-1.4-16.8-2.8-25.2-4.1c-3-0.5-6.8-2.3-6-5.1c0.2-0.9,1-1.7,1-2.6c0.1-1.4-1.4-2.4-2.3-3.5c-1.8-2.2-1.4-5.5-0.2-8
	s3.1-4.7,4.4-7.2c3.1-6.2,1.7-13.6,0.2-20.3c-0.2-1.1-0.5-2.3-1.1-3.3c-0.7-1.1-1.9-1.8-2.7-2.9c-0.7-0.9-1-1.9-1.5-2.9
	c-1.8-3.8-5.1-6.9-9-8.5c-3.9-1.5-8.6-1.9-11.1-5.1c-2.3-2.9-0.2-7.3-1.4-10.8c-1.1-3.1-6.8-1.2-8.4,1.6
	C9.7,265.5,14.1,269.1,13.4,272.3z"/>
<path fill="none" stroke="#E1E1E1" stroke-miterlimit="10" d="M93.4,239c-0.8,0.8-1.5,1.7-2.5,2.3c-2.5,1.8-6.3,2-7.7,4.8
	c-0.9,1.8-0.4,4-0.6,6c-0.1,1.2-0.5,2.4-0.7,3.5c-1,4.9,0.5,10,2.9,14.3c1.2,2.3,2.8,4.6,2.7,7.1c0,0.5-0.1,1,0.1,1.5
	c0.3,0.7,1,1,1.5,1.6c0.9,1.1,0.7,2.7,0.6,4.1c-0.7,7.3,2.6,14.7,1.4,21.9c-0.2,1.5-0.7,3,0.1,4.3c0.7,1.2,2.3,1.7,3.7,1.9
	c2.2,0.4,5.3-1.7,6.6,0.1c1.8,2.7-1.6,7.1,1.2,8.8c1.6,1,3.9,0.7,5.3-0.6c1.1-1,1.6-2.6,2.1-4c1.5-4,3.7-7.7,6-11.3
	c1.9-3.2,3.9-6.4,5.8-9.5c0.9-1.4,1.7-2.9,2.8-4.1c1.3-1.5,2.8-2.8,4.2-4.1c5.3-5.1,9.5-11.4,12-18.3c1-2.7,1.9-5.7,4.2-7.5
	c1.8-1.4,4.2-1.7,6.5-2.2c4.4-1,8.6-2.7,12.7-4.4c2.1-0.9,4.3-1.8,5.6-3.7c1.2-1.8,1.4-4,1.5-6.2c0-0.4,0-0.8-0.1-1.2
	c-0.2-0.4-0.6-0.7-1-0.9c-2.3-1.2-5,0-7.5-0.6c-2-0.5-3.5-2.1-5.1-3.4c-6.3-5.1-14.9-5.9-23-6.3c-6.7-0.3-13.4-0.5-20.1-0.3
	C107,232.8,98.8,233.8,93.4,239z"/>
<path fill="none" stroke="#E1E1E1" stroke-miterlimit="10" d="M189.3,377.1c-0.6-9.3-9.8-23.4-1.7-28c1.2-0.7,6.9,4.3,7.8,2.9
	c5.7-8.5,4.1-19.5,5.7-29.9c0.1-1,1-1.8,2-2c9.4-1.5,24.5-14.5,28-10.3c4.2,4.9,30.4,18.3,47,22.3c3.1,0.7,4.2,4.9,6,8
	c1.1,1.9,0,5,0,8c0,1,2,1.2,3,1c5.3-1,6.7-12.2,11.1-9.9c1,0.5-2.2-1,0,0c1,0.4,0.1,4,0.9,4.8c1,0.9,3.5-0.1,5-0.4
	c3.7-0.7,7.3-1.5,11-2.2c6.1-1.2,10.3-3.4,14.2-8.3c2.1-2.7,5.1-4,7.5-6.5c3.8-4,7.2-8.5,10.3-13c2.3-3.3,4.4-6.7,6.6-10.1
	c0.9-1.5,1.9-2.9,2.6-4.5c0.5-1.1,0.8-2.2,1.4-3.3c1.1-2.1,3-3.7,4.5-5.5c1.5-1.8,1.4-4.3,2.4-6.5c1.3-2.8,5.9-2.1,8.9-1.6"/>
<path fill="none" stroke="#E1E1E1" stroke-miterlimit="10" d="M372.8,307.6c-6.5,5.2-5.8,16.7-13.1,20.9c-2.1,1.2-4.5,1.6-6.8,2.3
	c-5.4,1.7-10.1,5.5-12.9,10.3c-0.3,0.4-0.5,0.9-1,1.2c-0.6,0.4-1.3,0.3-2,0.4c-5.8,0.4-9.5,6.7-15,8.4c-4.7,1.4-10.4-0.7-14.4,2.3
	c-1.2,0.9-2.1,2.2-3.5,2.5c-1.1,0.3-2.3,0-3.5-0.1c-2.7-0.1-5.1,1.5-7.4,2.9c-4.1,2.4-8.6,4.1-13.2,5.1c-6.2,1.4-12.7,1.4-19,1.1
	c-2.5-0.1-5.4-0.6-6.4-2.8c-1.2-2.7,1.1-6.3-0.8-8.6c-0.6-0.7-1.5-1.1-2.1-1.9c-0.7-0.9-0.6-2.2-1-3.3c-0.8-2.4-3.5-3.5-5.8-4.3
	c-4.5-1.6-9.2-6.8-13.5-4.8c-6.4,2.9-4.4,13.2-5.5,20.1c-0.3,2.2-0.6,4.4-0.2,6.6c0.2,1.1,0.6,2.2,0.6,3.4c0,3.4-3.3,6.7-1.8,9.8"/>
<path fill="none" stroke="#E1E1E1" stroke-miterlimit="10" d="M285.1,376.2c-0.1,0.2-0.4,0-0.4-0.2c0.1-0.2,0.3-0.3,0.5-0.4
	c4.8-1.5,9.2-3.9,13.1-7.1c2.1-1.8,4.1-3.8,6.8-4.6c1.3-0.4,2.7-0.4,4.1-0.5c7.6-0.5,14.8-3.4,21.7-6.7c2.7-1.2,5.4-2.6,7.7-4.3
	c2-1.5,3.8-3.3,5.7-5c2.4-2.1,5.1-4,7.9-5.6c0.8-0.5,1.8-0.9,2.6-0.6c0.5,0.2,0.9,0.5,1.3,0.8c2.1,1.1,4.4-1,6.4-2.3
	c3.8-2.5,8.6-2.3,13.1-2"/>
<path fill="none" stroke="#E1E1E1" stroke-miterlimit="10" d="M307.5,375.5c5.9-4,12.8-5.9,19.3-8.9c6.7-3.1,12.7-7.5,18.9-11.6
	c3.3-2.2,6.7-4.4,10.4-5.6c3.3-1.1,6.7-1.5,10.1-1.9c3.5-0.4,6.9-0.8,10.4-1.2"/>
<path fill="none" stroke="#E1E1E1" stroke-miterlimit="10" d="M-8.2,189.5c0.9-1.2,3.1-1,3.8-2.3c0.9-1.8-2-3.5-2.9-5.2
	c-0.3-0.5-0.6-1.1-0.7-1.6c-0.2-0.8,0-1.6,0.2-2.4c0.7-3.1,1.5-6.1,2.2-9.2c0.3-1.3,0.7-2.7,1.6-3.6c1.6-1.5,4.1-1.2,6.1-0.4
	c2,0.9,3.8,2.2,5.9,2.7c1.3,0.3,2.7,0.3,4.1,0.4c5.9,0.5,11.6,3.9,17.4,2.7c2.9-0.6,5.8-1,8.5-2.2c1.1-0.5,1.1-2.2,0.8-3.4
	c-0.2-1.1-0.9-2-0.9-3.1c0-1.6,1.5-2.8,2.8-3.9c1.5-1.2,2.7-2.7,3.8-4.3c0.3-0.5,0.6-1,0.6-1.5c0-0.3-0.2-0.6-0.3-0.9
	c-1.9-3.4-6.2-4.5-10.1-5.2c-3.7-0.7-7.4-1.4-11-2.1c-1.5-0.3-3.1-0.6-4.6-1.1c-3-1-5.8-2.7-8-4.9c-0.5-0.5-1-1.1-1.3-1.7
	c-0.2-0.5-0.3-1.1-0.3-1.7c-0.4-3.6-0.5-7.2-0.7-10.8c-0.1-1.7,1-3.9-0.2-5.1c-0.9-0.9-2.5,0.9-3.1,2.1s-0.8,2.5-1.3,3.7
	c-1,2.7-3.1,4.8-5.2,6.8C-5,135.1-9,139-13.8,141.8"/>
<path fill="none" stroke="#E1E1E1" stroke-miterlimit="10" d="M-13.3,21.2c2.5-1.3,5.1-2.6,7.6-3.9c1.3-0.7,3.1-1.3,4.2-0.4
	c0.7,0.6,1,1.6,1.8,1.9c0.8,0.4,1.9,0,2.5-0.8c0.6-0.7,0.8-1.6,1.1-2.5C4.4,14.2,5,12.8,6,11.7s2.6-1.6,4-1.2
	c2.1,0.6,3.6,3.4,5.7,2.8c1.3-0.4,1.9-1.9,2.3-3.3c1.4-5.3,2.5-10.6,3.2-16"/>
<path fill="none" stroke="#E1E1E1" stroke-miterlimit="10" d="M-9.1,61.2c3.5,0.3,6.5-2.7,8-5.9c1.5-3.2,2.3-6.8,4.5-9.6
	c0.4-0.5,0.8-0.9,1.3-1.2c0.4-0.2,0.9-0.2,1.4-0.3c2.5-0.2,5-0.5,7.5-0.7c3.8-0.4,7.6-0.7,11.1-2.1s6.7-4,7.9-7.6
	c0.3-1,0.5-2.2,1.1-3.1c0.5-0.8,1.2-1.3,2-1.8c2.2-1.6,4.3-3.2,6.5-4.8c2.6-1.9,5.3-3.9,8.4-4.7c3.5-1,7.9-0.8,10-3.8
	c1.7-2.4,0.9-5.7,0.3-8.6c-0.6-2.9-0.8-6.4,1.5-8.2c0.4-0.4,1-0.6,1.3-1.1C63.9-2.7,64-3.2,64-3.6c0.1-2.8-0.1-5.7-0.5-8.5"/>
<path fill="none" stroke="#E1E1E1" stroke-miterlimit="10" d="M351.2-9.9c-0.5,0-1-0.1-1.4,0.1c-2,1-0.3,4.3,1.3,5.9
	c1.5,1.6,4.6,3.8,3.3,5.6c-1.9,2.6-6.5-2-9.3-0.5c-0.9,0.5-1.5,1.4-2.4,1.7c-1.8,0.6-3.7-1.2-5.5-0.7c-1.2,0.3-2,1.6-3.2,1.6
	c-1,0-1.7-0.9-2.4-1.6c-2.3-2.1-5.9-2.4-8.5-0.8c-0.5,0.3-0.9,0.6-1.5,0.8c-0.8,0.2-1.7-0.1-2.5-0.4c-10.5-3.8-22.4-6.9-32.4-2.1
	c-3.4,1.6-6.3,4.1-9.9,5.3c-3.6,1.3-8.3,1.9-9.4,5.6c-0.3,0.9-0.3,1.9-0.4,2.8c-0.3,1.6-1.1,3.1-1.9,4.5c-1.1,2-2.4,4.2-4.6,5
	c-0.9,0.4-1.9,0.4-2.7,1c-1.2,0.8-1.6,2.4-1.9,3.8c-0.9,4.2,1,7.7,2.4,11.7c1.5,4.2-4,9.9-1,13.2c2.4,2.6,7.2,1.6,9.2,4.5
	c2.1,2.9,0.4,7.1,3.3,9.1c2.9,2.1,6.6,3.2,8.8,6c1.4,1.6,2.1,3.7,3.6,5.3c3.4,3.6,9.4,3.3,13.9,1.1c4.5-2.2,8.1-5.7,12.5-8.1
	c2.9-1.6,6.2-2.7,9.1-4.3c6.6-3.5,9.1-14.3,16.5-14.9c2.4-0.2,3.6,3.1,5.5,4.7c1.4,1.2,3.2,2.5,4.9,1.9c1.8-0.6,2.4-2.8,2.1-4.7
	c-0.3-1.8-1.3-3.5-1.7-5.3c-0.4-1.8-0.3-5.4,1.5-5c5.6,1.4,6.3,9.7,9.4,14.6c1.2,1.8,2.4,3.7,4.2,4.8c1.2,0.7,2.6,1.1,3.8,1.9
	c2.1,1.3,3.4,3.6,5,5.5c1.6,1.9,3.8,3.7,6.3,3.4"/>
<path fill="none" stroke="#E1E1E1" stroke-miterlimit="10" d="M297.5,22.8c1.5-1.3,3.4-2.1,5.3-2.9c1.9-0.8,3.7-1.7,5.1-3.3
	s1.9-3.8,1-5.6c-0.3-0.6-0.8-1.1-1.1-1.8c-0.3-0.7-0.3-1.6-0.6-2.3c-0.7-1.7-2.9-2.3-4.7-1.9c-1.8,0.3-3.4,1.4-5.1,2
	c-1.3,0.5-2.7,0.8-3.7,1.7c-0.6,0.5-1.1,1.2-1.8,1.7c-0.7,0.5-1.7,0.6-2.4,1.2c-0.9,0.7-1.3,1.9-1.7,3c-0.9,3-4,6.1-2.8,9
	c0.8,2.2,4.2,2.4,6.5,2.3c2.4-0.1,4.6-1.5,6.6-2.9C298.8,22.4,296.7,23.5,297.5,22.8z"/>
<path fill="#EAEAEA" stroke="#D6D6D6" stroke-miterlimit="10" d="M92.5,145.3c-0.9-0.9-2.4-0.6-3.6-0.2c-2.2,0.6-4.3,1.2-6.5,1.8
	c-1.2,0.3-3.2,0.2-3.5,1.5c-0.2,1,1.4,1.4,2.4,1.6c1,0.2,2,0.2,2.9,0.5c3.5,0.8,6.1,4.4,9.7,4.9c0.3,0,0.6,0.1,0.9-0.1
	c0.3-0.1,0.5-0.4,0.6-0.7c1.3-2.2,1.8-4.8,1.4-7.3c0-0.2-0.1-0.5-0.2-0.7c-0.7-1-2.5,0-3.5-0.7C92.9,145.7,92.7,145.5,92.5,145.3z"
	/>
<path fill="none" stroke="#4E9BD7" stroke-miterlimit="10" d="M94.9,169.4c1.3-0.9,3.1-0.2,4.2,1c1.1,1.1,1.7,2.6,2.6,3.9
	c1.6,2.1,4.1,3.3,6,5.2c0.7,0.7,1.3,1.4,2,2c1,0.8,2.2,1.3,3.4,1.8c1.9,0.7,3.8,1.5,5.7,2.2c7.6,2.9,15.3,5.6,23.4,6.3"/>
<path fill="none" stroke="#D6D6D6" stroke-miterlimit="10" d="M197.5,193.1c1.3-2.4,4.8-1.6,7.5-1.9c2.3-0.2,4.3-1.4,6.5-2.2
	c2.5-1,5.2-1.5,7.8-2c4-0.7,7.9-1.5,11.9-2.2c1.8-0.3,3.7-0.7,5.6-0.6c2.8,0.2,5.4,1.4,8.2,1.6c7.2,0.5,14-5.7,21-3.8
	c4.2,1.2,7.4,5.2,11.8,5.6c2.5,0.2,5-0.8,7.5-1.2c6.3-1.1,12.6,1.5,19,1.2c2.4-0.1,4.8-0.7,7.3-0.6c3.7,0.1,7.1,1.8,10.4,3.3
	c0.1,0.1,0.3,0.1,0.4,0.2"/>
<path fill="none" stroke="#4E9BD7" stroke-miterlimit="10" d="M-10.8,162.3c3.1,0.2,6-1.6,8.9-2.9c5.3-2.3,11.3-3,17-2.4
	s11.4,2.3,16.7,4.5c0.9,0.4,1.8,0.8,2.5,1.5c0.6,0.6,1,1.3,1.5,2c1.5,2.1,3.8,3.5,6.2,4.5c4.5,1.8,10.5,2.1,15.2,0.7"/>
<path fill="#EAEAEA" stroke="#D6D6D6" stroke-miterlimit="10" d="M125.3,124.9c-0.6-1-1.6-1.9-2.8-2.1c-1.2-0.3-2.5,0.1-3.2,1
	c-0.2,0.2-0.3,0.5-0.5,0.6c-0.3,0.2-0.6,0.3-1,0.3c-1.3,0.2-2.7,0.1-4,0.1c-1.3,0-2.7,0.2-3.8,0.9c-1.1,0.7-2.6,2.4-1.7,3.3
	c1.3,1.4,3.8,0.6,5.7,0.2c0.6-0.1,1.2-0.2,1.8-0.3c2-0.1,3.2,0,5.1-0.4c0.7-0.1,2.3,0,2.9-0.3c0.9-0.4,1.7-0.5,2-1.5
	C125.9,126.1,125.6,125.5,125.3,124.9z"/>
<path fill="#EAEAEA" stroke="#D6D6D6" stroke-miterlimit="10" d="M94.7,112.6c0.2,0.2,0.5,0.3,0.8,0.3c1.3,0.1,2.6-0.5,3.2-1.6
	c0.2-0.4,0.4-0.8,0.6-1.2c0.2-0.5,0.4-1,0.6-1.6c0.2-0.5,0.4-1.1,0.2-1.7c-0.2-0.6-0.9-1-1.5-1.3c-0.3-0.1-0.5-0.3-0.8-0.3
	c-0.5,0-0.9,0.4-1.3,0.8c-1.3,1.6-2.1,3.6-2,5.7C94.5,112,94.5,112.3,94.7,112.6z"/>
<path fill="#EAEAEA" stroke="#D6D6D6" stroke-miterlimit="10" d="M173.7,9.2c-0.6,0.4-1.3,0.6-1.7,1.1c-0.3,0.3-0.7,0.7-0.7,1.1
	c-0.3,2.7-2,3.7-1.9,5.9c0,1.2,0.9,1.3,2.1,1.3c1.2-0.1,2.3-0.5,3.5-1c1.9-0.7,4-1.4,6-1.2c1,0.1,1.9,0.3,2.9,0.3
	c3.5-0.2,5.7-4.2,9.1-4.8c0.9-0.2,1.8-0.1,2.6-0.5c0.8-0.4,0.5-1.3,0.8-2.1c0.6-1.7,3.6-0.9,5.3-1.3c0.7-0.2,1.6-0.5,1.7-1.3
	c0.1-0.9-0.9-1.4-1.7-1.7c-1.9-0.6-3.8-1-5.8-1.2c-1.6-0.2-3.3-0.2-4.4,1c-0.4,0.4-0.7,1-1.1,1.4c-1.4,1.5-4,1.2-6,0.5
	s-4.8-0.9-6.8-0.2C175.7,7,175.4,8.2,173.7,9.2z"/>
<path fill="none" stroke="#D6D6D6" stroke-miterlimit="10" d="M371.4,33.9c-10.4-0.2-25.5-6.2-29.4-0.1c-2.3,3.6,6.6,12.4,8,18.6
	c1.2,5.2-2,10.3-5.1,14.8c-3.6,5.2-7.2,10.4-10.8,15.6c-2,2.9-4,5.8-6.5,8.3c-5.1,5-11.9,7.8-18.1,11.3c-4.7,2.7-6.3,8.8-11.7,8.5
	c-6.2-0.3-1.5-9.7-26.7-10c-9.5-0.1-18.6,3.3-27.8,6c-2.8,0.8-5.6,1.6-8.5,1c-4.5-0.9-8.5-5.2-13-4c-2.4,0.6-4.1,2.7-5.9,4.3
	c-1.8,1.7-5.1,4.1-6.7,2.2c-2.4-2.7-2.6-6.8-4.8-9.6c-0.4-0.5-1.3-1.5-1.6-2.1c-1.1-2.2-1.5-2-2-4.4c-1.2-6.4-2.2-12.8-4.3-19.2
	c-0.9-2.9-1.6-6-3.7-8.3c-2.6-2.9-6.8-3.9-10.6-3.7c-3.9,0.2-7.6,1.6-11.2,2.9c-9.7,3.4-20,6.5-30.2,5.2
	c-11.6-1.5-22.2-8.7-33.9-8.9C89.7,61.9,76,76.3,59.4,80.7c-4.9,1.3-9.9,1.7-15,2.1C39.2,83.1,34,83.5,28.7,84
	c-3.4,0.3-6.8,0.5-10,1.8c-2.8,1.1-5.3,3-7.9,4.6c-7.2,4.3-15.9,6-24.3,4.8"/>
<path fill="none" stroke="#D6D6D6" stroke-miterlimit="10" d="M203.1,6.4c2.4-0.6,4.5-1.9,6.2-3.6c0.8-0.8,1.5-1.7,2.3-2.4
	c0.9-0.8,2.1-1.4,3.1-2.1c2-1.4,3.6-3.2,4.6-5.4"/>
<path fill="none" stroke="#D6D6D6" stroke-miterlimit="10" d="M169.1,17c-2-0.3-4.9,0.1-6.9,0.4c-3.5,0.5-7.1,0.3-10.6,0.8
	c-3.5,0.5-7.1,1.7-9.5,4.4c-0.7,0.8-1.2,1.6-1.8,2.5c-1.9,2.9-3.7,5.7-5.6,8.6c-1.3,2-2.5,3.9-3.6,6c-4.2,8-5.4,17.5-10.3,25.1"/>
<path fill="none" stroke="#D6D6D6" stroke-miterlimit="10" d="M326.2,92.3c8.9,0,17.5-1.2,26.3-2.6c1.2-0.2,2.5-0.4,3.6-0.9
	c1.4-0.6,2.6-1.5,3.9-2.1c3.8-1.8,8.3-0.9,12.5,0.1"/>
<path fill="#EAEAEA" stroke="#D6D6D6" stroke-miterlimit="10" d="M88.2,168.3c-0.6,0.2-1.4,0.4-1.7-0.1c-0.1-0.2-0.1-0.4-0.1-0.5
	c-0.2-3.2-3.1-5.6-6.2-6.5c-3.1-0.8-6.4-0.4-9.5-0.3c-2.8,0.1-5.8,0-8.4,1c-2.7,1-5.5,3.5-5.3,6.3c0.1,2.6,2.8,4.7,5.2,5.8
	c1,0.5,2.1,0.8,3.2,1c1.5,0.3,3,0.3,4.5,0.3c8.3,0,17.2-0.3,24.1-4.9c0.5-0.4,1.1-0.8,1.1-1.5c0.1-1.2-1.5-1.7-2.7-1.6
	C90.9,167.4,89.5,167.8,88.2,168.3z"/>
<path fill="#7BBCEB" stroke="#4E9BD7" stroke-miterlimit="10" d="M161.4,204.4c-1.6-1.4-3.2-2.8-4.2-4.6c-0.7-1.2-1.3-2.6-2.5-3
	c-1-0.3-2.1,0.2-3.1,0.6c-1,0.4-2.3,0.4-3-0.4c-0.2-0.3-0.3-0.7-0.5-1.1c-0.6-1.1-1.9-1.5-3.1-2c-1.1-0.5-2.7-1.5-2.3-2.6
	c0.4-1.1,2-1.3,3.2-1.1c1.2,0.2,2.2,0.8,3.3,1.4c0.7,0.4,1.1,1.2,1.8,1.7c1.1,0.8,2.9,0,4.1-0.7c0.5-0.3,0.9-0.8,1.4-1.2
	c1.4-1.1,3.2-1.2,4.9-1.4c5.6-0.4,10.6-0.8,16.1-1.6c2.7-0.4,5.8-1.1,8.3-0.2c2.5,1,5.2,3.2,7.9,3.4c1.3,0.1,2.8,0,3.6,1
	c0.5,0.6,0.5,1.3,0.6,2c0.7,4.5,3.3,8.6,7,11.2c0.7,0.5,1.6,1,1.7,1.9c0.2,1.1-0.7,2-1.5,2.8c-2,1.8-4,3.7-6,5.5
	c-0.9,0.8-1.9,1.7-3,2.2c-1.1,0.5-2.5,0.7-3.6,0.1c-0.7-0.3-1.2-0.9-1.8-1.4c-1.1-0.9-3.4-1.2-4.7-1.7c-5.2-1.9-9.3-4-14.5-5.9
	c-2.2-0.8-4.7-1.1-6.7-2.3C163.4,206.7,162.5,205.4,161.4,204.4z"/>
<g>
	<g>
		<path fill="none" stroke="#585858" stroke-miterlimit="10" d="M136.5,61.9c0.2-0.6,0.4-1.3,0.6-1.9"/>
		<path fill="none" stroke="#585858" stroke-miterlimit="10" stroke-dasharray="4.1261,1.0315" d="M137.3,59c0.5-2.3,0.7-4.7,0.7-7
			c-0.1-2.2-0.4-4.4-0.4-6.5c0.1-5.5,2.2-10.7,4.4-15.7c1-2.3,2-4.7,4.1-6c1.2-0.7,2.5-1.1,3.9-1.4c3.4-0.8,6.8-1.6,10.3-1.6
			c3.9,0,7.8,1,11.8,1.2c4.3,0.2,8.7-0.6,12.7-2.4"/>
		<path fill="none" stroke="#585858" stroke-miterlimit="10" d="M185.2,19.3c0.6-0.3,1.2-0.6,1.8-0.9"/>
	</g>
</g>
<g>
	<g>
		<path fill="none" stroke="#585858" stroke-miterlimit="10" d="M-9.4,141.7c0.6,0.4,1.2,0.5,1.9,0.5"/>
		<path fill="none" stroke="#585858" stroke-miterlimit="10" stroke-dasharray="4.0606,1.0152" d="M-6.4,142.1
			c1.1-0.3,2.1-0.9,2.8-1.8c1.4-1.7,1.9-3.8,2.4-5.9c0.6-2.6,1.2-5.2,1.7-7.8c1.2-5.5,2.4-11,4.7-16.1c2.8-6.2,7-11.8,12.4-16
			c1.8-1.4,3.7-2.7,5.8-3.6c2-0.8,4.1-1.3,6.2-1.8c4.2-0.9,8.5-1.9,12.7-1.1c2,0.4,4,1.2,6,1.4c2,0.3,4.3-0.1,5.7-1.7
			c0.6-0.7,1-1.7,1.4-2.6c2.1-5.3,3.7-11.2,1.9-16.7c-0.8-2.5-0.9-5.1-1.7-7.6"/>
		<path fill="none" stroke="#585858" stroke-miterlimit="10" d="M55.4,60.5c0-0.1-0.1-0.3-0.1-0.4c-0.2-0.5-1-0.2-1.4,0.2"/>
	</g>
</g>
<g>
	<g>
		<path fill="none" stroke="#585858" stroke-miterlimit="10" d="M372.6,43.9c-0.7,0.1-1.3,0.2-1.9,0.5"/>
		<path fill="none" stroke="#585858" stroke-miterlimit="10" stroke-dasharray="3.9883,0.9971" d="M369.8,44.9
			c-0.5,0.3-1.1,0.7-1.8,1.1c-6.2,3.6-4.5,11.1-3,17c0.8,3.1,4,5,4,8c0,11-16,12.7-25,14c-11.1,1.6-22,0.2-34,2
			c-8,1.2-14.9,5.2-22,9c-2,1.1-5,2-8,2c-11,0-20,2.2-31,4c-14,2.3-27.2-2.6-39-8c-2-0.9-4.5-4-4-7c1-6.2,1.2-11.1-1-16
			c-0.9-2-1.8-4.1-3-7c-2.6-6.2-10-9-17-6c-30,12.9-67.2,6.3-91-17c-3-3-7.9-2.9-11,0c-6.8,6.3-13,13-20.9,15.8
			c-3.6,1.3-7.1,2-9.7,4.8c-1,1.1-1.9,2.3-3,3.1c-2,1.4-4.6,1.6-7.1,1.7c-2.4,0.1-4.7,0.2-7.1,0.3c-1.7,0.1-3.4,0.2-4.9,0.8
			c-0.9,0.4-1.7,0.9-2.5,1.4c-3.6,2.4-7.6,5-11.9,4.8c-3-0.2-5.7-1.7-8.7-2c-1.7-0.2-3.4,0.1-5.1,0.4c-5,0.8-9.9,1.6-14.9,2.4"/>
		<path fill="none" stroke="#585858" stroke-miterlimit="10" d="M-13.3,74.7c-0.7,0.1-1.3,0.2-2,0.3"/>
	</g>
</g>
<g>
	<g>
		<path fill="none" stroke="#585858" stroke-miterlimit="10" d="M88.7,38.5c-0.5-0.4-0.7-1.1-0.6-1.8"/>
		<path fill="none" stroke="#585858" stroke-miterlimit="10" stroke-dasharray="3.971,0.9927" d="M88.3,35.7
			c0.1-0.1,0.1-0.2,0.2-0.4c0.7-0.9,1.8-1.4,2.9-1.8c3.5-1.4,7-2.8,10.5-4.3c2.8-1.1,5.6-2.3,7.9-4.2c1.6-1.3,2.9-2.9,4.3-4.3
			c3.7-3.5,8.8-5.5,12.2-9.2c1.9-2.1,3.3-4.7,5.7-6.3c2.4-1.6,5.5-1.9,8.4-2.3c10.2-1.5,20-5.4,28.5-11.2"/>
		<path fill="none" stroke="#585858" stroke-miterlimit="10" d="M169.4-8.6c0.5-0.4,1.1-0.8,1.6-1.2"/>
	</g>
</g>
<text transform="matrix(1 0 0 1 195.8974 20.7808)"><tspan x="0" y="0" fill="#585858" font-family="'Verdana-Italic'" font-size="8">Gravel Pit</tspan><tspan x="0" y="9.6" fill="#585858" font-family="'Verdana-Italic'" font-size="8">Lake</tspan></text>
<text transform="matrix(1 0 0 1 194.7162 175.8988)"><tspan x="0" y="0" fill="#7BBCEB" font-family="'Verdana-Italic'" font-size="8">Swamp</tspan><tspan x="0" y="9.6" fill="#7BBCEB" font-family="'Verdana-Italic'" font-size="8">Lake</tspan></text>
<text transform="matrix(1 0 0 1 24.6381 78.6547)" fill="#585858" font-family="'Verdana-Italic'" font-size="8">Miguel</text>
<text transform="matrix(1 0 0 1 79.7562 83.3791)" fill="#585858" font-family="'Verdana-Italic'" font-size="8">Meadow</text>
<text transform="matrix(1 0 0 1 109.2834 259.7569)" fill="#585858" font-family="'Verdana-Italic'" font-size="8">× 5788</text>
<text transform="matrix(1 0 0 1 294.181 14.9616)" fill="#585858" font-family="'Verdana-Italic'" font-size="8">× 5428</text>
<text transform="matrix(1 0 0 1 244.5747 156.6939)" fill="#585858" font-family="'Verdana-Italic'" font-size="8">× 5357</text>
<path fill="none" d="M109.9,316.6c1.5-4,3.7-7.7,6-11.3c1.9-3.2,3.9-6.4,5.8-9.5c0.9-1.4,1.7-2.9,2.8-4.1"/>
<text transform="matrix(0.5003 -0.8658 0.8658 0.5003 114.6323 312.4283)"><tspan x="0" y="0" fill="#7D7D7D" font-family="'Verdana-Italic'" font-size="7">5</tspan><tspan x="4.4" y="0" fill="#7D7D7D" font-family="'Verdana-Italic'" font-size="7" rotate="1.4">6</tspan><tspan x="8.8" y="0.1" fill="#7D7D7D" font-family="'Verdana-Italic'" font-size="7" rotate="1.4">0</tspan><tspan x="13.3" y="0.2" fill="#7D7D7D" font-family="'Verdana-Italic'" font-size="7" rotate="1.4">0</tspan></text>
<path fill="none" d="M77.4,205.5c20.1,3.4,72.5,2.7,104.4,18.4"/>
<text transform="matrix(0.9956 9.319009e-02 -9.319009e-02 0.9956 112.7915 211.3917)"><tspan x="0" y="0" fill="#7D7D7D" font-family="'Verdana-Italic'" font-size="7">5</tspan><tspan x="4.4" y="0" fill="#7D7D7D" font-family="'Verdana-Italic'" font-size="7" rotate="0.4">2</tspan><tspan x="8.9" y="0" fill="#7D7D7D" font-family="'Verdana-Italic'" font-size="7" rotate="1">0</tspan><tspan x="13.3" y="0.1" fill="#7D7D7D" font-family="'Verdana-Italic'" font-size="7" rotate="1.6">0</tspan></text>
<path fill="none" d="M299.1,344c1,0.9,3.5-0.1,5-0.4c3.7-0.7,7.3-1.5,11-2.2c6.1-1.2,10.3-3.4,14.2-8.3"/>
<text transform="matrix(0.9805 -0.1966 0.1966 0.9805 303.7852 346.2184)"><tspan x="0" y="0" fill="#7D7D7D" font-family="'Verdana-Italic'" font-size="7">5</tspan><tspan x="4.5" y="0" fill="#7D7D7D" font-family="'Verdana-Italic'" font-size="7" rotate="0">2</tspan><tspan x="8.9" y="0" fill="#7D7D7D" font-family="'Verdana-Italic'" font-size="7" rotate="-0.1">0</tspan><tspan x="13.6" y="0" fill="#7D7D7D" font-family="'Verdana-Italic'" font-size="7" rotate="-5.8">0</tspan></text>
<g>
	<g>
		<polyline fill="none" stroke="#7D7D7D" stroke-miterlimit="10" points="85.2,341.6 85.2,348.7 275.4,348.7 275.4,341.7 		"/>
		<line fill="none" stroke="#7D7D7D" stroke-miterlimit="10" x1="180.5" y1="341.4" x2="180.5" y2="348.7"/>
		<line fill="none" stroke="#7D7D7D" stroke-miterlimit="10" x1="161.2" y1="349.2" x2="161.2" y2="343.7"/>
		<line fill="none" stroke="#7D7D7D" stroke-miterlimit="10" x1="142.4" y1="349.2" x2="142.4" y2="343.7"/>
		<line fill="none" stroke="#7D7D7D" stroke-miterlimit="10" x1="123.3" y1="349.2" x2="123.3" y2="343.5"/>
		<line fill="none" stroke="#7D7D7D" stroke-miterlimit="10" x1="104.6" y1="349.2" x2="104.6" y2="343.7"/>
	</g>
	<text transform="matrix(1 0 0 1 83.7834 339.1468)" fill="#7D7D7D" font-family="'Verdana'" font-size="8">0</text>
	<text transform="matrix(1 0 0 1 174.2945 339.1468)" fill="#7D7D7D" font-family="'Verdana'" font-size="8">0.5</text>
	<text transform="matrix(1 0 0 1 258.3414 339.1468)" fill="#7D7D7D" font-family="'Verdana'" font-size="8">1 mi</text>
</g>
</svg>
