<?xml version="1.0" encoding="utf-8"?>
<!-- Generator: Adobe Illustrator 17.1.0, SVG Export Plug-In . SVG Version: 6.00 Build 0)  -->
<!DOCTYPE svg PUBLIC "-//W3C//DTD SVG 1.1//EN" "http://www.w3.org/Graphics/SVG/1.1/DTD/svg11.dtd">
<svg version="1.1" id="Layer_1" xmlns="http://www.w3.org/2000/svg" xmlns:xlink="http://www.w3.org/1999/xlink" x="0px" y="0px"
	 viewBox="0 0 360 360" enable-background="new 0 0 360 360" xml:space="preserve">
<path fill="none" stroke="#E1E1E1" stroke-miterlimit="10" d="M335.8,370.3c0.1-2.5,4-4.7,2.7-6.8c-0.7-1.2-2.8-0.6-3.4-1.8
	c-0.7-1.2-0.7-2.7-0.5-4c0.3-1.5,0.9-2.9,0.7-4.4c-0.3-1.5-2.7-3-3.3-1.6c-0.7,1.9-1.2,3.9-2.5,5.6c-3.6,4.5-6.7,12.7-12.4,12
	c-2.2-0.3-1.4-4.2-0.8-6.4s2-4,3.3-5.8c0.9-1.2,1.8-2.5,3.2-3.1c0.5-0.2,1.2-0.4,1.3-1c0.1-0.3,0-0.6-0.1-0.9
	c-0.5-2.4,0.7-4.9,2.4-6.7c3.4-3.6,8.2-5.4,12.9-7.1c3.3-1.2,7.6-0.8,9.8-3.5c4.3-5.3,9.9-13.7,6.2-19.4c-0.9-1.3-3.3,0.1-4.3-1.1
	c-0.7-0.8-0.7-1.9-0.7-3c-0.1-1.8-0.1-3.7-0.2-5.5c0-0.8-0.1-1.7-0.7-2.2c-0.8-0.7-2.1-0.3-3.2,0.2c-4.3,2.1-8.3,7.3-13,6.3
	c-1-0.2,0.3-2.2-0.5-2.9c-0.7-0.6-1.7,0.4-2,1.2c-0.3,0.9-1,2.5-1.7,1.9c-1-0.7-0.3-2.7-1.2-3.5c-4.3-3.8-10.9,2.9-15.2,6.8
	c-2.2,2-4.4,3.9-6.6,5.9c-0.5,0.4-1.2,0.9-1.7,0.4c-0.2-0.1-0.2-0.4-0.3-0.6c-1-3.3,1.6-6.5,3.8-9.2s4.1-6.6,2.1-9.4
	c-1.3-1.8-4.2-2.8-4.3-5.1c-0.1-1.3,0.9-2.5,1.9-3.4c4.6-4.7,9.4-9.4,14.3-13.8c5.4-4.9,11-9.7,17.3-13.4c2.9-1.7,5.8-3.1,8.8-4.5
	c7.7-3.7,15.5-7.4,23.2-11.1"/>
<path fill="none" stroke="#E1E1E1" stroke-miterlimit="10" d="M369.9,261c-0.2-0.7-1.2-0.6-1.9-0.3c-3.8,1.7-6,5.8-9.5,8.1
	c-3.4,2.2-7.8,2.6-10.7,5.4c-2.8,2.6-5.1,6.7-4.1,10.4c0.7,2.5,3.7,3.6,6.1,4.6c2.8,1.1,6.5,2,7.1,4.9c0.2,1.1-0.1,2.3,0.3,3.3
	c0.7,2.4,3.9,3,6.5,2.6c2.5-0.4,5.2-1.2,7.5,0"/>
<path fill="none" stroke="#E1E1E1" stroke-miterlimit="10" d="M370.1,285.5c-2.3,0.4-4.6,0.9-6.9,1.3c-1.4,0.3-3.4,1-4.2-0.2
	c-0.8-1.2,0.4-2.9,1.1-4.1c2.5-4.5,6.6-7.8,10.9-10.5"/>
<path fill="none" stroke="#E1E1E1" stroke-miterlimit="10" d="M317.1,351.4c0.2-0.9-0.9-2.4-1.6-1.8c-0.8,0.6-1.4,1.9-1.1,2.8
	C314.9,353.5,316.9,352.5,317.1,351.4z"/>
<path fill="none" stroke="#E1E1E1" stroke-miterlimit="10" d="M292.9,371.2c0.6-2.2,1.1-4.8-0.3-6.7c-1.3-1.9-4-2.5-5.1-4.5
	c-0.8-1.5-0.4-3.3-0.1-4.9c1-5.9,0.8-12.1-0.8-17.9c-0.2-0.9-0.7-2-1.6-2.1c-1.1-0.1-1.8,1.2-2.8,1.8c-1.7,1-3.8-0.4-4.9-1.9
	s-2-3.5-3.7-4.3c-2-0.9-3,2.5-5.3,2.6c-2,0.1-2.9-2.3-4.5-3.5c-2.2-1.6,1.4-5,3.2-7c6.8-7.9,8.1-19.3,14.5-27.5
	c2.9-3.7,6.7-6.5,9.8-10c3.4-3.8,5.9-8.3,9.6-11.7c2.6-2.4,5.6-4.1,8.6-5.9c7.4-4.3,14.7-8.5,22.1-12.8c3.4-2,6.9-4,10.5-5.6
	c3.9-1.7,7.9-3.1,11.8-4.7c5.6-2.4,10.9-5.4,15.7-8.9"/>
<path fill="none" stroke="#E1E1E1" stroke-miterlimit="10" d="M282.8,363.8c-0.1,0.2-0.4,0.6-0.4,0.8c0,0.6,1,0.7,1.6,0.5
	c0.9-0.3,2.3-1.6,1.5-2.1c-0.7-0.5-1.9-0.2-2.5,0.5C282.9,363.6,282.8,363.7,282.8,363.8z"/>
<path fill="none" stroke="#E1E1E1" stroke-miterlimit="10" d="M271.2,372.3c0.6-3.5,4.4-8,1.9-10.6c-3-3.2-7.7-3.7-9.6-7.6
	c-0.8-1.6-1.6-3.3-2.9-4.5c-1.3-1.2-3.4-0.2-4.9-1.1c-2.5-1.6-4.3-2.3-5.9-4.8c-3-4.8,0.9-10.8,0.6-16.5c-0.1-2.6,0.2-5.1,0.6-7.6
	c0.9-5.9,2-12.3,6.5-16.3c2.3-2,5.4-3.4,6.5-6.2c0.7-1.7,0.5-3.7,1-5.5c0.5-1.8,1.7-3.3,2.8-4.8c3.6-5,6.4-10.5,8.3-16.4
	c0.6-1.9,1.1-3.9,2.3-5.5c0.9-1.3,2.2-2.3,3.4-3.4c2.4-2.3,7.3-4.8,6-7.9c-0.5-1.1-2.8,0.1-3.4-0.9c-1.4-2.2,2.9-5.8,1.2-7.7
	c-1.6-1.8-16.9,3.5-22.5-0.8c-2.1-1.6-1.3-7.7-3.9-6.9c-3.3,1-4.5,4.9-7.7,6.2c-5.8,2.4-11.7,4.7-17.5,7.1c-3,1.2-6.1,2.5-9,4
	c-6.1,3.2-11.5,7.7-16.8,12.2c-6.6,5.6-13.6,11.7-15.8,20c-0.7,2.7-0.9,5.4-1.9,8c-0.9,2.2-2.3,4.2-3.7,6.1
	c-3.3,4.6-6.7,9.2-10,13.9c-1.3,1.8-2.6,3.6-3.5,5.7c-0.7,1.6-1.2,3.4-2.1,4.9c-1.5,2.6-4.3,4.5-7.3,4.9c-6.3,0.9-13.2,2.8-19.4,4.2
	c-2.8,0.6-5.6,1.3-8,2.8c-4.6,3-9.6,8.7-8,14c0.8,2.6,2.3,5,4.4,6.6c4.8,3.7,12.1,1.3,18,2.4c0.7,0.1,1.4,0.3,2,0
	c1-0.3,1.6-1.4,2.6-1.7c2.3-0.7,5.6,4,6.6,1.9c1.1-2.3,1.7-4.7,4.2-5.1c2.5-0.4,5,0.4,7.5,0.2c1.5-0.1,2.9-0.5,4.4-0.2
	c1.4,0.3,2.8,1.6,2.5,3c-0.3,1.3-1.8,1.9-2.9,2.8c-1.5,1.3-2.2,3.4-1.9,5.4c0.2,2,1.3,3.8,2.5,5.3"/>
<path fill="none" stroke="#E1E1E1" stroke-miterlimit="10" d="M192.5,370.5c-1.5-6-2.5-12.2-2.8-18.5c-0.1-1.4-0.2-3-1.3-3.9
	c-0.8-0.6-1.9-0.7-2.8-1.2s-1.9-1.9-1-2.4c2.5-1.5,4.8-3.5,4.9-6.5c0.1-2.9-3.5-5.7-2.3-8.4c1.5-3.1,5.4-4.2,6.7-7.4
	c1.3-3.2,2.1-6.7,4.3-9.4c3.5-4.5,9.9-6.1,12.9-10.9c1.5-2.4,1.9-5.3,3-7.9c1.1-2.6,3.5-5,6.3-4.8c0.9,0.1,1.8,0.5,2.8,0.6
	c3.6,0.3,7.3-6.2,10.1-3.8c0.9,0.8-0.4,3.1,0.7,3.6c1.4,0.6,3,0.5,3.3,1.9c0.3,1.4-0.3,2.9-0.8,4.3c-1.8,4.6-3.1,9.3-4.5,14.1
	c-1,3.6-2,7.3-1.7,11c0.3,3.3,1.6,6.4,2.8,9.5c1.3,3.4,2.4,6.8,3.5,10.2c1.4,4.3,2.8,8.6,3.2,13.1c0.2,1.7,0.2,3.4,1.2,4.7
	c1,1.3,2.9,1.9,3.9,3.3c0.5,0.8,0.8,1.7,1,2.7c0.7,3,1.3,6.1,2,9.1"/>
<path fill="none" stroke="#E1E1E1" stroke-miterlimit="10" d="M203.3,371.8c-0.3-4.9,0.5-10,2.5-14.5c0.6-1.5,1.4-2.9,2.1-4.3
	c0.9-1.8,1.9-3.6,2.8-5.4c0.7-1.3,1.4-2.6,2.6-3.5c1.2-0.8,3-1,4,0.1c0.6,0.7,0.8,1.6,1.3,2.3c0.8,1.1,2.3,1.5,3.4,2.5
	c2,1.8,1.7,5,3,7.3c0.6,1,1.4,1.8,2.2,2.6c1.1,1.3,2,2.7,2.9,4.1c1.9,3.2,3.9,7.1,2.5,10.5"/>
<path fill="none" stroke="#E1E1E1" stroke-miterlimit="10" d="M104,371.5c0.7-3.6,4.6-5.2,6.4-8.4c4.9-8.7,1.2-20.4,6.9-28.6
	c5.8-8.2,15.5-13.8,25.5-13.4c1.1,0,2.4,0.1,3.3-0.6c0.8-0.7,1-1.9,1.4-2.9c2.1-4.5,6.2-6.9,10-10.1c1.1-0.9,2.8,1.4,4.1,1
	c2-0.6,1.2-4.8,3.2-5.2c1.4-0.3,2.6-0.2,3.5-1.2c2.4-3,4.9-5.9,7.3-8.9c1.3-1.6,2.7-3.5,2.2-5.5c-0.3-1.3-1.4-2.3-2.2-3.5
	c-2.9-4.7,0.5-10.6,3.8-15c4.8-6.4,9.6-12.8,14.7-19c11.8-14.1,25.4-26.7,40.3-37.3c1.2-0.9,2.5-1.8,3.4-2.9
	c0.9-1.1,1.5-2.4,2.3-3.5c1.3-1.7,3.2-3,5.1-4.1c10.1-6.2,30.9-16.5,33-15c1.8,1.3-3.3,4.5-1.9,6.3c1.6,2,6.3-1.3,7.6,0.9
	c1.8,3.1,2.5,6.3,5.7,7.8c2.2,1.1,5.1-2.7,6.8-0.9c0.7,0.8,0.9,1.8,1.9,1.4c1-0.4,1.7-1.4,2.7-1.7c1.8-0.5,3.4,1.3,5.2,1.5
	c0.8,0.1,1.6-0.1,2.3,0.1c1.8,0.5,2.4,2.8,4.1,3.5c2,0.8,4-1,5.8-2.2c1.9-1.2,4.2-1.7,6.5-1.9c3.2-0.2,6.5,0.1,9.7-0.2
	s6.6-1.5,8.5-4.1c0.3-0.4,0.6-0.9,1.1-1.2c0.5-0.3,1.1-0.2,1.6-0.2c4.2,0,8.4-2.2,10.9-5.6c0.7-0.9,1.3-2,2.2-2.7c0.9-0.7,2-1,3-1.2
	c3-0.8,6.1-1.6,9.1-2.3"/>
<path fill="none" stroke="#E1E1E1" stroke-miterlimit="10" d="M81.2,371.1c-0.1,0.5,0.7,0.7,1.1,0.4s0.4-0.9,0.4-1.4
	c0.5-5.4,5.3-9.3,9.6-12.7c1.8-1.5,3.8-3.5,3.3-5.8c-0.2-0.8-0.7-1.6-0.4-2.3c0.2-0.4,0.5-0.7,0.9-1c2.2-1.8,3.7-4,4-6.8
	c0.3-2.9-0.9-4.8-1.3-7.7c-0.9-6.1,7.8-9.4,11.8-14.1c1.7-2.1,4.5-1.6,6.9-2.9c2.6-1.4-2-8.5,0.9-8.9c2.1-0.3,3.7,1.4,5.5,0.3
	c1.8-1.1,4.1-0.6,5.7-1.9c3.7-2.9,3-8.4,5.2-12.6c1-1.9-2.6-1.6-4.3-2.9c-0.8-0.7,0.8-2.4,0.1-3.2c-1-1-3.2,0.1-3.9-1.1
	c-1.8-2.9-3.3-6.1-6.7-5.8c-3.4,0.3-5.8,6-8.9,4.6c-2.8-1.2-4.9-4.3-4.9-7.3c0-1.1,1-1.9,0.8-2.9c-0.4-1.4-2.2-1.7-3.6-1.5
	c-1.4,0.2-3.3,0.5-4-0.8c-0.5-0.9-0.3-2.2-1.2-2.7c-0.5-0.3-1.2-0.2-1.8-0.1c-4.4,1.1-11.7-1.1-13.1,3.2c-0.7,2.1,2.2,3.8,2.4,6
	c0,0.6,0,1.2-0.3,1.7c-0.3,0.4-0.7,0.7-1.1,0.9c-3.5,1.9-7.4,3.1-11.4,3.3c-3.3,0.2-6.6-0.3-9.9-0.7c-2-0.3-4-0.5-6-0.8
	c-3.2-0.4-6.6-0.9-9.4-2.6c-0.7-0.4-1.4-1-1.7-1.7c-0.2-0.6-0.3-1.2-0.5-1.8c-1.1-2.7-5.9-1.8-7.3-4.4c-0.4-0.7-0.4-1.5-1-2.1
	c-1.1-1.3-3.2-0.4-4.5,0.6c-1.7,1.2-3.4,2.3-4.6,4c-1.2,1.6-1.9,3.9-1.1,5.8c0.4,1.1,1.3,2.1,1.2,3.3c-0.2,1.7-2.3,2.5-3.1,4.1
	c-0.3,0.7-0.4,1.5-0.4,2.2c-0.1,2.5-0.2,4.9-0.3,7.4c0,1.2-0.1,2.4,0.5,3.5c0.6,1,2,0.4,3,1.1c4,2.7-6.3,9.8-3.8,13.9
	c0.6,1,3.2-0.6,3.5,0.6c0.6,2.4-4.4,4.8-2.7,6.6c0.5,0.5,1.5-0.2,1.9,0.2c3.5,4-4,12.2-0.3,16c0.5,0.5,1.6-0.4,2.3,0
	c2.4,1.6-0.1,5.6-0.4,8.5c-0.2,2.9,1.5,6.5,4.3,6.1c2.9-0.4,3.6-4.4,5.9-6.2c1.6-1.3,3.8-1.3,5.6-2.2c1.8-0.9,3.9-2.7,5.5-1.5
	c0.5,0.4,0.7,0.9,1.1,1.4c1.5,2.2,4.7,2.9,7.1,1.7c0.7-0.4,1.5-1,2.3-0.9c0.6,0.1,1.1,0.4,1.7,0.6c1.4,0.5,2.2-1.8,3.7-1.7
	c1.2,0.1-0.2,3,0.9,3.6c1.2,0.6,3.5,0.6,3.2,1.9c-0.6,2.2-4.5,3-3.5,5.1c0.9,1.7,4-0.5,5.1,1c1,1.4-3.3,3.8-1.8,4.8
	c1.6,1.1,3.7,0.2,5.5,1.1c0.6,0.3,1.6-0.3,1.9,0.3c1.5,3-2.9,6-3.9,9.2"/>
<path fill="none" stroke="#E1E1E1" stroke-miterlimit="10" d="M43.8,369.4c0.4-0.9,1.5-2.1,2.3-1.6c1.5,0.9,0.9,3.4,0.7,5.2"/>
<path fill="none" stroke="#E1E1E1" stroke-miterlimit="10" d="M61.5,324c1.5-1,3.7-1.9,4.9-0.6c0.6,0.6,0.8,1.6,0.8,2.5
	c0.1,3.1-4.1,7.3-1.6,9.2c2.3,1.8,4.8-3.3,7.1-5c0.6-0.4,1.2-0.9,1.6-1.5c0.5-0.8,0.5-1.9,0.5-2.8c0-5.4,0.2-10.9,1.6-16.2
	c0.6-2.5,1.5-5.3,0-7.3c-0.3-0.4-0.7-0.8-1.2-0.8c-0.6-0.1-1.2,0.3-1.7,0.6c-2.2,1.2-6.1,1.6-7-0.7c-0.7-1.8-2-3-3.9-3.6
	c-5.1-1.4-10.1-2.9-15.2-4.3c-1.2-0.4-2.5-0.7-3.4-1.6s-0.3-2.2-0.5-3.5c-0.1-0.5-1.1-0.3-1.2-0.8c-0.3-1.4,0-3-1.2-3.7
	c-1.2-0.7-2.8-0.8-4.2-0.8c-0.6,0-1.2,0-1.7,0.4c-1,0.7-0.7,2.2-0.5,3.5c0.5,3-2.3,5.8-1.6,8.7c0.2,0.8,1.7-0.1,2.5,0.3
	c4.7,2.4,0.8,10.5-0.1,15.7c-0.7,4.2-1.4,8.3-2.1,12.5c-0.2,1-0.4,2.1-0.1,3.2c0.3,1,1.1,2,2.2,2c0.7,0,1.4-0.3,2-0.5
	c2.5-0.7,3.5,3.2,6.1,3.6c1,0.1,1.8-1.1,2.8-0.8c1,0.3,2,0.8,3,0.8c2.1-0.1,3.4-2.3,5-3.7c0.6-0.5,1.3-1,2-1.4
	C58,326.2,59.7,325.1,61.5,324z"/>
<path fill="none" stroke="#E1E1E1" stroke-miterlimit="10" d="M168.9,240.3c1.2,0.8,1.6,2.4,3,2.2c1.4-0.2,2.5-1.2,3.4-2.2
	c0.9-1.1,1.7-2.3,2.8-3.1c0.6-0.4,1.3-0.8,1.8-1.2c2.4-2,2.2-5.8,4.3-8c1.3-1.4,3.3-1.9,4.9-3c2.8-1.9,4.3-5.3,7.1-7.2
	c1.6-1.1,3.6-1.6,5.2-2.7c2.1-1.4,5.3-4.3,3.8-6.4c-3.7-5.3-12.5,1.9-17.8,5.4c-0.9,0.6-1.8,1.2-2.6,1.9c-0.8,0.7-1.4,1.6-2.1,2.4
	c-1,1.2-2.1,2.3-3.1,3.5c-2.2,2.3-4.5,4.7-6.7,7c-1.6,1.7-3.3,3.4-5.5,4.1c-1.8,0.6-3.8,0.4-5.6,0.9c-1.8,0.6-4.6,3.4-2.9,4.2
	c1.1,0.5,1.8,1.2,2.6,2.1C163.4,242.2,166.8,238.9,168.9,240.3z"/>
<path fill="none" stroke="#E1E1E1" stroke-miterlimit="10" d="M16.9,372.2c-0.3-4.5,4.5-7.7,5.5-12.1c1.5-6.4-5.3-12.5-4.1-18.9
	c0.3-1.7,1.2-3.3,1.4-5c0.6-4.6-3.7-8.3-5.3-12.7c-1-2.7-1-5.6-1-8.5c0.1-6.5,0.1-13.1,0.2-19.6c0-5.3,0.1-10.7,0.3-16
	c0.2-4.9,0.5-9.8,0.9-14.6c0.1-1.3,0.3-2.7,0.9-3.9c1.8-3.5,6.5-4,10.4-3.6c5.2,0.6,10,5.8,15,4.2c1.2-0.4,0.6-2.9,1.7-3.2
	c2.7-0.8,5.7,0,8.2,1.2c1.1,0.6,0.5,2.9,1.6,3.3c2.2,0.9,4.4,2,6.8,1.6c1.4-0.2,2.4-1.5,3.7-2.2c2.3-1.2,5-0.2,7.6,0
	s3.3-2.5,5.5-3.9c6.4-4.1,14.3-0.9,21.6-3.2c3.6-1.1,3.9-6.5,7-8.7c3.1-2.2,7.1,0.9,10.5-0.7c3-1.4,0.6-9.5,3.8-8.9
	c2,0.4,2.5,5.7,4.1,4.4c4.1-3,8.3-7.5,7.7-12.6c-0.2-1.4,0.1-4.2,1.1-3.2c1.5,1.4,3.8,3.4,3.9,5.4c0.1,2.4-3.8,3.9-2.7,6
	c0.7,1.3,2.8-2.3,4-1.5c0.9,0.6,0.4,3.9,1.3,4.3c2.4,1.3,5.2-5.5,6.9-8.6c0.6-1.2,0.7-2.6,1.6-3.5c0.8-0.9,2-1.2,3.1-1.8
	c5.9-3.1,12.2-15.4,14.8-13c1.8,1.7-2.1,7.3,0.3,7.3c1.6,0,0.6-3,1.7-4.2c1.7-2,4-3.2,6.3-4.4c4.4-2.3,8.8-4.6,13.2-6.9
	c1.9-1,3.8-2,5.7-2.8c2.7-1.2,5.6-2,8.6-2.6c1.9-0.3,3.9-0.6,5.4-1.8c1.3-1,2-2.5,2.9-3.9c1.7-2.7,4.2-4.8,7-6.2
	c2.5-1.2,5.7-2.2,6.2-4.9c0.1-0.8,0-1.7,0.4-2.5c1-1.7,3.6-0.8,5.4-1.5c1.7-0.6,2.7-2.6,4.5-2.6c0.8,0,1.5,0.5,2.3,0.5
	c1.5,0,2.3-1.6,3-2.9s2.1-1,3.5-1.5c2.1-0.6,2.7-3.3,4.4-4.5c4.3-3.1,7-7.8,9.6-12.4c1.9-3.2,2.1-8.3,5.6-9.7c2.6-1.1,5.3-1.5,7.7-3
	c3.1-1.9,6.8-2.8,10.2-4c4.1-1.5,10.7-2.1,11.5-6.4c0.4-2.2,0.2-4.4-0.6-6.5c-1.3-3.4-4.8-5.8-4-9.4c0.2-0.9,0.6-1.9,0.5-2.8
	c-0.3-1.8-2.1-2.7-3.6-3.7c-1.5-1-1.1-2.8-1.8-4.4c-1.8-4.6-9.7-1.8-14.6-2.7c-1.7-0.3-3.1-1.9-4.8-1.7c-3.5,0.4-5,5-8.3,6.4
	c-0.8,0.3-1.9,0.6-2.6,0.1c-0.5-0.4-0.7-1.1-1-1.7c-1.3-2.6-4.3,0.7-7-0.3c-1.6-0.6-1.9-3.2-3.5-2.4c-0.5,0.3-0.9,0.7-1.3,1
	c-2.1,1.7-4.8-1.3-7.3-0.4c-3.4,1.3-3.3,6.3-6.2,8.4c-3,2.3-6,4.6-9.1,6.9c-5,3.8-10.5,7.7-16.8,7.3c-2.2-0.1-4.3-0.8-6.4-0.9
	c-2.2-0.1-4.6,0.6-5.7,2.4c-0.6,0.9-0.7,2-1.3,3c-0.5,0.9-1.7,1.7-2.7,1.2c-0.7-0.4-1-1.2-1.3-1.9c-0.5-1.1-1.2-2.1-2.2-2.7
	s-2,0.3-3.2,0.7c-2.7,0.9-1.8-5.4-4.1-7.1c-0.7-0.6-1.7-0.8-2.4-1.3c-1.1-1-1.2-2.7-1.2-4.1c0-2.3,0.7-4.8-0.1-7
	c-2.7-7.6-3.9-15-5.4-23c-1.3-7-8-11.5-10.4-18.2c-0.8-2,3.1-1.3,5-2.3c3.1-1.6,4.5-5.2,8-5.5c8-0.8,15.5,2.6,23.5,3.6
	c8.9,1.1,17.7-2.2,26.7-2.4c1.2,0,2.4,0,3.5,0.5c1.1,0.5,1.8,1.5,2.6,2.4c2.5,2.9,5.8,8.3,9.2,6.6c1.5-0.8,0.9-3.4,2.2-4.4
	c1.3-1.1,2.6,0.6,4.3,0.6c1.6,0,1.4-3.1,2.8-3.8c1.4-0.7,2.7,0.4,3.5,1.8c0.6,1.2,2.6-0.5,3.1-1.7c0.5-1.2,0.5-2.6,1.1-3.8
	c0.9-1.9,2.8-3,4.6-3.9c4-2.1,8.1-4.1,12-6.3c1-0.6,2.1-1,2.9-1.8c2.2-2.4,6.9-6.3,8.4-3.4c1.7,3.4-2,11.8,1.7,10.8
	c2.9-0.8,3.6-1,6.6-1c5.3,0,7.2-8.4,12.5-8.6c1.3-0.1,2.5,0.1,3.8,0c1.7-0.1,3.4-0.7,5-1.3c7.9-3.1,14.7-8.7,19.2-15.8
	c3.9-6.1,6.1-13.1,8.2-20c2.6-8.3,5.1-16.7,5.9-25.3"/>
<path fill="none" stroke="#E1E1E1" stroke-miterlimit="10" d="M358.3-11.4c-5.2,7.1-4.5,16.7-6,25.4c-2,11.6-8.2,21.9-14.4,31.9
	c-3,5-6,9.9-9.1,14.9c-4.3,7-18.1,13.5-13.8,20.5c0.7,1.1,2.3,0.9,2.6,2.2c0.2,1.2-0.1,2.5,0,3.7c0.1,4,3.3,7,5.7,10.3
	c3,4.3,4.6,9.6,4.3,14.9c-0.1,2.2-0.5,4.4,0.1,6.5c0.9,2.9,3.7,4.9,4.9,7.7c1.8,4.5-1,9.3-3.6,13.3c-2.8,4.1-5.5,8.3-8.3,12.4
	c-0.7,1.1-1.5,2.2-1.9,3.5c-1,3.1-0.2,6.4,0.5,9.6c3.6,15-3.8,14.7-1.2,21.5c1,2.5,5.3,0.1,7.5-1.6s4.2-3.7,6.9-4.1
	c0.9-0.1,1.9,0,2.8-0.3c3.7-1.2,3.4-7.3,7-8.8c0.8-0.3,1.7-0.4,2.5-0.7c1.4-0.6,2.2-2.1,2.9-3.5c6.8-12.9,16.7-24.1,28.6-32.5"/>
<path fill="none" stroke="#E1E1E1" stroke-miterlimit="10" d="M371,92.6c0.2-0.7-1.1-0.6-1.6-0.1c-3,3.2-2.8,8.1-3.8,12.5
	c-0.6,2.9-1.8,5.6-2.8,8.3c-2.2,6.3-3.3,12.9-5.5,19.2s-5.9,19.7-11.3,15.9c-2.4-1.6-3.4-4.4-4.8-6.9c-0.9-1.6-0.7-3.6-0.4-5.5
	c0.8-6.3,5.6-13.4,2.4-18.9c-1.2-2.1-2.8-3.8-2.5-6.2c0.3-2.4,1.1-4.8,0.6-7.1c-0.5-2.4-2.3-4.6-1.9-7c0.2-1.3,1-2.3,1.3-3.6
	c0.6-2.6-1.3-5.2-1.3-7.9c0-1.3,0.4-2.6,0.8-3.8c5.1-15.2,10.2-30.4,17.2-44.9c0.7-1.5,1.5-3.1,2-4.7c0.6-1.8,0.8-3.7,1-5.6
	c1.8-14.5,4.6-28.8,8.4-42.9"/>
<path fill="none" stroke="#E1E1E1" stroke-miterlimit="10" d="M368.9,30.6c-2.7,5.4-4.2,11.5-4.4,17.5c0,1,0,2-0.5,2.9
	c-0.4,0.7-1.1,1.2-1.4,1.9c-0.7,1.4-0.2,3.1,0,4.6c0.5,4.9-2.6,9.3-3.9,14c-0.3,1.3-0.5,2.7-1.2,3.8c-0.8,1.4-2.3,2.4-3.4,3.6
	c-1.1,1.2-1.7,2.6-2.6,4c-2.5,4.2-7.7,7.8-7.3,26.4c0,2,2.3,1.2,2.9,1.6c2.7,1.7,5-1.3,6.2-4.3c1.2-2.9,1.1-6.3,1.7-9.4
	c1.1-5.8,4.4-10.9,6.2-16.5c1.6-5,2-10.3,3.2-15.4c1.2-5.1,3.6-10.3,8-13.2"/>
<path fill="none" stroke="#E1E1E1" stroke-miterlimit="10" d="M349.4,117.1c0.5,0.6,1.5,0.2,2.1-0.3c0.3-0.3,0.7-0.5,1-0.8
	c0.4-0.4,0.9-0.9,0.6-1.4c-0.1-0.2-0.3-0.3-0.5-0.4c-1.4-0.5-3.2,0.6-3.3,2.1C349.2,116.6,349.2,116.9,349.4,117.1z"/>
<path fill="none" stroke="#E1E1E1" stroke-miterlimit="10" d="M-11.8,279.2c1.2-1.3,4.1-3.3,4.8-1.7c1.7,3.8-1.2,8.1,0,12
	c0.4,1.2,0.8,2.5,1.8,3.3c0.6,0.5,1.4,0.7,1.8,1.4c0.3,0.5,0.3,1.1,0.4,1.7c0.2,1.8,0.8,3.5,1.8,5c0.3,0.5,0.7,0.9,0.8,1.5
	c0.1,0.5-0.1,0.9-0.2,1.4c-1,4.2,0.3,8.7,1.9,12.7c1.6,4.2,3.5,8.2,5.6,12.1c0.7,1.2,1.3,2.4,1.8,3.7c1,2.7,1.2,5.6,1.1,8.5
	c-0.1,9.4-1.8,18.8-5,27.6c-0.9,2.4-2,4.9-4.1,6.4"/>
<path fill="none" stroke="#E1E1E1" stroke-miterlimit="10" d="M-12.4,209.5c1.2-0.3,2.4,0.3,3.6,0.4c1.5,0.1,3-0.7,4.5-0.6
	c1.9,0.1,3.5,1.8,3.6,3.7c0.1,1.5-0.7,2.9-1.7,4c-0.6,0.7-1.2,1.3-1.9,1.9c-1.4,1.1-3,1.8-4.6,2.5c-1.9,0.9-3.9,2.1-4.8,4"/>
<path fill="none" stroke="#E1E1E1" stroke-miterlimit="10" d="M-12.1,201.4c3.4,2.4,8.3,4.7,11.3,1.9c2.8-2.6,2.5-11.5,5.6-9.4
	c2.4,1.5-1.7,7.2,0.9,8.6c0.9,0.5,1.7-1.6,2.7-1.5c4,0.2,8,0.4,11.8,1.7c3.8,1.3,5.9,5.2,7,9c0.8,3,1.3,6.1,0.4,9.1s-3.2,5.6-6.3,6
	c-3.1,0.4-7.5-0.7-8.5,2.3c-0.2,0.7-0.1,1.5-0.4,2.2c-1.1,2.5-5.1,0.4-7.8,1.1c-1,0.3-1.9,1-2.7,1.7c-5,4.4-10,8.8-15,13.2
	c6.4,0.5,13.1,2.9,19,0.4c2.7-1.2,5-3.3,7.7-4.6s5.3,1.8,8.2,1c1.8-0.5,2.5-2.9,4.4-2.6c1.9,0.3,3.5,1.4,5.3,2.1
	c2.4,1.1,5.1,1.5,7.7,1.9c6,1,12,1.9,18,2.9c3.9,0.6,7.9,1.3,11.8,0.6c9.5-1.6,24.7-2.1,26.1-11.6c0.2-1.4-2.6-2.3-1.8-3.4
	c4.4-6,13.4-6.7,20-10.1c5.1-2.6,10.9-6.2,11.1-11.9c0.1-2.7-0.9-6.1,1.4-7.5c0.8-0.5,1.8-0.5,2.7-0.8c2.8-0.7,6.7-4.9,4.3-6.5
	c-1.4-0.9-3.2,0.8-4.8,0.5c-1.6-0.3-3.4-3.8-2.6-5.2c0.6-1.2,3.5,1.3,3.7,0c0.5-4.3-12.5-15.8-13.5-15.7c-2.5,0.4,4.2,7,1.7,7.3
	c-0.3,0-11.6-3.7-17.1-4.9c-1.5-0.3-2.9-0.9-4.4-0.9c-1.6,0-3.1,0.4-4.6,0.9c-6.4,2.1-12.6,5.3-16.6,10.7c-1.7,2.4-3,5.1-4.8,7.4
	c-1.8,2.3-4.5,4.3-7.4,4.2c-3.5-0.1-6.3-3.1-7.6-6.3c-2.2-5.6-1-12,1.5-17.6c2.4-5.5,5.9-10.5,8.3-16c3.1-6.9,4.6-14.8,9.9-20.2
	c2.3-2.4,5.2-4.1,8.2-5.5c7.5-3.5,16-4.9,24.2-4c1.8,0.2,3.7,0.5,5.4-0.1c1.6-0.6,2.8-1.9,4.3-2.7c1.8-1,4-1.1,6-1.5
	c5.2-1,9.9-3.9,13.3-7.9c1.8-2.2,3.3-5.1,2.9-8c-0.8-5.3-7.3-8.1-8.7-13.3c-0.7-2.8,0.1-6-1.5-8.3c-5-7.3-14-7.8-22.2-11.2
	c-3.5-1.5-4.3-6.4-7.2-8.9c-1.7-1.5-4.1,1.5-6.3,0.9c-1.7-0.5,0.4-4.3-1.2-5.1c-1.6-0.9-3.4-1.3-5.2-0.8
	C78.4,67.2,76.1,84,67.9,81.4C62.1,79.5,62.7,70,64.3,64c1.5-5.9,5.9-15.6,11.6-13.4c1.7,0.7-0.5,4,0.7,5.4c1.3,1.5,4.6,1.2,5.9-0.3
	c1.7-1.8,2.1-4.9,4.6-5.2s3.1,3.9,5.7,4c8.2,0.3,12.1-10.8,20.3-10.6c8.3,0.2,16.5,2.4,23.9,6.3c1.8,1,3.6,2,5.6,2.5
	c2.8,0.7,5.6,0.1,8.5-0.3c16.3-1.9,32.9,4.5,49.1,1.6c7.7-1.4,16.6-4.7,22.6,0.4c1.6,1.3,3.3,3.2,5.2,2.5c0.9-0.4,1.5-1.3,2-2.1
	c0.9-1.6,1.9-3.2,2.8-4.8c1.1-1.9,2.4-3.9,4.3-5c1.9-1.1,3.7,1,6,1c5,0.2,7.3-6.7,11.7-9.1C264,31.8,272,23,282.4,21.7
	c7.2-0.9,15.2-1.9,18.3-8.5c1.3-2.7,1.8-5.8,3.1-8.5c1.2-2.5,3.1-4.7,4.7-7c2.4-3.7,4.1-8,4.6-12.4"/>
<path fill="none" stroke="#E1E1E1" stroke-miterlimit="10" d="M121.6,69.7c2.3-0.6,4.5-1.6,6.5-3c0.5-0.3,1-0.7,1.6-0.5
	c0.7,0.2,1,1,1,1.7c0,0.7-0.6,1.8,0.1,2.1c1.3,0.7,3.2,0.4,3.8,1.8c0.3,0.7,0.9,2.3,1.3,1.7c1.2-1.5,2.4-3.2,2.2-5.1
	c-0.1-0.9-0.9-1.5-1.4-2.1c-1.8-2-2.2-4.9-3-7.4c-0.3-1-0.8-2.1-1.7-2.5c-0.6-0.3-1.2-0.3-1.9-0.4c-2.3-0.3-3.3-2.9-5.4-3.8
	c-1.5-0.7-3.1,0.8-4.7,1.2c-2.2,0.6-4.7,1.4-5.7,3.4c-0.5,1.1-0.5,2.4-0.4,3.6c0.1,2.5-1.4,5.9,0.4,7.6c0.3,0.3,1,0.3,1.3,0
	c0.8-0.7,1.5-3.1,2.1-2.1c1,1.5,0.3,3.8,2,4.1C120.3,70,121,69.9,121.6,69.7z"/>
<path fill="none" stroke="#E1E1E1" stroke-miterlimit="10" d="M-13.4,175.8c5.5-0.3,8.8-6.2,14.3-6.4c3.8-0.1,3.3,2.1,3.2,7.4
	c0,1.8,1.5,1.5,2.3,5.6c0.5,2.6,3.4,2.9,5.6,4.6c4.6,3.6,12.2,2.1,18,4c2.1,0.7,3.6,0.3,6,0.2c1.6,0,0.5-3.7,0.6-5.7
	c0.4-6.8,5.4-10.1,8.6-18.4c0.8-2,1.4,3.4,4.8-2c2.4-3.8,4.1-13.2,4.9-19.1c0.3-2.2,1.8-4.1,3-7c1.7-4.1,4-7.9,8-9
	c13.1-3.7,28.4-3.9,36-15c2.5-3.7,6.5-5.9,6-10c-0.4-3,1.5-4.9,2-8c0.2-1-2-2-3-2c-7,0-14-10.5-16.3-12c-2.4-1.5-3.7-0.1-4.7,0
	c-9.2,1-15.6,10.1-25,6c-2.9-1.3-7.3,3.7-9.6,2.1c-3.4-2.4,4.5-12.8,2.5-18.9c-0.9-2.9-2.7-6-0.7-8.3c0.6-0.7,1.4-1.3,1.9-2.1
	c0.5-0.9,0.5-2.1,0.7-3.1c0.9-4,5.4-5.9,8.2-8.9c2.2-2.4,3.5-5.5,5.4-8.1c2-2.6,6.6-6.3,8.4-3.6c1,1.5,1.6,3.4,3.4,3.8
	c1.8,0.4,3.7,0,5.5-0.5c4.6-1.1,9.2-2.2,13.7-3.4c3.5-0.9,6.9-1.7,10.5-2.3c7.5-1.2,15.2-0.9,22.7,0.7c4.8,1,9.4,2.6,14.1,3.9
	c20.6,5.7,42.7,6,63.4,0.8c2-0.5,4.1-1.1,5.5-2.6c1.2-1.3,1.7-3,2.8-4.3c1.2-1.3,3.6-1.8,4.4-0.3c0.6,1,0.2,2.3,0.8,3.2
	c0.7,1,2.2,1.1,3.3,0.5c1-0.6,1.7-1.8,2.2-2.9c1.5-3,2.5-6.3,4.3-9.1s6.9-2.7,7.8-5.9c0.5-1.8,0.5-3.5,2.4-3.9
	c1.8-0.5,5.8-1.5,4.4-2.8c-4.8-4.9-9.6,0.8-10.9,1.2c-1.5,0.4,1-3.4,0.1-4.7c-1.5-2.1-5.9-0.2-6.9-2.6c-0.8-1.9,0.2-4.1,0.3-6.1
	s-2.3-4.5-3.8-3c-0.8,0.8-0.6,2.3-1.5,3.1c-0.6,0.5-1.4,0.5-2.1,0.4c-6.6-0.3-13.2-0.5-19.8-0.8c-11.4-0.4-22.9-0.9-33.7-4.2
	c-6.1-1.8-12.3-4.9-15.4-10.5"/>
<path fill="none" stroke="#E1E1E1" stroke-miterlimit="10" d="M-14.1,163.1c6.7-3,13.6-5.5,20.7-7.4c1.5-0.4,3-0.8,4.5-0.5
	c3.1,0.6,5,3.7,7,6.1c2,2.5,8.1,5.5,8.9,2.4c1.1-3.9,2.1-3.5,5.3-6c2.9-2.2,3.8-5.7,5.9-8.7c1.7-2.5,1.8-5.8,2.3-8.9
	c1.3-7.3,6-13.6,10.3-19.7c1.7-2.4,1.5-4.9,0.2-7.5c-1.9-3.6-0.6-8.5-3.9-10.9c-0.9-0.7-2-1.3-2.5-2.3c-0.3-0.7-0.3-1.4-0.3-2.2
	c-0.1-10.9-0.2-21.9-0.4-32.8c0-1.4,0-2.8,0.6-4.1c0.9-1.7,2.7-2.6,4.3-3.8c8.6-6.2,9-19.7,17.5-26c4.8-3.5,11.1-4,17-4.3
	c0.9,0,1.8-0.1,2.6,0.1c1,0.2,2,0.7,3,1c2.3,0.6,4.8,0,7.1-0.6c4.3-1.1,8.6-2.3,12.9-3.4c4.6-1.2,9.9-1.8,13-5.3
	c11.4-12.9,12.7-6.3,14.3-7.9c2.3-2.2-5.8-8.4-5.7-20.4"/>
<path fill="none" stroke="#E1E1E1" stroke-miterlimit="10" d="M109-12.6c-1.7,1.5-2.8,3.4-3.4,5.6c-0.3,1.2-0.4,2.5-1.2,3.5
	c-1.2,1.6-3.9,2-4.2,4c-0.3,1.5,2,4.1,0.5,4.6c-2.3,0.8-3.3,1.6-5.5,2.8C87.5,12,80-1.1,72.9-6.3c-1.1-0.8-2.6-1.7-3.9-1
	c-0.7,0.4-1.1,1.3-1.5,2c-0.5,0.7-1.4,1.4-2.1,1c-0.4-0.2-0.6-0.6-0.8-0.9c-1-1.8-2.1-3.6-3.1-5.4"/>
<path fill="none" stroke="#E1E1E1" stroke-miterlimit="10" d="M-11.9,10.8c1.8-2.1,3.8-4.2,5.8-6.1C-5.6,4.1-5,3.6-4.2,3.3
	C-3.5,3-2.6,3-1.8,2.8C-0.6,2.6,0.5,2,1.6,1.5c9.3-4.4,20-5.9,28.4-11.8c1.2-0.9,2.5-2,2.8-3.4"/>
<path fill="none" stroke="#E1E1E1" stroke-miterlimit="10" d="M-12.9,65c1.1,0.7,2.7,0.6,3.7-0.3c1-0.9,0.2-2.4,0.6-3.7
	c0.7-2.2,3-3,4.3-5c1.2-2,4.8-1.9,5.3-4.2c0.2-1,0-2,0-3c0-3.6,5.3-8.9,7.3-5.9c0.6,0.8-1.3,2.3-0.6,2.9c0.7,0.7,0.7,0.9,1.3,1.8
	c1.3,2,1.9-3.9,3.5-5.6c0.5-0.6,1.7,0.3,2.1,0.9c2.3,3.4-2.9,7.6-2.4,11.7c0.3,2.7,2.9,4.6,4.5,6.8c3.1,4.3,2.6,10.5,0.3,15.3
	s-6.1,8.8-9.5,12.9c-1.5,1.8-2.9,3.7-3.6,6c-0.6,1.8-1.1,3.1-1.8,4.9s-2.6,3.8-4.5,3.9c-1.2,0-1.5-0.2-2.6-0.7
	c-5.1-2.4-11-3-16.5-1.6"/>
<path fill="none" stroke="#E1E1E1" stroke-miterlimit="10" d="M-11.1,118c0-0.2-0.3,0.1-0.2,0.2c0.1,0.1,0.3,0,0.5-0.1
	c0.8-0.6,1.5-1.3,2.3-1.9c0.8-0.7,1.7-1.4,2.7-1.7s2.5-0.2,2.9,0.8c0.9,1.9,0.8,4.3-0.1,6.2c-1,2-3,3.2-4.2,5
	c-0.1,0.2-0.3,0.5-0.5,0.6c-0.6,0.2-1-0.6-1.2-1.3c-0.4-1.6-1.5-3.1-2.9-3.9c-1.7-0.3-3.5-0.2-5.1,0.3"/>
<path fill="none" stroke="#E1E1E1" stroke-miterlimit="10" d="M-12.3,152.6c4-3.4,9.1-9.4,14.4-12c1.8-0.9,4.2-3.8,5.2-2.2
	c2.2,3.8,7.6,10.1,10.6,7.2c1-1-2.1-3.2-1.1-4c1.6-1.3,4.1,1.9,4.1-1.7c0-1.2-1.4-3.4,1.4-6.4c2.3-2.5-3.8-6.5-3.7-9.9
	c0-0.5-0.2-0.6,0.2-1.5c0.5-1.3,3-2,3-3c0-7-0.3-13.2,5-19c1-1-1-1.6-1-3c0-3.4,2.6-6.1,2.5-8.5C28.4,86,25.6,83.8,27,81
	c2-4,7.9-9.5,5.1-10.3C30.5,70.2,30,73,29,72s-2-3-1-5c3-6,13.2-17.2,10.7-19.5C37.4,46.4,23.7,65.2,24,60.7
	c0.2-2.9,0.5-4.4-1.3-6.3c-0.9-0.9,3.5-7.5,3.4-22.4c0-2.2,3.3-3.2,2-5c-0.8-1.1-2.2-2-2-3c0.5-2.2,4.4-3.8,3.7-4.9
	c-1.7-2.7-4.9,2.5-7.6,3.7c-1.1,0.5-1.7,1-1.7-0.9c0-1.1,0.9-2.3,1.9-2.7c2.4-0.8,6.7-2.5,5.2-4.6c-1.6-2.2-5,2.9-7.7,2.5
	c-1.2-0.2,0.4-2.2,1.6-2.7c7.1-3,13.8-6.8,20-11.3c0.6-0.4,1.3-0.9,1.7-1.6c0.3-0.5,0.4-1,0.7-1.4C44.6-1,46.1-1.4,47.3-2
	s3.6-2.3,2.4-3.1c-1.7-1.1-4.3,3.2-5.7,1.8c-1.3-1.3,2.4-2.7,4.2-3.2s3.7-0.6,5.4-1.4c1.7-0.8,3.2-2.5,2.9-4.3"/>
<path fill="none" stroke="#E1E1E1" stroke-miterlimit="10" d="M19,11.9c-0.2,0.6,1.1,1.2,1.6,0.9c0.5-0.3,1.3-1.7,0.8-2.1
	c-0.2-0.2-0.6-0.1-0.9,0C20.1,10.8,19.2,11.4,19,11.9z"/>
<path fill="none" stroke="#E1E1E1" stroke-miterlimit="10" d="M28.2,3.1c-1.7-0.8-4.2,2.2-2.8,3.5c0.8,0.7,1.7-0.1,2.3-1
	S29.2,3.6,28.2,3.1z"/>
<path fill="none" stroke="#E1E1E1" stroke-miterlimit="10" d="M187,69.3c-1-1.1-0.5-2.9-1.9-3.4c-1.4-0.5-2.9-0.2-4.3,0.1
	c-2,0.4-4,0.8-6,1.2c-0.9,0.2-1.9,0.4-2.3,1.2c-0.2,0.4-0.2,1-0.2,1.4c0.1,4.9,0.2,9.9,0.3,14.8c0.1,2.8,0.1,5.6,0.5,8.3
	c0.4,3.2,1.2,6.3,2.1,9.4c0.4,1.3,0.8,2.5,1.6,3.5c2.6,3.2,7.7,2.4,11.4,0.6c0.8-0.4,1.5-0.8,2.4-0.8c0.8-0.1,1.5,0.2,2.3,0.3
	c3.5,0.8,7.4,0,10.3-2.2c3.1-2.2,5-5.7,7.4-8.6c3.8-4.5,9.2-8.6,9.4-14.5c0.1-3-1.2-5.8-2.5-8.5c-0.3-0.6-0.6-1.2-1.1-1.6
	c-0.7-0.6-1.7-0.7-2.6-0.7c-4.5-0.4-9-0.8-13.5-1.2C195.8,68.2,190,72.6,187,69.3z"/>
<path fill="none" stroke="#E1E1E1" stroke-miterlimit="10" d="M187,83.8c-1.3-1.1-1.9-2.6-2.6-4.1c-0.7-1.5-1.8-2.9-3.4-3.4
	c-0.3-0.1-0.7-0.1-1,0.1c-0.2,0.2-0.3,0.5-0.3,0.8c-0.6,3.8,0.4,7.7,1.8,11.3c0.3,0.8,1,1.9,1.9,1.6c0.6-0.2,0.9-1.1,1.6-1.1
	c0.7,0,1,0.9,1.5,1.5c0.7,0.7,2.5,0.2,2.4-0.9c-0.2-1.6,0.4-3.3-0.5-4.6C188,84.4,187.5,84.1,187,83.8z"/>
<path fill="none" stroke="#D6D6D6" stroke-miterlimit="10" d="M200.2,174.7c0.9-1,2.3-1.3,3.5-1.8c1.1-0.5,2.1-1.2,2.8-2.1
	c0.4-0.5,0.8-1.1,1.4-1.4c0.4-0.2,0.9-0.3,1.3-0.4c2.5-0.5,5-1.6,6.6-3.6c0.5-0.6,0.8-1.2,1.3-1.7c1.9-2.1,5.1-2.4,8-2.3
	c2.9,0.1,5.9,0.3,8.4-1.2"/>
<path fill="none" stroke="#D6D6D6" stroke-miterlimit="10" d="M369.8,211.6c-2.7-0.5-6.1-0.7-7.4,1.6c-0.3,0.5-0.4,1-0.7,1.4
	c-0.5,0.8-1.5,1.2-2.3,1.5c-1.2,0.5-2.3,1-3.5,1.5c-2,0.8-4.1,1.7-6.2,1.5c-0.7-0.1-1.5-0.2-2.1,0c-1.2,0.4-1.6,1.9-2.8,2.4
	c-1.3,0.5-3.2-0.4-3.9,0.8c-0.4,0.7,0,1.7-0.4,2.5c-0.7,1.4-2.8,0.6-4.2,1.4c-0.4,0.2-0.7,0.6-1,0.9c-1.6,2-2.1,4.6-2.9,7
	c-0.9,2.7-2.2,5.3-4.5,6.9c-0.9,0.6-1.9,1.1-2.7,1.8c-1.1,1-1.8,2.3-2.7,3.5c-0.9,1.2-2.5,3-3.7,2.1c-1.7-1.2-1.7-3.7-2.5-5.5
	c-0.1-0.3-0.3-0.6-0.5-0.8c-0.6-0.5-1.5-0.3-2.3-0.2c-1.4,0.2-2.7-1.2-4.1-0.9c-2.9,0.6-3.4,5-5.5,7.2c-0.2,0.2-0.4,0.5-0.7,0.6
	c-0.5,0.2-1-0.1-1.5-0.2c-2.3-0.8-5.1,0.4-6.2,2.5c-0.3,0.6-0.5,1.2-1,1.6c-0.8,0.6-2,0.2-3.1,0.2c-3.2-0.2-6,3-9.1,2.3
	c-1-0.2-2-0.8-2.9-0.4c-0.5,0.2-0.8,0.6-1.2,0.8c-0.5,0.3-1.2,0.3-1.8,0.3c-3.8,0.3-6.5,3.5-9.3,6c-2,1.8-4.2,3.5-6.8,4.1
	c-3,0.7-6.3,2.9-9,4.5c-1.1,0.7-2.2,1.4-2.9,2.5c-0.5,0.8-0.7,1.8-1.1,2.7c-1.3,2.6-4.6,3.4-7.2,4.6c-4.3,1.9-7.7,5.3-10.1,9.3
	c-0.6,1-1.2,2.1-1.9,3c-1,1.2-2.4,2.2-3.2,3.6c-1.5,2.7-0.4,6.7-2.7,8.8c-1.6,1.5-4.5,1.5-5.7,3.4c-0.4,0.6-0.5,1.4-0.6,2.2
	c-0.1,1.1-0.2,2.2-0.3,3.3c-0.2,2.3-0.4,4.7-0.6,7c-0.1,0.9-0.1,1.8-0.2,2.7c-0.1,1.2-0.2,2.4-0.3,3.5c-0.5,6-1,12-0.7,18
	c0,0.6,0.1,1.3,0.4,1.9c0.2,0.3,0.5,0.5,0.8,0.8c1.6,1.6,1.3,4.2,1.1,6.4c-0.8,6.1-1.2,12.2-1.1,18.3"/>
<path fill="#EAEAEA" stroke="#D6D6D6" stroke-miterlimit="10" d="M149.1,281.4c-0.9-0.8,0.4-2.6-0.4-3.6c-0.4-0.5-1.2-0.7-1.3-1.3
	c-0.1-0.6,0.4-1.1,0.7-1.6c0.5-1-0.6-1.8-1.2-2.8c-0.3-0.5,0.2-1.2,0-1.7c-0.2-0.6-0.6-1.1-1.2-1.1c-0.7,0-1.1,0.6-1.5,1.1
	c-0.8,0.9-1.8,1.5-2.8,2c-0.7,0.4-1.5,0.8-2.2,0.5c-0.7-0.3-1-1.2-0.8-1.9s0.7-1.3,1.2-1.9c0.2-0.2,0.4-0.4,0.5-0.7
	c0-0.2-0.1-0.4-0.1-0.6c-0.4-0.9-0.7-1.8-1.1-2.7c-0.2-0.5-0.4-1-0.4-1.5c0-0.5,0.4-1,0.9-1.1c0.3,0,0.6,0.1,0.9,0.2
	c1.9,0.9,4,2,4.9,3.9c0.1,0.3,0.3,0.6,0.6,0.7c0.4,0.2,0.8-0.1,1.1-0.4c0.7-0.5,1.5-0.8,2.3-0.7c0.8,0.1,1.5,0.9,1.3,1.7
	c-0.1,0.4-0.5,0.8-0.7,1.2c-0.5,1.1,0,2.3,0.7,3.3c0.6,1,1.4,2,1.4,3.2c0,0.6-0.2,1.1-0.3,1.7c-0.2,0.9-0.1,1.8-0.4,2.6
	C150.8,281,149.7,282,149.1,281.4z"/>
<path fill="#7BBCEB" stroke="#4E9BD7" stroke-miterlimit="10" d="M194.8,172.3c-0.7,0.4-1.6,0.3-2.4,0.2c-0.9-0.1-1.9-0.2-2.8-0.3
	c-0.7-0.1-1.5-0.2-2.1-0.5c-1-0.5-1.9-1.5-3-1.2c-0.6,0.2-1.1,0.7-1.6,1.1c-0.5,0.4-1.2,0.7-1.8,0.4c-0.2-0.2-0.3-0.4-0.5-0.6
	c-0.9-0.9-2.8-0.1-3.7-1.1c-0.2-0.2-0.3-0.4-0.5-0.5c-0.3-0.1-0.7,0.1-1,0.4c-2.1,1.9-4.3,3.7-6.4,5.5c-0.8,0.6-1.6,1.3-2.5,1.8
	c-1.1,0.6-2.4,0.8-3.4,1.6c-0.2,0.2-0.5,0.4-0.5,0.7c0,0.3,0.1,0.5,0.2,0.8c1.5,3.1,3.9,5.7,6.7,7.6c0.5,0.4,1.1,0.7,1.8,0.7
	c0.9-0.1,1.5-0.8,2.1-1.5c0.5-0.6,0.9-1.4,1.6-1.9c0.8-0.6,1.9,0.2,2.7,0.7c1.2,0.8,2.4,1.6,3.7,2.4c1,0.7,2,1.3,2.8,2.2
	c0.6,0.7,1.1,1.5,1.9,1.9c1,0.4,2.2,0.1,3-0.6c0.8-0.7,1.4-1.6,2-2.5c0.6-0.9,1.2-1.7,1.9-2.5c0.4-0.5,1.1-1.1,1.7-0.8
	c0.3,0.1,0.4,0.4,0.6,0.6c1,1.1,3.1,0.6,3.6-0.8c0.2-0.5,0.1-1.1,0.3-1.7c0.1-0.6,0.4-1.1,1-1.2c0.3,0,0.6,0,0.7-0.2
	c0.1-0.1,0.1-0.2,0-0.4c-0.2-2.5,0.5-5.3-0.5-7.5c-0.4-0.8-1.9-0.3-2.4-1c-0.6-0.8,0.2-2.3-0.6-2.9c-0.4-0.3-0.9-0.1-1.3,0.1
	C195.5,171.8,195.2,172.1,194.8,172.3z"/>
<path fill="#EAEAEA" stroke="#D6D6D6" stroke-miterlimit="10" d="M233.8,150.6c0.3-0.8,0.2-1.8-0.3-2.5c-0.7-1.1-2.1-1.7-2.2-3
	c-0.1-0.7,0.3-1.4,0.8-1.9c0.5-0.5,1.2-0.8,1.8-1.1c0.3-0.1,0.7-0.3,1-0.3c0.4,0.1,0.8,0.4,1.1,0.7c1.2,1.2,2.3,2.4,3.5,3.6
	c0.5,0.5,0.9,1,1.3,1.5c1.4,2.4,0.4,5.5,1,8.2c0.1,0.4,0.2,0.7,0.1,1.1c-0.1,0.2-0.2,0.4-0.3,0.5c-0.5,0.6-0.9,1.2-1.4,1.8
	c-0.7,0.9-1.4,1.8-2.4,2.3c-1,0.5-2.3,0.6-3.1-0.1c-1-0.9-0.9-2.5-0.6-3.8s0.7-2.8,0-4c-0.3-0.5-0.8-0.9-0.9-1.4
	C233.1,151.7,233.6,151.2,233.8,150.6z"/>
<path fill="#EAEAEA" stroke="#D6D6D6" stroke-miterlimit="10" d="M274.8,158.7c-0.1,0.2-0.1,0.4-0.1,0.5c0.1,0.6,0.8,0.7,1.4,0.7
	c0.6,0,1.3-0.1,1.9-0.3c0.3-0.1,0.7-0.3,1-0.5c0.2-0.2,0.4-0.4,0.6-0.6c0.5-0.7,0.9-1.5,1-2.3c0-0.3,0-0.6-0.1-0.8
	c-0.1-0.2-0.3-0.2-0.5-0.2c-0.5,0-1,0.3-1.5,0.5c-0.6,0.4-1.2,0.8-1.8,1.2C275.9,157.4,275.1,157.9,274.8,158.7z"/>
<path fill="none" stroke="#D6D6D6" stroke-miterlimit="10" d="M241.3,148.2c0.8-1.7,1.2-3.6,1.3-5.5c0-0.8,0-1.6,0.2-2.4
	c0.2-0.8,0.5-1.5,0.8-2.2c1.4-3.2,2.5-6.6,3.1-10.1c0.1-0.6,0.2-1.2,0.5-1.7c0.3-0.6,0.8-1,1.3-1.4c0.8-0.7,1.7-1.4,2.5-2.1
	c0.6-0.5,1.3-1.1,2-1.4c1.7-0.8,3.7-0.4,5.5,0.1c1.8,0.5,3.6,1.3,5.5,1.2c1.3-0.1,2.7-0.5,3.8,0.2c0.4,0.2,0.6,0.6,1,0.7
	c0.5,0.2,1.1,0,1.7-0.1c1.2-0.1,2.5,0.6,3,1.6c0.2,0.3,0.3,0.7,0.6,0.9c0.3,0.2,0.8,0.1,1.2,0c2.3-0.6,4.3-2.9,6.6-2.3
	c0.9,0.2,0.2,1.8,0.4,2.7c0.2,0.6,0.6,1,1.1,1.4c1.2,0.9,2.5,1.5,3.9,2c0.3,0.1,0.7,0.3,1,0.4c2,0.8,4.3,1.9,4.7,4
	c0.3,1.4-0.4,2.9-1,4.2c-0.5,1.3-0.9,2.6-1.2,4c-0.2,0.7-0.3,1.5-0.6,2.1c-0.4,0.8-1.1,1.5-1.7,2.2c-2.6,2.9-4.7,6.9-8.4,8.1"/>
<path fill="none" stroke="#D6D6D6" stroke-miterlimit="10" d="M138.3,262.8c-1.4-0.3-2.2-2.1-3.7-2.3c-0.6-0.1-1.1,0.1-1.7,0
	c-1.5-0.4-1.5-2.8-3-3.5c-0.5-0.2-1.1-0.2-1.5-0.5c-0.4-0.3-0.5-0.7-0.7-1.1c-0.3-0.8-0.6-1.7-1-2.5c-0.2-0.6-0.5-1.2-0.3-1.8
	c0.2-0.6,0.7-1,1.1-1.5c1.3-1.6,0.6-4,1-6c0.4-2.1,1.8-3.7,3.2-5.3c1.6-1.8,3.2-3.7,5.3-5c1.2-0.8,2.6-1.4,3.7-2.3
	c1.1-0.9,2.1-2.2,2-3.7c0-1.2-0.7-2.4-0.2-3.5c0.3-0.7,1-1.1,1.7-1.4c2.1-0.9,4.8-1.4,5.4-3.5c0.2-0.7,0.1-1.4,0.3-2
	c0.5-1.8,2.8-0.9,4.4-1.7c2.6-1.3,2.2-5.7,4.9-6.8c0.7-0.3,1.5-0.5,2-1c0.5-0.6,0.6-1.4,0.7-2.2c0.2-1.4,0.6-2.9,1.1-4.2
	c0.1-0.3,0.3-0.7,0.6-0.9c0.5-0.4,1.3-0.3,1.9-0.2c1.2,0.1,2.4-0.1,3.6-0.5c5.2-1.5,10-4.8,13.2-9.1"/>
<path fill="none" stroke="#4E9BD7" stroke-miterlimit="10" d="M162.7,179c-1.1-0.5-2.4,0.1-3.4,0.7c-0.9,0.5-1.8,1.1-2.6,1.7
	c-1,0.7-2.1,1.5-3.3,1.3c-0.7-0.1-1.4-0.6-2.2-0.5c-0.6,0.1-1,0.7-1.3,1.2c-0.8,1.5-1.3,3.3-2.7,4.4c-0.8,0.7-2,1.1-2.3,2.1
	c-0.2,0.7,0.2,1.6-0.1,2.2c-0.2,0.3-0.4,0.6-0.7,0.8c-0.9,0.7-1.9,2.2-3,1.7c-0.8-0.3-0.8-1.5-1.5-2c-0.1-0.1-0.3-0.2-0.4-0.2
	c-0.2,0-0.3,0.1-0.5,0.2c-2.7,1.4-5.4,2.9-7.6,5c-0.8,0.8-0.1,2.3-1.1,2.9c-0.5,0.3-1,0-1.5-0.2c-1.1-0.6-2.3-1.3-2.8-2.5
	c-0.1-0.2-0.2-0.5-0.4-0.6c-0.4-0.3-0.9,0-1.3,0.3c-1.4,1-2.7,2-4.1,3c-1,0.8-2.2,1.6-3.5,1.4c-0.3,0-0.6-0.1-0.7,0.1
	c-0.2,0.2-0.1,0.5,0,0.7c0.7,2,0.1,4.4-1.4,5.8c-1.1,1-2.5,1.6-3.5,2.6c-0.7,0.7-1.1,1.6-1.8,2.3c-1,1.2-2.2,2.8-3.7,2.6
	c-0.7-0.1-0.1-1.3-0.2-2c-0.2-1.4-1.9-1.8-3.2-2c-0.3,0-0.7-0.1-1,0.1c-0.3,0.2-0.4,0.5-0.6,0.8c-0.5,0.7-1.5,0.8-2,1.4
	c-0.6,0.8,0,2.2-0.8,2.8c-0.8,0.7-2.1,0.4-3.1,0.1c-0.8-0.3-1.7-0.5-2.5-0.8c-0.8-0.2-1.8-0.5-2.4,0.1c-1.1,0.9-0.4,3.2-1.7,3.7
	c-0.7,0.3-1.5-0.2-2.3-0.4c-1.7-0.3-3.1,1.2-4.5,2.2c-1.3,1-2.9,1.6-4.4,2.2c-1.2,0.4-2.3,0.9-3.6,1c-1.2,0.1-2.2-0.8-3.4-1.1
	c-0.5-0.1-1.2,0-1.6-0.2c-0.9-0.4-2.1,0.1-2.9-0.4c-0.7-0.4-0.8-1.3-1.3-1.8c-2-2.1-4.4-3.8-5.7-6.3c-0.2-0.3-0.3-0.7-0.6-0.8
	c-0.2-0.1-0.4-0.1-0.6-0.1c-0.7-0.1-1.5-0.2-2.2-0.3"/>
<path fill="none" stroke="#4E9BD7" stroke-miterlimit="10" d="M38,204.7c-1-1-2.2-2.9-2.5-4.5c-0.6-3-1.2-6.3,0.1-9
	c0.3-0.5,0-1.4,0-2c0-1.2-0.6-1.7-1.3-2.7c-0.9-1.2-1-2.8-1.2-4.2c-0.2-1.5-0.7-3.1-2-3.8c-0.4-0.2-0.9-0.4-1.3-0.7
	c-0.4-0.3-0.7-0.7-0.9-1.2c-0.7-1.2-1.5-2.3-2.2-3.5c-0.4-0.7-0.9-1.5-0.7-2.2c0.2-0.7,0.9-1.3,0.9-2.1c0.1-0.8-0.5-1.5-0.3-2.2
	c0.1-0.3,0.3-0.5,0.4-0.8c0.7-1.4-0.9-1.9-2.1-3c-2-1.9-4.9-4.9-4.7-7.6c0.2-2.4,2.3-4.4,1.9-6.8c-0.3-1.7-1.4-3.6-3.2-3.7
	c-0.8-0.1-1.7,0.2-2.4-0.2c-1-0.6-1-2.4-2.2-2.7c-0.9-0.2-2.2,0.7-2.7-0.1c-0.2-0.3-0.1-0.6-0.1-0.9c0.1-0.9,0.2-1.7,0.3-2.6
	c0.1-0.8,0.2-1.7-0.1-2.4c-0.3-0.8-1.2-0.9-2-1.1c-0.5-0.2-0.8-0.8-1-1.3c-0.1-0.1-0.1-0.2-0.1-0.3c0-0.1,0.1-0.1,0.1-0.2
	c0.5-0.6,0.8-1.4,0.9-2.1c0.1-0.9-0.1-1.9-0.8-2.5c-0.2-0.1-0.4-0.3-0.3-0.5"/>
<path fill="#EAEAEA" stroke="#D6D6D6" stroke-miterlimit="10" d="M5.6,243.1c-0.4,0.1-0.8,0.1-1.2,0c-0.6-0.2-1.3-0.4-1.7-0.9
	c-0.4-0.4-0.3-1.1,0.1-1.6c0.5-0.7,1.6-0.4,2.4-0.8c0.3-0.1,0.5-0.3,0.7-0.5c0.9-0.7,2.2-1.6,3.3-1.1c0.3,0.2,0.2,0.6,0.2,1
	c0,0.8,0,1.6-0.5,2.2c-0.1,0.2-0.3,0.3-0.5,0.5C7.4,242.5,6.5,242.9,5.6,243.1z"/>
<path fill="#EAEAEA" stroke="#D6D6D6" stroke-miterlimit="10" d="M19.8,235.6c0,0.1,0,0.3,0,0.4c0.1,0.5,0.9,0.6,1.3,0.3
	c0.4-0.3,0.6-0.9,0.8-1.4c0.1-0.5,0.3-1,0.4-1.5c0.2-0.7,0.8-1.8,0.2-2.2c-0.9-0.5-1.8,1-2.5,1.7c-0.1,0.1-0.2,0.2-0.2,0.4
	c0,0.1,0,0.2,0.1,0.3C20,234.4,19.9,235,19.8,235.6z"/>
<path fill="#EAEAEA" stroke="#D6D6D6" stroke-miterlimit="10" d="M23.7,235.2c0,0.3,0.1,1.1,0.2,1.2c0.4,0.4,1,0.8,1.4,0.5
	c0.4-0.3,0.4-0.9,0.3-1.4c-0.1-0.3-0.1-0.6-0.2-0.9c-0.1-0.6-0.2-1.2,0.1-1.7c0.1-0.3,0.4-0.5,0.5-0.8c0.1-0.3,0.1-0.7-0.2-0.8
	c-0.6-0.2-1.2-0.4-1.6,0c-0.1,0.1-0.2,0.5-0.2,0.6C23.6,233.3,23.5,234,23.7,235.2z"/>
<path fill="none" stroke="#D6D6D6" stroke-miterlimit="10" d="M9.1,237.9c0.3-0.4,0.6-0.8,1-1.1c0.5-0.4,1-0.7,1.6-0.9
	c2.3-1,5.4-2.2,7.9-2.5"/>
<path fill="none" stroke="#D6D6D6" stroke-miterlimit="10" d="M22.9,231.7c0.3,0,0.6,0,0.9,0.1"/>
<path fill="none" stroke="#D6D6D6" stroke-miterlimit="10" d="M25.9,231.4c1.7-1.6,4.7-2,6.6-3.4c0.7-0.5,1.3-1.3,2.1-1.7
	c0.6-0.3,1.3-0.4,2-0.6c2.7-0.7,5-2.8,5.9-5.4c0.3-0.8,0.5-1.7,0.6-2.6c0.4-2,1.1-4.6,0.8-6.3"/>
<path fill="#EAEAEA" stroke="#D6D6D6" stroke-miterlimit="10" d="M103.7,149.2c0.7-0.1,1.2-1.1,1.8-0.9c0.8,0.3-0.1,1.7-0.3,2.5
	c-0.1,0.5-0.2,1-0.6,1.2c-0.3,0.2-0.7,0.2-1.1,0.3c-1,0.1-1.8,0.6-2.6,1.2c-0.4,0.3-0.8,0.6-1.3,0.8s-1.1,0-1.3-0.5
	c-0.3-0.6,0.3-1.2,0.8-1.7c0.7-0.7,1.4-1.3,2.2-2c0.3-0.3,0.7-0.6,1.1-0.7C102.8,149.3,103.3,149.3,103.7,149.2z"/>
<path fill="none" stroke="#4E9BD7" stroke-miterlimit="10" d="M-10.7,114.3c1.2-1.4,2.5-2.8,3.9-4.1c0.6-0.6,1.2-1.1,2-1.4
	c0.9-0.4,2-0.3,2.9-0.7"/>
<path fill="none" stroke="#D6D6D6" stroke-miterlimit="10" d="M15.7,121.2c0.5,0.7,0.4,0.6,0.9,1c0.5,0.5,0.6,1.2,0.7,1.9
	c0.1,1.2,0.2,2.4,0.5,3.6c0.4,1.1,1.1,2.2,2.3,2.6c0.8,0.3,1.6,0.2,2.5,0.3c2,0.3,3.9,1.9,5.9,1.4c1.6-0.4,2.6-2,3.5-3.4
	c0.4-0.6,0.8-1.2,1.4-1.5c0.6-0.4,1.3,0.3,2,0.1c2.3-0.6,1.6-4.5,2.4-6.8c0.4-1,0.7-2.1,1.6-2.8c1.5-1.3,3.4-2.3,5.4-2.3
	c1.4-0.1,2.3,1.6,3.5,2.4c0.4,0.3,1,0.6,1.5,0.4c0.4-0.2,0.6-0.5,0.8-0.9c0.5-0.9,1.3-1.6,2.2-2.1c1.4-0.7,3.1-0.8,4.7-1.1
	c1.9-0.3,3.7-1,5.3-2c0.5-0.3,1.1-0.7,1.7-0.8c1.6-0.3,3.1,1.1,4.7,1.3c2.6,0.3,4.7-2.6,7.3-2.5c1,0,2.2,0.5,3.1-0.1
	c0.3-0.2,0.7-0.6,1-0.4c0.3,0.1,0.3,0.5,0.5,0.7c0.4,0.7,1.4,0.8,2.1,0.4c0.7-0.4,1.1-1.2,1.4-1.9c0.9-2.1-0.4-4.9,1-6.8
	c1.6-2.1,5.5,0.2,7.6,1.8c0.8,0.6,1.5,1.1,2.4,1.3c1.2,0.2,2.5,0.1,3.7,0c2-0.1,4,0.1,6,0.3c0.4,0,0.9,0.1,1.3,0.2
	c0.8,0.3,1.4,0.9,2,1.5c0.7,0.7,1.4,1.4,2,2.1c0.4,0.4,0.9,0.9,1.5,1.1c0.3,0.1,0.6,0.2,1,0.2c1.4,0.3,2.6,1.3,3.3,2.5
	c0.2,0.4,0.4,0.8,0.5,1.3c0.1,0.6,0,1.2-0.1,1.9c-0.3,2-0.6,4-0.9,6c-0.1,0.9-0.3,1.9-0.7,2.8c-0.4,0.8-1,1.5-1.6,2.1
	c-1.2,1.4-2.3,3-2.7,4.8c-0.1,0.5-0.2,1-0.3,1.4c-0.1,0.5-0.3,1-0.4,1.4c-1.5,4.5-2.9,9.1-4.4,13.6"/>
<path fill="none" stroke="#D6D6D6" stroke-miterlimit="10" d="M14.7,87.4c-0.2-1.4-0.4-2.8,0.3-4c0.5-0.8,1.2-1.3,2-1.9"/>
<path fill="none" stroke="#D6D6D6" stroke-miterlimit="10" d="M21.1,61.4c-0.1,0.1-0.2,0.3-0.1,0.4c1.1,0.8,2.7,0.8,3.3,2
	c0.1,0.2,0.2,0.3,0.1,0.5c0,0.1-0.1,0.3-0.2,0.4c-0.4,0.6-0.6,1.2-0.8,1.8c-0.2,0.8-0.3,1.8-1,2.3"/>
<path fill="#EAEAEA" stroke="#D6D6D6" stroke-miterlimit="10" d="M2.1,137.5c-2.9-1.1-6.2,0.7-8.6-1.4c-1.2-1.1-1.6-2.9-1.2-4.5
	c0.4-1.6,1.1-2.9,2.2-4.1c1.1-1.2,2.3-2.4,3.1-3.8c0.5-0.8,0.9-1.6,1.4-2.4c0.5-0.7,1-1.2,1.4-2c0.5-1.1,0.7-2.5,0.6-3.7
	c-0.1-0.6-0.1-1.2-0.4-1.8c-0.2-0.5-0.6-0.9-0.9-1.4c-0.9-1.2-1.7-2.6-1.7-4.1c0-0.5,0-1,0.3-1.5c0.8-1.2,3.2-0.9,3.4-2.3
	c0-0.4-0.1-0.8,0-1.2c0.2-0.7,1-0.9,1.7-0.9c0.2,0,0.3,0,0.5-0.1c0.2-0.1,0.2-0.4,0.2-0.6C4.5,98,6.6,94.6,9,91.6
	c0.8-1.1,1.7-2.2,2.9-3s2.5-1.7,3.8-1.2c0.3,0.1,1,0.5,1.2,0.6c0.8,0.3,1.3-0.3,2-0.8c0.6-0.4,1.3-0.8,2-0.8c0.7,0,1.5,0.4,1.8,1.1
	c0.3,0.9,0.1,1.9-0.2,2.8c-1.2,3.6,1.9,7.2,0.8,10.8c-0.5,1.6-1.8,2.8-2.5,4.4c-1.1,2.5-0.3,5.4-0.4,8.1c0,0.7-0.3,1.7-1,1.6
	c-1.2-0.3-1.4-2-1.8-3.2c-0.4-1.2-1.2-3.5-2.3-2.8c-0.8,0.6,0.3,2,0.6,2.9c0.7,2.5,0.7,5,0.1,7.5c-0.4,1.7-1.4,3.7-2.6,5
	c-2.3,2.7-7.2,3.2-8.7,6.5c-0.8,1.8,0.2,3.8-0.5,5.7c-0.1,0.3-0.6,0.9-1,1C2.8,137.9,2.5,137.7,2.1,137.5z"/>
<path fill="#EAEAEA" stroke="#D6D6D6" stroke-miterlimit="10" d="M20,77.5c-0.7,0.9-0.8,2.1-1.2,3.2c-0.1,0.4-0.3,0.9-0.7,1.2
	c-0.4,0.3-0.9,0.4-1.3,0c-0.4-0.4-0.2-1.1,0-1.6c0.9-2.3,1.8-4.5,2.7-6.8c0.3-0.9,0.7-1.7,1.1-2.5c0.4-0.7,0.8-1.4,1.5-1.9
	c0.1-0.1,0.2-0.1,0.3-0.1c0.2,0,0.3,0.2,0.3,0.4c0.2,1,0.4,2,0,2.9c-0.2,0.6-0.6,1.1-0.9,1.7c-0.4,0.8-0.4,1.8-0.9,2.5
	C20.6,76.9,20.3,77.2,20,77.5z"/>
<path fill="#EAEAEA" stroke="#D6D6D6" stroke-miterlimit="10" d="M20.8,61.4c0.1,0,0.1,0,0.2,0c0.1,0,0.2-0.1,0.2-0.2
	c1-1.2,1.4-3.8-0.1-4.3c-0.6-0.2-1.1-0.7-1.6-0.5c-0.4,0.1-0.4,0.6-0.5,1c0,0.8,0,1.6,0.2,2.3C19.5,60.6,20.1,61.2,20.8,61.4z"/>
<path fill="none" stroke="#D6D6D6" stroke-miterlimit="10" d="M309.9-11.8c-4.4,5.6-10.2,9.8-15.9,14c-3,2.2-6.9,4.4-10.1,2.6
	c-1.5-0.9-2.6-2.6-4.3-2.8c-0.8-0.1-1.6,0.2-2.4,0.4c-2.6,0.8-5.2,1.3-7.9,1.6c-2.4,0.3-4.9,0.4-7.2,1.3c-1.9,0.8-3.5,2.1-5.2,3.4
	c-2.9,2.2-6.2,4.1-9.8,4.3c-2.2,0.1-4.9-0.1-5.9,1.8c-0.2,0.4-0.3,1-0.7,1.3c-0.6,0.7-1.6,0.7-2.4,0.7c-3.6-0.1-7.7-2.9-10.8-1.1
	c-1.6,0.9-0.3,4.5-2,5.3c-1.2,0.5-2.5-1-3.7-1.5c-2-0.8-4.1-1.6-6.3-1.5s-4.4,1.6-4.7,3.8c-0.1,0.9,0.1,1.8-0.3,2.6
	c-0.5,0.9-1.6,1.2-2.5,1.4c-3.3,0.8-6.8,1.6-10.2,0.8c-0.6-0.1-0.7-0.6-0.7-1.1c0.1-2.6-6.4,0.2-7.4,2.6c-0.4,0.9-1.5,2.6-1.8,1.7
	c-0.3-1.1-0.2-2.3-1.1-3c-1.9-1.5-4.6-1.6-6.8-0.7c-1.2,0.5-1.8,2.5-3.2,2.5c-2-0.1-3.6-0.8-5.4-1.9c-0.4-0.2,0.1-1-0.2-1.3
	c-1.7-1.6-5.2,1-6.9-0.5c-1.3-1.1-2.3-2.6-4-2.4c-1.7,0.2-3.2,1.1-4.7,1.9c-1,0.6-2.2,1.1-3.3,0.7c-0.5-0.2-0.9-0.5-1.3-0.9
	c-2.5-2.3-5.1-4.5-7.6-6.8c-0.5-0.5-1-0.9-1.7-1.2c-0.6-0.2-1.3-0.2-1.8-0.5c-0.8-0.5-1.2-1.5-1.6-2.3c-1.1-2.5-2.9-4.6-4.7-6.7
	c-0.9-1-1.8-2.1-3-2.8c-0.7-0.4-1.6-0.7-2.3-1c-2.1-1-3.8-2.7-5.7-4c-1.1-0.8-2.4-1.5-3.6-2.2c-1.3-0.7-2.7-1.5-4.1-1.5
	c-2.7,0-4.7,2.5-6,4.9c-1.4,2.3-3,6.9-5.4,5.7c-2.5-1.2-5.1-3.2-5.3-5.9c-0.1-1.2,0.7-2.3,0.9-3.4c0.7-3.4-3-6.2-3.1-9.7"/>
<path fill="none" stroke="#D6D6D6" stroke-miterlimit="10" d="M117.1,367.3c3.6,0.4,7.3-0.7,10.1-3c2.7-2.2,4.5-5.3,7.2-7.4
	c0.5-0.4,1.1-0.8,1.4-1.4c0.6-1.1,0.3-2.6,1.3-3.4c1.1-0.8,2.5,0.2,3.9,0.2c1,0,1.9-0.5,2.8-1c1.9-1.3,3.7-2.9,5.1-4.7
	c0.9-1.1,2.5-3.8,3.2-2.6c0.6,1-0.7,2.3,0.1,3.2c0.8,0.9,2.4,1.5,3.2,0.6c0.7-0.8-1.2-1.7-0.9-2.7c0.3-0.9,1.9,0.1,2.9,0.1
	c0.8,0,1.1,0.7,1.7,1.1c0.5,0.4,0.8-1.3,1.5-1.3c1.2,0,2.3,0.3,3.2,1.2c0.5,0.5-0.3,1.5,0.1,2c0.3,0.4,1,0,1.3-0.4
	c0.3-0.4,0.4-1,0.8-1.3c1.1-1.1,2.8,0.2,4.3,0.5c2.4,0.5,4.5-1.6,6.8-2.4c4.4-1.6,9.2,1.5,13.8,0.9c1-0.1,1.9-0.4,2.9-0.5
	c1-0.1,2,0.1,3,0.3c6.6,1.3,13.6,5.2,19,9.1"/>
<path fill="#7BBCEB" stroke="#4E9BD7" stroke-miterlimit="10" d="M50.7,217.4c-0.1,0-0.2,0-0.4,0c-0.8-0.2-1.1-1.2-1.7-1.6
	c-0.4-0.3-0.9-0.3-1.1-0.7c-0.1-0.2-0.2-0.4-0.3-0.6c-0.3-0.9-1.1-2.2-0.4-2.9c0.5-0.5,1.4,0.5,1.9,1c0.5,0.5,1.2,1.1,1.9,0.9
	c0.7-0.2,1.2-1,1.9-1.1c0.3,0,0.5,0.1,0.8,0.3c0.7,0.5,1.2,1.2,1.3,2.1s-0.2,1.7-0.8,2.4c-0.1,0.1-0.2,0.2-0.3,0.2
	c-0.1,0.1-0.3,0.1-0.5,0C52.2,217.5,51.5,217.5,50.7,217.4z"/>
<path fill="#7BBCEB" stroke="#4E9BD7" stroke-miterlimit="10" d="M41.7,205.6c0.1,0.5,0.3,1,0.4,1.4c0.3,0.8,0.5,1.8,0,2.5
	c-0.1,0.2-0.3,0.3-0.5,0.4c-0.2,0-0.4-0.1-0.5-0.2c-0.5-0.3-1-0.7-1.3-1.2c-0.3-0.5-0.3-1-0.5-1.5c-0.2-0.5-0.9-0.4-1.2-0.9
	c-0.1-0.3-0.2-0.5-0.2-0.8c-0.1-0.4,0.5-0.7,1-0.6c0.7,0.1,1.4,0.7,2.2,0.5c0.2,0,0.5-0.1,0.6,0C41.6,205.4,41.6,205.5,41.7,205.6z"
	/>
<path fill="none" stroke="#4E9BD7" stroke-miterlimit="10" d="M46.7,211.5c-0.1-0.4-0.4-1.2-0.8-1.3c-0.4-0.1-0.9,0-1.2,0.3
	c-0.1,0.1-0.2,0.2-0.3,0.3c-0.3,0.3-0.8,0.3-1.1,0.1c-0.4-0.1-0.7-0.4-0.9-0.8c-0.1-0.2-0.3-0.4-0.6-0.3"/>
<path fill="none" stroke="#585858" stroke-miterlimit="10" stroke-dasharray="4,1" d="M114.1,370.1c1-1.8,2-3.7,3-5.5
	c0.1-0.1,0.1-0.2,0.2-0.3c0.4-0.3,0.9,0.3,1.1,0.9c0.2,0.5,0.8,1.2,1.1,0.7c0.4-0.6,0.1-1.4,0.2-2.1c0-0.7,0.5-1.5,1.2-1.4
	c0.9,0.2,1.7,2.5,2.2,1.6c0.6-1.2-0.9-3.6,0.4-3.8c0.8-0.1,1,2.1,1.8,1.8c1.3-0.5-1.4-3.6-0.1-4.2c1-0.5,2,2.2,2.8,1.5
	c0.8-0.7-0.9-2.6,0-3.1c1-0.5,1.9,2.2,2.9,1.6c1.2-0.7-1.2-3.4-0.1-4.3c0.7-0.6,0.9,1.8,1.8,1.8c0.9,0-0.4-2.3,0.4-2.6
	c0.6-0.2,0.9,1.9,1.4,1.4c0.9-0.9,0.3-3.8,2.5-4.4c2.2-0.7,3.3-3.3,5-5c0.6-0.6,1.2-1.2,1.9-1.7c1.1-0.8,2.3-1.2,3.5-1.7
	c2.1-0.8,4.5-1.6,6.6-0.8c1.3,0.4,2.3,1.3,3.5,1.7c3.2,1.1,6.3,1.5,9.7,1.5c1.3,0,1.5-3.4,2.6-2.7c0.5,0.3-0.4,1.2-0.3,1.8
	c0.1,0.6,0.9,1.4,1.3,0.9c0.9-1.2,0.3-4.7,1.7-4.1c1.1,0.4-0.6,2.5,0.2,3.4c0.1,0.1,0.7,0.2,0.8,0.2c1.8,0.5,0.2-4.5,2.1-4.2
	c1.2,0.2,0.2,3.3,1.4,3.4c1.7,0.1,0.5-4.5,2.2-4.7c0.7-0.1,0.8,1.7,0.3,2.2c-0.5,0.4-0.5,1.5,0.5,1.6c0.6,0.1,0.8-0.9,0.9-1.6
	s0.7-1.7,1.1-1.2c0.7,0.9,0.9,3.3,1.9,2.7c0.8-0.5,0-1.9,0.3-2.7c0.4-0.8,1.7-2.1,2.2-1.3c0.7,1.3-0.3,4.6,0.8,3.7
	c1-0.9,1-4,1.9-3.1c1,0.9,0.3,4.2,1.4,3.4c1.3-1,0.2-5,1.6-4.2c1.2,0.6,0.6,3.9,1.8,3.3c1.7-0.9,1.4-6,2.9-4.8
	c1.2,1-0.3,4.6,1.3,4.3c2.4-0.6,3.1-3.9,5.3-5c2.3-1.2,3.4-3.7,5.4-5.4c1.3-1.1,2.8-1.9,3.8-3.3c0.4-0.5,1.1-1.3,1.6-0.9
	c0.2,0.1,0.3,0.3,0.4,0.5c0.6,1.1,1,2.3,1.2,3.5c0.3,1.7,0.1,3.5,0.9,5c0.3,0.7,0.8,1.4,0.5,2.1c-0.3,0.5-1,0.9-0.9,1.4
	c0,0.2,0.2,0.3,0.3,0.4c1.6,1.8,1.4,4.5,1.2,6.8c0,0.3-0.1,0.5-0.3,0.6c-0.4,0.5-0.4,1.5,0,2c0.7,1,1.3,2,1.8,3
	c0.1,0.2,0.2,0.5,0.2,0.7c-0.2,0.8-2,0.8-1.7,1.6c0.2,0.6,1.3,0.9,1.2,1.5c-0.1,0.7-1.3,0.7-1.5,1.3c-0.3,0.6,0.6,1.1,0.9,1.7
	c0.5,0.8-0.3,2,0,2.9c0.3,0.8,1.1,1.2,1.7,1.7c0.2,0.2,0.5,0.5,0.6,0.8c0.1,0.4,0,0.9,0.2,1.2c0.2,0.5,0.8,0.7,1,1.1
	c0.3,0.5,0.1,1.1,0,1.7c-0.1,1,0.4,2,0.7,2.9c0.3,1,0.4,2.1-0.3,2.9"/>
<text transform="matrix(1 0 0 1 175.7491 156.1144)"><tspan x="0" y="0" fill="#7BBCEB" font-family="'Verdana-Italic'" font-size="8">Tallulah</tspan><tspan x="0" y="9.6" fill="#7BBCEB" font-family="'Verdana-Italic'" font-size="8">Lake</tspan></text>
<text transform="matrix(1 0 0 1 146.7621 252.3909)"><tspan x="0" y="0" fill="#585858" font-family="'Verdana-Italic'" font-size="8">Shamrock</tspan><tspan x="0" y="9.6" fill="#585858" font-family="'Verdana-Italic'" font-size="8">Lake</tspan></text>
<text transform="matrix(1 0 0 1 24.5018 111.2655)"><tspan x="0" y="0" fill="#585858" font-family="'Verdana-Italic'" font-size="8">Doe</tspan><tspan x="0" y="9.6" fill="#585858" font-family="'Verdana-Italic'" font-size="8">Lake</tspan></text>
<text transform="matrix(1 0 0 1 180.0648 87.7169)" fill="#585858" font-family="'Verdana-Italic'" font-size="8">× 10458</text>
<text transform="matrix(1 0 0 1 40.5719 313.6193)" fill="#585858" font-family="'Verdana-Italic'" font-size="8">× 10541</text>
<text transform="matrix(1 0 0 1 275.6665 323.8555)" fill="#585858" font-family="'Verdana-Italic'" font-size="8">× 10143</text>
<path fill="none" d="M192.5,286.9c2.2-8.3,9.2-14.4,15.8-20c5.3-4.5,10.7-9,16.8-12.2c2.9-1.5,5.9-2.8,9-4"/>
<text transform="matrix(0.7674 -0.6411 0.6411 0.7674 210.222 268.5679)"><tspan x="0" y="0" fill="#7D7D7D" font-family="'Verdana-Italic'" font-size="7">9</tspan><tspan x="4.4" y="0" fill="#7D7D7D" font-family="'Verdana-Italic'" font-size="7" rotate="1.2">8</tspan><tspan x="8.7" y="0.1" fill="#7D7D7D" font-family="'Verdana-Italic'" font-size="7" rotate="3.5">0</tspan><tspan x="13" y="0.3" fill="#7D7D7D" font-family="'Verdana-Italic'" font-size="7" rotate="7">0</tspan></text>
<path fill="none" d="M166.9,215.9c1.7-2,4-3.2,6.3-4.4c4.4-2.3,8.8-4.6,13.2-6.9c1.9-1,3.8-2,5.7-2.8"/>
<text transform="matrix(0.8684 -0.4958 0.4958 0.8684 170.4364 215.9136)"><tspan x="0" y="0" fill="#7D7D7D" font-family="'Verdana-Italic'" font-size="7">1</tspan><tspan x="4.3" y="0" fill="#7D7D7D" font-family="'Verdana-Italic'" font-size="7" rotate="2.1">0</tspan><tspan x="8.8" y="0.2" fill="#7D7D7D" font-family="'Verdana-Italic'" font-size="7" rotate="2.1">0</tspan><tspan x="13.2" y="0.4" fill="#7D7D7D" font-family="'Verdana-Italic'" font-size="7" rotate="2.1">0</tspan><tspan x="17.7" y="0.5" fill="#7D7D7D" font-family="'Verdana-Italic'" font-size="7" rotate="2.1">0</tspan></text>
<path fill="none" d="M58,138.8c1.7-4.1,4-7.9,8-9c13.1-3.7,28.4-3.9,36-15"/>
<text transform="matrix(0.9783 -0.2072 0.2072 0.9783 71.7674 130.9673)"><tspan x="0" y="0" fill="#7D7D7D" font-family="'Verdana-Italic'" font-size="7">9</tspan><tspan x="4.4" y="0" fill="#7D7D7D" font-family="'Verdana-Italic'" font-size="7" rotate="0">6</tspan><tspan x="9" y="0" fill="#7D7D7D" font-family="'Verdana-Italic'" font-size="7" rotate="-1.6">0</tspan><tspan x="13.6" y="-0.1" fill="#7D7D7D" font-family="'Verdana-Italic'" font-size="7" rotate="-4.9">0</tspan></text>
<path fill="none" d="M315.2,81.2c-4.4-7,9.5-13.5,13.8-20.5c3-5,6-9.9,9.1-14.9"/>
<text transform="matrix(0.6269 -0.7791 0.7791 0.6269 317.1556 76.7222)"><tspan x="0" y="0" fill="#7D7D7D" font-family="'Verdana-Italic'" font-size="7">1</tspan><tspan x="4.1" y="0" fill="#7D7D7D" font-family="'Verdana-Italic'" font-size="7" rotate="7.9">0</tspan><tspan x="8.5" y="0.7" fill="#7D7D7D" font-family="'Verdana-Italic'" font-size="7" rotate="9.2">2</tspan><tspan x="13" y="1.4" fill="#7D7D7D" font-family="'Verdana-Italic'" font-size="7" rotate="5.3">0</tspan><tspan x="18" y="1.9" fill="#7D7D7D" font-family="'Verdana-Italic'" font-size="7" rotate="-7.4">0</tspan></text>
<g>
	<g>
		<polyline fill="none" stroke="#7D7D7D" stroke-miterlimit="10" points="85.2,341.6 85.2,348.7 275.4,348.7 275.4,341.7 		"/>
		<line fill="none" stroke="#7D7D7D" stroke-miterlimit="10" x1="180.5" y1="341.4" x2="180.5" y2="348.7"/>
		<line fill="none" stroke="#7D7D7D" stroke-miterlimit="10" x1="161.2" y1="349.2" x2="161.2" y2="343.7"/>
		<line fill="none" stroke="#7D7D7D" stroke-miterlimit="10" x1="142.4" y1="349.2" x2="142.4" y2="343.7"/>
		<line fill="none" stroke="#7D7D7D" stroke-miterlimit="10" x1="123.3" y1="349.2" x2="123.3" y2="343.5"/>
		<line fill="none" stroke="#7D7D7D" stroke-miterlimit="10" x1="104.6" y1="349.2" x2="104.6" y2="343.7"/>
	</g>
	<text transform="matrix(1 0 0 1 83.7836 339.1468)" fill="#7D7D7D" font-family="'Verdana'" font-size="8">0</text>
	<text transform="matrix(1 0 0 1 174.2947 339.1468)" fill="#7D7D7D" font-family="'Verdana'" font-size="8">0.5</text>
	<text transform="matrix(1 0 0 1 258.3416 339.1468)" fill="#7D7D7D" font-family="'Verdana'" font-size="8">1 mi</text>
</g>
</svg>
