<?xml version="1.0" encoding="utf-8"?>
<!-- Generator: Adobe Illustrator 17.1.0, SVG Export Plug-In . SVG Version: 6.00 Build 0)  -->
<!DOCTYPE svg PUBLIC "-//W3C//DTD SVG 1.1//EN" "http://www.w3.org/Graphics/SVG/1.1/DTD/svg11.dtd">
<svg version="1.1" id="Layer_1" xmlns="http://www.w3.org/2000/svg" xmlns:xlink="http://www.w3.org/1999/xlink" x="0px" y="0px"
	 viewBox="0 0 360 360" enable-background="new 0 0 360 360" xml:space="preserve">
<path fill="none" stroke="#E1E1E1" stroke-miterlimit="10" d="M360.5,374.3c-0.7-3,0-6.3,1.4-9.1s3.5-5.2,5.6-7.5
	c4.6-5.1,9.5-10,14.7-14.7"/>
<path fill="none" stroke="#E1E1E1" stroke-miterlimit="10" d="M341.8,374.7c0.3-2.2,0.5-4.4,0.8-6.6c0.6-4.7,1.3-9.7,4.5-13.2
	c1.5-1.7,3.6-2.9,5.6-4.1c1.2-0.7,2.5-1.5,3.7-2.2c2.4-1.4,5.9-1,7.6-3.2c2.3-3,3-6.7,6-8.9c3.2-2.3,6.4-4.6,9.7-7"/>
<path fill="none" stroke="#E1E1E1" stroke-miterlimit="10" d="M332.8,375.6c0.7-3.2,4-7,2-9.7c-3.8-5.1-8.9-8.2-12.5-13.5
	c-6.6-9.7-20.1-13.6-25.3-24.2c-1-2-4.1-5.4-4.7-3.3c-0.8,2.4-1.8,5-4.3,4.8c-2.6-0.2-4.6-2.3-5.7-4.6c-1.1-2.3-1.5-4.9-2.3-7.3
	c-5.3-15.8-26.3-21.9-32-37.6c-0.3-0.9-0.6-1.8-0.4-2.7c0.5-2.1,2.9-2.9,5-3.4c16.9-4.4,30.8-16.3,43-28.7
	c12-12.2,23.4-25.8,29.2-41.9c3.4-9.2,5.5-19.9,13.6-25.3c3-2,6.6-3,9.5-5.1c8.6-6.3,8.2-18.8,11.4-28.9c1.8-5.5,4.8-10.6,7.8-15.5
	c5.5-9.1,11-18.2,16.5-27.4"/>
<path fill="none" stroke="#E1E1E1" stroke-miterlimit="10" d="M381.8,131.4c-7,3.4-11.7,11-11.9,18.7c-0.1,6.5,2.6,13.7-1,19.1
	c-2.6,3.9-7.8,5.5-10.3,9.5c-1.3,2.1-1.9,4.8-4,6.2c-2.3,1.5-5.3,0.5-8,0.8c-5.5,0.6-9,6-11.8,10.8c-2.7,4.8-5.4,9.6-8.1,14.4
	c-1.2,2.2-2.5,4.4-3.4,6.7c-1.2,2.9-1.8,6.1-3,9c-2.8,7.1-8.6,12.5-14,17.9c-6.8,6.8-13.2,13.9-19.2,21.4c-0.9,1.2-2.3,3.2-1.1,4
	c5.3,3.8,14.4-1.1,19.4,3.2c5.2,4.4,3.2,13.2,4.9,19.8c0.5,2.1,1,4.2,1.9,6.1c1.1,2.6,2.8,4.9,4.5,7.2c2.2,3.1,4.5,6.2,7.6,8.5
	c2,1.4,4.5,2.5,6.9,1.9c2.4-0.5,1.5-4.2,3.6-5.5c2.5-1.6,5.6,0.9,8.2-0.3c6.4-3,10.9-8.1,14.3-14.4c4.8-9.1,16.1-12.7,24.2-19.1"/>
<path fill="none" stroke="#E1E1E1" stroke-miterlimit="10" d="M379.6,185.2c-3,1.3-5,4.5-5,7.8c0,1,0.2,2,0.1,3.1
	c-0.1,1.9-1.2,3.5-2.5,4.9c-2.3,2.5-6,4.4-9.1,2.9c-1.9-0.9-3.2-2.9-5.2-3.4c-1-0.3-2.1-0.1-3.1-0.4c-3-0.7-4.7-4.5-7.8-4.9
	c-2.2-0.4-4.3,1.2-5.9,2.8c-7,7-10.6,16.6-13.8,25.9c-1.9,5.5-3.9,11.2-7.7,15.6c-4.3,4.9-13,7.9-12.9,14.5c0,2.8,3.2,4.8,5.9,5.6
	c1.3,0.4,2.8,0.5,4,1.3c2.4,1.7,2.1,5.2,2.3,8.2c0.4,4.9,3.3,9.6,7.6,12.2c1.4,0.8,3,1.5,3.9,2.9c0.4,0.7,0.7,1.4,1.1,2.1
	c1.1,1.7,3.5,2.3,5.5,1.9c2-0.4,3.8-1.5,5.6-2.6c4-2.6,8.3-5.4,10.5-9.7c0.8-1.6,1.3-3.3,2.1-4.8c2.2-4.3,6.7-7.1,11.4-8.4
	c4.7-1.3,9.6-1.3,14.4-1.3"/>
<path fill="none" stroke="#E1E1E1" stroke-miterlimit="10" d="M381.3,205.2c-1.4-1.6-3.8-0.3-5.6,0.7c-5.9,3.4-13.6,3.6-19.3,0.1
	c-1.4-0.8-2.6-1.9-4.1-2.5c-3.4-1.3-7.3,0.2-9.9,2.7c-2.6,2.5-4.2,5.8-5.7,9.1c-1.7,3.8-3.5,7.5-5.2,11.3c-0.8,1.7-1.5,3.3-2,5.1
	c-0.6,2.4-0.6,4.9-1.8,7c-1.7,2.9-5.7,5-4.9,8.3c0.4,1.7,2,2.8,3.5,3.7c3.4,2,7,4.1,11,4.1c5.4,0,9.9-3.8,13.8-7.6s8-7.9,13.3-8.7
	c3.1-0.5,6.3,0.2,9.5,0.5c3.2,0.2,6.7-0.1,9-2.3"/>
<path fill="none" stroke="#E1E1E1" stroke-miterlimit="10" d="M356.2,210.9c-1.2-2.6-5.2-2.4-7.9-1.3c-2.6,1.1-4.6,3.3-6.1,5.7
	c-1.7,2.7-2.8,5.7-3.9,8.7c-0.2,0.6-0.5,1.3-0.7,1.9c-0.9,3-3,6.3-1.8,9.2c0.8,1.7,3.7-0.4,5-1.8s2-3.2,2.9-4.8
	c1.3-2.2,3.1-4,4.9-5.9c1.1-1.2,2.3-2.3,3.4-3.5C354.3,216.9,357.6,213.8,356.2,210.9z"/>
<path fill="none" stroke="#E1E1E1" stroke-miterlimit="10" d="M279.6,374.9c-1-2.9,4.1-4,5.2-6.7c0.6-1.3,0.1-2.8-0.3-4.2
	c-1.4-4.4-2.8-8.8-4.2-13.3c-2-6.4-4.2-13-8.7-17.9c-3.8-4.2-9-6.8-13.7-10c-14.9-9.8-26.5-25.5-28.5-43.2c-0.2-1.4-0.3-2.9,0.2-4.2
	c1.2-3.4,5.3-4.6,8.8-5.2c9.1-1.6,18.6-2.8,26.6-7.4c7.1-4.1,12.4-10.6,17.6-16.9c4.9-5.9,9.7-11.9,14.6-17.8
	c11.1-13.5,22.3-27.3,29-43.4c1.3-3.1,2.4-6.4,4.3-9.2c3-4.5,7.8-7.5,11.6-11.3c13.8-14.1,13.1-37,23.3-54
	c4.6-7.7,11.3-13.8,17.8-19.8"/>
<path fill="none" stroke="#E1E1E1" stroke-miterlimit="10" d="M379.8,68.2c-4.8,19-22.5,32.3-29.8,50.5c-1.5,3.8-2.6,7.7-3.7,11.6
	c-13.5,44.5-44.6,81.2-76.8,114.7c-8.1,8.4-18.1,17.4-29.6,15.9c-4.2-0.5-8.2-2.4-12.4-2.1c-9.7,0.8-14.6,13-12.5,22.6
	c0.7,3.1,1.8,6.1,3.4,8.8c2.2,3.8,5.2,7.1,7.4,10.9c4.3,7.2,5.7,15.7,8.3,23.7c4.3,13,12,24.8,22.1,33.9c1,0.9,2.1,1.8,2.5,3.1
	c1.5,4.1-3.9,7.3-8.2,8s-9.9,2.5-9.9,6.9"/>
<path fill="none" stroke="#E1E1E1" stroke-miterlimit="10" d="M228,374.8c-5.6-2.2-7.9-9.2-7.3-15.2c0.5-6,3.1-11.6,4.2-17.6
	c1.2-6.4,2.3-14.1-1.7-19.2c-4.5-5.7-8.6-11.5-10.8-18.5c-3.5-11-7-22.1-8.6-33.5c-1.3-9.7,0.5-22.2,9.9-25
	c4.1-1.2,8.4-0.2,12.7,0.2c12.5,1.2,24.9-3.7,35.1-11c10.2-7.3,18.4-16.9,26.5-26.6c17.9-21.4,35.4-43.7,46.4-69.3
	c7.8-18,12.3-37.5,23-53.9c7.8-12.1,18.6-21.9,29.3-31.6"/>
<path fill="none" stroke="#E1E1E1" stroke-miterlimit="10" d="M382.8,37.6C357.5,62.8,338,94,326.5,127.8
	c-2.8,8.3-5.2,16.9-9.3,24.7c-2.5,4.9-5.7,9.4-8.9,13.9c-17,24.1-35.9,48.3-62.3,61.3c-2.7,1.3-5.6,2.6-8.6,2.9
	c-3,0.3-6.1-0.3-9.1-0.7c-23.1-3.3-47.6,4.3-64.8,20c-3.3,3-6.4,6.5-7.6,10.8c-1.2,4.3-0.5,11.3,3.9,11.8
	c7.2,0.8,13.7-12.4,19.8-8.6c4,2.5,5.4,5.4,9.4,7.8c16.8,10,18.3,40.5,9.4,57.9c-9.2,18.2-28.7,30.3-30.5,50.6"/>
<path fill="none" stroke="#E1E1E1" stroke-miterlimit="10" d="M148.2,375.7c13.1-17.9,13.4-40.9,19.8-62.1
	c2.5-8.3,8.9-23.4,0.6-25.8c-4.6-1.3-7.4,5.4-12.2,5.3c-11.6-0.1-25.8,7-34.8-0.3c-6.1-4.9,2-15.4,6.1-22.1
	c23.8-37.7,65.3-61,107.9-73.8c3.9-1.2,8-2.3,12.1-1.9c3,0.3,5.9,1.5,8.9,1.2c2.8-0.3,5.2-1.9,7.5-3.5
	c25.9-18.1,45.9-44.6,56.2-74.5c6.2-18.1,9-37.5,18.4-54.2c11.2-20,30.4-33.9,49.1-47.2"/>
<path fill="none" stroke="#E1E1E1" stroke-miterlimit="10" d="M346-12.9c-0.1,1.2,0,2.5,0.6,3.5s2,1.6,3.1,1.1
	c1-0.5,1.4-1.7,1.8-2.7c0.9-1.9,3.3-2.6,4.3-4.4c1.4-2.5-0.4-5.8-0.7-8.7c0-0.4-0.1-0.9-0.5-1.1c-0.2-0.1-0.5,0-0.7,0.2
	C349.4-22.7,346.3-17.9,346-12.9z"/>
<path fill="none" stroke="#E1E1E1" stroke-miterlimit="10" d="M340.8-28.7c-0.5-1.4,3.1,1.5,4.1,2.1c5.8,3.4-4.6,12.7-6.3,19.3
	c-0.5,2.1-1,4.6,0.5,6.2c0.6,0.7,1.5,1.1,2.4,1.5c3,1.3,6.1,2.3,9.2,2.9c0.9,0.2,1.8,0.3,2.5-0.2c1.1-0.8,0.8-2.5,0.7-3.9
	c-0.3-4,2.1-7.7,4.9-10.6c6.6-6.6,15.5-10.3,24.2-13.8"/>
<path fill="none" stroke="#E1E1E1" stroke-miterlimit="10" d="M340.5-24.1c-2.5,5.6-5.1,11.2-7.6,16.8c-1,2.3-2.1,4.7-1.9,7.2
	c0.2,3,2.2,5.6,4.7,7.2s5.5,2.3,8.5,2.8c1.8,0.3,3.6,0.4,5.2-0.4c1.7-0.8,2.7-2.5,3.9-4c3.6-4.4,9.2-6.9,14.9-7.8s11.4-0.4,17.1,0.2
	"/>
<path fill="none" stroke="#E1E1E1" stroke-miterlimit="10" d="M91.5,375c-8.1-4.7-10.5-15.4-9.6-24.7s13.1-24.5,4.3-27.6
	c-3.2-1.1-6.3,2.9-9.2,1.2c-2.9-1.7-4.6-4.9-5.4-8.2c-2.9-13.1,7.6-25.3,17.9-33.9c15.1-12.7,38.4-30.7,58.5-47.3
	c10.2-8.5,18.5-17.5,26.8-23.2c23-16,31.9-13.3,53.6-32.6c13.2-11.7,28.2-12.5,41.4-24.2c13.1-11.7,26.4-31.8,30.3-48.9
	c3.2-14,3.4-28.5,7.5-42.2c5-16.8,35.6-27.1,23.2-33.3c-5.5-2.8-9.1-12.8-13.3-22.3c-0.8-1.8-2.8,2.6-3.7,4.3
	c-5,9.8-11.8,18.7-19.9,26.2c-6.1,5.6-12.9,10.4-18.5,16.4c-5,5.4-9,11.6-13.3,17.5c-17.3,23.7-40.5,42.4-63.5,60.6
	c-8.9,7-19.9,14.4-30.7,10.9c-5.6-1.8-18.3-7.5-20.1-8.6c-3.6-2.3-6.8-4.1-10.6-2.1c-3.7,1.9-7.8,0.2-11.7,1.7
	c-10.1,3.7-19.2,22.8-28.1,34.8c-8.5,11.5-8.2,27.3-15.2,39.5c-1.1,1.9-2.4,3.9-4.5,4.5c-1.5,0.4-3.1,0.1-4.7-0.3
	c-3.7-0.9-8.3-0.2-11.2-2.8c-1.6-1.4-4-1.5-5.9-0.5c-1.9,1-3,2.8-4.2,4.6c-5.8,8.5-14,23.3-23.5,19.4c-2.3-1,0.6-4.8,0.4-7.3
	c-0.1-1.2-2.2-1-3.1-0.3c-1,0.6-1.6,1.7-2,2.8c-1.1,2.5-1.9,5.1-2.3,7.7c-0.3,1.7-0.7,3.7-2.3,4.3c-0.6,0.2-1.2,0.2-1.9,0.3
	c-2.2,0.5-3.4,2.9-3.8,5.2c-0.4,2.2-0.4,4.6-1.6,6.6c-0.4,0.6-0.9,1.2-1.6,1.5c-2.8,1-6.4-5.2-8-2.7c-1.9,2.8-2.2,6.2-4.1,9
	c-2.3,3.5-3.8,7.4-5.3,11.3c-1.9,4.9-3.7,9.7-5.6,14.6c-0.4,1.1-0.8,2.2-0.7,3.3c0.2,1.3,1,2.3,1.7,3.4c3.1,5.2,1.7,11.8,2.7,17.8
	c0.4,2.2,1,4.3,1.1,6.5c0.1,2.2-0.3,4.4-0.8,6.6c-0.6,2.8-1.2,5.6-1.8,8.3c-2.4,11.6-5.1,23.7-12.3,33.1"/>
<path fill="none" stroke="#E1E1E1" stroke-miterlimit="10" d="M-20.3,204.7c0.8,3,4,7.9,6.5,6.1c6.9-5.2,1.4-17.3,2.1-25.9
	c0.1-1.6,0.3-3.3,1.4-4.4s3.3-1.4,4,0c0.5,0.9,0.1,2,0,3c-1,6.4,5.7,12.2,4.7,18.6c-0.1,0.7-0.3,1.3-0.2,2c0.3,2.4,3.7,2.9,5.8,1.8
	s3.6-3.2,5.6-4.3c2.1-1.1,3.5,1.5,5.8,1.7c3.7,0.4,5-0.1,8.7-0.1c2.4,0,1.9-4.6,3.6-6.3c1.7-1.7,4.4-2.7,6.7-1.8
	c1.6,0.7,3,2.3,4.7,2.1c1.1-0.1,2-1,2.8-1.8c20.6-22,26.7-55.4,49.7-74.9c4.7-4,10.1-7.3,14.5-11.6s8-10.1,8-16.3c0-3.1-1-6.1-2-9
	C109,74.3,102,68,94,62.3c-4.7-3.3-11.2-9.3-9-14.6c2.6-6.1,11.2-7.2,13.3-13.5s2.4-13,3.9-19.5c3.4-15.1,13.4-28.5,14.6-44"/>
<path fill="none" stroke="#E1E1E1" stroke-miterlimit="10" d="M-19.3,43.8c0.4,7.9,10,13.7,17.2,10.4c0.6-0.3,1.2-0.6,1.9-0.7
	c2.4-0.1,3.4,3.4,5.7,4c3.1,0.9,5.5-3.9,8.7-3.5c2.5,0.4,3.3,3.5,3.5,6.1c0.9,11.8,1.1,23.6,1.7,35.4c0.3,5,0.6,10,1,15
	c0.2,2.9,0.5,5.8,1.1,8.6c1,5.1,2.9,10.1,2.9,15.3c0,4.2-1.3,8.3-2.5,12.3c-2.8,9.2-12.5,20.1-6.9,27.9c3,4.2,10.2-2.1,13.8-5.9
	c7.9-8.3,10-20.3,11.8-31.5c1.1-7.2,2.3-14.4,3.4-21.6c0.7-4.5,1.4-9.2,0.2-13.7c-0.3-1.2-0.8-2.4-0.9-3.7c-0.2-2,0.5-4,1.1-5.9
	c2.4-7.6,3-15.7,3.6-23.6c0.6-7.9,1.2-15.8,0.8-23.7c-0.4-8.5-5-21.2,2.6-24.8c4.3-2,9.4-2.3,12.1-6.2c2.7-4,3.7-8.8,4.3-13.6
	c1.2-9.8,0.7-19.7-1.4-29.4"/>
<path fill="none" stroke="#E1E1E1" stroke-miterlimit="10" d="M-23.5-18.1c3.4-0.5,7,0.9,9.2,3.5c2.5,3,3,7.1,3.7,10.9
	C-8.4,7-12.7,19.5-6.4,28.6c0.6,0.9,2.3,0.7,3.2,0.2c4.5-2.7,4.7-9.8,9.1-12.6c2.4-1.5,5.2-2.3,7.7-3.6c3-1.5,5.6-3.5,8.3-5.6
	c1.3-1.1,2.7-2.1,4-3.2c2.7-2.2,5.5-4.3,7.5-7.2c0.3-0.4,0.6-0.8,1-1.1C35.5-5,36.7-4,37.7-3.3c3.7,2.4,8.5-0.8,11.1-4.3
	c5.2-7.1,6.9-16.6,4.5-25"/>
<path fill="none" stroke="#E1E1E1" stroke-miterlimit="10" d="M121.2-26.5c1,5,2.2,10.3,5.5,14.2c3.4,4,8.9,6.3,10.9,11.1
	c1.5,3.6,0.6,7.8,0.9,11.7c0.6,7.4,5.5,13.8,7.5,21c1.9,6.6,1.3,13.7,2.3,20.5c0.4,3,1.1,5.9,1.1,8.9c0.1,4.2-1,8.3-1.7,12.4
	c-1.6,9.8-0.5,20,3.1,29.2c3.7,9.5,10.4,18.3,19.7,22.6s21.2,3.5,28.7-3.5c3.3-3.1,5.5-7.2,8.3-10.8c7.9-10.4,19.8-17.1,27.9-27.3
	c2.7-3.5,5-7.3,7.5-10.9c12.8-18.2,32.7-30.4,46.6-47.8c8.3-10.4,14.4-22.5,20.3-34.4c3.1-6.2,6.2-12.4,9.3-18.6"/>
<path fill="none" stroke="#E1E1E1" stroke-miterlimit="10" d="M307.7-25.4c-2.2,3.6-3.6,7.7-4.1,11.9c-0.2,1.7-0.3,3.5-0.8,5.2
	c-0.7,2.1-2.1,3.8-3.5,5.4c-6.1,7.2-12.8,14.2-16.6,22.8c-1.6,3.6-2.7,7.4-4.7,10.7c-7,11.8-23.1,15-32.2,25.4
	c-2.3,2.7-4.1,5.7-6,8.7c-3.3,5.2-7,10.2-10.7,15.1c-4.2,5.6-8.7,11.6-15.2,14.3c-2.4,1-5.3,1.7-6.8,3.9c-0.9,1.4-1.1,3.1-1.4,4.7
	c-2.3,10.7-14.4,18.2-25,15.6c-2.6-0.6-5.1-1.8-7.5-2.9c-2-1-4.2-2-5.5-3.8c-0.7-1-1.1-2.1-1.5-3.3c-3.6-10.1-7.2-21-4.1-31.2
	c1.1-3.6,3-7.3,2-10.9c-0.4-1.3-1.1-2.5-1.6-3.8c-0.9-2.6-0.5-5.5-0.4-8.3c0.4-8.8-1.5-17.5-3.5-26c-1.1-4.9-2.2-9.8-3.3-14.8
	c-3.4-15-6.8-30.2-6.3-45.6"/>
<path fill="none" stroke="#E1E1E1" stroke-miterlimit="10" d="M154.5-24.6c-0.5,4.6,5.2,7.1,8.1,10.9c3.4,4.5,2.4,10.9,3.9,16.3
	c0.5,1.8,1.3,3.5,1.8,5.2c0.6,2.2,0.8,4.5,1.1,6.7c0.7,7.3,1.4,14.6,2.1,21.9c0.4,4.1,0.8,8.2,0.1,12.2c-0.7,3.9-2.2,8.1-0.2,11.5
	c0.6,0.9,1.4,1.7,1.8,2.7c0.7,1.7,0.2,3.6-0.3,5.4c-0.8,3-1.7,6-2.5,9c-0.5,1.9-1.1,4-0.5,6c0.6,1.9,2.9,1.5,4.7,2.5
	c5.4,3,2.1,12.5,6.4,16.8c4.3,4.3,12,5.7,16.6,1.6c1.9-1.7,3-4,4.1-6.3c1.6-3.3,3.2-6.7,4.8-10c0.8-1.6,1.6-3.3,2.9-4.4
	c1.4-1.1,3.5-1.6,5-0.6c0.8,0.5,1.4,1.5,2.3,1.6c0.7,0.1,1.3-0.2,1.9-0.5c3.4-2,5-5.9,6.4-9.6c0.7-1.9,1.4-4,2.8-5.5
	c3.1-3.5,8.9-4.2,10.9-8.4c1.1-2.2,0.8-4.8,1.2-7.3C241,47,246.5,43,252,40.5c5.5-2.5,11.5-4.3,15.9-8.4c6-5.7,7.4-14.5,10.2-22.4
	c3.9-11,10.7-20.7,17-30.6c1.4-2.3,2.9-5.2,1.6-7.5"/>
<path fill="none" stroke="#E1E1E1" stroke-miterlimit="10" d="M277.7-23.2c-0.7-0.1-0.7-1.5-1.5-1.5c-12.6,0.4-13.2,22.8-11.8,35.3
	c0.2,2.1,0.9,4.2,0.5,6.3c-0.4,2.1-2.4,4.1-4.4,3.5c-0.6-0.2-1.1-0.5-1.7-0.7c-2.7-0.9-5.1,1.9-6.7,4.3c-3.9,5.9-8.6,11.2-13.3,16.6
	c-1.9,2.1-3.8,4.3-6.3,5.7c-4.3,2.4-9.9,2-13.9-0.9c-1-0.7-1.9-1.6-3.1-1.7c-1.1-0.1-2.1,0.6-3.1,1.1c-2.7,1.3-6,1.7-7.9,4
	c-1,1.2-1.5,2.7-2.2,4c-1.7,3.5-9.5,6.4-7.3,9.6c3,4.4,14,8.4,6.3,22.2c-1.2,2.2-2.1,6.3-4.4,5.3c-1.9-0.8-4-1.6-5.2-3.3
	c-1.8-2.6,0.4-6.3,0.6-9.4c0.1-0.9,0.1-1.9-0.4-2.6c-0.9-1.3-2.9-1-4.5-1c-1.6,0.1-1.8-1.9-3.3-2.5c-1.3-0.6-1.5,2.4-2.7,3.1
	c-1.2,0.7-3,0.6-3.8-0.6c-1.1-1.7,0.7-3.8,1.6-5.6c1.5-2.9,0.8-6.4,0.1-9.6c-0.8-3.3-1.5-6.6-2.3-10c-0.3-1.4-0.7-2.9-0.5-4.3
	c0.2-2.1,1.5-4,1.9-6.1c0.7-4-1.9-7.9-2.4-11.9c-0.6-5.2,2.4-10.4,1.2-15.5c-0.6-2.4-2-4.6-2.3-7.1c-0.5-4.2,2.4-7.9,5.2-11.1
	c6.4-7.4,12.8-14.9,19.2-22.3"/>
<path fill="none" stroke="#E1E1E1" stroke-miterlimit="10" d="M209.7-24.8c-3.3,5-3.8,11.2-5.3,17c-1.7,6.4-4.7,12.5-8.8,17.7
	c-1.6,2-3.4,4-4.7,6.2c-2.1,3.7-2.7,8.1-3.1,12.4c-0.8,7.6-7.1,18.2-1,22.9c2.8,2.2,6.2-3.7,7.9-6.8c1.7-3.1,2.7-6.6,4.1-9.9
	c0.2-0.5,0.5-1.2,1.1-1.3c0.9-0.2,1.5,0.8,2.3,1.1c1.8,0.8,3.3-1.5,4.9-2.7c1.8-1.5,4.5-1.5,6.7-0.9s4.3,1.9,6.4,2.9
	c6.2,3,14.5,3.6,19.4-1.3c1.9-1.9,3.1-4.4,4.2-6.9c4.5-9.9,8.8-20,13.2-30c0.9-2.1,1.8-4.1,2.7-6.2c2.3-5.3,4.6-10.5,6.8-15.8"/>
<path fill="none" stroke="#E1E1E1" stroke-miterlimit="10" d="M258.8-24.8c-3.5,5.2-7,10.5-10.5,15.7c-1,1.5-2.1,3.1-2.8,4.8
	c-1.3,3-1.7,6.2-2.5,9.3c-1.2,4.5-3.3,8.8-6.2,12.5c-2.3,2.9-5.5,5.6-9.2,5.8c-3.8,0.2-7.1-2.2-10.1-4.4c-1.6-1.2-3.2-2.4-4.2-4
	c-2.2-3.6-1.3-8.2-0.1-12.3c3-10.8,6.8-21.3,11.3-31.6"/>
<path fill="none" stroke="#4E9BD7" stroke-miterlimit="10" d="M260.2,137c3-4.9,7.2-9.2,12.1-12.3c0.8-0.5,1.6-1,2.5-0.9
	c1.1,0.1,2,0.8,3.1,0.9c1.6,0,2.8-1.6,2.8-3.2s-0.7-3-1.4-4.4s-2.7-3.9-1.3-4.5c1.4-0.5,3,0.7,3.7-0.6c0.2-0.4,0.3-1,0.7-1.2
	c0.7-0.5,1.6,0,2.4,0.2c1.5,0.3,3-0.9,3.3-2.4s-2.3-3.4-1.1-4.2c2.8-2,7.6-3.9,4.3-9.3c-0.5-0.8-0.9-1.5-1.7-2
	c-0.3-0.2-0.7-0.3-1-0.6c-0.4-0.6,0-1.4,0.6-1.8c0.6-0.3,1.7,0.3,2.1-0.2c1.2-1.6-3.2-2.8-3.6-4.8c-0.2-1.3,2.5-1.1,3.3-2.2
	c0.9-1.2-1.9-2.3-3.4-2.4c-1.5-0.1-3,0.2-4.4-0.3c-1.4-0.5-2.9-2.8-1.6-3.5c2.4-1.2,5.2,2.9,7.7,1.9c0.9-0.4,1.4-2.1,0.8-3
	c-2.4-4.1-10.8-6.2-8.9-10.6c1.1-2.5,4.2-3.3,5.7-5.6c0.5-0.7,1-1.5,1.4-2.2c0.4-0.6,0.8-1.3,1.2-1.9c1.5-2.8-0.1-7,2.2-9.1
	c2-1.8,4.7-2.3,6.6-4.2c1.6-1.6,3.4-3,5.3-4.3c0.9-0.6,1.9-1.2,3-1.3c1.8-0.1,3.5,1.1,5.3,1.5c3.2,0.6,6.6-2.4,6.3-5.7
	c-0.1-1.1-0.4-1.8-0.8-2.9c-0.2-0.7-0.5-1.5-0.7-2.2c-0.3-0.8-0.5-1.6-0.5-2.4c0.1-3.9,1.1-7.7,0.5-11.6c-0.2-1-0.4-2-0.3-3
	c0.1-1.4,0.9-2.6,1.4-3.9c1-2.6,0.9-5.6,1.7-8.3c0.3-1.2,0.8-2.4,1.3-3.6c1.6-3.8,3.2-7.5,4.8-11.3c1.3-3,2.6-6.1,4.8-8.6"/>
<path fill="none" stroke="#4E9BD7" stroke-miterlimit="10" d="M379.7,1.9c-2,2.1-4.5,3.7-7.2,4.9c-1.8,0.7-3.7,1.3-4.9,2.9
	c-0.7,1-1,2.3-1.5,3.5c-1,2.4-2.8,4.5-4.9,6c-1.5,1.1-3.1,2-4.7,2.9c-5.2,2.9-10.4,5.8-15.6,8.6c-1.9,1.1-4,2.2-6.2,2
	c-0.7,0-1.4-0.2-2-0.2c-1.2,0.1-2.3,1-3.5,1.3c-1.2,0.3-2.5,0.1-3.8-0.1c-2.3-0.4-4.6-0.8-6.9-1.2"/>
<path fill="#E8E8E8" stroke="#D3D3D3" stroke-miterlimit="10" d="M360.3,330.3c0,0.8-0.2,1.6-0.7,2.2s-1.4,0.9-2.1,0.7
	c-0.4-0.1-0.7-0.3-1-0.5c-0.4-0.1-0.9-0.1-1.3-0.1c-1.1,0.1-2.2,0.4-3.1,0.9c-0.9,0.6-1.6,1.6-1.7,2.7c0,0.3-0.5,1-0.7,1
	c-3.1,0.7-5.6-0.1-7.9-2.3c-0.2-0.2-0.6-1.9-0.8-3c-0.1-0.5,0-1-0.1-1.4c-0.3-0.8,0.3-1.9,0.9-2.4c0.6-0.6,1-0.9,1.8-1.1
	c1.7-0.3,3.7-0.5,5.3,0c0.9,0.3,1.9,0.6,2.8,0.5c1.1-0.2,2.2-0.8,2.1-2c0-1.4,0.3-2.4,0.7-3.4c0.6-1.4,0.6-2.9,1.2-4.3
	c0.2-0.5,0.4-0.9,0.9-1.2c0.3-0.2,0.6-0.3,0.9-0.4c0.4-0.2,0.7-0.6,0.9-0.9c1.6-2,3.1-4,4.7-6.1c1-1.3,2-2.6,2.7-4.1
	c0.6-1.3,1.2-3.1,2.7-3.2c1-0.1,1.8,0.7,2.5,1.4c1.8,1.8,3.5,3.7,5.9,4.5c1,0.3,2.1,0.5,2.9,1.2c0.8,0.8,1,1.9,1.1,3
	c0.2,1.6,0.2,3.4-0.6,4.8c-0.4,0.7-0.9,1.2-1.4,1.8c-1.5,1.5-3.1,2.9-4.7,4.3c-3.3,2.7-6.6,5.2-10.1,7.6c-0.2,0.2-0.5,0.3-0.8,0.3
	c-0.6,0-1-0.6-1.2-1.2s-0.9-1.1-1.4-0.7C360.3,329.3,360.3,329.8,360.3,330.3z"/>
<path fill="none" stroke="#4E9BD7" stroke-miterlimit="10" d="M91.8,244.4c-0.8,0.5-1.4,1.1-1.9,1.9c-1.5,2.2-2,5.6,0,7.3
	c0.7,0.6,1.8,1.2,1.7,2.1c0,0.6-0.6,1-1,1.4c-2.1,1.8-3.8,4-5,6.6c-1.4,3-2,6.4-2.9,9.6c-0.9,3.2-2.3,6.5-4.9,8.6
	c-1.6,1.3-3.6,2.3-4.3,4.2c-0.9,2.4,0.6,5.7-1.1,7.6c-0.5,0.5-1.1,0.8-1.7,1.2c-2,1.5-3,3.9-4.3,6c-2.4,3.8-6.3,6.6-8.4,10.6
	c-1.1,2.2-3.3,3.5-5.3,5c-1.5,1.1-2.9,2.6-4.2,4c-1.5,1.6-3,3.3-3.5,5.4c-0.4,1.5-0.2,3.2,0.1,4.7c0.5,3.8,1.1,7.7,2.2,11.4
	c0.3,1,0.7,1.9,1.2,2.8c1.6,2.7,4.7,4.6,5.5,7.6c0.3,1.2,0.2,2.5,0.4,3.8c0.4,2.6,2.2,4.9,2.1,7.6c-0.1,2.1-1.3,4-1.3,6
	c0,2.1,1.3,4.2,0.9,6.3"/>
<path fill="none" stroke="#D6D6D6" stroke-miterlimit="10" d="M121-23.3c-1,2.6-1.9,5.1-2.9,7.7c-0.9,2.5-1.9,5-1.7,7.7
	c0.2,2.4,1.3,4.7,2.1,7c1.6,4.4,2.1,9.2,2.6,13.9c0.8,7,1.6,14,2.4,21c0.6,5.3,1.7,11.4,6.4,13.8c1,0.5,2.4,1.5,1.7,2.5
	c-0.4,0.5-1.2,0.6-1.4,1.2c-0.2,0.6,0.5,1.1,1,1.6c0.9,0.9,1.1,2.2,1.2,3.5c1.6,15.4,0.5,31.2-3.3,46.2c-0.5,2-0.4,3.9-0.1,5.9
	c0.2,1.7,0.4,3.4,0.5,5.2c0.3,3.5,0.3,7.1-1,10.4c-0.5,1.2-1.1,2.2-1.5,3.4c-0.7,1.9-0.8,4-0.8,6c0,1.5,0.1,2.9,0.8,4.2
	c0.4,0.8,1,1.5,1.6,2.2c1.6,1.8,3.1,3.6,4.7,5.5c1.1,1.2,2.1,2.5,3.5,3.4c1,0.7,2.2,1.3,2.3,2.5c0.1,1.1-1,2-0.9,3.1
	c0.1,1,1,1.7,1.9,2.1c0.9,0.5,1.9,0.9,2.3,1.9"/>
<path fill="none" stroke="#D6D6D6" stroke-miterlimit="10" d="M341,332.5c-3.3-0.2-4.4,4.6-7.3,6.1c-1.5,0.8-3.4,0.5-4.9,1.4
	c-1.1,0.6-1.7,1.8-2.6,2.6c-2.4,2.2-6,2-8.9,3.4c-2.9,1.4-4.8,4.2-7.5,5.9c-2.8,1.7-6.4,2.1-9,4.3c-2.4,2-3.4,5.3-5.7,7.4
	c-2.8,2.6-6.8,3.1-10.6,3.3c-4.6,0.2-8.7-1.1-13.1-2.2c-2.3-0.6-3.6-1.4-6-1.8c-6-1-14.1,2.3-19.8,0.1c-2.4-0.9-4.4-2.5-6.7-3.5
	c-2.5-1-5.3-1.4-7.9-2.2c-6.1-2.1-10.8-7.3-16.7-9.9c-1.5-0.6-3-1.1-4.3-2.1c-1.6-1.2-2.6-3.1-3.7-4.8c-3-4.7-6.9-8.8-11.4-12.1
	c-3.8-2.7-5.7-7.4-9-10.7c-1.4-1.4-2.9-2.8-4.6-3.7c-3.3-1.9-7.2-2.3-10.9-2.6c-3.6-0.3-7.7-0.5-10.3,2c-1.3,1.3-2.8,3.3-4.4,2.5
	c-0.6-0.3-0.9-0.8-1.4-1.2c-1.1-0.8-2.7-0.7-3.9-0.1c-1.2,0.6-2.1,1.7-3.1,2.7c-4.2,4.4-9.1,7.9-13.5,12.1c-4.4,4.1-8.4,9-9.9,14.9
	c-1,4-0.8,8.1-1.3,12.2c-0.6,4.1-2.2,8.3-5.7,10.5c-1.6,1-3.6,1.5-5.1,2.7s-2.4,3.6-1.1,5"/>
<path fill="#7BBCEB" stroke="#4E9BD7" stroke-miterlimit="10" d="M219.3,126.1c6.5-3.1,10.2-10.1,15.7-14.1c0.8-0.6,3.2-0.5,4,0
	c9.6,6,14.1,18.1,22,26c2.6,2.5,3.5,6.9,4,11c0.1,1,0.1,3.1-2,4c-2.9,1.2-4.9,2.2-8,3c-2.7,0.7-4.2,2.6-7,4c-2.2,1.1-5.7,1.7-8,3
	c-9.8,5.4-18.7,13.2-27,22c-1.9,2.1-4,3-6,4c-20.9,10.2-43.8,17.2-59,38c-3,4-7.5,6-12,9c-1.2,0.8-1.9,2.1-3,3c-5.6,4.6-12,8-17,13
	c-1,1-2,1.2-3,1.2c-7.1,0.2-13.6-4.2-19.8-7.7c-1.1-0.6-2.8-2.4-1.7-2.8c1-0.4,1.8-1,2-2c0.7-2.9,1.3-5.8,2-8.8
	c0.2-0.8,0.3-1.8-0.4-2.3c-0.5-0.3-1.1-0.2-1.6-0.1c-1.6,0.3-3.3,0.3-4.6-0.6c-1.3-0.9-2-2.9-1-4.1c0.4-0.5,1.1-0.8,1.7-1.2
	c5.6-3,8.5-10.1,6.8-16.2c-0.5-1.6-1.2-3.1-1.6-4.7c-1.3-5.2,1.2-10.5,3.6-15.3c2.6-5.2,5.2-10.4,7.8-15.6c2.1-4.3,4.6-8.3,9-10.2
	c3-1.3,5.9-0.9,9.2-0.7c4.3,0.3,7.7,0.5,12.2,0.7c1.2,0,3.8-0.2,4.7-1s1.3-1.9,1.7-3c0.4-1.1,0.8-2.3,1.3-3.4c0.9-2.4,2-5,4.3-6.1
	c2.7-1.3,5.8,0,8.5,1c3.5,1.3,7.1,2.3,10.8,2.8c2.6,0.4,5.2,0.6,7.8,0.1c1.5-0.3,2.9-0.9,4.3-1.5c7.3-3.2,14-7.7,20.7-12.1
	C206.7,134.5,212.6,129.3,219.3,126.1z"/>
<g>
	<g>
		<path fill="none" stroke="#585858" stroke-miterlimit="10" d="M330.4-24.2c-0.7,0.2-1.3,0.4-1.9,0.7"/>
		<path fill="none" stroke="#585858" stroke-miterlimit="10" stroke-dasharray="3.9941,0.9985" d="M327.6-23.1
			c-6.4,3.4-9.9,11.4-9.7,18.9c0.2,8.5,4.1,16.3,7.7,24c1.7,3.5,3.3,7.5,2.1,11.2c-0.7,2-2,3.6-3.4,5.1
			c-5.5,5.9-11.8,11.2-18.7,15.6c-2.4,1.6-5,3.1-6.7,5.4c-1.6,2.2-2.2,4.8-2.8,7.4c-1.3,6.3-2.1,12.7-2.2,19.2
			c-0.2,8,0.5,16.2-1.6,23.9c-3.8,13.7-15.6,23.7-21.2,36.8c-1.7,3.9-2.8,8.2-5.9,11.2c-1.8,1.7-4,2.7-6.2,3.7
			c-3.4,1.6-6.7,3.2-10.1,4.7c-8.6,4.1-17.3,8.2-24.8,14.2c-4.5,3.7-8.5,8-13.2,11.4c-4.9,3.6-10.4,6.3-15.9,8.9
			c-8.1,3.9-16.3,7.8-24.4,11.7c-2.8,1.4-5.7,2.7-8.1,4.6c-3,2.4-5.4,5.5-7.9,8.4c-9.1,10.8-20.4,19.8-32.9,26.3
			c-6.8,3.5-14.1,7.4-19.4,12.9c-1.7,1.7-3.6,3.8-6,3.6c-0.7,0-1.4-0.3-2.1-0.3c-2.7-0.3-5.1,1.8-6.3,4.3c-1.2,2.4-1.7,5.2-2.7,7.7
			c-2.2,5.4-7,9.3-10.7,13.9c-5.8,7.2-8.9,16.4-8.7,25.6c0,1.1,0.1,2.3,0.8,3.2c0.6,0.8,1.6,1.2,2.5,1.6c3.6,1.8,6.5,4.9,8.1,8.6
			c1.1,2.5,1.5,5.2,2.4,7.9c2.4,7.8,8,14.4,9.3,22.5c0.3,1.6,0.5,3.6,1.9,4.4c0.7,0.4,1.5,0.5,2.2,0.6c7.6,1,15.3,4.7,19.5,11"/>
		<path fill="none" stroke="#585858" stroke-miterlimit="10" d="M113,377.3c0.4,0.6,0.7,1.1,1,1.7"/>
	</g>
</g>
<g>
	<g>
		<path fill="none" stroke="#585858" stroke-miterlimit="10" d="M124.6-25.8c-0.6,0.4-0.8,1-0.8,1.7"/>
		<path fill="none" stroke="#585858" stroke-miterlimit="10" stroke-dasharray="3.9671,0.9918" d="M123.8-23.1
			c0.1,0.5,0.2,1,0.4,1.5c1.5,4.4,4.2,8.4,7.5,11.6c1.7,1.6,3.6,3.1,4.5,5.3c0.6,1.5,0.6,3.2,0.6,4.9c-0.3,16.4-3.1,33.4,2.6,48.7
			c0.7,1.9,1.6,3.8,1.9,5.8c0.4,2.3,0.1,4.6-0.2,6.9c-1.6,11.4-4,22.7-7,33.8c-0.7,2.6-1.5,5.3-1.5,8.1c0,2.2,0.5,4.4,1,6.6
			c2.2,9.4,4.5,18.8,6.7,28.3"/>
		<path fill="none" stroke="#585858" stroke-miterlimit="10" d="M140.4,138.7c0.2,0.6,0.3,1.3,0.5,1.9"/>
	</g>
</g>
<g>
	<g>
		<path fill="none" stroke="#585858" stroke-miterlimit="10" d="M92.1,265.8c-0.2-0.6-0.3-1.3-0.3-2"/>
		<path fill="none" stroke="#585858" stroke-miterlimit="10" stroke-dasharray="4.0027,1.0007" d="M91.8,262.8
			c0-2.1,0.1-4.4-1.1-5.6c-1.7-1.8-3.2-2.1-5.6-1.9s-4.8,1.1-7.2,1.7c-3.8,1-8.2,1.7-10.2,5.1c-1.6,2.8-0.8,6.3-1.4,9.5
			c-0.6,2.9-2.3,5.5-4,7.9c-3.8,5.5-7.6,11-11.3,16.4c-0.4,0.5-0.8,1.1-1.4,1.4c-0.7,0.3-1.6,0.1-2.4,0.1c-3.7-0.2-7.4,3-10.8,1.6
			c-1.1-0.4-1.9-1.3-3-1.7c-2.1-0.8-4.4,0.1-6.5,1.1c-8.8,4.3-16.7,10.5-23,18.1c-1,1.2-2,2.5-2.5,3.9c-0.7,1.9-0.7,4-0.8,6.1
			c-0.3,4.6-1.5,9.1-2.6,13.6c-1.5,5.7-3,11.3-4.5,17c-2.3,8.8-4.8,17.8-9.7,25.4"/>
		<path fill="none" stroke="#585858" stroke-miterlimit="10" d="M-16.5,382.9c-0.4,0.6-0.8,1.1-1.1,1.6"/>
	</g>
</g>
<g>
	<g>
		<path fill="none" stroke="#585858" stroke-miterlimit="10" d="M136,89c-0.7,0-1.3,0.1-2,0.2"/>
		<path fill="none" stroke="#585858" stroke-miterlimit="10" stroke-dasharray="4.0193,1.0048" d="M133.1,89.5
			c-3.5,1.2-6.3,4.3-7.8,7.7c-1.9,4.4-2.3,9.2-3,14c-1.6,10.7-5.4,21-11.1,30.2c-1.8,2.9-3.8,5.8-6,8.4c-1.5,1.8-3.1,3.6-4.4,5.5
			c-1.5,2.3-2.5,4.9-3.7,7.4c-4.6,10.3-11.2,20.1-13,31.3c-1,6-0.5,12.2-2,18.1c-0.9,3.7-2.5,7.1-3.3,10.8c-0.6,2.8-1,5.4-0.1,7.9"
			/>
		<path fill="none" stroke="#585858" stroke-miterlimit="10" d="M79,231.3c0.3,0.6,0.6,1.2,1,1.7"/>
	</g>
</g>
<g>
	<g>
		<path fill="none" stroke="#585858" stroke-miterlimit="10" d="M-20.6,309.3c0.2,0.6,0.5,1.2,0.7,1.9"/>
		<path fill="none" stroke="#585858" stroke-miterlimit="10" stroke-dasharray="4.0191,1.0048" d="M-19.6,312.2
			c0.5,1.4,1,2.7,1.5,4.1c0.3,0.7,0.5,1.4,1.1,1.9c1.9,1.5,4.5-1.1,5.2-3.4c2.7-9,3.2-18.6,8.8-25.6c1.8-2.2,4.1-6.6,5.8-8.9
			c2-2.8,3.8-6.7,7.2-6.9c10.6-0.6,14.4-6.2,22.2-7.2c7-0.9,14.8-7.8,20.2-6.2c3.2,0.9,1.1,7.2,4.1,8.5c2.2,1,5.3,0.2,7.9-1"/>
		<path fill="none" stroke="#585858" stroke-miterlimit="10" d="M65,267.2c0.6-0.3,1.2-0.7,1.7-1"/>
	</g>
</g>
<g>
	<g>
		<path fill="none" stroke="#585858" stroke-miterlimit="10" d="M66.8,250c0.2,0.5,0.6,1,1.2,1.6"/>
		<path fill="none" stroke="#585858" stroke-miterlimit="10" stroke-dasharray="3.8931,0.9733" d="M68.7,252.3
			c0.8,0.7,1.7,1.2,2.4,1.3c1.4,0.2,2.8,0,4.1,0c2.4-0.1,4.8,0.2,7.1,0.9"/>
		<path fill="none" stroke="#585858" stroke-miterlimit="10" d="M82.8,254.6c0.6,0.2,1.3,0.5,1.9,0.7"/>
	</g>
</g>
<g>
	<g>
		<path fill="none" stroke="#585858" stroke-miterlimit="10" d="M4.1,315.8c-0.2-0.6-0.3-1.3-0.4-2"/>
		<path fill="none" stroke="#585858" stroke-miterlimit="10" stroke-dasharray="3.9869,0.9967" d="M3.7,312.8
			c-0.1-1.9,0.3-3.8,1.2-5.4c0.6-1.2,1.5-2.2,2-3.4c0.6-1.4,0.8-2.8,1-4.3c0.9-6.7,1.7-13.7,0.2-20.3"/>
		<path fill="none" stroke="#585858" stroke-miterlimit="10" d="M8,278.9c-0.2-0.7-0.4-1.3-0.8-1.8"/>
	</g>
</g>
<g>
	<path fill="none" stroke="#585858" stroke-width="2" stroke-miterlimit="10" d="M-22.6,339.4c12.8-15.5,4.3-41.2,16.7-57.1
		c2.9-3.7,6.8-6.6,10.9-8.9c7.3-4.2,15.2-6.9,23.2-9.6c8.1-2.7,16.2-5.5,24.2-8.2c8.6-2.9,17.7-6.2,23.1-13.5
		c2.4-3.3,3.9-7.2,5.3-11.1c3.2-8.5,6.3-17.1,9-25.8c2.3-7.6,4.2-15.3,7.3-22.7c6.3-15.1,17.5-28.1,31.5-36.6
		c7.3-4.4,16.7-7.6,24-3.2c2.9,1.7,5.9,3.5,9,4.8c2.5,1.1,6,1.8,8.8,1.5c11.7-1.1,21.7-5.9,30.3-13.9c13.7-12.7,30.7-22.2,43.6-35.8
		c4.3-4.5,8.5-9,12.3-13c4.4-4.7,8.9-9.4,13-14.3c2.1-2.6,4.2-5.2,6.3-7.8c1.4-1.8,2.8-3.5,4.2-5.3c4.2-5.4,8.5-10.8,11.3-17.1
		c0.7-1.6,1.4-3.4,2.8-4.6c1.1-1,2.5-1.5,3.5-2.6c1-1.1,1.4-2.7,1.9-4.2c1.1-3.9,2.7-7.6,4.3-11.4c6.6-15.7,13.2-31.3,19.8-47
		c0.5-1.1,1.5-2.4,2.6-1.9"/>
	<g>
		<path fill="none" stroke="#FFFFFF" stroke-miterlimit="10" d="M-22.6,339.4c0.9-1,1.6-2.1,2.3-3.3"/>
		<path fill="none" stroke="#FFFFFF" stroke-miterlimit="10" stroke-dasharray="7.9344,7.9344" d="M-17.1,328.9
			c4.7-15,1.3-33.9,11.2-46.6c2.9-3.7,6.8-6.6,10.9-8.9c7.3-4.2,15.2-6.9,23.2-9.6c8.1-2.7,16.2-5.5,24.2-8.2
			c8.6-2.9,17.7-6.2,23.1-13.5c2.4-3.3,3.9-7.2,5.3-11.1c3.2-8.5,6.3-17.1,9-25.8c2.3-7.6,4.2-15.3,7.3-22.7
			c6.3-15.1,17.5-28.1,31.5-36.6c7.3-4.4,16.7-7.6,24-3.2c2.9,1.7,5.9,3.5,9,4.8c2.5,1.1,6,1.8,8.8,1.5c11.7-1.1,21.7-5.9,30.3-13.9
			c13.7-12.7,30.7-22.2,43.6-35.8c4.3-4.5,8.5-9,12.3-13c4.4-4.7,8.9-9.4,13-14.3c2.1-2.6,4.2-5.2,6.3-7.8c1.4-1.8,2.8-3.5,4.2-5.3
			c4.2-5.4,8.5-10.8,11.3-17.1c0.7-1.6,1.4-3.4,2.8-4.6c1.1-1,2.5-1.5,3.5-2.6c1-1.1,1.4-2.7,1.9-4.2c1.1-3.9,2.7-7.6,4.3-11.4
			c6-14.3,12.1-28.6,18.1-42.9"/>
		<path fill="none" stroke="#FFFFFF" stroke-miterlimit="10" d="M323.3-27.4c0.1-0.1,0.1-0.3,0.2-0.4c0.5-1.1,1.5-2.4,2.6-1.9"/>
	</g>
</g>
<text transform="matrix(1 0 0 1 315.356 216.2068)"><tspan x="0" y="0" fill="#585858" font-family="'Verdana-Italic'" font-size="8">Tenaya</tspan><tspan x="10" y="9.6" fill="#585858" font-family="'Verdana-Italic'" font-size="8">Peak</tspan></text>
<text transform="matrix(1 0 0 1 320.0664 310.9007)"><tspan x="0" y="0" fill="#585858" font-family="'Verdana-Italic'" font-size="8">Mildred</tspan><tspan x="10.6" y="9.6" fill="#585858" font-family="'Verdana-Italic'" font-size="8">Lake</tspan></text>
<text transform="matrix(0.8773 -0.4799 0.4799 0.8773 145.7725 195.4244)" fill="#FFFFFF" font-family="'Verdana-Italic'" font-size="8">Tenaya      Lake</text>
<path fill="none" d="M121.4,292.7c-6.1-4.9,2-15.4,6.1-22.1c23.8-37.7,65.3-61,107.9-73.8c3.9-1.2,8-2.3,12.1-1.9"/>
<text transform="matrix(0.8588 -0.5123 0.5123 0.8588 180.2545 223.7076)"><tspan x="0" y="0" fill="#7D7D7D" font-family="'Verdana-Italic'" font-size="7">8</tspan><tspan x="4.4" y="0" fill="#7D7D7D" font-family="'Verdana-Italic'" font-size="7" rotate="1.2">4</tspan><tspan x="8.8" y="0.1" fill="#7D7D7D" font-family="'Verdana-Italic'" font-size="7" rotate="2.5">0</tspan><tspan x="13.2" y="0.3" fill="#7D7D7D" font-family="'Verdana-Italic'" font-size="7" rotate="3.6">0</tspan></text>
<path fill="none" d="M155.3,13.2c1.1,4.9,2.2,9.8,3.3,14.8c1.9,8.6,3.9,17.3,3.5,26c-0.1,2.8-0.5,5.6,0.4,8.3"/>
<text transform="matrix(0.2187 0.9758 -0.9758 0.2187 156.1271 28.3804)"><tspan x="0" y="0" fill="#7D7D7D" font-family="'Verdana-Italic'" font-size="7">8</tspan><tspan x="4.4" y="0" fill="#7D7D7D" font-family="'Verdana-Italic'" font-size="7" rotate="0.9">6</tspan><tspan x="8.8" y="0.1" fill="#7D7D7D" font-family="'Verdana-Italic'" font-size="7" rotate="2.6">0</tspan><tspan x="13.1" y="0.2" fill="#7D7D7D" font-family="'Verdana-Italic'" font-size="7" rotate="5.2">0</tspan></text>
<path fill="none" d="M226.3,246.1c12.5,1.2,24.9-3.7,35.1-11c10.2-7.3,18.4-16.9,26.5-26.6c17.9-21.4,35.4-43.7,46.4-69.3"/>
<text transform="matrix(0.6179 -0.7862 0.7862 0.6179 301.9196 195.4498)"><tspan x="0" y="0" fill="#7D7D7D" font-family="'Verdana-Italic'" font-size="7">8</tspan><tspan x="4.5" y="0" fill="#7D7D7D" font-family="'Verdana-Italic'" font-size="7" rotate="-0.6">8</tspan><tspan x="8.9" y="0" fill="#7D7D7D" font-family="'Verdana-Italic'" font-size="7" rotate="-1.2">0</tspan><tspan x="13.4" y="-0.1" fill="#7D7D7D" font-family="'Verdana-Italic'" font-size="7" rotate="-1.9">0</tspan></text>
<path fill="none" d="M252.5,274.1c16.9-4.4,30.8-16.3,43-28.7c12-12.2,23.4-25.8,29.2-41.9"/>
<text transform="matrix(0.8403 -0.5422 0.5422 0.8403 271.7281 268.5259)"><tspan x="0" y="0" fill="#7D7D7D" font-family="'Verdana-Italic'" font-size="7">9</tspan><tspan x="4.6" y="0" fill="#7D7D7D" font-family="'Verdana-Italic'" font-size="7" rotate="-2.7">4</tspan><tspan x="9.1" y="-0.2" fill="#7D7D7D" font-family="'Verdana-Italic'" font-size="7" rotate="-5.1">0</tspan><tspan x="13.7" y="-0.6" fill="#7D7D7D" font-family="'Verdana-Italic'" font-size="7" rotate="-7.2">0</tspan></text>
<path fill="none" d="M42.9,194.4c20.6-22,26.7-55.4,49.7-74.9c4.7-4,10.1-7.3,14.5-11.6"/>
<text transform="matrix(0.4866 -0.8736 0.8736 0.4866 73.1613 149.3848)"><tspan x="0" y="0" fill="#7D7D7D" font-family="'Verdana-Italic'" font-size="7">8</tspan><tspan x="4.4" y="0" fill="#7D7D7D" font-family="'Verdana-Italic'" font-size="7" rotate="1.4">4</tspan><tspan x="8.8" y="0.1" fill="#7D7D7D" font-family="'Verdana-Italic'" font-size="7" rotate="3.2">0</tspan><tspan x="13.1" y="0.3" fill="#7D7D7D" font-family="'Verdana-Italic'" font-size="7" rotate="5.4">0</tspan></text>
<g>
	<g>
		<polyline fill="none" stroke="#7D7D7D" stroke-miterlimit="10" points="85.2,341.6 85.2,348.7 275.4,348.7 275.4,341.7 		"/>
		<line fill="none" stroke="#7D7D7D" stroke-miterlimit="10" x1="180.5" y1="341.4" x2="180.5" y2="348.7"/>
		<line fill="none" stroke="#7D7D7D" stroke-miterlimit="10" x1="161.2" y1="349.2" x2="161.2" y2="343.7"/>
		<line fill="none" stroke="#7D7D7D" stroke-miterlimit="10" x1="142.4" y1="349.2" x2="142.4" y2="343.7"/>
		<line fill="none" stroke="#7D7D7D" stroke-miterlimit="10" x1="123.3" y1="349.2" x2="123.3" y2="343.5"/>
		<line fill="none" stroke="#7D7D7D" stroke-miterlimit="10" x1="104.6" y1="349.2" x2="104.6" y2="343.7"/>
	</g>
	<text transform="matrix(1 0 0 1 83.7834 339.1468)" fill="#7D7D7D" font-family="'Verdana'" font-size="8">0</text>
	<text transform="matrix(1 0 0 1 174.2945 339.1468)" fill="#7D7D7D" font-family="'Verdana'" font-size="8">0.5</text>
	<text transform="matrix(1 0 0 1 258.3414 339.1468)" fill="#7D7D7D" font-family="'Verdana'" font-size="8">1 mi</text>
</g>
</svg>
