<?xml version="1.0" encoding="utf-8"?>
<!-- Generator: Adobe Illustrator 17.1.0, SVG Export Plug-In . SVG Version: 6.00 Build 0)  -->
<!DOCTYPE svg PUBLIC "-//W3C//DTD SVG 1.1//EN" "http://www.w3.org/Graphics/SVG/1.1/DTD/svg11.dtd">
<svg version="1.1" id="Layer_1" xmlns="http://www.w3.org/2000/svg" xmlns:xlink="http://www.w3.org/1999/xlink" x="0px" y="0px"
	 viewBox="0 0 360 360" enable-background="new 0 0 360 360" xml:space="preserve">
<path fill="none" stroke="#E1E1E1" stroke-miterlimit="10" d="M-67.9,301.4c6.8-0.6,13.5-2.8,19.3-6.5c2.9-1.8,5.5-3.9,8.5-5.5
	c2.8-1.4,5.8-2.3,8.9-3.2c6.1-1.8,12.1-6.6,18.3-5.3c11.2,2.4,14.5,18.2,15.7,29.5c1.2,11.4-2.2,23.2-9.2,32.2c-2,2.6-4.3,5-5.7,7.9
	c-2.6,5.8-1.2,12.4-0.4,18.7"/>
<path fill="none" stroke="#E1E1E1" stroke-miterlimit="10" d="M1.8,386.3c-0.5-3.4-2.3-6.4-3.2-9.7c-2.2-8.1,1.3-16.7,5.7-23.8
	c4.5-7.1,10-13.7,12.8-21.6c3.1-8.9,2.3-18.9-0.6-27.9c-2.9-9-7.7-17.3-12.8-25.3c-3.5-5.4-4.5-14.2-10.7-15.9
	c-26.5-7.4-50.3,22.2-75.4,33.3"/>
<path fill="none" stroke="#E1E1E1" stroke-miterlimit="10" d="M-71.3,271.1c17.7-1.2,35-8,48.9-19.1c6.6-5.3,13.5-12,22-11.6
	c5.3,0.2,10.3,3.6,12.6,8.3c1,2.1,1.5,4.5,2,6.8c4.5,21.9,9.2,46.3,27.2,59.4c5.3,3.9,12,7,14.5,13.1c1.5,3.8,1.2,8.1,0.1,12
	c-2.1,7.6-7.1,14.4-13.7,18.9c-2,1.4-4.6,3.5-3.6,5.7c0.4,1,1.4,1.5,2.4,2c10.8,5.6,24,9.4,29.7,20.1c1.9,3.5,2.9,7.7,5.9,10.2"/>
<path fill="none" stroke="#E1E1E1" stroke-miterlimit="10" d="M193.5,365.7c-4.7-5-4.5-13-8.6-18.5c-4.3-5.7-12.4-7.2-19.5-6.3
	c-7.1,0.9-13.8,3.7-20.9,4.8c-2.2,0.3-4.5,0.5-6.4-0.6c-2.8-1.5-5.8-0.4-8-2.7c-3.1-3.4-3.4-21.7-5.1-32.5c-0.5-3.2-1.1-6.5-3.2-8.9
	c-1.3-1.5-3.9-2-4.3-3.9c-0.4-1.9-1.3-4.1-2.8-5.4c-0.5-0.4-1.1-0.7-1.6-1.2c-0.8-0.8-1.1-2-1.7-2.9c-2.9-4.5-6-12-10-13.1
	c-4.2-1.2-5.5,6.7-7.4,10.6c-5.7,11.3-9.7,23.4-12.1,35.7c-0.5,2.5-0.9,5-1,7.5c-0.2,8.9,4.8,17.8,12.6,22.3
	c3.4,1.9,7.2,3.1,10.9,4.2c3.5,1,7,2,10.4,3.1c4.9,1.4,9.8,2.9,14.3,5.4c9.2,5.1,15.7,14.1,19.3,23.9"/>
<path fill="none" stroke="#E1E1E1" stroke-miterlimit="10" d="M360.7,278.3c-3.8-1.9-7.3,0.2-11,2.2c-4.3,2.3-8.1,4.4-13,5.1
	c-7.4,1-15.1,0.2-18.2,7c-3.1,6.8-2.5,14.6-3.2,22c-1.1,11.2-2.8,25.3-12.6,30.7c-4.6,2.5-9.5,4-13.5,7.3c-2.9,2.4-6.1,5.6-5.1,9.2"
	/>
<path fill="none" stroke="#E1E1E1" stroke-miterlimit="10" d="M305.7,397.3c4.8-9.4,5.7-20.8,12-29.3c8-10.6,22.2-13.8,34.5-18.8
	c7.4-3,14.5-16.3,21-11.6"/>
<path fill="none" stroke="#E1E1E1" stroke-miterlimit="10" d="M139.4,392.9c-1.1-5.5-2.5-11.3-6.5-15.2c-6.4-6.2-16.5-5.1-25.1-7.5
	c-13.3-3.7-27.5-7.7-37.1-17.7c-13.6-14.2-3.2-39.2-6.4-58.6c-0.3-1.9-0.7-3.8-1.6-5.4c-2.1-3.5-7.1-0.8-10.6-2.7
	c-15-8.3-4-34.2-10-50.2c-1.6-4.2-3.3-8.3-4-12.7c-1.3-9.2,2.3-18.4,7.2-26.3c4.2-6.9,10-13.5,17.9-15.5c10-2.5,20.8,3.6,26,12.5
	c5.2,8.9,5.8,19.8,4.4,30c-1.4,9.9,3.5,21.3-2.1,29.6c-1.1,1.6-1.2,2.8-0.1,4.3c4.3,5.8,8.6,11.7,13.8,16.7
	c3.7,3.6,7.9,6.8,11.4,10.6c9,9.9,12.7,23.3,16.9,35.9c1.7,5,3.7,10.3,8.1,13.2c5.3,3.5,12.2,2.5,18.4,1.3
	c9.7-1.8,22.2,1.7,29.1-5.4c1.7-1.8,2.8-4.3,5.3-4.1s4.5,2.6,4.3,5.1c-0.1,1.1-0.5,2.2-0.7,3.3c-0.5,2.6,0.2,5.2,0.8,7.7
	c1.4,5.3,3,10.9,6.8,14.9c4,4.3,9.8,6.2,15.6,7.3c9,1.7,19.6,1.1,25.6-5.9c6.1-7.1,5-17.7,3.9-27.1c-0.4-3.6,0-8.2,3.4-9.3
	c3-0.9,5.7,1.9,8.2,3.8c4.9,3.7,12,4.4,17.6,1.7c5.6-2.7,9.3-8.8,9.3-15c0-2.2-0.4-4.4-1-6.5c-1-3.8-2.6-7.4-4.7-10.7
	c-2.6-4.2-6-7.9-10.2-10.6c-2.7-1.7-5.7-3.1-7.6-5.5c-2.6-3.2-2.9-8.2-0.6-11.6c2.2-3.5,6.8-5.3,10.9-4.2c2.3,0.6,4.3,2,6.3,3.1
	c12.5,6.9,29.4,4.8,39.8-4.9c2.1-2,4.1-4.3,6.7-5.5c4.3-2.1,9.4-0.8,14.1,0.1c9.1,1.7,19.3-3.8,27.7,0.1"/>
<path fill="none" stroke="#E1E1E1" stroke-miterlimit="10" d="M365.4,300.7c-2.9-1-5.7,1.5-8.5,2.8c-2.9,1.4-6.3,1.5-9.4,2.5
	c-8.9,2.7-14.3,11.2-19.1,19.2c-5.6,9.5-11.2,18.9-16.8,28.4c-1,1.7-3.6,4.6-1.8,5.5c9.2,4.8,18.1-10,27.1-15
	c4-2.2,8.1-4.5,11.5-7.7c2.8-2.6,4.9-5.8,7.1-8.9c3.3-4.8,6.6-9.5,9.8-14.3c1.4-2,2.8-4.1,3.2-6.5
	C368.8,304.3,367.7,301.5,365.4,300.7z"/>
<path fill="none" stroke="#E1E1E1" stroke-miterlimit="10" d="M342.1,321.1c-0.6,0.1-1.1,0.6-1.5,1c-1.7,1.9-3.3,3.7-5,5.6
	c-0.7,0.8-1.4,1.6-2,2.5c-1.4,2.4-5,4.8-3.9,7.3c2.6,5.5,9.9-6.7,13.1-12c0.5-0.8,1-1.7,1-2.6C343.8,322,343,321,342.1,321.1z"/>
<path fill="none" stroke="#E1E1E1" stroke-miterlimit="10" d="M103.6,342.1c0.8,0.1,1.7-0.1,2.4,0.1c0.9,0.3,1.6,0.9,2.4,1.5
	c3.9,2.7,11.8,5.9,14,1.7c4.6-8.6-1.3-25.4,0.2-36.4c0.4-3.1-1.9-6.6-4.9-7.2c-0.7-0.2-1.6-0.1-2.2-0.5c-1.2-0.6-1.5-2.2-2-3.4
	c-0.5-1.3-1.9-3.1-2.9-2.2c-7.1,5.6-8.6,15.9-11.5,24.4c-2.1,6.2-3.7,13.5,0,19C100.1,340.6,101.7,342,103.6,342.1z"/>
<path fill="none" stroke="#E1E1E1" stroke-miterlimit="10" d="M64.8,354.3c1,0.7,1.3,2,1.4,3.3c0.1,0.8,0.7,1.7,0.2,2.4
	c-1,1.8-4.3-0.2-5-2.1c-0.4-1-0.2-2.2,0.5-3C62.5,354,63.8,353.7,64.8,354.3z"/>
<path fill="none" stroke="#E1E1E1" stroke-miterlimit="10" d="M159.5,392.2c-6.5-13.2-29-26.2-21.2-38.7c5.7-9.2,21.7-0.6,32.6-0.5
	c3.1,0,6.6,0.3,8.6,2.7c1.4,1.7,1.7,4,2.1,6.2c2.6,14.2,14.5,26.3,28.8,28.9c0.8,0.2,1.7,0.3,2.5,0c1.1-0.3,1.9-1.2,2.7-2
	c5.8-5.1,16.5-1.6,18.3,5.9"/>
<path fill="none" stroke="#E1E1E1" stroke-miterlimit="10" d="M398,394.3"/>
<path fill="none" stroke="#E1E1E1" stroke-miterlimit="10" d="M-5,193.1c5.5,2.5,9.7-7,15-8c1-0.2,2.1,0.4,3,0
	c9.1-3.8,8.7-16.2,15-23c1-1,3.5-1.2,4,1c0.2,1-1.2,1.4-0.3,2.1c3.4,2.5-1.1-1.1,0,0c3.1,3.3,8.5-3.9,11.3-7.1c4.3-4.8-4-7-5-10
	c-4-12-1.2-24.9-7-37c-5.2-10.9-20.7-18.8-19.4-32.2c0.9-9.4,3.2-17.6,6-26.6s8.8-18.2,18-20.4c2.5-0.6,5.2-0.7,7.8-0.9
	c7.4-0.7,16.1-3.6,23.2-7c4.4-2.1,8.7-5.9,12.8-3.8c2.7,1.3-6.5,10.7-9.7,15.8c-4.5,7.2-6.1,15.8-7.6,24.1c-0.4,2.1-0.8,4.3-0.7,6.5
	c0.1,1.9,0.5,3.9,0.5,5.8c0.1,3.3-1,6.6-2,9.8c-3.2,9.9-6.3,19.8-9.5,29.7c-1.7,5.3-3.4,11-2.2,16.5c1.2,5.5,7.6,5.7,11.9,9.4
	c4.7,4-6.5,16.1-0.8,18.3c3.6,1.4,6.3-4.4,10-5.8c8.7-3.3,17.3-13.3,26-9.9c5.5,2.1,5.4,10.5,8,15.8c2.6,5.1,5.3,11.1,2.9,16.4
	c-1,2.2-2.8,4-3.8,6.3c-1.4,3.3-0.7,7-0.3,10.6c1.4,11.2,0,22.6-2.2,33.7c-1.1,5.9-2.5,11.9-2.2,17.9c0.3,6,9.3,10.1,7.5,15.8
	c-0.3,1-0.6,2.7,0.3,3s2-0.1,3,0.1c2.8,0.5,2.9,4.4,3.6,7.2c1.6,6.6,9.5,9.2,14.6,13.8c10.7,9.9,6.8,28.2,14.2,40.8
	c1.1,1.9,2.6,3.8,4.7,4.7c2.3,1,4.9,0.7,7.4,0.4c12-1.6,24-3.8,35-8.7c3.5-1.6,6.9-3.4,10.1-5.5c2.5-1.7,4.5-4.1,4.8-7.2
	c0.1-1.8,1.1-3.4,1.6-5.1c1.1-3.5,2.4-7.2,5.3-9.4c2.9-2.2,8-1.9,9.4,1.5c0.9,2.3,0,5,0.9,7.2c1,2.4,4.2,3.5,6.5,2.3
	c5.9-3.3,5.9-6,1.4-6.8c-1.5-0.3-2.4-1.9-3.4-3c-1.9-2-3-4.9-2.8-7.7c0.5-7.2-5.1-10.4-9.3-14.3c-4.2-3.9-4.4-11.9-0.1-15.7
	c2.3-2.1,5.8-2.5,8.2-4.5c3.5-2.9,4.2-8.2,7.5-11.3c4.4-4.1,11.3-2.6,17.2-3.4c9.7-1.2,17.5-8.9,22-17.6c0.7-1.3,1.3-2.7,1.2-4.2
	c-0.2-3.1-3.3-5-5.5-7.1c-7.2-6.9-6.9-19.4-14.3-26.1c-1.5-1.4-3.4-2.7-3.8-4.7c-0.2-1.1,0.1-2.3,0.5-3.4c1.6-5.1,1.9-10.8,4.8-15.4
	c2.3-3.7,8.9-5.6,11.2-1.9c0.7,1.2,0.8,2.6,0.9,3.9c0.8,7.6,5.7,14.1,10.4,20.1c1.5,1.9,3,3.9,3.9,6.1c0.9,2.2,1.3,4.7,1.6,7.1
	c1.3,9.8,2.6,19.7,1.4,29.6c-0.5,3.7-1.4,7.4-1.4,11.1c-0.1,11.7,9.1,22.7,20.6,25.1c11.5,2.3,24.1-4,29.4-14.5
	c1.7-3.5,4.1-7.5,2.9-11.2c-1.8-5.4-10.3-9.5-7.7-13.3c2.6-3.8,9.1-2.6,12.7-5.6c3.6-3,5.9-8,4.2-12.3c-1.5-4-5.7-6.2-9.2-8.6
	c-3.5-2.5-6.9-6.5-5.6-10.6c0.7-2.1,2.4-3.6,4.1-5c2.5-2.1,5-4.2,7.5-6.3c1.2-1,2.5-2.1,4.1-2.5c4.3-1,7.6,3.5,11.1,6
	c5.5,3.9,13,3.4,19.6,2.3"/>
<path fill="none" stroke="#E1E1E1" stroke-miterlimit="10" d="M365.6,194.2c-3.1,0.1-7-0.1-9,2.4c-2.4,3,2.2,7.4,1.9,11.3
	c-0.1,1.1-0.4,2.1-0.3,3.2c0.1,1.1,0.9,2.2,1.9,2.2c1.9-0.1,2.1-3.2,3.8-3.9c1-0.4,2.1,0.2,3.1,0.7c1.8,0.8,4.5,2.1,5.7,0.5
	c2-2.7-1.5-6.6-3.3-9.4c-0.3-0.5-0.6-0.9-0.7-1.5c-0.2-1.2,0.8-2.4,0.5-3.6C368.9,194.5,367.1,194.1,365.6,194.2z"/>
<path fill="none" stroke="#E1E1E1" stroke-miterlimit="10" d="M96.6,162.5c1-1.6-2.4-4-3.8-2.7c-0.9,0.8-1,2.8,0,3.5
	C93.9,164,95.9,163.6,96.6,162.5z"/>
<path fill="none" stroke="#E1E1E1" stroke-miterlimit="10" d="M46.8,53.4c0.2-2.7,0.5-6.6-2-7.6c-1.5-0.6-2.5,1.8-2.9,3.4
	c-2,6.8-4.1,13.6-6.1,20.4c-1,3.4-2.1,7-1.9,10.6c0.2,5.4,3,10.3,5.7,14.9c1.1,1.8,2.7,4.6,4.6,3.8c4.1-1.8,3.7-8.1,3.1-12.5
	c-0.6-4.4-2.2-8.6-2.6-13.1C44,66.6,46.3,60.1,46.8,53.4z"/>
<path fill="none" stroke="#E1E1E1" stroke-miterlimit="10" d="M305.5-4.4c0.7,6-4.2,13.1-7.7,18.1c-4.2,5.9-8.4,11.9-11.7,18.3
	c-5.4,10.5-8.3,22-11.2,33.4c-5.2,20.6-9.8,44.5,2.8,61.6c2.6,3.6,6,6.7,7.6,10.9c3,7.5-0.1,16.7,4.2,23.5
	c3.4,5.3,10.4,7.1,16.6,6.5c6.2-0.7,12-3.4,17.8-5.6c6-2.2,12.6-3.8,18.7-1.9c7.2,2.2,14.8,9.1,21,4.9"/>
<path fill="none" stroke="#E1E1E1" stroke-miterlimit="10" d="M24-6.9c-4.3,11.9-10.5,28.8-2.8,35c8.4,6.8,25.4-2,40-5.8
	c7.3-1.9,19.3-12.5,22.1-8.7c0.8,1.2,0.2,2.8,1.4,3.5c1.2,0.8,2.7,1.4,3.2,2.7c0.7,2.1-1.4,3.9-3.2,5.2c-10.9,8.1-14.4,22.6-17,35.9
	c-2.7,13.9-5.1,27.8-7.2,41.8c-1.2,7.8-1.7,17.2,4.5,22.1c4.8,3.7,13.2,6.3,17.6,2.1c2.6-2.4,2.5-6.7,5-9.2c2.3-2.2,6-3.7,8.5-1.8
	c1.2,0.9,1.8,2.4,2.6,3.7c2.3,3.6,6.6,5.7,8.6,9.6c1.6,3.2,1.3,6.9,1.5,10.4c0.5,8.4,4,16.6,9.7,22.8c3.3,3.6,7.7,7.4,7.4,12.3
	c-0.3,3.9-3.6,6.9-5.2,10.5c-2.6,5.9-0.5,12.8-2.3,19c-1,3.6-3.3,6.7-4.9,10.1c-4.6,9.6-3.7,20.9-2.7,31.5
	c0.8,8.1,7.9,14.4,13.5,20.2c5.7,5.8,23.1,11.7,22.2,3.6c-1.4-13,10.2-28.6,33.5-25.8c5.1,0.6,9.7,3.4,14.9,3.5
	c9.5,0.2,17.3-7.3,23.8-14.3c10-10.8,20.8-23.6,18.8-38.2c-0.8-5.8-4.5-12-10.4-12.7c-2.1-0.3-4.6,0.1-6.1-1.4
	c-1.7-1.7-0.9-4.6,0-6.9c6.6-15.6,15.1-30.7,18.2-47.3c2.5-13.7,1.2-27.8-0.1-41.7c-0.2-2.4-0.5-4.9-2.1-6.6c-1.2-1.3-2.9-1.9-4-3.2
	c-1.2-1.5-1.4-3.6-1.5-5.5C230.4,36.7,242.6,2,267.2-9"/>
<path fill="none" stroke="#E1E1E1" stroke-miterlimit="10" d="M45-43.9"/>
<path fill="none" stroke="#E1E1E1" stroke-miterlimit="10" d="M-19,173.1c7-7,10.9-20.1,24-17c1,0.2,2.7,3.2,4,5
	c0.8,1.1,2.1,1.4,3,1c6.5-2.7,7.9-10.3,12-16c1.3-1.8,1.5-3.8,2-6c0.5-1.9-0.1-2.9-1-4c-2.3-2.8-6-1-8-3c-1-1-2.2-2-2-3
	c3.1-12.1,2.5-24.5-5-33c-4.7-5.3-8.4-10.4-13-16"/>
<path fill="none" stroke="#E1E1E1" stroke-miterlimit="10" d="M318.7-10.1c-0.9,12.5-6,24.2-11,35.7c-5.2,12-10.5,23.9-15.7,35.9
	c-4.2,9.5-8.3,20.4-3.9,29.8c1.9,3.9,5.1,7.1,8.2,10.1c3.3,3.2,7.3,6.6,11.8,5.6c2.2-0.5,4.2-2,6.4-1.7c2.3,0.3,3.9,2.4,6.1,3.1
	c2.5,0.8,5.1-0.5,7.4-1.7c12-6.3,24.7-13.1,32-24.7c4.1-6.6,8.2-24,13.8-18.6"/>
<path fill="none" stroke="#E1E1E1" stroke-miterlimit="10" d="M31.7-6.5c-2.1,6.9,1.1,13.7,2.8,20.7c0.4,1.5-1.8,3.3-0.9,4.6
	c3.7,5.7,13.6,2.8,20.2,0.9c7.1-2,13.1-3.2,19.5-6.9c2.2-1.3,7.1-3.7,9.3-5C85.7,6,86.1,1.2,89.2,3c2.3,1.3-2,5.7-0.8,8.1
	c0.9,1.7,3.9-1,5.5-0.1c7.2,4.3-5.7,14.9-11.2,21.3C72.2,44.6,72.3,66,69.7,83.6c-1.9,12.7-5.5,26.6,4.8,26.5c5.2-0.1,1.8,5.2,7,4.7
	c9.1-0.9,11.2-24.6,18.6-19.2c8.3,6.1,8.8,17.9,13.1,27.2c5.8,12.5,2.5,29,11.8,39.3c6.8,7.4,20.8,18.1,24,17.7
	c1.8-0.2,3.8-12.2,4.9-9c2,5.7,1.9,12.2,0.5,15.7c-0.5,1.4,2.5,1.7,3,2.8c6.8,15.6,10,34.6,39.8,38.1c2.3,0.3,4.8,0.8,7,0
	c1.7-0.6,3.1-1.7,4.3-3c5.1-5,13.9-13.7,9.1-18.9c-2.3-2.5-7.1,1.3-10.3,0.1c-7.4-2.9-2.6-15,0.9-22.1c3.5-7.1,6.5-16.8,0.5-22
	c-4.1-3.6-10.9-3.2-14.3-7.5c-1.8-2.3-2.1-5.3-2.7-8.2c-3.7-20.8-30.6-45.7-15.6-60.5c4.2-4.2,12,0,17.1,2.9c1.8,1,3.5,2.3,4.2,4.3
	c0.8,2.5-0.5,5.2-1.4,7.8c-3.5,10-2.4,27.9,8.2,28.7c4.7,0.4,9.4-2.5,13.7-0.3c1.5,0.8,3.1,1.9,4.8,1.9c3.3-0.1,5-4,5.7-7.2
	c2.3-10.4,2.5-23-6-29.5c-1.5-1.2-3.3-2.1-4.4-3.7c-1.5-2.2-1.3-5.2-1-7.8c3.1-27.5,8.3-54.8,15.8-81.5c1-3.5,2.1-7.1,4.3-10.1"/>
<path fill="none" stroke="#E1E1E1" stroke-miterlimit="10" d="M-16.3,154.4c3-2.4,6.8-3.7,9.6-6.3s-0.1-6.5,1.3-10.1
	c0.4-0.9,2.1,0.6,3,0.1c1.1-0.6-0.4-2.5,0.3-3.6c0.6-0.9,2.7,0.8,3.3-0.1c4.4-6.5,4.6-20.2-2.6-23.1c-1.6-0.6-2.2,2.7-3.8,3.3"/>
<path fill="none" stroke="#E1E1E1" stroke-miterlimit="10" d="M196.3,211.3c1.6-0.3,3.4-0.1,3.8-1.6c0.4-1.6-0.6-3.3-2-4
	c-1.5-0.7-3.2-0.5-4.7,0.1c-0.7,0.3-1.3,0.6-1.9,0.9c-1.1,0.4-2.3,0.4-3.2,1c-2,1.2-2.1,4.1-1.9,6.4c0,0.3,0,0.5,0.2,0.7
	c0.2,0.2,0.4,0.2,0.6,0.2C189.5,215.2,194,211.8,196.3,211.3z"/>
<path fill="none" stroke="#E1E1E1" stroke-miterlimit="10" d="M249.9,57c0.5-2.8,3.2-6.1,1.6-8.4c-1.1-1.6-4.2,0.8-5.8-0.3
	c-6.1-4.1-1-15,3-21.2c0.8-1.2,1.7-2.3,2.9-2.9c3.3-1.5,7.1,1.6,8.1,5.1c1,3.5,0.5,7.2,1.2,10.8c0.7,3.4,2.5,6.5,3.3,9.9
	c2.1,8.6-2.1,17.4-3,26.3c-0.6,6,0.3,12.4-2.3,17.8c-0.5,1-1.1,2-1.5,3.2c-0.3,0.9-0.4,1.9-0.5,2.8c-0.9,8.6-3.9,16.8-6.9,24.9
	c-0.2,0.5-0.4,1-0.8,1.3c-0.7,0.5-1.7,0-2.1-0.7c-0.4-0.7-0.5-1.6-0.5-2.4c-0.1-7.8,0.7-15.6,2.4-23.3c0.4-1.9,0.9-3.8,1-5.8
	c0.3-4.6-1.3-9.1-1.9-13.7C247,72.7,248.4,64.8,249.9,57z"/>
<path fill="none" stroke="#E1E1E1" stroke-miterlimit="10" d="M-18,44.4c9-5.7,18.6-11.9,23-21.7c1.1-2.5,1.9-5.2,2.9-7.8
	c1-2.5,2.4-4.8,3.4-7.3c1.8-4.4,2.7-9.2,4-13.8"/>
<path fill="none" stroke="#E1E1E1" stroke-miterlimit="10" d="M327.6-15.2c2.2,5.1-0.9,12.1,3.2,15.7c0.5,0.4,1.1,0.8,1.3,1.4
	c0.2,0.5,0.1,1.2,0,1.7c-1.6,8-5.8,15.2-7.4,23.2c-0.5,2.6-0.8,5.3-1.2,7.9c-0.5,3.1-1.3,6.1-2.1,9.1c-1,3.9-2,7.7-3,11.6
	c-0.8,3.1-1.6,6.3-3.1,9.1c-2,3.7-5.1,7.1-5.1,11.3c0.1,4.4,4.4,8.2,8.7,7.7c0.8-0.1,1.5-0.3,2.3-0.4c4.5-0.5,9.3,2.3,13.4,0.4
	C336,83,337,82,338,81c6.5-6.4,13.2-12.6,20.2-18.5c5.3-4.6,11-9.1,17.8-10.6"/>
<path fill="none" stroke="#E1E1E1" stroke-miterlimit="10" d="M44-6.6c-0.7,3.4-1.2,6.9-0.7,10.4c0.1,0.7,0.3,1.4,0.8,1.8
	c1.3,1,3.6-0.6,4.7,0.6c0.4,0.5,0.4,1.1,0.6,1.7c0.9,2.9,5,2.7,7.9,1.9c4.7-1.4,20.3-7,25.4-9.2C87-1.3,94.4-5.8,95.4-5.5
	c2.7,0.7,0.7,5.6,1.1,8.4c0.2,1.5,1.3,2.1,2.7,2.8c6.5,3.2-8.1,22.6-12.9,33.8c-5.7,13.2-7.3,27.9-7.5,42.3c0,3.1-1.2,8,1.6,9.3
	c1.8,0.8,2.9,2,4.9,2.2c3.2,0.2,2.1-7.5,5.3-8.1c4.5-0.8,9.3,2.5,12.7-0.5c0.6-0.5,1.1-1.1,1.7-1.5c0.8-0.5,1.7-0.7,2.6-1.1
	c3.6-1.2,5-8,8.6-6.9c9.6,2.9-11.6,21.8-5.2,29.7c3.4,4.2,6.2,5.7,8.3,10.7c0.5,1.3,2.9-0.3,4,0.5c4.5,2.9,3.7,10.1,7.5,13.9
	c2.6,2.6,6.2,7.2,9.4,5.4c1.9-1.1,0.1-4.4,0-6.7c-0.1-2.2,1.1-4.9,3.3-5.1c1.2-0.1,2.2,0.6,3.4,0.7c1.5,0.2,2.9-0.5,4.3-1.1
	c6.2-2.6,14.9,3.1,19.9-1.5c7.5-6.8-3.1-20-4.6-30c-0.6-3.6-1.1-7.3-0.1-10.8c1.3-4.7,5.1-8.1,8.7-11.4c0.7-0.6,1.4-1.2,2.2-1.4
	c0.9-0.2,1.7,0.1,2.6,0.4c6.4,1.7,13.4-0.1,19-3.7c5.5-3.7,9.8-9,13.3-14.6c1.5-2.4,2.9-5,3.6-7.7c0.8-3.1,0.7-6.4,0.9-9.6
	c0.4-8.4,2.3-16.6,4.1-24.7c0.4-1.8,0.8-3.5,1.7-5.1s2.3-2.9,3.5-4.4"/>
<path fill="none" stroke="#E1E1E1" stroke-miterlimit="10" d="M348.1-9.9c3,3.7,0.1,9.6-1,14.2c-1.1,4.3-2.1,8.6-3.8,12.7
	c-1.7,4.2-4,8.2-4.9,12.7c-0.4,2.3-0.4,4.6-0.4,7c0,4.3,0.1,8.6,0.3,13c0,0.9,0.1,1.8,0.8,2.4c1.1,0.8,2.6,0,3.7-0.7
	c6.5-4.2,14.4-5.5,22-6.7"/>
<path fill="none" stroke="#E1E1E1" stroke-miterlimit="10" d="M55-4.9c1.8,1.3,3.7,2.2,5,4c0.8,1.1,0,2.9,1,3c7.2,1,14.7-3.9,22-6
	c5.8-1.7,12.5-4.5,19-3c1,0.2-1.5,4.6-0.1,6c4.3,4.4-1-1.3,0,0c1.3,1.7,2.2,2.1,2.1,3C102.5,25.2,81.3,64.9,93,69
	c3.3,1.2,3.9-7.4,8-7.9c1-0.1,1.7,0.5,2,1c1.7,2.7-3.7,8.3-1,10c6.8,4.3,17.9-14,21-2c2.9,11-4.3,36.2,10,33.7
	c3.5-0.6,1.5,0.3,2.8,2.8c1.3,2.5,4.5-0.3,7.2-1.5c1.3-0.6,2-2,4-2s3.6,2.5,5.4,0.8c3.4-3.4,3.3-1.2,7.5-3.5
	c7.9-4.4-2.2-19.5,3.1-26.2c8.4-10.5,22.2-9.9,33-16c1.2-0.7,2.1-1.9,3-4c4.6-10.8,8.2-21.7,11-33c5.1-20.4,13.9-36.9,27-52"/>
<path fill="none" stroke="#E1E1E1" stroke-miterlimit="10" d="M361.4,12c-0.7,5-5.4,11.3-2,15c2,2.1,4.1,4,7,4"/>
<path fill="none" stroke="#E1E1E1" stroke-miterlimit="10" d="M113.8-3.1c1.7,1.7,1.3,4.6,0,6.6s-3.6,3.1-5.1,5
	c-3.9,5.1-8.7,22.5-7.2,33c0.3,2-1.3,4.7,0.6,6.6c2.1,2.2,5.9-1.8,8,0.4c2.1,2.2,0.8,6.5,3.1,8.4c4.6,3.7,12,1.1,17.2,4
	c1,0.6,2.1,1.2,2.7,2.3c2.1,3.5-2,8-0.6,11.8c0.8,2.1,3,3.3,5,4.3c2.9,1.4,5.8,5.7,8.6,4.2c2.4-1.3,3.8-1.6,6.2-3
	c7.1-4.1,7.2-14.4,14.2-18.7c7.3-4.5,15.2-8.5,21.1-14.7c8.6-9,12.2-21.5,16.5-33.2c6.9-18.6,16.2-36.3,27.7-52.5"/>
<path fill="none" stroke="#E1E1E1" stroke-miterlimit="10" d="M117.1-7.1c2.6,4.4,1.7,9.9,0,14.7s-4.2,9.4-4.6,14.4
	c-0.3,3.7,0.5,7.3,1.3,10.9c0.4,1.6,0.7,3.2,1.8,4.4c0.4,0.5,1,1,1.3,1.6c0.4,0.9,0.1,2,0.6,2.8c0.4,0.5,1.1,0.8,1.5,1.2
	c0.8,0.9,0.7,2.3,1.1,3.4c0.9,2.2,3.7,2.8,6.1,2.7c2.4-0.1,5,0,6.8,0.2c1.5,0.2,4.6,0.4,6.9,0.4c3.3,0.1,4.4,4.8,7.7,5.3
	c4.3,0.7,7.2-4.5,11.4-5.8c3.7-1.2,6.6-4,9.9-6.1c3.8-2.3,7.7-4.7,10.7-8c1.3-1.4,2.4-3,4-4.1c1-0.7,2-1.2,3-1.9
	c1.4-1.2,2.4-2.9,2.7-4.7c0.1-0.9,0.1-1.9,0.4-2.8c0.4-1.1,1.2-2.1,2-3c3.9-4.5,7.2-9.5,9.7-14.9c1-2.1,2-4.3,3.4-6.2"/>
<path fill="none" stroke="#E1E1E1" stroke-miterlimit="10" d="M123.4-2.9c0,6.7,0,13.5-1.5,20.1c-0.7,3-1.6,6.3-0.3,9
	c1.1,2.1,1.9,4,2.2,6.3c0.3,2.3,3.3,3.2,4.9,4.7c3.3,3.1,8.1,3.9,12.3,2.1c1.1-0.5,2.2-1.3,3.4-1.5c1.3-0.3,2.7,0.1,3.9-0.5
	c0.6-0.3,1.1-0.9,1.6-1.3c2.2-1.8,5.4-1.4,8.1-2.1c2.9-0.7,5.3-2.7,7.5-4.6c2.5-2.1,5-4.3,7.6-6.4c1.5-1.2,2.9-2.5,4.1-4
	c1.3-1.6,2.1-3.6,3.3-5.3c2.7-3.8,6.9-6.2,10.1-9.7c3.8-4.1,5.9-9.7,10.1-13.4"/>
<path fill="none" stroke="#E1E1E1" stroke-miterlimit="10" d="M132.6-1.1c0.4,1.5,0.4,3.1,0.5,4.7c0.3,4.2,1.7,8.2,3,12.2
	c0.8,2.4,0,6.6,2.5,7.2c1,0.3,2-1.4,2.9-0.9c0.5,0.3,0.5,1.5,1.1,1.4c2.5-0.7,2.1-4.7,4.2-6.1c2.1-1.4,4.6-2.2,7-3
	c2.4-0.8,5.1-0.8,7.7-1.2c2.7-0.4,4.9-2.1,7-3.7C174.4,5,180.3,0.4,185-5.3"/>
<path fill="none" stroke="#E1E1E1" stroke-miterlimit="10" d="M299.6,212.6c0,0.1,0,0.2,0.1,0.3c0.1,0.1,0.2,0.2,0.4,0.2
	c1,0.1,1.8-0.8,2.5-1.4c1.1-0.9,2.2-2.1,4.1-1.9c1.5,0.2,3.2,1.3,4.7,1.2c0.2,0,0.5,0,0.7-0.2c0.1-0.1,0.1-0.3,0.1-0.5
	c-0.1-1.6,0.5-3.4-0.4-4.8c-1-1.7-3.7-1.8-5.7-1.8c-0.9,0-1.8,0.1-2.5,0.5c-0.9,0.5-1.4,1.4-2,2.3c-0.6,0.9-1.1,1.9-1.5,2.9
	C299.7,210.4,299.6,211.5,299.6,212.6z"/>
<path fill="none" stroke="#E1E1E1" stroke-miterlimit="10" d="M247,155.7c0.7-0.2,1-0.8,1.3-1.5c0.4-1.2,0.5-2.4,0.4-3.7
	c0-0.5-0.3-1.1-0.7-1.1c-0.3,0-0.5,0.2-0.7,0.4c-1.1,1.2-1.7,2.7-1.7,4.3c0,0.4,0.1,0.8,0.3,1.1C246.1,155.6,246.6,155.8,247,155.7z
	"/>
<path fill="#EAEAEA" stroke="#D6D6D6" stroke-miterlimit="10" d="M225.5,347.6c-1-0.7-1.2-2-1.9-3c-0.5-0.8-1.3-1.3-1.7-2.1
	c-0.3-0.7-0.3-1.5-0.3-2.3c0.1-2.8,0.8-5.5,0.8-8.3c0-2.2-0.3-4.5-0.7-6.7c-0.1-0.9-0.3-1.8-0.6-2.6c-0.2-0.7-1.1-1.3-1.3-2
	c-0.5-1.6-0.5-3.2-0.5-4.9c0-0.4,0.6-0.9,0.7-1.2c0.2-0.4,0.5-0.6,0.8-0.9c1.4-1.1,2.9-2.1,4.3-3.2c0.4-0.3,0.8-0.6,1.3-0.6
	c0.5,0,1,0.4,1.3,0.8c0.6,0.7,1.1,1.5,1.4,2.3c0.1,0.3,0.3,0.7,0.5,0.9c0.2,0.3,0.5,0.5,0.8,0.8c1.1,0.8,2.4,1.4,3.6,2.1
	c1.2,0.7,2.3,1.6,2.9,2.9c0.2,0.4,0.3,0.8,0.5,1.2s0.5,0.7,0.8,1c1.3,1.4,1.9,3.3,2.2,5.2c0.3,1.9,0.7,3.8,0.5,5.7
	c-0.1,1.1,0,2.5-0.4,3.5c-0.4,1-1.9,1.6-2.6,2.5c-1,1.3-1.9,3-1.9,4.6c0,1.6-0.6,2.8-2,3.3c-1,0.4-1.9,0.8-3,1
	c-1.1,0.1-2.3,0.3-3.4,0.3C227.1,348.2,226.1,348.1,225.5,347.6z"/>
<path fill="#EAEAEA" stroke="#D6D6D6" stroke-miterlimit="10" d="M150.1,312.4c-0.7-1-1.4-2.1-1.8-3.4c-0.3-1.1-0.3-2.2-0.3-3.3
	c0-3.2,0-6.3-0.1-9.5c0-1.7,0-3.5,0.7-5c0.8-1.6,2.3-3,2.3-4.8c0-1-0.6-1.9-0.5-2.9c0.2-1.5,2.1-2.4,3.3-1.6c0.7,0.4,1.1,1.2,1.6,2
	c2.3,3.8,6.6,5.9,9.6,9.2c1.1,1.2,2.1,2.6,3.6,3.2c0.4,0.2,0.7,0.3,1.1,0.4c0.3,0.1,0.5,0.3,0.8,0.5c1.4,0.9,3.1,1.2,4.6,2
	c0.2,0.1,0.4,0.2,0.5,0.4c0.3,0.4,0.2,0.9,0.1,1.4c-0.1,1.1,0.1,2.3,0.7,3.3c0.2,0.3,0.4,0.6,0.4,1s-0.3,0.7-0.6,0.9
	c-0.7,0.7-1.4,1.5-2.2,2.2c-0.5,0.5-1,1-1.6,1.1c-0.8,0.2-1.7-0.2-2.4,0.3c-0.9,0.6-0.9,2.3-2,2.5c-0.6,0.1-1.1-0.2-1.7-0.3
	c-0.6,0-1.1,0.4-1.3,0.9c-0.1,0.3-0.1,0.5-0.2,0.8c-0.1,0.2-0.3,0.4-0.5,0.6c-1.1,1-2.5,1.9-3.9,2.4c-1.4,0.5-3.1,0.7-4.5,0
	c-0.5-0.3-0.9-0.6-1.4-0.9c-0.7-0.5-1.6-0.8-2.3-1.4C151.3,314.1,150.7,313.2,150.1,312.4z"/>
<path fill="#EAEAEA" stroke="#D6D6D6" stroke-miterlimit="10" d="M143.8,221.4c1.2-5.3,3.4-16.3-1.4-14.8c-7,2.2-15,15.1-12.9,22.8
	c0.4,1.5,2,1.5,2.1,2.4c0.1,1.4,0.3,3.1,2.8,4.1c3,1.1,4.6-1.8,6.1-5.2c0.3-0.6,0.5-1.1,0.7-1.7c0.1-0.2,0.1-0.4,0.2-0.5
	c0.1-0.2,0.3-0.3,0.4-0.5c0.4-0.4,0.8-0.8,1.1-1.2c0.2-0.2,0.4-0.4,0.4-0.6c0.1-0.2,0.1-0.4,0.1-0.6
	C143.6,224.2,143.5,222.7,143.8,221.4z"/>
<path fill="#7BBCEB" stroke="#4E9BD7" stroke-miterlimit="10" d="M193.8,158.4c-0.4-0.1-0.8-0.1-1.1-0.1c-1.7,0-3.1-1.2-4.3-2.5
	c-0.8-0.9-1.5-1.8-2.6-2.2s-2.6-0.1-2.9,1c-0.1,0.4-0.1,0.8-0.2,1.2c-0.1,0.4-0.4,0.8-0.8,0.8s-0.7-0.3-0.9-0.6
	c-0.7-0.9-1.5-1.6-2.5-2c-1-0.4-2.3-0.3-3.1,0.5c-0.8,0.7-1.1,2-0.7,3c0.3,1,1.2,1.9,2.2,2.3c0.5,0.3,1.2,0.4,1.7,0.2
	c0.6-0.2,0.9-0.8,1.3-1.3s1.2-1,1.6-0.5c0.7,0.9-0.3,2.2-0.9,3.1c-0.6,0.9-1.2,1.8-2.1,2.3c-0.3,0.2-0.6,0.3-0.8,0.6
	c-0.6,0.6-0.4,1.7-0.5,2.5c-0.1,1.1-0.7,2.1-1.7,2.8c-0.4,0.3-1,0.5-1.2,1c-0.2,0.5-0.2,1-0.3,1.5c-0.3,1-1.3,1.5-1.8,2.4
	c-0.2,0.4-0.3,0.9-0.4,1.3c-1.2,5.5-2.4,11.3-1,16.8c0.2,0.6,0.3,1.2,0.7,1.7s0.9,0.8,1.5,1.2c1.2,0.7,2.4,1.5,3.8,1.7
	c1.4,0.3,3-0.1,3.8-1.2c0.5-0.6,0.7-1.4,1.4-1.9c0.7-0.5,1.5-0.4,2.3-0.2c0.8,0.2,1.5,0.6,2.3,0.8c1.5,0.3,2.9-0.3,4.3-0.9
	c1.2-0.5,2.4-1,3.6-1.5c1.9-0.8,4-1.9,4.5-3.8c0.1-0.5,0.2-1.2,0.6-1.5c0.2-0.2,0.5-0.3,0.7-0.3c1.1-0.3,2.3-0.2,3.2-1
	c0.4-0.4,0.6-0.8,0.8-1.3c1.4-3,2.9-6.1,3.2-9.4c0.2-1.4,0.1-3-0.8-4.1c-0.7-0.9-1.8-1.5-2.8-2.1c-2.5-1.6-4.4-4-5.6-6.7
	c-0.2-0.4-0.3-0.7-0.6-1c-0.2-0.3-0.5-0.5-0.8-0.7c-0.7-0.5-1.3-0.9-2-1.4C194.3,158.7,194.1,158.5,193.8,158.4z"/>
<path fill="#7BBCEB" stroke="#4E9BD7" stroke-miterlimit="10" d="M180.1,146.9c-0.2-0.1-0.3-0.3-0.5-0.4c-0.5-0.4-1-0.8-1.6-0.9
	c-0.6-0.1-1.3,0.3-1.3,0.9c0,0.3,0.1,0.5,0.2,0.8c0.3,0.6,0.6,1.2,0.9,1.8c0.2,0.4,0.4,0.8,0.7,1.1c0.9,0.9,2.4,1.7,3.5,1.1
	c0.3-0.2,0.4-0.7,0.5-1.1c0.1-0.2,0.1-0.4,0-0.6c0-0.2-0.1-0.3-0.2-0.4C181.7,148.2,180.9,147.5,180.1,146.9z"/>
<path fill="none" stroke="#D6D6D6" stroke-miterlimit="10" d="M170.3,182.4c-0.4,0.1-1.3,0.4-1.7,0.6c-2.1,0.7-4.2,1.2-6.4,1.5
	c-0.9,0.1-1.9,0.2-2.8,0.5c-0.8,0.2-1.6,0.7-2.4,1.1c-3.6,2-6.9,4.6-9.1,8.1c-0.5,0.8-0.9,1.6-1.2,2.4c-0.6,1.8-0.5,3.8-1.1,5.5
	c-0.6,1.6-1.8,3.2-1.3,4.8"/>
<path fill="none" stroke="#D6D6D6" stroke-miterlimit="10" d="M142.6,227.4L142.6,227.4c1.8,1.1,1.3,4,1.2,6.1
	c-0.3,3.9-1.2,7.8-2.4,11.5c-1.2,3.7-2.4,7.4-2.7,11.3c-0.2,3.9,0.1,8,2.8,10.8c1.7,1.9,4.1,3.1,5.4,5.3c0.5,0.9,0.8,1.9,1.4,2.7
	c0.3,0.4,0.6,0.7,0.9,1.1c0.3,0.4,0.5,0.9,0.6,1.3c0.5,1.3,1.2,3,1.8,4.3"/>
<path fill="none" stroke="#D6D6D6" stroke-miterlimit="10" d="M175.9,300.5c3.6-0.9,7-3,9.3-5.9c0.3-0.4,0.6-0.8,0.6-1.2
	c0-0.3,0-0.7,0.1-1c0.1-0.3,0.5-0.5,0.7-0.7c1.5-1,2.1-2.9,2.8-4.6c0.7-1.7,1.9-3.5,3.7-3.6c0.6,0,1.2,0.1,1.7-0.1
	c0.6-0.2,1-0.6,1.4-1c2.4-2.3,5.4-4.3,8.6-4.3c1.7,0,3.4,0.5,5.1,0.3c1.5-0.2,2.8-0.9,4.2-1.3c1.4-0.3,3.2-0.1,4,1.2
	c0.3,0.5,0.4,1,0.5,1.5c0.7,3.7,1.6,7.4,2.6,11c0.2,0.7,0.4,1.4,0.8,2c0.5,0.8,1.2,1.4,1.9,2c1.2,0.9,2.6,1.8,4.1,2.2
	c0.5,0.2,1.2,0.5,1,1c-0.1,0.2-0.3,0.4-0.5,0.5c-1.1,0.7-2.4,0.8-3.7,1.2c-1.2,0.4-2.5,1-3,2.3c-0.1,0.4-0.1,0.8,0.1,1.1
	c0.2,0.3,0.5,0.5,0.7,0.8c0.3,0.5,0.1,1.2,0.2,1.8c0.3,1.6,3.8,3.5,3.1,4.2"/>
<path fill="#EAEAEA" stroke="#D6D6D6" stroke-miterlimit="10" d="M289.9,240.4c-0.5-2.9-0.9-5.8-0.9-8.7c0-2,0.5-4.1,1.3-5.9
	c1.3-2.9,3.7-5.8,6.9-6c0.5,0,1,0,1.5-0.2c0.3-0.2,0.6-0.5,0.9-0.8c0.8-0.9,1.5-1.8,2.1-2.8c0.5-0.8,0.8-1.8,1.3-2.6
	c0.5-0.8,1.4-1.5,2.3-1.4c1.1,0,1.9,0.9,3,1.3c0.9,0.3,1.8,0.2,2.8,0.2c2,0,4,0.5,5.8,1.5c0.9,0.5,2.2,2,1.2,2.3
	c-0.7,0.2-1.5,0.5-1.5,1.3c0,0.8,0.4,1.4,1,2c0.6,0.6,1.2,1,1.7,1.5c0.4,0.4,0.6,0.9,1,1.3c0.3,0.3,0.7,0.5,1,0.7
	c2,1.1,4.1,2.3,5.4,4.2c1.7,2.6,1.6,6,1.5,9.1c-0.1,1.8-0.3,3.2-1.2,4.7c-0.6,1-1.4,2.2-2.3,3c-3.6,3.6-7.6,6.7-12.1,9
	c-1,0.5-1.9,1.2-3,1.5c-1,0.3-2,0.3-2.9,0.3c-3.4,0-6.9,0-10-1.4C294.1,253.3,291.6,250.8,289.9,240.4z"/>
<path fill="#EAEAEA" stroke="#D6D6D6" stroke-miterlimit="10" d="M333.1,205.5c0.1,1.1-0.4,2.3,0.2,3.2c0.5,0.7,1.4,0.8,2.2,0.8
	c0.5,0,1-0.1,1.3-0.4c0.3-0.3,0.3-0.8,0.1-1.2s-0.4-0.8-0.6-1.2c-0.5-1.1-0.6-2.3-1.2-3.3c-0.5-0.8-1.3-1.3-2.3-1.4
	c-0.1,0-0.2,0-0.2,0l-0.1,0.1c-0.3,0.5-0.2,1.2,0,1.7C332.7,204.3,333,204.9,333.1,205.5z"/>
<path fill="#EAEAEA" stroke="#D6D6D6" stroke-miterlimit="10" d="M331,194.3c-0.7-0.4-1.6,0-2.3-0.3c-0.3-0.2-0.5-0.5-0.8-0.7
	c-0.5-0.4-1.2-0.5-1.8-0.2c-0.3,0.1-0.2,0.6,0,0.8c0.2,0.2,0.4,0.4,0.6,0.6c0.2,0.2,0.3,0.5,0.4,0.8c0.5,1.1,0.8,2.3,1.1,3.5
	c0.1,0.6,0.2,1.3,0.6,1.8c0.4,0.5,1.2,0.8,1.7,0.4c0.7-0.5,0.6-1.7,1.4-1.9c0.5-0.1,0.9,0.2,1.4,0.4c0.5,0.2,1.1,0.3,1.3-0.2
	c0-0.1,0.1-0.2,0.1-0.3c0.2-1,0-2.2-0.9-2.7c-0.5-0.3-1.2-0.2-1.7-0.6C331.7,195.4,331.5,194.7,331,194.3z"/>
<path fill="#EAEAEA" stroke="#D6D6D6" stroke-miterlimit="10" d="M354.5,136.5c1.1-1.6,2.5,0.9,2.7-1.1c0.1-1-0.7-2-0.7-3
	c0-1.8-0.1-2.9,0.9-4.4c0.6-0.9,1.3-2,1.6-3c0.2-0.9-0.2-1.9-0.5-2.8c-1.2-2.9-2.5-5.9-3.7-8.8c-0.2-0.5-0.5-1.1-0.9-1.5
	c-0.4-0.4-0.8-0.7-1.3-0.8c-1-0.2-2.1,0.2-2.9,0.9s-1.4,1.6-1.9,2.5c-0.7,1.2-1.5,2.3-2.2,3.5c-0.3,0.5-0.6,1-0.7,1.5
	c-0.2,0.6-0.1,1.2-0.1,1.8c0.2,3.1,0.4,6.3,1.8,9c0.7,1.4,1.7,2.8,1.4,4.3c-0.2,1.1-1,1.9-1.6,2.8c-0.6,0.9-1.1,2.1-0.7,3.1
	c0.6,1.3,2.3,1.1,3.7,0.7C350.4,140.9,353.5,138,354.5,136.5z"/>
<path fill="#EAEAEA" stroke="#D6D6D6" stroke-miterlimit="10" d="M205.6,103.3c-0.3,0.4-0.7,0.6-1.1,0.8c-2.3,1.5-3.2,4.8-2,7.3
	c0.3,0.5,0.6,1,0.7,1.5c0.1,0.5,0,0.9,0,1.4c-0.1,1.8,0.8,3.4,1.6,4.9c0.8,1.5,2,3.1,3.7,3.1c1.5,0,2.8-1.2,4.3-0.9
	c0.4,0.1,0.8,0.3,1.2,0.5c1.4,0.9,2.5,2.4,4,3.2c2.1,1.1,4.9,0.5,6.5-1.2c1.7-1.7,2.1-4.4,1.3-6.6c-0.3-0.7-0.6-1.3-0.8-2
	c-0.2-0.7-0.1-1.5,0.3-2.1c0.2-0.2,0.5-0.4,0.7-0.7c0.2-0.5,0-1-0.2-1.4c-1.4-3-3.3-6.2-2.5-9.5c0.2-0.9,0.7-1.8,0.8-2.7
	c0.1-0.9,0-2-0.8-2.6c-1.2-0.9-4.1,0.3-4.1-1.2c0-2.3-1.5-4.4-4.5-4.5c-0.4,0-0.7,0-1.1,0.1c-0.7,0.2-1.1,0.8-1.6,1.3
	c-0.9,0.9-2.1,1.7-3.3,2.1c-1.1,0.4-2.2,0.6-3.1,1.3c-1.3,1.1-1.4,3.1-0.8,4.6C205.5,101.2,206.2,102.3,205.6,103.3z"/>
<path fill="none" stroke="#4E9BD7" stroke-miterlimit="10" d="M181.9,151.4c-0.1,0.1-0.1,0.3,0,0.5c0.2,0.2,0.5,0.3,0.7,0.5
	c0.1,0.1,0.3,0.2,0.4,0.3c0.3,0.2,0.4,0.6,0.5,0.9"/>
<path fill="none" stroke="#D6D6D6" stroke-miterlimit="10" d="M141.2,140.2c1-1.9,0.4-4.3-0.9-6.1c-1.3-1.8-3-3.1-4.6-4.5
	c-3.1-2.8-5.7-7-4.5-11c0.6-2,2.1-3.7,3.2-5.5c2.1-3.6,2.5-7.8,3.7-11.8c1.6-5.1,4.5-9.8,6.2-14.9c2-6.2,2.8-11.6,6.5-17"/>
<path fill="#EAEAEA" stroke="#D6D6D6" stroke-miterlimit="10" d="M264,350.6c0.9,0.5,2.4,0.4,2.6-0.6c0.2-0.8-0.7-1.5-1.5-1.8
	c-0.6-0.2-1.2-0.4-1.7-0.1c-0.4,0.3-0.5,0.9-0.3,1.4C263.2,350,263.6,350.3,264,350.6z"/>
<path fill="#FFFFFF" stroke="#4E9BD7" stroke-miterlimit="10" d="M189.4,165.1c0.2-0.2,0.4-0.4,0.4-0.7c0.1-0.5-0.4-1.1-0.9-1.1
	c-0.4,0-0.7,0.2-0.9,0.5s-0.2,0.7-0.2,1c0,0.1,0,0.1,0,0.2c0.1,0.1,0.2,0.2,0.4,0.2C188.7,165.3,189.1,165.3,189.4,165.1z"/>
<path fill="#FFFFFF" stroke="#4E9BD7" stroke-miterlimit="10" d="M186.1,160.5c-0.4,0.3-0.4,0.9-0.4,1.4c0,0.3,0,0.6,0.2,0.8
	c0.2,0.1,0.4,0.2,0.6,0.1c0.4-0.1,0.8-0.3,1-0.6c0.3-0.4,0.3-1,0-1.4C187.2,160.4,186.5,160.2,186.1,160.5z"/>
<path fill="#FFFFFF" stroke="#4E9BD7" stroke-miterlimit="10" d="M191.1,161.2c0,0.3,0,0.6,0.2,0.8s0.5,0.3,0.7,0.2
	c0.2-0.1,0.5-0.2,0.7-0.4s0.4-0.4,0.4-0.7c-0.1-0.2-0.3-0.4-0.5-0.5c-0.2-0.1-0.5-0.2-0.8-0.2c-0.3,0-0.5,0.1-0.7,0.4
	C191.1,160.9,191.1,161,191.1,161.2z"/>
<path fill="#FFFFFF" stroke="#D6D6D6" stroke-miterlimit="10" d="M354.8,122.6c0.2-0.1,0.3-0.4,0.4-0.6c0.2-0.7,0.1-1.6-0.5-2.1
	c-0.6-0.5-1.7-0.7-2.1,0c-0.3,0.5-0.1,1.1,0.2,1.6c0.2,0.4,0.5,0.7,0.8,1C353.9,122.7,354.4,122.8,354.8,122.6z"/>
<path fill="#FFFFFF" stroke="#D6D6D6" stroke-miterlimit="10" d="M222,110.9c0-0.7-0.7-1.1-1.4-1.1s-1.2,0.5-1.7,0.9
	c-0.6,0.6-1.2,1.3-1.6,2.1c-0.1,0.2-0.2,0.3-0.2,0.5c-0.1,0.6,0.7,1.1,1.3,1c0.6-0.1,1.1-0.5,1.6-0.9c0.5-0.5,1.1-1,1.5-1.5
	C221.8,111.6,222,111.2,222,110.9z"/>
<g>
	<g>
		<path fill="none" stroke="#585858" stroke-miterlimit="10" d="M-68.5,349.2c0.6-0.4,1.1-0.8,1.6-1.2"/>
		<path fill="none" stroke="#585858" stroke-miterlimit="10" stroke-dasharray="4.0013,1.0003" d="M-66.1,347.4
			c7.4-6.2,11.6-16.2,10.7-25.8c-0.4-4.1-1.6-8.6,0.4-12.3c1.7-3.1,5.2-4.6,8.4-5.9c9.5-3.8,25.2-6.4,29.3-8.6
			c0.8-0.4-0.8-1.7-1.1-2.5c-0.2-0.9-1.7-3.4-0.7-3.6c0.9-0.2,1.6,0.9,2.4,1.3c0.9,0.4,1.7,0.8,2-0.1c0.7-1.6-3.1-3.3-1.9-4.6
			c0.6-0.6,2,0.9,2.7,0.3c1.5-1.5-2.6-4.4-1.4-6.2c0.7-1.1,3.1,0.3,3.7-0.9c0.7-1.5-2.3-3.9-1.1-4.9c1-0.8,3,1.7,3.8,0.7
			c0.9-1-0.5-3,0.4-3.9c0.7-0.7,2.1,0.6,2.9,0c1.6-1.1-1.4-5,0.4-5.7c2.5-1,4.9-0.7,6.4-2.9c1.6-2.3,3.2-4.7,3.8-7.5
			c0.6-2.5-2.1-5.1-1-7.4c0.3-0.7,1.8,0.2,2.2-0.4c0.5-0.7-0.9-1.7-0.4-2.3c0.6-0.7,2.3,0.5,2.8-0.3c0.5-1-1.1-2.1-0.8-3.1
			c0.3-1,1.5-0.5,2.5-0.8c0.9-0.3-0.7-2.2,0-2.8c0.6-0.5,2,0.8,2.4,0.1c2.2-3.9,5.6-2.6,6.3-3.4c2.7-2.9-2.9-5.8,0.3-8.3
			c5.1-4,14.2-0.4,15.3,0.3c1.5,1,1.3-3.4,3.2-3.6c1.8-0.2,3.6,0.6,5.4,1c3.7,0.7,7.7-0.3,10.5-2.8c3.7-3.3,7.4-6,10-10.2
			c4.8-7.7,9.3-15.4,13.6-23.3c2.2-4,5.2-8.7,9.8-8.8c0.3,0,0.7,0,0.9-0.3c0.1-0.3-0.2-0.6-0.2-1c-0.1-0.6,0.5-1.1,1-1.5
			c3.3-2.1,6.5-8.2,9.8-6.2c1.5,1-2.2,4.5-0.6,5.4c3.5,2,6.9-8.6,10.4-6.4c3.5,2.3-5.8,8.4-3.4,11.9c3.5,5.1,11.4-13.5,15.9-9.2
			c0.9,0.9-1.3,3.1-0.3,3.8c1,0.7,2.4-2.1,3.5-1.5c0.7,0.4-0.4,2.2,0.3,2.3c1.3,0.2,1.6-3.6,2.7-2.9c2.3,1.3-1.9,7,0.6,7.8
			c0.7,0.2,0.9-1.8,1.6-1.6c0.9,0.2-0.1,2.5,0.8,2.7c2.3,0.4,2.7-3.9,4.1-5.8c0.3-0.5,0.8-1,1.3-0.9c1.1,0.1,1.6,2.8,2.4,2.1
			c0.8-0.7,0-2.5,0.8-3.2c0.9-0.7,2.6,1.5,3.3,0.6c0.9-1,0.4-2.9,1.8-3c1.4-0.1,2.7,0.9,3.3,2.2c0.7,1.2,0.9,2.7,1.2,4
			c0.5,2.3,1.4,4.5,2.4,6.6c0.9,2,1.8,4,3.4,5.5c4.4,4.2,12.3,3,16.5,7.4c2.6,2.7,8.4,0,10.4,3.2c0.9,1.4-0.8,1.7-0.1,3.3
			s1.8,2.9,3,4.2c2.3,2.5,4.9,5.2,8.3,5.5c2,0.2,4.1-0.5,6.1-0.2c1.4,0.2,2.8,0.9,4.2,0.6c1.8-0.5,3-2.7,4.9-2.5
			c2,0.2,3.4,3.1,5.3,2.3c2.2-0.9,0.3-4.6,1.7-6.4c0.3-0.4,0.8-0.7,1.1-1.1c1.7-2-0.7-4.9-0.2-7.5c0.2-1,0.9-1.9,1.5-2.8
			c1.4-1.8,2.8-3.6,4.2-5.4c0.8-1.1,2.4-0.7,3.3-1.7c1.8-1.8-4.5-4.6-3.2-6.8c1.4-2.4,6,2.6,8.4,1.1c2-1.2-2.3-4.6-1.2-6.7
			c0.7-1.4,2.8-1.6,2.9-3.1c0.1-1.5-2.3-2-2.4-3.5c-0.2-2.4,4.7-0.9,7.1-1.1c2.4-0.2,5.1-1,6.2-3.2c0.5-0.9,0.8-2.2,1.9-2.4
			c1.1-0.2,1.9,1.2,3,1.6c2,0.8,4.3-1.7,6.2-0.7c0.6,0.3,0.9,0.9,1.3,1.5c1.3,2.2,2.7,4.4,4,6.5c0.4,0.7,0.8,1.4,1.2,2
			c1.6,2.6,3.3,5.3,4.9,7.9c1.2,2,2.5,4,3.4,6.2c0.2,0.5,0.4,1.1,0.8,1.4c0.8,0.8,2.1,0.7,3.3,0.8c4.7,0.4,8.4,3.9,11.7,7.3
			c2.7,2.8,4.4,6.1,6.6,9.3c0.9,1.4,2.4,1.9,4.1,1.7c3-0.5,5.2-3,7.4-5.1c2.3-2,5.6-3.7,8.3-2.2c1.8,1,2.5,3.2,3.4,5
			c2.2,4.5,6.1,7.9,9.5,11.6c4.1,4.5,7.2,12.4,10.3,15c0.7,0.6,0-2.4,0.9-2.7c0.8-0.3,0.8,2.1,1.7,1.9c1.4-0.2,0-3.6,1.3-4.1
			c2.3-0.9,5.1-1.1,7.2,0.2c2.4,1.5,3.8,9.4,4.9,6.8c2-4.9,3.5-9.2,6.5-9.4c2.6-0.2,5.8-1.7,8.5-3.2"/>
		<path fill="none" stroke="#585858" stroke-miterlimit="10" d="M364.4,222.2c0.6-0.3,1.2-0.7,1.8-1"/>
	</g>
</g>
<g>
	<g>
		<path fill="none" stroke="#585858" stroke-miterlimit="10" d="M45.8,223.8c-0.2,0.5-0.3,1.2-0.4,2"/>
		<path fill="none" stroke="#585858" stroke-miterlimit="10" stroke-dasharray="3.9852,0.9963" d="M45.4,226.8
			c0.1,1.3,0.4,2.6,1.1,3.6c1.3,1.9,3.1,3.8,2.9,6.1c-0.1,1.9-1.6,3.4-2.3,5.1c-1.5,3.4,0.1,7.8,3.3,9.5c1.1,0.6,2.3,0.9,3.2,1.7
			c3.2,2.7,0.7,8.1,2.4,12c0.4,1,1.1,1.8,1.6,2.7c2.9,5.1-0.1,11.5-0.4,17.4c-0.1,2.4,0.2,4.9-0.6,7.1c-0.8,2.3-3.6,2-5.4,3.6
			c-0.6,0.5,0.8,1.7,0.4,2.4c-0.5,0.9-2.4-0.3-3.1,0.4c-1.5,1.3-1.9,2.7-2.6,4.5c-0.9,2.2,2.4,4.4,1.3,6.5c-0.8,1.5-2.4,2.7-2.6,4.4
			c-0.1,1.1,0.5,2.2,0.6,3.3c0.5,3.7-3.7,6.4-4.3,10c-0.2,1.4,0,2.9-0.3,4.2c-0.8,3-4.2,4.4-7.1,5.4c-5.9,2-12.4,5.1-14.3,11
			c-1.7,5.5,1.3,11.7-0.4,17.3c-1.8,5.8-8.4,9.8-8.4,15.9c0,1.7,0.5,3.3,1,4.9"/>
		<path fill="none" stroke="#585858" stroke-miterlimit="10" d="M11.3,386.2c0.2,0.6,0.3,1.3,0.4,2"/>
	</g>
</g>
<text transform="matrix(1 0 0 1 258.5067 85.5601)" fill="#585858" font-family="'Verdana-Italic'" font-size="8">Grand</text>
<text transform="matrix(1 0 0 1 258.5067 95.1601)" fill="#585858" font-family="'Verdana-Italic'" font-size="8">Mountain</text>
<text transform="matrix(1 0 0 1 25.639 191.1269)" fill="#585858" font-family="'Verdana-Italic'" font-size="8">Ten Lakes</text>
<text transform="matrix(1 0 0 1 48.139 200.7265)" fill="#585858" font-family="'Verdana-Italic'" font-size="8">Pass</text>
<text transform="matrix(1 0 0 1 42.1311 93.8014)" fill="#585858" font-family="'Verdana-Italic'" font-size="8">× 9626</text>
<text transform="matrix(1 0 0 1 230.462 120.8305)" fill="#585858" font-family="'Verdana-Italic'" font-size="8">Ten Lakes (i)</text>
<text transform="matrix(1 0 0 1 16.9748 88.8566)" fill="#585858" font-family="'Verdana-Italic'" font-size="8">Colby</text>
<text transform="matrix(1 0 0 1 2.3752 98.4563)" fill="#585858" font-family="'Verdana-Italic'" font-size="8">Mountain</text>
<text transform="matrix(1 0 0 1 185.462 151.1638)" fill="#7BBCEB" font-family="'Verdana-Italic'" font-size="8">Ten Lakes (ii)</text>
<text transform="matrix(1 0 0 1 148.4612 224.8302)" fill="#585858" font-family="'Verdana-Italic'" font-size="8">Ten Lakes (iii)</text>
<text transform="matrix(1 0 0 1 150.7948 274.1641)" fill="#585858" font-family="'Verdana-Italic'" font-size="8">Ten Lakes (iv)</text>
<text transform="matrix(1 0 0 1 230.7971 310.498)" fill="#585858" font-family="'Verdana-Italic'" font-size="8">Ten Lakes (v)</text>
<text transform="matrix(1 0 0 1 118.131 328.8009)" fill="#585858" font-family="'Verdana-Italic'" font-size="8">× 10183</text>
<path fill="none" d="M265,267.2c-2.2,3.5-2,8.4,0.6,11.6c2,2.5,5,3.8,7.6,5.5c4.2,2.7,7.6,6.4,10.2,10.6"/>
<text transform="matrix(0.7467 0.6652 -0.6652 0.7467 263.6071 280.5946)" fill="#7D7D7D" font-family="'Verdana-Italic'" font-size="7.0004">9</text>
<text transform="matrix(0.7467 0.6652 -0.6652 0.7467 267.4738 283.7707)" fill="#7D7D7D" font-family="'Verdana-Italic'" font-size="7.0004">6</text>
<text transform="matrix(0.7467 0.6652 -0.6652 0.7467 271.0663 285.9005)" fill="#7D7D7D" font-family="'Verdana-Italic'" font-size="7.0004">0</text>
<text transform="matrix(0.7467 0.6652 -0.6652 0.7467 274.4601 288.2548)" fill="#7D7D7D" font-family="'Verdana-Italic'" font-size="7.0004">0</text>
<path fill="none" d="M277.8,127c2.6,3.6,6,6.7,7.6,10.9c3,7.5-0.1,16.7,4.2,23.5c3.4,5.3,10.4,7.1,16.6,6.5"/>
<text transform="matrix(0.5847 0.8113 -0.8113 0.5847 279.6465 133.1805)" fill="#7D7D7D" font-family="'Verdana-Italic'" font-size="7.0006">9</text>
<text transform="matrix(0.5847 0.8113 -0.8113 0.5847 282.0084 136.2864)" fill="#7D7D7D" font-family="'Verdana-Italic'" font-size="7.0006">2</text>
<text transform="matrix(0.5847 0.8113 -0.8113 0.5847 283.5815 139.8374)" fill="#7D7D7D" font-family="'Verdana-Italic'" font-size="7.0006">0</text>
<text transform="matrix(0.5847 0.8113 -0.8113 0.5847 284.2841 143.8908)" fill="#7D7D7D" font-family="'Verdana-Italic'" font-size="7.0006">0</text>
<path fill="none" d="M150.2,35.8c2.2-1.8,5.4-1.4,8.1-2.1c2.9-0.7,5.3-2.7,7.5-4.6c2.5-2.1,5-4.3,7.6-6.4c1.5-1.2,2.9-2.5,4.1-4
	c1.3-1.6,2.1-3.6,3.3-5.3c2.7-3.8,6.9-6.2,10.1-9.7"/>
<text transform="matrix(0.7644 -0.6448 0.6448 0.7644 168.6232 30.0891)" fill="#7D7D7D" font-family="'Verdana-Italic'" font-size="7.0005">8</text>
<text transform="matrix(0.7644 -0.6448 0.6448 0.7644 171.9852 27.2519)" fill="#7D7D7D" font-family="'Verdana-Italic'" font-size="7.0005">0</text>
<text transform="matrix(0.7644 -0.6448 0.6448 0.7644 175.643 24.2978)" fill="#7D7D7D" font-family="'Verdana-Italic'" font-size="7.0005">0</text>
<text transform="matrix(0.7644 -0.6448 0.6448 0.7644 179.2718 20.8447)" fill="#7D7D7D" font-family="'Verdana-Italic'" font-size="7.0005">0</text>
<path fill="none" d="M217.4,81c3-27.5,8.2-54.8,15.7-81.5"/>
<text transform="matrix(0.1222 -0.9925 0.9925 0.1222 220.483 75.9063)" fill="#7D7D7D" font-family="'Verdana-Italic'" font-size="6.9999">9</text>
<text transform="matrix(0.1222 -0.9925 0.9925 0.1222 221.0206 71.5397)" fill="#7D7D7D" font-family="'Verdana-Italic'" font-size="6.9999">0</text>
<text transform="matrix(0.1222 -0.9925 0.9925 0.1222 221.5713 67.0728)" fill="#7D7D7D" font-family="'Verdana-Italic'" font-size="6.9999">0</text>
<text transform="matrix(0.1222 -0.9925 0.9925 0.1222 222.2077 62.719)" fill="#7D7D7D" font-family="'Verdana-Italic'" font-size="6.9999">0</text>
<path fill="none" d="M194.9,247.5c9.5,0.2,17.3-7.3,23.8-14.3c10-10.8,20.8-23.6,18.8-38.2"/>
<text transform="matrix(0.6579 -0.7531 0.7531 0.6579 223.5592 231.6377)" fill="#7D7D7D" font-family="'Verdana-Italic'" font-size="6.9999">9</text>
<text transform="matrix(0.6579 -0.7531 0.7531 0.6579 226.586 228.1729)" fill="#7D7D7D" font-family="'Verdana-Italic'" font-size="6.9999">2</text>
<text transform="matrix(0.6579 -0.7531 0.7531 0.6579 229.3958 224.6525)" fill="#7D7D7D" font-family="'Verdana-Italic'" font-size="6.9999">0</text>
<text transform="matrix(0.6579 -0.7531 0.7531 0.6579 232.1956 220.9916)" fill="#7D7D7D" font-family="'Verdana-Italic'" font-size="6.9999">0</text>
<path fill="none" d="M59.1,155.9c3.6,1.4,6.3-4.4,10-5.8c8.7-3.3,17.3-13.3,26-9.9"/>
<text transform="matrix(0.8965 -0.4431 0.4431 0.8965 70.401 152.3861)" fill="#7D7D7D" font-family="'Verdana-Italic'" font-size="7.0004">9</text>
<text transform="matrix(0.8965 -0.4431 0.4431 0.8965 74.6144 150.3036)" fill="#7D7D7D" font-family="'Verdana-Italic'" font-size="7.0004">4</text>
<text transform="matrix(0.8965 -0.4431 0.4431 0.8965 78.4268 147.8615)" fill="#7D7D7D" font-family="'Verdana-Italic'" font-size="7.0004">0</text>
<text transform="matrix(0.8965 -0.4431 0.4431 0.8965 81.9709 145.5523)" fill="#7D7D7D" font-family="'Verdana-Italic'" font-size="7.0004">0</text>
<g>
	<g>
		<polyline fill="none" stroke="#7D7D7D" stroke-miterlimit="10" points="85.2,341.6 85.2,348.7 275.4,348.7 275.4,341.7 		"/>
		<line fill="none" stroke="#7D7D7D" stroke-miterlimit="10" x1="180.5" y1="341.4" x2="180.5" y2="348.7"/>
		<line fill="none" stroke="#7D7D7D" stroke-miterlimit="10" x1="161.2" y1="349.2" x2="161.2" y2="343.7"/>
		<line fill="none" stroke="#7D7D7D" stroke-miterlimit="10" x1="142.4" y1="349.2" x2="142.4" y2="343.7"/>
		<line fill="none" stroke="#7D7D7D" stroke-miterlimit="10" x1="123.3" y1="349.2" x2="123.3" y2="343.5"/>
		<line fill="none" stroke="#7D7D7D" stroke-miterlimit="10" x1="104.6" y1="349.2" x2="104.6" y2="343.7"/>
	</g>
	<text transform="matrix(1 0 0 1 83.7831 339.1466)" fill="#7D7D7D" font-family="'Verdana'" font-size="8">0</text>
	<text transform="matrix(1 0 0 1 174.2943 339.1466)" fill="#7D7D7D" font-family="'Verdana'" font-size="8">0.5</text>
	<text transform="matrix(1 0 0 1 258.342 339.1466)" fill="#7D7D7D" font-family="'Verdana'" font-size="8">1 mi</text>
</g>
<path fill="none" stroke="#4E9BD7" stroke-miterlimit="10" d="M150.2-11.8c-2.4,7.8-2.2,16.7-6.9,23.4c-0.7,1-1.5,2-1.8,3.2
	c-0.5,2.2,1,4.2,2.1,6.2c1,1.9,1.7,4,2.3,6.1c1.6,5.8,2.7,11.8,3.1,17.8c0.9,12,1.5,24.7,3.4,36.6c0.4,2.5,0.8,5,1.7,7.3
	c1.1,3.1,3,5.9,4.6,8.7c1.3,2.4,2.4,4.8,3.5,7.3c2.7,6.2,7.6,12.3,8.4,19.1c0.5,4.5,1.8,8.9,4.1,12.9c1.7,3,0,5.5,2.2,8.8"/>
</svg>
