<?xml version="1.0" encoding="utf-8"?>
<!-- Generator: Adobe Illustrator 17.1.0, SVG Export Plug-In . SVG Version: 6.00 Build 0)  -->
<!DOCTYPE svg PUBLIC "-//W3C//DTD SVG 1.1//EN" "http://www.w3.org/Graphics/SVG/1.1/DTD/svg11.dtd">
<svg version="1.1" id="Layer_1" xmlns="http://www.w3.org/2000/svg" xmlns:xlink="http://www.w3.org/1999/xlink" x="0px" y="0px"
	 viewBox="0 0 360 360" enable-background="new 0 0 360 360" xml:space="preserve">
<path fill="none" stroke="#E1E1E1" stroke-miterlimit="10" d="M-8.7,310.6c4.5,21.9,9.2,46.3,27.2,59.4"/>
<path fill="none" stroke="#E1E1E1" stroke-miterlimit="10" d="M101.9,365c-0.5-3.2-1.1-6.5-3.2-8.9c-1.3-1.5-3.9-2-4.3-3.9
	c-0.4-1.9-1.3-4.1-2.8-5.4c-0.5-0.4-1.1-0.7-1.6-1.2c-0.8-0.8-1.1-2-1.7-2.9c-2.9-4.5-6-12-10-13.1c-4.2-1.2-5.5,6.7-7.4,10.6
	c-5.7,11.3-9.7,23.4-12.1,35.7c-0.5,2.5-0.9,5-1,7.5"/>
<path fill="none" stroke="#E1E1E1" stroke-miterlimit="10" d="M391.6,327.8c-8.6,8.1-22.8,3-32.8,9.2c-3.6,2.2-6.7,5-10.6,3.3
	c-3.8-1.7-6.8-5.1-10.5-7c-3.8-1.9-7.3,0.2-11,2.2c-4.3,2.3-8.1,4.4-13,5.1c-7.4,1-15.1,0.2-18.2,7c-3.2,6.8-2.5,14.6-3.2,22"/>
<path fill="none" stroke="#E1E1E1" stroke-miterlimit="10" d="M266.2,367.2c0-2.2-0.4-4.4-1-6.5c-1-3.8-2.6-7.4-4.7-10.7
	c-2.6-4.2-6-7.9-10.2-10.6c-2.7-1.7-5.7-3.1-7.6-5.5c-2.6-3.2-2.9-8.2-0.6-11.6s6.8-5.3,10.9-4.2c2.3,0.6,4.3,2,6.3,3.1
	c12.5,6.9,29.4,4.8,39.8-4.9c2.1-2,4.1-4.3,6.7-5.5c4.3-2.1,9.4-0.8,14.1,0.1c9.1,1.7,19.3-3.8,27.7,0.1c3.6,1.7,6.8,3.7,10.4,2
	c2.4-1.1,4.4-3.4,7.1-3.2"/>
<path fill="none" stroke="#E1E1E1" stroke-miterlimit="10" d="M47.7,407.6c-13.6-14.2-3.2-39.2-6.4-58.6c-0.3-1.9-0.7-3.8-1.6-5.4
	c-2.1-3.5-7.1-0.8-10.6-2.7c-15-8.3-4-34.2-10-50.2c-1.6-4.2-3.3-8.3-4-12.7c-1.3-9.2,2.3-18.4,7.2-26.3c4.2-6.9,10-13.5,17.9-15.5
	c10-2.5,20.8,3.6,26,12.5c5.2,8.9,5.8,19.8,4.4,30c-1.4,9.9,3.5,21.3-2.1,29.6c-1.1,1.6-1.2,2.8-0.1,4.3c4.3,5.8,8.6,11.7,13.8,16.7
	c3.7,3.6,7.9,6.8,11.4,10.6c9,9.9,12.7,23.3,16.9,35.9"/>
<path fill="none" stroke="#E1E1E1" stroke-miterlimit="10" d="M342.3,368.3c1.4-2,2.8-4.1,3.2-6.5s-0.8-5.2-3.1-6
	c-2.9-1-5.7,1.5-8.5,2.8c-2.9,1.4-6.3,1.5-9.4,2.5"/>
<path fill="none" stroke="#E1E1E1" stroke-miterlimit="10" d="M99.6,364c0.4-3.1-1.9-6.6-4.9-7.2c-0.7-0.2-1.6-0.1-2.2-0.5
	c-1.2-0.6-1.5-2.2-2-3.4c-0.5-1.3-1.9-3.1-2.9-2.2c-7.1,5.6-8.6,15.9-11.5,24.4c-2.1,6.2-3.7,13.5,0,19"/>
<path fill="none" stroke="#E1E1E1" stroke-miterlimit="10" d="M-28,248.1c5.5,2.5,9.7-7,15-8c1-0.2,2.1,0.4,3,0
	c9.1-3.8,8.7-16.2,15-23c1-1,3.5-1.2,4,1c0.2,1-1.2,1.4-0.3,2.1c3.4,2.5-1.1-1.1,0,0c3.1,3.3,8.5-3.9,11.3-7.1c4.3-4.8-4-7-5-10
	c-4-12-1.2-24.9-7-37c-5.2-10.9-20.7-18.8-19.4-32.2c0.9-9.4,3.2-17.6,6-26.6s8.8-18.2,18-20.4c2.5-0.6,5.2-0.7,7.8-0.9
	c7.4-0.7,16.1-3.6,23.2-7c4.4-2.1,8.7-5.9,12.8-3.8c2.7,1.3-6.5,10.7-9.7,15.8c-4.5,7.2-6.1,15.8-7.6,24.1c-0.4,2.1-0.8,4.3-0.7,6.5
	c0.1,1.9,0.5,3.9,0.5,5.8c0.1,3.3-1,6.6-2,9.8c-3.2,9.9-6.3,19.8-9.5,29.7c-1.7,5.3-3.4,11-2.2,16.5c1.2,5.5,7.6,5.7,11.9,9.4
	c4.7,4-6.5,16.1-0.8,18.3c3.6,1.4,6.3-4.4,10-5.8c8.7-3.3,17.3-13.3,26-9.9c5.5,2.1,5.4,10.5,8,15.8c2.6,5.1,5.3,11.1,2.9,16.4
	c-1,2.2-2.8,4-3.8,6.3c-1.4,3.3-0.7,7-0.3,10.6c1.4,11.2,0,22.6-2.2,33.7c-1.1,5.9-2.5,11.9-2.2,17.9s9.3,10.1,7.5,15.8
	c-0.3,1-0.6,2.7,0.3,3s2-0.1,3,0.1c2.8,0.5,2.9,4.4,3.6,7.2c1.6,6.6,9.5,9.2,14.6,13.8c10.7,9.9,6.8,28.2,14.2,40.8
	c1.1,1.9,2.6,3.8,4.7,4.7c2.3,1,4.9,0.7,7.4,0.4c12-1.6,24-3.8,35-8.7c3.5-1.6,6.9-3.4,10.1-5.5c2.5-1.7,4.5-4.1,4.8-7.2
	c0.1-1.8,1.1-3.4,1.6-5.1c1.1-3.5,2.4-7.2,5.3-9.4c2.9-2.2,8-1.9,9.4,1.5c0.9,2.3,0,5,0.9,7.2c1,2.4,4.2,3.5,6.5,2.3
	c5.9-3.3,5.9-6,1.4-6.8c-1.5-0.3-2.4-1.9-3.4-3c-1.9-2-3-4.9-2.8-7.7c0.5-7.2-5.1-10.4-9.3-14.3c-4.2-3.9-4.4-11.9-0.1-15.7
	c2.3-2.1,5.8-2.5,8.2-4.5c3.5-2.9,4.2-8.2,7.5-11.3c4.4-4.1,11.3-2.6,17.2-3.4c9.7-1.2,17.5-8.9,22-17.6c0.7-1.3,1.3-2.7,1.2-4.2
	c-0.2-3.1-3.3-5-5.5-7.1c-7.2-6.9-6.9-19.4-14.3-26.1c-1.5-1.4-3.4-2.7-3.8-4.7c-0.2-1.1,0.1-2.3,0.5-3.4c1.6-5.1,1.9-10.8,4.8-15.4
	c2.3-3.7,8.9-5.6,11.2-1.9c0.7,1.2,0.8,2.6,0.9,3.9c0.8,7.6,5.7,14.1,10.4,20.1c1.5,1.9,3,3.9,3.9,6.1c0.9,2.2,1.3,4.7,1.6,7.1
	c1.3,9.8,2.6,19.7,1.4,29.6c-0.5,3.7-1.4,7.4-1.4,11.1c-0.1,11.7,9.1,22.7,20.6,25.1s24.1-4,29.4-14.5c1.7-3.5,4.1-7.5,2.9-11.2
	c-1.8-5.4-10.3-9.5-7.7-13.3c2.6-3.8,9.1-2.6,12.7-5.6s5.9-8,4.2-12.3c-1.5-4-5.7-6.2-9.2-8.6c-3.5-2.5-6.9-6.5-5.6-10.6
	c0.7-2.1,2.4-3.6,4.1-5c2.5-2.1,5-4.2,7.5-6.3c1.2-1,2.5-2.1,4.1-2.5c4.3-1,7.6,3.5,11.1,6c5.5,3.9,13,3.4,19.6,2.3
	c17-2.7,33.6-8,49-15.5"/>
<path fill="none" stroke="#E1E1E1" stroke-miterlimit="10" d="M342.6,249.2c-3.1,0.1-7-0.1-9,2.4c-2.4,3,2.2,7.4,1.9,11.3
	c-0.1,1.1-0.4,2.1-0.3,3.2c0.1,1.1,0.9,2.2,1.9,2.2c1.9-0.1,2.1-3.2,3.8-3.9c1-0.4,2.1,0.2,3.1,0.7c1.8,0.8,4.5,2.1,5.7,0.5
	c2-2.7-1.5-6.6-3.3-9.4c-0.3-0.5-0.6-0.9-0.7-1.5c-0.2-1.2,0.8-2.4,0.5-3.6C345.9,249.5,344.1,249.2,342.6,249.2z"/>
<path fill="none" stroke="#E1E1E1" stroke-miterlimit="10" d="M73.6,217.5c1-1.6-2.4-4-3.8-2.7c-0.9,0.8-1,2.8,0,3.5
	C70.9,219.1,72.9,218.6,73.6,217.5z"/>
<path fill="none" stroke="#E1E1E1" stroke-miterlimit="10" d="M23.7,108.5c0.2-2.7,0.5-6.6-2-7.6c-1.5-0.6-2.5,1.8-2.9,3.4
	c-2,6.8-4.1,13.6-6.1,20.4c-1,3.4-2.1,7-1.9,10.6c0.2,5.4,3,10.3,5.7,14.9c1.1,1.8,2.7,4.6,4.6,3.8c4.1-1.8,3.7-8.1,3.1-12.5
	c-0.6-4.4-2.2-8.6-2.6-13.1C21,121.7,23.3,115.1,23.7,108.5z"/>
<path fill="none" stroke="#E1E1E1" stroke-miterlimit="10" d="M-33,12.1c3.7-4.3,9-4.3,14-5C-8,5.5,5.3,8.4,14,0.1
	c3.1-2.9,2-3,2.4-9.6c0.2-3.6,7.5-1.3,10.6,0.6c6.9,4.2-1.9,14-5,20C15.2,24.2,5.7,35,1,48.1C-3.2,60-9.4,76.9-1.8,83.1
	c8.4,6.8,25.4-2,40-5.8c7.3-1.9,19.3-12.5,22.1-8.7c0.8,1.2,0.2,2.8,1.4,3.5s2.7,1.4,3.2,2.7c0.7,2.1-1.4,3.9-3.2,5.2
	c-10.9,8.1-14.4,22.6-17,35.9c-2.7,13.9-5.1,27.8-7.2,41.8c-1.2,7.8-1.7,17.2,4.5,22.1c4.8,3.7,13.2,6.3,17.6,2.1
	c2.6-2.4,2.5-6.7,5-9.2c2.3-2.2,6-3.7,8.5-1.8c1.2,0.9,1.8,2.4,2.6,3.7c2.3,3.6,6.6,5.7,8.6,9.6c1.6,3.2,1.3,6.9,1.5,10.4
	c0.5,8.4,4,16.6,9.7,22.8c3.3,3.6,7.7,7.4,7.4,12.3c-0.3,3.9-3.6,6.9-5.2,10.5c-2.6,5.9-0.5,12.8-2.3,19c-1,3.6-3.3,6.7-4.9,10.1
	c-4.6,9.6-3.7,20.9-2.7,31.5c0.8,8.1,7.9,14.4,13.5,20.2s23.1,11.7,22.2,3.6c-1.4-13,10.2-28.6,33.5-25.8c5.1,0.6,9.7,3.4,14.9,3.5
	c9.5,0.2,17.3-7.3,23.8-14.3c10-10.8,20.8-23.6,18.8-38.2c-0.8-5.8-4.5-12-10.4-12.7c-2.1-0.3-4.6,0.1-6.1-1.4
	c-1.7-1.7-0.9-4.6,0-6.9c6.6-15.6,15.1-30.7,18.2-47.3c2.5-13.7,1.2-27.8-0.1-41.7c-0.2-2.4-0.5-4.9-2.1-6.6c-1.2-1.3-2.9-1.9-4-3.2
	c-1.2-1.5-1.4-3.6-1.5-5.5c-1.1-32.8,11.1-67.5,35.7-78.5c4.3-1.9,16.4-16.4,21.5-14.1c4.1,1.9-1.9,11.6,2.3,13.3
	c5.5,2.4,13.6-0.6,14.3,5.4c0.7,6-4.2,13.1-7.7,18.1c-4.2,5.9-8.4,11.9-11.7,18.3c-5.4,10.5-8.3,22-11.2,33.4
	c-5.2,20.6-9.8,44.5,2.8,61.6c2.6,3.6,6,6.7,7.6,10.9c3,7.5-0.1,16.7,4.2,23.5c3.4,5.3,10.4,7.1,16.6,6.5c6.2-0.7,12-3.4,17.8-5.6
	c6-2.2,12.6-3.8,18.7-1.9c7.2,2.2,14.8,9.1,21,4.9c2.9-2,4-5.6,5.1-8.9c4.3-12.8,8.4-35.7,21.7-33.6"/>
<path fill="none" stroke="#E1E1E1" stroke-miterlimit="10" d="M-18,211.1c1,0.2,2.7,3.2,4,5c0.8,1.1,2.1,1.4,3,1
	c6.5-2.7,7.9-10.3,12-16c1.3-1.8,1.5-3.8,2-6c0.5-1.9-0.1-2.9-1-4c-2.3-2.8-6-1-8-3"/>
<path fill="none" stroke="#E1E1E1" stroke-miterlimit="10" d="M410.6,414.3"/>
<path fill="none" stroke="#E1E1E1" stroke-miterlimit="10" d="M-27.7,1.4c4-0.1,8,0.9,12,1.3c4.9,0.5,10,0.2,14.8-0.9
	C4.8,0.4,10.8-2.9,11.7-8.6c0.3-2,0.1-4.2,1.4-5.7c0.8-0.8,2-1.2,3.1-1.5c8.5-2.3,23.6-5.5,24.6,3.3c1.9,15.7-13.5,28.6-22,41.9
	C15,35.6,10.8,41.6,8.7,48.6s1.1,13.7,2.8,20.7c0.4,1.5-1.8,3.3-0.9,4.6c3.7,5.7,13.6,2.8,20.2,0.9c7.1-2,13.1-3.2,19.5-6.9
	c2.2-1.3,7.1-3.7,9.3-5c3.1-1.8,3.5-6.7,6.7-4.9c2.3,1.3-2,5.7-0.8,8.1c0.9,1.7,3.9-1,5.5-0.1c7.2,4.3-5.7,14.9-11.2,21.3
	c-10.5,12.4-10.5,33.8-13,51.3c-1.9,12.7-5.5,26.6,4.8,26.5c5.2-0.1,1.8,5.2,7,4.7c9.1-0.9,11.2-24.6,18.6-19.2
	c8.3,6.1,8.8,17.9,13.1,27.2c5.8,12.5,2.5,29,11.8,39.3c6.8,7.4,20.8,18.1,24,17.7c1.8-0.2,3.8-12.2,4.9-9c2,5.7,1.9,12.2,0.5,15.7
	c-0.5,1.4,2.5,1.7,3,2.8c6.8,15.6,10,34.6,39.8,38.1c2.3,0.3,4.8,0.8,7,0c1.7-0.6,3.1-1.7,4.3-3c5.1-5,13.9-13.7,9.1-18.9
	c-2.3-2.5-7.1,1.3-10.3,0.1c-7.4-2.9-2.6-15,0.9-22.1s6.5-16.8,0.5-22c-4.1-3.6-10.9-3.2-14.3-7.5c-1.8-2.3-2.1-5.3-2.7-8.2
	c-3.7-20.8-30.6-45.7-15.6-60.5c4.2-4.2,12,0,17.1,2.9c1.8,1,3.5,2.3,4.2,4.3c0.8,2.5-0.5,5.2-1.4,7.8c-3.5,10-2.4,27.9,8.2,28.7
	c4.7,0.4,9.4-2.5,13.7-0.3c1.5,0.8,3.1,1.9,4.8,1.9c3.3-0.1,5-4,5.7-7.2c2.3-10.4,2.5-23-6-29.5c-1.5-1.2-3.3-2.1-4.4-3.7
	c-1.5-2.2-1.3-5.2-1-7.8c3-27.5,8.2-54.8,15.7-81.5c1-3.5,2.1-7.1,4.3-10.1c4-5.4,11-7.6,17.4-9.4c9.2-2.7,18.5-5.3,27.7-8
	c4.3-1.2,8.9-2.4,13-0.6c4,1.8,1.3,6.4,2.6,10.7c1.5,4.8,10.1,0.4,15.2,0.7c1.7,0.1,3.5,0.2,4.6,1.5c1.1,1.2,1.1,3,1,4.6
	c-0.9,12.5-6,24.2-11,35.7c-5.2,12-10.5,23.9-15.7,35.9c-4.2,9.5-8.3,20.4-3.9,29.8c1.9,3.9,5.1,7.1,8.2,10.1
	c3.3,3.2,7.3,6.6,11.8,5.6c2.2-0.5,4.2-2,6.4-1.7c2.3,0.3,3.9,2.4,6.1,3.1c2.5,0.8,5.1-0.5,7.4-1.7c12.1-6.3,24.8-13.1,32.1-24.7
	c4.1-6.6,8.2-24,13.8-18.6c4.4,4.3-7,12.5-3.9,17.9c2.5,4.4,11.1,0.8,14.2,4.8c4.4,5.6-0.2,15.9,5.6,20"/>
<path fill="none" stroke="#E1E1E1" stroke-miterlimit="10" d="M173.3,266.4c1.6-0.3,3.4-0.1,3.8-1.6c0.4-1.6-0.6-3.3-2-4
	c-1.5-0.7-3.2-0.5-4.7,0.1c-0.7,0.3-1.3,0.6-1.9,0.9c-1.1,0.4-2.3,0.4-3.2,1c-2,1.2-2.1,4.1-1.9,6.4c0,0.3,0,0.5,0.2,0.7
	c0.2,0.2,0.4,0.2,0.6,0.2C166.5,270.3,171,266.8,173.3,266.4z"/>
<path fill="none" stroke="#E1E1E1" stroke-miterlimit="10" d="M226.9,112c0.5-2.8,3.2-6.1,1.6-8.4c-1.1-1.6-4.2,0.8-5.8-0.3
	c-6.1-4.1-1-15,3-21.2c0.8-1.2,1.7-2.3,2.9-2.9c3.3-1.5,7.1,1.6,8.1,5.1s0.5,7.2,1.2,10.8c0.7,3.4,2.5,6.5,3.3,9.9
	c2.1,8.6-2.1,17.4-3,26.3c-0.6,6,0.3,12.4-2.3,17.8c-0.5,1-1.1,2-1.5,3.2c-0.3,0.9-0.4,1.9-0.5,2.8c-0.9,8.6-3.9,16.8-6.9,24.9
	c-0.2,0.5-0.4,1-0.8,1.3c-0.7,0.5-1.7,0-2.1-0.7c-0.4-0.7-0.5-1.6-0.5-2.4c-0.1-7.8,0.7-15.6,2.4-23.3c0.4-1.9,0.9-3.8,1-5.8
	c0.3-4.6-1.3-9.1-1.9-13.7C224,127.8,225.4,119.8,226.9,112z"/>
<path fill="none" stroke="#E1E1E1" stroke-miterlimit="10" d="M-18,77.8c1.1-2.5,1.9-5.2,2.9-7.8c1-2.5,2.4-4.8,3.4-7.3
	c1.8-4.4,2.7-9.2,4-13.8c1.6-5.9,3.7-11.6,6.4-17c3.5-7.1,12.7-14.6,9.4-21.7c-1.4-2.9-6.1,0.2-9.1,1.3c-5.1,1.9-10.7,1.9-15.8,3.9
	c-8.4,3.3-13.6,11.4-19.8,17.9"/>
<path fill="none" stroke="#E1E1E1" stroke-miterlimit="10" d="M45-27.5c-1,3.1-3.1,6.7-1.7,9.7c1.3,2.9,6.8-0.3,8.9,1.9
	c1.7,1.8,0.5,4.7-0.8,6.8c-2,3.3-4,6.6-6.4,9.6c-1.6,2-3.3,4-4.9,6c-3,3.9-5.3,8.3-7.5,12.7c-4.8,9.4-9.5,19-11.7,29.2
	c-0.7,3.4-1.2,6.9-0.7,10.4c0.1,0.7,0.3,1.4,0.8,1.8c1.3,1,3.6-0.6,4.7,0.6c0.4,0.5,0.4,1.1,0.6,1.7c0.9,2.9,5,2.7,7.9,1.9
	c4.7-1.4,20.3-7,25.4-9.2c4.3-1.8,11.7-6.3,12.7-6.1c2.7,0.7,0.7,5.6,1.1,8.4c0.2,1.5,1.3,2.1,2.7,2.8c6.5,3.2-8.1,22.6-12.9,33.8
	c-5.7,13.2-7.3,27.9-7.5,42.3c0,3.1-1.2,8,1.6,9.3c1.8,0.8,2.9,2,4.9,2.2c3.2,0.2,2.1-7.5,5.3-8.1c4.5-0.8,9.3,2.5,12.7-0.5
	c0.6-0.5,1.1-1.1,1.7-1.5c0.8-0.5,1.7-0.7,2.6-1.1c3.6-1.2,5-8,8.6-6.9c9.6,2.9-11.6,21.8-5.2,29.7c3.4,4.2,6.2,5.7,8.3,10.7
	c0.5,1.3,2.9-0.3,4,0.5c4.5,2.9,3.7,10.1,7.5,13.9c2.6,2.6,6.2,7.2,9.4,5.4c1.9-1.1,0.1-4.4,0-6.7c-0.1-2.2,1.1-4.9,3.3-5.1
	c1.2-0.1,2.2,0.6,3.4,0.7c1.5,0.2,2.9-0.5,4.3-1.1c6.2-2.6,14.9,3.1,19.9-1.5c7.5-6.8-3.1-20-4.6-30c-0.6-3.6-1.1-7.3-0.1-10.8
	c1.3-4.7,5.1-8.1,8.7-11.4c0.7-0.6,1.4-1.2,2.2-1.4c0.9-0.2,1.7,0.1,2.6,0.4c6.4,1.7,13.4-0.1,19-3.7c5.5-3.7,9.8-9,13.3-14.6
	c1.5-2.4,2.9-5,3.6-7.7c0.8-3.1,0.7-6.4,0.9-9.6c0.4-8.4,2.3-16.6,4.1-24.7c0.4-1.8,0.8-3.5,1.7-5.1c0.9-1.6,2.3-2.9,3.5-4.4
	c3.2-4.2,4.3-9.5,6.5-14.3s7-6.7,11.7-9.1c4.1-2.1,5.7-7,10.2-7.6c4.9-0.7,9.9,0.9,14.8,0.2c2.8-0.4,5.4-1.6,7.6-3.4
	c0.9-0.7,1.7-1.6,2.8-2.1c1.1-0.6,2.4-0.8,3.6-1c7.4-1.1,18.5-4.8,22.1,1.8c1.9,3.6-1,8.1,0.2,12c0.2,0.5,0.4,1,0.8,1.4
	c0.8,0.7,2.1,0.4,3.2,0.2c2.3-0.3,4.6,0.3,6.8,0.9c4.5,1.3,9.6,3,11.4,7.3c2.2,5.1-0.9,12.1,3.2,15.7c0.5,0.4,1.1,0.8,1.3,1.4
	c0.2,0.5,0.1,1.2,0,1.7c-1.6,8-5.8,15.2-7.4,23.2c-0.5,2.6-0.8,5.3-1.2,7.9c-0.5,3.1-1.3,6.1-2.1,9.1c-1,3.9-2,7.7-3,11.6
	c-0.8,3.1-1.6,6.3-3.1,9.1c-2,3.7-5.1,7.1-5.1,11.3c0.1,4.4,4.4,8.2,8.7,7.7c0.8-0.1,1.5-0.3,2.3-0.4c4.5-0.5,9.3,2.3,13.4,0.4
	c1.3-0.6,2.3-1.6,3.3-2.6c6.5-6.4,13.2-12.6,20.2-18.5c5.3-4.6,11-9.1,17.8-10.6c2.6-0.6,6.4-3.4,8.1-1.3c5.7,7.1-13.8,19-8.2,26.2
	c1.9,2.3,6-0.6,9,0.2s5.7,2.6,6.7,5.5c0.5,1.6,0.5,3.2,0.6,4.9c0.3,4.2-0.2,11,3.9,11.8"/>
<path fill="none" stroke="#E1E1E1" stroke-miterlimit="10" d="M54.2-26.7c-2.2,1.8-2.5,4.2-0.2,5.8c3.6,2.6,13.1,1,10,7
	c-9.8,19.1-29.5,34.6-32,58c-0.2,2-1.1,5.2,0,6c1.8,1.3,3.7,2.2,5,4c0.8,1.1,0,2.9,1,3c7.2,1,14.7-3.9,22-6c5.8-1.7,12.5-4.5,19-3
	c1,0.2-1.5,4.6-0.1,6c4.3,4.4-1-1.3,0,0c1.3,1.7,2.2,2.1,2.1,3c-1.5,23.1-22.7,62.8-11,66.9c3.3,1.2,3.9-7.4,8-7.9
	c1-0.1,1.7,0.5,2,1c1.7,2.7-3.7,8.3-1,10c6.8,4.3,17.9-14,21-2c2.9,11-4.3,36.2,10,33.7c3.5-0.6,1.5,0.3,2.8,2.8
	c1.3,2.5,4.5-0.3,7.2-1.5c1.3-0.6,2-2,4-2s3.6,2.5,5.4,0.8c3.4-3.4,3.3-1.2,7.5-3.5c7.9-4.4-2.2-19.5,3.1-26.2
	c8.4-10.5,22.2-9.9,33-16c1.2-0.7,2.1-1.9,3-4c4.6-10.8,8.2-21.7,11-33c5.1-20.4,13.9-36.9,27-52c1.9-2.1,4-6,7-8s5.9-4.2,9-6
	c1.9-1.1,3.8-2.5,6-2c1,0.2,1.7,0.5,2,1c3,4.5,5.1,8.2,10,5c7.2-4.7,12.1-11.4,21-10c5,0.8,9.7,2,15,3c2.9,0.6,3.5,5,4,9
	c1,8.2,10.6,7.8,17,13c7,5.6,14.4,9,20.1,16c3,3.7,0.1,9.6-1,14.2c-1.1,4.3-2.1,8.6-3.8,12.7c-1.7,4.2-4,8.2-4.9,12.7
	c-0.4,2.3-0.4,4.6-0.4,7c0,4.3,0.1,8.6,0.3,13c0,0.9,0.1,1.8,0.8,2.4c1.1,0.8,2.6,0,3.7-0.7c6.5-4.2,14.4-5.5,22-6.7
	c2.6-0.4,5.2-0.8,7.9-0.7c6.4,0.3,15.2-1.8,18.8,3.5c4.7,6.8-12.7,18.8-6.2,24c2.2,1.7,5.5-1.4,8.1-0.4"/>
<path fill="none" stroke="#E1E1E1" stroke-miterlimit="10" d="M75-27.5c3.4,2.3,1.4,7.5-0.8,10.9c-8.5,13-17,26-25.4,39
	c-4,6.2-8.2,13.3-6.6,20.5c0.7,3.1,1,8.3,4.2,8.5c7.9,0.4,18.8-8,29.8-9.3c3.1-0.4,7.4-1.1,8.1,1.9c0.3,1.1-0.2,2.4,0.1,3.5
	c0.7,2.5,4.5,2.5,6.3,4.4c1.7,1.7,1.3,4.6,0,6.6c-1.3,2-3.6,3.1-5.1,5c-3.9,5.1-8.7,22.5-7.2,33c0.3,2-1.3,4.7,0.6,6.6
	c2.1,2.2,5.9-1.8,8,0.4s0.8,6.5,3.1,8.4c4.6,3.7,12,1.1,17.2,4c1,0.6,2.1,1.2,2.7,2.3c2.1,3.5-2,8-0.6,11.8c0.8,2.1,3,3.3,5,4.3
	c2.9,1.4,5.8,5.7,8.6,4.2c2.4-1.3,3.8-1.6,6.2-3c7.1-4.1,7.2-14.4,14.2-18.7c7.3-4.5,15.2-8.5,21.1-14.7c8.6-9,12.2-21.5,16.5-33.2
	c6.9-18.6,16.2-36.3,27.7-52.5c5.7-8.1,13.1-16.4,23-17.4c2.1-0.2,3.6-0.6,5.7-0.2s4.1,2.1,4.3,4.2c0.1,0.9-0.1,1.7,0.1,2.6
	c0.4,1.8,2.5,2.7,4.3,2.6c1.8-0.2,3.4-1.2,5-2.2c12.4-7.7,25.9-13.5,40-17.3c2.7-0.7,7-2.8,8.4-0.3c1.3,2.4-3,5.4-1.7,7.9
	c0.5,0.9,1.4,1.5,1.7,2.4c0.5,1.5-0.7,2.9-1.6,4.2c-2.7,4.3-1.2,10.7,3.2,13.4c0.7,0.4,1.5,0.8,2.2,1.3c1.2,1,1.8,2.5,3.2,3.1
	c0.7,0.3,1.5,0.3,2.3,0.4c4.5,1,5.9,8.2,10.5,8.3c0.9,0,1.9-0.3,2.8,0.1c1.2,0.5,1.6,1.8,2.5,2.7c1.5,1.6,4,1.6,6.1,2.2
	c2.3,0.6,4.3,2,6.3,3.3c1.5,1,3.1,2.1,4.6,3.1c0.7,0.5,1.4,0.9,1.9,1.6c1.6,2.2,0.3,5.1-0.8,7.6c-1.7,3.8-2.9,7.8-3.7,11.9
	c-0.3,1.7-0.5,3.4-0.7,5c-0.7,5-5.4,11.3-2,15c2,2.1,4.1,4,7,4c1.7,0,2.6-2.5,4.4-2.3c1.7,0.2,3.3,1.6,3.7,3.3
	c0.4,1.4,1.6,0.8,2.9,1.5c6.4,3.4,15.8,0.8,20.5,6.3c5.1,6.1-8.3,15.1-6.4,22.8"/>
<path fill="none" stroke="#E1E1E1" stroke-miterlimit="10" d="M84.7-27.7c-2.3,6.6-5.6,12.8-9.8,18.3c-1.1,1.5-2.3,2.9-3.3,4.5
	c-1.9,3-3,6.5-4.3,9.9C65,11.3,62,17.4,58.5,23.2c-1.5,2.5-3.1,5-3.6,7.8c-0.7,4-0.9,9.7,2.6,11.7c5.5,3.1,12.7-1.6,18.5-4.2
	c3.3-1.5,7-3.6,10.4-2.3c0.6,0.2,1.2,0.6,1.5,1.2c0.3,0.5,0.3,1.1,0.3,1.6c0.5,3.6,4,5.8,5.8,8.9c2.6,4.4,1.7,9.9,0,14.7
	s-4.2,9.4-4.6,14.4c-0.3,3.7,0.5,7.3,1.3,10.9c0.4,1.6,0.7,3.2,1.8,4.4c0.4,0.5,1,1,1.3,1.6c0.4,0.9,0.1,2,0.6,2.8
	c0.4,0.5,1.1,0.8,1.5,1.2c0.8,0.9,0.7,2.3,1.1,3.4c0.9,2.2,3.7,2.8,6.1,2.7c2.4-0.1,5,0,6.8,0.2c1.5,0.2,4.6,0.4,6.9,0.4
	c3.3,0.1,4.4,4.8,7.7,5.3c4.3,0.7,7.2-4.5,11.4-5.8c3.7-1.2,6.6-4,9.9-6.1c3.8-2.3,7.7-4.7,10.7-8c1.3-1.4,2.4-3,4-4.1
	c1-0.7,2-1.2,3-1.9c1.4-1.2,2.4-2.9,2.7-4.7c0.1-0.9,0.1-1.9,0.4-2.8c0.4-1.1,1.2-2.1,2-3c3.9-4.5,7.2-9.5,9.7-14.9
	c1-2.1,2-4.3,3.4-6.2c1.1-1.4,2.5-2.6,3.5-4.1c1.2-1.7,1.9-3.7,2.5-5.7c0.9-2.7,1.8-5.4,2.7-8.1c0.4-1.1,0.7-2.2,1.1-3.3
	c4.2-12.5,13.6-23.1,24-31c8.6-6.6,23.8-13.9,30.7-5.6c1.2,1.5,0.3,4.5,2,5.3c4.8,2.3,8.5-6,13.1-8.7c2-1.2,4.3-1.8,6.6-2.4
	c7-1.8,14-3.6,20.9-5.4c6.4-1.6,13.9-3,18.9,1.2c1.4,1.2,2.5,2.9,2.3,4.7c-0.1,1.3-0.8,2.4-1.3,3.5c-1.7,4.2-0.9,8.9-0.1,13.3
	c0.1,0.5,0.2,1,0.6,1.3c1.1,1,2.6-0.6,4.1-0.7c1.4-0.2,2.6,1,3.5,2.1c3.3,4,6.6,7.9,9.9,11.9c1.1,1.3,2.3,2.7,3.8,3.6
	c2,1.1,4.4,1.3,6.6,1.5c7.7,0.9,19.4-0.1,22.1,7.2c4.6,12.8-17.8,34-5.7,40.2c1.8,0.9,3.9,0.3,5,2c1.2,1.6,2,3.6,3.8,4.5
	c1.2,0.6,2.7,0.6,4,1.1c1.3,0.5,1.5,3.5,1.7,3.8c0.2,0.4,0.7,0.4,1.1,0.4c3.7,0.3,7.4,1.4,10.7,3.2c0.6,0.3,1.3,0.7,1.7,1.4
	c0.6,1,0.3,2.2,0.1,3.3c-1.1,4.8-5.1,9.8-3.4,14.5c0.6,1.6,3.2-0.3,4.9-0.1c1.5,0.1,2.7,1.4,3.5,2.6"/>
<path fill="none" stroke="#E1E1E1" stroke-miterlimit="10" d="M96.1-27.4c-1,1-1.9,2-2.9,3C84.7-15.2,77.5-4.8,71.9,6.4
	c-4,8-7.1,16.8-6.5,25.8c0,0.4,0.1,0.9,0.2,1.3c0.4,1,1.4,1.5,2.4,1.8c3.5,1.1,7.3,0.1,10.7-1.3c3.4-1.4,6.6-3.3,10.2-4.2
	c0.8-0.2,1.7-0.3,2.3,0.1c0.8,0.5,1,1.6,1.2,2.5c1.3,5.5,6.4,9.6,7.6,15.1c0.3,1.5,0.3,3.1,0.3,4.6c0,6.7,0,13.5-1.5,20.1
	c-0.7,3-1.6,6.3-0.3,9c1.1,2.1,1.9,4,2.2,6.3c0.3,2.3,3.3,3.2,4.9,4.7c3.3,3.1,8.1,3.9,12.3,2.1c1.1-0.5,2.2-1.3,3.4-1.5
	c1.3-0.3,2.7,0.1,3.9-0.5c0.6-0.3,1.1-0.9,1.6-1.3c2.2-1.8,5.4-1.4,8.1-2.1c2.9-0.7,5.3-2.7,7.5-4.6c2.5-2.1,5-4.3,7.6-6.4
	c1.5-1.2,2.9-2.5,4.1-4c1.3-1.6,2.1-3.6,3.3-5.3c2.7-3.8,6.9-6.2,10.1-9.7c3.8-4.1,5.9-9.7,10.1-13.4c2.1-1.9,4.9-3.4,5.7-6.2
	c0.2-0.9,0.3-1.8,0.5-2.6c0.7-2.8,3.6-4.9,3.8-7.9c0.7-13.7,14.9-23.6,24.6-33.2c2.1-2,4.2-4.1,6.9-5.2c2.5-1.1,5.3-1.3,8-1.4
	c5.6-0.4,11.2-0.7,16.8-1.1c1.9-0.1,3.7-0.2,5.6-0.1c0.9,0.1,1.7,0.2,2.6,0.2c1,0,2.1-0.3,3.1-0.6c9.9-2.6,19.7-5.3,29.6-7.9
	c5.4-1.5,11-2.9,16.6-2.3c3.7,0.4,7.3,1.7,10.9,3.1c2,0.7,4.1,1.6,5.2,3.4c2.9,4.6-5.2,11.3-2,15.5c1.6,2.1,5.2-2.7,7.5-1.5
	c1.5,0.8,1.5,2.9,2.6,4.2c1.7,1.8,4.7,0.8,6.8-0.4c2.1-1.2,6.3-3.5,6.9-1.1c1.2,4.7-7.5,8.5-6.2,13.2c0.8,3.1,6.3,1.1,9.5,1.2
	c6.1,0.3,11.5,4.1,17.5,5.2c3.2,0.6,6.4,0.4,9.6,1c3.2,0.6,6.4,2.1,7.8,5c0.2,0.5,0.4,1,0.3,1.5c-0.1,0.5-0.4,0.9-0.7,1.3
	c-2.7,3.6-5.5,7.3-8.2,10.9c-2.9,3.9-6,8.2-5.7,13.1c0.3,3.8-1.8,8.3-0.4,11.8c2.5,6.2,8.3,10.6,13.6,14.7c1.4,1.1,2.9,1.9,4.4,2.8
	c1.4,0.8,2.8,1.6,4.2,2.4c0.8,0.4,1.6,0.9,2,1.7c0.5,0.9,0.3,2,0.2,3.1c-0.7,4.4-5.1,9.8-2.2,13.2c2.9,3.5,5.1,6,8.8,8.5"/>
<path fill="none" stroke="#E1E1E1" stroke-miterlimit="10" d="M99.9-26.4C94.1-19.3,88.3-12.1,83.8-4c-3.7,6.7-6.4,14-8.5,21.3
	c-0.9,2.9-1.6,5.9-1.4,9c0,0.5,0.1,1,0.4,1.4c0.7,1,2.2,0.7,3.4,0.2c4.6-1.7,9.2-3.3,13.8-5c1.5-0.5,3.1-1.1,4.7-1
	c2.4,0.1,4.6,1.9,5.3,4.2c0.4,1.4,0.3,2.9,0.5,4.3c0.6,5.4,5.1,9.8,5.8,15.2c0.2,1.2,0.1,2.4,0.4,3.6c0.3,1.6,1.2,3.1,1.6,4.7
	c0.4,1.5,0.4,3.1,0.5,4.7c0.3,4.2,1.7,8.2,3,12.2c0.8,2.4,0,6.6,2.5,7.2c1,0.3,2-1.4,2.9-0.9c0.5,0.3,0.5,1.5,1.1,1.4
	c2.5-0.7,2.1-4.7,4.2-6.1s4.6-2.2,7-3c2.4-0.8,5.1-0.8,7.7-1.2c2.7-0.4,4.9-2.1,7-3.7c5.9-4.5,11.8-9.1,16.5-14.8
	c7.7-9.3,12-21.5,21.4-29.1c1.4-1.2,3-2.2,4.2-3.6c1.2-1.5,2-3.3,2.8-5c7.7-16.3,23.8-28.5,41.6-31.4c2.1-0.4,4.3-0.6,6.5-0.4
	c2.3,0.2,4.6,0.8,6.9,1c3.2,0.4,6.4,0.2,9.5-0.1c11.6-1.1,23-3.5,34-7.2"/>
<path fill="none" stroke="#E1E1E1" stroke-miterlimit="10" d="M103-26.9c0.6,2.3-0.3,4.9-2.2,6.3c-1.1,0.8-2.4,1.3-3.3,2.2
	c-1,0.9-1.6,2.2-2.2,3.4c-1.7,3.7-3.4,7.3-5.1,11c-3,6.5-6,13-7.1,20c-0.1,0.9-0.2,2,0.5,2.6c0.8,0.6,1.9,0.2,2.9-0.2
	c3.4-1.6,6.9-2.9,10.4-4.2c2.7-0.9,5.8-1.7,8.3-0.3c3.5,2,3.6,6.8,4.9,10.6c2,5.8,7.5,9.7,9.9,15.4c1.7,3.9,1.7,8.4,3.3,12.3
	c0.3,0.7,0.7,1.4,1.4,1.6c1,0.2,1.9-0.8,2.6-1.5c2.5-2.5,6.2-3.2,9.6-4.2c5.9-1.8,11.2-5.3,15.2-9.9c2-2.3,3.7-4.8,6-6.7
	c1.7-1.4,3.7-2.5,5.4-3.9c1.9-1.6,3.4-3.7,4.9-5.6c7.4-9.6,15.8-18.4,24.2-27.1c5.2-5.4,10.4-10.8,16.7-14.9
	c2.8-1.8,5.9-3.4,9.3-3.8c3.8-0.5,8.4,0.3,10.8-2.7"/>
<path fill="none" stroke="#E1E1E1" stroke-miterlimit="10" d="M107.9-27.4c-1.1,3.8-2.2,7.6-4.2,11c-1,1.6-2.2,3.2-3.3,4.8
	C96.2-5.5,88.7,1.6,91.2,8.6c0.6,1.7,3.4-0.1,5-0.9c3.9-2,8.3-2.4,12.6-2.8c2.6-0.3,5.6-0.4,7.6,1.3c1.5,1.3,2.2,3.3,2.7,5.2
	c0.7,2.5,0.6,5.4,2.2,7.5c3.1,3.8,7,7.2,6.9,12.1c0,0.7,0.9,2.1,1.2,2.8c0.8,1.5,2,0.3,3.5-0.4c10-4.6,18.7-11.5,27.3-18.3
	c4.1-3.2,8.1-6.4,12.2-9.7c4.8-3.8,9.6-7.6,13.4-12.4c3.3-4.2,5.9-9.1,10.3-12.2c5.4-3.8,13-4.4,16.8-9.7"/>
<path fill="none" stroke="#E1E1E1" stroke-miterlimit="10" d="M112.6-26.7c-2.2,2.3-2.4,5.8-3.5,8.8c-1.9,5.4-11.9,10.8-8,14.9
	c0.9,1,2.7,0,3.7,0.8c0.3,0.2,0.7,0.5,1,0.6c0.8,0.2,1.6-0.3,2.3-0.7c2.2-1.4,4.8-2.2,7.4-2.4c0.9,0,1.8,0,2.6,0.3
	c0.9,0.3,1.7,0.9,2.4,1.5c1.3,1,2.7,2,4,3.1c1.6,1.2,3.2,2.4,4.1,4.2c1.1,2.1,1.2,4.6,2.6,6.5c0.6,0.8,1.5,1.5,2.2,2.2
	c1.7,1.7,2.7,4,2.9,6.3c0,0.4,0.1,0.8,0.4,1.1c0.2,0.2,0.5,0.2,0.7,0.2c1.8-0.1,2.9-2,4.1-3.3c1.5-1.6,3.4-2.6,5.3-3.6
	C155.1,9,162.6,3,170-3c1.7-1.4,3.5-2.8,4.9-4.5c4-4.6,5.9-11.4,11.4-14c1.2-0.6,2.5-0.9,3.6-1.7c2.8-2.1,2.7-6.3,2.2-9.7"/>
<path fill="none" stroke="#E1E1E1" stroke-miterlimit="10" d="M116.9-26.6c-2,5.1-8.9,10.2-6.4,15c1.5,3,6.2-2.4,9.6-2.9
	c2.8-0.4,5.5,1.2,7.6,3.1c2.1,1.9,3.7,4.3,5.9,6.1c0.9,0.8,2,1.5,3,2.2c2,1.5,3.9,3.2,5.6,5c0.8,0.9,1.8,1.8,2.9,1.6
	c0.4-0.1,0.7-0.3,1-0.5c11-7.6,22.4-15.5,29.5-26.9c1-1.6,1.9-3.2,2.8-4.8"/>
<path fill="none" stroke="#E1E1E1" stroke-miterlimit="10" d="M323.3-25.7c-0.6,1-0.4,2.4,0.5,3.1c0.4,0.3,0.9,0.5,1.2,0.9
	c0.6,0.7,0.5,1.8,0.4,2.7c-0.4,2.4-0.9,4.9-1.3,7.3c-0.1,0.8-0.2,1.8,0.3,2.4c0.7,0.7,1.8,0.5,2.8,0.3c2.1-0.4,3.6,1.2,5.5,2.2
	c5.5,2.8,13.1-10.6,17.2-6.1c1.8,2-1.3,5.1-2.3,7.5c-1.6,3.9-6.6,8.8-3.9,12.2c2,2.4,6.3-0.1,9.4-0.1c1.3,0,2.6,0,3.9,0.2
	c1.6,0.3,3.1,1,4.6,1.7c2.3,1.1,4.6,2.1,6.8,3.2c2.7,1.3,5.4,2.6,7.6,4.6c1,0.9,1.9,2,2.8,3.1c1.7,2,3.4,4.1,3.8,6.7
	c0.5,2.8-0.7,5.6-1.8,8.3c-1.5,3.6-3.1,7.2-4.6,10.8c-0.3,0.7-0.8,1.2-1.2,1.7c-0.3,0.4-0.2,1.2-0.3,1.7c-1.3,4.9-6.7,10.5-4,14.8
	c1.3,2,3.5,3,4.9,4.9c3,3.9,8.5,5.4,10.9,9.7c0.4,0.6,0.7,1.3,1.3,1.7c0.3,0.2,0.7,0.3,1.1,0.4c2.1,0.7,3.5,2.7,4.3,4.8
	c1.4,4-3.5,8.7-1.1,12.2c1.6,2.2,3.7,4.3,6.4,4.3c0.5,0,0.9-0.1,1.3,0c0.3,0.1,0.5,0.4,0.7,0.6"/>
<path fill="none" stroke="#E1E1E1" stroke-miterlimit="10" d="M335-26.3c-1.4,2.5-4.8,5.9-3,8.1c1.2,1.4,3.1,1,4.8,1.3
	c1.2,0.2,1.6,0.8,2.2,0.9c5.8,0.7,11.5-6.3,17-4c0.5,0.2,1.2,1,1,2c-1,6.2-10.3,13.2-5.5,17.2c6.7,5.6-3.3-2.6,0,0
	c11,8.9,28.9,5.9,32.5,19.8c3.4,13.2-1.5,25.3-4,38c-0.4,2-0.8,4.2-0.1,5.6c3.7,7.9,13.5,11.1,19.5,17.5c0.6,0.7,1.3,1.4,1.8,2.2"/>
<path fill="none" stroke="#E1E1E1" stroke-miterlimit="10" d="M276.6,267.6c0,0.1,0,0.2,0.1,0.3c0.1,0.1,0.2,0.2,0.4,0.2
	c1,0.1,1.8-0.8,2.5-1.4c1.1-0.9,2.2-2.1,4.1-1.9c1.5,0.2,3.2,1.3,4.7,1.2c0.2,0,0.5,0,0.7-0.2c0.1-0.1,0.1-0.3,0.1-0.5
	c-0.1-1.6,0.5-3.4-0.4-4.8c-1-1.7-3.7-1.8-5.7-1.8c-0.9,0-1.8,0.1-2.5,0.5c-0.9,0.5-1.4,1.4-2,2.3c-0.6,0.9-1.1,1.9-1.5,2.9
	C276.7,265.4,276.5,266.5,276.6,267.6z"/>
<path fill="none" stroke="#E1E1E1" stroke-miterlimit="10" d="M224,210.8c0.7-0.2,1-0.8,1.3-1.5c0.4-1.2,0.5-2.4,0.4-3.7
	c0-0.5-0.3-1.1-0.7-1.1c-0.3,0-0.5,0.2-0.7,0.4c-1.1,1.2-1.7,2.7-1.7,4.3c0,0.4,0.1,0.8,0.3,1.1C223.1,210.7,223.6,210.9,224,210.8z
	"/>
<path fill="#EAEAEA" stroke="#D6D6D6" stroke-miterlimit="10" d="M127.1,367.4c-0.7-1-1.4-2.1-1.8-3.4c-0.3-1.1-0.3-2.2-0.3-3.3
	c0-3.2,0-6.3-0.1-9.5c0-1.7,0-3.5,0.7-5c0.8-1.6,2.3-3,2.3-4.8c0-1-0.6-1.9-0.5-2.9c0.2-1.5,2.1-2.4,3.3-1.6c0.7,0.4,1.1,1.2,1.6,2
	c2.3,3.8,6.6,5.9,9.6,9.2c1.1,1.2,2.1,2.6,3.6,3.2c0.4,0.2,0.7,0.3,1.1,0.4c0.3,0.1,0.5,0.3,0.8,0.5c1.4,0.9,3.1,1.2,4.6,2
	c0.2,0.1,0.4,0.2,0.5,0.4c0.3,0.4,0.2,0.9,0.1,1.4c-0.1,1.1,0.1,2.3,0.7,3.3c0.2,0.3,0.4,0.6,0.4,1c0,0.4-0.3,0.7-0.6,0.9
	c-0.7,0.7-1.4,1.5-2.2,2.2c-0.5,0.5-1,1-1.6,1.1c-0.8,0.2-1.7-0.2-2.4,0.3c-0.9,0.6-0.9,2.3-2,2.5c-0.6,0.1-1.1-0.2-1.7-0.3
	c-0.6,0-1.1,0.4-1.3,0.9c-0.1,0.3-0.1,0.5-0.2,0.8c-0.1,0.2-0.3,0.4-0.5,0.6c-1.1,1-2.5,1.9-3.9,2.4c-1.4,0.5-3.1,0.7-4.5,0
	c-0.5-0.3-0.9-0.6-1.4-0.9c-0.7-0.5-1.6-0.8-2.3-1.4C128.3,369.1,127.7,368.3,127.1,367.4z"/>
<path fill="#EAEAEA" stroke="#D6D6D6" stroke-miterlimit="10" d="M120.8,276.4c1.2-5.3,3.4-16.3-1.4-14.8c-7,2.2-15,15.1-12.9,22.8
	c0.4,1.5,2,1.5,2.1,2.4c0.1,1.4,0.3,3.1,2.8,4.1c3,1.1,4.6-1.8,6.1-5.2c0.3-0.6,0.5-1.1,0.7-1.7c0.1-0.2,0.1-0.4,0.2-0.5
	c0.1-0.2,0.3-0.3,0.4-0.5c0.4-0.4,0.8-0.8,1.1-1.2c0.2-0.2,0.4-0.4,0.4-0.6c0.1-0.2,0.1-0.4,0.1-0.6
	C120.6,279.2,120.5,277.7,120.8,276.4z"/>
<path fill="#EAEAEA" stroke="#D6D6D6" stroke-miterlimit="10" d="M170.8,213.5c-0.4-0.1-0.8-0.1-1.1-0.1c-1.7,0-3.1-1.2-4.3-2.5
	c-0.8-0.9-1.5-1.8-2.6-2.2c-1.1-0.4-2.6-0.1-2.9,1c-0.1,0.4-0.1,0.8-0.2,1.2c-0.1,0.4-0.4,0.8-0.8,0.8c-0.4,0-0.7-0.3-0.9-0.6
	c-0.7-0.9-1.5-1.6-2.5-2c-1-0.4-2.3-0.3-3.1,0.5c-0.8,0.7-1.1,2-0.7,3c0.3,1,1.2,1.9,2.2,2.3c0.5,0.3,1.2,0.4,1.7,0.2
	c0.6-0.2,0.9-0.8,1.3-1.3c0.4-0.5,1.2-1,1.6-0.5c0.7,0.9-0.3,2.2-0.9,3.1c-0.6,0.9-1.2,1.8-2.1,2.3c-0.3,0.2-0.6,0.3-0.8,0.6
	c-0.6,0.6-0.4,1.7-0.5,2.5c-0.1,1.1-0.7,2.1-1.7,2.8c-0.4,0.3-1,0.5-1.2,1c-0.2,0.5-0.2,1-0.3,1.5c-0.3,1-1.3,1.5-1.8,2.4
	c-0.2,0.4-0.3,0.9-0.4,1.3c-1.2,5.5-2.4,11.3-1,16.8c0.2,0.6,0.3,1.2,0.7,1.7c0.4,0.5,0.9,0.8,1.5,1.2c1.2,0.7,2.4,1.5,3.8,1.7
	s3-0.1,3.8-1.2c0.5-0.6,0.7-1.4,1.4-1.9c0.7-0.5,1.5-0.4,2.3-0.2c0.8,0.2,1.5,0.6,2.3,0.8c1.5,0.3,2.9-0.3,4.3-0.9
	c1.2-0.5,2.4-1,3.6-1.5c1.9-0.8,4-1.9,4.5-3.8c0.1-0.5,0.2-1.2,0.6-1.5c0.2-0.2,0.5-0.3,0.7-0.3c1.1-0.3,2.3-0.2,3.2-1
	c0.4-0.4,0.6-0.8,0.8-1.3c1.4-3,2.9-6.1,3.2-9.4c0.2-1.4,0.1-3-0.8-4.1c-0.7-0.9-1.8-1.5-2.8-2.1c-2.5-1.6-4.4-4-5.6-6.7
	c-0.2-0.4-0.3-0.7-0.6-1c-0.2-0.3-0.5-0.5-0.8-0.7c-0.7-0.5-1.3-0.9-2-1.4C171.3,213.7,171,213.5,170.8,213.5z"/>
<path fill="#EAEAEA" stroke="#D6D6D6" stroke-miterlimit="10" d="M157.1,201.9c-0.2-0.1-0.3-0.3-0.5-0.4c-0.5-0.4-1-0.8-1.6-0.9
	c-0.6-0.1-1.3,0.3-1.3,0.9c0,0.3,0.1,0.5,0.2,0.8c0.3,0.6,0.6,1.2,0.9,1.8c0.2,0.4,0.4,0.8,0.7,1.1c0.9,0.9,2.4,1.7,3.5,1.1
	c0.3-0.2,0.4-0.7,0.5-1.1c0.1-0.2,0.1-0.4,0-0.6c0-0.2-0.1-0.3-0.2-0.4C158.7,203.3,157.9,202.6,157.1,201.9z"/>
<path fill="none" stroke="#D6D6D6" stroke-miterlimit="10" d="M147.3,237.4c-0.4,0.1-1.3,0.4-1.7,0.6c-2.1,0.7-4.2,1.2-6.4,1.5
	c-0.9,0.1-1.9,0.2-2.8,0.5c-0.8,0.2-1.6,0.7-2.4,1.1c-3.6,2-6.9,4.6-9.1,8.1c-0.5,0.8-0.9,1.6-1.2,2.4c-0.6,1.8-0.5,3.8-1.1,5.5
	c-0.6,1.6-1.8,3.2-1.3,4.8"/>
<path fill="none" stroke="#D6D6D6" stroke-miterlimit="10" d="M119.6,282.5C119.6,282.5,119.6,282.5,119.6,282.5
	c1.8,1.1,1.3,4,1.2,6.1c-0.3,3.9-1.2,7.8-2.4,11.5c-1.3,3.7-2.4,7.4-2.7,11.3c-0.2,3.9,0.1,8,2.8,10.8c1.7,1.9,4.1,3.1,5.4,5.3
	c0.5,0.9,0.8,1.9,1.4,2.7c0.3,0.4,0.6,0.7,0.9,1.1c0.3,0.4,0.5,0.9,0.6,1.3c0.5,1.3,1.2,3,1.8,4.3"/>
<path fill="none" stroke="#D6D6D6" stroke-miterlimit="10" d="M152.9,355.5c3.6-0.9,7-3,9.3-5.9c0.3-0.4,0.6-0.8,0.6-1.2
	c0-0.3,0-0.7,0.1-1c0.1-0.3,0.5-0.5,0.7-0.7c1.5-1,2.1-2.9,2.8-4.6s1.9-3.5,3.7-3.6c0.6,0,1.2,0.1,1.7-0.1c0.6-0.2,1-0.6,1.4-1
	c2.4-2.3,5.4-4.3,8.6-4.3c1.7,0,3.4,0.5,5.1,0.3c1.5-0.2,2.8-0.9,4.2-1.3c1.4-0.3,3.2-0.1,4,1.2c0.3,0.5,0.4,1,0.5,1.5
	c0.7,3.7,1.6,7.4,2.6,11c0.2,0.7,0.4,1.4,0.8,2c0.5,0.8,1.2,1.4,1.9,2c1.2,0.9,2.6,1.8,4.1,2.2c0.5,0.2,1.2,0.5,1,1
	c-0.1,0.2-0.3,0.4-0.5,0.5c-1.1,0.7-2.4,0.8-3.7,1.2c-1.2,0.4-2.5,1-3,2.3c-0.1,0.4-0.1,0.8,0.1,1.1c0.2,0.3,0.5,0.5,0.7,0.8
	c0.3,0.5,0.1,1.2,0.2,1.8c0.3,1.6,3.8,3.5,3.1,4.2"/>
<path fill="#EAEAEA" stroke="#D6D6D6" stroke-miterlimit="10" d="M266.9,295.5c-0.5-2.9-0.9-5.8-0.9-8.7c0-2,0.5-4.1,1.3-5.9
	c1.3-2.9,3.7-5.8,6.9-6c0.5,0,1,0,1.5-0.2c0.3-0.2,0.6-0.5,0.9-0.8c0.8-0.9,1.5-1.8,2.1-2.8c0.5-0.8,0.8-1.8,1.3-2.6
	c0.5-0.8,1.4-1.5,2.3-1.4c1.1,0,1.9,0.9,3,1.3c0.9,0.3,1.8,0.2,2.8,0.2c2,0,4,0.5,5.8,1.5c0.9,0.5,2.2,2,1.2,2.3
	c-0.7,0.2-1.5,0.5-1.5,1.3s0.4,1.4,1,2c0.5,0.5,1.2,1,1.7,1.5c0.4,0.4,0.6,0.9,1,1.3c0.3,0.3,0.7,0.5,1,0.7c2,1.1,4.1,2.3,5.4,4.2
	c1.7,2.6,1.6,6,1.5,9.1c-0.1,1.8-0.3,3.2-1.2,4.7c-0.6,1-1.4,2.2-2.3,3c-3.6,3.6-7.6,6.7-12.1,9c-1,0.5-1.9,1.2-3,1.5
	c-1,0.3-2,0.3-2.9,0.3c-3.4,0-6.9,0-10-1.4C271.1,308.3,268.6,305.9,266.9,295.5z"/>
<path fill="#EAEAEA" stroke="#D6D6D6" stroke-miterlimit="10" d="M310,260.5c0.1,1.1-0.4,2.3,0.2,3.2c0.5,0.7,1.4,0.8,2.2,0.8
	c0.5,0,1-0.1,1.3-0.4c0.3-0.3,0.3-0.8,0.1-1.2c-0.2-0.4-0.4-0.8-0.6-1.2c-0.5-1.1-0.6-2.3-1.2-3.3c-0.5-0.8-1.3-1.3-2.3-1.4
	c-0.1,0-0.2,0-0.2,0c0,0-0.1,0.1-0.1,0.1c-0.3,0.5-0.2,1.2,0,1.7C309.7,259.4,310,259.9,310,260.5z"/>
<path fill="#EAEAEA" stroke="#D6D6D6" stroke-miterlimit="10" d="M308,249.4c-0.7-0.4-1.6,0-2.3-0.3c-0.3-0.2-0.5-0.5-0.8-0.7
	c-0.5-0.4-1.2-0.5-1.8-0.2c-0.3,0.1-0.2,0.6,0,0.8c0.2,0.2,0.4,0.4,0.6,0.6c0.2,0.2,0.3,0.5,0.4,0.8c0.5,1.1,0.8,2.3,1.1,3.5
	c0.1,0.6,0.2,1.3,0.6,1.8s1.2,0.8,1.7,0.4c0.7-0.5,0.6-1.7,1.4-1.9c0.5-0.1,0.9,0.2,1.4,0.4s1.1,0.3,1.3-0.2c0-0.1,0.1-0.2,0.1-0.3
	c0.2-1,0-2.2-0.9-2.7c-0.5-0.3-1.2-0.2-1.7-0.6C308.7,250.4,308.5,249.7,308,249.4z"/>
<path fill="#EAEAEA" stroke="#D6D6D6" stroke-miterlimit="10" d="M331.5,191.5c1.1-1.6,2.5,0.9,2.7-1.1c0.1-1-0.7-2-0.7-3
	c0-1.8-0.1-2.9,0.9-4.4c0.6-0.9,1.3-2,1.6-3c0.2-0.9-0.2-1.9-0.5-2.8c-1.2-2.9-2.5-5.9-3.7-8.8c-0.2-0.5-0.5-1.1-0.9-1.5
	c-0.4-0.4-0.8-0.7-1.3-0.8c-1-0.2-2.1,0.2-2.9,0.9c-0.8,0.7-1.4,1.6-1.9,2.5c-0.7,1.2-1.5,2.3-2.2,3.5c-0.3,0.5-0.6,1-0.7,1.5
	c-0.2,0.6-0.1,1.2-0.1,1.8c0.2,3.1,0.4,6.3,1.8,9c0.7,1.4,1.7,2.8,1.4,4.3c-0.2,1.1-1,1.9-1.6,2.8c-0.6,0.9-1.1,2.1-0.7,3.1
	c0.6,1.3,2.3,1.1,3.7,0.7C327.4,195.9,330.5,193,331.5,191.5z"/>
<path fill="#7BBCEB" stroke="#4E9BD7" stroke-miterlimit="10" d="M182.6,158.3c-0.3,0.4-0.7,0.6-1.1,0.8c-2.3,1.5-3.2,4.8-2,7.3
	c0.3,0.5,0.6,1,0.7,1.5c0.1,0.5,0,0.9,0,1.4c-0.1,1.8,0.8,3.4,1.6,4.9c0.8,1.5,2,3.1,3.7,3.1c1.5,0,2.8-1.2,4.3-0.9
	c0.4,0.1,0.8,0.3,1.2,0.5c1.4,0.9,2.5,2.4,4,3.2c2.1,1.1,4.9,0.5,6.5-1.2c1.7-1.7,2.1-4.4,1.3-6.6c-0.3-0.7-0.6-1.3-0.8-2
	c-0.2-0.7-0.1-1.5,0.3-2.1c0.2-0.2,0.5-0.4,0.7-0.7c0.2-0.5,0-1-0.2-1.4c-1.4-3-3.3-6.2-2.5-9.5c0.2-0.9,0.7-1.8,0.8-2.7
	c0.2-0.9,0-2-0.8-2.6c-1.2-0.9-4.1,0.3-4.1-1.2c0-2.3-1.5-4.4-4.5-4.5c-0.4,0-0.7,0-1.1,0.1c-0.7,0.2-1.1,0.8-1.6,1.3
	c-0.9,0.9-2.1,1.7-3.3,2.1c-1.1,0.4-2.2,0.6-3.1,1.3c-1.3,1.1-1.4,3.1-0.8,4.6C182.4,156.2,183.2,157.4,182.6,158.3z"/>
<path fill="none" stroke="#D6D6D6" stroke-miterlimit="10" d="M158.9,206.4c-0.1,0.1-0.1,0.3,0,0.5c0.2,0.2,0.5,0.3,0.7,0.5
	c0.1,0.1,0.3,0.2,0.4,0.3c0.3,0.2,0.4,0.6,0.5,0.9"/>
<path fill="none" stroke="#D6D6D6" stroke-miterlimit="10" d="M146.2-26.1c1.9,6.2,2.2,12.9,0.8,19.3c-0.9,4.1-2.5,8.1-4.1,12.1
	c-1.3,3.3-2.6,6.5-3.9,9.8c-2.5,6.3-5.9,12.7-8.7,18.9c-1.4,3.1-2,6.1-3.1,9.3c-2.4,7.8-2.2,16.7-6.9,23.4c-0.7,1-1.5,2-1.8,3.2
	c-0.5,2.2,1,4.2,2.1,6.2c1,1.9,1.7,4,2.3,6.1c1.6,5.8,2.7,11.8,3.1,17.8c0.9,12,1.5,24.7,3.4,36.6c0.4,2.5,0.8,5,1.7,7.3
	c1.1,3.1,3,5.9,4.6,8.7c1.3,2.4,2.4,4.8,3.5,7.3c2.7,6.2,7.6,12.3,8.4,19.1c0.5,4.5,1.8,8.9,4.1,12.9c1.7,3,0,5.5,2.2,8.8"/>
<path fill="none" stroke="#D6D6D6" stroke-miterlimit="10" d="M118.2,195.2c1-1.9,0.4-4.3-0.9-6.1c-1.2-1.8-3-3.1-4.6-4.5
	c-3.1-2.8-5.7-7-4.5-11c0.6-2,2.1-3.7,3.2-5.5c2.1-3.6,2.5-7.8,3.7-11.8c1.6-5.1,4.5-9.8,6.2-14.9c2-6.2,2.8-11.6,6.5-17"/>
<path fill="#FFFFFF" stroke="#D6D6D6" stroke-miterlimit="10" d="M166.4,220.1c0.2-0.2,0.4-0.4,0.4-0.7c0.1-0.5-0.4-1.1-0.9-1.1
	c-0.4,0-0.7,0.2-0.9,0.5c-0.2,0.3-0.2,0.7-0.2,1c0,0.1,0,0.1,0,0.2c0.1,0.1,0.2,0.2,0.4,0.2C165.7,220.3,166.1,220.3,166.4,220.1z"
	/>
<path fill="#FFFFFF" stroke="#D6D6D6" stroke-miterlimit="10" d="M163.1,215.6c-0.4,0.3-0.4,0.9-0.4,1.4c0,0.3,0,0.6,0.2,0.8
	c0.2,0.1,0.4,0.2,0.6,0.1c0.4-0.1,0.8-0.3,1-0.6c0.3-0.4,0.3-1,0-1.4S163.5,215.2,163.1,215.6z"/>
<path fill="#FFFFFF" stroke="#D6D6D6" stroke-miterlimit="10" d="M168.1,216.2c0,0.3,0,0.6,0.2,0.8c0.2,0.2,0.5,0.3,0.7,0.2
	c0.3-0.1,0.5-0.2,0.7-0.4c0.2-0.2,0.4-0.4,0.4-0.7c-0.1-0.2-0.3-0.4-0.5-0.5c-0.2-0.1-0.5-0.2-0.8-0.2c-0.3,0-0.5,0.1-0.7,0.4
	C168.1,215.9,168.1,216.1,168.1,216.2z"/>
<path fill="#FFFFFF" stroke="#D6D6D6" stroke-miterlimit="10" d="M331.7,177.6c0.2-0.1,0.3-0.4,0.4-0.6c0.2-0.7,0.1-1.6-0.5-2.1
	s-1.7-0.7-2.1,0c-0.3,0.5-0.1,1.1,0.2,1.6c0.2,0.4,0.5,0.7,0.8,1C330.9,177.7,331.4,177.9,331.7,177.6z"/>
<path fill="#FFFFFF" stroke="#4E9BD7" stroke-miterlimit="10" d="M199,165.9c0-0.7-0.7-1.1-1.4-1.1c-0.7,0-1.2,0.5-1.7,0.9
	c-0.6,0.6-1.2,1.3-1.6,2.1c-0.1,0.2-0.2,0.3-0.2,0.5c-0.1,0.6,0.7,1.1,1.3,1s1.1-0.5,1.6-0.9c0.5-0.5,1.1-1,1.5-1.5
	C198.7,166.6,199,166.3,199,165.9z"/>
<g>
	<g>
		<path fill="none" stroke="#585858" stroke-miterlimit="10" d="M-4,289c0.6-0.6,0.8-1.2,0.8-1.8"/>
		<path fill="none" stroke="#585858" stroke-miterlimit="10" stroke-dasharray="3.9893,0.9973" d="M-3.4,286.2
			c-0.6-1.9-2.5-3.8-0.4-5.5c5.1-4,14.2-0.4,15.3,0.3c1.5,1,1.3-3.4,3.2-3.6s3.6,0.6,5.4,1c3.7,0.7,7.7-0.3,10.5-2.8
			c3.7-3.3,7.4-6,10-10.2c4.8-7.7,9.3-15.4,13.6-23.3c2.2-4,5.2-8.7,9.8-8.8c0.3,0,0.7,0,0.9-0.3c0.1-0.3-0.2-0.6-0.2-1
			c-0.1-0.6,0.5-1.1,1-1.5c3.3-2.1,6.5-8.2,9.8-6.2c1.5,1-2.2,4.5-0.6,5.4c3.5,2,6.9-8.6,10.4-6.4c3.5,2.3-5.8,8.4-3.4,11.9
			c3.5,5.1,11.4-13.5,15.9-9.2c0.9,0.9-1.3,3.1-0.3,3.8c1,0.7,2.4-2.1,3.5-1.5c0.7,0.4-0.4,2.2,0.3,2.3c1.3,0.2,1.6-3.6,2.7-2.9
			c2.3,1.3-1.9,7,0.6,7.8c0.7,0.2,0.9-1.8,1.6-1.6c0.9,0.2-0.1,2.5,0.8,2.7c2.3,0.4,2.7-3.9,4.1-5.8c0.3-0.5,0.8-1,1.3-0.9
			c1.1,0.1,1.6,2.8,2.4,2.1c0.8-0.7,0-2.5,0.8-3.2c0.9-0.7,2.6,1.5,3.3,0.6c0.9-1,0.4-2.9,1.8-3c1.4-0.1,2.7,0.9,3.3,2.2
			c0.7,1.2,0.9,2.7,1.2,4c0.5,2.3,1.4,4.5,2.4,6.6c0.9,2,1.8,4,3.4,5.5c4.4,4.2,12.3,3,16.5,7.4c2.6,2.7,8.4,0,10.4,3.2
			c0.9,1.4-0.8,1.7-0.1,3.3s1.8,2.9,3,4.2c2.3,2.5,4.9,5.2,8.3,5.5c2,0.2,4.1-0.5,6.1-0.2c1.4,0.2,2.8,0.9,4.2,0.6
			c1.8-0.5,3-2.7,4.9-2.5c2,0.2,3.4,3.1,5.3,2.3c2.2-0.9,0.3-4.6,1.7-6.4c0.3-0.4,0.8-0.7,1.1-1.1c1.7-2-0.7-4.9-0.2-7.5
			c0.2-1,0.9-1.9,1.5-2.8c1.4-1.8,2.8-3.6,4.2-5.4c0.8-1.1,2.4-0.7,3.3-1.7c1.8-1.8-4.5-4.6-3.2-6.8c1.4-2.4,6,2.6,8.4,1.1
			c2-1.2-2.3-4.6-1.2-6.7c0.7-1.4,2.8-1.6,2.9-3.1s-2.3-2-2.4-3.5c-0.2-2.4,4.7-0.9,7.1-1.1c2.4-0.2,5.1-1,6.2-3.2
			c0.5-0.9,0.8-2.2,1.9-2.4c1.1-0.2,1.9,1.2,3,1.6c2,0.8,4.3-1.7,6.2-0.7c0.6,0.3,0.9,0.9,1.3,1.5c1.3,2.2,2.7,4.4,4,6.5
			c0.4,0.7,0.8,1.4,1.2,2c1.6,2.6,3.3,5.3,4.9,7.9c1.2,2,2.5,4,3.4,6.2c0.2,0.5,0.4,1.1,0.8,1.4c0.8,0.8,2.1,0.7,3.3,0.8
			c4.7,0.4,8.4,3.9,11.7,7.3c2.7,2.8,4.4,6.1,6.6,9.3c0.9,1.4,2.4,1.9,4.1,1.7c3-0.5,5.2-3,7.4-5.1c2.3-2,5.6-3.7,8.3-2.2
			c1.8,1,2.5,3.2,3.4,5c2.2,4.5,6.1,7.9,9.5,11.6c4.1,4.5,7.2,12.4,10.3,15c0.7,0.6,0-2.4,0.9-2.7c0.8-0.3,0.8,2.1,1.7,1.9
			c1.4-0.2,0-3.6,1.3-4.1c2.3-0.9,5.1-1.1,7.2,0.2c2.4,1.5,3.8,9.4,4.9,6.8c2-4.9,3.5-9.2,6.5-9.4c3.4-0.3,7.7-2.7,10.7-4.4
			c14.7-8.1,29.4-16.3,44.6-23.4"/>
		<path fill="none" stroke="#585858" stroke-miterlimit="10" d="M388.2,252.6c0.6-0.3,1.2-0.6,1.8-0.8"/>
	</g>
</g>
<g>
	<g>
		<path fill="none" stroke="#585858" stroke-miterlimit="10" d="M22.8,278.9c-0.2,0.5-0.3,1.2-0.4,2"/>
		<path fill="none" stroke="#585858" stroke-miterlimit="10" stroke-dasharray="3.9614,0.9904" d="M22.4,281.8
			c0.1,1.3,0.4,2.6,1.1,3.6c1.3,1.9,3.1,3.8,2.9,6.1c-0.1,1.9-1.6,3.4-2.3,5.1c-1.5,3.4,0.1,7.8,3.3,9.5c1.1,0.6,2.3,0.9,3.2,1.7
			c3.2,2.7,0.7,8.1,2.4,12c0.4,1,1.1,1.8,1.6,2.7c2.9,5.1-0.1,11.5-0.4,17.4c-0.1,2.4,0.2,4.9-0.6,7.1c-0.8,2.3-3.6,2-5.4,3.6
			c-0.6,0.5,0.8,1.7,0.4,2.4c-0.5,0.9-2.4-0.3-3.1,0.4c-1.5,1.3-1.9,2.7-2.6,4.5c-0.9,2.2,2.4,4.4,1.3,6.5c-0.8,1.5-2.4,2.7-2.6,4.4
			c-0.1,1.1,0.5,2.2,0.6,3.3c0.4,2.9-2.1,5.1-3.5,7.7"/>
		<path fill="none" stroke="#585858" stroke-miterlimit="10" d="M18.4,380.2c-0.3,0.6-0.5,1.2-0.6,1.9"/>
	</g>
</g>
<text transform="matrix(1 0 0 1 235.4888 140.6039)"><tspan x="0" y="0" fill="#585858" font-family="'Verdana-Italic'" font-size="8">Grand</tspan><tspan x="0" y="9.6" fill="#585858" font-family="'Verdana-Italic'" font-size="8">Mountain</tspan></text>
<text transform="matrix(1 0 0 1 2.621 246.1701)"><tspan x="0" y="0" fill="#585858" font-family="'Verdana-Italic'" font-size="8">Ten Lakes</tspan><tspan x="22.5" y="9.6" fill="#585858" font-family="'Verdana-Italic'" font-size="8">Pass</tspan></text>
<text transform="matrix(1 0 0 1 19.1125 148.8457)" fill="#585858" font-family="'Verdana-Italic'" font-size="8">× 9626</text>
<text transform="matrix(1 0 0 1 207.4437 175.8742)" fill="#7BBCEB" font-family="'Verdana-Italic'" font-size="8">Ten Lakes (i)</text>
<text transform="matrix(1 0 0 1 162.4437 206.2075)" fill="#585858" font-family="'Verdana-Italic'" font-size="8">Ten Lakes (ii)</text>
<text transform="matrix(1 0 0 1 125.4437 279.8742)" fill="#585858" font-family="'Verdana-Italic'" font-size="8">Ten Lakes (iii)</text>
<text transform="matrix(1 0 0 1 127.777 329.2075)" fill="#585858" font-family="'Verdana-Italic'" font-size="8">Ten Lakes (iv)</text>
<text transform="matrix(1 0 0 1 283.1103 204.8742)" fill="#585858" font-family="'Verdana-Italic'" font-size="8">Ten Lakes (vii)</text>
<path fill="none" d="M242,322.2c-2.2,3.5-2,8.4,0.6,11.6c2,2.5,5,3.8,7.6,5.5c4.2,2.7,7.6,6.4,10.2,10.6"/>
<text transform="matrix(0.7467 0.6652 -0.6652 0.7467 240.5885 335.6383)"><tspan x="0" y="0" fill="#7D7D7D" font-family="'Verdana-Italic'" font-size="7">9</tspan><tspan x="5" y="-0.2" fill="#7D7D7D" font-family="'Verdana-Italic'" font-size="7" rotate="-10.8">6</tspan><tspan x="9.1" y="-1" fill="#7D7D7D" font-family="'Verdana-Italic'" font-size="7" rotate="-6.2">0</tspan><tspan x="13.2" y="-1.5" fill="#7D7D7D" font-family="'Verdana-Italic'" font-size="7" rotate="2">0</tspan></text>
<path fill="none" d="M254.8,182c2.6,3.6,6,6.7,7.6,10.9c3,7.5-0.1,16.7,4.2,23.5c3.4,5.3,10.4,7.1,16.6,6.5"/>
<text transform="matrix(0.5847 0.8113 -0.8113 0.5847 256.6285 188.2242)"><tspan x="0" y="0" fill="#7D7D7D" font-family="'Verdana-Italic'" font-size="7">9</tspan><tspan x="3.9" y="-0.1" fill="#7D7D7D" font-family="'Verdana-Italic'" font-size="7" rotate="12">2</tspan><tspan x="7.7" y="0.7" fill="#7D7D7D" font-family="'Verdana-Italic'" font-size="7" rotate="26.1">0</tspan><tspan x="11.4" y="2.5" fill="#7D7D7D" font-family="'Verdana-Italic'" font-size="7" rotate="33.1">0</tspan></text>
<path fill="none" d="M127.2,90.9c2.2-1.8,5.4-1.4,8.1-2.1c2.9-0.7,5.3-2.7,7.5-4.6c2.5-2.1,5-4.3,7.6-6.4c1.5-1.2,2.9-2.5,4.1-4
	c1.3-1.6,2.1-3.6,3.3-5.3c2.7-3.8,6.9-6.2,10.1-9.7"/>
<text transform="matrix(0.7644 -0.6448 0.6448 0.7644 145.6046 85.1334)"><tspan x="0" y="0" fill="#7D7D7D" font-family="'Verdana-Italic'" font-size="7">8</tspan><tspan x="4.4" y="0" fill="#7D7D7D" font-family="'Verdana-Italic'" font-size="7">0</tspan><tspan x="9.1" y="0.1" fill="#7D7D7D" font-family="'Verdana-Italic'" font-size="7" rotate="-2.8">0</tspan><tspan x="14.1" y="-0.2" fill="#7D7D7D" font-family="'Verdana-Italic'" font-size="7" rotate="-17.3">0</tspan></text>
<path fill="none" d="M194.3,136c3-27.5,8.2-54.8,15.7-81.5"/>
<text transform="matrix(0.1222 -0.9925 0.9925 0.1222 197.4649 130.9503)"><tspan x="0" y="0" fill="#7D7D7D" font-family="'Verdana-Italic'" font-size="7">9</tspan><tspan x="4.4" y="0" fill="#7D7D7D" font-family="'Verdana-Italic'" font-size="7" rotate="0.5">0</tspan><tspan x="8.9" y="0" fill="#7D7D7D" font-family="'Verdana-Italic'" font-size="7" rotate="1">0</tspan><tspan x="13.3" y="0.1" fill="#7D7D7D" font-family="'Verdana-Italic'" font-size="7" rotate="1.5">0</tspan></text>
<path fill="none" d="M171.9,302.5c9.5,0.2,17.3-7.3,23.8-14.3c10-10.8,20.8-23.6,18.8-38.2"/>
<text transform="matrix(0.6579 -0.7531 0.7531 0.6579 200.5411 286.6823)"><tspan x="0" y="0" fill="#7D7D7D" font-family="'Verdana-Italic'" font-size="7">9</tspan><tspan x="4.6" y="0" fill="#7D7D7D" font-family="'Verdana-Italic'" font-size="7" rotate="-2.1">2</tspan><tspan x="9.1" y="-0.2" fill="#7D7D7D" font-family="'Verdana-Italic'" font-size="7" rotate="-4.9">0</tspan><tspan x="13.7" y="-0.5" fill="#7D7D7D" font-family="'Verdana-Italic'" font-size="7" rotate="-8.5">0</tspan></text>
<path fill="none" d="M319.8,106.2c6.5-4.2,14.4-5.5,22-6.7c2.6-0.4,5.2-0.8,7.9-0.7c6.4,0.3,15.2-1.8,18.8,3.5"/>
<text transform="matrix(0.9458 -0.3248 0.3248 0.9458 325.8082 105.8819)"><tspan x="0" y="0" fill="#7D7D7D" font-family="'Verdana-Italic'" font-size="7">8</tspan><tspan x="4.2" y="0" fill="#7D7D7D" font-family="'Verdana-Italic'" font-size="7" rotate="5.1">6</tspan><tspan x="8.5" y="0.4" fill="#7D7D7D" font-family="'Verdana-Italic'" font-size="7" rotate="8.5">0</tspan><tspan x="12.8" y="1.1" fill="#7D7D7D" font-family="'Verdana-Italic'" font-size="7" rotate="10.1">0</tspan></text>
<path fill="none" d="M36.1,211c3.6,1.4,6.3-4.4,10-5.8c8.7-3.3,17.3-13.3,26-9.9"/>
<text transform="matrix(0.8965 -0.4431 0.4431 0.8965 47.3829 207.4308)"><tspan x="0" y="0" fill="#7D7D7D" font-family="'Verdana-Italic'" font-size="7">9</tspan><tspan x="4.7" y="0" fill="#7D7D7D" font-family="'Verdana-Italic'" font-size="7" rotate="-5.2">4</tspan><tspan x="9.2" y="-0.5" fill="#7D7D7D" font-family="'Verdana-Italic'" font-size="7" rotate="-6">0</tspan><tspan x="13.4" y="-1" fill="#7D7D7D" font-family="'Verdana-Italic'" font-size="7" rotate="-2.6">0</tspan></text>
<g>
	<g>
		<polyline fill="none" stroke="#7D7D7D" stroke-miterlimit="10" points="85.2,341.6 85.2,348.7 275.4,348.7 275.4,341.7 		"/>
		<line fill="none" stroke="#7D7D7D" stroke-miterlimit="10" x1="180.5" y1="341.4" x2="180.5" y2="348.7"/>
		<line fill="none" stroke="#7D7D7D" stroke-miterlimit="10" x1="161.2" y1="349.2" x2="161.2" y2="343.7"/>
		<line fill="none" stroke="#7D7D7D" stroke-miterlimit="10" x1="142.4" y1="349.2" x2="142.4" y2="343.7"/>
		<line fill="none" stroke="#7D7D7D" stroke-miterlimit="10" x1="123.3" y1="349.2" x2="123.3" y2="343.5"/>
		<line fill="none" stroke="#7D7D7D" stroke-miterlimit="10" x1="104.6" y1="349.2" x2="104.6" y2="343.7"/>
	</g>
	<text transform="matrix(1 0 0 1 83.7834 339.1468)" fill="#7D7D7D" font-family="'Verdana'" font-size="8">0</text>
	<text transform="matrix(1 0 0 1 174.2945 339.1468)" fill="#7D7D7D" font-family="'Verdana'" font-size="8">0.5</text>
	<text transform="matrix(1 0 0 1 258.3414 339.1468)" fill="#7D7D7D" font-family="'Verdana'" font-size="8">1 mi</text>
</g>
</svg>
