<?xml version="1.0" encoding="utf-8"?>
<!-- Generator: Adobe Illustrator 17.1.0, SVG Export Plug-In . SVG Version: 6.00 Build 0)  -->
<!DOCTYPE svg PUBLIC "-//W3C//DTD SVG 1.1//EN" "http://www.w3.org/Graphics/SVG/1.1/DTD/svg11.dtd">
<svg version="1.1" id="Layer_1" xmlns="http://www.w3.org/2000/svg" xmlns:xlink="http://www.w3.org/1999/xlink" x="0px" y="0px"
	 viewBox="0 0 360 360" enable-background="new 0 0 360 360" xml:space="preserve">
<path fill="none" stroke="#E1E1E1" stroke-miterlimit="10" d="M-13.2,164.1c6.1-1.8,12.1-6.6,18.3-5.3c11.2,2.4,14.5,18.2,15.7,29.5
	c1.2,11.4-2.2,23.2-9.2,32.2c-2,2.6-4.3,5-5.7,7.9c-2.6,5.8-1.2,12.4-0.4,18.7c2.2,17.6-1.4,36-10.3,51.4c-1.1,2,0.4,4.4-0.8,6.3
	c-2.2,3.5-8.9-1.9-11.7,1.1c-1.7,1.9-2,4.7-1.5,7.2c1.5,7.2,8,12.1,11.6,18.4c1.7,3.1,2.8,6.5,3.8,9.8c7.8,26.1,15.3,53,12.9,80.1"
	/>
<path fill="none" stroke="#E1E1E1" stroke-miterlimit="10" d="M15.5,373.8c-2.7-18.5-21.2-37.4-13.4-54.4c2-4.4,9,2.1,13.5,3.7
	c7.2,2.7,15.2-0.3,22.3-3.3c1.3-0.6,2.8-1.2,3.5-2.4c0.5-0.8,0.6-1.7,0.7-2.6c0.7-4.8,6-11.6,2-14.3c-5.4-3.6-12.7-0.2-18-3.9
	c-3.5-2.4-7.2-5.1-8.7-9.1c-2.7-7.5,3.4-15.5,2.4-23.3c-0.5-3.4-2.3-6.4-3.2-9.7c-2.2-8.1,1.3-16.7,5.7-23.8
	c4.5-7.1,10-13.7,12.8-21.6c3.1-8.9,2.3-18.9-0.6-27.9S26.7,164,21.6,156c-3.5-5.4-4.5-14.2-10.7-15.9
	c-26.5-7.4-50.3,22.2-75.4,33.3"/>
<path fill="none" stroke="#E1E1E1" stroke-miterlimit="10" d="M-4.4,129.9c6.6-5.3,13.5-12,22-11.6c5.3,0.2,10.3,3.6,12.6,8.3
	c1,2.1,1.5,4.5,2,6.8c4.5,21.9,9.2,46.3,27.2,59.4c5.3,3.9,12,7,14.5,13.1c1.5,3.8,1.2,8.1,0.1,12c-2.1,7.6-7.1,14.4-13.7,18.9
	c-2,1.4-4.6,3.5-3.6,5.7c0.4,1,1.4,1.5,2.4,2c10.8,5.6,24,9.4,29.7,20.1c1.9,3.5,2.9,7.7,5.9,10.2c1.3,1,2.9,1.9,3.2,3.5
	c0.2,1.2-0.4,2.4-1.1,3.4c-2.2,3.6-4.4,7.2-6.7,10.8c-4,6.5-8.1,13.1-13.2,18.7c-12.5,14-31.4,22.1-50.2,21.5
	c-1.3,0-2.7-0.1-3.9,0.4c-3.1,1.4-3,5.7-2.5,9.1c1.4,9.4,2.9,18.9,5.2,28.2"/>
<path fill="none" stroke="#E1E1E1" stroke-miterlimit="10" d="M367.7,158.4c-4.3,2.3-8.1,4.4-13,5.1c-7.4,1-15.1,0.2-18.2,7
	s-2.5,14.6-3.2,22c-1.1,11.2-2.8,25.3-12.6,30.7c-4.6,2.5-9.5,4-13.5,7.3c-2.9,2.4-6.1,5.6-5.1,9.2c0.4,1.4,1.5,2.7,1.3,4.2
	c-0.1,1.2-1.1,2.2-1.8,3.2c-2,2.9-2,6.7-2.8,10.2s-3.4,8.4-6.7,7.1c-6-2.2-13.5-2.5-16.7,3.1c-0.6,1.1-1.1,2.3-1.9,3.2
	c-1.1,1.2-2.7,1.9-4.4,2c-6.3,0.4-13.2-10.5-7.5-13.2c1.1-0.5,2.7-0.4,3.7,0.3c1,0.7,0.6,3,1.8,2.8c4.8-0.9,4.6-12.8-0.2-14.1
	c-3.9-1.1-4.7,6-8.6,5.1c-9.2-2.2-19,0.4-28.1-2c-2.9-0.8-5.7-1.7-8.6-2.7c-3.6-1.3-7.4-2.6-10-5.4c-4.7-5-4.5-13-8.6-18.5
	c-4.3-5.7-12.4-7.2-19.5-6.3s-13.8,3.7-20.9,4.8c-2.2,0.3-4.5,0.5-6.4-0.6c-2.8-1.5-5.8-0.4-8-2.7c-3.1-3.4-3.4-21.7-5.1-32.5
	c-0.5-3.2-1.1-6.5-3.2-8.9c-1.3-1.5-3.9-2-4.3-3.9c-0.4-1.9-1.3-4.1-2.8-5.4c-0.5-0.4-1.1-0.7-1.6-1.2c-0.8-0.8-1.1-2-1.7-2.9
	c-2.9-4.5-6-12-10-13.1c-4.2-1.2-5.5,6.7-7.4,10.6c-5.7,11.3-9.7,23.4-12.1,35.7c-0.5,2.5-0.9,5-1,7.5c-0.2,8.9,4.8,17.8,12.6,22.3
	c3.4,1.9,7.2,3.1,10.9,4.2c3.5,1,7,2,10.4,3.1c4.9,1.4,9.8,2.9,14.3,5.4c9.2,5.1,15.7,14.1,19.3,23.9s4.5,20.4,4.6,30.9
	c0,6.2-0.9,13.6-6.3,16.5c-2.3,1.2-4.9,1.4-7.5,1.8c-5.3,0.8-10.5,2.6-15.6,4.4c-2.2,0.8-3.5,2.5-4.6,4.5c-1,1.8-3.9,2.8-4.3,4.9
	c-0.1,0.6-0.1,1.2-0.5,1.6c-0.3,0.4-0.8,0.5-1.3,0.6c-2.9,0.7-5.8,1.4-8.6,2.2c-0.9,0.2-1.7,0.4-2.6,0.3c-0.8-0.1-1.5-0.5-2.3-0.8
	c-2-0.7-4.1-0.4-6.2-0.4c-1.6,0-3.2-0.1-4.7-0.7c-1.7-0.7-3.1-2.1-4.7-3.1s-3.7-1.6-5.3-0.6c-1.8,1.1-2.1,3.5-1.9,5.5
	c0.1,2.1,0.5,4.3-0.5,6.1c-1.4,2.5-4.7,3.1-7.6,3.4c-6.7,0.7-13.4,1.4-20.1,0.6c-2.3-0.3-5.3-0.3-6,1.9c-0.4,1.2,0.2,2.5,1.2,3.3
	s2.2,1.2,3.4,1.5c8.4,2,17.4,1,25.2-2.7c3.2-1.5,6.4-3.6,9.9-3.1c0.5,0.1,1,0.2,1.4,0.5c0.6,0.4,0.9,1.1,1.1,1.8
	c1.3,3.3,2.6,6.5,3.1,10c0.2,1.6,0.2,3.3,0.6,4.9"/>
<path fill="none" stroke="#E1E1E1" stroke-miterlimit="10" d="M364.4,336.1c-6.1-1.6-12.6-1.6-18.7,0.1c-3.6,1-7.7,2.5-10.8,0.4
	c-1.3-0.9-2.1-2.2-3-3.5c-2.2-3.5-4.5-7.1-6.7-10.6c-0.8-1.3-1.6-2.6-1.9-4.1s0.1-3,0.4-4.5c1.5-6.9,7.3-14.1,4.5-20.6
	c-1.2-2.8,0-6.2-2.3-8.2c-1.7-1.5-4.3-1.4-4.4-3.6s1.1-4.3,2.1-6.3c4.8-9.4,5.7-20.8,12-29.3c8-10.6,22.2-13.8,34.5-18.8"/>
<path fill="none" stroke="#E1E1E1" stroke-miterlimit="10" d="M364.9,245.6c-2.9-0.2-5.8-0.4-8.6,0.2c-7,1.6-11.7,8.2-15.4,14.4
	c-2.6,4.4-5.3,9.3-4.2,14.3c1.4,6.5,3,13.6,8.1,17.7c3.3,2.7,8.9-6.5,12.2-3.9c5.1,4-0.5,13.8,4,18.4"/>
<path fill="none" stroke="#E1E1E1" stroke-miterlimit="10" d="M50.4,398.8c-12.3-12.6-13.9-31.9-14.7-49.4c-0.1-1.7-0.1-3.6,0.8-5
	c0.9-1.3,2.3-2,3.8-2.6c12.9-5.5,30-1.1,40.7-10.2c6.1-5.2,3.8-15.6,5.6-23.4c0.3-1.4,0.7-2.8,1.5-3.9c2.7-3.6,8.4-2.2,12.5-3.9
	c1.7-0.7,3.2-2.1,5.1-2.3c1.9-0.3,2.2,1.7,3.4,3.1c1,1.2,3.2-1.8,4.7-1c2.8,1.5,1,7.1,3.6,8.9c6.7,4.4,16.2-0.3,23.7-2.9
	c7.6-2.6,14.6-8.1,17-15.7c2-6.3,0.6-13-0.7-19.4c-1.1-5.5-2.5-11.3-6.5-15.2c-6.4-6.2-16.5-5.1-25.1-7.5
	c-13.3-3.7-27.5-7.7-37.1-17.7c-13.6-14.2-3.2-39.2-6.4-58.6c-0.3-1.9-0.7-3.8-1.6-5.4c-2.1-3.5-7.1-0.8-10.6-2.7
	c-15-8.3-4-34.2-10-50.2c-1.6-4.2-3.3-8.3-4-12.7c-1.3-9.2,2.3-18.4,7.2-26.3c4.2-6.9,10-13.5,17.9-15.5c10-2.5,20.8,3.6,26,12.5
	s5.8,19.8,4.4,30c-1.4,9.9,3.5,21.3-2.1,29.6c-1.1,1.6-1.2,2.8-0.1,4.3c4.3,5.8,8.6,11.7,13.8,16.7c3.7,3.6,7.9,6.8,11.4,10.6
	c9,9.9,12.7,23.3,16.9,35.9c1.7,5,3.7,10.3,8.1,13.2c5.3,3.5,12.2,2.5,18.4,1.3c9.7-1.8,22.2,1.7,29.1-5.4c1.7-1.8,2.8-4.3,5.3-4.1
	s4.5,2.6,4.3,5.1c-0.1,1.1-0.5,2.2-0.7,3.3c-0.5,2.6,0.2,5.2,0.8,7.7c1.4,5.3,3,10.9,6.8,14.9c4,4.3,9.8,6.2,15.6,7.3
	c9,1.7,19.6,1.1,25.6-5.9c6.1-7.1,5-17.7,3.9-27.1c-0.4-3.6,0-8.2,3.4-9.3c3-0.9,5.7,1.9,8.2,3.8c4.9,3.7,12,4.4,17.6,1.7
	s9.3-8.8,9.3-15c0-2.2-0.4-4.4-1-6.5c-1-3.8-2.6-7.4-4.7-10.7c-2.6-4.2-6-7.9-10.2-10.6c-2.7-1.7-5.7-3.1-7.6-5.5
	c-2.6-3.2-2.9-8.2-0.6-11.6c2.2-3.5,6.8-5.3,10.9-4.2c2.3,0.6,4.3,2,6.3,3.1c12.5,6.9,29.4,4.8,39.8-4.9c2.1-2,4.1-4.3,6.7-5.5
	c4.3-2.1,9.4-0.8,14.1,0.1"/>
<path fill="none" stroke="#E1E1E1" stroke-miterlimit="10" d="M365.5,183.9c-8.9,2.7-14.3,11.2-19.1,19.2
	c-5.6,9.5-11.2,18.9-16.8,28.4c-1,1.7-3.6,4.6-1.8,5.5c9.2,4.8,18.1-10,27.1-15c4-2.2,8.1-4.5,11.5-7.7"/>
<path fill="none" stroke="#E1E1E1" stroke-miterlimit="10" d="M360.1,199c-0.6,0.1-1.1,0.6-1.5,1c-1.7,1.9-3.3,3.7-5,5.6
	c-0.7,0.8-1.4,1.6-2,2.5c-1.4,2.4-5,4.8-3.9,7.3c2.6,5.5,9.9-6.7,13.1-12c0.5-0.8,1-1.7,1-2.6C361.8,199.9,361.1,198.9,360.1,199z"
	/>
<path fill="none" stroke="#E1E1E1" stroke-miterlimit="10" d="M121.6,220c0.8,0.1,1.7-0.1,2.4,0.1c0.9,0.3,1.6,0.9,2.4,1.5
	c3.9,2.7,11.8,5.9,14,1.7c4.6-8.6-1.3-25.4,0.2-36.4c0.4-3.1-1.9-6.6-4.9-7.2c-0.7-0.2-1.6-0.1-2.2-0.5c-1.2-0.6-1.5-2.2-2-3.4
	c-0.5-1.3-1.9-3.1-2.9-2.2c-7.1,5.6-8.6,15.9-11.5,24.4c-2.1,6.2-3.7,13.5,0,19C118.1,218.5,119.7,219.9,121.6,220z"/>
<path fill="none" stroke="#E1E1E1" stroke-miterlimit="10" d="M82.8,232.2c1,0.7,1.3,2,1.4,3.3c0.1,0.8,0.7,1.7,0.2,2.4
	c-1,1.8-4.3-0.2-5-2.1c-0.4-1-0.2-2.2,0.5-3C80.6,231.9,81.9,231.6,82.8,232.2z"/>
<path fill="none" stroke="#E1E1E1" stroke-miterlimit="10" d="M138.4,399.2c-9.5-14.1-12.3-32.5-7.6-48.8c0.5-1.6,1-3.2,2.3-4.2
	c3.9-3,9.4,2.1,14.2,0.8c2.1-0.6,3.7-2.4,5.5-3.6c7.6-5.1,18.5-0.1,26.8-3.9c9.2-4.2,10.8-16.5,9.8-26.5c-1.4-14.9-5.5-29.5-12-42.9
	c-6.5-13.2-29-26.2-21.2-38.7c5.7-9.2,21.7-0.6,32.6-0.5c3.1,0,6.6,0.3,8.6,2.7c1.4,1.7,1.7,4,2.1,6.2C202,254,214,266,228.2,268.7
	c0.8,0.2,1.7,0.3,2.5,0c1.1-0.3,1.9-1.2,2.7-2c5.8-5.1,16.5-1.6,18.3,5.9c0.5,2.2,0.3,4.6,1,6.8c1.5,5.1,6.7,8,11.5,10.3
	c5.5,2.7,12,5.4,17.6,3c8.2-3.4,15.2-21.4,20.9-14.6c7.5,8.9,0.4,23.3,0.6,34.9c0.1,6.5,0.3,13,2.3,19.1
	c3.3,9.8,11.8,17.7,21.8,20.3c14.2,3.7,28.9-2.8,43.6-3.7"/>
<path fill="none" stroke="#E1E1E1" stroke-miterlimit="10" d="M271.5,410.9c17.5-14.1,28.6-35.9,29.6-58.3c0.2-4-0.3-8.7-3.6-10.9
	c-1.3-0.8-2.8-1.2-4.4-1.4c-12.7-2.1-26.2,0-37.6,5.9c-8.1,4.2-15.2,10.2-23.6,13.7c-8.1,3.3-17.1,4.2-25.1,7.7"/>
<path fill="none" stroke="#E1E1E1" stroke-miterlimit="10" d="M180.2,370.5c3.3-1.5,6.3-3.5,9.4-5.5c9.4-6,18.7-12,28.1-18.1
	c3.5-2.3,7.1-4.6,10.4-7.1c2.6-2,5.1-4.2,7.8-6.1c6.1-4.4,13.1-7.3,20.2-10.1c5.3-2.1,11.1-4.1,16.7-2.8c2.7,0.6,5.2,2,7.9,2.8
	s6.9,1.4,8-1.2c2.4-5.9-0.8-12.7-1.1-19c0-0.5-0.1-0.9-0.2-1.3c-0.6-1.6-2.9-1.8-4.4-0.9c-1.5,0.8-2.5,2.3-3.9,3.3
	c-3.6,2.8-8.8,2.2-12.9,0.4c-4.1-1.8-7.7-4.8-11.8-6.7c-3.2-1.5-6.6-2.3-9.6-4.1c-3-1.8-2.9-6-5.5-8.3c-4-3.6-10.5-1.5-15.4-3.7
	c-5.7-2.7-11.5-5.3-17.2-8c-2.6-1.2-5.5-2.6-6.8-5.2c-0.9-1.8-1-4.1-2.4-5.6c-1.1-1.2-2.8-1.8-3.5-3.3c-0.9-2,0.7-4.3-0.1-6.3
	c-0.5-1.2-1.6-1.9-2.3-2.9c-0.8-1.1-1-2.4-1.6-3.6c-1.5-3.1-5.4-4.8-8.7-3.7c-1.3,0.4-2.5,1.3-2.9,2.6c-0.6,1.9,0.7,3.9,1.6,5.7
	s-0.9,3.3-0.9,5.4c0,4.3,6.9,5.8,6.6,10.1c-0.1,1.3-0.4,2.5-0.4,3.8c0.1,1.5,0.6,2.9,1.2,4.2c1.9,4.5,3.8,9.1,7.1,12.8
	c2.7,3.1,6.3,5.3,8.8,8.6c5.5,7.2,4.6,17.2,3.5,26.2c-0.2,1.5-0.4,3.1-1.2,4.5c-0.9,1.5-2.4,2.5-3.5,3.9c-2.4,2.9-2.8,7.1-5.1,10.1
	c-2.7,3.7-7.8,5.3-10.2,9.2c-0.6,1-1,2.2-1.8,3.2c-1.5,1.9-4.2,2.5-6.6,2.9c-8.9,1.5-17.9,2-26.9,1.3c-1.1-0.1-2.3-0.1-3.1,0.6
	c-0.6,0.6-0.8,1.5-1,2.4"/>
<path fill="none" stroke="#E1E1E1" stroke-miterlimit="10" d="M197.6,275.8c-2.5,3.6,4.8,7.6,9,8.7c1.5,0.4,3.1,0.6,4.6,1
	c3.4,1,6.4,3.4,8,6.6c2,3.9,1.8,8.5,1.3,12.9c-1.7,13.3-19.9,24.8-14.4,37c1.6,3.5,7.3-2,10.4-4.2c12.4-8.7,28.8-12,39.2-22.9
	c1.4-1.5-0.4-4.2-2.1-5.4c-1.7-1.2-3.8-1.8-5.6-2.7c-5.7-2.8-9.3-8.8-14.6-12.3c-2.2-1.5-4.7-2.5-7.4-3.1c-1.5-0.3-3.3-0.5-4.3-1.7
	c-0.9-1-1.2-2.4-2.1-3.3c-1-0.9-2.5-1-3.8-1.4C209,283.4,201.6,270.2,197.6,275.8z"/>
<path fill="none" stroke="#E1E1E1" stroke-miterlimit="10" d="M68.5-10.4c-1.7,5.3-3.4,11-2.2,16.5c1.2,5.5,7.6,5.7,11.9,9.4
	c4.7,4-6.5,16.1-0.8,18.3c3.6,1.4,6.3-4.4,10-5.8c8.7-3.3,17.3-13.3,26-9.9c5.5,2.1,5.4,10.5,8,15.8c2.6,5.1,5.3,11.1,2.9,16.4
	c-1,2.2-2.8,4-3.8,6.3c-1.4,3.3-0.7,7-0.3,10.6c1.4,11.2,0,22.6-2.2,33.7c-1.1,5.9-2.5,11.9-2.2,17.9s9.3,10.1,7.5,15.8
	c-0.3,1-0.6,2.7,0.3,3c1,0.3,2-0.1,3,0.1c2.8,0.5,2.9,4.4,3.6,7.2c1.6,6.6,9.5,9.2,14.6,13.8c10.7,9.9,6.8,28.2,14.2,40.8
	c1.1,1.9,2.6,3.8,4.7,4.7c2.3,1,4.9,0.7,7.4,0.4c12-1.6,24-3.8,35-8.7c3.5-1.6,6.9-3.4,10.1-5.5c2.5-1.7,4.5-4.1,4.8-7.2
	c0.1-1.8,1.1-3.4,1.6-5.1c1.1-3.5,2.4-7.2,5.3-9.4c2.9-2.2,8-1.9,9.4,1.5c0.9,2.3,0,5,0.9,7.2c1,2.4,4.2,3.5,6.5,2.3
	c5.9-3.3,5.9-6,1.4-6.8c-1.5-0.3-2.4-1.9-3.4-3c-1.9-2-3-4.9-2.8-7.7c0.5-7.2-5.1-10.4-9.3-14.3c-4.2-3.9-4.4-11.9-0.1-15.7
	c2.3-2.1,5.8-2.5,8.2-4.5c3.5-2.9,4.2-8.2,7.5-11.3c4.4-4.1,11.3-2.6,17.2-3.4c9.7-1.2,17.5-8.9,22-17.6c0.7-1.3,1.3-2.7,1.2-4.2
	c-0.2-3.1-3.3-5-5.5-7.1c-7.2-6.9-6.9-19.4-14.3-26.1c-1.5-1.4-3.4-2.7-3.8-4.7c-0.2-1.1,0.1-2.3,0.5-3.4c1.6-5.1,1.9-10.8,4.8-15.4
	c2.3-3.7,8.9-5.6,11.2-1.9c0.7,1.2,0.8,2.6,0.9,3.9c0.8,7.6,5.7,14.1,10.4,20.1c1.5,1.9,3,3.9,3.9,6.1s1.3,4.7,1.6,7.1
	c1.3,9.8,2.6,19.7,1.4,29.6c-0.5,3.7-1.4,7.4-1.4,11.1c-0.1,11.7,9.1,22.7,20.6,25.1c11.5,2.3,24.1-4,29.4-14.5
	c1.7-3.5,4.1-7.5,2.9-11.2c-1.8-5.4-10.3-9.5-7.7-13.3c2.6-3.8,9.1-2.6,12.7-5.6s5.9-8,4.2-12.3c-1.5-4-5.7-6.2-9.2-8.6
	c-3.5-2.5-6.9-6.5-5.6-10.6c0.7-2.1,2.4-3.6,4.1-5c2.5-2.1,5-4.2,7.5-6.3c1.2-1,2.5-2.1,4.1-2.5c4.3-1,7.6,3.5,11.1,6
	c5.5,3.9,13,3.4,19.6,2.3"/>
<path fill="none" stroke="#E1E1E1" stroke-miterlimit="10" d="M-13.9,74c8.5-3.5,16-7.9,27-3c5.5,2.5,9.7-7,15-8c1-0.2,2.1,0.4,3,0
	c9.1-3.8,8.7-16.2,15-23c1-1,3.5-1.2,4,1c0.2,1-1.2,1.4-0.3,2.1c3.4,2.5-1.1-1.1,0,0c3.1,3.3,8.5-3.9,11.3-7.1c4.3-4.8-4-7-5-10
	c-4-12-1.2-24.9-7-37"/>
<path fill="none" stroke="#E1E1E1" stroke-miterlimit="10" d="M114.6,40.4c1-1.6-2.4-4-3.8-2.7c-0.9,0.8-1,2.8,0,3.5
	C112,41.9,113.9,41.5,114.6,40.4z"/>
<path fill="none" stroke="#E1E1E1" stroke-miterlimit="10" d="M293-56.7c-5.2,20.6-9.8,44.5,2.8,61.6c2.6,3.6,6,6.7,7.6,10.9
	c3,7.5-0.1,16.7,4.2,23.5c3.4,5.3,10.4,7.1,16.6,6.5c6.2-0.7,12-3.4,17.8-5.6c6-2.2,12.6-3.8,18.7-1.9"/>
<path fill="none" stroke="#E1E1E1" stroke-miterlimit="10" d="M78.5-19.4C77.3-11.6,76.8-2.2,83,2.7c4.8,3.7,13.2,6.3,17.6,2.1
	c2.6-2.4,2.5-6.7,5-9.2c2.3-2.2,6-3.7,8.5-1.8c1.2,0.9,1.8,2.4,2.6,3.7c2.3,3.6,6.6,5.7,8.6,9.6c1.6,3.2,1.3,6.9,1.5,10.4
	c0.5,8.4,4,16.6,9.7,22.8c3.3,3.6,7.7,7.4,7.4,12.3c-0.3,3.9-3.6,6.9-5.2,10.5c-2.6,5.9-0.5,12.8-2.3,19c-1,3.6-3.3,6.7-4.9,10.1
	c-4.6,9.6-3.7,20.9-2.7,31.5c0.8,8.1,7.9,14.4,13.5,20.2s23.1,11.7,22.2,3.6c-1.4-13,10.2-28.6,33.5-25.8c5.1,0.6,9.7,3.4,14.9,3.5
	c9.5,0.2,17.3-7.3,23.8-14.3c10-10.8,20.8-23.6,18.8-38.2c-0.8-5.8-4.5-12-10.4-12.7c-2.1-0.3-4.6,0.1-6.1-1.4
	c-1.7-1.7-0.9-4.6,0-6.9c6.6-15.6,15.1-30.7,18.2-47.3c2.5-13.7,1.2-27.8-0.1-41.7"/>
<path fill="none" stroke="#E1E1E1" stroke-miterlimit="10" d="M-0.9,51c7-7,10.9-20.1,24-17c1,0.2,2.7,3.2,4,5c0.8,1.1,2.1,1.4,3,1
	c6.5-2.7,7.9-10.3,12-16c1.3-1.8,1.5-3.8,2-6c0.5-1.9-0.1-2.9-1-4c-2.3-2.8-6-1-8-3c-1-1-2.2-2-2-3c3.1-12.1,2.5-24.5-5-33"/>
<path fill="none" stroke="#E1E1E1" stroke-miterlimit="10" d="M214.2-22.1c-3.5,10-2.4,27.9,8.2,28.7c4.7,0.4,9.4-2.5,13.7-0.3
	c1.5,0.8,3.1,1.9,4.8,1.9c3.3-0.1,5-4,5.7-7.2c2.3-10.4,2.5-23-6-29.5"/>
<path fill="none" stroke="#E1E1E1" stroke-miterlimit="10" d="M118.2-26.5c8.3,6.1,8.8,17.9,13.1,27.2c5.8,12.5,2.5,29,11.8,39.3
	c6.8,7.4,20.8,18.1,24,17.7c1.8-0.2,3.8-12.2,4.9-9c2,5.7,1.9,12.2,0.5,15.7c-0.5,1.4,2.5,1.7,3,2.8c6.8,15.6,10,34.6,39.8,38.1
	c2.3,0.3,4.8,0.8,7,0c1.7-0.6,3.1-1.7,4.3-3c5.1-5,13.9-13.7,9.1-18.9c-2.3-2.5-7.1,1.3-10.3,0.1c-7.4-2.9-2.6-15,0.9-22.1
	s6.5-16.8,0.5-22c-4.1-3.6-10.9-3.2-14.3-7.5c-1.8-2.3-2.1-5.3-2.7-8.2c-3.7-20.8-30.6-45.7-15.6-60.5"/>
<path fill="none" stroke="#E1E1E1" stroke-miterlimit="10" d="M-11.2,47.8c5.5-4,7.7-11.3,13-15.5c3-2.4,6.8-3.7,9.6-6.3
	s-0.1-6.5,1.3-10.1c0.4-0.9,2.1,0.6,3,0.1c1.1-0.6-0.4-2.5,0.3-3.6c0.6-0.9,2.7,0.8,3.3-0.1c4.4-6.5,4.6-20.2-2.6-23.1"/>
<path fill="none" stroke="#E1E1E1" stroke-miterlimit="10" d="M214.3,89.2c1.6-0.3,3.4-0.1,3.8-1.6c0.4-1.6-0.6-3.3-2-4
	c-1.5-0.7-3.2-0.5-4.7,0.1c-0.7,0.3-1.3,0.6-1.9,0.9c-1.1,0.4-2.3,0.4-3.2,1c-2,1.2-2.1,4.1-1.9,6.4c0,0.3,0,0.5,0.2,0.7
	s0.4,0.2,0.6,0.2C207.5,93.1,212,89.7,214.3,89.2z"/>
<path fill="none" stroke="#E1E1E1" stroke-miterlimit="10" d="M275-21.9c-0.9,8.6-3.9,16.8-6.9,24.9c-0.2,0.5-0.4,1-0.8,1.3
	c-0.7,0.5-1.7,0-2.1-0.7s-0.5-1.6-0.5-2.4c-0.1-7.8,0.7-15.6,2.4-23.3"/>
<path fill="none" stroke="#E1E1E1" stroke-miterlimit="10" d="M195.4-54"/>
<path fill="none" stroke="#E1E1E1" stroke-miterlimit="10" d="M141.4-6.1c4.5,2.9,3.7,10.1,7.5,13.9c2.6,2.6,6.2,7.2,9.4,5.4
	c1.9-1.1,0.1-4.4,0-6.7c-0.1-2.2,1.1-4.9,3.3-5.1c1.2-0.1,2.2,0.6,3.4,0.7c1.5,0.2,2.9-0.5,4.3-1.1c6.2-2.6,14.9,3.1,19.9-1.5
	c7.5-6.8-3.1-20-4.6-30c-0.6-3.6-1.1-7.3-0.1-10.8"/>
<path fill="none" stroke="#E1E1E1" stroke-miterlimit="10" d="M317.6,90.5c0,0.1,0,0.2,0.1,0.3c0.1,0.1,0.2,0.2,0.4,0.2
	c1,0.1,1.8-0.8,2.5-1.4c1.1-0.9,2.2-2.1,4.1-1.9c1.5,0.2,3.2,1.3,4.7,1.2c0.2,0,0.5,0,0.7-0.2c0.1-0.1,0.1-0.3,0.1-0.5
	c-0.1-1.6,0.5-3.4-0.4-4.8c-1-1.7-3.7-1.8-5.7-1.8c-0.9,0-1.8,0.1-2.5,0.5c-0.9,0.5-1.4,1.4-2,2.3s-1.1,1.9-1.5,2.9
	C317.7,88.3,317.6,89.4,317.6,90.5z"/>
<path fill="none" stroke="#E1E1E1" stroke-miterlimit="10" d="M265.1,33.6c0.7-0.2,1-0.8,1.3-1.5c0.4-1.2,0.5-2.4,0.4-3.7
	c0-0.5-0.3-1.1-0.7-1.1c-0.3,0-0.5,0.2-0.7,0.4c-1.1,1.2-1.7,2.7-1.7,4.3c0,0.4,0.1,0.8,0.3,1.1C264.1,33.5,264.6,33.7,265.1,33.6z"
	/>
<path fill="#EAEAEA" stroke="#D6D6D6" stroke-miterlimit="10" d="M243.5,225.5c-1-0.7-1.2-2-1.9-3c-0.5-0.8-1.3-1.3-1.7-2.1
	c-0.3-0.7-0.3-1.5-0.3-2.3c0.1-2.8,0.8-5.5,0.8-8.3c0-2.2-0.3-4.5-0.7-6.7c-0.1-0.9-0.3-1.8-0.6-2.6c-0.2-0.7-1.1-1.3-1.3-2
	c-0.5-1.6-0.5-3.2-0.5-4.9c0-0.4,0.6-0.9,0.7-1.2c0.2-0.4,0.5-0.6,0.8-0.9c1.4-1.1,2.9-2.1,4.3-3.2c0.4-0.3,0.8-0.6,1.3-0.6
	s1,0.4,1.3,0.8c0.6,0.7,1.1,1.5,1.4,2.3c0.1,0.3,0.3,0.7,0.5,0.9c0.2,0.3,0.5,0.5,0.8,0.8c1.1,0.8,2.4,1.4,3.6,2.1
	c1.2,0.7,2.3,1.6,2.9,2.9c0.2,0.4,0.3,0.8,0.5,1.2s0.5,0.7,0.8,1c1.3,1.4,1.9,3.3,2.2,5.2c0.3,1.9,0.7,3.8,0.5,5.7
	c-0.1,1.1,0,2.5-0.4,3.5s-1.9,1.6-2.6,2.5c-1,1.3-1.9,3-1.9,4.6s-0.6,2.8-2,3.3c-1,0.4-1.9,0.8-3,1c-1.1,0.1-2.3,0.3-3.4,0.3
	C245.1,226.1,244.2,226,243.5,225.5z"/>
<path fill="#7BBCEB" stroke="#4E9BD7" stroke-miterlimit="10" d="M168.1,190.3c-0.7-1-1.4-2.1-1.8-3.4c-0.3-1.1-0.3-2.2-0.3-3.3
	c0-3.2,0-6.3-0.1-9.5c0-1.7,0-3.5,0.7-5c0.8-1.6,2.3-3,2.3-4.8c0-1-0.6-1.9-0.5-2.9c0.2-1.5,2.1-2.4,3.3-1.6c0.7,0.4,1.1,1.2,1.6,2
	c2.3,3.8,6.6,5.9,9.6,9.2c1.1,1.2,2.1,2.6,3.6,3.2c0.4,0.2,0.7,0.3,1.1,0.4c0.3,0.1,0.5,0.3,0.8,0.5c1.4,0.9,3.1,1.2,4.6,2
	c0.2,0.1,0.4,0.2,0.5,0.4c0.3,0.4,0.2,0.9,0.1,1.4c-0.1,1.1,0.1,2.3,0.7,3.3c0.2,0.3,0.4,0.6,0.4,1s-0.3,0.7-0.6,0.9
	c-0.7,0.7-1.4,1.5-2.2,2.2c-0.5,0.5-1,1-1.6,1.1c-0.8,0.2-1.7-0.2-2.4,0.3c-0.9,0.6-0.9,2.3-2,2.5c-0.6,0.1-1.1-0.2-1.7-0.3
	c-0.6,0-1.1,0.4-1.3,0.9c-0.1,0.3-0.1,0.5-0.2,0.8c-0.1,0.2-0.3,0.4-0.5,0.6c-1.1,1-2.5,1.9-3.9,2.4s-3.1,0.7-4.5,0
	c-0.5-0.3-0.9-0.6-1.4-0.9c-0.7-0.5-1.6-0.8-2.3-1.4C169.3,192,168.7,191.1,168.1,190.3z"/>
<path fill="#EAEAEA" stroke="#D6D6D6" stroke-miterlimit="10" d="M161.9,99.3c1.2-5.3,3.4-16.3-1.4-14.8c-7,2.2-15,15.1-12.9,22.8
	c0.4,1.5,2,1.5,2.1,2.4c0.1,1.4,0.3,3.1,2.8,4.1c3,1.1,4.6-1.8,6.1-5.2c0.3-0.6,0.5-1.1,0.7-1.7c0.1-0.2,0.1-0.4,0.2-0.5
	c0.1-0.2,0.3-0.3,0.4-0.5c0.4-0.4,0.8-0.8,1.1-1.2c0.2-0.2,0.4-0.4,0.4-0.6c0.1-0.2,0.1-0.4,0.1-0.6
	C161.6,102.1,161.6,100.6,161.9,99.3z"/>
<path fill="#EAEAEA" stroke="#D6D6D6" stroke-miterlimit="10" d="M211.8,36.3c-0.4-0.1-0.8-0.1-1.1-0.1c-1.7,0-3.1-1.2-4.3-2.5
	c-0.8-0.9-1.5-1.8-2.6-2.2c-1.1-0.4-2.6-0.1-2.9,1c-0.1,0.4-0.1,0.8-0.2,1.2c-0.1,0.4-0.4,0.8-0.8,0.8c-0.4,0-0.7-0.3-0.9-0.6
	c-0.7-0.9-1.5-1.6-2.5-2c-1-0.4-2.3-0.3-3.1,0.5c-0.8,0.7-1.1,2-0.7,3c0.3,1,1.2,1.9,2.2,2.3c0.5,0.3,1.2,0.4,1.7,0.2
	c0.6-0.2,0.9-0.8,1.3-1.3s1.2-1,1.6-0.5c0.7,0.9-0.3,2.2-0.9,3.1c-0.6,0.9-1.2,1.8-2.1,2.3c-0.3,0.2-0.6,0.3-0.8,0.6
	c-0.6,0.6-0.4,1.7-0.5,2.5c-0.1,1.1-0.7,2.1-1.7,2.8c-0.4,0.3-1,0.5-1.2,1s-0.2,1-0.3,1.5c-0.3,1-1.3,1.5-1.8,2.4
	c-0.2,0.4-0.3,0.9-0.4,1.3c-1.2,5.5-2.4,11.3-1,16.8c0.2,0.6,0.3,1.2,0.7,1.7s0.9,0.8,1.5,1.2c1.2,0.7,2.4,1.5,3.8,1.7
	s3-0.1,3.8-1.2c0.5-0.6,0.7-1.4,1.4-1.9s1.5-0.4,2.3-0.2c0.8,0.2,1.5,0.6,2.3,0.8c1.5,0.3,2.9-0.3,4.3-0.9c1.2-0.5,2.4-1,3.6-1.5
	c1.9-0.8,4-1.9,4.5-3.8c0.1-0.5,0.2-1.2,0.6-1.5c0.2-0.2,0.5-0.3,0.7-0.3c1.1-0.3,2.3-0.2,3.2-1c0.4-0.4,0.6-0.8,0.8-1.3
	c1.4-3,2.9-6.1,3.2-9.4c0.2-1.4,0.1-3-0.8-4.1c-0.7-0.9-1.8-1.5-2.8-2.1c-2.5-1.6-4.4-4-5.6-6.7c-0.2-0.4-0.3-0.7-0.6-1
	c-0.2-0.3-0.5-0.5-0.8-0.7c-0.7-0.5-1.3-0.9-2-1.4C212.3,36.6,212.1,36.4,211.8,36.3z"/>
<path fill="#EAEAEA" stroke="#4E9BD7" stroke-miterlimit="10" d="M198.1,24.8c-0.2-0.1-0.3-0.3-0.5-0.4c-0.5-0.4-1-0.8-1.6-0.9
	s-1.3,0.3-1.3,0.9c0,0.3,0.1,0.5,0.2,0.8c0.3,0.6,0.6,1.2,0.9,1.8c0.2,0.4,0.4,0.8,0.7,1.1c0.9,0.9,2.4,1.7,3.5,1.1
	c0.3-0.2,0.4-0.7,0.5-1.1c0.1-0.2,0.1-0.4,0-0.6c0-0.2-0.1-0.3-0.2-0.4C199.7,26.1,198.9,25.4,198.1,24.8z"/>
<path fill="none" stroke="#4E9BD7" stroke-miterlimit="10" d="M188.3,60.3c-0.4,0.1-1.3,0.4-1.7,0.6c-2.1,0.7-4.2,1.2-6.4,1.5
	c-0.9,0.1-1.9,0.2-2.8,0.5c-0.8,0.2-1.6,0.7-2.4,1.1c-3.6,2-6.9,4.6-9.1,8.1c-0.5,0.8-0.9,1.6-1.2,2.4c-0.6,1.8-0.5,3.8-1.1,5.5
	c-0.6,1.6-1.8,3.2-1.3,4.8"/>
<path fill="none" stroke="#4E9BD7" stroke-miterlimit="10" d="M160.6,105.3L160.6,105.3c1.8,1.1,1.3,4,1.2,6.1
	c-0.3,3.9-1.2,7.8-2.4,11.5c-1.3,3.7-2.4,7.4-2.7,11.3s0.1,8,2.8,10.8c1.7,1.9,4.1,3.1,5.4,5.3c0.5,0.9,0.8,1.9,1.4,2.7
	c0.3,0.4,0.6,0.7,0.9,1.1c0.3,0.4,0.5,0.9,0.6,1.3c0.5,1.3,1.2,3,1.8,4.3"/>
<path fill="none" stroke="#D6D6D6" stroke-miterlimit="10" d="M194,178.4c3.6-0.9,7-3,9.3-5.9c0.3-0.4,0.6-0.8,0.6-1.2
	c0-0.3,0-0.7,0.1-1s0.5-0.5,0.7-0.7c1.5-1,2.1-2.9,2.8-4.6c0.7-1.7,1.9-3.5,3.7-3.6c0.6,0,1.2,0.1,1.7-0.1c0.6-0.2,1-0.6,1.4-1
	c2.4-2.3,5.4-4.3,8.6-4.3c1.7,0,3.4,0.5,5.1,0.3c1.5-0.2,2.8-0.9,4.2-1.3c1.4-0.3,3.2-0.1,4,1.2c0.3,0.5,0.4,1,0.5,1.5
	c0.7,3.7,1.6,7.4,2.6,11c0.2,0.7,0.4,1.4,0.8,2c0.5,0.8,1.2,1.4,1.9,2c1.2,0.9,2.6,1.8,4.1,2.2c0.5,0.2,1.2,0.5,1,1
	c-0.1,0.2-0.3,0.4-0.5,0.5c-1.1,0.7-2.4,0.8-3.7,1.2c-1.2,0.4-2.5,1-3,2.3c-0.1,0.4-0.1,0.8,0.1,1.1c0.2,0.3,0.5,0.5,0.7,0.8
	c0.3,0.5,0.1,1.2,0.2,1.8c0.3,1.6,3.8,3.5,3.1,4.2"/>
<path fill="#EAEAEA" stroke="#D6D6D6" stroke-miterlimit="10" d="M308,118.3c-0.5-2.9-0.9-5.8-0.9-8.7c0-2,0.5-4.1,1.3-5.9
	c1.3-2.9,3.7-5.8,6.9-6c0.5,0,1,0,1.5-0.2c0.3-0.2,0.6-0.5,0.9-0.8c0.8-0.9,1.5-1.8,2.1-2.8c0.5-0.8,0.8-1.8,1.3-2.6
	c0.5-0.8,1.4-1.5,2.3-1.4c1.1,0,1.9,0.9,3,1.3c0.9,0.3,1.8,0.2,2.8,0.2c2,0,4,0.5,5.8,1.5c0.9,0.5,2.2,2,1.2,2.3
	c-0.7,0.2-1.5,0.5-1.5,1.3s0.4,1.4,1,2c0.5,0.5,1.2,1,1.7,1.5c0.4,0.4,0.6,0.9,1,1.3c0.3,0.3,0.7,0.5,1,0.7c2,1.1,4.1,2.3,5.4,4.2
	c1.7,2.6,1.6,6,1.5,9.1c-0.1,1.8-0.3,3.2-1.2,4.7c-0.6,1-1.4,2.2-2.3,3c-3.6,3.6-7.6,6.7-12.1,9c-1,0.5-1.9,1.2-3,1.5
	c-1,0.3-2,0.3-2.9,0.3c-3.4,0-6.9,0-10-1.4C312.2,131.2,309.6,128.7,308,118.3z"/>
<path fill="#EAEAEA" stroke="#D6D6D6" stroke-miterlimit="10" d="M351.1,83.4c0.1,1.1-0.4,2.3,0.2,3.2c0.5,0.7,1.4,0.8,2.2,0.8
	c0.5,0,1-0.1,1.3-0.4s0.3-0.8,0.1-1.2c-0.2-0.4-0.4-0.8-0.6-1.2c-0.5-1.1-0.6-2.3-1.2-3.3c-0.5-0.8-1.3-1.3-2.3-1.4
	c-0.1,0-0.2,0-0.2,0l-0.1,0.1c-0.3,0.5-0.2,1.2,0,1.7S351,82.8,351.1,83.4z"/>
<path fill="#EAEAEA" stroke="#D6D6D6" stroke-miterlimit="10" d="M349,72.3c-0.7-0.4-1.6,0-2.3-0.3c-0.3-0.2-0.5-0.5-0.8-0.7
	c-0.5-0.4-1.2-0.5-1.8-0.2c-0.3,0.1-0.2,0.6,0,0.8c0.2,0.2,0.4,0.4,0.6,0.6s0.3,0.5,0.4,0.8c0.5,1.1,0.8,2.3,1.1,3.5
	c0.1,0.6,0.2,1.3,0.6,1.8s1.2,0.8,1.7,0.4c0.7-0.5,0.6-1.7,1.4-1.9c0.5-0.1,0.9,0.2,1.4,0.4s1.1,0.3,1.3-0.2c0-0.1,0.1-0.2,0.1-0.3
	c0.2-1,0-2.2-0.9-2.7c-0.5-0.3-1.2-0.2-1.7-0.6C349.7,73.3,349.6,72.6,349,72.3z"/>
<path fill="#EAEAEA" stroke="#D6D6D6" stroke-miterlimit="10" d="M223.6-18.8c-0.3,0.4-0.7,0.6-1.1,0.8c-2.3,1.5-3.2,4.8-2,7.3
	c0.3,0.5,0.6,1,0.7,1.5c0.1,0.5,0,0.9,0,1.4c-0.1,1.8,0.8,3.4,1.6,4.9s2,3.1,3.7,3.1c1.5,0,2.8-1.2,4.3-0.9c0.4,0.1,0.8,0.3,1.2,0.5
	c1.4,0.9,2.5,2.4,4,3.2c2.1,1.1,4.9,0.5,6.5-1.2c1.7-1.7,2.1-4.4,1.3-6.6c-0.3-0.7-0.6-1.3-0.8-2s-0.1-1.5,0.3-2.1
	c0.2-0.2,0.5-0.4,0.7-0.7c0.2-0.5,0-1-0.2-1.4c-1.4-3-3.3-6.2-2.5-9.5c0.2-0.9,0.7-1.8,0.8-2.7s0-2-0.8-2.6
	c-1.2-0.9-4.1,0.3-4.1-1.2c0-2.3-1.5-4.4-4.5-4.5c-0.4,0-0.7,0-1.1,0.1c-0.7,0.2-1.1,0.8-1.6,1.3c-0.9,0.9-2.1,1.7-3.3,2.1
	c-1.1,0.4-2.2,0.6-3.1,1.3c-1.3,1.1-1.4,3.1-0.8,4.6C223.5-20.9,224.2-19.8,223.6-18.8z"/>
<path fill="none" stroke="#4E9BD7" stroke-miterlimit="10" d="M199.9,29.3c-0.1,0.1-0.1,0.3,0,0.5c0.2,0.2,0.5,0.3,0.7,0.5
	c0.1,0.1,0.3,0.2,0.4,0.3c0.3,0.2,0.4,0.6,0.5,0.9"/>
<path fill="none" stroke="#D6D6D6" stroke-miterlimit="10" d="M159.3,18.1c1-1.9,0.4-4.3-0.9-6.1s-3-3.1-4.6-4.5
	c-3.1-2.8-5.7-7-4.5-11c0.6-2,2.1-3.7,3.2-5.5c2.1-3.6,2.5-7.8,3.7-11.8c1.6-5.1,4.5-9.8,6.2-14.9c2-6.2,2.8-11.6,6.5-17"/>
<path fill="#EAEAEA" stroke="#D6D6D6" stroke-miterlimit="10" d="M265.8,270.5c-1.3-0.3-2.2-1.5-2.7-2.8s-0.4-2.6-0.4-4
	c0-0.5,0-1.2,0.5-1.5c0.4-0.3,1-0.1,1.3,0.2c0.4,0.3,0.6,0.7,0.9,1.1c1.2,1.7,3.4,2.6,5.4,2.4c0.6-0.1,1.2-0.3,1.9-0.2
	c0.6,0,1.3,0.3,1.5,0.9c0.4,0.9-0.6,1.8-1.5,2.3c-1.6,0.9-3.4,1.4-5.2,1.6C267,270.6,266.4,270.7,265.8,270.5z"/>
<path fill="#EAEAEA" stroke="#D6D6D6" stroke-miterlimit="10" d="M286.2,245.5c-0.4-0.5-1-0.9-1.6-1.2c-0.7-0.3-1.5-0.3-2.2,0
	c-0.7,0.2-1.3,0.8-1.3,1.5c0,0.6,0.4,1,0.9,1.4c1.6,1.4,5.1,2.9,5.7,0.9C288,247.1,286.9,246.2,286.2,245.5z"/>
<path fill="#EAEAEA" stroke="#D6D6D6" stroke-miterlimit="10" d="M282,228.5c0.9,0.5,2.4,0.4,2.6-0.6c0.2-0.8-0.7-1.5-1.5-1.8
	c-0.6-0.2-1.2-0.4-1.7-0.1c-0.4,0.3-0.5,0.9-0.3,1.4C281.2,227.9,281.6,228.2,282,228.5z"/>
<path fill="#EAEAEA" stroke="#D6D6D6" stroke-miterlimit="10" d="M122.3,272.1c1.8-1.1,3.1-2.9,4.5-4.6c1.9-2.3,4.2-4.3,6.7-6
	c1.4-0.9,4.3-1.2,5,0.3c0.2,0.4-0.1,1.1,0.2,1.4c0.7,0.7,1.1,0.9,1.5,1c2.4,0.7,3.9,1.2,5.7,3c0.5,0.5,1,1.1,1.1,1.8
	c0.1,0.8,0.4,2.4,0.3,3.1c-0.4,2.9,4.1,4.7,2.4,7c-3.7,4.9-10.5,2.1-11.2,1.5c-0.8-0.7,0.8,2.5,0,3.3c-1.2,1.2-3.3-1-5-1.5
	s-3,0.9-4.7,1.1c-0.9,0.1-1.7-0.5-2.4,0c-0.7,0.5-1.2,1.3-1.9,1.9c-1.3,1.2-3.4,1.6-4.9,0.8s-0.2-2.9-0.9-4.5
	c-0.6-1.4-3.6,0.3-4.4-0.9c-0.2-0.3-0.3-1,0-1.3c0.6-0.6,1.7-0.2,1.9-1c0.4-1.8-1.3-3.8,0.2-4.8c0.6-0.4,1.3-0.4,2-0.4
	C119.9,273.1,121.2,272.8,122.3,272.1z"/>
<path fill="#EAEAEA" stroke="#D6D6D6" stroke-miterlimit="10" d="M58.2,284.9c0.2-0.5,0.7-0.8,0.9-1.2c0.6-1.1,0.2-2.5,0.3-3.7
	c0.2-2.4,3.7-6,5.1-4c0.7,1-0.6,2.4-0.9,3.6c-0.1,0.2-0.1,0.5,0,0.7s0.4,0.2,0.6,0.3c3,0.8,4.3,4.5,3.9,7.6s-3.2,8.5-0.6,10.2
	c0.7,0.5,2,0.5,2.4,1.3c0.5,0.9,1.1,1.9,0.8,2.9c-0.3,1.1-1.5,1.7-2.6,2.2c-1.5,0.6-3.2,1.5-4.7,1.1c-1.3-0.3-2.2-1.4-3.4-2
	s-1.9,0.8-3,0.1c-1.2-0.7-1.8-7.5-0.7-10.6c0.7-1.9,2.4-2.3,2-5.1C58,287.1,57.7,285.9,58.2,284.9z"/>
<path fill="#EAEAEA" stroke="#D6D6D6" stroke-miterlimit="10" d="M31.3,312.2c-0.7-0.3-1.7-0.1-2.2,0.5s-0.9,1.8-0.2,2.2
	c0.5,0.4,1,0.8,1.4,1.3c0.7,0.7,1.9,0.8,2.7,0.3s1.8-1.9,1.1-2.5C33.3,313.3,32.4,312.6,31.3,312.2z"/>
<path fill="none" stroke="#D6D6D6" stroke-miterlimit="10" d="M66.1,281.6c1.1,0.4,2.2-0.6,2.7-1.7s0.8-2.3,1.7-3.1
	c1.2-0.9,2.9-0.6,4.3-0.4c5.1,1,10.4,1.3,15.6,0.8c1.4-0.1,2.8-0.3,4,0.3c0.7,0.3,1.3,0.8,2.1,1c1.2,0.2,2.3-0.5,3.3-1.1
	c4.7-2.4,11.2-1,16.2,0.5"/>
<path fill="none" stroke="#D6D6D6" stroke-miterlimit="10" d="M34.4,314.2c3.7,0.2,3.7-3.5,4.6-5.1c0.4-0.7,1.6,0,2.2-0.6
	c0.6-0.6,0.9-1.3,1.2-2.1c0.7-1.7,1.4-3.5,2.1-5.2c0.3-0.6,0.5-1.3,0.9-1.9c1-1.5,2.8-2.4,4.6-2.6s3.6-0.1,5.4,0.2"/>
<path fill="none" stroke="#D6D6D6" stroke-miterlimit="10" d="M-49.3,290.5c2.1-1.2,4.1-2.4,6.2-3.6c2.1-1.2,4.3-2.5,6.7-2.6
	s4.8,1.1,6.2,3c0.5,0.7,0.9,1.5,1.5,2c0.9,0.8,2.1,0.9,3.2,1.2c4.8,1.2,8.6,4.8,12.4,8.1c1,0.9,2,1.8,3.2,2.3c0.9,0.4,2,0.5,2.9,1
	c1.2,0.7,2,2.1,3.3,2.8c2.8,1.3,6.5-1.7,8.8,0.3c0.6,0.6,1,1.4,1.6,2c0.9,0.8,2.1,0.9,3.3,1c2.3,0.1,4.7,0.3,7,0.4
	c0.5,0,1.1,0.1,1.5,0.4s0.5,0.9,0.7,1.4c0.6,1.6,2.2,2.7,3.9,3.2s3.4,0.4,5.2,0.4"/>
<path fill="#EAEAEA" stroke="#D6D6D6" stroke-miterlimit="10" d="M356.5,268.6c0.5,1.5,1.9,2.6,3.4,3.1s3.1,0.6,4.7,0.7
	c0.8,0,1.7,0.1,2.4-0.4c0.4-0.3,0.7-0.6,1.1-0.9c1.1-0.9,2.8-0.9,3.9-2c1.4-1.4,0.8-3.9,1.4-5.8c0.2-0.5,0.5-1.1,0.3-1.6
	c-0.2-0.7-1-1.1-1.8-1.3c-1.1-0.3-2.1-0.5-3.2-0.6c-0.8-0.1-1.7-0.1-2.2,0.5c-0.3,0.3-0.4,0.8-0.7,1.1c-0.6,0.6-1.6,0.6-2.4,0.4
	c-2.3-0.4-4.6-0.8-6.9-1.2c-0.3-0.1-0.7-0.1-1,0.1c-0.2,0.2-0.3,0.4-0.4,0.7c-0.4,1.7-0.1,3.5,0.3,5.2c0.1,0.3,0.1,0.6,0.3,0.8
	c0.1,0.2,0.3,0.3,0.5,0.5C356.4,268,356.4,268.3,356.5,268.6z"/>
<path fill="#FFFFFF" stroke="#D6D6D6" stroke-miterlimit="10" d="M60.8,295.5c-0.3,0.7,0.4,1.5,1.1,1.5c1.1,0,2.2-1.6,1.4-2.3
	c-0.6-0.5-1.5-0.1-2.1,0.3C61,295.2,60.9,295.3,60.8,295.5z"/>
<path fill="#FFFFFF" stroke="#D6D6D6" stroke-miterlimit="10" d="M207.5,43c0.2-0.2,0.4-0.4,0.4-0.7c0.1-0.5-0.4-1.1-0.9-1.1
	c-0.4,0-0.7,0.2-0.9,0.5s-0.2,0.7-0.2,1c0,0.1,0,0.1,0,0.2c0.1,0.1,0.2,0.2,0.4,0.2C206.7,43.2,207.1,43.2,207.5,43z"/>
<path fill="#FFFFFF" stroke="#D6D6D6" stroke-miterlimit="10" d="M204.1,38.4c-0.4,0.3-0.4,0.9-0.4,1.4c0,0.3,0,0.6,0.2,0.8
	c0.2,0.1,0.4,0.2,0.6,0.1c0.4-0.1,0.8-0.3,1-0.6c0.3-0.4,0.3-1,0-1.4C205.2,38.2,204.5,38.1,204.1,38.4z"/>
<path fill="#FFFFFF" stroke="#D6D6D6" stroke-miterlimit="10" d="M209.1,39.1c0,0.3,0,0.6,0.2,0.8s0.5,0.3,0.7,0.2s0.5-0.2,0.7-0.4
	s0.4-0.4,0.4-0.7c-0.1-0.2-0.3-0.4-0.5-0.5s-0.5-0.2-0.8-0.2s-0.5,0.1-0.7,0.4C209.2,38.8,209.2,38.9,209.1,39.1z"/>
<path fill="#FFFFFF" stroke="#4E9BD7" stroke-miterlimit="10" d="M240-11.2c0-0.7-0.7-1.1-1.4-1.1s-1.2,0.5-1.7,0.9
	c-0.6,0.6-1.2,1.3-1.6,2.1c-0.1,0.2-0.2,0.3-0.2,0.5c-0.1,0.6,0.7,1.1,1.3,1s1.1-0.5,1.6-0.9c0.5-0.5,1.1-1,1.5-1.5
	C239.8-10.5,240-10.9,240-11.2z"/>
<path fill="none" stroke="#4E9BD7" stroke-miterlimit="10" d="M180.2-17.3c2.7,6.2,7.6,12.3,8.4,19.1c0.5,4.5,1.8,8.9,4.1,12.9
	c1.7,3,0,5.5,2.2,8.8"/>
<g>
	<g>
		<path fill="none" stroke="#585858" stroke-miterlimit="10" d="M-28.6,181.3c0.6-0.2,1.2-0.5,1.9-0.7"/>
		<path fill="none" stroke="#585858" stroke-miterlimit="10" stroke-dasharray="4.0133,1.0033" d="M-25.8,180.3
			c9.5-3.3,22.7-5.5,26.5-7.5c0.8-0.4-0.8-1.7-1.1-2.5s-1.7-3.4-0.7-3.6c0.9-0.2,1.6,0.9,2.4,1.3s1.7,0.8,2-0.1
			c0.7-1.6-3.1-3.3-1.9-4.6c0.6-0.6,2,0.9,2.7,0.3c1.5-1.5-2.6-4.4-1.4-6.2c0.7-1.1,3.1,0.3,3.7-0.9c0.7-1.5-2.3-3.9-1.1-4.9
			c1-0.8,3,1.7,3.8,0.7c0.9-1-0.5-3,0.4-3.9c0.7-0.7,2.1,0.6,2.9,0c1.6-1.1-1.4-5,0.4-5.7c2.5-1,4.9-0.7,6.4-2.9
			c1.6-2.3,3.2-4.7,3.8-7.5c0.6-2.5-2.1-5.1-1-7.4c0.3-0.7,1.8,0.2,2.2-0.4c0.5-0.7-0.9-1.7-0.4-2.3c0.6-0.7,2.3,0.5,2.8-0.3
			c0.5-1-1.1-2.1-0.8-3.1s1.5-0.5,2.5-0.8c0.9-0.3-0.7-2.2,0-2.8c0.6-0.5,2,0.8,2.4,0.1c2.2-3.9,5.6-2.6,6.3-3.4
			c2.7-2.9-2.9-5.8,0.3-8.3c5.1-4,14.2-0.4,15.3,0.3c1.5,1,1.3-3.4,3.2-3.6c1.8-0.2,3.6,0.6,5.4,1c3.7,0.7,7.7-0.3,10.5-2.8
			c3.7-3.3,7.4-6,10-10.2C86.5,80.6,91,72.9,95.3,65c2.2-4,5.2-8.7,9.8-8.8c0.3,0,0.7,0,0.9-0.3c0.1-0.3-0.2-0.6-0.2-1
			c-0.1-0.6,0.5-1.1,1-1.5c3.3-2.1,6.5-8.2,9.8-6.2c1.5,1-2.2,4.5-0.6,5.4c3.5,2,6.9-8.6,10.4-6.4c3.5,2.3-5.8,8.4-3.4,11.9
			c3.5,5.1,11.4-13.5,15.9-9.2c0.9,0.9-1.3,3.1-0.3,3.8s2.4-2.1,3.5-1.5c0.7,0.4-0.4,2.2,0.3,2.3c1.3,0.2,1.6-3.6,2.7-2.9
			c2.3,1.3-1.9,7,0.6,7.8c0.7,0.2,0.9-1.8,1.6-1.6c0.9,0.2-0.1,2.5,0.8,2.7c2.3,0.4,2.7-3.9,4.1-5.8c0.3-0.5,0.8-1,1.3-0.9
			c1.1,0.1,1.6,2.8,2.4,2.1c0.8-0.7,0-2.5,0.8-3.2c0.9-0.7,2.6,1.5,3.3,0.6c0.9-1,0.4-2.9,1.8-3c1.4-0.1,2.7,0.9,3.3,2.2
			c0.7,1.2,0.9,2.7,1.2,4c0.5,2.3,1.4,4.5,2.4,6.6c0.9,2,1.8,4,3.4,5.5c4.4,4.2,12.3,3,16.5,7.4c2.6,2.7,8.4,0,10.4,3.2
			c0.9,1.4-0.8,1.7-0.1,3.3s1.8,2.9,3,4.2c2.3,2.5,4.9,5.2,8.3,5.5c2,0.2,4.1-0.5,6.1-0.2c1.4,0.2,2.8,0.9,4.2,0.6
			c1.8-0.5,3-2.7,4.9-2.5c2,0.2,3.4,3.1,5.3,2.3c2.2-0.9,0.3-4.6,1.7-6.4c0.3-0.4,0.8-0.7,1.1-1.1c1.7-2-0.7-4.9-0.2-7.5
			c0.2-1,0.9-1.9,1.5-2.8c1.4-1.8,2.8-3.6,4.2-5.4c0.8-1.1,2.4-0.7,3.3-1.7c1.8-1.8-4.5-4.6-3.2-6.8c1.4-2.4,6,2.6,8.4,1.1
			c2-1.2-2.3-4.6-1.2-6.7c0.7-1.4,2.8-1.6,2.9-3.1c0.1-1.5-2.3-2-2.4-3.5c-0.2-2.4,4.7-0.9,7.1-1.1c2.4-0.2,5.1-1,6.2-3.2
			c0.5-0.9,0.8-2.2,1.9-2.4s1.9,1.2,3,1.6c2,0.8,4.3-1.7,6.2-0.7c0.6,0.3,0.9,0.9,1.3,1.5c1.3,2.2,2.7,4.4,4,6.5
			c0.4,0.7,0.8,1.4,1.2,2c1.6,2.6,3.3,5.3,4.9,7.9c1.2,2,2.5,4,3.4,6.2c0.2,0.5,0.4,1.1,0.8,1.4c0.8,0.8,2.1,0.7,3.3,0.8
			c4.7,0.4,8.4,3.9,11.7,7.3c2.7,2.8,4.4,6.1,6.6,9.3c0.9,1.4,2.4,1.9,4.1,1.7c3-0.5,5.2-3,7.4-5.1c2.3-2,5.6-3.7,8.3-2.2
			c1.8,1,2.5,3.2,3.4,5c2.2,4.5,6.1,7.9,9.5,11.6c4.1,4.5,7.2,12.4,10.3,15c0.7,0.6,0-2.4,0.9-2.7c0.8-0.3,0.8,2.1,1.7,1.9
			c1.4-0.2,0-3.6,1.3-4.1c1.5-0.6,3.2-0.9,4.8-0.6"/>
		<path fill="none" stroke="#585858" stroke-miterlimit="10" d="M360.2,105.4c0.7,0.1,1.3,0.4,1.8,0.7"/>
	</g>
</g>
<g>
	<g>
		<path fill="none" stroke="#585858" stroke-miterlimit="10" d="M63.8,101.7c-0.2,0.5-0.3,1.2-0.4,2"/>
		<path fill="none" stroke="#585858" stroke-miterlimit="10" stroke-dasharray="4.0377,1.0094" d="M63.4,104.7
			c0.1,1.3,0.4,2.6,1.1,3.6c1.3,1.9,3.1,3.8,2.9,6.1c-0.1,1.9-1.6,3.4-2.3,5.1c-1.5,3.4,0.1,7.8,3.3,9.5c1.1,0.6,2.3,0.9,3.2,1.7
			c3.2,2.7,0.7,8.1,2.4,12c0.4,1,1.1,1.8,1.6,2.7c2.9,5.1-0.1,11.5-0.4,17.4c-0.1,2.4,0.2,4.9-0.6,7.1c-0.8,2.3-3.6,2-5.4,3.6
			c-0.6,0.5,0.8,1.7,0.4,2.4c-0.5,0.9-2.4-0.3-3.1,0.4c-1.5,1.3-1.9,2.7-2.6,4.5c-0.9,2.2,2.4,4.4,1.3,6.5c-0.8,1.5-2.4,2.7-2.6,4.4
			c-0.1,1.1,0.5,2.2,0.6,3.3c0.5,3.7-3.7,6.4-4.3,10c-0.2,1.4,0,2.9-0.3,4.2c-0.8,3-4.2,4.4-7.1,5.4c-5.9,2-12.4,5.1-14.3,11
			c-1.7,5.5,1.3,11.7-0.4,17.3c-1.8,5.8-8.4,9.8-8.4,15.9c0,2.5,1.2,4.9,1.5,7.3c0.9,6.5-4.1,13.2-1.7,19.3c1.5,4,5.9,6.3,10.2,6.3
			c4.2,0,8.3-1.9,11.7-4.4c1.5-1.1,3.1-2.3,4.8-2.7"/>
		<path fill="none" stroke="#585858" stroke-miterlimit="10" d="M55.2,284.4c0.7-0.1,1.3-0.1,2,0.2"/>
	</g>
</g>
<text transform="matrix(1 0 0 1 43.6538 69.0286)" fill="#585858" font-family="'Verdana-Italic'" font-size="8">Ten Lakes</text>
<text transform="matrix(1 0 0 1 66.1538 78.6286)" fill="#585858" font-family="'Verdana-Italic'" font-size="8">Pass</text>
<text transform="matrix(1 0 0 1 248.4764 -1.2674)" fill="#585858" font-family="'Verdana-Italic'" font-size="8">Ten Lakes (i)</text>
<text transform="matrix(1 0 0 1 203.4764 29.0659)" fill="#585858" font-family="'Verdana-Italic'" font-size="8">Ten Lakes (ii)</text>
<text transform="matrix(1 0 0 1 166.4764 102.7326)" fill="#585858" font-family="'Verdana-Italic'" font-size="8">Ten Lakes (iii)</text>
<text transform="matrix(1 0 0 1 168.8098 152.0659)" fill="#7BBCEB" font-family="'Verdana-Italic'" font-size="8">Ten Lakes (iv)</text>
<text transform="matrix(1 0 0 1 248.8106 188.4001)" fill="#585858" font-family="'Verdana-Italic'" font-size="8">Ten Lakes (v)</text>
<text transform="matrix(1 0 0 1 120.1431 296.3992)" fill="#585858" font-family="'Verdana-Italic'" font-size="8">Grant</text>
<text transform="matrix(1 0 0 1 120.1431 305.9992)" fill="#585858" font-family="'Verdana-Italic'" font-size="8">Lakes (upper)</text>
<text transform="matrix(1 0 0 1 45.1423 260.4)" fill="#585858" font-family="'Verdana-Italic'" font-size="8">Grant</text>
<text transform="matrix(1 0 0 1 45.1423 270)" fill="#585858" font-family="'Verdana-Italic'" font-size="8">Lakes (lower)</text>
<text transform="matrix(1 0 0 1 136.1453 206.704)" fill="#585858" font-family="'Verdana-Italic'" font-size="8">× 10183</text>
<text transform="matrix(1 0 0 1 230.4787 321.7041)" fill="#585858" font-family="'Verdana-Italic'" font-size="8">× 10542</text>
<path fill="none" d="M283.1,145.1c-2.2,3.5-2,8.4,0.6,11.6c2,2.5,5,3.8,7.6,5.5c4.2,2.7,7.6,6.4,10.2,10.6"/>
<text transform="matrix(0.7467 0.6652 -0.6652 0.7467 281.6212 158.4967)" fill="#7D7D7D" font-family="'Verdana-Italic'" font-size="7">9</text>
<text transform="matrix(0.7467 0.6652 -0.6652 0.7467 285.4879 161.6734)" fill="#7D7D7D" font-family="'Verdana-Italic'" font-size="7">6</text>
<text transform="matrix(0.7467 0.6652 -0.6652 0.7467 289.0811 163.8033)" fill="#7D7D7D" font-family="'Verdana-Italic'" font-size="7">0</text>
<text transform="matrix(0.7467 0.6652 -0.6652 0.7467 292.4752 166.1573)" fill="#7D7D7D" font-family="'Verdana-Italic'" font-size="7">0</text>
<path fill="none" d="M295.8,4.9c2.6,3.6,6,6.7,7.6,10.9c3,7.5-0.1,16.7,4.2,23.5c3.4,5.3,10.4,7.1,16.6,6.5"/>
<text transform="matrix(0.5847 0.8113 -0.8113 0.5847 297.6606 11.0837)" fill="#7D7D7D" font-family="'Verdana-Italic'" font-size="7.0003">9</text>
<text transform="matrix(0.5847 0.8113 -0.8113 0.5847 300.0226 14.1891)" fill="#7D7D7D" font-family="'Verdana-Italic'" font-size="7.0003">2</text>
<text transform="matrix(0.5847 0.8113 -0.8113 0.5847 301.595 17.7397)" fill="#7D7D7D" font-family="'Verdana-Italic'" font-size="7.0003">0</text>
<text transform="matrix(0.5847 0.8113 -0.8113 0.5847 302.2982 21.7939)" fill="#7D7D7D" font-family="'Verdana-Italic'" font-size="7.0003">0</text>
<path fill="none" d="M197.2,233.5c1.4,1.7,1.7,4,2.1,6.2c2.6,14.2,14.5,26.3,28.8,28.9c0.8,0.2,1.7,0.3,2.5,0"/>
<text transform="matrix(0.3837 0.9234 -0.9234 0.3837 198.0626 245.5954)" fill="#7D7D7D" font-family="'Verdana-Italic'" font-size="6.9996">1</text>
<text transform="matrix(0.3837 0.9234 -0.9234 0.3837 199.904 250.0269)" fill="#7D7D7D" font-family="'Verdana-Italic'" font-size="6.9996">0</text>
<text transform="matrix(0.3837 0.9234 -0.9234 0.3837 202.2615 254.137)" fill="#7D7D7D" font-family="'Verdana-Italic'" font-size="6.9996">0</text>
<text transform="matrix(0.3837 0.9234 -0.9234 0.3837 205.1346 257.9241)" fill="#7D7D7D" font-family="'Verdana-Italic'" font-size="6.9996">0</text>
<text transform="matrix(0.3837 0.9234 -0.9234 0.3837 208.4317 261.4272)" fill="#7D7D7D" font-family="'Verdana-Italic'" font-size="6.9996">0</text>
<path fill="none" d="M212.9,125.4c9.5,0.2,17.3-7.3,23.8-14.3c10-10.8,20.8-23.6,18.8-38.2"/>
<text transform="matrix(0.6579 -0.7531 0.7531 0.6579 241.574 109.541)" fill="#7D7D7D" font-family="'Verdana-Italic'" font-size="7">9</text>
<text transform="matrix(0.6579 -0.7531 0.7531 0.6579 244.6004 106.0762)" fill="#7D7D7D" font-family="'Verdana-Italic'" font-size="7">2</text>
<text transform="matrix(0.6579 -0.7531 0.7531 0.6579 247.4102 102.5557)" fill="#7D7D7D" font-family="'Verdana-Italic'" font-size="7">0</text>
<text transform="matrix(0.6579 -0.7531 0.7531 0.6579 250.2105 98.8945)" fill="#7D7D7D" font-family="'Verdana-Italic'" font-size="7">0</text>
<path fill="none" d="M77.1,33.8c3.6,1.4,6.3-4.4,10-5.8c8.7-3.3,17.3-13.3,26-9.9"/>
<text transform="matrix(0.8965 -0.4431 0.4431 0.8965 88.4156 30.2891)" fill="#7D7D7D" font-family="'Verdana-Italic'" font-size="7">9</text>
<text transform="matrix(0.8965 -0.4431 0.4431 0.8965 92.6292 28.2066)" fill="#7D7D7D" font-family="'Verdana-Italic'" font-size="7">4</text>
<text transform="matrix(0.8965 -0.4431 0.4431 0.8965 96.442 25.7645)" fill="#7D7D7D" font-family="'Verdana-Italic'" font-size="7">0</text>
<text transform="matrix(0.8965 -0.4431 0.4431 0.8965 99.9857 23.4551)" fill="#7D7D7D" font-family="'Verdana-Italic'" font-size="7">0</text>
<g>
	<g>
		<polyline fill="none" stroke="#7D7D7D" stroke-miterlimit="10" points="85.2,341.6 85.2,348.7 275.4,348.7 275.4,341.7 		"/>
		<line fill="none" stroke="#7D7D7D" stroke-miterlimit="10" x1="180.5" y1="341.4" x2="180.5" y2="348.7"/>
		<line fill="none" stroke="#7D7D7D" stroke-miterlimit="10" x1="161.2" y1="349.2" x2="161.2" y2="343.7"/>
		<line fill="none" stroke="#7D7D7D" stroke-miterlimit="10" x1="142.4" y1="349.2" x2="142.4" y2="343.7"/>
		<line fill="none" stroke="#7D7D7D" stroke-miterlimit="10" x1="123.3" y1="349.2" x2="123.3" y2="343.5"/>
		<line fill="none" stroke="#7D7D7D" stroke-miterlimit="10" x1="104.6" y1="349.2" x2="104.6" y2="343.7"/>
	</g>
	<text transform="matrix(1 0 0 1 83.7835 339.1468)" fill="#7D7D7D" font-family="'Verdana'" font-size="8">0</text>
	<text transform="matrix(1 0 0 1 174.2946 339.1468)" fill="#7D7D7D" font-family="'Verdana'" font-size="8">0.5</text>
	<text transform="matrix(1 0 0 1 258.3415 339.1468)" fill="#7D7D7D" font-family="'Verdana'" font-size="8">1 mi</text>
</g>
</svg>
