<?xml version="1.0" encoding="utf-8"?>
<!-- Generator: Adobe Illustrator 17.1.0, SVG Export Plug-In . SVG Version: 6.00 Build 0)  -->
<!DOCTYPE svg PUBLIC "-//W3C//DTD SVG 1.1//EN" "http://www.w3.org/Graphics/SVG/1.1/DTD/svg11.dtd">
<svg version="1.1" id="Layer_2" xmlns="http://www.w3.org/2000/svg" xmlns:xlink="http://www.w3.org/1999/xlink" x="0px" y="0px"
	 viewBox="0 0 360 360" enable-background="new 0 0 360 360" xml:space="preserve">
<g>
	<defs>
		<rect id="SVGID_1_" width="360" height="360"/>
	</defs>
	<clipPath id="SVGID_2_">
		<use xlink:href="#SVGID_1_"  overflow="visible"/>
	</clipPath>
	<path clip-path="url(#SVGID_2_)" fill="none" stroke="#4E9BD7" stroke-miterlimit="10" d="M223.9,110.4c-0.1,0.1-0.1,0.3,0,0.5
		c0.2,0.2,0.5,0.3,0.7,0.5c0.1,0.1,0.3,0.2,0.4,0.3c0.3,0.2,0.4,0.6,0.5,0.9"/>
	<path clip-path="url(#SVGID_2_)" fill="none" stroke="#E1E1E1" stroke-miterlimit="10" d="M14.9,494c-0.8-8-6.2-16.2-3.8-24
		c0.6-2.1-2.9-0.5-6,0c-1,0.2-3.1-0.6-4-1c-12.3-5.5,5.1-20.2,8-30c1.5-5.2-4.7-7.2-8-11c-1.9-2.1-1.7-4.2-3-6c-1.7-2.3-5.1,0.1-7-2
		c-5.3-5.8-10-12.8-11-20c-0.4-3,3.1-3.9,5-6c4.3-4.8,3.7-11.2,8-17c3.8-5.2,9.4-7.4,13-12c0.9-1.1,0.1-2.9,1-4
		c3.6-4.6,10.9-10.5,7.2-13.9c-0.8-0.7-2.4-1.3-2.4-2.4c0-1.1,0.6-2.2,0.5-3.3c-0.1-2.4-2.8-3.8-5.1-4.6c-0.7-0.2-1.4-0.5-2-0.2
		c-0.4,0.2-0.8,0.6-1.2,0.9c-1.3,0.8-2.8-0.2-4.2-0.8c-3.4-1.7-7.5-1.8-10.9-0.2c-1.3,0.6-2.6,1.4-4,1.4c-0.9,0-1.8-0.3-2.7-0.6
		c-3.1-1-6.5-1.3-9.8-0.9"/>
	<path clip-path="url(#SVGID_2_)" fill="none" stroke="#E1E1E1" stroke-miterlimit="10" d="M-25.9,260.3c6.8-0.6,13.5-2.8,19.3-6.5
		c2.9-1.8,5.5-3.9,8.5-5.5c2.8-1.4,5.8-2.3,8.9-3.2c6.1-1.8,12.1-6.6,18.3-5.3c11.2,2.4,14.5,18.2,15.7,29.5
		c1.2,11.4-2.2,23.2-9.2,32.2c-2,2.6-4.3,5-5.7,7.9c-2.6,5.8-1.2,12.4-0.4,18.7c2.2,17.6-1.4,36-10.3,51.4c-1.1,2,0.4,4.4-0.8,6.3
		c-2.2,3.5-8.9-1.9-11.7,1.1c-1.7,1.9-2,4.7-1.5,7.2c1.5,7.2,8,12.1,11.6,18.4c1.7,3.1,2.8,6.5,3.8,9.8c7.8,26.1,15.3,53,12.9,80.1"
		/>
	<path clip-path="url(#SVGID_2_)" fill="none" stroke="#E1E1E1" stroke-miterlimit="10" d="M47.5,497.1c3.7-6.9-1.1-15.1-3.9-22.5
		c-2.3-6.3-3.1-13.1-4.1-19.7c-2.7-18.5-21.2-37.4-13.4-54.4c2-4.4,9,2.1,13.5,3.7c7.2,2.7,15.2-0.3,22.3-3.3
		c1.3-0.6,2.8-1.2,3.5-2.4c0.5-0.8,0.6-1.7,0.7-2.6c0.7-4.8,6-11.6,2-14.3c-5.4-3.6-12.7-0.2-18-3.9c-3.5-2.4-7.2-5.1-8.7-9.1
		c-2.7-7.5,3.4-15.5,2.4-23.3c-0.5-3.4-2.3-6.4-3.2-9.7c-2.2-8.1,1.3-16.7,5.7-23.8c4.5-7.1,10-13.7,12.8-21.6
		c3.1-8.9,2.3-18.9-0.6-27.9c-2.9-9-7.8-17.2-12.9-25.2c-3.5-5.4-4.5-14.2-10.7-15.9c-26.5-7.4-50.3,22.2-75.4,33.3"/>
	<path clip-path="url(#SVGID_2_)" fill="none" stroke="#E1E1E1" stroke-miterlimit="10" d="M-29.3,230c17.7-1.2,35-8,48.9-19.1
		c6.6-5.3,13.5-12,22-11.6c5.3,0.2,10.3,3.6,12.6,8.3c1,2.1,1.5,4.5,2,6.8c4.5,21.9,9.2,46.3,27.2,59.4c5.3,3.9,12,7,14.5,13.1
		c1.5,3.8,1.2,8.1,0.1,12c-2.1,7.6-7.1,14.4-13.7,18.9c-2,1.4-4.6,3.5-3.6,5.7c0.4,1,1.4,1.5,2.4,2c10.8,5.6,24,9.4,29.7,20.1
		c1.9,3.5,2.9,7.7,5.9,10.2c1.3,1,2.9,1.9,3.2,3.5c0.2,1.2-0.4,2.4-1.1,3.4c-2.2,3.6-4.4,7.2-6.7,10.8c-4,6.5-8.1,13.1-13.2,18.7
		c-12.5,14-31.4,22.1-50.2,21.5c-1.3,0-2.7-0.1-3.9,0.4c-3.1,1.4-3,5.7-2.5,9.1c1.4,9.4,2.9,18.9,5.2,28.2
		c3.7,15.1,9.6,30.2,7.8,45.6"/>
	<path clip-path="url(#SVGID_2_)" fill="none" stroke="#E1E1E1" stroke-miterlimit="10" d="M101.3,498.2c0.7-0.3,0.2-1.3-0.2-1.9
		c-2.1-2.6-2.2-6.2-2.1-9.5c0-3.2,0.1-6.4,1.5-9.2c2.5-4.8,9.2-6.9,13.9-4.3c0.8,0.4,1.6,1,2.5,0.8c1.7-0.4,2.4-3.6,4.1-2.9
		c0.3,0.1,0.5,0.3,0.7,0.5c2.9,2.7,5.9,5.5,7.5,9c0.5,1.1,0.9,2.3,1.3,3.5c1.4,4.1,2.7,8.3,4.1,12.4"/>
	<path clip-path="url(#SVGID_2_)" fill="none" stroke="#E1E1E1" stroke-miterlimit="10" d="M442.4,497.9c2.3-2.3,4.6-4.5,6.7-7
		c10.8-12.8,15-30.9,10.8-47.1c-0.5-1.9-1.4-4-3.2-4.5c-1.1-0.3-2.3,0.1-3.5-0.3c-2.9-0.9-2.4-5-2.5-8c-0.2-6.2-5.8-11.4-11.8-12.9
		c-6.1-1.5-12.5-0.1-18.4,2c-3,1.1-5.9,2.3-9.1,2.7c-7.9,1-15.3-3.6-23-5.7c-6.1-1.6-12.6-1.6-18.7,0.1c-3.6,1-7.7,2.5-10.8,0.4
		c-1.3-0.9-2.1-2.2-3-3.5c-2.2-3.5-4.5-7.1-6.7-10.6c-0.8-1.3-1.6-2.6-1.9-4.1c-0.3-1.5,0.1-3,0.4-4.5c1.5-6.9,7.3-14.1,4.5-20.6
		c-1.2-2.8,0-6.2-2.3-8.2c-1.7-1.5-4.3-1.4-4.4-3.6c-0.1-2.2,1.1-4.3,2.1-6.3c4.8-9.4,5.7-20.8,12-29.3c8-10.6,22.2-13.8,34.5-18.8
		c7.4-3,14.5-16.3,21-11.6c4.7,3.4,2.8,11.5,8.3,13s11.5-0.3,16.6-3c7.4-3.9,18.1-14.1,11.8-19.5c-4.1-3.5-12.6-0.9-14.9-5.7
		c-1-2.1,3-6.2,0.8-7.1c-3.4-1.4-6.6,6.6-9.6,4.5c-5.6-4,2-13.5,7.1-18.1s11.5-7.9,15.5-13.6c1.9-2.7,3.1-5.8,5.2-8.4
		c3-3.5,7.4-5.5,11.1-8.2c3.8-2.7,10.3-8.5,6.7-11.4c-5.7-4.6-12,7.7-17.3,12.7c-8.6,8.1-22.8,3-32.8,9.2c-3.6,2.2-6.7,5-10.6,3.3
		c-3.8-1.7-6.8-5.1-10.5-7s-7.3,0.2-11,2.2c-4.3,2.3-8.1,4.4-13,5.1c-7.4,1-15.1,0.2-18.2,7c-3.2,6.8-2.5,14.6-3.2,22
		c-1.1,11.2-2.8,25.3-12.6,30.7c-4.6,2.5-9.5,4-13.5,7.3c-2.9,2.4-6.1,5.6-5.1,9.2c0.4,1.4,1.5,2.7,1.3,4.2
		c-0.1,1.2-1.1,2.2-1.8,3.2c-2,2.9-2,6.7-2.8,10.2s-3.4,8.4-6.7,7.1c-6-2.2-13.5-2.5-16.7,3.1c-0.6,1.1-1.1,2.3-1.9,3.2
		c-1.1,1.2-2.7,1.9-4.4,2c-6.3,0.4-13.2-10.5-7.5-13.2c1.1-0.5,2.7-0.4,3.7,0.3c1,0.7,0.6,3,1.8,2.8c4.8-0.9,4.6-12.8-0.2-14.1
		c-3.9-1.1-4.7,6-8.6,5.1c-9.2-2.2-19,0.4-28.1-2c-2.9-0.8-5.7-1.7-8.6-2.7c-3.6-1.3-7.4-2.6-10-5.4c-4.7-5-4.5-13-8.6-18.5
		c-4.3-5.7-12.4-7.2-19.5-6.3s-13.8,3.7-20.9,4.8c-2.2,0.3-4.5,0.5-6.4-0.6c-2.8-1.5-5.8-0.4-8-2.7c-3.1-3.4-3.4-21.7-5.1-32.5
		c-0.5-3.2-1.1-6.5-3.2-8.9c-1.3-1.5-3.9-2-4.3-3.9c-0.4-1.9-1.3-4.1-2.8-5.4c-0.5-0.4-1.1-0.7-1.6-1.2c-0.8-0.8-1.1-2-1.7-2.9
		c-2.9-4.5-6-12-10-13.1c-4.2-1.2-5.5,6.7-7.4,10.6c-5.7,11.3-9.7,23.4-12.1,35.7c-0.5,2.5-0.9,5-1,7.5c-0.2,8.9,4.8,17.8,12.6,22.3
		c3.4,1.9,7.2,3.1,10.9,4.2c3.5,1,7,2,10.4,3.1c4.9,1.4,9.8,2.9,14.3,5.4c9.2,5.1,15.7,14.1,19.3,23.9s4.5,20.4,4.6,30.9
		c0,6.2-0.9,13.6-6.3,16.5c-2.3,1.2-4.9,1.4-7.5,1.8c-5.3,0.8-10.5,2.6-15.6,4.4c-2.2,0.8-3.5,2.5-4.6,4.5c-1,1.8-3.9,2.8-4.3,4.9
		c-0.1,0.6-0.1,1.2-0.5,1.6c-0.3,0.4-0.8,0.5-1.3,0.6c-2.9,0.7-5.8,1.4-8.6,2.2c-0.9,0.2-1.7,0.4-2.6,0.3c-0.8-0.1-1.5-0.5-2.3-0.8
		c-2-0.7-4.1-0.4-6.2-0.4c-1.6,0-3.2-0.1-4.7-0.7c-1.7-0.7-3.1-2.1-4.7-3.1c-1.6-1-3.7-1.6-5.3-0.6c-1.8,1.1-2.1,3.5-1.9,5.5
		s0.5,4.3-0.5,6.1c-1.4,2.5-4.7,3.1-7.6,3.4c-6.7,0.7-13.4,1.4-20.1,0.6c-2.3-0.3-5.3-0.3-6,1.9c-0.4,1.2,0.2,2.5,1.2,3.3
		c1,0.8,2.2,1.2,3.4,1.5c8.4,2,17.4,1,25.2-2.7c3.2-1.5,6.4-3.6,9.9-3.1c0.5,0.1,1,0.2,1.4,0.5c0.6,0.4,0.9,1.1,1.1,1.8
		c1.3,3.3,2.6,6.5,3.1,10c0.2,1.6,0.2,3.3,0.6,4.9c0.5,2,1.6,3.9,2.5,5.8c3,6.4,3.2,13.7,5.3,20.4c3.2,10.2,10.8,18.5,15.3,28.2
		c0.2,0.4,0.1,1.2-0.4,1"/>
	<path clip-path="url(#SVGID_2_)" fill="none" stroke="#E1E1E1" stroke-miterlimit="10" d="M82.5,494.5c1.8-5.6-3.9-10.5-8.1-14.7
		c-12.3-12.6-13.9-31.9-14.7-49.4c-0.1-1.7-0.1-3.6,0.8-5c0.9-1.3,2.3-2,3.8-2.6c12.9-5.5,30-1.1,40.7-10.2
		c6.1-5.2,3.8-15.6,5.6-23.4c0.3-1.4,0.7-2.8,1.5-3.9c2.7-3.6,8.4-2.2,12.5-3.9c1.7-0.7,3.2-2.1,5.1-2.3c1.9-0.3,2.2,1.7,3.4,3.1
		c1,1.2,3.2-1.8,4.7-1c2.8,1.5,1,7.1,3.6,8.9c6.7,4.4,16.2-0.3,23.7-2.9c7.6-2.6,14.6-8.1,17-15.7c2-6.3,0.6-13-0.7-19.4
		c-1.1-5.5-2.5-11.3-6.5-15.2c-6.4-6.2-16.5-5.1-25.1-7.5c-13.3-3.7-27.5-7.7-37.1-17.7c-13.6-14.2-3.2-39.2-6.4-58.6
		c-0.3-1.9-0.7-3.8-1.6-5.4c-2.1-3.5-7.1-0.8-10.6-2.7c-15-8.3-4-34.2-10-50.2c-1.6-4.2-3.3-8.3-4-12.7c-1.3-9.2,2.3-18.4,7.2-26.3
		c4.2-6.9,10-13.5,17.9-15.5c10-2.5,20.8,3.6,26,12.5c5.2,8.9,5.8,19.8,4.4,30c-1.4,9.9,3.5,21.3-2.1,29.6c-1.1,1.6-1.2,2.8-0.1,4.3
		c4.3,5.8,8.6,11.7,13.8,16.7c3.7,3.6,7.9,6.8,11.4,10.6c9,9.9,12.7,23.3,16.9,35.9c1.7,5,3.7,10.3,8.1,13.2
		c5.3,3.5,12.2,2.5,18.4,1.3c9.7-1.8,22.2,1.7,29.1-5.4c1.7-1.8,2.8-4.3,5.3-4.1s4.5,2.6,4.3,5.1c-0.1,1.1-0.5,2.2-0.7,3.3
		c-0.5,2.6,0.2,5.2,0.8,7.7c1.4,5.3,3,10.9,6.8,14.9c4,4.3,9.8,6.2,15.6,7.3c9,1.7,19.6,1.1,25.6-5.9c6.1-7.1,5-17.7,3.9-27.1
		c-0.4-3.6,0-8.2,3.4-9.3c3-0.9,5.7,1.9,8.2,3.8c4.9,3.7,12,4.4,17.6,1.7c5.6-2.7,9.3-8.8,9.3-15c0-2.2-0.4-4.4-1-6.5
		c-1-3.8-2.6-7.4-4.7-10.7c-2.6-4.2-6-7.9-10.2-10.6c-2.7-1.7-5.7-3.1-7.6-5.5c-2.6-3.2-2.9-8.2-0.6-11.6c2.2-3.5,6.8-5.3,10.9-4.2
		c2.3,0.6,4.3,2,6.3,3.1c12.5,6.9,29.4,4.8,39.8-4.9c2.1-2,4.1-4.3,6.7-5.5c4.3-2.1,9.4-0.8,14.1,0.1c9.1,1.7,19.3-3.8,27.7,0.1
		c3.6,1.7,6.8,3.7,10.4,2c2.4-1.1,4.4-3.4,7.1-3.2c1.3,0.1,2.6,0.9,3.9,1.1c3.8,0.6,6.7-3.1,10.1-4.9c3.1-1.6,6.8-1.5,10.1-2.7
		c3-1.1,5.6-3.1,8.3-4.8c3.8-2.5,8-4.4,12.1-6.3c9-4.1,17.9-8.3,26.9-12.4c2-0.9,4.1-1.9,6.1-2.8c6.1-2.8,12.7-12.2,18.2-8.4
		c7.7,5.4-9.7,15.5-16.3,22.3c-6.4,6.6-11,14.8-15.3,23c-1.4,2.6-2.8,5.3-4.7,7.6c-1.6,2-3.6,3.7-5.5,5.5
		c-8.7,8.5-14.3,19.5-19.7,30.3c-0.6,1.1-1.2,2.4-0.9,3.6c0.3,2,2.6,3.2,3.6,5c0.7,1.2,0.8,2.6,0.9,4c0.9,17.2-6.1,34.6-18.7,46.4
		c-5.1,4.8-11.9,8.8-18.7,7.5c-1.9-0.3-3.9-1.1-5.8-0.5c-1.6,0.5-2.8,1.9-4,3.1c-3.3,3.1-10,8.6-12.2,4.7c-1.2-2.1,4.7-4.3,3.5-6.4
		c-3.6-6.7-15.2-1.1-22.8-1.7c-2.9-0.2-5.8-0.4-8.6,0.2c-7,1.6-11.7,8.2-15.4,14.4c-2.6,4.4-5.3,9.3-4.2,14.3
		c1.4,6.5,3,13.6,8.1,17.7c3.3,2.7,8.9-6.5,12.2-3.9c5.1,4-0.5,13.8,4,18.4c2.9,2.9,7,4.1,10.9,5.1c2,0.5,4,1.1,6,1
		c3.5,0,6.8-1.7,10-2.9c7.4-2.9,19.1-9.7,23.5-3.1c2.3,3.5-5.5,8.3-3.6,12c2.2,4.2,9.1,6.4,13.5,4.6c6-2.5,15.3-7.3,16.1-0.8
		c0.3,2.4,3.3,4.2,3.3,6.7c0,0.8-0.4,1.5-0.7,2.3c-3.6,8.8-2.9,23.7,6.4,25.9c3.6,0.9,8.1-5.1,10.8-2.5c4.7,4.5-2.4,12.8-3.6,19.2
		c-1,5.4-2,10.9-4.4,15.8c-1,2.1-2.3,4.2-3.2,6.3c-2.3,5.4-2.5,11.6-0.6,17.1"/>
	<path clip-path="url(#SVGID_2_)" fill="none" stroke="#E1E1E1" stroke-miterlimit="10" d="M407.4,259.6c-2.9-1-5.7,1.5-8.5,2.8
		c-2.9,1.4-6.3,1.5-9.4,2.5c-8.9,2.7-14.3,11.2-19.1,19.2c-5.6,9.5-11.2,18.9-16.8,28.4c-1,1.7-3.6,4.6-1.8,5.5
		c9.2,4.8,18.1-10,27.1-15c4-2.2,8.1-4.5,11.5-7.7c2.8-2.6,4.9-5.8,7.1-8.9c3.3-4.8,6.6-9.5,9.8-14.3c1.4-2,2.8-4.1,3.2-6.5
		S409.7,260.4,407.4,259.6z"/>
	<path clip-path="url(#SVGID_2_)" fill="none" stroke="#E1E1E1" stroke-miterlimit="10" d="M384.1,280c-0.6,0.1-1.1,0.6-1.5,1
		c-1.7,1.9-3.3,3.7-5,5.6c-0.7,0.8-1.4,1.6-2,2.5c-1.4,2.4-5,4.8-3.9,7.3c2.6,5.5,9.9-6.7,13.1-12c0.5-0.8,1-1.7,1-2.6
		C385.8,280.9,385.1,279.9,384.1,280z"/>
	<path clip-path="url(#SVGID_2_)" fill="none" stroke="#E1E1E1" stroke-miterlimit="10" d="M145.6,301.1c0.8,0.1,1.7-0.1,2.4,0.1
		c0.9,0.3,1.6,0.9,2.4,1.5c3.9,2.7,11.8,5.9,14,1.7c4.6-8.6-1.3-25.4,0.2-36.4c0.4-3.1-1.9-6.6-4.9-7.2c-0.7-0.2-1.6-0.1-2.2-0.5
		c-1.2-0.6-1.5-2.2-2-3.4s-1.9-3.1-2.9-2.2c-7.1,5.6-8.6,15.9-11.5,24.4c-2.1,6.2-3.7,13.5,0,19
		C142.1,299.5,143.7,300.9,145.6,301.1z"/>
	<path clip-path="url(#SVGID_2_)" fill="none" stroke="#E1E1E1" stroke-miterlimit="10" d="M106.8,313.3c1,0.7,1.3,2,1.4,3.3
		c0.1,0.8,0.7,1.7,0.2,2.4c-1,1.8-4.3-0.2-5-2.1c-0.4-1-0.2-2.2,0.5-3C104.6,313,105.9,312.7,106.8,313.3z"/>
	<path clip-path="url(#SVGID_2_)" fill="none" stroke="#E1E1E1" stroke-miterlimit="10" d="M180.2,491.6c7.1-6.2,18-3.8,27.1-6
		c8.2-2,15.1-7.8,23.3-9.5c3.7-0.7,7.5-0.6,11.2-1.2c9.9-1.7,18-8.7,25.7-15.3c7.7-6.6,17.8-19.5,26.3-13.9c5.2,3.5,1,12.5-0.6,18.6
		c-2.9,11.2-7.3,22-13.2,32"/>
	<path clip-path="url(#SVGID_2_)" fill="none" stroke="#E1E1E1" stroke-miterlimit="10" d="M295.5,491.9
		c17.5-14.1,28.6-35.9,29.6-58.3c0.2-4-0.3-8.7-3.6-10.9c-1.3-0.8-2.8-1.2-4.4-1.4c-12.7-2.1-26.2,0-37.6,5.9
		c-8.1,4.2-15.2,10.2-23.6,13.7c-8.1,3.3-17.1,4.2-25.1,7.7c-7.5,3.3-13.8,8.9-20.5,13.8c-12.6,9.1-26.8,15.9-41.8,19.9
		c-1.2,0.3-2.6,0.6-3.8,0.1c-1-0.4-1.6-1.3-2.2-2.2c-9.5-14.1-12.3-32.5-7.6-48.8c0.5-1.6,1-3.2,2.3-4.2c3.9-3,9.4,2.1,14.2,0.8
		c2.1-0.6,3.7-2.4,5.5-3.6c7.6-5.1,18.5-0.1,26.8-3.9c9.2-4.2,10.8-16.5,9.8-26.5c-1.4-14.9-5.5-29.5-12-42.9
		c-6.5-13.2-29-26.2-21.2-38.7c5.7-9.2,21.7-0.6,32.6-0.5c3.1,0,6.6,0.3,8.6,2.7c1.4,1.7,1.7,4,2.1,6.2
		c2.6,14.2,14.5,26.3,28.8,28.9c0.8,0.2,1.7,0.3,2.5,0c1.1-0.3,1.9-1.2,2.7-2c5.8-5.1,16.5-1.6,18.3,5.9c0.5,2.2,0.3,4.6,1,6.8
		c1.5,5.1,6.7,8,11.5,10.3c5.5,2.7,12,5.4,17.6,3c8.2-3.4,15.2-21.4,20.9-14.6c7.5,8.9,0.4,23.3,0.6,34.9c0.1,6.5,0.3,13,2.3,19.1
		c3.3,9.8,11.8,17.7,21.8,20.3c14.2,3.7,28.9-2.8,43.6-3.7c17.5-1,34.3,6,50,13.8c2.1,1,4.5,2.5,4.6,4.8c0.1,1.4-0.7,2.6-1.4,3.7
		c-9.4,14.9-18.8,29.8-28.1,44.7"/>
	<path clip-path="url(#SVGID_2_)" fill="none" stroke="#E1E1E1" stroke-miterlimit="10" d="M372.2,494.7c-0.5,0.6-1.5-0.5-1.1-1.2
		s1.2-1,1.9-1.5c3-2.7,1.5-8.2-0.9-11.4c-6.7-9.1-22.5,2.2-33.8,2.1c-3.8,0-8.1,3.9-11.3,1.6c-2.1-1.5-3.7-3.7-4.3-6.2
		c-0.5-2.6,2.7-4.1,4.5-6c2.3-2.4,2.7-5.9,3.6-9.1c0.8-2.8,2.1-5.5,3.3-8.2c1.5-3.3,3.1-6.6,5.7-9.1c2.6-2.6,6.3-4.2,9.8-3.3
		c1.4,0.4,2.7,1.1,4,1.8c5.4,3.2,10.9,6.3,16.3,9.5c3.7,2.1,7.5,4.3,11.7,4.8c6.1,0.8,12-2,17.9-3.8c10.9-3.4,26.3-11.9,33.8-3.3
		c4.2,4.8-4.5,11.9-8.2,17.2c-6.7,9.6-13.4,19.3-20.1,28.9"/>
	<path clip-path="url(#SVGID_2_)" fill="none" stroke="#E1E1E1" stroke-miterlimit="10" d="M356.3,466.5c0.3,0.6,0.6,1.2,1.1,1.6
		c0.7,0.5,1.5,0.6,2.4,0.8c4.8,0.6,9.5,1.3,14.3,1.9c1.4,0.2,2.9,0.4,4.2,1c1.2,0.6,2.2,1.6,3.2,2.5c5.1,4.9,7.3,12.3,12.8,16.6
		c1.6,1.2,3.7-1.5,5-3c4.5-5.4,9-10.8,13.5-16.2c3-3.6,9.8-9.2,6.3-12.4c-6.7-6-17.8,3-26.5,5.7c-3,0.9-6.1,2-9.2,1.9
		c-9.9-0.2-17-10.8-26.9-11.9c-0.9-0.1-2,0-2.5,0.7c-0.3,0.5-0.3,1.1-0.2,1.7C354.1,460.6,355,463.7,356.3,466.5z"/>
	<path clip-path="url(#SVGID_2_)" fill="none" stroke="#E1E1E1" stroke-miterlimit="10" d="M209.3,351.9c0.1,1.5,0.6,2.9,1.2,4.2
		c1.9,4.5,3.8,9.1,7.1,12.8c2.7,3.1,6.3,5.3,8.8,8.6c5.5,7.2,4.6,17.2,3.5,26.2c-0.2,1.5-0.4,3.1-1.2,4.5c-0.9,1.5-2.4,2.5-3.5,3.9
		c-2.4,2.9-2.8,7.1-5.1,10.1c-2.7,3.7-7.8,5.3-10.2,9.2c-0.6,1-1,2.2-1.8,3.2c-1.5,1.9-4.2,2.5-6.6,2.9c-8.9,1.5-17.9,2-26.9,1.3
		c-1.1-0.1-2.3-0.1-3.1,0.6c-0.6,0.6-0.8,1.5-1,2.4c-0.3,2.4-0.3,5,0.8,7.3c2,4.2,7.1,5.8,11.7,6.2c7.2,0.6,14.5-0.7,21.1-3.8
		c3.3-1.5,6.3-3.5,9.4-5.5c9.4-6,18.7-12,28.1-18.1c3.5-2.3,7.1-4.6,10.4-7.1c2.6-2,5.1-4.2,7.8-6.1c6.1-4.4,13.1-7.3,20.2-10.1
		c5.3-2.1,11.1-4.1,16.7-2.8c2.7,0.6,5.2,2,7.9,2.8c2.7,0.7,6.9,1.4,8-1.2c2.4-5.9-0.8-12.7-1.1-19c0-0.5-0.1-0.9-0.2-1.3
		c-0.6-1.6-2.9-1.8-4.4-0.9c-1.5,0.8-2.5,2.3-3.9,3.3c-3.6,2.8-8.8,2.2-12.9,0.4s-7.7-4.8-11.8-6.7c-3.2-1.5-6.6-2.3-9.6-4.1
		c-3-1.8-2.9-6-5.5-8.3c-4-3.6-10.5-1.5-15.4-3.7c-5.7-2.7-11.5-5.3-17.2-8c-2.6-1.2-5.5-2.6-6.8-5.2c-0.9-1.8-1-4.1-2.4-5.6
		c-1.1-1.2-2.8-1.8-3.5-3.3c-0.9-2,0.7-4.3-0.1-6.3c-0.5-1.2-1.6-1.9-2.3-2.9c-0.8-1.1-1-2.4-1.6-3.6c-1.5-3.1-5.4-4.8-8.7-3.7
		c-1.3,0.4-2.5,1.3-2.9,2.6c-0.6,1.9,0.7,3.9,1.6,5.7c0.9,1.8-0.9,3.3-0.9,5.4c0,4.3,6.9,5.8,6.6,10.1
		C209.6,349.4,209.3,350.7,209.3,351.9z"/>
	<path clip-path="url(#SVGID_2_)" fill="none" stroke="#E1E1E1" stroke-miterlimit="10" d="M221.6,356.8c-2.5,3.6,4.8,7.6,9,8.7
		c1.5,0.4,3.1,0.6,4.6,1c3.4,1,6.4,3.4,8,6.6c2,3.9,1.8,8.5,1.3,12.9c-1.7,13.3-19.9,24.8-14.4,37c1.6,3.5,7.3-2,10.4-4.2
		c12.4-8.7,28.8-12,39.2-22.9c1.4-1.5-0.4-4.2-2.1-5.4c-1.7-1.2-3.8-1.8-5.6-2.7c-5.7-2.8-9.3-8.8-14.6-12.3
		c-2.2-1.5-4.7-2.5-7.4-3.1c-1.5-0.3-3.3-0.5-4.3-1.7c-0.9-1-1.2-2.4-2.1-3.3c-1-0.9-2.5-1-3.8-1.4
		C233,364.4,225.6,351.2,221.6,356.8z"/>
	<path clip-path="url(#SVGID_2_)" fill="none" stroke="#E1E1E1" stroke-miterlimit="10" d="M-26.4,188.7
		C-9.9,182-5.3,161.4,10.1,155c8.5-3.5,16-7.9,27-3c5.5,2.5,9.7-7,15-8c1-0.2,2.1,0.4,3,0c9.1-3.8,8.7-16.2,15-23c1-1,3.5-1.2,4,1
		c0.2,1-1.2,1.4-0.3,2.1c3.4,2.5-1.1-1.1,0,0c3.1,3.3,8.5-3.9,11.3-7.1c4.3-4.8-4-7-5-10c-4-12-1.2-24.9-7-37
		c-5.2-10.9-20.7-18.8-19.4-32.2c0.9-9.4,3.2-17.6,6-26.6S68.4-7,77.6-9.2c2.5-0.6,5.2-0.7,7.8-0.9c7.4-0.7,16.1-3.6,23.2-7
		c4.4-2.1,8.7-5.9,12.8-3.8c2.7,1.3-6.5,10.7-9.7,15.8c-4.5,7.2-6.1,15.8-7.6,24.1c-0.4,2.1-0.8,4.3-0.7,6.5
		c0.1,1.9,0.5,3.9,0.5,5.8c0.1,3.3-1,6.6-2,9.8c-3.2,9.9-6.3,19.8-9.5,29.7c-1.7,5.3-3.4,11-2.2,16.5c1.2,5.5,7.6,5.7,11.9,9.4
		c4.7,4-6.5,16.1-0.8,18.3c3.6,1.4,6.3-4.4,10-5.8c8.7-3.3,17.3-13.3,26-9.9c5.5,2.1,5.4,10.5,8,15.8c2.6,5.1,5.3,11.1,2.9,16.4
		c-1,2.2-2.8,4-3.8,6.3c-1.4,3.3-0.7,7-0.3,10.6c1.4,11.2,0,22.6-2.2,33.7c-1.1,5.9-2.5,11.9-2.2,17.9c0.3,6,9.3,10.1,7.5,15.8
		c-0.3,1-0.6,2.7,0.3,3c1,0.3,2-0.1,3,0.1c2.8,0.5,2.9,4.4,3.6,7.2c1.6,6.6,9.5,9.2,14.6,13.8c10.7,9.9,6.8,28.2,14.2,40.8
		c1.1,1.9,2.6,3.8,4.7,4.7c2.3,1,4.9,0.7,7.4,0.4c12-1.6,24-3.8,35-8.7c3.5-1.6,6.9-3.4,10.1-5.5c2.5-1.7,4.5-4.1,4.8-7.2
		c0.1-1.8,1.1-3.4,1.6-5.1c1.1-3.5,2.4-7.2,5.3-9.4c2.9-2.2,8-1.9,9.4,1.5c0.9,2.3,0,5,0.9,7.2c1,2.4,4.2,3.5,6.5,2.3
		c5.9-3.3,5.9-6,1.4-6.8c-1.5-0.3-2.4-1.9-3.4-3c-1.9-2-3-4.9-2.8-7.7c0.5-7.2-5.1-10.4-9.3-14.3c-4.2-3.9-4.4-11.9-0.1-15.7
		c2.3-2.1,5.8-2.5,8.2-4.5c3.5-2.9,4.2-8.2,7.5-11.3c4.4-4.1,11.3-2.6,17.2-3.4c9.7-1.2,17.5-8.9,22-17.6c0.7-1.3,1.3-2.7,1.2-4.2
		c-0.2-3.1-3.3-5-5.5-7.1c-7.2-6.9-6.9-19.4-14.3-26.1c-1.5-1.4-3.4-2.7-3.8-4.7c-0.2-1.1,0.1-2.3,0.5-3.4
		c1.6-5.1,1.9-10.8,4.8-15.4c2.3-3.7,8.9-5.6,11.2-1.9c0.7,1.2,0.8,2.6,0.9,3.9c0.8,7.6,5.7,14.1,10.4,20.1c1.5,1.9,3,3.9,3.9,6.1
		c0.9,2.2,1.3,4.7,1.6,7.1c1.3,9.8,2.6,19.7,1.4,29.6c-0.5,3.7-1.4,7.4-1.4,11.1c-0.1,11.7,9.1,22.7,20.6,25.1s24.1-4,29.4-14.5
		c1.7-3.5,4.1-7.5,2.9-11.2c-1.8-5.4-10.3-9.5-7.7-13.3c2.6-3.8,9.1-2.6,12.7-5.6s5.9-8,4.2-12.3c-1.5-4-5.7-6.2-9.2-8.6
		s-6.9-6.5-5.6-10.6c0.7-2.1,2.4-3.6,4.1-5c2.5-2.1,5-4.2,7.5-6.3c1.2-1,2.5-2.1,4.1-2.5c4.3-1,7.6,3.5,11.1,6
		c5.5,3.9,13,3.4,19.6,2.3c17-2.7,33.6-8,49-15.5c11.1-5.4,31.3-11.8,35.1-9.3c13.2,8.7-32.8,29.3-21.6,40.5
		c13.6,13.6,38.5,0,57.8,0c1.8,0,3.8,0.1,5.1,1.3c0.9,0.8,1.3,2,1.7,3.2c2,7.4-0.3,15.4-4.2,22.1s-9.2,12.3-14,18.3
		c-5.5,7-10.3,14.6-15,22.2c-8.3,13.2-16.5,26.5-24.8,39.7c-2.2,3.5-4.4,7.1-5.9,11c-4.3,11.3-1.9,24.3-6.6,35.5
		c-2.8,6.7-7.9,12-12.7,17.4c-10.8,12.1-31.7,34.5-29.6,37.7c2.4,3.7,7.5-7.6,11.6-5.9c2.8,1.2-3.5,6.7-1.3,8.9
		c4.6,4.7,13.2,11.2,18.4,13.5c2.1,0.9,4,2.2,5.5,3.9c3.4,3.9,6.8,7.7,10.2,11.6c1.4,1.6,2.8,3.2,3.3,5.2c0.5,1.9,0.1,3.9-0.2,5.8
		c-1.6,8.4-10.3,18.6-4.8,25.2c3.3,4,12-3.8,14.5,0.8c2.5,4.7-2.4,26.6-1.4,40.4c0.7,10,2.7,20.8-2.7,29.2"/>
	<path clip-path="url(#SVGID_2_)" fill="none" stroke="#E1E1E1" stroke-miterlimit="10" d="M407.6,153.1c-3.1,0.1-7-0.1-9,2.4
		c-2.4,3,2.2,7.4,1.9,11.3c-0.1,1.1-0.4,2.1-0.3,3.2c0.1,1.1,0.9,2.2,1.9,2.2c1.9-0.1,2.1-3.2,3.8-3.9c1-0.4,2.1,0.2,3.1,0.7
		c1.8,0.8,4.5,2.1,5.7,0.5c2-2.7-1.5-6.6-3.3-9.4c-0.3-0.5-0.6-0.9-0.7-1.5c-0.2-1.2,0.8-2.4,0.5-3.6
		C411,153.5,409.1,153.1,407.6,153.1z"/>
	<path clip-path="url(#SVGID_2_)" fill="none" stroke="#E1E1E1" stroke-miterlimit="10" d="M138.7,121.4c1-1.6-2.4-4-3.8-2.7
		c-0.9,0.8-1,2.8,0,3.5C136,123,137.9,122.5,138.7,121.4z"/>
	<path clip-path="url(#SVGID_2_)" fill="none" stroke="#E1E1E1" stroke-miterlimit="10" d="M88.8,12.4c0.2-2.7,0.5-6.6-2-7.6
		c-1.5-0.6-2.5,1.8-2.9,3.4c-2,6.8-4.1,13.6-6.1,20.4c-1,3.4-2.1,7-1.9,10.6c0.2,5.4,3,10.3,5.7,14.9c1.1,1.8,2.7,4.6,4.6,3.8
		c4.1-1.8,3.7-8.1,3.1-12.5c-0.6-4.4-2.2-8.6-2.6-13.1C86.1,25.6,88.4,19,88.8,12.4z"/>
	<path clip-path="url(#SVGID_2_)" fill="none" stroke="#E1E1E1" stroke-miterlimit="10" d="M-28,147.2c4.1-0.1,5.4,1.6,11,3.3
		c9,2.7-1-0.4,0,0c2,0.8,4.1-2.6,6.1-3.5c9.7-3.8,22.5-1.6,29-10c1.4-1.8,3-3,5-5c7-7,10.9-20.1,24-17c1,0.2,2.7,3.2,4,5
		c0.8,1.1,2.1,1.4,3,1c6.5-2.7,7.9-10.3,12-16c1.3-1.8,1.5-3.8,2-6c0.5-1.9-0.1-2.9-1-4c-2.3-2.8-6-1-8-3c-1-1-2.2-2-2-3
		c3.1-12.1,2.5-24.5-5-33c-4.7-5.3-8.4-10.4-13-16c-1.8-2.2-4-4.7-6-5c-7.2-1-15.1,1-20-3C-2.3,19.6-13.3-3.3-8.9-24
		c0.7-3.1,1.7-6.2,3-8c6.6-9.2,11.2-16.3,15-26c0.8-2.1,2-4,4-5c9.1-4.8,12.4-13.4,19-21c3.7-4.3,9-4.3,14-5c10.9-1.6,24.2,1.3,33-7
		c3.1-2.9,2-3,2.4-9.6c0.2-3.6,7.5-1.3,10.6,0.6c6.9,4.2-1.9,14-5,20c-6.8,13.1-16.3,23.9-21,37c-4.3,11.9-10.5,28.8-2.8,35
		c8.4,6.8,25.4-2,40-5.8c7.3-1.9,19.3-12.5,22.1-8.7c0.8,1.2,0.2,2.8,1.4,3.5c1.2,0.8,2.7,1.4,3.2,2.7c0.7,2.1-1.4,3.9-3.2,5.2
		c-10.9,8.1-14.4,22.6-17,35.9c-2.7,13.9-5.1,27.8-7.2,41.8c-1.2,7.8-1.7,17.2,4.5,22.1c4.8,3.7,13.2,6.3,17.6,2.1
		c2.6-2.4,2.5-6.7,5-9.2c2.3-2.2,6-3.7,8.5-1.8c1.2,0.9,1.8,2.4,2.6,3.7c2.3,3.6,6.6,5.7,8.6,9.6c1.6,3.2,1.3,6.9,1.5,10.4
		c0.5,8.4,4,16.6,9.7,22.8c3.3,3.6,7.7,7.4,7.4,12.3c-0.3,3.9-3.6,6.9-5.2,10.5c-2.6,5.9-0.5,12.8-2.3,19c-1,3.6-3.3,6.7-4.9,10.1
		c-4.6,9.6-3.7,20.9-2.7,31.5c0.8,8.1,7.9,14.4,13.5,20.2c5.7,5.8,23.1,11.7,22.2,3.6c-1.4-13,10.2-28.6,33.5-25.8
		c5.1,0.6,9.7,3.4,14.9,3.5c9.5,0.2,17.3-7.3,23.8-14.3c10-10.8,20.8-23.6,18.8-38.2c-0.8-5.8-4.5-12-10.4-12.7
		c-2.1-0.3-4.6,0.1-6.1-1.4c-1.7-1.7-0.9-4.6,0-6.9c6.6-15.6,15.1-30.7,18.2-47.3c2.5-13.7,1.2-27.8-0.1-41.7
		c-0.2-2.4-0.5-4.9-2.1-6.6c-1.2-1.3-2.9-1.9-4-3.2c-1.2-1.5-1.4-3.6-1.5-5.5c-1.1-32.8,11.1-67.5,35.7-78.5
		c4.3-1.9,16.4-16.4,21.5-14.1c4.1,1.9-1.9,11.6,2.3,13.3c5.5,2.4,13.6-0.6,14.3,5.4s-4.2,13.1-7.7,18.1
		c-4.2,5.9-8.4,11.9-11.7,18.3c-5.4,10.5-8.3,22-11.2,33.4c-5.2,20.6-9.8,44.5,2.8,61.6c2.6,3.6,6,6.7,7.6,10.9
		c3,7.5-0.1,16.7,4.2,23.5c3.4,5.3,10.4,7.1,16.6,6.5c6.2-0.7,12-3.4,17.8-5.6c6-2.2,12.6-3.8,18.7-1.9c7.2,2.2,14.8,9.1,21,4.9
		c2.9-2,4-5.6,5.1-8.9c4.3-12.8,8.4-35.7,21.7-33.6c12,1.9,14.9,19.7,26.2,24.1c11.3,4.4,24.9,3.4,34.6-3.9
		c5.4-4.1,9.3-9.8,14.2-14.5c4.9-4.7,13-11.7,18.1-7.2c2.5,2.2-2.8,6.4-1.6,9.5c1.9,5.1,14.3,3.8,13,9.1
		c-2.2,9.1-21.2,10.7-19.4,19.9c0.8,4.4,8.8,0.5,12.7,2.8c3.9,2.3,5.8,5.6,9.6,8.1c6.9,4.4,15,4.6,20.2,10.9
		c20.8,25-36.3,54-46.7,84.9c-2.6,7.8-4.2,15.5-8.9,22.2s-10.4,12.7-14.6,19.8c-5.6,9.5-9.5,20-12.5,30.7
		c-4.4,15.7-19.7,28.7-25.5,39.8c-2.5,4.7,1.1,9.9,1.2,15.2c0.2,7.9,7.1,13.6,13,18.9c7.2,6.5,13.7,13.9,19.1,22
		c0.5,0.7,0.9,1.4,1.1,2.2c0.3,1.4-0.2,2.9-0.7,4.3c-1.7,4.3-7.5,9-5,12.8c1.3,1.9,3.8,2.4,4.7,4.5c5.6,12.9,4.7,27.5,6.3,41.5
		c1.5,13.1,5.3,25.9,9.1,38.5"/>
	<path clip-path="url(#SVGID_2_)" fill="none" stroke="#E1E1E1" stroke-miterlimit="10" d="M572.6,492.6c-0.1,0.6,0.2,1.9-0.3,1.8
		c-12.3-2.2,3.9-24.6,5.8-37c0.5-3.2,1-6.3,1.5-9.5c0.3-2,0.6-3.9,0.3-5.9c-0.4-2.9-2.2-5.5-2.7-8.4c-0.3-1.9-0.1-3.8-0.7-5.6
		c-0.4-1.1-1-2-1.5-3.1c-1.4-3.4,0-7.3,0.5-11c0.9-7.5-2.3-14.9-2.1-22.5c0.1-4,1.1-8.4-0.9-11.9c-0.7-1.3-1.9-2.4-2.4-3.9
		c-0.6-1.8-0.2-3.7,0.4-5.5c3.8-11.7,13-21.4,24.4-25.8"/>
	<path clip-path="url(#SVGID_2_)" fill="none" stroke="#E1E1E1" stroke-miterlimit="10" d="M549.1,491.1c2.5-1.9,4.8-4.2,6.4-6.9
		c1.4-2.4,2.3-5,3-7.6c5.9-21.7,0.7-44.6,1.2-67c0.1-5.8,0.6-11.5,1.1-17.2c0.6-7,1.2-14.1,1.8-21.1c0.4-4.7,0.9-9.6,3.5-13.6
		c1.3-2,3.1-3.6,4.7-5.5c4.2-5.1,6.4-11.5,8.2-17.9c1.5-5.4,3-11,6.3-15.4c1.4-1.9,3.1-3.5,5-4.9"/>
	<path clip-path="url(#SVGID_2_)" fill="none" stroke="#E1E1E1" stroke-miterlimit="10" d="M-26.4,119.7c3.4-0.8,6.9,0.5,10.3,1.1
		s6-3.2,9.4-2.7c4.8,0.6-2.5,10.4,0.4,14.2c4,5.2,13.8,0.4,19.1-3.5c5.5-4,7.7-11.3,13-15.5c3-2.4,6.8-3.7,9.6-6.3
		s-0.1-6.5,1.3-10.1c0.4-0.9,2.1,0.6,3,0.1c1.1-0.6-0.4-2.5,0.3-3.6c0.6-0.9,2.7,0.8,3.3-0.1c4.4-6.5,4.6-20.2-2.6-23.1
		c-1.6-0.6-2.2,2.7-3.8,3.3c-1.6,0.6-3.7,0-4.3-1.6c-0.4-1.1,0.1-2.3,0.2-3.5c0.1-2.7-2.4-4.8-4.9-5.7c-2.5-0.9-5.3-1-7.8-1.9
		c-6.2-2.3-9.6-8.7-12.5-14.7C1.8,34.1-4,22.1-9.7,10.2C-12.1,5.1-14.6,0-15.8-5.5c-1.5-6.9-4.2-15-0.6-21
		c5.2-8.7,13.8-14.8,17.6-24.2s6.6-19.3,12-27.8s14.1-15.9,24.3-16.2c4-0.1,8,0.9,12,1.3c4.9,0.5,10,0.2,14.8-0.9
		c5.6-1.3,11.7-4.6,12.6-10.3c0.3-2,0.1-4.2,1.4-5.7c0.8-0.8,2-1.2,3.1-1.5c8.5-2.3,23.6-5.5,24.6,3.3c1.9,15.7-13.5,28.6-22,41.9
		c-3.9,6.1-8.1,12.2-10.2,19.1c-2.1,6.9,1.1,13.7,2.8,20.7c0.4,1.5-1.8,3.3-0.9,4.6c3.7,5.7,13.6,2.8,20.2,0.9
		c7.1-2,13.1-3.2,19.5-6.9c2.2-1.3,7.1-3.7,9.3-5c3.1-1.8,3.5-6.7,6.7-4.9c2.3,1.3-2,5.7-0.8,8.1c0.9,1.7,3.9-1,5.5-0.1
		c7.2,4.3-5.7,14.9-11.2,21.3c-10.5,12.4-10.5,33.8-13,51.3c-1.9,12.7-5.5,26.6,4.8,26.5c5.2-0.1,1.8,5.2,7,4.7
		c9.1-0.9,11.2-24.6,18.6-19.2c8.3,6.1,8.8,17.9,13.1,27.2c5.8,12.5,2.5,29,11.8,39.3c6.8,7.4,20.8,18.1,24,17.7
		c1.8-0.2,3.8-12.2,4.9-9c2,5.7,1.9,12.2,0.5,15.7c-0.5,1.4,2.5,1.7,3,2.8c6.8,15.6,10,34.6,39.8,38.1c2.3,0.3,4.8,0.8,7,0
		c1.7-0.6,3.1-1.7,4.3-3c5.1-5,13.9-13.7,9.1-18.9c-2.3-2.5-7.1,1.3-10.3,0.1c-7.4-2.9-2.6-15,0.9-22.1c3.5-7.1,6.5-16.8,0.5-22
		c-4.1-3.6-10.9-3.2-14.3-7.5c-1.8-2.3-2.1-5.3-2.7-8.2c-3.7-20.8-30.6-45.7-15.6-60.5c4.2-4.2,12,0,17.1,2.9c1.8,1,3.5,2.3,4.2,4.3
		c0.8,2.5-0.5,5.2-1.4,7.8c-3.5,10-2.4,27.9,8.2,28.7c4.7,0.4,9.4-2.5,13.7-0.3c1.5,0.8,3.1,1.9,4.8,1.9c3.3-0.1,5-4,5.7-7.2
		c2.3-10.4,2.5-23-6-29.5c-1.5-1.2-3.3-2.1-4.4-3.7c-1.5-2.2-1.3-5.2-1-7.8c3-27.5,8.2-54.8,15.7-81.5c1-3.5,2.1-7.1,4.3-10.1
		c4-5.4,11-7.6,17.4-9.4c9.2-2.7,18.5-5.3,27.7-8c4.3-1.2,8.9-2.4,13-0.6c4,1.8,1.3,6.4,2.6,10.7c1.5,4.8,10.1,0.4,15.2,0.7
		c1.7,0.1,3.5,0.2,4.6,1.5c1.1,1.2,1.1,3,1,4.6c-0.9,12.5-6,24.2-11,35.7c-5.2,12-10.5,23.9-15.7,35.9c-4.2,9.5-8.3,20.4-3.9,29.8
		c1.9,3.9,5.1,7.1,8.2,10.1c3.3,3.2,7.3,6.6,11.8,5.6c2.2-0.5,4.2-2,6.4-1.7c2.3,0.3,3.9,2.4,6.1,3.1c2.5,0.8,5.1-0.5,7.4-1.7
		c12.1-6.3,24.8-13.1,32.1-24.7c4.1-6.6,8.2-24,13.8-18.6c4.4,4.3-7,12.5-3.9,17.9c2.5,4.4,11.1,0.8,14.2,4.8
		c4.4,5.6-0.2,15.9,5.6,20c6.3,4.4,12.7,9.1,15.6,16.2c2.4,5.9,3.8,13.5,9.9,15.7c1.1,0.4,2.3,0.6,3.4,0.9c2.6,0.8,4.7,2.7,7.2,3.8
		c7.6,3.3,16.2-1.2,23.3-5.5c2.6-1.6,5.2-3.2,6.8-5.8c3.4-5.3,1.6-13.6,6.7-17.3c5.4-3.9,13.5,0.9,19.4-2.1c1.8-1,3.3-2.6,5.1-3.6
		c1.8-1,4.6-1,5.6,0.8c0.3,0.5,0.4,1,0.8,1.4c0.8,0.8,2.1,0.3,3-0.2c2.1-1.2,4-2.8,6.2-3.7c2.2-0.9,4.9-1.1,6.9,0.3
		c1.4,1,2.2,2.7,3.4,3.9c2.7,2.5,7.1,2.2,10.4,0.6c3.3-1.6,6-4.2,9.2-6.1c3.6-2.2,7.7-3.4,11.9-3.6c0.8,0,1.8,0.1,2.2,0.8
		c0.5,0.7,0,1.7-0.4,2.4c-3.8,6.9-7.5,13.7-11.6,20.4c-4,6.6-8.4,13.2-14.4,18.2c-1.6,1.3-3.4,3.1-2.6,5c0.5,1.2,2.1,1.7,3.4,1.2
		c1.3-0.4,1.5-2.4,2.7-2.7c2.5-0.6,1.7,4.9,3.7,6.4c2.4,1.8,6.2,0.8,7.8,3.3c1.7,2.5,1.7,5.9,0.2,8.5c-7.3,12.5-7.8,28.6-12.7,42.3
		c-2.9,8.1-5.8,16.2-8.7,24.2c-0.8,2.3-1.7,4.7-3.2,6.6c-1.9,2.6-4.7,4.2-7.3,6.1c-7.7,5.5-13.8,13.2-17.5,21.9
		c-1,2.3-1.8,4.7-2.9,7c-1.7,3.6-4,6.9-6.3,10.2c-16.6,23.9-31.1,49.3-43.3,75.7c-2.8,6-8.2,10.5-10.7,16.6
		c-1.7,4.2-3.4,8.6-2.7,13.1c1,6,6.1,10.4,10.7,14.4c3.3,2.9,5.4,8.4,9.7,8.9c1.7,0.2,3.3-2.7,4.8-1.8c2.3,1.3,1.9,4.8,2.8,7.2
		c1.3,3.3,2.6,6.7,2.6,10.3c0,2.8-1,5.6-1.2,8.4c-0.3,3.5,0.5,6.9,1.2,10.3c1.2,5.5,2.4,10.9,3.6,16.4c0.4,1.6,0.7,3.3,1.4,4.9
		c0.6,1.5,1.5,2.9,2.3,4.4c3.3,6.6,3.4,14.2,5.1,21.3c1.6,6.9,4.6,13.5,8.9,19.2c1.5,2,3.4,4,5.9,4c2,0,3.7-1.3,5.6-1.6
		c2.2-0.3,3.3,2.2,5.4,3.1c3.9,1.6,8.3-3.4,9.7-7.3c0.5-1.4,0.5-2.8,0.6-4.2c0.5-13.5,1.1-26.9,1.6-40.4c0.1-3.6,0.3-7.2,1.1-10.7
		c0.6-2.8,1.7-5.6,2.5-8.4c3.1-10.6,2.8-21.8,2.9-32.8c0.1-3.7,0.2-7.6,2.2-10.8c0.8-1.4,2-2.5,2.8-3.9c0.7-1.3,1.1-2.7,1.6-4.1
		c2.8-8.5,7.4-16.5,13.6-23c1.6-1.7,3.3-3.3,4.6-5.2c1.7-2.6,2.7-5.6,4.1-8.4c3.3-6.7,9.1-11.7,14.7-16.6"/>
	<path clip-path="url(#SVGID_2_)" fill="none" stroke="#E1E1E1" stroke-miterlimit="10" d="M589.9,123.4c-4.9,2.5-4.8,9.3-4.8,14.8
		c0,19.4-9,37.5-17.9,54.8c-2.1,4.1-4.3,8.3-7.5,11.6c-2.4,2.5-5.5,4.6-7.3,7.6c-1.1,1.8-1.7,3.8-2.3,5.8
		c-4.5,13.7-12,26.2-20.5,37.9c-10.2,14.1-21.9,27.1-30.9,41.9c-9,14.9-30,44.8-13.2,49.4c2.7,0.8,5.1-3,7.6-1.6s1.3,4.9,2.9,7.3
		c2.3,3.4,7.4,4.7,6.5,8.6c-0.3,1.3-0.9,2.5-1.1,3.9c-0.3,3.2,3.7,3.5,6.2,5.5c4.1,3.2,0.4,10.4,0.6,15.6c0.1,3.3,0.3,6.7,1.9,9.5
		c1.6,2.9,5.1,5,8.2,3.9c2.4-0.8,3.8-3.2,4.9-5.5c2.3-4.7,4.2-9.7,5.5-14.9c1.1-4.1,1.8-8.3,3.7-12.1c1.4-2.7,3.3-5.1,5.1-7.5
		c13.6-18.7,20.1-42.6,37.2-58.2c6.6-6,14.8-10.7,19.6-18.3"/>
	<path clip-path="url(#SVGID_2_)" fill="none" stroke="#E1E1E1" stroke-miterlimit="10" d="M590.2,165.9
		c-3.4,6.8-6.9,13.6-10.3,20.4c-0.7,1.4-1.4,2.7-2.1,4.1c-2.5,5-5.1,10-7.6,15c-2.3,4.5-4.5,9-6.2,13.7c-0.7,2.1-1.4,4.2-2.4,6.1
		c-0.4,0.8-0.9,1.5-1.2,2.4c-0.5,1.7,0,3.4,0.2,5.2c0.7,6-2.4,11.7-5.3,17c-5.5,9.7-11.1,19.6-19.5,26.8c-3.5,3-7.4,5.5-10.3,9
		c-2.3,2.8-3.9,6.2-6,9.1c-2.4,3.4-5.5,6.2-7.7,9.7c-2.3,3.4-5.4,9-2.3,11.7c0.5,0.4,1.4-0.1,1.8,0.4c2,2.3-1.6,7.8,1.2,9.1
		c2.7,1.3,6.1-0.8,8.3,1.3c0.7,0.7,1.5,1.6,2.5,1.4c0.5-0.1,0.9-0.5,1.3-0.9c2.5-2.6,3.4-7.3,6.8-8.4c3-1,2.5,5.5,1.1,8.4
		s-4.4,9.2-1.2,8.9c7-0.6,6.8-12.3,10.2-18.4c0.7-1.3,1.4-2.6,2.5-3.6c1.2-1.1,2.7-1.7,4-2.6c1.4-1,2.6-2.4,3.7-3.7
		c5.4-6.6,10.9-13.3,16.3-19.9c0.6-0.8,1.3-1.6,2.3-2c0.8-0.4,1.8-0.3,2.6-0.8c1.1-0.6,1.6-1.8,2.2-2.8c3.9-8.1,10-15.1,17.5-20.1"
		/>
	<path clip-path="url(#SVGID_2_)" fill="none" stroke="#E1E1E1" stroke-miterlimit="10" d="M238.4,170.3c1.6-0.3,3.4-0.1,3.8-1.6
		c0.4-1.6-0.6-3.3-2-4c-1.5-0.7-3.2-0.5-4.7,0.1c-0.7,0.3-1.3,0.6-1.9,0.9c-1.1,0.4-2.3,0.4-3.2,1c-2,1.2-2.1,4.1-1.9,6.4
		c0,0.3,0,0.5,0.2,0.7c0.2,0.2,0.4,0.2,0.6,0.2C231.5,174.2,236.1,170.7,238.4,170.3z"/>
	<path clip-path="url(#SVGID_2_)" fill="none" stroke="#E1E1E1" stroke-miterlimit="10" d="M291.9,16c0.5-2.8,3.2-6.1,1.6-8.4
		c-1.1-1.6-4.2,0.8-5.8-0.3c-6.1-4.1-1-15,3-21.2c0.8-1.2,1.7-2.3,2.9-2.9c3.3-1.5,7.1,1.6,8.1,5.1c1.1,3.5,0.5,7.2,1.2,10.8
		c0.7,3.4,2.5,6.5,3.3,9.9c2.1,8.6-2.1,17.4-3,26.3c-0.6,6,0.3,12.4-2.3,17.8c-0.5,1-1.1,2-1.5,3.2c-0.3,0.9-0.4,1.9-0.5,2.8
		c-0.9,8.6-3.9,16.8-6.9,24.9c-0.2,0.5-0.4,1-0.8,1.3c-0.7,0.5-1.7,0-2.1-0.7c-0.4-0.7-0.5-1.6-0.5-2.4c-0.1-7.8,0.7-15.6,2.4-23.3
		c0.4-1.9,0.9-3.8,1-5.8c0.3-4.6-1.3-9.1-1.9-13.7C289,31.7,290.5,23.7,291.9,16z"/>
	<path clip-path="url(#SVGID_2_)" fill="none" stroke="#E1E1E1" stroke-miterlimit="10" d="M-26.2,70.2c1-1.1,2.8-1,4.1-0.3
		c1.3,0.7,2.1,2,2.8,3.3c2.3,4.2,3.7,8.8,4,13.5c0.1,1.3,0.2,2.8,1.2,3.6c0.8,0.7,2,0.7,3,0.6c4.4-0.2,10.1,1.6,13.1-1.6
		c1.9-2-1.6-5.2-3-7.6c-2.4-4.1-3-9-3.9-13.7c-0.6-3.2-1.3-6.4-2.1-9.5c-0.4-1.5-0.8-3.1-1.8-4.4c-0.8-1-2-1.7-2.8-2.8
		c-0.9-1.2-1.2-2.8-1.4-4.3c-1.6-10.2-2.8-20.8-7.7-30c-2.4-4.6-6.3-9-11.4-9.5"/>
	<path clip-path="url(#SVGID_2_)" fill="none" stroke="#E1E1E1" stroke-miterlimit="10" d="M49.9-26.1c1-2.5,2.4-4.8,3.4-7.3
		c1.8-4.4,2.7-9.2,4-13.8c1.6-5.9,3.7-11.6,6.4-17c3.5-7.1,12.7-14.6,9.4-21.7c-1.4-2.9-6.1,0.2-9.1,1.3c-5.1,1.9-10.7,1.9-15.8,3.9
		c-8.4,3.3-13.6,11.4-19.8,17.9c-5.4,5.7-12,10.5-16.4,17c-2.6,3.8-4.4,8.1-7.2,11.8c-1.2,1.5-2.6,3-3.2,4.9
		c-0.4,1.1-0.5,2.3-0.5,3.5C0.9-14.1,7.1-2.5,16.8,3.8c0.7,0.5,1.5,1,2.4,1.1c1.7,0.3,3.3-0.7,4.8-1.6c9-5.7,18.6-11.9,23-21.7
		C48.1-20.8,48.9-23.5,49.9-26.1z"/>
	<path clip-path="url(#SVGID_2_)" fill="none" stroke="#E1E1E1" stroke-miterlimit="10" d="M19.6-40.4c1.1,1.2,3.1,0.4,4.6-0.1
		c10.3-3.4,18.8-11.6,22.4-21.8c0.6-1.7,1.1-3.5,2.1-5c0.6-0.9,1.4-1.8,1.7-2.8c0.3-1.1-0.2-2.5-1.3-2.6c-0.9-0.1-1.6,0.6-2.2,1.2
		C40.8-65.4,34.9-59.2,29-53c-1.6,1.7-3.2,3.4-5,4.8c-1.2,1-2.6,2-3.6,3.3S18.5-41.5,19.6-40.4z"/>
	<path clip-path="url(#SVGID_2_)" fill="none" stroke="#E1E1E1" stroke-miterlimit="10" d="M3.7-72.6c-0.4-6.5,3.1-12.6,6.5-18.2
		c0.9-1.5,1.9-3,3.1-4.3c1.7-1.9,3.8-3.2,5.8-4.9c1.7-1.4,3.4-3.1,5.5-3.8c2-0.6,4.2-0.2,6.3,0.3c8.5,1.8,17,3.9,25.6,3.3
		c3.7-0.3,7.3-1.1,10.8-2.4c0.8-0.3,1.6-0.6,2.1-1.3c1.1-1.5,0.1-3.5,0.3-5.3c0.2-1.9,1.8-3.3,2.7-5c1.7-3.2,1.1-7.2,0.3-10.8"/>
	<path clip-path="url(#SVGID_2_)" fill="none" stroke="#E1E1E1" stroke-miterlimit="10" d="M-4.7-55.7c-0.9-4.9,2.2-9.6,2.6-14.6
		c0.3-3.7-0.9-7.5-0.1-11.1c0.5-2.5,1.9-4.6,3.3-6.8c3.7-5.6,7.3-11.2,11-16.8c1-1.5,2-3.1,3.4-4.3c2.6-2.3,6.3-2.9,9.8-2.8
		s6.9,0.8,10.4,0.9c3.7,0.1,7.3-0.4,11-1c3.1-0.5,6.3-1,9.4-1.4c2.1-0.3,4.3-0.7,6.1-1.8c3-1.8,4.5-5.3,5.8-8.6
		c0.2-0.4,0.3-0.8,0.2-1.2s-0.8-0.6-1-0.2"/>
	<path clip-path="url(#SVGID_2_)" fill="none" stroke="#E1E1E1" stroke-miterlimit="10" d="M110.1-123.6c-1,3.1-3.1,6.7-1.7,9.7
		c1.3,2.9,6.8-0.3,8.9,1.9c1.7,1.8,0.5,4.7-0.8,6.8c-2,3.3-4,6.6-6.4,9.6c-1.6,2-3.3,4-4.9,6c-3,3.9-5.3,8.3-7.5,12.7
		c-4.8,9.4-9.5,19-11.7,29.2c-0.7,3.4-1.2,6.9-0.7,10.4c0.1,0.7,0.3,1.4,0.8,1.8c1.3,1,3.6-0.6,4.7,0.6c0.4,0.5,0.4,1.1,0.6,1.7
		c0.9,2.9,5,2.7,7.9,1.9c4.7-1.4,20.3-7,25.4-9.2c4.3-1.8,11.7-6.3,12.7-6.1c2.7,0.7,0.7,5.6,1.1,8.4c0.2,1.5,1.3,2.1,2.7,2.8
		c6.5,3.2-8.1,22.6-12.9,33.8c-5.7,13.2-7.3,27.9-7.5,42.3c0,3.1-1.2,8,1.6,9.3c1.8,0.8,2.9,2,4.9,2.2c3.2,0.2,2.1-7.5,5.3-8.1
		c4.5-0.8,9.3,2.5,12.7-0.5c0.6-0.5,1.1-1.1,1.7-1.5c0.8-0.5,1.7-0.7,2.6-1.1c3.6-1.2,5-8,8.6-6.9c9.6,2.9-11.6,21.8-5.2,29.7
		c3.4,4.2,6.2,5.7,8.3,10.7c0.5,1.3,2.9-0.3,4,0.5c4.5,2.9,3.7,10.1,7.5,13.9c2.6,2.6,6.2,7.2,9.4,5.4c1.9-1.1,0.1-4.4,0-6.7
		c-0.1-2.2,1.1-4.9,3.3-5.1c1.2-0.1,2.2,0.6,3.4,0.7c1.5,0.2,2.9-0.5,4.3-1.1c6.2-2.6,14.9,3.1,19.9-1.5c7.5-6.8-3.1-20-4.6-30
		c-0.6-3.6-1.1-7.3-0.1-10.8c1.3-4.7,5.1-8.1,8.7-11.4c0.7-0.6,1.4-1.2,2.2-1.4c0.9-0.2,1.7,0.1,2.6,0.4c6.4,1.7,13.4-0.1,19-3.7
		c5.5-3.7,9.8-9,13.3-14.6c1.5-2.4,2.9-5,3.6-7.7c0.8-3.1,0.7-6.4,0.9-9.6c0.4-8.4,2.3-16.6,4.1-24.7c0.4-1.8,0.8-3.5,1.7-5.1
		c0.9-1.6,2.3-2.9,3.5-4.4c3.2-4.2,4.3-9.5,6.5-14.3s7-6.7,11.7-9.1c4.1-2.1,5.7-7,10.2-7.6c4.9-0.7,9.9,0.9,14.8,0.2
		c2.8-0.4,5.4-1.6,7.6-3.4c0.9-0.7,1.7-1.6,2.8-2.1c1.1-0.6,2.4-0.8,3.6-1c7.4-1.1,18.5-4.8,22.1,1.8c1.9,3.6-1,8.1,0.2,12
		c0.2,0.5,0.4,1,0.8,1.4c0.8,0.7,2.1,0.4,3.2,0.2c2.3-0.3,4.6,0.3,6.8,0.9c4.5,1.3,9.6,3,11.4,7.3c2.2,5.1-0.9,12.1,3.2,15.7
		c0.5,0.4,1.1,0.8,1.3,1.4c0.2,0.5,0.1,1.2,0,1.7c-1.6,8-5.8,15.2-7.4,23.2c-0.5,2.6-0.8,5.3-1.2,7.9c-0.5,3.1-1.3,6.1-2.1,9.1
		c-1,3.9-2,7.7-3,11.6c-0.8,3.1-1.6,6.3-3.1,9.1c-2,3.7-5.1,7.1-5.1,11.3c0.1,4.4,4.4,8.2,8.7,7.7c0.8-0.1,1.5-0.3,2.3-0.4
		c4.5-0.5,9.3,2.3,13.4,0.4C378,41.9,379,41,380,40c6.5-6.4,13.2-12.6,20.2-18.5c5.3-4.6,11-9.1,17.8-10.6c2.6-0.6,6.4-3.4,8.1-1.3
		c5.7,7.1-13.8,19-8.2,26.2c1.9,2.3,6-0.6,9,0.2c2.9,0.7,5.7,2.6,6.7,5.5c0.5,1.6,0.5,3.2,0.6,4.9c0.3,4.2-0.2,11,3.9,11.8
		c1.4,0.3,2.9,0.2,3.5,1.6s0.5,2.9,1,4.3c0.5,1.3,1.4,2.5,2.3,3.6c3.6,4.3,7.3,8.8,12.1,11.8c4.3,2.7,9.4,4.1,14.3,5.3
		c3.9,1,8,1.8,11.9,1c8.3-1.8,12.9-10.5,17.6-17.6c0.9-1.4,2-2.9,3.6-3.3c1.2-0.3,2.5,0.1,3.7,0.4c2.5,0.8,5,2.5,7.6,2.4
		c4.3-0.3,7.9-3.7,11.8-5.5c2.7-1.3,5.8-2.5,8.5-1.4c1,0.4,1.8,1,2.8,1.3c1.8,0.5,3.7-0.5,5.3-1.5c6.1-4.2,11-11.1,18.4-11.5
		c3.9-0.2,7.5,1.6,11.2,2.8c2.2,0.7,4.6,1.3,6.9,1.8c3.8,0.9,7.6,1.7,11.5,1.8"/>
	<path clip-path="url(#SVGID_2_)" fill="none" stroke="#E1E1E1" stroke-miterlimit="10" d="M119.3-122.8c-2.2,1.8-2.5,4.2-0.2,5.8
		c3.6,2.6,13.1,1,10,7c-9.8,19.1-29.5,34.6-32,58c-0.2,2-1.1,5.2,0,6c1.8,1.3,3.7,2.2,5,4c0.8,1.1,0,2.9,1,3c7.2,1,14.7-3.9,22-6
		c5.8-1.7,12.5-4.5,19-3c1,0.2-1.5,4.6-0.1,6c4.3,4.4-1-1.3,0,0c1.3,1.7,2.2,2.1,2.1,3c-1.5,23.1-22.7,62.8-11,66.9
		c3.3,1.2,3.9-7.4,8-7.9c1-0.1,1.7,0.5,2,1c1.7,2.7-3.7,8.3-1,10c6.8,4.3,17.9-14,21-2c2.9,11-4.3,36.2,10,33.7
		c3.5-0.6,1.5,0.3,2.8,2.8c1.3,2.5,4.5-0.3,7.2-1.5c1.3-0.6,2-2,4-2s3.6,2.5,5.4,0.8c3.4-3.4,3.3-1.2,7.5-3.5
		c7.9-4.4-2.2-19.5,3.1-26.2c8.4-10.5,22.2-9.9,33-16c1.2-0.7,2.1-1.9,3-4c4.6-10.8,8.2-21.7,11-33c5.1-20.4,13.9-36.9,27-52
		c1.9-2.1,4-6,7-8s5.9-4.2,9-6c1.9-1.1,3.8-2.5,6-2c1,0.2,1.7,0.5,2,1c3,4.5,5.1,8.2,10,5c7.2-4.7,12.1-11.4,21-10c5,0.8,9.7,2,15,3
		c2.9,0.6,3.5,5,4,9c1,8.2,10.6,7.8,17,13c7,5.6,14.4,9,20.1,16c3,3.7,0.1,9.6-1,14.2c-1.1,4.3-2.1,8.6-3.8,12.7
		c-1.7,4.2-4,8.2-4.9,12.7c-0.4,2.3-0.4,4.6-0.4,7c0,4.3,0.1,8.6,0.3,13c0,0.9,0.1,1.8,0.8,2.4c1.1,0.8,2.6,0,3.7-0.7
		c6.5-4.2,14.4-5.5,22-6.7c2.6-0.4,5.2-0.8,7.9-0.7c6.4,0.3,15.2-1.8,18.8,3.5c4.7,6.8-12.7,18.8-6.2,24c2.2,1.7,5.5-1.4,8.1-0.4
		c1.8,0.7,3.6,0.1,5.3,1c6.9,3.5,2.8,15.5,7.8,21.4c1.2,1.4,1.7,2.8,2.8,4.3c2.1,3,4.2,6,7.1,8.3c3.3,2.6,7.5,3.9,11.6,4.7
		c8.4,1.7,17.7,1.3,25-3.3c3.9-2.5,7.2-6.1,11.6-7.5c2.3-0.7,4.8-0.8,7.2-0.8c6.8,0.1,14.2,0.7,19.9-3.1c1.1-0.7,2.1-1.6,3.3-2
		c1.2-0.4,2.8-0.1,3.5,1c0.4,0.7,0.4,1.6,1,2.1c0.9,0.7,2.1-0.1,3-0.8c3.1-2.7,6.3-5.5,9.4-8.2c2-1.7,4.1-3.6,6.8-3.9
		c2.2-0.3,4.5,0.5,6.6,1.1c8.5,2.4,17.4,2.2,26.2,2"/>
	<path clip-path="url(#SVGID_2_)" fill="none" stroke="#E1E1E1" stroke-miterlimit="10" d="M140.1-123.6c3.4,2.3,1.4,7.5-0.8,10.9
		c-8.5,13-17,26-25.4,39c-4,6.2-8.2,13.3-6.6,20.5c0.7,3.1,1,8.3,4.2,8.5c7.9,0.4,18.8-8,29.8-9.3c3.1-0.4,7.4-1.1,8.1,1.9
		c0.3,1.1-0.2,2.4,0.1,3.5c0.7,2.5,4.5,2.5,6.3,4.4c1.7,1.7,1.3,4.6,0,6.6c-1.3,2-3.6,3.1-5.1,5c-3.9,5.1-8.7,22.5-7.2,33
		c0.3,2-1.3,4.7,0.6,6.6c2.1,2.2,5.9-1.8,8,0.4c2.1,2.2,0.8,6.5,3.1,8.4c4.6,3.7,12,1.1,17.2,4c1,0.6,2.1,1.2,2.7,2.3
		c2.1,3.5-2,8-0.6,11.8c0.8,2.1,3,3.3,5,4.3c2.9,1.4,5.8,5.7,8.6,4.2c2.4-1.3,3.8-1.6,6.2-3c7.1-4.1,7.2-14.4,14.2-18.7
		c7.3-4.5,15.2-8.5,21.1-14.7c8.6-9,12.2-21.5,16.5-33.2c6.9-18.6,16.2-36.3,27.7-52.5c5.7-8.1,13.1-16.4,23-17.4
		c2.1-0.2,3.6-0.6,5.7-0.2c2.1,0.5,4.1,2.1,4.3,4.2c0.1,0.9-0.1,1.7,0.1,2.6c0.4,1.8,2.5,2.7,4.3,2.6s3.4-1.2,5-2.2
		c12.4-7.7,25.9-13.5,40-17.3c2.7-0.7,7-2.8,8.4-0.3c1.3,2.4-3,5.4-1.7,7.9c0.5,0.9,1.4,1.5,1.7,2.4c0.5,1.5-0.7,2.9-1.6,4.2
		c-2.7,4.3-1.2,10.7,3.2,13.4c0.7,0.4,1.5,0.8,2.2,1.3c1.2,1,1.8,2.5,3.2,3.1c0.7,0.3,1.5,0.3,2.3,0.4c4.5,1,5.9,8.2,10.5,8.3
		c0.9,0,1.9-0.3,2.8,0.1c1.2,0.5,1.6,1.8,2.5,2.7c1.5,1.6,4,1.6,6.1,2.2c2.3,0.6,4.3,2,6.3,3.3c1.5,1,3.1,2.1,4.6,3.1
		c0.7,0.5,1.4,0.9,1.9,1.6c1.6,2.2,0.3,5.1-0.8,7.6c-1.7,3.8-2.9,7.8-3.7,11.9c-0.3,1.7-0.5,3.4-0.7,5c-0.7,5-5.4,11.3-2,15
		c2,2.1,4.1,4,7,4c1.7,0,2.6-2.5,4.4-2.3c1.7,0.2,3.3,1.6,3.7,3.3c0.4,1.4,1.6,0.8,2.9,1.5c6.4,3.4,15.8,0.8,20.5,6.3
		c5.1,6.1-8.3,15.1-6.4,22.8c0.6,2.7,5.1-0.8,7.8-0.9c2.9-0.2,5.1,2.7,5.8,5.5c0.7,2.8,0.7,5.8,1.9,8.4c0.7,1.5,0.8,3.5,2.1,4.5
		c3,2.5,6.9,2.9,9.5,5.8c2.2,2.5,4.4,5.1,6.6,7.6c1.4,1.6,2.8,3.3,4.7,4.2c3,1.5,6.6,1.1,9.9,0.7c4.6-0.6,9.3-1.2,13.5-3.4
		c2-1.1,3.9-2.5,6-3.4c6.3-2.7,13.6-0.7,20.3-1.9c6.3-1.2,12.4-5.2,18.6-3.4c0.8,0.2,1.6,0.6,2.4,0.6c1.4,0.1,2.8-0.8,4-1.5
		c13.9-7.8,31.6-1.8,46.8-6.6"/>
	<path clip-path="url(#SVGID_2_)" fill="none" stroke="#E1E1E1" stroke-miterlimit="10" d="M149.8-123.8c-2.3,6.6-5.6,12.8-9.8,18.3
		c-1.1,1.5-2.3,2.9-3.3,4.5c-1.9,3-3,6.5-4.3,9.9c-2.4,6.3-5.3,12.5-8.8,18.3c-1.5,2.5-3.1,5-3.6,7.8c-0.7,4-0.9,9.7,2.6,11.7
		c5.5,3.1,12.7-1.6,18.5-4.2c3.3-1.5,7-3.6,10.4-2.3c0.6,0.2,1.2,0.6,1.5,1.2c0.3,0.5,0.3,1.1,0.3,1.6c0.5,3.6,4,5.8,5.8,8.9
		c2.6,4.4,1.7,9.9,0,14.7c-1.7,4.8-4.2,9.4-4.6,14.4c-0.3,3.7,0.5,7.3,1.3,10.9c0.4,1.6,0.7,3.2,1.8,4.4c0.4,0.5,1,1,1.3,1.6
		c0.4,0.9,0.1,2,0.6,2.8c0.4,0.5,1.1,0.8,1.5,1.2c0.8,0.9,0.7,2.3,1.1,3.4c0.9,2.2,3.7,2.8,6.1,2.7c2.4-0.1,5,0,6.8,0.2
		c1.5,0.2,4.6,0.4,6.9,0.4c3.3,0.1,4.4,4.8,7.7,5.3c4.3,0.7,7.2-4.5,11.4-5.8c3.7-1.2,6.6-4,9.9-6.1c3.8-2.3,7.7-4.7,10.7-8
		c1.3-1.4,2.4-3,4-4.1c1-0.7,2-1.2,3-1.9c1.4-1.2,2.4-2.9,2.7-4.7c0.1-0.9,0.1-1.9,0.4-2.8c0.4-1.1,1.2-2.1,2-3
		c3.9-4.5,7.2-9.5,9.7-14.9c1-2.1,2-4.3,3.4-6.2c1.1-1.4,2.5-2.6,3.5-4.1c1.2-1.7,1.9-3.7,2.5-5.7c0.9-2.7,1.8-5.4,2.7-8.1
		c0.4-1.1,0.7-2.2,1.1-3.3c4.2-12.5,13.6-23.1,24-31c8.6-6.6,23.8-13.9,30.7-5.6c1.2,1.5,0.3,4.5,2,5.3c4.8,2.3,8.5-6,13.1-8.7
		c2-1.2,4.3-1.8,6.6-2.4c7-1.8,14-3.6,20.9-5.4c6.4-1.6,13.9-3,18.9,1.2c1.4,1.2,2.5,2.9,2.3,4.7c-0.1,1.3-0.8,2.4-1.3,3.5
		c-1.7,4.2-0.9,8.9-0.1,13.3c0.1,0.5,0.2,1,0.6,1.3c1.1,1,2.6-0.6,4.1-0.7c1.4-0.2,2.6,1,3.5,2.1c3.3,4,6.6,7.9,9.9,11.9
		c1.1,1.3,2.3,2.7,3.8,3.6c2,1.1,4.4,1.3,6.6,1.5c7.7,0.9,19.4-0.1,22.1,7.2c4.6,12.8-17.8,34-5.7,40.2c1.8,0.9,3.9,0.3,5,2
		c1.2,1.6,2,3.6,3.8,4.5c1.2,0.6,2.7,0.6,4,1.1c1.3,0.5,1.5,3.5,1.7,3.8c0.2,0.4,0.7,0.4,1.1,0.4c3.7,0.3,7.4,1.4,10.7,3.2
		c0.6,0.3,1.3,0.7,1.7,1.4c0.6,1,0.3,2.2,0.1,3.3c-1.1,4.8-5.1,9.8-3.4,14.5c0.6,1.6,3.2-0.3,4.9-0.1c1.5,0.1,2.7,1.4,3.5,2.6
		c3.3,4.6,0.8,11.8,4.7,15.9c3.1,3.3,6.3,5.5,10.3,7.6c1.4,0.7,3,0.7,3.9,1.9c0.9,1.2,1.6,2.7,2.9,3.6c2.7,1.9,6.3,0.3,9.1-1.3
		s6.5-3.2,9.1-1.3c0.5,0.4,1,0.9,1.6,1c0.8,0.1,1.5-0.5,2.2-0.9c2.5-1.8,5.8-2.4,8.8-1.5c1.8,0.5,3.4,1.6,5.2,2.2
		c4,1.3,8.3,0.2,12.4-0.9c3.6-1,7.3-2,10.9-3c2.4-0.6,4.9-1.3,7.2-0.4c0.9,0.4,1.7,0.9,2.6,1.2c1.9,0.6,4,0,5.9-0.6
		c8.8-2.7,17.9-4.4,27.1-5.1c2-0.2,4.1-0.3,6.1,0.3c1.3,0.4,2.5,1,3.8,1.3c2.9,0.7,6.1-0.2,8.2-2.3"/>
	<path clip-path="url(#SVGID_2_)" fill="none" stroke="#E1E1E1" stroke-miterlimit="10" d="M161.1-123.5c-1,1-1.9,2-2.9,3
		c-8.5,9.2-15.7,19.6-21.3,30.9c-4,8-7.1,16.8-6.5,25.8c0,0.4,0.1,0.9,0.2,1.3c0.4,1,1.4,1.5,2.4,1.8c3.5,1.1,7.3,0.1,10.7-1.3
		s6.6-3.3,10.2-4.2c0.8-0.2,1.7-0.3,2.3,0.1c0.8,0.5,1,1.6,1.2,2.5c1.3,5.5,6.4,9.6,7.6,15.1c0.3,1.5,0.3,3.1,0.3,4.6
		c0,6.7,0,13.5-1.5,20.1c-0.7,3-1.6,6.3-0.3,9c1.1,2.1,1.9,4,2.2,6.3c0.3,2.3,3.3,3.2,4.9,4.7c3.3,3.1,8.1,3.9,12.3,2.1
		c1.1-0.5,2.2-1.3,3.4-1.5c1.3-0.3,2.7,0.1,3.9-0.5C191-4,191.5-4.5,192-5c2.2-1.8,5.4-1.4,8.1-2.1c2.9-0.7,5.3-2.7,7.5-4.6
		c2.5-2.1,5-4.3,7.6-6.4c1.5-1.2,2.9-2.5,4.1-4c1.3-1.6,2.1-3.6,3.3-5.3c2.7-3.8,6.9-6.2,10.1-9.7c3.8-4.1,5.9-9.7,10.1-13.4
		c2.1-1.9,4.9-3.4,5.7-6.2c0.2-0.9,0.3-1.8,0.5-2.6c0.7-2.8,3.6-4.9,3.8-7.9c0.7-13.7,14.9-23.6,24.6-33.2c2.1-2,4.2-4.1,6.9-5.2
		c2.5-1.1,5.3-1.3,8-1.4c5.6-0.4,11.2-0.7,16.8-1.1c1.9-0.1,3.7-0.2,5.6-0.1c0.9,0.1,1.7,0.2,2.6,0.2c1,0,2.1-0.3,3.1-0.6
		c9.9-2.6,19.7-5.3,29.6-7.9c5.4-1.5,11-2.9,16.6-2.3c3.7,0.4,7.3,1.7,10.9,3.1c2,0.7,4.1,1.6,5.2,3.4c2.9,4.6-5.2,11.3-2,15.5
		c1.6,2.1,5.2-2.7,7.5-1.5c1.5,0.8,1.5,2.9,2.6,4.2c1.7,1.8,4.7,0.8,6.8-0.4c2.1-1.2,6.3-3.5,6.9-1.1c1.2,4.7-7.5,8.5-6.2,13.2
		c0.8,3.1,6.3,1.1,9.5,1.2c6.1,0.3,11.5,4.1,17.5,5.2c3.2,0.6,6.4,0.4,9.6,1c3.2,0.6,6.4,2.1,7.8,5c0.2,0.5,0.4,1,0.3,1.5
		c-0.1,0.5-0.4,0.9-0.7,1.3c-2.7,3.6-5.5,7.3-8.2,10.9c-2.9,3.9-6,8.2-5.7,13.1c0.3,3.8-1.8,8.3-0.4,11.8
		c2.5,6.2,8.3,10.6,13.6,14.7c1.4,1.1,2.9,1.9,4.4,2.8c1.4,0.8,2.8,1.6,4.2,2.4c0.8,0.4,1.6,0.9,2,1.7c0.5,0.9,0.3,2,0.2,3.1
		c-0.7,4.4-5.1,9.8-2.2,13.2c2.9,3.5,5.1,6,8.8,8.5c1.7,1.2,3.3,2,3.7,4.1c0.4,1.9-0.6,4.7,1.1,5.8c1.2,0.8,3.4-1.4,4.1-0.2
		c1,1.6,0.6,3.9,2.4,4.5c1.1,0.4,2.3,0.3,3.2,0.9c0.5,0.3,0.8,0.9,1.4,1.1c1.2,0.5,2.3-0.6,3.1-1.6c1.7-2,3.6-3.8,5.6-5.4
		c2.5-2,6.3-3.6,8.7-1.5c1.9,1.7-0.1,4.9,1.2,7.1c1.1,1.9,4.2-0.7,6.4-0.9c1.2-0.1,2.3,0.1,3.5,0.4c4.5,1,9.1,2,13.6,2.9
		c10.1,2.2,20.2,0.5,30.4-1c3.6-0.5,7.3-1.2,10.9-1.4c4.5-0.2,9.1,0.4,13.6,0.6c1.9,0.1,3.9,0.2,5.7-0.4c1.3-0.4,2.4-1.1,3.6-1.7
		c3.2-1.5,6.9-1.8,10.4-2.1"/>
	<path clip-path="url(#SVGID_2_)" fill="none" stroke="#E1E1E1" stroke-miterlimit="10" d="M165-122.5c-5.8,7.2-11.6,14.4-16.1,22.5
		c-3.7,6.7-6.4,14-8.5,21.3c-0.9,2.9-1.6,5.9-1.4,9c0,0.5,0.1,1,0.4,1.4c0.7,1,2.2,0.7,3.4,0.2c4.6-1.7,9.2-3.3,13.8-5
		c1.5-0.5,3.1-1.1,4.7-1c2.4,0.1,4.6,1.9,5.3,4.2c0.4,1.4,0.3,2.9,0.5,4.3c0.6,5.4,5.1,9.8,5.8,15.2c0.2,1.2,0.1,2.4,0.4,3.6
		c0.3,1.6,1.2,3.1,1.6,4.7c0.4,1.5,0.4,3.1,0.5,4.7c0.3,4.2,1.7,8.2,3,12.2c0.8,2.4,0,6.6,2.5,7.2c1,0.3,2-1.4,2.9-0.9
		c0.5,0.3,0.5,1.5,1.1,1.4c2.5-0.7,2.1-4.7,4.2-6.1s4.6-2.2,7-3c2.4-0.8,5.1-0.8,7.7-1.2c2.7-0.4,4.9-2.1,7-3.7
		c5.9-4.5,11.8-9.1,16.5-14.8c7.7-9.3,12-21.5,21.4-29.1c1.4-1.2,3-2.2,4.2-3.6c1.2-1.5,2-3.3,2.8-5c7.7-16.3,23.8-28.5,41.6-31.4
		c2.1-0.4,4.3-0.6,6.5-0.4c2.3,0.2,4.6,0.8,6.9,1c3.2,0.4,6.4,0.2,9.5-0.1c11.6-1.1,23-3.5,34-7.2"/>
	<path clip-path="url(#SVGID_2_)" fill="none" stroke="#E1E1E1" stroke-miterlimit="10" d="M168-123c0.6,2.3-0.3,4.9-2.2,6.3
		c-1.1,0.8-2.4,1.3-3.3,2.2c-1,0.9-1.6,2.2-2.2,3.4c-1.7,3.7-3.4,7.3-5.1,11c-3,6.5-6,13-7.1,20c-0.1,0.9-0.2,2,0.5,2.6
		c0.8,0.6,1.9,0.2,2.9-0.2c3.4-1.6,6.9-2.9,10.4-4.2c2.7-0.9,5.8-1.7,8.3-0.3c3.5,2,3.6,6.8,4.9,10.6c2,5.8,7.5,9.7,9.9,15.4
		c1.7,3.9,1.7,8.4,3.3,12.3c0.3,0.7,0.7,1.4,1.4,1.6c1,0.2,1.9-0.8,2.6-1.5c2.5-2.5,6.2-3.2,9.6-4.2c5.9-1.8,11.2-5.3,15.2-9.9
		c2-2.3,3.7-4.8,6-6.7c1.7-1.4,3.7-2.5,5.4-3.9c1.9-1.6,3.4-3.7,4.9-5.6c7.4-9.6,15.8-18.4,24.2-27.1c5.2-5.4,10.4-10.8,16.7-14.9
		c2.8-1.8,5.9-3.4,9.3-3.8c3.8-0.5,8.4,0.3,10.8-2.7"/>
	<path clip-path="url(#SVGID_2_)" fill="none" stroke="#E1E1E1" stroke-miterlimit="10" d="M172.9-123.5c-1.1,3.8-2.2,7.6-4.2,11
		c-1,1.6-2.2,3.2-3.3,4.8c-4.2,6.1-11.7,13.2-9.2,20.2c0.6,1.7,3.4-0.1,5-0.9c3.9-2,8.3-2.4,12.6-2.8c2.6-0.3,5.6-0.4,7.6,1.3
		c1.5,1.3,2.2,3.3,2.7,5.2c0.7,2.5,0.6,5.4,2.2,7.5c3.1,3.8,7,7.2,6.9,12.1c0,0.7,0.9,2.1,1.2,2.8c0.8,1.5,2,0.3,3.5-0.4
		c10-4.6,18.7-11.5,27.3-18.3c4.1-3.2,8.1-6.4,12.2-9.7c4.8-3.8,9.6-7.6,13.4-12.4c3.3-4.2,5.9-9.1,10.3-12.2
		c5.4-3.8,13-4.4,16.8-9.7"/>
	<path clip-path="url(#SVGID_2_)" fill="none" stroke="#E1E1E1" stroke-miterlimit="10" d="M177.7-122.8c-2.2,2.3-2.4,5.8-3.5,8.8
		c-1.9,5.4-11.9,10.8-8,14.9c0.9,1,2.7,0,3.7,0.8c0.3,0.2,0.7,0.5,1,0.6c0.8,0.2,1.6-0.3,2.3-0.7c2.2-1.4,4.8-2.2,7.4-2.4
		c0.9,0,1.8,0,2.6,0.3c0.9,0.3,1.7,0.9,2.4,1.5c1.3,1,2.7,2,4,3.1c1.6,1.2,3.2,2.4,4.1,4.2c1.1,2.1,1.2,4.6,2.6,6.5
		c0.6,0.8,1.5,1.5,2.2,2.2c1.7,1.7,2.7,4,2.9,6.3c0,0.4,0.1,0.8,0.4,1.1c0.2,0.2,0.5,0.2,0.7,0.2c1.8-0.1,2.9-2,4.1-3.3
		c1.5-1.6,3.4-2.6,5.3-3.6c8.3-4.6,15.8-10.7,23.2-16.7c1.7-1.4,3.5-2.8,4.9-4.5c4-4.6,5.9-11.4,11.4-14c1.2-0.6,2.5-0.9,3.6-1.7
		c2.8-2.1,2.7-6.3,2.2-9.7"/>
	<path clip-path="url(#SVGID_2_)" fill="none" stroke="#E1E1E1" stroke-miterlimit="10" d="M181.9-122.7c-2,5.1-8.9,10.2-6.4,15
		c1.5,3,6.2-2.4,9.6-2.9c2.8-0.4,5.5,1.2,7.6,3.1c2.1,1.9,3.7,4.3,5.9,6.1c0.9,0.8,2,1.5,3,2.2c2,1.5,3.9,3.2,5.6,5
		c0.8,0.9,1.8,1.8,2.9,1.6c0.4-0.1,0.7-0.3,1-0.5c11-7.6,22.4-15.5,29.5-26.9c1-1.6,1.9-3.2,2.8-4.8"/>
	<path clip-path="url(#SVGID_2_)" fill="none" stroke="#E1E1E1" stroke-miterlimit="10" d="M186.9-122.2c-1,1.7-2.5,4-1.3,5.6
		c1.1,1.4,3.4-0.5,5-1.4s3.9-1.2,4.8,0.3c0.3,0.5,0.3,1.1,0.7,1.5c0.3,0.3,0.8,0.4,1.2,0.6c2,0.9,2,3.9,3.8,5.2
		c2,1.4,4.8-0.2,7.1,0.5c1.4,0.4,2.5,1.6,3.9,1.6c2.9,0,3.8-4.7,6.7-5.2c0.8-0.1,1.6,0.1,2.3-0.1c0.7-0.2,1.3-0.6,1.8-1.1
		c3.2-2.7,6.4-5.4,9.6-8"/>
	<path clip-path="url(#SVGID_2_)" fill="none" stroke="#E1E1E1" stroke-miterlimit="10" d="M203.4-122.8c-0.2,1.3,0.3,2.7,1,3.8
		c0.2,0.3,0.7,0.4,1,0.3c0.4-0.2,0.6-0.5,0.9-0.8c0.5-0.6,1.1-1,1.8-1.4c0.5-0.3,1-0.6,1.6-0.6c1-0.1,1.9,0.4,2.9,0.2
		c1.5-0.3,2.2-2,2.6-3.5"/>
	<path clip-path="url(#SVGID_2_)" fill="none" stroke="#E1E1E1" stroke-miterlimit="10" d="M388.4-121.8c-0.6,1-0.4,2.4,0.5,3.1
		c0.4,0.3,0.9,0.5,1.2,0.9c0.6,0.7,0.5,1.8,0.4,2.7c-0.4,2.4-0.9,4.9-1.3,7.3c-0.1,0.8-0.2,1.8,0.3,2.4c0.7,0.7,1.8,0.5,2.8,0.3
		c2.1-0.4,3.6,1.2,5.5,2.2c5.5,2.8,13.1-10.6,17.2-6.1c1.8,2-1.3,5.1-2.3,7.5c-1.6,3.9-6.6,8.8-3.9,12.2c2,2.4,6.3-0.1,9.4-0.1
		c1.3,0,2.6,0,3.9,0.2c1.6,0.3,3.1,1,4.6,1.7c2.3,1.1,4.6,2.1,6.8,3.2c2.7,1.3,5.4,2.6,7.6,4.6c1,0.9,1.9,2,2.8,3.1
		c1.7,2,3.4,4.1,3.8,6.7c0.5,2.8-0.7,5.6-1.8,8.3c-1.5,3.6-3.1,7.2-4.6,10.8c-0.3,0.7-0.8,1.2-1.2,1.7c-0.3,0.4-0.2,1.2-0.3,1.7
		c-1.3,4.9-6.7,10.5-4,14.8c1.3,2,3.5,3,4.9,4.9c3,3.9,8.5,5.4,10.9,9.7c0.4,0.6,0.7,1.3,1.3,1.7c0.3,0.2,0.7,0.3,1.1,0.4
		c2.1,0.7,3.5,2.7,4.3,4.8c1.4,4-3.5,8.7-1.1,12.2c1.6,2.2,3.7,4.3,6.4,4.3c0.5,0,0.9-0.1,1.3,0c0.3,0.1,0.5,0.4,0.7,0.6
		c1.7,2.1,2.8,4.7,3.2,7.4c0.1,0.7,0.2,1.6,0.8,2c0.4,0.2,0.9,0.2,1.3,0.3c1.4,0.3,2.2,1.6,3.3,2.5s2.7,1.7,3.7,0.8
		c0.4-0.3,0.6-0.8,0.8-1.2c0.7-1.3,1.6-2.6,2.7-3.6c0.9-0.9,1.8-1.6,3-2c1.2-0.3,2.5-0.2,3.4,0.6c2.2,2.1,5.8,2.8,8.6,3.8
		c2.2,0.8,4.6,1.6,5.5,3.7c0.2,0.5,0.4,1.2,0.7,1.6c0.7,0.8,1.9,0.8,2.9,0.8c4.6-0.1,9.2,0.3,13.8,1.1c2.1,0.4,4.1,0.8,6.2,0.8
		c4-0.1,7.8-2,11.8-2.1c2.2-0.1,4.5,0.3,6.6,1.1c0.9,0.4,1.8,0.8,2.8,0.8c1.1,0,2-0.6,3-0.9c1.3-0.4,2.7-0.6,4.1-0.7
		c6-0.5,12-0.9,18-1.4c2.1-0.2,4.2-0.3,6.3,0.2c1.2,0.3,2.3,0.8,3.5,0.9c1.6,0.2,3.2-0.4,4.7-0.9c2.9-1,5.8-2,8-4.1"/>
	<path clip-path="url(#SVGID_2_)" fill="none" stroke="#E1E1E1" stroke-miterlimit="10" d="M400-122.3c-1.4,2.5-4.8,5.9-3,8.1
		c1.2,1.4,3.1,1,4.8,1.3c1.2,0.2,1.6,0.8,2.2,0.9c5.8,0.7,11.5-6.3,17-4c0.5,0.2,1.2,1,1,2c-1,6.2-10.3,13.2-5.5,17.2
		c6.7,5.6-3.3-2.6,0,0c11,8.9,28.9,5.9,32.5,19.8c3.4,13.2-1.5,25.3-4,38c-0.4,2-0.8,4.2-0.1,5.6c3.7,7.9,13.5,11.1,19.5,17.5
		c0.6,0.7,1.3,1.4,1.8,2.2c1.6,2.3,2.2,5.1,1.8,7.8c-0.1,0.8-0.3,1.6,0.2,2.2c0.6,0.9,1.9,0.8,2.9,1c2.5,0.5,3.9,3.4,3.8,5.9
		c0,0.8-0.1,1.6,0.4,2.2c0.6,0.8,1.8,0.7,2.8,0.6c1.8-0.3,3.7-0.6,5.5-0.9c1.3-0.2,2.6-0.4,3.8-0.1c0.9,0.2,1.7,0.6,2.5,1
		c1.8,0.9,3.7,1.6,5.6,2.3c3.7,1.4,7.4,2.8,11.1,4.2c2.6,1,5.2,2,8,2.3c0.1,0-0.4,0.6-0.3,0.6c0.1-0.1,0.1-0.3,0.2-0.4
		c4.3-2.2,9.6,0.8,14.3,1c2.6,0.1,5.1,0.1,7.7,0.2c2.3,0.1,4.7,0.1,6.8-0.7c1-0.4,2-1,2.9-1.5c6.7-3.3,14.6-1,22.1-1.1
		c3.2,0,6.3-0.5,9.5-1c5.1-0.8,10.1-1.6,15.2-2.3"/>
	<path clip-path="url(#SVGID_2_)" fill="none" stroke="#E1E1E1" stroke-miterlimit="10" d="M588.4-5.3c-10.2,5.4-22.4,4.6-33.6,7.5
		c-3,0.8-5.9,1.8-9,2.3c-2.9,0.5-5.9,0.5-8.9,0.6c-7.4,0.1-14.7,0.2-22.1,0.2c-1.7,0-3.4,0-5-0.3c-4.9-1.1-8.6-5.3-13.5-6.1
		c-0.9-0.2-1.9-0.2-2.7-0.6c-0.9-0.4-1.5-1.3-2.2-2c-3-3.1-7.6-0.7-11.8-1.6c-1.9-0.4-0.3-3.8-0.3-5.7c0-2.2-1.4-4.4-3.4-5.3
		c-2.1-1-5.2-1-5.8-3.3c-0.2-0.9,0.1-1.8-0.2-2.7c-0.7-2-2.9-2.9-4.8-3.7c-0.9-0.4-1.7-1-2.2-1.8c-1.7-2.5-4.2-4.4-7-5.5
		c-1.4-0.5-3.2-1.3-3.1-2.8c0-0.9,0.9-1.6,1.4-2.4c0.6-1,0.8-2.1,0.9-3.3c1.3-10,1.2-20.2-0.4-30.1c-0.2-1.1-0.3-2.2,0-3.2
		c0.3-0.9,1.1-1.6,1.5-2.4c1.3-2.7-1.2-5.5-1.9-8.4c-0.3-1.1-0.3-2.2-0.7-3.3c-0.3-1-1-1.8-1.6-2.6c-3.6-4.8-7.6-9.8-13.2-11.9
		c-1.6-0.6-3.3-1-4.9-1.3c-3-0.6-7.7,0.9-9-1.9c-2.1-4.7,5.9-8.3,9.8-11.6c1.8-1.5,4-3.7,3.1-5.9"/>
	<path clip-path="url(#SVGID_2_)" fill="none" stroke="#E1E1E1" stroke-miterlimit="10" d="M440.3-122.8c-1.9,3.3-7.2,6.4-5.6,9.9
		c1.5,3.3,6.9,2,10.1,3.6c0.8,0.4,1.7,0.9,2.3,1.7c0.5,0.6,0.9,1.4,1.3,2.1c1.9,3,5.6,4.4,8,7c2.5,2.7,3.3,6.6,3.5,10.3
		c0.2,3.7-0.3,7.4,0.1,11.1c0.5,4.3,2,8.4,2.5,12.7c0.4,3.6,0.1,7.3,0.1,11c0,4,0.3,8,0.9,11.9c0.1,0.7,0.3,1.5,0.7,2.1
		c0.5,0.8,1.4,1.3,2.1,1.9c1.5,1.3,2.3,3.2,3.6,4.7c1.2,1.2,2.7,2,4,3.1c3.6,3,5.6,8.1,10.1,9.6c1.1,0.4,2.3,0.6,2.8,1.6
		c0.4,0.8,0,1.9,0.3,2.8c0.5,1.8,3,2,4.9,2.2c2.7,0.3,4.5,3,7.2,3.6c3.6,0.8,7.1,2.9,10.7,3.5c2,0.4,4.1-0.1,6.1-0.4
		c8-1,16.1,1.4,24.1,0.7c2.4-0.2,4.7-0.7,7.1-1.2c3.8-0.8,7.6-1.6,11.5-2.4c6.2-1.3,12.4-2.6,18.2-5c1.4-0.6,2.8-1.2,4-2.1
		c1.3-1,2.4-2.2,3.8-2.9c0.7-0.3,1.5-0.6,1.9-1.2c0.3-0.4,0.4-1,0.5-1.5c0.5-2.5,2.4-4.4,4.3-6.2"/>
	<path clip-path="url(#SVGID_2_)" fill="none" stroke="#E1E1E1" stroke-miterlimit="10" d="M445.2-121.8c-1.3,1.5-2.9,4-1.7,5.6
		c5,7.2,16.2,8.6,19.5,16.7c2.7,6.4,1.5,13.7,1.8,20.7c0.1,3.4,0.6,6.7,1.4,10c0.9,3.6,2.2,7.1,3.5,10.6c1.6,4.4,1.4,9.9,4.8,13.1
		c0.5,0.4,1.4,0.1,1.9,0.5c5.1,4.9,7.8,11.7,13.1,16.4c1.3,1.1,2.6,2.3,4.2,3c1.1,0.4,2.2,0.6,3.3,0.9c3.4,0.8,6.5,2.5,9.8,3.2
		c3.8,0.8,7.7,0.2,11.5-0.3c11.7-1.7,23.5-3.3,35.2-5c6.1-0.9,12.4-1.8,17.9-4.8c6.6-3.6,11.8-10.3,19.3-11.2"/>
	<path clip-path="url(#SVGID_2_)" fill="none" stroke="#E1E1E1" stroke-miterlimit="10" d="M453.3-121.7c-0.9,0.4-1.9,1.5-1.4,2.4
		c3.4,5.9,11.9,7.3,15.2,13.2c1,1.8,1.8,3.8,2.8,5.7c0.5,1,1.1,1.9,1.5,2.9c0.6,1.6,0.5,3.4,0.4,5.1c-0.3,5.3-0.4,10.8,0.9,15.9
		c1.8,6.9,6.2,13,7.5,20c0.1,0.6,0.2,1.2,0.5,1.7c0.3,0.4,0.6,0.8,1,1.1c3.3,3,6.7,5.9,10,8.9c2.4,2.1,5.2,4.4,8.4,4
		c1.1-0.1,2.2-0.6,3.3-0.8c2.9-0.5,5.7,1.2,7.8,3.2c0.5,0.5,1.1,1.1,1.8,1c0.5,0,0.9-0.4,1.3-0.6c2.4-1.6,5.4-1.9,8.2-2
		c6.1-0.3,12.2-0.5,18.3-0.5c2.3,0,4.7,0,6.6-1.3c0.9-0.6,1.6-1.5,2.5-2.2c1.5-1.2,3.4-1.6,5.2-2.3c6.3-2.4,11.1-8.1,12.4-14.7
		c0.4-2,0.5-4,1.5-5.8c0.8-1.6,2.3-2.7,3.7-3.7c6.3-4.4,14-6.7,21.6-6.6"/>
	<path clip-path="url(#SVGID_2_)" fill="none" stroke="#E1E1E1" stroke-miterlimit="10" d="M467.7-124.1c-1.4,0-2.2,1.5-2.5,2.7
		c2.3-0.3,2.7,3,3.5,4.7c1.7,3.5,3.3,7.4,4.3,11.7c0.5,1.9,3.1,4.9,4,7c3.6,8.8,7,17,9,27c1,5,8,8.3,12,4c0.4-0.4,1.2-1.5,1-2
		c-3.3-11.2-3-18-5.4-26.6c-0.5-1.9-2.5-3.5-3.8-5c-3.3-3.9-3.6-9.5-3.8-14.6c-0.1-3.6-0.3-7.1-0.4-10.7"/>
	<path clip-path="url(#SVGID_2_)" fill="none" stroke="#E1E1E1" stroke-miterlimit="10" d="M475.9-122.3c1.2,1.5,1.8,3.5,1.7,5.4
		c-0.1,1.1-0.4,2.2-0.3,3.3c0.1,1.5,1.1,2.8,1.4,4.3c0.2,0.7,0.2,1.3,0.5,2c0.3,0.6,1.1,1.4,1.6,1c0.7-0.6,0.5-1.8,0.6-2.7
		c0.4-4,0.9-8,1.3-12c0.2-1.4,0.3-2.7,0.9-4"/>
	<path clip-path="url(#SVGID_2_)" fill="none" stroke="#E1E1E1" stroke-miterlimit="10" d="M500.4-121.1c-3.1,1.2-4.8,4.6-4.9,7.9
		c-0.1,3.3,1.1,6.4,2.2,9.5c0.8,2,1.5,4,2.8,5.8c0.8,1.2,1.9,2.2,2.6,3.4c1.2,2.1,1.5,4.5,2.1,6.8s1.6,4.8,3.6,6
		c0.7,0.4,1.4,0.6,2,1.1c0.6,0.5,1,1.3,1.4,2c1.4,2.5,3.3,4.7,5.6,6.5c2.8,2.1,6,3.5,9.2,4.8c4.3,1.7,8.7,3.1,13.3,3.6
		c4.6,0.5,9.3-0.1,13.4-2.3c1.5-0.8,2.9-1.8,4.3-2.7c2.5-1.7,5.2-3.2,7.9-4.7c7.8-4.4,16.2-8.9,25.1-8.1"/>
	<path clip-path="url(#SVGID_2_)" fill="none" stroke="#E1E1E1" stroke-miterlimit="10" d="M511.3-123.3c-5.1,5.8-7.7,13.7-7.2,21.4
		c0,0.7,0.1,1.4,0.4,2c0.4,0.9,1.1,1.7,1.8,2.4c3.1,3.3,6.2,6.5,9.3,9.8c0.7,0.7,1.4,1.5,1.8,2.5c0.3,0.6,0.4,1.3,0.7,1.9
		c0.4,0.7,0.9,1.3,1.5,1.8c3,2.9,6.2,5.9,10.2,6.6c5.1,0.9,10.6-2,15.2,0.2c1.8,0.8,3.6,2.4,5.5,1.8c1.3-0.4,2.1-1.8,3.1-2.8
		c1.9-1.8,4.7-2,7-3.1c3-1.4,5.2-4.1,7.8-6.1c0.6-0.5,1.2-0.9,2-1.1c0.9-0.2,1.8-0.1,2.8-0.1c3.1,0,5.8-1.9,8.8-2.7
		c2.9-0.8,6-0.6,8.7-1.8"/>
	<path clip-path="url(#SVGID_2_)" fill="none" stroke="#E1E1E1" stroke-miterlimit="10" d="M517.5-122.1c-0.2,2-1.1,3.9-2.6,5.2
		c-0.7,0.6-1.5,1.1-2.1,1.8c-1.2,1.4-1.5,3.4-1.8,5.2c-0.5,3.6-0.9,7.5,0.5,10.8c0.8,1.9,2.2,3.5,3.6,5c2.3,2.6,4.7,5.3,7,7.9
		c1,1.2,2.1,2.4,3.4,3.2c1.3,0.9,2.8,1.4,4,2.4c0.4,0.4,0.8,0.8,1.3,1.1c1.6,1.1,3.7,0.7,5.4,0c2.6-1.2,5.1-3.2,7.9-2.9
		c1.1,0.1,2.2,0.5,3.3,0.3c2.2-0.6,2.5-3.6,3.8-5.4c1.7-2.4,5-2.7,8-3s6.3-1.3,7.2-4.1c0.3-0.7,0.3-1.6,0.7-2.2c0.7-1,2-1.3,3.2-1.5
		c4.9-0.8,10-1.5,14.7,0.1c2.8,0.9,5.6,2.7,8.4,1.8"/>
	<path clip-path="url(#SVGID_2_)" fill="none" stroke="#E1E1E1" stroke-miterlimit="10" d="M527-123.4c-1.5,3.2-3,6.5-4.5,9.7
		c-1.4,3-2.8,6.1-3.4,9.4c-0.6,3.3-0.3,6.9,1.5,9.7c2.3,3.7,6.7,5.4,9.9,8.3c1.5,1.4,3.2,3.3,5.2,2.7c2.6-0.7,3.1-4.8,5.7-5.2
		c1-0.2,2.2,0.3,3-0.4c0.5-0.4,0.6-1,0.9-1.5c0.9-2.4,3-4.4,5.5-5.1c1.4-0.4,2.8-0.5,4.2-0.7c2.1-0.3,4.2-0.8,6.1-1.9
		c1.8-1.1,3.4-2.8,3.9-4.9c0.1-0.4,0.2-0.9,0.5-1.2c0.2-0.2,0.6-0.3,0.9-0.4c5.8-1.3,11.7-2.2,17.7-2.7c2.7-0.2,5.7-0.3,7.7,1.5"/>
	<path clip-path="url(#SVGID_2_)" fill="none" stroke="#E1E1E1" stroke-miterlimit="10" d="M533.3-122.8c-1.9,0.3-3.2,2.3-3.5,4.3
		c-0.4,1.9-0.1,3.9-0.4,5.9c-0.2,1.4-0.7,2.7-1.2,4c-1.8,4.7-3.7,10-1.5,14.5c0.6,1.2,1.6,2.3,3,2.4c1.3,0.1,2.4-1,3.7-1.3
		c0.9-0.3,1.8-0.2,2.6-0.3c3.2-0.3,6.1-2.7,7.2-5.7c0.3-0.8,0.5-1.7,0.8-2.5c1.2-2.6,4.4-3.5,7.2-3.8c0.7-0.1,1.3-0.1,1.9-0.4
		c0.6-0.3,1-0.8,1.4-1.3c1.4-1.9,2.6-4.3,4.9-5c1.7-0.5,3.5,0.1,5.2-0.1c2.1-0.2,3.9-1.5,6-1.7c1.9-0.1,3.8,0.8,5.8,0.8
		c3.2,0,5.9-2.3,8.9-3.3c3.1-1,6.4-0.6,9.6-0.2"/>
	<path clip-path="url(#SVGID_2_)" fill="none" stroke="#E1E1E1" stroke-miterlimit="10" d="M341.6,171.6c0,0.1,0,0.2,0.1,0.3
		c0.1,0.1,0.2,0.2,0.4,0.2c1,0.1,1.8-0.8,2.5-1.4c1.1-0.9,2.2-2.1,4.1-1.9c1.5,0.2,3.2,1.3,4.7,1.2c0.2,0,0.5,0,0.7-0.2
		c0.1-0.1,0.1-0.3,0.1-0.5c-0.1-1.6,0.5-3.4-0.4-4.8c-1-1.7-3.7-1.8-5.7-1.8c-0.9,0-1.8,0.1-2.5,0.5c-0.9,0.5-1.4,1.4-2,2.3
		c-0.6,0.9-1.1,1.9-1.5,2.9C341.8,169.3,341.6,170.4,341.6,171.6z"/>
	<path clip-path="url(#SVGID_2_)" fill="none" stroke="#E1E1E1" stroke-miterlimit="10" d="M289.1,114.7c0.7-0.2,1-0.8,1.3-1.5
		c0.4-1.2,0.5-2.4,0.4-3.7c0-0.5-0.3-1.1-0.7-1.1c-0.3,0-0.5,0.2-0.7,0.4c-1.1,1.2-1.7,2.7-1.7,4.3c0,0.4,0.1,0.8,0.3,1.1
		C288.2,114.6,288.6,114.8,289.1,114.7z"/>
	<path clip-path="url(#SVGID_2_)" fill="#EAEAEA" stroke="#D6D6D6" stroke-miterlimit="10" d="M267.5,306.6c-1-0.7-1.2-2-1.9-3
		c-0.5-0.8-1.3-1.3-1.7-2.1c-0.3-0.7-0.3-1.5-0.3-2.3c0.1-2.8,0.8-5.5,0.8-8.3c0-2.2-0.3-4.5-0.7-6.7c-0.1-0.9-0.3-1.8-0.6-2.6
		c-0.2-0.7-1.1-1.3-1.3-2c-0.5-1.6-0.5-3.2-0.5-4.9c0-0.4,0.6-0.9,0.7-1.2c0.2-0.4,0.5-0.6,0.8-0.9c1.4-1.1,2.9-2.1,4.3-3.2
		c0.4-0.3,0.8-0.6,1.3-0.6c0.5,0,1,0.4,1.3,0.8c0.6,0.7,1.1,1.5,1.4,2.3c0.1,0.3,0.3,0.7,0.5,0.9c0.2,0.3,0.5,0.5,0.8,0.8
		c1.1,0.8,2.4,1.4,3.6,2.1c1.2,0.7,2.3,1.6,2.9,2.9c0.2,0.4,0.3,0.8,0.5,1.2c0.2,0.4,0.5,0.7,0.8,1c1.3,1.4,1.9,3.3,2.2,5.2
		c0.3,1.9,0.7,3.8,0.5,5.7c-0.1,1.1,0,2.5-0.4,3.5c-0.4,1-1.9,1.6-2.6,2.5c-1,1.3-1.9,3-1.9,4.6c0,1.6-0.6,2.8-2,3.3
		c-1,0.4-1.9,0.8-3,1c-1.1,0.1-2.3,0.3-3.4,0.3C269.1,307.1,268.2,307.1,267.5,306.6z"/>
	<path clip-path="url(#SVGID_2_)" fill="#EAEAEA" stroke="#D6D6D6" stroke-miterlimit="10" d="M192.2,271.4c-0.7-1-1.4-2.1-1.8-3.4
		c-0.3-1.1-0.3-2.2-0.3-3.3c0-3.2,0-6.3-0.1-9.5c0-1.7,0-3.5,0.7-5c0.8-1.6,2.3-3,2.3-4.8c0-1-0.6-1.9-0.5-2.9
		c0.2-1.5,2.1-2.4,3.3-1.6c0.7,0.4,1.1,1.2,1.6,2c2.3,3.8,6.6,5.9,9.6,9.2c1.1,1.2,2.1,2.6,3.6,3.2c0.4,0.2,0.7,0.3,1.1,0.4
		c0.3,0.1,0.5,0.3,0.8,0.5c1.4,0.9,3.1,1.2,4.6,2c0.2,0.1,0.4,0.2,0.5,0.4c0.3,0.4,0.2,0.9,0.1,1.4c-0.1,1.1,0.1,2.3,0.7,3.3
		c0.2,0.3,0.4,0.6,0.4,1c0,0.4-0.3,0.7-0.6,0.9c-0.7,0.7-1.4,1.5-2.2,2.2c-0.5,0.5-1,1-1.6,1.1c-0.8,0.2-1.7-0.2-2.4,0.3
		c-0.9,0.6-0.9,2.3-2,2.5c-0.6,0.1-1.1-0.2-1.7-0.3c-0.6,0-1.1,0.4-1.3,0.9c-0.1,0.3-0.1,0.5-0.2,0.8c-0.1,0.2-0.3,0.4-0.5,0.6
		c-1.1,1-2.5,1.9-3.9,2.4c-1.4,0.5-3.1,0.7-4.5,0c-0.5-0.3-0.9-0.6-1.4-0.9c-0.7-0.5-1.6-0.8-2.3-1.4
		C193.3,273,192.7,272.2,192.2,271.4z"/>
	<path clip-path="url(#SVGID_2_)" fill="#EAEAEA" stroke="#4E9BD7" stroke-miterlimit="10" d="M222.1,105.8
		c-0.2-0.1-0.3-0.3-0.5-0.4c-0.5-0.4-1-0.8-1.6-0.9c-0.6-0.1-1.3,0.3-1.3,0.9c0,0.3,0.1,0.5,0.2,0.8c0.3,0.6,0.6,1.2,0.9,1.8
		c0.2,0.4,0.4,0.8,0.7,1.1c0.9,0.9,2.4,1.7,3.5,1.1c0.3-0.2,0.4-0.7,0.5-1.1c0.1-0.2,0.1-0.4,0-0.6c0-0.2-0.1-0.3-0.2-0.4
		C223.7,107.2,222.9,106.5,222.1,105.8z"/>
	<path clip-path="url(#SVGID_2_)" fill="none" stroke="#4E9BD7" stroke-miterlimit="10" d="M212.3,141.4c-0.4,0.1-1.3,0.4-1.7,0.6
		c-2.1,0.7-4.2,1.2-6.4,1.5c-0.9,0.1-1.9,0.2-2.8,0.5c-0.8,0.2-1.6,0.7-2.4,1.1c-3.6,2-6.9,4.6-9.1,8.1c-0.5,0.8-0.9,1.6-1.2,2.4
		c-0.6,1.8-0.5,3.8-1.1,5.5c-0.6,1.6-1.8,3.2-1.3,4.8"/>
	<path clip-path="url(#SVGID_2_)" fill="#EAEAEA" stroke="#D6D6D6" stroke-miterlimit="10" d="M235.8,117.4
		c-0.4-0.1-0.8-0.1-1.1-0.1c-1.7,0-3.1-1.2-4.3-2.5c-0.8-0.9-1.5-1.8-2.6-2.2c-1.1-0.4-2.6-0.1-2.9,1c-0.1,0.4-0.1,0.8-0.2,1.2
		c-0.1,0.4-0.4,0.8-0.8,0.8c-0.4,0-0.7-0.3-0.9-0.6c-0.7-0.9-1.5-1.6-2.5-2c-1-0.4-2.3-0.3-3.1,0.5c-0.8,0.7-1.1,2-0.7,3
		c0.3,1,1.2,1.9,2.2,2.3c0.5,0.3,1.2,0.4,1.7,0.2c0.6-0.2,0.9-0.8,1.3-1.3c0.4-0.5,1.2-1,1.6-0.5c0.7,0.9-0.3,2.2-0.9,3.1
		c-0.6,0.9-1.2,1.8-2.1,2.3c-0.3,0.2-0.6,0.3-0.8,0.6c-0.6,0.6-0.4,1.7-0.5,2.5c-0.1,1.1-0.7,2.1-1.7,2.8c-0.4,0.3-1,0.5-1.2,1
		c-0.2,0.5-0.2,1-0.3,1.5c-0.3,1-1.3,1.5-1.8,2.4c-0.2,0.4-0.3,0.9-0.4,1.3c-1.2,5.5-2.4,11.3-1,16.8c0.2,0.6,0.3,1.2,0.7,1.7
		c0.4,0.5,0.9,0.8,1.5,1.2c1.2,0.7,2.4,1.5,3.8,1.7c1.4,0.3,3-0.1,3.8-1.2c0.5-0.6,0.7-1.4,1.4-1.9c0.7-0.5,1.5-0.4,2.3-0.2
		c0.8,0.2,1.5,0.6,2.3,0.8c1.5,0.3,2.9-0.3,4.3-0.9c1-0.4,1.9-0.8,3.6-1.5c1.9-0.8,4-1.9,4.5-3.8c0.1-0.5,0.2-1.2,0.6-1.5
		c0.2-0.2,0.5-0.3,0.7-0.3c1.1-0.3,2.3-0.2,3.2-1c0.4-0.4,0.6-0.8,0.8-1.3c1.4-3,2.9-6.1,3.2-9.4c0.2-1.4,0.1-3-0.8-4.1
		c-0.7-0.9-1.8-1.5-2.8-2.1c-2.5-1.6-4.4-4-5.6-6.7c-0.2-0.4-0.3-0.7-0.6-1c-0.2-0.3-0.5-0.5-0.8-0.7c-0.7-0.5-1.3-0.9-2-1.4
		C236.3,117.6,236.1,117.5,235.8,117.4z"/>
	<path clip-path="url(#SVGID_2_)" fill="none" stroke="#D6D6D6" stroke-miterlimit="10" d="M184.6,186.4
		C184.6,186.4,184.7,186.4,184.6,186.4c1.8,1.1,1.3,4,1.2,6.1c-0.3,3.9-1.2,7.8-2.4,11.5c-1.3,3.7-2.4,7.4-2.7,11.3
		c-0.2,3.9,0.1,8,2.8,10.8c1.7,1.9,4.1,3.1,5.4,5.3c0.5,0.9,0.8,1.9,1.4,2.7c0.3,0.4,0.6,0.7,0.9,1.1c0.3,0.4,0.5,0.9,0.6,1.3
		c0.5,1.3,1.2,3,1.8,4.3"/>
	<path clip-path="url(#SVGID_2_)" fill="none" stroke="#D6D6D6" stroke-miterlimit="10" d="M218,259.4c3.6-0.9,7-3,9.3-5.9
		c0.3-0.4,0.6-0.8,0.6-1.2c0-0.3,0-0.7,0.1-1c0.1-0.3,0.5-0.5,0.7-0.7c1.5-1,2.1-2.9,2.8-4.6c0.7-1.7,1.9-3.5,3.7-3.6
		c0.6,0,1.2,0.1,1.7-0.1c0.6-0.2,1-0.6,1.4-1c2.4-2.3,5.4-4.3,8.6-4.3c1.7,0,3.4,0.5,5.1,0.3c1.5-0.2,2.8-0.9,4.2-1.3
		c1.4-0.3,3.2-0.1,4,1.2c0.3,0.5,0.4,1,0.5,1.5c0.7,3.7,1.6,7.4,2.6,11c0.2,0.7,0.4,1.4,0.8,2c0.5,0.8,1.2,1.4,1.9,2
		c1.2,0.9,2.6,1.8,4.1,2.2c0.5,0.2,1.2,0.5,1,1c-0.1,0.2-0.3,0.4-0.5,0.5c-1.1,0.7-2.4,0.8-3.7,1.2c-1.2,0.4-2.5,1-3,2.3
		c-0.1,0.4-0.1,0.8,0.1,1.1c0.2,0.3,0.5,0.5,0.7,0.8c0.3,0.5,0.1,1.2,0.2,1.8c0.3,1.6,3.8,3.5,3.1,4.2"/>
	<path clip-path="url(#SVGID_2_)" fill="#EAEAEA" stroke="#D6D6D6" stroke-miterlimit="10" d="M332,199.4c-0.5-2.9-0.9-5.8-0.9-8.7
		c0-2,0.5-4.1,1.3-5.9c1.3-2.9,3.7-5.8,6.9-6c0.5,0,1,0,1.5-0.2c0.3-0.2,0.6-0.5,0.9-0.8c0.8-0.9,1.5-1.8,2.1-2.8
		c0.5-0.8,0.8-1.8,1.3-2.6c0.5-0.8,1.4-1.5,2.3-1.4c1.1,0,1.9,0.9,3,1.3c0.9,0.3,1.8,0.2,2.8,0.2c2,0,4,0.5,5.8,1.5
		c0.9,0.5,2.2,2,1.2,2.3c-0.7,0.2-1.5,0.5-1.5,1.3s0.4,1.4,1,2c0.5,0.5,1.2,1,1.7,1.5c0.4,0.4,0.6,0.9,1,1.3c0.3,0.3,0.7,0.5,1,0.7
		c2,1.1,4.1,2.3,5.4,4.2c1.7,2.6,1.6,6,1.5,9.1c-0.1,1.8-0.3,3.2-1.2,4.7c-0.6,1-1.4,2.2-2.3,3c-3.6,3.6-7.6,6.7-12.1,9
		c-1,0.5-1.9,1.2-3,1.5c-1,0.3-2,0.3-2.9,0.3c-3.4,0-6.9,0-10-1.4C336.2,212.3,333.7,209.8,332,199.4z"/>
	<path clip-path="url(#SVGID_2_)" fill="#7BBCEB" stroke="#4E9BD7" stroke-miterlimit="10" d="M375.1,164.4c0.1,1.1-0.4,2.3,0.2,3.2
		c0.5,0.7,1.4,0.8,2.2,0.8c0.5,0,1-0.1,1.3-0.4c0.3-0.3,0.3-0.8,0.1-1.2c-0.2-0.4-0.4-0.8-0.6-1.2c-0.5-1.1-0.6-2.3-1.2-3.3
		c-0.5-0.8-1.3-1.3-2.3-1.4c-0.1,0-0.2,0-0.2,0c0,0-0.1,0.1-0.1,0.1c-0.3,0.5-0.2,1.2,0,1.7C374.7,163.3,375,163.9,375.1,164.4z"/>
	<path clip-path="url(#SVGID_2_)" fill="#7BBCEB" stroke="#4E9BD7" stroke-miterlimit="10" d="M373.1,153.3c-0.7-0.4-1.6,0-2.3-0.3
		c-0.3-0.2-0.5-0.5-0.8-0.7c-0.5-0.4-1.2-0.5-1.8-0.2c-0.3,0.1-0.2,0.6,0,0.8c0.2,0.2,0.4,0.4,0.6,0.6c0.2,0.2,0.3,0.5,0.4,0.8
		c0.5,1.1,0.8,2.3,1.1,3.5c0.1,0.6,0.2,1.3,0.6,1.8s1.2,0.8,1.7,0.4c0.7-0.5,0.6-1.7,1.4-1.9c0.5-0.1,0.9,0.2,1.4,0.4
		s1.1,0.3,1.3-0.2c0-0.1,0.1-0.2,0.1-0.3c0.2-1,0-2.2-0.9-2.7c-0.5-0.3-1.2-0.2-1.7-0.6C373.7,154.4,373.6,153.6,373.1,153.3z"/>
	<path clip-path="url(#SVGID_2_)" fill="#7BBCEB" stroke="#4E9BD7" stroke-miterlimit="10" d="M396.6,95.5c1.1-1.6,2.5,0.9,2.7-1.1
		c0.1-1-0.7-2-0.7-3c0-1.8-0.1-2.9,0.9-4.4c0.6-0.9,1.3-2,1.6-3c0.2-0.9-0.2-1.9-0.5-2.8c-1.2-2.9-2.5-5.9-3.7-8.8
		c-0.2-0.5-0.5-1.1-0.9-1.5c-0.4-0.4-0.8-0.7-1.3-0.8c-1-0.2-2.1,0.2-2.9,0.9c-0.8,0.7-1.4,1.6-1.9,2.5c-0.7,1.2-1.5,2.3-2.2,3.5
		c-0.3,0.5-0.6,1-0.7,1.5c-0.2,0.6-0.1,1.2-0.1,1.8c0.2,3.1,0.4,6.3,1.8,9c0.7,1.4,1.7,2.8,1.4,4.3c-0.2,1.1-1,1.9-1.6,2.8
		c-0.6,0.9-1.1,2.1-0.7,3.1c0.6,1.3,2.3,1.1,3.7,0.7C392.4,99.8,395.5,97,396.6,95.5z"/>
	<path clip-path="url(#SVGID_2_)" fill="#EAEAEA" stroke="#D6D6D6" stroke-miterlimit="10" d="M247.6,62.2c-0.3,0.4-0.7,0.6-1.1,0.8
		c-2.3,1.5-3.2,4.8-2,7.3c0.3,0.5,0.6,1,0.7,1.5c0.1,0.5,0,0.9,0,1.4c-0.1,1.8,0.8,3.4,1.6,4.9c0.8,1.5,2,3.1,3.7,3.1
		c1.5,0,2.8-1.2,4.3-0.9c0.4,0.1,0.8,0.3,1.2,0.5c1.4,0.9,2.5,2.4,4,3.2c2.1,1.1,4.9,0.5,6.5-1.2c1.7-1.7,2.1-4.4,1.3-6.6
		c-0.3-0.7-0.6-1.3-0.8-2s-0.1-1.5,0.3-2.1c0.2-0.2,0.5-0.4,0.7-0.7c0.2-0.5,0-1-0.2-1.4c-1.4-3-3.3-6.2-2.5-9.5
		c0.2-0.9,0.7-1.8,0.8-2.7c0.2-0.9,0-2-0.8-2.6c-1.2-0.9-4.1,0.3-4.1-1.2c0-2.3-1.5-4.4-4.5-4.5c-0.4,0-0.7,0-1.1,0.1
		c-0.7,0.2-1.1,0.8-1.6,1.3c-0.9,0.9-2.1,1.7-3.3,2.1c-1.1,0.4-2.2,0.6-3.1,1.3c-1.3,1.1-1.4,3.1-0.8,4.6
		C247.5,60.1,248.2,61.3,247.6,62.2z"/>
	<path clip-path="url(#SVGID_2_)" fill="none" stroke="#D6D6D6" stroke-miterlimit="10" d="M183.3,99.1c1-1.9,0.4-4.3-0.9-6.1
		c-1.2-1.8-3-3.1-4.6-4.5c-3.1-2.8-5.7-7-4.5-11c0.6-2,2.1-3.7,3.2-5.5c2.1-3.6,2.5-7.8,3.7-11.8c1.6-5.1,4.5-9.8,6.2-14.9
		c2-6.2,2.8-11.6,6.5-17"/>
	<path clip-path="url(#SVGID_2_)" fill="none" stroke="#4E9BD7" stroke-miterlimit="10" d="M589.6-77.8
		c-15.6-4.2-30.4,6.1-39.6,17.8c-2.2,2.8-3,8.8-7,8c-6.9-1.4-13.1-2.4-20-1c-4,0.8-8.9-1.3-13-3c-5.8-2.4-9.8-10.9-16.5-13.7
		c-1.1-0.5-2.1-0.5-2.5-1.6c-0.4-1.1-0.3-2.4-0.2-3.5c0.2-3.4,0.4-6.7,0.6-10.1c0.1-0.9,0.1-1.8-0.2-2.7c-0.4-1.1-1.3-1.9-2.1-2.8
		c-1.7-1.9-2.9-4.2-4-6.5c-0.5-1.1-1.1-2.2-1.6-3.3c-0.6-1.3-1.3-2.6-1.8-3.9c-1.5-3.7-2.1-7.8-1.9-11.7c0.2-3.1,0.6-7-2.1-8.5"/>
	<path clip-path="url(#SVGID_2_)" fill="#EAEAEA" stroke="#D6D6D6" stroke-miterlimit="10" d="M289.8,351.6
		c-1.3-0.3-2.2-1.5-2.7-2.8c-0.4-1.3-0.4-2.6-0.4-4c0-0.5,0-1.2,0.5-1.5c0.4-0.3,1-0.1,1.3,0.2c0.4,0.3,0.6,0.7,0.9,1.1
		c1.2,1.7,3.4,2.6,5.4,2.4c0.6-0.1,1.2-0.3,1.9-0.2s1.3,0.3,1.5,0.9c0.4,0.9-0.6,1.8-1.5,2.3c-1.6,0.9-3.4,1.4-5.2,1.6
		C291,351.7,290.4,351.7,289.8,351.6z"/>
	<path clip-path="url(#SVGID_2_)" fill="#EAEAEA" stroke="#D6D6D6" stroke-miterlimit="10" d="M310.2,326.5c-0.4-0.5-1-0.9-1.6-1.2
		c-0.7-0.3-1.5-0.3-2.2,0c-0.7,0.2-1.3,0.8-1.3,1.5c0,0.6,0.4,1,0.9,1.4c1.6,1.4,5.1,2.9,5.7,0.9C312,328.2,310.9,327.3,310.2,326.5
		z"/>
	<path clip-path="url(#SVGID_2_)" fill="#EAEAEA" stroke="#D6D6D6" stroke-miterlimit="10" d="M306,309.5c0.9,0.5,2.4,0.4,2.6-0.6
		c0.2-0.8-0.7-1.5-1.5-1.8c-0.6-0.2-1.2-0.4-1.7-0.1c-0.4,0.3-0.5,0.9-0.3,1.4S305.6,309.3,306,309.5z"/>
	<path clip-path="url(#SVGID_2_)" fill="#EAEAEA" stroke="#D6D6D6" stroke-miterlimit="10" d="M146.3,353.2c1.8-1.1,3.1-2.9,4.5-4.6
		c1.9-2.3,4.2-4.3,6.7-6c1.4-0.9,4.3-1.2,5,0.3c0.2,0.4-0.1,1.1,0.2,1.4c0.7,0.7,1.1,0.9,1.5,1c2.4,0.7,3.9,1.2,5.7,3
		c0.5,0.5,1,1.1,1.1,1.8c0.1,0.8,0.4,2.4,0.3,3.1c-0.4,2.9,4.1,4.7,2.4,7c-3.7,4.9-10.5,2.1-11.2,1.5c-0.8-0.7,0.8,2.5,0,3.3
		c-1.2,1.2-3.3-1-5-1.5c-1.7-0.5-3,0.9-4.7,1.1c-0.9,0.1-1.7-0.5-2.4,0c-0.7,0.5-1.2,1.3-1.9,1.9c-1.3,1.2-3.4,1.6-4.9,0.8
		c-1.5-0.9-0.2-2.9-0.9-4.5c-0.6-1.4-3.6,0.3-4.4-0.9c-0.2-0.3-0.3-1,0-1.3c0.6-0.6,1.7-0.2,1.9-1c0.4-1.8-1.3-3.8,0.2-4.8
		c0.6-0.4,1.3-0.4,2-0.4C143.9,354.2,145.2,353.9,146.3,353.2z"/>
	<path clip-path="url(#SVGID_2_)" fill="#EAEAEA" stroke="#D6D6D6" stroke-miterlimit="10" d="M82.2,366c0.2-0.5,0.7-0.8,0.9-1.2
		c0.6-1.1,0.2-2.5,0.3-3.7c0.2-2.4,3.7-6,5.1-4c0.7,1-0.6,2.4-0.9,3.6c-0.1,0.2-0.1,0.5,0,0.7c0.1,0.2,0.4,0.2,0.6,0.3
		c3,0.8,4.3,4.5,3.9,7.6c-0.4,3.1-3.2,8.5-0.6,10.2c0.7,0.5,2,0.5,2.4,1.3c0.5,0.9,1.1,1.9,0.8,2.9c-0.3,1.1-1.5,1.7-2.6,2.2
		c-1.5,0.6-3.2,1.5-4.7,1.1c-1.3-0.3-2.2-1.4-3.4-2s-1.9,0.8-3,0.1c-1.2-0.7-1.8-7.5-0.7-10.6c0.7-1.9,2.4-2.3,2-5.1
		C82,368.1,81.7,367,82.2,366z"/>
	<path clip-path="url(#SVGID_2_)" fill="#7BBCEB" stroke="#4E9BD7" stroke-miterlimit="10" d="M55.3,393.2c-0.7-0.3-1.7-0.1-2.2,0.5
		c-0.5,0.6-0.9,1.8-0.2,2.2c0.5,0.4,1,0.8,1.4,1.3c0.7,0.7,1.9,0.8,2.7,0.3s1.8-1.9,1.1-2.5C57.3,394.3,56.4,393.7,55.3,393.2z"/>
	<path clip-path="url(#SVGID_2_)" fill="none" stroke="#D6D6D6" stroke-miterlimit="10" d="M90.1,362.6c1.1,0.4,2.2-0.6,2.7-1.7
		s0.8-2.3,1.7-3.1c1.2-0.9,2.9-0.6,4.3-0.4c5.1,1,10.4,1.3,15.6,0.8c1.4-0.1,2.8-0.3,4,0.3c0.7,0.3,1.3,0.8,2.1,1
		c1.2,0.2,2.3-0.5,3.3-1.1c4.7-2.4,11.2-1,16.2,0.5"/>
	<path clip-path="url(#SVGID_2_)" fill="none" stroke="#4E9BD7" stroke-miterlimit="10" d="M58.4,395.3c3.7,0.2,3.7-3.5,4.6-5.1
		c0.4-0.7,1.6,0,2.2-0.6s0.9-1.3,1.2-2.1c0.7-1.7,1.4-3.5,2.1-5.2c0.3-0.6,0.5-1.3,0.9-1.9c1-1.5,2.8-2.4,4.6-2.6s3.6-0.1,5.4,0.2"
		/>
	<path clip-path="url(#SVGID_2_)" fill="none" stroke="#4E9BD7" stroke-miterlimit="10" d="M-25.2,371.6c2.1-1.2,4.1-2.4,6.2-3.6
		c2.1-1.2,4.3-2.5,6.7-2.6c2.4-0.1,4.8,1.1,6.2,3c0.5,0.7,0.9,1.5,1.5,2c0.9,0.8,2.1,0.9,3.2,1.2c4.8,1.2,8.6,4.8,12.4,8.1
		c1,0.9,2,1.8,3.2,2.3c0.9,0.4,2,0.5,2.9,1c1.2,0.7,2,2.1,3.3,2.8c2.8,1.3,6.5-1.7,8.8,0.3c0.6,0.6,1,1.4,1.6,2
		c0.9,0.8,2.1,0.9,3.3,1c2.3,0.1,4.7,0.3,7,0.4c0.5,0,1.1,0.1,1.5,0.4c0.4,0.3,0.5,0.9,0.7,1.4c0.6,1.6,2.2,2.7,3.9,3.2
		s3.4,0.4,5.2,0.4"/>
	<path clip-path="url(#SVGID_2_)" fill="none" stroke="#D6D6D6" stroke-miterlimit="10" d="M-13.6,365.5c1-4.8,4-9.1,8.2-11.7
		c1.6-1,3.4-1.8,5-2.8c5.5-3.6,8.6-10.6,7.4-17c-0.3-1.9-1-3.7-1.3-5.6c-0.6-3.5-0.1-7.2,0.4-10.7c0.2-1.5,0.4-3,1.1-4.4
		c0.5-1,1.3-1.8,1.7-2.8c1.1-2.5,0.3-5.5,1.7-7.8c1.5-2.5,5.2-3.2,6.1-6c0.2-0.6,0.3-1.4,0.8-1.8c0.3-0.2,0.7-0.3,1-0.5
		c0.7-0.6,0.2-1.7-0.5-2.1s-1.7,0.2-2.6-0.1c-1.4-0.5-0.2-3,1-4.1c1.1-1,2.3-1.8,3.2-2.8"/>
	<path clip-path="url(#SVGID_2_)" fill="#7BBCEB" stroke="#4E9BD7" stroke-miterlimit="10" d="M380.5,349.6c0.5,1.5,1.9,2.6,3.4,3.1
		s3.1,0.6,4.7,0.7c0.8,0,1.7,0.1,2.4-0.4c0.4-0.3,0.7-0.6,1.1-0.9c1.1-0.9,2.8-0.9,3.9-2c1.4-1.4,0.8-3.9,1.4-5.8
		c0.2-0.5,0.5-1.1,0.3-1.6c-0.2-0.7-1-1.1-1.8-1.3c-1.1-0.3-2.1-0.5-3.2-0.6c-0.8-0.1-1.7-0.1-2.2,0.5c-0.3,0.3-0.4,0.8-0.7,1.1
		c-0.6,0.6-1.6,0.6-2.4,0.4c-2.3-0.4-4.6-0.8-6.9-1.2c-0.3-0.1-0.7-0.1-1,0.1c-0.2,0.2-0.3,0.4-0.4,0.7c-0.4,1.7-0.1,3.5,0.3,5.2
		c0.1,0.3,0.1,0.6,0.3,0.8c0.1,0.2,0.3,0.3,0.5,0.5C380.4,349.1,380.5,349.4,380.5,349.6z"/>
	<path clip-path="url(#SVGID_2_)" fill="none" stroke="#4E9BD7" stroke-miterlimit="10" d="M588.2,225.6c-4.6-0.8-7.1,5-8.4,9.5
		c-3.5,12.2-10.4,23.6-20.5,31.3c-5.3,4-12.1,8.7-11.1,15.2c0.2,1,0.5,2.2,0.1,3.1c-0.4,0.8-1.2,1.3-1.8,1.9
		c-1.4,1.4-1.9,3.5-2.4,5.4c-2.9,12.8-7.1,25.2-12.5,37.2c-2.9,6.4-6.2,12.6-8.4,19.3c-2.6,7.8-3.7,16.1-4.8,24.3
		c-0.6,4.8-1.3,9.5-1.9,14.3c-0.4,2.9-0.8,5.8-0.5,8.7c0.4,4.5,2.5,8.9,1.8,13.4c-0.4,2.9-1.9,5.5-1.9,8.4c0,2.4,1.1,4.7,1.7,7
		c1.9,7.2-0.3,14.7-1.3,22.1c-0.8,6.4-0.7,12.9,0.4,19.3c1.7,9.3,5.4,18.9,2.3,27.8"/>
	<path clip-path="url(#SVGID_2_)" fill="#FFFFFF" stroke="#4E9BD7" stroke-miterlimit="10" d="M84.8,376.6c-0.3,0.7,0.4,1.5,1.1,1.5
		c1.1,0,2.2-1.6,1.4-2.3c-0.6-0.5-1.5-0.1-2.1,0.3C85,376.2,84.9,376.4,84.8,376.6z"/>
	<path clip-path="url(#SVGID_2_)" fill="#FFFFFF" stroke="#D6D6D6" stroke-miterlimit="10" d="M231.5,124.1c0.2-0.2,0.4-0.4,0.4-0.7
		c0.1-0.5-0.4-1.1-0.9-1.1c-0.4,0-0.7,0.2-0.9,0.5c-0.2,0.3-0.2,0.7-0.2,1c0,0.1,0,0.1,0,0.2c0.1,0.1,0.2,0.2,0.4,0.2
		C230.7,124.2,231.2,124.3,231.5,124.1z"/>
	<path clip-path="url(#SVGID_2_)" fill="#FFFFFF" stroke="#D6D6D6" stroke-miterlimit="10" d="M228.1,119.5
		c-0.4,0.3-0.4,0.9-0.4,1.4c0,0.3,0,0.6,0.2,0.8c0.2,0.1,0.4,0.2,0.6,0.1c0.4-0.1,0.8-0.3,1-0.6c0.3-0.4,0.3-1,0-1.4
		S228.5,119.2,228.1,119.5z"/>
	<path clip-path="url(#SVGID_2_)" fill="#FFFFFF" stroke="#D6D6D6" stroke-miterlimit="10" d="M233.2,120.1c0,0.3,0,0.6,0.2,0.8
		c0.2,0.2,0.5,0.3,0.7,0.2s0.5-0.2,0.7-0.4c0.2-0.2,0.4-0.4,0.4-0.7c-0.1-0.2-0.3-0.4-0.5-0.5c-0.2-0.1-0.5-0.2-0.8-0.2
		c-0.3,0-0.5,0.1-0.7,0.4C233.2,119.8,233.2,120,233.2,120.1z"/>
	<path clip-path="url(#SVGID_2_)" fill="#FFFFFF" stroke="#4E9BD7" stroke-miterlimit="10" d="M396.8,81.6c0.2-0.1,0.3-0.4,0.4-0.6
		c0.2-0.7,0.1-1.6-0.5-2.1c-0.6-0.5-1.7-0.7-2.1,0c-0.3,0.5-0.1,1.1,0.2,1.6c0.2,0.4,0.5,0.7,0.8,1
		C395.9,81.6,396.4,81.8,396.8,81.6z"/>
	<path clip-path="url(#SVGID_2_)" fill="#FFFFFF" stroke="#D6D6D6" stroke-miterlimit="10" d="M264,69.9c0-0.7-0.7-1.1-1.4-1.1
		c-0.7,0-1.2,0.5-1.7,0.9c-0.6,0.6-1.2,1.3-1.6,2.1c-0.1,0.2-0.2,0.3-0.2,0.5c-0.1,0.6,0.7,1.1,1.3,1s1.1-0.5,1.6-0.9
		c0.5-0.5,1.1-1,1.5-1.5C263.8,70.5,264,70.2,264,69.9z"/>
	<g clip-path="url(#SVGID_2_)">
		<g>
			<path fill="none" stroke="#585858" stroke-miterlimit="10" d="M-26.5,308.2c0.6-0.4,1.1-0.8,1.6-1.2"/>
			<path fill="none" stroke="#585858" stroke-miterlimit="10" stroke-dasharray="4.004,1.001" d="M-24.1,306.4
				c7.4-6.2,11.6-16.2,10.7-25.8c-0.4-4.1-1.6-8.6,0.4-12.3c1.7-3.1,5.2-4.6,8.4-5.9c9.5-3.8,25.2-6.4,29.3-8.6
				c0.8-0.4-0.8-1.7-1.1-2.5s-1.7-3.4-0.7-3.6c0.9-0.2,1.6,0.9,2.4,1.3s1.7,0.8,2-0.1c0.7-1.6-3.1-3.3-1.9-4.6
				c0.6-0.6,2,0.9,2.7,0.3c1.5-1.5-2.6-4.4-1.4-6.2c0.7-1.1,3.1,0.3,3.7-0.9c0.7-1.5-2.3-3.9-1.1-4.9c1-0.8,3,1.7,3.8,0.7
				c0.9-1-0.5-3,0.4-3.9c0.7-0.7,2.1,0.6,2.9,0c1.6-1.1-1.4-5,0.4-5.7c2.5-1,4.9-0.7,6.4-2.9c1.6-2.3,3.2-4.7,3.8-7.5
				c0.6-2.5-2.1-5.1-1-7.4c0.3-0.7,1.8,0.2,2.2-0.4c0.5-0.7-0.9-1.7-0.4-2.3c0.6-0.7,2.3,0.5,2.8-0.3c0.5-1-1.1-2.1-0.8-3.1
				c0.3-1.1,1.5-0.5,2.5-0.8c0.9-0.3-0.7-2.2,0-2.8c0.6-0.5,2,0.8,2.4,0.1c2.2-3.9,5.6-2.6,6.3-3.4c2.7-2.9-2.9-5.8,0.3-8.3
				c5.1-4,14.2-0.4,15.3,0.3c1.5,1,1.3-3.4,3.2-3.6c1.8-0.2,3.6,0.6,5.4,1c3.7,0.7,7.7-0.3,10.5-2.8c3.7-3.3,7.4-6,10-10.2
				c4.8-7.7,9.3-15.4,13.6-23.3c2.2-4,5.2-8.7,9.8-8.8c0.3,0,0.7,0,0.9-0.3c0.1-0.3-0.2-0.6-0.2-1c-0.1-0.6,0.5-1.1,1-1.5
				c3.3-2.1,6.5-8.2,9.8-6.2c1.5,1-2.2,4.5-0.6,5.4c3.5,2,6.9-8.6,10.4-6.4c3.5,2.3-5.8,8.4-3.4,11.9c3.5,5.1,11.4-13.5,15.9-9.2
				c0.9,0.9-1.3,3.1-0.3,3.8c1,0.7,2.4-2.1,3.5-1.5c0.7,0.4-0.4,2.2,0.3,2.3c1.3,0.2,1.6-3.6,2.7-2.9c2.3,1.3-1.9,7,0.6,7.8
				c0.7,0.2,0.9-1.8,1.6-1.6c0.9,0.2-0.1,2.5,0.8,2.7c2.3,0.4,2.7-3.9,4.1-5.8c0.3-0.5,0.8-1,1.3-0.9c1.1,0.1,1.6,2.8,2.4,2.1
				c0.8-0.7,0-2.5,0.8-3.2c0.9-0.7,2.6,1.5,3.3,0.6c0.9-1,0.4-2.9,1.8-3s2.7,0.9,3.3,2.2s0.9,2.7,1.2,4c0.5,2.3,1.4,4.5,2.4,6.6
				c0.9,2,1.8,4,3.4,5.5c4.4,4.2,12.3,3,16.5,7.4c2.6,2.7,8.4,0,10.4,3.2c0.9,1.4-0.8,1.7-0.1,3.3c0.6,1.6,1.8,2.9,3,4.2
				c2.3,2.5,4.9,5.2,8.3,5.5c2,0.2,4.1-0.5,6.1-0.2c1.4,0.2,2.8,0.9,4.2,0.6c1.8-0.5,3-2.7,4.9-2.5c2,0.2,3.4,3.1,5.3,2.3
				c2.2-0.9,0.3-4.6,1.7-6.4c0.3-0.4,0.8-0.7,1.1-1.1c1.7-2-0.7-4.9-0.2-7.5c0.2-1,0.9-1.9,1.5-2.8c1.4-1.8,2.8-3.6,4.2-5.4
				c0.8-1.1,2.4-0.7,3.3-1.7c1.8-1.8-4.5-4.6-3.2-6.8c1.4-2.4,6,2.6,8.4,1.1c2-1.2-2.3-4.6-1.2-6.7c0.7-1.4,2.8-1.6,2.9-3.1
				c0.1-1.5-2.3-2-2.4-3.5c-0.2-2.4,4.7-0.9,7.1-1.1c2.4-0.2,5.1-1,6.2-3.2c0.5-0.9,0.8-2.2,1.9-2.4c1.1-0.2,1.9,1.2,3,1.6
				c2,0.8,4.3-1.7,6.2-0.7c0.6,0.3,0.9,0.9,1.3,1.5c1.3,2.2,2.7,4.4,4,6.5c0.4,0.7,0.8,1.4,1.2,2c1.6,2.6,3.3,5.3,4.9,7.9
				c1.2,2,2.5,4,3.4,6.2c0.2,0.5,0.4,1.1,0.8,1.4c0.8,0.8,2.1,0.7,3.3,0.8c4.7,0.4,8.4,3.9,11.7,7.3c2.7,2.8,4.4,6.1,6.6,9.3
				c0.9,1.4,2.4,1.9,4.1,1.7c3-0.5,5.2-3,7.4-5.1s5.6-3.7,8.3-2.2c1.8,1,2.5,3.2,3.4,5c2.2,4.5,6.1,7.9,9.5,11.6
				c4.1,4.5,7.2,12.4,10.3,15c0.7,0.6,0-2.4,0.9-2.7c0.8-0.3,0.8,2.1,1.7,1.9c1.4-0.2,0-3.6,1.3-4.1c2.3-0.9,5.1-1.1,7.2,0.2
				c2.4,1.5,3.8,9.4,4.9,6.8c2-4.9,3.5-9.2,6.5-9.4c3.4-0.3,7.7-2.7,10.7-4.4c15.4-8.5,30.9-17.1,46.9-24.5c2-0.9,3.7-0.2,5.7,0.5
				c2.8,1,3.8-4.4,5.7-6.7c1.9-2.3,4.6-3.8,7.2-5.2c10.2-5.6,22.7-8.2,30.5-16.8c2.1-2.3,2.1-6,3.3-8.9c0.6-1.4,1.2-2.8,2.4-3.7
				c1.2-0.9,2.5,0.5,3.9,0.5c1.7-0.1,1.1-4.1,2.7-4.2c1.5,0,0.7,3.4,2.1,3.8c1.1,0.3,1.5-2.7,2.7-2.4c1.6,0.4-1.6,5.3,0,4.9
				c7-1.5,19.7-8.7,29.9-12.2c2.6-0.9,5.2-1.7,7.9-2.4c6.4-1.7,13.8-5.1,18.8-5.9c1.9-0.3-0.1,5.5,1.9,5.4c2.7-0.2,2.6-7.4,5.1-6.4
				c1.2,0.5-1,3.3,0.2,3.8c1.1,0.4,2.1-0.6,3.1-1.6"/>
			<path fill="none" stroke="#585858" stroke-miterlimit="10" d="M588.7,97.9c0.5-0.5,1.1-0.9,1.7-1.1"/>
		</g>
	</g>
	<g clip-path="url(#SVGID_2_)">
		<g>
			<path fill="none" stroke="#585858" stroke-miterlimit="10" d="M589.5,238.1c-0.4,0.5-0.9,1-1.3,1.5"/>
			<path fill="none" stroke="#585858" stroke-miterlimit="10" stroke-dasharray="4.0124,1.0031" d="M587.5,240.4
				c-13.2,15.5-24.5,32.6-33.5,50.8c-2.6,5.3-5,10.6-7.5,16c-3.5,7.8-7.1,15.6-10.6,23.4c-3.8,8.3-7.6,16.7-10,25.6
				c-1.3,4.6-2.2,9.4-3,14.1c-1.1,5.8-2.2,11.7-3.3,17.5c-0.2,1-0.4,1.9-0.2,2.9c0.1,1.1,0.7,2.2,1.1,3.2c2.3,5.9,1,12.6,2.1,18.9
				c1,5.7,1.8,13.6,2.1,16.9c0.5,4.2,4.7-10.7,8.7-9.4c4.6,1.6,1.5,15.5,5.7,13.1c4-2.3,1.3-14,5.2-11.5c4.2,2.8-1.9,17.4,2.6,14.9
				c3.7-2.1,5.2-32,8.4-47.9c0.9-4.4,1.8-8.9,4-12.8c1.5-2.7,3.6-5.3,4-8.4c0.3-2.7-0.8-5.5,0-8.1c0.4-1.5,1.4-2.8,2.4-4.1
				c3.2-4.2,6.4-8.3,9.6-12.5c2-2.6,4.4-5,6-7.9c2.8-5,4.9-10.3,8.2-14.9"/>
			<path fill="none" stroke="#585858" stroke-miterlimit="10" d="M589.7,319.9c0.4-0.5,0.8-1.1,1.2-1.6"/>
		</g>
	</g>
	<g clip-path="url(#SVGID_2_)">
		<g>
			<path fill="none" stroke="#585858" stroke-miterlimit="10" d="M87.8,182.8c-0.2,0.5-0.3,1.2-0.4,2"/>
			<path fill="none" stroke="#585858" stroke-miterlimit="10" stroke-dasharray="4.0377,1.0094" d="M87.4,185.7
				c0.1,1.3,0.4,2.6,1.1,3.6c1.3,1.9,3.1,3.8,2.9,6.1c-0.1,1.9-1.6,3.4-2.3,5.1c-1.5,3.4,0.1,7.8,3.3,9.5c1.1,0.6,2.3,0.9,3.2,1.7
				c3.2,2.7,0.7,8.1,2.4,12c0.4,1,1.1,1.8,1.6,2.7c2.9,5.1-0.1,11.5-0.4,17.4c-0.1,2.4,0.2,4.9-0.6,7.1c-0.8,2.3-3.6,2-5.4,3.6
				c-0.6,0.5,0.8,1.7,0.4,2.4c-0.5,0.9-2.4-0.3-3.1,0.4c-1.5,1.3-1.9,2.7-2.6,4.5c-0.9,2.2,2.4,4.4,1.3,6.5
				c-0.8,1.5-2.4,2.7-2.6,4.4c-0.1,1.1,0.5,2.2,0.6,3.3c0.5,3.7-3.7,6.4-4.3,10c-0.2,1.4,0,2.9-0.3,4.2c-0.8,3-4.2,4.4-7.1,5.4
				c-5.9,2-12.4,5.1-14.3,11c-1.7,5.5,1.3,11.7-0.4,17.3c-1.8,5.8-8.4,9.8-8.4,15.9c0,2.5,1.2,4.9,1.5,7.3
				c0.9,6.5-4.1,13.2-1.7,19.3c1.5,4,5.9,6.3,10.2,6.3c4.2,0,8.3-1.9,11.7-4.4c1.5-1.1,3.1-2.3,4.8-2.7"/>
			<path fill="none" stroke="#585858" stroke-miterlimit="10" d="M79.2,365.5c0.7-0.1,1.3-0.1,2,0.2"/>
		</g>
	</g>
	<g clip-path="url(#SVGID_2_)">
		<g>
			<polyline fill="none" stroke="#7D7D7D" stroke-miterlimit="10" points="85.2,341.6 85.2,348.7 275.4,348.7 275.4,341.7 			"/>
			<line fill="none" stroke="#7D7D7D" stroke-miterlimit="10" x1="180.5" y1="341.4" x2="180.5" y2="348.7"/>
			<line fill="none" stroke="#7D7D7D" stroke-miterlimit="10" x1="161.2" y1="349.2" x2="161.2" y2="343.7"/>
			<line fill="none" stroke="#7D7D7D" stroke-miterlimit="10" x1="142.4" y1="349.2" x2="142.4" y2="343.7"/>
			<line fill="none" stroke="#7D7D7D" stroke-miterlimit="10" x1="123.3" y1="349.2" x2="123.3" y2="343.5"/>
			<line fill="none" stroke="#7D7D7D" stroke-miterlimit="10" x1="104.6" y1="349.2" x2="104.6" y2="343.7"/>
		</g>
		<text transform="matrix(1 0 0 1 83.7837 339.1468)" fill="#7D7D7D" font-family="'Verdana'" font-size="8">0</text>
		<text transform="matrix(1 0 0 1 174.2948 339.1468)" fill="#7D7D7D" font-family="'Verdana'" font-size="8">0.5</text>
		<text transform="matrix(1 0 0 1 258.3417 339.1468)" fill="#7D7D7D" font-family="'Verdana'" font-size="8">1 mi</text>
	</g>
	<g clip-path="url(#SVGID_2_)">
		<text transform="matrix(1 0 0 1 300.5424 44.5295)"><tspan x="0" y="0" fill="#585858" font-family="'Verdana-Italic'" font-size="8">Grand</tspan><tspan x="0" y="9.6" fill="#585858" font-family="'Verdana-Italic'" font-size="8">Mountain</tspan></text>
	</g>
	<g clip-path="url(#SVGID_2_)">
		<text transform="matrix(1 0 0 1 67.6745 150.0958)"><tspan x="0" y="0" fill="#585858" font-family="'Verdana-Italic'" font-size="8">Ten Lakes</tspan><tspan x="22.5" y="9.6" fill="#585858" font-family="'Verdana-Italic'" font-size="8">Pass</tspan></text>
	</g>
	<g clip-path="url(#SVGID_2_)">
		<text transform="matrix(1 0 0 1 84.1661 52.7713)" fill="#585858" font-family="'Verdana-Italic'" font-size="8"> 9626</text>
	</g>
	<g clip-path="url(#SVGID_2_)">
		<text transform="matrix(1 0 0 1 272.4972 79.7998)" fill="#585858" font-family="'Verdana-Italic'" font-size="8">Ten Lakes (i)</text>
	</g>
	<g clip-path="url(#SVGID_2_)">
		<text transform="matrix(1 0 0 1 59.0099 47.8254)"><tspan x="0" y="0" fill="#585858" font-family="'Verdana-Italic'" font-size="8">Colby</tspan><tspan x="-14.6" y="9.6" fill="#585858" font-family="'Verdana-Italic'" font-size="8">Mountain</tspan></text>
	</g>
	<g clip-path="url(#SVGID_2_)">
		<text transform="matrix(1 0 0 1 227.4972 110.1331)" fill="#585858" font-family="'Verdana-Italic'" font-size="8">Ten Lakes (ii)</text>
	</g>
	<g clip-path="url(#SVGID_2_)">
		<text transform="matrix(1 0 0 1 190.4972 183.7998)" fill="#7BBCEB" font-family="'Verdana-Italic'" font-size="8">Ten Lakes (iii)</text>
	</g>
	<g clip-path="url(#SVGID_2_)">
		<text transform="matrix(1 0 0 1 192.8305 233.1331)" fill="#585858" font-family="'Verdana-Italic'" font-size="8">Ten Lakes (iv)</text>
	</g>
	<g clip-path="url(#SVGID_2_)">
		<text transform="matrix(1 0 0 1 272.8313 269.4673)" fill="#585858" font-family="'Verdana-Italic'" font-size="8">Ten Lakes (v)</text>
	</g>
	<g clip-path="url(#SVGID_2_)">
		<text transform="matrix(1 0 0 1 373.1639 206.7998)" fill="#585858" font-family="'Verdana-Italic'" font-size="8">Ten Lakes (vi)</text>
	</g>
	<g clip-path="url(#SVGID_2_)">
		<text transform="matrix(1 0 0 1 144.1638 377.4664)"><tspan x="0" y="0" fill="#585858" font-family="'Verdana-Italic'" font-size="8">Grant</tspan><tspan x="0" y="9.6" fill="#585858" font-family="'Verdana-Italic'" font-size="8">Lakes (upper)</tspan></text>
	</g>
	<g clip-path="url(#SVGID_2_)">
		<text transform="matrix(1 0 0 1 402.4995 163.7712)" fill="#585858" font-family="'Verdana-Italic'" font-size="8"> 9636</text>
	</g>
	<g clip-path="url(#SVGID_2_)">
		<text transform="matrix(1 0 0 1 160.1661 287.7712)" fill="#585858" font-family="'Verdana-Italic'" font-size="8"> 10183</text>
	</g>
	<g clip-path="url(#SVGID_2_)">
		<text transform="matrix(1 0 0 1 254.4994 402.7712)" fill="#585858" font-family="'Verdana-Italic'" font-size="8"> 10542</text>
	</g>
	<g clip-path="url(#SVGID_2_)">
		<path fill="none" d="M307.1,226.2c-2.2,3.5-2,8.4,0.6,11.6c2,2.5,5,3.8,7.6,5.5c4.2,2.7,7.6,6.4,10.2,10.6"/>
		<text transform="matrix(0.7467 0.6652 -0.6652 0.7467 305.6421 239.5639)"><tspan x="0" y="0" fill="#7D7D7D" font-family="'Verdana-Italic'" font-size="7">9</tspan><tspan x="5" y="-0.2" fill="#7D7D7D" font-family="'Verdana-Italic'" font-size="7" rotate="-10.8">6</tspan><tspan x="9.1" y="-1" fill="#7D7D7D" font-family="'Verdana-Italic'" font-size="7" rotate="-6.2">0</tspan><tspan x="13.2" y="-1.5" fill="#7D7D7D" font-family="'Verdana-Italic'" font-size="7" rotate="2">0</tspan></text>
	</g>
	<g clip-path="url(#SVGID_2_)">
		<path fill="none" d="M319.9,85.9c2.6,3.6,6,6.7,7.6,10.9c3,7.5-0.1,16.7,4.2,23.5c3.4,5.3,10.4,7.1,16.6,6.5"/>
		<text transform="matrix(0.5847 0.8113 -0.8113 0.5847 321.6821 92.1498)"><tspan x="0" y="0" fill="#7D7D7D" font-family="'Verdana-Italic'" font-size="7">9</tspan><tspan x="3.9" y="-0.1" fill="#7D7D7D" font-family="'Verdana-Italic'" font-size="7" rotate="12">2</tspan><tspan x="7.7" y="0.7" fill="#7D7D7D" font-family="'Verdana-Italic'" font-size="7" rotate="26.1">0</tspan><tspan x="11.4" y="2.5" fill="#7D7D7D" font-family="'Verdana-Italic'" font-size="7" rotate="33.1">0</tspan></text>
	</g>
	<g clip-path="url(#SVGID_2_)">
		<path fill="none" d="M221.2,314.6c1.4,1.7,1.7,4,2.1,6.2c2.6,14.2,14.5,26.3,28.8,28.9c0.8,0.2,1.7,0.3,2.5,0"/>
		<text transform="matrix(0.3837 0.9234 -0.9234 0.3837 222.0835 326.6625)"><tspan x="0" y="0" fill="#7D7D7D" font-family="'Verdana-Italic'" font-size="7">1</tspan><tspan x="4.8" y="0" fill="#7D7D7D" font-family="'Verdana-Italic'" font-size="7" rotate="-7.1">0</tspan><tspan x="9.5" y="-0.6" fill="#7D7D7D" font-family="'Verdana-Italic'" font-size="7" rotate="-14">0</tspan><tspan x="14.1" y="-1.8" fill="#7D7D7D" font-family="'Verdana-Italic'" font-size="7" rotate="-20.7">0</tspan><tspan x="18.6" y="-3.5" fill="#7D7D7D" font-family="'Verdana-Italic'" font-size="7" rotate="-27.4">0</tspan></text>
	</g>
	<g clip-path="url(#SVGID_2_)">
		<path fill="none" d="M192.3-5.2c2.2-1.8,5.4-1.4,8.1-2.1c2.9-0.7,5.3-2.7,7.5-4.6c2.5-2.1,5-4.3,7.6-6.4c1.5-1.2,2.9-2.5,4.1-4
			c1.3-1.6,2.1-3.6,3.3-5.3c2.7-3.8,6.9-6.2,10.1-9.7"/>
		<text transform="matrix(0.7644 -0.6448 0.6448 0.7644 210.6582 -10.941)"><tspan x="0" y="0" fill="#7D7D7D" font-family="'Verdana-Italic'" font-size="7">8</tspan><tspan x="4.4" y="0" fill="#7D7D7D" font-family="'Verdana-Italic'" font-size="7">0</tspan><tspan x="9.1" y="0.1" fill="#7D7D7D" font-family="'Verdana-Italic'" font-size="7" rotate="-2.8">0</tspan><tspan x="14.1" y="-0.2" fill="#7D7D7D" font-family="'Verdana-Italic'" font-size="7" rotate="-17.3">0</tspan></text>
	</g>
	<g clip-path="url(#SVGID_2_)">
		<path fill="none" d="M259.4,39.9c3-27.5,8.2-54.8,15.7-81.5"/>
		<text transform="matrix(0.1222 -0.9925 0.9925 0.1222 262.5185 34.8759)"><tspan x="0" y="0" fill="#7D7D7D" font-family="'Verdana-Italic'" font-size="7">9</tspan><tspan x="4.4" y="0" fill="#7D7D7D" font-family="'Verdana-Italic'" font-size="7" rotate="0.5">0</tspan><tspan x="8.9" y="0" fill="#7D7D7D" font-family="'Verdana-Italic'" font-size="7" rotate="1">0</tspan><tspan x="13.3" y="0.1" fill="#7D7D7D" font-family="'Verdana-Italic'" font-size="7" rotate="1.5">0</tspan></text>
	</g>
	<g clip-path="url(#SVGID_2_)">
		<path fill="none" d="M236.9,206.4c9.5,0.2,17.3-7.3,23.8-14.3c10-10.8,20.8-23.6,18.8-38.2"/>
		<text transform="matrix(0.6579 -0.7531 0.7531 0.6579 265.5947 190.6078)"><tspan x="0" y="0" fill="#7D7D7D" font-family="'Verdana-Italic'" font-size="7">9</tspan><tspan x="4.6" y="0" fill="#7D7D7D" font-family="'Verdana-Italic'" font-size="7" rotate="-2.1">2</tspan><tspan x="9.1" y="-0.2" fill="#7D7D7D" font-family="'Verdana-Italic'" font-size="7" rotate="-4.9">0</tspan><tspan x="13.7" y="-0.5" fill="#7D7D7D" font-family="'Verdana-Italic'" font-size="7" rotate="-8.5">0</tspan></text>
	</g>
	<g clip-path="url(#SVGID_2_)">
		<path fill="none" d="M384.9,10.2c6.5-4.2,14.4-5.5,22-6.7c2.6-0.4,5.2-0.8,7.9-0.7c6.4,0.3,15.2-1.8,18.8,3.5"/>
		<text transform="matrix(0.9458 -0.3248 0.3248 0.9458 390.8618 9.8075)"><tspan x="0" y="0" fill="#7D7D7D" font-family="'Verdana-Italic'" font-size="7">8</tspan><tspan x="4.2" y="0" fill="#7D7D7D" font-family="'Verdana-Italic'" font-size="7" rotate="5.1">6</tspan><tspan x="8.5" y="0.4" fill="#7D7D7D" font-family="'Verdana-Italic'" font-size="7" rotate="8.5">0</tspan><tspan x="12.8" y="1.1" fill="#7D7D7D" font-family="'Verdana-Italic'" font-size="7" rotate="10.1">0</tspan></text>
	</g>
	<g clip-path="url(#SVGID_2_)">
		<path fill="none" d="M101.1,114.9c3.6,1.4,6.3-4.4,10-5.8c8.7-3.3,17.3-13.3,26-9.9"/>
		<text transform="matrix(0.8965 -0.4431 0.4431 0.8965 112.4365 111.3564)"><tspan x="0" y="0" fill="#7D7D7D" font-family="'Verdana-Italic'" font-size="7">9</tspan><tspan x="4.7" y="0" fill="#7D7D7D" font-family="'Verdana-Italic'" font-size="7" rotate="-5.2">4</tspan><tspan x="9.2" y="-0.5" fill="#7D7D7D" font-family="'Verdana-Italic'" font-size="7" rotate="-6">0</tspan><tspan x="13.4" y="-1" fill="#7D7D7D" font-family="'Verdana-Italic'" font-size="7" rotate="-2.6">0</tspan></text>
	</g>
	<path clip-path="url(#SVGID_2_)" fill="none" stroke="#4E9BD7" stroke-miterlimit="10" d="M211.2-122.2c1.9,6.2,2.2,12.9,0.8,19.3
		c-0.9,4.1-2.5,8.1-4.1,12.1c-1.3,3.3-2.6,6.5-3.9,9.8c-2.5,6.3-5.9,12.7-8.7,18.9c-1.4,3.1-2,6.1-3.1,9.3
		c-2.4,7.8-2.2,16.7-6.9,23.4c-0.7,1-1.5,2-1.8,3.2c-0.5,2.2,1,4.2,2.1,6.2c1,1.9,1.7,4,2.3,6.1c1.6,5.8,2.7,11.8,3.1,17.8
		c0.9,12,1.5,24.7,3.4,36.6c0.4,2.5,0.8,5,1.7,7.3c1.1,3.1,3,5.9,4.6,8.7c1.3,2.4,2.4,4.8,3.5,7.3c2.7,6.2,7.6,12.3,8.4,19.1
		c0.5,4.5,1.8,8.9,4.1,12.9c1.7,3,0,5.5,2.2,8.8"/>
	<path clip-path="url(#SVGID_2_)" fill="#7BBCEB" stroke="#4E9BD7" stroke-miterlimit="10" d="M185.9,180.4
		c1.2-5.3,3.4-16.3-1.4-14.8c-7,2.2-15,15.1-12.9,22.8c0.4,1.5,2,1.5,2.1,2.4c0.1,1.4,0.3,3.1,2.8,4.1c3,1.1,4.6-1.8,6.1-5.2
		c0.3-0.6,0.5-1.1,0.7-1.7c0.1-0.2,0.1-0.4,0.2-0.5c0.1-0.2,0.3-0.3,0.4-0.5c0.4-0.4,0.8-0.8,1.1-1.2c0.2-0.2,0.4-0.4,0.4-0.6
		c0.1-0.2,0.1-0.4,0.1-0.6C185.7,183.1,185.6,181.7,185.9,180.4z"/>
</g>
</svg>
