<?xml version="1.0" encoding="utf-8"?>
<!-- Generator: Adobe Illustrator 17.1.0, SVG Export Plug-In . SVG Version: 6.00 Build 0)  -->
<!DOCTYPE svg PUBLIC "-//W3C//DTD SVG 1.1//EN" "http://www.w3.org/Graphics/SVG/1.1/DTD/svg11.dtd">
<svg version="1.1" id="Layer_1" xmlns="http://www.w3.org/2000/svg" xmlns:xlink="http://www.w3.org/1999/xlink" x="0px" y="0px"
	 viewBox="0 0 360 360" enable-background="new 0 0 360 360" xml:space="preserve">
<path fill="none" stroke="#E1E1E1" stroke-miterlimit="10" d="M349.6,376.7c0-5,0-9.9,0-14.9c0-1.2,0.8-3.3,1.7-2.5
	c0.7,0.7,1.4,2.3,2,1.7c3-3.2,1-8.6,1.7-13c0.8-5.3,0-10.7-0.8-16c-0.9-6.4-1.9-12.7-2.8-19.1c-0.5-3.2-0.9-6.7,0.4-9.7
	c1.3-3,6.9-6.4,8-3.3c0.6,1.6-2.9,3.9-1.5,4.7c4.1,2.4,7-10.3,11.4-8.4c2.2,1,1.2,4.6,1.8,6.9c0.2,0.6,0.3,1.2,0.2,1.7
	c-0.2,0.8-0.9,1.4-1.5,2c-2.7,2.8-4.7,8.7-1.4,10.8c1.2,0.7,2.9-0.5,4.1,0.2c2.1,1.3,2.3,4.5,2.1,6.9c-0.2,2.2-1.5,4.1-2.3,6.2
	c-0.8,2.1-0.8,4.8,1,6.1c1.9,1.4,2.9-1.7,5-2.7c3.6-1.7,7,4.1,10.9,4"/>
<path fill="none" stroke="#E1E1E1" stroke-miterlimit="10" d="M390.1,211.2c-6.2,6.3-12.4,12.7-18.6,19c-3,3.1-6,6.2-9.7,8.4
	c-2.6,1.6-5.5,2.7-8,4.4c-2.2,1.5-4.1,3.4-6,5.3c-6.5,6.9-12.3,14.4-17.2,22.5c-1.5,2.6-5.8,6.9-6.9,4.2c-1.7-4.1,2.5-8.6,3.7-12.8
	c3.2-11.2,6.5-22.3,10.2-33.3c1.2-3.7,2.4-8.3-0.3-11.1c-0.6-0.6-1.3-1.1-1.7-1.7c-2.3-3.3,2.6-7.8,1.2-11.6c-0.4-1-1.2-1.9-2-2.7
	c-5.8-6.1-10-13.6-12.1-21.7c-0.5-1.9-0.9-3.8-0.7-5.8c1-9.1,13.8-12.4,16.5-21.1c0.6-1.8,0.6-3.7,1.3-5.4c1.7-4.4,6.5-6.6,10.1-9.8
	c6.9-6.1,9-15.9,14.3-23.5c2.8-4.1,6.6-7.5,11-9.9c2.6-1.4,5.4-2.5,7.4-4.7c1.9-2.1,2.8-4.9,3.7-7.7c1.7-5.4,3.3-10.9,5-16.3"/>
<path fill="none" stroke="#E1E1E1" stroke-miterlimit="10" d="M385.2,111.3c-7.9,12.5-16.2,24.7-24.8,36.7c-1.7,2.4-3.5,4.8-5.8,6.5
	c-3.7,2.7-8.7,3.5-11.5,7.1c-3.5,4.5-1.9,10.9-0.2,16.3c0.9,2.8,1.8,5.6,3.5,8c1.6,2.3,3.8,4.1,4.9,6.7c1,2.3,1.1,5,2.1,7.3
	c1,2.3,4.1,1.5,6,3.1c3,2.4,2.7,7.9,6.4,7.1c2.8-0.6,4.7-3.1,6.2-5.5c5.6-8.5,10.8-17.3,15.5-26.4"/>
<path fill="none" stroke="#E1E1E1" stroke-miterlimit="10" d="M385.5,132.5c-2,1.5-4,2.9-5.9,4.4c-3.9,2.9-8,6-9.6,10.6
	c-0.6,1.7-0.8,3.5-1.3,5.2c-0.8,2.8-2.5,5.2-3.5,7.9c-2.8,7.5-0.1,16.3-3,23.7c-0.5,1.3-1.2,2.6-1.3,4.1s1.1,3.5,2.4,3
	c13.3-5.9,18.3-22.8,24.4-36"/>
<path fill="none" stroke="#E1E1E1" stroke-miterlimit="10" d="M272.1,375.7c1.7-2.4,4.2-4.2,7-5c1.4-0.4,2.9-0.6,4.2-1.4
	c3.6-2.1,4.4-7.8,8.5-8.8c0.7-0.2,1.4-0.2,2-0.5c1.3-0.7,1.5-2.5,2.1-3.9c1.2-2.7,4.3-4,7.2-4.3c1.4-0.1,2.9,0,3.8,1.1
	c0.6,0.7,0.7,1.7,0.8,2.6c0.3,2.8,0.3,5.6-0.1,8.3c-0.2,1.7-0.6,3.5-0.2,5.2c0.3,1.4,1.1,2.6,1.9,3.8c1.5,2.3,3.1,4.7,4.6,7"/>
<path fill="none" stroke="#E1E1E1" stroke-miterlimit="10" d="M388.3,56.6c-14.6,18.3-22.5,41.1-36.6,59.8c-3.7,5-7.9,9.6-12,14.3
	c-5.9,6.8-11.5,13.8-17.2,20.8c-6.7,8.3-13.5,16.6-20.2,24.8c-2.3,2.8-4.6,5.7-6.2,9c-6.1,12.9,1.1,28,0.9,42.3
	c-0.2,18.6-12.6,34.4-21.1,51c-1.5,3-3,6.1-2.8,9.4c0.2,6.1,5.5,10.7,7.4,16.5c1.9,5.9,0.2,12.3-1.5,18.3
	c-5.5,19.2-11.1,38.3-16.6,57.5"/>
<path fill="none" stroke="#E1E1E1" stroke-miterlimit="10" d="M387.6,31.3c-6.4,1.2-11.4,6.3-14.7,11.9s-5.4,11.8-8.7,17.4
	c-4.3,7.4-10.6,13.7-12.9,21.9c-0.6,2.2-1,4.5-2.3,6.4c-1.4,2.1-3.7,3.3-5.5,5.1c-3.9,3.9-4.7,9.9-7.3,14.7c-3.2,6-9,10.1-13.4,15.4
	c-2.4,2.8-4.3,6-6.9,8.7c-2.4,2.5-5.3,4.5-8,6.6c-7.8,6.1-14.4,13.7-19.4,22.3c-0.9,1.6-1.8,3.3-2.2,5.1c-0.4,2-0.2,4.1-0.4,6.1
	c-0.7,5.6-5.1,10-7.3,15.2c-0.7,1.6-3.1,4.2-4.1,5.6c-0.4,0.6-0.4,1.3-0.7,2c-0.5,1.6-2.1,4.4-2.7,6c-0.4,1.2-1,3.8-1.6,5
	c-1.2,2.2-3.1,3.9-4.6,5.9c-10,13.8-15.6,30.8-15.7,47.8c0,1.9,0,3.9,0.8,5.7c0.8,2,2.4,3.6,3.7,5.4c6.1,8.5,4.6,20.2,2.6,30.5
	c-0.7,3.5-1.3,7.3,0.3,10.5c1.9,3.7,6.6,6,6.7,10.1c0.2,4.6-5.5,7.7-5.7,12.3c-0.1,3.3,2.7,6,3.2,9.3c0.2,1.6-0.1,3.2-0.5,4.8
	c-2.3,10.4-4.5,20.9-6.8,31.3"/>
<path fill="none" stroke="#E1E1E1" stroke-miterlimit="10" d="M377.6-22.8c0.7,4,3.7,8.2,2,11.9c-1.3,2.8-6.1-1.1-8.9,0.2
	c-8.4,3.6-7,16.8-11.6,24.7c-6.8,11.8-13.7,23.6-20.5,35.5c-7,12.1-9.1,25.9-14.9,38.6c-7.1,15.5-27.6,20.7-32,38.4
	c-0.8,3.3-5.4-6.2-5.6-1.8c-0.2,4.1,3.3,7.7-4.2,13.7c-13.1,10.4-18.2,29.4-21.4,43.3c-3.8,16.3-18.6,27.6-28.2,41.2
	c-4,5.7-7.6,11.7-9.3,18.4c-1.8,6.7-1.7,13.7-1.5,20.7c0.2,8.9,0.3,17.7,0.5,26.6c0.1,5.5,0.2,11.1,1.9,16.3
	c2.4,7.4,7.9,14.1,7.6,21.9c-0.2,6.3-4.3,11.7-7.3,17.3c-3,5.5-5.1,12.7-1.6,17.9c1.5,2.3,3.9,3.9,5.5,6.1c2.7,3.7,2.6,9.2-0.2,12.9
	"/>
<path fill="none" stroke="#E1E1E1" stroke-miterlimit="10" d="M101.4,374.3c0.3,0.6,1.4,1.4,0.9,1.8c-3.2,2.2-1.3-7.3,0.4-10.9
	c1.6-3.5,3-8.2,0.1-10.8c-1.7-1.6-4.7-2-5.5-4.2c-0.4-1.3,0.1-2.7-0.3-3.9c-0.5-1.6-2.3-2.4-3.7-3.3s-2.9-2.8-2-4.2
	c0.9-1.3,2.7,0.1,4.1-0.5c4.5-1.8,4.6-8.3,8.3-11.5c2-1.7,4.1-3.5,6.7-3.9c1.4-0.2,3,0,4.3-0.7c2.3-1.3,2.2-4.5,3.7-6.7
	c1.9-2.8,5.8-3.2,8.7-4.9c1.6-0.9,2.9-2.2,4.3-3.3c4.1-3.4,9-5.6,13.9-7.7c4.2-1.9,8.8,0.7,13.1-0.9c3.3-1.2,4.4-7.2,7.6-5.8
	c2.9,1.2,1.9,6.1,4.1,8.4c0.6,0.7,1.4,1.1,2,1.8c1.3,1.6,1.1,3.9,0.8,5.9c-0.7,5.2-1.4,10.4-2.2,15.6c-0.4,3.1-0.8,6.4,0.3,9.3
	c0.3,0.8,0.8,1.7,1,2.5c0.3,1.2,0.1,2.4-0.1,3.6c-1.3,9.2,10,25.1,1.1,27.6c-2.3,0.7-3.8-5.5-5.7-3.9c-4.9,4.3-10.5,9.6-10,16.1"/>
<path fill="none" stroke="#E1E1E1" stroke-miterlimit="10" d="M101,343.8c0.8,2.7,4.1,3.4,6.9,3.7c2.3,0.3,4.7,0.5,7,0.8
	c2.6,0.3,5.2,0.6,7.4,1.9s2.8,3.9,3,6.5c0.2,1.6,2.9,1.7,4.3,0.9s2.4-2.2,3.3-3.6c1.4-2.2,2.8-4.4,4.2-6.5c1.2-1.9,2.4-3.8,2.4-6
	c0-1-0.2-2,0.1-2.9c0.7-1.9,3.2-2.2,4.6-3.6c2.3-2.4-3.6-6-2-8.9c1.1-1.9,3.6-2.7,2.3-4.5c-1.3-1.8-3.9-2-6-1.4
	c-4.6,1.4-7.7,5.9-12.1,7.7c-1.3,0.6-2.7,0.9-4.1,1.2c-6.2,1.6-12.2,4.3-17.5,8C102.6,338.7,100.2,341.1,101,343.8z"/>
<path fill="none" stroke="#E1E1E1" stroke-miterlimit="10" d="M150.7,334.7c1.2-0.9,3.2-2.5,2.2-3.7c-1.3-1.7-5.9,1.3-5.1,3.3
	c0.6,1.4,3,0.4,4.1-0.6"/>
<path fill="none" stroke="#E1E1E1" stroke-miterlimit="10" d="M43.9,345.3c-0.7,0.6-1.8,0.6-2.7,0.6c-2.9,0-5.6-2.1-6.3-4.9
	c-0.1-0.5-0.2-1,0-1.4c0.4-1.2,1-2.5,2.2-2.9c2.4-1,3.7,3.8,5.7,5.5C43.7,342.9,44.9,344.5,43.9,345.3z"/>
<path fill="none" stroke="#E1E1E1" stroke-miterlimit="10" d="M153.4,234.4c-0.2-1.3,0.1-2.6,0.3-3.9c0.2-1.1,0.4-2.3,1.1-3.3
	c0.8-1.2,2.3-1.9,3.7-2.4c2.1-0.7,4.6-0.9,6.1,0.6c1.5,1.5,1.3,4.1,0.6,6.1c-0.9,2.8-2.3,5.5-4.1,7.8c-0.7,0.9-1.7,1.8-2.8,1.7
	c-0.9-0.1-1.7-0.8-2.3-1.5C154.7,238.1,153.6,236.4,153.4,234.4z"/>
<path fill="none" stroke="#E1E1E1" stroke-miterlimit="10" d="M22.7-23.6c-0.3,3.8-1,7.5-2,11.1c-0.4,1.3-0.9,2.7-2.1,3.1
	c-0.6,0.2-1.4,0.2-2.1,0.1c-2.6-0.3-5.6-2.3-7.9-0.9c-9.7,5.7-4.2,22.1-5.2,33.4c-0.3,3.5-1.1,7.5-4,9.3c-1.3,0.8-3.2,1.3-3.6,2.8
	c-0.2,0.6-0.1,1.2,0,1.9c0.9,7.8-5,15.8-12.8,17"/>
<path fill="none" stroke="#E1E1E1" stroke-miterlimit="10" d="M41.8-22C39.9-9.1,27.6,7.6,36.9,16.8c2,1.9,4.6-4.1,7.4-3.6
	c2,0.4,0.5,4,0.8,6s1.4,4.3,3.4,4.5c3.4,0.3,5.4-7.8,8-5.7c1.9,1.6,3.6,3,4.3,5.4c1.3,4.6-5.4,8.1-5.7,12.9c-0.1,1.3,0,2.6-0.5,3.7
	c-0.5,1.3-1.6,2.2-2.5,3.3c-4.6,5.3-4.2,13.5-8.2,19.3c-1.4,2-3.2,3.5-4.9,5.2c-10.4,10.3-15.5,24.6-20.2,38.5
	c-0.4,1.2-0.8,2.5-0.5,3.7c0.2,0.8,0.7,1.6,1,2.4c1.6,4.1-2.3,8-4.7,11.7c-3.9,6.1-3.6,13.9-6,20.7c-2,5.7-5.7,10.6-8.6,15.8
	c-4.4,7.9-6.8,16.8-9.2,25.5c-0.7,2.6-1.4,5.1-2.1,7.7c-1.5,5.3-2.9,10.6-4.4,15.8"/>
<path fill="none" stroke="#E1E1E1" stroke-miterlimit="10" d="M81.7-24.6C77.8-17,82-7.9,83,0.6c1.1,9.3-1.7,18.5-4.4,27.5
	c-2.8,9.2-5.7,18.4-9.8,27.1C60.4,73,46.8,88,38.2,105.7c-1.1,2.2-2,4.5-2.1,6.9c-0.1,2.1,0.6,4.1,0.9,6.1c2,12-5.1,23.4-11.4,33.8
	c-7.9,13.2-14.7,27-20.3,41.3c-0.6,1.6-1.3,3.4-0.9,5.1c0.5,2,2.2,3.5,3.6,5c5.4,5.7,7.1,14.2,6.2,22c-0.9,7.8-4.9,14.8-7.1,22.4
	c-4.5,16.3-13,18.8-5.4,21.9c3.3,1.3,3.7,2,4.7,6.6c0.8,3.8,1.4,7.6,1.8,11.4c1,8.7,9.4,14.9,10.7,23.6c2.3,15.8-12.4,29.5-16.2,45
	c-0.3,1.4-0.7,2.8-0.2,4.1c1.1,3.4,5.8,3.7,8.7,5.7c3.6,2.6,3.7,8.8,0.2,11.5"/>
<path fill="none" stroke="#E1E1E1" stroke-miterlimit="10" d="M96.9-22.8c4.3,12.6,3.9,26.8-1,39.2c-2.7,6.7-6.7,13-7.7,20.2
	c-0.7,4.7-0.2,9.7-2.4,13.9c-2,3.7-5.9,6.4-7.1,10.4c-0.8,2.5-0.3,5.3-0.9,7.9C75.6,78.3,61,83.2,63.1,92.7c0.7,3.1,3.2,5.6,3.2,8.8
	c0.1,4.3-4.2,7.1-6.8,10.5c-2.2,2.8-3.3,6.3-4.3,9.7c-2.4,7.6-10.3,15.5-7.2,22.9c0.9,2.1,4.9-1,6.8,0.3c8.4,6.1-9.9,17.8-18.9,22.9
	c-9,5.1-19.2,9.9-23.7,19.3c-1.1,2.2-1.7,4.9-0.5,7c0.9,1.6,2.7,2.4,4.4,3.2c7.4,3.5,15.6,8.5,16.6,16.7c0.6,4.7-1.4,9.2-3.3,13.5
	c-4.6,10.2-9.2,20.4-13.8,30.7c-1.7,3.9-3.5,8-3,12.2c0.5,4.2,5.2,4.9,8.5,7.5c6.3,5.1,3,16.1,7.8,22.7c2.9,4,6.7,7.9,6.8,12.8
	c0.2,9.7-13.3,14.1-16.2,23.4c-2.4,7.6,3.1,15.2,8.3,21.3c3.1,3.6,6.5,7.5,11.2,8.6c2.8,0.6,5.9,0.2,8.4,1.7c4.1,2.3,4.3,8,4,12.7"
	/>
<path fill="none" stroke="#E1E1E1" stroke-miterlimit="10" d="M114.3-24.9c4.5,24.3-14.4,48-11.7,72.6c0.2,1.7,0.5,3.5,1.5,4.9
	c1.2,1.7,3.2,2.6,5.3,3.1c10.6,2.5,20.9-5.4,27.5-14.2c6.5-8.7,23.7-35.2,22.2-24.4c-0.7,4.7-8.8,15-5.5,18.3
	c2.1,2.1,6.7-3.2,5.2,3.7c-0.6,2.9-5.9,4.7-5.4,7.6c0.8,5,4.5,7.4-3.6,10.4c-2.6,1-3.4,8.8,0.1,11.4c2.5,1.9,13.6-3.9,9.4,1.4
	c-1.6,2.1-2.4,2.4-3.3,4.2c-8.7,16-51.1,31.8-64.4,56.6c-2.3,4.3-4.1,9-7.4,12.7c-4.9,5.3-12.5,7.6-17.3,13c-3.3,3.7-5.1,8.6-8.6,12
	c-7.2,6.9-18.7,5.7-28.1,8.7c-4.3,1.4-8.9,5.6-6.7,9.6c1.5,2.8,5.3,3,8.3,4.1s1.2,4.3,2.7,7.1c3.5,6.3,12.5,5,19.4,7
	c5.5,1.7,11.5-1,15.6-4.9c4.2-3.9,6.7-9.3,10.5-13.6c8.8-10.1,18.1-16.6,30.6-21.9c5.8-2.5-3.2,5.8-0.7,6c4.5,0.3,3.5,1.4,1.2,6.3
	c-3,6.3,0,16.2-8.3,21.2c-9.8,5.9-20,10.5-30.2,15.7c-8.6,4.4-16.1,10.8-23.5,17.1c-3.8,3.2-7.6,6.4-11.3,9.6
	c-2,1.7-3.9,3.4-5.4,5.5c-4.5,6.4-3.3,15.3,0,22.4c6.7,14.1,22.4,24,37.8,21.8c12.3-1.7,22.4-10.1,31.8-18.2
	c3.8-3.3,7.6-6.6,11.5-9.9c1-0.9,2.1-1.8,2.8-2.9c1.2-1.8,1.7-3.9,2.2-6.1c2.8-11.7,7.2-23,12.9-33.5c2.2-4,4.7-8.1,8.6-10.5
	c4.3-2.7,9.6-3,14.1-5.2c7.8-3.9,13.3-13.5,22-13c3.9,0.2,7.7,2.6,11.5,1.8c3.4-0.8,5.7-3.9,7.7-6.7c15.8-22.8,31.6-45.7,43.7-70.6
	c8.6-17.6,15.2-36.2,25.3-53c5.6-9.4,12.2-18.2,18.8-26.9c8.9-11.8,17.8-23.6,26.8-35.4c7-9.3,14.1-18.7,22.5-26.8"/>
<path fill="none" stroke="#E1E1E1" stroke-miterlimit="10" d="M109.1,221.8c-3.4-0.7-7-1.4-10.5-1c-3.5,0.4-6.7,2-10.1,2.5
	c-1.9,0.3-3.9,0.3-5.8,0.5c-5.4,0.6-10.6,3.2-14.7,6.8c-2.9,2.5-5.3,5.5-8.4,7.7c-5.3,3.8-12,5-18.1,7.2c-1.1,0.4-2.2,0.9-3,1.7
	c-0.7,0.8-1.1,1.9-1.3,3c-1.5,6.6-0.1,13.4,1.4,19.9c0.5,2.1,0.9,4.2,2.2,5.9c3.4,4.5,10.3,3.6,15.5,5.8c2.3,1,4.5,2.8,7,3
	c4.2,0.4,7.5-3.5,9.9-7c3.2-4.7,6.4-9.6,11.1-12.7c2.3-1.5,4.9-2.6,7.6-3c2.3-0.4,4.8-0.4,6.7-1.7c2.1-1.5,2.9-4.1,3.7-6.6
	c1.6-5.6,3.2-11.3,4.8-16.9c0.3-0.9,0.5-1.8,0.8-2.7c0.9-3.2,1.8-6.3,2.7-9.5c0.2-0.7,0.4-1.6-0.1-2.1
	C110.2,222,109.7,221.9,109.1,221.8z"/>
<path fill="none" stroke="#E1E1E1" stroke-miterlimit="10" d="M90.7,247.3c2.6-2.3,3.3-6.4,1.7-9.5c-0.5-1-1.3-1.9-2.4-2.1
	c-0.8-0.1-1.6,0.1-2.4,0.4c-12.3,4.1-24.5,8.1-36.8,12.2c-1.9,0.6-3.9,1.3-5.1,2.8c-0.9,1.1-1.4,2.6-1.7,4c-1.3,6-4.8,16.7,1.2,18.1
	c2.4,0.5,4.6-1.1,6.7,0.2c2.1,1.2,4,3,6.4,3.3c3.6,0.5,6.8-2.2,8.9-5.1c2.1-2.9,3.7-6.3,6.6-8.4c2.8-2,6.7-2.7,8.3-5.8
	c0.8-1.5,0.8-3.4,1.7-4.9C85.3,250,88.5,249.2,90.7,247.3z"/>
<path fill="none" stroke="#E1E1E1" stroke-miterlimit="10" d="M65.8,256.2c0.6-0.6,1.5-1.1,1.6-2c0-0.5-0.3-1-0.6-1.4
	c-1-1-2.6-1.2-4-1c-1.4,0.2-2.7,0.9-3.9,1.6c-2.3,1.2-4.6,2.4-6.9,3.7c-0.6,0.3-1.3,0.7-1.8,1.3c-0.6,0.7-0.7,1.7-0.7,2.6
	c-0.1,1.3-0.1,2.8,0.8,3.8c0.6,0.7,1.4,1,2.2,1.4c1.4,0.5,2.8,1.1,4.2,0.9c1.8-0.2,3.3-1.4,4.6-2.7c0.9-0.9,1.8-1.8,2.3-2.9
	C64.4,259.7,64.4,257.5,65.8,256.2z"/>
<path fill="none" stroke="#E1E1E1" stroke-miterlimit="10" d="M61.7,194.7c0.2-0.4-0.1-0.8-0.2-1.2c-0.4-1.3-2-2-3.3-1.8
	c-1.3,0.2-2.3,2.1-1.3,3c0.6,0.6,2.3,1.9,2.9,1.4C60.4,195.6,61.2,195.4,61.7,194.7z"/>
<path fill="none" stroke="#E1E1E1" stroke-miterlimit="10" d="M116,153.1c1.1-0.2,1.9-1.1,2.7-2c0.7-0.9,1.5-2.4,0.6-3.2
	c-0.3-0.2-0.6-0.4-1-0.4c-1.8-0.4-4.2-0.5-5.2,0.9c-0.6,0.9-0.3,2.2,0.3,3.2C113.8,152.5,114.9,153.2,116,153.1z"/>
<path fill="none" stroke="#E1E1E1" stroke-miterlimit="10" d="M134.4-23c0.1,7.8-1.6,15.6-4.8,22.7c-1.6,3.4-5.6,7.3-3.6,10.5
	c1.9,3.2,7.2-0.7,10-3.2c5.8-5.2,10.7-11.4,16.9-16.1c5.2-4,11.7-7.4,14-13.6"/>
<path fill="none" stroke="#E1E1E1" stroke-miterlimit="10" d="M212.4-22.7c0.6,4.1,1.1,8.1,1.7,12.2c0.4,3.1,0.8,6.3-0.1,9.3
	c-2.4,7.6-16.7,7.5-17.7,15.4c-0.2,1.3,1.1,2.4,0.9,3.7c-0.1,1-0.5,1.9-0.9,2.8c-3.9,8.7-21.5,14.2-17.1,22.7c1.5,2.9,6.6,1.2,8.1,4
	c1.6,2.9,1.5,6.4,0.9,9.6c-2.2,10.5-10.5,18.4-18.4,25.6c-10.1,9.2-30.9,13.9-30.4,27.6c0.3,9.1,17.6,2.2,26-1.3
	c1.1-0.5,2.5-0.9,3.5-0.2c1.6,1.1,0.7,3.7-0.7,5s-4.2,3.2-3,4.7c1.7,2.2,6.1-0.8,8.3,0.9c1.6,1.2-3.2,4-1.8,5.4
	c0.9,0.9,2.6-0.2,3.2,1s0.3,2.5,0,3.8c-0.8,4-1.7,7.9-2.5,11.9c-0.5,2.2-0.9,4.7,0.3,6.7c0.9,1.5,2.5,2.3,3.6,3.7
	c2.3,3.1,0.9,7.5-1.2,10.7c-2.1,3.2-6.6,6.5-5.3,10c1.1,2.9,5.9,0.1,8.2-2c22.6-20.1,39.3-46.6,47.8-75.6c1-3.4,1.9-6.8,3.2-10.1
	c2.6-6.4,6.9-11.9,9.8-18.2c5.4-11.3,6.4-24.9,14.4-34.5c2.3-2.7,5-5,7.2-7.7c6.2-7.5,8.3-17.8,14.3-25.4c1.9-2.4,4.1-4.5,5.6-7.1
	c1.5-2.7,2.2-5.7,2.9-8.7c0.7-3,1.3-6,2-9"/>
<path fill="none" stroke="#E1E1E1" stroke-miterlimit="10" d="M222.2-25.4c-1.5,6.7,3.4,13.1,4.2,19.9c0.7,5.6-1.6,11.6-6,15.3
	c-2.1,1.7-4.5,3-6.5,4.8s-3.6,4.4-3.2,7c0.2,1.2,0.7,2.2,0.9,3.4c0.2,1.6-0.3,3.1-0.8,4.7c-2,6.2-2.9,12.7-2.7,19.2
	c0,1.4,0.1,2.7-0.2,4.1c-0.3,1.6-1.2,3.1-2,4.6c-4.4,7.3-9.2,14.3-14.5,21c-1.3,1.6-2.7,3.9-1.7,5.7c0.6,1.1,2,1.6,2.7,2.7
	c0.5,0.9,0.5,2,0.4,3c-0.3,8.4,1.8,16.9,6,24.3c1,1.8,2.1,4,1,5.7c-1.2,1.8-4.7,2.4-4.2,4.6c0.1,0.7,0.7,1.2,0.9,1.9
	c0.3,1.2-0.8,2.2-1.4,3.3c-0.6,1.1,0.2,3.4,1.1,2.6c6.9-5.7,8.7-15.6,13-23.4c3.2-5.8,6.5-11.6,8.2-18c1.2-4.5,1.6-9.2,2.6-13.7
	c1.3-5.9,3.5-11.6,5.6-17.3c3.2-8.3,6.4-16.6,10.4-24.5c3.4-6.6,7.3-12.9,11.8-18.8c3.2-4.2,6.7-8.6,7-13.8c0.1-1.2-0.1-2.4,0.2-3.5
	c0.5-1.9,2-3.3,3.3-4.7c4.8-5,8.3-11.2,10.2-17.9"/>
<path fill="none" stroke="#E1E1E1" stroke-miterlimit="10" d="M243.5-22.3c0.8,2.5,0.2,5.3-1.5,7.3c-0.8,1-1.9,1.8-2.4,3
	c-0.4,0.8-0.4,1.7,0.1,2.4c0.5,0.7,1.4,0.9,2.2,0.8c1.6-0.1,3-1.2,3.8-2.6c0.8-1.4,1.1-3,1.3-4.6c0.1-0.5,0.1-1.1,0.3-1.6
	c0.2-0.6,0.7-1.1,1.1-1.5c1.1-1.3,2.1-2.7,2.9-4.2"/>
<path fill="none" stroke="#E1E1E1" stroke-miterlimit="10" d="M222.9,21.7c0,0.3,0.1,0.7,0.4,0.9c0.3,0.3,0.7,0.4,1.1,0.5
	c1.9,0.3,4-0.5,5-2.1s0.2-4.2-1.7-4.7c-1.2-0.3-2.4,0.3-3.3,1.1C223.2,18.5,222.7,20.2,222.9,21.7z"/>
<path fill="none" stroke="#E1E1E1" stroke-miterlimit="10" d="M112.3,120.7c-1.4-0.1-2.8-0.2-4.1,0.3c-1.3,0.5-3.4,2-2.5,3
	c0.4,0.5,1.3,0.2,1.9,0.3c1.7,0.3,3.5,0.6,5.1-0.2c1.2-0.6,1.9-2.5,0.8-3.2C113.1,120.7,112.7,120.7,112.3,120.7z"/>
<path fill="none" stroke="#E1E1E1" stroke-miterlimit="10" d="M135.2,114.1c-1-0.3-2.3-0.1-2.7,0.9c-0.3,0.6,0,1.4,0.5,1.9
	c0.6,0.4,1.3,0.5,2,0.5c0.8,0,1.6-0.1,2-0.8C137.6,115.6,136.4,114.4,135.2,114.1z"/>
<path fill="none" stroke="#E1E1E1" stroke-miterlimit="10" d="M127.2,139.4c-0.4,1.3,0.8,2.8,2.2,2.7c1.4,0,3.1-1.7,2.3-2.8
	c-0.5-0.6-1.5-0.5-2.2-0.8c-0.4-0.1-0.8-0.3-1.1-0.2C127.8,138.4,127.4,138.8,127.2,139.4z"/>
<path fill="none" stroke="#4E9BD7" stroke-miterlimit="10" d="M36.6-22.3c0.2,1.8,0.9,3.5,0.5,5.3c-0.6,2.7-6.2-1.9-7.6,0.5
	c-0.4,0.6-0.2,1.5,0,2.2c1.1,3.7,2.7,7.3,4.7,10.6c0.7,1.1,1.5,2.3,1.4,3.6c0,0.9-0.5,1.8-1,2.6c-3.2,6-3.3,14.3-3.7,21.1
	c-0.1,2.6-2.6,6.5-2.5,8.7c0.3,5.1,0.1,7.5-3.7,11.1C22,46,22,50.5,20.6,54.1c-2,5.1-4,10.3-6.4,15.3c-1,2.1-2.2,4.2-3.7,6
	c-1.9,2.3-5.4,3.1-7.3,5.4c-1.9,2.3,0.8,7.1-1.1,9.4c-1.4,1.8-5.5,0.1-5.4,2.3c0,0.7,0.4,1.3,0.8,1.9c1.2,2,2.7,4.7,2.8,7
	c0,2.2-1.3,4.1-1.8,6.2c-3.1,13.7-6.4,27.9-15.2,38.8"/>
<path fill="none" stroke="#4E9BD7" stroke-miterlimit="10" d="M342.2-20.9c-3.4,0.8-4.9,4.3-4.7,7.8c0.1,1.8,1,4.3,0.8,6.2
	c-0.2,2.7-3.5,4.1-5.4,6.1c-3.7,3.9-6.9,8.2-9,13.2c-0.6,1.3-0.3,1-1.3,2.1c-1.1,1.2-2.2,0.7-3.2,2c-0.9,1.3-0.3,6.5-0.8,8
	c-0.5,1.5-3.7,2.3-5.2,2"/>
<path fill="none" stroke="#4E9BD7" stroke-miterlimit="10" d="M-13.2,307.6c1.6,0.3,5.6,0.7,6.8,2c2.2,2.4,3.7,3.7,7,3.8
	c17.9,0.1,34.8,2.3,52.5,5"/>
<path fill="#EAEAEA" stroke="#D6D6D6" stroke-miterlimit="10" d="M200.7,323.9c-0.8-0.5-1.8,0.3-2.5,0.9c-1,0.9-2.5,1.6-3.7,1.2
	c-1.1-0.4-1.8-1.5-2.4-2.5c-0.5-0.9-1-1.7-1.2-2.7c-0.1-0.6-0.1-1.1-0.1-1.7c0.2-2.1,1.6-3.8,2.7-5.6c1.1-1.8,2-4,1.3-5.9
	c-0.3-0.8-0.9-1.5-1.1-2.3c-0.6-1.6,0.1-3.6,1.6-4.5c0.8-0.5,2-0.8,2.4-1.7c0.2-0.3,0.3-0.8,0.6-1c0.3-0.2,0.7-0.2,1.1-0.1
	c0.6,0.1,1.3,0.2,1.8,0.6s0.9,1,0.8,1.6c-0.1,0.4-0.4,0.8-0.7,1.2c-0.3,0.4-0.4,0.9-0.5,1.4c-0.7,2.4-2.7,4.8-2,7.2
	c0.2,0.6,1.2,0,1.7-0.4c0.5-0.4,1-1,1.6-0.8c0.4,0.1,0.7,0.5,1.1,0.6c0.9,0.4,2-0.3,2.7-1.1c0.7-0.8,1.3-1.7,2.4-1.9
	c1.3-0.2,2.4,1.1,2.7,2.3c0.3,1.3,0.2,2.6,0.4,3.9c0.4,2.1,1.7,4,1.6,6.1c-0.1,1.2-0.5,2.6,0.4,3.3c0.5,0.3,1.1,0.3,1.6,0.5
	c1.2,0.5,1.6,2,1.7,3.3c0,0.5,0,1.1-0.2,1.5c-0.3,0.5-0.8,0.8-1.3,0.6c-0.5-0.2-0.7-0.8-1-1.2c-0.6-0.7-1.7-0.8-2.6-0.8
	c-0.6,0-1.3,0-1.8,0.4c-0.3,0.2-0.5,0.6-0.7,0.9c-0.5,0.7-1.3,1.2-2.2,1.2c-0.4,0-0.8,0-1.1,0.1c-0.6,0.2-1,0.9-1,1.5
	c-0.1,0.6,0,1.3,0.1,1.9c0.2,1.6,0.2,3.3,0,4.9c-0.1,0.5-0.2,1-0.4,1.5c-0.6,1.3-1.9,2.2-3.2,2.8c-1.2,0.6-2.5,1.1-3.9,0.9
	c-0.6-0.1-1.2-0.3-1.8-0.1c-1,0.3-1.3,1.5-1.4,2.5c-0.1,1,0.1,2.5-0.8,2.9c-1.4,0.4-2.3-1.7-2.5-3.1c-0.1-1.4,0.2-2.9-0.1-4.3
	c-0.1-0.4-0.2-0.8-0.2-1.1c0.1-1,1-1.7,2-2.1s2-0.9,2.3-1.8c0.2-0.4,0.2-0.9,0.3-1.4c0.2-0.6,0.5-1.2,0.9-1.7c0.4-0.6,1-1.4,1.8-1.2
	c0.9,0.2,1.3,1.4,2.2,1.3c0.9-0.2,0.7-1.6,1.1-2.4c0.1-0.3,0.4-0.5,0.6-0.7c0.6-0.7,1.5-1.9,0.8-2.5
	C201.9,325.4,201.6,324.4,200.7,323.9z"/>
<path fill="#7BBCEB" stroke="#4E9BD7" stroke-miterlimit="10" d="M239.3,182.5c-1.4,3.5-3,6.4-2.9,9.6c0.1,1.9,1.6,4.1,1.6,5.9
	c0,2-0.5,4.4-2,6c-14.3,15.4-24.2,32.9-37,52c-2.8,4.2-8.3,5.9-10,10c-1.2,2.9,0.8,2.6,0.8,6.6c0,1-1.7,6.5-2.8,7.4
	c-3.4,3.1-10.7-0.6-12.8-3.3c-3.9-5,1.3-9.4-2.1-11c-6.1-2.7-16.1,15.6-19.6,10.4c-5.2-7.6-14.1-3.9-20.7,4.8
	c-1.3,1.8-2.9,5.1-3.8,7.2c-1.5,3.7-4.7,6.3-9,6c-6.1-0.4-12.2-0.4-18,3c-6.9,4.1-13.1,7.3-21,10c-2.1,0.7-6.1,2.1-5.1,4.1
	c0.9,1.9,3.4,0.5,5.4,0.8c3.1,0.5,6.1-0.1,7.7,2.1c0.6,0.8,0.5,1.3,0.5,2.3c0,2-2.4,2.3-4.3,1.9c-5.3-1-4.8-5.9-12.7-4.5
	c-2.2,0.4-1.9,4.4-4.1,4c-3-0.5-5.2,1.4-6.8,2.7c-1.2,0.9-3.7,0.9-6.2-0.4c-2.9-1.5,0.8-4.3,2.8-4.5c3.2-0.4,4.2-2.2,6.4-3
	c4.8-1.7,9.5-3.9,14.8-7.8c3.6-2.6,7-3.8,11-3.8c1,0,2.8-0.8,3.8-1.8c1.2-1.2,2.4-4.2,2.8-5.2c1.6-3.8,4.1-1.8,8.9-2.9
	c2.2-0.5,3.9-2.1,6-4c10.9-10.2,13.7-32.8,31-27c2.8,0.9,3.8-1.3,6.2-2.4c3.5-1.6,7.2,0.2,11.8-4.6c4.7-4.9,8.9-9.4,14.8-15.3
	c6.8-6.9,5.9-10.8,12.8-18.7c3.2-3.7,5-8.1,7-14.3c2.3-7,9.9-12.4,12.4-16.7c7.4-12.8,15-23,20.7-36.7c1.5-3.6,5.8,0.4,6.8-2.2
	c0.3-0.8,0.2-1.8,0.6-3.1c0.4-1.4,1.4-2.6,1.2-3.7c-0.5-3.4-0.6-5.5,1.5-9.2c5.8-10.2,12.3-19.6,17.7-31.1c1.5-3.2,3.6-5.7,5-9
	c1.8-4.1,3-9.1,5.9-12.4c2.5-2.9,6.1-5.3,6.9-9c0.2-1,0.2-2,0.6-3c0.7-2.2,2.9-3.4,4.4-5.1c2.7-2.9,3.6-7.2,6.2-10.1
	c3-3.3,8-5,9.2-9.2c0.3-1,0.3-2,0.8-2.9c0.8-1.7,4.1-3.3,5.9-3.8c3.9-1.2,7.3,1.1,10.7-1.3c1.5-1,0.3-3.9,0.2-5.7
	c-0.1-1.8,0.4-5.3,2.1-4.6c1,0.4,0,2.1-0.3,3.2s0.5,3.5,1.2,2.6c0.6-0.8,1.2-1.6,2-1.1s1.1,1.6,1.2,2.6c0.1,0.7,0.2,1.4,0.3,2
	c0.1,0.6,0.1,1.3-0.3,1.7c-0.3,0.2-0.7,0.2-1.1,0.3c-1.6,0.4-2,2.4-2.4,4.1c-0.6,2.9-2,5.7-4.1,7.9c-0.7,0.8-1.6,1.6-2.2,2.5
	c-0.7,1-1.1,2.1-1.4,3.2c-1.5,4.2-3,8.5-5.3,12.4c-1.4,2.3-3.2,4.8-2.8,7.5c0.3,1.5,1.2,3,0.6,4.5c-0.2,0.4-0.4,0.7-0.7,1.1
	c-0.9,1.1-1.7,2.2-2.6,3.3c-0.4,0.5-0.7,1-1,1.5c-0.8,1.8-0.1,4,0.5,5.9c1.2,3.4-1,6.6-3.9,7.5c-2.4,0.7-1,2.4-5.9,2.8
	c-1,0.1-1.8,1.3-2.4,2.1c-0.6,0.9-0.1,2.8-0.4,3.8c-1,3.5-4.6,3-5.5,6.6c-0.4,1.5,0.4,3.4-0.5,4.6c-0.6,0.9-5.1,4.7-6.1,5.2
	c-4.9,2.6-6.5,5.1-9.6,9.6c-3.9,5.5-5,7.9-8.9,13.4c-0.8,1.1-2.1,6.3-5.2,7.5c-1.9,0.7-4.2,4.9-3,7.8c0.7,1.8,1.8,3.1,2.2,5.1
	c0.4,1.9-1.9,8.7-2.1,9.1C242.8,178.5,241.3,177.8,239.3,182.5z"/>
<path fill="#FFFFFF" stroke="#4E9BD7" stroke-miterlimit="10" d="M293.4,93.7c0.3-0.4,0.6-1,0.6-1.5c0-0.6-0.4-1.1-1-1.1
	c-0.2,0-1.3,0.7-1.6,1.1c-0.5,0.6-0.5,2.3,0.5,2.7C292.5,95,293,94.2,293.4,93.7z"/>
<path fill="#EAEAEA" stroke="#D6D6D6" stroke-miterlimit="10" d="M77.9,193.9c0.1,3.7-3.6,6.2-5.4,9.5c-0.3,0.5-0.5,1-0.4,1.6
	c0.2,1,1.8,1.6,2.9,1.6c1.1,0.1,2.3-0.7,3.1-1.7c0.8-0.9,1.9-0.6,3-1.3c0.9-0.6-0.5-2.2-1.1-3.1c-1-1.5-0.2-2.9,0.9-4.3
	c0.5-0.7,1.3-1.5,2.2-1.2c0.2,0.1,0.4,0.2,0.7,0.3c1.6,0.6,3.4-1.2,4.5-2.5c0.3-0.4,0.7-1.2,0.2-1.5c-0.9-0.6-2-1.3-1.8-2.3
	s0.6-1.7,1.5-2.3c1.5-1.1,3-2.1,4.5-3.2c0.6-0.4,1.7-1.1,1.8-1.8c0.2-1.1-1-2.5-2.1-2.2c-1.1,0.3-2.6,2-3.2,3
	c-0.3,0.6-0.6,1.3-1.2,1.8c-0.7,0.7-1.8,0.9-2.7,1.4c-1.8,1-2.9,3.1-4.6,4.2c-1.1,0.7-2.5,1.3-2.8,2.5
	C77.8,192.9,77.9,193.4,77.9,193.9z"/>
<path fill="none" stroke="#585858" stroke-miterlimit="10" stroke-dasharray="4,1" d="M31.7-22.5c-3.1,1.9-4.9,5.6-4.5,9.1
	c0.2,2,1.1,3.9,1.3,5.9c0.6,5.6-3.6,10.3-6.8,15c-5.1,7.5-8,16.6-8,25.6c0,1.4,0,2.8-0.2,4.1c-0.3,1.2-0.8,2.4-1.1,3.7
	c-1,3.7-0.2,7.7-0.1,11.6c0,3-0.5,6-1,9C10.3,67.1,9.1,73,4.9,76.7c-1.1,1-2.4,1.8-3.4,3c-1.5,1.8-2.1,4.2-3.4,6.1
	c-0.9,1.3-2.2,2.5-2.8,3.9c-0.9,1.9-0.6,4.1-0.5,6.1c0.5,10.2-2,20.6-7.1,29.4c-1.2,2-3.8,3.9-5.5,5.4"/>
<path fill="none" stroke="#585858" stroke-miterlimit="10" stroke-dasharray="4,1" d="M-12.9,322.1c-0.4,0-0.5,0.6-0.2,0.8
	c0.3,0.2,0.7,0.2,1.1,0.1c3-0.7,6.1-3.6,8.9-2.4c1.1,0.5,0.8,2.4,1.6,3.2c0.8,0.8,2.3-0.1,3.2-0.8s2-1.5,3.1-1.3
	c1.1,0.2,1.3,1.4,0.7,2.5c-0.3,0.7,1.3,0.8,1.8,0.3s0.8-1.2,1.1-1.9c1.1-2.9,4.1-7.4,6.8-5.8c1.2,0.7-0.7,3.3,0.3,4.2
	c1.7,1.6,3.9-3.8,6.2-3.1c1.4,0.4-0.6,3.7,0.8,4.2c2,0.7,3.1-5.1,5-4.1c1.2,0.6,0,3,1.3,3.4c2,0.6,4.3-3.6,5.5-1.9
	c0.4,0.6-0.1,1.6,0.5,2c1,0.7,2.3-1.5,3.5-1c1.2,0.5,1,2.4,1.6,3.5c0.2,0.3,0.3,0.5,0.6,0.6c1,0.4,1.4-1.3,1.8-2.3
	c0.6-1.6,2.5-2.3,4.2-2.1s3.2,1.1,4.8,1.7c4.1,1.6,8.8,1.4,12.7-0.6c2.2-1.1,5.6-2.9,8-3.4c2.7-0.6,4.2,0.3,6.9,1.1
	c2.7,0.7,5.6,1.4,8.2,0.6c2.7-0.8,4.9-3.8,3.9-6.4c-0.8-1.9-5.9-2.9-5.7-5c0.1-1.5,4.3-2.9,5.6-3.6c5.5-3.5,11.3-7,17.7-8
	c2.6-0.4,5.2-0.7,7.8-0.6c6.2,0.2,11.6-2,16.3-5.1c4.6-3,9.6-4,14.3-6.8c2.3-1.4,4.5-2.9,6.8-4.4c2.9-2,5.9-4,8.8-5.9
	c2.2-1.5,5.3-3,7.4-1.3c1.7,1.4,1.6,4,3,5.7c1.8,2.1,6.7,3.4,8.4,5.5c0.7,0.9,0.3,2.9,0.5,4c0.5,2.8,0.4,3.4,0.9,6.2
	c0.1,0.8,0.3,1.6,0.6,2.3c0.3,0.8,0.6,1.5,1,2.2c1.8,3.5,3.5,6.9,5.3,10.4c0.4,0.8,0.9,1.7,0.8,2.7c-0.1,1-0.8,1.8-1.4,2.6
	c-0.9,1.2-1.8,2.6-2,4.1c-0.2,1.5,1.2,2.5,2.1,3.8c1.3,1.8,0.1,4.4,1,6.3c0.5,1,1.2,2,1.3,3.1c0.1,1.1-0.5,2.2-1.1,3.1
	c-3,4.5-7.9,8.5-7.5,13.9c0.1,0.8,0.3,1.6,0.7,2.2c0.4,0.7,1.1,1.1,1.6,1.7c2,2.1,2.3,5.3,2.5,8.3c0.4,6.8,0.8,14.1-2.4,20.1"/>
<text transform="matrix(1 0 0 1 163.653 205.199)"><tspan x="0" y="0" fill="#7BBCEB" font-family="'Verdana-Italic'" font-size="8">Tilden</tspan><tspan x="0" y="9.6" fill="#7BBCEB" font-family="'Verdana-Italic'" font-size="8">Lake</tspan></text>
<text transform="matrix(1 0 0 1 64.0775 257.7986)"><tspan x="0" y="0" fill="#585858" font-family="'Verdana-Italic'" font-size="8">Chittenden</tspan><tspan x="0" y="9.6" fill="#585858" font-family="'Verdana-Italic'" font-size="8">Peak</tspan></text>
<text transform="matrix(1 0 0 1 223.3504 21.9217)" fill="#585858" font-family="'Verdana-Italic'" font-size="8">× 9608</text>
<text transform="matrix(1 0 0 1 30.4827 263.0494)" fill="#585858" font-family="'Verdana-Italic'" font-size="8">9685 ×</text>
<path fill="none" d="M187.2,192.7c3.4-0.8,5.7-3.9,7.7-6.7c15.8-22.8,31.6-45.7,43.7-70.6c8.6-17.6,15.2-36.2,25.3-53"/>
<text transform="matrix(0.4142 -0.9102 0.9102 0.4142 243.8108 110.3721)"><tspan x="0" y="0" fill="#7D7D7D" font-family="'Verdana-Italic'" font-size="7">9</tspan><tspan x="4.5" y="0" fill="#7D7D7D" font-family="'Verdana-Italic'" font-size="7" rotate="-0.4">0</tspan><tspan x="8.9" y="0" fill="#7D7D7D" font-family="'Verdana-Italic'" font-size="7" rotate="-0.7">0</tspan><tspan x="13.4" y="-0.1" fill="#7D7D7D" font-family="'Verdana-Italic'" font-size="7" rotate="-0.7">0</tspan></text>
<path fill="none" d="M36.1,112.4c0.1-2.4,1.1-4.7,2.1-6.9c8.6-17.8,22.2-32.8,30.6-50.6c4.1-8.7,7-17.9,9.8-27.1"/>
<text transform="matrix(0.5389 -0.8423 0.8423 0.5389 60.9641 73.7022)"><tspan x="0" y="0" fill="#7D7D7D" font-family="'Verdana-Italic'" font-size="7">8</tspan><tspan x="4.5" y="0" fill="#7D7D7D" font-family="'Verdana-Italic'" font-size="7" rotate="-1.2">6</tspan><tspan x="9" y="-0.1" fill="#7D7D7D" font-family="'Verdana-Italic'" font-size="7" rotate="-2.8">0</tspan><tspan x="13.5" y="-0.3" fill="#7D7D7D" font-family="'Verdana-Italic'" font-size="7" rotate="-4.8">0</tspan></text>
<path fill="none" d="M273.1,287.3c-0.1-3.3,1.3-6.5,2.8-9.4c8.5-16.5,20.9-32.4,21.1-51c0.2-14.3-7-29.4-0.9-42.3"/>
<text transform="matrix(0.4977 -0.8674 0.8674 0.4977 284.5052 267.5396)"><tspan x="0" y="0" fill="#7D7D7D" font-family="'Verdana-Italic'" font-size="7">9</tspan><tspan x="4.5" y="0" fill="#7D7D7D" font-family="'Verdana-Italic'" font-size="7" rotate="-0.6">4</tspan><tspan x="9" y="0" fill="#7D7D7D" font-family="'Verdana-Italic'" font-size="7" rotate="-1.7">0</tspan><tspan x="13.5" y="-0.2" fill="#7D7D7D" font-family="'Verdana-Italic'" font-size="7" rotate="-3.5">0</tspan></text>
<g>
	<g>
		<polyline fill="none" stroke="#7D7D7D" stroke-miterlimit="10" points="85.2,341.6 85.2,348.7 275.4,348.7 275.4,341.7 		"/>
		<line fill="none" stroke="#7D7D7D" stroke-miterlimit="10" x1="180.5" y1="341.4" x2="180.5" y2="348.7"/>
		<line fill="none" stroke="#7D7D7D" stroke-miterlimit="10" x1="161.2" y1="349.2" x2="161.2" y2="343.7"/>
		<line fill="none" stroke="#7D7D7D" stroke-miterlimit="10" x1="142.4" y1="349.2" x2="142.4" y2="343.7"/>
		<line fill="none" stroke="#7D7D7D" stroke-miterlimit="10" x1="123.3" y1="349.2" x2="123.3" y2="343.5"/>
		<line fill="none" stroke="#7D7D7D" stroke-miterlimit="10" x1="104.6" y1="349.2" x2="104.6" y2="343.7"/>
	</g>
	<text transform="matrix(1 0 0 1 83.7833 339.1468)" fill="#7D7D7D" font-family="'Verdana'" font-size="8">0</text>
	<text transform="matrix(1 0 0 1 174.2944 339.1468)" fill="#7D7D7D" font-family="'Verdana'" font-size="8">0.5</text>
	<text transform="matrix(1 0 0 1 258.3413 339.1468)" fill="#7D7D7D" font-family="'Verdana'" font-size="8">1 mi</text>
</g>
</svg>
