<?xml version="1.0" encoding="utf-8"?>
<!-- Generator: Adobe Illustrator 17.1.0, SVG Export Plug-In . SVG Version: 6.00 Build 0)  -->
<!DOCTYPE svg PUBLIC "-//W3C//DTD SVG 1.1//EN" "http://www.w3.org/Graphics/SVG/1.1/DTD/svg11.dtd">
<svg version="1.1" id="Layer_1" xmlns="http://www.w3.org/2000/svg" xmlns:xlink="http://www.w3.org/1999/xlink" x="0px" y="0px"
	 viewBox="0 0 360 360" enable-background="new 0 0 360 360" xml:space="preserve">
<path fill="none" stroke="#E1E1E1" stroke-miterlimit="10" d="M-2.9,68.8c0.5,0.3,1,0.6,1.5,1.1c2.7,2.7,0.5,7.8,2.5,11.1
	s6.3,5.5,9.8,3.8c1-0.5,1.9-1.3,3-1.7c1.2-0.5,2.5-0.5,3.8-0.7c3.6-0.5,6.9-2.1,10.2-3.6c3.8-1.8,7.6-3.6,11.4-5.4
	c4.7-2.2,9.4-4.5,13.8-7.2c3.5-2.2,6.9-4.7,10.7-6.2c7.5-2.9,17.2-2.3,21.8-8.9c3-4.3,2.4-10,1.7-15.2C86.1,27.5,85,19.2,83.9,11
	c-0.2-1.4-0.4-2.9-1.1-4.2c-0.7-1.2-1.9-2.1-3-2.9c-7.9-6.1-14.3-14.1-18.5-23.2"/>
<path fill="none" stroke="#E1E1E1" stroke-miterlimit="10" d="M-3.7,156.7c2.5-2.2,5.1-4.2,8-5.7c2.6-1.4,5.4-2.3,7.9-3.8
	c1.9-1.1,3.7-2.5,5.5-3.9c5.1-3.9,12-6.3,15.3-11.8c0.7-1.1,1.4-1.9,2.5-2.7c1.6-1.2,3.2-2.4,5-3c0.6-0.2,1.2-0.3,1.7-0.6
	c0.7-0.3,1.4-0.8,2-1.4c8.2-7,19.2-9.5,25.5-18.2S80.3,87,84.4,77c2-4.8,4-9.6,5.9-14.4c0.6-1.5,1.2-2.9,2.1-4.2
	c3.1-4.3,8.7-5.6,13.6-7.6c5.9-2.3,11.2-5.9,15.6-10.4c0.8-0.8,1.6-1.7,2-2.8c0.4-1.2,0.4-2.5,0.4-3.7c0.1-4.3,1.1-8.5,3-12.4
	c0.4-0.8,0.8-1.6,0.8-2.4c0-1.3-1.2-2.3-1.5-3.6c-0.3-1.2-0.2-2.6-0.6-3.7c-0.4-1-1-1.8-1.5-2.7c-3.2-5.8-2.5-12.9-1.7-19.4
	c0.3-2.6,0.6-5.3,1-7.9"/>
<path fill="none" stroke="#E1E1E1" stroke-miterlimit="10" d="M-3.9,253.1c0.9-0.4,1.9-0.8,2.8-1.2c3.2-1.4,3.8-5.7,6-8.3
	c0.4-0.5,0.8-0.9,1-1.5c0.3-0.9,0.1-1.9-0.1-2.8c-1.6-7.6-1.8-15.4-0.6-23.1c0.2-1.4,0.5-3-0.2-4.2c-0.6-1.1-1.9-1.7-3-2.5
	c-2.6-1.7-3.2-5.5-4.5-8.4"/>
<path fill="none" stroke="#E1E1E1" stroke-miterlimit="10" d="M-4,270.4c5-1.1,10-2.7,14.8-4.5c0.3-0.1,0.8-0.2,1.1-0.4
	c5.6-2.7,10.4-7,15.3-10.9c1.3-1.1,2.7-2.2,3.7-3.6c1.1-1.5,1.7-3.3,2.3-5c2.3-6.7,4.6-13.5,6.4-20.3c0.8-3.1,1.5-6.2,2.9-9
	c2.3-4.7,6.3-8.4,8.5-13.2c1.9-4,2.4-8.4,3.6-12.6c1.2-4.2,3.4-8.5,7.4-10.4c1.4-0.7,2.9-1,4.4-1.6c3.8-1.7,6.2-5.4,9.6-7.8
	c4.8-3.4,11.1-3.8,16.8-5.4c5.7-1.6,10.9-4.4,15.8-7.8c0.8-0.6,1.7-1.2,2.2-2.1c0.5-1,0.6-2.1,0.5-3.2c-0.1-7-1.6-14-4.4-20.4
	c-1-2.2,0.6-4.7-0.5-6.8c-0.7-1.3-2.9-2.8-2.7-4.3c0.2-1.5,1.3-2.7,2.4-3.7c1.1-1,2.4-1.9,3.1-3.3c0.6-1.1,0.8-2.4,0.9-3.7
	c0.4-3.8,0.9-7.5,1.3-11.3c0.1-1,0.2-2,0-3c-0.2-0.8-0.5-1.6-0.6-2.5c-0.3-2.4,1.7-4.5,3.8-5.7c2.1-1.2,4.5-2,6.2-3.7
	c1.3-1.3,2.2-3.2,3.6-4.4c1.1-0.9,2.5-1.4,3.6-2.2c2.9-2.1,3.9-6.2,6.6-8.6c1.1-1,2.5-1.7,3.2-3c0.5-1.1,0.4-2.3,0.5-3.5
	c0.7-8.7,11.1-14.6,10.9-23.3c-0.1-2.7-1.2-5.4-0.9-8.1c0.3-2,1.4-3.9,2.1-5.8c1.7-4.3,1.8-9.2,0.3-13.5c-0.6-1.5-1.9-3-2.8-4.3
	c-1.9-2.8-2.2-6.5-2.1-9.9c0.1-3.1,0.4-6.1,1-9.1c0.3-1.8,0.7-4-0.6-5.4"/>
<path fill="none" stroke="#E1E1E1" stroke-miterlimit="10" d="M-3.9,276.2c11-3.1,21.7-3.2,22.3-2.3c3.3,5.2-0.1,12.4,0.8,18.4
	c0.1,0.8,0.3,1.6,0.8,2.3c0.6,0.7,1.4,1.1,2.3,1.5c3.5,1.7,6.6,4.1,9.1,7.1c0.5,0.6,1,1.2,1.8,1.4c0.8,0.2,1.5-0.2,2.3-0.4
	c3.1-1.1,6.6-0.3,9.4,1.4c2.8,1.6,5.1,4,7.4,6.4c3.6,3.8,7.3,7.6,10.9,11.5c1.8,1.9,3.6,3.8,5.8,5.3c2.8,2,6.2,3.1,9.6,3.4
	c0.5,0,1.1,0.1,1.5-0.2c0.7-0.3,1.1-1,1.4-1.6c2.8-4.7,5.3-9.7,6.1-15.1c0.6-4.2,0.1-8.4-0.3-12.6c-1.1-9.2-2.1-18.4-3.2-27.6
	c-0.3-2.8-0.7-5.7-2.3-8.1c-1.7-2.5-4.7-4.1-5.9-6.9c-0.9-2.1-0.7-4.6-1.5-6.8c-1.9-4.9-8.2-6-12.4-9.1c-3.7-2.8-5.8-7.5-5.4-12.1
	c0.6-6.7,2.7-12.9,5.6-19c2.2-4.5,5.2-8.6,8.4-12.6c7-8.7,14.8-17,24.6-22.4c6.1-3.4,12.9-5.7,19.2-8.7c2.5-1.2,5-2.6,7.6-3.3
	c5.1-1.3,10.5-0.1,15.6,1.1c2.4,0.6,4.9,1.2,6.6,2.9c1.1,1.1,1.8,2.5,3,3.5c1.2,1,2.7,1.4,4.2,2.1c2.8,1.2,5.1,3.2,7.5,5.1
	c4.5,3.7,9,7.4,13.5,11.1c5.1,4.2,10.3,8.5,13.4,14.2c1.3,2.4,2.5,5.3,4.9,6.5c1.2,0.7,2.7,0.8,4,1.1c3.9,0.9,7.6,2.8,10.4,5.7
	c5.3,5.2,7.9,13.3,14.5,16.7c1.6,0.9,4,1.2,5.1-0.3c0.5-0.7,0.5-1.5,0.6-2.3c0.4-4.8,0.8-9.6,1.2-14.5c0.4-5,0.8-10-0.4-14.8
	c-1.3-5.3-4.5-10-8-14.3c-8.7-10.6-19.6-19.5-31.7-25.9c-4-2.1-8.1-4-11.9-6.4c-3-1.9-5.7-4.1-8.9-5.6c-6.7-3.2-15.2-3.3-20-8.9
	c-5.4-6.3-2.9-15.1,1.6-22.9c3.4-5.9,6.2-12.1,4.4-18.7c-0.5-1.8-1.3-3.5-1.6-5.4c-0.7-4.6,2.1-8.9,4.7-12.7c2.6-3.8,7-8.7,11.6-9.3
	c5.6-0.8,15.9,9.5,15.3,3.8c-0.6-5.5-1.2-12,0.2-17.3c1.3-5.1-10.5,4.7-14.8,1.7c-2.3-1.6,2-6.2,0.2-8.3c-1.3-1.5-4.7,1.8-6,0.2
	c-2.4-2.9,0.1-14,2.3-20.6c0.8-2.5,3-5.4,5.4-4.3c1.3,0.6,1.8,2.1,2.5,3.3c2.3,4.5,6.9,7.3,11.4,9.8c1.3,0.7,2.6,1.4,4,1.5
	c1.4,0.1,2.7-0.3,4-0.6c5.1-1.3,10.7-0.7,15.5,1.5c1.5,0.7,2.9,1.5,4.5,1.7c1.1,0.1,2.2,0,3.3,0.2c1.1,0.3,2.1,0.9,3.1,1.6
	c5.8,4,12.1,7.3,18.7,9.8c1.5,0.5,2.9,1.1,4.5,1.3c2,0.3,4,0.1,6-0.2c8.6-1.2,17-3.2,25-6.6c4.7-2,9.2-4.4,13.8-6.8
	c5.1-2.7,10.3-5.4,15.4-8.2c2.2-1.1,4.4-2.4,5.7-4.4c2.3-3.5,1.1-8.2,2.3-12.2c1-3.3,3.5-6,4.2-9.4c0.7-3.5-0.7-7.3,0.4-10.7
	c0.5-1.7,1.6-3.2,1.8-4.9c0.2-2.8-2.1-5.1-4-7.3s-3.5-5.3-1.9-7.7"/>
<path fill="none" stroke="#E1E1E1" stroke-miterlimit="10" d="M-2.1,304.3c2.1,7.9,3.9,17,5.4,18.8c0.3,0.3,0.7,1.2,1.9,0.9
	c3.2-0.8,6.7,0.6,9.2,2.8s4.2,5.1,6.1,7.9c1.9,2.8,4,5.5,6.2,8c0.7,0.8,1.4,1.6,2.4,1.9c2,0.8,4.2-0.5,6.1-1.4
	c3.3-1.5,7.3-2.1,10.5-0.2c3.5,2.1,5.1,6.6,8.8,8.4c2,1,4.4,1.1,5.9,2.6c0.7,0.7,1.2,1.8,2.2,2.2c1.1,0.6,2.5,0.1,3.7,0.2
	c1.9,0.3,3.3,2.1,5.2,2.6c1.2,0.3,2.5,0.1,3.8,0.2c1.3,0.1,2.1,1,2.9,2c1.7,2.1,5.5,0.8,7.9-0.5c1.5-0.9,2.7-2.2,3.9-3.4
	c2.7-2.9,5.5-5.9,6.4-9.8c0.6-2.4,0.3-5,0.9-7.5c0.5-2.4,1.7-4.5,2.6-6.8c2.9-7.1,2.9-15.4,0-22.5c-0.9-2.2-2.1-4.3-2.8-6.6
	c-0.7-2.3-0.5-4.2-0.2-6.5c1.6-13.3-5.8-24.6-7.9-38c-0.4-3-3.3-4.8-5-8c-5-9.5-13.7-16.8-17-27c-1.3-3.9-0.1-9.1,3-12
	c6.8-6.3,10.7-13.2,16-19c4.8-5.2,12.3-5,17-11c16.2-20.8,44.3,4.1,63,18c1.8,1.3,5.1,2.8,8,4c2.1,0.9,3,2,4,4c2,4,1.6,9.2,4,13
	c5.3,8.5,15.2,12.8,23,19c6.1,4.8,6.8,12.1,10,19c6.6,14.2,24.1,8.3,34,2c1.2-0.8,2-3,2-4c0.5-16-6-29.9-7-46c-0.5-8,3.1-16,2-24
	c-0.9-7-6-12.8-7-19c-0.3-2-1.1-5.1,0-6c4.6-3.6,12.4,6.2,16,0c1.1-1.9,0.8-6.9,2-9.8c2.5-5.6,5.7-10.3,8.1-15.9
	c2.4-5.7,10.3-7.1,12.2-12.9c1.5-4.8-1-10.6-4.6-14.2c-1-1-2.4-1.6-3.5-2.5c-1.9-1.4-3.2-3.6-4.1-5.9c-2.1-5.2-2.4-10.9-2.7-16.4
	c-0.1-1.7,0-3.7,1.3-4.9c1.1-1,2.7-0.9,4.1-1.2c6.7-1.2,10.9-9.2,17.7-9.7c1.6-0.1,3.3,0.2,4.7-0.6c1-0.5,1.6-1.4,2.3-2.2
	c4.9-5.4,13.1-6.1,20.4-5.3c1.3,0.2,2.7,0.3,4-0.1c1.1-0.4,2-1.1,2.9-1.8c2.2-1.8,4.7-3.2,7.3-4.4c4.5-2,9.5-3.2,13.6-5.9
	c1.7-1.1,3.1-2.4,4.8-3.6c3-2.1,6.5-3.6,9.9-5.1c7.3-3.2,14.6-6.3,21.9-9.5"/>
<path fill="none" stroke="#E1E1E1" stroke-miterlimit="10" d="M-2.5,343.2c0.6,0.7,1.2,1.5,1.9,2.2c0.7,0.7,1.4,1.4,2.4,1.6
	c3.1,0.7,5.1-4.1,8.3-4.2c1.8,0,3.3,1.5,3.9,3.1c0.7,1.7,0.7,3.5,1,5.2c0.7,4.2,2.9,7.9,5.7,11.2"/>
<path fill="none" stroke="#E1E1E1" stroke-miterlimit="10" d="M160.8,292.8c0.8-1,2.6-0.9,3-2.1c0.5-1.2-1-2.2-1.7-3.3
	c-0.7-1.1-0.8-2.7-1.9-3.3c-0.7-0.4-1.7-0.3-2.6-0.3c-2.1,0-4.1-1.1-5.3-2.8c-1.5-2-1.7-4.7-2.5-7.1c-0.4-1.1-1.1-2.3-2.2-2.4
	c-1-0.1-2,0.6-2.5,1.6c-0.5,0.9-0.7,2-1.1,2.9c-0.6,1.5-1.8,2.7-2.5,4.2c-0.5,1-0.7,2.1-0.9,3.2c-1,6.2-0.2,12.7,2.2,18.4
	c0.2,0.4,0.3,0.7,0.6,1c0.3,0.2,0.6,0.3,1,0.3c2.2,0.2,4.3-0.7,6.1-2c1.8-1.3,3.2-2.9,4.7-4.5c0.9-1,2-2,3.4-2.1
	c0.4,0,0.8,0,1.1-0.1C160.4,294,160.5,293.3,160.8,292.8z"/>
<path fill="none" stroke="#E1E1E1" stroke-miterlimit="10" d="M247.4,334.6c-0.5,0.4-1.2,0.1-1.9-0.1c-2.1-0.6-4.5,0.2-6.5-0.6
	c-2.4-0.9-3.5-3.5-4.9-5.5c-1.2-1.7-4.1-3.1-3.6-5.1c0.4-1.3,2.9-0.4,3.7,0.7c0.7,0.9,1.4,1.8,2.4,2.3s2.2,0.8,3.1,1.5
	c0.7,0.5,1.3,1.2,2,1.7c1.6,1.2,3.8,1.5,5.3,2.9C247.7,332.9,248.1,334.1,247.4,334.6z"/>
<path fill="none" stroke="#E1E1E1" stroke-miterlimit="10" d="M247.4,361.5c-6.5-3.3-12.7-7-17.2-12.5c-0.5-0.6-1-1.3-1.6-1.9
	c-0.7-0.7-1.5-1.3-2.3-1.9c-2.8-2.1-5.6-4.2-8.5-6.3c-0.9-0.7-1.8-1.4-2.4-2.3c-0.5-0.9-0.7-2-1.2-2.9c-0.9-1.8-2.9-2.9-4-4.6
	c-1.3-2.2-1-5.1-2.1-7.3c-0.5-1-1.4-2-1.7-3.1c-0.4-1.7,0.5-3.4,0.7-5.1c0.2-2-0.7-3.9-0.9-5.9c-0.1-1.5-1-4,0.4-4.6
	c2.9-1.2,4.6,4.4,5.8,7.3c0.2,0.6,0.5,1.2,1,1.5c1.1,0.6,2.5,0.3,3.8,0c1.5-0.3,0.3-3.5,1.8-3.9c0.3-0.1,0.7,0,1.1,0.1
	c2.4,0.8,4.4,2.6,5.4,4.9c0.2,0.4,0.3,0.9,0.7,1.1c0.7,0.5,1.7,0.2,2.4,0.5c0.6,0.2,1,0.8,1.4,1.3c1,1.4,2,2.9,3,4.3
	c0.3,0.4,0.6,0.9,1,1.2c0.9,0.7,2.1,0.8,3.1,1c2.3,0.5,4.3,1.9,5.6,3.8c0.2,0.3,0.4,0.6,0.7,0.8c0.3,0.2,0.7,0.1,1.1,0.1
	c3-0.4,5.9-4.1,8.5-2.6c0.8,0.5,0.1,1.8,0.2,2.7c0.3,3.7-0.2,7.3,0.6,10.9c0.6,2.7,2.2,5.1,4.2,6.9c2.1,1.9,4.8,3.3,7.7,3.5
	c1.9,0.1,3.7-0.3,5.5-0.7c3.4-0.7,6.7-1.4,10.1-2.1c0.7-0.2,1.5-0.3,2.3,0c0.6,0.2,1.1,0.8,1.6,1.2c2.8,2.4,6.9,1.4,10.4,0.3
	c3.4-1.1,7.4-2.4,10.5-0.4c2.7,1.8,3.7,5.2,5.4,8c1.9,3.3,5.2,5.4,8.7,7.1"/>
<path fill="none" stroke="#E1E1E1" stroke-miterlimit="10" d="M211.5,301c0.8,1.5,0.8,4.2,2.5,4.6c1.5,0.4,2.8-1.6,4.3-1.4
	c0.6,0.1,1.2,0.4,1.7,0.7c2.3,1.3,4.3,3.1,5.8,5.3c0.4,0.6,0.9,1.3,1.5,1.7c0.5,0.3,1.1,0.3,1.7,0.5c1.5,0.5,2.6,1.8,3.8,2.8
	c2.8,2.2,6.6,3.1,8.9,5.8c0.3,0.4,0.7,0.8,1.1,0.9c0.3,0.1,0.6,0,0.9-0.1c2.1-0.5,4.1-1.3,6.2-1.8c2.1-0.5,4.4-0.6,6.3,0.4
	c1.4,0.7,3.4-1.6,4.7-0.7c2.6,1.8,0.5,6.3,0.8,9.5c0.1,0.7,0.1,1.4,0.5,1.9c0.4,0.5,1.1,0.8,1.7,1.1c2.3,1.3,3.4,4.3,6,4.8
	c1.9,0.4,3.8-0.9,5.7-0.7c1.5,0.1,2.7,1.1,4.1,1.6c2.3,0.9,4.9,0.7,7.4,0.7c6.8,0,13.7,2,19.5,5.7c2.3,1.5,4.6,3.2,7.3,3.5
	c1.2,0.1,2.4,0,3.4,0.4c1.4,0.5,2.3,1.8,3.4,2.7c3.8,3.3,9.7,3.2,13.3,6.6c0.6,0.6,1.1,1.2,1.9,1.5c1,0.4,2.2,0.1,3.3,0.3
	c2.1,0.3,3.6,2.4,5.6,3c1.2,0.4,2.5,0.2,3.8,0c10.3-1.7,20.4-4.4,30.2-8.1"/>
<path fill="none" stroke="#E1E1E1" stroke-miterlimit="10" d="M211.7,301.1c-2.7-3-5.3-6.1-8-9.1c-0.5-0.5-1.1-1.1-1.7-0.9
	c-0.4,0.1-0.7,0.5-1,0.8c-1.2,1.2-3.1,1.1-4.5,2.1c-0.6,0.4-1,1-1.5,1.5c-1.6,2-3.2,4.1-4.2,6.4c-0.8,1.7-1.2,3.5-1.6,5.4
	c-0.2,0.9-0.4,1.9-0.3,2.9c0.1,0.9,0.3,1.7,0.5,2.6c1.2,4.8,1.3,9.8,1.3,14.7c0,1.6,0,3.3,0,4.9c0,5.4,0.1,11,2.2,16
	c2.2,5.3,6.5,9.5,10.7,13.4c0.1,0.1,0.3,0.3,0.4,0.4"/>
<path fill="none" stroke="#E1E1E1" stroke-miterlimit="10" d="M181.2,362.6c-5.3-5.2-5-7.8-8.2-15.9c-1.3-3.2-1.3-12.6-3.7-15.1
	c-3.7-3.9-5.4-3.4-9.1-8.9c-1-1.5-2.2-4-3.8-4.5c-1.8-0.6-5.4,1.4-7.2,1.8c-3.3,0.8-6.4,2.1-9.4,3.8c-0.9,0.5-3.6,0.5-4.5,0.1
	c-0.9-0.4-1.2-2.3-1.3-3.3c-1.9-10.8-2.1-20.3-4-31.1c-0.9-5.4-1.9-11-0.6-16.4c0.8-3.4,2.6-6.5,4-9.7c4.3-9.4,6.3-19.8,5.8-30
	c-0.1-1.5-0.2-3.1-1-4.5c-1.2-2.2-3.6-3.2-5.9-4.2c-8.5-3.5-16.9-7-25.4-10.5c-3.7-1.5-10.2-3.1-9.3-6.9c0.5-2,4.2-0.9,5.6-2.4
	c1.2-1.2-1-4.4,0.5-5c1.3-0.6,1.9-0.7,3-1.6c1.5-1.2,3.5,3.5,5.1,2.5c1.6-1,2.3-2.6,4.2-2.5c15.4,1.2,30.1,9,39.9,21
	c0.8,1,1.7,2.2,1.8,3.6c0.1,1.4-0.7,2.7-1.5,3.9c-4.4,7.2-7.6,15.1-9.4,23.4c-1.3,6-1.7,12.8,1.8,17.9c4.8,6.9,15.5,8.8,18.3,16.7
	c1,2.8,0.7,6,1.5,8.9c0.6,2.2,1.9,4.3,3.6,5.8c2,1.8,4.8,2.9,7.3,2c1.2-0.4,2.2-1.2,3.3-2c6.8-5.4,11.9-17.7,20.5-16.3
	c9.4,1.5,10.8,16.2,19.2,20.7c3.2,1.7,5.5,4.7,8.8,6c7.2,2.9,15.1,1,22.8,2.1c6.8,1,11.4-10.6,17.6-7.8c4.4,1.9-7.9,10.2-4.3,13.4
	c0.7,0.6,2-0.3,2.8,0.3c2.6,2,3.7,5.5,6.8,6.6c2.6,0.9,5.4,0.9,8.1,1.3c2.6,0.4,5.2,1.4,7.7,2.3c3.7,1.4,7.5,2.7,10.9,4.7
	c4.2,2.4,8.3,5.9,13.2,6c3.5,0,6.8-1.7,10.3-2c5.1-0.3,10.3,3.1,12.1,7.9c0.2,0.7,0.4,1.4,0.9,1.9c0.5,0.6,1.3,1,2,1.3
	c4.8,1.9,10.2,1.6,15.3,1.1c7.2-0.8,14.3-2.3,21.3-4.5"/>
<path fill="none" stroke="#E1E1E1" stroke-miterlimit="10" d="M161.2,361.7c-2.2-5.3-3.4-11.4-5.8-16.5c-0.7-1.5-1.4-3-2.5-4.1
	c-2.5-2.5-6.4-3-9.8-2.2c-3.4,0.8-6.5,2.5-9.7,4c-4.3,1.9-8.8,3.1-13.5,3.7c-0.4,0-0.8,0.1-1.2,0c-1.5-0.5-1.1-2.7-0.6-4.1
	c5.5-13.7,6.1-29.2,1.9-43.3c-2.4-7.9-6.3-15.9-4.2-23.9c1.5-5.7,5.9-10.9,4.9-16.6c-0.6-3.5,4.5-5.7,5.4-9.2c0.7-2.5-0.7-5.1-2.5-7
	c-2.9-3-6.9-4.9-11-5.3c-2.4-0.2-5.1,0.1-7.1-1.3c-1.1-0.7-1.8-1.9-2.9-2.6c-1.2-0.9-2.8-1.2-4.3-1.5c-6.7-1.6-16.3-2.7-18.2-9.4
	c-0.7-2.4,5-1.4,5.7-3.8c0.4-1.3-1.8-2.2-1.3-3.4s2.1-0.9,3.3-1.5c5.4-2.6,1.4-13.2,6.1-17c4-3.3,10.2-2.2,15.1-4.2
	c2.3-1,4.6-2.1,7-2.2c1.8-0.1,3.5,0.3,5.2,0.8c8.1,2.2,15.9,5.8,22.9,10.4c3.8,2.5,7.4,5.4,10.9,8.3c4,3.3,8.1,7.1,9.3,12.1
	c0.4,1.9,0.4,3.9-0.5,5.6c-0.8,1.4-2.2,2.7-2.2,4.3c0,1.1,0.8,2.2,0.5,3.4c-0.3,1.4-1.9,2-2.9,3c-2,2.1-1.1,5.5-1.3,8.5
	c-0.2,2.7-1.7,5.3-1.9,8c-0.5,5,2.8,9.5,6,13.4c2.4,3,4.9,6.1,7.3,9.1c3.5,4.3,7.4,8.9,12.9,9.8c1.4,0.2,3,0.2,4.3-0.5
	c1.9-0.9,3.1-2.9,4.7-4.3c3.8-3.4,9.7-3.5,14.5-1.8c4.8,1.7,9,4.8,13.4,7.4c11.9,6.9,27.2,13.9,39.7,8.2c5.4-2.4,11-5.1,16.4-2.8
	c1.3,0.5,2.5,1.3,3.4,2.3c2.2,2.8,1,8.5,4.3,9.7c4.8,1.8,9,4.8,13.8,6.6c1.4,0.5,2.9,0.8,4.2,1.4c1.9,0.8,3.5,2.2,5.1,3.3
	c5.8,4,13,5.5,19.9,6.6c1.6,0.2,3.3,0.5,4.8,1.1c3.5,1.5,5.7,5,6.8,8.5c0.4,1.2,0.8,2.5,1.8,3.2c0.6,0.5,1.5,0.6,2.2,0.7
	c6.2,0.9,12.5,1.4,18.8,1.4c1.2,0,2.4,0,3.6-0.3c1.7-0.3,3.2-1.1,4.7-1.9c3.1-1.6,6.2-3.2,9.2-4.9"/>
<path fill="none" stroke="#E1E1E1" stroke-miterlimit="10" d="M103.4,361.8c0.6-2.8,1.5-5.6,2.1-7.8c1.7-5.9,4.5-11.5,6.1-17.5
	c2.1-7.7,2.1-16,0-23.7c-3.7-14-14.1-26.4-13.8-40.9c0-1,0.9-1.7,1-2.7c1.1-8.7-6.7-14.2-10.9-20.7c-4-6.1-6.3-12.7-11-19
	c-4.3-5.8-3.5-16.3,3-19c0.9-0.4,2,0.2,3,0c7.5-1.5,0.8-13.4,5.5-15.2c7.8-3.1,15.3-6,21.5-11.8c15.9-14.9,35.2,14,51,26
	c2.9,2.2,5.2,3.7,8,6c2.2,1.8,2.8,5.9,2,9c-2.9,11.8-7,22.1-5,34c0.7,4.1,1.9,9.1,5,12c7.8,7.3,20.7,5.5,26-3c2.4-3.8-0.2-11.8,5-14
	c0.9-0.4,1.6-0.3,2,0c7.6,4.7,5.8,16.4,14,21c2,1.1,3.8,2.2,5,3c9.9,6.9,23,6,34.8,4.5c6.9-0.9,14-0.2,20.5,2.3
	c0.9,0.4,1.9,0.7,2.6,1.5c0.7,0.7,0.9,1.7,1.3,2.6c2,4.8,6.5,8.1,11.4,9.9c6.6,2.5,13.7,2.7,20.8,2.9c4.5,0.1,9.5,2.6,13.4,0.4
	c2-1.1-0.7-4.3-1.8-6.3c-3.6-6.1-1.4-14.4-4.8-20.6c-1.9-3.4-5.1-5.7-8.3-7.9c-7.2-5-14.3-9.9-21.5-14.9c-3.7-2.5-7.4-5.1-10.1-8.7
	c-5-6.7-5.5-15.7-9.1-23.3c-2.2-4.7-5.7-9.2-5.9-14.4c-0.2-4.5,2-8.6,4.2-12.5c0.7-1.2,1.4-2.4,2.3-3.4c1.5-1.5,3.7-2.3,5.5-3.5
	c4.8-3.2,6.8-9.5,11.5-12.7c1.8-1.2,4-2,5.6-3.5c1.8-1.6,2.8-4,4.3-5.9c4.8-6,13.5-6.8,21.2-6.4c7.7,0.4,15.9,1.4,22.5-2.5
	c3.2-1.9,6.1-4.6,9-7c1.3-1.1,2.7-2.2,3.5-3.8c0.7-1.5,0.6-3.6-0.7-4.7c-0.7-0.6-1.7-0.8-2.5-1.3c-1.8-1-2.8-3.1-4.6-4.3
	c-3.4-2.3-8.4-0.5-11.7-2.9c-3.3-2.4-2.8-7.4-3.4-11.4c-0.5-3.2-1.9-6.3-1.6-9.5c0.3-3.4,2.4-7,0.9-10.1c-0.7-1.5-2.1-2.5-3.2-3.7
	c-2.8-3.1-3.5-7.5-3.7-11.7c-0.1-1-0.1-2,0.2-3c0.4-1.2,1.3-2.2,2.2-3c3.9-3.7,8.7-6.4,13.9-7.8c2.5-0.7,5.2-1.1,7.1-2.8
	c1.7-1.5,2.5-3.8,4.3-5.1c1.5-1.1,3.5-1.3,5.3-1.8c3.4-1.1,6.1-3.6,9.1-5.7c3-2,6.6-3.7,10.1-2.6"/>
<path fill="none" stroke="#E1E1E1" stroke-miterlimit="10" d="M147.8,362c-0.3-0.8-0.7-1.6-1-2.4c-0.9-2.1-2.5-4.4-4.8-4.2
	c-1.6,0.1-2.8,1.5-4.2,2.3c-3.3,2-7.4,1-11.2,1.6c-2,0.3-3.8,1.4-5.5,2.9"/>
<path fill="none" stroke="#E1E1E1" stroke-miterlimit="10" d="M294.4,354.3c0.1,0.7,0.9,0.9,1.6,1c1.5,0.2,3,0.9,4.1,1.9
	c0.2,0.2,0.4,0.3,0.6,0.5c0.5,0.3,1,0.3,1.6,0.4c2.8,0.2,5.7,2.5,8.3,1.4c1.1-0.5,0-2.3-0.8-3.1c-0.8-0.8-1.9-1.3-2.8-2
	c-0.9-0.7-1.6-1.5-2.6-2.1c-0.9-0.6-2.2-0.9-3.1-0.3c-0.4,0.2-0.7,0.5-1,0.8c-0.4,0.2-0.9,0.3-1.4,0.3c-1,0.1-1.9,0.2-2.9,0.3
	C295.3,353.3,294.4,353.6,294.4,354.3z"/>
<path fill="none" stroke="#E1E1E1" stroke-miterlimit="10" d="M284.9,351.4c0.6-0.7,0.1-1.9-0.7-2.3s-1.9,0-2.6,0.7
	c-0.5,0.5-1.1,1.6-0.5,2c0.8,0.5,1.9,0,2.8,0c0.2,0,0.4,0,0.6-0.1C284.7,351.6,284.8,351.5,284.9,351.4z"/>
<path fill="none" stroke="#E1E1E1" stroke-miterlimit="10" d="M365.8,88.8c0.1-0.6-0.5-1.1-1.1-1.1c-0.6,0-1.1,0.4-1.6,0.7
	c-0.7,0.5-1.4,1.1-1.6,1.9s0.8,1.9,1.5,1.3c0.8-0.6,1.5-1.4,2.3-2.1C365.5,89.4,365.7,89.1,365.8,88.8z"/>
<path fill="none" stroke="#E1E1E1" stroke-miterlimit="10" d="M377.4,144.6c-12.9,4.3-20.8,18.7-34,21.9c-3.3,0.8-6.6,0.9-10,0.9
	c-6,0.1-12.1,0.2-18.1,0.3c-2.5,0-5.2,0.1-7.3,1.5c-3.3,2.1-4.1,6.6-4.6,10.5c-0.3,2.4-0.6,4.8-0.2,7.2c0.4,2.1,1.3,4,2.1,5.9
	c1,2.1,2,4.3,3,6.4c1.7,3.7,3.5,7.5,6.8,9.9c3.1,2.2,7.5,3.3,8.7,6.9c1.4,4.1-2.6,8.3-2,12.6c0.2,1.5,0.9,2.8,1.6,4.1
	c1,1.8,1.9,3.5,2.9,5.3c0.5,1,1.1,2,2,2.6c0.6,0.4,1.3,0.6,1.9,1c1.1,0.6,1.8,1.6,2.5,2.6c2.5,3.5,5,7,7.5,10.5
	c0.8,1.1,1.6,2.2,2,3.5c0.9,2.6-0.6,5-1.4,7.7c-1.6,5.2,1.7,10.9,1.8,16.4c0,2.5,0,5.3,1.4,7.4c0.8,1.2,2,2.1,2.9,3.2
	c1.9,2.5,2.5,6,4.9,8c2.1,1.7,5,1.8,7.3,3.1c3,1.6,4.6,4.8,6.5,7.6c1.8,2.5,3.9,4.8,6,7c0.9,0.9,1.7,1.8,2.6,2.7"/>
<path fill="none" stroke="#E1E1E1" stroke-miterlimit="10" d="M378.4,160.8c-7.9,4.9-15.4,10.5-22.3,16.7c-1.2,1.1-2.5,2.4-2.4,4.1
	c0.1,1.2,0.9,2.1,1.5,3.1c2,2.9,2.9,6.6,2.6,10.1c-0.5,5.9-4.3,11.3-3.7,17.1c0.1,1.3,0.5,2.6,0.6,3.9c0.1,1.2,0.1,2.5-0.1,3.7
	c-0.5,2.8-1.8,6.2,0.3,8.1c0.6,0.6,1.4,0.9,2,1.3c1.6,1.1,2.5,2.8,3.3,4.5c3.5,7.3,6.7,14.9,9.5,22.5c1.6,4.4,0.9,10.3-1.6,14.3
	c-0.9,1.4-2,2.6-2.9,3.9c-2.2,3.3-3,7.2-3.6,11.1c-0.2,1.3-0.4,2.8,0.5,3.8c0.7,0.8,1.7,1,2.6,1.6c0.6,0.4,1.1,0.9,1.6,1.5
	c1,1.1,2,2.2,3,3.3c2,2.2,4,4.5,6,6.7"/>
<path fill="none" stroke="#E1E1E1" stroke-miterlimit="10" d="M210.9,81.2c-0.3-0.5-0.7-1-1.2-1.4c-0.8-0.5-1.9-0.4-2.7,0.1
	c-0.8,0.5-1.4,1.3-1.8,2.1c-0.9,2-0.8,4.3,0.1,6.3c1,1.9,2.8,3.4,5,3.8c0.5,0.1,1,0.2,1.4,0c1.3-0.3,1.9-1.9,2-3.3
	c0-0.8,0-1.7-0.2-2.5C213.1,84.5,212,82.8,210.9,81.2z"/>
<path fill="none" stroke="#E1E1E1" stroke-miterlimit="10" d="M199.4,110.5c0.7,0.8,2,0.2,2.9-0.3c2.2-1.3,4.6-2.5,7.2-2.6
	c0.6,0,1.3,0,1.9-0.1c1.4-0.2,2.7-1.2,3.3-2.5s0.9-3,0.1-4.1c-0.9-1.3-3.1-0.2-4.6-0.9c-0.9-0.4-1.6-1.5-2.6-1.2
	c-0.2,0.1-0.4,0.2-0.6,0.3c-1.8,1.4-2.3,3.6-3.4,5.6c-0.8,1.5-2.9,1.8-4,3.1C199.1,108.6,198.7,109.8,199.4,110.5z"/>
<path fill="none" stroke="#E1E1E1" stroke-miterlimit="10" d="M2.6,298.6c-0.9-0.1-1.9-0.6-2.6-0.1c-0.7,0.5,0.2,1.8,0.9,2.1
	c0.8,0.4,1.7,0.2,2.3-0.4c0.3-0.3,0.5-0.7,0.3-1.1C3.4,298.7,3,298.6,2.6,298.6z"/>
<path fill="none" stroke="#E1E1E1" stroke-miterlimit="10" d="M-3.7,47c1.9-0.1,3.9,0.3,5,1.9c2,2.7-3.2,6-2.3,9.2
	c0.3,1.1,0.8,2.2,1.8,2.8C1.5,61.4,2.3,61.5,3,62c1,0.7,1.5,1.9,2.3,2.8c2,2.3,5.8,2.4,8.6,1c2.8-1.4,4.9-3.8,7-6
	c0.5-0.5,1.1-1.1,1.8-1c0.4,0,0.7,0.2,1,0.4c1.9,1.1,4.1,1.9,6.4,1.7c2.2-0.2,4.4-1.6,5.2-3.6c0.4-1,0.5-2.1,0.7-3.2
	c0.4-2.6,1.4-5,2.1-7.5s1-5.2,0.1-7.6s-4-2.4-5.9-4.1c-0.9-0.9,0.7-2.6,0.2-3.7c-0.7-2-3.9-1.2-6-1.4s-5.4-2.2-3.9-3.8
	c1.8-2,1.4-4.1,1.7-6.8c0.3-2.7,4.2-5.3,2.4-7.3c-1.6-1.8-4.8-0.1-6.7,1.3s-3.4,3.4-5.1,5c-2.2,2-4.9,3.5-7.8,4.3
	c-2,0.6-4.2,0.9-5.5,2.5c-0.8,1-1.1,2.2-1.7,3.3C-1,29.3-1.9,30.1-3,30.8"/>
<path fill="none" stroke="#E1E1E1" stroke-miterlimit="10" d="M144.5,215.5c0.5,0.1,1.1,0.1,1.4-0.3c0.1-0.2,0.2-0.5,0.2-0.7
	c0-0.4,0.1-0.9,0.1-1.3c0-0.3,0-0.5-0.1-0.7c-0.1-0.1-0.3-0.2-0.5-0.2c-0.6-0.1-1.2-0.1-1.8-0.1c-0.4,0-0.9,0-1.2,0.2
	c-0.4,0.2-0.7,0.5-0.8,0.9c-0.1,0.7,0.4,1.2,1,1.6C143.2,215.1,143.8,215.4,144.5,215.5z"/>
<path fill="none" stroke="#D6D6D6" stroke-miterlimit="10" d="M69.5,305.8c-0.6,3.7,3.3,6.8,3.5,10.6c0.1,2.4-1.2,4.7-0.6,7
	c0.8,3,4.4,4.3,6.1,6.9c1.5,2.3,1.2,5.4,0.5,8.1c-0.5,1.9-1.2,3.9-0.8,5.8c0.5,2.3,2.9,3.4,3.3,5.7c0.5,2.6-1,6.7-2.1,9.1
	c-0.7,1.5-1.2,3.1-1.6,4.5"/>
<path fill="#EAEAEA" stroke="#D6D6D6" stroke-miterlimit="10" d="M176,254.5c0.8,2.4,3.2,4.1,5.6,5.1c1.8,0.7,3.8,1.2,5.7,0.6
	c2.1-0.7,3.6-2.5,4.5-4.5c1.6-3.3,2-7.2,1.7-10.9c-0.3-3.7-1.2-7.3-2.2-10.9c-0.1-0.3-0.2-0.6-0.5-0.7c-0.2,0-0.4,0.1-0.6,0.2
	c-2.6,1.6-5.3,3.1-7.9,4.7c-0.6,0.4-1.3,0.8-1.8,1.3c-1.2,1.2-1.6,3-2.2,4.6c-0.6,1.7-1.5,3.4-2,5.1S175.4,252.8,176,254.5z"/>
<path fill="none" stroke="#D6D6D6" stroke-miterlimit="10" d="M139.4,362.5c0.7-1.6,0.9-3.5,1.9-5c2.6-4.3,3.4-9.2,3.1-14.4
	c-0.1-2.2,1.7-4,2-6.2c1.2-7.4,7.3-15.6,10.8-20.4"/>
<path fill="none" stroke="#D6D6D6" stroke-miterlimit="10" d="M192.3,206.1c-0.1,1.7,2,3.9,2.8,5.3c0.2,0.4,1.8,3.8,1.8,4.3
	c0.2,1.8-1,3.2-1.7,4.9c-0.9,2.3-2.9,4.1-3.7,6.5c-0.5,1.6,0.1,4.6-0.7,6.1"/>
<path fill="none" stroke="#4E9BD7" stroke-miterlimit="10" d="M148.7,161.1c-0.9-0.5-2.6-0.6-2.8-1.2s-1.3-1.4-1.8-1.7
	c-2.5-1.1-3.5-0.8-6.1-0.1c-1,0.3-2.5,0.7-3.5,0.4c-1.4-0.4-2.5-2-3.2-3.2c-1-1.8-2.9-4-5-4.4c-2.4-0.4-3.8,2.3-5.7,3.9
	c-1.8,1.6-3.8,2.5-6.1,3.5c-0.5,0.2-1.5,0.1-2.1-0.3c-0.6-0.4-2.4-2.8-3.1-2.8c-3.9,0.1-5.3-0.2-8.6-2"/>
<path fill="none" stroke="#4E9BD7" stroke-miterlimit="10" d="M63.7,158.5c-1.6,1.6-4,0.8-6.3,4.1c-1.3,1.8-2.4,3-4.2,4.2
	c-1.3,0.9-4.5,1.7-5.6,2.9c-1,1-1.5,2.3-2,3.6c-1.2,2.9-2.8,5.7-4.6,8.3c-0.9,1.3-1.9,2.5-3.3,3.2c-2.4,1.3-5.1,0.3-7.8,0.1
	c-2.7-0.2-6.3-0.9-7.7,1.4c-1,1.6-0.7,5.3-0.8,7.2c-0.3,5-2.1,10.7-7,11.4c-7.3,1.1-5.5,4.5-6.8,5.5c-2.2,1.7-3.1,3.2-5.2,4.9
	c-1.5,1.2-3.2,0.6-4.9-0.1"/>
<path fill="#EAEAEA" stroke="#D6D6D6" stroke-miterlimit="10" d="M72.9,276.1c-1.1-1.7-1-3.3-0.8-5.3c0.2-2,0.1-4.3-1.4-5.7
	c-0.7-0.7-1.6-1-2.4-1.6c-0.7-0.5-1.2-1.1-1.9-1.5c-2.2-1.3-5-0.7-7.5-0.8c-1.9-0.1-3.7-0.6-5.6-0.8c-2.2-0.2-4.5,0-6.7,0.7
	c-1.2,0.4-2.3,0.9-3.2,1.9c-1.6,1.9-1.3,4.7-1,7.2c0.1,0.5,0.2,1,0.1,1.6c-0.1,1.4-1.2,2.6-1.3,4c-0.2,2.2,2.1,3.9,2.5,6.1
	c0.3,1.4-0.2,2.8-0.1,4.1c0.4,3,3.5,7,6.3,5.9c0.6-0.2,0.6-1.3,1.1-1.7c0.6-0.4,1.4-0.4,1.8,0.1c0.2,0.2,0.2,0.5,0.3,0.7
	c0.7,3-0.5,7.5,2.2,8.9c2.3,1.2,2.4-2.6,4-2.5c1.2,0.1,2,1.4,2.3,2.6c0.3,1.2,0.8,3,1.8,3.7c1.3,0.9,2.9-0.1,4.1,0.7
	c0.6,0.4,1.2,1.2,1.9,1c0.5-0.1,2.7-3.4,2.9-3.9c0.9-2.3,0.3-2.5,1.1-4.8c0.8-2.5,1-4.3,1.8-6.8c0.6-1.8,1.2-3.7,1.2-5.6
	c0-2-0.1-4.5-1.4-6C74.8,277.8,73.5,277,72.9,276.1z"/>
<path fill="#FFFFFF" stroke="#D6D6D6" stroke-miterlimit="10" d="M46.9,276.6c0,0.7,0,1.5,0,2.2c0,0.9,0.2,1.3,0.9,1.9
	c0.4,0.4,1.1-1,1.1-1.6c0-0.7,0.1-1.4-0.1-2.1c-0.2-0.7-0.5-1.9-1.1-2.2C47.6,274.8,47,276.1,46.9,276.6z"/>
<path fill="none" stroke="#D6D6D6" stroke-miterlimit="10" d="M43,263.3c-3.5-4.3-7.3-8.3-11.9-11.5c-8.2-5.7-18.3-8.1-28.1-10.4
	c-1.4-0.3-2.9-0.6-4.2-0.1c-0.8,0.4-1.5,1-2.3,1.6"/>
<path fill="#EAEAEA" stroke="#D6D6D6" stroke-miterlimit="10" d="M7.1,108c1.4-1.6,2.9-3.3,4.3-4.9c1.3-1.5,2.6-3,4.4-3.6
	c0.5-0.2,1-0.5,1.3-0.9c0.4-0.4,0.6-0.8,0.7-1.3c0.5-2,1.8-3.7,3.2-5.3c0.5-0.6,1-1.1,1.6-1.6c1.1-0.8,2.6-1,4-0.9
	c1.2,0.1,2.4,0.3,3.1,1.2c1.3,1.6,0,3.9-1.3,5.6c-1.3,1.6-2.5,3.3-3.8,4.9c-0.3,0.4-0.7,0.9-0.7,1.5c0,0.3,0.1,0.5,0.1,0.8
	c0,1-1.2,1.9-1.8,2.7c-1.5,2.1,1.6,4.7,0.4,6.9c-0.6,1.1-2,1.5-2.9,2.3c-0.5,0.5-0.9,1.2-1.4,1.7c-0.5,0.5-1.1,0.8-1.6,1.1
	c-1.7,0.9-3.5,1.8-5.2,2.7c-1.5,0.8-3.1,1.6-4.1,2.9c-0.7,0.8-1.1,1.8-1.8,2.7c-1.5,2.1-4.2,3.4-6.8,3.3c-1.2,0-2.5-0.5-2.2-1.6
	c1-3.7,6.3-4.6,7.5-8.2c0.8-2.4-0.3-5,0.2-7.4C4.7,110.7,5.9,109.3,7.1,108z"/>
<path fill="none" stroke="#D6D6D6" stroke-miterlimit="10" d="M53.8,181.6c-0.9,0.7-2,1-3.2,1.3c-1.4,0.3-2.9,0.7-4.3,1
	c-0.4,0.1-0.8,0.2-1.1,0.4c-0.6,0.4-0.9,1.3-1.7,1.5c-0.6,0.1-1.4-0.2-1.7,0.4"/>
<path fill="none" stroke="#D6D6D6" stroke-miterlimit="10" d="M201.1,198.1c1.1-0.3,2.2-0.6,3.3-0.9c0.6-0.2,1.2-0.3,1.8-0.1
	c0.6,0.2,0.5,0.8,0.6,1.4c0.1,0.5,1,0.2,1.5,0.2c1.1,0.1,2.2,0.9,2.4,2.1"/>
<path fill="none" stroke="#D6D6D6" stroke-miterlimit="10" d="M216.1,214.4c-0.5,0.9-1.1,1.8-1.6,2.7c-0.3,0.5-0.6,1.3-0.1,1.7
	c0.3,0.2,0.8,0.1,1.2,0.3c0.3,0.2,0.4,0.5,0.5,0.8c0.3,0.9,0.6,1.7,0.9,2.6"/>
<path fill="#EAEAEA" stroke="#D6D6D6" stroke-miterlimit="10" d="M210.7,200.6c0.5-0.7,1.9-0.6,2.5,0.1c0.2,0.3,0.3,0.7,0.5,1.1
	c0.2,0.3,0.5,0.5,0.7,0.7c1.6,1.3,3.1,2.7,4.4,4.2c0.9,1,1.8,2.3,1.6,3.6c-0.1,0.6-0.4,1.2-0.8,1.7c-0.3,0.4-0.5,0.8-0.8,1.1
	c-1,1-2.7,1.8-3.8,1c-2.3-1.7-3.3-4.8-3.5-7.7c-0.1-0.8,0-1.6-0.1-2.3C211.2,202.9,210,201.6,210.7,200.6z"/>
<path fill="#EAEAEA" stroke="#D6D6D6" stroke-miterlimit="10" d="M343,319.5c0.6,0.7,1.6,0.9,2.5,1.2c1.8,0.6,3.9-0.6,4.4-2.4
	c0.3-1.2,0-2.5-0.5-3.7c-0.3-0.6-0.6-1.2-1.1-1.7c-1.1-1-2.8-0.9-4.1-0.2c-1.3,0.6-2.2,1.8-3,3c-0.4,0.7-0.8,1.6-0.3,2.3
	C341.5,318.6,342.4,318.8,343,319.5z"/>
<path fill="#EAEAEA" stroke="#D6D6D6" stroke-miterlimit="10" d="M297.6,292c0.8,0.2,1.5,0.3,2.3,0.2c1.2-0.2,2.1-1,2.9-1.9
	c1.5-1.7,2.7-3.6,3.1-5.8c0.4-2.2-0.2-4.6-1.7-6.2c-1-1.1-2.4-1.7-3.8-2.3c-0.9-0.4-1.9-0.8-2.8-1.3c-1.6-0.7-3.3-1.4-5-1.3
	c-1.6,0.1-3,1-4.4,1.8c-0.4,0.2-0.7,0.5-0.9,0.8c-0.2,0.4-0.2,0.8-0.2,1.2c0,2.8,0.2,5.6,0.5,8.4c0.1,0.6,0.2,1.3,0.4,1.9
	c1,2.5,4,3.3,6.6,3.9C295.5,291.6,296.5,291.8,297.6,292z"/>
<path fill="none" stroke="#D6D6D6" stroke-miterlimit="10" d="M303.2,289.8c0.8,0.2,2.2,0.8,3.1,1.3c4.7,3.2,11.5,2.5,15.8,6.3
	c1.6,1.4,2.8,3.3,4.6,4.2c1.7,0.8,3.8,0.7,5.2,1.9c0.6,0.5,1,1.2,1.3,1.8c0.9,1.7,1.9,3.4,2.8,5c0.8,1.5,1.9,3.1,3.6,3.3
	c1,0.1,2.3-0.2,2.8,0.7"/>
<path fill="#EAEAEA" stroke="#D6D6D6" stroke-miterlimit="10" d="M251.7,129.1c-0.2,0-0.4,0.2-0.5,0.3c-1.3,1.1-2.3,2.4-3.1,3.9
	c-0.1,0.2-0.3,0.5-0.3,0.7c-0.2,0.6,0,1.3-0.1,2c-0.1,0.6-0.4,1.2-0.3,1.8c0,0.5,0.3,1,0.6,1.4c0.6,0.9,1.5,3.3,2.1,2.4
	c0.1-0.2,0.2-0.4,0.4-0.5c0.5-0.2,0.8-0.7,0.8-1.2c0.1-0.5-0.1-1-0.2-1.5c-0.2-0.9-0.4-1.7-0.7-2.6c-0.1-0.3-0.1-0.5-0.1-0.8
	c0.1-0.6,0.6-1,1.1-1.4c0.6-0.5,1.1-1,1.6-1.6c0.2-0.2,0.4-0.5,0.4-0.7c0.2-0.7-0.4-1.4-1-1.9C252.2,129.2,252,129,251.7,129.1z"/>
<path fill="#EAEAEA" stroke="#D6D6D6" stroke-miterlimit="10" d="M285.9,156.5c0,0.1,0,0.3,0,0.4c0.1,0.2,0.4,0.3,0.6,0.3
	c1-0.1,1.8-1.2,2.8-1.3c0.3,0,0.7,0,1-0.1c0.6-0.2,0.8-1.1,0.6-1.7c-0.1-0.7-0.5-1.3-0.3-2c0.2-0.8,1-1.3,1.8-1.7
	c0.2-0.1,0.4-0.1,0.6-0.3c0.6-0.7-0.5-1.8,0-2.6c0.1-0.2,0.3-0.4,0.5-0.6c0.8-0.8,1.9-2.3,1-3c-1.3-1-3.2,1-3.9,2.4
	c-0.5,0.9-0.5,2-1,2.9c-0.1,0.1-0.2,0.3-0.3,0.4c-0.1,0.2-0.2,0.3-0.4,0.4C287.3,151.9,286.3,154.1,285.9,156.5z"/>
<path fill="#EAEAEA" stroke="#D6D6D6" stroke-miterlimit="10" d="M254.6,116.1c-0.4-1.2-2.2-1.4-2.6-2.6c-0.1-0.2-0.1-0.4-0.1-0.6
	c-0.3-1.4-1.7-2.3-2.9-3c-0.4-0.2-1-0.3-1.1,0.1c0,0.1,0,0.3,0,0.4c0.3,1.1,0.6,2.3,0.9,3.4c0.3,1.1,0.6,2.3,1.4,3.2
	c0.4,0.5,0.9,0.8,1.5,1c0.7,0.2,1.5,0.3,2.1-0.1C254.4,117.6,254.8,116.8,254.6,116.1z"/>
<path fill="#EAEAEA" stroke="#D6D6D6" stroke-miterlimit="10" d="M244.2,101.5c0.1,0,0.2-0.1,0.2-0.2c0.3-0.7,0.2-1.6-0.3-2.1
	s-1.4-0.7-2.1-0.3c-0.1,0.1-0.3,0.2-0.4,0.3c-0.1,0.2-0.2,0.4-0.2,0.7c-0.1,0.4-0.1,0.9,0.2,1.2c0.2,0.3,0.6,0.3,1,0.3
	c0.5,0,0.9,0.1,1.4,0.1C244,101.5,244.1,101.5,244.2,101.5z"/>
<path fill="#EAEAEA" stroke="#D6D6D6" stroke-miterlimit="10" d="M244.8,85c0.1-0.5-0.3-1.1-0.8-1.2c-0.5-0.2-1.1-0.1-1.6,0.1
	c-0.1,0-0.3,0.1-0.4,0.2c-0.5,0.3-0.3,1.1,0.1,1.5s0.7,1.2,1.3,1.1C244,86.6,244.6,85.7,244.8,85z"/>
<path fill="#EAEAEA" stroke="#D6D6D6" stroke-miterlimit="10" d="M280.5,10.7c0.7,1,1.1,2.1,1.7,3.2c1.2,2.5,1.6,3.6,2.7,5.8
	c0.9,1.9,1.5,3.7,1.5,5.8c0,3.1-3.1,5.2-4.7,7.9c-0.7,1.2-1.8,2.6-3.1,3.3c-0.8,0.4-2.1,0.6-2.9,0.9c-2.5,0.8-3.9,2.6-6,4.1
	c-3.3,2.4-7.2,3.9-11.2,4.3c-2.2,0.2-4.4,0.1-6.5,0.5c-1.3,0.3-2.5,0.8-3.8,1.1c-2.7,0.7-5.5,0.8-8.3,0.9c-1.9,0-3.8,0.1-5.7,0.1
	c-0.6,0-1.1-0.1-1.6-0.3c-0.9-0.3-1.4-1.2-2.2-1.8c-2.3-1.8-4.7-3.3-6.8-4.8c-2.3-1.6-5-2.6-7.1-4.5s-2.7-5.1-2.3-7.9
	c0.3-2.1,0.9-3.5,2.5-5c1.6-1.4,3.9-2.2,5.6-3.4c4.1-2.8,7.1-6.7,10.6-10.2c1.1-1.1,2.2-2.2,2.9-3.6c0.4-0.8,0.7-1.8,1.1-2.6
	c0.5-0.8,1.3-1.5,2.2-1.5c0.9,0,1.6,0.6,2.4,0.9c1.1,0.5,2.3,0.6,3.5,0.6c2.7,0.2,5.5,0.4,8.2,0.2c1.4-0.1,2.7-0.2,4.1-0.1
	c1.1,0.1,2.1,0.3,3.2,0.5c5.6,1.2,11.3,2.4,16.9,3.6c0.7,0.2,1.4,0.3,2,0.7C279.8,9.8,280.1,10.3,280.5,10.7z"/>
<path fill="none" stroke="#D6D6D6" stroke-miterlimit="10" d="M252.2,129.4c0-1.1,0-2.9-0.1-4c0-1.1-0.1-2.1,0.3-3.1
	c0.1-0.4,0.3-0.8,0.5-1.2c0.3-0.6,0.7-1.5,1.5-1.9"/>
<path fill="none" stroke="#D6D6D6" stroke-miterlimit="10" d="M300.8,131.6c0.6,1.2,0.3,2.3-0.2,3.3c-0.3,0.7-1.1,1.2-1.8,1.5
	c-0.8,0.3-1.6,0.5-2.3,0.9c-0.8,0.5-2.2,1.4-1.7,2.1c0.4,0.5,1,0.6,1,1.2c-0.1,0.6-0.4,1.1-0.9,1.5s-0.9,0.8-1.2,1.3"/>
<path fill="none" stroke="#D6D6D6" stroke-miterlimit="10" d="M330.3,147.1c0.2,0,0.3-0.3,0.3-0.5c0.2-0.8,1.4-1,2.2-1.4
	c0.4-0.3,0.9-0.6,1.4-0.8c0.3-0.1,0.7-0.2,1-0.2c1.4-0.2,2.8-0.4,4.2-0.6"/>
<path fill="none" stroke="#D6D6D6" stroke-miterlimit="10" d="M243.9,101.6c0.2,0.2,0.1,0.5,0.2,0.8c0.2,0.5,1.1,0.3,1.6,0.6
	c0.2,0.1,0.2,0.3,0.3,0.4c1.1,1,1.6,2.6,1.4,4c-0.1,0.4-0.2,0.8-0.2,1.3s0.3,0.9,0.7,1"/>
<path fill="none" stroke="#D6D6D6" stroke-miterlimit="10" d="M253.8,117.7c0.6,0.8,0.8,1.9,1.3,2.5c1,0.9,2.2,0.5,3.5,0.2
	c1.3-0.3,2.6-0.7,3.9-1.1c1.2-0.4,2.4-0.8,3.6-0.8c1.6-0.1,3.4,2.4,4.5,1.2c0.4-0.5,0.1-1.3,0.7-1.4c0.6-0.1,1.2,0.3,1.6,0.8
	c0.4,0.5,0.6,1.1,0.9,1.6c0.8,1.2,2.3,1.9,3.7,1.8c0.9-0.1,1.9-0.5,2.8,0c0.4,0.2,0.7,0.6,1.2,0.7c0.3,0.1,0.7,0,1-0.1
	c3.1-0.6,6.3,0.1,9.4,0.7c1.1,0.2,2.9,1.2,2.1,2c-0.8,0.8-2.2,2.2-1.3,2.8c1.1,0.7,3.2-0.3,3.8,0.8c0.5,1.1,0.9,2,2.1,2
	c1.2,0.1,2.3-0.1,3.5-0.3c1.2-0.2,2.5-0.5,3.3,0.3c0.4,0.4,0.7,1.8,1,2.2c2.6,3.3,3.8,0.7,6,1.6c1.2,0.5,1.3,2.1,2.5,1.8
	c0.3-0.1,0.6-0.2,0.9-0.2c1.1,0,0.4,2,1.3,2.7c1,0.7,2.4,0.2,3.1,1.2c0.7,1,0.2,1.7,1,2.6c1.5,1.7,1.9,0.2,6.5,2.5
	c0.5,0.3,1.2,0.3,1.7,0.7c0.5,0.4,0.9,0.9,1.2,1.4c1.1,1.6,2.2,3.5,2,5.5"/>
<path fill="none" stroke="#D6D6D6" stroke-miterlimit="10" d="M244.7,99.6c0.9-0.6,1.7-1.2,2.6-1.9c0.2-0.2,0.5-0.3,0.6-0.6
	c0.2-0.3,0.1-0.7,0-1c-0.2-0.7-1.1-0.8-1.5-1.4c-0.4-0.9,1.4-2.1,0.8-3c-0.6-0.9-1.8-1.1-2.6-1.8c-0.8-0.7-0.4-2.1-0.6-3.2"/>
<path fill="none" stroke="#D6D6D6" stroke-miterlimit="10" d="M243.2,48.5c-0.9,1.3-0.9,2.5-1.6,4c-0.7,1.6-0.6,4.1-0.5,5.9
	c0.1,1.9,0,3.9-0.1,5.8c-0.3,5-0.3,10-1.1,15c-0.1,0.8-0.2,1.8,0.2,2.5c0.6,0.9,1.4,1.1,1.7,2.1"/>
<path fill="none" stroke="#D6D6D6" stroke-miterlimit="10" d="M221.6-16.3c1.9,1.5,1.3,4.1,0.9,6.5c-0.1,0.5,1,0.4,1.4,0.1
	c0.4-0.4,0.7-0.9,1.2-1.2c0.9-0.5,1.9,0.2,2.4,1.1s0.6,1.9,1.2,2.7c0.1,0.1,0.2,0.2,0.3,0.1c1.9-0.7,2.3,1.7,2.9,2.5
	c2.2,2.9,4.5,4.6,6.8,7.4"/>
<path fill="#EAEAEA" stroke="#4E9BD7" stroke-miterlimit="10" d="M38.4,184.2c-0.4,0.7-0.4,1.6,0.2,2.2s1.5,0.7,2.2,0.4
	c0.7-0.4,1.1-1.3,1.1-2.1c0-0.8-0.3-1.6-0.5-2.4c-0.1-0.2-0.2-0.4-0.4-0.4c-0.2,0-0.3,0.1-0.4,0.2c-0.6,0.5-1.1,1.1-1.7,1.6
	C38.7,183.9,38.5,184,38.4,184.2z"/>
<path fill="none" stroke="#585858" stroke-miterlimit="10" stroke-dasharray="4,1" d="M67.7,362.6c-0.3-0.3-0.6-0.5-0.9-0.8
	c-5-4.6-8.4-10.6-11.6-16.6c-3.2-6-6.5-12.1-11.7-16.5c-3-2.5-6.5-4.4-9.5-7c-3.9-3.4-3.2-5.9-6-10.3c-2.4-3.8-9.2-7.5-8.5-14.3
	c0.9-9.2,8.6-15.7,14.6-22.8c8.1-9.5,11.5-22.2,12.4-34.6c0.9-12.4-0.5-24.9-1-37.4c-0.3-7.1-0.2-14.4-2.1-21.3
	c-2.3-8.5-10.1-24.4-12.2-33c-1.8-7.2,1.3-12.1,8.8-16.8c4.1-2.5,7.6-3.9,11.5-6.8c1.9-1.4,3.2-4,4.7-5.8c2.4-2.9,6.8-3.1,9.7-5.4
	c0.9-0.8,1.8-1.9,1.6-3.1c-0.2-1-1.1-2-0.7-3c0.2-0.4,0.5-0.7,0.8-1.1c0.7-1,0.5-2.3,0.7-3.4c0.4-2.3,2.5-3.9,4.1-5.7
	c4.1-4.6,5.1-11.1,7.3-16.8c1.7-4.4,4.2-8.4,5.5-12.9c0.6-2.1,0.9-4.2,1.2-6.3c0.4-2.6,0.8-5.1,1.2-7.7"/>
<path fill="none" stroke="#585858" stroke-miterlimit="10" stroke-dasharray="4,1" d="M-2.9,204.7c1.6-1.2,3.1-2.4,4.6-3.7
	c1.9-1.6,3.4-3.8,4.4-6.1c0.7-1.7,0.9-3.7,2.2-5c2.2-2,7-1.9,6.5-4.8c-0.2-1.2-1.4-2-1.6-3.1c-0.1-0.8,0.3-1.6,0.7-2.3
	c7.4-11.9,26.1-10.5,35.6-20.8c3.2-3.4,7.6-4.3,11.8-6.3c2.1-1,4.1-2,6.1-3.2c3.4-2.1,6.4-5,9.7-7.3c11.6-8.4,26.9-11.2,37.4-20.9
	c4.3-3.9,9.3-6.5,13.6-10.4c1.8-1.7,3.7-3.3,5.5-5c1.5-1.4,3.1-2.8,4.4-4.4c4.4-5.5,5.5-13,9-19.2c2.1-3.7,5-6.9,7.7-10.2
	c2.3-2.9,4.4-5.9,6.3-9c4-6.6,7-13.8,9-21.2c0.6-2.3,1.2-4.8,3.1-6.2c4.1-3.1,7-7.2,11.4-9.9c5.3-3.2,10.7-6.4,16-9.6
	c3.2-1.9,6.4-3.8,9.8-5.6c3.2-1.7,6.5-3.2,9.8-4.6c19.5-8.3,39.9-14.4,60.8-18.1c1.2-0.2,2.4-0.4,3.6-0.8c2.3-0.8,4.2-2.5,5.4-4.6"
	/>
<path fill="none" stroke="#585858" stroke-miterlimit="10" stroke-dasharray="4,1" d="M-4,138.8c1.5-0.4,3.1-0.3,4.6-0.4
	c10.5-0.3,20.9-4.5,28.6-11.7c1.5-1.4,3.2-2.5,4.2-4.3c0.9-1.7,2.8-2.9,4.8-3c1.9-0.1,4,0.2,5.7-0.9c0.7-0.5,1.3-1.1,1.9-1.6
	c2.2-1.6,5.6-1.6,7.1-3.8c1-1.5,1-3.7,2.5-4.7c0.8-0.5,1.8-0.6,2.7-0.9c1.6-0.6,2.8-2.1,3.8-3.6c1.5-2.1,2.9-4.2,4-6.5
	c3.1-6.8,2.4-15.3,7.2-21.1c1-1.3,2.3-2.3,3.3-3.6c3.9-4.5,5.1-10.9,8.5-15.9c1.5-2.3,3.5-4.3,4.8-6.8c0.8-1.7,1.3-3.5,1.8-5.4
	c0.5-2.1,1.1-4.2,1.6-6.4c1.1-4.6,3.6-9.2,4.3-13.9c0.4-2.5,0.5-5.1,0.6-7.6C98,8.5,97.5,0,96.9-8.4c-0.1-1.7-0.2-3.4-0.8-5
	c-0.5-1.6-1.5-3.1-1.4-4.8"/>
<path fill="none" stroke="#585858" stroke-miterlimit="10" stroke-dasharray="4,1" d="M21.8,115.6c1.6-0.9,2.5-2.8,2.8-4.6
	s0.3-3.7,0.6-5.6c0.4-2,1.2-4,2.4-5.7c1.1-1.6,3.7-4.1,4.8-2.6c1,1.4,1.7,3.4,3.5,3.1c0.8-0.1,1.5-0.6,2.3-0.9
	c1.7-0.6,3.5-0.3,5.3-0.3s3.8-0.4,4.7-2c0.3-0.6,0.5-1.3,1-1.7c0.6-0.6,1.5-0.7,2.3-0.7c1.3-0.1,2.6-0.2,3.9-0.2
	c0.9,0,1.7-0.1,2.6,0.2c1.2,0.4,2.2,1.3,2.8,2.4c1.2,1.8,1.7,4.1,1.5,6.3"/>
<text transform="matrix(1 0 0 1 104.9816 211.4265)"><tspan x="0" y="0" fill="#585858" font-family="'Verdana-Italic'" font-size="8">Fletcher</tspan><tspan x="13" y="9.6" fill="#585858" font-family="'Verdana-Italic'" font-size="8">Peak</tspan></text>
<text transform="matrix(1 0 0 1 140.6589 216.5624)" fill="#585858" font-family="'Verdana-Italic'" font-size="8">× 11410</text>
<text transform="matrix(1 0 0 1 209.735 333.4368)" fill="#585858" font-family="'Verdana-Italic'" font-size="8">11850 ×</text>
<text transform="matrix(1 0 0 1 175.198 160.5624)"><tspan x="0" y="0" fill="#7BBCEB" font-family="'Verdana-Italic'" font-size="8">Townsley</tspan><tspan x="0" y="9.6" fill="#7BBCEB" font-family="'Verdana-Italic'" font-size="8">Lake</tspan></text>
<text transform="matrix(1 0 0 1 164.4832 269.3124)"><tspan x="0" y="0" fill="#585858" font-family="'Verdana-Italic'" font-size="8">Hanging Basket</tspan><tspan x="44.2" y="9.6" fill="#585858" font-family="'Verdana-Italic'" font-size="8">Lake</tspan></text>
<text transform="matrix(1 0 0 1 65.448 169.5624)"><tspan x="0" y="0" fill="#585858" font-family="'Verdana-Italic'" font-size="8">Fletcher</tspan><tspan x="0" y="9.6" fill="#585858" font-family="'Verdana-Italic'" font-size="8">Lake</tspan></text>
<text transform="matrix(1 0 0 1 78.948 275.0624)"><tspan x="0" y="0" fill="#585858" font-family="'Verdana-Italic'" font-size="8">Vogelsang</tspan><tspan x="0" y="9.6" fill="#585858" font-family="'Verdana-Italic'" font-size="8">Lake</tspan></text>
<text transform="matrix(1 0 0 1 235.8708 25.3065)"><tspan x="0" y="0" fill="#585858" font-family="'Verdana-Italic'" font-size="8">Evelyn</tspan><tspan x="3.9" y="9.6" fill="#585858" font-family="'Verdana-Italic'" font-size="8">Lake</tspan></text>
<text transform="matrix(1 0 0 1 32.6355 83.3222)"><tspan x="0" y="0" fill="#585858" font-family="'Verdana-Italic'" font-size="8">Boothe</tspan><tspan x="0" y="9.6" fill="#585858" font-family="'Verdana-Italic'" font-size="8">Lake</tspan></text>
<text transform="matrix(1 0 0 1 38.7849 51.6215)"><tspan x="0" y="0" fill="#585858" font-family="'Verdana-Italic'" font-size="8">Tuolumne</tspan><tspan x="21.8" y="9.6" fill="#585858" font-family="'Verdana-Italic'" font-size="8">Pass</tspan></text>
<text transform="matrix(1 0 0 1 90.1863 57.2631)" fill="#585858" font-family="'Verdana-Italic'" font-size="8">9992</text>
<path fill="none" d="M65.9,208.5c2.2-4.5,5.2-8.6,8.4-12.6c7-8.7,14.8-17,24.6-22.4"/>
<text transform="matrix(0.5015 -0.8652 0.8652 0.5015 68.5662 208.7709)"><tspan x="0" y="0" fill="#7D7D7D" font-family="'Verdana-Italic'" font-size="7">1</tspan><tspan x="4.3" y="0" fill="#7D7D7D" font-family="'Verdana-Italic'" font-size="7" rotate="4.6">0</tspan><tspan x="8.5" y="0.4" fill="#7D7D7D" font-family="'Verdana-Italic'" font-size="7" rotate="7.6">4</tspan><tspan x="12.9" y="0.9" fill="#7D7D7D" font-family="'Verdana-Italic'" font-size="7" rotate="9.2">0</tspan><tspan x="17.2" y="1.6" fill="#7D7D7D" font-family="'Verdana-Italic'" font-size="7" rotate="10.8">0</tspan></text>
<path fill="none" d="M243.9,211.6c1,16.1,7.5,30,7,46"/>
<text transform="matrix(0.201 0.9796 -0.9796 0.201 242.907 223.1786)"><tspan x="0" y="0" fill="#7D7D7D" font-family="'Verdana-Italic'" font-size="7">1</tspan><tspan x="4.5" y="0" fill="#7D7D7D" font-family="'Verdana-Italic'" font-size="7" rotate="-1.1">0</tspan><tspan x="9" y="-0.1" fill="#7D7D7D" font-family="'Verdana-Italic'" font-size="7" rotate="-1.2">6</tspan><tspan x="13.4" y="-0.2" fill="#7D7D7D" font-family="'Verdana-Italic'" font-size="7" rotate="-0.4">0</tspan><tspan x="17.7" y="-0.2" fill="#7D7D7D" font-family="'Verdana-Italic'" font-size="7" rotate="1.2">0</tspan></text>
<path fill="none" d="M300.9,313c1.9,0.8,3.5,2.2,5.1,3.3c5.8,4,13,5.5,19.9,6.6c1.6,0.2,3.3,0.5,4.8,1.1"/>
<text transform="matrix(0.8704 0.4924 -0.4924 0.8704 304.8445 318.6649)"><tspan x="0" y="0" fill="#7D7D7D" font-family="'Verdana-Italic'" font-size="7">1</tspan><tspan x="4.8" y="0" fill="#7D7D7D" font-family="'Verdana-Italic'" font-size="7" rotate="-7.7">1</tspan><tspan x="9.5" y="-0.7" fill="#7D7D7D" font-family="'Verdana-Italic'" font-size="7" rotate="-13.6">0</tspan><tspan x="14" y="-1.8" fill="#7D7D7D" font-family="'Verdana-Italic'" font-size="7" rotate="-17.9">0</tspan><tspan x="18.3" y="-3.2" fill="#7D7D7D" font-family="'Verdana-Italic'" font-size="7" rotate="-20.8">0</tspan></text>
<path fill="none" d="M332.3,100.5c1.5,3.1-0.6,6.6-0.9,10.1c-0.3,3.2,1.2,6.3,1.6,9.5c0.6,4.1,0.1,9,3.4,11.4
	c3.3,2.4,8.4,0.6,11.7,2.9"/>
<text transform="matrix(-2.921563e-02 0.9996 -0.9996 -2.921563e-02 328.9226 108.7387)"><tspan x="0" y="0" fill="#7D7D7D" font-family="'Verdana-Italic'" font-size="7">1</tspan><tspan x="5.1" y="-0.2" fill="#7D7D7D" font-family="'Verdana-Italic'" font-size="7" rotate="-15.4">0</tspan><tspan x="9.2" y="-1.5" fill="#7D7D7D" font-family="'Verdana-Italic'" font-size="7" rotate="-11.3">8</tspan><tspan x="13.4" y="-2.2" fill="#7D7D7D" font-family="'Verdana-Italic'" font-size="7" rotate="-6.9">0</tspan><tspan x="18.5" y="-2.8" fill="#7D7D7D" font-family="'Verdana-Italic'" font-size="7" rotate="-22.1">0</tspan></text>
<path fill="none" d="M271,52.9c4.7-2,9.2-4.4,13.8-6.8c5.1-2.7,10.3-5.4,15.4-8.2"/>
<text transform="matrix(0.895 -0.4461 0.4461 0.895 276.8914 53.0482)"><tspan x="0" y="0" fill="#7D7D7D" font-family="'Verdana-Italic'" font-size="7">1</tspan><tspan x="4.5" y="0" fill="#7D7D7D" font-family="'Verdana-Italic'" font-size="7" rotate="-1.1">0</tspan><tspan x="9" y="-0.1" fill="#7D7D7D" font-family="'Verdana-Italic'" font-size="7" rotate="-1.4">4</tspan><tspan x="13.4" y="-0.2" fill="#7D7D7D" font-family="'Verdana-Italic'" font-size="7" rotate="-1.4">0</tspan><tspan x="17.9" y="-0.3" fill="#7D7D7D" font-family="'Verdana-Italic'" font-size="7" rotate="-1.4">0</tspan></text>
<g>
	<g>
		<polyline fill="none" stroke="#7D7D7D" stroke-miterlimit="10" points="85.2,341.6 85.2,348.7 275.4,348.7 275.4,341.7 		"/>
		<line fill="none" stroke="#7D7D7D" stroke-miterlimit="10" x1="180.5" y1="341.4" x2="180.5" y2="348.7"/>
		<line fill="none" stroke="#7D7D7D" stroke-miterlimit="10" x1="161.2" y1="349.2" x2="161.2" y2="343.7"/>
		<line fill="none" stroke="#7D7D7D" stroke-miterlimit="10" x1="142.4" y1="349.2" x2="142.4" y2="343.7"/>
		<line fill="none" stroke="#7D7D7D" stroke-miterlimit="10" x1="123.3" y1="349.2" x2="123.3" y2="343.5"/>
		<line fill="none" stroke="#7D7D7D" stroke-miterlimit="10" x1="104.6" y1="349.2" x2="104.6" y2="343.7"/>
	</g>
	<text transform="matrix(1 0 0 1 83.7834 339.1467)" fill="#7D7D7D" font-family="'Verdana'" font-size="8">0</text>
	<text transform="matrix(1 0 0 1 174.2945 339.1467)" fill="#7D7D7D" font-family="'Verdana'" font-size="8">0.5</text>
	<text transform="matrix(1 0 0 1 258.3414 339.1467)" fill="#7D7D7D" font-family="'Verdana'" font-size="8">1 mi</text>
</g>
<path fill="#EAEAEA" stroke="#D6D6D6" stroke-miterlimit="10" d="M94,157c2.5-0.6,6.6-1.1,7-4.4c0.2-1.2-0.5-2.3-0.9-3.5
	c-1-2.6-1.1-5.8-3.3-7.6c-0.4-0.3-0.9-0.6-1.4-0.7c-0.5-0.1-0.9,0-1.4,0c-3.7,0.5-6.8,1.3-10.2,2.8c-0.6,0.3-1.3,0.6-1.7,1.1
	c-0.3,0.3-0.5,0.8-0.7,1.2c-1.9,3.5-6,5.2-9.8,6.6c-1.5,0.6-2.9,1.1-4.4,1.7c-1.3,0.5-2.8,1.1-3.5,2.3c-0.3,0.5-0.4,1.1-0.2,1.6
	c0.4,0.7,1.3,0.8,2.1,0.7c0.8-0.2,1.5-0.5,2.3-0.5c1.8,0.1,3,2,4.7,2.1c2.1,0.2,3.7-2.2,5.8-2.1c0.5,0,1,0.2,1.5,0.3
	c2.5,0.9,4,0.7,6.5-0.1C88.5,158.1,91.5,157.7,94,157z"/>
<path fill="#7BBCEB" stroke="#4E9BD7" stroke-miterlimit="10" d="M184.2,174.8c-1.6-0.3-2.8-1.6-4.4-2c-1.7-0.4-3.7,0.5-5.3-0.4
	c-1.4-0.8-1.7-2.7-1.9-4.3c-0.1-1.2-0.3-2.4-0.4-3.6c0-0.3-0.1-0.6-0.2-0.8c-0.2-0.2-0.4-0.3-0.7-0.4c-2.5-0.7-4.1,1.3-6.2-0.2
	c-0.5-0.4-1.4-1-1.7-1.3c-0.7-0.9-1.4-1.7-2.5-1.8c-0.8,0-2.5,0.4-3.3,0.6c-1.4,0.3-2.8-0.3-4.1-0.7s-3-0.5-4,0.4
	c-1.3,1.1-1.1,3.2-0.2,4.7s2.1,2.7,2.8,4.2c0.7,1.5,0.8,3.3,1.6,4.8c1,2,3.1,3.3,5.2,4.2s4.3,1.4,6.3,2.6c0.6,0.3,1.1,0.7,1.7,1
	c0.8,0.3,1.6,0.3,2.4,0.4c2,0.1,4.3,0.4,5.5,2c0.5,0.6,0.8,1.4,1.2,2c1.9,3.3,6,5.1,7.1,8.7c0.4,1.2,0.3,2.5,0.7,3.7
	c0.7,2.7,3.1,4.6,5.4,6.3c0.6,0.5,1.3,1,2.1,1.1c2.2,0.4,3.8-2.1,6-2.8c0.8-0.3,1.7-0.4,2.2-1.1c0.3-0.4,0.4-0.9,0.5-1.4
	c0.6-2.3,3.1-4.1,3.8-6.3c0.8-2.2,0.4-4.7-0.2-6.9c-0.3-1-0.6-2.1-1.4-2.9c-1-1.1-3.2-1.5-4.2-2.6c-0.8-0.9-1.2-2.1-1.9-3.1
	c-2.7-4.3-6.2-3.3-8.4-0.8c-0.9,0.9-1.1-2.4-2.3-3C184.9,174.9,184.5,174.9,184.2,174.8z"/>
</svg>
