<?xml version="1.0" encoding="utf-8"?>
<!-- Generator: Adobe Illustrator 17.1.0, SVG Export Plug-In . SVG Version: 6.00 Build 0)  -->
<!DOCTYPE svg PUBLIC "-//W3C//DTD SVG 1.1//EN" "http://www.w3.org/Graphics/SVG/1.1/DTD/svg11.dtd">
<svg version="1.1" id="Layer_1" xmlns="http://www.w3.org/2000/svg" xmlns:xlink="http://www.w3.org/1999/xlink" x="0px" y="0px"
	 viewBox="0 0 360 360" enable-background="new 0 0 360 360" xml:space="preserve">
<path fill="none" stroke="#E1E1E1" stroke-miterlimit="10" d="M330.8,382.8c-4.7-6-5.3-14.1-7.6-21.4c-0.4-1.3-1.1-2.9-2.5-3.1
	c-0.8-0.1-1.6,0.2-2.3,0.1c-1.8-0.3-2.5-2.6-1.9-4.4c0.5-1.7,1.8-3.1,2.5-4.8c1.1-2.8,0.3-6.1-1.4-8.6s-4.2-4.3-6.7-5.9
	c-3.7-2.4-8.2-4.5-12.2-2.9c-2.7,1.1-4.5,3.7-5.3,6.5c-0.8,2.8-0.8,5.7-0.8,8.6c0,2.9,0,5.8,0.7,8.6c0.6,2.3,1.5,4.9,0.2,6.8
	c-1.1,1.6-3.5,2-5.4,1.4s-3.5-1.8-5.2-2.8c-6.8-4-15.6-4.4-22.7-0.9c-3.2,1.6-6.4,4-10,3.8c-2.6-0.1-4.9-1.5-7.3-2.5
	c-2.4-0.9-5.4-1.3-7.4,0.5c-1,0.9-1.6,2.4-2.9,3c-1,0.5-2.3,0.3-3.5,0.2c-2.4-0.4-4.9-0.8-7.3-1.2c-2.2-0.4-4.6-0.8-6.5-2
	c-1.5-1-2.7-2.5-4.3-3.4c-2.6-1.4-6-1.1-8.3-3c-0.8-0.7-1.4-1.6-2.2-2.2c-1.1-1-2.5-1.4-3.9-1.7c-4-0.9-8.2-0.8-12.1,0.4
	c-6.7,2-12.3,6.8-17.5,11.4c-2,1.7-4,3.5-5.4,5.7c-1.5,2.4-2.3,5.2-2.9,8c-0.9,4-1.7,7.9-2.4,12"/>
<path fill="none" stroke="#E1E1E1" stroke-miterlimit="10" d="M145.6,384.7c-0.6-2.1-0.1-4.3,0.7-6.3c3.5-9.4,11-16.6,18.6-23.2
	c7.8-6.7,14.9-23.4,24.3-19.2c2,0.9,2.6,3.6,4.9,3.7c2.2,0,4.3-0.9,6.4-1.7c5.4-1.9,11.3-2.5,17-1.6c3.9,0.6,7.9-0.9,11.7,0.1
	c2.1,0.5,0.8,4.1,0.9,6.3s1.1,4.8,3.3,4.8c3.7,0.1,5.3-9.3,8-6.8c1,0.9-0.2,3,0.7,3.9c1.2,1.3,3.5-0.8,4.6-2.2
	c1.1-1.4,1.8-3.1,3.2-4.3c4.2-3.6,10.5-0.1,16-0.1c2.1,0,4.2-0.5,6.3-1.1c1.2-0.3,2.4-0.6,3.4-1.3c1.8-1.3,2.5-3.6,3.2-5.7
	c0.8-2.6,1.5-5.1,2.3-7.7c0.4-1.2,0.7-2.5,1.5-3.5c2-2.6,5.8-2.8,9.1-2.8c2.7,0,5.4,0.1,7.8,1.3s1.6,4.7,3.6,6.4
	c2.9,2.4,6.9-6,10.4-4.5c5.9,2.5,9.8,7.7,16.2,8.1c6.4,0.4,18.4-0.5,17.6,5.8c-0.5,3.9-6.6,5.8-5.7,9.7c0.3,1.2,0.9,2.2,1.4,3.3
	c1.2,2.6,1.4,5.6,1.5,8.4c0.7,10.1,1.3,20.3,2,30.4"/>
<path fill="none" stroke="#E1E1E1" stroke-miterlimit="10" d="M354.2,387c0.6-6.3,1.8-12.6,3.6-18.7c0.7-2.3,1.4-4.5,1.8-6.9
	c0.4-2.4,0.4-4.8,0.7-7.2c1.3-9.2,7.6-18.2,4.6-27c-0.4-1.2-1.2-2.5-2.4-3c-0.6-0.2-1.3-0.3-1.9-0.4c-6.9-1.1-9.7-10.4-16.3-12.6
	c-2-0.7-4.1-0.6-6.1-1c-2.7-0.4-5.2-1.5-7.6-2.6c-5.2-2.2-10.5-4.5-15.7-6.7c-0.8-0.4-1.7-0.7-2.2-1.5c-1.3-1.9,0.7-4.6,2.9-5
	s4.5,0.4,6.8,0.6c4.3,0.4,8.5-1.3,12.5-2.9c10.4-4,21.1-6.7,32-9c0.8-0.2,1.6-0.3,2.3-0.7c0.8-0.5,1.4-1.3,2-2.1c3-4.2,6-8.4,9-12.5
	"/>
<path fill="none" stroke="#E1E1E1" stroke-miterlimit="10" d="M307.8,295.4c-0.2,1.2-1.8,1.3-2.9,1.2c-1.2-0.2-2.6-0.4-3.4-1.3
	c-0.8-0.8-1-2.2-0.5-3.2c0.5-1,1.6-1.8,2.7-1.9c0.6,0,1.2,0.1,1.7,0.5c0.3,0.2,0.4,0.6,0.6,0.9c0.5,0.8,1,1.7,1.4,2.5
	C307.6,294.4,307.9,294.9,307.8,295.4z"/>
<path fill="none" stroke="#E1E1E1" stroke-miterlimit="10" d="M359.1,305.8c0.4,0.2,0.9,0.2,1.3,0.4c0.8,0.3,1.5,0.8,2.1,1.3
	c1,0.8,1.9,1.5,2.9,2.3c1.2,0.9,2.9,1.9,4.1,0.9c0.9-0.7,0.8-2,0.8-3.1c-0.1-3,0.4-6,1.3-8.8c0.3-0.8,0.6-1.7,0.3-2.5
	c-0.3-1-1.4-1.7-2.4-1.8c-1.1-0.1-2.1,0.2-3.2,0.5c-3.4,1-6.7,1.9-10.1,2.9c-1.2,0.3-2.6,0.9-2.7,2.1c-0.1,1,0.7,1.9,1.4,2.6
	c0.6,0.6,1.2,1.1,1.8,1.7C357.4,304.8,358.2,305.5,359.1,305.8z"/>
<path fill="none" stroke="#E1E1E1" stroke-miterlimit="10" d="M-16.1,385.2c1-3.5,5.3-5.5,8.6-4.2c0.7,0.3,1.4,0.7,2.1,0.7
	c0.5,0,1.1-0.3,1.5-0.5c9.5-5.1,18.8-10.6,27.9-16.4c1.4-0.9,2.8-1.9,3.6-3.3c0.8-1.5,0.7-3.2,1-4.8c0.5-2.6,2.2-4.9,4.5-6.3
	c0.5-0.3,1.1-0.6,1.6-0.5c0.8,0.1,1.3,0.9,1.8,1.5c3.8,4.8,11.3,4.9,16.2,8.7c1.8,1.4,3.2,3.3,5,4.8c1.8,1.5,4.2,2.5,6.4,1.8
	c1.8-0.6,3.3-2.4,5.2-2.3c0.9,0,1.8,0.4,2.6,0.9c6.7,3.4,13.7,7.2,17.4,13.8c1.5,2.7,3,6.3,6.1,6.7"/>
<path fill="none" stroke="#E1E1E1" stroke-miterlimit="10" d="M136.2,384.4c-1.7-7.4-0.7-15.5,2.7-22.3
	c7.1-14.1,36.1-31.9,32.8-33.9c-5.8-3.5-28.1,1.2-28.6-4c-0.9-11.1,0.7-12.2-13.6-13.5c-11.8-1.1-4.8-25.7-4-37.5
	c0.3-4.6,0.2-10.2-3.8-12.6c-2.7-1.6-6.4-1-9,0.9c-2.6,1.9-4.3,4.7-5.7,7.5c-5.1,10-7.9,21.2-13.9,30.7S75.1,320,65.4,314.4
	c-6.2-3.6-9.7-10.5-14.5-15.7c-0.7-0.8-1.4-1.6-1.6-2.6c-0.4-2.1,1.5-3.9,2.7-5.6c4-5.5,2-13.1,0-19.5c-1.6-4.9-3.3-9.9-7-13.4
	c-1.6-1.4-3.5-2.6-4.5-4.4c-1.1-2-1.1-4.4-1.5-6.7c-0.4-2.3-1.8-5.6-4-5c-3.1,0.8-7.4,5.2-9.2,2.5c-2.6-4-3.3-8.7-7.9-10.1
	c-4.6-1.4-9.9-1.7-13.1-5.2c-2.7-3-3.2-7.6-6-10.6c-3.7-4-12.8,1.8-15.3-3c-2.5-4.7,3.8-10.1,2.4-15.2c-1.4-5.2-4.3-9.8-6.7-14.6"/>
<path fill="none" stroke="#E1E1E1" stroke-miterlimit="10" d="M-22.6,232.3c2.9-1.1,5.9-2.2,9-2s6.3,2.1,7,5.1
	c0.3,1.1,0.2,2.3,0.5,3.3c0.6,1.6,2,2.7,3.4,3.6c3.6,2.5,7.3,5,10.9,7.6c1.8,1.3,3.7,2.6,5.2,4.2c2.1,2.4,3.3,5.3,5.3,7.8
	c2.3,2.9,5.4,5,8,7.6c5.2,5.3,8.2,12.7,8,20.1c-0.2,7.5-3.4,15.1-1.3,22.3c2,6.9,8.4,11.4,14.5,15.1c7.8,4.7,17.1,9,25.7,6
	c4.8-1.6,9.8-5.4,14.2-3c4.2,2.3,4.1,8.3,6.5,12.3c3.5,5.9,11.7,6.9,18.6,6.1c6.8-0.9,16.1-6,20.5-0.7c3.3,4-2.6,9.8-3.5,14.9
	c-0.4,2.3-0.4,4.6-0.7,6.9c-1.1,6.4-5.5,11.7-9.8,16.6"/>
<path fill="none" stroke="#E1E1E1" stroke-miterlimit="10" d="M-18.4,363.9c2,0.4,4,0.8,6,1.2c1.2,0.2,2.5,0.5,3.8,0.2
	c1.1-0.3,2-0.9,2.9-1.6c4.7-3.4,9.6-7,12.6-12c0.9-1.5,1.6-3.1,2.5-4.5c1.2-1.9,2.8-3.5,4.4-5.1c4.8-4.8,10.1-9.8,16.9-10.4
	c6.4-0.6,12.5,2.9,17.1,7.3c1.3,1.3,2.6,2.6,4.2,3.5c1.3,0.8,2.8,1.2,4.3,1.5c4.1,1,8.3,1.6,12.5,2c2,0.2,4,0.3,5.8,1.2
	c1.3,0.7,2.4,1.8,3.5,3c10.3,11.1,21,21.8,32,32.2"/>
<path fill="none" stroke="#E1E1E1" stroke-miterlimit="10" d="M76.2,342c0.7,1.5,2.6,1.6,3.9,2.6c1.3,0.9,3.2,1.6,4.5,0.7
	c0.8-0.5,0.7-2,0.3-2.8C83.3,339.7,74.9,339.1,76.2,342z"/>
<path fill="none" stroke="#E1E1E1" stroke-miterlimit="10" d="M-18.8,353c2.7-0.8,5.7-0.1,7.9,1.8c0.4,0.4,0.8,0.8,1.3,0.9
	c1.9,0.6,3.1-1.9,3.5-3.8c1.5-7.3,3.8-14.5,6.8-21.3c0.8-1.8,1.7-3.7,3-5.2c2.9-3.1,7.4-4.1,10.2-7.3c4-4.5,3-11.3,1.7-17.2
	c-0.5-2.5-1.1-5.1-1.6-7.6c-0.2-1.1-0.5-2.3-1-3.3c-0.7-1.4-1.9-2.5-3.1-3.5c-3.8-3.4-7.6-6.7-11.5-10.1c-0.8-0.7-1.6-1.4-2.2-2.4
	c-0.6-1-0.9-2.3-1.2-3.4c-1.2-4.1-3.6-7.8-6.8-10.5c-0.8-0.7-1.7-1.4-2.7-1.7c-2.9-0.9-5.8,1-8.2,2.8"/>
<path fill="none" stroke="#E1E1E1" stroke-miterlimit="10" d="M-21.7,279.1c0.4-0.9,1.8-1,2.6-0.4c0.8,0.6,1.3,1.5,2,2.3
	c1.5,1.7,3.8,2.3,6,3c5.8,1.8,12.5,3.2,16.3,7.8c2.2,2.7,2.3,6.5,2.9,10c0.3,2.1,0.5,4.4-0.5,6.2c-1.8,3.4-6.4,3.9-9.4,6.3
	c-3.5,2.7-4.6,7.5-5.8,11.7c-1.7,5.9-4,11.5-6.9,16.9c-0.6,1.1-1.3,2.2-2.3,2.8s-2.7,0.5-3.3-0.6"/>
<path fill="none" stroke="#E1E1E1" stroke-miterlimit="10" d="M-18.6,147.1c1.7,14.7,7.4,28.9,16.3,40.8c4.2,5.6,1.2,12.3,4,18.6
	c2.6,5.7,4.6,9.9,9.4,13.9c4.6,3.8,12.2,5.7,17.6,2.9c3.3-1.7,5.2-5.3,9-5.1c8.2,0.6,9.5,10.7,15.4,16.5c1.7,1.6,3,3.2,5.2,4
	c5.5,1.8,8.9-7.5,13.3-11.3c2.7-2.3,5.5-4.6,9-5.1s7.5,1.7,7.7,5.2c0.1,2.2-1.4,4.2-2.7,5.9c-4.5,5.6-9,11.3-13.4,16.9
	c-2.6,3.3-5.3,7-5,11.2c0.5,6.1,6.7,12.4,12.8,11.6c19.6-2.4,21.5-35.7,39.9-42.8c1.6-0.6,3.3-1.1,4.9-0.7c1.6,0.3,2.9,1.4,4.1,2.4
	c13.4,11.8,10,32.1,17.9,48.1c6.8,13.7,25.7,16.7,36.8,27.2c5.1,4.8,10.1,10,16.8,12.2c7.6,2.5,15.9,0.6,23.7-1.4
	c19.6-4.9,39.8-10.2,55.6-22.6c8.2-6.4,16.5-15.1,26.8-13.8c4.1,0.5,8,2.7,12.1,2.4c3.3-0.2,6.2-2,9-3.7
	c20.4-12.8,39.6-27.5,57.2-43.9"/>
<path fill="none" stroke="#E1E1E1" stroke-miterlimit="10" d="M-20.3,113.6c3.6,1.8,4,6.7,4.1,10.7c0.4,11.4,2.2,23.1,7.7,33
	c4.4,8,5.2,18.4,12.4,23.9c7,5.3,17.6-4.2,25.3,0.1c7.4,4.2-15,9.2-16.2,17.6c-0.7,5.1,6.9,12,10.6,8.4c2.7-2.7,1-7.8,3.3-10.8
	s7.3-4.2,10-1.5c2,2-0.1,6,1.8,8.2c6.1,6.9,15.4,10.3,24.6,11.3c7.2,0.7,12-7.9,18-11.9c2.2-1.5,4.7-3,7.4-2.9
	c5.1,0.2,8.2,5.8,12.7,8.2c7.9,4.3,17.1-2,24.6-6.9c2.8-1.8,6.2-3.6,9.4-2.5c3.1,1,4.8,4.4,6.1,7.4c7.3,16.3,14.7,32.6,22,48.9
	c2.1,4.7,4.2,9.4,7.5,13.3c2.8,3.4,6.3,6.1,9.3,9.2c8.2,8.7,12.6,21.3,23.1,27c7.9,4.3,17.5,3.7,26.2,1.7
	c12.7-2.9,24.7-8.4,35.2-16.2c11.9-8.8,23.1-21,37.9-22c6.9-0.5,13.9,1.7,20.8,0.7c11.6-1.7,19.9-11.7,27-21c2.8-3.7,5.6-7.3,8.4-11
	c1.8-2.3,3.7-5.3,2.6-8c-0.6-1.5-1.9-2.5-2.9-3.7c-3.2-3.9-2.9-9.8-1-14.5c2-4.7,5.4-8.6,8.1-12.9c6.4-10,9-21.8,10.5-33.6
	c3.9-30.8,0.3-62.5-10.4-91.6c-2.3-6.1-4.3-12.9-7.5-18.6c-1.3-2.3-2.8-4.6-4.5-6.5c-2.2-2.5-5-4.6-6.6-7.5
	c-1.6-2.8-2.1-6.3-4.6-8.3c-0.6-0.5-1.3-0.9-1.5-1.7c-0.1-0.9,0.7-1.6,1.5-2.1c5-3,10.7-4.9,16.6-5.5c1.7-0.2,3.4-0.2,5-0.6
	c2-0.4,3.8-1.3,5.6-2.2c2.9-1.4,5.7-2.8,8.6-4.2"/>
<path fill="none" stroke="#E1E1E1" stroke-miterlimit="10" d="M377,4.2c-6.8,4.5-14.5,7.5-22.6,8.9c-4.6,0.8-9.4,1-13.8,2.5
	c-4.8,1.6-8.9,4.5-13,7.4c-9.5,6.8-19.2,13.6-26.6,22.7s-12.3,20.8-10.6,32.4c0.5,3.7,1.8,7.4,4.6,9.9s7.4,3.1,10.1,0.6
	c2.1-1.9,3-5.2,5.6-6.1c1.7-0.6,3.5,0,5.1,0.5c4.3,1.4,9,3.2,10.7,7.4c1.8,4.1-0.4,9.1-3.8,12s-7.9,4.2-12.2,5.4
	c-2.2,0.6-4.6,1.3-6.8,0.8c-5.1-1.1-7.6-7.5-12.7-8.8c-4.4-1.1-8.9,2.2-10.7,6.3c-1.8,4.1-1.6,8.8-1.3,13.3
	c0.8,13.8,1.7,27.6,2.5,41.5c0.3,5.1,0.7,10.4,2.8,15.1c2.1,4.7,8.1,5.2,11.6,9c3.6,3.8,6.2,7.6,8,12.5c2,5.5,6.1,5.7,8.8,10.9
	c4.1,7.8-4.2,17.1,1.2,24c2.4,3,5.4,6.3,4.8,10c-0.9,5.1-7.4,6.5-12.5,7.7c-11.8,2.7-22.1,9.9-31.9,17c-6,4.4-12.1,8.7-18.1,13.1
	c-7.4,5.3-14.9,10.7-23.6,13.7c-8.6,2.9-20.5,5.2-26.4-1.8c-4.2-5-8.4-10-13.8-13.6c-13.8-9.3-24.3-43-31.9-55.7
	c-14.2-23.9-15.9-42.6-26.6-46.7c-7.6-2.9-12.5,10.3-19.5,14.3c-3.4,1.9-7.7,3.7-11,1.6c-4-2.5-2.9-11.5-7.6-11.7
	c-1.9-0.1-4,1.5-5.7,2.5c-7.7,4.5-14.9,9.9-21.2,16.2c-0.7,0.7-1.5,1.5-2.5,1.8c-2.6,0.8-5.3-2-7.8-1c-0.8,0.3-1.5,1.1-2.4,1.1
	c-0.9,0.1-1.6-0.5-2.3-1c-2.4-1.9-4.7-3.8-7-5.8c-3.4-2.9-7.1-6.8-6-11.2c0.3-1.1,0.8-2.1,1.4-3.1c0.8-1.4,1.5-2.7,2.3-4.1
	c0.9-1.6,1.8-3.7,0.9-5.3c-0.9-1.5-2.8-1.8-4.6-2c-5.3-0.5-10.7-1-15.9,0.3c-2.1,0.6-4.2,1.4-6.3,1.9c-5.6,1.2-13,2.2-17-2
	c-1.4-1.5,1.2-4,1-6c-0.2-3-4.1-4.4-5.4-7.1c-0.6-1.3-0.6-2.8-0.5-4.3c0.2-5.1-3.1-11.8,0.6-15.2c7.9-7.3,26-2.9,27.7-13.4
	c0.2-1.5-2.4-1.9-3.9-1.4c-1.5,0.5-2.7,1.5-4,2.2c-3.5,1.7-7.9,0.6-11-1.7s-5.4-5.7-7.5-8.9c-3.4-5.2-6.8-10.5-10.3-15.7
	c-0.9-1.4-1.9-3-2-4.7c0-1.5,0.6-2.9,0.3-4.3c-0.2-1-0.8-1.8-1.3-2.6c-1.9-2.9-3.9-5.7-5.8-8.6"/>
<path fill="none" stroke="#E1E1E1" stroke-miterlimit="10" d="M112.2,150.6c-3.3,1.1-6.5,2.3-9.8,3.4c-0.6,0.2-1.2,0.4-1.7,0.8
	c-0.9,0.7-1.4,1.8-1.7,2.9c-0.9,3.3-1.4,8.2,1.5,10c2.5,1.5,5.5-1.4,7.9-3c3.3-2.2,6.6-4.5,9.6-7.1c1.5-1.3,3-3.2,2.5-5.2
	c-0.4-1.6-2.1-2.5-3.7-2.6C115.3,149.5,113.7,150.1,112.2,150.6z"/>
<path fill="none" stroke="#E1E1E1" stroke-miterlimit="10" d="M21.6-17.6C22.1-13.4,26.1-8,23-5.1c-1.9,1.8-5.2-1-7.7-0.2
	S10.7-2.3,11,0.3c0.2,1.2,0.8,2.4,0.4,3.6C11.1,4.9,9.9,5.4,8.9,6C7.4,6.8,6,7.8,5.1,9.3s-1.6,4-0.1,4.8c3.5,2.1,7.7-2.5,10.8-5.1
	C20.9,4.8,26,0.6,31.1-3.6c1.1-0.9,2.2-1.8,3-3c0.9-1.3,1.5-2.9,2.6-4.1c1.9-1.9,5.2-2.4,6.2-4.9"/>
<path fill="none" stroke="#E1E1E1" stroke-miterlimit="10" d="M-2.2,15.6c0.7-1.2,3.3-2,4-0.7C3,17.1,4.3,19.5,3.9,22
	c-0.2,1.6-1.8,2.6-2.3,4.1c-0.4,1.3-0.2,3.1-1.4,3.6c-1.2,0.5-0.6-1.4-0.9-2.7c-0.2-0.9-1-3.4-1-4.3C-1.6,19.6-3.7,18.3-2.2,15.6z"
	/>
<path fill="none" stroke="#E1E1E1" stroke-miterlimit="10" d="M-20.5,11.9c3-1.5,6.6,1.5,7.2,4.7s-4.7,7-2.4,9.5
	c1.3,1.5,3.9-3.3,5.5-2.1c1.8,1.4,2.6-0.8,4.4,0.5c4,2.9-4.9,16.8-3.1,22c1.2,3.3-0.1,7,0.1,10.5c0.3,4.8,0.6,9.5,1,14.3
	c0.7,10.9,2.7,23.8,12.4,28.8c9.8,5,21.5-1,30.1-7.8c0.8-0.6,1.6-1.3,2.2-2.1c1.2-1.8,1.3-4,1.7-6.1c2.1-10,14.5-16.4,23.9-12.2
	c9.3,4.2,12.8,17.7,6.7,25.9c-3.1,4.1-3.1,10.8-7.8,12.8c-3.3,1.4-7.7-6.1-9.7-3.1c-1.5,2.3,1.7,5.5,1.3,8.3
	c-1,6.3-13.3,12.4-8.9,17.1c1.3,1.3,3.3-2.8,5-2.2c1.5,0.5,2.6,2.7,2.3,4.3c-1,6-10.9,5-16.5,7.5c-5.6,2.4-13.5,9.9-8.9,13.9
	c8.6,7.6,19.6-10.4,31.1-10.5c1.9,0,1.9,3.8,3.7,4.2c3,0.6,5.7-5.5,8.3-4c3.1,1.9-6.5,6.1-4.8,9.3c1.6,3,4.2,4.2,3,7.4
	c-2.4,6.4-9.5,12.8-7.2,19.2c0.9,2.4,4.2,3.9,6.8,3.8c15.7-1.1,14.8-27,21.1-41.3c0.7-1.7,1.7-3.5,3.3-4.4c2-1,4.7-0.9,6.6,0.2
	c13.4,7.5,29.5-2.9,37.9-1.4c3.5,0.6,1.5,11.3,3.2,14c5.6,9,4.1,18,8.3,28.7c10.6,26.8,26.9,54.8,44.7,76.6
	c6.2,7.5,12.8,14.7,20.5,20.6c2.2,1.7,4.6,3.3,7.4,3.7c3.7,0.6,7.3-1.1,10.7-2.7c10.6-5.1,22.4-11.8,24.5-23.3
	c1.6-9.3-3.8-18.1-8.3-26.4c-11.9-21.8-18.8-46.5-18.3-71.3s8.8-49.7,24.6-68.8c6-7.3,13.2-14,17.5-22.5c8.2-16.4,5-38.4,18.2-51.1
	c6.7-6.5,16.4-9,24.4-13.8c8-4.8,15-14.5,11.3-23.1"/>
<path fill="none" stroke="#E1E1E1" stroke-miterlimit="10" d="M78.8-15.5C67.9-6.9,57,1.6,46.1,10.1c-5.3,4.1-10.6,8.3-15.1,13.3
	C21.4,34.4,8,50.1,14.4,63.2c7.4,15.3,33.9-6.5,49.9-0.9c13.5,4.8,18,21.3,20.5,35.4s6.8,30.6,20.3,35.6c7.1,2.6,15.1,1.1,21.7-2.5
	c6.6-3.6,10-18.6,16.6-15.1c6.4,3.3,4.6,12.9,8.4,19.1c7.8,12.8,3.3,29.5,7.4,43.9c1.7,6.1,4.9,11.6,8.1,17.1
	c7.6,13.2,13.2,27.8,22.9,39.6c6.6,8,14.9,14.5,21.1,22.8c2.1,2.8,5.8,6,8.6,3.8c0.6-0.5,1-1.2,1.4-1.9c5-10.3,0.2-22.5-4.4-33
	c-8.3-18.9-15.8-38-22.6-57.5c-1.5-4.2-2.9-8.8-1.8-13.1c1.7-6.1,7.9-9.6,12.4-14.1c10.7-10.8,11.4-27.6,15.3-42.3
	c2.3-8.7,6-17.1,9.9-25.2c17.5-35.8,41.2-68.6,69.7-96.4"/>
<path fill="none" stroke="#E1E1E1" stroke-miterlimit="10" d="M122.8-22c-5.6,11.8-11.2,23.7-16.7,35.5c-8.5,18-17.1,37-15.6,56.8
	c0.1,1.3,0.2,2.6,0.6,3.9c0.3,1,0.7,1.9,1.1,2.8c0.4,1,0.8,2.1,1.2,3.1c2.2,6,4.3,11.9,6.5,17.9c1.9,5.4,1.1,11.6,3.9,16.6
	c1.5,2.7,5.6,3.3,8.7,3.1c6.8-0.4,11.8-9.4,18.4-7.8c1.1,0.3,2.1,0.8,3.2,0.8c1.9,0,3.4-1.5,4.8-2.8c3.2-3,6.8-5.6,10.6-7.7
	c0.8-0.4,1.6-0.8,2.5-0.6c1.1,0.3,1.7,1.4,2.2,2.3c4.9,9.3,10.6,27.5,20.4,23.6c1.5-0.6,2-4.5,3.2-3.4c0.8,0.8-0.4,2.8,0.6,3.3
	c2.5,1.3,5.6,0,8.5,0c0.6,0,1.3,0,1.8-0.3c1-0.4,1.5-1.5,1.9-2.5c2.8-6.6,4.7-13.6,5.5-20.8c1.2-9.4,0.7-19.1,4.2-27.9
	c1.3-3.1,3-6,4.9-8.8c9.6-14,23.3-24.6,34.7-37.2c6.8-7.5,12.7-15.7,18.7-24c5.7-7.9,11.4-15.8,17.2-23.8"/>
<path fill="none" stroke="#E1E1E1" stroke-miterlimit="10" d="M157.9-18.1c-2.5,2.6-3.7,6-4.9,9.4c-3.6,10-7.1,20-10.7,30
	c-0.5,1.5-1.1,3.1-1.6,4.6c-0.7,2-1.4,4-2.2,6.1c-2.9,8.2-14.2,17.9-8.6,24.5c1.1,1.4,3.3,1.2,4.1,2.8s1.1,3.4,2.1,4.9
	s3.1,2.5,4.6,1.5c0.5-0.3,0.8-0.7,1.1-1.2c6-7.9,11.2-16.5,16-25.2c3.9-6.9,7.7-14.1,13.3-19.7c3-3,7.7-8.1,11.2-5.6
	c1.3,0.9,0.2,4,1.7,4.5c2.7,0.8,4.9-2.6,7.6-3.4c5-1.5,10.1-2.6,15.2-3.6c1-0.2,2-0.4,3-0.6c2.2-0.5,4.4-0.9,6.6-1
	c3.8-0.2,7.9,0.5,11.2-1.3c2.8-1.5,4.4-4.4,6.1-7.1c2.9-4.7,6.3-9.1,10.1-13c2.7-2.8,5.8-5.8,6.4-9.7"/>
<path fill="none" stroke="#4E9BD7" stroke-miterlimit="10" d="M374.6,229c-2.8-2.5-7.1-1.6-10.7-0.6c-3.3,1-6.7,2-9.5,4
	c-0.7,0.5-1.3,1-2.1,1.2c-2.4,0.4-4.3-1.6-6.7-2.1c-2.7-0.6-4.4-3.7-5.2-6.4c-0.3-1.1-0.4-2.4-0.7-3.5c-1.1-4.2-5.3-6.8-9.4-8.3
	c-7-2.6-14.7-3.3-22-2c-10.1,1.8-19.4,7.1-29.6,7.4c-3.1,0.1-6.3-0.3-9.4,0.1c-8.3,1.2-14.4,8.3-21.8,12.2c-3.3,1.7-6.8,2.8-10,4.5
	c-3.9,2.1-7.2,5-10.9,7.3c-3.7,2.3-8.3,5.1-12.4,3.4c-1.6-0.6-1.5-3-1.5-4.7c-0.1-3.8-1.8-3-3.6-1.7c-1.4,1,0.6-3.6,0.1-5.1
	c-0.4-1.2-3.7-1.1-3.6-2.5c0.1-4.3,0.2-8.9-4.5-9c-1.6-0.1-1.6-5.2-3-6s-3.9,1.1-4.5-0.3c-1.9-4.6-2.6-7.4-6.9-10"/>
<path fill="none" stroke="#4E9BD7" stroke-miterlimit="10" d="M197.3-13.7c-3.4,3.9-6,8.5-7.7,13.3c-0.8,2.3-1.4,4.7-2,7.1
	c-2.7,10.7-5.4,21.5-8.1,32.2c-1.3,5.2-2.6,10.5-2.2,15.9c0.6,6.2,3.5,12.6,1.2,18.4c-1,2.4-2.8,4.6-3,7.2c-0.1,1.6,0.4,3.2,0.9,4.8
	c2.9,9.2,4.5,18.8,4.9,28.5c0.1,2.5,0.1,5.1-0.5,7.6c-0.7,2.7-2,5.2-2.7,7.8c-0.9,3.1-2,6.6-0.9,9.7c2.3,7-1.4,12.4-0.7,18.6"/>
<path fill="none" stroke="#4E9BD7" stroke-miterlimit="10" d="M179.2,96.9c-0.8,1.2-1,3.9-1.9,5.6c-0.9,1.7-2.5,1.1-3.5,2.8
	c-1.6,2.7-1.9,8-1.2,11.1c0.2,1,0.5,2,0.5,3c0,0.8-0.3,1.6-0.2,2.4c0,0.8,0.3,1.5,0.6,2.2c1.1,2.6,2.9,7.3,3.7,7.6"/>
<path fill="#7BBCEB" stroke="#4E9BD7" stroke-miterlimit="10" d="M185.2,207.2c-0.8-0.1-1.4-0.7-2-1.2c-1.7-1.6-3.5-3.4-4.3-5.6
	c-0.6-1.8-0.5-3.8-1.4-5.5c-0.9-1.7-1.3-2.6-2.3-4.2c-0.7-1.1-2.9-2.7-3.5-3.9c-0.8-1.6-1.5-2.8-2.5-4.2c-1.1-1.4-2-3.1-1.9-4.9
	c0.1-2.2,1.6-4,2.2-6.1c0.7-2.4,0.3-5.2,1.4-7.5c0.4-0.8,1.1-1.8,1.9-1.5c0.7,0.2,2.2-0.6,2.2-1.1c-0.1-1.4-0.2-3.5,1.4-3.8
	c1.3-0.2,1.8,2,2.4,3.2c1.1,2.2,2.3,4.2,3.8,6.1c0.6,0.8,1.3,1.6,1.8,2.5c0.6,1.3,0.8,2.8,1,4.2c0.2,1,0.3,2,0.8,3
	c0.4,1,1.1,1.9,1.8,2.7c1.5,2,3.1,4.3,3.1,6.8c0,1.4-0.5,2.7-0.4,4c0.1,2.1,1.4,3.8,2.5,5.6c1,1.8,1.9,4,0.9,5.8
	c-0.6,1.2-1.8,1.9-2.9,2.6c-1.1,0.7-2.2,1.3-3.3,2C186.9,206.9,186.1,207.3,185.2,207.2z"/>
<g>
	<g>
		<path fill="none" stroke="#585858" stroke-miterlimit="10" d="M-19.5,11.7c0.2,0.6,0.5,1.2,0.8,1.8"/>
		
			<line fill="none" stroke="#585858" stroke-miterlimit="10" stroke-dasharray="9.892872e-03,0" x1="-18.3" y1="14.5" x2="-18.3" y2="14.5"/>
		<path fill="none" stroke="#585858" stroke-miterlimit="10" stroke-dasharray="3.9571,0.9794,9.892872e-03,0" d="M-18.3,14.5
			c0.8,1.5,1.8,2.8,3.2,3.5c2.4,1.2,3-2.4,5.5-3.2c1.9-0.6,0.9,4.1,2.4,5.5c4.1,3.7,5.6,8.2,4.4,13.5C-4,38.4-6,42.4-6.3,47.1
			c-0.1,1.6,2.9,0.1,3.8-1.1c1-1.2,3.5-3.1,3.8-1.6C2,48,0.9,52,4,54c1.7,1.2,4.1,1.8,4.9,3.7c0.7,1.6,1,5.5,2.2,4.3
			c1.4-1.5-0.6-5,1.3-6c1-0.6,2.4,1.3,3.4,0.7c2-1.1,2.2-3.9,4-5.3c2.8-2.2,5-7.8,8.3-6.6c2.2,0.8,2.3,6.7,4.3,5.4
			c1.8-1.3-0.5-5.8,1.7-6.4c2.5-0.7,5.2,1,7.2-0.5c1-0.8,1.9-1.8,3.1-2.1c1.1-0.3,2.2,0.1,3.3,0.1c2.6-0.1,4.5-2.5,6-4.7
			c4.7-6.7,10.1-13,15.9-18.8c2.3-2.2,4.7-4.4,6.3-7.2c2.9-4.9,3.3-11.4,7.6-15.1c1.2-1,2.6-1.8,3.7-3c0.8-0.9,1.4-2,1.9-3.2
			c1.4-2.8,2.7-5.6,4.1-8.4"/>
		<path fill="none" stroke="#585858" stroke-miterlimit="10" d="M93.3-19.1c0.3-0.6,0.6-1.2,0.9-1.8"/>
	</g>
</g>
<g>
	<g>
		<path fill="none" stroke="#585858" stroke-miterlimit="10" d="M212.2-18.6c0,0.7,0,1.3,0,2"/>
		
			<line fill="none" stroke="#585858" stroke-miterlimit="10" stroke-dasharray="9.975091e-03,0" x1="212.2" y1="-15.7" x2="212.2" y2="-15.7"/>
		<path fill="none" stroke="#585858" stroke-miterlimit="10" stroke-dasharray="3.99,0.9875,9.975091e-03,0" d="M212.2-15.7
			c-0.2,6.7-1.3,13.3-3,19.8c-1,3.6-2.2,7.3-1.9,11c0.3,2.8,1.5,5.8,0.3,8.4c-0.7,1.6-2.2,2.6-3.2,4.1c-2.4,3.5-1,8.2-0.4,12.4
			c1.7,11.2-2.1,22.6-0.8,33.9c0.1,0.6,0.3,1.3,0.9,1.4c0.3,0.1,0.6-0.1,0.9-0.3c2.2-1.3,4.2-4.9,6.7-4c1.6,0.5-0.5,3.8,0.8,4.8
			c2.9,2.4,7.2-5.5,10.6-3.9c1.5,0.7,1.3,4.8,2.8,4c3.2-1.8,2.3-6.9,4.7-9.7c1.6-1.8,3.2-3.4,4.9-5.1c5.4-5.5,10.8-10.9,16.2-16.4
			c2.6-2.6,5.3-5.3,8.5-7.1c2.8-1.5,6.1-2.4,8.3-4.8c1.5-1.7,3.3-4.3,5.4-3.3c1.9,1,2.4,4.8,4.4,4.1c0.5-0.2,0.8-0.6,1.2-1
			c7.5-8.8,18.1-14.8,29.4-16.7c1-0.2,2.1-0.3,3.1,0"/>
		<path fill="none" stroke="#585858" stroke-miterlimit="10" d="M311.9,16c0.7,0.2,1.2,0.5,1.7,1"/>
	</g>
</g>
<g>
	<g>
		<path fill="none" stroke="#585858" stroke-miterlimit="10" d="M322.1-18.2c-0.3,0.6-0.6,1.2-0.9,1.8"/>
		
			<line fill="none" stroke="#585858" stroke-miterlimit="10" stroke-dasharray="1.003512e-02,0" x1="320.8" y1="-15.5" x2="320.8" y2="-15.5"/>
		<path fill="none" stroke="#585858" stroke-miterlimit="10" stroke-dasharray="4.014,0.9935,1.003512e-02,0" d="M320.8-15.5
			c-5.7,13-4.4,28.5-10.8,41.3c-3,6-2.5,12.6-5.5,18.6c-0.9,1.9-3,2.9-3.7,4.9c-1.7,4.6-3.4,9.3-5,13.9c-4.4,12.2-8.8,24.6-9.8,37.5
			c-1.5,19.7,5.2,39.2,13.8,57c7,14.5,15.3,28.4,24.7,41.4c2.5,3.5,5.2,6.9,7,10.8c3,6.5,3.6,14.2,7.8,20c3.8,5.3,11.3,8.6,17.1,5.6
			c3.5-1.8,6-5.5,9.8-6.4c1.5-0.4,3.2-0.2,4.6-1c1.4-0.7,2.2-2.2,2.9-3.6c1.8-3.2,3.5-6.5,5.3-9.7"/>
		<path fill="none" stroke="#585858" stroke-miterlimit="10" d="M379,215.1c0.3-0.6,0.6-1.2,1-1.8"/>
	</g>
</g>
<g>
	<g>
		<path fill="none" stroke="#585858" stroke-miterlimit="10" d="M379.7,296.7c0.1,0.7-0.2,1.3-0.6,1.9"/>
		
			<line fill="none" stroke="#585858" stroke-miterlimit="10" stroke-dasharray="1.010007e-02,0" x1="378.4" y1="299.3" x2="378.4" y2="299.3"/>
		<path fill="none" stroke="#585858" stroke-miterlimit="10" stroke-dasharray="4.04,0.9999,1.010007e-02,0" d="M378.4,299.3
			c-1.4,1-3.6,1.6-5.3,2c-0.6,0.2-1.3-0.6-1.7-0.2c-4.6,4.4,6.7,9.5,6.8,15.9c0.1,4-2.7,7.8-6.3,9.6c-2.4,1.3-4.3-5.2-7-4.4
			c-1.4,0.4-0.4,3.4-1.7,3.9c-1.6,0.6-1.3,2.2-2.6,3.3c-0.8,0.7-2.1-0.6-3-1.1c-0.6-0.3-1.1-0.7-1.7-0.9c-1-0.3-2.1,0-3.1,0.3
			c-3.4,1-6.8,2-10.2,3c-2,0.6-4.2,1.3-5.6,2.9c-0.6,0.7-1.1,1.5-1.5,2.3c-1.6,2.9-1.7,7.6-4.8,8.8c-0.6,0.2-1.2-0.9-1.8-0.7
			c-1.3,0.5-0.2,3.1-1.3,4c-1.3,1-3.7-1.5-4.9-0.4c-0.8,0.7,0.5,2.5-0.3,3.1c-1,0.8-2.5-1.1-3.7-0.6c-3.4,1.6-4,6.5-6,9.7
			c-0.7,1.2-1.5,2.5-1.4,4c0.1,1.3,0.9,2.5,1.3,3.8c0.3,1,0.2,2.1,0.1,3.2c-0.4,5.1-0.9,10.1-1.3,15.2"/>
		<path fill="none" stroke="#585858" stroke-miterlimit="10" d="M311.4,386c-0.1,0.7-0.1,1.3-0.2,2"/>
	</g>
</g>
<g>
	<g>
		<path fill="none" stroke="#585858" stroke-miterlimit="10" d="M-18.7,290.1c2.3,1.9,4.7,3.7,7.1,5.5"/>
		<path fill="none" stroke="#585858" stroke-miterlimit="10" stroke-dasharray="1.0059,3.0178" d="M-9.2,297.4c0.7,0.5,1.3,1,2,1.5"
			/>
		<path fill="none" stroke="#585858" stroke-miterlimit="10" stroke-dasharray="18.1069,3.0178,1.0059,3.0178" d="M-6,299.8
			c17,12.5,34.9,23.8,53.6,33.8c6.4,3.4,13,6.7,20.2,7.6c3.9,0.5,9.4-1,12.9,0.8c10.5,5.4,14,25.1,28.1,25.8
			c10.2,0.5,16.2-10.6,23.8-17.4c5.8-5.2,15.2-13.9,22.7-16.7c10.7-3.9,18.1-4.8,24.9-11.2c1.9-1.8,5.6-2,8.2-1.6
			c2.1,0.3,3.9,3.9,5.8,4.7c4.8,1.8,9.7,0,14.8-0.3c10.3-0.7,27-6.2,35-9.6c15.5-6.6,32.2-12.6,50.7-20c2.3-0.9,4.7-1.8,7.1-1.8
			c3,0,5.9,1.3,8.7,2.4c11.6,4.3,24.3,4.3,36.7,4.2c8.7,0,18.6-0.7,25.8-5"/>
		<path fill="none" stroke="#585858" stroke-miterlimit="10" d="M374.4,294.6c2.5-1.7,4.5-3.8,6-6.6"/>
	</g>
</g>
<text transform="matrix(1 0 0 1 194.3061 172.6035)"><tspan x="0" y="0" fill="#7BBCEB" font-family="'Verdana-Italic'" font-size="8">Turner</tspan><tspan x="0" y="9.6" fill="#7BBCEB" font-family="'Verdana-Italic'" font-size="8">Lake</tspan></text>
<path fill="none" d="M206.9,292.1c5.9,7,17.8,4.7,26.4,1.8c8.6-2.9,16.2-8.3,23.6-13.7c6-4.4,12.1-8.7,18.1-13.1"/>
<text transform="matrix(0.9276 -0.3735 0.3735 0.9276 234.6934 296.115)"><tspan x="0" y="0" fill="#7D7D7D" font-family="'Verdana-Italic'" font-size="7">1</tspan><tspan x="4.7" y="0" fill="#7D7D7D" font-family="'Verdana-Italic'" font-size="7" rotate="-4.6">0</tspan><tspan x="9.3" y="-0.4" fill="#7D7D7D" font-family="'Verdana-Italic'" font-size="7" rotate="-8.2">0</tspan><tspan x="13.8" y="-1.1" fill="#7D7D7D" font-family="'Verdana-Italic'" font-size="7" rotate="-10.9">0</tspan><tspan x="18.2" y="-1.9" fill="#7D7D7D" font-family="'Verdana-Italic'" font-size="7" rotate="-12.8">0</tspan></text>
<text transform="matrix(1 0 0 1 240.75 318.532)" fill="#585858" font-family="'Verdana-Italic'" font-size="8">× 10592</text>
<path fill="none" d="M192.3,157.3c1.7-6.1,7.9-9.6,12.4-14.1c10.7-10.8,11.4-27.6,15.3-42.3c2.3-8.7,6-17.1,9.9-25.2"/>
<text transform="matrix(0.2849 -0.9586 0.9586 0.2849 216.0273 128.5715)"><tspan x="0" y="0" fill="#7D7D7D" font-family="'Verdana-Italic'" font-size="7">9</tspan><tspan x="4.6" y="0" fill="#7D7D7D" font-family="'Verdana-Italic'" font-size="7" rotate="-2.8">6</tspan><tspan x="9.1" y="-0.2" fill="#7D7D7D" font-family="'Verdana-Italic'" font-size="7" rotate="-4.4">0</tspan><tspan x="13.6" y="-0.6" fill="#7D7D7D" font-family="'Verdana-Italic'" font-size="7" rotate="-5.1">0</tspan></text>
<path fill="none" d="M140.9,65.4c0.5-0.3,0.8-0.7,1.1-1.2c6-7.9,11.2-16.5,16-25.2c3.9-6.9,7.7-14.1,13.3-19.7"/>
<text transform="matrix(0.5271 -0.8498 0.8498 0.5271 151.9482 54.4548)"><tspan x="0" y="0" fill="#7D7D7D" font-family="'Verdana-Italic'" font-size="7">9</tspan><tspan x="4.5" y="0" fill="#7D7D7D" font-family="'Verdana-Italic'" font-size="7" rotate="-1.1">2</tspan><tspan x="9" y="-0.1" fill="#7D7D7D" font-family="'Verdana-Italic'" font-size="7" rotate="-1.9">0</tspan><tspan x="13.4" y="-0.2" fill="#7D7D7D" font-family="'Verdana-Italic'" font-size="7" rotate="-2.5">0</tspan></text>
<path fill="none" d="M18.4,261.2c2.3,2.9,5.4,5,8,7.6c5.2,5.3,8.2,12.7,8,20.1c-0.2,7.5-3.4,15.1-1.3,22.3"/>
<text transform="matrix(0.4674 0.8841 -0.8841 0.4674 27.7734 274.5183)"><tspan x="0" y="0" fill="#7D7D7D" font-family="'Verdana-Italic'" font-size="7">1</tspan><tspan x="4.1" y="0" fill="#7D7D7D" font-family="'Verdana-Italic'" font-size="7" rotate="9">0</tspan><tspan x="8.1" y="0.6" fill="#7D7D7D" font-family="'Verdana-Italic'" font-size="7" rotate="18.1">8</tspan><tspan x="11.9" y="1.8" fill="#7D7D7D" font-family="'Verdana-Italic'" font-size="7" rotate="27.5">0</tspan><tspan x="15.6" y="3.7" fill="#7D7D7D" font-family="'Verdana-Italic'" font-size="7" rotate="35">0</tspan></text>
<path fill="none" d="M124.8,229.6c1.6,0.3,2.9,1.4,4.1,2.4c13.4,11.8,10,32.1,17.9,48.1c6.8,13.7,25.7,16.7,36.8,27.2"/>
<text transform="matrix(0.1915 0.9815 -0.9815 0.1915 137.7568 256.4275)"><tspan x="0" y="0" fill="#7D7D7D" font-family="'Verdana-Italic'" font-size="7">1</tspan><tspan x="4.5" y="0" fill="#7D7D7D" font-family="'Verdana-Italic'" font-size="7" rotate="-0.1">0</tspan><tspan x="9" y="0" fill="#7D7D7D" font-family="'Verdana-Italic'" font-size="7" rotate="-1.6">4</tspan><tspan x="13.5" y="-0.1" fill="#7D7D7D" font-family="'Verdana-Italic'" font-size="7" rotate="-4.4">0</tspan><tspan x="18.2" y="-0.5" fill="#7D7D7D" font-family="'Verdana-Italic'" font-size="7" rotate="-8.6">0</tspan></text>
<g>
	<g>
		<polyline fill="none" stroke="#7D7D7D" stroke-miterlimit="10" points="85.2,341.6 85.2,348.7 275.4,348.7 275.4,341.7 		"/>
		<line fill="none" stroke="#7D7D7D" stroke-miterlimit="10" x1="180.5" y1="341.4" x2="180.5" y2="348.7"/>
		<line fill="none" stroke="#7D7D7D" stroke-miterlimit="10" x1="161.2" y1="349.2" x2="161.2" y2="343.7"/>
		<line fill="none" stroke="#7D7D7D" stroke-miterlimit="10" x1="142.4" y1="349.2" x2="142.4" y2="343.7"/>
		<line fill="none" stroke="#7D7D7D" stroke-miterlimit="10" x1="123.3" y1="349.2" x2="123.3" y2="343.5"/>
		<line fill="none" stroke="#7D7D7D" stroke-miterlimit="10" x1="104.6" y1="349.2" x2="104.6" y2="343.7"/>
	</g>
	<text transform="matrix(1 0 0 1 83.7833 339.1468)" fill="#7D7D7D" font-family="'Verdana'" font-size="8">0</text>
	<text transform="matrix(1 0 0 1 174.2944 339.1468)" fill="#7D7D7D" font-family="'Verdana'" font-size="8">0.5</text>
	<text transform="matrix(1 0 0 1 258.3413 339.1468)" fill="#7D7D7D" font-family="'Verdana'" font-size="8">1 mi</text>
</g>
</svg>
