<?xml version="1.0" encoding="utf-8"?>
<!-- Generator: Adobe Illustrator 17.1.0, SVG Export Plug-In . SVG Version: 6.00 Build 0)  -->
<!DOCTYPE svg PUBLIC "-//W3C//DTD SVG 1.1//EN" "http://www.w3.org/Graphics/SVG/1.1/DTD/svg11.dtd">
<svg version="1.1" id="Layer_1" xmlns="http://www.w3.org/2000/svg" xmlns:xlink="http://www.w3.org/1999/xlink" x="0px" y="0px"
	 viewBox="0 0 360 360" enable-background="new 0 0 360 360" xml:space="preserve">
<path fill="none" stroke="#E1E1E1" stroke-miterlimit="10" d="M-16.7,296.3c-0.1-1.8,1.4-3.4,3.1-4.1c1.7-0.7,3.6-0.6,5.4-0.5
	c3.2,0.2,6.7,2.9,9.6,1.4c1.1-0.5,0.1-2.6,1-3.5c2.4-2.3,6.7,0.9,9.9,1.7s7,1,9.8-0.8c2.4-1.6,4.9-4.7,7.4-3.3
	c2.2,1.2,1.5,4.6,2.4,7c1.2,3.1,5.4,5.1,4.8,8.4c-0.2,1.2-1,2.1-1.8,3c-3.4,3.9-6.7,7.8-10.1,11.7c-1.4,1.6-2.9,3.3-5,3.8
	c-1.2,0.3-2.4,0.2-3.6,0.4c-4,0.7-6.4,4.7-8.3,8.3c-1,1.9,0.1,4-0.5,6.1c-0.7,2.6-0.3,3.3,0.4,5.9c0.4,1.3-2.5,1.4-2.9,2.7
	c-0.4,1.5,2.6,1.3,3.9,0.6s2.9-1.9,4.2-1.2c0.7,0.4,1.1,1.2,1.7,1.8c2.3,2.6,6.5,1.7,9.9,1.1c3.4-0.7,6.1,1.1,8.8,3.3
	c6,5,15.9,0.3,22.9-3c1.1-0.5,2.3-1.2,3.5-0.9c1.1,0.3,2.1,1.3,3.2,1c0.8-0.2,1.3-1,2.1-1.2c1.5-0.3,2.3,1.6,3.7,2.2
	c1.1,0.5,2.4,0.1,3.6,0.5c2,0.6,2.6,3.2,2.8,5.3c0,0.4,0.1,0.9-0.1,1.2c-0.4,0.5-1.1,0.6-1.8,0.5c-1.5-0.1-3.2-1.2-4.4-0.4
	c-1.3,0.9,0.3,3.7-1,4.7c-1.4,1.2-3.9,0.1-5.5,0.9c-1.7,0.9-3,2.6-2.9,4.5c0.1,1.9,2.4,1.9,3.9,3c1.6,1.3,2.2,3.3,4.1,3.9
	c4.5,1.6,9.4,3.1,13.9,1.8c1.9-0.6,3.6-1.6,5.5-2c2-0.4,4-0.1,6,0.2c7.4,1.4,14.6,3.9,21.3,7.4"/>
<path fill="none" stroke="#E1E1E1" stroke-miterlimit="10" d="M126.7,378.2c-5.3-12.1-27.3-2.7-34.8-13.7
	c-4.7-6.8-7.1-13.7-10.9-21.1c-2.9-5.6,1.9-13-1-18.6c-2.2-4.3-8.7-4.4-11.5-8.3c-2.8-3.9-3.3-9.9,0.3-13.1c1.4-1.3,3.2-2,5-2.6
	c11.9-4.2,24.3-6.9,36.8-8c3-0.3,6.1-0.4,9-1.5c2.4-0.9,4.6-2.4,6.7-3.9c7.4-5.2,14.6-10.8,21.6-16.6c5.3-4.4,10.6-9.2,13.1-15.7
	c3.5-9.1,1.6-21.6,9.8-26.9c5.6-3.7,13.1-1.7,19.5,0.4c14.5,4.7,29.9,10.1,39,22.4c4.3,5.9,0.3,12.8,1.2,20.1
	c1.6,12.7,22.7,13,29.5,23.8c5.1,8,7.8,18.5,16.3,22.7c3.5,1.7,7.6,2.1,11.5,2.3c20.3,1.2,56.5,3.2,56-17.1
	c-0.1-5.9,0.7-10.8,2.9-16.3c4.3-10.9-1.8-23-1.6-34.8c0-2.5,0.4-5,0-7.5c-0.3-2.5-1.3-4.9-2.1-7.3c-7.4-24.2,11-51.7,1.1-75
	c-2.4-5.6-6.2-10.4-10-15.1c-2.9-3.6-5.8-7.2-8.6-10.8c-1.3-1.6-2.6-3.2-4.6-3.7c-1.5-0.4-3.3-0.1-4.6-0.9c-1.8-1.1-1.9-3.6-1.4-5.6
	c2.3-9.7,12.6-14.7,20.8-20.4c8.3-5.7,15.4-13.3,20.5-22c0.9-1.5,4-1.5,4-3.2c0.1-3.7-4.7-6-5.5-9.6c-0.2-0.7-0.3-1.5-0.9-2
	c-1.7-1.4-3.6,1.4-5.5,2.3c-2.7,1.4-5.7-1.1-8.7-1.9c-1.8-0.5-3.7-0.3-5.5-0.1c-13.4,1.3-26.8,2.6-39.9,5.6
	c-11.3,2.6-22.2,6.4-33.4,9.1c-11.2,2.7-23,4.2-34.3,2c-4-0.8-8.6-2.7-9.2-6.8c-0.5-3.6,3-6.8,6.6-7.1c2.1-0.1,4.2,0.5,6.2-0.1
	s1.1-2.8,1.9-4.7c1.5-3.5,6.9-3.3,7.9-7s0.6-7.6,1.4-11.4c0.8-4.2,2.9-8.1,4.1-12.2c0.4-1.4,0.7-2.9,1.3-4.2c1.3-3,3.9-5.2,6.7-6.8
	c2.6-1.4,5.4-2.4,8.3-2.8c6.5-1,13.4,0.6,19.6-1.4c3.5-1.1,6.5-3.3,9.5-5.5c7-5.1,14.1-10.2,21.1-15.4c4.1-3,8.3-6.2,10.3-10.8
	c0.6-1.4,1-2.9,1.7-4.3c1-1.9,2.5-3.4,4-4.9c2.9-2.9,5.8-5.7,8.6-8.6"/>
<path fill="none" stroke="#E1E1E1" stroke-miterlimit="10" d="M352.7-22.3c-2.5,3.8-5.8,7-9.5,9.4c-3.2,2-6.8,3.6-9.2,6.5
	c-2.1,2.6-3.1,6.1-5.7,8.3c-1.5,1.3-3.5,2.1-5.1,3.3c-2.9,2.1-4.6,5.6-6.9,8.4c-1.7,2.1-3.9,3.8-5.7,5.9c-3.9,4.4-6.3,10-7.3,15.8
	c-0.2,1.1-0.4,2.3-1.2,3c-0.6,0.5-1.3,0.6-2,0.8c-3.3,0.7-6.5,1.4-9.8,2.1c-4.5,1-9,1.9-13.6,2c-2.8,0-5.7-0.3-8.5,0.2
	c-2.8,0.5-7.9,1.8-6.9,4.4c0.8,2,4.1,1.5,6.1,2.3c0.9,0.3,1.8,0.7,2.7,0.8c2.3,0.3,4.9-0.4,7.2-0.6c4.2-0.4,8.8-1.3,13.1-1.4
	c4.7-0.1,8.9,3.9,13.4,2.2c1-0.4,2.6-1.3,3.6-1.6c1.4-0.4,2-0.6,3.4-0.4c4.6,0.6,9.2,1.2,13.8,1.8c1.1,0.1,2.1,0.3,3.2,0.2
	c2.4-0.2,4.7-1.5,7.1-1.2c0.9,0.1,1.8,0.4,2.7,0.4c4,0.2,7-4.1,11-4.4c1.9-0.1,3.8,0.7,5.7,0.4c2.3-0.3,4-2.2,6-3.3
	c3.7-2,8.2-1.5,12.4-1c3.5,0.5,7,0.9,10.5,1.4"/>
<path fill="none" stroke="#E1E1E1" stroke-miterlimit="10" d="M379.5,28.5c-5.6-1-11.1-2.9-16.1-5.6c-1.1-0.6-2.2-1.2-3.4-1.4
	c-3.7-0.5-6.5,3.3-9.7,5.2c-2.9,1.7-6.6,2-9.5,3.7c-1,0.6-1.9,1.3-2.9,1.9c-2.5,1.5-5.6,2.1-8.3,1.1s-4.9-3.7-4.6-6.6
	c0.1-1.6,0.9-3,1.7-4.4c1.2-2,2.4-3.9,3.8-5.8c1.6-2.2,3.4-4.3,5.1-6.4c4.6-5.6,9.3-11.2,13.9-16.7c1.7-2.1,4.6-2,6.6-3.7
	c2-1.7,2.8-4.2,5.4-4.8c7.9-1.8,16.4-1,23.8,2.3"/>
<path fill="none" stroke="#E1E1E1" stroke-miterlimit="10" d="M380.2-4c-0.2-1.9-2.6-2.4-4.5-2.5c-3.2-0.2-6.5-0.3-9.7-0.5
	c-1-0.1-2.1-0.1-3.1,0.1c-3.2,0.6-5.5,3.3-7.5,5.8c-0.8,1-1.7,2.1-2.5,3.1c-0.5,0.6-1,1.2-1.2,2c-0.5,1.9,2.2,4.2,0.9,5.7
	c-1.3,1.5-3.9,0.6-5.9,0.9c-0.8,0.1-1.6,0.3-2.3,0.7c-2.2,1.4-1.1,5.3,1.3,6.3c2.4,1,5.2,0.1,7.5-1.3c2.3-1.3,4.4-3,7-3.6
	c2.8-0.6,5.7,0.3,8.5,0.9c4.9,1.1,10,1.6,15.1,2"/>
<path fill="none" stroke="#E1E1E1" stroke-miterlimit="10" d="M381.5,116.3c-6.1,0.3-12.2,0.6-18.3,0.9c-2.2,0.1-4.4,0.2-6.6,0.3
	c-5.4,0.3-11,0.6-15.5,3.4c-4.6,2.8-7.6,8.9-5.1,13.7c1.7,3.2,5.3,4.9,8.6,6.3c2.5,1.1,5,2.2,7.4,3.6c2.7,1.6,5.3,3.6,7.8,5.5
	c2.4,1.8,4.7,3.7,6.7,5.9c4.3,4.9,11.3,14.4,5.9,18c-4.1,2.7-10.2,0.2-13.3,4c-1.9,2.3-2.9,5.2-3.9,8.1c-1,3-2,6-3,9
	c-0.6,1.8-1,4.2,0.6,5.3c0.6,0.4,1.3,0.5,1.8,0.9c1,1,0.3,2.6-0.3,3.9c-2.5,5.3-2.4,11.6-1.5,17.4c0.8,4.8,2.5,10.2,7,12.1
	c1.3,0.5,2.8,0.8,3.5,2c0.5,0.9,0.4,2,0.6,3c0.5,2.4,3.6,2,5.6,3.5c4.5,3.2,3.6,10.4,4.9,15.8c1.8,7.2-1.9,14-5.1,20.7
	c-2,4-3.9,8.6-6.5,12.2c-11,15.6-23.1,32.1-41,38.8c-14.9,5.6-31.6,3.5-47.2-0.1c-1.4-0.3-2.1-1.3-2.5-2.6
	c-3.6-10.9-19.2-12.9-27-21.4c-1.9-2.1-3.8-4.3-6.4-5.3c-2-0.8-4.3-0.7-6.2-1.8c-3-1.6-4-5.3-5.7-8.2c-3.5-6.2-10.3-9.9-14.6-15.6
	c-3.6-4.7-5.4-10.5-8.1-15.7c-2.8-5.2-7.2-10.2-13.1-10.8c-0.8-0.1-1.6-0.1-2.3,0.3c-1.1,0.6-1.6,2-2,3.2
	c-2.8,7.4-10,11.9-16.1,16.9c-7.3,6-13.5,13.3-18.2,21.6c-1.8,3.1-3.3,7.2-1.2,10.2c1.8,2.4,5.9,3.9,5.2,6.8c-0.3,1.2-1.4,2-2.4,2.8
	c-8.3,5.8-17,11-26,15.5c-1.9,1-3.9,1.9-6.1,2c-2.1,0.1-4.2-0.5-6.2-0.8c-10.5-1.5-21.3,7.6-21.4,18.3c0,1.5,0.1,3,0.7,4.3
	c1.4,3.4,5.3,5.4,9,5.5c3.7,0.1,7.3-1.3,10.7-2.9c4.6-2.2,9.3-5.1,14.3-4.4c3.1,0.4,5.8,2,8.4,3.6c4.6,2.8,9.2,5.5,13.9,8.3
	c1.4,0.9,3,1.9,3.4,3.5c0.2,0.8,0,1.7-0.1,2.5c-0.9,5.1-1.8,10.2-2.7,15.4"/>
<path fill="none" stroke="#E1E1E1" stroke-miterlimit="10" d="M110.4,310.9c-0.7-1.2-2.7-1.2-3.8-0.4c-1.1,0.8-2.1,2.8-1,3.7
	c0.9,0.7,2.4,0.2,3.5-0.3C110.1,313.3,111,311.9,110.4,310.9z"/>
<path fill="none" stroke="#E1E1E1" stroke-miterlimit="10" d="M114.1,337.6c-0.6,0.1-1.2,0.5-1.8,0.8c-0.6,0.4-1.3,0.9-1.9,1.3
	c-1,0.7-2.6,2.1-1.7,3c1,0.9,2.6,1,4,0.9c0.8-0.1,1.6-0.3,2.4-0.6c1.5-0.5,3-1,4.5-1.6c0.7-0.2,1.3-0.5,2-0.6c1.4-0.2,2.7,0.2,4,0.5
	c0,0,0,0,0,0c1.5-0.3,2.3-2.1,3.1-3.5c0.2-0.3,0.4-0.7,0.2-1c-0.1-0.3-0.4-0.4-0.7-0.5c-1.9-0.7-4.1-0.6-5.9,0.1
	c-1.6,0.7-3.2,1.9-4.9,1.7C116.5,338.2,115.3,337.4,114.1,337.6z"/>
<path fill="none" stroke="#E1E1E1" stroke-miterlimit="10" d="M168,377.4c2.6-2,3.4-5.6,3.4-8.9c0.1-3.3-0.4-6.7,0.7-9.8
	c0.3-0.8,0.7-1.6,0.5-2.4c-0.3-1.4-1.9-2.1-3.3-2.5c-4.5-1.3-8.9-2.6-13.4-3.9c-1.7-0.5-3.3-1-5-1.5c-1.5-0.5-3.1-0.9-4.6-1.4
	c-5.2-1.5-10.5-2.8-15.7-4.6c-1-0.3-0.9-1.9-0.1-2.5c0.8-0.7,1.9-0.7,2.9-0.8c8.3-0.5,16.2-3.6,23.1-8.3c3.8-2.6,7.3-5.7,10.8-8.7
	c5.9-5.1,11.7-10.2,17.6-15.4c1-0.8,2-1.7,2.4-2.9c1.5-3.7-2.6-7.1-6.3-8.7c-1.4-0.6-3.1-1.5-3.2-3c-0.1-1,0.6-2.2,0-3.1
	c-0.4-0.7-1.4-0.9-1.8-1.6c-0.5-0.9,0.3-2,1-2.8c4.4-4.7,8.8-9.3,13.2-14c1-1.1,2.2-2.2,3.7-2.4c2-0.2,3.7,1.7,4.2,3.7
	c0.5,2,0.3,4,0.5,6c0.6,7.3,6.7,13,13,16.8c1.4,0.9,3,1.7,3.8,3.2c0.4,0.8,0.6,1.7,1,2.5c0.9,2,2.7,3.4,4.5,4.7
	c3.4,2.4,6.8,4.8,10.3,7.1c5.1,3.4,10.4,6.7,15.7,9.8c2.8,1.6,5.7,3.1,7.6,5.6c4.2,5.2,4,14.1,10.2,16.7c4.7,2,10-1.3,15.1-1.4
	c3.5-0.1,6.4,2.2,9.5,3.9c3.5,2,8.4,1.7,12.4,1.5c10.4-0.5,21.3-1.3,29.8-7.3c3.3-2.4,6.3-5.6,10.2-6.6c2.2-0.6,4.6-0.4,6.8-1.2
	c4.7-1.6,7.1-6.7,8.8-11.3c1.2-3.2,2.3-6.5,3.4-9.8c0.4-1.1,0.7-2.3,1.3-3.4c1-1.7,2.5-3,3.8-4.4c1-1.1,1.9-2.3,3-3.3
	c3.1-2.7,7.3-3.3,11.3-3.9"/>
<path fill="none" stroke="#E1E1E1" stroke-miterlimit="10" d="M186.9,322.5c-3.4,3.2-6.8,6.5-10.2,9.7c-2,1.9-4.8,4.4-3.9,7
	c0.9,2.4,4.8,0.7,7.3,1.2c1.5,0.3,2.7,1.3,4,2c1.5,0.8,3.3,1.3,5,1.6c5.3,1.1,10.9,1.3,15.9-0.6c5-1.9,9.4-6.3,9.9-11.7
	c0.1-0.7,0.1-1.6,0.7-2c0.9-0.7,2.2,0,3.3,0.1c1.7,0.2,3.4-1.3,3.6-3c0.3-1.7-0.7-3.5-2.1-4.5c-1-0.7-2.2-1.1-3.3-1.7
	c-4.5-2.7-6-9.6-11.1-10.9c-3.3-0.8-6.8,1.3-8.7,4.1c-0.6,0.9-1.1,1.9-1.8,2.7c-1.3,1.4-3.3,1.9-5,2.9
	C189.3,320.2,188.1,321.4,186.9,322.5z"/>
<path fill="none" stroke="#E1E1E1" stroke-miterlimit="10" d="M285.8,354.1c-0.5-0.4-0.7-0.9-1.2-1.4c-0.8-0.9-2.1-1.3-3.3-1.6
	c-4.1-0.9-8.3-1.4-12.4-1.4c-1.2,0-2.5,0.1-3.6,0.6c-2.4,1.2-3.1,4.6-2.2,7.2c0.2,0.5,0.4,1.1,0.4,1.6c-0.1,0.8-0.8,1.4-0.8,2.2
	c-0.1,1.9,4.4,2.3,3.6,4.1c-1.1,2.7-7,3.4-6.2,6.2c0.7,2.7,5.2,2.7,7.8,1.8c1.4-0.4,2.8-1.5,4.1-1c0.7,0.3,1.2,0.9,1.9,1.1
	c1.4,0.5,2.9-0.9,3.1-2.4c0.2-1.5-1.7-2.9-1.2-4.3c1.8-5.7,10.6-5.5,15.9-8.3c1.1-0.6,2.9-1.9,2-2.7c-1.5-1.4-4.1-0.7-6.1-1.1
	C287,354.6,286.3,354.5,285.8,354.1z"/>
<path fill="none" stroke="#E1E1E1" stroke-miterlimit="10" d="M-21.7,266.3c3.4,2.9,8.1,4.2,12.5,3.5c3.7-0.6,7.1-2.6,10.3-4.5
	c14.7-8.8,40.9-3.5,46.9-19.5c0.8-2.1-1.2-4.4,0.2-6.1s3.6-2.6,5.7-3.4c12.9-5.1,30-4.4,38.7-15.2c2.7-3.3,5.9-3.2,9.2-0.5
	c1.2,1,3.6,1.4,4.6,0.2c3.8-4.3,6.1-4.8,11.4-7c1.9-0.8,2.3-4.2,4.3-3.6c5.4,1.7,10.9,2.1,16.5,1.3c4.3-0.6,8.6-1.2,13-1.8
	c1.7-0.2,3.3-0.5,5-0.7c7.1-1,14.3-1.9,21.4-1.1c9.1,1.1,17.8,5.2,24.6,11.5c3.5,3.2,6.6,7.1,10.7,9.4c2.9,1.7,6.2,2.5,9.3,3.9
	c18.2,8.1,24,30.8,37.7,45.2c6.1,6.4,7.2,15.6,13.7,21.6c3.1,2.9,5.1,5.1,8,8.2c2.4,2.5,6,3.1,9.4,3.6c9.6,1.4,20.4,2.6,28.1-3.5
	c4.1-3.2,6.6-8.1,8.3-13.1c2.9-8.8,3.6-18.3,1.9-27.4c-0.5-2.4-1.1-4.9-0.8-7.4c0.3-2.4,1.4-4.7,2.1-7c3.8-12-2-24.8-2-37.4
	c0-10.4,4.1-20.6,4-31c-0.1-14.2-8.7-28.1-21.3-34.5c-3.2-1.7-6.9-3-9.1-5.8c-1.8-2.3-2.6-5.2-3.7-7.9c-5.7-14.1-21.3-21.3-36-25.1
	c-14.7-3.8-30.5-5.7-42.8-14.6c-6.1-4.3-10.9-10.1-15.3-16.1c-1-1.4-2-2.9-1.7-4.6c0.2-1.1,0.9-2.1,1.6-2.9
	c4.5-5.4,10.6-9.2,15.4-14.4c5.7-6.1,9.3-13.8,12.8-21.3c3.2-6.9,11.7-13.4,9.6-20.7c-0.5-1.8-1.7-4.2-0.3-5.4
	c1.4-1.2,3.3-1.5,5.1-2.1c2.9-1,5.6-2.7,7.6-5.1c0.5-0.6,1-1.2,1.6-1.7c1.4-0.9,3.2-0.7,4.7-0.2c1.5,0.6,2.9,1.5,4.5,2
	c2.3,0.7,4.7,0.6,7,0.4c1.6-0.1,3.3-0.3,4.7-1.1c0.9-0.5,1.6-1.3,2.3-2c2.3-2.2,5-3.8,7.7-5.4c2.7-1.6,5.3-3.2,8-4.8
	c2.8-1.6,6.5-2.1,8.4-4.6c2.8-3.7,2.8-8.9,5.5-12.7"/>
<path fill="none" stroke="#E1E1E1" stroke-miterlimit="10" d="M207.2-20.9c-2,1.2,0.7,4.2,3,4.1c2.3-0.1,5-1.3,6.8,0.3
	c0.8,0.7,1.2,1.8,1.4,2.9c2.8,11.3,0.5,23.2-1.8,34.6c-3,15.1-7.2,31.9-20.5,39.7c-5.4,3.2-12.3,4.9-15.5,10.3
	c-1.7,2.8-2.1,6.2-2.2,9.5c-0.1,3.6,0.1,7.5,2.4,10.3c2.3,2.8,5.7,0.5,9.3,0.6c21,0.4,34.1,23.4,51.9,34.6
	c17.2,10.8,30,27.1,41.7,43.6c8,11.3,15.9,23,20,36.2c2.6,8.4,3.8,17.2,4.8,25.9c0.7,5.5,1.4,11.1,2.1,16.6
	c1.4,11.2,2.6,23.3-3.4,32.9c-1.7,2.7-4,5.1-6.9,6.3c-6,2.4-12.7-1.1-18.1-4.8c-16.6-11.4-30.8-26.1-41.6-43
	c-2.2-3.5-4.3-7.1-7.2-9.9c-2-1.9-4.3-3.5-6.6-5.1c-14-9.4-28-18.9-42-28.3c-8-5.4-16.3-10.9-25.9-12.7c-13-2.4-26.2,2.7-38.4,7.7
	c-5.1,2.1-10.2,4.2-14.8,7.2c-2.5,1.7-4.8,3.7-7.2,5.4c-15.1,11.2-34.5,14.8-51.4,23.2c-12.1,6-22.8,14.4-34.4,21.1
	s-24.8,12.1-38.2,10.9"/>
<path fill="none" stroke="#E1E1E1" stroke-miterlimit="10" d="M-22.4,249.6c9.3,5.5,20.7-1.5,29.5-7.7C27.3,228,49.4,217.4,71.5,207
	c16.9-7.9,43.8-9.2,48.6-27.2c2.5-9.3,5.7-18.7,15.3-19.5c9.6-0.8,18.6,4.3,26.8,9.2c6.8,4,13.5,8.1,20.3,12.1
	c24.9,14.9,50.4,30.3,68.7,52.8c3.9,4.8,7.6,10,12.7,13.4c5.2,3.4,12.4,4.7,17.4,1.1c7.5-5.3,5.8-16.9,2.2-25.3
	c-7.1-16.6-18.4-30.9-29.6-45.1c-8.5-10.8-17.1-21.6-26.6-31.5c-17.1-17.8-37.3-32.6-59.4-43.6c-3.2-1.6-6.6-3.2-8.9-5.9
	c-6.2-7.3-2.1-18.2-0.7-27.7c0.5-3.2,0.8-6.9,3.5-8.8c1-0.7,2.3-1,3.4-1.8c2.6-1.7,3.1-5.2,4.1-8.1c2.2-6.6,7.5-11.7,11.8-17.3
	c12.5-16.2,16.8-38.3,11.4-58"/>
<path fill="none" stroke="#E1E1E1" stroke-miterlimit="10" d="M-24.2,234.5c3.4,0.6,7,0.8,10.3,0c8.5-1.9,14.9-9.4,23.4-11.2
	c2.8-0.6,5.8-0.6,8.1-2.2c1-0.7,1.8-1.6,2.6-2.5c2-1.9,4.3-3.4,6.6-4.8c4.6-2.8,9.1-5.6,13.7-8.4c1.8-1.1,3.6-2.2,5.2-3.6
	c1.2-1.1,2.3-2.3,3.5-3.3c4.1-3.6,9.6-4.9,14.8-6.5c6.5-1.9,12.8-4.3,19-7.1c0.6-0.3,1.2-0.5,1.6-1c0.9-1.2,0.4-2.9-0.4-4.2
	c-0.8-1.3-1.9-2.5-1.9-4c0.1-2.6,3-3.8,4.9-5.6c3-2.8,3.1-7.6,1.5-11.4c-0.8-1.8-2-3.5-3.7-4.5c-1.1-0.7-2.4-1.1-3.7-1.5
	c-8.2-2.3-16.8-2.6-25.3-2.9c-5.8-0.2-11.6-0.4-17.4-0.6c-1,0-1.9-0.1-2.9,0.2c-1.1,0.3-2.2,0.9-3.2,1.4c-5,2-10.6-0.5-16-0.6
	c-4.9-0.1-9.6,1.8-14,4c-1.8,0.9-3.6,1.9-5.6,2c-2,0-4.2-1.3-4.4-3.3c-0.1-0.8,0.2-1.6,0.1-2.4s-1.1-1.7-1.7-1.2
	c-5.4,4.3-11.1,8.7-18,9.2"/>
<path fill="none" stroke="#E1E1E1" stroke-miterlimit="10" d="M-20,111.7c0.1-5.9,7.2-10.4,12.6-8.1c1.7,0.7,3.3,2,5.1,1.7
	c0.9-0.2,1.7-0.7,2.4-1.2c4.2-3,7.9-6.9,12.7-8.9c0.8-0.3,1.7-0.1,2.4-0.5c2.8-1.7,3-5.8,2.7-9c-0.1-1-0.3-2-0.1-3
	c0.5-2.5,3.4-3.7,5.9-3.4c2.1,0.2,4.1,1.3,5.6,2.8c0.9,1,1.6,2.3,2.7,3.2c4,3.3,10-0.2,15.2,0.1c5.4,0.3,9.7,4.7,14.6,7
	c9.7,4.6,21.2,1,31.9,2.4c5.7,0.7,12.9,2.3,15.9-2.6c1.1-1.7,1.3-3.9,1.6-5.9c1.1-6.8,4.1-13.2,8-18.8c1.7-2.4,3.5-4.6,5.4-6.7
	c6.1-6.6,13.6-11.7,21.4-16.1c3.6-2,7.4-3.9,10.5-6.6c3.4-2.9,5.9-6.8,8.2-10.6c5.5-8.9,10.6-18.1,15.6-27.4
	c0.3-0.6,0.7-1.2,0.8-1.9c0.1-0.8-0.1-1.7-0.3-2.5c-1.7-6.4-3.4-12.7-5.1-19.1"/>
<path fill="none" stroke="#E1E1E1" stroke-miterlimit="10" d="M163.1-20.9c1.4,6,0.4,12.6-2.7,17.9c-1.6,2.7-1.5,5.8-2.9,8.6
	C150,20.2,133.1,28.5,117.6,34c-1.9,0.7-4.3,1.5-4.8,3.4c-0.5,2,1.2,4,1.1,6.1c-0.1,1.6-1.2,2.9-2.3,4.1
	c-8.9,9.3-20.5,15.6-32.5,20.2c-9.9,3.8-21.2,6.5-30.8,2c-2.4-1.1-4.5-2.6-6.9-3.6c-4.4-1.9-9.3-2-14.1-1.8
	c-6.8,0.2-13.5,0.7-20.3,1.5c-2.9,0.4-5.9,0.8-8.4,2.3s-4.5,4.2-4.4,7.1c0.1,1.4,0.7,2.8,0.6,4.3s-1.1,3.1-2.6,2.8
	c-0.6-0.1-1.1-0.5-1.6-0.8c-2.6-1.4-6-0.2-8,2c-2,2.2-2.9,5.2-3.7,8"/>
<path fill="none" stroke="#E1E1E1" stroke-miterlimit="10" d="M-24.6,70.6c6.2-1.1,10.7-6,16-9.4c10.5-6.8,23.8-7.3,36.4-7.6
	c9.9-0.2,19.9-0.4,29.8-0.6c1.4,0,2.9-0.1,4.2-0.6c1.3-0.5,2.3-1.5,3.5-2.2c6.3-4.1,15.6-3,20.4-8.8c1.7-2,2.6-4.6,4.5-6.3
	c1.9-1.6,4.6-2.3,6.2-4.2c1.9-2.2,1.8-5.4,2.8-8.1c1.8-4.8,6.8-7.4,11.3-9.7c4.4-2.2,8.8-4.4,13.2-6.5c1.6-0.8,3.3-1.7,4.4-3.1
	c1.6-2.2,1.6-5.2,2.9-7.6c1.8-3.5,6.1-5.2,7.9-8.7c0.9-1.8,1.1-3.8,1.3-5.8c0.3-2.9,0.5-5.9,0.8-8.8"/>
<path fill="none" stroke="#E1E1E1" stroke-miterlimit="10" d="M-19.9,53.1c8.3-3.6,16.7-7.3,25.7-8.5c3.8-0.5,7.7-0.6,11.3-2
	c1.6-0.6,3.1-1.5,4.8-2c2-0.7,4.1-1,6.1-1.2c10.9-1.4,21.9-3.2,32.2-7s20-10.1,26.4-19.1c1.4-2,2.6-4.1,4.3-5.8
	c2.7-2.7,6.5-4.2,9-7.1c2.3-2.7,3.6-6.7,7-7.9c1.2-0.4,2.5-0.4,3.6-1.1c1.3-0.9,1.7-2.6,2.2-4.1c1.3-3.9,4.2-7.2,8-8.9"/>
<path fill="none" stroke="#E1E1E1" stroke-miterlimit="10" d="M67.9,11.7c-0.2,0.3-0.2,0.8-0.3,1.2c-0.1,0.9-0.1,1.8,0.3,2.6
	c0.5,0.9,1.6,1.4,2.6,1.5c1.1,0,2.1-0.3,3.1-0.7c1.1-0.5,2.2-1.1,3-2.1c0.8-1,1.2-2.3,0.8-3.4c-0.1-0.1-0.1-0.3-0.2-0.4
	c-0.2-0.2-0.5-0.2-0.7-0.2c-2.4-0.2-4.8,0-7.1,0.7C68.8,10.9,68.2,11.2,67.9,11.7z"/>
<path fill="none" stroke="#E1E1E1" stroke-miterlimit="10" d="M-22,32c3.1,0.3,6.3-0.2,9.1-1.4c1.7-0.7,3.3-1.7,4.9-2.6
	C-2.8,25.3,2.5,22.9,8,21c2.1-0.7,4.3-1.4,6.2-2.7c1.3-0.9,2.4-2.1,3.7-3.2c1.5-1.2,3.1-2.2,4.8-3.1c9.6-5.2,19.9-9.1,30.5-11.5
	c2.1-0.5,4.3-0.9,6.1-2.2c1.3-1,2.2-2.3,3.3-3.6c4.6-5.3,11.7-7.8,18.5-9.6c6.8-1.8,13.9-3.3,19.8-7.3"/>
<path fill="none" stroke="#E1E1E1" stroke-miterlimit="10" d="M-18.4,21.3c2.4-0.6,4.8-1.3,7.1-2.1c7.8-2.7,15.5-5.6,23.1-8.8
	c0.9-0.4,1.9-0.8,2.7-1.5c1.6-1.3,2.2-3.5,3.4-5.2c1.2-1.7,3-2.9,4.7-4.1c2.2-1.5,4.3-3,6.5-4.5c1.4-1,2.8-2,4.4-2.7
	c2-0.9,4.2-1.4,6.4-1.9c4.7-1.1,9.4-2.6,13.9-4.4c4.7-1.9,9.6-4.4,12-8.9"/>
<path fill="none" stroke="#E1E1E1" stroke-miterlimit="10" d="M-18.2,12c2.9,2.7,7.6,1.4,11.3-0.3C1.2,8,8.9,3.2,15.9-2.4
	C18-4.1,20.2-6,22.6-7.2c1.5-0.8,3.3-1.4,4.2-2.8c0.4-0.6,0.6-1.2,1.1-1.7c0.9-1,2.4-1.2,3.8-1.5c4.9-1.2,8.6-5.2,11.9-9"/>
<path fill="none" stroke="#E1E1E1" stroke-miterlimit="10" d="M-17.9,6.4c1.7,0.7,3.6,0.9,5.4,0.4c2-0.5,3.8-1.8,5.7-2.5
	C-4.9,3.7-3,3.6-1.1,3.2c4-0.9,7.5-3.1,10.9-5.3c3.4-2.2,6.8-4.4,9.6-7.3c1.3-1.3,2.4-2.8,3.9-4c4.4-3.4,11.6-3.5,14.2-8.4"/>
<path fill="#7BBCEB" stroke="#4E9BD7" stroke-miterlimit="10" d="M217.4,161.2c-5.7-5.9-13-10.7-16.5-18c-1-2.2-1.8-4.6-3.8-6
	c-1.3-0.9-2.8-1.2-4.3-1.5c-3.3-0.6-6.7-1.3-9.4-3.3c-1.6-1.3-2.9-3-4.7-3.9c-2.8-1.3-6.9-0.6-8.5-3.3c-0.7-1.1-0.7-2.5-1.4-3.5
	c-0.9-1.3-2.7-1.6-4.3-1.8c-3.6-0.4-7.3-0.3-10.9,0.2c-1,0.2-2.1,0.4-3,0.9c-2.1,1.3-2.9,4.1-5,5.2c-1,0.5-2.2,0.6-3.2,1
	c-1.1,0.4-2.1,1.4-1.9,2.5c0.2,1.2,1.5,1.8,2.6,2.2c3.4,1.4,6.7,3.8,7.8,7.3c0.5,1.5,0.4,3.1,0.8,4.6c1.4,5,1.2,6.8,4.1,9
	c3.7,2.7,11.3,7.1,14.9,10c2.3,1.9,4.5,4.2,7.3,5.2c0.6,0.2,1.2,0.3,1.7,0.7c0.6,0.5,2.5,1.7,2.9,2.2c1.6,1.8,3,2.5,4.9,3.4
	c5.4,2.6,9.4,5.2,14.8,7.9c2.1,1,4.2,2.1,6.1,3.4c1.6,1.2,3.1,2.6,4.6,4c6.2,6.1,10.3,7.5,16.1,8.7c1.8,0.4,4.1,3.9,6.8,4
	c2,0,8.1-1.6,8.8-2.6c1-1.4-1.5-7-1.7-7.4c-1.1-3.7-2.1-2.2-1.7-5c0.1-0.7,1.2,0,1.7-0.5c1.3-1-1.6-5.7-3.3-8.4
	c-1.4-2.1-2.9-4.1-5.2-3c-0.7,0.3-1.3,1-2,1c-0.6,0-1.1-0.3-1.5-0.7C225.5,171.8,221.9,166,217.4,161.2z"/>
<path fill="none" stroke="#4E9BD7" stroke-miterlimit="10" d="M32,183c0.6,0.5,2.9-0.1,3.8-0.3c9.9-2,19.6-5.1,28.9-9.1
	c1.2-0.5,2.5-1.1,3.6-1.9c1.5-1,2.7-2.3,4.2-3.3c2.2-1.5,4.8-2.4,7.2-3.6c2.5-1.3,4.7-3.3,7.1-4.7c7.5-4.4,14.7-9.4,20.9-15.9
	c0.8-0.8,1.8-1.4,2.9-1.9c1.1-0.6,2.3-0.9,3.5-1.4c5.2-2.1,9.3-5.9,14.2-8.5c3.5-1.8,7.9-3.7,11.8-3.2"/>
<path fill="#EAEAEA" stroke="#D6D6D6" stroke-miterlimit="10" d="M-15.9,222.9c-3.2,0.4-5.7,1.1-8.2-1c-1.8-1.6-2.5-4-3-6.4
	c-1.6-6.9-3-14-1.2-20.9c1-3.8,2.8-7.2,4.6-10.6c0.6-1,1.1-2.1,2-2.9c1.1-1.2,2.7-1.9,4.3-2c0.5,0,0.9,0,1.4-0.1
	c0.5-0.2,0.9-0.5,1.3-0.8c1.9-1.3,4.5-1.2,6.8-0.8s4.5,1.3,6.9,1.4c4.1,0.1,8.4-2.3,12.2-0.8c2,0.8,3.9,2.6,6.1,2.2
	c0.8-0.2,1.5-0.6,2.2-1c1.8-1.1,1.6-1.5,3.6-2.2c0.7-0.3,2.3-0.5,3-0.3c0.3,0.1,1.5,0.6,1.5,0.9c0.2,1.9-2.6,2.7-2,4.6
	c0.6,1.8,6.3-3.2,8.3-0.1c0.8,1.3-3.6,0.9-3.5,2.4c0.1,0.7,4.2,1.2,4.9,3.7c0.4,1.8,2.1,3.4,1.6,5.2c-0.2,0.6-1.3,1.4-1.3,2
	c0,0.5-0.1,0.7-0.1,1.2c-0.1,1.5-2,3.2-3.4,3.6c-3.1,0.8-4.3,4.3-7.2,6.9c-0.9,0.8-2.4,0.8-3.6,1.1c-2.5,0.6-4.9,0.3-7.3,1
	c-1,0.3-2.2,1.5-2.9,2.2c-0.5,0.5-0.8,1.1-1.1,1.6c-3.1,5.2-9.1,8.1-15.1,8.7c-1.2,0.1-2.4,0.2-3.6,0.5c-0.9,0.2-2.4,0.2-3.4,0.4
	C-13.5,222.5-14.9,222.7-15.9,222.9z"/>
<path fill="#FFFFFF" stroke="#D6D6D6" stroke-miterlimit="10" d="M26.8,186.1c-0.2,0.1-0.2,0.4-0.3,0.6c-0.1,0.5-0.5,1-0.3,1.4
	c0.5,1.1,2.3,1,3,0.2c0.4-0.5,0.3-1.3-0.2-1.8c-0.5-0.5-1.2-0.6-1.8-0.5C27.1,186,26.9,186,26.8,186.1z"/>
<path fill="none" stroke="#585858" stroke-miterlimit="10" stroke-dasharray="4,1,0,0" d="M-21.9,43.5c3.6-1.5,7.2-3,10.8-4.5
	c2.3-1,4.7-1.9,7.2-1.8c1.7,0.1,3.4,0.7,5,0c1.4-0.6,2.3-2.2,3.8-2.8c2.4-1,5,1,7.6,1c1.8,0,3.4-0.8,5-1.5
	c5.9-2.6,12.4-3.5,18.7-4.7c12.6-2.5,25-6.4,37.2-10.5c1.4-0.5,2.8-0.9,3.9-1.8c1.9-1.5,2.9-3.8,3.8-6.1
	C87.3-3.3,97.1-16,109.2-25.6"/>
<path fill="none" stroke="#585858" stroke-miterlimit="10" stroke-dasharray="4,1,0,0" d="M109.5-19.9c0.6,0.9,0.3,2.2-0.3,3.2
	s-1.2,2-1.2,3.1c0,1.1,1.3,1.1,2.3,1.6c0.8,0.5-0.9,2.5,0,2.9c2.3,1,4.5-4.9,6.5-3.4c0.8,0.6-0.8,3.2,0.3,3.2c1.5,0,2.4-1.9,3.3-0.9
	s-0.3,2.6-0.1,4.1c0.3,2.7,5.1,2.7,6.5,5.1c1.4,2.3,3.3,3.3,5.8,4.4c0.8,0.4-0.8,1.2-1.5,1.7c-2,1.4,0.2,5.3-1.7,6.8
	c-0.5,0.4-1.3,0.6-1.5,1.2c-0.2,0.5,0.2,1.1,0.4,1.6c0.2,0.7,0.1,1.5-0.3,2.1c-0.7,1-1.9,1.3-3,1.9s-2.1,1.7-1.6,2.8
	c0.3,0.8,1.3,1.2,1.6,2c0.4,1-0.6,2.1-1.6,2.5c-1,0.4-2.1,0.4-3.1,0.9c-1.8,1-0.8,3.2-0.9,5.3c0,1.2-2.2-0.1-3.4-0.3
	c-1.6-0.3-3.1,1-3.6,2.5c-0.5,1.5-0.2,3.2,0.2,4.7c0.3,1,0.6,2.1,0.3,3.1c-0.2,0.6-0.6,1.1-0.9,1.6c-1.1,1.9-1.1,4.4-2.7,5.9
	c-1.3,1.3-3.2,1.5-4.8,2.1c-1.7,0.6-4.6,2.6-3.2,3.7c1,0.8,2.7,0.1,3.6,1c0.9,0.9,1.2,2.6,0.2,3.5c-0.8,0.7-2.5,1.8-1.6,2.3
	c1.8,1,5,2.7,3.6,4.1c-1.1,1.1-4,1.5-3.2,2.9c0.6,1.1,2.5,0.2,3.6,0.5c1.2,0.3,2.3,1.6,1.8,2.7c-0.2,0.5-0.7,0.8-1.1,1.2
	c-2.5,2.4-1.1,6.9-3.1,9.7c-0.9,1.2-2.4,2.8-1.4,3.9c0.3,0.4,0.9,0.5,1.4,0.7c3.1,1,8.1,4.5,6,6.9c-1.1,1.3-4.3,1.2-3.7,2.8
	c0.6,1.7,3.4,0.4,5.1,1.1c2.9,1.2-0.1,5.9,0.4,8.9c0.1,0.7,1.4,0.7,2.1,0.6c2.2-0.5,4.4-0.6,6.3,0.7c1.3,0.9-0.4,3.1-0.2,4.7
	c0.3,2.2,3.7,2.7,5.8,1.8c0.6-0.3,1.2-0.7,1.9-0.9c2.7-0.6,5,3.1,7.7,2.3c0.7-0.2,1.3-0.7,2-1c2.7-1.2,5.6,0.8,8.5,1.5
	c4.2,1,8.6-1.1,12.9-0.6c3.2,0.4,6.4-0.1,9.4,1c2.6,0.9,3.6,4.2,5.7,6c2.2,1.8,4.5,3.3,6.6,5.1c2,1.7,4,3.7,6.6,3.9
	c1.5,0.1,3-0.2,4.6,0c2.4,0.4,5.2,2,6.4,4.1c1.2,2,2.1,4.3,3.4,6.3c3.9,6.4,10.6,9.6,15.3,15.4c1.2,1.4,2.2,3.1,4,3.7
	c0.8,0.3,1.7,0.3,2.6,0.5c3.9,0.8,6,4.9,7.6,8.6"/>
<path fill="none" stroke="#585858" stroke-miterlimit="10" stroke-dasharray="4,1,0,0" d="M219.2-23.2c-4.5,4.7-6.6,11.6-5.6,18
	c0.2,1.4,0.6,2.9-0.1,4c-1.1,1.9-4.3,1.8-5.4,3.7c-1.5,2.4,1.2,5.3,0.9,8.1c-0.3,2-2,3.4-3.4,4.8c-9.2,9-10,25.4-21.3,31.5
	c-2.8,1.5-5.9,2.2-8.8,3.4c-6.7,2.7-10.7,16.7-17,13.1c-1.8-1-3-5.2-3.6-3.3c-1,3-0.7,6.1-3.1,8.2s-5.4,4.4-5.3,7.6
	c0.1,1.4,0.8,2.7,1.1,4.1c0.5,2.5-0.4,5.1-0.3,7.7c0,2.6,2.5,3.6,4.3,5.4c3.2,3.1-0.4,9-0.6,13.4c-0.1,1.3-0.1,2.6-0.7,3.7
	c-0.8,1.5-2.3,2.5-3.2,3.9c-0.9,1.4,0.4,2.6,0.9,4.2c1.3,4-6.8,5.1-10.7,6.7c-11.2,4.6-23.2,7.1-35.3,7.3c-1.3,0-2.7,0-3.8,0.7
	c-1.8,1-2.5,3.3-3.9,4.9c-1.4,1.6-3.5,2.4-5.3,3.7c-1.7,1.3-0.9,3.8-2.2,5.5c-2,2.9-6.2,3-7.4,6.3s-2.1,7.1-4.9,9.1
	c-1.4,1-3,1.5-4.6,1.9c-7.8,2.1-15.6,4.3-23.4,6.4c-6.4,1.8-13,3.6-18.5,7.3"/>
<g>
	<g>
		<path fill="none" stroke="#585858" stroke-miterlimit="10" d="M-19.7,142.7c2.4-1.7,4.6-3.8,6.7-6"/>
		<path fill="none" stroke="#585858" stroke-miterlimit="10" stroke-dasharray="1.0007,3.002" d="M-11.1,134.5
			c0.6-0.6,1.1-1.2,1.6-1.9"/>
		<path fill="none" stroke="#585858" stroke-miterlimit="10" stroke-dasharray="18.0119,3.002,1.0007,3.002" d="M-8.4,131.5
			c8.6-10,16.9-20.5,31.7-17.9c5,0.9,7,8.4,12,8c4.2-0.3,0.9-9.5,8-9c1,0.1,2,1.8,3,2c19.7,3,38.9,4,58,5c2,0.1,5,0.1,7-1
			c5.1-2.8,10.1-6.7,16-8c11.1-2.4,21-2.1,31-6c8-3.1,15.2-6.7,23-12c4.1-2.8,4.5-8.2,7-13c1.7-3.2,5-5,8.9-3.3
			c5.8,2.5,11.7,4.2,18,4.5c4.5,0.2,9.1-0.1,13.6-0.9c6.3-1.1,12.5-3.3,18.1-6.6c1.5-0.9,3-1.9,4-3.2c1.3-1.6,1.9-3.7,2.6-5.6
			c1.7-4.7,4.2-9.1,7.4-12.9c1-1.2,2-3.7,3.4-4.3c1.9-0.8,5.3-0.9,7.4-0.8c9.5,0.7,7.9,0.3,17.2-1.4c2.4-0.4,14.6-0.5,16.7-1.7
			c1.5-0.8,2.6-3.5,4.3-4.1c5-1.9,10,1.9,15.7-0.4c2.7-1.1,1.9-5.5,3.7-7.8c2.2-2.8,6.5-3.1,9-5.6c3.2-3.1,3.8-9.2,8.2-9.8
			c1-0.1,2,0.1,3,0c2.7-0.2,4.6-2.5,6.5-4.4c5.1-4.9,12.2-7.4,19.2-7.2"/>
		<path fill="none" stroke="#585858" stroke-miterlimit="10" d="M376.6,4.2c3,0.3,5.9,1,8.7,2.3"/>
	</g>
</g>
<text transform="matrix(0.9621 -0.2727 0.2727 0.9621 21.1668 89.6946)" fill="#585858" font-family="'Verdana-Bold'" font-size="10" letter-spacing="8">EMIGRANT WILDERNESS</text>
<text transform="matrix(1 0 0 1 215.3321 139.6831)"><tspan x="0" y="0" fill="#7BBCEB" font-family="'Verdana-Italic'" font-size="8">Twin Lakes</tspan><tspan x="0" y="9.6" fill="#7BBCEB" font-family="'Verdana-Italic'" font-size="8">(upper)</tspan></text>
<text transform="matrix(1 0 0 1 40.9981 192.3505)"><tspan x="0" y="0" fill="#585858" font-family="'Verdana-Italic'" font-size="8">Twin Lakes</tspan><tspan x="0" y="9.6" fill="#585858" font-family="'Verdana-Italic'" font-size="8">(lower)</tspan></text>
<text transform="matrix(1 0 0 1 209.6782 323.3505)"><tspan x="0" y="0" fill="#585858" font-family="'Verdana-Italic'" font-size="8">Michie</tspan><tspan x="0" y="9.6" fill="#585858" font-family="'Verdana-Italic'" font-size="8">Peak</tspan></text>
<text transform="matrix(1 0 0 1 168.6647 328.3505)"><tspan x="0" y="0" font-family="'Verdana-Italic'" font-size="8"> </tspan><tspan x="2.8" y="0" fill="#585858" font-family="'Verdana-Italic'" font-size="8">10373 ×</tspan></text>
<text transform="matrix(1 0 0 1 37.9981 113.3498)" fill="#585858" font-family="'Verdana-Italic'" font-size="8">× 8991</text>
<text transform="matrix(1 0 0 1 214.9981 253.1083)" fill="#585858" font-family="'Verdana-Italic'" font-size="8">× 9746</text>
<text transform="matrix(1 0 0 1 27.3314 243.4416)" fill="#585858" font-family="'Verdana-Italic'" font-size="8">9457 ×</text>
<path fill="none" d="M35.6,149.5c0.9-0.2,1.9-0.2,2.9-0.2c5.8,0.2,11.6,0.4,17.4,0.6c8.5,0.3,17.1,0.6,25.3,2.9"/>
<text transform="matrix(0.9995 3.260688e-02 -3.260688e-02 0.9995 47.4574 152.2224)"><tspan x="0" y="0" fill="#7D7D7D" font-family="'Verdana-Italic'" font-size="7">8</tspan><tspan x="4.5" y="0" fill="#7D7D7D" font-family="'Verdana-Italic'" font-size="7">8</tspan><tspan x="8.9" y="0" fill="#7D7D7D" font-family="'Verdana-Italic'" font-size="7" rotate="0.2">0</tspan><tspan x="13.3" y="0" fill="#7D7D7D" font-family="'Verdana-Italic'" font-size="7" rotate="1.1">0</tspan></text>
<path fill="none" d="M162.4,169.7c6.8,4,13.5,8.1,20.3,12.1c24.9,14.9,50.4,30.3,68.7,52.8c3.9,4.8,7.6,10,12.7,13.4"/>
<text transform="matrix(0.7463 0.6656 -0.6656 0.7463 232.2406 218.5549)"><tspan x="0" y="0" fill="#7D7D7D" font-family="'Verdana-Italic'" font-size="7">9</tspan><tspan x="4.4" y="0" fill="#7D7D7D" font-family="'Verdana-Italic'" font-size="7" rotate="1.6">0</tspan><tspan x="8.8" y="0.1" fill="#7D7D7D" font-family="'Verdana-Italic'" font-size="7" rotate="3.3">0</tspan><tspan x="13.1" y="0.4" fill="#7D7D7D" font-family="'Verdana-Italic'" font-size="7" rotate="5.1">0</tspan></text>
<path fill="none" d="M226.3,85.8c11.3,2.1,23.1,0.6,34.3-2c11.2-2.7,22.2-6.5,33.4-9.1c13.1-3,26.5-4.3,39.9-5.6"/>
<text transform="matrix(0.9712 -0.2384 0.2384 0.9712 290.0111 78.2634)"><tspan x="0" y="0" fill="#7D7D7D" font-family="'Verdana-Italic'" font-size="7">9</tspan><tspan x="4.4" y="0" fill="#7D7D7D" font-family="'Verdana-Italic'" font-size="7" rotate="1.5">6</tspan><tspan x="8.8" y="0.1" fill="#7D7D7D" font-family="'Verdana-Italic'" font-size="7" rotate="3">0</tspan><tspan x="13.2" y="0.3" fill="#7D7D7D" font-family="'Verdana-Italic'" font-size="7" rotate="4.3">0</tspan></text>
<path fill="none" d="M-23.8,70.6c6.2-1.1,10.7-6,16-9.4c10.5-6.8,23.8-7.3,36.4-7.6c9.9-0.2,19.9-0.4,29.8-0.6
	c1.4,0,2.9-0.1,4.2-0.6"/>
<text transform="matrix(0.9997 -2.606299e-02 2.606299e-02 0.9997 23.267 56.2736)"><tspan x="0" y="0" fill="#7D7D7D" font-family="'Verdana-Italic'" font-size="7">8</tspan><tspan x="4.4" y="0" fill="#7D7D7D" font-family="'Verdana-Italic'" font-size="7" rotate="0.3">4</tspan><tspan x="8.9" y="0" fill="#7D7D7D" font-family="'Verdana-Italic'" font-size="7" rotate="0.3">0</tspan><tspan x="13.3" y="0.1" fill="#7D7D7D" font-family="'Verdana-Italic'" font-size="7" rotate="0.3">0</tspan></text>
<g>
	<g>
		<polyline fill="none" stroke="#7D7D7D" stroke-miterlimit="10" points="85.2,341.6 85.2,348.7 275.4,348.7 275.4,341.7 		"/>
		<line fill="none" stroke="#7D7D7D" stroke-miterlimit="10" x1="180.5" y1="341.4" x2="180.5" y2="348.7"/>
		<line fill="none" stroke="#7D7D7D" stroke-miterlimit="10" x1="161.2" y1="349.2" x2="161.2" y2="343.7"/>
		<line fill="none" stroke="#7D7D7D" stroke-miterlimit="10" x1="142.4" y1="349.2" x2="142.4" y2="343.7"/>
		<line fill="none" stroke="#7D7D7D" stroke-miterlimit="10" x1="123.3" y1="349.2" x2="123.3" y2="343.5"/>
		<line fill="none" stroke="#7D7D7D" stroke-miterlimit="10" x1="104.6" y1="349.2" x2="104.6" y2="343.7"/>
	</g>
	<text transform="matrix(1 0 0 1 83.7834 339.1468)" fill="#7D7D7D" font-family="'Verdana'" font-size="8">0</text>
	<text transform="matrix(1 0 0 1 174.2945 339.1468)" fill="#7D7D7D" font-family="'Verdana'" font-size="8">0.5</text>
	<text transform="matrix(1 0 0 1 258.3414 339.1468)" fill="#7D7D7D" font-family="'Verdana'" font-size="8">1 mi</text>
</g>
</svg>
