<?xml version="1.0" encoding="utf-8"?>
<!-- Generator: Adobe Illustrator 17.1.0, SVG Export Plug-In . SVG Version: 6.00 Build 0)  -->
<!DOCTYPE svg PUBLIC "-//W3C//DTD SVG 1.1//EN" "http://www.w3.org/Graphics/SVG/1.1/DTD/svg11.dtd">
<svg version="1.1" id="Layer_1" xmlns="http://www.w3.org/2000/svg" xmlns:xlink="http://www.w3.org/1999/xlink" x="0px" y="0px"
	 viewBox="0 0 360 360" enable-background="new 0 0 360 360" xml:space="preserve">
<path fill="none" stroke="#E1E1E1" stroke-miterlimit="10" d="M-1.6,71.9c2.7-0.8,3.7-0.2,6.3,0c1.7,0.1,5-0.1,4.2-1.7
	c-1.3-2.5-3.6-3.6-4.4-5.8c-0.4-1.1-0.6-1.6-1-2.7c-0.5-1.1-1.1-1-1.3-2.8c-0.4-3.2,1-3.9,2.3-6.5c1.2-2.3,0.6-5.1,0.7-7.6
	c0.1-2.7,1-3.5,3.1-5.2c2.5-2.1,4.3-0.9,4.7-4.6c0.3-2.9-0.6-5.9-0.2-8.7c0.3-2.1,2.7-4.2,2.1-6.4c-0.8-2.8-3.2-2.1-1.8-5.6
	c0.8-2,2.5-3.3,3.5-5.2c1-2,1.3-4.3,2.2-6.3c1-2.3,2.6-3.3,4.1-5"/>
<path fill="none" stroke="#E1E1E1" stroke-miterlimit="10" d="M46.3-1.4c-2.2,1.8-5.4,4-7.1,6.2c-1.5,2-1.8,4.3-3.5,6.2
	c-2.3,2.7-8.3,6.8-4.7,10.7c0.8,0.9,1.8,0.6,2.5,1.8c0.6,1.1,0.1,3.4-0.1,4.6c-0.4,2.7-2,4-3.7,6c-1.4,1.6-3,3.1-3.7,5.2
	c-0.3,1-0.1,2.3-0.6,3.3c-0.8,1.5-1.9,1.3-2.2,3c-0.6,2.6,1,5.2,3.5,5.2c1.7,0,3.9-2,5.5-0.9c1.3,0.9,1.1,5.3,0.8,6.7
	c-0.4,2.3-1.7,3-1.1,5c0.5,1.5,2.3,3.3,2.5,4.8c0.4,2.4-2.2,3.8-1.7,6.2c0.7,3.1,8.4,6.8,6.4,9.2c-1.8,2.2-5.3,0.1-8,0.5
	c-2.4,0.4-4.7,2.1-6.8,3.2c-2.4,1.3-3.1,2.7-4.5,4.8c-1.6,2.5-2.8,1.5-5.3,3c-0.8,0.5-2.4,2.1-2.6,3c-0.4,1.6,0.4,1.2,0.8,2.5
	c0.7,2.7-0.9,3.5-3.1,5.2c-1,0.8-1.9,0.7-2.3,2.3c-0.3,1.1,0.7,2.2-0.2,3.5c-1.4,2-4.2,1.4-6.3,2.2c-3.6,1.3-4.2,4.1-4.8,7.3"/>
<path fill="none" stroke="#E1E1E1" stroke-miterlimit="10" d="M-5,146.6c3.2-0.5,2.5-2.9,4.5-4.6c2-1.7,4.9,0.3,5.5-2.2
	c0.7-2.6-1.2-2.8,1.2-5.1c1.6-1.5,3.8-2.4,5.1-4.2c0.7-1,0.8-2.2,1.3-3.2c0.8-1.7,3.1-2.1,3.4-4.1c0.7-3.4,1.6-4.2,3.5-5.5
	c2.4-1.6,2.7-4.5,4.6-6.7c0.8-0.9,1.9-1.5,2.5-2.6c0.8-1.4,0.4-3.3,0.4-4.9c0-2.6-0.1-2.8,4-3.6c3.2-0.6,2.1-4.2,5.5-4.7
	c2.3-0.3,4.8-0.1,7-0.6c2.9-0.7,4.5-0.9,7.5-0.5c2.8,0.4,5.4-0.2,8.2,0c1.9,0.2,3.8,0.8,5.4,1.8c2.2,1.3,4.5,3.6,6.5,4.8
	c3,1.7,2.7-1.5,4.2-3.7c1.3-1.9,3.1-1.5,5.3-2.8c5.3-3.1-2.6-5.7-7.8-6.7c-3.9-0.7-8.3-1-10.8-3.8c-1.9-2.1,0.8-4.1-0.8-6.5
	c-1.1-1.7-2.6-3-4.1-4.4c-3.3-3.2-7.5-5.4-9-9.9c-0.5-1.6-0.9-3-1.5-4.6c-1-2.5-1-2.6,0.5-4.8c2-2.8,1.4-3.6-0.8-6.2
	c-2.1-2.5-2.4-4.1-2.5-7.2c-0.1-1.9-1.3-5.4-0.3-7.2c1.9-3.3,8.1-2.6,10.5-5.1c2.8-2.8,3.7-3.9,8-4.5c4.2-0.6,6.8,0.2,10.2-2.7
	c2.6-2.1,2.5-3.9,2.5-7c0-7,5.8-7.8,10.5-7.8c1.1,0,2.5,0.5,3.5,0.3c1.5-0.3,2.5-1.5,4-1.8c2.5-0.4,4.9,0.9,7.3,1.2
	c3.2,0.5,4.4-1.1,7.2-1.9c3-0.9,5,0.7,7.7-0.6c4-1.9,5.1-3.6,9.3-1.5c2.8,1.4,4.6,0.4,7.6,0.3c2.5-0.1,6.1-0.6,8.5,0.3
	c2.5,0.9,5.5,3.7,7.8,5.2c3.2,2.1,6.1,3.7,9.5,5.4c1.8,0.9,3.2,2,5.2,2.3c2.6,0.4,5.2,0.3,7.8,1.3c1.7,0.6,3.3,2,5.1,2.4
	c1.8,0.4,3.8,0.1,5.6,0.5c3.6,0.8,7,2.9,10.6,3.8c3.1,0.8,6.3,0.3,9.2,1.2c2.8,0.8,4.3,2.7,7,3.5c4,1.1,8.5,0.5,12.4,2.1
	c2.8,1.1,4.2,2.7,7.4,2.7c6.9-0.1,14.1-0.3,16-8c0.9-3.5-0.9-4.8-3.3-6.9c-1.9-1.6-2.9-3.9-4.8-5.6c-2.3-2.3-2.5-4.3-4.1-6.9
	c-1.6-2.5-5.3-3.1-7.8-4.1c-1.6-0.6-2.6-1.4-4.4-1.6"/>
<path fill="none" stroke="#E1E1E1" stroke-miterlimit="10" d="M-7.7,189.9c2.2,1.1,1.6,2.8,3.3,4.4c1.4,1.4,3.9,1.6,5.1,3.5
	c1.2,1.9,0.7,3.2,3.2,4.1c4.4,1.6,9.8,1.7,14.4,2.1c2.2,0.2,4.3,0.3,6.5,0.9c2.7,0.6,4.9,2,7.6,2.4c5,0.8,12,0.2,10.7-6.7
	c-0.7-3.6-4.3-4.7-5.8-7.7c-1.4-2.7-2.8-5.6-4.8-8.2c-2.3-3.1-8.3-4.5-12.2-4.3c-5.1,0.3-9.9,1-14.7,0c-2.5-0.5-4.9,0.1-7.3-0.2
	c-2-0.3-3.3-1.5-5.5-1.8"/>
<g>
	<path fill="none" stroke="#E1E1E1" stroke-miterlimit="10" d="M-11.5,285.3c2.8-2.3,2.9-4.7,6.6-4.2c2.6,0.4,4.5,1.5,6.9,2.2
		c3,0.9,4.7-0.2,6.8,2.5c1.4,1.9,2.1,4,3.2,5.8c0.6,0.9,2.2,1.6,3,2.5c0.6,0.6,0.9,1.8,1.5,2.3c1.7,1.7,4.5,1.6,6.1,3.7
		c1.3,1.6,5.6,1.1,6.4,3.2c1.3,3.4-1.2,3.3-3.3,4.1c-2.4,0.9-4,3.7-6.2,4.6c-2.9,1.3-5.3-1.2-8.2-1c-2.4,0.2-3.5,1.5-6,1.8
		c-3,0.3-5.1,0.3-7.8,1.5c-2.2,1-4,0.8-6.2,1.2"/>
	<path fill="none" stroke="#E1E1E1" stroke-miterlimit="10" d="M252.5-0.6c-2.6,0.5-1,4.8,0.3,5.9c1.9,1.6,4.6,0.7,6.2,3.1
		c1.1,1.7,0.8,4,1.4,5.8c0.8,2.4,1.9,3.5,2.1,6.2c0.3,5.5-2.7,9.2-5.7,13.5c-1.6,2.3-2.7,4.8-5.2,6.3c-2.7,1.7-5.2,2.4-8.1,3.1
		c-2.8,0.7-5.1,2.3-8,2.3c-2.9,0-5.8-0.5-8.5-1.1c-1.5-0.4-3.3-0.2-4.7-1c-2-1-3.5-2.2-5.8-2.6c-3.2-0.6-8.9,1-11.7-0.6
		c-1.4-0.8-1.5-2.4-3.3-2.9c-1.5-0.5-3.5,0.4-5.2,0.7c-6,1-10-2.9-15.7-3.8c-2.5-0.4-5.3-0.5-7.8-1.4c-2.5-0.9-4.8-0.9-7.2-1.6
		c-2.3-0.7-3.9-2.7-6.3-3.2c-2.3-0.6-5-1-7.2-1.5c-1.9-0.4-4.3,0.2-6-0.8c-0.6-0.4-1.1-1.8-1.9-2.2c-0.7-0.3-2.4-0.2-3.2-0.3
		c-1.7-0.1-3.9,0.7-4.5-0.8c-0.1-0.3,0.6-0.7,0.5-1c-2.2-3.9-9.7-2.2-14.1-3.3c-4.8-1.3-8.8-3.4-13.7-2.4c-4.7,0.9-10,0.7-14.7-0.1
		c-3.8-0.6-9.3-2.5-12.1,1.7c-1.1,1.6-0.7,5.6-0.7,7.6c0,3.2-1.2,2.6-2.4,4.8c-1.1,2.1,0.6,2.9-1.4,4.9c-1.9,1.9-4.5,2.4-6.2,4.5
		c-0.3,0.4-1.3,1.8-1.5,2.2c-0.8,1.8-0.5,2.2-0.3,4.6c0.3,2.4,0.4,5.9-0.2,8.2c-0.7,2.7-2.7,3.9-0.3,6.6c1.8,2,4,4.4,6,6.3
		c1.8,1.7,3.5,2.8,5.4,4.1c2.3,1.6,2.7,2.6,3.6,5.3c0.7,2.1,1.9,5,3.6,6.7c1.4,1.4,3.1,1.8,4.9,3c3.5,2.5,7.7,3.6,11.1,5.7
		c1.9,1.2,3.5,2.9,4.8,4.8c1.1,1.6,3,3.3,3.6,5.1c0.8,2.2-0.2,4.9-1.3,6.7c-1.8,3-1.3,3.3-0.7,6.8c0.5,2.5,0.3,5.2,0.2,7.8
		c0,2.6,0.7,4.7,1.2,7c0.8,3.4,1.2,5.6,3.6,7.9c1.8,1.8,3.5,3.8,4.9,5.9c1.4,2.2,2.6,4.7,3.7,7.1c1.5,3.3,2.1,4.2,4.8,6.2
		c3.8,2.8,6.4,7,10.1,9.8c1.1,0.9,2.6,3.9,4,4.2c1.5,0.4,2.6-1.7,4-0.7c1.5,1,3.1,2.2,4.1,3.5c0.4,0.6-0.1,7.4-0.5,8.7
		c-0.6,1.9,1.4,3,3,3.6c2,0.7,3.7,0.6,5.5,1.9c1.6,1.1,4.3,1.4,4.8,3.3c0.4,1.6-2.7,2-3.3,3.5c-0.6,1.4,0.1,3.1,0.1,4.6
		c-0.1,2.1-1.1,3.7-1.8,5.6c-1.2,3,0.6,2.1,1.5,4.8c1.1,3.2-2.5,7.4-3,10.5c-0.1,0.7-0.1,1.8,0,2.5c0.3,1.5,0.1,0.6,1,1.9
		c0.7,1.1,2.3,1.2,0,3.6c-2.2,2.4,3.2,1.8,0.2,5c-0.9,1-1.3,3.4-4.3,1c0,0-0.6,0-0.7,0c-3.8,1.8,1.9,10.4-3.5,12.4
		c-1.1,0.4-2.6-0.2-3.8,0c-1.1,0.2-2.4,1-3.4,1.6c-2.5,1.3-3.5,3.9-6.3,3.9c-1.2,0-3.3-0.2-4.2-0.8c-1.8-1.2-1.8-3.4-3.3-5.5
		c-1.3-1.7-3.3-5.2-5.4-5.7c-2.7-0.7-4.2,3.8-5.4,6.2c-1.5,3-1.2,5.3-4.8,6.3c-2.1,0.6-5.8,1.6-7.7,1.3c-2.7-0.4-4.8-2.5-7.6-2.4
		c-6.2,0.2-10.6,0-16.2-3c-2.7-1.5-5.8-2.1-8.5-3.6c-3-1.8-5.3-4.6-8.3-6.6c-5.2-3.3-12.1-3.1-16.9,0.7c-3,2.3-5,5.9-7.9,8.3
		c-2.9,2.4-0.9,8.5-4.7,8.5c-2.5,0-6.1-1-8.5-1.9c-2.6-1-5.6-1.8-7.9-3.1c-2.5-1.3-4.7-1.7-7.6-2.2c-2.6-0.5-4.5-1.8-6.8-2.7
		c-2-0.8-3.5-0.5-5-2.3c-0.7-0.8-0.4-1.4-1.7-2.2c-0.9-0.5-2-0.7-3-1c-2.7-0.9-3.3-2.1-5.2-3.6"/>
	<path fill="#7D7D7D" d="M113,130.3c-0.5,0.1-0.9,0.2-1.4,0.1c-0.5,0-0.9-0.1-1.3-0.3c-0.4-0.2-0.7-0.4-1-0.8
		c-0.3-0.3-0.5-0.7-0.6-1.2c0-0.1-0.1-0.2-0.1-0.3s0-0.2,0-0.3l0.6,0l0,0c0,0.1,0,0.1,0,0.3c0,0.1,0,0.3,0.1,0.4
		c0.1,0.5,0.4,0.9,0.8,1.1c0.4,0.3,0.9,0.4,1.4,0.4c-0.2-0.2-0.3-0.4-0.4-0.6c-0.1-0.2-0.2-0.4-0.2-0.6c0-0.2-0.1-0.4-0.1-0.6
		s0.1-0.4,0.1-0.5c0.1-0.2,0.2-0.3,0.3-0.4c0.1-0.1,0.3-0.2,0.6-0.3c0.5-0.1,1.1-0.1,1.5,0.2c0.5,0.3,0.8,0.7,0.9,1.3
		c0.1,0.5,0.1,0.9-0.2,1.2C113.9,130,113.5,130.2,113,130.3z M112.9,129.7c0.2-0.1,0.4-0.1,0.5-0.2c0.1-0.1,0.2-0.2,0.3-0.3
		c0.1-0.1,0.1-0.2,0.1-0.3c0-0.1,0-0.2,0-0.4c-0.1-0.4-0.3-0.6-0.6-0.8s-0.7-0.2-1.1-0.1c-0.3,0.1-0.5,0.2-0.6,0.4
		c-0.1,0.2-0.1,0.5,0,0.8c0,0.2,0.1,0.3,0.2,0.5c0.1,0.2,0.2,0.3,0.4,0.5c0.1,0,0.2,0,0.4,0C112.6,129.7,112.7,129.7,112.9,129.7z"
		/>
	<path fill="#7D7D7D" d="M114.3,134.6c-0.4,0.1-1,0.2-1.6,0.2c-0.6,0-1.1-0.1-1.5-0.2c-0.3-0.1-0.6-0.3-0.8-0.5
		c-0.2-0.2-0.3-0.5-0.4-0.8c-0.1-0.4-0.1-0.8,0.1-1.1s0.5-0.5,1-0.6c0.4-0.1,0.9-0.2,1.5-0.2s1.2,0.1,1.6,0.2
		c0.3,0.1,0.6,0.3,0.8,0.5c0.2,0.2,0.3,0.5,0.4,0.8c0.1,0.4,0.1,0.8-0.1,1.1S114.8,134.5,114.3,134.6z M114.2,133.9
		c0.3-0.1,0.5-0.2,0.6-0.4c0.1-0.2,0.1-0.4,0.1-0.7c-0.1-0.2-0.2-0.4-0.3-0.5c-0.1-0.1-0.3-0.2-0.6-0.3c-0.3-0.1-0.8-0.1-1.3-0.1
		c-0.6,0-1,0.1-1.4,0.2c-0.3,0.1-0.5,0.2-0.6,0.4c-0.1,0.2-0.1,0.4-0.1,0.7c0.1,0.2,0.2,0.4,0.3,0.5c0.1,0.1,0.3,0.2,0.6,0.3
		c0.3,0.1,0.8,0.1,1.3,0.1S113.8,134,114.2,133.9z"/>
	<path fill="#7D7D7D" d="M116.7,137.8c-0.4,0.3-0.8,0.5-1.4,0.8s-1.1,0.4-1.5,0.4c-0.3,0-0.7-0.1-0.9-0.2c-0.3-0.1-0.5-0.3-0.7-0.6
		c-0.3-0.4-0.4-0.7-0.3-1s0.3-0.6,0.7-1c0.3-0.2,0.8-0.5,1.4-0.8c0.6-0.3,1.1-0.4,1.5-0.4c0.3,0,0.6,0.1,0.9,0.2s0.5,0.3,0.7,0.6
		c0.3,0.4,0.4,0.7,0.3,1C117.3,137.2,117.1,137.5,116.7,137.8z M116.3,137.3c0.2-0.2,0.4-0.4,0.4-0.6c0.1-0.2,0-0.4-0.2-0.6
		c-0.1-0.2-0.3-0.3-0.5-0.4c-0.2-0.1-0.4-0.1-0.7-0.1c-0.3,0-0.7,0.2-1.3,0.4c-0.5,0.2-0.9,0.5-1.2,0.7c-0.2,0.2-0.4,0.4-0.4,0.6
		c-0.1,0.2,0,0.4,0.2,0.6c0.1,0.2,0.3,0.3,0.5,0.4c0.2,0.1,0.4,0.1,0.7,0.1c0.3,0,0.7-0.2,1.3-0.4
		C115.6,137.7,116,137.5,116.3,137.3z"/>
	<path fill="#7D7D7D" d="M119.8,141c-0.3,0.3-0.8,0.6-1.4,0.9c-0.6,0.3-1.1,0.4-1.5,0.5c-0.3,0-0.7,0-0.9-0.1s-0.5-0.3-0.7-0.5
		c-0.3-0.3-0.4-0.7-0.4-1c0-0.3,0.2-0.7,0.6-1c0.3-0.3,0.7-0.5,1.3-0.8s1.1-0.5,1.5-0.5c0.3,0,0.6,0,0.9,0.1
		c0.3,0.1,0.5,0.3,0.7,0.5c0.3,0.3,0.4,0.7,0.4,1C120.4,140.3,120.2,140.6,119.8,141z M119.3,140.4c0.2-0.2,0.4-0.4,0.4-0.6
		s0-0.4-0.2-0.6c-0.1-0.2-0.3-0.3-0.5-0.3c-0.2-0.1-0.4-0.1-0.7,0c-0.3,0.1-0.7,0.2-1.2,0.5c-0.5,0.3-0.9,0.5-1.2,0.8
		c-0.2,0.2-0.4,0.4-0.4,0.6s0,0.4,0.2,0.6c0.1,0.2,0.3,0.3,0.5,0.3c0.2,0.1,0.4,0.1,0.7,0c0.3-0.1,0.7-0.2,1.2-0.5
		C118.7,140.9,119.1,140.7,119.3,140.4z"/>
</g>
<path fill="none" stroke="#E1E1E1" stroke-miterlimit="10" d="M18,273.1c2,2,4.9,0.4,7.2,1.6c2,1,2.1,2.4,4.8,2.2
	c6-0.4,1.5-8.3-1.5-10.3c-3.3-2.1-8.5-1.8-12.2-2.5c-3.9-0.8-8.7-4.9-12.8-3.2c-2.3,0.9-2.2,2.5-0.5,4.2c1.7,1.8,4.2,2,6.6,2.2
	C12.7,267.7,15.7,270.8,18,273.1z"/>
<path fill="none" stroke="#E1E1E1" stroke-miterlimit="10" d="M111,309.1c0.2,0.3,1.5,3.3,3,4c2,0.9,3.9-0.5,5.5-1.7
	c1.4-1,3.8-2.6,3.7-4.5c0-1.9-1.8-2.6-3.2-3.6c-3.5-2.3-6.1-4.4-10.5-2.2c-2.5,1.2-1.3,1.2-0.2,3.3
	C109.8,305.5,110.3,308.3,111,309.1z"/>
<path fill="none" stroke="#E1E1E1" stroke-miterlimit="10" d="M-1.9,353.3c2.4-1.8,4.5-4.8,6.9-6.3c2.5-1.5,7.4-0.9,10.3-0.4
	c3,0.5,6.8,2.7,9.7,2.6c2.8-0.1,0.7-0.8,0.6-2.8c0-2,1.5-2.6,2.2-4.5c0.6-1.7,3.5-8.9,4-5.5c0.1,0.8,0.6,0.1,1.5-0.2
	c1.3-0.4,1.9-1.4,2.8-2.5c1.7-2,2.6-2.5,5.2-2.5c2,0,4.1,0,5.8,0.7c2.8,1.1,3.8,2.1,2.9,4.5c-0.7,2-4.2,0.2-5.2,2.8
	c-0.6,1.8,1,4.6,1.8,6.4c0.8,2.1,2,5.1,4.4,5.1c3.5,0,2.8-3.7,4.5-5.5c2.4-2.5,8.5,7.3,10.5,1.5c0.7-2.1-1.5-5.5-2.5-7.4
	c-2.5-4.7-5.8-8.1-9.3-11.6c-4.5-4.6-4.2-7.9-2-13.8c1.1-2.9,0.7-5.2,4-6c2.3-0.6,4.2-1.7,6.5-3.5c2.4-1.9,2.5-1.2,1.7-3.5
	c-0.7-2-1.1-4.2-1.8-6.2c-0.6-1.7-2.1-3.1-2.6-4.6c-0.6-1.9-1.5-3.5-1-5.6c0.4-1.8,3.7,1.5,5.2,0.4c1.8-1.3-4.1-3.7-5.5-5.9
	c-1.4-2.3-2.3-4.3-3.1-6.8c-1.4-4.5-3.4-7.9-6.9-10.8c-3.1-2.6-0.1-3,3-2.7c3.4,0.4,6.5,2.7,9.7,4c6.5,2.5,10.7-0.9,17-1.9
	c3.8-0.6,6.4,0.6,9.8,1.6c2.9,0.9,6,1.6,8.8,2.8c3.9,1.6,8.1,5.6,11.9,3.8c1.4-0.7-0.1-2.6,1.1-3.5c0.5-0.4,3.2-0.6,3.9-0.4
	c1.2,0.4,1.7,1.7,3.3,2c1.6,0.4,3.1,0,4.7-0.1c3.5-0.2,5,0.4,7.5,2.5c2.7,2.2,6.2,3.6,9.7,2.3c3.1-1.2,6.1-3.1,9-4.8
	c1.8-1,2.4-2.1,3.9-3.1c1.2-0.9,3.2-1,4.5-1.7c2.6-1.2,5-3.8,6.8-6.1c1.3-1.7,2.3-3.7,3.8-5.3c1.6-1.5,3.6-2.2,5.2-3.6
	c1.5-1.3,2.6-3.4,4-5c1.7-2,3.7-3.9,5.2-6c1.1-1.6,2.8-3.8,2.8-5.8c0-1.9-1.4-3-1-4.9c0.4-1.8,2.5-3.3,3.2-5
	c0.7-1.6,0.2-3.5,0.5-5.3c0.5-3,3.7-4.4,7.3-5.8c2.4-0.9,4-4.3,6.5-4.7c2.5-0.4,3.6,0.8,5.2,2.7c2.7,3.2,6.6,7.2,11.1,7.3
	c6.3,0.1,11.1,1.8,17.2-1.3c2.6-1.3,4.2-0.7,6.9-1.5c4.1-1.1,5.9-5.2,7.8-8.5c1.3-2.1,4-5.6,2-8.2c-1.7-2.2-5.5-1.4-7.3-3.6
	c-2.1-2.6-2.5-5.3-5.5-7.3c-2.3-1.5-4.6-1.2-7.1-2.1c-3.1-1.1-6.2-2.7-7.7-5.6c-1.3-2.4-2.8-4.7-4.4-7c-2.2-3.1-2.7-4.8-2.7-8.5
	c0-3.4-1.6-4.5-4.1-6.5c-2.2-1.7-3.8-2.6-6.2-3.6c-1.8-0.8-5.3-2-6.7-3.4c-2.1-1.9-1.7-3.2-5-3.7c-2.8-0.4-4.6,0.4-7.2,0.4
	c-2.3,0-3.5-2-5.2-0.4c-0.7,0.7-0.5,1.9-1.3,2.7c-0.9,0.8-2.1,0.8-3.3,1c-2.8,0.5-4.9,2-7.7,2.5c-3.4,0.6-6.4,1.1-9.8,2
	c-6.2,1.7-15.4,5.7-21.3,1.3c-1.9-1.4-2.8-3.7-4-5.6c-1.2-1.8-5.4-3.4-3.9-5.2c0.8-0.9,0.7-0.7,0.7-1.1c-0.1-4.7-7.8-5.1-10.1-9.2
	c-1.1-2.1-2.9-3.5-2.9-6c0-3.8,2.8,0.4,4.7-1.1c2.1-1.7,2.2-0.4,4.5-1.7c2.4-1.3-2.1-5.2-2.8-8c-0.5-2.2-0.7-4.2-0.9-6.4
	c-0.3-3.1-1.2-4.8-2.2-7.5c-0.9-2.4-0.4-5-1.6-7.3c-2-4-7.1-4.8-10.5-7.4c-3.2-2.5-7-4.1-10.6-6.1c-1.6-0.9-3.1-1.2-4.4-2.5
	c-1.4-1.4-2.3-2.8-4-4c-2.4-1.7-6.2-3.7-7.5-6.2c-1.5-3-2.9-7.3-2.8-10.8c0.2-4.1-2.8-8.6,0-11.9c1.9-2.2,1.5-5.2,2.6-7.5
	c0.9-2.1,3.2-2.3,4.3-3.7c1.4-1.9,0.4-3.6,2.4-5.4c2.9-2.5,3.4-2,6.5-0.7c2.3,0.9,4.8,0.4,7.2,0.3c2.7-0.1,3.8,0.9,6.1,2.2
	c4.2,2.5,10,3.4,15,2.5c2.6-0.4,4.1-0.8,6.8-0.5c2.7,0.3,4.2,1,6.7,2.1c2.3,1,4.2,2.3,6.6,3.4c2.6,1.2,5.5,1.4,8,2.3
	c2.3,0.9,4.1,0.1,6.8,0.2c2.6,0.1,4.9,0.7,7.2,1.2c3,0.7,5.8,0.8,9,0.8c1.2,0,2.3,0,3.5,0c2.2,0,3.3,0.8,5,1.3
	c5.1,1.4,9.9-0.5,15,1.5c1.8,0.7,3.5,1.2,4.8,2.8c0.6,0.8,0.7,1.8,1.5,2.4c1.3,1.1,7.1,4.4,8.2,3.2c2.8-2.9,12.4,1.8,14.2,2
	c2.7,0.3,5.2-0.5,7.8-0.8c2.6-0.2,4.7-0.1,7.2-0.7c6.5-1.7,11.6-4.8,16.3-9.5c2.4-2.3,4.1-3.8,5.8-6.7c1-1.8,1.9-3.8,3-5.6
	c0.7-1,2-1.9,2.6-3c0.8-1.7,0.4-3.9,1.2-5.5c0.8-1.6,2-1.7,2.1-3.7c0.1-1.6-0.5-3.4-0.6-5.1c0-2.7,4-17.8,0.5-17.4"/>
<g>
	<path fill="none" stroke="#E1E1E1" stroke-miterlimit="10" d="M65.8,369.6c1.9-0.9,3.7-1.9,5.4-3.1c2.3-1.7,4.8-3.3,7.2-5
		c2.1-1.5,2.7-2.4,4.5-4.3c2.2-2.2,4.5-4.2,6.6-6.6c1.6-1.8,4.8-4.7,5.5-7c0.6-2.1-0.7-4.7-0.8-7c0-1.4-0.2-3.1,0-4.5
		c0.3-1.8,0.5-2.2,0-3.6c-0.4-1-1.1-2-1.5-3c-1-3-0.3-5.1-2.6-7.2c-2.7-2.6-2.3-4.1-3.4-7.4c-0.8-2.3-1.8-4.6-2.3-7.3
		c-0.2-1-0.4-1.9-0.1-3c0.3-0.9,1.7-1.8,1.5-2.7c-0.4-2.5-6.4-2.7-7.2-5c-0.2-0.6,0.3-2.9,0.3-3.8c-0.1-1.7-0.3-2.4-1.1-3.8
		c-0.8-1.4-2-2.4-1.9-4.2c0-1.6,0.7-1.2,1.5-2.7c1.4-2.8,0.9-3.9,3.7-6.2c3.1-2.6,4.6-0.8,7,2c2.4,2.8,3.5,3,7,3.5
		c2.5,0.3,5.4,1.2,7.7,2.4c2.3,1.3,3.7,1.9,6.3,2.5c1.5,0.4,3,1.2,4.5,1.6c1.2,0.3,2.6-0.1,3.8,0.3c2,0.6,2.4,2.3,4.1,3.2
		c0.6,0.3,1.5-0.2,2.1,0.1c0.6,0.2,1,1,1.5,1.3c1.4,1,1.3,1.1,3,1.4c1.2,0.2,2-0.1,3,0.7c2.6,1.9,4.8-0.6,7.2-2.5
		c2.9-2.3,7-4.1,9.6-6.5c1.5-1.5,2.1-3.5,3.5-5.1c2-2.2,5.1-3.1,7.6-4.6c2.5-1.4,4.4-1.2,7-2.1c2.6-0.9,4.4-2.9,6.5-4.8
		c2-1.8,4.1-3.6,6.1-5.4c3-2.8,0.5-4.2,0.9-7.3c0.4-2.8,3.4-4.2,4.2-7c0.8-2.6,1.4-4.8,2.9-7.2c2.2-3.6,7-6.5,7.4-10.8
		c0-0.3,0-0.7,0-1c-0.2-4.7-4.2-7.5,1.3-10.7c4.4-2.5,6.5,3.7,9.1,6.4c2.2,2.3,10.6,7,14.1,6.5c1.9-0.3,3.2-1.5,5.4-1.5
		c1.8,0,3.7,0.2,5.5,0.1c2.7-0.1,5-1.6,7.4-0.2c1.4,0.8,3.6,0.9,5.1,0.4c8.4-2.8,11.5-5.6,18-12c1.5-1.5,3.4-2.7,4.7-4.4
		c1.1-1.4,1.6-3.3,2.4-4.9c1.9-4.1,3-8.5,5.1-12.7c1.8-3.6,1.2-4-0.5-7.7c-0.5-1.2-0.6-1.7-1.3-2.8c-0.7-1.1-2-2.2-3-3.1
		c-2.1-1.9-4.6-4.4-7.1-5.7c-3-1.6-6-1.7-9.2-2.6c-1.7-0.5-2.9-1.7-4.5-2.3c-1.5-0.5-2.1-0.1-3.5-0.2c-2.4-0.2-5.3,0-7.3-1.6
		c-2.2-1.7-2.6-4.1-4.5-6.2c-2.4-2.7-5.5-5-8.2-7.3c-4.4-3.6-9-7.4-12.7-11.5c-4-4.4-7.6-6.4-13.6-7.5c-2.6-0.5-6.7-2.4-9.5-1.5
		c-2.3,0.7-3.1,2-6,2c-4.7,0-7.4,2.4-12.7,2.3c-2,0-5.6-2.4-7.8-2.7c-2.8-0.5-2.3,0.7-4.5,1.8c-2.1,1.1-5,0.9-7.2,2
		c-2,1-3.6,2-6,1.5c-3.7-0.8-5.2-5.8-6-9c-0.5-1.8-1.3-4.2-2.2-6c-0.8-1.6-2.1-2.8-2.5-4.6c-0.8-4.3,0.4-7.4-1.7-11.2
		c-0.9-1.6-1.6-3.6-2-5.5c-0.6-2.4,0-4.6-0.3-7c-0.2-2-1.4-3.6-1.7-5.7c-0.5-2.6-0.6-4.3-3.3-5.2c-2.1-0.7-4.1-1.2-6-2.6
		c-0.6-0.5-1.2-1.7-1.8-2.2c-1.4-1.1-2.2-1.1-3.9-1.6c-3.2-0.9-2.6-2.5-4.6-4.7c-0.8-0.9-2.1-1.3-3-2.2c-0.8-0.8-1.2-1.7-2-2.5
		c-3.6-3.7-8.7-1.7-12.6-4.9c-1.6-1.4-2-3.3-1.4-5.3c0.6-1.7,2.7-2.6,2.1-4.3c-0.4-1.3-3.2-2.6-4-3.7c-1.3-1.7-1.3-3.5,0-5.4
		c2.1-3,6.8-7.5,10.6-6.7c2.1,0.5,3.4,2,5.2,3c1.8,1,4.3,3.3,6.5,3.3c4.4,0,9.2-2.1,13.5-2.5c4.2-0.5,10.2-5.4,13-2.2
		c0.9,1-2.4,1.9-2.2,3.1c0.3,1.8,3.5-0.2,5.2,0.1c1.3,0.3,2.8,1.4,4.2,1.8c1.9,0.5,3.8,0.8,5.8,0.7c2.3-0.1,3.9-0.4,6,0.7
		c3,1.6,3.1,1,6.5,0c2.2-0.6,6-1.4,8.3-1.1c1.1,0.1,2.3,0.8,3.5,1c1.2,0.2,2.5-0.1,3.7,0.2c1.9,0.5,3.7,0.8,5.8,1.3
		c2.5,0.5,4.7,2.1,6.7,3.6c2.2,1.6,3.2,1.7,5.8,1.9c2.7,0.2,4.2,1.1,5.5,3.5c0.6,1.1,0.6,2.8,1.5,3.8c1.4,1.5,1.6,0.7,3.4,1
		c3.1,0.6,5.3,1.9,8.4,1.8c2.3-0.1,4.4,0.2,6.8,0.2c5.2,0,10,0,14.8-1.6c2.3-0.8,5.6-1.8,8-2.2c2.5-0.4,5.3,0.1,7.8-0.2
		c3.4-0.5,5.8-0.2,8.2-2.7c2-2.1,4.6-3.7,6.5-5.8c2-2.2,2.7-5,4.6-7.4c1.8-2.3,2.6-4.8,3.9-7.4c1.3-2.6,1.1-5.6,2.4-8.1
		c0.6-1.1,1.9-1.9,2.3-3c0.4-1.2-0.4-2.3-0.1-3.5c0.4-1.7,2-2.9,2.8-4.6c1.1-2.3,0.4-5.1,0.7-7.5c0.3-2.4,1.5-4.1,2.8-6.3
		c1.3-2.1,3.3-2.3,3.2-5.3"/>
	<path fill="#7D7D7D" d="M246.1,225.3c0.2,0.5,0.3,0.9,0.3,1.4c0,0.5,0,0.9-0.2,1.3c-0.1,0.4-0.4,0.8-0.7,1.1
		c-0.3,0.3-0.7,0.5-1.1,0.7c-0.1,0-0.2,0.1-0.3,0.1c-0.1,0-0.2,0-0.3,0l-0.1-0.6l0,0c0.1,0,0.2,0,0.3,0c0.1,0,0.2-0.1,0.4-0.1
		c0.5-0.2,0.8-0.5,1-0.9c0.2-0.4,0.3-0.9,0.3-1.4c-0.2,0.2-0.3,0.4-0.5,0.5s-0.4,0.2-0.6,0.3c-0.2,0.1-0.4,0.1-0.6,0.1
		s-0.4,0-0.5-0.1c-0.2-0.1-0.3-0.1-0.4-0.3s-0.2-0.3-0.3-0.5c-0.2-0.5-0.2-1,0-1.6s0.6-0.9,1.1-1.1c0.5-0.2,0.9-0.2,1.3,0
		S245.9,224.8,246.1,225.3z M245.5,225.5c-0.1-0.2-0.2-0.4-0.3-0.5s-0.2-0.2-0.3-0.3c-0.1-0.1-0.2-0.1-0.4-0.1c-0.1,0-0.2,0-0.4,0.1
		c-0.4,0.1-0.6,0.4-0.7,0.7c-0.1,0.3-0.1,0.7,0,1.1c0.1,0.3,0.3,0.4,0.5,0.5c0.2,0.1,0.5,0.1,0.8-0.1c0.2-0.1,0.3-0.2,0.5-0.3
		s0.3-0.3,0.5-0.4c0-0.1,0-0.2-0.1-0.4C245.6,225.8,245.5,225.7,245.5,225.5z"/>
	<path fill="#7D7D7D" d="M250.7,225.2l-0.7,0.4l0.4,1.4l-0.6,0.3l-0.4-1.4l-2.2,1.1l-0.2-0.8l1.4-4l0.6-0.3l0.8,3.1l0.7-0.4
		L250.7,225.2z M249.3,225.4l-0.6-2.3l-1.1,3.2L249.3,225.4z"/>
	<path fill="#7D7D7D" d="M253.3,220.6c0.3,0.4,0.5,0.8,0.7,1.4s0.3,1.1,0.3,1.5c0,0.3-0.1,0.7-0.2,0.9c-0.1,0.3-0.3,0.5-0.6,0.7
		c-0.4,0.3-0.7,0.4-1.1,0.3c-0.3-0.1-0.6-0.3-0.9-0.7c-0.2-0.3-0.5-0.8-0.7-1.4c-0.2-0.6-0.4-1.1-0.3-1.6c0-0.3,0.1-0.6,0.2-0.9
		c0.1-0.3,0.3-0.5,0.6-0.7c0.4-0.3,0.7-0.4,1-0.3C252.7,219.9,253,220.2,253.3,220.6z M252.8,221c-0.2-0.2-0.4-0.4-0.6-0.5
		c-0.2-0.1-0.4,0-0.6,0.2c-0.2,0.1-0.3,0.3-0.4,0.5c-0.1,0.2-0.1,0.4-0.1,0.7c0,0.3,0.2,0.7,0.4,1.3c0.2,0.5,0.4,0.9,0.7,1.2
		c0.2,0.2,0.4,0.4,0.6,0.5c0.2,0.1,0.4,0,0.6-0.2c0.2-0.1,0.3-0.3,0.4-0.5c0.1-0.2,0.1-0.4,0.1-0.7c0-0.3-0.2-0.7-0.4-1.3
		C253.2,221.7,253,221.3,252.8,221z"/>
	<path fill="#7D7D7D" d="M256.6,217.7c0.3,0.3,0.6,0.8,0.9,1.4c0.3,0.6,0.4,1.1,0.5,1.5c0,0.3,0,0.7-0.1,0.9
		c-0.1,0.3-0.3,0.5-0.5,0.7c-0.3,0.3-0.7,0.4-1,0.4c-0.3,0-0.7-0.2-1-0.6c-0.3-0.3-0.6-0.7-0.9-1.3c-0.3-0.6-0.5-1.1-0.5-1.5
		c0-0.3,0-0.6,0.1-0.9c0.1-0.3,0.3-0.5,0.5-0.7c0.3-0.3,0.7-0.4,1-0.4S256.2,217.3,256.6,217.7z M256,218.1
		c-0.2-0.2-0.4-0.4-0.6-0.4c-0.2,0-0.4,0-0.6,0.2c-0.2,0.1-0.3,0.3-0.3,0.5c-0.1,0.2-0.1,0.4,0,0.7c0.1,0.3,0.2,0.7,0.5,1.2
		c0.3,0.5,0.5,0.9,0.8,1.1c0.2,0.2,0.4,0.4,0.6,0.4c0.2,0,0.4,0,0.6-0.2c0.2-0.1,0.3-0.3,0.3-0.5c0.1-0.2,0.1-0.4,0-0.7
		c-0.1-0.3-0.2-0.7-0.5-1.2S256.3,218.4,256,218.1z"/>
</g>
<path fill="none" stroke="#E1E1E1" stroke-miterlimit="10" d="M95.7,362.3c0.9-2.9,4.6-10,6.8-12c1.4-1.3,2.5-2,3.6-3.4
	c0.8-1.1,1.2-2.5,2-3.5c3.4-4.3,8.3-9.1,12.5-12.5c4.2-3.4,9.4-4.9,13.9-7.9c2.3-1.5,4-2.9,6.5-4.1c2.4-1.2,4.2-3.3,6.7-4.3
	c5-1.8,11.1-3,16.3-3.8c6.2-1,10.6-0.3,14.9,4.8c1.8,2.1,2.9,3.9,5.8,4.7c2.7,0.8,5.4,1,8.1,1.8c3.7,1.1,5,0.7,8-1.5
	c2.1-1.5,4-2.8,6.4-3.7c4.6-1.7,11.4-0.1,16.2,0.9c3.1,0.7,5.9-0.1,9,0.2c3.3,0.3,5.9,2.4,9,3.3c2.3,0.6,4.5,1.2,6.7,1.9
	c2,0.6,4.4,0.2,6.6,0.3c2.3,0.1,3.8-0.1,5.8,0.6c2.1,0.8,3.4,1.7,5.7,1.9c2.4,0.2,4.7-0.8,7-0.7c3.7,0.1,1.5,2.3,3.4,4.4
	c1.6,1.9,3.9,1.9,6,4c2.4,2.4,8.5-4.9,11.2-6.5c1.6-0.9,4.3-3.6,5.1-5.2c1.1-2.5,0.2-4.7-1.1-6.8c-1.2-1.9-2.7-3.8-3.7-5.7
	c-1.2-2.3-1.3-5.2-2-7.4c-0.7-2.2-1.9-4.6-2.3-6.8c-0.2-1,0.4-2.7,0.3-3.8c-0.1-1.4-0.6-2.9-0.7-4.2c-0.5-4.8-0.5-11.2,2-15.3
	c1.6-2.6,2.9-4.8,2.5-8c-0.3-2.7-1.5-4.9-1.2-7.9c0.6-6.2,3-11.1,6.6-16.3c1.8-2.5,4.3-4.4,5.6-7.1c1-2.2,2-4.5,3.5-6.7
	c1.6-2.3,2.7-3.7,4-6.1c1.1-2.2,2-4.8,3.3-6.9c1.5-2.3,4.1-3.8,6.2-5.1c2.1-1.3,2.8-3.1,3.7-5.7c0.9-2.6,0.8-4.9,1.3-7.5
	c0.4-2.2,2-4,2.5-6.3c1.2-5.3,0-11.2-0.5-16.5c-0.3-3.3,0.1-5.3,1.2-8.5c1-2.7,0.7-5.2,0.8-8c0-0.8,0.1-1.8,0.2-2.2
	c0.7-1.5,0-3.3-1.7-5.1c-1.9-1.9-0.3-4.6,0-7.2c0.3-3.6-0.5-7.2-0.5-10.8c0-5.8-0.6-10.2,1.9-15.5c1.6-3.5,4.9-9.3,9.6-9.2
	c2.5,0,4.8,2,7.2,2.6c3.1,0.8,4.2-0.3,6.9-1.5c4.3-1.9,8.1,2.4,12.7,2.5c2.1,0,4.7-1.3,6.5-0.8c1.2,0.3,1.4,1.6,2.6,2
	c0.9,0.4,2.7-0.5,3.6,0.1c1.9,1.2,4.3,4,6.6,4.5"/>
<path fill="none" stroke="#E1E1E1" stroke-miterlimit="10" d="M157.6,367.1c3.2-5,4.7-4.7,6.9-10.6c0.6-1.6,1.3-7.1,0.8-8.9
	c-0.7-2.6-6.2,0.7-8.4-1.6c-1.2-1.2-1.2-3.3-2.8-4.1c-1.3-0.5-3.4,0.1-4.8,0c-2.6-0.1-4.3,0.3-7,0.4c-2.8,0.1-5.3-1-8.1-0.2
	c-1.5,0.4-6.5,1.5-8.1,2.8c-1.1,0.8-1.2,1.7-2.6,2.1c-1.1,0.3-2.4-0.1-3.5,0.3c-4.9,1.6-7,8.8-9.1,12.8c-1.4,2.6-3.2,5.1-4.3,7.7"/>
<path fill="none" stroke="#E1E1E1" stroke-miterlimit="10" d="M382.8,134.9c-2.5-2.1-4.8,2.4-6.8,2.9c-1.3,0.4-2-0.8-3.3-0.3
	c-1.3,0.6-1.2,2-1.6,3.2c-1.1,3.3-3,3-5.4,5.1c-2.2,2-3.5,5.6-4.1,8.3c-0.8,3.3,1.5,5.2-0.4,7.9c-0.8,1.1-1.7,1.4-2.1,2.9
	c-0.3,1.4,0.1,3-0.2,4.4c-0.8,3.7-2.8,7-3.3,10.8c-0.4,2.8,0.6,5.5,0.2,8.2c-0.4,3.6-1.4,6.6-0.8,10.3c0.3,1.7,1.3,3.7,1.3,5.3
	c0.1,1.8-1.2,3.3-1.8,5c-0.9,2.4-1.4,5.3-2,7.8c-0.6,2.7,0.6,3.6,0.6,6c-0.1,2.3-1.1,2.1-3,2.4c-3.1,0.6-4.1,4.8-7.2,3.8
	c-1.8-0.6-2.4-1.3-3.6-0.7c-1,0.5-1.6,1.9-2.8,2.5c-1.1,0.6-2.4,0.8-3.5,1.3c-3,1.4-5,3.5-6.6,6.3c-1.6,2.7-2,4.5-2.5,7.6
	c-0.4,2.5-1.7,4-3.4,6.1c-2,2.6-1.6,4.7-2.9,7.5c-1.3,2.8-3.7,4.9-4.8,7.6c-1,2.6-1.1,4.5-2.9,6.8c-1.3,1.7-3.5,2.8-1.3,5
	c0.6,0.6,2,1.1,2.8,1.8c1.2,1.1,2.4,1.7,3.7,2.6c1.9,1.4,4.4,2.2,6.2,3.7c1.3,1.1,2,2.7,3.4,3.8c1,0.8,2.6,1.3,3.5,2.2
	c1.7,1.9,2.2,6-0.1,6.5c-0.3,0.1-2.2-0.5-2.5-0.3c-2.4,1.7-2.6,3-3.6,4.2c-1.8,2.1-3,3.6-5.3,5.3c-4.7,3.4-8.3,7-11.5,11.5
	c-1.4,2-1.7,4-2.2,6.2c-0.6,2.5-1.9,4.9-3.6,6.9c-1.8,2.1-4,2.3-6.6,3.2c-2.3,0.9-3.7,2.9-6.1,3.6c-1.8,0.5-4.8,0.7-6.3-0.8
	c-1.6-1.6-1.2-3.8-3.5-5.1c-1.8-1.1-4-1.4-5.8-2.3c-1.7-0.7-3.5-2.3-5.4-2.6c-2.5-0.3-4.3,1.8-7,1.8c-3.3-0.1-6.1-0.1-9.2,0.9
	c-2.4,0.8-4.5,1.8-7.1,2.3c-2.5,0.5-4.3,0.7-6.4,2.6c-3.6,3.4-7.9,6-11.6,9.4c-1.6,1.5-3.5,2.1-4.5,3.9c-1.2,2.2-0.9,5.7-0.2,8
	c0.7,2.3,1.5,4.8,2.2,7.2"/>
<path fill="none" stroke="#E1E1E1" stroke-miterlimit="10" d="M240.1,370.2c0.1-0.5-0.7-4-0.4-6.1c0.3-1.9,0.8-3.7,1.7-5.3
	c2.1-3.7,3.9-7.6,6.4-11.2c1.2-1.6,2.4-3.2,4.1-4.4c1.1-0.8,4-3.3,5.2-3.6c1.1-0.3,4.9,0.4,6.3,0.8c1.2,0.3,1.4,1.5,2.7,1.5
	c0.9,0,2.1-2.1,3-1.7c6.7,3,5.8,0.9,10.8,1.7c3.3,0.5,2.2,3.5,4.4,5.5c2.3,2,5.5,0.3,7.8-0.7c3-1.3,4.7-1,7.7-0.2
	c1.5,0.4,4.8,1.6,6.2,1.2c2.3-0.6,2.9-5.3,4-7.2c1.2-2.2,2.5-4.3,3.8-6.3c1-1.6,3.2-2.8,4-4.5c0.9-1.8,0.3-3.5,1.6-5.2
	c2.1-2.7,7.6-7,10.9-7.6c2.6-0.5,4.2,1.5,6.5,2.3c2.4,0.8,5.6,0.6,7.8,1.9c5.3,3.4,1.5,12.3,7.2,16.1c1.4,0.9,2.2,0.8,3.3,2.1
	c1,1.2,1.1,2.6,1.7,4c1.1,2.7,3,4.9,3.8,7.7c1.4,4.6-2.3,9.2-4.2,13.4c-0.9,1.9-1.6,4.1-1.8,6.3"/>
<path fill="none" stroke="#E1E1E1" stroke-miterlimit="10" d="M356.3,316.1c2.9,0,5.1-1.5,7.6-2.8c1.4-0.7,4.8-1.6,5.8-2.8
	c2.3-2.7-2.9-2.5-4.5-3.4c-3.1-1.7-2.7-4.2-4.7-6.5c-1.3-1.5-4.5-3-6-3.8c-2.1-1.2-4.8-1.2-7.2-1.6c-5.6-0.8-6.1,2.9-6.5,7.6
	c-0.5,4.9,0.7,7.4,6.2,9.1C349.7,312.8,351.5,316,356.3,316.1z"/>
<path fill="none" stroke="#E1E1E1" stroke-miterlimit="10" d="M233.4,298.6c-1.3,0.9,0.6,2.8,1.6,4c1,1.1,2.8,0,4.2-0.2
	c0.9-0.1,3.4-0.1,4.2-0.6c1.3-0.7,1.7-2.7,1-4c-0.6-1.1-2.3-1.4-3.4-2.2c-1.1-0.8-2.2-1.5-2.8-2.4c-0.5-0.7-0.9-2.8-2.2-3
	c-4.7-0.8-1.3,5-2.3,7.2L233.4,298.6z"/>
<path fill="none" stroke="#E1E1E1" stroke-miterlimit="10" d="M194.8,278.1c-0.8-1.4,1.6-5-0.5-6c-1.6-0.8-3.7,1.1-4.6,2.2
	c-2.1,2.5-5.3,4.3-5.7,7.6c-0.2,2.1,6.2-0.8,8.3-0.1c0.9,0.3,2.4,2,3.4,1.1C196.5,282.2,195,278.6,194.8,278.1z"/>
<path fill="none" stroke="#E1E1E1" stroke-miterlimit="10" d="M212,284.6c2.1,1.5,4.5,1,7.3,0.7c1.1-0.1,2.4-0.1,3.5-0.3
	c0.6-0.1,2.1-0.8,2.5-0.7c1.1,0.2,1.7,1.3,2.7,1.8c0.8,0.4,2.3,0.3,3.2,0.5c2,0.4,4.1,1.1,6.1,1.4c1.9,0.3,4.7,0.8,6.2-0.9
	c0.9-1,0.4-2.1,1-3.2c0.7-1.3,1.7-1.7,3-2.6c1.1-0.7,2.9-1.7,3.6-2.8c0.7-1,0.3-2.7,1-3.6c1.7-2.3,4.8-1.4,4.3-5.4
	c-0.4-3.7-2.9-2.3-0.3-5.9c2.1-3,2.5-6.9,4.9-9.7c1.5-1.8,3.4-2.7,4.3-5.1c0.9-2.3,0.2-4.8,2.4-6.3c2.1-1.4,3.4-1.2,5.1-3.2
	c1.4-1.7,2.3-3.7,3.8-5.2c2-1.9,3.8-1.6,4.2-4.9c0.3-2.6,1.8-5.7,0.2-7.6c-2.3-2.7-6.1,4.4-7.4,7.2c-1.2,2.5-3.1,4.9-5.6,6.5
	c-2.5,1.7-5.1,2.6-7.4,4.6c-1,0.8-2.3,1.6-3.1,2.5c-1.4,1.4-1.7,3.3-3.3,4.5c-1.7,1.4-4.4,1.6-6.5,2.4c-2.5,1-5,2.2-7.6,3.1
	c-5.6,1.8-11.5,1.9-17.2,3.2c-4.5,1.1-9.3,2.4-14.2,1.8c-2.2-0.3-4.9-2.1-7.2-1.2c-1.3,0.5-3.8,3.3-4.6,4.4c-3.1,4.5-2.1,8.3,3.1,9
	c3.3,0.5,3.5,0.3,4.5,3.7c0.7,2.3,1.5,4.8,2.7,7.1c0.6,1.1,1.3,2.7,2.3,3.5C210.8,284.7,211.2,284,212,284.6z"/>
<path fill="none" stroke="#E1E1E1" stroke-miterlimit="10" d="M148.3,112.6c1.6,1.5,5-1.8,4.2-3.4c-0.7-1.4-3.3-1.4-4.1,0.1
	C148,110,147.3,111.6,148.3,112.6z"/>
<g>
	<path fill="none" stroke="#E1E1E1" stroke-miterlimit="10" d="M207.8,112.4c0.7,1.2,1.6,6.3,3.2,7.2c1.7,1.1,3.9,2,5.8,3.1
		c2,1.1,4.3,1.3,6.4,2.2c1,0.4,2.8,0.8,3.6,1.5c0.9,0.8,0.8,2.1,1.6,2.8c1.4,1.3,9.7,3.6,11.7,4.3c2.3,0.8,5.5,0.1,7.7,1.6
		c2.1,1.4,2.8,3.3,5.8,2.9c2.2-0.3,2.1-2,3.5-3.7c1.3-1.6,3.4,1.8,5.5,1.2c3-0.8,3.4-4.1,3-6.5c-0.1-0.9-0.1-1.6,0.5-2.5
		c0.8-1.1,2.1-0.9,3-1.8c0.6-0.6,2.4-0.3,4.1-0.7c1.2-0.2,1.4-2.1,2.6-2c1.2,0.1,2.4,3,3.8,3.1c2.3,0,5.4-4.6,6.5-6.2
		c2.8-4.3,5-9.5,8.2-13.6c2.6-3.2,3.4-7,4.9-10.7c1.3-3.2,5.3-7.6,8.6-6.5c3.4,1.3,4.4-1.9,5.5-3c1.6-1.6,3.2-3,5.2-4
		c2.4-1.2,4.7-2.7,6.5-4.8c1-1.2,1.7-2.3,2.9-3.3c0.5-0.4,2-0.8,2.2-1.4c1.2-2.3-4.4-3.3-6.2-4.4c-1.6-0.9-1.7-2-2.4-3.4
		c-0.8-1.5-1.7-2.5-3-3.7c-1.8-1.6-3-2.2-5.1-3.2c-2.6-1.2-1.9-2.5-3.7-4.3c-1.7-1.7-4.1-1.7-6-3.5c-1.3-1.3-3.3-3.8-5.2-4
		c-2.4-0.3-3.3,2.1-4,4c-1.1,3.1,0,5.9-2.2,8.7c-2,2.6-3.6,4-4.5,7.1c-0.9,3.1-2.2,5.5-5.2,6.9c-1.3,0.6-2.7,1-4,1.6
		c-2,1-1.9,1.8-3,3.3c-1.9,2.4-5,2.9-7.5,4.5c-1.2,0.8-2,2.1-3.2,2.8c-1.5,0.9-3.5,1.1-5.2,1.7c-2.7,1-5.4,2.8-8.5,2.2
		c-1.4-0.3-2.8-1-4.2-1.2c-1.6-0.2-3.3,0.2-5,0c-3.9-0.5-3.2,1.5-8.1,2c-2.1,0.2-3.6-4.3-5.9-2.6c-2.8,2,0.5,6.1-0.6,8.7
		c-1.4,3.3-4.2,1-6.4,1c-2.7,0-4.8,2-7.3,2.9c-2.7,1-5.8,1.8-8.3,0.7c-2.7-1.2-4.5-3.1-6.9-4.6c-1.4-0.9-5.8-1.1-4.2-4.1
		c0.5-1,1.7-0.1,2.3-1.2c1-1.8-0.8-2.1-1.8-3c-0.5-0.4-1.1-0.3-1.5-0.8c-0.4-0.4-0.1-1.1-0.4-1.5c-0.7-0.8-1.5-1.4-2.5-1.8
		c-2.7-1.2-4.8-0.2-7.6,0.9c-2.6,1-3.8,1.7-6.5,1.7c-2.2,0-5.1,1-6.7,0.3c-1.5-0.7-3.5-2.4-5.1-3.4c-0.9-0.6-2-1.1-2.8-1.7
		c-0.5-0.4-1.3-1.8-2-2.1c-4.3-2-8.6,5.4-10.3,8c-2.4,3.7-3.8,7.8-7,11c-1.7,1.7-3.1,2.3-2.6,4.8c0.4,2,2.1,3.1,3.1,4.7
		c2.4,3.7,2.5,5.7,5.3,8.5c3.5,3.6,8.7,0.7,12.6,0.1c2.5-0.4,4.8,0.4,6.9,0.7c3,0.4,5.2-1,7.8-2c2.3-0.9,4.8-2.1,7.1-2.5
		c2.7-0.5,5.3,0.7,8,0.2c4.2-0.7,7-4.6,11.7-3.5C204.6,108.4,206.6,110.3,207.8,112.4z"/>
	<path fill="#7D7D7D" d="M231.5,129.7c-0.2,0.4-0.5,0.8-0.8,1.1c-0.3,0.3-0.7,0.6-1.1,0.7c-0.4,0.2-0.8,0.3-1.2,0.2
		c-0.4,0-0.9-0.1-1.3-0.3c-0.1-0.1-0.2-0.1-0.3-0.2c-0.1-0.1-0.2-0.1-0.2-0.2l0.4-0.5l0,0c0,0,0.1,0.1,0.2,0.2
		c0.1,0.1,0.2,0.1,0.3,0.2c0.4,0.2,0.9,0.3,1.4,0.1c0.5-0.1,0.9-0.4,1.2-0.8c-0.3,0-0.5,0-0.7,0c-0.2,0-0.4-0.1-0.6-0.2
		c-0.2-0.1-0.3-0.2-0.5-0.3s-0.2-0.3-0.3-0.4c-0.1-0.2-0.1-0.3-0.1-0.5c0-0.2,0.1-0.4,0.2-0.6c0.3-0.5,0.6-0.8,1.2-1
		c0.5-0.2,1-0.1,1.6,0.1c0.5,0.2,0.7,0.5,0.8,0.9C231.8,128.8,231.7,129.2,231.5,129.7z M230.9,129.4c0.1-0.2,0.2-0.4,0.2-0.5
		c0-0.2,0-0.3,0-0.4c0-0.1-0.1-0.2-0.2-0.3s-0.2-0.2-0.3-0.2c-0.3-0.2-0.7-0.2-1,0s-0.6,0.4-0.7,0.8c-0.1,0.3-0.1,0.5-0.1,0.7
		c0.1,0.2,0.3,0.4,0.6,0.5c0.2,0.1,0.3,0.1,0.5,0.2c0.2,0,0.4,0.1,0.6,0.1c0.1-0.1,0.1-0.2,0.2-0.3
		C230.7,129.7,230.8,129.6,230.9,129.4z"/>
	<path fill="#7D7D7D" d="M233.9,133.6c-0.2,0.1-0.5,0.2-0.8,0.2c-0.3,0-0.6,0-0.9-0.1c-0.5-0.2-0.8-0.4-1-0.7
		c-0.2-0.3-0.2-0.6-0.1-1c0.1-0.3,0.3-0.6,0.6-0.8s0.6-0.3,1.1-0.3l0,0c-0.2-0.2-0.3-0.4-0.3-0.5c0-0.2,0-0.4,0-0.5
		c0.1-0.4,0.4-0.7,0.9-0.8c0.5-0.2,0.9-0.2,1.5,0c0.4,0.1,0.7,0.4,0.9,0.6c0.2,0.3,0.2,0.6,0.1,0.9c-0.1,0.3-0.3,0.5-0.5,0.7
		c-0.3,0.2-0.6,0.3-1,0.3l0,0c0.2,0.2,0.3,0.4,0.4,0.6s0.1,0.4,0,0.7c-0.1,0.2-0.2,0.4-0.3,0.5C234.3,133.4,234.1,133.5,233.9,133.6
		z M233.5,133.2c0.1-0.1,0.2-0.2,0.3-0.3s0.2-0.2,0.2-0.4c0-0.1,0.1-0.3,0-0.4c0-0.1-0.1-0.3-0.3-0.4c-0.1-0.1-0.2-0.2-0.3-0.2
		s-0.2-0.2-0.4-0.3c-0.3,0-0.6,0.1-0.8,0.3s-0.4,0.4-0.5,0.6c-0.1,0.2-0.1,0.5,0,0.7c0.1,0.2,0.3,0.4,0.6,0.5
		c0.2,0.1,0.4,0.1,0.6,0.1S233.4,133.3,233.5,133.2z M235.2,130.3c0.1-0.2,0-0.4-0.1-0.5c-0.1-0.2-0.3-0.3-0.5-0.4
		c-0.3-0.1-0.6-0.1-0.8,0c-0.3,0.1-0.4,0.3-0.5,0.5c0,0.1,0,0.2,0,0.4c0,0.1,0.1,0.2,0.2,0.4c0.1,0.1,0.2,0.2,0.3,0.2
		c0.1,0.1,0.2,0.2,0.4,0.3c0.3-0.1,0.6-0.2,0.8-0.3S235.1,130.5,235.2,130.3z"/>
	<path fill="#7D7D7D" d="M239.9,132.1c-0.1,0.4-0.4,0.9-0.7,1.4c-0.3,0.5-0.7,0.9-1,1.2c-0.3,0.2-0.6,0.3-0.9,0.4
		c-0.3,0-0.6,0-0.9-0.1c-0.4-0.1-0.7-0.4-0.9-0.7c-0.1-0.3-0.1-0.7,0-1.2c0.1-0.4,0.4-0.9,0.7-1.4c0.3-0.5,0.7-0.9,1-1.2
		c0.3-0.2,0.6-0.3,0.9-0.4c0.3,0,0.6,0,0.9,0.1c0.4,0.1,0.7,0.4,0.9,0.7C240.1,131.2,240.1,131.6,239.9,132.1z M239.3,131.9
		c0.1-0.3,0.1-0.5,0-0.7s-0.2-0.3-0.5-0.4c-0.2-0.1-0.4-0.1-0.6,0s-0.4,0.2-0.6,0.3c-0.2,0.2-0.5,0.6-0.8,1.1
		c-0.3,0.5-0.5,0.9-0.6,1.3c-0.1,0.3-0.1,0.5,0,0.7c0.1,0.2,0.2,0.3,0.5,0.4c0.2,0.1,0.4,0.1,0.6,0s0.4-0.2,0.6-0.3
		c0.2-0.2,0.5-0.6,0.8-1.1C239,132.6,239.2,132.2,239.3,131.9z"/>
	<path fill="#7D7D7D" d="M244.1,132.8c0,0.4-0.2,1-0.4,1.6c-0.2,0.6-0.5,1-0.8,1.3c-0.2,0.3-0.5,0.4-0.8,0.5
		c-0.3,0.1-0.6,0.1-0.9,0.1c-0.5,0-0.8-0.2-1-0.5c-0.2-0.3-0.3-0.7-0.2-1.2c0-0.4,0.2-0.9,0.4-1.5c0.2-0.6,0.5-1.1,0.8-1.4
		c0.2-0.3,0.5-0.4,0.8-0.5c0.3-0.1,0.6-0.1,0.9-0.1c0.5,0,0.8,0.2,1,0.5C244.1,131.9,244.1,132.3,244.1,132.8z M243.4,132.7
		c0-0.3,0-0.5-0.1-0.7c-0.1-0.2-0.3-0.3-0.6-0.3c-0.2,0-0.4,0-0.6,0.1c-0.2,0.1-0.3,0.2-0.5,0.5c-0.2,0.3-0.4,0.7-0.6,1.2
		c-0.2,0.5-0.3,1-0.3,1.3c0,0.3,0,0.5,0.1,0.7c0.1,0.2,0.3,0.3,0.6,0.3c0.2,0,0.4,0,0.6-0.1c0.2-0.1,0.4-0.2,0.5-0.4
		c0.2-0.3,0.4-0.7,0.6-1.2S243.4,133.1,243.4,132.7z"/>
</g>
<path fill="none" stroke="#E1E1E1" stroke-miterlimit="10" d="M380.8,54.6c-1.3-0.1-3,4-4.1,5.2c-1.6,1.8-3.7,3.2-5.9,4.6
	c-2.2,1.3-7.3,6-6.6,8.9c0.6,2.5,3.2,2.5,5.3,3.2c1.5,0.6,2.9,1.9,4.5,2.1c2.1,0.2,3.6-1.9,5.5-1.3c0.6,0.2,1.1,1.3,1.8,1.7
	c1.5,0.8,3.5,0.4,4.8,1.3"/>
<path fill="none" stroke="#E1E1E1" stroke-miterlimit="10" d="M314.5-0.4c-0.8-0.5-2.1,0.4-2.2,1.5c-0.1,0.9,1.1,2.1,1.2,3.2
	c0.1,1.4-1.1,2.1-1.2,3.1c-0.1,0.5-0.3,0.7-0.3,1.2c0,0.3,1,0.8,1,1.4c0.1,1.9-2.6,3.7-3,5.7c-0.7,3.4,1.3,4.9,3.3,7.1
	c3.9,4.6,6.2,9.3,11.7,12.4c2.7,1.5,5.6,1.9,8.2,3.3c2.1,1.1,3.8,3.3,6,4.4c1.3,0.6,2.8,0.4,4.1,0.6c1.7,0.2,1.6,0.5,3,1.2
	c2.4,1.3,4.1,1.4,6.9,1c6.7-1,10.5-4.3,11.3-11.4c0.3-2.7-0.3-5,1.5-7.1c2.1-2.5,2.3-3.8,3.3-6.8c1.7-5.6-2.2-12.4-3.8-18
	c-0.5-1.6-0.3-3.3-1.4-4.6"/>
<g>
	<path fill="none" stroke="#E1E1E1" stroke-miterlimit="10" d="M383.3,30.1c-0.5,0-1.6-0.1-2.5,1c-2.3,2.8-3.5,6.6-6,10
		c-2.6,3.6-3.2,7.7-7,11c-1.1,0.9,0,2-1,3c-10.8,10.3-28.5,8.5-39-1c-2.1-1.9-2-6-4-8s-6.1-1.9-8-4c-6.3-6.8-14.6-13.5-23-15
		c-1-0.2-1.7,0.5-2,1c-3,4.5-0.5,9.9,0,15c0.2,2-1,4.2-1.8,5.9c-0.5,1.1-3.3-0.1-4.2,1.1c-11.7,14.8-29,18-46,19.4
		c-2.3,0.2-4.3-0.2-6.8-0.2c-2.5,0-5-0.1-7.2,0.5c-4,1.1-7.1,5-11.3,5.5c-3.4,0.4-8.4-1.8-11.3-3.4c-3.3-1.9-6.6-5.1-10.2-6.3
		c-1.9-0.6-3.8-0.9-5.5-1.9c-1.1-0.6-1.9-1.6-3.2-2c-1.2-0.4-2.6,0-3.8-0.3c-3.2-1-5.3-4.9-8.2-6.4c-2.2-1.2-5.9-1.3-8.5-1
		c-9.5,1.3-19.6,1.5-29.3,1.2c-2.5-0.1-5.2-1-5.5,2.2c-0.3,3.3,3.1,2.2,4.7,4c1,1.1-1.2,1.9-1.4,3.2c-0.3,1.7,1.1,2.2,1.6,3.7
		c0.7,2.4-0.4,4.2-1.8,5.6c-1.1,1.1-1.3-0.4-1.5,1.7c-0.1,0.7,0.6,2.5,0.8,3.3c0.8,3.1,2.4,3.4,4.5,5.7c2.2,2.4,1.1,4.8,1.3,7.5
		c0.1,2.7,0.4,6.1,1,8.8c0.2,1.1,0.8,1.5,1.2,2.5c0.5,1.2,0.5,2,0.8,3.2c0.6,2.2,2.3,3.9,2.8,6.3c0.2,1-0.2,2.2,0,3.3
		c0.2,0.8,1,2,1.3,2.9c0.7,2.3,1.5,3.9,2.5,6c1,2.3,0.9,3.8,3.6,4.3c3.2,0.6,5.4-0.9,8.2-1.7c2.2-0.7,5.1-1.4,7.5-1
		c1,0.2,1.7,1.2,2.8,1.2c1.3,0,2.8-1.1,4.1-1.6c3.3-1.3,6.2-1.2,9.2-3.1c2.4-1.6,5.5-3.1,8.4-3.1c2.9,0,6.3,3,9.1,4.3
		c1.3,0.6,3.5,1.2,4.7,2.2c1.2,1,1.7,2.9,3.2,3.8c1.7,0.9,3.9,0.4,5.6,1.7c0.6,0.4,0.9,1.4,1.5,1.8c0.8,0.5,1.9,0.1,2.6,0.6
		c2.2,1.4,0.3,7.4,2.6,8.9c2.1,1.4,3.6,2.1,5.4,3.3c2.2,1.4,6.1,3.4,8.5,4.2c1.5,0.5,3.3,0.1,4.8,0.8c1,0.5,1.8,1.5,3,2
		c2.8,1.3,6.3,3.1,9.4,3.9c2.3,0.6,4.8,0.1,6.9,0.9c1.3,0.5,2.7,1.6,4.1,2.2c1.5,0.7,1.8,1.4,3,2c2.4,1.3,5.4,1.3,6.4,4.5
		c0.8,2.3,0.8,4.2,2.1,6.4c2.2,4,5.6,7.4,7.6,11.5c2.2,4.3,1.7,9.4,2.4,14c0.4,2.4,0.5,4.3-1,6.3c-1.2,1.6-3.3,3.7-4.8,5.2
		c-3.7,3.8-7.6,7.2-11.4,10.8c-0.9,0.8-2.1,1.2-2.5,2.5c-0.4,1.2,0.1,2.1-0.5,3.2c-1.1,2-3.6,4.1-5.5,5.5c-3.1,2.3-6.6,3.6-9.9,5.7
		c-2.1,1.4-5.4,2.8-7.8,2.9c-2.9,0.2-5.7-1-8.4-1c-3.1,0-6.1-0.5-9.3-0.2c-4.9,0.4-10.9,3.4-14.7,0.2c-1.5-1.3-4.1-3.5-6-2.7
		c-1.3,0.5-4.3,3.9-5.5,5.1c-1.8,1.9-2.3,5-3,7.5c-0.6,2.1-1.1,4.1-1,6.5c0.2,4.2-2.2,8.7-3.7,12.7c-0.7,1.7-0.4,4-1.3,5.7
		c-1.9,3.3-4,0.5-6.3,1.3c-2.7,1-4.2,2.6-7,2.6c-1.5,0-2.9-0.3-4.5-0.1c-1.8,0.3-3.9,0.2-5.4,1.3c-3.6,2.7-4.2,6-7.2,9.4
		c-1.9,2.2-6.6,7.4-0.1,5.8c4.4-1.1,6.5-3.7,10.9-1.3c3.8,2.1,9.9,4.1,10.1,4.3c1.8,1.6,4.1,2.5,4.3,2.7c1.2,0.8,3.1-0.4,4.4,0.3
		c0.7,0.4,0.8,1.2,1.6,1.7c1.4,0.8,3.3,2.1,5.1,2.8c1,0.4,2.2,0.6,3.1,1.2c1.1,0.8,0.9,2.3,1.8,3c4.5,3.5,6.3-10.8,7.7-11.9
		c0.5-0.3,1.1,0.2,1.7,0.7c0.8,0.6,2.1,3.2,2.8,3.3c2.7,0.7,2.7,2.3,4.3,4.2c2.7,3.2,8.9,3.5,12.2,3.5c2.3,0,4.5-0.4,6.8,0
		c2.1,0.4,4.1,0.9,6.3,1c5,0.2,9-1.1,12.9,2.3c2.8,2.5,5.5,5.9,9.3,6.7c2.8,0.6,3.5,1.8,6.1,0c1.8-1.2,4.7-4,7-3.3
		c1.6,0.5,2.4,3.1,4.7,3.1c3.4,0,3.4-2.8,2.7-5.3c-0.7-2.4-2-4.5-1.4-7.1c0.6-2.6,1.4-4.3,0.5-7.2c-0.7-2.3-2.3-4.1-3.8-5.9
		c-2.2-2.6-1.5-3.7-1.9-7.1c-0.5-3.3-2.1-4.8,0.4-7.3c1-1,2.2-1.5,2.8-2.8c0.6-1.4,0-3.3,0.1-4.7c0.3-3,3-4.3,2.8-7
		c-0.2-2.6-1.8-4.6-1.3-7.5c0.5-3,2-5,2-8.2c0-3.8,0.7-6.1,2.7-9.3c1.8-3.1,4.8-4.6,5.3-8.5c0.4-2.9,0-3.8,2-6.1
		c2.1-2.3,2.6-4.7,3.6-7.4c0.8-2.2,2.5-3.9,3-6.1c0.5-2.3,0.2-4,2.6-5.4c3.4-2.1,4.3-0.1,4.9-4.3c0.3-2.1,1.8-4.4,1.5-6.5
		c-0.1-0.8-1.1-1.8-1.2-2.7c-0.1-1.1,0.5-2.2,0.4-3.3c-0.1-2.5-2-3.5-2.7-5.8c-0.5-1.8-0.6-1.8,0.2-3.7c0.3-0.8,1.3-2.5,1-3.4
		c-0.5-1.3-1.8-2.1-1.7-2.6c0.5-2.8-1.3-4.9-1.5-7.2c-0.2-2.4,0.7-4.9,1.2-7.2c0.4-2,1.1-3.9,1.5-5.8c0.5-2.8,0.2-4-0.2-6.7
		c-0.3-2.2-0.4-4.8-0.2-7.1c0.3-2.6,1.5-4.6,1.3-7.4c-0.3-3.2-0.5-5.3,1-8.4c1.4-2.9,2.4-5.5,3.5-8.4c1.9-5.2,5.1-10.3,8.7-14.4
		c2.3-2.7,4.6-5.2,7.3-7.5c2.7-2.4,5.3-3.2,8.5-4.7c2.7-1.3,5.4-3.9,8.4-4.5c2.5-0.5,5.2-0.5,7.7,0c2.4,0.5,4.3,0.5,6.9,0.5
		c2.6,0,3.8,1.9,6.2,2.5c1.7,0.4,3.3,0.3,4.9,0.7c1.8,0.5,3.4,1.2,5.2,2.1c3.8,1.8,13.8-0.9,12.2,3.2c-0.1,0.4-0.8-0.1-1.2-0.2"/>
</g>
<path fill="#7BBCEB" stroke="#4E9BD7" stroke-miterlimit="10" d="M214.9,197c-0.4,0-0.8,0-1.2-0.1c-0.4-0.1-0.8-0.4-1.1-0.7
	c-1.4-0.9-3.2-1.1-4.7-1.8c-1.5-0.7-2.9-2.4-2.3-3.9c0.2-0.4,0.4-0.7,0.5-1.2c0.1-0.8-0.5-0.8-1.1-1.2c-0.7-0.4-1.7-0.7-2.2-1.2
	c-0.6-0.6-0.8-1.5-1.2-2.2c-0.4-0.7-1.1-1.8-1.9-1.6c-0.5,0.1-0.9,0.4-1.4,0.5c-1,0.2-2.4-0.2-2.8-1.2c-0.5-0.9-0.3-2.5-1.1-3.1
	c-0.8-0.6-2-0.6-2.7-1.3c-0.9-1-0.5-3.7-1.8-3.4c-1.4,0.3-1.2,2.9-2.3,2.1c-1.1-0.8-3.1-1.7-4.4-2c-1.3-0.2-2.9-0.8-3-2.1
	c-0.2-1.3,1.2-2.2,1.7-3.3c0.6-1.2-1-3.1,0-3.9c3.8-3.2,12.1-1.9,17-5.7c0.5-0.4,1.1-0.5,1.7-0.5c1.2,0,2.3,0.8,3.1,1.6
	c2.4,2.2,4.5,4.8,6.3,7.5c0.3,0.4,0.6,0.9,0.7,1.3c0.2,0.6,0,1.3,0.1,2c0.7,3,1.5,4.9,2.6,7.2c0.5,1.1,0.5,2.8,0.9,3.9
	c0.4,1.1,0.7,2.7-0.1,3.6c-0.6,0.7-1.6,0.9-2.4,1.4c-0.8,0.4-1.7,1.1-1.5,1.9c0.4,1.1,2,1.1,3.1,0.8c1.3-0.4,3.1-1.2,4.5-1.3
	c1.4-0.1,3,0.6,3.9,1.6c1.2,1.4,0.4,3.6-0.1,5.3c-0.1,0.3-0.2,0.6-0.4,0.7c-0.2,0.1-0.5,0.2-0.7,0.2
	C218.5,196.9,216.7,196.9,214.9,197z"/>
<path fill="#7BBCEB" stroke="#4E9BD7" stroke-miterlimit="10" d="M196.5,192.5c0.2-0.1,0.4-0.2,0.5-0.4c0.2-0.5-0.4-0.8-0.8-1.1
	c-1-0.6-1.8-1.4-2.8-1.9s-2.3-0.9-3.3-0.3c-0.3,0.2-0.6,0.5-0.7,0.8c-0.1,0.5,0.4,1,0.8,1.3c0.8,0.6,1.6,1.1,2.5,1.4
	C193.9,192.8,195.3,193.1,196.5,192.5z"/>
<path fill="#FFFFFF" stroke="#4E9BD7" stroke-miterlimit="10" d="M187.5,166.9c-0.6-0.3-1.3-0.5-2-0.4s-1.3,0.6-1.3,1.3
	c0,0.6,0.7,0.6,1.2,1c0.1,0.1-0.1,0.4,0,0.6c0.6,0.5,1.5-0.3,2.1-0.8c0.4-0.3,0.7-1,0.4-1.4C187.8,167,187.7,166.9,187.5,166.9z"/>
<path fill="#EAEAEA" stroke="#D6D6D6" stroke-miterlimit="10" d="M73.4,145.8c-0.1,1.2,0.2,2.4,1,3.4c0.1,0.2,0.3,0.4,0.4,0.6
	c0.1,0.2,0.1,0.5,0.1,0.7c0,1.4,1,4.2,2.1,3.3c1-0.8-0.5-2.7,0.2-3.8c0.2-0.3,0.4-0.7,0.7-1c0.2-0.2,0.1-0.6,0-1
	c-0.3-0.8-0.5-1.7-1-2.4c-0.6-0.7-1.5-1.1-2.3-0.9c-0.2,0.1-0.5,0.2-0.7,0.4C73.5,145.2,73.4,145.5,73.4,145.8z"/>
<path fill="#EAEAEA" stroke="#D6D6D6" stroke-miterlimit="10" d="M78.2,159.9c-0.2,1.3,0.5,2.6,1.6,3.4c1.1,0.8,2.5,1.5,2.8,2.8
	c0.4,1.6-1.1,3.3-0.7,4.9c0.2,0.6,0.6,1.2,0.6,1.8c0.1,0.8-0.4,1.6-0.4,2.4c0,1.7,2.1,2.8,2.5,4.5c0.2,1.2-0.6,2.9,0.3,3.8
	c0.4,0.4,3.4,0.7,3.8,1.1c0.7,0.9,2.5,4.2,1.8,5c-0.5,0.6-1.6-0.1-1.9,0.6c-0.3,0.7,1,1.4,0.8,2.2c-0.4,1.9-0.4,4,1.4,5.5
	c0.6,0.5,1.1,1.2,1.5,1.8c1.2,1.9,0.9,4.5,2.1,6.3c1.4,2.1,4.2,2.8,6.7,3.2c1,0.2,2.1,0.4,3.1,0s1.8-1.5,1.4-2.5
	c-0.4-1.2-2.1-1.1-3.3-1.6c-2.9-1.2-6.2-4.2-6.1-5.2c0.2-1.3,2.6-0.5,3.9-0.2c1.4,0.3,2.8,0.6,4.3,0.9c0.4,0.1,0.8,0.2,1.2,0.4
	c0.3,0.2,0.6,0.6,0.9,0.8c1.9,1.8,5.1,0.9,7.4-0.5c0.4-0.3,1-1,1.2-1.5c0.2-0.6-0.4-1.1-0.7-1.6c-1.7-2.6-5.1-6.7-7.1-6
	c-1,0.4,0.5,2.1-0.2,2.9c-1.8,2.2-2.1-3.9-7.5-3.7c-1.4,0-2.7,0.9-4.1,1.1c-1.4,0.2-3.2-1-2.6-2.3c0.3-0.5,0.9-0.8,1.3-1.3
	c1.3-1.3-0.8-3.5-0.1-5.1c0.2-0.4,1.1,0,1.4-0.4c0.5-0.5,0-1.5,0.5-1.9c1-0.7,2,1.3,2.8,2.3c1.9,2.3,4.8,6.2,7.4,4.7
	c2-1.2-0.4-4.7-1.7-6.7c-1.3-2-3-3.7-4.3-5.7c-1.7-2.5-2.8-5.3-4.4-7.8s-4.1-4.7-7-5c-0.5,0-1,0-1.4-0.3c-0.4-0.2-0.7-0.7-1.1-1.1
	c-0.8-0.9-2.2-0.7-3.4-0.9c-0.9-0.2,0.3-1.6,1.1-2c0.8-0.4,1.6-0.8,1.9-1.6c0.1-0.4,0.1-0.9,0-1.3c-0.7-3.2-2.1-6.2-4.1-8.8
	c-1.6-2.1-4-3.5-5.1-6s-0.8-6.2,1.4-7.8c0.6-0.5,1.7-0.7,2.2-1.2c0.7-0.7,0.6-1.9,0.8-2.7c0.9-5.4-0.6-8.4,0.7-12
	c0.5-1.3,3-0.3,4.3-0.9c0.7-0.3,0.9-0.5,1.7-0.8c2.6-0.9,6.4,0.8,7.4,3.4c0.5,1.2-1,1.6-2.1,2.3c-1.1,0.8-2.1,2.3-1.2,3.3
	c1,1.1,3.1,0.1,4.2,1.2c1.1,1.1-0.3,3-0.2,4.6c0.1,0.9,0.7,1.6,1.1,2.4c0.4,0.8,0.9,2.5,0,2.5c-1.3,0-2.8-0.6-3.3,0.6
	c-0.8,1.6,0.7,3.4,2.1,4.6c1.4,1.2,2.9,2.4,3.8,4c1,1.6,1.4,3.6,0.5,5.3c-0.2,0.4-0.4,0.7-0.8,0.9c-0.3,0.2-0.6,0.2-1,0.2
	c-2.4,0.3-4.4-0.7-6.6-1.5c-0.8-0.3-0.8,1.6-0.2,2.2c0.6,0.7,1.5,1.1,1.8,2c0.4,1.2-0.6,2.6,0,3.8c0.9,1.9,4.6,0.7,5.4,2.7
	c0.4,1-0.3,2.2,0.2,3.2c0.6,1.2,2.5,1.4,3.8,1.2c1.3-0.2,3-0.3,3,1c0,1.5-2.6,2.2-2.3,3.7c0.1,0.5,0.5,0.8,0.9,1.1
	c1.5,1.2,2.9,2.4,4.4,3.6c0.5,0.4,1,0.9,1.3,1.5c0.5,1.1,0.1,2.5,0.5,3.7c0.3,1,0.8,1.8,1.5,2.6c0.6,0.7,2,1,2.4,2.3
	c0.3,1,0,2.7,0.2,3.4c0.7,1.8,2.3,2,2.7,3.9c0.4,1.6-1.4,4.3,0.2,4.7c0.8,0.2,1.9-1,2.9-1c1.1,0,1.9,1.3,2.2,2.2
	c0.5,1.7-3.3,4.6-1.8,5.4c2.5,1.2,4.4-5.2,7.2-2.3c0.8,0.8-0.5,3.4,0.6,3.8c0.2,0.1,0.5,0.1,0.7,0.2c0.5,0.3,0.4,1.1,0.3,1.7
	c-0.3,1.4,1.7,3,0.9,4.2c-0.6,0.9-2.3,0-3,0.9s-0.3,2.4,0.8,2.7c0.7,0.2,1.4-0.1,2,0.2c0.3,0.2,0.7,0.4,0.7,0.8
	c0,1.3,1.6,3.5,2.6,4.8c0.7,0.9-1.5,1.5-0.6,1.9c2,0.7,5.9,2.9,3.7,3.9c-1.3,0.7-5,0.3-6.3-0.6c-0.5-0.3-0.6-1-0.9-1.5
	c-3.4-5.1-5,0-7.1-1.6c-0.6-0.4-0.7-1.3-1.4-1.2c-0.7,0.1-1.2,0.9-1,1.5c0.3,1.2,2.8,2.2,1.8,2.9c-1.8,1.3-4.3,1.4-4.8,3.5
	c-0.1,0.6-0.2,1.2-0.3,1.7c-0.4,1.4-1.8,2.4-3.3,2.8s-3,0.3-4.5,0.2c-0.6,0-1.1-0.1-1.6-0.5c-0.3-0.3-0.5-0.7-0.6-1.2
	c-0.6-2-0.6-4.6-2.5-5.4c-0.5-0.2-1-0.2-1.4,0.1c-0.2,0.2-0.3,0.5-0.4,0.8c-0.3,1.3-0.3,2.5,0,3.8c0.1,0.5,0.4,1.1,0.4,1.6
	c-0.1,0.7-0.8,1.1-1.5,1.1c-0.7,0-1.3-0.3-1.9-0.6c-5.7-3.2-9.7-8.7-13.1-14.2c-1.9-3-3.6-6.1-5.4-9.2c-0.6-1-0.6-2-1.1-3.1
	c-1.1-2.5-1.7-5.5-2.2-8.2c-0.4-2.9-0.8-5.1,0.2-7.8c0.5-1.3,1-3.2,0.8-4.5c-0.3-1.5-1.9-2.4-2.2-3.9c-0.2-1,0.1-2,0.4-2.9
	c0.7-2.6,0.5-5.4-0.5-7.9c-0.6-1.6-1-3.3-2.2-4.5c-0.9-1-2.1-1.9-2.4-3.1c-0.2-0.8,0-1.6,0-2.5c0-3.1-2.2-6.1-1.6-9.1
	c0.1-0.3,0.1-0.5,0.4-0.7c0.2-0.1,0.5-0.1,0.7-0.1c1.2,0.2,2.3,1.2,2.7,2.3c0.2,0.5,0.2,1,0.4,1.4c0.5,1,1.9,0.5,2.8,1.1
	C78.3,156.8,78.4,158.5,78.2,159.9z"/>
<path fill="#EAEAEA" stroke="#D6D6D6" stroke-miterlimit="10" d="M39.7,232.9c1.8-0.6,2.6-3.2,1.5-4.7c-0.5-0.7-1.3-1.2-1.5-2.1
	c-0.2-0.7,0-1.5-0.2-2.1c-0.5-1.3-2.3-1.4-3.5-2c-1.7-0.9-2.4-3.1-4.1-4.2c-1.4-0.9-3.2-0.8-4.5-1.7c-0.4-0.3-0.7-0.6-1.1-0.8
	c-1.7-0.9-3.5,0.9-5.3,1.4c-1.2,0.3-2.4,0.1-3.6,0c-3.9-0.5-8.1-0.1-10-1.4c-2.3-1.5-3.2,0.8-1.6,2.8c0.2,0.3,1,0.8,1.3,0.9
	c1.7,0.6,1.6,2.7,1.1,4.7c-0.6,2.2,0,4.1,1,6.1s2.8,3.7,5,4c1.2,0.2,2.8,0.5,4,0.8c1.2,0.3,1.2,1.4,1.7,2.5c0.5,1.1,2.1-0.7,3.2-0.2
	c1.9,0.8,2.3,3.4,4.3,3.7c0.8,0.1,1.6-0.1,2.3-0.2c2.1-0.4,4.4-1.1,5.4-2.9c0.7-1.3,0.8-3,2-3.8C37.9,233.1,38.8,233.2,39.7,232.9z"
	/>
<path fill="#EAEAEA" stroke="#D6D6D6" stroke-miterlimit="10" d="M-3.3,212.2c0.7,0,1.4-0.6,2.1-0.6c0.6,0,1.1,0.4,1.7,0.7
	c0.5,0.3,1.2,0.5,1.7,0.3c0.7-0.4,0.7-1.5,0.4-2.2c-0.3-0.8-0.9-1.6-1.5-2.2c-0.3-0.2-0.6-0.5-0.9-0.7c-0.9-0.6-1.7-1.3-2.6-1.9
	c-0.2-0.2-0.5-0.3-0.8-0.4c-0.3-0.1-0.6,0-0.9,0c-0.7,0-1.4-0.4-2.1-0.5c-1.3-0.1-2.4,1-3.5,1.6c-0.6,0.4-1.3,0.6-1.8,1.1
	s-0.9,1.2-0.8,1.8c0.2,0.6,0.7,1,1.3,1.1c0.6,0.1,1.2-0.1,1.8-0.4c0.8-0.4,1.6-1.1,2.4-0.8c0.7,0.2,1,1,1.3,1.6
	C-4.9,211.6-4.2,212.3-3.3,212.2z"/>
<path fill="#EAEAEA" stroke="#D6D6D6" stroke-miterlimit="10" d="M-11.3,286.6c1.3-1.4,3.8-0.3,5.5-1.2c0.4-0.2,0.7-0.5,1.1-0.5
	c0.6-0.1,1.1,0.2,1.7,0.4c3.8,1.7,8.6,1.2,11.8,3.9c1.4,1.2,2.4,2.9,2.6,4.8c0.1,0.7,0.1,1.3-0.2,2c-0.2,0.4-0.5,0.8-0.6,1.2
	c-0.5,1.2,0.4,2.7-0.1,3.9c-0.3,0.8-1.1,1.3-1.3,2.2c-0.5,2.4,6,4.9,3.8,5.8c-1.5,0.6-3.3-1-4.5,0.1c-0.4,0.4-0.7,0.8-1.2,1.1
	c-0.7,0.4-1.5,0.2-2.2,0.2c-2.2-0.2-4.5,0.5-6.3,1.9c-0.3,0.2-0.6,0.5-0.9,0.5c-0.4,0.1-0.8-0.1-1.2-0.1c-1.1,0-2,1.2-3.1,1.3
	c-0.7,0-1.4-0.4-2.1-0.3c-0.4,0.1-0.8,0.3-1.2,0.5"/>
<path fill="none" stroke="#D6D6D6" stroke-miterlimit="10" d="M2.8,212.2c0.9,0.4,2.7,3.1,2.4,2.6"/>
<path fill="none" stroke="#D6D6D6" stroke-miterlimit="10" d="M-12.3,209.1"/>
<path fill="none" stroke="#4E9BD7" stroke-miterlimit="10" d="M81.6,117.4c-1.3-0.7-2.6-3.9-1.9-5.1s2.4-2.7,2.8-4.1
	c0.3-1.2,0.3-2.1-0.6-3c-2.2-2.2-6.1,0.3-8.5-1.6c-2.7-2.2-1.7-8-3.8-10.8c-1.1-1.5-1.8-3.5-3.6-3.9c-5-1.1-11-1.7-15.5-4.1
	c-0.9-0.5-1.9-0.7-2.8-1c-1.4-0.5-2.7-1-4.1-1.4c-2.2-0.6-4.4-1-6.6-1.4c-0.7-0.1-1.3-0.2-2-0.3c-1.3-0.2-2.6-0.4-3.9-0.7
	c-1.4-0.2-2.8-2.4-4.1-2.8c-4-1.3-7.1-1.6-10.9-3.3c-1.8-0.8-3.7-2.3-5.6-2.9c-3.8-1.2-7.5-2.9-11-4.9c-1.2-0.7-2.3-1.4-3.6-1.8"/>
<path fill="none" stroke="#4E9BD7" stroke-miterlimit="10" d="M128.1,200.4c1.2-1.6,3-3.2,4.2-4.8c0.5-0.6,1.2-2.5,1.6-3.1
	c1.5-2.3,4.8-1.4,7.5-1.5c4.8-0.2,9.7-0.5,14.5-0.2c10.8,0.5,23.8,2.7,34.3,0.3"/>
<path fill="none" stroke="#4E9BD7" stroke-miterlimit="10" d="M197.2,191.8c2.2-0.3,5.8,0.2,7.9,0.1"/>
<path fill="#FFFFFF" stroke="#D6D6D6" stroke-miterlimit="10" d="M109.3,226.2c-0.1,0.5-0.7,0.6-1.1,0.6c-0.7,0-1.5-0.5-1.4-1.1
	c0-0.5,0.5-0.9,1-0.9s0.9,0.2,1.3,0.6C109.2,225.6,109.4,225.9,109.3,226.2z"/>
<path fill="#FFFFFF" stroke="#D6D6D6" stroke-miterlimit="10" d="M121.2,218c-0.5-0.5-1.1-1.1-1.8-1.3s-1.6-0.1-2,0.5
	c-0.3,0.5-0.2,1.3,0.2,1.7c0.3,0.2,0.6,0.4,1,0.4c0.6,0.1,1.1,0.1,1.7,0c0.5,0,1.3-0.3,1.2-0.8C121.5,218.3,121.3,218.1,121.2,218z"
	/>
<path fill="#FFFFFF" stroke="#D6D6D6" stroke-miterlimit="10" d="M112.1,208c0.6,0.9,1.2,1.8,2.1,2.2c1,0.4,2.4-0.3,2.3-1.3
	c-0.1-0.8-0.9-1.2-1.6-1.6c-0.7-0.4-1.4-1.1-1.1-1.9c0.2-0.5,0.8-0.7,1.3-0.8c0.4-0.1,0.8-0.1,1.1,0c0.3,0.1,0.6,0.3,0.9,0.5
	c1,0.8,1.9,1.6,2.9,2.4c0.3,0.2,0.5,0.4,0.7,0.7c0.2,0.3,0.2,0.6,0.3,1c0.1,1.9-1.3,3.6-2.9,4.5c-1.7,0.9-3.6,1.2-5.3,2
	c-0.5,0.2-1,0.4-1.4,0.3c-0.5-0.1-0.2-0.9-0.7-1.1c-0.5-0.3-1.1,0.3-1.5-0.1s-0.7-1-1.3-1.1c-0.5-0.1-1,0.2-1.2,0.6
	c-0.3,0.4-0.4,0.9-0.5,1.4c-0.1,0.5-0.2,1-0.3,1.5c-0.1,0.4-0.2,1,0.1,1.3c0.3,0.4,1,0.4,1.4,0.1c0.5-0.2,0.9-0.6,1.3-0.8
	c0.6-0.2,1.3-0.1,1.7-0.5c0.7-0.6,0.4-1.7,0.1-2.6c-0.5-1.7-0.8-3.4-0.9-5.2c0-0.5,0-1,0.2-1.4c0.2-0.4,0.7-0.8,1.2-0.7
	C111.6,207.1,111.9,207.6,112.1,208z"/>
<path fill="#FFFFFF" stroke="#D6D6D6" stroke-miterlimit="10" d="M89.2,139.6c-0.1-0.4-0.4-0.7-0.6-1c-0.1-0.1-0.2-0.2-0.3-0.3
	c-0.2-0.2-0.5-0.2-0.8-0.1c-0.6,0.1-1.2,0.4-1.5,0.9c-0.4,0.5,0.1,1.2-0.2,1.7c-0.3,0.4-0.9,0.6-0.7,1c0.1,0.5,0.7,0.8,1.2,0.8
	s1-0.2,1.4-0.4c0.5-0.3,0.9-0.6,1.3-1C89.2,140.7,89.3,140.2,89.2,139.6z"/>
<path fill="#FFFFFF" stroke="#D6D6D6" stroke-miterlimit="10" d="M4.7,294c0.1-0.2,0.4-0.4,0.6-0.6c0.4-0.6,0.1-1.5-0.5-1.9
	s-1.3-0.5-2-0.8c-1.1-0.4-2-1.2-3.1-1.5c-0.5-0.2-1-0.2-1.5-0.3c-0.6-0.1-1.3-0.2-1.9-0.3c-1.1-0.2-2.2-0.4-3.3-0.4
	c-1.3,0-3-0.1-3.4,1.1c-0.6,1.7,2.9,0.9,4,2.4c0.4,0.6-0.7,1.2-1.1,1.8c-0.4,0.6-0.6,1.5,0,1.9c0.3,0.2,0.7,0.2,1,0.4
	c0.4,0.3,0.4,0.8,0.5,1.3c0.1,0.9,0.6,2.8,0.7,3.6c0.1,1,0.1,1.9,0.5,2.8c0.4,0.9,0.6,0.7,1.5,0.9c3.2,0.6,5-2.8,6.7-2.2
	c0.6,0.2,1.3,0.7,1.8,0.2c0.1-0.1,0.2-0.3,0.2-0.4c0.2-0.8,0-1.7,0.1-2.6c0.1-0.9,0.7-1.5,1.5-1.8c0.7-0.3-0.3-1.4-1-1.8
	S4.4,294.7,4.7,294z"/>
<path fill="none" stroke="#D6D6D6" stroke-miterlimit="10" d="M13.3,308.7c0.8,0.3,2.5,0.6,3.2,0.2c0.3-0.1,0.5-0.3,0.8-0.4
	c1.2-0.5,2.7,0.4,3.7-0.4c1.1-0.8,0.8-2.8,1.9-3.5c0.6-0.4,1.4-0.2,2.1,0.1c1.1,0.3,2.3,0.7,3.4,1c1.2,0.4,2.5,0.8,3.4,1.5
	c1.3,1.1,2.1,2.7,2.8,4.2c1,2.2,1.9,4.3,2.9,6.5c0.7,1.5,1.4,3.1,2.7,4.2c1.3,1.1,3.2,1.4,4.4,2.5c0.7,0.6,1.2,1.5,1.8,2.2
	c1.9,2.5,4.7,4.4,6.1,7.2"/>
<g>
	<path fill="#7BBCEB" d="M221.6,164.4c-0.1,0.4-0.2,0.8-0.4,1.1s-0.4,0.6-0.6,0.8c-0.2,0.2-0.5,0.3-0.8,0.4s-0.6,0.1-1,0.1
		c-0.6,0-1.1-0.1-1.4-0.4s-0.4-0.7-0.4-1.1c0-0.2,0-0.3,0-0.5s0-0.3,0.1-0.4l0.8-3.5h0.8l-0.8,3.5c0,0.1-0.1,0.3-0.1,0.4
		s0,0.3,0,0.4c0,0.3,0.1,0.6,0.3,0.8s0.5,0.3,0.9,0.3c0.3,0,0.5,0,0.7-0.1s0.4-0.2,0.6-0.4c0.1-0.2,0.3-0.3,0.3-0.5s0.2-0.4,0.2-0.7
		l0.8-3.5h0.8L221.6,164.4z"/>
	<path fill="#7BBCEB" d="M226.9,163.8c0,0.4-0.1,0.8-0.2,1.2s-0.3,0.7-0.5,1c-0.2,0.3-0.5,0.5-0.8,0.6c-0.3,0.2-0.6,0.2-0.9,0.2
		c-0.2,0-0.5,0-0.6-0.1s-0.4-0.1-0.5-0.2l-0.4,1.8h-0.7l1.4-6h0.7l-0.1,0.5c0.2-0.2,0.5-0.3,0.7-0.4s0.5-0.2,0.8-0.2
		c0.4,0,0.7,0.1,1,0.4S226.9,163.3,226.9,163.8z M226.2,163.9c0-0.3-0.1-0.5-0.2-0.7c-0.1-0.2-0.4-0.3-0.6-0.3
		c-0.2,0-0.4,0.1-0.7,0.2s-0.4,0.2-0.6,0.4l-0.6,2.5c0.2,0.1,0.3,0.2,0.5,0.2s0.3,0.1,0.6,0.1c0.3,0,0.5-0.1,0.7-0.2
		s0.4-0.3,0.5-0.5c0.1-0.2,0.3-0.5,0.3-0.7S226.2,164.2,226.2,163.9z"/>
	<path fill="#7BBCEB" d="M231.9,163.8c0,0.4-0.1,0.8-0.2,1.2s-0.3,0.7-0.5,1c-0.2,0.3-0.5,0.5-0.8,0.6c-0.3,0.2-0.6,0.2-0.9,0.2
		c-0.2,0-0.5,0-0.6-0.1s-0.4-0.1-0.5-0.2l-0.4,1.8h-0.7l1.4-6h0.7l-0.1,0.5c0.2-0.2,0.5-0.3,0.7-0.4s0.5-0.2,0.8-0.2
		c0.4,0,0.7,0.1,1,0.4S231.9,163.3,231.9,163.8z M231.2,163.9c0-0.3-0.1-0.5-0.2-0.7c-0.1-0.2-0.4-0.3-0.6-0.3
		c-0.2,0-0.4,0.1-0.7,0.2s-0.4,0.2-0.6,0.4l-0.6,2.5c0.2,0.1,0.3,0.2,0.5,0.2s0.3,0.1,0.6,0.1c0.3,0,0.5-0.1,0.7-0.2
		s0.4-0.3,0.5-0.5c0.1-0.2,0.3-0.5,0.3-0.7S231.2,164.2,231.2,163.9z"/>
	<path fill="#7BBCEB" d="M234.5,166.9c-0.6,0-1.1-0.1-1.4-0.4c-0.3-0.3-0.5-0.7-0.5-1.2c0-0.8,0.3-1.5,0.8-2.1s1.1-0.9,1.9-0.9
		c0.5,0,0.9,0.1,1.1,0.4s0.4,0.6,0.4,1c0,0.1,0,0.2,0,0.4s-0.1,0.4-0.1,0.6h-3.2c0,0.1,0,0.1,0,0.2s0,0.1,0,0.2
		c0,0.4,0.1,0.7,0.3,0.9s0.5,0.3,1,0.3c0.3,0,0.6-0.1,0.9-0.2s0.6-0.2,0.8-0.4h0l-0.2,0.8c-0.1,0-0.2,0.1-0.4,0.1
		c-0.1,0-0.2,0.1-0.4,0.1s-0.3,0.1-0.4,0.1C234.9,166.9,234.7,166.9,234.5,166.9z M236,164.1c0-0.1,0-0.1,0-0.2s0-0.1,0-0.2
		c0-0.3-0.1-0.5-0.2-0.7s-0.4-0.2-0.7-0.2c-0.4,0-0.7,0.1-1,0.3s-0.5,0.5-0.6,0.9H236z"/>
	<path fill="#7BBCEB" d="M240.8,163.2L240.8,163.2c-0.1,0-0.2,0-0.3-0.1s-0.2,0-0.3,0c-0.2,0-0.5,0.1-0.7,0.2
		c-0.2,0.1-0.5,0.2-0.7,0.4l-0.7,3.1h-0.7l1-4.4h0.7l-0.1,0.6c0.3-0.2,0.6-0.4,0.9-0.5s0.5-0.1,0.7-0.1c0.1,0,0.2,0,0.3,0
		s0.1,0,0.2,0L240.8,163.2z"/>
	<path fill="#7BBCEB" d="M220.7,173.6c-0.2,0.2-0.5,0.3-0.8,0.4c-0.3,0.1-0.7,0.1-1.1,0.1H218l-0.5,2.2h-0.8l1.3-5.8h1.5
		c0.4,0,0.6,0,0.9,0.1c0.2,0.1,0.4,0.2,0.6,0.3c0.2,0.1,0.3,0.3,0.4,0.4s0.1,0.4,0.1,0.6c0,0.3-0.1,0.6-0.2,0.9
		S221,173.4,220.7,173.6z M220.7,172.1c0-0.1,0-0.3-0.1-0.4s-0.1-0.2-0.2-0.3c-0.1-0.1-0.2-0.1-0.4-0.2c-0.2,0-0.3-0.1-0.6-0.1h-0.7
		l-0.5,2.4h0.7c0.3,0,0.6,0,0.8-0.1c0.2-0.1,0.4-0.1,0.5-0.3c0.2-0.1,0.3-0.3,0.4-0.5S220.7,172.3,220.7,172.1z"/>
	<path fill="#7BBCEB" d="M223.5,176.5c-0.6,0-1.1-0.1-1.4-0.4c-0.3-0.3-0.5-0.7-0.5-1.2c0-0.8,0.3-1.5,0.8-2.1s1.1-0.9,1.9-0.9
		c0.5,0,0.9,0.1,1.1,0.4s0.4,0.6,0.4,1c0,0.1,0,0.2,0,0.4s-0.1,0.4-0.1,0.6h-3.2c0,0.1,0,0.1,0,0.2s0,0.1,0,0.2
		c0,0.4,0.1,0.7,0.3,0.9s0.5,0.3,1,0.3c0.3,0,0.6-0.1,0.9-0.2s0.6-0.2,0.8-0.4h0l-0.2,0.8c-0.1,0-0.2,0.1-0.4,0.1
		c-0.1,0-0.2,0.1-0.4,0.1s-0.3,0.1-0.4,0.1C223.9,176.5,223.7,176.5,223.5,176.5z M225,173.7c0-0.1,0-0.1,0-0.2s0-0.1,0-0.2
		c0-0.3-0.1-0.5-0.2-0.7s-0.4-0.2-0.7-0.2c-0.4,0-0.7,0.1-1,0.3s-0.5,0.5-0.6,0.9H225z"/>
	<path fill="#7BBCEB" d="M230.6,173c0,0.1,0,0.1,0,0.3s0,0.2,0,0.3l-0.7,2.8h-0.7l0.6-2.5c0-0.1,0.1-0.3,0.1-0.4c0-0.1,0-0.2,0-0.3
		c0-0.2-0.1-0.4-0.2-0.5s-0.3-0.2-0.6-0.2c-0.2,0-0.4,0.1-0.7,0.2c-0.2,0.1-0.5,0.2-0.7,0.4l-0.8,3.3h-0.7l1-4.4h0.7l-0.1,0.5
		c0.3-0.2,0.5-0.3,0.8-0.4c0.2-0.1,0.5-0.2,0.8-0.2c0.4,0,0.7,0.1,0.9,0.3S230.6,172.7,230.6,173z"/>
	<path fill="#7BBCEB" d="M233,172l-1,4.4h-0.7l1-4.4H233z M233.4,170.5l-0.2,0.8h-0.8l0.2-0.8H233.4z"/>
	<path fill="#7BBCEB" d="M237.9,173c0,0.1,0,0.1,0,0.3s0,0.2,0,0.3l-0.7,2.8h-0.7l0.6-2.5c0-0.1,0.1-0.3,0.1-0.4c0-0.1,0-0.2,0-0.3
		c0-0.2-0.1-0.4-0.2-0.5s-0.3-0.2-0.6-0.2c-0.2,0-0.4,0.1-0.7,0.2c-0.2,0.1-0.5,0.2-0.7,0.4l-0.8,3.3h-0.7l1-4.4h0.7l-0.1,0.5
		c0.3-0.2,0.5-0.3,0.8-0.4c0.2-0.1,0.5-0.2,0.8-0.2c0.4,0,0.7,0.1,0.9,0.3S237.9,172.7,237.9,173z"/>
	<path fill="#7BBCEB" d="M239.9,176.5c-0.3,0-0.6,0-0.9-0.1s-0.5-0.2-0.6-0.3l0.2-0.8h0c0.1,0,0.1,0.1,0.2,0.2s0.2,0.1,0.3,0.2
		c0.1,0.1,0.3,0.1,0.4,0.2s0.3,0.1,0.5,0.1c0.4,0,0.7-0.1,0.9-0.2s0.3-0.3,0.3-0.6c0-0.1-0.1-0.2-0.2-0.3s-0.3-0.1-0.5-0.2
		c-0.1,0-0.2,0-0.4-0.1s-0.3-0.1-0.4-0.1c-0.3-0.1-0.5-0.2-0.7-0.4s-0.2-0.4-0.2-0.6c0-0.2,0-0.4,0.1-0.6s0.2-0.3,0.4-0.5
		c0.2-0.1,0.4-0.3,0.6-0.3s0.5-0.1,0.9-0.1c0.3,0,0.5,0,0.8,0.1s0.5,0.1,0.6,0.2l-0.2,0.8h0c0,0-0.1-0.1-0.2-0.1s-0.2-0.1-0.3-0.2
		c-0.1,0-0.2-0.1-0.4-0.1s-0.3-0.1-0.5-0.1c-0.3,0-0.6,0.1-0.8,0.2s-0.3,0.3-0.3,0.6c0,0.1,0,0.2,0.1,0.3s0.2,0.2,0.5,0.2
		c0.1,0,0.3,0.1,0.4,0.1s0.3,0.1,0.4,0.1c0.3,0.1,0.5,0.2,0.7,0.4s0.2,0.4,0.2,0.6c0,0.2,0,0.4-0.1,0.6s-0.2,0.4-0.4,0.5
		c-0.2,0.1-0.4,0.3-0.7,0.3S240.2,176.5,239.9,176.5z"/>
	<path fill="#7BBCEB" d="M247.3,172l-1,4.4h-0.7l0.1-0.5c-0.3,0.2-0.5,0.3-0.8,0.4c-0.2,0.1-0.5,0.2-0.8,0.2c-0.4,0-0.7-0.1-0.9-0.3
		s-0.3-0.5-0.3-0.8c0-0.1,0-0.2,0-0.3s0-0.2,0-0.3l0.7-2.8h0.7l-0.6,2.5c0,0.1,0,0.2-0.1,0.3c0,0.1,0,0.2,0,0.3
		c0,0.2,0.1,0.4,0.2,0.5c0.1,0.1,0.3,0.2,0.6,0.2c0.2,0,0.4-0.1,0.7-0.2s0.5-0.2,0.7-0.4l0.7-3.3H247.3z"/>
	<path fill="#7BBCEB" d="M249.9,170.3l-1.4,6.1h-0.7l1.4-6.1H249.9z"/>
	<path fill="#7BBCEB" d="M252.8,175.9c-0.1,0-0.2,0.1-0.3,0.2s-0.2,0.1-0.4,0.2c-0.1,0.1-0.3,0.1-0.4,0.2s-0.4,0.1-0.6,0.1
		c-0.3,0-0.6-0.1-0.8-0.3s-0.3-0.5-0.3-0.8c0-0.3,0.1-0.6,0.2-0.9s0.4-0.4,0.7-0.6c0.3-0.1,0.6-0.3,1.1-0.3c0.4-0.1,0.9-0.1,1.4-0.1
		c0-0.1,0-0.1,0-0.2c0-0.1,0-0.1,0-0.2c0-0.1,0-0.2-0.1-0.3c0-0.1-0.1-0.1-0.2-0.2s-0.2-0.1-0.3-0.1s-0.3,0-0.4,0
		c-0.2,0-0.5,0-0.8,0.1s-0.5,0.1-0.7,0.2h0l0.1-0.7c0.1,0,0.4-0.1,0.7-0.1s0.6-0.1,0.8-0.1c0.5,0,0.9,0.1,1.2,0.3s0.4,0.4,0.4,0.8
		c0,0.1,0,0.1,0,0.2s0,0.2,0,0.2l-0.7,3h-0.7L252.8,175.9z M253.2,174.1c-0.4,0-0.8,0-1.1,0.1c-0.3,0-0.6,0.1-0.8,0.2
		c-0.2,0.1-0.4,0.2-0.5,0.3s-0.2,0.3-0.2,0.5c0,0.2,0.1,0.3,0.2,0.4c0.1,0.1,0.3,0.1,0.6,0.1c0.2,0,0.5-0.1,0.7-0.2s0.5-0.2,0.7-0.4
		L253.2,174.1z"/>
	<path fill="#7BBCEB" d="M261.3,176.4h-3.7l1.3-5.8h0.8l-1.2,5.2h2.9L261.3,176.4z"/>
	<path fill="#7BBCEB" d="M264.8,175.9c-0.1,0-0.2,0.1-0.3,0.2s-0.2,0.1-0.4,0.2c-0.1,0.1-0.3,0.1-0.4,0.2s-0.4,0.1-0.6,0.1
		c-0.3,0-0.6-0.1-0.8-0.3s-0.3-0.5-0.3-0.8c0-0.3,0.1-0.6,0.2-0.9s0.4-0.4,0.7-0.6c0.3-0.1,0.6-0.3,1.1-0.3c0.4-0.1,0.9-0.1,1.4-0.1
		c0-0.1,0-0.1,0-0.2c0-0.1,0-0.1,0-0.2c0-0.1,0-0.2-0.1-0.3c0-0.1-0.1-0.1-0.2-0.2s-0.2-0.1-0.3-0.1s-0.3,0-0.4,0
		c-0.2,0-0.5,0-0.8,0.1s-0.5,0.1-0.7,0.2h0l0.1-0.7c0.1,0,0.4-0.1,0.7-0.1s0.6-0.1,0.8-0.1c0.5,0,0.9,0.1,1.2,0.3s0.4,0.4,0.4,0.8
		c0,0.1,0,0.1,0,0.2s0,0.2,0,0.2l-0.7,3h-0.7L264.8,175.9z M265.2,174.1c-0.4,0-0.8,0-1.1,0.1c-0.3,0-0.6,0.1-0.8,0.2
		c-0.2,0.1-0.4,0.2-0.5,0.3s-0.2,0.3-0.2,0.5c0,0.2,0.1,0.3,0.2,0.4c0.1,0.1,0.3,0.1,0.6,0.1c0.2,0,0.5-0.1,0.7-0.2s0.5-0.2,0.7-0.4
		L265.2,174.1z"/>
	<path fill="#7BBCEB" d="M270.9,176.4H270l-1.4-1.9l-0.6,0.5l-0.3,1.4h-0.7l1.4-6.1h0.7l-0.9,3.9l2.6-2.2h1l-2.5,2.1L270.9,176.4z"
		/>
	<path fill="#7BBCEB" d="M273.6,176.5c-0.6,0-1.1-0.1-1.4-0.4c-0.3-0.3-0.5-0.7-0.5-1.2c0-0.8,0.3-1.5,0.8-2.1s1.1-0.9,1.9-0.9
		c0.5,0,0.9,0.1,1.1,0.4s0.4,0.6,0.4,1c0,0.1,0,0.2,0,0.4s-0.1,0.4-0.1,0.6h-3.2c0,0.1,0,0.1,0,0.2s0,0.1,0,0.2
		c0,0.4,0.1,0.7,0.3,0.9s0.5,0.3,1,0.3c0.3,0,0.6-0.1,0.9-0.2s0.6-0.2,0.8-0.4h0l-0.2,0.8c-0.1,0-0.2,0.1-0.4,0.1
		c-0.1,0-0.2,0.1-0.4,0.1s-0.3,0.1-0.4,0.1C274,176.5,273.8,176.5,273.6,176.5z M275.1,173.7c0-0.1,0-0.1,0-0.2s0-0.1,0-0.2
		c0-0.3-0.1-0.5-0.2-0.7s-0.4-0.2-0.7-0.2c-0.4,0-0.7,0.1-1,0.3s-0.5,0.5-0.6,0.9H275.1z"/>
</g>
<g>
	<path fill="#585858" d="M249.5,256.5c-0.4,0-0.7,0-1.1-0.1c-0.3-0.1-0.7-0.2-1-0.4l0.2-0.9h0.1c0.2,0.2,0.6,0.4,0.9,0.5
		c0.4,0.1,0.7,0.2,1.1,0.2c0.6,0,1-0.1,1.3-0.3c0.3-0.2,0.4-0.5,0.4-0.8c0-0.2-0.1-0.3-0.2-0.4c-0.1-0.1-0.3-0.2-0.5-0.3
		c-0.2,0-0.4-0.1-0.6-0.1s-0.5-0.1-0.7-0.1c-0.4-0.1-0.7-0.2-0.9-0.5c-0.2-0.2-0.3-0.5-0.3-0.8c0-0.6,0.2-1,0.7-1.4
		c0.5-0.4,1.1-0.6,1.8-0.6c0.4,0,0.8,0,1.1,0.1c0.3,0.1,0.6,0.2,0.9,0.3l-0.2,0.8h-0.1c-0.2-0.2-0.4-0.3-0.8-0.4
		c-0.3-0.1-0.7-0.2-1.1-0.2c-0.5,0-0.9,0.1-1.1,0.3c-0.3,0.2-0.4,0.5-0.4,0.8c0,0.2,0.1,0.3,0.2,0.5c0.1,0.1,0.3,0.2,0.5,0.3
		c0.2,0,0.4,0.1,0.7,0.1c0.3,0.1,0.5,0.1,0.7,0.2c0.4,0.1,0.7,0.3,0.8,0.5c0.2,0.2,0.3,0.5,0.3,0.8c0,0.3-0.1,0.5-0.2,0.8
		c-0.1,0.3-0.3,0.5-0.5,0.6c-0.2,0.2-0.5,0.3-0.8,0.5S249.9,256.5,249.5,256.5z"/>
	<path fill="#585858" d="M254.8,256.5c-0.3,0-0.5,0-0.7-0.1c-0.2-0.1-0.4-0.2-0.6-0.3c-0.2-0.1-0.3-0.3-0.4-0.5
		c-0.1-0.2-0.1-0.4-0.1-0.7c0-0.4,0.1-0.8,0.2-1.1c0.1-0.4,0.3-0.7,0.5-0.9c0.2-0.3,0.5-0.5,0.8-0.6s0.7-0.2,1.1-0.2
		c0.3,0,0.5,0,0.7,0.1s0.4,0.2,0.6,0.2l-0.2,0.8h0c-0.1,0-0.1-0.1-0.2-0.2c-0.1-0.1-0.2-0.1-0.3-0.2c-0.1-0.1-0.2-0.1-0.4-0.1
		c-0.1,0-0.3-0.1-0.4-0.1c-0.5,0-0.9,0.2-1.2,0.6c-0.3,0.4-0.5,0.9-0.5,1.6c0,0.4,0.1,0.6,0.3,0.8s0.5,0.3,0.8,0.3
		c0.2,0,0.3,0,0.5-0.1c0.2,0,0.3-0.1,0.4-0.2c0.1-0.1,0.2-0.1,0.4-0.2s0.2-0.1,0.2-0.2h0l-0.2,0.8c-0.2,0.1-0.5,0.2-0.7,0.3
		S255,256.5,254.8,256.5z"/>
	<path fill="#585858" d="M261.4,253.1c0,0.1,0,0.1,0,0.3c0,0.1,0,0.2,0,0.3l-0.7,2.8H260l0.6-2.5c0-0.1,0.1-0.3,0.1-0.4
		c0-0.1,0-0.2,0-0.3c0-0.2-0.1-0.4-0.2-0.5c-0.1-0.1-0.3-0.2-0.6-0.2c-0.2,0-0.4,0.1-0.7,0.2c-0.2,0.1-0.5,0.2-0.7,0.4l-0.8,3.3H257
		l1.4-6.1h0.7l-0.5,2.2c0.3-0.2,0.5-0.3,0.8-0.5c0.2-0.1,0.5-0.2,0.8-0.2c0.4,0,0.7,0.1,0.9,0.3
		C261.3,252.4,261.4,252.7,261.4,253.1z"/>
	<path fill="#585858" d="M266.4,253.6c0,0.4-0.1,0.8-0.2,1.1s-0.3,0.7-0.5,0.9c-0.2,0.3-0.5,0.5-0.8,0.6c-0.3,0.2-0.6,0.2-1,0.2
		c-0.5,0-0.9-0.1-1.2-0.4c-0.3-0.3-0.4-0.7-0.4-1.2c0-0.4,0.1-0.8,0.2-1.1c0.1-0.4,0.3-0.7,0.5-0.9c0.2-0.3,0.5-0.5,0.8-0.6
		c0.3-0.2,0.7-0.2,1-0.2c0.5,0,0.9,0.1,1.2,0.4C266.3,252.7,266.4,253.1,266.4,253.6z M265.2,255.2c0.1-0.2,0.2-0.4,0.3-0.7
		s0.1-0.6,0.1-0.9c0-0.4-0.1-0.6-0.3-0.8s-0.4-0.3-0.7-0.3c-0.3,0-0.5,0.1-0.7,0.2s-0.4,0.3-0.5,0.5c-0.1,0.2-0.2,0.4-0.3,0.7
		c-0.1,0.3-0.1,0.6-0.1,0.9c0,0.4,0.1,0.6,0.3,0.8c0.2,0.2,0.4,0.3,0.7,0.3c0.2,0,0.5-0.1,0.7-0.2
		C264.9,255.6,265.1,255.5,265.2,255.2z"/>
	<path fill="#585858" d="M270.5,251L270.5,251c-0.1,0-0.2-0.1-0.3-0.1c-0.1,0-0.2,0-0.3,0c-0.3,0-0.6,0.1-0.7,0.2
		c-0.2,0.2-0.3,0.4-0.4,0.8l0,0.1h1.3l-0.1,0.6h-1.3l-0.9,3.8H267l0.9-3.8h-0.5l0.1-0.6h0.5l0-0.1c0.1-0.5,0.3-0.9,0.6-1.2
		s0.7-0.4,1.2-0.4c0.2,0,0.3,0,0.4,0s0.3,0,0.4,0.1L270.5,251z"/>
	<path fill="#585858" d="M271.5,252.1l-1,4.4h-0.7l1-4.4H271.5z M271.9,250.6l-0.2,0.8h-0.8l0.2-0.8H271.9z"/>
	<path fill="#585858" d="M274,256.5c-0.6,0-1.1-0.1-1.4-0.4c-0.3-0.3-0.5-0.7-0.5-1.2c0-0.8,0.3-1.5,0.8-2.1
		c0.5-0.6,1.1-0.9,1.9-0.9c0.5,0,0.9,0.1,1.1,0.4s0.4,0.6,0.4,1c0,0.1,0,0.2,0,0.4c0,0.2-0.1,0.4-0.1,0.6h-3.2c0,0.1,0,0.2,0,0.2
		c0,0.1,0,0.1,0,0.2c0,0.4,0.1,0.7,0.3,0.9c0.2,0.2,0.5,0.3,1,0.3c0.3,0,0.6-0.1,0.9-0.2c0.3-0.1,0.6-0.2,0.8-0.4h0l-0.2,0.8
		c-0.1,0-0.2,0.1-0.4,0.1c-0.1,0-0.2,0.1-0.4,0.1s-0.3,0.1-0.4,0.1C274.4,256.5,274.2,256.5,274,256.5z M275.5,253.8
		c0-0.1,0-0.1,0-0.2c0-0.1,0-0.1,0-0.2c0-0.3-0.1-0.5-0.2-0.7s-0.4-0.2-0.7-0.2c-0.4,0-0.7,0.1-1,0.3c-0.3,0.2-0.5,0.5-0.6,0.9
		H275.5z"/>
	<path fill="#585858" d="M278.9,250.3l-1.4,6.1h-0.7l1.4-6.1H278.9z"/>
	<path fill="#585858" d="M283.9,250.3l-1.4,6.1h-0.7l0.1-0.5c-0.3,0.2-0.6,0.4-0.8,0.5c-0.2,0.1-0.4,0.1-0.7,0.1
		c-0.4,0-0.7-0.1-1-0.4c-0.2-0.3-0.4-0.6-0.4-1.1c0-0.4,0.1-0.8,0.2-1.2c0.1-0.4,0.3-0.7,0.5-1c0.2-0.3,0.5-0.5,0.8-0.7
		c0.3-0.2,0.6-0.2,1-0.2c0.2,0,0.4,0,0.6,0.1c0.2,0,0.4,0.1,0.5,0.2l0.4-1.9H283.9z M282.6,252.8c-0.2-0.1-0.3-0.2-0.5-0.2
		s-0.3-0.1-0.5-0.1c-0.3,0-0.5,0.1-0.7,0.2c-0.2,0.1-0.4,0.3-0.5,0.5c-0.1,0.2-0.2,0.5-0.3,0.7s-0.1,0.6-0.1,0.8
		c0,0.3,0.1,0.6,0.2,0.7s0.4,0.3,0.7,0.3c0.2,0,0.4-0.1,0.7-0.2c0.2-0.1,0.4-0.2,0.6-0.4L282.6,252.8z"/>
	<path fill="#585858" d="M251.5,263.2c-0.2,0.2-0.5,0.3-0.8,0.4c-0.3,0.1-0.7,0.1-1.1,0.1h-0.8l-0.5,2.2h-0.8l1.3-5.8h1.5
		c0.4,0,0.6,0,0.9,0.1c0.2,0.1,0.4,0.2,0.6,0.3c0.2,0.1,0.3,0.3,0.4,0.4s0.1,0.4,0.1,0.6c0,0.3-0.1,0.6-0.2,0.9
		S251.7,263,251.5,263.2z M251.4,261.7c0-0.1,0-0.3-0.1-0.4c0-0.1-0.1-0.2-0.2-0.3c-0.1-0.1-0.2-0.1-0.4-0.2c-0.2,0-0.3-0.1-0.6-0.1
		h-0.7l-0.5,2.4h0.7c0.3,0,0.6,0,0.8-0.1c0.2-0.1,0.4-0.1,0.5-0.3c0.2-0.1,0.3-0.3,0.4-0.5C251.4,262.2,251.4,262,251.4,261.7z"/>
	<path fill="#585858" d="M254.3,266.1c-0.6,0-1.1-0.1-1.4-0.4c-0.3-0.3-0.5-0.7-0.5-1.2c0-0.8,0.3-1.5,0.8-2.1
		c0.5-0.6,1.1-0.9,1.9-0.9c0.5,0,0.9,0.1,1.1,0.4s0.4,0.6,0.4,1c0,0.1,0,0.2,0,0.4c0,0.2-0.1,0.4-0.1,0.6h-3.2c0,0.1,0,0.1,0,0.2
		c0,0.1,0,0.1,0,0.2c0,0.4,0.1,0.7,0.3,0.9c0.2,0.2,0.5,0.3,1,0.3c0.3,0,0.6-0.1,0.9-0.2c0.3-0.1,0.6-0.2,0.8-0.4h0l-0.2,0.8
		c-0.1,0-0.2,0.1-0.4,0.1c-0.1,0-0.2,0.1-0.4,0.1s-0.3,0.1-0.4,0.1C254.6,266.1,254.5,266.1,254.3,266.1z M255.8,263.4
		c0-0.1,0-0.1,0-0.2c0-0.1,0-0.1,0-0.2c0-0.3-0.1-0.5-0.2-0.7s-0.4-0.2-0.7-0.2c-0.4,0-0.7,0.1-1,0.3c-0.3,0.2-0.5,0.5-0.6,0.9
		H255.8z"/>
	<path fill="#585858" d="M259.8,265.6c-0.1,0-0.2,0.1-0.3,0.2c-0.1,0.1-0.2,0.1-0.4,0.2c-0.1,0.1-0.3,0.1-0.4,0.2
		c-0.2,0-0.4,0.1-0.6,0.1c-0.3,0-0.6-0.1-0.8-0.3c-0.2-0.2-0.3-0.5-0.3-0.8c0-0.3,0.1-0.6,0.2-0.9s0.4-0.4,0.7-0.6
		c0.3-0.1,0.6-0.3,1.1-0.3c0.4-0.1,0.9-0.1,1.4-0.1c0-0.1,0-0.1,0-0.2c0-0.1,0-0.1,0-0.2c0-0.1,0-0.2-0.1-0.3s-0.1-0.1-0.2-0.2
		s-0.2-0.1-0.3-0.1c-0.1,0-0.3,0-0.4,0c-0.2,0-0.5,0-0.8,0.1c-0.3,0.1-0.5,0.1-0.7,0.2h0l0.1-0.7c0.1,0,0.4-0.1,0.7-0.1
		c0.3,0,0.6-0.1,0.8-0.1c0.5,0,0.9,0.1,1.2,0.3c0.3,0.2,0.4,0.4,0.4,0.8c0,0.1,0,0.1,0,0.2c0,0.1,0,0.2,0,0.2l-0.7,3h-0.7
		L259.8,265.6z M260.2,263.7c-0.4,0-0.8,0-1.1,0.1c-0.3,0-0.6,0.1-0.8,0.2c-0.2,0.1-0.4,0.2-0.5,0.3c-0.1,0.1-0.2,0.3-0.2,0.5
		c0,0.2,0.1,0.3,0.2,0.4c0.1,0.1,0.3,0.1,0.6,0.1c0.2,0,0.5-0.1,0.7-0.2s0.5-0.2,0.7-0.4L260.2,263.7z"/>
	<path fill="#585858" d="M265.8,266h-0.9l-1.4-1.9l-0.6,0.5l-0.3,1.4h-0.7l1.4-6.1h0.7l-0.9,3.9l2.6-2.2h1l-2.5,2.1L265.8,266z"/>
</g>
<g>
	<path fill="#585858" d="M49.7,227.3c-0.3,0.2-0.5,0.3-0.8,0.4c-0.3,0.1-0.6,0.1-1,0.1h-2.1L47,222h1.7c0.4,0,0.7,0,0.9,0
		c0.2,0,0.4,0.1,0.6,0.2c0.1,0.1,0.3,0.2,0.3,0.3s0.1,0.3,0.1,0.5c0,0.3-0.1,0.6-0.3,0.9c-0.2,0.3-0.5,0.5-0.8,0.6v0
		c0.3,0.1,0.6,0.2,0.7,0.4s0.2,0.4,0.2,0.7c0,0.3-0.1,0.6-0.2,0.9C50.1,226.9,49.9,227.1,49.7,227.3z M49.7,225.7
		c0-0.1,0-0.3-0.1-0.4s-0.1-0.2-0.3-0.3c-0.1-0.1-0.2-0.1-0.4-0.1c-0.2,0-0.4,0-0.7,0h-1.2l-0.5,2.2h1.1c0.3,0,0.6,0,0.8-0.1
		c0.2,0,0.4-0.1,0.6-0.2c0.2-0.1,0.4-0.3,0.5-0.5S49.7,225.9,49.7,225.7z M49.8,223.2c0-0.1,0-0.2-0.1-0.3s-0.1-0.1-0.2-0.2
		c-0.1-0.1-0.2-0.1-0.4-0.1s-0.4,0-0.6,0h-0.9l-0.4,1.7h1c0.2,0,0.4,0,0.6,0s0.3-0.1,0.4-0.2c0.2-0.1,0.3-0.2,0.4-0.4
		S49.8,223.4,49.8,223.2z"/>
	<path fill="#585858" d="M53.2,227.9c-0.6,0-1.1-0.1-1.4-0.4c-0.3-0.3-0.5-0.7-0.5-1.2c0-0.8,0.3-1.5,0.8-2.1s1.1-0.9,1.9-0.9
		c0.5,0,0.9,0.1,1.1,0.4s0.4,0.6,0.4,1c0,0.1,0,0.2,0,0.4s-0.1,0.4-0.1,0.6h-3.2c0,0.1,0,0.1,0,0.2s0,0.1,0,0.2
		c0,0.4,0.1,0.7,0.3,0.9s0.5,0.3,1,0.3c0.3,0,0.6-0.1,0.9-0.2s0.6-0.2,0.8-0.4h0l-0.2,0.8c-0.1,0-0.2,0.1-0.4,0.1
		c-0.1,0-0.2,0.1-0.4,0.1s-0.3,0.1-0.4,0.1C53.5,227.9,53.4,227.9,53.2,227.9z M54.7,225.1c0-0.1,0-0.1,0-0.2s0-0.1,0-0.2
		c0-0.3-0.1-0.5-0.2-0.7s-0.4-0.2-0.7-0.2c-0.4,0-0.7,0.1-1,0.3s-0.5,0.5-0.6,0.9H54.7z"/>
	<path fill="#585858" d="M58.7,227.3c-0.1,0-0.2,0.1-0.3,0.2s-0.2,0.1-0.4,0.2c-0.1,0.1-0.3,0.1-0.4,0.2s-0.4,0.1-0.6,0.1
		c-0.3,0-0.6-0.1-0.8-0.3s-0.3-0.5-0.3-0.8c0-0.3,0.1-0.6,0.2-0.9s0.4-0.4,0.7-0.6c0.3-0.1,0.6-0.3,1.1-0.3c0.4-0.1,0.9-0.1,1.4-0.1
		c0-0.1,0-0.1,0-0.2c0-0.1,0-0.1,0-0.2c0-0.1,0-0.2-0.1-0.3s-0.1-0.1-0.2-0.2s-0.2-0.1-0.3-0.1s-0.3,0-0.4,0c-0.2,0-0.5,0-0.8,0.1
		s-0.5,0.1-0.7,0.2h0l0.1-0.7c0.1,0,0.4-0.1,0.7-0.1s0.6-0.1,0.8-0.1c0.5,0,0.9,0.1,1.2,0.3s0.4,0.4,0.4,0.8c0,0.1,0,0.1,0,0.2
		s0,0.2,0,0.2l-0.7,3h-0.7L58.7,227.3z M59.1,225.5c-0.4,0-0.8,0-1.1,0.1c-0.3,0-0.6,0.1-0.8,0.2c-0.2,0.1-0.4,0.2-0.5,0.3
		s-0.2,0.3-0.2,0.5c0,0.2,0.1,0.3,0.2,0.4c0.1,0.1,0.3,0.1,0.6,0.1c0.2,0,0.5-0.1,0.7-0.2s0.5-0.2,0.7-0.4L59.1,225.5z"/>
	<path fill="#585858" d="M64.2,224.2L64.2,224.2c-0.1,0-0.2,0-0.3-0.1s-0.2,0-0.3,0c-0.2,0-0.5,0.1-0.7,0.2
		c-0.2,0.1-0.5,0.2-0.7,0.4l-0.7,3.1h-0.7l1-4.4h0.7l-0.1,0.6c0.3-0.2,0.6-0.4,0.9-0.5s0.5-0.1,0.7-0.1c0.1,0,0.2,0,0.3,0
		s0.1,0,0.2,0L64.2,224.2z"/>
	<path fill="#585858" d="M49.4,237.4h-3.7l1.3-5.8h0.8l-1.2,5.2h2.9L49.4,237.4z"/>
	<path fill="#585858" d="M52.9,236.9c-0.1,0-0.2,0.1-0.3,0.2s-0.2,0.1-0.4,0.2c-0.1,0.1-0.3,0.1-0.4,0.2s-0.4,0.1-0.6,0.1
		c-0.3,0-0.6-0.1-0.8-0.3s-0.3-0.5-0.3-0.8c0-0.3,0.1-0.6,0.2-0.9s0.4-0.4,0.7-0.6c0.3-0.1,0.6-0.3,1.1-0.3c0.4-0.1,0.9-0.1,1.4-0.1
		c0-0.1,0-0.1,0-0.2c0-0.1,0-0.1,0-0.2c0-0.1,0-0.2-0.1-0.3s-0.1-0.1-0.2-0.2s-0.2-0.1-0.3-0.1s-0.3,0-0.4,0c-0.2,0-0.5,0-0.8,0.1
		s-0.5,0.1-0.7,0.2h0l0.1-0.7c0.1,0,0.4-0.1,0.7-0.1s0.6-0.1,0.8-0.1c0.5,0,0.9,0.1,1.2,0.3s0.4,0.4,0.4,0.8c0,0.1,0,0.1,0,0.2
		s0,0.2,0,0.2l-0.7,3h-0.7L52.9,236.9z M53.3,235.1c-0.4,0-0.8,0-1.1,0.1c-0.3,0-0.6,0.1-0.8,0.2c-0.2,0.1-0.4,0.2-0.5,0.3
		s-0.2,0.3-0.2,0.5c0,0.2,0.1,0.3,0.2,0.4c0.1,0.1,0.3,0.1,0.6,0.1c0.2,0,0.5-0.1,0.7-0.2s0.5-0.2,0.7-0.4L53.3,235.1z"/>
	<path fill="#585858" d="M58.9,237.4H58l-1.4-1.9L56,236l-0.3,1.4h-0.7l1.4-6.1h0.7l-0.9,3.9l2.6-2.2h1l-2.5,2.1L58.9,237.4z"/>
	<path fill="#585858" d="M61.7,237.5c-0.6,0-1.1-0.1-1.4-0.4c-0.3-0.3-0.5-0.7-0.5-1.2c0-0.8,0.3-1.5,0.8-2.1s1.1-0.9,1.9-0.9
		c0.5,0,0.9,0.1,1.1,0.4s0.4,0.6,0.4,1c0,0.1,0,0.2,0,0.4s-0.1,0.4-0.1,0.6h-3.2c0,0.1,0,0.1,0,0.2s0,0.1,0,0.2
		c0,0.4,0.1,0.7,0.3,0.9s0.5,0.3,1,0.3c0.3,0,0.6-0.1,0.9-0.2s0.6-0.2,0.8-0.4h0l-0.2,0.8c-0.1,0-0.2,0.1-0.4,0.1
		c-0.1,0-0.2,0.1-0.4,0.1s-0.3,0.1-0.4,0.1C62,237.5,61.9,237.5,61.7,237.5z M63.1,234.7c0-0.1,0-0.1,0-0.2s0-0.1,0-0.2
		c0-0.3-0.1-0.5-0.2-0.7s-0.4-0.2-0.7-0.2c-0.4,0-0.7,0.1-1,0.3s-0.5,0.5-0.6,0.9H63.1z"/>
</g>
<g>
	<path fill="#585858" d="M20,289c-0.3,0.2-0.5,0.3-0.8,0.4c-0.3,0.1-0.6,0.1-1,0.1H16l1.3-5.8H19c0.4,0,0.7,0,0.9,0
		c0.2,0,0.4,0.1,0.6,0.2c0.1,0.1,0.3,0.2,0.3,0.3s0.1,0.3,0.1,0.5c0,0.3-0.1,0.6-0.3,0.9c-0.2,0.3-0.5,0.5-0.8,0.6v0
		c0.3,0.1,0.6,0.2,0.7,0.4s0.2,0.4,0.2,0.7c0,0.3-0.1,0.6-0.2,0.9C20.5,288.6,20.3,288.8,20,289z M20.1,287.4c0-0.1,0-0.3-0.1-0.4
		s-0.1-0.2-0.3-0.3c-0.1-0.1-0.2-0.1-0.4-0.1c-0.2,0-0.4,0-0.7,0h-1.2l-0.5,2.2H18c0.3,0,0.6,0,0.8-0.1c0.2,0,0.4-0.1,0.6-0.2
		c0.2-0.1,0.4-0.3,0.5-0.5S20.1,287.6,20.1,287.4z M20.2,284.9c0-0.1,0-0.2-0.1-0.3s-0.1-0.1-0.2-0.2c-0.1-0.1-0.2-0.1-0.4-0.1
		s-0.4,0-0.6,0H18l-0.4,1.7h1c0.2,0,0.4,0,0.6,0s0.3-0.1,0.4-0.2c0.2-0.1,0.3-0.2,0.4-0.4S20.2,285,20.2,284.9z"/>
	<path fill="#585858" d="M23.2,285.1l-1,4.4h-0.7l1-4.4H23.2z M23.6,283.6l-0.2,0.8h-0.8l0.2-0.8H23.6z"/>
	<path fill="#585858" d="M28.2,285.1l-0.9,3.9c-0.2,0.7-0.5,1.3-0.8,1.6c-0.4,0.3-0.9,0.5-1.6,0.5c-0.2,0-0.4,0-0.7-0.1
		s-0.4-0.1-0.6-0.1l0.2-0.7h0c0.1,0.1,0.3,0.1,0.6,0.2s0.5,0.1,0.7,0.1c0.2,0,0.5,0,0.6-0.1s0.3-0.2,0.4-0.3
		c0.1-0.1,0.2-0.2,0.3-0.4s0.1-0.3,0.2-0.5l0.1-0.4c-0.3,0.2-0.5,0.3-0.7,0.4c-0.2,0.1-0.5,0.1-0.8,0.1c-0.4,0-0.8-0.1-1-0.4
		s-0.4-0.6-0.4-1.1c0-0.4,0.1-0.7,0.2-1.1s0.3-0.7,0.5-0.9c0.2-0.3,0.5-0.5,0.8-0.6c0.3-0.2,0.6-0.2,1-0.2c0.2,0,0.5,0,0.7,0.1
		c0.2,0.1,0.4,0.1,0.5,0.2l0.1-0.2H28.2z M27.3,285.9c-0.2-0.1-0.3-0.2-0.5-0.2s-0.4-0.1-0.5-0.1c-0.3,0-0.5,0.1-0.7,0.2
		s-0.4,0.3-0.5,0.5c-0.1,0.2-0.3,0.4-0.3,0.7c-0.1,0.3-0.1,0.5-0.1,0.8c0,0.3,0.1,0.5,0.2,0.7c0.1,0.2,0.4,0.3,0.7,0.3
		c0.2,0,0.4,0,0.7-0.1s0.4-0.2,0.7-0.3L27.3,285.9z"/>
	<path fill="#585858" d="M33.6,289.5h-2.3l0.1-0.6h0.8l1.1-4.7h-0.8l0.1-0.6h2.3l-0.1,0.6H34l-1.1,4.7h0.8L33.6,289.5z"/>
	<path fill="#585858" d="M36.2,289.6c-0.3,0-0.6,0-0.9-0.1s-0.5-0.2-0.6-0.3l0.2-0.8h0c0.1,0,0.1,0.1,0.2,0.2s0.2,0.1,0.3,0.2
		c0.1,0.1,0.3,0.1,0.4,0.2s0.3,0.1,0.5,0.1c0.4,0,0.7-0.1,0.9-0.2s0.3-0.3,0.3-0.6c0-0.1-0.1-0.2-0.2-0.3s-0.3-0.1-0.5-0.2
		c-0.1,0-0.2,0-0.4-0.1s-0.3-0.1-0.4-0.1c-0.3-0.1-0.5-0.2-0.7-0.4s-0.2-0.4-0.2-0.6c0-0.2,0-0.4,0.1-0.6s0.2-0.3,0.4-0.5
		c0.2-0.1,0.4-0.3,0.6-0.3s0.5-0.1,0.9-0.1c0.3,0,0.5,0,0.8,0.1s0.5,0.1,0.6,0.2l-0.2,0.8h0c0,0-0.1-0.1-0.2-0.1s-0.2-0.1-0.3-0.2
		c-0.1,0-0.2-0.1-0.4-0.1s-0.3-0.1-0.5-0.1c-0.3,0-0.6,0.1-0.8,0.2s-0.3,0.3-0.3,0.6c0,0.1,0,0.2,0.1,0.3s0.2,0.2,0.5,0.2
		c0.1,0,0.3,0.1,0.4,0.1s0.3,0.1,0.4,0.1c0.3,0.1,0.5,0.2,0.7,0.4s0.2,0.4,0.2,0.6c0,0.2,0,0.4-0.1,0.6s-0.2,0.4-0.4,0.5
		c-0.2,0.1-0.4,0.3-0.7,0.3S36.5,289.6,36.2,289.6z"/>
	<path fill="#585858" d="M41.1,283.4l-1.4,6.1H39l1.4-6.1H41.1z"/>
	<path fill="#585858" d="M43.9,289c-0.1,0-0.2,0.1-0.3,0.2s-0.2,0.1-0.4,0.2c-0.1,0.1-0.3,0.1-0.4,0.2s-0.4,0.1-0.6,0.1
		c-0.3,0-0.6-0.1-0.8-0.3s-0.3-0.5-0.3-0.8c0-0.3,0.1-0.6,0.2-0.9s0.4-0.4,0.7-0.6c0.3-0.1,0.6-0.3,1.1-0.3c0.4-0.1,0.9-0.1,1.4-0.1
		c0-0.1,0-0.1,0-0.2c0-0.1,0-0.1,0-0.2c0-0.1,0-0.2-0.1-0.3s-0.1-0.1-0.2-0.2s-0.2-0.1-0.3-0.1s-0.3,0-0.4,0c-0.2,0-0.5,0-0.8,0.1
		s-0.5,0.1-0.7,0.2h0l0.1-0.7c0.1,0,0.4-0.1,0.7-0.1s0.6-0.1,0.8-0.1c0.5,0,0.9,0.1,1.2,0.3s0.4,0.4,0.4,0.8c0,0.1,0,0.1,0,0.2
		s0,0.2,0,0.2l-0.7,3h-0.7L43.9,289z M44.4,287.1c-0.4,0-0.8,0-1.1,0.1c-0.3,0-0.6,0.1-0.8,0.2c-0.2,0.1-0.4,0.2-0.5,0.3
		s-0.2,0.3-0.2,0.5c0,0.2,0.1,0.3,0.2,0.4c0.1,0.1,0.3,0.1,0.6,0.1c0.2,0,0.5-0.1,0.7-0.2s0.5-0.2,0.7-0.4L44.4,287.1z"/>
	<path fill="#585858" d="M50.4,286.1c0,0.1,0,0.1,0,0.3s0,0.2,0,0.3l-0.7,2.8h-0.7l0.6-2.5c0-0.1,0.1-0.3,0.1-0.4s0-0.2,0-0.3
		c0-0.2-0.1-0.4-0.2-0.5s-0.3-0.2-0.6-0.2c-0.2,0-0.4,0.1-0.7,0.2c-0.2,0.1-0.5,0.2-0.7,0.4l-0.8,3.3H46l1-4.4h0.7l-0.1,0.5
		c0.3-0.2,0.5-0.3,0.8-0.4c0.2-0.1,0.5-0.2,0.8-0.2c0.4,0,0.7,0.1,0.9,0.3S50.4,285.7,50.4,286.1z"/>
	<path fill="#585858" d="M56,283.4l-1.4,6.1h-0.7L54,289c-0.3,0.2-0.6,0.4-0.8,0.5s-0.4,0.1-0.7,0.1c-0.4,0-0.7-0.1-1-0.4
		s-0.4-0.6-0.4-1.1c0-0.4,0.1-0.8,0.2-1.2s0.3-0.7,0.5-1c0.2-0.3,0.5-0.5,0.8-0.7c0.3-0.2,0.6-0.2,1-0.2c0.2,0,0.4,0,0.6,0.1
		s0.4,0.1,0.5,0.2l0.4-1.9H56z M54.7,285.9c-0.2-0.1-0.3-0.2-0.5-0.2s-0.3-0.1-0.5-0.1c-0.3,0-0.5,0.1-0.7,0.2
		c-0.2,0.1-0.4,0.3-0.5,0.5c-0.1,0.2-0.2,0.5-0.3,0.7s-0.1,0.6-0.1,0.8c0,0.3,0.1,0.6,0.2,0.7s0.4,0.3,0.7,0.3
		c0.2,0,0.4-0.1,0.7-0.2c0.2-0.1,0.4-0.2,0.6-0.4L54.7,285.9z"/>
	<path fill="#585858" d="M19.7,299H16l1.3-5.8h0.8l-1.2,5.2h2.9L19.7,299z"/>
	<path fill="#585858" d="M23.2,298.6c-0.1,0-0.2,0.1-0.3,0.2s-0.2,0.1-0.4,0.2c-0.1,0.1-0.3,0.1-0.4,0.2s-0.4,0.1-0.6,0.1
		c-0.3,0-0.6-0.1-0.8-0.3s-0.3-0.5-0.3-0.8c0-0.3,0.1-0.6,0.2-0.9s0.4-0.4,0.7-0.6c0.3-0.1,0.6-0.3,1.1-0.3c0.4-0.1,0.9-0.1,1.4-0.1
		c0-0.1,0-0.1,0-0.2c0-0.1,0-0.1,0-0.2c0-0.1,0-0.2-0.1-0.3s-0.1-0.1-0.2-0.2s-0.2-0.1-0.3-0.1s-0.3,0-0.4,0c-0.2,0-0.5,0-0.8,0.1
		s-0.5,0.1-0.7,0.2h0l0.1-0.7c0.1,0,0.4-0.1,0.7-0.1s0.6-0.1,0.8-0.1c0.5,0,0.9,0.1,1.2,0.3s0.4,0.4,0.4,0.8c0,0.1,0,0.1,0,0.2
		s0,0.2,0,0.2l-0.7,3h-0.7L23.2,298.6z M23.6,296.7c-0.4,0-0.8,0-1.1,0.1c-0.3,0-0.6,0.1-0.8,0.2c-0.2,0.1-0.4,0.2-0.5,0.3
		s-0.2,0.3-0.2,0.5c0,0.2,0.1,0.3,0.2,0.4c0.1,0.1,0.3,0.1,0.6,0.1c0.2,0,0.5-0.1,0.7-0.2s0.5-0.2,0.7-0.4L23.6,296.7z"/>
	<path fill="#585858" d="M29.2,299h-0.9l-1.4-1.9l-0.6,0.5L26,299h-0.7l1.4-6.1h0.7l-0.9,3.9l2.6-2.2h1l-2.5,2.1L29.2,299z"/>
	<path fill="#585858" d="M32,299.2c-0.6,0-1.1-0.1-1.4-0.4c-0.3-0.3-0.5-0.7-0.5-1.2c0-0.8,0.3-1.5,0.8-2.1s1.1-0.9,1.9-0.9
		c0.5,0,0.9,0.1,1.1,0.4s0.4,0.6,0.4,1c0,0.1,0,0.2,0,0.4s-0.1,0.4-0.1,0.6h-3.2c0,0.1,0,0.1,0,0.2s0,0.1,0,0.2
		c0,0.4,0.1,0.7,0.3,0.9s0.5,0.3,1,0.3c0.3,0,0.6-0.1,0.9-0.2s0.6-0.2,0.8-0.4h0l-0.2,0.8c-0.1,0-0.2,0.1-0.4,0.1
		c-0.1,0-0.2,0.1-0.4,0.1s-0.3,0.1-0.4,0.1C32.3,299.1,32.2,299.2,32,299.2z M33.5,296.4c0-0.1,0-0.1,0-0.2s0-0.1,0-0.2
		c0-0.3-0.1-0.5-0.2-0.7s-0.4-0.2-0.7-0.2c-0.4,0-0.7,0.1-1,0.3s-0.5,0.5-0.6,0.9H33.5z"/>
</g>
<g>
	<path fill="#585858" d="M117.2,157.3c-0.2,0.2-0.5,0.3-0.8,0.4c-0.3,0.1-0.7,0.1-1.1,0.1h-0.8l-0.5,2.2h-0.8l1.3-5.8h1.5
		c0.4,0,0.6,0,0.9,0.1c0.2,0.1,0.4,0.2,0.6,0.3c0.2,0.1,0.3,0.3,0.4,0.4s0.1,0.4,0.1,0.6c0,0.3-0.1,0.6-0.2,0.9
		S117.5,157.1,117.2,157.3z M117.2,155.8c0-0.1,0-0.3-0.1-0.4s-0.1-0.2-0.2-0.3c-0.1-0.1-0.2-0.1-0.4-0.2c-0.2,0-0.3-0.1-0.6-0.1
		h-0.7l-0.5,2.4h0.7c0.3,0,0.6,0,0.8-0.1c0.2-0.1,0.4-0.1,0.5-0.3c0.2-0.1,0.3-0.3,0.4-0.5S117.2,156.1,117.2,155.8z"/>
	<path fill="#585858" d="M120,160.2c-0.6,0-1.1-0.1-1.4-0.4c-0.3-0.3-0.5-0.7-0.5-1.2c0-0.8,0.3-1.5,0.8-2.1s1.1-0.9,1.9-0.9
		c0.5,0,0.9,0.1,1.1,0.4s0.4,0.6,0.4,1c0,0.1,0,0.2,0,0.4s-0.1,0.4-0.1,0.6h-3.2c0,0.1,0,0.1,0,0.2s0,0.1,0,0.2
		c0,0.4,0.1,0.7,0.3,0.9s0.5,0.3,1,0.3c0.3,0,0.6-0.1,0.9-0.2s0.6-0.2,0.8-0.4h0l-0.2,0.8c-0.1,0-0.2,0.1-0.4,0.1
		c-0.1,0-0.2,0.1-0.4,0.1s-0.3,0.1-0.4,0.1C120.4,160.2,120.2,160.2,120,160.2z M121.5,157.5c0-0.1,0-0.1,0-0.2s0-0.1,0-0.2
		c0-0.3-0.1-0.5-0.2-0.7s-0.4-0.2-0.7-0.2c-0.4,0-0.7,0.1-1,0.3s-0.5,0.5-0.6,0.9H121.5z"/>
	<path fill="#585858" d="M127.1,156.7c0,0.1,0,0.1,0,0.3s0,0.2,0,0.3l-0.7,2.8h-0.7l0.6-2.5c0-0.1,0.1-0.3,0.1-0.4
		c0-0.1,0-0.2,0-0.3c0-0.2-0.1-0.4-0.2-0.5s-0.3-0.2-0.6-0.2c-0.2,0-0.4,0.1-0.7,0.2c-0.2,0.1-0.5,0.2-0.7,0.4l-0.8,3.3h-0.7l1-4.4
		h0.7l-0.1,0.5c0.3-0.2,0.5-0.3,0.8-0.4c0.2-0.1,0.5-0.2,0.8-0.2c0.4,0,0.7,0.1,0.9,0.3S127.1,156.4,127.1,156.7z"/>
	<path fill="#585858" d="M129.5,155.8l-1,4.4h-0.7l1-4.4H129.5z M129.9,154.3l-0.2,0.8h-0.8l0.2-0.8H129.9z"/>
	<path fill="#585858" d="M134.4,156.7c0,0.1,0,0.1,0,0.3s0,0.2,0,0.3l-0.7,2.8h-0.7l0.6-2.5c0-0.1,0.1-0.3,0.1-0.4
		c0-0.1,0-0.2,0-0.3c0-0.2-0.1-0.4-0.2-0.5s-0.3-0.2-0.6-0.2c-0.2,0-0.4,0.1-0.7,0.2c-0.2,0.1-0.5,0.2-0.7,0.4l-0.8,3.3H130l1-4.4
		h0.7l-0.1,0.5c0.3-0.2,0.5-0.3,0.8-0.4c0.2-0.1,0.5-0.2,0.8-0.2c0.4,0,0.7,0.1,0.9,0.3S134.4,156.4,134.4,156.7z"/>
	<path fill="#585858" d="M136.4,160.2c-0.3,0-0.6,0-0.9-0.1s-0.5-0.2-0.6-0.3l0.2-0.8h0c0.1,0,0.1,0.1,0.2,0.2s0.2,0.1,0.3,0.2
		c0.1,0.1,0.3,0.1,0.4,0.2s0.3,0.1,0.5,0.1c0.4,0,0.7-0.1,0.9-0.2s0.3-0.3,0.3-0.6c0-0.1-0.1-0.2-0.2-0.3s-0.3-0.1-0.5-0.2
		c-0.1,0-0.2,0-0.4-0.1s-0.3-0.1-0.4-0.1c-0.3-0.1-0.5-0.2-0.7-0.4s-0.2-0.4-0.2-0.6c0-0.2,0-0.4,0.1-0.6s0.2-0.3,0.4-0.5
		c0.2-0.1,0.4-0.3,0.6-0.3s0.5-0.1,0.9-0.1c0.3,0,0.5,0,0.8,0.1s0.5,0.1,0.6,0.2l-0.2,0.8h0c0,0-0.1-0.1-0.2-0.1s-0.2-0.1-0.3-0.2
		c-0.1,0-0.2-0.1-0.4-0.1s-0.3-0.1-0.5-0.1c-0.3,0-0.6,0.1-0.8,0.2s-0.3,0.3-0.3,0.6c0,0.1,0,0.2,0.1,0.3s0.2,0.2,0.5,0.2
		c0.1,0,0.3,0.1,0.4,0.1s0.3,0.1,0.4,0.1c0.3,0.1,0.5,0.2,0.7,0.4s0.2,0.4,0.2,0.6c0,0.2,0,0.4-0.1,0.6s-0.2,0.4-0.4,0.5
		c-0.2,0.1-0.4,0.3-0.7,0.3S136.7,160.2,136.4,160.2z"/>
	<path fill="#585858" d="M143.8,155.8l-1,4.4h-0.7l0.1-0.5c-0.3,0.2-0.5,0.3-0.8,0.4c-0.2,0.1-0.5,0.2-0.8,0.2
		c-0.4,0-0.7-0.1-0.9-0.3s-0.3-0.5-0.3-0.8c0-0.1,0-0.2,0-0.3s0-0.2,0-0.3l0.7-2.8h0.7l-0.6,2.5c0,0.1,0,0.2-0.1,0.3
		c0,0.1,0,0.2,0,0.3c0,0.2,0.1,0.4,0.2,0.5c0.1,0.1,0.3,0.2,0.6,0.2c0.2,0,0.4-0.1,0.7-0.2s0.5-0.2,0.7-0.4l0.7-3.3H143.8z"/>
	<path fill="#585858" d="M146.4,154l-1.4,6.1h-0.7l1.4-6.1H146.4z"/>
	<path fill="#585858" d="M149.3,159.7c-0.1,0-0.2,0.1-0.3,0.2s-0.2,0.1-0.4,0.2c-0.1,0.1-0.3,0.1-0.4,0.2s-0.4,0.1-0.6,0.1
		c-0.3,0-0.6-0.1-0.8-0.3s-0.3-0.5-0.3-0.8c0-0.3,0.1-0.6,0.2-0.9s0.4-0.4,0.7-0.6c0.3-0.1,0.6-0.3,1.1-0.3c0.4-0.1,0.9-0.1,1.4-0.1
		c0-0.1,0-0.1,0-0.2c0-0.1,0-0.1,0-0.2c0-0.1,0-0.2-0.1-0.3c0-0.1-0.1-0.1-0.2-0.2s-0.2-0.1-0.3-0.1s-0.3,0-0.4,0
		c-0.2,0-0.5,0-0.8,0.1s-0.5,0.1-0.7,0.2h0l0.1-0.7c0.1,0,0.4-0.1,0.7-0.1s0.6-0.1,0.8-0.1c0.5,0,0.9,0.1,1.2,0.3s0.4,0.4,0.4,0.8
		c0,0.1,0,0.1,0,0.2s0,0.2,0,0.2l-0.7,3h-0.7L149.3,159.7z M149.7,157.8c-0.4,0-0.8,0-1.1,0.1c-0.3,0-0.6,0.1-0.8,0.2
		c-0.2,0.1-0.4,0.2-0.5,0.3s-0.2,0.3-0.2,0.5c0,0.2,0.1,0.3,0.2,0.4c0.1,0.1,0.3,0.1,0.6,0.1c0.2,0,0.5-0.1,0.7-0.2s0.5-0.2,0.7-0.4
		L149.7,157.8z"/>
	<path fill="#585858" d="M116.9,169.7h-3.7l1.3-5.8h0.8l-1.2,5.2h2.9L116.9,169.7z"/>
	<path fill="#585858" d="M120.4,169.3c-0.1,0-0.2,0.1-0.3,0.2s-0.2,0.1-0.4,0.2c-0.1,0.1-0.3,0.1-0.4,0.2s-0.4,0.1-0.6,0.1
		c-0.3,0-0.6-0.1-0.8-0.3s-0.3-0.5-0.3-0.8c0-0.3,0.1-0.6,0.2-0.9s0.4-0.4,0.7-0.6c0.3-0.1,0.6-0.3,1.1-0.3c0.4-0.1,0.9-0.1,1.4-0.1
		c0-0.1,0-0.1,0-0.2c0-0.1,0-0.1,0-0.2c0-0.1,0-0.2-0.1-0.3c0-0.1-0.1-0.1-0.2-0.2s-0.2-0.1-0.3-0.1s-0.3,0-0.4,0
		c-0.2,0-0.5,0-0.8,0.1s-0.5,0.1-0.7,0.2h0l0.1-0.7c0.1,0,0.4-0.1,0.7-0.1s0.6-0.1,0.8-0.1c0.5,0,0.9,0.1,1.2,0.3s0.4,0.4,0.4,0.8
		c0,0.1,0,0.1,0,0.2s0,0.2,0,0.2l-0.7,3h-0.7L120.4,169.3z M120.8,167.4c-0.4,0-0.8,0-1.1,0.1c-0.3,0-0.6,0.1-0.8,0.2
		c-0.2,0.1-0.4,0.2-0.5,0.3s-0.2,0.3-0.2,0.5c0,0.2,0.1,0.3,0.2,0.4c0.1,0.1,0.3,0.1,0.6,0.1c0.2,0,0.5-0.1,0.7-0.2s0.5-0.2,0.7-0.4
		L120.8,167.4z"/>
	<path fill="#585858" d="M126.4,169.7h-0.9l-1.4-1.9l-0.6,0.5l-0.3,1.4h-0.7l1.4-6.1h0.7l-0.9,3.9l2.6-2.2h1l-2.5,2.1L126.4,169.7z"
		/>
	<path fill="#585858" d="M129.2,169.8c-0.6,0-1.1-0.1-1.4-0.4c-0.3-0.3-0.5-0.7-0.5-1.2c0-0.8,0.3-1.5,0.8-2.1s1.1-0.9,1.9-0.9
		c0.5,0,0.9,0.1,1.1,0.4s0.4,0.6,0.4,1c0,0.1,0,0.2,0,0.4s-0.1,0.4-0.1,0.6H128c0,0.1,0,0.1,0,0.2s0,0.1,0,0.2
		c0,0.4,0.1,0.7,0.3,0.9s0.5,0.3,1,0.3c0.3,0,0.6-0.1,0.9-0.2s0.6-0.2,0.8-0.4h0l-0.2,0.8c-0.1,0-0.2,0.1-0.4,0.1
		c-0.1,0-0.2,0.1-0.4,0.1s-0.3,0.1-0.4,0.1C129.5,169.8,129.4,169.8,129.2,169.8z M130.6,167.1c0-0.1,0-0.1,0-0.2s0-0.1,0-0.2
		c0-0.3-0.1-0.5-0.2-0.7s-0.4-0.2-0.7-0.2c-0.4,0-0.7,0.1-1,0.3s-0.5,0.5-0.6,0.9H130.6z"/>
</g>
<g>
	<path fill="#585858" d="M111.6,103l-1.3,5.8h-0.8l0.7-2.9h-2.9l-0.7,2.9h-0.8l1.3-5.8h0.8l-0.5,2.3h2.9l0.5-2.3H111.6z"/>
	<path fill="#585858" d="M114.6,108.3c-0.1,0-0.2,0.1-0.3,0.2s-0.2,0.1-0.4,0.2c-0.1,0.1-0.3,0.1-0.4,0.2s-0.4,0.1-0.6,0.1
		c-0.3,0-0.6-0.1-0.8-0.3s-0.3-0.5-0.3-0.8c0-0.3,0.1-0.6,0.2-0.9s0.4-0.4,0.7-0.6c0.3-0.1,0.6-0.3,1.1-0.3c0.4-0.1,0.9-0.1,1.4-0.1
		c0-0.1,0-0.1,0-0.2c0-0.1,0-0.1,0-0.2c0-0.1,0-0.2-0.1-0.3c0-0.1-0.1-0.1-0.2-0.2s-0.2-0.1-0.3-0.1s-0.3,0-0.4,0
		c-0.2,0-0.5,0-0.8,0.1s-0.5,0.1-0.7,0.2h0l0.1-0.7c0.1,0,0.4-0.1,0.7-0.1s0.6-0.1,0.8-0.1c0.5,0,0.9,0.1,1.2,0.3s0.4,0.4,0.4,0.8
		c0,0.1,0,0.1,0,0.2s0,0.2,0,0.2l-0.7,3h-0.7L114.6,108.3z M115,106.5c-0.4,0-0.8,0-1.1,0.1c-0.3,0-0.6,0.1-0.8,0.2
		c-0.2,0.1-0.4,0.2-0.5,0.3s-0.2,0.3-0.2,0.5c0,0.2,0.1,0.3,0.2,0.4c0.1,0.1,0.3,0.1,0.6,0.1c0.2,0,0.5-0.1,0.7-0.2s0.5-0.2,0.7-0.4
		L115,106.5z"/>
	<path fill="#585858" d="M117.4,110.4h-0.8l1.3-1.9l-0.8-4.1h0.8l0.6,3.2l2.1-3.2h0.8L117.4,110.4z"/>
	<path fill="#585858" d="M122.7,108.9c-0.3,0-0.6,0-0.9-0.1s-0.5-0.2-0.6-0.3l0.2-0.8h0c0.1,0,0.1,0.1,0.2,0.2s0.2,0.1,0.3,0.2
		c0.1,0.1,0.3,0.1,0.4,0.2s0.3,0.1,0.5,0.1c0.4,0,0.7-0.1,0.9-0.2s0.3-0.3,0.3-0.6c0-0.1-0.1-0.2-0.2-0.3s-0.3-0.1-0.5-0.2
		c-0.1,0-0.2,0-0.4-0.1s-0.3-0.1-0.4-0.1c-0.3-0.1-0.5-0.2-0.7-0.4s-0.2-0.4-0.2-0.6c0-0.2,0-0.4,0.1-0.6s0.2-0.3,0.4-0.5
		c0.2-0.1,0.4-0.3,0.6-0.3s0.5-0.1,0.9-0.1c0.3,0,0.5,0,0.8,0.1s0.5,0.1,0.6,0.2l-0.2,0.8h0c0,0-0.1-0.1-0.2-0.1s-0.2-0.1-0.3-0.2
		c-0.1,0-0.2-0.1-0.4-0.1s-0.3-0.1-0.5-0.1c-0.3,0-0.6,0.1-0.8,0.2s-0.3,0.3-0.3,0.6c0,0.1,0,0.2,0.1,0.3s0.2,0.2,0.5,0.2
		c0.1,0,0.3,0.1,0.4,0.1s0.3,0.1,0.4,0.1c0.3,0.1,0.5,0.2,0.7,0.4s0.2,0.4,0.2,0.6c0,0.2,0,0.4-0.1,0.6s-0.2,0.4-0.4,0.5
		c-0.2,0.1-0.4,0.3-0.7,0.3S123,108.9,122.7,108.9z"/>
	<path fill="#585858" d="M128.8,104.4l-0.1,0.6h-1.5l-0.5,2c0,0.1,0,0.2-0.1,0.4c0,0.1,0,0.2,0,0.3c0,0.2,0,0.3,0.1,0.4
		c0.1,0.1,0.3,0.1,0.5,0.1c0.1,0,0.2,0,0.4-0.1c0.1,0,0.2-0.1,0.3-0.1h0l-0.1,0.6c-0.1,0-0.3,0.1-0.5,0.1c-0.2,0-0.3,0-0.4,0
		c-0.4,0-0.6-0.1-0.8-0.2s-0.3-0.4-0.3-0.7c0-0.1,0-0.2,0-0.2s0-0.2,0-0.3l0.5-2.3h-0.5l0.1-0.6h0.5l0.3-1.3h0.7l-0.3,1.3H128.8z"/>
	<path fill="#585858" d="M131.4,108.3c-0.1,0-0.2,0.1-0.3,0.2s-0.2,0.1-0.4,0.2c-0.1,0.1-0.3,0.1-0.4,0.2s-0.4,0.1-0.6,0.1
		c-0.3,0-0.6-0.1-0.8-0.3s-0.3-0.5-0.3-0.8c0-0.3,0.1-0.6,0.2-0.9s0.4-0.4,0.7-0.6c0.3-0.1,0.6-0.3,1.1-0.3c0.4-0.1,0.9-0.1,1.4-0.1
		c0-0.1,0-0.1,0-0.2c0-0.1,0-0.1,0-0.2c0-0.1,0-0.2-0.1-0.3c0-0.1-0.1-0.1-0.2-0.2s-0.2-0.1-0.3-0.1s-0.3,0-0.4,0
		c-0.2,0-0.5,0-0.8,0.1s-0.5,0.1-0.7,0.2h0l0.1-0.7c0.1,0,0.4-0.1,0.7-0.1s0.6-0.1,0.8-0.1c0.5,0,0.9,0.1,1.2,0.3s0.4,0.4,0.4,0.8
		c0,0.1,0,0.1,0,0.2s0,0.2,0,0.2l-0.7,3h-0.7L131.4,108.3z M131.8,106.5c-0.4,0-0.8,0-1.1,0.1c-0.3,0-0.6,0.1-0.8,0.2
		c-0.2,0.1-0.4,0.2-0.5,0.3s-0.2,0.3-0.2,0.5c0,0.2,0.1,0.3,0.2,0.4c0.1,0.1,0.3,0.1,0.6,0.1c0.2,0,0.5-0.1,0.7-0.2s0.5-0.2,0.7-0.4
		L131.8,106.5z"/>
	<path fill="#585858" d="M135.3,108.9c-0.3,0-0.5,0-0.7-0.1s-0.4-0.2-0.6-0.3c-0.2-0.1-0.3-0.3-0.4-0.5s-0.1-0.4-0.1-0.7
		c0-0.4,0.1-0.8,0.2-1.1s0.3-0.7,0.5-0.9c0.2-0.3,0.5-0.5,0.8-0.6s0.7-0.2,1.1-0.2c0.3,0,0.5,0,0.7,0.1s0.4,0.2,0.6,0.2l-0.2,0.8h0
		c-0.1,0-0.1-0.1-0.2-0.2c-0.1-0.1-0.2-0.1-0.3-0.2c-0.1-0.1-0.2-0.1-0.4-0.1s-0.3-0.1-0.4-0.1c-0.5,0-0.9,0.2-1.2,0.6
		s-0.5,0.9-0.5,1.6c0,0.4,0.1,0.6,0.3,0.8c0.2,0.2,0.5,0.3,0.8,0.3c0.2,0,0.3,0,0.5-0.1s0.3-0.1,0.4-0.2c0.1-0.1,0.2-0.1,0.4-0.2
		s0.2-0.1,0.2-0.2h0l-0.2,0.8c-0.2,0.1-0.5,0.2-0.7,0.3S135.6,108.9,135.3,108.9z"/>
	<path fill="#585858" d="M141.6,108.8h-0.9l-1.4-1.9l-0.6,0.5l-0.3,1.4h-0.7l1.4-6.1h0.7l-0.9,3.9l2.6-2.2h1l-2.5,2.1L141.6,108.8z"
		/>
	<path fill="#585858" d="M127.3,115.6c-0.2,0.2-0.5,0.3-0.8,0.4c-0.3,0.1-0.7,0.1-1.1,0.1h-0.8l-0.5,2.2h-0.8l1.3-5.8h1.5
		c0.4,0,0.6,0,0.9,0.1c0.2,0.1,0.4,0.2,0.6,0.3c0.2,0.1,0.3,0.3,0.4,0.4s0.1,0.4,0.1,0.6c0,0.3-0.1,0.6-0.2,0.9
		S127.5,115.4,127.3,115.6z M127.2,114.1c0-0.1,0-0.3-0.1-0.4s-0.1-0.2-0.2-0.3c-0.1-0.1-0.2-0.1-0.4-0.2c-0.2,0-0.3-0.1-0.6-0.1
		h-0.7l-0.5,2.4h0.7c0.3,0,0.6,0,0.8-0.1c0.2-0.1,0.4-0.1,0.5-0.3c0.2-0.1,0.3-0.3,0.4-0.5S127.2,114.3,127.2,114.1z"/>
	<path fill="#585858" d="M130.1,118.5c-0.6,0-1.1-0.1-1.4-0.4c-0.3-0.3-0.5-0.7-0.5-1.2c0-0.8,0.3-1.5,0.8-2.1s1.1-0.9,1.9-0.9
		c0.5,0,0.9,0.1,1.1,0.4s0.4,0.6,0.4,1c0,0.1,0,0.2,0,0.4s-0.1,0.4-0.1,0.6H129c0,0.1,0,0.1,0,0.2s0,0.1,0,0.2
		c0,0.4,0.1,0.7,0.3,0.9s0.5,0.3,1,0.3c0.3,0,0.6-0.1,0.9-0.2s0.6-0.2,0.8-0.4h0l-0.2,0.8c-0.1,0-0.2,0.1-0.4,0.1
		c-0.1,0-0.2,0.1-0.4,0.1s-0.3,0.1-0.4,0.1C130.5,118.5,130.3,118.5,130.1,118.5z M131.6,115.7c0-0.1,0-0.1,0-0.2s0-0.1,0-0.2
		c0-0.3-0.1-0.5-0.2-0.7s-0.4-0.2-0.7-0.2c-0.4,0-0.7,0.1-1,0.3s-0.5,0.5-0.6,0.9H131.6z"/>
	<path fill="#585858" d="M135.6,117.9c-0.1,0-0.2,0.1-0.3,0.2s-0.2,0.1-0.4,0.2c-0.1,0.1-0.3,0.1-0.4,0.2s-0.4,0.1-0.6,0.1
		c-0.3,0-0.6-0.1-0.8-0.3s-0.3-0.5-0.3-0.8c0-0.3,0.1-0.6,0.2-0.9s0.4-0.4,0.7-0.6c0.3-0.1,0.6-0.3,1.1-0.3c0.4-0.1,0.9-0.1,1.4-0.1
		c0-0.1,0-0.1,0-0.2c0-0.1,0-0.1,0-0.2c0-0.1,0-0.2-0.1-0.3c0-0.1-0.1-0.1-0.2-0.2s-0.2-0.1-0.3-0.1s-0.3,0-0.4,0
		c-0.2,0-0.5,0-0.8,0.1s-0.5,0.1-0.7,0.2h0l0.1-0.7c0.1,0,0.4-0.1,0.7-0.1s0.6-0.1,0.8-0.1c0.5,0,0.9,0.1,1.2,0.3s0.4,0.4,0.4,0.8
		c0,0.1,0,0.1,0,0.2s0,0.2,0,0.2l-0.7,3h-0.7L135.6,117.9z M136,116.1c-0.4,0-0.8,0-1.1,0.1c-0.3,0-0.6,0.1-0.8,0.2
		c-0.2,0.1-0.4,0.2-0.5,0.3s-0.2,0.3-0.2,0.5c0,0.2,0.1,0.3,0.2,0.4c0.1,0.1,0.3,0.1,0.6,0.1c0.2,0,0.5-0.1,0.7-0.2s0.5-0.2,0.7-0.4
		L136,116.1z"/>
	<path fill="#585858" d="M141.6,118.4h-0.9l-1.4-1.9l-0.6,0.5l-0.3,1.4h-0.7l1.4-6.1h0.7l-0.9,3.9l2.6-2.2h1l-2.5,2.1L141.6,118.4z"
		/>
</g>
<g>
	<path fill="#585858" d="M152.2,113.3l-0.4,0.4l-1.7-1.7l-1.7,1.7l-0.4-0.4l1.7-1.7l-1.7-1.7l0.4-0.4l1.7,1.7l1.7-1.7l0.4,0.4
		l-1.7,1.7L152.2,113.3z"/>
	<path fill="#585858" d="M159.8,114.1h-3.2l0.1-0.6h1.2l0.9-4h-1.2l0.1-0.5c0.4,0,0.8-0.1,1-0.2c0.2-0.1,0.4-0.3,0.5-0.6h0.6
		l-1.2,5.3h1.2L159.8,114.1z"/>
	<path fill="#585858" d="M166,109.9c0,0.5-0.1,1.1-0.3,1.8c-0.2,0.7-0.4,1.2-0.7,1.6c-0.2,0.3-0.5,0.5-0.8,0.7s-0.6,0.2-1,0.2
		c-0.5,0-0.9-0.1-1.2-0.4c-0.3-0.3-0.4-0.7-0.4-1.3c0-0.5,0.1-1.1,0.3-1.8c0.2-0.7,0.4-1.3,0.7-1.7c0.2-0.3,0.5-0.5,0.8-0.7
		c0.3-0.1,0.6-0.2,1-0.2c0.5,0,0.9,0.1,1.2,0.4S166,109.3,166,109.9z M165.2,109.9c0-0.3-0.1-0.6-0.2-0.8c-0.1-0.2-0.4-0.3-0.7-0.3
		c-0.2,0-0.5,0.1-0.7,0.2s-0.4,0.3-0.5,0.6c-0.2,0.3-0.3,0.8-0.5,1.4c-0.1,0.6-0.2,1.2-0.2,1.6c0,0.3,0.1,0.6,0.2,0.8
		s0.4,0.3,0.7,0.3c0.2,0,0.5-0.1,0.7-0.2s0.4-0.3,0.5-0.6c0.2-0.3,0.3-0.8,0.5-1.4C165.1,110.8,165.2,110.3,165.2,109.9z"/>
	<path fill="#585858" d="M171.1,109.9c0,0.5-0.1,1.1-0.3,1.8c-0.2,0.7-0.4,1.2-0.7,1.6c-0.2,0.3-0.5,0.5-0.8,0.7s-0.6,0.2-1,0.2
		c-0.5,0-0.9-0.1-1.2-0.4c-0.3-0.3-0.4-0.7-0.4-1.3c0-0.5,0.1-1.1,0.3-1.8c0.2-0.7,0.4-1.3,0.7-1.7c0.2-0.3,0.5-0.5,0.8-0.7
		c0.3-0.1,0.6-0.2,1-0.2c0.5,0,0.9,0.1,1.2,0.4S171.1,109.3,171.1,109.9z M170.3,109.9c0-0.3-0.1-0.6-0.2-0.8
		c-0.1-0.2-0.4-0.3-0.7-0.3c-0.2,0-0.5,0.1-0.7,0.2s-0.4,0.3-0.5,0.6c-0.2,0.3-0.3,0.8-0.5,1.4c-0.1,0.6-0.2,1.2-0.2,1.6
		c0,0.3,0.1,0.6,0.2,0.8s0.4,0.3,0.7,0.3c0.2,0,0.5-0.1,0.7-0.2s0.4-0.3,0.5-0.6c0.2-0.3,0.3-0.8,0.5-1.4
		C170.2,110.8,170.3,110.3,170.3,109.9z"/>
	<path fill="#585858" d="M176.2,109.9c0,0.5-0.1,1.1-0.3,1.8c-0.2,0.7-0.4,1.2-0.7,1.6c-0.2,0.3-0.5,0.5-0.8,0.7s-0.6,0.2-1,0.2
		c-0.5,0-0.9-0.1-1.2-0.4c-0.3-0.3-0.4-0.7-0.4-1.3c0-0.5,0.1-1.1,0.3-1.8c0.2-0.7,0.4-1.3,0.7-1.7c0.2-0.3,0.5-0.5,0.8-0.7
		c0.3-0.1,0.6-0.2,1-0.2c0.5,0,0.9,0.1,1.2,0.4S176.2,109.3,176.2,109.9z M175.4,109.9c0-0.3-0.1-0.6-0.2-0.8
		c-0.1-0.2-0.4-0.3-0.7-0.3c-0.2,0-0.5,0.1-0.7,0.2s-0.4,0.3-0.5,0.6c-0.2,0.3-0.3,0.8-0.5,1.4c-0.1,0.6-0.2,1.2-0.2,1.6
		c0,0.3,0.1,0.6,0.2,0.8s0.4,0.3,0.7,0.3c0.2,0,0.5-0.1,0.7-0.2s0.4-0.3,0.5-0.6c0.2-0.3,0.3-0.8,0.5-1.4
		C175.3,110.8,175.4,110.3,175.4,109.9z"/>
	<path fill="#585858" d="M180.1,113.6c-0.2,0.2-0.5,0.4-0.8,0.5c-0.3,0.1-0.6,0.2-1,0.2c-0.3,0-0.6,0-0.9-0.1s-0.5-0.2-0.7-0.3
		l0.2-0.8h0.1c0.2,0.1,0.4,0.3,0.7,0.4s0.6,0.2,0.9,0.2c0.5,0,0.9-0.1,1.2-0.4c0.3-0.3,0.4-0.6,0.4-1.1c0-0.3-0.1-0.5-0.3-0.6
		c-0.2-0.1-0.5-0.2-0.9-0.2h-0.4l0.2-0.6h0.4c0.4,0,0.8-0.1,1.1-0.3s0.4-0.5,0.4-0.8c0-0.2-0.1-0.4-0.3-0.5s-0.4-0.2-0.7-0.2
		c-0.3,0-0.6,0-0.9,0.1s-0.6,0.2-0.8,0.4h0l0.2-0.8c0.2-0.1,0.5-0.2,0.8-0.3s0.6-0.1,0.9-0.1c0.5,0,0.9,0.1,1.2,0.3
		c0.3,0.2,0.4,0.5,0.4,0.8c0,0.4-0.1,0.7-0.4,1c-0.3,0.3-0.6,0.5-1.1,0.6v0c0.1,0,0.2,0.1,0.3,0.1s0.2,0.1,0.3,0.2
		c0.1,0.1,0.2,0.2,0.2,0.3c0.1,0.1,0.1,0.3,0.1,0.5c0,0.3-0.1,0.6-0.2,0.8C180.4,113.2,180.3,113.4,180.1,113.6z"/>
</g>
<g>
	<path fill="#585858" d="M218.6,257.8c0,0.6-0.1,1.1-0.2,1.6s-0.4,0.9-0.7,1.3c-0.3,0.4-0.7,0.7-1.1,0.9c-0.4,0.2-0.9,0.3-1.5,0.3
		c-0.1,0-0.3,0-0.4,0c-0.1,0-0.2,0-0.3-0.1l0.1-0.7h0c0.1,0,0.2,0.1,0.3,0.1s0.3,0,0.5,0c0.6,0,1.1-0.2,1.5-0.5
		c0.4-0.4,0.7-0.8,0.9-1.4c-0.3,0.1-0.5,0.2-0.7,0.3c-0.2,0.1-0.5,0.1-0.8,0.1c-0.2,0-0.4,0-0.7-0.1c-0.2-0.1-0.4-0.2-0.5-0.3
		c-0.2-0.1-0.3-0.3-0.4-0.5c-0.1-0.2-0.1-0.4-0.1-0.7c0-0.6,0.2-1.2,0.7-1.6c0.4-0.4,1-0.7,1.7-0.7c0.6,0,1,0.2,1.3,0.5
		C218.4,256.7,218.6,257.2,218.6,257.8z M217.8,257.8c0-0.2,0-0.5-0.1-0.6c-0.1-0.2-0.1-0.3-0.2-0.4c-0.1-0.1-0.2-0.2-0.4-0.2
		c-0.1,0-0.3-0.1-0.4-0.1c-0.4,0-0.8,0.2-1,0.5c-0.3,0.3-0.4,0.7-0.4,1.2c0,0.3,0.1,0.6,0.3,0.8c0.2,0.2,0.5,0.3,0.9,0.3
		c0.2,0,0.4,0,0.6-0.1c0.2-0.1,0.4-0.1,0.7-0.3c0-0.1,0.1-0.3,0.1-0.4S217.8,258,217.8,257.8z"/>
	<path fill="#585858" d="M223.7,257.8c0,0.6-0.1,1.1-0.2,1.6s-0.4,0.9-0.7,1.3c-0.3,0.4-0.7,0.7-1.1,0.9c-0.4,0.2-0.9,0.3-1.5,0.3
		c-0.1,0-0.3,0-0.4,0c-0.1,0-0.2,0-0.3-0.1l0.1-0.7h0c0.1,0,0.2,0.1,0.3,0.1s0.3,0,0.5,0c0.6,0,1.1-0.2,1.5-0.5
		c0.4-0.4,0.7-0.8,0.9-1.4c-0.3,0.1-0.5,0.2-0.7,0.3c-0.2,0.1-0.5,0.1-0.8,0.1c-0.2,0-0.4,0-0.7-0.1c-0.2-0.1-0.4-0.2-0.5-0.3
		c-0.2-0.1-0.3-0.3-0.4-0.5c-0.1-0.2-0.1-0.4-0.1-0.7c0-0.6,0.2-1.2,0.7-1.6c0.4-0.4,1-0.7,1.7-0.7c0.6,0,1,0.2,1.3,0.5
		C223.5,256.7,223.7,257.2,223.7,257.8z M222.9,257.8c0-0.2,0-0.5-0.1-0.6c-0.1-0.2-0.1-0.3-0.2-0.4c-0.1-0.1-0.2-0.2-0.4-0.2
		c-0.1,0-0.3-0.1-0.4-0.1c-0.4,0-0.8,0.2-1,0.5c-0.3,0.3-0.4,0.7-0.4,1.2c0,0.3,0.1,0.6,0.3,0.8c0.2,0.2,0.5,0.3,0.9,0.3
		c0.2,0,0.4,0,0.6-0.1c0.2-0.1,0.4-0.1,0.7-0.3c0-0.1,0.1-0.3,0.1-0.4S222.9,258,222.9,257.8z"/>
	<path fill="#585858" d="M228.5,260.1h-0.9l-0.4,1.6h-0.8l0.4-1.6h-2.8l0.2-0.9l3.6-3.3h0.7l-0.8,3.6h0.9L228.5,260.1z M227,259.5
		l0.6-2.6l-2.9,2.6H227z"/>
	<path fill="#585858" d="M233.6,260.1h-0.9l-0.4,1.6h-0.8l0.4-1.6h-2.8l0.2-0.9l3.6-3.3h0.7l-0.8,3.6h0.9L233.6,260.1z M232.1,259.5
		l0.6-2.6l-2.9,2.6H232.1z"/>
	<path fill="#585858" d="M242.5,260.9l-0.4,0.4l-1.7-1.7l-1.7,1.7l-0.4-0.4l1.7-1.7l-1.7-1.7l0.4-0.4l1.7,1.7l1.7-1.7l0.4,0.4
		l-1.7,1.7L242.5,260.9z"/>
</g>
<g>
	<g>
		<polyline fill="none" stroke="#7D7D7D" stroke-miterlimit="10" points="85.3,341.6 85.3,348.7 275.4,348.7 275.4,341.7 		"/>
		<line fill="none" stroke="#7D7D7D" stroke-miterlimit="10" x1="180.6" y1="341.4" x2="180.6" y2="348.7"/>
		<line fill="none" stroke="#7D7D7D" stroke-miterlimit="10" x1="161.3" y1="349.2" x2="161.3" y2="343.7"/>
		<line fill="none" stroke="#7D7D7D" stroke-miterlimit="10" x1="142.4" y1="349.2" x2="142.4" y2="343.7"/>
		<line fill="none" stroke="#7D7D7D" stroke-miterlimit="10" x1="123.4" y1="349.2" x2="123.4" y2="343.5"/>
		<line fill="none" stroke="#7D7D7D" stroke-miterlimit="10" x1="104.7" y1="349.2" x2="104.7" y2="343.7"/>
	</g>
	<g>
		<path fill="#7D7D7D" d="M88.4,336.2c0,1-0.2,1.8-0.5,2.3s-0.8,0.7-1.5,0.7c-0.7,0-1.2-0.2-1.5-0.7s-0.5-1.3-0.5-2.3
			c0-1,0.2-1.8,0.5-2.3s0.8-0.7,1.5-0.7c0.7,0,1.2,0.3,1.5,0.8S88.4,335.2,88.4,336.2z M87.4,338c0.1-0.2,0.2-0.5,0.2-0.7s0-0.6,0-1
			c0-0.4,0-0.7,0-1s-0.1-0.5-0.2-0.7c-0.1-0.2-0.2-0.4-0.4-0.5s-0.4-0.2-0.6-0.2c-0.2,0-0.4,0.1-0.6,0.2s-0.3,0.3-0.4,0.5
			c-0.1,0.2-0.1,0.4-0.2,0.8s0,0.6,0,1c0,0.4,0,0.7,0,1s0.1,0.5,0.2,0.7c0.1,0.2,0.2,0.4,0.4,0.5s0.4,0.2,0.6,0.2
			c0.2,0,0.4-0.1,0.6-0.2S87.3,338.2,87.4,338z"/>
	</g>
	<g>
		<path fill="#7D7D7D" d="M178.9,336.2c0,1-0.2,1.8-0.5,2.3s-0.8,0.7-1.5,0.7c-0.7,0-1.2-0.2-1.5-0.7s-0.5-1.3-0.5-2.3
			c0-1,0.2-1.8,0.5-2.3s0.8-0.7,1.5-0.7c0.7,0,1.2,0.3,1.5,0.8S178.9,335.2,178.9,336.2z M177.9,338c0.1-0.2,0.2-0.5,0.2-0.7
			s0-0.6,0-1c0-0.4,0-0.7,0-1s-0.1-0.5-0.2-0.7c-0.1-0.2-0.2-0.4-0.4-0.5s-0.4-0.2-0.6-0.2c-0.2,0-0.4,0.1-0.6,0.2s-0.3,0.3-0.4,0.5
			c-0.1,0.2-0.1,0.4-0.2,0.8s0,0.6,0,1c0,0.4,0,0.7,0,1s0.1,0.5,0.2,0.7c0.1,0.2,0.2,0.4,0.4,0.5s0.4,0.2,0.6,0.2
			c0.2,0,0.4-0.1,0.6-0.2S177.8,338.2,177.9,338z"/>
		<path fill="#7D7D7D" d="M181.4,339.1h-0.9V338h0.9V339.1z"/>
		<path fill="#7D7D7D" d="M186.9,337.3c0,0.3,0,0.5-0.1,0.8s-0.2,0.5-0.4,0.6c-0.2,0.2-0.4,0.3-0.7,0.4s-0.6,0.1-0.9,0.1
			c-0.3,0-0.6,0-0.9-0.1s-0.5-0.1-0.7-0.2v-0.8h0.1c0.2,0.1,0.5,0.3,0.8,0.3s0.6,0.1,0.8,0.1c0.2,0,0.4,0,0.5-0.1s0.3-0.1,0.5-0.3
			c0.1-0.1,0.2-0.2,0.3-0.4s0.1-0.3,0.1-0.5c0-0.2,0-0.4-0.1-0.5s-0.2-0.2-0.3-0.3c-0.1-0.1-0.3-0.2-0.5-0.2s-0.4-0.1-0.7-0.1
			c-0.2,0-0.4,0-0.7,0s-0.4,0.1-0.5,0.1v-3h3.5v0.7h-2.7v1.5c0.1,0,0.2,0,0.3,0s0.2,0,0.3,0c0.3,0,0.6,0,0.8,0.1s0.5,0.1,0.7,0.3
			c0.2,0.1,0.4,0.3,0.5,0.6S186.9,337,186.9,337.3z"/>
	</g>
	<g>
		<path fill="#7D7D7D" d="M262.7,339.1h-3.1v-0.6h1.2v-3.9h-1.2v-0.5c0.2,0,0.3,0,0.5,0s0.3-0.1,0.4-0.1c0.1-0.1,0.2-0.1,0.3-0.2
			s0.1-0.2,0.1-0.4h0.6v5.2h1.2V339.1z"/>
		<path fill="#7D7D7D" d="M273.4,339.1h-0.7v-2.5c0-0.2,0-0.4,0-0.5s-0.1-0.3-0.1-0.4c-0.1-0.1-0.1-0.2-0.3-0.3s-0.3-0.1-0.5-0.1
			c-0.2,0-0.4,0.1-0.6,0.2s-0.4,0.2-0.6,0.4c0,0.1,0,0.1,0,0.2s0,0.2,0,0.2v2.8h-0.7v-2.5c0-0.2,0-0.4,0-0.5s-0.1-0.3-0.1-0.4
			c-0.1-0.1-0.1-0.2-0.3-0.3s-0.3-0.1-0.5-0.1c-0.2,0-0.4,0-0.6,0.1s-0.4,0.2-0.6,0.4v3.3H267v-4.4h0.7v0.5c0.2-0.2,0.5-0.3,0.7-0.4
			s0.5-0.2,0.7-0.2c0.3,0,0.5,0.1,0.8,0.2s0.4,0.3,0.5,0.5c0.3-0.2,0.6-0.4,0.8-0.5s0.5-0.2,0.8-0.2c0.5,0,0.8,0.1,1.1,0.4
			s0.3,0.7,0.3,1.2V339.1z"/>
		<path fill="#7D7D7D" d="M275.6,334.1h-0.8v-0.8h0.8V334.1z M275.6,339.1h-0.7v-4.4h0.7V339.1z"/>
	</g>
</g>
</svg>
