<?xml version="1.0" encoding="utf-8"?>
<!-- Generator: Adobe Illustrator 17.1.0, SVG Export Plug-In . SVG Version: 6.00 Build 0)  -->
<!DOCTYPE svg PUBLIC "-//W3C//DTD SVG 1.1//EN" "http://www.w3.org/Graphics/SVG/1.1/DTD/svg11.dtd">
<svg version="1.1" id="Layer_1" xmlns="http://www.w3.org/2000/svg" xmlns:xlink="http://www.w3.org/1999/xlink" x="0px" y="0px"
	 viewBox="0 0 360 360" enable-background="new 0 0 360 360" xml:space="preserve">
<path fill="none" stroke="#E1E1E1" stroke-miterlimit="10" d="M82.2,377.6c2.5-1.4,3.9-4.2,6-6.1c1.3-1.2,2.8-2,4.3-3
	c5.7-3.9,9.8-10.3,16.4-12.2c3.6-1,7.4-0.5,11.1,0c2.7,0.4,5.6,0.8,7.6,2.7c0.4,0.4,0.8,0.8,1.2,1.2c1.9,1.6,4.6,1.4,7,1.5
	c3.7,0.2,7.4,1.2,10.7,2.9c0.9,0.5,1.8,1,2.5,1.7c3.2,3,3.2,8.4,6.5,11.3"/>
<path fill="none" stroke="#E1E1E1" stroke-miterlimit="10" d="M166.1,376.4c0.8-1.5,0.5-3.3-0.3-4.8c-0.7-1.5-1.8-2.8-2.6-4.3
	c-0.7-1.5-1.1-3.2-1.6-4.8c-1.2-3.5-3.4-6.5-5.5-9.5c-0.9-1.3-1.8-2.5-3.1-3.5c-1.1-0.9-2.5-1.5-3.7-2.3c-2-1.4-1.4-5.4-3.7-6
	c-1.5-0.4-2.5,2.5-4,1.9c-1.9-0.7-1.8-3.7-3.5-4.8c-1.6-1-3.5,0.2-5.3,0.6c-4.7,1.2-9.7-2.5-14.4-1.4c-3.3,0.8-5.8,3.9-9.2,4.2
	c-1.2,0.1-2.5-0.2-3.7,0c-2.2,0.3-3.9,2.1-5.5,3.7c-2.1,2.3-4.2,4.6-6.3,6.9c-1.3,1.4-2.6,2.8-3.6,4.5c-0.7,1.1-1.2,2.4-2,3.5
	c-2.4,3.5-6.7,5.1-10.1,7.7c-4.8,3.5-8,8.8-11,13.9"/>
<path fill="none" stroke="#E1E1E1" stroke-miterlimit="10" d="M55.7,376.7c3.8-4,8-7.5,12.6-10.5c2.5-1.6,5-3.1,7.3-5
	c10.1-8.1,14.3-21.7,24.4-29.9c9.3-7.5,21.8-9,33-13.1c3.2-1.1,6.4-2.6,8.3-5.3c0.7-1,1.2-2.1,1.9-3c1.9-2.4,5.1-3.4,6.7-5.9
	c0.5-0.7,0.8-1.6,1.5-2.2c0.7-0.7,1.7-1.1,2.6-1.5c5.1-2.1,9.3-9.9,14.4-7.9c2.7,1.1,1.2,5.6,1.8,8.4c0.1,0.5,0.2,0.9,0.5,1.3
	c1,1.3,3.1,0.2,4.7,0.6c2,0.5,2.6,3,2.7,5.1c0.6,6.4,1.1,12.8,1.7,19.2c0.1,1,0.2,1.9-0.1,2.9c-0.2,0.7-0.5,1.3-0.8,2
	c-7.1,14.1-9,30.7-5.1,46"/>
<path fill="none" stroke="#E1E1E1" stroke-miterlimit="10" d="M44.3,378.9c-2.1-7.8,3.2-15.7,9.4-20.8s13.6-9.2,18.1-15.8
	c3.7-5.4,5.4-12.3,10-16.9c4-4,9.7-5.7,15.2-7.3c10.2-3,20.4-5.9,30.7-8.9c4-1.2,8.1-2.4,11.5-4.9c2.4-1.8,4.2-4.1,6-6.4
	c4.3-5.8,15.1-17.9,13.7-19.7c-1.4-1.8-22.6,5.6-37,14c-4,2.4-4.4,0.8-6.4,0.7c-1.5,0-3.3,2.3-4.8,2.5c-1.5,0.2-5.6-0.5-7-0.9
	c-1-0.3-2.5-1.8-3.6-2.1c-1.2-0.3-9.5,4.2-10.7,4c-4.8-0.9-6.2-0.7-12.2-1.6c-1.7-0.3-2.4-1.6-3.5-2.9c-0.9-1-1.1-3.1-1.6-4.3
	c-0.8-1.9-1.3-3.7-2.1-5.6c-1.4-3-4.7-9-5.2-5.7c-0.3,2.4-3.7,3.8-5.9,3.6c-1.7-0.1-3.5,1.2-5.1,1.9c-4.6,2.1-6.7,7.6-10.4,11
	c-5.4,4.8-10.9,9.6-16.7,13.9c-6.7,5-14,9.5-22,11.9c-4.6,1.4-9.8,2.3-12.8,6"/>
<path fill="none" stroke="#E1E1E1" stroke-miterlimit="10" d="M-8,336.4c5-2.4,10-4.8,14.9-7.3c2.2-1.1,4.5-2.2,6.5-3.7
	c1-0.8,2-1.7,3.2-2.3c1.5-0.8,3.1-1.1,4.7-1.7c5.5-2.3,8.8-8.4,14.4-10.3c1.1-0.4,2.3-0.6,3.1-1.5c0.9-1,0.8-2.6,1.5-3.8
	c1-1.9,3.4-2.5,5.3-3.5c2.8-1.3,5-3.4,7.2-5.6c4.3-4.2,7.2-13.8,13-12.5c4,0.9,2.8,7.7,4.1,11.6c0.4,1.1,0.8,2.3,1.6,3.2
	c0.6,0.7,1.3,1.3,2,1.8c1.6,1.2,2.9,4.2,4.9,3.7c1.8-0.4,3.2-1.2,4.7-2.3c0.7-0.5-0.5-2.1,0.2-2.6c3.2-2.6,8.4,0.3,12.4-0.7
	c1.8-0.5,3.6-1.1,5.5-1.2c3-0.1,5.8,1.2,8.7,1.4c8.1,0.6,22.6-11.9,24.8-8.6c1.7,2.6-4.4,6.5-5.6,9.4c-0.3,0.8-0.6,1.6-1.2,2.1
	c-0.6,0.6-1.5,1-2.3,1.3c-10.9,4-22.7,4-34,6.5c-5.2,1.1-10.4,2.8-15.5,4.4c-1.9,0.6-3.9,1.3-5.4,2.7c-1.7,1.8-2.2,4.4-3.4,6.5
	c-1.9,3.6-5.7,5.7-9.5,7.2c-3.8,1.5-7.8,2.4-11.3,4.3c-4.7,2.5-8.4,6.7-10.5,11.5c-1.2,3-1.8,6.1-2.1,9.3
	c-0.8,8.5,0.5,17.3,4.8,24.6"/>
<path fill="none" stroke="#E1E1E1" stroke-miterlimit="10" d="M26,377c-1.6-2-2.1-4.7-2.4-7.2c-0.3-2-0.5-3.9-0.7-5.9
	c-0.6-5.7-0.8-11.7,1.4-17c1.9-4.8,5.7-8.7,9.4-12.4c1.7-1.7,3.5-3.3,5.5-4.6c1.9-1.2,3.9-2.1,5.9-3.1c10.5-5,32.3-11.9,26.4-21.9
	c-0.9-1.6-4.2-0.2-4.6-2c-0.1-0.6,0.1-1.3-0.1-1.9c-0.3-1.1-1.8-1.6-2.9-1.3c-1.1,0.3-2,1.2-2.8,2c-3,3-6.5,5.6-10.2,7.7
	c-0.9,0.5-1.9,1-2.6,1.8c-0.9,0.9-1.3,2.2-2,3.2c-2.3,3.5-6.9,4.7-10,7.6c-2,1.9-3.3,4.4-5.4,6.3c-1.4,1.3-3.2,2.2-4.9,3.1
	c-3.3,1.7-6.5,3.4-9.8,5.1c-2.2,1.1-4.3,2.2-6.5,3.2c-4.2,1.9-9.2,1.6-13.1,4.1c-1.5,1-0.4,3.7,1.1,4.5c1.2,0.6,2.5,0.4,3.8,0.6
	c1.3,0.2,2.7,1.1,2.6,2.4c-0.1,0.7-0.6,1.4-0.2,2.1c0.2,0.3,0.5,0.5,0.9,0.7c3,1.6,3.3,5.5,5.4,8.3c0.4,0.6,1.5,0.4,2,0.8
	c0.9,0.8-1,2.5-0.2,3.4c0.2,0.3,0.6,0.4,1,0.6c1.8,0.9,2.2,3.4,1.8,5.3c-0.4,2-1.4,3.9-1.1,5.9"/>
<path fill="none" stroke="#E1E1E1" stroke-miterlimit="10" d="M8.8,375.5c-1.2-1-2.1-2.4-2.5-3.9c-0.2-0.9-0.3-1.9-0.6-2.8
	c-0.7-1.7-2.4-2.9-3.1-4.6c-0.3-0.8-0.4-1.7-0.7-2.4c-0.9-1.9-3.3-2.9-3.9-5c-0.1-0.5-0.2-1-0.4-1.5c-0.2-0.5-0.6-0.9-1-1.3
	c-1.7-1.8-3.6-3.3-5.7-4.6"/>
<path fill="none" stroke="#E1E1E1" stroke-miterlimit="10" d="M12.4,349.2c-0.4,0.4-0.9,1-0.6,1.6c0.4,0.8,1.4,1.2,2.3,1.3
	c0.4,0,0.8,0,1.1-0.2c0.4-0.2,0.6-0.6,0.8-1c0.3-0.6,0.7-1.1,1-1.7c0.4-0.7,0.8-1.4,0.8-2.2s-0.8-1.6-1.5-1.4
	c-0.3,0.1-0.5,0.2-0.7,0.4c-1.4,1.1-2.7,2.2-3.7,3.6C11.6,350.1,12.7,348.9,12.4,349.2z"/>
<path fill="none" stroke="#E1E1E1" stroke-miterlimit="10" d="M211.7,379.3c-0.7-0.3-1.4-0.9-1.7-1.3c-2.6-3.6-2.9-8.5-9-9
	c-6-0.5-6.1-9.1-3-13c16.6-21.3,20.5-46.4,14-71c-0.8-3.1-3.1-5-4-8c-1.2-4-1.9-9.6,2-11c6.3-2.3,12,0,18,0s10.1-3.9,15-7
	c3-1.9,4.9-4.1,7-7c2.9-4.1,5-7,7-11c1-2,3.2-5,6-5c0.4,0,0.9,0.7,1,1c0.8,1.8-0.1,3-1,5c-3.2,6.9-13.2,12.8-7,21
	c1.7,2.3,6.7,6,7,6.2c1.1,0.8,2.5,1,3.9,1.4c3.2,1,5.7,3.5,8.1,5.9c0.5,0.5,0.9,0.9,1.2,1.5c0.4,0.7,0.5,1.5,0.6,2.3
	c0.7,5.6-0.9,11.2-3.6,16.1c-0.4,0.6-0.7,1.3-0.8,2c-0.1,1.5,1.2,2.7,2.2,3.8c2.1,2.4,3.4,5.3,4.7,8.2c0.1,0.2,0.2,0.5,0.1,0.7
	c-0.2,0.3-0.6,0.3-0.9,0.4c-0.5,0.3-0.5,0.9-0.5,1.4c0,2.4,0.1,4.8,1,6.9c1.3,3.2,4.2,5.5,7.1,7.5c4.4,3.1,8.8,6.1,13.7,8.4
	c1.6,0.7,3.2,0.6,4.4,1.7c1.3,1.2,2.3,2.5,3.6,3.7c0.8,0.7,1.8,1.4,2.8,1.3c1.4,0,2.5-1.2,3.9-1.2c0.9,0,1.7,0.6,2.4,1.1
	c3.1,2.4,5.8,5.3,7.9,8.6c0.4,0.6,0.7,1.2,1,1.8c0.3,0.8,0.3,1.7,0.3,2.6c0.1,3.9-0.1,8.1-2.2,11.4c-0.7,1.2-1.7,2.2-2.6,3.3
	c-2.3,2.6-4.5,5.2-6.6,7.8"/>
<path fill="none" stroke="#E1E1E1" stroke-miterlimit="10" d="M224.6,376.8c-2.2-6.2-10.5-8.6-12.3-15c-2.1-7.6,7.4-13.9,11-20.8
	c1.2-2.3,2.4-4.6,3.4-7c0.9-2.3,1.6-4.8,2.2-7.2c1.6-6.2,3.3-12.4,4.4-18.7c0.3-1.9,0.7-3.8,1.3-5.6c1.2-3.4,3.5-6.5,4.1-10.1
	c0.3-1.8,0.2-3.7,0.1-5.6c-0.3-6.2-0.3-13,3.6-17.8c1-1.2,2.6-2.2,3.9-1.4c0.5,0.3,0.8,0.9,1.1,1.3c2.3,3.3,7.6,3.8,9.6,7.4
	c0.9,1.5,1,3.3,1,5c0.1,4.5-0.1,9-0.7,13.5c-1,7.5-2.9,15.4,0.2,22.2c0.6,1.3,1.4,2.5,2.5,3.4c0.8,0.6,1.8,1,2.5,1.7
	c1,0.9,1.5,2.2,2.2,3.3c4.1,6.3,13.7,5.6,19.5,10.3c2,1.7,3.5,3.9,5.8,5.2c1.4,0.8,3,1.2,4.6,1.5c4.7,1,9.3,2,14,3
	c2.5,0.5,5,1.1,7.1,2.5c2.1,1.4,3.8,3.8,3.5,6.3c-0.1,1.4-0.9,2.7-1.6,4c-2,3.5-4.4,7.3-8.4,8.1c-1.3,0.2-2.6,0.1-3.8,0.7
	c-0.9,0.5-1.5,1.3-2.1,2.2c-2.3,3.3-4.7,6.6-7,9.9"/>
<path fill="none" stroke="#E1E1E1" stroke-miterlimit="10" d="M271,337.8c0.7-0.1,1.3-0.3,2-0.3c1.2,0.1,2,1.2,3,1.8
	c1,0.6,2.2,0.9,3.3,1.2c5,1.6,8.9,6.3,9.4,11.6c0.1,0.8,0.1,1.6,0.4,2.3c0.3,0.6,0.9,1.1,1.2,1.8c0.7,1.7-1,3.4-2.6,4.5
	c-2.5,1.7-4.8,6.8-7.4,5.2c-0.3-0.2,0.3-0.7,0.1-1.1c-0.7-1.9-4-1-5.9-1.7c-1.4-0.6-2.5-1.8-3.5-2.9c-1.8-2-3.6-4-5.4-6
	c-1.3-1.4-2.6-2.9-3.8-4.4c-2.7-3.5-4.8-7.4-6.2-11.6c-0.5-1.6-1-3.4-0.5-5c0.5-1.6,2.2-3,3.9-2.6c0.6,0.2,1.2,0.6,1.7,1
	c2.2,1.7,4.5,3.3,6.8,4.8C268.6,337.2,269.7,337.9,271,337.8z"/>
<path fill="none" stroke="#E1E1E1" stroke-miterlimit="10" d="M288,375c-0.4-3.3,2.2-6.3,5.2-7.7c1.4-0.6,3.1-1.4,3.3-2.9
	c0.1-0.8-0.4-1.6-0.4-2.4c0-1.4,1.3-2.4,2.6-2.8s2.7-0.7,3.8-1.5c1.8-1.4,2.1-4.4,0.5-6c-0.7-0.8-1.8-1.3-2.8-1.7
	c-2.2-1-4.4-1.9-6.8-2.3c-0.9-0.2-1.8-0.2-2.7-0.6c-2.4-0.9-3.6-3.5-5.3-5.4c-5-5.8-14.3-5.9-19.9-11.1c-2.4-2.3-4-5.4-6.5-7.6
	c-1.4-1.2-3-2.2-4-3.7c-0.6-1-0.9-2.1-1.1-3.3c-0.9-3.8-1.7-7.5-2.6-11.3c-0.2-0.7-0.7-1.7-1.3-1.3c-2.2,1.6-2.8,4.9-3.1,7.6
	c-0.2,2.5,0.1,5.1-0.6,7.5c-0.6,1.9-1.9,3.5-2.8,5.2c-1.7,3-2.5,6.4-3.3,9.7c-0.4,1.8-0.9,3.7-0.9,5.6c-0.1,3.2,1,6.6-0.3,9.6
	c-0.4,0.8-0.9,1.7-1,2.6c-0.1,1.8,1.8,3,3.2,4.3c3.4,3.1,4.3,8.4,8,11.1c1.1,0.8,2.3,1.3,3.5,2c3.8,2.2,6.7,6,7.8,10.2"/>
<path fill="none" stroke="#E1E1E1" stroke-miterlimit="10" d="M392.8,308.5c-2.3-0.7-4.6-1.4-6.9-2.1c-1.4-0.4-2.9-0.8-4.2-0.2
	c-0.9,0.4-1.6,1.3-2.1,2.1c-2.2,3.4-3.8,7-4.9,10.9c-0.6,2.4-1.2,5-3.2,6.4c-1.2,0.8-2.7,1-4.2,1.1c-1.8,0.1-3.7,0.1-5.1-1
	c-1.4-1.1,0-2.9-0.5-4.6c-1.5-4.9-9.5-3.8-12.5-7.9c-1.5-2.2-2.8-4.6-3.6-7.2c-1.2-3.5-1.6-7.7,0.4-10.8c0.8-1.2,1.8-2.2,2.5-3.5
	c3.8-6.7-4.1-15.2-1.7-22.5c0.5-1.5,1.4-2.8,1.8-4.4c0.7-2.4,0-5-0.5-7.4c-1.2-5.3-2-10.6-2.4-16c-0.2-2.4-0.2-5,1.2-7
	c0.7-1,1.7-1.7,2.3-2.7c1.3-2.3,0-5.2,0.6-7.8c0.8-3.6,4.9-5.4,7.4-8.1c2.4-2.6,4.3-6.6,7.8-6.4c1.8,0.2,3.3,1.6,4.8,2.6
	s3.7,1.7,5.1,0.5c0.8-0.7,1-1.8,1.2-2.9c0.6-3.1,1.2-6.3,1.8-9.4c0.2-1.3,0.5-2.6,1.2-3.8c0.6-1.1,1.6-2,2.3-3.1
	c1.4-2.3,1.2-5.2,1-8c-0.3-5.9,0.1-11.9,1.1-17.7c0.4-2.1,1.2-4.7,3.4-5c1.8-0.3,3.6,1.2,5.3,0.6"/>
<path fill="none" stroke="#E1E1E1" stroke-miterlimit="10" d="M393.6,147.3c-4.8-0.4-9.7-0.1-14.4,1c-1,0.2-2,0.5-2.7,1.2
	c-1.4,1.5-0.9,3.8-1,5.9c-0.6,6.3-8.5,9.1-11.2,14.8c-2.2,4.6,4.7,11.4,0.9,14.8c-3.9,3.6-11.1-3.9-14.9-0.2
	c-1.2,1.1-1.9,2.7-2.6,4.1c-1.5,3.2-3.1,6.5-4.6,9.7c-1.1,2.3-2.2,4.6-3.2,6.9c-5.9,13.6-8.7,28.5-8.1,43.3c0.1,3.3,0.4,6.5,0.5,9.8
	c0.1,3.1,0,6.1-0.1,9.2c-0.1,2.1-0.1,4.1-0.2,6.2c-0.2,5.7-0.3,11.5-1.3,17.2c-1.1,6.1-3.2,12.2-3.1,18.4c0.1,3.7,1,7.4,1.9,11
	c0.6,2.3,1.1,4.6,2.1,6.8c3.4,8,12.2,13.3,20.8,12.8c4.9-0.3,10.3-2.1,14.2,0.8c1.8,1.4,3.3,3.8,5.5,3.6c1-0.1,1.8-0.6,2.7-1.1
	c6.7-3.6,14.9-1.9,22.2,0"/>
<path fill="none" stroke="#E1E1E1" stroke-miterlimit="10" d="M357.9,376.6c2.9-2.6,5.9-5.1,8.8-7.7c1.8-1.6,3.6-3.1,5-5.1
	s3.8-4.6,2.5-6.6c-1.4-2.2-5.2-1.4-7.1-3.1c-4.6-4-9.6-7.8-15.7-7.3c-1.8,0.2-3.6,0.6-5.4,0.8c-8.3,0.8-16.5-3.6-21.5-10.3
	s-7.1-15.1-7.3-23.4c0-0.9,0-1.9,0.3-2.8c0.3-0.9,0.9-1.6,1.5-2.3c5.2-6.8,6.5-15.8,6.5-24.3s-1.3-17.1-0.6-25.6
	c0.5-5.6,1.7-11,3.5-16.3c0.4-1.3,0.9-2.6,0.8-3.9c-0.2-2.4-2.4-4.3-3-6.6c-0.6-2.4,0.3-4.8,0.7-7.3c0.6-4.1-0.4-8.2-0.9-12.3
	c-1.2-12,3.1-23.8,7.3-35.2c1.1-2.9,2.2-5.9,4.2-8.2c1.5-1.8,3.5-3.2,5-4.9c1.8-2,3-4.6,3.4-7.3c0.3-1.7,2.2-2.9,3.6-3.9
	c4.6-3.4,9.3-6.8,13.9-10.2c1.8-1.3,3.8-2.8,4.5-5c0.4-1.1,0.6-2.5,1.7-2.8c0.5-0.1,1,0,1.4-0.2c0.8-0.5,0.5-1.7,0.8-2.6
	c0.6-1.7,3-1.4,4.7-1.6c3.1-0.4,5.7-3.1,8.8-3c3.1,0.1,6,3.1,9,2.1"/>
<path fill="none" stroke="#E1E1E1" stroke-miterlimit="10" d="M347.5,376.3c3.5-4.1,5.8-9.2,6.4-14.5c0.1-0.5,0.1-1-0.1-1.5
	c-0.5-1.3-2.2-1.3-3.6-1.5s-1.6-1.4-2.3-2.6c-0.6-1.1-2.3,2.3-3.4,1.6c-1.5-1-1.3-3.2-3.1-3.2c-1.7,0-3.5,0.8-5.2,0.6
	c-1.5-0.2-2.8-1.2-3.9-2.3c-2.3-2.2-2.8-6.2-5.7-7.4c-1.2-0.5-1.2-0.9-1.9-2c-0.7-1.1-2.2-2-2.9-3c-1.5-2.1-4.3-2.9-6.1-4.8
	c-2.2-2.5-2.1-6.2-2.6-9.5c-0.6-3.7-2.4-7.3-2.3-11.1c0.1-4.4,2.5-8.3,3.7-12.5s0.6-9.7-3.3-11.6c-0.8-0.4-1.8-0.6-2.4-1.2
	c-0.9-0.9-1.1-2.3-1.2-3.6c-0.4-5.6-0.9-11.2-1.3-16.7c-0.1-1.2-0.2-2.4,0.3-3.5c0.6-1.5,2.1-2.5,3-3.8c1.5-2,1.7-4.6,3.1-6.7
	c0.8-1.2,1.9-2.1,2.9-3.2c3.4-3.8,4.4-9.6,2.5-14.4c-0.4-0.9-0.9-1.8-1.7-2.3c-1.7-1.1-4-0.3-5.5,1c-1.5,1.3-2.6,3.1-4.3,4.2
	c-2.6,1.8-6.4,1.6-8.8-0.5c-2.4-2.1-3.2-5.8-1.8-8.6c1.9-3.9,6.8-5.4,9.1-9.1c1.8-2.8,1.8-6.2,2.2-9.5c0.7-5.8,2.9-11.5,6.2-16.3
	c3.6-5.2,1-12.8,0.5-19.1c-0.2-1.8-0.4-3.6,0.1-5.4c0.2-0.8,0.6-1.6,0.7-2.4c0.2-1.6-0.6-3.1-1.2-4.6c-1-2.6-1.2-5.4-0.8-8.1
	c0.5-3.1,1.7-5.9,3.1-8.7c5.7-11.2,13.6-21.5,24.5-27.8c2.5-1.5,5.5-2.7,8.2-1.7c1.9,0.7,3.3,2.3,5.2,3c1.4,0.5,2.9,0.5,4.3,0.3
	c4.3-0.7,8.3-3,11-6.4c0.9-1.2,1.7-2.5,2.9-3.5c1.2-1,3,0,4.2-0.9c2.1-1.6,0.7-5.5,2.8-7.1c1-0.8,2.2-1.3,3.4-1.8
	c3.9-1.6,7.8-3.2,11.7-4.9"/>
<path fill="none" stroke="#E1E1E1" stroke-miterlimit="10" d="M326.3,377c5.7-11,3.5-29.1-7.3-36c-1.9-1.2-2.8-2.5-5-2
	c-1,0.2-1.6,1.8-3,2c-0.6,0.1-1.6-0.6-2-1c-9-8.7-9-21.5-11-34c-0.2-1-3.2-1.9-6-3c-0.5-0.2-1-1-1-2c0-5,4.6-10.1,3-16
	c-1.5-5.2-1.8-9.1-1-14c0.5-3.1,3.1-7,4-10c1.2-4-1-10.1-6-8c-7,2.9-16.1,9.8-22,1c-1.2-1.9-2.1-4-1-6c3.8-7.1,9.8-11.1,13-18
	c0.9-2,1-5,3-7c1-1,0.8-3,1-4c0.5-2.2,3.1-3,4-5c5.4-11.8,8.8-23.7,10-36c1.8-18.9,20.3-32.2,21-52c0-0.6-0.7-1.2-1.4-1.8
	c-3.6-3-9.2,2-13,4.7c-2.5,1.8-5.1,3.7-6.7,6.3c-1.6,2.6-2.1,5.7-2.5,8.8c-0.3,1.8-0.5,3.7,0.2,5.5c0.3,0.6,0.6,1.2,0.8,1.9
	c0.1,0.7,0,1.4-0.2,2.1c-1.4,5.7-2.9,11.4-4.3,17.1c-1,3.9-2,7.9-2.9,11.9c-1.8,8.1-3.2,16.4-4,24.7c-0.9,9-7.4,16.4-13.7,22.9
	c-0.3,0.3-0.7,0.7-1.1,0.8c-0.5,0.1-1-0.1-1.5-0.2c-4.5-1.5-9.5,0.3-13.2,3.2c-3.7,3-6.2,7-8.9,11c-2.6,3.9-5.5,7.9-9.4,10.4
	c-5.6,3.6-12.8,4-19.4,2.9c-5.1-0.8-10.3-2.3-15.3-1c-6.3,1.7-10.4,7.4-14.1,12.8c-1.4,2.1-2.9,4.4-2.6,6.8c0.4,3.9,5,6.4,5.7,10.3
	c0.3,1.8-0.3,3.6,0.1,5.4c0.3,1.6,1.5,3,2.1,4.6c0.5,1.4,0.6,2.8,0.7,4.3c0.3,4.7,0.9,10.6,0.5,14.1c-0.2,1.9-1,3.7-1.5,5.5
	c-0.2,0.6,0.1,3,0.3,3.6c0.5,1.6,0.4,3.2,0.2,4.9c-0.3,3.2-0.6,6.5-1.9,9.5c-0.9,2-2.3,3.9-3.2,5.9c-2.1,4.5-2.3,9.6-2.3,14.5
	c0,2.1,0.1,4.2,0.9,6.1c0.4,0.8,0.9,1.6,0.9,2.5c0,0.5,0,1,0,1.5c0.2,1.9,2.1,3.1,3.9,3.9c1.4,0.7,2.7,1.3,4.1,2
	c0.5,0.2,1.1,0.6,1.2,1.1"/>
<path fill="none" stroke="#E1E1E1" stroke-miterlimit="10" d="M286,350.5c-0.7,0.1-1.4,0.2-2,0.1c-0.6-0.1-1.2-0.5-1.7-0.9
	c-0.7-0.6-1.4-1.3-1.9-2.1c-0.3-0.4-0.5-0.9-0.9-1.3c-0.4-0.6-1-1.1-1.4-1.7c-0.5-0.6-1.2-1.5-0.8-2.1c0.3-0.5,1.1,0,1.6,0.4
	c0.5,0.3,0.8,0.8,1.2,1.2c2,2.1,4.9,3.4,6.1,6c0.1,0.2,0.1,0.4,0,0.5C286.2,350.5,286.1,350.5,286,350.5z"/>
<path fill="none" stroke="#E1E1E1" stroke-miterlimit="10" d="M179.4,255.7c-0.7-0.7-1.6-1.2-2.1-2c-0.2-0.5-0.3-1-0.4-1.5
	c-0.4-1.4-1.2-2.5-1.8-3.8c-1.8-4.1-0.6-8.8-1.3-13.2c-0.1-0.3-0.1-0.7-0.3-1c-0.5-0.9-1.7-1.2-2.6-1.8c-0.6-0.4-1.2-1-1.9-1
	c-0.5,0-0.9,0.2-1.3,0.3c-2,0.8-4.3-0.7-6.2,0.2c-1.1,0.5,0.2,2.3,0.9,3.3c1.6,2.2,3.3,4.5,3.7,7.2c0.1,1,0.1,1.9,0,2.9
	c-0.3,5.5-0.6,11.1-0.8,16.6c-0.1,1.2-0.1,2.4-0.4,3.6c-0.2,0.9-0.5,1.8-0.7,2.7c-0.4,1.5-0.9,2.9-1.2,4.4c-0.1,0.6-0.2,1.4,0.1,1.9
	c0.5,0.7,1.4,0.7,2.2,0.4s1.4-0.8,2.1-1.2c0.5-0.3,1.1-0.4,1.7-0.6c1.1-0.4,2.1-1,3.1-1.6c1-0.6,1.9-1.1,2.9-1.7
	c1.7-1,3.4-2,4.5-3.6c1.4-2.1,1.5-4.8,1.1-7.3C180.4,257.7,180.2,256.5,179.4,255.7z"/>
<path fill="none" stroke="#E1E1E1" stroke-miterlimit="10" d="M168.7,256.5c0,0.5,0.4,0.9,0.9,1c0.5,0.1,1.1,0.2,1.4-0.2
	c0.5-0.6,0-1.7-0.3-2.4c0-0.1-0.1-0.2-0.2-0.3c-0.2-0.2-0.6-0.2-0.9,0c-0.3,0.2-0.4,0.5-0.5,0.8C169,255.7,168.7,255.6,168.7,256.5z
	"/>
<path fill="none" stroke="#E1E1E1" stroke-miterlimit="10" d="M-7.2,309.6c10.3-0.9,19.3-6.8,27.9-12.5c6.9-4.6,13.9-9.3,19.7-15.3
	c5.3-5.6,18.4-14.9,18.8-11.2c0.2,2.2,1.3,3.4,3.8,2.2c1.5-0.7,3.4-0.6,4.8,0c2.2,1,2.6,4.2,4.7,5.5c1.5,1,3.4,0.8,5.2,1
	c6.2,0.7,10.7,6.3,16.5,8.6c5.5,2.2,11.7,1.2,17.6,0.1c9.5-1.7,19.2-3.4,28-7.4c8.8-4,16.8-10.6,20.5-19.6c4.5-11-9.8-22.2-6.1-33.5
	c2.3-7.1,14.8-2,22-0.3c1,0.3,2.1,0.6,3,1.3c1.3,1.1,1.7,2.9,1.9,4.6c0.7,6.3,0.3,14.4,6.1,17c6.4,2.9,12.8-4.6,19.7-5.4
	c5.4-0.6,10.5,2.7,15.9,2.7c6.5,0,11.8-4.7,17.2-8.4c7.4-5,15.7-8.5,23.2-13.3c7.5-4.8,14.5-11.4,16.8-20.1
	c2.7-10.1,0.9-20.9,3-31.1c0.9-4.4,2.6-8.5,4-12.7c5.2-15.4,7.6-31.7,7.1-47.9c-0.1-1.8-0.2-3.6-0.8-5.2c-0.5-1.3-1.2-2.4-2-3.6
	c-3.8-5.6-8.1-10.9-12.8-15.7c-1.9-2-4-3.9-5.7-6.1c-2.6-3.4-4.5-7.3-6.3-11.1c-3.4-7-6.9-14.1-12-19.9c-4.4-5.1-10-9.3-13.3-15.1
	c-1.7-3-2.9-6.5-5.9-8.2c-4-2.2-9.5-0.2-13.2-2.9c-1.1-0.8-1.9-2-3-2.9c-1.3-1.1-2.8-1.8-4.4-2.4c-6.5-2.8-16.3-2-19.5-8.3
	c-0.6-1.2-1.3-2.5-2.7-2.8c-1.4-0.3-2.9-0.5-3.8-1.6c-0.6-0.8-0.6-1.8-1.1-2.6c-0.8-1.3-2.7-1.5-3.8-2.5c-1.1-1-1.5-2.7-2.8-3.5
	c-0.9-0.6-2-0.5-2.9-1.1c-1.5-0.9-1.9-2.9-3.5-3.7c-0.8-0.4-1.8-0.4-2.5-1c-1.2-1-0.8-3.2-2.1-4c-0.9-0.5-2.2,0-3.2-0.5
	c-1.3-0.7-1.2-2.6-2-3.9c-0.5-0.8-1.3-1.3-2-1.9c-1.5-1.3-2.6-3.4-4.6-3.9c-1-0.3-2.2-0.1-3.2-0.2c-3.1-0.3-5.5-3.6-4.8-6.6"/>
<path fill="none" stroke="#E1E1E1" stroke-miterlimit="10" d="M169.3-24.4c2.4,4,4.7,8.1,7.1,12.1c1.7,2.8,3.5,5.9,6.6,7
	c2.2,0.8,5.3,0.9,6.1,3.1c0.5,1.5-0.2,3.6,1.1,4.5c0.8,0.6,1.8,0.3,2.8,0.3c4.8-0.1,7.5,5.9,12.1,7.3c1.7,0.5,3.4,0.4,5.2,0.4
	c11.1,0,21.3,5.5,31.1,10.8c2.6,1.4,5.2,2.8,7.3,4.9c2.6,2.6,4.3,5.9,6,9.2c3.4,6.4,7,12.6,10.8,18.8c1.4,2.3,2.9,4.7,4.3,7
	c4.4,7.1,9,14.2,14.1,20.8c4.9,6.4,10.3,12.5,16.6,17.5c6.3,5.1,13.6,9.3,18.6,15.7c1.1,1.4,2.1,2.9,3.7,3.8
	c2.7,1.5,6.3,0.3,8.6-1.8s3.8-4.9,5.6-7.4c3.8-5.2,10.9-9.5,16.5-6.3c1.4,0.8,2.6,2,4.1,2.7c5,2.2,10.2-2.5,14.3-6.2
	c6.3-5.6,14.1-9.3,21.7-13"/>
<path fill="none" stroke="#E1E1E1" stroke-miterlimit="10" d="M177.2-21.8c0.2-0.4,0-1.3-0.4-1.1c-0.9,0.5-0.4,2.1,0.1,3
	c0.6,1.1,2.1,1.4,3,2.2c1,1,1.3,2.6,2.6,3.2c0.3,0.1,0.6,0.2,0.9,0.3c1.5,0.8,0.9,3.5,2.4,4.2c1,0.4,2-0.4,2.7-1.1
	c0.8-0.7,1.5-1.5,2.3-2.2c0.2-0.2,0.3-0.3,0.5-0.5c0.6-0.9-0.1-2.1-0.6-3c-0.5-1.1-0.8-2.4-0.7-3.6c0-1.2,0.3-2.6-0.3-3.6"/>
<path fill="none" stroke="#E1E1E1" stroke-miterlimit="10" d="M183.8-22.4c0.8,0.2,1.3,1.1,1.5,1.9c0.2,0.8,0.1,1.7,0.4,2.5
	c0.3,0.8,1.2,1.5,2,1.2c0.5-0.2,0.8-0.7,0.9-1.1s0-1-0.1-1.5c-0.4-1.6-1.1-3.2-2.1-4.5"/>
<path fill="none" stroke="#E1E1E1" stroke-miterlimit="10" d="M190.7-9.8c0,0.8,0.7,1.5,1.5,1.4c0.8-0.1,1.4-0.9,1.2-1.6
	c-0.1-0.5-0.5-1-1-1.2c-0.2-0.1-0.5-0.2-0.8-0.1c-0.2,0.1-0.4,0.3-0.6,0.5C190.8-10.5,190.7-10.1,190.7-9.8z"/>
<path fill="none" stroke="#E1E1E1" stroke-miterlimit="10" d="M201.3-3.2c-1.5-0.8-2.5,0.6-1.2,1.6c0.4,0.3,1.6,0.4,1.7,0
	C201.9-2.1,201.7-3,201.3-3.2z"/>
<path fill="none" stroke="#E1E1E1" stroke-miterlimit="10" d="M219-0.8c0.5,0.6,1.5,0.2,2.2-0.1c0.9-0.4,1.8-0.6,2.5-1.3
	c0.2-0.2,0.3-0.4,0.3-0.6c0-0.4-0.4-0.6-0.7-0.7c-1-0.2-2,0.2-2.9,0.5c-0.5,0.2-0.9,0.4-1.3,0.8C218.9-1.8,218.7-1.2,219-0.8z"/>
<path fill="none" stroke="#E1E1E1" stroke-miterlimit="10" d="M228-1.9c0.6,0.8,1.7,1.1,2.6,0.7c0.1,0,0.2-0.1,0.3-0.2
	c0.4-0.3,0.4-0.9,0.2-1.4s-0.7-0.7-1.1-1c-0.5-0.3-1.1-0.6-1.6-0.4C227.6-3.8,227.5-2.6,228-1.9z"/>
<path fill="none" stroke="#E1E1E1" stroke-miterlimit="10" d="M194.5-23.4c-0.2,4.3-0.5,10.8,3.5,12.2c1.7,0.6,3.7-0.5,5.4,0.2
	c0.7,0.2,1.3,0.6,2,0.6c1,0,1.8-0.7,2.6-1.3c2.2-1.5,4.8-2.4,7.5-2.4c1.1,0,2.2,0.1,3-0.7c0.5-0.5,0.7-1.2,1-1.8
	c1.1-2.5,3.4-4.3,6.1-4.8c2.6-0.5,5.5,0.5,7.3,2.5c0.4,0.4,0.8,0.9,1.3,1.1c1.1,0.5,2.3-0.4,3.5-0.9c2.9-1.4,6.3-0.3,9.4,0.7
	c5.6,2,11.3,4,16.9,6c2.4,0.9,4.9,1.7,7.5,1.5c2.2-0.2,4.3-1.2,6.5-0.7c1.5,0.3,2.7,1.3,3.9,2.2c2.7,2.2,4.5,7.9,7.9,7.1
	c1.5-0.3,2.5-1.8,3.9-1.1c1.3,0.7,2.2,2.1,3,3.3s1.8,2.6,3.3,3c1.1,0.4,2.5,0.1,3.5,0.7c0.6,0.4,1.1,0.9,1.5,1.5
	c1.6,2.1,2.2,5.6,4.7,6.3c2.5,0.7,5.2-0.9,7.6,0.1c2.7,1.1,5.5,3.4,8.1,2.1c1-0.5,1.8-1.5,2.2-2.6c1.2-2.5,1.4-5.3,0.7-8
	c-0.6-2-1.7-4-1.2-6.1c0.3-1.3,1.3-2.4,1.6-3.8c0.5-2.6-1.6-4.8-2.7-7.2c-1.2-2.8-1-6.2,0.7-8.8"/>
<path fill="none" stroke="#E1E1E1" stroke-miterlimit="10" d="M298.3-25c-0.4-0.2-0.7,0.5-0.6,1c0.2,4.1,1.1,8.2,2.7,12
	c0.2,0.6,0.5,1.1,1,1.5c0.7,0.6,1.7,0.7,2.5,0.9c2.3,0.7,3.9,2.6,5.6,4.2c0.9,0.9,2.1,1.7,3.2,1.1c1.2-0.6,0.9-2.4,0.1-3.5
	c-1.3-1.9-3.5-3-5.4-4.3c-0.3-0.2-0.5-0.4-0.6-0.7c0-0.3,0.2-0.5,0.4-0.7c1.3-1.5,2.6-3,3.9-4.5c0.8-0.9,1.5-1.8,1.9-2.9
	s0.1-2.5-0.9-3.1"/>
<path fill="none" stroke="#E1E1E1" stroke-miterlimit="10" d="M345.9-23.8c-0.1,1.9,0,3.9,1,5.5c0.9,1.6,2.9,2.8,4.7,2.3
	c1.1-0.3,2-1.2,3.1-1.7c2-1,4.4-0.7,6.6-1c2.2-0.4,4.2-1.4,6.4-1.7c1.8-0.3,3.7-0.1,5.5-0.3s3.7-0.9,4.7-2.5"/>
<path fill="none" stroke="#E1E1E1" stroke-miterlimit="10" d="M339.7-22.8c0.8,2.5,1.1,5.1,1.4,7.7c0.4,3.3,0.7,6.5,0.6,9.8
	c0,1.3-0.1,2.9,0.9,3.8c0.9,0.8,2.4,0.6,3.5,0.3c1.8-0.6,3.5-1.5,5.3-2.2c1.9-0.8,3.9-1.4,5.9-2c2.3-0.7,4.7-1.4,7-2.1
	c3.1-0.9,6.2-1.9,9.3-2.8c2-0.6,3.9-1.2,5.9-1.5c1.8-0.3,3.8-0.3,5.4-1.2c1.7-0.9,2.8-2.6,4.1-4.1c1.3-1.5,2.9-2.9,4.9-2.8"/>
<path fill="none" stroke="#E1E1E1" stroke-miterlimit="10" d="M333.8-23.6c-1.4,3.3,0.5,6.9,1.7,10.2c2.1,6.2,1.7,12.9,1.3,19.4
	c-0.4,6.1-0.8,12.1-1.2,18.2c-0.1,1.6-0.4,3.5-1.7,4.4c-2.3,1.5-4.9-1.1-7.4-2.1c-5.9-2.3-13.8,3.9-18.2-0.6c-0.9-1-1.5-2.3-2.7-3
	c-1.6-1-3.7-0.2-5.6-0.3c-3.6-0.2-6.2-3.4-8.3-6.3c-3.4-4.6-6.8-9.2-10.1-13.8c-1-1.4-2.1-2.8-3.6-3.5c-3.5-1.6-7.5,1-11.4,1.2
	c-4.3,0.2-8-2.6-11.3-5.3c-3.5-2.8-6.1-7.7-10.5-8.4c-1.5-0.2-1.3,3.2-2.8,3.4c-1.6,0.1-2.6-2-4.1-1.5c-1.5,0.5-2.2,3.2-3.7,2.9
	c-2.3-0.4-1.7-4.5-3.7-5.9s-5.1-1.1-6,1.1c-0.8,2,0.2,5-1.7,5.8c-1.3,0.6-2.7-0.5-4-0.8c-3.6-0.8-6.2,4-9.9,4.3
	c-0.9,0.1-1.9-0.1-2.8,0.2c-1.9,0.9-1.5,3.7-0.5,5.5s-0.4,4.6,1.3,5.8c1.6,1.1,2.5-3.1,4.2-3.9c1.8-0.8,4.2-0.5,5.2,1.1
	c0.4,0.7,0.6,1.5,1.3,1.8c0.6,0.3,1.3,0,1.9-0.2c7.1-2.1,13.8,3.7,20.8,5.9c5.9,1.8,9.4,8.1,13.6,12.7c1.8,2,3.6,4.1,4.9,6.6
	c2.1,4,2.8,8.8,5.7,12.2c3.7,4.5,9.7,7.1,11.2,12.8c2.2,7.7,7.5,14,11.3,21c0.5,0.9,1.1,1.9,2,2.3c0.8,0.3,1.6,0.2,2.4,0.4
	c2.5,0.4,4.3,2.6,6,4.4c7.2,7.7,17.5,11.8,27.5,15.1c4.1,1.4,8.7,2.6,12.7,0.9c0.8-0.3,1.5-0.8,1.9-1.5c0.4-0.7,0.5-1.6,0.5-2.4
	c0.4-5.6,1.4-11.2,3.1-16.6c1-3.1,3.3-6.9,6.5-6c1.4,0.4,2.4,1.6,3.3,2.6c2.8,3.2,6.1,6,9.4,8.8c3.3,2.8,7.8,5.8,11.6,3.9
	c1.2-0.6,2.1-1.5,3.4-1.8c1.2-0.3,2.6,0.1,3.8-0.4c1-0.5,1.6-1.6,2.2-2.6c2.2-3.5,6.1-5.7,10.2-5.8"/>
<path fill="none" stroke="#E1E1E1" stroke-miterlimit="10" d="M392.7,64.8c-1.4-1.2-2.9-2.4-4.5-3.3c-1.1-0.6-2.4-1.1-3.4-1.9
	c-0.8-0.6-1.6-1.3-2.3-2c-5.2-4.6-11.9-7.4-16.6-12.5c-0.4-0.4-0.8-0.9-1.1-1.5c-0.3-0.6-0.4-1.2-0.5-1.8c-0.6-3.3-2.4-6.9-5.7-7.4
	c-0.7-0.1-1.5-0.1-2.3-0.2c-1.8-0.3-3.3-1.7-4.2-3.2c-0.9-1.6-1.4-3.4-1.8-5.2c-0.2-0.7-0.3-1.4-0.1-2.1c0.3-0.6,0.9-1,1.5-1.3
	c2.4-1.4,4.9-2.8,7.6-3.6c0.8-0.2,1.5-0.4,2.3-0.7c3.8-1.8,4-7.7,7.6-9.9c1-0.6,2.2-0.9,3.4-1.2c1.9-0.4,3.9-0.9,5.8-1.3
	c1.2-0.3,2.4-0.6,3.3-1.4c0.9-0.8,1.4-2,2.3-2.7c1.3-0.9,3.1-0.6,4.6-1.2c2.3-0.9,3.6-3.9,6-4.2"/>
<path fill="none" stroke="#E1E1E1" stroke-miterlimit="10" d="M394.1,19.1c-0.6-0.5-1.6-0.5-2.3,0c-0.7,0.4-1.2,1.1-1.7,1.8
	c-0.8,1-1.5,2.1-2.3,3.1c-0.4,0.5-0.8,1.1-0.9,1.7c-0.3,1,0.1,2,0.2,3.1c0.1,2.2-1.2,4.1-2.3,5.9c-1.1,1.8-2.2,4-1.7,6
	c0.5,1.9,2.4,3.3,3.1,5.1c0.3,0.9,0.4,1.8,0.8,2.6c1.2,2.6,4.6,3.2,7.5,3.5"/>
<path fill="none" stroke="#E1E1E1" stroke-miterlimit="10" d="M375.4,73.9c2.6-0.9,6.7-2.4,7.6-5.9c0.1-0.5-0.6-1.6-1-2
	c-5.5-5.2-14.5-4.5-20-10s-15.1-9.2-22-6c-4.1,1.9-6.8,7.8-11,4c-6.8-6.3-13-13.5-23-14c-4-0.2-9.2,0.8-12-2c-2.1-2.1-4-4-4.4-8.3
	c-0.3-3.2-0.6-6.6-2.4-9.3C283,14,280.9,6.6,275.8,0.8c-2.2-2.4-5.3,3.1-7.5,5.5c-2.5,2.8-7.2,4-10,1.5c-1.2-1.1-1.8-2.6-2.6-4
	c-2-3.6-5-6.5-8-9.3c-0.5-0.5-1.1-1-1.8-1c-1.2,0-1.7,1.5-2.3,2.6c-1.4,2.5-6.9,1.3-7.3,4.1c-0.2,1.8,1.5,3.1,1.4,4.9
	c-0.1,1.8,0.5,4.2,2.4,4.3c0.5,0,0.9-0.1,1.4-0.1c1.5,0,1.3,1.8,2.2,3.1c0.6,0.9,2.8-0.9,3.4,0.1c1.1,1.7,0.7,4.1,2.6,5
	c1.9,0.8,4.5-0.8,6.1,0.5c1.6,1.3,0.7,5,2.7,5.6c2.2,0.7,6.3-0.4,6.5,2c0.2,1.8,0.9,2.4,2.2,3.5c1.9,1.6,0,5,0.1,7.5
	c0,1,0.2,2.2,1.1,2.5c0.5,0.2,1,0,1.6,0c3.6,0,4.6,5.6,8.1,6c2.7,0.3,1.2,6,3.8,7c0.5,0.2,1.2,0.2,1.6,0.7c0.4,0.4,0.3,1,0.3,1.5
	c-0.1,3.8-1,9.2,2.3,10.9c2.7,1.4,3.7,4.9,6.6,5.6c0.7,0.2,1.5,0.1,2.2,0.2c2.3,0.3,3.5,2.7,5.1,4.3c2.1,2.1,5.1,3.1,7.9,3.9
	c4.3,1.2,8.7,2.2,13.2,3c3.9,0.7,8.9,0.7,10.9-2.8c1-1.8,0.8-4,1.2-6.1c0.8-4.1,4.2-7.2,7.3-10c1-0.9,2-1.8,3.3-2.4
	c3.1-1.3,6.6-0.2,9.6,1.3c3.5,1.8,6.7,4,9.6,6.7c1.8,1.6,3.4,3.4,5.4,4.6C370.3,74.6,373.2,74.7,375.4,73.9z"/>
<path fill="none" stroke="#E1E1E1" stroke-miterlimit="10" d="M242.8,5c0.3,0.7,1.2,0.5,1.9,0.6c1,0.2,1.6,1.3,2.7,1.5
	c0.5,0.1,1-0.1,1.5-0.2c0.5-0.1,1.1-0.1,1.4,0.3c0.1,0.1,0.2,0.3,0.3,0.5c0.4,0.7,1.6,1.4,2.1,0.7c0.5-0.6-0.5-1.4-1.2-1.8
	c-0.6-0.4-1.4-0.9-1.5-1.7c-0.1-0.5,0.1-1.1-0.1-1.6c-0.4-0.8-1.5-0.7-2.3-1.2c-0.6-0.4-0.8-1-1.2-1.6c-0.4-0.6-1.1-1-1.7-0.7
	c-0.4,0.2-0.6,0.7-0.7,1.1c-0.3,1.1-0.7,2.1-1,3.2C242.8,4.5,242.7,4.8,242.8,5z"/>
<path fill="none" stroke="#E1E1E1" stroke-miterlimit="10" d="M280.9,32.3c-0.7-2.1-0.7-4.3-0.9-6.4s-0.8-4.4-2.3-6
	c-1.4-1.4-3.4-2.1-4.5-3.7c-1.4-2.1-0.9-4.8-0.9-7.3c0-0.3,0-0.6-0.2-0.8c-0.2-0.2-0.5-0.2-0.8-0.1c-2.2,0.3-1.3,3.5-2.9,5
	c-1.1,1.1-3.4,0.2-3.8,1.8s1.5,1.6,2.9,2.4c1.3,0.8,1.7,2.5,2.9,3.4c2.6,1.9,4.4,5,4.8,8.2c0.1,1,0.1,2,0.6,2.9
	c0.3,0.4,0.6,0.7,0.9,1.1c0.9,1,1.4,2.3,2.1,3.5c0.7,1.2,1.7,3.1,3,2.6C283.9,37.9,281.6,34.5,280.9,32.3z"/>
<path fill="none" stroke="#E1E1E1" stroke-miterlimit="10" d="M310.2,56.2c0.2-1.1-0.6-2.3-1.6-2.6c-0.6-0.2-1.2-0.2-1.7-0.3
	c-0.6-0.1-0.8-0.7-1.2-1.1c-0.5-0.5-1.5-0.1-2.2-0.2c-0.8-0.1-1.8,0-2.2,0.7c-0.3,0.6,0,1.3,0.6,1.7c0.6,0.4,1.4,0,1.9,0.4
	c0.1,0.1-0.1,0.3,0,0.5c0.4,0.7,1.4,0.7,2.1,1c0.6,0.3,1.2,0.6,1.9,0.7c0.7,0.1,1.4-0.1,2.1-0.2c0.1,0,0.2-0.1,0.3-0.2
	C310.2,56.4,310.2,56.3,310.2,56.2z"/>
<path fill="none" stroke="#E1E1E1" stroke-miterlimit="10" d="M321.7,68.9c0.6,0.1,1.3,0.1,1.9,0c1.7-0.6,2.1-2.9,1.4-4.6
	c-0.7-1.7-2.1-2.9-3.1-4.5c-0.7-1.2-1.3-2.6-2.4-3.5c-1.9-1.5-4.8-1.1-6.6-2.6c-1.3-1.2-1.6-3.1-2.8-4.3c-2.7-2.9-8.1-1.1-11-3.8
	c-0.6-0.5-1-1.2-1.6-1.7c-1.1-0.8-2.5-0.8-3.8-0.8c-1.9,0-4.6-1.6-5.6,0c-3,4.6,0.4,13,5.3,15.6c1.5,0.8,3.4,0.9,3.8,2.6
	c0.2,0.7,0.2,1.6,0.8,2c0.9,0.6,2.1-0.3,3.2-0.5c1.2-0.2,2.3,0.5,3.2,1.4c0.8,0.8,1.5,1.9,2.6,2.5c1,0.6,2.2,0.8,3.3,1
	C314.1,68,317.9,68.5,321.7,68.9z"/>
<path fill="none" stroke="#E1E1E1" stroke-miterlimit="10" d="M138.5-22.7c10.2,4.4,18.8,12.3,24.2,22c1.9,3.4,3.7,7.4,7.4,8.8
	c2,0.7,4.3,0.7,5.9,2c2.3,1.9,2.1,5.6,4.2,7.6c1.4,1.3,3.4,1.5,5.2,2.1c1.8,0.6,3.4,1.7,5,2.7c6,4,13.5,17.5,18.1,12
	c1-1.2,0.3-3.2,1.9-3.2s2.8,1.3,3.6,2.6c0.8,1.3,1.5,2.8,2.7,3.7c2.1,1.6,5.1,1.1,7.8,1.4c6.5,0.6,11.3,5.9,15.5,10.9
	c4.7,5.6,9.6,11.5,11.4,18.6c0.9,3.7,1,7.6,2.6,11c1.1,2.4,3,4.5,4.8,6.5c6.2,6.8,12.3,13.6,18.5,20.4c3.7,4.1,7.5,8.3,9,13.6
	c2.5,8.4-1.4,17.3-5.1,25.2c-2.4,5-4.7,10-7.1,15.1c-1.2,2.5-2.3,5-3,7.7c-0.6,2.5-1.6,4.9-1.4,7.5c1.3,17.9-3.5,36.8-18.3,47
	c-2.4,1.6-4.9,3.1-7.7,3.8c-2.9,0.7-5.9,0.6-8.8,1.5c-6.5,2-11.5,8.9-18.3,8.4c-4.4-0.3-7.8-3.7-11.4-6.2c-3.6-2.5-7.9-2.9-12.1-1.5
	c-2,0.7-3.1-2.7-3.1-4.9c0-2.1,0.4-4.5-0.9-6.2c-2-2.5-5.9-1.5-9-0.7c-14.8,3.9-31.9-4-38.5-17.9c-4-8.5-5.9-26.8-14.5-23
	c-4.2,1.9-0.2,9.3,2.3,13.2c2.5,3.9,5.9,7.3,8,11.4c4.3,8.4,2.9,18.8,6.5,27.6c1.3,3.3,3.3,6.3,4.2,9.8c1.8,7.5-2.4,15.3-7.7,20.9
	c-5.3,5.6-11.9,10-16.8,16.1c-0.9,1.1-1.7,2.2-2.8,3c-1.2,0.8-2.6,1.2-4,1.7c-3.6,1.1-7.2,2.5-10.9,2.8c-3.8,0.3-7.9-0.8-10.2-3.8
	c-1.4-1.8-2.1-4.2-3.8-5.6c-1.5-1.2-3.5-1.6-5.4-1.8c-5.9-0.8-12.4,1.2-17.9-1.1c-2.6-1.1-3.2-5-5.8-6c-7.9-3.2-16.4,4.3-23.9,8.3
	c-17.2,9.2-34.1,18.9-50.8,28.8"/>
<path fill="none" stroke="#E1E1E1" stroke-miterlimit="10" d="M-7.6,281.5c0.2,0,0.5-0.1,0.7-0.3c12.6-12,32.8-12.1,49.1-18.4
	c5.2-2,10.5-4,16-4.3c1.6-0.1,3.3,0,4.9,0.1c7.8,0.3,15.6,0.7,23.4,1c3,0.1,6.2,0.3,8.9,1.7c3,1.6,5.2,4.6,8.3,5.8
	c4.4,1.6,9.3-0.9,12.4-4.3c3.1-3.5,5-7.8,7.7-11.6c1.7-2.4,3.8-4.6,5.3-7.2c3.4-6,3.2-13.5,1.7-20.2c-1.9-8.5-5.4-16.4-9-24.3
	c-2.4-5.3-4.7-10.5-7.1-15.8c-1.7-3.8-3.5-7.7-5.8-11.1c-4.9-7.2-10.9-11-18-16c-1.4-1-5.6,1.1-6.2-0.5c-2.6-8-8.8-11.6-16.1-11.2
	c-3.6,0.2,1.2-6.8,4.6-7.9c5-1.6,4.8,3.4,5.9,7c1.2,4.2,8.7-6.6,11.2-3c2,2.9,5.5,9.6,10.6,11.8c14.1,6,31.1,6.9,41.8,17.9
	c3.8,3.9,6,9,8.7,13.7c5.1,8.9,12.4,16.6,20.9,22.3c1,0.7,2.1,1.3,3.3,1.4c1.5,0.1,3-0.7,4.3-1.5c3.3-2,6.2-7.4,9.8-5.9
	c3.7,1.5,2.6,7.9,5.6,10.5s7.7-0.2,11.2,1.8c5.3,3.1,6.5,10.6,12.7,10.8c6.1,0.2,11.9-2.5,17.7-4.6c3.8-1.3,7.7-2.4,11-4.7
	c5.7-4,8.4-11,10.1-17.7c3.8-15.2,3.9-31.4,9.6-46c3.8-9.9,10.1-20.9,5.2-30.3c-4.9-9.4-18.5-11.4-23.6-20.8
	c-2.8-5.1-4-10.9-5.1-16.6c-0.6-3.1-3.1-5.4-4.1-8.4c-0.7-2.1-0.6-4.3-0.9-6.4c-0.8-5.8-4.5-11.1-9.6-13.8c-2-1-4.2-1.7-6.3-2.6
	c-6.4-2.7-11.7-7.7-18.4-9.6c-2.3-0.7-4.6-0.9-6.8-1.8c-1.9-0.7-3.7-1.9-5.4-3c-2.6-1.7-5.3-3.5-7.9-5.2c-1.7-1.1-3.5-2.3-4.9-3.8
	c-3.6-4-4.8-10.5-9.8-12.3c-2.2-0.8-4.8-0.5-6.9-1.6c-3.8-2.1-3.8-7.8-6.7-11c-1.8-2-4.7-2.9-6.5-4.9c-0.8-0.9-1.4-2-2.1-3
	c-5.3-8.2-16.4-12-19.8-21.1"/>
<path fill="none" stroke="#E1E1E1" stroke-miterlimit="10" d="M229.2,123.4c0.9-1.6,2-3,3.2-4.3c1.1-1.3,2.2-2.6,3.6-3.3
	c1-0.5,2.1-0.8,3.1-1.3s1.7-1.7,1.4-2.8c-0.2-0.7-0.8-1.1-1.1-1.7c-0.4-0.7-0.6-1.4-1-2.1c-1.1-1.8-3.6-2.2-5.7-2.1
	c-5.1,0.2-9.9,2.1-14.7,3.9c-2,0.8-4.1,1.6-5.5,3.1c-1.4,1.6-2,4.2-0.7,5.8c0.2,0.3,0.5,0.5,0.5,0.8c0.1,0.4-0.1,0.7-0.3,1.1
	c-0.7,1.4-1.4,2.8-2.1,4.1c-0.4,0.8-0.8,1.5-1.4,2.2c-1,1-2.5,1.5-4,1.7c-3,0.5-6.2,0.1-9.1-1c-1.5-0.6-3-1.4-4.5-1.8
	c-1.6-0.4-3.4-0.4-4.7,0.6c-0.6,0.4-1.2,1.1-1.9,1.2c-0.8,0.1-1.7-0.5-2.4-0.1c-0.5,0.3-0.6,1.2-0.2,1.7c0.3,0.5,1,0.8,1.6,1
	c1.1,0.3,2.4,0.4,3.5,0.2c1.2-0.2,2.4-0.7,3.5-0.2c1.8,0.7,2,3,2.6,4.8c0.8,2.3,2.9,4,5.2,4.6c1.4,0.3,2.9,0.2,4.1,0.8
	c0.4,0.2,0.8,0.5,1.2,0.6c0.7,0.1,1.3-0.2,1.9-0.5c3.2-1.7,6.1-4.1,8.3-7c0.7-1,1.6-2.1,2.8-2.2c0.5,0,1.1,0.1,1.6,0.2
	c1.8,0.2,3.3-1.1,4.8-2c1.7-1,3.5-1.8,4.8-3.3C228.3,125.2,228.7,124.3,229.2,123.4z"/>
<path fill="none" stroke="#E1E1E1" stroke-miterlimit="10" d="M117.1-21.5c12.8,10.9,25.7,21.9,36.1,35.1c1.4,1.8,2.8,3.7,4.3,5.4
	c1.3,1.4,2.7,2.8,4.1,4.1c6.7,6.4,13.4,12.8,20.1,19.2c2.1,2,4.2,4,6.6,5.7c2.8,2,5.8,3.5,8.8,5.1c4,2,8,4,12,6
	c5.1,2.6,10.2,5.2,14.4,9.1c4.2,3.9,7.2,9.3,7.1,15c-0.1,2.3-0.7,4.7-2.2,6.5c-0.9,1.1-2.1,1.9-3.2,2.7c-3.8,2.4-8.1,4.1-11.9,6.7
	c-3.8,2.6-7.1,6.2-7.7,10.7c-0.2,1.8-0.3,4.1-2,4.9c-0.6,0.3-1.4,0.2-2.1,0.2c-4.1,0-8,1.8-11.9,2.9c-8.8,2.4-18.6,1.1-26.9,4.8
	c-4.1,1.8-8.1,4.9-12.6,4.5c-0.7-0.1-1.5-0.2-2.1,0c-0.5,0.2-0.9,0.6-1.3,0.9c-3.6,2.6-9-1.4-12.9,0.7c-4.7,2.4-11.2,3.1-16.4,2.4
	c-4.7-0.6-9-2.7-13.1-5.1c-2.3-1.4-4.5-3.1-5.5-5.5c-0.5-1.5-0.6-3.2-1.5-4.4c-0.8-1.1-2.2-1.6-3.4-2.3c-2.5-1.6-4.1-4.4-4.2-7.4
	c0-0.9,0.1-1.9-0.4-2.6c-1.1-1.8-3.8-0.9-5.8-0.6c-3.8,0.5-7.3-1.9-10.7-3.5c-3.5-1.6-8.2-2.2-10.5,0.8c-0.7,0.9-1,2-1.3,3.1
	c-2.2,7.5-8.8,15-6.5,22.5c1.9,6.1,3.3,11.8-1.1,16.4c-5.6,5.8-4.2,15.9-0.6,23.1c0.5,1.1,1.2,2.2,1.4,3.4c0.3,1.2,0.2,2.5,0.4,3.8
	c0.3,1.9,1.5,3.5,2.5,5.1c2.2,3.3,4.5,6.5,6.7,9.8c1.4,2.1,2.9,4.2,4.8,5.8c2.3,1.9,5.1,3,7.8,4.1c10.6,4.6,20.2,11.2,28.3,19.5
	c0.9,1,1.9,1.9,2.4,3.2c0.7,1.5,0.7,3.2,0.7,4.8c0,6.5-0.9,13-2.5,19.3c-0.7,3-1.9,6.2-4.5,7.7c-3.6,2.1-8.2,0.3-12.2-1.1
	c-5.5-1.8-11.6-2.5-17.3-1.3c-2.7,0.6-5.5,1.6-8.1,0.6c-2.1-0.8-3.8-2.7-6.1-2.8c-2.3,0-4.1,1.9-6.2,2.8c-1.5,0.6-3.2,0.6-4.9,0.7
	c-6.1,0.1-12.3,0.1-18.4,0.2c-3.4,0-6.7,0.1-10,0.9C7,254.5-1,264.7-12,265.8"/>
<path fill="none" stroke="#E1E1E1" stroke-miterlimit="10" d="M-7.8,246.1c3.6-2.7,7.1-5.5,10.7-8.2c2.2-1.7,4.4-3.4,7.1-3.9
	c1-0.2,2.1-0.2,3.1-0.6c1.6-0.6,2.6-2.1,4-3.1c1.5-1,3.4-1.4,5.2-2c5-1.9,8.4-6.6,10.7-11.4c0.8-1.7,1.9-3.7,3.7-3.8
	c0.5,0,1.4-0.3,1.1-0.7c-1.1-1.2-2.7-2.7-1.9-4.2c0.2-0.5,0.7-0.8,0.8-1.4c0.1-0.4,0-0.8-0.2-1.1c-0.9-2.9-1.8-5.7-2.7-8.6
	c-0.8-2.4-1.5-4.8-2.8-7c-1.4-2.4-3.4-4.4-5.4-6.4c-2-2-4-4-5.9-6c-1.1-1.1-2.3-2.3-3.6-3.1c-1.1-0.7-2.3-1.1-3.4-1.7
	c-2.7-1.2-5.2-2.8-7.4-4.7c-0.8-0.7-1.6-1.5-2.7-1.7c-0.7-0.2-1.5,0-2.2-0.3c-1.1-0.4-1.7-1.5-2.3-2.4c-2.4-3.7-6.3-6.4-10.7-7.4"/>
<path fill="none" stroke="#E1E1E1" stroke-miterlimit="10" d="M-7.3,193.5c2.8,3.4,5.1,7.2,6.8,11.2c0.2,0.4,0.3,0.8,0.3,1.3
	c-0.1,0.6-0.5,1.1-0.8,1.5c-1.4,2.1-1.2,4.8-1.5,7.2c-0.5,4.6-3.1,8.9-6.8,11.6"/>
<path fill="none" stroke="#E1E1E1" stroke-miterlimit="10" d="M4.7,119.2c-0.3,0.2-0.6,0.2-0.9,0.4c-1.1,0.6-1.1,2.2-0.9,3.5
	c0.3,2,0.7,4,1.2,6c0.1,0.5,0.3,1.1,0.8,1.4c0.3,0.1,0.6,0.1,0.9,0.1c2.3-0.4,3.6-2.9,5.7-3.8c3.2-1.3,6.6,1.5,9.9,1.3
	c1.3-0.1,2.5-0.6,3.7-0.8c1.2-0.2,2.5-0.1,3.4-0.8c1.3-1.1,1.1-3.2,0.4-4.8c-0.7-1.6-1.6-3.2-1.3-4.9c0.1-0.6,0.4-1.2,0.4-1.9
	c0-1.3-1.2-2.3-2.5-2.7c-0.5-0.1-1-0.2-1.3-0.6c-0.4-0.5-0.3-1.2-0.3-1.8c0-0.9-0.2-1.8-0.7-2.6c-0.1-0.2-0.3-0.4-0.5-0.5
	c-0.2,0-0.4,0.1-0.6,0.3c-1.2,1.2-1.9,3-3.4,3.6c-1.7,0.7-4,0-5.2,1.4c-0.5,0.6-0.6,1.4-1.1,2c-1.5,2-5.4,0.6-6.7,2.7
	C5.4,117.7,5.4,118.7,4.7,119.2z"/>
<path fill="none" stroke="#E1E1E1" stroke-miterlimit="10" d="M-7,116.3c3.1-7.5,9.7-12.9,16-18c5.4-4.3,11.4-8.9,18.4-8.7
	c2.5,0.1,5,0.7,7.4,0.1c2.7-0.7,4.7-2.8,6.9-4.4c6-4.4,13.9-5.1,21.3-5.1c10,0,20.4,1,29.2,5.7c12.7,6.8,20.9,20.4,34.1,26.1
	c11.4,5,24.5,3.1,36.7,1c11.3-1.9,23.2-4.3,31.9-11.8c1.5-1.3,2.9-2.7,4.7-3.6c1.8-0.8,3.8-1,5.5-2c3-1.9,3.7-6.2,2.5-9.6
	s-3.8-6-6.3-8.5c-9.5-9.4-18.9-18.8-28.4-28.3c-2.5-2.5-4.9-4.9-7.4-7.4c-1.4-1.4-2.8-2.8-4.2-4.1c-22.7-22.6-45.5-45.3-71.3-64.3"
	/>
<path fill="none" stroke="#E1E1E1" stroke-miterlimit="10" d="M60.9-23.2c13,6.7,25.2,15.1,36,25c2.5,2.3,5,4.7,7,7.6
	c1.7,2.4,3,5.1,4.8,7.5c4.9,6.5,12.7,9.8,20,13.3c1,0.5,2.1,1,2.8,1.9c0.6,0.8,0.8,1.8,1.1,2.8c0.9,3.6,2.4,7.1,4.3,10.2
	c1.3,2,2.7,4,3.5,6.3c0.6,1.6,0.7,3.4,0.9,5.1c0.3,3.6,0.6,7.2,1,10.8c0.2,1.9-0.3,4.5-2.2,4.6c-0.6,0-1.2-0.3-1.7,0.1
	c-0.5,0.4-0.4,1.1-0.5,1.7c-0.2,1.8-2.3,2.9-4.1,2.9c-1.8,0-3.6-0.9-5.3-1.4c-4.7-1.6-9.9,2.4-14.6,0.7c-2.4-0.8-3.1-3.9-5.1-5.4
	C92.4,58.7,70,58.9,51,65.2c-3.5,1.2-7.1,2.6-9.7,5.2c-1.1,1.2-2.1,2.5-3.4,3.5c-1.3,1-2.9,1.6-4.4,2.2c-5.9,2.2-13.4,0-18.4,3.8
	c-1.2,0.9-1.5,2.5-2.7,3.4C4.2,89.6-4,95.8-12.2,102"/>
<path fill="none" stroke="#E1E1E1" stroke-miterlimit="10" d="M-7.2,74.1c4.8-1.8,10-4,12.1-8.6c0.3-0.7,0.5-1.4,0.9-1.9
	c0.6-0.8,1.5-1.4,2.4-1.9c4.4-2.7,9-5.5,14.2-6.2c1.8-0.3,3.6-0.3,5.4-0.8c3.2-1.1,5.4-4,8.1-6.1c2.9-2.2,6.3-3.5,9.6-5.1
	c6.2-2.9,12-6.5,17.2-10.9c1.6-1.4,3.3-2.8,5.3-3.2c0.9-0.2,2-0.1,2.8-0.6c2-1.1,1.7-3.9,1.1-6.1c-1.1-4.3-2.5-9-6.1-11.6
	C64.6,10,63.2,9.4,62,8.6c-1.8-1.3-3.2-3.1-4.6-4.8c-3.8-4.4-8.3-8-12.8-11.7c-1.6-1.3-3.1-2.5-4.9-3.5c-3.2-1.9-7-2.8-10.6-3.6
	c-4.2-1-8.5-2-12.6-3.4c-2.5-0.9-4.9-1.9-7.5-2.4c-2.9-0.6-5.8-0.4-8.7-0.3c-5.8,0.2-11.6,0.4-17.2,1.6"/>
<path fill="#7BBCEB" stroke="#4E9BD7" stroke-miterlimit="10" d="M242.8,176c-0.1-0.9-1.7-1-1.9-1.9c-0.3-1.1,0.5-2.5-0.1-3.4
	c-1.2-1.9-2.8-3-5.7-3c-1,0-1-0.8-1.2-1.8c-0.2-1.3,1.6-0.2,1.7-1.6c0.1-1-0.6-1.7-1.1-2.6c-2.2-3.9-5.3-3.6-8.4-4.1
	c-1.4-0.2-2.9-2.7-4.2-2.9c-1.1-0.2-2.3,0.3-3.3-0.2c-1.1-0.5-1.5-1.8-2.4-2.6c-2-1.8-5.2-0.3-7.9-0.2c-2.8,0.1-6.6-1.7-9-0.3
	c-1.2,0.7-1,2.3-1.9,3.3s-3,2.5-3.6,1.2c-0.9-1.8,0.2-5.2-1.4-6.6c-1.5-1.3-4.3-1.6-6.2-2.3c-3.7-1.4-7.4-2-11.1-3.4
	c-1.4-0.5-2.8-1-4.3-1.2c-4.7-0.4-11.9,5-13.9,0c-0.4-1-1.4-1.6-2.5-1.5c-1.6,0.1-3,1.4-3.7,2.9c-0.7,1.5-0.8,3.2-0.9,4.9
	c-0.1,2.1-0.9,4.5-0.1,6.4c1.2,2.9,1.7,6.7,2.6,10.1c0.2,0.9,1.4,1.4,1.9,2.2c0.7,1.2,0.8,2.6,1.3,3.9c0.6,1.4,1.6,2.6,2.6,3.7
	c2.1,2.4,4.2,4.7,6.3,7.1c1.9,2.1,3.8,4.2,5.9,6c1.5,1.2,3.2,2.3,5,3.2c3.2,1.6,6.7,2.6,10.3,3c0.4,0,0.8,0.1,1.2-0.2
	c0.3-0.2,0.4-0.6,0.5-1c0.4-1.2,0-3,1.1-3.7c0.7-0.4,1.9,0.4,2.3-0.2c0.6-0.8,0.6-2.2,0-3c-0.7-0.8-2.5,0.3-3.1-0.6
	c-0.7-1-0.9-2.1-1.4-3.2c-0.8-1.8,0.7-3.9,1.1-5.8c0.2-0.9,0.3-1.8,0.9-2.4c0.9-1,2.8-1.7,3.9-0.9c1.8,1.3,3.6,2.4,5,4.1
	c2.3,2.8,0,7.1,1.4,10.4c1.7,3.9,4.8,1.9,6.7,1.8c2.4-0.1-3,4.4-2,6.5c0.4,0.9,3.7-0.3,3,0.4c-0.7,0.6-0.9,2.9,0.7,4.2
	c0.9,0.7-0.5,2,1,2.6c1.9,0.7,3.8,0.9,4.9,2.5c1.4,2.2,3.3,5.3,6.6,4.8c1.2-0.2,3.1-0.9,4-1.8c2.4-2.4,3.5-5.2,5.9-7.6
	c3.7-3.7,7.4-7.5,9.5-12.2c1.5-3.3,2.1-7,2.7-10.6C241.7,177.9,242.9,176.6,242.8,176z"/>
<path fill="#EAEAEA" stroke="#D6D6D6" stroke-miterlimit="10" d="M83.3,236.7c0.5-0.2,0.8-0.7,1.2-1c2.9-2.3,4.2-5.3,2.9-8.2
	c-0.3-0.6-0.1-1.4-0.5-2c-0.5-0.7-0.8-1.7-1.5-2.2c-1.4-1-1.9-2.9-3.2-4.1c-0.8-0.7-1.7-1.1-2.7-1.6c-3-1.3-6.5-1.9-9.5-3.2
	c-0.5-0.2-1.1-0.5-1.7-0.3c-0.4,0.1-0.7,0.5-1.1,0.6c-0.4,0.1-0.8,0-1.1-0.1c-4.1-0.9-8.2,1.5-11.7,3.9c-0.5,0.3-1,0.7-1.3,1.2
	c-0.4,0.6-0.3,1.4-0.3,2.2c0.3,3.6,0.7,7.3,2.7,10.4s5.7,5.2,9.1,4.3c0.7-0.2,1.4-0.5,2.2-0.6c1,0,1.8,0.4,2.8,0.7
	c3.4,1,7.1-0.6,10.6-0.1C81.1,236.8,82.3,237.2,83.3,236.7z"/>
<path fill="none" stroke="#4E9BD7" stroke-miterlimit="10" d="M150,146c-3.1-4,0-4.8-4.2-11.3c-3.9-6.2-4.8-20.3-4.5-27.6
	c0.1-2.9,1.4-5.8,1.1-8.7c-0.2-2.8-0.2-7.9-2-10c-2.1-2.5-3.6-5.6-4-12.2c-0.3-4.8-6.3-8.2-6-13c0.6-9.1-4.1-15.3-12.8-18.4
	c-0.7-0.3-1.3-0.9-2.1-1c-1-0.2-2.1,0.2-3.1,0.3c-2.3,0.3-4.5-0.7-6.6-1.6c-8.8-3.9-17.7-7.9-26.5-11.8c-6.4-2.8-12.8-5.7-19.7-6.9
	c-2.6-0.4-5.2-0.6-7.8-1.2c-1.3-0.3-2.6-0.7-3.9-0.7c-3.3,0-6.2,2.4-9.5,2.1c-2.5-0.3-3.3-3.9-5.6-4.8c-2.1-0.8-11.9-1.7-14-1
	c-9.5,3.1-14.8,8.1-26.9,11"/>
<path fill="none" stroke="#D6D6D6" stroke-miterlimit="10" d="M-10.2,202.6c3.7,0.1,7.3,0.8,10.7,2c1.3,0.5,2.6,1,4,1.1
	s2.9-0.4,3.7-1.5c0.3-0.4,0.5-1,0.9-1.3c0.4-0.3,1-0.2,1.5-0.1c2.8,0.4,5.5,0.8,8.3,1.2c4.9,0.7,10,1.5,14.1,4.3
	c2.6,1.8,4.7,4.3,7.7,5.5c2.1,0.8,4.4,0.9,6.6,1.4s3.9,2.7,5.4,4.4"/>
<path fill="#FFFFFF" stroke="#4E9BD7" stroke-miterlimit="10" d="M237.7,184.1c0.1,0.1,0.2,0.2,0.4,0.2c0.5,0.1,0.7-0.6,0.8-1.1
	c0.1-0.8,0.5-1.6,0.2-2.4c-0.4-0.9-2-0.1-2.3,0.8C236.4,182.5,236.9,183.5,237.7,184.1z"/>
<text transform="matrix(1 0 0 1 87.3654 155.2077)"><tspan x="0" y="0" fill="#7BBCEB" font-family="'Verdana-Italic'" font-size="8">Upper McCabe</tspan><tspan x="39.1" y="9.6" fill="#7BBCEB" font-family="'Verdana-Italic'" font-size="8">Lake</tspan></text>
<text transform="matrix(1 0 0 1 51.7176 247.7155)" fill="#585858" font-family="'Verdana-Italic'" font-size="8">McCabe Lakes (east)</text>
<text transform="matrix(1 0 0 1 288.9059 340.5137)"><tspan x="0" y="0" fill="#585858" font-family="'Verdana-Italic'" font-size="8">North</tspan><tspan x="0" y="9.6" fill="#585858" font-family="'Verdana-Italic'" font-size="8">Peak</tspan></text>
<path fill="none" d="M249.3,99.6c5.1,9.3,18.7,11.3,23.6,20.8"/>
<text transform="matrix(0.7526 0.6585 -0.6585 0.7526 250.092 105.128)"><tspan x="0" y="0" fill="#7D7D7D" font-family="'Verdana-Italic'" font-size="7">1</tspan><tspan x="4.8" y="-0.1" fill="#7D7D7D" font-family="'Verdana-Italic'" font-size="7" rotate="-7.2">0</tspan><tspan x="9.3" y="-0.7" fill="#7D7D7D" font-family="'Verdana-Italic'" font-size="7" rotate="-9.7">6</tspan><tspan x="13.6" y="-1.4" fill="#7D7D7D" font-family="'Verdana-Italic'" font-size="7" rotate="-7.8">0</tspan><tspan x="17.7" y="-2" fill="#7D7D7D" font-family="'Verdana-Italic'" font-size="7" rotate="-1.4">0</tspan></text>
<path fill="none" d="M142.5,301c4.3-5.8,17.8-21.1,16.4-22.9"/>
<text transform="matrix(0.6201 -0.7845 0.7845 0.6201 144.4816 302.5953)"><tspan x="0" y="0" fill="#7D7D7D" font-family="'Verdana-Italic'" font-size="7">1</tspan><tspan x="4.4" y="0" fill="#7D7D7D" font-family="'Verdana-Italic'" font-size="7" rotate="0.7">1</tspan><tspan x="8.9" y="0.1" fill="#7D7D7D" font-family="'Verdana-Italic'" font-size="7" rotate="0.6">2</tspan><tspan x="13.4" y="0.1" fill="#7D7D7D" font-family="'Verdana-Italic'" font-size="7" rotate="-0.1">0</tspan><tspan x="17.9" y="0.1" fill="#7D7D7D" font-family="'Verdana-Italic'" font-size="7" rotate="-1.6">0</tspan></text>
<path fill="none" d="M226.8,334c0.9-2.3,1.6-4.8,2.2-7.2c1.6-6.2,3.3-12.4,4.4-18.7c0.3-1.9,0.7-3.8,1.3-5.6
	c1.2-3.4,3.5-6.5,4.1-10.1"/>
<text transform="matrix(0.2551 -0.9669 0.9669 0.2551 231.4641 327.4048)"><tspan x="0" y="0" fill="#7D7D7D" font-family="'Verdana-Italic'" font-size="7">1</tspan><tspan x="4.5" y="0" fill="#7D7D7D" font-family="'Verdana-Italic'" font-size="7" rotate="-0.5">1</tspan><tspan x="9" y="0" fill="#7D7D7D" font-family="'Verdana-Italic'" font-size="7" rotate="-1.4">6</tspan><tspan x="13.5" y="-0.1" fill="#7D7D7D" font-family="'Verdana-Italic'" font-size="7" rotate="-2.9">0</tspan><tspan x="18" y="-0.4" fill="#7D7D7D" font-family="'Verdana-Italic'" font-size="7" rotate="-4.5">0</tspan></text>
<path fill="none" d="M51.3,65c19-6.3,41.4-6.5,57.7,5.3"/>
<text transform="matrix(0.9898 -0.1422 0.1422 0.9898 64.0954 64.3829)"><tspan x="0" y="0" fill="#7D7D7D" font-family="'Verdana-Italic'" font-size="7">1</tspan><tspan x="4.3" y="0" fill="#7D7D7D" font-family="'Verdana-Italic'" font-size="7" rotate="3.2">0</tspan><tspan x="8.6" y="0.2" fill="#7D7D7D" font-family="'Verdana-Italic'" font-size="7" rotate="6.6">0</tspan><tspan x="12.9" y="0.7" fill="#7D7D7D" font-family="'Verdana-Italic'" font-size="7" rotate="10.2">0</tspan><tspan x="17.1" y="1.5" fill="#7D7D7D" font-family="'Verdana-Italic'" font-size="7" rotate="14">0</tspan></text>
<g>
	<g>
		<polyline fill="none" stroke="#7D7D7D" stroke-miterlimit="10" points="85.2,341.6 85.2,348.7 275.4,348.7 275.4,341.7 		"/>
		<line fill="none" stroke="#7D7D7D" stroke-miterlimit="10" x1="180.5" y1="341.4" x2="180.5" y2="348.7"/>
		<line fill="none" stroke="#7D7D7D" stroke-miterlimit="10" x1="161.2" y1="349.2" x2="161.2" y2="343.7"/>
		<line fill="none" stroke="#7D7D7D" stroke-miterlimit="10" x1="142.4" y1="349.2" x2="142.4" y2="343.7"/>
		<line fill="none" stroke="#7D7D7D" stroke-miterlimit="10" x1="123.3" y1="349.2" x2="123.3" y2="343.5"/>
		<line fill="none" stroke="#7D7D7D" stroke-miterlimit="10" x1="104.6" y1="349.2" x2="104.6" y2="343.7"/>
	</g>
	<text transform="matrix(1 0 0 1 83.7838 339.1468)" fill="#7D7D7D" font-family="'Verdana'" font-size="8">0</text>
	<text transform="matrix(1 0 0 1 174.2949 339.1468)" fill="#7D7D7D" font-family="'Verdana'" font-size="8">0.5</text>
	<text transform="matrix(1 0 0 1 258.3418 339.1468)" fill="#7D7D7D" font-family="'Verdana'" font-size="8">1 mi</text>
</g>
</svg>
