<?xml version="1.0" encoding="utf-8"?>
<!-- Generator: Adobe Illustrator 17.1.0, SVG Export Plug-In . SVG Version: 6.00 Build 0)  -->
<!DOCTYPE svg PUBLIC "-//W3C//DTD SVG 1.1//EN" "http://www.w3.org/Graphics/SVG/1.1/DTD/svg11.dtd">
<svg version="1.1" id="Layer_1" xmlns="http://www.w3.org/2000/svg" xmlns:xlink="http://www.w3.org/1999/xlink" x="0px" y="0px"
	 viewBox="0 0 360 360" enable-background="new 0 0 360 360" xml:space="preserve">
<path fill="none" stroke="#E1E1E1" stroke-miterlimit="10" d="M-196.1,37.9c-0.8-2.1,4-3.5,5.3-4.4c1.6-1.2,2.9-2.6,4.2-4.1
	c1.7-1.8,3.6-3.5,5.7-5c2.4-1.7,2.6-2.6,3.6-5.3c1.7-4.3,6-8.7,8.6-12.6c1.4-2.1,12.7-7.7,12.1-8.9"/>
<path fill="none" stroke="#E1E1E1" stroke-miterlimit="10" d="M-193.6,60.6c2.3-1.6,4.1-1.1,5.8,0.7c1.9,2.2,3.6,3.2,6.7,1.4
	c4.5-2.5,8.3-9.5,12.5-5.9c2.2,1.9-2.6,5.1-4.3,7.2c-2.1,2.6-3.9,5.3-5.2,8.3c-1.1,2.6-2.8,4.9-5,6.8c-2.7,2.4-7.5,4-4.7,7.2
	c1.1,1.2,3.2-1.4,4.5-0.7c1.7,0.8,1.4,3.2,0.6,4.5c-1.2,2.1-4.3,2.5-6.2,3.7c-1.2,0.8-2.4,2.7-3.7,3"/>
<path fill="none" stroke="#E1E1E1" stroke-miterlimit="10" d="M-88.4-1.9c-0.7,0.8-1.4,2.5-1,3.8c0.6,1.8,1.9,0.8,2.5,2
	c1.2,2.5-4.1,5.5,1.5,6.5c3,0.6,4.6-3.9,6,0.2c0.8,2.5-0.2,2.8,2.3,2.1c1.1-0.3,1.7-0.1,3.2-1.1c2-1.2-0.2-2.9,2.3-4
	c1.5-0.7,3.3-0.4,4.8-1.2c1.6-0.8,3.1-2.7,4.2-3.9c0.8-0.8,3.5-3.9,0.2-3.9"/>
<path fill="none" stroke="#E1E1E1" stroke-miterlimit="10" d="M-30.1-0.4c-0.3,1.3-0.3,2.3-1.1,3.4c-0.6,0.9-1.9,1.3-2.4,2.3
	c-0.7,1.2-0.1,3.5-0.8,4.5c-1,1.4-2.7,0.7-3.2,2.7c-0.2,0.8,0.2,3.1,0.5,3.8c0.3,0.8,1.7,1.9,1.8,2.4c0.6,2.6,1,1.2,0.9,5.2
	c0,2.1-4.7,1-4,3.8c0.2,0.8,1.6,1.6,2,2.5c0.5,1.1,0.3,1.9,0.5,3c0.9,4.1,2.5,9.3-2,12.1c-2,1.2-4.1,0.4-6.3,0.9
	c-2.6,0.6-3.7,2.5-5.4,4.3c-1.4,1.6-3.3,2.5-2.3,5c0.8,2.2,4.5,3.1,2.4,5.2c-2,2-5.6-1.5-7.9-3c-1.4-0.9-2.1-2.7-4-2.9
	c-1.8-0.2-4,1.4-5.7,1.8c-2.5,0.5-2.6-0.2-4.4-1.1c-1.8-0.8-3.9-1.1-5.9-1.2c-3.2-0.2-6.2,0.6-9.2-1.3c-1.1-0.7,1-2.5,0.2-3.4
	c-3.7-4.3-10.3,4.3-15.5,6.2c-2.2,0.8-6.1,0.4-8.2-0.5c-2.7-1.1-3.6-3.4-6.8-3.9c-4.7-0.8-9.7-0.7-13.7,1.8
	c-1.9,1.2-3.7,3.1-5.8,3.9c-2.2,0.8-4.3,0.5-6.5,1.6c-2.2,1.1-4.8,1.9-6.7,3.4c-3.7,2.9-9.3,3.4-11.5,8.1c-1.7,3.6-3.5,10.8-6,12.9
	c-1.1,0.9-1.9,0.6-2.7,2c-0.4,0.8-0.8,2.9-0.5,3.7c0.7,2.5,3.2,1.5,5.5,1.7c2.8,0.2,5.8,1.3,5,4.5c-0.4,1.7-1.4,2.7-1.7,4.5
	c-0.2,1.2-0.1,2.6-0.1,3.8c0,2.4,0.3,5.8-0.5,8c-0.6,1.7-2.7,3.7-3.7,5.3c-1.3,2.3-2.4,4.6-4,6.7c-1.6,2.2-3.7,4.7-4.3,7.4
	c-0.7,3.3-0.3,4.1,1.7,6.8c1.8,2.4,2.9,4.4,5.1,6.4c2.2,2,2.8,5.2,3.5,8c0.6,2.5,0.6,5.5,3,7.1c2.5,1.7,6.2,1,8.5,2.7
	c1.8,1.3,1.2,2.5,1.5,4.5c0.2,1.6,0.9,2.9,1.3,4.5c0.5,2.7,1.8,7.3,1.9,10.2c0.1,3.4-4.8,3.5-3.1,5.9c1.4,2.2,3.4,1.1,3.7,3.5
	c0.3,2.6,0.9,5.7,1,8.3c0.2,4.2-0.7,8.6-0.7,13c0,2.2-0.9,4.3-1.5,6.5c-0.7,2.6-2.6,4.8-3.3,7.3c-1.3,4.9,0.2,10,0.3,15
	c0,5.1-1.1,10.5-1.7,15.5c-0.6,5.3-1.8,9.7-3.6,14.8c-0.9,2.5-1.5,4.6-1.7,7.1c-0.3,2.9-1.3,4.6-2.4,7.2c-1,2.4-0.5,4.7-1.4,7
	c-0.8,2-2.8,3.7-3.6,5.6c-0.5,1-0.5,2.2-1,3.2c-0.9,2-1,1.1-2.7,2.2c-2,1.3-3.4,4.2-5.9,2.8c-2.2-1.2-1-3.9-3.9-4.8
	c-0.8-0.3-2.3-0.4-3.2-0.3c-1.8,0.2-1.4,0.6-2.9,1.9c-1.6,1.5-2.5,0.8-4.5,1.3c-1.7,0.5-3.1,1.3-4.9,1.8c-2.3,0.6-3.6,2.3-5.7,3.1
	c-1.1,0.4-1.9,0.2-3,0.4c-1.9,0.3-3.1,2.1-5,2"/>
<path fill="none" stroke="#E1E1E1" stroke-miterlimit="10" d="M-201.1,282.4c1.7-0.8,2.8,1.2,3.9,1c1.6-0.3,1.1-2.4,1.1-3.9
	c0-4.8,2.1-3.9,5.8-5.6c3.6-1.6,1.6-5.3,4.8-6.7c0.3-0.1,1.3,0,1.3,0c1.3-0.8,0.6-0.7,1.4-1.9c0.9-1.3,1.8-0.8,3.3-2.2
	c5.8-5.2,9.7-19.3,12-29.2c0.7-3.2,0.9-5.6,0.3-8.8c-0.6-3.1,1.4-2.4,2-4.7c0.9-3.3-1.4-5.3,0.3-8.7c1.5-3,2.5-4.4-0.7-6.8
	c-2.1-1.6-5.3-1.1-6.7-2.6c-2.1-2.3-0.6-5.8,0.9-8c1.5-2.3,2.3-3.6,2.2-6.6c-0.1-3.8-1.1-3.2-4-4.5c-3.9-1.8-4.7-7.8-7.6-10.6
	c-2.4-2.4-3.5-0.1-5.2,1.7c-1.9,2.1-5.2,4.7-8,5.5c-2,0.6-4.5,0.1-6.6,0.2c-1.6,0.1-3.4,0.2-5,0.3c-2.5,0.2-3.5,1.5-5.8,1.9"/>
<path fill="none" stroke="#E1E1E1" stroke-miterlimit="10" d="M-207.6,330.9c6.2-7.5,16.3-8.5,24.2-3.5c11,7,21,14,34,14
	c1,0,2.2-0.9,3-2c2.6-3.6,1.8-8.9,0-12c-6.7-11.6-3.8-25.1-2-38c0.7-5.1,1-10.5,4-15c0.8-1.2,1.1-0.9,2-2c2.3-2.8,2-6,0-10.1
	c-2.1-4.3-0.7-9.5-0.3-14.2c0.2-2.5,1-4.9,1-7.5c0-2.7-0.7-5.1-0.3-7.7c0.7-4.4,3.5-7.4,3.8-11.8c0.1-2.3,0.9-4.5,1-6.8
	c0.2-2.4-1.1-4.5-1-6.8c0.1-2.4,2.6-4.7,3.5-6.7c1-2.2,1.2-4.4,1.2-6.9c0-2.8-0.5-5.6-0.8-8.1c-0.2-2.5,0.5-5.3,0-7.7
	c-0.5-2.3-1.9-4.8-2.7-7c-0.9-2.5-1-5.1-1.9-7.5c-0.4-1.2-1.5-2-1.9-3.2c-0.4-1.2,0.2-2.6,0-3.8c-0.5-2.3-2.2-3-3.8-4.7
	c-0.9-1-1.6-2.1-2.6-2.9c-0.8-0.6-1.9-1-2.5-1.7c-1.4-1.6-1.9-4.3-3.5-6c-2.2-2.4-2.8-2.7-3.9-5.7c-0.7-1.9-1-5.9-1.2-6.2
	c-1-1.9,0-6.4,0.8-8.7c0.9-2.5,2.9-4.4,3.9-6.8c1.3-2.8,2.4-5.9,3.9-8.7c1.2-2.1,2.8-3.8,4-5.9c1.6-2.7,1.5-3.5-0.6-5.5
	c-1.8-1.7-1.8-3.1-2.3-5.5c-0.4-2.1,0-3.9-1.2-5c-0.7-0.7-1.8,0-2.3-1.2c-0.3-0.8,0.5-2.6,0.9-3.3c2.2-3.2,4.5-2.1,7.5-3
	c1.5-0.5,2.6-1.7,4.3-1.9c2.1-0.2,2.8,0.9,4.5,1.5c1.4,0.5,3,0.4,4.3,0.9c1.1,0.4,2.1,1.6,3.3,1.9c1.6,0.4,2.6-0.7,4.2-0.4
	c2.2,0.4,1.8-0.2,4.5,1.2c1.2,0.6-0.9,3.1-0.2,4.2c0.8,1.2,3.3-1,4.4-0.2c3.3,2.2,0.1,2.9,3.5,3.3c2,0.2,4.6-0.6,6,1
	c1,1.1,0.2,5.1,1.8,5.9c1.5,0.7,2.5-1,3.7-1c1.9-0.1,2.4,1.3,4.1,1.6c1.9,0.3,4.6-0.9,6.7-1c3-0.2,4.2-0.2,6.7-2
	c1.5-1.1,8.1-11.6,10.8-6.5c2.1,4.1-6.9,7.3-1,11.5c1.3,0.9,0.6,1.5,2.5,2.7c3.5,2.4,6.5-2.8,10.2-1.4c4,1.5,7.8-4.2,11.8-2.5
	c0.2,0.1,0.3,0.7,0.5,0.7c3.1,0.5,3-5.5,6.2-4.7c1.8,0.4,4.9-5.8,7.7-8.1c4.2-3.5,3.1-9,8.2-10.5c2.7-0.8,3.7-0.2,6.3,0
	c1.7,0.1,5-0.1,4.2-1.7c-1.3-2.5-3.6-3.6-4.4-5.8c-0.4-1.1-0.6-1.6-1-2.7c-0.5-1.1-1.1-1-1.3-2.8c-0.4-3.2,1-3.9,2.3-6.5
	c1.2-2.3,0.6-5.1,0.7-7.6c0.1-2.7,1-3.5,3.1-5.2c2.5-2.1,4.3-0.9,4.7-4.6c0.3-2.9-0.6-5.9-0.2-8.7c0.3-2.1,2.7-4.2,2.1-6.4
	c-0.8-2.8-3.2-2.1-1.8-5.6c0.8-2,2.5-3.3,3.5-5.2c1-2,1.3-4.3,2.2-6.3c1-2.3,2.6-3.3,4.1-5"/>
<path fill="none" stroke="#E1E1E1" stroke-miterlimit="10" d="M23.1-1.1c-2.2,1.8-5.4,4-7.1,6.2c-1.5,2-1.8,4.3-3.5,6.2
	c-2.3,2.7-8.3,6.8-4.7,10.7c0.8,0.9,1.8,0.6,2.5,1.8c0.6,1.1,0.1,3.4-0.1,4.6c-0.4,2.7-2,4-3.7,6c-1.4,1.6-3,3.1-3.7,5.2
	c-0.3,1-0.1,2.3-0.6,3.3c-0.8,1.5-1.9,1.3-2.2,3c-0.6,2.6,1,5.2,3.5,5.2c1.7,0,3.9-2,5.5-0.9c1.3,0.9,1.1,5.3,0.8,6.7
	c-0.4,2.3-1.7,3-1.1,5c0.5,1.5,2.3,3.3,2.5,4.8c0.4,2.4-2.2,3.8-1.7,6.2c0.7,3.1,8.4,6.8,6.4,9.2c-1.8,2.2-5.3,0.1-8,0.5
	c-2.4,0.4-4.7,2.1-6.8,3.2c-2.4,1.3-3.1,2.7-4.5,4.8c-1.6,2.5-2.8,1.5-5.3,3c-0.8,0.5-2.4,2.1-2.6,3c-0.4,1.6,0.4,1.2,0.8,2.5
	c0.7,2.7-0.9,3.5-3.1,5.2c-1,0.8-1.9,0.7-2.3,2.3c-0.3,1.1,0.7,2.2-0.2,3.5c-1.4,2-4.2,1.4-6.3,2.2c-3.6,1.3-4.2,4.1-4.8,7.3
	c-0.6,3.6-1.4,3-4.5,2.7c-5.9-0.6-10.2,4.8-14.5,6.7c-2,0.9-3.6,0.8-5.6,1c-3,0.4-3.3,1.6-5.1,3.6c-1.4,1.5-3,2.8-5.1,3.2
	c-0.7,0.1-1.4-0.1-2.1,0c-1.6,0.2-2.7,1-4.2,1.3c-1.5,0.3-3.1-0.3-4.6,0c-1.8,0.4-2.2,1.2-3.7,2.4c-1.3,1.1-1.5,1.3-3.2,1.6
	c-0.7,0.1-1.5-0.2-2.2,0c-0.8,0.3-1.3,1.4-2.2,1.7c-1.8,0.7-4.4-0.4-6.1,0.4c-1.5,0.8-1.4,4-2.7,4.8c-0.8,0.5-3.4-4-4-4.9
	c-1.5-2.4-4.1-2-3-5.2c0.4-1.1,1.1-2.1,1.9-2.9c0.6-0.6,2.8-1.3,3.1-2c0.5-1.1-0.5-1.9-0.8-2.8c-0.9-2.3-0.3-1.7,0.1-3.9
	c0.4-2.5-1.1-4.5-3.3-5.9c-0.6-0.4-2.2-0.5-2.6-1c-0.8-0.9-0.2-2.6-0.6-3.7c-0.4-1.2-0.7-2.2-2.2-2.2c-1.7,0-1.7,1.5-3,1.8
	c-1.7,0.4-2.6-1.2-4-1.8c-1.2-0.5-2-0.5-3.5-0.5c-1.8,0-5.3,1.2-6.5,0c-0.7-0.7-1.3-3.5-2.2-4.6c-1-1.2-2.4-2.8-3.8-3.6
	c-2.5-1.4-5.4-0.3-8.3-2.4c-2.9-2.1-6.5,8.6-8.4,11.5c-2,3-5.2,7.4-4.6,11.6c0.5,3.3,2.2,4.5,4.3,6.9c1.6,1.8,2.8,4,3.9,6.1
	c2.2,3.8,7.7,4.1,7.1,9.5c-0.1,1-0.8,1.6-0.6,2.8c0.2,1.1,1.8,2,2.3,3c1,1.9,1,4.4,1.5,6.5c1.1,4.7,1.6,9.2,4.2,13
	c2.7,3.9,0.9,7.4,0.8,12c-0.1,2.3,0.1,4.9,0.2,7.2c0.2,2,1.3,3.6,1.2,5.6c0,2.2-0.5,5.5-1.3,7.7c-0.5,1.3-1.5,4.9-2.2,5.8
	c-1,1.4-1.3,3-1.5,5c-0.2,2.1,0.9,4.7-0.3,6.5c-1.1,1.6-2.3,5-2.7,6.8c-0.6,2.3-2,4.2-1.7,6.7c0.5,4.2,1.6,10.9-0.3,13.7
	c-3.2,4.7-1.6,5.7-1.1,11.1c0.1,0.6-0.1,5,0.5,5.6c0.5,0.5,0,6.7-1.1,9.4c-1.3,3.2-2.9,3.6-2.8,6.9c0,1.2-2.2,0-2.5,1
	c-0.6,1.9-0.8,1.3-2,2.7c-1.9,2.2-0.2,4.2,0.7,6.8c0.9,2.6,1.8,4.4,3.5,6.7c1.3,1.8,3.3,3,4.3,4.8c1.1,2,0.8,4.8,1.2,6.9
	c0.6,2.7,2.4,4.3,3.3,6.6c0.9,2.5-0.1,5.4-0.2,8c-0.1,3,2.1,4.5,2.5,7.2c0.3,2.3-1.4,5.4-3,6.9c-0.7,0.7-1.6,0.8-2.3,1.4
	c-1.4,1.2-2.2,2.7-3.1,4.2c-1.3,2.3-1.7,4.2-3.7,5.9c-1.7,1.4-5.3,3.9-7.3,4.1c-2.4,0.3-4.9-1.3-7.5-1.3c-3.2,0-4.2-0.7-6.7-2
	c-1.4-0.7-4.6-1.8-5.9-2c-2-0.3-3.6-0.3-5.7-1.4c-2.2-1.2-4.3-2.7-6.4-4.1c-1.9-1.2-3.7-1-6.1-1.5c-2-0.4-2.5-1-3.5-2.2
	c-1.5-1.7-3.1-2.6-5.7-3.3c-6.6-1.9-11.7,2.8-18.3,3.3"/>
<path fill="none" stroke="#E1E1E1" stroke-miterlimit="10" d="M-205.4,437.9c1.5-1,4.9,1.9,6.8,2.6c1.8,0.7,3.6,0.9,5.5,0.5
	c4.2-1,8.9-3.1,13.2-1c2.5,1.3,4.8,2.3,3.6,5.4c-1,2.7-6.7,6.2-4.3,8.2c1.5,1.2,4.8-1.9,6.2-0.2c0.5,0.6,0.1,2.3,0.3,3
	c0.1,0.4-0.2,1.1,0,1.5c0.4,0.7,1.5,0.3,1.8,1c1.4,3-1.7,2.3-2.3,4.2c-0.6,1.8,3.3,5.6-0.8,4.8c-1.5-0.3-1.7-1.3-3.5-1.3
	c-1.7,0-2.5,0.3-3.7,1.8c-1,1.3-1,3.9-2,5c-1.7,1.7-1.7,0.4-3.1-0.7c-2.6-2.2-5.8-4.4-8.5-0.9c-1,1.3-1.3,3.2-2.2,4.6
	c-1.4,2-2.6,3.6-3.6,5.9c-1.4,3.2-3.7,7.9-7,9.5"/>
<path fill="none" stroke="#E1E1E1" stroke-miterlimit="10" d="M-204.4,382.1c1.3,1.3,3.5,2.4,4.2,4.2c0.4,1.1,0,2.6,0,3.8
	c0.1,2.4,0.9,4.9,0.4,7.2c-0.4,2.2-2.3,3.9-1.1,6.3c0.5,1.1,1.8,2,2.5,3c0.7,1.1,1.2,2.5,2,3.7c1.4,2.1,3.5,3.7,4.5,6.1
	c0.9,2.1,0.1,4.2,1.2,6.3c1.2,2.1,3.2,2.1,5.4,3.2c1.8,0.9,10.1,2.8,11.8,3c2.4,0.3,4.5,2.2,6.8,3.2c4.2,1.8,10.4,0.1,13.9,3.5
	c2.1,2,2.8,3.4,5.8,4.5c2.9,1.1,5.9,1.2,8.8,2.1c4.6,1.4,10.7,1.2,15.1-1.2c2.5-1.4,4.7-3.6,7.7-4.4c2.3-0.6,4.4-0.4,6.7-1.5
	c3.5-1.7,8.2-6.5,12.5-5c2.2,0.8,2.1,1.7,4.8,1.6c2.4-0.1,4.4,0.6,6.1,2.2c2,1.9,2,4.4,3.1,6.7c1,2.3,0.7,4.4,2.2,5.8
	c0.5,0.5,1.3,0.1,1.9,0.5c1.8,1.1,1,4.8,0.7,6.2c-0.6,2.3-1.5,5.1-1.4,7.7c0.2,3.7,5.3,10.9,1.1,13.4c-1.2,0.7-2.5,0.9-3.8,1.8
	c-1.6,1.1-2.6,2.5-3.8,3.8c-2.3,2.3-5.1,2.7-7.7,4.3c-1.9,1.1-3.3,3.3-4.9,4.3c-2.5,1.6-3-0.7-5.1-1.8c-3.4-1.7-4.9-0.7-7.3,1.9
	c-0.9,0.9-2.3,3.4-3.7,3.5c-0.9,0.1-3.1-2.4-3.8-3.1c-0.9-1-1.7-2.5-2.7-2.9c-1.6-0.6-3.9,0.9-5,1.9c-4,3.4-6.2,8.9-10.2,12.4"/>
<path fill="none" stroke="#E1E1E1" stroke-miterlimit="10" d="M-72.1,488.1c0.9-1.9-0.4-4.1,1.2-5.5c0.9-0.8,2.1-0.5,3.1-1.1
	c1.4-0.9,1.7-2,2.6-3.3c1.7-2.4,4.1-4.2,6-6.4c2.1-2.6,2.6-5.5,3.9-8.5c1.1-2.5,0.7-5,1.9-7.4c1.5-3,1.2-3.9,0.4-7.2
	c-0.6-2.6-0.3-5.6-1.3-8c-1-2.6-3.6-3-5.8-4.4c-2.4-1.5-4.8-3.2-7.3-4.8c-3.1-1.9-4.5-4.9-7.3-6.8c-4.9-3.5-11-5.8-17-5.5
	c-6,0.3-12.8-0.6-18.6,0.9c-2.5,0.7-4.5,2.1-6.9,2.8c-3.1,0.9-6.4,0.3-9.5,1.1c-1.3,0.3-2.6,0.7-4,1c-1.7,0.4-2.9,1.6-4.3,2
	c-2.4,0.6-5.6-1.7-8-2c-3.8-0.5-7.8-0.4-11.6-1c-3.5-0.5-6.7-2-10.1-2.7c-5.1-1.1-11.8-2.6-15.9-5.2c-1.7-1-3.7-2.4-4.7-4
	c-1-1.6-1.1-4.3-2.2-6.3c-1.4-2.5-1.8-3.5-1.7-6.6c0.1-3-0.2-4.1-1.8-6.7c-2.3-3.8-2.2-8.7-4.3-12.6c-1.4-2.6-3.5-4.5-3.7-7.7
	c-0.1-2.3,0.1-4.5-0.3-6.8c-0.6-3.4-3.7-9.1,0-11.5c3.8-2.5,9.8,0,14,0.3c5.2,0.4,9.2,2.9,13.7,5.3c4.4,2.4,8.5,4.5,13,6.7
	c2.5,1.2,2.7,3.3,5.6,3.7c2.4,0.3,5.3,0.3,7.1-1.4c1-1,1.3-2.4,2.5-3.2c1-0.7,2.6-0.7,3.7-1.1c2.5-1,4.1-2.9,6.2-4.5
	c1.9-1.4,4.4-2.4,6-4c0.8-0.8,1.4-2.2,2.3-3c1.1-1.1,2.5-1.2,3.5-2c6.3-5.1,11.9-15.5,14-23.2c0.5-2,0.8-4.4,0.2-6.5
	c-0.6-2.2-0.5-4.3-2-6.2c-1.5-1.8-3.2-4.5-4.5-6.3c-1.2-1.8-1.9-4.1-3.2-5.9c-1.2-1.6-2.5-3.1-3.4-5c-1-2.1-1.2-4.5-2-6.7
	c-1.9-5.1-3.7-10.5-2.9-16c0.4-2.7,0.7-5.6,0.4-8.3c-0.3-2.7-1.5-4.9-2.3-7.5c-0.9-2.8-0.7-4.5-0.4-7.2c0.2-2.1-0.8-3.8-0.8-5.9
	c0.1-4.1,3.6-6.2,5.4-9.5c1-1.9,0.9-3.8,2.5-5.3c1.2-1.2,3.4-2.6,4.9-3.1c3.6-1.2,5.5,3.6,8.2,5.7c2.7,2,3.5-0.9,4.5,2.7
	c0.5,2.1,1.1,4.2,2.7,5.8c1.7,1.7,3.8,3,5.1,5.2c1.3,2.2,1.8,4.3,3.4,6.5c3.4,4.6,4.6,9.7,8,13.9c2.3,2.7,8.2,5.1,11.7,6
	c1.9,0.5,3.6,1.7,5.5,2.1c1.4,0.3,2,0.3,3.2-0.6c1.4-1.1,0.6-1.9,1.4-2.9c0.6-0.7,1.8-0.4,2.4-1.1c0.7-0.9,0.6-2.1,0.8-3.2
	c0.4-2.4,1.7-5.1,1.8-7.5c0-2.9-1.5-5.9-1.8-8.8c-0.2-2.3,1.2-4.3,1-6.4c-0.1-1.8-1.6-3.5-1.7-5.3c-0.2-1.7,0.9-2.8,1-4.2
	c0.1-2.7-2.6-4.4-3.4-6.9c-0.6-1.8-0.1-3.3-0.3-5c-0.2-1.8-1.6-3.5-1.4-5.5c0.2-3.2,0-7.6,2.5-9.5c2-1.4,3.2-0.7,2.7-3.3
	c-0.5-2.4-2.8-3.4-3.5-5.8c-0.3-1.1,0.3-2.4,0-3.5c-0.3-1.2-1.5-2.2-1.8-3.5c-0.2-1.1,0.2-2.3,0-3.4c-0.3-1.3-1.1-2.1-1.5-3.4
	c-0.7-2.4,0.5-4.5,0-6.7c-0.3-1.3-1.1-2.2-0.8-3.4c0.2-0.8,1.2-1.4,1.5-2.1c0.3-0.7,0.1-1.8,0.3-2.6c1-4.2,3.9-9.1,7.8-11.3
	c2.2-1.3,4.6-1.7,7-2.5c3-1,4.3-3,6.7-4.7c2.3-1.7,4.8-3.7,7.5-5c2.8-1.3,4.3,0.2,6.8-0.2c3.2-0.5,2.5-2.9,4.5-4.6
	c2-1.7,4.9,0.3,5.5-2.2c0.7-2.6-1.2-2.8,1.2-5.1c1.6-1.5,3.8-2.4,5.1-4.2c0.7-1,0.8-2.2,1.3-3.2c0.8-1.7,3.1-2.1,3.4-4.1
	c0.7-3.4,1.6-4.2,3.5-5.5c2.4-1.6,2.7-4.5,4.6-6.7c0.8-0.9,1.9-1.5,2.5-2.6c0.8-1.4,0.4-3.3,0.4-4.9c0-2.6-0.1-2.8,4-3.6
	c3.2-0.6,2.1-4.2,5.5-4.7c2.3-0.3,4.8-0.1,7-0.6c2.9-0.7,4.5-0.9,7.5-0.5c2.8,0.4,5.4-0.2,8.2,0c1.9,0.2,3.8,0.8,5.4,1.8
	c2.2,1.3,4.5,3.6,6.5,4.8c3,1.7,2.7-1.5,4.2-3.7c1.3-1.9,3.1-1.5,5.3-2.8c5.3-3.1-2.6-5.7-7.8-6.7c-3.9-0.7-8.3-1-10.8-3.8
	C37,82,39.7,80,38.1,77.6c-1.1-1.7-2.6-3-4.1-4.4c-3.3-3.2-7.5-5.4-9-9.9c-0.5-1.6-0.9-3-1.5-4.6c-1-2.5-1-2.6,0.5-4.8
	c2-2.8,1.4-3.6-0.8-6.2c-2.1-2.5-2.4-4.1-2.5-7.2c-0.1-1.9-1.3-5.4-0.3-7.2c1.9-3.3,8.1-2.6,10.5-5.1c2.8-2.8,3.7-3.9,8-4.5
	c4.2-0.6,6.8,0.2,10.2-2.7c2.6-2.1,2.5-3.9,2.5-7c0-7,5.8-7.8,10.5-7.8c1.1,0,2.5,0.5,3.5,0.3c1.5-0.3,2.5-1.5,4-1.8
	c2.5-0.4,4.9,0.9,7.3,1.2c3.2,0.5,4.4-1.1,7.2-1.9c3-0.9,5,0.7,7.7-0.6c4-1.9,5.1-3.6,9.3-1.5c2.8,1.4,4.6,0.4,7.6,0.3
	c2.5-0.1,6.1-0.6,8.5,0.3c2.5,0.9,5.5,3.7,7.8,5.2c3.2,2.1,6.1,3.7,9.5,5.4c1.8,0.9,3.2,2,5.2,2.3c2.6,0.4,5.2,0.3,7.8,1.3
	c1.7,0.6,3.3,2,5.1,2.4c1.8,0.4,3.8,0.1,5.6,0.5c3.6,0.8,7,2.9,10.6,3.8c3.1,0.8,6.3,0.3,9.2,1.2c2.8,0.8,4.3,2.7,7,3.5
	c4,1.1,8.5,0.5,12.4,2.1c2.8,1.1,4.2,2.7,7.4,2.7c6.9-0.1,14.1-0.3,16-8c0.9-3.5-0.9-4.8-3.3-6.9c-1.9-1.6-2.9-3.9-4.8-5.6
	c-2.3-2.3-2.5-4.3-4.1-6.9c-1.6-2.5-5.3-3.1-7.8-4.1c-1.6-0.6-2.6-1.4-4.4-1.6"/>
<path fill="none" stroke="#E1E1E1" stroke-miterlimit="10" d="M-115.4,184.1c-0.9,0.7,0.4,5.3,0.8,6.5c0.1,0.4,0,0.9,0.2,1.3
	c0.2,0.4,1.6,0,1.7,0.7c0.3,1.1-1.1,2-1.2,3c-0.2,2,1.6,3.2,2.2,5c0.6,1.8,0.7,3.8,1.3,5.5c1.5,4.3,6,6.7,10.5,4.5
	c3.8-1.9,1.9-10,0.3-13.3c-1.4-2.8-1.1-5.1-1.6-8.2c-0.6-3.9-2.8-5.9-4.7-9.3c-1.3-2.4-3-7.2-6-3.7
	C-113.5,178-112.8,182.1-115.4,184.1z"/>
<path fill="none" stroke="#E1E1E1" stroke-miterlimit="10" d="M-113.6,170.6c1.6,1.5,2.2-2.5,1.8-3.8c-0.6-1.9-1.6-4.8-3.6-5.2
	C-120,160.7-115.3,169-113.6,170.6z"/>
<path fill="none" stroke="#E1E1E1" stroke-miterlimit="10" d="M-102.4,220.9c-0.2,1.4-1,3.1,0.2,3.7c1.6,0.9,2.1-1.4,3.3-2.5
	c1-0.9,2.1,1.2,3.2,0c1.2-1.4,0.2-2.6-1-3.3C-100.1,216.6-101.9,218.1-102.4,220.9z"/>
<path fill="none" stroke="#E1E1E1" stroke-miterlimit="10" d="M-62.3,28.1c0.2,0.7,0.9,2.7,1.2,3.3c2.1,3.4,7.8,3.8,11.4,3
	c6.3-1.4,3.6-8.1,3.2-12.2c-0.2-2.5,0-5.9-3.5-5.8c-2.2,0.1-4.5,2.6-6.5,3.5C-57.4,20.3-62.9,26.2-62.3,28.1z"/>
<path fill="none" stroke="#E1E1E1" stroke-miterlimit="10" d="M-37.4,187.6c1.9,0.6,4.7,1.6,6.5,2.5c2.2,1.1,1.6,2.8,3.3,4.4
	c1.4,1.4,3.9,1.6,5.1,3.5c1.2,1.9,0.7,3.2,3.2,4.1c4.4,1.6,9.8,1.7,14.4,2.1c2.2,0.2,4.3,0.3,6.5,0.9c2.7,0.6,4.9,2,7.6,2.4
	c5,0.8,12,0.2,10.7-6.7c-0.7-3.6-4.3-4.7-5.8-7.7c-1.4-2.7-2.8-5.6-4.8-8.2C7,182,1,180.6-2.9,180.8c-5.1,0.3-9.9,1-14.7,0
	c-2.5-0.5-4.9,0.1-7.3-0.2c-2-0.3-3.3-1.5-5.5-1.8c-4.4-0.4-10,1.7-14-0.7c-2.4-1.5-2.4-3.8-5.5-4.5c-2.9-0.6-3.9,0-5.9,1.7
	c-2.2,1.9-3.9,1.9-4.6,4.9c-0.3,1.6-1,4.6-0.5,6.3c0.4,1.4,2,4,2.8,5.2c2,3,4.1,0.7,6.7-0.6C-47.4,189.1-41.2,186.5-37.4,187.6z"/>
<path fill="none" stroke="#E1E1E1" stroke-miterlimit="10" d="M229.4-0.4c-2.6,0.5-1,4.8,0.3,5.9c1.9,1.6,4.6,0.7,6.2,3.1
	c1.1,1.7,0.8,4,1.4,5.8c0.8,2.4,1.9,3.5,2.1,6.2c0.3,5.5-2.7,9.2-5.7,13.5c-1.6,2.3-2.7,4.8-5.2,6.3c-2.7,1.7-5.2,2.4-8.1,3.1
	c-2.8,0.7-5.1,2.3-8,2.3c-2.9,0-5.8-0.5-8.5-1.1c-1.5-0.4-3.3-0.2-4.7-1c-2-1-3.5-2.2-5.8-2.6c-3.2-0.6-8.9,1-11.7-0.6
	c-1.4-0.8-1.5-2.4-3.3-2.9c-1.5-0.5-3.5,0.4-5.2,0.7c-6,1-10-2.9-15.7-3.8c-2.5-0.4-5.3-0.5-7.8-1.4c-2.5-0.9-4.8-0.9-7.2-1.6
	c-2.3-0.7-3.9-2.7-6.3-3.2c-2.3-0.6-5-1-7.2-1.5c-1.9-0.4-4.3,0.2-6-0.8c-0.6-0.4-1.1-1.8-1.9-2.2c-0.7-0.3-2.4-0.2-3.2-0.3
	c-1.7-0.1-3.9,0.7-4.5-0.8c-0.1-0.3,0.6-0.7,0.5-1c-2.2-3.9-9.7-2.2-14.1-3.3c-4.8-1.3-8.8-3.4-13.7-2.4c-4.7,0.9-10,0.7-14.7-0.1
	c-3.8-0.6-9.3-2.5-12.1,1.7c-1.1,1.6-0.7,5.6-0.7,7.6c0,3.2-1.2,2.6-2.4,4.8c-1.1,2.1,0.6,2.9-1.4,4.9c-1.9,1.9-4.5,2.4-6.2,4.5
	c-0.3,0.4-1.3,1.8-1.5,2.2c-0.8,1.8-0.5,2.2-0.3,4.6c0.3,2.4,0.4,5.9-0.2,8.2c-0.7,2.7-2.7,3.9-0.3,6.6c1.8,2,4,4.4,6,6.3
	c1.8,1.7,3.5,2.8,5.4,4.1c2.3,1.6,2.7,2.6,3.6,5.3c0.7,2.1,1.9,5,3.6,6.7c1.4,1.4,3.1,1.8,4.9,3c3.5,2.5,7.7,3.6,11.1,5.7
	c1.9,1.2,3.5,2.9,4.8,4.8c1.1,1.6,3,3.3,3.6,5.1c0.8,2.2-0.2,4.9-1.3,6.7c-1.8,3-1.3,3.3-0.7,6.8c0.5,2.5,0.3,5.2,0.2,7.8
	c0,2.6,0.7,4.7,1.2,7c0.8,3.4,1.2,5.6,3.6,7.9c1.8,1.8,3.5,3.8,4.9,5.9c1.4,2.2,2.6,4.7,3.7,7.1c1.5,3.3,2.1,4.2,4.8,6.2
	c3.8,2.8,6.4,7,10.1,9.8c1.1,0.9,2.6,3.9,4,4.2c1.5,0.4,2.6-1.7,4-0.7c1.5,1,3.1,2.2,4.1,3.5c0.4,0.6-0.1,7.4-0.5,8.7
	c-0.6,1.9,1.4,3,3,3.6c2,0.7,3.7,0.6,5.5,1.9c1.6,1.1,4.3,1.4,4.8,3.3c0.4,1.6-2.7,2-3.3,3.5c-0.6,1.4,0.1,3.1,0.1,4.6
	c-0.1,2.1-1.1,3.7-1.8,5.6c-1.2,3,0.6,2.1,1.5,4.8c1.1,3.2-2.5,7.4-3,10.5c-0.1,0.7-0.1,1.8,0,2.5c0.3,1.5,0.1,0.6,1,1.9
	c0.7,1.1,2.3,1.2,0,3.6c-2.2,2.4,3.2,1.8,0.2,5c-0.9,1-1.3,3.4-4.3,1c0,0-0.6,0-0.7,0c-3.8,1.8,1.9,10.4-3.5,12.4
	c-1.1,0.4-2.6-0.2-3.8,0c-1.1,0.2-2.4,1-3.4,1.6c-2.5,1.3-3.5,3.9-6.3,3.9c-1.2,0-3.3-0.2-4.2-0.8c-1.8-1.2-1.8-3.4-3.3-5.5
	c-1.3-1.7-3.3-5.2-5.4-5.7c-2.7-0.7-4.2,3.8-5.4,6.2c-1.5,3-1.2,5.3-4.8,6.3c-2.1,0.6-5.8,1.6-7.7,1.3c-2.7-0.4-4.8-2.5-7.6-2.4
	c-6.2,0.2-10.6,0-16.2-3c-2.7-1.5-5.8-2.1-8.5-3.6c-3-1.8-5.3-4.6-8.3-6.6c-5.2-3.3-12.1-3.1-16.9,0.7c-3,2.3-5,5.9-7.9,8.3
	c-2.9,2.4-0.9,8.5-4.7,8.5c-2.5,0-6.1-1-8.5-1.9c-2.6-1-5.6-1.8-7.9-3.1c-2.5-1.3-4.7-1.7-7.6-2.2c-2.6-0.5-4.5-1.8-6.8-2.7
	c-2-0.8-3.5-0.5-5-2.3c-0.7-0.8-0.4-1.4-1.7-2.2c-0.9-0.5-2-0.7-3-1c-2.7-0.9-3.3-2.1-5.2-3.6c-1.3-1-3.1-1.3-4.3-2.2
	c-1-0.7-1.2-1.8-2.1-2.6c-0.8-0.7-1.8-0.7-2.7-1.4c-0.9-0.7-0.9-2.1-1.6-2.7c-2.2-1.8-3.2,0.9-3.5,3c-0.4,2.7,0.6,4.5,0.8,7.3
	c0.2,2.3-0.4,4.5-0.8,6.7c-0.3,2.2-0.5,4.7,0.2,7c0.7,2.3,1.9,3.5,2.1,6.1c0.1,2.2,0.3,4.8-0.3,7c-0.6,2.1-2.1,3.1-2.5,5.3
	c-0.6,4.1,0.4,8.5-0.3,12.8c-0.5,3.1-2.4,9.9,3.3,9.2c2.7-0.3,3.4-3,4.9-4.5c1.6-1.5,3.4-1.2,5-2.5c2.8-2.3,2.9-4.7,6.6-4.2
	c2.6,0.4,4.5,1.5,6.9,2.2c3,0.9,4.7-0.2,6.8,2.5c1.4,1.9,2.1,4,3.2,5.8c0.6,0.9,2.2,1.6,3,2.5c0.6,0.6,0.9,1.8,1.5,2.3
	c1.7,1.7,4.5,1.6,6.1,3.7c1.3,1.6,5.6,1.1,6.4,3.2c1.3,3.4-1.2,3.3-3.3,4.1c-2.4,0.9-4,3.7-6.2,4.6c-2.9,1.3-5.3-1.2-8.2-1
	c-2.4,0.2-3.5,1.5-6,1.8c-3,0.3-5.1,0.3-7.8,1.5c-2.2,1-4,0.8-6.2,1.2c-2.7,0.6-3.3,2.7-6.2,1c-2.7-1.5-6.2-8.3-9.8-7.7
	c-3.5,0.6-3.6,8.6-3,11c0.7,2.6,1.5,4.7,2,7.3c0.4,2.1,1.2,3.2,3,4.4c1.8,1.2,3.6,2,5.8,2.3c1.3,0.2,4.6,0.4,5.5,1.3
	c1.8,1.8-0.4,3.4-0.3,5.2c0.1,2.1,3.2,4.3,0.7,5.7c-2.3,1.2-2.9,0.6-4.9,2c-1.4,1-2.8,1.9-4.6,1.9c-4.8,0-3.7-6.2-2.2-9.2
	c0.8-1.5,3.2-3,2-4.8c-0.8-1.2-4-1.5-5.3-1.2c-4.5,1.1,0.6,5.4-1.3,7.7c-1.9,2.4-6,2.6-8.2,4.7c-2.4,2.3-4.2,5.9-6.6,7.2
	c-0.8,0.4-3.4,3.7-4.6,5.1c-1.5,1.8-4.2,2.2-6.1,3.7c-1.7,1.3-2.6,2.9-4.5,4.1c-2.5,1.5-5,2.7-7.4,4.3c-4.5,3-7.8,4.8-13.3,5.4
	c-2.2,0.2-4.3,0.1-6.5,0c-2.7,0-4.8,0.8-7.3,1.2c-2.7,0.4-4.9-0.5-7.2-1.3c-2.7-0.8-5-0.5-7.7-0.2c-2.9,0.3-5.9-0.2-8.8-0.5
	c-1.8-0.2-3.7-0.5-5.5-0.5c-1.7,0-3,0.8-4.6,0.9c-5.9,0.7-13.5-0.7-17.8-4.8c-2.2-2-2.5-3.4-5.8-3.4c-2.7,0-5.1-0.5-7.8-0.5
	c-4.9,0-6,4.1-8,7.7c-2.5,4.4,0.3,6.3,3.8,9.1c4,3.3,6.3,9.9,7.8,14.6c0.9,2.9,1.1,4.4,3.7,6.3c2.3,1.7,4,3.1,7,3.4
	c11.7,1.1,22.6,5.2,34.5,4.6c6.2-0.3,12.4-2.4,18.5-3.3c6.1-0.9,12.2-1.6,18.4-2.2c5.2-0.5,10.8-0.5,16.1-0.5c1.6,0,5.3-1.2,6.4,0
	c0.7,0.7,0.8,4.6,1,5.7c0.7,2.9,0.9,3.5,3.5,4.8c2.5,1.2,4.7,2.9,6.9,4.5c4.2,2.9,12.8,2.7,17.8,2.2c3.1-0.3,6-1.4,8.8,0.1
	c3,1.7,2.6,4.8,4.5,7.4c2,2.6,4.4,3.5,5.2,7.3c0.6,2.8-0.3,6.3-0.3,9.2c0,2.6,0,5.2-0.5,7.8c-0.6,2.8-2.6,4.3-4.7,6.3
	c-4.6,4.2-9.1,8.6-13.9,12.5c-1.9,1.6-3.8,3.3-5.6,4.8c-2.5,2-5.5,2-8.7,3.5c-4.3,2-6.5,7.4-10.9,8.9"/>
<text transform="matrix(0.2425 0.9702 -0.9702 0.2425 85.466 127.2985)"><tspan x="0" y="0" fill="#7D7D7D" font-family="'Verdana-Italic'" font-size="7">9</tspan><tspan x="4.5" y="0.1" fill="#7D7D7D" font-family="'Verdana-Italic'" font-size="7" rotate="-1.3">0</tspan><tspan x="10" y="-0.1" fill="#7D7D7D" font-family="'Verdana-Italic'" font-size="7" rotate="-23.7">0</tspan><tspan x="14.1" y="-2.2" fill="#7D7D7D" font-family="'Verdana-Italic'" font-size="7" rotate="-27.2">0</tspan></text>
<path fill="none" stroke="#E1E1E1" stroke-miterlimit="10" d="M-5.1,273.4c2,2,4.9,0.4,7.2,1.6c2,1,2.1,2.4,4.8,2.2
	c6-0.4,1.5-8.3-1.5-10.3c-3.3-2.1-8.5-1.8-12.2-2.5c-3.9-0.8-8.7-4.9-12.8-3.2c-2.3,0.9-2.2,2.5-0.5,4.2c1.7,1.8,4.2,2,6.6,2.2
	C-10.5,268-7.5,271-5.1,273.4z"/>
<path fill="none" stroke="#E1E1E1" stroke-miterlimit="10" d="M87.9,309.4c0.2,0.3,1.5,3.3,3,4c2,0.9,3.9-0.5,5.5-1.7
	c1.4-1,3.8-2.6,3.7-4.5c0-1.9-1.8-2.6-3.2-3.6c-3.5-2.3-6.1-4.4-10.5-2.2c-2.5,1.2-1.3,1.2-0.2,3.3
	C86.7,305.7,87.1,308.6,87.9,309.4z"/>
<path fill="none" stroke="#E1E1E1" stroke-miterlimit="10" d="M-35.6,488.4c-1.6-2,2.6-4.6,3.8-6.2c1.5-2.1,3.3-2.3,5.2-4
	c2.8-2.4,5.1-7.8,6.9-11.1c0.9-1.6,1-3.1,1.6-4.7c0.8-1.9,1.5-1.5,2.6-2.9c0.8-1.1,0.9-2.4,1.2-3.8c0.4-1.9,1-3.2,1.7-4.9
	c1.3-3,0.9-5.9,1.1-9.1c0.1-2.8-0.1-3.6-1.5-5.9c-1.3-2.1-0.9-4.5-1.5-6.8c-0.6-2.3-2-4.5-3.2-6.3c-1.5-2.1-5.5-3.7-5.8-6
	c-0.3-2.7,2.3-3.5,3-5.8c0.5-1.8-1.6-7.1-3.1-8.2c-2-1.4-5.4-1.8-7.8-2c-0.9-0.1-2.4-0.7-3.3-0.3c-1.4,0.6-1.3,2.2-2,3
	c-1.5,1.7-4.9,3.2-6.9,4c-0.7,0.3-3.2,0.9-4,0.5c-1.4-0.8-0.6-1.4-1.3-2.8c-4.7-9.7-18.4-4.7-26.7-5.5c-2.3-0.2-4.8-0.4-7.2-0.2
	c-2.1,0.1-4.4,1.3-6.4,1c-1.2-0.2-1.8-1-2.8-1.3c-1.3-0.3-3.6-0.1-5,0c-4.1,0.4-7.3,2.4-11.3,3.2c-1.8,0.4-3.7,0.5-5.5,0.8
	c-2.3,0.3-4.5-0.5-6.8-0.2c-2.7,0.3-6.1,0.9-8,1.2c-2.1,0.3-3.9-1-6.3-1.2c-2-0.2-4.3-0.5-6.2-1c-2.7-0.6-4.8,0.1-7.5-0.2
	c-1.6-0.2-4-2.6-5.6-3.3c-2.2-1-3.4-0.7-4.7-2.7c-1.2-1.9-2.5-2.7-4.1-4.1c-1.5-1.3-1.7-3.5-3.1-5c-1.5-1.7-2.6-2.9-3.8-4.6
	c-0.9-1.3-4.9-2.4-3.1-4.2c1.2-1.2,5.7,0.1,7,0.6c1.9,0.8,3.6,2.1,5.7,2.6c2.3,0.5,4,0.3,6,1.5c2.2,1.3,2.2,2.4,4.8,1.9
	c2.4-0.4,4.3-1.3,6.8-1.4c4.7-0.2,8.5,2.6,13,3.8c4,1.1,7.9,2.2,12.3,1.1c2.2-0.6,4.1-1.9,6.5-2.2c2.6-0.3,5-0.5,7.5-0.9
	c2.8-0.5,5.4-0.8,8.2-0.6c3.2,0.3,4-0.2,6.8-1.8c2.3-1.4,4.9-4.1,7.5-3.9c1.6,0.1,1.5,0.9,3.4,0c1.3-0.6,2.8-1.6,4-2.5
	c2.7-1.7,4.9-4.2,7.5-6c2.6-1.8,5-3.8,7.5-5.8c3.8-2.9,8.2-2.5,12.9-2c1.5,0.1,3.1,0,4.5,0.5c1.5,0.6,0.7,1.4,2.6,1.2
	c2.8-0.4,4.8-2.8,6.4-4.7c1.9-2.2,5.2-3.7,7.5-5.5c2.4-1.8,4.5-4.8,6.9-6.3c2.5-1.5,7.4-0.9,10.3-0.4c3,0.5,6.8,2.7,9.7,2.6
	c2.8-0.1,0.7-0.8,0.6-2.8c0-2,1.5-2.6,2.2-4.5c0.6-1.7,3.5-8.9,4-5.5c0.1,0.8,0.6,0.1,1.5-0.2c1.3-0.4,1.9-1.4,2.8-2.5
	c1.7-2,2.6-2.5,5.2-2.5c2,0,4.1,0,5.8,0.7c2.8,1.1,3.8,2.1,2.9,4.5c-0.7,2-4.2,0.2-5.2,2.8c-0.6,1.8,1,4.6,1.8,6.4
	c0.8,2.1,2,5.1,4.4,5.1c3.5,0,2.8-3.7,4.5-5.5c2.4-2.5,8.5,7.3,10.5,1.5c0.7-2.1-1.5-5.5-2.5-7.4c-2.5-4.7-5.8-8.1-9.3-11.6
	c-4.5-4.6-4.2-7.9-2-13.8c1.1-2.9,0.7-5.2,4-6c2.3-0.6,4.2-1.7,6.5-3.5c2.4-1.9,2.5-1.2,1.7-3.5c-0.7-2-1.1-4.2-1.8-6.2
	c-0.6-1.7-2.1-3.1-2.6-4.6c-0.6-1.9-1.5-3.5-1-5.6c0.4-1.8,3.7,1.5,5.2,0.4c1.8-1.3-4.1-3.7-5.5-5.9c-1.4-2.3-2.3-4.3-3.1-6.8
	c-1.4-4.5-3.4-7.9-6.9-10.8c-3.1-2.6-0.1-3,3-2.7c3.4,0.4,6.5,2.7,9.7,4c6.5,2.5,10.7-0.9,17-1.9c3.8-0.6,6.4,0.6,9.8,1.6
	c2.9,0.9,6,1.6,8.8,2.8c3.9,1.6,8.1,5.6,11.9,3.8c1.4-0.7-0.1-2.6,1.1-3.5c0.5-0.4,3.2-0.6,3.9-0.4c1.2,0.4,1.7,1.7,3.3,2
	c1.6,0.4,3.1,0,4.7-0.1c3.5-0.2,5,0.4,7.5,2.5c2.7,2.2,6.2,3.6,9.7,2.3c3.1-1.2,6.1-3.1,9-4.8c1.8-1,2.4-2.1,3.9-3.1
	c1.2-0.9,3.2-1,4.5-1.7c2.6-1.2,5-3.8,6.8-6.1c1.3-1.7,2.3-3.7,3.8-5.3c1.6-1.5,3.6-2.2,5.2-3.6c1.5-1.3,2.6-3.4,4-5
	c1.7-2,3.7-3.9,5.2-6c1.1-1.6,2.8-3.8,2.8-5.8c0-1.9-1.4-3-1-4.9c0.4-1.8,2.5-3.3,3.2-5c0.7-1.6,0.2-3.5,0.5-5.3
	c0.5-3,3.7-4.4,7.3-5.8c2.4-0.9,4-4.3,6.5-4.7c2.5-0.4,3.6,0.8,5.2,2.7c2.7,3.2,6.6,7.2,11.1,7.3c6.3,0.1,11.1,1.8,17.2-1.3
	c2.6-1.3,4.2-0.7,6.9-1.5c4.1-1.1,5.9-5.2,7.8-8.5c1.3-2.1,4-5.6,2-8.2c-1.7-2.2-5.5-1.4-7.3-3.6c-2.1-2.6-2.5-5.3-5.5-7.3
	c-2.3-1.5-4.6-1.2-7.1-2.1c-3.1-1.1-6.2-2.7-7.7-5.6c-1.3-2.4-2.8-4.7-4.4-7c-2.2-3.1-2.7-4.8-2.7-8.5c0-3.4-1.6-4.5-4.1-6.5
	c-2.2-1.7-3.8-2.6-6.2-3.6c-1.8-0.8-5.3-2-6.7-3.4c-2.1-1.9-1.7-3.2-5-3.7c-2.8-0.4-4.6,0.4-7.2,0.4c-2.3,0-3.5-2-5.2-0.4
	c-0.7,0.7-0.5,1.9-1.3,2.7c-0.9,0.8-2.1,0.8-3.3,1c-2.8,0.5-4.9,2-7.7,2.5c-3.4,0.6-6.4,1.1-9.8,2c-6.2,1.7-15.4,5.7-21.3,1.3
	c-1.9-1.4-2.8-3.7-4-5.6c-1.2-1.8-5.4-3.4-3.9-5.2c0.8-0.9,0.7-0.7,0.7-1.1c-0.1-4.7-7.8-5.1-10.1-9.2c-1.1-2.1-2.9-3.5-2.9-6
	c0-3.8,2.8,0.4,4.7-1.1c2.1-1.7,2.2-0.4,4.5-1.7c2.4-1.3-2.1-5.2-2.8-8c-0.5-2.2-0.7-4.2-0.9-6.4c-0.3-3.1-1.2-4.8-2.2-7.5
	c-0.9-2.4-0.4-5-1.6-7.3c-2-4-7.1-4.8-10.5-7.4c-3.2-2.5-7-4.1-10.6-6.1c-1.6-0.9-3.1-1.2-4.4-2.5c-1.4-1.4-2.3-2.8-4-4
	c-2.4-1.7-6.2-3.7-7.5-6.2c-1.5-3-2.9-7.3-2.8-10.8c0.2-4.1-2.8-8.6,0-11.9c1.9-2.2,1.5-5.2,2.6-7.5c0.9-2.1,3.2-2.3,4.3-3.7
	c1.4-1.9,0.4-3.6,2.4-5.4c2.9-2.5,3.4-2,6.5-0.7c2.3,0.9,4.8,0.4,7.2,0.3c2.7-0.1,3.8,0.9,6.1,2.2c4.2,2.5,10,3.4,15,2.5
	c2.6-0.4,4.1-0.8,6.8-0.5c2.7,0.3,4.2,1,6.7,2.1c2.3,1,4.2,2.3,6.6,3.4c2.6,1.2,5.5,1.4,8,2.3c2.3,0.9,4.1,0.1,6.8,0.2
	c2.6,0.1,4.9,0.7,7.2,1.2c3,0.7,5.8,0.8,9,0.8c1.2,0,2.3,0,3.5,0c2.2,0,3.3,0.8,5,1.3c5.1,1.4,9.9-0.5,15,1.5
	c1.8,0.7,3.5,1.2,4.8,2.8c0.6,0.8,0.7,1.8,1.5,2.4c1.3,1.1,7.1,4.4,8.2,3.2c2.8-2.9,12.4,1.8,14.2,2c2.7,0.3,5.2-0.5,7.8-0.8
	c2.6-0.2,4.7-0.1,7.2-0.7c6.5-1.7,11.6-4.8,16.3-9.5c2.4-2.3,4.1-3.8,5.8-6.7c1-1.8,1.9-3.8,3-5.6c0.7-1,2-1.9,2.6-3
	c0.8-1.7,0.4-3.9,1.2-5.5c0.8-1.6,2-1.7,2.1-3.7c0.1-1.6-0.5-3.4-0.6-5.1c0-2.7,4-17.8,0.5-17.4"/>
<path fill="none" stroke="#E1E1E1" stroke-miterlimit="10" d="M19.9,492.6c2.7-5.5-6-4-8.3-4.3c-4-0.5-7.3-4.9-11.3-5.9
	c-1.8-0.5-5.5-0.3-6.2-2.5c-0.2-0.7,0.5-2.7,0.6-3.3c0.1-1.3-0.1-2.7-0.1-4c0.1-6.1,1.6-12.8,4.2-18c1.5-2.9,1.8-5,2.6-8.1
	c0.7-2.9,2.8-5.4,3.6-8.2c0.9-2.9-0.2-6,0.1-9.2c0.1-1.3,0.3-2.1,0.9-3.2c0.3-0.6,1.9-1.8,1.8-2.3c-0.1-1.6-1.6-0.9-2.5-1.5
	c-1.1-0.7-1.3-1.7-1.8-2.8c-0.9-2.2-1.9-4.6-2.8-6.9c-1-2.6-0.9-3-3.7-3.5c-2.1-0.4-5.2-0.5-7-1.6c-2.1-1.4-2.4-3.8-4.1-5.6
	c-1.5-1.6-3.5-2.6-5.3-3.8c-3.9-2.7-8.1-9.2-13.2-7.7c-3,0.9-4.6,2.7-8,1.7c-2.6-0.7-4.5-3.1-7.3-3.2c-5-0.1-11.2,0.9-16,2.6
	c-3.2,1.1-5.9,3.6-9,4.7c-2.7,1-4.3-0.3-7-0.3c-2.3,0-4.2,1.8-6.5,1.3c-1.4-0.4-4.6-3.2-3.2-4.2c3-2.2,9.3-0.5,12.3-2.7
	c3.5-2.6,7.1-3.7,11.2-5.4c4.5-1.8,7.6-5.6,12-7.4c2.8-1.2,8.6,2.2,11.3,2.2c0.5,0,5.1,0,5.6,0.1c2.9,0.2,4.5-1.7,6.6-1.8
	c2.4-0.1,3.1,0.9,5.5,0.3c2.4-0.6,4.8-1.4,6.6-3c2.3-2,3.4-4.2,6.5-4.8c1.5-0.3,1.5,0.5,2.7-0.5c0.8-0.6,1.2-2.3,2-3.2
	c1.3-1.5,0.7-1.1,2.7-1.2c0.7,0,3.1,0.1,3.8,0.2c1.3,0.4,2,1.5,3,2.2c1.6,1.2,1.6,0.6,3.2,0.5c2.9,0,5.4-0.3,8-0.2
	c3.6,0.2,4.7,1.9,7.3,3.6c1.6,1,5.1,1.4,7.2,1.3c3.1-0.3,6.8-2.6,8.7-0.4c0.2,0.2-0.1,0.5,0.1,0.6c1.8,1,4-2.3,6-3.3
	c1.9-0.9,3.7-1.9,5.4-3.1c2.3-1.7,4.8-3.3,7.2-5c2.1-1.5,2.7-2.4,4.5-4.3c2.2-2.2,4.5-4.2,6.6-6.6c1.6-1.8,4.8-4.7,5.5-7
	c0.6-2.1-0.7-4.7-0.8-7c0-1.4-0.2-3.1,0-4.5c0.3-1.8,0.5-2.2,0-3.6c-0.4-1-1.1-2-1.5-3c-1-3-0.3-5.1-2.6-7.2
	c-2.7-2.6-2.3-4.1-3.4-7.4c-0.8-2.3-1.8-4.6-2.3-7.3c-0.2-1-0.4-1.9-0.1-3c0.3-0.9,1.7-1.8,1.5-2.7c-0.4-2.5-6.4-2.7-7.2-5
	c-0.2-0.6,0.3-2.9,0.3-3.8c-0.1-1.7-0.3-2.4-1.1-3.8c-0.8-1.4-2-2.4-1.9-4.2c0-1.6,0.7-1.2,1.5-2.7c1.4-2.8,0.9-3.9,3.7-6.2
	c3.1-2.6,4.6-0.8,7,2c2.4,2.8,3.5,3,7,3.5c2.5,0.3,5.4,1.2,7.7,2.4c2.3,1.3,3.7,1.9,6.3,2.5c1.5,0.4,3,1.2,4.5,1.6
	c1.2,0.3,2.6-0.1,3.8,0.3c2,0.6,2.4,2.3,4.1,3.2c0.6,0.3,1.5-0.2,2.1,0.1c0.6,0.2,1,1,1.5,1.3c1.4,1,1.3,1.1,3,1.4
	c1.2,0.2,2-0.1,3,0.7c2.6,1.9,4.8-0.6,7.2-2.5c2.9-2.3,7-4.1,9.6-6.5c1.5-1.5,2.1-3.5,3.5-5.1c2-2.2,5.1-3.1,7.6-4.6
	c2.5-1.4,4.4-1.2,7-2.1c2.6-0.9,4.4-2.9,6.5-4.8c2-1.8,4.1-3.6,6.1-5.4c3-2.8,0.5-4.2,0.9-7.3c0.4-2.8,3.4-4.2,4.2-7
	c0.8-2.6,1.4-4.8,2.9-7.2c2.2-3.6,7-6.5,7.4-10.8c0-0.3,0-0.7,0-1c-0.2-4.7-4.2-7.5,1.3-10.7c4.4-2.5,6.5,3.7,9.1,6.4
	c2.2,2.3,10.6,7,14.1,6.5c1.9-0.3,3.2-1.5,5.4-1.5c1.8,0,3.7,0.2,5.5,0.1c2.7-0.1,5-1.6,7.4-0.2c1.4,0.8,3.6,0.9,5.1,0.4
	c8.4-2.8,11.5-5.6,18-12c1.5-1.5,3.4-2.7,4.7-4.4c1.1-1.4,1.6-3.3,2.4-4.9c1.9-4.1,3-8.5,5.1-12.7c1.8-3.6,1.2-4-0.5-7.7
	c-0.5-1.2-0.6-1.7-1.3-2.8c-0.7-1.1-2-2.2-3-3.1c-2.1-1.9-4.6-4.4-7.1-5.7c-3-1.6-6-1.7-9.2-2.6c-1.7-0.5-2.9-1.7-4.5-2.3
	c-1.5-0.5-2.1-0.1-3.5-0.2c-2.4-0.2-5.3,0-7.3-1.6c-2.2-1.7-2.6-4.1-4.5-6.2c-2.4-2.7-5.5-5-8.2-7.3c-4.4-3.6-9-7.4-12.7-11.5
	c-4-4.4-7.6-6.4-13.6-7.5c-2.6-0.5-6.7-2.4-9.5-1.5c-2.3,0.7-3.1,2-6,2c-4.7,0-7.4,2.4-12.7,2.3c-2,0-5.6-2.4-7.8-2.7
	c-2.8-0.5-2.3,0.7-4.5,1.8c-2.1,1.1-5,0.9-7.2,2c-2,1-3.6,2-6,1.5c-3.7-0.8-5.2-5.8-6-9c-0.5-1.8-1.3-4.2-2.2-6
	c-0.8-1.6-2.1-2.8-2.5-4.6c-0.8-4.3,0.4-7.4-1.7-11.2c-0.9-1.6-1.6-3.6-2-5.5c-0.6-2.4,0-4.6-0.3-7c-0.2-2-1.4-3.6-1.7-5.7
	c-0.5-2.6-0.6-4.3-3.3-5.2c-2.1-0.7-4.1-1.2-6-2.6c-0.6-0.5-1.2-1.7-1.8-2.2c-1.4-1.1-2.2-1.1-3.9-1.6c-3.2-0.9-2.6-2.5-4.6-4.7
	c-0.8-0.9-2.1-1.3-3-2.2c-0.8-0.8-1.2-1.7-2-2.5c-3.6-3.7-8.7-1.7-12.6-4.9c-1.6-1.4-2-3.3-1.4-5.3c0.6-1.7,2.7-2.6,2.1-4.3
	c-0.4-1.3-3.2-2.6-4-3.7c-1.3-1.7-1.3-3.5,0-5.4c2.1-3,6.8-7.5,10.6-6.7c2.1,0.5,3.4,2,5.2,3c1.8,1,4.3,3.3,6.5,3.3
	c4.4,0,9.2-2.1,13.5-2.5c4.2-0.5,10.2-5.4,13-2.2c0.9,1-2.4,1.9-2.2,3.1c0.3,1.8,3.5-0.2,5.2,0.1c1.3,0.3,2.8,1.4,4.2,1.8
	c1.9,0.5,3.8,0.8,5.8,0.7c2.3-0.1,3.9-0.4,6,0.7c3,1.6,3.1,1,6.5,0c2.2-0.6,6-1.4,8.3-1.1c1.1,0.1,2.3,0.8,3.5,1
	c1.2,0.2,2.5-0.1,3.7,0.2c1.9,0.5,3.7,0.8,5.8,1.3c2.5,0.5,4.7,2.1,6.7,3.6c2.2,1.6,3.2,1.7,5.8,1.9c2.7,0.2,4.2,1.1,5.5,3.5
	c0.6,1.1,0.6,2.8,1.5,3.8c1.4,1.5,1.6,0.7,3.4,1c3.1,0.6,5.3,1.9,8.4,1.8c2.3-0.1,4.4,0.2,6.8,0.2c5.2,0,10,0,14.8-1.6
	c2.3-0.8,5.6-1.8,8-2.2c2.5-0.4,5.3,0.1,7.8-0.2c3.4-0.5,5.8-0.2,8.2-2.7c2-2.1,4.6-3.7,6.5-5.8c2-2.2,2.7-5,4.6-7.4
	c1.8-2.3,2.6-4.8,3.9-7.4c1.3-2.6,1.1-5.6,2.4-8.1c0.6-1.1,1.9-1.9,2.3-3c0.4-1.2-0.4-2.3-0.1-3.5c0.4-1.7,2-2.9,2.8-4.6
	c1.1-2.3,0.4-5.1,0.7-7.5c0.3-2.4,1.5-4.1,2.8-6.3c1.3-2.1,3.3-2.3,3.2-5.3"/>
<text transform="matrix(0.9341 -0.357 0.357 0.9341 220.1935 230.321)"><tspan x="0" y="0" fill="#7D7D7D" font-family="'Verdana-Italic'" font-size="7">9</tspan><tspan x="4.8" y="0" fill="#7D7D7D" font-family="'Verdana-Italic'" font-size="7" rotate="-6.7">4</tspan><tspan x="9.5" y="-0.6" fill="#7D7D7D" font-family="'Verdana-Italic'" font-size="7" rotate="-15.2">0</tspan><tspan x="14.1" y="-1.9" fill="#7D7D7D" font-family="'Verdana-Italic'" font-size="7" rotate="-21.2">0</tspan></text>
<path fill="none" stroke="#E1E1E1" stroke-miterlimit="10" d="M70.4,488.9c0-1.7,2.1-3.1,2.5-5c0.4-2,0-3.3,2.1-4.3
	c1.8-0.9,3-0.6,4.7-1.9c1.7-1.3,3.9-3,6-3.5c1.7-0.4,1.5-0.3,3,0.8c1.6,1.1,1.8,1.6,4.1,2.1c1.9,0.5,4,0.3,5.4,1.6
	c0.7,0.7,1.9,2.9,2.3,3.4c1.7,2.1,3,1.9,6.2,2.1c2.7,0.1,5.4,0.6,5.7-2.8c0.2-2.3-1.5-6.1-2.3-8.2c-0.7-1.9-2.3-3.3-3.2-5.2
	c-1.3-2.8-2.9-4.7-5.2-7c-0.7-0.6-2.1-1.4-2.6-2.1c-1.1-1.7-0.4-3.4-0.9-5.3c-0.8-3.1-4.4-4.7-5.4-8c-1.3-4.3-1.9-8.8-3.4-13.1
	c-2.2-6.6-3.8-13.3-3.7-20.3c0-2.2,1.4-5.3-0.8-6.7c-2.1-1.4-5.7,1.8-7.4,0.2c-2.1-2-1.8-3.5-3.8-5.2c-2.2-1.8-1.8-3.6-2-6.3
	c-0.2-3.5-1.8-6.7-1.8-10.1c0-2.7,1.1-5.7,1.2-8.6c0.3-6,1.4-11.6,3.3-17.3c0.9-2.9,2.8-5.5,4.9-7.5c1.4-1.3,2.5-2,3.6-3.4
	c0.8-1.1,1.2-2.5,2-3.5c3.4-4.3,8.3-9.1,12.5-12.5c4.2-3.4,9.4-4.9,13.9-7.9c2.3-1.5,4-2.9,6.5-4.1c2.4-1.2,4.2-3.3,6.7-4.3
	c5-1.8,11.1-3,16.3-3.8c6.2-1,10.6-0.3,14.9,4.8c1.8,2.1,2.9,3.9,5.8,4.7c2.7,0.8,5.4,1,8.1,1.8c3.7,1.1,5,0.7,8-1.5
	c2.1-1.5,4-2.8,6.4-3.7c4.6-1.7,11.4-0.1,16.2,0.9c3.1,0.7,5.9-0.1,9,0.2c3.3,0.3,5.9,2.4,9,3.3c2.3,0.6,4.5,1.2,6.7,1.9
	c2,0.6,4.4,0.2,6.6,0.3c2.3,0.1,3.8-0.1,5.8,0.6c2.1,0.8,3.4,1.7,5.7,1.9c2.4,0.2,4.7-0.8,7-0.7c3.7,0.1,1.5,2.3,3.4,4.4
	c1.6,1.9,3.9,1.9,6,4c2.4,2.4,8.5-4.9,11.2-6.5c1.6-0.9,4.3-3.6,5.1-5.2c1.1-2.5,0.2-4.7-1.1-6.8c-1.2-1.9-2.7-3.8-3.7-5.7
	c-1.2-2.3-1.3-5.2-2-7.4c-0.7-2.2-1.9-4.6-2.3-6.8c-0.2-1,0.4-2.7,0.3-3.8c-0.1-1.4-0.6-2.9-0.7-4.2c-0.5-4.8-0.5-11.2,2-15.3
	c1.6-2.6,2.9-4.8,2.5-8c-0.3-2.7-1.5-4.9-1.2-7.9c0.6-6.2,3-11.1,6.6-16.3c1.8-2.5,4.3-4.4,5.6-7.1c1-2.2,2-4.5,3.5-6.7
	c1.6-2.3,2.7-3.7,4-6.1c1.1-2.2,2-4.8,3.3-6.9c1.5-2.3,4.1-3.8,6.2-5.1c2.1-1.3,2.8-3.1,3.7-5.7c0.9-2.6,0.8-4.9,1.3-7.5
	c0.4-2.2,2-4,2.5-6.3c1.2-5.3,0-11.2-0.5-16.5c-0.3-3.3,0.1-5.3,1.2-8.5c1-2.7,0.7-5.2,0.8-8c0-0.8,0.1-1.8,0.2-2.2
	c0.7-1.5,0-3.3-1.7-5.1c-1.9-1.9-0.3-4.6,0-7.2c0.3-3.6-0.5-7.2-0.5-10.8c0-5.8-0.6-10.2,1.9-15.5c1.6-3.5,4.9-9.3,9.6-9.2
	c2.5,0,4.8,2,7.2,2.6c3.1,0.8,4.2-0.3,6.9-1.5c4.3-1.9,8.1,2.4,12.7,2.5c2.1,0,4.7-1.3,6.5-0.8c1.2,0.3,1.4,1.6,2.6,2
	c0.9,0.4,2.7-0.5,3.6,0.1c1.9,1.2,4.3,4,6.6,4.5"/>
<path fill="none" stroke="#E1E1E1" stroke-miterlimit="10" d="M359.6,135.1c-2.5-2.1-4.8,2.4-6.8,2.9c-1.3,0.4-2-0.8-3.3-0.3
	c-1.3,0.6-1.2,2-1.6,3.2c-1.1,3.3-3,3-5.4,5.1c-2.2,2-3.5,5.6-4.1,8.3c-0.8,3.3,1.5,5.2-0.4,7.9c-0.8,1.1-1.7,1.4-2.1,2.9
	c-0.3,1.4,0.1,3-0.2,4.4c-0.8,3.7-2.8,7-3.3,10.8c-0.4,2.8,0.6,5.5,0.2,8.2c-0.4,3.6-1.4,6.6-0.8,10.3c0.3,1.7,1.3,3.7,1.3,5.3
	c0.1,1.8-1.2,3.3-1.8,5c-0.9,2.4-1.4,5.3-2,7.8c-0.6,2.7,0.6,3.6,0.6,6c-0.1,2.3-1.1,2.1-3,2.4c-3.1,0.6-4.1,4.8-7.2,3.8
	c-1.8-0.6-2.4-1.3-3.6-0.7c-1,0.5-1.6,1.9-2.8,2.5c-1.1,0.6-2.4,0.8-3.5,1.3c-3,1.4-5,3.5-6.6,6.3c-1.6,2.7-2,4.5-2.5,7.6
	c-0.4,2.5-1.7,4-3.4,6.1c-2,2.6-1.6,4.7-2.9,7.5c-1.3,2.8-3.7,4.9-4.8,7.6c-1,2.6-1.1,4.5-2.9,6.8c-1.3,1.7-3.5,2.8-1.3,5
	c0.6,0.6,2,1.1,2.8,1.8c1.2,1.1,2.4,1.7,3.7,2.6c1.9,1.4,4.4,2.2,6.2,3.7c1.3,1.1,2,2.7,3.4,3.8c1,0.8,2.6,1.3,3.5,2.2
	c1.7,1.9,2.2,6-0.1,6.5c-0.3,0.1-2.2-0.5-2.5-0.3c-2.4,1.7-2.6,3-3.6,4.2c-1.8,2.1-3,3.6-5.3,5.3c-4.7,3.4-8.3,7-11.5,11.5
	c-1.4,2-1.7,4-2.2,6.2c-0.6,2.5-1.9,4.9-3.6,6.9c-1.8,2.1-4,2.3-6.6,3.2c-2.3,0.9-3.7,2.9-6.1,3.6c-1.8,0.5-4.8,0.7-6.3-0.8
	c-1.6-1.6-1.2-3.8-3.5-5.1c-1.8-1.1-4-1.4-5.8-2.3c-1.7-0.7-3.5-2.3-5.4-2.6c-2.5-0.3-4.3,1.8-7,1.8c-3.3-0.1-6.1-0.1-9.2,0.9
	c-2.4,0.8-4.5,1.8-7.1,2.3c-2.5,0.5-4.3,0.7-6.4,2.6c-3.6,3.4-7.9,6-11.6,9.4c-1.6,1.5-3.5,2.1-4.5,3.9c-1.2,2.2-0.9,5.7-0.2,8
	c0.7,2.3,1.5,4.8,2.2,7.2c0.8,2.5,2.8,5.2,2.6,8c-0.1,0.8-0.6,1.6-0.8,2.5c-0.2,1.1,0.5,2.6,0.3,3.5c-0.7,2.6-4.1,3.6-6,4.8
	c-4.7,2.8-11.7,8.3-13,14c-0.4,1.9-0.2,4.6-0.3,6.5c-0.2,3.2-1.4,4.6-2.9,7.5c-3,5.8-5.1,8.6-10.9,4.6c-2.3-1.6-5.1-3.2-7.7-4.2
	c-1.4-0.6-4.1-5.4-4.5-5.8c-0.3-0.4-5.8-4.5-7.7-7.1c-1.8-2.5-3-4.9-4.6-7.4c-1.9-2.9-1.2-7.9-4.3-9.5c-6.6-3.3-7.1-11.1-4.2-15.5
	c3.2-5,4.7-4.7,6.9-10.6c0.6-1.6,1.3-7.1,0.8-8.9c-0.7-2.6-6.2,0.7-8.4-1.6c-1.2-1.2-1.2-3.3-2.8-4.1c-1.3-0.5-3.4,0.1-4.7,0
	c-2.6-0.1-4.3,0.3-7,0.4c-2.8,0.1-5.3-1-8.1-0.2c-1.5,0.4-6.5,1.5-8.1,2.8c-1.1,0.8-1.2,1.7-2.6,2.1c-1.1,0.3-2.4-0.1-3.5,0.3
	c-4.9,1.6-7,8.8-9.1,12.8c-1.4,2.6-3.2,5.1-4.3,7.7c-1.1,2.5-1.1,5.7-1.3,8.4c-0.5,5.7,3.1,10,6.3,14.1c3.2,4.1,6.9,9.1,7.5,14.5
	c0.3,3.1,0.3,5.7,1.2,8.7c0.8,2.7,0.2,5.2,0.3,8.1c0.4,9.6,1.6,21.7,8.7,28.5c2.9,2.8,5.6,6.3,8.2,9.3c3,3.3,5.8,7.2,6.5,11.5
	c0.6,3.3,0,7.8-1.2,10.9c-1,2.8-3.8,11-7.3,11"/>
<path fill="none" stroke="#E1E1E1" stroke-miterlimit="10" d="M69.9,454.9c3.7-0.4,9.9-1.7,10.3-6.2c0.2-2.7-1.4-4.9-2-7.5
	c-1-3.9-1.8-7.9-3-11.8c-0.3-1-0.3-2.7-1-3.5c-0.9-1-2.1-0.4-3-1c-1.5-0.9-3.2-3.6-4.3-5c-1.2-1.5-1-3.6-2-5.5
	c-1.3-2.2-4.3-2.8-5.2-5.2c-1.7-4.7-2.2-11-0.9-15.8c0.6-2.4,1.9-5.1,2.2-7.5c0.1-1-0.3-2-0.3-3c0.1-1.6,1-2.1,1.5-3.4
	c0.5-1.5,1.3-5.5,0.8-7c-0.6-2-3.3-2.1-5.1-0.6c-1.1,0.9-1.7,3.3-3,4c-1.6,0.9-1.2-0.2-2.7-0.2c-3.6-0.2-4.7,1.6-6.5,4.4
	c-1,1.7-1.2,1.6-2.6,2.4c-1.2,0.7-2.5,1-3.7,2c-2.3,2-3.3,4.1-6.2,5.2c-5,1.8-9.4,2.5-14.6,1.6c-4.3-0.8-8.4-3.1-12.7-4.3
	c-2.2-0.6-4.6-1.7-6.8-0.1c-0.7,0.5-1.5,1.6-1.6,2.4c-0.1,1.9,0.8,1.4,2,2.6c2.1,2,1.8,3.1,2.1,6.2c0.3,3,0,5.5,3.7,5.8
	c3.2,0.2,5.3-1.6,7.3,1.7c0.6,1,0.2,1.9,1.2,2.6c1.1,0.7,3.6,0.1,4.8,0c5.2-0.5,10.5-1.5,14.4,2.4c1.8,1.8,1.8,4,3,5.8
	c0.3,0.5,1.8,1,2.3,1.6c0.6,0.7,1.4,2.4,1.6,3.3c0.6,2,0.2,4.2,1,6.1c0.7,1.7,2.8,3.6,1.5,5.4c-1.1,1.6-4.4,2-6,3.3
	c-2,1.5-2.7,2.7-3.5,5c-0.8,2.2-2.5,4.6-2.8,6.6c-0.3,2-0.5,6.6,0.6,8.4c2.9,4.9,10.7,5.8,15.7,4.5c2.1-0.5,4.1-1.4,6.3-1.7
	c2-0.3,4-0.2,6-0.6C61.8,457.5,67.5,455.1,69.9,454.9z"/>
<path fill="none" stroke="#E1E1E1" stroke-miterlimit="10" d="M61.6,438.4c2.1,1.4,2,4.4,4.7,5.6c2.4,1,5.8-0.6,3.8-2.5
	c-0.2-0.2-3.1-2.8-3.9-4.2c-1.1-1.8-1.9-3.5-3.1-5.3c-2.3-3.2-2-10.2-5.9-8c-3.2,1.8,1.1,6,2,9C59.7,435.1,59.4,437,61.6,438.4z"/>
<path fill="none" stroke="#E1E1E1" stroke-miterlimit="10" d="M44.6,402.6c1,1.6,5.7,10.8,6,3.7c0.2-3.9,1.5-13.3-2.3-14.7
	c-1.5-0.5-6.2,3.7-7.2,5.2C38.7,400.4,43.8,401.4,44.6,402.6z"/>
<path fill="none" stroke="#E1E1E1" stroke-miterlimit="10" d="M173.6,422.4c1.1,0.4,4.7,1.1,5,3.6c0.3,2.6-1.9,4.7-5,3.9
	C166.5,427.9,169.1,421,173.6,422.4z"/>
<path fill="none" stroke="#E1E1E1" stroke-miterlimit="10" d="M132.4,494.1c0.6-1.9,0.1-4.2,1.1-6c1-1.8,3.1-2.4,3.9-4.4
	c0.8-2.2,1-3.7,2.2-5.8c1.3-2.1,1.8-4.2,2.8-6.5c0.8-1.9,1.7-3.3,1.7-5.4c0.1-2.2-0.8-4.5,0.9-6.4c2.1-2.2,8,0.5,9.6,2.7
	c2.4,3.2,9.1,1.4,12.5-0.7c2.6-1.6,2.5-3.1,2.5-5.8c0-3.5-0.2-4.2-3-5.9c-2.7-1.7-7.5-7.5-3.7-10.5c1.2-0.9,5.2-1.8,6.8-2
	c2.7-0.4,4.5,1.9,7.2,1c2.7-0.8,5.1-2.6,6.2-4.9c1.3-2.6,3.3-6.3,3.8-9.2c0.5-2.6-1.3-5.4-0.5-7.8c0.8-2.5,3.9-4.3,5.2-6.6
	c0.6-1.1,0.4-2.2,0.8-3.2c0.7-1.5,2.1-1.7,3.6-2.5c2.7-1.4,3.7-2.3,3.4-5.5c-0.3-2.6-0.7-3.5,2.3-4.7c2.4-1,5.3-1,7.9-1.7
	c5.3-1.6,9.8-4.7,9.8-10.6c0-2.5-1.2-3.3-1.8-5.4c-0.6-1.8-0.9-4.1-0.6-5.7c0.1-0.5-0.7-4-0.4-6.1c0.3-1.9,0.8-3.7,1.7-5.3
	c2.1-3.7,3.9-7.6,6.4-11.2c1.2-1.6,2.4-3.2,4.1-4.4c1.1-0.8,4-3.3,5.2-3.6c1.1-0.3,4.9,0.4,6.3,0.8c1.2,0.3,1.4,1.5,2.7,1.5
	c0.9,0,2.1-2.1,3-1.7c6.7,3,5.8,0.9,10.8,1.7c3.3,0.5,2.2,3.5,4.4,5.5c2.3,2,5.5,0.3,7.8-0.7c3-1.3,4.7-1,7.7-0.2
	c1.5,0.4,4.8,1.6,6.2,1.2c2.3-0.6,2.9-5.3,4-7.2c1.2-2.2,2.5-4.3,3.8-6.3c1-1.6,3.2-2.8,4-4.5c0.9-1.8,0.3-3.5,1.6-5.2
	c2.1-2.7,7.6-7,10.9-7.6c2.6-0.5,4.2,1.5,6.5,2.3c2.4,0.8,5.6,0.6,7.8,1.9c5.3,3.4,1.5,12.3,7.2,16.1c1.4,0.9,2.2,0.8,3.3,2.1
	c1,1.2,1.1,2.6,1.7,4c1.1,2.7,3,4.9,3.8,7.7c1.4,4.6-2.3,9.2-4.2,13.4c-0.9,1.9-1.6,4.1-1.8,6.3c-0.1,1.5,0.5,3.5,0,4.9
	c-0.8,2-4.7,4.7-6.2,6.7c-1.6,2.1-3,3.7-2.4,6.6c0.7,3.1,2.8,5.5,5.4,6.9c4.4,2.5,5.4,5.5,5.6,11c0.1,1.8-0.5,1.5,1,2.8
	c1.4,1.2,3,1.8,4.2,3.4c1.4,2,2.2,4.6,4.3,6.1c3.1,2.1,3.8-1.2,6.3-3c1.7-1.2,4.7-3.6,6.9-3.3c1.7,0.2,3.6,1.7,5,1.5"/>
<path fill="none" stroke="#E1E1E1" stroke-miterlimit="10" d="M333.2,316.3c2.9,0,5.1-1.5,7.6-2.8c1.4-0.7,4.8-1.6,5.8-2.8
	c2.3-2.7-2.9-2.5-4.5-3.4c-3.1-1.7-2.7-4.2-4.7-6.5c-1.3-1.5-4.5-3-6-3.8c-2.1-1.2-4.8-1.2-7.2-1.6c-5.6-0.8-6.1,2.9-6.5,7.6
	c-0.5,4.9,0.7,7.4,6.2,9.1C326.5,313,328.3,316.2,333.2,316.3z"/>
<path fill="none" stroke="#E1E1E1" stroke-miterlimit="10" d="M145.9,490.1c2.8-0.4,1.7-4,1.7-6.2c0-2.3,4.2-2.8,6.1-4.2
	c2.2-1.6,4.2-3.3,6.7-4.4c6.2-2.6,14.9-1.4,20.3-5.4c2.7-2.1,2.5-6.5,4.8-9.2c1.8-2.2,4.7-1.4,6.3-4c0.6-1,0.8-1.2,0.9-2.5
	c0.2-2.3-0.7-2.6-1.8-3.6c-1.9-1.9-3.6-3.9-0.5-5.9c2.2-1.5,4.7-0.8,7.1-0.8c1.3,0,1.5-0.8,2.4,0c0.6,0.5,0.8,2.5,0.8,3.3
	c0.2,2.6-0.1,4.3,1.2,6.2c1.2,1.7,2.8,3.7,4.3,5.2c1.6,1.6,3.5,2.8,5,4.7c1.9,2.3,3.6,6,6.3,7.8c2.4,1.7,5.2,0.4,8.2,0.7
	c2.6,0.3,4.9,1.8,7.2,2.8c3,1.3,6.4,4.1,9.6,6.2c2.3,1.4,5-4.7,7-6.2c2.6-2.1,5.1-3.8,7.7-6c2.6-2.2,5.6-3.9,8.8-4.9
	c1-0.3,1.9-0.6,3-0.6c1.5,0,2.2,1.2,3.2,1.5c2.5,0.8,5.6-1.2,8-2c3.1-1,6.4-2,9.6-2.2c5.6-0.5,10.6-3.2,15.1-6.6
	c2.2-1.6,4.7-3.4,5.3-6.2c0.2-1.1-0.8-2.6-0.1-3.8c0.8-1.4,3.1-1.2,2.8-3.3c-0.2-1.4-2.2-1.8-2.2-3.4c0-1,0.9-1.7,1.3-2.5
	c0.8-1.8,0.8-2.3,0.7-4.3c-0.1-3.2,1.2-5.9,1-9c-0.3-4.2-3.7-4.3-5-7.7c-0.7-1.8-0.6-6.5,1.3-7.7c2.5-1.6,2.6,2,4.5,2.7
	c2.3,0.8,4.7-1.9,7-1c2.7,1,4.2,9,4.7,12c0.7,4.7,6.7,5.6,10.5,4.8c2.3-0.5,4.1,0.1,6.4,0.9c2.8,1,3.2,2.4,5,4.4
	c4.4,4.6,12.4-2.2,15.5,2c0.3,0.4-0.4,0.2-0.7,0.4"/>
<path fill="none" stroke="#E1E1E1" stroke-miterlimit="10" d="M267.9,420.6c-2.8,0.8-2-2.3-0.2-3.7c0.8-0.7,1.7-0.7,2.4-1.6
	c0.5-0.6,0.2-1.5,1-2c2-1.4,3.7,0.1,5.3,0.8c1.6,0.7,3.6,0.4,5.1,1.2c1.5,0.9,2.2,2.5,1.3,4.1c-0.8,1.4-1.8,1.1-2.8,2
	c-0.8,0.7-0.9,1.6-1.5,2.2c-1.5,1.3-4.4,1.8-6.2,0.7C270.6,423.3,270.9,419.8,267.9,420.6z"/>
<path fill="none" stroke="#E1E1E1" stroke-miterlimit="10" d="M278.1,450.9c1.2,0.6,4.5,1.8,5.8,2.2c2.6,1,3.7,1.1,6.4-0.3
	c2.1-1.1,4-2.5,5.1-4.7c1.8-3.8-0.5-3.1-2.4-5.3c-2.1-2.4,0.9-2.3,2.7-4.2c1.5-1.6,3-4.9,3.4-7c0.6-2.7-0.6-5.5-0.8-8.1
	c-0.3-3.1-1-6-2.8-8.7c-2.2-3.3-4.4-6.8-6.5-10.3c-2.3-3.6-4.4-7.3-7.7-9.9c-4.2-3.3-10.1-6.3-17.7-9.1c-2.7-1,1.1-4.3-1-6.5
	c-1.3-1.4-2.5-3.6-3.7-4.8c-3.2-2.9-9.6-5-13.5-3c-2.2,1.2-3.9,3.2-5.5,5c-2,2.3-4.6,4.2-5,7.2c-0.1,0.9,0.3,2.1,0.1,2.9
	c-0.3,1.1-1.1,1.2-2,2.4c-1.9,2.4,0.1,3.7-0.1,6.2c-0.2,2-1.6,4.1-2.2,6c-0.9,2.4-0.6,4-0.5,6.5c0.1,2,0,4.2-0.8,6
	c-0.9,2.2-2.5,3.7-3.8,5.5c-1.2,1.7-1.5,3.9-3.2,5.5c-1.8,1.7-4.1,2.7-4.8,5.2c-0.6,2.1-0.2,4.5-0.7,6.6c-0.8,3.2-3.6,4.1-3.5,7.6
	c0.1,4.4,0.7,7.4,3,11c1.2,1.8,2.2,3.7,3.7,5.3c1.6,1.7,2.8,1.2,5.1,1.8c2,0.5,2.6,1.6,4.2,2.7c1.5,1.1,3.2,1.2,4.8,1.7
	c1.9,0.6,2.8,1.7,5.1-0.2c2.3-2-0.9-4.7,0.8-6.5c1-1.1,1.9,1.8,3.2,2.2c1.6,0.5,3.4-0.1,5-0.5c4.8-1.5,7.1-4.9,11.2-7
	c3.4-1.7,7.1-0.6,10.2-2.7c1.6-1.1,5-5.2,2.7-7c-0.5-0.4-0.6-0.4-0.8-1c-0.6-2.3-1.5-2.7-1-5c0.3-1.1,2.1-0.1,3.2-0.2
	c1.3-0.2,2.5-1.2,3.8-1.2c3.1-0.1,3.4,2.2,1.7,4.5c-1.6,2.1-2.5,2.2-2.2,5c0.1,1.1,0,2.1,0.5,3C277.7,450.6,277.9,450.7,278.1,450.9
	z"/>
<path fill="none" stroke="#E1E1E1" stroke-miterlimit="10" d="M161.1,491.4c-1.8-3,6.5-4.6,8-5.5c3.2-1.9,4.5-4.6,8.7-5.6
	c2.2-0.5,4.5-0.3,6.7-0.7c1.9-0.3,3.4-1.3,5.1-1.8c3.1-0.8,7-2.1,9.7-0.7c1.7,0.9,2.7,3.9,4.3,4.5c2,0.7,5.9,0.1,8-0.2
	c2.3-0.4,3.6-2.4,5.7-2.8c3-0.5,6.8,1,8.8,2.9c2.1,2.1,4.1,2.8,6.7,4.4c2.3,1.4,4.3,3.5,6.8,4.5c4,1.7,5.5-3.2,8.5-5.3
	c2-1.4,4.3-1.9,6.4-3c1.9-1,3-2.8,4.5-4c2.7-2.2,6.4-1.5,9.4-3c3.1-1.5,5.9-4,9.2-5.4c3.1-1.4,4.6,0,7.7,0.5
	c3.4,0.6,6.4-0.1,9.8-0.8c3.5-0.7,6.3-1.5,9.4-3.3c2.5-1.4,5.4-1.9,7.7-3.6c2.4-1.8,4.1-4.7,6.9-6.2c2.9-1.5,4.4-0.5,5.7-4.1
	c1.2-3.1,2.7-4.9,5.9-6.5c1.8-0.8,3.4,0.2,5.7-0.1c0.6-0.1,0.4-0.7,0.9-1.1c2.7-1.8,1.7,4.2,5.5,2c2-1.2,3.8-4.4,6.2-3.8
	c0.7,0.2,1.7,1.7,2.7,2c1.6,0.5,2.1-0.1,3.6,0.9c1.1,0.8,3.8,3.3,2.9,4c-1.4,1.1-2.5,2.7-4.7,3.3c-2.3,0.6-4.6,1.7-6.3,3.4
	c-1.7,1.8-1.8,4.7-2.8,7c-1.1,2.3-0.8,3.7-0.2,6.2c0.7,2.6-0.6,3.7-0.8,6.1c-0.2,2.6,1.2,2.5-0.5,4.6c-1.3,1.6-3.4,3-4.8,4.5
	c-2.2,2.1-2,5.3-4.7,6.7c-0.2,0.1-0.5-0.1-0.8-0.2"/>
<path fill="none" stroke="#E1E1E1" stroke-miterlimit="10" d="M318.1,491.6c2-0.5,3.4-2.9,4.9-4.1c1.1-0.9,2.1-1.4,3.6-2.2
	c3.4-1.7,3.8-4.8,4.2-8.3c0.3-3,2.4-7.7-0.4-10.2c-1.6-1.4-6,0.5-8.5,1c-7.4,1.4-13.9,3.6-20.8,6.7c-3.2,1.5-6.4,3.9-9.6,5.1
	c-2.1,0.8-4.3,0.2-6.5,0.5c-3.3,0.4-6.5,1.5-9.6,2.5c-2.8,0.9-5.2,0.8-7.5,2.8c-3.6,3.1-6.5,7.4-9.8,10.9"/>
<path fill="none" stroke="#E1E1E1" stroke-miterlimit="10" d="M210.3,298.9c-1.3,0.9,0.6,2.8,1.6,4c1,1.1,2.8,0,4.2-0.2
	c0.9-0.1,3.4-0.1,4.2-0.6c1.3-0.7,1.7-2.7,1-4c-0.6-1.1-2.3-1.4-3.4-2.2c-1.1-0.8-2.2-1.5-2.8-2.4c-0.5-0.7-0.9-2.8-2.2-3
	c-4.7-0.8-1.3,5-2.3,7.2L210.3,298.9z"/>
<path fill="none" stroke="#E1E1E1" stroke-miterlimit="10" d="M171.6,278.4c-0.8-1.4,1.6-5-0.5-6c-1.6-0.8-3.7,1.1-4.6,2.2
	c-2.1,2.5-5.3,4.3-5.7,7.6c-0.2,2.1,6.2-0.8,8.3-0.1c0.9,0.3,2.4,2,3.4,1.1C173.4,282.4,171.9,278.8,171.6,278.4z"/>
<path fill="none" stroke="#E1E1E1" stroke-miterlimit="10" d="M188.9,284.9c2.1,1.5,4.5,1,7.3,0.7c1.1-0.1,2.4-0.1,3.5-0.3
	c0.6-0.1,2.1-0.8,2.5-0.7c1.1,0.2,1.7,1.3,2.7,1.8c0.8,0.4,2.3,0.3,3.2,0.5c2,0.4,4.1,1.1,6.1,1.4c1.9,0.3,4.7,0.8,6.2-0.9
	c0.9-1,0.4-2.1,1-3.2c0.7-1.3,1.7-1.7,3-2.6c1.1-0.7,2.9-1.7,3.6-2.8c0.7-1,0.3-2.7,1-3.6c1.7-2.3,4.8-1.4,4.3-5.4
	c-0.4-3.7-2.9-2.3-0.3-5.9c2.1-3,2.5-6.9,4.9-9.7c1.5-1.8,3.4-2.7,4.3-5.1c0.9-2.3,0.2-4.8,2.4-6.3c2.1-1.4,3.4-1.2,5.1-3.2
	c1.4-1.7,2.3-3.7,3.8-5.2c2-1.9,3.8-1.6,4.2-4.9c0.3-2.6,1.8-5.7,0.2-7.6c-2.3-2.7-6.1,4.4-7.4,7.2c-1.2,2.5-3.1,4.9-5.6,6.5
	c-2.5,1.7-5.1,2.6-7.4,4.6c-1,0.8-2.3,1.6-3.1,2.5c-1.4,1.4-1.7,3.3-3.3,4.5c-1.7,1.4-4.4,1.6-6.5,2.4c-2.5,1-5,2.2-7.6,3.1
	c-5.6,1.8-11.5,1.9-17.2,3.2c-4.5,1.1-9.3,2.4-14.2,1.8c-2.2-0.3-4.9-2.1-7.2-1.2c-1.3,0.5-3.8,3.3-4.6,4.4c-3.1,4.5-2.1,8.3,3.1,9
	c3.3,0.5,3.5,0.3,4.5,3.7c0.7,2.3,1.5,4.8,2.7,7.1c0.6,1.1,1.3,2.7,2.3,3.5C187.6,285,188,284.3,188.9,284.9z"/>
<path fill="none" stroke="#E1E1E1" stroke-miterlimit="10" d="M125.1,112.8c1.6,1.5,5-1.8,4.2-3.4c-0.7-1.4-3.3-1.4-4.1,0.1
	C124.9,110.3,124.1,111.9,125.1,112.8z"/>
<path fill="none" stroke="#E1E1E1" stroke-miterlimit="10" d="M184.7,112.6c0.7,1.2,1.6,6.3,3.2,7.2c1.7,1.1,3.9,2,5.8,3.1
	c2,1.1,4.3,1.3,6.4,2.2c1,0.4,2.8,0.8,3.6,1.5c0.9,0.8,0.8,2.1,1.6,2.8c1.4,1.3,9.7,3.6,11.7,4.3c2.3,0.8,5.5,0.1,7.7,1.6
	c2.1,1.4,2.8,3.3,5.8,2.9c2.2-0.3,2.1-2,3.5-3.7c1.3-1.6,3.4,1.8,5.5,1.2c3-0.8,3.4-4.1,3-6.5c-0.1-0.9-0.1-1.6,0.5-2.5
	c0.8-1.1,2.1-0.9,3-1.8c0.6-0.6,2.4-0.3,4.1-0.7c1.2-0.2,1.4-2.1,2.6-2c1.2,0.1,2.4,3,3.8,3.1c2.3,0,5.4-4.6,6.5-6.2
	c2.8-4.3,5-9.5,8.2-13.6c2.6-3.2,3.4-7,4.9-10.7c1.3-3.2,5.3-7.6,8.6-6.5c3.4,1.3,4.4-1.9,5.5-3c1.6-1.6,3.2-3,5.2-4
	c2.4-1.2,4.7-2.7,6.5-4.8c1-1.2,1.7-2.3,2.9-3.3c0.5-0.4,2-0.8,2.2-1.4c1.2-2.3-4.4-3.3-6.2-4.4c-1.6-0.9-1.7-2-2.4-3.4
	c-0.8-1.5-1.7-2.5-3-3.7c-1.8-1.6-3-2.2-5.1-3.2c-2.6-1.2-1.9-2.5-3.7-4.3c-1.7-1.7-4.1-1.7-6-3.5c-1.3-1.3-3.3-3.8-5.2-4
	c-2.4-0.3-3.3,2.1-4,4c-1.1,3.1,0,5.9-2.2,8.7c-2,2.6-3.6,4-4.5,7.1c-0.9,3.1-2.2,5.5-5.2,6.9c-1.3,0.6-2.7,1-4,1.6
	c-2,1-1.9,1.8-3,3.3c-1.9,2.4-5,2.9-7.5,4.5c-1.2,0.8-2,2.1-3.2,2.8c-1.5,0.9-3.5,1.1-5.2,1.7c-2.7,1-5.4,2.8-8.5,2.2
	c-1.4-0.3-2.8-1-4.2-1.2c-1.6-0.2-3.3,0.2-5,0c-3.9-0.5-3.2,1.5-8.1,2c-2.1,0.2-3.6-4.3-5.9-2.6c-2.8,2,0.5,6.1-0.6,8.7
	c-1.4,3.3-4.2,1-6.4,1c-2.7,0-4.8,2-7.3,2.9c-2.7,1-5.8,1.8-8.3,0.7c-2.7-1.2-4.5-3.1-6.9-4.6c-1.4-0.9-5.8-1.1-4.2-4.1
	c0.5-1,1.7-0.1,2.3-1.2c1-1.8-0.8-2.1-1.8-3c-0.5-0.4-1.1-0.3-1.5-0.8c-0.4-0.4-0.1-1.1-0.4-1.5c-0.7-0.8-1.5-1.4-2.5-1.8
	c-2.7-1.2-4.8-0.2-7.6,0.9c-2.6,1-3.8,1.7-6.5,1.7c-2.2,0-5.1,1-6.7,0.3c-1.5-0.7-3.5-2.4-5.1-3.4c-0.9-0.6-2-1.1-2.8-1.7
	c-0.5-0.4-1.3-1.8-2-2.1c-4.3-2-8.6,5.4-10.3,8c-2.4,3.7-3.8,7.8-7,11c-1.7,1.7-3.1,2.3-2.6,4.8c0.4,2,2.1,3.1,3.1,4.7
	c2.4,3.7,2.5,5.7,5.3,8.5c3.5,3.6,8.7,0.7,12.6,0.1c2.5-0.4,4.8,0.4,6.9,0.7c3,0.4,5.2-1,7.8-2c2.3-0.9,4.8-2.1,7.1-2.5
	c2.7-0.5,5.3,0.7,8,0.2c4.2-0.7,7-4.6,11.7-3.5C181.4,108.7,183.5,110.6,184.7,112.6z"/>
<text transform="matrix(0.8955 0.445 -0.445 0.8955 202.9709 131.1862)"><tspan x="0" y="0" fill="#7D7D7D" font-family="'Verdana-Italic'" font-size="7">9</tspan><tspan x="4.8" y="-0.1" fill="#7D7D7D" font-family="'Verdana-Italic'" font-size="7" rotate="-7.9">8</tspan><tspan x="9.2" y="-0.8" fill="#7D7D7D" font-family="'Verdana-Italic'" font-size="7" rotate="-9.1">0</tspan><tspan x="14.2" y="-1.3" fill="#7D7D7D" font-family="'Verdana-Italic'" font-size="7" rotate="-20.4">0</tspan></text>
<path fill="none" stroke="#E1E1E1" stroke-miterlimit="10" d="M357.6,54.9c-1.3-0.1-3,4-4.1,5.2c-1.6,1.8-3.7,3.2-5.9,4.6
	c-2.2,1.3-7.3,6-6.6,8.9c0.6,2.5,3.2,2.5,5.3,3.2c1.5,0.6,2.9,1.9,4.5,2.1c2.1,0.2,3.6-1.9,5.5-1.3c0.6,0.2,1.1,1.3,1.8,1.7
	c1.5,0.8,3.5,0.4,4.8,1.3"/>
<path fill="none" stroke="#E1E1E1" stroke-miterlimit="10" d="M291.4-0.1c-0.8-0.5-2.1,0.4-2.2,1.5c-0.1,0.9,1.1,2.1,1.2,3.2
	c0.1,1.4-1.1,2.1-1.2,3.1c-0.1,0.5-0.3,0.7-0.3,1.2c0,0.3,1,0.8,1,1.4c0.1,1.9-2.6,3.7-3,5.7c-0.7,3.4,1.3,4.9,3.3,7.1
	c3.9,4.6,6.2,9.3,11.7,12.4c2.7,1.5,5.6,1.9,8.2,3.3c2.1,1.1,3.8,3.3,6,4.4c1.3,0.6,2.8,0.4,4.1,0.6c1.7,0.2,1.6,0.5,3,1.2
	c2.4,1.3,4.1,1.4,6.9,1c6.7-1,10.5-4.3,11.3-11.4c0.3-2.7-0.3-5,1.5-7.1c2.1-2.5,2.3-3.8,3.3-6.8c1.7-5.6-2.2-12.4-3.8-18
	c-0.5-1.6-0.3-3.3-1.4-4.6"/>
<g>
	<path fill="none" stroke="#E1E1E1" stroke-miterlimit="10" d="M360.1,30.4c-0.5,0-1.6-0.1-2.5,1c-2.3,2.8-3.5,6.6-6,10
		c-2.6,3.6-3.2,7.7-7,11c-1.1,0.9,0,2-1,3c-10.8,10.3-28.5,8.5-39-1c-2.1-1.9-2-6-4-8s-6.1-1.9-8-4c-6.3-6.8-14.6-13.5-23-15
		c-1-0.2-1.7,0.5-2,1c-3,4.5-0.5,9.9,0,15c0.2,2-1,4.2-1.8,5.9c-0.5,1.1-3.3-0.1-4.2,1.1c-11.7,14.8-29,18-46,19.4
		c-2.3,0.2-4.3-0.2-6.8-0.2c-2.5,0-5-0.1-7.2,0.5c-4,1.1-7.1,5-11.3,5.5c-3.4,0.4-8.4-1.8-11.3-3.4c-3.3-1.9-6.6-5.1-10.2-6.3
		c-1.9-0.6-3.8-0.9-5.5-1.9c-1.1-0.6-1.9-1.6-3.2-2c-1.2-0.4-2.6,0-3.8-0.3c-3.2-1-5.3-4.9-8.2-6.4c-2.2-1.2-5.9-1.3-8.5-1
		c-9.5,1.3-19.6,1.5-29.3,1.2c-2.5-0.1-5.2-1-5.5,2.2c-0.3,3.3,3.1,2.2,4.7,4c1,1.1-1.2,1.9-1.4,3.2c-0.3,1.7,1.1,2.2,1.6,3.7
		c0.7,2.4-0.4,4.2-1.8,5.6c-1.1,1.1-1.3-0.4-1.5,1.7c-0.1,0.7,0.6,2.5,0.8,3.3c0.8,3.1,2.4,3.4,4.5,5.7c2.2,2.4,1.1,4.8,1.3,7.5
		c0.1,2.7,0.4,6.1,1,8.8c0.2,1.1,0.8,1.5,1.2,2.5c0.5,1.2,0.5,2,0.8,3.2c0.6,2.2,2.3,3.9,2.8,6.3c0.2,1-0.2,2.2,0,3.3
		c0.2,0.8,1,2,1.3,2.9c0.7,2.3,1.5,3.9,2.5,6c1,2.3,0.9,3.8,3.6,4.3c3.2,0.6,5.4-0.9,8.2-1.7c2.2-0.7,5.1-1.4,7.5-1
		c1,0.2,1.7,1.2,2.8,1.2c1.3,0,2.8-1.1,4.1-1.6c3.3-1.3,6.2-1.2,9.2-3.1c2.4-1.6,5.5-3.1,8.4-3.1c2.9,0,6.3,3,9.1,4.3
		c1.3,0.6,3.5,1.2,4.7,2.2c1.2,1,1.7,2.9,3.2,3.8c1.7,0.9,3.9,0.4,5.6,1.7c0.6,0.4,0.9,1.4,1.5,1.8c0.8,0.5,1.9,0.1,2.6,0.6
		c2.2,1.4,0.3,7.4,2.6,8.9c2.1,1.4,3.6,2.1,5.4,3.3c2.2,1.4,6.1,3.4,8.5,4.2c1.5,0.5,3.3,0.1,4.8,0.8c1,0.5,1.8,1.5,3,2
		c2.8,1.3,6.3,3.1,9.4,3.9c2.3,0.6,4.8,0.1,6.9,0.9c1.3,0.5,2.7,1.6,4.1,2.2c1.5,0.7,1.8,1.4,3,2c2.4,1.3,5.4,1.3,6.4,4.5
		c0.8,2.3,0.8,4.2,2.1,6.4c2.2,4,5.6,7.4,7.6,11.5c2.2,4.3,1.7,9.4,2.4,14c0.4,2.4,0.5,4.3-1,6.3c-1.2,1.6-3.3,3.7-4.8,5.2
		c-3.7,3.8-7.6,7.2-11.4,10.8c-0.9,0.8-2.1,1.2-2.5,2.5c-0.4,1.2,0.1,2.1-0.5,3.2c-1.1,2-3.6,4.1-5.5,5.5c-3.1,2.3-6.6,3.6-9.9,5.7
		c-2.1,1.4-5.4,2.8-7.8,2.9c-2.9,0.2-5.7-1-8.4-1c-3.1,0-6.1-0.5-9.3-0.2c-4.9,0.4-10.9,3.4-14.7,0.2c-1.5-1.3-4.1-3.5-6-2.7
		c-1.3,0.5-4.3,3.9-5.5,5.1c-1.8,1.9-2.3,5-3,7.5c-0.6,2.1-1.1,4.1-1,6.5c0.2,4.2-2.2,8.7-3.7,12.7c-0.7,1.7-0.4,4-1.3,5.7
		c-1.9,3.3-4,0.5-6.3,1.3c-2.7,1-4.2,2.6-7,2.6c-1.5,0-2.9-0.3-4.5-0.1c-1.8,0.3-3.9,0.2-5.4,1.3c-3.6,2.7-4.2,6-7.2,9.4
		c-1.9,2.2-6.6,7.4-0.1,5.8c4.4-1.1,6.5-3.7,10.9-1.3c3.8,2.1,9.9,4.1,10.1,4.3c1.8,1.6,4.1,2.5,4.3,2.7c1.2,0.8,3.1-0.4,4.4,0.3
		c0.7,0.4,0.8,1.2,1.6,1.7c1.4,0.8,3.3,2.1,5.1,2.8c1,0.4,2.2,0.6,3.1,1.2c1.1,0.8,0.9,2.3,1.8,3c4.5,3.5,6.3-10.8,7.7-11.9
		c0.5-0.3,1.1,0.2,1.7,0.7c0.8,0.6,2.1,3.2,2.8,3.3c2.7,0.7,2.7,2.3,4.3,4.2c2.7,3.2,8.9,3.5,12.2,3.5c2.3,0,4.5-0.4,6.8,0
		c2.1,0.4,4.1,0.9,6.3,1c5,0.2,9-1.1,12.9,2.3c2.8,2.5,5.5,5.9,9.3,6.7c2.8,0.6,3.5,1.8,6.1,0c1.8-1.2,4.7-4,7-3.3
		c1.6,0.5,2.4,3.1,4.7,3.1c3.4,0,3.4-2.8,2.7-5.3c-0.7-2.4-2-4.5-1.4-7.1c0.6-2.6,1.4-4.3,0.5-7.2c-0.7-2.3-2.3-4.1-3.8-5.9
		c-2.2-2.6-1.5-3.7-1.9-7.1c-0.5-3.3-2.1-4.8,0.4-7.3c1-1,2.2-1.5,2.8-2.8c0.6-1.4,0-3.3,0.1-4.7c0.3-3,3-4.3,2.8-7
		c-0.2-2.6-1.8-4.6-1.3-7.5c0.5-3,2-5,2-8.2c0-3.8,0.7-6.1,2.7-9.3c1.8-3.1,4.8-4.6,5.3-8.5c0.4-2.9,0-3.8,2-6.1
		c2.1-2.3,2.6-4.7,3.6-7.4c0.8-2.2,2.5-3.9,3-6.1c0.5-2.3,0.2-4,2.6-5.4c3.4-2.1,4.3-0.1,4.9-4.3c0.3-2.1,1.8-4.4,1.5-6.5
		c-0.1-0.8-1.1-1.8-1.2-2.7c-0.1-1.1,0.5-2.2,0.4-3.3c-0.1-2.5-2-3.5-2.7-5.8c-0.5-1.8-0.6-1.8,0.2-3.7c0.3-0.8,1.3-2.5,1-3.4
		c-0.5-1.3-1.8-2.1-1.7-2.6c0.5-2.8-1.3-4.9-1.5-7.2c-0.2-2.4,0.7-4.9,1.2-7.2c0.4-2,1.1-3.9,1.5-5.8c0.5-2.8,0.2-4-0.2-6.7
		c-0.3-2.2-0.4-4.8-0.2-7.1c0.3-2.6,1.5-4.6,1.3-7.4c-0.3-3.2-0.5-5.3,1-8.4c1.4-2.9,2.4-5.5,3.5-8.4c1.9-5.2,5.1-10.3,8.7-14.4
		c2.3-2.7,4.6-5.2,7.3-7.5c2.7-2.4,5.3-3.2,8.5-4.7c2.7-1.3,5.4-3.9,8.4-4.5c2.5-0.5,5.2-0.5,7.7,0c2.4,0.5,4.3,0.5,6.9,0.5
		c2.6,0,3.8,1.9,6.2,2.5c1.7,0.4,3.3,0.3,4.9,0.7c1.8,0.5,3.4,1.2,5.2,2.1c3.8,1.8,13.8-0.9,12.2,3.2c-0.1,0.4-0.8-0.1-1.2-0.2"/>
</g>
<path fill="none" stroke="#E1E1E1" stroke-miterlimit="10" d="M-108.1,274.2c0.4,0.7,0.9,2.1,1.1,3.1c0.8,3.8,2.3,3.4,0.6,7.6
	c-1.8,4.5-3,3.2-5.6-1c-1.3-2.1-2.6-6.3-1.5-8.8C-111.4,270.5-110,270.9-108.1,274.2z"/>
<path fill="#7BBCEB" stroke="#4E9BD7" stroke-miterlimit="10" d="M191.7,197.2c-0.4,0-0.8,0-1.2-0.1c-0.4-0.1-0.8-0.4-1.1-0.7
	c-1.4-0.9-3.2-1.1-4.7-1.8s-2.9-2.4-2.3-3.9c0.2-0.4,0.4-0.7,0.5-1.2c0.1-0.8-0.5-0.8-1.1-1.2c-0.7-0.4-1.7-0.7-2.2-1.2
	c-0.6-0.6-0.8-1.5-1.2-2.2c-0.4-0.7-1.1-1.8-1.9-1.6c-0.5,0.1-0.9,0.4-1.4,0.5c-1,0.2-2.4-0.2-2.8-1.2c-0.5-0.9-0.3-2.5-1.1-3.1
	c-0.8-0.6-2-0.6-2.7-1.3c-0.9-1-0.5-3.7-1.8-3.4c-1.4,0.3-1.2,2.9-2.3,2.1c-1.1-0.8-3.1-1.7-4.4-2c-1.3-0.2-2.9-0.8-3-2.1
	c-0.2-1.3,1.2-2.2,1.7-3.3c0.6-1.2-1-3.1,0-3.9c3.8-3.2,12.1-1.9,17-5.7c0.5-0.4,1.1-0.5,1.7-0.5c1.2,0,2.3,0.8,3.1,1.6
	c2.4,2.2,4.5,4.8,6.3,7.5c0.3,0.4,0.6,0.9,0.7,1.3c0.2,0.6,0,1.3,0.1,2c0.7,3,1.5,4.9,2.6,7.2c0.5,1.1,0.5,2.8,0.9,3.9
	c0.4,1.1,0.7,2.7-0.1,3.6c-0.6,0.7-1.6,0.9-2.4,1.4c-0.8,0.4-1.7,1.1-1.5,1.9c0.4,1.1,2,1.1,3.1,0.8c1.3-0.4,3.1-1.2,4.5-1.3
	c1.4-0.1,3,0.6,3.9,1.6c1.2,1.4,0.4,3.6-0.1,5.3c-0.1,0.3-0.2,0.6-0.4,0.7c-0.2,0.1-0.5,0.2-0.7,0.2
	C195.3,197.1,193.5,197.2,191.7,197.2z"/>
<path fill="#7BBCEB" stroke="#4E9BD7" stroke-miterlimit="10" d="M173.3,192.8c0.2-0.1,0.4-0.2,0.5-0.4c0.2-0.5-0.4-0.8-0.8-1.1
	c-1-0.6-1.8-1.4-2.8-1.9c-1-0.6-2.3-0.9-3.3-0.3c-0.3,0.2-0.6,0.5-0.7,0.8c-0.1,0.5,0.4,1,0.8,1.3c0.8,0.6,1.6,1.1,2.5,1.4
	C170.8,193.1,172.2,193.3,173.3,192.8z"/>
<path fill="#FFFFFF" stroke="#4E9BD7" stroke-miterlimit="10" d="M164.3,167.1c-0.6-0.3-1.3-0.5-2-0.4c-0.7,0.1-1.3,0.6-1.3,1.3
	c0,0.6,0.7,0.6,1.2,1c0.1,0.1-0.1,0.4,0,0.6c0.6,0.5,1.5-0.3,2.1-0.8c0.4-0.3,0.7-1,0.4-1.4C164.7,167.3,164.5,167.2,164.3,167.1z"
	/>
<path fill="#EAEAEA" stroke="#D6D6D6" stroke-miterlimit="10" d="M50.2,146c-0.1,1.2,0.2,2.4,1,3.4c0.1,0.2,0.3,0.4,0.4,0.6
	c0.1,0.2,0.1,0.5,0.1,0.7c0,1.4,1,4.2,2.1,3.3c1-0.8-0.5-2.7,0.2-3.8c0.2-0.3,0.4-0.7,0.7-1c0.2-0.2,0.1-0.6,0-1
	c-0.3-0.8-0.5-1.7-1-2.4c-0.6-0.7-1.5-1.1-2.3-0.9c-0.2,0.1-0.5,0.2-0.7,0.4C50.3,145.5,50.3,145.8,50.2,146z"/>
<path fill="#EAEAEA" stroke="#D6D6D6" stroke-miterlimit="10" d="M55.1,160.2c-0.2,1.3,0.5,2.6,1.6,3.4c1.1,0.8,2.5,1.5,2.8,2.8
	c0.4,1.6-1.1,3.3-0.7,4.9c0.2,0.6,0.6,1.2,0.6,1.8c0.1,0.8-0.4,1.6-0.4,2.4c0,1.7,2.1,2.8,2.5,4.5c0.2,1.2-0.6,2.9,0.3,3.8
	c0.4,0.4,3.4,0.7,3.8,1.1c0.7,0.9,2.5,4.2,1.8,5c-0.5,0.6-1.6-0.1-1.9,0.6c-0.3,0.7,1,1.4,0.8,2.2c-0.4,1.9-0.4,4,1.4,5.5
	c0.6,0.5,1.1,1.2,1.5,1.8c1.2,1.9,0.9,4.5,2.1,6.3c1.4,2.1,4.2,2.8,6.7,3.2c1,0.2,2.1,0.4,3.1,0c1-0.4,1.8-1.5,1.4-2.5
	c-0.4-1.2-2.1-1.1-3.3-1.6c-2.9-1.2-6.2-4.2-6.1-5.2c0.2-1.3,2.6-0.5,3.9-0.2c1.4,0.3,2.8,0.6,4.3,0.9c0.4,0.1,0.8,0.2,1.2,0.4
	c0.3,0.2,0.6,0.6,0.9,0.8c1.9,1.8,5.1,0.9,7.4-0.5c0.4-0.3,1-1,1.2-1.5c0.2-0.6-0.4-1.1-0.7-1.6c-1.7-2.6-5.1-6.7-7.1-6
	c-1,0.4,0.5,2.1-0.2,2.9c-1.8,2.2-2.1-3.9-7.5-3.7c-1.4,0-2.7,0.9-4.1,1.1s-3.2-1-2.6-2.3c0.3-0.5,0.9-0.8,1.3-1.3
	c1.3-1.3-0.8-3.5-0.1-5.1c0.2-0.4,1.1,0,1.4-0.4c0.5-0.5,0-1.5,0.5-1.9c1-0.7,2,1.3,2.8,2.3c1.9,2.3,4.8,6.2,7.4,4.7
	c2-1.2-0.4-4.7-1.7-6.7c-1.3-2-3-3.7-4.3-5.7c-1.7-2.5-2.8-5.3-4.4-7.8c-1.6-2.5-4.1-4.7-7-5c-0.5,0-1,0-1.4-0.3
	c-0.4-0.2-0.7-0.7-1.1-1.1c-0.8-0.9-2.2-0.7-3.4-0.9c-0.9-0.2,0.3-1.6,1.1-2s1.6-0.8,1.9-1.6c0.1-0.4,0.1-0.9,0-1.3
	c-0.7-3.2-2.1-6.2-4.1-8.8c-1.6-2.1-4-3.5-5.1-6c-1.1-2.4-0.8-6.2,1.4-7.8c0.6-0.5,1.7-0.7,2.2-1.2c0.7-0.7,0.6-1.9,0.8-2.7
	c0.9-5.4-0.6-8.4,0.7-12c0.5-1.3,3-0.3,4.3-0.9c0.7-0.3,0.9-0.5,1.7-0.8c2.6-0.9,6.4,0.8,7.4,3.4c0.5,1.2-1,1.6-2.1,2.3
	c-1.1,0.8-2.1,2.3-1.2,3.3c1,1.1,3.1,0.1,4.2,1.2c1.1,1.1-0.3,3-0.2,4.6c0.1,0.9,0.7,1.6,1.1,2.4c0.4,0.8,0.9,2.5,0,2.5
	c-1.3,0-2.8-0.6-3.3,0.6c-0.8,1.6,0.7,3.4,2.1,4.6c1.4,1.2,2.9,2.4,3.8,4c1,1.6,1.4,3.6,0.5,5.3c-0.2,0.4-0.4,0.7-0.8,0.9
	c-0.3,0.2-0.6,0.2-1,0.2c-2.4,0.3-4.4-0.7-6.6-1.5c-0.8-0.3-0.8,1.6-0.2,2.2c0.6,0.7,1.5,1.1,1.8,2c0.4,1.2-0.6,2.6,0,3.8
	c0.9,1.9,4.6,0.7,5.4,2.7c0.4,1-0.3,2.2,0.2,3.2c0.6,1.2,2.5,1.4,3.8,1.2c1.3-0.2,3-0.3,3,1c0,1.5-2.6,2.2-2.3,3.7
	c0.1,0.5,0.5,0.8,0.9,1.1c1.5,1.2,2.9,2.4,4.4,3.6c0.5,0.4,1,0.9,1.3,1.5c0.5,1.1,0.1,2.5,0.5,3.7c0.3,1,0.8,1.8,1.5,2.6
	c0.6,0.7,2,1,2.4,2.3c0.3,1,0,2.7,0.2,3.4c0.7,1.8,2.3,2,2.7,3.9c0.4,1.6-1.4,4.3,0.2,4.7c0.8,0.2,1.9-1,2.9-1
	c1.1,0,1.9,1.3,2.2,2.2c0.5,1.7-3.3,4.6-1.8,5.4c2.5,1.2,4.4-5.2,7.2-2.3c0.8,0.8-0.5,3.4,0.6,3.8c0.2,0.1,0.5,0.1,0.7,0.2
	c0.5,0.3,0.4,1.1,0.3,1.7c-0.3,1.4,1.7,3,0.9,4.2c-0.6,0.9-2.3,0-3,0.9c-0.6,0.9-0.3,2.4,0.8,2.7c0.7,0.2,1.4-0.1,2,0.2
	c0.3,0.2,0.7,0.4,0.7,0.8c0,1.3,1.6,3.5,2.6,4.8c0.7,0.9-1.5,1.5-0.6,1.9c2,0.7,5.9,2.9,3.7,3.9c-1.3,0.7-5,0.3-6.3-0.6
	c-0.5-0.3-0.6-1-0.9-1.5c-3.4-5.1-5,0-7.1-1.6c-0.6-0.4-0.7-1.3-1.4-1.2s-1.2,0.9-1,1.5c0.3,1.2,2.8,2.2,1.8,2.9
	c-1.8,1.3-4.3,1.4-4.8,3.5c-0.1,0.6-0.2,1.2-0.3,1.7c-0.4,1.4-1.8,2.4-3.3,2.8c-1.4,0.4-3,0.3-4.5,0.2c-0.6,0-1.1-0.1-1.6-0.5
	c-0.3-0.3-0.5-0.7-0.6-1.2c-0.6-2-0.6-4.6-2.5-5.4c-0.5-0.2-1-0.2-1.4,0.1c-0.2,0.2-0.3,0.5-0.4,0.8c-0.3,1.3-0.3,2.5,0,3.8
	c0.1,0.5,0.4,1.1,0.4,1.6c-0.1,0.7-0.8,1.1-1.5,1.1c-0.7,0-1.3-0.3-1.9-0.6c-5.7-3.2-9.7-8.7-13.1-14.2c-1.9-3-3.6-6.1-5.4-9.2
	c-0.6-1-0.6-2-1.1-3.1c-1.1-2.5-1.7-5.5-2.2-8.2c-0.4-2.9-0.8-5.1,0.2-7.8c0.5-1.3,1-3.2,0.8-4.5c-0.3-1.5-1.9-2.4-2.2-3.9
	c-0.2-1,0.1-2,0.4-2.9c0.7-2.6,0.5-5.4-0.5-7.9c-0.6-1.6-1-3.3-2.2-4.5c-0.9-1-2.1-1.9-2.4-3.1c-0.2-0.8,0-1.6,0-2.5
	c0-3.1-2.2-6.1-1.6-9.1c0.1-0.3,0.1-0.5,0.4-0.7c0.2-0.1,0.5-0.1,0.7-0.1c1.2,0.2,2.3,1.2,2.7,2.3c0.2,0.5,0.2,1,0.4,1.4
	c0.5,1,1.9,0.5,2.8,1.1C55.1,157,55.3,158.8,55.1,160.2z"/>
<path fill="#EAEAEA" stroke="#D6D6D6" stroke-miterlimit="10" d="M16.5,233.2c1.8-0.6,2.6-3.2,1.5-4.7c-0.5-0.7-1.3-1.2-1.5-2.1
	c-0.2-0.7,0-1.5-0.2-2.1c-0.5-1.3-2.3-1.4-3.5-2c-1.7-0.9-2.4-3.1-4.1-4.2c-1.4-0.9-3.2-0.8-4.5-1.7c-0.4-0.3-0.7-0.6-1.1-0.8
	c-1.7-0.9-3.5,0.9-5.3,1.4c-1.2,0.3-2.4,0.1-3.6,0c-3.9-0.5-8.1-0.1-10-1.4c-2.3-1.5-3.2,0.8-1.6,2.8c0.2,0.3,1,0.8,1.3,0.9
	c1.7,0.6,1.6,2.7,1.1,4.7c-0.6,2.2,0,4.1,1,6.1s2.8,3.7,5,4c1.2,0.2,2.8,0.5,4,0.8c1.2,0.3,1.2,1.4,1.7,2.5c0.5,1.1,2.1-0.7,3.2-0.2
	c1.9,0.8,2.3,3.4,4.3,3.7c0.8,0.1,1.6-0.1,2.3-0.2c2.1-0.4,4.4-1.1,5.4-2.9c0.7-1.3,0.8-3,2-3.8C14.7,233.4,15.7,233.4,16.5,233.2z"
	/>
<path fill="#EAEAEA" stroke="#D6D6D6" stroke-miterlimit="10" d="M-26.4,212.5c0.7,0,1.4-0.6,2.1-0.6c0.6,0,1.1,0.4,1.7,0.7
	c0.5,0.3,1.2,0.5,1.7,0.3c0.7-0.4,0.7-1.5,0.4-2.2c-0.3-0.8-0.9-1.6-1.5-2.2c-0.3-0.2-0.6-0.5-0.9-0.7c-0.9-0.6-1.7-1.3-2.6-1.9
	c-0.2-0.2-0.5-0.3-0.8-0.4c-0.3-0.1-0.6,0-0.9,0c-0.7,0-1.4-0.4-2.1-0.5c-1.3-0.1-2.4,1-3.5,1.6c-0.6,0.4-1.3,0.6-1.8,1.1
	c-0.5,0.5-0.9,1.2-0.8,1.8c0.2,0.6,0.7,1,1.3,1.1c0.6,0.1,1.2-0.1,1.8-0.4c0.8-0.4,1.6-1.1,2.4-0.8c0.7,0.2,1,1,1.3,1.6
	C-28.1,211.8-27.3,212.5-26.4,212.5z"/>
<path fill="#EAEAEA" stroke="#D6D6D6" stroke-miterlimit="10" d="M-27.8,285.1c0.6-0.1,1.1,0.2,1.7,0.4c3.8,1.7,8.6,1.2,11.8,3.9
	c1.4,1.2,2.4,2.9,2.6,4.8c0.1,0.7,0.1,1.3-0.2,2c-0.2,0.4-0.5,0.8-0.6,1.2c-0.5,1.2,0.4,2.7-0.1,3.9c-0.3,0.8-1.1,1.3-1.3,2.2
	c-0.5,2.4,6,4.9,3.8,5.8c-1.5,0.6-3.3-1-4.5,0.1c-0.4,0.4-0.7,0.8-1.2,1.1c-0.7,0.4-1.5,0.2-2.2,0.2c-2.2-0.2-4.5,0.5-6.3,1.9
	c-0.3,0.2-0.6,0.5-0.9,0.5c-0.4,0.1-0.8-0.1-1.2-0.1c-1.1,0-2,1.2-3.1,1.3c-0.7,0-1.4-0.4-2.1-0.3c-0.4,0.1-0.8,0.3-1.2,0.5
	c-2.1,0.9-4.3-0.8-5.8-2.5c-1.4-1.7-2.8-3.8-5.1-4.2c-1.6-0.3-5,0.6-4.5-0.9c0.4-1.6,3.3-1,4-2.5c1.1-2.7-2-6.1-0.2-8.4
	c0.6-0.7,1.5-1,2.2-1.6c1.7-1.4,2.3-4.3,4.5-4.5c0.6-0.1,1-0.2,1.5-0.4c0.9-0.4,1.1-1.6,1.8-2.3c1.3-1.4,3.8-0.3,5.5-1.2
	C-28.6,285.5-28.2,285.2-27.8,285.1z"/>
<path fill="none" stroke="#D6D6D6" stroke-miterlimit="10" d="M-20.4,212.4c0.9,0.4,2.7,3.1,2.4,2.6"/>
<path fill="none" stroke="#D6D6D6" stroke-miterlimit="10" d="M-35.5,209.3c-1.2,0.5-6.4-1.5-8.8-2.5c-2.3-0.9-4.5-1.9-6.8-2.8
	c-0.4-0.2-0.9-0.4-1.4-0.4c-0.6-0.1-1.3,0.1-1.9,0.3c-2.4,0.7-4.8,1.4-7.2,2.1c-2.4,0.7-4.8,1.4-7.2,1.6c-3.1,0.3-6.3-0.2-9.4-1
	c-0.9-0.2-1.8-0.5-2.5-1.1c-0.8-0.6-1.1-1.7-1.8-2.4c-3.4-3.3-3.6-7.7-3.1-12.1"/>
<path fill="none" stroke="#D6D6D6" stroke-miterlimit="10" d="M-93.4,175.1c-0.4-0.4-1.1-1.6-1.1-2.2c0-0.1,0-0.3-0.1-0.4"/>
<path fill="none" stroke="#D6D6D6" stroke-miterlimit="10" d="M-94.7,166.9c0.2-1.3,1.6-2.5,1.4-4.4s-1-3.6-1.2-5.5
	c-0.5-4.2,1.7-8.4,1-12.6c-0.3-1.7-1-3.5-0.1-5c0.5-0.8,1.4-1.4,2.2-1.9c4.9-3.1,8.8-7.6,11.1-12.9c1.5-3.3,2.3-7,3.8-10.3
	c1.2-2.5,2.7-4.9,3.7-7.5c1.5-4,1.7-8.4,3.3-12.3c1.9-4.6,5.7-8.1,9.6-11.3c1.2-1,2.5-2,3-3.5c0.4-1.1,0.4-2.4,0.3-3.6
	c-0.1-1.7-0.1-3.5,0.5-5.2c0.6-1.6,2.9-4.8,4.3-5.8c1.3-1,2-2.2,2.8-3.7"/>
<path fill="none" stroke="#4E9BD7" stroke-miterlimit="10" d="M58.5,117.6c-1.3-0.7-2.6-3.9-1.9-5.1c0.7-1.3,2.4-2.7,2.8-4.1
	c0.3-1.2,0.3-2.1-0.6-3c-2.2-2.2-6.1,0.3-8.5-1.6c-2.7-2.2-1.7-8-3.8-10.8c-1.1-1.5-1.8-3.5-3.6-3.9c-5-1.1-11-1.7-15.5-4.1
	c-0.9-0.5-1.9-0.7-2.8-1c-1.4-0.5-2.7-1-4.1-1.4c-2.2-0.6-4.4-1-6.6-1.4c-0.7-0.1-1.3-0.2-2-0.3c-1.3-0.2-2.6-0.4-3.9-0.7
	c-1.4-0.2-2.8-2.4-4.1-2.8c-4-1.3-7.1-1.6-10.9-3.3c-1.8-0.8-3.7-2.3-5.6-2.9c-3.8-1.2-7.5-2.9-11-4.9c-1.2-0.7-2.3-1.4-3.6-1.8
	c-2.5-0.7-5.1,0-7.7,0.1c-2.5,0.1-4.8-1-7.3-1.4c-3.1-0.5-7-1.1-8.9-3.6c-0.9-1.1-1.7-1.8-2.3-3.1c-1.6-3.4-4.3-5.7-5.7-9.2
	c-0.5-1.3-1.6-2.7-2.1-4c-0.8-2.1-2.5-3.7-4.2-5.2c-5.1-4.8-4.2-1.7-9.3-6.5c-0.8-0.7-4.5-9.2-5.5-9.7c-0.9-0.5-5-0.9-6-1.2
	c-2.4-0.7-4.3-4.2-6.6-3.3c-2,0.8-2,3.9-3.9,4.8c-1.9,1-4.1,1.3-6.2,1.7c-11.6,2.1-23,5.7-33.6,10.7c-2.6,1.2-5.2,2.6-7.3,4.6
	c-0.5,0.5-1,1-1.7,1.1c-0.6,0.1-1.1-0.1-1.7-0.1c-2.3-0.1-3.6,2.4-5.2,4.1c-1.9,2.1-4.8,3.3-7.6,3.1c-2.4-0.1-5.1,1.7-5,4.1
	c0,0.5,0.2,1.1,0,1.6c-0.1,0.4-0.4,0.8-0.7,1.1c-2,2-4.7,3.1-6.8,4.9c-1.1,0.9-2,2.1-3,3.2c-1.6,1.9-3.4,3.7-5.1,5.4
	c-0.9,0.9-1.7,1.8-2.8,2.5c-1.1,0.7-2.2,1.3-3.4,1.9c-2.7,1.4-5.3,3.3-7.5,5.5"/>
<path fill="none" stroke="#4E9BD7" stroke-miterlimit="10" d="M104.9,200.7c1.2-1.6,3-3.2,4.2-4.8c0.5-0.6,1.2-2.5,1.6-3.1
	c1.5-2.3,4.8-1.4,7.5-1.5c4.8-0.2,9.7-0.5,14.5-0.2c10.8,0.5,23.8,2.7,34.3,0.3"/>
<path fill="none" stroke="#4E9BD7" stroke-miterlimit="10" d="M174.1,192c2.2-0.3,5.8,0.2,7.9,0.1"/>
<path fill="none" stroke="#D6D6D6" stroke-miterlimit="10" d="M-44.6,295.6c-1.6-0.9-4.5,1.2-5.1,0c-0.5-0.9-0.3-1.9-1.2-2.2
	c-0.9-0.3-2.1-0.5-2.5-1.4c-0.3-0.8,0.2-1.9-0.5-2.5c-0.2-0.2-0.5-0.3-0.8-0.4c-3-1-4.8-4.6-3.9-7.6c0.4-1.2,1.1-2.4,1-3.7
	c-0.3-2.2-2.9-3.2-5-3.8c-0.7-0.2-1.5-0.5-2-1c-2.1-2,0.1-5.2-2-7.2c-0.6-0.5-1.4-1-1.6-1.8c-0.1-0.4,0-1.7,0-2.1
	c-0.2-1.2,0.1-2.6-0.1-3.4c-0.3-1.1-6.1-0.8-4.7-3.2c1.2-2.2,4.5-7,3.7-9.5c-0.5-1.6-2-3.9-3.3-5"/>
<path fill="none" stroke="#D6D6D6" stroke-miterlimit="10" d="M-81.3,225.8c-2.4-2-3.1-5.7-1.7-8.4c0.3-0.6,0.7-1.1,1.1-1.7
	c0.9-1.3,1.6-2.7,2.2-4.1c0.2-0.5,0.4-0.9,0.4-1.4c-0.1-1.5-2-1.9-3.2-2.8c-1.4-1.1-1.7-3.4-0.7-4.9"/>
<path fill="#7BBCEB" stroke="#D6D6D6" stroke-miterlimit="10" d="M-89.9,175c-1.7-1-4.3,0.1-4.8,2.1c-0.1,0.3-0.1,0.6,0,0.9
	c0.2,0.3,0.5,0.5,0.8,0.7c1,0.8,1.2,2.2,1.4,3.5c0.1,0.5,0.2,1,0.5,1.3c0.2,0.2,0.6,0.4,0.9,0.4c0.8,0.2,1.7,0.3,2.6,0.2
	c0.7-0.1,1.7-0.1,1.8,0.6c0.1,0.3-0.1,0.6-0.2,0.8c-0.3,0.6-0.4,1.3-0.9,1.8c-0.4,0.4-1-0.1-1.3-0.5c-0.3-0.4-0.5-0.9-0.8-1.3
	s-1-0.5-1.3-0.1c-0.1,0.2-0.2,0.4-0.2,0.6c-0.1,1.7,0.5,3.5,1.6,4.8c1.7,2,3.6,1.5,4.4-0.7c0.5-1.3,1.5-1.6,1.4-3.1
	c-0.1-1.4,0.1-3.3-1.1-4.1c-0.3-0.2-0.7,0.2-1,0c-0.8-0.9,0.8-2.6,0-3.5c-0.3-0.4-1.1-1-1.3-1.5c-0.1-0.3-0.9-0.8-0.9-1.2
	C-88.2,175.8-89,175.5-89.9,175z"/>
<path fill="#EAEAEA" stroke="#D6D6D6" stroke-miterlimit="10" d="M-80.9,240.5c0.8,1.1,2.4,1,3.7,0.8c1.2-0.2,2.4-0.3,3.7-0.5
	c0.8-0.1,1.6-0.2,2.3-0.6c1.2-0.6,1.3-2.6,1.4-4c0.1-1.4-0.1-1.9-0.4-3.3c-0.6-2.2-2.7-2.6-4.5-3.1c-0.7-0.2-1.5-0.3-2-0.9
	c-0.3-0.5-0.4-1.1-0.5-1.6c-0.3-1.1-1.4-1.9-2.5-2c-1.1-0.1-2.3,0.6-2.8,1.6c-0.8,1.6,0.1,3.5,1,5.1c0.1,0.2,0.3,0.5,0.3,0.7
	c0.1,0.8-0.6,1.5-1.2,2.1c-0.6,0.6-1.1,1.5-0.6,2.2c0.2,0.3,0.6,0.4,0.9,0.7C-81.4,238.4-81.5,239.6-80.9,240.5z"/>
<path fill="#FFFFFF" stroke="#D6D6D6" stroke-miterlimit="10" d="M86.2,226.5c-0.1,0.5-0.7,0.6-1.1,0.6c-0.7,0-1.5-0.5-1.4-1.1
	c0-0.5,0.5-0.9,1-0.9c0.5,0,0.9,0.2,1.3,0.6C86.1,225.9,86.3,226.2,86.2,226.5z"/>
<path fill="#FFFFFF" stroke="#D6D6D6" stroke-miterlimit="10" d="M98,218.2c-0.5-0.5-1.1-1.1-1.8-1.3s-1.6-0.1-2,0.5
	c-0.3,0.5-0.2,1.3,0.2,1.7c0.3,0.2,0.6,0.4,1,0.4c0.6,0.1,1.1,0.1,1.7,0c0.5,0,1.3-0.3,1.2-0.8C98.3,218.6,98.2,218.4,98,218.2z"/>
<path fill="#FFFFFF" stroke="#D6D6D6" stroke-miterlimit="10" d="M89,208.2c0.6,0.9,1.2,1.8,2.1,2.2c1,0.4,2.4-0.3,2.3-1.3
	c-0.1-0.8-0.9-1.2-1.6-1.6c-0.7-0.4-1.4-1.1-1.1-1.9c0.2-0.5,0.8-0.7,1.3-0.8c0.4-0.1,0.8-0.1,1.1,0c0.3,0.1,0.6,0.3,0.9,0.5
	c1,0.8,1.9,1.6,2.9,2.4c0.3,0.2,0.5,0.4,0.7,0.7c0.2,0.3,0.2,0.6,0.3,1c0.1,1.9-1.3,3.6-2.9,4.5c-1.7,0.9-3.6,1.2-5.3,2
	c-0.5,0.2-1,0.4-1.4,0.3c-0.5-0.1-0.2-0.9-0.7-1.1c-0.5-0.3-1.1,0.3-1.5-0.1s-0.7-1-1.3-1.1c-0.5-0.1-1,0.2-1.2,0.6
	c-0.3,0.4-0.4,0.9-0.5,1.4c-0.1,0.5-0.2,1-0.3,1.5c-0.1,0.4-0.2,1,0.1,1.3c0.3,0.4,1,0.4,1.4,0.1s0.9-0.6,1.3-0.8
	c0.6-0.2,1.3-0.1,1.7-0.5c0.7-0.6,0.4-1.7,0.1-2.6c-0.5-1.7-0.8-3.4-0.9-5.2c0-0.5,0-1,0.2-1.4c0.2-0.4,0.7-0.8,1.2-0.7
	C88.4,207.4,88.7,207.8,89,208.2z"/>
<path fill="#FFFFFF" stroke="#D6D6D6" stroke-miterlimit="10" d="M66,139.9c-0.1-0.4-0.4-0.7-0.6-1c-0.1-0.1-0.2-0.2-0.3-0.3
	c-0.2-0.2-0.5-0.2-0.8-0.1c-0.6,0.1-1.2,0.4-1.5,0.9c-0.4,0.5,0.1,1.2-0.2,1.7c-0.3,0.4-0.9,0.6-0.7,1s0.7,0.8,1.2,0.8
	c0.5,0,1-0.2,1.4-0.4c0.5-0.3,0.9-0.6,1.3-1C66,141,66.2,140.4,66,139.9z"/>
<path fill="#7BBCEB" stroke="#D6D6D6" stroke-miterlimit="10" d="M-97,168.5c0.1,0.2,0.3,0.2,0.5,0.4c0.6,0.4,0.6,1.2,0.4,1.9
	c-0.1,0.3-0.3,0.6-0.3,0.9c0,0.3,0.1,0.7,0.4,0.8c0.1,0,0.2,0.1,0.4,0.1c0.4,0,0.9,0,1.2-0.2c0.5-0.3,0.8-0.9,1-1.5
	c0.1-0.3,0.2-0.6,0.2-0.8c0-0.5-0.3-1-0.4-1.5c0-0.2,0-0.5-0.1-0.7c-0.1-0.2-0.2-0.3-0.4-0.5c-0.4-0.3-0.8-0.7-1.3-0.7
	c-0.5,0-0.9,0.5-1.4,0.7c-0.1,0-0.3,0.1-0.4,0.2c-0.1,0.1-0.1,0.2-0.1,0.3C-97.1,168.1-97.1,168.4-97,168.5z"/>
<path fill="#FFFFFF" stroke="#D6D6D6" stroke-miterlimit="10" d="M-18.4,294.3c0.1-0.2,0.4-0.4,0.6-0.6c0.4-0.6,0.1-1.5-0.5-1.9
	c-0.6-0.4-1.3-0.5-2-0.8c-1.1-0.4-2-1.2-3.1-1.5c-0.5-0.2-1-0.2-1.5-0.3c-0.6-0.1-1.3-0.2-1.9-0.3c-1.1-0.2-2.2-0.4-3.3-0.4
	c-1.3,0-3-0.1-3.4,1.1c-0.6,1.7,2.9,0.9,4,2.4c0.4,0.6-0.7,1.2-1.1,1.8c-0.4,0.6-0.6,1.5,0,1.9c0.3,0.2,0.7,0.2,1,0.4
	c0.4,0.3,0.4,0.8,0.5,1.3c0.1,0.9,0.6,2.8,0.7,3.6c0.1,1,0.1,1.9,0.5,2.8s0.6,0.7,1.5,0.9c3.2,0.6,5-2.8,6.7-2.2
	c0.6,0.2,1.3,0.7,1.8,0.2c0.1-0.1,0.2-0.3,0.2-0.4c0.2-0.8,0-1.7,0.1-2.6s0.7-1.5,1.5-1.8c0.7-0.3-0.3-1.4-1-1.8
	C-17.9,295.7-18.8,295-18.4,294.3z"/>
<path fill="none" stroke="#D6D6D6" stroke-miterlimit="10" d="M-9.9,308.9c0.8,0.3,2.5,0.6,3.2,0.2c0.3-0.1,0.5-0.3,0.8-0.4
	c1.2-0.5,2.7,0.4,3.7-0.4c1.1-0.8,0.8-2.8,1.9-3.5c0.6-0.4,1.4-0.2,2.1,0.1c1.1,0.3,2.3,0.7,3.4,1c1.2,0.4,2.5,0.8,3.4,1.5
	c1.3,1.1,2.1,2.7,2.8,4.2c1,2.2,1.9,4.3,2.9,6.5c0.7,1.5,1.4,3.1,2.7,4.2c1.3,1.1,3.2,1.4,4.4,2.5c0.7,0.6,1.2,1.5,1.8,2.2
	c1.9,2.5,4.7,4.4,6.1,7.2"/>
<text transform="matrix(1 0 0 1 193.2716 167.0404)"><tspan x="0" y="0" fill="#585858" font-family="'Verdana-Italic'" font-size="8">Upper</tspan><tspan x="0" y="9.6" fill="#585858" font-family="'Verdana-Italic'" font-size="8">Peninsula Lake</tspan></text>
<text transform="matrix(1 0 0 1 224.0369 256.6758)"><tspan x="0" y="0" fill="#585858" font-family="'Verdana-Italic'" font-size="8">Schofield</tspan><tspan x="0" y="9.6" fill="#585858" font-family="'Verdana-Italic'" font-size="8">Peak</tspan></text>
<text transform="matrix(1 0 0 1 53.2713 395.707)"><tspan x="0" y="0" fill="#585858" font-family="'Verdana-Italic'" font-size="8">Richardson</tspan><tspan x="0" y="9.6" fill="#585858" font-family="'Verdana-Italic'" font-size="8">Peak</tspan></text>
<text transform="matrix(1 0 0 1 22.271 228.0407)"><tspan x="0" y="0" fill="#585858" font-family="'Verdana-Italic'" font-size="8">Bear</tspan><tspan x="0" y="9.6" fill="#585858" font-family="'Verdana-Italic'" font-size="8">Lake</tspan></text>
<text transform="matrix(1 0 0 1 89.7716 160.3737)"><tspan x="0" y="0" fill="#585858" font-family="'Verdana-Italic'" font-size="8">Peninsula</tspan><tspan x="0" y="9.6" fill="#585858" font-family="'Verdana-Italic'" font-size="8">Lake</tspan></text>
<text transform="matrix(1 0 0 1 82.4067 109.0405)"><tspan x="0" y="0" fill="#585858" font-family="'Verdana-Italic'" font-size="8">Haystack</tspan><tspan x="17.4" y="9.6" fill="#585858" font-family="'Verdana-Italic'" font-size="8">Peak</tspan></text>
<text transform="matrix(1 0 0 1 123.4819 114.3735)" fill="#585858" font-family="'Verdana-Italic'" font-size="8"> 10003</text>
<text transform="matrix(1 0 0 1 16.7557 400.3735)" fill="#585858" font-family="'Verdana-Italic'" font-size="8"> 9877 </text>
<text transform="matrix(1 0 0 1 187.7557 262.0402)" fill="#585858" font-family="'Verdana-Italic'" font-size="8"> 9944 </text>
<g>
	<g>
		<polyline fill="none" stroke="#7D7D7D" stroke-miterlimit="10" points="85.2,341.6 85.2,348.7 275.4,348.7 275.4,341.7 		"/>
		<line fill="none" stroke="#7D7D7D" stroke-miterlimit="10" x1="180.5" y1="341.4" x2="180.5" y2="348.7"/>
		<line fill="none" stroke="#7D7D7D" stroke-miterlimit="10" x1="161.2" y1="349.2" x2="161.2" y2="343.7"/>
		<line fill="none" stroke="#7D7D7D" stroke-miterlimit="10" x1="142.4" y1="349.2" x2="142.4" y2="343.7"/>
		<line fill="none" stroke="#7D7D7D" stroke-miterlimit="10" x1="123.3" y1="349.2" x2="123.3" y2="343.5"/>
		<line fill="none" stroke="#7D7D7D" stroke-miterlimit="10" x1="104.6" y1="349.2" x2="104.6" y2="343.7"/>
	</g>
	<text transform="matrix(1 0 0 1 83.7833 339.1468)" fill="#7D7D7D" font-family="'Verdana'" font-size="8">0</text>
	<text transform="matrix(1 0 0 1 174.2944 339.1468)" fill="#7D7D7D" font-family="'Verdana'" font-size="8">0.5</text>
	<text transform="matrix(1 0 0 1 258.3413 339.1468)" fill="#7D7D7D" font-family="'Verdana'" font-size="8">1 mi</text>
</g>
</svg>
