<?xml version="1.0" encoding="utf-8"?>
<!-- Generator: Adobe Illustrator 17.1.0, SVG Export Plug-In . SVG Version: 6.00 Build 0)  -->
<!DOCTYPE svg PUBLIC "-//W3C//DTD SVG 1.1//EN" "http://www.w3.org/Graphics/SVG/1.1/DTD/svg11.dtd">
<svg version="1.1" id="Layer_1" xmlns="http://www.w3.org/2000/svg" xmlns:xlink="http://www.w3.org/1999/xlink" x="0px" y="0px"
	 viewBox="0 0 360 360" enable-background="new 0 0 360 360" xml:space="preserve">
<path fill="none" stroke="#E1E1E1" stroke-miterlimit="10" d="M-11.1,345.3c3.3-2.1,7-3.5,10.8-4.1c1.9-0.3,4-0.3,5.3,1.1
	c0.4,0.4,0.8,1,1.3,0.9c0.7-0.1,0.8-1,1.3-1.4c0.8-0.6,2,0.2,2.6,1c3.5,4.3,5.5,9.7,8.1,14.6c0.6,1.1,1.3,2.3,2.4,3
	c1.1,0.7,2.7,0.8,3.6-0.2c0.5-0.5,0.8-1.3,1.5-1.3c0.2,0,0.4,0.1,0.6,0.2c3.8,2,6,6.6,5.2,10.9c-0.2,1.2-0.7,2.4-1.1,3.5
	c-1.4,3.7-2.9,7.4-4.3,11"/>
<path fill="none" stroke="#E1E1E1" stroke-miterlimit="10" d="M-11.6,332.9c3.8-3.7,9.9-2.6,15-1.3c3.4,0.9,6.8,1.7,10.2,2.6
	c2.4,0.6,4.8,1.2,6.8,2.5c2,1.3,3.6,3.1,5.3,4.7c5.4,4.9,14.4,11.9,20,7.3c1.8-1.5,2.4-5.7,4.5-4.8c2.5,1.1-3.5,10.8-2.7,13.4
	c2.3,7.3,3.1,12.8,1.9,16.6c-0.4,1.3,2.5-1.9,3.7-2.6c1.2-0.7,2.2,0.9,3.6,0.6c6.4-1.5-3.7-12.9-3-19.5c0.2-2.2,1-4.5,2.7-5.7
	c0.7-0.5,1.5-0.8,2.2-1.4c1.7-1.6,2.2-4.2,4.3-5.2c1.2-0.6,0.3-2.6-0.6-3.6s-2.1-1.8-2.5-3c-0.7-2,0.8-4.5-0.5-6.1
	c-0.5-0.6-1.3-1-1.5-1.7c-0.1-0.4,0-0.9,0-1.4c0.6-4.4-3.1-8.1-4.4-12.3c-0.7-2.2-0.7-4.5-0.7-6.8c0-5.1,0-10.2,0-15.2
	c0-1.1,0-2.3-0.3-3.4c-0.7-2.7-3.1-4.7-5.3-6.4c-1.1-0.9-2.1-1.7-3.2-2.6c-0.8-0.6-1.5-1.2-2.4-1.8c-3.6-2.4-7.8-3.3-12-4.4
	c-1.8-0.5-3.6-1.1-5-2.4c-0.6-0.6-1.1-1.3-1.8-1.4c-0.9-0.2-1.8,0.6-2.7,0.8c-1.6,0.4-3.2-0.8-4.6-1.7c-3.7-2.6-7.9-4.4-12.4-5.2
	c-0.4-0.1-0.8-0.1-1.1,0c-1.4,0.5-0.5,2.6,0,4c0.8,2.3-0.6,5.2-3,5.9c-2.4,0.7-3.4-2.6-5.7-3.4c-2.9-1.1-2.6,5.5-2.3,8.6
	c0.1,0.7,0.1,1.3,0.4,2c0.3,0.8,0.9,1.4,1.5,2.1c2.9,3.6,4,8.7,2.6,13.2c-0.5,1.7-1.3,3.3-1.3,5.1c-0.1,2.8,1.8,5.6,1.3,8.3
	c-0.6,3-3.7,4.6-5.9,6.8c-1.9,1.9-3,4.4-4,6.9"/>
<path fill="none" stroke="#E1E1E1" stroke-miterlimit="10" d="M-10.9,236.9c1.9,2,2.9,6,5.6,5.9c7-0.3,0.6-21,7.3-19
	c3,0.9,1.2,6.1,1.5,9.2c0.3,3.1,1.8,6.6,4.8,7.3c1.1,0.2,2.2,0.1,3.3,0.2c3.4,0.5,5.7,3.5,7.9,6.2c4.1,4.9,9.1,9,14.6,12.2
	c0.6,0.3,1.2,0.7,1.9,0.7c0.9,0.1,1.7-0.4,2.6-0.3c0.9,0.1,1.7,0.6,2.3,1.2c6.4,5.6,10.2,13.5,13.7,21.3c1.9,4,3.7,8.2,3.9,12.6
	c0.1,5.4-2.3,11.1,0,15.9c1.4,2.9,4.2,4.9,5.7,7.7c1.1,2.1,1.5,4.5,2.2,6.7c1.3,4,3.8,7.6,7.1,10.1c1,0.8,2.1,1.4,3.4,1.6
	c2.7,0.4,5.2-1.7,6.7-4c1.5-2.3,2.6-4.9,4.7-6.7c1.2-1,2.7-1.7,3.4-3c1-1.7,0.4-3.9,0.3-5.9c-0.2-3.1,0.8-6.1,1.8-9
	c2.9-8.4,5.9-16.9,8.8-25.3c0.4-1.3,0.9-2.6,2-3.5c0.7-0.6,1.6-0.8,2.3-1.4c1.8-1.5,1.1-4.4,1.8-6.6c0.5-1.9,2-3.5,3.4-4.9
	c10.9-11.2,21.7-22.4,32.6-33.7c10.9-11.2,26.1-21.1,29.5-36.4c3.1-13.9,7.5-28.4,17.2-38.9c0.8-0.9,1.7-1.8,2.9-2.2
	c3.9-1.3,4.1,5.1,7.1,7.9c1.6,1.4,4.3-0.2,6.3,0.7c1.9,0.9,3.5,3,2.9,5.1c-0.3,1.2-1.4,2.2-2.3,3.1c-10.8,10.1-19,23.3-22,37.7
	c-0.6,2.8,2.7,4.5,3.8,7.2c0.6,1.5-0.4,3.7-1.8,4.4c-2.1,1.1-4.8,0.4-6.6,1.8c-1.6,1.2-2.9,2.9-3.1,4.9c-0.2,2,0.8,4.4,2.8,4.7
	c6.7,1,13.9,3,20.2,0.8c9.3-3.2,20-16.7,25.4-14.7c1.2,0.4-1.5,2.9-0.6,3.9c1.7,1.8,6.9-0.7,6.9,1.8c0,3.3-7,5.3-5.4,8.1
	c0.9,1.7,4.5,1.6,3.7,3.4c-1.1,2.4-3.8,3.9-6.4,4.2c-2.2,0.2-3.8,1.2-5.7,2.4c-4.3,2.5-10-1.5-14.5,0.6c-1.5,0.7-3.1,2-2.8,3.6
	c0.3,1.2,1.6,2,1.8,3.3c0.3,1.7-1.5,3-3,4.1c-1.4,1.1-1.1,2.6-1,4.4c0.1,2.9-6.5,5.2-8,2.7c-0.7-1.2-0.8-2.7-2.2-2.6
	c-1.4,0.1-2.5,1-3.7,1.8c-3.5,2.4-8.1,1.4-12.1,2.9c-5.4,2-9.7,11.6-5.8,15.8c1.1,1.2,4-0.9,4.7,0.6c2.8,5.9-10.9,6.7-17.3,8.1
	c-26.9,5.9-50.2,26-60.1,51.6c-3.1,7.9-5.4,17.8-0.1,24.5c4.3,5.3,9.5,9.8,14.3,14.7c0.7,0.7,1.4,1.5,2.4,1.9
	c4.1,1.8,8.6,0.7,12.7-0.9c1.4-0.5,0.2-2.9,0.7-4.3c1.9-5.1,9.4-6.1,14.3-3.8c4.9,2.3,7.9,7.8,8.1,13.2"/>
<path fill="none" stroke="#E1E1E1" stroke-miterlimit="10" d="M154,382.4c-0.4-0.5,0.3-1.3,1-1.4s1.3,0.4,1.9,0.6
	c1,0.4,2.2,0.3,3.2-0.3c0.9-0.6,1.8-1.8,1.4-2.8c-0.4-1.2-2-1.6-3.2-1.5c-0.7,0.1-1.4,0.4-2.2,0.4c-0.9,0-1.7-0.7-2.1-1.5
	c-0.7-1.5-0.1-3.4,1.1-4.5c1.2-1.1,2.9-2.5,4.5-2c0.7,0.2,0.7,1.4,0.4,2.1c-0.3,0.6-0.9,1.4-0.4,1.9c0.1,0.1,0.3,0.2,0.5,0.3
	c1.4,0.5,2.8,1.1,4.3,1.6c1.1,0.4,2.4,0.8,3.2,0c0.6-0.5,1.1-1.4,1.8-1.1c0.5,0.2,0.5,1,1,1.4c1,0.9,2.8-1.3,3.7-0.4
	c1.5,1.7,2.3,4,3.5,5.9c0.7,1.2,1.4,2.4,1.7,3.7"/>
<path fill="none" stroke="#E1E1E1" stroke-miterlimit="10" d="M114.7,341.9c0.4-0.1,0.9-0.1,1.3-0.3c0.8-0.4,1-1.4,1.2-2.3
	c0.6-2.6,1.8-5,2.6-7.5c0.8-2.5,1-5.4-0.3-7.7c-0.2-0.3-0.4-0.5-0.4-0.9c-0.1-0.6,0.3-1.1,0.5-1.7c0.5-1.3-0.2-3.1-1.5-3.1
	c-0.7,0-1.3,0.5-1.7,1c-5.5,5.3-11.1,11.2-12.1,18.8c-0.3,2-0.2,4.1,1,5.8c1.1,1.7,3.4,2.6,5.2,1.7
	C112,344.8,112.8,342.4,114.7,341.9z"/>
<path fill="none" stroke="#E1E1E1" stroke-miterlimit="10" d="M154.8,276.7c1.5-1.4,4.4-0.4,5.6-2.1c0.6-0.8,0.4-1.9,0.5-2.9
	c0-1,0.5-2.2,1.5-2.3c0.5-0.1,1,0.1,1.4,0.1c1.6,0.1,1.4-1.9,1.8-3.4c0.6-2.2,4.5-2,5.3-4.1c0.5-1.3,0.6-3,1.8-3.5
	c0.5-0.2,1-0.1,1.4-0.3c1.4-0.3,2-2,1.8-3.4c-0.2-1.4-1.1-2.6-1.9-3.7c-0.8-1.1-1.9-2.3-3.3-2.1c-0.8,0.1-1.4,0.7-2.2,0.9
	c-1.6,0.5-2.3-1.3-3.3-2.5c-1.7-2.1-5.4,2.4-4.5,5.1c0.1,0.4,0.4,0.9,0.4,1.3c0,0.8-0.6,1.4-1,2c-1.3,1.8,0.1,4.6-1.3,6.3
	c-2.2,2.7-6.4,2.3-9.1,4.6c-0.5,0.4-1,0.8-1.3,1.3c-1,1.3-1.2,2.9-1.4,4.5c-0.3,2.1-0.5,4.4,0.5,6.2c1,1.9,3.8,2.8,5.3,1.3
	C153.7,279.2,153.8,277.6,154.8,276.7z"/>
<path fill="none" stroke="#E1E1E1" stroke-miterlimit="10" d="M180.9,213.5c-0.4-0.4-0.5-1-0.9-1.5c-0.5-0.5-1.4-0.6-2.1-0.4
	s-1.2,0.8-1.7,1.4c-0.5,0.7-0.8,1.5-1.1,2.2c-0.5,1.1-0.9,2.6-0.1,3.4c0.9,0.9,2.3,0.4,3.5,0.1c1.7-0.4,3.7,0.9,5.2,0
	c1.5-0.9-0.2-3.7-1.7-4.6C181.6,214,181.2,213.8,180.9,213.5z"/>
<path fill="none" stroke="#E1E1E1" stroke-miterlimit="10" d="M58.6,261.8c-0.7,5.3-0.1,10.6,0.4,15.9c0.8,7.9,1.6,15.7,2.4,23.6
	c0.1,1.3,0.3,2.7,1.1,3.7c0.7,0.9,1.7,1.4,2.7,1.9c4.4,2.3,8.9,4.5,13.3,6.8c0.9,0.5,2,1,3,0.7c0.8-0.2,1.5-0.9,2-1.6
	c2.7-3.6,4.3-8,4.7-12.5c0.2-2.6,0-5.2,0.3-7.7c1-7.4,6.2-13.5,9-20.4c1.9-4.8,2.6-10,4.5-14.9c1.8-4.8,5.2-9.5,10.2-11
	c1.6-0.5,3.3-0.6,4.8-1.3c1.5-0.7,2.7-2.5,2.2-4c-0.4-1-1.3-1.7-1.4-2.7c-0.1-1.3,1.3-2.2,2.6-2.3c1.3-0.1,2.5,0.4,3.8,0.4
	c3.8,0.2,6.9-3,9.4-5.9c4.4-5.1,8.7-10.2,13.1-15.3c5.7-6.6,11.4-13.3,16.1-20.7c4.8-7.6,8.5-16,11.2-24.6c2.9-9.3,5-19.3,11.5-26.6
	c1.9-2.1,4.2-4.1,5.4-6.7c1.2-2.6-0.6-5-2.1-7.5c-0.8-1.4,2.5-1.9,3.4-3.2c1.1-1.6-0.7-3.9-2.6-4c-1.9-0.1-3.6,1.1-5,2.4
	c-1.4,1.3-2.8,2.8-4.6,3.4c-1.5,0.5-3.2,0.3-4.8,0.1c-15.9-1.4-31.3,5.3-46.1,11.4c-13.3,5.5-26.9,10.5-40.9,13.9
	c-2.4,0.6-4.9,1.1-7.3,0.5c-2.9-0.7-5.5-3.1-8.4-2.4c-1.5,0.4-2.8,1.5-4.3,1.7c-1.4,0.2-2.7-0.5-3.9-1c-14.3-5.6-30.4-3.1-45.5-0.1
	c-6.3,1.2-12.9,5.8-15,11.8c-1.2,3.5,4.3,6.4,8,6.4c1.2,0,2.5-0.3,3-1.3c0.5-0.8,0.3-1.8,0.5-2.8c0.6-4,6.5-5.1,9.7-2.7
	s4.5,6.6,5.5,10.5c0.9,3.5,3.6,7.1,2.7,10.6c-0.7,2.7-5.4,0.4-8.2,0.8c-2.6,0.4-4.5,2.5-5.9,4.7c-6.2,9.4-7.8,21.8-4.2,32.5
	c0.4,1.2,1,2.5,2,3.2c3.3,2.2,7.1-2.5,11-2.5c3.1,0,5.4,2.8,6.8,5.6c1.4,2.8,2.5,6,5,7.7c2.5,1.7,5.9,1.6,8.9,1.2
	c3-0.4,6.2-1,9.1,0.1s5.1,4.6,3.6,7.3c-1,1.8-3.5,3-3.4,5c0,0.9,0.5,1.6,0.8,2.4C59.7,255.4,58.9,258.7,58.6,261.8z"/>
<path fill="none" stroke="#E1E1E1" stroke-miterlimit="10" d="M68.4,273.4c-0.2-2.2-1-3.8-1.2-6c-0.3-4-0.7-8.1,0.1-12
	c0.3-1.7,0.9-3.4,1.1-5.1c0.1-1.2,0.1-2.4,0.3-3.6c0.5-2.4,3.5-3.2,4.8-5.3c1.9-3.1-1.4-7.4-3.8-10.1c-1-1.2-2.4-2.1-3.1-3.5
	s-0.7-3.4,0.6-4.2c0.7-0.4,1.6-0.2,2.5-0.2c6.1-0.3,8.8,4.5,12.2,6.9c1.3,0.9,4.9,2.4,5.2,3.9c0.2,1.1,1.3,3.1,1.6,3.9
	c0.5,1,4,3.1,0.8,3.5c-3.3,0.4,0.2,5.5-0.4,8.8c-0.4,2.2-2.1,3.9-2.5,6c-0.6,2.9,1.5,5.7,1.7,8.7c0.1,1.2,0,2.3-0.2,3.5
	c-0.5,3.5-0.9,7-1.4,10.5c-0.2,1.2-0.3,2.4-0.9,3.4c-0.8,1.4-2.2,2.3-2.8,3.8c-1.3,3.2,1.6,7.5-0.7,10c-0.7,0.8-1.8,1.1-2.7,1.6
	c-1.4,0.7-2.7,1.6-4.3,2c-1.5,0.4-3.4,0.1-4.2-1.3c-0.6-1.1-0.4-2.4-0.3-3.6c0.1-3.3-1.3-6.5-2.2-9.7s0.1-3.9,0-7.2
	C68.6,277,68.4,274.6,68.4,273.4z"/>
<path fill="none" stroke="#E1E1E1" stroke-miterlimit="10" d="M159.6,182.1c4.1-7.2,5.1-15.7,7.4-23.7c1.5-5.1,3.5-10,6.1-14.7
	c1.4-2.5,2.8-5.9,0.7-7.7c-1.4-1.3-3.7-0.9-5.6-0.5c-6.9,1.7-13.9,3.4-20.8,5.1c-7.5,1.8-15.5,3.9-20.6,9.7
	c-1.7,1.9-3.3,4.4-5.8,5.1c-2.4,0.7-4.9-0.6-7.4-1.1c-4.6-1-9.3,0.5-13.4,2.7c-4.1,2.1-7.9,4.9-12.2,6.8c-7.9,3.4-16.7,3.6-25.3,3.7
	c-0.9,0-1.8,0-2.6-0.4c-1.2-0.7-1.8-2.4-3.2-2.6c-0.7-0.1-1.3,0.2-2,0.2c-3.3,0.4-7.5,0.2-9.3-2.6c-0.7-1.2,0.5-2.8-0.7-3.4
	s-2.7-0.4-4-0.2c-2.7,0.5-5.5,0.9-8.2,1.4c-1.1,0.2-2.2,0.4-3.1,1.1c-0.9,0.7-1.5,2.2-0.7,2.9c3.7,3.1,10.4-0.8,14.1,2.3
	c2.5,2.1,0.3,6.4,0.4,9.6c0.1,2.8,0.2,5.5,0.6,8.3c0.8,5.6,6.6,8.3,8.8,13.5c1.2,2.8-2.2,5.9-1.6,8.9c0.6,3,2.8,5.8,5.8,6.5
	c3.5,0.7,6.9-1.5,10.3-2.7c3.2-1.1,6.7-1.3,10-0.6c1.7,0.4,3.4,1,4.6,2.3c1.1,1.3,0.1,3.1,0.5,4.8c0.4,1.9,3.7-0.7,5.4,0.1
	c2.3,1.1,0.9,5.1,1.4,7.6c0.4,2.4,0.9,5,2.2,7.1s3.5,3.9,6,3.9c2.5,0,4-2.4,4.4-4.8c0.4-2.4,4.1-2.5,6.5-2.1
	c2.4,0.4,4.9,1.1,7.2,0.3c1.1-0.4,2-1.1,2.9-1.8c5.7-5,8.8-12.5,14.9-16.9c3.4-2.4,7.5-3.8,10.1-7c2.1-2.6,2.9-6,5-8.6
	c1.3-1.6,3.1-2.8,4.7-4.2C155.6,187.8,157.9,185.1,159.6,182.1z"/>
<path fill="none" stroke="#E1E1E1" stroke-miterlimit="10" d="M148.8,179.7c1-1.6,1.9-3.4,3.4-4.4c1.1-0.8,2.6-1.2,3.3-2.3
	c0.6-0.9,0.5-2.1,0.9-3.2c0.3-0.7,0.8-1.3,1.3-1.9c3.8-4.8,4.2-11.5,4.4-17.6c0-0.8,0-1.7-0.4-2.4c-0.9-1.6-3.1-1.6-4.9-1.3
	c-6.4,1-12.7,2.8-18.9,4.7c-1.5,0.4-3,0.9-4.4,1.3c-1.1,0.3-2.2,0.6-3.1,1.3c-1.2,0.8-2.1,2.1-3,3.2c-4.5,5.9-12.6,15.8-18.4,11.1
	c-1.9-1.6-3.6-3-6-3c-6.3,0-12.7,1-18.7,2.9c-1.4,0.5-2.9,1-4.1,1.9c-2,1.5-3.2,3.9-4.2,6.2c-1.2,2.5-2.3,4.9-3.5,7.4
	c-1.2,2.5-2.4,5.1-3.3,7.8c-0.7,2-1.2,4.2-0.8,6.3c0.4,2.1,2,4.1,4.1,4.3c0.8,0.1,1.7,0,2.4,0.4c0.6,0.4,0.9,1,1.4,1.5
	c1.7,1.3,4.4-0.6,6.2,0.5c0.5,0.3,0.9,0.8,1.3,1.3c2.6,3.5,5.9,6.6,9.9,8.5c4,1.8,8.6,2.4,12.8,1.1c1.3-0.4,2.5-1,3.8-1.1
	c0.9-0.1,1.8-0.1,2.7-0.3c1.9-0.4,3.3-2,4.9-3.1c2.4-1.7,5.3-2.6,7.8-4.1s2.4-4.9,4.3-7.2c1.7-2.1,4.7-2.3,6.5-4.2
	C141,190.2,145.4,185.3,148.8,179.7z"/>
<path fill="none" stroke="#E1E1E1" stroke-miterlimit="10" d="M135.7,174.8c2.8-2.8,5.4-5.9,7.7-9.1c0.5-0.7,1.1-1.5,1.2-2.5
	c0.1-0.9-0.4-2-1.3-2.2c-1-0.2-1.9,0.6-2.6,1.3c-2.5,2.3-5.7,3.8-9,4.2c-2,0.3-4.3,0.2-5.9,1.4c-1,0.8-1.6,1.9-2.5,2.8
	c-3.6,4-10.2,3.2-15,5.8c-0.4,0.2-0.9,0.5-1.4,0.6c-0.7,0.2-1.4,0-2.1-0.1c-1.9-0.1-3.7,0.6-5.6,0.7s-4.1-0.6-4.6-2.5
	c-0.2-0.6-0.1-1.3-0.5-1.8c-0.4-0.5-1-0.6-1.6-0.7c-1.8-0.3-3.7-0.7-5.6-0.3c-1.8,0.4-3.6,1.8-3.8,3.6c-0.1,0.8,0.1,1.6,0.2,2.3
	c1.1,5.2,2.2,10.3,3.3,15.5c0.2,0.9,0.4,1.9,1,2.6c0.5,0.6,1.2,1,1.9,1.4c4.3,2.3,9,4.7,13.8,4c1.8-0.3,3.6-0.9,5.4-1
	c2.3-0.1,4.6,0.8,6.8,0c3.2-1.2,4.3-5.4,7.3-7c1-0.5,2.3-0.8,2.9-1.7c0.6-0.8,0.6-1.8,0.9-2.7c0.7-2.1,3-3.2,4.9-4.3
	c1.9-1.2,3.8-3.3,3-5.4c-0.2-0.6-0.7-1.2-0.8-1.8C133.7,176.9,134.8,175.7,135.7,174.8z"/>
<path fill="none" stroke="#E1E1E1" stroke-miterlimit="10" d="M59.4,198.7c0.6,0.7,1.6,0.2,2.4-0.2c1.8-1.1,4.9-3,3.7-4.8
	c-0.3-0.5-1.2-0.7-1.8-0.6c-0.4,0.1-0.8,0.3-1.1,0.5c-1.2,0.8-2.3,2-3,3.3C59.3,197.4,59,198.2,59.4,198.7z"/>
<path fill="none" stroke="#E1E1E1" stroke-miterlimit="10" d="M216.5,139.2c-0.9-0.5-2-0.5-3-0.4c-1.8,0.1-3.8-0.5-5.4,0.4
	c-0.8,0.5-1.1,1.7-1.6,2.5c-0.1,0.2-0.3,0.4-0.3,0.6c0,0.4,0.3,0.7,0.6,1c1,0.7,2.6,1,2.6,2.2c0,0.5-0.3,1-0.2,1.5
	c0.1,0.7,1,1,1.7,0.9c0.7-0.1,1.4-0.5,2.1-0.7c0.7-0.2,1.6-0.1,1.9,0.6c0.1,0.2,0.1,0.4,0.3,0.5c0.2,0.1,0.5,0,0.7,0
	c0.2,0,0.4,0.1,0.6,0.2c2.5,1.6,5.9,1.6,8.4,0.1c0.7-0.4,1.5-1.3,1.1-2.1c-0.2-0.4-0.7-0.8-0.4-1.1c0.3-0.2,0.6-0.2,0.9-0.4
	c0.7-0.5,0.4-1.7-0.3-2.2c-0.6-0.6-1.5-0.7-2.3-0.7c-1.7,0-3.5,0.4-4.9-0.5C218,140.9,217.5,139.7,216.5,139.2z"/>
<path fill="none" stroke="#E1E1E1" stroke-miterlimit="10" d="M212.4,121.5c-2.9,0.9-6.3,2.6-6.1,5.6c0.1,0.9,0.5,1.8,0.9,2.6
	c1,2,2.4,4.2,4.6,4.8c2.1,0.6,4.3-0.5,6.1-1.9c1.8-1.3,3.6-4.7,5.5-3.6c2.2,1.3-0.4,5.2,0.2,7.7c0.5,1.7,3.6,0.9,4.6,2.3
	c0.6,0.9,0.4,2.1,0.6,3.1c0.4,2.6,3.6,4.3,6,3.2s1.2-4.1,1.5-6.7c0.4-3.3,5.3-3.9,7.9-5.8c1.1-0.8,2.2-1.6,2.8-2.8
	c0.6-1.2,0.5-2.9-0.6-3.7c-0.6-0.4-1.4-0.6-1.8-1.2c-0.4-0.5-0.3-1.2-0.5-1.8c-0.6-3-4.6-3.7-7.5-2.9c-2.9,0.8-6.3,3.6-8.8,1.9
	c-0.9-0.6,0.1-2.2-0.4-3C224.9,115,217.3,119.9,212.4,121.5z"/>
<path fill="none" stroke="#E1E1E1" stroke-miterlimit="10" d="M202.8,214.8c-1.7-0.4-3.6,0.9-4.1,2.6c-0.5,1.5,0,3.4,1.3,4.1
	c0.6,0.3,1.3,0.4,1.9,0.3c1.7-0.2,3.2-1.5,3.4-3.2C205.6,216.9,204.5,215.1,202.8,214.8z"/>
<path fill="none" stroke="#E1E1E1" stroke-miterlimit="10" d="M250.4,179.9c2.1-2.1,3.9-4.5,5.5-7c1.2-2,2.4-4.1,4.1-5.6
	c1.2-1.1,2.6-1.8,3.7-2.9c1.4-1.4,2.2-3.2,3-5c0.9-2.1,1.9-4.2,2.1-6.4c0.1-1.7-0.1-3.4,0.5-5c0.4-0.9,1-1.7,1.5-2.5
	c1.4-2.7-2.5-5.6-1.3-8.5c0.5-1.3,2.8-0.7,3.4-1.9c0.6-1.2,0.2-2.9-1-3.5c-0.6-0.3-1.2-0.3-1.8-0.6c-2.2-1.2-1.6-5.4-4.1-5.9
	c-1.9-0.4-1.9,2.6-3.2,4c-0.6,0.7-2,0.3-2.5,1.1c-1.1,1.5,1.3,4.1-0.1,5.5c-0.9,0.9-2.4,0.4-3.7,0.2c-2.3-0.3-4.6,0.7-6.3,2.2
	c-1.8,1.5-3.1,3.4-4.5,5.2c-6.4,8.1-15.1,14.1-22.1,21.8c-4.7,5.2-8.7,11-13.7,15.9c-2.1,2.1-4.5,3.9-6.3,6.3
	c-1.9,2.3-5.2,6.3-2.9,8.2c2.6,2.2,6.8,0.6,9.8,2.3c0.3,0.2,0.7,0.4,1,0.5c0.8,0.1,1.5-0.4,2.2-0.8c3.4-1.6,7.3,1.8,11.1,1.2
	c1.4-0.2,2.6-1,3.8-1.7c2.7-1.7,5.5-3.5,8.2-5.2c1.3-0.9,2.7-1.7,3.7-2.9c2.1-2.4,3.1-6.3,6.2-7c0.6-0.1,1.3-0.1,1.9-0.3
	C249.3,181,249.9,180.5,250.4,179.9z"/>
<path fill="none" stroke="#E1E1E1" stroke-miterlimit="10" d="M231.9,177.4c-0.8,1.9-1.7,3.9-3.2,5.5c-0.6,0.6-1.3,1.2-2.2,1.4
	c-0.9,0.2-1.8,0.1-2.5-0.6c-0.6-0.6-0.7-1.6-0.5-2.5s0.7-1.6,1.2-2.3c1.6-2.4,3.2-4.9,4.9-7.3c1-1.5,2.1-3.1,3.4-4.4
	c0.5-0.5,1.3-1,1.9-0.5c0.3,0.2,0.4,0.6,0.5,1c0.2,0.8,0.4,1.7,0,2.4c-0.2,0.3-0.4,0.5-0.6,0.8c-1.1,1.3-1.6,3-2.1,4.6
	C232.4,176.2,232.1,176.8,231.9,177.4z"/>
<path fill="none" stroke="#E1E1E1" stroke-miterlimit="10" d="M250.4,154.7c-0.9-0.5-2.1-0.2-3.1,0.2c-1,0.4-2.1,0.8-3.1,1.2
	c-1.3,0.5-2.7,1.1-3.8,2c-0.9,0.8-1.6,1.9-2.2,3c-0.5,0.9-1,1.9-0.7,2.8c0.3,0.9,1.2,1.4,2.1,1.5c0.9,0.1,1.8-0.2,2.7-0.5
	c1-0.3,2-0.7,3-0.9c0.6-0.1,1.2-0.1,1.8-0.3c2.2-0.6,3.5-3,4.1-5.3C251.5,157.1,251.5,155.4,250.4,154.7z"/>
<path fill="none" stroke="#E1E1E1" stroke-miterlimit="10" d="M193.6,382c-4.2-7.5-8.5-15-14.2-21.5c-5.7-6.4-13.1-11.7-21.5-13.4
	c-0.9-0.2-1.8-0.3-2.7-0.1c-0.8,0.2-1.5,0.8-2.2,1.3c-6.8,5.3-13.6,11.7-22.2,12.5c-0.9,0.1-2,0.1-2.8-0.4c-2.1-1.3-1.1-4.6,0.1-6.8
	c5.9-10.4,13.1-21.9,24.9-24.4c0.9-0.2,1.8-0.3,2.6-0.7c4.2-2.2,4-8.2,7.2-11.7c1.7-1.9,0.2-5.9,2.2-7.5c5-3.9,9.7-7.3,13.8-12.3
	c4.3-5.2,10.4-8.7,17-10.2c3.7-0.8,7.5-1.1,11.1-2.4c2.1-0.8,4.1-1.9,6.3-2.1c0.9-0.1,1.8,0,2.7-0.2c1.5-0.2,2.8-1,4-1.8
	c5.7-3.5,13.6-4.8,17.2-10.5c4.2-6.5,13.1-14.1,9.4-20.9c-1.8-3.4-9.6,5-11.5,1.6c-4-7.1,14.5-7.8,20.1-13.6
	c3.3-3.4,6.8-6.2,10.3-9.4c0.7-0.7,0.5-1.9,0.8-2.9c0.5-2,1.7-3.9,1.7-6c0-2-1.6-5.8-3.3-4.6c-3.5,2.7-5.6,10.2-9.2,7.6
	c-3.8-2.6-0.8-9.5,2.5-12.7c1.9-1.8,4.3-2.9,6.4-4.5c2.1-1.6,3.8-4.1,3.4-6.6c-0.1-0.4-0.2-0.8-0.5-1.1c-0.6-0.6-1.6-0.3-2.4,0.1
	c-6.4,2.7-12.3,9.1-19.2,8.2c-1.9-0.2-0.3-3.8,1.5-4.6c1.8-0.8,3.9-0.8,5.5-1.8c1.8-1.1,2.6-3.3,4-4.9c4.2-5,20.4-4.7,16.5-10
	c-1.5-2.1-5.1,2.6-7.6,1.8c-1.4-0.5-0.7-3,0-4.3s2-2.3,2.9-3.5c3.1-3.9,3.5-9.4,6.6-13.3c1.7-2.1,4.1-3.6,5.7-5.8
	c0.9-1.3,1.5-2.7,2.5-4c1.2-1.5,2.8-2.7,4.5-3.5c5-2.4,10.8-2.3,15.9-4.4c3.8-1.6,8.5-2.1,11.3-5.1c2.4-2.7-4.4-5.4-5.9-8.7
	c-0.6-1.4-0.7-3-0.9-4.5c-0.5-3.3-2-6.4-4.2-8.9c-1.4-1.6-3.2-2.8-4.4-4.6c-1.2-1.7-1.8-4.1-0.8-5.9c1.2-2.1,3.9-2.5,6.1-3.3
	c2.3-0.8,4.7-2.9,3.9-5.1c-0.2-0.7-0.8-1.2-1.2-1.8c-1.7-2.7-0.6-6.5,1.7-8.9c2.3-2.3,5.4-3.6,8.3-5c2.9-1.4,5.9-3.3,7.3-6.2
	c0.9-1.8,2.6-3.9,4.2-5c1.6-1.1,3.5-2,4.9-3.3c2.7-2.5,3.6-6.6,6.5-8.9c1.7-1.4,4-2.1,5-4c0.6-1.1,0.7-2.5,1.7-3.1
	c0.7-0.4,1.7-0.3,2.4-0.8c1.1-0.7,1.2-2.2,1.3-3.6c0.1-1.3,1.3-1.9,1.9-3.1c0.6-1.3-3.2-0.4-3.8-1.8c-0.3-0.7,0.2-1.4,0.7-2
	c1.4-1.6,3.3-2.8,5.3-3.5c0.7-0.2,1.4-0.4,1.9-0.9s1-1.4,0.4-1.9c-3-2.8-7.1-4.2-10.7-6.3c-0.4-0.2-0.9-0.5-1.3-0.5
	c-0.6,0-1.2,0.3-1.8,0.5c-2.7,0.9-6-1.8-5.6-4.6c0.1-0.7,0.3-1.3,0.2-2c-0.3-1.1-1.6-1.4-2.5-2c-2.3-1.6-0.2-5.8-2.3-7.7
	c-1.2-1.1-2.6-1.9-2-3.4c0.7-1.5,2.2-2.2,3.7-2.8s3.1-1.1,4.1-2.3c1-1.3,1.2-3.1,2-4.4c1.8-2.7,6-3.2,7.6-6.1
	c0.9-1.7,0.7-3.9,2.2-5.1c0.8-0.6,1.7-0.7,2.6-1c2.6-0.9,4.4-3.8,4.1-6.6"/>
<path fill="none" stroke="#E1E1E1" stroke-miterlimit="10" d="M372.9-15.6c-5.6,3.9-11.3,8-15.2,13.7s-5.4,13.4-2.2,19.4
	c4,7.5,16.5,4.7,21.9,11.2c3.6,4.4-7.7,8.9-8,14.5c-0.1,2.6,1.3,5.2,0.5,7.6c-0.8,2.4-3.3,3.6-5.5,4.7c-9.6,4.5-18.9,10.5-24.8,19.4
	c-3.7,5.6-5.9,12.1-7.9,18.6c-0.4,1.2-0.7,2.5-0.7,3.8c0.2,3.4,3.3,5.8,6.2,7.8c2.1,1.4,6.7,1.7,6.2,4.2c-0.7,3.4-7,0.8-9.9,2.6
	c-1.2,0.8-0.9,2.7-0.7,4.2c0.6,4.3,1.8,9.5,6,11c2,0.8,4.3,0.4,6.4,1.2c2,0.7,1.1,3,1.9,5c2.6,6.6,14.1-3.2,19.3-8
	c1.7-1.6,4.9-3.3,6-1.2c0.2,0.5,0.3,1.1,0.2,1.6c-0.7,5-7,6.6-10.6,10.2c-2.7,2.7-3.8,6.7-6.6,9.2c-1.5,1.4-3.4,2.3-5.3,3.2
	c-7.9,3.9-15.3,8.7-22.6,13.5c-4.2,2.7-8.4,5.5-12.5,8.2c-8.1,5.3-16.4,10.7-23.2,17.6c-6.1,6.2-11,13.5-16.8,20
	c-0.7,0.7-1.4,1.5-1.6,2.4c-0.7,2.3,1.1,4.5,2.6,6.4c3.5,4.5,4.9,11.9,0.3,15.3c-4.3,3.1-6.4,8.1-9.5,12.5c-0.4,0.6-0.9,1.2-1.5,1.7
	c-0.8,0.5-1.7,0.6-2.6,0.8c-3.1,0.6-5.9,2.3-8,4.7c-0.8,1-1.6,2.2-1.7,3.5c-0.3,2.9,2.5,5.5,1.9,8.3c-0.3,1.4-1.3,2.5-2.3,3.5
	c-4.4,4.6-8.8,9.2-13.1,13.9c-1,1.1-2.7,3.4-3.8,4.3c-2.3,1.8-2.4,5.7-5.2,6.6c-2.3,0.8-4.8-0.7-6.8,0.7c-2,1.4-3.6,3.4-5.8,4.5
	c-1.7,0.9-3.6,1.2-5.5,1.6c-6.1,1.4-11.8,3.8-17.5,6.3c-1.6,0.7-3.2,1.4-4.6,2.2c-4.4,2.5-8,6.5-10,11.2c-0.3,0.8-0.6,1.6-1.2,2.2
	c-0.3,0.4-0.7,0.7-1.1,1c-2.6,2.4-3.3,6.4-2.6,9.8c0.7,3.5,2.6,6.6,4.4,9.6c1.7,2.8,3.3,5.5,5.5,7.9c1.3,1.5,2.9,2.9,3.8,4.7
	c0.9,1.7,1.1,3.7,2.1,5.3c1.4,2.3,4,3.6,5.9,5.5c6.1,6.2,3.5,17.2,8.6,24.3"/>
<path fill="none" stroke="#E1E1E1" stroke-miterlimit="10" d="M214.9,382.8c-3.4-7.7-6.8-15.3-10.2-23c-0.7-1.5-1.3-2.9-2-4.4
	c-3.3-7.5-6.6-14.9-9.9-22.4c-1.1-2.5-2.2-5-2.3-7.7c-0.4-8.2,8.1-14,16.1-16s16.8-2.4,23.3-7.4c8.3-6.4,10.2-18.4,18-25.3
	c5.8-5.1,14.4-7.2,18.2-14c2.2-4,2.2-8.9,4.8-12.7c2.5-3.6,6.9-5.6,9.2-9.3c1.9-3.1,2-6.9,2.8-10.4c0.8-3.5,4.1-5.2,6.4-7.9
	c2.1-2.5-6.3-3.2-6.8-6.4c-0.2-1,0.3-2,0.8-2.8c3.3-6.3,6.6-12.7,11.3-18.1c4.4-5,9.8-9,15.3-12.8c14.7-10.2,30.1-19.5,46-27.9
	c12.1-6.3,25.8-12.2,39-8.8"/>
<path fill="none" stroke="#E1E1E1" stroke-miterlimit="10" d="M390.8,158.6c-4,0.7-7.9,1.5-11.9,2.2c-9.4,1.7-19,3.5-27.4,8.1
	c-2.1,1.2-4.1,2.5-6.4,3.2c-1.6,0.5-3.4,0.7-5,1.2c-2.2,0.7-4.1,2-6.1,3.3c-12.1,8.3-24.3,16.6-36.4,24.9c-0.9,0.6-1.8,1.3-2.4,2.2
	c-1.7,2.6,0,6.2,2.7,7.7c2.7,1.5,7.4-1.3,9,1.3c7.2,11.9-14,24.5-24.6,33.6c-2,1.7-4.2,3.5-4.5,6.1c-0.3,2.7,1.7,5.4,1.3,8.1
	c-0.2,1.6-1.2,2.9-2.1,4.1c-4.2,5.2-9.3,9.6-15.2,12.8c-4.7,2.6-10.1,4.7-12.7,9.4c-1.2,2.1-1.7,4.5-2.9,6.5c-2,3.5-5.7,5.5-8.8,8
	c-3.1,2.5-3.1,6.7-5,10.2c-4.3,8.3-17.4,7-26.1,10.5c-1.4,0.6-2.9,1.2-3.9,2.3c-3.6,3.9,0.7,10.4,5.6,12.6c1.2,0.5,2.4,1,3.2,2
	c0.7,1,0.9,2.3,0.9,3.5c0.5,6.2-3.6,14.8,1.4,18.5c1.1,0.8,2.9-1.8,4-0.9c3,2.5,1.2,7.7,2.6,11.3c1.7,4.3,3.4,8.5,5,12.8"/>
<path fill="none" stroke="#E1E1E1" stroke-miterlimit="10" d="M229.7,384.7c0.7-1.7,1.3-3.6,0.6-5.3c-0.4-1-1.3-1.7-1.7-2.7
	c-1.7-3.8,3.5-7.6,3-11.7c-0.4-4-5.5-5.8-7-9.5c-0.4-1-0.5-2.2-0.6-3.3c-0.7-8.5-7.7-18.9-2.2-25.4c1.1-1.3,3.6,0.4,5.2-0.4
	c9.5-4.9,15-15.3,24-21.1c1-0.7,2.1-1.3,2.7-2.4c0.7-1.2,0.7-2.7,0.8-4.1c0.8-11.1,13.3-19.7,23.9-16.4c0.9,0.3,1.8,0.6,2.7,0.3
	c1.2-0.4,1.8-1.8,2.6-2.8c1.2-1.4,3.3-0.9,5-1.7c4.7-2.3,4.4-9.4,6.6-14.1c0.6-1.4,1.3-2.8,2.3-3.9c1-1.1,2.3-2,3.4-3
	c3-2.9,6.3-8.4,3.5-11.4c-0.7-0.8-2.7,0.1-3.1-0.9c-1.7-4.3,4.8-7.9,7.2-11.8c0.6-0.9,1.1-1.9,1.2-3c0-0.9-0.4-1.8-0.6-2.7
	c-0.6-2.8,0.9-5.9,3.6-7.1c2.6-1.2,6-0.3,7.7,2c0.9,1.3,1.4,2.9,2.5,4.1c2.4,2.5,6.6,1.5,9.7-0.1c3.1-1.6,7.4-0.2,9.7-2.8
	c0.9-0.9-1.9-2.5-1.2-3.6c0.5-0.8,2.3,0.5,2.8-0.3c0.9-1.3-2.4-1.5-3.6-2.5c-5.7-4.5,6.6-12.4,13.3-15.3c7.1-3.1,15.7-12.7,21.8-7.9
	c2.1,1.6-0.7,6.2,1.5,7.6c3.5,2.3,8.4-1.2,12.1-3.2"/>
<path fill="none" stroke="#E1E1E1" stroke-miterlimit="10" d="M387.1,183.5c-1.2,0.6-2.3,1.2-3.4,1.9c-5.2,2.9-10.7,5.1-16.2,7.3
	c-2.2,0.9-4.5,1.7-6.9,1.9c-2.4,0.1-4.1-3.1-6.4-2.4c-2.1,0.6-1.8,4-3.7,5.2c-1.8,1.2-4,1.8-6.1,2.5c-3.9,1.2-7.8,2.3-11.8,2
	c-1.5-0.1-3-0.5-4.5-0.8c-2.5-0.6-5.1-1.2-7.6-1.7c-0.5-0.1-0.9-0.2-1.3-0.5c-1.3-1.1-0.1-3.1,1-4.2c4.7-4.7,9.8-8.9,15.2-12.7
	c1.7-1.2,3.5-2.4,5.5-2.7c2.2-0.3,4.6,0.4,6.7-0.4c1-0.4,2-1,3.1-0.9c1.1,0.1,1.9,1,2.8,1.5c3.3,2,7.6,0,10.9-2.1s7.1-4.6,10.8-3.3
	c0.8,0.3,1.6,0.7,2.4,0.8c1.1,0.1,2.1-0.4,3.1-0.7c3-1,6.4-0.5,9.1,1.2"/>
<path fill="none" stroke="#E1E1E1" stroke-miterlimit="10" d="M238.6,373.3c1.3,1.4,3.2,2.4,3.7,4.2c0.2,0.9,0.1,1.9,0.7,2.7
	c0.9,1.1,2.8,0.6,3.7-0.5s1.4-2.5,2.4-3.5c1.9-2,5.2-2.1,6.8-4.3c0.9-1.2,1-2.7,1.5-4.1c1.2-3.3,4.4-5.7,7.9-5.8
	c1.6-0.1,3.2,0.3,4.7,0c1.8-0.3,3.3-1.5,4.7-2.7c2-1.6,4-3.2,6-4.9c1.3-1,2.6-2.1,3.4-3.6c0.8-1.4,1.1-3,1.5-4.6
	c1.6-5.7,4.9-10.8,8-15.9c2.7-4.6,5.2-9.4,6.7-14.5c0.7-2.5,1.3-5,2.7-7.2c3-4.6,9-6.1,14.3-7.2c1.5-0.3,3.1-0.6,4.3,0.3
	c0.9,0.6,1.3,1.6,1.9,2.5c2.2,3.3,7.5,6,10.5,3.4c2.3-1.9-0.6-5.7-0.1-8.6c0.2-1,0.7-1.9,1-2.9c1-2.9,0.2-5.9,0.1-9
	c-0.1-3,0.8-6.5,3.6-7.7c3-1.2,7.2,0.6,9.1-2c0.9-1.2,0.7-2.9,0.5-4.3c-0.6-4.1-1.3-8.5-4-11.6c-0.8-0.9-1.7-1.7-2.1-2.7
	c-0.7-1.5-0.3-3.3-0.8-4.9c-0.8-2.6-4.2-4.1-6.7-2.9c-0.9,0.4-1.7,1.2-2.6,1.2c-1,0.1-2-0.6-3-0.8c-3.7-0.8-6.1,3.7-9.2,5.8
	c-3.2,2.2-8.4,2.6-9.5,6.3c-0.8,2.9,1.5,6.2,0.1,8.8c-0.6,1-1.6,1.7-2.4,2.6c-1.4,1.6-2,3.8-3.3,5.5c-2.5,3.1-7,3.7-10.2,6
	c-2.4,1.7-4,4.4-6.4,6c-2.6,1.8-5.8,2.2-8.8,3.2c-4.2,1.4-7.9,3.9-10.8,7.2c-1,1.1-1.8,2.3-2.9,3.3c-1.2,1.1-2.7,1.8-4.1,2.6
	c-7.5,4-15,8.5-20.6,15c-5.6,6.5-8.9,15.4-6.8,23.7c0.8,3.1,2.3,5.9,2.7,9.1C237.5,362.4,234.8,369.1,238.6,373.3z"/>
<path fill="none" stroke="#E1E1E1" stroke-miterlimit="10" d="M267.1,385c0.4-1.9,0.9-4.7,2.8-5.1c4.9-1,9.8-0.1,14.3-2
	c1.2-0.5,2.5-1.1,3.5-1.9c2.4-2,3.2-5.3,5.2-7.8c1.5-1.9,3.7-3.2,5.2-5.2c2.9-3.9,2.2-9.5,4.5-13.8c0.7-1.4,1.7-2.6,2.1-4.1
	c0.6-2.4-0.6-5,0.1-7.4c0.7-2.5,3.2-4.1,4.6-6.3c2.3-3.6,2-9.2,5.9-10.9c3.1-1.3,6.4,1,8.8,3.3s5.3,4.9,8.5,4.3
	c2.8-0.5,4.9-3.2,7.7-3.1c1.1,0,2.1,0.5,3.2,0.6c2.7,0.1,4.6-2.4,6-4.7c3.6-6.4,6-13.5,6.8-20.8c0.2-2,0.4-4.1,0.9-6
	c0.6-2.3,1.9-4.5,2.9-6.6c4.4-8.9,6.7-18.6,9-28.2c1.2-5.3,2.5-10.6,2.5-16c0-0.9,0-1.8,0.3-2.6c1.2-3.1,6.3-3.8,6.5-7.1
	c0.1-0.8-0.2-1.7,0.1-2.4c0.3-0.8,1.2-1.3,2-1.6c2.7-1.2,5.3-2.4,8-3.6"/>
<path fill="none" stroke="#E1E1E1" stroke-miterlimit="10" d="M249,228.1c0.8,0.5,1.8,0.1,2.5-0.5c1.2-1,2.2-3.1,1.2-4.3
	c-0.8-0.9-2.5-0.4-3.4,0.3c-0.9,0.8-1.4,2.1-1,3.3C248.4,227.4,248.6,227.8,249,228.1z"/>
<path fill="none" stroke="#E1E1E1" stroke-miterlimit="10" d="M303.1,272.6c1.5,0.8,3.6,0.1,4.3-1.5c0.3-0.7,0.9-1.6,0.3-2.1
	c-0.9-0.8-2.5-0.2-3.7,0c-1.2,0.2-2.4,1.3-2,2.5C302.2,272,302.6,272.4,303.1,272.6z"/>
<path fill="none" stroke="#E1E1E1" stroke-miterlimit="10" d="M353.8,66c-1.2,2.5-3.5,4.2-5.4,6.2c-1.8,2-3.3,4.9-2.3,7.5
	c0.8,2.1,3,3.2,4.9,4.5c1.9,1.3,3.7,3.3,3.1,5.5c-0.4,1.4-1.7,2.9-1,4.2c0.4,0.7,1.3,1,2.1,1.2c1.2,0.3,2.4,0.6,3.6,1
	c1.1,0.3,2.4,0.5,3.2-0.1c1.1-0.9,0.9-2.7,0.1-3.9c-0.8-1.2-2-2-2.7-3.3c-0.2-0.4-0.4-0.8-0.3-1.2c0.1-0.7,0.7-1.1,1.1-1.6
	c1.6-2.1,0.5-5.3,1.8-7.6c0.9-1.7,2.9-2.8,3.1-4.7c0.1-0.8-0.2-1.5-0.4-2.3c-0.9-4.3,2.5-8.2,3.3-12.5c0.1-0.6,0.1-1.3-0.4-1.6
	c-0.4-0.2-0.9-0.1-1.3,0c-2.9,0.9-5.7,2.1-8.4,3.6c-1.1,0.6-2.2,1.3-2.9,2.3C354.6,63.9,354.3,65,353.8,66z"/>
<path fill="none" stroke="#E1E1E1" stroke-miterlimit="10" d="M251.5,76.6c0.1-0.3,0.2-0.5,0.4-0.7c1.7-1.9,4.9-2.2,7-0.8
	c0.4,0.2,0.7,0.6,0.9,1c0.2,0.5,0,1-0.2,1.5c-0.5,1.3-1.1,2.8-2.5,3.2c-1.4,0.4-3.3,0.6-4.1-0.5C252.1,79.1,251.1,77.9,251.5,76.6z"
	/>
<path fill="none" stroke="#E1E1E1" stroke-miterlimit="10" d="M292.1,53.7c0.5-0.2,1-0.4,1.3-0.7c0.6-0.7,0.2-1.9-0.5-2.5
	c-1.1-1.1-2.9-0.3-4.3-1c-0.9-0.5-1.3-2.4-2.2-1.9c-1.8,1-1.7,4.2-0.4,5.8c0.7,0.9,1.9,1.2,3,1.2C290,54.4,291,54.1,292.1,53.7z"/>
<path fill="none" stroke="#E1E1E1" stroke-miterlimit="10" d="M284.3,61.8c0.2,0.3,0.5,0.5,0.7,0.8c1.3,0.9,3.5,1.6,4.5,0.3
	c0.4-0.6,0.3-1.7-0.2-2.2c-0.7-0.6-2.3,0.2-2.8-0.6c-0.8-1-1.7-3.3-2.4-2.2C283.2,58.9,283.6,60.6,284.3,61.8z"/>
<path fill="none" stroke="#E1E1E1" stroke-miterlimit="10" d="M-12.1,96.4c4.5-4.3,10.6-6.6,16.5-8.7c9.7-3.6,19.7-7.1,30-7.4
	c3.8-0.1,8,0.5,10.7,3.2c1.2,1.2,2,2.7,3.3,3.7c1.6,1.2,3.7,1.5,5.6,2.1c6.7,2,12.2,7.6,14,14.4c0.2,0.9,0.4,1.9,1,2.7
	c1,1.2,2.7,1.5,4.3,1.6c2.9,0.3,5.7,0.6,8.6,0.9c2.3,0.2,4.7,0.4,6.7-0.5c2.6-1.2,4.1-4.1,5.5-6.6c3.3-5.9,7.4-11.3,12.3-16
	c4.5-4.4,10.5-8.3,16.6-6.9c3.4,0.8,6.2,3.1,9.3,4.6c5.8,2.8,13,2.5,18.6-0.7c3.7-2.2,6.6-5.5,10.4-7.6c3-1.6,6.4-2.4,9-4.5
	c2.7-2.1,0.8-5.7,2.1-8.8c1.6-3.7,9.2-1.5,9.6-5.5c0.2-1.4-0.4-2.9-1-4.2c-1.5-3.5-2.9-7-4.4-10.5c-1.6-3.8-3.3-7.8-6.6-10.2
	c-5.3-3.9-12.5,2.2-18.7,0.2c-1.3-0.4-2.6-2.4-2.1-3.6c1.2-2.8,2.1-5.3,3.6-8c0.6-1,1.5-1.8,2.5-2.5c2.1-1.6,5-2.6,6.4-4.9
	c2.1-3.3,0.6-8.1,2.6-11.5c0.6-1,2.3-0.3,3.1,0.6s1.1,2.1,1.6,3.1c2.4,5.4,8.9,7.4,14.7,8.8c4.6,1.1,10.1-0.5,14,2.2
	c2.8,1.9,1.3,7.1,3.7,9.4c2.9,2.7,4.8,4.8,5.1,8.8s-0.8,7.8-1.7,11.7c-0.3,1.2-0.5,2.5-0.2,3.8c0.5,2.1,2.6,3.9,2.2,6
	c-0.5,2.6-5.1,3.8-4.5,6.4c0.7,2.9,3.8,5.6,6.7,5c1.5-0.3,2.6-1.5,4-2s3.5,0.2,3.3,1.7c-0.1,0.7-0.6,1.2-1.1,1.6
	c-1.4,1.1-3.1,1.9-4.6,3c-1.4,1.1-3.8,3.6-2.4,4.7c3.8,2.9,9.3-2,13.6-4c0.6-0.3,1.2-0.6,1.7-1c0.6-0.6,0.9-1.3,1.2-2.1
	c2.4-5.8,4.8-11.7,4.7-18c0-1.9-0.1-4.2,1.4-5.4c0.6-0.5,1.3-0.7,1.9-0.9c3.3-1.2,6.3-3.1,8.8-5.6c1.2-1.2,3.4-3.3,4.3-1.9
	c1.8,2.9-2.6,7.7-0.3,10.2c3,3.3,8.4,3.7,12.8,3c3.6-0.6,6.1-3.7,8.3-6.6c1.4-1.9,2.8-3.7,4.3-5.6c0.8-1,1.6-2.1,2.6-2.8
	c2-1.4,4.5-1.5,6.8-2c3.7-0.9,7-2.9,10.2-5c3.1-2,6.2-4,8.8-6.7s4.4-6.2,4.4-9.8c0-1.7-0.4-3.3,0.1-4.9c0.9-3.2,4.7-5,5.4-8.3
	c0.4-1.8,0.5-4.5,2.3-4.4c0.7,0,1.2,0.6,1.8,0.9c3.1,1.9,6.9-0.8,9.5-3.3c1.7-1.6,3.4-3.3,5.1-4.9c1.5-1.5,3.1-4.2,1.3-5.5"/>
<path fill="none" stroke="#E1E1E1" stroke-miterlimit="10" d="M313.5-16.6c-4.4,2.7-9,5.4-11.9,9.7c-2.9,4.2-4,9.4-7,13.5
	c-2.6,3.7-6.6,6.3-9.5,9.8c-0.8,1-1.6,2.2-2.6,3c-2.4,1.9-5.8,2-8.3,3.9c-2.2,1.6-3.2,4.3-4.5,6.7s-3.5,4.7-6.2,4.6
	c-3.1-0.1-5.1-3.2-6.4-6.1c-1.2-2.9-2.6-6.1-5.5-7.1c-4.8-1.6-9.8,4.2-14.7,2.8c-2.4-0.7-4-2.9-6-4.4c-1.3-0.9-2.8-1.5-4-2.5
	c-2.5-2-3.6-5.4-4.5-8.5c-0.3-0.9-0.5-1.8-0.4-2.7c0.3-2.1,2.7-3.3,4.7-4c5.1-1.8,10.4-3.2,15-6c2.1-1.2,4-2.7,6.2-3.6
	c1.7-0.6,3.5-0.9,5.2-1.6c1.6-0.6,2.9-1.7,4.3-2.6c3.6-2.3,7.6-4,11.8-4.8"/>
<path fill="none" stroke="#E1E1E1" stroke-miterlimit="10" d="M276.2,12.5c0.6-0.1,1.3-0.3,1.9-0.2c0.5,0.1,1,0.3,1.5,0.5
	c2.7,0.7,5.2-2,5.8-4.7c0.2-0.7,0.3-1.5,0.7-2.2c0.4-0.6,0.9-0.9,1.5-1.3c1.3-1,2.4-2.2,3.1-3.6c0.3-0.5,0.5-1.1,0.5-1.7
	c-0.1-1.1-1.4-1.8-2.5-1.7c-1.1,0.1-2.2,0.6-3.2,1.1c-2.7,1.2-5.7,1.7-8.6,2.1c-2.1,0.3-4.3,0.6-6.4,0.1c-0.9-0.2-1.8-0.6-2.7-0.6
	c-2.8,0-4.5,3-6.9,4.4c-2.1,1.3-5.1,1.6-6.4,3.7c-1.1,1.9-0.2,4.4,0.8,6.4c1.1,2.4,2.3,4.8,4.4,6.5c0.7,0.6,1.7,1.1,2.6,0.9
	c1.4-0.3,2.2-1.9,2.5-3.3s0.6-3,1.7-3.9c0.6-0.5,1.5-0.7,2.3-0.9C271.3,13.6,273.7,13,276.2,12.5z"/>
<path fill="none" stroke="#E1E1E1" stroke-miterlimit="10" d="M153.8,54.1c-2.7,0-5.4,0.1-8.1,0.1c-2,0-4.1,0.1-6,0.8
	c-2,0.8-3.7,2.3-5.9,2.3c-0.5,0-1-0.1-1.5,0.1c-0.4,0.2-0.8,0.5-1.1,0.9c-0.8,0.9-1.5,2.2-1,3.3c0.4,0.9,1.6,1.3,2.6,1.2
	c1-0.1,2-1.9,2.8-1.2c1.7,1.6,1.1,4.7,3.4,5.1c2.4,0.4,4.7-0.7,7-1.4c3.4-1.2,8,0.6,10.7-1.8c2.1-1.8,4.5-3.9,4.6-6.7
	c0-0.5-0.1-1.1,0.1-1.6c0.2-0.5,0.7-0.7,1-1.1c0.9-1.2-0.4-3.1-1.9-3.2c-1.5-0.1-2.9,0.9-3.9,2c-0.3,0.4-0.7,0.8-1.1,1
	C155,54.1,154.4,54.1,153.8,54.1z"/>
<path fill="none" stroke="#E1E1E1" stroke-miterlimit="10" d="M-12.3,84c6.1-4.3,12.9-7.6,19.9-9.9c8-2.7,16.4-4.3,24.9-4.4
	c3.1-0.1,6.3,0.1,8.9,1.8c2.4,1.6,3.9,4.3,6.1,6.1c2.3,1.8,4.7-0.4,7.6-0.2c3,0.1,3.7,4.9,6.6,5.5c1,0.2,2.1,0.3,3,0.9
	c0.9,0.6,1.4,1.6,1.9,2.5c1.1,2.1,2.2,4.2,3.3,6.2c1.3,2.4,2.7,5,5.3,5.9c4,1.4,8.1-2.1,9.9-5.8c1.8-3.8,2.5-8.2,5.1-11.5
	c1.5-1.9,3.5-3.3,5.2-4.9c6.6-6.1,9.4-15.4,15.5-22.1c1.5-1.6,3.1-3.1,4.3-4.9c1-1.5,1.6-3.3,2.2-5c1.7-4.8,3.4-9.7,5.1-14.5
	c0.5-1.5,1-3,2-4.3c0.8-1.2,2-2.1,2.8-3.3c0.7-1.1,1.1-2.4,1.7-3.6c0.6-1.2,1.4-2.4,2.2-3.5c4.1-5.9,8.4-11.6,12.6-17.4
	c3.9-5.3,7.7-10.5,11.6-15.8"/>
<path fill="none" stroke="#E1E1E1" stroke-miterlimit="10" d="M-13.2,72.6c6.3-5,14.5-7.1,22.5-7.5c8-0.4,16,1,24,2.3
	c3.2,0.5,6.3,1.1,9.3,2.3c3.4,1.5,7.4,0.8,10.4,2.8c0.7,0.5-0.5,2.1,0.2,2.6c1.9,1.5,1.7-4.8,4.1-5.6c5.3-1.8,11.3,5.4,13.1,10.7
	c0.6,2,1.3,4.2,3.4,4.5s4.2-0.6,5.8-1.9c2.6-2.1,4.3-5,5.9-7.9c1-1.8,2.1-3.5,3.1-5.3c2-3.5,4.1-7,6.1-10.5c1.5-2.6,3.1-5.3,4.1-8.1
	c2.5-6.5,2.5-14,6.4-19.8c2.2-3.4,5.6-5.9,7.9-9.3c1-1.5,1.8-3.2,2.7-4.8c1.8-3.2,4.1-6.1,6.3-9c6.9-8.8,13.9-17.6,20.8-26.4"/>
<path fill="none" stroke="#E1E1E1" stroke-miterlimit="10" d="M-12.7,59.6c3.5,2.6,8.4,3.2,12.5,1.6c1.1-0.4,2.2-1,3.3-1.3
	c1.5-0.4,3-0.3,4.5-0.2c7.6,0.4,15.3,0.9,22.6,3.1c4.5,1.3,9.2,3.3,13.6,1.9c4.7-1.5,7.9-9.2,12.6-7.6c2.6,0.9,3.2,5.2,5.9,6
	c0.8,0.2,1.8-0.8,2.4-0.3c1.7,1.4,3.5,2.6,5,1.1c1.6-1.5,1.9-3.8,2.4-5.9c0.6-2.4,1.7-4.7,3.1-6.8c0.6-0.9,1.5-1.8,2.5-1.6
	c0.7,0.1,1.3,0.8,2,0.8c0.7,0,1.2-0.5,1.6-1c3-3.3,5.9-6.9,7-11.2c0.7-2.6,0.7-5.5,2.1-7.9c0.4-0.7,0.8-1.3,1.3-1.9
	c5.6-7.3,11.3-14.6,16.9-22c2.1-2.8,4.3-5.5,6.4-8.3c2.6-3.4,5.3-6.9,7.9-10.3c1.7-2.3,3.5-4.5,5.2-6.8"/>
<path fill="none" stroke="#E1E1E1" stroke-miterlimit="10" d="M3.5-16.9c2.2,0.4,2.9,3.2,3.2,5.4C7.1-7.2,7.5-2.9,7.1,1.4
	C6.9,3.3,6.6,5.2,6.7,7.1c0.2,2.7,1.3,5.3,2.4,7.8c1.4,3,2.7,6,4.1,9.1c1.1,2.4,2.2,4.8,2.4,7.4c0.4,4.3-1.6,8.4-3.6,12.2
	c-0.4,0.8-0.8,1.6-1.6,2.1c-0.6,0.4-1.3,0.4-2,0.6c-1.8,0.5-3.3,1.8-4,3.5c-0.2,0.4-0.3,1-0.1,1.4c0.2,0.6,0.9,0.8,1.5,1
	c4.2,1.4,8.4,2.8,12.8,2.9c2.1,0,4.1-0.2,6.2,0c1.5,0.1,3.1,0.5,4.6,0.5c2.7,0,5.3-1.1,7.8-2.2c3.2-1.4,6.4-2.8,9.1-4.9
	c3.5-2.7,6.2-6.4,10.1-8.6c3.7-2,8.5-2.8,10.5-6.4c0.7-1.2,1.1-2.7,2.2-3.5c0.6-0.4,1.4-0.6,2-1c1.2-0.9,1.2-2.8,1.9-4.1
	c1.3-2.4,4.4-2.8,7.1-3.6c5.7-1.6,10.3-5.8,14.5-10c3.9-4,7.7-8.1,10.4-13c0.9-1.6,1.7-3.3,2.9-4.7c1.2-1.5,2.9-2.7,4.3-4.1
	c2.9-2.7,5.2-6,6.8-9.6"/>
<path fill="none" stroke="#E1E1E1" stroke-miterlimit="10" d="M23.2-17.3c-2.3,1-3.2,3.8-2.9,6.3s1.5,4.7,2.6,6.9
	c0.8,1.6,1.4,3.5,0.7,5.1c-0.4,1-1.3,1.7-2,2.6c-2.2,2.8-2.2,6.8-1.3,10.3c0.9,3.5,2.5,6.8,3,10.3c0.7,5.2-0.9,10.4-3.2,15.1
	c-0.6,1.1-1.2,2.3-1.3,3.6s0.4,2.7,1.6,3.2c0.7,0.3,1.4,0.2,2.1,0.1c7.5-0.9,14.7-4.3,20.1-9.7c2.1-2.1,4-4.6,6.7-5.9
	c1.8-0.9,3.8-1.3,5.5-2.2c3.4-1.8,5.5-5.6,9-7.3c2.6-1.2,5.8-1.3,7.6-3.5c1-1.2,1.3-2.8,2.3-3.8c2.1-2.2,6.5-1.6,8-4.3
	c0.4-0.8,0.5-1.7,1-2.4c0.8-1.3,2.4-1.7,3.8-2.2c4.3-1.5,7.8-4.7,10.4-8.3s4.6-7.8,6.5-11.9c0.7-1.4,1.3-2.8,2-4.2"/>
<path fill="none" stroke="#E1E1E1" stroke-miterlimit="10" d="M94.6-17.5c1.2,2.9-0.1,6.2-1.9,8.7c-2.3,3.1-5.4,5.5-8.9,6.9
	c-2.7,1.1-5.6,1.6-7.9,3.3c-2,1.4-3.4,3.5-5.1,5.2C64.7,12.7,54.9,14,48.6,20c-1.4,1.3-2.5,2.8-3.9,4.2c-3.3,3.3-7.8,9.7-11.9,7.4
	c-2.9-1.7-1.4-6.7-3-9.6c-0.3-0.6-0.7-1.2-0.7-1.9c0-0.6,0.3-1.2,0.5-1.7c3.1-6.1,6.7-12.5,12.9-15.6C46.1,1,50.1,0.5,54-0.1
	C62.6-1.6,71.1-4.2,79.1-8c2.5-1.2,4.9-2.5,6.8-4.4c1.9-1.9,3.3-4.6,3.1-7.3"/>
<path fill="#7BBCEB" stroke="#4E9BD7" stroke-miterlimit="10" d="M179.9,199.8c0.5,0.3,1.1,0,1.6-0.3c0.4-0.4,0.8-0.8,1.3-1.1
	c1-0.5,2.4-0.2,3.1-1c0.4-0.4,0.5-0.9,0.6-1.5c0.6-3,1.8-6,4.2-7.9c0.5-0.4,1.1-0.7,1.5-1.2c0.4-0.5,0.7-1.1,1-1.7
	c1-1.5,2.9-2.2,4-3.5c1.1-1.2,1.5-3,1.3-4.6s-0.8-3.2-1.7-4.6c-0.1-0.2-0.2-0.3-0.4-0.4c-0.5-0.3-1.1,0-1.6,0.4c-1,0.8-2,1.5-3,2.3
	c-1.7,1.3-3.6,2.6-5.7,2.8c-1.1,0.1-2.4-0.1-3.3,0.6c-0.7,0.5-1,1.5-1.2,2.3c-0.6,2.6-1.3,5.3-1.9,7.9c-0.2,0.6-0.3,1.2-0.2,1.9
	c0,0.5,0.2,1,0.3,1.4c0.4,2.4-1,4.8-0.5,7.1C179.3,199.2,179.5,199.6,179.9,199.8z"/>
<path fill="none" stroke="#4E9BD7" stroke-miterlimit="10" d="M156.9,228.6c0.7-0.8,1-2,1.8-2.7c0.8-0.7,1.7-1.2,2.5-1.8
	c3.1-2.6,3.5-7.3,6.2-10.4c0.6-0.7,1.4-1.4,2-2.2c0.5-0.6,0.8-1.3,1.2-2c2.1-3.7,7-7.3,8.9-9.6"/>
<path fill="none" stroke="#4E9BD7" stroke-miterlimit="10" d="M55.2,334.4c1.1,1.2,1.1,3,0.6,4.5c-0.5,1.5-1.4,2.8-2.1,4.2
	c-3.8,7.3-2.5,16-1.4,24.2c0.1,0.8,0.2,1.6,0,2.3c-0.2,0.8-0.8,1.4-1.3,2c-4.3,5.4-9.1,14.8-4,19.6c1.3,1.2,3.5-0.3,4.9-1.4
	c1.3-1.1,2.3-2.7,3-4.2c0.6-1.5,1.2-3.1,2.5-4.1c0.7-0.5,1.5-0.8,2.4-1.1c2.8-0.8,5.8-1.7,7.5-4.1c2.1-2.9,1.4-7.2,3.7-9.9
	c0.8-0.9,1.9-1.6,2.7-2.5c1.2-1.4,1.6-3.3,2.4-4.9c0.9-1.9,2.3-3.5,3.5-5.1c7.8-9.8,14.2-23.9,19.3-32.1"/>
<path fill="none" stroke="#D6D6D6" stroke-miterlimit="10" d="M-12.5,156.2c7.9,0.6,15.9-1.5,22.5-5.9c3.6-2.4,6.9-5.7,8.6-9.7
	c1.7-4.1,1.6-9-0.9-12.6c-1.1-1.6-2.7-3.5-1.7-5.1c0.5-0.8,1.5-1.2,2.4-1.5c4.4-1.5,10.3-2.5,12.6,1.5c1,1.6,0.9,3.7,1,5.6
	c0.2,3,0.8,6,1.8,8.9c0.9,2.5,2.4,5.2,5,5.6c2.1,0.4,4.2-0.8,6.2-1.6c7.5-2.8,15.8,0.8,23.8,1.1c2.3,0.1,4.8-0.2,6.5-1.6
	c2.6-2.2,2.9-6.3,5.7-8.3c2.8-2,6.7-0.8,10.2-0.8c5.7,0.1,10.8-3.1,16-5.4c10.1-4.5,25.5,2,32.4-6.7c4.4-5.6,6.2-12.8,13.2-13.7
	c7-0.9,14.1,1.1,21.2,0.8c5.9-0.2,15,0.3,16.6-5.3c0.3-1,0.7-1.7,1.6-2.1c4.7-1.9,15.3-0.9,14-5.8c-0.4-1.4-2.5-1.7-2-3.1
	c0.5-1.4,1.8-2.2,3.2-2.8c3.6-1.5,7.5,0.7,11.3,0c2.6-0.5,5.1,0.2,7.6-0.7c4.6-1.7,7.3-6.7,12.2-6.5c4.9,0.2,9.4,2.5,13.6,5.1
	c0.4,0.2,0.8,0.5,1.1,0.9c0.4,0.8,0,1.8-0.4,2.6c-1.4,2.8-2.3,6.5-0.2,8.9c1.2,1.4,3.1,1.9,4.8,2.8c3.5,1.9,5.9,5.6,9.7,7
	c5.9,2.2,12.1-2,17-5.9C292.5,95,301,88,308.6,80c2.5-2.7,5.1-5.8,5-9.5c-0.1-3.4,1.3-6.6,0.2-9.8c-0.8-2.3-4.7-2-5.4-4.3
	c-0.7-2.3,0.2-5.1,2.1-6.6c0.9-0.7,2-1.1,2.8-1.9c2.5-2.5,1.1-6.7-0.5-9.8c-2.3-4.6-9.8-9.6-7-13.9c0.9-1.3,3.5,1.4,4.6,0.3
	c4.2-4,4.2-11.3,9.8-12.8c0.8-0.2,1.7-0.4,2.4-0.9c2.3-1.6,1.1-5.4,2.4-7.9c2.1-4,10.7-0.1,12.3-4.3c0.7-1.8-3.5-3.2-2.8-5
	c0.9-2.2,3.9-2.6,4.4-4.9s0-4.6-0.4-6.9"/>
<path fill="#EAEAEA" stroke="#D6D6D6" stroke-miterlimit="10" d="M104.7,130.6c0.8-1.3,2.5-1.8,4-1.8c1.5,0,3.1,0.4,4.6,0.2
	c0.7-0.1,1.3-0.3,2-0.5c1.7-0.5,3.5-1,5.2-1.6c1.2-0.4,2.6-0.7,3.7,0c1,0.6,1.4,1.9,1.1,3c-0.3,1.1-1.1,2-2.1,2.6
	c-2.9,1.7-6.5,0.8-9.8,0.6c-2.5-0.2-4.9,0-7.4,0.4c-0.4,0.1-0.9,0.1-1.2-0.1c-0.1-0.1-0.2-0.2-0.2-0.3
	C104.2,132.3,104.2,131.3,104.7,130.6z"/>
<path fill="#EAEAEA" stroke="#D6D6D6" stroke-miterlimit="10" d="M62.1,137.8c2.5,0.4,5.2,0.8,7.6,0c3.4-1.2,5.8-5,5.2-8.6
	c0-0.3-0.1-0.6-0.3-0.8c-0.2-0.2-0.5-0.3-0.8-0.3c-0.8-0.1-1.6-0.3-2.4-0.2c-0.7,0.1-1.4,0.3-2.1,0.4s-1.5-0.2-1.8-0.9
	c-0.1-0.3-0.2-0.6-0.3-0.9c-0.3-0.6-1.1-0.7-1.8-0.8c-2.1-0.2-4.3-0.4-6.2,0.4c-2.8,1.1-4.6,4.4-4,7.4c0.1,0.5,0.3,1,0.7,1.4
	c0.5,0.5,1.2,0.5,1.8,0.9c0.5,0.3,0.9,0.7,1.3,1C59.8,137.5,61,137.7,62.1,137.8z"/>
<path fill="#EAEAEA" stroke="#D6D6D6" stroke-miterlimit="10" d="M28.6,103c1.9-1.9,3.2-4.5,3.5-7.3c0-0.3,0-0.6-0.1-0.8
	c-0.2-0.3-0.5-0.3-0.9-0.4c-2.5-0.4-5-0.7-7.4-0.3c-4.8,0.8-8.6,4.1-12.2,7.4c-1.5,1.4-3.1,2.8-4.1,4.5c-0.9,1.5-1.4,3.2-1.9,4.9
	c-0.7,2.4-1.3,5.4,0.5,7.1c1.7,1.6,4.9,0.9,5.7-1.3c0.2-0.5,0.3-1.1,0.6-1.6c0.5-0.7,1.6-0.8,2.4-0.5s1.5,0.9,2.3,1.3
	c1.8,1.1,3.9,1.5,5.9,1.2c0.7-0.1,1.4-0.3,1.7-0.9c0.6-0.8,0.2-1.9,0.2-2.9c0.1-2,2.1-3.4,2.4-5.4c0.1-1.2-0.4-2.4,0.1-3.5
	C27.6,103.9,28.1,103.4,28.6,103z"/>
<path fill="#EAEAEA" stroke="#D6D6D6" stroke-miterlimit="10" d="M46.8,98.9c-0.8,0.1-1.6,0.3-2.1,0.8c-0.8,0.9-0.5,2.4,0.1,3.5
	c0.3,0.6,0.8,1.3,0.7,2c0,0.7-0.8,0.7-1.4,1c-0.6,0.3-0.8,1.2-0.9,1.8c-0.2,1.2,2.1,1.2,3.1,0.6c1-0.6,1.7-1.7,2.7-2.4
	c1.6-1.1,4.1,0.1,5.5-1.2c1.4-1.3-0.8-3.7-2.3-4.8S48.7,98.7,46.8,98.9z"/>
<path fill="#EAEAEA" stroke="#D6D6D6" stroke-miterlimit="10" d="M253.5,59.6c0-0.2,0-0.5-0.1-0.7c-0.2-0.8-1.1-1.3-2-1.3
	c-0.9,0-1.6,0.5-2.4,0.9c-2.4,1.3-4.8,2.4-7.3,3.4c-1.2,0.5-2.4,0.9-3.4,1.7c-2.1,1.7-2.8,4.4-3.3,7c-0.3,1.2-0.4,2.9,0.8,3.4
	c0.6,0.3,1.3,0.1,1.9-0.1c4.4-1.2,8.8-2.8,12.9-4.8c1.1-0.5,2.3-1.1,3.2-2c0.9-0.9,1.5-2.1,1.3-3.4
	C254.9,62.4,253.6,61.1,253.5,59.6z"/>
<path fill="#EAEAEA" stroke="#D6D6D6" stroke-miterlimit="10" d="M131,282.1c0.6-1.5,3.7-3.4,2.2-4.1c-1.3-0.6-2.2,1.9-3.6,2.1
	c-0.8,0.1-0.5-1.5-0.1-2.1c0.4-0.7,1.1-1.2,1.4-1.9c0.4-0.8,0.4-1.7,0.5-2.6c0.4-2.7,2.8-5,5.6-5.3c0.4,0,0.9-0.1,1.3-0.3
	c0.7-0.5,0.4-1.6,0.2-2.4c-0.4-1.8,0.7-3.5,0.6-5.4c-0.2-2.8-0.9-5.9,1.4-7.6c1.3-0.9,2.8-1.3,4.2-2c1.4-0.8,2.6-2.2,2.2-3.8
	c-0.1-0.6-0.5-1.1-0.6-1.6c-0.3-1.7,1.5-3.1,3.2-3.6c1.7-0.6,3.7-0.9,4.5-2.5c0.7-1.1,0.5-2.6,0.6-3.9c0.2-1.3,1.2-2,2.3-2.8
	c1.3-1,0.5-3.9-1.1-4.1c-0.9-0.1-1.7,0.6-2.3,1.3c-1.8,2.1-3.7,4.2-5.5,6.3c-1.9,2.2-3.9,4.4-5.5,6.8c-1.2,1.8-2.3,3.7-3.6,5.4
	c-1.9,2.3-4.4,4.1-6.1,6.5c-0.9,1.2-1.6,2.6-2.3,4c-2.4,4.4-5.3,8.6-9,12c-1.7,1.6-3.6,3-4.7,5c-0.8,1.5-1.2,3.2-2.1,4.6
	c-1.1,1.6-2.7,2.6-4.2,3.9s-2.7,3-2.5,4.9c0.1,0.9,0.5,1.8,0.3,2.6c-0.2,0.6-0.7,1.2-1.1,1.7c-2,2.3-2.9,5.6-3.9,8.5
	c-0.7,2.2-2.8,4.1-2.6,6.4c0.3,3.5-0.6,6.8-2.3,11.1c-0.3,0.8,0.1,2.6,1,2.6c0.3,0,0.5-0.2,0.8-0.4c5.5-4.3,8.7-10.8,13.5-15.9
	c3.6-3.9,8-6.8,12.4-9.8c2.1-1.5,4.3-3,5.6-5.2c0.4-0.8,0.8-1.6,0.7-2.5C132.3,286.1,130.2,284.1,131,282.1z"/>
<path fill="#EAEAEA" stroke="#D6D6D6" stroke-miterlimit="10" d="M54.6,334.4c1.4-0.7,0.5-3.2-0.6-4.3c-1-0.9-2.8-1.5-2.7-2.9
	c0-0.3,0.1-0.6,0.3-0.9c2.1-5.4,1.9-11.7-0.7-16.9c-0.2-0.5-0.5-1-1-1.2c-0.4-0.2-0.9-0.2-1.3-0.2c-2-0.3-2.9-3.3-1.4-4.7
	c0.7-0.6,1.7-0.9,2.4-1.5c1-0.9,1.3-2.6,0.5-3.7c-0.7-1.1-2.3-0.9-3.6-1c-0.8-0.1-0.2-1.5,0.5-1.9c0.7-0.4,1.5-0.5,2.1-1.1
	c0.3-0.3,0.5-0.7,0.7-1.1c1.1-2.9,0.8-6.3-0.7-8.9c-0.5-1-1.3-1.8-2.3-2.3c-0.7-0.3-1.4-0.4-2.1-0.7c-0.8-0.3-1.5-0.7-2.2-1.1
	c-5.5-3.1-12.4-5.8-18.9-7.2c-2.4-0.5-6.7,0.8-9.1,0.8c-0.8,0-1.8-0.3-2.6-0.1c-1,0.3-2.1,1.3-2.9,1.9c-3.6,2.7-4.9,8.3-3.8,14.6
	c0.2,1.1,1.2,2,1.4,3.1c0.3,1.1,0,2.4-1,3c-1.1,0.6-2.4,0-3.6,0.2c-1.5,0.2-2.5,1.6-2.9,3c-0.4,1.4-0.3,3-0.3,4.4
	c0,3.6,1.2,9.4-2.2,10.6c-1.8,0.6-3.9,0.4-4.6,2.2c-0.7,1.8-1.5,4.5,0,5.7c0.9,0.7,2.2-0.8,3.3-1.1c1.1-0.3,2.6-0.2,3,0.9
	c0.3,0.8,0,1.6,0.1,2.5c0.2,1.8,2.2,2.8,4,3s3.7-0.1,5.4,0.6c1.1,0.5,2,1.3,3.2,1.5c1.1,0.2,2.2-0.3,3.3-0.6
	c3.7-1.1,7.7-0.6,11.2,0.9c3.5,1.5,6.6,4,9.1,6.8c1.2,1.4,2.3,2.9,4,3.5c2.8,1.1,5.8-0.5,8.2-2.3C49.1,336.3,52,335.8,54.6,334.4z"
	/>
<text transform="matrix(1 0 0 1 202.315 177.987)"><tspan x="0" y="0" fill="#7BBCEB" font-family="'Verdana-Italic'" font-size="8">Upper</tspan><tspan x="0" y="9.6" fill="#7BBCEB" font-family="'Verdana-Italic'" font-size="8">Branigan Lake</tspan></text>
<text transform="matrix(1 0 0 1 144.8203 262.2394)"><tspan x="0" y="0" fill="#585858" font-family="'Verdana-Italic'" font-size="8">Middle</tspan><tspan x="0" y="9.6" fill="#585858" font-family="'Verdana-Italic'" font-size="8">Branigan Lake</tspan></text>
<text transform="matrix(1 0 0 1 70.3809 181.9853)"><tspan x="0" y="0" fill="#585858" font-family="'Verdana-Italic'" font-size="8">Andrews</tspan><tspan x="15.3" y="9.6" fill="#585858" font-family="'Verdana-Italic'" font-size="8">Peak</tspan></text>
<text transform="matrix(1 0 0 1 107.8049 187.0304)" fill="#585858" font-family="'Verdana-Italic'" font-size="8">× 8551</text>
<text transform="matrix(1 0 0 1 16.0549 17.2804)" fill="#585858" font-family="'Verdana-Italic'" font-size="8">9149 ×</text>
<text transform="matrix(1 0 0 1 50.27 12.0304)"><tspan x="0" y="0" fill="#585858" font-family="'Verdana-Italic'" font-size="8">Mahan</tspan><tspan x="0" y="9.6" fill="#585858" font-family="'Verdana-Italic'" font-size="8">Peak</tspan></text>
<text transform="matrix(1 0 0 1 29.662 257.7634)"><tspan x="0" y="0" fill="#585858" font-family="'Verdana-Italic'" font-size="8">Branigan</tspan><tspan x="0" y="9.6" fill="#585858" font-family="'Verdana-Italic'" font-size="8">Lake</tspan></text>
<path fill="none" d="M178.4,297.2c4.3-5.2,10.4-8.7,17-10.2c3.7-0.8,7.5-1.1,11.1-2.4c2.1-0.8,4.1-1.9,6.3-2.1"/>
<text transform="matrix(0.8537 -0.5208 0.5208 0.8537 185.0891 294.2325)"><tspan x="0" y="0" fill="#7D7D7D" font-family="'Verdana-Italic'" font-size="7">7</tspan><tspan x="4.1" y="0" fill="#7D7D7D" font-family="'Verdana-Italic'" font-size="7" rotate="8">8</tspan><tspan x="8.2" y="0.5" fill="#7D7D7D" font-family="'Verdana-Italic'" font-size="7" rotate="15.8">0</tspan><tspan x="12.2" y="1.7" fill="#7D7D7D" font-family="'Verdana-Italic'" font-size="7" rotate="21.5">0</tspan></text>
<path fill="none" d="M143.1,203.2c2.1-2.6,2.9-6,5-8.6c1.3-1.6,3.1-2.8,4.7-4.2c2.7-2.3,4.9-5,6.7-8c4.1-7.2,5.1-15.7,7.4-23.7
	c1.5-5.1,3.5-10,6.1-14.7"/>
<text transform="matrix(0.7227 -0.6912 0.6912 0.7227 154.3024 192.5665)"><tspan x="0" y="0" fill="#7D7D7D" font-family="'Verdana-Italic'" font-size="7">8</tspan><tspan x="4.8" y="0" fill="#7D7D7D" font-family="'Verdana-Italic'" font-size="7" rotate="-8.5">0</tspan><tspan x="9.6" y="-0.8" fill="#7D7D7D" font-family="'Verdana-Italic'" font-size="7" rotate="-17">0</tspan><tspan x="14.2" y="-2.2" fill="#7D7D7D" font-family="'Verdana-Italic'" font-size="7" rotate="-24.3">0</tspan></text>
<path fill="none" d="M88.3,69.9c2-3.5,4.1-7,6.1-10.5c1.5-2.6,3.1-5.3,4.1-8.1c2.5-6.5,2.5-14,6.4-19.8c2.2-3.4,5.6-5.9,7.9-9.3"/>
<text transform="matrix(0.4172 -0.9088 0.9088 0.4172 99.0778 56.3527)"><tspan x="0" y="0" fill="#7D7D7D" font-family="'Verdana-Italic'" font-size="7">8</tspan><tspan x="4.8" y="0" fill="#7D7D7D" font-family="'Verdana-Italic'" font-size="7" rotate="-7.9">2</tspan><tspan x="9.4" y="-0.7" fill="#7D7D7D" font-family="'Verdana-Italic'" font-size="7" rotate="-11.9">0</tspan><tspan x="13.7" y="-1.6" fill="#7D7D7D" font-family="'Verdana-Italic'" font-size="7" rotate="-10.9">0</tspan></text>
<g>
	<g>
		<path fill="none" stroke="#585858" stroke-miterlimit="10" d="M-11.6,129.8c0.5-0.4,1-0.9,1.4-1.4"/>
		<path fill="none" stroke="#585858" stroke-miterlimit="10" stroke-dasharray="3.9988,0.9997" d="M-9.6,127.5c2-3.6,2.2-9,6-10.5
			c1.7-0.7,5.3,2.1,5.1,0.3c-0.3-2-3.2-2.8-2.8-4.7c0.5-2.2,2.7-3.6,3.9-5.6c0.9-1.5,1.1-3.3,2.2-4.7c0.8-1,1.9-1.7,2.9-2.3
			c1.5-0.9,3.1-1.8,4.6-2.7c4-2.4,8.1-4.8,12.6-5.8c1.6-0.4,3.3-0.6,5-0.2c3.9,1,7.3,3.3,10.5,5.8c2.7,2.1-1,6.9,0.2,10
			c0.8,2.2,3.1,3.6,4,5.8c0.7,1.6,0.5,3.4,0.6,5.1c0.3,7.5,5.2,14,10.4,19.5c0.7,0.7,1.4,1.5,2.4,1.7c0.8,0.2,2.2,0.3,3.1,0.3
			c3.8,0,7.1,1.4,10.7,0.1c4.7-1.7,5.8-8.5,10.5-10.3c3.1-1.2,8.8,1.4,9.6-1.8c0.4-1.6-2.8-3-2.1-4.5c2.5-4.9,9.3-5.7,12.8-10
			c1-1.2,2-2.4,3.3-3.3c1.3-0.9,2.8-1.3,4.3-1.8c4.3-1.4,9.3-2.7,13.3-0.5c0.9,0.5,1.8,1.2,2.8,1.5c1.9,0.7,4,0,6.1-0.4
			c2-0.4,3.8,0.5,5.7,1.3c3.1,1.2,5.8-2.6,8.6-4.4c6.9-4.4,15.3-5.8,22.8-9.1c6.7-2.9,12.9-7.5,20.2-8.3c3.9-0.4,8.1,0.3,11.8-1.1
			c2.5-0.9,4.6-2.7,7.3-3.2c2.7-0.5,5.6,0.5,8.3-0.1c2.8-0.7,4.8-2.9,6.7-5.1c1.7-2,3.5-4,5.2-6c3.2-3.7,5.6-8,9.3-11.2
			c0.6-0.5,2.1-1.1,2.8-1.5c3-2.2,6.4-3.8,10-4.6c3.6-0.9,7.3-1.4,10.8-2.8c3.2-1.3,6.1-3.3,9-5.2c4.3-2.9,8.6-5.9,12.6-9.1
			c0.8-0.7,1.7-1.3,2.5-2c2-1.7,4.1-3.4,6.1-5c3.1-2.6,6.6-4.7,9.7-7.1c2.9-2.3,6-4.8,7-8.4c0.9-3.4-0.2-7.3,1.3-10.6
			c0.3-0.6,0.6-1.1,1.2-1.5c0.5-0.3,1.1-0.4,1.6-0.6c4.7-1.2,9-4.1,12-8c1-1.4,1.9-2.9,3.3-4c0.9-0.7,2-1.1,2.9-1.8
			c1.9-1.3,3.2-3.3,3.8-5.5"/>
		<path fill="none" stroke="#585858" stroke-miterlimit="10" d="M334.7-17c0.1-0.7,0.2-1.3,0.1-2"/>
	</g>
</g>
<g>
	<g>
		<path fill="none" stroke="#585858" stroke-miterlimit="10" d="M220.1,82.2c0.5,0.4,1,0.9,1.4,1.4"/>
		<path fill="none" stroke="#585858" stroke-miterlimit="10" stroke-dasharray="3.9677,0.9919" d="M222.1,84.4
			c0.5,0.8,0.9,1.8,1.1,2.8c0.6,3.5-2.7,9.5,0.8,10.4c1.5,0.4,3.1,0.1,4.1,1.2c0.3,0.4,0.6,0.8,1.1,0.9c0.4,0.1,0.8-0.1,1.1-0.2
			c2.1-0.9,4.4-3.8,6.4-2.6c2.2,1.3-1.6,6.8,0.8,7.7c1.5,0.5,3.3,0,3.5,1.6c0.2,1.6-3.1,2.3-2.5,3.7c0.8,2.1,1.6,2.3,2.3,4.4
			c1,3,6.1,1.6,9.2,2.3c0.8,0.2,1.7,0.5,1.9,1.3c0.1,0.4-0.1,0.9,0.1,1.3c0.3,1.4,2.9,1.2,3.4,2.6c0.3,0.7-0.1,1.5-0.6,2.2
			c-2.4,3.7-9.2,7.3-7.1,11.2c1.3,2.4,5.4-0.9,7.5-2.5c2.3-1.7,4.3-3.7,6-6c2-2.6,4.8-4.5,7.7-2.6c1.6,1.1,3.5,2.1,5.5,1.9
			c1.1-0.1,2.1-0.8,3-1.4c2.9-2,5.8-4.1,8.7-6.1c1-0.7,2-1.4,3.3-1.5c1.2-0.1,2.5,0.4,3.6,0.9c3.5,1.6,7.2,3.4,9,6.8
			c0.7,1.3,1.1,2.8,2.2,3.7c1.1,1,2.1-0.6,3.6-0.5c1,0,0.7,2.8,1.6,2.4c1.7-0.7,0-5.3,1.9-5.2c3.3,0.2,3.5,9,6.4,7.4
			c1.3-0.7-0.1-4.3,1.4-4.1c1.4,0.1,1.3,3.6,2.7,3.2c1.8-0.6,0.1-5.6,1.9-5.3c1.4,0.2,0.6,3.9,1.9,3.5c0.8-0.3,0-2.4,0.9-2.5
			c3.6-0.5,4.5,6.1,8,7.1s4.8-2.8,7.5-5.3c1.3-1.2,2.9-0.7,3.5-2.4c1.4-3.9,7.1-4.2,10.6-6.4c0.9-0.5,2-1.1,3-0.8
			c0.5,0.2,1,0.6,1.6,0.6c0.5,0,0.8-0.4,1.1-0.7c1.2-1.4,1.7-3.3,2.6-4.9c0.9-1.6,2.7-3,4.5-2.6c0.9,0.2,1.6,0.9,2.5,0.9
			c0.7,0,1.4-0.3,2-0.7c7.2-4.7,9.9-14.9,17-19.5"/>
		<path fill="none" stroke="#585858" stroke-miterlimit="10" d="M390.7,92.5c0.6-0.3,1.2-0.6,1.8-0.9"/>
	</g>
</g>
<path fill="none" d="M277.7,252.4c0.3-2.6,2.5-4.4,4.5-6.1c10.6-9.1,31.8-21.7,24.6-33.6c-1.6-2.6-6.3,0.2-9-1.3"/>
<text transform="matrix(0.7192 -0.6948 0.6948 0.7192 280.5129 251.4083)"><tspan x="0" y="0" fill="#7D7D7D" font-family="'Verdana-Italic'" font-size="7">8</tspan><tspan x="4.2" y="0" fill="#7D7D7D" font-family="'Verdana-Italic'" font-size="7" rotate="4.6">4</tspan><tspan x="8.6" y="0.4" fill="#7D7D7D" font-family="'Verdana-Italic'" font-size="7" rotate="6">0</tspan><tspan x="13" y="0.9" fill="#7D7D7D" font-family="'Verdana-Italic'" font-size="7" rotate="6">0</tspan></text>
<g>
	<g>
		<polyline fill="none" stroke="#7D7D7D" stroke-miterlimit="10" points="85.2,341.6 85.2,348.7 275.4,348.7 275.4,341.7 		"/>
		<line fill="none" stroke="#7D7D7D" stroke-miterlimit="10" x1="180.5" y1="341.4" x2="180.5" y2="348.7"/>
		<line fill="none" stroke="#7D7D7D" stroke-miterlimit="10" x1="161.2" y1="349.2" x2="161.2" y2="343.7"/>
		<line fill="none" stroke="#7D7D7D" stroke-miterlimit="10" x1="142.4" y1="349.2" x2="142.4" y2="343.7"/>
		<line fill="none" stroke="#7D7D7D" stroke-miterlimit="10" x1="123.3" y1="349.2" x2="123.3" y2="343.5"/>
		<line fill="none" stroke="#7D7D7D" stroke-miterlimit="10" x1="104.6" y1="349.2" x2="104.6" y2="343.7"/>
	</g>
	<text transform="matrix(1 0 0 1 83.7838 339.1468)" fill="#7D7D7D" font-family="'Verdana'" font-size="8">0</text>
	<text transform="matrix(1 0 0 1 174.2949 339.1468)" fill="#7D7D7D" font-family="'Verdana'" font-size="8">0.5</text>
	<text transform="matrix(1 0 0 1 258.3418 339.1468)" fill="#7D7D7D" font-family="'Verdana'" font-size="8">1 mi</text>
</g>
</svg>
