<?xml version="1.0" encoding="utf-8"?>
<!-- Generator: Adobe Illustrator 17.1.0, SVG Export Plug-In . SVG Version: 6.00 Build 0)  -->
<!DOCTYPE svg PUBLIC "-//W3C//DTD SVG 1.1//EN" "http://www.w3.org/Graphics/SVG/1.1/DTD/svg11.dtd">
<svg version="1.1" id="Layer_1" xmlns="http://www.w3.org/2000/svg" xmlns:xlink="http://www.w3.org/1999/xlink" x="0px" y="0px"
	 viewBox="0 0 360 360" enable-background="new 0 0 360 360" xml:space="preserve">
<path fill="none" stroke="#E1E1E1" stroke-miterlimit="10" d="M37.7,367c-0.4-2.1,0.3-4.3,1-6.3c1.2-3.7,2.4-7.4,3.6-11.1
	c0.8-2.3,1.5-4.7,1.4-7.2c-0.1-1.5-0.5-3.1-0.2-4.6s1.8-2.9,3.3-2.5c0.7,0.2,1.2,0.8,1.7,1.4c3.4,4.1,7.5,7.5,12,10.3
	c0.7,0.4,1.4,0.8,2.2,1c1.6,0.5,3.3,0.1,5,0.1c1.7,0,3.6,0.6,4.2,2.2c0.7,1.6-0.4,3.4-1.4,4.9c-3,4.4-6,8.7-9,13.1"/>
<path fill="none" stroke="#E1E1E1" stroke-miterlimit="10" d="M23.5,367.4c-1.3,0.5-1.8-1.6-1.6-2.9c2.7-14.5,5.2-29,7.3-43.5
	c0.2-1.4,0.4-2.8,0.1-4.2c-0.3-1.2-1-2.3-1.6-3.4c-1.9-3-3.8-6-5.6-9c-0.3-0.6-0.7-1.2-0.7-1.8s0.5-1.4,1.2-1.3
	c0.3,0,0.5,0.2,0.8,0.3c5.2,3.5,9.3,9.3,15.6,9.9c1.1,0.1,2.3,0.1,3.3,0.6c0.8,0.5,1.3,1.3,2,2.1c1.4,1.6,3.5,2.4,5.5,3.2
	c3.3,1.3,6.6,2.6,10,3.9c0.8,0.3,1.7,0.6,2.5,0.5c1-0.2,1.8-1,2.7-1.6c3.4-2.6,8.1-2.7,11.9-4.8c1.3-0.7,2.5-1.7,3.8-2.2
	c2.8-1,5.8,0,8.7,0.9c4.9,1.4,10,2.3,15,2.7c3.4,0.2,7,0.1,10-1.4c4.1-2.2,6.4-6.7,9.6-10.1c3.4-3.5,8.4-8.6,12.8-6.5
	c2.7,1.3,3.1,5.1,4.6,7.7c0.4,0.6,0.7,1.2,0.8,1.9c0.1,0.9-0.3,1.8-0.8,2.6c-5.3,9.3-16.6,12.9-24.8,19.8c-3.3,2.8-6.2,6.2-9,9.5
	c-2.3,2.7-4.6,5.5-6.7,8.4c-2.3,3.2-4.4,6.7-6.4,10.1c-2.2,3.7-4.5,7.5-6.7,11.2"/>
<path fill="none" stroke="#E1E1E1" stroke-miterlimit="10" d="M-2.7,369.3c-0.9-9.7,0.1-19.7,2.8-29c2.3-8.1,6-16.1,5.2-24.5
	c-0.1-1.2-0.4-2.5-1.4-3.1c-1.1-0.7-2.5-0.3-3.7-0.6c-3.1-0.7-3.9-4.6-4-7.7c-0.2-5.1-0.3-10.2-0.4-15.3
	c-0.2-17.4,0.6-34.9,3.8-52.1c0.3-1.9,1.2-4.1,3.1-4.3c1.4-0.1,2.5,1.1,3.3,2.3c1.8,2.5,3.2,5.2,4.4,8.1c3.9,9.6,4.3,21.2,11.7,28.4
	c2.5,2.4,5.5,4,8,6.4s4.5,5.7,3.8,9c-0.2,0.9-0.5,1.8-0.2,2.6c0.4,0.8,1.3,1.2,2.1,1.5c3.4,1.1,7,1.5,10.6,1.2c1-0.1,2.1-0.2,3.1,0
	c1.2,0.2,2.3,0.9,3.3,1.5c2.6,1.6,4.7,4.7,7.7,4.8c8.7,0.3,15.6-8.5,20.6-15.6c3-4.1,4.8-9,7.6-13.2c1.2-1.8,2.8-3.6,5-3.9
	c2.8-0.4,5.3,1.7,6.9,4.1c3.1,4.6,4,10.6,2.6,15.9c-0.2,0.9-0.5,1.9-0.2,2.8c0.3,0.7,1,1.1,1.7,1.5c2.3,1.3,5.1,2.2,7.5,1.3
	c1.7-0.6,3-2,4.2-3.3c6.9-7.3,15.3-13.8,25.2-15.3c12-1.9,34.3,3.9,30.4,15.4c-1.2,3.4-1.9,6.3-1.9,10c-0.1,6.5-6.2,11-10.4,16
	c-1.1,1.2-2,2.6-3.1,3.8c-1.3,1.5-2.7,2.8-4.1,4.2c-15.5,14.9-30.2,30.6-44.3,46.9"/>
<path fill="none" stroke="#E1E1E1" stroke-miterlimit="10" d="M189.3,368.1c1.6-2,2.1-4.5,2.6-7c0.7-3.3,1.3-6.6,2-10
	c0.3-1.6,0.6-3.2,1.2-4.6c0.9-2.2,2.3-4.1,4-5.8c2.2-2.3,4.2-5.8,7.3-5.9c3-0.1,3.5,4.8,4.1,7.8c0.3,1.4,0.5,2.7,0.8,4.1
	c1.4,7.3,2.9,14.8,2.6,22.2c0,0.6-0.2,1.3-0.7,1.4"/>
<path fill="none" stroke="#E1E1E1" stroke-miterlimit="10" d="M-39.5,300.9c8.4-4.9,8.4-16.7,10.1-26.3c1.1-6,3.4-11.8,5.6-17.6
	c5.1-13.2,10.2-26.3,15.3-39.5c1.5-3.9,4.1-8.5,8.3-8.3c2.4,0.1,4.3,2,6,3.7c9.6,10.1,18.1,21.4,25.1,33.5c1.7,2.9,3.4,6,6.2,7.8
	c2.1,1.4,4.7,2,7.1,2.5c5.9,1.3,12.4,2.5,17.7-0.4c3.6-2,6.3-5.9,10.3-6.9c3.2-0.8,6.6,0.3,9.9,0.5c10.6,0.4,18.7-9.7,22.2-19.7
	s2.7-22.5,10.1-30.1c4.4-4.5,12.5,1.8,14.3,7.8c1.7,6.1,0.2,12.5,0.6,18.8c0.4,5.9,0.4,14.4,5.9,16.4c10.1,3.7,22.2,1,29.3,9
	c3.1,3.5,6.4,8.3,11.1,7.8c1.6-0.2,3.3-1,4.9-0.4c1.4,0.6,2.1,2.1,3.4,2.9c1.9,1.2,4.6,0.3,6.1-1.4c1.5-1.7,2-4,2.6-6.3
	c1.1-4.9,2.3-9.9,3.4-14.8c1.5-6.6,3.9-15.4-1.5-19.6c-3.9-3.1-8-8.9-4.8-12.8c4.6-5.6,14.1-2.9,21.1-1c9.5,2.7,18.6,6.7,27.1,11.6
	c8,4.6,15.6,9.9,24,13.8c9.7,4.5,20.4,7,31.2,7.1c5.2,0.1,10.4-1.1,12.6-5.8c2.2-4.7,1.5-10.3-0.3-15.2c-1.9-4.9-4.8-9.2-7.2-13.8
	c-1.2-2.3-2.2-5-1-7.3c0.9-1.8,3-2.8,4-4.5c1.4-2.4,0.4-5.5-1.1-7.9c-1.5-2.4-3.5-4.5-4.2-7.2c-0.5-1.7-0.4-3.5-0.7-5.3
	c-1.3-9.4-10.7-16.1-11.8-25.5c-0.6-5.1,1.5-10.3,0.8-15.4c-0.8-5.3-4.5-9.7-6.4-14.8c-5-13-8.9-30.3-0.5-41.3
	c2.8-3.7,9.2-1.4,13.3-3.6c3.6-1.9,7.1-5.1,7.3-9.1c0.2-6-6.5-9.5-12.1-11.5c-5.4-2-10.9-3.9-16.3-5.9c-1.2-0.4-2.6-1.2-2.4-2.5
	c0.2-1.4,2.2-1.8,2.6-3.1c0.4-1.2-0.6-2.3-1.3-3.4c-2.8-4-2-9.4-1-14.2c0.8-4.1,1.6-8.2,2.4-12.3c1-5.2,2.1-10.7,5.7-14.6
	c3.5-3.9,9.8,1.4,14.1-1.7c2.7-1.9,1.7-5.6,2.2-8.9c0.6-4.1,3.1-7.3,1.5-11.1c-2.5-6.1-13.5-1.8-17.9-6.7"/>
<path fill="none" stroke="#E1E1E1" stroke-miterlimit="10" d="M360.2,2.2c-2.9,1.1-1.7,6.1-4.3,7.9c-1.2,0.9-2.9,0.7-4.4,0.6
	c-4.7-0.1-9.3,2-12.4,5.5c-3,3.5-4.4,8.2-5.6,12.7c-0.4,1.6-0.9,3.2-0.8,4.8c0.1,4.7,4.1,8.3,5.5,12.8c0.5,1.6,0.7,3.3,1.4,4.9
	c1,2.1,2.9,3.6,3.9,5.7c0.8,1.7,1,3.7,1.5,5.6c0.8,2.9,2.5,5.5,3.9,8.1c3.1,5.7,5.1,11.9,7.2,18c1,3,2,6,2.3,9.1
	c0.2,1.7,0.2,3.4,1.1,4.9c1.1,1.9,3.2,2.8,5.3,3.5"/>
<path fill="none" stroke="#E1E1E1" stroke-miterlimit="10" d="M363.4-22.3c-1.6-2.3-5.5-0.3-6.2,2.5s0.4,5.6,0,8.4
	c-0.6,4.7-5.7,8.2-10.3,7.1c-1.1-0.3-2.2-0.8-3.4-0.8c-1.4,0-2.8,0.6-4,1.4c-12.2,7.1-10.8,27.8-23.7,33.6c-3,1.3-5.9-3.5-9.1-3.2
	c-3.3,0.3-6.5,3.6-5.2,6.6c1.1,2.8,4.8,3.4,7.2,5.2c1.7,1.3,2.7,3.2,3.7,5c6.2,11.7,12.5,23.5,18.7,35.2c2.7,5.1,11.5,10.4,8.2,15.1
	c-4.8,6.8-16.7-7.4-24.6-4.7c-5.2,1.8,0.5,11.3,5.8,12.6c5.4,1.4,11.5-6.3,16-3.1c4.2,3,5.2,8.3,9.6,10.9c4.4,2.6,2.6,7.9,5.3,12.3
	c1.9,3.2,5.7,4,5.5,7.7s3.8,6.8,2.4,10.2c-2.7,6.7-16.9-2.5-20.7,3.7c-2.6,4.2,0.4,9.9,2.9,14.1c0.6,1,1.3,2.1,1.4,3.3
	c0.1,2.3-2.1,4.1-2.1,6.4c-0.1,3.7,5.4,5.8,5.3,9.5c0,1.5-0.9,2.7-1.7,4c-2.9,5.1-3.1,11.7-0.5,16.9c0.6,1.1,1.3,2.4,0.8,3.6
	c-0.6,1.5-2.7,1.7-4.3,2c-6.2,1.2-9.8,7.5-12.6,13.1c-2.9,5.8-5.8,11.7-8.6,17.5c-3.7,7.5-8.3,15.8-16.3,18.1c-4,1.2-8.2,0.7-12.3,0
	c-8.8-1.3-17.6-3.2-26.2-5.5c-2.5-0.7-5.1-1.4-7.3-2.9c-2.5-1.7-4.2-4.3-6.1-6.6c-7.7-9.3-22.1-22.4-31.6-15.1
	c-14.6,11.3-9,35.8-13.7,53.6c-0.7,2.8-1.3,4.7-1.3,7.6c0,0.7,0,1.4,0.3,2c0.7,1.6,2.8,1.9,4.5,1.9c3.5-0.1,6.9-0.9,10.4-0.4
	c3.4,0.4,7,2.5,7.8,5.9c0.5,2.1-0.2,4.3,0.6,6.3c0.4,1,1.1,1.8,1.4,2.8c0.6,1.7-0.1,3.5,0,5.3c0,1.7,0.7,3.4,1.3,5
	c1.6,4,3.3,8,5.3,11.8c3.5,6.3,8.3,11.9,14,16.3c0.5,0.4,1,0.8,1.4,1.3c1.1,1.6,0.5,3.8-0.1,5.7c-2.2,6.9-3.4,14.1-3.5,21.4"/>
<path fill="none" stroke="#E1E1E1" stroke-miterlimit="10" d="M313.1,366.9c2.2-2.3,3.1-5.5,3.9-8.5c2.2-8.6,4-17.4,5.2-26.3
	c0.4-3,0.8-6,2-8.8c2.4-5.7,7.9-9.6,11.1-14.9c1.1-1.9,2-3.9,3.2-5.7c2.8-4.3,7.3-7.3,12-9.2s9.9-2.8,14.9-3.7"/>
<path fill="none" stroke="#E1E1E1" stroke-miterlimit="10" d="M363.6,266.3c-2-0.9-4.3,0.3-6.1,1.5c-7.1,4.6-14,9.6-20.5,15.1
	c-4.7,3.9-9.3,8.1-12.7,13.2c-1.3,2-2.5,4.1-3.6,6.3c-3.4,6.4-6.7,12.9-9.9,19.5c-1.7,3.5-3.4,7.2-4.3,11c-0.9,4.3-0.7,8.8-0.5,13.2
	c0.1,2,0.2,3.9,0.3,5.9c0,0.9,0.1,1.9-0.1,2.8c-0.2,0.9-0.5,1.8-0.9,2.7c-2,4.7-4,9.4-6.1,14.1"/>
<path fill="none" stroke="#E1E1E1" stroke-miterlimit="10" d="M364,247.6c-13.2,8.1-26,16.9-38.3,26.4c-6.8,5.2-13.6,10.9-17.6,18.5
	c-0.9,1.6-1.6,3.4-2.5,5c-1.2,2-2.6,3.9-4.2,5.6c-9.4,10.1-23.9,15.3-37.5,13.2c-1.6-0.2-3.3-0.6-4.3-1.9c-0.8-1-1-2.4-1.2-3.7
	c-0.8-4.6-2.4-9-4.2-13.3c-4.1-9.9-4.7-23.8-14.2-28.8c-5.2-2.7-14.7,2.9-17.4-2.3c-2.8-5.5,0.5-13.6,5-17.8c2.6-2.5,7.1,1,10,3.1
	c2.9,2.2,5.5,4.8,8.7,6.4c0.7,0.3,1.5,0.6,2.3,0.5c0.9-0.2,1.6-0.9,2.4-1.4c3.4-2.3,8.8-0.6,10.2,3.3c0.3,0.7,0.4,1.6,0.9,2.2
	c0.7,0.9,2,1.2,3.2,1.3c7,0.9,14.1,0.6,21.2,0.3c9.3-0.4,19.1-1,26.9-6.2c5.1-3.4,8.9-8.5,12.5-13.4c3.5-4.7,6.9-9.4,10.4-14.1
	c1.5-2.1,3.1-4.2,5.1-5.8c2.2-1.7,4.9-2.7,7.6-3.6c5.6-2,11.4-3.7,17.1-5.2"/>
<path fill="none" stroke="#E1E1E1" stroke-miterlimit="10" d="M320.9,260.5c0.3-0.2,0.6-0.3,0.7-0.6c0.7-0.9-0.3-2.4-1.5-2.5
	s-2.2,0.7-3.1,1.6c-0.3,0.3-0.6,0.6-0.7,1c-0.3,0.8,0.4,1.7,1.2,2S319.8,261.2,320.9,260.5z"/>
<path fill="none" stroke="#E1E1E1" stroke-miterlimit="10" d="M349.9,234.6c-0.2-0.4-0.4-0.9-0.7-1.3c-1.6-2-5.4-0.1-7.4,1.5
	c-1.6,1.2-2.4,3.1-3.2,4.9c-1,2.3-3.4,5.1-1.9,7.1c0.6,0.8,2-0.2,2.7-0.9s1.2-1.6,2-2.2c1.1-0.9,2.6-1.2,3.9-1.9
	c2-1.1,3.2-3.2,4.3-5.2C349.9,236,350.2,235.2,349.9,234.6z"/>
<path fill="none" stroke="#E1E1E1" stroke-miterlimit="10" d="M275.5,271.3c-0.4,0.5-0.3,1.3,0.1,1.8c0.4,0.5,1,0.9,1.5,1.3
	c0.6,0.6,1,1.3,1.6,1.8c1.2,1.2,3,1.8,4.8,2c6.7,0.9,13.3-2.4,19.3-5.6c2.7-1.4,7.2-3.9,5.7-6.5c-1.4-2.4-5.5-0.1-7.8,1.4
	s-4.7,3.4-7.4,3.5c-1.9,0-3.7-0.8-5.5-1c-1.2-0.2-2.5,0-3.7,0.1c-2.4,0.2-4.7,0.4-7.1,0.6C276.3,270.8,275.8,270.9,275.5,271.3z"/>
<path fill="none" stroke="#E1E1E1" stroke-miterlimit="10" d="M-39.6,219.8c1.5-0.8,3.8-1.4,5.5-2.8c15.4-12.8,21.7-32.8,39-44
	c1.9-1.2,5-2,7-1s3.1,0.8,5,2c13.9,8.7,20.3,33.6,37,30c5.7-1.2,7.7-10.8,13-10c7.7,1.2,6.9,18.7,16,16c4-1.2,4-7,3-11
	c-2-8-7-25.9,4-24c27.4,4.8,51,17,78,17c5,0,10.1-5.6,16-4c5.2,1.5,7,8,12,8c6,0,8.8-8.6,15-5c3.9,2.2,7,4.9,12,6
	c9,1.9,14.8,10,24,11c2,0.2,3.1-1.2,6,0c2.1,0.9,3,2,5,4c1,1,3.2,2.3,5,1c1.1-0.8,3.3-2,3-3c-4.2-14.7-23.8-15.2-35-24
	c-3.9-3.1-9.1-3.8-13-6c-3.1-1.8-5-4-7.8-4.8c-3.3-1-10.1-4-9.2-7.3c1.1-4.2,8.6-1.7,12.8-2.5c2.4-0.5,4.9-0.9,7.4-0.6
	c4.7,0.6,8.5,4,12,7.3c3.5,3.3,6.4,12.3,10.5,9.8c5-3-3-11.5-7-15.9c-1.5-1.6-3.3-3-4.4-4.9c-0.9-1.5-1.4-3.2-2.2-4.7
	c-2.3-4.4-6.9-7-10.9-9.9s-8-6.9-8.1-11.8c0-1.3,0.2-2.6-0.4-3.7c-0.8-1.5-2.7-1.9-4.4-2.5c-9.8-3.4-15.7-12.8-23.5-19.5
	c-4.1-3.5,3.1-11.2,8.4-10.1c2.6,0.5,5,2.3,7.5,1.6c1-0.3,1.8-0.9,2.8-1.1c3.1-0.5,5.3,3.6,8.4,3.5c1.8-0.1,3.1-1.5,4.7-2.3
	c3.9-1.8,8.3,0.6,12,2.7c6.8,3.9,19.9,10.7,22.2,3.2c1.5-5-8.2-6-11.5-10c-5.1-6.2,7.9-13.5,8.5-21.6c0.7-9.2-10.9-14.9-14.1-23.5
	c-0.4-1.2-0.9-2.4-1.7-3.4c-1.3-1.5-3.4-2.1-5.2-2.9c-3.1-1.5-8.1-4.4-6.8-7.7c1.5-3.7,6.4-5,7.6-8.9c0.1-0.4,0.2-0.9,0.2-1.3
	c-0.1-0.8-0.9-1.4-1.5-1.9c-2.1-2.1-0.7-5.6-2-8.2c-1.2-2.4-3.5-3.9-4-6.5c-1.1-5.5-2.2-10.9-3.3-16.4c-0.2-0.8-0.3-1.8,0.2-2.5
	c0.4-0.6,1.3-1,1.6-1.7c0.4-1.6-2.1-1.9-3.8-1.8c-3,0.1-4.2-3.6-7-4.9c-1.2-0.6-2.5,2.2-3.7,1.6C197-18.1,200-27,199-32.8"/>
<path fill="none" stroke="#E1E1E1" stroke-miterlimit="10" d="M-40.9,191.6c9.1-3.8,19.1-8.4,22.7-17.6c2.9-7.5,0.8-16.3,4.5-23.4
	c4.8-9.4,17.6-11.6,27.8-9c10.2,2.6,19.2,8.7,29.3,11.8c3.2,1,6.5,1.7,9.4,3.5c0.7,0.4,1.4,0.9,2.2,1c0.8,0.1,1.7-0.2,2.5-0.5
	c13-5.3,25.2-12.7,35.9-21.8c2.9-2.5,5.8-5.2,9.3-6.8c2.2-1.1,4.6-1.7,7-2.3c9.1-2.4,20.7-3.9,26.2,3.8c0.8,1.1,1.5,4.6,2.7,4.1
	c3.7-1.6,7-2.7,9-0.4c2.5,2.9,4.7-5.3,6.5-8.7c0.8-1.4,0.8-3.1,1-4.7c1.7-13,18.2-20.2,20.1-33.2c0.5-3.2,0-6.4,0.4-9.6
	c0.4-3.2,2.1-6.6,5.1-7.5c1.8-0.6,3.8-0.3,5.4-1.1c2-1.1,2.7-3.4,3.3-5.6c1.3-4.6,6.1-9.6,3.8-13.7c-2.1-3.8-6.4-5.8-10.4-7.5
	c-4.8-2.1-11.1-0.7-14.3-4.9c-5.6-7.4,1.5-19-3.3-26.9c-2.5-4-9.2-1.8-13.9-2.8c-2.6-0.5-5.2-1-7.5-2.2c-9-4.7-10.3-17.3-17.5-24.5
	c-4.8-4.9-12.9-8.6-12.1-15.4"/>
<path fill="none" stroke="#E1E1E1" stroke-miterlimit="10" d="M67-33c0.7-0.6-1-0.3-1,0.6c0.2,4.2,1.1,8.4,2.6,12.3
	c0.5,1.4,1.3,2.9,2.7,3.4c3.7,1.3,5.9-7.6,9.5-6c2.9,1.3,5.4,3.1,7.2,5.7c1.2,1.7-0.6,4.1-0.8,6.2c-0.1,1-0.3,2.2,0.1,3.1
	c0.4,1,1.2,1.7,2,2.3c10.5,9,16.7,22.8,16.6,36.6c0,2.3,0.2,5.2,2.3,5.9c1,0.3,2.1,0.1,3.1,0.5c1.6,0.8,1.7,3,2.6,4.5
	c2.6,4.3,10.1,1.7,13.7,5.3c2.6,2.6,5.3,6.1,4.8,9.7c-0.6,4.8-8.8,4.1-13.2,6.2c-0.7,0.3-1.5,0.7-1.9,1.3c-0.8,1.2-0.1,3,1.2,3.7
	c1.3,0.7,2.9,0.6,4.3,0.2c3.8-1.2,6.7-4.3,10.4-5.7c3.7-1.5,9.2,0,9.4,3.9c0.1,1.4-0.6,2.8-0.8,4.2c-0.2,1.8,0.2,3.8-1,5.1
	c-0.6,0.7-1.6,0.9-2.4,1.3c-4.9,1.9-8.3,7.2-7.9,12.5c0.1,1.6,0.5,3.5-0.7,4.7c-1.5,1.6-4.1,0.5-6.3,0.6c-2.9,0.2-5.1,2.6-7.7,3.8
	c-2.1,0.9-4.4,1.1-6.6,1.4c-7.9,1-15.4,4-22.8,6.9c-1.3,0.5-2.6,1.1-3.3,2.2c-0.8,1.3-0.6,3-0.7,4.5c-0.4,4.9-4.4,8.7-8.5,11.4
	s-6.8,8.6-11.7,8.8c-4.6,0.2-7.8-0.9-12.4-1.2c-8.2-0.5-11.6-11.8-15.5-19.1s-5.6-16-2.9-23.8c0.6-1.7,1.3-3.6,0.2-5
	c-0.5-0.6-1.2-1-1.9-1.3c-2.7-1.3-5.4-2.5-8.1-3.8c-1.4-0.7-3-1.4-4.5-1.2c-2.3,0.2-4.1,2.2-5.4,4.1c-2.2,3-4.1,6.1-5.9,9.3
	c-1.1,2.1-2.3,4.4-4.4,5.5c-2.8,1.4-6.3,0.3-8.5-1.9s-3.6-5-5.1-7.7c-7.3-13.7-18.9-25.2-32.7-32.3"/>
<path fill="none" stroke="#E1E1E1" stroke-miterlimit="10" d="M-37.8,17.7c3.4-1.5,6.7-3.5,9.5-5.9c2-1.6,3.8-3.5,6.1-4.6
	S-17,5.8-15,7.3c4,2.9,2.3,9.8,6,13.1c0.9,0.8,2.1,1.3,3.2,1.9C0,25.1,4.9,29.6,8.2,35.2c0.7,1.2,1.4,2.5,2.4,3.6
	c0.6,0.7,1.3,1.2,1.6,2.1c0.5,1.5-0.6,3.8,0.9,4.4c0.4,0.2,0.9,0.1,1.3,0.2c2.9,0.3,3.8,4,5.3,6.5c2.1,3.5,6.2,5.1,10.1,6.4
	c2.1,0.7,4.1,1.4,6.2,2.2c5.6,2,11.4,4,17.4,3.7c3.3-0.1,10.3,3.6,10.8,0.4c0.5-2.8-1.7-4.1,5-5c3.9-0.5-0.3-9,2.3-11.9
	c0.4-0.5,0.9-0.9,1.2-1.5c0.4-1-0.2-2-0.5-3c-0.8-2.9,0.7-5.9,1.2-8.9c0.8-5.4-1.9-10.7-4.5-15.5c-1.5-2.7-2.9-5.3-4.4-8
	c-0.9-1.6-1.8-3.2-3.5-3.9c-1.1-0.5-2.4-0.4-3.5-0.6c-5.9-0.9-8.9-7.6-14.1-10.5c-0.6-0.3-1.3-0.6-1.8-1.1c-0.6-0.5-1-1.1-1.3-1.7
	c-6-9.2-12.2-18.4-18.4-27.4"/>
<path fill="none" stroke="#4E9BD7" stroke-miterlimit="10" d="M-7.2-31.3c-1.3,2.4-0.8,5.8,1.3,7.6c1.1,1,2.6,1.6,3.8,2.6
	c4.1,3.3,3.5,9.8,6.6,14c1.9,2.6,5.2,4,6.9,6.8c3.4,5.3,0.2,13.6,4.8,17.9c0.7,0.7,1.6,1.2,2.2,2c2.5,2.9,0.6,7.8,2.6,11.1
	c1.8,3.1,6.1,3.5,9.6,3s7.1-1.8,10.5-0.9c2.4,0.6,4.4,2.1,6.2,3.7c3.4,2.8,6.6,6,10,8.8c6.6,5.5,10.9,13.6,18.1,19.2
	c4,3.1,9.9-5.2,14.5-2.9c4.6,2.3,2.5,9.8,5.6,14c2.5,3.4,7.4,3.5,11.5,3c4.1-0.5,8.7-1.2,12.1,1.2c3.8,2.7,4.3,8,6.8,11.9
	c2.4,3.6,6.4,5.8,8.8,9.4c3.5,5.1,3.2,12.1,7.2,16.8c1,1.2,2.4,2.5,2.5,4.1c0,1.2-0.9,2.1-1.4,3.2c-2.4,5.2-5.7,9.9-10.2,14"/>
<path fill="none" stroke="#4E9BD7" stroke-miterlimit="10" d="M134.1,140.7c2.1,0.6,3.7,1.7,3.9,4.4c0.1,0.7,0.6,1.2,1.1,1.6
	c0.7,0.7,1.2,1.6,1.7,2.5c1.8,3.3,3.7,7.2,7.3,8.3c3.1,0.9,7.1-0.6,10.3-1.3c3.6-0.7,7.3-1.1,10.9-1c0.9,0,1.9,0,2.8,0.4
	c0.7,0.3,1.4,0.8,2,1.3c1,0.8,2,1.6,3,2.4c4.4,3.5,8.9,7.2,11.5,12.2"/>
<path fill="none" stroke="#D6D6D6" stroke-miterlimit="10" d="M207.6,182c2.2,0.4,4.4,0.5,6.8,0.9c0.4,0.1,0.7,0.1,1.1,0.3
	c0.5,0.3,0.8,0.7,1.3,1c0.4,0.2,1.3,0.7,1.2,0.3c0-0.2-0.4,0-0.7,0"/>
<path fill="#EAEAEA" stroke="#D6D6D6" stroke-miterlimit="10" d="M128.7,162.5c0-0.5,0.1-1,0.3-1.4c0.5-0.8,1.6-1,2.5-1.4
	c2.1-1,2.7-4.3,1.1-6c-0.6-0.6-1.4-1.4-1-2.1c0.2-0.2,0.4-0.3,0.6-0.5c1.1-0.7,1.8-2.2,1.2-3.4c-0.5-1-1.7-1.3-2.7-1.8
	c-1-0.5-2.4-1.7-1.6-2.5c1.1-1.1,3.2-0.7,4.4-1.7c1.3-1.1-0.4-3.6-2.1-4c-1.7-0.4-3.5,0.3-5,1.2c-1.9,1.1-3.9,2.9-3.6,5
	c0.1,0.5,0.3,1.1,0.2,1.6c-0.1,0.6-0.6,1.1-1,1.5c-3.2,3.3-5.5,7.6-6.6,12.1c-0.4,1.5-0.6,3.1-0.5,4.7c0.1,1.9,0.8,3.7,1.4,5.5
	c0.6,1.6,1.1,3.2,2.3,4.5c2,2.2,5.1,2.7,8,2.9c1.5,0.1,3.1,0.1,4.5-0.4c1.4-0.5,2.1-1.2,2.4-2.7c0.3-1.4,0.6-2.5-0.8-3.1
	c-0.6-0.3-1.5-1.1-2.1-1.2C127.4,168.2,128.7,164.7,128.7,162.5z"/>
<path fill="#7BBCEB" stroke="#4E9BD7" stroke-miterlimit="10" d="M195.7,189.7c0.5,0.2,1.1,0.2,1.6,0.2c4.2-0.4,7.8-2.6,9.4-6.5
	c0.3-0.8,0.8-1.4,0.4-2.1c-0.4-0.5-1.8-1.7-2.4-2c-2-1-3.2-1.6-4.2-1.9c-1.3-0.3-2.8-0.1-4.1-0.5c-0.4-0.1-1.8-1.8-2-2.2
	c-0.6-1-1.4-1.7-2.2-2.5c-1.1-0.9-2.2-2.2-3.4-1.5c-0.9,0.5-0.2,1.9,0.5,2.7c0.7,0.8,1.3,1.3,1.9,2.1c0.4,0.5,0.7,1.2,1.1,1.7
	c0.4,0.6,1,1.2,1.4,1.8c1.2,1.6,2.3,3.2,2,5.1c-0.1,0.9-1.1,2.2-1.1,3.1S194.9,189.3,195.7,189.7z"/>
<path fill="#EAEAEA" stroke="#D6D6D6" stroke-miterlimit="10" d="M217.5,184.7c-0.3,0.5,1.3,3,1.9,3.6c0.7,0.9,1.1,1.5,2.1,2
	c1,0.4,1.2,1.1,2.2,1.4c1.2,0.3,2.6,1.6,3.6,0.9c1-0.7,0-2.5-0.3-3.8c-0.2-0.9-0.6-1.8-1.3-2.4c-0.4-0.3-1-0.5-1.5-0.7
	c-0.9-0.3-1.9-0.7-2.8-1c-0.4-0.2-0.9-0.3-1.3-0.4C219.3,184.2,217.9,184,217.5,184.7z"/>
<g>
	<g>
		<path fill="none" stroke="#585858" stroke-miterlimit="10" d="M0.1-35.7c-0.1,0.4-0.2,1.2-0.2,2"/>
		<path fill="none" stroke="#585858" stroke-miterlimit="10" stroke-dasharray="3.9977,0.9994" d="M-0.1-32.8c0,0.3,0.1,0.5,0.1,0.8
			C6.8-11.7,28.7-1.9,35,18c1.9,6-0.9,13,0,20c1.1,8,2.9,15.1,11.1,16.1c2,0.2,6.3-2.7,7.6,0.1c1.1,2.3-4.7,2.7-3.9,5.1
			c0.4,1.4,2.8-1,4.1-0.4c1.6,0.7-1.4,5.7,0.2,6.2c5.3,1.7,6.7,3.5,6.9,14.9c0.1,8.6,17.1,3.1,24-2c4-3,5.5,2.5,8.5,2.5
			c1,0,2.3-1.3,3.2-1.1c3.1,0.5,2.8,5.1,5.5,5.1c1.7,0,4.8-1,6.8-0.5c2.2,0.5,0.8,3,1,4c0.5,2.2,3,4.6,5,5.6s5-1.1,6-2.1
			c5.3-5.8,10.4-22.8,15.4-19c2.1,1.5-1.2,3.8,1.5,5.1c4.5,2.2,8.5-9.3,10.4-6.5c2.2,3.2,5.8,2.7,8.1,4.1c3.7,2.4-3.7,9.4-5.8,12.1
			c-3.1,4.2-8.1,14.3-9.9,19.3c-1.2,3.1,4.5-1.3,6,3.8c0.8,2.8,1.1,4.1,0.2,6.5c-0.2,0.6-4.3,8-4.3,9c0,6.2,1,11.1,3.5,19
			c2.6,8.2,16.4-10.6,20.1-5.1c2.1,3,4.8,7,11.1,10.1c2.6,1.3,0.6,5.4,2.5,7.8c1.6,2-2.4,6.1-4.6,7.2c-1.9,1,2.6,1.2,1.9,3.7
			c-0.4,1.2-4,1.8-3.8,2.6c1.6,5.5-3.6,12.4-1.3,17.7c1.8,4.1,8,7,8,12c0,1-3.2,1.8-4,3c-8.9,13.5-1,31-1,47c0,1,3,1,3.9,1.9
			c1.4,1.3,2.2,3.1,2.2,5s-0.4,3.8-0.5,5.7c-0.2,3.7,0.9,7.4,3.1,10.4c1.4,1.9,3.2,3.9,2.7,6.1c-0.2,0.7-0.6,1.3-0.6,2
			c-0.1,1.5,1.4,2.5,2.4,3.5c2.5,2.5-0.5,6.6,1.1,9.8c1.1,2.2,4.9,0.8,7.1,1.9c1.5,0.7,2.9,1.6,3.7,3c0.7,1.4-1.1,2.7-0.9,4.3
			c0.2,2.4,5.5,0.5,6.9,2.5c0.7,1-1.2,2.2-1.2,3.5c0.1,1.7,3.2,0.8,4.6,1.7c1,0.6,1.5,1.9,1.9,3c1.6,4.1,4.2,8.1,3.6,12.4
			c-0.4,2.4-1.8,4.6-3.2,6.6c-1.8,2.6-3.5,5.3-5.3,7.9c-1.2,1.8-2.4,3.7-2.2,5.8c0.1,1.4,0.9,3,0.1,4.1c-0.3,0.4-0.8,0.7-1.2,1
			c-6.4,4.2-7.8,13.2-12.7,19"/>
		<path fill="none" stroke="#585858" stroke-miterlimit="10" d="M190.2,372.3c-0.4,0.5-0.9,1-1.4,1.4"/>
	</g>
</g>
<g>
	<g>
		<path fill="none" stroke="#585858" stroke-miterlimit="10" d="M179.9,157.7c0.6-0.4,1.1-0.7,1.7-1.1"/>
		<path fill="none" stroke="#585858" stroke-miterlimit="10" stroke-dasharray="4.0095,1.0024" d="M182.4,156
			c10.3-6.9,19.7-15.9,27-25.8c2-2.7,3.9-5.5,6.4-7.6c2.6-2.1,6.1-3.4,9.3-2.5c2.7,0.8,6,3.8,8,1.8c4.3-4.3,4.6-11.3,6.1-17.2
			c0.4-1.5-1.2-2.9-0.7-4.4c1.5-4.3,8.8-2.3,12.2-5.2c3.4-3,6.3-6.5,9.9-9.3c1.3-1,2.6-1.8,3.8-2.9c1.8-1.7,3-3.9,4.4-5.9
			c2.9-4,6.9-7.1,11.4-9.1c1.7-0.7,3.4-1.2,4.9-2.2c5.6-3.6,6.1-12.3,2-17.5c-1.1-1.4-3-3-2.2-4.6c0.9-1.7,3.6-0.6,5.4,0.1
			s4.2,1,5.2-0.6c0.4-0.7,0.4-1.6,0.3-2.5c-0.3-2.7-1-5.4-2.2-7.8c-0.7-1.4-0.8-3.8-0.2-5.3c1.4-3.4,2.2-5.4,4.1-7.9
			c0.9-1.2,2.1-2.3,3.6-2.6c0.9-0.1,1.8,0.1,2.7,0.3c3.9,0.8,7.9,0.8,11.8,0c0.6-0.1,1.3-0.3,1.8-0.6c1.7-1.1,1.5-3.6,1.6-5.6
			c0-5.2,2.3-10.3,6.2-13.7c1.3-1.1,2.7-2.1,3.9-3.4c1.9-2,2.9-4.7,2.9-7.5c0-1.5-0.3-2.9,0.1-4.3c0.4-1.4,1.7-2.7,3.1-2.4
			c1.8,0.5,1.7,4,3.6,4.2c1.1,0.1,0.5-1.9,0.7-2.9c0.3-1.4,2.2-1.9,3.5-1.3s2.2,1.8,3.2,2.8s2.6,3,3.6,2c2.8-2.5-2-7.2-4.9-9.8
			c-1.2-1-3.3-3.3-1.9-3.9c1.9-0.8,4.1-0.8,5.7-1.5"/>
		<path fill="none" stroke="#585858" stroke-miterlimit="10" d="M349.2-30.8c0.5-0.3,1-0.8,1.3-1.5"/>
	</g>
</g>
<text transform="matrix(1 0 0 1 197.981 163.9992)"><tspan x="0" y="0" fill="#7BBCEB" font-family="'Verdana-Italic'" font-size="8">Upper</tspan><tspan x="0" y="9.6" fill="#7BBCEB" font-family="'Verdana-Italic'" font-size="8">Merced Pass Lake</tspan></text>
<text transform="matrix(1 0 0 1 86.9458 155.7492)"><tspan x="0" y="0" fill="#585858" font-family="'Verdana-Italic'" font-size="8">Lower</tspan><tspan x="-47.1" y="9.6" fill="#585858" font-family="'Verdana-Italic'" font-size="8">Merced Pass Lake</tspan></text>
<text transform="matrix(1 0 0 1 155.1411 288.9992)"><tspan x="0" y="0" fill="#585858" font-family="'Verdana-Italic'" font-size="8">Merced</tspan><tspan x="10.9" y="9.6" fill="#585858" font-family="'Verdana-Italic'" font-size="8">Pass</tspan></text>
<path fill="none" d="M116.7,288c6.9-7.3,15.3-13.8,25.2-15.3c12-1.9,34.3,3.9,30.4,15.4"/>
<text transform="matrix(0.9104 -0.4137 0.4137 0.9104 132.6195 278.4543)"><tspan x="0" y="0" fill="#7D7D7D" font-family="'Verdana-Italic'" font-size="7">9</tspan><tspan x="4.1" y="0" fill="#7D7D7D" font-family="'Verdana-Italic'" font-size="7" rotate="7.4">4</tspan><tspan x="8.2" y="0.4" fill="#7D7D7D" font-family="'Verdana-Italic'" font-size="7" rotate="16.4">0</tspan><tspan x="12.1" y="1.6" fill="#7D7D7D" font-family="'Verdana-Italic'" font-size="7" rotate="24">0</tspan></text>
<path fill="none" d="M16.8,174c13.9,8.7,20.3,33.6,37,30"/>
<text transform="matrix(0.729 0.6845 -0.6845 0.729 35.8329 199.4709)"><tspan x="0" y="0" fill="#7D7D7D" font-family="'Verdana-Italic'" font-size="7">9</tspan><tspan x="5" y="0" fill="#7D7D7D" font-family="'Verdana-Italic'" font-size="7" rotate="-10.6">0</tspan><tspan x="10" y="-1" fill="#7D7D7D" font-family="'Verdana-Italic'" font-size="7" rotate="-26.5">0</tspan><tspan x="14.7" y="-3.5" fill="#7D7D7D" font-family="'Verdana-Italic'" font-size="7" rotate="-45.3">0</tspan></text>
<path fill="none" d="M276.5,112.8c1.5,5.5,7.1,13.3,7.9,18.6c0.7,5.1-1.4,10.3-0.8,15.4"/>
<text transform="matrix(0.3909 0.9204 -0.9204 0.3909 274.2845 114.6139)"><tspan x="0" y="0" fill="#7D7D7D" font-family="'Verdana-Italic'" font-size="7">9</tspan><tspan x="4.6" y="0" fill="#7D7D7D" font-family="'Verdana-Italic'" font-size="7" rotate="-3.9">2</tspan><tspan x="9" y="-0.4" fill="#7D7D7D" font-family="'Verdana-Italic'" font-size="7" rotate="-3.5">0</tspan><tspan x="13.3" y="-0.7" fill="#7D7D7D" font-family="'Verdana-Italic'" font-size="7" rotate="1.4">0</tspan></text>
<path fill="none" d="M154.9,120.6c1.7-13,18.2-20.2,20.1-33.2"/>
<text transform="matrix(0.6669 -0.7451 0.7451 0.6669 164.0697 108.7433)"><tspan x="0" y="0" fill="#7D7D7D" font-family="'Verdana-Italic'" font-size="7">8</tspan><tspan x="4.5" y="0" fill="#7D7D7D" font-family="'Verdana-Italic'" font-size="7" rotate="-0.2">8</tspan><tspan x="9.1" y="0" fill="#7D7D7D" font-family="'Verdana-Italic'" font-size="7" rotate="-3.5">0</tspan><tspan x="13.8" y="-0.3" fill="#7D7D7D" font-family="'Verdana-Italic'" font-size="7" rotate="-10.4">0</tspan></text>
<path fill="none" d="M308.2,292.5c4-7.6,10.8-13.2,17.6-18.5c12.3-9.5,25-18.3,38.3-26.4"/>
<text transform="matrix(0.6256 -0.7801 0.7801 0.6256 312.5667 290.0519)"><tspan x="0" y="0" fill="#7D7D7D" font-family="'Verdana-Italic'" font-size="7">9</tspan><tspan x="4.2" y="0" fill="#7D7D7D" font-family="'Verdana-Italic'" font-size="7" rotate="5.3">6</tspan><tspan x="8.5" y="0.4" fill="#7D7D7D" font-family="'Verdana-Italic'" font-size="7" rotate="9.2">0</tspan><tspan x="12.8" y="1.1" fill="#7D7D7D" font-family="'Verdana-Italic'" font-size="7" rotate="11.9">0</tspan></text>
<path fill="none" d="M64.4,10.8c1.5,2.7,2.9,5.3,4.4,8c2.6,4.8,5.4,10.1,4.5,15.5c-0.5,3-2,6-1.2,8.9"/>
<text transform="matrix(0.4817 0.8763 -0.8763 0.4817 64.659 16.5461)"><tspan x="0" y="0" fill="#7D7D7D" font-family="'Verdana-Italic'" font-size="7">8</tspan><tspan x="4.4" y="0" fill="#7D7D7D" font-family="'Verdana-Italic'" font-size="7" rotate="1.3">4</tspan><tspan x="8.6" y="0" fill="#7D7D7D" font-family="'Verdana-Italic'" font-size="7" rotate="7.2">0</tspan><tspan x="12.5" y="0.4" fill="#7D7D7D" font-family="'Verdana-Italic'" font-size="7" rotate="18.5">0</tspan></text>
<g>
	<g>
		<polyline fill="none" stroke="#7D7D7D" stroke-miterlimit="10" points="85.2,341.6 85.2,348.7 275.4,348.7 275.4,341.7 		"/>
		<line fill="none" stroke="#7D7D7D" stroke-miterlimit="10" x1="180.5" y1="341.4" x2="180.5" y2="348.7"/>
		<line fill="none" stroke="#7D7D7D" stroke-miterlimit="10" x1="161.2" y1="349.2" x2="161.2" y2="343.7"/>
		<line fill="none" stroke="#7D7D7D" stroke-miterlimit="10" x1="142.4" y1="349.2" x2="142.4" y2="343.7"/>
		<line fill="none" stroke="#7D7D7D" stroke-miterlimit="10" x1="123.3" y1="349.2" x2="123.3" y2="343.5"/>
		<line fill="none" stroke="#7D7D7D" stroke-miterlimit="10" x1="104.6" y1="349.2" x2="104.6" y2="343.7"/>
	</g>
	<text transform="matrix(1 0 0 1 83.7837 339.1468)" fill="#7D7D7D" font-family="'Verdana'" font-size="8">0</text>
	<text transform="matrix(1 0 0 1 174.2948 339.1468)" fill="#7D7D7D" font-family="'Verdana'" font-size="8">0.5</text>
	<text transform="matrix(1 0 0 1 258.3417 339.1468)" fill="#7D7D7D" font-family="'Verdana'" font-size="8">1 mi</text>
</g>
</svg>
