<?xml version="1.0" encoding="utf-8"?>
<!-- Generator: Adobe Illustrator 17.1.0, SVG Export Plug-In . SVG Version: 6.00 Build 0)  -->
<!DOCTYPE svg PUBLIC "-//W3C//DTD SVG 1.1//EN" "http://www.w3.org/Graphics/SVG/1.1/DTD/svg11.dtd">
<svg version="1.1" id="Layer_1" xmlns="http://www.w3.org/2000/svg" xmlns:xlink="http://www.w3.org/1999/xlink" x="0px" y="0px"
	 viewBox="0 0 360 360" enable-background="new 0 0 360 360" xml:space="preserve">
<path fill="none" stroke="#E1E1E1" stroke-miterlimit="10" d="M28.9-1.6C28.2-1,28.8,0.2,29.3,1c0.6,1.1,0.6,2.4,0.8,3.6
	c0.3,2.3,1.1,4.5,2.3,6.5c0.2,0.4,0.5,0.7,0.9,0.9c0.4,0.1,0.9,0,1.3-0.2c3.8-1.7,6.8-4.8,9.6-7.9c0.5-0.6,1-1.1,1.5-1.7
	c0.3-0.3,0.6-0.6,0.9-1c1-1.1,2-2.2,3-3.4c1.5-1.7,3-3.4,4.6-5.1"/>
<path fill="none" stroke="#E1E1E1" stroke-miterlimit="10" d="M13.9-2.8c1.5,5.4,3,10.9,4.4,16.3c1,3.5,2,7.1,4,10.2
	c1.2,1.8,2.9,3.5,5.1,3.8c3.3,0.4,6.4-2.6,9.6-1.8c2,0.4,3.4,2.2,4,4.1s1.2,4.1,0.5,6c-2.7,7-4.8,15,0,20.8c1.3,1.6,3.1,2.9,5.1,2.9
	c0.8,0,1.6-0.3,2.4-0.1c2.2,0.5,2.8,4.2,5.1,4.1c2.9-0.1,4.8-3,6.2-5.5c1.4-2.5,2.4-5.2,4.2-7.5c2.1-2.5,5-4.1,7.5-6.1
	c2.8-2.2,5.2-5,8-7.3c10.9-8.7,26.5-8,39.4-13.4c1.3-0.5,2.6-1.1,4-1.4c1.3-0.3,2.6-0.3,3.9-0.4c8.1-0.7,15.1-5.7,21-11.2
	c5.9-5.5,11.3-11.8,18.2-16"/>
<path fill="none" stroke="#E1E1E1" stroke-miterlimit="10" d="M25.3-3.7c-1.3,3.9-2.6,8-2.4,12.1c0.2,4.1,2.2,8.5,5.9,10.2
	c4.3,2,9.5,0.2,13.6-2.2c4.6-2.7,8.9-6,12.6-9.8c2.4-2.4,4.5-5.1,7.2-7.1s8.9-6,9.5-2.7c0.5,2.5-2.8,4.5-1.6,6.6
	c0.2,0.4,0.5,0.8,0.6,1.3c0.1,0.6-0.2,1.1-0.5,1.6c-2,3.3-3.9,6.6-5.9,9.8c-0.9,1.6-1.9,3.4-1.3,5.1c0.3,0.8,0.9,1.5,0.7,2.3
	c-0.1,0.4-0.4,0.8-0.6,1.1c-2.9,3.6-6.2,6.9-9.8,9.8c-3.5,2.9-7.6,5.9-8.5,10.4c-0.4,2.3,0.1,4.9,1.8,6.6c1.6,1.7,4.4,2.4,6.5,1.3
	c1.3-0.6,2.2-1.7,3.1-2.7C62,43.7,68.7,38,76,33.4c2.2-1.4,4.5-2.7,6.9-3.5c4-1.2,8.3-0.9,12.4-1.9c3.8-1,7.3-3.1,11.2-3.7
	c2-0.3,4-0.2,6-0.6c1.5-0.3,3-0.8,4.5-1.3c6.6-2.4,13.1-4.7,19.7-7.1c2.6-0.9,5.2-1.9,7.3-3.7c1.2-1.1,2.2-2.4,3.2-3.7
	c3.5-4.4,7.4-8.5,11.6-12.3"/>
<path fill="none" stroke="#E1E1E1" stroke-miterlimit="10" d="M110.4-4.4c-0.1,0,0.1-0.2,0.1-0.1c0.6,1.6,0.9,3.3,0.9,5.1
	c0,1.5-0.1,3.3,1,4.2c0.7,0.6,1.7,0.6,2.6,0.5c3.6-0.4,6.7-2.5,10-3.9c5.5-2.3,11.7-2.7,16.6-6c0.4-0.3,0.7-1,0.2-1.1"/>
<path fill="none" stroke="#E1E1E1" stroke-miterlimit="10" d="M85.5-3.2c-1.7,1.6-2.8,3.8-3.2,6.1C82.1,3.9,82.2,5,83,5.5
	c0.5,0.2,1,0.2,1.5,0.2c2.3-0.2,4.7-0.6,6.7,0.5c0.7,0.3,1.3,0.8,2,0.9c1.7,0.2,3-1.5,4.6-1.9c2-0.6,4,0.8,5.3,2.4
	c1.3,1.6,2.3,3.5,3.9,4.7c1.7,1.2,4,1.5,6,0.7c0.8-0.3,1.5-0.8,2.3-1c0.7-0.2,1.5-0.1,2.3-0.2c1.5-0.1,2.9-0.8,4.3-1.4
	c4.8-2.3,9.3-5.3,14.4-6.9c3.8-1.2,8-1.7,11.1-4.2c1.8-1.5,3.1-3.5,4.3-5.5"/>
<path fill="none" stroke="#E1E1E1" stroke-miterlimit="10" d="M79.6-2.8C77.5-0.3,76,3,76.5,6.3c0.5,3.3,2.9,6,5.1,8.4
	c0.3,0.3,0.5,0.6,0.9,0.7c0.2,0.1,0.5,0,0.8,0c3.7-0.5,7.5,0.3,10.7,2.2c0.5,0.3,0.9,0.6,1.4,0.7c1.3,0.3,2.3-1.9,3.5-1.5
	c1.7,0.6,1.8,3.3,3.5,3.9c1.7,0.7,3.6,0.6,5.4,0.3c2.2-0.3,4.3-1,6.3-1.9c3.2-1.3,6.2-2.9,9.4-4.3c3.7-1.6,7.5-2.8,11.5-3.5
	c2.5-0.4,5.2-0.6,7.1-2.3c1.9-1.7,2.6-4.4,4.3-6.3c0.7-0.8,1.7-1.5,2.6-2.2c2.5-1.8,5.1-3.6,7.6-5.4"/>
<path fill="none" stroke="#E1E1E1" stroke-miterlimit="10" d="M8.8-4.7c1.4,4.5-1.7,9.2-1.5,13.9c0.2,7.7,8.6,12.4,11.7,19.3
	c0.8,1.8,1.3,3.8,2.5,5.4c1.2,1.6,3.3,1.3,5.1,2c3.3,1.3,1.8,6.9,1.2,10.4c-0.4,2.2-1.2,4.6-0.4,6.7c0.8,2.2,3.1,0.9,5.3,1.5
	c6.4,1.8,9.3,9.1,12.2,15.1c0.7,1.5,1.2,3.4,2.7,4.2c0.7,0.4,1.5,0.4,2.3,0.4c7-0.1,12.7-5.7,16.7-11.6c2-3,4-6.3,7.2-8
	c1.3-0.7,2.8-1.2,4.2-1.9c4.3-2.5,6-7.8,9.5-11.3C92,37,99,36,105.1,33.8c5.8-2.1,11-5.4,16.9-7.2c4.2-1.3,8.7-1.8,12.9-3.2
	c8.3-2.6,15.2-8.3,21.7-14.2c2-1.9,4.1-3.8,6.6-4.9c2.2-0.9,4.7-1.2,7.1-1.6c6-1,11.8-3.4,16.8-6.8"/>
<path fill="none" stroke="#E1E1E1" stroke-miterlimit="10" d="M1.1-1.8C-0.7,8-1.3,18.3,2.3,27c0.9,2.1,2.8,4.3,4,5
	c10.8,6.1,17,15,17,26c0,3,1,5.8,4,6c9,0.5,8.7,9.8,12,16c5.7,10.6,18.8-3.3,26-9c10.7-8.4,21.9-13.2,33-19c4-2.1,6.4-7.4,10-12
	c4.4-5.6,12.1-6.7,19-9c8.1-2.7,13.9-9.3,22-12c6.9-2.3,12.9-5.3,20-8c3-1.1,5-1,8.3-2.3c2.7-1.1,5.6-1.8,8.2-3
	c0.7-0.3,1.3-0.6,2-0.8c1-0.2,2,0.1,3-0.2c0.7-0.2,1.3-0.6,1.8-0.9c6.1-4,12-8.4,17-13.7"/>
<path fill="none" stroke="#E1E1E1" stroke-miterlimit="10" d="M-7.5,50.3c1.7-2.3,5.5-2.5,7.5-0.5c0.6,0.6,1,1.3,1.8,1.7
	C3.6,52.3,5.2,50,7,49c3.7-2,7.8,2.2,8.9,6.3s1.1,8.8,4.1,11.7c1.4,1.3,3.1,2,4.8,3c3.8,2.2,6.9,5.8,8.5,10c1,2.6,1.5,5.5,3.5,7.4
	c3.4,3.2,8.9,1.8,13.2,0.1c3.7-1.4,7.5-2.8,11.2-4.2c7.6-2.8,15.3-5.7,22-10.3c3.1-2.2,6-4.7,9.1-6.9c3.7-2.6,7.6-4.8,11.2-7.6
	c6.6-5.2,11.5-12.2,17.5-18.1s17.9-17.5,22.1-10.3c0.6,1.1,0.6,2.6,1.9,2.7c1.3,0.2,2.5-0.5,3.6-1.1c8.3-4.8,16.7-9.5,25-14.3
	c3.4-2,6.9-3.9,10.3-5.9C193.9,5.9,204,0.1,214-5.6"/>
<path fill="none" stroke="#E1E1E1" stroke-miterlimit="10" d="M233.9-3.9c-10.2,4.2-20.4,8.3-30.7,12.5c-6.6,2.7-13.2,5.4-19,9.5
	c-2.8,2-5.4,4.3-8.4,5.7c-2.6,1.2-5.4,1.7-7.9,3c-3,1.5-5.4,3.8-8,5.9c-7.6,6-16.7,9.7-26.1,12.1c-2.1,0.6-4.3,1.1-6.3,2.1
	c-2.2,1.1-4,2.9-5.8,4.6c-6.4,6.1-12.9,12.2-17.4,19.8c-1.8,3-4.6,6.8-8,5.7c-0.7-0.2-1.4-0.7-2.2-0.8c-1.3-0.2-2.4,0.7-3.3,1.6
	c-6,5.5-11.6,12.5-19.6,13.8c-5.5,0.9-11.5,4-16.9,5.4c-6.5,1.6-13.8,3-19.6-0.4c-3.5-2-5.9-5.7-6.4-9.7c-0.1-0.5-0.1-1-0.3-1.5
	c-1-2.7-5.2-2.6-6.7-5.1c-0.4-0.6-0.6-1.3-1.1-1.8c-0.7-0.6-1.8-0.6-2.4-1.3c-0.5-0.5-0.5-1.3-0.8-1.9c-0.3-0.8-1-1.3-1.7-1.8
	c-2.9-2.2-6-4.2-9.2-6c-0.9-0.5-1.8-1-2.4-1.8c-0.4-0.6-0.6-1.3-1-2C2,62,0.3,61.2-1.4,61.1C-3,61-4.7,61.4-6.3,61.8
	c-1.8,0.4-3.6,0.9-5.4,1.3"/>
<path fill="none" stroke="#E1E1E1" stroke-miterlimit="10" d="M-7.8,80.2c2.2,0.7,4.1,2.5,4.7,4.8c0.2,0.8,0.3,1.6,0.7,2.3
	c0.9,1.5,3.1,1.7,4.9,1.5c1.8-0.2,3.7-0.6,5.3,0.3c0.9,0.5,1.5,1.3,2.1,2.1c2.1,2.7,4.8,5.1,8.2,5.8c1.3,0.2,2.6,0.2,3.8,0.6
	c2.3,0.7,4,2.7,5.8,4.2c3,2.6,6.8,4.1,10.4,5.7c2.2,0.9,4.4,1.8,6.7,1.8c1.9,0,3.7-0.6,5.4-1.2c6.4-2.1,12.4-6.3,19.1-6.3
	c2.6,0,4.7,0.1,7.1-0.9c2.4-1,4.7-2.3,7.2-3c0.8-0.2,1.9-0.1,1.9,0.7c0,0.2-0.1,0.4-0.2,0.6c-3.7,6.3-13.5,5.8-18.4,11.2
	c-1.3,1.4-2.2,3.2-4,3.9c-0.9,0.4-1.9,0.5-2.6,1c-1.1,0.7-1.5,2.2-2.5,3c-1.9,1.5-5.1,0.4-6.7,2.2c-0.5,0.6-0.8,1.5-1.2,2.1
	c-1.7,2.4-5.3,1.5-8.2,1.8c-2.6,0.2-4.9,1.6-7.2,2.9c-2.4,1.4-4.7,2.8-7.1,4.1c-3.4,2-7.4,4-11,2.6c-2.3-0.9-4.2-3-6.7-2.8
	c-0.7,0-1.3,0.3-1.9,0.5c-2.2,0.8-4.5,1.6-6.7,2.4c-3,1-5.9,2.1-8.9,3.1c-1.6,0.6-3.2,1.1-4.5,2.2"/>
<path fill="none" stroke="#E1E1E1" stroke-miterlimit="10" d="M-8.6,154.8c1.1,1,2.8,0.8,4,0s2.2-1.9,3.3-2.8
	c5.2-4.1,12.7-2.1,18.8,0.2c6.2,2.3,13.3,4.8,19,1.4c3.9-2.3,5.8-6.7,8.2-10.5c2.4-3.8,6.1-7.6,10.6-7.2c1.5,0.1,4.1,0.9,4.1-0.6
	c0.1-2.1-1.8-4.9,0.2-5.4c0.4-0.1,0.9-0.1,1.3-0.1c3.9-0.1,5.5-4.9,7.5-8.3c2.5-4.3,7-7.1,11.3-9.8c6.9-4.2,13.8-8.5,21.5-10.9
	c2.9-0.9,5.9-1.6,8.1-3.7c1.8-1.7,3.9-2.4,5.9-3.8c2.5-1.7,2.5-5.5,4.6-7.6c5.3-5.4,10.7-10.7,16-16.1c2.8-2.8,7-5.1,10.3-7.2
	c2.2-1.4,4-3.4,6.1-4.9c1.5-1.1,3.3-2,5-2.9c10.9-5.5,22-10.9,31.6-18.6c1.8-1.4,3.5-2.9,5-4.6c1.5-1.7,2.8-3.5,4.3-5.3
	c4.1-4.9,9.6-8.6,15.6-10.8c2.2-0.8,4.4-1.4,6.4-2.5c3.3-1.8,5.9-4.9,9.4-6.1c1.2-0.4,2.6-0.6,3.8-1.1c4.6-2,6.6-8.7,11.6-8.9"/>
<path fill="none" stroke="#E1E1E1" stroke-miterlimit="10" d="M-9.9,166.5c3-1,6.4,0.9,9.5-0.2c3.2-1.2,4.2-5.9,7.6-6.5
	c3.2-0.6,6.3,1.2,9.3,2.4c6.1,2.6,13,3.4,19.6,2.1c1-0.2,2.1-0.4,3.1-0.3c0.7,0.1,1.5,0.3,2.2,0.4c3,0.4,5.8-1.4,8-3.6
	c2.1-2.2,3.9-4.7,6.4-6.4c2.8-1.9,6.7-2.7,8.2-5.8c0.9-2,0.9-4.9,3-5.6c0.7-0.2,1.4-0.2,2.1-0.3c1.4-0.4,2.2-1.9,2.5-3.3
	c0.3-1.4,0.3-2.9,0.7-4.3c0.8-2.3,2.9-4,4.1-6.1c0.6-1.2,1-2.5,1.6-3.8c1-2,2.7-3.5,4.4-5c5.6-5,12.1-9.9,19.5-9.9
	c3,0,6.4,0.7,8.5-1.4c0.7-0.7,1.1-1.5,1.6-2.3c2.3-3.8,7.5-4.3,10.8-7.3c3.4-3.1,4.2-8.6,7.9-11.3c0.7-0.5,1.5-1,2-1.8
	c0.3-0.5,0.5-1,0.7-1.5c3-7.2,8.8-12.9,14.5-18.3c1.5-1.4,3.4-1.8,5.4-2.1c15.7-1.9,26.2-18,41.1-23.2c1.2-0.4,2.6-0.9,3.3-2
	c0.7-1.1,0.6-2.4,0.8-3.6c0.5-3.1,2.6-5.6,4.6-7.9c1-1.1,2-2.2,3.3-2.7c1.1-0.4,2.2-0.3,3.3-0.3c7.5,0.2,15.1-1.5,21.7-5.1
	c11-6,19.6-17.3,32-18.6c2.4-0.2,4.9-0.1,7.2-0.6c4.3-0.9,8.1-3.9,9.9-7.9"/>
<path fill="none" stroke="#E1E1E1" stroke-miterlimit="10" d="M-10.4,171.9c3.5,3.2,9.2,1.2,13.8,2.5c2.9,0.8,5.2,3,8.1,4
	c3.5,1.1,7.4,0.4,10.7,1.9c1.5,0.7,2.8,1.8,4.3,2.2c1.7,0.5,3.6,0.2,5.3-0.2c4.5-0.9,9.2-1.8,13-4.5c2.7-1.9,4.8-4.6,7.4-6.8
	c3.5-2.9,7.9-4.6,11.8-7c3.9-2.4,7.6-5.8,8.3-10.4c0.3-1.9,0.2-4.1,1.5-5.4c0.5-0.5,1.2-0.8,1.9-1.2c1.3-0.7,2.5-1.8,3.3-3
	c3-4.4,2.1-10.7,4.8-15.3c2.9-4.9,9.2-6.6,14.9-7.3c5.7-0.7,11.8-1.1,16.3-4.6c2.5-1.9,4.2-4.6,5.9-7.3c2.1-3.3,4.2-6.5,6.2-9.8
	c2.6-4,9.8-10.7,13.8-13.2c7.6-4.7,9.2-8.8,16.3-14.2c0.5-0.4,1.1-0.8,1.4-1.4c0.7-1.2,0.3-2.6,0.5-4c0.4-2.7,3.1-4.5,5.5-5.9
	c6-3.5,11.9-7,17.9-10.5c2.8-1.6,5.6-3.2,8.7-3.9c1.6-0.3,3.2-0.3,4.7-0.8c4.9-1.5,7.6-7,12.3-9c1.5-0.6,3-0.8,4.6-1
	c5-0.7,10-1.4,14.9-2.1c3.5-0.5,7.2-1.1,10.2-3.1c3-2.1,4.9-5.5,7-8.5c1.5-2,3.1-4,4.9-5.7c1.3-1.2,3-2.4,4.6-1.9
	c0.6,0.2,1.2,0.7,1.8,0.9c4.1,1.3,5.8-7.9,9.8-6.5c1.7,0.6,2.3,2.8,3.8,3.7c1.6,1,3.7,0.2,5.2-0.8c1.5-1.1,3.5-1.5,4.6-3
	c3.6-4.9,9.1-9.4,8.9-15.5"/>
<path fill="none" stroke="#E1E1E1" stroke-miterlimit="10" d="M-10.5,182.1c2.4,0.2,4.7-0.8,7.1-1.3s5.3-0.2,6.6,1.9
	c0.9,1.4,0.7,3.2,1.1,4.9c0.4,1.6,2.1,3.3,3.6,2.5c0.4-0.2,0.6-0.5,0.9-0.8c2.1-1.9,5.4-1.6,8-0.5s4.9,2.8,7.7,3.5
	c3.8,1,7.8,0.1,11.6-1.2c1.7-0.6,3.5-1.3,5.4-1.3c2.6-0.1,5.2,1.2,7.7,0.7c2.4-0.5,4.3-2.3,6.4-3.5c4-2.3,9.1-2.5,12.2-5.9
	c1.2-1.4,1.9-3.1,2.8-4.7c2.6-4.7,6.9-8.2,9.7-12.8c1.1-1.9,2-3.9,3-5.8c3.1-6.2,7.1-11.9,12-16.8c0.9-0.9,1.9-1.8,3-2.6
	c1.1-0.7,2.2-1.2,3.4-1.7c3.5-1.5,6.7-5.4,10.4-4.4c1.8,0.5,3.4,0.5,5-0.5c3.8-2.4,6.9-5.9,8.8-10c3-6.5,3.1-14.3,7.7-19.8
	c1.3-1.6,3-3,3.5-4.9c0.3-1.1,0.1-2.3,0.6-3.3c0.4-0.9,1.3-1.5,2.2-2.1c8.5-5.8,17.2-11.5,25.9-17c5.7-3.6,11.5-7.1,17.3-10.7
	c3.6-2.2,7.3-4.4,10.9-6.7c2.6-1.6,5.1-3.1,7.9-4.4c9.9-4.5,21.2-4.3,31.7-7.3c9.6-2.8,18.3-8.2,27.9-11.1c3.3-1,6.7-1.1,10-2
	c1.7-0.5,3.2-1.4,4.8-2.3c8.4-4.7,17.6-7.8,26.8-10.9c2.6-0.9,5.9-1.6,7.8,0.3c0.9,0.9,1.3,2.3,2.2,3.3c1.2,1.5,3.3,2,5.1,1.9
	c1.9-0.1,3.7-0.9,5.4-1.7c3-1.5,6.1-3.5,7.1-6.7c0.9-3.2-0.5-6.5-0.2-9.8c0.2-2.1,2-4.5,4-3.9c0.7,0.3,1.3,0.9,2.1,1.1
	c1.3,0.3,2.3-0.9,3.4-1.6c2.1-1.5,4.7-1.9,7.2-2.5s5.2-1.7,6.3-4"/>
<path fill="none" stroke="#E1E1E1" stroke-miterlimit="10" d="M-11.2,221c2-3.5,4-6.9,6-10.4c0.3-0.5,0.7-1.1,1.3-1.3
	c1.6-0.5,2.8,2.1,4.5,1.8c0.6-0.1,1-0.5,1.6-0.6c1-0.1,1.8,0.9,2.2,1.8c1.8,4,1.4,8.7,0.2,13s-2.9,8.4-3.6,12.7
	c-0.5,2.7-0.7,5.8-2.8,7.6c-0.7,0.6-1.5,1-2.1,1.5c-1.7,1.6-1.8,4.2-2.6,6.3c-0.8,1.9-2.2,3.6-4.1,4.6"/>
<path fill="none" stroke="#E1E1E1" stroke-miterlimit="10" d="M-12.2,266.8c1.4-1.2,2.7-2.4,4.1-3.6c0.9-0.8,2-1.6,3.1-1.1
	c1.2,3.3,1,7.1-0.7,10.2c-1,1.8-2.4,3.4-3.5,5.2s-1.9,4-1.3,6"/>
<path fill="none" stroke="#E1E1E1" stroke-miterlimit="10" d="M-7.9,330.1c-1.5-2.7,0.3-6,2.7-8s5.2-3.4,6.9-6
	c2.2-3.5,1.4-8,0.4-12.1c-1.4-6.3-2.8-12.7-4.3-19c-0.5-2.2-1-4.5-0.7-6.8c0.5-3.7,3-6.7,5.1-9.7c3.7-5.3,6.4-11.4,6.7-17.8
	c0-0.6,0-1.2-0.3-1.6c-0.4-0.6-1.2-0.7-1.9-1c-2.9-1.3-2.7-5.4-2.1-8.5c1.8-8.5,3.6-17,5.4-25.5c0.3-1.5,0.8-3.2,2.1-4.1
	c1-0.6,2.2-0.7,3.3-1c3.3-1,5-4.6,7.8-6.7c3.5-2.5,8.1-2.4,12.4-2.2c0.6,0,1.3,0.1,1.7,0.5c0.5,0.4,0.6,1.2,0.8,1.8
	c0.8,3.1,3.9,5.4,7.1,5.2c1.8-0.1,3.5-0.8,5.1-1.6c5.3-2.4,10.7-4.9,14.9-8.9c1.9-1.9,3.5-4,5.1-6.1c6.5-8.7,12.9-17.5,19.4-26.2
	c5.2-7.1,10.2-16.9,18.4-20.2c5-2,10.5-2.6,15.2-5.3c4.3-2.5,7.6-6.8,8.8-11.7c1.3-5.1,0.4-10.5,1.3-15.6
	c1.1-6.2,4.9-11.8,10.2-15.1c0.9-0.6,1.9-1.1,2.5-2c0.5-0.7,0.7-1.6,1-2.4c2.1-6.6,9-10.2,15.2-13.1c10.1-4.8,20.3-9.6,30.4-14.3
	c2.9-1.3,3.4-3,6.4-2c1.3,0.5,1.9,2.3,3.3,2.5c1.4,0.2,9.7-1.3,11-1.8c11.9-5.2,11.2-5,21-11.2c3.2-2,9.5-2.3,12.2-3
	c1.7-0.4,2.8-1.1,4.3-2.2c3.3-2.5,7.4-3.9,11.6-4.1c1.7-0.1,3.5,0.1,5.1-0.5c1.2-0.4,2.2-1.1,3.2-1.8c8.6-5.7,18.9-8.4,28.9-10.9
	c1.6-0.4,3.4-0.8,4.8,0.1c2.4,1.5,1.9,5.7,4.3,7.3c2,1.3,4.5,0.1,6.6-1c2.1-1.1,4.3-2.1,6.7-2.1c1.5,0,3,0.3,4.5,0.2
	c4.2-0.3,7.4-4,9.8-7.5s4.8-7.5,8.8-8.9c0.7-0.3,1.5-0.4,2.2-0.8c0.9-0.5,1.6-1.4,2.3-2.3c6.7-8.1,18.1-11.4,24.2-20"/>
<path fill="none" stroke="#E1E1E1" stroke-miterlimit="10" d="M-12.3,349.1c2.3-1.1,4.7-2.2,7-3.3c2.5-1.2,5.2-2.5,6.2-5.1
	c0.8-2,0.3-4.3,0.2-6.4c-0.1-2.2,0.3-4.7,2.1-5.8c1.3-0.8,3.2-0.8,3.9-2.1c0.4-0.7,0.3-1.5,0.5-2.2c0.6-2.1,3.2-2.9,5-4.2
	c4.5-3,5-9.3,5-14.7c-0.1-9.7,5.7-23.5-2.3-29.1c-2.7-1.9-6.5-3.1-5.4-6.2c0.6-1.8,2.2-3,3-4.7c0.7-1.4,0.8-3,1.2-4.5
	c1-3.6,3.9-6.3,6.1-9.3c3.4-4.5,5.3-10,7.8-15c2.5-5.1,6-10,11.1-12.4c2.5-1.2,5.6-1.8,7-4.2c0.7-1.1,0.9-2.4,1.5-3.5
	c1.5-2.7,4.9-3.7,7.9-4.5c8.5-2.2,17.1-5.5,23.6-11.5c2-1.9,3.1-5.5,4.4-7.9c5.3-10.2,10.6-20.4,16-30.6c0.4-0.7,0.8-1.5,1.3-2.1
	c1.8-2.2,4.7-3,7.5-3.8c5.7-1.6,11.1-4,16.2-7c7-4.1,13.6-9.8,16.6-17.4c3.1-8,1.7-17.1,3.7-25.5c3.7-15.4,18.5-26.1,33.9-29.6
	c3.6-0.8,7.4-1.3,10.8,0.2c0.7,0.3,1.5,0.7,2.3,0.8c0.6,0,1.2-0.2,1.7-0.3c4.9-1.6,9.9-6.8,14.6-4.7c2.1,1,3.6,3.3,5.8,2.4
	c3.2-1.3,6.8-1.2,9.9-2.8c11-5.6,20.7-14.1,32.7-17c5.5-1.3,11.5-1.5,15.9-4.9c3.2-2.5,5.3-6.5,8.9-8.3c3.4-1.8,7.6-1.3,11.1-2.8
	c2.1-0.9,4.9-2.2,6.2-0.3c1.7,2.5-2.8,5.2-2.6,8.2c0.1,1.5,1.5,2.7,3,3.1s3,0.1,4.5-0.2c6.2-1.1,12.5-2.2,18.7-3.3
	c5.1-0.9,10.4-1.9,14.8-4.6c2.6-1.6,4.8-3.8,7-5.9c5.1-4.9,10.2-9.8,15.4-14.6c1.2-1.1,2.3-2.2,3.6-3c3.5-2.3,8.2-3.4,10-7.1"/>
<path fill="none" stroke="#E1E1E1" stroke-miterlimit="10" d="M372.8,23.2c-3,0.9-4.7,4-6.5,6.5c-4.8,6.6-12.6,10.5-17.4,17.1
	c-1.5,2.1-2.7,4.4-4.8,5.8c-3.9,2.8-9.4,1.6-13.8,3.3c-1.6,0.6-3,1.5-4.5,2.2c-3,1.3-6.4,1.7-9.6,1.1c-0.9-0.2-1.9-0.5-2.8-0.3
	c-1,0.1-1.9,0.7-2.8,1.3c-3.4,2.1-6.9,4-10.6,5.6c-0.6,0.3-1.3,0.5-1.9,0.4c-0.5-0.1-0.9-0.4-1.3-0.7c-4.9-3.6-5.5-9.9-5.2-16
	c0.1-1.8-3-1.9-4.5-1s-2.5,2.5-3.7,3.8c-0.9,0.9-2,1.7-3,2.4c-4.8,3.2-9.5,6.5-14.3,9.7c-3,2.1-8.6,7.4-10,4
	c-0.7-1.8-0.8-3.8-2.7-3.5c-1.9,0.3-3.3,2-4.6,3.4c-3.1,3.2-7.2,5.5-11.6,6.4c-10.2,2.1-20.1,9.8-30.5,9.6c-4.4-0.1-9-0.8-13.2,0.7
	c-2.9,1-6.4,2.8-8.5,0.7c-0.9-0.9-1.2-2.4-2.1-3.3c-2.2-2.1-5.7-0.2-8.4,1.1c-4.9,2.4-11.3,2.6-14.6,7c-1,1.3-1.6,3-2.2,4.6
	c-1.1,3.1-2.2,6.2-3.1,9.3c-2.2,7.1-4.1,14.8-1.8,21.9c0.7,2.1,1.7,4.7,0.3,6.4c-0.7,0.8-1.8,1.2-2.7,1.9c-1,0.7-1.7,1.7-2.3,2.7
	c-5.9,8.9-11.8,19.3-22.1,22.1c-4.8,1.3-10.1,0.8-14.3,3.5c-3.8,2.4-5.7,6.8-6.7,11.2c-1,4.3-1.4,8.9-3,13
	c-2.3,5.9-7,10.5-11.5,14.9c-1.8,1.8-3.8,3.6-6.2,4.4c-9.2,2.9-20.2,7.5-25.9,15.3c-5.2,7-4.1,11.3-6.5,19.7c-0.4,1.6-0.1,6.8-1.7,7
	c-2.7,0.3-3.7-4.4-3.5-5.5c0.8-4.2,3.1-5.6,1.6-9.6c-0.6-1.4-3.1-0.3-4.2,0.9c-1,1.2-1.5,2.7-2,4.2c-1.7,4.5-4.4,11.7-9.2,10.9
	c-1.8-0.3-3.4-2.8-4.6-1.4c-0.5,0.6-0.5,1.4-0.7,2.2c-0.5,2-2.3,3.4-4,4.7c-1.7,1.2-3.5,2.6-4,4.7c-0.5,2,1.2,4.6,3.2,4.1
	c1.8-0.5,2.7-4.6,4.3-3.5c2.8,2-0.1,6.9,1.4,10c0.6,1.2,1.4,2.2,1.7,3.5c0.3,1.2,0,2.5-0.2,3.7c-1.5,9.7-0.7,19.7,2.4,29
	c0.3,0.9,0.6,1.8,0.5,2.7c-0.2,1.7-1.6,2.9-2.6,4.3c-3.2,4.4-2.1,10.5-3.5,15.7c-1.6,5.8-6.1,10.3-10.5,14.5c-4,3.8-8,7.7-12,11.5
	c-1,0.9-2,1.9-2.5,3.1c-0.6,1.3-0.7,2.8-0.7,4.3c-0.3,8.2-1.4,16.3-3.2,24.3"/>
<path fill="none" stroke="#E1E1E1" stroke-miterlimit="10" d="M11.4,386.1c1.7-2.6,3-5.5,3.9-8.5c2.3-7.7,1.9-16.6,6.8-23
	c1.3-1.8,3-3.2,4.9-4.3c1.1-0.6,2.3-1.2,3.4-1.9c4.2-2.7,6.3-7.8,9.9-11.3c2.6-2.4,6.2-4.4,6.6-8c0.2-1.7-0.5-3.4-1.2-5.1
	c-1-2.5-1.7-5.1-2.3-7.7c-0.5-2.3-0.8-4.9,0.7-6.7c0.5-0.6,1.1-1.1,1.2-1.8c0.1-0.6-0.4-1.2-0.6-1.8c-1-2.1-0.1-4.6,0.8-6.7
	c1.7-4.1,1-10.9,5.2-12.2c3-1,6.7,0.1,7.5-2.9c0.4-1.4,0.4-3.2,1.6-4c0.9-0.5,2-0.3,3-0.4c2.7-0.2,4.6-3,5.3-5.6
	c0.7-2.7,0.5-5.5,1.1-8.2c0.6-2.4,1.8-4.6,2.7-6.9c1.4-3.5,2.2-7.2,2.3-10.9c0.2-6.3,0.4-13.2-0.6-19.3c-0.2-1.4-0.5-2.9-0.5-4.4
	c0.2-3.2,2.2-6.1,4.7-8.2c2.5-2,5.5-3.4,8.4-4.8c8.1-4.1,15.5-9.3,22.9-14.5c2.4-1.7,4.8-3.5,6-6.1c1.3-3,0.7-6.4,1.7-9.5
	c0.6-1.9,1.8-3.5,2.5-5.3c1-2.6,0.9-5.6,1.6-8.3c0.7-2.7,2.7-5.5,5.5-5.6c1.5,0,2.9,0.7,4.4,0.9c4.1,0.5,7.4-3.1,10-6.3
	c2.7-3.4,5.4-6.9,8.1-10.3c0.8-1,1.7-2.1,2-3.4c0.2-0.7,0.3-1.4,0.7-1.9c0.5-0.7,1.3-0.9,2.1-1.1c2.4-0.7,4.7-1.5,7-2.3
	c2.6-0.9,5.8-3.2,4.6-5.7c-0.4-0.8-1.1-1.3-1.7-1.9c-3.7-3.9-2.5-10.1-1.1-15.2c0.3-1.1,0.6-2.3,1-3.4c1.2-4.4,2.5-8.8,4.9-12.7
	c1.7-2.7,1.7-9.3,5-9.3c1.6,0,0.7,3.5,2,4.3c15.7,10.2,37.5-1.7,55.9-5.6c3.9-0.8,7.9-1.8,11.8-2.7c2-0.5,4-1,6-1.6
	c5-1.7,9.4-4.7,13.7-7.6c6.6-4.4,12.5-16.4,19.9-13.3c5.6,2.4,5.5,10.4,8.8,15.5c1.8,2.7-2,8.1,1.2,8.9c0.7,0.2,1.4-0.1,2-0.3
	c14-4.6,27.2-11.2,40.3-17.8c5.5-2.8,11.1-5.5,16.6-8.3c1.6-0.8,3.2-1.6,4.3-3c0.9-1.2,1.4-2.7,1.9-4.1c1.7-5.3,6.3-14.7,10.6-11.3
	c9.1,7.3-6.1,22.4-4.4,34c1.4,9.9-1.9,20.3,4.8,27.8c2.4,2.7,7.6-5.8,10.3-3.4c4.3,3.9-4.6,10.9-9.4,14.3c-2.8,2-6.4,3.7-7.6,7
	c-0.7,1.8-0.4,3.8-0.2,5.8c0.8,6.8,1.6,13.6,2.5,20.3c0.1,1.1,0.3,2.2,0,3.3c-0.4,1.3-1.3,2.4-2.1,3.5c-2,3.1-2.4,6.9-2.8,10.6
	c-2.1,21.2,9.8,49.7-6.4,63.5c-2.9,2.5-7.7,2-9.4,5.4c-0.6,1.2-1,2.5-1.3,3.9c-4.1,16.8-0.4,35.4,10.3,49c1.8,2.3,0,5.6,0.6,8.4
	c0.1,0.8,0.3,1.6,0.1,2.3c-0.5,1.8-2.5,2.6-3.8,3.9c-1.7,1.7-2,4.3-2.3,6.7c-1.1,9.6-3.3,19-6.4,28.1c-0.5,1.3-0.9,2.7-1,4
	c-0.1,1.2,0.1,2.3-0.2,3.4c-0.3,0.8-0.8,1.5-1.4,2.2c-1.8,2.2-3.6,4.4-5.4,6.7c-0.7,0.8-1.9,2-2.7,1.3c-3.7-3.5-5.9-8.4-9.7-11.8
	c-0.7-0.6-1.4-1.2-1.8-2.1c-0.4-0.7-0.4-1.5-0.6-2.3c-0.4-1.7-1.3-4.8-3-4.3c-3.3,1-2.7,6.4-4.1,9.6c-0.6,1.3-1.1,2.7-1.3,4.1
	c-0.2,1.5,0,3-0.2,4.5c-0.1,1.4-0.5,2.8-0.9,4.2c-2.6,10.2-1.8,21.1-5.7,30.8"/>
<path fill="none" stroke="#E1E1E1" stroke-miterlimit="10" d="M370.6,156.3c-1.5,10.7-2.9,21.3-4.2,32c-0.9,7.3-1.7,14.7-2.6,22.1
	c-1.2,10.4-2.4,20.8-3.6,31.2c-0.7,5.7-1.3,11.5-1.3,17.2c0,6.6,1,13.1,1.5,19.6c1.5,17.3,0.5,34.8-3.1,51.7
	c-0.2,1.2-0.5,2.3-1.1,3.3c-0.6,1.1-1.7,2-2.5,2.9c-5.9,6.3-6.3,15.9-6.6,24.6c-0.3,8.7-1.4,18.4-8.1,23.9"/>
<path fill="none" stroke="#E1E1E1" stroke-miterlimit="10" d="M334.4,332.4c0.1,0.6,0.3,1.3,0.9,1.6c1,0.6,2.4,0,3-1
	c0.6-1,0.5-2.3,0.5-3.4c0-0.2,0-0.4-0.1-0.5c-0.1-0.1-0.3-0.2-0.4-0.2C336.2,328.6,334.2,330.4,334.4,332.4z"/>
<path fill="none" stroke="#E1E1E1" stroke-miterlimit="10" d="M342.4,298.2c0.3-1,0.6-2,0.5-3c0-1-0.5-2.1-1.4-2.6
	c-0.1-0.1-0.8,0-1,0.2c-1.3,1.2-2.4,0.9-3.2,2.4c-0.8,1.5-2.3,1.5-2.4,1.8c-1.2,2.2-2.5,4.5-2.9,7.1c-0.3,1.9,0,4,1.2,5.5
	s3.7,2,5.2,0.8c1-0.8,2.1-1.3,3.1-2.2C344,305.9,341.6,301.5,342.4,298.2z"/>
<path fill="none" stroke="#E1E1E1" stroke-miterlimit="10" d="M326.8,295c-0.4-0.8-1-1.5-1.3-2.4c-0.2-0.7-0.7-1.8-1.2-1.4
	c-2.6,2-4.2,6.8-2.1,9.2c1,1.1,3.1-0.1,4-1.3C327.2,298.1,327.4,296.4,326.8,295z"/>
<path fill="none" stroke="#E1E1E1" stroke-miterlimit="10" d="M132.3,171.7c-0.2,1.1-1.6,1-2.5,1.7c-1.2,1-0.3,3.6,0.9,4.7
	c0.9,0.8,1.8,1.6,1.9,2.8c0.2,1.2,0,2.4,0.3,3.6c0.3,1.2,1.1,2.3,2.3,2.4c1.4,0.1,2.4-1.4,3-2.7c0.4-0.9,0.9-1.7,1.3-2.6
	c0.1-0.2,0.2-0.5,0.4-0.7c0.6-0.5,1.6-0.2,2.4-0.3c1.7-0.1,2.7-2,2.8-3.6c0.1-1.9-0.6-3.8-1.9-5.1c-0.8-0.8-1.8-1.4-2.6-2.3
	c-0.4-0.4-0.7-0.8-1.1-1.1c-1.2-0.9-3-0.6-4.4-0.1c-1.1,0.3-2.4,0.8-2.7,1.9C132.3,170.6,132.4,171.2,132.3,171.7z"/>
<path fill="none" stroke="#E1E1E1" stroke-miterlimit="10" d="M28,382.1c-0.5,0.4-1,1.8-0.4,1.7c4.9-0.6,1.5-9.8,2.2-14.6
	c0.8-5,1.8-10.5,5.7-13.7c1.5-1.2,3.4-2.1,4.6-3.6c0.6-0.8,1.1-1.7,2-2c0.5-0.1,1.1,0,1.6-0.2c0.6-0.2,1.1-0.6,1.5-1.1
	c3.7-4.2,5.3-10.6,10.5-12.7c0.5-0.2,1.1-0.4,1.5-0.8c0.4-0.5,0.4-1.2,0.4-1.8c0-3.2,0-6.5,0-9.7c0-1.3,0-2.7,0.5-4
	c0.5-1.1,1.3-2,1.7-3.1c1.1-3.1-1.2-6.2-2.5-9.2c-1.5-3.5-2.4-8.3,0.1-11.2c1.5-1.8,4.6-0.5,6.9,0.2c1,0.4,2.1,0.7,3.1,1.1
	c1.6,0.6,3.3,2.3,4.9,1.7c3.1-1.2-0.1-7.3,2.5-9.5c0.6-0.5,1.5-0.9,1.9-1.5c0.4-0.6,0.5-1.3,0.6-2c1.1-4.7,6.7-8.1,6-12.8
	c-1.2-8,0.7-16.5,1-24.6c0.1-2.3,0.2-4.6,0-6.8c-0.4-6.9-2.9-14.1-0.4-20.5l0.7-2.3c0.5-4.7,8.7-4.3,11.5-7.2
	c4.4-4.7,7.1,4,12.4,2.7c3.9-0.9,5.4-6.1,9.1-5c4.4,1.4,4.7,6.8,6.3,9.5c0.7,1.2,2,1.2,3,1c4.4-1,8,0,12-1s6.9-4.2,10-6
	c1.9-1.1,3.1-1.9,4-4c1.2-2.9,3.2-5.9,5-9c1.1-1.9,3-3,5-4s4.9-2.3,7-3c4.8-1.7,9,2.3,14,2c8-0.5,16.5,0.7,24-2
	c13.4-4.8,17.9-21.4,26-35c1.1-1.9,2-3,1-5c-2-4-3.2-8.7-7-12c-1.1-0.9-3.1-1.4-4-1c-0.4,0.2-0.6,1.2-0.9,1.4c-2.5,1,3.3-0.7,0,0
	c-4.5,0.9-5.9-5.5-7.1-10.4c-3.6-15.2-16.6-14.3-21-24c-0.2-0.5-0.2-1.6,0-2c5-10.2,20.7-8.5,32-10c2-0.3,4.2,0.2,6,1
	c1.3,0.5,1.7,2.5,3,3c1.8,0.8,3.2,0.9,5,0c7-3.5,15.4-8.2,22.8-10.2c5.1-1.3,10.1-10.4,11.8-5.5c1.4,3.9,2,8.6,2.5,12.8
	c0.5,3.8-4.8,6.1-3.1,9.3c1.3,2.6,7.4-2.1,8.6,0.5c1.5,3.1-6.9,5.1-5.9,8.4c1.3,4.4,7.3,0.7,11.3,0.7c2,0,2.9,3.1,4,4
	c7.6,6.6,16.2-2.9,20-10c1.1-2,2-4,2-6c0-1-1.1-3-1-4c0.5-6.1,5.9-10.1,11-12c8.9-3.3,16.7-8.6,25-12c5.8-2.4,4,8.8,8,10
	c3,0.9,5.4,2.7,6,4.8c1,3.4-0.2-1,0,0c1.2,7.1-5.8,12.3-8,19.2c-0.9,3-5,3-6,6s-1.8,6.1-1.1,8.7c2.4,8.8,1.7,18.3-1,27.1
	c-2.7,8.7-9.6,20.2-3.2,26.8c1.7,1.8,4.4-3.5,6.6-2.4c1.1,0.5,1.2,2,1.2,3.2c0,4.4,0,8.8,0,13.2c0,3.5-1.7,6.6-5.1,7.5
	c-7.8,2.2-9.4,13.5-10.7,21.5c-0.4,2.5-0.5,5-1.4,7.4c-0.8,2.3-2.2,4.4-3.4,6.6c-4.6,8.7-4.7,19-5.6,29c-0.7,8.3-1.8,16.4-6.3,23.2
	c-1.3,2-3,3.9-5.2,4.9c-2.2,0.9-5.1,0.7-6.6-1.1c-0.3-0.4-0.6-0.8-1-1c-1.1-0.5-2.2,0.5-3,1.4c-4.9,6.1-9.7,13-10.2,20.8
	c-0.5,7.2,2.7,14.5,1.1,21.5c-0.6,2.5-1.7,4.8-2.2,7.3c-0.4,2.3-0.2,4.7-0.1,7c0.8,12.5,0.4,25.2-1.3,37.6"/>
<path fill="none" stroke="#E1E1E1" stroke-miterlimit="10" d="M35.2,381.9c-1.3-2.1-0.1-4.9,1.3-6.9c5.7-8.3,16.8-9.1,25.5-14.2
	c2.9-1.7-0.8-7.4,1.7-9.6c1.5-1.4,3.4-1.9,3.4-3.9c0-2-0.5-4.2,0.8-5.8c1-1.3,3-1.6,3.9-3c0.7-1,0.7-2.2,0.9-3.3
	c0.3-2,1.2-4,2.5-5.6c1.4-1.7,3.2-3,5.1-4.2c4.5-2.8,9.5-5,14.7-6.4c6-1.6,12.5-2.4,17.1-6.5c0.6-0.5,1.1-1,1.3-1.7
	c0.7-2.1-1.4-4.1-3.3-5.3c-2.3-1.5-4.5-3-6.8-4.6c-0.4-0.3-0.9-0.6-1.4-0.6c-1.6-0.1-2.1,2-3,3.3c-1.9,2.6-6.4,1.5-8-1.2
	c-1.6-2.8-1.1-6.3-0.3-9.4c0.9-3.1,2.1-6.3,1.7-9.5c-0.6-4.6-4.2-9.5-1.5-13.2c0.7-1,1.8-1.7,2.4-2.7c1.7-2.9-0.8-6.4-0.9-9.7
	c0-2.5,1.4-4.8,2.8-6.8c1.3-1.9,2.6-3.8,4.4-5.2c3.5-2.8,8.2-3.4,12.7-3.9c9.9-1.1,19.9-2.3,29.1-6c9.2-3.7,17.7-10.2,21.9-19.2
	c1.7-3.7,3.8-8,7.3-10.1c1.7-1,3.6-1.7,5.4-2.4c3.2-1.2,6.5-2.3,9.9-2.2c3.4,0.1,6.9,1.7,8.5,4.7c0.4,0.7,0.7,1.6,1.4,2
	c1.3,0.8,2.8-0.3,4.3-0.6c4.9-1.1,9.6,9.6,13.2,6.1c1.3-1.3,1.3-3.5,3-4.4c2-1.1,5.1-1.5,5.2-3.8c0.1-2.4-3.7-4.4-2.4-6.4
	c0.3-0.5,1-0.8,1.6-1.1c4.2-2.1,5.6-8.6,10.3-9.4c2.4-0.4,0.4,5.8,2.8,6.4c0.4,0.1,0.8,0,1.2-0.1c2.6-0.8,3.4-4,4-6.7
	c0.7-3.1,1.7-6.1,2.7-9.1c0.4-1.1,0.8-2.3,1.6-3.2c0.8-0.9,2.4-1.6,3.3-0.7c4.5,4.8,0.9,13.7-4.5,17.4c-0.9,0.6-1.9,1.1-2.6,2
	c-1.6,1.9-1,4.9,0.2,7.1c0.3,0.6,0.7,1.2,0.7,1.9c0,0.5-0.2,1.1-0.4,1.6c-1.1,2.2-3,4-5.3,5c-0.7,0.3-1.5,0.5-2.1,1
	c-1.5,1.2-1.6,3.6-0.7,5.3s2.3,3.1,3.4,4.7c0.7,1,1.4,2.2,2.4,2.9c1.1,0.7,2.8,0.6,3.3-0.5c0.2-0.5,0.2-1.1,0.2-1.6
	c0.2-3.9,4.8-6.9,8.5-5.6c5.4,1.9,6,9.8,10.5,13.3c3.9,3.1,9.4,0.6,14.3,1.1c3.7,0.4,6.4,3.6,10.1,3.7c3.7,0.1,7.8-1.6,9.3-5
	c0.5-1,0.7-2.2,0.9-3.3c0.5-2.5,2-5,1.4-7.4c-0.4-1.6-3.3-0.6-4.7-1.5c-1.6-1.2-0.9-3.6-0.6-5.5c0.5-3.1,0.6-7.4-2.2-8.8
	c-1.2-0.6-2.2,1.5-2.5,2.9c-0.3,1.3-0.4,2.9-1.4,3.8c-0.7,0.6-1.6,0.8-2.4,1c-2.7,0.6-5.5,2.7-8,1.7c-3.6-1.4-3.3-7.2-3-11.1
	c0.3-4.1,2.1-8.1,1.5-12.2c-0.4-2.9-2-5.4-3.2-8.1s-2-5.7-0.9-8.4c1.9-4.5,2-9.1,3.7-13.7c2.9-7.8,8-15.1,15.2-19.3
	c4-2.3,8.5-3.7,12.9-5.3c11.1-4.3,21.3-10.9,29.7-19.4c0.7-0.7,1.4-1.5,1.7-2.4c0.5-1.7-0.4-3.6-0.2-5.4c0.3-1.8,1.8-1.2,3.6-1
	c2.7,0.3,5.7-6.6,6.3-3.9c1.1,4.8-4.7,8.4-5.1,13.3c-1.1,13.6-2.1,27.2-3.2,40.8c-0.5,6.6-1,13.2-1.7,19.7
	c-1.1,10.9-3.3,22.8-11.8,29.6c-1.7,1.3-3.7,2.7-3.8,4.9c0,1.2,0.6,2.2,1.1,3.3c2.3,5.1,1.3,10.9,0.3,16.4
	c-1.8,9.7-4,20.2-11.5,26.5c-3.5,2.9-8,4.9-10.2,8.9c-0.8,1.5-1.2,3.3-2.4,4.7c-1.7,1.9-4.5,2.3-6.7,3.7c-2.7,1.7-4.1,4.8-5.4,7.7
	c-6.1,13.9-12.1,27.9-17.8,42c-1.4,3.3-2.7,7.3-0.7,10.3c1.4,2.1,3.9,3,5.9,4.4c6.7,4.5,8.4,13.5,9.5,21.5c1,7.7,2.1,15.5,3.1,23.2"
	/>
<path fill="none" stroke="#E1E1E1" stroke-miterlimit="10" d="M300.5,173.5c3.7-1.5,7.8-3.1,11.5-1.6c2.2,0.9,5.2,4.3,6.4,2.3
	c3.3-5.4,2.2-12.3,1.9-18.6c-0.1-1.5-0.4-3.1,0.3-4.5c0.5-1,1.4-1.7,1.6-2.7c0.2-1.1-0.4-2.2-0.8-3.3c-0.7-1.7-0.9-3.6-0.7-5.4
	c0.2-1.1,0.5-2.1,0.3-3.2c-0.1-1.1-0.9-2.2-2-2.2c-0.5,0-1,0.2-1.4,0.5c-10.2,5.2-21.8,8.1-30.9,15.1c-2.6,2-4.9,4.4-6.1,7.4
	c-0.5,1.4-0.8,2.9-1.6,4.2c-0.7,1.1-1.7,1.9-2.1,3.1c-0.2,0.8-0.2,1.7-0.1,2.5c0.5,4.2,1.6,8.4,3,12.4c0.6,1.7,1.9,3.8,3.7,3.4
	c0.8-0.2,1.4-0.7,2-1.2C289.9,178,295.2,175.7,300.5,173.5z"/>
<path fill="none" stroke="#E1E1E1" stroke-miterlimit="10" d="M253.1,104.9c1,1.1,0.8,2.9,0.6,4.4c-0.3,1.5-0.8,2.9-1,4.4
	c-0.1,0.7-0.2,1.5-0.3,2.2c-0.3,1.4-1.1,2.7-1.2,4.1c-0.1,1.2,0.3,2.3,0.6,3.5c0.3,1.2,0.3,2.5-0.4,3.4c-0.4,0.6-1.1,0.9-1.7,1.3
	c-0.8,0.5-1.5,1.5-2.5,1.4c-2.2-0.3-1.2-4.1-1.7-6.2c-0.4-1.8-1.5-3.7-0.6-5.4c0.6-1.2,2.1-2,1.9-3.3c-0.1-0.4-0.3-0.7-0.4-1.1
	c-0.3-0.9-0.1-1.9,0.2-2.8c0.5-1.8,1.3-3.9,3.1-4.2c0.5-0.1,1.1,0,1.7,0c0.5-0.1,1.1-0.3,1.3-0.9
	C252.6,105.3,252.8,104.6,253.1,104.9z"/>
<path fill="none" stroke="#E1E1E1" stroke-miterlimit="10" d="M60.8,379.6c1.1-2.1,2.8-3.9,4.8-5.2c2.4-1.5,3.6-3.7,5.1-6.1
	c0.6-1,2.7,0.1,3.5-0.8c3.5-3.9,1.1-10.5,1.7-15.8c0.4-3.6,0.8-7.2,2.4-10.5c1.8-3.7,5.2-6.6,9.1-7.9c1.1-0.4,2.2-0.6,3.2-1.1
	c1.2-0.6,2.1-1.4,3.2-2.1c2.4-1.5,6,0.7,8.2-1c1.3-1,2.1-2.3,3.7-2.4c5.4-0.4,10.8-0.9,16.1-1.3c2.4-0.2,5.1-0.6,6.6-2.5
	c1.7-2.3,0.8-5.5,0.6-8.3c-0.3-3.8,0.9-7.6,0.1-11.3c-0.8-3.9-3.5-7.2-6.7-9.5c-3.2-2.4-6.8-4.1-10.3-6.1c-2-1.2-4-2.6-5.9-4
	c-2.8-2.2-5.5-4.9-6.5-8.3c-0.5-1.8-0.5-3.6-0.5-5.4c0.1-4.6,0.7-9.5,3.7-13.1c3.3-3.9,8.6-5.3,13.6-6.5c2.4-0.6,4.7-1.1,7.1-1.7
	c1.3-0.3,2.7-0.6,3.8,0.1c0.6,0.4,1,1,1.7,1.3c1.1,0.6,2.5,0,3.7-0.4c2.2-0.9,4.5-1.6,6.8-2.1c2.1-0.5,4.3-0.8,6.3-1.7
	c1.4-0.6,2.7-1.5,3.9-2.4c4.8-3.4,9.5-6.8,14.3-10.1c2.5-1.8,1.6-6.2,4.1-8c0.7-0.5,1.5-0.8,2.3-1.2c2.9-1.7,3.6-5.4,4.8-8.5
	c1.2-3.1,4.3-6.3,7.4-5.1c3.6,1.4,3.2,7,6.2,9.4c2.1,1.7,5,1.3,7.7,1.2s5.8,0.6,6.7,3.1c0.3,1,0.3,2.2,1.1,2.8
	c0.8,0.7,2.1,0.4,3.1,0c2.6-0.9,5.1-3.4,7.9-2.8c5.1,1.1,0.2,11.1,4,14.7c0.7,0.6,1.5,1.1,2.1,1.7c0.9,0.9,1.2,2.3,2,3.3
	c2.6,3.3,7.7,1.7,11.5-0.1c2.1-1,4.7-1.4,6.3-3.1c0.8-0.8,0.4-2.5,1.4-3c3.1-1.8,6.2,3.3,8,6.4c1.8,3.1,3,6.5,5.5,9.1
	c3.5,3.6,9,5.1,11.7,9.3c1.9,2.9,2,6.7,1.1,10.1c-0.9,3.4-2.7,6.4-4.5,9.4c-3.2,5.3-6.3,10.6-9.5,15.9c-0.7,1.2-1.4,2.4-2.4,3.3
	c-1.1,1-2.5,1.6-3.5,2.6c-4,3.9-1.8,12-6.5,14.9c-1.1,0.7-2.5,1-3.7,1.6c-3.3,1.6-4.7,5.5-5.8,9c-2.5,8.3-0.3,24.9,0.1,25.2
	c2.9,2.1,8.5,0,11.5,4c0.5,0.7,3.5,0.5,3.9,0.3c2.9-1.1,3.6,1.7,4.8,4.5c0.9,2,3.9,0.5,6.1,0.3c2.1-0.2,4.1,1.2,5.5,2.9
	c3.4,4.2,4.2,9.8,4.9,15.2c0.1,0.5,0.1,0.9,0.1,1.4"/>
<path fill="none" stroke="#E1E1E1" stroke-miterlimit="10" d="M133.5,381.6c0.9-2.9,1.9-5.9,2.8-8.8c0.2-0.7,0.5-1.4,0.7-2.1
	c0.8-2.4,1.6-4.8,3-6.8c3.2-4.5,9-6.3,14.4-7.8c0.8-0.2,1.7-0.4,2.5-0.2c0.9,0.4,1.7,1.4,2.7,1.2c0.4-0.1,0.7-0.3,1-0.4
	c1.2-0.4,2.2,1,2.6,2.1s1,2.6,2.2,2.7c0.8,0.1,1.5-0.4,2.1-0.9c2.9-2.2,5.2-7.5,8.7-6.6c2.2,0.6,4.2,1.4,6.1,2.7
	c1.7,1.1,2,3.3,2.2,5.3c0.5,4.9,1.7,10.2,5.3,13.6c2.9,2.7,7.2,3.8,11,2.8c3.1-0.8,5.7-2.7,8.6-4c3.4-1.5,7.6-3.4,10.9-1.6
	c1.9,1,2.6,3.4,3.9,5.1c0.3,0.4,0.6,0.8,0.7,1.2c0.2,0.6,0,1.3-0.2,1.9c-0.4,1.5-0.8,2.9-1.2,4.4"/>
<path fill="none" stroke="#E1E1E1" stroke-miterlimit="10" d="M200.3,357.4c-0.6-0.1-1.2-0.8-1.7-0.4c-0.9,0.9-0.7,2.4-1,3.6
	c-0.1,0.4-0.2,0.9-0.1,1.3c0.3,1,1.7,1.3,2.6,0.8s1.4-1.6,1.8-2.5c0.2-0.4,0.3-0.8,0.2-1.2c-0.1-0.2-0.3-0.4-0.5-0.6
	C200.5,357.5,201.8,357.8,200.3,357.4z"/>
<path fill="none" stroke="#E1E1E1" stroke-miterlimit="10" d="M93.6,373.4c-1-2.2-1.9-4.5-2.9-6.7c-0.2-0.5-0.4-1-0.8-1.3
	c-0.9-0.8-2.3-0.6-3.5-0.8c-2.5-0.4-4.2-2.9-4.6-5.4c-0.4-2.5,0.3-5,1-7.5c0.5-1.6,0.9-3.3,2.1-4.6c2.3-2.6,6.3-2.6,9.2-4.3
	c2.1-1.2,3.6-3.4,6-4.1c2.7-0.8,5.6,0.6,8,2c2.3,1.3,4.7,2.6,7,3.9c0.7,0.4,1.5,0.8,2.4,0.9c1.2,0.1,2.3-0.6,3.2-1.3
	c1.4-1.1,2.7-2.5,3.7-4.1c0.9-1.4,1.7-3,3.2-3.7c0.7-0.4,1.5-0.5,2.3-0.7c5.5-1.6,8.9-7.3,10.1-12.9c0.5-2.1,0.7-4.4,1.5-6.4
	c0.5-1.2,1.1-2.3,1.3-3.5c0.6-3.2-1.6-6.3-2.2-9.6c-0.2-1.4-0.2-2.8-0.1-4.2c0.2-4.1,0.4-8.3,1.3-12.3c0.6-2.6,3.4-4.7,2.9-7.3
	c-0.9-4.4-8.9,0.8-13.3-0.5c-2.4-0.7-4-2.8-5.6-4.7c-0.9-1.1-1.8-2.2-2.7-3.4c-0.5-0.7-1-1.3-1.5-2c-1-1.8-1.4-4.3,0.1-5.7
	c1.6-1.6,4.2-1,6.5-1c2.8,0,5.4-1.2,8-2.3c9.6-4.2,19.4-8.5,27.7-15c4.5-3.5,9.4-8.1,12.3-12.9c1.1-1.8,2-3.7,3.6-5
	c1.6-1.3,4-1.9,5.7-0.8c1,0.7,1.5,1.8,2,2.8c2.5,5.3-1.1,16.5,4.8,16.9c1.6,0.1,2.5-2.1,3.9-1.5c1.5,0.6,2.5,1.9,3.5,3.2
	c2.3,3,1.8,7.3,4.3,10.2c0.8,1,3-0.7,3.8,0.3c2.8,3.5,4.7,7.8,9.2,7.3s8.4-3.3,12.6-5s9.8-1.9,12.5,1.7c1.9,2.5,1.7,6,2.5,9.1
	c0.6,2.4,1.8,4.7,1.7,7.2c-0.2,3.6-3.3,6.3-5.7,9.1c-3.3,3.7-5.6,8.2-6.9,13c-0.5,1.9-0.8,3.9-1.6,5.7c-0.8,2-2.1,3.7-3.4,5.4
	c-3.1,4-6.1,8.1-9.2,12.1c-1.7,2.3-3.4,4.6-4.6,7.2c-2.5,5.4-2.4,11.6-3,17.5c-0.2,1.5-0.5,3.3-1.9,4c-1.8,1-4.1-0.8-4.6-2.7
	c-0.6-2,0-4.1,0.1-6.1c0.1-2,0-5.1-2-5.5c-3.4-0.6-6.2-2.6-9.6-2.6c-8.1,0-15,5.4-23.1,5.2c-1,0-2.2-0.1-2.9-0.8
	c-0.9-0.9-0.9-2.3-1.5-3.4c-1.4-2.5-5-1.9-7.7-1c-4,1.3-8.1,2.7-12.1,4c-1.8,0.6-3.6,1.2-5.3,2.1c-1.7,1-3.2,2.3-4.7,3.6
	c-4.9,4.4-9.9,8.8-13.7,14.2c-1.4,2.1-2.7,4.3-4.6,6c-3.3,3-8.1,4-11.8,6.5c-2.3,1.6-4.2,3.7-6.8,4.8
	C97.3,377.4,94.7,376,93.6,373.4z"/>
<path fill="none" stroke="#E1E1E1" stroke-miterlimit="10" d="M177.2,251c0.2-0.2,0.1-0.6,0-0.9c-0.2-0.6-0.3-1.1-0.5-1.7
	c-0.3-1-0.6-2.1-1.4-2.8c-0.7-0.6-1.9-0.8-2.7-0.3s-1.5,1.7-0.9,2.5c0.4,0.5,1.6,0.5,1.7,1.1c0.1,0.9-0.1,1.8,0.7,2.2
	c0.8,0.4,1.7,0.3,2.6,0.1C176.9,251.2,177.1,251.2,177.2,251z"/>
<path fill="none" stroke="#E1E1E1" stroke-miterlimit="10" d="M177.7,255.3c-1.5,1.4,0.4,4.1,1.3,6c0.3,0.7,0.5,1.6,1.2,2
	c0.3,0.2,0.6,0.2,0.9,0c1.2-0.6-0.7-2.5-0.3-3.9c0.2-0.5,0.9-0.8,0.8-1.4s-0.5-1-0.9-1.4C179.8,255.9,178.5,254.5,177.7,255.3z"/>
<path fill="none" stroke="#E1E1E1" stroke-miterlimit="10" d="M211,315.8c-0.1-0.9-0.5-2.1-1.4-2.2c-0.4-0.1-0.8,0.1-1.2,0
	c-0.6-0.2-0.9-0.9-1.1-1.5c-1-3.2,0-7.8-2.9-9.5c-2.4-1.5-6,2.9-8.4,1.5c-3.2-1.9-3-7.8-6.8-8.1c-1.1-0.1-2.2,0.2-3.3,0.3
	c-1.7,0.2-3.4,0-5.2-0.3c-2.5-0.3-4.9-0.6-7.2-1.6c-1.7-0.7-3.2-1.8-4.9-2.6c-3-1.2-6.6-1.1-9.5,0.3c-1.9,0.9-3.7,3.1-2.7,5
	c0.3,0.7,1,1.1,1.2,1.8c0.7,1.7-1.1,3.4-1.2,5.2c-0.1,0.9,0.3,1.8,0.3,2.6c0.2,2.6-1.9,5-2,7.6c-0.1,2.9,2.6,5.6,5.5,5.5
	c1.2-0.1,2.3-0.5,3.5-0.6c4.1-0.3,7.5,3.9,11.7,3.8c0.8,0,1.7-0.2,2.5,0c0.9,0.3,1.6,1,2.3,1.5c3.8,2.6,8.9,0.1,13.5,0.8
	c2.5,0.4,5.5,1.5,7.1-0.4c0.9-1.1,0.8-2.8,1.3-4.1c0.5-1.4,3.1-2.9,3.3-1.4c0.2,1.4,0.7,2.8,2.1,2.9s2.6-1.1,3.2-2.4
	C211.3,318.6,211.2,317.2,211,315.8z"/>
<path fill="#7BBCEB" stroke="#4E9BD7" stroke-miterlimit="10" d="M192.6,183.6c3.1-1.5,4-5.5,6-8.2c1.2-1.6,3.3-3.6,2.3-5.3
	c-0.8-1.4-1.6-2.6-1.8-4.1c-0.1-1.3-0.3-2.7-0.4-4c-0.1-0.7-0.1-1.6,0.4-2.1c0.7-0.7,1.8-0.5,2.8-0.7c2.4-0.4,3.5-3.2,4-5.6
	c0.8-3.6,0.8-7.6-1.5-10.5c-2.9-3.7-6.4-1.7-8.3-1.1c-1.4,0.5-2.1-6.1-7.7-7.2c-1.3-0.3-2.7-0.2-4-0.4c-2.2-0.3-4.3-1.4-6.3-2.5
	c-0.7-0.4-0.9-0.8-1.6-1.1c-0.8-0.3-1.9,0.1-2-0.5c-0.2-0.7,0-1-0.2-2c-0.3-1.8-4.3-0.3-5.2,1.3c-0.3,0.6-0.1,2.5-0.2,3.2
	c-0.6,5.3-1,8.9-4.2,13.1c-0.6,0.8-1.2,1.5-1.5,2.4c-0.4,1.1-0.3,2.2-0.4,3.3c-0.2,2.6-1.6,4.9-2.2,7.4c-0.6,2.5-0.3,5.7,2,6.9
	c0.6,0.3,1.2,0.5,1.8,0.8c1.9,1.1,2.5,3.5,2.8,5.6s0.5,4.5,2,6.1c1.1,1.1,2.6,1.6,4.1,2c1.3,0.3,2.7,0.5,3.9,1.1
	c2.2,1,3.8,3,5.9,4.3c1,0.6,2.3,1,3.4,0.5c0.5-0.3,0.9-0.7,1.4-1.1C189.2,184.1,191.1,184.3,192.6,183.6z"/>
<path fill="none" stroke="#4E9BD7" stroke-miterlimit="10" d="M169,132.9c-4.2,0.5-10.7,1.4-14.4-0.5c-2.1-1.1-4-2.7-6.3-2.8
	c-1.3-0.1-2.5,0.4-3.8,0.6c-6.4,1.1-12.5-2.8-18.2-6c-1.1-0.6-1.8-0.7-3.1-0.6c-1,0.1-4.8,1.3-5.3,0.5c-2.8-4-4-2.7-5.3-4.3
	c-2.5-3.1-4.4-9.4-5.3-13.8c-0.3-1.2-0.4-3.9-1-5c-0.5-0.8-1.4-2.5-2.2-3.2c-6.3-5.3-16.4-2-23,3c-1.7,1.3-4.3,1.7-6,3.1
	c-2.4,2.1-7.8,2.9-10.2,2.7c-1.8-0.1-3.2,2.6-4.8,3.5c-7.4,4-13.8,3.3-22.3,5.7c-8.3,2.3-12,6-23.6,4c-1.4-0.2-2.9-0.1-4.4,0.3
	c-1.1,0.3-2.1,0.8-3.1,1.2c-5.2,2-11.6,0.7-15.7-3.1"/>
<text transform="matrix(1 0 0 1 157.9174 304.8181)"><tspan x="0" y="0" fill="#585858" font-family="'Verdana-Italic'" font-size="8">Cold</tspan><tspan x="-19.3" y="9.6" fill="#585858" font-family="'Verdana-Italic'" font-size="8">Mountain</tspan></text>
<text transform="matrix(1 0 0 1 207.6714 170.6514)"><tspan x="0" y="0" fill="#7BBCEB" font-family="'Verdana-Italic'" font-size="8">Virginia</tspan><tspan x="0" y="9.6" fill="#7BBCEB" font-family="'Verdana-Italic'" font-size="8">Lake</tspan></text>
<text transform="matrix(1 0 0 1 179.2964 310.1098)" fill="#585858" font-family="'Verdana-Italic'" font-size="8">× 10301</text>
<g>
	<g>
		<polyline fill="none" stroke="#7D7D7D" stroke-miterlimit="10" points="85.2,341.6 85.2,348.7 275.4,348.7 275.4,341.7 		"/>
		<line fill="none" stroke="#7D7D7D" stroke-miterlimit="10" x1="180.5" y1="341.4" x2="180.5" y2="348.7"/>
		<line fill="none" stroke="#7D7D7D" stroke-miterlimit="10" x1="161.2" y1="349.2" x2="161.2" y2="343.7"/>
		<line fill="none" stroke="#7D7D7D" stroke-miterlimit="10" x1="142.4" y1="349.2" x2="142.4" y2="343.7"/>
		<line fill="none" stroke="#7D7D7D" stroke-miterlimit="10" x1="123.3" y1="349.2" x2="123.3" y2="343.5"/>
		<line fill="none" stroke="#7D7D7D" stroke-miterlimit="10" x1="104.6" y1="349.2" x2="104.6" y2="343.7"/>
	</g>
	<text transform="matrix(1 0 0 1 83.7838 339.1468)" fill="#7D7D7D" font-family="'Verdana'" font-size="8">0</text>
	<text transform="matrix(1 0 0 1 174.2949 339.1468)" fill="#7D7D7D" font-family="'Verdana'" font-size="8">0.5</text>
	<text transform="matrix(1 0 0 1 258.3418 339.1468)" fill="#7D7D7D" font-family="'Verdana'" font-size="8">1 mi</text>
</g>
</svg>
