<?xml version="1.0" encoding="utf-8"?>
<!-- Generator: Adobe Illustrator 17.1.0, SVG Export Plug-In . SVG Version: 6.00 Build 0)  -->
<!DOCTYPE svg PUBLIC "-//W3C//DTD SVG 1.1//EN" "http://www.w3.org/Graphics/SVG/1.1/DTD/svg11.dtd">
<svg version="1.1" id="Layer_1" xmlns="http://www.w3.org/2000/svg" xmlns:xlink="http://www.w3.org/1999/xlink" x="0px" y="0px"
	 viewBox="0 0 360 360" enable-background="new 0 0 360 360" xml:space="preserve">
<path fill="none" stroke="#E1E1E1" stroke-miterlimit="10" d="M-17.7,51.3c2-1.2,4-2.4,5.6-4.1c1.6-1.7,2.7-4,2.4-6.3
	c-0.1-0.6-0.2-1.3-0.2-1.9c0.1-1.3,0.9-2.4,1.7-3.4C-5.4,32.1-3,28.3-1,24.3c2.6-5.2,7-9.1,9.9-14.2c1.2-2,2.3-4.1,3.7-6
	C14.1,2.3,16,0.7,17.7-1c0.7-0.6,1.4-1.3,2-2"/>
<path fill="none" stroke="#E1E1E1" stroke-miterlimit="10" d="M-17,56.5c-0.4-0.6,0.3-1.3,0.9-1.7c1.4-0.9,2.8-1.8,4.2-2.7
	c3.8-2.5,7.7-5,10.6-8.5C3.7,37.8,5.6,29.5,11.9,25c5.9-4.3,10.7-9.7,16.3-14.4c1.6-1.3,3.1-2.7,4.7-4c3.4-2.9,6.8-5.8,9.8-9.1"/>
<path fill="none" stroke="#E1E1E1" stroke-miterlimit="10" d="M-18.1,108.3c-0.6-0.1,2.6-2.4,3.3-2.9c2-1.4,4.1-2.6,6.3-3.6
	c4.5-2.1,9.2-3.4,13.4-6.1c4-2.6,7.4-6,11-9.1c3.6-3.2,8.3-4.5,12.1-7.3c1.7-1.2,3.6-2.5,5.2-3.9c1.6-1.5,3-3.1,4.3-4.8
	c3.2-3.9,6.3-8,9.8-11.6c3.4-3.5,7.1-6.7,10.8-9.9c1-0.8,1.9-1.6,3-2.3c1.4-0.9,3-1.6,4.3-2.6c1.5-1.3,2.5-3,3.9-4.5
	c1.2-1.4,2.7-2.5,4.2-3.6c4.2-3.1,8.4-6.2,12.6-9.4c1.4-1,2.8-1.6,4.4-1s3.1,3.1,4.6,2.3c2.5-1.4,2.6-5.3,5.1-6.8
	c0.8-0.5,1.6-0.9,2.5-1c1.4-0.1,2.6,1.7,3.9,1.2c1.9-0.6,1.5-3.7,1.2-5.6s-1.9-3.7-3.8-3.7c-1.1,0-2.2,0.5-3.4,0.4
	c-2.3-0.2-3.4-2.8-4-5s-1.6-4.7-3.9-5.1c-1-0.2-2,0.2-2.9,0.5c-1.8,0.6-3.7,1.3-5.5,1.9C81.1,5.8,78,7,75.6,9.2
	c-2.7,2.5-4.5,6-7.5,8.1c-2.7,2-7.4,6.8-10.1,8.9c-3.1,2.5-6.7,4.5-10.1,6.6c-0.8,0.5-1.6,0.9-2.5,1c-1.5,0.1-2.9-1.2-3.3-2.6
	c-0.1-0.4-0.2-0.9-0.6-1.2c-0.6-0.5-1.6,0-2.3,0.4c-6.3,4-14.5,4-21.1,7.7c-1.3,0.8-2.6,1.6-3.8,2.5c-10,7.1-19.8,14.4-29.7,21.7
	c-0.6,0.4-1.2,1.1-0.9,1.8"/>
<path fill="none" stroke="#E1E1E1" stroke-miterlimit="10" d="M-16.7,145.2c5.4-0.5,10.5-3,14.2-6.9c1.6-1.7,4.1-5.6,5.5-3.8
	c1.7,2.1-2.6,4.7-4.6,6.4c-1.2,1-2.4,2-3.2,3.3c-1.3,2.1-1.4,4.7-2.4,7c-1.9,4.3-6.7,6.4-11.1,8.1"/>
<path fill="none" stroke="#E1E1E1" stroke-miterlimit="10" d="M-19.4,176.7c6.2-1.5,10.3-7.4,14.1-12.6c0.4-0.6,0.9-1.2,1.5-1.6
	c0.8-0.5,1.8-0.5,2.7-0.7c2-0.4,3.7-1.8,5.2-3.1c2.8-2.4,5.8-4.9,7.3-8.4c0.5-1.2,0.8-2.5,1.6-3.6c0.8-1.1,2.2-1.9,3.4-1.4
	c1.2,0.5,1.8,1.9,2.8,2.7c1.3,1,3.1,0.8,4.6,0.3c3.6-1.4,6.1-4.6,9.4-6.5c3.2-1.8,6.9-2.3,10.5-2.7c2.9-0.3,6.3-1,9.2-1.3
	c2.3-0.2,3.4-3.3,5.5-2.3c2.1,1,5.4,7.7,3.4,8.9c-3.3,2-5.9-0.6-7.4,2.9c-1.5,3.5-2.7,11.2-3.1,15c-0.1,0.7-0.1,1.3-0.4,1.9
	c-0.4,0.9-1.2,1.5-2,2.2c-3.5,2.9-6.4,6.4-9.3,9.9c-3,3.6-6.1,7.4-7.1,12c-0.7,3.4-0.2,6.9-1.2,10.2c-0.5,1.5-1.2,2.9-1.9,4.4
	c-3.3,7.1-4.9,15.2-3.4,22.9c0.3,1.5,0.7,3.1,0.8,4.6c0.1,3.3-1.4,6.7-0.3,9.8c0.2,0.5,0.4,0.9,0.5,1.4c0.2,0.9,0.1,2-0.2,2.9
	c-1.8,5.9-7.7,9.4-11.6,14.3c-2.8,3.5-4.6,7.7-5.1,12.1c-0.2,2-0.7,4-0.7,6c0.1,2.6,0.2,5.3-0.6,7.8c-0.3,1.1-0.7,2.1-0.8,3.2
	c0,1.5,0.6,2.8,1.2,4.2c2.3,4.9,3.9,10.5,2.3,15.6c-1.2,3.7-4,6.8-7.3,8.9C1,318.7-2.7,320-6.5,321c-3,0.9-6.1,1.6-9.1,2.4
	c-1.8,0.5-3.7,0.9-5.5,1.4"/>
<path fill="none" stroke="#E1E1E1" stroke-miterlimit="10" d="M-14.8,334.6c2.8,0.7,5.3-1.7,7.3-3.6c2.6-2.5,5.8-4.6,9.5-5
	c2-0.2,3.9,0.1,5.9-0.2c3.2-0.5,5.9-2.5,8.5-4.4c2.4-1.8,4.8-3.7,7.2-5.5c0.5-0.4,1.1-0.8,1.2-1.5c0.1-0.9-0.6-1.6-1.1-2.4
	c-1.7-2.4-0.8-5.7,0.1-8.5c0.6-1.9,1.2-3.7,1.8-5.6c0.4-1.1,0.7-2.2,0.5-3.3c-0.2-1.4-1.2-2.6-1.5-3.9c-0.7-3.3,2.6-6.2,3.2-9.5
	c0.3-1.6-0.1-3.4,0.8-4.7c0.4-0.7,1.1-1.2,1.5-1.8c1.2-1.5,1.2-3.7,2-5.4c0.8-1.7,2.4-2.8,3.4-4.4c0.8-1.4,1-3,2-4.2
	c0.9-1.1,2.1-1.8,3.3-2.6c1.1-0.8,2.2-2,2.1-3.4c-0.2-5.5,3.5-10.2,6-15.1c1.1-2.2,2.3-4.3,3.2-6.5c1.4-3.6,2.1-7.5,3.3-11.2
	c1.4-4.2,3.5-8,5.6-11.9c3.7-6.8,7.5-13.7,12.4-19.7c1.2-1.5,2.5-2.9,3.9-4.1c0.8-0.7,1.8-1.4,2.4-2.3c0.9-1.5,1-3.3,1.3-5
	c0.8-4.4,3.7-8.2,7.3-10.9s7.7-4.5,11.8-6.3c6-2.6,12-5.2,18-7.7c3.2-1.4,3.8-5.7,6-8.3c0.4-0.5,0.8-0.9,1-1.5
	c0.3-0.9,0.1-1.9-0.1-2.8c-1.6-7.6-1.8-15.4-0.6-23.1c0.2-1.4,0.5-3-0.2-4.2c-0.6-1.1-1.9-1.7-3-2.5c-4.1-2.7-3.2-10.6-7.9-12.1
	c-9.3-2.9-20.1-2.1-28.6,2.7c-2.3,1.3-4.2,3.5-6.8,4.3c-2.6,0.8-6.2-1-5.6-3.6c0.2-0.8,0.7-1.5,1.3-2.1c4.4-4.6,10.6-6.9,15.2-11.2
	c3.2-3,5.6-6.8,8.2-10.3c3.3-4.5,7-8.5,10.8-12.6c4.7-5.1,9.6-10.4,15.8-13.6c2.6-1.4,5.4-2.3,7.9-3.8c1.9-1.1,3.7-2.5,5.5-3.9
	c5.1-3.9,12-6.3,15.3-11.8c0.7-1.1,1.4-1.9,2.5-2.7c1.6-1.2,3.2-2.4,5-3c0.6-0.2,1.2-0.3,1.7-0.6c0.7-0.3,1.4-0.8,2-1.4
	c8.2-7,19.2-9.5,25.5-18.2c2.5-3.5,4.7-7.2,6.7-11"/>
<path fill="none" stroke="#E1E1E1" stroke-miterlimit="10" d="M60.8,115.5c0.1-0.2,0.2-0.4,0.2-0.7c0-0.5-0.4-1-0.8-1.2
	c-0.4-0.2-0.8-0.2-1.2-0.1c-1,0.3-1.5,1.6-1.6,2.7c0,0.2,0,0.5,0.1,0.6c0.1,0.1,0.3,0.1,0.4,0.2C59.1,117.2,60.3,116.5,60.8,115.5z"
	/>
<path fill="none" stroke="#E1E1E1" stroke-miterlimit="10" d="M-19.9,348.7c6-5.2,11.9-10.3,17.9-15.5c0.8-0.7,1.6-1.3,2.6-1.6
	c2.7-0.6,5.5,1.7,7.3,3.7c2.3,2.5,7.6,7.3,10,5c9.5-9.1,22.4-15.2,36.1-20.3c1.1-0.4,2.5-1.2,2.3-2.3c-0.1-0.8-0.8-1.3-1.5-1.7
	c-7.6-4.9-14.2-11.6-19-19.3c-1.1-1.7-2.1-3.6-2.2-5.6c-0.1-1.7,0.3-3.3,0.8-4.9c1.5-5.5,3.1-11.1,6.7-15.5c1.5-1.9,3.4-3.5,4.9-5.4
	c2.3-2.9,3.7-6.3,5-9.7c4-10.2,8-20.3,12-30.5c2-5.1,4-10.2,6.5-15.1c5.1-9.8,12-18.5,19-27.1c1.8-2.2,3.6-4.4,5.9-6
	c4.2-2.7,9.4-2.9,14.3-3.5c7.3-0.9,14.3-3,21.2-5.6c0.3-0.1,0.8-0.2,1.1-0.4c5.6-2.7,10.4-7,15.3-10.9c1.3-1.1,2.7-2.2,3.7-3.6
	c1.1-1.5,1.7-3.3,2.3-5c2.3-6.7,4.6-13.5,6.4-20.3c0.8-3.1,1.5-6.2,2.9-9c2.3-4.7,6.3-8.4,8.5-13.2c1.9-4,2.4-8.4,3.6-12.6
	c1.2-4.2,3.4-8.5,7.4-10.4c1.4-0.7,2.9-1,4.4-1.6c3.8-1.7,6.2-5.4,9.6-7.8c4.8-3.4,11.1-3.8,16.8-5.4c5.7-1.6,10.9-4.4,15.8-7.8
	c0.8-0.6,1.7-1.2,2.2-2.1c0.5-1,0.6-2.1,0.5-3.2c-0.1-7-1.6-14-4.4-20.4c-1-2.2,0.6-4.7-0.5-6.8c-0.7-1.3-2.9-2.8-2.7-4.3
	c0.2-1.5,1.3-2.7,2.4-3.7c1.1-1,2.4-1.9,3.1-3.3c0.6-1.1,0.8-2.4,0.9-3.7c0.4-3.8,0.9-7.5,1.3-11.3c0.1-1,0.2-2,0-3
	c-0.1-0.3-0.1-0.5-0.2-0.8"/>
<path fill="none" stroke="#E1E1E1" stroke-miterlimit="10" d="M4.3,364.2c-0.1-0.2-0.2-0.5-0.3-0.7c-0.9-2.1-1.9-3.2-3-4
	c-1.8-1.3-5.1-1.9-7-4c-6.3-6.8,1.4-15.4,6-21c0.9-1.1,4,0,5,1c5.8,5.3,12.5,12.2,20,11c3.1-0.5,6.1-0.9,8-2c11.3-6.4,21-14.1,34-18
	c7-2.1,8.1-11.2,1-15c-13.8-7.4-24.2-22.5-18-37c9.9-23.1,21-45.6,33-69c3.1-6,8.3-12.9,15.1-18.9c12.6-11.1,38.4-12.1,39.3-10.7
	c3.3,5.2-0.1,12.4,0.8,18.4c0.1,0.8,0.3,1.6,0.8,2.3c0.6,0.7,1.4,1.1,2.3,1.5c3.5,1.7,6.6,4.1,9.1,7.1c0.5,0.6,1,1.2,1.8,1.4
	c0.8,0.2,1.5-0.2,2.3-0.4c3.1-1.1,6.6-0.3,9.4,1.4c2.8,1.6,5.1,4,7.4,6.4c3.6,3.8,7.3,7.6,10.9,11.5c1.8,1.9,3.6,3.8,5.8,5.3
	c2.8,2,6.2,3.1,9.6,3.4c0.5,0,1.1,0.1,1.5-0.2c0.7-0.3,1.1-1,1.4-1.6c2.8-4.7,5.3-9.7,6.1-15.1c0.6-4.2,0.1-8.4-0.3-12.6
	c-1.1-9.2-2.1-18.4-3.2-27.6c-0.3-2.8-0.7-5.7-2.3-8.1c-1.7-2.5-4.7-4.1-5.9-6.9c-0.9-2.1-0.7-4.6-1.5-6.8c-1.9-4.9-8.2-6-12.4-9.1
	c-3.7-2.8-5.8-7.5-5.4-12.1c0.6-6.7,2.7-12.9,5.6-19c2.2-4.5,5.2-8.6,8.4-12.6c7-8.7,14.8-17,24.6-22.4c6.1-3.4,12.9-5.7,19.2-8.7
	c2.5-1.2,5-2.6,7.6-3.3c5.1-1.3,10.5-0.1,15.6,1.1c2.4,0.6,4.9,1.2,6.6,2.9c1.1,1.1,1.8,2.5,3,3.5c1.2,1,2.7,1.4,4.2,2.1
	c2.8,1.2,5.1,3.2,7.5,5.1c4.5,3.7,9,7.4,13.5,11.1c5.1,4.2,10.3,8.5,13.4,14.2c1.3,2.4,2.5,5.3,4.9,6.5c1.2,0.7,2.7,0.8,4,1.1
	c3.9,0.9,7.6,2.8,10.4,5.7c5.3,5.2,7.9,13.3,14.5,16.7c1.6,0.9,4,1.2,5.1-0.3c0.5-0.7,0.5-1.5,0.6-2.3c0.4-4.8,0.8-9.6,1.2-14.5
	c0.4-5,0.8-10-0.4-14.8c-1.3-5.3-4.5-10-8-14.3c-8.7-10.6-19.6-19.5-31.7-25.9c-4-2.1-8.1-4-11.9-6.4c-3-1.9-5.7-4.1-8.9-5.6
	c-6.7-3.2-15.2-3.3-20-8.9c-5.4-6.3-2.9-15.1,1.6-22.9c3.4-5.9,6.2-12.1,4.4-18.7c-0.5-1.8-1.3-3.5-1.6-5.4
	c-0.1-0.7-0.1-1.4-0.1-2.1"/>
<path fill="none" stroke="#E1E1E1" stroke-miterlimit="10" d="M362.2,81c-1.7-3.6-3.6-7-4.2-10.6c-0.3-2-1.1-5.1,0-6
	c1.4-1.1,3.2-0.9,5-0.3"/>
<path fill="none" stroke="#E1E1E1" stroke-miterlimit="10" d="M16.4,362.9c-0.1-0.4-0.3-0.8-0.4-1.3c-0.6-1.8-1.1-3.6-2-5.3
	c-2.5-5-7.3-8.7-9.5-13.9c-0.3-0.7-0.5-1.6,0.1-2c0.6-0.4,1.4,0,2,0.4c2.6,1.7,5.1,3.4,7.7,5.1c0.7,0.5,1.5,1,2.2,1.4
	c1.2,0.8,2.3,1.5,3.4,2.4c0.8,0.6,1.4,1.4,2.2,2c1.9,1.5,4.2,2.3,6.1,3.8c1,0.7,1.8,1.6,2.9,2.1c2.2,1.1,4.9,0.4,7.3-0.2
	c4.4-1.2,8.9-2.5,13.3-3.7c3.6-1,6-5.7,8.2-8.5c2.7-3.4,5.6-7,9.7-8.8c3.9-1.7,8.8-1.8,11.5-5.1c0.8-1,1.3-2.2,2.4-2.7
	c0.8-0.3,1.7-0.3,2.3-0.9c0.4-0.4,0.6-0.9,0.7-1.4c1-3.1,1.9-7-0.4-9.4c-1.3-1.3-2.7-2.3-3.3-4c-0.9-2.7-4-4.2-6.5-5.7
	c-3.5-2.1-7.9-2.9-10.4-6.1c-2.2-2.9-2.2-6.9-2.1-10.5c0.2-6.4,0.4-12.8,0.6-19.2c0.2-7.5,0.6-15.5,4.5-21.9
	c0.7-1.1,2.2-1.8,2.6-3.1c0.6-2,0.8-4,2.1-5.6c1.6-2,3.2-4,4.8-6c1.8-2.2,3.6-4.5,4.2-7.3c0.4-1.7,0.3-3.5,0.5-5.2
	c0.4-4.3,2.3-8.5,5.4-11.6c0.7-0.7,1.6-1.4,2-2.4c0.4-0.7,0.6-1.7,1.4-1.8c0.4-0.1,0.8,0.1,1.2,0c1.5-0.2,1.4-2.4,1.4-3.9
	c0-4.3,4.5-7,8.3-8.8c1.8-0.9,3.8-1.7,5.8-1.4c3.2,0.6,4.9,4,6,7c3.2,8.4,5.6,23.3,7.6,25.7c0.3,0.3,0.7,1.2,1.9,0.9
	c3.2-0.8,6.7,0.6,9.2,2.8s4.2,5.1,6.1,7.9c1.9,2.8,4,5.5,6.2,8c0.7,0.8,1.4,1.6,2.4,1.9c2,0.8,4.2-0.5,6.1-1.4
	c3.3-1.5,7.3-2.1,10.5-0.2c3.5,2.1,5.1,6.6,8.8,8.4c2,1,4.4,1.1,5.9,2.6c0.7,0.7,1.2,1.8,2.2,2.2c1.1,0.6,2.5,0.1,3.7,0.2
	c1.9,0.3,3.3,2.1,5.2,2.6c1.2,0.3,2.5,0.1,3.8,0.2c1.3,0.1,2.1,1,2.9,2c1.7,2.1,5.5,0.8,7.9-0.5c1.5-0.9,2.7-2.2,3.9-3.4
	c2.7-2.9,5.5-5.9,6.4-9.8c0.6-2.4,0.3-5,0.9-7.5c0.5-2.4,1.7-4.5,2.6-6.8c2.9-7.1,2.9-15.4,0-22.5c-0.9-2.2-2.1-4.3-2.8-6.6
	c-0.7-2.3-0.5-4.2-0.2-6.5c1.6-13.3-5.8-24.6-7.9-38c-0.4-3-3.3-4.8-5-8c-5-9.5-13.7-16.8-17-27c-1.3-3.9-0.1-9.1,3-12
	c6.8-6.3,10.7-13.2,16-19c4.8-5.2,12.3-5,17-11c16.2-20.8,44.3,4.1,63,18c1.8,1.3,5.1,2.8,8,4c2.1,0.9,3,2,4,4c2,4,1.6,9.2,4,13
	c5.3,8.5,15.2,12.8,23,19c6.1,4.8,6.8,12.1,10,19c5.5,11.9,18.7,9.7,28.7,4.9"/>
<path fill="none" stroke="#E1E1E1" stroke-miterlimit="10" d="M119,298c-0.2-0.5-0.4-1-0.9-1.3c-1-0.5-2,0.5-2.6,1.4
	c-1.5,2.3-2.5,4.9-2.9,7.5c-0.5,3-0.4,6.2-0.3,9.3c0.1,1.7,0.2,3.6,1.1,5c0.4,0.6,1.1,1.1,1.7,0.9c0.4-0.1,0.7-0.5,0.9-0.8
	c1-1.4,1.9-2.7,2.9-4.1c1.1-1.6,2.3-3.3,2.7-5.2c0.5-2.1,0-4.4-0.5-6.5C120.5,302.2,119.8,300.1,119,298z"/>
<path fill="none" stroke="#E1E1E1" stroke-miterlimit="10" d="M137.8,319.8c0.6,1,1.2,2.3,0.6,3.3c-0.2,0.4-0.6,0.7-0.9,0.9
	c-2.6,2-5.2,4-7.8,5.9c-3.8,2.9-7.7,5.8-12,8c-1.5,0.7-4.2,2.5-4.7,1c-1.1-3.1,0.1-7.8-0.4-12.8c-0.5-5.1-1.1-9.4-3.1-13.5
	c-1.7-3.5-3.3-7-4.7-10.6c-0.8-2.1-1.5-4.2-2-6.3c-0.2-0.8-0.4-1.6-0.3-2.4c0.1-0.6,0.3-1.2,0.4-1.7c1.7-5,3.4-10,5-14.9
	c0.5-1.4,1-2.8,1.9-4s2.4-2,3.8-1.7c1.5,0.3,2.6,1.6,3.5,2.9c3,4,6.1,8.3,6.5,13.3c0.1,1.7,0,3.3,0,5c0.1,5.3,2.4,10.2,5.3,14.7
	S135.1,315.3,137.8,319.8z"/>
<path fill="none" stroke="#E1E1E1" stroke-miterlimit="10" d="M151,321.4c-0.8,0.4-1.6,0.8-2.5,0.9c-0.9,0.1-1.8-0.1-2.7-0.3
	c-0.5-0.1-1.2-0.5-1-1c0.1-0.3,0.4-0.4,0.6-0.5c0.8-0.3,1.5-0.6,2.3-0.9c0.5-0.2,1-0.4,1.5-0.4c1.2-0.1,2.5-0.5,3.5,0.2
	C153.5,320,151.8,321,151,321.4z"/>
<path fill="none" stroke="#E1E1E1" stroke-miterlimit="10" d="M81.5,362.7c6-1.9,11.9-4,16.8-7.8c8-6.2,12.8-16.4,12.5-26.6
	c-0.3-10.2-5.8-20-14.2-25.7c-1.3-0.9-2.7-1.7-3.5-3c-0.8-1.2-1-2.7-1-4.2c-0.3-4.3,0-8.5,0.9-12.7c0.6-2.8,1.4-5.7,0.6-8.5
	c-0.5-1.7-1.5-3.2-2.3-4.7c-6.6-11.8-3.3-26.5,0.1-39.6c1.1-4.2,2.2-8.3,3.3-12.5c0.3-1,0.6-2.1,1.3-2.7c1.5-1.3,4.1-0.2,5,1.5
	s0.8,3.9,0.7,5.9c-0.5,10.6,1.3,21.4,5.3,31.3c0.5,1.3,1.1,2.7,2.1,3.7c1.1,1.2,2.7,1.9,4.1,2.6c4.3,2,8.3,4.4,12.2,7
	c3.2,2.2,6.6,5.2,6.7,9.1c0.1,2.7-1.4,5.4-0.9,8.1c0.3,1.9,1.7,3.7,1.3,5.6c-0.3,1.8-2.2,3.2-2.1,5.1c0,1,0.6,1.9,1.2,2.7
	c2.9,4,5.7,7.9,8.6,11.9c1.1,1.5,2.2,3,3.8,3.8c1.4,0.7,3.1,0.7,4.7,0.8c21.8,0.9,27.2-7,26.8-4.5c-0.7,5-6.6,7.3-10.8,10.1
	c-4,2.7-7.5,6.1-11,9.4c-2.2,2.2-4.5,4.3-6.7,6.5c-6.1,6-12.4,12.1-19.9,16.2c-7.6,4.2-16.2,6.3-24.6,8.1c-2.7,0.6-5.3,1.2-7.7,2.4
	c-0.7,0.4-1.3,0.8-2,1.2"/>
<path fill="none" stroke="#E1E1E1" stroke-miterlimit="10" d="M23.3,363.2c-0.3-2.6-0.6-4.9-0.5-6.8c0.3-3.7,6.4,3.2,9.8,4.8
	c5.8,2.8,12.5-0.2,18.9-0.4c5.3-0.2,10.6,1.7,15.9,1.4c7.3-0.3,13.8-4.4,19.9-8.4c1.3-0.8,2.6-1.7,3.6-2.8c1.1-1.3,1.8-3,2.6-4.6
	c1.7-3.7,4-7.2,6.6-10.3c1.6-1.8,3.3-3.7,3.8-6c0.9-4.4-0.2-8.9-1.9-13c-2.4-6.2-11.1-7.3-16.7-10.9c-1.2-0.8-2.3-1.5-3.2-2.6
	c-2.1-2.6-2-6.3-1.7-9.6c0.7-8.5,1.7-17.7-2.3-25.2c-1.6-3-4-6.1-3.4-9.4c0.2-1.4,1-2.7,1.7-4.1c1.9-3.8,0.5-8.5,2.3-12.3
	c2.8-5.7,7.5-10,9.4-16c0.6-1.9,1.2-3.9,1.8-5.8c0.7-2.4,0.3-5.1,1.1-7.5c0.4-1.2,2.3-0.7,3.5-1.1c1.3-0.5,0.7-2.9,1.5-4
	c0.5-0.9,2.2,0.8,3,0.2c2.7-2,2.9-8.5,5.9-7c6.7,3.2,2.4,14.3,3,21.7c0.7,8.9,4.5,17.5,10.7,24c0.7,0.7,1.4,1.4,2.4,1.6
	c3.1,0.7,5.1-4.1,8.3-4.2c1.8,0,3.3,1.5,3.9,3.1s0.7,3.5,1,5.2c1.3,7.6,7.3,13.5,13.4,18.3c2.4,1.9,6.2,1.2,8.3,3.4
	c3.8,4-2,11-4.8,15.7c-1,1.6-2.2,3.3-2.2,5.2c0,2.2,1.6,4.1,3.6,5c2,0.9,4.2,1.1,6.3,1.1c4.9,0.1,9.9-0.3,14.7-1.1
	c1-0.2,2.1-0.4,2.8-1.1c0.5-0.5,0.8-1.3,1.4-1.8c0.9-0.8,2.3-0.7,3.5-1c3.1-0.6,5-3.5,7.1-5.9c2.1-2.4,6.8-6,8.2-3.2
	c1.4,2.8-6.1,12.3-10.6,17.5c-6.7,7.6-13.5,13.3-17.8,22c-5.6,11.3-18.1,18.4-27.8,26.4c-4.1,3.3-8.3,6.7-13.1,8.9
	c-0.4,0.2-0.9,0.4-1.3,0.6"/>
<path fill="none" stroke="#E1E1E1" stroke-miterlimit="10" d="M143.3,363.4c1.4-1,2.8-2.2,4.2-3.5c3-2.8,6.4-4.6,9.3-7.4
	c1.5-1.5,2.5-3.6,4.1-5c1.1-1,2.4-1.6,3.4-2.6c0.8-0.8,1.3-1.8,1.9-2.7c3.4-5.3,9.2-8.9,12-14.5c0.6-1.3,1.1-2.6,2-3.8
	c0.9-1.2,2.2-2,3-3.3c0.5-0.7,0.7-1.5,1.2-2.2c0.7-1.1,1.8-1.9,2.8-2.7c3.6-2.6,6.4-5.8,9.6-8.8c3.2-3.2,6.3-5.8,9-9.5
	c1.7-2.3,3.6-5.2,6.5-5.2c1.2,0,2.4,0.6,3.6,0.7c2,0.3,4-0.5,5.8-1.2c8.9-3.5,18-7.1,25.3-13.3c2.2-1.9,4.6-4.1,7.5-4.1
	c4.5-0.1,7.3,4.9,11.3,7c3.7,2,8.3,1.3,12.3,2.7c4,1.4,7.1,4.8,10.9,6.7c4.8,2.4,10.9,2.4,14.9,6c2.3,2.2,3.6,5.4,6.4,7
	c3.2,1.8,7.4,0.8,10.8,2.2c2.5,1.1,4.4,3.4,6.9,4.5c1.6,0.7,3.4,0.8,5.2,1c9.9,0.8,19.8,1,29.1,3.3"/>
<path fill="none" stroke="#E1E1E1" stroke-miterlimit="10" d="M301.7,363.1c0.1-0.3,0.1-0.6,0.1-0.9c2.7-28.5,9.7-24,11.5-30.4
	c2-6.9-29.6-33.7-50.9-39.1c-2.9-0.7-6.1-1.3-8.9-0.1c-1.8,0.8-3.2,2.1-4.9,3.1c-3.3,1.8-7.3,1.7-11.1,2
	c-14.9,1.4-27.7,11.1-38.5,21.6c-12.2,11.8-22.9,25.1-34.9,37.1c-2.3,2.3-4.6,4.5-7.1,6.7"/>
<path fill="none" stroke="#E1E1E1" stroke-miterlimit="10" d="M174,363.1c3.1-4.1,4.6-9.1,7.6-13.2c2.9-3.9,6.2-7.6,9.7-11
	c9.3-9.2,20.2-16.9,32-22.5c12.6-6.1,25.7-13.2,39.5-11.3c4.3,0.6,7.7,3.1,11.6,4.9c4,1.9,8.1,3.8,10.9,7.2c2.1,2.4,3.4,5.6,6.1,7.4
	c1.4,0.9,3.1,1.5,3.8,2.9c0.9,1.8-0.1,3.9-1.4,5.5s-2.8,3-3.2,4.9c-0.2,1.1-0.1,2.1,0,3.2c0.4,4.1,0.2,8.3-0.6,12.4
	c-0.2,0.7-0.3,1.5-0.3,2.2c0.1,1.2,0.7,2.3,1.1,3.5c0.4,1,0.9,2.3,1.2,3.5"/>
<path fill="none" stroke="#E1E1E1" stroke-miterlimit="10" d="M235.1,363.6c0.3-2.3,3.3-5.1,5.4-6.6c2.8-2,6.1-3.1,9.1-4.8
	c3-1.8,8.3-5.4,6-7.9c-1.9-2-5.2-2.4-7.9-2c-4.4,0.6-8.8,3.1-12,0.1c-0.7-0.6-1.2-1.3-2-1.9c-2.1-1.4-5-0.7-7.3,0.4
	c-3.8,1.9-7,4.8-10.1,7.7c-1.8,1.7-3.6,3.4-5.5,5.1c-2.5,2.3-5,4.7-7,7.4c-0.5,0.6-0.9,1.3-1.4,1.9"/>
<path fill="none" stroke="#E1E1E1" stroke-miterlimit="10" d="M274,362.7c0-1.9,0.1-3.9-0.2-5.8c-0.4-2.5-1.6-7.5-3.9-6.3
	c-3.1,1.6-4.1,5.5-7.3,7c-2.3,1.1-4.8,2.7-7.3,4.2"/>
<path fill="none" stroke="#E1E1E1" stroke-miterlimit="10" d="M279.9,194.7c0.8-1,2.6-0.9,3-2.1c0.5-1.2-1-2.2-1.7-3.3
	c-0.7-1.1-0.8-2.7-1.9-3.3c-0.7-0.4-1.7-0.3-2.6-0.3c-2.1,0-4.1-1.1-5.3-2.8c-1.5-2-1.7-4.7-2.5-7.1c-0.4-1.1-1.1-2.3-2.2-2.4
	c-1-0.1-2,0.6-2.5,1.6c-0.5,0.9-0.7,2-1.1,2.9c-0.6,1.5-1.8,2.7-2.5,4.2c-0.5,1-0.7,2.1-0.9,3.2c-1,6.2-0.2,12.7,2.2,18.4
	c0.2,0.4,0.3,0.7,0.6,1c0.3,0.2,0.6,0.3,1,0.3c2.2,0.2,4.3-0.7,6.1-2c1.8-1.3,3.2-2.9,4.7-4.5c0.9-1,2-2,3.4-2.1
	c0.4,0,0.8,0,1.1-0.1C279.5,195.9,279.6,195.2,279.9,194.7z"/>
<path fill="none" stroke="#E1E1E1" stroke-miterlimit="10" d="M360,236.2c-0.7,0-1.3-0.1-1.9-0.3c-2.4-0.9-3.5-3.5-4.9-5.5
	c-1.2-1.7-4.1-3.1-3.6-5.1c0.4-1.3,2.9-0.4,3.7,0.7c0.7,0.9,1.4,1.8,2.4,2.3s2.2,0.8,3.1,1.5c0.7,0.5,1.3,1.2,2,1.7"/>
<path fill="none" stroke="#E1E1E1" stroke-miterlimit="10" d="M362.1,261.2c-4.9-2.7-9.3-6-12.8-10.2c-0.5-0.6-1-1.3-1.6-1.9
	c-0.7-0.7-1.5-1.3-2.3-1.9c-2.8-2.1-5.6-4.2-8.5-6.3c-0.9-0.7-1.8-1.4-2.4-2.3c-0.5-0.9-0.7-2-1.2-2.9c-0.9-1.8-2.9-2.9-4-4.6
	c-1.3-2.2-1-5.1-2.1-7.3c-0.5-1-1.4-2-1.7-3.1c-0.4-1.7,0.5-3.4,0.7-5.1c0.2-2-0.7-3.9-0.9-5.9c-0.1-1.5-1-4,0.4-4.6
	c2.9-1.2,4.6,4.4,5.8,7.3c0.2,0.6,0.5,1.2,1,1.5c1.1,0.6,2.5,0.3,3.8,0c1.5-0.3,0.3-3.5,1.8-3.9c0.3-0.1,0.7,0,1.1,0.1
	c2.4,0.8,4.4,2.6,5.4,4.9c0.2,0.4,0.3,0.9,0.7,1.1c0.7,0.5,1.7,0.2,2.4,0.5c0.6,0.2,1,0.8,1.4,1.3c1,1.4,2,2.9,3,4.3
	c0.3,0.4,0.6,0.9,1,1.2c0.9,0.7,2.1,0.8,3.1,1c2.3,0.5,4.3,1.9,5.6,3.8"/>
<path fill="none" stroke="#E1E1E1" stroke-miterlimit="10" d="M330.6,202.9c0.8,1.5,0.8,4.2,2.5,4.6c1.5,0.4,2.8-1.6,4.3-1.4
	c0.6,0.1,1.2,0.4,1.7,0.7c2.3,1.3,4.3,3.1,5.8,5.3c0.4,0.6,0.9,1.3,1.5,1.7c0.5,0.3,1.1,0.3,1.7,0.5c1.5,0.5,2.6,1.8,3.8,2.8
	c2.8,2.2,6.6,3.1,8.9,5.8c0.3,0.4,0.7,0.8,1.1,0.9"/>
<path fill="none" stroke="#E1E1E1" stroke-miterlimit="10" d="M330.8,203.1c-2.7-3-5.3-6.1-8-9.1c-0.5-0.5-1.1-1.1-1.7-0.9
	c-0.4,0.1-0.7,0.5-1,0.8c-1.2,1.2-3.1,1.1-4.5,2.1c-0.6,0.4-1,1-1.5,1.5c-1.6,2-3.2,4.1-4.2,6.4c-0.8,1.7-1.2,3.5-1.6,5.4
	c-0.2,0.9-0.4,1.9-0.3,2.9c0.1,0.9,0.3,1.7,0.5,2.6c1.2,4.8,1.3,9.8,1.3,14.7c0,1.6,0,3.3,0,4.9c0,5.4,0.1,11,2.2,16
	c2.2,5.3,6.5,9.5,10.7,13.4c1.5,1.4,2.9,2.8,4.4,4.2c1.5,1.4,3.1,2.9,4.9,3.9c2.7,1.5,5.9,1.9,8.4,3.8c1.1,0.8,3.1,0.1,4.5,0.6
	c2.4,0.9,4.8,1.7,7.2,2.5c0.7,0.2,1.4,0.4,2.1,0.3c0.9-0.2,1.6-0.9,2.3-1.5c0.7-0.6,2.1-1.4,2.5-0.6c0.4,0.7,0.9,1.3,1.7,1.3"/>
<path fill="none" stroke="#E1E1E1" stroke-miterlimit="10" d="M361.9,285.1c-2.8-0.2-5.5-0.3-8.3-0.1c-1.8,0.1-3.9,0.6-4.5,2.3
	c-0.8,2.1,2.6,4.9,1,6.6c-1.5,1.6-4.5,3-6.4,1.8c-1.3-0.9,0.7-2.9,1.3-4.3c0.6-1.4,0.9-3.2-0.1-4.3c-0.4-0.4-1-0.7-1.6-1
	c-3.2-1.6-5.7-4.5-9.1-5.6c-3.1-0.9-6.6-0.1-9.7-1c-1.2-0.4-2.2-1-3.3-1.6c-4.8-2.8-8.5-6.2-14.5-8.3c-0.3-0.1-4.7-3.4-4.9-3.6
	c-7.1-6.3-6.3-8.6-9.8-17.5c-1.3-3.2-1.3-12.6-3.7-15.1c-3.7-3.9-5.4-3.4-9.1-8.9c-1-1.5-2.2-4-3.8-4.5c-1.8-0.6-5.4,1.4-7.2,1.8
	c-3.3,0.8-6.4,2.1-9.4,3.8c-0.9,0.5-3.6,0.5-4.5,0.1c-0.9-0.4-1.2-2.3-1.3-3.3c-1.9-10.8-2.1-20.3-4-31.1c-0.9-5.4-1.9-11-0.6-16.4
	c0.8-3.4,2.6-6.5,4-9.7c4.3-9.4,6.3-19.8,5.8-30c-0.1-1.5-0.2-3.1-1-4.5c-1.2-2.2-3.6-3.2-5.9-4.2c-8.5-3.5-16.9-7-25.4-10.5
	c-3.7-1.5-10.2-3.1-9.3-6.9c0.5-2,4.2-0.9,5.6-2.4c1.2-1.2-1-4.4,0.5-5c1.3-0.6,1.9-0.7,3-1.6c1.5-1.2,3.5,3.5,5.1,2.5
	c1.6-1,2.3-2.6,4.2-2.5c15.4,1.2,30.1,9,39.9,21c0.8,1,1.7,2.2,1.8,3.6c0.1,1.4-0.7,2.7-1.5,3.9c-4.4,7.2-7.6,15.1-9.4,23.4
	c-1.3,6-1.7,12.8,1.8,17.9c4.8,6.9,15.5,8.8,18.3,16.7c1,2.8,0.7,6,1.5,8.9c0.6,2.2,1.9,4.3,3.6,5.8c2,1.8,4.8,2.9,7.3,2
	c1.2-0.4,2.2-1.2,3.3-2c6.8-5.4,11.9-17.7,20.5-16.3c9.4,1.5,10.8,16.2,19.2,20.7c3.2,1.7,5.5,4.7,8.8,6c3.6,1.4,7.4,1.7,11.2,1.7"
	/>
<path fill="none" stroke="#E1E1E1" stroke-miterlimit="10" d="M361.7,293.2c-4.2,0.4-8.3,2.9-12.1,4.9c-3.5,1.8-11.8,3.6-10.9-0.3
	c0.3-1.4,2.9-2.6,1.9-3.6c-4.9-5-13-4.8-19.1-8.1c-10.9-5.9-25-5.3-34.7-13.1c-7.5-6-8.2-17.3-12.3-26c-0.7-1.5-1.4-3-2.5-4.1
	c-2.5-2.5-6.4-3-9.8-2.2c-3.4,0.8-6.5,2.5-9.7,4c-4.3,1.9-8.8,3.1-13.5,3.7c-0.4,0-0.8,0.1-1.2,0c-1.5-0.5-1.1-2.7-0.6-4.1
	c5.5-13.7,6.1-29.2,1.9-43.3c-2.4-7.9-6.3-15.9-4.2-23.9c1.5-5.7,5.9-10.9,4.9-16.6c-0.6-3.5,4.5-5.7,5.4-9.2c0.7-2.5-0.7-5.1-2.5-7
	c-2.9-3-6.9-4.9-11-5.3c-2.4-0.2-5.1,0.1-7.1-1.3c-1.1-0.7-1.8-1.9-2.9-2.6c-1.2-0.9-2.8-1.2-4.3-1.5c-6.7-1.6-16.3-2.7-18.2-9.4
	c-0.7-2.4,5-1.4,5.7-3.8c0.4-1.3-1.8-2.2-1.3-3.4s2.1-0.9,3.3-1.5c5.4-2.6,1.4-13.2,6.1-17c4-3.3,10.2-2.2,15.1-4.2
	c2.3-1,4.6-2.1,7-2.2c1.8-0.1,3.5,0.3,5.2,0.8c8.1,2.2,15.9,5.8,22.9,10.4c3.8,2.5,7.4,5.4,10.9,8.3c4,3.3,8.1,7.1,9.3,12.1
	c0.4,1.9,0.4,3.9-0.5,5.6c-0.8,1.4-2.2,2.7-2.2,4.3c0,1.1,0.8,2.2,0.5,3.4c-0.3,1.4-1.9,2-2.9,3c-2,2.1-1.1,5.5-1.3,8.5
	c-0.2,2.7-1.7,5.3-1.9,8c-0.5,5,2.8,9.5,6,13.4c2.4,3,4.9,6.1,7.3,9.1c3.5,4.3,7.4,8.9,12.9,9.8c1.4,0.2,3,0.2,4.3-0.5
	c1.9-0.9,3.1-2.9,4.7-4.3c3.8-3.4,9.7-3.5,14.5-1.8c4.8,1.7,9,4.8,13.4,7.4c7.2,4.2,15.6,8.4,23.9,9.8"/>
<path fill="none" stroke="#E1E1E1" stroke-miterlimit="10" d="M362.5,306.1c-0.3-0.2-0.6-0.3-0.9-0.5c-4.3-2.5-9.2-5.1-14.1-4
	c-1,0.2-2,0.6-3,0.7c-1.3,0.2-2.6-0.1-3.8-0.3c-17.1-3.4-33.3-10.7-47.2-21.2c-3.1-2.3-6.3-4.9-10.2-5.3c-2.3-0.2-4.6,0.4-6.8,0
	c-6.1-1.1-8.2-8.4-10.6-14.1c-0.9-2.1-2.5-4.4-4.8-4.2c-1.6,0.1-2.8,1.5-4.2,2.3c-3.3,2-7.4,1-11.2,1.6
	c-8.1,1.2-12.7,15.4-20.5,12.9c-5.9-1.9-2.3-12.2-0.6-18.1c1.7-5.9,4.5-11.5,6.1-17.5c2.1-7.7,2.1-16,0-23.7
	c-3.7-14-14.1-26.4-13.8-40.9c0-1,0.9-1.7,1-2.7c1.1-8.7-6.7-14.2-10.9-20.7c-4-6.1-6.3-12.7-11-19c-4.3-5.8-3.5-16.3,3-19
	c0.9-0.4,2,0.2,3,0c7.5-1.5,0.8-13.4,5.5-15.2c7.8-3.1,15.3-6,21.5-11.8c15.9-14.9,35.2,14,51,26c2.9,2.2,5.2,3.7,8,6
	c2.2,1.8,2.8,5.9,2,9c-2.9,11.8-7,22.1-5,34c0.7,4.1,1.9,9.1,5,12c7.8,7.3,20.7,5.5,26-3c2.4-3.8-0.2-11.8,5-14c0.9-0.4,1.6-0.3,2,0
	c7.6,4.7,5.8,16.4,14,21c2,1.1,3.8,2.2,5,3c5.8,4,12.6,5.4,19.6,5.5"/>
<path fill="none" stroke="#E1E1E1" stroke-miterlimit="10" d="M318.5,12.4c0.7,0.8,2,0.2,2.9-0.3c2.2-1.3,4.6-2.5,7.2-2.6
	c0.6,0,1.3,0,1.9-0.1c1.4-0.2,2.7-1.2,3.3-2.5c0.7-1.3,0.9-3,0.1-4.1c-0.9-1.3-3.1-0.2-4.6-0.9c-0.9-0.4-1.6-1.5-2.6-1.2
	c-0.2,0.1-0.4,0.2-0.6,0.3c-1.8,1.4-2.3,3.6-3.4,5.6c-0.8,1.5-2.9,1.8-4,3.1C318.2,10.5,317.8,11.7,318.5,12.4z"/>
<path fill="none" stroke="#E1E1E1" stroke-miterlimit="10" d="M121.7,200.5c-0.9-0.1-1.9-0.6-2.6-0.1c-0.7,0.5,0.2,1.8,0.9,2.1
	c0.8,0.4,1.7,0.2,2.3-0.4c0.3-0.3,0.5-0.7,0.3-1.1C122.5,200.6,122.1,200.5,121.7,200.5z"/>
<path fill="none" stroke="#E1E1E1" stroke-miterlimit="10" d="M4.8-3.7C4.5-3.3,4.3-2.9,4-2.5C-1.5,7.2-7.4,16.6-13.5,25.9"/>
<path fill="none" stroke="#E1E1E1" stroke-miterlimit="10" d="M263.6,117.4c0.5,0.1,1.1,0.1,1.4-0.3c0.1-0.2,0.2-0.5,0.2-0.7
	c0-0.4,0.1-0.9,0.1-1.3c0-0.3,0-0.5-0.1-0.7c-0.1-0.1-0.3-0.2-0.5-0.2c-0.6-0.1-1.2-0.1-1.8-0.1c-0.4,0-0.9,0-1.2,0.2
	c-0.4,0.2-0.7,0.5-0.8,0.9c-0.1,0.7,0.4,1.2,1,1.6C262.3,117,262.9,117.3,263.6,117.4z"/>
<path fill="none" stroke="#D6D6D6" stroke-miterlimit="10" d="M188.6,207.7c-0.6,3.7,3.3,6.8,3.5,10.6c0.1,2.4-1.2,4.7-0.6,7
	c0.8,3,4.4,4.3,6.1,6.9c1.5,2.3,1.2,5.4,0.5,8.1c-0.5,1.9-1.2,3.9-0.8,5.8c0.5,2.3,2.9,3.4,3.3,5.7c0.5,2.6-1,6.7-2.1,9.1
	c-2.1,4.8-2.5,9.4-5.4,13.7c-0.7,1.1-1.8,2.1-2.7,3.1c-3,3.5-6.2,7.1-10.4,9c-1.1,0.5-2.2,0.9-3.3,1.4c-1.6,0.7-3.7,1.8-5.2,2.7
	c-3,1.9-5.6,2.5-9,3.6c-4.4,1.5-9.1,3-13.7,2.4"/>
<path fill="#EAEAEA" stroke="#D6D6D6" stroke-miterlimit="10" d="M295.1,156.4c0.8,2.4,3.2,4.1,5.6,5.1c1.8,0.7,3.8,1.2,5.7,0.6
	c2.1-0.7,3.6-2.5,4.5-4.5c1.6-3.3,2-7.2,1.7-10.9c-0.3-3.7-1.2-7.3-2.2-10.9c-0.1-0.3-0.2-0.6-0.5-0.7c-0.2,0-0.4,0.1-0.6,0.2
	c-2.6,1.6-5.3,3.1-7.9,4.7c-0.6,0.4-1.3,0.8-1.8,1.3c-1.2,1.2-1.6,3-2.2,4.6c-0.6,1.7-1.5,3.4-2,5.1
	C294.8,152.8,294.5,154.7,295.1,156.4z"/>
<path fill="#EAEAEA" stroke="#D6D6D6" stroke-miterlimit="10" d="M303.3,76.7c-1.6-0.3-2.8-1.6-4.4-2c-1.7-0.4-3.7,0.5-5.3-0.4
	c-1.4-0.8-1.7-2.7-1.9-4.3c-0.1-1.2-0.3-2.4-0.4-3.6c0-0.3-0.1-0.6-0.2-0.8c-0.2-0.2-0.4-0.3-0.7-0.4c-2.5-0.7-4.1,1.3-6.2-0.2
	c-0.5-0.4-1.4-1-1.7-1.3c-0.7-0.9-1.4-1.7-2.5-1.8c-0.8,0-2.5,0.4-3.3,0.6c-1.4,0.3-2.8-0.3-4.1-0.7s-3-0.5-4,0.4
	c-1.3,1.1-1.1,3.2-0.2,4.7c0.8,1.5,2.1,2.7,2.8,4.2c0.7,1.5,0.8,3.3,1.6,4.8c1,2,3.1,3.3,5.2,4.2c2.1,0.9,4.3,1.4,6.3,2.6
	c0.6,0.3,1.1,0.7,1.7,1c0.8,0.3,1.6,0.3,2.4,0.4c2,0.1,4.3,0.4,5.5,2c0.5,0.6,0.8,1.4,1.2,2c1.9,3.3,6,5.1,7.1,8.7
	c0.4,1.2,0.3,2.5,0.7,3.7c0.7,2.7,3.1,4.6,5.4,6.3c0.6,0.5,1.3,1,2.1,1.1c2.2,0.4,3.8-2.1,6-2.8c0.8-0.3,1.7-0.4,2.2-1.1
	c0.3-0.4,0.4-0.9,0.5-1.4c0.6-2.3,3.1-4.1,3.8-6.3c0.8-2.2,0.4-4.7-0.2-6.9c-0.3-1-0.6-2.1-1.4-2.9c-1-1.1-3.2-1.5-4.2-2.6
	c-0.8-0.9-1.2-2.1-1.9-3.1c-2.7-4.3-6.2-3.3-8.4-0.8c-0.9,0.9-1.1-2.4-2.3-3C304,76.8,303.6,76.8,303.3,76.7z"/>
<path fill="#EAEAEA" stroke="#D6D6D6" stroke-miterlimit="10" d="M213.1,58.9c2.5-0.6,6.6-1.1,7-4.4c0.2-1.2-0.5-2.3-0.9-3.5
	c-1-2.6-1.1-5.8-3.3-7.6c-0.4-0.3-0.9-0.6-1.4-0.7c-0.5-0.1-0.9,0-1.4,0c-3.7,0.5-6.8,1.3-10.2,2.8c-0.6,0.3-1.3,0.6-1.7,1.1
	c-0.3,0.3-0.5,0.8-0.7,1.2c-1.9,3.5-6,5.2-9.8,6.6c-1.5,0.6-2.9,1.1-4.4,1.7c-1.3,0.5-2.8,1.1-3.5,2.3c-0.3,0.5-0.4,1.1-0.2,1.6
	c0.4,0.7,1.3,0.8,2.1,0.7c0.8-0.2,1.5-0.5,2.3-0.5c1.8,0.1,3,2,4.7,2.1c2.1,0.2,3.7-2.2,5.8-2.1c0.5,0,1,0.2,1.5,0.3
	c2.5,0.9,4,0.7,6.5-0.1C207.6,60,210.6,59.6,213.1,58.9z"/>
<path fill="none" stroke="#D6D6D6" stroke-miterlimit="10" d="M217.5,364.4c-0.7-2.4-1.1-4.9-0.6-7.4c0.8-4,4.5-7.6,8.5-7
	c0.7,0.1,1.5,0.3,2.2,0c1.1-0.4,1.4-1.8,2.3-2.5c1-0.7,2.9-1.3,3.9-0.7c1.1,0.7,3.2,1.8,4.4,2.2c1.9,0.7,2.3,0.9,4.2,0
	c1.3-0.6,3.1-0.9,3.9-2.1c0.8-1.1,0.9-5.1,1.1-6.6c0.5-4.8,1.5-9.7,2.4-14.4c1.8-9.4,4.5-18.6,3.4-28.2c-0.4-3.4-1.1-6.8-1.1-10.2
	c0-4.3,1.1-8.5,2.4-12.6c1.1-3.6,2.4-7.2,3.9-10.7c0.7-1.6,0.9-3.5,1.9-5c2.6-4.3,3.4-9.2,3.1-14.4c-0.1-2.2,1.7-4,2-6.2
	c1.2-7.4,7.3-15.6,10.8-20.4"/>
<path fill="#EAEAEA" stroke="#D6D6D6" stroke-miterlimit="10" d="M348.3,325.2c1.3,0.5,5.3,1.3,6.1,1.2c1.1-0.2,2.5-1.1,3.6-0.9
	c0.8,0.1,3.4,1.3,3.9,1.8c1,1,0.6,2,1.8,2.8c2.9,2,2.3,3.7,1.9,5.8c-0.2,0.8-0.6,1.6-1.2,2.3c-3.3,4.4-8.2,7.5-13.6,8.6
	c-2.9,0.5-5.8,0.5-8.8,0.7c-4.2,0.3-8.4,1-12.4,2.1c-1.3,0.4-2.6,0.7-3.8,0.4c-1.3-0.3-2.5-2.4-1.4-3.1c3.1-1.9,6.9-2.1,10-4.6
	c0.4-0.3,0.9-0.5,1.2-0.9c0.3-0.6,0.1-1.3-0.2-1.8c-1.8-3.3-5.9-4.4-9.1-6.5c-0.7-0.5-1.4-1.1-1.6-2c-0.3-1.4,1.1-2.6,2.4-3.1
	c1.3-0.5,2.8-2.1,4.1-1.4c1.3,0.8-0.3,3.2,0.3,4.6c0.6,1.4,3.1,3.4,3.8,2c0.9-1.8-2.4-5-0.6-6c1.7-1,3.7,1.7,5.4,0.8
	C345.5,325.1,347.4,324.8,348.3,325.2z"/>
<path fill="none" stroke="#D6D6D6" stroke-miterlimit="10" d="M246.6,346.7c0.5-0.3,3.7-0.6,4.4-0.8c2.8-0.9,5.6-3.5,7.9-5.3
	c3.9-3,7.7-0.3,11.8-5.3c1.3-1.6,2.2-3.6,3.8-4.9c2.1-1.8,5.2-1.9,7.9-1.6c2.7,0.4,5.5,1.2,8.2,1.1c4.3-0.2,6.6-2.6,11-2.3
	c2.2,0.2,5.2,1.5,7.2,2.2c4.3,1.4,10.8,2.3,15.2,1.5"/>
<path fill="none" stroke="#D6D6D6" stroke-miterlimit="10" d="M311.4,108.1c-0.1,1.7,2,3.9,2.8,5.3c0.2,0.4,1.8,3.8,1.8,4.3
	c0.2,1.8-1,3.2-1.7,4.9c-0.9,2.3-2.9,4.1-3.7,6.5c-0.5,1.6,0.1,4.6-0.7,6.1"/>
<path fill="none" stroke="#D6D6D6" stroke-miterlimit="10" d="M267.8,63.1c-0.9-0.5-2.6-0.6-2.8-1.2c-0.2-0.6-1.3-1.4-1.8-1.7
	c-2.5-1.1-3.5-0.8-6.1-0.1c-1,0.3-2.5,0.7-3.5,0.4c-1.4-0.4-2.5-2-3.2-3.2c-1-1.8-2.9-4-5-4.4c-2.4-0.4-3.8,2.3-5.7,3.9
	c-1.8,1.6-3.8,2.5-6.1,3.5c-0.5,0.2-1.5,0.1-2.1-0.3c-0.6-0.4-2.4-2.8-3.1-2.8c-3.9,0.1-5.3-0.2-8.6-2"/>
<path fill="none" stroke="#D6D6D6" stroke-miterlimit="10" d="M182.8,60.4c-1.6,1.6-4,0.8-6.3,4.1c-1.3,1.8-2.4,3-4.2,4.2
	c-1.3,0.9-4.5,1.7-5.6,2.9c-1,1-1.5,2.3-2,3.6c-1.2,2.9-2.8,5.7-4.6,8.3c-0.9,1.3-1.9,2.5-3.3,3.2c-2.4,1.3-5.1,0.3-7.8,0.1
	c-2.7-0.2-6.3-0.9-7.7,1.4c-1,1.6-0.7,5.3-0.8,7.2c-0.3,5-2.1,10.7-7,11.4c-7.3,1.1-5.5,4.5-6.8,5.5c-2.2,1.7-3.1,3.2-5.2,4.9
	c-3.5,2.7-7.9-3.7-11.4-1.1c-2,1.5,0.7,6.4-1.4,7c-2.6,0.8-0.2,3-2.1,3.3c-1.4,0.2-4.4,2.1-4.8,3.8c-0.3,1.6-0.5,3.6-1.1,5
	c-1.2,2.9-4.2,4.6-7.2,5.4c-3,0.9-6.1,1.1-9.1,2.1c-5,1.8-9.8,5.3-11.4,10.4"/>
<path fill="#7BBCEB" stroke="#4E9BD7" stroke-miterlimit="10" d="M192,178.1c-1.1-1.7-1-3.3-0.8-5.3s0.1-4.3-1.4-5.7
	c-0.7-0.7-1.6-1-2.4-1.6c-0.7-0.5-1.2-1.1-1.9-1.5c-2.2-1.3-5-0.7-7.5-0.8c-1.9-0.1-3.7-0.6-5.6-0.8c-2.2-0.2-4.5,0-6.7,0.7
	c-1.2,0.4-2.3,0.9-3.2,1.9c-1.6,1.9-1.3,4.7-1,7.2c0.1,0.5,0.2,1,0.1,1.6c-0.1,1.4-1.2,2.6-1.3,4c-0.2,2.2,2.1,3.9,2.5,6.1
	c0.3,1.4-0.2,2.8-0.1,4.1c0.4,3,3.5,7,6.3,5.9c0.6-0.2,0.6-1.3,1.1-1.7c0.6-0.4,1.4-0.4,1.8,0.1c0.2,0.2,0.2,0.5,0.3,0.7
	c0.7,3-0.5,7.5,2.2,8.9c2.3,1.2,2.4-2.6,4-2.5c1.2,0.1,2,1.4,2.3,2.6c0.3,1.2,0.8,3,1.8,3.7c1.3,0.9,2.9-0.1,4.1,0.7
	c0.6,0.4,1.2,1.2,1.9,1c0.5-0.1,2.7-3.4,2.9-3.9c0.9-2.3,0.3-2.5,1.1-4.8c0.8-2.5,1-4.3,1.8-6.8c0.6-1.8,1.2-3.7,1.2-5.6
	c0-2-0.1-4.5-1.4-6C193.9,179.7,192.6,178.9,192,178.1z"/>
<path fill="#FFFFFF" stroke="#4E9BD7" stroke-miterlimit="10" d="M166,178.5c0,0.7,0,1.5,0,2.2c0,0.9,0.2,1.3,0.9,1.9
	c0.4,0.4,1.1-1,1.1-1.6c0-0.7,0.1-1.4-0.1-2.1s-0.5-1.9-1.1-2.2C166.7,176.7,166,178,166,178.5z"/>
<path fill="none" stroke="#4E9BD7" stroke-miterlimit="10" d="M162.1,165.2c-3.5-4.3-7.3-8.3-11.9-11.5c-8.2-5.7-18.3-8.1-28.1-10.4
	c-1.4-0.3-2.9-0.6-4.2-0.1c-1.8,0.8-3,3-4.9,2.8c-0.9-0.1-1.7-0.7-2.6-0.7c-1.6,0-2.6,2.2-4.2,2.4c-1.9,0.2-3.6-2.4-5.4-1.6
	c-0.9,0.4-1.3,1.5-2,2.3c-2.5,2.7-8.2-1.6-11.8-0.7c-2,0.5-2.8,3.4-4.7,4.3c-1,0.5-1.6,0.7-2.7,0.9c-1,0.2-2.1-1.4-2.8-0.8
	c-1.7,1.4-4.6,2-6.2,1.2c-1-0.4-1,1.3-2,1.5c-0.9,0.2-1.8,0.3-2.7-0.1c-0.8-0.4-1.3-1.3-1.8-2.1c-1.4-2.6-2.7-5.2-4.1-7.8
	c-0.4-0.7-0.7-2.8-1.5-3.2c-1.4-0.8-5.2,2.6-6.2,3.8c-3.9,4.6-1.5,6.4-3.2,9.9c-0.8,1.7-1.1,3.1-2.6,4.4c-6.5,5.8-23.7,6.1-24.8,8.1
	c-1.7,2.9,3.1,4.3,1.8,5.7c-1.9,2.2-6.3,0.2-7.3,3c-0.4,1.1,0,3.6-0.5,4.6c-1.1,2.2-3.8,2.9-6.1,3.8c-4.3,1.6-8.3,4.1-11.6,7.3
	c-1.2,1.2-3,2.6-4.4,1.7c-1.6-1-0.9-3.6-2-5c-1.2-1.5-2.8,0-4.2,1.3c-0.2,0.2-0.5,0.3-0.7,0.5c-0.4,0.4-0.9,0.9-1.2,1.4
	c-0.4,0.7-0.6,1.6-1.2,2.1"/>
<path fill="#EAEAEA" stroke="#D6D6D6" stroke-miterlimit="10" d="M25.9,122.3c0.6-0.5,1.1-1.1,1.7-1.5c1.1-0.6,2.6-0.5,3.2-1.6
	c0.2-0.3,0.2-0.6,0.4-0.8c0.7-1.5,2.4-2.3,3.6-3.5c0.3-0.4,0.6-0.7,0.9-1.1c0.2-0.3,0.5-0.7,0.7-1c0.5-0.7,1.3-1.5,0.9-2.3
	c-0.1-0.2-0.3-0.4-0.5-0.5c-0.9-0.4-1.8,0.6-2.6,1.2c-0.8,0.7-1.5,1.5-2.4,1.8c-0.3,0.1-0.7,0.2-0.9,0.4c-0.4,0.2-0.6,0.7-0.9,1
	c-0.7,0.9-1.8,1.3-2.8,1.8c-1.1,0.5-2.1,1.2-3,2c-0.8,0.7-1.7,1.6-1.5,2.7c0.1,0.8,0,1.7,0.5,2.4C23.6,124.2,25.1,123,25.9,122.3z"
	/>
<path fill="#EAEAEA" stroke="#D6D6D6" stroke-miterlimit="10" d="M51.9,103.9c0.2-0.3,0.4-0.7,0.3-1c-0.1-0.3-0.4-0.4-0.8-0.5
	c-0.9-0.2-1.7,0.2-2.6,0.6c-0.9,0.4-1.8,0.8-2.6,1.2c-0.4,0.2-0.7,0.3-1,0.5c-1.5,0.9-2.9,2.8-2.2,4.4c0.6,1.4,3.1,0.8,3.8-0.5
	c0.1-0.2,0.2-0.5,0.4-0.7c0.2-0.2,0.4-0.3,0.6-0.4C49.5,106.8,50.9,105.5,51.9,103.9z"/>
<path fill="#EAEAEA" stroke="#D6D6D6" stroke-miterlimit="10" d="M54.7,87.7c-0.4-0.3-0.1-1.2-0.6-1.5c-2.1-1-6,2.9-4.5,4.7
	c0.8,1,2.4-0.8,3.7-1c0.3,0,0.4,0.5,0.3,0.8c-0.1,0.3-0.4,0.5-0.6,0.8c-0.7,0.9-0.8,2.3-0.2,3.3c0.6,1,2.1,2.2,3,1.4
	c0.4-0.4,0.4-1.1,0.8-1.6c0.7-0.8,1.8-1.2,2.7-1.8c0.9-0.6,1.8-1.5,1.7-2.6c0-0.3-0.2-0.7-0.4-1c-0.6-0.9-1.6-1.4-2.7-1.6
	C56.9,87.5,55.6,88.3,54.7,87.7z"/>
<path fill="#EAEAEA" stroke="#D6D6D6" stroke-miterlimit="10" d="M77.5,72.8c0.8-0.6,1.9-0.1,2.9-0.4c0.5-0.1,0.9-0.4,1.3-0.7
	c0.8-0.6,1.7-1.1,2.3-1.9c0.5-0.6,0.9-1.3,1.4-1.9c0.5-0.5,1-0.8,1.5-1.2s1-1.3,0.6-1.8c-0.6-0.6-1.6-0.7-2.4-0.4
	c-0.5,0.2-0.9,0.7-1.3,1.1c-2,2.3-4.6,3.9-6.9,5.8c-0.4,0.4-0.9,0.8-0.9,1.3c0,0.2,0.1,0.5,0.3,0.6C76.7,73.6,77.1,73.1,77.5,72.8z"
	/>
<path fill="#EAEAEA" stroke="#D6D6D6" stroke-miterlimit="10" d="M84.2,58.5c0.9-0.8,2.3-1.5,2.4-2.7c0-0.1,0-0.2-0.1-0.3
	c-0.1-0.1-0.2-0.1-0.3-0.2c-1-0.2-2.1-0.1-3.1,0.3c-0.8,0.4-1.6,1.1-1.7,2s0.7,1.9,1.6,1.7C83.4,59.2,83.8,58.8,84.2,58.5z"/>
<path fill="#EAEAEA" stroke="#D6D6D6" stroke-miterlimit="10" d="M56.8,36.5c0,0.1,0,0.3,0.1,0.4c0.1,0.2,0.4,0.3,0.6,0.4
	c0.2,0.1,0.5,0.2,0.7,0.2c0.1,0,0.2,0.1,0.3,0c0.2-0.1,0-0.4-0.1-0.5c-0.3-0.6,0.2-1.3,0.7-1.8s0.9-1.3,0.4-1.8
	c-0.5-0.6-1.5-0.1-1.9,0.5C57.1,34.6,56.8,35.5,56.8,36.5z"/>
<path fill="#EAEAEA" stroke="#D6D6D6" stroke-miterlimit="10" d="M35.7,54.9c0.5-0.2,0.7-0.8,0.5-1.3c-0.2-0.5-0.7-0.8-1.2-0.8
	c-0.7-0.1-1.6,0.6-1.3,1.3c0.1,0.3,0.5,0.5,0.8,0.7C34.9,54.9,35.3,55,35.7,54.9z"/>
<path fill="none" stroke="#D6D6D6" stroke-miterlimit="10" d="M3.4,69c0.4,0.1,0.7,0.3,1.1,0.3c0.4,0.1,0.8,0.3,0.7,0.7
	c0,0.2-0.1,0.3-0.2,0.4c-0.3,0.5-0.6,1-0.9,1.5c-0.1,0.2-0.3,0.4-0.2,0.7C4,73.1,4.6,73.3,5,73.1s0.7-0.6,1.1-0.9
	c0.4-0.3,0.9,0,1.3-0.2c0.6-0.3-0.2-1.7,0.4-2c1-0.6,2.3,0.2,3.5,0.4"/>
<path fill="none" stroke="#D6D6D6" stroke-miterlimit="10" d="M-4.3,71.4c0.6,0.9,0.6,2.1,0,3c-0.2,0.3-0.7,0.7-0.5,1
	c0.6,0.8,1.8,1.9,2.6,1.4c0.6-0.3,0-1.5,0.4-2c0.6-0.9,2,0,2.9,0.5c0.3,0.2,0.6,0.4,0.9,0.6c0.8,0.7,1.3,1.6,2.3,1.5"/>
<path fill="none" stroke="#D6D6D6" stroke-miterlimit="10" d="M115.5,30c-2.8,0.8-4.5,5.2-7,4.4c-2-0.7-0.9-4.2-0.4-6.3
	c0.2-0.6,0.4-1.3,0.2-1.9c-0.1-0.5-0.4-1-0.7-1.4c-1.1-1.8-1.7-3.9-1.7-5.9c0-1.2,0.2-2.7-0.7-3.5c-1.1-1.1-2.9-0.5-4.2,0.2
	c-1.3,0.8-2.8,1.7-4.2,1.1c-0.5-0.2-1-0.6-1.6-0.7c-0.7-0.1-1.4,0.2-2,0.5c-2.9,1.5-5.9,2.9-8.8,4.4c-1.4,0.7-2.8,1.4-3.9,2.6
	c-0.6,0.7-1.1,1.5-1.9,1.7c-0.6,0.2-1.3-0.1-2-0.1c-1.7,0.1-2.9,2.2-4.6,2.3c-0.6,0-1.2-0.2-1.8-0.2c-0.6,0.1-1.2,0.5-1.7,0.9
	c-1.1,0.9-2.1,1.8-3.2,2.7c-1.7,1.4-3.8,3-6,2.8"/>
<path fill="none" stroke="#D6D6D6" stroke-miterlimit="10" d="M58.5,37.2c1,1.1-0.1,2.4-1,2.9s-2,0.8-2.8,1.5
	c-0.6,0.4-1,1.1-1.5,1.6c-1.5,1.6-3.7,2.2-5.8,2.8c-1.4,0.4-2.7,0.8-4.1,1.2c-1.5,0.4-3.3,1.3-3.1,2.8c0.1,0.5,0.3,1.1,0.1,1.5
	c-0.1,0.2-0.4,0.3-0.5,0.6c-0.4,0.6,0.3,1.5,0.3,2.3c0.1,0.9-1.2,1.7-2,1.2c-0.7-0.4-1-1.6-1.9-1.7"/>
<path fill="none" stroke="#D6D6D6" stroke-miterlimit="10" d="M33.5,54.2c-0.9,0.3-3.1,1-2.9,2c0.1,0.6,1,1.2,0.5,1.5
	c-0.7,0.4-2-1-2.5-0.3c-0.7,0.8-1.2,2-2.1,1.5c-0.4-0.3-0.8-0.8-1.3-0.6c-0.4,0.1-0.5,0.6-0.7,1c-1,1.7-4.2-0.6-5.6,0.9
	c-0.4,0.5-0.5,1.2-0.6,1.8C18,63.1,17,64,16.3,65.1c-2.2,3.7-6.4,5.3-5.8,7.1c0.2,0.6,0.8,0.8,0.4,1.3c-0.5,0.6-1.8,0-2.1,0.7
	c-0.3,1-0.5,1.9-1.5,2.2c-1,0.2-2.2,0.2-2.9,0.9c-0.4,0.4-0.5,0.9-0.7,1.5c-0.3,1.2,0,2.4,0.8,3.4c0.8,1.1-1.2,2.4-2.4,3.1
	c-0.3,0.2-0.6,0.4-1,0.4c-0.4,0-0.8-0.1-1.1-0.1c-2.3-0.2-3.5,3-5.8,3.5c-0.6,0.1-1.2,0.1-1.8,0c-1.3-0.1-2.6-0.2-3.9-0.3"/>
<path fill="none" stroke="#D6D6D6" stroke-miterlimit="10" d="M-12.2,75.9c0.9-0.7,1.8-1.4,2.7-2.1c1.1-0.9,2.7-0.6,3.9-1.4
	c1.1-0.7,1.5-2.2,2.8-2.1c0.5,0,1,0.2,1.4,0c0.4-0.2,0.5-0.7,0.8-1c1.2-1.2,3.8,0.6,4.9-0.8c0.3-0.4,0.4-0.9,0.5-1.3
	c0.4-1,1.5-1.5,2.5-1.7c1-0.2,2.1,0,3.2,0c1.6,0,4.8-0.7,6.3-1.3"/>
<path fill="#EAEAEA" stroke="#D6D6D6" stroke-miterlimit="10" d="M28.2,54.8c0.3-1,0.5-2.1,1.3-2.8c0.4-0.4,0.9-0.7,1.2-1.2
	s0.4-1.2,0-1.5c-0.4-0.4-1-0.3-1.4,0c-0.4,0.3-0.7,0.7-1,1.2c-0.4,0.6-0.8,1.2-1.1,1.8c-0.3,0.5-0.6,0.9-0.7,1.5
	c-0.1,0.5,0,1.3,0.6,1.4C27.5,55.4,28.1,55.3,28.2,54.8z"/>
<path fill="#EAEAEA" stroke="#D6D6D6" stroke-miterlimit="10" d="M126.2,9.9c1.4-1.6,2.9-3.3,4.3-4.9c1.3-1.5,2.6-3,4.4-3.6
	c0.5-0.2,1-0.5,1.3-0.9c0.4-0.4,0.6-0.8,0.7-1.3c0.5-2,1.8-3.7,3.2-5.3c0.5-0.6,1-1.1,1.6-1.6c1.1-0.8,2.6-1,4-0.9
	c1.2,0.1,2.4,0.3,3.1,1.2c1.3,1.6,0,3.9-1.3,5.6c-1.3,1.6-2.5,3.3-3.8,4.9c-0.3,0.4-0.7,0.9-0.7,1.5c0,0.3,0.1,0.5,0.1,0.8
	c0,1-1.2,1.9-1.8,2.7c-1.5,2.1,1.6,4.7,0.4,6.9c-0.6,1.1-2,1.5-2.9,2.3c-0.5,0.5-0.9,1.2-1.4,1.7c-0.5,0.5-1.1,0.8-1.6,1.1
	c-1.7,0.9-3.5,1.8-5.2,2.7c-1.5,0.8-3.1,1.6-4.1,2.9c-0.7,0.8-1.1,1.8-1.8,2.7c-1.5,2.1-4.2,3.4-6.8,3.3c-1.2,0-2.5-0.5-2.2-1.6
	c1-3.7,6.3-4.6,7.5-8.2c0.8-2.4-0.3-5,0.2-7.4C123.8,12.6,125,11.2,126.2,9.9z"/>
<path fill="none" stroke="#D6D6D6" stroke-miterlimit="10" d="M172.9,83.5c-0.9,0.7-2,1-3.2,1.3c-1.4,0.3-2.9,0.7-4.3,1
	c-0.4,0.1-0.8,0.2-1.1,0.4c-0.6,0.4-0.9,1.3-1.7,1.5c-0.6,0.1-1.4-0.2-1.7,0.4"/>
<path fill="none" stroke="#D6D6D6" stroke-miterlimit="10" d="M320.2,100c1.1-0.3,2.2-0.6,3.3-0.9c0.6-0.2,1.2-0.3,1.8-0.1
	c0.6,0.2,0.5,0.8,0.6,1.4c0.1,0.5,1,0.2,1.5,0.2c1.1,0.1,2.2,0.9,2.4,2.1"/>
<path fill="none" stroke="#D6D6D6" stroke-miterlimit="10" d="M335.2,116.3c-0.5,0.9-1.1,1.8-1.6,2.7c-0.3,0.5-0.6,1.3-0.1,1.7
	c0.3,0.2,0.8,0.1,1.2,0.3c0.3,0.2,0.4,0.5,0.5,0.8c0.3,0.9,0.6,1.7,0.9,2.6"/>
<path fill="#EAEAEA" stroke="#D6D6D6" stroke-miterlimit="10" d="M329.8,102.5c0.5-0.7,1.9-0.6,2.5,0.1c0.2,0.3,0.3,0.7,0.5,1.1
	c0.2,0.3,0.5,0.5,0.7,0.7c1.6,1.3,3.1,2.7,4.4,4.2c0.9,1,1.8,2.3,1.6,3.6c-0.1,0.6-0.4,1.2-0.8,1.7c-0.3,0.4-0.5,0.8-0.8,1.1
	c-1,1-2.7,1.8-3.8,1c-2.3-1.7-3.3-4.8-3.5-7.7c-0.1-0.8,0-1.6-0.1-2.3C330.3,104.9,329.1,103.5,329.8,102.5z"/>
<path fill="#EAEAEA" stroke="#D6D6D6" stroke-miterlimit="10" d="M157.5,86.2c-0.4,0.7-0.4,1.6,0.2,2.2c0.5,0.6,1.5,0.7,2.2,0.4
	c0.7-0.4,1.1-1.3,1.1-2.1c0-0.8-0.3-1.6-0.5-2.4c-0.1-0.2-0.2-0.4-0.4-0.4c-0.2,0-0.3,0.1-0.4,0.2c-0.6,0.5-1.1,1.1-1.7,1.6
	C157.8,85.8,157.6,86,157.5,86.2z"/>
<path fill="#EAEAEA" stroke="#D6D6D6" stroke-miterlimit="10" d="M221.3,359.9c0,0.5,0.1,1.1,0.3,1.6c0.2,0.4,0.4,0.8,0.9,1
	c0.8,0.3,1.7-0.6,1.6-1.4c0-0.4-0.2-0.7-0.3-1c-0.2-0.4-0.4-0.8-0.7-1.1c-0.3-0.3-0.8-0.4-1.2-0.2
	C221.4,358.9,221.3,359.4,221.3,359.9z"/>
<path fill="none" stroke="#D6D6D6" stroke-miterlimit="10" d="M-0.3,308.1c1.6-1.2,3.4-2.2,5.3-2.8c0.6-0.2,1.2-0.3,1.8-0.2
	c1,0.2,1.7,1,2.4,1.8c2.1,2.2,4.9,3.5,7.6,4.8c1.5,0.7,3.1,1.5,4.7,1.6c1.8,0.2,3.8-0.4,5.5,0.2c1.5,0.5,2.6,1.9,4.1,2.4
	c3.1,1,6.5-2.2,9.5-1c0.8,0.3,1.4,0.8,2.1,1.3c1.7,1,3.6,1.4,5.5,1.7c1.4,0.3,2.8,0.5,4.2,0.2c0.7-0.1,1.5-0.4,2.2-0.5
	c1.1-0.1,2.3,0.2,3.4,0.4c2.2,0.4,4.4,0.2,6.7,0c1.5-0.1,3-0.3,4.6-0.4c0.7-0.1,1.4-0.2,2,0.2c2,1.3,4.1,2.9,6.5,3.1"/>
<path fill="none" stroke="#D6D6D6" stroke-miterlimit="10" d="M261,339.5c0.1-0.4,0.3-0.7,0.6-0.9c1.7-1.6,4.7-1.6,6-3.5
	c0.3-0.5,0.5-1,1-1.3c0.2-0.1,0.4-0.1,0.6-0.2c1-0.1,2-0.3,3.1-0.4"/>
<path fill="none" stroke="#585858" stroke-miterlimit="10" stroke-dasharray="4,1" d="M233.5,361.7c0.1-0.3,0.2-0.7,0.3-1
	c1.4-4.9,4.7-9.1,7.2-13.6c3.2-5.8,5.2-12.4,5.8-19c0.4-5.3,0.1-11,2.9-15.5c0.3-0.5,0.6-1,0.6-1.5c0-0.5-0.4-0.9-0.7-1.3
	c-1.3-1.3-3.4-1.7-4.5-3.3c-0.7-1.1,1.5-1.9,2.7-2.2c1.2-0.3,3.3-1.7,2.3-2.5c-1.4-1-5.2-0.2-4.8-2c0.5-2.3,5.7-0.9,6.3-3.2
	c0.4-1.6-2.9-1.1-4-2.3c-1.4-1.5,2.3-3.2,3.8-4.5c1.5-1.3,2.9-3.6,1.7-5.3c-1.5-2.2-6.1,0.5-7.5-1.8c-0.9-1.5,1.9-3.4,1.3-5.1
	c-0.4-1.1-1.8-1.7-2.9-1.5c-1.2,0.2-2.2,0.8-3.2,1.5c-4.6,3.2-9,6.7-13.1,10.4c-1.4,1.3-3,2.7-4.9,3.1c-1.4,0.3-2.9,0-4.3-0.3
	c-1.8-0.4-3.7-0.8-5-2.1c-1.3-1.3,1.8-4.1,0.3-5.1c-5.5-3.5-6.5-5.7-7.5-10.8c-1.3-6.7-10.3,0-20.4-9.2c-5-4.6-8.4-10.6-11.6-16.6
	c-3.2-6-6.5-12.1-11.7-16.5c-3-2.5-6.5-4.4-9.5-7c-3.9-3.4-3.2-5.9-6-10.3c-2.4-3.8-9.2-7.5-8.5-14.3c0.9-9.2,8.6-15.7,14.6-22.8
	c8.1-9.5,11.5-22.2,12.4-34.6c0.9-12.4-0.5-24.9-1-37.4c-0.3-7.1-0.2-14.4-2.1-21.3c-2.3-8.5-10.1-24.4-12.2-33
	c-1.8-7.2,1.3-12.1,8.8-16.8c4.1-2.5,7.6-3.9,11.5-6.8c1.9-1.4,3.2-4,4.7-5.8c2.4-2.9,6.8-3.1,9.7-5.4c0.9-0.8,1.8-1.9,1.6-3.1
	c-0.2-1-1.1-2-0.7-3c0.2-0.4,0.5-0.7,0.8-1.1c0.7-1,0.5-2.3,0.7-3.4c0.4-2.3,2.5-3.9,4.1-5.7c0.7-0.8,1.4-1.7,1.9-2.7"/>
<path fill="none" stroke="#585858" stroke-miterlimit="10" stroke-dasharray="4,1" d="M-25,200c10.7-11.6,21.3-23.2,32-34.8
	c0.8-0.9,1.7-1.8,2.8-2.3c1.3-0.6,2.9-0.5,4.3-0.5c5.4,0.1,10.7-0.6,15.8-2.3c2.3-0.7,4.6-1.7,6.4-3.4c1.9-1.9,2.9-4.4,4.1-6.8
	c3.2-6.7,9.4-13.4,15.9-16.9c13.8-7.5,16.3-2.2,19.6-4.8c2.4-1.9,2.6-5.5,5.2-6.8c2.7-1.4,5.6-2.2,8.6-2.7
	c11.2-1.9,21.7-7.7,31.1-15.6c1.9-1.6,3.4-3.8,4.4-6.1c0.7-1.7,0.9-3.7,2.2-5c2.2-2,7-1.9,6.5-4.8c-0.2-1.2-1.4-2-1.6-3.1
	c-0.1-0.8,0.3-1.6,0.7-2.3c7.4-11.9,26.1-10.5,35.6-20.8c3.2-3.4,7.6-4.3,11.8-6.3c2.1-1,4.1-2,6.1-3.2c3.4-2.1,6.4-5,9.7-7.3
	c11.6-8.4,26.9-11.2,37.4-20.9c4.3-3.9,9.3-6.5,13.6-10.4c1.8-1.7,3.7-3.3,5.5-5c1.5-1.4,3.1-2.8,4.4-4.4c1.5-1.9,2.7-4,3.6-6.3"/>
<path fill="none" stroke="#585858" stroke-miterlimit="10" stroke-dasharray="4,1" d="M-24.5,120c4.7-4.7,10.6-8.3,17-10.2
	c1.8-0.6,3.7-1,5.3-1.9c1.3-0.7,2.5-1.7,3.6-2.7c4.5-3.6,9.8-6.2,15-8.7c5.3-2.6,14.3-8.5,20.1-9.5c8.2-1.5,13.3-2.9,21.2-5.5
	c2.9-0.9,5.3,1.6,7.8-0.1c1.5-1,2.9-2.2,4-3.7c8.2-12,26.6-23.9,41-34.5c1.2-0.9,2.3-1.7,3.7-2.2c1.7-0.6,3.6-0.6,5.5-0.6
	c10.5-0.3,20.9-4.5,28.6-11.7c1.5-1.4,3.2-2.5,4.2-4.3c0.9-1.7,2.8-2.9,4.8-3c1.9-0.1,4,0.2,5.7-0.9c0.7-0.5,1.3-1.1,1.9-1.6
	c2.2-1.6,5.6-1.6,7.1-3.8c1-1.5,1-3.7,2.5-4.7c0.8-0.5,1.8-0.6,2.7-0.9c1.6-0.6,2.8-2.1,3.8-3.6c1.5-2.1,2.9-4.2,4-6.5
	c0.5-1.1,0.9-2.2,1.2-3.3"/>
<path fill="none" stroke="#585858" stroke-miterlimit="10" stroke-dasharray="4,1" d="M140.9,17.6c1.6-0.9,2.5-2.8,2.8-4.6
	s0.3-3.7,0.6-5.6c0.4-2,1.2-4,2.4-5.7c1.1-1.6,3.7-4.1,4.8-2.6c1,1.4,1.7,3.4,3.5,3.1c0.8-0.1,1.5-0.6,2.3-0.9
	c1.7-0.6,3.5-0.3,5.3-0.3c1.8,0,3.8-0.4,4.7-2c0.3-0.6,0.5-1.3,1-1.7c0.6-0.6,1.5-0.7,2.3-0.7c1.3-0.1,2.6-0.2,3.9-0.2
	c0.9,0,1.7-0.1,2.6,0.2c1.2,0.4,2.2,1.3,2.8,2.4c1.2,1.8,1.7,4.1,1.5,6.3"/>
<text transform="matrix(1 0 0 1 68.5186 305.734)"><tspan x="0" y="0" fill="#585858" font-family="'Verdana-Italic'" font-size="8">Vogelsang</tspan><tspan x="22.2" y="9.6" fill="#585858" font-family="'Verdana-Italic'" font-size="8">Peak</tspan></text>
<text transform="matrix(1 0 0 1 209.4438 269.5665)"><tspan x="0" y="0" fill="#585858" font-family="'Verdana-Italic'" font-size="8">Vogelsang</tspan><tspan x="0" y="9.6" fill="#585858" font-family="'Verdana-Italic'" font-size="8">Pass</tspan></text>
<text transform="matrix(1 0 0 1 113.5041 310.734)" fill="#585858" font-family="'Verdana-Italic'" font-size="8">× 11493</text>
<text transform="matrix(1 0 0 1 224.0767 113.3481)"><tspan x="0" y="0" fill="#585858" font-family="'Verdana-Italic'" font-size="8">Fletcher</tspan><tspan x="13" y="9.6" fill="#585858" font-family="'Verdana-Italic'" font-size="8">Peak</tspan></text>
<text transform="matrix(1 0 0 1 259.7541 118.484)" fill="#585858" font-family="'Verdana-Italic'" font-size="8">× 11410</text>
<text transform="matrix(1 0 0 1 294.2932 62.484)"><tspan x="0" y="0" fill="#585858" font-family="'Verdana-Italic'" font-size="8">Townsley</tspan><tspan x="0" y="9.6" fill="#585858" font-family="'Verdana-Italic'" font-size="8">Lake</tspan></text>
<text transform="matrix(1 0 0 1 283.5783 171.234)"><tspan x="0" y="0" fill="#585858" font-family="'Verdana-Italic'" font-size="8">Hanging Basket</tspan><tspan x="44.2" y="9.6" fill="#585858" font-family="'Verdana-Italic'" font-size="8">Lake</tspan></text>
<text transform="matrix(1 0 0 1 184.5432 71.484)"><tspan x="0" y="0" fill="#585858" font-family="'Verdana-Italic'" font-size="8">Fletcher</tspan><tspan x="0" y="9.6" fill="#585858" font-family="'Verdana-Italic'" font-size="8">Lake</tspan></text>
<text transform="matrix(1 0 0 1 319.0432 312.234)"><tspan x="0" y="0" fill="#585858" font-family="'Verdana-Italic'" font-size="8">Gallison</tspan><tspan x="0" y="9.6" fill="#585858" font-family="'Verdana-Italic'" font-size="8">Lake</tspan></text>
<text transform="matrix(1 0 0 1 198.0432 176.984)"><tspan x="0" y="0" fill="#7BBCEB" font-family="'Verdana-Italic'" font-size="8">Vogelsang</tspan><tspan x="0" y="9.6" fill="#7BBCEB" font-family="'Verdana-Italic'" font-size="8">Lake</tspan></text>
<path fill="none" d="M17.8,340.4c9.5-9.1,22.4-15.2,36.1-20.3"/>
<text transform="matrix(0.8364 -0.5481 0.5481 0.8364 27.074 336.024)"><tspan x="0" y="0" fill="#7D7D7D" font-family="'Verdana-Italic'" font-size="7">1</tspan><tspan x="4.3" y="0" fill="#7D7D7D" font-family="'Verdana-Italic'" font-size="7" rotate="2.9">0</tspan><tspan x="8.7" y="0.2" fill="#7D7D7D" font-family="'Verdana-Italic'" font-size="7" rotate="5.5">2</tspan><tspan x="13" y="0.6" fill="#7D7D7D" font-family="'Verdana-Italic'" font-size="7" rotate="7.6">0</tspan><tspan x="17.3" y="1.2" fill="#7D7D7D" font-family="'Verdana-Italic'" font-size="7" rotate="9.4">0</tspan></text>
<path fill="none" d="M48,32.8c3.4-2.1,6.9-4.1,10.1-6.6c2.6-2.1,7.3-7,10.1-8.9"/>
<text transform="matrix(0.8483 -0.5296 0.5296 0.8483 52.2283 33.2496)"><tspan x="0" y="0" fill="#7D7D7D" font-family="'Verdana-Italic'" font-size="7">9</tspan><tspan x="4.6" y="0" fill="#7D7D7D" font-family="'Verdana-Italic'" font-size="7" rotate="-3.8">8</tspan><tspan x="9.3" y="-0.3" fill="#7D7D7D" font-family="'Verdana-Italic'" font-size="7" rotate="-10.1">0</tspan><tspan x="13.7" y="-1.1" fill="#7D7D7D" font-family="'Verdana-Italic'" font-size="7" rotate="-11.1">0</tspan></text>
<path fill="none" d="M302,266.1c0.2,0.2,4.6,3.5,4.9,3.6c5.9,2.1,9.7,5.5,14.5,8.3c1.1,0.6,2.1,1.2,3.3,1.6"/>
<text transform="matrix(0.8045 0.5939 -0.5939 0.8045 301.7288 269.1188)"><tspan x="0" y="0" fill="#7D7D7D" font-family="'Verdana-Italic'" font-size="7">1</tspan><tspan x="5" y="-0.2" fill="#7D7D7D" font-family="'Verdana-Italic'" font-size="7" rotate="-12.9">1</tspan><tspan x="9" y="-1.1" fill="#7D7D7D" font-family="'Verdana-Italic'" font-size="7" rotate="-5.5">2</tspan><tspan x="13.3" y="-1.5" fill="#7D7D7D" font-family="'Verdana-Italic'" font-size="7" rotate="-2.5">0</tspan><tspan x="17.9" y="-1.7" fill="#7D7D7D" font-family="'Verdana-Italic'" font-size="7" rotate="-5.1">0</tspan></text>
<path fill="none" d="M185,110.4c2.2-4.5,5.2-8.6,8.4-12.6c7-8.7,14.8-17,24.6-22.4"/>
<text transform="matrix(0.5015 -0.8652 0.8652 0.5015 187.6614 110.6925)"><tspan x="0" y="0" fill="#7D7D7D" font-family="'Verdana-Italic'" font-size="7">1</tspan><tspan x="4.3" y="0" fill="#7D7D7D" font-family="'Verdana-Italic'" font-size="7" rotate="4.6">0</tspan><tspan x="8.5" y="0.4" fill="#7D7D7D" font-family="'Verdana-Italic'" font-size="7" rotate="7.6">4</tspan><tspan x="12.9" y="0.9" fill="#7D7D7D" font-family="'Verdana-Italic'" font-size="7" rotate="9.2">0</tspan><tspan x="17.2" y="1.6" fill="#7D7D7D" font-family="'Verdana-Italic'" font-size="7" rotate="10.8">0</tspan></text>
<path fill="none" d="M55.3,221.7c1.4-4.2,3.5-8,5.6-11.9c3.7-6.8,7.5-13.7,12.4-19.7"/>
<text transform="matrix(0.4651 -0.8852 0.8852 0.4651 60.2722 216.4781)"><tspan x="0" y="0" fill="#7D7D7D" font-family="'Verdana-Italic'" font-size="7">1</tspan><tspan x="4.4" y="0" fill="#7D7D7D" font-family="'Verdana-Italic'" font-size="7" rotate="0.9">0</tspan><tspan x="8.8" y="0.1" fill="#7D7D7D" font-family="'Verdana-Italic'" font-size="7" rotate="1.4">0</tspan><tspan x="13.2" y="0.2" fill="#7D7D7D" font-family="'Verdana-Italic'" font-size="7" rotate="2.6">0</tspan><tspan x="17.6" y="0.4" fill="#7D7D7D" font-family="'Verdana-Italic'" font-size="7" rotate="4.7">0</tspan></text>
<path fill="none" d="M167.8,327.2c4.3-8.7,11.1-14.4,17.8-22c4.6-5.2,12-14.6,10.6-17.5"/>
<text transform="matrix(0.6868 -0.7268 0.7268 0.6868 181.5564 313.4225)"><tspan x="0" y="0" fill="#7D7D7D" font-family="'Verdana-Italic'" font-size="7">1</tspan><tspan x="4.5" y="0" fill="#7D7D7D" font-family="'Verdana-Italic'" font-size="7" rotate="-1.1">0</tspan><tspan x="9" y="-0.1" fill="#7D7D7D" font-family="'Verdana-Italic'" font-size="7" rotate="-3.2">8</tspan><tspan x="13.6" y="-0.3" fill="#7D7D7D" font-family="'Verdana-Italic'" font-size="7" rotate="-5.4">0</tspan><tspan x="18.2" y="-0.8" fill="#7D7D7D" font-family="'Verdana-Italic'" font-size="7" rotate="-8.6">0</tspan></text>
<g>
	<g>
		<polyline fill="none" stroke="#7D7D7D" stroke-miterlimit="10" points="85.2,341.6 85.2,348.7 275.4,348.7 275.4,341.7 		"/>
		<line fill="none" stroke="#7D7D7D" stroke-miterlimit="10" x1="180.5" y1="341.4" x2="180.5" y2="348.7"/>
		<line fill="none" stroke="#7D7D7D" stroke-miterlimit="10" x1="161.2" y1="349.2" x2="161.2" y2="343.7"/>
		<line fill="none" stroke="#7D7D7D" stroke-miterlimit="10" x1="142.4" y1="349.2" x2="142.4" y2="343.7"/>
		<line fill="none" stroke="#7D7D7D" stroke-miterlimit="10" x1="123.3" y1="349.2" x2="123.3" y2="343.5"/>
		<line fill="none" stroke="#7D7D7D" stroke-miterlimit="10" x1="104.6" y1="349.2" x2="104.6" y2="343.7"/>
	</g>
	<text transform="matrix(1 0 0 1 83.7834 339.1467)" fill="#7D7D7D" font-family="'Verdana'" font-size="8">0</text>
	<text transform="matrix(1 0 0 1 174.2945 339.1467)" fill="#7D7D7D" font-family="'Verdana'" font-size="8">0.5</text>
	<text transform="matrix(1 0 0 1 258.3414 339.1467)" fill="#7D7D7D" font-family="'Verdana'" font-size="8">1 mi</text>
</g>
</svg>
