<?xml version="1.0" encoding="utf-8"?>
<!-- Generator: Adobe Illustrator 17.1.0, SVG Export Plug-In . SVG Version: 6.00 Build 0)  -->
<!DOCTYPE svg PUBLIC "-//W3C//DTD SVG 1.1//EN" "http://www.w3.org/Graphics/SVG/1.1/DTD/svg11.dtd">
<svg version="1.1" id="Layer_1" xmlns="http://www.w3.org/2000/svg" xmlns:xlink="http://www.w3.org/1999/xlink" x="0px" y="0px"
	 viewBox="0 0 360 360" enable-background="new 0 0 360 360" xml:space="preserve">
<path fill="#EAEAEA" stroke="#D6D6D6" stroke-miterlimit="10" d="M293.1,128c0.8,2.4,3.2,4.1,5.6,5.1c1.8,0.7,3.8,1.2,5.7,0.6
	c2.1-0.7,3.6-2.5,4.5-4.5c1.6-3.3,2-7.2,1.7-10.9c-0.3-3.7-1.2-7.3-2.2-10.9c-0.1-0.3-0.2-0.6-0.5-0.7c-0.2,0-0.4,0.1-0.6,0.2
	c-2.6,1.6-5.3,3.1-7.9,4.7c-0.6,0.4-1.3,0.8-1.8,1.3c-1.2,1.2-1.6,3-2.2,4.6c-0.6,1.7-1.5,3.4-2,5.1
	C292.7,124.3,292.5,126.2,293.1,128z"/>
<path fill="#EAEAEA" stroke="#D6D6D6" stroke-miterlimit="10" d="M301.2,48.2c-1.6-0.3-2.8-1.6-4.4-2c-1.7-0.4-3.7,0.5-5.3-0.4
	c-1.4-0.8-1.7-2.7-1.9-4.3c-0.1-1.2-0.3-2.4-0.4-3.6c0-0.3-0.1-0.6-0.2-0.8c-0.2-0.2-0.4-0.3-0.7-0.4c-2.5-0.7-4.1,1.3-6.2-0.2
	c-0.5-0.4-1.4-1-1.7-1.3c-0.7-0.9-1.4-1.7-2.5-1.8c-0.8,0-2.5,0.4-3.3,0.6c-1.4,0.3-2.8-0.3-4.1-0.7c-1.4-0.4-3-0.5-4,0.4
	c-1.3,1.1-1.1,3.2-0.2,4.7c0.8,1.5,2.1,2.7,2.8,4.2c0.7,1.5,0.8,3.3,1.6,4.8c1,2,3.1,3.3,5.2,4.2c2.1,0.9,4.3,1.4,6.3,2.6
	c0.6,0.3,1.1,0.7,1.7,1c0.8,0.3,1.6,0.3,2.4,0.4c2,0.1,4.3,0.4,5.5,2c0.5,0.6,0.8,1.4,1.2,2c1.9,3.3,6,5.1,7.1,8.7
	c0.4,1.2,0.3,2.5,0.7,3.7c0.7,2.7,3.1,4.6,5.4,6.3c0.6,0.5,1.3,1,2.1,1.1c2.2,0.4,3.8-2.1,6-2.8c0.8-0.3,1.7-0.4,2.2-1.1
	c0.3-0.4,0.4-0.9,0.5-1.4c0.6-2.3,2.4-4.1,3.2-6.3c0.8-2.2,0.4-4.7-0.2-6.9c-0.3-1-0.6-2.1-1.4-2.9c-1-1.1-2.6-1.5-3.6-2.6
	c-0.8-0.9-1.2-2.1-1.9-3.1c-2.7-4.3-6.2-3.3-8.4-0.8c-0.9,0.9-1.1-2.4-2.3-3C302,48.3,301.6,48.3,301.2,48.2z"/>
<path fill="#EAEAEA" stroke="#D6D6D6" stroke-miterlimit="10" d="M210.4,30.3c2.5-0.6,7-1.3,7.4-4.5c0.2-1.2-0.5-2.3-0.9-3.5
	c-1-2.6-1-5.9-3.2-7.7c-0.4-0.3-0.9-0.6-1.4-0.7c-0.5-0.1-0.9,0-1.4,0c-3.7,0.5-7.3,1.5-10.7,3c-0.6,0.3-1.3,0.6-1.7,1.1
	c-0.3,0.3-0.5,0.8-0.7,1.2c-1.9,3.5-6,5.2-9.8,6.6c-1.5,0.6-2.9,1.1-4.4,1.7c-1.3,0.5-2.8,1.1-3.5,2.3c-0.3,0.5-0.4,1.1-0.2,1.6
	c0.4,0.7,1.3,0.8,2.1,0.7c0.8-0.2,1.5-0.5,2.3-0.5c1.8,0.1,3,2,4.7,2.1c2.1,0.2,3.7-2.2,5.8-2.1c0.5,0,1,0.2,1.5,0.3
	c2.5,0.9,3.9,0.9,6.5,0.4C205.4,31.8,207.9,30.9,210.4,30.3z"/>
<path fill="none" stroke="#D6D6D6" stroke-miterlimit="10" d="M194.7,376.7c2.3-5.9,8.1-10.3,14.4-11.1c1.2-0.1,2.4-0.2,3.6-0.6
	c3.1-1.1,4.5-5.2,2.9-8c-0.4-0.6-0.9-1.2-1.1-1.9c-1.1-3.1,3.4-5.3,4.3-8.5c0.6-2.2-0.5-4.4-1.5-6.4c-1.8-3.6-3.1-7.7-2.3-11.7
	c0.8-4,4.5-7.6,8.5-7c0.7,0.1,1.5,0.3,2.2,0c1.1-0.4,1.4-1.8,2.3-2.5c1-0.7,2.5-0.3,3.5,0.3c1.1,0.7,2,1.6,3.1,2.1
	c1.9,0.7,4,0,5.9-0.8c1.3-0.6,4.3-1,5.2-2.2c0.8-1.1,0.4-4.9,0.6-6.3c0.5-4.8,1.5-9.5,2.4-14.3c1.8-9.4,3.8-18.9,2.8-28.5
	c-0.4-3.4-1.1-6.8-1.1-10.2c0-4.3,1.1-8.5,2.4-12.6c1.1-3.6,2.4-7.2,3.9-10.7c0.7-1.6,0.9-3.5,1.9-5c2.6-4.3,3.4-9.2,3.1-14.4
	c-0.1-2.2,1.7-4,2-6.2c1.2-7.4,7.3-15.6,10.8-20.4"/>
<path fill="#EAEAEA" stroke="#D6D6D6" stroke-miterlimit="10" d="M347.9,297.8c1.4,0,4.1,1,4.8,0.9c1.1-0.2,2-1.3,3.2-1.1
	c0.8,0.1,3.4,0.6,3.9,1.2c1,1-0.2,1.6,0.9,2.4c2.9,2,3.1,4.1,2.7,6.2c-0.2,0.8-0.6,1.6-1.2,2.3c-3.3,4.4-8.2,7.5-13.6,8.6
	c-2.9,0.5-5.8,0.5-8.8,0.7c-4.2,0.3-8.4,1-12.4,2.1c-1.3,0.4-2.6,0.7-3.8,0.4s-2.5-2.4-1.4-3.1c3.1-1.9,6.9-2.1,10-4.6
	c0.4-0.3,0.9-0.5,1.2-0.9c0.3-0.6,0.1-1.3-0.2-1.8c-1.8-3.3-5.9-4.4-9.1-6.5c-0.7-0.5-1.4-1.1-1.6-2c-0.3-1.4,1.1-2.6,2.4-3.1
	c1.3-0.5,2.8-2.1,4.1-1.4c1.3,0.8-0.3,3.2,0.3,4.6s3.1,3.4,3.8,2c0.9-1.8-2.4-5-0.6-6c1.7-1,3.7,1.6,5.4,0.8
	C345.5,296,344.3,297.7,347.9,297.8z"/>
<path fill="none" stroke="#D6D6D6" stroke-miterlimit="10" d="M245.8,318.1c0.5-0.3,1.8-0.7,2.6-0.5c2.8,1,5-2.5,7.4-4.4
	c3.9-3,9.7-3,13-6.6c1.4-1.5,2.2-3.6,3.8-4.9c2.1-1.8,5.2-1.9,7.9-1.6c2.7,0.4,5.5,1.2,8.2,1.1c4.3-0.2,6.6-2.6,11-2.3
	c2.2,0.2,5.2,1.5,7.2,2.2c4.3,1.4,10.8,2.3,15.2,1.5"/>
<path fill="none" stroke="#D6D6D6" stroke-miterlimit="10" d="M309.3,79.6c-0.1,1.7,2,3.9,2.8,5.3c0.2,0.4,1.8,3.8,1.8,4.3
	c0.2,1.8-1,3.2-1.7,4.9c-0.9,2.3-2.9,4.1-3.7,6.5c-0.5,1.6,0.1,4.6-0.7,6.1"/>
<path fill="none" stroke="#D6D6D6" stroke-miterlimit="10" d="M265.7,34.6c-0.9-0.5-1.7-1.1-2-1.6c-0.2-0.6-0.8-0.9-1.4-1.1
	c-2.5-1.1-5.3-1.3-7.9-0.6c-1,0.3-2,0.7-3,0.4c-1.4-0.4-2.1-1.9-2.8-3.2c-1-1.8-2.6-3.5-4.7-3.8c-2.4-0.4-4.8,1-6.7,2.6
	s-3.5,3.6-5.8,4.6c-0.5,0.2-1.5,0.1-2.1-0.3c-0.6-0.4-2.4-2.8-3.1-2.8c-3.9,0.1-5.3-0.2-8.6-2"/>
<path fill="none" stroke="#D6D6D6" stroke-miterlimit="10" d="M179.9,31.5c-0.7,0.9-5,2.8-6.6,4.4c-1.6,1.5-2.9,3.4-4.7,4.7
	c-1.3,0.9-2.9,1.5-4.1,2.6c-1,1-1.5,2.3-2,3.6c-1.2,2.9-2.8,5.7-4.6,8.3c-0.9,1.3-1.9,2.5-3.3,3.2c-2.4,1.3-5.3,0.8-8.1,0.6
	c-2.7-0.2-5.9,0.2-7.3,2.6c-1,1.6-0.7,3.7-0.8,5.6c-0.3,5-3.4,9.8-7.8,12.1c-1.4,0.7-3,1.3-4.3,2.2c-2.2,1.7-3.3,4.5-5.5,6.2
	c-3.5,2.7-9.1-1.6-12.7,0.9c-3.6,2.6-2.5,8.6-5.7,11.5c-0.8,0.7-1.7,1.4-2.3,2.4c-0.8,1.3-0.9,3-1.5,4.4c-1.2,2.9-4.2,4.6-7.2,5.4
	c-3,0.9-6.1,1.1-9.1,2.1c-5,1.8-9.1,6-10.6,11"/>
<path fill="#7BBCEB" stroke="#4E9BD7" stroke-miterlimit="10" d="M190,149.6c-1.1-1.7-1-3.3-0.8-5.3s0.1-4.3-1.4-5.7
	c-0.7-0.7-1.6-1-2.4-1.6c-0.7-0.5-1.2-1.1-1.9-1.5c-2.2-1.3-5-0.7-7.5-0.8c-1.9-0.1-3.7-0.6-5.6-0.8c-2.2-0.2-4.5,0-6.7,0.7
	c-1.2,0.4-2.3,0.9-3.2,1.9c-1.6,1.9-1.3,4.7-1,7.2c0.1,0.5,0.2,1,0.1,1.6c-0.1,1.4-1.2,2.6-1.3,4c-0.2,2.2,2.1,3.9,2.5,6.1
	c0.3,1.4-0.2,2.8-0.1,4.1c0.4,3,3.5,7,6.3,5.9c0.6-0.2,0.6-1.3,1.1-1.7c0.6-0.4,1.4-0.4,1.8,0.1c0.2,0.2,0.2,0.5,0.3,0.7
	c0.7,3-0.5,7.5,2.2,8.9c2.3,1.2,2.4-2.6,4-2.5c1.2,0.1,2,1.4,2.3,2.6c0.3,1.2,0.8,3,1.8,3.7c1.3,0.9,2.9-0.1,4.1,0.7
	c0.6,0.4,1.2,1.2,1.9,1c0.5-0.1,2.7-3.4,2.9-3.9c0.9-2.3,0.3-2.5,1.1-4.8c0.8-2.5,1-4.3,1.8-6.8c0.6-1.8,1.2-3.7,1.2-5.6
	c0-2-0.1-4.5-1.4-6C191.9,151.2,190.5,150.4,190,149.6z"/>
<path fill="#FFFFFF" stroke="#4E9BD7" stroke-miterlimit="10" d="M164,150c0,0.7,0,1.5,0,2.2c0,0.9,0.2,1.3,0.9,1.9
	c0.4,0.4,1.1-1,1.1-1.6c0-0.7,0.1-1.4-0.1-2.1c-0.2-0.7-0.5-1.9-1.1-2.2C164.6,148.2,164,149.5,164,150z"/>
<path fill="none" stroke="#4E9BD7" stroke-miterlimit="10" d="M186.5,179.3c-0.6,3.7,3.3,6.8,3.5,10.6c0.1,2.4-1.2,4.7-0.6,7
	c0.8,3,4.4,4.3,6.1,6.9c1.5,2.3,1.2,5.4,0.5,8.1c-0.5,1.9-1.2,3.9-0.8,5.8c0.5,2.3,2.6,4,3.1,6.3c0.5,2.6-1,5-2.1,7.4
	c-2.1,4.8-2.3,10.4-5.2,14.8c-0.7,1.1-1.8,2.1-2.7,3.1c-3,3.5-6.2,7.1-10.4,9c-1.1,0.5-2.2,0.9-3.3,1.4c-1.6,0.7-3.1,1.7-4.6,2.7
	c-3,1.9-6.1,3.6-9.5,4.7c-4.4,1.5-9.2,1.9-13.8,1.3"/>
<path fill="none" stroke="#4E9BD7" stroke-miterlimit="10" d="M160,136.7c-3.5-4.3-7.3-8.3-11.9-11.5c-8.2-5.7-18.3-8.1-28.1-10.4
	c-1.4-0.3-2.9-0.6-4.2-0.1c-1.8,0.8-3,3-4.9,2.8c-0.9-0.1-1.7-0.7-2.6-0.7c-1.6,0-2.6,2.2-4.2,2.4c-1.9,0.2-3.6-2.4-5.4-1.6
	c-0.9,0.4-1.3,1.5-2,2.3c-2.5,2.7-7-0.5-10.6,0.4c-2,0.5-3.4,2.3-5.3,3.2c-1,0.5-2.2,0.7-3.3,0.9c-3.7,0.7-7.4,1.3-11.1,2
	c-0.9,0.2-1.8,0.3-2.7-0.1c-0.8-0.4-1.3-1.3-1.8-2.1c-1.4-2.6-2.7-5.2-4.1-7.8c-0.4-0.7-0.8-1.5-1.5-2c-1.4-0.8-3.3,0.1-4.4,1.4
	c-2.5,3-2.3,7.5-4,11c-0.8,1.7-2.1,3.3-3.5,4.5c-6.5,5.8-23.7,6.1-24.8,8.1c-1.7,2.9,3.1,4.3,1.8,5.7c-1.9,2.2-6.3,0.2-7.3,3
	c-0.4,1.1,0,3.6-0.5,4.6c-1.1,2.2-3.8,2.9-6.1,3.8c-4.3,1.6-8.3,4.1-11.6,7.3c-1.2,1.2-3,2.6-4.4,1.7c-1.6-1-0.9-3.6-2-5
	c-1.2-1.5-2.8,0-4.2,1.3c-0.2,0.2-0.5,0.3-0.7,0.5c-0.4,0.4-0.9,0.9-1.2,1.4c-0.4,0.7-0.6,1.6-1.2,2.1"/>
<path fill="none" stroke="#E1E1E1" stroke-miterlimit="10" d="M-19.8,22.8c2-1.2,4-2.4,5.6-4.1c1.6-1.7,2.7-4,2.4-6.3
	c-0.1-0.6-0.2-1.3-0.2-1.9c0.1-1.3,0.9-2.4,1.7-3.4C-7.5,3.6-5-0.2-3-4.2"/>
<path fill="none" stroke="#E1E1E1" stroke-miterlimit="10" d="M-19,28c-0.4-0.6,0.3-1.3,0.9-1.7c1.4-0.9,2.8-1.8,4.2-2.7
	c3.8-2.5,7.7-5,10.6-8.5C1.6,9.3,3.6,1,9.8-3.4"/>
<path fill="none" stroke="#E1E1E1" stroke-miterlimit="10" d="M-18.2,35.5c-0.4-0.6,0.3-1.3,0.9-1.8C-7.5,26.4,2.4,19.2,12.4,12
	c1.2-0.9,2.5-1.8,3.8-2.5c6.5-3.7,14.7-3.7,21.1-7.7c0.7-0.4,1.6-0.9,2.3-0.4c0.4,0.3,0.4,0.8,0.6,1.2c0.4,1.5,1.8,2.7,3.3,2.6
	c0.9,0,1.7-0.5,2.5-1c3.4-2.1,6.8-4.3,10.1-6.6"/>
<path fill="none" stroke="#E1E1E1" stroke-miterlimit="10" d="M-20.2,79.8c-0.6-0.1,2.6-2.4,3.3-2.9c2-1.4,4.1-2.6,6.3-3.6
	c4.5-2.1,9.2-3.4,13.4-6.1c4-2.6,7.4-6,11-9.1c3.6-3.2,8.3-4.5,12.1-7.3c1.7-1.2,3.6-2.5,5.2-3.9c1.6-1.5,3-3.1,4.3-4.8
	c3.2-3.9,6.3-8,9.8-11.6c3.4-3.5,7.1-6.7,10.8-9.9c1-0.8,1.9-1.6,3-2.3c1.4-0.9,3-1.6,4.3-2.6c1.5-1.3,2.5-3,3.9-4.5
	c1.2-1.4,2.7-2.5,4.2-3.6c4.2-3.1,8.4-6.2,12.6-9.4"/>
<path fill="none" stroke="#E1E1E1" stroke-miterlimit="10" d="M-18.7,116.8c5.4-0.5,10.5-3,14.2-6.9c1.6-1.7,4.1-5.6,5.5-3.8
	c1.7,2.1-2.6,4.7-4.6,6.4c-1.2,1-2.4,2-3.2,3.3c-1.3,2.1-1.4,4.7-2.4,7c-1.9,4.3-6.7,6.4-11.1,8.1"/>
<path fill="none" stroke="#E1E1E1" stroke-miterlimit="10" d="M-21.4,148.2c6.2-1.5,10.3-7.4,14.1-12.6c0.4-0.6,0.9-1.2,1.5-1.6
	c0.8-0.5,1.8-0.5,2.7-0.7c2-0.4,3.7-1.8,5.2-3.1c2.8-2.4,5.8-4.9,7.3-8.4c0.5-1.2,0.8-2.5,1.6-3.6c0.8-1.1,2.2-1.9,3.4-1.4
	c1.2,0.5,1.8,1.9,2.8,2.7c1.3,1,3.1,0.8,4.6,0.3c3.6-1.4,6.1-4.6,9.4-6.5c3.2-1.8,6.9-2.3,10.5-2.7c2.9-0.3,5.8-0.7,8.8-1
	c2.3-0.2,4.8-0.4,6.8,0.6s4.4,4.5,2.4,5.7c-3.3,2-7,3.2-8.5,6.7s-1.6,7.4-2,11.2c-0.1,0.7-0.1,1.3-0.4,1.9c-0.4,0.9-1.2,1.5-2,2.2
	c-3.5,2.9-6.4,6.4-9.3,9.9c-3,3.6-6.1,7.4-7.1,12c-0.7,3.4-0.2,6.9-1.2,10.2c-0.5,1.5-1.2,2.9-1.9,4.4c-3.3,7.1-4.9,15.2-3.4,22.9
	c0.3,1.5,0.7,3.1,0.8,4.6c0.1,3.3-1.4,6.7-0.3,9.8c0.2,0.5,0.4,0.9,0.5,1.4c0.2,0.9,0.1,2-0.2,2.9c-1.8,5.9-7.7,9.4-11.6,14.3
	c-2.8,3.5-4.6,7.7-5.1,12.1c-0.2,2-0.7,4-0.7,6c0.1,2.6,0.2,5.3-0.6,7.8c-0.3,1.1-0.7,2.1-0.8,3.2c0,1.5,0.6,2.8,1.2,4.2
	c2.3,4.9,3.9,10.5,2.3,15.6c-1.2,3.7-4,6.8-7.3,8.9c-3.3,2.1-7.1,3.3-10.8,4.4c-3,0.9-6.1,1.6-9.1,2.4c-1.8,0.5-3.7,0.9-5.5,1.4"/>
<path fill="none" stroke="#E1E1E1" stroke-miterlimit="10" d="M-16.9,306.1c2.8,0.7,5.3-1.7,7.3-3.6c2.6-2.5,5.8-4.6,9.5-5
	c2-0.2,3.9,0.1,5.9-0.2c3.2-0.5,5.9-2.5,8.5-4.4c2.4-1.8,4.8-3.7,7.2-5.5c0.5-0.4,1.1-0.8,1.2-1.5c0.1-0.9-0.6-1.6-1.1-2.4
	c-1.7-2.4-0.8-5.7,0.1-8.5c0.6-1.9,1.2-3.7,1.8-5.6c0.4-1.1,0.7-2.2,0.5-3.3c-0.2-1.4-1.2-2.6-1.5-3.9c-0.7-3.3,2.6-6.2,3.2-9.5
	c0.3-1.6-0.1-3.4,0.8-4.7c0.4-0.7,1.1-1.2,1.5-1.8c1.2-1.5,1.2-3.7,2-5.4c0.8-1.7,2.4-2.8,3.4-4.4c0.8-1.4,1-3,2-4.2
	c0.9-1.1,2.1-1.8,3.3-2.6c1.1-0.8,2.2-2,2.1-3.4c-0.2-5.5,3.5-10.2,6-15.1c1.1-2.2,2.3-4.3,3.2-6.5c1.4-3.6,2.1-7.5,3.3-11.2
	c1.4-4.2,3.5-8,5.6-11.9c3.7-6.8,7.5-13.7,12.4-19.7c1.2-1.5,2.5-2.9,3.9-4.1c0.8-0.7,1.8-1.4,2.4-2.3c0.9-1.5,1-3.3,1.3-5
	c0.8-4.4,3.7-8.2,7.3-10.9c3.6-2.7,7.7-4.5,11.8-6.3c6-2.6,12-5.2,18-7.7c3.2-1.4,3.8-5.7,6-8.3c0.4-0.5,0.8-0.9,1-1.5
	c0.3-0.9,0.1-1.9-0.1-2.8c-1.6-7.6-1.8-15.4-0.6-23.1c0.2-1.4,0.5-3-0.2-4.2c-0.6-1.1-1.9-1.7-3-2.5c-4.1-2.7-3.2-10.6-7.9-12.1
	c-9.3-2.9-20.1-2.1-28.6,2.7c-2.3,1.3-4.2,3.5-6.8,4.3c-2.6,0.8-6.2-1-5.6-3.6c0.2-0.8,0.7-1.5,1.3-2.1C75.8,67.6,82,65.3,86.7,61
	c3.2-3,5.6-6.8,8.2-10.3c3.3-4.5,7-8.5,10.8-12.6c4.7-5.1,9.6-10.4,15.8-13.6c2.6-1.4,5.4-2.3,7.9-3.8c1.9-1.1,3.7-2.5,5.5-3.9
	c5.1-3.9,12-6.3,15.3-11.8c0.7-1.1,1.4-1.9,2.5-2.7c1.6-1.2,3.2-2.4,5-3c0.6-0.2,1.2-0.3,1.7-0.6c0.7-0.3,1.4-0.8,2-1.4"/>
<path fill="none" stroke="#E1E1E1" stroke-miterlimit="10" d="M58.8,87c0.1-0.2,0.2-0.4,0.2-0.7c0-0.5-0.4-1-0.8-1.2
	c-0.4-0.2-0.8-0.2-1.2-0.1c-1,0.3-1.5,1.6-1.6,2.7c0,0.2,0,0.5,0.1,0.6c0.1,0.1,0.3,0.1,0.4,0.2C57,88.7,58.3,88,58.8,87z"/>
<path fill="none" stroke="#E1E1E1" stroke-miterlimit="10" d="M223.2-1.4c-1.6,1.8-0.5,4.6,0.5,6.8c2.8,6.4,4.4,13.4,4.4,20.4
	c0,1.1,0,2.3-0.5,3.2c-0.5,0.9-1.4,1.6-2.2,2.1c-4.8,3.4-10.1,6.2-15.8,7.8c-5.7,1.6-11.9,2-16.8,5.4c-3.4,2.4-5.8,6.1-9.6,7.8
	c-1.4,0.6-3,1-4.4,1.6c-4,1.9-6.2,6.2-7.4,10.4c-1.2,4.2-1.7,8.7-3.6,12.6c-2.2,4.8-6.3,8.5-8.5,13.2c-1.4,2.8-2.1,6-2.9,9
	c-1.8,6.9-4.1,13.6-6.4,20.3c-0.6,1.7-1.2,3.5-2.3,5c-1,1.4-2.3,2.5-3.7,3.6c-4.9,3.9-9.6,8.2-15.3,10.9c-0.3,0.1-0.8,0.3-1.1,0.4
	c-6.9,2.6-13.9,4.7-21.2,5.6c-4.9,0.6-10.2,0.8-14.3,3.5c-2.4,1.5-4.2,3.8-5.9,6c-6.9,8.6-13.9,17.3-19,27.1
	c-2.5,4.9-4.5,10-6.5,15.1c-4,10.2-8,20.3-12,30.5c-1.3,3.4-2.7,6.9-5,9.7c-1.5,1.9-3.4,3.5-4.9,5.4c-3.6,4.4-5.2,10-6.7,15.5
	c-0.4,1.6-0.9,3.2-0.8,4.9c0.2,2,1.2,3.9,2.2,5.6c4.8,7.7,11.3,14.4,19,19.3c0.7,0.4,1.4,1,1.5,1.7c0.1,1.2-1.2,1.9-2.3,2.3
	c-13.7,5.1-26.6,11.2-36.1,20.3c-2.4,2.3-7.7-2.5-10-5c-1.8-2-4.6-4.4-7.3-3.7c-1,0.2-1.8,0.9-2.6,1.6c-6,5.2-11.9,10.3-17.9,15.5"
	/>
<path fill="none" stroke="#E1E1E1" stroke-miterlimit="10" d="M-18.5,329.9c0,0.3-0.4-0.1-0.2-0.3s0.5,0.1,0.6,0.3
	c2.6,3.3,8.2,3.3,10.3,6.9c1.6,2.8,0.4,6.3-1.1,9.2c-3.6,6.8-8.8,12.8-15,17.3"/>
<path fill="none" stroke="#E1E1E1" stroke-miterlimit="10" d="M-17.4,365.1C-6,366,4.5,360,5,349c0.1-2,0.3-4,0-6
	c-0.5-3.1-1.8-5.1-3-8c-0.9-2.1-1.9-3.2-3-4c-1.8-1.3-5.1-1.9-7-4c-6.3-6.8,1.4-15.4,6-21c0.9-1.1,4,0,5,1c5.8,5.3,12.5,12.2,20,11
	c3.1-0.5,6.1-0.9,8-2c11.3-6.4,21-14.1,34-18c7-2.1,8.1-11.2,1-15c-13.8-7.4-23.3-22.1-18-37c8.6-24.2,21.9-45.6,33-69
	c3.3-6.9,8-14.1,15.1-18.9c11.2-7.6,28.8-19.4,39.3-10.7c4.7,3.9-0.1,12.4,0.8,18.4c0.1,0.8,0.3,1.6,0.8,2.3
	c0.6,0.7,1.4,1.1,2.3,1.5c3.5,1.7,6.6,4.1,9.1,7.1c0.5,0.6,1,1.2,1.8,1.4c0.8,0.2,1.5-0.2,2.3-0.4c3.1-1.1,6.6-0.3,9.4,1.4
	c2.8,1.6,5.1,4,7.4,6.4c3.6,3.8,7.3,7.6,10.9,11.5c1.8,1.9,3.6,3.8,5.8,5.3c2.8,2,6.2,3.1,9.6,3.4c0.5,0,1.1,0.1,1.5-0.2
	c0.7-0.3,1.1-1,1.4-1.6c2.8-4.7,5.3-9.7,6.1-15.1c0.6-4.2,0.1-8.4-0.3-12.6c-1.1-9.2-2.1-18.4-3.2-27.6c-0.3-2.8-0.7-5.7-2.3-8.1
	c-1.7-2.5-4.7-4.1-5.9-6.9c-0.9-2.1-0.7-4.6-1.5-6.8c-1.9-4.9-8.2-6-12.4-9.1c-3.7-2.8-5.8-7.5-5.4-12.1c0.6-6.7,2.7-12.9,5.6-19
	c2.2-4.5,5.2-8.6,8.4-12.6c7-8.7,14.8-17,24.6-22.4c6.1-3.4,12.9-5.7,19.2-8.7c2.5-1.2,5-2.6,7.6-3.3c5.1-1.3,10.5-0.1,15.6,1.1
	c2.4,0.6,4.9,1.2,6.6,2.9c1.1,1.1,1.8,2.5,3,3.5c1.2,1,2.7,1.4,4.2,2.1c2.8,1.2,5.1,3.2,7.5,5.1c4.5,3.7,9,7.4,13.5,11.1
	c5.1,4.2,10.3,8.5,13.4,14.2c1.3,2.4,2.5,5.3,4.9,6.5c1.2,0.7,2.7,0.8,4,1.1c3.9,0.9,7.6,2.8,10.4,5.7c5.3,5.2,7.9,13.3,14.5,16.7
	c1.6,0.9,4,1.2,5.1-0.3c0.5-0.7,0.5-1.5,0.6-2.3c0.4-4.8,0.8-9.6,1.2-14.5c0.4-5,0.8-10-0.4-14.8c-1.3-5.3-4.5-10-8-14.3
	c-8.7-10.6-19.6-19.5-31.7-25.9c-4-2.1-8.1-4-11.9-6.4c-3-1.9-5.7-4.1-8.9-5.6c-6.7-3.2-15.2-3.3-20-8.9c-5.4-6.3-3.3-15.9-0.8-23.8
	"/>
<path fill="none" stroke="#E1E1E1" stroke-miterlimit="10" d="M373.7,28.9C371,30,373,34,372,36c-4,6-11.4-3.6-16,0
	c-1.1,0.9-0.3,4,0,6c1,6.2,6.1,12,7,19c1.1,8-2.5,16-2,24c1,16.1,7.5,30,7,46c0,1-0.8,3.2-2,4c-9.9,6.3-27.4,12.2-34-2
	c-3.2-6.9-3.9-14.2-10-19c-7.8-6.2-17.7-10.5-23-19c-2.4-3.8-2-9-4-13c-1-2-1.9-3.1-4-4c-2.9-1.2-6.2-2.7-8-4
	c-18.7-13.9-46.8-38.8-63-18c-4.7,6-12.2,5.8-17,11c-5.3,5.8-9.2,12.7-16,19c-3.1,2.9-4.3,8.1-3,12c3.3,10.2,12,17.5,17,27
	c1.7,3.2,4.6,5,5,8c2,13.5,9.4,24.8,7.9,38c-0.3,2.4-0.5,4.3,0.2,6.5c0.7,2.3,1.9,4.4,2.8,6.6c2.9,7.1,3,15.4,0,22.5
	c-0.9,2.2-2.1,4.4-2.6,6.8c-0.5,2.5-0.3,5-0.9,7.5c-0.9,3.8-3.7,6.9-6.4,9.8c-1.2,1.3-2.4,2.6-3.9,3.4c-2.4,1.4-6.2,2.7-7.9,0.5
	c-0.8-1-1.6-1.9-2.9-2c-1.3-0.1-2.5,0.1-3.8-0.2c-1.9-0.5-3.3-2.3-5.2-2.6c-1.3-0.2-2.6,0.3-3.7-0.2c-0.9-0.5-1.4-1.5-2.2-2.2
	c-1.5-1.5-4-1.7-5.9-2.6c-3.7-1.8-5.3-6.4-8.8-8.4c-3.1-1.8-7.2-1.3-10.5,0.2c-2,0.9-4.1,2.2-6.1,1.4c-1-0.4-1.7-1.1-2.4-1.9
	c-2.3-2.5-4.3-5.2-6.2-8c-1.9-2.8-3.6-5.7-6.1-7.9c-2.5-2.2-6-3.6-9.2-2.8c-0.4,0.1-0.9,0.3-1.2,0c-0.4-0.2-0.2-0.6,0.1-0.9
	c5.8-6.8-5.1-17.3-8.3-25.6c-1.1-3-2.9-6.4-6-7c-2-0.4-4,0.5-5.8,1.4c-3.9,1.8-8.3,4.5-8.3,8.8c0,1.5,0.2,3.8-1.4,3.9
	c-0.4,0-0.8-0.1-1.2,0c-0.8,0.2-1.1,1.1-1.4,1.8c-0.5,0.9-1.3,1.6-2,2.4c-3.1,3.1-5,7.3-5.4,11.6c-0.2,1.7-0.1,3.5-0.5,5.2
	c-0.6,2.8-2.4,5.1-4.2,7.3c-1.6,2-3.2,4-4.8,6c-1.3,1.6-1.5,3.6-2.1,5.6c-0.4,1.3-1.8,1.9-2.6,3.1c-4,6.4-4.3,14.3-4.5,21.9
	c-0.2,6.4-0.4,12.8-0.6,19.2c-0.1,3.6-0.1,7.6,2.1,10.5c2.5,3.2,6.9,4,10.4,6.1c2.5,1.5,5.5,3,6.5,5.7c0.6,1.7,2,2.7,3.3,4
	c2.3,2.4,1.4,6.2,0.4,9.4c-0.2,0.5-0.3,1-0.7,1.4c-0.6,0.6-1.6,0.5-2.3,0.9c-1.1,0.5-1.7,1.7-2.4,2.7c-2.7,3.3-7.6,3.4-11.5,5.1
	c-4,1.8-6.9,5.4-9.7,8.8c-2.3,2.8-4.6,7.6-8.2,8.5c-4.5,1.2-8.9,2.4-13.3,3.7c-2.4,0.7-5,1.3-7.3,0.2c-1.1-0.5-1.9-1.4-2.9-2.1
	c-1.9-1.4-4.3-2.3-6.1-3.8c-0.8-0.6-1.5-1.3-2.2-2c-1.1-0.9-2.2-1.7-3.4-2.4c-0.7-0.5-1.5-1-2.2-1.4c-2.6-1.7-5.1-3.4-7.7-5.1
	c-0.6-0.4-1.4-0.8-2-0.4c-0.6,0.4-0.4,1.4-0.1,2c2.2,5.2,7,8.9,9.5,13.9c0.8,1.7,1.4,3.5,2,5.3c0.6,1.9,1.2,3.8,1.8,5.7
	c0.5,1.7,1.1,3.5,1,5.3c-0.3,3.4-2.8,6.1-4.3,9.3c-0.8,1.8-1.3,3.8-2.4,5.4c-0.7,1.1-1.6,1.9-2.6,2.7c-6.6,5.2-15.7,5.4-23.9,7.2"/>
<path fill="none" stroke="#E1E1E1" stroke-miterlimit="10" d="M117,269.5c-0.2-0.5-0.4-1-0.9-1.3c-1-0.5-2,0.5-2.6,1.4
	c-1.5,2.3-2.5,4.9-2.9,7.5c-0.5,3-0.4,6.2-0.3,9.3c0.1,1.7,0.2,3.6,1.1,5c0.4,0.6,1.1,1.1,1.7,0.9c0.4-0.1,0.7-0.5,0.9-0.8
	c1-1.4,1.9-2.7,2.9-4.1c1.1-1.6,2.3-3.3,2.7-5.2c0.5-2.1,0-4.4-0.5-6.5C118.4,273.7,117.7,271.6,117,269.5z"/>
<path fill="none" stroke="#E1E1E1" stroke-miterlimit="10" d="M135.8,291.4c0.6,1,1.2,2.3,0.6,3.3c-0.2,0.4-0.6,0.7-0.9,0.9
	c-2.6,2-5.2,4-7.8,5.9c-3.8,2.9-7.7,5.8-12,8c-1.5,0.7-4.2,2.5-4.7,1c-1.1-3.1,0.1-7.8-0.4-12.8c-0.5-5.1-1.1-9.4-3.1-13.5
	c-1.7-3.5-3.3-7-4.7-10.6c-0.8-2.1-1.5-4.2-2-6.3c-0.2-0.8-0.4-1.6-0.3-2.4c0.1-0.6,0.3-1.2,0.4-1.7c1.7-5,3.4-10,5-14.9
	c0.5-1.4,1-2.8,1.9-4c0.9-1.1,2.4-2,3.8-1.7c1.5,0.3,2.6,1.6,3.5,2.9c3,4,6.1,8.3,6.5,13.3c0.1,1.7,0,3.3,0,5
	c0.1,5.3,2.4,10.2,5.3,14.7S133,286.9,135.8,291.4z"/>
<path fill="none" stroke="#E1E1E1" stroke-miterlimit="10" d="M149,293c-0.8,0.4-1.6,0.8-2.5,0.9c-0.9,0.1-1.8-0.1-2.7-0.3
	c-0.5-0.1-1.2-0.5-1-1c0.1-0.3,0.4-0.4,0.6-0.5c0.8-0.3,1.5-0.6,2.3-0.9c0.5-0.2,1-0.4,1.5-0.4c1.2-0.1,2.5-0.5,3.5,0.2
	C151.4,291.6,149.8,292.5,149,293z"/>
<path fill="none" stroke="#E1E1E1" stroke-miterlimit="10" d="M90.8,254.3c0.6-2.8,1.4-5.7,0.6-8.5c-0.5-1.7-1.5-3.2-2.3-4.7
	c-6.6-11.8-3.3-26.5,0.1-39.6c1.1-4.2,2.2-8.3,3.3-12.5c0.3-1,0.6-2.1,1.3-2.7c1.5-1.3,4.1-0.2,5,1.5s0.8,3.9,0.7,5.9
	c-0.5,10.6,1.3,21.4,5.3,31.3c0.5,1.3,1.1,2.7,2.1,3.7c1.1,1.2,2.7,1.9,4.1,2.6c4.3,2,8.3,4.4,12.2,7c3.2,2.2,6.6,5.2,6.7,9.1
	c0.1,2.7-1.4,5.4-0.9,8.1c0.3,1.9,1.7,3.7,1.3,5.6c-0.3,1.8-2.2,3.2-2.1,5.1c0,1,0.6,1.9,1.2,2.7c2.9,4,5.7,7.9,8.6,11.9
	c1.1,1.5,2.2,3,3.8,3.8c1.4,0.7,3.1,0.7,4.7,0.8c21.8,0.9,27.2-7,26.8-4.5c-0.7,5-6.6,7.3-10.8,10.1c-4,2.7-7.5,6.1-11,9.4
	c-2.2,2.2-4.5,4.3-6.7,6.5c-6.1,6-12.4,12.1-19.9,16.2c-7.6,4.2-16.2,6.3-24.6,8.1c-2.7,0.6-5.3,1.2-7.7,2.4
	c-1.7,0.9-3.2,2.2-4.9,3.2c-2.4,1.5-5.2,2.5-7.9,3.4c-7.5,2.7-14.9,5.3-22.4,8c-7.1,2.5-14.3,5.1-21.9,5.3c-1.9,0-4-0.2-5.2-1.7
	c-0.7-0.9-0.9-2.2-1.1-3.4c-0.6-4.5-4-12.8-1.9-13.5c2.7-0.9,12,4.4,19.5,3.5c11.6-1.5,20.8-0.7,30.3-3.6c6.6-2,13.3-4.2,18.8-8.4
	c8-6.2,12.8-16.4,12.5-26.6c-0.3-10.2-5.8-20-14.2-25.7c-1.3-0.9-2.7-1.7-3.5-3c-0.8-1.2-1-2.7-1-4.2
	C89.7,262.7,90,258.4,90.8,254.3z"/>
<path fill="none" stroke="#E1E1E1" stroke-miterlimit="10" d="M17.4,370.9c-3.4-1.8-7.4-5-6.1-8.6c0.4-1.1,1.1-2.1,2-2.8
	c13.4-9.8,6.8-23.8,7.4-31.5c0.3-3.7,6.4,3.2,9.8,4.8c5.8,2.8,12.5-0.2,18.9-0.4c5.3-0.2,10.6,1.7,15.9,1.4
	c7.3-0.3,13.8-4.4,19.9-8.4c1.3-0.8,2.6-1.7,3.6-2.8c1.1-1.3,1.8-3,2.6-4.6c1.7-3.7,4-7.2,6.6-10.3c1.6-1.8,3.3-3.7,3.8-6
	c0.9-4.4-0.2-8.9-1.9-13c-2.4-6.2-11.1-7.3-16.7-10.9c-1.2-0.8-2.3-1.5-3.2-2.6c-2.1-2.6-2-6.3-1.7-9.6c0.7-8.5,1.7-17.7-2.3-25.2
	c-1.6-3-4-6.1-3.4-9.4c0.2-1.4,1-2.7,1.7-4.1c1.9-3.8,0.5-8.5,2.3-12.3c2.8-5.7,7.5-10,9.4-16c0.6-1.9,1.2-3.9,1.8-5.8
	c0.7-2.4,0.3-5.1,1.1-7.5c0.4-1.2,2.3-0.7,3.5-1.1c1.3-0.5,0.7-2.9,1.5-4c0.5-0.9,2.2,0.8,3,0.2c2.7-2,2.9-8.5,5.9-7
	c6.7,3.2,2.4,14.3,3,21.7c0.7,8.9,4.5,17.5,10.7,24c0.7,0.7,1.4,1.4,2.4,1.6c3.1,0.7,5.1-4.1,8.3-4.2c1.8,0,3.3,1.5,3.9,3.1
	c0.7,1.7,0.7,3.5,1,5.2c1.3,7.6,7.3,13.5,13.4,18.3c2.4,1.9,6.2,1.2,8.3,3.4c3.8,4-2,11-4.8,15.7c-1,1.6-2.2,3.3-2.2,5.2
	c0,2.2,1.6,4.1,3.6,5c2,0.9,4.2,1.1,6.3,1.1c4.9,0.1,9.9-0.3,14.7-1.1c1-0.2,2.1-0.4,2.8-1.1c0.5-0.5,0.8-1.3,1.4-1.8
	c0.9-0.8,2.3-0.7,3.5-1c3.1-0.6,5-3.5,7.1-5.9c2.1-2.4,6.8-6,8.2-3.2c1.4,2.8-6.1,12.3-10.6,17.5c-6.7,7.6-13.5,13.3-17.8,22
	c-5.6,11.3-18.1,18.4-27.8,26.4c-4.1,3.3-8.3,6.7-13.1,8.9c-3.8,1.8-7.9,2.7-12,3.7c-3.5,0.8-7,1.7-10.5,2.5
	c-1.9,0.4-3.8,0.9-5.6,1.8c-1.2,0.6-2.2,1.5-3.3,2.2c-3.3,2.3-7,3.8-10.9,4.5c-1.2,0.2-2.5,0.3-3.6,0.8c-1.7,0.7-3,2-4.4,3
	c-2.9,1.9-6.5,2.5-9.6,3.9c-7.8,3.5-12.6,12-20.6,15.1c0.2,0.6,0.4,1.1,0.7,1.7"/>
<path fill="none" stroke="#E1E1E1" stroke-miterlimit="10" d="M58.7,372.5C71,365,83.3,358.6,96,353c10.2-4.5,21-5,31-10
	c6-3,12.4-5.9,18.5-11.5c3-2.8,6.4-4.6,9.3-7.4c1.5-1.5,2.5-3.6,4.1-5c1.1-1,2.4-1.6,3.4-2.6c0.8-0.8,1.3-1.8,1.9-2.7
	c3.4-5.3,9.2-8.9,12-14.5c0.6-1.3,1.1-2.6,2-3.8c0.9-1.2,2.2-2,3-3.3c0.5-0.7,0.7-1.5,1.2-2.2c0.7-1.1,1.8-1.9,2.8-2.7
	c3.6-2.6,6.4-5.8,9.6-8.8c3.2-3.2,6.3-5.8,9-9.5c1.7-2.3,3.6-5.2,6.5-5.2c1.2,0,2.4,0.6,3.6,0.7c2,0.3,4-0.5,5.8-1.2
	c8.9-3.5,18-7.1,25.3-13.3c2.2-1.9,4.6-4.1,7.5-4.1c4.5-0.1,7.3,4.9,11.3,7c3.7,2,8.3,1.3,12.3,2.7c4,1.4,7.1,4.8,10.9,6.7
	c4.8,2.4,10.9,2.4,14.9,6c2.3,2.2,3.6,5.4,6.4,7c3.2,1.8,7.4,0.8,10.8,2.2c2.5,1.1,4.4,3.4,6.9,4.5c1.6,0.7,3.4,0.8,5.2,1
	c14.5,1.2,29.2,3.2,42,10c1.3,0.7,2.7,2.5,1.5,3.4"/>
<path fill="none" stroke="#E1E1E1" stroke-miterlimit="10" d="M307.9,373.5c1.3-4.6-0.7-9.9-4.8-12.3c-1-0.6-2.2-1.1-3-2
	s0.4-2.1,0-3.2c-1.2-2.6-5.6-1.6-6.9-4.2s-3.4-6.4-1.4-8.5c3.2-3.2,7-5.2,8-9.6c2.2-10.9,9-19.5,11.5-30.4
	c4.9-21.5-29.6-33.7-50.9-39.1c-2.9-0.7-6.1-1.3-8.9-0.1c-1.8,0.8-3.2,2.1-4.9,3.1c-3.3,1.8-7.3,1.7-11.1,2
	c-14.9,1.4-27.7,11.1-38.5,21.6c-12.2,11.8-22.9,25.1-34.9,37.1s-25.7,22.9-41.7,28.5c-7.3,2.5-14.9,3.9-22.1,6.5
	c-7.2,2.6-14.3,6.6-18.6,13"/>
<path fill="none" stroke="#E1E1E1" stroke-miterlimit="10" d="M103.2,372.4c6-6.4,15.4-7.1,23.2-9.9c8.9-3.2,16-10,24.5-14.2
	c7.4-3.6,15.8-6.8,21-13.7c3.1-4.1,4.6-9.1,7.6-13.2c2.9-3.9,6.2-7.6,9.7-11c9.3-9.2,20.2-16.9,32-22.5
	c12.6-6.1,25.7-13.2,39.5-11.3c4.3,0.6,7.7,3.1,11.6,4.9c4,1.9,8.1,3.8,10.9,7.2c2.1,2.4,3.4,5.6,6.1,7.4c1.4,0.9,3.1,1.5,3.8,2.9
	c0.9,1.8-0.1,3.9-1.4,5.5c-1.3,1.5-2.8,3-3.2,4.9c-0.2,1.1-0.1,2.1,0,3.2c0.4,4.1,0.2,8.3-0.6,12.4c-0.2,0.7-0.3,1.5-0.3,2.2
	c0.1,1.2,0.7,2.3,1.1,3.5c0.7,2,2.2,5.1,0.4,6.3c-0.9,0.6-2.2,0.4-2.8,1.4c-0.6,0.9-0.8,2.1-0.8,3.2c-0.3,3.4,0,6.8,0.8,10.1
	c0.4,1.4,0.8,3,0.4,4.4c-0.2,0.7-0.6,1.4-0.9,2.1c-0.7,1.9-0.3,4,0.2,5.9s1.3,3.9,1.3,5.9s-0.9,4.2-2.8,4.9"/>
<path fill="none" stroke="#E1E1E1" stroke-miterlimit="10" d="M269.1,372.1c3.2-1,5.5-4.2,5.7-7.5c0.1-2.2-0.7-4.6,0.5-6.5
	c0.5-0.8,1.4-1.5,1.7-2.4c0.3-0.8,0.1-1.7-0.1-2.6c-1.5-5.7-4.4-11.1-4.8-17c-0.2-2.6,0.1-5.2-0.2-7.7c-0.4-2.5-1.6-7.5-3.9-6.3
	c-3.1,1.6-4.1,5.5-7.3,7c-8.5,4.1-19.8,14.3-26.8,8c-2.6-2.3,1.8-6.7,4.6-8.6c2.8-2,6.1-3.1,9.1-4.8c3-1.8,8.3-5.4,6-7.9
	c-1.9-2-5.2-2.4-7.9-2c-4.4,0.6-8.8,3.1-12,0.1c-0.7-0.6-1.2-1.3-2-1.9c-2.1-1.4-5-0.7-7.3,0.4c-3.8,1.9-7,4.8-10.1,7.7
	c-1.8,1.7-3.6,3.4-5.5,5.1c-2.5,2.3-5,4.7-7,7.4c-1.9,2.6-3.8,5.6-6.9,6.5c-3.1,0.8-7.4-0.5-9,2.2c-0.4,0.7-0.5,1.6-0.9,2.4
	c-0.5,1.1-1.4,1.9-2.4,2.7c-8.2,7-17.2,13.4-27.5,16.5c-2.5,0.8-5.2,1.3-7.6,2.2c-4.9,1.8-9.3,5-12.6,9.1"/>
<path fill="none" stroke="#E1E1E1" stroke-miterlimit="10" d="M277.9,166.3c0.8-1,2.6-0.9,3-2.1c0.5-1.2-1-2.2-1.7-3.3
	c-0.7-1.1-0.8-2.7-1.9-3.3c-0.7-0.4-1.7-0.3-2.6-0.3c-2.1,0-4.1-1.1-5.3-2.8c-1.5-2-1.7-4.7-2.5-7.1c-0.4-1.1-1.1-2.3-2.2-2.4
	c-1-0.1-2,0.6-2.5,1.6c-0.5,0.9-0.7,2-1.1,2.9c-0.6,1.5-1.8,2.7-2.5,4.2c-0.5,1-0.7,2.1-0.9,3.2c-1,6.2-0.2,12.7,2.2,18.4
	c0.2,0.4,0.3,0.7,0.6,1c0.3,0.2,0.6,0.3,1,0.3c2.2,0.2,4.3-0.7,6.1-2c1.8-1.3,3.2-2.9,4.7-4.5c0.9-1,2-2,3.4-2.1
	c0.4,0,0.8,0,1.1-0.1C277.4,167.4,277.5,166.7,277.9,166.3z"/>
<path fill="none" stroke="#E1E1E1" stroke-miterlimit="10" d="M364.4,208c-0.5,0.4-1.2,0.1-1.9-0.1c-2.1-0.6-4.5,0.2-6.5-0.6
	c-2.4-0.9-3.5-3.5-4.9-5.5c-1.2-1.7-4.1-3.1-3.6-5.1c0.4-1.3,2.9-0.4,3.7,0.7c0.7,0.9,1.4,1.8,2.4,2.3s2.2,0.8,3.1,1.5
	c0.7,0.5,1.3,1.2,2,1.7c1.6,1.2,3.8,1.5,5.3,2.9C364.7,206.4,365.1,207.5,364.4,208z"/>
<path fill="none" stroke="#E1E1E1" stroke-miterlimit="10" d="M370.4,200.8c-0.1-0.9,0.6-2.3-0.2-2.7c-2.6-1.5-5.6,2.2-8.5,2.6
	c-0.4,0-0.8,0.1-1.1-0.1c-0.3-0.2-0.5-0.5-0.7-0.8c-1.3-1.9-3.4-3.3-5.6-3.8c-1.1-0.2-2.3-0.3-3.1-1c-0.4-0.3-0.7-0.8-1-1.2
	c-1-1.4-2-2.9-3-4.3c-0.4-0.5-0.8-1.1-1.4-1.3c-0.8-0.3-1.8,0-2.4-0.5c-0.4-0.3-0.5-0.7-0.7-1.1c-1-2.3-3-4.1-5.4-4.9
	c-0.3-0.1-0.7-0.2-1.1-0.1c-1.4,0.3-0.3,3.6-1.8,3.9c-1.3,0.3-2.7,0.6-3.8,0c-0.6-0.3-0.8-1-1-1.5c-1.2-2.9-2.9-8.5-5.8-7.3
	c-1.4,0.6-0.5,3.1-0.4,4.6c0.2,2,1.1,3.9,0.9,5.9c-0.2,1.7-1.1,3.4-0.7,5.1c0.3,1.1,1.2,2.1,1.7,3.1c1.2,2.3,0.8,5.1,2.1,7.3
	c1.1,1.7,3.1,2.8,4,4.6c0.5,0.9,0.6,2,1.2,2.9c0.6,1,1.5,1.7,2.4,2.3c2.8,2.1,5.6,4.2,8.5,6.3c0.8,0.6,1.6,1.2,2.3,1.9
	c0.6,0.6,1.1,1.3,1.6,1.9c6.8,8.3,16.9,13.1,26.7,17.7"/>
<path fill="none" stroke="#E1E1E1" stroke-miterlimit="10" d="M373.3,194c-1.9-1-4.2-0.9-6.3-0.4c-2.1,0.5-4.1,1.3-6.2,1.8
	c-0.3,0.1-0.6,0.1-0.9,0.1c-0.5-0.1-0.8-0.5-1.1-0.9c-2.3-2.7-6.1-3.6-8.9-5.8c-1.2-1-2.3-2.3-3.8-2.8c-0.6-0.2-1.1-0.2-1.7-0.5
	c-0.7-0.4-1.1-1.1-1.5-1.7c-1.5-2.2-3.5-4-5.8-5.3c-0.5-0.3-1.1-0.6-1.7-0.7c-1.5-0.3-2.8,1.8-4.3,1.4c-1.7-0.5-1.7-3.1-2.5-4.6"/>
<path fill="none" stroke="#E1E1E1" stroke-miterlimit="10" d="M372.1,253.3c-0.3-0.6-1.2-0.4-1.9-0.5c-1.5-0.2-2.4-1.9-3.7-2.8
	c-0.8-0.5-1.7-0.7-2.5-0.9c-1-0.2-2-0.4-2.9-0.2c-0.8,0.1-1.5,0.5-2.3,0.5c-0.8,0-1.3-0.6-1.7-1.3c-0.5-0.8-1.8,0-2.5,0.6
	c-0.7,0.6-1.4,1.3-2.3,1.5c-0.7,0.1-1.4-0.1-2.1-0.3c-2.4-0.8-4.8-1.6-7.2-2.5c-1.4-0.5-3.4,0.2-4.5-0.6c-2.4-1.9-5.7-2.3-8.4-3.8
	c-1.8-1-3.4-2.5-4.9-3.9c-1.5-1.4-2.9-2.8-4.4-4.2c-4.2-4-8.5-8.1-10.7-13.4c-2.1-5-2.2-10.6-2.2-16c0-1.6,0-3.3,0-4.9
	c0-4.9-0.1-9.9-1.3-14.7c-0.2-0.8-0.5-1.7-0.5-2.6c-0.1-1,0.1-1.9,0.3-2.9c0.4-1.8,0.9-3.7,1.6-5.4c1.1-2.3,2.7-4.4,4.2-6.4
	c0.4-0.6,0.9-1.1,1.5-1.5c1.4-0.9,3.4-0.9,4.5-2.1c0.3-0.3,0.6-0.7,1-0.8c0.7-0.2,1.3,0.4,1.7,0.9c2.7,3,5.3,6.1,8,9.1"/>
<path fill="none" stroke="#E1E1E1" stroke-miterlimit="10" d="M371.3,185.3c-7.1-3.3-15.6,0.7-22.8-2.1c-3.4-1.3-5.6-4.3-8.8-6
	c-8.4-4.5-9.8-19.2-19.2-20.7c-8.6-1.4-13.7,10.9-20.5,16.3c-1,0.8-2,1.6-3.3,2c-2.5,0.8-5.3-0.3-7.3-2c-1.7-1.5-3-3.6-3.6-5.8
	c-0.8-2.9-0.5-6.1-1.5-8.9c-2.8-7.9-13.5-9.8-18.3-16.7c-3.5-5.1-3.1-11.9-1.8-17.9c1.8-8.2,5-16.2,9.4-23.4
	c0.7-1.2,1.5-2.5,1.5-3.9c-0.1-1.3-0.9-2.5-1.8-3.6c-9.7-12-24.5-19.8-39.9-21c-1.9-0.1-2.6,1.5-4.2,2.5c-1.6,1-3.7-3.7-5.1-2.5
	c-1.1,0.9-1.7,1-3,1.6c-1.5,0.7,0.6,3.8-0.5,5c-1.4,1.5-5.1,0.4-5.6,2.4c-1,3.8,5.6,5.4,9.3,6.9c8.5,3.5,16.9,7,25.4,10.5
	c2.3,0.9,4.7,2,5.9,4.2c0.8,1.4,0.9,3,1,4.5c0.5,10.3-1.5,20.7-5.8,30c-1.4,3.2-3.2,6.3-4,9.7c-1.3,5.3-0.4,11,0.6,16.4
	c1.9,10.8,2.1,20.3,4,31.1c0.2,1,0.4,2.9,1.3,3.3c0.9,0.4,3.6,0.4,4.5-0.1c2.9-1.7,6.1-2.9,9.4-3.8c1.8-0.5,5.4-2.4,7.2-1.8
	c1.7,0.5,2.9,3,3.8,4.5c3.7,5.5,5.4,5,9.1,8.9c2.4,2.5,2.4,11.9,3.7,15.1c3.5,8.9,2.8,11.2,9.8,17.5c0.2,0.2,4.6,3.6,4.9,3.6
	c6.2,1.1,9.7,5.5,14.5,8.3c1.1,0.6,2.1,1.2,3.3,1.6c3.1,1,6.5,0.1,9.7,1c3.4,1,5.9,4,9.1,5.6c0.6,0.3,1.2,0.5,1.6,1
	c1.1,1.1,0.7,2.9,0.1,4.3c-0.6,1.4-2.6,3.5-1.3,4.3c1.8,1.2,4.9-0.2,6.4-1.8c1.5-1.7-1.8-4.5-1-6.6c0.6-1.7,2.7-2.1,4.5-2.3
	c7.3-0.5,14.7,1,21.2,4.2c0.2,0.1,0.4,0.2,0.3,0.4c0,0.2-0.4,0-0.2-0.1"/>
<path fill="none" stroke="#E1E1E1" stroke-miterlimit="10" d="M371.5,270.8c-2.4-2.4-4.9-4.9-8.2-5.8c-5.4-1.4-10.8,2-15.8,4.6
	c-3.5,1.8-11.8,3.6-10.9-0.3c0.3-1.4,2.9-2.6,1.9-3.6c-4.9-5-13-4.8-19.1-8.1c-10.9-5.9-25-5.3-34.7-13.1c-7.5-6-8.2-17.3-12.3-26
	c-0.7-1.5-1.4-3-2.5-4.1c-2.5-2.5-6.4-3-9.8-2.2s-6.5,2.5-9.7,4c-4.3,1.9-8.8,3.1-13.5,3.7c-0.4,0-0.8,0.1-1.2,0
	c-1.5-0.5-1.1-2.7-0.6-4.1c5.5-13.7,6.1-29.2,1.9-43.3c-2.4-7.9-6.3-15.9-4.2-23.9c1.5-5.7,5.9-10.9,4.9-16.6
	c-0.6-3.5,4.5-5.7,5.4-9.2c0.7-2.5-0.7-5.1-2.5-7c-2.9-3-6.9-4.9-11-5.3c-2.4-0.2-5.1,0.1-7.1-1.3c-1.1-0.7-1.8-1.9-2.9-2.6
	c-1.2-0.9-2.8-1.2-4.3-1.5c-6.7-1.6-16.3-2.7-18.2-9.4c-0.7-2.4,5-1.4,5.7-3.8c0.4-1.3-1.8-2.2-1.3-3.4s2.1-0.9,3.3-1.5
	c5.4-2.6,1.4-13.2,6.1-17c4-3.3,10.2-2.2,15.1-4.2c2.3-1,4.6-2.1,7-2.2c1.8-0.1,3.5,0.3,5.2,0.8c8.1,2.2,15.9,5.8,22.9,10.4
	c3.8,2.5,7.4,5.4,10.9,8.3c4,3.3,8.1,7.1,9.3,12.1c0.4,1.9,0.4,3.9-0.5,5.6c-0.8,1.4-2.2,2.7-2.2,4.3c0,1.1,0.8,2.2,0.5,3.4
	c-0.3,1.4-1.9,2-2.9,3c-2,2.1-1.1,5.5-1.3,8.5c-0.2,2.7-1.7,5.3-1.9,8c-0.5,5,2.8,9.5,6,13.4c2.4,3,4.9,6.1,7.3,9.1
	c3.5,4.3,7.4,8.9,12.9,9.8c1.4,0.2,3,0.2,4.3-0.5c1.9-0.9,3.1-2.9,4.7-4.3c3.8-3.4,9.7-3.5,14.5-1.8s9,4.8,13.4,7.4
	c11.9,6.9,26.1,9.9,39.7,8.2"/>
<path fill="none" stroke="#E1E1E1" stroke-miterlimit="10" d="M374.8,155.5c-11.8,1.5-24.8,2.4-34.8-4.5c-1.2-0.8-3-1.9-5-3
	c-8.2-4.6-6.4-16.3-14-21c-0.4-0.3-1.1-0.4-2,0c-5.2,2.2-2.6,10.2-5,14c-5.3,8.5-18.2,10.3-26,3c-3.1-2.9-4.3-7.9-5-12
	c-2-11.9,2.1-22.2,5-34c0.8-3.1,0.2-7.2-2-9c-2.8-2.3-5.1-3.8-8-6c-15.8-12-35.1-40.9-51-26c-6.2,5.8-13.7,8.7-21.5,11.7
	c-4.7,1.9,2,13.7-5.5,15.2c-1,0.2-2.1-0.4-3,0c-6.5,2.7-7.3,13.2-3,19c4.7,6.3,7,12.9,11,19c4.3,6.5,12,12,10.9,20.7
	c-0.1,1-1,1.7-1,2.7c-0.4,14.5,10,26.9,13.8,40.9c2.1,7.7,2.1,16,0,23.7c-1.6,6-4.4,11.6-6.1,17.5c-1.7,5.9-5.3,16.2,0.6,18.1
	c7.8,2.5,12.4-11.7,20.5-12.9c3.8-0.6,7.9,0.4,11.2-1.6c1.4-0.8,2.6-2.2,4.2-2.3c2.3-0.2,3.9,2.1,4.8,4.2c2.5,5.6,4.6,13,10.6,14.1
	c2.2,0.4,4.5-0.2,6.8,0c3.9,0.3,7.1,2.9,10.2,5.3c13.9,10.5,30.1,17.8,47.2,21.2c1.3,0.2,2.6,0.5,3.8,0.3c1-0.1,2-0.5,3-0.7
	c4.9-1.1,9.8,1.5,14.1,4c4.9,2.8,9.8,5.7,14.7,8.5"/>
<path fill="none" stroke="#585858" stroke-miterlimit="10" stroke-dasharray="4,6" d="M169.6-1.2c-2.5,4.1-8.2,4.7-12.3,7.2
	c-7.5,4.6-8.8,15.3-6.4,23.8c2.3,8.5,7.3,16.1,9.5,24.6c1.8,6.9,1.8,14.2,2.1,21.3c0.5,12.5,1.9,24.9,1,37.4
	c-0.9,12.4-4.3,25.1-12.4,34.6c-6,7.1-14.9,13.5-14.6,22.8c0.2,4.5,2.6,8.6,5.1,12.5c2.7,4.3,5.5,8.7,9.4,12.1c3,2.6,6.5,4.4,9.5,7
	c5.2,4.4,8.5,10.5,11.7,16.5c3.2,6,6.5,12.1,11.6,16.6c5.1,4.5,12.5,7,18.8,4.5c0.9,6.1,4.2,11.8,9.1,15.5c-1.4,1.2-1.6,3.8-0.3,5.1
	c1.3,1.3,3.2,1.7,5,2.1c1.4,0.3,2.9,0.6,4.3,0.3c1.9-0.4,3.4-1.8,4.9-3.1c4.2-3.8,8.5-7.2,13.1-10.4c1-0.7,2-1.4,3.2-1.5
	c1.2-0.2,2.5,0.4,2.9,1.5c0.6,1.7-1.2,3.3-1.3,5.1c2.4,1.1,6-0.4,7.5,1.8c1.2,1.7-0.2,3.9-1.7,5.3c-1.5,1.3-3.5,2.5-3.8,4.5
	c1.6-0.1,3.3,0.8,4,2.3c-1.9,1.4-4,2.5-6.3,3.2c1.3,1.2,3.1,1.9,4.8,2c0.5,1.2-1,2.2-2.3,2.5c-1.2,0.3-2.8,1-2.7,2.2
	c1.7,0.8,3.2,1.9,4.5,3.3c0.4,0.4,0.7,0.8,0.7,1.3c0,0.5-0.3,1-0.6,1.5c-2.8,4.5-2.4,10.2-2.9,15.5c-0.5,6.7-2.5,13.2-5.8,19
	c-2.5,4.5-5.8,8.7-7.2,13.6c-0.3,1-0.5,2-1.1,2.8c-0.4,0.5-1,0.9-1.5,1.3c-3.8,2.5-8,4.3-12.3,5.5c-0.5,0.1-1.1,0.3-1.3,0.9
	c-0.2,0.6,0.3,1.1,0.7,1.6c2.4,2.4,4.8,4.7,7.2,7.1c0.4,2-1.8,3.3-3.6,4.2c-4.4,2.3-8.3,5.8-11.1,9.9c-1,1.5-2,3.2-3.3,4.5
	c-1.3,1.3-2.9,2.1-4.4,3.1c-4.8,3.2-8.6,7.6-12.3,12"/>
<path fill="none" stroke="#585858" stroke-miterlimit="10" stroke-dasharray="4,6" d="M-27,171.5c10.7-11.6,21.3-23.2,32-34.8
	c0.8-0.9,1.7-1.8,2.8-2.3c1.3-0.6,2.9-0.5,4.3-0.5c5.4,0.1,10.7-0.6,15.8-2.3c2.3-0.7,4.6-1.7,6.4-3.4c1.9-1.9,2.9-4.4,4.1-6.8
	c3.2-6.7,8-12.8,14.2-17c6.2-4.1,14-6.2,21.3-4.8c0.2-3,2.6-5.5,5.2-6.8c2.7-1.4,5.7-1.9,8.6-2.7c11.2-3,20.9-9.8,30.3-16.4
	c2-1.4,4.2-3,5.2-5.3c0.7-1.7,0.9-3.7,2.2-5c2.2-2,7-1.9,6.5-4.8c-0.2-1.2-1.4-2-1.6-3.1c-0.1-0.8,0.3-1.6,0.7-2.3
	c7.4-11.9,26.1-10.5,35.6-20.8c3.2-3.4,7.6-4.3,11.8-6.3c2.1-1,4.1-2,6.1-3.2c3.4-2.1,6.4-5,9.7-7.3c11.6-8.4,26.9-11.2,37.4-20.9"
	/>
<path fill="none" stroke="#585858" stroke-miterlimit="10" stroke-dasharray="4,6" d="M150.5-4.1c-1.4,1.5-2.7,2.9-4.2,4.3
	c-7.7,7.2-18,11.5-28.6,11.7c-1.9,0-3.8,0-5.5,0.6c-1.4,0.5-2.5,1.4-3.7,2.2c-14.4,10.6-28.9,21.3-41,34.5c-1.2,1.3-2.5,2.7-4,3.7
	C61,54.6,58,55.1,55,55.5c-8.2,1.3-16.5,2.6-24.4,5.3C25,62.8,19.7,65.4,14.4,68c-5.2,2.6-10.4,5.1-15,8.7c-1.2,0.9-2.3,1.9-3.6,2.7
	c-1.7,0.9-3.5,1.3-5.3,1.9c-6.4,2-12.3,5.5-17,10.2"/>
<text transform="matrix(1 0 0 1 56.1722 276.754)"><tspan x="0" y="0" font-family="'Verdana-Italic'" font-size="10">Vogelsang</tspan><tspan x="27.7" y="12" font-family="'Verdana-Italic'" font-size="10">Peak</tspan></text>
<text transform="matrix(1 0 0 1 111.4578 282.254)" font-family="'Verdana-Italic'" font-size="8">× 11493</text>
<text transform="matrix(1 0 0 1 214.5144 84.6181)"><tspan x="0" y="0" font-family="'Verdana-Italic'" font-size="10">Fletcher</tspan><tspan x="16.3" y="12" font-family="'Verdana-Italic'" font-size="10">Peak</tspan></text>
<text transform="matrix(1 0 0 1 257.7078 90.004)" font-family="'Verdana-Italic'" font-size="8">× 11410</text>
<text transform="matrix(1 0 0 1 292.2468 34.004)"><tspan x="0" y="0" font-family="'Verdana-Italic'" font-size="8">Townsley</tspan><tspan x="0" y="9.6" font-family="'Verdana-Italic'" font-size="8">Lake</tspan></text>
<text transform="matrix(1 0 0 1 281.532 142.754)"><tspan x="0" y="0" font-family="'Verdana-Italic'" font-size="8">Hanging Basket</tspan><tspan x="44.2" y="9.6" font-family="'Verdana-Italic'" font-size="8">Lake</tspan></text>
<text transform="matrix(1 0 0 1 182.4968 43.004)"><tspan x="0" y="0" font-family="'Verdana-Italic'" font-size="8">Fletcher</tspan><tspan x="0" y="9.6" font-family="'Verdana-Italic'" font-size="8">Lake</tspan></text>
<text transform="matrix(1 0 0 1 316.9968 283.754)"><tspan x="0" y="0" font-family="'Verdana-Italic'" font-size="8">Gallison</tspan><tspan x="0" y="9.6" font-family="'Verdana-Italic'" font-size="8">Lake</tspan></text>
<g>
	<g>
		<polyline fill="none" stroke="#7D7D7D" stroke-miterlimit="10" points="85.2,341.6 85.2,348.7 275.4,348.7 275.4,341.7 		"/>
		<line fill="none" stroke="#7D7D7D" stroke-miterlimit="10" x1="180.5" y1="341.4" x2="180.5" y2="348.7"/>
		<line fill="none" stroke="#7D7D7D" stroke-miterlimit="10" x1="161.2" y1="349.2" x2="161.2" y2="343.7"/>
		<line fill="none" stroke="#7D7D7D" stroke-miterlimit="10" x1="142.4" y1="349.2" x2="142.4" y2="343.7"/>
		<line fill="none" stroke="#7D7D7D" stroke-miterlimit="10" x1="123.3" y1="349.2" x2="123.3" y2="343.5"/>
		<line fill="none" stroke="#7D7D7D" stroke-miterlimit="10" x1="104.6" y1="349.2" x2="104.6" y2="343.7"/>
	</g>
	<text transform="matrix(1 0 0 1 83.7836 339.1467)" fill="#7D7D7D" font-family="'Verdana'" font-size="8">0</text>
	<text transform="matrix(1 0 0 1 174.2947 339.1467)" fill="#7D7D7D" font-family="'Verdana'" font-size="8">0.5</text>
	<text transform="matrix(1 0 0 1 258.3416 339.1467)" fill="#7D7D7D" font-family="'Verdana'" font-size="8">1 mi</text>
</g>
</svg>
