<?xml version="1.0" encoding="utf-8"?>
<!-- Generator: Adobe Illustrator 17.1.0, SVG Export Plug-In . SVG Version: 6.00 Build 0)  -->
<!DOCTYPE svg PUBLIC "-//W3C//DTD SVG 1.1//EN" "http://www.w3.org/Graphics/SVG/1.1/DTD/svg11.dtd">
<svg version="1.1" id="Layer_1" xmlns="http://www.w3.org/2000/svg" xmlns:xlink="http://www.w3.org/1999/xlink" x="0px" y="0px"
	 viewBox="0 0 360 360" enable-background="new 0 0 360 360" xml:space="preserve">
<path fill="none" stroke="#E1E1E1" stroke-miterlimit="10" d="M-10.7,264.6c0.6,0.6,1.3,1.3,1.9,1.9c0.9,0.9,1.9,1.9,3.1,2.4
	c3.5,1.6,8-0.9,11.4,0.8c2.1,1.1,3.3,3.4,3.9,5.7c0.6,2.3,1,4.7,2.2,6.8c1.2,2,3,3.4,4.3,5.3c1.7,2.5,2.3,5.5,2.8,8.4
	c1.3,6.9,2.6,13.8,2.8,20.8c0.1,5.7-0.5,11.4,0.2,17c0.2,1.8,0.6,3.6,1.3,5.3c0.7,1.7,1.9,3.1,2.6,4.8c2.3,5.6-0.5,11.9-0.8,18
	c-0.2,5.4,1.7,10.9,0.2,16"/>
<path fill="none" stroke="#E1E1E1" stroke-miterlimit="10" d="M-1.4,378c-0.1,0.1,0,0.2,0.1,0.1c0.1,0,0.1-0.1,0.1-0.2
	c0.5-2.3,1.4-4.6,2.7-6.6c0.3-0.5,0.7-1.1,1.2-1.5c1.2-0.9,3.1-0.9,4.3,0c0.9,0.7,1.3,1.7,1.8,2.8c1.2,2.7,2.4,5.7,1.7,8.5"/>
<path fill="none" stroke="#E1E1E1" stroke-miterlimit="10" d="M52.1,381.2c-0.2-10.8-0.4-21.6-0.5-32.4c-0.1-6.7-0.2-13.5-1.9-20.1
	c-2.3-8.9-7.4-16.8-11.8-24.8s-8.4-16.8-8-26c0.3-9.2,5-18.3,2.7-27.2c-0.8-3-2.3-5.7-3.2-8.7c-1.1-3.7-1.3-7.7-3.4-10.9
	c-2.3-3.5-6.4-5.3-10.5-5.9c-4.1-0.6-8.2-0.2-12.4-0.2c-5.7,0.1-11.5-0.5-17.1-1.7"/>
<path fill="none" stroke="#E1E1E1" stroke-miterlimit="10" d="M138.6,376c3.6-2.5,3.4-7.7,2.9-12c-0.1-0.7-0.2-1.4-0.6-1.8
	c-0.5-0.6-1.3-0.7-2.1-0.7c-4.4-0.4-8.8-0.4-13.2,0.1c-1.9,0.2-4.4,0.2-5-1.6c-0.4-1.1,0.2-2.3,0.5-3.4c0.7-2.7-0.6-5.8-3-7.2
	c-1-0.6-2.2-0.9-3-1.6c-0.9-0.7-1.4-2.1-0.7-3c0.5-0.7,1.5-0.7,2.3-1.1c1.8-0.9,2.2-3.3,1.5-5.2s-4.3-2.6-3.8-4.5
	c1.8-6.2,13.6-8,18.8-4.2c2.3,1.7,2.1,5.4,4.7,6.7c2.6,1.3,5.5,1.6,8.4,1.8c2.5,0.2,5.4,0.3,7.2-1.5c1.6-1.6,1.7-4.2,1.7-6.6
	c-0.1-4.7-0.3-9.9-3.5-13.4c-0.7-0.8-1.6-1.5-1.8-2.5c-0.3-1.2,0.3-2.4,0.9-3.4c5.6-10,9.4-21.2,10.9-32.6c0.3-2,0.4-4.4-1.1-5.8
	c-0.9-0.8-2.1-1.1-3.2-1.3c-8.7-1.9-18.8,6-26.1,0.8c-3.1-2.2,5.4-6,5.7-9.9c0.2-2.3-1.4-4.5-3.5-5.5s-4.5-1-6.8-0.6
	c-6.8,1.2-12.7,6.3-15,12.8c-0.8,2.4-1.2,5-2.5,7.1c-2.4,3.9-7.3,5.5-11.7,6.6c-7.9,2.1-16.8,10.2-23.7,5.9
	c-4.4-2.8-4.3-9.7-8.6-12.6c-1.3-0.9-2.8-1.7-3.1-3.3c-0.1-0.7,0-1.4,0.2-2.1c1.1-6.3-0.6-12.6-1.2-19c-0.6-6.1-0.1-12.4,1.4-18.3
	c0.8-3.3,2-6.7,2.2-10.1s-0.7-7.2-3.4-9.4c-2.1-1.8-5-2.3-7.6-3.1c-5.1-1.6-9.6-4.5-14.1-7.3c-3.1-1.9-8-4.4-7.1-7.9
	c0.2-0.8-0.6-1.2-1.1-1.8c-0.9-1-0.5-2.5-0.3-3.9c0.7-4.1-1.1-8.2-2.9-11.9c-1.4-2.8-2.8-5.7-4.1-8.5c-0.3-0.5-0.5-1.1-0.6-1.6
	c-0.1-0.5-0.1-1.1-0.1-1.6c0-3.9-0.8-7.7-2.2-11.3c-0.2-0.6-0.5-1.2-1-1.6c-0.4-0.3-0.9-0.5-1.4-0.6c-1.7-0.5-3.5-0.9-5.2-1.4
	c-2.4-0.6-4.8-1.3-7.3-1.1c-1.6,0.1-3.1,0.6-4.7,1c-4,1-8.2,1.5-12.3,1.3"/>
<path fill="none" stroke="#E1E1E1" stroke-miterlimit="10" d="M-14.2,110.1c5.4-1,8.8,5.5,10.4,10.8c2,6.7,4.6,14.3,11.1,16.9
	c3.4,1.4,7.1,1.1,10.8,0.7c5.3-0.5,10.5-0.9,15.8-1.4c3.2-0.3,6.5-0.5,9.4,0.8c6.3,3,6.9,11.9,5,18.6c-0.5,1.7-1,3.5-0.3,5.1
	c0.6,1.4,2,2.2,3.3,3.1c4.9,3.4,8.4,8.8,9.5,14.7c0.3,1.7,0.4,3.4,1.4,4.9c2,3.1,6.5,3.2,10.1,2.3c3.6-0.9,7.3-2.5,10.9-1.4
	c3.1,0.9,5.8,1.9,9,2.5c4.6,0.9,0.3,8.5,1.6,13c2.5,8.3,8.1,13.3,9.2,22c1.3,10.9,18.1,11.6,28.2,16.1c4.3,1.9,8.5,4.5,10.9,8.6
	c2.4,4.1-2.9,8.6-1.2,13c1.9,4.9,8.7,6.5,14,6.5c3.3-0.1,5.7-3.5,8.9-2.7c3.2,0.7,5.9,2.8,8.2,5.2c7.3,7.6,10.8,18.7,9.1,29
	c-0.9,5.3,0.7,10.7,1.1,16.1c0.1,0.8,0.1,1.6,0.4,2.4c0.1,0.3,0.3,0.7,0.4,1c0.8,2,0.2,4.3-0.3,6.4c-0.8,3.4-1,7-1.8,10.4
	c-0.9,3.4-2.5,6.8-5.3,8.9c-0.9,0.6-1.9,1.1-2.7,1.8c-2.8,2.1-4.1,5.6-5.3,8.9c-0.4,1-0.6,2.3,0.2,2.9c0.4,0.3,0.9,0.3,1.2,0.7
	c0.3,0.3,0.3,0.7,0.4,1c0.5,2.6,0.9,5.6-0.5,7.8c-0.5,0.7-1.1,1.3-1.5,2.1c-0.3,0.7-0.3,1.4-0.4,2.1c-0.5,3.3-2.2,6.4-4.7,8.6"/>
<path fill="none" stroke="#E1E1E1" stroke-miterlimit="10" d="M174.9,382.8c2.3-8.2,10.3-13.4,15.1-20.5c2.5-3.7,4.1-7.9,5.7-12.1
	c2.5-6.6,5-13.3,6-20.3c0.7-4.7,0.7-9.7-1.5-13.8c-1.2-2.3-3-4.2-4.2-6.5c-4.4-8.5,0.5-20.1-5-27.8c-3.9-5.5-12-7-15.5-12.8
	c-2-3.3-2.3-7.8-5.3-10.4c-3.8-3.3-10.6,3.3-14.4,0c-1.6-1.4-1.6-4.1-3.8-4.3s-4.1,2.5-6.1,1.7c-1.8-0.8,0.5-4.1,2.3-4.8
	c3.8-1.4,2.1-9-1-11.5c-3.1-2.5-7.3-3-11.1-4.4c-6.5-2.3-12-7.3-14.8-13.6c-0.5-1.1-0.9-2.3-1.8-3.3c-0.6-0.6-1.4-1.1-2-1.8
	c-1.6-2-0.8-5-1.9-7.3c-1.1-2.6-4.2-3.8-5.8-6.1c-3.1-4.6,1-11.2-1-16.4c-2-5.2-8.9-6.7-12.1-11.3c-3.2-4.5-2-10.9-4.6-15.7
	c-1-1.8-2.8-3.5-4.8-3.2c-1.1,0.2-2,0.8-3,1c-3.2,0.4-5-3.7-7.9-5.1c-1.8-0.9-4.2-0.7-5.7-2.1c-1.7-1.7-0.9-4.5,0.2-6.6
	c2.7-5,10.2-5.9,12.4-11.1c3-7-6.2-14.7-13.1-18c-5.9-2.8-13.2-1.7-18.5-5.5c-2.3-1.7-4.5-4.3-7.3-3.8c-1.2,0.2-2.2,1-3.4,1.1
	c-2,0-3.5-2.1-5.5-2.4c-2.2-0.4-4,1.5-5.9,2.7c-4.5,2.8-10.3,1.9-15.5,0.9c-9-1.7-18-3.4-27.1-5.1"/>
<path fill="none" stroke="#E1E1E1" stroke-miterlimit="10" d="M-12.3,93.1c14.1,2.8,28.5,5.7,42.8,4.4c4.3-0.4,8.6-1.1,12.9-1
	c13.4,0.5,24.7,9.5,36.2,16.2c3.2,1.9,6.5,3.6,9.1,6.2c7.2,7.1,2,19.8,7.2,28.4c1.9,3.1,5,5.1,5.8,8.6s0.8,7.1,1.9,10.6
	c2.9,9.4,13.2,16.5,12,26.3c-0.2,1.5-0.7,3.1-0.2,4.6c0.8,2.4,3.7,3.2,5.9,4.6c6.3,4,6.2,13.2,9.9,19.7c3.8,6.6,11.4,10,18.4,12.9
	c1.6,0.7,2.8,2,4.3,3.1c0.4,0.3,0.9,0.7,1,1.2c0.1,0.4-0.1,0.8-0.2,1.2c-1,2.7-4,6.2-2.5,8.6c5.7,9.6,22.2,4.6,28.6,13.8
	c1.8,2.6,3.1,5.6,5.1,8.2c2.4,3.2,5.6,5.6,8.7,8.2c5.4,4.7,10.2,10.1,14.2,16.1c1.8,2.8,3.5,5.7,4.5,8.9c1.3,4.1,1.3,8.4,1.3,12.6
	c-0.1,13.3-1,26.6-2.9,39.8c-0.4,2.7-0.8,5.3-1.8,7.8c-1,2.4-2.4,4.6-3.9,6.8c-2.8,4.2-5.7,8.5-8.5,12.7"/>
<path fill="none" stroke="#E1E1E1" stroke-miterlimit="10" d="M275.6,380.1c3.1-3.2,6.4-6.1,10-8.8c3.7-2.8,7.9-5.2,12.5-5.7
	c2.8-0.3,5.6,0.1,8.3,0.6c2.3,0.4,4.5,0.7,6.8,1.1c1.5,0.2,3.1,0.5,4.4,1.3c1.3,0.8,2.4,2.2,2.3,3.7c0,0.5-0.2,1-0.1,1.6
	c0.1,1.4,1.3,2.3,2.4,3.1"/>
<path fill="none" stroke="#E1E1E1" stroke-miterlimit="10" d="M356.9,377.8c-2.9-3.2-7.4-4.2-11.7-5.1c-5.8-1.2-11.5-2.4-17.3-3.6
	c-0.3-0.1-0.5-0.1-0.7-0.3c-0.2-0.2-0.2-0.4-0.2-0.7c-0.5-2.8-3.9-3.9-6.7-4.4c-5.6-1.1-11.2-2.2-16.9-3.3c-2.2-0.4-4.5-0.9-6.8-1
	c-4.3-0.3-8.8,0.4-12.8,2c-3.7,1.5-7,3.9-9.7,6.9c-0.9,1-1.7,2.1-2.5,3.3c-2.7,4.1-4.5,8.8-8.2,12.1"/>
<path fill="none" stroke="#E1E1E1" stroke-miterlimit="10" d="M250.5,380.4c2.5-4.2,7-6.6,11-9.2c4-2.7,7.8-5.8,11.1-9.3
	c3-3.2,6.1-7,10.4-7.9c2.1-0.4,4.2-0.2,6.3,0.1c12,1.6,24,3.6,35.9,5.7c2.9,0.5,4.9,2.4,7.2,4.2c3.7,2.9,9.3,0.7,13.9,1
	c1.8,0.1,3.6,0.3,5.4,0.7c2.3,0.5,4.5,1.4,6.8,2.2c5.3,1.8,10.8,2.8,16.4,2.9"/>
<path fill="none" stroke="#E1E1E1" stroke-miterlimit="10" d="M370.5,357.5c-8.7-2.5-17.7-5-26.7-4c-1.4,0.1-2.8,0.4-4.2,0.4
	c-1.6,0-3.1-0.3-4.7-0.6c-16.6-3.4-33.2-6.7-49.8-10.1c-4.4-0.9-9.2-1.7-13.3,0.2c-2.4,1.2-4.3,3.2-6.2,5.1
	c-8.5,8.6-18.9,28.2-28.9,21.5c-3.3-2.2-0.3-8-2-11.6c-0.8-1.7-1.8-3.2-2.4-5c-0.7-2.1-0.8-4.3-0.9-6.4c-0.6-12.8-1.5-26-6.5-37.8
	c-3.2-7.5-7.8-14.2-12.4-20.9c-6.1-8.8-12.7-18-22.3-22.8c-0.9-0.4-1.8-0.8-2.4-1.6c-1-1.3-0.7-3.2-0.7-4.9
	c-0.1-6.6-7.7-7.5-13.8-10.2c-5.8-2.6-13.2,1.3-17.1-3.7c-1.8-2.3,5-5.8,4.2-8.6c-2.1-7.4-11.6-9.9-17.4-14.9
	c-0.9-0.8-1.8-1.6-2.5-2.6c-0.6-0.8-0.9-1.8-1.4-2.7c-0.6-1.3-1.5-2.4-2.4-3.5c-3-3.9-6-7.8-9.1-11.7c-1.9-2.4-3.8-5-4.5-8
	c-0.6-2.7-0.2-5.5-0.8-8.2c-1.1-5.6-6.1-9.6-8.1-14.9c-1.3-3.4-1.3-7.1-1.7-10.7c-0.6-5.6-2.1-11-3.6-16.4
	c-1.3-4.6-2.6-9.2-4.8-13.4c-8.6-16.5-29.3-23.4-39.3-39c-1.8-2.9-4.9-6.5-7.8-4.8c-0.8,0.5-1.4,1.3-2,2c-3,2.9-7.7,2.5-11.9,2
	c-19.4-2.4-39.1-2.8-58.6-1.2"/>
<path fill="none" stroke="#E1E1E1" stroke-miterlimit="10" d="M-12.3,76.8c2.4,1.2,4.9,2.5,7.6,2.7c2.6,0.1,5.1-0.8,7.7-1.5
	c4.6-1.2,9.4-1.6,14.1-1.1c6.8,0.7,14.4,3.1,19.9-0.8c1-0.7,1.9-1.6,3-2c3.4-1.3,6.8,1.9,8.6,5c0.4,0.6,0.8,1.3,1.5,1.5
	c1.1,0.4,2.1-0.5,3.1-1.1c2.7-1.7,6.3-1.4,9.1,0c2.9,1.4,5.2,3.6,7.5,5.9c3.7,3.7,7.4,7.3,11.2,11c2.5,2.5,5,5,8.1,6.8
	c2.7,1.6,5.7,2.6,8.5,3.9c10.9,5.1,19.2,15.5,21.6,27.3c0.4,2,0.7,4,0.9,6.1c0.3,2.5,0.6,5,0.8,7.4c0.3,2.9,0.4,5.7,0.7,8.6
	c2.4,21.7,14.6,40.9,26.5,59.1c2.3,3.5,6.6,5.3,9.7,8.1c2.2,1.9,4.5,3.9,5.6,6.6s-2.5,6.2-0.9,8.6c2.3,3.4,7.2-0.9,10.2,1.9
	c3,2.7,5.6,6.3,9.5,7.4c2.3,0.7,4.9,0.4,7.1,1.3c3.5,1.4,5.3,5.1,7.2,8.3c6.9,11.5,18.7,18.9,28.5,28c13.9,12.8,12.7,39.4,29.8,47.3
	c4.1,1.9,8.9-1.1,13.4-0.3c18.4,3,36.8,6.1,55.2,9.1c5.9,1,12,2,18,0.9c1.8-0.3,3.7-0.8,5.5-0.9c3.1-0.1,6.1,1.2,9.2,1.8
	c6.1,1.2,12.8-0.2,17.8-3.9"/>
<path fill="none" stroke="#E1E1E1" stroke-miterlimit="10" d="M371.8,328.4C356,322,340.1,329,324,330c-3,0.2-6,0.4-9,0
	c-15.4-2-28-11-43.3-13l0.3,0c-2.3-0.7-4.7,1.7-6.3,0.6c-2.9-2.1-2.5-6.7-4.4-9.8c-0.7-1.2-1.5-2.4-2.6-3.2
	c-0.7-0.6-1.6-0.9-2.4-1.5c-1.8-1.4-2.5-3.8-4.1-5.4c-2.2-2.2-5.7-2.7-8.3-4.4c-4.1-2.8-5.5-8.3-9.2-11.6c-1.1-1-2.4-1.7-3.7-2.5
	c-3.8-2.3-7.7-4.5-11.5-6.8c-0.5-0.3-0.9-0.5-1.3-0.9c-1-0.9-1.6-2.2-2.3-3.3c-1.7-2.7-4.2-5-7.1-6.3c-3.9-1.8-5.1-7.1-8.6-9.7
	c-1.3-1-2.7-1.8-3.9-3c-2.1-2.1-3.1-4.9-4.7-7.4c-1.9-3-4.7-5.4-7.9-6.9c-4-1.9-8.7-2.5-12.1-5.3c-0.4-0.4-0.9-0.8-0.8-1.4
	c0-0.6,0.6-1.1,0.7-1.7c0.1-0.6-0.4-1.2-0.9-1.7c-5.4-5.4-10.8-10.8-16.2-16.2c-0.6-0.6-1.2-1.2-1.6-1.9c-0.5-0.8-0.9-1.7-1.2-2.6
	c-1.3-3.2-3-6.3-4.6-9.4c-6.2-12.2-11-25.1-14.4-38.3c-1.3-5.1-1.1-9.9-1.5-15.1c-0.1-0.7-0.1-1.5,0.2-2.1c0.3-0.7,1.1-1.2,1.4-1.9
	c0.4-0.8,0.2-1.7,0.1-2.5c-0.8-3.9-2.4-7.5-4.1-11.1c-4.7-10.2-10.1-20.1-16.1-29.7c-1.4-2.2-2.8-4.4-4.8-5.9s-4.8-2.4-7.2-1.4
	c-1.8,0.7-3.1,2.2-5,2.7c-2.4,0.6-4.8-0.8-6.6-2.4s-3.3-3.7-5.4-4.9c-2.3-1.3-5-1.5-7.5-2.5c-4.7-1.9-8.2-6.5-13.2-7.4
	c-2.8-0.5-5.8,0.2-8.5-0.6c-2.1-0.7-3.8-2.2-5.8-3.3c-7.3-3.9-16.2-0.4-24.5-0.7c-5.7-0.2-11.4-2.2-16.9-1c-2.8,0.6-5.3,2-8,2.9
	c-5,1.8-10.6,2.3-15.8,1.2"/>
<path fill="none" stroke="#E1E1E1" stroke-miterlimit="10" d="M-13.7,55.7C-8.8,57-3,58,0.7,54.6c1.1-1,2-2.4,3.4-2.9
	c2.4-0.8,4.6,1.3,6.7,2.8c5.1,3.7,11.7,3.9,17.9,4.5c22.5,2,44.2,9.4,64.6,19c3.3,1.5,7.6,2.9,10.1,0.3c1.1-1.2,1.6-3.2,3.2-3.6
	c0.9-0.3,1.9,0.1,2.8,0.6c6.8,3.5,11.2,10.1,15.2,16.6c6.7,11,12.9,22.3,18.4,34c1.5,3.2,3,6.7,2.5,10.3c-0.2,1.2-0.6,2.4-0.7,3.6
	c-0.1,1.3,0.2,2.7,0.5,4c1.5,6.7,2.9,13.3,4.4,20c2,9.1,4,18.3,8.9,26.2c2,3.2,2.3,6.8,3.5,10.4c2.9,8.2,12.9,11.9,16.9,19.6
	c2.2,4.3,7.9,6.1,11.7,9c3.1,2.3,6.2,4.7,9,7.4c3.1,3,5.8,6.4,8.7,9.6c8.9,9.8,19.7,17.8,30.4,25.7c2.5,1.9,5,3.7,7.5,5.6
	c4.6,3.4,9.2,6.8,13.8,10.1c5.4,3.9,8,10.9,13.9,14.1c2.5,1.4,5.7,0.4,8.4,1.3c6.6,2.2,13.2,4.3,19.7,6.5c6.9,2.3,14.5,4.5,21.1,1.5
	c5-2.2,8.4-7,13.2-9.6c2.2-1.1,4.6-1.8,7.1-2.2c2.3-0.4,4.8-0.6,6.6-2.2c1.8-1.5,2.1-4.9,0-5.9c-2.8-1.3-5.7,2.6-8.7,1.9
	c-1.4-0.3-2.3-1.5-3.2-2.6c-9.6-12.4-20.6-23.9-32.6-34c-3.4-2.9-7-5.8-8.7-9.9c-0.8-1.9-1.1-3.9-1.7-5.9
	c-2.4-8.8-8.4-16.3-15.4-22.2c-7-5.9-15-10.5-22.6-15.6c-4-2.6-8-5.5-10.7-9.4c-2.3-3.2-3.6-7-6-10.2c-2.3-3-5.6-5.3-7.5-8.6
	c-3.6-6.3-4.9-13.1-7.8-19.7c-1.8-4.2-2.6-9.3-5.1-13.1c-2.5-3.8-5.8-7.1-8.6-10.8c-1.8-2.4-3.4-5-5.4-7.2
	c-5.5-6.2-13.4-9.6-20.9-13.1c-11.1-5.2-22.8-12-26.9-23.5c-1.2-3.4-1.8-7.3-4.5-9.6c-2-1.7-4.9-2.4-6.2-4.8c-0.6-1.2-0.7-2.6-0.7-4
	c-0.1-3.3-0.1-6.7-0.2-10c0-1.3-0.1-2.8-0.9-3.8c-1-1.2-2.6-1.5-3.9-2.3c-1.3-0.9-2-2.3-2.8-3.6c-4.4-8.3-8.9-16.5-13.3-24.8
	c-1.1-2.1-2.3-4.3-2.9-6.6c-0.5-2-0.6-4.2-1.6-6.1c-2.4-4.5-8.5-5.1-12.7-7.9c-2-1.3-3.5-3.1-5.5-4.5c-1.9-1.3-4.3-1.5-6.6-1.2
	c-2.2,0.3-4.1-1.4-6.3-1.6c-1.3-0.2-2.7-0.3-4-0.8c-1.4-0.4-2.6-1.2-3.7-2.1c-0.5-0.5-1-1-1.6-1.4c-1.2-1-2.8-1.4-4.3-1.9"/>
<path fill="none" stroke="#E1E1E1" stroke-miterlimit="10" d="M47.5-4.7C55-3,63-5.1,70-1c5,2.9,8.9,7.2,14,9c9.9,3.4,21,2,28,10
	c2.4,2.7,1.1,8.1,2,12c0.5,2.2,2,4,4,5c10,5,15.9,16.1,17.3,27.3c0.3,2.3,5.4,11.2,5.8,12c4.1,7,11.8,13.4,8.2,20.7
	c-0.8,1.6-3.5-0.5-4.6-2c-1-1.5-1.8-3.3-3.3-4.3c-0.8-0.5-1.7-0.6-2.6-1c-1.7-0.7-3.1-1.9-4.4-3.2c-8.5-8-17.1-16.1-22.7-26.3
	c-1.2-2.2-2.4-4.6-4.3-6.3c-1.9-1.7-4.9-2.5-7.1-1.1C97,53,101.5,58.5,99,61.5c-3.4,4.1-10.6-1.3-15.9-2c-4.2-0.5-8.4-1.1-12.3-2.7
	c-2.1-0.9-4.1-2.1-6.3-2.6c-2.1-0.5-4.3-0.3-6.4-0.4c-6.7-0.3-13-3.4-19.6-4.9c-11.5-2.5-23.7,0-35.1-2.8c-1.1-0.3-2.3-0.6-3.4-0.4
	c-1,0.1-1.9,0.7-2.9,1.1c-3.8,1.8-8.1,2.6-12.2,2.1"/>
<path fill="none" stroke="#E1E1E1" stroke-miterlimit="10" d="M-13.3,30.2c3.8,1.8,9-1.4,12.4,1.1c1.3,0.9,1.4,2.9,3,3.3
	s3.2,0.1,4.7-0.3c5.4-1.3,11.1-3.4,16.4-1.9c2.3,0.7,4.4,2,6.8,2.7c1.8,0.6,3.6,0.7,5.5,1.1c2.6,0.5,5,1.4,7.6,2.1
	c6.1,1.5,12.5,1.5,18.5,0c1.5-0.4,2.9-0.9,4.1-1.8s2.5-2.9,1.6-4c-1.5-1.8-4.2,1.4-6.3,2.5c-0.7,0.3-1.6,0.5-2-0.2
	c-0.4-0.7,0.2-1.5,0.8-2c0.6-0.5,1.9-1.1,1.4-1.8c-0.7-0.9-2.3,0-3.5,0.1c-1.2,0-2.6-0.4-3-1.5c-0.6-1.6,1.1-3.1,2.6-3.6
	c0.4-0.2,0.8-0.3,1.1-0.6c0.3-0.4,0.3-1.1,0.2-1.6c-0.2-1.9-0.4-3.7-0.7-5.6c-0.1-0.9-0.3-1.9-0.9-2.6c-0.8-0.8-2.2-0.8-3.2-1.4
	c-0.8-0.5-1.3-1.3-1.9-2c-1.4-1.5-3.5-2-5.4-2.6C42.4,8.5,38.7,7,35,5.1c-3.8-1.9-7.5-4.2-11.6-4.7c-1.9-0.2-3.8-0.1-5.7-0.3
	c-2.6-0.3-5.1-1.3-7.5-2.3c-4.7-2-9.4-4.2-14-6.5"/>
<path fill="none" stroke="#E1E1E1" stroke-miterlimit="10" d="M117.4-6.7c11.6,9.1,14.4,25.3,22.8,37.4c5.8,8.3,14.6,15.4,15.4,25.5
	c0.3,3.3,2.4,6,4.5,8.6c6.8,8.4,13.7,16.9,20.5,25.3c3,3.7,6,7.3,9.6,10.2c3.7,2.9,8,4.9,12.3,7c5.2,2.5,11.6,3.3,15.7,7.4
	c3.1,3.1,3.9,7.9,5.8,11.9c0.4,0.8,0.8,1.7,1.2,2.5c2.6,5.3,5.2,10.7,9,15.2c8.3,9.9,14.7,21.4,18.5,33.7c0.9,2.8,3.2,4.8,5.5,6.7
	c0.3,0.2,0.5,0.4,0.8,0.6c5.3,4.3,9.8,8.5,15.2,12.6c3.1,2.3,6.1,4.7,9.5,6.6c5.2,3,11,5.1,15.4,9.1c4.8,4.2,7.6,10.2,11,15.5
	c6.9,10.8,16.6,19.6,26.3,28c5.9,5.1,12,10.2,18.8,14.2c6.8,3.9,14.4,6.7,22.3,6.8"/>
<path fill="none" stroke="#E1E1E1" stroke-miterlimit="10" d="M373.3,265.4c-7.6-2.3-15.1-5.2-22.4-8.5c-2.1-1-4.3-2-6.1-3.6
	c-2.1-1.8-3.6-4.2-5.1-6.6c-3.2-4.9-6.7-9.6-10.6-14c-2.2-2.5-4.4-5-6.1-7.9c-1.7-3-2.7-6.3-4.7-9.1c-1.5-2-3.4-3.6-5.3-5.1
	c-10.4-8.3-21.1-16.2-32.4-23.1c-4.7-2.9-9.6-5.6-13.6-9.4s-7.2-8.8-7.5-14.3c-0.1-1.8,0.1-3.7-0.9-5.2c-1-1.5-2.8-2.2-4.4-3.1
	c-2.5-1.4-4.6-3.7-5.9-6.3c-4.8-10-11-19.5-11.3-30.5c0-0.8-0.1-1.6-0.6-2.1c-0.6-0.6-1.5-0.6-2.3-0.7c-3-0.5-5.1-3.1-7.3-5.1
	c-6.3-5.7-15.1-7.3-22.8-10.7c-5.2-2.3-10.6-6.4-10.9-12.1c-0.1-2.5,0.7-5.1-0.3-7.4c-0.8-1.8-2.6-3-4.3-4.1
	c-6.4-4.2-12.7-9.2-15.8-16.2c-1.2-2.7-2-5.6-3.5-8.1c-2.1-3.4-5.5-5.8-8.2-8.8c-5.3-6-7.6-14.2-13.1-20c-2-2.1-4.3-3.9-6-6.2
	c-1.8-2.5-2.8-5.6-4.2-8.4c-2.7-5.4-7-10-12.3-13"/>
<path fill="none" stroke="#E1E1E1" stroke-miterlimit="10" d="M136.7-5.8C147.6,6.8,162,17,169.5,31.8c1.8,3.5,4.8,6,7.9,8.5
	c10.2,8,13.1,22.4,22.2,31.6c0.8,0.8,1.6,1.5,2,2.5c0.3,0.7,0.4,1.5,0.5,2.2c0.3,4,0,8.1,0.8,12.1c0.8,4,3.1,8,6.9,9.3
	c3,1,6.5,0.3,9.4,1.5c2.2,0.9,4,2.8,6.4,2.6c1.3-0.1,2.5-0.9,3.8-0.7c0.9,0.1,1.7,0.8,2.4,1.4c2.5,2.1,5.1,4.3,7.6,6.4
	c1.6,1.3,3.2,2.8,4,4.7c0.8,1.9,0.7,4.1,0.6,6.2c-0.1,5.1,0.4,10.2,1.7,15.1c1.5,6,4.2,12.1,9.6,15.1c3.9,2.2,9.9-2.9,13,0.4
	c2.7,2.9-1.9,7.8-0.3,11.4s4.5,6.5,7.6,9c8.5,6.8,19.3,11.3,25,20.5c1.2,1.9,3,3.3,5,4.3c3.3,1.7,6.5,3.7,9.4,5.9
	c3.4,2.5,6.6,5.4,9.7,8.3c4.9,4.5,9.6,9.3,14.2,14.1c0.5,0.6,1.1,1.2,1.2,1.9c0.1,0.5-0.1,0.9-0.2,1.4c-1.1,5.6,2.3,11.3,6.8,14.8
	c4.5,3.5,10.1,5.4,15.3,7.8c3.3,1.5,6.6,3.3,10.2,3.5"/>
<path fill="none" stroke="#E1E1E1" stroke-miterlimit="10" d="M370.5,235.3c-10,0.7-20.1-4.2-25.8-12.4c-4.2-6.1-6.2-13.9-11.9-18.8
	c-3.6-3-4.4-7.4-7.7-10.7c-3.4-3.4-10.1,1.8-13.8-1.3c-4.9-4.2-4-12.7-8.6-17.2c-3.2-3.1-8-3.4-12.2-5c-9.2-3.6-8.9-14.7-11.7-24.2
	c-2.2-7.5-15.3,3.2-22.7,0.5c-5.2-1.8-7.1-8.1-7.7-13.5c-0.9-8.1,6.5-16.8,2.6-24c-2.5-4.7-9.8-4.9-11.6-9.9
	c-0.3-0.9-0.6-1.8-1.1-2.5c-1.3-1.9-4-2.3-6.4-2.5c-5.6-0.4-11.4-0.9-16.2-3.7c-4.8-2.9-8.2-9-5.9-14.2c0.8-1.8,2.2-3.6,1.8-5.5
	c-1.1-4.5-8.7-3-11-7c-2.5-4.4-1.6-9.7-4.1-14.1c-0.7-1.2-1.6-2.2-2.3-3.4c-0.6-1.1-1-2.4-1.6-3.5c-0.8-1.4-2.1-2.5-3.1-3.7
	c-4-4.7-5.5-11.7-11-14.6c-1.1-0.6-2.3-0.9-3.3-1.5c-3.2-1.9-4.4-6-7.1-8.6c-0.9-0.9-1.9-1.6-2.8-2.4c-1.2-0.9-2.2-2-3.3-3
	c-1.9-1.9-3.8-3.7-5.8-5.6c-3.5-3.4-7.1-7-8.4-11.7"/>
<path fill="none" stroke="#E1E1E1" stroke-miterlimit="10" d="M163.8-7.9c6.5,10.5,15.5,19.5,26.1,25.9c1.4,0.9,2.9,1.7,4,3
	c1.5,1.7,2,3.9,2.9,6c2.5,6.3,7.2,11.6,10.2,17.7c1.9,3.9,3.1,8.2,5,12.2s7.1,5.2,9.1,9.1c3.2,6.4-0.2,14.8,5,19.9
	c5.1,5,14.6-0.3,20,4.5c2.8,2.5-0.4,7.4,1,10.8c1,2.2,2.7,4.5,5.1,4.7c2.1,0.1,6.1-1.3,5.9,0.9c-0.4,4.6-2.4,8.8-2,13.4
	c0.3,3.4,0.6,6.9,2.2,9.9c1.6,3.1,4.5,5.4,7.2,7.6c1.3,1,2.8,2.1,4.4,2c1.6-0.1,2.8-1.3,4.2-2c5.4-2.4,12.9-3.5,17.3,0.5
	c2.5,2.3-4.3,6.1-3.9,9.6c0.3,2.5,1.4,4.5,2.9,6.5c0.7,1,1.8,1.7,2.8,2.3c5.7,3.7,11.3,7.5,17,11.2c0.9,0.6,1.8,1.2,2.4,2
	c0.8,1.1,1,2.5,1.5,3.8c0.8,1.7,2.3,3.1,3,4.9c1.2,3.3-1.8,9.2,1.6,10.1c3.2,0.8,6.4-1.4,9.6-0.9c1.6,0.2,3.3,0.7,4.5,1.9
	c1.6,1.7,1.7,4.2,2.5,6.4c1.2,3.5,5.2,3.5,8.7,5c4.1,1.8,3.3,8.4,5.2,12.5c0.8,1.8,1.7,3.6,3,5c1.4,1.5,3.2,2.4,4.9,3.4
	c5.3,2.9,11,5.8,17.1,5.5"/>
<path fill="none" stroke="#E1E1E1" stroke-miterlimit="10" d="M371.5,213.7c-1.3-0.3-2.5-0.6-3.8-0.8c-5.3-1.2-11.1-2.6-14.6-6.9
	c-3-3.6,0.8-9.2-1.5-13.3c-1.8-3.2-7.3,4.6-10.4,2.7c-3.2-2-0.1-7.6-1.9-10.9c-0.5-0.9-1.1-1.8-1.9-2.4c-0.8-0.5-1.7-0.8-2.5-1.2
	c-6.1-2.7-8-10.3-12.2-15.5c-5.7-7-15.7-9.8-20.3-17.5c-2.1-3.6-2.7-8.1-1.7-12.2c0.4-1.7,0.9-3.9-0.6-4.7c-0.4-0.2-0.8-0.3-1.2-0.3
	c-3.5-0.5-7-1-10.5-1.5c-3.5-0.5-7.4-0.9-10.4,1c-0.9,0.6-1.8,1.4-2.9,1.5c-0.8,0.1-1.6-0.3-2.3-0.7c-5.6-3.4-7.8-10.4-9.6-16.8
	c-1-3.6,2.8-7.2,1-10.5c-1.1-2-4.4,1.2-6.6,0.9c-2.2-0.3-4.5-1.7-5.1-3.9c-0.6-2.4,2.8-4.6,2.3-7c-0.3-1.1-1.2-1.9-1.5-3
	c-0.4-1.7,0.9-4.2-0.7-4.9c-0.7-0.3-1.5,0.1-2.3,0.2c-1.7,0.3-3.3-0.4-4.8-1.2c-2.9-1.5-5.9-2.9-8.8-4.4c-1.9-0.9-3.8-1.9-5.1-3.5
	c-3.2-3.9-1.7-9.7-0.4-14.6c0.2-0.6,0.3-1.4-0.1-1.9c-0.6-0.8-1.8-0.6-2.7-0.7c-2.4-0.4-3.4-3.4-3.9-5.8
	c-3-12.2-10.1-22.8-17.1-33.2c-1.3-1.9-2.6-3.8-4.3-5.3c-1.7-1.4-3.7-2.4-5.7-3.5c-6.1-3.5-11.3-8.3-16.4-13.2
	c-1.9-1.8-3.9-3.7-4.6-6.3"/>
<path fill="none" stroke="#E1E1E1" stroke-miterlimit="10" d="M196.1-6.6c2,1.7,3.3,4.1,5,6.2c3.3,4,8,6.3,12.1,9.4
	c12.1,9.1,18.3,24.1,21,39c0.3,1.9,0.7,3.9,1.7,5.6c0.6,1,1.4,1.8,1.8,2.8c0.4,1,0.3,2.2,0.4,3.3c0.2,5.1,3.3,9.6,7.2,12.9
	s8.6,5.4,13.1,7.6c1.1,0.5,2.3,1.1,3,2.1c1.3,1.7,1,4,0.6,6.1c-0.4,2.3-0.8,4.6-1.1,6.8c-0.2,1.4-0.4,3,0.6,4c1.7,1.7,4.6-0.1,7-0.1
	c4,0,5.8,4.8,7.3,8.4c1.5,3.8,3.9,7.3,7.3,9.5c1.9,1.2,4,2,6.1,2.6c5.5,1.7,11.3,2.5,17.1,2.4c1.3,0,3,0.1,3.7,1.2
	c0.7,1.2,0,2.6-0.3,3.9c-1.2,4.5,1.4,9,4,12.8c4.3,6.2,14,10.1,13.9,17.6c0,0.6-0.3,1.1,0.2,1.5c1.3,1.2,3.1,2.1,3.8,3.8
	c0.2,0.6,0.3,1.4,0.6,2c0.4,0.9,1.1,1.5,1.7,2.1c1.1,1,2.2,2,3.3,3.1c1.5,1.4,3.3,2.9,5.4,2.9c0.9,0,2-0.3,2.5,0.4
	c0.3,0.3,0.3,0.7,0.4,1.1c0.5,3,1.3,5.9,2.3,8.8c0.4,1,0.8,2,1.6,2.8c0.8,0.8,1.9,1.2,2.9,0.8c0.4-0.1,0.8-0.4,1.2-0.4
	c0.5,0.1,0.8,0.6,1.1,1.1c1.1,2.3,2.2,4.6,3.3,6.8c0.5,1,1,2,1.9,2.6c1.6,1.1,3.8,0.6,5.8,0.6c2.4,0,4.8,0.9,6.6,2.5"/>
<path fill="none" stroke="#E1E1E1" stroke-miterlimit="10" d="M369.7,189c-4.6-3.8-9.2-7.6-13.8-11.4c-3.3-2.7-2.8-7.4-5.6-10.6
	c-2.6-3-7.5-2.6-9.6-6c-2.1-3.4-3.4-7.5-6.4-10.1c-1.4-1.2-3.1-2.1-3.7-3.8c-0.5-1.3-0.3-2.8-0.5-4.2c-0.6-6.7-8.6-10.8-9.3-17.5
	c-0.2-1.7,0.1-3.4-0.4-5c-1.1-3.2-4.8-4.3-8.1-5.1c-4.1-0.9-8.2-1.9-12.3-2.8c-4.4-1-9-2.2-12-5.5c-2.4-2.6-3.3-6.2-5.3-9.2
	c-1.7-2.6-4.2-4.7-7.1-5.9c-1.7-0.7-3.6-1.2-5-2.4c-1.5-1.4-2.1-3.5-2.8-5.5c-2.5-7.2-7.3-13.4-13-18.4c-3.2-2.8-6.7-5.4-9.1-9
	c-2.7-4.2-3.5-9.3-4.3-14.3c-1.7-10.9-3.8-22.2-10.5-31c-1.2-1.5-2.5-2.4-3.9-3.7c-0.4-0.4-0.8-0.8-1.4-1c-0.9-0.4-1.9-0.4-2.9-0.6
	c-2.1-0.5-3.8-2.1-5.3-3.7c-2.2-2.2-4.3-4.4-6.5-6.6c-1.3-1.3-2.6-2.7-3.4-4.3"/>
<path fill="none" stroke="#E1E1E1" stroke-miterlimit="10" d="M231.6-5.8c9.1,2.2,15.4,10.9,17.5,20s1,18.6,0,27.9
	c-0.2,1.5-0.3,3.2,0.6,4.5c0.8,1,2,1.5,3.2,1.9c5.5,2.1,13.6,3.6,14.8,9.4c0.5,2.5-1.8,4.9-1.6,7.5c0.5,5.4,7.8,5,11.4,9
	c1.8,2,0.8,5.3,2.9,7.1c2,1.7,4.6,2.8,6.8,4.3c5.3,3.6,8.5,9.3,12.2,14.5c0.7,1,1.6,2,2.7,2.2c0.8,0.1,1.6-0.1,2.3-0.4
	c3.9-1.4,7.9-2.7,11.3-5c3.4-2.3,6.3-5.7,7.2-9.7c0.6-3.1,0.1-6.3,0.3-9.4c0.2-3.2,1.6-6.6,4.6-7.7c1.2-0.4,2.5-0.4,3.5-1.1
	c1-0.7,1.6-1.8,2.5-2.7c3.1-3,8.5-1,11.2,2.4s3.9,7.8,6.7,11.1c4.8,5.8,13.5,7,20.8,5.1"/>
<path fill="none" stroke="#E1E1E1" stroke-miterlimit="10" d="M371.1,104c-3.1-0.4-6.1,1.5-8.7,3.4c-4,2.9-8.1,5.7-12,8.7
	c-2.5,1.9-4.9,3.9-6.6,6.4c-1.9,2.8-2.7,6.1-3.4,9.4c-0.3,1.3-0.5,2.7-0.5,4c0.1,2.1,0.8,4.1,1.6,6c0.3,0.8,0.6,1.6,0.9,2.4
	c0.7,1.9,1.5,3.7,2.5,5.4c0.5,0.8,1,1.6,1.5,2.3c1.4,2,2.8,4,4.2,6c0.7,0.9,1.3,1.9,2.1,2.7c2.3,2.4,5.4,3.8,8.4,5.4
	c2.9,1.6,5.9,3.6,7.2,6.7c0.7,1.6,0.9,3.5,2.4,4.5c2,1.4,4.7-0.1,7,0.3"/>
<path fill="none" stroke="#E1E1E1" stroke-miterlimit="10" d="M259.9-5.7c-0.8,1.4-0.6,3.2,0.2,4.7s1.9,2.6,3,3.9
	c3.2,4,5,9.1,7.7,13.5c3.1,5.1,7.5,9.3,10.3,14.5c1.8,3.4,3.2,7.5,6.9,8.7c3.4,1.1,6.8-0.9,10.2-2c4-1.2,8.4-1,12.6-1.5
	c9.7-1.2,18.5-6.3,26.9-11.2c3.2-1.9,6.1-6.9,9.7-5.7c7.2,2.2,6.3,13.7,9.4,20.5c0.3,0.7,0.7,1.5,0.8,2.3c0.2,1.4-0.2,2.7-0.4,4.1
	c-0.7,5.1,1.9,10.3,5.9,13.5s9.1,4.8,14.2,5.5"/>
<path fill="none" stroke="#E1E1E1" stroke-miterlimit="10" d="M369.7,14.4c0.7-0.7-0.3-1.8-1.1-2.4c-2.4-1.6-4-4.3-4.5-7.1
	c-0.2-1.3-0.2-2.7-0.6-4c-0.4-1.3-1.3-2.6-2.6-2.9c-1.2-0.3-2.3,0.3-3.5,0.4c-1.5,0.1-2.9-0.7-4.4-1.1c-1.1-0.3-2.2-0.4-3.3-0.5
	c-4.8-0.2-9.5,0.9-14.1,2.1c-2.1,0.5-4.1,1-6.1,1.6c-2.5,0.8-4.9,1.7-7.4,2.2c-6.1,1.2-12.5-0.6-18-3.5s-10.2-7.1-14.8-11.3"/>
<path fill="#7BBCEB" stroke="#4E9BD7" stroke-miterlimit="10" d="M175.5,193.5c-3.1-1.6-4.7-5-6.1-8.1c-0.7-1.5-1.3-3-2-4.4
	c-1-2.3-2-4.6-2.8-7c-2.2-6.6-2.5-13.9-6-19.9c-0.6-1-1.2-1.9-1.3-3c-0.3-2.3,1.9-4.6,1.2-6.8c-0.2-0.9-0.9-1.6-1.2-2.5
	c-0.5-1.3-0.2-2.8-0.4-4.2c-0.2-1.1-0.7-2.2-1.2-3.2c-1.2-2.7-1.9-5.6-2.1-8.6c0-0.8,0-1.5,0.2-2.2c0.3-0.7,0.9-1.3,1.6-1.8
	c7.4-6,18.7-6.5,26.6-1.3c1.4,0.9,2.7,2.1,3.5,3.6c0.4,0.9,0.6,1.9,1,2.8c1,2.8,2.9,5.1,5,7.2c3.6,3.7,8.5,5.9,11.7,9.9
	c1.8,2.2,2.7,5.1,4.8,7c1.1,1,2.4,2.2,2.1,3.7c-0.4,1.7-2.6,2-4,3.1c-1.5,1.2-1.9,3.3-1.9,5.2s0.3,3.8-0.2,5.7c-1,3.5-4.7,5.6-6.1,9
	c-1.8,4.3,0.4,9.2,3.2,12.9c2,2.7,4.5,6.1,3.1,9.2c-1.2,2.6-4.6,3.4-6,5.9c-0.2,0.4-0.4,0.9-0.8,1.2c-1.2,1-3-0.7-3.1-2.3
	c-0.2-1.6,0.4-3.3-0.4-4.6c-0.3-0.6-0.9-1.1-1.5-1.6c-2.2-1.7-4.9-2.8-7.7-3.2C181.5,194.6,178.2,194.9,175.5,193.5z"/>
<path fill="none" stroke="#4E9BD7" stroke-miterlimit="10" d="M197.3,206.7c2.5,0.5,6.1,1.8,6.3,4.3c0.1,1-0.3,1.9-0.5,2.9
	c-0.9,4.8,3.9,9.1,8.7,9.6s11.3-5.1,15.8-7c4.5-1.9,7.6-0.1,12.3,1.1c2.7,0.7,5.1,2.3,7.7,3.2c2.7,1,6.7-1.4,8.3,0.9
	c2.3,3.3-2.6,5.4,0.7,7.8c3.2,2.4,10.9,6.7,12.4,10.4c1.5,3.5,0.4,8.2,3.1,10.9c0.9,0.9,2,1.4,2.9,2.1c2.9,2.3,3.7,6.2,4.8,9.7
	c1.8,5.6,8.8,9.1,8.9,15c0,1.1-2,1.4-2.2,2.4c-0.3,2,3,2.5,4.9,3.1c8.1,2.4,12.7,6.1,20.8,8.4c1.9,0.5,8.8-4.6,10.8-4.8
	c3.8-0.4,7.6-0.9,9.6,2.3c2.5,3.8,5,7.7,9.5,7.7c4.5,0,8.8-1.9,13.3-2.7c6.1-1,12.6,0.3,17.8,3.6"/>
<path fill="none" stroke="#4E9BD7" stroke-miterlimit="10" d="M-8.3,17c5.3,1.5,10.5,3.6,15.4,6.3c3,1.6,6.6,3.5,9.6,1.9
	c1.1-0.6,2-1.5,3.1-2.1c2.5-1.3,5.5-0.5,8.2,0.4c3.9,1.3,7.8,2.6,11.7,3.9c3.6,1.2,7,5,10.3,6.9c3.4,1.8,7.4,2.7,11,1.6
	c2.3-0.7,4.2-2.2,6.2-3.5c5.8-4,12.5-7.3,19.5-7c8.5,0.4,16.4,6.6,18.7,14.7c0.3,0.9,0.4,1.8,0.9,2.6c0.5,0.9,1.2,1.5,2,2.2
	c7,6.2,14.7,12.9,15.8,22.1c0.2,1.5,0.2,3.1,1,4.4c0.5,0.9,1.4,1.6,2.2,2.2c10.8,8.8,20.6,18.8,29.2,29.9c1.5,1.9,3.5,4.5,2.3,6.6
	c-0.4,0.8-1.7,0.2-2.2-0.4c-0.5-0.7-0.9-1.6-1.6-2c-1.4-0.8-3.2,0.6-3.4,2.2c-0.2,1.6,0.7,3.1,1.5,4.4c1.1,1.8,2.6,4.4,3.7,6.2"/>
<path fill="none" stroke="#585858" stroke-miterlimit="10" stroke-dasharray="4,6" d="M-10.7-2.2c1.2,1.8,2.3,3.5,3.5,5.3
	c0.8,1.2,1.5,2.3,2.6,3.2c1.2,0.9,2.6,1.4,4,1.9c16.5,5.7,33.8,11.4,51.1,8.8c1.6-0.2,3.4-0.5,4.8,0.3c0.7,0.5,1.3,1.2,1.9,1.8
	c4.2,4.3,11.2,2.5,17.1,1.5c6.8-1.2,13.8-0.9,20.5,0.9c2.7,0.7,5.5,1.8,7.2,4c1.5,1.9,1.9,4.4,3,6.6c2.2,4.6,4,6.3,9.1,6.9
	c8,1,9.8,20.1,13.6,24.7c0.9,1.1,2.1-3,3.4-2.4c1,0.5-1.5,4-0.5,3.5c3.3-1.8,3.7,0.8,4.4,2.5c8,20.6,27.3,36.2,26.4,42
	c-0.6,3.8,13.2,5.2,22.3,9.3c2,0.9,4.8,1.5,5.4,4c0.6,2.5,2.2,4.6,3.2,6.9c3.6,8,13.3,11.8,17.7,19.4c1.4,2.3,2.4,5.1,1.8,7.8
	c-0.4,2-1.4,3.9-2.1,5.9c-2.9,7.7-1.5,16.7,2.9,23.7c4.4,7,11.6,12,19.4,14.4c1.5,0.5,3.2,0.9,4.3,2.1c1.4,1.4,1.7,3.4,2.3,5.2
	c1.8,5.4,7,9.5,12.6,10.1c1.6,0.2,3.3,0.1,4.8,0.7c2.1,0.9,3.3,3.1,4.8,4.9c2,2.4,5.9,8,7.6,5.4c0.4-0.7,0-1.6,0.8-1.7
	c0.8-0.1,1.5,0.3,2.1,0.8c4.4,3.5,7.4,8.7,8.1,14.3c0.4,3.4,0.1,6.8,0.5,10.2c1,7.2,5.6,13.5,11.4,18c5.8,4.4,12.6,7.3,19.4,9.9
	c2.1,0.8,4.6,1.6,6.6,0.6c2.9-1.4,4-6.1,7.2-6c1.9,0,3.3,1.8,4.8,3c3.7,2.8,8.8,2.2,13.4,2.7c10,1.2,18.9,8.5,29,8"/>
<g>
	<g>
		<polyline fill="none" stroke="#7D7D7D" stroke-miterlimit="10" points="85.2,341.6 85.2,348.7 275.4,348.7 275.4,341.7 		"/>
		<line fill="none" stroke="#7D7D7D" stroke-miterlimit="10" x1="180.5" y1="341.4" x2="180.5" y2="348.7"/>
		<line fill="none" stroke="#7D7D7D" stroke-miterlimit="10" x1="161.2" y1="349.2" x2="161.2" y2="343.7"/>
		<line fill="none" stroke="#7D7D7D" stroke-miterlimit="10" x1="142.4" y1="349.2" x2="142.4" y2="343.7"/>
		<line fill="none" stroke="#7D7D7D" stroke-miterlimit="10" x1="123.3" y1="349.2" x2="123.3" y2="343.5"/>
		<line fill="none" stroke="#7D7D7D" stroke-miterlimit="10" x1="104.6" y1="349.2" x2="104.6" y2="343.7"/>
	</g>
	<text transform="matrix(1 0 0 1 83.7837 339.1467)" fill="#7D7D7D" font-family="'Verdana'" font-size="8">0</text>
	<text transform="matrix(1 0 0 1 174.2948 339.1468)" fill="#7D7D7D" font-family="'Verdana'" font-size="8">0.5</text>
	<text transform="matrix(1 0 0 1 258.3417 339.1468)" fill="#7D7D7D" font-family="'Verdana'" font-size="8">1 mi</text>
</g>
</svg>
