<?xml version="1.0" encoding="utf-8"?>
<!-- Generator: Adobe Illustrator 17.1.0, SVG Export Plug-In . SVG Version: 6.00 Build 0)  -->
<!DOCTYPE svg PUBLIC "-//W3C//DTD SVG 1.1//EN" "http://www.w3.org/Graphics/SVG/1.1/DTD/svg11.dtd">
<svg version="1.1" id="Layer_1" xmlns="http://www.w3.org/2000/svg" xmlns:xlink="http://www.w3.org/1999/xlink" x="0px" y="0px"
	 viewBox="0 0 360 360" enable-background="new 0 0 360 360" xml:space="preserve">
<path fill="none" stroke="#E1E1E1" stroke-miterlimit="10" d="M-9.3-3.6C-9.5-3.4-10.1-3.5-9.9-3C-9.4-1-6.4-1.8-4.7-0.9
	c1.9,1,3.3,2.9,5.3,3.6C4.3,4,11,2.7,13.3-0.6C15-3,13.6-3.9,13.3-6.3c-0.7-4.5,1.3-1.6,3.2-4.3c0.8-1.2,0.6-4.6,1.2-6.1
	c1.3-3.7,3.2-7.1,2.7-11.3"/>
<path fill="none" stroke="#E1E1E1" stroke-miterlimit="10" d="M-8.3,18.4c2.9-3.7,5.9,0.9,6.7,3.6c0.8,3,5,4.7,3.5,7.8
	c-0.4,0.9-2.4-0.8-3.2,0c-1.5,1.4,4.9,1.9,4.7,4c-0.7,5.7-13.4,2.3-16,9.3"/>
<path fill="none" stroke="#E1E1E1" stroke-miterlimit="10" d="M49.3,66.7c2.2-1.8,1.6-4.6,2.6-7c1-2.5,2.7-3.5,4.7-5.1
	c3.9-3.1,7.8-7.9,12.8-6c5.7,2.2,6.6,7.3,3.2,12.1c-1.3,1.8-2.7,4.7-4.3,6.2c-2.1,2-4.7,2.4-6.6,4.8c-1.5,1.9-9.5,16.2-12.7,12.3
	c-1.8-2.1,1.9-6.7,1.3-8.9C49.3,71.9,45.9,69.6,49.3,66.7z"/>
<path fill="none" stroke="#E1E1E1" stroke-miterlimit="10" d="M-6.3,106.2c-0.4-4,4.4,0.4,8.4-2.1c3.5-2.2,4.6-1.7,8,0.2
	c1.5,0.8,2.5,1.3,4.3,1.8c2.2,0.7,2.4,0.9,4.4,2.2c2.5,1.6,5.3,2.5,8,3.4c3.8,1.3,10.9,9,7,12c-1.3,1-4.5,2.6-6.1,3.2
	c-3.1,1.1-4.3-0.4-6.9-1.7c-4.5-2.3-9.6-2.3-13.3-6.3c-1.5-1.6-2.2-3.8-3.8-5.5C2,111.9-6.1,108.7-6.3,106.2z"/>
<path fill="none" stroke="#E1E1E1" stroke-miterlimit="10" d="M78-10.3c-2.8-9.6,9.8-7.2,13.9-4.3c2.1,1.5,4.5,1.8,3.4,5.4
	c-1,3.1-7,0.8-8.5,3.1C83.2-0.7,79.7-4.5,78-10.3z"/>
<path fill="none" stroke="#E1E1E1" stroke-miterlimit="10" d="M81.9,3.8c-0.1,2.8,2.2,6,3.7,5.5c1.7-0.5,2.7-5.6,2.1-7.3
	c-1.7-4.3-4.9-1-5.8,1C81.8,3.2,81.9,3.6,81.9,3.8z"/>
<path fill="none" stroke="#E1E1E1" stroke-miterlimit="10" d="M74.7,11.4c-1.1,1.5-1.2,5.2,1.3,4.7C78.6,15.6,76.3,9.1,74.7,11.4z"
	/>
<path fill="none" stroke="#E1E1E1" stroke-miterlimit="10" d="M64.9,30.7c-1.3,1.7-0.4,7.1,3.1,3.7c1.3-1.3,2.4-3.9,1-5.2
	c-1.1-1.1-3.5-0.4-3.9,1.3L64.9,30.7z"/>
<path fill="none" stroke="#E1E1E1" stroke-miterlimit="10" d="M112-24.3c-2.6,5.2-2.8,11.4-2.2,17c0.3,2.9-0.1,5.5-0.5,8.3
	c-0.3,2-0.1,5.9-0.9,7.7c-1.9,4.2-6.8,7.3-9.4,11.3c-1.5,2.2-2.4,4.1-4.3,6.2c-1.9,2.1-3.3,3-4.3,5.6c-0.9,2.4-1.5,4.4-2.7,6.6
	c-1.3,2.3-2.1,3.6-1.9,6.8c0.1,2.7,1.3,4.6,1.1,7.1c-0.2,2.5-1.2,4.9-1.7,7.3c-1.3,6.3-4.8,9.4-10.3,12.3c-4.5,2.3-6.1,7.1-9.9,10.2
	c-4.1,3.3-7.7,5.9-12.1,8.7c-2.5,1.6-5.3,2.8-4.8,6c0.4,2.5,2.7,3.7,2,6.9c-0.3,1.5-1.6,1.8-1.6,3.7c0,2.1,1,2.1,1.9,3.4
	c1.2,1.7,3.3,3.2,4.4,4.9c1.4,2.3,0.3,5.2,1.1,7.7c0.8,2.6,2.8,3.6,2.3,7c-0.9,5.4-8.4,5.6-13,5.1c-6.2-0.7-9.8,2.9-16,4
	c-2.3,0.4-6.4,1.9-8.6,1.2c-2.2-0.7-4.8-3.5-7.1-4.5c-4.8-2.1-7.8-4.9-12-7.7c-4.3-2.8-7.5-0.3-12-1.7"/>
<path fill="none" stroke="#E1E1E1" stroke-miterlimit="10" d="M139.3-21c-1.1,1.5-0.2,2.6-0.4,4.1c-0.2,1.9-0.4,1.7-1.2,3.3
	c-1.1,2.1-2.7,4.2-3.7,6.3c-2.2,4.5-4,9.4-6,14c-2.2,5.2-3.5,9-7.4,13c-2.4,2.4-4.1,5.2-6.6,7.4c-2.2,1.9-4.5,3.9-5.3,6.9
	c-0.9,3.1-0.6,6.5-1.7,9.6c-0.9,2.6-2.8,4.4-2.9,7.1c-0.1,3.2,0.9,4.9-0.7,7.9c-1.6,3-2.8,2.3-5.7,4.2C93,66.1,88.9,69.4,85,73.4
	c-2.2,2.3-5.3,4.4-6.7,7.3c-1.4,2.9-1.7,5.6-5.1,7.6c-2.7,1.6-4.9,2.1-7,4.3c-1.5,1.6-4.1,3.6-5,5.4c-0.9,1.9-1.1,6.2-0.5,8.3
	c0.3,1,1.8,2.3,2,3c0.3,1.2-0.2,2.4,0,3.8c0.7,4.6,3.1,10.3,4.9,14.7c1.1,2.8,0.7,9.8,3.7,12.4c5.1,4.3-17,5-14.9,10.9
	c1.9,5.5,11.3,2.5,17,3.4c1.8,0.3,5.1,1.1,6.7,2c1.9,0.9,1.3,0.2,2.3,2.1c0.2,0.5,0.9,3.5,0.7,4c-2.2,5.1-10.7-0.7-14.1,0.6
	c-2.3,0.9-4.2,3.7-6.9,3.8c-2,0-4.7-1.7-5.8-3.3c-1-1.5-1-5.1-2.9-6.1c-2.5-1.3-4.8,0.5-7,1.4c-4.6,1.9-9.2,4.6-14,5.6
	c-3.6,0.8-12.3,0.1-13.3,5.3c-0.4,1.7,1.3,2.2,1.3,3.3c-0.1,1.7-0.9,1.6-1.7,3c-1.2,2.3-1.6,4.9-3.2,7.1c-2.5,3.5-6,6.1-8,9.9
	c-2,3.8-2,8-3.7,12c-0.7,1.6-1.4,3.8-2.6,5.1c-1.6,1.8-3.9,2.6-5.5,4.6c-3.5,4.2-11.2,9.4-11.9,15"/>
<path fill="none" stroke="#E1E1E1" stroke-miterlimit="10" d="M21.3,152.8c2.6-2.4,1.2-5.4-2.3-6.1c-2.6-0.5-7.5,0.8-9.4,2.6
	c-3.7,3.4-0.3,5,2.7,6.4C13.7,156.4,18.4,155.5,21.3,152.8z"/>
<path fill="none" stroke="#E1E1E1" stroke-miterlimit="10" d="M190.7-19.6c0.5,0.3,1.3,0.7,0.9,1.3c-2,3.6,0,3.7-0.9,6.4
	c-0.8,2.4-4.3,2.5-6.6,3.1c-5.3,1.3-9.7-3.2-15.7-1.8c-2.7,0.6-5.4,2-8,2.7c-3.7,1.1-4.7,2-6.7,4.9c-3.2,4.7-7.7,8-10.6,13.4
	c-1.3,2.5-2.1,5.3-3.4,7.7c-1.3,2.6-4.2,3.2-5.7,6c-1.3,2.3-1.7,4.8-2.8,7.1c-1.2,2.4-2.5,4.9-3.8,7.2c-3,5.4-8.9,6.1-10.8,12.1
	c-0.8,2.6-2.5,4-3.4,6.3c-1.1,2.6-1.2,4.3-3.1,6.9c-2.3,3.2-3.2,5.5-4.6,9.4c-1.2,3.4-5.4,5-8.6,6.4c-2,0.9-3,0.7-3.9,3
	c-0.7,1.8-1.4,2.4-2.3,4.7c-0.7,1.8,4.4,3.4,4.5,4.9c0.2,2.3-3.4,3.5-5.3,4.7c-3.9,2.5-10.4,3.3-13.7,6.7c-3,3.1,0.1,2.9,1.7,5.2
	c1.8,2.4-0.3,3.9-0.4,6.4c-0.2,2.9,2.1,4.7,3.2,7.1c1.2,2.5,1.4,4.8,3.3,6.7c1.5,1.5,4.5,2.3,5.8,4.2c0.8,1.2,0.3,2.7,1,3.7
	c0.6,0.9,2,1.1,2.6,2c2,3-1.8,3.9-1,6.7c0.5,2,3.4,2.1,4.6,4.1c1.4,2.2,2,5.2,2.7,7.6c0.7,2.3,2,6.2,1.7,8.7
	c-0.4,2.8-2.6,4.2-5.3,5.3c-2.4,1-5.2-0.3-7.3,0.6c-1.4,0.6-1.4,1.7-2.3,2.7c-1.3,1.4-1.3,1.2-3,2c-1.9,0.8-4,2-6,2.7
	c-5.3,1.7-11.1,0.6-16.7,0.3c-2.5-0.1-6.4,0.3-8.7-0.7c-2.2-1-2.8-3.4-4.8-4.8c-2.8-2-3.4-0.9-5.8,1c-1.4,1.2-4.7,1.7-5.5,3.2
	c-1.9,3.6,3.8,3.6,0.1,6.7c-1.6,1.3-4.2,2.1-6,3.6c-3.2,2.7-7,6.3-9.8,9.7c-3.5,4.2-5.3,9.9-8,14.7c-2.5,4.4-5.2,8.5-7.3,13
	c-1.9,4.1-4.9,9.8-2.4,14.1c2.5,4.5,6,7.7,1.4,12.5c-2,2.1-3.2,2.6-4,5.4c-0.7,2.5-1,5.4-1.7,8c-0.3,1.1-0.5,2.3-1,3.3
	c-0.5,1-2,2.1-2.4,2.9c-1,2.3,0.1,5.1-1.2,7.5c-0.9,1.6-2.8,2.8-4.1,4.2c-2.4,2.4-2.2,2.6-3.3,5.8c-1.3,4-7.8,5.4-7.7,9.3"/>
<path fill="none" stroke="#E1E1E1" stroke-miterlimit="10" d="M241-23c0,1-0.3,3.1,0,4c1.6,4.7,8.4,9.2,5,13c-4.2,4.7-13,2-16,7
	c-7.9,13-22.1,10.3-33,9c-4.1-0.5-7.8-4.6-11-2c-0.4,0.3-1.1,1.4-1,2c0.2,1.4,2,2,2,3s-0.5,1.8-1,2c-4.6,1.9-8.9-0.7-13,1
	c-2.9,1.2-6-1.8-10-1c-6,1.2-10,6-13,10s-4.7,7.3-8,11c-3.9,4.3-6,10-6,17c0,2-1.8,4.3-3,5c-2.7,1.7-5.9,3-7,5
	c-3.8,7.1-9.4,10.8-13,17c-2.2,3.9-1,10-3,14c-1,2-3,3-5,5c-3,3-10.5,2.1-9,10c0.8,4.1,4,7,4,12c0,1,3.3,0.9,4,3
	c0.7,2.1-2.4,3.6-1,5c1.4,1.4,3,0.9,5,1c8,0.5,11.1,12.6,6,17c-7.2,6.2-5.7,13-5,20c0.5,5.1-3.2,9.9-6,15c-1.1,2-1,4-2,6
	s-3.1,2.9-5,5c-3.3,3.8-5.9-0.2-9-2c-3.9-2.2-3.4,2.7-4,4c-5,10.2-21,8-29,0c-1-1-3,0-4,1c-2,2-3.2,4.7-6,7c-2.2,1.8-1.8,5.2-4,7
	c-6.6,5.6-16.5,9-17,18c-0.2,4-2.4,8.1-1,12c1.6,4.2,5.5,7.9,6,13c0.4,4,2.9,9.4-1,11c-0.9,0.4-2.2-1.6-3-1
	c-5.1,3.7,3.8,13.3,0.6,19.3c-0.8,1.5,0,4.2,0.4,5.7c0.4,2.2,0.3,4.8-1.3,6.2c-4.1,3.7-9.5,2.2-14,0.8c-2.7-0.9-3.5-1.9-6.3-0.3
	c-2.5,1.4-4.1,4.3-6.3,6.1c-1.8,1.4-3.3,3.3-5,4.7c-2,1.7-5,1.5-6.4,3.9"/>
<path fill="none" stroke="#E1E1E1" stroke-miterlimit="10" d="M-9.3,354.7c4.3-3,8.2-4.8,13.1-6.3c2.7-0.8,3.5-0.2,4.6,2.3
	c0.4,1,1.9,5.3,1.7,6.3c-0.7,3.5-9.2,6.4-12,8.4c-2,1.5-4.1,3.2-6,4.9c-3.1,2.8-4.4,6.4-6.3,10.4"/>
<path fill="none" stroke="#E1E1E1" stroke-miterlimit="10" d="M-3.3,380c-1.3,0,0.4-6.2,2.1-6.6c3-0.7,1.3,5.2,5.3,2.3
	c2.3-1.7,2.6-3.9,5.3-5.4c2.4-1.3,4.8-2.8,6.7-4.7c3.2-3.3,5.8-9.1,4.1-13.7c-1.3-3.4-1.6-4.9-1.4-8.7c0.1-2.6-0.2-6.1-1.4-8.3
	c-0.8-1.4-2.9-2.3-2.2-3.6c2.7-5,8.8-3.7,13.2-7.5c1.9-1.6,4.8-3.1,6.2-5.2c1.6-2.3,0.9-5.1,1.3-7.8c1.1-7.2,5.6-8.3,10.2-13.4
	c2.6-2.9,0.3-3.7,1.2-6.9c0.8-3,3.3-3.8,3.3-7.4c0-4.8-2-31.3,3.6-27.3c2.5,1.8,0,7.1,1,10c0.9,2.6,4.6,5.1,6.1,7.7
	c0.6,1.1,1.5,3,2.5,3.7c1.5,1.1,3,0.6,4.5,1.5c1.2,0.7,2.1,2.3,3.5,3.2c1.4,0.9,4.4,1.4,3,2.9c-4.3,4.6-5.1,9.8,1.7,7.1
	c2.1-0.8,3-3.6,4.7-5.1c1.9-1.7,4.4-3.6,7-4.2c3.9-0.9,12.6-1.1,15,2.8c1.1,1.7,0.2,6.5,0.3,8.8c0.1,2.8-0.7,5.1-1,7.7
	c-0.8,7.8,5.8,5.3,9.3,9.3c2.3,2.5-0.7,3.6-1.6,6.1c-0.8,2.3,1.1,6.3-0.1,8.2c-1.3,2-6.2,1.6-8.2,2.1c-3.3,0.7-6.3,2.4-9.7,3
	c-3.1,0.6-6.3,0.4-9.4,1.6c-3.7,1.5-4.2,3.5-8.3,2.4c-8.8-2.3-8.9,5.1-15.1,9.3c-1.1,0.8-3,1.3-3.8,2.4c-1.1,1.5-0.3,2.6-0.8,4.2
	c-0.8,2.6-3.4,5.5-5.2,7.8c-3.9,4.8-8.2,7.6-12.7,11.7c-3.6,3.2-5.5,8.1-8.7,11.7c-1.9,2.1-4.6,5.8-7.3,6.5"/>
<path fill="none" stroke="#E1E1E1" stroke-miterlimit="10" d="M-8,321c10,1,16.1-5.4,26-8c3.1-0.8,5.3-3.7,7-6c1.3-1.8,0.9-4,2-6
	c4.6-8.2,7.1-15,8-24c1.2-12,12-22.7,11-35c-0.6-7.6-0.6-14.7,4-23c0.5-0.9,0-2,0-3s0.9-1.2,2-2c1.8-1.3,3.1-2.5,5-2
	c2.2,0.5,5.2-0.3,7,1c2.3,1.7,3,4,5,6c1,1,3.9,0.9,5,0c4.6-3.6,11.2-1.9,14-7c3.2-5.9,9-9,15-13c9-6,12.5-22.6,17.4-26
	c5-3.5,10.3,9.7,19-0.3c2.7-3.1-5.5-4.5-8.4-5.7c-2.1-0.9-7.7-1.3-5.9-3.3c1.1-1.3,5.9,0.7,7.9,0.3c3.1-0.5,7,0,10-1s1.3-4.8,3-7
	c3.6-4.6,8.9,0.5,12-2c3.9-3.2-4-7.2-8-8c-6-1.2-21.8,2.7-19-7c0.6-2.1,3.4-3.2,2-6c-3.2-6.5-7.5-10.9-8-18c-0.1-1-2-1-2-2
	s-0.2-1.6,0-2c1.7-3.2,2-4,2-6c0-1,1.2-0.9,2-2c2.6-3.6,0.1-9,1-13c1.1-5,6.8-7.6,11-6c6.8,2.6,13.5-5.2,19-2c4.4,2.6,2.1,9,0,15
	c-0.3,0.9-0.1,2.1,1,3c3.8,3.3,8.9,0.8,13-2c4.8-3.3,11-1.5,16-1c5.1,0.5-1,6,0,9s-0.2,6.1,1,8c2.6,4.3,5.2,6.8,9,10
	c1.7,1.4,4,1.9,6,3c5.1,2.8-3.8,4.4-2,7c0.6,0.8,2.1-0.4,3,0c0.5,0.2,1.4,1.1,1,2c-0.5,1.3-2.5,1.7-3,3c-1.1,2.8,4.5,0.8,5,3
	c0.5,1.9,0,4,2,5c6,3,10,10.5,18,11c1,0.1,2-1,3-1c2,0,3.2,1.7,5,3c1.1,0.8,4.1,3,4,4c-0.5,5.1-9.1,3.6-13,5c-4.2,1.6-2.4,8.4-5,12
	c-0.8,1.1-1.7,3.2-3,5c-1.7,2.3-4.1,8.3-8,5c-4.1-3.4-7.1-7.8-12-9c-5.9-1.4-4.6-4.2-7-8c-2.6-4.3-7.7-7-13-8c-1-0.2-3,2-4,2
	c-2,0-3-2.2-5-2c-5.1,0.5-6,7.7-5,13c0.2,1-0.8,3-1,4c-0.5,2.2-2.9,4-4,6c-2.8,5.1-9.2,0.9-11,4c-2.2,3.9-6,7.5-7,11c-0.3,1,1,3,2,3
	c5,0,11.7-3.1,12,0c0.3,3.2-12.6,8.1-20,14c-1.1,0.9-3.7,2.3-6,4c-1.8,1.3-6,0.9-8,2c-8.2,4.6-16.2,7.4-25,11c-2.1,0.9-4,2-6,4
	s-0.2,3,1.7,6c1.7,2.8-4.1,3.4-5.9,1.2c-2.1-2.6-4.1-2.1-7-0.2c-1.4,0.9-1.8,2.3-3.2,3c-1.2,0.6-2.8,0.1-4.1,0.8
	c-2.9,1.7-2,6.2-2.5,8.9c-0.3,1.5-1.5,2.4,0.5,3c1.7,0.5,2.3-0.9,3.1-2c1.8-2.4,3.9-7.1,6.6-4.8c2.6,2.2,1,4.4,4,6.3
	c3.2,2,0.8,1.8,1.2,5.4c0.2,1.6,3.5,1.1,5,2.1c1.2,0.8,1.9,2.2,3.3,2.7c3,1.1,6.9,1,10.1,1.5c3.6,0.5,6.9,1.2,10.7,1.2
	c1.6,0,3.1-0.1,4.5,0.5c1.3,0.6,2.3,0.8,3.5,1.8c1.8,1.5-1.8,3.2-2.2,5.2c-0.4,2.1,0.8,3.8,0.4,5.9c-0.4,1.8-0.8,4.1-2.2,5.4
	c-1.4,1.3-4.1,1.5-5.7,2.3c-4.7,2.3-3.1,5.9,0.8,7.6c4,1.8,8.4,1.5,12.4,2.6c3.5,0.9,4.4,3.3,3.7,6.5c-0.3,1.3-0.9,2.9-1.1,4.4
	c-0.5,2.8,0.3,3-1.6,5.3c-2.3,2.8-3,6.5-6.2,8.6c-1.7,1.1-5.8,2.9-6,6.5c-0.1,2.2-4.6,2.8-6.3,3.8c-0.8,0.4-1.2,1.2-2.2,1.2
	c-0.6,0-1.6-1.4-2.5-1.2c-1.7,0.3-3,3.2-4.5,4c-1.8,1-4.9,1.7-6.9,2.4c-2.1,0.7-4.4,1.5-6.6,2c-1.7,0.4-4.3,1.6-6,1.7
	c-4,0.2-8.4-4.9-8.8,2.3c-0.1,3.2,2.9,8.1-0.5,9.2c-2,0.6-2.5-3.4-5-3.5c-1.9-0.1-2.9,1.7-4.8,2.3c-2.1,0.6-2.4,0.6-3.9,2.3
	c-1.2,1.3-2,3.3-3.4,4.4c-3,2.5-4.2,3-6.3,6.2c-1.7,2.6-4.5,5.1-5.2,8.1"/>
<path fill="none" stroke="#E1E1E1" stroke-miterlimit="10" d="M315.3-19.7c-1.2-0.2-2.1-0.2-2.2,0.8c-4.1,24-22.5,42.5-39,60
	c-4.9,5.1-10.8,8.4-17,12c-3.9,2.2-8.8-0.2-12,3c-1.6,1.6-2,4-4,5c-9.1,4.8-19,1-28,1c-4,0-6.9,2-13,0c-3.9-1.3-7.4,3.4-11,6
	c-1.1,0.8-0.1,3.3,2,4c4.8,1.7,10,2,15,6c1.7,1.4,6.7,1.2,5,5c-1.5,3.3-8.5,1.5-7,9c0.4,2-2.2,4-2,6c0.5,4.1,5,7,5,10
	c0,12,7.1,22.8,17,29c3,1.9,2.3,6.1,3,9c0.5,2.2,4.3,4.7,7,3c1.2-0.7,2-4,2-6c0-1,1-1.8,2-2c4.4-1,6.5,2.9,7,6c0.2,1-1,2-1,3
	s0.6,2.1,1,3c0.5,1.3,2,1.9,3,2c7.1,0.5,8-11.1,8.5-11.8c3.1-3.4,9.9,0.5,12.5,4.8c2.4,3.8,6.2,6.9,8,10c3.4,5.8,11.1,14.7,4,18
	c-8.2,3.8-20.7-4.6-28,2c-6,5.4-4.7,16.6-13,20c-2.9,1.2-6,1.6-10,2c-5.1,0.5-5.4,8.4-8,12c-0.8,1.1-5.2,3.4-7,2
	c-6.1-4.8-11.9-6.5-19-6c-1,0.1-2-1-3-1c-10,0-16.8,9.3-25,15c-6,4.1-14.9,0.3-22,3c-5.9,2.2-11.7,5.6-16.5,9
	c-1.6,1.1-4.3,0.9-5.9,2.1c-1.5,1.1-3.1,3.3-4,4.9c-3.2,5.3,6.7,3.5,4.6,9c-1.8,4.6-8.4,3.3-10.3,7.8c-1.9,4.5,3.8,6.6,6.2,9.2
	c4.3,4.7,19.6,6.1,16.8,15c-0.6,1.9-2,3.6-2.6,5.6c-0.6,2.2-0.5,4.3-2.5,5.9c-1.9,1.6-4,0.9-6.2,1.5c-1.6,0.4-3.7,1.7-5,2.8
	c-5.1,4,1,4.8,4.3,5.7c4.2,1.2,6.9,3.6,11.5,4.2c3.8,0.5,9.1,0.9,6,5.8c-2.5,3.9-6.3,6.3-9.2,9.7c-1.2,1.5-2.5,3.3-3.5,5
	c-1.2,2.1-3.1,4.2-4,6.5c-1.7,4.3,0.2,9.2-2.8,12.8c-1.3,1.7-2.4,3.7-3.8,5.2c-2.3,2.5-5.9,3.5-9,5.1c-2.1,1.1-4.2,2.9-6.4,3.1
	c-3.1,0.2-3.9-0.3-6.6,1.7c-1.7,1.3-3,3-4.7,4.1c-2.2,1.6-5.3,1.7-7.5,3.4c-1.9,1.4-2.6,3.7-4,5.6c-1.8,2.3-4.1,4.5-6.4,6.4
	c-2.8,2.3-3.9,2.3-4.1,5.8c-0.1,1.8-0.5,4.6,0.7,6c2.2,2.5,9.3,1.1,12.3,1c5.1-0.2,11.3-3.5,15.5-0.2c3,2.3-9,5.7-10.7,8.5
	c-1.5,2.5,1.8,2.1,0.9,4.4c-0.5,1.4-3.6,1.5-4.4,3.6c-0.4,0.9-0.2,2-0.5,2.9c-0.5,1.4-1.3,1.9-1.3,3.5c0,2.4,1.5,4.6,3.7,5.6
	c2.3,0.9,4.3,0.6,6.5,2.1c2.8,1.9,3.7,4.7,4.8,7.8c0.9,2.5,0.7,3.6,3,4.8c1.5,0.8,2.6,1.1,4.1,2.3c1.6,1.3,5,6.8,1.6,7.9"/>
<path fill="none" stroke="#E1E1E1" stroke-miterlimit="10" d="M136.8,254c-3,2.4-7.2,6.1-5.3,10.1c1.7,3.5,6.9,5.9,10.3,7.1
	c10.6,3.9,11.3-8.4,17.6-13.7c2.2-1.8,4.7-2.3,5.6-5.2c0.4-1.3,0.2-2.9,0.5-4.3c0.4-1.5,1.5-2.9,1.8-4.5c0.4-2.9-1.1-6.4-4.5-5.6
	c-4.2,1.1,0.6,5.5-1.3,7.3c-3,2.8-5.4-5-8.2-7.2c-3.5-2.7-6.9-2.9-10.8-1.3c-3.4,1.4-6.4,4.2-4.8,8.3c0.9,2.2,2.4,2,1.1,4.7
	C138.1,251.3,138,253.1,136.8,254z"/>
<path fill="none" stroke="#E1E1E1" stroke-miterlimit="10" d="M182,195.3c0-2.2-0.9-3.5-1.2-5.5c-0.4-2.2,0.3-3.1-1.3-4.9
	c-2.1-2.4-7.1-3.6-9.6-1.2c-3.5,3.2-1.6,8.5,2.2,10.1C173.8,194.5,182,198.2,182,195.3z"/>
<path fill="none" stroke="#E1E1E1" stroke-miterlimit="10" d="M188.5,201.1c1.8,1.8,2.1,2.8,5.1,2.9c3.5,0.2,6.1-2.3,3.6-5.2
	c-1.5-1.7-4.6-3.2-6.7-3.8c-1.8-0.6-5.2,2.6-3.1,5.1C187.7,200.4,188.2,200.9,188.5,201.1z"/>
<path fill="none" stroke="#E1E1E1" stroke-miterlimit="10" d="M147.5,347.3c-3.9,0-9.1,3-4.3,6.4c1.7,1.2,3,2.2,4.4,0.3
	c1-1.3,1.6-4.3,1-5.7C148.4,347.7,148.1,347.3,147.5,347.3z"/>
<path fill="none" stroke="#E1E1E1" stroke-miterlimit="10" d="M140.3,338.8c2-3.7,7.5-5,10.7-7.3c3.6-2.5,6.4-4.9,8.6-8.6
	c1.1-1.9,0.6-3.7,1.1-5.8c0.5-2.1,2.4-3.3,3.2-5.1c1.3-2.7,0.4-4.3-0.2-7.2c-0.4-2.4,0.6-3,1.6-5c1.7-3.6-2.7-8.2,1.9-11
	c2-1.2,4.3-0.5,6.5-1.2c1.8-0.6,3.4-1.8,5.3-2.3c3.3-0.8,3,1.4,5.6,2.4c2,0.8,4.7-1.2,6.1,1.1c1.3,2.1-0.7,4.6-0.5,6.5
	c0.2,2.3,3,2.8,3.5,4.3c1.4,4.3-8.8,1.1-10.5,0.5c-1.6-0.5-3.9-3.1-5.4-2c-1.9,1.4,0.9,3.8,0.9,5.4c0.1,1.8-1.1,3.7-1.3,5.8
	c-0.2,2.9-0.7,3-2.5,5c-1.8,2-3.3,4-5.2,5.8c-1.4,1.3-2.6,2.5-2.8,4.4c-0.3,3.7,2.4,8.2-1.3,11.5c-1.6,1.4-3.8,1.4-5.3,3.2
	c-1.3,1.7-1.7,3.7-2.4,5.7c-1.4,4.5-2.3,7.9-4.8,12.1c-1.8,3.1-3.5,9.6-8.4,8.1c-2.3-0.7-7.1-3.9-8-6.1c-0.5-1.1,0.1-3.4-0.2-4.5
	c-0.3-1.9-1.3-3.2-2.1-4.5c-1.1-1.9-2.4-5.8-1.2-8.2C134.9,339,138.9,341.4,140.3,338.8z"/>
<path fill="none" stroke="#E1E1E1" stroke-miterlimit="10" d="M333.5-22.5c-2.6-0.2-3.8,0.9-4,3.5c-0.2,2.7,0.4,3.1-1.4,5.3
	c-2.8,3.4-5.6,7-6.9,11.1c-1.4,4.4-3.6,7.4-7.4,10.2c-1.4,1-3.2,2.4-3.8,4.1c-0.7,2.1,1.2,4.3,0.8,6.3c-0.4,2.1-3.9,4-5.5,5.3
	c-1.9,1.6-3.9,2.8-5.1,5.1c-1,1.9-1.1,4.1-2,6.2c-0.9,2.2-1.9,4.2-2.4,6.5c-0.7,3.7,0.3,9.6-2,12.5c-3.3,4.2-8.4,5.2-13.4,5.9
	c-5.8,0.9-7,6.9-11.2,10.3c-3.9,3.1-7.6,4.9-5.3,10.5c0.9,2.2,1.2,4.3,2.9,6c1.4,1.4,3,2.9,4.4,4.3c1.7,1.7,2.7,2,3.1,4.4
	c0.3,1.6,0.4,5-0.8,5.9c-1.4,1.1-4.3,0.2-5.9,1.4c-1.4,1-1.9,3.1-2.4,4.7c-0.6,1.9-1.5,4.5,0.1,5.7c2.1,1.7,3.3-0.2,4.3-1.7
	c2.9-4.2,7.1-5.4,9.5-0.1c0.8,1.8,1.1,3.8,1.2,5.8c0.1,2.2-1.1,4.7-0.5,6.8c0.6,1.8,2.4,2.5,2.7,4.8c0.3,1.9-0.3,4.3,0.5,6
	c0.9,1.9,2.4,2.1,2.8,4.5c0.3,1.9-0.9,4.8,0.3,6.2c3,3.5,9.6,1.6,10,7.3c0.2,3.2-0.6,3.4,1.1,5.2c1.3,1.4,1.4,3,1.2,5.1
	c-0.5,4.5-3.2,8,2.5,9.2c1.9,0.4,3.7,0.5,5.7,0.8c2.8,0.3,2.7,1.4,4.7,2.8c1.3,0.9,3.7,2.2,5.2,2.8c2.2,0.9,4.3-0.3,6.3,1
	c1.3,0.9,2.8,3.6,2.3,5.2c-0.7,2.3-4.5,1.9-6.5,1.7c-2.2-0.2-4.4-0.4-6.7-0.4c-2.3,0-3.6,0.7-5.6,1.3c-2.4,0.7-4.8,1.4-7,2.9
	c-2.6,1.9-2.1,3.9-2.7,6.7c-0.6,2.6-1.6,3.3-4,3.1c-2.2-0.2-4,0-6.3,0c-1.7,0-1.5-0.5-2.6-1.1c-2.1-1-0.9-1.2-3.1-0.1
	c-2.4,1.1-4,0.8-6.7,1.2c-4.6,0.6-6.8,5.2-11.2,6.2c-2.7,0.6-4.3,1.3-6.8,2.7c-2.4,1.3-4.6,1.1-7.3,0.8c-2.7-0.3-3.8-0.7-5.3,1.9
	c-1.4,2.3-1.8,5-2.4,7.5c-0.6,2.4-0.8,4-3,5.2c-2.1,1.3-4.1,2.8-6.3,4.1c-1.7,1-4.1,1.2-5,3c-1,2,0.5,4.4,0,6.5
	c-0.8,3.8-5.6,6.9-8.8,8.4c-2.1,1-3.8,2-5-0.4c-0.9-1.7-0.6-4.3-0.9-6.1c-0.6-2.9-0.6-6-1.9-8.8c-1.1-2.3-2.7-4.7-4.3-6.7
	c-1.5-2-3.8-3.9-6.3-2.2c-2.7,1.8-0.7,6.1-3,7.5c-1.6,0.9-4,1.4-4,3.3c0,2.1,2.2,2.6,3.8,3.6c2.6,1.6,2.1,2.5,2.7,5.2
	c0.4,1.9,1.7,3.3,2.2,5.3c0.5,2.3-0.3,3.7-0.4,5.9c-0.2,3.1,0.4,2.5-2,4.3c-0.8,0.6-1.3,1.6-2,2.2c-1,0.9-2.6,1.5-3.5,2.5
	c-1.4,1.7-1.9,3.6-3.6,5.2c-1.6,1.4-2.7,2.7-4.4,4.1c-3.1,2.5-7.4,3.1-11.5,3.5c-3.8,0.4-8.1,1.4-11.5,3c-4.2,2-5.6,6-10.3,7
	c-1.2,0.3-5.6,0.6-5.8,2c-0.1,1,3.1,3.2,3.8,4c3.5,3.8,7.5,5.8,6.5,11.8c-0.4,2.3-1.8,4.2-2.3,6.6c-0.5,2.6-1.4,3.9-2.7,6.2
	c-1.1,2-1.7,4.3-3.1,6.2c-1.5,2-3.7,2.7-5.7,3.9c-4.7,2.9-10.1,4.8-12,10.6c-0.9,2.8-2.9,6-1.8,8.8c1.1,2.7,2.2,5.2,3.1,7.9
	c1.2,3.2,1.7,6.1,2.2,9.6c0.3,2.2,1.4,9.4,1.4,9.4c-0.1,1,0.2,1.3,0.9,3.8c0.7,2.5-0.9,2.9,1.9,3.9c3.5,1.2,8.6-2.2,11-4.8
	c1.6-1.7,0.8-4,2.4-5.9c1.6-2,3.7-3.6,5.4-5.5c3.1-3.6,7.2-7.3,9.7-11.3c5-7.7,11.7-17.4,21.7-18.5c5-0.6,9.3-1.1,14.2-0.2
	c4.6,0.8,7.4,2.9,12.6,2.5c4.7-0.4,8.3-6.1,6.4-10.5c-0.8-1.9-4.8-3.4-4.7-5.2c0.1-2.1,4.4-1.5,6-1.8c4.1-0.8,7.7-3.8,12.2-2.3
	c2.8,0.9,3.7,1.7,6.8,0.7c2.5-0.8,4.5-1.8,6.7-3.1c2.2-1.4,2.9-2.6,3.9-4.8c1-2,2.7-3,3.3-4.8c0.7-2,0-5.2,0.3-7.3
	c0.5-3.4,1.5-2.4,4.3-3.4c4.4-1.5,6.7-5,9.8-8c0.8-0.8,1.6-1.7,2.1-2.8c0.7-1.5,0-2.9,0.3-4.3c0.7-3,3.5-2,6-2.2
	c0,0,0.7,0.7,0.8,0.7c2.6,0.4,2.7-4.6,5.5-5.5c2.8-0.9,4.2,2.2,6.3,3.5c1.1,0.7,1.7,0.8,2.4,2.1c0.6,1,0.3,3,1.5,3.5
	c2.2,1,4-3.1,6.3-3.3c1.8-0.2,3-1.4,5-1c1.8,0.4,3.3,2.9,5.2,3c3,0.2,1.2-1.8,1-4c-0.2-2.4,0.9-3.3,2.3-4.9c1.4-1.7,1.5-3.8,3.1-5.1
	c1.5-1.3,3.3-1.3,4.3-3.4c2.1-4.7-1.3-8-1.5-12.5c-0.1-1.7,1.4-3.8,2.4-5.6c1.1-2,2.2-2.6,4.7-2.1c2.2,0.5,3.9,2.2,4.5,4.3
	c0.7,2.4,1.2,3.2,2.5,5.3c2.7,4.2,5.4,5.5,10,2.2c1.6-1.2,4.5-3.2,4.3-5.4c-0.3-2.4-2.1-3.1-1.6-5.8c0.5-2.6,0.7-3.4-0.2-6
	c-0.7-2.2-2.2-4.1-2.8-6.2c-0.5-1.8-0.3-5,0.3-6.8c0.8-2.2,2.2-2.2,4.7-2c1.7,0.2,4.1,0.6,5.6,1.2c1.5,0.6,3.4,3.1,4.6,0.3
	c1.5-3.4-2.8-8.1-4.3-10.9c-2-3.7-3.8-7-6.2-10.5c-0.6-0.8-1.2-1.2-1.3-2.3c-0.1-1.6,1.2-1.7,0-3.2c-0.5-0.7-2.1-0.9-2.8-1.5
	c-1.1-0.9-1.9-1.9-3.1-2.7c-1.8-1.4-4.8-1.2-5.2-3.9c-0.4-2.3,1.3-2.7,2.8-4.2c1.6-1.6,2.3-3.6,3.8-5.3c1.6-1.7,3.6-2.7,5.3-4.3
	c1.4-1.3,3-4.1,5-2.9c1.3,0.8,2.5,4.5,2.9,5.8c0.9,2.7,1.3,4.7,3.1,7c1.4,1.8,2.5,3.8,3.9,5.6c3.2,4,6.4,8.3,9,12.8
	c1.2,2.1,1.4,4.3,3.6,5.9c0.8,0.6,2.3,3.3,2.7,4.2c1,2.8,2.6,4.3,4.2,5.2c3.6,2.1,5.8,0.8,7.9,2.2c1.7,1.1,2.7,4.2,2.6,6.3
	c-0.1,1.3-1.9,2.4-2.7,3.5c-1,1.4-2.1,2.8-2.7,4.4c-0.6,1.6-0.5,3.5,0.5,4.9c0.7,0.9,1.7,1.6,1.9,2.7c0.2,1-0.4,1.9-0.4,2.9
	c0,1.2,0.8,2.3,1.3,3.4c0.5,1.1,0.4,2.8-0.8,3.2c-0.4,0.1-0.8,0.1-1.1,0.2c-2.8,0.3-4.5,3.2-5.7,5.7c-2.1,4.2-4.2,8.5-6.2,12.7
	c-0.5,1-0.9,1.9-1,3c-0.1,1.1,0.2,2.2,1.1,2.8c0.4,0.3,0.9,0.4,1.3,0.8c0.3,0.4,0.3,1,0.6,1.5c0.4,0.7,1.4,0.8,1.9,1.5
	c0.4,0.5,0.4,1.3,0.3,1.9c-0.2,2-0.4,4-1.1,5.8c-2,4.7-7.5,7.4-8.6,12.4c-0.5,2.1,0,4.3,0,6.5c0,2.2-0.1,5.7-2.3,5.8
	c-2.5,0.1-3.4-3.7-5.7-4.8c-1.6-0.8-3.7,0.6-5,1.8c-1.5,1.6-1.1,4.1-1.4,6.3c-0.4,3.5-2.9,6.6-6.1,7.8c-0.6,0.2-1.3,0.4-1.8,0.1
	c-0.5-0.2-0.9-0.7-1.3-1c-1.4-1.2-3.6-1-5.2,0s-2.7,2.5-3.8,4c-0.8,1.1-1.6,2.2-2.4,3.3c-1.2,1.6-2.4,3.4-2.6,5.4
	c-0.2,3,1.9,5.9,0.9,8.7c-0.7,2.2-3,3.5-4.8,5c-2.4,2.1-4,4.9-5.9,7.5c-4.3,5.8-16.4,10.7-13.2,17.2c0.6,1.2,2.9-0.6,4.1,0.1
	c1.6,0.9,1.3,3.5,1.9,5.2c0.1,0.2,0.2,0.4,0.4,0.5c0.4,0.2,0.8-0.2,1.1-0.5c2.5-3.2,5-6.6,6.1-10.5c0.4-1.3,0.6-2.6,1.2-3.7
	c0.6-1.2,1.6-2.1,2.6-3c1.9-1.8,3.7-3.5,5.6-5.3c1.5-1.4,4.6-4,5.4-2.1c2.4,5.1-3.8,10.6-6.5,15.5c-3.1,5.6-6.9,10.8-10.7,16
	c-1.2,1.7-2.4,3.3-3.7,5"/>
<path fill="none" stroke="#E1E1E1" stroke-miterlimit="10" d="M185.5,380.7c0.2-1.8,2.1-3.1,2.8-4.7c0.7-1.4,0.3-2.7,0.5-4.2
	c0.3-1.9,1-3.8,1.7-5.5c0.9-2.1,1.8-2.6,3.4-4c2.6-2.4,3.4-5.8,6.5-8c2.9-2.1,6.1-5.6,10-4.2c1.1,0.4,1.5,0.8,2.7,0.5
	c0.9-0.2,1.4-0.9,2.3-0.8c1.2,0.1,2.5,1.6,3.7,2c1.9,0.7,6.2,2.1,5.3,4.5c-0.6,1.5-1.7,2.4,0,4c2.1,1.9,3.1-0.8,4.5-2
	c1.3-1.2,3.1-2.3,4.8-2.9c2.1-0.8,2.6-0.8,3,1.3c0.3,1.9,1.3,4.2,2.5,5.7c0.6,0.8,1.5,1.4,2.1,2.3c0.6,0.9,1.1,2,1.7,2.9
	c0.7,1.1,1.4,2,1.8,3.2c0.7,2,0.1,1.9-0.5,3.7c-0.4,1.1-0.3,2.8-0.2,4c0.2,1,1.4,2.8,1,3.7"/>
<path fill="none" stroke="#E1E1E1" stroke-miterlimit="10" d="M235.2,344.5c-1.2,0.9-2.2,1.7-2,3.2c0.2,1.6,1.6,2.4,3,3
	c3.7,1.4,7.5,1.6,11.3,0.4c6.9-2.2,16.3-9.7,16.2-17.7c0-1.7-0.5-2.9,0.5-4.4c0.9-1.3,1.8-1.8,1.5-3.6c-0.3-1.5-2-2.9-1.5-4.7
	c0.4-1.4,2.5-2.1,3.6-2.8c2.8-1.8,5.7-4.3,4.1-8.3c-2-5.2-6.8,0.9-8.8,2.1c-2.9,1.7-6,2.9-8.9,4.6c-3.1,1.8-4.8,4.6-7.3,7.1
	c-2.6,2.6-5.1,4.9-6,8.6c-0.7,2.8-1.3,6.1-2.6,8.7C237.4,342.5,236.7,343.3,235.2,344.5z"/>
<path fill="none" stroke="#E1E1E1" stroke-miterlimit="10" d="M280.2,323.9c0.7,0.8,3.2,1.1,3.7,2c0.7,1.1,0,3,0.5,4.3
	c0.7,1.7,5,5.2,3,7.4c-1,1.1-3.6,0.3-4.9,0.2c-1.9-0.2-2.5,0.4-3.1-1.5c-0.4-1.4-1.4-2.9-1.4-4.3c0-1.6,0.6-2.9,0-4.5
	c-0.7-1.9-3-3.9-1.2-6C278.9,318.9,279,322.5,280.2,323.9z"/>
<path fill="none" stroke="#E1E1E1" stroke-miterlimit="10" d="M287,321.4c1.3,0.8,1.7,2.2,3.3,1.3c1.7-1,1.5-2.8,1.5-4.5
	c0-0.6-0.2-1.8,0.1-2.3c0.8-1.1,0.7,0,1.6,0c1.4-0.1,2.1-1.5,2.5-3.1c0.5-2-0.1-2.4-1.7-3.3c-1.7-1-1.5-1.7-2.3-3.4
	c-1.7-3.3-5.3-0.7-7.2,1c-1.8,1.6-1.5,2.3-0.5,4.3c1,2.1,0,2.2-0.9,4C281.8,319,283.5,319.3,287,321.4z"/>
<path fill="none" stroke="#E1E1E1" stroke-miterlimit="10" d="M247.3,239.9c-3,1.4-6.3,4.9-9,6.7c-3.2,2.1-6.1,4.6-9.2,7
	c-2.6,2-5.8,2.4-8.7,3.8c-2.9,1.4-5.9,2-8.9,2.9c-2.8,0.8-6.2,2.2-7.7,4.8c-1.6,2.8-0.9,5.9-2.1,8.8c-1.1,2.8-3.1,5.4-1.3,8.4
	c1.5,2.5,3.1,3.6,5.7,5c2.4,1.3,6,2.1,8.7,1.6c2.2-0.5,6.7-0.5,7.1-2.9c0.2-1.2-0.7-3,0-4.2c0.8-1.3,2.3-0.6,3.6-0.5
	c2.7,0.2,4.4,2.3,4.1,5.2c-0.1,1.4-0.8,3.5,0.4,4.6c0.8,0.8,3,0.7,4.1,0.7c1.2,0,3.2,0.5,4.2-0.2c1-0.6,1.9-2.2,2.6-3.1
	c1.1-1.4,2.3-2.4,3.5-3.7c1.2-1.3,0.8-3.2,1.8-4.6c1.1-1.5,2.3-1.4,3.2-0.1c1.2,1.7,0.8,3,3.1,3.4c2.1,0.3,2.2-0.8,3.5-2.5
	c1.1-1.4,2.7-2.9,3.5-4.4c0.8-1.5-0.1-3.4,0.3-5.1c0.4-2.2,0.9-4.3,1.4-6.5c0.4-1.8,1.1-3.1,1-4.8c-0.1-1.7,0.2-3.3,1.1-5
	c0.7-1.4,1.3-2.4,1.8-3.9c0.7-1.8,1.4-2.8,3-1.5c1.4,1.2,1.7,2.6,2,4.3c0.3,1.6,0.2,3.4,1.9,4.1c3.1,1.3,6.9-0.7,9.9,0.4
	c1.9,0.7,2.6,2,4.9,1.2c1.9-0.7,4-1.4,5.9-2.2c3.6-1.6,6.1-5.1,6.3-9c0.2-4.3,0.5-7.9-2.2-11.5c-1.4-1.8-3.3-2.2-5.1-3.3
	c-2-1.2-3.4-3-5-4.6c-2.3-2.4-6.4-4-9.5-2c-1.4,0.9-2.6,2.6-4.3,3.1c-1.6,0.5-3.4-0.5-5.1-0.1c-2.4,0.5-4.1,1.5-6.6,1.3
	c-2-0.1-4.1-0.8-6-0.1C251.6,232.5,250.8,238.2,247.3,239.9z"/>
<path fill="none" stroke="#E1E1E1" stroke-miterlimit="10" d="M348.3-21.1c0,1.6-1.1,2.1-1.8,3.5c-0.8,1.4-1,3.2-1.2,4.7
	c-0.1,1.4,0.1,3.3-0.7,4.5c-0.8,1.1-3,2.1-4.1,2.7c-2.1,1.1-1.5,1.5-2.4,3.3c-0.9,1.9-3.7,2.2-4.7,4c-0.8,1.4-1,3.3-1.7,4.8
	c-1,2.2-2.7,4.4-3,6.8c-0.3,2.9,1.5,6.3,0.7,9c-0.9,3-4.3,4.5-6.8,5.7c-1.3,0.6-3,2.1-3,3.6c0,1.3,1.1,2.5,1.7,3.5
	c1.4,2.5,2.4,3.4,3.9,5.9c1.2,1.9,3.5,3.4,4.5,5.1c0.6,1.2-0.9,1.9-1.8,3.2c-1.5,2.2-4.4,7.8-2,9.3c1,0.7,2.8,1.3,3.7,2.2
	c1.2,1.2,1.8,2.6,3.4,3.7c2.2,1.4,6.4,5,4.5,7.3c-1.2,1.5-1.9,3-0.9,4.2c1.1,1.4,2,1.3,2.4,3c0.7,2.5-0.2,2.3-1.5,4
	c-0.4,0.6-1.4,1.7-1.6,2.4c-0.3,1.1,0.9,3.1-0.3,3.2c-2.2,0.2-3.5,2.2-5,1.9c-1.5-0.3-3.4-1.1-4.9-0.8c-1.5,0.3-2.9,1-4.4,0.7
	c-1.2-0.2-2.3-0.9-3.5-1.2c-3.1-0.7-5.6,6.1-8.2,4.1c-1-0.8-0.4-2.6-1.7-2.8c-1.3-0.2-2.5,0.5-3.4,1.4s-1.6,2-2.5,3
	c-0.5,0.5-1,1-1.1,1.6c-0.1,0.7,0.4,1.3,0.6,2c0.5,2.1-2.3,3.4-3.2,5.3c-0.5,1-0.4,2.1-0.7,3.1c-0.9,4.5-6,7.4-6.5,12
	c-0.4,3.3,1.8,6.4,3.8,9c0.3,0.4,0.6,0.8,1.1,1.1c0.5,0.3,1.2,0.4,1.8,0.5c4,0.7,7.6,3.6,9,7.4c1.2,3.4,0.9,7.1,1.4,10.6
	c0.5,3.5,2.3,7.4,5.8,8.2c1.4,0.3,2.9,0.1,4.3,0.4c2.3,0.4,4.3,2,6.6,2.2c3.3,0.4,6.8-1.9,9.8-0.5c1.4,0.7,2.4,2.2,4,2.5
	c1,0.2,2-0.1,2.9-0.4c3.7-1.3,7.2-3.2,11-4.2c3.8-1,8.1-1.1,11.4,1c3.1,2,4.8,5.5,7.9,7.5c1,0.7,2.1,1.1,3,2c2.7,2.5,2,6.8,2,10.4
	c0.1,6.5,3.3,12.9,8.5,16.7c0.5,0.4,1,0.7,1.6,0.8c0.6,0.1,1.2,0.1,1.8,0c2.2-0.2,4.4-0.4,6.6-0.7"/>
<path fill="none" stroke="#E1E1E1" stroke-miterlimit="10" d="M369.7-21.2c-2.4,1.3-3.5,4.2-4.1,6.9c-0.6,2.7-0.9,5.6-2.3,7.9
	c-0.7,1.2-1.7,2.1-2.6,3.2c-5.6,6.8-5.6,17.6,0,24.4c3.2,3.9,12.6,7.8,9.3,11.7c-0.9,1.1-2.9-0.2-4.3-0.3c-0.7-0.1-1.5-0.1-2.1,0.3
	c-1.6,0.9-0.7,3.7,1,4.3c1.7,0.7,3.6,0.1,5.5-0.2c1.8-0.3,4-0.2,5.1,1.3c1,1.4,0.4,3.4-0.1,5c-0.9,2.5-1.8,5.2-3.6,7.1
	c-0.7,0.8-1.5,1.4-1.9,2.4c-0.3,0.7-0.3,1.5-0.3,2.2c0,2.5,0.1,5.1,1,7.5c0.9,2.4,4.5,3.2,5,5.8c0.3,1.8-2.4,2.8-4.1,3.5
	c-1.7,0.7-3.8,0.6-5-0.8c-0.5-0.6-0.9-1.4-1.6-1.7c-0.5-0.2-1.2-0.2-1.7,0c-2.5,0.7-4.6,3-4.9,5.6c-0.3,2.6,1.3,5.3,3.8,6.2
	c3.3,1.2,6.2-3.5,9.7-3c2.3,0.4,1.2,4.5,0.2,6.7c-0.9,2.2-2.4,4-3.5,6.1c-1.3,2.6-2,5.8-4.2,7.7c-3.3,2.9-8.2,1.9-12.5,1.3
	c-0.8-0.1-1.7-0.2-2.3,0.3c-1,0.8-0.5,2.4,0.2,3.4c1.5,1.8,3.9,2.6,6.2,2.2c0.7-0.2,1.5-0.4,2.2-0.3c1.3,0.2,2.2,1.7,2.1,3
	s-0.7,2.6-1.3,3.8c-1.5,2.8-2.1,6.3-4.4,8.3c-1.6,1.4-4,0.9-6.2,0.8c-2.7-0.1-5.7-0.7-7.8,1c-0.8,0.7-1.4,1.7-2.2,2.4
	c-1.3,1.2-3.2,1.6-4.9,2.2c-1.7,0.7-3.3,2.1-3.2,3.9c0.1,1,0.7,1.9,1.4,2.7c1.3,1.7,2.7,3.5,4.7,4.3c1.2,0.5,2.4,0.6,3.6,0.9
	c1.4,0.4,2.7,1,4,1.4c2.8,0.8,5.7,0.4,8.6,0c1.2-0.2,2.5-0.4,3.7-0.2c1.8,0.2,3.5,1.2,4.9,2.4c1.8,1.5,3.3,3.2,4.4,5.2
	c0.8,1.4,1.5,3,2.7,4.1c2,1.8,5.1,2,7.5,3.3c1.9,1,3.4,2.6,5.2,3.7c1.2,0.7,2.4,1.2,3.6,1.8c4.6,2.5,7.4,7.3,10,11.9"/>
<path fill="none" stroke="#E1E1E1" stroke-miterlimit="10" d="M319.5,114c0.5,0.2,1,0.5,1.5,0.8c0.8,0.5,1.6,1.1,2.1,1.9
	c0.5,0.8,1.1,2.2,0.3,2.8c-1.2,0.8-3,0.1-4.3-0.4c-1.4-0.5-1.6-2.1-2.5-3.3c-0.4-0.5-0.8-1-0.5-1.5c0.3-0.6,1-0.8,1.6-0.8
	S319,113.8,319.5,114z"/>
<path fill="none" stroke="#E1E1E1" stroke-miterlimit="10" d="M392.4,150.1c-1.2-1.2-3.1-0.5-4.8-0.4c-2,0.1-3.9-0.8-5.3-2.1
	c-1.5-1.3-2.6-2.9-3.6-4.6c-0.6-1-1.2-1.9-2-2.7c-1.6-1.4-3.9-1.6-6-2c-2.5-0.5-4.8-1.5-6.7-3.2c-1.9-1.7-3.1-4.1-3-6.6
	c0.1-2,0.9-3.8,1.8-5.6c2.9-5.9,6.6-11.5,11.6-15.7c1.4-1.2,3-2.2,4.3-3.4c2.3-2,3.3-5.4,6-6.7c1.2-0.6,1.9-0.5,2.9-1.2
	c1.9-1.3,4.4-1.7,6.7-1.1"/>
<path fill="none" stroke="#E1E1E1" stroke-miterlimit="10" d="M394.5,112.8c-3.8,0.6-7.6,1.4-11.4,2.4c-0.7,0.2-1.4,0.4-2.1,0.7
	c-1.2,0.6-2.1,1.5-3,2.4c-0.9,0.9-1.8,1.8-2,3.1c-0.2,1.6,0.9,3,1.8,4.3c1.4,2.1,2.4,4.6,4.1,6.5c1.6,2,4.2,3.5,6.7,3
	c1.2-0.3,2.5-1,3.6-0.3c0.3,0.2,0.5,0.5,0.8,0.7c1.7,1.7,4.5,2.2,6.7,1.2"/>
<path fill="none" stroke="#E1E1E1" stroke-miterlimit="10" d="M335.7,382.7c1.2-1.5,3.4-1.9,4.2-3.6c0.3-0.7,0.4-1.4,0.5-2.2
	c0.7-6,3.6-11.4,6.6-16.6c1.3-2.3,2.6-4.7,4.2-6.9c2.8-4,6.5-7.5,8.3-12c1-2.5,1.4-5.4,3.2-7.4c3-3.4,8.7-3.3,11.4-6.9
	c0.8-1,1.2-2.2,1.7-3.4c3.9-8.7,17.8-14.3,15.7-23.6c-0.4-1.6-3.8-1.2-3.6-2.8c0-0.4,0.3-0.7,0.5-1c2.4-3.3,5.8-5.8,9.7-7"/>
<path fill="none" stroke="#E1E1E1" stroke-miterlimit="10" d="M394.6,314c0.2-0.2,0.1-0.8-0.2-0.7c-2.3,0.7-2.6,3.9-3,6.3
	c-0.1,0.6-0.1,1.2-0.4,1.8c-0.2,0.5-0.6,0.9-1,1.2c-1,0.9-2,1.9-3,2.8c-1.5,1.4-3,2.9-4,4.7c-1,1.8,0.5,4-0.2,6
	c-0.9,2.4-5.1,1.7-6.3,4c-0.3,0.6-0.5,1.2-1,1.6c-0.7,0.5-1.7,0.1-2.5,0.2c-1.6,0.1-2.7,1.6-3.5,3c-1.1,1.8-2.1,3.7-2.6,5.7
	s-0.2,4.4,1.2,6c0.9,1.1,2.1,1.8,3.3,2.4c3.6,2,7.3,4,10.9,6c1.1,0.6,2.1,1.2,3.3,1.6c0.8,0.3,1.5,0.4,2.3,0.7c1.6,0.6,3,1.6,4,3
	c1.3,1.8,1.9,4,3.2,5.8c1.4,1.8,3.6,3,5.9,3.2"/>
<path fill="none" stroke="#E1E1E1" stroke-miterlimit="10" d="M342.2,384.7c0.7-0.6,1.3-1.2,1.9-2c0.6-0.9,1.1-1.9,1.6-2.9
	c0.7-1.5,1.4-3,2.1-4.5c0.3-0.6,0.6-1.3,1.2-1.7c0.6-0.4,1.6-0.5,1.9,0.1c1.4,3.3-1.4,7.4,0.1,10.6"/>
<path fill="none" stroke="#E1E1E1" stroke-miterlimit="10" d="M354,366.4c-0.4-0.8-1.4-1.1-2.2-0.9s-1.5,0.9-1.9,1.6
	c-0.7,1.1-1.4,2.8-0.6,3.8c0.7,0.9,2.3,0.4,3.2-0.3c0.9-0.6,1.5-1.7,1.7-2.8C354.2,367.4,354.2,366.8,354,366.4z"/>
<path fill="none" stroke="#E1E1E1" stroke-miterlimit="10" d="M358.9,361.1c0.2-0.3,0.4-0.6,0.4-0.9c0.1-0.8-0.7-1.5-1.5-1.5
	s-1.5,0.5-2.1,1.1c-0.4,0.4-0.7,0.9-0.8,1.5c-0.1,0.6,0.2,1.2,0.7,1.5c0.7,0.4,1.5,0,2.1-0.5C358.2,361.9,358.6,361.5,358.9,361.1z"
	/>
<path fill="#7BBCEB" stroke="#4E9BD7" stroke-miterlimit="10" d="M168.4,132.1c-0.4-1.4,0.7-2.3,0.1-3.6s-2.2-3.9-1.3-5
	c1-1.4,2.3-0.7,4-0.7c5.6,0.2,10.1-0.1,14.2,0.8c3.8,0.9,9.8,12.9,13.6,18c5,6.8,12.4,11.2,19.7,15.5c1.5,0.9,5.7,1.5,4.4,2.6
	c-3.2,2.7-8.9,5.2-13.5,10.7c-1.2,1.4-2.8,2.7-4.5,3.1c-3.4,0.8-6.9-1.7-9.7-3.7c-4.4-3-6.3-5.4-10.8-8.5c-2.9-2-9.2-3.7-9.7-8.3
	c-0.2-1.8-0.6-3.5-1.3-5.1c-1-2.3-3.4-3.7-4.4-6C167.8,139,169.4,135.3,168.4,132.1z"/>
<path fill="none" stroke="#4E9BD7" stroke-miterlimit="10" d="M22.2,380.2c2.2-1.2-2.1-4.7-0.5-6.6c1.6-1.9,4.1-1.9,4.7-4.3
	c0.8-3.3,0.3-7.4,2.5-9.9c1.5-1.6,5.2-0.3,6.1-2.3c1.1-2.4-2.7-7.2-0.2-7.8c3.9-0.9,7.7,0.7,11-1.6c1.8-1.2,3.9-3.2,3.1-5.2
	c-0.7-1.9-3.6-2.5-4-4.6c-0.2-1.2,0.6-2.3,1.3-3.2c3.1-3.6,9.2-3.6,11.9-7.6c1-1.5-1-3.6-0.5-5.3c0.9-3.3,0.6-6.6,2.2-9.7
	c5.5-10.7,10.4-25.8,5-27.5c-3.7-1.2-7.6-2.1-9.1-8.2c-1.1-4.6-2.8-9.1-3.4-13.8c-0.6-5.5-0.6-12.2,3.9-15.5c2-1.5,4.7-2,6.7-3.5
	c3.9-2.8,5.9-9.2,10.7-8.9c1.8,0.1,3.6,1.2,5.4,0.9c1.5-0.3,2.6-1.5,3.6-2.6c9.4-10.2,20.7-18.7,33.1-24.8c3.6-1.8,7.6-3.6,9.5-7.2
	c1-2,1.3-4.2,2.3-6.2c1-2,3.9-4.9,5.2-3.1c0.9,1.3-0.7,3.3-0.1,4.8c0.8,1.9,4.1,0.4,5.4-1.3s1.9-3.8,3.5-5.2c1-0.9,2.4-1.4,3.4-2.2
	c1.2-0.9,2.6-2,2.8-3.5c1.1-13.1,12.1-14.3,14.4-23c1.9-7.3,7.4-9,12.3-10"/>
<path fill="none" stroke="#4E9BD7" stroke-miterlimit="10" d="M67.3,293c1.1,0.2,4.9,5.7,5.7,7.2c0.8,1.4,1.2,3.2,2,4.5
	c0.7,1.2,1.2,2.4,2.3,3.5c2,1.9,4-3.3,5.7,0.3c0.6,1.2,0.3,2.5,0.8,3.7c0.5,1.3,1.8,1.6,1.4,3.3c-2.9,2-7.4-5.2-6.7,0.6
	c0.3,2.6,5.6,4.8,2.2,7.6c-0.4,0.4-3.6,1.6-4.3,1.8c-2,0.6-2.7,0.2-3.8-1.9c-0.6-1.1-0.3-3.4-2-2.8c-1.4,0.5-0.7,4-1.2,5
	c-1.2,2.4-4-0.2-6,0.3c-1,0.2-1.1,1.3-2.5,1.5c-1,0.1-1.6-0.6-2.7-0.3"/>
<path fill="#EAEAEA" stroke="#D6D6D6" stroke-miterlimit="10" d="M48.1,13.4c0,0.8,1.1,1.2,1.2,1.9c0.2,0.8-0.7,1.5-1.2,2.2
	c-0.9,1.3-0.1,3.4,1.4,3.8c0.4,0.1,0.9,0.1,1.3,0.2c1.7,0.5,2.3,2.5,2.5,4.3c0.2,3.3-0.8,7-3.5,8.8c-0.3,0.2-0.7,0.4-1.1,0.4
	c-0.6,0-1-0.5-1.5-0.6C46,34,44.8,35,43.7,35.7c-1.3,0.9-2.7,1.4-4.2,1.9c-1.3,0.5-2.5,0.9-3.8,1.4c-0.6,0.2-1.1,0.4-1.7,0.4
	c-0.7,0-1.3-0.2-2-0.4c-1.6-0.5-3.2-1.2-4.8-0.9c-1.7,0.4-3.2,1.9-4.9,1.5c-1.6-0.3-2.4-2.5-1.4-3.8c0.4-0.5,1.2-1.1,0.9-1.8
	c-0.1-0.2-0.3-0.4-0.6-0.5c-1.2-0.5-2.5,0.3-3.8,0.7c-1.7,0.6-5.1,1.2-5.1-0.6c-0.1-4.2,12.1-0.1,11.7-4.3c-0.2-1.4-3-1.2-2.8-2.6
	c0.1-0.9,0.9-1.5,1.8-1.7c0.8-0.2,1.7-0.1,2.6-0.2c1.9-0.2,3.6-1.1,5.2-2.1c1.2-0.8,2.5-1.8,2.6-3.2c0.1-1.6-1.5-3.3-0.7-4.8
	c0.5-0.9,1.6-1.1,2.6-1c1,0.2,1.9,0.6,2.8,0.9c1.3,0.4,2.6,0.3,4,0.3c0.5,0,1,0,1.4,0.2c0.5,0.2,0.9,0.6,1.4,0.8s1.4,0.3,1.4-0.3
	c0.1-0.7-0.4-1.3-0.6-2c-0.1-0.3-0.2-0.5-0.1-0.8c0-0.3,0.2-0.5,0.3-0.7c0.2-0.9-0.5-1.7-1.2-2.2c-0.8-0.7-1.6-1.4-2.4-2.1
	c-0.5-0.5-1.1-0.9-1.4-1.6c-0.3-0.6-0.3-1.5,0.2-1.9c0.8-0.8,2-0.3,3,0.2c1.9,1,3.8,2,5.6,2.9c1.6,0.8,3.3,1.7,4.4,3.1
	c1.6,1.9,2,4.6,2.4,7c0.1,0.8-0.1,2-0.9,2c-0.5,0-0.8-0.6-1-1.1c-0.9-2.5-2-5.4-4.5-6.3C49.4,12.2,48.1,12.5,48.1,13.4z"/>
<path fill="#EAEAEA" stroke="#D6D6D6" stroke-miterlimit="10" d="M175,344.9c-2.9,2.2-2.9,6.5-4.9,9.5c-2,3.1-5.8,4.4-8.6,6.9
	c-1.4,1.3-2.6,2.9-3.7,4.5c-1.6,2.3-3.3,4.7-4.3,7.3c-0.4,1.1-0.8,2.3-1.8,3.1c-0.8,0.6-1.9,0.8-2.8,1.4c-0.8,0.6-1.2,2.2-0.2,2.6
	c0.4,0.2,0.9,0.1,1.4,0.1c0.9,0.1,1.5,0.9,1.8,1.7c1,2.1,0.7,4.8-0.7,6.7c-0.7,1.1-1.8,2.1-1.8,3.3c0,0.7,0.4,1.4,0.5,2.2
	c0,1.3-1.1,2.3-2,3.3c-1.6,1.9-3.7,4.9-2.2,6.8c0.6,0.7,1.9-0.2,2.6-0.9c0.7-0.6,1.3-1.5,2.1-1.9c1.2-0.6,2.6-0.4,4-0.7
	c2.8-0.7,4.7-4.1,3.7-6.8c-0.3-0.9-1-1.7-1.2-2.7c-0.2-1,0.1-2.2,1.1-2.4c0.6-0.2,1.2,0.1,1.7,0c0.8-0.1,1.5-0.7,2.1-1.3
	c1.2-1.2,2.5-2.4,3.7-3.7c0.7-0.7,1.8-1.5,2.7-1.2c0.8,0.3,1.1,1.3,1,2.1c-0.1,0.8-0.6,1.5-1.1,2.2c-0.5,0.7-1,1.4-1.5,2.1
	c-0.7,0.9-1.4,1.9-2.5,2.4c-0.5,0.2-1.2,0.3-1.6,0.6c-0.5,0.3-0.6,1.2-0.1,1.4c0.2,0.1,0.5,0.1,0.7,0c4.1-0.8,7.8-3.9,9.2-7.9
	c0.4-1.2,0.8-2.5,1.9-3.1c0.9-0.5,2.1-0.3,3.1-0.5c1.5-0.3,2.6-1.5,3.6-2.7c2.2-2.5,4.6-5.4,4.7-8.7c0-1.2-0.2-2.4,0.3-3.5
	c0.3-0.6,0.7-1.1,0.7-1.7c0-0.6-0.4-1.1-0.6-1.6c-0.7-1.5,0.2-3.6,1.8-4.1c0.5-0.2,1-0.2,1.5-0.5c0.7-0.3,1.1-1,1.5-1.6
	c1.8-2.5,4-4.7,6.5-6.6c1.3-1,2.8-1.9,3.9-3c1.8-1.9,2.8-4.4,3.7-6.9c0.3-0.9,0.7-1.9,0.3-2.8c-0.5-1.3-2.1-1.6-3.5-1.7
	c-2-0.2-4.1-0.4-6.1-0.7c-3.6-0.4-7.6-0.7-10.7,1.3c-2.3,1.5-3.7,4.1-6,5.5C177.8,343.6,176.2,344,175,344.9z"/>
<g>
	<g>
		<path fill="none" stroke="#585858" stroke-miterlimit="10" d="M277-18.3c-0.5,0.5-0.7,1.1-0.7,1.8"/>
		<path fill="none" stroke="#585858" stroke-miterlimit="10" stroke-dasharray="3.9734,5.9601" d="M277.5-10.7
			c0.1,0.5,0.1,1,0.1,1.4c-0.2,3.2-1.8,4.9-4.1,7c-4.4,4-10.1,2.9-13.3,8.3c-2.9,4.9-5.1,11.6-10.9,14c-5.2,2.2-11.1,3.8-17.1,2.9
			c-5.8-0.9-11.2-5.5-16.6-1.3c-2.8,2.2-5.5,4.3-7.7,7c-2,2.5-3.3,5.6-5.9,7.5c-3.7,2.6-8.8,1.9-13,2.9c-3,0.8-6,1.4-9.1,2
			c-6.1,1.2-11.5,1.2-16.7,5c-3.7,2.8-11.1,1.8-11,8.1c0.1,2.7,1.5,4.7,1.3,7.6c-0.1,3.2-0.1,4.3,1.3,7.3c1.1,2.3,1.9,5,1.3,7.7
			c-0.8,3.8-3.6,2.4-5.4,4.9c-2.2,3.1,3.6,3.2,0.8,5.4c-1.2,0.9-6.7,0-7.9,1.1c-0.4,0.4-0.4,1.5,0,1.9c5.2,6-4.1,8.9-5.7,10.4
			c-4.5,4.2,1.7,10.2,0.6,14.7c-0.7,2.8-3.6,5.5-4.7,8.7c-1.2,3.6-1.2,5.6,1,8.7c1.5,2,2.9,5.7,4.7,6.7c2.8,1.5,6.9,0.7,10,2.4
			c5.6,3.1,10,6.9,9.9,13.3c-0.1,8.7-6.2,11.4-11.9,16.6c-2.5,2.3-1.5,4.2-3,6.9c-1.3,2.3-4.7,5.1-7,6.1c-2.4,1.1-4.9,1-7.4,2.3
			c-2.8,1.5-5.4,2.8-7.3,4.9c-3.4,3.9-10,5.1-12.9,9.7c-2.8,4.5-6.1,7-9.5,10.9c-7.1,8.2-23.9,10.6-25.4,17.4
			c-0.4,1.7,5.9,0.8,4.3,2.3c-2.4,2.4-7.9,0.9-11.2,1.7c-3.8,0.9-3,6.2-6.1,8c-5.7,3.3-12.2,3.7-12.9,13.9
			c-0.4,5.9-0.3,12.1,1.3,17.7c0.7,2.6,1.4,5.9,2.3,8.4c1.2,3.2,3.6,2.9,2.3,6.3c-0.6,1.5-3.1,2.5-2.2,3.9c1.2,2,4,1.3,4,4.1
			c0,3.1-2.1,2.6-4.3,3.7c-4.7,2.4-9.8,7.6-12,12.3c-2.1,4.4-4.5,7.4-3.2,12.2c0.5,1.9,1.5,4,0.7,6.1c-0.7,1.8-1.9,2.4-0.8,6.7
			c1,3.7-5.4,2.6-8.3,4.9c-1.9,1.5-2.8,4.2-4.9,5.7c-2.7,2,2,2.9,3.4,5.4c1.6,2.9-0.6,6.1-2.7,8.8c-2.2,2.8-4.5,5-7.5,7
			c-5.4,3.6-9.3,8.2-13.7,12.7c-2,2.1-4.6,2.8-6.3,4.6c-1.4,1.5-1.7,4.6-2.1,6.7c-0.6,2.9-1.5,4.8-3.2,7.4c-1.7,2.5-2.7,5.1-4.4,7.3
			"/>
		<path fill="none" stroke="#585858" stroke-miterlimit="10" d="M-14.4,409.9c-0.5,0.4-1,0.8-1.6,1.2"/>
	</g>
</g>
<g>
	<g>
		<path fill="none" stroke="#585858" stroke-miterlimit="10" d="M271.7,384c0.1-0.7,0.3-1.3,0.7-1.8"/>
		<path fill="none" stroke="#585858" stroke-miterlimit="10" stroke-dasharray="4.0814,6.1221" d="M277.1,378.4
			c0.8-0.6,1.6-1.1,2.1-1.6c2.8-2.9,2.8-4.5,2.5-7.7c-0.3-3.7-1.1-15.5,8.2-11.7c1.9,0.8,1.3-4.1,4-3.6c2.2,0.4-1.2-6.2-0.3-8.6
			c0.7-1.8,1.8-1.8,1.8-3.7c0-1.3-2.6-3-1.4-3.9c0.6-0.5,2,0.5,2.6-0.1c0,0,0-0.8,0-0.9c-2.9-4.2,1.3-3,2.9-3.5
			c3.7-1.2,4.4-1.6,5.6-5.2c0.7-2.2,1-4.6,0.8-6.7c-0.1-1.2,0.2-1.6,1.2-2.4c1.1-0.9,2.4-1.7,3.2-3c2.9-5.3-3.2-9.5-4.7-13.9
			c-1.9-5.7,3.5-7.1-0.5-14.4c-1.5-2.7,6.2-2.9,8.6-3.3c4.5-0.8,4.5-2.5,7-5.6c2.3-2.8,4.6-2.9,7.6-2.2c4.2,1.1,3.9,0.4,7.6-2.4
			c2.4-1.7,4.4-3.6,7-4.9c3-1.4,6.1-1.6,9-3.4c2.4-1.5,4.5-2.5,7-3.9c2.9-1.6,3.6-2.6,4.7-5.4c1.4-3.8,1.4-7.3,4.4-9.9
			c3.7-3.2,6.3-5.7,7.7-10.6c0.5-1.9,1.7-10.3,0.7-11.6c-0.8-1-4.1-0.4-5.3-1.4c-0.9-0.7-0.9-1.8-1.1-2.8"/>
		<path fill="none" stroke="#585858" stroke-miterlimit="10" d="M368.1,217.7c-0.6-0.2-1.3-0.4-1.8-0.9c0,0-0.4-0.6-1.1-1.7"/>
		<path fill="none" stroke="#585858" stroke-miterlimit="10" stroke-dasharray="3.9658,5.9487" d="M362.1,210.1
			c-2.2-3.4-4.8-7.3-7.1-9.7c-3.5-3.7-7.6-8.4-12.4-10.6c-5.8-2.7-11.7,1.4-17.6-0.3c-6.1-1.8-12.1-3.9-18.1-5
			c-7.9-1.4-16.8,5.2-22.9,0.5c-3.8-2.9-10.1-6.6-14.3-8c-5.6-1.9-11.9,2-16-2.3c-2.5-2.6-3.3-8.2-6.5-8.9c-4.3-1-10-0.2-13.5,2.1
			c-4.2,2.7-8.7,4.8-12,8.7c-2.3,2.7-4.6,10-7.7,8.5c-3.4-1.6,5.1-13,0.9-14c-3.1-0.7-5.3,2.8-7.7,4c-2.1,1.1-7.3,2.7-9,1
			c-4.2-4.2-7-5.3-11.6-8.1c-2.4-1.4-4-3.9-6.4-5.3c-2.4-1.4-4.2-2.5-6.3-4.3c-0.8-0.7-2.4-1.3-2.9-2.3c-0.7-1.3,0-2.6-0.5-3.9
			c-0.7-2.1-2.9-3.9-4.6-5.4c-3.9-3.5-6.8-7.3-10.2-11.1c-1.8-1.9-3.5-2.9-4.3-5.6c-0.8-2.6-2.3-4-2.5-6.9
			c-0.4-6.9-2.3-9.4-4.8-10.1"/>
		<path fill="none" stroke="#585858" stroke-miterlimit="10" d="M141.2,112.7c-0.6,0-1.3,0.1-2,0.2"/>
	</g>
</g>
<g>
	<g>
		<path fill="none" stroke="#585858" stroke-miterlimit="10" d="M377,228c-0.4,0-0.2-0.4-0.2-0.8c0.5-0.6,1.1-1,1.6-1.3"/>
		<path fill="none" stroke="#585858" stroke-miterlimit="10" stroke-dasharray="3.9759,5.9638" d="M384,224.4c0.1,0,0.2-0.1,0.3-0.1
			c1.8-0.8,3.6-2.4,5.3-3.9"/>
		<path fill="none" stroke="#585858" stroke-miterlimit="10" d="M391.8,218.4c0.5-0.5,1-0.9,1.5-1.3"/>
	</g>
</g>
<g>
	<g>
		<path fill="none" stroke="#585858" stroke-miterlimit="10" d="M364.8,252.5c0.8,0,1.4,0,2,0.1"/>
		<path fill="none" stroke="#585858" stroke-miterlimit="10" stroke-dasharray="3.515,5.2726" d="M370.8,255.8
			c0.2,0.3,0.4,0.6,0.6,0.9c1.5,2.5,4.4,5.1,7.3,5.9c2.4,0.7,8.8-0.9,13-0.9"/>
		<path fill="none" stroke="#585858" stroke-miterlimit="10" d="M394.3,262.1c0.7,0.2,1.3,0.7,1.4,1.3"/>
	</g>
</g>
<text transform="matrix(1 0 0 1 59.508 33.548)"><tspan x="0" y="0" fill="#585858" font-family="'Verdana-Italic'" font-size="10">Little Otter</tspan><tspan x="0" y="12" fill="#585858" font-family="'Verdana-Italic'" font-size="10">Lake</tspan></text>
<text transform="matrix(1 0 0 1 194.508 330.548)" fill="#585858" font-family="'Verdana-Italic'" font-size="10">Avonelle Lake</text>
<g>
	<g>
		<polyline fill="none" stroke="#7D7D7D" stroke-miterlimit="10" points="85.2,341.6 85.2,348.7 275.4,348.7 275.4,341.7 		"/>
		<line fill="none" stroke="#7D7D7D" stroke-miterlimit="10" x1="180.5" y1="341.4" x2="180.5" y2="348.7"/>
		<line fill="none" stroke="#7D7D7D" stroke-miterlimit="10" x1="161.2" y1="349.2" x2="161.2" y2="343.7"/>
		<line fill="none" stroke="#7D7D7D" stroke-miterlimit="10" x1="142.4" y1="349.2" x2="142.4" y2="343.7"/>
		<line fill="none" stroke="#7D7D7D" stroke-miterlimit="10" x1="123.3" y1="349.2" x2="123.3" y2="343.5"/>
		<line fill="none" stroke="#7D7D7D" stroke-miterlimit="10" x1="104.6" y1="349.2" x2="104.6" y2="343.7"/>
	</g>
	<text transform="matrix(1 0 0 1 83.7833 339.1467)" fill="#7D7D7D" font-family="'Verdana'" font-size="8">0</text>
	<text transform="matrix(1 0 0 1 174.2944 339.1467)" fill="#7D7D7D" font-family="'Verdana'" font-size="8">0.5</text>
	<text transform="matrix(1 0 0 1 258.3413 339.1467)" fill="#7D7D7D" font-family="'Verdana'" font-size="8">1 mi</text>
</g>
</svg>
