<?xml version="1.0" encoding="utf-8"?>
<!-- Generator: Adobe Illustrator 17.1.0, SVG Export Plug-In . SVG Version: 6.00 Build 0)  -->
<!DOCTYPE svg PUBLIC "-//W3C//DTD SVG 1.1//EN" "http://www.w3.org/Graphics/SVG/1.1/DTD/svg11.dtd">
<svg version="1.1" id="Layer_1" xmlns="http://www.w3.org/2000/svg" xmlns:xlink="http://www.w3.org/1999/xlink" x="0px" y="0px"
	 viewBox="0 0 360 360" enable-background="new 0 0 360 360" xml:space="preserve">
<path fill="none" stroke="#E1E1E1" stroke-miterlimit="10" d="M356.5-1.7C355,5.4,351.4,12,346.2,17c-6,5.8-13.8,9.3-21.8,11.6
	c-4.2,1.2-8.9,2-12.9,0c-1.4-0.7-2.7-1.8-4.1-2.5c-1.5-0.7-3.2-1.1-4.9-1.4c-4.6-0.9-10.1-1.5-13.2,2.1c-2.5,2.9-2.1,7.2-0.8,10.8
	c1.3,3.6,5.8,7.4,3.9,10.7c-1.6,2.7-3.9,4.9-6.8,6.1c-3.8,1.6-7.6-3.6-10.3-6.7c-0.5-0.5-0.9-1.2-1-1.9c-0.1-0.8,0.5-1.5,0.7-2.3
	c3.7-11,6.6-23.8,5.8-35.8c-0.2-3.2-2.2-7-5.5-7.1c-2.7-0.1-4.7,2.6-5.4,5.3s-0.6,5.5-1.7,7.9c-1.2,2.6-3.6,4.5-5.4,6.7
	c-1.8,2.2-3.2,5.4-1.9,7.9c0.6,1.2,1.7,2,2.4,3.1c1.7,2.6,0.9,6.1-0.6,8.8c-1.6,2.7-3.9,4.8-5.5,7.5c-2.9,4.6-3.7,10.2-4.4,15.6
	c-0.2,1.6-0.4,3.3,0.2,4.8c0.5,1.2,1.5,2.2,1.7,3.5c0.2,1.4-0.8,2.8-1.7,3.9c-6.1,7.6-10.3,20.1-19.9,21.6c-0.7,0.1-1.2-1.2-1.9-0.9
	c-3.4,1.2-6.5,4.4-9.2,1.9c-0.6-0.5-1.1-1.2-1.9-1.3c-1-0.2-1.9,0.7-2.7,1.3c-4.2,3.2-13.1,5.1-15.3,0.2c-0.7-1.6-1.2-3.2-2.9-3.4
	c-1.7-0.2-3.6,0.3-5.2-0.5c-2-1-2.7-3.7-4.8-4.5c-2.7-1.1-4,4.1-6.9,4c-5-0.2-5.1-8.5-7.7-12.8c-0.7-1.2-1.4-2.4-1.6-3.7
	c-0.3-2,0.6-3.9,1.4-5.7c2.2-4.6,4.4-9.1,6.5-13.7c0.9-1.9,1.9-4,1.8-6.1c-0.1-3.3-2.6-5.9-5-8.2c-4.1-4-11-6.4-12.2-12
	c-0.8-3.5-0.7-7.6-3.5-9.8c-4.4-3.5-11-0.8-16.5,0c-1.4,0.2-2.7,0.5-3.9,1.2c-1.1,0.6-1.9,1.6-2.7,2.6c-3.6,4.3-6.6,8.9-9,13.9
	c-1.2,2.4-2.2,4.9-4.2,6.7c-2.6,2.3-5.6,4.4-9,5.4c-2.6,0.7-1.2-5.7-3.6-6.8c-0.5-0.2-1-0.2-1.5-0.2c-2.8,0.1-4.7,3.6-7.4,3.3
	c-2.3-0.3-1.2-5.3,0.2-7.2c1.4-1.9,3-3.1,4-5.2c1.2-2.6,2.2-5.5,4.1-7.5c1-1,2.3-1.6,3.3-2.6c2.4-2.7,0.8-7.4,2.8-10.4
	c0.5-0.8,1.3-1.5,1.7-2.4c0.3-0.7,0.3-1.5,0.2-2.3c-0.1-4.6-0.2-9.3-0.4-13.9"/>
<path fill="none" stroke="#E1E1E1" stroke-miterlimit="10" d="M362,59.4c-0.1,0.2-0.3,0.5-0.4,0.7c-2,3.4-4,7-4.5,10.9
	c-0.7,6.1,2.4,12,2.2,18.1c-0.2,8.4-6.5,15.3-11.8,21.9c-0.4,0.4-0.7,0.9-1.3,1.2c-1.1,0.5-2.3,0-3.4-0.5
	c-5.9-2.6-12.2-4.3-18.6-4.9c-2.9-0.3-7.1,0.9-6.5,3.8c0.3,1.5,1.9,2.4,2.6,3.8c1,2.1-0.2,4.8,0.9,6.8c0.6,1.2,1.9,1.8,3,2.6
	c4.5,3.1,6.9,8.7,11.5,11.7c4.1,2.7,11.7,2,12.9,6.7c0.5,2-1.1,4-1.6,6c-0.5,1.8-1,3.6-2.2,5.1c-3.1,3.7-8.9,2.8-13.6,1.6
	c-2.6-0.7-5.3-1.4-7.9-2.1c-1.2-0.3-2.4-0.6-3.6-0.4c-1.8,0.4-3.2,2.1-5.1,2.4c-1,0.1-2.1-0.2-3-0.6c-6.1-2.6-10.2-8.5-13.4-14.4
	c-2.3-4.3-4.5-9-8.5-11.9c-2.1-1.6-4.6-2.6-6.9-4c-2.6-1.6-4.8-3.6-7.1-5.7c-5-4.5-10.3-9-16.8-10.8c-6.5-1.8-14.4,0-17.8,5.9
	c-1.3,2.2-1.8,4.7-2.8,7c-1.5,3.4-4.3,6.5-7.8,7.6s-6.9-1-9.9-3.3c-2.7-2-6.9,0.4-8.9,3c-0.5,0.6-0.8,1.3-1.5,1.7
	c-2.1,1.3-4.4-1.1-6.2-2.8c-4.1-3.9-10.2-3.2-15.6-1.7c-1.3,0.4-2.8,0.5-3.7-0.4c-0.9-0.9,0.8-2.8,0-3.8c-2.5-3.2-7.7,1.9-11.2,3.8
	c-7.5,4-17.7,8.1-25,3.6c-3.9-2.4-13.9-11.1-18.2-12.7c-11.8-4.3-26.1,11.2-28.6,7.9c-0.9-1.2,3.8-6,4.6-9.6c0.7-3.3,1-6.2,0-9.4
	c-0.1-0.4-0.3-0.9-0.6-1.2c-0.3-0.3-0.7-0.4-1.1-0.4c-3.8-0.6-7.1,2.3-10.1,4.7c-3.9,3.1-9.3,11-12.8,7.5c-2.4-2.4,1.1-6.8-0.4-9.8
	c-0.5-1-1.1-2-1-3.1c0.1-0.4,0.3-0.8,0.4-1.2c3.4-7.4,4.2-15.7,4.9-23.7c0.2-2.3,0.4-4.6,0.6-6.9c0.7-8.1,1.5-16.2,2.7-24.2
	c0.4-2.8,0.9-5.6,2.1-8.1c0.7-1.5,1.7-2.9,2.5-4.4c3.2-5.6,4.7-12.1,5.6-18.5c1-6.6,1.5-13.2,1.6-19.9"/>
<path fill="none" stroke="#E1E1E1" stroke-miterlimit="10" d="M244.3-3.4c-0.9,1.1-1.8,2.2-2.4,3.5c-1.5,3.1-1.5,6.7-2,10.1
	c-0.1,0.3-0.1,0.7-0.4,1c-0.5,0.5-1.4,0.3-1.8,0.9c-0.6,0.7,0.1,1.6,0.7,2.3c1.3,1.7,4,4.5,2.3,5.9c-2.1,1.9-5.7-0.6-8.1,0.7
	c-1.4,0.8-1.9,2.5-3.1,3.6c-2.3,2-5.8,0.7-8.5-0.6c-0.9-0.5-1.9-0.9-2.5-1.7c-2.3-2.6-0.5-6.9-2.3-9.8c-1.2-2-3.7-2.8-6-2.6
	c-2.3,0.1-4.5,1-6.6,1.8c-1.3,0.5-3,0.7-3.9-0.4c-0.4-0.5-0.5-1.2-0.6-1.9c-0.6-5-5.1-9.2-4.8-14.2"/>
<path fill="none" stroke="#E1E1E1" stroke-miterlimit="10" d="M76,0.6c-1.7-2.4-5.6-1.8-8.5-1.4c-2.9,0.5-5.6,1.6-8.3,2.9
	c-1.2,0.6-2.5,1.2-3.3,2.3c-0.8,1-1.2,2.6-0.4,3.7c0.5,0.7,1.2,1.5,2,1.4C61,9.1,62.9,9.1,66,9.3c0.8,0.1,5.7-0.7,6.3-1.2
	C75.2,6,77.5,2.7,76,0.6z"/>
<path fill="none" stroke="#E1E1E1" stroke-miterlimit="10" d="M-1.2,12.1c2.4,3.1,5.3,6,8.1,8.6c0.8,0.7,1.6,1.5,2.6,1.8
	c3.8,1.2,6.5-3.5,9.1-6.5c6.4-7.3,15.7-0.8,23.3,5.4c4.2,3.4,10.4-5.6,15.6-3.8c2.9,1,4.4,4.1,5.6,6.9c2.8,6.5,5.7,12.9,8.5,19.4
	c0.6,1.4,1.2,2.8,1.2,4.4c0,1.1-0.3,2.3-0.3,3.4c0,2.3,1.4,4.3,2.3,6.4c4,8.7,0.2,18.8-2.7,28c-3.7,11.3-6.2,23.1-7.5,35
	c-0.5,4.3-0.7,8.7,0.3,12.9c1,4,3.1,7.6,5.1,11.2c3.3,5.7,6.6,11.4,9.9,17c2.1,3.6,4.3,7.4,7.9,9.6s8.7,2.5,11.5-0.7
	c0.5-0.5,0.9-1.2,1.5-1.4c3.5-1.5,4.2,9.3,7.3,7c18.6-13.5,36-47.6,55.6-35.6c6.1,3.7,3,13.9,4.1,21c1.1,7.1,4,14.4,10,18.2
	c7.8,5,19.2,3.8,24.5-3.4c5.1-6.9,8.8-23.8,14-21.4c4.9,2.2,0.9,10.8,4.6,14.7c3.7,3.9,9.1,9,14,11.1c2.9,1.3,5.7-0.2,8.7-1.3
	c2.1-0.8,4-2.8,6.3-2.5c2.1,0.3,4.3,5,6.3,5.4c2.1,0.4,3.2-3.6,4.8-5c8.9-7.4,18.7-16.7,17.6-28.3c-0.2-1.8-0.6-3.6,0-5.3
	c0.6-1.7,3-3,4.2-1.7c6,7,5.2,12.3,6.9,16.4c2.3,5.5,10.1,7.3,15.5,9.6c3.3,1.4,6.6,2.8,9.9,4.2c2.4,1,3.6,3,5.4,4.9
	c3.6,3.6,5.2,8.2,5.2,13.3c0,1.3,0,2.6-0.5,3.8C325,196,324,197,323,198c-4.2,4.3-8.1,9.9-6.9,15.8c0.4,2,4.3,13.4,5.1,15.3
	c3.7,8.7-2.7,14.7-0.5,17.2c1.3,1.5,3,1,4.3-0.3c1.4-1.4,2.2-3.2,3.1-4.9c3-5.1,7.8-9.2,13.4-11.2c2.5-0.9,5.3-1.4,7.9-0.8
	c2.6,0.6,3.4,3.7,5.7,5.1c1.7,1,3.9-1.1,5.4-2.4c1.5-1.3,2.2-3.7,1-5.3c-1.4-1.9-4.6-1.9-5.7-4c-0.7-1.5,0.1-3.2,0.4-4.9
	s-0.4-3.9-2-3.8c-0.5,0-1,0.3-1.5,0.5c-2.4,0.7-4.5-1.6-5.9-3.7c-3.9-5.7-7.7-11.4-11.6-17.1c-3.2-4.7-8.4-10.1-5.6-15
	c0.7-1.2,1.8-0.4,2.8,0.5c1,0.9,1.8,2.1,3,2.7c1.4,0.8,3.1,0.8,4.6,0.7c7.5-0.4,15.1-2.1,21.8-5.5"/>
<path fill="none" stroke="#E1E1E1" stroke-miterlimit="10" d="M-2.8,76.8c3.7,1,7,3.8,9.3,7.1c3,4.3,4.6,9.4,7.1,14.1
	c0.7,1.3,1.6,2.7,3,3.2c3.6,1.2,5.7-3.9,8.6-6.4c5.8-5.1,15.4,1.4,22.5-1.6c6-2.5,16.4-15,16.3-8.5c-0.1,20.7-25.8,49.4-2.6,99
	c5.6,12.1,14.2,24.1,12.4,37.3c-0.4,2.7-1.2,5.5-0.4,8.1c0.9,3,3.7,5.5,3.4,8.6c-0.2,2.8-3,4.7-4,7.4c-2.4,6.3,5.2,11.5,11.4,13.9
	c1.9,0.8,4,1.5,5.9,0.8c3-1.1,4-5.2,6.9-6.4c1.4-0.6,2.9-0.4,4.4-0.2c7.7,0.9,15.6,4.9,23,2.8c5-1.4,12.5-4.5,12.1-9.7
	c-0.6-7.4-1.2-10.7,2-17.3c2.5-5.3-12.6-4.8-13-10.7c-0.3-4.3,5.3-6.2,8-9.5c3.3-3.9,2.4-9.8,0.7-14.6s-4-9.8-3-14.8
	s10.1-10.5,11.3-5.5c1.2,5.1-3.9,15.6,1.3,15.1c6.5-0.7,5.7-18.1,11.7-15.4c1.7,0.8-1,5.2,0.8,5.7c2.3,0.6,4.6-1.4,6.4,0.2
	c1.8,1.6,2.8,3.8,4.2,5.8c7.8,10.6,24.4,7.4,36.3,13.2c0.8,0.4,1.7,0.9,2.2,1.7c1,1.4,0.7,3.3,0.5,4.9c-1,9.6,4.5,19.4,13,24
	c8.5,4.5,19.5,3.7,27.4-1.8c4.3-3,10.9-12.9,15-16.2c5.2-4.1,16.7,0.1,23.5,0.2c4.7,0.1,5.1-5.6,7.8-2c3.6,4.7-2.8,13.7-2.6,19.7
	c0.4,12.7,1,26.1,7.8,36.8c6.8,10.7,22,17.3,32.6,10.3c3.9-2.6,6.7-6.6,10-9.9c6.2-6.3,14.6-10.6,22-15.5"/>
<path fill="none" stroke="#E1E1E1" stroke-miterlimit="10" d="M-2.8,112c0.7,0.7,1.4,1.3,2.2,1.7c1.6,1,3.5,1.4,5.3,1.8
	c7.6,1.6,15.5,3.3,22.9,1.2c5.3-1.4,11.4-8.3,15.7-4.9c7.5,6,1.4,19.3-0.9,28.6c-2,8.1-5.6,16.4-3.9,24.6c0.4,2.1,1.2,4.2,1,6.3
	c-0.4,4.7-5.2,7.8-7,12.1c-1,2.4-1.1,5-1.6,7.6c-1.4,7.1-6.1,13.6-12.9,16.2c-6.7,2.5-14,1-21.1,0.3"/>
<path fill="none" stroke="#E1E1E1" stroke-miterlimit="10" d="M-2.7,129.9c1.7,1.5,3.5,2.9,5.8,3.1c2.2,0.2,4.3-1,6.2-2.1
	c6.8-3.6,17.6-12.3,22.1-6.1c5.9,8-12.4,15.3-18.4,23.2c-4.4,5.9-7.2,12.9-10.9,19.2c-1.3,2.2-2.6,4.3-4.1,6.3"/>
<path fill="none" stroke="#E1E1E1" stroke-miterlimit="10" d="M54.1,238.3c-0.6-5.6-4.1-10.8-3.6-16.4c0.2-2,0.9-4.1,0.4-6
	c-0.7-3-3.6-4.7-6.3-6.2c-0.9-0.5-1.9-1-2.9-0.9c-1.5,0.1-2.6,1.4-3.6,2.6c-5.5,6.8-11,13.6-16.4,20.3c-1.1,1.4-2.3,2.8-2.8,4.6
	c-0.5,1.7-0.1,3.8,1.3,4.9c0.5,0.4,1.2,0.6,1.8,0.8c6.6,2.2,13.3,4.4,19.9,6.6c1.2,0.4,2.4,0.8,3.4,1.6c0.7,0.5,1.2,1.2,1.8,1.8
	c2.6,2.8,7.7,6.7,10.5,4c1.5-1.4-1.4-3.8-2.3-5.7C53.5,246.7,54.5,242.3,54.1,238.3z"/>
<path fill="none" stroke="#E1E1E1" stroke-miterlimit="10" d="M-2.7,254.6c8.7,5.1,20.6,4.8,27.5,12.2c3.6,3.9,5.1,9.4,5.3,14.7
	s-1.1,10.6-2.3,15.8c-1.2,5.3-2.4,10.7-3.6,16c-0.6,2.9-1.3,5.7-2.6,8.4c-1.1,2.3-2.7,4.4-4.4,6.4c-6,7.5-12.5,14.5-19.4,21.1"/>
<path fill="none" stroke="#E1E1E1" stroke-miterlimit="10" d="M-2.8,297.8c1,0.4,2,0.9,3,1.3c1.1,0.4,2.2,0.9,3.3,0.9
	c2.6,0,6.9-0.2,7.2-2.7c0.2-2-3.6-1.7-5.4-2.6c-1.2-0.6-2.6-1.9-1.8-2.9c0.7-1,2.4-0.3,3.4-1c0.6-0.4,0.7-1.3,0.8-2
	c0.2-1.8,0.3-3.8-0.5-5.5c-0.9-1.8-2.8-3-4.1-4.5c-1.5-1.8-2.4-4.3-4.4-5.6c-0.2-0.1-0.4-0.3-0.6-0.4"/>
<path fill="none" stroke="#E1E1E1" stroke-miterlimit="10" d="M53.2,363.6c2.3-6,2.8-12.7,3.2-19.2c0.2-4.1-8.2-3.3-10.7,0
	c-1.2,1.5-1.7,3.5-3.1,4.8c-2.4,2.2-6.6,1.3-8.8-1.2c-2.2-2.4-3.1-5.8-3.7-9c-2-9.4-3.1-20.7,4.2-27c5.4-4.6,13.2-4.5,20.1-6.2
	c6.9-1.7,18.1-10.4,12.3-14.5c-1.5-1-4.2,1.7-5.5,0.4c-4.9-5.2-4.1-14.6-1.5-21.3c4-10.2,20.3,7.9,31.1,6.1c2.7-0.5,5.3-1.9,8-1.6
	c4.2,0.6,6.9,5.3,11.1,6.2c3,0.7,6.1-0.8,8.9-2.2c17.4-9.2,33.4-19.6,49.1-31.7c0.9-0.7,3.4-1.6,3.8-2.7c2.3-6-2.3-4.6-2.7-8
	c-0.2-1.5-1.2-10.1-0.5-11.5c3-6,7-3.8,10-9.8c1.8-3.6,0.8-11.3,7.8-8c3.8,1.8,4.7,7.7,3.7,11.8c-1.6,6.3-1,12.9,0.7,19.2
	c0.7,2.6-0.1,6.1,2.6,6c2-0.1,3.4-1.8,5.3-2.4c2.7-0.9,5.5,0.7,8.2,1.6c13,4.2,32.9-11.1,39.9,0.7c8.6,14.5,19,27,33.5,35.6
	c19.2,11.4,37.7,44.2,57.7,34.2c8.7-4.4,2.6-20.5,10.1-26.7c2.9-2.4,6.5-4,9.2-6.6c3.2-3.2,3.7-8.5,4.4-13.5"/>
<path fill="none" stroke="#E1E1E1" stroke-miterlimit="10" d="M72.8,363.7c0.1-1,0.1-2.1,0-3.1c-0.3-2.3-1-4.6-1-7
	c0.1-5.3,3.6-9.7,7-13.8c2.4-2.9,5-5.9,8.4-7.5c3.4-1.6,8-1.4,10.5,1.5c1.2,1.4,1.7,3.2,2.3,4.9c3.1,8.5,9.6,15.7,17.7,19.7
	c1.2,0.6,2.4,1.1,3.7,1.2c2,0.2,4-0.6,5.9-1.4c5.6-2.4,11.2-4.8,16.9-7.2c14.8-6.3,31.6-14.8,34.8-30.6c0.6-2.8,0.7-5.6,1.6-8.3
	c1.2-3.4,3.6-6.1,5.8-9c7.8-10,13-22,15.2-34.5c0.7-3.8,2.2-8.8,6.1-8.8c2,0,3.6,1.5,5.3,2.6c2.9,1.9,6.4,2.7,9.8,3.6
	c7.4,2.2,14.4,5.7,21.2,9.3c13.7,7.3,27.1,15.4,38.4,26c4.9,4.5,9.4,9.5,14.9,13.1c9.4,6.1,21.3,8.1,29.7,15.5c3,2.6,5.5,5.9,9,7.7
	c8.2,4.2,17.4-1,26.7-2.7"/>
<path fill="none" stroke="#E1E1E1" stroke-miterlimit="10" d="M361.8,351.9c-1.8,0-3.7-0.1-5.5-0.1c-1.9,0-3.9,0-5.6,0.8
	c-2.3,1.2-3.7,3.8-6.1,4.9c-2.3,1-5.1,0.3-7.3-1s-4.2-2.9-6.5-4c-1.4-0.7-2.9-1.1-4.3-1.7c-1.5-0.6-2.9-1.4-4.3-2.2
	c-6-3.4-12-6.9-18-10.3c-10.3-5.9-20.7-11.9-29.5-19.9c-5.4-4.9-10.4-10.6-17.3-12.8c-1.7-0.5-3.5-0.8-5.2-1.5
	c-3.6-1.3-6.4-4.1-9.4-6.4c-5.2-4-11.4-10.6-17.6-8.5c-7.7,2.5-3.4,15.8-1.3,23.6c1.2,4.4,8.9,1.4,13.2,2.6c6.2,1.8,9.4,8.6,15,11.9
	c3.5,2.1,7.8,2.6,11.3,4.8c5.7,3.6,8.5,11.1,14.9,13.2c1.2,0.4,2.4,0.6,3.5,1.1c1.9,1,3.1,3.1,4.9,4.4c3.1,2.2,7.3,1.5,11,2.3
	c3.9,0.9,7.2,3.4,10.3,5.9c1.1,0.8,2.1,1.7,3.2,2.5"/>
<path fill="none" stroke="#E1E1E1" stroke-miterlimit="10" d="M206,364.5c0.4-1.3,0.7-2.6,0.9-3.9c0.7-3.2,1.1-6.6,0.1-9.7
	c-1-3.1-3.6-5.9-6.9-6.2c-1.4-0.1-2.8,0.2-4.1-0.2c-3.3-1.2-3.9-6.7-7.4-7.1c-2.5-0.2-4.2,2.5-4.6,4.9c-0.4,2.4-0.2,5.1-1.7,7.2
	c-1.9,2.7-6,3.3-7.4,6.2c-0.4,0.8-0.5,1.7-1,2.4c-0.4,0.7-1.1,1.2-1.9,1.7c-2.2,1.3-4.7,1.8-7,2.7"/>
<path fill="none" stroke="#D6D6D6" stroke-miterlimit="10" d="M214.5,68.1c3,0.5,4.7,3.7,6.9,5.8c0.6,0.6,1.2,1.1,1.8,1.7
	c1.9,2,2.8,4.8,2.9,7.5c0.1,2.7-0.4,5.5-0.9,8.2c-0.5,2.4-0.9,4.8-1.4,7.2c-0.4,1.9-0.8,3.9-0.5,5.9c0.3,1.9,1.1,3.8,1.3,5.7
	c0.1,1.3-0.1,2.6,0.1,3.9c0.7,6,9.1,10.1,9.4,16.1"/>
<path fill="none" stroke="#D6D6D6" stroke-miterlimit="10" d="M117.7,248.2c0-0.6,0.9-0.9,1.3-1.4c0.6-0.8,1.6-1.4,1.7-2.2
	c0.1-1.7-0.6-3.6-1.8-4.9c-1.1-1.3-3.2-1.8-4.5-2.9c-3.4-2.9-6.4-6.3-10-9.4c-9.5-8.3-11.2-22.2-13.6-34.6c-1.1-5.8-1.4-12.3,0.1-18
	c1.9-7.4,5.8-12.7,7.5-20.2c1.9-8.3-2.4-16.9,0.1-25.1c1.4-4.6,5.9-9,9.1-12.5c4.1-4.4,8.4-8.7,13.6-11.6c5.3-2.8,11.8-3.9,17.3-1.7
	c3.9,1.5,6.9,4.5,10.5,6.6c3.6,2.1,8.4,3.2,11.8,0.8c2.9-2,3.9-6,6.7-8.2c3.2-2.5,8.7-2.8,9.6-6.7c0.3-1.2,0.9-2.2,1.6-3.3
	c1.3-2.2,2.6-4.4,3.3-6.9c0.7-2.8,0.6-5.8,1.7-8.5c1.3-3,4.3-5.2,7.5-5.6c1.4-0.2,2.9,0,4.3-0.5c1.3-0.5,2.3-1.6,3.3-2.7
	c2.1-2.4,4-5,5.7-7.7c0.2-0.3,0.4-0.7,0.8-0.9c0.7-0.4,1.5-0.1,2.2,0.2c2.3,0.9,5,0.7,7.4,1"/>
<path fill="none" stroke="#D6D6D6" stroke-miterlimit="10" d="M147.1,304.1c-0.8-2.8-1.1-5.3-2.2-7.6c-0.9-1.8-3.2-4.3-4.9-5.2
	c-2.9-1.6-6.4-0.5-7.5-3.6c-1-2.7-0.2-6.2-0.6-9c-0.3-2.2-2-4.2-1.9-6.4c0.2-3.3,3.9-5.2,5.1-8.2c0.9-2.3,0.2-4.9-0.5-7.3
	c-1.1-3.4-2.8-7.3-6.3-8.2c-2.2-0.5-4.5,0.3-6.6,1.2c-0.6,0.2-1.3,0.5-2,0.5"/>
<path fill="none" stroke="#D6D6D6" stroke-miterlimit="10" d="M153.2,315.5c0.2-0.5-1.4-2.6-3.2-4.6"/>
<path fill="#EAEAEA" stroke="#D6D6D6" stroke-miterlimit="10" d="M145.8,332.5c0.5-0.3,1-0.8,1.6-1c1.2-0.6,2.8-1.2,3.9-0.5
	c1,0.6,1.2,2.1,1.8,3.2c0.1,0.3,0.3,0.5,0.5,0.7c0.5,0.3,1.1,0.3,1.6,0s0.8-0.8,1.1-1.3c0.8-1.2,1.4-2.4,1.4-3.9
	c0-0.4-0.5-1.7-0.8-1.9c-1.6-1.5-3.8-3.8-3.4-4.8c0.6-1.6,3.5-0.4,4.9-1.3c1.2-0.7,1.9-2,1.7-3.4c-0.2-1.3-1.2-2.5-2.4-2.9
	c-0.7-0.2-1.5-0.2-2.2-0.1c-1.7,0.1-3.4,0.2-5.1,0.3c-0.9,0-1.7,0.1-2.6,0.3c-1.7,0.5-3.2,1.9-5,2.2c-1.1,0.2-2.3,0-3.5,0
	c-1.2,0-2.4,0.2-3.2,1.1c-0.5,0.5-0.7,1.2-0.9,1.9c-0.3,1.2-0.2,2.6-1,3.5c-0.5,0.5-1.4-1-2.1-1.3c-2.5-1.1-5.7-2-8.3-4.2
	c-0.6-0.5-1.4-0.8-2.1-1.2c-1.2-0.6-2.6-0.6-3.9-0.1c-1.2,0.5-2.3,1.3-3.2,2.3c-0.9,1-1.8,2.1-1.8,3.5c-0.1,1.4,0.7,2.7,0.4,4
	c-0.3,1.5-2.1,1.8-2.2,3.9c-0.1,0.9-0.1,2-0.8,2.5c-0.2,0.2-0.5,0.3-0.6,0.5c-0.1,0.2,0,2.3,0.1,2.6c0.6,1.8,3.7,2.8,6.4,4.1
	c1.4,0.7,2.8,1.4,4.3,2.1c0.5,0.3,1.1,0.5,1.7,0.4c0.9-0.1,1.5-1.1,2-1.9c1.1-1.8,2.7-3.5,4.8-3.8c2.2-0.3,4.6,1.1,6.6,0
	c0.7-0.4,1.1-0.9,1.7-1.4C139.8,334.4,143.2,334.2,145.8,332.5z"/>
<path fill="#7BBCEB" stroke="#4E9BD7" stroke-miterlimit="10" d="M186.4,152.9c0.5-0.4,0.6-1.4,1.3-1.3c0.4,0.1,0.5,0.5,0.5,0.8
	c0,0.4-0.2,0.7-0.1,1.1c0,0.9,1,1.5,1.9,1.5s1.7-0.5,2.5-0.9s1.6-0.8,2.5-0.7c0.1,0,0.3,0.1,0.4,0.2c0.2,0.2,0.2,0.5,0.2,0.8
	c-0.1,1.1,0.2,2.2,0.8,3.1c0.4,0.6,0.9,1.1,1.1,1.8c0.2,0.6,0,1.3-0.1,1.9c-0.2,0.8-0.4,1.6-0.8,2.2c-0.3,0.6-0.8,1-1.3,1.5
	c-1.2,1.1-2.4,2.3-3.8,3.1s-3.2,1.1-4.7,0.6c-0.6-0.2-1.2-0.6-1.8-0.8c-0.5-0.2-0.9-0.3-1.4-0.4c-1.5-0.5-2.6-1.6-3.4-3
	c-0.8-1.3-1.3-2.8-1.6-4.3c-0.2-0.7-0.3-1.5-0.1-2.3s0.7-1.5,1.5-1.6c0.7-0.1,1.4,0.2,2,0.1c1.6-0.2,2-2.5,3.5-3
	C185.6,153.1,186.1,153.1,186.4,152.9z"/>
<path fill="none" stroke="#4E9BD7" stroke-miterlimit="10" d="M197.5,158.7c1.8-0.8,3.8-3.2,4-3.7c0.8-1.6,1-4.4,1-4.7
	c0.5-9.7,0.2-19.5-2.2-28.9c-1.1-4.4-2.7-9.2-1.1-13.4c0.9-2.5,2.9-4.5,3.7-7c0.9-2.7,0.4-5.6,0.6-8.4c0.7-9,8.3-15.9,10.7-24.5
	c0.7-2.6,0.7-7,1.4-9.7c1.9-7.6,6.6-9.2,8.2-16.9c0.7-3.6,0.2-10.1,0.7-13.7c0.4-2.8,2.5-6.2,2.1-9c-0.4-3.4-1.3-6.5-2.8-9.5
	c-2.4-4.6-5.9-7.8-4.8-12.3"/>
<path fill="none" stroke="#D6D6D6" stroke-miterlimit="10" d="M24,60.8c1.1,0.2,2,1.1,3.5,1.2c0.7,0.1,1.6-0.2,2.2,0.3
	c0.1,0.1,0.3,0.3,0.4,0.3"/>
<path fill="none" stroke="#D6D6D6" stroke-miterlimit="10" d="M21.1,69c0.2,0.2,0.4,0.4,0.6,0.7"/>
<path fill="#EAEAEA" stroke="#D6D6D6" stroke-miterlimit="10" d="M23.9,73c0.8-0.6,0.7-1.9,0.6-2.9c-0.1-0.6-0.4-1.4-1-1.3
	c-0.2,0-0.4,0.1-0.5,0.2c-1.1,0.8-2,2-2.6,3.2c-0.2,0.4-0.3,0.7-0.3,1.1c0,0.4,0.3,0.8,0.7,0.9c0.5,0.1,1-0.3,1.5-0.6
	C22.9,73.4,23.5,73.3,23.9,73z"/>
<path fill="#EAEAEA" stroke="#D6D6D6" stroke-miterlimit="10" d="M45.5,59.8c-0.7-0.7-1.7-1-2.7-1.4c-1.6-0.6-2.7-0.2-4.4-0.4
	c-0.9-0.1-2.7,0.2-3.1,1c-0.2,0.3-0.1,0.7-0.2,1.1c-0.2,0.7-1,1.1-1.8,1.3c-0.8,0.2-1.6,0.2-2.2,0.6c-0.8,0.5-1.2,1.5-1.1,2.5
	s0.4,2.2,1.3,2.4c1.2,0.3,1.9,1.3,3.2,1.5c1,0.2,0.2-2.3,1.1-2.9c0.2-0.1,0.5-0.2,0.8-0.2c0.7-0.1,1.5,0,2.2,0c0.3,0,0.6,0.1,0.9,0
	c0.3-0.1,0.6-0.4,0.8-0.6c0.7-0.7,1.5-1.4,2.5-1.6c1-0.2,1.6,1.2,2.6,0.9C46.9,63.8,46.5,60.9,45.5,59.8z"/>
<path fill="#EAEAEA" stroke="#D6D6D6" stroke-miterlimit="10" d="M0.2,62.3c-0.1,0.2-0.2,0.5-0.4,0.6c-0.5,0.4-1.5,0.3-2.1,0.2
	c-1.1-0.2-1.7,0.6-1.7,1.7c0.1,1.1,0.8,2,1.7,2.8c0.2,0.2,0.4,0.4,0.6,0.5c0.4,0.1,0.7,0.1,1.1,0c2.8-0.3,5.7-0.4,8.6-0.2
	c0.8,0.1,1.5,0.1,2.2,0.4c1.5,0.6,2.2,1.3,4,1.8c1.4,0.3,0,3,0.6,4.3c0.5,1,2.1-0.3,2.3-1.4c0.3-1.1,0.3-2.4,1.3-2.9
	c0.5-0.3,1.2-0.3,1.8-0.6c0.7-0.4,1.7-1.4,2-2.1c1.1-3.1,1.5-6,1.7-9.2s-0.8-6.7-3.1-8.9c-0.2-0.2-0.3-0.3-0.6-0.4
	C19.5,48.5,18.9,50,18,50c-0.3,0-0.6-0.2-0.9-0.4c-2.1-1.2-4.9-0.4-7.1-1.5c-0.6-0.3-1.2-0.7-1.9-0.7c-0.5,0-0.9,0.2-1.4,0.5
	c-2.5,1.3-4.9,2.5-7.4,3.8c-0.7,0.4-1.5,0.8-1.9,1.5c-0.9,1.4,0,3.2,1,4.6S0.6,60.6,0.2,62.3z"/>
<path fill="none" stroke="#D6D6D6" stroke-miterlimit="10" d="M46.5,62.2c2.3,0.2,2.9-2.4,4.5-4c3.1-3.1,8.4-2.1,12.2-4.1
	c1-0.5,1.8-1.2,2.8-1.6c3-1.3,6.4-0.1,9.6,0.5c3.2,0.6,6.5,0.6,9.7,0.6c3.1,0,6.2,0,9.3-0.7c3-0.7,6-2.1,7.9-4.5
	c1.8-2.2,2.6-5,4.2-7.4c1.5-2.2,3.7-3.9,5.7-5.6c7.3-6.4,13-14.5,20.7-20.3c1.2-0.9,2.6-1.9,3.1-3.4c0.3-0.9,0.2-1.8,0.2-2.8
	c-0.1-3.4-0.4-7.1,0.8-10.3"/>
<path fill="#EAEAEA" stroke="#D6D6D6" stroke-miterlimit="10" d="M181.3,150c0.1,0.3,0.7,0.5,1,0.5c1,0.1,2.2-0.4,2.6-1.3
	c0.2-0.4,0-0.9-0.4-1.2c-0.3-0.3-0.8-0.4-1.2-0.5c-0.4-0.1-0.8-0.2-1.2-0.1C181.2,147.8,180.8,149.1,181.3,150z"/>
<path fill="#EAEAEA" stroke="#D6D6D6" stroke-miterlimit="10" d="M189,144.9c-0.1,0.4-0.2,0.9-0.1,1.3c0.1,0.4,0.5,0.9,0.9,0.7
	c0.7-0.3,2.6-2,2.3-3.3c0-0.1,0-0.2,0-0.2c-0.1-0.3-0.5-0.2-0.7,0c-0.2,0.2-0.4,0.6-0.6,0.6c-0.4-0.1-0.5-0.6-0.8-0.9
	c-0.1-0.1-0.2-0.2-0.3-0.1c-0.1,0-0.2,0.2-0.2,0.4C189.3,143.7,189.1,144.3,189,144.9z"/>
<path fill="#EAEAEA" stroke="#D6D6D6" stroke-miterlimit="10" d="M109.2,192.8c-0.1-0.4-0.7-0.5-1.1-0.5c-0.3,0-0.5,0.1-0.7,0.3
	c-1.9,1.8-2.3,4.1-2.6,6.7c-0.1,1-0.3,2-0.2,3.1c0,0.5,0,1.8,0.2,2.2c0.3,0.4,0.9,0.9,1.2,0.6c0.7-0.7,0.8-2.7,1.3-3.5
	c0.3-0.5,0.7-0.9,0.7-1.5c0-0.7-0.2-0.9-0.6-1.5c-0.4-0.6-0.5-2,0.2-2.2c0.8-0.2,1.3-0.3,1.5-1.1
	C109.3,194.7,109.3,193.6,109.2,192.8z"/>
<path fill="#EAEAEA" stroke="#D6D6D6" stroke-miterlimit="10" d="M120,251.3c0.3-0.6-0.4-1.5-1.1-2.2c-0.7-0.6-1.6-0.9-2.5-1.2
	c-2.7-0.9-6-2.3-7.4-1c-0.4,0.4,0.1,1,0.4,1.4c2.3,2.6,5.8,4.4,9.2,3.7C119.1,252,119.6,252,120,251.3z"/>
<path fill="#EAEAEA" stroke="#D6D6D6" stroke-miterlimit="10" d="M148.8,305c0.9,0.9,1.7,1.7,1.7,3c0,1-0.3,2.4-1.2,2.9
	c-0.9,0.5-2.3,0.1-3-0.6c-0.8-0.9-0.7-2.2-0.3-3.4c0.1-0.4,0.2-0.8,0.4-1.2c0.3-0.7,0.4-1.6,1.2-1.5
	C147.9,304.2,148.6,304.8,148.8,305z"/>
<path fill="#EAEAEA" stroke="#D6D6D6" stroke-miterlimit="10" d="M261.6,246c-0.7,0.4-1.4,0.8-2.1,1.2c-0.4,0.2-0.3,0.2-0.7,0.5
	c-1,0.8-1.5,2.2-1.3,3.5c0.1,0.4,0.2,0.7,0.5,1c0.6,0.5,0.9,0.5,1.6,0.7c0.7,0.3,1.1,1,1.5,1.6c0.4,0.6,1.3,1.5,1.8,1
	c1.4-1.3,1.4-3.6,2.1-5.4c0.3-0.7,0.6-1.5,0.5-2.3c-0.1-1.1-0.1-2.5-1-3.2C263.6,243.9,262.5,245.5,261.6,246z"/>
<path fill="#EAEAEA" stroke="#D6D6D6" stroke-miterlimit="10" d="M270.5,262.9c-0.4,0.4-1,0.5-1.6,0.5c-1-0.1-2.2-0.3-2.6-1.2
	c-0.4-0.8,0.6-1.8,1.4-2.2s2-0.9,2.7-0.4C271.4,260.2,271.3,262.1,270.5,262.9z"/>
<path fill="#EAEAEA" stroke="#D6D6D6" stroke-miterlimit="10" d="M276.2,247.2c-0.2,0.6-0.2,1.2-0.2,1.8c0,1.3-0.2,2.6-0.2,3.9
	c0,0.4,0,0.9-0.1,1.3c-0.4,1-1.9,1.3-2.7,0.6c-0.5-0.4-0.8-0.9-0.9-1.5c-0.2-1.5,1.2-2.8,1.5-4.3c0.1-0.9,0.3-2.3,0.2-3.2
	c-0.1-0.9,0-2,0.8-2.5c1-0.7,2.6,0.1,2.6,1.3C277.1,245.4,276.4,246.5,276.2,247.2z"/>
<path fill="none" stroke="#D6D6D6" stroke-miterlimit="10" d="M292.5-2c-1.2,3.5-2.4,7-3.6,10.9c-0.6,1.9-1.7,6.6-2.1,8.5
	c-1.2,6.2-4.3,11-6.8,16c-0.5,1-1.3,3.5-1.4,4.6c-0.6,4.7,3.4,8.3,5.5,12.5c2.7,5.5,3.6,11.9,7,17c1.2,1.8,2.6,3.3,3.7,5.1
	c2,3.2,2,6.4,1.5,10.2c-0.2,1.9,0,4.6,0.1,6.6c0.1,2.3,1.2,4.4,1.5,6.6c0.9,6.6-4.4,13.6-1.2,19.4c1.4,2.5,1.3,5.6,3.1,7.8
	c1.9,2.1,4.1,3.9,6,6c5.6,5.9,8.5,14.2,7.9,22.3c-0.1,1.9-0.5,3.8-0.2,5.7c0.2,1.6,0.9,3.1,1.6,4.6c1.2,2.7,2.4,5.4,3.8,8
	c2,3.7,4.5,7.2,6.6,11s3.7,7.8,3.8,12.1"/>
<path fill="none" stroke="#D6D6D6" stroke-miterlimit="10" d="M308.9,132.7c1.5,0.1,4.6,0,7.2,0.6c4.3,1,6.9,5.2,9,9
	c1,1.9,2.1,3.8,2.3,5.9c0.1,1.5-0.1,3-0.3,4.5c-1.3,10.2,2.3,20.4-0.4,30.3"/>
<path fill="#EAEAEA" stroke="#D6D6D6" stroke-miterlimit="10" d="M348.3,218.4c-0.7,1.7-3.5,1.4-4.3,3.1c-0.4,0.9,0.1,2.1-0.1,3.1
	c-0.2,1.2-1.1,2-2.2,2.5s-2.2,1.5-3.3,1.2c-2.1-0.7-1.1-3.5-6-2.8c-2.1,0.3-5,3.4-6,1.6c-0.5-0.8-0.9-1.7-0.9-2.6
	c0-1,1.2-1.5,2.1-1.6c1-0.1,2,0.2,2.9-0.2c1.8-0.8,1.9-3.3,1.6-5.2c-0.2-1.7-0.6-3.7-2.2-4.3c-0.5-0.2-1-0.2-1.4-0.4
	c-1-0.5-1.2-1.9-1-2.9c0.2-1.1,0.4-2.1,0.5-3.2s-0.3-2.4-1.4-2.4c-0.8,0-1.4,0.6-2,1.2c-1,1-1.6,3.8-2.9,3.1c-1.5-0.7,0.5-3.4,0.7-5
	c0.1-0.6,0.2-1.1,0.5-1.6c0.8-1.4,2.7-2,3.9-3c1.7-1.4,1.7-3.3,1.8-5.4c0-0.4,0.1-0.9,0.5-1.1c0.4-0.2,1,0.1,1.2,0.5
	c0.2,0.4,0.6,1.4,0.7,1.8c0.7,2.2,0.7,3.9,2.5,5.1c1.9,1.3,4.7,1.8,5.5,4c0.5,1.5,0,3.3,0.9,4.6c0.6,0.8,1.6,1,2.4,1.5
	c2.4,1.2,3.9,3.5,5.3,5.7C348.1,216.3,348.7,217.4,348.3,218.4z"/>
<path fill="#EAEAEA" stroke="#D6D6D6" stroke-miterlimit="10" d="M55.8,313c-0.5,1-1.5,1.9-1.3,2.9c0.2,0.8,1,1.3,1.5,1.9
	c0.2,0.2,0.4,0.5,0.6,0.7c0.8,0.9,2.4,0.7,3.2-0.2c0.6-0.8,0.6-1.9,0.9-2.8c0.2-0.5,0.5-0.9,0.7-1.4s0.3-1.1,0-1.6
	c-0.2-0.4-0.7-0.6-0.9-1c-0.2-0.3-0.3-0.7-0.5-1c-0.5-0.8-1.7-1.2-2.5-0.7C56.6,310.6,56.4,312,55.8,313z"/>
<path fill="#EAEAEA" stroke="#D6D6D6" stroke-miterlimit="10" d="M79,244c-0.4,0.2-0.6,0.4-0.9,0.7c-0.7,0.6-1.4,1.4-1.4,2.3
	c0,0.5,0.1,0.9,0.3,1.3c0.5,1,1.2,1.9,2,2.6c1,0.8,2.2,1.4,2.7,2.6c0.1,0.2,0.2,0.5,0.4,0.7c0.4,0.4,1.1,0.2,1.4-0.2
	c0.4-0.4,0.5-1,0.6-1.5c0.1-0.8,0.2-1.6,0-2.3c-0.1-0.4-0.3-0.7-0.4-1.1c-0.3-0.8-0.7-1.6-1-2.3c-0.3-0.8-0.7-1.6-1.3-2.2
	C80.7,244,79.7,243.6,79,244z"/>
<path fill="#EAEAEA" stroke="#D6D6D6" stroke-miterlimit="10" d="M352,310.5c0-0.4-0.1-0.8-0.3-1.2c-0.6-1-1.9-1.4-3-1
	c-1.1,0.4-1.9,1.3-2.4,2.3c-0.5,1-0.8,2.2-1.6,3c-0.3,0.2-0.6,0.4-0.8,0.7c-0.4,0.5-0.4,1.2-0.5,1.8c0,0.3,0,0.7,0,1
	c0.1,0.4,0.4,0.8,0.7,1.2c1.2,1.7,2.8,5,4.7,4c1.7-0.9,1.2-3.7,1.8-5.6c0.3-1,0.6-2,0.9-2.9C351.8,312.6,352.1,311.6,352,310.5z"/>
<path fill="#EAEAEA" stroke="#D6D6D6" stroke-miterlimit="10" d="M227.5,135.5c0.5-0.5,1.4-0.2,2.1-0.3c0.9,0,1.7-0.7,2.1-1.5
	c0.5-0.8,0.3-1.8,0.9-2.5c0.4-0.5,1.1-0.8,1.7-1.2c0.4-0.3,1,0,1.4,0.3c0.4,0.3,0.7,0.8,0.9,1.2c0.8,1.3,1.6,2.6,2.4,3.9
	c0.3,0.5,0.7,1.1,0.6,1.7c-0.1,0.5-0.4,0.9-0.7,1.2c-1,1.2-2.3,2.5-3.8,2.5c-1.4,0-2.5-1.1-3.9-1.2c-0.3,0-0.5,0-0.8,0
	c-1.8,0-3.4-1.7-3.2-3.5C227.2,136,227.3,135.7,227.5,135.5z"/>
<path fill="#FFFFFF" stroke="#D6D6D6" stroke-miterlimit="10" d="M121.2,330.8c-0.2-0.6-1.3-0.3-1.6,0.3c-0.4,0.5-0.8,1.3-0.4,1.8
	c0.4,0.6,1.4,1.3,2.1,0.9C122.1,333.2,121.6,331.7,121.2,330.8z"/>
<g>
	<g>
		<path fill="none" stroke="#585858" stroke-miterlimit="10" d="M241.8,363.3c0.3,0.6,0.5,1.3,0.8,1.9"/>
		<path fill="none" stroke="#585858" stroke-miterlimit="10" stroke-dasharray="3.0155,0.7539" d="M242.9,365.8
			c0.5,1.2,0.9,2.3,1.2,3.2"/>
		<path fill="none" stroke="#585858" stroke-miterlimit="10" d="M244.2,369.4c0.3,0.9,0.5,1.5,0.5,1.9"/>
	</g>
</g>
<g>
	<g>
		<path fill="none" stroke="#585858" stroke-miterlimit="10" d="M102.2-3c0,0.7,0,1.3,0.1,2"/>
		<path fill="none" stroke="#585858" stroke-miterlimit="10" stroke-dasharray="3.9947,0.9987" d="M102.4,0c0.1,1,0.3,1.9,0.5,2.9
			c0.1,0.4,0.2,0.9,0.5,1.2c0.6,0.7,1.8,0.5,2.6,0c0.8-0.5,1.4-1.3,2.1-1.8c1.7-1.2,4.2-1.1,5.8,0.2c1.6,1.3,2.3,3.7,1.6,5.7
			c-0.4,1.2-1.1,2.2-1.6,3.3c-1.5,3.2-0.9,7.1-2,10.5c-1.3,4.2-5.1,7.6-5.2,12c0,2.4,1,4.7,0.8,7.1c-0.2,1.8-1.1,3.7-0.4,5.3
			c0.5,1.1,1.5,1.8,2.1,2.8c1.4,2.5-0.4,5.6-0.3,8.4c0.1,3.8,3.6,6.5,4.7,10.1c1.8,5.9-3.2,11.9-2.5,18c0.1,1.3,0.6,2.7,0.5,4
			c0,0.9-0.2,1.7-0.5,2.6c-1,3.3-3.4,6-4.6,9.1c-1.4,3.4-2.9,6.7-4.8,9.8c-2.4,4-4.1,8.4-4.9,13c-0.4,2.2-0.6,4.4,0.2,6.5
			c0.5,1.2,1.3,2.3,1.9,3.5c0.9,2,1.2,4.2,1.4,6.4c0.5,4.3,1,8.6,0.4,12.9c-0.3,2.1-0.9,4.3-0.8,6.4c0.1,1.2,0.4,2.4,0.5,3.6
			c1.2,8.2-2.9,16.3-3.4,24.6c-0.2,3.7,0.2,7.7-1.9,10.7c-0.5,0.7-1.1,1.3-1.6,2.1c-1.2,1.9,0.2,4.6-0.9,6.5c-1.1,1.9-4.3,1-6.2,0
			c-0.7-0.3-1.3-0.8-2-0.9s-1.6,0.2-1.7,0.9c-0.1,0.3,0,0.6,0.1,1c0.6,2.2,2.3,4.4,1.8,6.6c-0.6,2.6-2.8,4.6-2.8,7.3
			c0,1.6,0.2,3.3-0.5,4.8c-0.6,1.5-1.9,2.7-2.1,4.2c-0.4,3.1,3.6,5.6,2.9,8.6c-0.4,1.8-2.6,2-4.2,2.7c-1,0.5-1.8,1.7-2.8,2.2
			c-0.7,0.3-1.5,0.7-2.2,0.4c-0.7-0.3-1-1.1-1.4-1.8c-0.4-0.7-1.2-1.3-1.9-1c-0.6,0.2-1,1.2-1.6,0.9c-0.8-0.4-0.7-1.7-1.5-2.1
			c-2.2-1.1-3.8,3.3-4.2,5.7s0,5,0.4,7.4c0.1,0.8,0.3,1.6,0.7,2.2c0.5,0.8,1.4,1.3,2,2c0.7,0.9,0.8,2.3,0.2,3.3
			c-0.4,0.7-1,1.5-0.5,2.1c0.3,0.4,0.7,0.4,1.2,0.5c3.7,0.9,4.5,6.3,8,7.8c0.8,0.3,1.6,0.4,2.4,0.8c0.7,0.4,1.2,0.9,1.7,1.5
			c1.4,1.7,2.7,3.6,3.7,5.6c0.8,1.5,2,2.6,3.4,3.7c1.5,1.1,2.8,2.2,4.6,2.3c1.8,0.1,3.7-0.1,5.3,0.9c1.6,1,2.6,3.1,4.4,3.4
			c1.3,0.2,2.8-0.6,4,0.2c0.5,0.3,0.7,0.8,1,1.3c1.8,3.4,3.6,6.8,5.4,10.2c0.9,1.8,2.1,3.7,4,4.4c0.9,0.3,1.9,0.3,2.7,0.6
			c1,0.4,1.7,1.4,2.4,2.2c2.9,3.6,6.9,6.3,11.3,7.7c0.7,0.2,1.5,0.5,2.3,0.3c0.7-0.1,1.3-0.5,1.9-0.8c2.1-1,4.6-0.9,7-1
			c4.9-0.4,8.7-4.5,13.5-5.5c1-0.2,2.5-0.3,3.2-1.1c0.7-0.8,1.2-1.8,2-2.5c2-2,5.5,0,7.9-1.4c1.1-0.6,1.4-2.2,2.7-2.5
			c1.2-0.3,3-0.3,3.3-1.5c0.2-0.7-0.2-1.3-0.4-2c-0.3-1.6,0.9-3.2,2.4-3.6c1.6-0.4,3.2,0.2,4.5,1.2c1.3,1,2.2,2.4,3,3.8
			c0.4,0.6,1,1.3,1.7,1.1c0.4-0.2,0.7-1,1.1-0.7c0.8,0.6,0.6,1.9,1.1,2.8c0.1,0.2,0.3,0.4,0.5,0.4c0.2,0,0.4-0.2,0.5-0.3
			c0.5-0.6,0.7-2,1.5-1.9c1.1,0.2,0.7,2.2,1.1,3.2c0.1,0.3,0.2,0.7,0.5,1c0.3,0.4,0.7,0.6,1.2,0.8c1.8,0.8,3.6,1.4,5.6,1.6
			c0.5,0.1,1,0.1,1.5,0.3c0.3,0.2,0.6,0.4,0.9,0.6c0.8,0.6,1.6,1.3,2.4,1.9c0.2,0.2,0.4,0.4,0.6,0.6c0.1,0.3,0.1,0.6,0,0.9
			c-0.7,3.8-2,11.7-1.3,11.9c3.9,1.1,8.3-0.3,12.6,0.9c0.7,0.2,8.5,2.6,11.1,4.9c1.5,1.4,9.8,18.7,14.8,30.4"/>
		<path fill="none" stroke="#585858" stroke-miterlimit="10" d="M241.1,361.5c0.3,0.6,0.5,1.2,0.8,1.8"/>
	</g>
</g>
<g>
	<g>
		<path fill="none" stroke="#585858" stroke-miterlimit="10" d="M-1.3,263.7c0.6,0.2,1.3,0.3,1.9,0.5"/>
		<path fill="none" stroke="#585858" stroke-miterlimit="10" stroke-dasharray="3.9181,0.9795" d="M1.6,264.3
			c0.7,0.1,1.5,0.2,2.2,0.2c2.1,0.1,4.3-0.1,6.3,0.7c1,0.4,1.9,0.9,2.8,1.5c2,1.3,3.7,4.3,6,4c1.3-0.2-1.1-3-0.1-3.9
			c1.5-1.2,3.6,1.5,5.6,1.2c0.9-0.1,1.8-0.4,2.8-0.5c2.1-0.2,4.1,0.8,6.2,0.7c1.3-0.1,2.5-0.5,3.8-0.3c1.1,0.2,2,0.9,3.1,1.4
			c3.4,1.4,7.2-0.3,10.8-0.4c0.6,0,1.3,0,1.9,0.3c0.4,0.2,0.8,0.6,1,1c1.3,1.8,2.2,3.9,2.4,6.1c0.1,0.6,0.1,1.3,0.6,1.8
			c0.9,0.9,2.3,0.2,3.3-0.6c1.2-0.9,2.3-1.7,3.5-2.6c0.6-0.4,1.3-0.9,2-1c2.2-0.2,3.1,3,5.1,3.9c1.5,0.6,3.1-0.1,4.7-0.5
			c0.7-0.2,1.5-0.2,2.2-0.1"/>
		<path fill="none" stroke="#585858" stroke-miterlimit="10" d="M78.3,277.2c0.7,0.1,1.4,0.4,1.9,0.6"/>
	</g>
</g>
<g>
	<path fill="none" stroke="#585858" stroke-miterlimit="10" stroke-dasharray="3.431" d="M-4.5,262.5c1,0.5,2.1,0.9,3.2,1.2"/>
</g>
<text transform="matrix(1 0 0 1 63.5225 315.9984)"><tspan x="0" y="0" fill="#585858" font-family="'Verdana-Italic'" font-size="8">Buena Vista</tspan><tspan x="29.1" y="9.6" fill="#585858" font-family="'Verdana-Italic'" font-size="8">Lake</tspan></text>
<line fill="none" x1="163.6" y1="255.9" x2="284.9" y2="339.2"/>
<text transform="matrix(0.8269 0.568 -0.5662 0.8243 225.6195 298.4575)" fill="#585858" font-family="'Verdana-Italic'" font-size="8">B</text>
<text transform="matrix(0.8269 0.568 -0.5662 0.8243 230.1506 301.5702)" fill="#585858" font-family="'Verdana-Italic'" font-size="8">u</text>
<text transform="matrix(0.8269 0.568 -0.5662 0.8243 234.3312 304.4417)" fill="#585858" font-family="'Verdana-Italic'" font-size="8">e</text>
<text transform="matrix(0.8269 0.568 -0.5662 0.8243 238.2811 307.1555)" fill="#585858" font-family="'Verdana-Italic'" font-size="8">n</text>
<text transform="matrix(0.8269 0.568 -0.5662 0.8243 242.4775 310.0374)" fill="#585858" font-family="'Verdana-Italic'" font-size="8">a</text>
<text transform="matrix(0.8269 0.568 -0.5662 0.8243 246.4334 312.7549)" fill="#585858" font-family="'Verdana-Italic'" font-size="8"> </text>
<text transform="matrix(0.8269 0.568 -0.5662 0.8243 248.7707 314.3602)" fill="#585858" font-family="'Verdana-Italic'" font-size="8">V</text>
<text transform="matrix(0.8269 0.568 -0.5662 0.8243 253.283 317.4597)" fill="#585858" font-family="'Verdana-Italic'" font-size="8">i</text>
<text transform="matrix(0.8269 0.568 -0.5662 0.8243 255.0995 318.7058)" fill="#585858" font-family="'Verdana-Italic'" font-size="8">s</text>
<text transform="matrix(0.8269 0.568 -0.5662 0.8243 258.5357 321.0673)" fill="#585858" font-family="'Verdana-Italic'" font-size="8">t</text>
<text transform="matrix(0.8269 0.568 -0.5662 0.8243 261.1561 322.8673)" fill="#585858" font-family="'Verdana-Italic'" font-size="8">a</text>
<text transform="matrix(0.8269 0.568 -0.5662 0.8243 265.1318 325.5981)" fill="#585858" font-family="'Verdana-Italic'" font-size="8"> </text>
<text transform="matrix(0.8269 0.568 -0.5662 0.8243 267.4562 327.1949)" fill="#585858" font-family="'Verdana-Italic'" font-size="8">C</text>
<text transform="matrix(0.8269 0.568 -0.5662 0.8243 272.0754 330.3684)" fill="#585858" font-family="'Verdana-Italic'" font-size="8">r</text>
<text transform="matrix(0.8269 0.568 -0.5662 0.8243 274.8997 332.308)" fill="#585858" font-family="'Verdana-Italic'" font-size="8">e</text>
<text transform="matrix(0.8269 0.568 -0.5662 0.8243 278.8596 335.0275)" fill="#585858" font-family="'Verdana-Italic'" font-size="8">s</text>
<text transform="matrix(0.827 0.568 -0.5661 0.8243 282.2967 337.3879)" fill="#585858" font-family="'Verdana-Italic'" font-size="8">t</text>
<text transform="matrix(1 0 0 1 3.2436 34.1682)"><tspan x="0" y="0" fill="#585858" font-family="'Verdana-Italic'" font-size="8">Hart Lakes</tspan><tspan x="0" y="9.6" fill="#585858" font-family="'Verdana-Italic'" font-size="8">(upper)</tspan></text>
<text transform="matrix(1 0 0 1 40.4544 73.7709)"><tspan x="0" y="0" fill="#585858" font-family="'Verdana-Italic'" font-size="8">Hart Lakes</tspan><tspan x="0" y="9.6" fill="#585858" font-family="'Verdana-Italic'" font-size="8">(lower)</tspan></text>
<text transform="matrix(1.0159 0 0 1 149.3062 157.3983)"><tspan x="0" y="0" fill="#7BBCEB" font-family="'Verdana-Italic'" font-size="8">Windy</tspan><tspan x="6.2" y="9.6" fill="#7BBCEB" font-family="'Verdana-Italic'" font-size="8">Lake</tspan></text>
<text transform="matrix(-5.352874e-02 -0.9986 0.9986 -5.352874e-02 87.9209 201.2027)" fill="#585858" font-family="'Verdana-Italic'" font-size="8">Buena</text>
<text transform="matrix(0.902 -0.4318 0.4318 0.902 111.9548 106.8499)" fill="#585858" font-family="'Verdana-Italic'" font-size="8">Vista</text>
<text transform="matrix(0.7715 -0.6362 0.6362 0.7715 187.0886 71.1781)" fill="#585858" font-family="'Verdana-Italic'" font-size="8">Creek</text>
<path fill="none" d="M57.5,17.7c2.9,1,4.4,4.1,5.6,6.9c2.8,6.5,5.7,12.9,8.5,19.4c0.6,1.4,1.2,2.8,1.2,4.4"/>
<text transform="matrix(0.4019 0.9157 -0.9157 0.4019 60.9357 25.9208)"><tspan x="0" y="0" fill="#7D7D7D" font-family="'Verdana-Italic'" font-size="7">8</tspan><tspan x="4.4" y="0" fill="#7D7D7D" font-family="'Verdana-Italic'" font-size="7">6</tspan><tspan x="8.9" y="0" fill="#7D7D7D" font-family="'Verdana-Italic'" font-size="7">0</tspan><tspan x="13.4" y="0" fill="#7D7D7D" font-family="'Verdana-Italic'" font-size="7" rotate="0">0</tspan></text>
<path fill="none" d="M311.5,28.6c3.9,2,8.6,1.2,12.9,0c8-2.2,15.8-5.8,21.8-11.6"/>
<text transform="matrix(0.9727 -0.232 0.232 0.9727 321.0685 32.058)"><tspan x="0" y="0" fill="#7D7D7D" font-family="'Verdana-Italic'" font-size="7">8</tspan><tspan x="4.6" y="0" fill="#7D7D7D" font-family="'Verdana-Italic'" font-size="7" rotate="-4.3">2</tspan><tspan x="9.2" y="-0.4" fill="#7D7D7D" font-family="'Verdana-Italic'" font-size="7" rotate="-8.2">0</tspan><tspan x="13.9" y="-1" fill="#7D7D7D" font-family="'Verdana-Italic'" font-size="7" rotate="-12.7">0</tspan></text>
<path fill="none" d="M148.7,128c7.2,4.5,17.5,0.5,25-3.6c3.6-1.9,8.8-7.1,11.2-3.8"/>
<text transform="matrix(0.9956 -9.355364e-02 9.355364e-02 0.9956 156.112 132.641)"><tspan x="0" y="0" fill="#7D7D7D" font-family="'Verdana-Italic'" font-size="7">8</tspan><tspan x="4.9" y="-0.1" fill="#7D7D7D" font-family="'Verdana-Italic'" font-size="7" rotate="-9.4">4</tspan><tspan x="9.5" y="-0.9" fill="#7D7D7D" font-family="'Verdana-Italic'" font-size="7" rotate="-15.8">0</tspan><tspan x="14" y="-2.2" fill="#7D7D7D" font-family="'Verdana-Italic'" font-size="7" rotate="-20.4">0</tspan></text>
<path fill="none" d="M219,229c8.5,4.5,19.5,3.7,27.4-1.8c4.3-3,10.9-12.9,15-16.2"/>
<text transform="matrix(0.9658 -0.2595 0.2595 0.9658 236.7795 233.9769)"><tspan x="0" y="0" fill="#7D7D7D" font-family="'Verdana-Italic'" font-size="7">8</tspan><tspan x="4.9" y="0" fill="#7D7D7D" font-family="'Verdana-Italic'" font-size="7" rotate="-9.4">8</tspan><tspan x="9.7" y="-0.9" fill="#7D7D7D" font-family="'Verdana-Italic'" font-size="7" rotate="-19.1">0</tspan><tspan x="14.4" y="-2.7" fill="#7D7D7D" font-family="'Verdana-Italic'" font-size="7" rotate="-31.7">0</tspan></text>
<path fill="none" d="M33.7,348c-2.2-2.4-3.1-5.8-3.7-9c-2-9.4-3.1-20.7,4.2-27"/>
<text transform="matrix(-2.090377e-03 -1 1 -2.090377e-03 31.0407 329.267)"><tspan x="0" y="0" fill="#7D7D7D" font-family="'Verdana-Italic'" font-size="7">9</tspan><tspan x="4.1" y="0" fill="#7D7D7D" font-family="'Verdana-Italic'" font-size="7" rotate="8.4">0</tspan><tspan x="8" y="0.4" fill="#7D7D7D" font-family="'Verdana-Italic'" font-size="7" rotate="20.4">0</tspan><tspan x="11.6" y="1.7" fill="#7D7D7D" font-family="'Verdana-Italic'" font-size="7" rotate="36.5">0</tspan></text>
<path fill="none" d="M297.3,314.6c9.4,6.1,21.3,8.1,29.7,15.5c3,2.6,5.5,5.9,9,7.7"/>
<text transform="matrix(0.9231 0.3844 -0.3844 0.9231 308.9641 323.1615)"><tspan x="0" y="0" fill="#7D7D7D" font-family="'Verdana-Italic'" font-size="7">9</tspan><tspan x="4.4" y="0" fill="#7D7D7D" font-family="'Verdana-Italic'" font-size="7" rotate="1.8">2</tspan><tspan x="8.6" y="0.1" fill="#7D7D7D" font-family="'Verdana-Italic'" font-size="7" rotate="5.7">0</tspan><tspan x="12.8" y="0.5" fill="#7D7D7D" font-family="'Verdana-Italic'" font-size="7" rotate="11.8">0</tspan></text>
<g>
	<g>
		<polyline fill="none" stroke="#7D7D7D" stroke-miterlimit="10" points="85.2,341.6 85.2,348.7 275.4,348.7 275.4,341.7 		"/>
		<line fill="none" stroke="#7D7D7D" stroke-miterlimit="10" x1="180.5" y1="341.4" x2="180.5" y2="348.7"/>
		<line fill="none" stroke="#7D7D7D" stroke-miterlimit="10" x1="161.2" y1="349.2" x2="161.2" y2="343.7"/>
		<line fill="none" stroke="#7D7D7D" stroke-miterlimit="10" x1="142.4" y1="349.2" x2="142.4" y2="343.7"/>
		<line fill="none" stroke="#7D7D7D" stroke-miterlimit="10" x1="123.3" y1="349.2" x2="123.3" y2="343.5"/>
		<line fill="none" stroke="#7D7D7D" stroke-miterlimit="10" x1="104.6" y1="349.2" x2="104.6" y2="343.7"/>
	</g>
	<text transform="matrix(1 0 0 1 83.7835 339.1468)" fill="#7D7D7D" font-family="'Verdana'" font-size="8">0</text>
	<text transform="matrix(1 0 0 1 174.2946 339.1468)" fill="#7D7D7D" font-family="'Verdana'" font-size="8">0.5</text>
	<text transform="matrix(1 0 0 1 258.3415 339.1468)" fill="#7D7D7D" font-family="'Verdana'" font-size="8">1 mi</text>
</g>
</svg>
