<?xml version="1.0" encoding="utf-8"?>
<!-- Generator: Adobe Illustrator 17.1.0, SVG Export Plug-In . SVG Version: 6.00 Build 0)  -->
<!DOCTYPE svg PUBLIC "-//W3C//DTD SVG 1.1//EN" "http://www.w3.org/Graphics/SVG/1.1/DTD/svg11.dtd">
<svg version="1.1" id="Layer_1" xmlns="http://www.w3.org/2000/svg" xmlns:xlink="http://www.w3.org/1999/xlink" x="0px" y="0px"
	 viewBox="0 0 360 360" enable-background="new 0 0 360 360" xml:space="preserve">
<path fill="none" stroke="#E1E1E1" stroke-miterlimit="10" d="M291.6,364.6c1.2-3.5,2.6-6.9,4-10.3c1.8-4.5,3.7-9.1,5.5-13.6
	c0.2-0.5,0.4-1,0.9-1.4c0.5-0.4,1.1-0.5,1.7-0.7c2-0.7,3.4-2.6,4.9-4c1.6-1.4,4.2-2.4,5.8-0.9c0.8,0.7,1.3,2,2.4,2.1
	c0.6,0.1,1.1-0.2,1.6-0.5c2.4-1.4,4.7-2.9,6.9-4.5c3.6-2.7,7.7-3.1,12-4.5c10.4-3.4,14.2-16.7,23.5-22.5c0.4-0.3,0.9-0.5,1.3-0.8"/>
<path fill="none" stroke="#E1E1E1" stroke-miterlimit="10" d="M267.8,365.2c3-4.4,5.7-9,8.5-13.5c4.8-7.9,9.5-15.7,14.3-23.6
	c3.2-5.3,5.9-13.9,12.2-13.9c1.7,0,3.2-0.4,4.5-1.4c10.2-8.7,20.5-17.4,30.7-26.1c3.2-2.7,6.4-5.4,8.9-8.7c2.9-3.7,4.8-8,7.6-11.8
	c2.2-3,4.9-5.5,7.6-8.1"/>
<path fill="none" stroke="#E1E1E1" stroke-miterlimit="10" d="M253.1,365c4.7-5.2,8.8-11.1,12.8-17c6.3-9.2,12.7-18.5,19-27.7
	c3.1-4.5,6.2-9,10.4-12.5c6.8-5.7,15.8-8.2,22.9-13.5c6.6-4.9,11.2-11.9,15.9-18.6c8.6-12.4,17.7-24.6,28.3-35.3"/>
<path fill="none" stroke="#E1E1E1" stroke-miterlimit="10" d="M-2.8,303.5c4.3-3.4,7.9-7.4,11.6-11.4c2.3-2.6,4.7-5.1,7-7.7
	c1.1-1.2,2.1-2.3,3-3.6c0.9-1.2,1.6-2.5,2.4-3.8c4-6.2,10.4-10.5,16.8-14.3c0.7-0.4,1.5-0.9,2.4-0.9c2.2,0,3.2,2.8,3.7,4.9
	c1.9,7.6,6.2,14.4,10.4,21c0.9,1.5,1.9,3,3.3,4c2.7,2,6.4,1.9,9.7,2.4c6.6,1,12.4,4.8,18.3,8c5.1,2.7,10.3,5.1,15.5,7.5
	c1.5,0.7,3,1.3,4.4,2c2.7,1.2,5.4,2.4,8.1,3.7c11.4,5.1,22.8,10.3,34.9,13.1c11.8,2.8,26.1,0.6,35.6,8.3
	c8.5,6.9,13.5,17.7,13.4,28.6"/>
<path fill="none" stroke="#E1E1E1" stroke-miterlimit="10" d="M364.1,122.2c-0.7,0.5-1.4,0.9-2.3,1.2c-2.9,1.2-6.1-1.1-9.2-0.5
	c-1.8,0.3-3.8,0.8-4.8,2.4c-0.2,0.3-0.3,0.6-0.6,0.8c-0.3,0.2-0.7,0.1-1.1,0c-2-0.5-4.3-1.4-5.8-0.1c-0.5,0.5-1,1.2-1.7,1.3
	c-1.3,0.1-0.8-1.9-1.6-2.9c-1.4-1.7-4.3-1.2-6.1-2.5c-0.5-0.3-1.1,0.1-1.4,0.5c-0.3,0.5-0.5,1-0.9,1.4c-0.7,0.5-1.8,0-2.2-0.7
	c-0.5-0.7,0.1-1.9-0.5-2.5c-0.8-0.9-2.4,0.6-3.2,1.6c-0.8,0.9-1.4,2.1-2.4,2.9c-1.3,1.2-3.2,1.7-5,1.2c-1.7-0.4-3.2-1.7-3.9-3.4
	c-0.5-1.2-0.5-2.5-1-3.6s-1.7-2.2-2.9-1.9c-1,0.3-1.5,1.3-1.7,2.3c-0.7,3.3,1.5,6.5,3.5,9.3c0.6,0.8,1.3,1.8,1.3,2.8
	c0.1,1.1-0.6,2.3-1.6,2.8c-1,0.5-2.4,0.3-3.2-0.5c-0.4-0.4-0.7-0.9-1.1-1.2c-1.2-0.9-2.9-0.2-4.3-0.5c-2.1-0.4-3.1-2.7-4.7-4.1
	c-2.2-2-5.6-3.9-8.3-2.6c-1.5,0.7-3.1,0.3-4.4,1.4c-1.2,1,0.1,4.6-1.4,4.9c-3.5,0.8-7.1,1.5-10.2,3.4c-3.1,1.9-5.6,5-5.7,8.6
	c-0.1,4,2.6,7.4,5.1,10.4c4.2,5.1,8.5,10.1,12.7,15.2c2.6,3.1,5.3,6.5,5.6,10.5c0.2,3.4-1.2,7.2,0.9,9.9c0.6,0.8,1.5,1.4,2.2,2.1
	c2.6,2.9,1.5,7.4,0.2,11.1c-1.6,4.7-1.3,10.4-4.7,14c-5.9,6.1-16,5.9-24,8.9c-6.1,2.2-12.6,4.5-18.9,2.9c-1.8-0.5-3.6-1.3-5.5-1.1
	s-1.7,2.5-3,3.8c-3.5,3.4-9.4,0.7-14.1,2.2c-4.7,1.6-9.7,2-14.6,2.5c-3.1,0.3-7.3,3.3-9.3,0.9c-0.4-0.5,0.9-1.2,0.6-1.7
	c-2.7-3.9-9.4,1.9-12.7,5.3c-0.6,0.6-1.2,1.3-2,1.7c-0.9,0.5-2,0.6-3,1c-2.1,0.8-3.5,2.9-5.6,3.9s-2.8-1.7-4.9-2.4
	c-1.8-0.5-3.3,1.7-4.8,0.6s-2.4-2.8-3.8-4.1c-2.9-2.6-7.9-2.5-10.7,0.2c-0.7,0.7-1.2,1.4-2,1.9c-1.7,1-3.9,0.1-5.8-0.5
	c-4.6-1.4-9.5-1.1-14.3-0.8c-4.1,0.3-8.5,0.6-11.9,3c-1.7,1.2-3,2.7-4.7,4c-5.8,4.4-14.3,3.1-19.9-1.6c-1.5-1.3-3-2.5-4.5-3.8
	c-1.9-1.6-2.4-3.8-3.3-6.1c-1.1-2.7-5.3,1.7-8.2,1.8c-3.6,0.2-6.2-4.6-9.8-4.2c-3.7,0.4-7.1,2.4-10.1,0.2c-2.7-2.1-2.4-5.9-2.7-9.3
	s-0.6-7,1.4-9.8c1.7-2.3,5-4.9,3.7-7.4c-1.4-2.6-5.2-2.9-8.2-2.9c-2.8,0-5.7,0.6-8.3,1.5c-2.9,1-5.7,2.6-8.4,4.1
	c-5.1,2.9-10.1,6-15,9.2c-7.2,4.8-14.2,9.9-20.2,16.1c-0.9,0.9-1.7,1.8-2.5,2.8"/>
<path fill="none" stroke="#E1E1E1" stroke-miterlimit="10" d="M265.9-0.4c4.5,7.2,11.6,13.1,18.3,18.5c9.8,7.9,19.6,15.7,30.6,21.8
	c3.2,1.8,6.5,3.4,10,4.6c4.3,1.6,8.8,2.7,13.1,4.4c6.5,2.6,12.3,6.6,18.4,9.9c2,1.1,4.6,0.4,6.7,1"/>
<path fill="none" stroke="#E1E1E1" stroke-miterlimit="10" d="M21.8,295.3c0.1,0.8,0.4,1.6,0.6,2.4c0.4,1.6,0.5,3.3,0.3,4.9
	c0,0.3-0.1,0.6,0.1,0.9c0.2,0.2,0.4,0.2,0.6,0.4c0.7,0.4,0.5,1.6,1.2,2.1c0.7,0.5,1.7-0.2,1.9-1s-0.1-1.7-0.3-2.5
	c-0.2-0.8-0.2-1.6-0.1-2.3c0.1-0.6,0.2-1.2,0.2-1.7c0-0.7-0.2-1.3-0.3-1.9c-0.1-0.6-0.3-1.2-0.4-1.8c-0.6-2.6-1.3-5.2-2.4-7.5
	c-0.2-0.3-0.3-0.6-0.7-0.7c-0.5-0.2-1,0.4-1.1,1c0,0.5,0.2,1.1,0.4,1.6C22.4,290.9,21.5,293.1,21.8,295.3z"/>
<path fill="none" stroke="#E1E1E1" stroke-miterlimit="10" d="M362.7,17.3c-2.3,1.9-4.7,3.9-7.5,5c-2.5,0.9-5.1,1.1-7.6,1.8
	c-1.6,0.5-3.1,1.2-4.7,1.5c-3.2,0.6-6.4-0.2-9.5-1.3c-14.9-5.5-26.5-17.1-39.8-25.8"/>
<path fill="none" stroke="#E1E1E1" stroke-miterlimit="10" d="M302.8-0.7c1.7,2.1,4.9,1.9,6.9,3.7c3.5,3,7.6,5.3,11.9,7.1
	c5.9,2.4,12.1,3.9,18.5,4.4c1.7,0.1,3.4,0.2,5.1-0.2c1.9-0.5,3.6-1.6,5.4-2.3c3.8-1.5,8.4-1.5,11.2-4.5c0.5-0.5,0.8-1.1,1.2-1.7"/>
<path fill="none" stroke="#E1E1E1" stroke-miterlimit="10" d="M347.5-0.9c-4.9,4-10.5,7.7-16.8,7.3c-1.8-0.1-3.9-0.5-5.3,0.7
	c-0.3,0.2-0.5,0.5-0.8,0.6c-0.8,0.1-1.2-0.9-1.8-1.3c-0.6-0.4-1.5-0.2-2.2-0.4c-1.4-0.3-2.1-1.7-2.7-3c-0.7-1.2-2.2-1.2-3.2-2.3
	c-0.5-0.6-0.6-1.3-0.5-2.1"/>
<path fill="none" stroke="#E1E1E1" stroke-miterlimit="10" d="M-1.9,315.3c11.6-0.3,25.3,7.1,34.8,0.5c2.5-1.7,2.3-5.7,4.6-7.6
	c2.3-1.9,5.8-2.5,8.4-1c1,0.6,1.8,1.6,2.9,2.1c3.5,1.8,6.1-5,10-4.5c1.4,0.2,0.6,3.3,1.9,3.8c7.7,3.4,13.5,10.2,21.9,10.4
	c2,0,4-0.7,6-0.6c5.3,0.2,8.9,5.3,13.5,7.8c3.1,1.6,6.7,2.1,10.1,3.1c3.7,1.1,7.1,3,10.5,4.9c6.5,3.6,16.9,9.7,19.5,10.7
	c3.1,1.1,14.7,2.3,21.4,4c3.2,0.8,6.7,2,8.7,4.7c2.2,2.9,2.1,7,1.2,10.6c0,0.2-0.1,0.4-0.1,0.5"/>
<path fill="none" stroke="#E1E1E1" stroke-miterlimit="10" d="M252.7-0.3c0.7,3.4,1.4,6.8,3,10c3.9,7.9,12.1,12.5,19.3,17.6
	c23,16.1,40.4,40.5,66.3,51.3c4.6,1.9,7.7,5.3,8.9,10.2c1,3.9,9.3,7.9,6,10.2c-1.7,1.2-4.1,0-5.6,1.5c-1.4,1.6-2.4,3.5-4.1,4.7
	c-1.4,0.9-3,1.2-4.7,1.5c-14.7,2.4-29.9-3.8-44.5-0.8c-4.7,1-4,11.7-8.8,11.3c-2.4-0.2-3.8-2.4-6.2-1.8c-7.3,1.8-17.6,4.7-24.9,6.5
	c-1.4,0.3-14.3-0.5-15.5,0.2c-9,5.8-8.3,0.1-17.8,5.2c-1,0.5-1.9,1.1-2.7,1.8c-1.6,1.5-0.6,4.7-1.2,6.8c-0.9,2.7-2.8,7.6-2.5,10.5
	c0.3,2.8,4.3,1.9,6,4.2c2.4,3.2-0.8,8-1.2,12c-0.1,0.8-0.2,1.7-0.7,2.3c-0.5,0.6-1.3,0.8-2.1,1c-2.8,0.7-6.4,0.1-8.5,2.1
	c-1.2,1.3,2.5,2.9,1.9,4.6c-0.6,1.6-3.6-1.6-5-0.7c-2.4,1.4,1.6,4.5,3.1,6.9c1.6,2.7-2.7,5.7-5.6,6.9c-1.7,0.7-1.7,3.3-0.8,4.8
	c1,1.6,2.7,2.5,4,3.8c2,1.9,3.1,4.5,4.2,7c2.2,5.1,4.5,10.5,3.7,16c-0.7,5.5-5.8,8.5-11.2,9.7c-5.8,1.4-11.9,1.1-17.6,2.7
	c-3.5,0.9-6.3,3.4-9.6,4.8c-3.3,1.4-7.9,1.2-9.7-1.9c-0.5-0.9-0.7-1.9-1.3-2.8c-0.6-1-1.7-1.7-2.8-2.1c-6.4-2.6-13,2.5-19.6,4.5
	c-7.7,2.3-16,0.2-23.8-1.5c-1.8-0.4-3.7-0.7-5.6-0.4c-1.8,0.3-3.4,1.2-5.1,1.9c-10.1,3.8-20.3-14.4-29.7-9.1
	c-4.1,2.3-6.4,7-10.3,4.4c-3.9-2.5-5.3-7.5-6.3-12c-0.9-4.5-1.8-9.5-5.2-12.6c-5.3-4.9-13.7-3.2-20.4-0.7
	C23.3,207.5,9,215.8-3.5,226.2"/>
<path fill="none" stroke="#E1E1E1" stroke-miterlimit="10" d="M-4.4,207.7c6.3-4.8,13.5-8.3,20.7-11.7c8.5-4.1,17-8.2,25.5-12.3
	c1.3-0.6,2.6-1.3,4.1-1.2c1.6,0,3.2,0.7,4.5,1.7c5.8,4.5,12.1,6.3,18.9,8.9c2.2,0.8,3.8,4.7,4.7,6.9c1.2,2.9-0.2,6.5,1.6,9.1
	c0.7,1.1,1.9,1.7,3,2.3c4.4,2.5,8.8,5,13.2,7.4c2.3,1.3,4.9,2.6,7.5,2c1.8-0.4,3.3-1.8,5-2.5c2.7-1.1,5.7-0.5,8.5,0.1
	c3.9,0.8,7.8,1.6,11.6,2.4c8,1.7,17.2,3.1,23.6-1.9c4.8-3.8,6.8-10.8,4.5-16.5c-0.7-1.7-1.7-3.3-2.1-5.1c-0.7-3.5,1.3-7.2,4.2-9.4
	c2.9-2.2,6.7-5.9,9.9-4.2c7.2,3.9,12.5,9.7,20.7,10.3c3.7,0.3,8.3-0.1,9.6-3.5c0.6-1.6,0.4-8.1,0.2-9.8c-0.7-5.5,3-6.5,2.8-9.2
	c-0.2-2-3.2-5.2,1.2-6c1.7-0.3-1.4-1-1.7-2.8c-0.7-4.9-6.3-7.5-11.2-8.2c-3-0.4-6.1-0.3-8.7,1.2c-2.6,1.5-1.3,3.2-3.2,5.5
	c-1.8,2.3-6.7-1-9-2.8c-2.3-1.8-0.7-2.3-0.8-5.2c-0.1-2.5-2.2-5.7-2.2-8.3c0-5.1,0.6-7.9,3.1-12.4c1.3-2.4,3-4.7,4.8-6.7
	c5.6-6.3,12.9-10.9,20-15.4c2.4-1.5,4.8-3,7.2-4.5c2-1.3,4-2.5,6.2-3.5c2.7-1.1,5.5-1.8,8.4-2.4c13.6-2.9,27.4-5.3,41.3-6.1
	c5.7-0.3,11.5-0.4,17.2-1.2c4.2-0.6,9.2-2.4,10.1-6.6c0.5-2.4-0.2-5.5,1.9-6.7c1-0.5,2.2-0.3,3.2-0.8c1.4-0.6,2-2.4,1.8-3.9
	c-0.2-1.5-1.1-2.8-2.1-4.1c-2.8-3.7-1.8-9.8-3.8-12.4c-1.2-1.7-5.3-2.3-6.9-4.6c-1.6-2.4-2.7-5.1-4.4-7.4c-2.1-2.7-5-4.6-7.8-6.5
	c-4.9-3.2-9.7-6.4-14.6-9.6c-3.3-2.1-6.6-4.3-9.1-7.2c-2.6-2.9-4.4-6.7-4-10.6c0.3-2.9,1-5.9,0.9-8.8c0-1.2-0.4-3.6-0.8-4.7"/>
<path fill="none" stroke="#E1E1E1" stroke-miterlimit="10" d="M102,361.1c0.3-0.5,1.5-0.2,1.7-0.7c0.8-2.1-1.8-4.1-2.7-6.1
	c-0.8-1.9-2.6-2.4-4.5-3.2c-1.6-0.7,1-3.9-0.1-5.2c-5.9-7.2-18.7-2.8-26-8.7c-1-0.8-2-1.7-3.3-2.1c-1.2-0.4-2.5-0.4-3.8-0.3
	c-4.2,0.2-8.5,0.3-12.7,0.5c-2.6,0.1-5.3,0.2-7.9,0.4c-6,0.6-12,2-17.9,3.4c-3.8,0.9-7.6,1.9-11.1,3.4c-6.5,2.8-10.7,9.4-17,12.5"/>
<path fill="none" stroke="#E1E1E1" stroke-miterlimit="10" d="M100.5-0.9c1.1,2.3,2.6,4.3,4.5,6c2.4,2,5.4,3.3,8.3,4.5
	c9.4,4,19.3,8,29.5,7.4c3.8-0.2,7.5-1.1,11.2-1.9c14.1-3,34.8-11.8,43-4.8c2.4,2.1,0.9,9.1,4.4,12s8,4.4,11.9,6.9
	c12.3,7.8,23,30.3,10.9,38.5c-3.5,2.4-6.1,4.6-8.7,8c-6.5,8.6-19.5,9-29.3,13.6c-4.7,2.2-9.6,4.5-13.3,8.2
	c-3.2,3.2-5.3,7.4-8.1,10.9c-8,9.9-20.8,14.2-33.1,17.6c-8.4,2.3-18.4,4.2-25.2-1.4c-1.8-1.4-3.2-3.3-5-4.6
	c-2.3-1.7-5.1-2.4-7.8-3.1c-14.5-3.8-30.2-7.5-44.1-2c-1.7,0.7-3.4,1.5-5.3,1.6c-2.4,0.2-4.7-0.9-6.9-1.7c-10.3-3.8-22-3.1-31.9,1.6
	c-2.6,1.3-5,2.8-6.8,5.1c-0.6,0.8-1.1,1.6-1.6,2.4"/>
<path fill="none" stroke="#E1E1E1" stroke-miterlimit="10" d="M74-1.3c0.3,0.7,0.8,1.3,1.4,1.6c0.7,0.3,1.5,0.3,2.2,0.8
	c0.9,0.6,1.2,1.7,1.7,2.6c1.8,3.4,6.4,4,9,6.7c1.1,1.1,1.8,2.6,3.1,3.5c1.4,1,3.3,1.2,4.9,1.7c3.8,1.2,6.7,4.4,10.2,6.3
	c4.3,2.3,9.9,2.8,13.1,6.5c1.1,1.3,1.8,2.8,3.1,3.9c2.4,2.2,5.6,3.6,8,5.8c0.8,0.7,0.4,1.8,0.8,2.8c1.7,4,9.8,2,11.8,5.9
	c1.9,3.8-4,8.8-2.1,12.6c0.5,1.1,2.7,0.7,3.3,1.8c3.5,7.2-2.6,15.8-3.8,23.7c-0.4,2.3-0.8,4.7-1.6,6.8c-1.4,3.6-4,6.6-7.1,8.9
	c-1.9,1.4-4.1,2.6-6.4,3.2c-4.3,1.1-8.8,0.4-13.2-0.4c-8.1-1.4-16.2-2.8-24.3-4.2c-8.1-1.4-16.2-2.8-24.5-3.5
	c-11.1-1-22.3-0.6-33.5-0.1c-11.7,0.6-24.3,1.9-33.2,9.6"/>
<path fill="none" stroke="#E1E1E1" stroke-miterlimit="10" d="M37.5-1.2c-1,3.4-1,8.5,1.6,11c1,1,2.4,1.6,3.7,2.1
	c4.9,2.2,9.8,4.3,14.7,6.5c5.2,2.3,10.5,4.6,16.2,5c2,0.1,4.1,0,6,0.6c0.9,0.2,1.8,0.6,2.6,1.1C92.6,30.2,99.1,42,98,53.5
	c-0.1,1.4-0.3,3.1,0.8,3.9c0.7,0.5,1.6,0.6,2.2,1.2c0.6,0.5,0.8,1.3,0.9,2.1c0.8,3.5,3.6,7.2,2.4,10.6c-1,2.7-1.3,5.4-3,7.7
	c-9.8,12.9-32.3,2.5-48.5,2.7c-4.9,0.1-9.7,0.1-14.6,0.5c-7.7,0.6-15.3,2.1-22.8,3.7C9.8,87,4.1,88.2-1,90.6c-1.1,0.5-2.1,1-3.1,1.6
	"/>
<path fill="none" stroke="#E1E1E1" stroke-miterlimit="10" d="M-4.3,78.2c0.9-0.3,1.7-0.5,2.6-0.8C0.2,76.9,2.1,76.5,4,76
	c8.5-2.3,16.4-6.4,23.8-11.2c1.5-1,3.2-2.4,3-4.1c-0.3-1.9-2.7-3.3-2.1-5.1c0.3-0.8,1.1-1.3,1.7-1.8c2-1.7,2.8-4.4,3.4-6.9
	c0.3-1.1,0.6-2.2,0.9-3.4c0.1-0.4,0.2-0.8,0.2-1.2c-0.1-0.5-0.4-0.9-0.7-1.3c-2.6-3.6-6.7-6.1-11-6.9c-4.1-0.8-8.8-0.1-12.1-2.7
	c-0.7-0.6-1.4-1.3-2.2-1.7c-1.1-0.6-2.4-0.7-3.7-0.7c-3.2-0.1-6.3-0.2-9.5-0.4c-0.7,0-1.5-0.1-2.2,0.1"/>
<path fill="none" stroke="#E1E1E1" stroke-miterlimit="10" d="M246.6,279.2c-0.7,1.1-0.1,2.5,0.4,3.7c0.2,0.4,0.4,0.8,0.8,0.9
	c0.3,0.1,0.6,0.1,0.9,0.2s2.8-0.7,3.8-1.7c0.7-0.7,1.6-1.3,2.3-2.1s1.2-2.4,0.3-2.9c-1.9-1.1-4.4,0-6.4,0.6
	C247.8,278.2,247,278.5,246.6,279.2z"/>
<path fill="none" stroke="#E1E1E1" stroke-miterlimit="10" d="M237.4,330.3c5.8-13.1,15.4-23.7,22.8-37.1c2.2-3.9,4.6-8.4,8-12
	c2.5-2.6,3-7,6-9s4-4,5-6c4-8,8.4-18.3,19.5-13.5c4.5,1.9,9.1,3.4,11.9,7.4c1.1,1.6,2.1,3.5,3.6,4.8s4.1,1.6,5.4,0.1
	c0.5-0.6,0.8-1.3,1-2.1c2.6-8.1,5.3-16.4,5.2-24.9c0-4.2-0.8-8.4-1.6-12.6c-2-10.7-2.4-28.4-7.3-31.7c-2.4-1.6-2.7,4.7-2.4,7.5
	c0.8,7-0.8,14.3-4.3,20.4c-2.3,4.1-5.7,7.8-9.9,9.8c-1.9,0.9-4,1.5-5.7,2.7c-2.3,1.6-3.8,4.1-5.6,6.1c-5.4,6-13.7,8.2-20.6,12.3
	c-6.1,3.7-11.1,8.9-16.4,13.8c-2.5,2.3-6.3,4.6-8.9,2.5c-1-0.8-1.5-2.1-2.3-3.2c-0.8-1.1-2.2-1.9-3.4-1.3c-0.7,0.4-1.1,1.2-1.8,1.6
	c-1.2,0.6-2.1-0.8-2.3-2.1c-0.1-1-1.9-0.3-2.6,0.3c-0.7,0.7-1.3,1.6-2.3,1.8c-1.3,0.2-2.3-1-3.6-1.4c-1.3-0.5-2.7-0.1-4.1,0.3
	c-3.8,1.2-7.6,2.3-11.3,3.5c-1.3,0.4-2.6,0.8-3.9,0.5c-1.3-0.3-1.3-3.8-2.2-2.8c-1.7,2-14.6,13.5-15.9,14.6c-3.6,3.3,7.8-2.2,19-2.2
	c2.1,0,18.3,2.8,19.8,4.2c2.6,2.6,3.6,5,3.5,8.7c-0.2,11.3-0.4,22.7-0.7,34c-0.1,4.1-0.2,8.2,0.8,12.2c0.2,0.8,0.5,1.7,1.3,1.9
	c1.1,0.4,2-0.8,2.6-1.8C235.3,334.9,236.1,333.2,237.4,330.3z"/>
<path fill="none" stroke="#E1E1E1" stroke-miterlimit="10" d="M143.4,285c2.4,0,4.8-0.3,7.1-0.2c2.4,0.2,4.8,0.9,6.4,2.7
	c0.7,0.8,1.2,1.8,2.1,2.3c1.7,1,3.9-0.2,5.3-1.7c1.4-1.5,2.6-3.3,4.6-3.8c2.2-0.6,5.6-0.8,6.6,1.3c1.8,4-6.5,5.8-10.7,7.1
	c-5.3,1.6-10.8,2.6-16.2,1.7c-1.6-0.3-3.2-0.7-4.7-1.1c-6.2-1.7-12-4.8-17.8-7.6c-5.8-2.8-16.2-7.5-15.1-10.6
	c1.4-3.7,7.6,0.5,11,2.5C128.5,281.6,135.7,285,143.4,285z"/>
<path fill="none" stroke="#E1E1E1" stroke-miterlimit="10" d="M35.1,231.6c-0.2,0-0.4,0-0.6-0.2c-0.2-0.2-0.3-0.5-0.3-0.8
	c0-1.2,0.6-2.3,1.3-3.3c1-1.6,2.1-3.1,3.3-4.6c0.4-0.6,1-1.2,1.7-1.1c0.6,0,1.1,0.6,1.3,1.2c0.2,0.6,0.1,1.3,0.1,1.9
	c0,1.1,0.1,2.3,0.3,3.4c0.1,0.5,0.5,0.6,0.9,0.9c0.4,0.3-0.2,1.1-0.3,1.6c-0.1,0.4-0.1,0.7-0.4,1c-0.4,0.5-1.1,0.5-1.7,0.4
	C38.9,231.8,37,231.7,35.1,231.6z"/>
<path fill="none" stroke="#E1E1E1" stroke-miterlimit="10" d="M-1.9,250.4c0.4-0.6,0.9-1.3,1.3-1.9c2-2.5,4.3-4.8,6.7-7
	c3.3-3.1,6.7-6.2,10-9.4c2.8-2.6,5.6-5.3,8.9-7.3c1.6-1,3.2-1.8,4.9-2.6c4.5-2.2,9-4.4,13.5-6.7c2-1,6.1-3.4,6.4-1.1
	c1.1,8.8,2.8,17.2,1.2,25.4c-0.8,4.2-8.5,1.8-12.3,3.8c-5.8,3-10.6,7.4-15.3,11.8c-3.5,3.2-6.9,6.4-9.7,10.2
	c-2.1,2.8-3.7,5.9-5.7,8.8c-3,4.3-6.9,8-11.3,10.8"/>
<path fill="none" stroke="#E1E1E1" stroke-miterlimit="10" d="M362.5,37.7c-2.7,0.4-5.3,1.9-8,2.3c-1.2,0.2-2.5,0.2-3.6-0.3
	c-0.9-0.5-1.6-1.4-2.5-1.8c-2-0.9-4.8,0.8-6.5-0.7c-1-0.9-1.1-2.5-2.2-3.2c-1-0.6-2.3-0.1-3.5,0c-1.6,0.2-3.2-0.4-4.7-0.9
	c-11.3-4.1-23-8.5-31.4-17.1c-1.5-1.6-2.9-3.3-4.6-4.7c-1.7-1.5-3.7-2.6-5.6-3.9c-3.4-2.3-6.4-5-9.1-8.1"/>
<path fill="none" stroke="#E1E1E1" stroke-miterlimit="10" d="M219.1,362.9c-1.4-1.3-2.6-2.7-3.7-4.1c-7-9.2-10.8-20.3-14.3-31.3
	c-1.6-4.9-4.9-11-10-9.8c-1.3,0.3-2.5,1.1-3.8,1.2c-1.9,0.2-3.7-1-5.5-1.7c-5.1-2-10.7-0.3-16.1,0.6c-13.8,2.3-25.5-8.4-39.4-10.3
	c-1.8-0.3-3.5,3-5.1,2.1c-4.3-2.4-4.9-8.5-9.3-10.7c-4.4-2.2-9.3-3.4-13.4-6.1c-5.7-3.7-9.3-9.7-12.3-15.8c-1.3-2.7-4.6-5.9-6.6-3.7
	c-1.1,1.2-0.9,3.3-2.2,4.2c-1.4,1-3.2-0.1-4.4-1.3c-6.7-6.6-11-14.9-8.1-23.8c0.8-2.5,2.4-4.3,3-6.8c1-3.8,1.5-8.2,7.5-2.7
	c1.7,1.5,2.2,2.2,3.3,4.1c2.6,4.3,8.3,4.9,13,6.6c5.4,2,9.8,6.1,14.7,9.1c4.9,3.1,11.1,5.2,16.5,2.9c5.8-2.5,10-9.9,16.3-8.8
	c1.9,0.3,3.5,1.4,5.4,1.7c5,0.7,13.6-7.3,14.5-2.3c0.3,1.6-0.7,3.3,0.5,4.4c1.2,1.1,2.9,1.6,4.5,1.8c3.9,0.6,6.7,3.6,7.7-0.2
	c0.2-0.8,5.8-2.6,6.5-3c5.8-3,12.1-3.7,18.4-9.4c2.2-2,4.5-4.4,7.5-4.3c1.3,0,2.6,0.6,3.9,0.9c8.2,2.1,16.3,2.4,24.8,1.8
	c3.9-0.2,5.5-6.2,9.4-6c1.8,0.1,3.5,1,5.3,1.2c2.8,0.4,5.6-0.9,8.2-2.1c8.6-4.1,17.1-8.2,25.7-12.2c5-2.4,10.1-4.9,13.8-9
	c6.6-7.5,7-18.7,4.5-28.3c-2.5-9.6-13.4-18.5-10.4-28c0.8-2.6,4.7,0.2,7.2,1.2c2.1,0.9,4.4,0.2,6.6,0.7c2.7,0.6,5.6-0.1,8.3,0.6
	c0.8,0.2,1.5,0.5,2.2,0.8c4,1.6,8.4,2.5,12.7,2.4c1.2,0,2.7,0,3.5,1c0.3,0.4,0.5,1,0.9,1.4c1.2,0.9,2.5-0.7,3.9-1.3
	c2.4-1.1,5.1,1.5,7.7,1.3c2.5-0.1,4.2-2.6,6.4-3.9c1.5-0.9,3.2-1.2,4.9-1.6c2.6-0.5,6,0.5,7.7-1.5c0.5-0.6,0.8-1.3,1.2-1.9"/>
<path fill="none" stroke="#E1E1E1" stroke-miterlimit="10" d="M239.9,362.9c-2.9,2.7-6.5,4.7-10.4,4.7c-3.9,0-7.4-2-10.4-4.8"/>
<path fill="none" stroke="#E1E1E1" stroke-miterlimit="10" d="M362.9,228.2c-0.4,0.8-0.7,1.7-1.2,2.5c-0.8,1.3-2,2.2-3.2,3.2
	c-3,2.4-5.8,5.1-8.5,7.8c-1.5,1.6,0.1,4.7-1.6,6c-11.3,9-21.4,27.3-32.1,40.4c-0.9,1.2-2.4,1.8-3.9,2.2c-1.2,0.3-2.5,0.1-3.8,0.1
	c-6.7,0-12.8,3.8-17.4,8.6s-8,10.6-12,15.9c-9.2,12.2-21.7,21.8-29.9,34.7c-2.5,3.9-4.6,8.1-7.7,11.7c-0.5,0.6-1,1.1-1.5,1.6"/>
<path fill="none" stroke="#E1E1E1" stroke-miterlimit="10" d="M363.2,196.1c-1-0.4-2.1-0.7-3.3-0.8c-4.8-0.4-9,2.7-12.5,6
	c-2.1,2-4.2,4.1-5.5,6.7c-2.5,4.9-2.3,10.7-2.3,16.2c-0.1,5.7-0.5,11.3-1.4,16.9c-0.2,1.2-0.4,2.5-0.2,3.7c0.1,0.8,0.3,1.5,0.4,2.2
	c0.4,4.3-3.5,7.6-7.1,9.9c-3.6,2.3-7.7,5.2-7.9,9.4c-0.1,1.2,0.2,2.5-0.2,3.6c-0.6,1.7-2.5,2.5-3.8,3.8c-1.1,1.2-1.7,2.7-2.5,4.1
	s-2.1,2.7-3.7,2.7c-1.6,0.1-1.4-1.8-2.2-3.2c-3-5.1-11.7-2.8-17.5-1.8c-7,1.1-9.8,10.1-13.9,15.8c-9.8,13.8-19.7,27.6-29.5,41.4
	c-4.1,5.7-8.8,11.2-13,16.9c-1.6,2.2-3.6,4.6-6.3,4.5c-2-0.1-3.7-1.5-5.1-2.9c-3.5-3.3-7.2-6.8-8.6-11.4c-0.8-2.5-0.8-5.1-1-7.6
	c-0.4-7.7-1.6-15.3-3.5-22.7c-0.8-3.3-2-6.7-4.6-8.8c-5.7-4.6-13.9-0.3-20.7,2.4c-12.1,4.9-25.8,4.4-38.5,1.1
	c-12.6-3.3-24.4-9.2-36-15c-3.6-1.8-7.2-3.6-10-6.4c-6.5-6.5-17.1-28.6-11.8-24.6c1.5,1.2,8.2,0.5,11.3,5.3
	c4.7,7.2,22.7,11.3,35.5,12.3c6.1,0.5,12.3,0.9,18.4,1.7c5.4,0.7,10.7,1.9,16.2,2.3c18.7,1.1,22.6-21.8,27.4-23.1
	c5.6-1.4,9.9,3.9,15.6,2.8c14.2-2.9,33.7,6.1,42.7-5.2c1.7-2.2,3.4-4.4,5.8-5.8c6.6-3.9,13.3-7.8,19.9-11.7
	c9.2-5.4,19.1-11.5,23.3-21.3c5-11.7-9.1-35.8-3.9-37.1c3.9-1,26.7,6,40.1,2.7c10.2-2.5,14.2-3.2,20.5-5.6"/>
<path fill="none" d="M112.8,289.4c11.7,5.9,23.4,11.8,36,15c12.6,3.3,26.4,3.8,38.5-1.1"/>
<text transform="matrix(0.9041 0.4273 -0.4273 0.9041 121.6691 296.6239)"><tspan x="0" y="0" fill="#7D7D7D" font-family="'Verdana-Italic'" font-size="7">1</tspan><tspan x="4.5" y="0" fill="#7D7D7D" font-family="'Verdana-Italic'" font-size="7" rotate="-1.1">0</tspan><tspan x="9" y="-0.1" fill="#7D7D7D" font-family="'Verdana-Italic'" font-size="7" rotate="-2.5">8</tspan><tspan x="13.5" y="-0.3" fill="#7D7D7D" font-family="'Verdana-Italic'" font-size="7" rotate="-4.2">0</tspan><tspan x="18.1" y="-0.6" fill="#7D7D7D" font-family="'Verdana-Italic'" font-size="7" rotate="-6.3">0</tspan></text>
<path fill="none" stroke="#E1E1E1" stroke-miterlimit="10" d="M286.1,159.3c-0.3,1.4-2.8-0.3-3.5-1.5c-0.7-1.2-1.5-3.3-0.3-4.1
	c1.2-0.8,1.9,2,2.9,3c0.1,0.1,0.3,0.3,0.3,0.4c0.1,0.2,0,0.4,0,0.6C285.5,158.4,286.2,158.8,286.1,159.3z"/>
<path fill="none" stroke="#E1E1E1" stroke-miterlimit="10" d="M275.1,148.8c0.4,0.1,0.8,0.3,1.1,0.1c0.5-0.3,0.7-1.1,0.4-1.6
	c-0.5-0.8-1.7-1-2.6-0.8c-0.5,0.1-0.6,1-0.3,1.4S274.6,148.6,275.1,148.8z"/>
<path fill="none" stroke="#D6D6D6" stroke-miterlimit="10" d="M-0.9,25.9c-0.5,0.7-0.9,1.4-1.3,2.2"/>
<path fill="none" stroke="#D6D6D6" stroke-miterlimit="10" d="M29.4-1.1c-0.1,2-0.3,5.6-1.1,7.4S26,9.6,24.1,9.9
	c-2.6,0.3-5.2-1.9-7.8-1.4c-2.1,0.4-3.5,2.2-4.8,3.8c-2.7,3.2-6,5.8-8.8,9c-1.3,1.5-2.5,3-3.6,4.7"/>
<path fill="none" stroke="#D6D6D6" stroke-miterlimit="10" d="M91.4,71.4c11.2,1.2,22.8-2,31.8-7.3c0.8-0.5,1.7-0.9,2.7-0.9
	c1.3,0,2.5,0.7,3.7,1.1c8.4,2.4,6.7-4.9,8.6-9c1.7-3.8,2.2-6.2,4.6-8.8c2.3-2.4,5.5,0.1,10.7,0.1c1.2,0,1,2.4,2.2,2.3
	c1.2-0.1,0.7-2.1,1.9-2.6c0.5-0.2,3.6,4.8,9,3.2c2.6-0.8,5.4-1.1,8.1-1.1c3.3,0,6.4,1.4,9.4,2.8c4.3,2,8.5,4,12.7,6.1
	c0.9,0.5,1.9,0.9,2.9,0.9c1.3-0.1,2.5-1,3.8-1.3c2.2-0.5,4.2,1,6.1,2.3c4.6,2.9,9.8,4.5,15,6c8.5,2.5,13.9,5.6,21.4,6.7
	c4.2,0.6,11.4-4,15.6-3.4c2.1,0.3,4,1,6,1.7c3.5,1.3,8.4,6.2,11.3,3.7c1.6-1.4,5.6-0.2,10,2.6c4,2.5,8.9,1.8,13.1,3.9
	c2.7,1.3,4.8,4.9,7.8,4.8c3.5-0.2,7.1-4.1,10-2.2c1.2,0.8,0.8,3.6,2.3,3.7c1.4,0.1,2.8-2,3.9-1.1c0.8,0.6,1,1.8,1.5,2.7"/>
<path fill="none" stroke="#4E9BD7" stroke-miterlimit="10" d="M127.3,175.4c1.1-1.2,1.3-3.2,2.6-4.2c0.8-0.6,1.8-0.7,2.8-0.9
	c2-0.2,4-0.5,5.9-0.4c1.4,0.1,2.8,0.3,4.2,0.4c7.8,0.8,15.6-0.8,23.5-1.1c2.2-0.1,4.7,0,6.5,1.4"/>
<path fill="none" stroke="#D6D6D6" stroke-miterlimit="10" d="M193.5,166.3c0.2-1.2-0.4-1.6-0.1-2.4c0.3-0.8,1-1.4,1.8-1.8
	c0.7-0.4,1.6-0.7,2.4-0.8c0.7-0.1,1.4-0.1,2.1-0.3c0.8-0.2,1.4-0.6,2.1-1c2.8-1.4,5.9-2.2,9-2.4c0.6,0,1.2,0,1.7,0.1
	c0.5,0.1,0.9,0.4,1.3,0.6c1.9,1.2,3.5,2.6,5.4,3.7c0.7,0.5,1.5,0.9,2.2,1.3c3.1,2,5,5.3,7.4,8.2c0.6,0.7,1.4,1.8,1.8,3.2"/>
<path fill="#EAEAEA" stroke="#D6D6D6" stroke-miterlimit="10" d="M126.4,171.8c0.2,3,1.7,4.7,3,8.7c0.2,0.7,0.9,1.2,1.2,2
	c0.3,0.8,0.5,1.6,0.6,2.4c0.3,1.8,0.6,3.7,0.8,5.5c0.3,1.7,0.5,3.4,0,5c-0.2,0.7-0.6,1.3-0.9,1.8c-1,1.7-2,3.4-3,5.2
	c-0.3,0.5-0.6,1.1-1.1,1.5c-0.8,0.7-1.8,0.9-2.8,0.9c-2.8,0.2-5.5-0.7-8.1-1.7c-0.7-0.3-1.4-0.5-2.1-0.4c-0.6,0.1-1.2,0.4-1.7,0.6
	c-2.8,1.4-6,2.3-9.1,2.5c-0.5,0-1.1,0.1-1.6-0.2c-0.5-0.2-0.8-0.7-1.3-1c-0.7-0.4-1.6-0.4-2.4-0.4c-2.1,0.1-4.1,0.1-6.1-0.7
	c-2.1-0.8-2.9-2.6-4.2-4.4c-1.2-1.8-2.4-3.5-2.3-5.8c0.1-3.3,2.1-6.4,1.7-9.7c-0.1-0.5-0.2-1,0.1-1.5c0.1-0.3,0.4-0.5,0.5-0.7
	c0.3-0.4,0.3-1,0.4-1.5c0.4-2.2,2.3-3.8,4.2-5.1c4.7-3.1,10.1-5,15.4-6.7c2.3-0.8,4.8-1.6,7.2-1.4c0.5,0,1.1,0.1,1.6,0
	c0.6-0.2,1.1-0.6,1.6-1.1c1.9-1.6,4.8-2.3,6.6-0.8C126.4,166.6,126.2,169.4,126.4,171.8z"/>
<path fill="#7BBCEB" stroke="#4E9BD7" stroke-miterlimit="10" d="M186.3,160.9c0.4,0.2,0.9,0.3,1.3,0.5c0.4,0.3,0.7,0.7,1,1.1
	c1,1.4,2.3,2.5,3.8,3.4c1,0.5,2.1,1.1,2.3,2.2c0.1,0.6-0.2,1.2-0.2,1.7c-0.1,1,0.3,1.9,0.5,2.9c0.1,1-0.1,2-0.6,2.9
	c-0.3,0.6-0.8,1.1-1.4,1.4c-0.5,0.2-1,0.3-1.5,0.4c-1.7,0.3-4.6,1-5-0.7c-0.3-1,0.3-2.1,0-3.1c-0.1-0.2-0.2-0.4-0.4-0.5
	c-0.2,0-0.3,0.1-0.4,0.2c-2.1,1.5-2.2,5.4-4.7,7c-1.4,0.8-3.2,0.6-4.7,0.1c-0.3-0.1-0.7-0.2-0.9-0.4c-0.3-0.3-0.5-0.7-0.7-1.1
	c-1.1-2.4-1.7-5-1.7-7.6c0-0.3,0-0.6,0.2-0.8c0.2-0.3,0.7-0.5,0.9-0.8c0.4-0.7-0.5-1.4-0.6-2.1c0-0.4,0.1-0.9,0.4-1.2
	c1.6-2,4-0.8,5.7-1.9c1.2-0.8,0.3-2.8,0.4-4.2c0-0.3,0.1-0.6,0.2-0.9c0.3-0.5,1-0.7,1.6-0.8c0.6-0.1,1.3-0.2,1.9-0.3
	c0.2,0,0.5-0.1,0.6,0c0.3,0.1,0.4,0.5,0.5,0.8C184.9,159.9,185.5,160.6,186.3,160.9z"/>
<path fill="#EAEAEA" stroke="#D6D6D6" stroke-miterlimit="10" d="M240,204.5c1.4,0.7,1.8,2.8,3.4,3.2c0.9,0.2,1.7-0.2,2.6-0.3
	c1.7-0.3,3.5-0.1,5.1,0.5c0.6,0.3,1.2,0.6,1.9,0.6c1,0,1.8-0.8,2.5-1.6c1.4-1.5,2.5-5.8,4.2-4.6c0.8,0.5,0.3,1.8,1,2.4
	s1.6,1.3,1.6,2.2c0,0.3-0.1,0.7-0.1,1c0,1.4,1.3,2.3,2.5,3c0.9,0.5,1.8,1,2.7,1.6c0.2,0.1,0.4,0.2,0.6,0.2c0.2,0,0.4-0.1,0.6-0.3
	c1.7-1.1,3.4-2.2,5.1-3.3c0.4-0.3,0.9-0.6,1.3-0.7c0.9-0.2,1.9,0.1,2.8-0.2c0.8-0.3,1.3-1.1,1.7-1.9c0.8-1.5,0.5-3.4,0-5
	c-0.6-1.9-1.5-2.9-2.6-4.6c-0.9-1.4-1.2-3.4-2.6-4.3c-0.5-0.3-1.1-0.4-1.7-0.5c-1.7-0.3-3.4-0.6-5.2-1c-0.3-0.1-0.6-0.1-0.9-0.3
	c-0.6-0.4-0.7-1.2-0.7-1.9c-0.1-2.1,0-4.2-0.3-6.3c-0.3-2.1-1.1-4.2-2.7-5.6s-4.1-1.8-5.9-0.6c-0.3,0.2-0.7,0.5-1.1,0.7
	c-1.6,0.6-2.9-1.6-4.6-1.7c-1.7-0.1-2.7,1.8-3.8,3.1c-1.8,2.2-4.6,3.4-7.2,4.4c-1.1,0.4-2.3,0.9-3.5,0.9c-1.1,0-2.2-0.5-3.2-1
	c-0.8-0.4-1.6-0.9-2.1-1.6c-1.1-1.6-0.8-3,0.5-2.4c1,0.5,1.6,1.7,2.7,2.1c0.2,0.1,0.6,0.1,0.7-0.1c0.1-0.1,0.1-0.4,0.1-0.6
	c0-1.4,0-2.9,0-4.3c0-0.9-0.1-2-0.9-2.5c-0.6-0.4-1.4-0.2-2,0.1s-1.1,0.9-1.7,1.3c-1.4,1.1-3.3,1.5-5,1.2c-0.9-0.2-1.7-0.5-2.6-0.4
	s-1.7,1.1-1.3,1.8c0.2,0.3,0.5,0.6,0.9,0.8c0.8,0.5,1.4,1.1,2,1.9c0.1,0.2,0.2,0.3,0.3,0.6c0,0.2-0.1,0.4-0.2,0.6
	c-1.3,2.6-1.2,7.9,0.4,8.5c1.9,0.7,4.2-0.9,5.5,0.6c1,1.2,0.9,2.6,1.9,3.9c0.2,0.2,0.4,0.4,0.5,0.7c0.2,0.5-0.2,1.1-0.7,1.4
	s-1,0.4-1.5,0.6c-1.5,0.8-1.9,2.8-1.5,4.4c0.5,1.6,1.6,2.9,2.8,4.1c0.2,0.2,0.4,0.4,0.7,0.5c0.4,0.1,1.6-0.2,2-0.3
	c1.9-0.7,2.5-1.8,4-1.4C239.2,204.2,239.9,204.5,240,204.5z"/>
<path fill="none" stroke="#4E9BD7" stroke-miterlimit="10" d="M124.8,165.3c0.6-0.6,1.2-2,1.2-2.4c-0.1-0.9-1.1-1.5-1.7-2.2
	c-0.9-1.2-1.2-2.7-1.5-4.1c-0.1-0.3-0.1-0.6-0.1-1c0.1-0.4,0.4-0.8,0.5-1.2c0.4-1.3-0.7-2.5-1.5-3.5c-2.5-2.9-3.9-6.6-4.6-10.3
	c-0.7-3.7-0.8-7.6-0.8-11.4c0-0.7,0-1.4,0.4-2c0.2-0.3,0.5-0.6,0.7-0.9c0.6-0.9,0.4-2,0.3-3c-0.4-3.3-0.6-6.6-0.5-10
	c0-0.6,0-1.2,0.4-1.6c0.3-0.4,0.8-0.6,1.1-1c0.2-0.3,0.2-0.7,0.2-1.1c0-0.9,0-1.7,0-2.6c0.1-3.4,1.9-6.2,2-9.6c0-1,0-2.1-0.4-3
	c-0.4-1.1-1.1-2-1.9-2.8c-2.8-3.4-5.6-6.7-8.4-10.1c-0.5-0.6-1.1-1.3-1.7-1.8c-0.7-0.6-1.6-0.9-2.5-1.3c-4.4-1.9-7.7-3.8-12.1-5.6
	c-2.2-0.9-4.5-3.2-6.9-3.8c-2-0.4-5.2,0.8-7.2,0.1c-4.5-1.6-7.4-5.7-10.3-9.5c-0.7-0.9-1.3-2.7-2.4-3.1c-0.7-0.3-5-0.4-5.8-0.4
	c-3.7-0.1-6,1.5-6.9-0.1c-0.9-1.6-1-4.1-3.4-4.1c-3.9,0-2.3,2.2-4.1,2.2c-1.9,0-2.2-3.3-4-2.9c-1,0.2-3,1.5-4,1.6
	c-2.3,0.4-2.6-2.3-4-4.2c-1.4-1.9-4.4-2.5-6.7-2.5c-3,0-3.4,2.5-4.1,3.2c-1.8,1.8-3.4-0.5-5.4,1.1c-1.5,1.2-2.4,3.8-4.2,4.4
	c-1.8,0.7-1.6-1.2-2.8-2.8c-1.2-1.6-2.9-0.9-3.4-1c-0.5-0.2-2,1.1-2.4,1.5c-2.5,2.4-5,4.1-7.4,5.2"/>
<path fill="none" stroke="#D6D6D6" stroke-miterlimit="10" d="M174.3-1.4c-2.2,8.2-5.5,17.4-9.8,24.7c-2.1,3.6-4.6,7.4-4.3,11.6
	c0.1,1.2,0.4,2.4,0.1,3.5c-0.3,1.2-1.4,2.2-1.2,3.5c0.2,1.4,1.7,2.1,2.7,3c1,0.9,0.2,3-0.3,4.1"/>
<path fill="none" stroke="#D6D6D6" stroke-miterlimit="10" d="M362.2,348.1c-2.2,3.8-4.4,7.5-5.5,11.8c-0.3,1.3-0.5,2.8-0.2,4.1"/>
<path fill="none" stroke="#D6D6D6" stroke-miterlimit="10" d="M94,359.4c3.5-0.6,7.6-1.1,11.2-0.8c0.3,0,2.8,0.1,2.9,0.4
	c0.5,1.6,0.1,2.3,1.7,3c1,0.5,2.2,0.3,3.4,0.1c1.1-0.2,2.2-0.4,3.4-0.6"/>
<path fill="none" stroke="#D6D6D6" stroke-miterlimit="10" d="M135.5,362.3c1.9-1.7,4.7-1.6,7.3-1.7c3-0.1,6-0.6,9-1
	c5.9-0.9,11.8-1.8,17.7-2.7"/>
<path fill="none" stroke="#D6D6D6" stroke-miterlimit="10" d="M59.3,364.9c0.2-0.4,0.4-0.7,0.7-1c1.2-1.7,2.7-3.5,4.7-3.6
	c1.8-0.1,3.4,1.1,5.2,0.9c2.5-0.3,3.9-3.2,6.4-3.7c1-0.2,2,0.1,3,0.2c2.5,0.3,5-2,7.2-0.9c1.9,1,2.4,3.1,4.5,2.7
	c0.6-0.1,1.1-0.4,1.7-0.3c0.5,0,1,0.3,1.4,0.5c2,1,4,2.1,6,3.1"/>
<path fill="none" stroke="#585858" stroke-miterlimit="10" stroke-dasharray="4,1" d="M-7.3,172.7c1.1,0.7,1.8,1.3,2.7,1.2
	c4-0.2,8.6-2.4,14.4-5.5c3.1-1.6,5.7-4.1,9.1-3.5c1.4,0.3,3.5,1.8,4.8,2.3c3.7,1.4,8.1,1.8,11.4-0.3c1.4-0.9,2.5-2.2,3.8-3.3
	c4.8-3.9,12.4-3.9,17.2,0.1c0.8,0.7,2.2,2.3,3.2,2.9c1.5,0.9,3-0.6,4.8-0.4c5,0.7,9.7,3.1,14.4,5.2c2.4,1.1,6.2,3.4,8.8,3.4
	c2.1,0.1,2.8-1.5,4.7-2.5c7.1-3.7,11-6,18.7-6.9c2.9-0.3,8.1-3.9,12.2-3.1"/>
<text transform="matrix(1 0 0 1 3.0218 223.7858)"><tspan x="0" y="0" fill="#585858" font-family="'Verdana-Italic'" font-size="8">Ragged</tspan><tspan x="11" y="9.6" fill="#585858" font-family="'Verdana-Italic'" font-size="8">Peak</tspan></text>
<text transform="matrix(1 0 0 1 166.2012 143.8361)"><tspan x="0" y="0" fill="#7BBCEB" font-family="'Verdana-Italic'" font-size="8">Young Lakes</tspan><tspan x="0" y="9.6" fill="#7BBCEB" font-family="'Verdana-Italic'" font-size="8">(middle)</tspan></text>
<text transform="matrix(1 0 0 1 228.6012 157.4361)"><tspan x="0" y="0" fill="#585858" font-family="'Verdana-Italic'" font-size="8">Young Lakes</tspan><tspan x="0" y="9.6" fill="#585858" font-family="'Verdana-Italic'" font-size="8">(upper)</tspan></text>
<text transform="matrix(1 0 0 1 132.2012 203.8361)"><tspan x="0" y="0" fill="#585858" font-family="'Verdana-Italic'" font-size="8">Young Lakes</tspan><tspan x="0" y="9.6" fill="#585858" font-family="'Verdana-Italic'" font-size="8">(lower)</tspan></text>
<path fill="none" d="M49.5,114.8c14-5.4,29.6-1.7,44.1,2c2.7,0.7,5.5,1.4,7.8,3.1"/>
<text transform="matrix(0.9779 0.2092 -0.2092 0.9779 80.1295 116.1883)"><tspan x="0" y="0" fill="#7D7D7D" font-family="'Verdana-Italic'" font-size="7">9</tspan><tspan x="4.4" y="0" fill="#7D7D7D" font-family="'Verdana-Italic'" font-size="7" rotate="1.4">8</tspan><tspan x="8.8" y="0.1" fill="#7D7D7D" font-family="'Verdana-Italic'" font-size="7" rotate="2.2">0</tspan><tspan x="13.2" y="0.2" fill="#7D7D7D" font-family="'Verdana-Italic'" font-size="7" rotate="4">0</tspan></text>
<path fill="none" d="M207.9,236c4.9-0.5,9.9-0.9,14.6-2.5c4.6-1.5,10.6,1.2,14.1-2.2"/>
<text transform="matrix(0.9952 -9.833761e-02 9.833761e-02 0.9952 208.2829 238.5575)"><tspan x="0" y="0" fill="#7D7D7D" font-family="'Verdana-Italic'" font-size="7">1</tspan><tspan x="4.5" y="0" fill="#7D7D7D" font-family="'Verdana-Italic'" font-size="7" rotate="-2.4">0</tspan><tspan x="9.2" y="-0.2" fill="#7D7D7D" font-family="'Verdana-Italic'" font-size="7" rotate="-7.2">4</tspan><tspan x="13.6" y="-0.9" fill="#7D7D7D" font-family="'Verdana-Italic'" font-size="7" rotate="-7.3">0</tspan><tspan x="17.4" y="-1.3" fill="#7D7D7D" font-family="'Verdana-Italic'" font-size="7" rotate="7.7">0</tspan></text>
<path fill="none" d="M212,100c13.6-2.9,27.4-5.3,41.3-6.1c5.7-0.3,11.5-0.4,17.2-1.2"/>
<text transform="matrix(0.9949 -0.1006 0.1006 0.9949 243.0329 97.2635)"><tspan x="0" y="0" fill="#7D7D7D" font-family="'Verdana-Italic'" font-size="7">1</tspan><tspan x="4.4" y="0" fill="#7D7D7D" font-family="'Verdana-Italic'" font-size="7" rotate="1.3">0</tspan><tspan x="8.8" y="0.1" fill="#7D7D7D" font-family="'Verdana-Italic'" font-size="7" rotate="2.6">0</tspan><tspan x="13.2" y="0.3" fill="#7D7D7D" font-family="'Verdana-Italic'" font-size="7" rotate="3.2">0</tspan><tspan x="17.7" y="0.6" fill="#7D7D7D" font-family="'Verdana-Italic'" font-size="7" rotate="2.3">0</tspan></text>
<path fill="none" d="M13.6,265.7c2.8-3.8,6.2-7,9.7-10.2c4.7-4.4,9.6-8.9,15.3-11.8"/>
<text transform="matrix(0.6682 -0.744 0.744 0.6682 16.8502 265.6034)"><tspan x="0" y="0" fill="#7D7D7D" font-family="'Verdana-Italic'" font-size="7">1</tspan><tspan x="4.3" y="0" fill="#7D7D7D" font-family="'Verdana-Italic'" font-size="7" rotate="3.7">0</tspan><tspan x="8.6" y="0.3" fill="#7D7D7D" font-family="'Verdana-Italic'" font-size="7" rotate="5.2">6</tspan><tspan x="13.1" y="0.7" fill="#7D7D7D" font-family="'Verdana-Italic'" font-size="7" rotate="5.8">0</tspan><tspan x="17.4" y="1.1" fill="#7D7D7D" font-family="'Verdana-Italic'" font-size="7" rotate="7.9">0</tspan></text>
<path fill="none" d="M307.2,312.7c10.2-8.7,20.5-17.4,30.7-26.1c3.2-2.7,6.4-5.4,8.9-8.7c2.9-3.7,4.8-8,7.6-11.8"/>
<text transform="matrix(0.7606 -0.6492 0.6492 0.7606 338.8434 289.1981)"><tspan x="0" y="0" fill="#7D7D7D" font-family="'Verdana-Italic'" font-size="7">1</tspan><tspan x="4.5" y="0" fill="#7D7D7D" font-family="'Verdana-Italic'" font-size="7" rotate="-2.4">0</tspan><tspan x="9.2" y="-0.2" fill="#7D7D7D" font-family="'Verdana-Italic'" font-size="7" rotate="-7.8">2</tspan><tspan x="14" y="-0.8" fill="#7D7D7D" font-family="'Verdana-Italic'" font-size="7" rotate="-15.3">0</tspan><tspan x="18.4" y="-2.1" fill="#7D7D7D" font-family="'Verdana-Italic'" font-size="7" rotate="-18.7">0</tspan></text>
<g>
	<g>
		<polyline fill="none" stroke="#585858" stroke-miterlimit="10" points="85.2,341.6 85.2,348.7 275.4,348.7 275.4,341.7 		"/>
		<line fill="none" stroke="#585858" stroke-miterlimit="10" x1="180.5" y1="341.4" x2="180.5" y2="348.7"/>
		<line fill="none" stroke="#585858" stroke-miterlimit="10" x1="161.2" y1="349.2" x2="161.2" y2="343.7"/>
		<line fill="none" stroke="#585858" stroke-miterlimit="10" x1="142.4" y1="349.2" x2="142.4" y2="343.7"/>
		<line fill="none" stroke="#585858" stroke-miterlimit="10" x1="123.3" y1="349.2" x2="123.3" y2="343.5"/>
		<line fill="none" stroke="#585858" stroke-miterlimit="10" x1="104.6" y1="349.2" x2="104.6" y2="343.7"/>
	</g>
	<text transform="matrix(1 0 0 1 83.7835 339.1468)" fill="#585858" font-family="'Verdana'" font-size="8">0</text>
	<text transform="matrix(1 0 0 1 174.2946 339.1468)" fill="#585858" font-family="'Verdana'" font-size="8">0.5</text>
	<text transform="matrix(1 0 0 1 258.3415 339.1468)" fill="#585858" font-family="'Verdana'" font-size="8">1 mi</text>
</g>
</svg>
