<?xml version="1.0" encoding="utf-8"?>
<!-- Generator: Adobe Illustrator 17.1.0, SVG Export Plug-In . SVG Version: 6.00 Build 0)  -->
<!DOCTYPE svg PUBLIC "-//W3C//DTD SVG 1.1//EN" "http://www.w3.org/Graphics/SVG/1.1/DTD/svg11.dtd">
<svg version="1.1" id="Layer_1" xmlns="http://www.w3.org/2000/svg" xmlns:xlink="http://www.w3.org/1999/xlink" x="0px" y="0px"
	 viewBox="0 0 360 360" enable-background="new 0 0 360 360" xml:space="preserve">
<path fill="none" stroke="#E1E1E1" stroke-miterlimit="10" d="M353.2,376.5c2.2-5,3.4-10.6,5.1-15.8c1-3.1,2.1-6.2,3.3-9.2"/>
<path fill="none" stroke="#E1E1E1" stroke-miterlimit="10" d="M319.7,377c4.1-4,7.8-8.3,11.3-12.9c4.9-6.5,9.1-13.5,13.4-20.4
	c4.8-7.9,9.5-15.7,14.3-23.6c1.3-2.1,2.5-4.8,3.9-7.2"/>
<path fill="none" stroke="#E1E1E1" stroke-miterlimit="10" d="M362.2,118.7c-2-1.3-4.5-2.2-6.5-1.3c-1.5,0.7-3.1,0.3-4.4,1.4
	c-1.2,1,0.1,4.6-1.4,4.9c-3.5,0.8-7.1,1.5-10.2,3.4c-3.1,1.9-5.6,5-5.7,8.6c-0.1,4,2.6,7.4,5.1,10.4c4.2,5.1,8.5,10.1,12.7,15.2
	c2.6,3.1,5.3,6.5,5.6,10.5c0.2,3.4-1.2,7.2,0.9,9.9c0.6,0.8,1.5,1.4,2.2,2.1c2.6,2.9,1.5,7.4,0.2,11.1c-1.6,4.7-1.3,10.4-4.7,14
	c-5.9,6.1-16,5.9-24,8.9c-6.1,2.2-12.6,4.5-18.9,2.9c-1.8-0.5-3.6-1.3-5.5-1.1c-1.9,0.2-1.7,2.5-3,3.8c-3.5,3.4-9.4,0.7-14.1,2.2
	c-4.7,1.6-9.7,2-14.6,2.5c-3.1,0.3-7.3,3.3-9.3,0.9c-0.4-0.5,0.9-1.2,0.6-1.7c-2.7-3.9-9.4,1.9-12.7,5.3c-0.6,0.6-1.2,1.3-2,1.7
	c-0.9,0.5-2,0.6-3,1c-2.1,0.8-3.5,2.9-5.6,3.9c-2,1-2.8-1.7-4.9-2.4c-1.8-0.5-3.3,1.7-4.8,0.6c-1.5-1.1-2.4-2.8-3.8-4.1
	c-2.9-2.6-7.9-2.5-10.7,0.2c-0.7,0.7-1.2,1.4-2,1.9c-1.7,1-3.9,0.1-5.8-0.5c-4.6-1.4-9.5-1.1-14.3-0.8c-4.1,0.3-8.5,0.6-11.9,3
	c-1.7,1.2-3,2.7-4.7,4c-5.8,4.4-14.3,3.1-19.9-1.6c-1.5-1.3-3-2.5-4.5-3.8c-1.9-1.6-2.4-3.8-3.3-6.1c-1.1-2.7-5.3,1.7-8.2,1.8
	c-3.6,0.2-6.2-4.6-9.8-4.2c-3.7,0.4-7.1,2.4-10.1,0.2c-2.7-2.1-2.4-5.9-2.7-9.3s-0.6-7,1.4-9.8c1.7-2.3,5-4.9,3.7-7.4
	c-1.4-2.6-5.2-2.9-8.2-2.9c-2.8,0-5.7,0.6-8.3,1.5c-2.9,1-5.7,2.6-8.4,4.1c-5.1,2.9-10.1,6-15,9.2c-7.2,4.8-14.2,9.9-20.2,16.1
	c-11.5,11.9-19,27.2-20.9,43.6c-0.6,5.4-1.1,10.9,1.9,15c0.7,1,1.6,1.9,2,3.1c0.4,1.3,0.1,2.8,0.4,4.2c0.6,2.8,3.8,4.4,6.6,4.2
	c2.8-0.2,5.4-1.9,7.6-3.6c4.3-3.4,7.9-7.4,11.6-11.4c2.3-2.6,4.7-5.1,7-7.7c1.1-1.2,2.1-2.3,3-3.6c0.9-1.2,1.6-2.5,2.4-3.8
	c4-6.2,10.4-10.5,16.8-14.3c0.7-0.4,1.5-0.9,2.4-0.9c2.2,0,3.2,2.8,3.7,4.9c1.9,7.6,6.2,14.4,10.4,21c0.9,1.5,1.9,3,3.3,4
	c2.7,2,6.4,1.9,9.7,2.4c6.6,1,12.4,4.8,18.3,8c5.1,2.7,10.3,5.1,15.5,7.5c1.5,0.7,3,1.3,4.4,2c2.7,1.2,5.4,2.4,8.1,3.7
	c11.4,5.1,22.8,10.3,34.9,13.1c11.8,2.8,26.1,0.6,35.6,8.3c8.5,6.9,13.5,17.7,13.4,28.6c-0.1,3.7-0.6,7.4,0.3,10.9s4.3,6.8,7.9,6.2
	c1.8-0.3,3.4-1.6,5.2-1.9c1.6-0.3,3.3,0.2,4.9,0.5c10.4,2.1,21.2-2.2,29.5-8.8c8.2-6.6,14.3-15.5,20.3-24.2
	c6.3-9.2,12.7-18.5,19-27.7c3.1-4.5,6.2-9,10.4-12.5"/>
<path fill="none" stroke="#E1E1E1" stroke-miterlimit="10" d="M333.9-8.4c4.5,7.2,11.6,13.1,18.3,18.5c3.6,2.9,7.1,5.7,10.8,8.5"/>
<path fill="none" stroke="#E1E1E1" stroke-miterlimit="10" d="M89.9,287.2c0.1,0.8,0.4,1.6,0.6,2.4c0.4,1.6,0.5,3.3,0.3,4.9
	c0,0.3-0.1,0.6,0.1,0.9c0.2,0.2,0.4,0.2,0.6,0.4c0.7,0.4,0.5,1.6,1.2,2.1c0.7,0.5,1.7-0.2,1.9-1c0.2-0.8-0.1-1.7-0.3-2.5
	c-0.2-0.8-0.2-1.6-0.1-2.3c0.1-0.6,0.2-1.2,0.2-1.7c0-0.7-0.2-1.3-0.3-1.9c-0.1-0.6-0.3-1.2-0.4-1.8c-0.6-2.6-1.3-5.2-2.4-7.5
	c-0.2-0.3-0.3-0.6-0.7-0.7c-0.5-0.2-1,0.4-1.1,1c0,0.5,0.2,1.1,0.4,1.6C90.5,282.9,89.6,285.1,89.9,287.2z"/>
<path fill="none" stroke="#E1E1E1" stroke-miterlimit="10" d="M362.5,100.6c-1.8,3.4-2.4,8.8-5.8,8.5c-2.4-0.2-3.8-2.4-6.2-1.8
	c-7.3,1.8-17.6,4.7-24.9,6.5c-1.4,0.3-14.3-0.5-15.5,0.2c-9,5.8-8.3,0.1-17.8,5.2c-1,0.5-1.9,1.1-2.7,1.8c-1.6,1.5-0.6,4.7-1.2,6.8
	c-0.9,2.7-2.8,7.6-2.5,10.5s4.3,1.9,6,4.2c2.4,3.2-0.8,8-1.2,12c-0.1,0.8-0.2,1.7-0.7,2.3c-0.5,0.6-1.3,0.8-2.1,1
	c-2.8,0.7-6.4,0.1-8.5,2.1c-1.2,1.3,2.5,2.9,1.9,4.6c-0.6,1.6-3.6-1.6-5-0.7c-2.4,1.4,1.6,4.5,3.1,6.9c1.6,2.7-2.7,5.7-5.6,6.9
	c-1.7,0.7-1.7,3.3-0.8,4.8s2.7,2.5,4,3.8c2,1.9,3.1,4.5,4.2,7c2.2,5.1,4.5,10.5,3.7,16c-0.7,5.5-5.8,8.5-11.2,9.7
	c-5.8,1.4-11.9,1.1-17.6,2.7c-3.5,0.9-6.3,3.4-9.6,4.8c-3.3,1.4-7.9,1.2-9.7-1.9c-0.5-0.9-0.7-1.9-1.3-2.8c-0.6-1-1.7-1.7-2.8-2.1
	c-6.4-2.6-13,2.5-19.6,4.5c-7.7,2.3-16,0.2-23.8-1.5c-1.8-0.4-3.7-0.7-5.6-0.4c-1.8,0.3-3.4,1.2-5.1,1.9
	c-10.1,3.8-20.3-14.4-29.7-9.1c-4.1,2.3-6.4,7-10.3,4.4c-3.9-2.5-5.3-7.5-6.3-12c-0.9-4.5-1.8-9.5-5.2-12.6
	c-5.3-4.9-13.7-3.2-20.4-0.7c-27.5,10.1-51.7,28.9-68.3,53c-3.2,4.7-6.3,10-5.7,15.7c0.3,2.7,1.4,5.3,1.7,8.1
	c0.3,2.9-0.5,5.7-0.8,8.5c-0.7,6-2.6,15.5,3.1,17.7c1.4,0.6,3-2.5,4.3-1.7c4.6,2.9,0.7,13,5.8,14.9c1.2,0.5,3.3-1.9,3.9-0.7
	c1,2.1,1.2,4.3,3.4,3.5c2.2-0.8,3.4-3,5.4-4.3c2-1.3,4.5-1.4,6.9-1.5c11.6-0.3,25.3,7.1,34.8,0.5c2.5-1.7,2.3-5.7,4.6-7.6
	s5.8-2.5,8.4-1c1,0.6,1.8,1.6,2.9,2.1c3.5,1.8,6.1-5,10-4.5c1.4,0.2,0.6,3.3,1.9,3.8c7.7,3.4,13.5,10.2,21.9,10.4c2,0,4-0.7,6-0.6
	c5.3,0.2,8.9,5.3,13.5,7.8c3.1,1.6,6.7,2.1,10.1,3.1c3.7,1.1,7.1,3,10.5,4.9c6.5,3.6,16.9,9.7,19.5,10.7c3.1,1.1,14.7,2.3,21.4,4
	c3.2,0.8,6.7,2,8.7,4.7c2.2,2.9,2.1,7,1.2,10.6c-1.8,7-6.2,13-10.4,18.8c-0.4,0.5-0.7,1-1.1,1.4"/>
<path fill="none" stroke="#E1E1E1" stroke-miterlimit="10" d="M320.8-8.3c0.7,3.4,1.4,6.8,3,10c3.9,7.9,12.1,12.5,19.3,17.6
	c7.4,5.2,14.2,11.2,20.9,17.4"/>
<path fill="none" stroke="#E1E1E1" stroke-miterlimit="10" d="M158.7,375.4c1.7-6.3,4-12.6,8.6-17.2c1.4-1.4,1.9-3.3,2.8-5.1
	c0.3-0.5,1.5-0.2,1.7-0.7c0.8-2.1-1.8-4.1-2.7-6.1c-0.8-1.9-2.6-2.4-4.5-3.2c-1.6-0.7,1-3.9-0.1-5.2c-5.9-7.2-18.7-2.8-26-8.7
	c-1-0.8-2-1.7-3.3-2.1c-1.2-0.4-2.5-0.4-3.8-0.3c-4.2,0.2-8.5,0.3-12.7,0.5c-2.6,0.1-5.3,0.2-7.9,0.4c-6,0.6-12,2-17.9,3.4
	c-3.8,0.9-7.6,1.9-11.1,3.4c-6.9,3-11.3,10.3-18.3,13.1c-4,1.6-8.5,0.2-12.8,0.4c-0.9,0-1.8,0-2.6-0.3c-0.9-0.3-1.6-1-2.3-1.7
	c-3.1-2.9-7.4-5.5-11.2-3.8c-1.6,0.7-2.8,2-4.1,3.1c-2.9,2.4-6.8,3.7-10.6,3.7c-0.6,0-1.2-0.1-1.6-0.5c-0.4-0.4-0.4-1.1-0.6-1.6
	c-0.8-1.8-4-2.1-5.3-0.6c-0.9,1.1-1.1,4.1-1.4,5.5c-1,6-4.3,11.8-9.8,14.5c-0.5,0.2-1.1,0.4-1.5,0c-0.2-0.2-0.2-0.4-0.3-0.7
	c-0.3-2,0.9-4.1,2.7-5c0.5-0.2,1-0.4,1.2-0.9c0.1-0.4,0-0.8,0.1-1.2c0.2-1.4,2.3-1.4,3.3-2.4c1.3-1.3,0.3-3.4-0.6-4.9
	c-0.4-0.6-0.8-1.2-1.5-1.4c-0.4-0.1-0.8,0-1.2,0.1c-1.7,0.5-3.7,2.5-5.1,1.4c-1.2-1,0.4-3.5,1.8-4.1c1.3-0.5,3.1,0.4,4.2-0.5
	c1.2-1,0.6-3.2,1.9-4c1.2-0.7,2.7,0.5,4.1,0.2c1.4-0.3,2-1.9,2-3.3c0-1.4-0.4-2.8-0.1-4.2c0.4-1.9,2.4-2.9,3.5-4.4
	c1.6-2.1,3.2-4.2,4.1-6.7c0.6-1.6,0.9-3.4,2-4.8c0.6-0.9,1.6-1.6,2-2.6c0.3-0.8,0.3-1.7,0.3-2.6c-0.3-3.7-2.1-7.2-4.9-9.6
	c-0.4-0.3-0.8-0.7-1.1-1.1c-0.4-0.8-0.2-1.8-0.3-2.7c-0.1-0.9-0.8-1.3-1.7-1.7c-5.6-2.5,0.5-12.4-2.5-17.7c-0.9-1.7-2.8-2.6-2.9-4.5
	c-0.2-1.9,0.2-3.8-0.1-5.7c-0.3-1.9-1.2-3.7-1.8-5.5c-2.5-7.7-0.1-16.2,2.9-23.7c0.8-2.1,2.9-6,3.7-8.1
	c4.4-10.7,15.2-18.5,26.8-18.5c1.2,0,2.4,0.1,3.5-0.2c1.8-0.5,3.1-1.8,4.4-3.1c1.9-1.9,3.8-3.8,5.7-5.7c1.6-1.6,3.1-3.1,4.8-4.6
	c6.9-6.1,15.3-10.1,23.6-14.1c8.5-4.1,17-8.2,25.5-12.3c1.3-0.6,2.6-1.3,4.1-1.2c1.6,0,3.2,0.7,4.5,1.7c5.8,4.5,12.1,6.3,18.9,8.9
	c2.2,0.8,3.8,4.7,4.7,6.9c1.2,2.9-0.2,6.5,1.6,9.1c0.7,1.1,1.9,1.7,3,2.3c4.4,2.5,8.8,5,13.2,7.4c2.3,1.3,4.9,2.6,7.5,2
	c1.8-0.4,3.3-1.8,5-2.5c2.7-1.1,5.7-0.5,8.5,0.1c3.9,0.8,7.8,1.6,11.6,2.4c8,1.7,17.2,3.1,23.6-1.9c4.8-3.8,6.8-10.8,4.5-16.5
	c-0.7-1.7-1.7-3.3-2.1-5.1c-0.7-3.5,1.3-7.2,4.2-9.4c2.9-2.2,6.7-5.9,9.9-4.2c7.2,3.9,12.5,9.7,20.7,10.3c3.7,0.3,8.3-0.1,9.6-3.5
	c0.6-1.6,0.4-8.1,0.2-9.8c-0.7-5.5,3-6.5,2.8-9.2c-0.2-2-3.2-5.2,1.2-6c1.7-0.3-1.4-1-1.7-2.8c-0.7-4.9-6.3-7.5-11.2-8.2
	c-3-0.4-6.1-0.3-8.7,1.2c-2.6,1.5-1.3,3.2-3.2,5.5c-1.8,2.3-6.7-1-9-2.8c-2.3-1.8-0.7-2.3-0.8-5.2c-0.1-2.5-2.2-5.7-2.2-8.3
	c0-5.1,0.6-7.9,3.1-12.4c1.3-2.4,3-4.7,4.8-6.7c5.6-6.3,12.9-10.9,20-15.4c2.4-1.5,4.8-3,7.2-4.5c2-1.3,4-2.5,6.2-3.5
	c2.7-1.1,5.5-1.8,8.4-2.4c13.6-2.9,27.4-5.3,41.3-6.1c5.7-0.3,11.5-0.4,17.2-1.2c4.2-0.6,9.2-2.4,10.1-6.6c0.5-2.4-0.2-5.5,1.9-6.7
	c1-0.5,2.2-0.3,3.2-0.8c1.4-0.6,2-2.4,1.8-3.9c-0.2-1.5-1.1-2.8-2.1-4.1c-2.8-3.7-1.8-9.8-3.8-12.4c-1.2-1.7-5.3-2.3-6.9-4.6
	c-1.6-2.4-2.7-5.1-4.4-7.4c-2.1-2.7-5-4.6-7.8-6.5c-4.9-3.2-9.7-6.4-14.6-9.6c-3.3-2.1-6.6-4.3-9.1-7.2s-4.4-6.7-4-10.6
	c0.3-2.9,1-5.9,0.9-8.8c0-1.2-0.2-2.4-0.6-3.6"/>
<path fill="none" stroke="#E1E1E1" stroke-miterlimit="10" d="M168.5-8.9c1.1,2.3,2.6,4.3,4.5,6c2.4,2,5.4,3.3,8.3,4.5
	c9.4,4,19.3,8,29.5,7.4c3.8-0.2,7.5-1.1,11.2-1.9c14.1-3,34.8-11.8,43-4.8c2.4,2.1,0.9,9.1,4.4,12s8,4.4,11.9,6.9
	c12.3,7.8,23,30.3,10.9,38.5c-3.5,2.4-6.1,4.6-8.7,8c-6.5,8.6-19.5,9-29.3,13.6c-4.7,2.2-9.6,4.5-13.3,8.2
	c-3.2,3.2-5.3,7.4-8.1,10.9c-8,9.9-20.8,14.2-33.1,17.6c-8.4,2.3-18.4,4.2-25.2-1.4c-1.8-1.4-3.2-3.3-5-4.6
	c-2.3-1.7-5.1-2.4-7.8-3.1c-14.5-3.8-30.2-7.5-44.1-2c-1.7,0.7-3.4,1.5-5.3,1.6c-2.4,0.2-4.7-0.9-6.9-1.7c-10.3-3.8-22-3.1-31.9,1.6
	c-2.6,1.3-5,2.8-6.8,5.1c-2.1,2.6-3,5.9-5.1,8.4c-4,4.9-11.1,5.8-16.4,9.1c-5.1,3.1-8.6,8.3-11.9,13.4c-3,4.6-6.1,9.4-6.5,14.8
	c-0.3,4.5,1.2,9,1.6,13.5c0.4,4.5-0.8,9.8-4.9,11.9c-0.6,0.3-1.5,1.3-1.8,1.9c-0.3,0.5-0.3,1.1-0.2,1.7c0.2,0.9,0.8,1.6,1.1,2.4
	c0.6,1.8-0.2,3.7-1.4,5.2s-2.6,2.8-3.2,4.6c-0.5,1.3-0.6,2.8-1.3,3.9c-1.4,2.2-5.1,1.4-6.8,3.3c-2.6,3-3.2,7.9-5.1,11.4
	c-1.1,1.9-2.3,3.7-3.7,5.4c-1.5,1.8-3.2,3.4-4.9,5.1c-3,3.2-5.7,6.6-8.4,10"/>
<path fill="none" stroke="#E1E1E1" stroke-miterlimit="10" d="M142-9.3c0.3,0.7,0.8,1.3,1.4,1.6c0.7,0.3,1.5,0.3,2.2,0.8
	c0.9,0.6,1.2,1.7,1.7,2.6c1.8,3.4,6.4,4,9,6.7c1.1,1.1,1.8,2.6,3.1,3.5c1.4,1,3.3,1.2,4.9,1.7c3.8,1.2,6.7,4.4,10.2,6.3
	c4.3,2.3,9.9,2.8,13.1,6.5c1.1,1.3,1.8,2.8,3.1,3.9c2.4,2.2,5.6,3.6,8,5.8c0.8,0.7,0.4,1.8,0.8,2.8c1.7,4,9.8,2,11.8,5.9
	c1.9,3.8-4,8.8-2.1,12.6c0.5,1.1,2.7,0.7,3.3,1.8c3.5,7.2-2.6,15.8-3.8,23.7c-0.4,2.3-0.8,4.7-1.6,6.8c-1.4,3.6-4,6.6-7.1,8.9
	c-1.9,1.4-4.1,2.6-6.4,3.2c-4.3,1.1-8.8,0.4-13.2-0.4c-8.1-1.4-16.2-2.8-24.3-4.2c-8.1-1.4-16.2-2.8-24.5-3.5
	c-11.1-1-22.3-0.6-33.5-0.1c-11.7,0.6-24.3,1.9-33.2,9.6c-2.4,2-4.4,4.5-7,6.2c-4,2.6-8.9,3.1-13.1,5.1c-6.1,2.9-10.4,8.5-14.9,13.5
	S18.1,128,13,132.4c-2.7,2.3-4.7,5.5-5.5,9c-0.2,1-0.3,2-0.9,2.8c-0.8,1-2.4,1.1-3.6,1.7c-2.7,1.2-4.3,4.6-7.2,4.7
	c-0.9,0-1.8-0.3-2.7-0.4c-0.8,0-1.7,0.2-2.3,0.6"/>
<path fill="none" stroke="#E1E1E1" stroke-miterlimit="10" d="M105.4-8.3c-1,3.4-0.8,7.6,1.8,10c1,1,2.4,1.6,3.7,2.1
	c4.9,2.2,9.8,4.3,14.7,6.5c5.2,2.3,10.5,4.6,16.2,5c2,0.1,4.1,0,6,0.6c0.9,0.2,1.8,0.6,2.6,1.1c10.3,5.2,16.8,17.1,15.7,28.6
	c-0.1,1.4-0.3,3.1,0.8,3.9c0.7,0.5,1.6,0.6,2.2,1.2c0.6,0.5,0.8,1.3,0.9,2.1c0.8,3.5,3.6,7.2,2.4,10.6c-1,2.7-1.3,5.4-3,7.7
	c-9.8,12.9-32.3,2.5-48.5,2.7c-4.9,0.1-9.7,0.1-14.6,0.5c-7.7,0.6-15.3,2.1-22.8,3.7C77.8,79,72.2,80.2,67,82.6
	c-5,2.4-9.5,5.9-14.9,7.3c-3.4,0.9-7.1,1-10.5,2.1c-4.1,1.4-7.5,4.4-11.1,6.7c-7.3,4.7-15.5,8.8-24.2,9.2c-1.4,0.1-3,0.2-4.3,0.8
	c-1.5,0.7-3,1.4-4.5,2.1c-3.2,1.5-6.5,3-9.3,5.3"/>
<path fill="none" stroke="#E1E1E1" stroke-miterlimit="10" d="M-10.4,96.3c2.7-1.1,5.4-2.1,8.1-3c0.6-0.2,1.2-0.4,1.8-0.6
	c0.5-0.2,1-0.3,1.4-0.5c4.2-1.4,9.8-2.1,13.7-4.1c8.8-4.5,18.3-7.4,28.1-8.5c1.5-0.2,3-0.3,4.2-1.1c0.9-0.5,1.6-1.4,2.4-2
	c1.6-1.3,3.5-2.1,5.4-2.9c3.9-1.5,7.7-3.1,11.8-4.2c1.9-0.5,3.8-0.9,5.7-1.4c8.5-2.3,16.4-6.4,23.8-11.2c1.5-1,3.2-2.4,3-4.1
	c-0.3-1.9-2.7-3.3-2.1-5.1c0.3-0.8,1.1-1.3,1.7-1.8c2-1.7,2.8-4.4,3.4-6.9c0.3-1.1,0.6-2.2,0.9-3.4c0.1-0.4,0.2-0.8,0.2-1.2
	c-0.1-0.5-0.4-0.9-0.7-1.3c-2.6-3.6-6.7-6.1-11-6.9c-4.1-0.8-8.8-0.1-12.1-2.7c-0.7-0.6-1.4-1.3-2.2-1.7c-1.1-0.6-2.4-0.7-3.7-0.7
	c-3.2-0.1-6.3-0.2-9.5-0.4c-0.7,0-1.5-0.1-2.2,0.1c-0.8,0.2-1.6,0.5-2.4,0.8c-2.6,0.9-5.4,0.7-8.1,0.5c-6.1-0.5-13.5,2.4-18.2-1.5
	c-0.5-0.5-0.6-1.9-1.2-2.2c-6.8-4.3-16.1,1.4-24,0.1c-0.6-0.1-1.2-0.2-1.7-0.5c-0.8-0.4-1.3-1.2-2-1.7c-2.9-2.7-7.4-2.2-11.3-1.5
	c-4.1,0.7-8.3,1.4-12.4,2.1"/>
<path fill="none" stroke="#E1E1E1" stroke-miterlimit="10" d="M-9.7,77.7c2.5-0.3,5.1-0.6,7.5-1.4c3.2-1,8.1-2.5,9.5-5.6
	c1.1-2.4,2.4-4.8,4.7-6.1c2.4-1.3,5-1.8,7.6-2.3s6.2-0.3,7.6-2.6c0.3-0.5-0.1-1.1-0.5-1.5c-0.6-0.8-1.7-1.1-2.7-1.3
	c-2-0.4-5,1-6.1-0.7c-0.5-0.7,1.6-2,0.8-2.4c-0.7-0.5-1.5,1.1-2.4,1c-1.2-0.1-2-1.4-2.6-2.5c-0.3-0.6,0.3-1.2,0.2-1.9
	c-0.8-3.7-8-0.2-11.7,0.2c-1.5,0.1-3,0.3-4.4,0.6c-3.7,0.7-7.3,2.1-10.4,4.2"/>
<path fill="none" stroke="#E1E1E1" stroke-miterlimit="10" d="M314.6,271.2c-0.7,1.1-0.1,2.5,0.4,3.7c0.2,0.4,0.4,0.8,0.8,0.9
	c0.3,0.1,0.6,0.1,0.9,0.2c0.3,0.1,2.8-0.7,3.8-1.7c0.7-0.7,1.6-1.3,2.3-2.1c0.6-0.8,1.2-2.4,0.3-2.9c-1.9-1.1-4.4,0-6.4,0.6
	C315.9,270.2,315,270.5,314.6,271.2z"/>
<path fill="none" stroke="#E1E1E1" stroke-miterlimit="10" d="M363.5,225.7c-0.3,0.2-0.5,0.3-0.8,0.5c-2.3,1.6-3.8,4.1-5.6,6.1
	c-5.4,6-13.7,8.2-20.6,12.3c-6.1,3.7-11.1,8.9-16.4,13.8c-2.5,2.3-6.3,4.6-8.9,2.5c-1-0.8-1.5-2.1-2.3-3.2c-0.8-1.1-2.2-1.9-3.4-1.3
	c-0.7,0.4-1.1,1.2-1.8,1.6c-1.2,0.6-2.1-0.8-2.3-2.1c-0.1-1-1.9-0.3-2.6,0.3c-0.7,0.7-1.3,1.6-2.3,1.8c-1.3,0.2-2.3-1-3.6-1.4
	c-1.3-0.5-2.7-0.1-4.1,0.3c-3.8,1.2-7.6,2.3-11.3,3.5c-1.3,0.4-2.6,0.8-3.9,0.5c-1.3-0.3-1.3-3.8-2.2-2.8
	c-1.7,2-14.6,13.5-15.9,14.6c-3.6,3.3,7.8-2.2,19-2.2c2.1,0,18.3,2.8,19.8,4.2c2.6,2.6,3.6,5,3.5,8.7c-0.2,11.3-0.4,22.7-0.7,34
	c-0.1,4.1-0.2,8.2,0.8,12.2c0.2,0.8,0.5,1.7,1.3,1.9c1.1,0.4,2-0.8,2.6-1.8c1.6-2.8,2.3-4.5,3.6-7.5c5.8-13.1,15.4-23.7,22.8-37.1
	c2.2-3.9,4.6-8.4,8-12c2.5-2.6,3-7,6-9s4-4,5-6c3.5-7,7.3-15.7,15.6-14.6"/>
<path fill="none" stroke="#E1E1E1" stroke-miterlimit="10" d="M211.4,277c2.4,0,4.8-0.3,7.1-0.2s4.8,0.9,6.4,2.7
	c0.7,0.8,1.2,1.8,2.1,2.3c1.7,1,3.9-0.2,5.3-1.7c1.4-1.5,2.6-3.3,4.6-3.8c2.2-0.6,5.6-0.8,6.6,1.3c1.8,4-6.5,5.8-10.7,7.1
	c-5.3,1.6-10.8,2.6-16.2,1.7c-1.6-0.3-3.2-0.7-4.7-1.1c-6.2-1.7-12-4.8-17.8-7.6s-16.2-7.5-15.1-10.6c1.4-3.7,7.6,0.5,11,2.5
	C196.5,273.6,203.8,277,211.4,277z"/>
<path fill="none" stroke="#E1E1E1" stroke-miterlimit="10" d="M103.1,223.6c-0.2,0-0.4,0-0.6-0.2c-0.2-0.2-0.3-0.5-0.3-0.8
	c0-1.2,0.6-2.3,1.3-3.3c1-1.6,2.1-3.1,3.3-4.6c0.4-0.6,1-1.2,1.7-1.1c0.6,0,1.1,0.6,1.3,1.2c0.2,0.6,0.1,1.3,0.1,1.9
	c0,1.1,0.1,2.3,0.3,3.4c0.1,0.5,0.5,0.6,0.9,0.9c0.4,0.3-0.2,1.1-0.3,1.6c-0.1,0.4-0.1,0.7-0.4,1c-0.4,0.5-1.1,0.5-1.7,0.4
	C107,223.8,105,223.7,103.1,223.6z"/>
<path fill="none" stroke="#E1E1E1" stroke-miterlimit="10" d="M67.5,240.5c2-2.5,4.3-4.8,6.7-7c3.3-3.1,6.7-6.2,10-9.4
	c2.8-2.6,5.6-5.3,8.9-7.3c1.6-1,3.2-1.8,4.9-2.6c4.5-2.2,9-4.4,13.5-6.7c2-1,6.1-3.4,6.4-1.1c1.1,8.8,2.8,17.2,1.2,25.4
	c-0.8,4.2-8.5,1.8-12.3,3.8c-5.8,3-10.6,7.4-15.3,11.8c-3.5,3.2-6.9,6.4-9.7,10.2c-2.1,2.8-3.7,5.9-5.7,8.8c-3,4.3-6.9,8-11.3,10.8
	c-1.2,0.8-2.9,1.5-4,0.6c-0.5-0.4-0.8-1-1-1.6c-1.2-2.9-2.3-6-2.4-9.1c-0.1-3.6,1.1-7.1,2.4-10.4C61.7,251,63.8,245.3,67.5,240.5z"
	/>
<path fill="none" stroke="#E1E1E1" stroke-miterlimit="10" d="M363.6,3.2c-1.7-1.5-3.7-2.6-5.6-3.9c-3.4-2.3-6.4-5-9.1-8.1"/>
<path fill="none" stroke="#E1E1E1" stroke-miterlimit="10" d="M362.7,173.7c-3.6-5.9-7.4-11.7-5.5-17.8c0.7-2.1,3.4-0.7,5.7,0.5"/>
<path fill="none" stroke="#E1E1E1" stroke-miterlimit="10" d="M362.9,287.7c-1.3,1-2.6,2.2-3.7,3.4c-4.6,4.8-8,10.6-12,15.9
	c-9.2,12.2-21.7,21.8-29.9,34.7c-2.5,3.9-4.6,8.1-7.7,11.7c-3.1,3.5-7.3,6.3-12,6.3c-5.8,0-10.6-4.3-14.1-8.9
	c-7-9.2-10.8-20.3-14.3-31.3c-1.6-4.9-4.9-11-10-9.8c-1.3,0.3-2.5,1.1-3.8,1.2c-1.9,0.2-3.7-1-5.5-1.7c-5.1-2-10.7-0.3-16.1,0.6
	c-13.8,2.3-25.5-8.4-39.4-10.3c-1.8-0.3-3.5,3-5.1,2.1c-4.3-2.4-4.9-8.5-9.3-10.7c-4.4-2.2-9.3-3.4-13.4-6.1
	c-5.7-3.7-9.3-9.7-12.3-15.8c-1.3-2.7-4.6-5.9-6.6-3.7c-1.1,1.2-0.9,3.3-2.2,4.2c-1.4,1-3.2-0.1-4.4-1.3c-6.7-6.6-11-14.9-8.1-23.8
	c0.8-2.5,2.4-4.3,3-6.8c1-3.8,1.5-8.2,7.5-2.7c1.7,1.5,2.2,2.2,3.3,4.1c2.6,4.3,8.3,4.9,13,6.6c5.4,2,9.8,6.1,14.7,9.1
	s11.1,5.2,16.5,2.9c5.8-2.5,10-9.9,16.3-8.8c1.9,0.3,3.5,1.4,5.4,1.7c5,0.7,13.6-7.3,14.5-2.3c0.3,1.6-0.7,3.3,0.5,4.4
	c1.2,1.1,2.9,1.6,4.5,1.8c3.9,0.6,6.7,3.6,7.7-0.2c0.2-0.8,5.8-2.6,6.5-3c5.8-3,12.1-3.7,18.4-9.4c2.2-2,4.5-4.4,7.5-4.3
	c1.3,0,2.6,0.6,3.9,0.9c8.2,2.1,16.3,2.4,24.8,1.8c3.9-0.2,5.5-6.2,9.4-6c1.8,0.1,3.5,1,5.3,1.2c2.8,0.4,5.6-0.9,8.2-2.1
	c8.6-4.1,17.1-8.2,25.7-12.2c4.3-2,8.7-4.2,12.2-7.3"/>
<path fill="none" stroke="#E1E1E1" stroke-miterlimit="10" d="M363.4,267.4c-0.6,0.1-1.3,0.2-1.9,0.3c-7,1.1-9.8,10.1-13.9,15.8
	c-9.8,13.8-19.7,27.6-29.5,41.4c-4.1,5.7-8.8,11.2-13,16.9c-1.6,2.2-3.6,4.6-6.3,4.5c-2-0.1-3.7-1.5-5.1-2.9
	c-3.5-3.3-7.2-6.8-8.6-11.4c-0.8-2.5-0.8-5.1-1-7.6c-0.4-7.7-1.6-15.3-3.5-22.7c-0.8-3.3-2-6.7-4.6-8.8c-5.7-4.6-13.9-0.3-20.7,2.4
	c-12.1,4.9-25.8,4.4-38.5,1.1c-12.6-3.3-24.4-9.2-36-15c-3.6-1.8-7.2-3.6-10-6.4c-6.5-6.5-17.1-28.6-11.8-24.6
	c1.5,1.2,8.2,0.5,11.3,5.3c4.7,7.2,22.7,11.3,35.5,12.3c6.1,0.5,12.3,0.9,18.4,1.7c5.4,0.7,10.7,1.9,16.2,2.3
	c18.7,1.1,22.6-21.8,27.4-23.1c5.6-1.4,9.9,3.9,15.6,2.8c14.2-2.9,33.7,6.1,42.7-5.2c1.7-2.2,3.4-4.4,5.8-5.8
	c6.6-3.9,13.3-7.8,19.9-11.7c3.4-2,7-4.1,10.3-6.5"/>
<path fill="none" d="M180.8,281.4c11.7,5.9,23.4,11.8,36,15c12.6,3.3,26.4,3.8,38.5-1.1"/>
<text transform="matrix(0.9041 0.4273 -0.4273 0.9041 189.7235 288.6175)"><tspan x="0" y="0" fill="#7D7D7D" font-family="'Verdana-Italic'" font-size="7">1</tspan><tspan x="4.5" y="0" fill="#7D7D7D" font-family="'Verdana-Italic'" font-size="7" rotate="-1.1">0</tspan><tspan x="9" y="-0.1" fill="#7D7D7D" font-family="'Verdana-Italic'" font-size="7" rotate="-2.5">8</tspan><tspan x="13.5" y="-0.3" fill="#7D7D7D" font-family="'Verdana-Italic'" font-size="7" rotate="-4.2">0</tspan><tspan x="18.1" y="-0.6" fill="#7D7D7D" font-family="'Verdana-Italic'" font-size="7" rotate="-6.3">0</tspan></text>
<path fill="none" stroke="#E1E1E1" stroke-miterlimit="10" d="M354.1,151.3c-0.3,1.4-2.8-0.3-3.5-1.5c-0.7-1.2-1.5-3.3-0.3-4.1
	c1.2-0.8,1.9,2,2.9,3c0.1,0.1,0.3,0.3,0.3,0.4c0.1,0.2,0,0.4,0,0.6C353.5,150.4,354.2,150.8,354.1,151.3z"/>
<path fill="none" stroke="#E1E1E1" stroke-miterlimit="10" d="M343.1,140.8c0.4,0.1,0.8,0.3,1.1,0.1c0.5-0.3,0.7-1.1,0.4-1.6
	c-0.5-0.8-1.7-1-2.6-0.8c-0.5,0.1-0.6,1-0.3,1.4C342.1,140.3,342.6,140.5,343.1,140.8z"/>
<path fill="none" stroke="#D6D6D6" stroke-miterlimit="10" d="M97.4-7.5c-0.1,2-0.2,4-1,5.8s-2.3,3.4-4.3,3.6
	C89.5,2.2,87,0,84.3,0.4c-2.1,0.4-3.5,2.2-4.8,3.8c-2.7,3.2-6,5.8-8.8,9c-5.1,5.8-8.2,13-11.2,20c-1.4,3.3-2.6,9.9-3.2,13.4
	c-0.6,3.5-2.1,4.2-2.9,7.2"/>
<path fill="none" stroke="#D6D6D6" stroke-miterlimit="10" d="M159.4,63.4c11.2,1.2,22.8-2,31.8-7.3c0.8-0.5,1.7-0.9,2.7-0.9
	c1.3,0,2.5,0.7,3.7,1.1c8.4,2.4,6.7-4.9,8.6-9c1.7-3.8,2.2-6.2,4.6-8.8c2.3-2.4,5.5,0.1,10.7,0.1c1.2,0,1,2.4,2.2,2.3
	c1.2-0.1,0.7-2.1,1.9-2.6c0.5-0.2,3.6,4.8,9,3.2c2.6-0.8,5.4-1.1,8.1-1.1c3.3,0,6.4,1.4,9.4,2.8c4.3,2,8.5,4,12.7,6.1
	c0.9,0.5,1.9,0.9,2.9,0.9c1.3-0.1,2.5-1,3.8-1.3c2.2-0.5,4.2,1,6.1,2.3c4.6,2.9,9.8,4.5,15,6c8.5,2.5,13.9,5.6,21.4,6.7
	c4.2,0.6,11.4-4,15.6-3.4c2.1,0.3,4,1,6,1.7c3.5,1.3,8.4,6.2,11.3,3.7c1.6-1.4,5.6-0.2,10,2.6c2.3,1.5,5,1.8,7.7,2.3"/>
<path fill="none" stroke="#D6D6D6" stroke-miterlimit="10" d="M195.4,167.4c1.1-1.2,1.3-3.2,2.6-4.2c0.8-0.6,1.8-0.7,2.8-0.9
	c2-0.2,4-0.5,5.9-0.4c1.4,0.1,2.8,0.3,4.2,0.4c7.8,0.8,15.6-0.8,23.5-1.1c2.2-0.1,4.7,0,6.5,1.4"/>
<path fill="none" stroke="#D6D6D6" stroke-miterlimit="10" d="M261.6,158.3c0.2-1.2-0.4-1.6-0.1-2.4c0.3-0.8,1-1.4,1.8-1.8
	c0.7-0.4,1.6-0.7,2.4-0.8c0.7-0.1,1.4-0.1,2.1-0.3c0.8-0.2,1.4-0.6,2.1-1c2.8-1.4,5.9-2.2,9-2.4c0.6,0,1.2,0,1.7,0.1
	c0.5,0.1,0.9,0.4,1.3,0.6c1.9,1.2,3.5,2.6,5.4,3.7c0.7,0.5,1.5,0.9,2.2,1.3c3.1,2,5,5.3,7.4,8.2c0.6,0.7,1.4,1.8,1.8,3.2"/>
<path fill="#7BBCEB" stroke="#4E9BD7" stroke-miterlimit="10" d="M194.5,163.8c0.2,3,1.7,4.7,3,8.7c0.2,0.7,0.9,1.2,1.2,2
	c0.3,0.8,0.5,1.6,0.6,2.4c0.3,1.8,0.6,3.7,0.8,5.5c0.3,1.7,0.5,3.4,0,5c-0.2,0.7-0.6,1.3-0.9,1.8c-1,1.7-2,3.4-3,5.2
	c-0.3,0.5-0.6,1.1-1.1,1.5c-0.8,0.7-1.8,0.9-2.8,0.9c-2.8,0.2-5.5-0.7-8.1-1.7c-0.7-0.3-1.4-0.5-2.1-0.4c-0.6,0.1-1.2,0.4-1.7,0.6
	c-2.8,1.4-6,2.3-9.1,2.5c-0.5,0-1.1,0.1-1.6-0.2c-0.5-0.2-0.8-0.7-1.3-1c-0.7-0.4-1.6-0.4-2.4-0.4c-2.1,0.1-4.1,0.1-6.1-0.7
	c-2.1-0.8-2.9-2.6-4.2-4.4s-2.4-3.5-2.3-5.8c0.1-3.3,2.1-6.4,1.7-9.7c-0.1-0.5-0.2-1,0.1-1.5c0.1-0.3,0.4-0.5,0.5-0.7
	c0.3-0.4,0.3-1,0.4-1.5c0.4-2.2,2.3-3.8,4.2-5.1c4.7-3.1,10.1-5,15.4-6.7c2.3-0.8,4.8-1.6,7.2-1.4c0.5,0,1.1,0.1,1.6,0
	c0.6-0.2,1.1-0.6,1.6-1.1c1.9-1.6,4.8-2.3,6.6-0.8C194.5,158.6,194.3,161.4,194.5,163.8z"/>
<path fill="#EAEAEA" stroke="#D6D6D6" stroke-miterlimit="10" d="M254.4,152.9c0.4,0.2,0.9,0.3,1.3,0.5c0.4,0.3,0.7,0.7,1,1.1
	c1,1.4,2.3,2.5,3.8,3.4c1,0.5,2.1,1.1,2.3,2.2c0.1,0.6-0.2,1.2-0.2,1.7c-0.1,1,0.3,1.9,0.5,2.9c0.1,1-0.1,2-0.6,2.9
	c-0.3,0.6-0.8,1.1-1.4,1.4c-0.5,0.2-1,0.3-1.5,0.4c-1.7,0.3-4.6,1-5-0.7c-0.3-1,0.3-2.1,0-3.1c-0.1-0.2-0.2-0.4-0.4-0.5
	c-0.2,0-0.3,0.1-0.4,0.2c-2.1,1.5-2.2,5.4-4.7,7c-1.4,0.8-3.2,0.6-4.7,0.1c-0.3-0.1-0.7-0.2-0.9-0.4c-0.3-0.3-0.5-0.7-0.7-1.1
	c-1.1-2.4-1.7-5-1.7-7.6c0-0.3,0-0.6,0.2-0.8c0.2-0.3,0.7-0.5,0.9-0.8c0.4-0.7-0.5-1.4-0.6-2.1c0-0.4,0.1-0.9,0.4-1.2
	c1.6-2,4-0.8,5.7-1.9c1.2-0.8,0.3-2.8,0.4-4.2c0-0.3,0.1-0.6,0.2-0.9c0.3-0.5,1-0.7,1.6-0.8c0.6-0.1,1.3-0.2,1.9-0.3
	c0.2,0,0.5-0.1,0.6,0c0.3,0.1,0.4,0.5,0.5,0.8C253,151.9,253.6,152.6,254.4,152.9z"/>
<path fill="#EAEAEA" stroke="#D6D6D6" stroke-miterlimit="10" d="M308.1,196.5c1.4,0.7,1.8,2.8,3.4,3.2c0.9,0.2,1.7-0.2,2.6-0.3
	c1.7-0.3,3.5-0.1,5.1,0.5c0.6,0.3,1.2,0.6,1.9,0.6c1,0,1.8-0.8,2.5-1.6c1.4-1.5,2.5-5.8,4.2-4.6c0.8,0.5,0.3,1.8,1,2.4
	c0.7,0.6,1.6,1.3,1.6,2.2c0,0.3-0.1,0.7-0.1,1c0,1.4,1.3,2.3,2.5,3c0.9,0.5,1.8,1,2.7,1.6c0.2,0.1,0.4,0.2,0.6,0.2
	c0.2,0,0.4-0.1,0.6-0.3c1.7-1.1,3.4-2.2,5.1-3.3c0.4-0.3,0.9-0.6,1.3-0.7c0.9-0.2,1.9,0.1,2.8-0.2c0.8-0.3,1.3-1.1,1.7-1.9
	c0.8-1.5,0.5-3.4,0-5c-0.6-1.9-1.5-2.9-2.6-4.6c-0.9-1.4-1.2-3.4-2.6-4.3c-0.5-0.3-1.1-0.4-1.7-0.5c-1.7-0.3-3.4-0.6-5.2-1
	c-0.3-0.1-0.6-0.1-0.9-0.3c-0.6-0.4-0.7-1.2-0.7-1.9c-0.1-2.1,0-4.2-0.3-6.3c-0.3-2.1-1.1-4.2-2.7-5.6c-1.6-1.4-4.1-1.8-5.9-0.6
	c-0.3,0.2-0.7,0.5-1.1,0.7c-1.6,0.6-2.9-1.6-4.6-1.7c-1.7-0.1-2.7,1.8-3.8,3.1c-1.8,2.2-4.6,3.4-7.2,4.4c-1.1,0.4-2.3,0.9-3.5,0.9
	c-1.1,0-2.2-0.5-3.2-1c-0.8-0.4-1.6-0.9-2.1-1.6c-1.1-1.6-0.8-3,0.5-2.4c1,0.5,1.6,1.7,2.7,2.1c0.2,0.1,0.6,0.1,0.7-0.1
	c0.1-0.1,0.1-0.4,0.1-0.6c0-1.4,0-2.9,0-4.3c0-0.9-0.1-2-0.9-2.5c-0.6-0.4-1.4-0.2-2,0.1s-1.1,0.9-1.7,1.3c-1.4,1.1-3.3,1.5-5,1.2
	c-0.9-0.2-1.7-0.5-2.6-0.4s-1.7,1.1-1.3,1.8c0.2,0.3,0.5,0.6,0.9,0.8c0.8,0.5,1.4,1.1,2,1.9c0.1,0.2,0.2,0.3,0.3,0.6
	c0,0.2-0.1,0.4-0.2,0.6c-1.3,2.6-1.2,7.9,0.4,8.5c1.9,0.7,4.2-0.9,5.5,0.6c1,1.2,0.9,2.6,1.9,3.9c0.2,0.2,0.4,0.4,0.5,0.7
	c0.2,0.5-0.2,1.1-0.7,1.4c-0.5,0.3-1,0.4-1.5,0.6c-1.5,0.8-1.9,2.8-1.5,4.4s1.6,2.9,2.8,4.1c0.2,0.2,0.4,0.4,0.7,0.5
	c0.4,0.1,1.6-0.2,2-0.3c1.9-0.7,2.5-1.8,4-1.4C307.3,196.1,307.9,196.5,308.1,196.5z"/>
<path fill="none" stroke="#4E9BD7" stroke-miterlimit="10" d="M192.9,157.3c0.6-0.6,1.2-2,1.2-2.4c-0.1-0.9-1.1-1.5-1.7-2.2
	c-0.9-1.2-1.2-2.7-1.5-4.1c-0.1-0.3-0.1-0.6-0.1-1c0.1-0.4,0.4-0.8,0.5-1.2c0.4-1.3-0.7-2.5-1.5-3.5c-2.5-2.9-3.9-6.6-4.6-10.3
	c-0.7-3.7-0.8-7.6-0.8-11.4c0-0.7,0-1.4,0.4-2c0.2-0.3,0.5-0.6,0.7-0.9c0.6-0.9,0.4-2,0.3-3c-0.4-3.3-0.6-6.6-0.5-10
	c0-0.6,0-1.2,0.4-1.6c0.3-0.4,0.8-0.6,1.1-1c0.2-0.3,0.2-0.7,0.2-1.1c0-0.9,0-1.7,0-2.6c0.1-3.4,1.9-6.2,2-9.6c0-1,0-2.1-0.4-3
	c-0.4-1.1-1.1-2-1.9-2.8c-2.8-3.4-5.6-6.7-8.4-10.1c-0.5-0.6-1.1-1.3-1.7-1.8c-0.7-0.6-1.6-0.9-2.5-1.3c-4.4-1.9-7.7-3.8-12.1-5.6
	c-2.2-0.9-4.5-3.2-6.9-3.8c-2-0.4-5.2,0.8-7.2,0.1c-4.5-1.6-7.4-5.7-10.3-9.5c-0.7-0.9-1.3-2.7-2.4-3.1c-0.7-0.3-5-0.4-5.8-0.4
	c-3.7-0.1-6,1.5-6.9-0.1c-0.9-1.6-1-4.1-3.4-4.1c-3.9,0-2.3,2.2-4.1,2.2c-1.9,0-2.2-3.3-4-2.9c-1,0.2-3,1.5-4,1.6
	c-2.3,0.4-2.6-2.3-4-4.2c-1.4-1.9-4.4-2.5-6.8-2.5c-3,0-3.4,2.5-4.1,3.2c-1.8,1.8-3.4-0.5-5.4,1.1c-1.5,1.2-2.4,3.8-4.2,4.4
	c-1.8,0.7-1.6-1.2-2.8-2.8c-1.2-1.6-2.9-0.9-3.4-1c-0.5-0.2-2,1.1-2.4,1.5c-3.9,3.8-7.8,5.8-11.6,6.5c-1.6,0.3-2.4,2.6-4.3,2.5
	c-2.9,0-5.9,0-8.7,0.8c-2.8,0.8-4.7,0.4-7.6,0.5c-1.1,0.1-2.8,0-3.9,0.1c-1.2,0.1-2.4,1.2-3.5,1.5c-0.9,0.3-2.1,1.2-2.9,1.8
	c-0.7,0.5-0.9,0.6-1.6,1.1c-0.7,0.5-1.8,0-3-0.6c-0.7-0.4-2.7-0.5-3.5-0.5c-3.6-0.2-5,3.3-8,1.2c-0.7-0.5-1.3-1.6-2.2-1.7
	c-1-0.2-1.9-0.3-2.9-0.5c-1.4-0.2-3-0.4-4.1,0.4c-0.5,0.4-0.9,0.9-1.4,1.3C3.4,60.5,1.1,60-0.9,60c-4.1,0.1-7.5,2.8-10.7,5.4"/>
<path fill="none" stroke="#D6D6D6" stroke-miterlimit="10" d="M242.2-8.1c-2.2,8.2-5.4,16.1-9.7,23.4c-2.1,3.6-4.6,7.4-4.3,11.6
	c0.1,1.2,0.4,2.4,0.1,3.5c-0.3,1.2-1.4,2.2-1.2,3.5c0.2,1.4,1.7,2.1,2.7,3c1,0.9,0.2,3-0.3,4.1"/>
<path fill="none" stroke="#D6D6D6" stroke-miterlimit="10" d="M96.3,375c-0.6-1.4,1.2-2.8,2.8-2.9c1.6-0.2,4,0.4,4.4-1.1
	c0.3-1-0.3-2.1,0.3-3c0.6-0.9,2.3-1.3,2.6-0.3c0.7,1.8,2.7,2.3,4.6,2.2c2.4-0.1,4.7-0.2,7.1-0.3c0.9,0,1.8-0.1,2.6,0.3
	c1.2,0.6,1.8,1.8,2.8,2.6c1.7,1.3,4.1,0.9,6.1,0.4c5.1-1.3,10.1-3.3,14.6-5.9"/>
<path fill="none" stroke="#D6D6D6" stroke-miterlimit="10" d="M162.1,351.4c3.5-0.6,7.6-1.1,11.2-0.8c0.3,0,2.8,0.1,2.9,0.4
	c0.5,1.6,0.1,2.3,1.7,3c1,0.5,2.2,0.3,3.4,0.1c1.1-0.2,2.2-0.4,3.4-0.6"/>
<path fill="none" stroke="#D6D6D6" stroke-miterlimit="10" d="M108.5,369.5c2.6-1.3,3-3,5.6-4.3c0.9-0.4,4.1-0.4,4.9-1.1
	c1.3-1.1,1.9-1.6,3.6-1.8c2.7-0.3,3.8-4.2,5.4-6.4c1.2-1.7,2.7-3.5,4.7-3.6c1.8-0.1,3.4,1.1,5.2,0.9c2.5-0.3,3.9-3.2,6.4-3.7
	c1-0.2,2,0.1,3,0.2c2.5,0.3,5-2,7.2-0.9c1.9,1,2.4,3.1,4.5,2.7c0.6-0.1,1.1-0.4,1.7-0.3c0.5,0,1,0.3,1.4,0.5
	c3.8,1.9,7.6,3.9,11.4,5.8c0.6,0.3,1.3,0.7,2,0.8c1.5,0.2,3-0.8,4.6-0.6c2.1,0.2,4,2.5,6,1.7c0.6-0.3,1.1-0.8,1.8-0.8
	c1.4-0.1,2.6,1.9,3.8,1.2c0.5-0.3,0.7-0.9,1.1-1.3c1.3-1,2.7,1,4.2,1.5c1.5,0.5,3-0.6,3.9-1.9c0.9-1.2,1.5-2.7,2.6-3.8
	c1.9-1.7,4.7-1.6,7.3-1.7c3-0.1,6-0.6,9-1c5.9-0.9,11.8-1.8,17.7-2.7"/>
<path fill="none" stroke="#585858" stroke-miterlimit="10" stroke-dasharray="4,1" d="M-8.5,206.9c5.4-3.8,6.5-11,11.1-15.7
	c2.1-2.2,4.2-1.5,5.9-2.3c2.7-1.2,3.8-3.4,4.7-6.2c1-2.8,3-7.6,4.9-9.9s5.4,1.1,6.7-0.1c1.2-1.1-0.9-3.2,0.3-4.3
	c1.2-1.1,2.7,0.1,4.3,0c0.8-0.1-0.1-2,0.7-1.9c1.9,0.1,2.2,1.9,6,0.7c1.8-0.5,3.4-1.8,5.3-1.6c1,0.1,1.9,0.6,2.9,0.8
	c3.4,0.6,7.9-3.1,11.4-3c4.9,0.1,6.1,2.7,7.8,2.6c4-0.2,8.6-2.4,14.4-5.5c3.1-1.6,5.7-4.1,9.1-3.5c1.4,0.3,3.5,1.8,4.8,2.3
	c3.7,1.4,8.1,1.8,11.4-0.3c1.4-0.9,2.5-2.2,3.8-3.3c4.8-3.9,12.4-3.9,17.2,0.1c0.8,0.7,2.2,2.3,3.2,2.9c1.5,0.9,3-0.6,4.8-0.4
	c5,0.7,9.7,3.1,14.4,5.2c2.4,1.1,6.2,3.4,8.8,3.4c2.1,0.1,2.8-1.5,4.7-2.5c7.1-3.7,11-6,18.7-6.9c2.9-0.3,8.1-3.9,12.2-3.1"/>
<path fill="none" stroke="#585858" stroke-miterlimit="10" stroke-dasharray="4,1" d="M-10.1,305.3c4.5,1.2,9.4,3.5,12.1,7.3
	c0.9,1.2,1.6,3.6,2.8,4.5c1.9,1.5,3.8,0.7,6.1,1.2c3.1,0.8,0.1,6.4,3,7.9c1,0.5,3.9,1.1,5,1.2c4.1,0.6,6.9,2.1,8.5,6
	c0.7,1.8,1,3.7,1.5,5.5c0.5,1.6,1.2,3.1,2,4.6c3.7,7,9.6,12.9,15.3,18.5c2.5,2.4,4,5.3,7.2,6.7c2,0.9,4.3,1.4,6,2.7
	c2.4,1.9,3.9,5.4,6.9,5.4"/>
<text transform="matrix(1 0 0 1 71.0762 215.7794)"><tspan x="0" y="0" fill="#585858" font-family="'Verdana-Italic'" font-size="8">Ragged</tspan><tspan x="11" y="9.6" fill="#585858" font-family="'Verdana-Italic'" font-size="8">Peak</tspan></text>
<text transform="matrix(1 0 0 1 234.2556 135.8297)"><tspan x="0" y="0" fill="#585858" font-family="'Verdana-Italic'" font-size="8">Young Lakes</tspan><tspan x="0" y="9.6" fill="#585858" font-family="'Verdana-Italic'" font-size="8">(middle)</tspan></text>
<text transform="matrix(1 0 0 1 296.6556 149.4297)"><tspan x="0" y="0" fill="#585858" font-family="'Verdana-Italic'" font-size="8">Young Lakes</tspan><tspan x="0" y="9.6" fill="#585858" font-family="'Verdana-Italic'" font-size="8">(upper)</tspan></text>
<text transform="matrix(1 0 0 1 200.2556 195.8297)"><tspan x="0" y="0" fill="#7BBCEB" font-family="'Verdana-Italic'" font-size="8">Young Lakes</tspan><tspan x="0" y="9.6" fill="#7BBCEB" font-family="'Verdana-Italic'" font-size="8">(lower)</tspan></text>
<path fill="none" d="M117.5,106.8c14-5.4,29.6-1.7,44.1,2c2.7,0.7,5.5,1.4,7.8,3.1"/>
<text transform="matrix(0.9779 0.2092 -0.2092 0.9779 148.1839 108.1819)"><tspan x="0" y="0" fill="#7D7D7D" font-family="'Verdana-Italic'" font-size="7">9</tspan><tspan x="4.4" y="0" fill="#7D7D7D" font-family="'Verdana-Italic'" font-size="7" rotate="1.4">8</tspan><tspan x="8.8" y="0.1" fill="#7D7D7D" font-family="'Verdana-Italic'" font-size="7" rotate="2.2">0</tspan><tspan x="13.2" y="0.2" fill="#7D7D7D" font-family="'Verdana-Italic'" font-size="7" rotate="4">0</tspan></text>
<path fill="none" d="M275.9,228c4.9-0.5,9.9-0.9,14.6-2.5c4.6-1.5,10.6,1.2,14.1-2.2"/>
<text transform="matrix(0.9952 -9.833761e-02 9.833761e-02 0.9952 276.3372 230.5511)"><tspan x="0" y="0" fill="#7D7D7D" font-family="'Verdana-Italic'" font-size="7">1</tspan><tspan x="4.5" y="0" fill="#7D7D7D" font-family="'Verdana-Italic'" font-size="7" rotate="-2.4">0</tspan><tspan x="9.2" y="-0.2" fill="#7D7D7D" font-family="'Verdana-Italic'" font-size="7" rotate="-7.2">4</tspan><tspan x="13.6" y="-0.9" fill="#7D7D7D" font-family="'Verdana-Italic'" font-size="7" rotate="-7.3">0</tspan><tspan x="17.4" y="-1.3" fill="#7D7D7D" font-family="'Verdana-Italic'" font-size="7" rotate="7.7">0</tspan></text>
<path fill="none" d="M280.1,92c13.6-2.9,27.4-5.3,41.3-6.1c5.7-0.3,11.5-0.4,17.2-1.2"/>
<text transform="matrix(0.9949 -0.1006 0.1006 0.9949 311.0872 89.2571)"><tspan x="0" y="0" fill="#7D7D7D" font-family="'Verdana-Italic'" font-size="7">1</tspan><tspan x="4.4" y="0" fill="#7D7D7D" font-family="'Verdana-Italic'" font-size="7" rotate="1.3">0</tspan><tspan x="8.8" y="0.1" fill="#7D7D7D" font-family="'Verdana-Italic'" font-size="7" rotate="2.6">0</tspan><tspan x="13.2" y="0.3" fill="#7D7D7D" font-family="'Verdana-Italic'" font-size="7" rotate="3.2">0</tspan><tspan x="17.7" y="0.6" fill="#7D7D7D" font-family="'Verdana-Italic'" font-size="7" rotate="2.3">0</tspan></text>
<path fill="none" d="M14.5,88.1c8.8-4.5,18.3-7.4,28.1-8.5c1.5-0.2,3-0.3,4.2-1.1"/>
<text transform="matrix(0.9645 -0.2642 0.2642 0.9645 28.8099 85.0008)"><tspan x="0" y="0" fill="#7D7D7D" font-family="'Verdana-Italic'" font-size="7">9</tspan><tspan x="4.3" y="0" fill="#7D7D7D" font-family="'Verdana-Italic'" font-size="7" rotate="3.1">2</tspan><tspan x="8.6" y="0.2" fill="#7D7D7D" font-family="'Verdana-Italic'" font-size="7" rotate="6.2">0</tspan><tspan x="12.9" y="0.7" fill="#7D7D7D" font-family="'Verdana-Italic'" font-size="7" rotate="8.4">0</tspan></text>
<path fill="none" d="M36.5,296.9c-5.7-2.2-3.8-11.7-3.1-17.7c0.3-2.8,1-5.7,0.8-8.5"/>
<text transform="matrix(-0.1684 -0.9857 0.9857 -0.1684 35.6893 293.3353)"><tspan x="0" y="0" fill="#7D7D7D" font-family="'Verdana-Italic'" font-size="7">1</tspan><tspan x="3.9" y="0" fill="#7D7D7D" font-family="'Verdana-Italic'" font-size="7" rotate="12.1">0</tspan><tspan x="8.1" y="0.9" fill="#7D7D7D" font-family="'Verdana-Italic'" font-size="7" rotate="16.6">2</tspan><tspan x="12.3" y="2.2" fill="#7D7D7D" font-family="'Verdana-Italic'" font-size="7" rotate="17.6">0</tspan><tspan x="16.6" y="3.6" fill="#7D7D7D" font-family="'Verdana-Italic'" font-size="7" rotate="15.4">0</tspan></text>
<path fill="none" d="M317.2,341.7c8.2-12.9,20.6-22.5,29.9-34.7"/>
<text transform="matrix(0.6702 -0.7422 0.7422 0.6702 327.3343 332.5589)"><tspan x="0" y="0" fill="#7D7D7D" font-family="'Verdana-Italic'" font-size="7">1</tspan><tspan x="4.4" y="0" fill="#7D7D7D" font-family="'Verdana-Italic'" font-size="7" rotate="1.2">0</tspan><tspan x="8.8" y="0.1" fill="#7D7D7D" font-family="'Verdana-Italic'" font-size="7" rotate="1.7">6</tspan><tspan x="13.3" y="0.2" fill="#7D7D7D" font-family="'Verdana-Italic'" font-size="7" rotate="1.5">0</tspan><tspan x="17.8" y="0.4" fill="#7D7D7D" font-family="'Verdana-Italic'" font-size="7" rotate="0.7">0</tspan></text>
<g>
	<g>
		<polyline fill="none" stroke="#585858" stroke-miterlimit="10" points="85.2,341.6 85.2,348.7 275.4,348.7 275.4,341.7 		"/>
		<line fill="none" stroke="#585858" stroke-miterlimit="10" x1="180.5" y1="341.4" x2="180.5" y2="348.7"/>
		<line fill="none" stroke="#585858" stroke-miterlimit="10" x1="161.2" y1="349.2" x2="161.2" y2="343.7"/>
		<line fill="none" stroke="#585858" stroke-miterlimit="10" x1="142.4" y1="349.2" x2="142.4" y2="343.7"/>
		<line fill="none" stroke="#585858" stroke-miterlimit="10" x1="123.3" y1="349.2" x2="123.3" y2="343.5"/>
		<line fill="none" stroke="#585858" stroke-miterlimit="10" x1="104.6" y1="349.2" x2="104.6" y2="343.7"/>
	</g>
	<text transform="matrix(1 0 0 1 83.7834 339.1468)" fill="#585858" font-family="'Verdana'" font-size="8">0</text>
	<text transform="matrix(1 0 0 1 174.2945 339.1468)" fill="#585858" font-family="'Verdana'" font-size="8">0.5</text>
	<text transform="matrix(1 0 0 1 258.3415 339.1468)" fill="#585858" font-family="'Verdana'" font-size="8">1 mi</text>
</g>
</svg>
